<?xml version="1.0" standalone="no"?>
<!DOCTYPE svg PUBLIC "-//W3C//DTD SVG 1.1//EN" "http://www.w3.org/Graphics/SVG/1.1/DTD/svg11.dtd" >
<svg xmlns="http://www.w3.org/2000/svg" xmlns:xlink="http://www.w3.org/1999/xlink" version="1.1">
<metadata>
Created by Christoph Koeberlin (http://christoph.koe.berlin)
Copyright (c) 2017 Swiss Typefaces Sarl. All rights reserved.
</metadata>
<defs>
<font id="Font" horiz-adv-x="0" >
  <font-face 
    font-family="Font"
    font-weight="400"
    font-style="italic"
    font-stretch="normal"
    units-per-em="1000"
    panose-1="2 11 5 4 0 0 0 0 0 4"
    ascent="800"
    descent="-200"
    x-height="502"
    cap-height="758"
    bbox="-457 -403 1382 1057"
    underline-thickness="45"
    underline-position="-130"
    slope="-17"
    unicode-range="U+0020-FEFF"
  />
<missing-glyph horiz-adv-x="644" 
d="M72 758h500v-758h-500v758zM322 396l217 343h-434zM91 30l221 349l-221 349v-698zM553 30v698l-220 -349zM539 19l-217 343l-217 -343h434z" />
    <glyph glyph-name="f_f.liga" unicode="ff" horiz-adv-x="743" 
d="M194 453h-108l19 49h108q59 137 146.5 207.5t195.5 70.5h9l-33 -86h-76q-36 0 -66.5 -10.5t-52 -33.5t-32 -59.5t-5.5 -88.5h129l-19 -49h-125l-166 -453h-90zM543 453h-88l19 49h87q60 137 147 207.5t195 70.5h9l-33 -86h-76q-35 0 -65.5 -10.5t-52 -33.5t-32.5 -59.5
t-6 -88.5h169l-19 -49h-164l-167 -453h-90z" />
    <glyph glyph-name="f_i.liga" unicode="fi" horiz-adv-x="628" 
d="M451 694q-36 0 -65.5 -10.5t-50.5 -33.5t-31 -59.5t-5 -88.5h336l-193 -502h-90l174 453h-242l-166 -453h-90l166 453h-108l19 49h108q59 137 141 207.5t189 70.5h4l-33 -86h-63zM594 717q0 24 18.5 42.5t42.5 18.5q25 0 43.5 -18.5t18.5 -42.5q0 -25 -18.5 -43.5
t-43.5 -18.5q-24 0 -42.5 18.5t-18.5 43.5z" />
    <glyph glyph-name="f_f_i.liga" unicode="ffi" horiz-adv-x="976" 
d="M194 453h-108l19 49h108q59 137 146.5 207.5t195.5 70.5h9l-33 -86h-76q-36 0 -66.5 -10.5t-52 -33.5t-32 -59.5t-5.5 -88.5h129l-19 -49h-125l-166 -453h-90zM543 453h-88l19 49h87q60 137 141.5 207.5t188.5 70.5h4l-33 -86h-63q-35 0 -65 -10.5t-51 -33.5t-31 -59.5
t-5 -88.5h336l-193 -502h-89l173 453h-241l-167 -453h-90zM942 717q0 24 18.5 42.5t42.5 18.5q25 0 43.5 -18.5t18.5 -42.5q0 -25 -18.5 -43.5t-43.5 -18.5q-24 0 -42.5 18.5t-18.5 43.5z" />
    <glyph glyph-name="f_l.liga" unicode="fl" horiz-adv-x="634" 
d="M194 453h-108l19 49h108q59 137 146.5 207.5t195.5 70.5h9l-33 -86h-76q-36 0 -66.5 -10.5t-52 -33.5t-32 -59.5t-5.5 -88.5h162l-19 -49h-158l-166 -453h-90zM636 780h90l-268 -780h-90z" />
    <glyph glyph-name="f_f_l.liga" unicode="ffl" horiz-adv-x="978" 
d="M192 453h-108l19 49h108q59 137 146.5 207.5t195.5 70.5h9l-33 -86h-76q-36 0 -66.5 -10.5t-52 -33.5t-32 -59.5t-5.5 -88.5h129l-19 -49h-125l-166 -453h-90zM541 453h-88l19 49h87q60 137 147 207.5t195 70.5h9l-33 -86h-76q-35 0 -65.5 -10.5t-52 -33.5t-32.5 -59.5
t-6 -88.5h169l-19 -49h-164l-167 -453h-90zM982 780h90l-268 -780h-90z" />
    <glyph glyph-name=".notdef" horiz-adv-x="644" 
d="M72 758h500v-758h-500v758zM322 396l217 343h-434zM91 30l221 349l-221 349v-698zM553 30v698l-220 -349zM539 19l-217 343l-217 -343h434z" />
    <glyph glyph-name="glyph1" 
 />
    <glyph glyph-name="glyph2" horiz-adv-x="238" 
 />
    <glyph glyph-name="space" unicode=" " horiz-adv-x="238" 
 />
    <glyph glyph-name="exclam" unicode="!" horiz-adv-x="289" 
d="M116 216q21 71 35 125.5t23.5 98.5t17 81t15 73.5t17.5 74.5t26 84q3 10 22 15.5t39.5 4t35 -9.5t9.5 -23q-14 -44 -28.5 -80t-29.5 -70.5t-31.5 -70.5t-35 -80t-40 -98t-46.5 -125h-29zM77 -12q-26 0 -44 19t-18 46q0 26 18 44.5t44 18.5q28 0 46.5 -18.5t18.5 -44.5
q0 -27 -18.5 -46t-46.5 -19z" />
    <glyph glyph-name="quotedbl" unicode="&#x22;" horiz-adv-x="420" 
d="M217 740q5 19 15 26.5t38 7.5t34.5 -10t-5.5 -36l-114 -250h-28zM417 740q5 19 15 26.5t38 7.5t34.5 -10t-5.5 -36l-114 -250h-28z" />
    <glyph glyph-name="numbersign" unicode="#" horiz-adv-x="817" 
d="M214 206h-184l19 46h183l105 257h-184l19 46h183l90 221h49l-90 -221h232l90 221h50l-90 -221h182l-18 -46h-182l-105 -257h182l-19 -46h-181l-84 -206h-50l84 206h-232l-84 -206h-49zM513 252l105 257h-232l-105 -257h232z" />
    <glyph glyph-name="dollar" unicode="$" horiz-adv-x="563" 
d="M461 886l-29 -112q85 -2 132.5 -31t47.5 -70q0 -20 -12 -33.5t-38 -13.5q-23 0 -35.5 16.5t-21.5 39.5q-12 31 -29.5 45.5t-50.5 16.5l-81 -316l18 -19q28 -29 51.5 -54t40.5 -50t27 -52.5t10 -60.5q0 -49 -21 -86t-57 -62.5t-83 -39.5t-99 -16l-28 -108h-34l28 109
q-42 2 -77.5 14t-61 30t-39.5 40t-13 45q1 26 16 39t37 13q16 0 25.5 -7.5t15.5 -19.5t10.5 -28t11.5 -32q4 -11 10 -21.5t15.5 -18.5t23.5 -14t34 -8l87 338l-27 28q-45 46 -71 91t-26 101q0 42 19 76.5t51 59.5t73.5 40t86.5 18l29 113h34zM317 455l73 288
q-31 -3 -57.5 -14t-46.5 -28t-31.5 -40.5t-11.5 -51.5q0 -79 73 -153zM411 163q0 51 -27 90.5t-65 78.5l-80 -312q76 3 124 39.5t48 103.5z" />
    <glyph glyph-name="percent" unicode="%" horiz-adv-x="945" 
d="M887 758h72l-828 -758h-72zM244 337q-31 0 -53 11t-36.5 30.5t-21.5 44.5t-7 54q0 50 19 102.5t51 96t73.5 71.5t85.5 28q31 0 53 -11t36.5 -30.5t21.5 -45t7 -53.5q0 -50 -19 -102.5t-51 -96t-73.5 -71.5t-85.5 -28zM249 360q24 0 44.5 16t38 41.5t31.5 58.5t23.5 67
t14.5 67t5 58q0 39 -12.5 61.5t-43.5 22.5q-24 0 -44.5 -16t-38 -41.5t-31.5 -58.5t-23.5 -67t-14.5 -67t-5 -58q0 -38 12.5 -61t43.5 -23zM672 -12q-31 0 -53 11t-36.5 30.5t-21.5 44.5t-7 54q0 50 19 102.5t51 96t73.5 71.5t85.5 28q31 0 53 -11t36.5 -30.5t21.5 -45
t7 -53.5q0 -50 -19 -102.5t-51 -96t-73.5 -71.5t-85.5 -28zM677 11q24 0 44.5 16t38 41.5t31.5 58.5t23.5 67t14.5 67t5 58q0 39 -12.5 61.5t-43.5 22.5q-24 0 -44.5 -16t-38 -41.5t-31.5 -58.5t-23.5 -67t-14.5 -67t-5 -58q0 -38 12.5 -61t43.5 -23z" />
    <glyph glyph-name="ampersand" unicode="&#x26;" horiz-adv-x="994" 
d="M351 -13q-75 0 -127.5 26.5t-86 68.5t-48.5 93.5t-15 101.5q0 72 23 128.5t57.5 96t73.5 60.5t72 21q42 0 68 -22t28 -64q42 34 74 66.5t54 65.5t33 68t11 74q0 41 14 55t40 14q17 0 30.5 -6.5t19.5 -20.5t1.5 -35t-23.5 -50q-49 -73 -100.5 -130t-112 -106.5t-134 -96.5
t-166.5 -101q10 -48 33 -89t57 -71t77.5 -47t93.5 -17q61 0 111 20.5t90.5 58.5t73 92.5t57.5 123.5l-26 23q-26 23 -55.5 43.5t-57.5 20.5q-24 0 -41.5 -21.5t-12.5 -51.5q3 -15 10 -27t14.5 -22.5t13.5 -20.5t6 -21q0 -18 -14 -32t-37 -14q-25 0 -40.5 21t-15.5 63
q0 21 7.5 41t19.5 38t27 34t30 30q33 29 55 38t41 9q12 0 23.5 -3.5t26 -12t33.5 -23t46 -37.5l33 -28q28 -23 54.5 -40t52.5 -17q27 0 46 17t19 45q0 15 -6 28t-13.5 26t-13.5 27t-6 30q0 19 13 31t36 12q26 0 40 -20.5t14 -57.5q0 -31 -11.5 -58.5t-30 -51t-41 -42.5
t-44.5 -33t-36 -18t-27 -4q-11 0 -21.5 3t-23.5 10t-29.5 19t-37.5 30q-23 -59 -57 -122.5t-82.5 -116.5t-112.5 -87.5t-147 -34.5zM130 361q0 -10 0.5 -19.5t1.5 -18.5q52 31 98.5 59t88.5 57q2 37 -15.5 63.5t-47.5 26.5q-25 0 -47.5 -14t-40 -37t-28 -53.5t-10.5 -63.5z
" />
    <glyph glyph-name="quotesingle" unicode="'" horiz-adv-x="220" 
d="M217 740q5 19 15 26.5t38 7.5t34.5 -10t-5.5 -36l-114 -250h-28z" />
    <glyph glyph-name="parenleft" unicode="(" horiz-adv-x="334" 
d="M127 -239q-45 62 -70.5 144t-25.5 180q0 97 29.5 196.5t87.5 194.5t143 182.5t196 161.5l17 -25q-95 -72 -169.5 -164t-126 -191.5t-78.5 -200.5t-27 -192q0 -84 10 -146.5t41 -121.5z" />
    <glyph glyph-name="parenright" unicode=")" horiz-adv-x="334" 
d="M228 820q45 -62 70.5 -144t25.5 -180q0 -97 -29.5 -196.5t-87.5 -194.5t-143 -182.5t-196 -161.5l-17 25q95 72 169.5 164t126 191.5t78.5 200.5t27 192q0 84 -10 146.5t-41 121.5z" />
    <glyph glyph-name="asterisk" unicode="*" horiz-adv-x="486" 
d="M333 565l-143 -81l-13 18l129 104l-121 111l14 18l137 -91l68 149l21 -7l-43 -159l164 -19l-1 -22l-165 -7l32 -162l-22 -6z" />
    <glyph glyph-name="plus" unicode="+" horiz-adv-x="657" 
d="M308 237h-239v48h239v231h50v-231h239v-48h-239v-237h-50v237z" />
    <glyph glyph-name="comma" unicode="," horiz-adv-x="274" 
d="M-65 -160q67 42 102.5 81t35.5 77q0 37 -53 51q6 34 27.5 49.5t46.5 15.5q26 0 45 -17.5t19 -49.5q0 -22 -12 -49.5t-37.5 -58t-66 -62.5t-96.5 -63z" />
    <glyph glyph-name="hyphen" unicode="-" horiz-adv-x="451" 
d="M91 287h294l-18 -51h-294z" />
    <glyph glyph-name="period" unicode="." horiz-adv-x="261" 
d="M83 -12q-26 0 -44 19t-18 46q0 26 18 44.5t44 18.5q28 0 46.5 -18.5t18.5 -44.5q0 -27 -18.5 -46t-46.5 -19z" />
    <glyph glyph-name="slash" unicode="/" horiz-adv-x="563" 
d="M616 793h68l-664 -845h-67z" />
    <glyph glyph-name="zero" unicode="0" horiz-adv-x="699" 
d="M289 -12q-54 0 -93.5 19.5t-65 53t-37.5 79t-12 96.5q0 58 15 120t42.5 122t65.5 113.5t83.5 94t97 64.5t106.5 24q54 0 93 -19.5t64.5 -53t38 -78.5t12.5 -96q0 -58 -15 -120.5t-42.5 -122.5t-65.5 -113.5t-83.5 -94t-97 -64.5t-106.5 -24zM296 21q46 0 87.5 28t76.5 74
t62.5 104.5t47 120t30 120.5t10.5 106q0 76 -31 121.5t-95 45.5q-46 0 -87 -28t-76 -74t-63 -104.5t-47.5 -120t-30 -120.5t-10.5 -105q0 -76 31 -122t95 -46z" />
    <glyph glyph-name="one" unicode="1" horiz-adv-x="375" 
d="M319 693l-181 -67l12 38l285 105l-265 -769h-90z" />
    <glyph glyph-name="two" unicode="2" horiz-adv-x="604" 
d="M-53 5q162 114 276.5 203t187.5 160t106.5 128t33.5 108q0 55 -31.5 87.5t-94.5 32.5q-34 0 -65.5 -10.5t-58 -33t-46.5 -57t-30 -83.5h-29q7 57 29.5 100.5t57 73t79.5 45t97 15.5q91 0 138 -40t47 -111q0 -48 -21 -94.5t-67.5 -97t-121 -108t-180.5 -127.5l-169 -112
h415l-50 -84h-505z" />
    <glyph glyph-name="three" unicode="3" horiz-adv-x="588" 
d="M205 -12q-42 0 -78 11.5t-62.5 30t-42 42t-15.5 46.5q0 24 15 39t40 15q15 0 23.5 -6.5t14.5 -17t10 -24.5t9 -28t12.5 -27t20 -23.5t31.5 -16.5t48 -6q43 0 81.5 15.5t66.5 44t44.5 69t16.5 90.5q0 38 -12 69t-31 52.5t-44 33.5t-50 12q-14 0 -27.5 -2t-24.5 -4l-3 30
l43 9q49 9 91 25t72.5 38.5t47.5 50.5t17 63q0 48 -33 76.5t-92 28.5q-27 0 -55 -7.5t-52.5 -24.5t-44 -45t-29.5 -69h-29q19 101 85 148.5t158 47.5q87 0 134 -37.5t47 -94.5q0 -32 -15.5 -60t-42.5 -51t-64 -40t-80 -26v-2q56 -23 89 -70t33 -113q0 -55 -25.5 -107.5
t-69 -93.5t-102.5 -66t-126 -25z" />
    <glyph glyph-name="four" unicode="4" horiz-adv-x="693" 
d="M410 204h-400l13 40l590 516h79l-171 -496h145l-20 -60h-146l-70 -204h-90zM431 264l138 401l-457 -401h319z" />
    <glyph glyph-name="five" unicode="5" horiz-adv-x="576" 
d="M198 -12q-42 0 -78 11.5t-62.5 30t-42 42t-15.5 46.5q0 24 15 39t40 15q14 0 23 -6t15.5 -16.5t11 -23.5t10.5 -26q6 -14 14 -27.5t21 -24t33 -17t49 -6.5q39 0 75 11.5t64 34t45 55.5t17 77q0 78 -68 142.5t-202 112.5l169 300h337l-47 -84h-297l-84 -143
q136 -50 199.5 -121.5t63.5 -156.5q0 -61 -25.5 -110t-68.5 -83.5t-98 -53t-114 -18.5z" />
    <glyph glyph-name="six" unicode="6" horiz-adv-x="653" 
d="M284 -12q-52 0 -93 18.5t-69.5 51.5t-43.5 78t-15 98q0 78 46 164t134 163.5t214.5 139t288.5 90.5l5 -31q-100 -20 -185.5 -58t-154 -88.5t-120 -108.5t-83.5 -118q39 35 86.5 53t94.5 18q42 0 77.5 -12.5t62 -36.5t41.5 -59t15 -79q0 -62 -27 -114t-69.5 -89.5
t-96.5 -58.5t-108 -21zM156 207q0 -91 34.5 -138.5t99.5 -47.5q44 0 80.5 19t62.5 51t40.5 73.5t14.5 86.5q0 40 -12.5 70t-33.5 50t-49.5 30t-59.5 10q-34 0 -68 -9.5t-66 -30.5q-43 -88 -43 -164z" />
    <glyph glyph-name="seven" unicode="7" horiz-adv-x="607" 
d="M752 758l-722 -758h-65l648 674h-438l54 84h523z" />
    <glyph glyph-name="eight" unicode="8" horiz-adv-x="622" 
d="M267 -12q-50 0 -91.5 14.5t-71.5 40t-47 60.5t-17 77q0 41 18.5 77t52.5 65.5t82 50.5t107 32q-37 40 -58.5 83t-21.5 94q0 40 17 75t47.5 61t73 41t93.5 15q45 0 81.5 -11.5t62.5 -32t40 -49.5t14 -63q0 -38 -19.5 -69t-51.5 -56t-72 -43t-82 -28l10 -10q45 -45 76 -93
t31 -108q0 -45 -21 -85t-57.5 -71t-87 -49t-108.5 -18zM108 186q0 -40 13 -70.5t36 -51.5t54 -31.5t67 -10.5q41 0 75 11t58 30.5t37.5 45.5t13.5 57q0 45 -29 89.5t-70 85.5l-51 51q-49 -11 -87 -31t-64 -47.5t-39.5 -60t-13.5 -67.5zM410 436q38 10 70.5 27t56 40
t36.5 50.5t13 58.5q0 58 -37 93t-106 35q-67 0 -107.5 -32.5t-40.5 -83.5q0 -47 25 -85t67 -80z" />
    <glyph glyph-name="nine" unicode="9" horiz-adv-x="639" 
d="M24 3q105 20 187.5 60t144 91.5t104 111t66.5 119.5q-38 -37 -90.5 -58.5t-107.5 -21.5q-42 0 -78 13t-62.5 38t-41.5 60t-15 80q0 63 26 114.5t67.5 87.5t94 56t106.5 20q51 0 93 -17t72 -48.5t46.5 -76.5t16.5 -100q0 -50 -16 -105.5t-49.5 -111t-84.5 -108.5
t-120.5 -98.5t-157.5 -81t-196 -55.5zM228 516q0 -40 12.5 -70.5t34 -51.5t49.5 -32t59 -11q35 0 73.5 10.5t73.5 34.5q15 42 22.5 81.5t7.5 74.5q0 90 -39 139.5t-102 49.5q-43 0 -78 -18.5t-60 -49t-39 -71.5t-14 -86z" />
    <glyph glyph-name="colon" unicode=":" horiz-adv-x="306" 
d="M83 -12q-26 0 -44 19t-18 46q0 26 18 44.5t44 18.5q28 0 46.5 -18.5t18.5 -44.5q0 -27 -18.5 -46t-46.5 -19zM223 390q-26 0 -44 19t-18 46q0 26 18 44.5t44 18.5q28 0 46.5 -18.5t18.5 -44.5q0 -27 -18.5 -46t-46.5 -19z" />
    <glyph glyph-name="semicolon" unicode=";" horiz-adv-x="318" 
d="M-64 -160q67 42 102.5 81t35.5 77q0 37 -53 51q6 34 27.5 49.5t46.5 15.5q26 0 45 -17.5t19 -49.5q0 -22 -12 -49.5t-37.5 -58t-66 -62.5t-96.5 -63zM230 390q-26 0 -44 19t-18 46q0 26 18 44.5t44 18.5q28 0 46.5 -18.5t18.5 -44.5q0 -27 -18.5 -46t-46.5 -19z" />
    <glyph glyph-name="less" unicode="&#x3c;" horiz-adv-x="657" 
d="M47 283l513 227v-52l-447 -197l447 -197v-52l-513 227v44z" />
    <glyph glyph-name="equal" unicode="=" horiz-adv-x="657" 
d="M79 399h502v-48h-502v48zM79 164h502v-47h-502v47z" />
    <glyph glyph-name="greater" unicode="&#x3e;" horiz-adv-x="657" 
d="M613 239l-513 -227v52l447 197l-447 197v52l513 -227v-44z" />
    <glyph glyph-name="question" unicode="?" horiz-adv-x="613" 
d="M262 371q7 23 13.5 38t17 24.5t27 15t42.5 9.5l80 13q42 7 72 16t49 23t27.5 33t8.5 45q0 31 -15.5 58t-42 46.5t-62.5 30.5t-77 11q-27 0 -47 -5.5t-33.5 -13t-22 -16t-14.5 -15.5q-13 -16 -24 -30.5t-36 -14.5q-23 0 -38.5 13.5t-15.5 35.5q0 17 16.5 32.5t44.5 27.5
t65.5 19t79.5 7q63 0 114 -16t87 -45t55 -69t19 -89q0 -66 -40 -106t-133 -55l-122 -20q-19 -3 -31.5 -6.5t-21 -10t-14.5 -17.5t-13 -29l-35 -95h-26zM183 -12q-26 0 -44 19t-18 46q0 26 18 44.5t44 18.5q28 0 46.5 -18.5t18.5 -44.5q0 -27 -18.5 -46t-46.5 -19z" />
    <glyph glyph-name="at" unicode="@" horiz-adv-x="938" 
d="M454 -12q-71 0 -135.5 21.5t-114 62.5t-79 100.5t-29.5 134.5q0 61 19 119.5t53.5 110.5t81.5 95.5t103.5 75t119.5 49t130 17.5q63 0 125 -17.5t110.5 -53.5t78.5 -90t30 -126q0 -76 -26.5 -134.5t-72.5 -98t-106.5 -60t-127.5 -20.5q-27 0 -42 6t-15 22q0 9 5 24t13 35
l25 62h-4q-47 -69 -103 -108.5t-117 -39.5q-43 0 -72 25t-29 76q0 40 17 80.5t45.5 79t66 72t78 59t81.5 40t78 14.5q35 0 67.5 -11.5t58.5 -25.5l-125 -318q-8 -20 -11 -30t-3 -15t3.5 -8.5t19.5 -3.5q46 0 92 17t83 51.5t60 86t23 120.5q0 62 -25 109.5t-67.5 80
t-98.5 49.5t-118 17q-90 0 -171.5 -33.5t-142.5 -91t-97 -134.5t-36 -163q0 -64 22 -118t62.5 -93t98.5 -61t130 -22q73 0 130.5 15.5t89.5 31.5l12 -28q-36 -19 -99.5 -37t-144.5 -18zM413 221q22 0 52 12.5t61.5 39t61 67t51.5 96.5l52 135q-18 20 -57 20q-45 0 -95 -27.5
t-91 -70.5t-68 -97t-27 -106q0 -69 60 -69z" />
    <glyph glyph-name="A" unicode="A" horiz-adv-x="758" 
d="M531 764h82l33 -764h-97l-11 289h-322l-231 -289h-60zM536 336l-13 338l-270 -338h283z" />
    <glyph glyph-name="B" unicode="B" horiz-adv-x="745" 
d="M36 0l232 758h233q56 0 101.5 -7.5t78 -24t50.5 -43t18 -63.5q0 -34 -15.5 -69.5t-49 -66t-85.5 -52.5t-125 -29v-2q97 -2 155 -38t58 -107q0 -48 -23.5 -94t-72 -82t-122.5 -58t-175 -22h-258zM412 421q64 0 108.5 18t72.5 46t40.5 60t12.5 61q0 57 -44 82.5t-122 25.5
h-129l-89 -293h150zM286 44q79 0 135 19t91 49.5t51 69t16 78.5q0 60 -47.5 90t-135.5 30h-147l-103 -336h140z" />
    <glyph glyph-name="C" unicode="C" horiz-adv-x="825" 
d="M420 -12q-67 0 -127.5 19.5t-106 58t-72 96t-26.5 134.5q0 100 44.5 187.5t118.5 152t168.5 101.5t195.5 37q75 0 138 -18t102 -47l-26 -183h-30l-14 125q-2 21 -17.5 36.5t-38.5 25t-52 14.5t-59 5q-80 0 -155.5 -32t-134 -91.5t-94.5 -144t-36 -188.5
q0 -67 19.5 -113.5t53 -76t78 -43t94.5 -13.5q57 0 102 10t74 46l122 151h30l-101 -200q-47 -24 -113 -36.5t-137 -12.5z" />
    <glyph glyph-name="D" unicode="D" horiz-adv-x="849" 
d="M36 0l232 758h196q85 0 155.5 -16.5t121.5 -50t79 -84t28 -117.5q0 -95 -43.5 -183.5t-122 -156.5t-189 -109t-244.5 -41h-213zM257 44q108 0 197 36.5t152 98.5t98 143.5t35 170.5q0 60 -20 102t-56.5 68.5t-87 38.5t-111.5 12h-113l-204 -670h110z" />
    <glyph glyph-name="E" unicode="E" horiz-adv-x="668" 
d="M268 758h500l-15 -47h-403l-89 -292h345l-14 -47h-345l-99 -325h402l-14 -47h-500z" />
    <glyph glyph-name="F" unicode="F" horiz-adv-x="656" 
d="M268 758h508l-15 -47h-411l-89 -292h365l-15 -47h-364l-114 -372h-97z" />
    <glyph glyph-name="G" unicode="G" horiz-adv-x="846" 
d="M198 276q0 -64 17.5 -110t48.5 -76t74.5 -44t94.5 -14q47 0 95 9t90 26l97 259h-211l15 47h310l-121 -329q-62 -23 -133 -39.5t-150 -16.5q-68 0 -129 19.5t-107.5 58t-73.5 96t-27 134.5q0 100 44.5 187.5t118.5 152t168.5 101.5t195.5 37q75 0 138 -18t102 -47
l-26 -183h-30l-14 125q-2 21 -17.5 36.5t-38.5 25t-52 14.5t-59 5q-80 0 -155.5 -32t-134 -91.5t-94.5 -144t-36 -188.5z" />
    <glyph glyph-name="H" unicode="H" horiz-adv-x="863" 
d="M268 758h97l-104 -339h444l104 339h97l-232 -758h-97l114 372h-444l-114 -372h-97z" />
    <glyph glyph-name="I" unicode="I" horiz-adv-x="322" 
d="M268 758h97l-232 -758h-97z" />
    <glyph glyph-name="J" unicode="J" horiz-adv-x="327" 
d="M-139 -116q49 33 85 57.5t62 50.5t44.5 59t33.5 83l191 624h97l-188 -615q-12 -41 -27.5 -70t-37 -52t-50 -44t-66.5 -45q-24 -15 -59 -34t-72 -39z" />
    <glyph glyph-name="K" unicode="K" horiz-adv-x="760" 
d="M268 758h97l-113 -370l10 6l555 364h79l-543 -356l341 -402h-117l-327 381l-117 -381h-97z" />
    <glyph glyph-name="L" unicode="L" horiz-adv-x="621" 
d="M268 758h97l-217 -711h397l-15 -47h-494z" />
    <glyph glyph-name="M" unicode="M" horiz-adv-x="1009" 
d="M88 0h-52l232 758h90l150 -490l447 490h97l-232 -758h-97l198 646l-445 -485h-40l-150 485z" />
    <glyph glyph-name="N" unicode="N" horiz-adv-x="855" 
d="M653 128l193 630h52l-232 -758h-51l-334 633l-193 -633h-52l232 758h52z" />
    <glyph glyph-name="O" unicode="O" horiz-adv-x="891" 
d="M377 -12q-61 0 -115 18t-94 53t-63.5 87t-23.5 120q0 56 17 115.5t49 116t77.5 107t102.5 88t125 59.5t144 22q61 0 115 -18t94.5 -53t63.5 -86.5t23 -119.5q0 -56 -17 -115.5t-48.5 -116.5t-77 -107t-103 -88t-125.5 -60t-144 -22zM394 28q79 0 150 39.5t123.5 104.5
t83.5 148.5t31 172.5q0 54 -13.5 98t-39 76t-63.5 49.5t-87 17.5q-80 0 -150 -39t-123 -104t-83.5 -149t-30.5 -173q0 -53 13 -97.5t38.5 -76.5t63.5 -49.5t87 -17.5z" />
    <glyph glyph-name="P" unicode="P" horiz-adv-x="723" 
d="M268 758h249q58 0 108 -7.5t86.5 -25.5t57 -47.5t20.5 -72.5q0 -56 -25.5 -104t-75 -82.5t-122.5 -54t-168 -19.5h-159l-106 -345h-97zM253 390h152q69 0 121 18t86.5 47t51.5 66t17 75q0 34 -13 56.5t-36 36t-55.5 19.5t-72.5 6h-152z" />
    <glyph glyph-name="Q" unicode="Q" horiz-adv-x="891" 
d="M377 -12q-61 0 -115 18t-94 53t-63.5 87t-23.5 120q0 56 17 115.5t49 116t77.5 107t102.5 88t125 59.5t144 22q61 0 115 -18t94.5 -53t63.5 -86.5t23 -119.5q0 -62 -20.5 -127t-58 -126t-91.5 -113.5t-121 -87.5l111 -153l-41 -29l-116 161q-83 -34 -178 -34zM394 28
q70 0 135 31l-96 135l40 29l99 -139q46 31 85 75.5t66.5 97.5t43 113.5t15.5 122.5q0 54 -13.5 98t-39 76t-63.5 49.5t-87 17.5q-80 0 -150 -39t-123 -104t-83.5 -149t-30.5 -173q0 -53 13 -97.5t38.5 -76.5t63.5 -49.5t87 -17.5z" />
    <glyph glyph-name="R" unicode="R" horiz-adv-x="743" 
d="M268 758h205q59 0 108 -8.5t83.5 -27t53.5 -47t19 -68.5t-16 -78.5t-51.5 -70t-92.5 -53t-139 -28.5l256 -377h-117l-244 364h-88l-112 -364h-97zM364 408q71 0 121.5 16t82.5 43t46.5 62t14.5 74q0 60 -46.5 85.5t-130.5 25.5h-100l-93 -306h105z" />
    <glyph glyph-name="S" unicode="S" horiz-adv-x="624" 
d="M215 -12q-57 0 -114 14t-102 42l59 203h26l-2 -141q0 -19 3 -30t16 -19q21 -14 54.5 -21t68.5 -7q49 0 89 10.5t68.5 30t43.5 47t15 60.5q0 42 -26 85t-71 90l-41 43q-37 39 -63 83t-26 95q0 45 22.5 82t62.5 63.5t93 41t115 14.5q54 0 100 -12.5t79 -36.5l-39 -186h-28
l-8 125q-1 31 -16 43q-17 13 -44.5 19.5t-59.5 6.5q-41 0 -75 -9t-59 -25.5t-38.5 -40t-13.5 -52.5q0 -35 21.5 -70.5t55.5 -72.5l42 -45q55 -59 80.5 -105.5t25.5 -94.5q0 -51 -22.5 -93.5t-64 -72.5t-99.5 -47t-128 -17z" />
    <glyph glyph-name="T" unicode="T" horiz-adv-x="704" 
d="M442 711h-290l15 47h677l-15 -47h-290l-217 -711h-97z" />
    <glyph glyph-name="U" unicode="U" horiz-adv-x="833" 
d="M345 -12q-75 0 -129 18t-84 55.5t-34.5 95.5t19.5 137l142 464h97l-143 -465q-41 -133 -1.5 -194.5t162.5 -61.5q66 0 117.5 18.5t90.5 53t67 84t47 111.5l139 454h52l-142 -463q-47 -155 -143.5 -231t-256.5 -76z" />
    <glyph glyph-name="V" unicode="V" horiz-adv-x="749" 
d="M189 758h99l33 -638l524 638h61l-620 -764h-50z" />
    <glyph glyph-name="W" unicode="W" horiz-adv-x="1129" 
d="M205 758h95l-25 -622l458 622h48l-15 -622l438 622h62l-538 -764h-53l11 612l-456 -612h-54z" />
    <glyph glyph-name="X" unicode="X" horiz-adv-x="761" 
d="M389 393l-146 365h109l119 -297l363 297h78l-422 -345l165 -413h-109l-138 345l-422 -345h-78z" />
    <glyph glyph-name="Y" unicode="Y" horiz-adv-x="772" 
d="M322 0h-98l129 342l-161 416h104l140 -366l417 366h68l-471 -416z" />
    <glyph glyph-name="Z" unicode="Z" horiz-adv-x="698" 
d="M-54 44l756 667h-447l15 47h565l-15 -45l-756 -666h503l-16 -47h-620z" />
    <glyph glyph-name="bracketleft" unicode="[" horiz-adv-x="311" 
d="M298 812h162l-10 -29l-43 -2q-35 -2 -51 -13t-27 -42l-298 -866q-11 -32 -2.5 -42.5t42.5 -12.5l42 -2l-10 -29h-162z" />
    <glyph glyph-name="backslash" unicode="\" horiz-adv-x="740" 
d="M568 -52l-382 845h63l381 -845h-62z" />
    <glyph glyph-name="bracketright" unicode="]" horiz-adv-x="311" 
d="M35 -227h-162l10 29l43 2q35 2 51 13t27 42l298 866q11 32 2.5 42.5t-42.5 12.5l-42 2l10 29h162z" />
    <glyph glyph-name="asciicircum" unicode="^" horiz-adv-x="657" 
d="M485 776h47l67 -415h-48l-57 362l-307 -362h-55z" />
    <glyph glyph-name="underscore" unicode="_" horiz-adv-x="579" 
d="M-74 -54h545l-15 -45h-546z" />
    <glyph glyph-name="grave" unicode="`" 
d="M45 596l-124 172l3 7h91l54 -179h-24z" />
    <glyph glyph-name="a" unicode="a" horiz-adv-x="575" 
d="M302 0l65 167h-2q-25 -35 -53 -67.5t-59 -57.5t-65.5 -39.5t-71.5 -14.5q-48 0 -74 29.5t-26 81.5q0 45 17 93t45.5 94.5t66 88t79.5 73t85.5 50t83.5 18.5q38 0 56.5 -20.5t21.5 -50.5h1l25 67h90l-196 -512h-89zM168 37q28 0 63.5 24t71 64t67.5 90.5t53 103.5
q18 46 22.5 78t-1 51.5t-20 28.5t-33.5 9q-31 0 -63.5 -17.5t-63.5 -47t-58 -68t-47.5 -80.5t-32.5 -85t-12 -80q0 -34 13 -52.5t41 -18.5z" />
    <glyph glyph-name="b" unicode="b" horiz-adv-x="574" 
d="M152 -12q-33 0 -60.5 7t-43 25.5t-17 51t17.5 84.5l226 624h92l-133 -363l-40 -95h2q66 91 129.5 142.5t132.5 51.5q55 0 80 -30t25 -78q0 -46 -18 -95t-48.5 -95.5t-71.5 -88.5t-86.5 -73t-93.5 -49.5t-93 -18.5zM168 16q32 0 66 17.5t67 47.5t62 69t51 81.5t35 86
t13 82.5q0 63 -55 63q-29 0 -66 -24t-73.5 -63t-69 -89.5t-51.5 -103.5q-18 -48 -26 -80.5t-5.5 -51.5t15.5 -27t37 -8z" />
    <glyph glyph-name="c" unicode="c" horiz-adv-x="494" 
d="M182 -12q-70 0 -110 38.5t-40 110.5q0 69 30 136.5t78 121.5t109 87.5t123 33.5q51 0 86 -23t35 -68q0 -29 -26.5 -48t-68.5 -13q8 35 8.5 58.5t-5.5 37.5t-17.5 20t-28.5 6q-37 0 -76.5 -27.5t-72.5 -73.5t-54 -105.5t-21 -123.5q0 -63 24 -90.5t65 -27.5q51 0 98.5 40
t87.5 103l23 -17q-25 -40 -51 -72.5t-56 -55.5t-64 -35.5t-76 -12.5z" />
    <glyph glyph-name="d" unicode="d" horiz-adv-x="579" 
d="M317 0l64 175h-2q-60 -85 -123.5 -136t-135.5 -51q-48 0 -75.5 29t-27.5 83q0 45 16.5 94t44 95t64 87.5t77.5 72.5t83.5 49t82.5 18q38 0 57.5 -19t25.5 -48h1l112 318h90l-268 -767h-86zM170 40q30 0 65.5 21.5t70 58.5t66 86.5t53.5 106.5q18 45 21.5 78t-3.5 54
t-22 31t-34 10q-32 0 -64.5 -17t-62.5 -46t-56.5 -66.5t-46 -79.5t-31 -84.5t-11.5 -80.5t14.5 -55t40.5 -17z" />
    <glyph glyph-name="e" unicode="e" horiz-adv-x="509" 
d="M179 -12q-69 0 -108.5 38.5t-39.5 110.5t32.5 140t84 121t114.5 85.5t124 32.5q62 0 91.5 -26t29.5 -65q0 -31 -19.5 -64.5t-58.5 -52.5l-266 -2q-16 -34 -24.5 -72t-8.5 -78q0 -63 25 -90.5t63 -27.5q51 0 101 40t90 104l22 -16q-25 -41 -51.5 -74t-57 -56t-66 -35.5
t-77.5 -12.5zM381 488q-27 0 -55.5 -11.5t-55.5 -31.5t-51 -48.5t-43 -62.5h121q32 0 59 8.5t46.5 23t30.5 32.5t11 38q0 24 -14.5 38t-48.5 14z" />
    <glyph glyph-name="f" unicode="f" horiz-adv-x="395" 
d="M194 453h-108l19 49h108q59 137 146.5 207.5t195.5 70.5h9l-33 -86h-76q-36 0 -66.5 -10.5t-52 -33.5t-32 -59.5t-5.5 -88.5h169l-19 -49h-165l-166 -453h-90z" />
    <glyph glyph-name="g" unicode="g" horiz-adv-x="524" 
d="M235 162q-44 0 -77 14q-26 -4 -40 -15t-14 -28q0 -15 12 -29t33 -26l126 -72q65 -37 95.5 -66.5t30.5 -63.5t-24 -59.5t-62 -42.5t-84 -25.5t-90 -8.5q-56 0 -103 9.5t-81 26.5t-53 41t-19 53q0 27 16.5 49.5t46 39.5t70 28t87.5 16l-4 2q-30 17 -45.5 39t-15.5 45
q0 31 26.5 57.5t74.5 38.5q-29 17 -44.5 44t-15.5 61q0 45 21 85.5t56.5 72t82 50t96.5 18.5q36 0 65 -10t49 -27l33 54h137l-37 -61h-126q32 -34 32 -84q0 -45 -21 -85.5t-56.5 -72t-81.5 -50t-96 -18.5zM253 191q30 0 57.5 14t48 39t33 60t12.5 76q0 48 -21.5 77.5
t-64.5 29.5q-30 0 -57 -14t-48 -39t-33 -60t-12 -76q0 -48 21 -77.5t64 -29.5zM-32 -118q0 -51 45.5 -82t130.5 -31q36 0 68 5t56 14t38 23t14 32q0 19 -18 39t-71 50l-111 63q-30 -5 -57.5 -14.5t-48.5 -23.5t-33.5 -32.5t-12.5 -42.5z" />
    <glyph glyph-name="h" unicode="h" horiz-adv-x="608" 
d="M268 767h90l-175 -506l-31 -90h1q33 59 67 111.5t65 94.5q54 72 100.5 105.5t98.5 33.5q64 0 84 -52.5t-17 -150.5l-119 -313h-92l119 311q32 85 27 122.5t-38 37.5t-71.5 -34t-80.5 -90q-26 -34 -55.5 -78t-57 -90.5t-51.5 -93t-38 -85.5h-91z" />
    <glyph glyph-name="i" unicode="i" horiz-adv-x="271" 
d="M187 502h90l-192 -502h-90zM237 717q0 24 18.5 42.5t42.5 18.5q25 0 43.5 -18.5t18.5 -42.5q0 -25 -18.5 -43.5t-43.5 -18.5q-24 0 -42.5 18.5t-18.5 43.5z" />
    <glyph glyph-name="j" unicode="j" horiz-adv-x="276" 
d="M-229 -239q48 31 82.5 54t61.5 51t49 66t46 98l185 472h90l-184 -468q-18 -47 -34 -79t-35 -55t-42.5 -41.5t-57.5 -37.5q-9 -5 -28 -15.5t-41 -22.5l-44 -24t-38 -19zM247 717q0 24 18.5 42.5t42.5 18.5q25 0 43.5 -18.5t18.5 -42.5q0 -25 -18.5 -43.5t-43.5 -18.5
q-24 0 -42.5 18.5t-18.5 43.5z" />
    <glyph glyph-name="k" unicode="k" horiz-adv-x="563" 
d="M271 780h90l-173 -503l356 225h71l-340 -215l217 -287h-102l-206 265l-91 -265h-90z" />
    <glyph glyph-name="l" unicode="l" horiz-adv-x="271" 
d="M273 780h90l-268 -780h-90z" />
    <glyph glyph-name="m" unicode="m" horiz-adv-x="937" 
d="M186 502h89l-130 -331h1q33 60 66 112t64 94q54 72 100.5 105.5t98.5 33.5q64 0 83 -52.5t-19 -150.5l-56 -142h1q32 60 65.5 112t64.5 94q54 72 100 105.5t99 33.5q64 0 84.5 -52.5t-17.5 -150.5l-120 -313h-91l119 311q32 85 27 122.5t-39 37.5q-32 0 -70.5 -34
t-80.5 -90q-26 -34 -55 -77.5t-57 -90t-51.5 -93t-38.5 -86.5h-92l119 311q32 85 27 122.5t-38 37.5t-71.5 -34t-80.5 -90q-26 -34 -55 -77.5t-56.5 -90t-51.5 -93t-39 -86.5h-92z" />
    <glyph glyph-name="n" unicode="n" horiz-adv-x="599" 
d="M331 0l119 311q32 85 27 122.5t-38 37.5t-71.5 -34t-80.5 -90q-26 -34 -55 -77.5t-56.5 -90t-51.5 -93t-39 -86.5h-92l193 502h89l-130 -331h1q33 60 66 112t64 94q54 72 100.5 105.5t98.5 33.5q64 0 84 -52.5t-17 -150.5l-119 -313h-92z" />
    <glyph glyph-name="o" unicode="o" horiz-adv-x="574" 
d="M196 -12q-76 0 -119 44t-43 113q0 67 29 133.5t77 119.5t110.5 85.5t130.5 32.5q75 0 118 -44t43 -113q0 -68 -29 -134t-77 -119t-110.5 -85.5t-129.5 -32.5zM232 25q36 0 73 23t67 66t49.5 103.5t19.5 134.5q0 66 -27.5 97t-68.5 31q-36 0 -73 -23.5t-67.5 -66t-50 -103
t-19.5 -134.5q0 -66 27.5 -97t69.5 -31z" />
    <glyph glyph-name="p" unicode="p" horiz-adv-x="575" 
d="M176 502h91l-26 -75q35 40 84 64.5t96 24.5q66 0 100.5 -33.5t34.5 -94.5q0 -47 -17 -95t-48 -93t-74 -84.5t-94.5 -68t-110.5 -44.5t-122 -14l-81 -237h-91zM357 464q-30 0 -62.5 -13t-58.5 -39l-138 -402q48 -1 93 14.5t84.5 43t72.5 63.5t57 75.5t37 80t13 76.5
q0 54 -26 77.5t-72 23.5z" />
    <glyph glyph-name="q" unicode="q" horiz-adv-x="579" 
d="M333 57q3 10 9.5 26.5t13 33.5t13.5 32.5t12 25.5h-2q-60 -85 -123.5 -136t-135.5 -51q-48 0 -75.5 29t-27.5 83q0 45 16.5 94t44 95t64 87.5t77.5 72.5t83.5 49t82.5 18q38 0 58 -19t25 -48h1l23 63h90l-265 -760h-90zM170 40q30 0 65.5 21.5t70 58.5t66 86.5
t53.5 106.5q18 45 21.5 78t-3.5 54t-22 31t-34 10q-32 0 -64.5 -17t-62.5 -46t-56.5 -66.5t-46 -79.5t-31 -84.5t-11.5 -80.5t14.5 -55t40.5 -17z" />
    <glyph glyph-name="r" unicode="r" horiz-adv-x="442" 
d="M185 502h90l-120 -309h1q45 79 78 130.5t62 89.5q38 50 68 76.5t70 26.5q24 0 41 -14t17 -40q0 -23 -15.5 -38.5t-41.5 -19.5q-14 15 -30 28t-27 13q-17 0 -40 -23t-62 -77q-18 -24 -38.5 -56t-42 -68t-43.5 -74.5t-42 -76.5l-26 -70h-91z" />
    <glyph glyph-name="s" unicode="s" horiz-adv-x="440" 
d="M134 -12q-36 0 -62.5 8.5t-44 21t-26.5 28t-9 30.5q0 28 20.5 42t51.5 12q10 -36 18 -57.5t16.5 -33.5t19 -16t24.5 -4q18 0 39.5 4t39.5 14t30 25.5t12 39.5q0 27 -16 53.5t-42 58.5l-28 34q-26 32 -42.5 60.5t-16.5 61.5t17.5 60t46 46t64.5 29.5t72 10.5
q63 0 95.5 -24.5t32.5 -52.5t-19 -42t-49 -10q-9 30 -17 49t-16.5 30t-19.5 15t-27 4q-17 0 -35.5 -4t-33.5 -12.5t-24.5 -22.5t-9.5 -33q0 -26 12 -48t40 -55l30 -36q27 -32 44.5 -60t17.5 -68q0 -37 -17.5 -66t-46 -49.5t-65.5 -31.5t-76 -11z" />
    <glyph glyph-name="t" unicode="t" horiz-adv-x="393" 
d="M105 -12q-48 0 -58 26t9 72l148 367h-120l19 49h121l45 113h90l-45 -113h144l-19 -49h-145l-143 -355q-15 -38 -13.5 -51.5t16.5 -13.5q12 0 30 6t38 21t41.5 39.5t41.5 62.5l26 -11q-42 -79 -100.5 -121t-125.5 -42z" />
    <glyph glyph-name="u" unicode="u" horiz-adv-x="597" 
d="M273 502l-123 -311q-17 -44 -24 -74t-4.5 -48.5t12.5 -27t27 -8.5q32 0 71 33t81 89q25 34 54 77.5t56.5 90t51.5 93t40 86.5h91l-193 -502h-89l131 331h-1q-32 -60 -66 -112t-65 -94q-53 -71 -100 -104t-99 -33q-70 0 -88 50.5t21 150.5l124 313h92z" />
    <glyph glyph-name="v" unicode="v" horiz-adv-x="544" 
d="M172 -4h-34l-24 506h90l16 -389l360 389h58z" />
    <glyph glyph-name="w" unicode="w" horiz-adv-x="888" 
d="M204 116l327 386h54l-5 -387l327 387h57l-429 -506h-37l5 412l-351 -412h-38l16 506h90z" />
    <glyph glyph-name="x" unicode="x" horiz-adv-x="571" 
d="M-90 0l339 251l-81 251h95l63 -194l262 194h68l-317 -235l86 -267h-95l-68 211l-285 -211h-67z" />
    <glyph glyph-name="y" unicode="y" horiz-adv-x="552" 
d="M135 18l-19 484h90l14 -393l368 393h60l-703 -750h-59z" />
    <glyph glyph-name="z" unicode="z" horiz-adv-x="522" 
d="M-48 35l486 418h-297l20 49h418l-15 -35l-485 -418h320l-18 -49h-443z" />
    <glyph glyph-name="braceleft" unicode="{" horiz-adv-x="358" 
d="M168 -236q-42 6 -76.5 24t-53.5 49t-18.5 74.5t28.5 100.5l57 116q21 43 24.5 73t-6 50.5t-31 32t-50.5 16.5l9 26q33 5 61.5 16t51.5 30.5t38 49t21 72.5l12 90q16 116 81 173.5t186 56.5l1 -30q-46 -1 -77.5 -10t-52.5 -29t-33 -53.5t-18 -82.5l-9 -76
q-6 -54 -26.5 -93t-48.5 -66t-60.5 -42t-63.5 -20v-3q26 -5 49 -20t34.5 -41.5t8 -66t-30.5 -92.5l-52 -103q-84 -166 57 -194z" />
    <glyph glyph-name="bar" unicode="|" horiz-adv-x="344" 
d="M158 812h57v-1038h-57v1038z" />
    <glyph glyph-name="braceright" unicode="}" horiz-adv-x="357" 
d="M210 814q42 -6 76.5 -24t53.5 -49t18.5 -74.5t-28.5 -100.5l-57 -116q-21 -43 -24.5 -73t6 -50.5t31 -32t50.5 -16.5l-9 -26q-33 -5 -61.5 -16t-51.5 -30.5t-38 -49t-21 -72.5l-12 -90q-16 -116 -81 -173.5t-186 -56.5l-1 30q46 1 77.5 10t52.5 29t33 53.5t18 82.5l9 76
q6 54 26.5 93t48.5 66t60.5 42t63.5 20v3q-26 5 -49 20t-34.5 41.5t-8 66t30.5 92.5l52 103q84 166 -57 194z" />
    <glyph glyph-name="asciitilde" unicode="~" horiz-adv-x="657" 
d="M214 330q41 0 72 -14.5t58 -32t52.5 -32t55.5 -14.5q14 0 29 3.5t28 13.5t22.5 27.5t12.5 44.5h48q-7 -67 -48 -99.5t-93 -32.5q-37 0 -66 14.5t-56 31.5t-54.5 31.5t-60.5 14.5q-14 0 -29 -3.5t-28 -13t-22.5 -27t-12.5 -44.5h-48q7 67 47.5 99.5t92.5 32.5z" />
    <glyph glyph-name="uni00A0" unicode="&#xa0;" horiz-adv-x="238" 
 />
    <glyph glyph-name="exclamdown" unicode="&#xa1;" horiz-adv-x="272" 
d="M206 516q26 0 44 -19t18 -46q0 -26 -18 -44.5t-44 -18.5q-28 0 -46.5 18.5t-18.5 44.5q0 27 18.5 46t46.5 19zM167 288q-21 -71 -35 -125.5t-23.5 -98.5t-17 -81t-15 -73.5t-18 -74.5t-25.5 -84q-3 -11 -22 -16t-39.5 -3.5t-35 9.5t-9.5 23q14 43 28.5 79.5t29.5 71
t31.5 70.5t35 80t40 98t46.5 125h29z" />
    <glyph glyph-name="cent" unicode="&#xa2;" horiz-adv-x="504" 
d="M165 -11q-61 5 -95.5 43t-34.5 105q0 44 13 88.5t35.5 85.5t53.5 77t67 63.5t75.5 44t80.5 19.5l38 105h34l-38 -105q44 -5 73 -27.5t29 -62.5q0 -29 -26.5 -48t-68.5 -13q8 35 8.5 58.5t-5.5 37.5t-17.5 20t-28.5 6q-37 0 -76.5 -27.5t-72.5 -73.5t-54 -105.5
t-21 -123.5q0 -63 24 -90.5t65 -27.5q51 0 98.5 40t87.5 103l23 -17q-48 -77 -102 -124t-131 -51l-38 -109h-34z" />
    <glyph glyph-name="sterling" unicode="&#xa3;" horiz-adv-x="649" 
d="M-31 4l143 101q89 63 136 110.5t47 93.5v8t-1 8h-186l15 43h164q-2 8 -5 14.5t-6 13.5l-28 57q-12 25 -24.5 54.5t-12.5 61.5q0 40 24.5 77.5t65 65.5t92.5 45t106 17q35 0 67.5 -5t57 -15.5t39.5 -26.5t15 -37q0 -20 -13 -35t-36 -15q-17 0 -28.5 8.5t-20.5 20.5
q-6 8 -13 19.5t-19.5 22t-32 18t-51.5 7.5q-35 0 -64.5 -10t-52 -27t-35 -40.5t-12.5 -51.5q0 -31 12 -56.5t23 -48.5l29 -58q8 -16 14.5 -36t8.5 -40h182l-16 -43h-171q-6 -23 -21.5 -46t-41 -47t-61.5 -51.5t-84 -59.5l-65 -44h448l-42 -77h-547z" />
    <glyph glyph-name="yen" unicode="&#xa5;" horiz-adv-x="795" 
d="M145 230h188l28 88h-187l13 43h174l-175 397h108l158 -364l396 364h68l-430 -397h171l-13 -43h-187l-28 -88h186l-13 -44h-187l-60 -186h-97l60 186h-186z" />
    <glyph glyph-name="brokenbar" unicode="&#xa6;" horiz-adv-x="344" 
d="M158 812h57v-410h-57v410zM158 183h57v-409h-57v409z" />
    <glyph glyph-name="section" unicode="&#xa7;" horiz-adv-x="615" 
d="M113 -197q-35 0 -66.5 6t-55.5 19t-38.5 32t-14.5 45q0 22 16 38.5t45 16.5q16 0 26.5 -6.5t17.5 -17t12.5 -23t13.5 -25.5q11 -19 29.5 -36.5t49.5 -17.5q38 0 67 19t48.5 52t29.5 76t10 91q0 38 -8.5 69t-25.5 60l-50 87q-23 39 -38 77.5t-15 83.5t16 86.5t43.5 78.5
t64.5 67t79 52t87.5 34t90.5 12q69 0 112.5 -25.5t43.5 -64.5q0 -26 -16.5 -40t-41.5 -14q-14 0 -24.5 5.5t-18.5 14.5t-14.5 21t-13.5 26q-9 17 -24 31t-41 14q-38 0 -68.5 -17.5t-52 -45t-33 -62.5t-11.5 -70t7.5 -64.5t25.5 -59.5l49 -87q29 -50 46.5 -94t17.5 -89
q0 -62 -29 -125t-79.5 -114t-119.5 -83.5t-149 -32.5zM294 -107q31 22 56.5 50t44 58.5t28.5 63t10 63.5q0 49 -18 92.5t-41 84.5l-52 91q-16 28 -25.5 61.5t-9.5 69.5q0 44 12.5 80.5t41.5 75.5q-63 -46 -92 -100.5t-29 -103.5q0 -36 10 -68t26 -60l52 -91
q24 -42 39.5 -83.5t15.5 -85.5q0 -48 -18.5 -102t-50.5 -96z" />
    <glyph glyph-name="dieresis" unicode="&#xa8;" 
d="M115 645q-24 0 -42.5 18.5t-18.5 43.5q0 24 18.5 42.5t42.5 18.5q25 0 43.5 -18.5t18.5 -42.5q0 -25 -18.5 -43.5t-43.5 -18.5zM-116 645q-24 0 -42.5 18.5t-18.5 43.5q0 24 18.5 42.5t42.5 18.5q25 0 43.5 -18.5t18.5 -42.5q0 -25 -18.5 -43.5t-43.5 -18.5z" />
    <glyph glyph-name="copyright" unicode="&#xa9;" horiz-adv-x="931" 
d="M506 -12q-84 0 -155.5 29.5t-124 82t-82 124.5t-29.5 157t29.5 157t82 124.5t124 82t155.5 29.5t156 -29.5t124.5 -82t82 -124.5t29.5 -157t-29.5 -157t-82 -124.5t-124.5 -82t-156 -29.5zM506 23q71 0 134.5 25t111.5 71.5t76 112.5t28 149t-28 149.5t-76 113
t-111.5 71.5t-134.5 25t-134.5 -25t-111 -71.5t-75.5 -113t-28 -149.5t28 -149t75.5 -112.5t111 -71.5t134.5 -25zM522 163q-53 0 -98.5 15.5t-78.5 45t-51.5 71t-18.5 92.5t19 92t52 70.5t78.5 45t99.5 15.5q37 0 73 -6.5t61 -18.5l26 -130h-18l-52 91q-8 13 -14 17.5
t-11 7.5q-10 6 -28.5 9.5t-38.5 3.5q-32 0 -63.5 -9.5t-56 -31t-39.5 -57t-15 -86.5q0 -46 12 -84.5t35 -66.5t56.5 -44t76.5 -16q20 0 38.5 3.5t27.5 8.5l12 8t14 18l54 93h17l-30 -132q-25 -12 -63.5 -18.5t-75.5 -6.5z" />
    <glyph glyph-name="ordfeminine" unicode="&#xaa;" horiz-adv-x="499" 
d="M354 364l52 132h-2q-19 -28 -42.5 -54t-49 -45.5t-53 -31t-54.5 -11.5q-39 0 -60 24t-21 66q0 36 13.5 75t36.5 76t54 71t64.5 59t68.5 40t67 15q29 0 44 -15.5t17 -38.5h2l19 52h79l-159 -414h-76zM250 397q22 0 50.5 19.5t57 51.5t54.5 72t42 82q28 74 17.5 104
t-44.5 30q-24 0 -50 -14.5t-50 -38t-45.5 -55t-37.5 -65t-25.5 -68t-9.5 -64.5q0 -54 41 -54z" />
    <glyph glyph-name="guillemotleft" unicode="&#xab;" horiz-adv-x="559" 
d="M53 254l284 225l23 -25l-228 -204l83 -207l-33 -13zM259 254l284 225l23 -25l-228 -204l83 -207l-33 -13z" />
    <glyph glyph-name="uni00AD" unicode="&#xad;" horiz-adv-x="451" 
d="M91 287h294l-18 -51h-294z" />
    <glyph glyph-name="registered" unicode="&#xae;" horiz-adv-x="931" 
d="M506 -12q-84 0 -155.5 29.5t-124 82t-82 124.5t-29.5 157t29.5 157t82 124.5t124 82t155.5 29.5t156 -29.5t124.5 -82t82 -124.5t29.5 -157t-29.5 -157t-82 -124.5t-124.5 -82t-156 -29.5zM506 23q71 0 134.5 25t111.5 71.5t76 112.5t28 149t-28 149.5t-76 113
t-111.5 71.5t-134.5 25t-134.5 -25t-111 -71.5t-75.5 -113t-28 -149.5t28 -149t75.5 -112.5t111 -71.5t134.5 -25zM346 179v430h136q39 0 72 -5.5t56.5 -18t36.5 -33t13 -50.5q0 -42 -30 -71.5t-87 -38.5l188 -213h-81l-180 205h-59v-205h-65zM475 414q54 0 84 19t30 64
q0 44 -30 63t-84 19h-64v-165h64z" />
    <glyph glyph-name="macron" unicode="&#xaf;" 
d="M-134 711h283l-15 -43h-283z" />
    <glyph glyph-name="degree" unicode="&#xb0;" horiz-adv-x="452" 
d="M329 436q-36 0 -67 13t-54 36t-36 54t-13 66t13 66t36 54t54 36t67 13t67 -13t54 -36t36 -54t13 -66t-13 -66t-36 -54t-54 -36t-67 -13zM329 478q25 0 47.5 9t39.5 25.5t27.5 40t10.5 52.5t-10.5 53t-27.5 40.5t-39.5 25.5t-47.5 9t-47.5 -9t-40 -25.5t-27.5 -40.5
t-10 -53t10 -52.5t27.5 -40t40 -25.5t47.5 -9z" />
    <glyph glyph-name="plusminus" unicode="&#xb1;" horiz-adv-x="657" 
d="M285 292h-227v48h227v184h51v-184h227v-48h-227v-189h-51v189zM58 48h505v-48h-505v48z" />
    <glyph glyph-name="uni00B2" unicode="&#xb2;" horiz-adv-x="356" 
d="M70 404q87 62 148 110.5t100 88t57 71t18 58.5q0 31 -18 47t-50 16q-33 0 -61.5 -20.5t-38.5 -72.5h-21q8 60 45 94t97 34q51 0 81 -24t30 -64q0 -26 -11.5 -50.5t-36 -50.5t-62.5 -55t-91 -64l-97 -63h220l-35 -58h-275z" />
    <glyph glyph-name="uni00B3" unicode="&#xb3;" horiz-adv-x="353" 
d="M215 392q-26 0 -46.5 7t-35 18t-22 25t-7.5 28q0 13 8 22t22 9q16 0 22 -11t10 -25q6 -22 20.5 -36t46.5 -14q20 0 38.5 7.5t33 22.5t23 36t8.5 48q0 45 -22.5 69t-51.5 24q-12 0 -24 -3l-2 20l26 6q24 4 46 12.5t38.5 20t26 27t9.5 35.5q0 26 -17 40.5t-48 14.5
q-29 0 -56.5 -16.5t-38.5 -61.5h-19q9 57 46 85t91 28q50 0 76 -21t26 -53t-30 -59.5t-81 -37.5v-1q31 -14 49 -40.5t18 -61.5q0 -31 -15 -60.5t-40 -52.5t-58.5 -37t-69.5 -14z" />
    <glyph glyph-name="acute" unicode="&#xb4;" 
d="M30 775h107l-2 -7l-232 -172h-28z" />
    <glyph glyph-name="paragraph" unicode="&#xb6;" horiz-adv-x="574" 
d="M290 286q-44 1 -77 14.5t-55.5 37t-34 54.5t-11.5 67q0 62 29 116.5t83 95t131 64t173 23.5h81l-260 -851l-69 -41l133 436q-41 -12 -81 -15l-145 -477l-52 -35z" />
    <glyph glyph-name="periodcentered" unicode="&#xb7;" horiz-adv-x="287" 
d="M145 197q-26 0 -44 19t-18 46q0 26 18 44.5t44 18.5q28 0 46.5 -18.5t18.5 -44.5q0 -27 -18.5 -46t-46.5 -19z" />
    <glyph glyph-name="cedilla" unicode="&#xb8;" 
d="M-33 -257q-23 0 -42 6t-32.5 15.5t-20.5 21t-7 23.5q0 16 12.5 23t27.5 -1q-2 -33 20 -49.5t52 -16.5q56 0 56 40q0 21 -25 41.5t-60 44.5l136 109h36l-110 -86q26 -19 45 -39.5t19 -45.5q0 -39 -29.5 -62.5t-77.5 -23.5z" />
    <glyph glyph-name="uni00B9" unicode="&#xb9;" horiz-adv-x="241" 
d="M270 774l-95 -35l9 26l167 61l-147 -425h-62z" />
    <glyph glyph-name="ordmasculine" unicode="&#xba;" horiz-adv-x="488" 
d="M263 354q-60 0 -94.5 35.5t-34.5 89.5q0 55 23.5 108.5t62.5 96.5t90 69.5t106 26.5q61 0 95.5 -35t34.5 -90q0 -54 -23.5 -108t-62.5 -97t-90.5 -69.5t-106.5 -26.5zM295 386q27 0 56 18.5t53 52.5t39 82.5t15 108.5q0 53 -21 76.5t-53 23.5q-27 0 -56 -18.5t-53 -52.5
t-39 -82.5t-15 -108.5q0 -52 21 -76t53 -24z" />
    <glyph glyph-name="guillemotright" unicode="&#xbb;" horiz-adv-x="557" 
d="M298 255l-284 -225l-23 25l228 204l-83 207l33 13zM504 255l-284 -225l-23 25l228 204l-83 207l33 13z" />
    <glyph glyph-name="onequarter" unicode="&#xbc;" horiz-adv-x="827" 
d="M252 714l-95 -35l9 26l167 61l-147 -425h-62zM749 758h72l-828 -758h-72zM614 109h-213l9 27l317 281h56l-92 -267h77l-14 -41h-77l-38 -109h-63zM628 150l70 204l-228 -204h158z" />
    <glyph glyph-name="onehalf" unicode="&#xbd;" horiz-adv-x="779" 
d="M252 714l-95 -35l9 26l167 61l-147 -425h-62zM749 758h72l-828 -758h-72zM371 3q87 62 148 110.5t100 88t57 71t18 58.5q0 31 -18 47t-50 16q-33 0 -61.5 -20.5t-38.5 -72.5h-21q8 60 45 94t97 34q51 0 81 -24t30 -64q0 -26 -11.5 -50.5t-36 -50.5t-62.5 -55t-91 -64
l-97 -63h220l-35 -58h-275z" />
    <glyph glyph-name="threequarters" unicode="&#xbe;" horiz-adv-x="939" 
d="M197 332q-26 0 -46.5 7t-35 18t-22 25t-7.5 28q0 13 8 22t22 9q16 0 22 -11t10 -25q6 -22 20.5 -36t46.5 -14q20 0 38.5 7.5t33 22.5t23 36t8.5 48q0 45 -22.5 69t-51.5 24q-12 0 -24 -3l-2 20l26 6q24 4 46 12.5t38.5 20t26 27t9.5 35.5q0 26 -17 40.5t-48 14.5
q-29 0 -56.5 -16.5t-38.5 -61.5h-19q9 57 46 85t91 28q50 0 76 -21t26 -53t-30 -59.5t-81 -37.5v-1q31 -14 49 -40.5t18 -61.5q0 -31 -15 -60.5t-40 -52.5t-58.5 -37t-69.5 -14zM861 758h72l-828 -758h-72zM726 109h-213l9 27l317 281h56l-92 -267h77l-14 -41h-77l-38 -109
h-63zM740 150l70 204l-228 -204h158z" />
    <glyph glyph-name="questiondown" unicode="&#xbf;" horiz-adv-x="605" 
d="M237 -261q-63 0 -114 16t-87 45t-55 69t-19 89q0 66 40 106t133 55l122 20q19 3 31.5 6.5t21 10t14.5 17.5t13 29l35 95h26l-46 -155q-7 -23 -13.5 -38t-17 -24.5t-27 -15t-42.5 -9.5l-80 -13q-42 -7 -72 -16t-49 -23t-27.5 -33t-8.5 -45q0 -31 15.5 -58t42 -46.5
t62.5 -30.5t77 -11q27 0 47 5.5t33.5 13t22 16t14.5 15.5q13 16 24 30.5t36 14.5q23 0 38.5 -13.5t15.5 -35.5q0 -17 -16.5 -32.5t-44.5 -27.5t-65.5 -19t-79.5 -7zM422 519q26 0 44 -19t18 -46q0 -26 -18 -44.5t-44 -18.5q-28 0 -46.5 18.5t-18.5 44.5q0 27 18.5 46
t46.5 19z" />
    <glyph glyph-name="Agrave" unicode="&#xc0;" horiz-adv-x="758" 
d="M531 764h82l33 -764h-97l-11 289h-322l-231 -289h-60zM536 336l-13 338l-270 -338h283zM591 839l-159 131l1 2h108l75 -133h-25z" />
    <glyph glyph-name="Aacute" unicode="&#xc1;" horiz-adv-x="758" 
d="M531 764h82l33 -764h-97l-11 289h-322l-231 -289h-60zM536 336l-13 338l-270 -338h283zM690 972h122l-1 -2l-246 -131h-25z" />
    <glyph glyph-name="Acircumflex" unicode="&#xc2;" horiz-adv-x="758" 
d="M531 764h82l33 -764h-97l-11 289h-322l-231 -289h-60zM536 336l-13 338l-270 -338h283zM629 981h10l80 -148h-26l-74 77l-176 -77h-30z" />
    <glyph glyph-name="Atilde" unicode="&#xc3;" horiz-adv-x="758" 
d="M531 764h82l33 -764h-97l-11 289h-322l-231 -289h-60zM536 336l-13 338l-270 -338h283zM662 833q-27 0 -45.5 11t-35 23.5t-33 23.5t-37.5 11q-24 0 -43 -14t-30 -48h-22q11 60 40 94.5t71 34.5q25 0 43 -10.5t33.5 -23.5t32 -23.5t39.5 -10.5t40 13.5t28 45.5h22
q-14 -69 -42.5 -98t-60.5 -29z" />
    <glyph glyph-name="Adieresis" unicode="&#xc4;" horiz-adv-x="758" 
d="M531 764h82l33 -764h-97l-11 289h-322l-231 -289h-60zM536 336l-13 338l-270 -338h283zM711 858q-24 0 -42.5 18.5t-18.5 43.5q0 24 18.5 42.5t42.5 18.5q25 0 43.5 -18.5t18.5 -42.5q0 -25 -18.5 -43.5t-43.5 -18.5zM480 858q-24 0 -42.5 18.5t-18.5 43.5
q0 24 18.5 42.5t42.5 18.5q25 0 43.5 -18.5t18.5 -42.5q0 -25 -18.5 -43.5t-43.5 -18.5z" />
    <glyph glyph-name="Aring" unicode="&#xc5;" horiz-adv-x="758" 
d="M531 764h82l33 -764h-97l-11 289h-322l-231 -289h-60zM536 336l-13 338l-270 -338h283zM605 835q-24 0 -44.5 8.5t-36.5 23.5t-25 35.5t-9 43.5t9 43.5t25 35.5t36.5 23.5t44.5 8.5t45.5 -8.5t37 -23.5t24.5 -35.5t9 -43.5t-9 -43.5t-24.5 -35.5t-37 -23.5t-45.5 -8.5z
M605 870q34 0 55 21t21 55q0 33 -21 54t-55 21q-33 0 -54.5 -21t-21.5 -54q0 -34 21.5 -55t54.5 -21z" />
    <glyph glyph-name="AE" unicode="&#xc6;" horiz-adv-x="1086" 
d="M685 758h501l-15 -47h-403l-89 -292h345l-14 -47h-345l-99 -325h402l-14 -47h-500l89 289h-273l-296 -289h-61zM318 336h239l102 333z" />
    <glyph glyph-name="Ccedilla" unicode="&#xc7;" horiz-adv-x="825" 
d="M420 -12q-67 0 -127.5 19.5t-106 58t-72 96t-26.5 134.5q0 100 44.5 187.5t118.5 152t168.5 101.5t195.5 37q75 0 138 -18t102 -47l-26 -183h-30l-14 125q-2 21 -17.5 36.5t-38.5 25t-52 14.5t-59 5q-80 0 -155.5 -32t-134 -91.5t-94.5 -144t-36 -188.5
q0 -67 19.5 -113.5t53 -76t78 -43t94.5 -13.5q57 0 102 10t74 46l122 151h30l-101 -200q-47 -24 -113 -36.5t-137 -12.5zM275 -257q-24 0 -43 6t-32.5 15.5t-20.5 21t-7 23.5q0 16 12.5 23t28.5 -1q-2 -33 19.5 -49.5t51.5 -16.5q56 0 56 40q0 21 -24.5 41.5t-59.5 44.5
l136 109h35l-109 -86q26 -19 45 -39.5t19 -45.5q0 -39 -29.5 -62.5t-77.5 -23.5z" />
    <glyph glyph-name="Egrave" unicode="&#xc8;" horiz-adv-x="668" 
d="M268 758h500l-15 -47h-403l-89 -292h345l-14 -47h-345l-99 -325h402l-14 -47h-500zM565 839l-159 131l1 2h108l75 -133h-25z" />
    <glyph glyph-name="Eacute" unicode="&#xc9;" horiz-adv-x="668" 
d="M268 758h500l-15 -47h-403l-89 -292h345l-14 -47h-345l-99 -325h402l-14 -47h-500zM664 972h122l-1 -2l-246 -131h-25z" />
    <glyph glyph-name="Ecircumflex" unicode="&#xca;" horiz-adv-x="668" 
d="M268 758h500l-15 -47h-403l-89 -292h345l-14 -47h-345l-99 -325h402l-14 -47h-500zM603 981h10l80 -148h-26l-74 77l-176 -77h-30z" />
    <glyph glyph-name="Edieresis" unicode="&#xcb;" horiz-adv-x="668" 
d="M268 758h500l-15 -47h-403l-89 -292h345l-14 -47h-345l-99 -325h402l-14 -47h-500zM685 858q-24 0 -42.5 18.5t-18.5 43.5q0 24 18.5 42.5t42.5 18.5q25 0 43.5 -18.5t18.5 -42.5q0 -25 -18.5 -43.5t-43.5 -18.5zM454 858q-24 0 -42.5 18.5t-18.5 43.5q0 24 18.5 42.5
t42.5 18.5q25 0 43.5 -18.5t18.5 -42.5q0 -25 -18.5 -43.5t-43.5 -18.5z" />
    <glyph glyph-name="Igrave" unicode="&#xcc;" horiz-adv-x="322" 
d="M268 758h97l-232 -758h-97zM356 839l-159 131l1 2h108l75 -133h-25z" />
    <glyph glyph-name="Iacute" unicode="&#xcd;" horiz-adv-x="322" 
d="M268 758h97l-232 -758h-97zM455 972h122l-1 -2l-246 -131h-25z" />
    <glyph glyph-name="Icircumflex" unicode="&#xce;" horiz-adv-x="322" 
d="M268 758h97l-232 -758h-97zM394 981h10l80 -148h-26l-74 77l-176 -77h-30z" />
    <glyph glyph-name="Idieresis" unicode="&#xcf;" horiz-adv-x="322" 
d="M268 758h97l-232 -758h-97zM476 858q-24 0 -42.5 18.5t-18.5 43.5q0 24 18.5 42.5t42.5 18.5q25 0 43.5 -18.5t18.5 -42.5q0 -25 -18.5 -43.5t-43.5 -18.5zM245 858q-24 0 -42.5 18.5t-18.5 43.5q0 24 18.5 42.5t42.5 18.5q25 0 43.5 -18.5t18.5 -42.5q0 -25 -18.5 -43.5
t-43.5 -18.5z" />
    <glyph glyph-name="Eth" unicode="&#xd0;" horiz-adv-x="849" 
d="M36 0l232 758h196q85 0 155.5 -16.5t121.5 -50t79 -84t28 -117.5q0 -95 -43.5 -183.5t-122 -156.5t-189 -109t-244.5 -41h-213zM257 44q108 0 197 36.5t152 98.5t98 143.5t35 170.5q0 60 -20 102t-56.5 68.5t-87 38.5t-111.5 12h-113l-204 -670h110zM69 419h377l-15 -47
h-377z" />
    <glyph glyph-name="Ntilde" unicode="&#xd1;" horiz-adv-x="855" 
d="M653 128l193 630h52l-232 -758h-51l-334 633l-193 -633h-52l232 758h52zM702 833q-27 0 -45.5 11t-35 23.5t-33 23.5t-37.5 11q-24 0 -43 -14t-30 -48h-22q11 60 40 94.5t71 34.5q25 0 43 -10.5t33.5 -23.5t32 -23.5t39.5 -10.5t40 13.5t28 45.5h22q-14 -69 -42.5 -98
t-60.5 -29z" />
    <glyph glyph-name="Ograve" unicode="&#xd2;" horiz-adv-x="891" 
d="M377 -12q-61 0 -115 18t-94 53t-63.5 87t-23.5 120q0 56 17 115.5t49 116t77.5 107t102.5 88t125 59.5t144 22q61 0 115 -18t94.5 -53t63.5 -86.5t23 -119.5q0 -56 -17 -115.5t-48.5 -116.5t-77 -107t-103 -88t-125.5 -60t-144 -22zM394 28q79 0 150 39.5t123.5 104.5
t83.5 148.5t31 172.5q0 54 -13.5 98t-39 76t-63.5 49.5t-87 17.5q-80 0 -150 -39t-123 -104t-83.5 -149t-30.5 -173q0 -53 13 -97.5t38.5 -76.5t63.5 -49.5t87 -17.5zM660 839l-159 131l1 2h108l75 -133h-25z" />
    <glyph glyph-name="Oacute" unicode="&#xd3;" horiz-adv-x="891" 
d="M377 -12q-61 0 -115 18t-94 53t-63.5 87t-23.5 120q0 56 17 115.5t49 116t77.5 107t102.5 88t125 59.5t144 22q61 0 115 -18t94.5 -53t63.5 -86.5t23 -119.5q0 -56 -17 -115.5t-48.5 -116.5t-77 -107t-103 -88t-125.5 -60t-144 -22zM394 28q79 0 150 39.5t123.5 104.5
t83.5 148.5t31 172.5q0 54 -13.5 98t-39 76t-63.5 49.5t-87 17.5q-80 0 -150 -39t-123 -104t-83.5 -149t-30.5 -173q0 -53 13 -97.5t38.5 -76.5t63.5 -49.5t87 -17.5zM759 972h122l-1 -2l-246 -131h-25z" />
    <glyph glyph-name="Ocircumflex" unicode="&#xd4;" horiz-adv-x="891" 
d="M377 -12q-61 0 -115 18t-94 53t-63.5 87t-23.5 120q0 56 17 115.5t49 116t77.5 107t102.5 88t125 59.5t144 22q61 0 115 -18t94.5 -53t63.5 -86.5t23 -119.5q0 -56 -17 -115.5t-48.5 -116.5t-77 -107t-103 -88t-125.5 -60t-144 -22zM394 28q79 0 150 39.5t123.5 104.5
t83.5 148.5t31 172.5q0 54 -13.5 98t-39 76t-63.5 49.5t-87 17.5q-80 0 -150 -39t-123 -104t-83.5 -149t-30.5 -173q0 -53 13 -97.5t38.5 -76.5t63.5 -49.5t87 -17.5zM698 981h10l80 -148h-26l-74 77l-176 -77h-30z" />
    <glyph glyph-name="Otilde" unicode="&#xd5;" horiz-adv-x="891" 
d="M377 -12q-61 0 -115 18t-94 53t-63.5 87t-23.5 120q0 56 17 115.5t49 116t77.5 107t102.5 88t125 59.5t144 22q61 0 115 -18t94.5 -53t63.5 -86.5t23 -119.5q0 -56 -17 -115.5t-48.5 -116.5t-77 -107t-103 -88t-125.5 -60t-144 -22zM394 28q79 0 150 39.5t123.5 104.5
t83.5 148.5t31 172.5q0 54 -13.5 98t-39 76t-63.5 49.5t-87 17.5q-80 0 -150 -39t-123 -104t-83.5 -149t-30.5 -173q0 -53 13 -97.5t38.5 -76.5t63.5 -49.5t87 -17.5zM731 833q-27 0 -45.5 11t-35 23.5t-33 23.5t-37.5 11q-24 0 -43 -14t-30 -48h-22q11 60 40 94.5t71 34.5
q25 0 43 -10.5t33.5 -23.5t32 -23.5t39.5 -10.5t40 13.5t28 45.5h22q-14 -69 -42.5 -98t-60.5 -29z" />
    <glyph glyph-name="Odieresis" unicode="&#xd6;" horiz-adv-x="891" 
d="M377 -12q-61 0 -115 18t-94 53t-63.5 87t-23.5 120q0 56 17 115.5t49 116t77.5 107t102.5 88t125 59.5t144 22q61 0 115 -18t94.5 -53t63.5 -86.5t23 -119.5q0 -56 -17 -115.5t-48.5 -116.5t-77 -107t-103 -88t-125.5 -60t-144 -22zM394 28q79 0 150 39.5t123.5 104.5
t83.5 148.5t31 172.5q0 54 -13.5 98t-39 76t-63.5 49.5t-87 17.5q-80 0 -150 -39t-123 -104t-83.5 -149t-30.5 -173q0 -53 13 -97.5t38.5 -76.5t63.5 -49.5t87 -17.5zM780 858q-24 0 -42.5 18.5t-18.5 43.5q0 24 18.5 42.5t42.5 18.5q25 0 43.5 -18.5t18.5 -42.5
q0 -25 -18.5 -43.5t-43.5 -18.5zM549 858q-24 0 -42.5 18.5t-18.5 43.5q0 24 18.5 42.5t42.5 18.5q25 0 43.5 -18.5t18.5 -42.5q0 -25 -18.5 -43.5t-43.5 -18.5z" />
    <glyph glyph-name="multiply" unicode="&#xd7;" horiz-adv-x="657" 
d="M103 66l194 194l-194 194l34 35l194 -194l194 194l34 -34l-194 -194l194 -195l-34 -34l-194 194l-194 -194z" />
    <glyph glyph-name="Oslash" unicode="&#xd8;" horiz-adv-x="891" 
d="M377 -12q-61 0 -115 18t-94 53t-63.5 87t-23.5 120q0 56 17 115.5t49 116t77.5 107t102.5 88t125 59.5t144 22q61 0 115 -18t94.5 -53t63.5 -86.5t23 -119.5q0 -56 -17 -115.5t-48.5 -116.5t-77 -107t-103 -88t-125.5 -60t-144 -22zM394 28q79 0 150 39.5t123.5 104.5
t83.5 148.5t31 172.5q0 54 -13.5 98t-39 76t-63.5 49.5t-87 17.5q-80 0 -150 -39t-123 -104t-83.5 -149t-30.5 -173q0 -53 13 -97.5t38.5 -76.5t63.5 -49.5t87 -17.5zM29 -34l884 867l32 -32l-884 -868z" />
    <glyph glyph-name="Ugrave" unicode="&#xd9;" horiz-adv-x="833" 
d="M345 -12q-75 0 -129 18t-84 55.5t-34.5 95.5t19.5 137l142 464h97l-143 -465q-41 -133 -1.5 -194.5t162.5 -61.5q66 0 117.5 18.5t90.5 53t67 84t47 111.5l139 454h52l-142 -463q-47 -155 -143.5 -231t-256.5 -76zM620 839l-159 131l1 2h108l75 -133h-25z" />
    <glyph glyph-name="Uacute" unicode="&#xda;" horiz-adv-x="833" 
d="M345 -12q-75 0 -129 18t-84 55.5t-34.5 95.5t19.5 137l142 464h97l-143 -465q-41 -133 -1.5 -194.5t162.5 -61.5q66 0 117.5 18.5t90.5 53t67 84t47 111.5l139 454h52l-142 -463q-47 -155 -143.5 -231t-256.5 -76zM719 972h122l-1 -2l-246 -131h-25z" />
    <glyph glyph-name="Ucircumflex" unicode="&#xdb;" horiz-adv-x="833" 
d="M345 -12q-75 0 -129 18t-84 55.5t-34.5 95.5t19.5 137l142 464h97l-143 -465q-41 -133 -1.5 -194.5t162.5 -61.5q66 0 117.5 18.5t90.5 53t67 84t47 111.5l139 454h52l-142 -463q-47 -155 -143.5 -231t-256.5 -76zM658 981h10l80 -148h-26l-74 77l-176 -77h-30z" />
    <glyph glyph-name="Udieresis" unicode="&#xdc;" horiz-adv-x="833" 
d="M345 -12q-75 0 -129 18t-84 55.5t-34.5 95.5t19.5 137l142 464h97l-143 -465q-41 -133 -1.5 -194.5t162.5 -61.5q66 0 117.5 18.5t90.5 53t67 84t47 111.5l139 454h52l-142 -463q-47 -155 -143.5 -231t-256.5 -76zM740 858q-24 0 -42.5 18.5t-18.5 43.5q0 24 18.5 42.5
t42.5 18.5q25 0 43.5 -18.5t18.5 -42.5q0 -25 -18.5 -43.5t-43.5 -18.5zM509 858q-24 0 -42.5 18.5t-18.5 43.5q0 24 18.5 42.5t42.5 18.5q25 0 43.5 -18.5t18.5 -42.5q0 -25 -18.5 -43.5t-43.5 -18.5z" />
    <glyph glyph-name="Yacute" unicode="&#xdd;" horiz-adv-x="772" 
d="M322 0h-98l129 342l-161 416h104l140 -366l417 366h68l-471 -416zM712 972h122l-1 -2l-246 -131h-25z" />
    <glyph glyph-name="Thorn" unicode="&#xde;" horiz-adv-x="735" 
d="M268 758h97l-53 -174h152q58 0 107.5 -7.5t86 -25.5t57 -47.5t20.5 -72.5q0 -56 -25.5 -103.5t-75 -82t-122.5 -54t-168 -19.5h-159l-52 -172h-97zM199 216h153q69 0 121 18t86 47t51 66t17 75q0 34 -12.5 56.5t-36 36.5t-56 20t-71.5 6h-153z" />
    <glyph glyph-name="germandbls" unicode="&#xdf;" horiz-adv-x="667" 
d="M357 -12q-41 0 -73 9t-54 23.5t-33.5 33t-11.5 37.5t12 32t33 13q13 0 21.5 -5.5t15 -14t11.5 -19.5t10 -21q7 -14 14.5 -24.5t18 -17t25 -10t36.5 -3.5q28 0 52.5 7.5t42.5 22t28.5 36t10.5 48.5q0 38 -16.5 71t-43.5 65l-24 29q-35 42 -54 74t-19 62q0 40 28.5 62.5
t79.5 45.5l20 9q56 25 85 50t29 65q0 36 -27 59.5t-80 23.5q-69 0 -120.5 -43t-83.5 -136l-197 -572h-90l185 537q45 129 127 187t194 58q82 0 126 -31.5t44 -77.5q0 -47 -35.5 -74.5t-93.5 -51.5l-34 -14q-37 -15 -54.5 -29.5t-17.5 -37.5q0 -19 14.5 -41t41.5 -56l24 -30
q16 -20 30.5 -39t25.5 -38.5t17.5 -40t6.5 -44.5q0 -43 -19 -78t-52 -59.5t-78 -38t-98 -13.5z" />
    <glyph glyph-name="agrave" unicode="&#xe0;" horiz-adv-x="575" 
d="M302 0l65 167h-2q-25 -35 -53 -67.5t-59 -57.5t-65.5 -39.5t-71.5 -14.5q-48 0 -74 29.5t-26 81.5q0 45 17 93t45.5 94.5t66 88t79.5 73t85.5 50t83.5 18.5q38 0 56.5 -20.5t21.5 -50.5h1l25 67h90l-196 -512h-89zM168 37q28 0 63.5 24t71 64t67.5 90.5t53 103.5
q18 46 22.5 78t-1 51.5t-20 28.5t-33.5 9q-31 0 -63.5 -17.5t-63.5 -47t-58 -68t-47.5 -80.5t-32.5 -85t-12 -80q0 -34 13 -52.5t41 -18.5zM423 596l-124 172l3 7h91l54 -179h-24z" />
    <glyph glyph-name="aacute" unicode="&#xe1;" horiz-adv-x="575" 
d="M302 0l65 167h-2q-25 -35 -53 -67.5t-59 -57.5t-65.5 -39.5t-71.5 -14.5q-48 0 -74 29.5t-26 81.5q0 45 17 93t45.5 94.5t66 88t79.5 73t85.5 50t83.5 18.5q38 0 56.5 -20.5t21.5 -50.5h1l25 67h90l-196 -512h-89zM168 37q28 0 63.5 24t71 64t67.5 90.5t53 103.5
q18 46 22.5 78t-1 51.5t-20 28.5t-33.5 9q-31 0 -63.5 -17.5t-63.5 -47t-58 -68t-47.5 -80.5t-32.5 -85t-12 -80q0 -34 13 -52.5t41 -18.5zM547 775h107l-2 -7l-232 -172h-28z" />
    <glyph glyph-name="acircumflex" unicode="&#xe2;" horiz-adv-x="575" 
d="M302 0l65 167h-2q-25 -35 -53 -67.5t-59 -57.5t-65.5 -39.5t-71.5 -14.5q-48 0 -74 29.5t-26 81.5q0 45 17 93t45.5 94.5t66 88t79.5 73t85.5 50t83.5 18.5q38 0 56.5 -20.5t21.5 -50.5h1l25 67h90l-196 -512h-89zM168 37q28 0 63.5 24t71 64t67.5 90.5t53 103.5
q18 46 22.5 78t-1 51.5t-20 28.5t-33.5 9q-31 0 -63.5 -17.5t-63.5 -47t-58 -68t-47.5 -80.5t-32.5 -85t-12 -80q0 -34 13 -52.5t41 -18.5zM507 789h8l68 -193h-25l-70 107l-193 -107h-27z" />
    <glyph glyph-name="atilde" unicode="&#xe3;" horiz-adv-x="575" 
d="M302 0l65 167h-2q-25 -35 -53 -67.5t-59 -57.5t-65.5 -39.5t-71.5 -14.5q-48 0 -74 29.5t-26 81.5q0 45 17 93t45.5 94.5t66 88t79.5 73t85.5 50t83.5 18.5q38 0 56.5 -20.5t21.5 -50.5h1l25 67h90l-196 -512h-89zM168 37q28 0 63.5 24t71 64t67.5 90.5t53 103.5
q18 46 22.5 78t-1 51.5t-20 28.5t-33.5 9q-31 0 -63.5 -17.5t-63.5 -47t-58 -68t-47.5 -80.5t-32.5 -85t-12 -80q0 -34 13 -52.5t41 -18.5zM543 629q-27 0 -45.5 11t-35 23.5t-33 23.5t-37.5 11q-24 0 -43 -14t-30 -48h-22q11 60 40 94.5t71 34.5q25 0 43 -10.5t33.5 -23.5
t32 -23.5t39.5 -10.5t40 13.5t28 45.5h22q-14 -69 -42.5 -98t-60.5 -29z" />
    <glyph glyph-name="adieresis" unicode="&#xe4;" horiz-adv-x="575" 
d="M302 0l65 167h-2q-25 -35 -53 -67.5t-59 -57.5t-65.5 -39.5t-71.5 -14.5q-48 0 -74 29.5t-26 81.5q0 45 17 93t45.5 94.5t66 88t79.5 73t85.5 50t83.5 18.5q38 0 56.5 -20.5t21.5 -50.5h1l25 67h90l-196 -512h-89zM168 37q28 0 63.5 24t71 64t67.5 90.5t53 103.5
q18 46 22.5 78t-1 51.5t-20 28.5t-33.5 9q-31 0 -63.5 -17.5t-63.5 -47t-58 -68t-47.5 -80.5t-32.5 -85t-12 -80q0 -34 13 -52.5t41 -18.5zM585 645q-24 0 -42.5 18.5t-18.5 43.5q0 24 18.5 42.5t42.5 18.5q25 0 43.5 -18.5t18.5 -42.5q0 -25 -18.5 -43.5t-43.5 -18.5z
M354 645q-24 0 -42.5 18.5t-18.5 43.5q0 24 18.5 42.5t42.5 18.5q25 0 43.5 -18.5t18.5 -42.5q0 -25 -18.5 -43.5t-43.5 -18.5z" />
    <glyph glyph-name="aring" unicode="&#xe5;" horiz-adv-x="575" 
d="M302 0l65 167h-2q-25 -35 -53 -67.5t-59 -57.5t-65.5 -39.5t-71.5 -14.5q-48 0 -74 29.5t-26 81.5q0 45 17 93t45.5 94.5t66 88t79.5 73t85.5 50t83.5 18.5q38 0 56.5 -20.5t21.5 -50.5h1l25 67h90l-196 -512h-89zM168 37q28 0 63.5 24t71 64t67.5 90.5t53 103.5
q18 46 22.5 78t-1 51.5t-20 28.5t-33.5 9q-31 0 -63.5 -17.5t-63.5 -47t-58 -68t-47.5 -80.5t-32.5 -85t-12 -80q0 -34 13 -52.5t41 -18.5zM467 585q-24 0 -44.5 8.5t-36.5 23.5t-25 35t-9 44q0 23 9 43t25 35t36.5 24t44.5 9t45.5 -9t37 -24t24.5 -35t9 -43q0 -24 -9 -44
t-24.5 -35t-37 -23.5t-45.5 -8.5zM467 620q34 0 55 21t21 55q0 33 -21 54t-55 21q-33 0 -54.5 -21t-21.5 -54q0 -34 21.5 -55t54.5 -21z" />
    <glyph glyph-name="ae" unicode="&#xe6;" horiz-adv-x="794" 
d="M118 -12q-48 0 -76 28.5t-28 85.5q0 43 16.5 88.5t48 89t78 82.5t107.5 69q87 44 184.5 64.5t216.5 20.5h6q62 0 91.5 -26t29.5 -65q0 -31 -19.5 -64.5t-58.5 -52.5l-266 -2q-16 -34 -24.5 -72t-8.5 -78q0 -63 25 -90.5t63 -27.5q51 0 101 40t90 104l22 -16
q-25 -41 -51.5 -74t-57 -56t-66 -35.5t-77.5 -12.5q-62 0 -100 31t-46 91q-39 -54 -92.5 -88t-107.5 -34zM114 110q0 -73 55 -73q34 0 74.5 27t72.5 79q1 57 23 112t58 102t81.5 83t95.5 56q-81 -8 -149 -30t-129 -61q-44 -28 -78 -63t-57 -73.5t-35 -79t-12 -79.5zM666 488
q-27 0 -55.5 -11.5t-55.5 -31.5t-51 -48.5t-43 -62.5h121q32 0 59 8.5t46.5 23t30.5 32.5t11 38q0 24 -14.5 38t-48.5 14z" />
    <glyph glyph-name="ccedilla" unicode="&#xe7;" horiz-adv-x="494" 
d="M182 -12q-70 0 -110 38.5t-40 110.5q0 69 30 136.5t78 121.5t109 87.5t123 33.5q51 0 86 -23t35 -68q0 -29 -26.5 -48t-68.5 -13q8 35 8.5 58.5t-5.5 37.5t-17.5 20t-28.5 6q-37 0 -76.5 -27.5t-72.5 -73.5t-54 -105.5t-21 -123.5q0 -63 24 -90.5t65 -27.5q51 0 98.5 40
t87.5 103l23 -17q-25 -40 -51 -72.5t-56 -55.5t-64 -35.5t-76 -12.5zM69 -257q-23 0 -42 6t-32.5 15.5t-20.5 21t-7 23.5q0 16 12.5 23t27.5 -1q-2 -33 20 -49.5t52 -16.5q56 0 56 40q0 21 -25 41.5t-60 44.5l136 109h36l-110 -86q26 -19 45 -39.5t19 -45.5
q0 -39 -29.5 -62.5t-77.5 -23.5z" />
    <glyph glyph-name="egrave" unicode="&#xe8;" horiz-adv-x="509" 
d="M179 -12q-69 0 -108.5 38.5t-39.5 110.5t32.5 140t84 121t114.5 85.5t124 32.5q62 0 91.5 -26t29.5 -65q0 -31 -19.5 -64.5t-58.5 -52.5l-266 -2q-16 -34 -24.5 -72t-8.5 -78q0 -63 25 -90.5t63 -27.5q51 0 101 40t90 104l22 -16q-25 -41 -51.5 -74t-57 -56t-66 -35.5
t-77.5 -12.5zM381 488q-27 0 -55.5 -11.5t-55.5 -31.5t-51 -48.5t-43 -62.5h121q32 0 59 8.5t46.5 23t30.5 32.5t11 38q0 24 -14.5 38t-48.5 14zM413 596l-124 172l3 7h91l54 -179h-24z" />
    <glyph glyph-name="eacute" unicode="&#xe9;" horiz-adv-x="509" 
d="M179 -12q-69 0 -108.5 38.5t-39.5 110.5t32.5 140t84 121t114.5 85.5t124 32.5q62 0 91.5 -26t29.5 -65q0 -31 -19.5 -64.5t-58.5 -52.5l-266 -2q-16 -34 -24.5 -72t-8.5 -78q0 -63 25 -90.5t63 -27.5q51 0 101 40t90 104l22 -16q-25 -41 -51.5 -74t-57 -56t-66 -35.5
t-77.5 -12.5zM381 488q-27 0 -55.5 -11.5t-55.5 -31.5t-51 -48.5t-43 -62.5h121q32 0 59 8.5t46.5 23t30.5 32.5t11 38q0 24 -14.5 38t-48.5 14zM537 775h107l-2 -7l-232 -172h-28z" />
    <glyph glyph-name="ecircumflex" unicode="&#xea;" horiz-adv-x="509" 
d="M179 -12q-69 0 -108.5 38.5t-39.5 110.5t32.5 140t84 121t114.5 85.5t124 32.5q62 0 91.5 -26t29.5 -65q0 -31 -19.5 -64.5t-58.5 -52.5l-266 -2q-16 -34 -24.5 -72t-8.5 -78q0 -63 25 -90.5t63 -27.5q51 0 101 40t90 104l22 -16q-25 -41 -51.5 -74t-57 -56t-66 -35.5
t-77.5 -12.5zM381 488q-27 0 -55.5 -11.5t-55.5 -31.5t-51 -48.5t-43 -62.5h121q32 0 59 8.5t46.5 23t30.5 32.5t11 38q0 24 -14.5 38t-48.5 14zM497 789h8l68 -193h-25l-70 107l-193 -107h-27z" />
    <glyph glyph-name="edieresis" unicode="&#xeb;" horiz-adv-x="509" 
d="M179 -12q-69 0 -108.5 38.5t-39.5 110.5t32.5 140t84 121t114.5 85.5t124 32.5q62 0 91.5 -26t29.5 -65q0 -31 -19.5 -64.5t-58.5 -52.5l-266 -2q-16 -34 -24.5 -72t-8.5 -78q0 -63 25 -90.5t63 -27.5q51 0 101 40t90 104l22 -16q-25 -41 -51.5 -74t-57 -56t-66 -35.5
t-77.5 -12.5zM381 488q-27 0 -55.5 -11.5t-55.5 -31.5t-51 -48.5t-43 -62.5h121q32 0 59 8.5t46.5 23t30.5 32.5t11 38q0 24 -14.5 38t-48.5 14zM575 645q-24 0 -42.5 18.5t-18.5 43.5q0 24 18.5 42.5t42.5 18.5q25 0 43.5 -18.5t18.5 -42.5q0 -25 -18.5 -43.5t-43.5 -18.5z
M344 645q-24 0 -42.5 18.5t-18.5 43.5q0 24 18.5 42.5t42.5 18.5q25 0 43.5 -18.5t18.5 -42.5q0 -25 -18.5 -43.5t-43.5 -18.5z" />
    <glyph glyph-name="igrave" unicode="&#xec;" horiz-adv-x="271" 
d="M187 502h90l-192 -502h-90zM256 596l-124 172l3 7h91l54 -179h-24z" />
    <glyph glyph-name="iacute" unicode="&#xed;" horiz-adv-x="271" 
d="M187 502h90l-192 -502h-90zM380 775h107l-2 -7l-232 -172h-28z" />
    <glyph glyph-name="icircumflex" unicode="&#xee;" horiz-adv-x="271" 
d="M187 502h90l-192 -502h-90zM340 789h8l68 -193h-25l-70 107l-193 -107h-27z" />
    <glyph glyph-name="idieresis" unicode="&#xef;" horiz-adv-x="271" 
d="M187 502h90l-192 -502h-90zM203 645q-24 0 -42.5 18.5t-18.5 43.5q0 24 18.5 42.5t42.5 18.5q25 0 43.5 -18.5t18.5 -42.5q0 -25 -18.5 -43.5t-43.5 -18.5zM402 645q-24 0 -42.5 18.5t-18.5 43.5q0 24 18.5 42.5t42.5 18.5q25 0 43.5 -18.5t18.5 -42.5q0 -25 -18.5 -43.5
t-43.5 -18.5z" />
    <glyph glyph-name="eth" unicode="&#xf0;" horiz-adv-x="539" 
d="M164 -12q-61 0 -99 33.5t-38 99.5q0 39 12.5 83.5t34.5 88.5t51.5 84.5t64.5 71.5t73 49.5t76 18.5q21 0 37 -6t27 -16q-9 47 -29.5 90.5t-54.5 83.5l-148 -69l-14 30l138 64q-24 23 -54 44t-67 38l13 19q45 -15 83.5 -35.5t71.5 -44.5l165 76l14 -29l-151 -70
q70 -61 105.5 -137t35.5 -154q0 -82 -29 -156.5t-77.5 -131.5t-111 -91t-129.5 -34zM125 113q0 -46 17.5 -72t54.5 -26q39 0 77.5 27.5t68.5 78.5t49 124t19 165v16t-1 16q-5 26 -22 40t-44 14q-29 0 -56.5 -18t-51.5 -48t-44.5 -69t-35.5 -82t-23 -86t-8 -80z" />
    <glyph glyph-name="ntilde" unicode="&#xf1;" horiz-adv-x="599" 
d="M331 0l119 311q32 85 27 122.5t-38 37.5t-71.5 -34t-80.5 -90q-26 -34 -55 -77.5t-56.5 -90t-51.5 -93t-39 -86.5h-92l193 502h89l-130 -331h1q33 60 66 112t64 94q54 72 100.5 105.5t98.5 33.5q64 0 84 -52.5t-17 -150.5l-119 -313h-92zM541 629q-27 0 -45.5 11
t-35 23.5t-33 23.5t-37.5 11q-24 0 -43 -14t-30 -48h-22q11 60 40 94.5t71 34.5q25 0 43 -10.5t33.5 -23.5t32 -23.5t39.5 -10.5t40 13.5t28 45.5h22q-14 -69 -42.5 -98t-60.5 -29z" />
    <glyph glyph-name="ograve" unicode="&#xf2;" horiz-adv-x="574" 
d="M196 -12q-76 0 -119 44t-43 113q0 67 29 133.5t77 119.5t110.5 85.5t130.5 32.5q75 0 118 -44t43 -113q0 -68 -29 -134t-77 -119t-110.5 -85.5t-129.5 -32.5zM232 25q36 0 73 23t67 66t49.5 103.5t19.5 134.5q0 66 -27.5 97t-68.5 31q-36 0 -73 -23.5t-67.5 -66t-50 -103
t-19.5 -134.5q0 -66 27.5 -97t69.5 -31zM399 596l-124 172l3 7h91l54 -179h-24z" />
    <glyph glyph-name="oacute" unicode="&#xf3;" horiz-adv-x="574" 
d="M196 -12q-76 0 -119 44t-43 113q0 67 29 133.5t77 119.5t110.5 85.5t130.5 32.5q75 0 118 -44t43 -113q0 -68 -29 -134t-77 -119t-110.5 -85.5t-129.5 -32.5zM232 25q36 0 73 23t67 66t49.5 103.5t19.5 134.5q0 66 -27.5 97t-68.5 31q-36 0 -73 -23.5t-67.5 -66t-50 -103
t-19.5 -134.5q0 -66 27.5 -97t69.5 -31zM523 775h107l-2 -7l-232 -172h-28z" />
    <glyph glyph-name="ocircumflex" unicode="&#xf4;" horiz-adv-x="574" 
d="M196 -12q-76 0 -119 44t-43 113q0 67 29 133.5t77 119.5t110.5 85.5t130.5 32.5q75 0 118 -44t43 -113q0 -68 -29 -134t-77 -119t-110.5 -85.5t-129.5 -32.5zM232 25q36 0 73 23t67 66t49.5 103.5t19.5 134.5q0 66 -27.5 97t-68.5 31q-36 0 -73 -23.5t-67.5 -66t-50 -103
t-19.5 -134.5q0 -66 27.5 -97t69.5 -31zM483 789h8l68 -193h-25l-70 107l-193 -107h-27z" />
    <glyph glyph-name="otilde" unicode="&#xf5;" horiz-adv-x="574" 
d="M196 -12q-76 0 -119 44t-43 113q0 67 29 133.5t77 119.5t110.5 85.5t130.5 32.5q75 0 118 -44t43 -113q0 -68 -29 -134t-77 -119t-110.5 -85.5t-129.5 -32.5zM232 25q36 0 73 23t67 66t49.5 103.5t19.5 134.5q0 66 -27.5 97t-68.5 31q-36 0 -73 -23.5t-67.5 -66t-50 -103
t-19.5 -134.5q0 -66 27.5 -97t69.5 -31zM519 629q-27 0 -45.5 11t-35 23.5t-33 23.5t-37.5 11q-24 0 -43 -14t-30 -48h-22q11 60 40 94.5t71 34.5q25 0 43 -10.5t33.5 -23.5t32 -23.5t39.5 -10.5t40 13.5t28 45.5h22q-14 -69 -42.5 -98t-60.5 -29z" />
    <glyph glyph-name="odieresis" unicode="&#xf6;" horiz-adv-x="574" 
d="M196 -12q-76 0 -119 44t-43 113q0 67 29 133.5t77 119.5t110.5 85.5t130.5 32.5q75 0 118 -44t43 -113q0 -68 -29 -134t-77 -119t-110.5 -85.5t-129.5 -32.5zM232 25q36 0 73 23t67 66t49.5 103.5t19.5 134.5q0 66 -27.5 97t-68.5 31q-36 0 -73 -23.5t-67.5 -66t-50 -103
t-19.5 -134.5q0 -66 27.5 -97t69.5 -31zM561 645q-24 0 -42.5 18.5t-18.5 43.5q0 24 18.5 42.5t42.5 18.5q25 0 43.5 -18.5t18.5 -42.5q0 -25 -18.5 -43.5t-43.5 -18.5zM330 645q-24 0 -42.5 18.5t-18.5 43.5q0 24 18.5 42.5t42.5 18.5q25 0 43.5 -18.5t18.5 -42.5
q0 -25 -18.5 -43.5t-43.5 -18.5z" />
    <glyph glyph-name="divide" unicode="&#xf7;" horiz-adv-x="657" 
d="M333 385q-26 0 -44 19t-18 46q0 26 18 44.5t44 18.5q28 0 46.5 -18.5t18.5 -44.5q0 -27 -18.5 -46t-46.5 -19zM72 285h523v-48h-523v48zM333 8q-26 0 -44 19t-18 46q0 26 18 44.5t44 18.5q28 0 46.5 -18.5t18.5 -44.5q0 -27 -18.5 -46t-46.5 -19z" />
    <glyph glyph-name="oslash" unicode="&#xf8;" horiz-adv-x="594" 
d="M206 -12q-76 0 -119 44t-43 113q0 67 29 133.5t77 119.5t110.5 85.5t130.5 32.5q75 0 118 -44t43 -113q0 -68 -29 -134t-77 -119t-110.5 -85.5t-129.5 -32.5zM242 25q36 0 73 23t67 66t49.5 103.5t19.5 134.5q0 66 -27.5 97t-68.5 31q-36 0 -73 -23.5t-67.5 -66t-50 -103
t-19.5 -134.5q0 -66 27.5 -97t69.5 -31zM645 535l-672 -589l-25 26l673 589z" />
    <glyph glyph-name="ugrave" unicode="&#xf9;" horiz-adv-x="597" 
d="M273 502l-123 -311q-17 -44 -24 -74t-4.5 -48.5t12.5 -27t27 -8.5q32 0 71 33t81 89q25 34 54 77.5t56.5 90t51.5 93t40 86.5h91l-193 -502h-89l131 331h-1q-32 -60 -66 -112t-65 -94q-53 -71 -100 -104t-99 -33q-70 0 -88 50.5t21 150.5l124 313h92zM417 596l-124 172
l3 7h91l54 -179h-24z" />
    <glyph glyph-name="uacute" unicode="&#xfa;" horiz-adv-x="597" 
d="M273 502l-123 -311q-17 -44 -24 -74t-4.5 -48.5t12.5 -27t27 -8.5q32 0 71 33t81 89q25 34 54 77.5t56.5 90t51.5 93t40 86.5h91l-193 -502h-89l131 331h-1q-32 -60 -66 -112t-65 -94q-53 -71 -100 -104t-99 -33q-70 0 -88 50.5t21 150.5l124 313h92zM541 775h107l-2 -7
l-232 -172h-28z" />
    <glyph glyph-name="ucircumflex" unicode="&#xfb;" horiz-adv-x="597" 
d="M273 502l-123 -311q-17 -44 -24 -74t-4.5 -48.5t12.5 -27t27 -8.5q32 0 71 33t81 89q25 34 54 77.5t56.5 90t51.5 93t40 86.5h91l-193 -502h-89l131 331h-1q-32 -60 -66 -112t-65 -94q-53 -71 -100 -104t-99 -33q-70 0 -88 50.5t21 150.5l124 313h92zM501 789h8l68 -193
h-25l-70 107l-193 -107h-27z" />
    <glyph glyph-name="udieresis" unicode="&#xfc;" horiz-adv-x="597" 
d="M273 502l-123 -311q-17 -44 -24 -74t-4.5 -48.5t12.5 -27t27 -8.5q32 0 71 33t81 89q25 34 54 77.5t56.5 90t51.5 93t40 86.5h91l-193 -502h-89l131 331h-1q-32 -60 -66 -112t-65 -94q-53 -71 -100 -104t-99 -33q-70 0 -88 50.5t21 150.5l124 313h92zM579 645
q-24 0 -42.5 18.5t-18.5 43.5q0 24 18.5 42.5t42.5 18.5q25 0 43.5 -18.5t18.5 -42.5q0 -25 -18.5 -43.5t-43.5 -18.5zM348 645q-24 0 -42.5 18.5t-18.5 43.5q0 24 18.5 42.5t42.5 18.5q25 0 43.5 -18.5t18.5 -42.5q0 -25 -18.5 -43.5t-43.5 -18.5z" />
    <glyph glyph-name="yacute" unicode="&#xfd;" horiz-adv-x="552" 
d="M135 18l-19 484h90l14 -393l368 393h60l-703 -750h-59zM525 775h107l-2 -7l-232 -172h-28z" />
    <glyph glyph-name="thorn" unicode="&#xfe;" horiz-adv-x="575" 
d="M240 426q18 20 39.5 36.5t45.5 28.5t48.5 18.5t47.5 6.5q66 0 100.5 -33.5t34.5 -94.5q0 -47 -17 -95t-48 -93t-74 -84.5t-94.5 -68t-110.5 -44.5t-122 -14l-81 -237h-91l353 1028h91zM357 464q-30 0 -62.5 -13t-59.5 -40l-138 -401q48 -1 93 14.5t85 43t73 63.5t57 75.5
t37 80t13 76.5q0 54 -26 77.5t-72 23.5z" />
    <glyph glyph-name="ydieresis" unicode="&#xff;" horiz-adv-x="552" 
d="M135 18l-19 484h90l14 -393l368 393h60l-703 -750h-59zM563 645q-24 0 -42.5 18.5t-18.5 43.5q0 24 18.5 42.5t42.5 18.5q25 0 43.5 -18.5t18.5 -42.5q0 -25 -18.5 -43.5t-43.5 -18.5zM332 645q-24 0 -42.5 18.5t-18.5 43.5q0 24 18.5 42.5t42.5 18.5q25 0 43.5 -18.5
t18.5 -42.5q0 -25 -18.5 -43.5t-43.5 -18.5z" />
    <glyph glyph-name="Abreve" unicode="&#x102;" horiz-adv-x="758" 
d="M531 764h82l33 -764h-97l-11 289h-322l-231 -289h-60zM536 336l-13 338l-270 -338h283zM578 830q-27 0 -52 8.5t-42 27t-23 48t4 72.5h36q-14 -63 9.5 -92t73.5 -29q48 0 87.5 27.5t59.5 93.5h38q-14 -47 -35 -77t-46.5 -47.5t-54 -24.5t-55.5 -7z" />
    <glyph glyph-name="Amacron" unicode="&#x100;" horiz-adv-x="758" 
d="M531 764h82l33 -764h-97l-11 289h-322l-231 -289h-60zM536 336l-13 338l-270 -338h283zM457 925h280l-14 -42h-281z" />
    <glyph glyph-name="Aogonek" unicode="&#x104;" horiz-adv-x="758" 
d="M531 764h82l33 -764h-97l-11 289h-322l-231 -289h-60zM536 336l-13 338l-270 -338h283zM498 -233q-36 0 -59.5 16.5t-23.5 48.5q0 24 18 47.5t45 45.5t58.5 41.5t58.5 33.5h25q-21 -16 -46 -33.5t-47 -36.5t-36.5 -39.5t-14.5 -41.5q0 -48 60 -48q19 0 37.5 5t33.5 11
l-4 -21q-20 -13 -49 -21t-56 -8z" />
    <glyph glyph-name="Cacute" unicode="&#x106;" horiz-adv-x="825" 
d="M420 -12q-67 0 -127.5 19.5t-106 58t-72 96t-26.5 134.5q0 100 44.5 187.5t118.5 152t168.5 101.5t195.5 37q75 0 138 -18t102 -47l-26 -183h-30l-14 125q-2 21 -17.5 36.5t-38.5 25t-52 14.5t-59 5q-80 0 -155.5 -32t-134 -91.5t-94.5 -144t-36 -188.5
q0 -67 19.5 -113.5t53 -76t78 -43t94.5 -13.5q57 0 102 10t74 46l122 151h30l-101 -200q-47 -24 -113 -36.5t-137 -12.5zM778 972h122l-1 -2l-246 -131h-25z" />
    <glyph glyph-name="Ccaron" unicode="&#x10c;" horiz-adv-x="825" 
d="M420 -12q-67 0 -127.5 19.5t-106 58t-72 96t-26.5 134.5q0 100 44.5 187.5t118.5 152t168.5 101.5t195.5 37q75 0 138 -18t102 -47l-26 -183h-30l-14 125q-2 21 -17.5 36.5t-38.5 25t-52 14.5t-59 5q-80 0 -155.5 -32t-134 -91.5t-94.5 -144t-36 -188.5
q0 -67 19.5 -113.5t53 -76t78 -43t94.5 -13.5q57 0 102 10t74 46l122 151h30l-101 -200q-47 -24 -113 -36.5t-137 -12.5zM558 982h26l74 -77l176 77h30l-216 -149h-10z" />
    <glyph glyph-name="Ccircumflex" unicode="&#x108;" horiz-adv-x="825" 
d="M420 -12q-67 0 -127.5 19.5t-106 58t-72 96t-26.5 134.5q0 100 44.5 187.5t118.5 152t168.5 101.5t195.5 37q75 0 138 -18t102 -47l-26 -183h-30l-14 125q-2 21 -17.5 36.5t-38.5 25t-52 14.5t-59 5q-80 0 -155.5 -32t-134 -91.5t-94.5 -144t-36 -188.5
q0 -67 19.5 -113.5t53 -76t78 -43t94.5 -13.5q57 0 102 10t74 46l122 151h30l-101 -200q-47 -24 -113 -36.5t-137 -12.5zM717 981h10l80 -148h-26l-74 77l-176 -77h-30z" />
    <glyph glyph-name="Cdotaccent" unicode="&#x10a;" horiz-adv-x="825" 
d="M420 -12q-67 0 -127.5 19.5t-106 58t-72 96t-26.5 134.5q0 100 44.5 187.5t118.5 152t168.5 101.5t195.5 37q75 0 138 -18t102 -47l-26 -183h-30l-14 125q-2 21 -17.5 36.5t-38.5 25t-52 14.5t-59 5q-80 0 -155.5 -32t-134 -91.5t-94.5 -144t-36 -188.5
q0 -67 19.5 -113.5t53 -76t78 -43t94.5 -13.5q57 0 102 10t74 46l122 151h30l-101 -200q-47 -24 -113 -36.5t-137 -12.5zM684 858q-24 0 -42.5 18.5t-18.5 43.5q0 24 18.5 42.5t42.5 18.5q25 0 43.5 -18.5t18.5 -42.5q0 -25 -18.5 -43.5t-43.5 -18.5z" />
    <glyph glyph-name="Dcaron" unicode="&#x10e;" horiz-adv-x="849" 
d="M36 0l232 758h196q85 0 155.5 -16.5t121.5 -50t79 -84t28 -117.5q0 -95 -43.5 -183.5t-122 -156.5t-189 -109t-244.5 -41h-213zM257 44q108 0 197 36.5t152 98.5t98 143.5t35 170.5q0 60 -20 102t-56.5 68.5t-87 38.5t-111.5 12h-113l-204 -670h110zM506 982h26l74 -77
l176 77h30l-216 -149h-10z" />
    <glyph glyph-name="Dcroat" unicode="&#x110;" horiz-adv-x="849" 
d="M36 0l232 758h196q85 0 155.5 -16.5t121.5 -50t79 -84t28 -117.5q0 -95 -43.5 -183.5t-122 -156.5t-189 -109t-244.5 -41h-213zM257 44q108 0 197 36.5t152 98.5t98 143.5t35 170.5q0 60 -20 102t-56.5 68.5t-87 38.5t-111.5 12h-113l-204 -670h110zM69 419h377l-15 -47
h-377z" />
    <glyph glyph-name="Ebreve" unicode="&#x114;" horiz-adv-x="668" 
d="M268 758h500l-15 -47h-403l-89 -292h345l-14 -47h-345l-99 -325h402l-14 -47h-500zM552 830q-27 0 -52 8.5t-42 27t-23 48t4 72.5h36q-14 -63 9.5 -92t73.5 -29q48 0 87.5 27.5t59.5 93.5h38q-14 -47 -35 -77t-46.5 -47.5t-54 -24.5t-55.5 -7z" />
    <glyph glyph-name="Ecaron" unicode="&#x11a;" horiz-adv-x="668" 
d="M268 758h500l-15 -47h-403l-89 -292h345l-14 -47h-345l-99 -325h402l-14 -47h-500zM444 982h26l74 -77l176 77h30l-216 -149h-10z" />
    <glyph glyph-name="Emacron" unicode="&#x112;" horiz-adv-x="668" 
d="M268 758h500l-15 -47h-403l-89 -292h345l-14 -47h-345l-99 -325h402l-14 -47h-500zM431 925h280l-14 -42h-281z" />
    <glyph glyph-name="Eogonek" unicode="&#x118;" horiz-adv-x="668" 
d="M268 758h500l-15 -47h-403l-89 -292h345l-14 -47h-345l-99 -325h402l-14 -47h-500zM414 -233q-36 0 -59.5 16.5t-23.5 48.5q0 24 18 47.5t45 45.5t58.5 41.5t58.5 33.5h25q-21 -16 -46 -33.5t-47 -36.5t-36.5 -39.5t-14.5 -41.5q0 -48 60 -48q19 0 37.5 5t33.5 11l-4 -21
q-20 -13 -49 -21t-56 -8z" />
    <glyph glyph-name="Edotaccent" unicode="&#x116;" horiz-adv-x="668" 
d="M268 758h500l-15 -47h-403l-89 -292h345l-14 -47h-345l-99 -325h402l-14 -47h-500zM570 858q-24 0 -42.5 18.5t-18.5 43.5q0 24 18.5 42.5t42.5 18.5q25 0 43.5 -18.5t18.5 -42.5q0 -25 -18.5 -43.5t-43.5 -18.5z" />
    <glyph glyph-name="Gbreve" unicode="&#x11e;" horiz-adv-x="846" 
d="M198 276q0 -64 17.5 -110t48.5 -76t74.5 -44t94.5 -14q47 0 95 9t90 26l97 259h-211l15 47h310l-121 -329q-62 -23 -133 -39.5t-150 -16.5q-68 0 -129 19.5t-107.5 58t-73.5 96t-27 134.5q0 100 44.5 187.5t118.5 152t168.5 101.5t195.5 37q75 0 138 -18t102 -47
l-26 -183h-30l-14 125q-2 21 -17.5 36.5t-38.5 25t-52 14.5t-59 5q-80 0 -155.5 -32t-134 -91.5t-94.5 -144t-36 -188.5zM658 830q-27 0 -52 8.5t-42 27t-23 48t4 72.5h36q-14 -63 9.5 -92t73.5 -29q48 0 87.5 27.5t59.5 93.5h38q-14 -47 -35 -77t-46.5 -47.5t-54 -24.5
t-55.5 -7z" />
    <glyph glyph-name="Gcircumflex" unicode="&#x11c;" horiz-adv-x="846" 
d="M198 276q0 -64 17.5 -110t48.5 -76t74.5 -44t94.5 -14q47 0 95 9t90 26l97 259h-211l15 47h310l-121 -329q-62 -23 -133 -39.5t-150 -16.5q-68 0 -129 19.5t-107.5 58t-73.5 96t-27 134.5q0 100 44.5 187.5t118.5 152t168.5 101.5t195.5 37q75 0 138 -18t102 -47
l-26 -183h-30l-14 125q-2 21 -17.5 36.5t-38.5 25t-52 14.5t-59 5q-80 0 -155.5 -32t-134 -91.5t-94.5 -144t-36 -188.5zM709 981h10l80 -148h-26l-74 77l-176 -77h-30z" />
    <glyph glyph-name="uni0122" unicode="&#x122;" horiz-adv-x="846" 
d="M198 276q0 -64 17.5 -110t48.5 -76t74.5 -44t94.5 -14q47 0 95 9t90 26l97 259h-211l15 47h310l-121 -329q-62 -23 -133 -39.5t-150 -16.5q-68 0 -129 19.5t-107.5 58t-73.5 96t-27 134.5q0 100 44.5 187.5t118.5 152t168.5 101.5t195.5 37q75 0 138 -18t102 -47
l-26 -183h-30l-14 125q-2 21 -17.5 36.5t-38.5 25t-52 14.5t-59 5q-80 0 -155.5 -32t-134 -91.5t-94.5 -144t-36 -188.5zM209 -319q66 39 100.5 75.5t34.5 66.5q0 19 -12 30.5t-32 16.5q0 24 14 39.5t37 15.5q27 1 45.5 -16.5t18.5 -46.5q0 -45 -52 -98t-143 -104z" />
    <glyph glyph-name="Gdotaccent" unicode="&#x120;" horiz-adv-x="846" 
d="M198 276q0 -64 17.5 -110t48.5 -76t74.5 -44t94.5 -14q47 0 95 9t90 26l97 259h-211l15 47h310l-121 -329q-62 -23 -133 -39.5t-150 -16.5q-68 0 -129 19.5t-107.5 58t-73.5 96t-27 134.5q0 100 44.5 187.5t118.5 152t168.5 101.5t195.5 37q75 0 138 -18t102 -47
l-26 -183h-30l-14 125q-2 21 -17.5 36.5t-38.5 25t-52 14.5t-59 5q-80 0 -155.5 -32t-134 -91.5t-94.5 -144t-36 -188.5zM676 858q-24 0 -42.5 18.5t-18.5 43.5q0 24 18.5 42.5t42.5 18.5q25 0 43.5 -18.5t18.5 -42.5q0 -25 -18.5 -43.5t-43.5 -18.5z" />
    <glyph glyph-name="Hbar" unicode="&#x126;" horiz-adv-x="863" 
d="M268 758h97l-104 -339h444l104 339h97l-232 -758h-97l114 372h-444l-114 -372h-97zM138 602h802l-15 -47h-802z" />
    <glyph glyph-name="Hcircumflex" unicode="&#x124;" horiz-adv-x="863" 
d="M268 758h97l-104 -339h444l104 339h97l-232 -758h-97l114 372h-444l-114 -372h-97zM676 981h10l80 -148h-26l-74 77l-176 -77h-30z" />
    <glyph glyph-name="Ibreve" unicode="&#x12c;" horiz-adv-x="322" 
d="M268 758h97l-232 -758h-97zM343 830q-27 0 -52 8.5t-42 27t-23 48t4 72.5h36q-14 -63 9.5 -92t73.5 -29q48 0 87.5 27.5t59.5 93.5h38q-14 -47 -35 -77t-46.5 -47.5t-54 -24.5t-55.5 -7z" />
    <glyph glyph-name="Idotaccent" unicode="&#x130;" horiz-adv-x="322" 
d="M268 758h97l-232 -758h-97zM361 858q-24 0 -42.5 18.5t-18.5 43.5q0 24 18.5 42.5t42.5 18.5q25 0 43.5 -18.5t18.5 -42.5q0 -25 -18.5 -43.5t-43.5 -18.5z" />
    <glyph glyph-name="Imacron" unicode="&#x12a;" horiz-adv-x="322" 
d="M268 758h97l-232 -758h-97zM222 925h280l-14 -42h-281z" />
    <glyph glyph-name="Iogonek" unicode="&#x12e;" horiz-adv-x="322" 
d="M268 758h97l-232 -758h-97zM-4 -233q-36 0 -59.5 16.5t-23.5 48.5q0 24 18 47.5t45 45.5t58.5 41.5t58.5 33.5h25q-21 -16 -46 -33.5t-47 -36.5t-36.5 -39.5t-14.5 -41.5q0 -48 60 -48q19 0 37.5 5t33.5 11l-4 -21q-20 -13 -49 -21t-56 -8z" />
    <glyph glyph-name="Itilde" unicode="&#x128;" horiz-adv-x="322" 
d="M268 758h97l-232 -758h-97zM427 833q-27 0 -45.5 11t-35 23.5t-33 23.5t-37.5 11q-24 0 -43 -14t-30 -48h-22q11 60 40 94.5t71 34.5q25 0 43 -10.5t33.5 -23.5t32 -23.5t39.5 -10.5t40 13.5t28 45.5h22q-14 -69 -42.5 -98t-60.5 -29z" />
    <glyph glyph-name="uni1ECA" unicode="&#x1eca;" horiz-adv-x="322" 
d="M268 758h97l-232 -758h-97zM26 -232q-24 0 -42.5 18.5t-18.5 43.5q0 24 18.5 42.5t42.5 18.5q25 0 43.5 -18.5t18.5 -42.5q0 -25 -18.5 -43.5t-43.5 -18.5z" />
    <glyph glyph-name="Jcircumflex" unicode="&#x134;" horiz-adv-x="327" 
d="M-139 -116q49 33 85 57.5t62 50.5t44.5 59t33.5 83l191 624h97l-188 -615q-12 -41 -27.5 -70t-37 -52t-50 -44t-66.5 -45q-24 -15 -59 -34t-72 -39zM415 981h10l80 -148h-26l-74 77l-176 -77h-30z" />
    <glyph glyph-name="uni0136" unicode="&#x136;" horiz-adv-x="760" 
d="M268 758h97l-113 -370l10 6l555 364h79l-543 -356l341 -402h-117l-327 381l-117 -381h-97zM160 -319q66 39 100.5 75.5t34.5 66.5q0 19 -12 30.5t-32 16.5q0 24 14 39.5t37 15.5q27 1 45.5 -16.5t18.5 -46.5q0 -45 -52 -98t-143 -104z" />
    <glyph glyph-name="Lacute" unicode="&#x139;" horiz-adv-x="621" 
d="M268 758h97l-217 -711h397l-15 -47h-494zM467 972h122l-1 -2l-246 -131h-25z" />
    <glyph glyph-name="Lcaron" unicode="&#x13d;" horiz-adv-x="621" 
d="M268 758h97l-217 -711h397l-15 -47h-494zM385 523q66 39 100.5 75.5t34.5 66.5q0 18 -12 30t-32 17q0 24 14 39t37 16q27 0 45.5 -17t18.5 -46q0 -45 -52 -98.5t-143 -104.5z" />
    <glyph glyph-name="uni013B" unicode="&#x13b;" horiz-adv-x="621" 
d="M268 758h97l-217 -711h397l-15 -47h-494zM120 -319q66 39 100.5 75.5t34.5 66.5q0 19 -12 30.5t-32 16.5q0 24 14 39.5t37 15.5q27 1 45.5 -16.5t18.5 -46.5q0 -45 -52 -98t-143 -104z" />
    <glyph glyph-name="Ldot" unicode="&#x13f;" horiz-adv-x="621" 
d="M268 758h97l-217 -711h397l-15 -47h-494zM528 356q-24 0 -42.5 18.5t-18.5 43.5q0 24 18.5 42.5t42.5 18.5q25 0 43.5 -18.5t18.5 -42.5q0 -25 -18.5 -43.5t-43.5 -18.5z" />
    <glyph glyph-name="glyph223" horiz-adv-x="621" 
d="M268 758h97l-217 -711h397l-15 -47h-494zM528 356q-24 0 -42.5 18.5t-18.5 43.5q0 24 18.5 42.5t42.5 18.5q25 0 43.5 -18.5t18.5 -42.5q0 -25 -18.5 -43.5t-43.5 -18.5z" />
    <glyph glyph-name="Lslash" unicode="&#x141;" horiz-adv-x="621" 
d="M268 758h97l-217 -711h397l-15 -47h-494zM1 313l428 227l-15 -58l-428 -227z" />
    <glyph glyph-name="Eng" unicode="&#x14a;" horiz-adv-x="855" 
d="M507 -179q-9 -5 -28 -15.5t-41 -22.5l-44 -24t-38 -19l-10 21q47 29 82.5 51.5t63.5 49t49 63.5t40 95l8 25l-308 587l-193 -632h-52l232 758h52l333 -630l193 630h52l-223 -730q-14 -47 -29.5 -78t-35 -53t-45 -39.5t-58.5 -36.5z" />
    <glyph glyph-name="Nacute" unicode="&#x143;" horiz-adv-x="855" 
d="M653 128l193 630h52l-232 -758h-51l-334 633l-193 -633h-52l232 758h52zM730 972h122l-1 -2l-246 -131h-25z" />
    <glyph glyph-name="Ncaron" unicode="&#x147;" horiz-adv-x="855" 
d="M653 128l193 630h52l-232 -758h-51l-334 633l-193 -633h-52l232 758h52zM510 982h26l74 -77l176 77h30l-216 -149h-10z" />
    <glyph glyph-name="uni0145" unicode="&#x145;" horiz-adv-x="855" 
d="M653 128l193 630h52l-232 -758h-51l-334 633l-193 -633h-52l232 758h52zM181 -319q66 39 100.5 75.5t34.5 66.5q0 19 -12 30.5t-32 16.5q0 24 14 39.5t37 15.5q27 1 45.5 -16.5t18.5 -46.5q0 -45 -52 -98t-143 -104z" />
    <glyph glyph-name="OE" unicode="&#x152;" horiz-adv-x="1282" 
d="M1164 47l-14 -47h-495l34 112q-62 -56 -140 -90t-172 -34q-61 0 -115 18t-94 53t-63.5 87t-23.5 120q0 56 17 115.5t49 116t77.5 107t102.5 88t125 59.5t144 22q88 0 154 -36t98 -107l39 127h495l-15 -47h-403l-89 -292h345l-14 -47h-345l-99 -325h402zM579 734
q-80 0 -150.5 -39t-123 -104t-83.5 -149t-31 -173q0 -53 13.5 -97.5t39 -76.5t63.5 -49.5t87 -17.5q79 0 150 39.5t124 104.5t84 148.5t31 172.5q0 54 -13.5 98t-39.5 76t-64 49.5t-87 17.5z" />
    <glyph glyph-name="Obreve" unicode="&#x14e;" horiz-adv-x="891" 
d="M377 -12q-61 0 -115 18t-94 53t-63.5 87t-23.5 120q0 56 17 115.5t49 116t77.5 107t102.5 88t125 59.5t144 22q61 0 115 -18t94.5 -53t63.5 -86.5t23 -119.5q0 -56 -17 -115.5t-48.5 -116.5t-77 -107t-103 -88t-125.5 -60t-144 -22zM394 28q79 0 150 39.5t123.5 104.5
t83.5 148.5t31 172.5q0 54 -13.5 98t-39 76t-63.5 49.5t-87 17.5q-80 0 -150 -39t-123 -104t-83.5 -149t-30.5 -173q0 -53 13 -97.5t38.5 -76.5t63.5 -49.5t87 -17.5zM647 830q-27 0 -52 8.5t-42 27t-23 48t4 72.5h36q-14 -63 9.5 -92t73.5 -29q48 0 87.5 27.5t59.5 93.5h38
q-14 -47 -35 -77t-46.5 -47.5t-54 -24.5t-55.5 -7z" />
    <glyph glyph-name="Ohungarumlaut" unicode="&#x150;" horiz-adv-x="891" 
d="M377 -12q-61 0 -115 18t-94 53t-63.5 87t-23.5 120q0 56 17 115.5t49 116t77.5 107t102.5 88t125 59.5t144 22q61 0 115 -18t94.5 -53t63.5 -86.5t23 -119.5q0 -56 -17 -115.5t-48.5 -116.5t-77 -107t-103 -88t-125.5 -60t-144 -22zM394 28q79 0 150 39.5t123.5 104.5
t83.5 148.5t31 172.5q0 54 -13.5 98t-39 76t-63.5 49.5t-87 17.5q-80 0 -150 -39t-123 -104t-83.5 -149t-30.5 -173q0 -53 13 -97.5t38.5 -76.5t63.5 -49.5t87 -17.5zM663 972h122l-1 -2l-246 -131h-25zM866 972h122l-1 -2l-246 -131h-25z" />
    <glyph glyph-name="Omacron" unicode="&#x14c;" horiz-adv-x="891" 
d="M377 -12q-61 0 -115 18t-94 53t-63.5 87t-23.5 120q0 56 17 115.5t49 116t77.5 107t102.5 88t125 59.5t144 22q61 0 115 -18t94.5 -53t63.5 -86.5t23 -119.5q0 -56 -17 -115.5t-48.5 -116.5t-77 -107t-103 -88t-125.5 -60t-144 -22zM394 28q79 0 150 39.5t123.5 104.5
t83.5 148.5t31 172.5q0 54 -13.5 98t-39 76t-63.5 49.5t-87 17.5q-80 0 -150 -39t-123 -104t-83.5 -149t-30.5 -173q0 -53 13 -97.5t38.5 -76.5t63.5 -49.5t87 -17.5zM526 925h280l-14 -42h-281z" />
    <glyph glyph-name="uni1ECC" unicode="&#x1ecc;" horiz-adv-x="891" 
d="M377 -12q-61 0 -115 18t-94 53t-63.5 87t-23.5 120q0 56 17 115.5t49 116t77.5 107t102.5 88t125 59.5t144 22q61 0 115 -18t94.5 -53t63.5 -86.5t23 -119.5q0 -56 -17 -115.5t-48.5 -116.5t-77 -107t-103 -88t-125.5 -60t-144 -22zM394 28q79 0 150 39.5t123.5 104.5
t83.5 148.5t31 172.5q0 54 -13.5 98t-39 76t-63.5 49.5t-87 17.5q-80 0 -150 -39t-123 -104t-83.5 -149t-30.5 -173q0 -53 13 -97.5t38.5 -76.5t63.5 -49.5t87 -17.5zM321 -232q-24 0 -42.5 18.5t-18.5 43.5q0 24 18.5 42.5t42.5 18.5q25 0 43.5 -18.5t18.5 -42.5
q0 -25 -18.5 -43.5t-43.5 -18.5z" />
    <glyph glyph-name="Racute" unicode="&#x154;" horiz-adv-x="743" 
d="M268 758h205q59 0 108 -8.5t83.5 -27t53.5 -47t19 -68.5t-16 -78.5t-51.5 -70t-92.5 -53t-139 -28.5l256 -377h-117l-244 364h-88l-112 -364h-97zM364 408q71 0 121.5 16t82.5 43t46.5 62t14.5 74q0 60 -46.5 85.5t-130.5 25.5h-100l-93 -306h105zM667 972h122l-1 -2
l-246 -131h-25z" />
    <glyph glyph-name="Rcaron" unicode="&#x158;" horiz-adv-x="743" 
d="M268 758h205q59 0 108 -8.5t83.5 -27t53.5 -47t19 -68.5t-16 -78.5t-51.5 -70t-92.5 -53t-139 -28.5l256 -377h-117l-244 364h-88l-112 -364h-97zM364 408q71 0 121.5 16t82.5 43t46.5 62t14.5 74q0 60 -46.5 85.5t-130.5 25.5h-100l-93 -306h105zM447 982h26l74 -77
l176 77h30l-216 -149h-10z" />
    <glyph glyph-name="uni0156" unicode="&#x156;" horiz-adv-x="743" 
d="M268 758h205q59 0 108 -8.5t83.5 -27t53.5 -47t19 -68.5t-16 -78.5t-51.5 -70t-92.5 -53t-139 -28.5l256 -377h-117l-244 364h-88l-112 -364h-97zM364 408q71 0 121.5 16t82.5 43t46.5 62t14.5 74q0 60 -46.5 85.5t-130.5 25.5h-100l-93 -306h105zM196 -319
q66 39 100.5 75.5t34.5 66.5q0 19 -12 30.5t-32 16.5q0 24 14 39.5t37 15.5q27 1 45.5 -16.5t18.5 -46.5q0 -45 -52 -98t-143 -104z" />
    <glyph glyph-name="Sacute" unicode="&#x15a;" horiz-adv-x="624" 
d="M215 -12q-57 0 -114 14t-102 42l59 203h26l-2 -141q0 -19 3 -30t16 -19q21 -14 54.5 -21t68.5 -7q49 0 89 10.5t68.5 30t43.5 47t15 60.5q0 42 -26 85t-71 90l-41 43q-37 39 -63 83t-26 95q0 45 22.5 82t62.5 63.5t93 41t115 14.5q54 0 100 -12.5t79 -36.5l-39 -186h-28
l-8 125q-1 31 -16 43q-17 13 -44.5 19.5t-59.5 6.5q-41 0 -75 -9t-59 -25.5t-38.5 -40t-13.5 -52.5q0 -35 21.5 -70.5t55.5 -72.5l42 -45q55 -59 80.5 -105.5t25.5 -94.5q0 -51 -22.5 -93.5t-64 -72.5t-99.5 -47t-128 -17zM660 972h122l-1 -2l-246 -131h-25z" />
    <glyph glyph-name="Scaron" unicode="&#x160;" horiz-adv-x="624" 
d="M215 -12q-57 0 -114 14t-102 42l59 203h26l-2 -141q0 -19 3 -30t16 -19q21 -14 54.5 -21t68.5 -7q49 0 89 10.5t68.5 30t43.5 47t15 60.5q0 42 -26 85t-71 90l-41 43q-37 39 -63 83t-26 95q0 45 22.5 82t62.5 63.5t93 41t115 14.5q54 0 100 -12.5t79 -36.5l-39 -186h-28
l-8 125q-1 31 -16 43q-17 13 -44.5 19.5t-59.5 6.5q-41 0 -75 -9t-59 -25.5t-38.5 -40t-13.5 -52.5q0 -35 21.5 -70.5t55.5 -72.5l42 -45q55 -59 80.5 -105.5t25.5 -94.5q0 -51 -22.5 -93.5t-64 -72.5t-99.5 -47t-128 -17zM440 982h26l74 -77l176 77h30l-216 -149h-10z" />
    <glyph glyph-name="Scedilla" unicode="&#x15e;" horiz-adv-x="624" 
d="M215 -12q-57 0 -114 14t-102 42l59 203h26l-2 -141q0 -19 3 -30t16 -19q21 -14 54.5 -21t68.5 -7q49 0 89 10.5t68.5 30t43.5 47t15 60.5q0 42 -26 85t-71 90l-41 43q-37 39 -63 83t-26 95q0 45 22.5 82t62.5 63.5t93 41t115 14.5q54 0 100 -12.5t79 -36.5l-39 -186h-28
l-8 125q-1 31 -16 43q-17 13 -44.5 19.5t-59.5 6.5q-41 0 -75 -9t-59 -25.5t-38.5 -40t-13.5 -52.5q0 -35 21.5 -70.5t55.5 -72.5l42 -45q55 -59 80.5 -105.5t25.5 -94.5q0 -51 -22.5 -93.5t-64 -72.5t-99.5 -47t-128 -17zM141 -257q-24 0 -43 6t-32.5 15.5t-20.5 21
t-7 23.5q0 16 12.5 23t28.5 -1q-2 -33 19.5 -49.5t51.5 -16.5q56 0 56 40q0 21 -24.5 41.5t-59.5 44.5l136 109h35l-109 -86q26 -19 45 -39.5t19 -45.5q0 -39 -29.5 -62.5t-77.5 -23.5z" />
    <glyph glyph-name="Scircumflex" unicode="&#x15c;" horiz-adv-x="624" 
d="M215 -12q-57 0 -114 14t-102 42l59 203h26l-2 -141q0 -19 3 -30t16 -19q21 -14 54.5 -21t68.5 -7q49 0 89 10.5t68.5 30t43.5 47t15 60.5q0 42 -26 85t-71 90l-41 43q-37 39 -63 83t-26 95q0 45 22.5 82t62.5 63.5t93 41t115 14.5q54 0 100 -12.5t79 -36.5l-39 -186h-28
l-8 125q-1 31 -16 43q-17 13 -44.5 19.5t-59.5 6.5q-41 0 -75 -9t-59 -25.5t-38.5 -40t-13.5 -52.5q0 -35 21.5 -70.5t55.5 -72.5l42 -45q55 -59 80.5 -105.5t25.5 -94.5q0 -51 -22.5 -93.5t-64 -72.5t-99.5 -47t-128 -17zM599 981h10l80 -148h-26l-74 77l-176 -77h-30z" />
    <glyph glyph-name="uni0218" unicode="&#x218;" horiz-adv-x="624" 
d="M215 -12q-57 0 -114 14t-102 42l59 203h26l-2 -141q0 -19 3 -30t16 -19q21 -14 54.5 -21t68.5 -7q49 0 89 10.5t68.5 30t43.5 47t15 60.5q0 42 -26 85t-71 90l-41 43q-37 39 -63 83t-26 95q0 45 22.5 82t62.5 63.5t93 41t115 14.5q54 0 100 -12.5t79 -36.5l-39 -186h-28
l-8 125q-1 31 -16 43q-17 13 -44.5 19.5t-59.5 6.5q-41 0 -75 -9t-59 -25.5t-38.5 -40t-13.5 -52.5q0 -35 21.5 -70.5t55.5 -72.5l42 -45q55 -59 80.5 -105.5t25.5 -94.5q0 -51 -22.5 -93.5t-64 -72.5t-99.5 -47t-128 -17zM53 -319q66 39 100.5 75.5t34.5 66.5
q0 19 -12 30.5t-32 16.5q0 24 14 39.5t37 15.5q27 1 45.5 -16.5t18.5 -46.5q0 -45 -52 -98t-143 -104z" />
    <glyph glyph-name="Tbar" unicode="&#x166;" horiz-adv-x="704" 
d="M442 711h-290l15 47h677l-15 -47h-290l-217 -711h-97zM174 420h456l-15 -47h-456z" />
    <glyph glyph-name="Tcaron" unicode="&#x164;" horiz-adv-x="704" 
d="M442 711h-290l15 47h677l-15 -47h-290l-217 -711h-97zM435 982h26l74 -77l176 77h30l-216 -149h-10z" />
    <glyph glyph-name="uni0162" unicode="&#x162;" horiz-adv-x="704" 
d="M442 711h-290l15 47h677l-15 -47h-290l-217 -711h-97zM87 -319q66 39 100.5 75.5t34.5 66.5q0 19 -12 30.5t-32 16.5q0 24 14 39.5t37 15.5q27 1 45.5 -16.5t18.5 -46.5q0 -45 -52 -98t-143 -104z" />
    <glyph glyph-name="uni021A" unicode="&#x21a;" horiz-adv-x="704" 
d="M442 711h-290l15 47h677l-15 -47h-290l-217 -711h-97zM87 -319q66 39 100.5 75.5t34.5 66.5q0 19 -12 30.5t-32 16.5q0 24 14 39.5t37 15.5q27 1 45.5 -16.5t18.5 -46.5q0 -45 -52 -98t-143 -104z" />
    <glyph glyph-name="Ubreve" unicode="&#x16c;" horiz-adv-x="833" 
d="M345 -12q-75 0 -129 18t-84 55.5t-34.5 95.5t19.5 137l142 464h97l-143 -465q-41 -133 -1.5 -194.5t162.5 -61.5q66 0 117.5 18.5t90.5 53t67 84t47 111.5l139 454h52l-142 -463q-47 -155 -143.5 -231t-256.5 -76zM607 830q-27 0 -52 8.5t-42 27t-23 48t4 72.5h36
q-14 -63 9.5 -92t73.5 -29q48 0 87.5 27.5t59.5 93.5h38q-14 -47 -35 -77t-46.5 -47.5t-54 -24.5t-55.5 -7z" />
    <glyph glyph-name="Uhungarumlaut" unicode="&#x170;" horiz-adv-x="833" 
d="M345 -12q-75 0 -129 18t-84 55.5t-34.5 95.5t19.5 137l142 464h97l-143 -465q-41 -133 -1.5 -194.5t162.5 -61.5q66 0 117.5 18.5t90.5 53t67 84t47 111.5l139 454h52l-142 -463q-47 -155 -143.5 -231t-256.5 -76zM623 972h122l-1 -2l-246 -131h-25zM826 972h122l-1 -2
l-246 -131h-25z" />
    <glyph glyph-name="Umacron" unicode="&#x16a;" horiz-adv-x="833" 
d="M345 -12q-75 0 -129 18t-84 55.5t-34.5 95.5t19.5 137l142 464h97l-143 -465q-41 -133 -1.5 -194.5t162.5 -61.5q66 0 117.5 18.5t90.5 53t67 84t47 111.5l139 454h52l-142 -463q-47 -155 -143.5 -231t-256.5 -76zM486 925h280l-14 -42h-281z" />
    <glyph glyph-name="Uogonek" unicode="&#x172;" horiz-adv-x="833" 
d="M345 -12q-75 0 -129 18t-84 55.5t-34.5 95.5t19.5 137l142 464h97l-143 -465q-41 -133 -1.5 -194.5t162.5 -61.5q66 0 117.5 18.5t90.5 53t67 84t47 111.5l139 454h52l-142 -463q-43 -140 -123.5 -214.5t-211.5 -88.5q-21 -15 -43.5 -32t-41.5 -35t-31.5 -37t-12.5 -39
q0 -48 60 -48q19 0 37.5 5t33.5 11l-4 -21q-20 -13 -49 -21t-56 -8q-36 0 -59.5 16.5t-23.5 48.5q0 21 15 43t38 42.5t51.5 38.5t54.5 33q-8 0 -17 -0.5t-17 -0.5z" />
    <glyph glyph-name="Uring" unicode="&#x16e;" horiz-adv-x="833" 
d="M345 -12q-75 0 -129 18t-84 55.5t-34.5 95.5t19.5 137l142 464h97l-143 -465q-41 -133 -1.5 -194.5t162.5 -61.5q66 0 117.5 18.5t90.5 53t67 84t47 111.5l139 454h52l-142 -463q-47 -155 -143.5 -231t-256.5 -76zM634 835q-24 0 -44.5 8.5t-36.5 23.5t-25 35.5t-9 43.5
t9 43.5t25 35.5t36.5 23.5t44.5 8.5t45.5 -8.5t37 -23.5t24.5 -35.5t9 -43.5t-9 -43.5t-24.5 -35.5t-37 -23.5t-45.5 -8.5zM634 870q34 0 55 21t21 55q0 33 -21 54t-55 21q-33 0 -54.5 -21t-21.5 -54q0 -34 21.5 -55t54.5 -21z" />
    <glyph glyph-name="Utilde" unicode="&#x168;" horiz-adv-x="833" 
d="M345 -12q-75 0 -129 18t-84 55.5t-34.5 95.5t19.5 137l142 464h97l-143 -465q-41 -133 -1.5 -194.5t162.5 -61.5q66 0 117.5 18.5t90.5 53t67 84t47 111.5l139 454h52l-142 -463q-47 -155 -143.5 -231t-256.5 -76zM691 833q-27 0 -45.5 11t-35 23.5t-33 23.5t-37.5 11
q-24 0 -43 -14t-30 -48h-22q11 60 40 94.5t71 34.5q25 0 43 -10.5t33.5 -23.5t32 -23.5t39.5 -10.5t40 13.5t28 45.5h22q-14 -69 -42.5 -98t-60.5 -29z" />
    <glyph glyph-name="uni1EE4" unicode="&#x1ee4;" horiz-adv-x="833" 
d="M345 -12q-75 0 -129 18t-84 55.5t-34.5 95.5t19.5 137l142 464h97l-143 -465q-41 -133 -1.5 -194.5t162.5 -61.5q66 0 117.5 18.5t90.5 53t67 84t47 111.5l139 454h52l-142 -463q-47 -155 -143.5 -231t-256.5 -76zM302 -232q-24 0 -42.5 18.5t-18.5 43.5q0 24 18.5 42.5
t42.5 18.5q25 0 43.5 -18.5t18.5 -42.5q0 -25 -18.5 -43.5t-43.5 -18.5z" />
    <glyph glyph-name="Wacute" unicode="&#x1e82;" horiz-adv-x="1129" 
d="M205 758h95l-25 -622l458 622h48l-15 -622l438 622h62l-538 -764h-53l11 612l-456 -612h-54zM885 972h122l-1 -2l-246 -131h-25z" />
    <glyph glyph-name="Wcircumflex" unicode="&#x174;" horiz-adv-x="1129" 
d="M205 758h95l-25 -622l458 622h48l-15 -622l438 622h62l-538 -764h-53l11 612l-456 -612h-54zM824 981h10l80 -148h-26l-74 77l-176 -77h-30z" />
    <glyph glyph-name="Wdieresis" unicode="&#x1e84;" horiz-adv-x="1129" 
d="M205 758h95l-25 -622l458 622h48l-15 -622l438 622h62l-538 -764h-53l11 612l-456 -612h-54zM906 858q-24 0 -42.5 18.5t-18.5 43.5q0 24 18.5 42.5t42.5 18.5q25 0 43.5 -18.5t18.5 -42.5q0 -25 -18.5 -43.5t-43.5 -18.5zM675 858q-24 0 -42.5 18.5t-18.5 43.5
q0 24 18.5 42.5t42.5 18.5q25 0 43.5 -18.5t18.5 -42.5q0 -25 -18.5 -43.5t-43.5 -18.5z" />
    <glyph glyph-name="Wgrave" unicode="&#x1e80;" horiz-adv-x="1129" 
d="M205 758h95l-25 -622l458 622h48l-15 -622l438 622h62l-538 -764h-53l11 612l-456 -612h-54zM786 839l-159 131l1 2h108l75 -133h-25z" />
    <glyph glyph-name="Ycircumflex" unicode="&#x176;" horiz-adv-x="772" 
d="M322 0h-98l129 342l-161 416h104l140 -366l417 366h68l-471 -416zM651 981h10l80 -148h-26l-74 77l-176 -77h-30z" />
    <glyph glyph-name="Ydieresis" unicode="&#x178;" horiz-adv-x="772" 
d="M322 0h-98l129 342l-161 416h104l140 -366l417 366h68l-471 -416zM733 858q-24 0 -42.5 18.5t-18.5 43.5q0 24 18.5 42.5t42.5 18.5q25 0 43.5 -18.5t18.5 -42.5q0 -25 -18.5 -43.5t-43.5 -18.5zM502 858q-24 0 -42.5 18.5t-18.5 43.5q0 24 18.5 42.5t42.5 18.5
q25 0 43.5 -18.5t18.5 -42.5q0 -25 -18.5 -43.5t-43.5 -18.5z" />
    <glyph glyph-name="Ygrave" unicode="&#x1ef2;" horiz-adv-x="772" 
d="M322 0h-98l129 342l-161 416h104l140 -366l417 366h68l-471 -416zM613 839l-159 131l1 2h108l75 -133h-25z" />
    <glyph glyph-name="uni0232" unicode="&#x232;" horiz-adv-x="772" 
d="M322 0h-98l129 342l-161 416h104l140 -366l417 366h68l-471 -416zM479 925h280l-14 -42h-281z" />
    <glyph glyph-name="Zacute" unicode="&#x179;" horiz-adv-x="698" 
d="M-54 44l756 667h-447l15 47h565l-15 -45l-756 -666h503l-16 -47h-620zM684 972h122l-1 -2l-246 -131h-25z" />
    <glyph glyph-name="Zcaron" unicode="&#x17d;" horiz-adv-x="698" 
d="M-54 44l756 667h-447l15 47h565l-15 -45l-756 -666h503l-16 -47h-620zM464 982h26l74 -77l176 77h30l-216 -149h-10z" />
    <glyph glyph-name="Zdotaccent" unicode="&#x17b;" horiz-adv-x="698" 
d="M-54 44l756 667h-447l15 47h565l-15 -45l-756 -666h503l-16 -47h-620zM590 858q-24 0 -42.5 18.5t-18.5 43.5q0 24 18.5 42.5t42.5 18.5q25 0 43.5 -18.5t18.5 -42.5q0 -25 -18.5 -43.5t-43.5 -18.5z" />
    <glyph glyph-name="uni018F" unicode="&#x18f;" horiz-adv-x="828" 
d="M359 -11q-71 0 -125 21.5t-89.5 61t-51 95t-9.5 123.5h614q26 76 26 157q0 67 -19.5 116.5t-54 82.5t-81 49.5t-99.5 16.5q-59 0 -110.5 -18t-94 -51.5t-76 -80.5t-56.5 -104h-23q24 78 65.5 137.5t94.5 99t116 60t129 20.5q65 0 121 -20t97 -57.5t64.5 -92t23.5 -124.5
q0 -87 -34 -174.5t-95.5 -158t-146 -115t-186.5 -44.5zM370 17q50 0 96.5 17.5t86.5 48.5t72.5 73.5t55.5 92.5h-500q-8 -115 41.5 -173.5t147.5 -58.5z" />
    <glyph glyph-name="abreve" unicode="&#x103;" horiz-adv-x="575" 
d="M302 0l65 167h-2q-25 -35 -53 -67.5t-59 -57.5t-65.5 -39.5t-71.5 -14.5q-48 0 -74 29.5t-26 81.5q0 45 17 93t45.5 94.5t66 88t79.5 73t85.5 50t83.5 18.5q38 0 56.5 -20.5t21.5 -50.5h1l25 67h90l-196 -512h-89zM168 37q28 0 63.5 24t71 64t67.5 90.5t53 103.5
q18 46 22.5 78t-1 51.5t-20 28.5t-33.5 9q-31 0 -63.5 -17.5t-63.5 -47t-58 -68t-47.5 -80.5t-32.5 -85t-12 -80q0 -34 13 -52.5t41 -18.5zM435 613q-27 0 -52 8.5t-42 27t-23 48t4 72.5h36q-14 -62 9.5 -91t73.5 -29q48 0 87.5 27t59.5 93h38q-14 -47 -35 -77t-46.5 -47.5
t-54 -24.5t-55.5 -7z" />
    <glyph glyph-name="amacron" unicode="&#x101;" horiz-adv-x="575" 
d="M302 0l65 167h-2q-25 -35 -53 -67.5t-59 -57.5t-65.5 -39.5t-71.5 -14.5q-48 0 -74 29.5t-26 81.5q0 45 17 93t45.5 94.5t66 88t79.5 73t85.5 50t83.5 18.5q38 0 56.5 -20.5t21.5 -50.5h1l25 67h90l-196 -512h-89zM168 37q28 0 63.5 24t71 64t67.5 90.5t53 103.5
q18 46 22.5 78t-1 51.5t-20 28.5t-33.5 9q-31 0 -63.5 -17.5t-63.5 -47t-58 -68t-47.5 -80.5t-32.5 -85t-12 -80q0 -34 13 -52.5t41 -18.5zM331 711h283l-15 -43h-283z" />
    <glyph glyph-name="aogonek" unicode="&#x105;" horiz-adv-x="575" 
d="M302 0l65 167h-2q-25 -35 -53 -67.5t-59 -57.5t-65.5 -39.5t-71.5 -14.5q-48 0 -74 29.5t-26 81.5q0 45 17 93t45.5 94.5t66 88t79.5 73t85.5 50t83.5 18.5q38 0 56.5 -20.5t21.5 -50.5h1l25 67h90l-196 -512h-89zM168 37q28 0 63.5 24t71 64t67.5 90.5t53 103.5
q18 46 22.5 78t-1 51.5t-20 28.5t-33.5 9q-31 0 -63.5 -17.5t-63.5 -47t-58 -68t-47.5 -80.5t-32.5 -85t-12 -80q0 -34 13 -52.5t41 -18.5zM251 -233q-36 0 -59.5 16.5t-23.5 48.5q0 24 18 47.5t45 45.5t58.5 41.5t58.5 33.5h25q-21 -16 -46 -33.5t-47 -36.5t-36.5 -39.5
t-14.5 -41.5q0 -48 60 -48q19 0 37.5 5t33.5 11l-4 -21q-20 -13 -49 -21t-56 -8z" />
    <glyph glyph-name="cacute" unicode="&#x107;" horiz-adv-x="494" 
d="M182 -12q-70 0 -110 38.5t-40 110.5q0 69 30 136.5t78 121.5t109 87.5t123 33.5q51 0 86 -23t35 -68q0 -29 -26.5 -48t-68.5 -13q8 35 8.5 58.5t-5.5 37.5t-17.5 20t-28.5 6q-37 0 -76.5 -27.5t-72.5 -73.5t-54 -105.5t-21 -123.5q0 -63 24 -90.5t65 -27.5q51 0 98.5 40
t87.5 103l23 -17q-25 -40 -51 -72.5t-56 -55.5t-64 -35.5t-76 -12.5zM516 775h107l-2 -7l-232 -172h-28z" />
    <glyph glyph-name="ccaron" unicode="&#x10d;" horiz-adv-x="494" 
d="M182 -12q-70 0 -110 38.5t-40 110.5q0 69 30 136.5t78 121.5t109 87.5t123 33.5q51 0 86 -23t35 -68q0 -29 -26.5 -48t-68.5 -13q8 35 8.5 58.5t-5.5 37.5t-17.5 20t-28.5 6q-37 0 -76.5 -27.5t-72.5 -73.5t-54 -105.5t-21 -123.5q0 -63 24 -90.5t65 -27.5q51 0 98.5 40
t87.5 103l23 -17q-25 -40 -51 -72.5t-56 -55.5t-64 -35.5t-76 -12.5zM309 789h25l70 -106l193 106h27l-239 -193h-8z" />
    <glyph glyph-name="ccircumflex" unicode="&#x109;" horiz-adv-x="494" 
d="M182 -12q-70 0 -110 38.5t-40 110.5q0 69 30 136.5t78 121.5t109 87.5t123 33.5q51 0 86 -23t35 -68q0 -29 -26.5 -48t-68.5 -13q8 35 8.5 58.5t-5.5 37.5t-17.5 20t-28.5 6q-37 0 -76.5 -27.5t-72.5 -73.5t-54 -105.5t-21 -123.5q0 -63 24 -90.5t65 -27.5q51 0 98.5 40
t87.5 103l23 -17q-25 -40 -51 -72.5t-56 -55.5t-64 -35.5t-76 -12.5zM476 789h8l68 -193h-25l-70 107l-193 -107h-27z" />
    <glyph glyph-name="cdotaccent" unicode="&#x10b;" horiz-adv-x="494" 
d="M182 -12q-70 0 -110 38.5t-40 110.5q0 69 30 136.5t78 121.5t109 87.5t123 33.5q51 0 86 -23t35 -68q0 -29 -26.5 -48t-68.5 -13q8 35 8.5 58.5t-5.5 37.5t-17.5 20t-28.5 6q-37 0 -76.5 -27.5t-72.5 -73.5t-54 -105.5t-21 -123.5q0 -63 24 -90.5t65 -27.5q51 0 98.5 40
t87.5 103l23 -17q-25 -40 -51 -72.5t-56 -55.5t-64 -35.5t-76 -12.5zM439 645q-24 0 -42.5 18.5t-18.5 43.5q0 24 18.5 42.5t42.5 18.5q25 0 43.5 -18.5t18.5 -42.5q0 -25 -18.5 -43.5t-43.5 -18.5z" />
    <glyph glyph-name="dcaron" unicode="&#x10f;" horiz-adv-x="609" 
d="M317 0l64 175h-2q-60 -85 -123.5 -136t-135.5 -51q-48 0 -75.5 29t-27.5 83q0 45 16.5 94t44 95t64 87.5t77.5 72.5t83.5 49t82.5 18q38 0 57.5 -19t25.5 -48h1l112 318h90l-268 -767h-86zM170 40q30 0 65.5 21.5t70 58.5t66 86.5t53.5 106.5q18 45 21.5 78t-3.5 54
t-22 31t-34 10q-32 0 -64.5 -17t-62.5 -46t-56.5 -66.5t-46 -79.5t-31 -84.5t-11.5 -80.5t14.5 -55t40.5 -17zM678 532q66 39 100.5 75.5t34.5 66.5q0 18 -12 30t-32 17q0 24 14 39t37 16q27 0 45.5 -17t18.5 -46q0 -45 -52 -98.5t-143 -104.5z" />
    <glyph glyph-name="dcroat" unicode="&#x111;" horiz-adv-x="579" 
d="M317 0l64 175h-2q-60 -85 -123.5 -136t-135.5 -51q-48 0 -75.5 29t-27.5 83q0 45 16.5 94t44 95t64 87.5t77.5 72.5t83.5 49t82.5 18q38 0 57.5 -19t25.5 -48h1l112 318h90l-268 -767h-86zM170 40q30 0 65.5 21.5t70 58.5t66 86.5t53.5 106.5q18 45 21.5 78t-3.5 54
t-22 31t-34 10q-32 0 -64.5 -17t-62.5 -46t-56.5 -66.5t-46 -79.5t-31 -84.5t-11.5 -80.5t14.5 -55t40.5 -17zM420 659h296l-12 -35h-295z" />
    <glyph glyph-name="ebreve" unicode="&#x115;" horiz-adv-x="509" 
d="M179 -12q-69 0 -108.5 38.5t-39.5 110.5t32.5 140t84 121t114.5 85.5t124 32.5q62 0 91.5 -26t29.5 -65q0 -31 -19.5 -64.5t-58.5 -52.5l-266 -2q-16 -34 -24.5 -72t-8.5 -78q0 -63 25 -90.5t63 -27.5q51 0 101 40t90 104l22 -16q-25 -41 -51.5 -74t-57 -56t-66 -35.5
t-77.5 -12.5zM381 488q-27 0 -55.5 -11.5t-55.5 -31.5t-51 -48.5t-43 -62.5h121q32 0 59 8.5t46.5 23t30.5 32.5t11 38q0 24 -14.5 38t-48.5 14zM425 613q-27 0 -52 8.5t-42 27t-23 48t4 72.5h36q-14 -62 9.5 -91t73.5 -29q48 0 87.5 27t59.5 93h38q-14 -47 -35 -77
t-46.5 -47.5t-54 -24.5t-55.5 -7z" />
    <glyph glyph-name="ecaron" unicode="&#x11b;" horiz-adv-x="509" 
d="M179 -12q-69 0 -108.5 38.5t-39.5 110.5t32.5 140t84 121t114.5 85.5t124 32.5q62 0 91.5 -26t29.5 -65q0 -31 -19.5 -64.5t-58.5 -52.5l-266 -2q-16 -34 -24.5 -72t-8.5 -78q0 -63 25 -90.5t63 -27.5q51 0 101 40t90 104l22 -16q-25 -41 -51.5 -74t-57 -56t-66 -35.5
t-77.5 -12.5zM381 488q-27 0 -55.5 -11.5t-55.5 -31.5t-51 -48.5t-43 -62.5h121q32 0 59 8.5t46.5 23t30.5 32.5t11 38q0 24 -14.5 38t-48.5 14zM330 789h25l70 -106l193 106h27l-239 -193h-8z" />
    <glyph glyph-name="emacron" unicode="&#x113;" horiz-adv-x="509" 
d="M179 -12q-69 0 -108.5 38.5t-39.5 110.5t32.5 140t84 121t114.5 85.5t124 32.5q62 0 91.5 -26t29.5 -65q0 -31 -19.5 -64.5t-58.5 -52.5l-266 -2q-16 -34 -24.5 -72t-8.5 -78q0 -63 25 -90.5t63 -27.5q51 0 101 40t90 104l22 -16q-25 -41 -51.5 -74t-57 -56t-66 -35.5
t-77.5 -12.5zM381 488q-27 0 -55.5 -11.5t-55.5 -31.5t-51 -48.5t-43 -62.5h121q32 0 59 8.5t46.5 23t30.5 32.5t11 38q0 24 -14.5 38t-48.5 14zM321 711h283l-15 -43h-283z" />
    <glyph glyph-name="eogonek" unicode="&#x119;" horiz-adv-x="509" 
d="M235 -204q-20 -13 -49 -21t-56 -8q-36 0 -59.5 16.5t-23.5 48.5q0 22 15.5 44t40 43t54.5 39t59 32q-8 -1 -18.5 -1.5t-18.5 -0.5q-69 0 -108.5 38.5t-39.5 110.5t32.5 140t84 121t114.5 85.5t124 32.5q62 0 91.5 -26t29.5 -65q0 -31 -19.5 -64.5t-58.5 -52.5l-266 -2
q-16 -34 -24.5 -72t-8.5 -78q0 -63 25 -90.5t63 -27.5q51 0 101 40t90 104l22 -16q-40 -66 -81 -104t-83 -61q-25 -14 -53 -31t-51.5 -36.5t-39 -41t-15.5 -43.5q0 -48 60 -48q19 0 37.5 5t33.5 11zM381 488q-27 0 -55.5 -11.5t-55.5 -31.5t-51 -48.5t-43 -62.5h121
q32 0 59 8.5t46.5 23t30.5 32.5t11 38q0 24 -14.5 38t-48.5 14z" />
    <glyph glyph-name="edotaccent" unicode="&#x117;" horiz-adv-x="509" 
d="M179 -12q-69 0 -108.5 38.5t-39.5 110.5t32.5 140t84 121t114.5 85.5t124 32.5q62 0 91.5 -26t29.5 -65q0 -31 -19.5 -64.5t-58.5 -52.5l-266 -2q-16 -34 -24.5 -72t-8.5 -78q0 -63 25 -90.5t63 -27.5q51 0 101 40t90 104l22 -16q-25 -41 -51.5 -74t-57 -56t-66 -35.5
t-77.5 -12.5zM381 488q-27 0 -55.5 -11.5t-55.5 -31.5t-51 -48.5t-43 -62.5h121q32 0 59 8.5t46.5 23t30.5 32.5t11 38q0 24 -14.5 38t-48.5 14zM460 645q-24 0 -42.5 18.5t-18.5 43.5q0 24 18.5 42.5t42.5 18.5q25 0 43.5 -18.5t18.5 -42.5q0 -25 -18.5 -43.5t-43.5 -18.5z
" />
    <glyph glyph-name="gbreve" unicode="&#x11f;" horiz-adv-x="524" 
d="M235 162q-44 0 -77 14q-26 -4 -40 -15t-14 -28q0 -15 12 -29t33 -26l126 -72q65 -37 95.5 -66.5t30.5 -63.5t-24 -59.5t-62 -42.5t-84 -25.5t-90 -8.5q-56 0 -103 9.5t-81 26.5t-53 41t-19 53q0 27 16.5 49.5t46 39.5t70 28t87.5 16l-4 2q-30 17 -45.5 39t-15.5 45
q0 31 26.5 57.5t74.5 38.5q-29 17 -44.5 44t-15.5 61q0 45 21 85.5t56.5 72t82 50t96.5 18.5q36 0 65 -10t49 -27l33 54h137l-37 -61h-126q32 -34 32 -84q0 -45 -21 -85.5t-56.5 -72t-81.5 -50t-96 -18.5zM253 191q30 0 57.5 14t48 39t33 60t12.5 76q0 48 -21.5 77.5
t-64.5 29.5q-30 0 -57 -14t-48 -39t-33 -60t-12 -76q0 -48 21 -77.5t64 -29.5zM-32 -118q0 -51 45.5 -82t130.5 -31q36 0 68 5t56 14t38 23t14 32q0 19 -18 39t-71 50l-111 63q-30 -5 -57.5 -14.5t-48.5 -23.5t-33.5 -32.5t-12.5 -42.5zM361 613q-27 0 -52 8.5t-42 27
t-23 48t4 72.5h36q-14 -62 9.5 -91t73.5 -29q48 0 87.5 27t59.5 93h38q-14 -47 -35 -77t-46.5 -47.5t-54 -24.5t-55.5 -7z" />
    <glyph glyph-name="gcircumflex" unicode="&#x11d;" horiz-adv-x="524" 
d="M235 162q-44 0 -77 14q-26 -4 -40 -15t-14 -28q0 -15 12 -29t33 -26l126 -72q65 -37 95.5 -66.5t30.5 -63.5t-24 -59.5t-62 -42.5t-84 -25.5t-90 -8.5q-56 0 -103 9.5t-81 26.5t-53 41t-19 53q0 27 16.5 49.5t46 39.5t70 28t87.5 16l-4 2q-30 17 -45.5 39t-15.5 45
q0 31 26.5 57.5t74.5 38.5q-29 17 -44.5 44t-15.5 61q0 45 21 85.5t56.5 72t82 50t96.5 18.5q36 0 65 -10t49 -27l33 54h137l-37 -61h-126q32 -34 32 -84q0 -45 -21 -85.5t-56.5 -72t-81.5 -50t-96 -18.5zM253 191q30 0 57.5 14t48 39t33 60t12.5 76q0 48 -21.5 77.5
t-64.5 29.5q-30 0 -57 -14t-48 -39t-33 -60t-12 -76q0 -48 21 -77.5t64 -29.5zM-32 -118q0 -51 45.5 -82t130.5 -31q36 0 68 5t56 14t38 23t14 32q0 19 -18 39t-71 50l-111 63q-30 -5 -57.5 -14.5t-48.5 -23.5t-33.5 -32.5t-12.5 -42.5zM433 789h8l68 -193h-25l-70 107
l-193 -107h-27z" />
    <glyph glyph-name="uni0123" unicode="&#x123;" horiz-adv-x="524" 
d="M235 162q-44 0 -77 14q-26 -4 -40 -15t-14 -28q0 -15 12 -29t33 -26l126 -72q65 -37 95.5 -66.5t30.5 -63.5t-24 -59.5t-62 -42.5t-84 -25.5t-90 -8.5q-56 0 -103 9.5t-81 26.5t-53 41t-19 53q0 27 16.5 49.5t46 39.5t70 28t87.5 16l-4 2q-30 17 -45.5 39t-15.5 45
q0 31 26.5 57.5t74.5 38.5q-29 17 -44.5 44t-15.5 61q0 45 21 85.5t56.5 72t82 50t96.5 18.5q36 0 65 -10t49 -27l33 54h137l-37 -61h-126q32 -34 32 -84q0 -45 -21 -85.5t-56.5 -72t-81.5 -50t-96 -18.5zM253 191q30 0 57.5 14t48 39t33 60t12.5 76q0 48 -21.5 77.5
t-64.5 29.5q-30 0 -57 -14t-48 -39t-33 -60t-12 -76q0 -48 21 -77.5t64 -29.5zM-32 -118q0 -51 45.5 -82t130.5 -31q36 0 68 5t56 14t38 23t14 32q0 19 -18 39t-71 50l-111 63q-30 -5 -57.5 -14.5t-48.5 -23.5t-33.5 -32.5t-12.5 -42.5zM501 827q-65 -40 -99.5 -76.5
t-34.5 -65.5q0 -19 12 -31t32 -17q0 -23 -14 -38.5t-37 -16.5q-27 0 -45.5 17t-18.5 46q0 45 52 98.5t143 104.5z" />
    <glyph glyph-name="gdotaccent" unicode="&#x121;" horiz-adv-x="524" 
d="M235 162q-44 0 -77 14q-26 -4 -40 -15t-14 -28q0 -15 12 -29t33 -26l126 -72q65 -37 95.5 -66.5t30.5 -63.5t-24 -59.5t-62 -42.5t-84 -25.5t-90 -8.5q-56 0 -103 9.5t-81 26.5t-53 41t-19 53q0 27 16.5 49.5t46 39.5t70 28t87.5 16l-4 2q-30 17 -45.5 39t-15.5 45
q0 31 26.5 57.5t74.5 38.5q-29 17 -44.5 44t-15.5 61q0 45 21 85.5t56.5 72t82 50t96.5 18.5q36 0 65 -10t49 -27l33 54h137l-37 -61h-126q32 -34 32 -84q0 -45 -21 -85.5t-56.5 -72t-81.5 -50t-96 -18.5zM253 191q30 0 57.5 14t48 39t33 60t12.5 76q0 48 -21.5 77.5
t-64.5 29.5q-30 0 -57 -14t-48 -39t-33 -60t-12 -76q0 -48 21 -77.5t64 -29.5zM-32 -118q0 -51 45.5 -82t130.5 -31q36 0 68 5t56 14t38 23t14 32q0 19 -18 39t-71 50l-111 63q-30 -5 -57.5 -14.5t-48.5 -23.5t-33.5 -32.5t-12.5 -42.5zM396 645q-24 0 -42.5 18.5
t-18.5 43.5q0 24 18.5 42.5t42.5 18.5q25 0 43.5 -18.5t18.5 -42.5q0 -25 -18.5 -43.5t-43.5 -18.5z" />
    <glyph glyph-name="hbar" unicode="&#x127;" horiz-adv-x="608" 
d="M268 767h90l-175 -506l-31 -90h1q33 59 67 111.5t65 94.5q54 72 100.5 105.5t98.5 33.5q64 0 84 -52.5t-17 -150.5l-119 -313h-92l119 311q32 85 27 122.5t-38 37.5t-71.5 -34t-80.5 -90q-26 -34 -55.5 -78t-57 -90.5t-51.5 -93t-38 -85.5h-91zM147 659h295l-12 -35h-295
z" />
    <glyph glyph-name="hcircumflex" unicode="&#x125;" horiz-adv-x="608" 
d="M268 767h90l-175 -506l-31 -90h1q33 59 67 111.5t65 94.5q54 72 100.5 105.5t98.5 33.5q64 0 84 -52.5t-17 -150.5l-119 -313h-92l119 311q32 85 27 122.5t-38 37.5t-71.5 -34t-80.5 -90q-26 -34 -55.5 -78t-57 -90.5t-51.5 -93t-38 -85.5h-91zM402 990h10l80 -148h-26
l-74 77l-176 -77h-30z" />
    <glyph glyph-name="dotlessi" unicode="&#x131;" horiz-adv-x="271" 
d="M187 502h90l-192 -502h-90z" />
    <glyph glyph-name="ibreve" unicode="&#x12d;" horiz-adv-x="271" 
d="M187 502h90l-192 -502h-90zM268 613q-27 0 -52 8.5t-42 27t-23 48t4 72.5h36q-14 -62 9.5 -91t73.5 -29q48 0 87.5 27t59.5 93h38q-14 -47 -35 -77t-46.5 -47.5t-54 -24.5t-55.5 -7z" />
    <glyph glyph-name="imacron" unicode="&#x12b;" horiz-adv-x="271" 
d="M187 502h90l-192 -502h-90zM164 711h283l-15 -43h-283z" />
    <glyph glyph-name="iogonek" unicode="&#x12f;" horiz-adv-x="271" 
d="M187 502h90l-192 -502h-90zM237 717q0 24 18.5 42.5t42.5 18.5q25 0 43.5 -18.5t18.5 -42.5q0 -25 -18.5 -43.5t-43.5 -18.5q-24 0 -42.5 18.5t-18.5 43.5zM-57 -233q-36 0 -59.5 16.5t-23.5 48.5q0 24 18 47.5t45 45.5t58.5 41.5t58.5 33.5h25q-21 -16 -46 -33.5
t-47 -36.5t-36.5 -39.5t-14.5 -41.5q0 -48 60 -48q19 0 37.5 5t33.5 11l-4 -21q-20 -13 -49 -21t-56 -8z" />
    <glyph glyph-name="itilde" unicode="&#x129;" horiz-adv-x="271" 
d="M187 502h90l-192 -502h-90zM376 629q-27 0 -45.5 11t-35 23.5t-33 23.5t-37.5 11q-24 0 -43 -14t-30 -48h-22q11 60 40 94.5t71 34.5q25 0 43 -10.5t33.5 -23.5t32 -23.5t39.5 -10.5t40 13.5t28 45.5h22q-14 -69 -42.5 -98t-60.5 -29z" />
    <glyph glyph-name="uni1ECB" unicode="&#x1ecb;" horiz-adv-x="271" 
d="M187 502h90l-192 -502h-90zM237 717q0 24 18.5 42.5t42.5 18.5q25 0 43.5 -18.5t18.5 -42.5q0 -25 -18.5 -43.5t-43.5 -18.5q-24 0 -42.5 18.5t-18.5 43.5zM-16 -231q-24 0 -42.5 18.5t-18.5 43.5q0 24 18.5 42.5t42.5 18.5q25 0 43.5 -18.5t18.5 -42.5
q0 -25 -18.5 -43.5t-43.5 -18.5z" />
    <glyph glyph-name="uni0237" unicode="&#x237;" horiz-adv-x="276" 
d="M-229 -239q48 31 82.5 54t61.5 51t49 66t46 98l185 472h90l-184 -468q-18 -47 -34 -79t-35 -55t-42.5 -41.5t-57.5 -37.5q-9 -5 -28 -15.5t-41 -22.5l-44 -24t-38 -19z" />
    <glyph glyph-name="jcircumflex" unicode="&#x135;" horiz-adv-x="276" 
d="M-229 -239q48 31 82.5 54t61.5 51t49 66t46 98l185 472h90l-184 -468q-18 -47 -34 -79t-35 -55t-42.5 -41.5t-57.5 -37.5q-9 -5 -28 -15.5t-41 -22.5l-44 -24t-38 -19zM348 789h8l68 -193h-25l-70 107l-193 -107h-27z" />
    <glyph glyph-name="uni0137" unicode="&#x137;" horiz-adv-x="563" 
d="M271 780h90l-173 -503l356 225h71l-340 -215l217 -287h-102l-206 265l-91 -265h-90zM55 -319q66 39 100.5 75.5t34.5 66.5q0 19 -12 30.5t-32 16.5q0 24 14 39.5t37 15.5q27 1 45.5 -16.5t18.5 -46.5q0 -45 -52 -98t-143 -104z" />
    <glyph glyph-name="lacute" unicode="&#x13a;" horiz-adv-x="271" 
d="M273 780h90l-268 -780h-90zM464 1053h107l-2 -7l-232 -172h-28z" />
    <glyph glyph-name="lcaron" unicode="&#x13e;" horiz-adv-x="301" 
d="M273 780h90l-268 -780h-90zM370 545q66 39 100.5 75.5t34.5 66.5q0 18 -12 30t-32 17q0 24 14 39t37 16q27 0 45.5 -17t18.5 -46q0 -45 -52 -98.5t-143 -104.5z" />
    <glyph glyph-name="uni013C" unicode="&#x13c;" horiz-adv-x="271" 
d="M273 780h90l-268 -780h-90zM-144 -319q66 39 100.5 75.5t34.5 66.5q0 19 -12 30.5t-32 16.5q0 24 14 39.5t37 15.5q27 1 45.5 -16.5t18.5 -46.5q0 -45 -52 -98t-143 -104z" />
    <glyph glyph-name="ldot" unicode="&#x140;" horiz-adv-x="369" 
d="M273 780h90l-268 -780h-90zM372 354q-24 0 -42.5 18.5t-18.5 43.5q0 24 18.5 42.5t42.5 18.5q25 0 43.5 -18.5t18.5 -42.5q0 -25 -18.5 -43.5t-43.5 -18.5z" />
    <glyph glyph-name="glyph298" horiz-adv-x="369" 
d="M273 780h90l-268 -780h-90zM372 354q-24 0 -42.5 18.5t-18.5 43.5q0 24 18.5 42.5t42.5 18.5q25 0 43.5 -18.5t18.5 -42.5q0 -25 -18.5 -43.5t-43.5 -18.5z" />
    <glyph glyph-name="lslash" unicode="&#x142;" horiz-adv-x="311" 
d="M293 780h90l-268 -780h-90zM40 341l353 182l-13 -48l-353 -182z" />
    <glyph glyph-name="eng" unicode="&#x14b;" horiz-adv-x="599" 
d="M104 -239q48 31 82.5 54t61.5 51t49 66t45 98l108 281q32 85 27 122.5t-38 37.5t-71.5 -34t-80.5 -90q-26 -34 -55 -77.5t-56.5 -90t-51.5 -93t-39 -86.5h-92l193 502h89l-130 -331h1q33 60 66 112t64 94q54 72 100.5 105.5t98.5 33.5q64 0 84.5 -52.5t-17.5 -150.5
l-107 -279q-18 -47 -34 -79t-35 -55t-42.5 -41.5t-57.5 -37.5q-10 -5 -29 -15.5t-41 -22.5l-44 -24t-38 -19z" />
    <glyph glyph-name="nacute" unicode="&#x144;" horiz-adv-x="599" 
d="M331 0l119 311q32 85 27 122.5t-38 37.5t-71.5 -34t-80.5 -90q-26 -34 -55 -77.5t-56.5 -90t-51.5 -93t-39 -86.5h-92l193 502h89l-130 -331h1q33 60 66 112t64 94q54 72 100.5 105.5t98.5 33.5q64 0 84 -52.5t-17 -150.5l-119 -313h-92zM545 775h107l-2 -7l-232 -172
h-28z" />
    <glyph glyph-name="ncaron" unicode="&#x148;" horiz-adv-x="599" 
d="M331 0l119 311q32 85 27 122.5t-38 37.5t-71.5 -34t-80.5 -90q-26 -34 -55 -77.5t-56.5 -90t-51.5 -93t-39 -86.5h-92l193 502h89l-130 -331h1q33 60 66 112t64 94q54 72 100.5 105.5t98.5 33.5q64 0 84 -52.5t-17 -150.5l-119 -313h-92zM338 789h25l70 -106l193 106h27
l-239 -193h-8z" />
    <glyph glyph-name="uni0146" unicode="&#x146;" horiz-adv-x="599" 
d="M331 0l119 311q32 85 27 122.5t-38 37.5t-71.5 -34t-80.5 -90q-26 -34 -55 -77.5t-56.5 -90t-51.5 -93t-39 -86.5h-92l193 502h89l-130 -331h1q33 60 66 112t64 94q54 72 100.5 105.5t98.5 33.5q64 0 84 -52.5t-17 -150.5l-119 -313h-92zM39 -319q66 39 100.5 75.5
t34.5 66.5q0 19 -12 30.5t-32 16.5q0 24 14 39.5t37 15.5q27 1 45.5 -16.5t18.5 -46.5q0 -45 -52 -98t-143 -104z" />
    <glyph glyph-name="oe" unicode="&#x153;" horiz-adv-x="891" 
d="M34 145q0 67 29 133.5t77 119.5t110.5 85.5t130.5 32.5q62 0 102 -30t53 -81q51 51 111.5 81t120.5 30q62 0 91.5 -26t29.5 -65q0 -31 -19.5 -64.5t-58.5 -52.5l-266 -2q-16 -34 -24.5 -72t-8.5 -78q0 -63 25 -90.5t63 -27.5q51 0 101 40t90 104l22 -16
q-25 -41 -51.5 -74t-57 -56t-66 -35.5t-77.5 -12.5q-56 0 -92.5 25.5t-49.5 74.5q-47 -45 -104 -72.5t-119 -27.5q-76 0 -119 44t-43 113zM763 488q-27 0 -55.5 -11.5t-55.5 -31.5t-51 -48.5t-43 -62.5h121q32 0 59 8.5t46.5 23t30.5 32.5t11 38q0 24 -14.5 38t-48.5 14z
M232 25q36 0 73 23t67 66t49.5 103.5t19.5 134.5q0 66 -27.5 97t-68.5 31q-36 0 -73 -23.5t-67.5 -66t-50 -103t-19.5 -134.5q0 -66 27.5 -97t69.5 -31z" />
    <glyph glyph-name="obreve" unicode="&#x14f;" horiz-adv-x="574" 
d="M196 -12q-76 0 -119 44t-43 113q0 67 29 133.5t77 119.5t110.5 85.5t130.5 32.5q75 0 118 -44t43 -113q0 -68 -29 -134t-77 -119t-110.5 -85.5t-129.5 -32.5zM232 25q36 0 73 23t67 66t49.5 103.5t19.5 134.5q0 66 -27.5 97t-68.5 31q-36 0 -73 -23.5t-67.5 -66t-50 -103
t-19.5 -134.5q0 -66 27.5 -97t69.5 -31zM411 613q-27 0 -52 8.5t-42 27t-23 48t4 72.5h36q-14 -62 9.5 -91t73.5 -29q48 0 87.5 27t59.5 93h38q-14 -47 -35 -77t-46.5 -47.5t-54 -24.5t-55.5 -7z" />
    <glyph glyph-name="ohungarumlaut" unicode="&#x151;" horiz-adv-x="574" 
d="M196 -12q-76 0 -119 44t-43 113q0 67 29 133.5t77 119.5t110.5 85.5t130.5 32.5q75 0 118 -44t43 -113q0 -68 -29 -134t-77 -119t-110.5 -85.5t-129.5 -32.5zM232 25q36 0 73 23t67 66t49.5 103.5t19.5 134.5q0 66 -27.5 97t-68.5 31q-36 0 -73 -23.5t-67.5 -66t-50 -103
t-19.5 -134.5q0 -66 27.5 -97t69.5 -31zM636 775h107l-2 -7l-233 -172h-27zM457 775h108l-3 -7l-232 -172h-28z" />
    <glyph glyph-name="omacron" unicode="&#x14d;" horiz-adv-x="574" 
d="M196 -12q-76 0 -119 44t-43 113q0 67 29 133.5t77 119.5t110.5 85.5t130.5 32.5q75 0 118 -44t43 -113q0 -68 -29 -134t-77 -119t-110.5 -85.5t-129.5 -32.5zM232 25q36 0 73 23t67 66t49.5 103.5t19.5 134.5q0 66 -27.5 97t-68.5 31q-36 0 -73 -23.5t-67.5 -66t-50 -103
t-19.5 -134.5q0 -66 27.5 -97t69.5 -31zM307 711h283l-15 -43h-283z" />
    <glyph glyph-name="uni1ECD" unicode="&#x1ecd;" horiz-adv-x="574" 
d="M196 -12q-76 0 -119 44t-43 113q0 67 29 133.5t77 119.5t110.5 85.5t130.5 32.5q75 0 118 -44t43 -113q0 -68 -29 -134t-77 -119t-110.5 -85.5t-129.5 -32.5zM232 25q36 0 73 23t67 66t49.5 103.5t19.5 134.5q0 66 -27.5 97t-68.5 31q-36 0 -73 -23.5t-67.5 -66t-50 -103
t-19.5 -134.5q0 -66 27.5 -97t69.5 -31zM138 -231q-24 0 -42.5 18.5t-18.5 43.5q0 24 18.5 42.5t42.5 18.5q25 0 43.5 -18.5t18.5 -42.5q0 -25 -18.5 -43.5t-43.5 -18.5z" />
    <glyph glyph-name="racute" unicode="&#x155;" horiz-adv-x="442" 
d="M185 502h90l-120 -309h1q45 79 78 130.5t62 89.5q38 50 68 76.5t70 26.5q24 0 41 -14t17 -40q0 -23 -15.5 -38.5t-41.5 -19.5q-14 15 -30 28t-27 13q-17 0 -40 -23t-62 -77q-18 -24 -38.5 -56t-42 -68t-43.5 -74.5t-42 -76.5l-26 -70h-91zM489 775h107l-2 -7l-232 -172
h-28z" />
    <glyph glyph-name="rcaron" unicode="&#x159;" horiz-adv-x="442" 
d="M185 502h90l-120 -309h1q45 79 78 130.5t62 89.5q38 50 68 76.5t70 26.5q24 0 41 -14t17 -40q0 -23 -15.5 -38.5t-41.5 -19.5q-14 15 -30 28t-27 13q-17 0 -40 -23t-62 -77q-18 -24 -38.5 -56t-42 -68t-43.5 -74.5t-42 -76.5l-26 -70h-91zM282 789h25l70 -106l193 106h27
l-239 -193h-8z" />
    <glyph glyph-name="uni0157" unicode="&#x157;" horiz-adv-x="442" 
d="M185 502h90l-120 -309h1q45 79 78 130.5t62 89.5q38 50 68 76.5t70 26.5q24 0 41 -14t17 -40q0 -23 -15.5 -38.5t-41.5 -19.5q-14 15 -30 28t-27 13q-17 0 -40 -23t-62 -77q-18 -24 -38.5 -56t-42 -68t-43.5 -74.5t-42 -76.5l-26 -70h-91zM-148 -319q66 39 100.5 75.5
t34.5 66.5q0 19 -12 30.5t-32 16.5q0 24 14 39.5t37 15.5q27 1 45.5 -16.5t18.5 -46.5q0 -45 -52 -98t-143 -104z" />
    <glyph glyph-name="sacute" unicode="&#x15b;" horiz-adv-x="440" 
d="M134 -12q-36 0 -62.5 8.5t-44 21t-26.5 28t-9 30.5q0 28 20.5 42t51.5 12q10 -36 18 -57.5t16.5 -33.5t19 -16t24.5 -4q18 0 39.5 4t39.5 14t30 25.5t12 39.5q0 27 -16 53.5t-42 58.5l-28 34q-26 32 -42.5 60.5t-16.5 61.5t17.5 60t46 46t64.5 29.5t72 10.5
q63 0 95.5 -24.5t32.5 -52.5t-19 -42t-49 -10q-9 30 -17 49t-16.5 30t-19.5 15t-27 4q-17 0 -35.5 -4t-33.5 -12.5t-24.5 -22.5t-9.5 -33q0 -26 12 -48t40 -55l30 -36q27 -32 44.5 -60t17.5 -68q0 -37 -17.5 -66t-46 -49.5t-65.5 -31.5t-76 -11zM472 775h107l-2 -7
l-232 -172h-28z" />
    <glyph glyph-name="scaron" unicode="&#x161;" horiz-adv-x="440" 
d="M134 -12q-36 0 -62.5 8.5t-44 21t-26.5 28t-9 30.5q0 28 20.5 42t51.5 12q10 -36 18 -57.5t16.5 -33.5t19 -16t24.5 -4q18 0 39.5 4t39.5 14t30 25.5t12 39.5q0 27 -16 53.5t-42 58.5l-28 34q-26 32 -42.5 60.5t-16.5 61.5t17.5 60t46 46t64.5 29.5t72 10.5
q63 0 95.5 -24.5t32.5 -52.5t-19 -42t-49 -10q-9 30 -17 49t-16.5 30t-19.5 15t-27 4q-17 0 -35.5 -4t-33.5 -12.5t-24.5 -22.5t-9.5 -33q0 -26 12 -48t40 -55l30 -36q27 -32 44.5 -60t17.5 -68q0 -37 -17.5 -66t-46 -49.5t-65.5 -31.5t-76 -11zM265 789h25l70 -106l193 106
h27l-239 -193h-8z" />
    <glyph glyph-name="scedilla" unicode="&#x15f;" horiz-adv-x="440" 
d="M134 -12q-36 0 -62.5 8.5t-44 21t-26.5 28t-9 30.5q0 28 20.5 42t51.5 12q10 -36 18 -57.5t16.5 -33.5t19 -16t24.5 -4q18 0 39.5 4t39.5 14t30 25.5t12 39.5q0 27 -16 53.5t-42 58.5l-28 34q-26 32 -42.5 60.5t-16.5 61.5t17.5 60t46 46t64.5 29.5t72 10.5
q63 0 95.5 -24.5t32.5 -52.5t-19 -42t-49 -10q-9 30 -17 49t-16.5 30t-19.5 15t-27 4q-17 0 -35.5 -4t-33.5 -12.5t-24.5 -22.5t-9.5 -33q0 -26 12 -48t40 -55l30 -36q27 -32 44.5 -60t17.5 -68q0 -37 -17.5 -66t-46 -49.5t-65.5 -31.5t-76 -11zM47 -257q-23 0 -42 6
t-32.5 15.5t-20.5 21t-7 23.5q0 16 12.5 23t27.5 -1q-2 -33 20 -49.5t52 -16.5q56 0 56 40q0 21 -25 41.5t-60 44.5l136 109h36l-110 -86q26 -19 45 -39.5t19 -45.5q0 -39 -29.5 -62.5t-77.5 -23.5z" />
    <glyph glyph-name="scircumflex" unicode="&#x15d;" horiz-adv-x="440" 
d="M134 -12q-36 0 -62.5 8.5t-44 21t-26.5 28t-9 30.5q0 28 20.5 42t51.5 12q10 -36 18 -57.5t16.5 -33.5t19 -16t24.5 -4q18 0 39.5 4t39.5 14t30 25.5t12 39.5q0 27 -16 53.5t-42 58.5l-28 34q-26 32 -42.5 60.5t-16.5 61.5t17.5 60t46 46t64.5 29.5t72 10.5
q63 0 95.5 -24.5t32.5 -52.5t-19 -42t-49 -10q-9 30 -17 49t-16.5 30t-19.5 15t-27 4q-17 0 -35.5 -4t-33.5 -12.5t-24.5 -22.5t-9.5 -33q0 -26 12 -48t40 -55l30 -36q27 -32 44.5 -60t17.5 -68q0 -37 -17.5 -66t-46 -49.5t-65.5 -31.5t-76 -11zM432 789h8l68 -193h-25
l-70 107l-193 -107h-27z" />
    <glyph glyph-name="uni0219" unicode="&#x219;" horiz-adv-x="440" 
d="M134 -12q-36 0 -62.5 8.5t-44 21t-26.5 28t-9 30.5q0 28 20.5 42t51.5 12q10 -36 18 -57.5t16.5 -33.5t19 -16t24.5 -4q18 0 39.5 4t39.5 14t30 25.5t12 39.5q0 27 -16 53.5t-42 58.5l-28 34q-26 32 -42.5 60.5t-16.5 61.5t17.5 60t46 46t64.5 29.5t72 10.5
q63 0 95.5 -24.5t32.5 -52.5t-19 -42t-49 -10q-9 30 -17 49t-16.5 30t-19.5 15t-27 4q-17 0 -35.5 -4t-33.5 -12.5t-24.5 -22.5t-9.5 -33q0 -26 12 -48t40 -55l30 -36q27 -32 44.5 -60t17.5 -68q0 -37 -17.5 -66t-46 -49.5t-65.5 -31.5t-76 -11zM-45 -319q66 39 100.5 75.5
t34.5 66.5q0 19 -12 30.5t-32 16.5q0 24 14 39.5t37 15.5q27 1 45.5 -16.5t18.5 -46.5q0 -45 -52 -98t-143 -104z" />
    <glyph glyph-name="tbar" unicode="&#x167;" horiz-adv-x="433" 
d="M125 -12q-48 0 -58 26t9 72l148 367h-120l19 49h121l45 113h90l-45 -113h144l-19 -49h-145l-143 -355q-15 -38 -13.5 -51.5t16.5 -13.5q12 0 30 6t38 21t41.5 39.5t41.5 62.5l26 -11q-42 -79 -100.5 -121t-125.5 -42zM69 367h355l-14 -35h-355z" />
    <glyph glyph-name="tcaron" unicode="&#x165;" horiz-adv-x="393" 
d="M105 -12q-48 0 -58 26t9 72l148 367h-120l19 49h121l45 113h90l-45 -113h144l-19 -49h-145l-143 -355q-15 -38 -13.5 -51.5t16.5 -13.5q12 0 30 6t38 21t41.5 39.5t41.5 62.5l26 -11q-42 -79 -100.5 -121t-125.5 -42zM434 573q66 39 100.5 75.5t34.5 66.5q0 18 -12 30
t-32 17q0 24 14 39t37 16q27 0 45.5 -17t18.5 -46q0 -45 -52 -98.5t-143 -104.5z" />
    <glyph glyph-name="uni0163" unicode="&#x163;" horiz-adv-x="393" 
d="M105 -12q-48 0 -58 26t9 72l148 367h-120l19 49h121l45 113h90l-45 -113h144l-19 -49h-145l-143 -355q-15 -38 -13.5 -51.5t16.5 -13.5q12 0 30 6t38 21t41.5 39.5t41.5 62.5l26 -11q-42 -79 -100.5 -121t-125.5 -42zM-86 -319q66 39 100.5 75.5t34.5 66.5q0 19 -12 30.5
t-32 16.5q0 24 14 39.5t37 15.5q27 1 45.5 -16.5t18.5 -46.5q0 -45 -52 -98t-143 -104z" />
    <glyph glyph-name="uni021B" unicode="&#x21b;" horiz-adv-x="393" 
d="M105 -12q-48 0 -58 26t9 72l148 367h-120l19 49h121l45 113h90l-45 -113h144l-19 -49h-145l-143 -355q-15 -38 -13.5 -51.5t16.5 -13.5q12 0 30 6t38 21t41.5 39.5t41.5 62.5l26 -11q-42 -79 -100.5 -121t-125.5 -42zM-86 -319q66 39 100.5 75.5t34.5 66.5q0 19 -12 30.5
t-32 16.5q0 24 14 39.5t37 15.5q27 1 45.5 -16.5t18.5 -46.5q0 -45 -52 -98t-143 -104z" />
    <glyph glyph-name="ubreve" unicode="&#x16d;" horiz-adv-x="597" 
d="M273 502l-123 -311q-17 -44 -24 -74t-4.5 -48.5t12.5 -27t27 -8.5q32 0 71 33t81 89q25 34 54 77.5t56.5 90t51.5 93t40 86.5h91l-193 -502h-89l131 331h-1q-32 -60 -66 -112t-65 -94q-53 -71 -100 -104t-99 -33q-70 0 -88 50.5t21 150.5l124 313h92zM429 613
q-27 0 -52 8.5t-42 27t-23 48t4 72.5h36q-14 -62 9.5 -91t73.5 -29q48 0 87.5 27t59.5 93h38q-14 -47 -35 -77t-46.5 -47.5t-54 -24.5t-55.5 -7z" />
    <glyph glyph-name="uhungarumlaut" unicode="&#x171;" horiz-adv-x="597" 
d="M273 502l-123 -311q-17 -44 -24 -74t-4.5 -48.5t12.5 -27t27 -8.5q32 0 71 33t81 89q25 34 54 77.5t56.5 90t51.5 93t40 86.5h91l-193 -502h-89l131 331h-1q-32 -60 -66 -112t-65 -94q-53 -71 -100 -104t-99 -33q-70 0 -88 50.5t21 150.5l124 313h92zM654 775h107l-2 -7
l-233 -172h-27zM475 775h108l-3 -7l-232 -172h-28z" />
    <glyph glyph-name="umacron" unicode="&#x16b;" horiz-adv-x="597" 
d="M273 502l-123 -311q-17 -44 -24 -74t-4.5 -48.5t12.5 -27t27 -8.5q32 0 71 33t81 89q25 34 54 77.5t56.5 90t51.5 93t40 86.5h91l-193 -502h-89l131 331h-1q-32 -60 -66 -112t-65 -94q-53 -71 -100 -104t-99 -33q-70 0 -88 50.5t21 150.5l124 313h92zM325 711h283
l-15 -43h-283z" />
    <glyph glyph-name="uogonek" unicode="&#x173;" horiz-adv-x="597" 
d="M273 502l-123 -311q-17 -44 -24 -74t-4.5 -48.5t12.5 -27t27 -8.5q32 0 71 33t81 89q25 34 54 77.5t56.5 90t51.5 93t40 86.5h91l-193 -502h-89l131 331h-1q-32 -60 -66 -112t-65 -94q-53 -71 -100 -104t-99 -33q-70 0 -88 50.5t21 150.5l124 313h92zM272 -233
q-36 0 -59.5 16.5t-23.5 48.5q0 24 18 47.5t45 45.5t58.5 41.5t58.5 33.5h25q-21 -16 -46 -33.5t-47 -36.5t-36.5 -39.5t-14.5 -41.5q0 -48 60 -48q19 0 37.5 5t33.5 11l-4 -21q-20 -13 -49 -21t-56 -8z" />
    <glyph glyph-name="uring" unicode="&#x16f;" horiz-adv-x="597" 
d="M273 502l-123 -311q-17 -44 -24 -74t-4.5 -48.5t12.5 -27t27 -8.5q32 0 71 33t81 89q25 34 54 77.5t56.5 90t51.5 93t40 86.5h91l-193 -502h-89l131 331h-1q-32 -60 -66 -112t-65 -94q-53 -71 -100 -104t-99 -33q-70 0 -88 50.5t21 150.5l124 313h92zM461 585
q-24 0 -44.5 8.5t-36.5 23.5t-25 35t-9 44q0 23 9 43t25 35t36.5 24t44.5 9t45.5 -9t37 -24t24.5 -35t9 -43q0 -24 -9 -44t-24.5 -35t-37 -23.5t-45.5 -8.5zM461 620q34 0 55 21t21 55q0 33 -21 54t-55 21q-33 0 -54.5 -21t-21.5 -54q0 -34 21.5 -55t54.5 -21z" />
    <glyph glyph-name="utilde" unicode="&#x169;" horiz-adv-x="597" 
d="M273 502l-123 -311q-17 -44 -24 -74t-4.5 -48.5t12.5 -27t27 -8.5q32 0 71 33t81 89q25 34 54 77.5t56.5 90t51.5 93t40 86.5h91l-193 -502h-89l131 331h-1q-32 -60 -66 -112t-65 -94q-53 -71 -100 -104t-99 -33q-70 0 -88 50.5t21 150.5l124 313h92zM537 629
q-27 0 -45.5 11t-35 23.5t-33 23.5t-37.5 11q-24 0 -43 -14t-30 -48h-22q11 60 40 94.5t71 34.5q25 0 43 -10.5t33.5 -23.5t32 -23.5t39.5 -10.5t40 13.5t28 45.5h22q-14 -69 -42.5 -98t-60.5 -29z" />
    <glyph glyph-name="uni1EE5" unicode="&#x1ee5;" horiz-adv-x="597" 
d="M273 502l-123 -311q-17 -44 -24 -74t-4.5 -48.5t12.5 -27t27 -8.5q32 0 71 33t81 89q25 34 54 77.5t56.5 90t51.5 93t40 86.5h91l-193 -502h-89l131 331h-1q-32 -60 -66 -112t-65 -94q-53 -71 -100 -104t-99 -33q-70 0 -88 50.5t21 150.5l124 313h92zM146 -231
q-24 0 -42.5 18.5t-18.5 43.5q0 24 18.5 42.5t42.5 18.5q25 0 43.5 -18.5t18.5 -42.5q0 -25 -18.5 -43.5t-43.5 -18.5z" />
    <glyph glyph-name="wacute" unicode="&#x1e83;" horiz-adv-x="888" 
d="M204 116l327 386h54l-5 -387l327 387h57l-429 -506h-37l5 412l-351 -412h-38l16 506h90zM709 775h107l-2 -7l-232 -172h-28z" />
    <glyph glyph-name="wcircumflex" unicode="&#x175;" horiz-adv-x="888" 
d="M204 116l327 386h54l-5 -387l327 387h57l-429 -506h-37l5 412l-351 -412h-38l16 506h90zM669 789h8l68 -193h-25l-70 107l-193 -107h-27z" />
    <glyph glyph-name="wdieresis" unicode="&#x1e85;" horiz-adv-x="888" 
d="M204 116l327 386h54l-5 -387l327 387h57l-429 -506h-37l5 412l-351 -412h-38l16 506h90zM747 645q-24 0 -42.5 18.5t-18.5 43.5q0 24 18.5 42.5t42.5 18.5q25 0 43.5 -18.5t18.5 -42.5q0 -25 -18.5 -43.5t-43.5 -18.5zM516 645q-24 0 -42.5 18.5t-18.5 43.5
q0 24 18.5 42.5t42.5 18.5q25 0 43.5 -18.5t18.5 -42.5q0 -25 -18.5 -43.5t-43.5 -18.5z" />
    <glyph glyph-name="wgrave" unicode="&#x1e81;" horiz-adv-x="888" 
d="M204 116l327 386h54l-5 -387l327 387h57l-429 -506h-37l5 412l-351 -412h-38l16 506h90zM585 596l-124 172l3 7h91l54 -179h-24z" />
    <glyph glyph-name="ycircumflex" unicode="&#x177;" horiz-adv-x="552" 
d="M135 18l-19 484h90l14 -393l368 393h60l-703 -750h-59zM485 789h8l68 -193h-25l-70 107l-193 -107h-27z" />
    <glyph glyph-name="ygrave" unicode="&#x1ef3;" horiz-adv-x="552" 
d="M135 18l-19 484h90l14 -393l368 393h60l-703 -750h-59zM401 596l-124 172l3 7h91l54 -179h-24z" />
    <glyph glyph-name="uni0233" unicode="&#x233;" horiz-adv-x="552" 
d="M135 18l-19 484h90l14 -393l368 393h60l-703 -750h-59zM309 711h283l-15 -43h-283z" />
    <glyph glyph-name="zacute" unicode="&#x17a;" horiz-adv-x="522" 
d="M-48 35l486 418h-297l20 49h418l-15 -35l-485 -418h320l-18 -49h-443zM502 775h107l-2 -7l-232 -172h-28z" />
    <glyph glyph-name="zcaron" unicode="&#x17e;" horiz-adv-x="522" 
d="M-48 35l486 418h-297l20 49h418l-15 -35l-485 -418h320l-18 -49h-443zM295 789h25l70 -106l193 106h27l-239 -193h-8z" />
    <glyph glyph-name="zdotaccent" unicode="&#x17c;" horiz-adv-x="522" 
d="M-48 35l486 418h-297l20 49h418l-15 -35l-485 -418h320l-18 -49h-443zM425 645q-24 0 -42.5 18.5t-18.5 43.5q0 24 18.5 42.5t42.5 18.5q25 0 43.5 -18.5t18.5 -42.5q0 -25 -18.5 -43.5t-43.5 -18.5z" />
    <glyph glyph-name="uni0259" unicode="&#x259;" horiz-adv-x="508" 
d="M327.98 515.969q68.9951 0 108.493 -38.498q39.4971 -38.4971 39.4971 -110.493q0 -71.9951 -32.498 -139.991t-83.9941 -120.993q-51.4971 -52.9961 -114.493 -85.4941t-123.993 -32.498q-61.9961 0 -91.4941 25.998q-29.498 25.999 -29.498 64.9961
q0 30.998 19.499 64.4961t58.4961 52.4971l265.983 2q16 33.998 24.499 71.9951q8.49902 37.998 8.49902 77.9951q0 62.9961 -24.998 90.4951q-24.998 27.498 -62.9961 27.498q-50.9971 0 -100.994 -39.998q-49.9971 -39.9971 -89.9941 -103.993l-21.999 15.999
q24.999 40.9971 51.4971 73.9951t56.9961 55.9971q30.499 22.998 65.9961 35.498q35.498 12.499 77.4961 12.499zM125.992 15.999q26.998 0 55.4971 11.499q28.498 11.5 55.4961 31.498q26.999 19.999 50.9971 48.4971q23.998 28.499 42.9971 62.4961h-120.992
q-31.998 0 -58.9961 -8.49902q-26.999 -8.5 -46.498 -22.999q-19.498 -14.499 -30.498 -32.498q-10.999 -17.999 -10.999 -37.9971q0 -23.999 14.499 -37.998t48.4971 -13.999z" />
    <glyph glyph-name="uni0410" unicode="&#x410;" horiz-adv-x="754" 
d="M531 764h82l33 -764h-97l-11 289h-322l-231 -289h-60zM536 336l-13 338l-270 -338h283z" />
    <glyph glyph-name="uni0411" unicode="&#x411;" horiz-adv-x="756" 
d="M34 0l234 758h509l-15 -47h-412l-87 -284h155q73 0 124 -12t82.5 -34t46 -53t14.5 -70q0 -44 -24 -89.5t-73 -83t-124 -61.5t-178 -24h-252zM294 43q76 0 129 18.5t87 48.5t49.5 68t15.5 77q0 31 -9 55t-29.5 40.5t-54.5 25t-84 8.5h-148l-105 -341h149z" />
    <glyph glyph-name="uni0412" unicode="&#x412;" horiz-adv-x="741" 
d="M35 0l232 758h233q56 0 101.5 -7.5t78 -24t50.5 -43t18 -63.5q0 -34 -15.5 -69.5t-49 -66t-85.5 -52.5t-125 -29v-2q97 -2 155 -38t58 -107q0 -48 -23.5 -94t-72 -82t-122.5 -58t-175 -22h-258zM411 421q64 0 108.5 18t72.5 46t40.5 60t12.5 61q0 57 -44 82.5t-122 25.5
h-129l-89 -293h150zM285 44q79 0 135 19t91 49.5t51 69t16 78.5q0 60 -47.5 90t-135.5 30h-147l-103 -336h140z" />
    <glyph glyph-name="uni0413" unicode="&#x413;" horiz-adv-x="613" 
d="M131 0h-97l234 758h467l-15 -47h-370z" />
    <glyph glyph-name="uni0414" unicode="&#x414;" horiz-adv-x="756" 
d="M-94 -166h-28l73 213h69q40 53 77 116t73.5 144.5t74 186t79.5 240.5l7 24h470l-219 -711h94l-57 -213h-28l-25 154q-1 6 -2.5 9t-9.5 3h-501q-11 0 -20 -12zM690 711h-321q-41 -132 -80.5 -238t-77 -188t-71.5 -141.5t-63 -96.5h408z" />
    <glyph glyph-name="uni0415" unicode="&#x415;" horiz-adv-x="664" 
d="M267 758h500l-15 -47h-403l-89 -292h345l-14 -47h-345l-99 -325h402l-14 -47h-500z" />
    <glyph glyph-name="uni0401" unicode="&#x401;" horiz-adv-x="664" 
d="M268 758h500l-15 -47h-403l-89 -292h345l-14 -47h-345l-99 -325h402l-14 -47h-500zM685 858q-24 0 -42.5 18.5t-18.5 43.5q0 24 18.5 42.5t42.5 18.5q25 0 43.5 -18.5t18.5 -42.5q0 -25 -18.5 -43.5t-43.5 -18.5zM454 858q-24 0 -42.5 18.5t-18.5 43.5q0 24 18.5 42.5
t42.5 18.5q25 0 43.5 -18.5t18.5 -42.5q0 -25 -18.5 -43.5t-43.5 -18.5z" />
    <glyph glyph-name="uni0416" unicode="&#x416;" horiz-adv-x="1113" 
d="M-96 0l562 418l-263 340h68l287 -370l1 -1l114 371h97l-114 -370l5 3l511 367h79l-496 -356l292 -402h-117l-277 380l-117 -380h-97l117 380l-511 -380h-141z" />
    <glyph glyph-name="uni0417" unicode="&#x417;" horiz-adv-x="704" 
d="M254 -12q-67 0 -123 12.5t-91 37.5l15 198h28l44 -137q8 -26 26 -40t34 -19q14 -5 31.5 -7.5t39.5 -2.5q64 0 115.5 19t86.5 49t54 68.5t19 77.5q0 60 -42.5 98t-133.5 38h-112l12 41h110q55 0 99 16.5t74 43.5t46 62t16 71q0 52 -35 85t-111 33q-20 0 -34 -1.5t-30 -5.5
q-17 -5 -35 -14t-38 -31l-144 -154h-28l97 198q49 24 112.5 37t124.5 13q50 0 92 -10.5t72.5 -30t47.5 -48.5t17 -65q0 -46 -21 -83t-58 -64t-87.5 -44.5t-108.5 -23.5v-1q105 -2 156 -46t51 -113q0 -48 -26 -94t-75.5 -82t-121.5 -58.5t-165 -22.5z" />
    <glyph glyph-name="uni0418" unicode="&#x418;" horiz-adv-x="871" 
d="M34 0l234 758h97l-202 -657l656 657h97l-234 -758h-97l202 657l-656 -657h-97z" />
    <glyph glyph-name="uni0419" unicode="&#x419;" horiz-adv-x="871" 
d="M34 0l234 758h97l-202 -657l656 657h97l-234 -758h-97l202 657l-656 -657h-97zM611 836q-50 0 -82 12t-49 32.5t-19.5 48.5t7.5 61h76q-18 -59 -1.5 -94.5t68.5 -35.5q54 0 88.5 35.5t52.5 94.5h76q-23 -74 -77.5 -114t-139.5 -40z" />
    <glyph glyph-name="uni041A" unicode="&#x41a;" horiz-adv-x="756" 
d="M267 758h97l-113 -370l10 6l555 364h79l-543 -356l341 -402h-117l-327 381l-117 -381h-97z" />
    <glyph glyph-name="uni041B" unicode="&#x41b;" horiz-adv-x="722" 
d="M56 37q-16 -16 -29 -25.5t-25 -15t-23 -7t-21 -1.5q-19 0 -30 8t-11 25q0 18 12.5 32.5t55.5 32.5q47 20 84.5 61t72.5 115.5t73 189t87 282.5l7 24h458l-233 -758h-97l219 711h-307q-46 -155 -83.5 -265t-71.5 -187.5t-67.5 -130t-70.5 -91.5z" />
    <glyph glyph-name="uni041C" unicode="&#x41c;" horiz-adv-x="1005" 
d="M87 0h-52l232 758h90l150 -490l447 490h97l-232 -758h-97l198 646l-445 -485h-40l-150 485z" />
    <glyph glyph-name="uni041D" unicode="&#x41d;" horiz-adv-x="859" 
d="M267 758h97l-104 -339h444l104 339h97l-232 -758h-97l114 372h-444l-114 -372h-97z" />
    <glyph glyph-name="uni041E" unicode="&#x41e;" horiz-adv-x="887" 
d="M376 -12q-61 0 -115 18t-94 53t-63.5 87t-23.5 120q0 56 17 115.5t49 116t77.5 107t102.5 88t125 59.5t144 22q61 0 115 -18t94.5 -53t63.5 -86.5t23 -119.5q0 -56 -17 -115.5t-48.5 -116.5t-77 -107t-103 -88t-125.5 -60t-144 -22zM393 28q79 0 150 39.5t123.5 104.5
t83.5 148.5t31 172.5q0 54 -13.5 98t-39 76t-63.5 49.5t-87 17.5q-80 0 -150 -39t-123 -104t-83.5 -149t-30.5 -173q0 -53 13 -97.5t38.5 -76.5t63.5 -49.5t87 -17.5z" />
    <glyph glyph-name="uni041F" unicode="&#x41f;" horiz-adv-x="837" 
d="M882 758l-234 -758h-97l219 711h-420l-219 -711h-97l234 758h614z" />
    <glyph glyph-name="uni0420" unicode="&#x420;" horiz-adv-x="719" 
d="M268 758h249q58 0 108 -7.5t86.5 -25.5t57 -47.5t20.5 -72.5q0 -56 -25.5 -104t-75 -82.5t-122.5 -54t-168 -19.5h-159l-106 -345h-97zM253 390h152q69 0 121 18t86.5 47t51.5 66t17 75q0 34 -13 56.5t-36 36t-55.5 19.5t-72.5 6h-152z" />
    <glyph glyph-name="uni0421" unicode="&#x421;" horiz-adv-x="821" 
d="M419 -12q-67 0 -127.5 19.5t-106 58t-72 96t-26.5 134.5q0 100 44.5 187.5t118.5 152t168.5 101.5t195.5 37q75 0 138 -18t102 -47l-26 -183h-30l-14 125q-2 21 -17.5 36.5t-38.5 25t-52 14.5t-59 5q-80 0 -155.5 -32t-134 -91.5t-94.5 -144t-36 -188.5
q0 -67 19.5 -113.5t53 -76t78 -43t94.5 -13.5q57 0 102 10t74 46l122 151h30l-101 -200q-47 -24 -113 -36.5t-137 -12.5z" />
    <glyph glyph-name="uni0422" unicode="&#x422;" horiz-adv-x="700" 
d="M441 711h-290l15 47h677l-15 -47h-290l-217 -711h-97z" />
    <glyph glyph-name="uni0423" unicode="&#x423;" horiz-adv-x="751" 
d="M347 132q-35 -41 -62.5 -69t-50 -44.5t-42 -23.5t-38.5 -7q-17 0 -27 9t-10 23q0 17 12 31.5t39 26.5q23 10 42.5 18.5t38 20t38 28t43.5 43.5l-160 570h104l132 -478l402 478h66z" />
    <glyph glyph-name="uni0424" unicode="&#x424;" horiz-adv-x="981" 
d="M379 79q-149 9 -227.5 70.5t-78.5 183.5q0 67 36 128.5t101 109.5t156 79t201 37l28 93h107l-28 -93q148 -8 226 -70t80 -184q-1 -68 -37 -129.5t-101 -109.5t-156 -78.5t-200 -36.5l-30 -99h-107zM185 333q0 -97 49 -147.5t160 -60.5l158 516q-85 -6 -153 -32.5
t-115.5 -67.5t-73 -94.5t-25.5 -113.5zM868 433q-2 97 -50.5 147.5t-158.5 60.5l-159 -516q85 6 152.5 32.5t115.5 67.5t73.5 94.5t26.5 113.5z" />
    <glyph glyph-name="uni0425" unicode="&#x425;" horiz-adv-x="737" 
d="M388 393l-146 365h109l119 -297l363 297h78l-422 -345l165 -413h-109l-138 345l-422 -345h-78z" />
    <glyph glyph-name="uni0426" unicode="&#x426;" horiz-adv-x="836" 
d="M34 0l233 758h97l-219 -711h420l219 711h97l-219 -711h94l-57 -213h-28l-25 154q-1 6 -2.5 9t-9.5 3h-600z" />
    <glyph glyph-name="uni0427" unicode="&#x427;" horiz-adv-x="762" 
d="M207 758h97l-54 -173q-20 -65 -17 -105t24 -62t59 -30t88 -8q44 0 79.5 2t61.5 5q30 4 53 8l112 363h97l-234 -758h-97l109 353q-30 -5 -62 -9q-27 -3 -59 -5.5t-61 -2.5q-82 0 -139.5 12t-89 42t-36.5 79.5t18 124.5z" />
    <glyph glyph-name="uni0428" unicode="&#x428;" horiz-adv-x="1090" 
d="M34 0l234 758h97l-219 -711h288l219 711h97l-219 -711h288l219 711h97l-234 -758h-867z" />
    <glyph glyph-name="uni0429" unicode="&#x429;" horiz-adv-x="1089" 
d="M34 0l233 758h97l-219 -711h288l219 711h97l-219 -711h288l219 711h97l-219 -711h94l-57 -213h-28l-25 154q-1 6 -2.5 9t-9.5 3h-853z" />
    <glyph glyph-name="uni042A" unicode="&#x42a;" horiz-adv-x="830" 
d="M511 437q137 0 208 -50t71 -141q0 -56 -33.5 -101t-90.5 -77.5t-132 -50t-158 -17.5h-236l219 711h-185l15 47h282l-99 -321h139zM355 47q77 0 137.5 14t102.5 40t64 62.5t22 82.5q0 39 -12.5 66.5t-39 45t-68.5 25t-102 7.5h-102l-105 -343h103z" />
    <glyph glyph-name="uni042B" unicode="&#x42b;" horiz-adv-x="990" 
d="M405 437q137 0 208 -50t71 -141q0 -56 -33.5 -101t-90.5 -77.5t-132 -50t-158 -17.5h-236l234 758h97l-99 -321h139zM249 47q77 0 137.5 14t102.5 40t64 62.5t22 82.5q0 39 -12.5 66.5t-39 45t-68.5 25t-102 7.5h-102l-105 -343h103zM943 758h97l-232 -758h-97z" />
    <glyph glyph-name="uni042C" unicode="&#x42c;" horiz-adv-x="724" 
d="M405 437q137 0 208 -50t71 -141q0 -56 -33.5 -101t-90.5 -77.5t-132 -50t-158 -17.5h-236l234 758h97l-99 -321h139zM249 47q77 0 137.5 14t102.5 40t64 62.5t22 82.5q0 39 -12.5 66.5t-39 45t-68.5 25t-102 7.5h-102l-105 -343h103z" />
    <glyph glyph-name="uni042D" unicode="&#x42d;" horiz-adv-x="804" 
d="M475 774q67 0 127.5 -19.5t106 -58t72 -96.5t26.5 -134q0 -67 -20.5 -128t-56.5 -114.5t-86 -97t-108.5 -74t-123.5 -47.5t-132 -17q-75 0 -138 18t-102 47l18 193h27l33 -137q5 -19 10.5 -29.5t18.5 -18.5q16 -10 46.5 -20.5t83.5 -10.5q68 0 133.5 23.5t121 68
t96 107.5t58.5 143h-409l15 47h403q2 17 3 33.5t1 33.5q0 67 -20 113.5t-53.5 76t-78.5 43t-95 13.5q-43 0 -86 -9q-12 -2 -24 -7t-28 -21l-174 -182h-27l121 212q23 12 52 21t60.5 15.5t64 9.5t64.5 3z" />
    <glyph glyph-name="uni042E" unicode="&#x42e;" horiz-adv-x="1118" 
d="M267 758h97l-104 -339h99q25 69 69.5 133t106 113.5t137.5 79t163 29.5q59 0 111 -18t91 -53t61.5 -86.5t22.5 -119.5q0 -56 -16.5 -115.5t-47.5 -116.5t-76 -107t-101 -88t-122.5 -60t-141.5 -22q-59 0 -111 18t-91 53t-61.5 87t-22.5 120q0 50 14 106h-99l-114 -372
h-97zM633 28q78 0 146.5 39.5t120.5 104.5t82 148.5t30 172.5q0 54 -12.5 98t-37.5 76t-61 49.5t-83 17.5q-78 0 -146.5 -39t-120 -104t-81.5 -149t-30 -173q0 -53 12.5 -97.5t37 -76.5t60.5 -49.5t83 -17.5z" />
    <glyph glyph-name="uni042F" unicode="&#x42f;" horiz-adv-x="751" 
d="M-46 0l416 359q-78 11 -121.5 47.5t-43.5 101.5q0 58 28 104.5t78 78.5t120.5 49.5t156.5 17.5h208l-234 -758h-97l106 344h-93l-399 -344h-125zM685 714h-98q-61 0 -111.5 -14t-87 -41t-56.5 -65t-20 -86q0 -120 174 -120h99z" />
    <glyph glyph-name="uni0402" unicode="&#x402;" horiz-adv-x="872" 
d="M185 0l219 711h-254l14 47h645l-14 -47h-294l-93 -303q54 29 111 42.5t103 13.5q60 0 99.5 -16.5t60 -46t22 -71t-13.5 -92.5l-29 -95q-12 -41 -27.5 -70t-36.5 -52t-49.5 -44t-67.5 -45q-23 -15 -60 -35l-74 -40l-9 27q49 33 85 57.5t62 51t44.5 59.5t33.5 83l34 112
q15 48 13.5 81t-18 53t-46 28.5t-69.5 8.5q-25 0 -51 -4.5t-50 -12t-45 -17.5t-36 -20l-112 -364h-97z" />
    <glyph glyph-name="uni0403" unicode="&#x403;" horiz-adv-x="613" 
d="M131 0h-97l234 758h467l-15 -47h-370zM646 972h122l-1 -2l-246 -131h-25z" />
    <glyph glyph-name="uni0404" unicode="&#x404;" horiz-adv-x="821" 
d="M418 -12q-67 0 -127.5 19.5t-106 58t-72 96t-26.5 134.5q0 100 44.5 187.5t118.5 152t168.5 101.5t195.5 37q75 0 138 -18t102 -47l-26 -183h-30l-14 125q-2 21 -17.5 36.5t-38.5 25t-52 14.5t-59 5q-65 0 -127.5 -21.5t-116 -62t-94.5 -98.5t-62 -131h368l-14 -47h-365
q-9 -47 -9 -96q0 -67 19.5 -113.5t53 -76t78 -43t94.5 -13.5q57 0 102 10t74 46l122 151h30l-101 -200q-47 -24 -113 -36.5t-137 -12.5z" />
    <glyph glyph-name="uni0405" unicode="&#x405;" horiz-adv-x="620" 
d="M215 -12q-57 0 -114 14t-102 42l59 203h26l-2 -141q0 -19 3 -30t16 -19q21 -14 54.5 -21t68.5 -7q49 0 89 10.5t68.5 30t43.5 47t15 60.5q0 42 -26 85t-71 90l-41 43q-37 39 -63 83t-26 95q0 45 22.5 82t62.5 63.5t93 41t115 14.5q54 0 100 -12.5t79 -36.5l-39 -186h-28
l-8 125q-1 31 -16 43q-17 13 -44.5 19.5t-59.5 6.5q-41 0 -75 -9t-59 -25.5t-38.5 -40t-13.5 -52.5q0 -35 21.5 -70.5t55.5 -72.5l42 -45q55 -59 80.5 -105.5t25.5 -94.5q0 -51 -22.5 -93.5t-64 -72.5t-99.5 -47t-128 -17z" />
    <glyph glyph-name="uni0406" unicode="&#x406;" horiz-adv-x="318" 
d="M267 758h97l-232 -758h-97z" />
    <glyph glyph-name="uni0407" unicode="&#x407;" horiz-adv-x="318" 
d="M268 758h97l-232 -758h-97zM476 858q-24 0 -42.5 18.5t-18.5 43.5q0 24 18.5 42.5t42.5 18.5q25 0 43.5 -18.5t18.5 -42.5q0 -25 -18.5 -43.5t-43.5 -18.5zM245 858q-24 0 -42.5 18.5t-18.5 43.5q0 24 18.5 42.5t42.5 18.5q25 0 43.5 -18.5t18.5 -42.5q0 -25 -18.5 -43.5
t-43.5 -18.5z" />
    <glyph glyph-name="uni0408" unicode="&#x408;" horiz-adv-x="323" 
d="M-140 -116q49 33 85 57.5t62 50.5t44.5 59t33.5 83l191 624h97l-188 -615q-12 -41 -27.5 -70t-37 -52t-50 -44t-66.5 -45q-24 -15 -59 -34t-72 -39z" />
    <glyph glyph-name="uni0409" unicode="&#x409;" horiz-adv-x="1094" 
d="M56 37q-16 -16 -29 -25.5t-25 -15t-23 -7t-21 -1.5q-19 0 -30 8t-11 25q0 18 12.5 32.5t55.5 32.5q47 20 84.5 61t72.5 115.5t73 189t87 282.5l7 24h436l-99 -321h129q137 0 208 -50t71 -141q0 -56 -33.5 -101t-90.5 -77.5t-132 -50t-158 -17.5h-226l219 711h-284
q-46 -155 -83.5 -265t-71.5 -187.5t-67.5 -130t-70.5 -91.5zM619 47q77 0 137.5 14t102.5 40t64 62.5t22 82.5q0 39 -12.5 66.5t-39 45t-68.5 25t-102 7.5h-92l-105 -343h93z" />
    <glyph glyph-name="uni040A" unicode="&#x40a;" horiz-adv-x="1193" 
d="M34 0l234 758h97l-102 -329h384l102 329h97l-102 -329h130q137 0 208 -50t71 -141q0 -56 -33 -100t-89.5 -74.5t-131.5 -47t-158 -16.5h-226l118 382h-384l-118 -382h-97zM720 47q155 0 239.5 49.5t84.5 141.5q0 39 -12.5 66.5t-39 45t-68.5 25t-102 7.5h-92l-103 -335
h93z" />
    <glyph glyph-name="uni040B" unicode="&#x40b;" horiz-adv-x="894" 
d="M185 0l219 711h-254l15 47h645l-15 -47h-294l-93 -303q45 24 99.5 40t113.5 16q61 0 101.5 -15.5t61 -44.5t22 -70.5t-14.5 -93.5l-74 -240h-97l76 247q15 47 13.5 79.5t-17 53t-43.5 29.5t-67 9q-27 0 -54 -4.5t-51.5 -12t-46 -17.5t-36.5 -20l-112 -364h-97z" />
    <glyph glyph-name="uni040C" unicode="&#x40c;" horiz-adv-x="756" 
d="M267 758h97l-113 -370l10 6l555 364h79l-543 -356l341 -402h-117l-327 381l-117 -381h-97zM701 972h122l-1 -2l-246 -131h-25z" />
    <glyph glyph-name="uni040E" unicode="&#x40e;" horiz-adv-x="751" 
d="M347 132q-35 -41 -62.5 -69t-50 -44.5t-42 -23.5t-38.5 -7q-17 0 -27 9t-10 23q0 17 12 31.5t39 26.5q23 10 42.5 18.5t38 20t38 28t43.5 43.5l-160 570h104l132 -478l402 478h66zM544 836q-50 0 -82 12t-49 32.5t-19.5 48.5t7.5 61h76q-18 -59 -1.5 -94.5t68.5 -35.5
q54 0 88.5 35.5t52.5 94.5h76q-23 -74 -77.5 -114t-139.5 -40z" />
    <glyph glyph-name="uni040F" unicode="&#x40f;" horiz-adv-x="837" 
d="M287 -12q0 8 -2.5 10t-10.5 2h-240l234 758h97l-219 -711h420l219 711h97l-234 -758h-234q-8 0 -11 -2t-8 -10l-85 -144h-28z" />
    <glyph glyph-name="uni0490" unicode="&#x490;" horiz-adv-x="641" 
d="M350 711l-219 -711h-97l233 758h369q8 0 11.5 3t8.5 9l119 154h28l-73 -213h-380z" />
    <glyph glyph-name="uni0462" unicode="&#x462;" horiz-adv-x="862" 
d="M532 383q128 0 191.5 -36t63.5 -117q0 -50 -28.5 -92t-79 -72.5t-118.5 -48t-147 -17.5h-272l179 581h-249l15 47h249l40 130h97l-40 -130h250l-15 -47h-250l-61 -198h175zM393 47q71 0 124 14.5t88 38.5t52.5 55t17.5 64q0 62 -44 89.5t-150 27.5h-138l-89 -289h139z
" />
    <glyph glyph-name="uni0472" unicode="&#x472;" horiz-adv-x="887" 
d="M375 -12q-61 0 -115 18t-94 53t-63.5 87t-23.5 120q0 56 17 115.5t49 116t77.5 107t102.5 88t125 59.5t144 22q61 0 115 -18t94.5 -53t63.5 -86.5t23 -119.5q0 -56 -17 -115.5t-48.5 -116.5t-77 -107t-103 -88t-125.5 -60t-144 -22zM206 393q83 30 145 37t110 2t86 -18
t73 -23t70.5 -12.5t78.5 13.5q11 52 11 101q0 54 -13.5 98t-39 76t-63.5 49.5t-87 17.5q-66 0 -125.5 -27t-108 -73.5t-84 -108.5t-53.5 -132zM392 28q63 0 121.5 25.5t106.5 70t84 103.5t56 126q-70 -26 -124.5 -31.5t-100 0t-84.5 17.5t-78.5 21t-82 10t-93.5 -15
q-4 -21 -5.5 -42.5t-1.5 -43.5q0 -53 13 -97.5t38.5 -76.5t63.5 -49.5t87 -17.5z" />
    <glyph glyph-name="uni0474" unicode="&#x474;" horiz-adv-x="794" 
d="M284 -6h-50l-47 764h99l33 -638l388 476q43 53 74 87.5t54.5 54.5t42.5 28t38 8q37 0 37 -31q0 -19 -15 -34.5t-49 -30.5q-17 -8 -33.5 -17t-34.5 -23.5t-39 -36t-47 -53.5z" />
    <glyph glyph-name="uni0492" unicode="&#x492;" horiz-adv-x="612" 
d="M131 0h-97l234 758h467l-15 -47h-370zM67 419h377l-15 -47h-377z" />
    <glyph glyph-name="uni0496" unicode="&#x496;" horiz-adv-x="1158" 
d="M-96 0l562 418l-263 340h68l287 -370l1 -1l114 371h97l-114 -370l5 3l511 367h79l-496 -356l258 -355h95l-58 -213h-28l-24 154q-2 5 -3.5 8.5t-7.5 3.5h-57l-277 380l-117 -380h-97l117 380l-511 -380h-141z" />
    <glyph glyph-name="uni049A" unicode="&#x49a;" horiz-adv-x="796" 
d="M266 758h97l-113 -370l10 6l555 364h79l-543 -356l301 -355h100l-58 -213h-28l-24 154q-2 5 -3.5 8.5t-7.5 3.5h-56l-327 381l-117 -381h-97z" />
    <glyph glyph-name="uni04A2" unicode="&#x4a2;" horiz-adv-x="859" 
d="M266 758h97l-104 -339h444l104 339h97l-218 -711h93l-58 -213h-28l-24 154q-2 6 -3.5 9t-9.5 3h-83l15 47h1l100 325h-444l-114 -372h-97z" />
    <glyph glyph-name="uni04AE" unicode="&#x4ae;" horiz-adv-x="768" 
d="M321 0h-98l129 342l-161 416h104l140 -366l417 366h68l-471 -416z" />
    <glyph glyph-name="uni04B0" unicode="&#x4b0;" horiz-adv-x="770" 
d="M322 0h-98l129 342l-161 416h104l140 -366l417 366h68l-471 -416zM170 345h456l-15 -47h-456z" />
    <glyph glyph-name="uni04B2" unicode="&#x4b2;" horiz-adv-x="760" 
d="M387 393l-146 365h109l119 -297l363 297h78l-422 -345l146 -366h84l-58 -213h-28l-24 154q-2 6 -3.5 9t-9.5 3h-51l-138 345l-422 -345h-78z" />
    <glyph glyph-name="uni04B6" unicode="&#x4b6;" horiz-adv-x="762" 
d="M207 758h97l-54 -173q-20 -65 -17 -105t24 -62t59 -30t88 -8q44 0 79.5 2t61.5 5q30 4 53 8l112 363h97l-219 -711h94l-58 -213h-28l-24 154q-2 6 -3.5 9t-9.5 3h-83l109 353q-30 -5 -62 -9q-27 -3 -59 -5.5t-61 -2.5q-82 0 -139.5 12t-89 42t-36.5 79.5t18 124.5z" />
    <glyph glyph-name="uni04BA" unicode="&#x4ba;" horiz-adv-x="794" 
d="M633.961 0h-96.9941l53.9971 172.989q19.999 64.9961 16.999 104.994q-3 39.9971 -23.998 61.9961q-20.999 21.998 -58.9971 29.998q-37.9971 7.99902 -87.9941 7.99902q-43.998 0 -79.4951 -2q-35.498 -1.99902 -61.4961 -4.99902q-29.999 -4 -52.9971 -8
l-111.993 -362.978h-96.9941l233.985 757.954h96.9941l-108.993 -352.979q29.998 4.99902 61.9961 8.99902q26.998 3 58.9961 5.5t60.9971 2.5q81.9951 0 139.491 -12q57.4961 -11.999 88.9941 -41.9971t36.498 -79.4951t-17.999 -124.492z" />
    <glyph glyph-name="uni04C0" unicode="&#x4c0;" horiz-adv-x="313" 
d="M267 758h97l-232 -758h-97z" />
    <glyph glyph-name="uni04D8" unicode="&#x4d8;" horiz-adv-x="816" 
d="M359 -11q-71 0 -125 21.5t-89.5 61t-51 95t-9.5 123.5h614q26 76 26 157q0 67 -19.5 116.5t-54 82.5t-81 49.5t-99.5 16.5q-59 0 -110.5 -18t-94 -51.5t-76 -80.5t-56.5 -104h-23q24 78 65.5 137.5t94.5 99t116 60t129 20.5q65 0 121 -20t97 -57.5t64.5 -92t23.5 -124.5
q0 -87 -34 -174.5t-95.5 -158t-146 -115t-186.5 -44.5zM370 17q50 0 96.5 17.5t86.5 48.5t72.5 73.5t55.5 92.5h-500q-8 -115 41.5 -173.5t147.5 -58.5z" />
    <glyph glyph-name="uni04E2" unicode="&#x4e2;" horiz-adv-x="871" 
d="M34 0l234 758h97l-202 -657l656 657h97l-234 -758h-97l202 657l-656 -657h-97zM489 925h280l-14 -42h-281z" />
    <glyph glyph-name="uni04E8" unicode="&#x4e8;" horiz-adv-x="887" 
d="M375 -12q-61 0 -115 18t-94 53t-63.5 87t-23.5 120q0 56 17 115.5t49 116t77.5 107t102.5 88t125 59.5t144 22q61 0 115 -18t94.5 -53t63.5 -86.5t23 -119.5q0 -56 -17 -115.5t-48.5 -116.5t-77 -107t-103 -88t-125.5 -60t-144 -22zM392 28q66 0 125.5 27.5t109 74
t85 109t53.5 133.5h-564q-11 -53 -11 -103q0 -53 13 -97.5t38.5 -76.5t63.5 -49.5t87 -17.5zM577 734q-63 0 -120 -24.5t-104.5 -67.5t-83.5 -100t-56 -123h561q6 36 6 74q0 54 -13.5 98t-39 76t-63.5 49.5t-87 17.5z" />
    <glyph glyph-name="uni04EE" unicode="&#x4ee;" horiz-adv-x="751" 
d="M347 132q-35 -41 -62.5 -69t-50 -44.5t-42 -23.5t-38.5 -7q-17 0 -27 9t-10 23q0 17 12 31.5t39 26.5q23 10 42.5 18.5t38 20t38 28t43.5 43.5l-160 570h104l132 -478l402 478h66zM410 925h280l-14 -42h-281z" />
    <glyph glyph-name="uni0430" unicode="&#x430;" horiz-adv-x="571" 
d="M301 0l65 167h-2q-25 -35 -53 -67.5t-59 -57.5t-65.5 -39.5t-71.5 -14.5q-48 0 -74 29.5t-26 81.5q0 45 17 93t45.5 94.5t66 88t79.5 73t85.5 50t83.5 18.5q38 0 56.5 -20.5t21.5 -50.5h1l25 67h90l-196 -512h-89zM167 37q28 0 63.5 24t71 64t67.5 90.5t53 103.5
q18 46 22.5 78t-1 51.5t-20 28.5t-33.5 9q-31 0 -63.5 -17.5t-63.5 -47t-58 -68t-47.5 -80.5t-32.5 -85t-12 -80q0 -34 13 -52.5t41 -18.5z" />
    <glyph glyph-name="uni0431" unicode="&#x431;" horiz-adv-x="571" 
d="M541 352q0 -40 -13 -82.5t-36.5 -83t-55.5 -76.5t-69.5 -63t-79 -43t-83.5 -16q-34 0 -65.5 8.5t-55.5 27t-38 49t-14 74.5q0 100 42.5 199.5t115.5 182.5t170 140t205 72q35 5 57.5 9t36 9t20.5 13t12 20h18q-12 -32 -24.5 -55t-31 -39.5t-45 -26.5t-66.5 -14
q-62 -7 -99 -11t-58.5 -8.5t-34.5 -9.5t-27 -14q-16 -9 -33 -28.5t-34 -46.5t-33.5 -60.5t-31.5 -70.5q40 47 88.5 72.5t116.5 25.5q71 0 108.5 -41.5t37.5 -112.5zM223 25q52 0 92.5 31t68.5 79.5t42.5 106.5t14.5 112q0 51 -22 78t-73 27q-92 0 -162 -69
q-23 -61 -37 -124.5t-14 -118.5q0 -54 23 -88t67 -34z" />
    <glyph glyph-name="uni0432" unicode="&#x432;" horiz-adv-x="528" 
d="M440 174q0 -30 -16.5 -62.5t-48.5 -60t-78 -45.5t-104 -18q-44 0 -74.5 11t-49.5 29.5t-28 44.5t-9 56q0 41 14 85.5t38.5 87.5t58 82t72.5 68t82.5 46.5t87.5 17.5q69 0 101.5 -25t32.5 -60q0 -22 -12.5 -45.5t-37.5 -44.5t-62.5 -37.5t-86.5 -24.5q59 -5 89.5 -32.5
t30.5 -72.5zM380 488q-34 0 -66 -17t-60 -45.5t-51 -65.5t-39 -77l55 6q103 11 154 55t51 101q0 19 -10.5 31t-33.5 12zM214 16q28 0 51.5 13t40.5 34.5t26.5 48.5t9.5 54q0 56 -33 75t-93 12l-66 -7q-8 -28 -13 -54.5t-5 -51.5q0 -53 19 -88.5t63 -35.5z" />
    <glyph glyph-name="uni0433" unicode="&#x433;" horiz-adv-x="457" 
d="M156 -12q-35 0 -64.5 7t-51.5 21.5t-34.5 35.5t-12.5 50q0 39 16.5 65t43.5 44t61.5 31t70.5 25l57 19q25 8 48 19t41 26t28.5 34t10.5 45q0 36 -19 55t-50 19q-29 0 -48 -6q-12 -4 -22.5 -12t-27.5 -25l-98 -106h-22l72 148q15 8 34.5 14t40.5 10.5t41.5 6.5t37.5 2
q63 0 100.5 -28t37.5 -89q0 -38 -15.5 -65.5t-41 -48.5t-57.5 -35.5t-66 -26.5l-55 -19q-27 -9 -52.5 -20t-45 -24.5t-31 -30.5t-11.5 -40q0 -38 23.5 -53t61.5 -15q35 0 62 6q12 3 24 7.5t29 26.5l101 126h21l-72 -167q-39 -16 -83 -24t-83 -8z" />
    <glyph glyph-name="uni0434" unicode="&#x434;" horiz-adv-x="535" 
d="M162 -12q-61 0 -99 33.5t-38 99.5q0 39 12.5 83.5t34.5 88.5t51.5 84.5t64.5 71.5t73 49.5t76 18.5q32 0 55 -13t37 -34q3 40 3 80q0 42 -6 79t-19 64t-32.5 43t-47.5 16q-22 0 -40.5 -7t-35.5 -24l-16 14q17 21 42 35t66 14q48 0 83 -20t57.5 -54.5t33.5 -79.5t11 -96
q0 -103 -25 -201.5t-72 -175t-115 -123t-154 -46.5zM123 113q0 -46 17.5 -72t54.5 -26q43 0 80.5 33.5t67.5 90t51 131t31 156.5q-10 32 -30.5 51t-52.5 19q-29 0 -56.5 -18t-51.5 -48t-44.5 -69t-35.5 -82t-23 -86t-8 -80z" />
    <glyph glyph-name="uni0435" unicode="&#x435;" horiz-adv-x="505" 
d="M178 -12q-69 0 -108.5 38.5t-39.5 110.5t32.5 140t84 121t114.5 85.5t124 32.5q62 0 91.5 -26t29.5 -65q0 -31 -19.5 -64.5t-58.5 -52.5l-266 -2q-16 -34 -24.5 -72t-8.5 -78q0 -63 25 -90.5t63 -27.5q51 0 101 40t90 104l22 -16q-25 -41 -51.5 -74t-57 -56t-66 -35.5
t-77.5 -12.5zM380 488q-27 0 -55.5 -11.5t-55.5 -31.5t-51 -48.5t-43 -62.5h121q32 0 59 8.5t46.5 23t30.5 32.5t11 38q0 24 -14.5 38t-48.5 14z" />
    <glyph glyph-name="uni0451" unicode="&#x451;" horiz-adv-x="505" 
d="M179 -12q-69 0 -108.5 38.5t-39.5 110.5t32.5 140t84 121t114.5 85.5t124 32.5q62 0 91.5 -26t29.5 -65q0 -31 -19.5 -64.5t-58.5 -52.5l-266 -2q-16 -34 -24.5 -72t-8.5 -78q0 -63 25 -90.5t63 -27.5q51 0 101 40t90 104l22 -16q-25 -41 -51.5 -74t-57 -56t-66 -35.5
t-77.5 -12.5zM381 488q-27 0 -55.5 -11.5t-55.5 -31.5t-51 -48.5t-43 -62.5h121q32 0 59 8.5t46.5 23t30.5 32.5t11 38q0 24 -14.5 38t-48.5 14zM575 645q-24 0 -42.5 18.5t-18.5 43.5q0 24 18.5 42.5t42.5 18.5q25 0 43.5 -18.5t18.5 -42.5q0 -25 -18.5 -43.5t-43.5 -18.5z
M344 645q-24 0 -42.5 18.5t-18.5 43.5q0 24 18.5 42.5t42.5 18.5q25 0 43.5 -18.5t18.5 -42.5q0 -25 -18.5 -43.5t-43.5 -18.5z" />
    <glyph glyph-name="uni0436" unicode="&#x436;" horiz-adv-x="899" 
d="M-60 0l410 290l-166 212h58l188 -241l92 241h90l-92 -240l66 43v1l1 -1l305 197h71l-356 -229l178 -273h-100l-167 257l-98 -257h-90l98 257l-363 -257h-125z" />
    <glyph glyph-name="uni0437" unicode="&#x437;" horiz-adv-x="498" 
d="M173 -12q-87 0 -125 23t-38 68q0 29 26.5 48t68.5 13q-15 -66 0.5 -94.5t69.5 -28.5q34 0 61.5 13t47 33.5t30.5 45.5t11 49q0 34 -24 59t-77 25h-63l14 36h63q34 0 61 10.5t45.5 27.5t28 38.5t9.5 43.5q0 32 -17.5 51.5t-52.5 19.5q-54 0 -95 -29.5t-79 -80.5l-24 15
q45 65 95.5 103.5t123.5 38.5q67 0 106 -29t39 -79q0 -22 -11 -44.5t-32.5 -42t-55 -34t-78.5 -20.5l-1 -1q64 -4 94 -33t30 -67q0 -30 -17 -61.5t-49.5 -57.5t-79 -42.5t-105.5 -16.5z" />
    <glyph glyph-name="uni0438" unicode="&#x438;" horiz-adv-x="593" 
d="M272 502l-123 -311q-17 -44 -24 -74t-4.5 -48.5t12.5 -27t27 -8.5q32 0 71 33t81 89q25 34 54 77.5t56.5 90t51.5 93t40 86.5h91l-193 -502h-89l131 331h-1q-32 -60 -66 -112t-65 -94q-53 -71 -100 -104t-99 -33q-70 0 -88 50.5t21 150.5l124 313h92z" />
    <glyph glyph-name="uni0439" unicode="&#x439;" horiz-adv-x="593" 
d="M272 502l-123 -311q-17 -44 -24 -74t-4.5 -48.5t12.5 -27t27 -8.5q32 0 71 33t81 89q25 34 54 77.5t56.5 90t51.5 93t40 86.5h91l-193 -502h-89l131 331h-1q-32 -60 -66 -112t-65 -94q-53 -71 -100 -104t-99 -33q-70 0 -88 50.5t21 150.5l124 313h92zM420 634
q-50 0 -81.5 12t-47 32.5t-16 48.5t12.5 61h76q-23 -59 -9 -94.5t66 -35.5q54 0 91 35.5t60 94.5h76q-29 -74 -85 -114t-143 -40z" />
    <glyph glyph-name="uni043A" unicode="&#x43a;" horiz-adv-x="559" 
d="M173 502h90l-77 -225l356 225h71l-340 -215l217 -287h-102l-206 265l-91 -265h-90z" />
    <glyph glyph-name="uni043B" unicode="&#x43b;" horiz-adv-x="556" 
d="M284 0l178 465h-185q-59 -155 -109 -260t-95 -156q-54 -61 -110 -61q-34 0 -34 30q0 22 21.5 37.5t53.5 29.5q17 7 31.5 15t28.5 22.5t29 38t33.5 62t42 94t53.5 134.5l20 51h325l-193 -502h-90z" />
    <glyph glyph-name="uni043C" unicode="&#x43c;" horiz-adv-x="679" 
d="M-9 0l192 502h78l69 -288l276 288h84l-192 -502h-90l152 398l-271 -281h-32l-69 282l-153 -399h-44z" />
    <glyph glyph-name="uni043D" unicode="&#x43d;" horiz-adv-x="598" 
d="M183 502h90l-85 -223h246l85 223h90l-192 -502h-90l93 242h-246l-93 -242h-90z" />
    <glyph glyph-name="uni043E" unicode="&#x43e;" horiz-adv-x="570" 
d="M195 -12q-76 0 -119 44t-43 113q0 67 29 133.5t77 119.5t110.5 85.5t130.5 32.5q75 0 118 -44t43 -113q0 -68 -29 -134t-77 -119t-110.5 -85.5t-129.5 -32.5zM231 25q36 0 73 23t67 66t49.5 103.5t19.5 134.5q0 66 -27.5 97t-68.5 31q-36 0 -73 -23.5t-67.5 -66t-50 -103
t-19.5 -134.5q0 -66 27.5 -97t69.5 -31z" />
    <glyph glyph-name="uni043F" unicode="&#x43f;" horiz-adv-x="595" 
d="M330 0l119 311q32 85 27 122.5t-38 37.5t-71.5 -34t-80.5 -90q-26 -34 -55 -77.5t-56.5 -90t-51.5 -93t-39 -86.5h-92l193 502h89l-130 -331h1q33 60 66 112t64 94q54 72 100.5 105.5t98.5 33.5q64 0 84 -52.5t-17 -150.5l-119 -313h-92z" />
    <glyph glyph-name="uni0440" unicode="&#x440;" horiz-adv-x="571" 
d="M175 502h91l-26 -75q35 40 84 64.5t96 24.5q66 0 100.5 -33.5t34.5 -94.5q0 -47 -17 -95t-48 -93t-74 -84.5t-94.5 -68t-110.5 -44.5t-122 -14l-81 -237h-91zM356 464q-30 0 -62.5 -13t-58.5 -39l-138 -402q48 -1 93 14.5t84.5 43t72.5 63.5t57 75.5t37 80t13 76.5
q0 54 -26 77.5t-72 23.5z" />
    <glyph glyph-name="uni0441" unicode="&#x441;" horiz-adv-x="489" 
d="M180 -12q-70 0 -110 38.5t-40 110.5q0 69 30 136.5t78 121.5t109 87.5t123 33.5q51 0 86 -23t35 -68q0 -29 -26.5 -48t-68.5 -13q8 35 8.5 58.5t-5.5 37.5t-17.5 20t-28.5 6q-37 0 -76.5 -27.5t-72.5 -73.5t-54 -105.5t-21 -123.5q0 -63 24 -90.5t65 -27.5q51 0 98.5 40
t87.5 103l23 -17q-25 -40 -51 -72.5t-56 -55.5t-64 -35.5t-76 -12.5z" />
    <glyph glyph-name="uni0442" unicode="&#x442;" horiz-adv-x="932" 
d="M185 502h89l-130 -331h1q33 60 66 112t64 94q54 72 100.5 105.5t98.5 33.5q64 0 83 -52.5t-19 -150.5l-56 -142h1q32 60 65.5 112t64.5 94q54 72 100 105.5t99 33.5q64 0 84.5 -52.5t-17.5 -150.5l-120 -313h-91l119 311q32 85 27 122.5t-39 37.5q-32 0 -70.5 -34
t-80.5 -90q-26 -34 -55 -77.5t-57 -90t-51.5 -93t-38.5 -86.5h-92l119 311q32 85 27 122.5t-38 37.5t-71.5 -34t-80.5 -90q-26 -34 -55 -77.5t-56.5 -90t-51.5 -93t-39 -86.5h-92z" />
    <glyph glyph-name="uni0443" unicode="&#x443;" horiz-adv-x="548" 
d="M134 18l-19 484h90l14 -393l368 393h60l-703 -750h-59z" />
    <glyph glyph-name="uni0444" unicode="&#x444;" horiz-adv-x="766" 
d="M147 -248l90 236q-46 1 -84 13t-65 34.5t-41.5 55t-14.5 74.5q0 66 34 129t91 112t130.5 79t152.5 31l101 264h90l-101 -264q93 -2 149.5 -47.5t56.5 -129.5q0 -67 -35 -130.5t-92 -112.5t-130.5 -78.5t-151.5 -29.5l-90 -236h-90zM133 165q0 -58 29 -98t89 -45l177 462
l-1 -1q-49 0 -101 -23.5t-95 -65.5t-70.5 -100.5t-27.5 -128.5zM635 339q0 59 -29 99t-89 44l-179 -466l3 5q49 0 101 23.5t95 65.5t70.5 100.5t27.5 128.5z" />
    <glyph glyph-name="uni0445" unicode="&#x445;" horiz-adv-x="567" 
d="M-91 0l339 251l-81 251h95l63 -194l262 194h68l-317 -235l86 -267h-95l-68 211l-285 -211h-67z" />
    <glyph glyph-name="uni0446" unicode="&#x446;" horiz-adv-x="593" 
d="M322 0l131 331h-1q-32 -60 -66 -112t-65 -94q-53 -71 -100 -104t-99 -33q-70 0 -88 50.5t21 150.5l124 313h92l-123 -311q-17 -44 -24 -74t-4.5 -48.5t12.5 -27t27 -8.5q32 0 71 33t81 89q25 34 54 77.5t56.5 90t51.5 93t40 86.5h91l-179 -465h90l-58 -174h-22l-15 124
q-1 8 -4 10.5t-12 2.5h-82z" />
    <glyph glyph-name="uni0447" unicode="&#x447;" horiz-adv-x="583" 
d="M271 502l-46 -117q-34 -86 -28.5 -122t39.5 -36q27 0 64 21.5t75 59t72 87.5t56 107h91l-193 -502h-89l149 375h-1q-60 -94 -127.5 -143.5t-133.5 -49.5q-70 0 -88 51t21 150l47 119h92z" />
    <glyph glyph-name="uni0448" unicode="&#x448;" horiz-adv-x="929" 
d="M453 331h-1q-32 -60 -66 -112t-65 -94q-53 -71 -100 -104t-99 -33q-70 0 -88 50.5t21 150.5l124 313h92l-123 -311q-17 -44 -24 -74t-4.5 -48.5t12.5 -27t27 -8.5q32 0 71 33t81 89q25 34 54 77.5t56.5 90t51.5 93t40 86.5h91l-120 -311q-34 -87 -28.5 -122.5t39.5 -35.5
q32 0 71 33t81 89q25 34 54 77.5t56.5 90t51.5 93t40 86.5h91l-193 -502h-89l131 331h-1q-32 -60 -66 -112t-65 -94q-53 -71 -100 -104t-99 -33q-65 0 -83 51.5t21 149.5z" />
    <glyph glyph-name="uni0449" unicode="&#x449;" horiz-adv-x="929" 
d="M453 331h-1q-32 -60 -66 -112t-65 -94q-53 -71 -100 -104t-99 -33q-70 0 -88 50.5t21 150.5l124 313h92l-123 -311q-17 -44 -24 -74t-4.5 -48.5t12.5 -27t27 -8.5q32 0 71 33t81 89q25 34 54 77.5t56.5 90t51.5 93t40 86.5h91l-120 -311q-34 -87 -28.5 -122.5t39.5 -35.5
q32 0 71 33t81 89q25 34 54 77.5t56.5 90t51.5 93t40 86.5h91l-179 -465h90l-58 -174h-22l-15 124q-1 8 -4 10.5t-12 2.5h-82l131 331h-1q-32 -60 -66 -112t-65 -94q-53 -71 -100 -104t-99 -33q-65 0 -83 51.5t21 149.5z" />
    <glyph glyph-name="uni044A" unicode="&#x44a;" horiz-adv-x="554" 
d="M86 502h215l-77 -200h67q94 0 146 -29.5t52 -95.5q0 -36 -20 -70t-55.5 -60.5t-85 -42.5t-108.5 -16q-44 0 -77.5 11.5t-52.5 34.5t-21.5 56.5t14.5 78.5l114 296h-125zM229 25q36 0 66 13t51 33.5t32.5 47t11.5 53.5q0 38 -26.5 65.5t-83.5 27.5h-70l-42 -108
q-52 -132 61 -132z" />
    <glyph glyph-name="uni044B" unicode="&#x44b;" horiz-adv-x="726" 
d="M647 502h90l-192 -502h-90zM456 177q0 -36 -20 -70t-55.5 -60.5t-85 -42.5t-108.5 -16q-44 0 -77.5 11.5t-52.5 34.5t-21.5 56.5t14.5 78.5l128 333h90l-77 -200h67q94 0 146 -29.5t52 -95.5zM196 25q36 0 66 13t51 33.5t32.5 47t11.5 53.5q0 38 -26.5 65.5t-83.5 27.5
h-70l-42 -108q-52 -132 61 -132z" />
    <glyph glyph-name="uni044C" unicode="&#x44c;" horiz-adv-x="521" 
d="M456 177q0 -36 -20 -70t-55.5 -60.5t-85 -42.5t-108.5 -16q-44 0 -77.5 11.5t-52.5 34.5t-21.5 56.5t14.5 78.5l128 333h90l-77 -200h67q94 0 146 -29.5t52 -95.5zM196 25q36 0 66 13t51 33.5t32.5 47t11.5 53.5q0 38 -26.5 65.5t-83.5 27.5h-70l-42 -108
q-52 -132 61 -132z" />
    <glyph glyph-name="uni044D" unicode="&#x44d;" horiz-adv-x="501" 
d="M164 279h201q7 32 7 69q0 63 -24 90.5t-65 27.5q-44 0 -85 -29.5t-77 -77.5l-24 15q45 66 97.5 104t126.5 38q70 0 110 -38.5t40 -110.5q0 -69 -30 -136.5t-78 -121.5t-109 -87.5t-123 -33.5q-51 0 -86 23t-35 68q0 29 26.5 48t68.5 13q-8 -35 -8.5 -58.5t5.5 -37.5
t17.5 -20t28.5 -6q29 0 60 17.5t59.5 47.5t51.5 71t37 88h-206z" />
    <glyph glyph-name="uni044E" unicode="&#x44e;" horiz-adv-x="760" 
d="M181 502h90l-86 -223h76q20 49 53 92t74 75t88.5 51t97.5 19q73 0 114.5 -44t41.5 -113q0 -68 -28.5 -134t-75.5 -119t-109 -85.5t-128 -32.5q-74 0 -115.5 44t-41.5 113q0 49 15 97h-76l-93 -242h-90zM425 25q35 0 71 23t65.5 66t48.5 103.5t19 134.5q0 66 -26.5 97
t-64.5 31q-35 0 -71.5 -23.5t-66 -66t-48.5 -103t-19 -134.5q0 -66 26.5 -97t65.5 -31z" />
    <glyph glyph-name="uni044F" unicode="&#x44f;" horiz-adv-x="564" 
d="M235 224q-45 3 -73 24.5t-28 61.5q0 31 21 67t55.5 67t79 51.5t91.5 20.5q38 0 56.5 -20.5t21.5 -50.5h1l25 67h90l-196 -512h-90l84 219h-28l-279 -219h-116zM385 252l30 78q31 79 18 117.5t-54 38.5q-31 0 -58 -15t-46.5 -38t-30.5 -51t-11 -53q0 -17 4.5 -31t16.5 -24
t32.5 -16t52.5 -6h46z" />
    <glyph glyph-name="uni0452" unicode="&#x452;" horiz-adv-x="604" 
d="M262 -185q-26 -15 -64.5 -35.5t-77.5 -40.5l-8 22q48 30 82.5 53.5t61 51.5t48.5 66t45 98l108 281q32 85 27 122.5t-38 37.5t-71.5 -34t-80.5 -90q-26 -34 -55.5 -78t-57 -90.5t-51.5 -93t-38 -85.5h-91l216 624h-84l12 35h84l37 108h90l-37 -108h121l-12 -35h-121
l-126 -363l-31 -90h1q33 59 67 111.5t65 94.5q54 72 100.5 105.5t98.5 33.5q64 0 84.5 -52t-17.5 -151l-106 -279q-17 -46 -35 -78t-39 -57t-47 -44.5t-60 -39.5z" />
    <glyph glyph-name="uni0453" unicode="&#x453;" horiz-adv-x="457" 
d="M156 -12q-35 0 -64.5 7t-51.5 21.5t-34.5 35.5t-12.5 50q0 39 16.5 65t43.5 44t61.5 31t70.5 25l57 19q25 8 48 19t41 26t28.5 34t10.5 45q0 36 -19 55t-50 19q-29 0 -48 -6q-12 -4 -22.5 -12t-27.5 -25l-98 -106h-22l72 148q15 8 34.5 14t40.5 10.5t41.5 6.5t37.5 2
q63 0 100.5 -28t37.5 -89q0 -38 -15.5 -65.5t-41 -48.5t-57.5 -35.5t-66 -26.5l-55 -19q-27 -9 -52.5 -20t-45 -24.5t-31 -30.5t-11.5 -40q0 -38 23.5 -53t61.5 -15q35 0 62 6q12 3 24 7.5t29 26.5l101 126h21l-72 -167q-39 -16 -83 -24t-83 -8zM363 775h107l-2 -7
l-232 -172h-28z" />
    <glyph glyph-name="uni0454" unicode="&#x454;" horiz-adv-x="490" 
d="M180 -12q-70 0 -110 38.5t-40 110.5q0 69 30 136.5t78 121.5t109 87.5t123 33.5q51 0 86 -23t35 -68q0 -29 -26.5 -48t-68.5 -13q8 35 8.5 58.5t-5.5 37.5t-17.5 20t-28.5 6q-27 0 -56.5 -15.5t-56.5 -43t-50.5 -64.5t-38.5 -80h194l-14 -35h-190q-12 -45 -12 -92
q0 -63 24 -90.5t65 -27.5q51 0 98.5 40t87.5 103l23 -17q-25 -40 -51 -72.5t-56 -55.5t-64 -35.5t-76 -12.5z" />
    <glyph glyph-name="uni0455" unicode="&#x455;" horiz-adv-x="436" 
d="M133 -12q-36 0 -62.5 8.5t-44 21t-26.5 28t-9 30.5q0 28 20.5 42t51.5 12q10 -36 18 -57.5t16.5 -33.5t19 -16t24.5 -4q18 0 39.5 4t39.5 14t30 25.5t12 39.5q0 27 -16 53.5t-42 58.5l-28 34q-26 32 -42.5 60.5t-16.5 61.5t17.5 60t46 46t64.5 29.5t72 10.5
q63 0 95.5 -24.5t32.5 -52.5t-19 -42t-49 -10q-9 30 -17 49t-16.5 30t-19.5 15t-27 4q-17 0 -35.5 -4t-33.5 -12.5t-24.5 -22.5t-9.5 -33q0 -26 12 -48t40 -55l30 -36q27 -32 44.5 -60t17.5 -68q0 -37 -17.5 -66t-46 -49.5t-65.5 -31.5t-76 -11z" />
    <glyph glyph-name="uni0456" unicode="&#x456;" horiz-adv-x="264" 
d="M186 502h90l-192 -502h-90zM235 717q0 24 18.5 42.5t42.5 18.5q25 0 43.5 -18.5t18.5 -42.5q0 -25 -18.5 -43.5t-43.5 -18.5q-24 0 -42.5 18.5t-18.5 43.5z" />
    <glyph glyph-name="uni0457" unicode="&#x457;" horiz-adv-x="264" 
d="M200 655q-24 0 -42.5 18.5t-18.5 43.5q0 24 18.5 42.5t42.5 18.5q25 0 43.5 -18.5t18.5 -42.5q0 -25 -18.5 -43.5t-43.5 -18.5zM350 655q-24 0 -42.5 18.5t-18.5 43.5q0 24 18.5 42.5t42.5 18.5q25 0 43.5 -18.5t18.5 -42.5q0 -25 -18.5 -43.5t-43.5 -18.5zM187 502h90
l-192 -502h-90z" />
    <glyph glyph-name="uni0458" unicode="&#x458;" horiz-adv-x="270" 
d="M-230 -239q48 31 82.5 54t61.5 51t49 66t46 98l185 472h90l-184 -468q-18 -47 -34 -79t-35 -55t-42.5 -41.5t-57.5 -37.5q-9 -5 -28 -15.5t-41 -22.5l-44 -24t-38 -19zM245 717q0 24 18.5 42.5t42.5 18.5q25 0 43.5 -18.5t18.5 -42.5q0 -25 -18.5 -43.5t-43.5 -18.5
q-24 0 -42.5 18.5t-18.5 43.5z" />
    <glyph glyph-name="uni0459" unicode="&#x459;" horiz-adv-x="782" 
d="M717 177q0 -36 -20 -70t-55.5 -60.5t-85 -42.5t-108.5 -16q-44 0 -77.5 11.5t-52.5 34.5t-21.5 56.5t14.5 78.5l114 296h-148q-59 -155 -109 -260t-95 -156q-54 -61 -110 -61q-34 0 -34 30q0 22 21.5 37.5t53.5 29.5q17 7 31.5 15t28.5 22.5t29 38t33.5 62t42 94
t53.5 134.5l20 51h287l-77 -200h67q94 0 146 -29.5t52 -95.5zM457 25q36 0 66 13t51 33.5t32.5 47t11.5 53.5q0 38 -26.5 65.5t-83.5 27.5h-70l-42 -108q-52 -132 61 -132z" />
    <glyph glyph-name="uni045A" unicode="&#x45a;" horiz-adv-x="825" 
d="M181 502h90l-80 -208h211l80 208h90l-80 -208h70q94 0 146 -25.5t52 -91.5q0 -36 -20 -70t-55.5 -60.5t-85 -42.5t-108.5 -16q-44 0 -77.5 11.5t-52.5 34.5t-21.5 56.5t14.5 78.5l34 88h-211l-98 -257h-90zM500 25q36 0 66 13t51 33.5t32.5 47t11.5 53.5q0 38 -26.5 61.5
t-83.5 23.5h-73l-39 -100q-52 -132 61 -132z" />
    <glyph glyph-name="uni045B" unicode="&#x45b;" horiz-adv-x="603" 
d="M268 767h90l-175 -506l-31 -90h1q33 59 67 111.5t65 94.5q54 72 100.5 105.5t98.5 33.5q64 0 84 -52.5t-17 -150.5l-119 -313h-92l119 311q32 85 27 122.5t-38 37.5t-71.5 -34t-80.5 -90q-26 -34 -55.5 -78t-57 -90.5t-51.5 -93t-38 -85.5h-91zM147 659h295l-12 -35h-295
z" />
    <glyph glyph-name="uni045C" unicode="&#x45c;" horiz-adv-x="559" 
d="M520 775h107l-2 -7l-232 -172h-28zM173 502h90l-77 -225l356 225h71l-340 -215l217 -287h-102l-206 265l-91 -265h-90z" />
    <glyph glyph-name="uni045E" unicode="&#x45e;" horiz-adv-x="557" 
d="M134 18l-19 484h90l14 -393l368 393h60l-703 -750h-59zM427 634q-50 0 -81.5 12t-47 32.5t-16 48.5t12.5 61h76q-23 -59 -9 -94.5t66 -35.5q54 0 91 35.5t60 94.5h76q-29 -74 -85 -114t-143 -40z" />
    <glyph glyph-name="uni045F" unicode="&#x45f;" horiz-adv-x="593" 
d="M271 502l-123 -311q-17 -44 -24 -74t-4.5 -48.5t12.5 -27t27 -8.5q32 0 71 33t81 89q25 34 54 77.5t56.5 90t51.5 93t40 86.5h91l-193 -502h-89l131 331h-1q-32 -60 -66 -112t-65 -94q-10 -14 -19.5 -25t-18.5 -22q-37 -60 -65 -128.5t-48 -144.5h-107q22 51 54 100
t73 98q-33 -15 -68 -15q-70 0 -88 50.5t21 150.5l124 313h92z" />
    <glyph glyph-name="uni0491" unicode="&#x491;" horiz-adv-x="450" 
d="M260 465l-179 -465h-90l193 502h221q9 0 14 2.5t12 10.5l119 124h22l-74 -174h-238z" />
    <glyph glyph-name="uni0463" unicode="&#x463;" horiz-adv-x="846" 
d="M428 311q32 85 27 122.5t-38 37.5q-23 0 -51.5 -21.5t-59.5 -58t-63 -84t-61 -100t-55 -106t-44 -101.5h-92l193 502h89l-122 -311h1q39 76 77 136.5t75.5 102.5t74 64t74.5 22q64 0 84.5 -52.5t-17.5 -150.5l-4 -11h67q94 0 146 -29.5t52 -95.5q0 -36 -20 -70
t-55.5 -60.5t-85 -42.5t-108.5 -16q-44 0 -77.5 11.5t-53 34t-22 56.5t14.5 79zM460 157q-52 -132 61 -132q36 0 66 13t51 33.5t32.5 47t11.5 53.5q0 38 -26.5 65.5t-83.5 27.5h-70z" />
    <glyph glyph-name="uni0473" unicode="&#x473;" horiz-adv-x="570" 
d="M194 -12q-76 0 -119 44t-43 113q0 67 29 133.5t77 119.5t110.5 85.5t130.5 32.5q75 0 118 -44t43 -113q0 -68 -29 -134t-77 -119t-110.5 -85.5t-129.5 -32.5zM147 270q40 19 70.5 22.5t54 -0.5t42.5 -13t37.5 -15t37.5 -6t43 13q4 20 5.5 39.5t1.5 41.5q0 66 -27.5 97
t-68.5 31q-28 0 -57.5 -14.5t-56 -41.5t-48 -66t-34.5 -88zM230 25q28 0 57.5 14.5t56 42.5t48 67t33.5 89q-37 -23 -65.5 -29.5t-51.5 -4t-43 10.5t-39 15t-40 10t-46 -5q-3 -20 -5 -40t-2 -42q0 -66 27.5 -97t69.5 -31z" />
    <glyph glyph-name="uni0475" unicode="&#x475;" horiz-adv-x="564" 
d="M170 -4h-34l-24 506h90l16 -388l267 288q30 33 51.5 55t37.5 35t28.5 18.5t25.5 5.5q32 0 32 -23t-14 -36t-36.5 -25t-50 -28t-54.5 -45z" />
    <glyph glyph-name="uni0493" unicode="&#x493;" horiz-adv-x="489" 
d="M188 -12q-78 0 -120.5 28t-42.5 82q0 30 9.5 51.5t26.5 38t39.5 29t48.5 22.5h-131l14 35h218l24 8q25 8 47 19.5t38 26.5t25.5 35.5t9.5 46.5q0 34 -15 54t-46 20q-29 0 -48 -6q-12 -4 -22.5 -12t-27.5 -25l-98 -106h-22l72 148q15 8 34.5 14t40.5 10.5t41.5 6.5t37.5 2
q63 0 100.5 -27t37.5 -82q0 -48 -21.5 -79.5t-55.5 -53.5h99l-14 -35h-155l-33 -12l-55 -19q-27 -9 -51.5 -20t-42.5 -25t-28.5 -32t-10.5 -42q0 -35 20 -51.5t58 -16.5q35 0 62 6q12 3 24 7.5t29 26.5l101 126h21l-72 -167q-39 -16 -83 -24t-83 -8z" />
    <glyph glyph-name="uni0497" unicode="&#x497;" horiz-adv-x="929" 
d="M-60 0l410 290l-166 212h58l188 -241l92 241h90l-92 -240l66 43v1l1 -1l305 197h71l-356 -229l154 -236h66l-58 -174h-22l-15 124q-1 13 -12 13h-35l-167 257l-98 -257h-90l98 257l-363 -257h-125z" />
    <glyph glyph-name="uni049B" unicode="&#x49b;" horiz-adv-x="579" 
d="M173 502h90l-77 -225l356 225h71l-340 -215l189 -250h64l-58 -174h-22l-15 124q-1 8 -4 10.5t-12 2.5h-27l-206 265l-91 -265h-90z" />
    <glyph glyph-name="uni04A3" unicode="&#x4a3;" horiz-adv-x="598" 
d="M183 502h90l-85 -223h246l85 223h90l-178 -465h91l-58 -174h-22l-15 124q-1 13 -12 13h-88l93 242h-246l-93 -242h-90z" />
    <glyph glyph-name="uni04AF" unicode="&#x4af;" horiz-adv-x="540" 
d="M41 -248l96 249l-25 501h88l21 -439l359 439h56l-410 -502l-95 -248h-90z" />
    <glyph glyph-name="uni04B1" unicode="&#x4b1;" horiz-adv-x="540" 
d="M-1 0h137l1 1l-25 501h88l21 -439l359 439h56l-410 -502h139l-18 -46h-139l-77 -202h-90l78 202h-138z" />
    <glyph glyph-name="uni04B3" unicode="&#x4b3;" horiz-adv-x="563" 
d="M-92 0l339 251l-81 251h95l63 -194l262 194h68l-317 -235l74 -230h60l-58 -174h-22l-15 124q-1 13 -12 13h-36l-68 211l-285 -211h-67z" />
    <glyph glyph-name="uni04B7" unicode="&#x4b7;" horiz-adv-x="583" 
d="M312 0l149 375h-1q-60 -94 -127.5 -143.5t-133.5 -49.5q-70 0 -88 51t21 150l47 119h92l-46 -117q-34 -86 -28.5 -122t39.5 -36q27 0 64 21.5t75 59t72 87.5t56 107h91l-179 -465h90l-58 -174h-22l-15 124q-1 8 -4 10.5t-12 2.5h-82z" />
    <glyph glyph-name="uni04BB" unicode="&#x4bb;" horiz-adv-x="604" 
d="M267 767h90l-175 -506l-31 -90h1q33 59 67 111.5t65 94.5q54 72 100.5 105.5t98.5 33.5q64 0 84 -52.5t-17 -150.5l-119 -313h-92l119 311q32 85 27 122.5t-38 37.5t-71.5 -34t-80.5 -90q-26 -34 -55.5 -78t-57 -90.5t-51.5 -93t-38 -85.5h-91z" />
    <glyph glyph-name="uni04CF" unicode="&#x4cf;" horiz-adv-x="267" 
d="M271 780h90l-268 -780h-90z" />
    <glyph glyph-name="uni04D9" unicode="&#x4d9;" horiz-adv-x="508" 
d="M327.98 515.969q68.9951 0 108.493 -38.498q39.4971 -38.4971 39.4971 -110.493q0 -71.9951 -32.498 -139.991t-83.9941 -120.993q-51.4971 -52.9961 -114.493 -85.4941t-123.993 -32.498q-61.9961 0 -91.4941 25.998q-29.498 25.999 -29.498 64.9961
q0 30.998 19.499 64.4961t58.4961 52.4971l265.983 2q16 33.998 24.499 71.9951q8.49902 37.998 8.49902 77.9951q0 62.9961 -24.998 90.4951q-24.998 27.498 -62.9961 27.498q-50.9971 0 -100.994 -39.998q-49.9971 -39.9971 -89.9941 -103.993l-21.999 15.999
q24.999 40.9971 51.4971 73.9951t56.9961 55.9971q30.499 22.998 65.9961 35.498q35.498 12.499 77.4961 12.499zM125.992 15.999q26.998 0 55.4971 11.499q28.498 11.5 55.4961 31.498q26.999 19.999 50.9971 48.4971q23.998 28.499 42.9971 62.4961h-120.992
q-31.998 0 -58.9961 -8.49902q-26.999 -8.5 -46.498 -22.999q-19.498 -14.499 -30.498 -32.498q-10.999 -17.999 -10.999 -37.9971q0 -23.999 14.499 -37.998t48.4971 -13.999z" />
    <glyph glyph-name="uni04E3" unicode="&#x4e3;" horiz-adv-x="593" 
d="M272 502l-123 -311q-17 -44 -24 -74t-4.5 -48.5t12.5 -27t27 -8.5q32 0 71 33t81 89q25 34 54 77.5t56.5 90t51.5 93t40 86.5h91l-193 -502h-89l131 331h-1q-32 -60 -66 -112t-65 -94q-53 -71 -100 -104t-99 -33q-70 0 -88 50.5t21 150.5l124 313h92zM299 711h283
l-15 -43h-283z" />
    <glyph glyph-name="uni04E9" unicode="&#x4e9;" horiz-adv-x="570" 
d="M194 -12q-76 0 -119 44t-43 113q0 67 29 133.5t77 119.5t110.5 85.5t130.5 32.5q75 0 118 -44t43 -113q0 -68 -29 -134t-77 -119t-110.5 -85.5t-129.5 -32.5zM230 25q28 0 57.5 14.5t56 42t48 66.5t33.5 89h-285q-3 -20 -5 -41t-2 -43q0 -66 27.5 -97t69.5 -31zM343 480
q-28 0 -57 -14.5t-55.5 -41.5t-48 -65.5t-34.5 -86.5h284q3 19 5 39t2 41q0 66 -27.5 97t-68.5 31z" />
    <glyph glyph-name="uni04EF" unicode="&#x4ef;" horiz-adv-x="548" 
d="M134 18l-19 484h90l14 -393l368 393h60l-703 -750h-59zM279 711h283l-15 -43h-283z" />
    <glyph glyph-name="uni0414.aalt" horiz-adv-x="809" 
d="M36 47l511 717h50l69 -717h77l-57 -213h-28l-25 154q-1 6 -2.5 9t-9.5 3h-549q-6 0 -10 -2.5t-10 -9.5l-137 -154h-28l73 213h76zM562 47l-56 582l-415 -582h471z" />
    <glyph glyph-name="uni041B.aalt" horiz-adv-x="750" 
d="M640 0h-99l-33 638l-524 -638h-61l620 764h50z" />
    <glyph glyph-name="uni0432.aalt" horiz-adv-x="553" 
d="M184 -12q-48 0 -81.5 16t-51 47t-16.5 74.5t22 99.5l127 330q19 49 46 90.5t61.5 72t76.5 47.5t91 17q75 0 109.5 -34t34.5 -84q0 -38 -19 -79.5t-55.5 -80t-90.5 -68.5t-124 -44q91 -7 132 -48.5t41 -101.5q0 -50 -27.5 -96t-71 -81t-97.5 -56t-107 -21zM219 410h46
q59 0 104 26t75 65t45.5 84t15.5 83q0 42 -14.5 61.5t-49.5 19.5q-47 0 -85 -40.5t-66 -112.5zM189 17q41 0 77.5 18t63.5 48.5t43 71t16 85.5q0 27 -8 51.5t-24.5 42.5t-43 29t-62.5 11h-46l-64 -168q-19 -49 -22.5 -84.5t4 -59t25 -34.5t41.5 -11z" />
    <glyph glyph-name="uni0434.locl" horiz-adv-x="575" 
d="M331 57q3 10 9.5 26.5t13.5 33.5t14 32.5t12 25.5h-2q-60 -85 -124 -136t-136 -51q-48 0 -75.5 29t-27.5 83q0 45 16.5 94t44 95t64 87.5t77.5 72.5t83.5 49t82.5 18q38 0 58 -19t25 -48h1l23 63h90l-175 -500q-24 -68 -58.5 -118t-76.5 -83t-89 -49t-96 -16
q-43 0 -74.5 7.5t-51.5 19.5t-30 28t-10 34q0 31 17.5 51.5t43.5 20.5q24 0 29.5 -13t5.5 -37q0 -19 1.5 -34.5t9 -26t22.5 -16t42 -5.5q79 0 128 47t84 150zM168 40q30 0 65.5 21.5t70 58.5t66 86.5t53.5 106.5q18 45 21.5 78t-3.5 54t-22 31t-34 10q-32 0 -64.5 -17
t-62.5 -46t-56.5 -66.5t-46 -79.5t-31 -84.5t-11.5 -80.5t14.5 -55t40.5 -17z" />
    <glyph glyph-name="uni0436.aalt" horiz-adv-x="899" 
d="M-60 0l410 290l-166 212h58l188 -240l197 517h90l-197 -517l66 43v1l1 -1l305 197h71l-356 -229l178 -273h-100l-167 258l-98 -258h-90l98 256l-363 -256h-125z" />
    <glyph glyph-name="uni0437.aalt" horiz-adv-x="467" 
d="M302 516q63 0 99 -33.5t36 -93.5q0 -36 -20 -74.5t-53 -72t-75 -58t-86 -33.5v-1q39 0 69 -11t51 -30t32 -44.5t11 -54.5q0 -44 -19 -90.5t-56 -85t-91 -63.5t-124 -25q-43 0 -74.5 7.5t-51.5 19.5t-30 28t-10 34q0 31 17.5 51.5t43.5 20.5q24 0 29.5 -13t5.5 -37
q0 -19 1.5 -34.5t9 -26t22.5 -16t42 -5.5q40 0 74 22.5t59.5 58t40 77.5t14.5 81q0 49 -30.5 83.5t-98.5 34.5h-34l14 36h29q43 0 78.5 20t60.5 52t38.5 71.5t13.5 77.5q0 35 -15.5 57.5t-51.5 22.5q-54 0 -95 -29.5t-79 -80.5l-24 15q22 33 46 59t51 44.5t59 28.5t71 10z
" />
    <glyph glyph-name="uni0438.aalt" horiz-adv-x="593" 
d="M272 502l-123 -311q-17 -44 -24 -74t-4.5 -48.5t12.5 -27t27 -8.5q32 0 71 33t81 89q25 34 54 77.5t56.5 90t51.5 93t40 86.5h91l-193 -502h-89l131 331h-1q-32 -60 -66 -112t-65 -94q-53 -71 -100 -104t-99 -33q-70 0 -88 50.5t21 150.5l124 313h92z" />
    <glyph glyph-name="uni0439.aalt" horiz-adv-x="591" 
d="M272 502l-123 -311q-17 -44 -24 -74t-4.5 -48.5t12.5 -27t27 -8.5q32 0 71 33t81 89q25 34 54 77.5t56.5 90t51.5 93t40 86.5h91l-193 -502h-89l131 331h-1q-32 -60 -66 -112t-65 -94q-53 -71 -100 -104t-99 -33q-70 0 -88 50.5t21 150.5l124 313h92zM418 634
q-50 0 -81.5 12t-47 32.5t-16 48.5t12.5 61h76q-23 -59 -9 -94.5t66 -35.5q54 0 91 35.5t60 94.5h76q-29 -74 -85 -114t-143 -40z" />
    <glyph glyph-name="uni043A.aalt" horiz-adv-x="559" 
d="M270 780h90l-173 -503l356 225h71l-340 -215l217 -287h-102l-206 265l-91 -265h-90z" />
    <glyph glyph-name="uni043B.aalt" horiz-adv-x="548" 
d="M377.977 505.969h33.998l23.999 -505.969h-89.9951l-15.999 388.977l-359.978 -388.977h-57.9961z" />
    <glyph glyph-name="uni043F.locl" horiz-adv-x="595" 
d="M330 0l119 311q32 85 27 122.5t-38 37.5t-71.5 -34t-80.5 -90q-26 -34 -55 -77.5t-56.5 -90t-51.5 -93t-39 -86.5h-92l193 502h89l-130 -331h1q33 60 66 112t64 94q54 72 100.5 105.5t98.5 33.5q64 0 84 -52.5t-17 -150.5l-119 -313h-92z" />
    <glyph glyph-name="uni0442.locl" horiz-adv-x="933" 
d="M186 502h89l-130 -331h1q33 60 66 112t64 94q54 72 100.5 105.5t98.5 33.5q64 0 83 -52.5t-19 -150.5l-56 -142h1q32 60 65.5 112t64.5 94q54 72 100 105.5t99 33.5q64 0 84.5 -52.5t-17.5 -150.5l-120 -313h-91l119 311q32 85 27 122.5t-39 37.5q-32 0 -70.5 -34
t-80.5 -90q-26 -34 -55 -77.5t-57 -90t-51.5 -93t-38.5 -86.5h-92l119 311q32 85 27 122.5t-38 37.5t-71.5 -34t-80.5 -90q-26 -34 -55 -77.5t-56.5 -90t-51.5 -93t-39 -86.5h-92z" />
    <glyph glyph-name="uni044E.aalt" horiz-adv-x="761" 
d="M271 780h90l-173 -501h74q20 49 53 92t74 75t88.5 51t97.5 19q73 0 114.5 -44t41.5 -113q0 -68 -28.5 -134t-75.5 -119t-109 -85.5t-128 -32.5q-74 0 -115.5 44t-41.5 113q0 49 15 97h-72l-83 -242h-90zM426 25q35 0 71 23t65.5 66t48.5 103.5t19 134.5q0 66 -26.5 97
t-64.5 31q-35 0 -71.5 -23.5t-66 -66t-48.5 -103t-19 -134.5q0 -66 26.5 -97t65.5 -31z" />
    <glyph glyph-name="uni0431.aalt" horiz-adv-x="569" 
d="M32 145q0 58 21 115t57 105t85 83.5t105 49.5q-60 10 -87 33t-27 63q0 31 12 57.5t38 46.5t68 31.5t101 11.5h117q34 0 56 2.5t35.5 8.5t21.5 15t15 23h16q-13 -37 -28.5 -62t-38.5 -40t-55 -21.5t-78 -6.5h-115q-66 0 -95.5 -18.5t-29.5 -47.5q0 -37 34.5 -52.5
t112.5 -22.5q78 -6 122.5 -47t44.5 -113q0 -68 -29 -134t-77 -119t-110.5 -85.5t-129.5 -32.5q-76 0 -119 44t-43 113zM230 25q36 0 73 23t67 66t49.5 103.5t19.5 134.5q0 66 -27.5 97t-68.5 31q-36 0 -73 -23.5t-67.5 -66t-50 -103t-19.5 -134.5q0 -66 27.5 -97t69.5 -31z
" />
    <glyph glyph-name="uni0433.aalt" horiz-adv-x="267" 
d="M187 502h90l-192 -502h-90zM164 711h283l-15 -43h-283z" />
    <glyph glyph-name="uni0434.locl" horiz-adv-x="575" 
d="M331 57q3 10 9.5 26.5t13.5 33.5t14 32.5t12 25.5h-2q-60 -85 -124 -136t-136 -51q-48 0 -75.5 29t-27.5 83q0 45 16.5 94t44 95t64 87.5t77.5 72.5t83.5 49t82.5 18q38 0 58 -19t25 -48h1l23 63h90l-175 -500q-24 -68 -58.5 -118t-76.5 -83t-89 -49t-96 -16
q-43 0 -74.5 7.5t-51.5 19.5t-30 28t-10 34q0 31 17.5 51.5t43.5 20.5q24 0 29.5 -13t5.5 -37q0 -19 1.5 -34.5t9 -26t22.5 -16t42 -5.5q79 0 128 47t84 150zM168 40q30 0 65.5 21.5t70 58.5t66 86.5t53.5 106.5q18 45 21.5 78t-3.5 54t-22 31t-34 10q-32 0 -64.5 -17
t-62.5 -46t-56.5 -66.5t-46 -79.5t-31 -84.5t-11.5 -80.5t14.5 -55t40.5 -17z" />
    <glyph glyph-name="uni043F.locl" horiz-adv-x="593" 
d="M273 502l-123 -311q-17 -44 -24 -74t-4.5 -48.5t12.5 -27t27 -8.5q32 0 71 33t81 89q25 34 54 77.5t56.5 90t51.5 93t40 86.5h91l-193 -502h-89l131 331h-1q-32 -60 -66 -112t-65 -94q-53 -71 -100 -104t-99 -33q-70 0 -88 50.5t21 150.5l124 313h92zM325 711h283
l-15 -43h-283z" />
    <glyph glyph-name="uni0442.locl" horiz-adv-x="929" 
d="M356 711h513l-15 -43h-513zM453 331h-1q-32 -60 -66 -112t-65 -94q-53 -71 -100 -104t-99 -33q-70 0 -88 50.5t21 150.5l124 313h92l-123 -311q-17 -44 -24 -74t-4.5 -48.5t12.5 -27t27 -8.5q32 0 71 33t81 89q25 34 54 77.5t56.5 90t51.5 93t40 86.5h91l-120 -311
q-34 -87 -28.5 -122.5t39.5 -35.5q32 0 71 33t81 89q25 34 54 77.5t56.5 90t51.5 93t40 86.5h91l-193 -502h-89l131 331h-1q-32 -60 -66 -112t-65 -94q-53 -71 -100 -104t-99 -33q-65 0 -83 51.5t21 149.5z" />
    <glyph glyph-name="glyph485" 
d="M-20 634q-50 0 -81.5 12t-47 32.5t-16 48.5t12.5 61h76q-23 -59 -9 -94.5t66 -35.5q54 0 91 35.5t60 94.5h76q-29 -74 -85 -114t-143 -40z" />
    <glyph glyph-name="glyph486" 
d="M-13 836q-50 0 -82 12t-49 32.5t-19.5 48.5t7.5 61h76q-18 -59 -1.5 -94.5t68.5 -35.5q54 0 88.5 35.5t52.5 94.5h76q-23 -74 -77.5 -114t-139.5 -40z" />
    <glyph glyph-name="uni20BD" unicode="&#x20bd;" horiz-adv-x="719" 
d="M113 193h-113l13 44h114l33 109h-113l13 44h113l113 368h229q58 0 108 -7.5t86.5 -25.5t57 -47.5t20.5 -72.5q0 -56 -25.5 -104t-75 -82.5t-122.5 -54t-168 -19.5h-139l-33 -108h291l-13 -44h-292l-59 -193h-97zM271 390h132q69 0 121 18t86.5 47t51.5 66t17 75
q0 34 -13 56.5t-36 36t-55.5 19.5t-72.5 6h-132z" />
    <glyph glyph-name="uni20B4" unicode="&#x20b4;" horiz-adv-x="676" 
d="M93 477h412q46 26 69 64.5t23 77.5q0 22 -8.5 42.5t-25 36.5t-41.5 25t-58 9q-16 0 -32 -1.5t-32 -5.5q-11 -3 -24 -9.5t-32 -26.5l-135 -143h-28l106 195q42 19 94 26t100 7q55 0 95 -12.5t66 -33.5t38.5 -48.5t12.5 -57.5q0 -38 -20 -76.5t-58 -68.5h84l-14 -44h-606z
M46 324h605l-13 -44h-431q-36 -24 -54 -59.5t-18 -71.5q0 -24 8 -45.5t24.5 -38t41.5 -26.5t59 -10q23 0 46.5 3t51.5 11q17 5 31.5 14t30.5 27l134 155h28l-109 -207q-56 -23 -112 -33.5t-115 -10.5q-54 0 -93.5 13.5t-65.5 36t-39 51.5t-13 61q0 35 15.5 68.5t45.5 61.5
h-71z" />
    <glyph glyph-name="uni20B8" unicode="&#x20b8;" horiz-adv-x="694" 
d="M156 758h675l-14 -44h-675zM382 558h-289l15 47h676l-15 -47h-289l-172 -558h-98z" />
    <glyph glyph-name="ellipsis" unicode="&#x2026;" horiz-adv-x="871" 
d="M83 -12q-26 0 -44 19t-18 46q0 26 18 44.5t44 18.5q28 0 46.5 -18.5t18.5 -44.5q0 -27 -18.5 -46t-46.5 -19zM388 -12q-26 0 -44 19t-18 46q0 26 18 44.5t44 18.5q28 0 46.5 -18.5t18.5 -44.5q0 -27 -18.5 -46t-46.5 -19zM693 -12q-26 0 -44 19t-18 46q0 26 18 44.5
t44 18.5q28 0 46.5 -18.5t18.5 -44.5q0 -27 -18.5 -46t-46.5 -19z" />
    <glyph glyph-name="endash" unicode="&#x2013;" horiz-adv-x="632" 
d="M86 285h483l-17 -48h-483z" />
    <glyph glyph-name="emdash" unicode="&#x2014;" horiz-adv-x="981" 
d="M86 285h832l-16 -48h-833z" />
    <glyph glyph-name="guilsinglleft" unicode="&#x2039;" horiz-adv-x="353" 
d="M53 254l284 225l23 -25l-228 -204l83 -207l-33 -13z" />
    <glyph glyph-name="guilsinglright" unicode="&#x203a;" horiz-adv-x="352" 
d="M298 254l-284 -225l-23 25l228 204l-83 207l33 13z" />
    <glyph glyph-name="quoteleft" unicode="&#x2018;" horiz-adv-x="273" 
d="M367 758q-67 -42 -102.5 -81t-35.5 -77q0 -37 53 -51q-6 -34 -27.5 -49.5t-46.5 -15.5q-26 0 -45 17.5t-19 49.5q0 22 12 49.5t37.5 58t66 62.5t96.5 63z" />
    <glyph glyph-name="quoteright" unicode="&#x2019;" horiz-adv-x="271" 
d="M137 510q67 42 102.5 81t35.5 77q0 37 -53 51q6 34 27.5 49.5t46.5 15.5q26 0 45 -17.5t19 -49.5q0 -22 -12 -49.5t-37.5 -58t-66 -62.5t-96.5 -63z" />
    <glyph glyph-name="uni02BB" unicode="&#x2bb;" horiz-adv-x="273" 
d="M367 758q-67 -42 -102.5 -81t-35.5 -77q0 -37 53 -51q-6 -34 -27.5 -49.5t-46.5 -15.5q-26 0 -45 17.5t-19 49.5q0 22 12 49.5t37.5 58t66 62.5t96.5 63z" />
    <glyph glyph-name="uni02BC" unicode="&#x2bc;" horiz-adv-x="267" 
d="M137 510q67 42 102.5 81t35.5 77q0 37 -53 51q6 34 27.5 49.5t46.5 15.5q26 0 45 -17.5t19 -49.5q0 -22 -12 -49.5t-37.5 -58t-66 -62.5t-96.5 -63z" />
    <glyph glyph-name="quotedblleft" unicode="&#x201c;" horiz-adv-x="496" 
d="M367 758q-67 -42 -102.5 -81t-35.5 -77q0 -37 53 -51q-6 -34 -27.5 -49.5t-46.5 -15.5q-26 0 -45 17.5t-19 49.5q0 22 12 49.5t37.5 58t66 62.5t96.5 63zM590 758q-67 -42 -102.5 -81t-35.5 -77q0 -37 53 -51q-6 -34 -27.5 -49.5t-46.5 -15.5q-26 0 -45 17.5t-19 49.5
q0 22 12 49.5t37.5 58t66 62.5t96.5 63z" />
    <glyph glyph-name="quotedblright" unicode="&#x201d;" horiz-adv-x="494" 
d="M137 510q67 42 102.5 81t35.5 77q0 37 -53 51q6 34 27.5 49.5t46.5 15.5q26 0 45 -17.5t19 -49.5q0 -22 -12 -49.5t-37.5 -58t-66 -62.5t-96.5 -63zM360 510q67 42 102.5 81t35.5 77q0 37 -53 51q6 34 27.5 49.5t46.5 15.5q26 0 45 -17.5t19 -49.5q0 -22 -12 -49.5
t-37.5 -58t-66 -62.5t-96.5 -63z" />
    <glyph glyph-name="quotesinglbase" unicode="&#x201a;" horiz-adv-x="274" 
d="M-65 -160q67 42 102.5 81t35.5 77q0 37 -53 51q6 34 27.5 49.5t46.5 15.5q26 0 45 -17.5t19 -49.5q0 -22 -12 -49.5t-37.5 -58t-66 -62.5t-96.5 -63z" />
    <glyph glyph-name="quotedblbase" unicode="&#x201e;" horiz-adv-x="497" 
d="M-65 -160q67 42 102.5 81t35.5 77q0 37 -53 51q6 34 27.5 49.5t46.5 15.5q26 0 45 -17.5t19 -49.5q0 -22 -12 -49.5t-37.5 -58t-66 -62.5t-96.5 -63zM158 -160q67 42 102.5 81t35.5 77q0 37 -53 51q6 34 27.5 49.5t46.5 15.5q26 0 45 -17.5t19 -49.5q0 -22 -12 -49.5
t-37.5 -58t-66 -62.5t-96.5 -63z" />
    <glyph glyph-name="bullet" unicode="&#x2022;" horiz-adv-x="433" 
d="M252 258q-26 0 -49 10t-40 27t-27 40.5t-10 49.5t10 49t27 40t40 27t49 10t49 -10t40.5 -27t27.5 -40t10 -49t-10 -49.5t-27.5 -40.5t-40.5 -27t-49 -10z" />
    <glyph glyph-name="dagger" unicode="&#x2020;" horiz-adv-x="681" 
d="M380 454h-260l13 42h260l83 271h46l-83 -271h260l-13 -42h-260l-209 -682h-45z" />
    <glyph glyph-name="daggerdbl" unicode="&#x2021;" horiz-adv-x="681" 
d="M5 76h260l116 378h-260l12 42h261l83 271h45l-83 -271h260l-13 -42h-260l-115 -378h260l-13 -42h-260l-80 -262h-46l80 262h-260z" />
    <glyph glyph-name="perthousand" unicode="&#x2030;" horiz-adv-x="1353" 
d="M887 758h72l-828 -758h-72zM244 337q-31 0 -53 11t-36.5 30.5t-21.5 44.5t-7 54q0 50 19 102.5t51 96t73.5 71.5t85.5 28q31 0 53 -11t36.5 -30.5t21.5 -45t7 -53.5q0 -50 -19 -102.5t-51 -96t-73.5 -71.5t-85.5 -28zM249 360q24 0 44.5 16t38 41.5t31.5 58.5t23.5 67
t14.5 67t5 58q0 39 -12.5 61.5t-43.5 22.5q-24 0 -44.5 -16t-38 -41.5t-31.5 -58.5t-23.5 -67t-14.5 -67t-5 -58q0 -38 12.5 -61t43.5 -23zM672 -12q-31 0 -53 11t-36.5 30.5t-21.5 44.5t-7 54q0 50 19 102.5t51 96t73.5 71.5t85.5 28q31 0 53 -11t36.5 -30.5t21.5 -45
t7 -53.5q0 -50 -19 -102.5t-51 -96t-73.5 -71.5t-85.5 -28zM677 11q24 0 44.5 16t38 41.5t31.5 58.5t23.5 67t14.5 67t5 58q0 39 -12.5 61.5t-43.5 22.5q-24 0 -44.5 -16t-38 -41.5t-31.5 -58.5t-23.5 -67t-14.5 -67t-5 -58q0 -38 12.5 -61t43.5 -23zM1080 -12q-31 0 -53 11
t-36.5 30.5t-21.5 44.5t-7 54q0 50 19 102.5t51 96t73.5 71.5t85.5 28q31 0 53 -11t36.5 -30.5t21.5 -45t7 -53.5q0 -50 -19 -102.5t-51 -96t-73.5 -71.5t-85.5 -28zM1085 11q24 0 44.5 16t38 41.5t31.5 58.5t23.5 67t14.5 67t5 58q0 39 -12.5 61.5t-43.5 22.5
q-24 0 -44.5 -16t-38 -41.5t-31.5 -58.5t-23.5 -67t-14.5 -67t-5 -58q0 -38 12.5 -61t43.5 -23z" />
    <glyph glyph-name="uni2117" unicode="&#x2117;" horiz-adv-x="931" 
d="M506 -12q-84 0 -155.5 29.5t-124 82t-82 124.5t-29.5 157t29.5 157t82 124.5t124 82t155.5 29.5t156 -29.5t124.5 -82t82 -124.5t29.5 -157t-29.5 -157t-82 -124.5t-124.5 -82t-156 -29.5zM506 23q71 0 134.5 25t111.5 71.5t76 112.5t28 149t-28 149.5t-76 113
t-111.5 71.5t-134.5 25t-134.5 -25t-111 -71.5t-75.5 -113t-28 -149.5t28 -149t75.5 -112.5t111 -71.5t134.5 -25zM363 609h162q38 0 71.5 -5t58 -18.5t39 -36t14.5 -56.5q0 -35 -14.5 -58t-39 -37t-58 -20t-71.5 -6h-98v-193h-64v430zM427 403h93q54 0 85 19t31 68
q0 50 -31 69.5t-85 19.5h-93v-176z" />
    <glyph glyph-name="trademark" unicode="&#x2122;" horiz-adv-x="1227" 
d="M357 720h-173v38h419v-38h-173v-432h-73v432zM687 758h81l164 -285l161 285h76v-470h-73v391l-169 -299h-30l-171 299v-391h-39v470z" />
    <glyph glyph-name="uni2116" unicode="&#x2116;" horiz-adv-x="1222" 
d="M875 279h285l-14 -47h-286zM655 128l193 630h52l-232 -758h-51l-334 633l-193 -633h-52l232 758h52zM1043 332q-31 0 -53 11t-36.5 30.5t-21.5 44.5t-7 54q0 50 19 102.5t51 96t73.5 71.5t85.5 28q31 0 53 -11t36.5 -30.5t21.5 -45t7 -53.5q0 -50 -19 -102.5t-51 -96
t-73.5 -71.5t-85.5 -28zM1048 355q24 0 44.5 16t38 41.5t31.5 58.5t23.5 67t14.5 67t5 58q0 39 -12.5 61.5t-43.5 22.5q-24 0 -44.5 -16t-38 -41.5t-31.5 -58.5t-23.5 -67t-14.5 -67t-5 -58q0 -38 12.5 -61t43.5 -23z" />
    </font>
</defs>
</svg>
