<?xml version="1.0" standalone="no"?>
<!DOCTYPE svg PUBLIC "-//W3C//DTD SVG 1.1//EN" "http://www.w3.org/Graphics/SVG/1.1/DTD/svg11.dtd" >
<svg xmlns="http://www.w3.org/2000/svg" xmlns:xlink="http://www.w3.org/1999/xlink" version="1.1">
<metadata>
Created by Christoph Koeberlin (http://christoph.koe.berlin)
Copyright (c) 2017 Swiss Typefaces Sarl. All rights reserved.
</metadata>
<defs>
<font id="Font" horiz-adv-x="0" >
  <font-face 
    font-family="Font"
    font-weight="900"
    font-style="italic"
    font-stretch="normal"
    units-per-em="1000"
    panose-1="2 7 10 4 9 0 0 0 0 4"
    ascent="800"
    descent="-200"
    x-height="502"
    cap-height="758"
    bbox="-519 -403 1613 1089"
    underline-thickness="91"
    underline-position="-130"
    slope="-17"
    unicode-range="U+0020-FEFF"
  />
<missing-glyph horiz-adv-x="632" 
d="M66 758h500v-758h-500v758zM316 396l217 343h-434zM85 30l221 349l-221 349v-698zM547 30v698l-220 -349zM533 19l-217 343l-217 -343h434z" />
    <glyph glyph-name="f_f.liga" unicode="ff" horiz-adv-x="803" 
d="M506 396h-168l-22 -113q-30 -155 -83.5 -260t-114 -170t-120 -93t-102.5 -28q-28 0 -50 8t-37 21t-22.5 29t-7.5 32q0 19 8 35t21.5 27t30.5 16t35 3l111 -136q21 80 40.5 158.5t35.5 158.5l61 312h-87l4 10q39 7 69.5 28t54 47.5t40.5 55t28 51.5q24 50 54 85t62.5 56.5
t65 31.5t62.5 10q48 0 76.5 -23t28.5 -57q0 -20 -7 -37t-19 -30t-27 -21.5t-30 -12.5l-186 95q-29 -27 -44.5 -57.5t-15.5 -56.5q0 -29 16.5 -49t63.5 -20h232q17 23 30 45t22 41q24 50 54 85t62.5 56.5t65 31.5t62.5 10q48 0 76.5 -23t28.5 -57q0 -20 -7 -37t-19 -30
t-27 -21.5t-30 -12.5l-186 95q-29 -27 -44.5 -57.5t-15.5 -56.5q0 -29 16.5 -49t63.5 -20h186l-77 -106h-102l-15 -76q-30 -155 -82.5 -260t-111.5 -170t-117 -93t-101 -28q-28 0 -50 8t-37 21t-22.5 29t-7.5 32q0 19 8 35t21.5 27t30.5 16t35 3l111 -136q22 79 37 157.5
t31 159.5z" />
    <glyph glyph-name="f_i.liga" unicode="fi" horiz-adv-x="769" 
d="M722 578q-24 0 -45.5 9.5t-37.5 25.5t-25 38t-9 46t9 45.5t25 37.5t37.5 25t45.5 9q25 0 46.5 -9t37.5 -25t25.5 -37.5t9.5 -45.5t-9.5 -46t-25.5 -38t-37.5 -25.5t-46.5 -9.5zM316 283q-30 -155 -83.5 -260t-114 -170t-120 -93t-102.5 -28q-28 0 -50 8t-37 21t-22.5 29
t-7.5 32q0 19 8 35t21.5 27t30.5 16t35 3l111 -136q22 77 41 156.5t35 160.5l61 312h-87l4 10q39 7 69.5 28t54 47.5t40.5 55t28 51.5q24 50 54 85t62.5 56.5t65 31.5t62.5 10q48 0 73.5 -24t25.5 -56q0 -40 -24 -66t-53 -35l-186 95q-29 -27 -44.5 -57.5t-15.5 -56.5
q0 -29 16.5 -49t63.5 -20h440l-146 -386q-20 -51 -23.5 -71.5t6.5 -20.5q6 0 18 6.5t29.5 25.5t40 53t49.5 89l10 -5q-32 -64 -59 -104t-54.5 -62.5t-60 -31t-76.5 -8.5q-33 0 -56 8.5t-33.5 29t-7.5 53.5t21 82l88 236h-179z" />
    <glyph glyph-name="f_f_i.liga" unicode="ffi" horiz-adv-x="1163" 
d="M1116 578q-24 0 -45.5 9.5t-37.5 25.5t-25 38t-9 46t9 45.5t25 37.5t37.5 25t45.5 9q25 0 46.5 -9t37.5 -25t25.5 -37.5t9.5 -45.5t-9.5 -46t-25.5 -38t-37.5 -25.5t-46.5 -9.5zM1019 116q-20 -51 -23.5 -71.5t6.5 -20.5q6 0 18 6.5t29.5 25.5t40 53t49.5 89l10 -5
q-32 -64 -59 -104t-54.5 -62.5t-60 -31t-76.5 -8.5q-33 0 -56 8.5t-33.5 29t-7.5 53.5t21 82l88 236h-179l-15 -76q-30 -155 -82.5 -260t-111.5 -170t-117 -93t-101 -28q-28 0 -50 8t-37 21t-22.5 29t-7.5 32q0 19 8 35t21.5 27t30.5 16t35 3l111 -136q22 79 37 157.5
t31 159.5l54 275h-178l-22 -113q-30 -155 -83.5 -260t-114 -170t-120 -93t-102.5 -28q-28 0 -50 8t-37 21t-22.5 29t-7.5 32q0 19 8 35t21.5 27t30.5 16t35 3l111 -136q21 80 40.5 158.5t35.5 158.5l61 312h-87l4 10q39 7 69.5 28t54 47.5t40.5 55t28 51.5q24 50 54 85
t62.5 56.5t65 31.5t62.5 10q48 0 76.5 -23t28.5 -57q0 -20 -7 -37t-19 -30t-27 -21.5t-30 -12.5l-186 95q-29 -27 -44.5 -57.5t-15.5 -56.5q0 -29 16.5 -49t63.5 -20h242q17 23 30 45t22 41q24 50 54 85t62.5 56.5t65 31.5t62.5 10q46 0 72.5 -23t26.5 -57q0 -40 -23.5 -65
t-53.5 -36l-186 95q-29 -27 -44.5 -57.5t-15.5 -56.5q0 -29 16.5 -49t63.5 -20h440z" />
    <glyph glyph-name="f_l.liga" unicode="fl" horiz-adv-x="773" 
d="M-104 -268q-28 0 -50 8t-37 21t-22.5 29t-7.5 32q0 19 8 35t21.5 27t30.5 16t35 3l111 -136q22 77 41 156.5t35 160.5l61 312h-87l4 10q39 7 69.5 28t54 47.5t40.5 55t28 51.5q24 50 54 85t62.5 56.5t65 31.5t62.5 10q31 0 55 -13h322l-218 -642q-17 -52 -22 -72t5 -20
q6 0 19.5 6.5t33 25.5t43.5 53t51 89l10 -5q-32 -64 -60.5 -104t-58 -62.5t-63.5 -31t-78 -8.5q-33 0 -56 8.5t-33.5 29t-8 53.5t19.5 83l199 587h-92q13 -11 19 -26t6 -31q0 -40 -21 -65t-50 -36l-186 95q-29 -27 -44.5 -57.5t-15.5 -56.5q0 -29 16.5 -49t63.5 -20h164
l-77 -106h-80l-22 -113q-30 -155 -83.5 -260t-114 -170t-120 -93t-102.5 -28z" />
    <glyph glyph-name="f_f_l.liga" unicode="ffl" horiz-adv-x="1167" 
d="M516 396h-178l-22 -113q-30 -155 -83.5 -260t-114 -170t-120 -93t-102.5 -28q-28 0 -50 8t-37 21t-22.5 29t-7.5 32q0 19 8 35t21.5 27t30.5 16t35 3l111 -136q21 80 40.5 158.5t35.5 158.5l61 312h-87l4 10q39 7 69.5 28t54 47.5t40.5 55t28 51.5q24 50 54 85t62.5 56.5
t65 31.5t62.5 10q48 0 76.5 -23t28.5 -57q0 -20 -7 -37t-19 -30t-27 -21.5t-30 -12.5l-186 95q-29 -27 -44.5 -57.5t-15.5 -56.5q0 -29 16.5 -49t63.5 -20h242q17 23 30 45t22 41q24 50 54 85t62.5 56.5t65 31.5t62.5 10q31 0 54 -13h323l-218 -642q-17 -52 -22 -72t5 -20
q6 0 19.5 6.5t33 25.5t43.5 53t51 89l10 -5q-32 -64 -60.5 -104t-58 -62.5t-63.5 -31t-78 -8.5q-33 0 -56 8.5t-33.5 29t-8 53.5t19.5 83l199 587h-92q25 -22 25 -57q0 -40 -20.5 -64.5t-50.5 -36.5l-186 95q-29 -27 -44.5 -57.5t-15.5 -56.5q0 -29 16.5 -49t63.5 -20h186
l-77 -106h-102l-15 -76q-30 -155 -82.5 -260t-111.5 -170t-117 -93t-101 -28q-28 0 -50 8t-37 21t-22.5 29t-7.5 32q0 19 8 35t21.5 27t30.5 16t35 3l111 -136q22 79 37 157.5t31 159.5z" />
    <glyph glyph-name=".notdef" horiz-adv-x="632" 
d="M66 758h500v-758h-500v758zM316 396l217 343h-434zM85 30l221 349l-221 349v-698zM547 30v698l-220 -349zM533 19l-217 343l-217 -343h434z" />
    <glyph glyph-name="glyph1" 
 />
    <glyph glyph-name="glyph2" horiz-adv-x="232" 
 />
    <glyph glyph-name="space" unicode=" " horiz-adv-x="232" 
 />
    <glyph glyph-name="exclam" unicode="!" horiz-adv-x="365" 
d="M187 279q23 76 26 135.5t-6.5 105t-27.5 76.5t-36 50q12 28 33.5 55t49 48.5t60.5 36.5t67 20q21 -11 40 -30t33 -43t22.5 -50t8.5 -50q-29 -19 -64.5 -48t-71.5 -72t-68.5 -100.5t-55.5 -133.5l-5 -17h-10zM145 -13q-24 0 -46 9.5t-38 26t-25.5 39.5t-9.5 49
q0 25 9.5 46.5t25.5 38t38 26t46 9.5q27 0 49.5 -9.5t39.5 -26t26.5 -38t9.5 -46.5q0 -26 -9.5 -49t-26.5 -39.5t-39.5 -26t-49.5 -9.5z" />
    <glyph glyph-name="quotedbl" unicode="&#x22;" horiz-adv-x="413" 
d="M173 721q2 32 19.5 45t64.5 13q46 0 61 -15t-10 -55l-141 -226h-9zM383 721q2 32 19.5 45t64.5 13q46 0 61 -15t-10 -55l-141 -226h-9z" />
    <glyph glyph-name="numbersign" unicode="#" horiz-adv-x="793" 
d="M189 195h-172l30 72h171l90 221h-172l29 72h172l88 216h78l-88 -216h189l88 216h78l-88 -216h172l-29 -72h-172l-90 -221h172l-29 -72h-172l-79 -195h-78l79 195h-189l-79 -195h-78zM485 267l90 221h-189l-90 -221h189z" />
    <glyph glyph-name="dollar" unicode="$" horiz-adv-x="675" 
d="M255 -13q-60 0 -107.5 11.5t-79.5 30.5t-49 44.5t-17 53.5q0 32 18.5 53t46 31t61 9.5t63.5 -10.5q-14 -42 -25.5 -80.5t-9 -68t25 -47.5t76.5 -18l81 267l-7 8l-33 37q-48 53 -80.5 111t-32.5 128q0 60 30 104t76 72.5t100.5 42t103.5 13.5h1l31 101h12l-31 -101
q55 -2 96 -13t68.5 -29t41 -42t13.5 -50q0 -28 -15.5 -47.5t-40.5 -29.5t-57.5 -10.5t-65.5 10.5q18 45 27 81.5t5 62t-22 40.5t-53 17l-74 -242l14 -16l33 -37q37 -42 63.5 -74.5t43.5 -61t24.5 -55t7.5 -55.5q0 -58 -32.5 -102.5t-83.5 -75t-113.5 -46.5t-121.5 -17
l-31 -101h-12zM437 103q0 32 -22 65t-67 85l-78 -257q54 1 86.5 12t50.5 27t24 34.5t6 33.5zM353 681q0 -33 19 -69t51 -74l71 231h-1q-24 0 -49 -6t-45.5 -17.5t-33 -27.5t-12.5 -37z" />
    <glyph glyph-name="percent" unicode="%" horiz-adv-x="1006" 
d="M925 758h74l-846 -758h-74zM288 344q-40 0 -70.5 13.5t-51.5 37.5t-31.5 56.5t-10.5 70.5q0 47 22.5 93t59.5 82.5t85.5 59t100.5 22.5q40 0 70.5 -13.5t51.5 -37.5t31.5 -56.5t10.5 -70.5q0 -47 -22.5 -93t-60 -82.5t-85.5 -59t-100 -22.5zM271 352q16 0 31 14.5t30 41
t30 63.5t32 82q21 58 34.5 103t13.5 74q0 41 -33 41q-17 0 -32 -14.5t-30 -41t-30 -63.5t-31 -82q-21 -58 -34.5 -103t-13.5 -73q0 -20 8 -31t25 -11zM696 -13q-40 0 -70.5 13.5t-51.5 37.5t-31.5 56.5t-10.5 70.5q0 47 22.5 93t59.5 82.5t85.5 59t100.5 22.5
q40 0 70.5 -13.5t51.5 -37.5t31.5 -56.5t10.5 -70.5q0 -47 -22.5 -93t-60 -82.5t-85.5 -59t-100 -22.5zM679 -5q16 0 31 14.5t30 41t30 63.5t32 82q21 58 34.5 103t13.5 74q0 41 -33 41q-17 0 -32 -14.5t-30 -41t-30 -63.5t-31 -82q-21 -58 -34.5 -103t-13.5 -73
q0 -20 8 -31t25 -11z" />
    <glyph glyph-name="ampersand" unicode="&#x26;" horiz-adv-x="1133" 
d="M979 490q34 -24 59.5 -39.5t44 -24t32 -12t24.5 -3.5q18 0 29.5 14.5t17.5 32.5l-167 55q-4 19 -0.5 43.5t15 46t31 36t46.5 14.5q40 0 69 -32t29 -94q0 -48 -24 -94.5t-59 -83t-74 -59t-70 -22.5q-27 0 -57 12.5t-65 37.5l-48 35l-5 -9q-40 -76 -80 -141t-90 -113
t-114 -75.5t-151 -27.5q-70 0 -128.5 21.5t-100.5 62t-65.5 98t-23.5 129.5q0 80 24 146t63 113.5t87.5 74t97.5 26.5q52 0 83.5 -26.5t26.5 -74.5l70 52l52 280q23 22 48.5 35.5t60.5 13.5q31 0 50 -18t19 -46t-17.5 -61.5t-48 -68.5t-71 -71.5t-86.5 -70.5l-79 -59
l-212 -158q10 -46 31.5 -86.5t54.5 -71t78.5 -48t103.5 -17.5q108 0 184.5 49t123.5 140l4 9l-75 54q-35 25 -60 40.5t-44 24t-32.5 11.5t-24.5 3q-18 0 -29 -14.5t-17 -32.5l166 -55q3 -23 -1 -47.5t-15.5 -45t-29.5 -34t-42 -13.5q-42 0 -72.5 30.5t-30.5 95.5q0 43 24 89
t58.5 84t74 62t71.5 24q53 0 121 -50zM212 477q0 -21 2 -41.5t6 -40.5l7 5q28 27 46 67.5t24 78.5t0 65.5t-26 27.5q-18 0 -29.5 -16.5t-18 -41t-9 -52.5t-2.5 -52z" />
    <glyph glyph-name="quotesingle" unicode="'" horiz-adv-x="203" 
d="M173 721q2 32 19.5 45t64.5 13q46 0 61 -15t-10 -55l-141 -226h-9z" />
    <glyph glyph-name="parenleft" unicode="(" horiz-adv-x="392" 
d="M184 -264q-32 39 -62.5 83.5t-54 94t-38 103.5t-14.5 113q0 202 135 365t398 297l4 -8q-64 -42 -109.5 -102t-79.5 -129.5t-59.5 -144t-49.5 -144.5q-17 -49 -34.5 -102.5t-32 -105t-23.5 -98.5t-9 -82q0 -38 8.5 -71.5t28.5 -62.5z" />
    <glyph glyph-name="parenright" unicode=")" horiz-adv-x="391" 
d="M224 793q32 -39 62.5 -83.5t54 -94t38 -103.5t14.5 -113q0 -202 -135 -365t-398 -297l-4 8q64 42 109.5 102t79.5 129.5t59.5 144t49.5 144.5q17 49 34.5 102.5t32 105t23.5 98.5t9 82q0 38 -8.5 71.5t-28.5 62.5z" />
    <glyph glyph-name="asterisk" unicode="*" horiz-adv-x="500" 
d="M409 368l-7 -2l-80 142l-153 -58l-3 7l110 120l-102 128l5 6l148 -68l90 136l7 -2l-19 -163l158 -42v-8l-160 -33z" />
    <glyph glyph-name="plus" unicode="+" horiz-adv-x="645" 
d="M282 220h-224v85h224v211h89v-211h224v-85h-224v-220h-89v220z" />
    <glyph glyph-name="comma" unicode="," horiz-adv-x="318" 
d="M-71 -179q158 84 158 168q0 31 -26.5 53t-71.5 26q7 36 22.5 61.5t36 42t44 24.5t46.5 8q38 0 66.5 -22.5t28.5 -73.5q0 -44 -23.5 -84t-64 -77t-95.5 -70.5t-117 -64.5z" />
    <glyph glyph-name="hyphen" unicode="-" horiz-adv-x="413" 
d="M81 313h294l-38 -111h-294z" />
    <glyph glyph-name="period" unicode="." horiz-adv-x="325" 
d="M122 -13q-24 0 -46 9.5t-38 26t-25.5 39.5t-9.5 49q0 25 9.5 46.5t25.5 38t38 26t46 9.5q27 0 49.5 -9.5t39.5 -26t26.5 -38t9.5 -46.5q0 -26 -9.5 -49t-26.5 -39.5t-39.5 -26t-49.5 -9.5z" />
    <glyph glyph-name="slash" unicode="/" horiz-adv-x="582" 
d="M597 776h114l-658 -828h-114z" />
    <glyph glyph-name="zero" unicode="0" horiz-adv-x="808" 
d="M346 -13q-67 0 -118.5 23.5t-87 65t-53.5 98t-18 121.5q0 56 18 114t50.5 112t77.5 101t97.5 82t111.5 55t120 20q67 0 118.5 -23.5t87 -65t53.5 -98t18 -121.5q0 -56 -18 -114t-50.5 -112t-77.5 -101t-97.5 -82t-111.5 -55t-120 -20zM325 -2q32 0 62 27.5t58 76
t55.5 115.5t55.5 146q35 97 56.5 178t21.5 135q0 92 -69 92q-32 0 -62 -27.5t-58 -76t-55.5 -115.5t-55.5 -146q-35 -97 -56.5 -178t-21.5 -135q0 -92 69 -92z" />
    <glyph glyph-name="one" unicode="1" horiz-adv-x="462" 
d="M-40 10h93l214 621h-125l3 10q50 2 105 11.5t106 26.5t94.5 41t69.5 55h9l-263 -765h63l-4 -10h-369z" />
    <glyph glyph-name="two" unicode="2" horiz-adv-x="646" 
d="M-80 4q116 77 201.5 141.5t145 118t96.5 97t57.5 79.5t28 64.5t7.5 52.5q0 50 -29.5 78t-78.5 28q-44 0 -86.5 -22t-75.5 -80l-8 4q53 110 131.5 162t178.5 52q51 0 88 -13t61 -36t36 -53.5t12 -64.5q0 -56 -29.5 -105.5t-78.5 -93t-112 -81.5t-129 -71l-152 -75h420
l-138 -186h-547z" />
    <glyph glyph-name="three" unicode="3" horiz-adv-x="628" 
d="M219 -13q-52 0 -94 12.5t-72 33.5t-46.5 49t-16.5 60q0 25 13.5 46.5t36 34.5t51.5 15.5t61 -8.5l30 -197q4 -23 16 -30t27 -7q38 0 69 21.5t53.5 56.5t34.5 78t12 87q0 37 -9.5 65.5t-26 48t-38 29t-46.5 9.5q-19 0 -36 -3t-34 -8l-3 11l55 14q53 13 92 33t64.5 42.5
t38 46.5t12.5 45q0 42 -33 66.5t-87 24.5q-56 0 -99 -23.5t-64 -79.5l-10 1q16 55 45 96t66.5 68t82.5 40.5t94 13.5q39 0 73 -8.5t60 -24.5t41 -39t15 -53q0 -56 -51.5 -95.5t-146.5 -50.5l-2 -3q68 -25 110.5 -72t42.5 -119q0 -69 -33 -128.5t-86.5 -104t-122 -69.5
t-139.5 -25z" />
    <glyph glyph-name="four" unicode="4" horiz-adv-x="726" 
d="M318 168h-352v2l776 626h5l-162 -471h133l-54 -157h-133l-58 -168h-213zM372 325l76 219l-270 -219h194z" />
    <glyph glyph-name="five" unicode="5" horiz-adv-x="649" 
d="M244 -3q28 0 58.5 7t55.5 23t41 41t16 60q0 75 -69.5 121t-223.5 73l233 436h405l-107 -186h-385l-26 -48q187 -35 271 -102.5t84 -163.5q0 -62 -31.5 -112t-83 -85t-116.5 -54.5t-132 -19.5q-52 0 -95.5 12.5t-75 33.5t-49 49t-17.5 60q0 25 13.5 46.5t36 34.5
t51.5 15.5t61 -8.5l38 -196q5 -23 17 -30t30 -7z" />
    <glyph glyph-name="six" unicode="6" horiz-adv-x="706" 
d="M292 -13q-66 0 -113 18.5t-77.5 51.5t-45 78t-14.5 98q0 91 55.5 180.5t160 167.5t254.5 140t340 99l1 -11q-84 -19 -159 -56t-139.5 -88t-117.5 -114t-92 -134q30 30 67.5 48.5t79.5 18.5q38 0 70 -11t55 -33t36 -55.5t13 -77.5q0 -62 -30 -119.5t-81.5 -102
t-119.5 -71.5t-143 -27zM225 52q0 -55 36 -55q17 0 36 19t37.5 50t35 70t29 79.5t20 77.5t7.5 65q0 64 -47 64q-9 0 -19.5 -3.5t-21.5 -14.5q-14 -28 -26.5 -56.5t-23.5 -57.5q-30 -87 -46.5 -145t-16.5 -93z" />
    <glyph glyph-name="seven" unicode="7" horiz-adv-x="622" 
d="M-17 0l596 572h-466l132 186h545l-789 -758h-18z" />
    <glyph glyph-name="eight" unicode="8" horiz-adv-x="661" 
d="M17 174q0 33 15 65t44.5 58t73 44.5t100.5 25.5q-30 35 -49 77.5t-19 87.5q0 60 27 106.5t69 77.5t93 47t99 16q45 0 87.5 -11.5t74.5 -32t51.5 -49t19.5 -63.5q0 -33 -16.5 -61.5t-45.5 -51t-69 -37.5t-86 -20l4 -4q21 -21 42.5 -43.5t39 -48t28 -55t10.5 -63.5
q0 -55 -27.5 -101.5t-73 -80t-104.5 -52t-123 -18.5q-58 0 -106.5 14.5t-84 40t-55 59.5t-19.5 73zM127 164q0 -82 40 -124.5t106 -42.5q42 0 71.5 11t48.5 29.5t28 43.5t9 52q0 21 -6.5 39.5t-19.5 36.5t-31.5 37.5t-43.5 42.5l-57 54l-17 18q-73 -37 -100.5 -85.5
t-27.5 -111.5zM480 458q29 11 52.5 31t40 44.5t25 52.5t8.5 55q0 69 -34 98.5t-97 29.5q-26 0 -50 -7.5t-42.5 -21.5t-30 -34.5t-11.5 -46.5q0 -40 23.5 -76t66.5 -78z" />
    <glyph glyph-name="nine" unicode="9" horiz-adv-x="711" 
d="M490 779q126 0 190 -67t64 -188q0 -92 -46.5 -179.5t-144 -162.5t-248.5 -133.5t-361 -92.5l-1 11q95 20 172 56.5t138.5 86t108.5 111t82 131.5q-30 -32 -69.5 -51t-81.5 -19q-38 0 -70 11t-55 33t-36 55.5t-13 77.5q0 61 30.5 119t81.5 102.5t118 71.5t141 27zM359 408
q0 -64 47 -64q11 0 22 4.5t24 19.5q25 52 45 108q30 87 46.5 147t16.5 95q0 51 -38 51q-17 0 -35.5 -19t-36.5 -50t-34.5 -70t-29 -79.5t-20 -78t-7.5 -64.5z" />
    <glyph glyph-name="colon" unicode=":" horiz-adv-x="343" 
d="M221 281q-24 0 -46 9.5t-38 26t-25.5 39.5t-9.5 49q0 25 9.5 46.5t25.5 38t38 26t46 9.5q27 0 49.5 -9.5t39.5 -26t26.5 -38t9.5 -46.5q0 -26 -9.5 -49t-26.5 -39.5t-39.5 -26t-49.5 -9.5zM122 -13q-24 0 -46 9.5t-38 26t-25.5 39.5t-9.5 49q0 25 9.5 46.5t25.5 38t38 26
t46 9.5q27 0 49.5 -9.5t39.5 -26t26.5 -38t9.5 -46.5q0 -26 -9.5 -49t-26.5 -39.5t-39.5 -26t-49.5 -9.5z" />
    <glyph glyph-name="semicolon" unicode=";" horiz-adv-x="343" 
d="M-71 -179q158 84 158 168q0 31 -26.5 53t-71.5 26q7 36 22.5 61.5t36 42t44 24.5t46.5 8q38 0 66.5 -22.5t28.5 -73.5q0 -44 -23.5 -84t-64 -77t-95.5 -70.5t-117 -64.5zM223 281q-24 0 -46 9.5t-38 26t-25.5 39.5t-9.5 49q0 25 9.5 46.5t25.5 38t38 26t46 9.5
q27 0 49.5 -9.5t39.5 -26t26.5 -38t9.5 -46.5q0 -26 -9.5 -49t-26.5 -39.5t-39.5 -26t-49.5 -9.5z" />
    <glyph glyph-name="less" unicode="&#x3c;" horiz-adv-x="645" 
d="M34 302l527 225v-90l-416 -175l416 -175v-90l-527 226v79z" />
    <glyph glyph-name="equal" unicode="=" horiz-adv-x="645" 
d="M70 419h507v-85h-507v85zM70 179h507v-85h-507v85z" />
    <glyph glyph-name="greater" unicode="&#x3e;" horiz-adv-x="645" 
d="M627 223l-527 -226v90l416 175l-416 175v90l527 -225v-79z" />
    <glyph glyph-name="question" unicode="?" horiz-adv-x="702" 
d="M468 765q-33 0 -59.5 -7.5t-43 -29t-23 -59t1.5 -97.5q-38 -4 -71.5 -1.5t-59 12t-40.5 27.5t-15 45q0 33 22 56.5t60 38.5t90.5 22t112.5 7q64 0 119.5 -15.5t96.5 -45.5t64.5 -73.5t23.5 -100.5q0 -35 -8 -65.5t-29.5 -55t-60.5 -41t-101 -23.5l-199 -22
q-25 -3 -40.5 -8.5t-23.5 -24.5l-16 -42h-10l61 197q9 29 17.5 46.5t22 28t33 16t51.5 9.5l116 15q43 5 70 10t42.5 11.5t21 15.5t5.5 24q0 25 -21 48.5t-54 41.5t-74.5 29t-81.5 11zM219 -13q-24 0 -46 9.5t-38 26t-25.5 39.5t-9.5 49q0 25 9.5 46.5t25.5 38t38 26t46 9.5
q27 0 49.5 -9.5t39.5 -26t26.5 -38t9.5 -46.5q0 -26 -9.5 -49t-26.5 -39.5t-39.5 -26t-49.5 -9.5z" />
    <glyph glyph-name="at" unicode="@" horiz-adv-x="956" 
d="M456 -13q-75 0 -144 20t-121 59.5t-83 97.5t-31 133q0 61 20.5 120.5t57.5 113t88 99t111.5 78.5t129 52t139.5 19q67 0 132 -19t116.5 -56t83 -91.5t31.5 -124.5q0 -49 -16.5 -92.5t-45.5 -80.5t-67 -66t-81.5 -49t-89 -31t-89.5 -11q-25 0 -41.5 6.5t-16.5 20.5
q0 11 6 26l14 35l37 97h-2q-23 -38 -49.5 -71.5t-55.5 -58.5t-60.5 -39t-63.5 -14q-21 0 -41 6.5t-35.5 20t-25 34t-9.5 48.5q0 38 19.5 78t51.5 78.5t73 73t84.5 60.5t85.5 41t76 15q22 0 47.5 -4.5t50.5 -11.5t47 -15t37 -15l-138 -345q-6 -16 -9 -24.5t-3 -13.5
q0 -6 5 -6q13 0 36.5 6.5t51 21.5t56 39t51.5 58t38 79t15 103q0 69 -24 121.5t-65.5 88.5t-97.5 54.5t-120 18.5q-95 0 -177 -40t-142.5 -106t-95 -150.5t-34.5 -173.5q0 -70 20.5 -126t58.5 -95t92 -60t122 -21q78 0 131.5 18.5t85.5 35.5l4 -9q-37 -19 -92 -37.5
t-139 -18.5zM457 233q16 0 37.5 12t45.5 38.5t49 68t47 101.5l50 134q-7 19 -43 19q-23 0 -48.5 -15.5t-50.5 -41.5t-47 -59.5t-39 -69.5t-27 -71.5t-10 -65.5q0 -25 8 -37.5t28 -12.5z" />
    <glyph glyph-name="A" unicode="A" horiz-adv-x="876" 
d="M-167 10h83l997 787h7l-241 -787h83l-3 -10h-399l3 10h83l80 262h-261l-332 -262h92l-3 -10h-192zM547 340l63 204l-259 -204h196z" />
    <glyph glyph-name="B" unicode="B" horiz-adv-x="859" 
d="M591 758q148 0 217.5 -32.5t69.5 -96.5q0 -37 -18 -73t-59 -66t-108.5 -51.5t-167.5 -28.5v-2q43 0 95 -5.5t98 -22t77 -46t31 -76.5q0 -41 -22 -86t-74.5 -83.5t-141 -63.5t-221.5 -25h-401l3 10h83l226 738h-83l3 10h393zM450 409q42 0 76.5 25t59 62t38.5 80.5
t14 81.5q0 42 -20 66t-64 24h-43l-104 -339h43zM332 10q57 0 102.5 26t77 66.5t48 89t16.5 94.5q0 58 -33.5 85.5t-92.5 27.5h-46l-119 -389h47z" />
    <glyph glyph-name="C" unicode="C" horiz-adv-x="860" 
d="M449 -13q-93 0 -164.5 22t-120 61.5t-73.5 95t-25 122.5q0 102 46.5 191.5t126 156t185.5 105t225 38.5q68 0 117 -17.5t77 -45.5l72 60h6l-58 -308h-6q-7 86 -21 143.5t-37.5 92.5t-58 50t-82.5 15q-68 0 -131 -42.5t-112.5 -113.5t-79 -165t-29.5 -197q0 -51 7 -97
t23.5 -81t44 -55.5t68.5 -20.5q55 0 96.5 15t83.5 50.5t90.5 93t117.5 142.5h6l-154 -308h-6l-24 49q-50 -29 -106 -40.5t-104 -11.5z" />
    <glyph glyph-name="D" unicode="D" horiz-adv-x="924" 
d="M-31 10h83l226 738h-83l3 10h328q94 0 170.5 -19t131 -55t84 -87.5t29.5 -116.5q0 -104 -48.5 -192t-133 -152t-199 -100t-246.5 -36h-348zM327 10q53 0 101.5 25t90 67.5t75.5 98.5t57.5 118.5t36.5 127.5t13 126q0 88 -42.5 131.5t-114.5 43.5h-33l-226 -738h42z" />
    <glyph glyph-name="E" unicode="E" horiz-adv-x="810" 
d="M-31 10h83l226 738h-83l3 10h615l-19 -237h-6l-126 203q-11 16 -18.5 20t-28.5 4h-104l-109 -356h91q12 0 18 3.5t16 15.5l103 131h6l-95 -310h-6l-23 131q-2 12 -6 15.5t-16 3.5h-91l-114 -372h153q10 0 17.5 1t13.5 3.5t12.5 6.5t14.5 11l301 249h6l-154 -281h-683z
" />
    <glyph glyph-name="F" unicode="F" horiz-adv-x="773" 
d="M-31 10h83l226 738h-83l3 10h672l-19 -237h-6l-126 203q-10 16 -18 20t-29 4h-161l-109 -356h118q12 0 18 3.5t16 15.5l103 131h6l-95 -310h-6l-23 131q-2 12 -6 15.5t-16 3.5h-118l-114 -372h125l-3 -10h-441z" />
    <glyph glyph-name="G" unicode="G" horiz-adv-x="915" 
d="M449 -13q-93 0 -164.5 22t-120 61.5t-73.5 95t-25 122.5q0 102 46.5 191.5t127.5 156t189.5 105t232.5 38.5q68 0 118 -17t85 -46l72 60h6l-58 -308h-6q-7 86 -22 143.5t-40.5 92.5t-61.5 50t-84 15t-94 -19.5t-86.5 -54t-74.5 -82.5t-58.5 -105.5t-38 -122.5t-13.5 -134
q0 -51 7 -96.5t23.5 -80.5t44 -55.5t68.5 -20.5q26 0 57 5t58 18l107 315h-190l55 68h379l-91 -267l-18 -80q-50 1 -96.5 -9.5t-90.5 -24t-86.5 -25t-83.5 -11.5z" />
    <glyph glyph-name="H" unicode="H" horiz-adv-x="978" 
d="M365 0h-399l3 10h83l226 738h-83l3 10h399l-3 -10h-83l-98 -321h262l98 321h-83l3 10h399l-3 -10h-83l-226 -738h83l-3 -10h-399l3 10h83l107 349h-262l-107 -349h83z" />
    <glyph glyph-name="I" unicode="I" horiz-adv-x="483" 
d="M365 0h-399l3 10h83l226 738h-83l3 10h399l-3 -10h-83l-226 -738h83z" />
    <glyph glyph-name="J" unicode="J" horiz-adv-x="538" 
d="M78 -143q-37 0 -68.5 10t-54 27t-35.5 40.5t-13 49.5q0 29 15 51t38 34.5t51.5 16t55.5 -5.5q-2 -55 3 -93.5t15.5 -63t26.5 -36t36 -11.5q37 0 56 27t19 75q0 19 -5 39t-15 38t-25 33t-34 24l195 636h-83l3 10h399l-3 -10h-83l-183 -598q-25 -83 -58.5 -139t-73 -90.5
t-85 -49t-94.5 -14.5z" />
    <glyph glyph-name="K" unicode="K" horiz-adv-x="902" 
d="M365 0h-399l3 10h83l226 738h-83l3 10h399l-3 -10h-83l-106 -345l480 345h-112l3 10h245l-3 -10h-115l-493 -354h242l217 -394h-259l-211 383l-114 -373h83z" />
    <glyph glyph-name="L" unicode="L" horiz-adv-x="752" 
d="M398 10q21 0 31 4t27 18l301 249h6l-154 -281h-643l3 10h83l226 738h-83l3 10h399l-3 -10h-83l-226 -738h113z" />
    <glyph glyph-name="M" unicode="M" horiz-adv-x="1047" 
d="M-64 10h97l220 599l-28 149h236l82 -450l286 450h315l-3 -10h-96l-182 -738h96l-3 -10h-429l3 10h96l164 666l-420 -660h-6l-107 572l-212 -578h96l-3 -10h-205z" />
    <glyph glyph-name="N" unicode="N" horiz-adv-x="869" 
d="M-10 10h97l175 572l-111 174l1 2h268l318 -515l154 505h-96l3 10h205l-3 -10h-97l-242 -789h-3l-389 610l-171 -559h96l-3 -10h-205z" />
    <glyph glyph-name="O" unicode="O" horiz-adv-x="932" 
d="M633 779q70 0 128.5 -20.5t101 -59t66 -93t23.5 -122.5q0 -56 -18 -114.5t-52.5 -113.5t-84 -104t-113 -85.5t-139.5 -58t-163 -21.5q-70 0 -128.5 20.5t-101 59t-66 93t-23.5 122.5q0 56 18 114.5t52.5 113.5t84 104t113 85.5t139.5 58t163 21.5zM600 769q-41 0 -78 -22
t-68.5 -60.5t-57.5 -92t-44 -116t-28 -132.5t-10 -142q0 -57 6 -96t18.5 -64t31.5 -36t45 -11q41 0 78 22t68.5 60.5t57.5 92t44 116t28 132.5t10 142q0 113 -24.5 160t-76.5 47z" />
    <glyph glyph-name="P" unicode="P" horiz-adv-x="834" 
d="M-31 10h83l226 738h-83l3 10h375q83 0 148.5 -8t110.5 -26t69 -48t24 -75q0 -50 -23 -98t-78.5 -86t-148.5 -61.5t-232 -23.5h-30l3 10h30q56 0 99.5 29.5t73 73.5t45 93.5t15.5 90.5q0 60 -25 89.5t-84 29.5h-59l-226 -738h113l-3 -10h-429z" />
    <glyph glyph-name="Q" unicode="Q" horiz-adv-x="932" 
d="M633 779q70 0 128.5 -20.5t101 -59t66 -93t23.5 -122.5q0 -69 -27.5 -141.5t-79 -137.5t-126 -116.5t-167.5 -78.5l79 -156l-10 -5l-80 158q-37 -9 -77 -14.5t-82 -5.5q-70 0 -128.5 20.5t-101 59t-66 93t-23.5 122.5q0 56 18 114.5t52.5 113.5t84 104t113 85.5t139.5 58
t163 21.5zM600 769q-41 0 -78 -22t-68.5 -60.5t-57.5 -92t-44 -116t-28 -132.5t-10 -142q0 -57 6 -96t18.5 -64t31.5 -36t45 -11q29 0 56.5 11.5t52.5 32.5l-73 148l10 5l72 -145q37 35 68 89.5t53.5 122t34.5 144.5t12 157q0 113 -24.5 160t-76.5 47z" />
    <glyph glyph-name="R" unicode="R" horiz-adv-x="875" 
d="M-31 10h83l226 738h-83l3 10h328q84 0 150.5 -7.5t112 -24.5t69.5 -46.5t24 -72.5q0 -47 -25 -84.5t-72 -64t-115 -41.5t-155 -17v-2q49 -5 85 -20t62.5 -38t45.5 -53t34 -64l99 -223h-256l-165 378h-22l-113 -368h83l-3 -10h-399zM417 388q54 0 95 26.5t68 65.5t41 83.5
t14 81.5q0 52 -24.5 77.5t-83.5 25.5h-16l-110 -360h16z" />
    <glyph glyph-name="S" unicode="S" horiz-adv-x="670" 
d="M259 -13q-57 0 -111 14.5t-86 46.5l-58 -48h-5l69 319h6q0 -89 9.5 -150.5t30.5 -99.5t55 -55t85 -17q44 0 75.5 8.5t52 22.5t30.5 32.5t10 38.5q0 39 -22.5 74.5t-62.5 79.5l-54 60q-49 54 -76.5 107t-27.5 116q0 51 25 95t67.5 77t99 52t118.5 19q57 0 103 -14t79 -46
l59 49h4l-62 -292h-7q-3 91 -15.5 148t-34.5 89.5t-53 44t-70 11.5q-78 0 -117.5 -27.5t-39.5 -65.5q0 -24 10.5 -46.5t26.5 -44t34.5 -41.5t34.5 -38l52 -58q31 -35 52.5 -63.5t35 -53.5t19.5 -48.5t6 -50.5q0 -52 -25.5 -96.5t-71.5 -77.5t-110 -52t-140 -19z" />
    <glyph glyph-name="T" unicode="T" horiz-adv-x="842" 
d="M128 10h103l226 738h-102q-17 0 -28 -4.5t-24 -19.5l-217 -248h-6l148 335h7l91 -53h501l123 53h7l-56 -335h-6l-61 248q-4 15 -11.5 19.5t-24.5 4.5h-108l-226 -738h103l-3 -10h-439z" />
    <glyph glyph-name="U" unicode="U" horiz-adv-x="881" 
d="M385 -13q-77 0 -137.5 18t-97 56t-45.5 97t16 141l138 449h-83l3 10h399l-3 -10h-83l-141 -459q-39 -130 -11 -195.5t125 -65.5q121 0 198.5 73t120.5 213l133 434h-96l3 10h205l-3 -10h-97l-133 -434q-23 -75 -55 -135t-80 -103t-115 -66t-161 -23z" />
    <glyph glyph-name="V" unicode="V" horiz-adv-x="876" 
d="M276 748h-83l3 10h399l-3 -10h-83l-163 -533l675 533h-91l3 10h192l-3 -10h-83l-997 -787h-7z" />
    <glyph glyph-name="W" unicode="W" horiz-adv-x="1364" 
d="M276 748h-83l3 10h399l-3 -10h-83l-163 -533l336 266l85 277h346l-3 -10h-113l-163 -533l675 533h-91l3 10h192l-3 -10h-83l-997 -787h-7l153 501l-634 -501h-7z" />
    <glyph glyph-name="X" unicode="X" horiz-adv-x="941" 
d="M91 0h-211l5 10h93l445 317l-75 421h-93l5 10h425l-5 -10h-93l48 -269l377 269h-94l5 10h211l-5 -10h-98l-394 -281l81 -457h93l-5 -10h-425l5 10h93l-54 305l-428 -305h99z" />
    <glyph glyph-name="Y" unicode="Y" horiz-adv-x="839" 
d="M545 0h-399l3 10h83l116 379l-135 359h-93l3 10h435l-3 -10h-93l121 -340l336 340h-93l3 10h192l-3 -10h-84l-353 -358l-116 -380h83z" />
    <glyph glyph-name="Z" unicode="Z" horiz-adv-x="805" 
d="M647 748h-177q-19 0 -31 -4.5t-25 -15.5l-264 -227h-6l192 310h7l97 -53h491l-725 -748h212q10 0 17.5 1t14 3.5t13 6.5t14.5 11l303 259h6l-167 -291h-699z" />
    <glyph glyph-name="bracketleft" unicode="[" horiz-adv-x="376" 
d="M99 -201q-12 -34 -3.5 -43t39.5 -9h60l-4 -10h-280l363 1055h280l-3 -10h-60q-31 0 -45.5 -9t-26.5 -43z" />
    <glyph glyph-name="backslash" unicode="\" horiz-adv-x="722" 
d="M518 -52l-343 828h100l343 -828h-100z" />
    <glyph glyph-name="bracketright" unicode="]" horiz-adv-x="373" 
d="M294 730q12 34 3.5 43t-39.5 9h-60l4 10h280l-363 -1055h-280l3 10h60q31 0 45.5 9t26.5 43z" />
    <glyph glyph-name="asciicircum" unicode="^" horiz-adv-x="645" 
d="M449 758h94l63 -415h-85l-48 333l-278 -333h-95z" />
    <glyph glyph-name="underscore" unicode="_" horiz-adv-x="529" 
d="M-100 -75h534l-31 -91h-534z" />
    <glyph glyph-name="grave" unicode="`" 
d="M70 579l-152 176l1 3h174l-14 -179h-9z" />
    <glyph glyph-name="a" unicode="a" horiz-adv-x="654" 
d="M121 -13q-25 0 -47 8t-38.5 24.5t-26 40.5t-9.5 56q0 49 17.5 99t47 96t67 86t78.5 69t82 46t76 17q28 0 42.5 -14.5t15.5 -52.5h1l23 62h214l-155 -408q-20 -51 -25.5 -71.5t4.5 -20.5q7 0 20 6t32 24.5t43 53t53 90.5l10 -5q-33 -63 -61 -103t-56.5 -63t-60.5 -31.5
t-72 -8.5q-66 0 -81 34t8 103l27 78h-2q-27 -59 -50 -100t-48 -66.5t-56 -37t-73 -11.5zM240 50q10 0 27 23t36.5 60t39 82.5t36 90.5t26.5 85t10 66q0 59 -30 59q-18 0 -37 -21t-37 -56t-34 -79.5t-28.5 -90.5t-19.5 -90.5t-7 -79.5q0 -31 5 -40t13 -9z" />
    <glyph glyph-name="b" unicode="b" horiz-adv-x="619" 
d="M179 -13q-41 0 -76 11.5t-56 39.5t-23 75.5t22 119.5l174 515h-63l4 10h276l-90 -264l-83 -205h2q54 117 120 176.5t133 59.5q33 0 54.5 -10t34.5 -26t18 -37t5 -43q0 -50 -20.5 -100.5t-55.5 -97.5t-80.5 -88t-95.5 -71t-102 -47.5t-98 -17.5zM221 0q18 0 39 21
t41.5 55.5t39.5 78.5t33.5 89t23 88t8.5 75q0 12 -2 21t-13 9q-17 0 -40.5 -28.5t-47.5 -71t-45 -91.5t-34 -90q-10 -32 -17 -60t-8.5 -49.5t3.5 -34t19 -12.5z" />
    <glyph glyph-name="c" unicode="c" horiz-adv-x="483" 
d="M183 -13q-44 0 -76.5 12.5t-54 35t-31.5 54t-9 69.5q3 74 38 140.5t88.5 117t117.5 80t125 29.5q57 0 90.5 -23t31.5 -64q-1 -24 -12.5 -42.5t-31 -30.5t-44 -18t-50.5 -5l-16 173h-1q-30 -21 -51.5 -56t-35.5 -77.5t-21.5 -88t-8.5 -87.5q-2 -38 1.5 -69.5t11.5 -54.5
t20.5 -36t28.5 -13q32 0 68.5 41.5t71.5 131.5l10 -3q-21 -60 -47 -101.5t-57.5 -67t-70 -36.5t-85.5 -11z" />
    <glyph glyph-name="d" unicode="d" horiz-adv-x="660" 
d="M119 -13q-52 0 -86 32t-34 92q0 51 18 101.5t48 97t68.5 86.5t80 69.5t82.5 46.5t75 17q57 0 60 -45h1l88 264h-94l4 10h306l-214 -642q-17 -52 -22 -72t5 -20q6 0 19.5 6.5t33 25.5t43.5 53t51 89l10 -5q-32 -64 -60.5 -104t-58 -62.5t-63.5 -31t-78 -8.5
q-42 0 -61 12.5t-22.5 35.5t4.5 55t21 70l14 42h-2q-32 -71 -61 -113.5t-57.5 -65t-58 -29.5t-60.5 -7zM241 50q10 0 27.5 21t37.5 55.5t40.5 78.5t37 90.5t27 91.5t10.5 82q0 26 -8.5 36.5t-24.5 10.5q-19 0 -38.5 -21t-38 -56t-34.5 -79.5t-28.5 -90.5t-19.5 -90.5
t-7 -79.5q0 -31 5.5 -40t13.5 -9z" />
    <glyph glyph-name="e" unicode="e" horiz-adv-x="503" 
d="M182 -13q-47 0 -80 12.5t-54 34t-31 51.5t-9 65q2 66 36 133t88 120.5t121.5 87.5t138.5 34q29 0 54 -7t42.5 -19.5t27.5 -30t9 -38.5q-1 -18 -7.5 -36t-17 -34t-25 -29t-30.5 -20l-206 -9q-6 -26 -9 -52.5t-4 -52.5q-2 -33 1.5 -63t12 -52.5t21.5 -35.5t31 -13
q40 0 82 45.5t74 134.5l10 -3q-18 -54 -42 -95.5t-57 -70t-76.5 -43t-100.5 -14.5zM392 516q-27 0 -50.5 -17t-42.5 -45.5t-34 -65.5t-24 -77q31 2 63.5 21t59 45.5t44 55.5t18.5 52q0 31 -34 31z" />
    <glyph glyph-name="f" unicode="f" horiz-adv-x="419" 
d="M-104 -268q-28 0 -50 8t-37 21t-22.5 29t-7.5 32q0 19 8 35t21.5 27t30.5 16t35 3l111 -136q22 77 41 156.5t35 160.5l61 312h-87l4 10q39 7 69.5 28t54 47.5t40.5 55t28 51.5q24 50 54 85t62.5 56.5t65 31.5t62.5 10q48 0 76.5 -23t28.5 -57q0 -20 -7 -37t-19 -30
t-27 -21.5t-30 -12.5l-186 95q-29 -27 -44.5 -57.5t-15.5 -56.5q0 -29 16.5 -49t63.5 -20h186l-77 -106h-102l-22 -113q-30 -155 -83.5 -260t-114 -170t-120 -93t-102.5 -28z" />
    <glyph glyph-name="g" unicode="g" horiz-adv-x="556" 
d="M237 170q-26 0 -47 3l-48 -32l141 -91q42 -27 75 -49.5t56.5 -43.5t35.5 -41.5t12 -43.5q0 -41 -30.5 -68t-75 -43t-95 -22.5t-90.5 -6.5q-75 0 -134.5 7.5t-101.5 22.5t-64.5 37t-22.5 50q0 24 17.5 41.5t47.5 31t70.5 22.5t86.5 15l-21 130l126 87q-63 13 -93 49
t-30 82q0 40 20.5 79t58.5 70t92 50t120 19q51 0 87.5 -12.5t59.5 -34.5l44 110h143l-47 -119h-131q29 -35 29 -81q0 -40 -20.5 -79t-58.5 -70t-91.5 -50t-120.5 -19zM277 181q15 0 27 17.5t21 47t13.5 68t4.5 79.5q0 66 -10.5 93.5t-29.5 27.5q-15 0 -27 -17.5t-21 -47
t-13.5 -68t-4.5 -79.5q0 -66 10.5 -93.5t29.5 -27.5zM-23 -124q0 -31 21.5 -55.5t54.5 -42t71.5 -26.5t72.5 -9q56 0 88.5 8t32.5 26q0 7 -5 14t-19 18.5t-39.5 28t-66.5 43.5l-112 72q-17 -4 -35 -10t-32 -15t-23 -21.5t-9 -30.5z" />
    <glyph glyph-name="h" unicode="h" horiz-adv-x="642" 
d="M322 -13q-17 0 -33 4t-28.5 12.5t-20 23t-7.5 35.5q0 19 8 34.5t21 27t28 18t30 7.5l63 -139q16 38 26 81.5t16 88t8 87t2 78.5q0 42 -7 67t-22 25q-17 0 -40.5 -29t-47.5 -72t-47 -91.5t-39 -88.5l-58 -141l-203 -25l257 758h-63l4 10h276l-89 -264l-77 -205h2
q57 118 121.5 177t131.5 59q33 0 54.5 -10.5t34.5 -27.5t18 -38.5t5 -43.5q0 -47 -15 -96.5t-40.5 -96t-58.5 -87.5t-69 -71.5t-72.5 -48.5t-68.5 -18z" />
    <glyph glyph-name="i" unicode="i" horiz-adv-x="385" 
d="M131 390l-51 60l2 4l319 85l-160 -423q-20 -51 -23.5 -71.5t6.5 -20.5q6 0 18 6.5t29.5 25.5t40 53t49.5 89l10 -5q-32 -64 -59 -104t-54.5 -62.5t-60 -31t-76.5 -8.5q-33 0 -56 8.5t-33.5 29t-7.5 53.5t21 82zM338 566q-26 0 -48 10t-39 27t-26.5 39.5t-9.5 48.5
q0 25 9.5 47.5t26.5 39.5t39 26.5t48 9.5t48.5 -9.5t39.5 -26.5t27 -39.5t10 -47.5q0 -26 -10 -48.5t-27 -39.5t-39.5 -27t-48.5 -10z" />
    <glyph glyph-name="j" unicode="j" horiz-adv-x="349" 
d="M80 450l2 4l319 85l-188 -490q-16 -41 -42 -71.5t-58 -54.5t-68.5 -44.5t-73.5 -39.5q-17 -9 -39.5 -21t-48.5 -25.5t-54 -28t-55 -27.5l-4 9q34 21 64 45q29 23 51.5 48t41 54.5t35.5 66t35 82.5l134 348zM334 566q-26 0 -48 10t-39 27t-26.5 39.5t-9.5 48.5
q0 25 9.5 47.5t26.5 39.5t39 26.5t48 9.5t48.5 -9.5t39.5 -26.5t27 -39.5t10 -47.5q0 -26 -10 -48.5t-27 -39.5t-39.5 -27t-48.5 -10z" />
    <glyph glyph-name="k" unicode="k" horiz-adv-x="661" 
d="M228 748h-63l4 10h276l-95 -274l-59 -153h3q27 47 52 83.5t51.5 61t56 37t65.5 12.5q51 0 75 -23t24 -55q0 -47 -42 -82t-122 -58l66 -211q15 -48 23 -65.5t18 -17.5q4 0 12 4t17.5 15t21 31.5t23.5 53.5l11 -4q-17 -45 -34.5 -73t-38.5 -43.5t-46 -21t-55 -5.5
q-69 0 -110.5 49t-70.5 145l-24 79l-39 -111l-36 -116l-221 -26zM270 252q46 1 86.5 14t70.5 36t47.5 56t17.5 73q0 65 -38 65q-19 0 -45.5 -25t-53 -61.5t-49.5 -78.5t-35 -76z" />
    <glyph glyph-name="l" unicode="l" horiz-adv-x="366" 
d="M107 -13q-33 0 -56 8.5t-33.5 29t-8 53.5t19.5 83l199 587h-63l4 10h276l-218 -642q-17 -52 -22 -72t5 -20q6 0 19.5 6.5t33 25.5t43.5 53t51 89l10 -5q-32 -64 -60.5 -104t-58 -62.5t-63.5 -31t-78 -8.5z" />
    <glyph glyph-name="m" unicode="m" horiz-adv-x="987" 
d="M712 -13q-33 0 -57.5 9.5t-36 30t-8 53.5t25.5 80l105 225q12 26 18.5 42t8 25t-1 12.5t-8.5 3.5q-11 0 -23.5 -11t-26 -29.5t-29 -44t-32.5 -54.5q-23 -41 -46 -86.5t-42.5 -88t-34.5 -79t-21 -60.5l-222 -25l150 395q10 26 16 42.5t7.5 25.5t-1 12t-8.5 3
q-9 0 -20.5 -11t-25.5 -29.5t-29.5 -44t-32.5 -54.5q-23 -41 -46 -86.5t-42.5 -88t-34.5 -79t-21 -60.5l-213 -25l150 400l-51 60l2 4l311 85l-160 -386h2q29 60 54 108t48 88q25 44 48 77t47.5 55t52.5 33t63 11q66 0 84 -56.5t-27 -165.5l-62 -150h2q29 60 54 108t48 88
q25 44 48 77t47.5 55t52.5 33t63 11q33 0 57 -14t34.5 -42t4.5 -69.5t-32 -96.5l-89 -187q-23 -50 -27 -71t7 -21q7 0 20.5 6t32.5 24.5t43.5 53t53.5 90.5l10 -5q-33 -63 -61 -103t-57.5 -63t-63.5 -31.5t-78 -8.5z" />
    <glyph glyph-name="n" unicode="n" horiz-adv-x="677" 
d="M402 -13q-33 0 -57.5 9.5t-36 30t-8 53.5t25.5 80l105 225q12 26 18.5 42t8 25t-1 12.5t-8.5 3.5q-11 0 -23.5 -11t-26 -29.5t-29 -44t-32.5 -54.5q-23 -41 -46 -86.5t-42.5 -88t-34.5 -79t-21 -60.5l-213 -25l150 400l-51 60l2 4l311 85l-160 -386h2q29 60 54 108t48 88
q25 44 48 77t47.5 55t52.5 33t63 11q33 0 57 -14t34.5 -42t4.5 -69.5t-32 -96.5l-89 -187q-23 -50 -27 -71t7 -21q7 0 20.5 6t32.5 24.5t43.5 53t53.5 90.5l10 -5q-33 -63 -61 -103t-57.5 -63t-63.5 -31.5t-78 -8.5z" />
    <glyph glyph-name="o" unicode="o" horiz-adv-x="570" 
d="M172 -13q-41 0 -72 11.5t-52 31.5t-31.5 46.5t-10.5 56.5q0 69 33 138.5t88 126t126.5 92t148.5 35.5q40 0 71 -11.5t52 -31.5t32 -46.5t11 -56.5q0 -69 -33 -139t-87.5 -126.5t-126 -91.5t-149.5 -35zM250 6q16 0 34.5 28t34 80t26 127t10.5 170q0 45 -7 70t-23 25
q-17 0 -36 -28t-35 -80.5t-26 -127.5t-10 -169q0 -46 7 -70.5t25 -24.5z" />
    <glyph glyph-name="p" unicode="p" horiz-adv-x="663" 
d="M240 -13h-19t-19 1l-81 -236h-209l217 638l-51 60l2 4l311 85l-36 -105q13 17 31.5 33.5t40 29t44.5 20.5t45 8q73 0 110 -38.5t37 -106.5q0 -61 -30.5 -130t-86 -127.5t-133.5 -97t-173 -38.5zM400 448q-17 0 -31.5 -11.5t-24.5 -35.5l-139 -404q4 -1 12 -1
q26 0 52.5 17.5t51.5 47t46 68t37 80.5t25 85t9 81q0 32 -9 52.5t-29 20.5z" />
    <glyph glyph-name="q" unicode="q" horiz-adv-x="625" 
d="M277 27l77 175h-2q-32 -67 -62 -109t-60 -65.5t-59.5 -32t-59.5 -8.5q-54 0 -83 36t-29 88q0 51 18.5 101.5t49.5 97t70.5 86.5t82 69.5t84 46.5t75.5 17q29 0 41 -10t13 -29h1l10 30h214l-260 -768h-214zM242 62q7 0 18.5 12.5t25.5 33t29 46t28.5 52.5t24.5 52t17 44
q19 62 29 103.5t11 66t-6.5 34.5t-22.5 10q-20 0 -40 -22t-38.5 -57.5t-34.5 -81t-28 -92t-18.5 -90.5t-6.5 -76q0 -20 3.5 -27.5t8.5 -7.5z" />
    <glyph glyph-name="r" unicode="r" horiz-adv-x="534" 
d="M130 390l-51 60l2 4l311 85l-162 -401h2q32 72 58.5 128.5t49.5 100.5q21 40 40.5 70t40 49.5t43.5 29t51 9.5q37 0 57 -23.5t20 -61.5q0 -42 -32 -75t-99 -46l-52 133q-17 -17 -37.5 -52t-42.5 -79q-21 -43 -42.5 -89.5t-40 -89t-33 -76.5t-21.5 -51l-212 -25z" />
    <glyph glyph-name="s" unicode="s" horiz-adv-x="456" 
d="M129 -13q-32 0 -59.5 7.5t-47.5 21t-31.5 32t-11.5 41.5q0 22 11 39.5t29 30.5t40 20t44 8l57 -188q40 3 63.5 13.5t23.5 39.5q0 22 -18 49t-56 76l-28 36q-29 37 -43.5 69t-14.5 64q0 41 24.5 74t62 56.5t82.5 36t87 12.5q29 0 54.5 -7t44 -19.5t29 -29.5t10.5 -38
t-10.5 -37.5t-28.5 -28t-42 -17t-51 -4.5l-40 169q-37 -3 -59.5 -13.5t-22.5 -33.5t16 -50.5t51 -70.5l35 -43q27 -34 39 -61t12 -63q0 -49 -24 -85t-60.5 -59.5t-81 -35t-85.5 -11.5z" />
    <glyph glyph-name="t" unicode="t" horiz-adv-x="459" 
d="M128 -13q-30 0 -53 9t-34.5 29.5t-9 53.5t22.5 81l100 236h-108l47 106h106l45 107h208l-44 -107h144l-47 -106h-141l-116 -280q-21 -51 -26 -71.5t6 -20.5q7 0 20.5 6t32.5 24.5t43.5 53t53.5 90.5l10 -5q-33 -63 -62 -103t-59 -63t-63.5 -31.5t-75.5 -8.5z" />
    <glyph glyph-name="u" unicode="u" horiz-adv-x="666" 
d="M418 374h-2q-32 -67 -60.5 -118t-54.5 -96q-22 -37 -42 -68.5t-42.5 -55t-49.5 -36.5t-62 -13q-33 0 -57 14t-34.5 42t-5.5 69.5t30 96.5l122 266l-73 -9l4 11l298 35l-171 -385q-20 -45 -28.5 -66.5t2.5 -21.5q14 0 44 43t71 112q25 43 48.5 88t43.5 85t34.5 71.5
t21.5 48.5l213 25l-148 -396q-19 -51 -25 -71.5t5 -20.5q7 0 20.5 6t32.5 24.5t43.5 53t53.5 90.5l10 -5q-33 -63 -61 -103t-57.5 -63t-63.5 -31.5t-78 -8.5q-30 0 -51 8.5t-31 29t-6.5 53.5t22.5 82z" />
    <glyph glyph-name="v" unicode="v" horiz-adv-x="583" 
d="M207 -13q-63 0 -101 32t-38 85q0 33 15 64t40.5 59t60.5 54.5t75 50.5h-214l-47 -83h-12l137 253h276q-23 -25 -51 -56t-52 -65t-40 -68.5t-16 -66.5q0 -46 30 -76.5t91 -30.5q31 0 62 10.5t57.5 32t47 55t31.5 80.5l-145 94q-8 52 15.5 83t68.5 31q15 0 29.5 -4t26 -16
t18 -33.5t6.5 -56.5q0 -94 -31.5 -172.5t-83.5 -135.5t-119 -88.5t-137 -31.5z" />
    <glyph glyph-name="w" unicode="w" horiz-adv-x="843" 
d="M203 -13q-63 0 -101.5 33.5t-38.5 90.5q0 33 15 62.5t41.5 57t62.5 52.5t78 49h-211l-47 -83h-12l137 253h306q-34 -31 -68 -63t-61.5 -64.5t-44.5 -63.5t-17 -61q0 -31 10 -52t27.5 -34t40 -19t47.5 -6h13.5t13.5 1q-5 19 -6.5 38.5t-1.5 39.5q0 62 12 118t33 98
t50.5 66.5t64.5 24.5q26 0 43.5 -18t17.5 -68q0 -54 -16 -111t-49 -112q-11 -18 -23.5 -35t-26.5 -34q29 -8 60 -8q43 0 83 14.5t73.5 38.5t57.5 56.5t35 68.5l-150 94q-6 23 -4 43.5t12.5 36.5t27.5 25t41 9q15 0 30.5 -4t27.5 -17t19.5 -37t7.5 -63q0 -75 -11.5 -150
t-39.5 -134t-75.5 -96t-119.5 -37q-57 0 -93 24.5t-57 62.5q-49 -40 -104 -63.5t-110 -23.5zM398 281q0 -45 17.5 -75.5t49.5 -47.5q23 11 39.5 26t27.5 32q16 25 22 50.5t6 45.5q0 38 -18.5 55.5t-50.5 17.5q-38 0 -65.5 -25t-27.5 -79z" />
    <glyph glyph-name="x" unicode="x" horiz-adv-x="644" 
d="M391 -13q-31 0 -57.5 8t-47.5 27t-37 51t-26 79q-38 -56 -65 -88.5t-49 -49.5t-39.5 -22t-35.5 -5q-32 0 -52.5 18t-20.5 52q0 27 12 50t31.5 40.5t45.5 28t54 13.5l29 -137q18 20 38.5 47.5t48.5 67.5l-5 37l-21 181q-4 32 -7 52t-6 31t-7.5 15t-11.5 4q-18 0 -47 -30
t-56 -97l-11 4q21 49 43 80.5t47 49.5t54 24.5t63 6.5q31 0 58 -8.5t49 -28.5t37.5 -53.5t24.5 -82.5q39 58 67.5 92.5t51 52.5t40.5 23t36 5q32 0 52.5 -18t20.5 -52q0 -27 -12 -50t-31.5 -40.5t-45.5 -28t-54 -13.5l-29 137q-19 -22 -41 -50.5t-52 -72.5q2 -7 2.5 -14
t1.5 -15l21 -181q4 -32 7 -52t6 -31t7.5 -15t11.5 -4q18 0 47 30t56 97l11 -4q-21 -49 -43 -80.5t-47 -49.5t-54 -24.5t-63 -6.5z" />
    <glyph glyph-name="y" unicode="y" horiz-adv-x="566" 
d="M93 -248h-226l251 286l-9 441l-73 -10l4 11l272 32l3 -486l204 278l-108 128q3 24 13 42t24.5 29t32 16.5t35.5 5.5q33 0 59.5 -17t26.5 -58q0 -23 -16 -61t-54 -89l-216 -292z" />
    <glyph glyph-name="z" unicode="z" horiz-adv-x="563" 
d="M70 1q-14 -10 -34 -13t-38 0.5t-31 14t-13 27.5q0 14 13.5 34.5t50.5 44.5l344 223h-265l-49 -83h-10l137 253h465l-318 -206l71 -180q15 -37 24.5 -60t17 -36t14 -17.5t13.5 -4.5q11 0 23 10t18.5 31t4.5 53.5t-19 78.5l10 3q36 -101 8.5 -152.5t-116.5 -51.5
q-41 0 -73 9t-59.5 28.5t-52 49t-49.5 70.5l-27 44l-47 -30q-10 -6 -14.5 -14.5t-5.5 -23.5t1 -39.5t6 -62.5z" />
    <glyph glyph-name="braceleft" unicode="{" horiz-adv-x="395" 
d="M196 -264q-60 9 -113.5 31.5t-87 57t-42 81t21.5 104.5l48 93q28 54 46 87t22 51.5t-10 26t-51 10.5l4 13q39 3 58 10.5t28.5 26t14 51.5t13.5 87l16 93q10 58 38 99.5t76 69.5t117.5 43.5t164.5 21.5l-2 -10q-55 -5 -86.5 -10t-48 -21.5t-21 -50.5t-5.5 -96l-1 -71
q-1 -65 -29.5 -110.5t-76.5 -74.5t-112 -44t-136 -20v-1q68 -5 125 -21t88.5 -46t30.5 -75t-49 -107l-55 -71q-46 -59 -62.5 -98.5t-11 -64t30.5 -37t62 -18.5z" />
    <glyph glyph-name="bar" unicode="|" horiz-adv-x="337" 
d="M128 780h91v-1028h-91v1028z" />
    <glyph glyph-name="braceright" unicode="}" horiz-adv-x="395" 
d="M217 793q60 -9 113.5 -31.5t87 -57t42 -81t-21.5 -104.5l-48 -93q-28 -54 -46 -87t-22 -51.5t10 -26t51 -10.5l-4 -13q-39 -3 -58 -10.5t-28.5 -26t-14 -51.5t-13.5 -87l-16 -93q-10 -58 -38 -99.5t-76 -69.5t-117.5 -43.5t-164.5 -21.5l2 10q55 5 86.5 10t48 21.5
t21 50.5t5.5 96l1 71q1 65 29.5 110.5t76.5 74.5t112 44t136 20v1q-68 5 -125 21t-88.5 46t-30.5 75t49 107l55 71q46 59 62.5 98.5t11 64t-30.5 37t-62 18.5z" />
    <glyph glyph-name="asciitilde" unicode="~" horiz-adv-x="645" 
d="M212 361q42 0 75.5 -12t62 -26t54 -26t52.5 -12q29 0 47 16.5t20 54.5h85q-5 -66 -43 -108t-110 -42q-37 0 -68 12t-60 26t-57.5 26t-58.5 12q-29 0 -47 -16.5t-20 -54.5h-85q5 66 43 108t110 42z" />
    <glyph glyph-name="uni00A0" unicode="&#xa0;" horiz-adv-x="232" 
 />
    <glyph glyph-name="exclamdown" unicode="&#xa1;" horiz-adv-x="353" 
d="M11 -294q-21 10 -40 29.5t-33 43.5t-22.5 50t-8.5 50q29 19 64.5 48t71.5 72t68.5 100.5t55.5 133.5l5 17h10l-5 -17q-23 -76 -26 -135.5t6.5 -105t27.5 -76.5t36 -50q-12 -29 -33.5 -55.5t-49 -48t-60.5 -36.5t-67 -20zM210 525q27 0 49.5 -9.5t39.5 -26t26.5 -39.5
t9.5 -49q0 -25 -9.5 -46.5t-26.5 -38t-39.5 -26t-49.5 -9.5q-24 0 -46 9.5t-38 26t-25.5 38t-9.5 46.5q0 26 9.5 49t25.5 39.5t38 26t46 9.5z" />
    <glyph glyph-name="cent" unicode="&#xa2;" horiz-adv-x="506" 
d="M190 -13q-88 1 -129.5 48t-39.5 123q3 74 38 140.5t88.5 117t117.5 80t125 29.5h2l32 85h12l-32 -86q51 -3 80.5 -25.5t27.5 -60.5q-1 -24 -12.5 -42.5t-31 -30.5t-44 -18t-50.5 -5l-16 173h-1q-30 -21 -51.5 -56t-35.5 -77.5t-21.5 -88t-8.5 -87.5q-2 -38 1.5 -69.5
t11.5 -54.5t20.5 -36t28.5 -13q32 0 68.5 41.5t71.5 131.5l10 -3q-21 -59 -46 -99.5t-55.5 -66t-67 -37.5t-81.5 -13l-38 -101h-12z" />
    <glyph glyph-name="sterling" unicode="&#xa3;" horiz-adv-x="748" 
d="M-37 4l190 130q45 31 76 54t50 41t27 33.5t8 32.5q0 19 -7 40.5t-27 52.5l-1 2h-125l10 10h108l-23 37q-10 16 -22.5 37.5t-12.5 45.5q0 21 8.5 42.5t30 45.5t59 51t96.5 60q57 31 113 45.5t120 14.5q73 0 108.5 -27.5t35.5 -62.5q0 -21 -10.5 -41.5t-30 -36t-47.5 -24.5
t-62 -7q-15 19 -31 38.5t-31 38t-29 34.5t-24 28q-12 14 -30 17.5t-47 -10.5q-21 -10 -29.5 -20t-10.5 -23q-3 -26 46 -104l43 -68q22 -34 32 -59.5t10 -48.5v-3h124l-9 -10h-116q-7 -54 -72 -102.5t-196 -92.5l-27 -9h455l-141 -186h-589v4z" />
    <glyph glyph-name="yen" unicode="&#xa5;" horiz-adv-x="939" 
d="M590 0h-399l3 10h83l75 244h-178l9 10h172l35 115h-178l9 10h172l-135 359h-93l3 10h435l-3 -10h-93l121 -339l335 339h-95l3 10h195l-3 -10h-84l-353 -358v-1h188l-9 -10h-182l-35 -115h188l-9 -10h-183l-74 -244h83z" />
    <glyph glyph-name="brokenbar" unicode="&#xa6;" horiz-adv-x="337" 
d="M128 780h91v-394h-91v394zM128 146h91v-394h-91v394z" />
    <glyph glyph-name="section" unicode="&#xa7;" horiz-adv-x="650" 
d="M168 -180q30 0 56 10t46 28t31.5 42t11.5 52q0 21 -6.5 43.5t-18.5 49t-30 58.5t-42 72l-44 74q-23 38 -39.5 83.5t-16.5 98.5q0 67 30.5 129.5t86 111t132 78t169.5 29.5q91 0 142.5 -31t51.5 -79q0 -27 -15 -48t-41 -33.5t-61 -15.5t-75 5q33 102 27.5 146t-60.5 44
q-31 0 -56 -15t-42 -37t-26.5 -48t-9.5 -48q0 -46 22 -92t55 -103l43 -74q32 -55 54.5 -107.5t22.5 -109.5q0 -59 -29.5 -117.5t-84 -104.5t-131.5 -74.5t-171 -28.5q-45 0 -83 7.5t-66 22.5t-43.5 36t-15.5 48q0 33 19 55.5t48 34.5t63.5 15t65.5 -3q-38 -97 -29.5 -150.5
t59.5 -53.5zM376 20q0 -24 -7 -50.5t-22 -52t-38.5 -48t-55.5 -37.5q61 16 106 43.5t74.5 62t43.5 74t14 78.5q0 55 -24.5 109.5t-59.5 111.5l-47 78q-29 49 -41.5 89t-12.5 77q0 54 29.5 109.5t96.5 92.5q-72 -20 -119 -52.5t-74.5 -70t-39 -77t-11.5 -73.5q0 -45 16.5 -94
t48.5 -100l46 -77q35 -59 56 -104t21 -89z" />
    <glyph glyph-name="dieresis" unicode="&#xa8;" 
d="M120 603q-35 0 -59 24.5t-24 60.5t24 60.5t59 24.5q36 0 59.5 -24.5t23.5 -60.5t-23.5 -60.5t-59.5 -24.5zM-119 602q-35 0 -59 24.5t-24 60.5t24 60.5t59 24.5q36 0 59.5 -24.5t23.5 -60.5t-23.5 -60.5t-59.5 -24.5z" />
    <glyph glyph-name="copyright" unicode="&#xa9;" horiz-adv-x="906" 
d="M98 382q0 88 30.5 161t84 125.5t126 81.5t156.5 29q82 0 154 -29t125.5 -81.5t84.5 -125.5t31 -161t-31 -160.5t-84.5 -124.5t-125.5 -81t-154 -29q-84 0 -156.5 29t-126 81t-84 124.5t-30.5 160.5zM134 382q0 -82 27.5 -149.5t76 -115.5t114.5 -74.5t143 -26.5
q78 0 143.5 26.5t113.5 74.5t75 115.5t27 149.5q0 83 -27 150.5t-75 115.5t-113.5 74.5t-143.5 26.5q-77 0 -143 -26.5t-114.5 -74.5t-76 -115.5t-27.5 -150.5zM531 171q26 0 49 8t44 27.5t42 51.5t43 81h6l-26 -175h-3l-31 35q-11 -10 -27.5 -16.5t-34.5 -11t-36.5 -6.5
t-33.5 -2q-65 0 -117 17.5t-88 47.5t-55.5 71t-19.5 88q0 50 20 91.5t56.5 71t88.5 46t115 16.5q15 0 33.5 -2t37 -6.5t35 -11.5t27.5 -17l30 35h4l26 -175h-6q-22 49 -43 81.5t-42 51.5t-44 27t-49 8q-20 0 -40.5 -7.5t-37 -28t-26.5 -58t-10 -97.5q0 -49 5 -92.5t18 -76.5
t35 -52.5t55 -19.5z" />
    <glyph glyph-name="ordfeminine" unicode="&#xaa;" horiz-adv-x="571" 
d="M201 342q-41 0 -69.5 26t-28.5 78q0 40 14 80t37.5 77t54.5 69.5t64 56t66 37t61 13.5q23 0 34.5 -11t12.5 -43h1l18 50h175l-125 -329q-16 -42 -20.5 -58t3.5 -16q6 0 16.5 5t25.5 20t34.5 42.5t42.5 72.5l8 -4q-26 -51 -48.5 -83.5t-46 -50.5t-49 -25t-58.5 -7
q-54 0 -66.5 27.5t6.5 82.5l22 63h-2q-22 -48 -40.5 -81t-38.5 -53.5t-45 -29.5t-59 -9zM298 393q8 0 21.5 18.5t29 48t31.5 66.5t29 73.5t21 68.5t8 53q0 48 -24 48q-14 0 -29 -17t-29.5 -45.5t-27.5 -64t-23 -73t-15.5 -73.5t-5.5 -64q0 -25 4 -32t10 -7z" />
    <glyph glyph-name="guillemotleft" unicode="&#xab;" horiz-adv-x="572" 
d="M385 483l6 -7l-185 -235l28 -218l-9 -4l-191 232zM595 483l6 -7l-185 -235l28 -218l-9 -4l-191 232z" />
    <glyph glyph-name="uni00AD" unicode="&#xad;" horiz-adv-x="413" 
d="M81 313h294l-38 -111h-294z" />
    <glyph glyph-name="registered" unicode="&#xae;" horiz-adv-x="906" 
d="M98 382q0 88 30.5 161t84 125.5t126 81.5t156.5 29q82 0 154 -29t125.5 -81.5t84.5 -125.5t31 -161t-31 -160.5t-84.5 -124.5t-125.5 -81t-154 -29q-84 0 -156.5 29t-126 81t-84 124.5t-30.5 160.5zM134 382q0 -82 27.5 -149.5t76 -115.5t114.5 -74.5t143 -26.5
q78 0 143.5 26.5t113.5 74.5t75 115.5t27 149.5q0 83 -27 150.5t-75 115.5t-113.5 74.5t-143.5 26.5q-77 0 -143 -26.5t-114.5 -74.5t-76 -115.5t-27.5 -150.5zM257 189h45v412h-45v9h190q60 0 106.5 -4.5t78 -16t48 -31.5t16.5 -51q0 -25 -13.5 -42.5t-38.5 -28.5t-59 -17
t-75 -8v-3q44 0 74 -8.5t51 -23t35 -34.5t27 -43l66 -119h-176l-118 215h-14v-206h41v-9h-239v9zM460 402q45 0 61.5 26t16.5 74t-16.5 74t-61.5 26h-5v-200h5z" />
    <glyph glyph-name="macron" unicode="&#xaf;" 
d="M-142 705h310l-25 -68h-310z" />
    <glyph glyph-name="degree" unicode="&#xb0;" horiz-adv-x="410" 
d="M310 441q-36 0 -67 13t-54 36t-36 54t-13 66t13 66t36 54t54 36t67 13t67 -13t54 -36t36 -54t13 -66t-13 -66t-36 -54t-54 -36t-67 -13zM310 502q21 0 40 7.5t33 21.5t22.5 34t8.5 45t-8.5 45t-22.5 34t-33 21.5t-40 7.5t-40 -7.5t-33 -21.5t-22.5 -34t-8.5 -45t8.5 -45
t22.5 -34t33 -21.5t40 -7.5z" />
    <glyph glyph-name="plusminus" unicode="&#xb1;" horiz-adv-x="645" 
d="M264 278h-204v85h204v153h89v-153h204v-85h-204v-158h-89v158zM60 85h497v-85h-497v85z" />
    <glyph glyph-name="uni00B2" unicode="&#xb2;" horiz-adv-x="372" 
d="M42 403q99 64 157 112t87.5 83t38 60t8.5 42q0 27 -15.5 42t-41.5 15q-23 0 -45 -11.5t-41 -42.5l-5 3q32 64 77.5 93.5t102.5 29.5q29 0 50.5 -7.5t35 -20.5t20 -29.5t6.5 -35.5q0 -32 -17 -57.5t-44.5 -47.5t-63.5 -41.5t-75 -39.5l-64 -33h226l-88 -116h-310z" />
    <glyph glyph-name="uni00B3" unicode="&#xb3;" horiz-adv-x="366" 
d="M223 394q-61 0 -98 27.5t-37 66.5q0 16 8 29t22 20.5t31.5 9t37.5 -5.5l13 -115q2 -14 8.5 -19t16.5 -5q20 0 35.5 12.5t26 31t16 41.5t5.5 44q0 42 -18 61t-43 19q-13 0 -23 -2l-20 -4l-2 9l32 8q59 15 83 40t24 48q0 24 -18.5 35.5t-43.5 11.5q-29 0 -51.5 -11.5
t-34.5 -38.5l-7 2q21 60 65 90t100 30q44 0 75 -18t31 -50q0 -29 -25.5 -50t-87.5 -25l-1 -2q37 -13 65 -40t28 -74q0 -36 -18 -68t-48 -56t-68.5 -38t-78.5 -14z" />
    <glyph glyph-name="acute" unicode="&#xb4;" 
d="M-53 758h201l-1 -3l-283 -176h-12z" />
    <glyph glyph-name="paragraph" unicode="&#xb6;" horiz-adv-x="648" 
d="M327 286q-6 -1 -12 -1h-12q-42 0 -78.5 11.5t-64 34t-43 55t-15.5 73.5q0 66 35 121t98.5 94.5t151.5 61.5t193 22h184l-3 -10h-90l-238 -778l-168 -107l135 442q-28 -12 -62 -18l-143 -468l-14 -9z" />
    <glyph glyph-name="periodcentered" unicode="&#xb7;" horiz-adv-x="331" 
d="M166 140q-24 0 -46 9.5t-38 26t-25.5 39.5t-9.5 49q0 25 9.5 46.5t25.5 38t38 26t46 9.5q27 0 49.5 -9.5t39.5 -26t26.5 -38t9.5 -46.5q0 -26 -9.5 -49t-26.5 -39.5t-39.5 -26t-49.5 -9.5z" />
    <glyph glyph-name="cedilla" unicode="&#xb8;" 
d="M-74 -269q-38 0 -65.5 17.5t-27.5 41.5q0 11 5.5 19.5t14.5 12.5t20 3.5t21 -6.5l35 -65q4 -7 6.5 -10.5t10.5 -3.5q23 0 43.5 12t20.5 35q0 21 -25.5 41.5t-72.5 41.5l160 130h15l-101 -82q74 -36 74 -86q0 -19 -9.5 -37t-27.5 -32.5t-42.5 -23t-54.5 -8.5z" />
    <glyph glyph-name="uni00B9" unicode="&#xb9;" horiz-adv-x="277" 
d="M71 410h51l113 330h-69l3 8q27 1 60 6.5t64.5 15t58.5 24t42 32.5h5l-143 -416h43l-3 -9h-228z" />
    <glyph glyph-name="ordmasculine" unicode="&#xba;" horiz-adv-x="478" 
d="M239 342q-66 0 -100 34.5t-34 82.5q0 55 26.5 111.5t71 102.5t102.5 74.5t121 28.5q66 0 100 -34.5t34 -83.5q0 -56 -26.5 -112.5t-71 -101.5t-102.5 -73.5t-121 -28.5zM303 357q12 0 27 22.5t27.5 64.5t21 102.5t8.5 137.5q0 36 -6 56.5t-18 20.5q-14 0 -29 -22.5
t-28 -65t-21 -103.5t-8 -137t26 -76z" />
    <glyph glyph-name="guillemotright" unicode="&#xbb;" horiz-adv-x="571" 
d="M-14 19l-6 7l185 235l-28 218l9 4l191 -232zM196 19l-6 7l185 235l-28 218l9 4l191 -232z" />
    <glyph glyph-name="onequarter" unicode="&#xbc;" horiz-adv-x="857" 
d="M53 350h51l113 330h-69l3 8q27 1 60 6.5t64.5 15t58.5 24t42 32.5h5l-143 -416h43l-3 -9h-228zM821 758h74l-846 -758h-74zM576 86h-193l-1 1l447 353h2l-88 -257h73l-34 -97h-72l-30 -86h-134zM609 183l34 99l-126 -99h92z" />
    <glyph glyph-name="onehalf" unicode="&#xbd;" horiz-adv-x="869" 
d="M53 350h51l113 330h-69l3 8q27 1 60 6.5t64.5 15t58.5 24t42 32.5h5l-143 -416h43l-3 -9h-228zM821 758h74l-846 -758h-74zM418 2q99 64 157 112t87.5 83t38 60t8.5 42q0 27 -15.5 42t-41.5 15q-23 0 -45 -11.5t-41 -42.5l-5 3q32 64 77.5 93.5t102.5 29.5
q29 0 50.5 -7.5t35 -20.5t20 -29.5t6.5 -35.5q0 -32 -17 -57.5t-44.5 -47.5t-63.5 -41.5t-75 -39.5l-64 -33h226l-88 -116h-310z" />
    <glyph glyph-name="threequarters" unicode="&#xbe;" horiz-adv-x="934" 
d="M205 334q-61 0 -98 27.5t-37 66.5q0 16 8 29t22 20.5t31.5 9t37.5 -5.5l13 -115q2 -14 8.5 -19t16.5 -5q20 0 35.5 12.5t26 31t16 41.5t5.5 44q0 42 -18 61t-43 19q-13 0 -23 -2l-20 -4l-2 9l32 8q59 15 83 40t24 48q0 24 -18.5 35.5t-43.5 11.5q-29 0 -51.5 -11.5
t-34.5 -38.5l-7 2q21 60 65 90t100 30q44 0 75 -18t31 -50q0 -29 -25.5 -50t-87.5 -25l-1 -2q37 -13 65 -40t28 -74q0 -36 -18 -68t-48 -56t-68.5 -38t-78.5 -14zM898 758h74l-846 -758h-74zM653 86h-193l-1 1l447 353h2l-88 -257h73l-34 -97h-72l-30 -86h-134zM686 183
l34 99l-126 -99h92z" />
    <glyph glyph-name="questiondown" unicode="&#xbf;" horiz-adv-x="691" 
d="M234 -253q33 0 59.5 7.5t43 29t22.5 59t-1 97.5q38 4 71.5 1.5t59 -12.5t40.5 -27.5t15 -44.5q0 -33 -22 -56.5t-60 -38.5t-90.5 -22t-112.5 -7q-64 0 -119.5 15.5t-96.5 45.5t-64.5 73.5t-23.5 100.5q0 35 7.5 65.5t29.5 55t61 41t101 23.5l199 22q25 3 40.5 8.5
t23.5 24.5l16 42h10l-61 -197q-9 -29 -17.5 -46.5t-22 -28t-33.5 -16t-51 -9.5l-116 -15q-43 -5 -70 -10t-42.5 -11.5t-21 -15.5t-5.5 -24q0 -25 21 -48.5t54 -41.5t74 -29t82 -11zM483 525q24 0 46 -9.5t38 -26t25.5 -39.5t9.5 -49q0 -25 -9.5 -46.5t-25.5 -38t-38 -26
t-46 -9.5q-27 0 -49.5 9.5t-39.5 26t-26.5 38t-9.5 46.5q0 26 9.5 49t26.5 39.5t39.5 26t49.5 9.5z" />
    <glyph glyph-name="Agrave" unicode="&#xc0;" horiz-adv-x="876" 
d="M-167 10h83l997 787h7l-241 -787h83l-3 -10h-399l3 10h83l80 262h-261l-332 -262h92l-3 -10h-192zM547 340l63 204l-259 -204h196zM898 972l32 -129h-9l-226 126l1 3h202z" />
    <glyph glyph-name="Aacute" unicode="&#xc1;" horiz-adv-x="876" 
d="M-167 10h83l997 787h7l-241 -787h83l-3 -10h-399l3 10h83l80 262h-261l-332 -262h92l-3 -10h-192zM547 340l63 204l-259 -204h196zM1145 969l-290 -126h-12l94 129h210z" />
    <glyph glyph-name="Acircumflex" unicode="&#xc2;" horiz-adv-x="876" 
d="M-167 10h83l997 787h7l-241 -787h83l-3 -10h-399l3 10h83l80 262h-261l-332 -262h92l-3 -10h-192zM547 340l63 204l-259 -204h196zM902 972h106l63 -129h-8l-117 59l-218 -59h-12z" />
    <glyph glyph-name="Atilde" unicode="&#xc3;" horiz-adv-x="876" 
d="M-167 10h83l997 787h7l-241 -787h83l-3 -10h-399l3 10h83l80 262h-261l-332 -262h92l-3 -10h-192zM547 340l63 204l-259 -204h196zM748 841q7 55 18.5 88.5t26.5 51.5t33 23.5t36 5.5q19 0 40 -10.5t42.5 -23.5t43 -23.5t41.5 -10.5q23 0 41 13t27 52h10
q-5 -55 -17.5 -88t-28.5 -51t-33 -24t-32 -6q-24 0 -45 10.5t-41.5 23.5t-40 23.5t-40.5 10.5q-24 0 -42 -12.5t-29 -52.5h-10z" />
    <glyph glyph-name="Adieresis" unicode="&#xc4;" horiz-adv-x="876" 
d="M-167 10h83l997 787h7l-241 -787h83l-3 -10h-399l3 10h83l80 262h-261l-332 -262h92l-3 -10h-192zM547 340l63 204l-259 -204h196zM798 840q-35 0 -59 24.5t-24 60.5t24 60.5t59 24.5q36 0 59.5 -24.5t23.5 -60.5t-23.5 -60.5t-59.5 -24.5zM1058 840q-35 0 -59 24.5
t-24 60.5t24 60.5t59 24.5q36 0 59.5 -24.5t23.5 -60.5t-23.5 -60.5t-59.5 -24.5z" />
    <glyph glyph-name="Aring" unicode="&#xc5;" horiz-adv-x="876" 
d="M-167 10h83l997 787h7l-241 -787h83l-3 -10h-399l3 10h83l80 262h-261l-332 -262h92l-3 -10h-192zM547 340l63 204l-259 -204h196zM829 977q0 23 9.5 43.5t25 35.5t36.5 24t45 9t45.5 -9t37.5 -24t25.5 -35.5t9.5 -43.5q0 -24 -9.5 -44.5t-25.5 -35.5t-37.5 -23.5
t-45.5 -8.5t-45 8.5t-36.5 23.5t-25 35.5t-9.5 44.5zM1011 976q0 32 -17 50.5t-49 18.5q-31 0 -48 -18.5t-17 -50.5q0 -30 17 -48.5t48 -18.5q32 0 49 18.5t17 48.5z" />
    <glyph glyph-name="AE" unicode="&#xc6;" horiz-adv-x="1209" 
d="M-162 10h83l759 748h532l-19 -237h-6l-126 203q-11 16 -18.5 20t-28.5 4h-104l-109 -356h91q12 0 18 3.5t16 15.5l103 131h6l-95 -310h-6l-23 131q-2 12 -6 15.5t-16 3.5h-91l-114 -372h153q10 0 17.5 1t13.5 3.5t12.5 6.5t14.5 11l301 249h6l-154 -281h-683l3 10h83
l80 262h-329l-266 -262h94l-3 -10h-192zM271 340h281l121 397z" />
    <glyph glyph-name="Ccedilla" unicode="&#xc7;" horiz-adv-x="860" 
d="M449 -13q-93 0 -164.5 22t-120 61.5t-73.5 95t-25 122.5q0 102 46.5 191.5t126 156t185.5 105t225 38.5q68 0 117 -17.5t77 -45.5l72 60h6l-58 -308h-6q-7 86 -21 143.5t-37.5 92.5t-58 50t-82.5 15q-68 0 -131 -42.5t-112.5 -113.5t-79 -165t-29.5 -197q0 -51 7 -97
t23.5 -81t44 -55.5t68.5 -20.5q55 0 96.5 15t83.5 50.5t90.5 93t117.5 142.5h6l-154 -308h-6l-24 49q-50 -29 -106 -40.5t-104 -11.5zM314 -272q-38 0 -65.5 17.5t-27.5 41.5q0 11 5.5 19.5t14.5 12.5t20 3.5t21 -6.5l35 -65q4 -7 6.5 -10.5t10.5 -3.5q23 0 43.5 12t20.5 35
q0 21 -25.5 41.5t-72.5 41.5l160 130h15l-101 -82q74 -36 74 -86q0 -19 -9.5 -37t-27.5 -32.5t-42.5 -23t-54.5 -8.5z" />
    <glyph glyph-name="Egrave" unicode="&#xc8;" horiz-adv-x="810" 
d="M-31 10h83l226 738h-83l3 10h615l-19 -237h-6l-126 203q-11 16 -18.5 20t-28.5 4h-104l-109 -356h91q12 0 18 3.5t16 15.5l103 131h6l-95 -310h-6l-23 131q-2 12 -6 15.5t-16 3.5h-91l-114 -372h153q10 0 17.5 1t13.5 3.5t12.5 6.5t14.5 11l301 249h6l-154 -281h-683z
M587 972l32 -129h-9l-226 126l1 3h202z" />
    <glyph glyph-name="Eacute" unicode="&#xc9;" horiz-adv-x="810" 
d="M-31 10h83l226 738h-83l3 10h615l-19 -237h-6l-126 203q-11 16 -18.5 20t-28.5 4h-104l-109 -356h91q12 0 18 3.5t16 15.5l103 131h6l-95 -310h-6l-23 131q-2 12 -6 15.5t-16 3.5h-91l-114 -372h153q10 0 17.5 1t13.5 3.5t12.5 6.5t14.5 11l301 249h6l-154 -281h-683z
M834 969l-290 -126h-12l94 129h210z" />
    <glyph glyph-name="Ecircumflex" unicode="&#xca;" horiz-adv-x="810" 
d="M-31 10h83l226 738h-83l3 10h615l-19 -237h-6l-126 203q-11 16 -18.5 20t-28.5 4h-104l-109 -356h91q12 0 18 3.5t16 15.5l103 131h6l-95 -310h-6l-23 131q-2 12 -6 15.5t-16 3.5h-91l-114 -372h153q10 0 17.5 1t13.5 3.5t12.5 6.5t14.5 11l301 249h6l-154 -281h-683z
M591 972h106l63 -129h-8l-117 59l-218 -59h-12z" />
    <glyph glyph-name="Edieresis" unicode="&#xcb;" horiz-adv-x="810" 
d="M-31 10h83l226 738h-83l3 10h615l-19 -237h-6l-126 203q-11 16 -18.5 20t-28.5 4h-104l-109 -356h91q12 0 18 3.5t16 15.5l103 131h6l-95 -310h-6l-23 131q-2 12 -6 15.5t-16 3.5h-91l-114 -372h153q10 0 17.5 1t13.5 3.5t12.5 6.5t14.5 11l301 249h6l-154 -281h-683z
M487 840q-35 0 -59 24.5t-24 60.5t24 60.5t59 24.5q36 0 59.5 -24.5t23.5 -60.5t-23.5 -60.5t-59.5 -24.5zM747 840q-35 0 -59 24.5t-24 60.5t24 60.5t59 24.5q36 0 59.5 -24.5t23.5 -60.5t-23.5 -60.5t-59.5 -24.5z" />
    <glyph glyph-name="Igrave" unicode="&#xcc;" horiz-adv-x="483" 
d="M365 0h-399l3 10h83l226 738h-83l3 10h399l-3 -10h-83l-226 -738h83zM426 972l32 -129h-9l-226 126l1 3h202z" />
    <glyph glyph-name="Iacute" unicode="&#xcd;" horiz-adv-x="483" 
d="M365 0h-399l3 10h83l226 738h-83l3 10h399l-3 -10h-83l-226 -738h83zM673 969l-290 -126h-12l94 129h210z" />
    <glyph glyph-name="Icircumflex" unicode="&#xce;" horiz-adv-x="483" 
d="M365 0h-399l3 10h83l226 738h-83l3 10h399l-3 -10h-83l-226 -738h83zM430 972h106l63 -129h-8l-117 59l-218 -59h-12z" />
    <glyph glyph-name="Idieresis" unicode="&#xcf;" horiz-adv-x="483" 
d="M365 0h-399l3 10h83l226 738h-83l3 10h399l-3 -10h-83l-226 -738h83zM326 840q-35 0 -59 24.5t-24 60.5t24 60.5t59 24.5q36 0 59.5 -24.5t23.5 -60.5t-23.5 -60.5t-59.5 -24.5zM586 840q-35 0 -59 24.5t-24 60.5t24 60.5t59 24.5q36 0 59.5 -24.5t23.5 -60.5
t-23.5 -60.5t-59.5 -24.5z" />
    <glyph glyph-name="Eth" unicode="&#xd0;" horiz-adv-x="924" 
d="M-31 10h83l226 738h-83l3 10h328q94 0 170.5 -19t131 -55t84 -87.5t29.5 -116.5q0 -104 -48.5 -192t-133 -152t-199 -100t-246.5 -36h-348zM327 10q53 0 101.5 25t90 67.5t75.5 98.5t57.5 118.5t36.5 127.5t13 126q0 88 -42.5 131.5t-114.5 43.5h-33l-226 -738h42z
M98 427h457l-21 -68h-457z" />
    <glyph glyph-name="Ntilde" unicode="&#xd1;" horiz-adv-x="869" 
d="M-10 10h97l175 572l-111 174l1 2h268l318 -515l154 505h-96l3 10h205l-3 -10h-97l-242 -789h-3l-389 610l-171 -559h96l-3 -10h-205zM491 841q7 55 18.5 88.5t26.5 51.5t33 23.5t36 5.5q19 0 40 -10.5t42.5 -23.5t43 -23.5t41.5 -10.5q23 0 41 13t27 52h10
q-5 -55 -17.5 -88t-28.5 -51t-33 -24t-32 -6q-24 0 -45 10.5t-41.5 23.5t-40 23.5t-40.5 10.5q-24 0 -42 -12.5t-29 -52.5h-10z" />
    <glyph glyph-name="Ograve" unicode="&#xd2;" horiz-adv-x="932" 
d="M633 779q70 0 128.5 -20.5t101 -59t66 -93t23.5 -122.5q0 -56 -18 -114.5t-52.5 -113.5t-84 -104t-113 -85.5t-139.5 -58t-163 -21.5q-70 0 -128.5 20.5t-101 59t-66 93t-23.5 122.5q0 56 18 114.5t52.5 113.5t84 104t113 85.5t139.5 58t163 21.5zM600 769q-41 0 -78 -22
t-68.5 -60.5t-57.5 -92t-44 -116t-28 -132.5t-10 -142q0 -57 6 -96t18.5 -64t31.5 -36t45 -11q41 0 78 22t68.5 60.5t57.5 92t44 116t28 132.5t10 142q0 113 -24.5 160t-76.5 47zM643 972l32 -129h-9l-226 126l1 3h202z" />
    <glyph glyph-name="Oacute" unicode="&#xd3;" horiz-adv-x="932" 
d="M633 779q70 0 128.5 -20.5t101 -59t66 -93t23.5 -122.5q0 -56 -18 -114.5t-52.5 -113.5t-84 -104t-113 -85.5t-139.5 -58t-163 -21.5q-70 0 -128.5 20.5t-101 59t-66 93t-23.5 122.5q0 56 18 114.5t52.5 113.5t84 104t113 85.5t139.5 58t163 21.5zM600 769q-41 0 -78 -22
t-68.5 -60.5t-57.5 -92t-44 -116t-28 -132.5t-10 -142q0 -57 6 -96t18.5 -64t31.5 -36t45 -11q41 0 78 22t68.5 60.5t57.5 92t44 116t28 132.5t10 142q0 113 -24.5 160t-76.5 47zM890 969l-290 -126h-12l94 129h210z" />
    <glyph glyph-name="Ocircumflex" unicode="&#xd4;" horiz-adv-x="932" 
d="M633 779q70 0 128.5 -20.5t101 -59t66 -93t23.5 -122.5q0 -56 -18 -114.5t-52.5 -113.5t-84 -104t-113 -85.5t-139.5 -58t-163 -21.5q-70 0 -128.5 20.5t-101 59t-66 93t-23.5 122.5q0 56 18 114.5t52.5 113.5t84 104t113 85.5t139.5 58t163 21.5zM600 769q-41 0 -78 -22
t-68.5 -60.5t-57.5 -92t-44 -116t-28 -132.5t-10 -142q0 -57 6 -96t18.5 -64t31.5 -36t45 -11q41 0 78 22t68.5 60.5t57.5 92t44 116t28 132.5t10 142q0 113 -24.5 160t-76.5 47zM647 972h106l63 -129h-8l-117 59l-218 -59h-12z" />
    <glyph glyph-name="Otilde" unicode="&#xd5;" horiz-adv-x="932" 
d="M633 779q70 0 128.5 -20.5t101 -59t66 -93t23.5 -122.5q0 -56 -18 -114.5t-52.5 -113.5t-84 -104t-113 -85.5t-139.5 -58t-163 -21.5q-70 0 -128.5 20.5t-101 59t-66 93t-23.5 122.5q0 56 18 114.5t52.5 113.5t84 104t113 85.5t139.5 58t163 21.5zM600 769q-41 0 -78 -22
t-68.5 -60.5t-57.5 -92t-44 -116t-28 -132.5t-10 -142q0 -57 6 -96t18.5 -64t31.5 -36t45 -11q41 0 78 22t68.5 60.5t57.5 92t44 116t28 132.5t10 142q0 113 -24.5 160t-76.5 47zM493 841q7 55 18.5 88.5t26.5 51.5t33 23.5t36 5.5q19 0 40 -10.5t42.5 -23.5t43 -23.5
t41.5 -10.5q23 0 41 13t27 52h10q-5 -55 -17.5 -88t-28.5 -51t-33 -24t-32 -6q-24 0 -45 10.5t-41.5 23.5t-40 23.5t-40.5 10.5q-24 0 -42 -12.5t-29 -52.5h-10z" />
    <glyph glyph-name="Odieresis" unicode="&#xd6;" horiz-adv-x="932" 
d="M633 779q70 0 128.5 -20.5t101 -59t66 -93t23.5 -122.5q0 -56 -18 -114.5t-52.5 -113.5t-84 -104t-113 -85.5t-139.5 -58t-163 -21.5q-70 0 -128.5 20.5t-101 59t-66 93t-23.5 122.5q0 56 18 114.5t52.5 113.5t84 104t113 85.5t139.5 58t163 21.5zM600 769q-41 0 -78 -22
t-68.5 -60.5t-57.5 -92t-44 -116t-28 -132.5t-10 -142q0 -57 6 -96t18.5 -64t31.5 -36t45 -11q41 0 78 22t68.5 60.5t57.5 92t44 116t28 132.5t10 142q0 113 -24.5 160t-76.5 47zM543 840q-35 0 -59 24.5t-24 60.5t24 60.5t59 24.5q36 0 59.5 -24.5t23.5 -60.5t-23.5 -60.5
t-59.5 -24.5zM803 840q-35 0 -59 24.5t-24 60.5t24 60.5t59 24.5q36 0 59.5 -24.5t23.5 -60.5t-23.5 -60.5t-59.5 -24.5z" />
    <glyph glyph-name="multiply" unicode="&#xd7;" horiz-adv-x="645" 
d="M85 81l182 181l-182 182l60 60l182 -182l182 182l57 -57l-182 -182l185 -184l-60 -61l-185 185l-182 -182z" />
    <glyph glyph-name="Oslash" unicode="&#xd8;" horiz-adv-x="932" 
d="M633 779q70 0 128.5 -20.5t101 -59t66 -93t23.5 -122.5q0 -56 -18 -114.5t-52.5 -113.5t-84 -104t-113 -85.5t-139.5 -58t-163 -21.5q-70 0 -128.5 20.5t-101 59t-66 93t-23.5 122.5q0 56 18 114.5t52.5 113.5t84 104t113 85.5t139.5 58t163 21.5zM600 769q-41 0 -78 -22
t-68.5 -60.5t-57.5 -92t-44 -116t-28 -132.5t-10 -142q0 -57 6 -96t18.5 -64t31.5 -36t45 -11q41 0 78 22t68.5 60.5t57.5 92t44 116t28 132.5t10 142q0 113 -24.5 160t-76.5 47zM-12 -16l984 849l44 -51l-984 -849z" />
    <glyph glyph-name="Ugrave" unicode="&#xd9;" horiz-adv-x="881" 
d="M385 -13q-77 0 -137.5 18t-97 56t-45.5 97t16 141l138 449h-83l3 10h399l-3 -10h-83l-141 -459q-39 -130 -11 -195.5t125 -65.5q121 0 198.5 73t120.5 213l133 434h-96l3 10h205l-3 -10h-97l-133 -434q-23 -75 -55 -135t-80 -103t-115 -66t-161 -23zM688 972l32 -129h-9
l-226 126l1 3h202z" />
    <glyph glyph-name="Uacute" unicode="&#xda;" horiz-adv-x="881" 
d="M385 -13q-77 0 -137.5 18t-97 56t-45.5 97t16 141l138 449h-83l3 10h399l-3 -10h-83l-141 -459q-39 -130 -11 -195.5t125 -65.5q121 0 198.5 73t120.5 213l133 434h-96l3 10h205l-3 -10h-97l-133 -434q-23 -75 -55 -135t-80 -103t-115 -66t-161 -23zM935 969l-290 -126
h-12l94 129h210z" />
    <glyph glyph-name="Ucircumflex" unicode="&#xdb;" horiz-adv-x="881" 
d="M385 -13q-77 0 -137.5 18t-97 56t-45.5 97t16 141l138 449h-83l3 10h399l-3 -10h-83l-141 -459q-39 -130 -11 -195.5t125 -65.5q121 0 198.5 73t120.5 213l133 434h-96l3 10h205l-3 -10h-97l-133 -434q-23 -75 -55 -135t-80 -103t-115 -66t-161 -23zM692 972h106l63 -129
h-8l-117 59l-218 -59h-12z" />
    <glyph glyph-name="Udieresis" unicode="&#xdc;" horiz-adv-x="881" 
d="M385 -13q-77 0 -137.5 18t-97 56t-45.5 97t16 141l138 449h-83l3 10h399l-3 -10h-83l-141 -459q-39 -130 -11 -195.5t125 -65.5q121 0 198.5 73t120.5 213l133 434h-96l3 10h205l-3 -10h-97l-133 -434q-23 -75 -55 -135t-80 -103t-115 -66t-161 -23zM588 840
q-35 0 -59 24.5t-24 60.5t24 60.5t59 24.5q36 0 59.5 -24.5t23.5 -60.5t-23.5 -60.5t-59.5 -24.5zM848 840q-35 0 -59 24.5t-24 60.5t24 60.5t59 24.5q36 0 59.5 -24.5t23.5 -60.5t-23.5 -60.5t-59.5 -24.5z" />
    <glyph glyph-name="Yacute" unicode="&#xdd;" horiz-adv-x="839" 
d="M545 0h-399l3 10h83l116 379l-135 359h-93l3 10h435l-3 -10h-93l121 -340l336 340h-93l3 10h192l-3 -10h-84l-353 -358l-116 -380h83zM922 969l-290 -126h-12l94 129h210z" />
    <glyph glyph-name="Thorn" unicode="&#xde;" horiz-adv-x="852" 
d="M-31 10h83l226 738h-83l3 10h399l-3 -10h-83l-44 -144h59q83 0 148.5 -8t110.5 -26t69 -48t24 -75q0 -50 -23 -98t-78.5 -86t-148.5 -61.5t-232 -23.5h-60l-51 -168h113l-3 -10h-429zM340 188h59q56 0 99.5 29.5t73 73.5t45 93.5t15.5 90.5q0 60 -25 89.5t-84 29.5h-59z
" />
    <glyph glyph-name="germandbls" unicode="&#xdf;" horiz-adv-x="781" 
d="M312 283q-50 -163 -109.5 -269.5t-122 -169t-125 -87.5t-119.5 -25t-87 24.5t-30 62.5q0 22 10 39.5t26.5 28.5t36.5 15t40 1l108 -138l61 201l132 430h-75l3 10q10 2 26.5 6.5t34 14t34.5 25.5t29 42q33 69 78.5 121.5t98 87t108.5 52t111 17.5q101 0 153 -24.5
t52 -72.5q0 -23 -11.5 -40.5t-31.5 -31t-49 -25t-63 -23.5l-18 -6q-20 -7 -30.5 -13.5t-10.5 -20.5q0 -20 22 -56t54 -84l19 -28q16 -24 29 -44t21 -38t12.5 -36t4.5 -39q0 -51 -23.5 -89t-63 -63.5t-90.5 -38t-106 -12.5q-82 0 -121 26t-39 65q0 22 9.5 39t26 28t37 15.5
t43.5 1.5l81 -166q27 1 50 16t23 45q0 33 -18.5 70t-51.5 86l-19 28q-28 42 -45.5 77.5t-17.5 72.5q0 48 31 78.5t84 49.5l29 10q44 16 58.5 49.5t14.5 87.5q0 47 -13 71.5t-52 24.5q-24 0 -46 -10.5t-43 -35t-40 -64t-37 -97.5z" />
    <glyph glyph-name="agrave" unicode="&#xe0;" horiz-adv-x="654" 
d="M121 -13q-25 0 -47 8t-38.5 24.5t-26 40.5t-9.5 56q0 49 17.5 99t47 96t67 86t78.5 69t82 46t76 17q28 0 42.5 -14.5t15.5 -52.5h1l23 62h214l-155 -408q-20 -51 -25.5 -71.5t4.5 -20.5q7 0 20 6t32 24.5t43 53t53 90.5l10 -5q-33 -63 -61 -103t-56.5 -63t-60.5 -31.5
t-72 -8.5q-66 0 -81 34t8 103l27 78h-2q-27 -59 -50 -100t-48 -66.5t-56 -37t-73 -11.5zM240 50q10 0 27 23t36.5 60t39 82.5t36 90.5t26.5 85t10 66q0 59 -30 59q-18 0 -37 -21t-37 -56t-34 -79.5t-28.5 -90.5t-19.5 -90.5t-7 -79.5q0 -31 5 -40t13 -9zM436 579l-152 176
l1 3h174l-14 -179h-9z" />
    <glyph glyph-name="aacute" unicode="&#xe1;" horiz-adv-x="654" 
d="M121 -13q-25 0 -47 8t-38.5 24.5t-26 40.5t-9.5 56q0 49 17.5 99t47 96t67 86t78.5 69t82 46t76 17q28 0 42.5 -14.5t15.5 -52.5h1l23 62h214l-155 -408q-20 -51 -25.5 -71.5t4.5 -20.5q7 0 20 6t32 24.5t43 53t53 90.5l10 -5q-33 -63 -61 -103t-56.5 -63t-60.5 -31.5
t-72 -8.5q-66 0 -81 34t8 103l27 78h-2q-27 -59 -50 -100t-48 -66.5t-56 -37t-73 -11.5zM240 50q10 0 27 23t36.5 60t39 82.5t36 90.5t26.5 85t10 66q0 59 -30 59q-18 0 -37 -21t-37 -56t-34 -79.5t-28.5 -90.5t-19.5 -90.5t-7 -79.5q0 -31 5 -40t13 -9zM493 758h201l-1 -3
l-283 -176h-12z" />
    <glyph glyph-name="acircumflex" unicode="&#xe2;" horiz-adv-x="654" 
d="M121 -13q-25 0 -47 8t-38.5 24.5t-26 40.5t-9.5 56q0 49 17.5 99t47 96t67 86t78.5 69t82 46t76 17q28 0 42.5 -14.5t15.5 -52.5h1l23 62h214l-155 -408q-20 -51 -25.5 -71.5t4.5 -20.5q7 0 20 6t32 24.5t43 53t53 90.5l10 -5q-33 -63 -61 -103t-56.5 -63t-60.5 -31.5
t-72 -8.5q-66 0 -81 34t8 103l27 78h-2q-27 -59 -50 -100t-48 -66.5t-56 -37t-73 -11.5zM240 50q10 0 27 23t36.5 60t39 82.5t36 90.5t26.5 85t10 66q0 59 -30 59q-18 0 -37 -21t-37 -56t-34 -79.5t-28.5 -90.5t-19.5 -90.5t-7 -79.5q0 -31 5 -40t13 -9zM516 782h12l77 -203
h-9l-104 72l-212 -72h-10z" />
    <glyph glyph-name="atilde" unicode="&#xe3;" horiz-adv-x="654" 
d="M121 -13q-25 0 -47 8t-38.5 24.5t-26 40.5t-9.5 56q0 49 17.5 99t47 96t67 86t78.5 69t82 46t76 17q28 0 42.5 -14.5t15.5 -52.5h1l23 62h214l-155 -408q-20 -51 -25.5 -71.5t4.5 -20.5q7 0 20 6t32 24.5t43 53t53 90.5l10 -5q-33 -63 -61 -103t-56.5 -63t-60.5 -31.5
t-72 -8.5q-66 0 -81 34t8 103l27 78h-2q-27 -59 -50 -100t-48 -66.5t-56 -37t-73 -11.5zM240 50q10 0 27 23t36.5 60t39 82.5t36 90.5t26.5 85t10 66q0 59 -30 59q-18 0 -37 -21t-37 -56t-34 -79.5t-28.5 -90.5t-19.5 -90.5t-7 -79.5q0 -31 5 -40t13 -9zM285 601
q7 55 18.5 88.5t26.5 51.5t33 23.5t36 5.5q19 0 40 -10.5t42.5 -23.5t43 -23.5t41.5 -10.5q23 0 41 13t27 52h10q-5 -55 -17.5 -88t-28.5 -51t-33 -24t-32 -6q-24 0 -45 10.5t-41.5 23.5t-40 23.5t-40.5 10.5q-24 0 -42 -12.5t-29 -52.5h-10z" />
    <glyph glyph-name="adieresis" unicode="&#xe4;" horiz-adv-x="654" 
d="M121 -13q-25 0 -47 8t-38.5 24.5t-26 40.5t-9.5 56q0 49 17.5 99t47 96t67 86t78.5 69t82 46t76 17q28 0 42.5 -14.5t15.5 -52.5h1l23 62h214l-155 -408q-20 -51 -25.5 -71.5t4.5 -20.5q7 0 20 6t32 24.5t43 53t53 90.5l10 -5q-33 -63 -61 -103t-56.5 -63t-60.5 -31.5
t-72 -8.5q-66 0 -81 34t8 103l27 78h-2q-27 -59 -50 -100t-48 -66.5t-56 -37t-73 -11.5zM240 50q10 0 27 23t36.5 60t39 82.5t36 90.5t26.5 85t10 66q0 59 -30 59q-18 0 -37 -21t-37 -56t-34 -79.5t-28.5 -90.5t-19.5 -90.5t-7 -79.5q0 -31 5 -40t13 -9zM585 603
q-35 0 -59 24.5t-24 60.5t24 60.5t59 24.5q36 0 59.5 -24.5t23.5 -60.5t-23.5 -60.5t-59.5 -24.5zM346 602q-35 0 -59 24.5t-24 60.5t24 60.5t59 24.5q36 0 59.5 -24.5t23.5 -60.5t-23.5 -60.5t-59.5 -24.5z" />
    <glyph glyph-name="aring" unicode="&#xe5;" horiz-adv-x="654" 
d="M121 -13q-25 0 -47 8t-38.5 24.5t-26 40.5t-9.5 56q0 49 17.5 99t47 96t67 86t78.5 69t82 46t76 17q28 0 42.5 -14.5t15.5 -52.5h1l23 62h214l-155 -408q-20 -51 -25.5 -71.5t4.5 -20.5q7 0 20 6t32 24.5t43 53t53 90.5l10 -5q-33 -63 -61 -103t-56.5 -63t-60.5 -31.5
t-72 -8.5q-66 0 -81 34t8 103l27 78h-2q-27 -59 -50 -100t-48 -66.5t-56 -37t-73 -11.5zM240 50q10 0 27 23t36.5 60t39 82.5t36 90.5t26.5 85t10 66q0 59 -30 59q-18 0 -37 -21t-37 -56t-34 -79.5t-28.5 -90.5t-19.5 -90.5t-7 -79.5q0 -31 5 -40t13 -9zM355 706
q0 23 9.5 43.5t25 35.5t36.5 24t45 9t45.5 -9t37.5 -24t25.5 -35.5t9.5 -43.5q0 -24 -9.5 -44.5t-25.5 -35.5t-37.5 -23.5t-45.5 -8.5t-45 8.5t-36.5 23.5t-25 35.5t-9.5 44.5zM537 705q0 32 -17 50.5t-49 18.5q-31 0 -48 -18.5t-17 -50.5q0 -30 17 -48.5t48 -18.5
q32 0 49 18.5t17 48.5z" />
    <glyph glyph-name="ae" unicode="&#xe6;" horiz-adv-x="801" 
d="M114 -13q-25 0 -47 8t-38.5 24.5t-26 40.5t-9.5 56q0 35 13 75.5t41 82t70.5 81.5t101.5 74q85 49 199 72.5t266 23.5h6q29 0 54 -7t42.5 -19.5t27.5 -30t9 -38.5q-1 -18 -7.5 -36t-17 -34t-25 -29t-30.5 -20l-206 -9q-6 -26 -9 -52.5t-4 -52.5q-2 -33 1.5 -63t12 -52.5
t21.5 -35.5t31 -13q40 0 82 45.5t74 134.5l10 -3q-18 -54 -42 -95.5t-57 -70t-76.5 -43t-100.5 -14.5q-83 0 -124.5 37.5t-48.5 96.5q-32 -74 -78.5 -104t-114.5 -30zM215 115q0 -41 6 -53t17 -12q12 0 28.5 20.5t39.5 72.5v7q2 57 27.5 114.5t67 107t96 87t113.5 54.5
q-63 -3 -108 -10.5t-77.5 -20.5t-55.5 -30.5t-43 -39.5q-27 -30 -47.5 -68.5t-34.5 -79t-21.5 -79.5t-7.5 -70zM690 515q-27 0 -50.5 -17t-42.5 -45t-34 -65t-24 -77q31 2 63.5 21.5t59 46t44 55.5t18.5 51q0 30 -34 30z" />
    <glyph glyph-name="ccedilla" unicode="&#xe7;" horiz-adv-x="483" 
d="M183 -13q-44 0 -76.5 12.5t-54 35t-31.5 54t-9 69.5q3 74 38 140.5t88.5 117t117.5 80t125 29.5q57 0 90.5 -23t31.5 -64q-1 -24 -12.5 -42.5t-31 -30.5t-44 -18t-50.5 -5l-16 173h-1q-30 -21 -51.5 -56t-35.5 -77.5t-21.5 -88t-8.5 -87.5q-2 -38 1.5 -69.5t11.5 -54.5
t20.5 -36t28.5 -13q32 0 68.5 41.5t71.5 131.5l10 -3q-21 -60 -47 -101.5t-57.5 -67t-70 -36.5t-85.5 -11zM95 -269q-38 0 -65.5 17.5t-27.5 41.5q0 11 5.5 19.5t14.5 12.5t20 3.5t21 -6.5l35 -65q4 -7 6.5 -10.5t10.5 -3.5q23 0 43.5 12t20.5 35q0 21 -25.5 41.5
t-72.5 41.5l160 130h15l-101 -82q74 -36 74 -86q0 -19 -9.5 -37t-27.5 -32.5t-42.5 -23t-54.5 -8.5z" />
    <glyph glyph-name="egrave" unicode="&#xe8;" horiz-adv-x="503" 
d="M182 -13q-47 0 -80 12.5t-54 34t-31 51.5t-9 65q2 66 36 133t88 120.5t121.5 87.5t138.5 34q29 0 54 -7t42.5 -19.5t27.5 -30t9 -38.5q-1 -18 -7.5 -36t-17 -34t-25 -29t-30.5 -20l-206 -9q-6 -26 -9 -52.5t-4 -52.5q-2 -33 1.5 -63t12 -52.5t21.5 -35.5t31 -13
q40 0 82 45.5t74 134.5l10 -3q-18 -54 -42 -95.5t-57 -70t-76.5 -43t-100.5 -14.5zM392 516q-27 0 -50.5 -17t-42.5 -45.5t-34 -65.5t-24 -77q31 2 63.5 21t59 45.5t44 55.5t18.5 52q0 31 -34 31zM416 579l-152 176l1 3h174l-14 -179h-9z" />
    <glyph glyph-name="eacute" unicode="&#xe9;" horiz-adv-x="503" 
d="M182 -13q-47 0 -80 12.5t-54 34t-31 51.5t-9 65q2 66 36 133t88 120.5t121.5 87.5t138.5 34q29 0 54 -7t42.5 -19.5t27.5 -30t9 -38.5q-1 -18 -7.5 -36t-17 -34t-25 -29t-30.5 -20l-206 -9q-6 -26 -9 -52.5t-4 -52.5q-2 -33 1.5 -63t12 -52.5t21.5 -35.5t31 -13
q40 0 82 45.5t74 134.5l10 -3q-18 -54 -42 -95.5t-57 -70t-76.5 -43t-100.5 -14.5zM392 516q-27 0 -50.5 -17t-42.5 -45.5t-34 -65.5t-24 -77q31 2 63.5 21t59 45.5t44 55.5t18.5 52q0 31 -34 31zM473 758h201l-1 -3l-283 -176h-12z" />
    <glyph glyph-name="ecircumflex" unicode="&#xea;" horiz-adv-x="503" 
d="M182 -13q-47 0 -80 12.5t-54 34t-31 51.5t-9 65q2 66 36 133t88 120.5t121.5 87.5t138.5 34q29 0 54 -7t42.5 -19.5t27.5 -30t9 -38.5q-1 -18 -7.5 -36t-17 -34t-25 -29t-30.5 -20l-206 -9q-6 -26 -9 -52.5t-4 -52.5q-2 -33 1.5 -63t12 -52.5t21.5 -35.5t31 -13
q40 0 82 45.5t74 134.5l10 -3q-18 -54 -42 -95.5t-57 -70t-76.5 -43t-100.5 -14.5zM392 516q-27 0 -50.5 -17t-42.5 -45.5t-34 -65.5t-24 -77q31 2 63.5 21t59 45.5t44 55.5t18.5 52q0 31 -34 31zM496 782h12l77 -203h-9l-104 72l-212 -72h-10z" />
    <glyph glyph-name="edieresis" unicode="&#xeb;" horiz-adv-x="503" 
d="M182 -13q-47 0 -80 12.5t-54 34t-31 51.5t-9 65q2 66 36 133t88 120.5t121.5 87.5t138.5 34q29 0 54 -7t42.5 -19.5t27.5 -30t9 -38.5q-1 -18 -7.5 -36t-17 -34t-25 -29t-30.5 -20l-206 -9q-6 -26 -9 -52.5t-4 -52.5q-2 -33 1.5 -63t12 -52.5t21.5 -35.5t31 -13
q40 0 82 45.5t74 134.5l10 -3q-18 -54 -42 -95.5t-57 -70t-76.5 -43t-100.5 -14.5zM392 516q-27 0 -50.5 -17t-42.5 -45.5t-34 -65.5t-24 -77q31 2 63.5 21t59 45.5t44 55.5t18.5 52q0 31 -34 31zM565 603q-35 0 -59 24.5t-24 60.5t24 60.5t59 24.5q36 0 59.5 -24.5
t23.5 -60.5t-23.5 -60.5t-59.5 -24.5zM326 602q-35 0 -59 24.5t-24 60.5t24 60.5t59 24.5q36 0 59.5 -24.5t23.5 -60.5t-23.5 -60.5t-59.5 -24.5z" />
    <glyph glyph-name="igrave" unicode="&#xec;" horiz-adv-x="385" 
d="M131 390l-51 60l2 4l319 85l-160 -423q-20 -51 -23.5 -71.5t6.5 -20.5q6 0 18 6.5t29.5 25.5t40 53t49.5 89l10 -5q-32 -64 -59 -104t-54.5 -62.5t-60 -31t-76.5 -8.5q-33 0 -56 8.5t-33.5 29t-7.5 53.5t21 82zM299 576l-152 176l1 3h174l-14 -179h-9z" />
    <glyph glyph-name="iacute" unicode="&#xed;" horiz-adv-x="385" 
d="M131 390l-51 60l2 4l319 85l-160 -423q-20 -51 -23.5 -71.5t6.5 -20.5q6 0 18 6.5t29.5 25.5t40 53t49.5 89l10 -5q-32 -64 -59 -104t-54.5 -62.5t-60 -31t-76.5 -8.5q-33 0 -56 8.5t-33.5 29t-7.5 53.5t21 82zM356 755h201l-1 -3l-283 -176h-12z" />
    <glyph glyph-name="icircumflex" unicode="&#xee;" horiz-adv-x="385" 
d="M131 390l-51 60l2 4l319 85l-160 -423q-20 -51 -23.5 -71.5t6.5 -20.5q6 0 18 6.5t29.5 25.5t40 53t49.5 89l10 -5q-32 -64 -59 -104t-54.5 -62.5t-60 -31t-76.5 -8.5q-33 0 -56 8.5t-33.5 29t-7.5 53.5t21 82zM379 779h12l77 -203h-9l-104 72l-212 -72h-10z" />
    <glyph glyph-name="idieresis" unicode="&#xef;" horiz-adv-x="385" 
d="M131 390l-51 60l2 4l319 85l-160 -423q-20 -51 -23.5 -71.5t6.5 -20.5q6 0 18 6.5t29.5 25.5t40 53t49.5 89l10 -5q-32 -64 -59 -104t-54.5 -62.5t-60 -31t-76.5 -8.5q-33 0 -56 8.5t-33.5 29t-7.5 53.5t21 82zM209 600q-35 0 -59 24.5t-24 60.5t24 60.5t59 24.5
q36 0 59.5 -24.5t23.5 -60.5t-23.5 -60.5t-59.5 -24.5zM448 600q-35 0 -59 24.5t-24 60.5t24 60.5t59 24.5q36 0 59.5 -24.5t23.5 -60.5t-23.5 -60.5t-59.5 -24.5z" />
    <glyph glyph-name="eth" unicode="&#xf0;" horiz-adv-x="629" 
d="M212 626l141 56q-26 35 -62 62t-84 44l3 8q60 -13 115 -34t103 -50l158 63l13 -55l-116 -46q69 -54 109.5 -125.5t40.5 -157.5q0 -53 -20 -103.5t-53.5 -95t-78 -82.5t-94 -65t-101 -42.5t-98.5 -15.5q-39 0 -72 9.5t-57 29t-37.5 49t-13.5 69.5q0 50 17.5 98t47 90.5
t67.5 79t79 62.5t81 40.5t74 14.5q30 0 43 -16q-8 67 -34 121l-158 -63zM230 64q0 -30 5.5 -43.5t18.5 -13.5q27 0 56 41t53 107t40 148t16 163v13q-3 37 -32 37q-22 0 -42 -25t-37.5 -65t-32 -90t-24.5 -100t-15.5 -95.5t-5.5 -76.5z" />
    <glyph glyph-name="ntilde" unicode="&#xf1;" horiz-adv-x="677" 
d="M402 -13q-33 0 -57.5 9.5t-36 30t-8 53.5t25.5 80l105 225q12 26 18.5 42t8 25t-1 12.5t-8.5 3.5q-11 0 -23.5 -11t-26 -29.5t-29 -44t-32.5 -54.5q-23 -41 -46 -86.5t-42.5 -88t-34.5 -79t-21 -60.5l-213 -25l150 400l-51 60l2 4l311 85l-160 -386h2q29 60 54 108t48 88
q25 44 48 77t47.5 55t52.5 33t63 11q33 0 57 -14t34.5 -42t4.5 -69.5t-32 -96.5l-89 -187q-23 -50 -27 -71t7 -21q7 0 20.5 6t32.5 24.5t43.5 53t53.5 90.5l10 -5q-33 -63 -61 -103t-57.5 -63t-63.5 -31.5t-78 -8.5zM343 601q7 55 18.5 88.5t26.5 51.5t33 23.5t36 5.5
q19 0 40 -10.5t42.5 -23.5t43 -23.5t41.5 -10.5q23 0 41 13t27 52h10q-5 -55 -17.5 -88t-28.5 -51t-33 -24t-32 -6q-24 0 -45 10.5t-41.5 23.5t-40 23.5t-40.5 10.5q-24 0 -42 -12.5t-29 -52.5h-10z" />
    <glyph glyph-name="ograve" unicode="&#xf2;" horiz-adv-x="570" 
d="M172 -13q-41 0 -72 11.5t-52 31.5t-31.5 46.5t-10.5 56.5q0 69 33 138.5t88 126t126.5 92t148.5 35.5q40 0 71 -11.5t52 -31.5t32 -46.5t11 -56.5q0 -69 -33 -139t-87.5 -126.5t-126 -91.5t-149.5 -35zM250 6q16 0 34.5 28t34 80t26 127t10.5 170q0 45 -7 70t-23 25
q-17 0 -36 -28t-35 -80.5t-26 -127.5t-10 -169q0 -46 7 -70.5t25 -24.5zM391 579l-152 176l1 3h174l-14 -179h-9z" />
    <glyph glyph-name="oacute" unicode="&#xf3;" horiz-adv-x="570" 
d="M172 -13q-41 0 -72 11.5t-52 31.5t-31.5 46.5t-10.5 56.5q0 69 33 138.5t88 126t126.5 92t148.5 35.5q40 0 71 -11.5t52 -31.5t32 -46.5t11 -56.5q0 -69 -33 -139t-87.5 -126.5t-126 -91.5t-149.5 -35zM250 6q16 0 34.5 28t34 80t26 127t10.5 170q0 45 -7 70t-23 25
q-17 0 -36 -28t-35 -80.5t-26 -127.5t-10 -169q0 -46 7 -70.5t25 -24.5zM448 758h201l-1 -3l-283 -176h-12z" />
    <glyph glyph-name="ocircumflex" unicode="&#xf4;" horiz-adv-x="570" 
d="M172 -13q-41 0 -72 11.5t-52 31.5t-31.5 46.5t-10.5 56.5q0 69 33 138.5t88 126t126.5 92t148.5 35.5q40 0 71 -11.5t52 -31.5t32 -46.5t11 -56.5q0 -69 -33 -139t-87.5 -126.5t-126 -91.5t-149.5 -35zM250 6q16 0 34.5 28t34 80t26 127t10.5 170q0 45 -7 70t-23 25
q-17 0 -36 -28t-35 -80.5t-26 -127.5t-10 -169q0 -46 7 -70.5t25 -24.5zM471 782h12l77 -203h-9l-104 72l-212 -72h-10z" />
    <glyph glyph-name="otilde" unicode="&#xf5;" horiz-adv-x="570" 
d="M172 -13q-41 0 -72 11.5t-52 31.5t-31.5 46.5t-10.5 56.5q0 69 33 138.5t88 126t126.5 92t148.5 35.5q40 0 71 -11.5t52 -31.5t32 -46.5t11 -56.5q0 -69 -33 -139t-87.5 -126.5t-126 -91.5t-149.5 -35zM250 6q16 0 34.5 28t34 80t26 127t10.5 170q0 45 -7 70t-23 25
q-17 0 -36 -28t-35 -80.5t-26 -127.5t-10 -169q0 -46 7 -70.5t25 -24.5zM240 601q7 55 18.5 88.5t26.5 51.5t33 23.5t36 5.5q19 0 40 -10.5t42.5 -23.5t43 -23.5t41.5 -10.5q23 0 41 13t27 52h10q-5 -55 -17.5 -88t-28.5 -51t-33 -24t-32 -6q-24 0 -45 10.5t-41.5 23.5
t-40 23.5t-40.5 10.5q-24 0 -42 -12.5t-29 -52.5h-10z" />
    <glyph glyph-name="odieresis" unicode="&#xf6;" horiz-adv-x="570" 
d="M172 -13q-41 0 -72 11.5t-52 31.5t-31.5 46.5t-10.5 56.5q0 69 33 138.5t88 126t126.5 92t148.5 35.5q40 0 71 -11.5t52 -31.5t32 -46.5t11 -56.5q0 -69 -33 -139t-87.5 -126.5t-126 -91.5t-149.5 -35zM250 6q16 0 34.5 28t34 80t26 127t10.5 170q0 45 -7 70t-23 25
q-17 0 -36 -28t-35 -80.5t-26 -127.5t-10 -169q0 -46 7 -70.5t25 -24.5zM540 603q-35 0 -59 24.5t-24 60.5t24 60.5t59 24.5q36 0 59.5 -24.5t23.5 -60.5t-23.5 -60.5t-59.5 -24.5zM301 602q-35 0 -59 24.5t-24 60.5t24 60.5t59 24.5q36 0 59.5 -24.5t23.5 -60.5
t-23.5 -60.5t-59.5 -24.5z" />
    <glyph glyph-name="divide" unicode="&#xf7;" horiz-adv-x="645" 
d="M326 363q-37 0 -63 26t-26 64q0 37 26 63t63 26q38 0 64 -26t26 -63q0 -38 -26 -64t-64 -26zM63 305h527v-85h-527v85zM326 -17q-37 0 -63 26t-26 64q0 37 26 63t63 26q38 0 64 -26t26 -63q0 -38 -26 -64t-64 -26z" />
    <glyph glyph-name="oslash" unicode="&#xf8;" horiz-adv-x="620" 
d="M202 -13q-41 0 -72 11.5t-52 31.5t-31.5 46.5t-10.5 56.5q0 69 33 138.5t88 126t126.5 92t148.5 35.5q40 0 71 -11.5t52 -31.5t32 -46.5t11 -56.5q0 -69 -33 -139t-87.5 -126.5t-126 -91.5t-149.5 -35zM280 6q16 0 34.5 28t34 80t26 127t10.5 170q0 45 -7 70t-23 25
q-17 0 -36 -28t-35 -80.5t-26 -127.5t-10 -169q0 -46 7 -70.5t25 -24.5zM673 537l-684 -597l-34 36l685 598z" />
    <glyph glyph-name="ugrave" unicode="&#xf9;" horiz-adv-x="666" 
d="M418 374h-2q-32 -67 -60.5 -118t-54.5 -96q-22 -37 -42 -68.5t-42.5 -55t-49.5 -36.5t-62 -13q-33 0 -57 14t-34.5 42t-5.5 69.5t30 96.5l122 266l-73 -9l4 11l298 35l-171 -385q-20 -45 -28.5 -66.5t2.5 -21.5q14 0 44 43t71 112q25 43 48.5 88t43.5 85t34.5 71.5
t21.5 48.5l213 25l-148 -396q-19 -51 -25 -71.5t5 -20.5q7 0 20.5 6t32.5 24.5t43.5 53t53.5 90.5l10 -5q-33 -63 -61 -103t-57.5 -63t-63.5 -31.5t-78 -8.5q-30 0 -51 8.5t-31 29t-6.5 53.5t22.5 82zM443 579l-152 176l1 3h174l-14 -179h-9z" />
    <glyph glyph-name="uacute" unicode="&#xfa;" horiz-adv-x="666" 
d="M418 374h-2q-32 -67 -60.5 -118t-54.5 -96q-22 -37 -42 -68.5t-42.5 -55t-49.5 -36.5t-62 -13q-33 0 -57 14t-34.5 42t-5.5 69.5t30 96.5l122 266l-73 -9l4 11l298 35l-171 -385q-20 -45 -28.5 -66.5t2.5 -21.5q14 0 44 43t71 112q25 43 48.5 88t43.5 85t34.5 71.5
t21.5 48.5l213 25l-148 -396q-19 -51 -25 -71.5t5 -20.5q7 0 20.5 6t32.5 24.5t43.5 53t53.5 90.5l10 -5q-33 -63 -61 -103t-57.5 -63t-63.5 -31.5t-78 -8.5q-30 0 -51 8.5t-31 29t-6.5 53.5t22.5 82zM500 758h201l-1 -3l-283 -176h-12z" />
    <glyph glyph-name="ucircumflex" unicode="&#xfb;" horiz-adv-x="666" 
d="M418 374h-2q-32 -67 -60.5 -118t-54.5 -96q-22 -37 -42 -68.5t-42.5 -55t-49.5 -36.5t-62 -13q-33 0 -57 14t-34.5 42t-5.5 69.5t30 96.5l122 266l-73 -9l4 11l298 35l-171 -385q-20 -45 -28.5 -66.5t2.5 -21.5q14 0 44 43t71 112q25 43 48.5 88t43.5 85t34.5 71.5
t21.5 48.5l213 25l-148 -396q-19 -51 -25 -71.5t5 -20.5q7 0 20.5 6t32.5 24.5t43.5 53t53.5 90.5l10 -5q-33 -63 -61 -103t-57.5 -63t-63.5 -31.5t-78 -8.5q-30 0 -51 8.5t-31 29t-6.5 53.5t22.5 82zM523 782h12l77 -203h-9l-104 72l-212 -72h-10z" />
    <glyph glyph-name="udieresis" unicode="&#xfc;" horiz-adv-x="666" 
d="M418 374h-2q-32 -67 -60.5 -118t-54.5 -96q-22 -37 -42 -68.5t-42.5 -55t-49.5 -36.5t-62 -13q-33 0 -57 14t-34.5 42t-5.5 69.5t30 96.5l122 266l-73 -9l4 11l298 35l-171 -385q-20 -45 -28.5 -66.5t2.5 -21.5q14 0 44 43t71 112q25 43 48.5 88t43.5 85t34.5 71.5
t21.5 48.5l213 25l-148 -396q-19 -51 -25 -71.5t5 -20.5q7 0 20.5 6t32.5 24.5t43.5 53t53.5 90.5l10 -5q-33 -63 -61 -103t-57.5 -63t-63.5 -31.5t-78 -8.5q-30 0 -51 8.5t-31 29t-6.5 53.5t22.5 82zM592 603q-35 0 -59 24.5t-24 60.5t24 60.5t59 24.5q36 0 59.5 -24.5
t23.5 -60.5t-23.5 -60.5t-59.5 -24.5zM353 602q-35 0 -59 24.5t-24 60.5t24 60.5t59 24.5q36 0 59.5 -24.5t23.5 -60.5t-23.5 -60.5t-59.5 -24.5z" />
    <glyph glyph-name="yacute" unicode="&#xfd;" horiz-adv-x="566" 
d="M93 -248h-226l251 286l-9 441l-73 -10l4 11l272 32l3 -486l204 278l-108 128q3 24 13 42t24.5 29t32 16.5t35.5 5.5q33 0 59.5 -17t26.5 -58q0 -23 -16 -61t-54 -89l-216 -292zM444 758h201l-1 -3l-283 -176h-12z" />
    <glyph glyph-name="thorn" unicode="&#xfe;" horiz-adv-x="641" 
d="M218 -13h-19t-19 1l-81 -236h-209l338 996h-63l4 10h274l-111 -326q13 17 31.5 34t40 30t44.5 21t46 8q73 0 110 -38.5t37 -106.5q0 -61 -30.5 -130t-86 -127.5t-133.5 -97t-173 -38.5zM319 396l-136 -399q4 -1 12 -1q26 0 52.5 17.5t51.5 47t46 68t37 80.5t25 85t9 81
q0 32 -9 52.5t-29 20.5q-17 0 -33 -13t-26 -41v2z" />
    <glyph glyph-name="ydieresis" unicode="&#xff;" horiz-adv-x="566" 
d="M93 -248h-226l251 286l-9 441l-73 -10l4 11l272 32l3 -486l204 278l-108 128q3 24 13 42t24.5 29t32 16.5t35.5 5.5q33 0 59.5 -17t26.5 -58q0 -23 -16 -61t-54 -89l-216 -292zM536 603q-35 0 -59 24.5t-24 60.5t24 60.5t59 24.5q36 0 59.5 -24.5t23.5 -60.5t-23.5 -60.5
t-59.5 -24.5zM297 602q-35 0 -59 24.5t-24 60.5t24 60.5t59 24.5q36 0 59.5 -24.5t23.5 -60.5t-23.5 -60.5t-59.5 -24.5z" />
    <glyph glyph-name="Abreve" unicode="&#x102;" horiz-adv-x="876" 
d="M-167 10h83l997 787h7l-241 -787h83l-3 -10h-399l3 10h83l80 262h-261l-332 -262h92l-3 -10h-192zM547 340l63 204l-259 -204h196zM917 837q-21 0 -47 6.5t-47 24.5t-31.5 49t0.5 80h54q-8 -54 11.5 -82.5t70.5 -28.5q45 0 79 29t50 82h56q-16 -51 -39.5 -82t-50.5 -48.5
t-54.5 -23.5t-51.5 -6z" />
    <glyph glyph-name="Amacron" unicode="&#x100;" horiz-adv-x="876" 
d="M-167 10h83l997 787h7l-241 -787h83l-3 -10h-399l3 10h83l80 262h-261l-332 -262h92l-3 -10h-192zM547 340l63 204l-259 -204h196zM767 944h316l-22 -68h-316z" />
    <glyph glyph-name="Aogonek" unicode="&#x104;" horiz-adv-x="876" 
d="M-167 10h83l997 787h7l-241 -787h83l-3 -10h-399l3 10h83l80 262h-261l-332 -262h92l-3 -10h-192zM547 340l63 204l-259 -204h196zM654 -160q-11 -12 -25 -25t-31.5 -24t-38 -18t-44.5 -7q-40 0 -64 21t-24 57q0 29 16.5 53t45 43t68 33.5t84.5 26.5h16
q-53 -27 -85.5 -56t-32.5 -67q0 -24 14 -36.5t37 -12.5q16 0 29 4.5t29 15.5z" />
    <glyph glyph-name="Cacute" unicode="&#x106;" horiz-adv-x="860" 
d="M449 -13q-93 0 -164.5 22t-120 61.5t-73.5 95t-25 122.5q0 102 46.5 191.5t126 156t185.5 105t225 38.5q68 0 117 -17.5t77 -45.5l72 60h6l-58 -308h-6q-7 86 -21 143.5t-37.5 92.5t-58 50t-82.5 15q-68 0 -131 -42.5t-112.5 -113.5t-79 -165t-29.5 -197q0 -51 7 -97
t23.5 -81t44 -55.5t68.5 -20.5q55 0 96.5 15t83.5 50.5t90.5 93t117.5 142.5h6l-154 -308h-6l-24 49q-50 -29 -106 -40.5t-104 -11.5zM930 969l-290 -126h-12l94 129h210z" />
    <glyph glyph-name="Ccaron" unicode="&#x10c;" horiz-adv-x="860" 
d="M449 -13q-93 0 -164.5 22t-120 61.5t-73.5 95t-25 122.5q0 102 46.5 191.5t126 156t185.5 105t225 38.5q68 0 117 -17.5t77 -45.5l72 60h6l-58 -308h-6q-7 86 -21 143.5t-37.5 92.5t-58 50t-82.5 15q-68 0 -131 -42.5t-112.5 -113.5t-79 -165t-29.5 -197q0 -51 7 -97
t23.5 -81t44 -55.5t68.5 -20.5q55 0 96.5 15t83.5 50.5t90.5 93t117.5 142.5h6l-154 -308h-6l-24 49q-50 -29 -106 -40.5t-104 -11.5zM584 972h8l117 -59l218 59h12l-186 -129h-106z" />
    <glyph glyph-name="Ccircumflex" unicode="&#x108;" horiz-adv-x="860" 
d="M449 -13q-93 0 -164.5 22t-120 61.5t-73.5 95t-25 122.5q0 102 46.5 191.5t126 156t185.5 105t225 38.5q68 0 117 -17.5t77 -45.5l72 60h6l-58 -308h-6q-7 86 -21 143.5t-37.5 92.5t-58 50t-82.5 15q-68 0 -131 -42.5t-112.5 -113.5t-79 -165t-29.5 -197q0 -51 7 -97
t23.5 -81t44 -55.5t68.5 -20.5q55 0 96.5 15t83.5 50.5t90.5 93t117.5 142.5h6l-154 -308h-6l-24 49q-50 -29 -106 -40.5t-104 -11.5zM687 972h106l63 -129h-8l-117 59l-218 -59h-12z" />
    <glyph glyph-name="Cdotaccent" unicode="&#x10a;" horiz-adv-x="860" 
d="M449 -13q-93 0 -164.5 22t-120 61.5t-73.5 95t-25 122.5q0 102 46.5 191.5t126 156t185.5 105t225 38.5q68 0 117 -17.5t77 -45.5l72 60h6l-58 -308h-6q-7 86 -21 143.5t-37.5 92.5t-58 50t-82.5 15q-68 0 -131 -42.5t-112.5 -113.5t-79 -165t-29.5 -197q0 -51 7 -97
t23.5 -81t44 -55.5t68.5 -20.5q55 0 96.5 15t83.5 50.5t90.5 93t117.5 142.5h6l-154 -308h-6l-24 49q-50 -29 -106 -40.5t-104 -11.5zM713 840q-35 0 -59 24.5t-24 60.5t24 60.5t59 24.5q36 0 59.5 -24.5t23.5 -60.5t-23.5 -60.5t-59.5 -24.5z" />
    <glyph glyph-name="Dcaron" unicode="&#x10e;" horiz-adv-x="924" 
d="M-31 10h83l226 738h-83l3 10h328q94 0 170.5 -19t131 -55t84 -87.5t29.5 -116.5q0 -104 -48.5 -192t-133 -152t-199 -100t-246.5 -36h-348zM327 10q53 0 101.5 25t90 67.5t75.5 98.5t57.5 118.5t36.5 127.5t13 126q0 88 -42.5 131.5t-114.5 43.5h-33l-226 -738h42z
M534 972h8l117 -59l218 59h12l-186 -129h-106z" />
    <glyph glyph-name="Dcroat" unicode="&#x110;" horiz-adv-x="924" 
d="M-31 10h83l226 738h-83l3 10h328q94 0 170.5 -19t131 -55t84 -87.5t29.5 -116.5q0 -104 -48.5 -192t-133 -152t-199 -100t-246.5 -36h-348zM327 10q53 0 101.5 25t90 67.5t75.5 98.5t57.5 118.5t36.5 127.5t13 126q0 88 -42.5 131.5t-114.5 43.5h-33l-226 -738h42z
M98 427h457l-21 -68h-457z" />
    <glyph glyph-name="Ebreve" unicode="&#x114;" horiz-adv-x="810" 
d="M-31 10h83l226 738h-83l3 10h615l-19 -237h-6l-126 203q-11 16 -18.5 20t-28.5 4h-104l-109 -356h91q12 0 18 3.5t16 15.5l103 131h6l-95 -310h-6l-23 131q-2 12 -6 15.5t-16 3.5h-91l-114 -372h153q10 0 17.5 1t13.5 3.5t12.5 6.5t14.5 11l301 249h6l-154 -281h-683z
M606 837q-21 0 -47 6.5t-47 24.5t-31.5 49t0.5 80h54q-8 -54 11.5 -82.5t70.5 -28.5q45 0 79 29t50 82h56q-16 -51 -39.5 -82t-50.5 -48.5t-54.5 -23.5t-51.5 -6z" />
    <glyph glyph-name="Ecaron" unicode="&#x11a;" horiz-adv-x="810" 
d="M-31 10h83l226 738h-83l3 10h615l-19 -237h-6l-126 203q-11 16 -18.5 20t-28.5 4h-104l-109 -356h91q12 0 18 3.5t16 15.5l103 131h6l-95 -310h-6l-23 131q-2 12 -6 15.5t-16 3.5h-91l-114 -372h153q10 0 17.5 1t13.5 3.5t12.5 6.5t14.5 11l301 249h6l-154 -281h-683z
M488 972h8l117 -59l218 59h12l-186 -129h-106z" />
    <glyph glyph-name="Emacron" unicode="&#x112;" horiz-adv-x="810" 
d="M-31 10h83l226 738h-83l3 10h615l-19 -237h-6l-126 203q-11 16 -18.5 20t-28.5 4h-104l-109 -356h91q12 0 18 3.5t16 15.5l103 131h6l-95 -310h-6l-23 131q-2 12 -6 15.5t-16 3.5h-91l-114 -372h153q10 0 17.5 1t13.5 3.5t12.5 6.5t14.5 11l301 249h6l-154 -281h-683z
M456 944h316l-22 -68h-316z" />
    <glyph glyph-name="Eogonek" unicode="&#x118;" horiz-adv-x="810" 
d="M-31 10h83l226 738h-83l3 10h615l-19 -237h-6l-126 203q-11 16 -18.5 20t-28.5 4h-104l-109 -356h91q12 0 18 3.5t16 15.5l103 131h6l-95 -310h-6l-23 131q-2 12 -6 15.5t-16 3.5h-91l-114 -372h153q10 0 17.5 1t13.5 3.5t12.5 6.5t14.5 11l301 249h6l-154 -281h-683z
M646 -160q-11 -12 -25 -25t-31.5 -24t-38 -18t-44.5 -7q-40 0 -64 21t-24 57q0 29 16.5 53t45 43t68 33.5t84.5 26.5h16q-53 -27 -85.5 -56t-32.5 -67q0 -24 14 -36.5t37 -12.5q16 0 29 4.5t29 15.5z" />
    <glyph glyph-name="Edotaccent" unicode="&#x116;" horiz-adv-x="810" 
d="M-31 10h83l226 738h-83l3 10h615l-19 -237h-6l-126 203q-11 16 -18.5 20t-28.5 4h-104l-109 -356h91q12 0 18 3.5t16 15.5l103 131h6l-95 -310h-6l-23 131q-2 12 -6 15.5t-16 3.5h-91l-114 -372h153q10 0 17.5 1t13.5 3.5t12.5 6.5t14.5 11l301 249h6l-154 -281h-683z
M617 840q-35 0 -59 24.5t-24 60.5t24 60.5t59 24.5q36 0 59.5 -24.5t23.5 -60.5t-23.5 -60.5t-59.5 -24.5z" />
    <glyph glyph-name="Gbreve" unicode="&#x11e;" horiz-adv-x="915" 
d="M449 -13q-93 0 -164.5 22t-120 61.5t-73.5 95t-25 122.5q0 102 46.5 191.5t127.5 156t189.5 105t232.5 38.5q68 0 118 -17t85 -46l72 60h6l-58 -308h-6q-7 86 -22 143.5t-40.5 92.5t-61.5 50t-84 15t-94 -19.5t-86.5 -54t-74.5 -82.5t-58.5 -105.5t-38 -122.5t-13.5 -134
q0 -51 7 -96.5t23.5 -80.5t44 -55.5t68.5 -20.5q26 0 57 5t58 18l107 315h-190l55 68h379l-91 -267l-18 -80q-50 1 -96.5 -9.5t-90.5 -24t-86.5 -25t-83.5 -11.5zM710 837q-21 0 -47 6.5t-47 24.5t-31.5 49t0.5 80h54q-8 -54 11.5 -82.5t70.5 -28.5q45 0 79 29t50 82h56
q-16 -51 -39.5 -82t-50.5 -48.5t-54.5 -23.5t-51.5 -6z" />
    <glyph glyph-name="Gcircumflex" unicode="&#x11c;" horiz-adv-x="915" 
d="M449 -13q-93 0 -164.5 22t-120 61.5t-73.5 95t-25 122.5q0 102 46.5 191.5t127.5 156t189.5 105t232.5 38.5q68 0 118 -17t85 -46l72 60h6l-58 -308h-6q-7 86 -22 143.5t-40.5 92.5t-61.5 50t-84 15t-94 -19.5t-86.5 -54t-74.5 -82.5t-58.5 -105.5t-38 -122.5t-13.5 -134
q0 -51 7 -96.5t23.5 -80.5t44 -55.5t68.5 -20.5q26 0 57 5t58 18l107 315h-190l55 68h379l-91 -267l-18 -80q-50 1 -96.5 -9.5t-90.5 -24t-86.5 -25t-83.5 -11.5zM695 972h106l63 -129h-8l-117 59l-218 -59h-12z" />
    <glyph glyph-name="uni0122" unicode="&#x122;" horiz-adv-x="915" 
d="M449 -13q-93 0 -164.5 22t-120 61.5t-73.5 95t-25 122.5q0 102 46.5 191.5t127.5 156t189.5 105t232.5 38.5q68 0 118 -17t85 -46l72 60h6l-58 -308h-6q-7 86 -22 143.5t-40.5 92.5t-61.5 50t-84 15t-94 -19.5t-86.5 -54t-74.5 -82.5t-58.5 -105.5t-38 -122.5t-13.5 -134
q0 -51 7 -96.5t23.5 -80.5t44 -55.5t68.5 -20.5q26 0 57 5t58 18l107 315h-190l55 68h379l-91 -267l-18 -80q-50 1 -96.5 -9.5t-90.5 -24t-86.5 -25t-83.5 -11.5zM240 -347q39 16 64.5 32t40.5 32.5t21 32.5t6 33q0 26 -19.5 46t-50.5 27q0 37 24.5 59t58.5 22q38 0 64 -25
t26 -68q0 -34 -18.5 -64t-50.5 -55.5t-74 -45.5t-88 -35z" />
    <glyph glyph-name="Gdotaccent" unicode="&#x120;" horiz-adv-x="915" 
d="M449 -13q-93 0 -164.5 22t-120 61.5t-73.5 95t-25 122.5q0 102 46.5 191.5t127.5 156t189.5 105t232.5 38.5q68 0 118 -17t85 -46l72 60h6l-58 -308h-6q-7 86 -22 143.5t-40.5 92.5t-61.5 50t-84 15t-94 -19.5t-86.5 -54t-74.5 -82.5t-58.5 -105.5t-38 -122.5t-13.5 -134
q0 -51 7 -96.5t23.5 -80.5t44 -55.5t68.5 -20.5q26 0 57 5t58 18l107 315h-190l55 68h379l-91 -267l-18 -80q-50 1 -96.5 -9.5t-90.5 -24t-86.5 -25t-83.5 -11.5zM721 840q-35 0 -59 24.5t-24 60.5t24 60.5t59 24.5q36 0 59.5 -24.5t23.5 -60.5t-23.5 -60.5t-59.5 -24.5z
" />
    <glyph glyph-name="Hbar" unicode="&#x126;" horiz-adv-x="978" 
d="M365 0h-399l3 10h83l226 738h-83l3 10h399l-3 -10h-83l-98 -321h262l98 321h-83l3 10h399l-3 -10h-83l-226 -738h83l-3 -10h-399l3 10h83l107 349h-262l-107 -349h83zM162 622h883l-21 -68h-883z" />
    <glyph glyph-name="Hcircumflex" unicode="&#x124;" horiz-adv-x="978" 
d="M365 0h-399l3 10h83l226 738h-83l3 10h399l-3 -10h-83l-98 -321h262l98 321h-83l3 10h399l-3 -10h-83l-226 -738h83l-3 -10h-399l3 10h83l107 349h-262l-107 -349h83zM679 972h106l63 -129h-8l-117 59l-218 -59h-12z" />
    <glyph glyph-name="Ibreve" unicode="&#x12c;" horiz-adv-x="483" 
d="M365 0h-399l3 10h83l226 738h-83l3 10h399l-3 -10h-83l-226 -738h83zM445 837q-21 0 -47 6.5t-47 24.5t-31.5 49t0.5 80h54q-8 -54 11.5 -82.5t70.5 -28.5q45 0 79 29t50 82h56q-16 -51 -39.5 -82t-50.5 -48.5t-54.5 -23.5t-51.5 -6z" />
    <glyph glyph-name="Idotaccent" unicode="&#x130;" horiz-adv-x="483" 
d="M365 0h-399l3 10h83l226 738h-83l3 10h399l-3 -10h-83l-226 -738h83zM456 840q-35 0 -59 24.5t-24 60.5t24 60.5t59 24.5q36 0 59.5 -24.5t23.5 -60.5t-23.5 -60.5t-59.5 -24.5z" />
    <glyph glyph-name="Imacron" unicode="&#x12a;" horiz-adv-x="483" 
d="M365 0h-399l3 10h83l226 738h-83l3 10h399l-3 -10h-83l-226 -738h83zM295 944h316l-22 -68h-316z" />
    <glyph glyph-name="Iogonek" unicode="&#x12e;" horiz-adv-x="483" 
d="M365 0h-399l3 10h83l226 738h-83l3 10h399l-3 -10h-83l-226 -738h83zM251 -160q-11 -12 -25 -25t-31.5 -24t-38 -18t-44.5 -7q-40 0 -64 21t-24 57q0 29 16.5 53t45 43t68 33.5t84.5 26.5h16q-53 -27 -85.5 -56t-32.5 -67q0 -24 14 -36.5t37 -12.5q16 0 29 4.5t29 15.5z
" />
    <glyph glyph-name="Itilde" unicode="&#x128;" horiz-adv-x="483" 
d="M365 0h-399l3 10h83l226 738h-83l3 10h399l-3 -10h-83l-226 -738h83zM276 841q7 55 18.5 88.5t26.5 51.5t33 23.5t36 5.5q19 0 40 -10.5t42.5 -23.5t43 -23.5t41.5 -10.5q23 0 41 13t27 52h10q-5 -55 -17.5 -88t-28.5 -51t-33 -24t-32 -6q-24 0 -45 10.5t-41.5 23.5
t-40 23.5t-40.5 10.5q-24 0 -42 -12.5t-29 -52.5h-10z" />
    <glyph glyph-name="uni1ECA" unicode="&#x1eca;" horiz-adv-x="483" 
d="M365 0h-399l3 10h83l226 738h-83l3 10h399l-3 -10h-83l-226 -738h83zM107 -247q-35 0 -59 24.5t-24 60.5t24 60.5t59 24.5q36 0 59.5 -24.5t23.5 -60.5t-23.5 -60.5t-59.5 -24.5z" />
    <glyph glyph-name="Jcircumflex" unicode="&#x134;" horiz-adv-x="538" 
d="M78 -143q-37 0 -68.5 10t-54 27t-35.5 40.5t-13 49.5q0 29 15 51t38 34.5t51.5 16t55.5 -5.5q-2 -55 3 -93.5t15.5 -63t26.5 -36t36 -11.5q37 0 56 27t19 75q0 19 -5 39t-15 38t-25 33t-34 24l195 636h-83l3 10h399l-3 -10h-83l-183 -598q-25 -83 -58.5 -139t-73 -90.5
t-85 -49t-94.5 -14.5zM483 972h106l63 -129h-8l-117 59l-218 -59h-12z" />
    <glyph glyph-name="uni0136" unicode="&#x136;" horiz-adv-x="902" 
d="M365 0h-399l3 10h83l226 738h-83l3 10h399l-3 -10h-83l-106 -345l480 345h-112l3 10h245l-3 -10h-115l-493 -354h242l217 -394h-259l-211 383l-114 -373h83zM290 -347q39 16 64.5 32t40.5 32.5t21 32.5t6 33q0 26 -19.5 46t-50.5 27q0 37 24.5 59t58.5 22q38 0 64 -25
t26 -68q0 -34 -18.5 -64t-50.5 -55.5t-74 -45.5t-88 -35z" />
    <glyph glyph-name="Lacute" unicode="&#x139;" horiz-adv-x="752" 
d="M398 10q21 0 31 4t27 18l301 249h6l-154 -281h-643l3 10h83l226 738h-83l3 10h399l-3 -10h-83l-226 -738h113zM671 969l-290 -126h-12l94 129h210z" />
    <glyph glyph-name="Lcaron" unicode="&#x13d;" horiz-adv-x="752" 
d="M398 10q21 0 31 4t27 18l301 249h6l-154 -281h-643l3 10h83l226 738h-83l3 10h399l-3 -10h-83l-226 -738h113zM592 489q39 16 62.5 32t37 32.5t18 34t4.5 35.5q0 23 -14.5 42.5t-45.5 26.5q0 37 24.5 59t58.5 22q38 0 64 -25t26 -68q0 -34 -18.5 -64t-50.5 -55.5
t-74 -45.5t-88 -35z" />
    <glyph glyph-name="uni013B" unicode="&#x13b;" horiz-adv-x="752" 
d="M398 10q21 0 31 4t27 18l301 249h6l-154 -281h-643l3 10h83l226 738h-83l3 10h399l-3 -10h-83l-226 -738h113zM136 -347q39 16 64.5 32t40.5 32.5t21 32.5t6 33q0 26 -19.5 46t-50.5 27q0 37 24.5 59t58.5 22q38 0 64 -25t26 -68q0 -34 -18.5 -64t-50.5 -55.5t-74 -45.5
t-88 -35z" />
    <glyph glyph-name="Ldot" unicode="&#x13f;" horiz-adv-x="752" 
d="M398 10q21 0 31 4t27 18l301 249h6l-154 -281h-643l3 10h83l226 738h-83l3 10h399l-3 -10h-83l-226 -738h113zM666 341q-35 0 -59 24.5t-24 60.5t24 60.5t59 24.5q36 0 59.5 -24.5t23.5 -60.5t-23.5 -60.5t-59.5 -24.5z" />
    <glyph glyph-name="glyph223" horiz-adv-x="752" 
d="M398 10q21 0 31 4t27 18l301 249h6l-154 -281h-643l3 10h83l226 738h-83l3 10h399l-3 -10h-83l-226 -738h113zM666 341q-35 0 -59 24.5t-24 60.5t24 60.5t59 24.5q36 0 59.5 -24.5t23.5 -60.5t-23.5 -60.5t-59.5 -24.5z" />
    <glyph glyph-name="Lslash" unicode="&#x141;" horiz-adv-x="752" 
d="M398 10q21 0 31 4t27 18l301 249h6l-154 -281h-643l3 10h83l226 738h-83l3 10h399l-3 -10h-83l-226 -738h113zM-1 262l613 382l-30 -96l-613 -382z" />
    <glyph glyph-name="Eng" unicode="&#x14a;" horiz-adv-x="869" 
d="M448 -161q-17 -9 -39.5 -21t-48.5 -25.5t-54 -28t-55 -27.5l-4 9q34 21 64 45q29 23 51.5 48t41.5 54.5t35.5 66t34.5 82.5l50 129l-254 398l-171 -559h96l-3 -10h-205l3 10h97l175 572l-111 174l1 2h268l318 -515l154 505h-96l3 10h205l-3 -10h-97l-214 -699
q-13 -42 -38.5 -72.5t-58.5 -54.5t-70.5 -44t-74.5 -39z" />
    <glyph glyph-name="Nacute" unicode="&#x143;" horiz-adv-x="869" 
d="M-10 10h97l175 572l-111 174l1 2h268l318 -515l154 505h-96l3 10h205l-3 -10h-97l-242 -789h-3l-389 610l-171 -559h96l-3 -10h-205zM888 969l-290 -126h-12l94 129h210z" />
    <glyph glyph-name="Ncaron" unicode="&#x147;" horiz-adv-x="869" 
d="M-10 10h97l175 572l-111 174l1 2h268l318 -515l154 505h-96l3 10h205l-3 -10h-97l-242 -789h-3l-389 610l-171 -559h96l-3 -10h-205zM542 972h8l117 -59l218 59h12l-186 -129h-106z" />
    <glyph glyph-name="uni0145" unicode="&#x145;" horiz-adv-x="869" 
d="M-10 10h97l175 572l-111 174l1 2h268l318 -515l154 505h-96l3 10h205l-3 -10h-97l-242 -789h-3l-389 610l-171 -559h96l-3 -10h-205zM196 -347q39 16 64.5 32t40.5 32.5t21 32.5t6 33q0 26 -19.5 46t-50.5 27q0 37 24.5 59t58.5 22q38 0 64 -25t26 -68q0 -34 -18.5 -64
t-50.5 -55.5t-74 -45.5t-88 -35z" />
    <glyph glyph-name="OE" unicode="&#x152;" horiz-adv-x="1331" 
d="M63 282q0 56 18 114.5t52.5 113.5t84 104t113 85.5t139.5 58t163 21.5q83 0 142.5 -31.5t94.5 -89.5l30 100h434l-19 -237h-6l-126 203q-11 16 -18.5 20t-28.5 4h-104l-109 -356h91q12 0 18 3.5t16 15.5l103 131h6l-95 -310h-6l-23 131q-2 12 -6 15.5t-16 3.5h-91
l-114 -372h153q10 0 17.5 1t13.5 3.5t12.5 6.5t14.5 11l301 249h6l-154 -281h-502l30 98q-66 -51 -145.5 -81t-170.5 -30q-70 0 -128.5 20.5t-101 59t-66 93t-23.5 122.5zM314 204q0 -57 6 -96t18.5 -64t31.5 -36t45 -11q41 0 78 22t68.5 60.5t57.5 92t44 116t28 132.5
t10 142q0 113 -24.5 160t-76.5 47q-41 0 -78 -22t-68.5 -60.5t-57.5 -92t-44 -116t-28 -132.5t-10 -142z" />
    <glyph glyph-name="Obreve" unicode="&#x14e;" horiz-adv-x="932" 
d="M633 779q70 0 128.5 -20.5t101 -59t66 -93t23.5 -122.5q0 -56 -18 -114.5t-52.5 -113.5t-84 -104t-113 -85.5t-139.5 -58t-163 -21.5q-70 0 -128.5 20.5t-101 59t-66 93t-23.5 122.5q0 56 18 114.5t52.5 113.5t84 104t113 85.5t139.5 58t163 21.5zM600 769q-41 0 -78 -22
t-68.5 -60.5t-57.5 -92t-44 -116t-28 -132.5t-10 -142q0 -57 6 -96t18.5 -64t31.5 -36t45 -11q41 0 78 22t68.5 60.5t57.5 92t44 116t28 132.5t10 142q0 113 -24.5 160t-76.5 47zM662 837q-21 0 -47 6.5t-47 24.5t-31.5 49t0.5 80h54q-8 -54 11.5 -82.5t70.5 -28.5
q45 0 79 29t50 82h56q-16 -51 -39.5 -82t-50.5 -48.5t-54.5 -23.5t-51.5 -6z" />
    <glyph glyph-name="Ohungarumlaut" unicode="&#x150;" horiz-adv-x="932" 
d="M633 779q70 0 128.5 -20.5t101 -59t66 -93t23.5 -122.5q0 -56 -18 -114.5t-52.5 -113.5t-84 -104t-113 -85.5t-139.5 -58t-163 -21.5q-70 0 -128.5 20.5t-101 59t-66 93t-23.5 122.5q0 56 18 114.5t52.5 113.5t84 104t113 85.5t139.5 58t163 21.5zM600 769q-41 0 -78 -22
t-68.5 -60.5t-57.5 -92t-44 -116t-28 -132.5t-10 -142q0 -57 6 -96t18.5 -64t31.5 -36t45 -11q41 0 78 22t68.5 60.5t57.5 92t44 116t28 132.5t10 142q0 113 -24.5 160t-76.5 47zM826 969l-290 -126h-12l94 129h210zM1053 969l-290 -126h-12l94 129h210z" />
    <glyph glyph-name="Omacron" unicode="&#x14c;" horiz-adv-x="932" 
d="M633 779q70 0 128.5 -20.5t101 -59t66 -93t23.5 -122.5q0 -56 -18 -114.5t-52.5 -113.5t-84 -104t-113 -85.5t-139.5 -58t-163 -21.5q-70 0 -128.5 20.5t-101 59t-66 93t-23.5 122.5q0 56 18 114.5t52.5 113.5t84 104t113 85.5t139.5 58t163 21.5zM600 769q-41 0 -78 -22
t-68.5 -60.5t-57.5 -92t-44 -116t-28 -132.5t-10 -142q0 -57 6 -96t18.5 -64t31.5 -36t45 -11q41 0 78 22t68.5 60.5t57.5 92t44 116t28 132.5t10 142q0 113 -24.5 160t-76.5 47zM512 944h316l-22 -68h-316z" />
    <glyph glyph-name="uni1ECC" unicode="&#x1ecc;" horiz-adv-x="932" 
d="M633 779q70 0 128.5 -20.5t101 -59t66 -93t23.5 -122.5q0 -56 -18 -114.5t-52.5 -113.5t-84 -104t-113 -85.5t-139.5 -58t-163 -21.5q-70 0 -128.5 20.5t-101 59t-66 93t-23.5 122.5q0 56 18 114.5t52.5 113.5t84 104t113 85.5t139.5 58t163 21.5zM600 769q-41 0 -78 -22
t-68.5 -60.5t-57.5 -92t-44 -116t-28 -132.5t-10 -142q0 -57 6 -96t18.5 -64t31.5 -36t45 -11q41 0 78 22t68.5 60.5t57.5 92t44 116t28 132.5t10 142q0 113 -24.5 160t-76.5 47zM353 -247q-35 0 -59 24.5t-24 60.5t24 60.5t59 24.5q36 0 59.5 -24.5t23.5 -60.5t-23.5 -60.5
t-59.5 -24.5z" />
    <glyph glyph-name="Racute" unicode="&#x154;" horiz-adv-x="875" 
d="M-31 10h83l226 738h-83l3 10h328q84 0 150.5 -7.5t112 -24.5t69.5 -46.5t24 -72.5q0 -47 -25 -84.5t-72 -64t-115 -41.5t-155 -17v-2q49 -5 85 -20t62.5 -38t45.5 -53t34 -64l99 -223h-256l-165 378h-22l-113 -368h83l-3 -10h-399zM417 388q54 0 95 26.5t68 65.5t41 83.5
t14 81.5q0 52 -24.5 77.5t-83.5 25.5h-16l-110 -360h16zM873 969l-290 -126h-12l94 129h210z" />
    <glyph glyph-name="Rcaron" unicode="&#x158;" horiz-adv-x="875" 
d="M-31 10h83l226 738h-83l3 10h328q84 0 150.5 -7.5t112 -24.5t69.5 -46.5t24 -72.5q0 -47 -25 -84.5t-72 -64t-115 -41.5t-155 -17v-2q49 -5 85 -20t62.5 -38t45.5 -53t34 -64l99 -223h-256l-165 378h-22l-113 -368h83l-3 -10h-399zM417 388q54 0 95 26.5t68 65.5t41 83.5
t14 81.5q0 52 -24.5 77.5t-83.5 25.5h-16l-110 -360h16zM527 972h8l117 -59l218 59h12l-186 -129h-106z" />
    <glyph glyph-name="uni0156" unicode="&#x156;" horiz-adv-x="875" 
d="M-31 10h83l226 738h-83l3 10h328q84 0 150.5 -7.5t112 -24.5t69.5 -46.5t24 -72.5q0 -47 -25 -84.5t-72 -64t-115 -41.5t-155 -17v-2q49 -5 85 -20t62.5 -38t45.5 -53t34 -64l99 -223h-256l-165 378h-22l-113 -368h83l-3 -10h-399zM417 388q54 0 95 26.5t68 65.5t41 83.5
t14 81.5q0 52 -24.5 77.5t-83.5 25.5h-16l-110 -360h16zM278 -347q39 16 64.5 32t40.5 32.5t21 32.5t6 33q0 26 -19.5 46t-50.5 27q0 37 24.5 59t58.5 22q38 0 64 -25t26 -68q0 -34 -18.5 -64t-50.5 -55.5t-74 -45.5t-88 -35z" />
    <glyph glyph-name="Sacute" unicode="&#x15a;" horiz-adv-x="670" 
d="M259 -13q-57 0 -111 14.5t-86 46.5l-58 -48h-5l69 319h6q0 -89 9.5 -150.5t30.5 -99.5t55 -55t85 -17q44 0 75.5 8.5t52 22.5t30.5 32.5t10 38.5q0 39 -22.5 74.5t-62.5 79.5l-54 60q-49 54 -76.5 107t-27.5 116q0 51 25 95t67.5 77t99 52t118.5 19q57 0 103 -14t79 -46
l59 49h4l-62 -292h-7q-3 91 -15.5 148t-34.5 89.5t-53 44t-70 11.5q-78 0 -117.5 -27.5t-39.5 -65.5q0 -24 10.5 -46.5t26.5 -44t34.5 -41.5t34.5 -38l52 -58q31 -35 52.5 -63.5t35 -53.5t19.5 -48.5t6 -50.5q0 -52 -25.5 -96.5t-71.5 -77.5t-110 -52t-140 -19zM772 969
l-290 -126h-12l94 129h210z" />
    <glyph glyph-name="Scaron" unicode="&#x160;" horiz-adv-x="670" 
d="M259 -13q-57 0 -111 14.5t-86 46.5l-58 -48h-5l69 319h6q0 -89 9.5 -150.5t30.5 -99.5t55 -55t85 -17q44 0 75.5 8.5t52 22.5t30.5 32.5t10 38.5q0 39 -22.5 74.5t-62.5 79.5l-54 60q-49 54 -76.5 107t-27.5 116q0 51 25 95t67.5 77t99 52t118.5 19q57 0 103 -14t79 -46
l59 49h4l-62 -292h-7q-3 91 -15.5 148t-34.5 89.5t-53 44t-70 11.5q-78 0 -117.5 -27.5t-39.5 -65.5q0 -24 10.5 -46.5t26.5 -44t34.5 -41.5t34.5 -38l52 -58q31 -35 52.5 -63.5t35 -53.5t19.5 -48.5t6 -50.5q0 -52 -25.5 -96.5t-71.5 -77.5t-110 -52t-140 -19zM426 972h8
l117 -59l218 59h12l-186 -129h-106z" />
    <glyph glyph-name="Scedilla" unicode="&#x15e;" horiz-adv-x="670" 
d="M259 -13q-57 0 -111 14.5t-86 46.5l-58 -48h-5l69 319h6q0 -89 9.5 -150.5t30.5 -99.5t55 -55t85 -17q44 0 75.5 8.5t52 22.5t30.5 32.5t10 38.5q0 39 -22.5 74.5t-62.5 79.5l-54 60q-49 54 -76.5 107t-27.5 116q0 51 25 95t67.5 77t99 52t118.5 19q57 0 103 -14t79 -46
l59 49h4l-62 -292h-7q-3 91 -15.5 148t-34.5 89.5t-53 44t-70 11.5q-78 0 -117.5 -27.5t-39.5 -65.5q0 -24 10.5 -46.5t26.5 -44t34.5 -41.5t34.5 -38l52 -58q31 -35 52.5 -63.5t35 -53.5t19.5 -48.5t6 -50.5q0 -52 -25.5 -96.5t-71.5 -77.5t-110 -52t-140 -19zM147 -271
q-38 0 -65.5 17.5t-27.5 41.5q0 11 5.5 19.5t14.5 12.5t20 3.5t21 -6.5l35 -65q4 -7 6.5 -10.5t10.5 -3.5q23 0 43.5 12t20.5 35q0 21 -25.5 41.5t-72.5 41.5l160 130h15l-101 -82q74 -36 74 -86q0 -19 -9.5 -37t-27.5 -32.5t-42.5 -23t-54.5 -8.5z" />
    <glyph glyph-name="Scircumflex" unicode="&#x15c;" horiz-adv-x="670" 
d="M259 -13q-57 0 -111 14.5t-86 46.5l-58 -48h-5l69 319h6q0 -89 9.5 -150.5t30.5 -99.5t55 -55t85 -17q44 0 75.5 8.5t52 22.5t30.5 32.5t10 38.5q0 39 -22.5 74.5t-62.5 79.5l-54 60q-49 54 -76.5 107t-27.5 116q0 51 25 95t67.5 77t99 52t118.5 19q57 0 103 -14t79 -46
l59 49h4l-62 -292h-7q-3 91 -15.5 148t-34.5 89.5t-53 44t-70 11.5q-78 0 -117.5 -27.5t-39.5 -65.5q0 -24 10.5 -46.5t26.5 -44t34.5 -41.5t34.5 -38l52 -58q31 -35 52.5 -63.5t35 -53.5t19.5 -48.5t6 -50.5q0 -52 -25.5 -96.5t-71.5 -77.5t-110 -52t-140 -19zM529 972h106
l63 -129h-8l-117 59l-218 -59h-12z" />
    <glyph glyph-name="uni0218" unicode="&#x218;" horiz-adv-x="670" 
d="M259 -13q-57 0 -111 14.5t-86 46.5l-58 -48h-5l69 319h6q0 -89 9.5 -150.5t30.5 -99.5t55 -55t85 -17q44 0 75.5 8.5t52 22.5t30.5 32.5t10 38.5q0 39 -22.5 74.5t-62.5 79.5l-54 60q-49 54 -76.5 107t-27.5 116q0 51 25 95t67.5 77t99 52t118.5 19q57 0 103 -14t79 -46
l59 49h4l-62 -292h-7q-3 91 -15.5 148t-34.5 89.5t-53 44t-70 11.5q-78 0 -117.5 -27.5t-39.5 -65.5q0 -24 10.5 -46.5t26.5 -44t34.5 -41.5t34.5 -38l52 -58q31 -35 52.5 -63.5t35 -53.5t19.5 -48.5t6 -50.5q0 -52 -25.5 -96.5t-71.5 -77.5t-110 -52t-140 -19zM72 -349
q39 16 64.5 32t40.5 32.5t21 32.5t6 33q0 26 -19.5 46t-50.5 27q0 37 24.5 59t58.5 22q38 0 64 -25t26 -68q0 -34 -18.5 -64t-50.5 -55.5t-74 -45.5t-88 -35z" />
    <glyph glyph-name="Tbar" unicode="&#x166;" horiz-adv-x="842" 
d="M128 10h103l226 738h-102q-17 0 -28 -4.5t-24 -19.5l-217 -248h-6l148 335h7l91 -53h501l123 53h7l-56 -335h-6l-61 248q-4 15 -11.5 19.5t-24.5 4.5h-108l-226 -738h103l-3 -10h-439zM207 427h536l-21 -68h-536z" />
    <glyph glyph-name="Tcaron" unicode="&#x164;" horiz-adv-x="842" 
d="M128 10h103l226 738h-102q-17 0 -28 -4.5t-24 -19.5l-217 -248h-6l148 335h7l91 -53h501l123 53h7l-56 -335h-6l-61 248q-4 15 -11.5 19.5t-24.5 4.5h-108l-226 -738h103l-3 -10h-439zM505 972h8l117 -59l218 59h12l-186 -129h-106z" />
    <glyph glyph-name="uni0162" unicode="&#x162;" horiz-adv-x="842" 
d="M128 10h103l226 738h-102q-17 0 -28 -4.5t-24 -19.5l-217 -248h-6l148 335h7l91 -53h501l123 53h7l-56 -335h-6l-61 248q-4 15 -11.5 19.5t-24.5 4.5h-108l-226 -738h103l-3 -10h-439zM149 -347q39 16 64.5 32t40.5 32.5t21 32.5t6 33q0 26 -19.5 46t-50.5 27
q0 37 24.5 59t58.5 22q38 0 64 -25t26 -68q0 -34 -18.5 -64t-50.5 -55.5t-74 -45.5t-88 -35z" />
    <glyph glyph-name="uni021A" unicode="&#x21a;" horiz-adv-x="842" 
d="M128 10h103l226 738h-102q-17 0 -28 -4.5t-24 -19.5l-217 -248h-6l148 335h7l91 -53h501l123 53h7l-56 -335h-6l-61 248q-4 15 -11.5 19.5t-24.5 4.5h-108l-226 -738h103l-3 -10h-439zM149 -347q39 16 64.5 32t40.5 32.5t21 32.5t6 33q0 26 -19.5 46t-50.5 27
q0 37 24.5 59t58.5 22q38 0 64 -25t26 -68q0 -34 -18.5 -64t-50.5 -55.5t-74 -45.5t-88 -35z" />
    <glyph glyph-name="Ubreve" unicode="&#x16c;" horiz-adv-x="881" 
d="M385 -13q-77 0 -137.5 18t-97 56t-45.5 97t16 141l138 449h-83l3 10h399l-3 -10h-83l-141 -459q-39 -130 -11 -195.5t125 -65.5q121 0 198.5 73t120.5 213l133 434h-96l3 10h205l-3 -10h-97l-133 -434q-23 -75 -55 -135t-80 -103t-115 -66t-161 -23zM707 837
q-21 0 -47 6.5t-47 24.5t-31.5 49t0.5 80h54q-8 -54 11.5 -82.5t70.5 -28.5q45 0 79 29t50 82h56q-16 -51 -39.5 -82t-50.5 -48.5t-54.5 -23.5t-51.5 -6z" />
    <glyph glyph-name="Uhungarumlaut" unicode="&#x170;" horiz-adv-x="881" 
d="M385 -13q-77 0 -137.5 18t-97 56t-45.5 97t16 141l138 449h-83l3 10h399l-3 -10h-83l-141 -459q-39 -130 -11 -195.5t125 -65.5q121 0 198.5 73t120.5 213l133 434h-96l3 10h205l-3 -10h-97l-133 -434q-23 -75 -55 -135t-80 -103t-115 -66t-161 -23zM871 969l-290 -126
h-12l94 129h210zM1098 969l-290 -126h-12l94 129h210z" />
    <glyph glyph-name="Umacron" unicode="&#x16a;" horiz-adv-x="881" 
d="M385 -13q-77 0 -137.5 18t-97 56t-45.5 97t16 141l138 449h-83l3 10h399l-3 -10h-83l-141 -459q-39 -130 -11 -195.5t125 -65.5q121 0 198.5 73t120.5 213l133 434h-96l3 10h205l-3 -10h-97l-133 -434q-23 -75 -55 -135t-80 -103t-115 -66t-161 -23zM557 944h316l-22 -68
h-316z" />
    <glyph glyph-name="Uogonek" unicode="&#x172;" horiz-adv-x="881" 
d="M385 -13q-77 0 -137.5 18t-97 56t-45.5 97t16 141l138 449h-83l3 10h399l-3 -10h-83l-141 -459q-39 -130 -11 -195.5t125 -65.5q121 0 198.5 73t120.5 213l133 434h-96l3 10h205l-3 -10h-97l-133 -434q-22 -71 -51.5 -128.5t-73 -100t-104 -67.5t-143.5 -30
q-42 -23 -66.5 -50.5t-24.5 -60.5q0 -24 14 -36.5t37 -12.5q16 0 29 4.5t29 15.5l6 -8q-11 -12 -25 -25t-31.5 -24t-38 -18t-44.5 -7q-40 0 -64 21t-24 57q0 25 13.5 46.5t37.5 39t56.5 31.5t70.5 26h-14z" />
    <glyph glyph-name="Uring" unicode="&#x16e;" horiz-adv-x="881" 
d="M385 -13q-77 0 -137.5 18t-97 56t-45.5 97t16 141l138 449h-83l3 10h399l-3 -10h-83l-141 -459q-39 -130 -11 -195.5t125 -65.5q121 0 198.5 73t120.5 213l133 434h-96l3 10h205l-3 -10h-97l-133 -434q-23 -75 -55 -135t-80 -103t-115 -66t-161 -23zM619 977
q0 23 9.5 43.5t25 35.5t36.5 24t45 9t45.5 -9t37.5 -24t25.5 -35.5t9.5 -43.5q0 -24 -9.5 -44.5t-25.5 -35.5t-37.5 -23.5t-45.5 -8.5t-45 8.5t-36.5 23.5t-25 35.5t-9.5 44.5zM801 976q0 32 -17 50.5t-49 18.5q-31 0 -48 -18.5t-17 -50.5q0 -30 17 -48.5t48 -18.5
q32 0 49 18.5t17 48.5z" />
    <glyph glyph-name="Utilde" unicode="&#x168;" horiz-adv-x="881" 
d="M385 -13q-77 0 -137.5 18t-97 56t-45.5 97t16 141l138 449h-83l3 10h399l-3 -10h-83l-141 -459q-39 -130 -11 -195.5t125 -65.5q121 0 198.5 73t120.5 213l133 434h-96l3 10h205l-3 -10h-97l-133 -434q-23 -75 -55 -135t-80 -103t-115 -66t-161 -23zM538 841
q7 55 18.5 88.5t26.5 51.5t33 23.5t36 5.5q19 0 40 -10.5t42.5 -23.5t43 -23.5t41.5 -10.5q23 0 41 13t27 52h10q-5 -55 -17.5 -88t-28.5 -51t-33 -24t-32 -6q-24 0 -45 10.5t-41.5 23.5t-40 23.5t-40.5 10.5q-24 0 -42 -12.5t-29 -52.5h-10z" />
    <glyph glyph-name="uni1EE4" unicode="&#x1ee4;" horiz-adv-x="881" 
d="M385 -13q-77 0 -137.5 18t-97 56t-45.5 97t16 141l138 449h-83l3 10h399l-3 -10h-83l-141 -459q-39 -130 -11 -195.5t125 -65.5q121 0 198.5 73t120.5 213l133 434h-96l3 10h205l-3 -10h-97l-133 -434q-23 -75 -55 -135t-80 -103t-115 -66t-161 -23zM340 -247
q-35 0 -59 24.5t-24 60.5t24 60.5t59 24.5q36 0 59.5 -24.5t23.5 -60.5t-23.5 -60.5t-59.5 -24.5z" />
    <glyph glyph-name="Wacute" unicode="&#x1e82;" horiz-adv-x="1364" 
d="M276 748h-83l3 10h399l-3 -10h-83l-163 -533l336 266l85 277h346l-3 -10h-113l-163 -533l675 533h-91l3 10h192l-3 -10h-83l-997 -787h-7l153 501l-634 -501h-7zM1192 969l-290 -126h-12l94 129h210z" />
    <glyph glyph-name="Wcircumflex" unicode="&#x174;" horiz-adv-x="1364" 
d="M276 748h-83l3 10h399l-3 -10h-83l-163 -533l336 266l85 277h346l-3 -10h-113l-163 -533l675 533h-91l3 10h192l-3 -10h-83l-997 -787h-7l153 501l-634 -501h-7zM949 972h106l63 -129h-8l-117 59l-218 -59h-12z" />
    <glyph glyph-name="Wdieresis" unicode="&#x1e84;" horiz-adv-x="1364" 
d="M276 748h-83l3 10h399l-3 -10h-83l-163 -533l336 266l85 277h346l-3 -10h-113l-163 -533l675 533h-91l3 10h192l-3 -10h-83l-997 -787h-7l153 501l-634 -501h-7zM845 840q-35 0 -59 24.5t-24 60.5t24 60.5t59 24.5q36 0 59.5 -24.5t23.5 -60.5t-23.5 -60.5t-59.5 -24.5z
M1105 840q-35 0 -59 24.5t-24 60.5t24 60.5t59 24.5q36 0 59.5 -24.5t23.5 -60.5t-23.5 -60.5t-59.5 -24.5z" />
    <glyph glyph-name="Wgrave" unicode="&#x1e80;" horiz-adv-x="1364" 
d="M276 748h-83l3 10h399l-3 -10h-83l-163 -533l336 266l85 277h346l-3 -10h-113l-163 -533l675 533h-91l3 10h192l-3 -10h-83l-997 -787h-7l153 501l-634 -501h-7zM945 972l32 -129h-9l-226 126l1 3h202z" />
    <glyph glyph-name="Ycircumflex" unicode="&#x176;" horiz-adv-x="839" 
d="M545 0h-399l3 10h83l116 379l-135 359h-93l3 10h435l-3 -10h-93l121 -340l336 340h-93l3 10h192l-3 -10h-84l-353 -358l-116 -380h83zM679 972h106l63 -129h-8l-117 59l-218 -59h-12z" />
    <glyph glyph-name="Ydieresis" unicode="&#x178;" horiz-adv-x="839" 
d="M545 0h-399l3 10h83l116 379l-135 359h-93l3 10h435l-3 -10h-93l121 -340l336 340h-93l3 10h192l-3 -10h-84l-353 -358l-116 -380h83zM575 840q-35 0 -59 24.5t-24 60.5t24 60.5t59 24.5q36 0 59.5 -24.5t23.5 -60.5t-23.5 -60.5t-59.5 -24.5zM835 840q-35 0 -59 24.5
t-24 60.5t24 60.5t59 24.5q36 0 59.5 -24.5t23.5 -60.5t-23.5 -60.5t-59.5 -24.5z" />
    <glyph glyph-name="Ygrave" unicode="&#x1ef2;" horiz-adv-x="839" 
d="M545 0h-399l3 10h83l116 379l-135 359h-93l3 10h435l-3 -10h-93l121 -340l336 340h-93l3 10h192l-3 -10h-84l-353 -358l-116 -380h83zM675 972l32 -129h-9l-226 126l1 3h202z" />
    <glyph glyph-name="uni0232" unicode="&#x232;" horiz-adv-x="839" 
d="M545 0h-399l3 10h83l116 379l-135 359h-93l3 10h435l-3 -10h-93l121 -340l336 340h-93l3 10h192l-3 -10h-84l-353 -358l-116 -380h83zM544 944h316l-22 -68h-316z" />
    <glyph glyph-name="Zacute" unicode="&#x179;" horiz-adv-x="805" 
d="M647 748h-177q-19 0 -31 -4.5t-25 -15.5l-264 -227h-6l192 310h7l97 -53h491l-725 -748h212q10 0 17.5 1t14 3.5t13 6.5t14.5 11l303 259h6l-167 -291h-699zM896 969l-290 -126h-12l94 129h210z" />
    <glyph glyph-name="Zcaron" unicode="&#x17d;" horiz-adv-x="805" 
d="M647 748h-177q-19 0 -31 -4.5t-25 -15.5l-264 -227h-6l192 310h7l97 -53h491l-725 -748h212q10 0 17.5 1t14 3.5t13 6.5t14.5 11l303 259h6l-167 -291h-699zM550 972h8l117 -59l218 59h12l-186 -129h-106z" />
    <glyph glyph-name="Zdotaccent" unicode="&#x17b;" horiz-adv-x="805" 
d="M647 748h-177q-19 0 -31 -4.5t-25 -15.5l-264 -227h-6l192 310h7l97 -53h491l-725 -748h212q10 0 17.5 1t14 3.5t13 6.5t14.5 11l303 259h6l-167 -291h-699zM679 840q-35 0 -59 24.5t-24 60.5t24 60.5t59 24.5q36 0 59.5 -24.5t23.5 -60.5t-23.5 -60.5t-59.5 -24.5z" />
    <glyph glyph-name="uni018F" unicode="&#x18f;" horiz-adv-x="856" 
d="M374 -13q-72 0 -127.5 18.5t-94.5 51t-61.5 77t-29.5 95.5h594q11 44 11 88q0 66 -20 115.5t-56 82.5t-87 49.5t-113 16.5q-42 0 -87.5 -10t-87.5 -36t-76.5 -72.5t-52.5 -118.5h-15q15 92 54.5 171.5t100.5 138t141 92t175 33.5q79 0 141 -21.5t104 -61t64 -95.5
t22 -125q0 -96 -44 -184t-115 -156t-160 -108.5t-180 -40.5zM395 -4q37 0 76 15.5t74 44t63 68.5t43 90h-189q-47 0 -78.5 -7.5t-50.5 -21.5t-26.5 -36t-7.5 -50q0 -44 24 -73.5t72 -29.5z" />
    <glyph glyph-name="abreve" unicode="&#x103;" horiz-adv-x="654" 
d="M121 -13q-25 0 -47 8t-38.5 24.5t-26 40.5t-9.5 56q0 49 17.5 99t47 96t67 86t78.5 69t82 46t76 17q28 0 42.5 -14.5t15.5 -52.5h1l23 62h214l-155 -408q-20 -51 -25.5 -71.5t4.5 -20.5q7 0 20 6t32 24.5t43 53t53 90.5l10 -5q-33 -63 -61 -103t-56.5 -63t-60.5 -31.5
t-72 -8.5q-66 0 -81 34t8 103l27 78h-2q-27 -59 -50 -100t-48 -66.5t-56 -37t-73 -11.5zM240 50q10 0 27 23t36.5 60t39 82.5t36 90.5t26.5 85t10 66q0 59 -30 59q-18 0 -37 -21t-37 -56t-34 -79.5t-28.5 -90.5t-19.5 -90.5t-7 -79.5q0 -31 5 -40t13 -9zM454 598
q-21 0 -47 6.5t-47 24.5t-31.5 49t0.5 80h54q-8 -54 11.5 -82.5t70.5 -28.5q45 0 79 29t50 82h56q-16 -51 -39.5 -82t-50.5 -48.5t-54.5 -23.5t-51.5 -6z" />
    <glyph glyph-name="amacron" unicode="&#x101;" horiz-adv-x="654" 
d="M121 -13q-25 0 -47 8t-38.5 24.5t-26 40.5t-9.5 56q0 49 17.5 99t47 96t67 86t78.5 69t82 46t76 17q28 0 42.5 -14.5t15.5 -52.5h1l23 62h214l-155 -408q-20 -51 -25.5 -71.5t4.5 -20.5q7 0 20 6t32 24.5t43 53t53 90.5l10 -5q-33 -63 -61 -103t-56.5 -63t-60.5 -31.5
t-72 -8.5q-66 0 -81 34t8 103l27 78h-2q-27 -59 -50 -100t-48 -66.5t-56 -37t-73 -11.5zM240 50q10 0 27 23t36.5 60t39 82.5t36 90.5t26.5 85t10 66q0 59 -30 59q-18 0 -37 -21t-37 -56t-34 -79.5t-28.5 -90.5t-19.5 -90.5t-7 -79.5q0 -31 5 -40t13 -9zM317 705h310
l-25 -68h-310z" />
    <glyph glyph-name="aogonek" unicode="&#x105;" horiz-adv-x="654" 
d="M121 -13q-25 0 -47 8t-38.5 24.5t-26 40.5t-9.5 56q0 49 17.5 99t47 96t67 86t78.5 69t82 46t76 17q28 0 42.5 -14.5t15.5 -52.5h1l23 62h214l-155 -408q-20 -51 -25.5 -71.5t4.5 -20.5q7 0 20 6t32 24.5t43 53t53 90.5l10 -5q-26 -51 -49 -86.5t-45.5 -59t-46 -36.5
t-50.5 -18q-45 -21 -73 -51t-28 -65q0 -24 14 -36.5t37 -12.5q16 0 29 4.5t29 15.5l6 -8q-11 -12 -25 -25t-31.5 -24t-38 -18t-44.5 -7q-40 0 -64 21t-24 57q0 26 14.5 47.5t39.5 39t58.5 31.5t71.5 26q-8 -1 -15 -1h-15q-66 0 -81 34t8 103l27 78h-2q-27 -59 -50 -100
t-48 -66.5t-56 -37t-73 -11.5zM240 50q10 0 27 23t36.5 60t39 82.5t36 90.5t26.5 85t10 66q0 59 -30 59q-18 0 -37 -21t-37 -56t-34 -79.5t-28.5 -90.5t-19.5 -90.5t-7 -79.5q0 -31 5 -40t13 -9z" />
    <glyph glyph-name="cacute" unicode="&#x107;" horiz-adv-x="483" 
d="M183 -13q-44 0 -76.5 12.5t-54 35t-31.5 54t-9 69.5q3 74 38 140.5t88.5 117t117.5 80t125 29.5q57 0 90.5 -23t31.5 -64q-1 -24 -12.5 -42.5t-31 -30.5t-44 -18t-50.5 -5l-16 173h-1q-30 -21 -51.5 -56t-35.5 -77.5t-21.5 -88t-8.5 -87.5q-2 -38 1.5 -69.5t11.5 -54.5
t20.5 -36t28.5 -13q32 0 68.5 41.5t71.5 131.5l10 -3q-21 -60 -47 -101.5t-57.5 -67t-70 -36.5t-85.5 -11zM459 758h201l-1 -3l-283 -176h-12z" />
    <glyph glyph-name="ccaron" unicode="&#x10d;" horiz-adv-x="483" 
d="M183 -13q-44 0 -76.5 12.5t-54 35t-31.5 54t-9 69.5q3 74 38 140.5t88.5 117t117.5 80t125 29.5q57 0 90.5 -23t31.5 -64q-1 -24 -12.5 -42.5t-31 -30.5t-44 -18t-50.5 -5l-16 173h-1q-30 -21 -51.5 -56t-35.5 -77.5t-21.5 -88t-8.5 -87.5q-2 -38 1.5 -69.5t11.5 -54.5
t20.5 -36t28.5 -13q32 0 68.5 41.5t71.5 131.5l10 -3q-21 -60 -47 -101.5t-57.5 -67t-70 -36.5t-85.5 -11zM284 782h9l104 -72l212 72h10l-246 -203h-12z" />
    <glyph glyph-name="ccircumflex" unicode="&#x109;" horiz-adv-x="483" 
d="M183 -13q-44 0 -76.5 12.5t-54 35t-31.5 54t-9 69.5q3 74 38 140.5t88.5 117t117.5 80t125 29.5q57 0 90.5 -23t31.5 -64q-1 -24 -12.5 -42.5t-31 -30.5t-44 -18t-50.5 -5l-16 173h-1q-30 -21 -51.5 -56t-35.5 -77.5t-21.5 -88t-8.5 -87.5q-2 -38 1.5 -69.5t11.5 -54.5
t20.5 -36t28.5 -13q32 0 68.5 41.5t71.5 131.5l10 -3q-21 -60 -47 -101.5t-57.5 -67t-70 -36.5t-85.5 -11zM482 782h12l77 -203h-9l-104 72l-212 -72h-10z" />
    <glyph glyph-name="cdotaccent" unicode="&#x10b;" horiz-adv-x="483" 
d="M183 -13q-44 0 -76.5 12.5t-54 35t-31.5 54t-9 69.5q3 74 38 140.5t88.5 117t117.5 80t125 29.5q57 0 90.5 -23t31.5 -64q-1 -24 -12.5 -42.5t-31 -30.5t-44 -18t-50.5 -5l-16 173h-1q-30 -21 -51.5 -56t-35.5 -77.5t-21.5 -88t-8.5 -87.5q-2 -38 1.5 -69.5t11.5 -54.5
t20.5 -36t28.5 -13q32 0 68.5 41.5t71.5 131.5l10 -3q-21 -60 -47 -101.5t-57.5 -67t-70 -36.5t-85.5 -11zM431 603q-35 0 -59 24.5t-24 60.5t24 60.5t59 24.5q36 0 59.5 -24.5t23.5 -60.5t-23.5 -60.5t-59.5 -24.5z" />
    <glyph glyph-name="dcaron" unicode="&#x10f;" horiz-adv-x="730" 
d="M119 -13q-52 0 -86 32t-34 92q0 51 18 101.5t48 97t68.5 86.5t80 69.5t82.5 46.5t75 17q57 0 60 -45h1l88 264h-94l4 10h306l-214 -642q-17 -52 -22 -72t5 -20q6 0 19.5 6.5t33 25.5t43.5 53t51 89l10 -5q-32 -64 -60.5 -104t-58 -62.5t-63.5 -31t-78 -8.5
q-42 0 -61 12.5t-22.5 35.5t4.5 55t21 70l14 42h-2q-32 -71 -61 -113.5t-57.5 -65t-58 -29.5t-60.5 -7zM241 50q10 0 27.5 21t37.5 55.5t40.5 78.5t37 90.5t27 91.5t10.5 82q0 26 -8.5 36.5t-24.5 10.5q-19 0 -38.5 -21t-38 -56t-34.5 -79.5t-28.5 -90.5t-19.5 -90.5
t-7 -79.5q0 -31 5.5 -40t13.5 -9zM728 489q39 16 62.5 32t37 32.5t18 34t4.5 35.5q0 23 -14.5 42.5t-45.5 26.5q0 37 24.5 59t58.5 22q38 0 64 -25t26 -68q0 -34 -18.5 -64t-50.5 -55.5t-74 -45.5t-88 -35z" />
    <glyph glyph-name="dcroat" unicode="&#x111;" horiz-adv-x="660" 
d="M119 -13q-52 0 -86 32t-34 92q0 51 18 101.5t48 97t68.5 86.5t80 69.5t82.5 46.5t75 17q57 0 60 -45h1l88 264h-94l4 10h306l-214 -642q-17 -52 -22 -72t5 -20q6 0 19.5 6.5t33 25.5t43.5 53t51 89l10 -5q-32 -64 -60.5 -104t-58 -62.5t-63.5 -31t-78 -8.5
q-42 0 -61 12.5t-22.5 35.5t4.5 55t21 70l14 42h-2q-32 -71 -61 -113.5t-57.5 -65t-58 -29.5t-60.5 -7zM241 50q10 0 27.5 21t37.5 55.5t40.5 78.5t37 90.5t27 91.5t10.5 82q0 26 -8.5 36.5t-24.5 10.5q-19 0 -38.5 -21t-38 -56t-34.5 -79.5t-28.5 -90.5t-19.5 -90.5
t-7 -79.5q0 -31 5.5 -40t13.5 -9zM363 651h405l-17 -51h-406z" />
    <glyph glyph-name="ebreve" unicode="&#x115;" horiz-adv-x="503" 
d="M182 -13q-47 0 -80 12.5t-54 34t-31 51.5t-9 65q2 66 36 133t88 120.5t121.5 87.5t138.5 34q29 0 54 -7t42.5 -19.5t27.5 -30t9 -38.5q-1 -18 -7.5 -36t-17 -34t-25 -29t-30.5 -20l-206 -9q-6 -26 -9 -52.5t-4 -52.5q-2 -33 1.5 -63t12 -52.5t21.5 -35.5t31 -13
q40 0 82 45.5t74 134.5l10 -3q-18 -54 -42 -95.5t-57 -70t-76.5 -43t-100.5 -14.5zM392 516q-27 0 -50.5 -17t-42.5 -45.5t-34 -65.5t-24 -77q31 2 63.5 21t59 45.5t44 55.5t18.5 52q0 31 -34 31zM434 598q-21 0 -47 6.5t-47 24.5t-31.5 49t0.5 80h54q-8 -54 11.5 -82.5
t70.5 -28.5q45 0 79 29t50 82h56q-16 -51 -39.5 -82t-50.5 -48.5t-54.5 -23.5t-51.5 -6z" />
    <glyph glyph-name="ecaron" unicode="&#x11b;" horiz-adv-x="503" 
d="M182 -13q-47 0 -80 12.5t-54 34t-31 51.5t-9 65q2 66 36 133t88 120.5t121.5 87.5t138.5 34q29 0 54 -7t42.5 -19.5t27.5 -30t9 -38.5q-1 -18 -7.5 -36t-17 -34t-25 -29t-30.5 -20l-206 -9q-6 -26 -9 -52.5t-4 -52.5q-2 -33 1.5 -63t12 -52.5t21.5 -35.5t31 -13
q40 0 82 45.5t74 134.5l10 -3q-18 -54 -42 -95.5t-57 -70t-76.5 -43t-100.5 -14.5zM392 516q-27 0 -50.5 -17t-42.5 -45.5t-34 -65.5t-24 -77q31 2 63.5 21t59 45.5t44 55.5t18.5 52q0 31 -34 31zM298 782h9l104 -72l212 72h10l-246 -203h-12z" />
    <glyph glyph-name="emacron" unicode="&#x113;" horiz-adv-x="503" 
d="M182 -13q-47 0 -80 12.5t-54 34t-31 51.5t-9 65q2 66 36 133t88 120.5t121.5 87.5t138.5 34q29 0 54 -7t42.5 -19.5t27.5 -30t9 -38.5q-1 -18 -7.5 -36t-17 -34t-25 -29t-30.5 -20l-206 -9q-6 -26 -9 -52.5t-4 -52.5q-2 -33 1.5 -63t12 -52.5t21.5 -35.5t31 -13
q40 0 82 45.5t74 134.5l10 -3q-18 -54 -42 -95.5t-57 -70t-76.5 -43t-100.5 -14.5zM392 516q-27 0 -50.5 -17t-42.5 -45.5t-34 -65.5t-24 -77q31 2 63.5 21t59 45.5t44 55.5t18.5 52q0 31 -34 31zM297 705h310l-25 -68h-310z" />
    <glyph glyph-name="eogonek" unicode="&#x119;" horiz-adv-x="503" 
d="M270 -160q-11 -12 -25 -25t-31.5 -24t-38 -18t-44.5 -7q-38 0 -63 19.5t-25 57.5q0 28 16.5 50.5t45.5 40.5t68 33t83 27q-13 -2 -32.5 -4.5t-41.5 -2.5q-47 0 -80 12.5t-54 34t-31 51.5t-9 65q2 66 36 133t88 120.5t121.5 87.5t138.5 34q29 0 54 -7t42.5 -19.5t27.5 -30
t9 -38.5q-1 -18 -7.5 -36t-17 -34t-25 -29t-30.5 -20l-206 -9q-6 -26 -9 -52.5t-4 -52.5q-2 -33 1.5 -63t12 -52.5t21.5 -35.5t31 -13q40 0 82 45.5t74 134.5l10 -3q-30 -89 -70 -135t-94 -72q-67 -33 -103 -60t-36 -66q0 -24 14 -36.5t37 -12.5q16 0 29 4.5t29 15.5z
M392 516q-27 0 -50.5 -17t-42.5 -45.5t-34 -65.5t-24 -77q31 2 63.5 21t59 45.5t44 55.5t18.5 52q0 31 -34 31z" />
    <glyph glyph-name="edotaccent" unicode="&#x117;" horiz-adv-x="503" 
d="M182 -13q-47 0 -80 12.5t-54 34t-31 51.5t-9 65q2 66 36 133t88 120.5t121.5 87.5t138.5 34q29 0 54 -7t42.5 -19.5t27.5 -30t9 -38.5q-1 -18 -7.5 -36t-17 -34t-25 -29t-30.5 -20l-206 -9q-6 -26 -9 -52.5t-4 -52.5q-2 -33 1.5 -63t12 -52.5t21.5 -35.5t31 -13
q40 0 82 45.5t74 134.5l10 -3q-18 -54 -42 -95.5t-57 -70t-76.5 -43t-100.5 -14.5zM392 516q-27 0 -50.5 -17t-42.5 -45.5t-34 -65.5t-24 -77q31 2 63.5 21t59 45.5t44 55.5t18.5 52q0 31 -34 31zM445 603q-35 0 -59 24.5t-24 60.5t24 60.5t59 24.5q36 0 59.5 -24.5
t23.5 -60.5t-23.5 -60.5t-59.5 -24.5z" />
    <glyph glyph-name="gbreve" unicode="&#x11f;" horiz-adv-x="556" 
d="M237 170q-26 0 -47 3l-48 -32l141 -91q42 -27 75 -49.5t56.5 -43.5t35.5 -41.5t12 -43.5q0 -41 -30.5 -68t-75 -43t-95 -22.5t-90.5 -6.5q-75 0 -134.5 7.5t-101.5 22.5t-64.5 37t-22.5 50q0 24 17.5 41.5t47.5 31t70.5 22.5t86.5 15l-21 130l126 87q-63 13 -93 49
t-30 82q0 40 20.5 79t58.5 70t92 50t120 19q51 0 87.5 -12.5t59.5 -34.5l44 110h143l-47 -119h-131q29 -35 29 -81q0 -40 -20.5 -79t-58.5 -70t-91.5 -50t-120.5 -19zM277 181q15 0 27 17.5t21 47t13.5 68t4.5 79.5q0 66 -10.5 93.5t-29.5 27.5q-15 0 -27 -17.5t-21 -47
t-13.5 -68t-4.5 -79.5q0 -66 10.5 -93.5t29.5 -27.5zM-23 -124q0 -31 21.5 -55.5t54.5 -42t71.5 -26.5t72.5 -9q56 0 88.5 8t32.5 26q0 7 -5 14t-19 18.5t-39.5 28t-66.5 43.5l-112 72q-17 -4 -35 -10t-32 -15t-23 -21.5t-9 -30.5zM352 598q-21 0 -47 6.5t-47 24.5t-31.5 49
t0.5 80h54q-8 -54 11.5 -82.5t70.5 -28.5q45 0 79 29t50 82h56q-16 -51 -39.5 -82t-50.5 -48.5t-54.5 -23.5t-51.5 -6z" />
    <glyph glyph-name="gcircumflex" unicode="&#x11d;" horiz-adv-x="556" 
d="M237 170q-26 0 -47 3l-48 -32l141 -91q42 -27 75 -49.5t56.5 -43.5t35.5 -41.5t12 -43.5q0 -41 -30.5 -68t-75 -43t-95 -22.5t-90.5 -6.5q-75 0 -134.5 7.5t-101.5 22.5t-64.5 37t-22.5 50q0 24 17.5 41.5t47.5 31t70.5 22.5t86.5 15l-21 130l126 87q-63 13 -93 49
t-30 82q0 40 20.5 79t58.5 70t92 50t120 19q51 0 87.5 -12.5t59.5 -34.5l44 110h143l-47 -119h-131q29 -35 29 -81q0 -40 -20.5 -79t-58.5 -70t-91.5 -50t-120.5 -19zM277 181q15 0 27 17.5t21 47t13.5 68t4.5 79.5q0 66 -10.5 93.5t-29.5 27.5q-15 0 -27 -17.5t-21 -47
t-13.5 -68t-4.5 -79.5q0 -66 10.5 -93.5t29.5 -27.5zM-23 -124q0 -31 21.5 -55.5t54.5 -42t71.5 -26.5t72.5 -9q56 0 88.5 8t32.5 26q0 7 -5 14t-19 18.5t-39.5 28t-66.5 43.5l-112 72q-17 -4 -35 -10t-32 -15t-23 -21.5t-9 -30.5zM414 782h12l77 -203h-9l-104 72l-212 -72
h-10z" />
    <glyph glyph-name="uni0123" unicode="&#x123;" horiz-adv-x="556" 
d="M237 170q-26 0 -47 3l-48 -32l141 -91q42 -27 75 -49.5t56.5 -43.5t35.5 -41.5t12 -43.5q0 -41 -30.5 -68t-75 -43t-95 -22.5t-90.5 -6.5q-75 0 -134.5 7.5t-101.5 22.5t-64.5 37t-22.5 50q0 24 17.5 41.5t47.5 31t70.5 22.5t86.5 15l-21 130l126 87q-63 13 -93 49
t-30 82q0 40 20.5 79t58.5 70t92 50t120 19q51 0 87.5 -12.5t59.5 -34.5l44 110h143l-47 -119h-131q29 -35 29 -81q0 -40 -20.5 -79t-58.5 -70t-91.5 -50t-120.5 -19zM277 181q15 0 27 17.5t21 47t13.5 68t4.5 79.5q0 66 -10.5 93.5t-29.5 27.5q-15 0 -27 -17.5t-21 -47
t-13.5 -68t-4.5 -79.5q0 -66 10.5 -93.5t29.5 -27.5zM-23 -124q0 -31 21.5 -55.5t54.5 -42t71.5 -26.5t72.5 -9q56 0 88.5 8t32.5 26q0 7 -5 14t-19 18.5t-39.5 28t-66.5 43.5l-112 72q-17 -4 -35 -10t-32 -15t-23 -21.5t-9 -30.5zM337 586q-38 0 -64 25t-26 68
q0 34 18.5 64t50.5 55.5t73.5 45.5t88.5 35l4 -9q-39 -16 -64 -32t-40 -32.5t-21 -34t-6 -35.5q0 -23 19 -42.5t50 -26.5q0 -37 -24.5 -59t-58.5 -22z" />
    <glyph glyph-name="gdotaccent" unicode="&#x121;" horiz-adv-x="556" 
d="M237 170q-26 0 -47 3l-48 -32l141 -91q42 -27 75 -49.5t56.5 -43.5t35.5 -41.5t12 -43.5q0 -41 -30.5 -68t-75 -43t-95 -22.5t-90.5 -6.5q-75 0 -134.5 7.5t-101.5 22.5t-64.5 37t-22.5 50q0 24 17.5 41.5t47.5 31t70.5 22.5t86.5 15l-21 130l126 87q-63 13 -93 49
t-30 82q0 40 20.5 79t58.5 70t92 50t120 19q51 0 87.5 -12.5t59.5 -34.5l44 110h143l-47 -119h-131q29 -35 29 -81q0 -40 -20.5 -79t-58.5 -70t-91.5 -50t-120.5 -19zM277 181q15 0 27 17.5t21 47t13.5 68t4.5 79.5q0 66 -10.5 93.5t-29.5 27.5q-15 0 -27 -17.5t-21 -47
t-13.5 -68t-4.5 -79.5q0 -66 10.5 -93.5t29.5 -27.5zM-23 -124q0 -31 21.5 -55.5t54.5 -42t71.5 -26.5t72.5 -9q56 0 88.5 8t32.5 26q0 7 -5 14t-19 18.5t-39.5 28t-66.5 43.5l-112 72q-17 -4 -35 -10t-32 -15t-23 -21.5t-9 -30.5zM363 603q-35 0 -59 24.5t-24 60.5t24 60.5
t59 24.5q36 0 59.5 -24.5t23.5 -60.5t-23.5 -60.5t-59.5 -24.5z" />
    <glyph glyph-name="hbar" unicode="&#x127;" horiz-adv-x="642" 
d="M322 -13q-17 0 -33 4t-28.5 12.5t-20 23t-7.5 35.5q0 19 8 34.5t21 27t28 18t30 7.5l63 -139q16 38 26 81.5t16 88t8 87t2 78.5q0 42 -7 67t-22 25q-17 0 -40.5 -29t-47.5 -72t-47 -91.5t-39 -88.5l-58 -141l-203 -25l257 758h-63l4 10h276l-89 -264l-77 -205h2
q57 118 121.5 177t131.5 59q33 0 54.5 -10.5t34.5 -27.5t18 -38.5t5 -43.5q0 -47 -15 -96.5t-40.5 -96t-58.5 -87.5t-69 -71.5t-72.5 -48.5t-68.5 -18zM132 651h411l-17 -51h-411z" />
    <glyph glyph-name="hcircumflex" unicode="&#x125;" horiz-adv-x="642" 
d="M322 -13q-17 0 -33 4t-28.5 12.5t-20 23t-7.5 35.5q0 19 8 34.5t21 27t28 18t30 7.5l63 -139q16 38 26 81.5t16 88t8 87t2 78.5q0 42 -7 67t-22 25q-17 0 -40.5 -29t-47.5 -72t-47 -91.5t-39 -88.5l-58 -141l-203 -25l257 758h-63l4 10h276l-89 -264l-77 -205h2
q57 118 121.5 177t131.5 59q33 0 54.5 -10.5t34.5 -27.5t18 -38.5t5 -43.5q0 -47 -15 -96.5t-40.5 -96t-58.5 -87.5t-69 -71.5t-72.5 -48.5t-68.5 -18zM357 972h106l63 -129h-8l-117 59l-218 -59h-12z" />
    <glyph glyph-name="dotlessi" unicode="&#x131;" horiz-adv-x="385" 
d="M131 390l-51 60l2 4l319 85l-160 -423q-20 -51 -23.5 -71.5t6.5 -20.5q6 0 18 6.5t29.5 25.5t40 53t49.5 89l10 -5q-32 -64 -59 -104t-54.5 -62.5t-60 -31t-76.5 -8.5q-33 0 -56 8.5t-33.5 29t-7.5 53.5t21 82z" />
    <glyph glyph-name="ibreve" unicode="&#x12d;" horiz-adv-x="385" 
d="M131 390l-51 60l2 4l319 85l-160 -423q-20 -51 -23.5 -71.5t6.5 -20.5q6 0 18 6.5t29.5 25.5t40 53t49.5 89l10 -5q-32 -64 -59 -104t-54.5 -62.5t-60 -31t-76.5 -8.5q-33 0 -56 8.5t-33.5 29t-7.5 53.5t21 82zM317 595q-21 0 -47 6.5t-47 24.5t-31.5 49t0.5 80h54
q-8 -54 11.5 -82.5t70.5 -28.5q45 0 79 29t50 82h56q-16 -51 -39.5 -82t-50.5 -48.5t-54.5 -23.5t-51.5 -6z" />
    <glyph glyph-name="imacron" unicode="&#x12b;" horiz-adv-x="385" 
d="M131 390l-51 60l2 4l319 85l-160 -423q-20 -51 -23.5 -71.5t6.5 -20.5q6 0 18 6.5t29.5 25.5t40 53t49.5 89l10 -5q-32 -64 -59 -104t-54.5 -62.5t-60 -31t-76.5 -8.5q-33 0 -56 8.5t-33.5 29t-7.5 53.5t21 82zM180 702h310l-25 -68h-310z" />
    <glyph glyph-name="iogonek" unicode="&#x12f;" horiz-adv-x="385" 
d="M131 390l-51 60l2 4l319 85l-160 -423q-20 -51 -23.5 -71.5t6.5 -20.5q6 0 18 6.5t29.5 25.5t40 53t49.5 89l10 -5q-32 -64 -59 -104t-54.5 -62.5t-60 -31t-76.5 -8.5q-33 0 -56 8.5t-33.5 29t-7.5 53.5t21 82zM338 566q-26 0 -48 10t-39 27t-26.5 39.5t-9.5 48.5
q0 25 9.5 47.5t26.5 39.5t39 26.5t48 9.5t48.5 -9.5t39.5 -26.5t27 -39.5t10 -47.5q0 -26 -10 -48.5t-27 -39.5t-39.5 -27t-48.5 -10zM199 -160q-11 -12 -25 -25t-31.5 -24t-38 -18t-44.5 -7q-40 0 -64 21t-24 57q0 29 16.5 53t45 43t68 33.5t84.5 26.5h16
q-53 -27 -85.5 -56t-32.5 -67q0 -24 14 -36.5t37 -12.5q16 0 29 4.5t29 15.5z" />
    <glyph glyph-name="itilde" unicode="&#x129;" horiz-adv-x="385" 
d="M131 390l-51 60l2 4l319 85l-160 -423q-20 -51 -23.5 -71.5t6.5 -20.5q6 0 18 6.5t29.5 25.5t40 53t49.5 89l10 -5q-32 -64 -59 -104t-54.5 -62.5t-60 -31t-76.5 -8.5q-33 0 -56 8.5t-33.5 29t-7.5 53.5t21 82zM148 598q7 55 18.5 88.5t26.5 51.5t33 23.5t36 5.5
q19 0 40 -10.5t42.5 -23.5t43 -23.5t41.5 -10.5q23 0 41 13t27 52h10q-5 -55 -17.5 -88t-28.5 -51t-33 -24t-32 -6q-24 0 -45 10.5t-41.5 23.5t-40 23.5t-40.5 10.5q-24 0 -42 -12.5t-29 -52.5h-10z" />
    <glyph glyph-name="uni1ECB" unicode="&#x1ecb;" horiz-adv-x="385" 
d="M131 390l-51 60l2 4l319 85l-160 -423q-20 -51 -23.5 -71.5t6.5 -20.5q6 0 18 6.5t29.5 25.5t40 53t49.5 89l10 -5q-32 -64 -59 -104t-54.5 -62.5t-60 -31t-76.5 -8.5q-33 0 -56 8.5t-33.5 29t-7.5 53.5t21 82zM338 566q-26 0 -48 10t-39 27t-26.5 39.5t-9.5 48.5
q0 25 9.5 47.5t26.5 39.5t39 26.5t48 9.5t48.5 -9.5t39.5 -26.5t27 -39.5t10 -47.5q0 -26 -10 -48.5t-27 -39.5t-39.5 -27t-48.5 -10zM55 -247q-35 0 -59 24.5t-24 60.5t24 60.5t59 24.5q36 0 59.5 -24.5t23.5 -60.5t-23.5 -60.5t-59.5 -24.5z" />
    <glyph glyph-name="uni0237" unicode="&#x237;" horiz-adv-x="349" 
d="M80 450l2 4l319 85l-188 -490q-16 -41 -42 -71.5t-58 -54.5t-68.5 -44.5t-73.5 -39.5q-17 -9 -39.5 -21t-48.5 -25.5t-54 -28t-55 -27.5l-4 9q34 21 64 45q29 23 51.5 48t41 54.5t35.5 66t35 82.5l134 348z" />
    <glyph glyph-name="jcircumflex" unicode="&#x135;" horiz-adv-x="349" 
d="M80 450l2 4l319 85l-188 -490q-16 -41 -42 -71.5t-58 -54.5t-68.5 -44.5t-73.5 -39.5q-17 -9 -39.5 -21t-48.5 -25.5t-54 -28t-55 -27.5l-4 9q34 21 64 45q29 23 51.5 48t41 54.5t35.5 66t35 82.5l134 348zM370 782h12l77 -203h-9l-104 72l-212 -72h-10z" />
    <glyph glyph-name="uni0137" unicode="&#x137;" horiz-adv-x="661" 
d="M228 748h-63l4 10h276l-95 -274l-59 -153h3q27 47 52 83.5t51.5 61t56 37t65.5 12.5q51 0 75 -23t24 -55q0 -47 -42 -82t-122 -58l66 -211q15 -48 23 -65.5t18 -17.5q4 0 12 4t17.5 15t21 31.5t23.5 53.5l11 -4q-17 -45 -34.5 -73t-38.5 -43.5t-46 -21t-55 -5.5
q-69 0 -110.5 49t-70.5 145l-24 79l-39 -111l-36 -116l-221 -26zM270 252q46 1 86.5 14t70.5 36t47.5 56t17.5 73q0 65 -38 65q-19 0 -45.5 -25t-53 -61.5t-49.5 -78.5t-35 -76zM110 -347q39 16 64.5 32t40.5 32.5t21 32.5t6 33q0 26 -19.5 46t-50.5 27q0 37 24.5 59
t58.5 22q38 0 64 -25t26 -68q0 -34 -18.5 -64t-50.5 -55.5t-74 -45.5t-88 -35z" />
    <glyph glyph-name="lacute" unicode="&#x13a;" horiz-adv-x="366" 
d="M107 -13q-33 0 -56 8.5t-33.5 29t-8 53.5t19.5 83l199 587h-63l4 10h276l-218 -642q-17 -52 -22 -72t5 -20q6 0 19.5 6.5t33 25.5t43.5 53t51 89l10 -5q-32 -64 -60.5 -104t-58 -62.5t-63.5 -31t-78 -8.5zM434 1014h201l-1 -3l-283 -176h-12z" />
    <glyph glyph-name="lcaron" unicode="&#x13e;" horiz-adv-x="439" 
d="M107 -13q-33 0 -56 8.5t-33.5 29t-8 53.5t19.5 83l199 587h-63l4 10h276l-218 -642q-17 -52 -22 -72t5 -20q6 0 19.5 6.5t33 25.5t43.5 53t51 89l10 -5q-32 -64 -60.5 -104t-58 -62.5t-63.5 -31t-78 -8.5zM437 489q39 16 62.5 32t37 32.5t18 34t4.5 35.5q0 23 -14.5 42.5
t-45.5 26.5q0 37 24.5 59t58.5 22q38 0 64 -25t26 -68q0 -34 -18.5 -64t-50.5 -55.5t-74 -45.5t-88 -35z" />
    <glyph glyph-name="uni013C" unicode="&#x13c;" horiz-adv-x="366" 
d="M107 -13q-33 0 -56 8.5t-33.5 29t-8 53.5t19.5 83l199 587h-63l4 10h276l-218 -642q-17 -52 -22 -72t5 -20q6 0 19.5 6.5t33 25.5t43.5 53t51 89l10 -5q-32 -64 -60.5 -104t-58 -62.5t-63.5 -31t-78 -8.5zM-83 -347q39 16 64.5 32t40.5 32.5t21 32.5t6 33q0 26 -19.5 46
t-50.5 27q0 37 24.5 59t58.5 22q38 0 64 -25t26 -68q0 -34 -18.5 -64t-50.5 -55.5t-74 -45.5t-88 -35z" />
    <glyph glyph-name="ldot" unicode="&#x140;" horiz-adv-x="509" 
d="M107 -13q-33 0 -56 8.5t-33.5 29t-8 53.5t19.5 83l199 587h-63l4 10h276l-218 -642q-17 -52 -22 -72t5 -20q6 0 19.5 6.5t33 25.5t43.5 53t51 89l10 -5q-32 -64 -60.5 -104t-58 -62.5t-63.5 -31t-78 -8.5zM471 308q-35 0 -59 24.5t-24 60.5t24 60.5t59 24.5
q36 0 59.5 -24.5t23.5 -60.5t-23.5 -60.5t-59.5 -24.5z" />
    <glyph glyph-name="glyph298" horiz-adv-x="509" 
d="M107 -13q-33 0 -56 8.5t-33.5 29t-8 53.5t19.5 83l199 587h-63l4 10h276l-218 -642q-17 -52 -22 -72t5 -20q6 0 19.5 6.5t33 25.5t43.5 53t51 89l10 -5q-32 -64 -60.5 -104t-58 -62.5t-63.5 -31t-78 -8.5zM471 308q-35 0 -59 24.5t-24 60.5t24 60.5t59 24.5
q36 0 59.5 -24.5t23.5 -60.5t-23.5 -60.5t-59.5 -24.5z" />
    <glyph glyph-name="lslash" unicode="&#x142;" horiz-adv-x="476" 
d="M167 -13q-33 0 -56 8.5t-33.5 29t-8 53.5t19.5 83l199 587h-63l4 10h276l-218 -642q-17 -52 -22 -72t5 -20q6 0 19.5 6.5t33 25.5t43.5 53t51 89l10 -5q-32 -64 -60.5 -104t-58 -62.5t-63.5 -31t-78 -8.5zM539 530l-541 -321l21 70l541 321z" />
    <glyph glyph-name="eng" unicode="&#x14b;" horiz-adv-x="636" 
d="M244 -161q-17 -9 -39.5 -21t-48.5 -25.5t-54 -28t-55 -27.5l-4 9q34 21 64 45q29 23 50.5 48.5t39.5 55.5t35 66t38 81l161 343q12 26 18.5 42t8 25t-1 12.5t-8.5 3.5q-11 0 -23.5 -11t-26.5 -29.5t-29.5 -44t-32.5 -54.5q-23 -41 -46 -86.5t-42.5 -88t-34.5 -79
t-21 -60.5l-212 -25l150 400l-51 60l2 4l311 85l-160 -386h2q29 60 54 108t48 88q25 44 48 77t47.5 55t52.5 33t63 11q33 0 57 -14t34.5 -42t4.5 -69.5t-32 -96.5l-120 -254q-18 -39 -45.5 -69.5t-60 -55t-68.5 -45.5t-73 -40z" />
    <glyph glyph-name="nacute" unicode="&#x144;" horiz-adv-x="677" 
d="M402 -13q-33 0 -57.5 9.5t-36 30t-8 53.5t25.5 80l105 225q12 26 18.5 42t8 25t-1 12.5t-8.5 3.5q-11 0 -23.5 -11t-26 -29.5t-29 -44t-32.5 -54.5q-23 -41 -46 -86.5t-42.5 -88t-34.5 -79t-21 -60.5l-213 -25l150 400l-51 60l2 4l311 85l-160 -386h2q29 60 54 108t48 88
q25 44 48 77t47.5 55t52.5 33t63 11q33 0 57 -14t34.5 -42t4.5 -69.5t-32 -96.5l-89 -187q-23 -50 -27 -71t7 -21q7 0 20.5 6t32.5 24.5t43.5 53t53.5 90.5l10 -5q-33 -63 -61 -103t-57.5 -63t-63.5 -31.5t-78 -8.5zM551 758h201l-1 -3l-283 -176h-12z" />
    <glyph glyph-name="ncaron" unicode="&#x148;" horiz-adv-x="677" 
d="M402 -13q-33 0 -57.5 9.5t-36 30t-8 53.5t25.5 80l105 225q12 26 18.5 42t8 25t-1 12.5t-8.5 3.5q-11 0 -23.5 -11t-26 -29.5t-29 -44t-32.5 -54.5q-23 -41 -46 -86.5t-42.5 -88t-34.5 -79t-21 -60.5l-213 -25l150 400l-51 60l2 4l311 85l-160 -386h2q29 60 54 108t48 88
q25 44 48 77t47.5 55t52.5 33t63 11q33 0 57 -14t34.5 -42t4.5 -69.5t-32 -96.5l-89 -187q-23 -50 -27 -71t7 -21q7 0 20.5 6t32.5 24.5t43.5 53t53.5 90.5l10 -5q-33 -63 -61 -103t-57.5 -63t-63.5 -31.5t-78 -8.5zM376 782h9l104 -72l212 72h10l-246 -203h-12z" />
    <glyph glyph-name="uni0146" unicode="&#x146;" horiz-adv-x="677" 
d="M402 -13q-33 0 -57.5 9.5t-36 30t-8 53.5t25.5 80l105 225q12 26 18.5 42t8 25t-1 12.5t-8.5 3.5q-11 0 -23.5 -11t-26 -29.5t-29 -44t-32.5 -54.5q-23 -41 -46 -86.5t-42.5 -88t-34.5 -79t-21 -60.5l-213 -25l150 400l-51 60l2 4l311 85l-160 -386h2q29 60 54 108t48 88
q25 44 48 77t47.5 55t52.5 33t63 11q33 0 57 -14t34.5 -42t4.5 -69.5t-32 -96.5l-89 -187q-23 -50 -27 -71t7 -21q7 0 20.5 6t32.5 24.5t43.5 53t53.5 90.5l10 -5q-33 -63 -61 -103t-57.5 -63t-63.5 -31.5t-78 -8.5zM93 -347q39 16 64.5 32t40.5 32.5t21 32.5t6 33
q0 26 -19.5 46t-50.5 27q0 37 24.5 59t58.5 22q38 0 64 -25t26 -68q0 -34 -18.5 -64t-50.5 -55.5t-74 -45.5t-88 -35z" />
    <glyph glyph-name="oe" unicode="&#x153;" horiz-adv-x="828" 
d="M783 210q-18 -54 -42 -95.5t-57 -70t-76.5 -43t-100.5 -14.5t-94 18.5t-57 50.5q-40 -32 -86 -50.5t-98 -18.5q-41 0 -72 11.5t-52 31.5t-31.5 46.5t-10.5 56.5q0 69 33 138.5t88 126t126.5 92t148.5 35.5q39 0 66.5 -20.5t41.5 -55.5q47 35 100 55.5t107 20.5
q29 0 54 -7t42.5 -19.5t27.5 -30t9 -38.5q-1 -18 -7.5 -36t-17 -34t-25 -29t-30.5 -20l-206 -9q-11 -48 -13 -96.5t4 -86.5t21.5 -62t40.5 -24q40 0 82 45.5t74 134.5zM717 515q-27 0 -50.5 -17t-42.5 -45t-34 -65t-24 -77q31 2 63.5 21.5t59 46t44 55.5t18.5 51
q0 30 -34 30zM250 6q16 0 34.5 28t34 80t26 127t10.5 170q0 45 -7 70t-23 25q-17 0 -36 -28t-35 -80.5t-26 -127.5t-10 -169q0 -46 7 -70.5t25 -24.5z" />
    <glyph glyph-name="obreve" unicode="&#x14f;" horiz-adv-x="570" 
d="M172 -13q-41 0 -72 11.5t-52 31.5t-31.5 46.5t-10.5 56.5q0 69 33 138.5t88 126t126.5 92t148.5 35.5q40 0 71 -11.5t52 -31.5t32 -46.5t11 -56.5q0 -69 -33 -139t-87.5 -126.5t-126 -91.5t-149.5 -35zM250 6q16 0 34.5 28t34 80t26 127t10.5 170q0 45 -7 70t-23 25
q-17 0 -36 -28t-35 -80.5t-26 -127.5t-10 -169q0 -46 7 -70.5t25 -24.5zM409 598q-21 0 -47 6.5t-47 24.5t-31.5 49t0.5 80h54q-8 -54 11.5 -82.5t70.5 -28.5q45 0 79 29t50 82h56q-16 -51 -39.5 -82t-50.5 -48.5t-54.5 -23.5t-51.5 -6z" />
    <glyph glyph-name="ohungarumlaut" unicode="&#x151;" horiz-adv-x="570" 
d="M172 -13q-41 0 -72 11.5t-52 31.5t-31.5 46.5t-10.5 56.5q0 69 33 138.5t88 126t126.5 92t148.5 35.5q40 0 71 -11.5t52 -31.5t32 -46.5t11 -56.5q0 -69 -33 -139t-87.5 -126.5t-126 -91.5t-149.5 -35zM250 6q16 0 34.5 28t34 80t26 127t10.5 170q0 45 -7 70t-23 25
q-17 0 -36 -28t-35 -80.5t-26 -127.5t-10 -169q0 -46 7 -70.5t25 -24.5zM358 758h201l-1 -3l-285 -176h-12zM587 758h201l-1 -3l-285 -176h-12z" />
    <glyph glyph-name="omacron" unicode="&#x14d;" horiz-adv-x="570" 
d="M172 -13q-41 0 -72 11.5t-52 31.5t-31.5 46.5t-10.5 56.5q0 69 33 138.5t88 126t126.5 92t148.5 35.5q40 0 71 -11.5t52 -31.5t32 -46.5t11 -56.5q0 -69 -33 -139t-87.5 -126.5t-126 -91.5t-149.5 -35zM250 6q16 0 34.5 28t34 80t26 127t10.5 170q0 45 -7 70t-23 25
q-17 0 -36 -28t-35 -80.5t-26 -127.5t-10 -169q0 -46 7 -70.5t25 -24.5zM272 705h310l-25 -68h-310z" />
    <glyph glyph-name="uni1ECD" unicode="&#x1ecd;" horiz-adv-x="570" 
d="M172 -13q-41 0 -72 11.5t-52 31.5t-31.5 46.5t-10.5 56.5q0 69 33 138.5t88 126t126.5 92t148.5 35.5q40 0 71 -11.5t52 -31.5t32 -46.5t11 -56.5q0 -69 -33 -139t-87.5 -126.5t-126 -91.5t-149.5 -35zM250 6q16 0 34.5 28t34 80t26 127t10.5 170q0 45 -7 70t-23 25
q-17 0 -36 -28t-35 -80.5t-26 -127.5t-10 -169q0 -46 7 -70.5t25 -24.5zM141 -247q-35 0 -59 24.5t-24 60.5t24 60.5t59 24.5q36 0 59.5 -24.5t23.5 -60.5t-23.5 -60.5t-59.5 -24.5z" />
    <glyph glyph-name="racute" unicode="&#x155;" horiz-adv-x="534" 
d="M130 390l-51 60l2 4l311 85l-162 -401h2q32 72 58.5 128.5t49.5 100.5q21 40 40.5 70t40 49.5t43.5 29t51 9.5q37 0 57 -23.5t20 -61.5q0 -42 -32 -75t-99 -46l-52 133q-17 -17 -37.5 -52t-42.5 -79q-21 -43 -42.5 -89.5t-40 -89t-33 -76.5t-21.5 -51l-212 -25zM528 758
h201l-1 -3l-283 -176h-12z" />
    <glyph glyph-name="rcaron" unicode="&#x159;" horiz-adv-x="534" 
d="M130 390l-51 60l2 4l311 85l-162 -401h2q32 72 58.5 128.5t49.5 100.5q21 40 40.5 70t40 49.5t43.5 29t51 9.5q37 0 57 -23.5t20 -61.5q0 -42 -32 -75t-99 -46l-52 133q-17 -17 -37.5 -52t-42.5 -79q-21 -43 -42.5 -89.5t-40 -89t-33 -76.5t-21.5 -51l-212 -25zM353 782
h9l104 -72l212 72h10l-246 -203h-12z" />
    <glyph glyph-name="uni0157" unicode="&#x157;" horiz-adv-x="534" 
d="M130 390l-51 60l2 4l311 85l-162 -401h2q32 72 58.5 128.5t49.5 100.5q21 40 40.5 70t40 49.5t43.5 29t51 9.5q37 0 57 -23.5t20 -61.5q0 -42 -32 -75t-99 -46l-52 133q-17 -17 -37.5 -52t-42.5 -79q-21 -43 -42.5 -89.5t-40 -89t-33 -76.5t-21.5 -51l-212 -25zM-96 -347
q39 16 64.5 32t40.5 32.5t21 32.5t6 33q0 26 -19.5 46t-50.5 27q0 37 24.5 59t58.5 22q38 0 64 -25t26 -68q0 -34 -18.5 -64t-50.5 -55.5t-74 -45.5t-88 -35z" />
    <glyph glyph-name="sacute" unicode="&#x15b;" horiz-adv-x="456" 
d="M129 -13q-32 0 -59.5 7.5t-47.5 21t-31.5 32t-11.5 41.5q0 22 11 39.5t29 30.5t40 20t44 8l57 -188q40 3 63.5 13.5t23.5 39.5q0 22 -18 49t-56 76l-28 36q-29 37 -43.5 69t-14.5 64q0 41 24.5 74t62 56.5t82.5 36t87 12.5q29 0 54.5 -7t44 -19.5t29 -29.5t10.5 -38
t-10.5 -37.5t-28.5 -28t-42 -17t-51 -4.5l-40 169q-37 -3 -59.5 -13.5t-22.5 -33.5t16 -50.5t51 -70.5l35 -43q27 -34 39 -61t12 -63q0 -49 -24 -85t-60.5 -59.5t-81 -35t-85.5 -11.5zM404 758h201l-1 -3l-283 -176h-12z" />
    <glyph glyph-name="scaron" unicode="&#x161;" horiz-adv-x="456" 
d="M129 -13q-32 0 -59.5 7.5t-47.5 21t-31.5 32t-11.5 41.5q0 22 11 39.5t29 30.5t40 20t44 8l57 -188q40 3 63.5 13.5t23.5 39.5q0 22 -18 49t-56 76l-28 36q-29 37 -43.5 69t-14.5 64q0 41 24.5 74t62 56.5t82.5 36t87 12.5q29 0 54.5 -7t44 -19.5t29 -29.5t10.5 -38
t-10.5 -37.5t-28.5 -28t-42 -17t-51 -4.5l-40 169q-37 -3 -59.5 -13.5t-22.5 -33.5t16 -50.5t51 -70.5l35 -43q27 -34 39 -61t12 -63q0 -49 -24 -85t-60.5 -59.5t-81 -35t-85.5 -11.5zM229 782h9l104 -72l212 72h10l-246 -203h-12z" />
    <glyph glyph-name="scedilla" unicode="&#x15f;" horiz-adv-x="456" 
d="M129 -13q-32 0 -59.5 7.5t-47.5 21t-31.5 32t-11.5 41.5q0 22 11 39.5t29 30.5t40 20t44 8l57 -188q40 3 63.5 13.5t23.5 39.5q0 22 -18 49t-56 76l-28 36q-29 37 -43.5 69t-14.5 64q0 41 24.5 74t62 56.5t82.5 36t87 12.5q29 0 54.5 -7t44 -19.5t29 -29.5t10.5 -38
t-10.5 -37.5t-28.5 -28t-42 -17t-51 -4.5l-40 169q-37 -3 -59.5 -13.5t-22.5 -33.5t16 -50.5t51 -70.5l35 -43q27 -34 39 -61t12 -63q0 -49 -24 -85t-60.5 -59.5t-81 -35t-85.5 -11.5zM43 -269q-38 0 -65.5 17.5t-27.5 41.5q0 11 5.5 19.5t14.5 12.5t20 3.5t21 -6.5l35 -65
q4 -7 6.5 -10.5t10.5 -3.5q23 0 43.5 12t20.5 35q0 21 -25.5 41.5t-72.5 41.5l160 130h15l-101 -82q74 -36 74 -86q0 -19 -9.5 -37t-27.5 -32.5t-42.5 -23t-54.5 -8.5z" />
    <glyph glyph-name="scircumflex" unicode="&#x15d;" horiz-adv-x="456" 
d="M129 -13q-32 0 -59.5 7.5t-47.5 21t-31.5 32t-11.5 41.5q0 22 11 39.5t29 30.5t40 20t44 8l57 -188q40 3 63.5 13.5t23.5 39.5q0 22 -18 49t-56 76l-28 36q-29 37 -43.5 69t-14.5 64q0 41 24.5 74t62 56.5t82.5 36t87 12.5q29 0 54.5 -7t44 -19.5t29 -29.5t10.5 -38
t-10.5 -37.5t-28.5 -28t-42 -17t-51 -4.5l-40 169q-37 -3 -59.5 -13.5t-22.5 -33.5t16 -50.5t51 -70.5l35 -43q27 -34 39 -61t12 -63q0 -49 -24 -85t-60.5 -59.5t-81 -35t-85.5 -11.5zM427 782h12l77 -203h-9l-104 72l-212 -72h-10z" />
    <glyph glyph-name="uni0219" unicode="&#x219;" horiz-adv-x="456" 
d="M129 -13q-32 0 -59.5 7.5t-47.5 21t-31.5 32t-11.5 41.5q0 22 11 39.5t29 30.5t40 20t44 8l57 -188q40 3 63.5 13.5t23.5 39.5q0 22 -18 49t-56 76l-28 36q-29 37 -43.5 69t-14.5 64q0 41 24.5 74t62 56.5t82.5 36t87 12.5q29 0 54.5 -7t44 -19.5t29 -29.5t10.5 -38
t-10.5 -37.5t-28.5 -28t-42 -17t-51 -4.5l-40 169q-37 -3 -59.5 -13.5t-22.5 -33.5t16 -50.5t51 -70.5l35 -43q27 -34 39 -61t12 -63q0 -49 -24 -85t-60.5 -59.5t-81 -35t-85.5 -11.5zM-33 -347q39 16 64.5 32t40.5 32.5t21 32.5t6 33q0 26 -19.5 46t-50.5 27q0 37 24.5 59
t58.5 22q38 0 64 -25t26 -68q0 -34 -18.5 -64t-50.5 -55.5t-74 -45.5t-88 -35z" />
    <glyph glyph-name="tbar" unicode="&#x167;" horiz-adv-x="499" 
d="M148 -13q-30 0 -53 9t-34.5 29.5t-9 53.5t22.5 81l100 236h-108l47 106h106l45 107h208l-44 -107h144l-47 -106h-141l-116 -280q-21 -51 -26 -71.5t6 -20.5q7 0 20.5 6t32.5 24.5t43.5 53t53.5 90.5l10 -5q-33 -63 -62 -103t-59 -63t-63.5 -31.5t-75.5 -8.5zM47 346h458
l-22 -51h-459z" />
    <glyph glyph-name="tcaron" unicode="&#x165;" horiz-adv-x="459" 
d="M128 -13q-30 0 -53 9t-34.5 29.5t-9 53.5t22.5 81l100 236h-108l47 106h106l45 107h208l-44 -107h144l-47 -106h-141l-116 -280q-21 -51 -26 -71.5t6 -20.5q7 0 20.5 6t32.5 24.5t43.5 53t53.5 90.5l10 -5q-33 -63 -62 -103t-59 -63t-63.5 -31.5t-75.5 -8.5zM539 547
q39 16 62.5 32t37 32.5t18 34t4.5 35.5q0 23 -14.5 42.5t-45.5 26.5q0 37 24.5 59t58.5 22q38 0 64 -25t26 -68q0 -34 -18.5 -64t-50.5 -55.5t-74 -45.5t-88 -35z" />
    <glyph glyph-name="uni0163" unicode="&#x163;" horiz-adv-x="459" 
d="M128 -13q-30 0 -53 9t-34.5 29.5t-9 53.5t22.5 81l100 236h-108l47 106h106l45 107h208l-44 -107h144l-47 -106h-141l-116 -280q-21 -51 -26 -71.5t6 -20.5q7 0 20.5 6t32.5 24.5t43.5 53t53.5 90.5l10 -5q-33 -63 -62 -103t-59 -63t-63.5 -31.5t-75.5 -8.5zM-87 -347
q39 16 64.5 32t40.5 32.5t21 32.5t6 33q0 26 -19.5 46t-50.5 27q0 37 24.5 59t58.5 22q38 0 64 -25t26 -68q0 -34 -18.5 -64t-50.5 -55.5t-74 -45.5t-88 -35z" />
    <glyph glyph-name="uni021B" unicode="&#x21b;" horiz-adv-x="459" 
d="M128 -13q-30 0 -53 9t-34.5 29.5t-9 53.5t22.5 81l100 236h-108l47 106h106l45 107h208l-44 -107h144l-47 -106h-141l-116 -280q-21 -51 -26 -71.5t6 -20.5q7 0 20.5 6t32.5 24.5t43.5 53t53.5 90.5l10 -5q-33 -63 -62 -103t-59 -63t-63.5 -31.5t-75.5 -8.5zM-87 -347
q39 16 64.5 32t40.5 32.5t21 32.5t6 33q0 26 -19.5 46t-50.5 27q0 37 24.5 59t58.5 22q38 0 64 -25t26 -68q0 -34 -18.5 -64t-50.5 -55.5t-74 -45.5t-88 -35z" />
    <glyph glyph-name="ubreve" unicode="&#x16d;" horiz-adv-x="666" 
d="M418 374h-2q-32 -67 -60.5 -118t-54.5 -96q-22 -37 -42 -68.5t-42.5 -55t-49.5 -36.5t-62 -13q-33 0 -57 14t-34.5 42t-5.5 69.5t30 96.5l122 266l-73 -9l4 11l298 35l-171 -385q-20 -45 -28.5 -66.5t2.5 -21.5q14 0 44 43t71 112q25 43 48.5 88t43.5 85t34.5 71.5
t21.5 48.5l213 25l-148 -396q-19 -51 -25 -71.5t5 -20.5q7 0 20.5 6t32.5 24.5t43.5 53t53.5 90.5l10 -5q-33 -63 -61 -103t-57.5 -63t-63.5 -31.5t-78 -8.5q-30 0 -51 8.5t-31 29t-6.5 53.5t22.5 82zM461 598q-21 0 -47 6.5t-47 24.5t-31.5 49t0.5 80h54q-8 -54 11.5 -82.5
t70.5 -28.5q45 0 79 29t50 82h56q-16 -51 -39.5 -82t-50.5 -48.5t-54.5 -23.5t-51.5 -6z" />
    <glyph glyph-name="uhungarumlaut" unicode="&#x171;" horiz-adv-x="666" 
d="M418 374h-2q-32 -67 -60.5 -118t-54.5 -96q-22 -37 -42 -68.5t-42.5 -55t-49.5 -36.5t-62 -13q-33 0 -57 14t-34.5 42t-5.5 69.5t30 96.5l122 266l-73 -9l4 11l298 35l-171 -385q-20 -45 -28.5 -66.5t2.5 -21.5q14 0 44 43t71 112q25 43 48.5 88t43.5 85t34.5 71.5
t21.5 48.5l213 25l-148 -396q-19 -51 -25 -71.5t5 -20.5q7 0 20.5 6t32.5 24.5t43.5 53t53.5 90.5l10 -5q-33 -63 -61 -103t-57.5 -63t-63.5 -31.5t-78 -8.5q-30 0 -51 8.5t-31 29t-6.5 53.5t22.5 82zM410 758h201l-1 -3l-285 -176h-12zM639 758h201l-1 -3l-285 -176h-12z
" />
    <glyph glyph-name="umacron" unicode="&#x16b;" horiz-adv-x="666" 
d="M418 374h-2q-32 -67 -60.5 -118t-54.5 -96q-22 -37 -42 -68.5t-42.5 -55t-49.5 -36.5t-62 -13q-33 0 -57 14t-34.5 42t-5.5 69.5t30 96.5l122 266l-73 -9l4 11l298 35l-171 -385q-20 -45 -28.5 -66.5t2.5 -21.5q14 0 44 43t71 112q25 43 48.5 88t43.5 85t34.5 71.5
t21.5 48.5l213 25l-148 -396q-19 -51 -25 -71.5t5 -20.5q7 0 20.5 6t32.5 24.5t43.5 53t53.5 90.5l10 -5q-33 -63 -61 -103t-57.5 -63t-63.5 -31.5t-78 -8.5q-30 0 -51 8.5t-31 29t-6.5 53.5t22.5 82zM324 705h310l-25 -68h-310z" />
    <glyph glyph-name="uogonek" unicode="&#x173;" horiz-adv-x="666" 
d="M418 374h-2q-32 -67 -60.5 -118t-54.5 -96q-22 -37 -42 -68.5t-42.5 -55t-49.5 -36.5t-62 -13q-33 0 -57 14t-34.5 42t-5.5 69.5t30 96.5l122 266l-73 -9l4 11l298 35l-171 -385q-20 -45 -28.5 -66.5t2.5 -21.5q14 0 44 43t71 112q25 43 48.5 88t43.5 85t34.5 71.5
t21.5 48.5l213 25l-148 -396q-19 -51 -25 -71.5t5 -20.5q7 0 20.5 6t32.5 24.5t43.5 53t53.5 90.5l10 -5q-27 -53 -51.5 -89t-48.5 -60t-49.5 -36.5t-56.5 -16.5q-42 -21 -65 -50.5t-23 -63.5q0 -24 14 -36.5t37 -12.5q16 0 29 4.5t29 15.5l6 -8q-11 -12 -25 -25t-31.5 -24
t-38 -18t-44.5 -7q-40 0 -64 21t-24 57q0 25 13 46.5t36 39.5t54.5 32t67.5 26q-6 -1 -12.5 -1h-12.5q-30 0 -51 8.5t-31 29t-6.5 53.5t22.5 82z" />
    <glyph glyph-name="uring" unicode="&#x16f;" horiz-adv-x="666" 
d="M418 374h-2q-32 -67 -60.5 -118t-54.5 -96q-22 -37 -42 -68.5t-42.5 -55t-49.5 -36.5t-62 -13q-33 0 -57 14t-34.5 42t-5.5 69.5t30 96.5l122 266l-73 -9l4 11l298 35l-171 -385q-20 -45 -28.5 -66.5t2.5 -21.5q14 0 44 43t71 112q25 43 48.5 88t43.5 85t34.5 71.5
t21.5 48.5l213 25l-148 -396q-19 -51 -25 -71.5t5 -20.5q7 0 20.5 6t32.5 24.5t43.5 53t53.5 90.5l10 -5q-33 -63 -61 -103t-57.5 -63t-63.5 -31.5t-78 -8.5q-30 0 -51 8.5t-31 29t-6.5 53.5t22.5 82zM362 706q0 23 9.5 43.5t25 35.5t36.5 24t45 9t45.5 -9t37.5 -24
t25.5 -35.5t9.5 -43.5q0 -24 -9.5 -44.5t-25.5 -35.5t-37.5 -23.5t-45.5 -8.5t-45 8.5t-36.5 23.5t-25 35.5t-9.5 44.5zM544 705q0 32 -17 50.5t-49 18.5q-31 0 -48 -18.5t-17 -50.5q0 -30 17 -48.5t48 -18.5q32 0 49 18.5t17 48.5z" />
    <glyph glyph-name="utilde" unicode="&#x169;" horiz-adv-x="666" 
d="M418 374h-2q-32 -67 -60.5 -118t-54.5 -96q-22 -37 -42 -68.5t-42.5 -55t-49.5 -36.5t-62 -13q-33 0 -57 14t-34.5 42t-5.5 69.5t30 96.5l122 266l-73 -9l4 11l298 35l-171 -385q-20 -45 -28.5 -66.5t2.5 -21.5q14 0 44 43t71 112q25 43 48.5 88t43.5 85t34.5 71.5
t21.5 48.5l213 25l-148 -396q-19 -51 -25 -71.5t5 -20.5q7 0 20.5 6t32.5 24.5t43.5 53t53.5 90.5l10 -5q-33 -63 -61 -103t-57.5 -63t-63.5 -31.5t-78 -8.5q-30 0 -51 8.5t-31 29t-6.5 53.5t22.5 82zM292 601q7 55 18.5 88.5t26.5 51.5t33 23.5t36 5.5q19 0 40 -10.5
t42.5 -23.5t43 -23.5t41.5 -10.5q23 0 41 13t27 52h10q-5 -55 -17.5 -88t-28.5 -51t-33 -24t-32 -6q-24 0 -45 10.5t-41.5 23.5t-40 23.5t-40.5 10.5q-24 0 -42 -12.5t-29 -52.5h-10z" />
    <glyph glyph-name="uni1EE5" unicode="&#x1ee5;" horiz-adv-x="666" 
d="M418 374h-2q-32 -67 -60.5 -118t-54.5 -96q-22 -37 -42 -68.5t-42.5 -55t-49.5 -36.5t-62 -13q-33 0 -57 14t-34.5 42t-5.5 69.5t30 96.5l122 266l-73 -9l4 11l298 35l-171 -385q-20 -45 -28.5 -66.5t2.5 -21.5q14 0 44 43t71 112q25 43 48.5 88t43.5 85t34.5 71.5
t21.5 48.5l213 25l-148 -396q-19 -51 -25 -71.5t5 -20.5q7 0 20.5 6t32.5 24.5t43.5 53t53.5 90.5l10 -5q-33 -63 -61 -103t-57.5 -63t-63.5 -31.5t-78 -8.5q-30 0 -51 8.5t-31 29t-6.5 53.5t22.5 82zM162 -247q-35 0 -59 24.5t-24 60.5t24 60.5t59 24.5q36 0 59.5 -24.5
t23.5 -60.5t-23.5 -60.5t-59.5 -24.5z" />
    <glyph glyph-name="wacute" unicode="&#x1e83;" horiz-adv-x="843" 
d="M203 -13q-63 0 -101.5 33.5t-38.5 90.5q0 33 15 62.5t41.5 57t62.5 52.5t78 49h-211l-47 -83h-12l137 253h306q-34 -31 -68 -63t-61.5 -64.5t-44.5 -63.5t-17 -61q0 -31 10 -52t27.5 -34t40 -19t47.5 -6h13.5t13.5 1q-5 19 -6.5 38.5t-1.5 39.5q0 62 12 118t33 98
t50.5 66.5t64.5 24.5q26 0 43.5 -18t17.5 -68q0 -54 -16 -111t-49 -112q-11 -18 -23.5 -35t-26.5 -34q29 -8 60 -8q43 0 83 14.5t73.5 38.5t57.5 56.5t35 68.5l-150 94q-6 23 -4 43.5t12.5 36.5t27.5 25t41 9q15 0 30.5 -4t27.5 -17t19.5 -37t7.5 -63q0 -75 -11.5 -150
t-39.5 -134t-75.5 -96t-119.5 -37q-57 0 -93 24.5t-57 62.5q-49 -40 -104 -63.5t-110 -23.5zM398 281q0 -45 17.5 -75.5t49.5 -47.5q23 11 39.5 26t27.5 32q16 25 22 50.5t6 45.5q0 38 -18.5 55.5t-50.5 17.5q-38 0 -65.5 -25t-27.5 -79zM614 758h201l-1 -3l-283 -176h-12z
" />
    <glyph glyph-name="wcircumflex" unicode="&#x175;" horiz-adv-x="843" 
d="M203 -13q-63 0 -101.5 33.5t-38.5 90.5q0 33 15 62.5t41.5 57t62.5 52.5t78 49h-211l-47 -83h-12l137 253h306q-34 -31 -68 -63t-61.5 -64.5t-44.5 -63.5t-17 -61q0 -31 10 -52t27.5 -34t40 -19t47.5 -6h13.5t13.5 1q-5 19 -6.5 38.5t-1.5 39.5q0 62 12 118t33 98
t50.5 66.5t64.5 24.5q26 0 43.5 -18t17.5 -68q0 -54 -16 -111t-49 -112q-11 -18 -23.5 -35t-26.5 -34q29 -8 60 -8q43 0 83 14.5t73.5 38.5t57.5 56.5t35 68.5l-150 94q-6 23 -4 43.5t12.5 36.5t27.5 25t41 9q15 0 30.5 -4t27.5 -17t19.5 -37t7.5 -63q0 -75 -11.5 -150
t-39.5 -134t-75.5 -96t-119.5 -37q-57 0 -93 24.5t-57 62.5q-49 -40 -104 -63.5t-110 -23.5zM398 281q0 -45 17.5 -75.5t49.5 -47.5q23 11 39.5 26t27.5 32q16 25 22 50.5t6 45.5q0 38 -18.5 55.5t-50.5 17.5q-38 0 -65.5 -25t-27.5 -79zM637 782h12l77 -203h-9l-104 72
l-212 -72h-10z" />
    <glyph glyph-name="wdieresis" unicode="&#x1e85;" horiz-adv-x="843" 
d="M203 -13q-63 0 -101.5 33.5t-38.5 90.5q0 33 15 62.5t41.5 57t62.5 52.5t78 49h-211l-47 -83h-12l137 253h306q-34 -31 -68 -63t-61.5 -64.5t-44.5 -63.5t-17 -61q0 -31 10 -52t27.5 -34t40 -19t47.5 -6h13.5t13.5 1q-5 19 -6.5 38.5t-1.5 39.5q0 62 12 118t33 98
t50.5 66.5t64.5 24.5q26 0 43.5 -18t17.5 -68q0 -54 -16 -111t-49 -112q-11 -18 -23.5 -35t-26.5 -34q29 -8 60 -8q43 0 83 14.5t73.5 38.5t57.5 56.5t35 68.5l-150 94q-6 23 -4 43.5t12.5 36.5t27.5 25t41 9q15 0 30.5 -4t27.5 -17t19.5 -37t7.5 -63q0 -75 -11.5 -150
t-39.5 -134t-75.5 -96t-119.5 -37q-57 0 -93 24.5t-57 62.5q-49 -40 -104 -63.5t-110 -23.5zM398 281q0 -45 17.5 -75.5t49.5 -47.5q23 11 39.5 26t27.5 32q16 25 22 50.5t6 45.5q0 38 -18.5 55.5t-50.5 17.5q-38 0 -65.5 -25t-27.5 -79zM706 603q-35 0 -59 24.5t-24 60.5
t24 60.5t59 24.5q36 0 59.5 -24.5t23.5 -60.5t-23.5 -60.5t-59.5 -24.5zM467 602q-35 0 -59 24.5t-24 60.5t24 60.5t59 24.5q36 0 59.5 -24.5t23.5 -60.5t-23.5 -60.5t-59.5 -24.5z" />
    <glyph glyph-name="wgrave" unicode="&#x1e81;" horiz-adv-x="843" 
d="M203 -13q-63 0 -101.5 33.5t-38.5 90.5q0 33 15 62.5t41.5 57t62.5 52.5t78 49h-211l-47 -83h-12l137 253h306q-34 -31 -68 -63t-61.5 -64.5t-44.5 -63.5t-17 -61q0 -31 10 -52t27.5 -34t40 -19t47.5 -6h13.5t13.5 1q-5 19 -6.5 38.5t-1.5 39.5q0 62 12 118t33 98
t50.5 66.5t64.5 24.5q26 0 43.5 -18t17.5 -68q0 -54 -16 -111t-49 -112q-11 -18 -23.5 -35t-26.5 -34q29 -8 60 -8q43 0 83 14.5t73.5 38.5t57.5 56.5t35 68.5l-150 94q-6 23 -4 43.5t12.5 36.5t27.5 25t41 9q15 0 30.5 -4t27.5 -17t19.5 -37t7.5 -63q0 -75 -11.5 -150
t-39.5 -134t-75.5 -96t-119.5 -37q-57 0 -93 24.5t-57 62.5q-49 -40 -104 -63.5t-110 -23.5zM398 281q0 -45 17.5 -75.5t49.5 -47.5q23 11 39.5 26t27.5 32q16 25 22 50.5t6 45.5q0 38 -18.5 55.5t-50.5 17.5q-38 0 -65.5 -25t-27.5 -79zM557 579l-152 176l1 3h174l-14 -179
h-9z" />
    <glyph glyph-name="ycircumflex" unicode="&#x177;" horiz-adv-x="566" 
d="M93 -248h-226l251 286l-9 441l-73 -10l4 11l272 32l3 -486l204 278l-108 128q3 24 13 42t24.5 29t32 16.5t35.5 5.5q33 0 59.5 -17t26.5 -58q0 -23 -16 -61t-54 -89l-216 -292zM467 782h12l77 -203h-9l-104 72l-212 -72h-10z" />
    <glyph glyph-name="ygrave" unicode="&#x1ef3;" horiz-adv-x="566" 
d="M93 -248h-226l251 286l-9 441l-73 -10l4 11l272 32l3 -486l204 278l-108 128q3 24 13 42t24.5 29t32 16.5t35.5 5.5q33 0 59.5 -17t26.5 -58q0 -23 -16 -61t-54 -89l-216 -292zM387 579l-152 176l1 3h174l-14 -179h-9z" />
    <glyph glyph-name="uni0233" unicode="&#x233;" horiz-adv-x="566" 
d="M93 -248h-226l251 286l-9 441l-73 -10l4 11l272 32l3 -486l204 278l-108 128q3 24 13 42t24.5 29t32 16.5t35.5 5.5q33 0 59.5 -17t26.5 -58q0 -23 -16 -61t-54 -89l-216 -292zM268 705h310l-25 -68h-310z" />
    <glyph glyph-name="zacute" unicode="&#x17a;" horiz-adv-x="563" 
d="M70 1q-14 -10 -34 -13t-38 0.5t-31 14t-13 27.5q0 14 13.5 34.5t50.5 44.5l344 223h-265l-49 -83h-10l137 253h465l-318 -206l71 -180q15 -37 24.5 -60t17 -36t14 -17.5t13.5 -4.5q11 0 23 10t18.5 31t4.5 53.5t-19 78.5l10 3q36 -101 8.5 -152.5t-116.5 -51.5
q-41 0 -73 9t-59.5 28.5t-52 49t-49.5 70.5l-27 44l-47 -30q-10 -6 -14.5 -14.5t-5.5 -23.5t1 -39.5t6 -62.5zM459 758h201l-1 -3l-283 -176h-12z" />
    <glyph glyph-name="zcaron" unicode="&#x17e;" horiz-adv-x="563" 
d="M70 1q-14 -10 -34 -13t-38 0.5t-31 14t-13 27.5q0 14 13.5 34.5t50.5 44.5l344 223h-265l-49 -83h-10l137 253h465l-318 -206l71 -180q15 -37 24.5 -60t17 -36t14 -17.5t13.5 -4.5q11 0 23 10t18.5 31t4.5 53.5t-19 78.5l10 3q36 -101 8.5 -152.5t-116.5 -51.5
q-41 0 -73 9t-59.5 28.5t-52 49t-49.5 70.5l-27 44l-47 -30q-10 -6 -14.5 -14.5t-5.5 -23.5t1 -39.5t6 -62.5zM284 782h9l104 -72l212 72h10l-246 -203h-12z" />
    <glyph glyph-name="zdotaccent" unicode="&#x17c;" horiz-adv-x="563" 
d="M70 1q-14 -10 -34 -13t-38 0.5t-31 14t-13 27.5q0 14 13.5 34.5t50.5 44.5l344 223h-265l-49 -83h-10l137 253h465l-318 -206l71 -180q15 -37 24.5 -60t17 -36t14 -17.5t13.5 -4.5q11 0 23 10t18.5 31t4.5 53.5t-19 78.5l10 3q36 -101 8.5 -152.5t-116.5 -51.5
q-41 0 -73 9t-59.5 28.5t-52 49t-49.5 70.5l-27 44l-47 -30q-10 -6 -14.5 -14.5t-5.5 -23.5t1 -39.5t6 -62.5zM431 603q-35 0 -59 24.5t-24 60.5t24 60.5t59 24.5q36 0 59.5 -24.5t23.5 -60.5t-23.5 -60.5t-59.5 -24.5z" />
    <glyph glyph-name="uni0259" unicode="&#x259;" horiz-adv-x="506" 
d="M335.979 524.968q46.9971 0 79.9951 -12.499t53.9971 -33.998q20.998 -21.499 30.998 -51.4971q9.99902 -29.998 8.99902 -64.9961q-2 -65.9951 -35.998 -132.991t-87.9941 -120.493q-53.9971 -53.4961 -121.493 -87.4941q-67.4951 -33.998 -138.491 -33.998
q-28.998 0 -53.9961 6.99902q-24.999 7 -42.498 19.499t-27.498 29.998q-10 17.499 -9 38.498q1 17.999 7.5 35.998t16.999 33.9971q10.499 16 24.998 28.999t30.498 19.998l205.988 9q5.99902 25.998 8.99902 52.4971q3 26.498 4 52.4961q2 32.998 -1.5 62.9961
t-11.999 52.4971q-8.5 22.499 -21.499 35.498t-30.998 12.999q-39.998 0 -81.9951 -45.4971t-73.9951 -134.492l-10 3q17.999 53.9971 41.998 95.4941q23.998 41.498 56.9961 69.9961t76.4951 42.9971q43.498 14.499 100.494 14.499zM125.992 -4q26.998 0 50.4971 16.999
t42.4971 45.4971q18.999 28.499 33.998 65.4961q14.999 36.998 23.999 76.9951q-30.998 -1.99902 -63.4961 -20.998t-58.9971 -45.4971q-26.498 -26.499 -43.9971 -55.4971t-18.499 -51.9971q0 -30.998 33.998 -30.998z" />
    <glyph glyph-name="uni0410" unicode="&#x410;" horiz-adv-x="884" 
d="M-163 10h83l997 787h7l-241 -787h83l-3 -10h-399l3 10h83l80 262h-261l-332 -262h92l-3 -10h-192zM551 340l63 204l-259 -204h196z" />
    <glyph glyph-name="uni0411" unicode="&#x411;" horiz-adv-x="833" 
d="M516 748l-101 -329h76q68 0 125 -9.5t98 -29.5t63.5 -51.5t22.5 -76.5q0 -123 -113.5 -187.5t-322.5 -64.5h-394l3 10h83l227 738h-83l3 10h650l-19 -237h-6l-135 203q-11 17 -19 20.5t-29 3.5h-129zM549 278q0 63 -30 97t-91 34h-16l-123 -399h16q53 0 97.5 22t77 58.5
t51 85t18.5 102.5z" />
    <glyph glyph-name="uni0412" unicode="&#x412;" horiz-adv-x="867" 
d="M595 758q148 0 217.5 -32.5t69.5 -96.5q0 -37 -18 -73t-59 -66t-108.5 -51.5t-167.5 -28.5v-2q43 0 95 -5.5t98 -22t77 -46t31 -76.5q0 -41 -22 -86t-74.5 -83.5t-141 -63.5t-221.5 -25h-401l3 10h83l226 738h-83l3 10h393zM454 409q42 0 76.5 25t59 62t38.5 80.5
t14 81.5q0 42 -20 66t-64 24h-43l-104 -339h43zM336 10q57 0 102.5 26t77 66.5t48 89t16.5 94.5q0 58 -33.5 85.5t-92.5 27.5h-46l-119 -389h47z" />
    <glyph glyph-name="uni0413" unicode="&#x413;" horiz-adv-x="761" 
d="M-27 10h83l226 738h-83l3 10h652l-19 -237h-6l-126 203q-10 16 -18 20t-29 4h-141l-226 -738h125l-3 -10h-441z" />
    <glyph glyph-name="uni0414" unicode="&#x414;" horiz-adv-x="812" 
d="M-56 10h101q44 61 90.5 145.5t91.5 182t85.5 203t73.5 207.5h-93l3 10h626l-3 -10h-83l-227 -738h108l-62 -237h-6l-96 209q-5 11 -12.5 14.5t-24.5 3.5h-377q-17 0 -26.5 -3.5t-22.5 -14.5l-224 -209h-6zM400 748q-36 -111 -77.5 -217.5t-85 -202t-88.5 -177t-88 -141.5
h315l227 738h-203z" />
    <glyph glyph-name="uni0415" unicode="&#x415;" horiz-adv-x="818" 
d="M-27 10h83l226 738h-83l3 10h615l-19 -237h-6l-126 203q-11 16 -18.5 20t-28.5 4h-104l-109 -356h91q12 0 18 3.5t16 15.5l103 131h6l-95 -310h-6l-23 131q-2 12 -6 15.5t-16 3.5h-91l-114 -372h153q10 0 17.5 1t13.5 3.5t12.5 6.5t14.5 11l301 249h6l-154 -281h-683z
" />
    <glyph glyph-name="uni0401" unicode="&#x401;" horiz-adv-x="818" 
d="M-31 10h83l226 738h-83l3 10h615l-19 -237h-6l-126 203q-11 16 -18.5 20t-28.5 4h-104l-109 -356h91q12 0 18 3.5t16 15.5l103 131h6l-95 -310h-6l-23 131q-2 12 -6 15.5t-16 3.5h-91l-114 -372h153q10 0 17.5 1t13.5 3.5t12.5 6.5t14.5 11l301 249h6l-154 -281h-683z
M487 840q-35 0 -59 24.5t-24 60.5t24 60.5t59 24.5q36 0 59.5 -24.5t23.5 -60.5t-23.5 -60.5t-59.5 -24.5zM747 840q-35 0 -59 24.5t-24 60.5t24 60.5t59 24.5q36 0 59.5 -24.5t23.5 -60.5t-23.5 -60.5t-59.5 -24.5z" />
    <glyph glyph-name="uni0416" unicode="&#x416;" horiz-adv-x="1287" 
d="M-66 0l375 404h269l-252 344h-114l3 10h245l-3 -10h-112l242 -332l102 332h-83l3 10h399l-3 -10h-83l-102 -331l446 331h-112l3 10h245l-3 -10h-116l-464 -344h241l127 -404h-257l-120 383l-115 -373h53l-3 -10h-339l3 10h53l115 373l-356 -383h-287z" />
    <glyph glyph-name="uni0417" unicode="&#x417;" horiz-adv-x="788" 
d="M274 -1q49 0 87 21t64 55t40 75.5t14 82.5q0 72 -34.5 115t-108.5 43h-78l3 10h78q55 0 97 24.5t70.5 63.5t43 86.5t14.5 92.5q0 42 -16 69.5t-48 27.5q-33 0 -68 -15.5t-75.5 -50.5t-88.5 -92t-108 -139h-6l143 308h6l33 -60q42 27 92.5 45t125.5 18q65 0 112 -11.5
t77.5 -30.5t45 -45t14.5 -54q0 -40 -26 -81.5t-73.5 -75.5t-115 -57t-151.5 -25l-1 -2q301 -5 301 -179q0 -42 -28 -83t-84.5 -74t-141.5 -53.5t-200 -20.5q-52 0 -95.5 15.5t-72.5 47.5l-70 -60h-6l47 308h6q9 -84 24.5 -141.5t38 -92.5t52.5 -50t67 -15z" />
    <glyph glyph-name="uni0418" unicode="&#x418;" horiz-adv-x="993" 
d="M369 0h-399l3 10h83l227 738h-83l3 10h399l-3 -10h-83l-200 -651l453 601l15 50h-83l3 10h399l-3 -10h-83l-227 -738h83l-3 -10h-399l3 10h83l200 651l-453 -601l-15 -50h83z" />
    <glyph glyph-name="uni0419" unicode="&#x419;" horiz-adv-x="993" 
d="M369 0h-399l3 10h83l227 738h-83l3 10h399l-3 -10h-83l-200 -651l453 601l15 50h-83l3 10h399l-3 -10h-83l-227 -738h83l-3 -10h-399l3 10h83l200 651l-453 -601l-15 -50h83zM687 837q-48 0 -79.5 13t-49.5 35t-22 51t4 61h126q-24 -79 -20.5 -114.5t41.5 -35.5
q39 0 61 35.5t46 114.5h126q-11 -39 -34 -69t-54 -50t-68.5 -30.5t-76.5 -10.5z" />
    <glyph glyph-name="uni041A" unicode="&#x41a;" horiz-adv-x="910" 
d="M369 0h-399l3 10h83l226 738h-83l3 10h399l-3 -10h-83l-106 -345l480 345h-112l3 10h245l-3 -10h-115l-493 -354h242l217 -394h-259l-211 383l-114 -373h83z" />
    <glyph glyph-name="uni041B" unicode="&#x41b;" horiz-adv-x="878" 
d="M181 72q-34 -44 -68 -64.5t-74 -20.5q-32 0 -50.5 19.5t-18.5 46.5q0 21 11 42.5t35 39.5t61.5 29.5t89.5 11.5q40 0 60 -5q28 51 55 117.5t54 141.5t53 156l52 162h-103l3 10h647l-3 -10h-83l-227 -738h83l-3 -10h-399l3 10h83l227 738h-214q-37 -112 -70 -213.5
t-66 -188t-67 -156t-71 -118.5z" />
    <glyph glyph-name="uni041C" unicode="&#x41c;" horiz-adv-x="1055" 
d="M-60 10h97l220 599l-28 149h236l82 -450l286 450h315l-3 -10h-96l-182 -738h96l-3 -10h-429l3 10h96l164 666l-420 -660h-6l-107 572l-212 -578h96l-3 -10h-205z" />
    <glyph glyph-name="uni041D" unicode="&#x41d;" horiz-adv-x="986" 
d="M369 0h-399l3 10h83l226 738h-83l3 10h399l-3 -10h-83l-98 -321h262l98 321h-83l3 10h399l-3 -10h-83l-226 -738h83l-3 -10h-399l3 10h83l107 349h-262l-107 -349h83z" />
    <glyph glyph-name="uni041E" unicode="&#x41e;" horiz-adv-x="940" 
d="M637 779q70 0 128.5 -20.5t101 -59t66 -93t23.5 -122.5q0 -56 -18 -114.5t-52.5 -113.5t-84 -104t-113 -85.5t-139.5 -58t-163 -21.5q-70 0 -128.5 20.5t-101 59t-66 93t-23.5 122.5q0 56 18 114.5t52.5 113.5t84 104t113 85.5t139.5 58t163 21.5zM604 769q-41 0 -78 -22
t-68.5 -60.5t-57.5 -92t-44 -116t-28 -132.5t-10 -142q0 -57 6 -96t18.5 -64t31.5 -36t45 -11q41 0 78 22t68.5 60.5t57.5 92t44 116t28 132.5t10 142q0 113 -24.5 160t-76.5 47z" />
    <glyph glyph-name="uni041F" unicode="&#x41f;" horiz-adv-x="973" 
d="M764 748h-248l-227 -738h83l-3 -10h-399l3 10h83l227 738h-83l3 10h880l-3 -10h-83l-227 -738h83l-3 -10h-399l3 10h83z" />
    <glyph glyph-name="uni0420" unicode="&#x420;" horiz-adv-x="842" 
d="M-27 10h83l226 738h-83l3 10h375q83 0 148.5 -8t110.5 -26t69 -48t24 -75q0 -50 -23 -98t-78.5 -86t-148.5 -61.5t-232 -23.5h-30l3 10h30q56 0 99.5 29.5t73 73.5t45 93.5t15.5 90.5q0 60 -25 89.5t-84 29.5h-59l-226 -738h113l-3 -10h-429z" />
    <glyph glyph-name="uni0421" unicode="&#x421;" horiz-adv-x="868" 
d="M453 -13q-93 0 -164.5 22t-120 61.5t-73.5 95t-25 122.5q0 102 46.5 191.5t126 156t185.5 105t225 38.5q68 0 117 -17.5t77 -45.5l72 60h6l-58 -308h-6q-7 86 -21 143.5t-37.5 92.5t-58 50t-82.5 15q-68 0 -131 -42.5t-112.5 -113.5t-79 -165t-29.5 -197q0 -51 7 -97
t23.5 -81t44 -55.5t68.5 -20.5q55 0 96.5 15t83.5 50.5t90.5 93t117.5 142.5h6l-154 -308h-6l-24 49q-50 -29 -106 -40.5t-104 -11.5z" />
    <glyph glyph-name="uni0422" unicode="&#x422;" horiz-adv-x="850" 
d="M132 10h103l226 738h-102q-17 0 -28 -4.5t-24 -19.5l-217 -248h-6l148 335h7l91 -53h501l123 53h7l-56 -335h-6l-61 248q-4 15 -11.5 19.5t-24.5 4.5h-108l-226 -738h103l-3 -10h-439z" />
    <glyph glyph-name="uni0423" unicode="&#x423;" horiz-adv-x="744" 
d="M387 162q-38 -48 -68 -81.5t-56 -54t-51.5 -30t-55.5 -9.5q-32 0 -47.5 18t-15.5 47q0 26 16.5 53t51 45t87 22.5t123.5 -13.5l10 14l-167 575h-67l3 10h397l-3 -10h-77l104 -336l267 336h-75l3 10h156l-3 -10h-67z" />
    <glyph glyph-name="uni0424" unicode="&#x424;" horiz-adv-x="1091" 
d="M681 -20h-431l3 10h99l30 97q-75 4 -137.5 18.5t-107.5 42t-69.5 69t-24.5 99.5q0 76 39 140.5t108.5 113t165 77t208.5 32.5l27 89h-99l3 10h431l-3 -10h-99l-27 -89q75 -4 137 -18.5t106.5 -42t69 -69t24.5 -99.5q0 -76 -39 -140.5t-108.5 -113t-164.5 -77t-207 -32.5
l-30 -97h99zM266 297q0 -91 32 -139.5t88 -58.5l174 569q-68 -4 -122 -39t-92.5 -87.5t-59 -117t-20.5 -127.5zM911 469q0 91 -31.5 139t-86.5 59l-175 -569q67 4 121.5 39t92.5 88t58.5 117t20.5 127z" />
    <glyph glyph-name="uni0425" unicode="&#x425;" horiz-adv-x="949" 
d="M95 0h-211l5 10h93l445 317l-75 421h-93l5 10h425l-5 -10h-93l48 -269l377 269h-94l5 10h211l-5 -10h-98l-394 -281l81 -457h93l-5 -10h-425l5 10h93l-54 305l-428 -305h99z" />
    <glyph glyph-name="uni0426" unicode="&#x426;" horiz-adv-x="973" 
d="M770 10h108l-62 -237h-6l-96 209q-5 11 -12.5 14.5t-24.5 3.5h-707l3 10h83l227 738h-83l3 10h399l-3 -10h-83l-227 -738h248l227 738h-83l3 10h399l-3 -10h-83z" />
    <glyph glyph-name="uni0427" unicode="&#x427;" horiz-adv-x="941" 
d="M263 748h-83l3 10h399l-3 -10h-83l-52 -168q-23 -74 -28.5 -121t4 -73t35 -35.5t64.5 -9.5q23 0 46 2.5t44 8.5l122 396h-83l3 10h400l-3 -10h-84l-227 -738h84l-3 -10h-420l3 10h103l102 330q-11 -2 -24 -4t-31.5 -3.5t-43.5 -2.5t-60 -1q-88 0 -143.5 14t-83 44
t-29 77.5t19.5 115.5z" />
    <glyph glyph-name="uni0428" unicode="&#x428;" horiz-adv-x="1398" 
d="M-30 0l3 10h83l227 738h-83l3 10h399l-3 -10h-83l-227 -738h220l227 738h-83l3 10h399l-3 -10h-83l-227 -738h220l227 738h-83l3 10h399l-3 -10h-83l-227 -738h83l-3 -10h-1305z" />
    <glyph glyph-name="uni0429" unicode="&#x429;" horiz-adv-x="1398" 
d="M1195 10h108l-62 -237h-6l-96 209q-5 11 -12.5 14.5t-24.5 3.5h-1132l3 10h83l227 738h-83l3 10h399l-3 -10h-83l-227 -738h220l227 738h-83l3 10h399l-3 -10h-83l-227 -738h220l227 738h-83l3 10h399l-3 -10h-83z" />
    <glyph glyph-name="uni042A" unicode="&#x42a;" horiz-adv-x="958" 
d="M544 443h76q68 0 124.5 -9.5t97.5 -30t63.5 -53t22.5 -78.5q0 -133 -115 -202.5t-327 -69.5h-394l3 10h83l227 738h-12q-11 0 -18 -0.5t-13.5 -3t-13.5 -7t-17 -13.5l-241 -203h-6l107 237h533l-3 -10h-83zM427 10q54 0 100 23.5t79 63t52 91.5t19 110q0 65 -30 100
t-90 35h-16l-130 -423h16z" />
    <glyph glyph-name="uni042B" unicode="&#x42b;" horiz-adv-x="1242" 
d="M422 443h76q68 0 124.5 -9.5t97.5 -30t63.5 -53t22.5 -78.5q0 -133 -115 -202.5t-327 -69.5h-394l3 10h83l227 738h-83l3 10h399l-3 -10h-83zM305 10q54 0 100 23.5t79 63t52 91.5t19 110q0 65 -30 100t-90 35h-16l-130 -423h16zM1120 0h-399l3 10h83l226 738h-83l3 10
h399l-3 -10h-83l-226 -738h83z" />
    <glyph glyph-name="uni042C" unicode="&#x42c;" horiz-adv-x="836" 
d="M422 443h76q68 0 124.5 -9.5t97.5 -30t63.5 -53t22.5 -78.5q0 -133 -115 -202.5t-327 -69.5h-394l3 10h83l227 738h-83l3 10h399l-3 -10h-83zM305 10q54 0 100 23.5t79 63t52 91.5t19 110q0 65 -30 100t-90 35h-16l-130 -423h16z" />
    <glyph glyph-name="uni042D" unicode="&#x42d;" horiz-adv-x="922" 
d="M573 779q88 0 156.5 -22t114.5 -62t70 -95t24 -122q0 -102 -47.5 -191.5t-128.5 -156t-189.5 -105t-229.5 -38.5q-23 0 -51 3.5t-55.5 11.5t-51.5 19.5t-39 28.5l-70 -60h-6l47 308h6q9 -87 28 -144.5t47.5 -92.5t65.5 -49.5t82 -14.5q56 0 110 30t99.5 81.5t79 122
t50.5 151.5h-182q-12 0 -18 -3.5t-16 -15.5l-104 -131h-6l96 310h6l22 -131q3 -12 7 -15.5t16 -3.5h181q5 30 8 60.5t3 62.5q0 51 -6.5 97t-22 81t-41 55.5t-64.5 20.5q-45 0 -89 -16.5t-91 -52.5t-98.5 -93.5t-110.5 -138.5h-6l143 308h6l33 -60q48 31 108.5 47t113.5 16z
" />
    <glyph glyph-name="uni042E" unicode="&#x42e;" horiz-adv-x="1320" 
d="M369 0h-399l3 10h83l227 738h-83l3 10h399l-3 -10h-83l-108 -352h77q22 72 69 141t116.5 123t159.5 86.5t197 32.5q68 0 124.5 -20.5t97.5 -59t64 -93t23 -122.5q0 -56 -17.5 -114.5t-51.5 -113.5t-83 -104t-111 -85.5t-137 -58t-160 -21.5q-68 0 -124.5 20.5t-97.5 59
t-64 93t-23 122.5q0 51 15 104h-78l-115 -376h83zM994 769q-39 0 -75 -22t-66.5 -60.5t-55.5 -92t-42.5 -116t-27 -132.5t-9.5 -142q0 -113 22 -160t69 -47q39 0 75 22t66.5 60.5t55.5 92t42.5 116t27 132.5t9.5 142q0 113 -22 160t-69 47z" />
    <glyph glyph-name="uni042F" unicode="&#x42f;" horiz-adv-x="911" 
d="M389 0l3 10h83l109 354h-19l-334 -364h-271l177 194q48 52 89.5 85t77 52t65.5 27t55 10l1 3q-100 11 -153.5 44.5t-53.5 101.5q0 56 30.5 100.5t88 76t140.5 48t188 16.5h356l-3 -10h-83l-227 -738h83l-3 -10h-399zM702 748h-20q-49 0 -89 -23t-68 -60t-43.5 -84.5
t-15.5 -96.5q0 -54 25 -82t76 -28h20z" />
    <glyph glyph-name="uni0402" unicode="&#x402;" horiz-adv-x="975" 
d="M122 10h103l226 738h-92q-17 0 -28 -4.5t-24 -19.5l-217 -248h-6l148 335h7l91 -53h501l123 53h7l-56 -315h-6l-61 228q-4 15 -11.5 19.5t-24.5 4.5h-118l-102 -333q16 3 41 6.5t73 3.5q72 0 126.5 -12t87.5 -38t43 -66t-6 -97l-2 -7q-14 -44 -37 -76t-55.5 -57.5
t-74 -47.5t-90.5 -45q-42 -20 -88 -40.5t-108 -48.5l-4 8q58 33 92 59.5t55.5 56.5t35.5 67.5t31 91.5l12 40q33 110 18 155t-72 45q-24 0 -46 -3t-36 -7l-120 -393h93l-3 -10h-429z" />
    <glyph glyph-name="uni0403" unicode="&#x403;" horiz-adv-x="761" 
d="M-27 10h83l226 738h-83l3 10h652l-19 -237h-6l-126 203q-10 16 -18 20t-29 4h-141l-226 -738h125l-3 -10h-441zM830 969l-290 -126h-12l94 129h210z" />
    <glyph glyph-name="uni0404" unicode="&#x404;" horiz-adv-x="868" 
d="M453 -13q-93 0 -164.5 22t-120 61.5t-73.5 95t-25 122.5q0 102 46.5 191.5t126 156t185.5 105t225 38.5q68 0 117 -17.5t77 -45.5l72 60h6l-58 -308h-6q-7 86 -21 143.5t-37.5 92.5t-58 50t-82.5 15q-56 0 -109.5 -29t-98.5 -80t-78.5 -120t-50.5 -148h215q12 0 18 3.5
t16 15.5l103 131h6l-95 -310h-6l-23 131q-2 12 -6 15.5t-16 3.5h-214q-13 -61 -13 -131q0 -51 7 -97t23.5 -81t44 -55.5t68.5 -20.5q55 0 96.5 15t83.5 50.5t90.5 93t117.5 142.5h6l-154 -308h-6l-24 49q-50 -29 -106 -40.5t-104 -11.5z" />
    <glyph glyph-name="uni0405" unicode="&#x405;" horiz-adv-x="672" 
d="M258 -13q-57 0 -111 14.5t-86 46.5l-58 -48h-5l69 319h6q0 -89 9.5 -150.5t30.5 -99.5t55 -55t85 -17q44 0 75.5 8.5t52 22.5t30.5 32.5t10 38.5q0 39 -22.5 74.5t-62.5 79.5l-54 60q-49 54 -76.5 107t-27.5 116q0 51 25 95t67.5 77t99 52t118.5 19q57 0 103 -14t79 -46
l59 49h4l-62 -292h-7q-3 91 -15.5 148t-34.5 89.5t-53 44t-70 11.5q-78 0 -117.5 -27.5t-39.5 -65.5q0 -24 10.5 -46.5t26.5 -44t34.5 -41.5t34.5 -38l52 -58q31 -35 52.5 -63.5t35 -53.5t19.5 -48.5t6 -50.5q0 -52 -25.5 -96.5t-71.5 -77.5t-110 -52t-140 -19z" />
    <glyph glyph-name="uni0406" unicode="&#x406;" horiz-adv-x="491" 
d="M369 0h-399l3 10h83l226 738h-83l3 10h399l-3 -10h-83l-226 -738h83z" />
    <glyph glyph-name="uni0407" unicode="&#x407;" horiz-adv-x="491" 
d="M365 0h-399l3 10h83l226 738h-83l3 10h399l-3 -10h-83l-226 -738h83zM326 840q-35 0 -59 24.5t-24 60.5t24 60.5t59 24.5q36 0 59.5 -24.5t23.5 -60.5t-23.5 -60.5t-59.5 -24.5zM586 840q-35 0 -59 24.5t-24 60.5t24 60.5t59 24.5q36 0 59.5 -24.5t23.5 -60.5
t-23.5 -60.5t-59.5 -24.5z" />
    <glyph glyph-name="uni0408" unicode="&#x408;" horiz-adv-x="546" 
d="M82 -143q-37 0 -68.5 10t-54 27t-35.5 40.5t-13 49.5q0 29 15 51t38 34.5t51.5 16t55.5 -5.5q-2 -55 3 -93.5t15.5 -63t26.5 -36t36 -11.5q37 0 56 27t19 75q0 19 -5 39t-15 38t-25 33t-34 24l195 636h-83l3 10h399l-3 -10h-83l-183 -598q-25 -83 -58.5 -139t-73 -90.5
t-85 -49t-94.5 -14.5z" />
    <glyph glyph-name="uni0409" unicode="&#x409;" horiz-adv-x="1210" 
d="M796 443h76q68 0 124.5 -9.5t97.5 -30t63.5 -53t22.5 -78.5q0 -133 -115 -202.5t-327 -69.5h-394l3 10h83l227 738h-202q-37 -112 -70 -213.5t-66 -188t-67 -156t-71 -118.5q-34 -44 -68 -64.5t-74 -20.5q-32 0 -50.5 19.5t-18.5 46.5q0 21 11 42.5t35 39.5t61.5 29.5
t89.5 11.5q40 0 60 -5q28 51 55 117.5t54 141.5t53 156l52 162h-103l3 10h635l-3 -10h-83zM679 10q54 0 100 23.5t79 63t52 91.5t19 110q0 65 -30 100t-90 35h-16l-130 -423h16z" />
    <glyph glyph-name="uni040A" unicode="&#x40a;" horiz-adv-x="1360" 
d="M433 0h-389l3 10h83l227 738h-83l3 10h389l-3 -10h-73l-100 -325h223l100 325h-83l3 10h399l-3 -10h-83l-100 -326h76q68 0 124.5 -9.5t97.5 -30t63.5 -53t22.5 -78.5q0 -133 -112 -192t-324 -59h-394l3 10h83l124 403h-223l-124 -403h73zM835 10q54 0 99 20t77 55.5
t50 84.5t18 107q0 65 -30 100t-90 35h-16l-124 -402h16z" />
    <glyph glyph-name="uni040B" unicode="&#x40b;" horiz-adv-x="1036" 
d="M122 10h103l226 738h-92q-17 0 -28 -4.5t-24 -19.5l-217 -248h-6l148 335h7l91 -53h501l123 53h7l-56 -315h-6l-61 228q-4 15 -11.5 19.5t-24.5 4.5h-118l-226 -738h103l-3 -10h-439zM582 414q17 3 42 7t75 4q91 0 147.5 -14.5t84.5 -44.5t29.5 -75t-17.5 -105l-55 -176
h83l-3 -10h-316l63 204q18 60 24.5 100t0 64.5t-25.5 34.5t-51 10q-24 0 -45.5 -3t-38.5 -8z" />
    <glyph glyph-name="uni040C" unicode="&#x40c;" horiz-adv-x="910" 
d="M369 0h-399l3 10h83l226 738h-83l3 10h399l-3 -10h-83l-106 -345l480 345h-112l3 10h245l-3 -10h-115l-493 -354h242l217 -394h-259l-211 383l-114 -373h83zM949 969l-290 -126h-12l94 129h210z" />
    <glyph glyph-name="uni040E" unicode="&#x40e;" horiz-adv-x="744" 
d="M387 162q-38 -48 -68 -81.5t-56 -54t-51.5 -30t-55.5 -9.5q-32 0 -47.5 18t-15.5 47q0 26 16.5 53t51 45t87 22.5t123.5 -13.5l10 14l-167 575h-67l3 10h397l-3 -10h-77l104 -336l267 336h-75l3 10h156l-3 -10h-67zM643 837q-48 0 -79.5 13t-49.5 35t-22 51t4 61h126
q-24 -79 -20.5 -114.5t41.5 -35.5q39 0 61 35.5t46 114.5h126q-11 -39 -34 -69t-54 -50t-68.5 -30.5t-76.5 -10.5z" />
    <glyph glyph-name="uni040F" unicode="&#x40f;" horiz-adv-x="973" 
d="M337 -227h-6l-12 206q-1 16 -8.5 18.5t-24.5 2.5h-316l3 10h83l227 738h-83l3 10h399l-3 -10h-83l-227 -738h248l227 738h-83l3 10h399l-3 -10h-83l-227 -738h83l-3 -10h-316q-19 0 -33.5 -2.5t-25.5 -18.5z" />
    <glyph glyph-name="uni0490" unicode="&#x490;" horiz-adv-x="706" 
d="M620 758q10 0 17.5 0.5t14.5 3t14 7t17 13.5l227 203h6l-84 -237h-316l-227 -738h125l-3 -10h-441l3 10h83l227 738h-83l3 10h417z" />
    <glyph glyph-name="uni0462" unicode="&#x462;" horiz-adv-x="897" 
d="M550 618l-73 -235h76q157 0 235.5 -46.5t78.5 -124.5q0 -38 -26.5 -76t-80 -68t-134.5 -49t-189 -19h-394l3 10h83l188 608h-55q-17 0 -27.5 -5t-24.5 -19l-174 -178h-6l108 265h7l91 -53h84l37 120h-83l3 10h399l-3 -10h-83l-37 -120h84l123 53h7l-56 -265h-6l-64 178
q-5 14 -12 19t-24 5h-55zM378 10q55 0 99.5 22.5t76 57t48 77t16.5 81.5q0 25 -7.5 48t-23.5 40t-40 27t-57 10h-16l-112 -363h16z" />
    <glyph glyph-name="uni0472" unicode="&#x472;" horiz-adv-x="940" 
d="M637 779q70 0 128.5 -20.5t101 -59t66 -93t23.5 -122.5q0 -56 -18 -114.5t-52.5 -113.5t-84 -104t-113 -85.5t-139.5 -58t-163 -21.5q-70 0 -128.5 20.5t-101 59t-66 93t-23.5 122.5q0 56 18 114.5t52.5 113.5t84 104t113 85.5t139.5 58t163 21.5zM604 769
q-48 0 -90.5 -30t-77.5 -81.5t-61 -121t-41 -148.5q59 41 102.5 52.5t76 5.5t56 -23t43 -32.5t37.5 -22.5t39 6q8 45 12.5 92.5t4.5 95.5q0 113 -24.5 160t-76.5 47zM685 363q-54 -46 -94.5 -60t-72 -9t-55 22.5t-45 34.5t-42 26t-44.5 -2q-7 -42 -10.5 -84.5t-3.5 -86.5
q0 -57 6 -96t18.5 -64t31.5 -36t45 -11q46 0 88 28.5t76.5 78t60.5 116t41 143.5z" />
    <glyph glyph-name="uni0474" unicode="&#x474;" horiz-adv-x="1038" 
d="M956 590q-34 0 -59 3.5t-40 7.5l-811 -640h-7l241 787h-83l3 10h399l-3 -10h-83l-163 -533l607 479q30 23 53.5 39.5t43.5 26.5t39 14.5t40 4.5q35 0 52.5 -14.5t17.5 -35.5q0 -25 -16.5 -50t-48 -44.5t-77.5 -32t-105 -12.5z" />
    <glyph glyph-name="uni0492" unicode="&#x492;" horiz-adv-x="761" 
d="M99 427h85l98 321h-83l3 10h652l-19 -237h-6l-126 203q-10 16 -18 20t-29 4h-141l-98 -321h139l-21 -68h-139l-107 -349h125l-3 -10h-441l3 10h83l107 349h-85z" />
    <glyph glyph-name="uni0496" unicode="&#x496;" horiz-adv-x="1334" 
d="M-66 0l375 404h269l-252 344h-114l3 10h245l-3 -10h-112l242 -332l102 332h-83l3 10h399l-3 -10h-83l-102 -331l446 331h-112l3 10h245l-3 -10h-116l-464 -344h241l124 -394h92l-62 -237h-6l-96 209q-5 11 -12.5 14.5t-24.5 3.5h-145l-120 383l-115 -373h53l-3 -10h-339
l3 10h53l115 373l-356 -383h-287z" />
    <glyph glyph-name="uni049A" unicode="&#x49a;" horiz-adv-x="1023" 
d="M369 0h-399l3 10h83l226 738h-83l3 10h399l-3 -10h-83l-106 -345l480 345h-112l3 10h245l-3 -10h-115l-493 -354h242l211 -384h98l-62 -237h-6l-96 209q-5 11 -12.5 14.5t-24.5 3.5h-150l-211 383l-114 -373h83z" />
    <glyph glyph-name="uni04A2" unicode="&#x4a2;" horiz-adv-x="987" 
d="M784 10h108l-62 -237h-6l-96 209q-5 11 -12.5 14.5t-24.5 3.5h-226l3 10h83l107 349h-262l-107 -349h83l-3 -10h-399l3 10h83l227 738h-83l3 10h399l-3 -10h-83l-99 -321h262l99 321h-83l3 10h399l-3 -10h-83z" />
    <glyph glyph-name="uni04AE" unicode="&#x4ae;" horiz-adv-x="847" 
d="M549 0h-399l3 10h83l116 379l-135 359h-93l3 10h435l-3 -10h-93l121 -340l336 340h-93l3 10h192l-3 -10h-84l-353 -358l-116 -380h83z" />
    <glyph glyph-name="uni04B0" unicode="&#x4b0;" horiz-adv-x="847" 
d="M549 0h-399l3 10h83l116 379l-135 359h-93l3 10h435l-3 -10h-93l121 -340l336 340h-93l3 10h192l-3 -10h-84l-353 -358l-116 -380h83zM205 392h536l-21 -68h-536z" />
    <glyph glyph-name="uni04B2" unicode="&#x4b2;" horiz-adv-x="941" 
d="M91 0h-211l5 10h93l445 317l-75 421h-93l5 10h425l-5 -10h-93l48 -269l377 269h-94l5 10h211l-5 -10h-98l-394 -281l81 -457h115l-62 -237h-6l-96 209q-5 11 -12.5 14.5t-24.5 3.5h-251l5 10h93l-54 305l-428 -305h99z" />
    <glyph glyph-name="uni04B6" unicode="&#x4b6;" horiz-adv-x="941" 
d="M398 0l3 10h103l102 330q-11 -2 -24 -4t-31.5 -3.5t-43.5 -2.5t-60 -1q-88 0 -143.5 14t-83 44t-29 77.5t19.5 115.5l52 168h-83l3 10h399l-3 -10h-83l-52 -168q-23 -74 -28.5 -121t4 -73t35 -35.5t64.5 -9.5q23 0 46 2.5t44 8.5l122 396h-83l3 10h400l-3 -10h-84
l-227 -738h108l-62 -237h-6l-96 209q-5 11 -12.5 14.5t-24.5 3.5h-246z" />
    <glyph glyph-name="uni04BA" unicode="&#x4ba;" horiz-adv-x="951" 
d="M757.954 9.99902h82.9941l-2.99902 -9.99902h-398.976l2.99902 9.99902h82.9951l51.9971 167.99q22.998 73.9951 28.498 120.992t-4 72.9961q-9.49902 25.998 -34.9971 35.498q-25.499 9.49902 -64.4961 9.49902q-22.999 0 -45.9971 -2.5q-22.999 -2.5 -43.998 -8.49902
l-121.992 -395.977h82.9951l-3 -9.99902h-399.976l3 9.99902h83.9941l226.986 737.955h-83.9941l2.99902 10h419.975l-3 -10h-102.993l-101.994 -329.979q10.999 2 23.999 4q12.999 2 31.498 3.49902q18.498 1.5 43.4971 2.5q24.998 1 59.9961 1q87.9951 0 143.491 -13.999
q55.4971 -13.999 82.9951 -43.9971t28.998 -77.4951t-19.499 -115.493z" />
    <glyph glyph-name="uni04C0" unicode="&#x4c0;" horiz-adv-x="491" 
d="M369 0h-399l3 10h83l226 738h-83l3 10h399l-3 -10h-83l-226 -738h83z" />
    <glyph glyph-name="uni04D8" unicode="&#x4d8;" horiz-adv-x="861" 
d="M374 -13q-72 0 -127.5 18.5t-94.5 51t-61.5 77t-29.5 95.5h594q11 44 11 88q0 66 -20 115.5t-56 82.5t-87 49.5t-113 16.5q-42 0 -87.5 -10t-87.5 -36t-76.5 -72.5t-52.5 -118.5h-15q15 92 54.5 171.5t100.5 138t141 92t175 33.5q79 0 141 -21.5t104 -61t64 -95.5
t22 -125q0 -96 -44 -184t-115 -156t-160 -108.5t-180 -40.5zM395 -4q37 0 76 15.5t74 44t63 68.5t43 90h-189q-47 0 -78.5 -7.5t-50.5 -21.5t-26.5 -36t-7.5 -50q0 -44 24 -73.5t72 -29.5z" />
    <glyph glyph-name="uni04E2" unicode="&#x4e2;" horiz-adv-x="993" 
d="M369 0h-399l3 10h83l227 738h-83l3 10h399l-3 -10h-83l-200 -651l453 601l15 50h-83l3 10h399l-3 -10h-83l-227 -738h83l-3 -10h-399l3 10h83l200 651l-453 -601l-15 -50h83zM534 944h316l-22 -68h-316z" />
    <glyph glyph-name="uni04E8" unicode="&#x4e8;" horiz-adv-x="940" 
d="M637 779q70 0 128.5 -20.5t101 -59t66 -93t23.5 -122.5q0 -56 -18 -114.5t-52.5 -113.5t-84 -104t-113 -85.5t-139.5 -58t-163 -21.5q-70 0 -128.5 20.5t-101 59t-66 93t-23.5 122.5q0 56 18 114.5t52.5 113.5t84 104t113 85.5t139.5 58t163 21.5zM419 -3q46 0 87.5 28
t76 76.5t60.5 114.5t41 142h-355q-5 -38 -8 -76.5t-3 -77.5q0 -57 6 -96t18.5 -64t31.5 -36t45 -11zM604 769q-45 0 -86 -27t-75 -73.5t-60 -110t-42 -136.5h354q5 34 7.5 69t2.5 71q0 113 -24.5 160t-76.5 47z" />
    <glyph glyph-name="uni04EE" unicode="&#x4ee;" horiz-adv-x="744" 
d="M387 162q-38 -48 -68 -81.5t-56 -54t-51.5 -30t-55.5 -9.5q-32 0 -47.5 18t-15.5 47q0 26 16.5 53t51 45t87 22.5t123.5 -13.5l10 14l-167 575h-67l3 10h397l-3 -10h-77l104 -336l267 336h-75l3 10h156l-3 -10h-67zM511 944h316l-22 -68h-316z" />
    <glyph glyph-name="uni0430" unicode="&#x430;" horiz-adv-x="662" 
d="M125 -13q-25 0 -47 8t-38.5 24.5t-26 40.5t-9.5 56q0 49 17.5 99t47 96t67 86t78.5 69t82 46t76 17q28 0 42.5 -14.5t15.5 -52.5h1l23 62h214l-155 -408q-20 -51 -25.5 -71.5t4.5 -20.5q7 0 20 6t32 24.5t43 53t53 90.5l10 -5q-33 -63 -61 -103t-56.5 -63t-60.5 -31.5
t-72 -8.5q-66 0 -81 34t8 103l27 78h-2q-27 -59 -50 -100t-48 -66.5t-56 -37t-73 -11.5zM244 50q10 0 27 23t36.5 60t39 82.5t36 90.5t26.5 85t10 66q0 59 -30 59q-18 0 -37 -21t-37 -56t-34 -79.5t-28.5 -90.5t-19.5 -90.5t-7 -79.5q0 -31 5 -40t13 -9z" />
    <glyph glyph-name="uni0431" unicode="&#x431;" horiz-adv-x="584" 
d="M576 355q0 -72 -32.5 -138.5t-87.5 -117.5t-126.5 -81.5t-149.5 -30.5q-45 0 -78.5 14.5t-55.5 40.5t-32.5 61t-10.5 77q0 57 19.5 122t58 129t94.5 123.5t129 104.5t162 72t193 27h34l23 61h10l-87 -231q-32 0 -59 1t-51 3q-63 5 -107.5 18t-89.5 35q-27 13 -39 -2.5
t-19 -46.5q-4 -16 -8 -44.5t-9 -64.5q26 11 57 17.5t69 6.5q51 0 88 -13t60 -34.5t34 -50t11 -58.5zM253 6q10 0 23 11.5t27 41.5t27 81.5t22 130.5q4 40 7.5 80t1 72t-12.5 51.5t-34 19.5q-27 0 -58 -17q-6 -49 -12.5 -105.5t-11 -110.5t-7.5 -100t-3 -74q0 -39 7.5 -60
t23.5 -21z" />
    <glyph glyph-name="uni0432" unicode="&#x432;" horiz-adv-x="597" 
d="M237 -14q-71 0 -115 12.5t-68.5 34.5t-33 52t-8.5 65q0 44 17 89t46 86.5t68 78t83 63.5t91 42.5t92 15.5q86 0 126 -28.5t40 -70.5q0 -61 -52.5 -96t-173.5 -55v-1q47 0 80.5 -10.5t54.5 -27.5t31 -38.5t10 -44.5q0 -41 -20.5 -72t-58 -52t-90.5 -32t-119 -11zM379 511
q-19 0 -39.5 -19t-39.5 -52.5t-36 -79.5t-28 -101l38 9q17 4 38.5 22t41 46.5t33 65.5t13.5 79q0 16 -6.5 23t-14.5 7zM220 121q-2 -62 4 -93.5t26 -31.5q37 0 54.5 38.5t22.5 98.5q3 31 2.5 56.5t-6.5 42.5t-19 24t-35 2l-35 -8q-5 -30 -9 -62.5t-5 -66.5z" />
    <glyph glyph-name="uni0433" unicode="&#x433;" horiz-adv-x="513" 
d="M193 -13q-32 0 -66 5t-62 19.5t-46.5 39.5t-18.5 66q0 35 13.5 61.5t36 47.5t52 38t60.5 34l51 27q28 15 55.5 31t50 35t36.5 40t14 45t-9 31t-20 7t-19.5 -5t-23.5 -17l-205 -169h-6l80 179q43 11 85.5 17t92.5 6q25 0 56 -5t58 -18.5t45.5 -38.5t18.5 -65
q0 -38 -16.5 -66t-43 -50t-59.5 -40.5t-67 -37.5l-49 -27q-23 -13 -46 -28t-41.5 -33t-30 -38.5t-11.5 -42.5t11 -29.5t24 -7.5t24 4t28 20l221 195h6l-93 -210q-47 -11 -91 -15.5t-95 -4.5z" />
    <glyph glyph-name="uni0434" unicode="&#x434;" horiz-adv-x="606" 
d="M606 448q0 -81 -27 -163t-80.5 -148.5t-132.5 -108t-184 -41.5q-81 0 -125.5 38.5t-44.5 118.5q0 75 33.5 144.5t84 123t109 85.5t109.5 32q32 0 44 -19q-3 123 -27.5 175t-72.5 52q-31 0 -71 -37l-6 6q29 35 65 49t71 14q64 0 112 -26.5t79.5 -70.5t47.5 -102t16 -122z
M224 64q0 -30 5.5 -43.5t18.5 -13.5q18 0 35.5 19t33.5 52t30 77.5t24 95.5t16 106t6 109v10q-1 18 -9.5 29t-22.5 11q-22 0 -40.5 -25t-34 -65t-27 -90t-19.5 -100t-12 -95.5t-4 -76.5z" />
    <glyph glyph-name="uni0435" unicode="&#x435;" horiz-adv-x="511" 
d="M186 -13q-47 0 -80 12.5t-54 34t-31 51.5t-9 65q2 66 36 133t88 120.5t121.5 87.5t138.5 34q29 0 54 -7t42.5 -19.5t27.5 -30t9 -38.5q-1 -18 -7.5 -36t-17 -34t-25 -29t-30.5 -20l-206 -9q-6 -26 -9 -52.5t-4 -52.5q-2 -33 1.5 -63t12 -52.5t21.5 -35.5t31 -13
q40 0 82 45.5t74 134.5l10 -3q-18 -54 -42 -95.5t-57 -70t-76.5 -43t-100.5 -14.5zM396 516q-27 0 -50.5 -17t-42.5 -45.5t-34 -65.5t-24 -77q31 2 63.5 21t59 45.5t44 55.5t18.5 52q0 31 -34 31z" />
    <glyph glyph-name="uni0451" unicode="&#x451;" horiz-adv-x="511" 
d="M182 -13q-47 0 -80 12.5t-54 34t-31 51.5t-9 65q2 66 36 133t88 120.5t121.5 87.5t138.5 34q29 0 54 -7t42.5 -19.5t27.5 -30t9 -38.5q-1 -18 -7.5 -36t-17 -34t-25 -29t-30.5 -20l-206 -9q-6 -26 -9 -52.5t-4 -52.5q-2 -33 1.5 -63t12 -52.5t21.5 -35.5t31 -13
q40 0 82 45.5t74 134.5l10 -3q-18 -54 -42 -95.5t-57 -70t-76.5 -43t-100.5 -14.5zM392 516q-27 0 -50.5 -17t-42.5 -45.5t-34 -65.5t-24 -77q31 2 63.5 21t59 45.5t44 55.5t18.5 52q0 31 -34 31zM565 603q-35 0 -59 24.5t-24 60.5t24 60.5t59 24.5q36 0 59.5 -24.5
t23.5 -60.5t-23.5 -60.5t-59.5 -24.5zM326 602q-35 0 -59 24.5t-24 60.5t24 60.5t59 24.5q36 0 59.5 -24.5t23.5 -60.5t-23.5 -60.5t-59.5 -24.5z" />
    <glyph glyph-name="uni0436" unicode="&#x436;" horiz-adv-x="1101" 
d="M255 525q84 0 124.5 -47.5t36.5 -123.5q-3 -49 -23 -101l57 6l86 228l217 26l-88 -233l60 5q23 48 57 91.5t74.5 76.5t84 52.5t85.5 19.5q45 0 71.5 -23t24.5 -64q-1 -24 -12.5 -42.5t-30.5 -30.5t-43 -18t-50 -5l-7 168q-21 -18 -35.5 -53.5t-24 -82.5t-14.5 -104
t-7 -118q-1 -25 -0.5 -46.5t3 -37.5t7.5 -25.5t14 -9.5q53 0 120 173l10 -3q-20 -55 -40.5 -95.5t-44 -67.5t-51.5 -40t-64 -13q-84 0 -124.5 47.5t-36.5 123.5q3 56 29 116l-59 -6l-95 -252l-218 -27l97 258l-57 -6q-21 -50 -55.5 -96t-76 -81t-87 -56t-88.5 -21
q-45 0 -71.5 23t-24.5 64q1 24 12.5 42.5t30.5 30.5t43 18t50 5l7 -168q21 18 35.5 53.5t24 82.5t14.5 103.5t7 118.5q1 25 0.5 46.5t-3 37.5t-7.5 25.5t-14 9.5q-53 0 -120 -173l-10 3q20 55 40.5 95.5t44 67.5t51.5 40t64 13z" />
    <glyph glyph-name="uni0437" unicode="&#x437;" horiz-adv-x="489" 
d="M129 -3q2 -1 5 -1h10q12 0 25.5 10t25 28.5t20 43.5t11.5 55q3 28 3 53t-5 42.5t-17 26t-34 3.5l-58 -13l1 9l53 12q18 4 35.5 12.5t31.5 24.5t22.5 40t8.5 59q0 44 -14.5 60.5t-40.5 16.5q-35 0 -70.5 -36t-69.5 -102l-10 3q41 96 106.5 138.5t150.5 42.5q44 0 74 -7
t48 -19t25.5 -28.5t7.5 -34.5q0 -32 -16 -58t-44.5 -46t-67 -34t-83.5 -22v-1q49 0 83 -11.5t54 -30t28 -42t5 -48.5q-8 -76 -84 -116.5t-213 -40.5q-46 0 -77 6t-50 17.5t-27 28t-7 36.5q1 24 12.5 42.5t31 30.5t44 18t50.5 5z" />
    <glyph glyph-name="uni0438" unicode="&#x438;" horiz-adv-x="674" 
d="M422 374h-2q-32 -67 -60.5 -118t-54.5 -96q-22 -37 -42 -68.5t-42.5 -55t-49.5 -36.5t-62 -13q-33 0 -57 14t-34.5 42t-5.5 69.5t30 96.5l122 266l-73 -9l4 11l298 35l-171 -385q-20 -45 -28.5 -66.5t2.5 -21.5q14 0 44 43t71 112q25 43 48.5 88t43.5 85t34.5 71.5
t21.5 48.5l213 25l-148 -396q-19 -51 -25 -71.5t5 -20.5q7 0 20.5 6t32.5 24.5t43.5 53t53.5 90.5l10 -5q-33 -63 -61 -103t-57.5 -63t-63.5 -31.5t-78 -8.5q-30 0 -51 8.5t-31 29t-6.5 53.5t22.5 82z" />
    <glyph glyph-name="uni0439" unicode="&#x439;" horiz-adv-x="681" 
d="M449 598q-47 0 -79 13t-50 34.5t-21.5 50.5t6.5 62h126q-24 -79 -20.5 -114.5t41.5 -35.5q39 0 61 35.5t46 114.5h126q-11 -37 -34.5 -66.5t-55 -50.5t-69 -32t-77.5 -11zM422 374h-2q-32 -67 -60.5 -118t-54.5 -96q-22 -37 -42 -68.5t-42.5 -55t-49.5 -36.5t-62 -13
q-33 0 -57 14t-34.5 42t-5.5 69.5t30 96.5l122 266l-73 -9l4 11l298 35l-171 -385q-20 -45 -28.5 -66.5t2.5 -21.5q14 0 44 43t71 112q25 43 48.5 88t43.5 85t34.5 71.5t21.5 48.5l213 25l-148 -396q-19 -51 -25 -71.5t5 -20.5q7 0 20.5 6t32.5 24.5t43.5 53t53.5 90.5
l10 -5q-33 -63 -61 -103t-57.5 -63t-63.5 -31.5t-78 -8.5q-30 0 -51 8.5t-31 29t-6.5 53.5t22.5 82z" />
    <glyph glyph-name="uni043A" unicode="&#x43a;" horiz-adv-x="711" 
d="M-16 -10l150 400l-51 60l2 4l311 85l-104 -274l-95 -250zM486 -30q-35 0 -61 8.5t-45 27.5t-32.5 49t-23.5 74l-32 136l206 187q22 21 39 35t31.5 22.5t29 12t31.5 3.5q35 0 51 -19t16 -51q0 -27 -12 -50t-31.5 -40.5t-45.5 -28t-54 -13.5l-29 140l-45 -41l-175 -157h199
l41 -169q11 -48 21 -65.5t20 -17.5q4 0 12 4t17.5 15t21 31.5t23.5 53.5l11 -4q-17 -45 -35.5 -73t-41 -43.5t-49 -21t-58.5 -5.5z" />
    <glyph glyph-name="uni043B" unicode="&#x43b;" horiz-adv-x="609" 
d="M158 134q26 56 52 116t55 140l4 112h224l-12 -443q0 -8 7 -8q5 0 14.5 5.5t23.5 21.5t32.5 44.5t42.5 75.5l10 -5q-33 -63 -61 -103t-57.5 -63t-63.5 -31.5t-78 -8.5q-22 0 -40 5t-30.5 17t-19 32.5t-5.5 51.5l8 252q-22 -58 -44 -109.5t-44 -101.5q-17 -39 -32.5 -66.5
t-33.5 -45.5t-39.5 -26.5t-51.5 -8.5q-34 0 -51.5 19.5t-17.5 49.5q0 17 6 37.5t20 40.5h182z" />
    <glyph glyph-name="uni043C" unicode="&#x43c;" horiz-adv-x="856" 
d="M153 134q22 59 45.5 125t47.5 154l-13 89h234l29 -218l169 218h189l-144 -386q-19 -51 -25 -71.5t5 -20.5q7 0 20.5 6t32.5 24.5t43.5 53t53.5 90.5l10 -5q-33 -63 -61 -103t-57.5 -63t-63.5 -31.5t-78 -8.5q-30 0 -51 8.5t-30 29t-6 53.5t21 82l100 268l-317 -411h-5
l-51 360q-19 -69 -39.5 -127.5t-40.5 -115.5q-28 -77 -61.5 -112t-90.5 -35q-34 0 -51.5 19.5t-17.5 49.5q0 17 6 37.5t20 40.5h177z" />
    <glyph glyph-name="uni043D" unicode="&#x43d;" horiz-adv-x="671" 
d="M-16 -10l150 400l-51 60l2 4l311 85l-109 -287l85 8l84 227l213 25l-148 -396q-19 -51 -25 -71.5t5 -20.5q7 0 20.5 6t32.5 24.5t43.5 53t53.5 90.5l10 -5q-33 -63 -61 -103t-57.5 -63t-63.5 -31.5t-78 -8.5q-30 0 -51 8.5t-30.5 29t-6 53.5t21.5 82l33 88l-86 -8
l-85 -225z" />
    <glyph glyph-name="uni043E" unicode="&#x43e;" horiz-adv-x="578" 
d="M176 -13q-41 0 -72 11.5t-52 31.5t-31.5 46.5t-10.5 56.5q0 69 33 138.5t88 126t126.5 92t148.5 35.5q40 0 71 -11.5t52 -31.5t32 -46.5t11 -56.5q0 -69 -33 -139t-87.5 -126.5t-126 -91.5t-149.5 -35zM254 6q16 0 34.5 28t34 80t26 127t10.5 170q0 45 -7 70t-23 25
q-17 0 -36 -28t-35 -80.5t-26 -127.5t-10 -169q0 -46 7 -70.5t25 -24.5z" />
    <glyph glyph-name="uni043F" unicode="&#x43f;" horiz-adv-x="685" 
d="M406 -13q-33 0 -57.5 9.5t-36 30t-8 53.5t25.5 80l105 225q12 26 18.5 42t8 25t-1 12.5t-8.5 3.5q-11 0 -23.5 -11t-26 -29.5t-29 -44t-32.5 -54.5q-23 -41 -46 -86.5t-42.5 -88t-34.5 -79t-21 -60.5l-213 -25l150 400l-51 60l2 4l311 85l-160 -386h2q29 60 54 108t48 88
q25 44 48 77t47.5 55t52.5 33t63 11q33 0 57 -14t34.5 -42t4.5 -69.5t-32 -96.5l-89 -187q-23 -50 -27 -71t7 -21q7 0 20.5 6t32.5 24.5t43.5 53t53.5 90.5l10 -5q-33 -63 -61 -103t-57.5 -63t-63.5 -31.5t-78 -8.5z" />
    <glyph glyph-name="uni0440" unicode="&#x440;" horiz-adv-x="671" 
d="M244 -13h-19t-19 1l-81 -236h-209l217 638l-51 60l2 4l311 85l-36 -105q13 17 31.5 33.5t40 29t44.5 20.5t45 8q73 0 110 -38.5t37 -106.5q0 -61 -30.5 -130t-86 -127.5t-133.5 -97t-173 -38.5zM404 448q-17 0 -31.5 -11.5t-24.5 -35.5l-139 -404q4 -1 12 -1
q26 0 52.5 17.5t51.5 47t46 68t37 80.5t25 85t9 81q0 32 -9 52.5t-29 20.5z" />
    <glyph glyph-name="uni0441" unicode="&#x441;" horiz-adv-x="491" 
d="M187 -13q-44 0 -76.5 12.5t-54 35t-31.5 54t-9 69.5q3 74 38 140.5t88.5 117t117.5 80t125 29.5q57 0 90.5 -23t31.5 -64q-1 -24 -12.5 -42.5t-31 -30.5t-44 -18t-50.5 -5l-16 173h-1q-30 -21 -51.5 -56t-35.5 -77.5t-21.5 -88t-8.5 -87.5q-2 -38 1.5 -69.5t11.5 -54.5
t20.5 -36t28.5 -13q32 0 68.5 41.5t71.5 131.5l10 -3q-21 -60 -47 -101.5t-57.5 -67t-70 -36.5t-85.5 -11z" />
    <glyph glyph-name="uni0442" unicode="&#x442;" horiz-adv-x="995" 
d="M716 -13q-33 0 -57.5 9.5t-36 30t-8 53.5t25.5 80l105 225q12 26 18.5 42t8 25t-1 12.5t-8.5 3.5q-11 0 -23.5 -11t-26 -29.5t-29 -44t-32.5 -54.5q-23 -41 -46 -86.5t-42.5 -88t-34.5 -79t-21 -60.5l-222 -25l150 395q10 26 16 42.5t7.5 25.5t-1 12t-8.5 3
q-9 0 -20.5 -11t-25.5 -29.5t-29.5 -44t-32.5 -54.5q-23 -41 -46 -86.5t-42.5 -88t-34.5 -79t-21 -60.5l-213 -25l150 400l-51 60l2 4l311 85l-160 -386h2q29 60 54 108t48 88q25 44 48 77t47.5 55t52.5 33t63 11q66 0 84 -56.5t-27 -165.5l-62 -150h2q29 60 54 108t48 88
q25 44 48 77t47.5 55t52.5 33t63 11q33 0 57 -14t34.5 -42t4.5 -69.5t-32 -96.5l-89 -187q-23 -50 -27 -71t7 -21q7 0 20.5 6t32.5 24.5t43.5 53t53.5 90.5l10 -5q-33 -63 -61 -103t-57.5 -63t-63.5 -31.5t-78 -8.5z" />
    <glyph glyph-name="uni0443" unicode="&#x443;" horiz-adv-x="574" 
d="M97 -248h-226l251 286l-9 441l-73 -10l4 11l272 32l3 -486l204 278l-108 128q3 24 13 42t24.5 29t32 16.5t35.5 5.5q33 0 59.5 -17t26.5 -58q0 -23 -16 -61t-54 -89l-216 -292z" />
    <glyph glyph-name="uni0444" unicode="&#x444;" horiz-adv-x="908" 
d="M257 -13q-68 0 -115 14t-76 38.5t-41.5 59.5t-12.5 79q0 58 31 115.5t88 104.5t137 77.5t179 35.5l86 237h-63l3 10h273l-89 -247q68 0 115 -14t76 -38.5t41.5 -60t12.5 -78.5q0 -58 -31 -115.5t-88 -104.5t-137 -78t-179 -35l-85 -235h-210zM705 398q0 42 -13 68.5
t-40 31.5l-180 -497q50 11 93 53t74 100t48.5 123t17.5 121zM209 100q0 -42 13 -68.5t40 -31.5l180 497q-50 -11 -93 -53t-74 -99.5t-48.5 -122.5t-17.5 -122z" />
    <glyph glyph-name="uni0445" unicode="&#x445;" horiz-adv-x="652" 
d="M395 -13q-31 0 -57.5 8t-47.5 27t-37 51t-26 79q-38 -56 -65 -88.5t-49 -49.5t-39.5 -22t-35.5 -5q-32 0 -52.5 18t-20.5 52q0 27 12 50t31.5 40.5t45.5 28t54 13.5l29 -137q18 20 38.5 47.5t48.5 67.5l-5 37l-21 181q-4 32 -7 52t-6 31t-7.5 15t-11.5 4q-18 0 -47 -30
t-56 -97l-11 4q21 49 43 80.5t47 49.5t54 24.5t63 6.5q31 0 58 -8.5t49 -28.5t37.5 -53.5t24.5 -82.5q39 58 67.5 92.5t51 52.5t40.5 23t36 5q32 0 52.5 -18t20.5 -52q0 -27 -12 -50t-31.5 -40.5t-45.5 -28t-54 -13.5l-29 137q-19 -22 -41 -50.5t-52 -72.5q2 -7 2.5 -14
t1.5 -15l21 -181q4 -32 7 -52t6 -31t7.5 -15t11.5 -4q18 0 47 30t56 97l11 -4q-21 -49 -43 -80.5t-47 -49.5t-54 -24.5t-63 -6.5z" />
    <glyph glyph-name="uni0446" unicode="&#x446;" horiz-adv-x="684" 
d="M422 374h-2q-32 -67 -60.5 -118t-54.5 -96q-22 -37 -42 -68.5t-42.5 -55t-49.5 -36.5t-62 -13q-33 0 -57 14t-34.5 42t-5.5 69.5t30 96.5l122 266l-73 -9l4 11l298 35l-171 -385q-20 -45 -28.5 -66.5t2.5 -21.5q14 0 44 43t71 112q25 43 48.5 88t43.5 85t34.5 71.5
t21.5 48.5l213 25l-148 -396q-19 -51 -25 -71.5t5 -20.5q7 0 20.5 6t32.5 24.5t43.5 53t53.5 90.5l10 -5h4q-18 -34 -25 -58.5t-8.5 -50t0 -59t1.5 -85.5q0 -39 -15.5 -65t-43 -43t-65.5 -26.5t-83 -15.5l2 16q16 3 25 8.5t14.5 15t9 23t8.5 31.5q14 54 31.5 88.5t39.5 65.5
q-33 -29 -69.5 -40t-85.5 -11q-30 0 -51 8.5t-31 29t-6.5 53.5t22.5 82z" />
    <glyph glyph-name="uni0447" unicode="&#x447;" horiz-adv-x="643" 
d="M399 395h-2q-29 -53 -57 -99t-57.5 -80.5t-62 -54t-71.5 -19.5q-33 0 -57 14.5t-34.5 42.5t-5.5 69.5t30 95.5l51 111l-73 -9l4 11l298 35l-100 -230q-20 -45 -28.5 -66.5t2.5 -21.5q7 0 21.5 14.5t32.5 38.5t38 55t39 63.5t35 64t26 57.5l213 25l-148 -396
q-19 -51 -25 -71.5t5 -20.5q7 0 20.5 6t32.5 24.5t43.5 53t53.5 90.5l10 -5q-33 -63 -61 -103t-57.5 -63t-63.5 -31.5t-78 -8.5q-30 0 -51 8.5t-31 29t-6.5 53.5t22.5 82z" />
    <glyph glyph-name="uni0448" unicode="&#x448;" horiz-adv-x="979" 
d="M427 374h-2q-32 -67 -60.5 -118t-54.5 -96q-22 -37 -43 -68.5t-44 -55t-51 -36.5t-63 -13q-33 0 -57 14t-34.5 42t-5.5 69.5t30 96.5l122 266l-73 -9l4 11l298 35l-171 -385q-20 -45 -28.5 -66.5t2.5 -21.5q7 0 19 11.5t27.5 32t34.5 49t39 62.5q25 43 48.5 88t43.5 85
t34.5 71.5t21.5 48.5l213 25l-153 -396q-17 -45 -23 -61t5 -16q14 0 41.5 43t68.5 112q25 43 48.5 88t43.5 85t34.5 71.5t21.5 48.5l213 25l-148 -396q-19 -51 -25 -71.5t5 -20.5q7 0 20.5 6t32.5 24.5t43.5 53t53.5 90.5l10 -5q-33 -63 -61 -103t-57.5 -63t-63.5 -31.5
t-78 -8.5q-30 0 -51 8.5t-31 29t-6.5 53.5t22.5 82l84 214h-2q-32 -67 -60.5 -118t-54.5 -96q-22 -37 -41 -68.5t-41 -55t-48 -36.5t-61 -13q-66 0 -85 53.5t26 165.5z" />
    <glyph glyph-name="uni0449" unicode="&#x449;" horiz-adv-x="989" 
d="M427 374h-2q-32 -67 -60.5 -118t-54.5 -96q-22 -37 -43 -68.5t-44 -55t-51 -36.5t-63 -13q-33 0 -57 14t-34.5 42t-5.5 69.5t30 96.5l122 266l-73 -9l4 11l298 35l-171 -385q-20 -45 -28.5 -66.5t2.5 -21.5q7 0 19 11.5t27.5 32t34.5 49t39 62.5q25 43 48.5 88t43.5 85
t34.5 71.5t21.5 48.5l213 25l-153 -396q-17 -45 -23 -61t5 -16q14 0 41.5 43t68.5 112q25 43 48.5 88t43.5 85t34.5 71.5t21.5 48.5l213 25l-148 -396q-19 -51 -25 -71.5t5 -20.5q7 0 20.5 6t32.5 24.5t43.5 53t53.5 90.5l10 -5q-18 -34 -25 -58.5t-8.5 -50t0 -59t1.5 -85.5
q0 -39 -15.5 -65t-43 -43t-65.5 -26.5t-83 -15.5l2 16q16 3 25 8.5t14.5 15t9 23t8.5 31.5q13 50 29.5 83.5t36.5 62.5q-31 -25 -65.5 -34t-80.5 -9q-30 0 -51 8.5t-31 29t-6.5 53.5t22.5 82l84 214h-2q-32 -67 -60.5 -118t-54.5 -96q-22 -37 -41 -68.5t-41 -55t-48 -36.5
t-61 -13q-66 0 -85 53.5t26 165.5z" />
    <glyph glyph-name="uni044A" unicode="&#x44a;" horiz-adv-x="628" 
d="M578 179q0 -91 -79 -141.5t-228 -50.5q-69 0 -112 8.5t-66.5 24t-32 37t-8.5 47.5q0 31 21.5 60.5t60.5 58t92.5 56t117.5 53.5h-275l-47 -83h-12l137 253h375q-109 -97 -174 -197h19q115 0 163 -32t48 -94zM281 0q22 0 39 26.5t28.5 64t17.5 77.5t6 67q0 28 -5 44
t-26 16q-40 -64 -60.5 -127.5t-20.5 -124.5q0 -17 4 -30t17 -13z" />
    <glyph glyph-name="uni044B" unicode="&#x44b;" horiz-adv-x="931" 
d="M929 512l-148 -396q-19 -51 -25 -71.5t5 -20.5q7 0 20.5 6t32.5 24.5t43.5 53t53.5 90.5l10 -5q-33 -63 -61 -103t-57.5 -63t-63.5 -31.5t-78 -8.5q-30 0 -51 8.5t-30.5 29t-6 53.5t21.5 82l121 327zM224 -13q-61 0 -100 17.5t-57 50t-16 78t23 101.5l90 241l-73 -9l4 11
l298 35l-76 -195h33q116 0 168.5 -29t52.5 -87q0 -49 -26.5 -88.5t-73 -67.5t-110 -43t-137.5 -15zM243 127q-23 -60 -29 -93.5t20 -33.5q22 0 45.5 27t42.5 66t31 82t12 75q0 26 -10.5 41.5t-33.5 15.5h-8z" />
    <glyph glyph-name="uni044C" unicode="&#x44c;" horiz-adv-x="600" 
d="M224 -13q-61 0 -100 17.5t-57 50t-16 78t23 101.5l90 241l-73 -9l4 11l298 35l-76 -195h33q116 0 168.5 -29t52.5 -87q0 -49 -26.5 -88.5t-73 -67.5t-110 -43t-137.5 -15zM243 127q-23 -60 -29 -93.5t20 -33.5q22 0 45.5 27t42.5 66t31 82t12 75q0 26 -10.5 41.5
t-33.5 15.5h-8z" />
    <glyph glyph-name="uni044D" unicode="&#x44d;" horiz-adv-x="492" 
d="M315 525q88 0 130 -47.5t41 -123.5q-3 -74 -38.5 -140.5t-88.5 -117t-117 -80t-125 -29.5q-57 0 -90.5 23t-31.5 64q1 24 12.5 42.5t31 30.5t44 18t50.5 5l16 -173h1q26 18 45.5 46.5t33 63t22 73t12.5 76.5l-136 -13l6 12l132 13q1 10 1.5 19t0.5 19q1 38 -2 69.5
t-11 54.5t-20.5 36t-28.5 13q-28 0 -60 -32.5t-64 -101.5l-11 3q21 49 46 82.5t55 54.5t65.5 30.5t78.5 9.5z" />
    <glyph glyph-name="uni044E" unicode="&#x44e;" horiz-adv-x="885" 
d="M-16 -10l150 400l-51 60l2 4l311 85l-109 -286l57 5q22 53 60 101.5t87 85t105.5 58.5t116.5 22q40 0 71 -11.5t52 -31.5t32 -46.5t11 -56.5q0 -69 -33 -139t-87.5 -126.5t-126 -91.5t-149.5 -35q-41 0 -72 11.5t-52 31.5t-31.5 46.5t-10.5 56.5q0 28 5.5 56t16.5 57
l-56 -6l-86 -225zM561 6q16 0 34.5 28t34 80t26 127t10.5 170q0 45 -7 70t-23 25q-17 0 -36 -28t-35 -80.5t-26 -127.5t-10 -169q0 -46 7 -70.5t25 -24.5z" />
    <glyph glyph-name="uni044F" unicode="&#x44f;" horiz-adv-x="657" 
d="M671 520l-151 -404q-19 -51 -25 -71.5t5 -20.5q7 0 20.5 6t32.5 24.5t43.5 53t53.5 90.5l10 -5q-33 -63 -61 -103t-57.5 -63t-63.5 -31.5t-78 -8.5q-30 0 -51 8.5t-30 29t-6 53.5t21 82l46 125q-42 -55 -76.5 -98.5t-63.5 -77.5q-57 -64 -102.5 -93t-93.5 -29
q-38 0 -56 23t-18 52q0 43 30 73h240q19 21 33 39.5t34 42.5q-34 -20 -58 -27t-46 -7q-54 0 -83 28.5t-29 70.5q0 39 23.5 82t63.5 80t93.5 61t113.5 24q32 0 47 -14.5t17 -43.5l18 49h204zM334 258q7 0 17 9.5t20.5 25.5t21.5 38t21 47l7 18q21 54 13 83t-27 29
q-17 0 -32.5 -21.5t-27 -54t-18.5 -70t-7 -69.5q0 -20 3.5 -27.5t8.5 -7.5z" />
    <glyph glyph-name="uni0452" unicode="&#x452;" horiz-adv-x="625" 
d="M136 651h63l33 97h-63l4 10h276l-36 -107h134l-17 -51h-134l-36 -106l-143 -341h2q29 60 54 108t48 88q25 44 48 77t47.5 55t52.5 33t63 11q33 0 57 -14t34 -42t4.5 -69.5t-31.5 -96.5l-120 -254q-18 -39 -45.5 -69.5t-60 -55t-68.5 -45.5t-73 -40q-17 -9 -39.5 -21
t-48.5 -25.5t-54 -28t-55 -27.5l-4 9q34 21 64 45q29 23 50.5 48.5t39.5 55.5t35 66t38 81l161 343q12 26 18.5 42t8 25t-1 12.5t-8.5 3.5q-11 0 -23.5 -11t-26 -29.5t-29 -44t-32.5 -54.5q-23 -41 -46 -86.5t-42.5 -88t-34.5 -79t-21 -60.5l-203 -25l207 610h-63z" />
    <glyph glyph-name="uni0453" unicode="&#x453;" horiz-adv-x="514" 
d="M193 -13q-32 0 -66 5t-62 19.5t-46.5 39.5t-18.5 66q0 35 13.5 61.5t36 47.5t52 38t60.5 34l51 27q28 15 55.5 31t50 35t36.5 40t14 45t-9 31t-20 7t-19.5 -5t-23.5 -17l-205 -169h-6l80 179q43 11 85.5 17t92.5 6q25 0 56 -5t58 -18.5t45.5 -38.5t18.5 -65
q0 -38 -16.5 -66t-43 -50t-59.5 -40.5t-67 -37.5l-49 -27q-23 -13 -46 -28t-41.5 -33t-30 -38.5t-11.5 -42.5t11 -29.5t24 -7.5t24 4t28 20l221 195h6l-93 -210q-47 -11 -91 -15.5t-95 -4.5zM450 758h201l-1 -3l-283 -176h-12z" />
    <glyph glyph-name="uni0454" unicode="&#x454;" horiz-adv-x="491" 
d="M187 -13q-44 0 -76.5 12.5t-54 35t-31.5 54t-9 69.5q3 74 38 140.5t88.5 117t117.5 80t125 29.5q57 0 90.5 -23t31.5 -64q-1 -24 -12.5 -42.5t-31 -30.5t-44 -18t-50.5 -5l-16 173h-1q-26 -18 -45.5 -46.5t-33.5 -63.5t-22 -73.5t-12 -76.5l140 14l-6 -12l-136 -13
q-1 -10 -1.5 -19.5t-0.5 -18.5q-2 -38 1.5 -69.5t11.5 -54.5t20.5 -36t28.5 -13q32 0 68.5 41.5t71.5 131.5l10 -3q-21 -60 -47 -101.5t-57.5 -67t-70 -36.5t-85.5 -11z" />
    <glyph glyph-name="uni0455" unicode="&#x455;" horiz-adv-x="464" 
d="M133 -13q-32 0 -59.5 7.5t-47.5 21t-31.5 32t-11.5 41.5q0 22 11 39.5t29 30.5t40 20t44 8l57 -188q40 3 63.5 13.5t23.5 39.5q0 22 -18 49t-56 76l-28 36q-29 37 -43.5 69t-14.5 64q0 41 24.5 74t62 56.5t82.5 36t87 12.5q29 0 54.5 -7t44 -19.5t29 -29.5t10.5 -38
t-10.5 -37.5t-28.5 -28t-42 -17t-51 -4.5l-40 169q-37 -3 -59.5 -13.5t-22.5 -33.5t16 -50.5t51 -70.5l35 -43q27 -34 39 -61t12 -63q0 -49 -24 -85t-60.5 -59.5t-81 -35t-85.5 -11.5z" />
    <glyph glyph-name="uni0456" unicode="&#x456;" horiz-adv-x="375" 
d="M135 390l-51 60l2 4l319 85l-160 -423q-20 -51 -23.5 -71.5t6.5 -20.5q6 0 18 6.5t29.5 25.5t40 53t49.5 89l10 -5q-32 -64 -59 -104t-54.5 -62.5t-60 -31t-76.5 -8.5q-33 0 -56 8.5t-33.5 29t-7.5 53.5t21 82zM342 566q-26 0 -48 10t-39 27t-26.5 39.5t-9.5 48.5
q0 25 9.5 47.5t26.5 39.5t39 26.5t48 9.5t48.5 -9.5t39.5 -26.5t27 -39.5t10 -47.5q0 -26 -10 -48.5t-27 -39.5t-39.5 -27t-48.5 -10z" />
    <glyph glyph-name="uni0457" unicode="&#x457;" horiz-adv-x="375" 
d="M196 566q-61 0 -61 69q0 30 11 62t29.5 58t44 42.5t54.5 16.5q36 0 51.5 -17.5t15.5 -52.5q0 -31 -12 -63t-32 -57.5t-46 -41.5t-55 -16zM392 566q-61 0 -61 69q0 30 11 62t29.5 58t44 42.5t54.5 16.5q36 0 51.5 -17.5t15.5 -52.5q0 -31 -12 -63t-32 -57.5t-46 -41.5
t-55 -16zM131 390l-51 60l2 4l319 85l-160 -423q-20 -51 -23.5 -71.5t6.5 -20.5q6 0 18 6.5t29.5 25.5t40 53t49.5 89l10 -5q-32 -64 -59 -104t-54.5 -62.5t-60 -31t-76.5 -8.5q-33 0 -56 8.5t-33.5 29t-7.5 53.5t21 82z" />
    <glyph glyph-name="uni0458" unicode="&#x458;" horiz-adv-x="352" 
d="M84 450l2 4l319 85l-188 -490q-16 -41 -42 -71.5t-58 -54.5t-68.5 -44.5t-73.5 -39.5q-17 -9 -39.5 -21t-48.5 -25.5t-54 -28t-55 -27.5l-4 9q34 21 64 45q29 23 51.5 48t41 54.5t35.5 66t35 82.5l134 348zM338 566q-26 0 -48 10t-39 27t-26.5 39.5t-9.5 48.5
q0 25 9.5 47.5t26.5 39.5t39 26.5t48 9.5t48.5 -9.5t39.5 -26.5t27 -39.5t10 -47.5q0 -26 -10 -48.5t-27 -39.5t-39.5 -27t-48.5 -10z" />
    <glyph glyph-name="uni0459" unicode="&#x459;" horiz-adv-x="859" 
d="M414 502h215l-63 -185h42q116 0 168.5 -29t52.5 -87q0 -49 -26.5 -88.5t-73 -67.5t-110 -43t-137.5 -15q-61 0 -99 17t-55 48.5t-15.5 77.5t19.5 104l67 220l-208 -326q-21 -33 -40.5 -59t-40 -44t-43 -28t-48.5 -10q-34 0 -51.5 19.5t-17.5 49.5q0 17 6 37.5t20 40.5
h202zM501 127q-21 -61 -28 -94t19 -33q22 0 45.5 27t42.5 66t31 82t12 75q0 26 -10.5 41.5t-33.5 15.5h-17z" />
    <glyph glyph-name="uni045A" unicode="&#x45a;" horiz-adv-x="899" 
d="M-16 -10l150 400l-51 60l2 4l311 85l-109 -287l95 9l87 225l222 26l-76 -195h33q116 0 168.5 -29t52.5 -87q0 -49 -26.5 -88.5t-73 -67.5t-110 -43t-137.5 -15q-61 0 -100.5 17.5t-57.5 49.5t-16 78t24 102l6 15l-96 -9l-85 -225zM541 127q-23 -60 -29 -93.5t20 -33.5
q22 0 45.5 27t42.5 66t31 82t12 75q0 26 -10.5 41.5t-33.5 15.5h-8z" />
    <glyph glyph-name="uni045B" unicode="&#x45b;" horiz-adv-x="666" 
d="M219 153q29 60 54 108t48 88q25 44 48 77t47.5 55t52.5 33t63 11q33 0 57 -14t34.5 -42t4.5 -69.5t-32 -96.5l-89 -187q-23 -50 -27 -71t7 -21q7 0 20.5 6t32.5 24.5t43.5 53t53.5 90.5l10 -5q-33 -63 -61 -103t-57.5 -63t-63.5 -31.5t-78 -8.5q-33 0 -57.5 9.5t-36 30
t-8 53.5t25.5 80l105 225q12 26 18.5 42t8 25t-1 12.5t-8.5 3.5q-11 0 -23.5 -11t-26 -29.5t-29 -44t-32.5 -54.5q-23 -41 -46 -86.5t-42.5 -88t-34.5 -79t-21 -60.5l-203 -25l207 610h-63l17 51h63l33 97h-63l4 10h276l-36 -107h134l-17 -51h-134l-36 -106l-143 -341h2z
" />
    <glyph glyph-name="uni045C" unicode="&#x45c;" horiz-adv-x="700" 
d="M537 758h201l-1 -3l-283 -176h-12zM-16 -10l150 400l-51 60l2 4l311 85l-104 -274l-95 -250zM486 -30q-35 0 -61 8.5t-45 27.5t-32.5 49t-23.5 74l-32 136l206 187q22 21 39 35t31.5 22.5t29 12t31.5 3.5q35 0 51 -19t16 -51q0 -27 -12 -50t-31.5 -40.5t-45.5 -28
t-54 -13.5l-29 140l-45 -41l-175 -157h199l41 -169q11 -48 21 -65.5t20 -17.5q4 0 12 4t17.5 15t21 31.5t23.5 53.5l11 -4q-17 -45 -35.5 -73t-41 -43.5t-49 -21t-58.5 -5.5z" />
    <glyph glyph-name="uni045E" unicode="&#x45e;" horiz-adv-x="578" 
d="M97 -248h-226l251 286l-9 441l-73 -10l4 11l272 32l3 -486l204 278l-108 128q3 24 13 42t24.5 29t32 16.5t35.5 5.5q33 0 59.5 -17t26.5 -58q0 -23 -16 -61t-54 -89l-216 -292zM400 598q-47 0 -79 13t-50 34.5t-21.5 50.5t6.5 62h126q-24 -79 -20.5 -114.5t41.5 -35.5
q39 0 61 35.5t46 114.5h126q-11 -37 -34.5 -66.5t-55 -50.5t-69 -32t-77.5 -11z" />
    <glyph glyph-name="uni045F" unicode="&#x45f;" horiz-adv-x="674" 
d="M277 0q-13 -28 -18.5 -60t-5.5 -55q0 -25 9.5 -43.5t35.5 -20.5l-3 -10q-83 -8 -124 10.5t-41 50.5q0 18 11.5 35t30 33t43.5 31t52 29h10zM422 374h-2q-32 -67 -60.5 -118t-54.5 -96q-22 -37 -42 -68.5t-42.5 -55t-49.5 -36.5t-62 -13q-33 0 -57 14t-34.5 42t-5.5 69.5
t30 96.5l122 266l-73 -9l4 11l298 35l-171 -385q-20 -45 -28.5 -66.5t2.5 -21.5q14 0 44 43t71 112q25 43 48.5 88t43.5 85t34.5 71.5t21.5 48.5l213 25l-148 -396q-19 -51 -25 -71.5t5 -20.5q7 0 20.5 6t32.5 24.5t43.5 53t53.5 90.5l10 -5q-33 -63 -61 -103t-57.5 -63
t-63.5 -31.5t-78 -8.5q-30 0 -51 8.5t-31 29t-6.5 53.5t22.5 82z" />
    <glyph glyph-name="uni0491" unicode="&#x491;" horiz-adv-x="485" 
d="M-29 -10l189 502h-63l4 10h267q18 0 24 4t18 13l199 145h6l-72 -172h-180l-179 -477z" />
    <glyph glyph-name="uni0463" unicode="&#x463;" horiz-adv-x="890" 
d="M861 201q0 -49 -26.5 -88.5t-73 -67.5t-110 -43t-137.5 -15q-61 0 -101.5 18.5t-60 51t-17 78t28.5 99.5l71 151q12 26 18.5 42.5t8 25.5t-1 12t-8.5 3q-11 0 -23.5 -11t-26 -29.5t-29 -44t-32.5 -54.5q-23 -41 -46 -86.5t-42.5 -88t-34.5 -79t-21 -60.5l-213 -25
l150 400l-51 60l2 4l311 85l-160 -386h2q29 60 54 108t48 88q25 44 48 77t47.5 55t52.5 33t63 11q32 0 55.5 -13t34 -39t6.5 -65t-26 -91h19q116 0 168.5 -29t52.5 -87zM533 127q-27 -59 -31 -93t22 -34q22 0 45.5 27t42.5 66t31 82t12 75q0 26 -9.5 41.5t-28.5 15.5l-2 -4z
" />
    <glyph glyph-name="uni0473" unicode="&#x473;" horiz-adv-x="578" 
d="M176 -13q-41 0 -72 11.5t-52 31.5t-31.5 46.5t-10.5 56.5q0 69 33 138.5t88 126t126.5 92t148.5 35.5q40 0 71 -11.5t52 -31.5t32 -46.5t11 -56.5q0 -69 -33 -139t-87.5 -126.5t-126 -91.5t-149.5 -35zM254 6q12 0 26 16.5t27.5 48.5t25 78.5t18.5 105.5q-32 -30 -51 -32
t-30.5 8t-19.5 22t-19 9q-9 -72 -9 -161q0 -46 7 -70.5t25 -24.5zM233 272q21 17 35.5 22t25 2.5t18 -9t14 -13t12.5 -10.5t13 -1q4 34 6 70.5t2 77.5q0 45 -7 70t-23 25q-26 0 -54 -61.5t-42 -172.5z" />
    <glyph glyph-name="uni0475" unicode="&#x475;" horiz-adv-x="632" 
d="M476 391l-345 -411h-10l-7 499l-73 -10l4 11l262 32l1 -304l191 229q40 49 72.5 68.5t72.5 19.5q32 0 46 -16.5t14 -39.5t-13 -45t-36 -33h-179z" />
    <glyph glyph-name="uni0493" unicode="&#x493;" horiz-adv-x="534" 
d="M194 -13q-40 0 -75 5t-61.5 19.5t-41.5 39.5t-15 66q0 47 26 77t64 54h-84l19 51h158l30 16q28 15 53 32.5t43.5 40t29 50.5t10.5 63q0 13 -9 13q-11 0 -19.5 -5t-23.5 -17l-205 -169h-6l80 179q43 11 85.5 17t92.5 6q35 0 67.5 -5t57 -18.5t39 -38.5t14.5 -65
q0 -32 -13 -55.5t-34 -43.5h82l-19 -51h-139q-15 -8 -31 -16.5t-32 -17.5l-49 -27q-48 -26 -78.5 -65t-30.5 -97q0 -27 19 -27q13 0 22 4t26 20l221 195h6l-93 -210q-47 -11 -91 -15.5t-95 -4.5z" />
    </font>
</defs>
</svg>
