<?xml version="1.0" standalone="no"?>
<!DOCTYPE svg PUBLIC "-//W3C//DTD SVG 1.1//EN" "http://www.w3.org/Graphics/SVG/1.1/DTD/svg11.dtd" >
<svg xmlns="http://www.w3.org/2000/svg" xmlns:xlink="http://www.w3.org/1999/xlink" version="1.1">
<metadata>
Created by Christoph Koeberlin (http://christoph.koe.berlin)
Copyright (c) 2017 Swiss Typefaces Sarl. All rights reserved.
</metadata>
<defs>
<font id="Font" horiz-adv-x="0" >
  <font-face 
    font-family="Font"
    font-weight="700"
    font-style="italic"
    font-stretch="normal"
    units-per-em="1000"
    panose-1="2 11 8 4 0 0 0 0 0 4"
    ascent="800"
    descent="-200"
    x-height="502"
    cap-height="758"
    bbox="-454 -403 1345 1078"
    underline-thickness="71"
    underline-position="-130"
    slope="-17"
    unicode-range="U+0020-FEFF"
  />
<missing-glyph horiz-adv-x="640" 
d="M70 758h500v-758h-500v758zM320 396l217 343h-434zM89 30l221 349l-221 349v-698zM551 30v698l-220 -349zM537 19l-217 343l-217 -343h434z" />
    <glyph glyph-name="f_f.liga" unicode="ff" horiz-adv-x="795" 
d="M181 424h-90l30 78h90q68 139 168.5 208.5t214.5 69.5h12l-55 -142h-128q-27 0 -51 -5t-36.5 -20t-10.5 -41.5t27 -69.5h118l-30 -78h-111l-163 -424h-148zM543 424h-60l30 78h60q68 139 168.5 208.5t214.5 69.5h12l-55 -142h-128q-27 0 -51 -5t-36.5 -20t-10.5 -41.5
t27 -69.5h158l-30 -78h-151l-163 -424h-148z" />
    <glyph glyph-name="f_i.liga" unicode="fi" horiz-adv-x="676" 
d="M589 700q0 18 7.5 35t20.5 30t30 20.5t35 7.5q19 0 36 -7.5t30 -20.5t20.5 -30t7.5 -35q0 -19 -7.5 -36t-20.5 -30t-30 -20.5t-36 -7.5q-18 0 -35 7.5t-30 20.5t-20.5 30t-7.5 36zM416 638q-27 0 -50 -5t-34 -20t-8 -41.5t28 -69.5h346l-192 -502h-148l162 424h-191
l-163 -424h-148l163 424h-90l30 78h90q136 278 363 278h2l-55 -142h-105z" />
    <glyph glyph-name="f_f_i.liga" unicode="ffi" horiz-adv-x="1038" 
d="M951 700q0 18 7.5 35t20.5 30t30 20.5t35 7.5q19 0 36 -7.5t30 -20.5t20.5 -30t7.5 -35q0 -19 -7.5 -36t-20.5 -30t-30 -20.5t-36 -7.5q-18 0 -35 7.5t-30 20.5t-20.5 30t-7.5 36zM181 424h-90l30 78h90q68 139 168.5 208.5t214.5 69.5h12l-55 -142h-128q-27 0 -51 -5
t-36.5 -20t-10.5 -41.5t27 -69.5h118l-30 -78h-111l-163 -424h-148zM543 424h-60l30 78h60q136 278 363 278h2l-55 -142h-105q-27 0 -50 -5t-34 -20t-8 -41.5t28 -69.5h346l-192 -502h-148l162 424h-191l-163 -424h-148z" />
    <glyph glyph-name="f_l.liga" unicode="fl" horiz-adv-x="681" 
d="M181 424h-90l30 78h90q68 139 168.5 208.5t214.5 69.5h12l-55 -142h-128q-27 0 -51 -5t-36.5 -20t-10.5 -41.5t27 -69.5h147l-30 -78h-140l-163 -424h-148zM641 780h148l-268 -780h-148z" />
    <glyph glyph-name="f_f_l.liga" unicode="ffl" horiz-adv-x="1043" 
d="M181 424h-90l30 78h90q68 139 168.5 208.5t214.5 69.5h12l-55 -142h-128q-27 0 -51 -5t-36.5 -20t-10.5 -41.5t27 -69.5h118l-30 -78h-111l-163 -424h-148zM543 424h-60l30 78h60q68 139 168.5 208.5t214.5 69.5h12l-55 -142h-128q-27 0 -51 -5t-36.5 -20t-10.5 -41.5
t27 -69.5h158l-30 -78h-151l-163 -424h-148zM1003 780h148l-268 -780h-148z" />
    <glyph glyph-name=".notdef" horiz-adv-x="640" 
d="M70 758h500v-758h-500v758zM320 396l217 343h-434zM89 30l221 349l-221 349v-698zM551 30v698l-220 -349zM537 19l-217 343l-217 -343h434z" />
    <glyph glyph-name="glyph1" 
 />
    <glyph glyph-name="glyph2" horiz-adv-x="270" 
 />
    <glyph glyph-name="space" unicode=" " horiz-adv-x="270" 
 />
    <glyph glyph-name="exclam" unicode="!" horiz-adv-x="308" 
d="M124 241q19 66 29 113t15 84t8 68.5t8 65.5t15 75t29 98q4 11 20 19t37 11t44 1.5t40.5 -8t27 -18t3.5 -28.5q-18 -51 -34.5 -88.5t-34 -69t-35.5 -61.5t-38 -66t-42 -83t-48 -113h-44zM93 -13q-20 0 -37 7.5t-30 21t-20.5 31.5t-7.5 39q0 19 7.5 36.5t20.5 30.5t30 20.5
t37 7.5q21 0 39 -7.5t31.5 -20.5t21 -30.5t7.5 -36.5q0 -42 -28.5 -70.5t-70.5 -28.5z" />
    <glyph glyph-name="quotedbl" unicode="&#x22;" horiz-adv-x="429" 
d="M191 721q4 32 21.5 45t65.5 13q46 0 57.5 -17.5t-13.5 -62.5l-120 -216h-43zM383 721q4 32 21.5 45t65.5 13q46 0 57.5 -17.5t-13.5 -62.5l-120 -216h-43z" />
    <glyph glyph-name="numbersign" unicode="#" horiz-adv-x="803" 
d="M195 195h-172l30 72h171l90 221h-172l29 72h172l88 216h78l-88 -216h189l88 216h78l-88 -216h172l-29 -72h-172l-90 -221h172l-29 -72h-172l-79 -195h-78l79 195h-189l-79 -195h-78zM491 267l90 221h-189l-90 -221h189z" />
    <glyph glyph-name="dollar" unicode="$" horiz-adv-x="603" 
d="M241 -13l-35 -107h-50l36 110q-46 4 -80 17t-57 30.5t-34.5 38.5t-11.5 42q0 37 22 53t46 14q19 -1 30 -10.5t17.5 -23t11.5 -28t11 -25.5q11 -21 27 -34t35 -19l93 286l-36 35q-49 46 -79 91.5t-30 105.5q0 47 24 87t64.5 68.5t93 44.5t108.5 16l35 107h50l-36 -110
q74 -9 116.5 -41t42.5 -74q0 -18 -6 -30.5t-15 -20t-20.5 -10.5t-23.5 -3q-18 0 -29.5 9.5t-19.5 23t-14.5 29t-13.5 27.5q-16 23 -35 33l-90 -278l13 -13q31 -30 57 -55t44.5 -49.5t28.5 -52t10 -62.5q0 -59 -27 -101t-70 -69t-96 -39.5t-105 -12.5h-2zM350 478l81 250h-1
q-33 0 -60.5 -8t-48 -22.5t-32 -35.5t-11.5 -47q0 -34 18 -68t50 -66zM412 161q0 41 -20 71.5t-52 61.5l-83 -256q34 0 62.5 7.5t49 22.5t32 38t11.5 55z" />
    <glyph glyph-name="percent" unicode="%" horiz-adv-x="956" 
d="M872 758h113l-828 -758h-113zM250 341q-34 0 -57.5 12t-38.5 32.5t-22 47t-7 55.5q0 54 21 106t54.5 93t75.5 66.5t85 25.5q34 0 58 -12t39 -32.5t21.5 -47t6.5 -55.5q0 -54 -21 -106t-54.5 -93t-75.5 -66.5t-85 -25.5zM257 374q20 0 37.5 16.5t32.5 44t26.5 61.5
t19.5 69t12.5 67t4.5 56q0 26 -8.5 42t-27.5 16q-20 0 -37.5 -16.5t-32.5 -44t-26.5 -61.5t-19.5 -69t-12.5 -67.5t-4.5 -55.5q0 -26 8.5 -42t27.5 -16zM677 -13q-34 0 -57.5 12t-38.5 32.5t-22 47t-7 55.5q0 54 21 106t54.5 93t75.5 66.5t85 25.5q34 0 58 -12t39 -32.5
t21.5 -47t6.5 -55.5q0 -54 -21 -106t-54.5 -93t-75.5 -66.5t-85 -25.5zM684 20q20 0 37.5 16.5t32.5 44t26.5 61.5t19.5 69t12.5 67t4.5 56q0 26 -8.5 42t-27.5 16q-20 0 -37.5 -16.5t-32.5 -44t-26.5 -61.5t-19.5 -69t-12.5 -67.5t-4.5 -55.5q0 -26 8.5 -42t27.5 -16z" />
    <glyph glyph-name="ampersand" unicode="&#x26;" horiz-adv-x="1013" 
d="M352 -13q-77 0 -131.5 27t-89.5 69t-51 94.5t-16 103.5q0 72 25 130.5t61.5 99t78 62.5t74.5 22q41 0 69.5 -21.5t34.5 -59.5q39 32 64 60.5t40.5 58.5t22 64t8.5 77q2 51 23 66t57 12q19 -2 33.5 -9t21 -21t3 -35t-21.5 -50q-43 -71 -85.5 -125t-98 -103t-129.5 -98
t-180 -109q18 -84 80 -132.5t153 -48.5q113 0 200 61.5t137 196.5l-30 26q-13 11 -27 23t-27.5 21.5t-26.5 15.5t-24 6q-23 0 -40.5 -13t-17.5 -38q0 -20 8.5 -35t19 -28.5t19.5 -27t9 -29.5q0 -23 -16.5 -39t-39.5 -16q-36 0 -59.5 30t-23.5 73q0 31 15 61t36.5 56.5
t46 47.5t43.5 33q22 14 36.5 18t27.5 4q23 0 54.5 -15.5t84.5 -62.5l37 -33q28 -25 58.5 -46.5t56.5 -21.5q23 0 35.5 14t12.5 39t-9.5 42.5t-20.5 31.5t-20 28t-9 32q0 20 17 36t46 16q21 0 36.5 -8t25.5 -21.5t15 -31.5t5 -37q0 -33 -15 -66t-37 -62.5t-46.5 -52
t-43.5 -34.5q-22 -14 -36.5 -18.5t-28.5 -4.5q-26 0 -50.5 13t-59.5 42q-24 -59 -63 -123t-91.5 -116.5t-119 -86.5t-146.5 -34zM159 349q81 44 152 92q4 37 -8 62t-42 25q-25 0 -44 -13.5t-32 -36t-19.5 -52.5t-6.5 -63v-14z" />
    <glyph glyph-name="quotesingle" unicode="'" horiz-adv-x="237" 
d="M191 721q4 32 21.5 45t65.5 13q46 0 57.5 -17.5t-13.5 -62.5l-120 -216h-43z" />
    <glyph glyph-name="parenleft" unicode="(" horiz-adv-x="357" 
d="M132 -248q-50 66 -80.5 154.5t-30.5 188.5q0 97 32 197.5t94 197t152 185.5t207 163l26 -39q-89 -71 -162 -166.5t-125 -200t-80.5 -209.5t-28.5 -195q0 -36 1 -68t4.5 -62t11 -59.5t19.5 -60.5z" />
    <glyph glyph-name="parenright" unicode=")" horiz-adv-x="357" 
d="M253 838q50 -66 80.5 -154.5t30.5 -188.5q0 -97 -32 -197.5t-94 -197t-152 -185.5t-207 -163l-26 39q89 71 162 166.5t125 200t80.5 209.5t28.5 195q0 36 -1 68t-4.5 62t-11 59.5t-19.5 60.5z" />
    <glyph glyph-name="asterisk" unicode="*" horiz-adv-x="518" 
d="M339 533l-149 -75l-19 26l126 112l-118 119l21 26l144 -85l75 148l32 -12l-37 -162l166 -28l-1 -33l-168 -14l24 -167l-32 -8z" />
    <glyph glyph-name="plus" unicode="+" horiz-adv-x="653" 
d="M291 225h-229v75h229v216h79v-216h229v-75h-229v-225h-79v225z" />
    <glyph glyph-name="comma" unicode="," horiz-adv-x="316" 
d="M-37 -137q56 28 93.5 64t37.5 80q0 54 -84 71q4 27 15 45.5t26.5 30.5t34 17.5t37.5 5.5q41 0 70 -26.5t29 -74.5q0 -32 -16.5 -66t-48 -67t-76.5 -63.5t-103 -54.5z" />
    <glyph glyph-name="hyphen" unicode="-" horiz-adv-x="432" 
d="M87 303h294l-28 -81h-294z" />
    <glyph glyph-name="period" unicode="." horiz-adv-x="298" 
d="M108 -13q-20 0 -37 7.5t-30 21t-20.5 31.5t-7.5 39q0 19 7.5 36.5t20.5 30.5t30 20.5t37 7.5q21 0 39 -7.5t31.5 -20.5t21 -30.5t7.5 -36.5q0 -42 -28.5 -70.5t-70.5 -28.5z" />
    <glyph glyph-name="slash" unicode="/" horiz-adv-x="546" 
d="M570 806h107l-622 -858h-107z" />
    <glyph glyph-name="zero" unicode="0" horiz-adv-x="706" 
d="M293 -13q-59 0 -100.5 21t-68 57t-39 83t-12.5 99q0 62 16.5 125.5t46 123t69 111t86.5 90t99 60.5t105 22q59 0 100.5 -21t68 -57t39 -83t12.5 -99q0 -62 -16.5 -125.5t-46 -123t-69 -111t-86.5 -90t-99 -60.5t-105 -22zM303 37q40 0 75.5 29.5t65.5 77.5t54 108.5
t40.5 123.5t25 122t8.5 103q0 58 -21 93t-66 35q-40 0 -75.5 -29.5t-65.5 -77.5t-54 -108.5t-40.5 -123.5t-25 -122t-8.5 -103q0 -58 21 -93t66 -35z" />
    <glyph glyph-name="one" unicode="1" horiz-adv-x="402" 
d="M288 650l-158 -56l19 57l329 120l-266 -771h-148z" />
    <glyph glyph-name="two" unicode="2" horiz-adv-x="603" 
d="M-60 6q150 109 256 197.5t172.5 159t97 126t30.5 99.5q0 22 -6 42.5t-18.5 35.5t-32 24t-46.5 9q-58 0 -103.5 -38t-68.5 -130h-47q7 56 30.5 101.5t59.5 78t84 50.5t105 18q97 0 146 -44t49 -116q0 -45 -18 -86t-51.5 -80t-81 -77.5t-107.5 -78.5l-240 -159h371
l-82 -138h-501z" />
    <glyph glyph-name="three" unicode="3" horiz-adv-x="591" 
d="M197 -13q-44 0 -80.5 10.5t-62.5 29t-41 42.5t-15 51q0 29 18.5 50t50.5 21q18 0 29.5 -6t19.5 -16.5t13.5 -23.5t11.5 -27q6 -15 12.5 -29.5t18 -25.5t28 -18t42.5 -7q28 0 56.5 11t51 34.5t37 59t14.5 84.5q0 39 -11 69t-29.5 51t-42.5 31.5t-51 10.5q-16 0 -31 -3
l-6 46l56 12q37 8 73 20.5t64.5 31.5t46 45.5t17.5 62.5q0 45 -28.5 70t-79.5 25q-24 0 -48 -6t-45.5 -21.5t-38.5 -42t-27 -67.5h-46q16 102 84 159.5t178 57.5q48 0 84.5 -11t61 -29.5t36.5 -43t12 -51.5t-13 -53.5t-38 -48.5t-63 -38.5t-87 -25.5v-3q59 -30 87.5 -77
t28.5 -103q0 -58 -29.5 -113.5t-78.5 -98.5t-111.5 -69.5t-128.5 -26.5z" />
    <glyph glyph-name="four" unicode="4" horiz-adv-x="698" 
d="M363 191h-364l23 65l552 502h133l-163 -471h133l-33 -96h-133l-66 -191h-148zM396 287l110 320l-349 -320h239z" />
    <glyph glyph-name="five" unicode="5" horiz-adv-x="579" 
d="M187 -13q-44 0 -80.5 10.5t-62.5 29t-41 42.5t-15 51q0 29 18.5 50t50.5 21q21 0 33.5 -8.5t20.5 -21.5t14 -29t14 -31q12 -23 35 -40t72 -17q28 0 56.5 8t51 25.5t36.5 44t14 64.5q0 72 -66.5 130.5t-184.5 106.5l181 335h348l-77 -138h-286l-44 -78q125 -51 184 -119.5
t59 -149.5q0 -68 -29 -121t-76.5 -90t-106.5 -56t-119 -19z" />
    <glyph glyph-name="six" unicode="6" horiz-adv-x="654" 
d="M288 -13q-51 0 -94 17.5t-74 50.5t-48.5 80.5t-17.5 106.5q0 70 42.5 151.5t128.5 158t215 141t302 102.5l10 -50q-101 -24 -182.5 -65t-143.5 -92t-106.5 -108.5t-72.5 -113.5q37 42 83.5 67t92.5 25q39 0 72.5 -11t57.5 -33.5t38 -56t14 -77.5q0 -47 -15 -87t-40 -72.5
t-57 -57.5t-67.5 -42t-71 -25.5t-66.5 -8.5zM198 187q0 -41 8 -69.5t21.5 -46.5t32 -26t38.5 -8q33 0 61.5 17t49 46t32.5 67t12 79q0 38 -11.5 64.5t-29.5 43t-40.5 23.5t-44.5 7q-18 0 -38.5 -5t-44.5 -19q-23 -49 -34.5 -93.5t-11.5 -79.5z" />
    <glyph glyph-name="seven" unicode="7" horiz-adv-x="641" 
d="M796 758l-740 -758h-97l617 620h-420l88 138h552z" />
    <glyph glyph-name="eight" unicode="8" horiz-adv-x="619" 
d="M271 -13q-53 0 -96.5 14.5t-75 40.5t-49 62t-17.5 78q0 36 17 69t46.5 60.5t69.5 48.5t87 35q-32 38 -49 79.5t-17 91.5q0 45 18.5 83.5t52 67.5t80 45.5t102.5 16.5q47 0 85.5 -11.5t66.5 -32.5t43 -50t15 -64t-17 -64.5t-45 -53.5t-64.5 -42.5t-75.5 -30.5l6 -6
q43 -44 71.5 -91t28.5 -107q0 -51 -23.5 -94.5t-62.5 -76t-90 -50.5t-107 -18zM133 192q0 -39 11.5 -67.5t32.5 -47.5t50 -28.5t63 -9.5q28 0 54 7t45 20.5t30.5 34t11.5 46.5q0 19 -8 39.5t-21.5 41.5t-30.5 41t-35 38l-64 66q-32 -13 -57.5 -33t-43.5 -44t-28 -51t-10 -53
zM428 451q63 23 96.5 65.5t33.5 93.5t-33.5 84t-98.5 33q-57 0 -90 -24.5t-33 -63.5q0 -42 24.5 -76t62.5 -73z" />
    <glyph glyph-name="nine" unicode="9" horiz-adv-x="644" 
d="M23 21q101 24 178.5 65t134 92t94 108t59.5 113q-32 -38 -81.5 -64.5t-106.5 -26.5q-39 0 -72.5 12t-57.5 35.5t-38 58t-14 78.5q0 72 31.5 125.5t79 89.5t103 54t103.5 18q51 0 94 -16.5t74 -48t48.5 -78t17.5 -105.5q0 -71 -34.5 -152t-110.5 -158t-197.5 -143.5
t-295.5 -106.5zM271 526q0 -38 11.5 -65.5t29.5 -45t40.5 -25.5t44.5 -8q19 0 43.5 5.5t51.5 21.5q18 48 26 91.5t8 78.5q0 41 -8 69.5t-21.5 46.5t-32 26t-38.5 8q-33 0 -61.5 -16.5t-49 -44t-32.5 -64.5t-12 -78z" />
    <glyph glyph-name="colon" unicode=":" horiz-adv-x="329" 
d="M107 -13q-20 0 -37 7.5t-30 21t-20.5 31.5t-7.5 39q0 19 7.5 36.5t20.5 30.5t30 20.5t37 7.5q21 0 39 -7.5t31.5 -20.5t21 -30.5t7.5 -36.5q0 -42 -28.5 -70.5t-70.5 -28.5zM223 329q-20 0 -37 7.5t-30 21t-20.5 31.5t-7.5 39q0 19 7.5 36.5t20.5 30.5t30 20.5t37 7.5
q21 0 39 -7.5t31.5 -20.5t21 -30.5t7.5 -36.5q0 -42 -28.5 -70.5t-70.5 -28.5z" />
    <glyph glyph-name="semicolon" unicode=";" horiz-adv-x="337" 
d="M-41 -137q56 28 93.5 64t37.5 80q0 54 -84 71q4 27 15 45.5t26.5 30.5t34 17.5t37.5 5.5q41 0 70 -26.5t29 -74.5q0 -32 -16.5 -66t-48 -67t-76.5 -63.5t-103 -54.5zM225 329q-20 0 -37 7.5t-30 21t-20.5 31.5t-7.5 39q0 19 7.5 36.5t20.5 30.5t30 20.5t37 7.5
q21 0 39 -7.5t31.5 -20.5t21 -30.5t7.5 -36.5q0 -42 -28.5 -70.5t-70.5 -28.5z" />
    <glyph glyph-name="less" unicode="&#x3c;" horiz-adv-x="653" 
d="M38 297l527 225v-81l-423 -179l423 -179v-81l-527 226v69z" />
    <glyph glyph-name="equal" unicode="=" horiz-adv-x="653" 
d="M74 409h507v-75h-507v75zM74 179h507v-75h-507v75z" />
    <glyph glyph-name="greater" unicode="&#x3e;" horiz-adv-x="653" 
d="M623 228l-527 -226v81l423 179l-423 179v81l527 -225v-69z" />
    <glyph glyph-name="question" unicode="?" horiz-adv-x="631" 
d="M275 404q7 25 14.5 41.5t20 27.5t33 18t53.5 13l71 13q36 7 60 14t38 16t20 21t6 30q0 24 -12.5 46t-34.5 39.5t-52.5 28t-67.5 10.5q-77 0 -103 -48q-13 -23 -31.5 -40.5t-47.5 -17.5t-51.5 18t-22.5 47q0 45 56.5 71.5t157.5 26.5q61 0 114 -17t92 -48.5t61 -75.5
t22 -98q0 -28 -6 -51t-21.5 -41t-42 -30.5t-66.5 -20.5l-149 -29q-23 -5 -37 -9t-24 -10.5t-17 -17.5t-15 -30l-26 -60h-39zM207 -13q-20 0 -37 7.5t-30 21t-20.5 31.5t-7.5 39q0 19 7.5 36.5t20.5 30.5t30 20.5t37 7.5q21 0 39 -7.5t31.5 -20.5t21 -30.5t7.5 -36.5
q0 -42 -28.5 -70.5t-70.5 -28.5z" />
    <glyph glyph-name="at" unicode="@" horiz-adv-x="930" 
d="M463 -13q-69 0 -135.5 22t-119.5 63.5t-85.5 102t-32.5 138.5q0 93 42 177t112.5 148.5t162 102.5t190.5 38q62 0 124 -18.5t111.5 -55t80.5 -92t31 -128.5q0 -77 -27 -134.5t-74.5 -96.5t-111.5 -58.5t-138 -19.5q-61 0 -61 27q0 11 5.5 26t13.5 35l17 44h-5
q-46 -61 -92.5 -95.5t-105.5 -34.5q-40 0 -68.5 25.5t-28.5 73.5q0 36 17.5 76t46.5 78.5t66 73t77 60.5t79.5 41.5t72.5 15.5q43 0 82 -15t67 -31l-117 -302q-6 -16 -9 -24.5t-3 -13.5q0 -3 1.5 -4.5t7.5 -1.5q42 0 83 16t74 47.5t53 78.5t20 108q0 57 -23.5 102.5
t-63.5 77.5t-93.5 49.5t-114.5 17.5q-84 0 -159.5 -30.5t-132 -84t-89.5 -125.5t-33 -155q0 -60 20 -113t59 -92.5t96 -62.5t131 -23q28 0 57 3.5t55.5 9.5t48.5 13.5t36 14.5l19 -45q-18 -9 -44 -18t-57 -16t-65.5 -11.5t-69.5 -4.5zM429 251q14 0 37 10.5t49.5 34.5
t53.5 64t50 99l37 97q-8 21 -42 21t-73 -26.5t-72 -67t-55 -89t-22 -93.5q0 -50 37 -50z" />
    <glyph glyph-name="A" unicode="A" horiz-adv-x="761" 
d="M469 758h135l79 -758h-160l-27 261h-290l-186 -261h-93zM488 335l-29 282l-201 -282h230z" />
    <glyph glyph-name="B" unicode="B" horiz-adv-x="746" 
d="M20 0l232 758h253q125 0 190 -34.5t65 -103.5q0 -34 -15.5 -68t-50 -63.5t-89.5 -51.5t-133 -31v-2q109 -2 168 -40.5t59 -108.5q0 -53 -27 -99.5t-78 -81t-124.5 -54.5t-166.5 -20h-283zM398 433q54 0 91.5 16t60 40.5t32.5 53t10 52.5q0 45 -28.5 70t-87.5 25h-86
l-78 -257h86zM290 68q60 0 103.5 16.5t72 43.5t42.5 62t14 73q0 54 -38.5 81t-110.5 27h-80l-93 -303h90z" />
    <glyph glyph-name="C" unicode="C" horiz-adv-x="826" 
d="M441 -13q-73 0 -138.5 21.5t-114.5 62.5t-78 101t-29 137q0 99 45.5 184.5t120 149t170 100t194.5 36.5q73 0 140 -15t111 -41l-29 -241h-45l-25 157q-4 22 -15 35.5t-28 21.5t-44.5 12.5t-58.5 4.5q-70 0 -134.5 -30t-114.5 -86.5t-80 -138t-30 -183.5q0 -108 45.5 -165
t149.5 -57q26 0 53.5 2.5t43.5 9.5q11 5 22.5 12.5t22.5 20.5l158 186h45l-136 -264q-20 -7 -46 -13t-55.5 -10.5t-60.5 -7t-59 -2.5z" />
    <glyph glyph-name="D" unicode="D" horiz-adv-x="854" 
d="M20 0l232 758h222q91 0 163.5 -18.5t122.5 -53t77 -85.5t27 -115q0 -84 -40 -170.5t-116.5 -156.5t-186.5 -114.5t-251 -44.5h-250zM283 69q100 0 175.5 38.5t126 99.5t76 136t25.5 148q0 55 -15 92.5t-43 61t-66.5 34t-84.5 10.5h-87l-189 -620h82z" />
    <glyph glyph-name="E" unicode="E" horiz-adv-x="665" 
d="M252 758h520l-23 -74h-360l-78 -254h299l-22 -74h-299l-86 -282h360l-23 -74h-520z" />
    <glyph glyph-name="F" unicode="F" horiz-adv-x="661" 
d="M252 758h534l-23 -74h-374l-78 -254h333l-22 -74h-333l-109 -356h-160z" />
    <glyph glyph-name="G" unicode="G" horiz-adv-x="853" 
d="M258 275q0 -108 46.5 -164t150.5 -56q23 0 53 2.5t57 10.5l95 250h-185l26 74h345l-132 -357q-57 -22 -128.5 -35t-144.5 -13t-138.5 21.5t-114.5 62.5t-78 101t-29 137q0 66 20.5 126.5t57.5 112.5t87.5 94.5t110.5 73t126.5 47t135.5 16.5q73 0 141 -15t112 -41
l-29 -225h-45l-25 141q-4 22 -15 35.5t-28 21.5t-45.5 12.5t-59.5 4.5q-74 0 -140.5 -30t-117 -86.5t-80 -138t-29.5 -183.5z" />
    <glyph glyph-name="H" unicode="H" horiz-adv-x="864" 
d="M252 758h160l-101 -328h351l101 328h160l-232 -758h-160l109 356h-351l-109 -356h-160z" />
    <glyph glyph-name="I" unicode="I" horiz-adv-x="353" 
d="M252 758h160l-232 -758h-160z" />
    <glyph glyph-name="J" unicode="J" horiz-adv-x="357" 
d="M-150 -109q43 30 77.5 54t62 51.5t49 65t39.5 94.5l184 602h160l-182 -595q-12 -41 -30.5 -71.5t-41.5 -54.5t-52 -44.5t-62 -39.5q-32 -19 -81.5 -46t-102.5 -53z" />
    <glyph glyph-name="K" unicode="K" horiz-adv-x="785" 
d="M252 758h160l-113 -370l11 6l499 364h121l-475 -347l275 -411h-190l-246 373l-114 -373h-160z" />
    <glyph glyph-name="L" unicode="L" horiz-adv-x="618" 
d="M252 758h160l-209 -684h350l-23 -74h-510z" />
    <glyph glyph-name="M" unicode="M" horiz-adv-x="1011" 
d="M101 0h-81l232 758h142l127 -440l389 440h160l-232 -758h-160l178 582l-384 -433h-66l-127 433z" />
    <glyph glyph-name="N" unicode="N" horiz-adv-x="843" 
d="M652 207l169 551h81l-232 -758h-81l-320 553l-168 -553h-81l232 758h81z" />
    <glyph glyph-name="O" unicode="O" horiz-adv-x="891" 
d="M374 -13q-64 0 -119.5 18t-96.5 53.5t-64.5 87.5t-23.5 120q0 56 17 115.5t49.5 116.5t79 108t105.5 89.5t129 61t150 22.5q64 0 119 -18t96 -53.5t64.5 -87.5t23.5 -120q0 -56 -17 -115.5t-49 -116.5t-78.5 -108t-105.5 -89.5t-129 -61t-150 -22.5zM404 49
q62 0 119.5 35t102 95.5t71 141.5t26.5 173q0 44 -7 84.5t-24.5 71t-47 49t-74.5 18.5q-62 0 -120 -35t-102 -95.5t-70.5 -141.5t-26.5 -173q0 -44 7 -84.5t24.5 -71.5t47 -49t74.5 -18z" />
    <glyph glyph-name="P" unicode="P" horiz-adv-x="743" 
d="M252 758h269q66 0 119.5 -8.5t92 -27.5t59.5 -50t21 -75q0 -58 -26 -107t-78 -84.5t-128.5 -55.5t-178.5 -20h-121l-101 -330h-160zM302 399h115q61 0 102.5 18.5t67.5 46.5t37.5 59.5t11.5 58.5q0 59 -32 83.5t-100 24.5h-113z" />
    <glyph glyph-name="Q" unicode="Q" horiz-adv-x="891" 
d="M374 -13q-64 0 -119.5 18t-96.5 53.5t-64.5 87.5t-23.5 120q0 56 17 115.5t49.5 116.5t79 108t105.5 89.5t129 61t150 22.5q64 0 119 -18t96 -53.5t64.5 -87.5t23.5 -120q0 -60 -19.5 -124.5t-56.5 -125t-90 -113t-120 -88.5l87 -134l-64 -45l-95 146
q-40 -14 -82.5 -21.5t-88.5 -7.5zM404 49q53 0 103 26l-79 122l64 45l79 -123q33 30 61 70.5t48.5 88.5t31.5 102.5t11 113.5q0 44 -7 84.5t-24.5 71t-47 49t-74.5 18.5q-62 0 -120 -35t-102 -95.5t-70.5 -141.5t-26.5 -173q0 -44 7 -84.5t24.5 -71.5t47 -49t74.5 -18z" />
    <glyph glyph-name="R" unicode="R" horiz-adv-x="780" 
d="M252 758h245q135 0 205.5 -40t70.5 -115q0 -35 -14.5 -71t-46.5 -67t-83 -54.5t-124 -34.5l237 -376h-186l-219 353h-49l-108 -353h-160zM394 422q55 0 93.5 16.5t62.5 42t35 56t11 59.5q0 46 -29 70t-100 24h-76l-81 -268h84z" />
    <glyph glyph-name="S" unicode="S" horiz-adv-x="629" 
d="M218 -13q-25 0 -53.5 3t-57 9t-56.5 15.5t-52 23.5l60 232h45l3 -146q1 -21 7.5 -35.5t21.5 -23.5q14 -8 41.5 -11t56.5 -3q35 0 67 8t56.5 23.5t39 37.5t14.5 51q0 36 -20.5 71.5t-69.5 86.5l-52 54q-31 32 -53 73.5t-22 90.5q0 48 24.5 90.5t66.5 74t99.5 49.5
t123.5 18q46 0 93.5 -12t81.5 -31l-42 -219h-45l-12 133q-3 32 -22 48q-11 9 -35.5 13t-46.5 4q-31 0 -56.5 -8t-44 -23t-28.5 -35t-10 -44q0 -28 12.5 -53t42.5 -57l55 -57q31 -33 52 -59t33 -49t17 -44.5t5 -45.5q0 -57 -26.5 -103.5t-72.5 -79.5t-108 -51.5t-133 -18.5z
" />
    <glyph glyph-name="T" unicode="T" horiz-adv-x="722" 
d="M412 684h-271l23 74h702l-23 -74h-271l-209 -684h-160z" />
    <glyph glyph-name="U" unicode="U" horiz-adv-x="828" 
d="M347 -13q-76 0 -133.5 17t-90.5 54t-40 94.5t18 138.5l143 467h160l-144 -469q-20 -66 -20 -109t18 -68.5t53 -36t84 -10.5q59 0 103.5 16t78.5 47t58 76.5t42 104.5l138 449h81l-142 -465q-24 -78 -59 -136t-84 -95.5t-114 -56t-150 -18.5z" />
    <glyph glyph-name="V" unicode="V" horiz-adv-x="747" 
d="M154 758h165l75 -555l415 555h95l-567 -758h-79z" />
    <glyph glyph-name="W" unicode="W" horiz-adv-x="1088" 
d="M167 758h160l15 -519l342 519h66l55 -531l332 531h95l-479 -758h-79l-57 523l-346 -523h-80z" />
    <glyph glyph-name="X" unicode="X" horiz-adv-x="774" 
d="M358 385l-160 373h180l112 -261l305 261h122l-394 -337l180 -421h-180l-132 308l-361 -308h-122z" />
    <glyph glyph-name="Y" unicode="Y" horiz-adv-x="782" 
d="M395 0h-160l105 342l-180 416h178l142 -332l349 332h105l-435 -417z" />
    <glyph glyph-name="Z" unicode="Z" horiz-adv-x="679" 
d="M-35 71l625 613h-386l23 74h575l-22 -71l-625 -613h429l-23 -74h-618z" />
    <glyph glyph-name="bracketleft" unicode="[" horiz-adv-x="326" 
d="M287 826h213l-15 -45l-38 -2q-24 -1 -41 -5.5t-29.5 -14t-21.5 -25t-17 -39.5l-276 -802q-17 -48 -6.5 -65t57.5 -19l36 -2l-15 -45h-213z" />
    <glyph glyph-name="backslash" unicode="\" horiz-adv-x="736" 
d="M528 -52l-343 858h100l343 -858h-100z" />
    <glyph glyph-name="bracketright" unicode="]" horiz-adv-x="325" 
d="M66 -238h-213l15 45l38 2q24 1 41 5.5t29.5 14t21.5 25t17 39.5l276 802q17 48 6.5 65t-57.5 19l-36 2l15 45h213z" />
    <glyph glyph-name="asciicircum" unicode="^" horiz-adv-x="653" 
d="M469 776h74l63 -415h-74l-48 333l-278 -333h-86z" />
    <glyph glyph-name="underscore" unicode="_" horiz-adv-x="536" 
d="M-97 -75h534l-24 -71h-534z" />
    <glyph glyph-name="grave" unicode="`" 
d="M63 609l-159 168l4 11h132l58 -179h-35z" />
    <glyph glyph-name="a" unicode="a" horiz-adv-x="582" 
d="M268 0l64 159h-2q-19 -30 -42.5 -60.5t-51.5 -55t-61 -40.5t-70 -16q-48 0 -73 32t-25 84q0 44 17 92.5t45.5 94.5t66 87.5t78.5 73t83.5 50t80.5 18.5q29 0 44.5 -12.5t22.5 -30.5h1l17 44h148l-200 -520h-143zM193 65q18 0 45 25.5t54.5 64.5t53 84.5t41.5 84.5
q18 45 24.5 75t4.5 47.5t-12.5 24.5t-26.5 7q-25 0 -50.5 -17.5t-49 -47t-43.5 -67t-35.5 -77.5t-24 -79.5t-8.5 -71.5q0 -26 6 -39.5t21 -13.5z" />
    <glyph glyph-name="b" unicode="b" horiz-adv-x="584" 
d="M149 -13q-35 0 -65 5.5t-48.5 21t-22 44t13.5 75.5l238 647h150l-125 -336l-54 -117h2q33 48 63 84t59 60t59 36t64 12q29 0 49 -8.5t32 -23.5t17 -34.5t5 -41.5q0 -46 -19.5 -95.5t-52.5 -97t-76.5 -89.5t-92 -73.5t-99 -50t-97.5 -18.5zM177 28q26 0 54.5 18t55.5 47.5
t51.5 68t43 79.5t29.5 81.5t11 74.5q0 37 -25 37q-21 0 -50.5 -25t-59.5 -63.5t-57 -83.5t-42 -84q-18 -45 -28.5 -74.5t-13 -46t5 -23t25.5 -6.5z" />
    <glyph glyph-name="c" unicode="c" horiz-adv-x="498" 
d="M179 -13q-74 0 -115.5 39t-41.5 112q0 68 30.5 136t79.5 122.5t110.5 88.5t124.5 34q24 0 48 -5.5t43 -16.5t30.5 -27.5t11.5 -38.5q0 -40 -37.5 -64.5t-103.5 -16.5q10 38 12 63t-1 39.5t-11 20t-19 5.5q-23 0 -50.5 -25.5t-51 -68.5t-39 -98t-15.5 -114t16.5 -85
t51.5 -26q20 0 41 10t41.5 27.5t40 40t36.5 48.5l36 -26q-26 -41 -53.5 -73t-59 -54.5t-69.5 -34.5t-86 -12z" />
    <glyph glyph-name="d" unicode="d" horiz-adv-x="589" 
d="M290 0l63 170h-2q-57 -85 -114 -134t-127 -49q-48 0 -75 30.5t-27 83.5q0 46 16.5 95t44.5 95.5t65 87.5t77.5 72.5t82.5 49.5t80 18q27 0 44 -10t27 -29h1l96 278h148l-261 -758h-139zM197 69q21 0 46.5 21t52 55.5t51.5 78t45 89.5q19 45 25.5 76t3.5 51t-15 29t-29 9
q-26 0 -52 -17t-49.5 -45.5t-43 -65.5t-34 -76.5t-22.5 -79t-8 -72.5q0 -31 8 -42t21 -11z" />
    <glyph glyph-name="e" unicode="e" horiz-adv-x="515" 
d="M178 -13q-72 0 -114.5 39t-42.5 112t34.5 141.5t88 122t118 85.5t124.5 32q68 0 102 -28.5t34 -70.5q0 -28 -13.5 -58.5t-37.5 -54.5l-265 -2q-11 -30 -17 -63.5t-6 -69.5q0 -59 18 -85t50 -26q21 0 42 10.5t41 28t39 40t36 46.5l36 -25q-27 -39 -54 -71t-58.5 -55
t-69 -35.5t-85.5 -12.5zM380 478q-42 0 -85.5 -37t-73.5 -99h33q40 0 71 9.5t52.5 24t32.5 32.5t11 36q0 34 -41 34z" />
    <glyph glyph-name="f" unicode="f" horiz-adv-x="433" 
d="M181 424h-90l30 78h90q68 139 168.5 208.5t214.5 69.5h12l-55 -142h-128q-27 0 -51 -5t-36.5 -20t-10.5 -41.5t27 -69.5h158l-30 -78h-151l-163 -424h-148z" />
    <glyph glyph-name="g" unicode="g" horiz-adv-x="534" 
d="M234 167q-46 0 -83 14q-15 -5 -22.5 -13.5t-7.5 -19.5q0 -26 34 -45l129 -73q73 -41 106.5 -72.5t33.5 -68.5q0 -39 -25.5 -67t-65 -47t-88 -28t-94.5 -9q-62 0 -112 9.5t-85 26.5t-54 40.5t-19 52.5q0 43 52.5 75t151.5 37l-8 4q-29 16 -43 40.5t-14 49.5q0 36 29.5 68
t86.5 46q-32 16 -49 42t-17 61q0 45 22 86t59 73t86 51t103 19q48 0 84 -14.5t56 -40.5l49 92h123l-54 -99h-113q18 -26 18 -61q0 -45 -22 -86t-59 -73t-85.5 -51t-102.5 -19zM267 210q42 0 68.5 47t26.5 125q0 43 -13.5 68.5t-42.5 25.5q-42 0 -68.5 -47t-26.5 -125
q0 -43 13.5 -68.5t42.5 -25.5zM-23 -113q0 -25 14 -45t38 -33.5t56.5 -20.5t69.5 -7q138 0 138 52q0 7 -2.5 14t-11 16t-25 20.5t-44.5 26.5l-108 59q-21 -2 -43.5 -9.5t-40.5 -18t-29.5 -24.5t-11.5 -30z" />
    <glyph glyph-name="h" unicode="h" horiz-adv-x="619" 
d="M250 758h148l-155 -450l-32 -91h1q28 47 49 81.5t43 67.5q28 43 52.5 72t48 47t47.5 26t51 8q30 0 52.5 -12.5t34.5 -36.5t11 -58.5t-18 -78.5l-127 -333h-150l126 331q13 34 19 57t6.5 36t-4.5 18.5t-13 5.5q-23 0 -54.5 -35t-69.5 -95q-23 -35 -49 -77t-50.5 -84.5
t-46 -83t-33.5 -73.5h-148z" />
    <glyph glyph-name="i" unicode="i" horiz-adv-x="297" 
d="M171 502h148l-192 -502h-148zM210 700q0 18 7.5 35t20.5 30t30 20.5t35 7.5q19 0 36 -7.5t30 -20.5t20.5 -30t7.5 -35q0 -19 -7.5 -36t-20.5 -30t-30 -20.5t-36 -7.5q-18 0 -35 7.5t-30 20.5t-20.5 30t-7.5 36z" />
    <glyph glyph-name="j" unicode="j" horiz-adv-x="306" 
d="M-245 -228q46 30 82.5 54.5t66 53.5t53.5 67t46 95l177 460h148l-174 -453q-15 -41 -30.5 -69.5t-35 -51t-44.5 -41t-60 -37.5q-17 -9 -42 -23t-54 -29t-59.5 -30.5t-57.5 -28.5zM218 700q0 18 7.5 35t20.5 30t30 20.5t35 7.5q19 0 36 -7.5t30 -20.5t20.5 -30t7.5 -35
q0 -19 -7.5 -36t-20.5 -30t-30 -20.5t-36 -7.5q-18 0 -35 7.5t-30 20.5t-20.5 30t-7.5 36z" />
    <glyph glyph-name="k" unicode="k" horiz-adv-x="596" 
d="M257 780h148l-175 -508l321 230h107l-293 -211l161 -291h-164l-139 251l-86 -251h-148z" />
    <glyph glyph-name="l" unicode="l" horiz-adv-x="297" 
d="M257 780h148l-268 -780h-148z" />
    <glyph glyph-name="m" unicode="m" horiz-adv-x="930" 
d="M172 502h146l-115 -285h1q28 47 49 81.5t43 67.5q28 43 52.5 72t48 47t47.5 26t51 8q30 0 52 -12.5t32.5 -36.5t9 -58.5t-18.5 -78.5l-48 -116h1q28 47 49 81.5t43 67.5q28 43 52.5 72t48 47t47.5 26t51 8q30 0 52.5 -12.5t34.5 -36.5t11 -58.5t-18 -78.5l-127 -333h-150
l126 331q13 34 19 57t6.5 36t-4.5 18.5t-13 5.5q-23 0 -54.5 -35t-69.5 -95q-23 -35 -49 -77t-50.5 -84.5t-46 -83t-33.5 -73.5h-150l126 331q13 34 19 57t6.5 36t-4.5 18.5t-13 5.5q-23 0 -54.5 -35t-69.5 -95q-23 -35 -49 -77t-50.5 -84.5t-46 -83t-33.5 -73.5h-150z" />
    <glyph glyph-name="n" unicode="n" horiz-adv-x="611" 
d="M298 0l126 331q13 34 19 57t6.5 36t-4.5 18.5t-13 5.5q-23 0 -54.5 -35t-69.5 -95q-23 -35 -49 -77t-50.5 -84.5t-46 -83t-33.5 -73.5h-150l193 502h146l-115 -285h1q28 47 49 81.5t43 67.5q28 43 52.5 72t48 47t47.5 26t51 8q30 0 52.5 -12.5t34.5 -36.5t11 -58.5
t-18 -78.5l-127 -333h-150z" />
    <glyph glyph-name="o" unicode="o" horiz-adv-x="564" 
d="M175 -13q-38 0 -67.5 11.5t-49 31.5t-29.5 46t-10 56q0 68 31 137t82.5 124.5t119 90.5t140.5 35q38 0 67.5 -11.5t49 -31.5t29.5 -46t10 -56q0 -68 -31 -137t-82.5 -124.5t-119 -90.5t-140.5 -35zM236 40q22 0 48 20t48 60t36.5 100.5t14.5 140.5q0 57 -14.5 81
t-37.5 24q-22 0 -48 -20t-48 -60t-36.5 -100.5t-14.5 -140.5q0 -57 14.5 -81t37.5 -24z" />
    <glyph glyph-name="p" unicode="p" horiz-adv-x="584" 
d="M162 502h148l-25 -74q28 36 70 63.5t90 27.5q66 0 98.5 -34.5t32.5 -90.5q0 -72 -36 -144t-97 -130.5t-141.5 -95t-168.5 -36.5l-81 -236h-148zM335 435q-14 0 -28.5 -4.5t-25.5 -13.5l-138 -399q52 4 100.5 40t85.5 86t59 105.5t22 99.5q0 48 -20.5 67t-54.5 19z" />
    <glyph glyph-name="q" unicode="q" horiz-adv-x="590" 
d="M286 18q13 38 29.5 72.5t33.5 68.5h-2q-56 -84 -111.5 -128t-125.5 -44q-48 0 -75 30.5t-27 83.5q0 46 16.5 95t44.5 95.5t65 87.5t77.5 72.5t82.5 49.5t80 18q27 0 44 -10t27 -29h1l14 39h148l-264 -767h-148zM197 69q21 0 46.5 21t52 55.5t51.5 78t45 89.5
q19 45 25.5 76t3.5 51t-15 29t-29 9q-26 0 -52 -17t-49.5 -45.5t-43 -65.5t-34 -76.5t-22.5 -79t-8 -72.5q0 -31 8 -42t21 -11z" />
    <glyph glyph-name="r" unicode="r" horiz-adv-x="470" 
d="M171 502h147l-109 -273h1l91 152q21 34 38 60t34.5 43.5t36.5 26t43 8.5q29 0 49 -17t20 -49q0 -38 -25 -65t-66 -35q-12 22 -20 36t-13 22t-8.5 10.5t-6.5 2.5q-5 0 -14 -9.5t-20 -25.5t-24.5 -37t-27.5 -43q-31 -50 -70 -111.5t-77 -133.5l-23 -64h-148z" />
    <glyph glyph-name="s" unicode="s" horiz-adv-x="448" 
d="M125 -13q-29 0 -54 7.5t-43 20t-28.5 29.5t-10.5 35q0 20 8.5 35.5t23 25t33 14.5t39.5 4q13 -40 21.5 -64.5t16 -38t15 -18t16.5 -4.5q12 0 25.5 3.5t25.5 11t19.5 18t7.5 25.5q0 23 -13.5 45.5t-37.5 51.5l-35 41q-26 31 -41 60.5t-15 58.5q0 37 21.5 68.5t56 54.5
t77 35.5t84.5 12.5q56 0 88.5 -21t32.5 -58q0 -14 -6 -29t-18.5 -26.5t-31 -18t-43.5 -3.5q-12 34 -20 55.5t-14.5 33.5t-13 16.5t-16.5 4.5q-11 0 -23.5 -3t-23 -9t-17.5 -15.5t-7 -22.5q0 -21 9.5 -40t35.5 -50l38 -45q13 -16 23.5 -29.5t17.5 -27t10.5 -27.5t3.5 -32
q0 -43 -21.5 -77.5t-56 -58.5t-76.5 -36.5t-83 -12.5z" />
    <glyph glyph-name="t" unicode="t" horiz-adv-x="432" 
d="M122 -13q-32 0 -50.5 9t-26 25t-5.5 38t13 48l128 317h-109l30 78h110l47 116h147l-46 -116h129l-31 -78h-129l-118 -295q-16 -40 -17.5 -56t14.5 -16q9 0 25 5.5t34.5 20.5t39 40.5t40.5 64.5l41 -16q-42 -86 -108.5 -135.5t-157.5 -49.5z" />
    <glyph glyph-name="u" unicode="u" horiz-adv-x="607" 
d="M319 502l-134 -331q-14 -34 -19.5 -56t-5 -34.5t5 -17.5t11.5 -5q23 0 54.5 35.5t69.5 95.5q22 35 48 76t50.5 83t46 81.5t35.5 72.5h149l-193 -502h-146l115 285h-1q-29 -47 -49.5 -81.5t-42.5 -67.5q-28 -43 -52.5 -71.5t-48 -46t-47.5 -24.5t-51 -7q-72 0 -93.5 47
t13.5 135l135 333h150z" />
    <glyph glyph-name="v" unicode="v" horiz-adv-x="541" 
d="M190 0h-53l-38 502h150l22 -313l283 313h89z" />
    <glyph glyph-name="w" unicode="w" horiz-adv-x="877" 
d="M256 189l261 313h83l11 -319l259 319h89l-408 -502h-74l-13 338l-280 -338h-75l7 502h148z" />
    <glyph glyph-name="x" unicode="x" horiz-adv-x="583" 
d="M-101 0l327 243l-63 259h157l39 -160l215 160h104l-303 -225l67 -277h-157l-43 178l-239 -178h-104z" />
    <glyph glyph-name="y" unicode="y" horiz-adv-x="557" 
d="M134 31l-28 471h149l19 -319l297 319h93l-698 -750h-92z" />
    <glyph glyph-name="z" unicode="z" horiz-adv-x="531" 
d="M-43 55l415 374h-243l29 73h436l-22 -55l-416 -374h259l-28 -73h-452z" />
    <glyph glyph-name="braceleft" unicode="{" horiz-adv-x="387" 
d="M204 -238q-43 5 -82.5 22.5t-64 48.5t-29 76.5t22.5 106.5l52 116q21 46 22 76t-11.5 48.5t-36.5 27.5t-54 14l14 41q33 5 62.5 13t53 25.5t39.5 46t23 75.5l10 70q16 118 88 186.5t209 67.5l3 -45q-45 -2 -73.5 -10.5t-45.5 -27t-25 -49t-13 -76.5l-5 -48
q-7 -68 -32.5 -114t-60 -75t-72.5 -43.5t-70 -17.5v-3q30 -3 59 -17.5t46 -43.5t16 -75.5t-32 -113.5l-43 -94q-16 -34 -23 -61.5t-2.5 -48.5t22 -35t50.5 -21z" />
    <glyph glyph-name="bar" unicode="|" horiz-adv-x="365" 
d="M150 826h91v-1064h-91v1064z" />
    <glyph glyph-name="braceright" unicode="}" horiz-adv-x="387" 
d="M210 823q43 -5 82.5 -22.5t64 -48.5t29 -76.5t-22.5 -106.5l-52 -116q-21 -46 -22 -76t11.5 -48.5t36.5 -27.5t54 -14l-14 -41q-33 -5 -62.5 -13t-53 -25.5t-39.5 -46t-23 -75.5l-10 -70q-16 -118 -88 -186.5t-209 -67.5l-3 45q45 2 73.5 10.5t45.5 27t25 49t13 76.5
l5 48q7 68 32.5 114t60 75t72.5 43.5t70 17.5v3q-30 3 -59 17.5t-46 43.5t-16 75.5t32 113.5l43 94q16 34 23 61.5t2.5 48.5t-22 35t-50.5 21z" />
    <glyph glyph-name="asciitilde" unicode="~" horiz-adv-x="653" 
d="M209 338q42 0 75.5 -13.5t62 -29.5t54 -29.5t52.5 -13.5q28 0 51.5 17.5t25.5 63.5h75q-2 -33 -14.5 -60.5t-32.5 -47.5t-47 -31t-59 -11q-37 0 -68 13.5t-60 29.5t-57.5 29.5t-58.5 13.5q-14 0 -27.5 -4t-24 -13.5t-17.5 -25t-8 -38.5h-75q2 33 14.5 60.5t32.5 47.5
t47 31t59 11z" />
    <glyph glyph-name="uni00A0" unicode="&#xa0;" horiz-adv-x="270" 
 />
    <glyph glyph-name="exclamdown" unicode="&#xa1;" horiz-adv-x="294" 
d="M210 523q19 0 36.5 -7.5t30.5 -21t20.5 -31.5t7.5 -39q0 -20 -7.5 -37t-20.5 -30t-30.5 -20.5t-36.5 -7.5q-21 0 -39 7.5t-31.5 20.5t-21 30t-7.5 37q0 42 28.5 70.5t70.5 28.5zM179 269q-19 -66 -29 -113t-15 -84.5t-8 -68.5t-8 -65t-15 -75.5t-29 -97.5
q-4 -12 -20 -19.5t-37 -10.5t-44 -1.5t-40.5 8t-27 18t-3.5 28.5q17 51 34 88.5t34.5 69t35.5 61.5t38 66t42 83t48 113h44z" />
    <glyph glyph-name="cent" unicode="&#xa2;" horiz-adv-x="521" 
d="M180 -13q-72 2 -111.5 40.5t-39.5 110.5q0 63 27 127t70.5 117t99.5 89t115 45l32 104h50l-31 -102q22 -2 43 -8.5t37 -17t25.5 -26t9.5 -35.5q0 -40 -37.5 -64.5t-103.5 -16.5q10 38 12 63t-1 39.5t-11 20t-19 5.5q-23 0 -50.5 -25.5t-51 -68.5t-39 -98t-15.5 -114
t16.5 -85t51.5 -26q20 0 41 10t41.5 27.5t40 40t36.5 48.5l36 -26q-46 -72 -96.5 -116t-125.5 -55l-34 -110h-50z" />
    <glyph glyph-name="sterling" unicode="&#xa3;" horiz-adv-x="658" 
d="M-39 4l203 142q60 42 98.5 80.5t38.5 76.5v7h-180l23 68h148q-4 15 -14 29l-29 45q-14 23 -29 51.5t-15 61.5q0 38 28 76t73 69t102 50t115 19q85 0 128 -25t43 -70q0 -29 -20 -48.5t-49 -19.5q-18 0 -29.5 6t-19 15.5t-13.5 21.5t-14 23q-11 15 -32 26t-55 11
q-49 0 -80.5 -25t-31.5 -62q0 -32 14.5 -54t26.5 -42l30 -48q11 -18 21 -44t10 -52q0 -10 -1 -14h150l-25 -68h-151q-22 -31 -61.5 -62t-98.5 -70l-78 -52h393l-69 -126h-551z" />
    <glyph glyph-name="yen" unicode="&#xa5;" horiz-adv-x="832" 
d="M139 227h186l24 79h-186l20 68h163l-166 384h178l142 -332l349 332h105l-401 -384h160l-20 -68h-185l-24 -79h185l-21 -68h-185l-48 -159h-160l49 159h-186z" />
    <glyph glyph-name="brokenbar" unicode="&#xa6;" horiz-adv-x="365" 
d="M150 826h91v-421h-91v421zM150 183h91v-421h-91v421z" />
    <glyph glyph-name="section" unicode="&#xa7;" horiz-adv-x="649" 
d="M151 -196q-45 0 -83 9.5t-65 26.5t-42 41.5t-15 53.5t21 50.5t55 21.5q20 0 32.5 -7.5t21 -20.5t15 -30t14.5 -36q4 -11 10 -22t14.5 -20t21 -14.5t31.5 -5.5q30 0 54 19.5t40 48.5t24.5 64t8.5 67q0 40 -10.5 72t-34.5 71l-54 87q-26 43 -43 87.5t-17 97.5q0 66 32 123
t85.5 99.5t124 67t148.5 24.5q88 0 139.5 -31t51.5 -85q0 -33 -22.5 -51.5t-54.5 -18.5q-18 0 -31 8t-22 20t-15.5 25l-11.5 23q-12 24 -30 40.5t-52 16.5q-33 0 -57 -13.5t-39.5 -35.5t-23.5 -50t-8 -56q0 -40 12.5 -73t35.5 -69l53 -87q16 -27 29.5 -50.5t23 -47.5
t14.5 -49t5 -55q0 -61 -29 -121t-81 -108t-122.5 -77.5t-153.5 -29.5zM303 -117q45 25 74.5 54.5t47 62t24 65t6.5 63.5q0 25 -6.5 49t-16.5 46t-22.5 42.5t-24.5 40.5l-54 87q-19 30 -31 62.5t-12 70.5q0 22 2 45t9 45t21 42.5t37 37.5q-41 -21 -66.5 -47t-39 -54t-18 -55
t-4.5 -49q0 -41 14.5 -78t34.5 -69l54 -87q27 -44 44 -83.5t17 -84.5q0 -25 -3 -52t-12.5 -54t-27.5 -52.5t-47 -47.5z" />
    <glyph glyph-name="dieresis" unicode="&#xa8;" 
d="M113 636q-29 0 -48.5 20t-19.5 49q0 30 19.5 49.5t48.5 19.5t48.5 -19.5t19.5 -49.5q0 -29 -19.5 -49t-48.5 -20zM-113 636q-29 0 -48.5 20t-19.5 49q0 30 19.5 49.5t48.5 19.5t48.5 -19.5t19.5 -49.5q0 -29 -19.5 -49t-48.5 -20z" />
    <glyph glyph-name="copyright" unicode="&#xa9;" horiz-adv-x="924" 
d="M503 -13q-83 0 -155.5 29t-126.5 81.5t-85.5 125t-31.5 160.5t31.5 160.5t85.5 125t126.5 81.5t155.5 29t155.5 -29t126.5 -81.5t85.5 -125t31.5 -160.5t-31.5 -160.5t-85.5 -125t-126.5 -81.5t-155.5 -29zM503 40q71 0 132.5 24.5t106.5 69t71 108t26 141.5t-26 141.5
t-71 108t-106.5 69t-132.5 24.5t-132.5 -24.5t-106.5 -69t-71 -108t-26 -141.5t26 -141.5t71 -108t106.5 -69t132.5 -24.5zM520 161q-56 0 -102 16.5t-80 46.5t-52.5 71.5t-18.5 91.5t19 91.5t53 71t81 46t103 16.5q35 0 70 -5t60 -12l26 -160h-27l-69 107q-9 14 -18.5 19.5
t-14.5 7.5q-7 2 -15.5 3t-16.5 1q-23 0 -47 -7t-44 -25t-32.5 -50t-12.5 -83q0 -42 8.5 -79.5t26.5 -66t45.5 -45.5t66.5 -17q19 0 30 3q7 2 15 7t19 21l69 106h27l-30 -159q-12 -3 -29 -6.5t-35.5 -5.5t-37.5 -3.5t-37 -1.5z" />
    <glyph glyph-name="ordfeminine" unicode="&#xaa;" horiz-adv-x="501" 
d="M322 370l46 114h-2q-14 -23 -31.5 -45.5t-38.5 -40t-46.5 -28.5t-55.5 -11q-38 0 -58.5 26.5t-20.5 68.5q0 36 13.5 74.5t36.5 76t53.5 71t63.5 58.5t67 40t65 15q21 0 33.5 -8.5t18.5 -21.5h1l12 32h128l-162 -421h-123zM270 426q13 0 33.5 21t42 52.5t41 67t31.5 65.5
q14 37 20 60.5t4.5 37t-9.5 19t-20 5.5q-29 0 -57.5 -30.5t-51.5 -75t-37.5 -94t-14.5 -87.5q0 -20 3.5 -30.5t14.5 -10.5z" />
    <glyph glyph-name="guillemotleft" unicode="&#xab;" horiz-adv-x="558" 
d="M44 251l280 233l36 -36l-190 -203l44 -208l-50 -18zM254 251l280 233l36 -36l-190 -203l44 -208l-50 -18z" />
    <glyph glyph-name="uni00AD" unicode="&#xad;" horiz-adv-x="432" 
d="M87 303h294l-28 -81h-294z" />
    <glyph glyph-name="registered" unicode="&#xae;" horiz-adv-x="924" 
d="M503 -13q-83 0 -155.5 29t-126.5 81.5t-85.5 125t-31.5 160.5t31.5 160.5t85.5 125t126.5 81.5t155.5 29t155.5 -29t126.5 -81.5t85.5 -125t31.5 -160.5t-31.5 -160.5t-85.5 -125t-126.5 -81.5t-155.5 -29zM503 40q71 0 132.5 24.5t106.5 69t71 108t26 141.5t-26 141.5
t-71 108t-106.5 69t-132.5 24.5t-132.5 -24.5t-106.5 -69t-71 -108t-26 -141.5t26 -141.5t71 -108t106.5 -69t132.5 -24.5zM328 180v430h152q89 0 137.5 -26.5t48.5 -80.5q0 -14 -4.5 -30.5t-15.5 -32t-30 -28t-48 -19.5l170 -213h-129l-155 198h-22v-198h-104zM471 424
q45 0 62.5 20t17.5 50t-17.5 50.5t-62.5 20.5h-39v-141h39z" />
    <glyph glyph-name="macron" unicode="&#xaf;" 
d="M-131 737h285l-23 -68h-285z" />
    <glyph glyph-name="degree" unicode="&#xb0;" horiz-adv-x="430" 
d="M320 441q-36 0 -67 13t-54 36t-36 54t-13 66t13 66t36 54t54 36t67 13t67 -13t54 -36t36 -54t13 -66t-13 -66t-36 -54t-54 -36t-67 -13zM320 504q20 0 38.5 7.5t32.5 21.5t22 33.5t8 43.5t-8 43.5t-22 33.5t-32.5 21.5t-38.5 7.5t-38.5 -7.5t-32.5 -21.5t-22 -33.5
t-8 -43.5t8 -43.5t22 -33.5t32.5 -21.5t38.5 -7.5z" />
    <glyph glyph-name="plusminus" unicode="&#xb1;" horiz-adv-x="653" 
d="M271 283h-209v75h209v158h79v-158h209v-75h-209v-163h-79v163zM62 75h497v-75h-497v75z" />
    <glyph glyph-name="uni00B2" unicode="&#xb2;" horiz-adv-x="353" 
d="M65 405q79 58 134.5 106.5t90 88t50.5 70.5t16 54q0 26 -14.5 40t-39.5 14q-26 0 -48.5 -17t-32.5 -64h-32q6 62 49 98t110 36q55 0 82.5 -24.5t27.5 -64.5q0 -48 -33.5 -87t-86.5 -74l-132 -87h188l-55 -93h-275z" />
    <glyph glyph-name="uni00B3" unicode="&#xb3;" horiz-adv-x="347" 
d="M204 393q-22 0 -42 5t-35 14t-23.5 22t-8.5 29q0 18 12.5 32t33.5 14q23 0 32.5 -13.5t16.5 -30.5q3 -7 6 -13.5t7.5 -12t12 -9t19.5 -3.5q10 0 22.5 5t23.5 16t18 29t7 44q0 44 -21.5 66t-51.5 22h-3.5t-6.5 -1l-4 30l35 8q16 4 34 9.5t33 15t25 23.5t10 34
q0 23 -14 36.5t-40 13.5q-24 0 -47 -14t-34 -59h-30q8 57 46 91.5t104 34.5q57 0 84 -23t27 -52q0 -28 -26 -53.5t-85 -34.5v-2q34 -19 48 -44.5t14 -53.5q0 -33 -17.5 -64.5t-46 -56t-64 -39.5t-71.5 -15z" />
    <glyph glyph-name="acute" unicode="&#xb4;" 
d="M-5 788h157l-4 -11l-257 -168h-39z" />
    <glyph glyph-name="paragraph" unicode="&#xb6;" horiz-adv-x="573" 
d="M284 286h-5q-43 0 -75 13t-53.5 36.5t-32.5 54.5t-11 67q0 59 28 113.5t80.5 96t128 66.5t170.5 25h106l-257 -846l-110 -63l137 449q-15 -5 -31 -7t-32 -3l-147 -480l-51 -31z" />
    <glyph glyph-name="periodcentered" unicode="&#xb7;" horiz-adv-x="311" 
d="M157 165q-20 0 -37 7.5t-30 21t-20.5 31.5t-7.5 39q0 19 7.5 36.5t20.5 30.5t30 20.5t37 7.5q21 0 39 -7.5t31.5 -20.5t21 -30.5t7.5 -36.5q0 -42 -28.5 -70.5t-70.5 -28.5z" />
    <glyph glyph-name="cedilla" unicode="&#xb8;" 
d="M-48 -265q-50 0 -78 21t-28 45q0 23 19 32.5t41 -1.5q-4 -34 15 -49.5t47 -15.5q43 0 43 27q0 20 -22 38.5t-63 46.5l143 121h48l-98 -83q23 -17 38.5 -37t15.5 -44q0 -45 -33 -73t-88 -28z" />
    <glyph glyph-name="uni00B9" unicode="&#xb9;" horiz-adv-x="247" 
d="M242 745l-80 -28l13 38l195 71l-147 -425h-100z" />
    <glyph glyph-name="ordmasculine" unicode="&#xba;" horiz-adv-x="475" 
d="M246 359q-31 0 -54.5 9.5t-39 25.5t-23.5 37t-8 44q0 55 25 111t67.5 101t97.5 73.5t115 28.5q31 0 54 -9.5t39 -25t24 -36.5t8 -44q0 -55 -25 -111t-67.5 -101.5t-97.5 -74t-115 -28.5zM299 407q16 0 35 16t35.5 47.5t28 79.5t11.5 113q0 42 -10 60t-26 18t-35.5 -16
t-36 -47.5t-27.5 -79.5t-11 -112q0 -42 10 -60.5t26 -18.5z" />
    <glyph glyph-name="guillemotright" unicode="&#xbb;" horiz-adv-x="558" 
d="M306 252l-280 -233l-36 36l190 203l-44 208l50 18zM516 252l-280 -233l-36 36l190 203l-44 208l50 18z" />
    <glyph glyph-name="onequarter" unicode="&#xbc;" horiz-adv-x="862" 
d="M224 685l-80 -28l13 38l195 71l-147 -425h-100zM758 758h113l-828 -758h-113zM620 101h-188l15 44l292 271h90l-87 -251h69l-22 -64h-69l-35 -101h-100zM642 165l53 154l-161 -154h108z" />
    <glyph glyph-name="onehalf" unicode="&#xbd;" horiz-adv-x="828" 
d="M224 685l-80 -28l13 38l195 71l-147 -425h-100zM758 758h113l-828 -758h-113zM418 4q79 58 134.5 106.5t90 88t50.5 70.5t16 54q0 26 -14.5 40t-39.5 14q-26 0 -48.5 -17t-32.5 -64h-32q6 62 49 98t110 36q55 0 82.5 -24.5t27.5 -64.5q0 -48 -33.5 -87t-86.5 -74
l-132 -87h188l-55 -93h-275z" />
    <glyph glyph-name="threequarters" unicode="&#xbe;" horiz-adv-x="951" 
d="M186 333q-22 0 -42 5t-35 14t-23.5 22t-8.5 29q0 18 12.5 32t33.5 14q23 0 32.5 -13.5t16.5 -30.5q3 -7 6 -13.5t7.5 -12t12 -9t19.5 -3.5q10 0 22.5 5t23.5 16t18 29t7 44q0 44 -21.5 66t-51.5 22h-3.5t-6.5 -1l-4 30l35 8q16 4 34 9.5t33 15t25 23.5t10 34
q0 23 -14 36.5t-40 13.5q-24 0 -47 -14t-34 -59h-30q8 57 46 91.5t104 34.5q57 0 84 -23t27 -52q0 -28 -26 -53.5t-85 -34.5v-2q34 -19 48 -44.5t14 -53.5q0 -33 -17.5 -64.5t-46 -56t-64 -39.5t-71.5 -15zM847 758h113l-828 -758h-113zM709 101h-188l15 44l292 271h90
l-87 -251h69l-22 -64h-69l-35 -101h-100zM731 165l53 154l-161 -154h108z" />
    <glyph glyph-name="questiondown" unicode="&#xbf;" horiz-adv-x="621" 
d="M250 -263q-62 0 -114.5 17t-91.5 48.5t-61 75.5t-22 98q0 28 6 51t21.5 41t42 30.5t66.5 20.5l149 29q23 4 37 8t24 11t17 18t15 30l24 54h39l-45 -157q-7 -25 -14.5 -41.5t-20 -27.5t-33 -18t-53.5 -13l-71 -13q-36 -7 -60 -14t-38 -16t-20 -21t-6 -30q0 -24 12.5 -46
t34.5 -39.5t52.5 -28t67.5 -10.5q77 0 103 48q13 23 31.5 40.5t47.5 17.5t51.5 -18t22.5 -47q0 -45 -56.5 -71.5t-157.5 -26.5zM421 523q19 0 36.5 -7.5t30.5 -21t20.5 -31.5t7.5 -39q0 -20 -7.5 -37t-20.5 -30t-30.5 -20.5t-36.5 -7.5q-21 0 -39 7.5t-31.5 20.5t-21 30
t-7.5 37q0 42 28.5 70.5t70.5 28.5z" />
    <glyph glyph-name="Agrave" unicode="&#xc0;" horiz-adv-x="761" 
d="M469 758h135l79 -758h-160l-27 261h-290l-186 -261h-93zM488 335l-29 282l-201 -282h230zM530 843l-185 126l1 3h168l51 -129h-35z" />
    <glyph glyph-name="Aacute" unicode="&#xc1;" horiz-adv-x="761" 
d="M469 758h135l79 -758h-160l-27 261h-290l-186 -261h-93zM488 335l-29 282l-201 -282h230zM606 972h181l-1 -3l-267 -126h-35z" />
    <glyph glyph-name="Acircumflex" unicode="&#xc2;" horiz-adv-x="761" 
d="M469 758h135l79 -758h-160l-27 261h-290l-186 -261h-93zM488 335l-29 282l-201 -282h230zM588 987h14l82 -154h-39l-71 58l-159 -58h-45z" />
    <glyph glyph-name="Atilde" unicode="&#xc3;" horiz-adv-x="761" 
d="M469 758h135l79 -758h-160l-27 261h-290l-186 -261h-93zM488 335l-29 282l-201 -282h230zM619 829q-24 0 -43.5 9t-37 20t-34.5 20t-37 9q-23 0 -40 -11t-27 -43h-30q9 72 41.5 109.5t83.5 37.5q24 0 42.5 -9t35 -20t33 -20t36.5 -9q21 0 35.5 11t22.5 39h30
q-7 -44 -18.5 -71.5t-26 -43.5t-31.5 -22t-35 -6z" />
    <glyph glyph-name="Adieresis" unicode="&#xc4;" horiz-adv-x="761" 
d="M469 758h135l79 -758h-160l-27 261h-290l-186 -261h-93zM488 335l-29 282l-201 -282h230zM666 837q-30 0 -50 20.5t-20 50.5q0 31 20 51t50 20q29 0 49.5 -20t20.5 -51q0 -30 -20.5 -50.5t-49.5 -20.5zM440 837q-30 0 -50 20.5t-20 50.5q0 31 20 51t50 20q29 0 49.5 -20
t20.5 -51q0 -30 -20.5 -50.5t-49.5 -20.5z" />
    <glyph glyph-name="Aring" unicode="&#xc5;" horiz-adv-x="761" 
d="M469 758h135l79 -758h-160l-27 261h-290l-186 -261h-93zM488 335l-29 282l-201 -282h230zM570 837q-26 0 -48.5 9.5t-39 25.5t-26.5 38t-10 47t10 47t26.5 38.5t39 26t48.5 9.5q27 0 50 -9.5t40 -26t27 -38.5t10 -47t-10 -47t-27 -38t-40 -25.5t-50 -9.5zM570 890
q32 0 49 18t17 49t-17 48.5t-49 17.5q-30 0 -47.5 -17.5t-17.5 -48.5t17.5 -49t47.5 -18z" />
    <glyph glyph-name="AE" unicode="&#xc6;" horiz-adv-x="1057" 
d="M644 758h520l-23 -74h-360l-78 -254h299l-22 -74h-299l-86 -282h360l-23 -74h-520l80 261h-237l-253 -261h-94zM327 335h188l86 282z" />
    <glyph glyph-name="Ccedilla" unicode="&#xc7;" horiz-adv-x="826" 
d="M441 -13q-73 0 -138.5 21.5t-114.5 62.5t-78 101t-29 137q0 99 45.5 184.5t120 149t170 100t194.5 36.5q73 0 140 -15t111 -41l-29 -241h-45l-25 157q-4 22 -15 35.5t-28 21.5t-44.5 12.5t-58.5 4.5q-70 0 -134.5 -30t-114.5 -86.5t-80 -138t-30 -183.5q0 -108 45.5 -165
t149.5 -57q26 0 53.5 2.5t43.5 9.5q11 5 22.5 12.5t22.5 20.5l158 186h45l-136 -264q-20 -7 -46 -13t-55.5 -10.5t-60.5 -7t-59 -2.5zM265 -265q-50 0 -78 21t-28 45q0 23 19 32.5t41 -1.5q-4 -34 15 -49.5t47 -15.5q43 0 43 27q0 20 -22 38.5t-63 46.5l143 121h48l-98 -83
q23 -17 38.5 -37t15.5 -44q0 -45 -33 -73t-88 -28z" />
    <glyph glyph-name="Egrave" unicode="&#xc8;" horiz-adv-x="665" 
d="M252 758h520l-23 -74h-360l-78 -254h299l-22 -74h-299l-86 -282h360l-23 -74h-520zM541 843l-185 126l1 3h168l51 -129h-35z" />
    <glyph glyph-name="Eacute" unicode="&#xc9;" horiz-adv-x="665" 
d="M252 758h520l-23 -74h-360l-78 -254h299l-22 -74h-299l-86 -282h360l-23 -74h-520zM617 972h181l-1 -3l-267 -126h-35z" />
    <glyph glyph-name="Ecircumflex" unicode="&#xca;" horiz-adv-x="665" 
d="M252 758h520l-23 -74h-360l-78 -254h299l-22 -74h-299l-86 -282h360l-23 -74h-520zM599 987h14l82 -154h-39l-71 58l-159 -58h-45z" />
    <glyph glyph-name="Edieresis" unicode="&#xcb;" horiz-adv-x="665" 
d="M252 758h520l-23 -74h-360l-78 -254h299l-22 -74h-299l-86 -282h360l-23 -74h-520zM677 837q-30 0 -50 20.5t-20 50.5q0 31 20 51t50 20q29 0 49.5 -20t20.5 -51q0 -30 -20.5 -50.5t-49.5 -20.5zM451 837q-30 0 -50 20.5t-20 50.5q0 31 20 51t50 20q29 0 49.5 -20
t20.5 -51q0 -30 -20.5 -50.5t-49.5 -20.5z" />
    <glyph glyph-name="Igrave" unicode="&#xcc;" horiz-adv-x="353" 
d="M252 758h160l-232 -758h-160zM349 843l-185 126l1 3h168l51 -129h-35z" />
    <glyph glyph-name="Iacute" unicode="&#xcd;" horiz-adv-x="353" 
d="M252 758h160l-232 -758h-160zM425 972h181l-1 -3l-267 -126h-35z" />
    <glyph glyph-name="Icircumflex" unicode="&#xce;" horiz-adv-x="353" 
d="M252 758h160l-232 -758h-160zM407 987h14l82 -154h-39l-71 58l-159 -58h-45z" />
    <glyph glyph-name="Idieresis" unicode="&#xcf;" horiz-adv-x="353" 
d="M252 758h160l-232 -758h-160zM485 837q-30 0 -50 20.5t-20 50.5q0 31 20 51t50 20q29 0 49.5 -20t20.5 -51q0 -30 -20.5 -50.5t-49.5 -20.5zM259 837q-30 0 -50 20.5t-20 50.5q0 31 20 51t50 20q29 0 49.5 -20t20.5 -51q0 -30 -20.5 -50.5t-49.5 -20.5z" />
    <glyph glyph-name="Eth" unicode="&#xd0;" horiz-adv-x="854" 
d="M20 0l232 758h222q91 0 163.5 -18.5t122.5 -53t77 -85.5t27 -115q0 -84 -40 -170.5t-116.5 -156.5t-186.5 -114.5t-251 -44.5h-250zM283 69q100 0 175.5 38.5t126 99.5t76 136t25.5 148q0 55 -15 92.5t-43 61t-66.5 34t-84.5 10.5h-87l-189 -620h82zM52 430h402l-23 -74
h-402z" />
    <glyph glyph-name="Ntilde" unicode="&#xd1;" horiz-adv-x="843" 
d="M652 207l169 551h81l-232 -758h-81l-320 553l-168 -553h-81l232 758h81zM692 829q-24 0 -43.5 9t-37 20t-34.5 20t-37 9q-23 0 -40 -11t-27 -43h-30q9 72 41.5 109.5t83.5 37.5q24 0 42.5 -9t35 -20t33 -20t36.5 -9q21 0 35.5 11t22.5 39h30q-7 -44 -18.5 -71.5
t-26 -43.5t-31.5 -22t-35 -6z" />
    <glyph glyph-name="Ograve" unicode="&#xd2;" horiz-adv-x="891" 
d="M374 -13q-64 0 -119.5 18t-96.5 53.5t-64.5 87.5t-23.5 120q0 56 17 115.5t49.5 116.5t79 108t105.5 89.5t129 61t150 22.5q64 0 119 -18t96 -53.5t64.5 -87.5t23.5 -120q0 -56 -17 -115.5t-49 -116.5t-78.5 -108t-105.5 -89.5t-129 -61t-150 -22.5zM404 49
q62 0 119.5 35t102 95.5t71 141.5t26.5 173q0 44 -7 84.5t-24.5 71t-47 49t-74.5 18.5q-62 0 -120 -35t-102 -95.5t-70.5 -141.5t-26.5 -173q0 -44 7 -84.5t24.5 -71.5t47 -49t74.5 -18zM630 843l-185 126l1 3h168l51 -129h-35z" />
    <glyph glyph-name="Oacute" unicode="&#xd3;" horiz-adv-x="891" 
d="M374 -13q-64 0 -119.5 18t-96.5 53.5t-64.5 87.5t-23.5 120q0 56 17 115.5t49.5 116.5t79 108t105.5 89.5t129 61t150 22.5q64 0 119 -18t96 -53.5t64.5 -87.5t23.5 -120q0 -56 -17 -115.5t-49 -116.5t-78.5 -108t-105.5 -89.5t-129 -61t-150 -22.5zM404 49
q62 0 119.5 35t102 95.5t71 141.5t26.5 173q0 44 -7 84.5t-24.5 71t-47 49t-74.5 18.5q-62 0 -120 -35t-102 -95.5t-70.5 -141.5t-26.5 -173q0 -44 7 -84.5t24.5 -71.5t47 -49t74.5 -18zM706 972h181l-1 -3l-267 -126h-35z" />
    <glyph glyph-name="Ocircumflex" unicode="&#xd4;" horiz-adv-x="891" 
d="M374 -13q-64 0 -119.5 18t-96.5 53.5t-64.5 87.5t-23.5 120q0 56 17 115.5t49.5 116.5t79 108t105.5 89.5t129 61t150 22.5q64 0 119 -18t96 -53.5t64.5 -87.5t23.5 -120q0 -56 -17 -115.5t-49 -116.5t-78.5 -108t-105.5 -89.5t-129 -61t-150 -22.5zM404 49
q62 0 119.5 35t102 95.5t71 141.5t26.5 173q0 44 -7 84.5t-24.5 71t-47 49t-74.5 18.5q-62 0 -120 -35t-102 -95.5t-70.5 -141.5t-26.5 -173q0 -44 7 -84.5t24.5 -71.5t47 -49t74.5 -18zM688 987h14l82 -154h-39l-71 58l-159 -58h-45z" />
    <glyph glyph-name="Otilde" unicode="&#xd5;" horiz-adv-x="891" 
d="M374 -13q-64 0 -119.5 18t-96.5 53.5t-64.5 87.5t-23.5 120q0 56 17 115.5t49.5 116.5t79 108t105.5 89.5t129 61t150 22.5q64 0 119 -18t96 -53.5t64.5 -87.5t23.5 -120q0 -56 -17 -115.5t-49 -116.5t-78.5 -108t-105.5 -89.5t-129 -61t-150 -22.5zM404 49
q62 0 119.5 35t102 95.5t71 141.5t26.5 173q0 44 -7 84.5t-24.5 71t-47 49t-74.5 18.5q-62 0 -120 -35t-102 -95.5t-70.5 -141.5t-26.5 -173q0 -44 7 -84.5t24.5 -71.5t47 -49t74.5 -18zM719 829q-24 0 -43.5 9t-37 20t-34.5 20t-37 9q-23 0 -40 -11t-27 -43h-30
q9 72 41.5 109.5t83.5 37.5q24 0 42.5 -9t35 -20t33 -20t36.5 -9q21 0 35.5 11t22.5 39h30q-7 -44 -18.5 -71.5t-26 -43.5t-31.5 -22t-35 -6z" />
    <glyph glyph-name="Odieresis" unicode="&#xd6;" horiz-adv-x="891" 
d="M374 -13q-64 0 -119.5 18t-96.5 53.5t-64.5 87.5t-23.5 120q0 56 17 115.5t49.5 116.5t79 108t105.5 89.5t129 61t150 22.5q64 0 119 -18t96 -53.5t64.5 -87.5t23.5 -120q0 -56 -17 -115.5t-49 -116.5t-78.5 -108t-105.5 -89.5t-129 -61t-150 -22.5zM404 49
q62 0 119.5 35t102 95.5t71 141.5t26.5 173q0 44 -7 84.5t-24.5 71t-47 49t-74.5 18.5q-62 0 -120 -35t-102 -95.5t-70.5 -141.5t-26.5 -173q0 -44 7 -84.5t24.5 -71.5t47 -49t74.5 -18zM766 837q-30 0 -50 20.5t-20 50.5q0 31 20 51t50 20q29 0 49.5 -20t20.5 -51
q0 -30 -20.5 -50.5t-49.5 -20.5zM540 837q-30 0 -50 20.5t-20 50.5q0 31 20 51t50 20q29 0 49.5 -20t20.5 -51q0 -30 -20.5 -50.5t-49.5 -20.5z" />
    <glyph glyph-name="multiply" unicode="&#xd7;" horiz-adv-x="653" 
d="M92 77l185 186l-185 185l53 53l185 -185l185 185l53 -53l-185 -185l185 -186l-53 -53l-185 185l-185 -185z" />
    <glyph glyph-name="Oslash" unicode="&#xd8;" horiz-adv-x="891" 
d="M374 -13q-64 0 -119.5 18t-96.5 53.5t-64.5 87.5t-23.5 120q0 56 17 115.5t49.5 116.5t79 108t105.5 89.5t129 61t150 22.5q64 0 119 -18t96 -53.5t64.5 -87.5t23.5 -120q0 -56 -17 -115.5t-49 -116.5t-78.5 -108t-105.5 -89.5t-129 -61t-150 -22.5zM404 49
q62 0 119.5 35t102 95.5t71 141.5t26.5 173q0 44 -7 84.5t-24.5 71t-47 49t-74.5 18.5q-62 0 -120 -35t-102 -95.5t-70.5 -141.5t-26.5 -173q0 -44 7 -84.5t24.5 -71.5t47 -49t74.5 -18zM32 -22l859 863l51 -51l-860 -862z" />
    <glyph glyph-name="Ugrave" unicode="&#xd9;" horiz-adv-x="828" 
d="M347 -13q-76 0 -133.5 17t-90.5 54t-40 94.5t18 138.5l143 467h160l-144 -469q-20 -66 -20 -109t18 -68.5t53 -36t84 -10.5q59 0 103.5 16t78.5 47t58 76.5t42 104.5l138 449h81l-142 -465q-24 -78 -59 -136t-84 -95.5t-114 -56t-150 -18.5zM599 843l-185 126l1 3h168
l51 -129h-35z" />
    <glyph glyph-name="Uacute" unicode="&#xda;" horiz-adv-x="828" 
d="M347 -13q-76 0 -133.5 17t-90.5 54t-40 94.5t18 138.5l143 467h160l-144 -469q-20 -66 -20 -109t18 -68.5t53 -36t84 -10.5q59 0 103.5 16t78.5 47t58 76.5t42 104.5l138 449h81l-142 -465q-24 -78 -59 -136t-84 -95.5t-114 -56t-150 -18.5zM675 972h181l-1 -3l-267 -126
h-35z" />
    <glyph glyph-name="Ucircumflex" unicode="&#xdb;" horiz-adv-x="828" 
d="M347 -13q-76 0 -133.5 17t-90.5 54t-40 94.5t18 138.5l143 467h160l-144 -469q-20 -66 -20 -109t18 -68.5t53 -36t84 -10.5q59 0 103.5 16t78.5 47t58 76.5t42 104.5l138 449h81l-142 -465q-24 -78 -59 -136t-84 -95.5t-114 -56t-150 -18.5zM657 987h14l82 -154h-39
l-71 58l-159 -58h-45z" />
    <glyph glyph-name="Udieresis" unicode="&#xdc;" horiz-adv-x="828" 
d="M347 -13q-76 0 -133.5 17t-90.5 54t-40 94.5t18 138.5l143 467h160l-144 -469q-20 -66 -20 -109t18 -68.5t53 -36t84 -10.5q59 0 103.5 16t78.5 47t58 76.5t42 104.5l138 449h81l-142 -465q-24 -78 -59 -136t-84 -95.5t-114 -56t-150 -18.5zM735 837q-30 0 -50 20.5
t-20 50.5q0 31 20 51t50 20q29 0 49.5 -20t20.5 -51q0 -30 -20.5 -50.5t-49.5 -20.5zM509 837q-30 0 -50 20.5t-20 50.5q0 31 20 51t50 20q29 0 49.5 -20t20.5 -51q0 -30 -20.5 -50.5t-49.5 -20.5z" />
    <glyph glyph-name="Yacute" unicode="&#xdd;" horiz-adv-x="782" 
d="M395 0h-160l105 342l-180 416h178l142 -332l349 332h105l-435 -417zM662 972h181l-1 -3l-267 -126h-35z" />
    <glyph glyph-name="Thorn" unicode="&#xde;" horiz-adv-x="753" 
d="M252 758h160l-52 -169h109q66 0 119.5 -8.5t92 -27.5t59.5 -50t21 -75q0 -58 -26 -107t-78 -84.5t-128.5 -55.5t-178.5 -20h-121l-49 -161h-160zM250 230h115q61 0 102.5 18.5t67.5 46.5t37.5 59.5t11.5 58.5q0 59 -32 83.5t-100 24.5h-113z" />
    <glyph glyph-name="germandbls" unicode="&#xdf;" horiz-adv-x="698" 
d="M373 -13q-72 0 -113.5 27.5t-41.5 68.5q0 30 18 46.5t46 16.5q15 0 25.5 -5.5t17.5 -14.5t12.5 -20.5t11.5 -23.5q8 -17 25 -29.5t41 -12.5q36 0 56.5 23t20.5 63q0 31 -9 60.5t-32 59.5l-18 24q-35 47 -54 82t-19 67q0 24 9 42t25 32t39 26.5t50 26.5l14 7
q51 26 75.5 53.5t23.5 65.5t-24.5 58t-72.5 20q-21 0 -42 -6t-41 -23t-39 -47.5t-36 -79.5l-204 -594h-148l182 529q27 78 64 131t82 85t98 45.5t113 13.5q94 0 144 -36t50 -88q0 -45 -31 -75t-85 -54l-38 -17q-37 -17 -53.5 -29.5t-16.5 -33.5q0 -16 12 -36t37 -53l18 -24
q29 -39 49 -76t20 -84q0 -44 -18.5 -82.5t-52 -67t-82 -45t-108.5 -16.5z" />
    <glyph glyph-name="agrave" unicode="&#xe0;" horiz-adv-x="582" 
d="M268 0l64 159h-2q-19 -30 -42.5 -60.5t-51.5 -55t-61 -40.5t-70 -16q-48 0 -73 32t-25 84q0 44 17 92.5t45.5 94.5t66 87.5t78.5 73t83.5 50t80.5 18.5q29 0 44.5 -12.5t22.5 -30.5h1l17 44h148l-200 -520h-143zM193 65q18 0 45 25.5t54.5 64.5t53 84.5t41.5 84.5
q18 45 24.5 75t4.5 47.5t-12.5 24.5t-26.5 7q-25 0 -50.5 -17.5t-49 -47t-43.5 -67t-35.5 -77.5t-24 -79.5t-8.5 -71.5q0 -26 6 -39.5t21 -13.5zM432 609l-159 168l4 11h132l58 -179h-35z" />
    <glyph glyph-name="aacute" unicode="&#xe1;" horiz-adv-x="582" 
d="M268 0l64 159h-2q-19 -30 -42.5 -60.5t-51.5 -55t-61 -40.5t-70 -16q-48 0 -73 32t-25 84q0 44 17 92.5t45.5 94.5t66 87.5t78.5 73t83.5 50t80.5 18.5q29 0 44.5 -12.5t22.5 -30.5h1l17 44h148l-200 -520h-143zM193 65q18 0 45 25.5t54.5 64.5t53 84.5t41.5 84.5
q18 45 24.5 75t4.5 47.5t-12.5 24.5t-26.5 7q-25 0 -50.5 -17.5t-49 -47t-43.5 -67t-35.5 -77.5t-24 -79.5t-8.5 -71.5q0 -26 6 -39.5t21 -13.5zM531 788h157l-4 -11l-257 -168h-39z" />
    <glyph glyph-name="acircumflex" unicode="&#xe2;" horiz-adv-x="582" 
d="M268 0l64 159h-2q-19 -30 -42.5 -60.5t-51.5 -55t-61 -40.5t-70 -16q-48 0 -73 32t-25 84q0 44 17 92.5t45.5 94.5t66 87.5t78.5 73t83.5 50t80.5 18.5q29 0 44.5 -12.5t22.5 -30.5h1l17 44h148l-200 -520h-143zM193 65q18 0 45 25.5t54.5 64.5t53 84.5t41.5 84.5
q18 45 24.5 75t4.5 47.5t-12.5 24.5t-26.5 7q-25 0 -50.5 -17.5t-49 -47t-43.5 -67t-35.5 -77.5t-24 -79.5t-8.5 -71.5q0 -26 6 -39.5t21 -13.5zM508 805h11l64 -196h-37l-67 79l-165 -79h-40z" />
    <glyph glyph-name="atilde" unicode="&#xe3;" horiz-adv-x="582" 
d="M268 0l64 159h-2q-19 -30 -42.5 -60.5t-51.5 -55t-61 -40.5t-70 -16q-48 0 -73 32t-25 84q0 44 17 92.5t45.5 94.5t66 87.5t78.5 73t83.5 50t80.5 18.5q29 0 44.5 -12.5t22.5 -30.5h1l17 44h148l-200 -520h-143zM193 65q18 0 45 25.5t54.5 64.5t53 84.5t41.5 84.5
q18 45 24.5 75t4.5 47.5t-12.5 24.5t-26.5 7q-25 0 -50.5 -17.5t-49 -47t-43.5 -67t-35.5 -77.5t-24 -79.5t-8.5 -71.5q0 -26 6 -39.5t21 -13.5zM540 645q-24 0 -43.5 9t-37 20t-34.5 20t-37 9q-23 0 -40 -11t-27 -43h-30q9 72 41.5 109.5t83.5 37.5q24 0 42.5 -9t35 -20
t33 -20t36.5 -9q21 0 35.5 11t22.5 39h30q-7 -44 -18.5 -71.5t-26 -43.5t-31.5 -22t-35 -6z" />
    <glyph glyph-name="adieresis" unicode="&#xe4;" horiz-adv-x="582" 
d="M268 0l64 159h-2q-19 -30 -42.5 -60.5t-51.5 -55t-61 -40.5t-70 -16q-48 0 -73 32t-25 84q0 44 17 92.5t45.5 94.5t66 87.5t78.5 73t83.5 50t80.5 18.5q29 0 44.5 -12.5t22.5 -30.5h1l17 44h148l-200 -520h-143zM193 65q18 0 45 25.5t54.5 64.5t53 84.5t41.5 84.5
q18 45 24.5 75t4.5 47.5t-12.5 24.5t-26.5 7q-25 0 -50.5 -17.5t-49 -47t-43.5 -67t-35.5 -77.5t-24 -79.5t-8.5 -71.5q0 -26 6 -39.5t21 -13.5zM574 636q-29 0 -48.5 20t-19.5 49q0 30 19.5 49.5t48.5 19.5t48.5 -19.5t19.5 -49.5q0 -29 -19.5 -49t-48.5 -20zM348 636
q-29 0 -48.5 20t-19.5 49q0 30 19.5 49.5t48.5 19.5t48.5 -19.5t19.5 -49.5q0 -29 -19.5 -49t-48.5 -20z" />
    <glyph glyph-name="aring" unicode="&#xe5;" horiz-adv-x="582" 
d="M268 0l64 159h-2q-19 -30 -42.5 -60.5t-51.5 -55t-61 -40.5t-70 -16q-48 0 -73 32t-25 84q0 44 17 92.5t45.5 94.5t66 87.5t78.5 73t83.5 50t80.5 18.5q29 0 44.5 -12.5t22.5 -30.5h1l17 44h148l-200 -520h-143zM193 65q18 0 45 25.5t54.5 64.5t53 84.5t41.5 84.5
q18 45 24.5 75t4.5 47.5t-12.5 24.5t-26.5 7q-25 0 -50.5 -17.5t-49 -47t-43.5 -67t-35.5 -77.5t-24 -79.5t-8.5 -71.5q0 -26 6 -39.5t21 -13.5zM461 585q-26 0 -48.5 9.5t-39 25.5t-26.5 38t-10 47t10 47t26.5 38.5t39 26t48.5 9.5q27 0 50 -9.5t40 -26t27 -38.5t10 -47
t-10 -47t-27 -38t-40 -25.5t-50 -9.5zM461 638q32 0 49 18t17 49t-17 48.5t-49 17.5q-30 0 -47.5 -17.5t-17.5 -48.5t17.5 -49t47.5 -18z" />
    <glyph glyph-name="ae" unicode="&#xe6;" horiz-adv-x="794" 
d="M110 -13q-48 0 -75.5 29t-27.5 92q0 40 14 85.5t44 90.5t78 86.5t117 74.5q72 34 166.5 53t217.5 20q5 1 10.5 1h10.5q68 0 102 -28.5t34 -70.5q0 -28 -13.5 -58.5t-37.5 -54.5l-265 -2q-11 -30 -17 -63.5t-6 -69.5q0 -59 18 -85t50 -26q21 0 42 10.5t41 28t39 40
t36 46.5l36 -25q-27 -39 -54 -71t-58.5 -55t-69 -35.5t-85.5 -12.5q-63 0 -103.5 29.5t-50.5 86.5q-20 -24 -43 -45.5t-48 -37t-51 -24.5t-51 -9zM171 123q0 -31 6.5 -44.5t20.5 -13.5q17 0 45 18t57 64q2 55 23.5 108t56.5 98.5t79.5 81.5t91.5 57q-78 -9 -136.5 -31
t-101.5 -53q-41 -30 -68.5 -65.5t-44 -73t-23 -75.5t-6.5 -71zM659 478q-43 0 -87 -38.5t-74 -101.5h35q40 0 71 10t52.5 25.5t32.5 34t11 36.5q0 34 -41 34z" />
    <glyph glyph-name="ccedilla" unicode="&#xe7;" horiz-adv-x="498" 
d="M179 -13q-74 0 -115.5 39t-41.5 112q0 68 30.5 136t79.5 122.5t110.5 88.5t124.5 34q24 0 48 -5.5t43 -16.5t30.5 -27.5t11.5 -38.5q0 -40 -37.5 -64.5t-103.5 -16.5q10 38 12 63t-1 39.5t-11 20t-19 5.5q-23 0 -50.5 -25.5t-51 -68.5t-39 -98t-15.5 -114t16.5 -85
t51.5 -26q20 0 41 10t41.5 27.5t40 40t36.5 48.5l36 -26q-26 -41 -53.5 -73t-59 -54.5t-69.5 -34.5t-86 -12zM62 -265q-50 0 -78 21t-28 45q0 23 19 32.5t41 -1.5q-4 -34 15 -49.5t47 -15.5q43 0 43 27q0 20 -22 38.5t-63 46.5l143 121h48l-98 -83q23 -17 38.5 -37t15.5 -44
q0 -45 -33 -73t-88 -28z" />
    <glyph glyph-name="egrave" unicode="&#xe8;" horiz-adv-x="515" 
d="M178 -13q-72 0 -114.5 39t-42.5 112t34.5 141.5t88 122t118 85.5t124.5 32q68 0 102 -28.5t34 -70.5q0 -28 -13.5 -58.5t-37.5 -54.5l-265 -2q-11 -30 -17 -63.5t-6 -69.5q0 -59 18 -85t50 -26q21 0 42 10.5t41 28t39 40t36 46.5l36 -25q-27 -39 -54 -71t-58.5 -55
t-69 -35.5t-85.5 -12.5zM380 478q-42 0 -85.5 -37t-73.5 -99h33q40 0 71 9.5t52.5 24t32.5 32.5t11 36q0 34 -41 34zM426 609l-159 168l4 11h132l58 -179h-35z" />
    <glyph glyph-name="eacute" unicode="&#xe9;" horiz-adv-x="515" 
d="M178 -13q-72 0 -114.5 39t-42.5 112t34.5 141.5t88 122t118 85.5t124.5 32q68 0 102 -28.5t34 -70.5q0 -28 -13.5 -58.5t-37.5 -54.5l-265 -2q-11 -30 -17 -63.5t-6 -69.5q0 -59 18 -85t50 -26q21 0 42 10.5t41 28t39 40t36 46.5l36 -25q-27 -39 -54 -71t-58.5 -55
t-69 -35.5t-85.5 -12.5zM380 478q-42 0 -85.5 -37t-73.5 -99h33q40 0 71 9.5t52.5 24t32.5 32.5t11 36q0 34 -41 34zM525 788h157l-4 -11l-257 -168h-39z" />
    <glyph glyph-name="ecircumflex" unicode="&#xea;" horiz-adv-x="515" 
d="M178 -13q-72 0 -114.5 39t-42.5 112t34.5 141.5t88 122t118 85.5t124.5 32q68 0 102 -28.5t34 -70.5q0 -28 -13.5 -58.5t-37.5 -54.5l-265 -2q-11 -30 -17 -63.5t-6 -69.5q0 -59 18 -85t50 -26q21 0 42 10.5t41 28t39 40t36 46.5l36 -25q-27 -39 -54 -71t-58.5 -55
t-69 -35.5t-85.5 -12.5zM380 478q-42 0 -85.5 -37t-73.5 -99h33q40 0 71 9.5t52.5 24t32.5 32.5t11 36q0 34 -41 34zM502 805h11l64 -196h-37l-67 79l-165 -79h-40z" />
    <glyph glyph-name="edieresis" unicode="&#xeb;" horiz-adv-x="515" 
d="M178 -13q-72 0 -114.5 39t-42.5 112t34.5 141.5t88 122t118 85.5t124.5 32q68 0 102 -28.5t34 -70.5q0 -28 -13.5 -58.5t-37.5 -54.5l-265 -2q-11 -30 -17 -63.5t-6 -69.5q0 -59 18 -85t50 -26q21 0 42 10.5t41 28t39 40t36 46.5l36 -25q-27 -39 -54 -71t-58.5 -55
t-69 -35.5t-85.5 -12.5zM380 478q-42 0 -85.5 -37t-73.5 -99h33q40 0 71 9.5t52.5 24t32.5 32.5t11 36q0 34 -41 34zM568 636q-29 0 -48.5 20t-19.5 49q0 30 19.5 49.5t48.5 19.5t48.5 -19.5t19.5 -49.5q0 -29 -19.5 -49t-48.5 -20zM342 636q-29 0 -48.5 20t-19.5 49
q0 30 19.5 49.5t48.5 19.5t48.5 -19.5t19.5 -49.5q0 -29 -19.5 -49t-48.5 -20z" />
    <glyph glyph-name="igrave" unicode="&#xec;" horiz-adv-x="297" 
d="M171 502h148l-192 -502h-148zM287 609l-159 168l4 11h132l58 -179h-35z" />
    <glyph glyph-name="iacute" unicode="&#xed;" horiz-adv-x="297" 
d="M171 502h148l-192 -502h-148zM386 788h157l-4 -11l-257 -168h-39z" />
    <glyph glyph-name="icircumflex" unicode="&#xee;" horiz-adv-x="297" 
d="M171 502h148l-192 -502h-148zM363 805h11l64 -196h-37l-67 79l-165 -79h-40z" />
    <glyph glyph-name="idieresis" unicode="&#xef;" horiz-adv-x="297" 
d="M171 502h148l-192 -502h-148zM216 636q-29 0 -48.5 20t-19.5 49q0 30 19.5 49.5t48.5 19.5t48.5 -19.5t19.5 -49.5q0 -29 -19.5 -49t-48.5 -20zM416 636q-29 0 -48.5 20t-19.5 49q0 30 19.5 49.5t48.5 19.5t48.5 -19.5t19.5 -49.5q0 -29 -19.5 -49t-48.5 -20z" />
    <glyph glyph-name="eth" unicode="&#xf0;" horiz-adv-x="537" 
d="M164 -13q-30 0 -56.5 8.5t-46 26t-30.5 44t-11 62.5q0 38 12 82t32.5 87.5t48 84t58.5 71.5t64.5 49.5t66.5 18.5q22 0 40 -10q-7 36 -20.5 70.5t-36.5 67.5l-139 -65l-20 45l129 59q-18 21 -40.5 40.5t-49.5 39.5l22 29q77 -34 138 -76l159 73l20 -44l-136 -63
q69 -60 108.5 -135t39.5 -166q0 -81 -29.5 -153.5t-79 -127t-113 -86.5t-130.5 -32zM180 113q0 -42 8.5 -64t31.5 -22t46.5 22t42.5 68t31 117t12 169q0 30 -3 57q-9 32 -38 32q-18 0 -34.5 -17.5t-31 -47.5t-26.5 -68.5t-20.5 -81t-13.5 -85t-5 -79.5z" />
    <glyph glyph-name="ntilde" unicode="&#xf1;" horiz-adv-x="611" 
d="M298 0l126 331q13 34 19 57t6.5 36t-4.5 18.5t-13 5.5q-23 0 -54.5 -35t-69.5 -95q-23 -35 -49 -77t-50.5 -84.5t-46 -83t-33.5 -73.5h-150l193 502h146l-115 -285h1q28 47 49 81.5t43 67.5q28 43 52.5 72t48 47t47.5 26t51 8q30 0 52.5 -12.5t34.5 -36.5t11 -58.5
t-18 -78.5l-127 -333h-150zM556 645q-24 0 -43.5 9t-37 20t-34.5 20t-37 9q-23 0 -40 -11t-27 -43h-30q9 72 41.5 109.5t83.5 37.5q24 0 42.5 -9t35 -20t33 -20t36.5 -9q21 0 35.5 11t22.5 39h30q-7 -44 -18.5 -71.5t-26 -43.5t-31.5 -22t-35 -6z" />
    <glyph glyph-name="ograve" unicode="&#xf2;" horiz-adv-x="564" 
d="M175 -13q-38 0 -67.5 11.5t-49 31.5t-29.5 46t-10 56q0 68 31 137t82.5 124.5t119 90.5t140.5 35q38 0 67.5 -11.5t49 -31.5t29.5 -46t10 -56q0 -68 -31 -137t-82.5 -124.5t-119 -90.5t-140.5 -35zM236 40q22 0 48 20t48 60t36.5 100.5t14.5 140.5q0 57 -14.5 81
t-37.5 24q-22 0 -48 -20t-48 -60t-36.5 -100.5t-14.5 -140.5q0 -57 14.5 -81t37.5 -24zM409 609l-159 168l4 11h132l58 -179h-35z" />
    <glyph glyph-name="oacute" unicode="&#xf3;" horiz-adv-x="564" 
d="M175 -13q-38 0 -67.5 11.5t-49 31.5t-29.5 46t-10 56q0 68 31 137t82.5 124.5t119 90.5t140.5 35q38 0 67.5 -11.5t49 -31.5t29.5 -46t10 -56q0 -68 -31 -137t-82.5 -124.5t-119 -90.5t-140.5 -35zM236 40q22 0 48 20t48 60t36.5 100.5t14.5 140.5q0 57 -14.5 81
t-37.5 24q-22 0 -48 -20t-48 -60t-36.5 -100.5t-14.5 -140.5q0 -57 14.5 -81t37.5 -24zM508 788h157l-4 -11l-257 -168h-39z" />
    <glyph glyph-name="ocircumflex" unicode="&#xf4;" horiz-adv-x="564" 
d="M175 -13q-38 0 -67.5 11.5t-49 31.5t-29.5 46t-10 56q0 68 31 137t82.5 124.5t119 90.5t140.5 35q38 0 67.5 -11.5t49 -31.5t29.5 -46t10 -56q0 -68 -31 -137t-82.5 -124.5t-119 -90.5t-140.5 -35zM236 40q22 0 48 20t48 60t36.5 100.5t14.5 140.5q0 57 -14.5 81
t-37.5 24q-22 0 -48 -20t-48 -60t-36.5 -100.5t-14.5 -140.5q0 -57 14.5 -81t37.5 -24zM485 805h11l64 -196h-37l-67 79l-165 -79h-40z" />
    <glyph glyph-name="otilde" unicode="&#xf5;" horiz-adv-x="564" 
d="M175 -13q-38 0 -67.5 11.5t-49 31.5t-29.5 46t-10 56q0 68 31 137t82.5 124.5t119 90.5t140.5 35q38 0 67.5 -11.5t49 -31.5t29.5 -46t10 -56q0 -68 -31 -137t-82.5 -124.5t-119 -90.5t-140.5 -35zM236 40q22 0 48 20t48 60t36.5 100.5t14.5 140.5q0 57 -14.5 81
t-37.5 24q-22 0 -48 -20t-48 -60t-36.5 -100.5t-14.5 -140.5q0 -57 14.5 -81t37.5 -24zM517 645q-24 0 -43.5 9t-37 20t-34.5 20t-37 9q-23 0 -40 -11t-27 -43h-30q9 72 41.5 109.5t83.5 37.5q24 0 42.5 -9t35 -20t33 -20t36.5 -9q21 0 35.5 11t22.5 39h30
q-7 -44 -18.5 -71.5t-26 -43.5t-31.5 -22t-35 -6z" />
    <glyph glyph-name="odieresis" unicode="&#xf6;" horiz-adv-x="564" 
d="M175 -13q-38 0 -67.5 11.5t-49 31.5t-29.5 46t-10 56q0 68 31 137t82.5 124.5t119 90.5t140.5 35q38 0 67.5 -11.5t49 -31.5t29.5 -46t10 -56q0 -68 -31 -137t-82.5 -124.5t-119 -90.5t-140.5 -35zM236 40q22 0 48 20t48 60t36.5 100.5t14.5 140.5q0 57 -14.5 81
t-37.5 24q-22 0 -48 -20t-48 -60t-36.5 -100.5t-14.5 -140.5q0 -57 14.5 -81t37.5 -24zM551 636q-29 0 -48.5 20t-19.5 49q0 30 19.5 49.5t48.5 19.5t48.5 -19.5t19.5 -49.5q0 -29 -19.5 -49t-48.5 -20zM325 636q-29 0 -48.5 20t-19.5 49q0 30 19.5 49.5t48.5 19.5
t48.5 -19.5t19.5 -49.5q0 -29 -19.5 -49t-48.5 -20z" />
    <glyph glyph-name="divide" unicode="&#xf7;" horiz-adv-x="653" 
d="M331 363q-37 0 -63 26t-26 64q0 37 26 63t63 26q38 0 64 -26t26 -63q0 -38 -26 -64t-64 -26zM68 300h527v-75h-527v75zM331 -17q-37 0 -63 26t-26 64q0 37 26 63t63 26q38 0 64 -26t26 -63q0 -38 -26 -64t-64 -26z" />
    <glyph glyph-name="oslash" unicode="&#xf8;" horiz-adv-x="564" 
d="M175 -13q-38 0 -67.5 11.5t-49 31.5t-29.5 46t-10 56q0 68 31 137t82.5 124.5t119 90.5t140.5 35q38 0 67.5 -11.5t49 -31.5t29.5 -46t10 -56q0 -68 -31 -137t-82.5 -124.5t-119 -90.5t-140.5 -35zM236 40q22 0 48 20t48 60t36.5 100.5t14.5 140.5q0 57 -14.5 81
t-37.5 24q-22 0 -48 -20t-48 -60t-36.5 -100.5t-14.5 -140.5q0 -57 14.5 -81t37.5 -24zM622 530l-644 -590l-37 39l644 590z" />
    <glyph glyph-name="ugrave" unicode="&#xf9;" horiz-adv-x="607" 
d="M319 502l-134 -331q-14 -34 -19.5 -56t-5 -34.5t5 -17.5t11.5 -5q23 0 54.5 35.5t69.5 95.5q22 35 48 76t50.5 83t46 81.5t35.5 72.5h149l-193 -502h-146l115 285h-1q-29 -47 -49.5 -81.5t-42.5 -67.5q-28 -43 -52.5 -71.5t-48 -46t-47.5 -24.5t-51 -7q-72 0 -93.5 47
t13.5 135l135 333h150zM440 609l-159 168l4 11h132l58 -179h-35z" />
    <glyph glyph-name="uacute" unicode="&#xfa;" horiz-adv-x="607" 
d="M319 502l-134 -331q-14 -34 -19.5 -56t-5 -34.5t5 -17.5t11.5 -5q23 0 54.5 35.5t69.5 95.5q22 35 48 76t50.5 83t46 81.5t35.5 72.5h149l-193 -502h-146l115 285h-1q-29 -47 -49.5 -81.5t-42.5 -67.5q-28 -43 -52.5 -71.5t-48 -46t-47.5 -24.5t-51 -7q-72 0 -93.5 47
t13.5 135l135 333h150zM539 788h157l-4 -11l-257 -168h-39z" />
    <glyph glyph-name="ucircumflex" unicode="&#xfb;" horiz-adv-x="607" 
d="M319 502l-134 -331q-14 -34 -19.5 -56t-5 -34.5t5 -17.5t11.5 -5q23 0 54.5 35.5t69.5 95.5q22 35 48 76t50.5 83t46 81.5t35.5 72.5h149l-193 -502h-146l115 285h-1q-29 -47 -49.5 -81.5t-42.5 -67.5q-28 -43 -52.5 -71.5t-48 -46t-47.5 -24.5t-51 -7q-72 0 -93.5 47
t13.5 135l135 333h150zM516 805h11l64 -196h-37l-67 79l-165 -79h-40z" />
    <glyph glyph-name="udieresis" unicode="&#xfc;" horiz-adv-x="607" 
d="M319 502l-134 -331q-14 -34 -19.5 -56t-5 -34.5t5 -17.5t11.5 -5q23 0 54.5 35.5t69.5 95.5q22 35 48 76t50.5 83t46 81.5t35.5 72.5h149l-193 -502h-146l115 285h-1q-29 -47 -49.5 -81.5t-42.5 -67.5q-28 -43 -52.5 -71.5t-48 -46t-47.5 -24.5t-51 -7q-72 0 -93.5 47
t13.5 135l135 333h150zM582 636q-29 0 -48.5 20t-19.5 49q0 30 19.5 49.5t48.5 19.5t48.5 -19.5t19.5 -49.5q0 -29 -19.5 -49t-48.5 -20zM356 636q-29 0 -48.5 20t-19.5 49q0 30 19.5 49.5t48.5 19.5t48.5 -19.5t19.5 -49.5q0 -29 -19.5 -49t-48.5 -20z" />
    <glyph glyph-name="yacute" unicode="&#xfd;" horiz-adv-x="557" 
d="M134 31l-28 471h149l19 -319l297 319h93l-698 -750h-92zM517 788h157l-4 -11l-257 -168h-39z" />
    <glyph glyph-name="thorn" unicode="&#xfe;" horiz-adv-x="584" 
d="M284 427q28 37 70.5 64.5t90.5 27.5q66 0 98.5 -34.5t32.5 -90.5q0 -72 -36 -144t-97 -130.5t-141.5 -95t-168.5 -36.5l-81 -236h-148l353 1028h148zM335 435q-14 0 -29 -4.5t-26 -13.5l-137 -399q52 4 100.5 39.5t85.5 86t59 106t22 99.5q0 48 -20.5 67t-54.5 19z" />
    <glyph glyph-name="ydieresis" unicode="&#xff;" horiz-adv-x="557" 
d="M134 31l-28 471h149l19 -319l297 319h93l-698 -750h-92zM560 636q-29 0 -48.5 20t-19.5 49q0 30 19.5 49.5t48.5 19.5t48.5 -19.5t19.5 -49.5q0 -29 -19.5 -49t-48.5 -20zM334 636q-29 0 -48.5 20t-19.5 49q0 30 19.5 49.5t48.5 19.5t48.5 -19.5t19.5 -49.5
q0 -29 -19.5 -49t-48.5 -20z" />
    <glyph glyph-name="Abreve" unicode="&#x102;" horiz-adv-x="761" 
d="M469 758h135l79 -758h-160l-27 261h-290l-186 -261h-93zM488 335l-29 282l-201 -282h230zM540 827q-24 0 -48 8t-41.5 27t-24 49.5t3.5 75.5h53q-11 -56 8.5 -81t59.5 -25q36 0 69 23.5t50 82.5h56q-13 -51 -34.5 -82.5t-47.5 -48.5t-53 -23t-51 -6z" />
    <glyph glyph-name="Amacron" unicode="&#x100;" horiz-adv-x="761" 
d="M469 758h135l79 -758h-160l-27 261h-290l-186 -261h-93zM488 335l-29 282l-201 -282h230zM421 940h285l-23 -68h-285z" />
    <glyph glyph-name="Aogonek" unicode="&#x104;" horiz-adv-x="761" 
d="M469 758h135l79 -758h-160l-27 261h-290l-186 -261h-93zM488 335l-29 282l-201 -282h230zM526 -234q-38 0 -64 17t-26 52q0 23 15 46.5t39 45t54 40t60 33.5h34q-17 -15 -36 -31t-35 -33t-26 -35t-10 -37q0 -46 58 -46q20 0 46 6l-11 -31q-18 -12 -45 -19.5t-53 -7.5z
" />
    <glyph glyph-name="Cacute" unicode="&#x106;" horiz-adv-x="826" 
d="M441 -13q-73 0 -138.5 21.5t-114.5 62.5t-78 101t-29 137q0 99 45.5 184.5t120 149t170 100t194.5 36.5q73 0 140 -15t111 -41l-29 -241h-45l-25 157q-4 22 -15 35.5t-28 21.5t-44.5 12.5t-58.5 4.5q-70 0 -134.5 -30t-114.5 -86.5t-80 -138t-30 -183.5q0 -108 45.5 -165
t149.5 -57q26 0 53.5 2.5t43.5 9.5q11 5 22.5 12.5t22.5 20.5l158 186h45l-136 -264q-20 -7 -46 -13t-55.5 -10.5t-60.5 -7t-59 -2.5zM728 972h181l-1 -3l-267 -126h-35z" />
    <glyph glyph-name="Ccaron" unicode="&#x10c;" horiz-adv-x="826" 
d="M441 -13q-73 0 -138.5 21.5t-114.5 62.5t-78 101t-29 137q0 99 45.5 184.5t120 149t170 100t194.5 36.5q73 0 140 -15t111 -41l-29 -241h-45l-25 157q-4 22 -15 35.5t-28 21.5t-44.5 12.5t-58.5 4.5q-70 0 -134.5 -30t-114.5 -86.5t-80 -138t-30 -183.5q0 -108 45.5 -165
t149.5 -57q26 0 53.5 2.5t43.5 9.5q11 5 22.5 12.5t22.5 20.5l158 186h45l-136 -264q-20 -7 -46 -13t-55.5 -10.5t-60.5 -7t-59 -2.5zM556 988h39l71 -58l159 58h45l-218 -155h-14z" />
    <glyph glyph-name="Ccircumflex" unicode="&#x108;" horiz-adv-x="826" 
d="M441 -13q-73 0 -138.5 21.5t-114.5 62.5t-78 101t-29 137q0 99 45.5 184.5t120 149t170 100t194.5 36.5q73 0 140 -15t111 -41l-29 -241h-45l-25 157q-4 22 -15 35.5t-28 21.5t-44.5 12.5t-58.5 4.5q-70 0 -134.5 -30t-114.5 -86.5t-80 -138t-30 -183.5q0 -108 45.5 -165
t149.5 -57q26 0 53.5 2.5t43.5 9.5q11 5 22.5 12.5t22.5 20.5l158 186h45l-136 -264q-20 -7 -46 -13t-55.5 -10.5t-60.5 -7t-59 -2.5zM710 987h14l82 -154h-39l-71 58l-159 -58h-45z" />
    <glyph glyph-name="Cdotaccent" unicode="&#x10a;" horiz-adv-x="826" 
d="M441 -13q-73 0 -138.5 21.5t-114.5 62.5t-78 101t-29 137q0 99 45.5 184.5t120 149t170 100t194.5 36.5q73 0 140 -15t111 -41l-29 -241h-45l-25 157q-4 22 -15 35.5t-28 21.5t-44.5 12.5t-58.5 4.5q-70 0 -134.5 -30t-114.5 -86.5t-80 -138t-30 -183.5q0 -108 45.5 -165
t149.5 -57q26 0 53.5 2.5t43.5 9.5q11 5 22.5 12.5t22.5 20.5l158 186h45l-136 -264q-20 -7 -46 -13t-55.5 -10.5t-60.5 -7t-59 -2.5zM675 837q-30 0 -50 20.5t-20 50.5q0 31 20 51t50 20q29 0 49.5 -20t20.5 -51q0 -30 -20.5 -50.5t-49.5 -20.5z" />
    <glyph glyph-name="Dcaron" unicode="&#x10e;" horiz-adv-x="854" 
d="M20 0l232 758h222q91 0 163.5 -18.5t122.5 -53t77 -85.5t27 -115q0 -84 -40 -170.5t-116.5 -156.5t-186.5 -114.5t-251 -44.5h-250zM283 69q100 0 175.5 38.5t126 99.5t76 136t25.5 148q0 55 -15 92.5t-43 61t-66.5 34t-84.5 10.5h-87l-189 -620h82zM513 988h39l71 -58
l159 58h45l-218 -155h-14z" />
    <glyph glyph-name="Dcroat" unicode="&#x110;" horiz-adv-x="854" 
d="M20 0l232 758h222q91 0 163.5 -18.5t122.5 -53t77 -85.5t27 -115q0 -84 -40 -170.5t-116.5 -156.5t-186.5 -114.5t-251 -44.5h-250zM283 69q100 0 175.5 38.5t126 99.5t76 136t25.5 148q0 55 -15 92.5t-43 61t-66.5 34t-84.5 10.5h-87l-189 -620h82zM52 430h402l-23 -74
h-402z" />
    <glyph glyph-name="Ebreve" unicode="&#x114;" horiz-adv-x="665" 
d="M252 758h520l-23 -74h-360l-78 -254h299l-22 -74h-299l-86 -282h360l-23 -74h-520zM551 827q-24 0 -48 8t-41.5 27t-24 49.5t3.5 75.5h53q-11 -56 8.5 -81t59.5 -25q36 0 69 23.5t50 82.5h56q-13 -51 -34.5 -82.5t-47.5 -48.5t-53 -23t-51 -6z" />
    <glyph glyph-name="Ecaron" unicode="&#x11a;" horiz-adv-x="665" 
d="M252 758h520l-23 -74h-360l-78 -254h299l-22 -74h-299l-86 -282h360l-23 -74h-520zM445 988h39l71 -58l159 58h45l-218 -155h-14z" />
    <glyph glyph-name="Emacron" unicode="&#x112;" horiz-adv-x="665" 
d="M252 758h520l-23 -74h-360l-78 -254h299l-22 -74h-299l-86 -282h360l-23 -74h-520zM432 940h285l-23 -68h-285z" />
    <glyph glyph-name="Eogonek" unicode="&#x118;" horiz-adv-x="665" 
d="M252 758h520l-23 -74h-360l-78 -254h299l-22 -74h-299l-86 -282h360l-23 -74h-520zM428 -234q-38 0 -64 17t-26 52q0 23 15 46.5t39 45t54 40t60 33.5h34q-17 -15 -36 -31t-35 -33t-26 -35t-10 -37q0 -46 58 -46q20 0 46 6l-11 -31q-18 -12 -45 -19.5t-53 -7.5z" />
    <glyph glyph-name="Edotaccent" unicode="&#x116;" horiz-adv-x="665" 
d="M252 758h520l-23 -74h-360l-78 -254h299l-22 -74h-299l-86 -282h360l-23 -74h-520zM564 837q-30 0 -50 20.5t-20 50.5q0 31 20 51t50 20q29 0 49.5 -20t20.5 -51q0 -30 -20.5 -50.5t-49.5 -20.5z" />
    <glyph glyph-name="Gbreve" unicode="&#x11e;" horiz-adv-x="853" 
d="M258 275q0 -108 46.5 -164t150.5 -56q23 0 53 2.5t57 10.5l95 250h-185l26 74h345l-132 -357q-57 -22 -128.5 -35t-144.5 -13t-138.5 21.5t-114.5 62.5t-78 101t-29 137q0 66 20.5 126.5t57.5 112.5t87.5 94.5t110.5 73t126.5 47t135.5 16.5q73 0 141 -15t112 -41
l-29 -225h-45l-25 141q-4 22 -15 35.5t-28 21.5t-45.5 12.5t-59.5 4.5q-74 0 -140.5 -30t-117 -86.5t-80 -138t-29.5 -183.5zM660 827q-24 0 -48 8t-41.5 27t-24 49.5t3.5 75.5h53q-11 -56 8.5 -81t59.5 -25q36 0 69 23.5t50 82.5h56q-13 -51 -34.5 -82.5t-47.5 -48.5
t-53 -23t-51 -6z" />
    <glyph glyph-name="Gcircumflex" unicode="&#x11c;" horiz-adv-x="853" 
d="M258 275q0 -108 46.5 -164t150.5 -56q23 0 53 2.5t57 10.5l95 250h-185l26 74h345l-132 -357q-57 -22 -128.5 -35t-144.5 -13t-138.5 21.5t-114.5 62.5t-78 101t-29 137q0 66 20.5 126.5t57.5 112.5t87.5 94.5t110.5 73t126.5 47t135.5 16.5q73 0 141 -15t112 -41
l-29 -225h-45l-25 141q-4 22 -15 35.5t-28 21.5t-45.5 12.5t-59.5 4.5q-74 0 -140.5 -30t-117 -86.5t-80 -138t-29.5 -183.5zM708 987h14l82 -154h-39l-71 58l-159 -58h-45z" />
    <glyph glyph-name="uni0122" unicode="&#x122;" horiz-adv-x="853" 
d="M258 275q0 -108 46.5 -164t150.5 -56q23 0 53 2.5t57 10.5l95 250h-185l26 74h345l-132 -357q-57 -22 -128.5 -35t-144.5 -13t-138.5 21.5t-114.5 62.5t-78 101t-29 137q0 66 20.5 126.5t57.5 112.5t87.5 94.5t110.5 73t126.5 47t135.5 16.5q73 0 141 -15t112 -41
l-29 -225h-45l-25 141q-4 22 -15 35.5t-28 21.5t-45.5 12.5t-59.5 4.5q-74 0 -140.5 -30t-117 -86.5t-80 -138t-29.5 -183.5zM220 -347q54 24 88.5 53.5t34.5 62.5q0 26 -18.5 43t-50.5 22q-1 35 19.5 57t53.5 23q41 1 69.5 -25t28.5 -71q0 -33 -18.5 -62.5t-48.5 -54
t-67.5 -44.5t-76.5 -35z" />
    <glyph glyph-name="Gdotaccent" unicode="&#x120;" horiz-adv-x="853" 
d="M258 275q0 -108 46.5 -164t150.5 -56q23 0 53 2.5t57 10.5l95 250h-185l26 74h345l-132 -357q-57 -22 -128.5 -35t-144.5 -13t-138.5 21.5t-114.5 62.5t-78 101t-29 137q0 66 20.5 126.5t57.5 112.5t87.5 94.5t110.5 73t126.5 47t135.5 16.5q73 0 141 -15t112 -41
l-29 -225h-45l-25 141q-4 22 -15 35.5t-28 21.5t-45.5 12.5t-59.5 4.5q-74 0 -140.5 -30t-117 -86.5t-80 -138t-29.5 -183.5zM673 837q-30 0 -50 20.5t-20 50.5q0 31 20 51t50 20q29 0 49.5 -20t20.5 -51q0 -30 -20.5 -50.5t-49.5 -20.5z" />
    <glyph glyph-name="Hbar" unicode="&#x126;" horiz-adv-x="864" 
d="M252 758h160l-101 -328h351l101 328h160l-232 -758h-160l109 356h-351l-109 -356h-160zM123 619h843l-23 -74h-843z" />
    <glyph glyph-name="Hcircumflex" unicode="&#x124;" horiz-adv-x="864" 
d="M252 758h160l-101 -328h351l101 328h160l-232 -758h-160l109 356h-351l-109 -356h-160zM674 987h14l82 -154h-39l-71 58l-159 -58h-45z" />
    <glyph glyph-name="Ibreve" unicode="&#x12c;" horiz-adv-x="353" 
d="M252 758h160l-232 -758h-160zM359 827q-24 0 -48 8t-41.5 27t-24 49.5t3.5 75.5h53q-11 -56 8.5 -81t59.5 -25q36 0 69 23.5t50 82.5h56q-13 -51 -34.5 -82.5t-47.5 -48.5t-53 -23t-51 -6z" />
    <glyph glyph-name="Idotaccent" unicode="&#x130;" horiz-adv-x="353" 
d="M252 758h160l-232 -758h-160zM372 837q-30 0 -50 20.5t-20 50.5q0 31 20 51t50 20q29 0 49.5 -20t20.5 -51q0 -30 -20.5 -50.5t-49.5 -20.5z" />
    <glyph glyph-name="Imacron" unicode="&#x12a;" horiz-adv-x="353" 
d="M252 758h160l-232 -758h-160zM240 940h285l-23 -68h-285z" />
    <glyph glyph-name="Iogonek" unicode="&#x12e;" horiz-adv-x="353" 
d="M252 758h160l-232 -758h-160zM42 -234q-38 0 -64 17t-26 52q0 23 15 46.5t39 45t54 40t60 33.5h34q-17 -15 -36 -31t-35 -33t-26 -35t-10 -37q0 -46 58 -46q20 0 46 6l-11 -31q-18 -12 -45 -19.5t-53 -7.5z" />
    <glyph glyph-name="Itilde" unicode="&#x128;" horiz-adv-x="353" 
d="M252 758h160l-232 -758h-160zM438 829q-24 0 -43.5 9t-37 20t-34.5 20t-37 9q-23 0 -40 -11t-27 -43h-30q9 72 41.5 109.5t83.5 37.5q24 0 42.5 -9t35 -20t33 -20t36.5 -9q21 0 35.5 11t22.5 39h30q-7 -44 -18.5 -71.5t-26 -43.5t-31.5 -22t-35 -6z" />
    <glyph glyph-name="uni1ECA" unicode="&#x1eca;" horiz-adv-x="353" 
d="M252 758h160l-232 -758h-160zM41 -242q-30 0 -50 20.5t-20 50.5q0 31 20 51t50 20q29 0 49.5 -20t20.5 -51q0 -30 -20.5 -50.5t-49.5 -20.5z" />
    <glyph glyph-name="Jcircumflex" unicode="&#x134;" horiz-adv-x="357" 
d="M-150 -109q43 30 77.5 54t62 51.5t49 65t39.5 94.5l184 602h160l-182 -595q-12 -41 -30.5 -71.5t-41.5 -54.5t-52 -44.5t-62 -39.5q-32 -19 -81.5 -46t-102.5 -53zM429 987h14l82 -154h-39l-71 58l-159 -58h-45z" />
    <glyph glyph-name="uni0136" unicode="&#x136;" horiz-adv-x="785" 
d="M252 758h160l-113 -370l11 6l499 364h121l-475 -347l275 -411h-190l-246 373l-114 -373h-160zM193 -347q54 24 88.5 53.5t34.5 62.5q0 26 -18.5 43t-50.5 22q-1 35 19.5 57t53.5 23q41 1 69.5 -25t28.5 -71q0 -33 -18.5 -62.5t-48.5 -54t-67.5 -44.5t-76.5 -35z" />
    <glyph glyph-name="Lacute" unicode="&#x139;" horiz-adv-x="618" 
d="M252 758h160l-209 -684h350l-23 -74h-510zM437 972h181l-1 -3l-267 -126h-35z" />
    <glyph glyph-name="Lcaron" unicode="&#x13d;" horiz-adv-x="618" 
d="M252 758h160l-209 -684h350l-23 -74h-510zM412 508q54 24 88.5 53.5t34.5 62.5q0 26 -18.5 43t-50.5 22q-1 35 19.5 57t53.5 23q41 1 69.5 -25t28.5 -71q0 -33 -18.5 -62.5t-48.5 -54t-67.5 -44.5t-76.5 -35z" />
    <glyph glyph-name="uni013B" unicode="&#x13b;" horiz-adv-x="618" 
d="M252 758h160l-209 -684h350l-23 -74h-510zM123 -347q54 24 88.5 53.5t34.5 62.5q0 26 -18.5 43t-50.5 22q-1 35 19.5 57t53.5 23q41 1 69.5 -25t28.5 -71q0 -33 -18.5 -62.5t-48.5 -54t-67.5 -44.5t-76.5 -35z" />
    <glyph glyph-name="Ldot" unicode="&#x13f;" horiz-adv-x="618" 
d="M252 758h160l-209 -684h350l-23 -74h-510zM543 359q-30 0 -50 20.5t-20 50.5q0 31 20 51t50 20q29 0 49.5 -20t20.5 -51q0 -30 -20.5 -50.5t-49.5 -20.5z" />
    <glyph glyph-name="glyph223" horiz-adv-x="618" 
d="M252 758h160l-209 -684h350l-23 -74h-510zM543 359q-30 0 -50 20.5t-20 50.5q0 31 20 51t50 20q29 0 49.5 -20t20.5 -51q0 -30 -20.5 -50.5t-49.5 -20.5z" />
    <glyph glyph-name="Lslash" unicode="&#x141;" horiz-adv-x="618" 
d="M252 758h160l-209 -684h350l-23 -74h-510zM-3 327l470 224l-23 -88l-470 -224z" />
    <glyph glyph-name="Eng" unicode="&#x14a;" horiz-adv-x="843" 
d="M515 -150q-17 -9 -42 -23t-54 -29t-59.5 -30.5t-57.5 -28.5l-16 33q46 29 83.5 52.5t68 52.5t54.5 67.5t42 97.5l11 35l-276 476l-168 -553h-81l232 758h81l319 -551l169 551h81l-217 -709q-13 -42 -28 -71t-35 -51t-46 -40t-61 -37z" />
    <glyph glyph-name="Nacute" unicode="&#x143;" horiz-adv-x="843" 
d="M652 207l169 551h81l-232 -758h-81l-320 553l-168 -553h-81l232 758h81zM679 972h181l-1 -3l-267 -126h-35z" />
    <glyph glyph-name="Ncaron" unicode="&#x147;" horiz-adv-x="843" 
d="M652 207l169 551h81l-232 -758h-81l-320 553l-168 -553h-81l232 758h81zM507 988h39l71 -58l159 58h45l-218 -155h-14z" />
    <glyph glyph-name="uni0145" unicode="&#x145;" horiz-adv-x="843" 
d="M652 207l169 551h81l-232 -758h-81l-320 553l-168 -553h-81l232 758h81zM181 -347q54 24 88.5 53.5t34.5 62.5q0 26 -18.5 43t-50.5 22q-1 35 19.5 57t53.5 23q41 1 69.5 -25t28.5 -71q0 -33 -18.5 -62.5t-48.5 -54t-67.5 -44.5t-76.5 -35z" />
    <glyph glyph-name="OE" unicode="&#x152;" horiz-adv-x="1235" 
d="M600 779q139 0 211 -84l19 63h512l-23 -74h-360l-78 -254h299l-22 -74h-299l-86 -282h360l-23 -74h-512l18 58q-52 -33 -112.5 -52t-129.5 -19q-64 0 -119.5 18t-96.5 53.5t-64.5 87.5t-23.5 120q0 56 17 115.5t49.5 116.5t79 108t105.5 89.5t129 61t150 22.5zM251 272
q0 -44 7 -84.5t24.5 -71.5t47 -49t74.5 -18q46 0 89.5 19.5t81.5 54t68 83t50 106.5l10 30q20 74 20 152q0 44 -7 84.5t-24.5 71t-47 49t-74.5 18.5q-62 0 -120 -35t-102 -95.5t-70.5 -141.5t-26.5 -173z" />
    <glyph glyph-name="Obreve" unicode="&#x14e;" horiz-adv-x="891" 
d="M374 -13q-64 0 -119.5 18t-96.5 53.5t-64.5 87.5t-23.5 120q0 56 17 115.5t49.5 116.5t79 108t105.5 89.5t129 61t150 22.5q64 0 119 -18t96 -53.5t64.5 -87.5t23.5 -120q0 -56 -17 -115.5t-49 -116.5t-78.5 -108t-105.5 -89.5t-129 -61t-150 -22.5zM404 49
q62 0 119.5 35t102 95.5t71 141.5t26.5 173q0 44 -7 84.5t-24.5 71t-47 49t-74.5 18.5q-62 0 -120 -35t-102 -95.5t-70.5 -141.5t-26.5 -173q0 -44 7 -84.5t24.5 -71.5t47 -49t74.5 -18zM640 827q-24 0 -48 8t-41.5 27t-24 49.5t3.5 75.5h53q-11 -56 8.5 -81t59.5 -25
q36 0 69 23.5t50 82.5h56q-13 -51 -34.5 -82.5t-47.5 -48.5t-53 -23t-51 -6z" />
    <glyph glyph-name="Ohungarumlaut" unicode="&#x150;" horiz-adv-x="891" 
d="M374 -13q-64 0 -119.5 18t-96.5 53.5t-64.5 87.5t-23.5 120q0 56 17 115.5t49.5 116.5t79 108t105.5 89.5t129 61t150 22.5q64 0 119 -18t96 -53.5t64.5 -87.5t23.5 -120q0 -56 -17 -115.5t-49 -116.5t-78.5 -108t-105.5 -89.5t-129 -61t-150 -22.5zM404 49
q62 0 119.5 35t102 95.5t71 141.5t26.5 173q0 44 -7 84.5t-24.5 71t-47 49t-74.5 18.5q-62 0 -120 -35t-102 -95.5t-70.5 -141.5t-26.5 -173q0 -44 7 -84.5t24.5 -71.5t47 -49t74.5 -18zM630 972h181l-1 -3l-267 -126h-35zM835 972h181l-1 -3l-267 -126h-35z" />
    <glyph glyph-name="Omacron" unicode="&#x14c;" horiz-adv-x="891" 
d="M374 -13q-64 0 -119.5 18t-96.5 53.5t-64.5 87.5t-23.5 120q0 56 17 115.5t49.5 116.5t79 108t105.5 89.5t129 61t150 22.5q64 0 119 -18t96 -53.5t64.5 -87.5t23.5 -120q0 -56 -17 -115.5t-49 -116.5t-78.5 -108t-105.5 -89.5t-129 -61t-150 -22.5zM404 49
q62 0 119.5 35t102 95.5t71 141.5t26.5 173q0 44 -7 84.5t-24.5 71t-47 49t-74.5 18.5q-62 0 -120 -35t-102 -95.5t-70.5 -141.5t-26.5 -173q0 -44 7 -84.5t24.5 -71.5t47 -49t74.5 -18zM521 940h285l-23 -68h-285z" />
    <glyph glyph-name="uni1ECC" unicode="&#x1ecc;" horiz-adv-x="891" 
d="M374 -13q-64 0 -119.5 18t-96.5 53.5t-64.5 87.5t-23.5 120q0 56 17 115.5t49.5 116.5t79 108t105.5 89.5t129 61t150 22.5q64 0 119 -18t96 -53.5t64.5 -87.5t23.5 -120q0 -56 -17 -115.5t-49 -116.5t-78.5 -108t-105.5 -89.5t-129 -61t-150 -22.5zM404 49
q62 0 119.5 35t102 95.5t71 141.5t26.5 173q0 44 -7 84.5t-24.5 71t-47 49t-74.5 18.5q-62 0 -120 -35t-102 -95.5t-70.5 -141.5t-26.5 -173q0 -44 7 -84.5t24.5 -71.5t47 -49t74.5 -18zM320 -242q-30 0 -50 20.5t-20 50.5q0 31 20 51t50 20q29 0 49.5 -20t20.5 -51
q0 -30 -20.5 -50.5t-49.5 -20.5z" />
    <glyph glyph-name="Racute" unicode="&#x154;" horiz-adv-x="780" 
d="M252 758h245q135 0 205.5 -40t70.5 -115q0 -35 -14.5 -71t-46.5 -67t-83 -54.5t-124 -34.5l237 -376h-186l-219 353h-49l-108 -353h-160zM394 422q55 0 93.5 16.5t62.5 42t35 56t11 59.5q0 46 -29 70t-100 24h-76l-81 -268h84zM627 972h181l-1 -3l-267 -126h-35z" />
    <glyph glyph-name="Rcaron" unicode="&#x158;" horiz-adv-x="780" 
d="M252 758h245q135 0 205.5 -40t70.5 -115q0 -35 -14.5 -71t-46.5 -67t-83 -54.5t-124 -34.5l237 -376h-186l-219 353h-49l-108 -353h-160zM394 422q55 0 93.5 16.5t62.5 42t35 56t11 59.5q0 46 -29 70t-100 24h-76l-81 -268h84zM455 988h39l71 -58l159 58h45l-218 -155
h-14z" />
    <glyph glyph-name="uni0156" unicode="&#x156;" horiz-adv-x="780" 
d="M252 758h245q135 0 205.5 -40t70.5 -115q0 -35 -14.5 -71t-46.5 -67t-83 -54.5t-124 -34.5l237 -376h-186l-219 353h-49l-108 -353h-160zM394 422q55 0 93.5 16.5t62.5 42t35 56t11 59.5q0 46 -29 70t-100 24h-76l-81 -268h84zM230 -347q54 24 88.5 53.5t34.5 62.5
q0 26 -18.5 43t-50.5 22q-1 35 19.5 57t53.5 23q41 1 69.5 -25t28.5 -71q0 -33 -18.5 -62.5t-48.5 -54t-67.5 -44.5t-76.5 -35z" />
    <glyph glyph-name="Sacute" unicode="&#x15a;" horiz-adv-x="629" 
d="M218 -13q-25 0 -53.5 3t-57 9t-56.5 15.5t-52 23.5l60 232h45l3 -146q1 -21 7.5 -35.5t21.5 -23.5q14 -8 41.5 -11t56.5 -3q35 0 67 8t56.5 23.5t39 37.5t14.5 51q0 36 -20.5 71.5t-69.5 86.5l-52 54q-31 32 -53 73.5t-22 90.5q0 48 24.5 90.5t66.5 74t99.5 49.5
t123.5 18q46 0 93.5 -12t81.5 -31l-42 -219h-45l-12 133q-3 32 -22 48q-11 9 -35.5 13t-46.5 4q-31 0 -56.5 -8t-44 -23t-28.5 -35t-10 -44q0 -28 12.5 -53t42.5 -57l55 -57q31 -33 52 -59t33 -49t17 -44.5t5 -45.5q0 -57 -26.5 -103.5t-72.5 -79.5t-108 -51.5t-133 -18.5z
M617 972h181l-1 -3l-267 -126h-35z" />
    <glyph glyph-name="Scaron" unicode="&#x160;" horiz-adv-x="629" 
d="M218 -13q-25 0 -53.5 3t-57 9t-56.5 15.5t-52 23.5l60 232h45l3 -146q1 -21 7.5 -35.5t21.5 -23.5q14 -8 41.5 -11t56.5 -3q35 0 67 8t56.5 23.5t39 37.5t14.5 51q0 36 -20.5 71.5t-69.5 86.5l-52 54q-31 32 -53 73.5t-22 90.5q0 48 24.5 90.5t66.5 74t99.5 49.5
t123.5 18q46 0 93.5 -12t81.5 -31l-42 -219h-45l-12 133q-3 32 -22 48q-11 9 -35.5 13t-46.5 4q-31 0 -56.5 -8t-44 -23t-28.5 -35t-10 -44q0 -28 12.5 -53t42.5 -57l55 -57q31 -33 52 -59t33 -49t17 -44.5t5 -45.5q0 -57 -26.5 -103.5t-72.5 -79.5t-108 -51.5t-133 -18.5z
M445 988h39l71 -58l159 58h45l-218 -155h-14z" />
    <glyph glyph-name="Scedilla" unicode="&#x15e;" horiz-adv-x="629" 
d="M218 -13q-25 0 -53.5 3t-57 9t-56.5 15.5t-52 23.5l60 232h45l3 -146q1 -21 7.5 -35.5t21.5 -23.5q14 -8 41.5 -11t56.5 -3q35 0 67 8t56.5 23.5t39 37.5t14.5 51q0 36 -20.5 71.5t-69.5 86.5l-52 54q-31 32 -53 73.5t-22 90.5q0 48 24.5 90.5t66.5 74t99.5 49.5
t123.5 18q46 0 93.5 -12t81.5 -31l-42 -219h-45l-12 133q-3 32 -22 48q-11 9 -35.5 13t-46.5 4q-31 0 -56.5 -8t-44 -23t-28.5 -35t-10 -44q0 -28 12.5 -53t42.5 -57l55 -57q31 -33 52 -59t33 -49t17 -44.5t5 -45.5q0 -57 -26.5 -103.5t-72.5 -79.5t-108 -51.5t-133 -18.5z
M136 -265q-50 0 -78 21t-28 45q0 23 19 32.5t41 -1.5q-4 -34 15 -49.5t47 -15.5q43 0 43 27q0 20 -22 38.5t-63 46.5l143 121h48l-98 -83q23 -17 38.5 -37t15.5 -44q0 -45 -33 -73t-88 -28z" />
    <glyph glyph-name="Scircumflex" unicode="&#x15c;" horiz-adv-x="629" 
d="M218 -13q-25 0 -53.5 3t-57 9t-56.5 15.5t-52 23.5l60 232h45l3 -146q1 -21 7.5 -35.5t21.5 -23.5q14 -8 41.5 -11t56.5 -3q35 0 67 8t56.5 23.5t39 37.5t14.5 51q0 36 -20.5 71.5t-69.5 86.5l-52 54q-31 32 -53 73.5t-22 90.5q0 48 24.5 90.5t66.5 74t99.5 49.5
t123.5 18q46 0 93.5 -12t81.5 -31l-42 -219h-45l-12 133q-3 32 -22 48q-11 9 -35.5 13t-46.5 4q-31 0 -56.5 -8t-44 -23t-28.5 -35t-10 -44q0 -28 12.5 -53t42.5 -57l55 -57q31 -33 52 -59t33 -49t17 -44.5t5 -45.5q0 -57 -26.5 -103.5t-72.5 -79.5t-108 -51.5t-133 -18.5z
M599 987h14l82 -154h-39l-71 58l-159 -58h-45z" />
    <glyph glyph-name="uni0218" unicode="&#x218;" horiz-adv-x="629" 
d="M218 -13q-25 0 -53.5 3t-57 9t-56.5 15.5t-52 23.5l60 232h45l3 -146q1 -21 7.5 -35.5t21.5 -23.5q14 -8 41.5 -11t56.5 -3q35 0 67 8t56.5 23.5t39 37.5t14.5 51q0 36 -20.5 71.5t-69.5 86.5l-52 54q-31 32 -53 73.5t-22 90.5q0 48 24.5 90.5t66.5 74t99.5 49.5
t123.5 18q46 0 93.5 -12t81.5 -31l-42 -219h-45l-12 133q-3 32 -22 48q-11 9 -35.5 13t-46.5 4q-31 0 -56.5 -8t-44 -23t-28.5 -35t-10 -44q0 -28 12.5 -53t42.5 -57l55 -57q31 -33 52 -59t33 -49t17 -44.5t5 -45.5q0 -57 -26.5 -103.5t-72.5 -79.5t-108 -51.5t-133 -18.5z
M67 -347q54 24 88.5 53.5t34.5 62.5q0 26 -18.5 43t-50.5 22q-1 35 19.5 57t53.5 23q41 1 69.5 -25t28.5 -71q0 -33 -18.5 -62.5t-48.5 -54t-67.5 -44.5t-76.5 -35z" />
    <glyph glyph-name="Tbar" unicode="&#x166;" horiz-adv-x="722" 
d="M412 684h-271l23 74h702l-23 -74h-271l-209 -684h-160zM187 431h455l-23 -74h-455z" />
    <glyph glyph-name="Tcaron" unicode="&#x164;" horiz-adv-x="722" 
d="M412 684h-271l23 74h702l-23 -74h-271l-209 -684h-160zM448 988h39l71 -58l159 58h45l-218 -155h-14z" />
    <glyph glyph-name="uni0162" unicode="&#x162;" horiz-adv-x="722" 
d="M412 684h-271l23 74h702l-23 -74h-271l-209 -684h-160zM102 -347q54 24 88.5 53.5t34.5 62.5q0 26 -18.5 43t-50.5 22q-1 35 19.5 57t53.5 23q41 1 69.5 -25t28.5 -71q0 -33 -18.5 -62.5t-48.5 -54t-67.5 -44.5t-76.5 -35z" />
    <glyph glyph-name="uni021A" unicode="&#x21a;" horiz-adv-x="722" 
d="M412 684h-271l23 74h702l-23 -74h-271l-209 -684h-160zM102 -347q54 24 88.5 53.5t34.5 62.5q0 26 -18.5 43t-50.5 22q-1 35 19.5 57t53.5 23q41 1 69.5 -25t28.5 -71q0 -33 -18.5 -62.5t-48.5 -54t-67.5 -44.5t-76.5 -35z" />
    <glyph glyph-name="Ubreve" unicode="&#x16c;" horiz-adv-x="828" 
d="M347 -13q-76 0 -133.5 17t-90.5 54t-40 94.5t18 138.5l143 467h160l-144 -469q-20 -66 -20 -109t18 -68.5t53 -36t84 -10.5q59 0 103.5 16t78.5 47t58 76.5t42 104.5l138 449h81l-142 -465q-24 -78 -59 -136t-84 -95.5t-114 -56t-150 -18.5zM609 827q-24 0 -48 8
t-41.5 27t-24 49.5t3.5 75.5h53q-11 -56 8.5 -81t59.5 -25q36 0 69 23.5t50 82.5h56q-13 -51 -34.5 -82.5t-47.5 -48.5t-53 -23t-51 -6z" />
    <glyph glyph-name="Uhungarumlaut" unicode="&#x170;" horiz-adv-x="828" 
d="M347 -13q-76 0 -133.5 17t-90.5 54t-40 94.5t18 138.5l143 467h160l-144 -469q-20 -66 -20 -109t18 -68.5t53 -36t84 -10.5q59 0 103.5 16t78.5 47t58 76.5t42 104.5l138 449h81l-142 -465q-24 -78 -59 -136t-84 -95.5t-114 -56t-150 -18.5zM599 972h181l-1 -3l-267 -126
h-35zM804 972h181l-1 -3l-267 -126h-35z" />
    <glyph glyph-name="Umacron" unicode="&#x16a;" horiz-adv-x="828" 
d="M347 -13q-76 0 -133.5 17t-90.5 54t-40 94.5t18 138.5l143 467h160l-144 -469q-20 -66 -20 -109t18 -68.5t53 -36t84 -10.5q59 0 103.5 16t78.5 47t58 76.5t42 104.5l138 449h81l-142 -465q-24 -78 -59 -136t-84 -95.5t-114 -56t-150 -18.5zM490 940h285l-23 -68h-285z
" />
    <glyph glyph-name="Uogonek" unicode="&#x172;" horiz-adv-x="828" 
d="M347 -13q-76 0 -133.5 17t-90.5 54t-40 94.5t18 138.5l143 467h160l-144 -469q-20 -66 -20 -109t18 -68.5t53 -36t84 -10.5q59 0 103.5 16t78.5 47t58 76.5t42 104.5l138 449h81l-142 -465q-44 -143 -127 -218t-225 -86q-16 -14 -32 -28.5t-28.5 -30.5t-20.5 -32.5
t-8 -33.5q0 -46 58 -46q20 0 46 6l-11 -31q-18 -12 -45 -19.5t-53 -7.5q-38 0 -64 17t-26 52q0 21 12.5 42t33 40.5t47 37t54.5 32.5h-18z" />
    <glyph glyph-name="Uring" unicode="&#x16e;" horiz-adv-x="828" 
d="M347 -13q-76 0 -133.5 17t-90.5 54t-40 94.5t18 138.5l143 467h160l-144 -469q-20 -66 -20 -109t18 -68.5t53 -36t84 -10.5q59 0 103.5 16t78.5 47t58 76.5t42 104.5l138 449h81l-142 -465q-24 -78 -59 -136t-84 -95.5t-114 -56t-150 -18.5zM639 837q-26 0 -48.5 9.5
t-39 25.5t-26.5 38t-10 47t10 47t26.5 38.5t39 26t48.5 9.5q27 0 50 -9.5t40 -26t27 -38.5t10 -47t-10 -47t-27 -38t-40 -25.5t-50 -9.5zM639 890q32 0 49 18t17 49t-17 48.5t-49 17.5q-30 0 -47.5 -17.5t-17.5 -48.5t17.5 -49t47.5 -18z" />
    <glyph glyph-name="Utilde" unicode="&#x168;" horiz-adv-x="828" 
d="M347 -13q-76 0 -133.5 17t-90.5 54t-40 94.5t18 138.5l143 467h160l-144 -469q-20 -66 -20 -109t18 -68.5t53 -36t84 -10.5q59 0 103.5 16t78.5 47t58 76.5t42 104.5l138 449h81l-142 -465q-24 -78 -59 -136t-84 -95.5t-114 -56t-150 -18.5zM688 829q-24 0 -43.5 9
t-37 20t-34.5 20t-37 9q-23 0 -40 -11t-27 -43h-30q9 72 41.5 109.5t83.5 37.5q24 0 42.5 -9t35 -20t33 -20t36.5 -9q21 0 35.5 11t22.5 39h30q-7 -44 -18.5 -71.5t-26 -43.5t-31.5 -22t-35 -6z" />
    <glyph glyph-name="uni1EE4" unicode="&#x1ee4;" horiz-adv-x="828" 
d="M347 -13q-76 0 -133.5 17t-90.5 54t-40 94.5t18 138.5l143 467h160l-144 -469q-20 -66 -20 -109t18 -68.5t53 -36t84 -10.5q59 0 103.5 16t78.5 47t58 76.5t42 104.5l138 449h81l-142 -465q-24 -78 -59 -136t-84 -95.5t-114 -56t-150 -18.5zM314 -242q-30 0 -50 20.5
t-20 50.5q0 31 20 51t50 20q29 0 49.5 -20t20.5 -51q0 -30 -20.5 -50.5t-49.5 -20.5z" />
    <glyph glyph-name="Wacute" unicode="&#x1e82;" horiz-adv-x="1088" 
d="M167 758h160l15 -519l342 519h66l55 -531l332 531h95l-479 -758h-79l-57 523l-346 -523h-80zM804 972h181l-1 -3l-267 -126h-35z" />
    <glyph glyph-name="Wcircumflex" unicode="&#x174;" horiz-adv-x="1088" 
d="M167 758h160l15 -519l342 519h66l55 -531l332 531h95l-479 -758h-79l-57 523l-346 -523h-80zM786 987h14l82 -154h-39l-71 58l-159 -58h-45z" />
    <glyph glyph-name="Wdieresis" unicode="&#x1e84;" horiz-adv-x="1088" 
d="M167 758h160l15 -519l342 519h66l55 -531l332 531h95l-479 -758h-79l-57 523l-346 -523h-80zM864 837q-30 0 -50 20.5t-20 50.5q0 31 20 51t50 20q29 0 49.5 -20t20.5 -51q0 -30 -20.5 -50.5t-49.5 -20.5zM638 837q-30 0 -50 20.5t-20 50.5q0 31 20 51t50 20
q29 0 49.5 -20t20.5 -51q0 -30 -20.5 -50.5t-49.5 -20.5z" />
    <glyph glyph-name="Wgrave" unicode="&#x1e80;" horiz-adv-x="1088" 
d="M167 758h160l15 -519l342 519h66l55 -531l332 531h95l-479 -758h-79l-57 523l-346 -523h-80zM728 843l-185 126l1 3h168l51 -129h-35z" />
    <glyph glyph-name="Ycircumflex" unicode="&#x176;" horiz-adv-x="782" 
d="M395 0h-160l105 342l-180 416h178l142 -332l349 332h105l-435 -417zM644 987h14l82 -154h-39l-71 58l-159 -58h-45z" />
    <glyph glyph-name="Ydieresis" unicode="&#x178;" horiz-adv-x="782" 
d="M395 0h-160l105 342l-180 416h178l142 -332l349 332h105l-435 -417zM722 837q-30 0 -50 20.5t-20 50.5q0 31 20 51t50 20q29 0 49.5 -20t20.5 -51q0 -30 -20.5 -50.5t-49.5 -20.5zM496 837q-30 0 -50 20.5t-20 50.5q0 31 20 51t50 20q29 0 49.5 -20t20.5 -51
q0 -30 -20.5 -50.5t-49.5 -20.5z" />
    <glyph glyph-name="Ygrave" unicode="&#x1ef2;" horiz-adv-x="782" 
d="M395 0h-160l105 342l-180 416h178l142 -332l349 332h105l-435 -417zM586 843l-185 126l1 3h168l51 -129h-35z" />
    <glyph glyph-name="uni0232" unicode="&#x232;" horiz-adv-x="782" 
d="M395 0h-160l105 342l-180 416h178l142 -332l349 332h105l-435 -417zM477 940h285l-23 -68h-285z" />
    <glyph glyph-name="Zacute" unicode="&#x179;" horiz-adv-x="679" 
d="M-35 71l625 613h-386l23 74h575l-22 -71l-625 -613h429l-23 -74h-618zM605 972h181l-1 -3l-267 -126h-35z" />
    <glyph glyph-name="Zcaron" unicode="&#x17d;" horiz-adv-x="679" 
d="M-35 71l625 613h-386l23 74h575l-22 -71l-625 -613h429l-23 -74h-618zM433 988h39l71 -58l159 58h45l-218 -155h-14z" />
    <glyph glyph-name="Zdotaccent" unicode="&#x17b;" horiz-adv-x="679" 
d="M-35 71l625 613h-386l23 74h575l-22 -71l-625 -613h429l-23 -74h-618zM552 837q-30 0 -50 20.5t-20 50.5q0 31 20 51t50 20q29 0 49.5 -20t20.5 -51q0 -30 -20.5 -50.5t-49.5 -20.5z" />
    <glyph glyph-name="uni018F" unicode="&#x18f;" horiz-adv-x="831" 
d="M374 -12q-81 0 -139.5 24.5t-93.5 67t-47.5 100.5t-1.5 126h570q5 26 8 52t3 55q0 68 -18.5 117.5t-52 82t-79.5 48.5t-100 16q-103 0 -174.5 -61t-112.5 -167h-34q22 88 64 150.5t96 102.5t115.5 59t123.5 19q73 0 133.5 -21.5t104.5 -61t68.5 -96.5t24.5 -129
q0 -59 -15.5 -118t-44.5 -112.5t-70 -100t-91.5 -80.5t-110.5 -53.5t-126 -19.5zM392 30q39 0 76.5 15t70.5 43t60 67.5t45 87.5h-394q-16 -106 17.5 -159.5t124.5 -53.5z" />
    <glyph glyph-name="abreve" unicode="&#x103;" horiz-adv-x="582" 
d="M268 0l64 159h-2q-19 -30 -42.5 -60.5t-51.5 -55t-61 -40.5t-70 -16q-48 0 -73 32t-25 84q0 44 17 92.5t45.5 94.5t66 87.5t78.5 73t83.5 50t80.5 18.5q29 0 44.5 -12.5t22.5 -30.5h1l17 44h148l-200 -520h-143zM193 65q18 0 45 25.5t54.5 64.5t53 84.5t41.5 84.5
q18 45 24.5 75t4.5 47.5t-12.5 24.5t-26.5 7q-25 0 -50.5 -17.5t-49 -47t-43.5 -67t-35.5 -77.5t-24 -79.5t-8.5 -71.5q0 -26 6 -39.5t21 -13.5zM427 628q-24 0 -48 8t-41.5 27t-24 49.5t3.5 75.5h53q-11 -56 8.5 -81t59.5 -25q36 0 69 23.5t50 82.5h56q-13 -51 -34.5 -82.5
t-47.5 -48.5t-53 -23t-51 -6z" />
    <glyph glyph-name="amacron" unicode="&#x101;" horiz-adv-x="582" 
d="M268 0l64 159h-2q-19 -30 -42.5 -60.5t-51.5 -55t-61 -40.5t-70 -16q-48 0 -73 32t-25 84q0 44 17 92.5t45.5 94.5t66 87.5t78.5 73t83.5 50t80.5 18.5q29 0 44.5 -12.5t22.5 -30.5h1l17 44h148l-200 -520h-143zM193 65q18 0 45 25.5t54.5 64.5t53 84.5t41.5 84.5
q18 45 24.5 75t4.5 47.5t-12.5 24.5t-26.5 7q-25 0 -50.5 -17.5t-49 -47t-43.5 -67t-35.5 -77.5t-24 -79.5t-8.5 -71.5q0 -26 6 -39.5t21 -13.5zM329 737h285l-23 -68h-285z" />
    <glyph glyph-name="aogonek" unicode="&#x105;" horiz-adv-x="582" 
d="M268 0l64 159h-2q-19 -30 -42.5 -60.5t-51.5 -55t-61 -40.5t-70 -16q-48 0 -73 32t-25 84q0 44 17 92.5t45.5 94.5t66 87.5t78.5 73t83.5 50t80.5 18.5q29 0 44.5 -12.5t22.5 -30.5h1l17 44h148l-200 -520h-143zM193 65q18 0 45 25.5t54.5 64.5t53 84.5t41.5 84.5
q18 45 24.5 75t4.5 47.5t-12.5 24.5t-26.5 7q-25 0 -50.5 -17.5t-49 -47t-43.5 -67t-35.5 -77.5t-24 -79.5t-8.5 -71.5q0 -26 6 -39.5t21 -13.5zM268 -234q-38 0 -64 17t-26 52q0 23 15 46.5t39 45t54 40t60 33.5h34q-17 -15 -36 -31t-35 -33t-26 -35t-10 -37q0 -46 58 -46
q20 0 46 6l-11 -31q-18 -12 -45 -19.5t-53 -7.5z" />
    <glyph glyph-name="cacute" unicode="&#x107;" horiz-adv-x="498" 
d="M179 -13q-74 0 -115.5 39t-41.5 112q0 68 30.5 136t79.5 122.5t110.5 88.5t124.5 34q24 0 48 -5.5t43 -16.5t30.5 -27.5t11.5 -38.5q0 -40 -37.5 -64.5t-103.5 -16.5q10 38 12 63t-1 39.5t-11 20t-19 5.5q-23 0 -50.5 -25.5t-51 -68.5t-39 -98t-15.5 -114t16.5 -85
t51.5 -26q20 0 41 10t41.5 27.5t40 40t36.5 48.5l36 -26q-26 -41 -53.5 -73t-59 -54.5t-69.5 -34.5t-86 -12zM494 788h157l-4 -11l-257 -168h-39z" />
    <glyph glyph-name="ccaron" unicode="&#x10d;" horiz-adv-x="498" 
d="M179 -13q-74 0 -115.5 39t-41.5 112q0 68 30.5 136t79.5 122.5t110.5 88.5t124.5 34q24 0 48 -5.5t43 -16.5t30.5 -27.5t11.5 -38.5q0 -40 -37.5 -64.5t-103.5 -16.5q10 38 12 63t-1 39.5t-11 20t-19 5.5q-23 0 -50.5 -25.5t-51 -68.5t-39 -98t-15.5 -114t16.5 -85
t51.5 -26q20 0 41 10t41.5 27.5t40 40t36.5 48.5l36 -26q-26 -41 -53.5 -73t-59 -54.5t-69.5 -34.5t-86 -12zM302 805h37l66 -79l166 79h40l-234 -196h-11z" />
    <glyph glyph-name="ccircumflex" unicode="&#x109;" horiz-adv-x="498" 
d="M179 -13q-74 0 -115.5 39t-41.5 112q0 68 30.5 136t79.5 122.5t110.5 88.5t124.5 34q24 0 48 -5.5t43 -16.5t30.5 -27.5t11.5 -38.5q0 -40 -37.5 -64.5t-103.5 -16.5q10 38 12 63t-1 39.5t-11 20t-19 5.5q-23 0 -50.5 -25.5t-51 -68.5t-39 -98t-15.5 -114t16.5 -85
t51.5 -26q20 0 41 10t41.5 27.5t40 40t36.5 48.5l36 -26q-26 -41 -53.5 -73t-59 -54.5t-69.5 -34.5t-86 -12zM471 805h11l64 -196h-37l-67 79l-165 -79h-40z" />
    <glyph glyph-name="cdotaccent" unicode="&#x10b;" horiz-adv-x="498" 
d="M179 -13q-74 0 -115.5 39t-41.5 112q0 68 30.5 136t79.5 122.5t110.5 88.5t124.5 34q24 0 48 -5.5t43 -16.5t30.5 -27.5t11.5 -38.5q0 -40 -37.5 -64.5t-103.5 -16.5q10 38 12 63t-1 39.5t-11 20t-19 5.5q-23 0 -50.5 -25.5t-51 -68.5t-39 -98t-15.5 -114t16.5 -85
t51.5 -26q20 0 41 10t41.5 27.5t40 40t36.5 48.5l36 -26q-26 -41 -53.5 -73t-59 -54.5t-69.5 -34.5t-86 -12zM424 636q-29 0 -48.5 20t-19.5 49q0 30 19.5 49.5t48.5 19.5t48.5 -19.5t19.5 -49.5q0 -29 -19.5 -49t-48.5 -20z" />
    <glyph glyph-name="dcaron" unicode="&#x10f;" horiz-adv-x="674" 
d="M290 0l63 170h-2q-57 -85 -114 -134t-127 -49q-48 0 -75 30.5t-27 83.5q0 46 16.5 95t44.5 95.5t65 87.5t77.5 72.5t82.5 49.5t80 18q27 0 44 -10t27 -29h1l96 278h148l-261 -758h-139zM197 69q21 0 46.5 21t52 55.5t51.5 78t45 89.5q19 45 25.5 76t3.5 51t-15 29t-29 9
q-26 0 -52 -17t-49.5 -45.5t-43 -65.5t-34 -76.5t-22.5 -79t-8 -72.5q0 -31 8 -42t21 -11zM683 508q54 24 88.5 53.5t34.5 62.5q0 26 -18.5 43t-50.5 22q-1 35 19.5 57t53.5 23q41 1 69.5 -25t28.5 -71q0 -33 -18.5 -62.5t-48.5 -54t-67.5 -44.5t-76.5 -35z" />
    <glyph glyph-name="dcroat" unicode="&#x111;" horiz-adv-x="589" 
d="M290 0l63 170h-2q-57 -85 -114 -134t-127 -49q-48 0 -75 30.5t-27 83.5q0 46 16.5 95t44.5 95.5t65 87.5t77.5 72.5t82.5 49.5t80 18q27 0 44 -10t27 -29h1l96 278h148l-261 -758h-139zM197 69q21 0 46.5 21t52 55.5t51.5 78t45 89.5q19 45 25.5 76t3.5 51t-15 29t-29 9
q-26 0 -52 -17t-49.5 -45.5t-43 -65.5t-34 -76.5t-22.5 -79t-8 -72.5q0 -31 8 -42t21 -11zM415 668h326l-18 -53h-326z" />
    <glyph glyph-name="ebreve" unicode="&#x115;" horiz-adv-x="515" 
d="M178 -13q-72 0 -114.5 39t-42.5 112t34.5 141.5t88 122t118 85.5t124.5 32q68 0 102 -28.5t34 -70.5q0 -28 -13.5 -58.5t-37.5 -54.5l-265 -2q-11 -30 -17 -63.5t-6 -69.5q0 -59 18 -85t50 -26q21 0 42 10.5t41 28t39 40t36 46.5l36 -25q-27 -39 -54 -71t-58.5 -55
t-69 -35.5t-85.5 -12.5zM380 478q-42 0 -85.5 -37t-73.5 -99h33q40 0 71 9.5t52.5 24t32.5 32.5t11 36q0 34 -41 34zM421 628q-24 0 -48 8t-41.5 27t-24 49.5t3.5 75.5h53q-11 -56 8.5 -81t59.5 -25q36 0 69 23.5t50 82.5h56q-13 -51 -34.5 -82.5t-47.5 -48.5t-53 -23
t-51 -6z" />
    <glyph glyph-name="ecaron" unicode="&#x11b;" horiz-adv-x="515" 
d="M178 -13q-72 0 -114.5 39t-42.5 112t34.5 141.5t88 122t118 85.5t124.5 32q68 0 102 -28.5t34 -70.5q0 -28 -13.5 -58.5t-37.5 -54.5l-265 -2q-11 -30 -17 -63.5t-6 -69.5q0 -59 18 -85t50 -26q21 0 42 10.5t41 28t39 40t36 46.5l36 -25q-27 -39 -54 -71t-58.5 -55
t-69 -35.5t-85.5 -12.5zM380 478q-42 0 -85.5 -37t-73.5 -99h33q40 0 71 9.5t52.5 24t32.5 32.5t11 36q0 34 -41 34zM333 805h37l66 -79l166 79h40l-234 -196h-11z" />
    <glyph glyph-name="emacron" unicode="&#x113;" horiz-adv-x="515" 
d="M178 -13q-72 0 -114.5 39t-42.5 112t34.5 141.5t88 122t118 85.5t124.5 32q68 0 102 -28.5t34 -70.5q0 -28 -13.5 -58.5t-37.5 -54.5l-265 -2q-11 -30 -17 -63.5t-6 -69.5q0 -59 18 -85t50 -26q21 0 42 10.5t41 28t39 40t36 46.5l36 -25q-27 -39 -54 -71t-58.5 -55
t-69 -35.5t-85.5 -12.5zM380 478q-42 0 -85.5 -37t-73.5 -99h33q40 0 71 9.5t52.5 24t32.5 32.5t11 36q0 34 -41 34zM323 737h285l-23 -68h-285z" />
    <glyph glyph-name="eogonek" unicode="&#x119;" horiz-adv-x="515" 
d="M248 -207q-18 -12 -45 -19.5t-53 -7.5q-38 0 -64 17t-26 52q0 21 13.5 42.5t36 41.5t50 37.5t56.5 31.5q-8 -1 -19 -1h-19q-72 0 -114.5 39t-42.5 112t34.5 141.5t88 122t118 85.5t124.5 32q68 0 102 -28.5t34 -70.5q0 -28 -13.5 -58.5t-37.5 -54.5l-265 -2
q-11 -30 -17 -63.5t-6 -69.5q0 -59 18 -85t50 -26q21 0 42 10.5t41 28t39 40t36 46.5l36 -25q-44 -65 -84.5 -101t-82.5 -59q-25 -14 -47 -29.5t-39 -32.5t-27 -35.5t-10 -39.5q0 -46 58 -46q20 0 46 6zM380 478q-42 0 -85.5 -37t-73.5 -99h33q40 0 71 9.5t52.5 24
t32.5 32.5t11 36q0 34 -41 34z" />
    <glyph glyph-name="edotaccent" unicode="&#x117;" horiz-adv-x="515" 
d="M178 -13q-72 0 -114.5 39t-42.5 112t34.5 141.5t88 122t118 85.5t124.5 32q68 0 102 -28.5t34 -70.5q0 -28 -13.5 -58.5t-37.5 -54.5l-265 -2q-11 -30 -17 -63.5t-6 -69.5q0 -59 18 -85t50 -26q21 0 42 10.5t41 28t39 40t36 46.5l36 -25q-27 -39 -54 -71t-58.5 -55
t-69 -35.5t-85.5 -12.5zM380 478q-42 0 -85.5 -37t-73.5 -99h33q40 0 71 9.5t52.5 24t32.5 32.5t11 36q0 34 -41 34zM455 636q-29 0 -48.5 20t-19.5 49q0 30 19.5 49.5t48.5 19.5t48.5 -19.5t19.5 -49.5q0 -29 -19.5 -49t-48.5 -20z" />
    <glyph glyph-name="gbreve" unicode="&#x11f;" horiz-adv-x="534" 
d="M234 167q-46 0 -83 14q-15 -5 -22.5 -13.5t-7.5 -19.5q0 -26 34 -45l129 -73q73 -41 106.5 -72.5t33.5 -68.5q0 -39 -25.5 -67t-65 -47t-88 -28t-94.5 -9q-62 0 -112 9.5t-85 26.5t-54 40.5t-19 52.5q0 43 52.5 75t151.5 37l-8 4q-29 16 -43 40.5t-14 49.5q0 36 29.5 68
t86.5 46q-32 16 -49 42t-17 61q0 45 22 86t59 73t86 51t103 19q48 0 84 -14.5t56 -40.5l49 92h123l-54 -99h-113q18 -26 18 -61q0 -45 -22 -86t-59 -73t-85.5 -51t-102.5 -19zM267 210q42 0 68.5 47t26.5 125q0 43 -13.5 68.5t-42.5 25.5q-42 0 -68.5 -47t-26.5 -125
q0 -43 13.5 -68.5t42.5 -25.5zM-23 -113q0 -25 14 -45t38 -33.5t56.5 -20.5t69.5 -7q138 0 138 52q0 7 -2.5 14t-11 16t-25 20.5t-44.5 26.5l-108 59q-21 -2 -43.5 -9.5t-40.5 -18t-29.5 -24.5t-11.5 -30zM357 628q-24 0 -48 8t-41.5 27t-24 49.5t3.5 75.5h53
q-11 -56 8.5 -81t59.5 -25q36 0 69 23.5t50 82.5h56q-13 -51 -34.5 -82.5t-47.5 -48.5t-53 -23t-51 -6z" />
    <glyph glyph-name="gcircumflex" unicode="&#x11d;" horiz-adv-x="534" 
d="M234 167q-46 0 -83 14q-15 -5 -22.5 -13.5t-7.5 -19.5q0 -26 34 -45l129 -73q73 -41 106.5 -72.5t33.5 -68.5q0 -39 -25.5 -67t-65 -47t-88 -28t-94.5 -9q-62 0 -112 9.5t-85 26.5t-54 40.5t-19 52.5q0 43 52.5 75t151.5 37l-8 4q-29 16 -43 40.5t-14 49.5q0 36 29.5 68
t86.5 46q-32 16 -49 42t-17 61q0 45 22 86t59 73t86 51t103 19q48 0 84 -14.5t56 -40.5l49 92h123l-54 -99h-113q18 -26 18 -61q0 -45 -22 -86t-59 -73t-85.5 -51t-102.5 -19zM267 210q42 0 68.5 47t26.5 125q0 43 -13.5 68.5t-42.5 25.5q-42 0 -68.5 -47t-26.5 -125
q0 -43 13.5 -68.5t42.5 -25.5zM-23 -113q0 -25 14 -45t38 -33.5t56.5 -20.5t69.5 -7q138 0 138 52q0 7 -2.5 14t-11 16t-25 20.5t-44.5 26.5l-108 59q-21 -2 -43.5 -9.5t-40.5 -18t-29.5 -24.5t-11.5 -30zM438 805h11l64 -196h-37l-67 79l-165 -79h-40z" />
    <glyph glyph-name="uni0123" unicode="&#x123;" horiz-adv-x="534" 
d="M234 167q-46 0 -83 14q-15 -5 -22.5 -13.5t-7.5 -19.5q0 -26 34 -45l129 -73q73 -41 106.5 -72.5t33.5 -68.5q0 -39 -25.5 -67t-65 -47t-88 -28t-94.5 -9q-62 0 -112 9.5t-85 26.5t-54 40.5t-19 52.5q0 43 52.5 75t151.5 37l-8 4q-29 16 -43 40.5t-14 49.5q0 36 29.5 68
t86.5 46q-32 16 -49 42t-17 61q0 45 22 86t59 73t86 51t103 19q48 0 84 -14.5t56 -40.5l49 92h123l-54 -99h-113q18 -26 18 -61q0 -45 -22 -86t-59 -73t-85.5 -51t-102.5 -19zM267 210q42 0 68.5 47t26.5 125q0 43 -13.5 68.5t-42.5 25.5q-42 0 -68.5 -47t-26.5 -125
q0 -43 13.5 -68.5t42.5 -25.5zM-23 -113q0 -25 14 -45t38 -33.5t56.5 -20.5t69.5 -7q138 0 138 52q0 7 -2.5 14t-11 16t-25 20.5t-44.5 26.5l-108 59q-21 -2 -43.5 -9.5t-40.5 -18t-29.5 -24.5t-11.5 -30zM506 854q-54 -24 -88.5 -53.5t-34.5 -62.5q0 -26 18.5 -43t50.5 -22
q1 -35 -19.5 -57t-53.5 -23q-41 -1 -69.5 25t-28.5 71q0 33 18.5 62.5t48.5 54t67.5 44.5t76.5 35z" />
    <glyph glyph-name="gdotaccent" unicode="&#x121;" horiz-adv-x="534" 
d="M234 167q-46 0 -83 14q-15 -5 -22.5 -13.5t-7.5 -19.5q0 -26 34 -45l129 -73q73 -41 106.5 -72.5t33.5 -68.5q0 -39 -25.5 -67t-65 -47t-88 -28t-94.5 -9q-62 0 -112 9.5t-85 26.5t-54 40.5t-19 52.5q0 43 52.5 75t151.5 37l-8 4q-29 16 -43 40.5t-14 49.5q0 36 29.5 68
t86.5 46q-32 16 -49 42t-17 61q0 45 22 86t59 73t86 51t103 19q48 0 84 -14.5t56 -40.5l49 92h123l-54 -99h-113q18 -26 18 -61q0 -45 -22 -86t-59 -73t-85.5 -51t-102.5 -19zM267 210q42 0 68.5 47t26.5 125q0 43 -13.5 68.5t-42.5 25.5q-42 0 -68.5 -47t-26.5 -125
q0 -43 13.5 -68.5t42.5 -25.5zM-23 -113q0 -25 14 -45t38 -33.5t56.5 -20.5t69.5 -7q138 0 138 52q0 7 -2.5 14t-11 16t-25 20.5t-44.5 26.5l-108 59q-21 -2 -43.5 -9.5t-40.5 -18t-29.5 -24.5t-11.5 -30zM391 636q-29 0 -48.5 20t-19.5 49q0 30 19.5 49.5t48.5 19.5
t48.5 -19.5t19.5 -49.5q0 -29 -19.5 -49t-48.5 -20z" />
    <glyph glyph-name="hbar" unicode="&#x127;" horiz-adv-x="619" 
d="M250 758h148l-155 -450l-32 -91h1q28 47 49 81.5t43 67.5q28 43 52.5 72t48 47t47.5 26t51 8q30 0 52.5 -12.5t34.5 -36.5t11 -58.5t-18 -78.5l-127 -333h-150l126 331q13 34 19 57t6.5 36t-4.5 18.5t-13 5.5q-23 0 -54.5 -35t-69.5 -95q-23 -35 -49 -77t-50.5 -84.5
t-46 -83t-33.5 -73.5h-148zM135 668h326l-18 -53h-326z" />
    <glyph glyph-name="hcircumflex" unicode="&#x125;" horiz-adv-x="619" 
d="M250 758h148l-155 -450l-32 -91h1q28 47 49 81.5t43 67.5q28 43 52.5 72t48 47t47.5 26t51 8q30 0 52.5 -12.5t34.5 -36.5t11 -58.5t-18 -78.5l-127 -333h-150l126 331q13 34 19 57t6.5 36t-4.5 18.5t-13 5.5q-23 0 -54.5 -35t-69.5 -95q-23 -35 -49 -77t-50.5 -84.5
t-46 -83t-33.5 -73.5h-148zM411 987h14l82 -154h-39l-71 58l-159 -58h-45z" />
    <glyph glyph-name="dotlessi" unicode="&#x131;" horiz-adv-x="297" 
d="M171 502h148l-192 -502h-148z" />
    <glyph glyph-name="ibreve" unicode="&#x12d;" horiz-adv-x="297" 
d="M171 502h148l-192 -502h-148zM282 628q-24 0 -48 8t-41.5 27t-24 49.5t3.5 75.5h53q-11 -56 8.5 -81t59.5 -25q36 0 69 23.5t50 82.5h56q-13 -51 -34.5 -82.5t-47.5 -48.5t-53 -23t-51 -6z" />
    <glyph glyph-name="imacron" unicode="&#x12b;" horiz-adv-x="297" 
d="M171 502h148l-192 -502h-148zM184 737h285l-23 -68h-285z" />
    <glyph glyph-name="iogonek" unicode="&#x12f;" horiz-adv-x="297" 
d="M171 502h148l-192 -502h-148zM210 700q0 18 7.5 35t20.5 30t30 20.5t35 7.5q19 0 36 -7.5t30 -20.5t20.5 -30t7.5 -35q0 -19 -7.5 -36t-20.5 -30t-30 -20.5t-36 -7.5q-18 0 -35 7.5t-30 20.5t-20.5 30t-7.5 36zM-21 -234q-38 0 -64 17t-26 52q0 23 15 46.5t39 45t54 40
t60 33.5h34q-17 -15 -36 -31t-35 -33t-26 -35t-10 -37q0 -46 58 -46q20 0 46 6l-11 -31q-18 -12 -45 -19.5t-53 -7.5z" />
    <glyph glyph-name="itilde" unicode="&#x129;" horiz-adv-x="297" 
d="M171 502h148l-192 -502h-148zM395 645q-24 0 -43.5 9t-37 20t-34.5 20t-37 9q-23 0 -40 -11t-27 -43h-30q9 72 41.5 109.5t83.5 37.5q24 0 42.5 -9t35 -20t33 -20t36.5 -9q21 0 35.5 11t22.5 39h30q-7 -44 -18.5 -71.5t-26 -43.5t-31.5 -22t-35 -6z" />
    <glyph glyph-name="uni1ECB" unicode="&#x1ecb;" horiz-adv-x="297" 
d="M171 502h148l-192 -502h-148zM210 700q0 18 7.5 35t20.5 30t30 20.5t35 7.5q19 0 36 -7.5t30 -20.5t20.5 -30t7.5 -35q0 -19 -7.5 -36t-20.5 -30t-30 -20.5t-36 -7.5q-18 0 -35 7.5t-30 20.5t-20.5 30t-7.5 36zM-3 -237q-29 0 -48.5 20t-19.5 49q0 30 19.5 49.5
t48.5 19.5t48.5 -19.5t19.5 -49.5q0 -29 -19.5 -49t-48.5 -20z" />
    <glyph glyph-name="uni0237" unicode="&#x237;" horiz-adv-x="306" 
d="M-245 -228q46 30 82.5 54.5t66 53.5t53.5 67t46 95l177 460h148l-174 -453q-15 -41 -30.5 -69.5t-35 -51t-44.5 -41t-60 -37.5q-17 -9 -42 -23t-54 -29t-59.5 -30.5t-57.5 -28.5z" />
    <glyph glyph-name="jcircumflex" unicode="&#x135;" horiz-adv-x="306" 
d="M-245 -228q46 30 82.5 54.5t66 53.5t53.5 67t46 95l177 460h148l-174 -453q-15 -41 -30.5 -69.5t-35 -51t-44.5 -41t-60 -37.5q-17 -9 -42 -23t-54 -29t-59.5 -30.5t-57.5 -28.5zM372 805h11l64 -196h-37l-67 79l-165 -79h-40z" />
    <glyph glyph-name="uni0137" unicode="&#x137;" horiz-adv-x="596" 
d="M257 780h148l-175 -508l321 230h107l-293 -211l161 -291h-164l-139 251l-86 -251h-148zM82 -347q54 24 88.5 53.5t34.5 62.5q0 26 -18.5 43t-50.5 22q-1 35 19.5 57t53.5 23q41 1 69.5 -25t28.5 -71q0 -33 -18.5 -62.5t-48.5 -54t-67.5 -44.5t-76.5 -35z" />
    <glyph glyph-name="lacute" unicode="&#x13a;" horiz-adv-x="297" 
d="M257 780h148l-268 -780h-148zM470 1066h157l-4 -11l-257 -168h-39z" />
    <glyph glyph-name="lcaron" unicode="&#x13e;" horiz-adv-x="357" 
d="M257 780h148l-268 -780h-148zM398 530q54 24 88.5 53.5t34.5 62.5q0 26 -18.5 43t-50.5 22q-1 35 19.5 57t53.5 23q41 1 69.5 -25t28.5 -71q0 -33 -18.5 -62.5t-48.5 -54t-67.5 -44.5t-76.5 -35z" />
    <glyph glyph-name="uni013C" unicode="&#x13c;" horiz-adv-x="297" 
d="M257 780h148l-268 -780h-148zM-129 -347q54 24 88.5 53.5t34.5 62.5q0 26 -18.5 43t-50.5 22q-1 35 19.5 57t53.5 23q41 1 69.5 -25t28.5 -71q0 -33 -18.5 -62.5t-48.5 -54t-67.5 -44.5t-76.5 -35z" />
    <glyph glyph-name="ldot" unicode="&#x140;" horiz-adv-x="441" 
d="M257 780h148l-268 -780h-148zM426 350q-29 0 -48.5 20t-19.5 49q0 30 19.5 49.5t48.5 19.5t48.5 -19.5t19.5 -49.5q0 -29 -19.5 -49t-48.5 -20z" />
    <glyph glyph-name="glyph298" horiz-adv-x="441" 
d="M257 780h148l-268 -780h-148zM426 350q-29 0 -48.5 20t-19.5 49q0 30 19.5 49.5t48.5 19.5t48.5 -19.5t19.5 -49.5q0 -29 -19.5 -49t-48.5 -20z" />
    <glyph glyph-name="lslash" unicode="&#x142;" horiz-adv-x="357" 
d="M287 780h148l-268 -780h-148zM33 342l416 201l-20 -72l-416 -201z" />
    <glyph glyph-name="eng" unicode="&#x14b;" horiz-adv-x="611" 
d="M67 -228q46 30 82.5 54.5t65.5 53.5t53 67t46 95l110 289q13 34 18.5 57t5.5 36t-4.5 18.5t-11.5 5.5q-23 0 -54.5 -37.5t-69.5 -97.5q-23 -35 -49 -76t-50.5 -83t-46 -81.5t-33.5 -72.5h-150l193 502h146l-115 -285h1q28 47 49 81.5t43 67.5q28 43 52.5 72t48 47
t47.5 26t51 8q30 0 52.5 -12.5t34.5 -36.5t11 -58.5t-18 -78.5l-109 -284q-15 -41 -30.5 -69.5t-35 -51t-44.5 -41t-60 -37.5q-17 -9 -42 -23t-54 -29t-59.5 -30.5t-57.5 -28.5z" />
    <glyph glyph-name="nacute" unicode="&#x144;" horiz-adv-x="611" 
d="M298 0l126 331q13 34 19 57t6.5 36t-4.5 18.5t-13 5.5q-23 0 -54.5 -35t-69.5 -95q-23 -35 -49 -77t-50.5 -84.5t-46 -83t-33.5 -73.5h-150l193 502h146l-115 -285h1q28 47 49 81.5t43 67.5q28 43 52.5 72t48 47t47.5 26t51 8q30 0 52.5 -12.5t34.5 -36.5t11 -58.5
t-18 -78.5l-127 -333h-150zM547 788h157l-4 -11l-257 -168h-39z" />
    <glyph glyph-name="ncaron" unicode="&#x148;" horiz-adv-x="611" 
d="M298 0l126 331q13 34 19 57t6.5 36t-4.5 18.5t-13 5.5q-23 0 -54.5 -35t-69.5 -95q-23 -35 -49 -77t-50.5 -84.5t-46 -83t-33.5 -73.5h-150l193 502h146l-115 -285h1q28 47 49 81.5t43 67.5q28 43 52.5 72t48 47t47.5 26t51 8q30 0 52.5 -12.5t34.5 -36.5t11 -58.5
t-18 -78.5l-127 -333h-150zM355 805h37l66 -79l166 79h40l-234 -196h-11z" />
    <glyph glyph-name="uni0146" unicode="&#x146;" horiz-adv-x="611" 
d="M298 0l126 331q13 34 19 57t6.5 36t-4.5 18.5t-13 5.5q-23 0 -54.5 -35t-69.5 -95q-23 -35 -49 -77t-50.5 -84.5t-46 -83t-33.5 -73.5h-150l193 502h146l-115 -285h1q28 47 49 81.5t43 67.5q28 43 52.5 72t48 47t47.5 26t51 8q30 0 52.5 -12.5t34.5 -36.5t11 -58.5
t-18 -78.5l-127 -333h-150zM58 -347q54 24 88.5 53.5t34.5 62.5q0 26 -18.5 43t-50.5 22q-1 35 19.5 57t53.5 23q41 1 69.5 -25t28.5 -71q0 -33 -18.5 -62.5t-48.5 -54t-67.5 -44.5t-76.5 -35z" />
    <glyph glyph-name="oe" unicode="&#x153;" horiz-adv-x="821" 
d="M22 132q0 68 29 137.5t77.5 125.5t111.5 91t131 35q49 0 77.5 -23.5t39.5 -61.5q48 38 101 60.5t103 22.5q68 0 102 -28.5t34 -70.5q0 -28 -13.5 -58.5t-37.5 -54.5l-265 -2q-11 -30 -17 -63.5t-6 -69.5q0 -59 18 -85t50 -26q21 0 42 10.5t41 28t39 40t36 46.5l36 -25
q-27 -39 -54 -71t-58.5 -55t-69 -35.5t-85.5 -12.5q-50 0 -85.5 19t-54.5 54q-38 -33 -82.5 -53t-93.5 -20q-36 0 -63 11.5t-45.5 31.5t-28 46t-9.5 56zM225 29q19 0 42 25t42 72t31.5 114.5t12.5 152.5q0 86 -37 86q-21 0 -43.5 -25t-42 -72t-32 -114.5t-12.5 -152.5
q0 -42 9 -64t30 -22zM686 478q-43 0 -87 -38.5t-74 -101.5h35q40 0 71 10t52.5 25.5t32.5 34t11 36.5q0 34 -41 34z" />
    <glyph glyph-name="obreve" unicode="&#x14f;" horiz-adv-x="564" 
d="M175 -13q-38 0 -67.5 11.5t-49 31.5t-29.5 46t-10 56q0 68 31 137t82.5 124.5t119 90.5t140.5 35q38 0 67.5 -11.5t49 -31.5t29.5 -46t10 -56q0 -68 -31 -137t-82.5 -124.5t-119 -90.5t-140.5 -35zM236 40q22 0 48 20t48 60t36.5 100.5t14.5 140.5q0 57 -14.5 81
t-37.5 24q-22 0 -48 -20t-48 -60t-36.5 -100.5t-14.5 -140.5q0 -57 14.5 -81t37.5 -24zM404 628q-24 0 -48 8t-41.5 27t-24 49.5t3.5 75.5h53q-11 -56 8.5 -81t59.5 -25q36 0 69 23.5t50 82.5h56q-13 -51 -34.5 -82.5t-47.5 -48.5t-53 -23t-51 -6z" />
    <glyph glyph-name="ohungarumlaut" unicode="&#x151;" horiz-adv-x="564" 
d="M175 -13q-38 0 -67.5 11.5t-49 31.5t-29.5 46t-10 56q0 68 31 137t82.5 124.5t119 90.5t140.5 35q38 0 67.5 -11.5t49 -31.5t29.5 -46t10 -56q0 -68 -31 -137t-82.5 -124.5t-119 -90.5t-140.5 -35zM236 40q22 0 48 20t48 60t36.5 100.5t14.5 140.5q0 57 -14.5 81
t-37.5 24q-22 0 -48 -20t-48 -60t-36.5 -100.5t-14.5 -140.5q0 -57 14.5 -81t37.5 -24zM602 788h157l-4 -11l-257 -168h-39zM428 788h157l-4 -11l-257 -168h-39z" />
    <glyph glyph-name="omacron" unicode="&#x14d;" horiz-adv-x="564" 
d="M175 -13q-38 0 -67.5 11.5t-49 31.5t-29.5 46t-10 56q0 68 31 137t82.5 124.5t119 90.5t140.5 35q38 0 67.5 -11.5t49 -31.5t29.5 -46t10 -56q0 -68 -31 -137t-82.5 -124.5t-119 -90.5t-140.5 -35zM236 40q22 0 48 20t48 60t36.5 100.5t14.5 140.5q0 57 -14.5 81
t-37.5 24q-22 0 -48 -20t-48 -60t-36.5 -100.5t-14.5 -140.5q0 -57 14.5 -81t37.5 -24zM306 737h285l-23 -68h-285z" />
    <glyph glyph-name="uni1ECD" unicode="&#x1ecd;" horiz-adv-x="564" 
d="M175 -13q-38 0 -67.5 11.5t-49 31.5t-29.5 46t-10 56q0 68 31 137t82.5 124.5t119 90.5t140.5 35q38 0 67.5 -11.5t49 -31.5t29.5 -46t10 -56q0 -68 -31 -137t-82.5 -124.5t-119 -90.5t-140.5 -35zM236 40q22 0 48 20t48 60t36.5 100.5t14.5 140.5q0 57 -14.5 81
t-37.5 24q-22 0 -48 -20t-48 -60t-36.5 -100.5t-14.5 -140.5q0 -57 14.5 -81t37.5 -24zM138 -237q-29 0 -48.5 20t-19.5 49q0 30 19.5 49.5t48.5 19.5t48.5 -19.5t19.5 -49.5q0 -29 -19.5 -49t-48.5 -20z" />
    <glyph glyph-name="racute" unicode="&#x155;" horiz-adv-x="470" 
d="M171 502h147l-109 -273h1l91 152q21 34 38 60t34.5 43.5t36.5 26t43 8.5q29 0 49 -17t20 -49q0 -38 -25 -65t-66 -35q-12 22 -20 36t-13 22t-8.5 10.5t-6.5 2.5q-5 0 -14 -9.5t-20 -25.5t-24.5 -37t-27.5 -43q-31 -50 -70 -111.5t-77 -133.5l-23 -64h-148zM500 788h157
l-4 -11l-257 -168h-39z" />
    <glyph glyph-name="rcaron" unicode="&#x159;" horiz-adv-x="470" 
d="M171 502h147l-109 -273h1l91 152q21 34 38 60t34.5 43.5t36.5 26t43 8.5q29 0 49 -17t20 -49q0 -38 -25 -65t-66 -35q-12 22 -20 36t-13 22t-8.5 10.5t-6.5 2.5q-5 0 -14 -9.5t-20 -25.5t-24.5 -37t-27.5 -43q-31 -50 -70 -111.5t-77 -133.5l-23 -64h-148zM308 805h37
l66 -79l166 79h40l-234 -196h-11z" />
    <glyph glyph-name="uni0157" unicode="&#x157;" horiz-adv-x="470" 
d="M171 502h147l-109 -273h1l91 152q21 34 38 60t34.5 43.5t36.5 26t43 8.5q29 0 49 -17t20 -49q0 -38 -25 -65t-66 -35q-12 22 -20 36t-13 22t-8.5 10.5t-6.5 2.5q-5 0 -14 -9.5t-20 -25.5t-24.5 -37t-27.5 -43q-31 -50 -70 -111.5t-77 -133.5l-23 -64h-148zM-126 -347
q54 24 88.5 53.5t34.5 62.5q0 26 -18.5 43t-50.5 22q-1 35 19.5 57t53.5 23q41 1 69.5 -25t28.5 -71q0 -33 -18.5 -62.5t-48.5 -54t-67.5 -44.5t-76.5 -35z" />
    <glyph glyph-name="sacute" unicode="&#x15b;" horiz-adv-x="448" 
d="M125 -13q-29 0 -54 7.5t-43 20t-28.5 29.5t-10.5 35q0 20 8.5 35.5t23 25t33 14.5t39.5 4q13 -40 21.5 -64.5t16 -38t15 -18t16.5 -4.5q12 0 25.5 3.5t25.5 11t19.5 18t7.5 25.5q0 23 -13.5 45.5t-37.5 51.5l-35 41q-26 31 -41 60.5t-15 58.5q0 37 21.5 68.5t56 54.5
t77 35.5t84.5 12.5q56 0 88.5 -21t32.5 -58q0 -14 -6 -29t-18.5 -26.5t-31 -18t-43.5 -3.5q-12 34 -20 55.5t-14.5 33.5t-13 16.5t-16.5 4.5q-11 0 -23.5 -3t-23 -9t-17.5 -15.5t-7 -22.5q0 -21 9.5 -40t35.5 -50l38 -45q13 -16 23.5 -29.5t17.5 -27t10.5 -27.5t3.5 -32
q0 -43 -21.5 -77.5t-56 -58.5t-76.5 -36.5t-83 -12.5zM464 788h157l-4 -11l-257 -168h-39z" />
    <glyph glyph-name="scaron" unicode="&#x161;" horiz-adv-x="448" 
d="M125 -13q-29 0 -54 7.5t-43 20t-28.5 29.5t-10.5 35q0 20 8.5 35.5t23 25t33 14.5t39.5 4q13 -40 21.5 -64.5t16 -38t15 -18t16.5 -4.5q12 0 25.5 3.5t25.5 11t19.5 18t7.5 25.5q0 23 -13.5 45.5t-37.5 51.5l-35 41q-26 31 -41 60.5t-15 58.5q0 37 21.5 68.5t56 54.5
t77 35.5t84.5 12.5q56 0 88.5 -21t32.5 -58q0 -14 -6 -29t-18.5 -26.5t-31 -18t-43.5 -3.5q-12 34 -20 55.5t-14.5 33.5t-13 16.5t-16.5 4.5q-11 0 -23.5 -3t-23 -9t-17.5 -15.5t-7 -22.5q0 -21 9.5 -40t35.5 -50l38 -45q13 -16 23.5 -29.5t17.5 -27t10.5 -27.5t3.5 -32
q0 -43 -21.5 -77.5t-56 -58.5t-76.5 -36.5t-83 -12.5zM272 805h37l66 -79l166 79h40l-234 -196h-11z" />
    <glyph glyph-name="scedilla" unicode="&#x15f;" horiz-adv-x="448" 
d="M125 -13q-29 0 -54 7.5t-43 20t-28.5 29.5t-10.5 35q0 20 8.5 35.5t23 25t33 14.5t39.5 4q13 -40 21.5 -64.5t16 -38t15 -18t16.5 -4.5q12 0 25.5 3.5t25.5 11t19.5 18t7.5 25.5q0 23 -13.5 45.5t-37.5 51.5l-35 41q-26 31 -41 60.5t-15 58.5q0 37 21.5 68.5t56 54.5
t77 35.5t84.5 12.5q56 0 88.5 -21t32.5 -58q0 -14 -6 -29t-18.5 -26.5t-31 -18t-43.5 -3.5q-12 34 -20 55.5t-14.5 33.5t-13 16.5t-16.5 4.5q-11 0 -23.5 -3t-23 -9t-17.5 -15.5t-7 -22.5q0 -21 9.5 -40t35.5 -50l38 -45q13 -16 23.5 -29.5t17.5 -27t10.5 -27.5t3.5 -32
q0 -43 -21.5 -77.5t-56 -58.5t-76.5 -36.5t-83 -12.5zM35 -265q-50 0 -78 21t-28 45q0 23 19 32.5t41 -1.5q-4 -34 15 -49.5t47 -15.5q43 0 43 27q0 20 -22 38.5t-63 46.5l143 121h48l-98 -83q23 -17 38.5 -37t15.5 -44q0 -45 -33 -73t-88 -28z" />
    <glyph glyph-name="scircumflex" unicode="&#x15d;" horiz-adv-x="448" 
d="M125 -13q-29 0 -54 7.5t-43 20t-28.5 29.5t-10.5 35q0 20 8.5 35.5t23 25t33 14.5t39.5 4q13 -40 21.5 -64.5t16 -38t15 -18t16.5 -4.5q12 0 25.5 3.5t25.5 11t19.5 18t7.5 25.5q0 23 -13.5 45.5t-37.5 51.5l-35 41q-26 31 -41 60.5t-15 58.5q0 37 21.5 68.5t56 54.5
t77 35.5t84.5 12.5q56 0 88.5 -21t32.5 -58q0 -14 -6 -29t-18.5 -26.5t-31 -18t-43.5 -3.5q-12 34 -20 55.5t-14.5 33.5t-13 16.5t-16.5 4.5q-11 0 -23.5 -3t-23 -9t-17.5 -15.5t-7 -22.5q0 -21 9.5 -40t35.5 -50l38 -45q13 -16 23.5 -29.5t17.5 -27t10.5 -27.5t3.5 -32
q0 -43 -21.5 -77.5t-56 -58.5t-76.5 -36.5t-83 -12.5zM441 805h11l64 -196h-37l-67 79l-165 -79h-40z" />
    <glyph glyph-name="uni0219" unicode="&#x219;" horiz-adv-x="448" 
d="M125 -13q-29 0 -54 7.5t-43 20t-28.5 29.5t-10.5 35q0 20 8.5 35.5t23 25t33 14.5t39.5 4q13 -40 21.5 -64.5t16 -38t15 -18t16.5 -4.5q12 0 25.5 3.5t25.5 11t19.5 18t7.5 25.5q0 23 -13.5 45.5t-37.5 51.5l-35 41q-26 31 -41 60.5t-15 58.5q0 37 21.5 68.5t56 54.5
t77 35.5t84.5 12.5q56 0 88.5 -21t32.5 -58q0 -14 -6 -29t-18.5 -26.5t-31 -18t-43.5 -3.5q-12 34 -20 55.5t-14.5 33.5t-13 16.5t-16.5 4.5q-11 0 -23.5 -3t-23 -9t-17.5 -15.5t-7 -22.5q0 -21 9.5 -40t35.5 -50l38 -45q13 -16 23.5 -29.5t17.5 -27t10.5 -27.5t3.5 -32
q0 -43 -21.5 -77.5t-56 -58.5t-76.5 -36.5t-83 -12.5zM-34 -347q54 24 88.5 53.5t34.5 62.5q0 26 -18.5 43t-50.5 22q-1 35 19.5 57t53.5 23q41 1 69.5 -25t28.5 -71q0 -33 -18.5 -62.5t-48.5 -54t-67.5 -44.5t-76.5 -35z" />
    <glyph glyph-name="tbar" unicode="&#x167;" horiz-adv-x="472" 
d="M142 -13q-32 0 -50.5 9t-26 25t-5.5 38t13 48l128 317h-109l30 78h110l47 116h147l-46 -116h129l-31 -78h-129l-118 -295q-16 -40 -17.5 -56t14.5 -16q9 0 25 5.5t34.5 20.5t39 40.5t40.5 64.5l41 -16q-42 -86 -108.5 -135.5t-157.5 -49.5zM66 361h386l-21 -52h-386z" />
    <glyph glyph-name="tcaron" unicode="&#x165;" horiz-adv-x="432" 
d="M122 -13q-32 0 -50.5 9t-26 25t-5.5 38t13 48l128 317h-109l30 78h110l47 116h147l-46 -116h129l-31 -78h-129l-118 -295q-16 -40 -17.5 -56t14.5 -16q9 0 25 5.5t34.5 20.5t39 40.5t40.5 64.5l41 -16q-42 -86 -108.5 -135.5t-157.5 -49.5zM493 576q54 24 88.5 53.5
t34.5 62.5q0 26 -18.5 43t-50.5 22q-1 35 19.5 57t53.5 23q41 1 69.5 -25t28.5 -71q0 -33 -18.5 -62.5t-48.5 -54t-67.5 -44.5t-76.5 -35z" />
    <glyph glyph-name="uni0163" unicode="&#x163;" horiz-adv-x="432" 
d="M122 -13q-32 0 -50.5 9t-26 25t-5.5 38t13 48l128 317h-109l30 78h110l47 116h147l-46 -116h129l-31 -78h-129l-118 -295q-16 -40 -17.5 -56t14.5 -16q9 0 25 5.5t34.5 20.5t39 40.5t40.5 64.5l41 -16q-42 -86 -108.5 -135.5t-157.5 -49.5zM-56 -347q54 24 88.5 53.5
t34.5 62.5q0 26 -18.5 43t-50.5 22q-1 35 19.5 57t53.5 23q41 1 69.5 -25t28.5 -71q0 -33 -18.5 -62.5t-48.5 -54t-67.5 -44.5t-76.5 -35z" />
    <glyph glyph-name="uni021B" unicode="&#x21b;" horiz-adv-x="432" 
d="M122 -13q-32 0 -50.5 9t-26 25t-5.5 38t13 48l128 317h-109l30 78h110l47 116h147l-46 -116h129l-31 -78h-129l-118 -295q-16 -40 -17.5 -56t14.5 -16q9 0 25 5.5t34.5 20.5t39 40.5t40.5 64.5l41 -16q-42 -86 -108.5 -135.5t-157.5 -49.5zM-56 -347q54 24 88.5 53.5
t34.5 62.5q0 26 -18.5 43t-50.5 22q-1 35 19.5 57t53.5 23q41 1 69.5 -25t28.5 -71q0 -33 -18.5 -62.5t-48.5 -54t-67.5 -44.5t-76.5 -35z" />
    <glyph glyph-name="ubreve" unicode="&#x16d;" horiz-adv-x="607" 
d="M319 502l-134 -331q-14 -34 -19.5 -56t-5 -34.5t5 -17.5t11.5 -5q23 0 54.5 35.5t69.5 95.5q22 35 48 76t50.5 83t46 81.5t35.5 72.5h149l-193 -502h-146l115 285h-1q-29 -47 -49.5 -81.5t-42.5 -67.5q-28 -43 -52.5 -71.5t-48 -46t-47.5 -24.5t-51 -7q-72 0 -93.5 47
t13.5 135l135 333h150zM435 628q-24 0 -48 8t-41.5 27t-24 49.5t3.5 75.5h53q-11 -56 8.5 -81t59.5 -25q36 0 69 23.5t50 82.5h56q-13 -51 -34.5 -82.5t-47.5 -48.5t-53 -23t-51 -6z" />
    <glyph glyph-name="uhungarumlaut" unicode="&#x171;" horiz-adv-x="607" 
d="M319 502l-134 -331q-14 -34 -19.5 -56t-5 -34.5t5 -17.5t11.5 -5q23 0 54.5 35.5t69.5 95.5q22 35 48 76t50.5 83t46 81.5t35.5 72.5h149l-193 -502h-146l115 285h-1q-29 -47 -49.5 -81.5t-42.5 -67.5q-28 -43 -52.5 -71.5t-48 -46t-47.5 -24.5t-51 -7q-72 0 -93.5 47
t13.5 135l135 333h150zM633 788h157l-4 -11l-257 -168h-39zM459 788h157l-4 -11l-257 -168h-39z" />
    <glyph glyph-name="umacron" unicode="&#x16b;" horiz-adv-x="607" 
d="M319 502l-134 -331q-14 -34 -19.5 -56t-5 -34.5t5 -17.5t11.5 -5q23 0 54.5 35.5t69.5 95.5q22 35 48 76t50.5 83t46 81.5t35.5 72.5h149l-193 -502h-146l115 285h-1q-29 -47 -49.5 -81.5t-42.5 -67.5q-28 -43 -52.5 -71.5t-48 -46t-47.5 -24.5t-51 -7q-72 0 -93.5 47
t13.5 135l135 333h150zM337 737h285l-23 -68h-285z" />
    <glyph glyph-name="uogonek" unicode="&#x173;" horiz-adv-x="607" 
d="M319 502l-134 -331q-14 -34 -19.5 -56t-5 -34.5t5 -17.5t11.5 -5q23 0 54.5 35.5t69.5 95.5q22 35 48 76t50.5 83t46 81.5t35.5 72.5h149l-193 -502h-146l115 285h-1q-29 -47 -49.5 -81.5t-42.5 -67.5q-28 -43 -52.5 -71.5t-48 -46t-47.5 -24.5t-51 -7q-72 0 -93.5 47
t13.5 135l135 333h150zM291 -234q-38 0 -64 17t-26 52q0 23 15 46.5t39 45t54 40t60 33.5h34q-17 -15 -36 -31t-35 -33t-26 -35t-10 -37q0 -46 58 -46q20 0 46 6l-11 -31q-18 -12 -45 -19.5t-53 -7.5z" />
    <glyph glyph-name="uring" unicode="&#x16f;" horiz-adv-x="607" 
d="M319 502l-134 -331q-14 -34 -19.5 -56t-5 -34.5t5 -17.5t11.5 -5q23 0 54.5 35.5t69.5 95.5q22 35 48 76t50.5 83t46 81.5t35.5 72.5h149l-193 -502h-146l115 285h-1q-29 -47 -49.5 -81.5t-42.5 -67.5q-28 -43 -52.5 -71.5t-48 -46t-47.5 -24.5t-51 -7q-72 0 -93.5 47
t13.5 135l135 333h150zM469 585q-26 0 -48.5 9.5t-39 25.5t-26.5 38t-10 47t10 47t26.5 38.5t39 26t48.5 9.5q27 0 50 -9.5t40 -26t27 -38.5t10 -47t-10 -47t-27 -38t-40 -25.5t-50 -9.5zM469 638q32 0 49 18t17 49t-17 48.5t-49 17.5q-30 0 -47.5 -17.5t-17.5 -48.5
t17.5 -49t47.5 -18z" />
    <glyph glyph-name="utilde" unicode="&#x169;" horiz-adv-x="607" 
d="M319 502l-134 -331q-14 -34 -19.5 -56t-5 -34.5t5 -17.5t11.5 -5q23 0 54.5 35.5t69.5 95.5q22 35 48 76t50.5 83t46 81.5t35.5 72.5h149l-193 -502h-146l115 285h-1q-29 -47 -49.5 -81.5t-42.5 -67.5q-28 -43 -52.5 -71.5t-48 -46t-47.5 -24.5t-51 -7q-72 0 -93.5 47
t13.5 135l135 333h150zM548 645q-24 0 -43.5 9t-37 20t-34.5 20t-37 9q-23 0 -40 -11t-27 -43h-30q9 72 41.5 109.5t83.5 37.5q24 0 42.5 -9t35 -20t33 -20t36.5 -9q21 0 35.5 11t22.5 39h30q-7 -44 -18.5 -71.5t-26 -43.5t-31.5 -22t-35 -6z" />
    <glyph glyph-name="uni1EE5" unicode="&#x1ee5;" horiz-adv-x="607" 
d="M319 502l-134 -331q-14 -34 -19.5 -56t-5 -34.5t5 -17.5t11.5 -5q23 0 54.5 35.5t69.5 95.5q22 35 48 76t50.5 83t46 81.5t35.5 72.5h149l-193 -502h-146l115 285h-1q-29 -47 -49.5 -81.5t-42.5 -67.5q-28 -43 -52.5 -71.5t-48 -46t-47.5 -24.5t-51 -7q-72 0 -93.5 47
t13.5 135l135 333h150zM140 -237q-29 0 -48.5 20t-19.5 49q0 30 19.5 49.5t48.5 19.5t48.5 -19.5t19.5 -49.5q0 -29 -19.5 -49t-48.5 -20z" />
    <glyph glyph-name="wacute" unicode="&#x1e83;" horiz-adv-x="877" 
d="M256 189l261 313h83l11 -319l259 319h89l-408 -502h-74l-13 338l-280 -338h-75l7 502h148zM705 788h157l-4 -11l-257 -168h-39z" />
    <glyph glyph-name="wcircumflex" unicode="&#x175;" horiz-adv-x="877" 
d="M256 189l261 313h83l11 -319l259 319h89l-408 -502h-74l-13 338l-280 -338h-75l7 502h148zM682 805h11l64 -196h-37l-67 79l-165 -79h-40z" />
    <glyph glyph-name="wdieresis" unicode="&#x1e85;" horiz-adv-x="877" 
d="M256 189l261 313h83l11 -319l259 319h89l-408 -502h-74l-13 338l-280 -338h-75l7 502h148zM748 636q-29 0 -48.5 20t-19.5 49q0 30 19.5 49.5t48.5 19.5t48.5 -19.5t19.5 -49.5q0 -29 -19.5 -49t-48.5 -20zM522 636q-29 0 -48.5 20t-19.5 49q0 30 19.5 49.5t48.5 19.5
t48.5 -19.5t19.5 -49.5q0 -29 -19.5 -49t-48.5 -20z" />
    <glyph glyph-name="wgrave" unicode="&#x1e81;" horiz-adv-x="877" 
d="M256 189l261 313h83l11 -319l259 319h89l-408 -502h-74l-13 338l-280 -338h-75l7 502h148zM606 609l-159 168l4 11h132l58 -179h-35z" />
    <glyph glyph-name="ycircumflex" unicode="&#x177;" horiz-adv-x="557" 
d="M134 31l-28 471h149l19 -319l297 319h93l-698 -750h-92zM494 805h11l64 -196h-37l-67 79l-165 -79h-40z" />
    <glyph glyph-name="ygrave" unicode="&#x1ef3;" horiz-adv-x="557" 
d="M134 31l-28 471h149l19 -319l297 319h93l-698 -750h-92zM418 609l-159 168l4 11h132l58 -179h-35z" />
    <glyph glyph-name="uni0233" unicode="&#x233;" horiz-adv-x="557" 
d="M134 31l-28 471h149l19 -319l297 319h93l-698 -750h-92zM315 737h285l-23 -68h-285z" />
    <glyph glyph-name="zacute" unicode="&#x17a;" horiz-adv-x="531" 
d="M-43 55l415 374h-243l29 73h436l-22 -55l-416 -374h259l-28 -73h-452zM500 788h157l-4 -11l-257 -168h-39z" />
    <glyph glyph-name="zcaron" unicode="&#x17e;" horiz-adv-x="531" 
d="M-43 55l415 374h-243l29 73h436l-22 -55l-416 -374h259l-28 -73h-452zM308 805h37l66 -79l166 79h40l-234 -196h-11z" />
    <glyph glyph-name="zdotaccent" unicode="&#x17c;" horiz-adv-x="531" 
d="M-43 55l415 374h-243l29 73h436l-22 -55l-416 -374h259l-28 -73h-452zM430 636q-29 0 -48.5 20t-19.5 49q0 30 19.5 49.5t48.5 19.5t48.5 -19.5t19.5 -49.5q0 -29 -19.5 -49t-48.5 -20z" />
    <glyph glyph-name="uni0259" unicode="&#x259;" horiz-adv-x="515" 
d="M339.979 518.969q71.9951 0 114.493 -38.998q42.4971 -38.998 42.4971 -111.993t-34.498 -141.491t-87.9941 -121.993q-53.4971 -53.4961 -117.993 -85.4941t-124.492 -31.998q-67.9961 0 -101.994 28.498t-33.998 70.4961q0 27.998 13.499 58.4961
q13.5 30.498 37.498 54.4971l264.983 1.99902q11 29.999 16.999 63.4961q6 33.498 6 69.4961q0 58.9961 -17.999 84.9951q-17.999 25.998 -49.9971 25.998q-20.998 0 -41.9971 -10.499t-40.998 -27.998q-19.998 -17.499 -38.9971 -39.998t-35.998 -46.4971l-35.998 24.998
q26.999 38.998 53.9971 70.9961t58.4961 54.9971q31.498 22.998 68.9961 35.4971q37.498 12.5 85.4951 12.5zM137.991 27.998q41.998 0 85.4951 36.998t73.4951 98.9941h-32.9971q-39.998 0 -70.9961 -9.5q-30.998 -9.49902 -52.4971 -23.998
q-21.498 -14.499 -32.498 -32.498q-10.999 -17.999 -10.999 -35.998q0 -33.998 40.9971 -33.998z" />
    <glyph glyph-name="uni0410" unicode="&#x410;" horiz-adv-x="761" 
d="M469 758h135l79 -758h-160l-27 261h-290l-186 -261h-93zM488 335l-29 282l-201 -282h230z" />
    <glyph glyph-name="uni0411" unicode="&#x411;" horiz-adv-x="781" 
d="M20 0l234 758h542l-23 -74h-382l-75 -244h95q78 0 133 -13t90 -36.5t51.5 -56t16.5 -71.5q0 -58 -28 -106.5t-81.5 -83t-131 -54t-176.5 -19.5h-265zM301 70q51 0 92.5 13t70.5 37t45 59t16 79q0 52 -33.5 82t-109.5 30h-88l-92 -300h99z" />
    <glyph glyph-name="uni0412" unicode="&#x412;" horiz-adv-x="746" 
d="M20 0l232 758h253q125 0 190 -34.5t65 -103.5q0 -34 -15.5 -68t-50 -63.5t-89.5 -51.5t-133 -31v-2q109 -2 168 -40.5t59 -108.5q0 -53 -27 -99.5t-78 -81t-124.5 -54.5t-166.5 -20h-283zM398 433q54 0 91.5 16t60 40.5t32.5 53t10 52.5q0 45 -28.5 70t-87.5 25h-86
l-78 -257h86zM290 68q60 0 103.5 16.5t72 43.5t42.5 62t14 73q0 54 -38.5 81t-110.5 27h-80l-93 -303h90z" />
    <glyph glyph-name="uni0413" unicode="&#x413;" horiz-adv-x="626" 
d="M180 0h-160l234 758h497l-23 -74h-337z" />
    <glyph glyph-name="uni0414" unicode="&#x414;" horiz-adv-x="762" 
d="M-90 -166h-42l82 240h78q38 50 72.5 106.5t70 132.5t72.5 178t81 243l7 24h490l-210 -684h94l-66 -240h-42l-31 154l-3 9t-9 3h-481q-8 0 -11.5 -3.5l-8.5 -8.5zM638 684h-250q-37 -119 -71.5 -212t-67.5 -166.5t-65 -130t-64 -101.5h331z" />
    <glyph glyph-name="uni0415" unicode="&#x415;" horiz-adv-x="665" 
d="M252 758h520l-23 -74h-360l-78 -254h299l-22 -74h-299l-86 -282h360l-23 -74h-520z" />
    <glyph glyph-name="uni0401" unicode="&#x401;" horiz-adv-x="665" 
d="M252 758h520l-23 -74h-360l-78 -254h299l-22 -74h-299l-86 -282h360l-23 -74h-520zM677 837q-30 0 -50 20.5t-20 50.5q0 31 20 51t50 20q29 0 49.5 -20t20.5 -51q0 -30 -20.5 -50.5t-49.5 -20.5zM451 837q-30 0 -50 20.5t-20 50.5q0 31 20 51t50 20q29 0 49.5 -20
t20.5 -51q0 -30 -20.5 -50.5t-49.5 -20.5z" />
    <glyph glyph-name="uni0416" unicode="&#x416;" horiz-adv-x="1200" 
d="M-73 0l509 438l-216 320h101l250 -370l2 -2l115 372h160l-114 -371l7 4l474 367h130l-454 -351l223 -407h-190l-195 371l-115 -371h-160l115 371l-425 -371h-217z" />
    <glyph glyph-name="uni0417" unicode="&#x417;" horiz-adv-x="729" 
d="M271 -13q-84 0 -136.5 15t-84.5 39l24 229h42l28 -94q12 -40 22 -64t23 -38q14 -13 33.5 -17t50.5 -4q54 0 96.5 17t72 45.5t44.5 64.5t15 74q0 23 -9 43.5t-27.5 36t-48 24.5t-71.5 9h-62l22 71h64q48 0 86.5 17.5t65.5 45t41.5 60.5t14.5 63q0 37 -24 63t-75 26
q-53 0 -96 -24q-21 -12 -41 -31t-41 -45l-78 -96h-42l110 227q23 7 47 13t51 11t59.5 8t71.5 3q58 0 100.5 -12t70 -33t40.5 -48t13 -57q0 -35 -17.5 -70t-50 -65.5t-78.5 -53.5t-103 -34v-2q93 -8 137.5 -51t44.5 -102q0 -45 -25 -91.5t-75.5 -85t-126.5 -63t-178 -24.5z
" />
    <glyph glyph-name="uni0418" unicode="&#x418;" horiz-adv-x="876" 
d="M20 0l234 758h160l-184 -598l545 598h160l-234 -758h-160l184 598l-545 -598h-160z" />
    <glyph glyph-name="uni0419" unicode="&#x419;" horiz-adv-x="876" 
d="M20 0l234 758h160l-184 -598l545 598h160l-234 -758h-160l184 598l-545 -598h-160zM605 830q-50 0 -84 13t-53 34.5t-22.5 50.5t6.5 62h106q-8 -26 -11 -48.5t1.5 -39t18 -26.5t39.5 -10q27 0 46 10t33 26.5t23.5 39t17.5 48.5h106q-23 -74 -82.5 -117t-144.5 -43z" />
    <glyph glyph-name="uni041A" unicode="&#x41a;" horiz-adv-x="785" 
d="M252 758h160l-113 -370l11 6l499 364h121l-475 -347l275 -411h-190l-246 373l-114 -373h-160z" />
    <glyph glyph-name="uni041B" unicode="&#x41b;" horiz-adv-x="798" 
d="M116 37q-33 -33 -63 -41.5t-50 -8.5q-23 0 -39 16.5t-16 39.5q0 24 19 50t67 47q46 20 83 58.5t71.5 106.5t71 172.5t80.5 256.5l7 24h510l-233 -758h-160l210 684h-265q-45 -144 -82.5 -249.5t-72 -181t-68 -127.5t-70.5 -89z" />
    <glyph glyph-name="uni041C" unicode="&#x41c;" horiz-adv-x="1008" 
d="M101 0h-81l232 758h142l127 -440l389 440h160l-232 -758h-160l178 582l-384 -433h-66l-127 433z" />
    <glyph glyph-name="uni041D" unicode="&#x41d;" horiz-adv-x="861" 
d="M252 758h160l-101 -328h351l101 328h160l-232 -758h-160l109 356h-351l-109 -356h-160z" />
    <glyph glyph-name="uni041E" unicode="&#x41e;" horiz-adv-x="922" 
d="M374 -13q-64 0 -119.5 18t-96.5 53.5t-64.5 87.5t-23.5 120q0 56 17 115.5t49.5 116.5t79 108t105.5 89.5t129 61t150 22.5q64 0 119 -18t96 -53.5t64.5 -87.5t23.5 -120q0 -56 -17 -115.5t-49 -116.5t-78.5 -108t-105.5 -89.5t-129 -61t-150 -22.5zM404 49
q62 0 119.5 35t102 95.5t71 141.5t26.5 173q0 44 -7 84.5t-24.5 71t-47 49t-74.5 18.5q-62 0 -120 -35t-102 -95.5t-70.5 -141.5t-26.5 -173q0 -44 7 -84.5t24.5 -71.5t47 -49t74.5 -18z" />
    <glyph glyph-name="uni041F" unicode="&#x41f;" horiz-adv-x="856" 
d="M915 758l-234 -758h-160l211 684h-341l-211 -684h-160l234 758h661z" />
    <glyph glyph-name="uni0420" unicode="&#x420;" horiz-adv-x="743" 
d="M252 758h269q66 0 119.5 -8.5t92 -27.5t59.5 -50t21 -75q0 -58 -26 -107t-78 -84.5t-128.5 -55.5t-178.5 -20h-121l-101 -330h-160zM302 399h115q61 0 102.5 18.5t67.5 46.5t37.5 59.5t11.5 58.5q0 59 -32 83.5t-100 24.5h-113z" />
    <glyph glyph-name="uni0421" unicode="&#x421;" horiz-adv-x="826" 
d="M441 -13q-73 0 -138.5 21.5t-114.5 62.5t-78 101t-29 137q0 99 45.5 184.5t120 149t170 100t194.5 36.5q73 0 140 -15t111 -41l-29 -241h-45l-25 157q-4 22 -15 35.5t-28 21.5t-44.5 12.5t-58.5 4.5q-70 0 -134.5 -30t-114.5 -86.5t-80 -138t-30 -183.5q0 -108 45.5 -165
t149.5 -57q26 0 53.5 2.5t43.5 9.5q11 5 22.5 12.5t22.5 20.5l158 186h45l-136 -264q-20 -7 -46 -13t-55.5 -10.5t-60.5 -7t-59 -2.5z" />
    <glyph glyph-name="uni0422" unicode="&#x422;" horiz-adv-x="722" 
d="M412 684h-271l23 74h702l-23 -74h-271l-209 -684h-160z" />
    <glyph glyph-name="uni0423" unicode="&#x423;" horiz-adv-x="734" 
d="M367 153q-41 -48 -74 -80t-61 -51t-51 -27t-45 -8q-31 0 -46 15t-15 36q0 27 19.5 50t58.5 35q37 12 78.5 30t75.5 45l-180 560h175l130 -412l354 412h100z" />
    <glyph glyph-name="uni0424" unicode="&#x424;" horiz-adv-x="1020" 
d="M378 80q-158 11 -239 72t-81 175q0 70 36 131.5t102.5 109.5t160 79t207.5 39l29 94h160l-29 -94q158 -12 238 -72.5t80 -174.5q0 -70 -36 -131.5t-102 -109t-159 -78.5t-207 -40l-31 -100h-160zM239 327q0 -79 39.5 -122t120.5 -56l144 469q-66 -9 -122 -33.5t-96.5 -62
t-63 -87t-22.5 -108.5zM861 439q0 78 -38.5 121t-119.5 57l-144 -469q66 9 121 33.5t95.5 62t63 87t22.5 108.5z" />
    <glyph glyph-name="uni0425" unicode="&#x425;" horiz-adv-x="774" 
d="M358 385l-160 373h180l112 -261l305 261h122l-394 -337l180 -421h-180l-132 308l-361 -308h-122z" />
    <glyph glyph-name="uni0426" unicode="&#x426;" horiz-adv-x="855" 
d="M20 0l233 758h160l-210 -684h341l210 684h160l-210 -684h94l-66 -240h-42l-31 154q-1 6 -2.5 9t-9.5 3h-627z" />
    <glyph glyph-name="uni0427" unicode="&#x427;" horiz-adv-x="778" 
d="M207 758h160l-60 -193q-17 -54 -18.5 -90t12 -57t42 -29.5t72.5 -8.5q31 0 58 2.5t48 6.5q24 4 45 10l111 359h160l-234 -758h-160l101 327q-25 -8 -54 -14q-25 -5 -56.5 -9.5t-65.5 -4.5q-68 0 -118.5 15.5t-80 49t-35 87t17.5 129.5z" />
    <glyph glyph-name="uni0428" unicode="&#x428;" horiz-adv-x="1125" 
d="M20 0l234 758h160l-211 -684h226l210 684h160l-210 -684h224l211 684h160l-234 -758h-930z" />
    <glyph glyph-name="uni0429" unicode="&#x429;" horiz-adv-x="1124" 
d="M20 0l233 758h160l-210 -684h224l211 684h160l-211 -684h226l210 684h160l-210 -684h94l-66 -240h-42l-31 154q-1 6 -2.5 9t-9.5 3h-896z" />
    <glyph glyph-name="uni042A" unicode="&#x42a;" horiz-adv-x="901" 
d="M552 447q142 0 218 -50t76 -142q0 -53 -32.5 -99.5t-89.5 -81t-133.5 -54.5t-163.5 -20h-286l211 684h-185l23 74h345l-96 -311h113zM413 70q55 0 101 11.5t79.5 34t52 54.5t18.5 74q0 129 -159 129h-89l-93 -303h90z" />
    <glyph glyph-name="uni042B" unicode="&#x42b;" horiz-adv-x="1048" 
d="M431 447q142 0 218 -50t76 -142q0 -53 -32.5 -99.5t-89.5 -81t-133.5 -54.5t-163.5 -20h-286l234 758h160l-96 -311h113zM292 70q55 0 101 11.5t79.5 34t52 54.5t18.5 74q0 129 -159 129h-89l-93 -303h90zM947 758h160l-232 -758h-160z" />
    <glyph glyph-name="uni042C" unicode="&#x42c;" horiz-adv-x="780" 
d="M431 447q142 0 218 -50t76 -142q0 -53 -32.5 -99.5t-89.5 -81t-133.5 -54.5t-163.5 -20h-286l234 758h160l-96 -311h113zM292 70q55 0 101 11.5t79.5 34t52 54.5t18.5 74q0 129 -159 129h-89l-93 -303h90z" />
    <glyph glyph-name="uni042D" unicode="&#x42d;" horiz-adv-x="819" 
d="M471 779q73 0 138.5 -21.5t114.5 -62.5t78 -101t29 -137q0 -99 -45.5 -184.5t-120 -149t-170 -100t-194.5 -36.5q-73 0 -140.5 16.5t-110.5 45.5l29 235h42l42 -157q10 -42 41 -58q16 -9 38 -12.5t53 -3.5q57 0 111.5 20.5t100 59.5t80 95t52.5 128h-340l22 74h330
q3 30 3 61q0 108 -45.5 165t-149.5 57q-26 0 -44.5 -2.5t-34.5 -9.5q-20 -8 -45 -33l-179 -183h-42l136 261q19 7 45.5 13t56 10.5t60 7t59.5 2.5z" />
    <glyph glyph-name="uni042E" unicode="&#x42e;" horiz-adv-x="1201" 
d="M253 758h160l-101 -328h121q26 67 72 130t108 111.5t139.5 78t167.5 29.5q61 0 114.5 -18t93.5 -53.5t62.5 -87.5t22.5 -120q0 -56 -16.5 -115.5t-48.5 -116.5t-77.5 -108t-103 -89.5t-126.5 -61t-147 -22.5q-62 0 -115.5 18t-93 53.5t-62.5 87.5t-23 120q0 22 2.5 44.5
t7.5 45.5h-120l-110 -356h-160zM724 49q60 0 116 35t99 95.5t68.5 141.5t25.5 173q0 44 -6.5 84.5t-23 71t-44 49t-69.5 18.5q-60 0 -116 -35t-99 -95.5t-68.5 -141.5t-25.5 -173q0 -44 6.5 -84.5t23 -71.5t44 -49t69.5 -18z" />
    <glyph glyph-name="uni042F" unicode="&#x42f;" horiz-adv-x="812" 
d="M-60 0l409 351q-74 16 -114 60t-40 110q0 59 35 103.5t92 74t128 44.5t143 15h278l-234 -758h-160l103 333h-59l-389 -333h-192zM690 690h-75q-49 0 -93 -11t-77 -32t-52.5 -52.5t-19.5 -71.5q0 -63 37.5 -92t115.5 -29h75z" />
    <glyph glyph-name="uni0402" unicode="&#x402;" horiz-adv-x="903" 
d="M184 0l211 684h-254l22 74h708l-22 -74h-294l-86 -277q40 31 94.5 48t109.5 17q60 0 98 -18t56.5 -49.5t19.5 -73t-13 -87.5l-25 -81q-12 -41 -30.5 -71.5t-41.5 -54.5t-52 -44.5t-62 -39.5q-16 -9 -38 -21.5t-47 -26t-52 -27.5t-53 -27l-14 40q44 30 78.5 54t62 51.5
t48.5 65t39 94.5l29 95q23 78 5 112.5t-79 34.5q-48 0 -86.5 -17t-66.5 -41l-105 -340h-160z" />
    <glyph glyph-name="uni0403" unicode="&#x403;" horiz-adv-x="626" 
d="M180 0h-160l234 758h497l-23 -74h-337zM595 972h181l-1 -3l-267 -126h-35z" />
    <glyph glyph-name="uni0404" unicode="&#x404;" horiz-adv-x="826" 
d="M441 -13q-73 0 -138.5 21.5t-114.5 62.5t-78 101t-29 137q0 99 45.5 184.5t120 149t170 100t194.5 36.5q73 0 140 -15t111 -41l-29 -241h-45l-25 157q-4 22 -15 35.5t-28 21.5t-44.5 12.5t-58.5 4.5q-56 0 -108.5 -19t-97 -55.5t-79 -89t-53.5 -119.5h324l-22 -74h-318
q-2 -20 -3.5 -40t-1.5 -41q0 -108 45.5 -165t149.5 -57q26 0 53.5 2.5t43.5 9.5q11 5 22.5 12.5t22.5 20.5l158 186h45l-136 -264q-20 -7 -46 -13t-55.5 -10.5t-60.5 -7t-59 -2.5z" />
    <glyph glyph-name="uni0405" unicode="&#x405;" horiz-adv-x="629" 
d="M218 -13q-25 0 -53.5 3t-57 9t-56.5 15.5t-52 23.5l60 232h45l3 -146q1 -21 7.5 -35.5t21.5 -23.5q14 -8 41.5 -11t56.5 -3q35 0 67 8t56.5 23.5t39 37.5t14.5 51q0 36 -20.5 71.5t-69.5 86.5l-52 54q-31 32 -53 73.5t-22 90.5q0 48 24.5 90.5t66.5 74t99.5 49.5
t123.5 18q46 0 93.5 -12t81.5 -31l-42 -219h-45l-12 133q-3 32 -22 48q-11 9 -35.5 13t-46.5 4q-31 0 -56.5 -8t-44 -23t-28.5 -35t-10 -44q0 -28 12.5 -53t42.5 -57l55 -57q31 -33 52 -59t33 -49t17 -44.5t5 -45.5q0 -57 -26.5 -103.5t-72.5 -79.5t-108 -51.5t-133 -18.5z
" />
    <glyph glyph-name="uni0406" unicode="&#x406;" horiz-adv-x="353" 
d="M252 758h160l-232 -758h-160z" />
    <glyph glyph-name="uni0407" unicode="&#x407;" horiz-adv-x="353" 
d="M252 758h160l-232 -758h-160zM485 837q-30 0 -50 20.5t-20 50.5q0 31 20 51t50 20q29 0 49.5 -20t20.5 -51q0 -30 -20.5 -50.5t-49.5 -20.5zM259 837q-30 0 -50 20.5t-20 50.5q0 31 20 51t50 20q29 0 49.5 -20t20.5 -51q0 -30 -20.5 -50.5t-49.5 -20.5z" />
    <glyph glyph-name="uni0408" unicode="&#x408;" horiz-adv-x="357" 
d="M-150 -109q43 30 77.5 54t62 51.5t49 65t39.5 94.5l184 602h160l-182 -595q-12 -41 -30.5 -71.5t-41.5 -54.5t-52 -44.5t-62 -39.5q-32 -19 -81.5 -46t-102.5 -53z" />
    <glyph glyph-name="uni0409" unicode="&#x409;" horiz-adv-x="1184" 
d="M116 37q-33 -33 -63 -41.5t-50 -8.5q-23 0 -39 16.5t-16 39.5q0 24 19 50t67 47q46 20 83 58.5t71.5 106.5t71 172.5t80.5 256.5l7 24h481l-96 -311h103q142 0 218 -50t76 -142q0 -53 -32.5 -99.5t-89.5 -81t-133.5 -54.5t-163.5 -20h-276l211 684h-236
q-45 -144 -82.5 -249.5t-72 -181t-68 -127.5t-70.5 -89zM696 70q55 0 101 11.5t79.5 34t52 54.5t18.5 74q0 129 -159 129h-79l-93 -303h80z" />
    <glyph glyph-name="uni040A" unicode="&#x40a;" horiz-adv-x="1199" 
d="M20 0l234 758h160l-100 -323h291l100 323h160l-99 -322h96q133 0 207.5 -42t74.5 -128q0 -56 -30.5 -104.5t-85.5 -84.5t-132 -56.5t-169 -20.5h-256l111 361h-291l-111 -361h-160zM713 70q120 0 184.5 46.5t64.5 143.5q0 57 -42.5 79.5t-117.5 22.5h-59l-90 -292h60z
" />
    <glyph glyph-name="uni040B" unicode="&#x40b;" horiz-adv-x="926" 
d="M184 0l211 684h-254l23 74h708l-23 -74h-294l-86 -278q39 29 93 47.5t109 18.5q63 0 101.5 -18t57 -49t19 -72.5t-14.5 -88.5l-75 -244h-160l78 251q24 79 4 113t-79 34q-48 0 -86 -17t-67 -42l-105 -339h-160z" />
    <glyph glyph-name="uni040C" unicode="&#x40c;" horiz-adv-x="785" 
d="M252 758h160l-113 -370l11 6l499 364h121l-475 -347l275 -411h-190l-246 373l-114 -373h-160zM672 972h181l-1 -3l-267 -126h-35z" />
    <glyph glyph-name="uni040E" unicode="&#x40e;" horiz-adv-x="734" 
d="M367 153q-41 -48 -74 -80t-61 -51t-51 -27t-45 -8q-31 0 -46 15t-15 36q0 27 19.5 50t58.5 35q37 12 78.5 30t75.5 45l-180 560h175l130 -412l354 412h100zM551 830q-50 0 -84 13t-53 34.5t-22.5 50.5t6.5 62h106q-8 -26 -11 -48.5t1.5 -39t18 -26.5t39.5 -10q27 0 46 10
t33 26.5t23.5 39t17.5 48.5h106q-23 -74 -82.5 -117t-144.5 -43z" />
    <glyph glyph-name="uni040F" unicode="&#x40f;" horiz-adv-x="856" 
d="M283 -12q-1 7 -3 9.5t-10 2.5h-250l234 758h160l-211 -684h341l211 684h160l-234 -758h-251q-8 0 -11.5 -2.5t-7.5 -9.5l-88 -144h-42z" />
    <glyph glyph-name="uni0490" unicode="&#x490;" horiz-adv-x="637" 
d="M390 684l-210 -684h-160l233 758h362q8 0 11.5 3t8.5 9l125 154h42l-82 -240h-330z" />
    <glyph glyph-name="uni0462" unicode="&#x462;" horiz-adv-x="853" 
d="M515 427q137 0 210 -43.5t73 -131.5q0 -44 -26 -89t-78 -81t-130 -59t-181 -23h-286l168 544h-185l23 74h185l43 140h160l-43 -140h257l-23 -74h-257l-36 -117h126zM369 70q55 0 100.5 11.5t78 33t50.5 53t18 70.5q0 115 -161 115h-89l-87 -283h90z" />
    <glyph glyph-name="uni0472" unicode="&#x472;" horiz-adv-x="891" 
d="M374 -13q-64 0 -119.5 18t-96.5 53.5t-64.5 87.5t-23.5 120q0 56 17 115.5t49.5 116.5t79 108t105.5 89.5t129 61t150 22.5q64 0 119 -18t96 -53.5t64.5 -87.5t23.5 -120q0 -56 -17 -115.5t-49 -116.5t-78.5 -108t-105.5 -89.5t-129 -61t-150 -22.5zM404 49q51 0 99 24
t88.5 66t71 100.5t45.5 127.5q-68 -37 -115.5 -48.5t-83 -8t-62.5 16t-54.5 23t-59.5 13.5t-77 -13q-2 -20 -3.5 -39t-1.5 -39q0 -44 7 -84.5t24.5 -71.5t47 -49t74.5 -18zM265 401q70 35 119.5 45t87 6.5t66 -15.5t55.5 -21.5t56 -12t68 12.5q6 37 6 78q0 44 -7 84.5
t-24.5 71t-47 49t-74.5 18.5q-51 0 -99 -24t-88.5 -66t-71 -100t-46.5 -126z" />
    <glyph glyph-name="uni0474" unicode="&#x474;" horiz-adv-x="791" 
d="M337 0h-79l-104 758h165l75 -555l278 372q39 53 70 91t58.5 62t55 35.5t60.5 11.5t49 -17.5t16 -40.5q0 -35 -27 -61t-81 -26q-42 0 -70.5 -21.5t-59.5 -63.5z" />
    <glyph glyph-name="uni0492" unicode="&#x492;" horiz-adv-x="625" 
d="M180 0h-160l234 758h497l-23 -74h-337zM52 430h402l-23 -74h-402z" />
    <glyph glyph-name="uni0496" unicode="&#x496;" horiz-adv-x="1220" 
d="M-73 0l509 438l-216 320h101l250 -370l2 -2l115 372h160l-114 -371l7 4l474 367h130l-454 -351l182 -333h101l-66 -240h-42l-31 154q-1 5 -2.5 8.5t-7.5 3.5h-101l-195 371l-115 -371h-160l115 371l-425 -371h-217z" />
    <glyph glyph-name="uni049A" unicode="&#x49a;" horiz-adv-x="825" 
d="M252 758h160l-113 -370l11 6l499 364h121l-475 -347l225 -337h110l-66 -240h-42l-31 154q-1 6 -2.5 9t-9.5 3h-99l-246 373l-114 -373h-160z" />
    <glyph glyph-name="uni04A2" unicode="&#x4a2;" horiz-adv-x="864" 
d="M252 758h160l-101 -328h351l101 328h160l-210 -684h95l-66 -240h-42l-31 154q-1 5 -2.5 8.5t-7.5 3.5h-128l109 356h-351l-109 -356h-160z" />
    <glyph glyph-name="uni04AE" unicode="&#x4ae;" horiz-adv-x="782" 
d="M395 0h-160l105 342l-180 416h178l142 -332l349 332h105l-435 -417z" />
    <glyph glyph-name="uni04B0" unicode="&#x4b0;" horiz-adv-x="782" 
d="M395 0h-160l105 342l-180 416h178l142 -332l349 332h105l-435 -417zM192 343h455l-23 -74h-455z" />
    <glyph glyph-name="uni04B2" unicode="&#x4b2;" horiz-adv-x="812" 
d="M358 385l-160 373h180l112 -261l305 261h122l-394 -337l148 -347h107l-66 -240h-42l-31 154q-1 6 -2.5 9t-9.5 3h-104l-132 308l-361 -308h-122z" />
    <glyph glyph-name="uni04B6" unicode="&#x4b6;" horiz-adv-x="778" 
d="M207 758h160l-60 -193q-17 -54 -18.5 -90t12 -57t42 -29.5t72.5 -8.5q31 0 58 2.5t48 6.5q24 4 45 10l111 359h160l-211 -684h94l-66 -240h-42l-31 154q-1 6 -2.5 9t-9.5 3h-126l101 327q-25 -8 -54 -14q-25 -5 -56.5 -9.5t-65.5 -4.5q-68 0 -118.5 15.5t-80 49t-35 87
t17.5 129.5z" />
    <glyph glyph-name="uni04BA" unicode="&#x4ba;" horiz-adv-x="807" 
d="M649.96 0h-159.99l59.9971 192.988q16.999 53.9971 18.498 89.9941q1.5 35.998 -11.999 56.9971q-13.499 20.998 -41.9971 29.498q-28.498 8.49902 -72.4961 8.49902q-30.998 0 -57.9961 -2.49902q-26.998 -2.5 -47.9971 -6.5q-23.999 -4 -44.9971 -9.99902
l-110.993 -358.979h-159.99l233.985 757.954h159.99l-100.994 -326.98q24.999 8 53.9971 13.999q24.999 5 56.4971 9.5q31.498 4.49902 65.4951 4.49902q67.9961 0 118.493 -15.499t79.9951 -48.9971t34.998 -86.9941q5.49902 -53.4971 -17.499 -129.492z" />
    <glyph glyph-name="uni04C0" unicode="&#x4c0;" horiz-adv-x="353" 
d="M252 758h160l-232 -758h-160z" />
    <glyph glyph-name="uni04D8" unicode="&#x4d8;" horiz-adv-x="820" 
d="M374 -12q-81 0 -139.5 24.5t-93.5 67t-47.5 100.5t-1.5 126h570q5 26 8 52t3 55q0 68 -18.5 117.5t-52 82t-79.5 48.5t-100 16q-103 0 -174.5 -61t-112.5 -167h-34q22 88 64 150.5t96 102.5t115.5 59t123.5 19q73 0 133.5 -21.5t104.5 -61t68.5 -96.5t24.5 -129
q0 -59 -15.5 -118t-44.5 -112.5t-70 -100t-91.5 -80.5t-110.5 -53.5t-126 -19.5zM392 30q39 0 76.5 15t70.5 43t60 67.5t45 87.5h-394q-16 -106 17.5 -159.5t124.5 -53.5z" />
    <glyph glyph-name="uni04E2" unicode="&#x4e2;" horiz-adv-x="876" 
d="M20 0l234 758h160l-184 -598l545 598h160l-234 -758h-160l184 598l-545 -598h-160zM484 940h285l-23 -68h-285z" />
    <glyph glyph-name="uni04E8" unicode="&#x4e8;" horiz-adv-x="891" 
d="M374 -13q-64 0 -119.5 18t-96.5 53.5t-64.5 87.5t-23.5 120q0 56 17 115.5t49.5 116.5t79 108t105.5 89.5t129 61t150 22.5q64 0 119 -18t96 -53.5t64.5 -87.5t23.5 -120q0 -56 -17 -115.5t-49 -116.5t-78.5 -108t-105.5 -89.5t-129 -61t-150 -22.5zM404 49q50 0 97 23
t87 64t70.5 97t47.5 123h-449q-6 -41 -6 -84q0 -44 7 -84.5t24.5 -71.5t47 -49t74.5 -18zM570 717q-48 0 -94 -21.5t-85 -59.5t-69.5 -90.5t-48.5 -115.5h446q2 16 3 31.5t1 32.5q0 44 -7 84.5t-24.5 71t-47 49t-74.5 18.5z" />
    <glyph glyph-name="uni04EE" unicode="&#x4ee;" horiz-adv-x="734" 
d="M367 153q-41 -48 -74 -80t-61 -51t-51 -27t-45 -8q-31 0 -46 15t-15 36q0 27 19.5 50t58.5 35q37 12 78.5 30t75.5 45l-180 560h175l130 -412l354 412h100zM418 940h285l-23 -68h-285z" />
    <glyph glyph-name="uni0430" unicode="&#x430;" horiz-adv-x="582" 
d="M268 0l64 159h-2q-19 -30 -42.5 -60.5t-51.5 -55t-61 -40.5t-70 -16q-48 0 -73 32t-25 84q0 44 17 92.5t45.5 94.5t66 87.5t78.5 73t83.5 50t80.5 18.5q29 0 44.5 -12.5t22.5 -30.5h1l17 44h148l-200 -520h-143zM193 65q18 0 45 25.5t54.5 64.5t53 84.5t41.5 84.5
q18 45 24.5 75t4.5 47.5t-12.5 24.5t-26.5 7q-25 0 -50.5 -17.5t-49 -47t-43.5 -67t-35.5 -77.5t-24 -79.5t-8.5 -71.5q0 -26 6 -39.5t21 -13.5z" />
    <glyph glyph-name="uni0431" unicode="&#x431;" horiz-adv-x="581" 
d="M567 377q0 -59 -26 -127t-73.5 -126.5t-114.5 -97.5t-149 -39q-81 0 -124 41.5t-43 119.5q0 53 16 114.5t47 124t76 121.5t103 107.5t128 82t152 45.5q49 7 72.5 15.5t32.5 33.5h43q-15 -41 -30.5 -74t-37.5 -56t-51.5 -35.5t-72.5 -12.5q-30 0 -51.5 3t-38 7t-29.5 7
t-26 3q-14 0 -29.5 -15.5t-31.5 -42t-31 -62.5t-28 -77q29 29 77.5 53t118.5 24q63 0 92 -39t29 -98zM253 36q32 0 59.5 30t47.5 75.5t31 99t11 99.5q0 55 -22 76.5t-58 21.5q-19 0 -39 -5.5t-38 -14.5q-20 -66 -32.5 -137.5t-12.5 -131.5q0 -51 13 -82t40 -31z" />
    <glyph glyph-name="uni0432" unicode="&#x432;" horiz-adv-x="539" 
d="M468 172q0 -32 -18 -65t-51.5 -59.5t-81 -43.5t-105.5 -17q-52 0 -88.5 12.5t-60 34t-34 51t-10.5 63.5q0 39 13.5 81.5t38.5 84t59.5 78.5t76 65.5t88.5 45t98 16.5q75 0 115.5 -25t40.5 -67q0 -60 -56 -96t-175 -56q75 0 112.5 -30.5t37.5 -72.5zM365 478
q-29 0 -54 -15.5t-46.5 -42t-38.5 -61t-29 -71.5l32 3q35 3 65.5 16t53 32t35.5 42.5t13 49.5q0 27 -8 37t-23 10zM236 29q18 0 32.5 9.5t25 26t16.5 37.5t6 45q0 51 -24.5 75t-81.5 19l-26 -2q-9 -45 -9 -87q0 -56 14.5 -89.5t46.5 -33.5z" />
    <glyph glyph-name="uni0433" unicode="&#x433;" horiz-adv-x="480" 
d="M148 -13q-34 0 -63 8.5t-50 24.5t-33 39.5t-12 54.5q0 36 13.5 63.5t37 47.5t54 35t65.5 26l76 25q24 8 47 17t41 21t29 28t11 38q0 28 -17.5 43.5t-44.5 15.5q-8 0 -16.5 -0.5t-16.5 -2.5t-17.5 -5.5t-19.5 -14.5l-109 -121h-31l69 165q41 14 80.5 19t77.5 5
q74 0 115 -30.5t41 -86.5q0 -40 -13.5 -69.5t-37 -51t-54 -36.5t-64.5 -26l-70 -22q-24 -8 -46.5 -17t-40 -21t-27.5 -28.5t-10 -40.5q0 -23 16.5 -40t54.5 -17q9 0 20.5 1t22.5 3t22.5 6.5t29.5 27.5l98 127h32l-64 -182q-53 -17 -103 -23t-93 -6z" />
    <glyph glyph-name="uni0434" unicode="&#x434;" horiz-adv-x="542" 
d="M169 -13q-30 0 -57 8.5t-47.5 27.5t-32.5 48.5t-12 70.5q0 70 26.5 138.5t68.5 121.5t94 86t103 33q41 0 66 -20q1 14 1 29.5v30.5q0 28 -3.5 59.5t-12 58.5t-21.5 44.5t-31 17.5q-20 0 -35.5 -9.5t-28.5 -23.5l-21 21q26 32 58 45t69 13q42 0 77 -19t60.5 -53.5
t40 -81.5t14.5 -104q0 -107 -24.5 -205t-72 -173t-118 -119.5t-161.5 -44.5zM180 137q0 -56 9.5 -80t35.5 -24q27 0 51 32.5t44 88.5t34.5 130.5t20.5 159.5q-6 19 -22.5 30.5t-36.5 11.5q-28 0 -52.5 -30t-43 -78.5t-29.5 -111.5t-11 -129z" />
    <glyph glyph-name="uni0435" unicode="&#x435;" horiz-adv-x="515" 
d="M178 -13q-72 0 -114.5 39t-42.5 112t34.5 141.5t88 122t118 85.5t124.5 32q68 0 102 -28.5t34 -70.5q0 -28 -13.5 -58.5t-37.5 -54.5l-265 -2q-11 -30 -17 -63.5t-6 -69.5q0 -59 18 -85t50 -26q21 0 42 10.5t41 28t39 40t36 46.5l36 -25q-27 -39 -54 -71t-58.5 -55
t-69 -35.5t-85.5 -12.5zM380 478q-42 0 -85.5 -37t-73.5 -99h33q40 0 71 9.5t52.5 24t32.5 32.5t11 36q0 34 -41 34z" />
    <glyph glyph-name="uni0451" unicode="&#x451;" horiz-adv-x="515" 
d="M178 -13q-72 0 -114.5 39t-42.5 112t34.5 141.5t88 122t118 85.5t124.5 32q68 0 102 -28.5t34 -70.5q0 -28 -13.5 -58.5t-37.5 -54.5l-265 -2q-11 -30 -17 -63.5t-6 -69.5q0 -59 18 -85t50 -26q21 0 42 10.5t41 28t39 40t36 46.5l36 -25q-27 -39 -54 -71t-58.5 -55
t-69 -35.5t-85.5 -12.5zM380 478q-42 0 -85.5 -37t-73.5 -99h33q40 0 71 9.5t52.5 24t32.5 32.5t11 36q0 34 -41 34zM568 636q-29 0 -48.5 20t-19.5 49q0 30 19.5 49.5t48.5 19.5t48.5 -19.5t19.5 -49.5q0 -29 -19.5 -49t-48.5 -20zM342 636q-29 0 -48.5 20t-19.5 49
q0 30 19.5 49.5t48.5 19.5t48.5 -19.5t19.5 -49.5q0 -29 -19.5 -49t-48.5 -20z" />
    <glyph glyph-name="uni0436" unicode="&#x436;" horiz-adv-x="894" 
d="M-70 0l343 317l-103 185h88l134 -240l90 240h148l-90 -239l314 239h102l-270 -206l98 -296h-161l-85 256l-96 -256h-148l96 256l-277 -256h-183z" />
    <glyph glyph-name="uni0437" unicode="&#x437;" horiz-adv-x="490" 
d="M163 -13q-92 0 -132.5 21.5t-40.5 66.5q0 40 37.5 64.5t103.5 16.5q-17 -63 -7 -95.5t44 -32.5q25 0 46 11t36.5 29t24 40.5t8.5 44.5q0 38 -21.5 60t-71.5 22h-32l18 47h21q66 0 106.5 35.5t40.5 94.5q0 23 -12.5 39t-43.5 16q-23 0 -44 -9t-40.5 -23t-37.5 -33t-33 -38
l-37 27q44 62 99.5 95t134.5 33q86 0 123 -27.5t37 -75.5q0 -33 -18.5 -59.5t-48.5 -46.5t-68.5 -32.5t-78.5 -16.5v-1q83 -3 121 -29t38 -68q0 -30 -19.5 -61.5t-55.5 -57t-86 -41.5t-111 -16z" />
    <glyph glyph-name="uni0438" unicode="&#x438;" horiz-adv-x="607" 
d="M319 502l-134 -331q-14 -34 -19.5 -56t-5 -34.5t5 -17.5t11.5 -5q23 0 54.5 35.5t69.5 95.5q22 35 48 76t50.5 83t46 81.5t35.5 72.5h149l-193 -502h-146l115 285h-1q-29 -47 -49.5 -81.5t-42.5 -67.5q-28 -43 -52.5 -71.5t-48 -46t-47.5 -24.5t-51 -7q-72 0 -93.5 47
t13.5 135l135 333h150z" />
    <glyph glyph-name="uni0439" unicode="&#x439;" horiz-adv-x="612" 
d="M319 502l-134 -331q-14 -34 -19.5 -56t-5 -34.5t5 -17.5t11.5 -5q23 0 54.5 35.5t69.5 95.5q22 35 48 76t50.5 83t46 81.5t35.5 72.5h149l-193 -502h-146l115 285h-1q-29 -47 -49.5 -81.5t-42.5 -67.5q-28 -43 -52.5 -71.5t-48 -46t-47.5 -24.5t-51 -7q-72 0 -93.5 47
t13.5 135l135 333h150zM428 628q-51 0 -85 13t-52 34.5t-20 50.5t10 62h106q-10 -26 -14.5 -48.5t-0.5 -39t17 -26.5t39 -10q27 0 46.5 10t34 26.5t25.5 39t21 48.5h106q-28 -74 -85.5 -117t-147.5 -43z" />
    <glyph glyph-name="uni043A" unicode="&#x43a;" horiz-adv-x="596" 
d="M161 502h148l-79 -231l321 231h107l-293 -211l161 -291h-164l-139 251l-86 -251h-148z" />
    <glyph glyph-name="uni043B" unicode="&#x43b;" horiz-adv-x="562" 
d="M249 0l165 439h-125q-58 -154 -107 -249t-94 -143q-26 -28 -54 -44t-60 -16q-22 0 -33.5 12.5t-11.5 31.5q0 24 17 46t54 36q39 15 67 39.5t53.5 65.5t51.5 104t61 156l9 24h343l-188 -502h-148z" />
    <glyph glyph-name="uni043C" unicode="&#x43c;" horiz-adv-x="693" 
d="M-21 0l188 502h158l34 -227l193 227h164l-188 -502h-148l149 398l-239 -281h-52l-42 282l-149 -399h-68z" />
    <glyph glyph-name="uni043D" unicode="&#x43d;" horiz-adv-x="602" 
d="M167 502h148l-79 -210h162l79 210h148l-188 -502h-148l86 229h-162l-86 -229h-148z" />
    <glyph glyph-name="uni043E" unicode="&#x43e;" horiz-adv-x="564" 
d="M175 -13q-38 0 -67.5 11.5t-49 31.5t-29.5 46t-10 56q0 68 31 137t82.5 124.5t119 90.5t140.5 35q38 0 67.5 -11.5t49 -31.5t29.5 -46t10 -56q0 -68 -31 -137t-82.5 -124.5t-119 -90.5t-140.5 -35zM236 40q22 0 48 20t48 60t36.5 100.5t14.5 140.5q0 57 -14.5 81
t-37.5 24q-22 0 -48 -20t-48 -60t-36.5 -100.5t-14.5 -140.5q0 -57 14.5 -81t37.5 -24z" />
    <glyph glyph-name="uni043F" unicode="&#x43f;" horiz-adv-x="611" 
d="M298 0l126 331q13 34 19 57t6.5 36t-4.5 18.5t-13 5.5q-23 0 -54.5 -35t-69.5 -95q-23 -35 -49 -77t-50.5 -84.5t-46 -83t-33.5 -73.5h-150l193 502h146l-115 -285h1q28 47 49 81.5t43 67.5q28 43 52.5 72t48 47t47.5 26t51 8q30 0 52.5 -12.5t34.5 -36.5t11 -58.5
t-18 -78.5l-127 -333h-150z" />
    <glyph glyph-name="uni0440" unicode="&#x440;" horiz-adv-x="584" 
d="M162 502h148l-25 -74q28 36 70 63.5t90 27.5q66 0 98.5 -34.5t32.5 -90.5q0 -72 -36 -144t-97 -130.5t-141.5 -95t-168.5 -36.5l-81 -236h-148zM335 435q-14 0 -28.5 -4.5t-25.5 -13.5l-138 -399q52 4 100.5 40t85.5 86t59 105.5t22 99.5q0 48 -20.5 67t-54.5 19z" />
    <glyph glyph-name="uni0441" unicode="&#x441;" horiz-adv-x="497" 
d="M179 -13q-74 0 -115.5 39t-41.5 112q0 68 30.5 136t79.5 122.5t110.5 88.5t124.5 34q24 0 48 -5.5t43 -16.5t30.5 -27.5t11.5 -38.5q0 -40 -37.5 -64.5t-103.5 -16.5q10 38 12 63t-1 39.5t-11 20t-19 5.5q-23 0 -50.5 -25.5t-51 -68.5t-39 -98t-15.5 -114t16.5 -85
t51.5 -26q20 0 41 10t41.5 27.5t40 40t36.5 48.5l36 -26q-26 -41 -53.5 -73t-59 -54.5t-69.5 -34.5t-86 -12z" />
    <glyph glyph-name="uni0442" unicode="&#x442;" horiz-adv-x="930" 
d="M172 502h146l-115 -285h1q28 47 49 81.5t43 67.5q28 43 52.5 72t48 47t47.5 26t51 8q30 0 52 -12.5t32.5 -36.5t9 -58.5t-18.5 -78.5l-48 -116h1q28 47 49 81.5t43 67.5q28 43 52.5 72t48 47t47.5 26t51 8q30 0 52.5 -12.5t34.5 -36.5t11 -58.5t-18 -78.5l-127 -333h-150
l126 331q13 34 19 57t6.5 36t-4.5 18.5t-13 5.5q-23 0 -54.5 -35t-69.5 -95q-23 -35 -49 -77t-50.5 -84.5t-46 -83t-33.5 -73.5h-150l126 331q13 34 19 57t6.5 36t-4.5 18.5t-13 5.5q-23 0 -54.5 -35t-69.5 -95q-23 -35 -49 -77t-50.5 -84.5t-46 -83t-33.5 -73.5h-150z" />
    <glyph glyph-name="uni0443" unicode="&#x443;" horiz-adv-x="557" 
d="M134 31l-28 471h149l19 -319l297 319h93l-698 -750h-92z" />
    <glyph glyph-name="uni0444" unicode="&#x444;" horiz-adv-x="845" 
d="M163 -248l88 236q-60 3 -104 19t-72.5 40.5t-42 56.5t-13.5 68q0 55 30 113.5t85.5 108t135.5 84t179 40.5l98 262h148l-98 -262q60 -3 104 -19t72.5 -41t42 -56.5t13.5 -67.5q0 -55 -30 -113.5t-85.5 -108t-135.5 -83.5t-179 -41l-88 -236h-148zM185 164q0 -48 20 -83
t64 -45l163 437q-56 -3 -101.5 -34t-78 -76t-50 -98t-17.5 -101zM663 342q0 48 -20 83t-64 45l-163 -437q56 3 101.5 34t78 76t50 98t17.5 101z" />
    <glyph glyph-name="uni0445" unicode="&#x445;" horiz-adv-x="583" 
d="M-101 0l327 243l-63 259h157l39 -160l215 160h104l-303 -225l67 -277h-157l-43 178l-239 -178h-104z" />
    <glyph glyph-name="uni0446" unicode="&#x446;" horiz-adv-x="607" 
d="M291 0l115 285h-1q-29 -47 -49.5 -81.5t-42.5 -67.5q-28 -43 -52.5 -71.5t-48 -46t-47.5 -24.5t-51 -7q-72 0 -93.5 47t13.5 135l135 333h150l-134 -331q-14 -34 -19.5 -56t-5 -34.5t5 -17.5t11.5 -5q23 0 54.5 35.5t69.5 95.5q22 35 48 76t50.5 83t46 81.5t35.5 72.5
h149l-169 -439h90l-66 -200h-31l-37 124q-2 8 -4.5 10.5t-11.5 2.5h-110z" />
    <glyph glyph-name="uni0447" unicode="&#x447;" horiz-adv-x="597" 
d="M319 502l-60 -149q-14 -35 -19.5 -57t-5.5 -34.5t5 -17t12 -4.5q20 0 51 27t63 67t61 85.5t45 82.5h149l-193 -502h-146l145 358h-1q-54 -88 -114.5 -138.5t-122.5 -50.5q-72 0 -94 46t14 136l61 151h150z" />
    <glyph glyph-name="uni0448" unicode="&#x448;" horiz-adv-x="923" 
d="M406 285h-1q-29 -47 -49.5 -81.5t-42.5 -67.5q-28 -43 -52.5 -71.5t-48 -46t-47.5 -24.5t-51 -7q-72 0 -93.5 47t13.5 135l135 333h150l-134 -331q-14 -34 -19.5 -56t-5 -34.5t5 -17.5t11.5 -5q23 0 54.5 35.5t69.5 95.5q22 35 48 76t50.5 83t46 81.5t35.5 72.5h149
l-129 -331q-14 -35 -19 -56.5t-5 -34.5t4.5 -17.5t11.5 -4.5q23 0 54.5 35.5t69.5 95.5q22 35 48 76t50.5 83t46 81.5t35.5 72.5h149l-193 -502h-146l115 285h-1q-29 -47 -49.5 -81.5t-42.5 -67.5q-28 -43 -52.5 -71.5t-48 -46t-47.5 -24.5t-51 -7q-31 0 -52.5 12.5
t-31 35.5t-6.5 57t20 77z" />
    <glyph glyph-name="uni0449" unicode="&#x449;" horiz-adv-x="923" 
d="M406 285h-1q-29 -47 -49.5 -81.5t-42.5 -67.5q-28 -43 -52.5 -71.5t-48 -46t-47.5 -24.5t-51 -7q-72 0 -93.5 47t13.5 135l135 333h150l-134 -331q-14 -34 -19.5 -56t-5 -34.5t5 -17.5t11.5 -5q23 0 54.5 35.5t69.5 95.5q22 35 48 76t50.5 83t46 81.5t35.5 72.5h149
l-129 -331q-14 -35 -19 -56.5t-5 -34.5t4.5 -17.5t11.5 -4.5q23 0 54.5 35.5t69.5 95.5q22 35 48 76t50.5 83t46 81.5t35.5 72.5h149l-169 -439h90l-67 -200h-31l-36 124q-2 8 -4.5 10.5t-11.5 2.5h-110l115 285h-1q-29 -47 -49.5 -81.5t-42.5 -67.5q-28 -43 -52.5 -71.5
t-48 -46t-47.5 -24.5t-51 -7q-31 0 -52.5 12.5t-31 35.5t-6.5 57t20 77z" />
    <glyph glyph-name="uni044A" unicode="&#x44a;" horiz-adv-x="593" 
d="M94 502h268l-70 -187h47q103 0 153.5 -28.5t50.5 -95.5q0 -35 -20 -71t-56.5 -65.5t-87.5 -48.5t-112 -19q-54 0 -94 13t-61.5 41.5t-23 73.5t22.5 110l80 214h-121zM271 47q28 0 50 11t37.5 29t24 40t8.5 44q0 38 -22 61t-69 23h-30l-35 -94q-22 -58 -11.5 -86t47.5 -28
z" />
    <glyph glyph-name="uni044B" unicode="&#x44b;" horiz-adv-x="790" 
d="M665 502h148l-188 -502h-148zM485 191q0 -35 -20 -71t-56.5 -65.5t-87.5 -48.5t-112 -19q-54 0 -94 13t-61.5 41.5t-23 73.5t22.5 110l103 277h148l-70 -187h47q103 0 153.5 -28.5t50.5 -95.5zM213 47q28 0 50 11t37.5 29t24 40t8.5 44q0 38 -22 61t-69 23h-30l-35 -94
q-22 -58 -11.5 -86t47.5 -28z" />
    <glyph glyph-name="uni044C" unicode="&#x44c;" horiz-adv-x="535" 
d="M485 191q0 -35 -20 -71t-56.5 -65.5t-87.5 -48.5t-112 -19q-54 0 -94 13t-61.5 41.5t-23 73.5t22.5 110l103 277h148l-70 -187h47q103 0 153.5 -28.5t50.5 -95.5zM213 47q28 0 50 11t37.5 29t24 40t8.5 44q0 38 -22 61t-69 23h-30l-35 -94q-22 -58 -11.5 -86t47.5 -28z
" />
    <glyph glyph-name="uni044D" unicode="&#x44d;" horiz-adv-x="494" 
d="M172 282h141q3 25 3 52q0 59 -16.5 85t-51.5 26q-34 0 -68.5 -26.5t-65.5 -65.5l-37 27q23 33 48 58.5t54.5 43.5t64 27.5t77.5 9.5q74 0 115.5 -39t41.5 -112q0 -68 -30.5 -136t-79.5 -122.5t-110.5 -88.5t-124.5 -34q-24 0 -48 5.5t-43 16.5t-30.5 27.5t-11.5 38.5
q0 40 37.5 64.5t103.5 16.5q-10 -38 -12 -63t1 -39.5t11 -20t19 -5.5q17 0 37 14.5t39.5 40.5t36 60.5t27.5 75.5h-152z" />
    <glyph glyph-name="uni044E" unicode="&#x44e;" horiz-adv-x="788" 
d="M167 502h148l-79 -210h65q24 46 59.5 87.5t78.5 72.5t92 49t101 18q38 0 67.5 -11.5t49 -31.5t29.5 -46t10 -56q0 -68 -31 -137t-82.5 -124.5t-119 -90.5t-140.5 -35q-38 0 -67.5 11.5t-49 31.5t-29.5 46t-10 56q0 24 4 48.5t12 48.5h-62l-86 -229h-148zM476 40
q22 0 48 20t48 60t36.5 100.5t14.5 140.5q0 57 -14.5 81t-37.5 24q-22 0 -48 -20t-48 -60t-36.5 -100.5t-14.5 -140.5q0 -57 14.5 -81t37.5 -24z" />
    <glyph glyph-name="uni044F" unicode="&#x44f;" horiz-adv-x="609" 
d="M198 229q-45 9 -63.5 31t-18.5 57q0 30 22 65.5t61 66t91 50.5t112 20q29 0 44.5 -12.5t22.5 -30.5h1l17 44h145l-195 -520h-148l80 213h-16l-263 -213h-176zM386 258l36 97q25 68 18.5 95.5t-39.5 27.5q-26 0 -49 -14.5t-40 -36.5t-27 -49t-10 -51q0 -29 16.5 -49
t54.5 -20h40z" />
    <glyph glyph-name="uni0452" unicode="&#x452;" horiz-adv-x="619" 
d="M304 -150q-17 -9 -42 -23t-54 -29t-59.5 -30.5t-57.5 -28.5l-16 33q46 30 82.5 54.5t66 53.5t53.5 67t46 95l109 289q13 36 19 58.5t6 35.5t-4.5 18t-12.5 5q-23 0 -54.5 -35t-69.5 -95q-23 -35 -49 -77t-50.5 -84.5t-46 -83t-33.5 -73.5h-148l212 615h-84l18 53h84
l31 90h148l-31 -90h94l-18 -53h-94l-106 -307l-32 -91h1q28 47 49 81.5t43 67.5q28 43 52.5 72t48 47t47.5 26t51 8q30 0 52.5 -12.5t34.5 -36.5t11 -58.5t-18 -78.5l-109 -284q-15 -41 -30.5 -69.5t-35 -51t-44.5 -41t-60 -37.5z" />
    <glyph glyph-name="uni0453" unicode="&#x453;" horiz-adv-x="490" 
d="M148 -13q-34 0 -63 8.5t-50 24.5t-33 39.5t-12 54.5q0 36 13.5 63.5t37 47.5t54 35t65.5 26l76 25q24 8 47 17t41 21t29 28t11 38q0 28 -17.5 43.5t-44.5 15.5q-8 0 -16.5 -0.5t-16.5 -2.5t-17.5 -5.5t-19.5 -14.5l-109 -121h-31l69 165q41 14 80.5 19t77.5 5
q74 0 115 -30.5t41 -86.5q0 -40 -13.5 -69.5t-37 -51t-54 -36.5t-64.5 -26l-70 -22q-24 -8 -46.5 -17t-40 -21t-27.5 -28.5t-10 -40.5q0 -23 16.5 -40t54.5 -17q9 0 20.5 1t22.5 3t22.5 6.5t29.5 27.5l98 127h32l-64 -182q-53 -17 -103 -23t-93 -6zM448 788h157l-4 -11
l-257 -168h-39z" />
    <glyph glyph-name="uni0454" unicode="&#x454;" horiz-adv-x="498" 
d="M179 -13q-74 0 -115.5 39t-41.5 112q0 68 30.5 136t79.5 122.5t110.5 88.5t124.5 34q24 0 48 -5.5t43 -16.5t30.5 -27.5t11.5 -38.5q0 -40 -37.5 -64.5t-103.5 -16.5q10 38 12 63t-1 39.5t-11 20t-19 5.5q-17 0 -36.5 -14t-38 -38t-35 -57t-28.5 -72h150l-24 -63h-140
q-2 -16 -3 -31t-1 -31q0 -59 16.5 -85t51.5 -26q20 0 41 10t41.5 27.5t40 40t36.5 48.5l36 -26q-26 -41 -53.5 -73t-59 -54.5t-69.5 -34.5t-86 -12z" />
    <glyph glyph-name="uni0455" unicode="&#x455;" horiz-adv-x="448" 
d="M125 -13q-29 0 -54 7.5t-43 20t-28.5 29.5t-10.5 35q0 20 8.5 35.5t23 25t33 14.5t39.5 4q13 -40 21.5 -64.5t16 -38t15 -18t16.5 -4.5q12 0 25.5 3.5t25.5 11t19.5 18t7.5 25.5q0 23 -13.5 45.5t-37.5 51.5l-35 41q-26 31 -41 60.5t-15 58.5q0 37 21.5 68.5t56 54.5
t77 35.5t84.5 12.5q56 0 88.5 -21t32.5 -58q0 -14 -6 -29t-18.5 -26.5t-31 -18t-43.5 -3.5q-12 34 -20 55.5t-14.5 33.5t-13 16.5t-16.5 4.5q-11 0 -23.5 -3t-23 -9t-17.5 -15.5t-7 -22.5q0 -21 9.5 -40t35.5 -50l38 -45q13 -16 23.5 -29.5t17.5 -27t10.5 -27.5t3.5 -32
q0 -43 -21.5 -77.5t-56 -58.5t-76.5 -36.5t-83 -12.5z" />
    <glyph glyph-name="uni0456" unicode="&#x456;" horiz-adv-x="297" 
d="M171 502h148l-192 -502h-148zM210 700q0 18 7.5 35t20.5 30t30 20.5t35 7.5q19 0 36 -7.5t30 -20.5t20.5 -30t7.5 -35q0 -19 -7.5 -36t-20.5 -30t-30 -20.5t-36 -7.5q-18 0 -35 7.5t-30 20.5t-20.5 30t-7.5 36z" />
    <glyph glyph-name="uni0457" unicode="&#x457;" horiz-adv-x="292" 
d="M191 606q-29 0 -45.5 24t-5.5 69t38.5 69.5t56.5 24.5t46 -24t6 -69t-39 -69.5t-57 -24.5zM360 606q-29 0 -45.5 24.5t-5.5 69.5t38.5 69t56.5 24t46 -24t6 -69t-39 -69.5t-57 -24.5zM171 502h148l-192 -502h-148z" />
    <glyph glyph-name="uni0458" unicode="&#x458;" horiz-adv-x="306" 
d="M-245 -228q46 30 82.5 54.5t66 53.5t53.5 67t46 95l177 460h148l-174 -453q-15 -41 -30.5 -69.5t-35 -51t-44.5 -41t-60 -37.5q-17 -9 -42 -23t-54 -29t-59.5 -30.5t-57.5 -28.5zM218 700q0 18 7.5 35t20.5 30t30 20.5t35 7.5q19 0 36 -7.5t30 -20.5t20.5 -30t7.5 -35
q0 -19 -7.5 -36t-20.5 -30t-30 -20.5t-36 -7.5q-18 0 -35 7.5t-30 20.5t-20.5 30t-7.5 36z" />
    <glyph glyph-name="uni0459" unicode="&#x459;" horiz-adv-x="796" 
d="M746 191q0 -35 -20 -71t-56.5 -65.5t-87.5 -48.5t-112 -19q-54 0 -94 13t-61.5 41.5t-23 73.5t22.5 110l79 214h-104q-58 -154 -107 -249t-94 -143q-26 -28 -54 -44t-60 -16q-22 0 -33.5 12.5t-11.5 31.5q0 24 17 46t54 36q39 15 67 39.5t53.5 65.5t51.5 104t61 156l9 24
h323l-70 -187h47q103 0 153.5 -28.5t50.5 -95.5zM474 47q28 0 50 11t37.5 29t24 40t8.5 44q0 38 -22 61t-69 23h-30l-35 -94q-22 -58 -11.5 -86t47.5 -28z" />
    <glyph glyph-name="uni045A" unicode="&#x45a;" horiz-adv-x="840" 
d="M161 502h148l-71 -197h150l73 197h148l-70 -187h47q103 0 153.5 -28.5t50.5 -95.5q0 -35 -20 -71t-56.5 -65.5t-87.5 -48.5t-112 -19q-54 0 -94 13t-61.5 41.5t-23 73.5t22.5 110l6 17h-149l-88 -242h-148zM518 47q28 0 50 11t37.5 29t24 40t8.5 44q0 38 -22 61t-69 23
h-30l-35 -94q-22 -58 -11.5 -86t47.5 -28z" />
    <glyph glyph-name="uni045B" unicode="&#x45b;" horiz-adv-x="619" 
d="M250 758h148l-155 -450l-32 -91h1q28 47 49 81.5t43 67.5q28 43 52.5 72t48 47t47.5 26t51 8q30 0 52.5 -12.5t34.5 -36.5t11 -58.5t-18 -78.5l-127 -333h-150l126 331q13 34 19 57t6.5 36t-4.5 18.5t-13 5.5q-23 0 -54.5 -35t-69.5 -95q-23 -35 -49 -77t-50.5 -84.5
t-46 -83t-33.5 -73.5h-148zM135 668h326l-18 -53h-326z" />
    <glyph glyph-name="uni045C" unicode="&#x45c;" horiz-adv-x="596" 
d="M525 788h157l-4 -11l-257 -168h-39zM161 502h148l-79 -231l321 231h107l-293 -211l161 -291h-164l-139 251l-86 -251h-148z" />
    <glyph glyph-name="uni045E" unicode="&#x45e;" horiz-adv-x="557" 
d="M134 31l-28 471h149l19 -319l297 319h93l-698 -750h-92zM401 628q-51 0 -85 13t-52 34.5t-20 50.5t10 62h106q-10 -26 -14.5 -48.5t-0.5 -39t17 -26.5t39 -10q27 0 46.5 10t34 26.5t25.5 39t21 48.5h106q-28 -74 -85.5 -117t-147.5 -43z" />
    <glyph glyph-name="uni045F" unicode="&#x45f;" horiz-adv-x="607" 
d="M319 502l-134 -331q-14 -34 -19.5 -56t-5 -34.5t5 -17.5t11.5 -5q23 0 54.5 35.5t69.5 95.5q22 35 48 76t50.5 83t46 81.5t35.5 72.5h149l-193 -502h-146l115 285h-1q-29 -47 -49.5 -81.5t-42.5 -67.5q-11 -17 -22 -32t-21 -28q-35 -58 -60 -125.5t-41 -145.5h-137
q45 96 129 189q-11 -3 -22.5 -5t-24.5 -2q-72 0 -93.5 47t13.5 135l135 333h150z" />
    <glyph glyph-name="uni0491" unicode="&#x491;" horiz-adv-x="474" 
d="M291 439l-164 -439h-148l188 502h230q9 0 13.5 2.5t12.5 10.5l129 124h31l-83 -200h-209z" />
    <glyph glyph-name="uni0463" unicode="&#x463;" horiz-adv-x="845" 
d="M404 331q13 34 19 56.5t6.5 36t-4.5 19t-13 5.5q-12 0 -32.5 -21.5t-45.5 -57t-52.5 -81.5t-55 -96t-53 -99.5t-44.5 -92.5h-150l193 502h146l-103 -255h1q46 76 79.5 128t62 84t56 46t61.5 14q30 0 52.5 -12.5t34.5 -36.5t11 -58.5t-18 -78.5l-7 -18h43
q103 0 153.5 -28.5t50.5 -95.5q0 -35 -20 -71t-56.5 -65.5t-87.5 -48.5t-112 -19q-54 0 -94 13t-62 41.5t-23.5 74t23.5 109.5zM488 161q-23 -58 -12.5 -86t47.5 -28q28 0 50 11t37.5 29t24 40t8.5 44q0 38 -22 61t-69 23h-27z" />
    <glyph glyph-name="uni0473" unicode="&#x473;" horiz-adv-x="564" 
d="M175 -13q-38 0 -67.5 11.5t-49 31.5t-29.5 46t-10 56q0 68 31 137t82.5 124.5t119 90.5t140.5 35q38 0 67.5 -11.5t49 -31.5t29.5 -46t10 -56q0 -68 -31 -137t-82.5 -124.5t-119 -90.5t-140.5 -35zM197 277q28 20 50 25t38.5 2t29 -11.5t23 -16.5t20 -11.5t19.5 3.5
q6 42 6 93q0 57 -14.5 81t-37.5 24q-17 0 -36.5 -12t-38 -35.5t-34 -59t-25.5 -82.5zM236 40q17 0 36.5 12t38 35.5t34 59t25.5 82.5q-23 -22 -42 -28.5t-34.5 -3.5t-28.5 12t-25.5 17.5t-24.5 13t-25 -0.5q-6 -44 -6 -94q0 -57 14.5 -81t37.5 -24z" />
    <glyph glyph-name="uni0475" unicode="&#x475;" horiz-adv-x="601" 
d="M190 0h-53l-38 502h150l22 -315l140 159q41 46 73.5 79t61 54t54.5 30.5t55 9.5q28 0 41 -12.5t13 -29.5q0 -22 -9.5 -33.5t-26 -19t-39 -13.5t-47.5 -15.5t-51.5 -25.5t-51.5 -44z" />
    <glyph glyph-name="uni0493" unicode="&#x493;" horiz-adv-x="510" 
d="M167 -13q-85 0 -126 32t-41 91q0 45 20 75.5t52 51.5h-72l20 52h174l52 17q24 8 45.5 17.5t37.5 22t25.5 29.5t9.5 40q0 28 -12.5 43.5t-39.5 15.5q-8 0 -16.5 -0.5t-16.5 -2.5t-17.5 -5.5t-19.5 -14.5l-109 -121h-31l69 165q41 14 80 19t73 5q82 0 121.5 -30.5
t39.5 -86.5q0 -37 -12.5 -65t-33.5 -48h82l-20 -52h-148q-9 -4 -18 -7t-19 -6l-70 -22q-24 -8 -45.5 -17t-37.5 -22t-25.5 -30.5t-9.5 -42.5q0 -23 13.5 -40t51.5 -17q9 0 20.5 1t22.5 3t22.5 6.5t29.5 27.5l98 127h32l-64 -182q-53 -17 -97.5 -23t-89.5 -6z" />
    <glyph glyph-name="uni0497" unicode="&#x497;" horiz-adv-x="881" 
d="M-70 0l343 317l-103 185h88l134 -240l90 240h148l-90 -239l314 239h102l-270 -206l77 -233h102l-64 -200h-31l-38 124q-2 8 -5 10.5t-12 2.5h-92l-85 256l-96 -256h-148l96 256l-277 -256h-183z" />
    <glyph glyph-name="uni049B" unicode="&#x49b;" horiz-adv-x="632" 
d="M161 502h148l-79 -231l321 231h107l-293 -211l126 -228h79l-64 -200h-31l-38 124q-2 7 -4.5 10t-8.5 3h-62l-139 251l-86 -251h-148z" />
    <glyph glyph-name="uni04A3" unicode="&#x4a3;" horiz-adv-x="633" 
d="M167 502h148l-79 -210h162l79 210h148l-165 -439h91l-64 -200h-31l-38 124q-2 7 -4.5 10t-8.5 3h-116l86 229h-162l-86 -229h-148z" />
    <glyph glyph-name="uni04AF" unicode="&#x4af;" horiz-adv-x="541" 
d="M4 -248l90 249l5 501h150l-12 -397l317 397h89l-401 -501l-90 -249h-148z" />
    <glyph glyph-name="uni04B1" unicode="&#x4b1;" horiz-adv-x="541" 
d="M-15 0h108l1 1l5 501h150l-12 -397l317 397h89l-401 -501l-1 -1h110l-23 -63h-109l-67 -185h-148l67 185h-109z" />
    <glyph glyph-name="uni04B3" unicode="&#x4b3;" horiz-adv-x="578" 
d="M-101 0l327 243l-63 259h157l39 -160l215 160h104l-303 -225l52 -214h89l-64 -200h-31l-38 124q-2 7 -4.5 10t-8.5 3h-85l-43 178l-239 -178h-104z" />
    <glyph glyph-name="uni04B7" unicode="&#x4b7;" horiz-adv-x="597" 
d="M281 0l145 358h-1q-54 -88 -114.5 -138.5t-122.5 -50.5q-72 0 -94 46t14 136l61 151h150l-60 -149q-14 -35 -19.5 -57t-5.5 -34.5t5 -17t12 -4.5q20 0 51 27t63 67t61 85.5t45 82.5h149l-169 -439h90l-66 -200h-31l-37 124q-2 8 -4.5 10.5t-11.5 2.5h-110z" />
    <glyph glyph-name="uni04BB" unicode="&#x4bb;" horiz-adv-x="619" 
d="M250 758h148l-155 -450l-32 -91h1q28 47 49 81.5t43 67.5q28 43 52.5 72t48 47t47.5 26t51 8q30 0 52.5 -12.5t34.5 -36.5t11 -58.5t-18 -78.5l-127 -333h-150l126 331q13 34 19 57t6.5 36t-4.5 18.5t-13 5.5q-23 0 -54.5 -35t-69.5 -95q-23 -35 -49 -77t-50.5 -84.5
t-46 -83t-33.5 -73.5h-148z" />
    <glyph glyph-name="uni04CF" unicode="&#x4cf;" horiz-adv-x="321" 
d="M281 780h148l-292 -780h-148z" />
    <glyph glyph-name="uni04D9" unicode="&#x4d9;" horiz-adv-x="513" 
d="M339.979 518.969q71.9951 0 114.493 -38.998q42.4971 -38.998 42.4971 -111.993t-34.498 -141.491t-87.9941 -121.993q-53.4971 -53.4961 -117.993 -85.4941t-124.492 -31.998q-67.9961 0 -101.994 28.498t-33.998 70.4961q0 27.998 13.499 58.4961
q13.5 30.498 37.498 54.4971l264.983 1.99902q11 29.999 16.999 63.4961q6 33.498 6 69.4961q0 58.9961 -17.999 84.9951q-17.999 25.998 -49.9971 25.998q-20.998 0 -41.9971 -10.499t-40.998 -27.998q-19.998 -17.499 -38.9971 -39.998t-35.998 -46.4971l-35.998 24.998
q26.999 38.998 53.9971 70.9961t58.4961 54.9971q31.498 22.998 68.9961 35.4971q37.498 12.5 85.4951 12.5zM137.991 27.998q41.998 0 85.4951 36.998t73.4951 98.9941h-32.9971q-39.998 0 -70.9961 -9.5q-30.998 -9.49902 -52.4971 -23.998
q-21.498 -14.499 -32.498 -32.498q-10.999 -17.999 -10.999 -35.998q0 -33.998 40.9971 -33.998z" />
    <glyph glyph-name="uni04E3" unicode="&#x4e3;" horiz-adv-x="612" 
d="M319 502l-134 -331q-14 -34 -19.5 -56t-5 -34.5t5 -17.5t11.5 -5q23 0 54.5 35.5t69.5 95.5q22 35 48 76t50.5 83t46 81.5t35.5 72.5h149l-193 -502h-146l115 285h-1q-29 -47 -49.5 -81.5t-42.5 -67.5q-28 -43 -52.5 -71.5t-48 -46t-47.5 -24.5t-51 -7q-72 0 -93.5 47
t13.5 135l135 333h150zM302 737h285l-23 -68h-285z" />
    <glyph glyph-name="uni04E9" unicode="&#x4e9;" horiz-adv-x="564" 
d="M175 -13q-38 0 -67.5 11.5t-49 31.5t-29.5 46t-10 56q0 68 31 137t82.5 124.5t119 90.5t140.5 35q38 0 67.5 -11.5t49 -31.5t29.5 -46t10 -56q0 -68 -31 -137t-82.5 -124.5t-119 -90.5t-140.5 -35zM236 40q17 0 37 12.5t38.5 37t34.5 62t26 87.5h-182q-6 -44 -6 -94
q0 -57 14.5 -81t37.5 -24zM331 466q-17 0 -35.5 -11t-36 -32.5t-33.5 -54.5t-26 -76h179q2 16 3 33t1 36q0 57 -14.5 81t-37.5 24z" />
    <glyph glyph-name="uni04EF" unicode="&#x4ef;" horiz-adv-x="557" 
d="M134 31l-28 471h149l19 -319l297 319h93l-698 -750h-92zM294 737h285l-23 -68h-285z" />
    <glyph glyph-name="uni0414.aalt" horiz-adv-x="838" 
d="M40 74l504 684h79l84 -684h70l-66 -240h-42l-31 154q-1 6 -2.5 9t-9.5 3h-538q-8 0 -11.5 -3.5l-8.5 -8.5l-143 -154h-42l82 240h75zM130 74h402l-57 469z" />
    <glyph glyph-name="uni041B.aalt" horiz-adv-x="755" 
d="M677 0h-165l-75 555l-415 -555h-95l567 758h79z" />
    <glyph glyph-name="uni0432.aalt" horiz-adv-x="589" 
d="M222 -13q-121 0 -163.5 69t2.5 194l111 305q35 98 112.5 155.5t183.5 57.5q93 0 135 -32.5t42 -91.5q0 -38 -21 -78.5t-59.5 -76t-93.5 -62t-123 -34.5q51 -2 88 -14.5t60.5 -32.5t35 -46t11.5 -55q0 -44 -24 -89.5t-66.5 -83t-101.5 -61.5t-129 -24zM272 422h26
q45 0 80.5 24.5t60 60.5t37.5 77t13 74q0 28 -10 46t-30 18q-35 0 -62 -28.5t-52 -97.5zM227 36q30 0 58 20.5t49 52.5t34 70.5t13 74.5q0 22 -5.5 41.5t-18.5 34.5t-33 23.5t-48 8.5h-26l-53 -145q-20 -56 -25.5 -91t0 -55t20.5 -27.5t35 -7.5z" />
    <glyph glyph-name="uni0434.locl" horiz-adv-x="590" 
d="M279 -1q19 52 36 89t34 71h-2q-56 -84 -111.5 -128t-125.5 -44q-48 0 -75 30.5t-27 83.5q0 46 16.5 95t44.5 95.5t65 87.5t77.5 72.5t82.5 49.5t80 18q27 0 44 -10t27 -29h1l14 39h148l-175 -507q-22 -64 -58 -114.5t-82 -86t-100.5 -54t-114.5 -18.5q-48 0 -81.5 8
t-53.5 22.5t-29 33t-9 39.5q0 33 22.5 57t55.5 24q36 0 46.5 -18.5t10.5 -49.5q0 -32 11.5 -49.5t46.5 -17.5q21 0 42.5 9t44 31.5t45 61t45.5 98.5zM197 69q21 0 46.5 21t52 55.5t51.5 78t45 89.5q19 45 25.5 76t3.5 51t-15 29t-29 9q-26 0 -52 -17t-49.5 -45.5t-43 -65.5
t-34 -76.5t-22.5 -79t-8 -72.5q0 -31 8 -42t21 -11z" />
    <glyph glyph-name="uni0436.aalt" horiz-adv-x="894" 
d="M-70 0l343 317l-103 185h88l134 -240l193 518h148l-193 -518l314 240h102l-270 -206l98 -296h-161l-85 257l-96 -257h-148l95 256l-276 -256h-183z" />
    <glyph glyph-name="uni0437.aalt" horiz-adv-x="496" 
d="M303 519q85 0 128 -31t43 -90q0 -44 -18 -84t-51.5 -73t-81 -57.5t-105.5 -36.5v-1q84 -7 122 -42.5t38 -85.5q0 -47 -22.5 -96.5t-63.5 -90t-98 -66.5t-127 -26q-54 0 -90 8t-58 22.5t-31 33t-9 39.5q0 33 22.5 57t55.5 24q36 0 46.5 -18.5t10.5 -49.5q0 -33 11.5 -50
t46.5 -17t63.5 20t49 51t32 68.5t11.5 73.5q0 24 -6.5 45.5t-20.5 37.5t-35 25.5t-51 9.5h-42l20 53h42q40 0 75 21.5t60.5 54.5t40 71.5t14.5 73.5q0 32 -15 53t-49 21q-21 0 -40.5 -9t-38 -23.5t-35 -33t-31.5 -37.5l-37 27q43 61 95.5 94.5t128.5 33.5z" />
    <glyph glyph-name="uni0438.aalt" horiz-adv-x="607" 
d="M319 502l-134 -331q-14 -34 -19.5 -56t-5 -34.5t5 -17.5t11.5 -5q23 0 54.5 35.5t69.5 95.5q22 35 48 76t50.5 83t46 81.5t35.5 72.5h149l-193 -502h-146l115 285h-1q-29 -47 -49.5 -81.5t-42.5 -67.5q-28 -43 -52.5 -71.5t-48 -46t-47.5 -24.5t-51 -7q-72 0 -93.5 47
t13.5 135l135 333h150z" />
    <glyph glyph-name="uni0439.aalt" horiz-adv-x="607" 
d="M319 502l-134 -331q-14 -34 -19.5 -56t-5 -34.5t5 -17.5t11.5 -5q23 0 54.5 35.5t69.5 95.5q22 35 48 76t50.5 83t46 81.5t35.5 72.5h149l-193 -502h-146l115 285h-1q-29 -47 -49.5 -81.5t-42.5 -67.5q-28 -43 -52.5 -71.5t-48 -46t-47.5 -24.5t-51 -7q-72 0 -93.5 47
t13.5 135l135 333h150zM420 628q-51 0 -85 13t-52 34.5t-20 50.5t10 62h106q-10 -26 -14.5 -48.5t-0.5 -39t17 -26.5t39 -10q27 0 46.5 10t34 26.5t25.5 39t21 48.5h106q-28 -74 -85.5 -117t-147.5 -43z" />
    <glyph glyph-name="uni043A.aalt" horiz-adv-x="609" 
d="M257 780h148l-175 -508l321 230h107l-293 -211l161 -291h-164l-139 251l-86 -251h-148z" />
    <glyph glyph-name="uni043B.aalt" horiz-adv-x="558" 
d="M377.977 501.97h52.9971l37.998 -501.97h-149.991l-21.999 312.98l-282.982 -312.98h-88.9941z" />
    <glyph glyph-name="uni043F.locl" horiz-adv-x="610" 
d="M298 0l126 331q13 34 19 57t6.5 36t-4.5 18.5t-13 5.5q-23 0 -54.5 -35t-69.5 -95q-23 -35 -49 -77t-50.5 -84.5t-46 -83t-33.5 -73.5h-150l193 502h146l-115 -285h1q28 47 49 81.5t43 67.5q28 43 52.5 72t48 47t47.5 26t51 8q30 0 52.5 -12.5t34.5 -36.5t11 -58.5
t-18 -78.5l-127 -333h-150z" />
    <glyph glyph-name="uni0442.locl" horiz-adv-x="929" 
d="M172 502h146l-115 -285h1q28 47 49 81.5t43 67.5q28 43 52.5 72t48 47t47.5 26t51 8q30 0 52 -12.5t32.5 -36.5t9 -58.5t-18.5 -78.5l-48 -116h1q28 47 49 81.5t43 67.5q28 43 52.5 72t48 47t47.5 26t51 8q30 0 52.5 -12.5t34.5 -36.5t11 -58.5t-18 -78.5l-127 -333h-150
l126 331q13 34 19 57t6.5 36t-4.5 18.5t-13 5.5q-23 0 -54.5 -35t-69.5 -95q-23 -35 -49 -77t-50.5 -84.5t-46 -83t-33.5 -73.5h-150l126 331q13 34 19 57t6.5 36t-4.5 18.5t-13 5.5q-23 0 -54.5 -35t-69.5 -95q-23 -35 -49 -77t-50.5 -84.5t-46 -83t-33.5 -73.5h-150z" />
    <glyph glyph-name="uni044E.aalt" horiz-adv-x="808" 
d="M257 780h148l-168 -488h68q24 46 59.5 87.5t78.5 72.5t92 49t101 18q38 0 67.5 -11.5t49 -31.5t29.5 -46t10 -56q0 -68 -31 -137t-82.5 -124.5t-119 -90.5t-140.5 -35q-38 0 -67.5 11.5t-49 31.5t-29.5 46t-10 56q0 24 4 48.5t12 48.5h-64l-78 -229h-148zM480 40
q22 0 48 20t48 60t36.5 100.5t14.5 140.5q0 57 -14.5 81t-37.5 24q-22 0 -48 -20t-48 -60t-36.5 -100.5t-14.5 -140.5q0 -57 14.5 -81t37.5 -24z" />
    <glyph glyph-name="uni0431.aalt" horiz-adv-x="563" 
d="M19 132q0 64 23.5 121.5t61 104t84 80.5t93.5 50q-70 10 -96.5 38t-26.5 76q0 28 12.5 54t39.5 46.5t70.5 32.5t105.5 12h97q31 0 51 1.5t32 5.5t18.5 10.5t11.5 15.5h46q-23 -74 -70.5 -114t-138.5 -40h-113q-50 0 -68.5 -13t-18.5 -35q0 -13 6 -22t21 -16t39.5 -12
t61.5 -9q43 -5 77.5 -13.5t59 -24t37.5 -41.5t13 -66q0 -68 -31 -137t-82.5 -124.5t-119 -90.5t-140.5 -35q-38 0 -67.5 11.5t-49 31.5t-29.5 46t-10 56zM236 40q22 0 48 20t48 60t36.5 100.5t14.5 140.5q0 57 -14.5 81t-37.5 24q-22 0 -48 -20t-48 -60t-36.5 -100.5
t-14.5 -140.5q0 -57 14.5 -81t37.5 -24z" />
    <glyph glyph-name="uni0433.aalt" horiz-adv-x="297" 
d="M171 502h148l-192 -502h-148zM184 737h285l-23 -68h-285z" />
    <glyph glyph-name="uni0434.locl" horiz-adv-x="590" 
d="M279 -1q19 52 36 89t34 71h-2q-56 -84 -111.5 -128t-125.5 -44q-48 0 -75 30.5t-27 83.5q0 46 16.5 95t44.5 95.5t65 87.5t77.5 72.5t82.5 49.5t80 18q27 0 44 -10t27 -29h1l14 39h148l-175 -507q-22 -64 -58 -114.5t-82 -86t-100.5 -54t-114.5 -18.5q-48 0 -81.5 8
t-53.5 22.5t-29 33t-9 39.5q0 33 22.5 57t55.5 24q36 0 46.5 -18.5t10.5 -49.5q0 -32 11.5 -49.5t46.5 -17.5q21 0 42.5 9t44 31.5t45 61t45.5 98.5zM197 69q21 0 46.5 21t52 55.5t51.5 78t45 89.5q19 45 25.5 76t3.5 51t-15 29t-29 9q-26 0 -52 -17t-49.5 -45.5t-43 -65.5
t-34 -76.5t-22.5 -79t-8 -72.5q0 -31 8 -42t21 -11z" />
    <glyph glyph-name="uni043F.locl" horiz-adv-x="607" 
d="M319 502l-134 -331q-14 -34 -19.5 -56t-5 -34.5t5 -17.5t11.5 -5q23 0 54.5 35.5t69.5 95.5q22 35 48 76t50.5 83t46 81.5t35.5 72.5h149l-193 -502h-146l115 285h-1q-29 -47 -49.5 -81.5t-42.5 -67.5q-28 -43 -52.5 -71.5t-48 -46t-47.5 -24.5t-51 -7q-72 0 -93.5 47
t13.5 135l135 333h150zM337 737h285l-23 -68h-285z" />
    <glyph glyph-name="uni0442.locl" horiz-adv-x="923" 
d="M319 737h515l-23 -68h-515zM406 285h-1q-29 -47 -49.5 -81.5t-42.5 -67.5q-28 -43 -52.5 -71.5t-48 -46t-47.5 -24.5t-51 -7q-72 0 -93.5 47t13.5 135l135 333h150l-134 -331q-14 -34 -19.5 -56t-5 -34.5t5 -17.5t11.5 -5q23 0 54.5 35.5t69.5 95.5q22 35 48 76t50.5 83
t46 81.5t35.5 72.5h149l-129 -331q-14 -35 -19 -56.5t-5 -34.5t4.5 -17.5t11.5 -4.5q23 0 54.5 35.5t69.5 95.5q22 35 48 76t50.5 83t46 81.5t35.5 72.5h149l-193 -502h-146l115 285h-1q-29 -47 -49.5 -81.5t-42.5 -67.5q-28 -43 -52.5 -71.5t-48 -46t-47.5 -24.5t-51 -7
q-31 0 -52.5 12.5t-31 35.5t-6.5 57t20 77z" />
    <glyph glyph-name="glyph485" 
d="M-15 628q-51 0 -85 13t-52 34.5t-20 50.5t10 62h106q-10 -26 -14.5 -48.5t-0.5 -39t17 -26.5t39 -10q27 0 46.5 10t34 26.5t25.5 39t21 48.5h106q-28 -74 -85.5 -117t-147.5 -43z" />
    <glyph glyph-name="glyph486" 
d="M-12 830q-50 0 -84 13t-53 34.5t-22.5 50.5t6.5 62h106q-8 -26 -11 -48.5t1.5 -39t18 -26.5t39.5 -10q27 0 46 10t33 26.5t23.5 39t17.5 48.5h106q-23 -74 -82.5 -117t-144.5 -43z" />
    <glyph glyph-name="uni20BD" unicode="&#x20bd;" horiz-adv-x="743" 
d="M94 175h-98l20 68h98l27 88h-97l20 68h98l110 359h249q66 0 119.5 -8.5t92 -27.5t59.5 -50t21 -75q0 -58 -26 -107t-78 -84.5t-128.5 -55.5t-178.5 -20h-101l-27 -87h264l-20 -68h-264l-54 -175h-160zM322 399h95q61 0 102.5 18.5t67.5 46.5t37.5 59.5t11.5 58.5
q0 59 -32 83.5t-100 24.5h-93z" />
    <glyph glyph-name="uni20B4" unicode="&#x20b4;" horiz-adv-x="709" 
d="M114 487h343q71 22 106.5 63.5t35.5 81.5q0 34 -27 58.5t-82 24.5q-18 0 -34 -3q-11 -2 -22.5 -8t-24.5 -18l-156 -143h-42l108 212q50 17 101.5 20.5t94.5 3.5q60 0 102.5 -10.5t68.5 -29t38 -44t12 -55.5q0 -40 -19.5 -80.5t-54.5 -72.5h71l-21 -68h-619zM66 332h618
l-21 -68h-364q-64 -26 -91.5 -61.5t-27.5 -67.5q0 -35 26 -59.5t68 -24.5q31 0 47 1.5t30 4.5q15 3 31 9t39 26l137 116h42l-90 -186q-63 -20 -122 -27.5t-127 -7.5q-57 0 -96.5 12.5t-64.5 33.5t-36.5 48.5t-11.5 56.5q0 33 13.5 66t36.5 60h-57z" />
    <glyph glyph-name="uni20B8" unicode="&#x20b8;" horiz-adv-x="722" 
d="M158 758h702l-21 -68h-702zM358 529h-271l23 74h702l-23 -74h-271l-163 -529h-160z" />
    <glyph glyph-name="ellipsis" unicode="&#x2026;" horiz-adv-x="1006" 
d="M108 -13q-20 0 -37 7.5t-30 21t-20.5 31.5t-7.5 39q0 19 7.5 36.5t20.5 30.5t30 20.5t37 7.5q21 0 39 -7.5t31.5 -20.5t21 -30.5t7.5 -36.5q0 -42 -28.5 -70.5t-70.5 -28.5zM462 -13q-20 0 -37 7.5t-30 21t-20.5 31.5t-7.5 39q0 19 7.5 36.5t20.5 30.5t30 20.5t37 7.5
q21 0 39 -7.5t31.5 -20.5t21 -30.5t7.5 -36.5q0 -42 -28.5 -70.5t-70.5 -28.5zM816 -13q-20 0 -37 7.5t-30 21t-20.5 31.5t-7.5 39q0 19 7.5 36.5t20.5 30.5t30 20.5t37 7.5q21 0 39 -7.5t31.5 -20.5t21 -30.5t7.5 -36.5q0 -42 -28.5 -70.5t-70.5 -28.5z" />
    <glyph glyph-name="endash" unicode="&#x2013;" horiz-adv-x="672" 
d="M86 300h534l-26 -75h-534z" />
    <glyph glyph-name="emdash" unicode="&#x2014;" horiz-adv-x="1098" 
d="M86 300h960l-26 -75h-960z" />
    <glyph glyph-name="guilsinglleft" unicode="&#x2039;" horiz-adv-x="348" 
d="M44 251l280 233l36 -36l-190 -203l44 -208l-50 -18z" />
    <glyph glyph-name="guilsinglright" unicode="&#x203a;" horiz-adv-x="348" 
d="M306 251l-280 -233l-36 36l190 203l-44 208l50 18z" />
    <glyph glyph-name="quoteleft" unicode="&#x2018;" horiz-adv-x="306" 
d="M393 757q-56 -28 -93.5 -64t-37.5 -80q0 -54 84 -71q-4 -27 -15 -45.5t-26.5 -30.5t-34 -17.5t-37.5 -5.5q-41 0 -70 26.5t-29 74.5q0 32 16.5 66t48 67t76.5 63.5t103 54.5z" />
    <glyph glyph-name="quoteright" unicode="&#x2019;" horiz-adv-x="302" 
d="M135 481q56 28 93.5 64t37.5 80q0 54 -84 71q4 27 15 45.5t26.5 30.5t34 17.5t37.5 5.5q41 0 70 -26.5t29 -74.5q0 -32 -16.5 -66t-48 -67t-76.5 -63.5t-103 -54.5z" />
    <glyph glyph-name="uni02BB" unicode="&#x2bb;" horiz-adv-x="306" 
d="M393 757q-56 -28 -93.5 -64t-37.5 -80q0 -54 84 -71q-4 -27 -15 -45.5t-26.5 -30.5t-34 -17.5t-37.5 -5.5q-41 0 -70 26.5t-29 74.5q0 32 16.5 66t48 67t76.5 63.5t103 54.5z" />
    <glyph glyph-name="uni02BC" unicode="&#x2bc;" horiz-adv-x="302" 
d="M135 481q56 28 93.5 64t37.5 80q0 54 -84 71q4 27 15 45.5t26.5 30.5t34 17.5t37.5 5.5q41 0 70 -26.5t29 -74.5q0 -32 -16.5 -66t-48 -67t-76.5 -63.5t-103 -54.5z" />
    <glyph glyph-name="quotedblleft" unicode="&#x201c;" horiz-adv-x="546" 
d="M393 757q-56 -28 -93.5 -64t-37.5 -80q0 -54 84 -71q-4 -27 -15 -45.5t-26.5 -30.5t-34 -17.5t-37.5 -5.5q-41 0 -70 26.5t-29 74.5q0 32 16.5 66t48 67t76.5 63.5t103 54.5zM633 757q-56 -28 -93.5 -64t-37.5 -80q0 -54 84 -71q-4 -27 -15 -45.5t-26.5 -30.5t-34 -17.5
t-37.5 -5.5q-41 0 -70 26.5t-29 74.5q0 32 16.5 66t48 67t76.5 63.5t103 54.5z" />
    <glyph glyph-name="quotedblright" unicode="&#x201d;" horiz-adv-x="542" 
d="M135 481q56 28 93.5 64t37.5 80q0 54 -84 71q4 27 15 45.5t26.5 30.5t34 17.5t37.5 5.5q41 0 70 -26.5t29 -74.5q0 -32 -16.5 -66t-48 -67t-76.5 -63.5t-103 -54.5zM375 481q56 28 93.5 64t37.5 80q0 54 -84 71q4 27 15 45.5t26.5 30.5t34 17.5t37.5 5.5q41 0 70 -26.5
t29 -74.5q0 -32 -16.5 -66t-48 -67t-76.5 -63.5t-103 -54.5z" />
    <glyph glyph-name="quotesinglbase" unicode="&#x201a;" horiz-adv-x="316" 
d="M-37 -137q56 28 93.5 64t37.5 80q0 54 -84 71q4 27 15 45.5t26.5 30.5t34 17.5t37.5 5.5q41 0 70 -26.5t29 -74.5q0 -32 -16.5 -66t-48 -67t-76.5 -63.5t-103 -54.5z" />
    <glyph glyph-name="quotedblbase" unicode="&#x201e;" horiz-adv-x="556" 
d="M-37 -137q56 28 93.5 64t37.5 80q0 54 -84 71q4 27 15 45.5t26.5 30.5t34 17.5t37.5 5.5q41 0 70 -26.5t29 -74.5q0 -32 -16.5 -66t-48 -67t-76.5 -63.5t-103 -54.5zM203 -137q56 28 93.5 64t37.5 80q0 54 -84 71q4 27 15 45.5t26.5 30.5t34 17.5t37.5 5.5q41 0 70 -26.5
t29 -74.5q0 -32 -16.5 -66t-48 -67t-76.5 -63.5t-103 -54.5z" />
    <glyph glyph-name="bullet" unicode="&#x2022;" horiz-adv-x="416" 
d="M245 258q-26 0 -49 10t-40 27t-27 40.5t-10 49.5t10 49t27 40t40 27t49 10t49 -10t40.5 -27t27.5 -40t10 -49t-10 -49.5t-27.5 -40.5t-40.5 -27t-49 -10z" />
    <glyph glyph-name="dagger" unicode="&#x2020;" horiz-adv-x="682" 
d="M362 435h-258l20 67h259l78 256h70l-78 -256h257l-20 -67h-258l-203 -663h-70z" />
    <glyph glyph-name="daggerdbl" unicode="&#x2021;" horiz-adv-x="682" 
d="M1 95h258l104 340h-258l20 67h259l78 256h70l-78 -256h257l-20 -67h-258l-104 -340h258l-20 -67h-259l-78 -256h-70l78 256h-257z" />
    <glyph glyph-name="perthousand" unicode="&#x2030;" horiz-adv-x="1375" 
d="M872 758h113l-828 -758h-113zM250 341q-34 0 -57.5 12t-38.5 32.5t-22 47t-7 55.5q0 54 21 106t54.5 93t75.5 66.5t85 25.5q34 0 58 -12t39 -32.5t21.5 -47t6.5 -55.5q0 -54 -21 -106t-54.5 -93t-75.5 -66.5t-85 -25.5zM257 374q20 0 37.5 16.5t32.5 44t26.5 61.5
t19.5 69t12.5 67t4.5 56q0 26 -8.5 42t-27.5 16q-20 0 -37.5 -16.5t-32.5 -44t-26.5 -61.5t-19.5 -69t-12.5 -67.5t-4.5 -55.5q0 -26 8.5 -42t27.5 -16zM677 -13q-34 0 -57.5 12t-38.5 32.5t-22 47t-7 55.5q0 54 21 106t54.5 93t75.5 66.5t85 25.5q34 0 58 -12t39 -32.5
t21.5 -47t6.5 -55.5q0 -54 -21 -106t-54.5 -93t-75.5 -66.5t-85 -25.5zM684 20q20 0 37.5 16.5t32.5 44t26.5 61.5t19.5 69t12.5 67t4.5 56q0 26 -8.5 42t-27.5 16q-20 0 -37.5 -16.5t-32.5 -44t-26.5 -61.5t-19.5 -69t-12.5 -67.5t-4.5 -55.5q0 -26 8.5 -42t27.5 -16z
M1097 -13q-34 0 -57.5 12t-38.5 32.5t-22 47t-7 55.5q0 54 21 106t54.5 93t75.5 66.5t85 25.5q34 0 58 -12t39 -32.5t21.5 -47t6.5 -55.5q0 -54 -21 -106t-54.5 -93t-75.5 -66.5t-85 -25.5zM1104 20q20 0 37.5 16.5t32.5 44t26.5 61.5t19.5 69t12.5 67t4.5 56q0 26 -8.5 42
t-27.5 16q-20 0 -37.5 -16.5t-32.5 -44t-26.5 -61.5t-19.5 -69t-12.5 -67.5t-4.5 -55.5q0 -26 8.5 -42t27.5 -16z" />
    <glyph glyph-name="uni2117" unicode="&#x2117;" horiz-adv-x="924" 
d="M503 -13q-83 0 -155.5 29t-126.5 81.5t-85.5 125t-31.5 160.5t31.5 160.5t85.5 125t126.5 81.5t155.5 29t155.5 -29t126.5 -81.5t85.5 -125t31.5 -160.5t-31.5 -160.5t-85.5 -125t-126.5 -81.5t-155.5 -29zM503 40q71 0 132.5 24.5t106.5 69t71 108t26 141.5t-26 141.5
t-71 108t-106.5 69t-132.5 24.5t-132.5 -24.5t-106.5 -69t-71 -108t-26 -141.5t26 -141.5t71 -108t106.5 -69t132.5 -24.5zM352 610h165q42 0 77.5 -6t61.5 -20t40.5 -37t14.5 -57t-14.5 -58t-40.5 -39t-61.5 -22t-77.5 -7h-61v-184h-104v430zM456 410h57q44 0 63.5 19
t19.5 57q0 39 -19.5 59t-63.5 20h-57v-155z" />
    <glyph glyph-name="trademark" unicode="&#x2122;" horiz-adv-x="1248" 
d="M343 700h-162v58h443v-58h-162v-412h-119v412zM682 758h128l138 -236l132 236h119v-470h-119v340l-142 -251h-49l-148 251v-340h-59v470z" />
    <glyph glyph-name="uni2116" unicode="&#x2116;" horiz-adv-x="1225" 
d="M871 292h294l-22 -74h-294zM657 207l169 551h81l-232 -758h-81l-320 553l-168 -553h-81l232 758h81zM1044 333q-34 0 -57.5 12t-38.5 32.5t-22 47t-7 55.5q0 54 21 106t54.5 93t75.5 66.5t85 25.5q34 0 58 -12t39 -32.5t21.5 -47t6.5 -55.5q0 -54 -21 -106t-54.5 -93
t-75.5 -66.5t-85 -25.5zM1051 366q20 0 37.5 16.5t32.5 44t26.5 61.5t19.5 69t12.5 67t4.5 56q0 26 -8.5 42t-27.5 16q-20 0 -37.5 -16.5t-32.5 -44t-26.5 -61.5t-19.5 -69t-12.5 -67.5t-4.5 -55.5q0 -26 8.5 -42t27.5 -16z" />
    </font>
</defs>
</svg>
