<?xml version="1.0" standalone="no"?>
<!DOCTYPE svg PUBLIC "-//W3C//DTD SVG 1.1//EN" "http://www.w3.org/Graphics/SVG/1.1/DTD/svg11.dtd" >
<svg xmlns="http://www.w3.org/2000/svg" xmlns:xlink="http://www.w3.org/1999/xlink" version="1.1">
<metadata>
Created by Christoph Koeberlin (http://christoph.koe.berlin)
Copyright (c) 2017 Swiss Typefaces Sarl. All rights reserved.
</metadata>
<defs>
<font id="Font" horiz-adv-x="0" >
  <font-face 
    font-family="Font"
    font-weight="450"
    font-stretch="normal"
    units-per-em="1000"
    panose-1="2 4 5 4 6 0 0 0 0 4"
    ascent="800"
    descent="-200"
    x-height="502"
    cap-height="758"
    bbox="-409 -403 1288 1083"
    underline-thickness="63"
    underline-position="-130"
    unicode-range="U+0020-FEFF"
  />
<missing-glyph horiz-adv-x="640" 
d="M70 758h500v-758h-500v758zM320 396l217 343h-434zM89 30l221 349l-221 349v-698zM551 30v698l-220 -349zM537 19l-217 343l-217 -343h434z" />
    <glyph glyph-name="f_f.liga" unicode="ff" horiz-adv-x="730" 
d="M390 36l43 2q25 2 30.5 10t5.5 25v374h-74v55h74v4q0 78 24.5 135t62.5 97q32 34 74 55.5t74 21.5q22 0 36.5 -12t14.5 -34t-10.5 -38t-22.5 -19q-22 8 -54.5 14.5t-55.5 6.5q-14 0 -23 -5.5t-14 -19.5t-7 -38t-2 -61v-107h144v-55h-144v-372q0 -17 6 -25t30 -9l73 -3
v-38h-285v36zM42 36l43 2q25 2 31 10t6 25v374h-97v25l97 31v3q0 63 24.5 117.5t62.5 94.5q32 34 74 55.5t74 21.5q21 0 36 -12t15 -34t-10.5 -38t-22.5 -19q-22 8 -54.5 14.5t-55.5 6.5q-14 0 -23 -5.5t-14 -19.5t-7 -38t-2 -61v-87h137v-55h-137v-372q0 -17 5.5 -25
t30.5 -9l73 -3v-38h-286v36z" />
    <glyph glyph-name="f_i.liga" unicode="fi" horiz-adv-x="693" 
d="M42 36l43 2q25 2 31 10t6 25v374h-97v25l97 31v3q0 78 24.5 135t62.5 97q32 34 73.5 55.5t73.5 21.5q22 0 37 -12t15 -34t-10.5 -38t-23.5 -19q-22 8 -54.5 14.5t-55.5 6.5q-14 0 -23 -5.5t-14 -19.5t-6.5 -38t-1.5 -61v-107h144v-55h-144v-372q0 -17 5.5 -25t30.5 -9
l73 -3v-38h-286v36zM585 73q0 -17 6 -25t31 -10l43 -2v-36h-257v36l43 2q25 2 31 10t6 25v302q0 11 -0.5 17.5t-2.5 11t-6 7.5t-12 7l-73 31v6l191 73v-455zM530 673q-29 0 -49 19.5t-20 49.5q0 29 20 49t49 20t49 -20t20 -49q0 -30 -20 -49.5t-49 -19.5z" />
    <glyph glyph-name="f_f_i.liga" unicode="ffi" horiz-adv-x="1037" 
d="M390 36l43 2q25 2 30.5 10t5.5 25v374h-74v55h74v4q0 78 24.5 135t62.5 97q32 34 74 55.5t74 21.5q22 0 36.5 -12t14.5 -34t-10.5 -38t-22.5 -19q-22 8 -54.5 14.5t-55.5 6.5q-14 0 -23 -5.5t-14 -19.5t-7 -38t-2 -61v-107h144v-55h-144v-372q0 -17 6 -25t30 -9l73 -3
v-38h-285v36zM42 36l43 2q25 2 31 10t6 25v374h-97v25l97 31v3q0 63 24.5 117.5t62.5 94.5q32 34 74 55.5t74 21.5q21 0 36 -12t15 -34t-10.5 -38t-22.5 -19q-22 8 -54.5 14.5t-55.5 6.5q-14 0 -23 -5.5t-14 -19.5t-7 -38t-2 -61v-87h137v-55h-137v-372q0 -17 5.5 -25
t30.5 -9l73 -3v-38h-286v36zM932 73q0 -17 6 -25t31 -10l43 -2v-36h-257v36l43 2q25 2 31 10t6 25v302q0 11 -0.5 17.5t-2.5 11t-6 7.5t-12 7l-73 31v6l191 73v-455zM877 673q-29 0 -49 19.5t-20 49.5q0 29 20 49t49 20t49 -20t20 -49q0 -30 -20 -49.5t-49 -19.5z" />
    <glyph glyph-name="f_l.liga" unicode="fl" horiz-adv-x="686" 
d="M42 36l43 2q25 2 31 10t6 25v374h-97v25l97 31v3q0 78 24.5 135t62.5 97q32 34 73.5 55.5t73.5 21.5q22 0 37 -12t15 -34t-10.5 -38t-23.5 -19q-22 8 -54.5 14.5t-55.5 6.5q-14 0 -23 -5.5t-14 -19.5t-6.5 -38t-1.5 -61v-107h144v-55h-144v-372q0 -17 5.5 -25t30.5 -9
l73 -3v-38h-286v36zM402 0v36l43 2q25 2 31 10t6 25v608q0 22 -3 28.5t-19 14.5l-73 32v6l192 69v-758q0 -17 6 -25t31 -10l43 -2v-36h-257z" />
    <glyph glyph-name="f_f_l.liga" unicode="ffl" horiz-adv-x="1030" 
d="M749 0v36l43 2q25 2 31 10t6 25v608q0 22 -3 28.5t-19 14.5l-55 24q-10 -31 -30 -36q-22 8 -54.5 14.5t-55.5 6.5q-14 0 -23 -5.5t-14 -19.5t-7 -38t-2 -61v-107h144v-55h-144v-372q0 -17 6 -25t30 -9l73 -3v-38h-285v36l43 2q25 2 30.5 10t5.5 25v374h-74v55h74v4
q0 78 24.5 135t62.5 97q32 34 74 55.5t74 21.5q22 0 36.5 -12t14.5 -34l171 62v-758q0 -17 6 -25t31 -10l43 -2v-36h-257zM42 36l43 2q25 2 31 10t6 25v374h-97v25l97 31v3q0 63 24.5 117.5t62.5 94.5q32 34 74 55.5t74 21.5q21 0 36 -12t15 -34t-10.5 -38t-22.5 -19
q-22 8 -54.5 14.5t-55.5 6.5q-14 0 -23 -5.5t-14 -19.5t-7 -38t-2 -61v-87h137v-55h-137v-372q0 -17 5.5 -25t30.5 -9l73 -3v-38h-286v36z" />
    <glyph glyph-name=".notdef" horiz-adv-x="640" 
d="M70 758h500v-758h-500v758zM320 396l217 343h-434zM89 30l221 349l-221 349v-698zM551 30v698l-220 -349zM537 19l-217 343l-217 -343h434z" />
    <glyph glyph-name="glyph1" 
 />
    <glyph glyph-name="glyph2" horiz-adv-x="268" 
 />
    <glyph glyph-name="space" unicode=" " horiz-adv-x="268" 
 />
    <glyph glyph-name="exclam" unicode="!" horiz-adv-x="307" 
d="M137 233q-5 69 -9 118t-8 87t-7.5 70t-7 67t-7.5 78.5t-8 104.5q0 13 20 20t44 7t44 -7t20 -20q-3 -61 -6.5 -104.5t-7.5 -78.5t-8 -67t-8 -70t-8.5 -87t-8.5 -118h-34zM152 -13q-32 0 -54.5 23t-22.5 58q0 32 22.5 54.5t54.5 22.5q35 0 58 -22.5t23 -54.5q0 -35 -23 -58
t-58 -23z" />
    <glyph glyph-name="quotedbl" unicode="&#x22;" horiz-adv-x="377" 
d="M218 731q-3 16 1 25.5t12.5 14.5t19.5 6.5t21 1.5t20.5 -1.5t19 -6.5t13 -14.5t1.5 -25.5l-41 -230h-26zM52 731q-3 16 1 25.5t12.5 14.5t19.5 6.5t21 1.5t20.5 -1.5t19 -6.5t13 -14.5t1.5 -25.5l-41 -230h-26z" />
    <glyph glyph-name="numbersign" unicode="#" horiz-adv-x="883" 
d="M58 267h173l90 221h-174l26 63h174l91 225h68l-91 -225h199l91 225h68l-91 -225h168l-25 -63h-169l-90 -221h169l-26 -63h-168l-83 -204h-68l83 204h-199l-83 -204h-68l83 204h-174zM498 267l90 221h-199l-90 -221h199z" />
    <glyph glyph-name="dollar" unicode="$" horiz-adv-x="588" 
d="M313 886v-107h4q39 0 75.5 -7.5t65 -22t46 -35.5t17.5 -48q0 -28 -24 -44.5t-62 -9.5q-7 63 -37.5 91t-84.5 31v-288l33 -14q44 -19 80 -38.5t61.5 -44t39.5 -57.5t14 -79q0 -44 -16.5 -82.5t-46.5 -68.5t-72 -49t-93 -24v-109h-42v107q-49 1 -91.5 13t-73.5 31.5
t-49 44.5t-18 52q0 34 24 52t62 10q7 -75 42.5 -114.5t103.5 -43.5v317l-28 12q-92 38 -134 89t-42 122q0 41 15.5 75.5t43 61t65 44t80.5 23.5v110h42zM151 615q0 -57 31.5 -92.5t88.5 -58.5v268q-25 -3 -46.5 -11t-38 -22.5t-26 -35t-9.5 -48.5zM453 166q0 34 -11 59.5
t-29.5 45t-44 34t-55.5 27.5v-299q66 7 103 42.5t37 90.5z" />
    <glyph glyph-name="percent" unicode="%" horiz-adv-x="916" 
d="M705 758h72l-566 -758h-72zM548 212q0 39 10 77.5t30 69t51 50t73 19.5t73 -19.5t51.5 -50t30.5 -69t10 -77.5t-10 -78t-30.5 -70.5t-51.5 -51t-73 -19.5t-73 19.5t-51 51t-30 70.5t-10 78zM634 212q0 -33 3 -66.5t11.5 -61.5t24 -45.5t39.5 -17.5t39.5 17.5t24.5 45.5
t12 61.5t3 66.5q0 32 -3 65.5t-12 60.5t-24.5 44.5t-39.5 17.5t-39.5 -17.5t-24 -44.5t-11.5 -60.5t-3 -65.5zM39 553q0 39 10 77.5t30 69t51 50t73 19.5t73 -19.5t51.5 -50t30.5 -69t10 -77.5t-10 -78t-30.5 -70.5t-51.5 -51t-73 -19.5t-73 19.5t-51 51t-30 70.5t-10 78z
M125 553q0 -33 3 -66.5t11.5 -61.5t24 -45.5t39.5 -17.5t39.5 17.5t24.5 45.5t12 61.5t3 66.5q0 32 -3 65.5t-12 60.5t-24.5 44.5t-39.5 17.5t-39.5 -17.5t-24 -44.5t-11.5 -60.5t-3 -65.5z" />
    <glyph glyph-name="ampersand" unicode="&#x26;" horiz-adv-x="897" 
d="M299 -13q-65 0 -111 20t-76 51t-44 69t-14 75q0 43 15.5 81.5t42.5 71t63.5 57.5t78.5 41q-40 37 -58.5 76.5t-18.5 79.5q0 36 15 67t41 54t61.5 36t76.5 13q36 0 67 -9.5t54.5 -26.5t36.5 -41.5t13 -55.5q0 -42 -21 -78.5t-68 -59.5l-75 -36q57 -50 114.5 -108
t108.5 -115q8 11 14.5 23t14.5 25l58 100q23 41 17.5 53.5t-49.5 14.5l-30 1v36h235v-36l-17 -1q-19 -1 -33 -5t-29.5 -17t-35 -38t-48.5 -69l-74 -113q17 -20 32.5 -40t29.5 -38q21 -28 40 -48.5t35 -34.5q19 -14 40.5 -18.5t53.5 -6.5l13 -1v-36h-209q-17 27 -42 62
t-56 74q-26 -31 -49.5 -53t-44.5 -39q-32 -27 -74.5 -42t-93.5 -15zM150 254q0 -39 14 -73t39 -59.5t60.5 -40t78.5 -14.5q61 0 107.5 25t88.5 72q-29 36 -61 72.5t-65.5 71.5t-67 66.5t-66.5 57.5q-57 -26 -92.5 -73.5t-35.5 -104.5zM268 649q0 -36 21 -75.5t66 -80.5
q54 20 83.5 56.5t29.5 86.5q0 46 -26 78.5t-74 32.5q-46 0 -73 -27t-27 -71z" />
    <glyph glyph-name="quotesingle" unicode="'" horiz-adv-x="211" 
d="M52 731q-3 16 1 25.5t12.5 14.5t19.5 6.5t21 1.5t20.5 -1.5t19 -6.5t13 -14.5t1.5 -25.5l-41 -230h-26z" />
    <glyph glyph-name="parenleft" unicode="(" horiz-adv-x="325" 
d="M274 -239q-62 53 -106 116.5t-71.5 132.5t-40 141.5t-12.5 143.5t12.5 143.5t40 141.5t71.5 132.5t106 116.5l27 -24q-49 -54 -81 -117t-51 -129t-27 -133.5t-8 -130.5t8 -130.5t27 -133.5t51 -129t81 -117z" />
    <glyph glyph-name="parenright" unicode=")" horiz-adv-x="324" 
d="M51 829q62 -53 106 -116.5t71.5 -132.5t40 -141.5t12.5 -143.5t-12.5 -143.5t-40 -141.5t-71.5 -132.5t-106 -116.5l-27 24q49 54 81 117t51 129t27 133.5t8 130.5t-8 130.5t-27 133.5t-51 129t-81 117z" />
    <glyph glyph-name="asterisk" unicode="*" horiz-adv-x="477" 
d="M130 420l-22 15l80 141l-148 68l9 25l158 -33l18 161h27l18 -161l158 33l8 -25l-147 -68l79 -141l-21 -15l-109 120z" />
    <glyph glyph-name="plus" unicode="+" horiz-adv-x="653" 
d="M291 229h-233v67h233v220h71v-220h233v-67h-233v-229h-71v229z" />
    <glyph glyph-name="comma" unicode="," horiz-adv-x="292" 
d="M130 145q21 0 40.5 -8.5t34.5 -24t24 -38t9 -49.5q0 -26 -12 -53.5t-34 -53.5t-53.5 -50t-71.5 -43l-14 29q51 29 74 64t23 63q0 37 -22.5 58t-69.5 35q0 17 6.5 30t17 22t23 14t25.5 5z" />
    <glyph glyph-name="hyphen" unicode="-" horiz-adv-x="426" 
d="M66 296h294v-67h-294v67z" />
    <glyph glyph-name="period" unicode="." horiz-adv-x="272" 
d="M134 -13q-32 0 -54.5 23t-22.5 58q0 32 22.5 54.5t54.5 22.5q35 0 58 -22.5t23 -54.5q0 -35 -23 -58t-58 -23z" />
    <glyph glyph-name="slash" unicode="/" horiz-adv-x="474" 
d="M373 806h72l-346 -858h-69z" />
    <glyph glyph-name="zero" unicode="0" horiz-adv-x="659" 
d="M53 385q0 70 16.5 140.5t50.5 126.5t86 91.5t123 35.5q72 0 124 -35.5t86.5 -91.5t51 -126.5t16.5 -140.5q0 -71 -16.5 -142t-51 -128t-86.5 -92.5t-124 -35.5q-71 0 -123 35.5t-86 92.5t-50.5 128t-16.5 142zM171 385q0 -62 7 -126t25 -115.5t48.5 -84t77.5 -32.5
t78 32.5t49 84t25.5 115.5t7.5 126q0 61 -7.5 124t-25.5 114t-49 83.5t-78 32.5t-77.5 -32.5t-48.5 -83.5t-25 -114t-7 -124z" />
    <glyph glyph-name="one" unicode="1" horiz-adv-x="390" 
d="M159 647h-129v33q49 4 81.5 12.5t54.5 21t37 29t29 37.5h24v-709q0 -15 5.5 -22.5t30.5 -9.5l42 -3v-36h-266v37l55 3q25 2 30.5 9t5.5 22v576z" />
    <glyph glyph-name="two" unicode="2" horiz-adv-x="577" 
d="M19 0v18q102 99 173.5 179.5t117 146.5t66 120t20.5 101q0 30 -10 56.5t-28.5 45.5t-46 30t-62.5 11q-29 0 -51 -8t-41 -22t-36.5 -35t-37.5 -46l-32 20q23 38 47.5 68t52.5 51t61 32t75 11q52 0 92 -14.5t67.5 -40t42 -59t14.5 -72.5q0 -45 -16 -87.5t-42 -83.5
t-60.5 -80t-70.5 -77q-14 -15 -33.5 -35.5t-42.5 -43.5t-47.5 -48t-47.5 -49l218 1q37 0 59.5 3.5t37 13t25 27.5t22.5 48l31 -4l-50 -178h-467z" />
    <glyph glyph-name="three" unicode="3" horiz-adv-x="577" 
d="M219 -13q-43 0 -78 9t-60 24.5t-38.5 35.5t-13.5 41q0 29 22.5 44t52.5 10q27 -60 61 -90.5t86 -30.5q26 0 56 10t56 32.5t43.5 58.5t17.5 87q0 42 -14 75.5t-37 56t-52 34.5t-60 12q-20 0 -38 -5t-38 -13l-9 33l64 25q76 30 112.5 77t36.5 96q0 48 -32 74t-86 26
q-28 0 -50.5 -6.5t-41.5 -20.5t-36.5 -35t-35.5 -50l-33 19q45 85 101 124t137 39q40 0 73 -9.5t56.5 -27.5t36.5 -43t13 -55q0 -29 -11.5 -54t-30.5 -46.5t-43.5 -39.5t-50.5 -31v-3q35 -12 66.5 -31.5t55 -46t37.5 -60.5t14 -75q0 -65 -30 -115.5t-76 -85t-100.5 -52
t-102.5 -17.5z" />
    <glyph glyph-name="four" unicode="4" horiz-adv-x="620" 
d="M359 200h-346v29l361 529h82v-491h137v-67h-137v-200h-97v200zM359 267v392l-261 -392h261z" />
    <glyph glyph-name="five" unicode="5" horiz-adv-x="567" 
d="M203 -13q-41 0 -75 9t-58 24t-37.5 35t-13.5 41q0 29 22.5 44t52.5 10q28 -59 62 -88.5t86 -29.5q29 0 60 11t57 32.5t42.5 55t16.5 78.5q0 48 -22.5 85t-63 66t-96 50t-122.5 36l83 312h330l-27 -97h-285l-33 -119q79 -21 139.5 -47t101.5 -61t62.5 -80t21.5 -102
q0 -59 -26.5 -107.5t-69.5 -83.5t-98 -54.5t-110 -19.5z" />
    <glyph glyph-name="six" unicode="6" horiz-adv-x="612" 
d="M552 234q0 -53 -21.5 -98t-57 -78t-81.5 -52t-95 -19q-53 0 -99 21.5t-80 60t-53 92.5t-19 120q0 76 36 154t103.5 147.5t165 126t220.5 89.5l9 -39q-91 -26 -161 -68.5t-120 -94.5t-82 -110t-46 -113q15 13 35.5 27.5t39.5 25.5t42.5 17.5t52.5 6.5q37 0 74.5 -11.5
t68 -37t49.5 -66.5t19 -101zM159 281q0 -129 39 -191.5t105 -62.5q63 0 100 47.5t37 137.5q0 84 -41.5 129t-110.5 45q-40 0 -71 -14.5t-54 -37.5q-2 -14 -3 -27t-1 -26z" />
    <glyph glyph-name="seven" unicode="7" horiz-adv-x="557" 
d="M270 239q-33 -58 -53 -104.5t-36 -88.5q-6 -17 -12 -27.5t-13 -17.5t-17 -11.5t-25 -8.5l-33 -8q-23 -5 -28 5.5t16 42.5q93 143 196 307.5t207 336.5l-251 -2q-45 0 -70.5 -3t-40.5 -12.5t-24 -27.5t-21 -49l-31 5l35 182h478l10 -16z" />
    <glyph glyph-name="eight" unicode="8" horiz-adv-x="587" 
d="M288 -13q-55 0 -99 16t-75 43t-47.5 62t-16.5 74q0 36 13 65.5t36 54t54 45t66 37.5q-68 40 -104 89t-36 115q0 43 19.5 78.5t51 60.5t72 38.5t82.5 13.5t79 -11t65 -31.5t44.5 -50t16.5 -65.5q0 -33 -14.5 -62t-37.5 -52.5t-51.5 -42t-56.5 -30.5l26 -15
q32 -18 61.5 -38.5t51.5 -46.5t35 -59t13 -75q0 -47 -20.5 -86t-55 -67t-79 -44t-93.5 -16zM325 447q51 30 79 72t28 94q0 28 -10 51.5t-27 39.5t-41 25t-51 9q-30 0 -54.5 -9.5t-42.5 -25t-27.5 -37t-9.5 -45.5q0 -52 33 -88.5t87 -65.5zM136 191q0 -36 10 -65.5
t29.5 -51.5t48 -34t64.5 -12q32 0 59 10.5t46.5 29t30.5 44t11 56.5q0 46 -25.5 84t-92.5 76l-73 42q-45 -26 -76.5 -69.5t-31.5 -109.5z" />
    <glyph glyph-name="nine" unicode="9" horiz-adv-x="612" 
d="M567 485q0 -77 -36 -155t-103.5 -147.5t-165 -125.5t-220.5 -89l-9 39q91 25 161 68t120.5 95t82.5 110t46 114q-15 -13 -36 -28t-40 -26t-42.5 -17.5t-52.5 -6.5q-37 0 -74.5 11.5t-67.5 37t-49 66.5t-19 101q0 52 21.5 97.5t56.5 78.5t81 52t96 19q53 0 98.5 -21
t79.5 -60t53 -93t19 -120zM174 554q0 -84 41.5 -129t109.5 -45q41 0 72 14.5t54 37.5q2 14 3 27t1 26q0 129 -39 191.5t-105 62.5q-63 0 -100 -47.5t-37 -137.5z" />
    <glyph glyph-name="colon" unicode=":" horiz-adv-x="292" 
d="M144 360q-32 0 -54.5 23t-22.5 58q0 32 22.5 54.5t54.5 22.5q35 0 58 -22.5t23 -54.5q0 -35 -23 -58t-58 -23zM144 -13q-32 0 -54.5 23t-22.5 58q0 32 22.5 54.5t54.5 22.5q35 0 58 -22.5t23 -54.5q0 -35 -23 -58t-58 -23z" />
    <glyph glyph-name="semicolon" unicode=";" horiz-adv-x="316" 
d="M157 360q-32 0 -54.5 23t-22.5 58q0 32 22.5 54.5t54.5 22.5q35 0 58 -22.5t23 -54.5q0 -35 -23 -58t-58 -23zM140 145q21 0 40.5 -8.5t34.5 -24t24 -38t9 -49.5q0 -26 -12 -53.5t-34 -53.5t-53.5 -50t-71.5 -43l-14 29q51 29 74 64t23 63q0 37 -22.5 58t-69.5 35
q0 17 6.5 30t17 22t23 14t25.5 5z" />
    <glyph glyph-name="less" unicode="&#x3c;" horiz-adv-x="653" 
d="M52 293l527 225v-73l-432 -183l432 -183v-73l-527 226v61z" />
    <glyph glyph-name="equal" unicode="=" horiz-adv-x="653" 
d="M64 400h525v-66h-525v66zM64 179h525v-66h-525v66z" />
    <glyph glyph-name="greater" unicode="&#x3e;" horiz-adv-x="653" 
d="M601 232l-527 -226v73l432 183l-432 183v73l527 -225v-61z" />
    <glyph glyph-name="question" unicode="?" horiz-adv-x="519" 
d="M235 728q-48 0 -77.5 -22t-54.5 -63q-31 0 -47.5 16.5t-16.5 39.5q0 35 39.5 57.5t108.5 22.5q56 0 109 -18t94.5 -50t67 -76t25.5 -96q0 -53 -33 -85.5t-105 -46.5l-93 -18q-17 -3 -26.5 -6.5t-14.5 -9.5t-6.5 -16t-2.5 -27l-7 -97h-31l-17 151q-3 25 -1.5 41t11 26.5
t28 17t49.5 12.5l76 14q60 11 83.5 32t23.5 60q0 30 -16 55.5t-42 44.5t-58.5 30t-65.5 11zM183 -13q-32 0 -54.5 23t-22.5 58q0 32 22.5 54.5t54.5 22.5q35 0 58 -22.5t23 -54.5q0 -35 -23 -58t-58 -23z" />
    <glyph glyph-name="at" unicode="@" horiz-adv-x="884" 
d="M622 37q-36 -19 -90 -34.5t-129 -15.5q-69 0 -132.5 22t-112.5 63.5t-78.5 102t-29.5 138.5q0 93 38 177t103 148.5t152 102.5t186 38q57 0 114 -18.5t102 -54.5t73 -90t28 -126q0 -81 -26.5 -140t-71 -98t-102.5 -57.5t-121 -18.5q-61 0 -61 27q0 11 5.5 26t13.5 35
l17 44h-5q-46 -61 -91 -95.5t-94 -34.5q-39 0 -61.5 24.5t-22.5 66.5q0 35 15.5 74.5t41.5 79t60 75.5t70 63.5t72.5 44t67.5 16.5q33 0 67.5 -13.5t63.5 -25.5l-121 -317q-7 -17 -11.5 -27.5t-4.5 -15.5q0 -3 1.5 -4.5t7.5 -1.5q37 0 78.5 14t77 46t58.5 84t23 129
q0 53 -19.5 97.5t-55 77t-84 51t-106.5 18.5q-84 0 -156 -33t-124.5 -88.5t-82 -128.5t-29.5 -152q0 -60 18 -114.5t56 -95.5t95.5 -65.5t137.5 -24.5q48 0 92 12t72 26zM361 237q14 0 37 12.5t49.5 39.5t53.5 69t50 101l41 109q-8 21 -42 21t-73.5 -29t-73.5 -74t-56.5 -98
t-22.5 -101q0 -50 37 -50z" />
    <glyph glyph-name="A" unicode="A" horiz-adv-x="750" 
d="M-14 36l24 3q21 2 34.5 6t24 16t21 35t25.5 63l232 619h53l267 -694q6 -15 11 -23.5t11.5 -13t15 -6t22.5 -2.5l33 -3v-36h-290v36l48 3q28 1 34 9t-7 43l-67 178h-264l-40 -112q-13 -35 -19 -57.5t-4 -35t11.5 -18t27.5 -6.5l43 -4v-36h-247v36zM459 320l-115 310
l-112 -310h227z" />
    <glyph glyph-name="B" unicode="B" horiz-adv-x="699" 
d="M316 758q134 0 207 -42.5t73 -128.5q0 -37 -15.5 -66t-40 -50.5t-55 -36t-61.5 -23.5v-1q37 -5 77.5 -18t75 -35.5t57 -55t24.5 -74.5q1 -54 -20.5 -96.5t-62.5 -71.5t-98 -44t-126 -15h-298v36l38 3q20 1 31 4t16.5 10.5t7 20.5t1.5 36v538q0 22 -1.5 35.5t-7 21
t-16.5 10.5t-31 4l-38 3v36h263zM312 426q90 0 130.5 40t40.5 114q0 67 -41 102.5t-134 35.5q-36 0 -43.5 -4.5t-7.5 -18.5v-269h55zM257 111q0 -42 18 -56.5t63 -14.5q198 0 198 165q0 39 -11 71.5t-36.5 56t-69 37t-107.5 13.5h-55v-272z" />
    <glyph glyph-name="C" unicode="C" horiz-adv-x="767" 
d="M477 33q55 0 95.5 15.5t66.5 58.5l62 104h30l-42 -186q-45 -14 -103 -26t-140 -12q-86 0 -159.5 31.5t-127 85.5t-83.5 126t-30 153t31 153t85.5 126t129.5 85.5t164 31.5q82 0 136.5 -11.5t89.5 -23.5l33 -183h-29l-54 98q-26 44 -74 59t-105 15q-53 0 -103 -19t-89 -58
t-63 -99.5t-24 -143.5q0 -85 21.5 -155t61.5 -120t95.5 -77.5t124.5 -27.5z" />
    <glyph glyph-name="D" unicode="D" horiz-adv-x="861" 
d="M361 758q98 0 181.5 -25.5t144 -74t94.5 -117.5t34 -156t-35.5 -158t-96.5 -121.5t-144 -78t-177 -27.5h-309v36l38 3q20 1 31 4t16.5 10.5t7 20.5t1.5 36v538q0 22 -1.5 35.5t-7 21t-16.5 10.5t-31 4l-38 3v36h308zM361 40q66 0 125 17t104 54.5t71 98.5t26 149
q0 87 -20 154t-62 112.5t-107 69t-155 23.5q-29 0 -46 -1t-26 -3.5t-11.5 -7t-2.5 -11.5v-581q0 -22 3.5 -36t13 -22.5t26 -12t42.5 -3.5h19z" />
    <glyph glyph-name="E" unicode="E" horiz-adv-x="713" 
d="M53 36l38 3q20 1 31 4t16.5 10.5t7 20.5t1.5 36v538q0 22 -1.5 35.5t-7 21t-16.5 10.5t-31 4l-38 3v36h247l291 2l8 -184h-32l-15 47q-10 33 -23 52t-38 28t-65 11t-104 2h-45q-20 0 -20 -20v-286h126q21 0 36 1.5t26 8t18.5 21t13.5 40.5l9 40h32v-270h-32l-9 39
q-6 26 -13.5 40.5t-18.5 21.5t-26 8.5t-36 1.5h-126v-245q0 -27 5.5 -42t17 -22.5t29.5 -9t44 -1.5h19q71 0 113 3.5t67 13t39 26.5t29 44l41 72h32l-52 -201h-588v36z" />
    <glyph glyph-name="F" unicode="F" horiz-adv-x="652" 
d="M53 36l38 3q20 1 31 4t16.5 10.5t7 20.5t1.5 36v538q0 22 -1.5 35.5t-7 21t-16.5 10.5t-31 4l-38 3v36h267l290 2l9 -184h-32l-15 47q-11 33 -24 52t-37.5 28t-64.5 11t-104 2h-65q-20 0 -20 -20v-286h144q21 0 36 1.5t26 8t19 21t14 40.5l9 40h32v-270h-32l-9 39
q-6 26 -14 40.5t-19 21.5t-26 8.5t-36 1.5h-144v-252q0 -24 1.5 -38t8.5 -20.5t21 -8.5t38 -3l46 -1v-39h-319v36z" />
    <glyph glyph-name="G" unicode="G" horiz-adv-x="814" 
d="M459 -13q-93 0 -169.5 31.5t-130.5 85.5t-83.5 126t-29.5 153t31.5 153t87 126t130.5 85.5t161 31.5q81 0 136 -11.5t90 -23.5l34 -183h-30l-54 98q-26 44 -74 59t-105 15q-53 0 -103 -19t-89 -58t-63 -99.5t-24 -143.5q0 -86 21.5 -156t60.5 -120t92.5 -77t117.5 -27
q41 0 68 5t56 14v201q0 23 -1.5 36.5t-7 21t-17 10t-31.5 3.5l-57 3v36h317v-36l-36 -2q-20 -1 -31.5 -4t-17 -10.5t-7 -21t-1.5 -36.5v-147l5 -71q-53 -20 -111.5 -34t-134.5 -14z" />
    <glyph glyph-name="H" unicode="H" horiz-adv-x="927" 
d="M147 648q0 22 -1.5 35.5t-7 21t-16.5 10t-31 4.5l-38 3v36h299v-36l-38 -3q-20 -2 -31.5 -4.5t-17 -10t-7 -21t-1.5 -35.5v-238h412v238q0 22 -1.5 35.5t-7 21t-17 10t-31.5 4.5l-37 3v36h299v-36l-38 -3q-20 -2 -31.5 -4.5t-17 -10t-7 -21t-1.5 -35.5v-538
q0 -23 1.5 -36t7 -20.5t17 -10.5t31.5 -4l38 -3v-36h-299v36l37 3q20 1 31.5 4t17 10.5t7 20.5t1.5 36v250h-412v-250q0 -23 1.5 -36t7 -20.5t17 -10.5t31.5 -4l38 -3v-36h-299v36l38 3q20 1 31 4t16.5 10.5t7 20.5t1.5 36v538z" />
    <glyph glyph-name="I" unicode="I" horiz-adv-x="405" 
d="M147 648q0 22 -1.5 35.5t-7 21t-16.5 10t-31 4.5l-38 3v36h299v-36l-38 -3q-20 -2 -31.5 -4.5t-17 -10t-7 -21t-1.5 -35.5v-538q0 -23 1.5 -36t7 -20.5t17 -10.5t31.5 -4l38 -3v-36h-299v36l38 3q20 1 31 4t16.5 10.5t7 20.5t1.5 36v538z" />
    <glyph glyph-name="J" unicode="J" horiz-adv-x="391" 
d="M21 -72q35 32 59.5 56.5t39.5 52t22 64t7 92.5v455q0 22 -1.5 35.5t-7 21t-17 10.5t-31.5 4l-37 3v36h298v-36l-37 -3q-20 -1 -31.5 -4t-17 -10.5t-7 -21t-1.5 -35.5v-437q0 -38 -2.5 -66.5t-9.5 -52t-19.5 -42t-33.5 -36.5q-13 -12 -31.5 -26t-39 -29.5t-42 -31
t-40.5 -28.5z" />
    <glyph glyph-name="K" unicode="K" horiz-adv-x="811" 
d="M310 348l-53 -3v-235q0 -23 1.5 -36t7 -20.5t17 -10.5t31.5 -4l38 -3v-36h-299v36l38 3q20 1 31 4t16.5 10.5t7 20.5t1.5 36v538q0 22 -1.5 35.5t-7 21t-16.5 10t-31 4.5l-38 3v36h299v-36l-38 -3q-20 -2 -31.5 -4.5t-17 -10t-7 -21t-1.5 -35.5v-269q17 5 31.5 14.5
t35.5 32.5l174 185q31 33 46.5 53.5t15.5 32.5t-14.5 17t-43.5 7l-17 1v36h280v-36l-18 -2q-24 -3 -42 -6.5t-36.5 -14t-41 -30t-55.5 -52.5l-185 -189l305 -345q17 -20 37 -31t49 -13l36 -3v-36h-207z" />
    <glyph glyph-name="L" unicode="L" horiz-adv-x="655" 
d="M53 36l38 3q20 1 31 4t16.5 10.5t7 20.5t1.5 36v538q0 22 -1.5 35.5t-7 21t-16.5 10t-31 4.5l-38 3v36h299v-36l-38 -3q-20 -2 -31.5 -4.5t-17 -10t-7 -21t-1.5 -35.5v-531q0 -27 5.5 -42t17.5 -22.5t30.5 -9t45.5 -1.5q56 0 90.5 3.5t57 13t37 26.5t29.5 44l41 72h32
l-51 -201h-539v36z" />
    <glyph glyph-name="M" unicode="M" horiz-adv-x="1049" 
d="M207 638l-10 -413q-2 -65 -0.5 -102t8 -55.5t18.5 -23.5t33 -6l37 -2v-36h-259v36l37 2q21 1 33.5 6t20 24t11 56t6.5 102l19 420q1 25 -1 39t-8 21t-17 9t-28 4l-39 3v36h206l259 -577l242 577h208v-36l-40 -3q-17 -1 -28 -3.5t-17 -9.5t-7.5 -21t-0.5 -39l27 -536
q1 -23 2.5 -36t7 -20.5t16.5 -10.5t31 -4l38 -3v-36h-299v36l37 3q20 1 32 4t18 10.5t7 20.5t0 36l-26 527l-270 -646h-15z" />
    <glyph glyph-name="N" unicode="N" horiz-adv-x="924" 
d="M205 605v-379q0 -65 1 -101.5t7.5 -55t19.5 -23.5t37 -7l37 -3v-36h-257v36l37 3q24 2 37.5 7t20 23.5t7.5 55t1 101.5v375q0 64 -28.5 91t-94.5 30v36h176l528 -562v336q0 65 -1 101.5t-7.5 55t-19.5 23.5t-37 7l-37 3v36h256v-36l-37 -3q-24 -2 -37.5 -7t-19.5 -23.5
t-7.5 -55t-1.5 -101.5v-536h-27z" />
    <glyph glyph-name="O" unicode="O" horiz-adv-x="881" 
d="M441 779q81 0 152.5 -29.5t125.5 -82t85 -125t31 -159.5t-31.5 -159.5t-85.5 -125t-125.5 -82t-151.5 -29.5q-81 0 -153 29.5t-125.5 82t-84.5 125t-31 159.5q0 86 31.5 159t85.5 125.5t125.5 82t151.5 29.5zM428 735q-51 0 -97 -19.5t-80.5 -59.5t-55 -101t-20.5 -143
q0 -89 20 -159.5t56.5 -120t87.5 -75.5t114 -26q51 0 97.5 19.5t81 59.5t55 101t20.5 143q0 89 -20 159.5t-56.5 120t-88 75.5t-114.5 26z" />
    <glyph glyph-name="P" unicode="P" horiz-adv-x="655" 
d="M53 36l38 3q20 1 31 4t16.5 10.5t7 20.5t1.5 36v538q0 22 -1.5 35.5t-7 21t-16.5 10t-31 4.5l-38 3v36h269q57 0 112 -9t98.5 -32t70.5 -63.5t27 -103.5q0 -51 -22 -91.5t-61 -68t-91 -42.5t-112 -15h-37v38h32q81 0 126 42.5t45 123.5q0 90 -52 135.5t-149 45.5
q-33 0 -42.5 -4t-9.5 -20v-584q0 -24 1.5 -38t8.5 -20.5t21 -8.5t38 -3l46 -2v-38h-319v36z" />
    <glyph glyph-name="Q" unicode="Q" horiz-adv-x="881" 
d="M441 779q81 0 152.5 -29.5t125.5 -82t85 -125t31 -159.5q0 -78 -25.5 -145t-70.5 -118t-105.5 -84t-129.5 -44l-199 -74q23 5 40 6t37 1q53 0 111 -9.5t114 -20.5t106 -20.5t88 -9.5q49 0 75 17.5t46 59.5l31 -12q-29 -78 -71 -119.5t-101 -41.5q-28 0 -65.5 9.5
t-79.5 24t-85.5 31.5t-84.5 31.5t-77 24t-62 9.5q-28 0 -49 -10q-2 -38 -14.5 -55.5t-31.5 -17.5q-15 0 -25.5 11.5t-10.5 29.5q0 8 2.5 17.5t10.5 20t23 21t41 19.5l143 53q-77 4 -144.5 35.5t-117.5 83.5t-78.5 122.5t-28.5 153.5q0 86 31.5 159t85.5 125.5t125.5 82
t151.5 29.5zM428 735q-51 0 -97 -19.5t-80.5 -59.5t-55 -101t-20.5 -143q0 -89 20 -159.5t56.5 -120t87.5 -75.5t114 -26q51 0 97.5 19.5t81 59.5t55 101t20.5 143q0 89 -20 159.5t-56.5 120t-88 75.5t-114.5 26z" />
    <glyph glyph-name="R" unicode="R" horiz-adv-x="760" 
d="M324 758q70 0 127 -10t97 -32t61.5 -56.5t21.5 -83.5q0 -75 -50 -124t-137 -73q24 -31 52.5 -68t58 -74.5t58 -73t52.5 -63.5q14 -17 24.5 -28.5t20.5 -19t20 -11t24 -3.5l24 -2v-36h-185l-261 358h-75v-248q0 -24 1.5 -37.5t8.5 -20.5t21 -9t38 -3l37 -2v-38h-310v36
l38 3q20 1 31 4t16.5 10.5t7 20.5t1.5 36v538q0 22 -1.5 35.5t-7 21t-16.5 10t-31 4.5l-38 3v36h271zM257 399q12 -2 29.5 -2h28.5q57 0 95 13t60.5 35t31.5 50.5t9 58.5q0 31 -7.5 60.5t-29 52.5t-60 37t-99.5 14q-39 0 -48.5 -4t-9.5 -19v-296z" />
    <glyph glyph-name="S" unicode="S" horiz-adv-x="602" 
d="M287 -13q-56 0 -104.5 11.5t-91.5 29.5l-40 205l30 7l62 -120q26 -50 61 -68.5t86 -18.5q35 0 65 7.5t52.5 24t35.5 41.5t13 61q0 29 -11 53t-29.5 43.5t-43.5 35t-53 27.5l-69 30q-91 40 -132.5 92t-41.5 124q0 46 19 84t50.5 65.5t73.5 42.5t88 15q95 0 165 -26
l33 -173l-30 -7l-59 96q-22 35 -48 49.5t-65 14.5q-29 0 -54 -7t-43.5 -21.5t-29.5 -37t-11 -53.5q0 -54 31.5 -90t87.5 -59l69 -29q43 -18 80 -38t63 -46t41 -59.5t15 -79.5q0 -53 -23.5 -94.5t-61 -71t-85 -45t-95.5 -15.5z" />
    <glyph glyph-name="T" unicode="T" horiz-adv-x="746" 
d="M494 758q57 0 93 1t58.5 4.5t36.5 9.5t28 17h8l13 -214h-32l-15 47q-11 33 -24 52t-37 28t-63.5 11t-103.5 2h-28v-605q0 -24 1.5 -38t8 -21t20.5 -9t39 -3l44 -2v-38h-336v38l44 2q24 1 38 3t21 9t8.5 21t1.5 38v605h-28q-64 0 -103.5 -2t-63.5 -11t-37.5 -28t-23.5 -52
l-15 -47h-32l13 214h8q14 -11 28 -17t36.5 -9.5t58.5 -4.5t93 -1h242z" />
    <glyph glyph-name="U" unicode="U" horiz-adv-x="843" 
d="M423 -13q-71 0 -126.5 17t-93.5 54t-58 95.5t-20 141.5v353q0 22 -1.5 35.5t-7 21t-16.5 10t-31 4.5l-38 3v36h299v-36l-38 -3q-20 -2 -31.5 -4.5t-17 -10t-7 -21t-1.5 -35.5v-354q0 -70 15 -118.5t42.5 -78.5t66 -43.5t85.5 -13.5q49 0 89 13.5t68 44t43 79t15 117.5
v238q0 65 -1 102t-7 55.5t-19.5 23.5t-37.5 7l-37 2v36h261v-36l-37 -2q-24 -2 -37.5 -7t-20 -23.5t-7.5 -55.5t-1 -102v-237q0 -81 -20 -139.5t-57.5 -96t-91.5 -55t-123 -17.5z" />
    <glyph glyph-name="V" unicode="V" horiz-adv-x="747" 
d="M395 -20h-41l-273 694q-6 15 -11 23.5t-11 13t-14.5 6t-21.5 2.5l-34 3v36h290v-36l-48 -3q-14 -1 -22.5 -2.5t-12 -6.5t-2 -15t8.5 -28l201 -523l170 457q13 35 18.5 57t3.5 35t-12 18t-28 7l-43 4v36h247v-36l-23 -3q-21 -3 -34.5 -7t-23.5 -15.5t-20.5 -34.5
t-25.5 -63z" />
    <glyph glyph-name="W" unicode="W" horiz-adv-x="1127" 
d="M81 674q-6 15 -11 23.5t-11 13t-14.5 6t-21.5 2.5l-34 3v36h290v-36l-48 -3q-14 -1 -22.5 -2.5t-12 -6.5t-2 -15t8.5 -28l201 -523l139 375l-85 239h231v-36l-48 -3q-14 -1 -22.5 -2.5t-11.5 -6.5t-1.5 -15t7.5 -28l171 -523l170 457q13 35 18.5 57t3.5 35t-12 18t-28 7
l-43 4v36h247v-36l-23 -3q-21 -3 -34.5 -7t-23.5 -15.5t-20.5 -34.5t-25.5 -63l-238 -619h-40l-163 459l-177 -459h-41z" />
    <glyph glyph-name="X" unicode="X" horiz-adv-x="814" 
d="M-13 36l38 2q31 1 61.5 31t77.5 85l193 225l-237 313q-5 7 -10 11.5t-11 7.5t-14.5 5t-21.5 3l-33 3v36h306v-36l-46 -3q-28 -2 -36.5 -9.5t7.5 -28.5l163 -216l112 143q22 28 37.5 49t21.5 34.5t1 20.5t-25 8l-43 2v36h251v-36l-38 -2q-32 -2 -62 -31t-77 -85l-148 -178
l272 -360q10 -14 20.5 -19.5t36.5 -7.5l34 -3v-36h-307v36l46 3q28 2 36.5 9.5t-7.5 28.5l-200 264l-155 -191q-23 -28 -38.5 -48.5t-21 -34.5t-0.5 -21t25 -8l43 -2v-36h-251v36z" />
    <glyph glyph-name="Y" unicode="Y" horiz-adv-x="746" 
d="M203 38l44 2q24 1 38 3t21 9t8.5 21t1.5 38v221l-226 360q-9 15 -17.5 20t-34.5 7l-34 3v36h297v-36l-49 -3q-28 -2 -37.5 -8.5t4.5 -29.5l187 -298l141 218q41 63 42.5 90t-43.5 29l-38 2v36h249v-36l-32 -2q-17 -1 -29 -6.5t-24.5 -19t-28 -36.5t-39.5 -59l-178 -269
v-219q0 -24 1.5 -38t8.5 -21t21 -9t38 -3l44 -2v-38h-336v38z" />
    <glyph glyph-name="Z" unicode="Z" horiz-adv-x="747" 
d="M562 716h-186q-71 0 -113 -3.5t-66.5 -13t-38.5 -26.5t-29 -44l-41 -72h-32l61 233h9q14 -11 30.5 -17t41 -9.5t59 -4.5t85.5 -1h380l-555 -716h226q71 0 112.5 3.5t66.5 13t39 26.5t29 44l41 72h32l-52 -201h-654z" />
    <glyph glyph-name="bracketleft" unicode="[" horiz-adv-x="322" 
d="M181 -129q0 -24 3 -37.5t11.5 -20.5t23.5 -9.5t39 -3.5l37 -2v-36h-188v1064h188v-36l-37 -2q-24 -1 -39 -3.5t-23.5 -9.5t-11.5 -20.5t-3 -37.5v-846z" />
    <glyph glyph-name="backslash" unicode="\" horiz-adv-x="474" 
d="M375 -52l-346 858h72l343 -858h-69z" />
    <glyph glyph-name="bracketright" unicode="]" horiz-adv-x="322" 
d="M141 717q0 24 -3 37.5t-11.5 20.5t-23.5 9.5t-39 3.5l-37 2v36h188v-1064h-188v36l37 2q24 1 39 3.5t23.5 9.5t11.5 20.5t3 37.5v846z" />
    <glyph glyph-name="asciicircum" unicode="^" horiz-adv-x="653" 
d="M558 361h-68l-163 333l-163 -333h-68l206 415h50z" />
    <glyph glyph-name="underscore" unicode="_" horiz-adv-x="534" 
d="M0 -79h534v-63h-534v63z" />
    <glyph glyph-name="grave" unicode="`" 
d="M98 609l-214 175v4h124l106 -179h-16z" />
    <glyph glyph-name="a" unicode="a" horiz-adv-x="530" 
d="M200 -13q-29 0 -57 11t-49.5 29.5t-35 43.5t-13.5 54q0 28 11.5 49.5t33.5 38.5t55 32t76 30q16 6 33 13.5t33 16.5t29 19t20 20v29q0 26 -8.5 45.5t-22 32t-31 18.5t-35.5 6q-31 0 -51.5 -9.5t-32 -26.5t-16 -40t-4.5 -50q-6 -3 -14.5 -4t-16.5 -1h-2q-25 0 -40 13
t-15 36q0 21 23.5 40.5t67.5 38.5q36 15 76.5 31.5t79.5 16.5q30 0 55.5 -6.5t43.5 -22.5t28 -43.5t9 -69.5l-5 -286q-1 -26 3 -32t21 -6q15 0 30 1t28 3l4 -31l-31 -12q-8 -3 -19 -7.5t-23 -8.5t-24 -6.5t-21 -2.5q-25 0 -37 15.5t-19 49.5q-15 -13 -31 -25t-34 -23
q-34 -20 -72 -20zM253 42q26 0 49 14t28 36l5 209q-18 -12 -38 -23t-40 -21q-21 -11 -40.5 -22.5t-34 -25t-23.5 -30t-9 -37.5q0 -25 9.5 -44t24.5 -31.5t33.5 -18.5t35.5 -6z" />
    <glyph glyph-name="b" unicode="b" horiz-adv-x="602" 
d="M278 -13q-27 0 -63.5 8t-68.5 27l-56 -38h-4l1 91v606q0 11 -0.5 17.5t-2.5 11t-6 7.5t-12 7l-73 32v6l191 69v-385q19 14 41.5 28t43.5 25q15 8 34 13.5t40 5.5q49 0 89.5 -18.5t68.5 -52t43.5 -79t15.5 -99.5q0 -62 -24 -113.5t-63 -89t-90 -58.5t-105 -21zM184 121
q0 -46 28.5 -70.5t71.5 -24.5q34 0 64.5 13t54 38t37.5 62t14 85q0 50 -11.5 92.5t-33.5 73.5t-54.5 48.5t-73.5 17.5q-26 0 -52 -12t-45 -29v-294z" />
    <glyph glyph-name="c" unicode="c" horiz-adv-x="512" 
d="M280 -13q-54 0 -98 20t-75.5 55t-48.5 81t-17 99q0 62 22 113t60.5 87t89 56t107.5 20q27 0 53 -4t46.5 -12.5t33 -22.5t12.5 -34q0 -27 -16.5 -44t-47.5 -14q-20 38 -51 62t-77 24q-27 0 -52 -12t-44.5 -35t-31.5 -56t-12 -75q0 -45 14.5 -86t40 -71.5t60 -48.5
t74.5 -18q42 0 76 11t72 34l17 -28l-41 -32q-33 -26 -74 -47.5t-92 -21.5z" />
    <glyph glyph-name="d" unicode="d" horiz-adv-x="619" 
d="M594 38q-48 -8 -88.5 -21.5t-82.5 -30.5l-1 71q-20 -15 -42.5 -28.5t-42.5 -24.5q-31 -17 -74 -17q-47 0 -87.5 19t-70.5 52t-47 78.5t-17 99.5q0 64 26 116t67 89t92 57t101 20q24 0 48 -3t43 -8v174q0 22 -2.5 29t-18.5 14l-75 32v6l193 69v-730q0 -14 3.5 -21.5
t20.5 -7.5h55v-34zM318 46q29 -1 55.5 11.5t44.5 29.5v303q0 43 -32 67t-79 24q-26 0 -54.5 -11.5t-52 -35.5t-38.5 -62t-15 -90q0 -56 15 -99.5t39 -73.5t54.5 -46t62.5 -17z" />
    <glyph glyph-name="e" unicode="e" horiz-adv-x="532" 
d="M274 -13q-42 0 -83.5 17.5t-74 51t-53 83t-20.5 114.5q0 57 17.5 105.5t48.5 84t72.5 56t89.5 20.5q54 0 92.5 -17.5t65 -47t42 -67t22.5 -77.5h-353v-6q0 -54 15 -98t40.5 -74.5t60.5 -47.5t74 -17q25 0 47.5 7.5t40.5 18.5t31.5 22.5t22.5 20.5l23 -25l-21 -22
q-48 -51 -94.5 -76.5t-105.5 -25.5zM266 483q-31 0 -53 -12t-36.5 -31t-22.5 -43t-11 -48h236q-5 60 -31.5 97t-81.5 37z" />
    <glyph glyph-name="f" unicode="f" horiz-adv-x="383" 
d="M42 36l43 2q25 2 31 10t6 25v374h-97v25l97 31v3q0 78 24.5 135t62.5 97q32 34 73.5 55.5t73.5 21.5q22 0 37 -12t15 -34t-10.5 -38t-23.5 -19q-22 8 -54.5 14.5t-55.5 6.5q-14 0 -23 -5.5t-14 -19.5t-6.5 -38t-1.5 -61v-107h144v-55h-144v-372q0 -17 5.5 -25t30.5 -9
l73 -3v-38h-286v36z" />
    <glyph glyph-name="g" unicode="g" horiz-adv-x="550" 
d="M254 166q-27 0 -51 5t-45 13l-8 -82q-2 -18 6.5 -22t43.5 -4h111q110 0 159.5 -31t49.5 -97q0 -42 -22 -80.5t-59.5 -68t-87.5 -47.5t-106 -18q-53 0 -95.5 11t-71.5 29t-44.5 42t-15.5 50q0 20 9 39t28 30q27 17 50 30t54 29q-43 2 -69 21.5t-26 45.5q0 14 9 30t21 33
l47 68q-45 23 -69.5 61.5t-24.5 85.5q0 37 15.5 70t43 57.5t66 38.5t85.5 14q41 0 75 -10t60 -28l145 68v-74q0 -13 -7 -17.5t-26 -2.5l-91 9q24 -23 37 -52.5t13 -64.5q0 -36 -15.5 -69t-43.5 -58t-66 -39.5t-84 -14.5zM262 198q19 0 37.5 7t32 23t22 40t8.5 59
q0 30 -8 58.5t-23 51t-36 36t-48 13.5q-20 0 -38 -7.5t-31.5 -23t-22 -40t-8.5 -58.5q0 -30 8 -58.5t23 -51t36 -36t48 -13.5zM274 -225q33 0 63 8t52.5 23.5t35.5 37t13 48.5q0 50 -36 76.5t-118 26.5h-30q-34 0 -60.5 -10t-45 -25t-28 -33t-9.5 -34q0 -26 14 -47.5
t37 -37.5t52.5 -24.5t59.5 -8.5z" />
    <glyph glyph-name="h" unicode="h" horiz-adv-x="619" 
d="M201 73q0 -17 6 -25t31 -10l39 -2v-36h-253v36l43 2q25 2 31 10t6 25v608q0 22 -3 28.5t-19 14.5l-73 32v6l192 69v-394q20 15 43 30t41 26q15 9 38.5 17t52.5 8q33 0 59 -7.5t44 -27t27.5 -53.5t9.5 -86v-271q0 -17 6 -25t31 -10l43 -2v-36h-253v36l39 2q25 2 31 10
t6 25v232q0 74 -24 111t-82 37q-36 0 -65.5 -16t-46.5 -39v-325z" />
    <glyph glyph-name="i" unicode="i" horiz-adv-x="328" 
d="M220 73q0 -17 6 -25t31 -10l43 -2v-36h-257v36l43 2q25 2 31 10t6 25v302q0 11 -0.5 17.5t-2.5 11t-6 7.5t-12 7l-73 31v6l191 73v-455zM165 673q-29 0 -49 19.5t-20 49.5q0 29 20 49t49 20t49 -20t20 -49q0 -30 -20 -49.5t-49 -19.5z" />
    <glyph glyph-name="j" unicode="j" horiz-adv-x="295" 
d="M208 46q0 -38 -2.5 -66.5t-9 -52t-19 -42t-33.5 -36.5q-13 -12 -31.5 -26t-39 -29.5t-42 -31t-40.5 -28.5l-16 24q34 31 59.5 55t42.5 52.5t25.5 66.5t8.5 95v348q0 22 -2.5 29t-18.5 14l-74 32v6l192 72v-482zM148 673q-29 0 -49 19.5t-20 49.5q0 29 20 49t49 20t49 -20
t20 -49q0 -30 -20 -49.5t-49 -19.5z" />
    <glyph glyph-name="k" unicode="k" horiz-adv-x="605" 
d="M201 73q0 -17 6 -25t31 -10l43 -2v-36h-257v36l43 2q25 2 31 10t6 25v608q0 22 -3 28.5t-19 14.5l-73 32v6l192 69v-572q10 2 21 8t25 20l111 111q40 40 43.5 53.5t-36.5 14.5h-19v36h219v-36l-23 -1q-17 -1 -30.5 -4.5t-26 -10.5t-25 -17t-27.5 -24l-130 -117l196 -216
q10 -11 18 -18t16.5 -11t17.5 -6t23 -3l30 -2v-36h-170l-199 232l-34 2v-161z" />
    <glyph glyph-name="l" unicode="l" horiz-adv-x="312" 
d="M28 0v36l43 2q25 2 31 10t6 25v608q0 22 -3 28.5t-19 14.5l-73 32v6l192 69v-758q0 -17 6 -25t31 -10l43 -2v-36h-257z" />
    <glyph glyph-name="m" unicode="m" horiz-adv-x="933" 
d="M216 73q0 -17 6 -25t31 -10l39 -2v-36h-253v36l43 2q25 2 31 10t6 25v302q0 11 -0.5 17.5t-2.5 11t-6 7.5t-12 7l-73 31v6l191 73v-91q20 15 43 30t41 26q15 9 38.5 17t51.5 8q49 0 80 -18t44 -68q20 17 46.5 33t46.5 28q15 9 38.5 17t52.5 8q32 0 57 -7.5t41.5 -27
t25 -53.5t8.5 -86v-271q0 -17 6 -25t31 -10l43 -2v-36h-253v36l39 2q25 2 31 10t6 25v232q0 73 -20 110.5t-78 37.5q-35 0 -66.5 -17t-48.5 -41q3 -23 3 -51v-271q0 -17 6 -25t31 -10l39 -2v-36h-249v36l39 2q25 2 31 10t6 25v232q0 73 -20 110.5t-78 37.5q-35 0 -65.5 -16
t-46.5 -41v-323z" />
    <glyph glyph-name="n" unicode="n" horiz-adv-x="631" 
d="M216 73q0 -17 6 -25t31 -10l39 -2v-36h-253v36l43 2q25 2 31 10t6 25v302q0 22 -2.5 29t-18.5 14l-73 31v6l191 73v-91q20 15 43 30t41 26q15 9 39 17t53 8q33 0 58 -7.5t42.5 -27t26.5 -53.5t9 -86v-271q0 -17 6 -25t31 -10l43 -2v-36h-253v36l39 2q25 2 31 10t6 25v232
q0 74 -22 111t-81 37q-35 0 -65.5 -16t-46.5 -41v-323z" />
    <glyph glyph-name="o" unicode="o" horiz-adv-x="600" 
d="M302 519q58 0 105 -21t81 -56.5t52.5 -83t18.5 -99.5q0 -53 -19.5 -102.5t-54 -87t-82.5 -60t-105 -22.5q-58 0 -105.5 21t-81 57t-52 83t-18.5 100t19.5 102t54 86.5t82.5 60t105 22.5zM281 476q-27 0 -51.5 -10.5t-42.5 -33t-29 -57t-11 -82.5q0 -44 10.5 -90.5t32 -85
t54 -63.5t75.5 -25q27 0 51.5 11t42.5 33.5t29 57.5t11 83q0 43 -10.5 89.5t-32 84.5t-54 63t-75.5 25z" />
    <glyph glyph-name="p" unicode="p" horiz-adv-x="626" 
d="M312 -248h-280v36l43 2q25 2 30.5 10t5.5 25v550q0 11 -0.5 17.5t-2.5 11t-6 7.5t-12 7l-74 31v6l192 73v-82q19 14 41.5 28t42.5 25q15 8 34 13.5t41 5.5q49 0 89.5 -18.5t68.5 -52t43.5 -79t15.5 -99.5q0 -62 -24 -113.5t-63.5 -89t-90.5 -58.5t-105 -21
q-23 0 -47.5 3.5t-45.5 11.5v-175q0 -17 6 -25t30 -9l68 -3v-38zM208 117q0 -43 28.5 -67t71.5 -24q34 0 64.5 13t54 38t37.5 62t14 85q0 50 -11.5 92.5t-33.5 73.5t-54.5 48.5t-73.5 17.5q-26 0 -52.5 -12t-44.5 -29v-298z" />
    <glyph glyph-name="q" unicode="q" horiz-adv-x="603" 
d="M594 -248h-281v38l69 3q25 1 30.5 9t5.5 25v227q-19 -14 -40.5 -27t-40.5 -23q-31 -17 -74 -17q-47 0 -87.5 19t-70.5 52t-47 78.5t-17 99.5q0 64 26 116t67 89t92 57t101 20q34 0 69 -5.5t64 -16.5l55 30v-701q0 -17 6 -25t31 -10l42 -2v-36zM147 282q0 -56 15 -99.5
t39 -73.5t54.5 -46t62.5 -17q29 -1 55.5 11.5t44.5 29.5v303q0 44 -32 67.5t-79 23.5q-26 0 -54.5 -11.5t-52 -35.5t-38.5 -62t-15 -90z" />
    <glyph glyph-name="r" unicode="r" horiz-adv-x="430" 
d="M216 423q9 9 22 23t27 27q22 21 45 33t46 12q26 0 43.5 -14t17.5 -40t-15.5 -43.5t-32.5 -18.5q-21 11 -43.5 20t-37.5 11q-17 0 -37.5 -10t-34.5 -29v-318q0 -17 6 -25.5t31 -9.5l64 -2v-39h-278v36l43 2q25 2 31 10t6 25v302q0 11 -0.5 17.5t-2.5 11t-6 7.5t-12 7
l-73 31v6l191 73v-105z" />
    <glyph glyph-name="s" unicode="s" horiz-adv-x="445" 
d="M206 -13q-41 0 -78.5 8t-63.5 21l-12 148l34 6l23 -57q20 -49 48.5 -68t67.5 -19q35 0 60 21t25 64q0 56 -81 92l-53 23q-23 10 -44.5 24t-38 32.5t-26 42t-9.5 52.5q0 35 16 61.5t42.5 44t61 26.5t70.5 9q32 0 59.5 -5.5t52.5 -13.5l20 -131l-35 -6l-26 47
q-20 35 -39.5 52.5t-51.5 17.5q-17 0 -33 -5t-28.5 -14.5t-20 -23t-7.5 -29.5q0 -32 19.5 -52.5t53.5 -35.5l52 -23q33 -15 58 -29.5t41.5 -33t25 -41.5t8.5 -54q0 -38 -15.5 -66.5t-41.5 -47t-60.5 -28t-73.5 -9.5z" />
    <glyph glyph-name="t" unicode="t" horiz-adv-x="378" 
d="M219 -13q-50 0 -80.5 23.5t-30.5 86.5v350h-96v4l189 172h4v-121h142v-55h-142v-316q0 -42 14.5 -58.5t45.5 -16.5q17 0 35.5 8t44.5 25l19 -29q-23 -17 -43 -30t-32 -21q-20 -12 -36 -17t-34 -5z" />
    <glyph glyph-name="u" unicode="u" horiz-adv-x="601" 
d="M405 67q-20 -15 -41.5 -29.5t-38.5 -24.5q-17 -9 -41.5 -17.5t-51.5 -8.5q-34 0 -58.5 7t-40.5 26.5t-23.5 53t-7.5 86.5v251q0 17 -6 24.5t-32 9.5l-40 4v33l175 30v-318q0 -41 4 -68.5t14.5 -44.5t29 -24.5t47.5 -7.5q35 0 62 14.5t45 35.5v312q0 17 -6.5 24.5
t-32.5 9.5l-40 4v33l176 30v-411q0 -14 3.5 -21.5t20.5 -7.5h55v-34q-48 -8 -89 -21.5t-83 -30.5v81z" />
    <glyph glyph-name="v" unicode="v" horiz-adv-x="547" 
d="M73 438q-6 16 -16 20.5t-39 6.5l-15 1v36h255v-36l-16 -1q-39 -2 -52.5 -7.5t-6.5 -24.5l118 -312l99 271q8 23 9.5 37t-4 21.5t-17.5 10.5t-30 4l-16 1v36h205v-36l-12 -1q-17 -2 -28.5 -4t-20 -8.5t-15.5 -19.5t-16 -35l-160 -408h-44z" />
    <glyph glyph-name="w" unicode="w" horiz-adv-x="841" 
d="M74 438q-6 16 -16 20.5t-39 6.5l-15 1v36h257v-36l-16 -1q-39 -2 -52 -7.5t-7 -24.5l105 -319l111 249l-59 139h206v-36l-15 -1q-39 -2 -53 -7.5t-6 -24.5l135 -312l84 271q7 23 8 37t-4 21.5t-17 10.5t-30 4l-16 1v36h205v-36l-12 -1q-17 -2 -29 -4t-20.5 -8.5
t-15.5 -19.5t-15 -35l-145 -408h-41l-139 325l-141 -325h-44z" />
    <glyph glyph-name="x" unicode="x" horiz-adv-x="583" 
d="M11 36l16 1q19 1 32.5 4.5t24.5 10.5t22.5 19.5t28.5 31.5l118 137l-146 198q-12 17 -24 20.5t-36 5.5l-22 2v36h251v-36l-22 -1q-35 -2 -38.5 -8t10.5 -26l85 -115l53 76q17 24 27.5 38t11.5 21.5t-8 10t-30 3.5l-21 1v36h212v-36l-16 -1q-19 -1 -32 -4.5t-25 -10.5
t-23.5 -19.5t-27.5 -31.5l-96 -118l160 -217q12 -16 24 -20t36 -6l21 -2v-36h-251v36l23 1q35 2 38.5 8t-10.5 26l-100 136l-75 -97q-18 -23 -28 -37t-10.5 -21.5t8.5 -10.5t30 -4l22 -1v-36h-213v36z" />
    <glyph glyph-name="y" unicode="y" horiz-adv-x="565" 
d="M151 -267q-27 0 -41 17.5t-14 36.5q0 20 12 34q33 12 58.5 23t36.5 19t19.5 25t19.5 41l19 46l-187 463q-6 16 -16 20.5t-40 6.5l-14 1v36h257v-36l-16 -1q-38 -2 -52 -8.5t-5 -29.5l126 -323l102 288q8 23 10 37t-3 21.5t-17 10.5t-32 4l-16 1v36h207v-36l-12 -1
q-17 -2 -28 -3.5t-19.5 -8t-16 -19.5t-16.5 -36l-215 -540q-28 -69 -50.5 -97t-56.5 -28z" />
    <glyph glyph-name="z" unicode="z" horiz-adv-x="512" 
d="M331 463h-71q-44 0 -70.5 -1.5t-42.5 -8t-25.5 -19t-19.5 -34.5l-26 -55h-36l43 173h8q24 -12 52 -14t70 -2h247l-303 -463h99q39 0 64.5 1.5t42.5 7t28 16.5t22 30l39 72h36l-46 -166h-414z" />
    <glyph glyph-name="braceleft" unicode="{" horiz-adv-x="370" 
d="M86 291q24 -2 55.5 -16.5t57 -44t38.5 -76t0 -113.5l-14 -71q-15 -76 17.5 -116.5t103.5 -54.5l-8 -37q-44 5 -85.5 24t-71 50.5t-43.5 76.5t-4 103l16 93q8 46 0 76t-26.5 48.5t-46.5 27.5t-59 14v35q31 5 59 14t46.5 27.5t26.5 48t0 76.5l-16 93q-10 58 4 103
t43.5 76.5t71 50.5t85.5 24l8 -37q-71 -14 -103.5 -54.5t-17.5 -116.5l14 -71q13 -67 0 -113.5t-38.5 -76t-57 -44t-55.5 -16.5v-3z" />
    <glyph glyph-name="bar" unicode="|" horiz-adv-x="279" 
d="M107 826h64v-1064h-64v1064z" />
    <glyph glyph-name="braceright" unicode="}" horiz-adv-x="370" 
d="M284 294q-24 2 -55.5 16.5t-57 44t-38.5 76t0 113.5l14 71q15 76 -17.5 116.5t-103.5 54.5l8 37q44 -5 85.5 -24t71 -50.5t43.5 -76.5t4 -103l-16 -93q-8 -46 0 -76t26.5 -48.5t46.5 -27.5t59 -14v-35q-31 -5 -59 -14t-46.5 -27.5t-26.5 -48t0 -76.5l16 -93
q10 -58 -4 -103t-43.5 -76.5t-71 -50.5t-85.5 -24l-8 37q71 14 103.5 54.5t17.5 116.5l-14 71q-13 67 0 113.5t38.5 76t57 44t55.5 16.5v3z" />
    <glyph glyph-name="asciitilde" unicode="~" horiz-adv-x="653" 
d="M206 332q41 0 74 -13.5t62 -29.5t55 -29.5t53 -13.5q35 0 60 17.5t27 63.5h65q-5 -66 -47 -103.5t-106 -37.5q-36 0 -67 13.5t-60.5 29.5t-58 29.5t-58.5 13.5q-35 0 -60.5 -17.5t-27.5 -63.5h-64q5 66 47 103.5t106 37.5z" />
    <glyph glyph-name="uni00A0" unicode="&#xa0;" horiz-adv-x="268" 
 />
    <glyph glyph-name="exclamdown" unicode="&#xa1;" horiz-adv-x="284" 
d="M159 271q4 -69 8.5 -118t8.5 -87t8 -69t8 -64.5t7.5 -74t6.5 -97.5q0 -14 -20 -20.5t-44 -6.5t-44 6.5t-20 20.5q4 57 8 97.5t7.5 74t7.5 64.5t8 69t8 87t9 118h33zM140 517q35 0 58 -23t23 -58q0 -32 -23 -54.5t-58 -22.5q-32 0 -54.5 22.5t-22.5 54.5q0 35 22.5 58
t54.5 23z" />
    <glyph glyph-name="cent" unicode="&#xa2;" horiz-adv-x="531" 
d="M297 619v-103q7 1 14 1.5t15 0.5q27 0 53 -4t46.5 -12.5t33 -22.5t12.5 -34q0 -27 -16.5 -44t-47.5 -14q-19 34 -45.5 57t-64.5 28v-398q15 -3 31 -3q42 0 76 11t72 34l17 -28l-41 -32q-32 -25 -70 -45.5t-85 -22.5v-108h-41v109q-48 6 -86.5 28t-65.5 55.5t-42 77
t-15 92.5q0 52 16 96.5t44 79t66 57.5t83 34v110h41zM139 295q0 -35 8.5 -67t24 -59t37 -48t47.5 -34v383q-23 -5 -44.5 -18.5t-37.5 -36t-25.5 -53t-9.5 -67.5z" />
    <glyph glyph-name="sterling" unicode="&#xa3;" horiz-adv-x="638" 
d="M443 -20q-25 0 -60.5 9t-75 25t-78.5 37t-71 44q-14 -55 -34 -80.5t-46 -25.5q-15 0 -26.5 9t-11.5 28q0 22 18.5 40.5t63.5 48.5q25 17 45 34.5t33 41t20 54.5t7 76q0 7 -0.5 13.5t-1.5 13.5h-158v54h146q-9 24 -21 45.5t-22.5 42.5t-17.5 43t-7 46q0 40 21.5 76.5
t58 64t84.5 43.5t101 16q24 0 48.5 -4.5t45 -14t33 -24t12.5 -34.5q0 -26 -16.5 -42.5t-47.5 -13.5q-23 34 -55.5 57t-87.5 23q-48 0 -80 -27t-32 -79q0 -29 12 -54.5t28 -51t32 -52.5t25 -60h184v-54h-178q-1 -36 -13 -65t-30 -52.5t-40 -42.5t-43 -34q21 -12 57 -26.5
t75.5 -26.5t76.5 -20t59 -8q37 0 56 18t37 59l34 -13l-18 -43q-25 -60 -56.5 -87t-84.5 -27z" />
    <glyph glyph-name="yen" unicode="&#xa5;" horiz-adv-x="801" 
d="M143 232h200v94h-200v47h174l-200 319q-9 15 -17.5 20t-34.5 7l-34 3v36h286v-36l-49 -3q-29 -2 -38.5 -8.5t4.5 -29.5l185 -298l142 218q41 63 42.5 90t-43.5 29l-38 2v36h249v-36l-32 -2q-17 -1 -29.5 -6.5t-25 -19t-28 -36.5t-39.5 -59l-149 -226h184v-47h-212v-94
h212v-47h-212v-74q0 -25 1.5 -39.5t8 -21.5t20.5 -9t38 -2l45 -1v-38h-323v38l44 1q24 0 38 2t21 9t8.5 21.5t1.5 39.5v74h-200v47z" />
    <glyph glyph-name="brokenbar" unicode="&#xa6;" horiz-adv-x="279" 
d="M107 826h64v-421h-64v421zM107 183h64v-421h-64v421z" />
    <glyph glyph-name="section" unicode="&#xa7;" horiz-adv-x="571" 
d="M247 -155q45 0 76.5 32.5t31.5 96.5q0 54 -24 105t-72 102l-82 87q-29 30 -52.5 59.5t-40 60t-25.5 63t-9 69.5q0 59 26 107t68.5 81.5t98 52t115.5 18.5q29 0 56.5 -5t48.5 -15t34 -25.5t13 -36.5q0 -29 -20 -48t-58 -14q-16 45 -43.5 72.5t-72.5 27.5q-21 0 -40.5 -7.5
t-35 -21.5t-25 -36t-9.5 -50q0 -49 25.5 -92.5t74.5 -95.5l81 -87q36 -39 62.5 -71.5t44 -63t26 -61.5t8.5 -68q0 -57 -23.5 -107.5t-65 -88t-97.5 -59.5t-121 -22q-37 0 -69 7t-55.5 20.5t-37 32.5t-13.5 42q0 28 22 46.5t57 14.5q7 -23 17.5 -45t25 -39t34 -27.5
t45.5 -10.5zM417 15q0 -30 -9 -65.5t-25 -58.5q42 34 60.5 82t18.5 90q0 37 -11.5 70t-30.5 62.5t-43 57t-49 53.5l-82 87q-40 42 -69.5 90.5t-29.5 103.5q0 27 6.5 49.5t18.5 43.5q-33 -31 -47 -69t-14 -76q0 -54 27.5 -102.5t65.5 -88.5l81 -87q28 -31 52.5 -59t42 -57
t27.5 -59.5t10 -66.5z" />
    <glyph glyph-name="dieresis" unicode="&#xa8;" 
d="M-117 663q-24 0 -41.5 16.5t-17.5 42.5t17.5 43t41.5 17q25 0 42 -17t17 -43t-17 -42.5t-42 -16.5zM116 663q-24 0 -41 16.5t-17 42.5t17 43t41 17q26 0 43 -17t17 -43t-17 -42.5t-43 -16.5z" />
    <glyph glyph-name="copyright" unicode="&#xa9;" horiz-adv-x="892" 
d="M47 383q0 88 31.5 160.5t85.5 125t126.5 81.5t155.5 29t155.5 -29t126.5 -81.5t85.5 -125t31.5 -160.5t-31.5 -160.5t-85.5 -125t-126.5 -81.5t-155.5 -29t-155.5 29t-126.5 81.5t-85.5 125t-31.5 160.5zM105 383q0 -79 26 -143t72 -109.5t108.5 -70t134.5 -24.5
t134.5 24.5t108.5 70t72 109.5t26 143t-26 143t-72 109.5t-108.5 70t-134.5 24.5t-134.5 -24.5t-108.5 -70t-72 -109.5t-26 -143zM474 204q37 0 60 15t43 47l21 34h24l-28 -109q-25 -9 -55 -14.5t-72 -5.5q-55 0 -99.5 17.5t-76.5 48t-49.5 71.5t-17.5 87t18 87t51 71.5
t78.5 48.5t100.5 18q42 0 71 -5.5t53 -14.5l19 -106h-24l-18 32q-19 33 -44.5 47t-63.5 14q-28 0 -54.5 -9t-47.5 -29.5t-34 -53t-13 -80.5q0 -45 10.5 -83.5t30.5 -67t49.5 -44.5t67.5 -16z" />
    <glyph glyph-name="ordfeminine" unicode="&#xaa;" horiz-adv-x="471" 
d="M176 380q-24 0 -46 9t-39 24t-27.5 35t-10.5 43t9 40.5t27 31.5t44.5 26.5t62.5 25.5q26 10 52 23t38 30v17q0 47 -22 68t-52 21q-46 0 -63 -28.5t-17 -76.5q-5 -3 -12 -4t-14 -1h-4q-21 0 -34 10.5t-13 30.5q0 18 19.5 34.5t54.5 32.5q31 13 64.5 26t64.5 13
q25 0 46 -5.5t36 -19t23.5 -36t7.5 -55.5l-3 -230q-1 -19 2.5 -24t17.5 -5q10 0 22 0.5t20 2.5l3 -27l-26 -11q-17 -7 -37 -13t-35 -6q-21 0 -31.5 13.5t-15.5 41.5q-11 -11 -22.5 -20.5t-24.5 -17.5q-16 -11 -32 -15t-33 -4zM223 427q20 0 37.5 10t21.5 29l3 167
q-14 -10 -29.5 -18.5t-29.5 -16.5q-34 -19 -57.5 -38.5t-23.5 -51.5q0 -19 7 -34t18.5 -25.5t25 -16t27.5 -5.5z" />
    <glyph glyph-name="guillemotleft" unicode="&#xab;" horiz-adv-x="545" 
d="M254 484l27 -17l-122 -216l122 -216l-27 -17l-209 233zM464 484l27 -17l-122 -216l122 -216l-27 -17l-209 233z" />
    <glyph glyph-name="uni00AD" unicode="&#xad;" horiz-adv-x="426" 
d="M66 296h294v-67h-294v67z" />
    <glyph glyph-name="registered" unicode="&#xae;" horiz-adv-x="892" 
d="M47 383q0 88 31.5 160.5t85.5 125t126.5 81.5t155.5 29t155.5 -29t126.5 -81.5t85.5 -125t31.5 -160.5t-31.5 -160.5t-85.5 -125t-126.5 -81.5t-155.5 -29t-155.5 29t-126.5 81.5t-85.5 125t-31.5 160.5zM105 383q0 -79 26 -143t72 -109.5t108.5 -70t134.5 -24.5
t134.5 24.5t108.5 70t72 109.5t26 143t-26 143t-72 109.5t-108.5 70t-134.5 24.5t-134.5 -24.5t-108.5 -70t-72 -109.5t-26 -143zM424 610q81 0 130.5 -23.5t49.5 -78.5q0 -43 -26 -70t-72 -39q2 -3 11.5 -15t22.5 -29.5t28 -36.5t27.5 -36.5t22 -29.5t11.5 -15
q15 -19 22.5 -24t20.5 -6l16 -1v-26h-123l-143 203h-36v-143q0 -18 4.5 -24.5t23.5 -7.5l35 -2v-26h-200v26l26 2q18 2 23 8t5 24v310q0 18 -5 24t-23 8l-26 2v26h175zM423 413q54 0 73 24t19 59q0 38 -21.5 60.5t-71.5 22.5q-26 0 -31 -2t-5 -11v-153h37z" />
    <glyph glyph-name="macron" unicode="&#xaf;" 
d="M-148 735h296v-65h-296v65z" />
    <glyph glyph-name="degree" unicode="&#xb0;" horiz-adv-x="430" 
d="M215 441q-36 0 -67 13t-54 36t-36 54t-13 66t13 66t36 54t54 36t67 13t67 -13t54 -36t36 -54t13 -66t-13 -66t-36 -54t-54 -36t-67 -13zM215 496q22 0 41.5 8t34.5 23t23.5 36t8.5 47q0 25 -8.5 46t-23.5 36t-34.5 23.5t-41.5 8.5t-41.5 -8.5t-34.5 -23.5t-23.5 -36
t-8.5 -46q0 -26 8.5 -47t23.5 -36t34.5 -23t41.5 -8z" />
    <glyph glyph-name="plusminus" unicode="&#xb1;" horiz-adv-x="653" 
d="M291 287h-213v67h213v162h71v-162h213v-67h-213v-167h-71v167zM78 66h497v-66h-497v66z" />
    <glyph glyph-name="uni00B2" unicode="&#xb2;" horiz-adv-x="349" 
d="M22 401v14q54 53 92 95.5t61.5 77t34 63t10.5 52.5q0 29 -16.5 52t-56.5 23q-30 0 -48.5 -13.5t-40.5 -41.5l-21 12q27 43 57.5 68.5t83.5 25.5q61 0 90.5 -30.5t29.5 -74.5q0 -24 -10.5 -47.5t-27 -45.5t-36.5 -43t-40 -41l-77 -79h103q21 0 34.5 2t22.5 8t15.5 16
t13.5 27l22 -3l-29 -117h-267z" />
    <glyph glyph-name="uni00B3" unicode="&#xb3;" horiz-adv-x="345" 
d="M134 394q-47 0 -77.5 19t-30.5 49q0 20 17.5 33t43.5 8q8 -35 26 -57.5t50 -22.5q12 0 24.5 4.5t23.5 14.5t18 26.5t7 39.5q0 25 -7.5 45t-20 33.5t-28 20.5t-30.5 7q-14 0 -23 -2.5t-18 -7.5l-7 24l28 11q38 14 59.5 37.5t21.5 51.5q0 21 -15.5 36t-44.5 15
q-25 0 -43 -13t-39 -45l-21 13q29 50 59.5 72.5t77.5 22.5q45 0 72.5 -20.5t27.5 -53.5q0 -29 -19.5 -48.5t-54.5 -33.5v-1q48 -16 73 -47.5t25 -70.5q0 -36 -15.5 -65.5t-40 -50.5t-56 -32.5t-63.5 -11.5z" />
    <glyph glyph-name="acute" unicode="&#xb4;" 
d="M-9 788h124v-4l-214 -175h-16z" />
    <glyph glyph-name="paragraph" unicode="&#xb6;" horiz-adv-x="577" 
d="M216 -193q-38 0 -58 16t-20 44q0 23 15.5 39t40.5 14q26 -23 49.5 -35.5t54.5 -12.5q32 0 49.5 30t17.5 105v296q-25 -8 -47.5 -12.5t-48.5 -4.5q-54 0 -97 16t-73.5 45.5t-46.5 70t-16 90.5q0 53 21.5 98.5t61.5 79.5t98 53t131 19h177v-36l-43 -2q-25 -2 -30.5 -10
t-5.5 -25v-582q0 -28 -2 -59t-9.5 -61.5t-22.5 -58.5t-40 -51q-32 -29 -72 -47.5t-84 -18.5z" />
    <glyph glyph-name="periodcentered" unicode="&#xb7;" horiz-adv-x="289" 
d="M143 183q-32 0 -54.5 23t-22.5 58q0 32 22.5 54.5t54.5 22.5q35 0 58 -22.5t23 -54.5q0 -35 -23 -58t-58 -23z" />
    <glyph glyph-name="cedilla" unicode="&#xb8;" 
d="M-33 -265q-15 0 -30 2.5t-27.5 8.5t-20 15t-7.5 22q0 14 12.5 25.5t38.5 6.5q0 -26 18.5 -38.5t41.5 -12.5q18 0 29.5 8.5t11.5 21.5q0 21 -34 42t-84 43l118 126h37l-75 -81q44 -22 66 -43t22 -53q0 -16 -8 -32.5t-23.5 -30t-37 -22t-48.5 -8.5z" />
    <glyph glyph-name="uni00B9" unicode="&#xb9;" horiz-adv-x="247" 
d="M96 752h-69v23q54 5 80.5 17.5t41.5 35.5h24v-386q0 -7 2 -10t12 -4l26 -2v-25h-171v26l39 2q10 1 12.5 3.5t2.5 9.5v310z" />
    <glyph glyph-name="ordmasculine" unicode="&#xba;" horiz-adv-x="504" 
d="M253 810q48 0 86.5 -17t66 -45.5t42.5 -67t15 -80.5q0 -45 -16.5 -85t-45 -70t-67.5 -47.5t-84 -17.5q-47 0 -85.5 17t-66 46t-42.5 67t-15 81q0 44 16 84t44.5 70t67.5 47.5t84 17.5zM236 774q-41 0 -70.5 -33.5t-29.5 -109.5q0 -36 8 -74t24 -69.5t40.5 -51.5t58.5 -20
q20 0 38.5 8t32 25.5t21.5 44.5t8 65q0 36 -8 74.5t-24 69.5t-40.5 51t-58.5 20z" />
    <glyph glyph-name="guillemotright" unicode="&#xbb;" horiz-adv-x="545" 
d="M290 251l-209 -233l-27 17l122 216l-122 216l27 17zM500 251l-209 -233l-27 17l122 216l-122 216l27 17z" />
    <glyph glyph-name="onequarter" unicode="&#xbc;" horiz-adv-x="803" 
d="M96 692h-69v23q54 5 80.5 17.5t41.5 35.5h24v-386q0 -7 2 -10t12 -4l26 -2v-25h-171v26l39 2q10 1 12.5 3.5t2.5 9.5v310zM596 758h72l-566 -758h-72zM627 111h-188v21l198 285h68v-259h75v-47h-75v-111h-78v111zM627 158v188l-125 -188h125z" />
    <glyph glyph-name="onehalf" unicode="&#xbd;" horiz-adv-x="796" 
d="M96 692h-69v23q54 5 80.5 17.5t41.5 35.5h24v-386q0 -7 2 -10t12 -4l26 -2v-25h-171v26l39 2q10 1 12.5 3.5t2.5 9.5v310zM596 758h72l-566 -758h-72zM469 0v14q54 53 92 95.5t61.5 77t34 63t10.5 52.5q0 29 -16.5 52t-56.5 23q-30 0 -48.5 -13.5t-40.5 -41.5l-21 12
q27 43 57.5 68.5t83.5 25.5q61 0 90.5 -30.5t29.5 -74.5q0 -24 -10.5 -47.5t-27 -45.5t-36.5 -43t-40 -41l-77 -79h103q21 0 34.5 2t22.5 8t15.5 16t13.5 27l22 -3l-29 -117h-267z" />
    <glyph glyph-name="threequarters" unicode="&#xbe;" horiz-adv-x="901" 
d="M134 334q-47 0 -77.5 19t-30.5 49q0 20 17.5 33t43.5 8q8 -35 26 -57.5t50 -22.5q12 0 24.5 4.5t23.5 14.5t18 26.5t7 39.5q0 25 -7.5 45t-20 33.5t-28 20.5t-30.5 7q-14 0 -23 -2.5t-18 -7.5l-7 24l28 11q38 14 59.5 37.5t21.5 51.5q0 21 -15.5 36t-44.5 15
q-25 0 -43 -13t-39 -45l-21 13q29 50 59.5 72.5t77.5 22.5q45 0 72.5 -20.5t27.5 -53.5q0 -29 -19.5 -48.5t-54.5 -33.5v-1q48 -16 73 -47.5t25 -70.5q0 -36 -15.5 -65.5t-40 -50.5t-56 -32.5t-63.5 -11.5zM694 758h72l-566 -758h-72zM725 111h-188v21l198 285h68v-259h75
v-47h-75v-111h-78v111zM725 158v188l-125 -188h125z" />
    <glyph glyph-name="questiondown" unicode="&#xbf;" horiz-adv-x="485" 
d="M253 -216q48 0 78 25t54 61q32 -1 49 -19t15 -43q-2 -18 -15 -32t-34 -23t-47 -14t-52 -5q-56 0 -105 18t-86 50t-58 76t-21 95q0 53 33.5 86t105.5 47l84 17q16 3 25.5 6.5t14.5 9.5t7 16t3 27l6 89h31l17 -143q3 -25 1.5 -41t-11 -26.5t-28 -17t-49.5 -12.5l-67 -14
q-59 -12 -82.5 -32t-23.5 -60q0 -29 12 -55t33 -45t49 -30t61 -11zM322 517q32 0 54.5 -23t22.5 -58q0 -32 -22.5 -54.5t-54.5 -22.5q-35 0 -58 22.5t-23 54.5q0 35 23 58t58 23z" />
    <glyph glyph-name="Agrave" unicode="&#xc0;" horiz-adv-x="750" 
d="M-14 36l24 3q21 2 34.5 6t24 16t21 35t25.5 63l232 619h53l267 -694q6 -15 11 -23.5t11.5 -13t15 -6t22.5 -2.5l33 -3v-36h-290v36l48 3q28 1 34 9t-7 43l-67 178h-264l-40 -112q-13 -35 -19 -57.5t-4 -35t11.5 -18t27.5 -6.5l43 -4v-36h-247v36zM459 320l-115 310
l-112 -310h227zM325 972l102 -129h-21l-243 126v3h162z" />
    <glyph glyph-name="Aacute" unicode="&#xc1;" horiz-adv-x="750" 
d="M-14 36l24 3q21 2 34.5 6t24 16t21 35t25.5 63l232 619h53l267 -694q6 -15 11 -23.5t11.5 -13t15 -6t22.5 -2.5l33 -3v-36h-290v36l48 3q28 1 34 9t-7 43l-67 178h-264l-40 -112q-13 -35 -19 -57.5t-4 -35t11.5 -18t27.5 -6.5l43 -4v-36h-247v36zM459 320l-115 310
l-112 -310h227zM602 969l-243 -126h-21l102 129h162v-3z" />
    <glyph glyph-name="Acircumflex" unicode="&#xc2;" horiz-adv-x="750" 
d="M-14 36l24 3q21 2 34.5 6t24 16t21 35t25.5 63l232 619h53l267 -694q6 -15 11 -23.5t11.5 -13t15 -6t22.5 -2.5l33 -3v-36h-290v36l48 3q28 1 34 9t-7 43l-67 178h-264l-40 -112q-13 -35 -19 -57.5t-4 -35t11.5 -18t27.5 -6.5l43 -4v-36h-247v36zM459 320l-115 310
l-112 -310h227zM381 986l165 -153h-23l-150 66l-150 -66h-23l165 153h16z" />
    <glyph glyph-name="Atilde" unicode="&#xc3;" horiz-adv-x="750" 
d="M-14 36l24 3q21 2 34.5 6t24 16t21 35t25.5 63l232 619h53l267 -694q6 -15 11 -23.5t11.5 -13t15 -6t22.5 -2.5l33 -3v-36h-290v36l48 3q28 1 34 9t-7 43l-67 178h-264l-40 -112q-13 -35 -19 -57.5t-4 -35t11.5 -18t27.5 -6.5l43 -4v-36h-247v36zM459 320l-115 310
l-112 -310h227zM203 833q0 23 5.5 48t17.5 46t30 34.5t43 13.5q21 0 43.5 -10t45 -21.5t42.5 -21.5t37 -10q27 0 40 14t15 46h21q0 -41 -8 -67t-20.5 -42t-28 -22t-31.5 -6q-25 0 -48 10t-44.5 21.5t-42 21.5t-40.5 10q-24 0 -39 -17t-17 -48h-21z" />
    <glyph glyph-name="Adieresis" unicode="&#xc4;" horiz-adv-x="750" 
d="M-14 36l24 3q21 2 34.5 6t24 16t21 35t25.5 63l232 619h53l267 -694q6 -15 11 -23.5t11.5 -13t15 -6t22.5 -2.5l33 -3v-36h-290v36l48 3q28 1 34 9t-7 43l-67 178h-264l-40 -112q-13 -35 -19 -57.5t-4 -35t11.5 -18t27.5 -6.5l43 -4v-36h-247v36zM459 320l-115 310
l-112 -310h227zM247 845q-26 0 -43.5 17.5t-17.5 43.5q0 28 17.5 45.5t43.5 17.5t43.5 -17.5t17.5 -45.5q0 -26 -17.5 -43.5t-43.5 -17.5zM499 845q-26 0 -43.5 17.5t-17.5 43.5q0 28 17.5 45.5t43.5 17.5t43.5 -17.5t17.5 -45.5q0 -26 -17.5 -43.5t-43.5 -17.5z" />
    <glyph glyph-name="Aring" unicode="&#xc5;" horiz-adv-x="750" 
d="M-14 36l24 3q21 2 34.5 6t24 16t21 35t25.5 63l232 619h53l267 -694q6 -15 11 -23.5t11.5 -13t15 -6t22.5 -2.5l33 -3v-36h-290v36l48 3q28 1 34 9t-7 43l-67 178h-264l-40 -112q-13 -35 -19 -57.5t-4 -35t11.5 -18t27.5 -6.5l43 -4v-36h-247v36zM459 320l-115 310
l-112 -310h227zM249 963q0 25 9.5 46.5t26.5 38t39 26t48 9.5t49 -9.5t40 -26t26.5 -38t9.5 -46.5t-9.5 -46.5t-26.5 -37.5t-40 -25t-49 -9t-48 9t-39 25t-26.5 37.5t-9.5 46.5zM442 963q0 32 -18.5 51t-51.5 19q-32 0 -49.5 -19t-17.5 -51t17.5 -51t49.5 -19q33 0 51.5 19
t18.5 51z" />
    <glyph glyph-name="AE" unicode="&#xc6;" horiz-adv-x="1095" 
d="M-21 36l23 3q22 3 37.5 8.5t30 18t31 35t40.5 58.5l388 599h153l291 2l8 -184h-32l-15 47q-11 33 -24 52t-37.5 28t-64.5 11t-104 2h-45q-20 0 -20 -20v-286h125q21 0 36 1.5t26 8t18.5 21t13.5 40.5l9 40h33v-270h-33l-9 39q-6 26 -13.5 40.5t-18.5 21.5t-26 8.5
t-36 1.5h-125v-245q0 -27 5.5 -42t17 -22.5t29.5 -9t44 -1.5h19q71 0 113 3.5t66.5 13t38.5 26.5t29 44l41 72h32l-51 -201h-588v36l38 3q20 1 31 4t16.5 10.5t7 20.5t1.5 36v159h-255l-73 -112q-42 -64 -47 -89t31 -28l43 -4v-36h-249v36zM529 321v342l-222 -342h222z" />
    <glyph glyph-name="Ccedilla" unicode="&#xc7;" horiz-adv-x="767" 
d="M477 33q55 0 95.5 15.5t66.5 58.5l62 104h30l-42 -186q-45 -14 -103 -26t-140 -12q-86 0 -159.5 31.5t-127 85.5t-83.5 126t-30 153t31 153t85.5 126t129.5 85.5t164 31.5q82 0 136.5 -11.5t89.5 -23.5l33 -183h-29l-54 98q-26 44 -74 59t-105 15q-53 0 -103 -19t-89 -58
t-63 -99.5t-24 -143.5q0 -85 21.5 -155t61.5 -120t95.5 -77.5t124.5 -27.5zM378 -266q-15 0 -30 3t-27.5 9t-20 15t-7.5 21q0 14 12.5 25.5t38.5 6.5q0 -26 18.5 -38.5t41.5 -12.5q18 0 29.5 9t11.5 22q0 20 -34 41t-84 43l118 126h37l-75 -81q44 -22 66 -43t22 -53
q0 -16 -8 -32.5t-23.5 -30t-37 -22t-48.5 -8.5z" />
    <glyph glyph-name="Egrave" unicode="&#xc8;" horiz-adv-x="713" 
d="M53 36l38 3q20 1 31 4t16.5 10.5t7 20.5t1.5 36v538q0 22 -1.5 35.5t-7 21t-16.5 10.5t-31 4l-38 3v36h247l291 2l8 -184h-32l-15 47q-10 33 -23 52t-38 28t-65 11t-104 2h-45q-20 0 -20 -20v-286h126q21 0 36 1.5t26 8t18.5 21t13.5 40.5l9 40h32v-270h-32l-9 39
q-6 26 -13.5 40.5t-18.5 21.5t-26 8.5t-36 1.5h-126v-245q0 -27 5.5 -42t17 -22.5t29.5 -9t44 -1.5h19q71 0 113 3.5t67 13t39 26.5t29 44l41 72h32l-52 -201h-588v36zM323 972l102 -129h-21l-243 126v3h162z" />
    <glyph glyph-name="Eacute" unicode="&#xc9;" horiz-adv-x="713" 
d="M53 36l38 3q20 1 31 4t16.5 10.5t7 20.5t1.5 36v538q0 22 -1.5 35.5t-7 21t-16.5 10.5t-31 4l-38 3v36h247l291 2l8 -184h-32l-15 47q-10 33 -23 52t-38 28t-65 11t-104 2h-45q-20 0 -20 -20v-286h126q21 0 36 1.5t26 8t18.5 21t13.5 40.5l9 40h32v-270h-32l-9 39
q-6 26 -13.5 40.5t-18.5 21.5t-26 8.5t-36 1.5h-126v-245q0 -27 5.5 -42t17 -22.5t29.5 -9t44 -1.5h19q71 0 113 3.5t67 13t39 26.5t29 44l41 72h32l-52 -201h-588v36zM600 969l-243 -126h-21l102 129h162v-3z" />
    <glyph glyph-name="Ecircumflex" unicode="&#xca;" horiz-adv-x="713" 
d="M53 36l38 3q20 1 31 4t16.5 10.5t7 20.5t1.5 36v538q0 22 -1.5 35.5t-7 21t-16.5 10.5t-31 4l-38 3v36h247l291 2l8 -184h-32l-15 47q-10 33 -23 52t-38 28t-65 11t-104 2h-45q-20 0 -20 -20v-286h126q21 0 36 1.5t26 8t18.5 21t13.5 40.5l9 40h32v-270h-32l-9 39
q-6 26 -13.5 40.5t-18.5 21.5t-26 8.5t-36 1.5h-126v-245q0 -27 5.5 -42t17 -22.5t29.5 -9t44 -1.5h19q71 0 113 3.5t67 13t39 26.5t29 44l41 72h32l-52 -201h-588v36zM379 986l165 -153h-23l-150 66l-150 -66h-23l165 153h16z" />
    <glyph glyph-name="Edieresis" unicode="&#xcb;" horiz-adv-x="713" 
d="M53 36l38 3q20 1 31 4t16.5 10.5t7 20.5t1.5 36v538q0 22 -1.5 35.5t-7 21t-16.5 10.5t-31 4l-38 3v36h247l291 2l8 -184h-32l-15 47q-10 33 -23 52t-38 28t-65 11t-104 2h-45q-20 0 -20 -20v-286h126q21 0 36 1.5t26 8t18.5 21t13.5 40.5l9 40h32v-270h-32l-9 39
q-6 26 -13.5 40.5t-18.5 21.5t-26 8.5t-36 1.5h-126v-245q0 -27 5.5 -42t17 -22.5t29.5 -9t44 -1.5h19q71 0 113 3.5t67 13t39 26.5t29 44l41 72h32l-52 -201h-588v36zM245 845q-26 0 -43.5 17.5t-17.5 43.5q0 28 17.5 45.5t43.5 17.5t43.5 -17.5t17.5 -45.5
q0 -26 -17.5 -43.5t-43.5 -17.5zM497 845q-26 0 -43.5 17.5t-17.5 43.5q0 28 17.5 45.5t43.5 17.5t43.5 -17.5t17.5 -45.5q0 -26 -17.5 -43.5t-43.5 -17.5z" />
    <glyph glyph-name="Igrave" unicode="&#xcc;" horiz-adv-x="405" 
d="M147 648q0 22 -1.5 35.5t-7 21t-16.5 10t-31 4.5l-38 3v36h299v-36l-38 -3q-20 -2 -31.5 -4.5t-17 -10t-7 -21t-1.5 -35.5v-538q0 -23 1.5 -36t7 -20.5t17 -10.5t31.5 -4l38 -3v-36h-299v36l38 3q20 1 31 4t16.5 10.5t7 20.5t1.5 36v538zM154 972l102 -129h-21l-243 126
v3h162z" />
    <glyph glyph-name="Iacute" unicode="&#xcd;" horiz-adv-x="405" 
d="M147 648q0 22 -1.5 35.5t-7 21t-16.5 10t-31 4.5l-38 3v36h299v-36l-38 -3q-20 -2 -31.5 -4.5t-17 -10t-7 -21t-1.5 -35.5v-538q0 -23 1.5 -36t7 -20.5t17 -10.5t31.5 -4l38 -3v-36h-299v36l38 3q20 1 31 4t16.5 10.5t7 20.5t1.5 36v538zM431 969l-243 -126h-21l102 129
h162v-3z" />
    <glyph glyph-name="Icircumflex" unicode="&#xce;" horiz-adv-x="405" 
d="M147 648q0 22 -1.5 35.5t-7 21t-16.5 10t-31 4.5l-38 3v36h299v-36l-38 -3q-20 -2 -31.5 -4.5t-17 -10t-7 -21t-1.5 -35.5v-538q0 -23 1.5 -36t7 -20.5t17 -10.5t31.5 -4l38 -3v-36h-299v36l38 3q20 1 31 4t16.5 10.5t7 20.5t1.5 36v538zM210 986l165 -153h-23l-150 66
l-150 -66h-23l165 153h16z" />
    <glyph glyph-name="Idieresis" unicode="&#xcf;" horiz-adv-x="405" 
d="M147 648q0 22 -1.5 35.5t-7 21t-16.5 10t-31 4.5l-38 3v36h299v-36l-38 -3q-20 -2 -31.5 -4.5t-17 -10t-7 -21t-1.5 -35.5v-538q0 -23 1.5 -36t7 -20.5t17 -10.5t31.5 -4l38 -3v-36h-299v36l38 3q20 1 31 4t16.5 10.5t7 20.5t1.5 36v538zM76 845q-26 0 -43.5 17.5
t-17.5 43.5q0 28 17.5 45.5t43.5 17.5t43.5 -17.5t17.5 -45.5q0 -26 -17.5 -43.5t-43.5 -17.5zM328 845q-26 0 -43.5 17.5t-17.5 43.5q0 28 17.5 45.5t43.5 17.5t43.5 -17.5t17.5 -45.5q0 -26 -17.5 -43.5t-43.5 -17.5z" />
    <glyph glyph-name="Eth" unicode="&#xd0;" horiz-adv-x="871" 
d="M371 758q98 0 181.5 -25.5t144 -74t94.5 -117.5t34 -156t-35.5 -158t-96.5 -121.5t-144 -78t-177 -27.5h-309v36l38 3q20 1 31 4t16.5 10.5t7 20.5t1.5 36v538q0 22 -1.5 35.5t-7 21t-16.5 10.5t-31 4l-38 3v36h308zM371 40q66 0 125 17t104 54.5t71 98.5t26 149
q0 87 -20 154t-62 112.5t-107 69t-155 23.5q-29 0 -46 -1t-26 -3.5t-11.5 -7t-2.5 -11.5v-581q0 -22 3.5 -36t13 -22.5t26 -12t42.5 -3.5h19zM63 410h378v-50h-378v50z" />
    <glyph glyph-name="Ntilde" unicode="&#xd1;" horiz-adv-x="924" 
d="M205 605v-379q0 -65 1 -101.5t7.5 -55t19.5 -23.5t37 -7l37 -3v-36h-257v36l37 3q24 2 37.5 7t20 23.5t7.5 55t1 101.5v375q0 64 -28.5 91t-94.5 30v36h176l528 -562v336q0 65 -1 101.5t-7.5 55t-19.5 23.5t-37 7l-37 3v36h256v-36l-37 -3q-24 -2 -37.5 -7t-19.5 -23.5
t-7.5 -55t-1.5 -101.5v-536h-27zM297 833q0 23 5.5 48t17.5 46t30 34.5t43 13.5q21 0 43.5 -10t45 -21.5t42.5 -21.5t37 -10q27 0 40 14t15 46h21q0 -41 -8 -67t-20.5 -42t-28 -22t-31.5 -6q-25 0 -48 10t-44.5 21.5t-42 21.5t-40.5 10q-24 0 -39 -17t-17 -48h-21z" />
    <glyph glyph-name="Ograve" unicode="&#xd2;" horiz-adv-x="881" 
d="M441 779q81 0 152.5 -29.5t125.5 -82t85 -125t31 -159.5t-31.5 -159.5t-85.5 -125t-125.5 -82t-151.5 -29.5q-81 0 -153 29.5t-125.5 82t-84.5 125t-31 159.5q0 86 31.5 159t85.5 125.5t125.5 82t151.5 29.5zM428 735q-51 0 -97 -19.5t-80.5 -59.5t-55 -101t-20.5 -143
q0 -89 20 -159.5t56.5 -120t87.5 -75.5t114 -26q51 0 97.5 19.5t81 59.5t55 101t20.5 143q0 89 -20 159.5t-56.5 120t-88 75.5t-114.5 26zM393 972l102 -129h-21l-243 126v3h162z" />
    <glyph glyph-name="Oacute" unicode="&#xd3;" horiz-adv-x="881" 
d="M441 779q81 0 152.5 -29.5t125.5 -82t85 -125t31 -159.5t-31.5 -159.5t-85.5 -125t-125.5 -82t-151.5 -29.5q-81 0 -153 29.5t-125.5 82t-84.5 125t-31 159.5q0 86 31.5 159t85.5 125.5t125.5 82t151.5 29.5zM428 735q-51 0 -97 -19.5t-80.5 -59.5t-55 -101t-20.5 -143
q0 -89 20 -159.5t56.5 -120t87.5 -75.5t114 -26q51 0 97.5 19.5t81 59.5t55 101t20.5 143q0 89 -20 159.5t-56.5 120t-88 75.5t-114.5 26zM670 969l-243 -126h-21l102 129h162v-3z" />
    <glyph glyph-name="Ocircumflex" unicode="&#xd4;" horiz-adv-x="881" 
d="M441 779q81 0 152.5 -29.5t125.5 -82t85 -125t31 -159.5t-31.5 -159.5t-85.5 -125t-125.5 -82t-151.5 -29.5q-81 0 -153 29.5t-125.5 82t-84.5 125t-31 159.5q0 86 31.5 159t85.5 125.5t125.5 82t151.5 29.5zM428 735q-51 0 -97 -19.5t-80.5 -59.5t-55 -101t-20.5 -143
q0 -89 20 -159.5t56.5 -120t87.5 -75.5t114 -26q51 0 97.5 19.5t81 59.5t55 101t20.5 143q0 89 -20 159.5t-56.5 120t-88 75.5t-114.5 26zM449 986l165 -153h-23l-150 66l-150 -66h-23l165 153h16z" />
    <glyph glyph-name="Otilde" unicode="&#xd5;" horiz-adv-x="881" 
d="M441 779q81 0 152.5 -29.5t125.5 -82t85 -125t31 -159.5t-31.5 -159.5t-85.5 -125t-125.5 -82t-151.5 -29.5q-81 0 -153 29.5t-125.5 82t-84.5 125t-31 159.5q0 86 31.5 159t85.5 125.5t125.5 82t151.5 29.5zM428 735q-51 0 -97 -19.5t-80.5 -59.5t-55 -101t-20.5 -143
q0 -89 20 -159.5t56.5 -120t87.5 -75.5t114 -26q51 0 97.5 19.5t81 59.5t55 101t20.5 143q0 89 -20 159.5t-56.5 120t-88 75.5t-114.5 26zM271 833q0 23 5.5 48t17.5 46t30 34.5t43 13.5q21 0 43.5 -10t45 -21.5t42.5 -21.5t37 -10q27 0 40 14t15 46h21q0 -41 -8 -67
t-20.5 -42t-28 -22t-31.5 -6q-25 0 -48 10t-44.5 21.5t-42 21.5t-40.5 10q-24 0 -39 -17t-17 -48h-21z" />
    <glyph glyph-name="Odieresis" unicode="&#xd6;" horiz-adv-x="881" 
d="M441 779q81 0 152.5 -29.5t125.5 -82t85 -125t31 -159.5t-31.5 -159.5t-85.5 -125t-125.5 -82t-151.5 -29.5q-81 0 -153 29.5t-125.5 82t-84.5 125t-31 159.5q0 86 31.5 159t85.5 125.5t125.5 82t151.5 29.5zM428 735q-51 0 -97 -19.5t-80.5 -59.5t-55 -101t-20.5 -143
q0 -89 20 -159.5t56.5 -120t87.5 -75.5t114 -26q51 0 97.5 19.5t81 59.5t55 101t20.5 143q0 89 -20 159.5t-56.5 120t-88 75.5t-114.5 26zM315 845q-26 0 -43.5 17.5t-17.5 43.5q0 28 17.5 45.5t43.5 17.5t43.5 -17.5t17.5 -45.5q0 -26 -17.5 -43.5t-43.5 -17.5zM567 845
q-26 0 -43.5 17.5t-17.5 43.5q0 28 17.5 45.5t43.5 17.5t43.5 -17.5t17.5 -45.5q0 -26 -17.5 -43.5t-43.5 -17.5z" />
    <glyph glyph-name="multiply" unicode="&#xd7;" horiz-adv-x="653" 
d="M91 74l188 189l-188 188l47 47l188 -188l188 188l47 -47l-188 -188l188 -189l-47 -47l-188 188l-188 -188z" />
    <glyph glyph-name="Oslash" unicode="&#xd8;" horiz-adv-x="916" 
d="M458 779q81 0 152.5 -29.5t125.5 -82t85 -125t31 -159.5t-31.5 -159.5t-85.5 -125t-125.5 -82t-151.5 -29.5q-81 0 -153 29.5t-125.5 82t-84.5 125t-31 159.5q0 86 31.5 159t85.5 125.5t125.5 82t151.5 29.5zM445 735q-51 0 -97 -19.5t-80.5 -59.5t-55 -101t-20.5 -143
q0 -89 20 -159.5t56.5 -120t87.5 -75.5t114 -26q51 0 97.5 19.5t81 59.5t55 101t20.5 143q0 89 -20 159.5t-56.5 120t-88 75.5t-114.5 26zM64 -26l750 851l38 -33l-750 -851z" />
    <glyph glyph-name="Ugrave" unicode="&#xd9;" horiz-adv-x="843" 
d="M423 -13q-71 0 -126.5 17t-93.5 54t-58 95.5t-20 141.5v353q0 22 -1.5 35.5t-7 21t-16.5 10t-31 4.5l-38 3v36h299v-36l-38 -3q-20 -2 -31.5 -4.5t-17 -10t-7 -21t-1.5 -35.5v-354q0 -70 15 -118.5t42.5 -78.5t66 -43.5t85.5 -13.5q49 0 89 13.5t68 44t43 79t15 117.5
v238q0 65 -1 102t-7 55.5t-19.5 23.5t-37.5 7l-37 2v36h261v-36l-37 -2q-24 -2 -37.5 -7t-20 -23.5t-7.5 -55.5t-1 -102v-237q0 -81 -20 -139.5t-57.5 -96t-91.5 -55t-123 -17.5zM397 972l102 -129h-21l-243 126v3h162z" />
    <glyph glyph-name="Uacute" unicode="&#xda;" horiz-adv-x="843" 
d="M423 -13q-71 0 -126.5 17t-93.5 54t-58 95.5t-20 141.5v353q0 22 -1.5 35.5t-7 21t-16.5 10t-31 4.5l-38 3v36h299v-36l-38 -3q-20 -2 -31.5 -4.5t-17 -10t-7 -21t-1.5 -35.5v-354q0 -70 15 -118.5t42.5 -78.5t66 -43.5t85.5 -13.5q49 0 89 13.5t68 44t43 79t15 117.5
v238q0 65 -1 102t-7 55.5t-19.5 23.5t-37.5 7l-37 2v36h261v-36l-37 -2q-24 -2 -37.5 -7t-20 -23.5t-7.5 -55.5t-1 -102v-237q0 -81 -20 -139.5t-57.5 -96t-91.5 -55t-123 -17.5zM674 969l-243 -126h-21l102 129h162v-3z" />
    <glyph glyph-name="Ucircumflex" unicode="&#xdb;" horiz-adv-x="843" 
d="M423 -13q-71 0 -126.5 17t-93.5 54t-58 95.5t-20 141.5v353q0 22 -1.5 35.5t-7 21t-16.5 10t-31 4.5l-38 3v36h299v-36l-38 -3q-20 -2 -31.5 -4.5t-17 -10t-7 -21t-1.5 -35.5v-354q0 -70 15 -118.5t42.5 -78.5t66 -43.5t85.5 -13.5q49 0 89 13.5t68 44t43 79t15 117.5
v238q0 65 -1 102t-7 55.5t-19.5 23.5t-37.5 7l-37 2v36h261v-36l-37 -2q-24 -2 -37.5 -7t-20 -23.5t-7.5 -55.5t-1 -102v-237q0 -81 -20 -139.5t-57.5 -96t-91.5 -55t-123 -17.5zM453 986l165 -153h-23l-150 66l-150 -66h-23l165 153h16z" />
    <glyph glyph-name="Udieresis" unicode="&#xdc;" horiz-adv-x="843" 
d="M423 -13q-71 0 -126.5 17t-93.5 54t-58 95.5t-20 141.5v353q0 22 -1.5 35.5t-7 21t-16.5 10t-31 4.5l-38 3v36h299v-36l-38 -3q-20 -2 -31.5 -4.5t-17 -10t-7 -21t-1.5 -35.5v-354q0 -70 15 -118.5t42.5 -78.5t66 -43.5t85.5 -13.5q49 0 89 13.5t68 44t43 79t15 117.5
v238q0 65 -1 102t-7 55.5t-19.5 23.5t-37.5 7l-37 2v36h261v-36l-37 -2q-24 -2 -37.5 -7t-20 -23.5t-7.5 -55.5t-1 -102v-237q0 -81 -20 -139.5t-57.5 -96t-91.5 -55t-123 -17.5zM319 845q-26 0 -43.5 17.5t-17.5 43.5q0 28 17.5 45.5t43.5 17.5t43.5 -17.5t17.5 -45.5
q0 -26 -17.5 -43.5t-43.5 -17.5zM571 845q-26 0 -43.5 17.5t-17.5 43.5q0 28 17.5 45.5t43.5 17.5t43.5 -17.5t17.5 -45.5q0 -26 -17.5 -43.5t-43.5 -17.5z" />
    <glyph glyph-name="Yacute" unicode="&#xdd;" horiz-adv-x="746" 
d="M203 38l44 2q24 1 38 3t21 9t8.5 21t1.5 38v221l-226 360q-9 15 -17.5 20t-34.5 7l-34 3v36h297v-36l-49 -3q-28 -2 -37.5 -8.5t4.5 -29.5l187 -298l141 218q41 63 42.5 90t-43.5 29l-38 2v36h249v-36l-32 -2q-17 -1 -29 -6.5t-24.5 -19t-28 -36.5t-39.5 -59l-178 -269
v-219q0 -24 1.5 -38t8.5 -21t21 -9t38 -3l44 -2v-38h-336v38zM628 969l-243 -126h-21l102 129h162v-3z" />
    <glyph glyph-name="Thorn" unicode="&#xde;" horiz-adv-x="697" 
d="M257 601h95q57 0 112 -9t98.5 -32t70.5 -63.5t27 -103.5q0 -51 -22 -91t-61 -68t-91 -42.5t-112 -14.5h-117v-67q0 -24 1.5 -38t8.5 -20.5t21 -8.5t38 -3l46 -2v-38h-319v36l38 3q20 1 31 4t16.5 10.5t7 20.5t1.5 36v538q0 22 -1.5 35.5t-7 21t-16.5 10t-31 4.5l-38 3v36
h299v-36l-38 -3q-20 -2 -31.5 -4.5t-17 -10t-7 -21t-1.5 -35.5v-47zM257 214h112q81 0 126 43t45 124q0 89 -52 134t-149 45h-32q-32 0 -41 -3.5t-9 -19.5v-323z" />
    <glyph glyph-name="germandbls" unicode="&#xdf;" horiz-adv-x="670" 
d="M430 -13q-32 0 -59 5t-47 15.5t-31.5 26t-11.5 35.5q0 23 18.5 39t47.5 11q15 -40 38.5 -65t65.5 -25q18 0 34 6t29 18.5t20.5 31t7.5 43.5q0 29 -15.5 61.5t-63.5 70.5l-24 19q-50 39 -80.5 78t-30.5 84q0 19 5.5 33.5t16.5 28.5t27 28t38 31q34 27 43.5 51t9.5 54
q0 47 -28.5 74.5t-75.5 27.5q-27 0 -53 -11t-46.5 -36t-33 -65.5t-12.5 -99.5v-557h-177v36l43 2q25 2 31 10t6 25v374h-97v25l97 31v11q0 61 20 115t55.5 94.5t84 63.5t105.5 23q46 0 78.5 -11.5t53.5 -29.5t30.5 -41t9.5 -47q0 -27 -10.5 -50t-30.5 -39l-70 -54
q-18 -14 -27 -28.5t-9 -31.5q0 -9 3 -19t12 -23.5t25 -30t43 -37.5l24 -19q63 -49 88.5 -93.5t25.5 -89.5q0 -39 -16 -72t-43.5 -57t-64.5 -37t-79 -13z" />
    <glyph glyph-name="agrave" unicode="&#xe0;" horiz-adv-x="530" 
d="M200 -13q-29 0 -57 11t-49.5 29.5t-35 43.5t-13.5 54q0 28 11.5 49.5t33.5 38.5t55 32t76 30q16 6 33 13.5t33 16.5t29 19t20 20v29q0 26 -8.5 45.5t-22 32t-31 18.5t-35.5 6q-31 0 -51.5 -9.5t-32 -26.5t-16 -40t-4.5 -50q-6 -3 -14.5 -4t-16.5 -1h-2q-25 0 -40 13
t-15 36q0 21 23.5 40.5t67.5 38.5q36 15 76.5 31.5t79.5 16.5q30 0 55.5 -6.5t43.5 -22.5t28 -43.5t9 -69.5l-5 -286q-1 -26 3 -32t21 -6q15 0 30 1t28 3l4 -31l-31 -12q-8 -3 -19 -7.5t-23 -8.5t-24 -6.5t-21 -2.5q-25 0 -37 15.5t-19 49.5q-15 -13 -31 -25t-34 -23
q-34 -20 -72 -20zM253 42q26 0 49 14t28 36l5 209q-18 -12 -38 -23t-40 -21q-21 -11 -40.5 -22.5t-34 -25t-23.5 -30t-9 -37.5q0 -25 9.5 -44t24.5 -31.5t33.5 -18.5t35.5 -6zM294 609l-214 175v4h124l106 -179h-16z" />
    <glyph glyph-name="aacute" unicode="&#xe1;" horiz-adv-x="530" 
d="M200 -13q-29 0 -57 11t-49.5 29.5t-35 43.5t-13.5 54q0 28 11.5 49.5t33.5 38.5t55 32t76 30q16 6 33 13.5t33 16.5t29 19t20 20v29q0 26 -8.5 45.5t-22 32t-31 18.5t-35.5 6q-31 0 -51.5 -9.5t-32 -26.5t-16 -40t-4.5 -50q-6 -3 -14.5 -4t-16.5 -1h-2q-25 0 -40 13
t-15 36q0 21 23.5 40.5t67.5 38.5q36 15 76.5 31.5t79.5 16.5q30 0 55.5 -6.5t43.5 -22.5t28 -43.5t9 -69.5l-5 -286q-1 -26 3 -32t21 -6q15 0 30 1t28 3l4 -31l-31 -12q-8 -3 -19 -7.5t-23 -8.5t-24 -6.5t-21 -2.5q-25 0 -37 15.5t-19 49.5q-15 -13 -31 -25t-34 -23
q-34 -20 -72 -20zM253 42q26 0 49 14t28 36l5 209q-18 -12 -38 -23t-40 -21q-21 -11 -40.5 -22.5t-34 -25t-23.5 -30t-9 -37.5q0 -25 9.5 -44t24.5 -31.5t33.5 -18.5t35.5 -6zM332 788h124v-4l-214 -175h-16z" />
    <glyph glyph-name="acircumflex" unicode="&#xe2;" horiz-adv-x="530" 
d="M200 -13q-29 0 -57 11t-49.5 29.5t-35 43.5t-13.5 54q0 28 11.5 49.5t33.5 38.5t55 32t76 30q16 6 33 13.5t33 16.5t29 19t20 20v29q0 26 -8.5 45.5t-22 32t-31 18.5t-35.5 6q-31 0 -51.5 -9.5t-32 -26.5t-16 -40t-4.5 -50q-6 -3 -14.5 -4t-16.5 -1h-2q-25 0 -40 13
t-15 36q0 21 23.5 40.5t67.5 38.5q36 15 76.5 31.5t79.5 16.5q30 0 55.5 -6.5t43.5 -22.5t28 -43.5t9 -69.5l-5 -286q-1 -26 3 -32t21 -6q15 0 30 1t28 3l4 -31l-31 -12q-8 -3 -19 -7.5t-23 -8.5t-24 -6.5t-21 -2.5q-25 0 -37 15.5t-19 49.5q-15 -13 -31 -25t-34 -23
q-34 -20 -72 -20zM253 42q26 0 49 14t28 36l5 209q-18 -12 -38 -23t-40 -21q-21 -11 -40.5 -22.5t-34 -25t-23.5 -30t-9 -37.5q0 -25 9.5 -44t24.5 -31.5t33.5 -18.5t35.5 -6zM433 609h-19l-146 96l-146 -96h-19l159 197h12z" />
    <glyph glyph-name="atilde" unicode="&#xe3;" horiz-adv-x="530" 
d="M200 -13q-29 0 -57 11t-49.5 29.5t-35 43.5t-13.5 54q0 28 11.5 49.5t33.5 38.5t55 32t76 30q16 6 33 13.5t33 16.5t29 19t20 20v29q0 26 -8.5 45.5t-22 32t-31 18.5t-35.5 6q-31 0 -51.5 -9.5t-32 -26.5t-16 -40t-4.5 -50q-6 -3 -14.5 -4t-16.5 -1h-2q-25 0 -40 13
t-15 36q0 21 23.5 40.5t67.5 38.5q36 15 76.5 31.5t79.5 16.5q30 0 55.5 -6.5t43.5 -22.5t28 -43.5t9 -69.5l-5 -286q-1 -26 3 -32t21 -6q15 0 30 1t28 3l4 -31l-31 -12q-8 -3 -19 -7.5t-23 -8.5t-24 -6.5t-21 -2.5q-25 0 -37 15.5t-19 49.5q-15 -13 -31 -25t-34 -23
q-34 -20 -72 -20zM253 42q26 0 49 14t28 36l5 209q-18 -12 -38 -23t-40 -21q-21 -11 -40.5 -22.5t-34 -25t-23.5 -30t-9 -37.5q0 -25 9.5 -44t24.5 -31.5t33.5 -18.5t35.5 -6zM98 648q0 24 5.5 49t17.5 46t30 34t43 13q21 0 43.5 -11.5t45 -25t42.5 -24.5t37 -11
q28 0 40.5 17.5t14.5 51.5h21q0 -66 -22.5 -101.5t-65.5 -35.5q-25 0 -48 11t-44.5 24t-42 24t-40.5 11q-26 0 -40 -19.5t-16 -52.5h-21z" />
    <glyph glyph-name="adieresis" unicode="&#xe4;" horiz-adv-x="530" 
d="M200 -13q-29 0 -57 11t-49.5 29.5t-35 43.5t-13.5 54q0 28 11.5 49.5t33.5 38.5t55 32t76 30q16 6 33 13.5t33 16.5t29 19t20 20v29q0 26 -8.5 45.5t-22 32t-31 18.5t-35.5 6q-31 0 -51.5 -9.5t-32 -26.5t-16 -40t-4.5 -50q-6 -3 -14.5 -4t-16.5 -1h-2q-25 0 -40 13
t-15 36q0 21 23.5 40.5t67.5 38.5q36 15 76.5 31.5t79.5 16.5q30 0 55.5 -6.5t43.5 -22.5t28 -43.5t9 -69.5l-5 -286q-1 -26 3 -32t21 -6q15 0 30 1t28 3l4 -31l-31 -12q-8 -3 -19 -7.5t-23 -8.5t-24 -6.5t-21 -2.5q-25 0 -37 15.5t-19 49.5q-15 -13 -31 -25t-34 -23
q-34 -20 -72 -20zM253 42q26 0 49 14t28 36l5 209q-18 -12 -38 -23t-40 -21q-21 -11 -40.5 -22.5t-34 -25t-23.5 -30t-9 -37.5q0 -25 9.5 -44t24.5 -31.5t33.5 -18.5t35.5 -6zM151 663q-24 0 -41.5 16.5t-17.5 42.5t17.5 43t41.5 17q25 0 42 -17t17 -43t-17 -42.5t-42 -16.5
zM384 663q-24 0 -41 16.5t-17 42.5t17 43t41 17q26 0 43 -17t17 -43t-17 -42.5t-43 -16.5z" />
    <glyph glyph-name="aring" unicode="&#xe5;" horiz-adv-x="530" 
d="M200 -13q-29 0 -57 11t-49.5 29.5t-35 43.5t-13.5 54q0 28 11.5 49.5t33.5 38.5t55 32t76 30q16 6 33 13.5t33 16.5t29 19t20 20v29q0 26 -8.5 45.5t-22 32t-31 18.5t-35.5 6q-31 0 -51.5 -9.5t-32 -26.5t-16 -40t-4.5 -50q-6 -3 -14.5 -4t-16.5 -1h-2q-25 0 -40 13
t-15 36q0 21 23.5 40.5t67.5 38.5q36 15 76.5 31.5t79.5 16.5q30 0 55.5 -6.5t43.5 -22.5t28 -43.5t9 -69.5l-5 -286q-1 -26 3 -32t21 -6q15 0 30 1t28 3l4 -31l-31 -12q-8 -3 -19 -7.5t-23 -8.5t-24 -6.5t-21 -2.5q-25 0 -37 15.5t-19 49.5q-15 -13 -31 -25t-34 -23
q-34 -20 -72 -20zM253 42q26 0 49 14t28 36l5 209q-18 -12 -38 -23t-40 -21q-21 -11 -40.5 -22.5t-34 -25t-23.5 -30t-9 -37.5q0 -25 9.5 -44t24.5 -31.5t33.5 -18.5t35.5 -6zM145 706q0 25 9.5 46.5t26.5 38t39 26t48 9.5t49 -9.5t40 -26t26.5 -38t9.5 -46.5t-9.5 -46.5
t-26.5 -37.5t-40 -25t-49 -9t-48 9t-39 25t-26.5 37.5t-9.5 46.5zM337 706q0 32 -18 50.5t-51 18.5q-32 0 -50 -18.5t-18 -50.5t18 -51t50 -19q33 0 51 19t18 51z" />
    <glyph glyph-name="ae" unicode="&#xe6;" horiz-adv-x="823" 
d="M765 89q-48 -51 -94.5 -76.5t-105.5 -25.5q-51 0 -99.5 25.5t-82.5 76.5q-18 -24 -37 -42.5t-42 -32.5q-26 -16 -53.5 -21.5t-50.5 -5.5q-29 0 -57 11t-49.5 29.5t-35 43.5t-13.5 54q0 28 11.5 49t33.5 38.5t54.5 32t75.5 30.5q16 6 33.5 14t33.5 17t29 18.5t20 19.5v29
q0 26 -8.5 45.5t-22 32t-31.5 18.5t-36 6q-31 0 -51 -9.5t-31.5 -26.5t-16 -40t-4.5 -50q-6 -3 -14 -4t-16 -1h-3q-25 0 -40 12.5t-15 35.5q0 21 23.5 41t65.5 39q35 15 76.5 31.5t79.5 16.5q42 0 74.5 -13t48.5 -49q30 29 67.5 45t79.5 16q54 0 93 -17.5t65 -46.5t41 -67
t21 -78h-351q-1 -48 12 -92t37.5 -77.5t60 -53.5t80.5 -20q27 0 49 7.5t40 18.5t31 22.5t22 20.5l23 -25zM557 485q-31 0 -53 -12t-36.5 -31.5t-22.5 -44t-11 -49.5h236q-5 60 -31.5 98.5t-81.5 38.5zM150 142q0 -25 9.5 -44t24.5 -31.5t33.5 -18.5t35.5 -6q15 0 31.5 4
t32 13.5t27.5 25.5t18 39q-13 28 -20 61t-7 71v45q-18 -12 -38 -22.5t-40 -21.5q-21 -11 -40.5 -23t-34 -25.5t-23.5 -29.5t-9 -37z" />
    <glyph glyph-name="ccedilla" unicode="&#xe7;" horiz-adv-x="512" 
d="M280 -13q-54 0 -98 20t-75.5 55t-48.5 81t-17 99q0 62 22 113t60.5 87t89 56t107.5 20q27 0 53 -4t46.5 -12.5t33 -22.5t12.5 -34q0 -27 -16.5 -44t-47.5 -14q-20 38 -51 62t-77 24q-27 0 -52 -12t-44.5 -35t-31.5 -56t-12 -75q0 -45 14.5 -86t40 -71.5t60 -48.5
t74.5 -18q42 0 76 11t72 34l17 -28l-41 -32q-33 -26 -74 -47.5t-92 -21.5zM232 -265q-15 0 -30 2.5t-27.5 8.5t-20 15t-7.5 22q0 14 12.5 25.5t38.5 6.5q0 -26 18.5 -38.5t41.5 -12.5q18 0 29.5 8.5t11.5 21.5q0 21 -34 42t-84 43l118 126h37l-75 -81q44 -22 66 -43t22 -53
q0 -16 -8 -32.5t-23.5 -30t-37 -22t-48.5 -8.5z" />
    <glyph glyph-name="egrave" unicode="&#xe8;" horiz-adv-x="532" 
d="M274 -13q-42 0 -83.5 17.5t-74 51t-53 83t-20.5 114.5q0 57 17.5 105.5t48.5 84t72.5 56t89.5 20.5q54 0 92.5 -17.5t65 -47t42 -67t22.5 -77.5h-353v-6q0 -54 15 -98t40.5 -74.5t60.5 -47.5t74 -17q25 0 47.5 7.5t40.5 18.5t31.5 22.5t22.5 20.5l23 -25l-21 -22
q-48 -51 -94.5 -76.5t-105.5 -25.5zM266 483q-31 0 -53 -12t-36.5 -31t-22.5 -43t-11 -48h236q-5 60 -31.5 97t-81.5 37zM301 609l-214 175v4h124l106 -179h-16z" />
    <glyph glyph-name="eacute" unicode="&#xe9;" horiz-adv-x="532" 
d="M274 -13q-42 0 -83.5 17.5t-74 51t-53 83t-20.5 114.5q0 57 17.5 105.5t48.5 84t72.5 56t89.5 20.5q54 0 92.5 -17.5t65 -47t42 -67t22.5 -77.5h-353v-6q0 -54 15 -98t40.5 -74.5t60.5 -47.5t74 -17q25 0 47.5 7.5t40.5 18.5t31.5 22.5t22.5 20.5l23 -25l-21 -22
q-48 -51 -94.5 -76.5t-105.5 -25.5zM266 483q-31 0 -53 -12t-36.5 -31t-22.5 -43t-11 -48h236q-5 60 -31.5 97t-81.5 37zM339 788h124v-4l-214 -175h-16z" />
    <glyph glyph-name="ecircumflex" unicode="&#xea;" horiz-adv-x="532" 
d="M274 -13q-42 0 -83.5 17.5t-74 51t-53 83t-20.5 114.5q0 57 17.5 105.5t48.5 84t72.5 56t89.5 20.5q54 0 92.5 -17.5t65 -47t42 -67t22.5 -77.5h-353v-6q0 -54 15 -98t40.5 -74.5t60.5 -47.5t74 -17q25 0 47.5 7.5t40.5 18.5t31.5 22.5t22.5 20.5l23 -25l-21 -22
q-48 -51 -94.5 -76.5t-105.5 -25.5zM266 483q-31 0 -53 -12t-36.5 -31t-22.5 -43t-11 -48h236q-5 60 -31.5 97t-81.5 37zM440 609h-19l-146 96l-146 -96h-19l159 197h12z" />
    <glyph glyph-name="edieresis" unicode="&#xeb;" horiz-adv-x="532" 
d="M274 -13q-42 0 -83.5 17.5t-74 51t-53 83t-20.5 114.5q0 57 17.5 105.5t48.5 84t72.5 56t89.5 20.5q54 0 92.5 -17.5t65 -47t42 -67t22.5 -77.5h-353v-6q0 -54 15 -98t40.5 -74.5t60.5 -47.5t74 -17q25 0 47.5 7.5t40.5 18.5t31.5 22.5t22.5 20.5l23 -25l-21 -22
q-48 -51 -94.5 -76.5t-105.5 -25.5zM266 483q-31 0 -53 -12t-36.5 -31t-22.5 -43t-11 -48h236q-5 60 -31.5 97t-81.5 37zM158 663q-24 0 -41.5 16.5t-17.5 42.5t17.5 43t41.5 17q25 0 42 -17t17 -43t-17 -42.5t-42 -16.5zM391 663q-24 0 -41 16.5t-17 42.5t17 43t41 17
q26 0 43 -17t17 -43t-17 -42.5t-43 -16.5z" />
    <glyph glyph-name="igrave" unicode="&#xec;" horiz-adv-x="328" 
d="M220 73q0 -17 6 -25t31 -10l43 -2v-36h-257v36l43 2q25 2 31 10t6 25v302q0 11 -0.5 17.5t-2.5 11t-6 7.5t-12 7l-73 31v6l191 73v-455zM184 609l-214 175v4h124l106 -179h-16z" />
    <glyph glyph-name="iacute" unicode="&#xed;" horiz-adv-x="328" 
d="M220 73q0 -17 6 -25t31 -10l43 -2v-36h-257v36l43 2q25 2 31 10t6 25v302q0 11 -0.5 17.5t-2.5 11t-6 7.5t-12 7l-73 31v6l191 73v-455zM223 788h124v-4l-214 -175h-16z" />
    <glyph glyph-name="icircumflex" unicode="&#xee;" horiz-adv-x="328" 
d="M220 73q0 -17 6 -25t31 -10l43 -2v-36h-257v36l43 2q25 2 31 10t6 25v302q0 11 -0.5 17.5t-2.5 11t-6 7.5t-12 7l-73 31v6l191 73v-455zM324 609h-19l-146 96l-146 -96h-19l159 197h12z" />
    <glyph glyph-name="idieresis" unicode="&#xef;" horiz-adv-x="328" 
d="M220 73q0 -17 6 -25t31 -10l43 -2v-36h-257v36l43 2q25 2 31 10t6 25v302q0 11 -0.5 17.5t-2.5 11t-6 7.5t-12 7l-73 31v6l191 73v-455zM259 646q-24 0 -41 16.5t-17 42.5t17 42.5t41 16.5q26 0 42.5 -16.5t16.5 -42.5t-16.5 -42.5t-42.5 -16.5zM59 646q-24 0 -41 16.5
t-17 42.5t17 42.5t41 16.5q26 0 42.5 -16.5t16.5 -42.5t-16.5 -42.5t-42.5 -16.5z" />
    <glyph glyph-name="eth" unicode="&#xf0;" horiz-adv-x="605" 
d="M283 -13q-56 0 -100.5 20t-76 55t-48 83t-16.5 105q0 60 20.5 109.5t54 85t77.5 55t91 19.5q42 0 75 -17t56 -40q-42 119 -138 203l-126 -64l-20 40l107 54q-30 22 -64.5 39.5t-72.5 31.5l9 31q104 -25 187 -72l115 58l20 -40l-91 -46q100 -69 153.5 -168.5t53.5 -220.5
q0 -68 -18 -127t-52.5 -102t-84 -67.5t-111.5 -24.5zM153 245q0 -104 37.5 -160t97.5 -56q36 0 65 18.5t49.5 53t31 83.5t10.5 109q0 68 -17 131q-29 28 -58 39.5t-59 11.5q-31 0 -59.5 -15t-50 -44t-34.5 -72t-13 -99z" />
    <glyph glyph-name="ntilde" unicode="&#xf1;" horiz-adv-x="631" 
d="M216 73q0 -17 6 -25t31 -10l39 -2v-36h-253v36l43 2q25 2 31 10t6 25v302q0 22 -2.5 29t-18.5 14l-73 31v6l191 73v-91q20 15 43 30t41 26q15 9 39 17t53 8q33 0 58 -7.5t42.5 -27t26.5 -53.5t9 -86v-271q0 -17 6 -25t31 -10l43 -2v-36h-253v36l39 2q25 2 31 10t6 25v232
q0 74 -22 111t-81 37q-35 0 -65.5 -16t-46.5 -41v-323zM162 648q0 24 5.5 49t17.5 46t30 34t43 13q21 0 43.5 -11.5t45 -25t42.5 -24.5t37 -11q28 0 40.5 17.5t14.5 51.5h21q0 -66 -22.5 -101.5t-65.5 -35.5q-25 0 -48 11t-44.5 24t-42 24t-40.5 11q-26 0 -40 -19.5
t-16 -52.5h-21z" />
    <glyph glyph-name="ograve" unicode="&#xf2;" horiz-adv-x="600" 
d="M302 519q58 0 105 -21t81 -56.5t52.5 -83t18.5 -99.5q0 -53 -19.5 -102.5t-54 -87t-82.5 -60t-105 -22.5q-58 0 -105.5 21t-81 57t-52 83t-18.5 100t19.5 102t54 86.5t82.5 60t105 22.5zM281 476q-27 0 -51.5 -10.5t-42.5 -33t-29 -57t-11 -82.5q0 -44 10.5 -90.5t32 -85
t54 -63.5t75.5 -25q27 0 51.5 11t42.5 33.5t29 57.5t11 83q0 43 -10.5 89.5t-32 84.5t-54 63t-75.5 25zM327 609l-214 175v4h124l106 -179h-16z" />
    <glyph glyph-name="oacute" unicode="&#xf3;" horiz-adv-x="600" 
d="M302 519q58 0 105 -21t81 -56.5t52.5 -83t18.5 -99.5q0 -53 -19.5 -102.5t-54 -87t-82.5 -60t-105 -22.5q-58 0 -105.5 21t-81 57t-52 83t-18.5 100t19.5 102t54 86.5t82.5 60t105 22.5zM281 476q-27 0 -51.5 -10.5t-42.5 -33t-29 -57t-11 -82.5q0 -44 10.5 -90.5t32 -85
t54 -63.5t75.5 -25q27 0 51.5 11t42.5 33.5t29 57.5t11 83q0 43 -10.5 89.5t-32 84.5t-54 63t-75.5 25zM365 788h124v-4l-214 -175h-16z" />
    <glyph glyph-name="ocircumflex" unicode="&#xf4;" horiz-adv-x="600" 
d="M302 519q58 0 105 -21t81 -56.5t52.5 -83t18.5 -99.5q0 -53 -19.5 -102.5t-54 -87t-82.5 -60t-105 -22.5q-58 0 -105.5 21t-81 57t-52 83t-18.5 100t19.5 102t54 86.5t82.5 60t105 22.5zM281 476q-27 0 -51.5 -10.5t-42.5 -33t-29 -57t-11 -82.5q0 -44 10.5 -90.5t32 -85
t54 -63.5t75.5 -25q27 0 51.5 11t42.5 33.5t29 57.5t11 83q0 43 -10.5 89.5t-32 84.5t-54 63t-75.5 25zM467 609h-19l-146 96l-146 -96h-19l159 197h12z" />
    <glyph glyph-name="otilde" unicode="&#xf5;" horiz-adv-x="600" 
d="M302 519q58 0 105 -21t81 -56.5t52.5 -83t18.5 -99.5q0 -53 -19.5 -102.5t-54 -87t-82.5 -60t-105 -22.5q-58 0 -105.5 21t-81 57t-52 83t-18.5 100t19.5 102t54 86.5t82.5 60t105 22.5zM281 476q-27 0 -51.5 -10.5t-42.5 -33t-29 -57t-11 -82.5q0 -44 10.5 -90.5t32 -85
t54 -63.5t75.5 -25q27 0 51.5 11t42.5 33.5t29 57.5t11 83q0 43 -10.5 89.5t-32 84.5t-54 63t-75.5 25zM132 648q0 24 5.5 49t17.5 46t30 34t43 13q21 0 43.5 -11.5t45 -25t42.5 -24.5t37 -11q28 0 40.5 17.5t14.5 51.5h21q0 -66 -22.5 -101.5t-65.5 -35.5q-25 0 -48 11
t-44.5 24t-42 24t-40.5 11q-26 0 -40 -19.5t-16 -52.5h-21z" />
    <glyph glyph-name="odieresis" unicode="&#xf6;" horiz-adv-x="600" 
d="M302 519q58 0 105 -21t81 -56.5t52.5 -83t18.5 -99.5q0 -53 -19.5 -102.5t-54 -87t-82.5 -60t-105 -22.5q-58 0 -105.5 21t-81 57t-52 83t-18.5 100t19.5 102t54 86.5t82.5 60t105 22.5zM281 476q-27 0 -51.5 -10.5t-42.5 -33t-29 -57t-11 -82.5q0 -44 10.5 -90.5t32 -85
t54 -63.5t75.5 -25q27 0 51.5 11t42.5 33.5t29 57.5t11 83q0 43 -10.5 89.5t-32 84.5t-54 63t-75.5 25zM185 663q-24 0 -41.5 16.5t-17.5 42.5t17.5 43t41.5 17q25 0 42 -17t17 -43t-17 -42.5t-42 -16.5zM418 663q-24 0 -41 16.5t-17 42.5t17 43t41 17q26 0 43 -17t17 -43
t-17 -42.5t-43 -16.5z" />
    <glyph glyph-name="divide" unicode="&#xf7;" horiz-adv-x="653" 
d="M327 372q-33 0 -56.5 23t-23.5 56q0 32 23.5 55.5t56.5 23.5q32 0 55.5 -23.5t23.5 -55.5q0 -33 -23.5 -56t-55.5 -23zM63 296h527v-67h-527v67zM327 -5q-33 0 -56.5 23.5t-23.5 56.5q0 32 23.5 55t56.5 23q32 0 55.5 -23t23.5 -55q0 -33 -23.5 -56.5t-55.5 -23.5z" />
    <glyph glyph-name="oslash" unicode="&#xf8;" horiz-adv-x="620" 
d="M312 519q58 0 105 -21t81 -56.5t52.5 -83t18.5 -99.5q0 -53 -19.5 -102.5t-54 -87t-82.5 -60t-105 -22.5q-58 0 -105.5 21t-81 57t-52 83t-18.5 100t19.5 102t54 86.5t82.5 60t105 22.5zM291 476q-27 0 -51.5 -10.5t-42.5 -33t-29 -57t-11 -82.5q0 -44 10.5 -90.5t32 -85
t54 -63.5t75.5 -25q27 0 51.5 11t42.5 33.5t29 57.5t11 83q0 43 -10.5 89.5t-32 84.5t-54 63t-75.5 25zM50 -17l486 569l32 -29l-485 -569z" />
    <glyph glyph-name="ugrave" unicode="&#xf9;" horiz-adv-x="601" 
d="M405 67q-20 -15 -41.5 -29.5t-38.5 -24.5q-17 -9 -41.5 -17.5t-51.5 -8.5q-34 0 -58.5 7t-40.5 26.5t-23.5 53t-7.5 86.5v251q0 17 -6 24.5t-32 9.5l-40 4v33l175 30v-318q0 -41 4 -68.5t14.5 -44.5t29 -24.5t47.5 -7.5q35 0 62 14.5t45 35.5v312q0 17 -6.5 24.5
t-32.5 9.5l-40 4v33l176 30v-411q0 -14 3.5 -21.5t20.5 -7.5h55v-34q-48 -8 -89 -21.5t-83 -30.5v81zM328 609l-214 175v4h124l106 -179h-16z" />
    <glyph glyph-name="uacute" unicode="&#xfa;" horiz-adv-x="601" 
d="M405 67q-20 -15 -41.5 -29.5t-38.5 -24.5q-17 -9 -41.5 -17.5t-51.5 -8.5q-34 0 -58.5 7t-40.5 26.5t-23.5 53t-7.5 86.5v251q0 17 -6 24.5t-32 9.5l-40 4v33l175 30v-318q0 -41 4 -68.5t14.5 -44.5t29 -24.5t47.5 -7.5q35 0 62 14.5t45 35.5v312q0 17 -6.5 24.5
t-32.5 9.5l-40 4v33l176 30v-411q0 -14 3.5 -21.5t20.5 -7.5h55v-34q-48 -8 -89 -21.5t-83 -30.5v81zM366 788h124v-4l-214 -175h-16z" />
    <glyph glyph-name="ucircumflex" unicode="&#xfb;" horiz-adv-x="601" 
d="M405 67q-20 -15 -41.5 -29.5t-38.5 -24.5q-17 -9 -41.5 -17.5t-51.5 -8.5q-34 0 -58.5 7t-40.5 26.5t-23.5 53t-7.5 86.5v251q0 17 -6 24.5t-32 9.5l-40 4v33l175 30v-318q0 -41 4 -68.5t14.5 -44.5t29 -24.5t47.5 -7.5q35 0 62 14.5t45 35.5v312q0 17 -6.5 24.5
t-32.5 9.5l-40 4v33l176 30v-411q0 -14 3.5 -21.5t20.5 -7.5h55v-34q-48 -8 -89 -21.5t-83 -30.5v81zM467 609h-19l-146 96l-146 -96h-19l159 197h12z" />
    <glyph glyph-name="udieresis" unicode="&#xfc;" horiz-adv-x="601" 
d="M405 67q-20 -15 -41.5 -29.5t-38.5 -24.5q-17 -9 -41.5 -17.5t-51.5 -8.5q-34 0 -58.5 7t-40.5 26.5t-23.5 53t-7.5 86.5v251q0 17 -6 24.5t-32 9.5l-40 4v33l175 30v-318q0 -41 4 -68.5t14.5 -44.5t29 -24.5t47.5 -7.5q35 0 62 14.5t45 35.5v312q0 17 -6.5 24.5
t-32.5 9.5l-40 4v33l176 30v-411q0 -14 3.5 -21.5t20.5 -7.5h55v-34q-48 -8 -89 -21.5t-83 -30.5v81zM185 663q-24 0 -41.5 16.5t-17.5 42.5t17.5 43t41.5 17q25 0 42 -17t17 -43t-17 -42.5t-42 -16.5zM418 663q-24 0 -41 16.5t-17 42.5t17 43t41 17q26 0 43 -17t17 -43
t-17 -42.5t-43 -16.5z" />
    <glyph glyph-name="yacute" unicode="&#xfd;" horiz-adv-x="565" 
d="M151 -267q-27 0 -41 17.5t-14 36.5q0 20 12 34q33 12 58.5 23t36.5 19t19.5 25t19.5 41l19 46l-187 463q-6 16 -16 20.5t-40 6.5l-14 1v36h257v-36l-16 -1q-38 -2 -52 -8.5t-5 -29.5l126 -323l102 288q8 23 10 37t-3 21.5t-17 10.5t-32 4l-16 1v36h207v-36l-12 -1
q-17 -2 -28 -3.5t-19.5 -8t-16 -19.5t-16.5 -36l-215 -540q-28 -69 -50.5 -97t-56.5 -28zM370 788h124v-4l-214 -175h-16z" />
    <glyph glyph-name="thorn" unicode="&#xfe;" horiz-adv-x="598" 
d="M284 -248h-280v36l43 2q25 2 30.5 10t5.5 25v856q0 22 -2.5 29t-18.5 14l-73 32v6l191 69v-385q19 14 41.5 28t43.5 25q15 8 34 13.5t40 5.5q49 0 89.5 -18.5t68.5 -52t43.5 -79t15.5 -99.5q0 -62 -24 -113.5t-63 -89t-90 -58.5t-105 -21q-23 0 -48 3.5t-46 11.5v-175
q0 -17 6 -25t31 -9l67 -3v-38zM180 117q0 -43 28.5 -67t71.5 -24q34 0 64.5 13t54 38t37.5 62t14 85q0 50 -11.5 92.5t-33.5 73.5t-54.5 48.5t-73.5 17.5q-27 0 -53 -12t-44 -29v-298z" />
    <glyph glyph-name="ydieresis" unicode="&#xff;" horiz-adv-x="565" 
d="M151 -267q-27 0 -41 17.5t-14 36.5q0 20 12 34q33 12 58.5 23t36.5 19t19.5 25t19.5 41l19 46l-187 463q-6 16 -16 20.5t-40 6.5l-14 1v36h257v-36l-16 -1q-38 -2 -52 -8.5t-5 -29.5l126 -323l102 288q8 23 10 37t-3 21.5t-17 10.5t-32 4l-16 1v36h207v-36l-12 -1
q-17 -2 -28 -3.5t-19.5 -8t-16 -19.5t-16.5 -36l-215 -540q-28 -69 -50.5 -97t-56.5 -28zM189 663q-24 0 -41.5 16.5t-17.5 42.5t17.5 43t41.5 17q25 0 42 -17t17 -43t-17 -42.5t-42 -16.5zM422 663q-24 0 -41 16.5t-17 42.5t17 43t41 17q26 0 43 -17t17 -43t-17 -42.5
t-43 -16.5z" />
    <glyph glyph-name="Abreve" unicode="&#x102;" horiz-adv-x="750" 
d="M-14 36l24 3q21 2 34.5 6t24 16t21 35t25.5 63l232 619h53l267 -694q6 -15 11 -23.5t11.5 -13t15 -6t22.5 -2.5l33 -3v-36h-290v36l48 3q28 1 34 9t-7 43l-67 178h-264l-40 -112q-13 -35 -19 -57.5t-4 -35t11.5 -18t27.5 -6.5l43 -4v-36h-247v36zM459 320l-115 310
l-112 -310h227zM373 830q-28 0 -55 7.5t-49.5 26t-38 49.5t-20.5 77h55q7 -60 36.5 -86t71.5 -26t71.5 26t36.5 86h55q-5 -46 -20.5 -77t-38 -49.5t-49.5 -26t-55 -7.5z" />
    <glyph glyph-name="Amacron" unicode="&#x100;" horiz-adv-x="750" 
d="M-14 36l24 3q21 2 34.5 6t24 16t21 35t25.5 63l232 619h53l267 -694q6 -15 11 -23.5t11.5 -13t15 -6t22.5 -2.5l33 -3v-36h-290v36l48 3q28 1 34 9t-7 43l-67 178h-264l-40 -112q-13 -35 -19 -57.5t-4 -35t11.5 -18t27.5 -6.5l43 -4v-36h-247v36zM459 320l-115 310
l-112 -310h227zM225 939h296v-65h-296v65z" />
    <glyph glyph-name="Aogonek" unicode="&#x104;" horiz-adv-x="750" 
d="M-14 36l24 3q21 2 34.5 6t24 16t21 35t25.5 63l232 619h53l267 -694q6 -15 11 -23.5t11.5 -13t15 -6t22.5 -2.5l33 -3v-36h-290v36l48 3q28 1 34 9t-7 43l-67 178h-264l-40 -112q-13 -35 -19 -57.5t-4 -35t11.5 -18t27.5 -6.5l43 -4v-36h-247v36zM459 320l-115 310
l-112 -310h227zM727 -207q-17 -8 -45 -17.5t-57 -9.5q-42 0 -72 21.5t-30 63.5q0 19 11 39t28 39t37.5 37t39.5 34h36q-13 -12 -25.5 -26.5t-23 -30.5t-17 -33.5t-6.5 -34.5q0 -22 10.5 -35.5t27.5 -19.5t39.5 -5.5t46.5 6.5v-28z" />
    <glyph glyph-name="Cacute" unicode="&#x106;" horiz-adv-x="767" 
d="M477 33q55 0 95.5 15.5t66.5 58.5l62 104h30l-42 -186q-45 -14 -103 -26t-140 -12q-86 0 -159.5 31.5t-127 85.5t-83.5 126t-30 153t31 153t85.5 126t129.5 85.5t164 31.5q82 0 136.5 -11.5t89.5 -23.5l33 -183h-29l-54 98q-26 44 -74 59t-105 15q-53 0 -103 -19t-89 -58
t-63 -99.5t-24 -143.5q0 -85 21.5 -155t61.5 -120t95.5 -77.5t124.5 -27.5zM671 969l-243 -126h-21l102 129h162v-3z" />
    <glyph glyph-name="Ccaron" unicode="&#x10c;" horiz-adv-x="767" 
d="M477 33q55 0 95.5 15.5t66.5 58.5l62 104h30l-42 -186q-45 -14 -103 -26t-140 -12q-86 0 -159.5 31.5t-127 85.5t-83.5 126t-30 153t31 153t85.5 126t129.5 85.5t164 31.5q82 0 136.5 -11.5t89.5 -23.5l33 -183h-29l-54 98q-26 44 -74 59t-105 15q-53 0 -103 -19t-89 -58
t-63 -99.5t-24 -143.5q0 -85 21.5 -155t61.5 -120t95.5 -77.5t124.5 -27.5zM268 986h23l150 -66l150 66h23l-165 -153h-16z" />
    <glyph glyph-name="Ccircumflex" unicode="&#x108;" horiz-adv-x="767" 
d="M477 33q55 0 95.5 15.5t66.5 58.5l62 104h30l-42 -186q-45 -14 -103 -26t-140 -12q-86 0 -159.5 31.5t-127 85.5t-83.5 126t-30 153t31 153t85.5 126t129.5 85.5t164 31.5q82 0 136.5 -11.5t89.5 -23.5l33 -183h-29l-54 98q-26 44 -74 59t-105 15q-53 0 -103 -19t-89 -58
t-63 -99.5t-24 -143.5q0 -85 21.5 -155t61.5 -120t95.5 -77.5t124.5 -27.5zM450 986l165 -153h-23l-150 66l-150 -66h-23l165 153h16z" />
    <glyph glyph-name="Cdotaccent" unicode="&#x10a;" horiz-adv-x="767" 
d="M477 33q55 0 95.5 15.5t66.5 58.5l62 104h30l-42 -186q-45 -14 -103 -26t-140 -12q-86 0 -159.5 31.5t-127 85.5t-83.5 126t-30 153t31 153t85.5 126t129.5 85.5t164 31.5q82 0 136.5 -11.5t89.5 -23.5l33 -183h-29l-54 98q-26 44 -74 59t-105 15q-53 0 -103 -19t-89 -58
t-63 -99.5t-24 -143.5q0 -85 21.5 -155t61.5 -120t95.5 -77.5t124.5 -27.5zM442 845q-26 0 -43.5 17.5t-17.5 43.5q0 28 17.5 45.5t43.5 17.5t43.5 -17.5t17.5 -45.5q0 -26 -17.5 -43.5t-43.5 -17.5z" />
    <glyph glyph-name="Dcaron" unicode="&#x10e;" horiz-adv-x="861" 
d="M361 758q98 0 181.5 -25.5t144 -74t94.5 -117.5t34 -156t-35.5 -158t-96.5 -121.5t-144 -78t-177 -27.5h-309v36l38 3q20 1 31 4t16.5 10.5t7 20.5t1.5 36v538q0 22 -1.5 35.5t-7 21t-16.5 10.5t-31 4l-38 3v36h308zM361 40q66 0 125 17t104 54.5t71 98.5t26 149
q0 87 -20 154t-62 112.5t-107 69t-155 23.5q-29 0 -46 -1t-26 -3.5t-11.5 -7t-2.5 -11.5v-581q0 -22 3.5 -36t13 -22.5t26 -12t42.5 -3.5h19zM247 986h23l150 -66l150 66h23l-165 -153h-16z" />
    <glyph glyph-name="Dcroat" unicode="&#x110;" horiz-adv-x="871" 
d="M371 758q98 0 181.5 -25.5t144 -74t94.5 -117.5t34 -156t-35.5 -158t-96.5 -121.5t-144 -78t-177 -27.5h-309v36l38 3q20 1 31 4t16.5 10.5t7 20.5t1.5 36v538q0 22 -1.5 35.5t-7 21t-16.5 10.5t-31 4l-38 3v36h308zM371 40q66 0 125 17t104 54.5t71 98.5t26 149
q0 87 -20 154t-62 112.5t-107 69t-155 23.5q-29 0 -46 -1t-26 -3.5t-11.5 -7t-2.5 -11.5v-581q0 -22 3.5 -36t13 -22.5t26 -12t42.5 -3.5h19zM63 410h378v-50h-378v50z" />
    <glyph glyph-name="Ebreve" unicode="&#x114;" horiz-adv-x="713" 
d="M53 36l38 3q20 1 31 4t16.5 10.5t7 20.5t1.5 36v538q0 22 -1.5 35.5t-7 21t-16.5 10.5t-31 4l-38 3v36h247l291 2l8 -184h-32l-15 47q-10 33 -23 52t-38 28t-65 11t-104 2h-45q-20 0 -20 -20v-286h126q21 0 36 1.5t26 8t18.5 21t13.5 40.5l9 40h32v-270h-32l-9 39
q-6 26 -13.5 40.5t-18.5 21.5t-26 8.5t-36 1.5h-126v-245q0 -27 5.5 -42t17 -22.5t29.5 -9t44 -1.5h19q71 0 113 3.5t67 13t39 26.5t29 44l41 72h32l-52 -201h-588v36zM371 830q-28 0 -55 7.5t-49.5 26t-38 49.5t-20.5 77h55q7 -60 36.5 -86t71.5 -26t71.5 26t36.5 86h55
q-5 -46 -20.5 -77t-38 -49.5t-49.5 -26t-55 -7.5z" />
    <glyph glyph-name="Ecaron" unicode="&#x11a;" horiz-adv-x="713" 
d="M53 36l38 3q20 1 31 4t16.5 10.5t7 20.5t1.5 36v538q0 22 -1.5 35.5t-7 21t-16.5 10.5t-31 4l-38 3v36h247l291 2l8 -184h-32l-15 47q-10 33 -23 52t-38 28t-65 11t-104 2h-45q-20 0 -20 -20v-286h126q21 0 36 1.5t26 8t18.5 21t13.5 40.5l9 40h32v-270h-32l-9 39
q-6 26 -13.5 40.5t-18.5 21.5t-26 8.5t-36 1.5h-126v-245q0 -27 5.5 -42t17 -22.5t29.5 -9t44 -1.5h19q71 0 113 3.5t67 13t39 26.5t29 44l41 72h32l-52 -201h-588v36zM197 986h23l150 -66l150 66h23l-165 -153h-16z" />
    <glyph glyph-name="Emacron" unicode="&#x112;" horiz-adv-x="713" 
d="M53 36l38 3q20 1 31 4t16.5 10.5t7 20.5t1.5 36v538q0 22 -1.5 35.5t-7 21t-16.5 10.5t-31 4l-38 3v36h247l291 2l8 -184h-32l-15 47q-10 33 -23 52t-38 28t-65 11t-104 2h-45q-20 0 -20 -20v-286h126q21 0 36 1.5t26 8t18.5 21t13.5 40.5l9 40h32v-270h-32l-9 39
q-6 26 -13.5 40.5t-18.5 21.5t-26 8.5t-36 1.5h-126v-245q0 -27 5.5 -42t17 -22.5t29.5 -9t44 -1.5h19q71 0 113 3.5t67 13t39 26.5t29 44l41 72h32l-52 -201h-588v36zM223 939h296v-65h-296v65z" />
    <glyph glyph-name="Eogonek" unicode="&#x118;" horiz-adv-x="713" 
d="M53 36l38 3q20 1 31 4t16.5 10.5t7 20.5t1.5 36v538q0 22 -1.5 35.5t-7 21t-16.5 10.5t-31 4l-38 3v36h247l291 2l8 -184h-32l-15 47q-10 33 -23 52t-38 28t-65 11t-104 2h-45q-20 0 -20 -20v-286h126q21 0 36 1.5t26 8t18.5 21t13.5 40.5l9 40h32v-270h-32l-9 39
q-6 26 -13.5 40.5t-18.5 21.5t-26 8.5t-36 1.5h-126v-245q0 -27 5.5 -42t17 -22.5t29.5 -9t44 -1.5h19q71 0 113 3.5t67 13t39 26.5t29 44l41 72h32l-52 -201h-588v36zM692 -207q-17 -8 -45 -17.5t-57 -9.5q-42 0 -72 21.5t-30 63.5q0 19 11 39t28 39t37.5 37t39.5 34h36
q-13 -12 -25.5 -26.5t-23 -30.5t-17 -33.5t-6.5 -34.5q0 -22 10.5 -35.5t27.5 -19.5t39.5 -5.5t46.5 6.5v-28z" />
    <glyph glyph-name="Edotaccent" unicode="&#x116;" horiz-adv-x="713" 
d="M53 36l38 3q20 1 31 4t16.5 10.5t7 20.5t1.5 36v538q0 22 -1.5 35.5t-7 21t-16.5 10.5t-31 4l-38 3v36h247l291 2l8 -184h-32l-15 47q-10 33 -23 52t-38 28t-65 11t-104 2h-45q-20 0 -20 -20v-286h126q21 0 36 1.5t26 8t18.5 21t13.5 40.5l9 40h32v-270h-32l-9 39
q-6 26 -13.5 40.5t-18.5 21.5t-26 8.5t-36 1.5h-126v-245q0 -27 5.5 -42t17 -22.5t29.5 -9t44 -1.5h19q71 0 113 3.5t67 13t39 26.5t29 44l41 72h32l-52 -201h-588v36zM371 845q-26 0 -43.5 17.5t-17.5 43.5q0 28 17.5 45.5t43.5 17.5t43.5 -17.5t17.5 -45.5
q0 -26 -17.5 -43.5t-43.5 -17.5z" />
    <glyph glyph-name="Gbreve" unicode="&#x11e;" horiz-adv-x="814" 
d="M459 -13q-93 0 -169.5 31.5t-130.5 85.5t-83.5 126t-29.5 153t31.5 153t87 126t130.5 85.5t161 31.5q81 0 136 -11.5t90 -23.5l34 -183h-30l-54 98q-26 44 -74 59t-105 15q-53 0 -103 -19t-89 -58t-63 -99.5t-24 -143.5q0 -86 21.5 -156t60.5 -120t92.5 -77t117.5 -27
q41 0 68 5t56 14v201q0 23 -1.5 36.5t-7 21t-17 10t-31.5 3.5l-57 3v36h317v-36l-36 -2q-20 -1 -31.5 -4t-17 -10.5t-7 -21t-1.5 -36.5v-147l5 -71q-53 -20 -111.5 -34t-134.5 -14zM445 830q-28 0 -55 7.5t-49.5 26t-38 49.5t-20.5 77h55q7 -60 36.5 -86t71.5 -26t71.5 26
t36.5 86h55q-5 -46 -20.5 -77t-38 -49.5t-49.5 -26t-55 -7.5z" />
    <glyph glyph-name="Gcircumflex" unicode="&#x11c;" horiz-adv-x="814" 
d="M459 -13q-93 0 -169.5 31.5t-130.5 85.5t-83.5 126t-29.5 153t31.5 153t87 126t130.5 85.5t161 31.5q81 0 136 -11.5t90 -23.5l34 -183h-30l-54 98q-26 44 -74 59t-105 15q-53 0 -103 -19t-89 -58t-63 -99.5t-24 -143.5q0 -86 21.5 -156t60.5 -120t92.5 -77t117.5 -27
q41 0 68 5t56 14v201q0 23 -1.5 36.5t-7 21t-17 10t-31.5 3.5l-57 3v36h317v-36l-36 -2q-20 -1 -31.5 -4t-17 -10.5t-7 -21t-1.5 -36.5v-147l5 -71q-53 -20 -111.5 -34t-134.5 -14zM453 986l165 -153h-23l-150 66l-150 -66h-23l165 153h16z" />
    <glyph glyph-name="uni0122" unicode="&#x122;" horiz-adv-x="814" 
d="M459 -13q-93 0 -169.5 31.5t-130.5 85.5t-83.5 126t-29.5 153t31.5 153t87 126t130.5 85.5t161 31.5q81 0 136 -11.5t90 -23.5l34 -183h-30l-54 98q-26 44 -74 59t-105 15q-53 0 -103 -19t-89 -58t-63 -99.5t-24 -143.5q0 -86 21.5 -156t60.5 -120t92.5 -77t117.5 -27
q41 0 68 5t56 14v201q0 23 -1.5 36.5t-7 21t-17 10t-31.5 3.5l-57 3v36h317v-36l-36 -2q-20 -1 -31.5 -4t-17 -10.5t-7 -21t-1.5 -36.5v-147l5 -71q-53 -20 -111.5 -34t-134.5 -14zM411 -90q21 0 40 -8t33.5 -22.5t23 -35t8.5 -45.5q0 -47 -37.5 -94t-109.5 -78l-10 22
q47 23 67 53.5t20 65.5t-24.5 55t-65.5 27q-2 26 13.5 43t41.5 17z" />
    <glyph glyph-name="Gdotaccent" unicode="&#x120;" horiz-adv-x="814" 
d="M459 -13q-93 0 -169.5 31.5t-130.5 85.5t-83.5 126t-29.5 153t31.5 153t87 126t130.5 85.5t161 31.5q81 0 136 -11.5t90 -23.5l34 -183h-30l-54 98q-26 44 -74 59t-105 15q-53 0 -103 -19t-89 -58t-63 -99.5t-24 -143.5q0 -86 21.5 -156t60.5 -120t92.5 -77t117.5 -27
q41 0 68 5t56 14v201q0 23 -1.5 36.5t-7 21t-17 10t-31.5 3.5l-57 3v36h317v-36l-36 -2q-20 -1 -31.5 -4t-17 -10.5t-7 -21t-1.5 -36.5v-147l5 -71q-53 -20 -111.5 -34t-134.5 -14zM445 845q-26 0 -43.5 17.5t-17.5 43.5q0 28 17.5 45.5t43.5 17.5t43.5 -17.5t17.5 -45.5
q0 -26 -17.5 -43.5t-43.5 -17.5z" />
    <glyph glyph-name="Hbar" unicode="&#x126;" horiz-adv-x="927" 
d="M147 648q0 22 -1.5 35.5t-7 21t-16.5 10t-31 4.5l-38 3v36h299v-36l-38 -3q-20 -2 -31.5 -4.5t-17 -10t-7 -21t-1.5 -35.5v-238h412v238q0 22 -1.5 35.5t-7 21t-17 10t-31.5 4.5l-37 3v36h299v-36l-38 -3q-20 -2 -31.5 -4.5t-17 -10t-7 -21t-1.5 -35.5v-538
q0 -23 1.5 -36t7 -20.5t17 -10.5t31.5 -4l38 -3v-36h-299v36l37 3q20 1 31.5 4t17 10.5t7 20.5t1.5 36v250h-412v-250q0 -23 1.5 -36t7 -20.5t17 -10.5t31.5 -4l38 -3v-36h-299v36l38 3q20 1 31 4t16.5 10.5t7 20.5t1.5 36v538zM54 591h819v-50h-819v50z" />
    <glyph glyph-name="Hcircumflex" unicode="&#x124;" horiz-adv-x="927" 
d="M147 648q0 22 -1.5 35.5t-7 21t-16.5 10t-31 4.5l-38 3v36h299v-36l-38 -3q-20 -2 -31.5 -4.5t-17 -10t-7 -21t-1.5 -35.5v-238h412v238q0 22 -1.5 35.5t-7 21t-17 10t-31.5 4.5l-37 3v36h299v-36l-38 -3q-20 -2 -31.5 -4.5t-17 -10t-7 -21t-1.5 -35.5v-538
q0 -23 1.5 -36t7 -20.5t17 -10.5t31.5 -4l38 -3v-36h-299v36l37 3q20 1 31.5 4t17 10.5t7 20.5t1.5 36v250h-412v-250q0 -23 1.5 -36t7 -20.5t17 -10.5t31.5 -4l38 -3v-36h-299v36l38 3q20 1 31 4t16.5 10.5t7 20.5t1.5 36v538zM471 986l165 -153h-23l-150 66l-150 -66h-23
l165 153h16z" />
    <glyph glyph-name="Ibreve" unicode="&#x12c;" horiz-adv-x="405" 
d="M147 648q0 22 -1.5 35.5t-7 21t-16.5 10t-31 4.5l-38 3v36h299v-36l-38 -3q-20 -2 -31.5 -4.5t-17 -10t-7 -21t-1.5 -35.5v-538q0 -23 1.5 -36t7 -20.5t17 -10.5t31.5 -4l38 -3v-36h-299v36l38 3q20 1 31 4t16.5 10.5t7 20.5t1.5 36v538zM202 830q-28 0 -55 7.5t-49.5 26
t-38 49.5t-20.5 77h55q7 -60 36.5 -86t71.5 -26t71.5 26t36.5 86h55q-5 -46 -20.5 -77t-38 -49.5t-49.5 -26t-55 -7.5z" />
    <glyph glyph-name="Idotaccent" unicode="&#x130;" horiz-adv-x="405" 
d="M147 648q0 22 -1.5 35.5t-7 21t-16.5 10t-31 4.5l-38 3v36h299v-36l-38 -3q-20 -2 -31.5 -4.5t-17 -10t-7 -21t-1.5 -35.5v-538q0 -23 1.5 -36t7 -20.5t17 -10.5t31.5 -4l38 -3v-36h-299v36l38 3q20 1 31 4t16.5 10.5t7 20.5t1.5 36v538zM202 845q-26 0 -43.5 17.5
t-17.5 43.5q0 28 17.5 45.5t43.5 17.5t43.5 -17.5t17.5 -45.5q0 -26 -17.5 -43.5t-43.5 -17.5z" />
    <glyph glyph-name="Imacron" unicode="&#x12a;" horiz-adv-x="405" 
d="M147 648q0 22 -1.5 35.5t-7 21t-16.5 10t-31 4.5l-38 3v36h299v-36l-38 -3q-20 -2 -31.5 -4.5t-17 -10t-7 -21t-1.5 -35.5v-538q0 -23 1.5 -36t7 -20.5t17 -10.5t31.5 -4l38 -3v-36h-299v36l38 3q20 1 31 4t16.5 10.5t7 20.5t1.5 36v538zM54 939h296v-65h-296v65z" />
    <glyph glyph-name="Iogonek" unicode="&#x12e;" horiz-adv-x="405" 
d="M147 648q0 22 -1.5 35.5t-7 21t-16.5 10t-31 4.5l-38 3v36h299v-36l-38 -3q-20 -2 -31.5 -4.5t-17 -10t-7 -21t-1.5 -35.5v-538q0 -23 1.5 -36t7 -20.5t17 -10.5t31.5 -4l38 -3v-36h-299v36l38 3q20 1 31 4t16.5 10.5t7 20.5t1.5 36v538zM312 -207q-17 -8 -45 -17.5
t-57 -9.5q-42 0 -72 21.5t-30 63.5q0 19 11 39t28 39t37.5 37t39.5 34h36q-13 -12 -25.5 -26.5t-23 -30.5t-17 -33.5t-6.5 -34.5q0 -22 10.5 -35.5t27.5 -19.5t39.5 -5.5t46.5 6.5v-28z" />
    <glyph glyph-name="Itilde" unicode="&#x128;" horiz-adv-x="405" 
d="M147 648q0 22 -1.5 35.5t-7 21t-16.5 10t-31 4.5l-38 3v36h299v-36l-38 -3q-20 -2 -31.5 -4.5t-17 -10t-7 -21t-1.5 -35.5v-538q0 -23 1.5 -36t7 -20.5t17 -10.5t31.5 -4l38 -3v-36h-299v36l38 3q20 1 31 4t16.5 10.5t7 20.5t1.5 36v538zM32 833q0 23 5.5 48t17.5 46
t30 34.5t43 13.5q21 0 43.5 -10t45 -21.5t42.5 -21.5t37 -10q27 0 40 14t15 46h21q0 -41 -8 -67t-20.5 -42t-28 -22t-31.5 -6q-25 0 -48 10t-44.5 21.5t-42 21.5t-40.5 10q-24 0 -39 -17t-17 -48h-21z" />
    <glyph glyph-name="uni1ECA" unicode="&#x1eca;" horiz-adv-x="405" 
d="M147 648q0 22 -1.5 35.5t-7 21t-16.5 10t-31 4.5l-38 3v36h299v-36l-38 -3q-20 -2 -31.5 -4.5t-17 -10t-7 -21t-1.5 -35.5v-538q0 -23 1.5 -36t7 -20.5t17 -10.5t31.5 -4l38 -3v-36h-299v36l38 3q20 1 31 4t16.5 10.5t7 20.5t1.5 36v538zM202 -244q-26 0 -43.5 18
t-17.5 44q0 27 17.5 45t43.5 18t43.5 -18t17.5 -45q0 -26 -17.5 -44t-43.5 -18z" />
    <glyph glyph-name="Jcircumflex" unicode="&#x134;" horiz-adv-x="391" 
d="M21 -72q35 32 59.5 56.5t39.5 52t22 64t7 92.5v455q0 22 -1.5 35.5t-7 21t-17 10.5t-31.5 4l-37 3v36h298v-36l-37 -3q-20 -1 -31.5 -4t-17 -10.5t-7 -21t-1.5 -35.5v-437q0 -38 -2.5 -66.5t-9.5 -52t-19.5 -42t-33.5 -36.5q-13 -12 -31.5 -26t-39 -29.5t-42 -31
t-40.5 -28.5zM212 986l165 -153h-23l-150 66l-150 -66h-23l165 153h16z" />
    <glyph glyph-name="uni0136" unicode="&#x136;" horiz-adv-x="811" 
d="M310 348l-53 -3v-235q0 -23 1.5 -36t7 -20.5t17 -10.5t31.5 -4l38 -3v-36h-299v36l38 3q20 1 31 4t16.5 10.5t7 20.5t1.5 36v538q0 22 -1.5 35.5t-7 21t-16.5 10t-31 4.5l-38 3v36h299v-36l-38 -3q-20 -2 -31.5 -4.5t-17 -10t-7 -21t-1.5 -35.5v-269q17 5 31.5 14.5
t35.5 32.5l174 185q31 33 46.5 53.5t15.5 32.5t-14.5 17t-43.5 7l-17 1v36h280v-36l-18 -2q-24 -3 -42 -6.5t-36.5 -14t-41 -30t-55.5 -52.5l-185 -189l305 -345q17 -20 37 -31t49 -13l36 -3v-36h-207zM432 -90q21 0 40 -8t33.5 -22.5t23 -35t8.5 -45.5q0 -47 -37.5 -94
t-109.5 -78l-10 22q47 23 67 53.5t20 65.5t-24.5 55t-65.5 27q-2 26 13.5 43t41.5 17z" />
    <glyph glyph-name="Lacute" unicode="&#x139;" horiz-adv-x="655" 
d="M53 36l38 3q20 1 31 4t16.5 10.5t7 20.5t1.5 36v538q0 22 -1.5 35.5t-7 21t-16.5 10t-31 4.5l-38 3v36h299v-36l-38 -3q-20 -2 -31.5 -4.5t-17 -10t-7 -21t-1.5 -35.5v-531q0 -27 5.5 -42t17.5 -22.5t30.5 -9t45.5 -1.5q56 0 90.5 3.5t57 13t37 26.5t29.5 44l41 72h32
l-51 -201h-539v36zM447 969l-243 -126h-21l102 129h162v-3z" />
    <glyph glyph-name="Lcaron" unicode="&#x13d;" horiz-adv-x="655" 
d="M53 36l38 3q20 1 31 4t16.5 10.5t7 20.5t1.5 36v538q0 22 -1.5 35.5t-7 21t-16.5 10t-31 4.5l-38 3v36h299v-36l-38 -3q-20 -2 -31.5 -4.5t-17 -10t-7 -21t-1.5 -35.5v-531q0 -27 5.5 -42t17.5 -22.5t30.5 -9t45.5 -1.5q56 0 90.5 3.5t57 13t37 26.5t29.5 44l41 72h32
l-51 -201h-539v36zM480 796q21 0 40 -8t33.5 -22.5t23 -35t8.5 -45.5q0 -47 -37.5 -94t-109.5 -78l-10 22q47 23 67 53.5t20 65.5t-24.5 55t-65.5 27q-2 26 13.5 43t41.5 17z" />
    <glyph glyph-name="uni013B" unicode="&#x13b;" horiz-adv-x="655" 
d="M53 36l38 3q20 1 31 4t16.5 10.5t7 20.5t1.5 36v538q0 22 -1.5 35.5t-7 21t-16.5 10t-31 4.5l-38 3v36h299v-36l-38 -3q-20 -2 -31.5 -4.5t-17 -10t-7 -21t-1.5 -35.5v-531q0 -27 5.5 -42t17.5 -22.5t30.5 -9t45.5 -1.5q56 0 90.5 3.5t57 13t37 26.5t29.5 44l41 72h32
l-51 -201h-539v36zM327 -90q21 0 40 -8t33.5 -22.5t23 -35t8.5 -45.5q0 -47 -37.5 -94t-109.5 -78l-10 22q47 23 67 53.5t20 65.5t-24.5 55t-65.5 27q-2 26 13.5 43t41.5 17z" />
    <glyph glyph-name="Ldot" unicode="&#x13f;" horiz-adv-x="655" 
d="M53 36l38 3q20 1 31 4t16.5 10.5t7 20.5t1.5 36v538q0 22 -1.5 35.5t-7 21t-16.5 10t-31 4.5l-38 3v36h299v-36l-38 -3q-20 -2 -31.5 -4.5t-17 -10t-7 -21t-1.5 -35.5v-531q0 -27 5.5 -42t17.5 -22.5t30.5 -9t45.5 -1.5q56 0 90.5 3.5t57 13t37 26.5t29.5 44l41 72h32
l-51 -201h-539v36zM525 350q-26 0 -43.5 17.5t-17.5 43.5q0 28 17.5 45.5t43.5 17.5t43.5 -17.5t17.5 -45.5q0 -26 -17.5 -43.5t-43.5 -17.5z" />
    <glyph glyph-name="glyph223" horiz-adv-x="655" 
d="M53 36l38 3q20 1 31 4t16.5 10.5t7 20.5t1.5 36v538q0 22 -1.5 35.5t-7 21t-16.5 10t-31 4.5l-38 3v36h299v-36l-38 -3q-20 -2 -31.5 -4.5t-17 -10t-7 -21t-1.5 -35.5v-531q0 -27 5.5 -42t17.5 -22.5t30.5 -9t45.5 -1.5q56 0 90.5 3.5t57 13t37 26.5t29.5 44l41 72h32
l-51 -201h-539v36zM525 350q-26 0 -43.5 17.5t-17.5 43.5q0 28 17.5 45.5t43.5 17.5t43.5 -17.5t17.5 -45.5q0 -26 -17.5 -43.5t-43.5 -17.5z" />
    <glyph glyph-name="Lslash" unicode="&#x141;" horiz-adv-x="655" 
d="M53 36l38 3q20 1 31 4t16.5 10.5t7 20.5t1.5 36v538q0 22 -1.5 35.5t-7 21t-16.5 10t-31 4.5l-38 3v36h299v-36l-38 -3q-20 -2 -31.5 -4.5t-17 -10t-7 -21t-1.5 -35.5v-531q0 -27 5.5 -42t17.5 -22.5t30.5 -9t45.5 -1.5q56 0 90.5 3.5t57 13t37 26.5t29.5 44l41 72h32
l-51 -201h-539v36zM16 287l373 193v-55l-373 -194v56z" />
    <glyph glyph-name="Eng" unicode="&#x14a;" horiz-adv-x="924" 
d="M851 719q-24 -1 -37.5 -6t-19.5 -23.5t-7.5 -55.5t-1.5 -102v-486q0 -38 -2.5 -66.5t-9 -52t-19 -42t-32.5 -36.5q-13 -12 -31.5 -26t-39 -29.5t-42.5 -31t-41 -28.5l-16 24q34 31 59.5 55t42.5 52.5t25.5 66.5t8.5 95v45l-483 533v-379q0 -65 1 -102t7.5 -55.5
t19.5 -23.5t37 -6l37 -3v-36h-257v36l37 3q24 1 37.5 6t20 23.5t7.5 55.5t1 102v375q0 64 -28.5 91t-94.5 30v36h176l528 -562v336q0 65 -1 102t-7.5 55.5t-19.5 23.5t-37 6l-37 3v36h256v-36z" />
    <glyph glyph-name="Nacute" unicode="&#x143;" horiz-adv-x="924" 
d="M205 605v-379q0 -65 1 -101.5t7.5 -55t19.5 -23.5t37 -7l37 -3v-36h-257v36l37 3q24 2 37.5 7t20 23.5t7.5 55t1 101.5v375q0 64 -28.5 91t-94.5 30v36h176l528 -562v336q0 65 -1 101.5t-7.5 55t-19.5 23.5t-37 7l-37 3v36h256v-36l-37 -3q-24 -2 -37.5 -7t-19.5 -23.5
t-7.5 -55t-1.5 -101.5v-536h-27zM696 969l-243 -126h-21l102 129h162v-3z" />
    <glyph glyph-name="Ncaron" unicode="&#x147;" horiz-adv-x="924" 
d="M205 605v-379q0 -65 1 -101.5t7.5 -55t19.5 -23.5t37 -7l37 -3v-36h-257v36l37 3q24 2 37.5 7t20 23.5t7.5 55t1 101.5v375q0 64 -28.5 91t-94.5 30v36h176l528 -562v336q0 65 -1 101.5t-7.5 55t-19.5 23.5t-37 7l-37 3v36h256v-36l-37 -3q-24 -2 -37.5 -7t-19.5 -23.5
t-7.5 -55t-1.5 -101.5v-536h-27zM293 986h23l150 -66l150 66h23l-165 -153h-16z" />
    <glyph glyph-name="uni0145" unicode="&#x145;" horiz-adv-x="924" 
d="M205 605v-379q0 -65 1 -101.5t7.5 -55t19.5 -23.5t37 -7l37 -3v-36h-257v36l37 3q24 2 37.5 7t20 23.5t7.5 55t1 101.5v375q0 64 -28.5 91t-94.5 30v36h176l528 -562v336q0 65 -1 101.5t-7.5 55t-19.5 23.5t-37 7l-37 3v36h256v-36l-37 -3q-24 -2 -37.5 -7t-19.5 -23.5
t-7.5 -55t-1.5 -101.5v-536h-27zM458 -90q21 0 40 -8t33.5 -22.5t23 -35t8.5 -45.5q0 -47 -37.5 -94t-109.5 -78l-10 22q47 23 67 53.5t20 65.5t-24.5 55t-65.5 27q-2 26 13.5 43t41.5 17z" />
    <glyph glyph-name="OE" unicode="&#x152;" horiz-adv-x="1258" 
d="M1063 521v-270h-33l-9 39q-6 26 -13.5 40.5t-18.5 21.5t-26 8.5t-36 1.5h-124v-245q0 -27 5.5 -42t16.5 -22.5t29 -9t44 -1.5h19q71 0 113 3.5t66.5 13t38.5 26.5t29 44l41 72h33l-52 -201h-489v99q-47 -53 -111.5 -82.5t-144.5 -29.5q-81 0 -153 29.5t-125.5 82
t-84.5 125t-31 159.5q0 86 31.5 159t85.5 125.5t125.5 82t151.5 29.5q81 0 145.5 -29t110.5 -81v89h148l291 2l8 -184h-32l-15 47q-10 33 -23 52t-38 28t-65 11t-104 2h-44q-20 0 -20 -20v-286h124q21 0 36 1.5t26 8t18.5 21t13.5 40.5l9 40h33zM453 31q51 0 97.5 19.5
t81 59.5t55 101t20.5 143q0 89 -20 159.5t-56.5 120t-88 75.5t-114.5 26q-51 0 -97 -19.5t-80.5 -59.5t-55 -101t-20.5 -143q0 -89 20 -159.5t56.5 -120t87.5 -75.5t114 -26z" />
    <glyph glyph-name="Obreve" unicode="&#x14e;" horiz-adv-x="881" 
d="M441 779q81 0 152.5 -29.5t125.5 -82t85 -125t31 -159.5t-31.5 -159.5t-85.5 -125t-125.5 -82t-151.5 -29.5q-81 0 -153 29.5t-125.5 82t-84.5 125t-31 159.5q0 86 31.5 159t85.5 125.5t125.5 82t151.5 29.5zM428 735q-51 0 -97 -19.5t-80.5 -59.5t-55 -101t-20.5 -143
q0 -89 20 -159.5t56.5 -120t87.5 -75.5t114 -26q51 0 97.5 19.5t81 59.5t55 101t20.5 143q0 89 -20 159.5t-56.5 120t-88 75.5t-114.5 26zM441 830q-28 0 -55 7.5t-49.5 26t-38 49.5t-20.5 77h55q7 -60 36.5 -86t71.5 -26t71.5 26t36.5 86h55q-5 -46 -20.5 -77t-38 -49.5
t-49.5 -26t-55 -7.5z" />
    <glyph glyph-name="Ohungarumlaut" unicode="&#x150;" horiz-adv-x="881" 
d="M441 779q81 0 152.5 -29.5t125.5 -82t85 -125t31 -159.5t-31.5 -159.5t-85.5 -125t-125.5 -82t-151.5 -29.5q-81 0 -153 29.5t-125.5 82t-84.5 125t-31 159.5q0 86 31.5 159t85.5 125.5t125.5 82t151.5 29.5zM428 735q-51 0 -97 -19.5t-80.5 -59.5t-55 -101t-20.5 -143
q0 -89 20 -159.5t56.5 -120t87.5 -75.5t114 -26q51 0 97.5 19.5t81 59.5t55 101t20.5 143q0 89 -20 159.5t-56.5 120t-88 75.5t-114.5 26zM582 969l-243 -126h-21l102 129h162v-3zM784 969l-244 -126h-21l102 129h163v-3z" />
    <glyph glyph-name="Omacron" unicode="&#x14c;" horiz-adv-x="881" 
d="M441 779q81 0 152.5 -29.5t125.5 -82t85 -125t31 -159.5t-31.5 -159.5t-85.5 -125t-125.5 -82t-151.5 -29.5q-81 0 -153 29.5t-125.5 82t-84.5 125t-31 159.5q0 86 31.5 159t85.5 125.5t125.5 82t151.5 29.5zM428 735q-51 0 -97 -19.5t-80.5 -59.5t-55 -101t-20.5 -143
q0 -89 20 -159.5t56.5 -120t87.5 -75.5t114 -26q51 0 97.5 19.5t81 59.5t55 101t20.5 143q0 89 -20 159.5t-56.5 120t-88 75.5t-114.5 26zM293 939h296v-65h-296v65z" />
    <glyph glyph-name="uni1ECC" unicode="&#x1ecc;" horiz-adv-x="881" 
d="M441 779q81 0 152.5 -29.5t125.5 -82t85 -125t31 -159.5t-31.5 -159.5t-85.5 -125t-125.5 -82t-151.5 -29.5q-81 0 -153 29.5t-125.5 82t-84.5 125t-31 159.5q0 86 31.5 159t85.5 125.5t125.5 82t151.5 29.5zM428 735q-51 0 -97 -19.5t-80.5 -59.5t-55 -101t-20.5 -143
q0 -89 20 -159.5t56.5 -120t87.5 -75.5t114 -26q51 0 97.5 19.5t81 59.5t55 101t20.5 143q0 89 -20 159.5t-56.5 120t-88 75.5t-114.5 26zM448 -244q-26 0 -43.5 18t-17.5 44q0 27 17.5 45t43.5 18t43.5 -18t17.5 -45q0 -26 -17.5 -44t-43.5 -18z" />
    <glyph glyph-name="Racute" unicode="&#x154;" horiz-adv-x="760" 
d="M324 758q70 0 127 -10t97 -32t61.5 -56.5t21.5 -83.5q0 -75 -50 -124t-137 -73q24 -31 52.5 -68t58 -74.5t58 -73t52.5 -63.5q14 -17 24.5 -28.5t20.5 -19t20 -11t24 -3.5l24 -2v-36h-185l-261 358h-75v-248q0 -24 1.5 -37.5t8.5 -20.5t21 -9t38 -3l37 -2v-38h-310v36
l38 3q20 1 31 4t16.5 10.5t7 20.5t1.5 36v538q0 22 -1.5 35.5t-7 21t-16.5 10t-31 4.5l-38 3v36h271zM257 399q12 -2 29.5 -2h28.5q57 0 95 13t60.5 35t31.5 50.5t9 58.5q0 31 -7.5 60.5t-29 52.5t-60 37t-99.5 14q-39 0 -48.5 -4t-9.5 -19v-296zM583 969l-243 -126h-21
l102 129h162v-3z" />
    <glyph glyph-name="Rcaron" unicode="&#x158;" horiz-adv-x="760" 
d="M324 758q70 0 127 -10t97 -32t61.5 -56.5t21.5 -83.5q0 -75 -50 -124t-137 -73q24 -31 52.5 -68t58 -74.5t58 -73t52.5 -63.5q14 -17 24.5 -28.5t20.5 -19t20 -11t24 -3.5l24 -2v-36h-185l-261 358h-75v-248q0 -24 1.5 -37.5t8.5 -20.5t21 -9t38 -3l37 -2v-38h-310v36
l38 3q20 1 31 4t16.5 10.5t7 20.5t1.5 36v538q0 22 -1.5 35.5t-7 21t-16.5 10t-31 4.5l-38 3v36h271zM257 399q12 -2 29.5 -2h28.5q57 0 95 13t60.5 35t31.5 50.5t9 58.5q0 31 -7.5 60.5t-29 52.5t-60 37t-99.5 14q-39 0 -48.5 -4t-9.5 -19v-296zM180 986h23l150 -66l150 66
h23l-165 -153h-16z" />
    <glyph glyph-name="uni0156" unicode="&#x156;" horiz-adv-x="760" 
d="M324 758q70 0 127 -10t97 -32t61.5 -56.5t21.5 -83.5q0 -75 -50 -124t-137 -73q24 -31 52.5 -68t58 -74.5t58 -73t52.5 -63.5q14 -17 24.5 -28.5t20.5 -19t20 -11t24 -3.5l24 -2v-36h-185l-261 358h-75v-248q0 -24 1.5 -37.5t8.5 -20.5t21 -9t38 -3l37 -2v-38h-310v36
l38 3q20 1 31 4t16.5 10.5t7 20.5t1.5 36v538q0 22 -1.5 35.5t-7 21t-16.5 10t-31 4.5l-38 3v36h271zM257 399q12 -2 29.5 -2h28.5q57 0 95 13t60.5 35t31.5 50.5t9 58.5q0 31 -7.5 60.5t-29 52.5t-60 37t-99.5 14q-39 0 -48.5 -4t-9.5 -19v-296zM437 -90q21 0 40 -8
t33.5 -22.5t23 -35t8.5 -45.5q0 -47 -37.5 -94t-109.5 -78l-10 22q47 23 67 53.5t20 65.5t-24.5 55t-65.5 27q-2 26 13.5 43t41.5 17z" />
    <glyph glyph-name="Sacute" unicode="&#x15a;" horiz-adv-x="602" 
d="M287 -13q-56 0 -104.5 11.5t-91.5 29.5l-40 205l30 7l62 -120q26 -50 61 -68.5t86 -18.5q35 0 65 7.5t52.5 24t35.5 41.5t13 61q0 29 -11 53t-29.5 43.5t-43.5 35t-53 27.5l-69 30q-91 40 -132.5 92t-41.5 124q0 46 19 84t50.5 65.5t73.5 42.5t88 15q95 0 165 -26
l33 -173l-30 -7l-59 96q-22 35 -48 49.5t-65 14.5q-29 0 -54 -7t-43.5 -21.5t-29.5 -37t-11 -53.5q0 -54 31.5 -90t87.5 -59l69 -29q43 -18 80 -38t63 -46t41 -59.5t15 -79.5q0 -53 -23.5 -94.5t-61 -71t-85 -45t-95.5 -15.5zM530 969l-243 -126h-21l102 129h162v-3z" />
    <glyph glyph-name="Scaron" unicode="&#x160;" horiz-adv-x="602" 
d="M287 -13q-56 0 -104.5 11.5t-91.5 29.5l-40 205l30 7l62 -120q26 -50 61 -68.5t86 -18.5q35 0 65 7.5t52.5 24t35.5 41.5t13 61q0 29 -11 53t-29.5 43.5t-43.5 35t-53 27.5l-69 30q-91 40 -132.5 92t-41.5 124q0 46 19 84t50.5 65.5t73.5 42.5t88 15q95 0 165 -26
l33 -173l-30 -7l-59 96q-22 35 -48 49.5t-65 14.5q-29 0 -54 -7t-43.5 -21.5t-29.5 -37t-11 -53.5q0 -54 31.5 -90t87.5 -59l69 -29q43 -18 80 -38t63 -46t41 -59.5t15 -79.5q0 -53 -23.5 -94.5t-61 -71t-85 -45t-95.5 -15.5zM128 986h23l150 -66l150 66h23l-165 -153h-16z
" />
    <glyph glyph-name="Scedilla" unicode="&#x15e;" horiz-adv-x="602" 
d="M287 -13q-56 0 -104.5 11.5t-91.5 29.5l-40 205l30 7l62 -120q26 -50 61 -68.5t86 -18.5q35 0 65 7.5t52.5 24t35.5 41.5t13 61q0 29 -11 53t-29.5 43.5t-43.5 35t-53 27.5l-69 30q-91 40 -132.5 92t-41.5 124q0 46 19 84t50.5 65.5t73.5 42.5t88 15q95 0 165 -26
l33 -173l-30 -7l-59 96q-22 35 -48 49.5t-65 14.5q-29 0 -54 -7t-43.5 -21.5t-29.5 -37t-11 -53.5q0 -54 31.5 -90t87.5 -59l69 -29q43 -18 80 -38t63 -46t41 -59.5t15 -79.5q0 -53 -23.5 -94.5t-61 -71t-85 -45t-95.5 -15.5zM251 -266q-15 0 -30 3t-27.5 9t-20 15t-7.5 21
q0 14 12.5 25.5t38.5 6.5q0 -26 18.5 -38.5t41.5 -12.5q18 0 29.5 9t11.5 22q0 20 -34 41t-84 43l118 126h37l-75 -81q44 -22 66 -43t22 -53q0 -16 -8 -32.5t-23.5 -30t-37 -22t-48.5 -8.5z" />
    <glyph glyph-name="Scircumflex" unicode="&#x15c;" horiz-adv-x="602" 
d="M287 -13q-56 0 -104.5 11.5t-91.5 29.5l-40 205l30 7l62 -120q26 -50 61 -68.5t86 -18.5q35 0 65 7.5t52.5 24t35.5 41.5t13 61q0 29 -11 53t-29.5 43.5t-43.5 35t-53 27.5l-69 30q-91 40 -132.5 92t-41.5 124q0 46 19 84t50.5 65.5t73.5 42.5t88 15q95 0 165 -26
l33 -173l-30 -7l-59 96q-22 35 -48 49.5t-65 14.5q-29 0 -54 -7t-43.5 -21.5t-29.5 -37t-11 -53.5q0 -54 31.5 -90t87.5 -59l69 -29q43 -18 80 -38t63 -46t41 -59.5t15 -79.5q0 -53 -23.5 -94.5t-61 -71t-85 -45t-95.5 -15.5zM310 986l165 -153h-23l-150 66l-150 -66h-23
l165 153h16z" />
    <glyph glyph-name="uni0218" unicode="&#x218;" horiz-adv-x="602" 
d="M287 -13q-56 0 -104.5 11.5t-91.5 29.5l-40 205l30 7l62 -120q26 -50 61 -68.5t86 -18.5q35 0 65 7.5t52.5 24t35.5 41.5t13 61q0 29 -11 53t-29.5 43.5t-43.5 35t-53 27.5l-69 30q-91 40 -132.5 92t-41.5 124q0 46 19 84t50.5 65.5t73.5 42.5t88 15q95 0 165 -26
l33 -173l-30 -7l-59 96q-22 35 -48 49.5t-65 14.5q-29 0 -54 -7t-43.5 -21.5t-29.5 -37t-11 -53.5q0 -54 31.5 -90t87.5 -59l69 -29q43 -18 80 -38t63 -46t41 -59.5t15 -79.5q0 -53 -23.5 -94.5t-61 -71t-85 -45t-95.5 -15.5zM307 -90q21 0 40 -8t33.5 -22.5t23 -35
t8.5 -45.5q0 -47 -37.5 -94t-109.5 -78l-10 22q47 23 67 53.5t20 65.5t-24.5 55t-65.5 27q-2 26 13.5 43t41.5 17z" />
    <glyph glyph-name="Tbar" unicode="&#x166;" horiz-adv-x="745" 
d="M494 758q57 0 93 1t58.5 4.5t36.5 9.5t28 17h8l13 -214h-32l-15 47q-11 33 -24 52t-37 28t-63.5 11t-103.5 2h-28v-605q0 -24 1.5 -38t8 -21t20.5 -9t39 -3l44 -2v-38h-336v38l44 2q24 1 38 3t21 9t8.5 21t1.5 38v605h-28q-64 0 -103.5 -2t-63.5 -11t-37.5 -28t-23.5 -52
l-15 -47h-32l13 214h8q14 -11 28 -17t36.5 -9.5t58.5 -4.5t93 -1h242zM121 411h505v-50h-505v50z" />
    <glyph glyph-name="Tcaron" unicode="&#x164;" horiz-adv-x="745" 
d="M494 758q57 0 93 1t58.5 4.5t36.5 9.5t28 17h8l13 -214h-32l-15 47q-11 33 -24 52t-37 28t-63.5 11t-103.5 2h-28v-605q0 -24 1.5 -38t8 -21t20.5 -9t39 -3l44 -2v-38h-336v38l44 2q24 1 38 3t21 9t8.5 21t1.5 38v605h-28q-64 0 -103.5 -2t-63.5 -11t-37.5 -28t-23.5 -52
l-15 -47h-32l13 214h8q14 -11 28 -17t36.5 -9.5t58.5 -4.5t93 -1h242zM199 986h23l150 -66l150 66h23l-165 -153h-16z" />
    <glyph glyph-name="uni0162" unicode="&#x162;" horiz-adv-x="746" 
d="M494 758q57 0 93 1t58.5 4.5t36.5 9.5t28 17h8l13 -214h-32l-15 47q-11 33 -24 52t-37 28t-63.5 11t-103.5 2h-28v-605q0 -24 1.5 -38t8 -21t20.5 -9t39 -3l44 -2v-38h-336v38l44 2q24 1 38 3t21 9t8.5 21t1.5 38v605h-28q-64 0 -103.5 -2t-63.5 -11t-37.5 -28t-23.5 -52
l-15 -47h-32l13 214h8q14 -11 28 -17t36.5 -9.5t58.5 -4.5t93 -1h242zM349 -90q21 0 40 -8t33.5 -22.5t23 -35t8.5 -45.5q0 -47 -37.5 -94t-109.5 -78l-10 22q47 23 67 53.5t20 65.5t-24.5 55t-65.5 27q-2 26 13.5 43t41.5 17z" />
    <glyph glyph-name="uni021A" unicode="&#x21a;" horiz-adv-x="746" 
d="M494 758q57 0 93 1t58.5 4.5t36.5 9.5t28 17h8l13 -214h-32l-15 47q-11 33 -24 52t-37 28t-63.5 11t-103.5 2h-28v-605q0 -24 1.5 -38t8 -21t20.5 -9t39 -3l44 -2v-38h-336v38l44 2q24 1 38 3t21 9t8.5 21t1.5 38v605h-28q-64 0 -103.5 -2t-63.5 -11t-37.5 -28t-23.5 -52
l-15 -47h-32l13 214h8q14 -11 28 -17t36.5 -9.5t58.5 -4.5t93 -1h242zM349 -90q21 0 40 -8t33.5 -22.5t23 -35t8.5 -45.5q0 -47 -37.5 -94t-109.5 -78l-10 22q47 23 67 53.5t20 65.5t-24.5 55t-65.5 27q-2 26 13.5 43t41.5 17z" />
    <glyph glyph-name="Ubreve" unicode="&#x16c;" horiz-adv-x="843" 
d="M423 -13q-71 0 -126.5 17t-93.5 54t-58 95.5t-20 141.5v353q0 22 -1.5 35.5t-7 21t-16.5 10t-31 4.5l-38 3v36h299v-36l-38 -3q-20 -2 -31.5 -4.5t-17 -10t-7 -21t-1.5 -35.5v-354q0 -70 15 -118.5t42.5 -78.5t66 -43.5t85.5 -13.5q49 0 89 13.5t68 44t43 79t15 117.5
v238q0 65 -1 102t-7 55.5t-19.5 23.5t-37.5 7l-37 2v36h261v-36l-37 -2q-24 -2 -37.5 -7t-20 -23.5t-7.5 -55.5t-1 -102v-237q0 -81 -20 -139.5t-57.5 -96t-91.5 -55t-123 -17.5zM445 830q-28 0 -55 7.5t-49.5 26t-38 49.5t-20.5 77h55q7 -60 36.5 -86t71.5 -26t71.5 26
t36.5 86h55q-5 -46 -20.5 -77t-38 -49.5t-49.5 -26t-55 -7.5z" />
    <glyph glyph-name="Uhungarumlaut" unicode="&#x170;" horiz-adv-x="843" 
d="M423 -13q-71 0 -126.5 17t-93.5 54t-58 95.5t-20 141.5v353q0 22 -1.5 35.5t-7 21t-16.5 10t-31 4.5l-38 3v36h299v-36l-38 -3q-20 -2 -31.5 -4.5t-17 -10t-7 -21t-1.5 -35.5v-354q0 -70 15 -118.5t42.5 -78.5t66 -43.5t85.5 -13.5q49 0 89 13.5t68 44t43 79t15 117.5
v238q0 65 -1 102t-7 55.5t-19.5 23.5t-37.5 7l-37 2v36h261v-36l-37 -2q-24 -2 -37.5 -7t-20 -23.5t-7.5 -55.5t-1 -102v-237q0 -81 -20 -139.5t-57.5 -96t-91.5 -55t-123 -17.5zM586 969l-243 -126h-21l102 129h162v-3zM788 969l-244 -126h-21l102 129h163v-3z" />
    <glyph glyph-name="Umacron" unicode="&#x16a;" horiz-adv-x="843" 
d="M423 -13q-71 0 -126.5 17t-93.5 54t-58 95.5t-20 141.5v353q0 22 -1.5 35.5t-7 21t-16.5 10t-31 4.5l-38 3v36h299v-36l-38 -3q-20 -2 -31.5 -4.5t-17 -10t-7 -21t-1.5 -35.5v-354q0 -70 15 -118.5t42.5 -78.5t66 -43.5t85.5 -13.5q49 0 89 13.5t68 44t43 79t15 117.5
v238q0 65 -1 102t-7 55.5t-19.5 23.5t-37.5 7l-37 2v36h261v-36l-37 -2q-24 -2 -37.5 -7t-20 -23.5t-7.5 -55.5t-1 -102v-237q0 -81 -20 -139.5t-57.5 -96t-91.5 -55t-123 -17.5zM297 939h296v-65h-296v65z" />
    <glyph glyph-name="Uogonek" unicode="&#x172;" horiz-adv-x="843" 
d="M423 -13q-71 0 -126.5 17t-93.5 54t-58 95.5t-20 141.5v353q0 22 -1.5 35.5t-7 21t-16.5 10t-31 4.5l-38 3v36h299v-36l-38 -3q-20 -2 -31.5 -4.5t-17 -10t-7 -21t-1.5 -35.5v-354q0 -70 15 -118.5t42.5 -78.5t66 -43.5t85.5 -13.5q49 0 89 13.5t68 44t43 79t15 117.5
v238q0 65 -1 102t-7 55.5t-19.5 23.5t-37.5 7l-37 2v36h261v-36l-37 -2q-24 -2 -37.5 -7t-20 -23.5t-7.5 -55.5t-1 -102v-237q0 -144 -61.5 -217t-171.5 -87q-24 -23 -42.5 -53.5t-18.5 -62.5q0 -22 10.5 -35.5t27.5 -19.5t40 -5.5t47 6.5v-28q-17 -8 -45 -17.5t-57 -9.5
q-42 0 -72 21.5t-30 63.5q0 17 9 35t23.5 35.5t32.5 34.5t36 32q-5 -1 -10 -1h-10z" />
    <glyph glyph-name="Uring" unicode="&#x16e;" horiz-adv-x="843" 
d="M423 -13q-71 0 -126.5 17t-93.5 54t-58 95.5t-20 141.5v353q0 22 -1.5 35.5t-7 21t-16.5 10t-31 4.5l-38 3v36h299v-36l-38 -3q-20 -2 -31.5 -4.5t-17 -10t-7 -21t-1.5 -35.5v-354q0 -70 15 -118.5t42.5 -78.5t66 -43.5t85.5 -13.5q49 0 89 13.5t68 44t43 79t15 117.5
v238q0 65 -1 102t-7 55.5t-19.5 23.5t-37.5 7l-37 2v36h261v-36l-37 -2q-24 -2 -37.5 -7t-20 -23.5t-7.5 -55.5t-1 -102v-237q0 -81 -20 -139.5t-57.5 -96t-91.5 -55t-123 -17.5zM321 963q0 25 9.5 46.5t26.5 38t39 26t48 9.5t49 -9.5t40 -26t26.5 -38t9.5 -46.5t-9.5 -46.5
t-26.5 -37.5t-40 -25t-49 -9t-48 9t-39 25t-26.5 37.5t-9.5 46.5zM514 963q0 32 -18.5 51t-51.5 19q-32 0 -49.5 -19t-17.5 -51t17.5 -51t49.5 -19q33 0 51.5 19t18.5 51z" />
    <glyph glyph-name="Utilde" unicode="&#x168;" horiz-adv-x="843" 
d="M423 -13q-71 0 -126.5 17t-93.5 54t-58 95.5t-20 141.5v353q0 22 -1.5 35.5t-7 21t-16.5 10t-31 4.5l-38 3v36h299v-36l-38 -3q-20 -2 -31.5 -4.5t-17 -10t-7 -21t-1.5 -35.5v-354q0 -70 15 -118.5t42.5 -78.5t66 -43.5t85.5 -13.5q49 0 89 13.5t68 44t43 79t15 117.5
v238q0 65 -1 102t-7 55.5t-19.5 23.5t-37.5 7l-37 2v36h261v-36l-37 -2q-24 -2 -37.5 -7t-20 -23.5t-7.5 -55.5t-1 -102v-237q0 -81 -20 -139.5t-57.5 -96t-91.5 -55t-123 -17.5zM275 833q0 23 5.5 48t17.5 46t30 34.5t43 13.5q21 0 43.5 -10t45 -21.5t42.5 -21.5t37 -10
q27 0 40 14t15 46h21q0 -41 -8 -67t-20.5 -42t-28 -22t-31.5 -6q-25 0 -48 10t-44.5 21.5t-42 21.5t-40.5 10q-24 0 -39 -17t-17 -48h-21z" />
    <glyph glyph-name="uni1EE4" unicode="&#x1ee4;" horiz-adv-x="843" 
d="M423 -13q-71 0 -126.5 17t-93.5 54t-58 95.5t-20 141.5v353q0 22 -1.5 35.5t-7 21t-16.5 10t-31 4.5l-38 3v36h299v-36l-38 -3q-20 -2 -31.5 -4.5t-17 -10t-7 -21t-1.5 -35.5v-354q0 -70 15 -118.5t42.5 -78.5t66 -43.5t85.5 -13.5q49 0 89 13.5t68 44t43 79t15 117.5
v238q0 65 -1 102t-7 55.5t-19.5 23.5t-37.5 7l-37 2v36h261v-36l-37 -2q-24 -2 -37.5 -7t-20 -23.5t-7.5 -55.5t-1 -102v-237q0 -81 -20 -139.5t-57.5 -96t-91.5 -55t-123 -17.5zM435 -244q-26 0 -43.5 18t-17.5 44q0 27 17.5 45t43.5 18t43.5 -18t17.5 -45q0 -26 -17.5 -44
t-43.5 -18z" />
    <glyph glyph-name="Wacute" unicode="&#x1e82;" horiz-adv-x="1127" 
d="M81 674q-6 15 -11 23.5t-11 13t-14.5 6t-21.5 2.5l-34 3v36h290v-36l-48 -3q-14 -1 -22.5 -2.5t-12 -6.5t-2 -15t8.5 -28l201 -523l139 375l-85 239h231v-36l-48 -3q-14 -1 -22.5 -2.5t-11.5 -6.5t-1.5 -15t7.5 -28l171 -523l170 457q13 35 18.5 57t3.5 35t-12 18t-28 7
l-43 4v36h247v-36l-23 -3q-21 -3 -34.5 -7t-23.5 -15.5t-20.5 -34.5t-25.5 -63l-238 -619h-40l-163 459l-177 -459h-41zM793 969l-243 -126h-21l102 129h162v-3z" />
    <glyph glyph-name="Wcircumflex" unicode="&#x174;" horiz-adv-x="1127" 
d="M81 674q-6 15 -11 23.5t-11 13t-14.5 6t-21.5 2.5l-34 3v36h290v-36l-48 -3q-14 -1 -22.5 -2.5t-12 -6.5t-2 -15t8.5 -28l201 -523l139 375l-85 239h231v-36l-48 -3q-14 -1 -22.5 -2.5t-11.5 -6.5t-1.5 -15t7.5 -28l171 -523l170 457q13 35 18.5 57t3.5 35t-12 18t-28 7
l-43 4v36h247v-36l-23 -3q-21 -3 -34.5 -7t-23.5 -15.5t-20.5 -34.5t-25.5 -63l-238 -619h-40l-163 459l-177 -459h-41zM572 986l165 -153h-23l-150 66l-150 -66h-23l165 153h16z" />
    <glyph glyph-name="Wdieresis" unicode="&#x1e84;" horiz-adv-x="1127" 
d="M81 674q-6 15 -11 23.5t-11 13t-14.5 6t-21.5 2.5l-34 3v36h290v-36l-48 -3q-14 -1 -22.5 -2.5t-12 -6.5t-2 -15t8.5 -28l201 -523l139 375l-85 239h231v-36l-48 -3q-14 -1 -22.5 -2.5t-11.5 -6.5t-1.5 -15t7.5 -28l171 -523l170 457q13 35 18.5 57t3.5 35t-12 18t-28 7
l-43 4v36h247v-36l-23 -3q-21 -3 -34.5 -7t-23.5 -15.5t-20.5 -34.5t-25.5 -63l-238 -619h-40l-163 459l-177 -459h-41zM438 845q-26 0 -43.5 17.5t-17.5 43.5q0 28 17.5 45.5t43.5 17.5t43.5 -17.5t17.5 -45.5q0 -26 -17.5 -43.5t-43.5 -17.5zM690 845q-26 0 -43.5 17.5
t-17.5 43.5q0 28 17.5 45.5t43.5 17.5t43.5 -17.5t17.5 -45.5q0 -26 -17.5 -43.5t-43.5 -17.5z" />
    <glyph glyph-name="Wgrave" unicode="&#x1e80;" horiz-adv-x="1127" 
d="M81 674q-6 15 -11 23.5t-11 13t-14.5 6t-21.5 2.5l-34 3v36h290v-36l-48 -3q-14 -1 -22.5 -2.5t-12 -6.5t-2 -15t8.5 -28l201 -523l139 375l-85 239h231v-36l-48 -3q-14 -1 -22.5 -2.5t-11.5 -6.5t-1.5 -15t7.5 -28l171 -523l170 457q13 35 18.5 57t3.5 35t-12 18t-28 7
l-43 4v36h247v-36l-23 -3q-21 -3 -34.5 -7t-23.5 -15.5t-20.5 -34.5t-25.5 -63l-238 -619h-40l-163 459l-177 -459h-41zM516 972l102 -129h-21l-243 126v3h162z" />
    <glyph glyph-name="Ycircumflex" unicode="&#x176;" horiz-adv-x="746" 
d="M203 38l44 2q24 1 38 3t21 9t8.5 21t1.5 38v221l-226 360q-9 15 -17.5 20t-34.5 7l-34 3v36h297v-36l-49 -3q-28 -2 -37.5 -8.5t4.5 -29.5l187 -298l141 218q41 63 42.5 90t-43.5 29l-38 2v36h249v-36l-32 -2q-17 -1 -29 -6.5t-24.5 -19t-28 -36.5t-39.5 -59l-178 -269
v-219q0 -24 1.5 -38t8.5 -21t21 -9t38 -3l44 -2v-38h-336v38zM407 986l165 -153h-23l-150 66l-150 -66h-23l165 153h16z" />
    <glyph glyph-name="Ydieresis" unicode="&#x178;" horiz-adv-x="746" 
d="M203 38l44 2q24 1 38 3t21 9t8.5 21t1.5 38v221l-226 360q-9 15 -17.5 20t-34.5 7l-34 3v36h297v-36l-49 -3q-28 -2 -37.5 -8.5t4.5 -29.5l187 -298l141 218q41 63 42.5 90t-43.5 29l-38 2v36h249v-36l-32 -2q-17 -1 -29 -6.5t-24.5 -19t-28 -36.5t-39.5 -59l-178 -269
v-219q0 -24 1.5 -38t8.5 -21t21 -9t38 -3l44 -2v-38h-336v38zM273 845q-26 0 -43.5 17.5t-17.5 43.5q0 28 17.5 45.5t43.5 17.5t43.5 -17.5t17.5 -45.5q0 -26 -17.5 -43.5t-43.5 -17.5zM525 845q-26 0 -43.5 17.5t-17.5 43.5q0 28 17.5 45.5t43.5 17.5t43.5 -17.5
t17.5 -45.5q0 -26 -17.5 -43.5t-43.5 -17.5z" />
    <glyph glyph-name="Ygrave" unicode="&#x1ef2;" horiz-adv-x="746" 
d="M203 38l44 2q24 1 38 3t21 9t8.5 21t1.5 38v221l-226 360q-9 15 -17.5 20t-34.5 7l-34 3v36h297v-36l-49 -3q-28 -2 -37.5 -8.5t4.5 -29.5l187 -298l141 218q41 63 42.5 90t-43.5 29l-38 2v36h249v-36l-32 -2q-17 -1 -29 -6.5t-24.5 -19t-28 -36.5t-39.5 -59l-178 -269
v-219q0 -24 1.5 -38t8.5 -21t21 -9t38 -3l44 -2v-38h-336v38zM350 972l102 -129h-21l-243 126v3h162z" />
    <glyph glyph-name="uni0232" unicode="&#x232;" horiz-adv-x="746" 
d="M203 38l44 2q24 1 38 3t21 9t8.5 21t1.5 38v221l-226 360q-9 15 -17.5 20t-34.5 7l-34 3v36h297v-36l-49 -3q-28 -2 -37.5 -8.5t4.5 -29.5l187 -298l141 218q41 63 42.5 90t-43.5 29l-38 2v36h249v-36l-32 -2q-17 -1 -29 -6.5t-24.5 -19t-28 -36.5t-39.5 -59l-178 -269
v-219q0 -24 1.5 -38t8.5 -21t21 -9t38 -3l44 -2v-38h-336v38zM251 939h296v-65h-296v65z" />
    <glyph glyph-name="Zacute" unicode="&#x179;" horiz-adv-x="747" 
d="M562 716h-186q-71 0 -113 -3.5t-66.5 -13t-38.5 -26.5t-29 -44l-41 -72h-32l61 233h9q14 -11 30.5 -17t41 -9.5t59 -4.5t85.5 -1h380l-555 -716h226q71 0 112.5 3.5t66.5 13t39 26.5t29 44l41 72h32l-52 -201h-654zM643 969l-243 -126h-21l102 129h162v-3z" />
    <glyph glyph-name="Zcaron" unicode="&#x17d;" horiz-adv-x="747" 
d="M562 716h-186q-71 0 -113 -3.5t-66.5 -13t-38.5 -26.5t-29 -44l-41 -72h-32l61 233h9q14 -11 30.5 -17t41 -9.5t59 -4.5t85.5 -1h380l-555 -716h226q71 0 112.5 3.5t66.5 13t39 26.5t29 44l41 72h32l-52 -201h-654zM240 986h23l150 -66l150 66h23l-165 -153h-16z" />
    <glyph glyph-name="Zdotaccent" unicode="&#x17b;" horiz-adv-x="747" 
d="M562 716h-186q-71 0 -113 -3.5t-66.5 -13t-38.5 -26.5t-29 -44l-41 -72h-32l61 233h9q14 -11 30.5 -17t41 -9.5t59 -4.5t85.5 -1h380l-555 -716h226q71 0 112.5 3.5t66.5 13t39 26.5t29 44l41 72h32l-52 -201h-654zM414 845q-26 0 -43.5 17.5t-17.5 43.5q0 28 17.5 45.5
t43.5 17.5t43.5 -17.5t17.5 -45.5q0 -26 -17.5 -43.5t-43.5 -17.5z" />
    <glyph glyph-name="uni018F" unicode="&#x18f;" horiz-adv-x="795" 
d="M382 -13q-67 0 -126 21.5t-105 63t-75 101t-36 136.5h584q1 11 1.5 21.5t0.5 21.5q0 77 -18 141.5t-52.5 111t-85.5 72.5t-117 26q-37 0 -74 -7t-72.5 -25.5t-68 -49.5t-60.5 -79l-33 16q23 56 59 99t79.5 71.5t93.5 43t102 14.5q89 0 157.5 -30t115 -83.5t70.5 -126.5
t24 -160q0 -89 -28.5 -162t-78 -126t-115.5 -82t-142 -29zM394 30q50 0 89.5 20.5t67.5 54t45 75.5t23 86h-448q6 -61 27 -105.5t52 -73.5t68 -43t76 -14z" />
    <glyph glyph-name="abreve" unicode="&#x103;" horiz-adv-x="530" 
d="M200 -13q-29 0 -57 11t-49.5 29.5t-35 43.5t-13.5 54q0 28 11.5 49.5t33.5 38.5t55 32t76 30q16 6 33 13.5t33 16.5t29 19t20 20v29q0 26 -8.5 45.5t-22 32t-31 18.5t-35.5 6q-31 0 -51.5 -9.5t-32 -26.5t-16 -40t-4.5 -50q-6 -3 -14.5 -4t-16.5 -1h-2q-25 0 -40 13
t-15 36q0 21 23.5 40.5t67.5 38.5q36 15 76.5 31.5t79.5 16.5q30 0 55.5 -6.5t43.5 -22.5t28 -43.5t9 -69.5l-5 -286q-1 -26 3 -32t21 -6q15 0 30 1t28 3l4 -31l-31 -12q-8 -3 -19 -7.5t-23 -8.5t-24 -6.5t-21 -2.5q-25 0 -37 15.5t-19 49.5q-15 -13 -31 -25t-34 -23
q-34 -20 -72 -20zM253 42q26 0 49 14t28 36l5 209q-18 -12 -38 -23t-40 -21q-21 -11 -40.5 -22.5t-34 -25t-23.5 -30t-9 -37.5q0 -25 9.5 -44t24.5 -31.5t33.5 -18.5t35.5 -6zM268 628q-28 0 -55 7.5t-49.5 26t-38 49.5t-20.5 77h55q7 -60 36.5 -85.5t71.5 -25.5t71.5 25.5
t36.5 85.5h55q-5 -46 -20.5 -77t-38 -49.5t-49.5 -26t-55 -7.5z" />
    <glyph glyph-name="amacron" unicode="&#x101;" horiz-adv-x="530" 
d="M200 -13q-29 0 -57 11t-49.5 29.5t-35 43.5t-13.5 54q0 28 11.5 49.5t33.5 38.5t55 32t76 30q16 6 33 13.5t33 16.5t29 19t20 20v29q0 26 -8.5 45.5t-22 32t-31 18.5t-35.5 6q-31 0 -51.5 -9.5t-32 -26.5t-16 -40t-4.5 -50q-6 -3 -14.5 -4t-16.5 -1h-2q-25 0 -40 13
t-15 36q0 21 23.5 40.5t67.5 38.5q36 15 76.5 31.5t79.5 16.5q30 0 55.5 -6.5t43.5 -22.5t28 -43.5t9 -69.5l-5 -286q-1 -26 3 -32t21 -6q15 0 30 1t28 3l4 -31l-31 -12q-8 -3 -19 -7.5t-23 -8.5t-24 -6.5t-21 -2.5q-25 0 -37 15.5t-19 49.5q-15 -13 -31 -25t-34 -23
q-34 -20 -72 -20zM253 42q26 0 49 14t28 36l5 209q-18 -12 -38 -23t-40 -21q-21 -11 -40.5 -22.5t-34 -25t-23.5 -30t-9 -37.5q0 -25 9.5 -44t24.5 -31.5t33.5 -18.5t35.5 -6zM120 735h296v-65h-296v65z" />
    <glyph glyph-name="aogonek" unicode="&#x105;" horiz-adv-x="530" 
d="M200 -13q-29 0 -57 11t-49.5 29.5t-35 43.5t-13.5 54q0 28 11.5 49.5t33.5 38.5t55 32t76 30q16 6 33 13.5t33 16.5t29 19t20 20v29q0 26 -8.5 45.5t-22 32t-31 18.5t-35.5 6q-31 0 -51.5 -9.5t-32 -26.5t-16 -40t-4.5 -50q-6 -3 -14.5 -4t-16.5 -1h-2q-25 0 -40 13
t-15 36q0 21 23.5 40.5t67.5 38.5q36 15 76.5 31.5t79.5 16.5q30 0 55.5 -6.5t43.5 -22.5t28 -43.5t9 -69.5l-5 -286q-1 -26 3 -32t21 -6q15 0 30 1t28 3l4 -31l-31 -12q-9 -4 -22.5 -9t-27.5 -9q-25 -23 -45.5 -55.5t-20.5 -66.5q0 -22 10.5 -35.5t27.5 -19.5t40 -5.5
t47 6.5v-28q-17 -8 -45 -17.5t-57 -9.5q-42 0 -72 21.5t-30 63.5q0 18 9.5 36t24.5 36t34 35t37 32q-23 1 -35 16.5t-18 48.5q-15 -13 -31 -25t-34 -23q-34 -20 -72 -20zM253 42q26 0 49 14t28 36l5 209q-18 -12 -38 -23t-40 -21q-21 -11 -40.5 -22.5t-34 -25t-23.5 -30
t-9 -37.5q0 -25 9.5 -44t24.5 -31.5t33.5 -18.5t35.5 -6z" />
    <glyph glyph-name="cacute" unicode="&#x107;" horiz-adv-x="512" 
d="M280 -13q-54 0 -98 20t-75.5 55t-48.5 81t-17 99q0 62 22 113t60.5 87t89 56t107.5 20q27 0 53 -4t46.5 -12.5t33 -22.5t12.5 -34q0 -27 -16.5 -44t-47.5 -14q-20 38 -51 62t-77 24q-27 0 -52 -12t-44.5 -35t-31.5 -56t-12 -75q0 -45 14.5 -86t40 -71.5t60 -48.5
t74.5 -18q42 0 76 11t72 34l17 -28l-41 -32q-33 -26 -74 -47.5t-92 -21.5zM360 788h124v-4l-214 -175h-16z" />
    <glyph glyph-name="ccaron" unicode="&#x10d;" horiz-adv-x="512" 
d="M280 -13q-54 0 -98 20t-75.5 55t-48.5 81t-17 99q0 62 22 113t60.5 87t89 56t107.5 20q27 0 53 -4t46.5 -12.5t33 -22.5t12.5 -34q0 -27 -16.5 -44t-47.5 -14q-20 38 -51 62t-77 24q-27 0 -52 -12t-44.5 -35t-31.5 -56t-12 -75q0 -45 14.5 -86t40 -71.5t60 -48.5
t74.5 -18q42 0 76 11t72 34l17 -28l-41 -32q-33 -26 -74 -47.5t-92 -21.5zM291 609l-159 196h19l146 -96l146 96h19l-159 -196h-12z" />
    <glyph glyph-name="ccircumflex" unicode="&#x109;" horiz-adv-x="512" 
d="M280 -13q-54 0 -98 20t-75.5 55t-48.5 81t-17 99q0 62 22 113t60.5 87t89 56t107.5 20q27 0 53 -4t46.5 -12.5t33 -22.5t12.5 -34q0 -27 -16.5 -44t-47.5 -14q-20 38 -51 62t-77 24q-27 0 -52 -12t-44.5 -35t-31.5 -56t-12 -75q0 -45 14.5 -86t40 -71.5t60 -48.5
t74.5 -18q42 0 76 11t72 34l17 -28l-41 -32q-33 -26 -74 -47.5t-92 -21.5zM462 609h-19l-146 96l-146 -96h-19l159 197h12z" />
    <glyph glyph-name="cdotaccent" unicode="&#x10b;" horiz-adv-x="512" 
d="M280 -13q-54 0 -98 20t-75.5 55t-48.5 81t-17 99q0 62 22 113t60.5 87t89 56t107.5 20q27 0 53 -4t46.5 -12.5t33 -22.5t12.5 -34q0 -27 -16.5 -44t-47.5 -14q-20 38 -51 62t-77 24q-27 0 -52 -12t-44.5 -35t-31.5 -56t-12 -75q0 -45 14.5 -86t40 -71.5t60 -48.5
t74.5 -18q42 0 76 11t72 34l17 -28l-41 -32q-33 -26 -74 -47.5t-92 -21.5zM297 646q-24 0 -41 16.5t-17 42.5t17 42.5t41 16.5q26 0 42.5 -16.5t16.5 -42.5t-16.5 -42.5t-42.5 -16.5z" />
    <glyph glyph-name="dcaron" unicode="&#x10f;" horiz-adv-x="653" 
d="M594 38q-48 -8 -88.5 -21.5t-82.5 -30.5l-1 71q-20 -15 -42.5 -28.5t-42.5 -24.5q-31 -17 -74 -17q-47 0 -87.5 19t-70.5 52t-47 78.5t-17 99.5q0 64 26 116t67 89t92 57t101 20q24 0 48 -3t43 -8v174q0 22 -2.5 29t-18.5 14l-75 32v6l193 69v-730q0 -14 3.5 -21.5
t20.5 -7.5h55v-34zM318 46q29 -1 55.5 11.5t44.5 29.5v303q0 43 -32 67t-79 24q-26 0 -54.5 -11.5t-52 -35.5t-38.5 -62t-15 -90q0 -56 15 -99.5t39 -73.5t54.5 -46t62.5 -17zM636 838q21 0 40 -8t33.5 -22.5t23 -35t8.5 -45.5q0 -47 -37.5 -94t-109.5 -78l-10 22
q47 23 67 53.5t20 65.5t-24.5 55t-65.5 27q-2 26 13.5 43t41.5 17z" />
    <glyph glyph-name="dcroat" unicode="&#x111;" horiz-adv-x="619" 
d="M594 38q-48 -8 -88.5 -21.5t-82.5 -30.5l-1 71q-20 -15 -42.5 -28.5t-42.5 -24.5q-31 -17 -74 -17q-47 0 -87.5 19t-70.5 52t-47 78.5t-17 99.5q0 64 26 116t67 89t92 57t101 20q24 0 48 -3t43 -8v174q0 22 -2.5 29t-18.5 14l-75 32v6l193 69v-730q0 -14 3.5 -21.5
t20.5 -7.5h55v-34zM318 46q29 -1 55.5 11.5t44.5 29.5v303q0 43 -32 67t-79 24q-26 0 -54.5 -11.5t-52 -35.5t-38.5 -62t-15 -90q0 -56 15 -99.5t39 -73.5t54.5 -46t62.5 -17zM294 650h300v-44h-300v44z" />
    <glyph glyph-name="ebreve" unicode="&#x115;" horiz-adv-x="532" 
d="M274 -13q-42 0 -83.5 17.5t-74 51t-53 83t-20.5 114.5q0 57 17.5 105.5t48.5 84t72.5 56t89.5 20.5q54 0 92.5 -17.5t65 -47t42 -67t22.5 -77.5h-353v-6q0 -54 15 -98t40.5 -74.5t60.5 -47.5t74 -17q25 0 47.5 7.5t40.5 18.5t31.5 22.5t22.5 20.5l23 -25l-21 -22
q-48 -51 -94.5 -76.5t-105.5 -25.5zM266 483q-31 0 -53 -12t-36.5 -31t-22.5 -43t-11 -48h236q-5 60 -31.5 97t-81.5 37zM275 628q-28 0 -55 7.5t-49.5 26t-38 49.5t-20.5 77h55q7 -60 36.5 -85.5t71.5 -25.5t71.5 25.5t36.5 85.5h55q-5 -46 -20.5 -77t-38 -49.5t-49.5 -26
t-55 -7.5z" />
    <glyph glyph-name="ecaron" unicode="&#x11b;" horiz-adv-x="532" 
d="M274 -13q-42 0 -83.5 17.5t-74 51t-53 83t-20.5 114.5q0 57 17.5 105.5t48.5 84t72.5 56t89.5 20.5q54 0 92.5 -17.5t65 -47t42 -67t22.5 -77.5h-353v-6q0 -54 15 -98t40.5 -74.5t60.5 -47.5t74 -17q25 0 47.5 7.5t40.5 18.5t31.5 22.5t22.5 20.5l23 -25l-21 -22
q-48 -51 -94.5 -76.5t-105.5 -25.5zM266 483q-31 0 -53 -12t-36.5 -31t-22.5 -43t-11 -48h236q-5 60 -31.5 97t-81.5 37zM269 609l-159 196h19l146 -96l146 96h19l-159 -196h-12z" />
    <glyph glyph-name="emacron" unicode="&#x113;" horiz-adv-x="532" 
d="M274 -13q-42 0 -83.5 17.5t-74 51t-53 83t-20.5 114.5q0 57 17.5 105.5t48.5 84t72.5 56t89.5 20.5q54 0 92.5 -17.5t65 -47t42 -67t22.5 -77.5h-353v-6q0 -54 15 -98t40.5 -74.5t60.5 -47.5t74 -17q25 0 47.5 7.5t40.5 18.5t31.5 22.5t22.5 20.5l23 -25l-21 -22
q-48 -51 -94.5 -76.5t-105.5 -25.5zM266 483q-31 0 -53 -12t-36.5 -31t-22.5 -43t-11 -48h236q-5 60 -31.5 97t-81.5 37zM127 735h296v-65h-296v65z" />
    <glyph glyph-name="eogonek" unicode="&#x119;" horiz-adv-x="532" 
d="M399 -207q-17 -8 -45 -17.5t-57 -9.5q-42 0 -72 21.5t-30 63.5q0 17 10 35.5t25.5 36.5t35.5 35t40 31q-6 -1 -16 -1.5t-16 -0.5q-42 0 -83.5 17.5t-74 51t-53 83t-20.5 114.5q0 57 17.5 105.5t48.5 84t72.5 56t89.5 20.5q54 0 92.5 -17.5t65 -47t42 -67t22.5 -77.5h-353
v-6q0 -54 15 -98t40.5 -74.5t60.5 -47.5t74 -17q25 0 47.5 7.5t40.5 18.5t31.5 22.5t22.5 20.5l23 -25l-21 -22q-32 -32 -61 -52.5t-55 -37.5q-35 -23 -59 -54.5t-24 -69.5q0 -22 10 -35.5t27.5 -19.5t40 -5.5t46.5 6.5v-28zM266 483q-31 0 -53 -12t-36.5 -31t-22.5 -43
t-11 -48h236q-5 60 -31.5 97t-81.5 37z" />
    <glyph glyph-name="edotaccent" unicode="&#x117;" horiz-adv-x="532" 
d="M274 -13q-42 0 -83.5 17.5t-74 51t-53 83t-20.5 114.5q0 57 17.5 105.5t48.5 84t72.5 56t89.5 20.5q54 0 92.5 -17.5t65 -47t42 -67t22.5 -77.5h-353v-6q0 -54 15 -98t40.5 -74.5t60.5 -47.5t74 -17q25 0 47.5 7.5t40.5 18.5t31.5 22.5t22.5 20.5l23 -25l-21 -22
q-48 -51 -94.5 -76.5t-105.5 -25.5zM266 483q-31 0 -53 -12t-36.5 -31t-22.5 -43t-11 -48h236q-5 60 -31.5 97t-81.5 37zM275 646q-24 0 -41 16.5t-17 42.5t17 42.5t41 16.5q26 0 42.5 -16.5t16.5 -42.5t-16.5 -42.5t-42.5 -16.5z" />
    <glyph glyph-name="gbreve" unicode="&#x11f;" horiz-adv-x="550" 
d="M254 166q-27 0 -51 5t-45 13l-8 -82q-2 -18 6.5 -22t43.5 -4h111q110 0 159.5 -31t49.5 -97q0 -42 -22 -80.5t-59.5 -68t-87.5 -47.5t-106 -18q-53 0 -95.5 11t-71.5 29t-44.5 42t-15.5 50q0 20 9 39t28 30q27 17 50 30t54 29q-43 2 -69 21.5t-26 45.5q0 14 9 30t21 33
l47 68q-45 23 -69.5 61.5t-24.5 85.5q0 37 15.5 70t43 57.5t66 38.5t85.5 14q41 0 75 -10t60 -28l145 68v-74q0 -13 -7 -17.5t-26 -2.5l-91 9q24 -23 37 -52.5t13 -64.5q0 -36 -15.5 -69t-43.5 -58t-66 -39.5t-84 -14.5zM262 198q19 0 37.5 7t32 23t22 40t8.5 59
q0 30 -8 58.5t-23 51t-36 36t-48 13.5q-20 0 -38 -7.5t-31.5 -23t-22 -40t-8.5 -58.5q0 -30 8 -58.5t23 -51t36 -36t48 -13.5zM274 -225q33 0 63 8t52.5 23.5t35.5 37t13 48.5q0 50 -36 76.5t-118 26.5h-30q-34 0 -60.5 -10t-45 -25t-28 -33t-9.5 -34q0 -26 14 -47.5
t37 -37.5t52.5 -24.5t59.5 -8.5zM271 628q-28 0 -55 7.5t-49.5 26t-38 49.5t-20.5 77h55q7 -60 36.5 -85.5t71.5 -25.5t71.5 25.5t36.5 85.5h55q-5 -46 -20.5 -77t-38 -49.5t-49.5 -26t-55 -7.5z" />
    <glyph glyph-name="gcircumflex" unicode="&#x11d;" horiz-adv-x="550" 
d="M254 166q-27 0 -51 5t-45 13l-8 -82q-2 -18 6.5 -22t43.5 -4h111q110 0 159.5 -31t49.5 -97q0 -42 -22 -80.5t-59.5 -68t-87.5 -47.5t-106 -18q-53 0 -95.5 11t-71.5 29t-44.5 42t-15.5 50q0 20 9 39t28 30q27 17 50 30t54 29q-43 2 -69 21.5t-26 45.5q0 14 9 30t21 33
l47 68q-45 23 -69.5 61.5t-24.5 85.5q0 37 15.5 70t43 57.5t66 38.5t85.5 14q41 0 75 -10t60 -28l145 68v-74q0 -13 -7 -17.5t-26 -2.5l-91 9q24 -23 37 -52.5t13 -64.5q0 -36 -15.5 -69t-43.5 -58t-66 -39.5t-84 -14.5zM262 198q19 0 37.5 7t32 23t22 40t8.5 59
q0 30 -8 58.5t-23 51t-36 36t-48 13.5q-20 0 -38 -7.5t-31.5 -23t-22 -40t-8.5 -58.5q0 -30 8 -58.5t23 -51t36 -36t48 -13.5zM274 -225q33 0 63 8t52.5 23.5t35.5 37t13 48.5q0 50 -36 76.5t-118 26.5h-30q-34 0 -60.5 -10t-45 -25t-28 -33t-9.5 -34q0 -26 14 -47.5
t37 -37.5t52.5 -24.5t59.5 -8.5zM436 609h-19l-146 96l-146 -96h-19l159 197h12z" />
    <glyph glyph-name="uni0123" unicode="&#x123;" horiz-adv-x="550" 
d="M254 166q-27 0 -51 5t-45 13l-8 -82q-2 -18 6.5 -22t43.5 -4h111q110 0 159.5 -31t49.5 -97q0 -42 -22 -80.5t-59.5 -68t-87.5 -47.5t-106 -18q-53 0 -95.5 11t-71.5 29t-44.5 42t-15.5 50q0 20 9 39t28 30q27 17 50 30t54 29q-43 2 -69 21.5t-26 45.5q0 14 9 30t21 33
l47 68q-45 23 -69.5 61.5t-24.5 85.5q0 37 15.5 70t43 57.5t66 38.5t85.5 14q41 0 75 -10t60 -28l145 68v-74q0 -13 -7 -17.5t-26 -2.5l-91 9q24 -23 37 -52.5t13 -64.5q0 -36 -15.5 -69t-43.5 -58t-66 -39.5t-84 -14.5zM262 198q19 0 37.5 7t32 23t22 40t8.5 59
q0 30 -8 58.5t-23 51t-36 36t-48 13.5q-20 0 -38 -7.5t-31.5 -23t-22 -40t-8.5 -58.5q0 -30 8 -58.5t23 -51t36 -36t48 -13.5zM274 -225q33 0 63 8t52.5 23.5t35.5 37t13 48.5q0 50 -36 76.5t-118 26.5h-30q-34 0 -60.5 -10t-45 -25t-28 -33t-9.5 -34q0 -26 14 -47.5
t37 -37.5t52.5 -24.5t59.5 -8.5zM289 597q-21 0 -40 8t-33.5 22.5t-23 35t-8.5 45.5q0 47 37.5 94t109.5 78l10 -22q-47 -23 -67 -53.5t-20 -65.5t24.5 -55t65.5 -27q2 -26 -13.5 -43t-41.5 -17z" />
    <glyph glyph-name="gdotaccent" unicode="&#x121;" horiz-adv-x="550" 
d="M254 166q-27 0 -51 5t-45 13l-8 -82q-2 -18 6.5 -22t43.5 -4h111q110 0 159.5 -31t49.5 -97q0 -42 -22 -80.5t-59.5 -68t-87.5 -47.5t-106 -18q-53 0 -95.5 11t-71.5 29t-44.5 42t-15.5 50q0 20 9 39t28 30q27 17 50 30t54 29q-43 2 -69 21.5t-26 45.5q0 14 9 30t21 33
l47 68q-45 23 -69.5 61.5t-24.5 85.5q0 37 15.5 70t43 57.5t66 38.5t85.5 14q41 0 75 -10t60 -28l145 68v-74q0 -13 -7 -17.5t-26 -2.5l-91 9q24 -23 37 -52.5t13 -64.5q0 -36 -15.5 -69t-43.5 -58t-66 -39.5t-84 -14.5zM262 198q19 0 37.5 7t32 23t22 40t8.5 59
q0 30 -8 58.5t-23 51t-36 36t-48 13.5q-20 0 -38 -7.5t-31.5 -23t-22 -40t-8.5 -58.5q0 -30 8 -58.5t23 -51t36 -36t48 -13.5zM274 -225q33 0 63 8t52.5 23.5t35.5 37t13 48.5q0 50 -36 76.5t-118 26.5h-30q-34 0 -60.5 -10t-45 -25t-28 -33t-9.5 -34q0 -26 14 -47.5
t37 -37.5t52.5 -24.5t59.5 -8.5zM271 646q-24 0 -41 16.5t-17 42.5t17 42.5t41 16.5q26 0 42.5 -16.5t16.5 -42.5t-16.5 -42.5t-42.5 -16.5z" />
    <glyph glyph-name="hbar" unicode="&#x127;" horiz-adv-x="619" 
d="M201 73q0 -17 6 -25t31 -10l39 -2v-36h-253v36l43 2q25 2 31 10t6 25v608q0 22 -3 28.5t-19 14.5l-73 32v6l192 69v-394q20 15 43 30t41 26q15 9 38.5 17t52.5 8q33 0 59 -7.5t44 -27t27.5 -53.5t9.5 -86v-271q0 -17 6 -25t31 -10l43 -2v-36h-253v36l39 2q25 2 31 10
t6 25v232q0 74 -24 111t-82 37q-36 0 -65.5 -16t-46.5 -39v-325zM11 650h300v-44h-300v44z" />
    <glyph glyph-name="hcircumflex" unicode="&#x125;" horiz-adv-x="619" 
d="M201 73q0 -17 6 -25t31 -10l39 -2v-36h-253v36l43 2q25 2 31 10t6 25v608q0 22 -3 28.5t-19 14.5l-73 32v6l192 69v-394q20 15 43 30t41 26q15 9 38.5 17t52.5 8q33 0 59 -7.5t44 -27t27.5 -53.5t9.5 -86v-271q0 -17 6 -25t31 -10l43 -2v-36h-253v36l39 2q25 2 31 10
t6 25v232q0 74 -24 111t-82 37q-36 0 -65.5 -16t-46.5 -39v-325zM158 992l165 -153h-23l-150 66l-150 -66h-23l165 153h16z" />
    <glyph glyph-name="dotlessi" unicode="&#x131;" horiz-adv-x="328" 
d="M220 73q0 -17 6 -25t31 -10l43 -2v-36h-257v36l43 2q25 2 31 10t6 25v302q0 11 -0.5 17.5t-2.5 11t-6 7.5t-12 7l-73 31v6l191 73v-455z" />
    <glyph glyph-name="ibreve" unicode="&#x12d;" horiz-adv-x="328" 
d="M220 73q0 -17 6 -25t31 -10l43 -2v-36h-257v36l43 2q25 2 31 10t6 25v302q0 11 -0.5 17.5t-2.5 11t-6 7.5t-12 7l-73 31v6l191 73v-455zM159 628q-28 0 -55 7.5t-49.5 26t-38 49.5t-20.5 77h55q7 -60 36.5 -85.5t71.5 -25.5t71.5 25.5t36.5 85.5h55q-5 -46 -20.5 -77
t-38 -49.5t-49.5 -26t-55 -7.5z" />
    <glyph glyph-name="imacron" unicode="&#x12b;" horiz-adv-x="328" 
d="M220 73q0 -17 6 -25t31 -10l43 -2v-36h-257v36l43 2q25 2 31 10t6 25v302q0 11 -0.5 17.5t-2.5 11t-6 7.5t-12 7l-73 31v6l191 73v-455zM11 735h296v-65h-296v65z" />
    <glyph glyph-name="iogonek" unicode="&#x12f;" horiz-adv-x="328" 
d="M220 73q0 -17 6 -25t31 -10l43 -2v-36h-257v36l43 2q25 2 31 10t6 25v302q0 11 -0.5 17.5t-2.5 11t-6 7.5t-12 7l-73 31v6l191 73v-455zM165 673q-29 0 -49 19.5t-20 49.5q0 29 20 49t49 20t49 -20t20 -49q0 -30 -20 -49.5t-49 -19.5zM261 -207q-17 -8 -45 -17.5
t-57 -9.5q-42 0 -72 21.5t-30 63.5q0 19 11 39t28 39t37.5 37t39.5 34h36q-13 -12 -26 -26.5t-23 -30.5t-16.5 -33.5t-6.5 -34.5q0 -22 10 -35.5t27.5 -19.5t40 -5.5t46.5 6.5v-28z" />
    <glyph glyph-name="itilde" unicode="&#x129;" horiz-adv-x="328" 
d="M220 73q0 -17 6 -25t31 -10l43 -2v-36h-257v36l43 2q25 2 31 10t6 25v302q0 11 -0.5 17.5t-2.5 11t-6 7.5t-12 7l-73 31v6l191 73v-455zM-11 648q0 24 5.5 49t17.5 46t30 34t43 13q21 0 43.5 -11.5t45 -25t42.5 -24.5t37 -11q28 0 40.5 17.5t14.5 51.5h21
q0 -66 -22.5 -101.5t-65.5 -35.5q-25 0 -48 11t-44.5 24t-42 24t-40.5 11q-26 0 -40 -19.5t-16 -52.5h-21z" />
    <glyph glyph-name="uni1ECB" unicode="&#x1ecb;" horiz-adv-x="328" 
d="M220 73q0 -17 6 -25t31 -10l43 -2v-36h-257v36l43 2q25 2 31 10t6 25v302q0 11 -0.5 17.5t-2.5 11t-6 7.5t-12 7l-73 31v6l191 73v-455zM165 673q-29 0 -49 19.5t-20 49.5q0 29 20 49t49 20t49 -20t20 -49q0 -30 -20 -49.5t-49 -19.5zM166 -227q-24 0 -41 16.5t-17 42.5
t17 42.5t41 16.5q26 0 42.5 -16.5t16.5 -42.5t-16.5 -42.5t-42.5 -16.5z" />
    <glyph glyph-name="uni0237" unicode="&#x237;" horiz-adv-x="295" 
d="M208 46q0 -38 -2.5 -66.5t-9 -52t-19 -42t-33.5 -36.5q-13 -12 -31.5 -26t-39 -29.5t-42 -31t-40.5 -28.5l-16 24q34 31 59.5 55t42.5 52.5t25.5 66.5t8.5 95v348q0 22 -2.5 29t-18.5 14l-74 32v6l192 72v-482z" />
    <glyph glyph-name="jcircumflex" unicode="&#x135;" horiz-adv-x="295" 
d="M208 46q0 -38 -2.5 -66.5t-9 -52t-19 -42t-33.5 -36.5q-13 -12 -31.5 -26t-39 -29.5t-42 -31t-40.5 -28.5l-16 24q34 31 59.5 55t42.5 52.5t25.5 66.5t8.5 95v348q0 22 -2.5 29t-18.5 14l-74 32v6l192 72v-482zM312 609h-19l-146 96l-146 -96h-19l159 197h12z" />
    <glyph glyph-name="uni0137" unicode="&#x137;" horiz-adv-x="605" 
d="M201 73q0 -17 6 -25t31 -10l43 -2v-36h-257v36l43 2q25 2 31 10t6 25v608q0 22 -3 28.5t-19 14.5l-73 32v6l192 69v-572q10 2 21 8t25 20l111 111q40 40 43.5 53.5t-36.5 14.5h-19v36h219v-36l-23 -1q-17 -1 -30.5 -4.5t-26 -10.5t-25 -17t-27.5 -24l-130 -117l196 -216
q10 -11 18 -18t16.5 -11t17.5 -6t23 -3l30 -2v-36h-170l-199 232l-34 2v-161zM306 -90q21 0 40 -8t33.5 -22.5t23 -35t8.5 -45.5q0 -47 -37.5 -94t-109.5 -78l-10 22q47 23 67 53.5t20 65.5t-24.5 55t-65.5 27q-2 26 13.5 43t41.5 17z" />
    <glyph glyph-name="lacute" unicode="&#x13a;" horiz-adv-x="312" 
d="M28 0v36l43 2q25 2 31 10t6 25v608q0 22 -3 28.5t-19 14.5l-73 32v6l192 69v-758q0 -17 6 -25t31 -10l43 -2v-36h-257zM219 1080h124v-4l-214 -175h-16z" />
    <glyph glyph-name="lcaron" unicode="&#x13e;" horiz-adv-x="347" 
d="M28 0v36l43 2q25 2 31 10t6 25v608q0 22 -3 28.5t-19 14.5l-73 32v6l192 69v-758q0 -17 6 -25t31 -10l43 -2v-36h-257zM326 838q21 0 40 -8t33.5 -22.5t23 -35t8.5 -45.5q0 -47 -37.5 -94t-109.5 -78l-10 22q47 23 67 53.5t20 65.5t-24.5 55t-65.5 27q-2 26 13.5 43
t41.5 17z" />
    <glyph glyph-name="uni013C" unicode="&#x13c;" horiz-adv-x="312" 
d="M28 0v36l43 2q25 2 31 10t6 25v608q0 22 -3 28.5t-19 14.5l-73 32v6l192 69v-758q0 -17 6 -25t31 -10l43 -2v-36h-257zM133 -90q21 0 40 -8t33.5 -22.5t23 -35t8.5 -45.5q0 -47 -37.5 -94t-109.5 -78l-10 22q47 23 67 53.5t20 65.5t-24.5 55t-65.5 27q-2 26 13.5 43
t41.5 17z" />
    <glyph glyph-name="ldot" unicode="&#x140;" horiz-adv-x="401" 
d="M28 0v36l43 2q25 2 31 10t6 25v608q0 22 -3 28.5t-19 14.5l-73 32v6l192 69v-758q0 -17 6 -25t31 -10l43 -2v-36h-257zM356 368q-24 0 -41 16.5t-17 42.5t17 43t41 17q26 0 42.5 -17t16.5 -43t-16.5 -42.5t-42.5 -16.5z" />
    <glyph glyph-name="glyph298" horiz-adv-x="401" 
d="M28 0v36l43 2q25 2 31 10t6 25v608q0 22 -3 28.5t-19 14.5l-73 32v6l192 69v-758q0 -17 6 -25t31 -10l43 -2v-36h-257zM356 368q-24 0 -41 16.5t-17 42.5t17 43t41 17q26 0 42.5 -17t16.5 -43t-16.5 -42.5t-42.5 -16.5z" />
    <glyph glyph-name="lslash" unicode="&#x142;" horiz-adv-x="355" 
d="M49 0v36l43 2q25 2 31 10t6 25v608q0 22 -3 28.5t-19 14.5l-73 32v6l192 69v-758q0 -17 6 -25t31 -10l43 -2v-36h-257zM35 367l284 148v-52l-284 -148v52z" />
    <glyph glyph-name="eng" unicode="&#x14b;" horiz-adv-x="608" 
d="M40 36l43 2q25 2 30.5 10t5.5 25v302q0 11 -0.5 17.5t-2.5 11t-6 7.5t-12 7l-73 31v6l191 73v-91q20 15 43 30t41 26q15 10 39 17.5t53 7.5q33 0 58 -7.5t42.5 -27t26.5 -53.5t9 -86v-298q0 -38 -2.5 -66.5t-9 -52t-19 -42t-33.5 -36.5q-13 -12 -31.5 -26t-39 -29.5
t-42 -31t-40.5 -28.5l-16 24q34 31 59.5 55t42.5 52.5t25.5 66.5t8.5 95v278q0 74 -22 111t-81 37q-35 0 -65.5 -15.5t-46.5 -40.5v-324q0 -17 6 -25t31 -10l41 -2v-36h-254v36z" />
    <glyph glyph-name="nacute" unicode="&#x144;" horiz-adv-x="631" 
d="M216 73q0 -17 6 -25t31 -10l39 -2v-36h-253v36l43 2q25 2 31 10t6 25v302q0 22 -2.5 29t-18.5 14l-73 31v6l191 73v-91q20 15 43 30t41 26q15 9 39 17t53 8q33 0 58 -7.5t42.5 -27t26.5 -53.5t9 -86v-271q0 -17 6 -25t31 -10l43 -2v-36h-253v36l39 2q25 2 31 10t6 25v232
q0 74 -22 111t-81 37q-35 0 -65.5 -16t-46.5 -41v-323zM396 788h124v-4l-214 -175h-16z" />
    <glyph glyph-name="ncaron" unicode="&#x148;" horiz-adv-x="631" 
d="M216 73q0 -17 6 -25t31 -10l39 -2v-36h-253v36l43 2q25 2 31 10t6 25v302q0 22 -2.5 29t-18.5 14l-73 31v6l191 73v-91q20 15 43 30t41 26q15 9 39 17t53 8q33 0 58 -7.5t42.5 -27t26.5 -53.5t9 -86v-271q0 -17 6 -25t31 -10l43 -2v-36h-253v36l39 2q25 2 31 10t6 25v232
q0 74 -22 111t-81 37q-35 0 -65.5 -16t-46.5 -41v-323zM326 609l-159 196h19l146 -96l146 96h19l-159 -196h-12z" />
    <glyph glyph-name="uni0146" unicode="&#x146;" horiz-adv-x="631" 
d="M216 73q0 -17 6 -25t31 -10l39 -2v-36h-253v36l43 2q25 2 31 10t6 25v302q0 22 -2.5 29t-18.5 14l-73 31v6l191 73v-91q20 15 43 30t41 26q15 9 39 17t53 8q33 0 58 -7.5t42.5 -27t26.5 -53.5t9 -86v-271q0 -17 6 -25t31 -10l43 -2v-36h-253v36l39 2q25 2 31 10t6 25v232
q0 74 -22 111t-81 37q-35 0 -65.5 -16t-46.5 -41v-323zM300 -90q21 0 40 -8t33.5 -22.5t23 -35t8.5 -45.5q0 -47 -37.5 -94t-109.5 -78l-10 22q47 23 67 53.5t20 65.5t-24.5 55t-65.5 27q-2 26 13.5 43t41.5 17z" />
    <glyph glyph-name="oe" unicode="&#x153;" horiz-adv-x="942" 
d="M41 248q0 53 19.5 102t54 86.5t82.5 60t105 22.5q67 0 117 -27.5t82 -72.5q31 46 77.5 73t102.5 27q54 0 93 -17.5t65 -46.5t41 -67t21 -78h-351q-2 -46 10.5 -90t36.5 -78t60 -54.5t83 -20.5q27 0 49 7.5t40 18.5t31 22.5t22 20.5l23 -25l-21 -22q-48 -51 -94.5 -76.5
t-105.5 -25.5q-53 0 -103 26.5t-84 78.5q-32 -48 -82.5 -76.5t-116.5 -28.5q-58 0 -105.5 21t-81 57t-52 83t-18.5 100zM676 485q-31 0 -53 -12.5t-36.5 -32t-23 -44t-11.5 -48.5h237q-5 60 -31.5 98.5t-81.5 38.5zM147 293q0 -44 10.5 -90.5t32 -85t54 -63.5t75.5 -25
q27 0 51.5 11t42.5 33.5t29 57.5t11 83q0 43 -10.5 89.5t-32 84.5t-54 63t-75.5 25q-27 0 -51.5 -10.5t-42.5 -33t-29 -57t-11 -82.5z" />
    <glyph glyph-name="obreve" unicode="&#x14f;" horiz-adv-x="600" 
d="M302 519q58 0 105 -21t81 -56.5t52.5 -83t18.5 -99.5q0 -53 -19.5 -102.5t-54 -87t-82.5 -60t-105 -22.5q-58 0 -105.5 21t-81 57t-52 83t-18.5 100t19.5 102t54 86.5t82.5 60t105 22.5zM281 476q-27 0 -51.5 -10.5t-42.5 -33t-29 -57t-11 -82.5q0 -44 10.5 -90.5t32 -85
t54 -63.5t75.5 -25q27 0 51.5 11t42.5 33.5t29 57.5t11 83q0 43 -10.5 89.5t-32 84.5t-54 63t-75.5 25zM302 628q-28 0 -55 7.5t-49.5 26t-38 49.5t-20.5 77h55q7 -60 36.5 -85.5t71.5 -25.5t71.5 25.5t36.5 85.5h55q-5 -46 -20.5 -77t-38 -49.5t-49.5 -26t-55 -7.5z" />
    <glyph glyph-name="ohungarumlaut" unicode="&#x151;" horiz-adv-x="600" 
d="M302 519q58 0 105 -21t81 -56.5t52.5 -83t18.5 -99.5q0 -53 -19.5 -102.5t-54 -87t-82.5 -60t-105 -22.5q-58 0 -105.5 21t-81 57t-52 83t-18.5 100t19.5 102t54 86.5t82.5 60t105 22.5zM281 476q-27 0 -51.5 -10.5t-42.5 -33t-29 -57t-11 -82.5q0 -44 10.5 -90.5t32 -85
t54 -63.5t75.5 -25q27 0 51.5 11t42.5 33.5t29 57.5t11 83q0 43 -10.5 89.5t-32 84.5t-54 63t-75.5 25zM495 788h125v-4l-214 -175h-16zM316 788h124v-4l-214 -175h-16z" />
    <glyph glyph-name="omacron" unicode="&#x14d;" horiz-adv-x="600" 
d="M302 519q58 0 105 -21t81 -56.5t52.5 -83t18.5 -99.5q0 -53 -19.5 -102.5t-54 -87t-82.5 -60t-105 -22.5q-58 0 -105.5 21t-81 57t-52 83t-18.5 100t19.5 102t54 86.5t82.5 60t105 22.5zM281 476q-27 0 -51.5 -10.5t-42.5 -33t-29 -57t-11 -82.5q0 -44 10.5 -90.5t32 -85
t54 -63.5t75.5 -25q27 0 51.5 11t42.5 33.5t29 57.5t11 83q0 43 -10.5 89.5t-32 84.5t-54 63t-75.5 25zM154 735h296v-65h-296v65z" />
    <glyph glyph-name="uni1ECD" unicode="&#x1ecd;" horiz-adv-x="600" 
d="M302 519q58 0 105 -21t81 -56.5t52.5 -83t18.5 -99.5q0 -53 -19.5 -102.5t-54 -87t-82.5 -60t-105 -22.5q-58 0 -105.5 21t-81 57t-52 83t-18.5 100t19.5 102t54 86.5t82.5 60t105 22.5zM281 476q-27 0 -51.5 -10.5t-42.5 -33t-29 -57t-11 -82.5q0 -44 10.5 -90.5t32 -85
t54 -63.5t75.5 -25q27 0 51.5 11t42.5 33.5t29 57.5t11 83q0 43 -10.5 89.5t-32 84.5t-54 63t-75.5 25zM319 -227q-24 0 -41 16.5t-17 42.5t17 42.5t41 16.5q26 0 42.5 -16.5t16.5 -42.5t-16.5 -42.5t-42.5 -16.5z" />
    <glyph glyph-name="racute" unicode="&#x155;" horiz-adv-x="430" 
d="M216 423q9 9 22 23t27 27q22 21 45 33t46 12q26 0 43.5 -14t17.5 -40t-15.5 -43.5t-32.5 -18.5q-21 11 -43.5 20t-37.5 11q-17 0 -37.5 -10t-34.5 -29v-318q0 -17 6 -25.5t31 -9.5l64 -2v-39h-278v36l43 2q25 2 31 10t6 25v302q0 11 -0.5 17.5t-2.5 11t-6 7.5t-12 7
l-73 31v6l191 73v-105zM331 788h124v-4l-214 -175h-16z" />
    <glyph glyph-name="rcaron" unicode="&#x159;" horiz-adv-x="430" 
d="M216 423q9 9 22 23t27 27q22 21 45 33t46 12q26 0 43.5 -14t17.5 -40t-15.5 -43.5t-32.5 -18.5q-21 11 -43.5 20t-37.5 11q-17 0 -37.5 -10t-34.5 -29v-318q0 -17 6 -25.5t31 -9.5l64 -2v-39h-278v36l43 2q25 2 31 10t6 25v302q0 11 -0.5 17.5t-2.5 11t-6 7.5t-12 7
l-73 31v6l191 73v-105zM261 609l-159 196h19l146 -96l146 96h19l-159 -196h-12z" />
    <glyph glyph-name="uni0157" unicode="&#x157;" horiz-adv-x="430" 
d="M216 423q9 9 22 23t27 27q22 21 45 33t46 12q26 0 43.5 -14t17.5 -40t-15.5 -43.5t-32.5 -18.5q-21 11 -43.5 20t-37.5 11q-17 0 -37.5 -10t-34.5 -29v-318q0 -17 6 -25.5t31 -9.5l64 -2v-39h-278v36l43 2q25 2 31 10t6 25v302q0 11 -0.5 17.5t-2.5 11t-6 7.5t-12 7
l-73 31v6l191 73v-105zM159 -90q21 0 40 -8t33.5 -22.5t23 -35t8.5 -45.5q0 -47 -37.5 -94t-109.5 -78l-10 22q47 23 67 53.5t20 65.5t-24.5 55t-65.5 27q-2 26 13.5 43t41.5 17z" />
    <glyph glyph-name="sacute" unicode="&#x15b;" horiz-adv-x="445" 
d="M206 -13q-41 0 -78.5 8t-63.5 21l-12 148l34 6l23 -57q20 -49 48.5 -68t67.5 -19q35 0 60 21t25 64q0 56 -81 92l-53 23q-23 10 -44.5 24t-38 32.5t-26 42t-9.5 52.5q0 35 16 61.5t42.5 44t61 26.5t70.5 9q32 0 59.5 -5.5t52.5 -13.5l20 -131l-35 -6l-26 47
q-20 35 -39.5 52.5t-51.5 17.5q-17 0 -33 -5t-28.5 -14.5t-20 -23t-7.5 -29.5q0 -32 19.5 -52.5t53.5 -35.5l52 -23q33 -15 58 -29.5t41.5 -33t25 -41.5t8.5 -54q0 -38 -15.5 -66.5t-41.5 -47t-60.5 -28t-73.5 -9.5zM300 788h124v-4l-214 -175h-16z" />
    <glyph glyph-name="scaron" unicode="&#x161;" horiz-adv-x="445" 
d="M206 -13q-41 0 -78.5 8t-63.5 21l-12 148l34 6l23 -57q20 -49 48.5 -68t67.5 -19q35 0 60 21t25 64q0 56 -81 92l-53 23q-23 10 -44.5 24t-38 32.5t-26 42t-9.5 52.5q0 35 16 61.5t42.5 44t61 26.5t70.5 9q32 0 59.5 -5.5t52.5 -13.5l20 -131l-35 -6l-26 47
q-20 35 -39.5 52.5t-51.5 17.5q-17 0 -33 -5t-28.5 -14.5t-20 -23t-7.5 -29.5q0 -32 19.5 -52.5t53.5 -35.5l52 -23q33 -15 58 -29.5t41.5 -33t25 -41.5t8.5 -54q0 -38 -15.5 -66.5t-41.5 -47t-60.5 -28t-73.5 -9.5zM230 609l-159 196h19l146 -96l146 96h19l-159 -196h-12z
" />
    <glyph glyph-name="scedilla" unicode="&#x15f;" horiz-adv-x="445" 
d="M206 -13q-41 0 -78.5 8t-63.5 21l-12 148l34 6l23 -57q20 -49 48.5 -68t67.5 -19q35 0 60 21t25 64q0 56 -81 92l-53 23q-23 10 -44.5 24t-38 32.5t-26 42t-9.5 52.5q0 35 16 61.5t42.5 44t61 26.5t70.5 9q32 0 59.5 -5.5t52.5 -13.5l20 -131l-35 -6l-26 47
q-20 35 -39.5 52.5t-51.5 17.5q-17 0 -33 -5t-28.5 -14.5t-20 -23t-7.5 -29.5q0 -32 19.5 -52.5t53.5 -35.5l52 -23q33 -15 58 -29.5t41.5 -33t25 -41.5t8.5 -54q0 -38 -15.5 -66.5t-41.5 -47t-60.5 -28t-73.5 -9.5zM175 -265q-15 0 -30 2.5t-27.5 8.5t-20 15t-7.5 22
q0 14 12.5 25.5t38.5 6.5q0 -26 18.5 -38.5t41.5 -12.5q18 0 29.5 8.5t11.5 21.5q0 21 -34 42t-84 43l118 126h37l-75 -81q44 -22 66 -43t22 -53q0 -16 -8 -32.5t-23.5 -30t-37 -22t-48.5 -8.5z" />
    <glyph glyph-name="scircumflex" unicode="&#x15d;" horiz-adv-x="445" 
d="M206 -13q-41 0 -78.5 8t-63.5 21l-12 148l34 6l23 -57q20 -49 48.5 -68t67.5 -19q35 0 60 21t25 64q0 56 -81 92l-53 23q-23 10 -44.5 24t-38 32.5t-26 42t-9.5 52.5q0 35 16 61.5t42.5 44t61 26.5t70.5 9q32 0 59.5 -5.5t52.5 -13.5l20 -131l-35 -6l-26 47
q-20 35 -39.5 52.5t-51.5 17.5q-17 0 -33 -5t-28.5 -14.5t-20 -23t-7.5 -29.5q0 -32 19.5 -52.5t53.5 -35.5l52 -23q33 -15 58 -29.5t41.5 -33t25 -41.5t8.5 -54q0 -38 -15.5 -66.5t-41.5 -47t-60.5 -28t-73.5 -9.5zM401 609h-19l-146 96l-146 -96h-19l159 197h12z" />
    <glyph glyph-name="uni0219" unicode="&#x219;" horiz-adv-x="445" 
d="M206 -13q-41 0 -78.5 8t-63.5 21l-12 148l34 6l23 -57q20 -49 48.5 -68t67.5 -19q35 0 60 21t25 64q0 56 -81 92l-53 23q-23 10 -44.5 24t-38 32.5t-26 42t-9.5 52.5q0 35 16 61.5t42.5 44t61 26.5t70.5 9q32 0 59.5 -5.5t52.5 -13.5l20 -131l-35 -6l-26 47
q-20 35 -39.5 52.5t-51.5 17.5q-17 0 -33 -5t-28.5 -14.5t-20 -23t-7.5 -29.5q0 -32 19.5 -52.5t53.5 -35.5l52 -23q33 -15 58 -29.5t41.5 -33t25 -41.5t8.5 -54q0 -38 -15.5 -66.5t-41.5 -47t-60.5 -28t-73.5 -9.5zM207 -90q21 0 40 -8t33.5 -22.5t23 -35t8.5 -45.5
q0 -47 -37.5 -94t-109.5 -78l-10 22q47 23 67 53.5t20 65.5t-24.5 55t-65.5 27q-2 26 13.5 43t41.5 17z" />
    <glyph glyph-name="tbar" unicode="&#x167;" horiz-adv-x="435" 
d="M248 -13q-50 0 -80.5 23.5t-30.5 86.5v350h-96v4l189 172h4v-121h142v-55h-142v-316q0 -42 14.5 -58.5t45.5 -16.5q17 0 35.5 8t44.5 25l19 -29q-23 -17 -43 -30t-32 -21q-20 -12 -36 -17t-34 -5zM40 367h335v-44h-335v44z" />
    <glyph glyph-name="tcaron" unicode="&#x165;" horiz-adv-x="378" 
d="M219 -13q-50 0 -80.5 23.5t-30.5 86.5v350h-96v4l189 172h4v-121h142v-55h-142v-316q0 -42 14.5 -58.5t45.5 -16.5q17 0 35.5 8t44.5 25l19 -29q-23 -17 -43 -30t-32 -21q-20 -12 -36 -17t-34 -5zM312 838q21 0 40 -8t33.5 -22.5t23 -35t8.5 -45.5q0 -47 -37.5 -94
t-109.5 -78l-10 22q47 23 67 53.5t20 65.5t-24.5 55t-65.5 27q-2 26 13.5 43t41.5 17z" />
    <glyph glyph-name="uni0163" unicode="&#x163;" horiz-adv-x="378" 
d="M219 -13q-50 0 -80.5 23.5t-30.5 86.5v350h-96v4l189 172h4v-121h142v-55h-142v-316q0 -42 14.5 -58.5t45.5 -16.5q17 0 35.5 8t44.5 25l19 -29q-23 -17 -43 -30t-32 -21q-20 -12 -36 -17t-34 -5zM166 -90q21 0 40 -8t33.5 -22.5t23 -35t8.5 -45.5q0 -47 -37.5 -94
t-109.5 -78l-10 22q47 23 67 53.5t20 65.5t-24.5 55t-65.5 27q-2 26 13.5 43t41.5 17z" />
    <glyph glyph-name="uni021B" unicode="&#x21b;" horiz-adv-x="378" 
d="M219 -13q-50 0 -80.5 23.5t-30.5 86.5v350h-96v4l189 172h4v-121h142v-55h-142v-316q0 -42 14.5 -58.5t45.5 -16.5q17 0 35.5 8t44.5 25l19 -29q-23 -17 -43 -30t-32 -21q-20 -12 -36 -17t-34 -5zM166 -90q21 0 40 -8t33.5 -22.5t23 -35t8.5 -45.5q0 -47 -37.5 -94
t-109.5 -78l-10 22q47 23 67 53.5t20 65.5t-24.5 55t-65.5 27q-2 26 13.5 43t41.5 17z" />
    <glyph glyph-name="ubreve" unicode="&#x16d;" horiz-adv-x="601" 
d="M405 67q-20 -15 -41.5 -29.5t-38.5 -24.5q-17 -9 -41.5 -17.5t-51.5 -8.5q-34 0 -58.5 7t-40.5 26.5t-23.5 53t-7.5 86.5v251q0 17 -6 24.5t-32 9.5l-40 4v33l175 30v-318q0 -41 4 -68.5t14.5 -44.5t29 -24.5t47.5 -7.5q35 0 62 14.5t45 35.5v312q0 17 -6.5 24.5
t-32.5 9.5l-40 4v33l176 30v-411q0 -14 3.5 -21.5t20.5 -7.5h55v-34q-48 -8 -89 -21.5t-83 -30.5v81zM302 628q-28 0 -55 7.5t-49.5 26t-38 49.5t-20.5 77h55q7 -60 36.5 -85.5t71.5 -25.5t71.5 25.5t36.5 85.5h55q-5 -46 -20.5 -77t-38 -49.5t-49.5 -26t-55 -7.5z" />
    <glyph glyph-name="uhungarumlaut" unicode="&#x171;" horiz-adv-x="601" 
d="M405 67q-20 -15 -41.5 -29.5t-38.5 -24.5q-17 -9 -41.5 -17.5t-51.5 -8.5q-34 0 -58.5 7t-40.5 26.5t-23.5 53t-7.5 86.5v251q0 17 -6 24.5t-32 9.5l-40 4v33l175 30v-318q0 -41 4 -68.5t14.5 -44.5t29 -24.5t47.5 -7.5q35 0 62 14.5t45 35.5v312q0 17 -6.5 24.5
t-32.5 9.5l-40 4v33l176 30v-411q0 -14 3.5 -21.5t20.5 -7.5h55v-34q-48 -8 -89 -21.5t-83 -30.5v81zM496 788h125v-4l-214 -175h-16zM317 788h124v-4l-214 -175h-16z" />
    <glyph glyph-name="umacron" unicode="&#x16b;" horiz-adv-x="601" 
d="M405 67q-20 -15 -41.5 -29.5t-38.5 -24.5q-17 -9 -41.5 -17.5t-51.5 -8.5q-34 0 -58.5 7t-40.5 26.5t-23.5 53t-7.5 86.5v251q0 17 -6 24.5t-32 9.5l-40 4v33l175 30v-318q0 -41 4 -68.5t14.5 -44.5t29 -24.5t47.5 -7.5q35 0 62 14.5t45 35.5v312q0 17 -6.5 24.5
t-32.5 9.5l-40 4v33l176 30v-411q0 -14 3.5 -21.5t20.5 -7.5h55v-34q-48 -8 -89 -21.5t-83 -30.5v81zM154 735h296v-65h-296v65z" />
    <glyph glyph-name="uogonek" unicode="&#x173;" horiz-adv-x="601" 
d="M495 -204q-17 -8 -45 -17.5t-57 -9.5q-42 0 -72 21.5t-30 63.5q0 19 10.5 38.5t27 38.5t37 37t39.5 33v66q-20 -15 -41.5 -29.5t-38.5 -24.5q-17 -9 -41.5 -17.5t-51.5 -8.5q-34 0 -58.5 7t-40.5 26.5t-23.5 53t-7.5 86.5v251q0 17 -6 24.5t-32 9.5l-40 4v33l175 30v-318
q0 -41 4 -68.5t14.5 -44.5t29 -24.5t47.5 -7.5q35 0 62 14.5t45 35.5v312q0 17 -6.5 24.5t-32.5 9.5l-40 4v33l176 30v-411q0 -14 3.5 -21.5t20.5 -7.5h55v-34q-38 -7 -72 -17t-67 -22q-26 -23 -47 -55.5t-21 -65.5q0 -22 10.5 -35.5t27.5 -19.5t40 -6t47 6v-27z" />
    <glyph glyph-name="uring" unicode="&#x16f;" horiz-adv-x="601" 
d="M405 67q-20 -15 -41.5 -29.5t-38.5 -24.5q-17 -9 -41.5 -17.5t-51.5 -8.5q-34 0 -58.5 7t-40.5 26.5t-23.5 53t-7.5 86.5v251q0 17 -6 24.5t-32 9.5l-40 4v33l175 30v-318q0 -41 4 -68.5t14.5 -44.5t29 -24.5t47.5 -7.5q35 0 62 14.5t45 35.5v312q0 17 -6.5 24.5
t-32.5 9.5l-40 4v33l176 30v-411q0 -14 3.5 -21.5t20.5 -7.5h55v-34q-48 -8 -89 -21.5t-83 -30.5v81zM179 706q0 25 9.5 46.5t26.5 38t39 26t48 9.5t49 -9.5t40 -26t26.5 -38t9.5 -46.5t-9.5 -46.5t-26.5 -37.5t-40 -25t-49 -9t-48 9t-39 25t-26.5 37.5t-9.5 46.5zM371 706
q0 32 -18 50.5t-51 18.5q-32 0 -50 -18.5t-18 -50.5t18 -51t50 -19q33 0 51 19t18 51z" />
    <glyph glyph-name="utilde" unicode="&#x169;" horiz-adv-x="601" 
d="M405 67q-20 -15 -41.5 -29.5t-38.5 -24.5q-17 -9 -41.5 -17.5t-51.5 -8.5q-34 0 -58.5 7t-40.5 26.5t-23.5 53t-7.5 86.5v251q0 17 -6 24.5t-32 9.5l-40 4v33l175 30v-318q0 -41 4 -68.5t14.5 -44.5t29 -24.5t47.5 -7.5q35 0 62 14.5t45 35.5v312q0 17 -6.5 24.5
t-32.5 9.5l-40 4v33l176 30v-411q0 -14 3.5 -21.5t20.5 -7.5h55v-34q-48 -8 -89 -21.5t-83 -30.5v81zM132 648q0 24 5.5 49t17.5 46t30 34t43 13q21 0 43.5 -11.5t45 -25t42.5 -24.5t37 -11q28 0 40.5 17.5t14.5 51.5h21q0 -66 -22.5 -101.5t-65.5 -35.5q-25 0 -48 11
t-44.5 24t-42 24t-40.5 11q-26 0 -40 -19.5t-16 -52.5h-21z" />
    <glyph glyph-name="uni1EE5" unicode="&#x1ee5;" horiz-adv-x="601" 
d="M405 67q-20 -15 -41.5 -29.5t-38.5 -24.5q-17 -9 -41.5 -17.5t-51.5 -8.5q-34 0 -58.5 7t-40.5 26.5t-23.5 53t-7.5 86.5v251q0 17 -6 24.5t-32 9.5l-40 4v33l175 30v-318q0 -41 4 -68.5t14.5 -44.5t29 -24.5t47.5 -7.5q35 0 62 14.5t45 35.5v312q0 17 -6.5 24.5
t-32.5 9.5l-40 4v33l176 30v-411q0 -14 3.5 -21.5t20.5 -7.5h55v-34q-48 -8 -89 -21.5t-83 -30.5v81zM298 -227q-24 0 -41 16.5t-17 42.5t17 42.5t41 16.5q26 0 42.5 -16.5t16.5 -42.5t-16.5 -42.5t-42.5 -16.5z" />
    <glyph glyph-name="wacute" unicode="&#x1e83;" horiz-adv-x="841" 
d="M74 438q-6 16 -16 20.5t-39 6.5l-15 1v36h257v-36l-16 -1q-39 -2 -52 -7.5t-7 -24.5l105 -319l111 249l-59 139h206v-36l-15 -1q-39 -2 -53 -7.5t-6 -24.5l135 -312l84 271q7 23 8 37t-4 21.5t-17 10.5t-30 4l-16 1v36h205v-36l-12 -1q-17 -2 -29 -4t-20.5 -8.5
t-15.5 -19.5t-15 -35l-145 -408h-41l-139 325l-141 -325h-44zM485 788h124v-4l-214 -175h-16z" />
    <glyph glyph-name="wcircumflex" unicode="&#x175;" horiz-adv-x="841" 
d="M74 438q-6 16 -16 20.5t-39 6.5l-15 1v36h257v-36l-16 -1q-39 -2 -52 -7.5t-7 -24.5l105 -319l111 249l-59 139h206v-36l-15 -1q-39 -2 -53 -7.5t-6 -24.5l135 -312l84 271q7 23 8 37t-4 21.5t-17 10.5t-30 4l-16 1v36h205v-36l-12 -1q-17 -2 -29 -4t-20.5 -8.5
t-15.5 -19.5t-15 -35l-145 -408h-41l-139 325l-141 -325h-44zM587 609h-19l-146 96l-146 -96h-19l159 197h12z" />
    <glyph glyph-name="wdieresis" unicode="&#x1e85;" horiz-adv-x="841" 
d="M74 438q-6 16 -16 20.5t-39 6.5l-15 1v36h257v-36l-16 -1q-39 -2 -52 -7.5t-7 -24.5l105 -319l111 249l-59 139h206v-36l-15 -1q-39 -2 -53 -7.5t-6 -24.5l135 -312l84 271q7 23 8 37t-4 21.5t-17 10.5t-30 4l-16 1v36h205v-36l-12 -1q-17 -2 -29 -4t-20.5 -8.5
t-15.5 -19.5t-15 -35l-145 -408h-41l-139 325l-141 -325h-44zM305 663q-24 0 -41.5 16.5t-17.5 42.5t17.5 43t41.5 17q25 0 42 -17t17 -43t-17 -42.5t-42 -16.5zM538 663q-24 0 -41 16.5t-17 42.5t17 43t41 17q26 0 43 -17t17 -43t-17 -42.5t-43 -16.5z" />
    <glyph glyph-name="wgrave" unicode="&#x1e81;" horiz-adv-x="841" 
d="M74 438q-6 16 -16 20.5t-39 6.5l-15 1v36h257v-36l-16 -1q-39 -2 -52 -7.5t-7 -24.5l105 -319l111 249l-59 139h206v-36l-15 -1q-39 -2 -53 -7.5t-6 -24.5l135 -312l84 271q7 23 8 37t-4 21.5t-17 10.5t-30 4l-16 1v36h205v-36l-12 -1q-17 -2 -29 -4t-20.5 -8.5
t-15.5 -19.5t-15 -35l-145 -408h-41l-139 325l-141 -325h-44zM447 609l-214 175v4h124l106 -179h-16z" />
    <glyph glyph-name="ycircumflex" unicode="&#x177;" horiz-adv-x="565" 
d="M151 -267q-27 0 -41 17.5t-14 36.5q0 20 12 34q33 12 58.5 23t36.5 19t19.5 25t19.5 41l19 46l-187 463q-6 16 -16 20.5t-40 6.5l-14 1v36h257v-36l-16 -1q-38 -2 -52 -8.5t-5 -29.5l126 -323l102 288q8 23 10 37t-3 21.5t-17 10.5t-32 4l-16 1v36h207v-36l-12 -1
q-17 -2 -28 -3.5t-19.5 -8t-16 -19.5t-16.5 -36l-215 -540q-28 -69 -50.5 -97t-56.5 -28zM471 609h-19l-146 96l-146 -96h-19l159 197h12z" />
    <glyph glyph-name="ygrave" unicode="&#x1ef3;" horiz-adv-x="565" 
d="M151 -267q-27 0 -41 17.5t-14 36.5q0 20 12 34q33 12 58.5 23t36.5 19t19.5 25t19.5 41l19 46l-187 463q-6 16 -16 20.5t-40 6.5l-14 1v36h257v-36l-16 -1q-38 -2 -52 -8.5t-5 -29.5l126 -323l102 288q8 23 10 37t-3 21.5t-17 10.5t-32 4l-16 1v36h207v-36l-12 -1
q-17 -2 -28 -3.5t-19.5 -8t-16 -19.5t-16.5 -36l-215 -540q-28 -69 -50.5 -97t-56.5 -28zM331 609l-214 175v4h124l106 -179h-16z" />
    <glyph glyph-name="uni0233" unicode="&#x233;" horiz-adv-x="565" 
d="M151 -267q-27 0 -41 17.5t-14 36.5q0 20 12 34q33 12 58.5 23t36.5 19t19.5 25t19.5 41l19 46l-187 463q-6 16 -16 20.5t-40 6.5l-14 1v36h257v-36l-16 -1q-38 -2 -52 -8.5t-5 -29.5l126 -323l102 288q8 23 10 37t-3 21.5t-17 10.5t-32 4l-16 1v36h207v-36l-12 -1
q-17 -2 -28 -3.5t-19.5 -8t-16 -19.5t-16.5 -36l-215 -540q-28 -69 -50.5 -97t-56.5 -28zM158 735h296v-65h-296v65z" />
    <glyph glyph-name="zacute" unicode="&#x17a;" horiz-adv-x="512" 
d="M331 463h-71q-44 0 -70.5 -1.5t-42.5 -8t-25.5 -19t-19.5 -34.5l-26 -55h-36l43 173h8q24 -12 52 -14t70 -2h247l-303 -463h99q39 0 64.5 1.5t42.5 7t28 16.5t22 30l39 72h36l-46 -166h-414zM351 788h124v-4l-214 -175h-16z" />
    <glyph glyph-name="zcaron" unicode="&#x17e;" horiz-adv-x="512" 
d="M331 463h-71q-44 0 -70.5 -1.5t-42.5 -8t-25.5 -19t-19.5 -34.5l-26 -55h-36l43 173h8q24 -12 52 -14t70 -2h247l-303 -463h99q39 0 64.5 1.5t42.5 7t28 16.5t22 30l39 72h36l-46 -166h-414zM281 609l-159 196h19l146 -96l146 96h19l-159 -196h-12z" />
    <glyph glyph-name="zdotaccent" unicode="&#x17c;" horiz-adv-x="512" 
d="M331 463h-71q-44 0 -70.5 -1.5t-42.5 -8t-25.5 -19t-19.5 -34.5l-26 -55h-36l43 173h8q24 -12 52 -14t70 -2h247l-303 -463h99q39 0 64.5 1.5t42.5 7t28 16.5t22 30l39 72h36l-46 -166h-414zM287 646q-24 0 -41 16.5t-17 42.5t17 42.5t41 16.5q26 0 42.5 -16.5
t16.5 -42.5t-16.5 -42.5t-42.5 -16.5z" />
    <glyph glyph-name="uni0259" unicode="&#x259;" horiz-adv-x="531" 
d="M257.984 519.969q41.9971 0 83.4951 -17.499q41.4971 -17.499 73.9951 -50.9971t52.9971 -82.9951q20.498 -49.4971 20.498 -114.493q0 -56.9961 -17.498 -105.493q-17.499 -48.4971 -48.4971 -83.9951t-72.4961 -55.9971q-41.4971 -20.498 -89.4941 -20.498
q-53.9971 0 -92.4951 17.499q-38.4971 17.499 -64.9951 46.9971q-26.499 29.498 -41.998 66.9961q-15.499 37.4971 -22.498 77.4951h352.979v5.99902q0 53.9971 -15 97.9941q-14.999 43.9971 -40.4971 74.4961q-25.498 30.498 -60.4961 47.4971
q-34.998 16.998 -73.9961 16.998q-24.998 0 -47.4971 -7.49902q-22.498 -7.5 -40.4971 -18.499t-31.498 -22.498q-13.499 -11.5 -22.499 -20.499l-22.998 24.998l20.998 21.999q47.9971 50.9971 94.4941 76.4951q46.498 25.499 105.494 25.499zM265.983 23.998
q30.998 0 52.9971 12q21.999 11.999 36.498 30.998t22.498 42.9971q8 23.999 11 47.9971h-235.986q5 -59.9961 31.498 -96.9941q26.499 -36.998 81.4951 -36.998z" />
    <glyph glyph-name="uni0410" unicode="&#x410;" horiz-adv-x="750" 
d="M-14 36l24 3q21 2 34.5 6t24 16t21 35t25.5 63l232 619h53l267 -694q6 -15 11 -23.5t11.5 -13t15 -6t22.5 -2.5l33 -3v-36h-290v36l48 3q28 1 34 9t-7 43l-67 178h-264l-40 -112q-13 -35 -19 -57.5t-4 -35t11.5 -18t27.5 -6.5l43 -4v-36h-247v36zM459 320l-115 310
l-112 -310h227z" />
    <glyph glyph-name="uni0411" unicode="&#x411;" horiz-adv-x="702" 
d="M600 760l8 -184h-32l-15 47q-10 33 -23 51.5t-38 28t-65 11.5t-104 2h-54q-20 0 -20 -20v-261h99q69 0 126 -14t98 -40.5t63.5 -64.5t22.5 -85q0 -56 -22.5 -99t-63.5 -72t-98.5 -44.5t-126.5 -15.5h-302v36l38 3q19 1 30.5 3.5t17 10t7 21t1.5 36.5v538q0 23 -1.5 36.5
t-7 21t-17 10t-31.5 3.5l-37 3v36h255zM257 112q0 -43 19 -57.5t67 -14.5q103 0 152.5 43t49.5 127q0 39 -11 71.5t-37 56.5t-71 37.5t-112 13.5h-57v-277z" />
    <glyph glyph-name="uni0412" unicode="&#x412;" horiz-adv-x="699" 
d="M316 758q134 0 207 -42.5t73 -128.5q0 -37 -15.5 -66t-40 -50.5t-55 -36t-61.5 -23.5v-1q37 -5 77.5 -18t75 -35.5t57 -55t24.5 -74.5q1 -54 -20.5 -96.5t-62.5 -71.5t-98 -44t-126 -15h-298v36l38 3q20 1 31 4t16.5 10.5t7 20.5t1.5 36v538q0 22 -1.5 35.5t-7 21
t-16.5 10.5t-31 4l-38 3v36h263zM312 426q90 0 130.5 40t40.5 114q0 67 -41 102.5t-134 35.5q-36 0 -43.5 -4.5t-7.5 -18.5v-269h55zM257 111q0 -42 18 -56.5t63 -14.5q198 0 198 165q0 39 -11 71.5t-36.5 56t-69 37t-107.5 13.5h-55v-272z" />
    <glyph glyph-name="uni0413" unicode="&#x413;" horiz-adv-x="640" 
d="M257 110q0 -24 2 -38t8.5 -21t20 -9t37.5 -2l55 -2v-38h-327v36l38 3q19 1 30.5 3.5t17 10t7 21t1.5 36.5v538q0 23 -1.5 36.5t-7 21t-17 10t-31.5 3.5l-37 3v36h264l291 2l9 -184h-33l-14 47q-11 33 -24 51.5t-37.5 28t-64.5 11.5t-104 2h-63q-20 0 -20 -20v-586z" />
    <glyph glyph-name="uni0414" unicode="&#x414;" horiz-adv-x="759" 
d="M619 113q0 -23 1.5 -37t7 -21.5t17 -10t32.5 -2.5h45l8 -201h-32l-15 65q-8 35 -20.5 54t-37.5 28t-66 10.5t-106 1.5h-166q-65 0 -106 -1.5t-66 -10.5t-37.5 -28t-20.5 -54l-15 -65h-32l8 201h63q32 52 54.5 118t36.5 143.5t20.5 164t6.5 179.5q0 23 -1.5 37t-7 21.5
t-17 10.5t-32.5 4l-36 2v36h609v-36l-38 -3q-20 -1 -31 -3.5t-17 -10t-7.5 -21t-1.5 -36.5v-535zM250 697q0 -226 -26.5 -388.5t-86.5 -266.5h285q27 0 43.5 3t26.5 11t13.5 22t3.5 36v580q0 13 -4 17.5t-18 4.5h-218q-19 0 -19 -19z" />
    <glyph glyph-name="uni0415" unicode="&#x415;" horiz-adv-x="713" 
d="M53 36l38 3q20 1 31 4t16.5 10.5t7 20.5t1.5 36v538q0 22 -1.5 35.5t-7 21t-16.5 10.5t-31 4l-38 3v36h247l291 2l8 -184h-32l-15 47q-10 33 -23 52t-38 28t-65 11t-104 2h-45q-20 0 -20 -20v-286h126q21 0 36 1.5t26 8t18.5 21t13.5 40.5l9 40h32v-270h-32l-9 39
q-6 26 -13.5 40.5t-18.5 21.5t-26 8.5t-36 1.5h-126v-245q0 -27 5.5 -42t17 -22.5t29.5 -9t44 -1.5h19q71 0 113 3.5t67 13t39 26.5t29 44l41 72h32l-52 -201h-588v36z" />
    <glyph glyph-name="uni0401" unicode="&#x401;" horiz-adv-x="713" 
d="M53 36l38 3q20 1 31 4t16.5 10.5t7 20.5t1.5 36v538q0 22 -1.5 35.5t-7 21t-16.5 10.5t-31 4l-38 3v36h247l291 2l8 -184h-32l-15 47q-10 33 -23 52t-38 28t-65 11t-104 2h-45q-20 0 -20 -20v-286h126q21 0 36 1.5t26 8t18.5 21t13.5 40.5l9 40h32v-270h-32l-9 39
q-6 26 -13.5 40.5t-18.5 21.5t-26 8.5t-36 1.5h-126v-245q0 -27 5.5 -42t17 -22.5t29.5 -9t44 -1.5h19q71 0 113 3.5t67 13t39 26.5t29 44l41 72h32l-52 -201h-588v36zM245 845q-26 0 -43.5 17.5t-17.5 43.5q0 28 17.5 45.5t43.5 17.5t43.5 -17.5t17.5 -45.5
q0 -26 -17.5 -43.5t-43.5 -17.5zM497 845q-26 0 -43.5 17.5t-17.5 43.5q0 28 17.5 45.5t43.5 17.5t43.5 -17.5t17.5 -45.5q0 -26 -17.5 -43.5t-43.5 -17.5z" />
    <glyph glyph-name="uni0416" unicode="&#x416;" horiz-adv-x="1173" 
d="M-2 0v36l37 3q31 2 50 12t36 32l273 338l-167 196q-30 35 -51.5 55t-39.5 30t-36 13t-41 5l-19 2v36h281v-36l-18 -1q-29 -2 -42.5 -6t-12.5 -15.5t16 -32.5t43 -56l146 -185q22 -28 38 -36.5t37 -11.5v270q0 22 -1.5 35.5t-7 21t-17 10.5t-31.5 4l-37 3v36h298v-36
l-37 -3q-20 -1 -31.5 -4t-17 -10.5t-7 -21t-1.5 -35.5v-270q22 3 38 12t38 36l145 185q28 35 43 56t16 32.5t-12.5 15.5t-42.5 6l-18 1v36h281v-36l-19 -2q-23 -2 -42.5 -5t-39 -13t-42.5 -30t-53 -55l-158 -186l281 -348q32 -41 85 -44l37 -3v-36h-207l-271 347l-59 -2
v-235q0 -23 1.5 -36t7 -20.5t17 -10.5t31.5 -4l37 -3v-36h-298v36l37 3q20 1 31.5 4t17 10.5t7 20.5t1.5 36v235l-59 3l-270 -348h-201z" />
    <glyph glyph-name="uni0417" unicode="&#x417;" horiz-adv-x="642" 
d="M289 779q61 0 110.5 -12t84.5 -35.5t54 -58t19 -79.5q0 -39 -16 -69.5t-42 -53t-58.5 -37.5t-65.5 -24v-1q36 -5 76 -18.5t73 -36.5t54.5 -56t21.5 -76q0 -53 -22 -96t-61 -74t-94 -48t-121 -17q-75 0 -129.5 12t-95.5 29l-40 205l30 7l68 -131q12 -23 28 -38t35.5 -23.5
t43 -11.5t51.5 -3q89 0 137.5 44.5t48.5 124.5q0 38 -10.5 71t-35 57t-66 37.5t-103.5 13.5h-65v47h66q94 0 136 41t42 117q0 68 -36 107t-108 40q-29 0 -51 -2.5t-40 -10t-33 -22t-28 -36.5l-55 -91l-29 9l33 173q32 11 82 18.5t111 7.5z" />
    <glyph glyph-name="uni0418" unicode="&#x418;" horiz-adv-x="911" 
d="M147 648q0 22 -1.5 35.5t-7 21t-16.5 10.5t-31 4l-38 3v36h299v-36l-38 -3q-20 -1 -31.5 -4t-17 -10.5t-7 -21t-1.5 -35.5v-463l396 458v5q0 22 -1.5 35.5t-7 21t-17 10.5t-31.5 4l-37 3v36h299v-36l-38 -3q-20 -1 -31.5 -4t-17 -10.5t-7 -21.5t-1.5 -37v-536
q0 -23 1.5 -36t7 -20.5t17 -10.5t31.5 -4l38 -3v-36h-299v36l37 3q20 1 31.5 4t17 10.5t7 20.5t1.5 36v465l-396 -459v-6q0 -23 1.5 -36t7 -20.5t17 -10.5t31.5 -4l38 -3v-36h-299v36l38 3q20 1 31 4t16.5 10.5t7 20.5t1.5 36v538z" />
    <glyph glyph-name="uni0419" unicode="&#x419;" horiz-adv-x="911" 
d="M147 648q0 22 -1.5 35.5t-7 21t-16.5 10.5t-31 4l-38 3v36h299v-36l-38 -3q-20 -1 -31.5 -4t-17 -10.5t-7 -21t-1.5 -35.5v-463l396 458v5q0 22 -1.5 35.5t-7 21t-17 10.5t-31.5 4l-37 3v36h299v-36l-38 -3q-20 -1 -31.5 -4t-17 -10.5t-7 -21.5t-1.5 -37v-536
q0 -23 1.5 -36t7 -20.5t17 -10.5t31.5 -4l38 -3v-36h-299v36l37 3q20 1 31.5 4t17 10.5t7 20.5t1.5 36v465l-396 -459v-6q0 -23 1.5 -36t7 -20.5t17 -10.5t31.5 -4l38 -3v-36h-299v36l38 3q20 1 31 4t16.5 10.5t7 20.5t1.5 36v538zM372 990q0 -26 4 -48.5t13.5 -39t26 -26.5
t42.5 -10t42 10t24.5 26.5t11 39t2.5 48.5h89q0 -73 -45.5 -116.5t-123.5 -43.5q-45 0 -77.5 13t-54 34.5t-32 50.5t-10.5 62h88z" />
    <glyph glyph-name="uni041A" unicode="&#x41a;" horiz-adv-x="811" 
d="M310 348l-53 -3v-235q0 -23 1.5 -36t7 -20.5t17 -10.5t31.5 -4l38 -3v-36h-299v36l38 3q20 1 31 4t16.5 10.5t7 20.5t1.5 36v538q0 22 -1.5 35.5t-7 21t-16.5 10t-31 4.5l-38 3v36h299v-36l-38 -3q-20 -2 -31.5 -4.5t-17 -10t-7 -21t-1.5 -35.5v-269q17 5 31.5 14.5
t35.5 32.5l174 185q31 33 46.5 53.5t15.5 32.5t-14.5 17t-43.5 7l-17 1v36h280v-36l-18 -2q-24 -3 -42 -6.5t-36.5 -14t-41 -30t-55.5 -52.5l-185 -189l305 -345q17 -20 37 -31t49 -13l36 -3v-36h-207z" />
    <glyph glyph-name="uni041B" unicode="&#x41b;" horiz-adv-x="802" 
d="M295 716q-19 0 -19 -20q0 -204 -12 -339.5t-35.5 -217t-58.5 -115.5t-80 -34q-32 0 -52 14t-20 43q0 8 2 16t7 16q23 2 54.5 6.5t54.5 15.5q14 7 29.5 36.5t28.5 92.5t21.5 164.5t8.5 252.5q0 24 -1.5 38t-7 21t-17 9.5t-32.5 3.5l-36 2v37h619v-36l-37 -3
q-20 -1 -31.5 -3.5t-17 -10t-7 -21t-1.5 -36.5v-538q0 -23 1.5 -36t7 -20.5t17 -10.5t31.5 -4l37 -3v-36h-299v36l38 3q20 1 31.5 4t17 10.5t7 20.5t1.5 36v584q0 13 -4 17.5t-18 4.5h-228z" />
    <glyph glyph-name="uni041C" unicode="&#x41c;" horiz-adv-x="1049" 
d="M207 638l-10 -413q-2 -65 -0.5 -102t8 -55.5t18.5 -23.5t33 -6l37 -2v-36h-259v36l37 2q21 1 33.5 6t20 24t11 56t6.5 102l19 420q1 25 -1 39t-8 21t-17 9t-28 4l-39 3v36h206l259 -577l242 577h208v-36l-40 -3q-17 -1 -28 -3.5t-17 -9.5t-7.5 -21t-0.5 -39l27 -536
q1 -23 2.5 -36t7 -20.5t16.5 -10.5t31 -4l38 -3v-36h-299v36l37 3q20 1 32 4t18 10.5t7 20.5t0 36l-26 527l-270 -646h-15z" />
    <glyph glyph-name="uni041D" unicode="&#x41d;" horiz-adv-x="927" 
d="M147 648q0 22 -1.5 35.5t-7 21t-16.5 10t-31 4.5l-38 3v36h299v-36l-38 -3q-20 -2 -31.5 -4.5t-17 -10t-7 -21t-1.5 -35.5v-238h412v238q0 22 -1.5 35.5t-7 21t-17 10t-31.5 4.5l-37 3v36h299v-36l-38 -3q-20 -2 -31.5 -4.5t-17 -10t-7 -21t-1.5 -35.5v-538
q0 -23 1.5 -36t7 -20.5t17 -10.5t31.5 -4l38 -3v-36h-299v36l37 3q20 1 31.5 4t17 10.5t7 20.5t1.5 36v250h-412v-250q0 -23 1.5 -36t7 -20.5t17 -10.5t31.5 -4l38 -3v-36h-299v36l38 3q20 1 31 4t16.5 10.5t7 20.5t1.5 36v538z" />
    <glyph glyph-name="uni041E" unicode="&#x41e;" horiz-adv-x="881" 
d="M441 779q81 0 152.5 -29.5t125.5 -82t85 -125t31 -159.5t-31.5 -159.5t-85.5 -125t-125.5 -82t-151.5 -29.5q-81 0 -153 29.5t-125.5 82t-84.5 125t-31 159.5q0 86 31.5 159t85.5 125.5t125.5 82t151.5 29.5zM428 735q-51 0 -97 -19.5t-80.5 -59.5t-55 -101t-20.5 -143
q0 -89 20 -159.5t56.5 -120t87.5 -75.5t114 -26q51 0 97.5 19.5t81 59.5t55 101t20.5 143q0 89 -20 159.5t-56.5 120t-88 75.5t-114.5 26z" />
    <glyph glyph-name="uni041F" unicode="&#x41f;" horiz-adv-x="907" 
d="M649 694q0 13 -4 17.5t-18 4.5h-350q-20 0 -20 -20v-586q0 -23 1.5 -36t7 -20.5t17 -10.5t31.5 -4l38 -3v-36h-299v36l38 3q20 1 31 4t16.5 10.5t7 20.5t1.5 36v538q0 22 -1.5 35.5t-7 21t-16.5 10.5t-31 4l-38 3v36h801v-36l-38 -3q-20 -1 -31.5 -4t-17 -10.5t-7 -21
t-1.5 -35.5v-538q0 -23 1.5 -36t7 -20.5t17 -10.5t31.5 -4l38 -3v-36h-299v36l37 3q20 1 31.5 4t17 10.5t7 20.5t1.5 36v584z" />
    <glyph glyph-name="uni0420" unicode="&#x420;" horiz-adv-x="654" 
d="M53 36l38 3q20 1 31 4t16.5 10.5t7 20.5t1.5 36v538q0 22 -1.5 35.5t-7 21t-16.5 10t-31 4.5l-38 3v36h269q57 0 112 -9t98.5 -32t70.5 -63.5t27 -103.5q0 -51 -22 -91.5t-61 -68t-91 -42.5t-112 -15h-37v38h32q81 0 126 42.5t45 123.5q0 90 -52 135.5t-149 45.5
q-33 0 -42.5 -4t-9.5 -20v-584q0 -24 1.5 -38t8.5 -20.5t21 -8.5t38 -3l46 -2v-38h-319v36z" />
    <glyph glyph-name="uni0421" unicode="&#x421;" horiz-adv-x="767" 
d="M477 33q55 0 95.5 15.5t66.5 58.5l62 104h30l-42 -186q-45 -14 -103 -26t-140 -12q-86 0 -159.5 31.5t-127 85.5t-83.5 126t-30 153t31 153t85.5 126t129.5 85.5t164 31.5q82 0 136.5 -11.5t89.5 -23.5l33 -183h-29l-54 98q-26 44 -74 59t-105 15q-53 0 -103 -19t-89 -58
t-63 -99.5t-24 -143.5q0 -85 21.5 -155t61.5 -120t95.5 -77.5t124.5 -27.5z" />
    <glyph glyph-name="uni0422" unicode="&#x422;" horiz-adv-x="746" 
d="M494 758q57 0 93 1t58.5 4.5t36.5 9.5t28 17h8l13 -214h-32l-15 47q-11 33 -24 52t-37 28t-63.5 11t-103.5 2h-28v-605q0 -24 1.5 -38t8 -21t20.5 -9t39 -3l44 -2v-38h-336v38l44 2q24 1 38 3t21 9t8.5 21t1.5 38v605h-28q-64 0 -103.5 -2t-63.5 -11t-37.5 -28t-23.5 -52
l-15 -47h-32l13 214h8q14 -11 28 -17t36.5 -9.5t58.5 -4.5t93 -1h242z" />
    <glyph glyph-name="uni0423" unicode="&#x423;" horiz-adv-x="766" 
d="M511 357q-42 -77 -73 -135t-55 -99t-42.5 -67.5t-36.5 -41.5t-37 -21t-43 -6q-34 0 -54.5 15.5t-20.5 41.5q0 8 2.5 18t9.5 17q16 1 34.5 2t35.5 3t31 5t23 7q14 7 31.5 29t37.5 51l-257 493q-9 16 -16 25.5t-14 15t-15 7t-18 2.5l-32 3v36h290v-36l-48 -3
q-14 -1 -23.5 -3t-13 -8t-0.5 -17t12 -30l195 -380l177 334q15 30 20.5 49t2 30.5t-15 16.5t-29.5 7l-43 4v36h247v-36l-23 -3q-15 -2 -25.5 -6t-21 -15t-23 -31t-30.5 -54z" />
    <glyph glyph-name="uni0424" unicode="&#x424;" horiz-adv-x="966" 
d="M632 -20h-298v36l37 2q20 1 31.5 4t17 10.5t7 21t1.5 36.5v2q-86 4 -157.5 26t-123 59.5t-80 89.5t-28.5 116t29 116t80.5 89.5t123 59.5t156.5 26q0 21 -1.5 33.5t-7.5 19.5t-17.5 9.5t-30.5 3.5l-37 2v36h298v-36l-37 -2q-20 -1 -31.5 -4t-17 -9.5t-7 -19t-1.5 -33.5
q86 -4 157.5 -26t123 -59.5t80 -89.5t28.5 -116t-29 -116t-81 -89.5t-123 -59.5t-156 -26v-2q0 -23 1.5 -36.5t7 -21t17 -10.5t31.5 -4l37 -2v-36zM167 411q0 -126 67.5 -194.5t193.5 -79.5v494q-58 -2 -106 -15.5t-82.5 -40.5t-53.5 -67.5t-19 -96.5zM799 355
q0 126 -67.5 194.5t-193.5 79.5v-494q58 2 106 15.5t82.5 40.5t53.5 67.5t19 96.5z" />
    <glyph glyph-name="uni0425" unicode="&#x425;" horiz-adv-x="814" 
d="M-13 36l38 2q31 1 61.5 31t77.5 85l193 225l-237 313q-5 7 -10 11.5t-11 7.5t-14.5 5t-21.5 3l-33 3v36h306v-36l-46 -3q-28 -2 -36.5 -9.5t7.5 -28.5l163 -216l112 143q22 28 37.5 49t21.5 34.5t1 20.5t-25 8l-43 2v36h251v-36l-38 -2q-32 -2 -62 -31t-77 -85l-148 -178
l272 -360q10 -14 20.5 -19.5t36.5 -7.5l34 -3v-36h-307v36l46 3q28 2 36.5 9.5t-7.5 28.5l-200 264l-155 -191q-23 -28 -38.5 -48.5t-21 -34.5t-0.5 -21t25 -8l43 -2v-36h-251v36z" />
    <glyph glyph-name="uni0426" unicode="&#x426;" horiz-adv-x="899" 
d="M870 -159h-31l-16 65q-8 35 -20.5 54t-37.5 28t-66 10.5t-106 1.5h-540v36l38 3q20 1 31 4t16.5 10.5t7 20.5t1.5 36v538q0 22 -1.5 35.5t-7 21t-16.5 10.5t-31 4l-38 3v36h299v-36l-38 -3q-20 -1 -31.5 -4t-17 -10.5t-7 -21t-1.5 -35.5v-540q0 -20 3.5 -32.5t12 -20
t24 -10.5t39.5 -3h235q24 0 39 3t24 10.5t12 20t3 32.5v540q0 22 -1.5 35.5t-7 21t-17 10.5t-31.5 4l-37 3v36h299v-36l-38 -3q-20 -1 -31.5 -4t-17 -10.5t-7 -21t-1.5 -35.5v-535q0 -23 1.5 -37t7 -21.5t17 -10t32.5 -2.5h45z" />
    <glyph glyph-name="uni0427" unicode="&#x427;" horiz-adv-x="831" 
d="M110 648q0 22 -1.5 35.5t-7.5 21t-17.5 10.5t-31.5 4l-36 2v37h298v-37l-36 -2q-20 -1 -31.5 -4t-17.5 -10.5t-7.5 -21t-1.5 -35.5v-88q0 -53 6.5 -91t26.5 -62t57.5 -35t99.5 -11q58 0 95 6t69 14v267q0 22 -1.5 35.5t-7 21t-17 10.5t-31.5 4l-38 3v36h299v-36l-37 -3
q-20 -1 -31.5 -4t-17 -10.5t-7 -21t-1.5 -35.5v-538q0 -23 1.5 -36t7 -20.5t17 -10.5t31.5 -4l37 -3v-36h-299v36l38 3q20 1 31.5 4t17 10.5t7 20.5t1.5 36v222q-18 -4 -36.5 -8t-40.5 -7t-48 -4.5t-60 -1.5q-70 0 -122 11t-87 37.5t-52.5 70.5t-17.5 110v108z" />
    <glyph glyph-name="uni0428" unicode="&#x428;" horiz-adv-x="1215" 
d="M1162 0h-1109v36l38 3q20 1 31 4t16.5 10.5t7 20.5t1.5 36v538q0 22 -1.5 35.5t-7 21t-16.5 10.5t-31 4l-38 3v36h299v-36l-38 -3q-20 -1 -31.5 -4t-17 -10.5t-7 -21t-1.5 -35.5v-536q0 -21 3.5 -34.5t13 -21.5t25.5 -11t41 -3h213v606q0 22 -1.5 35.5t-7 21t-17 10.5
t-31.5 4l-38 3v36h299v-36l-38 -3q-20 -1 -31 -4t-16.5 -10.5t-7 -21t-1.5 -35.5v-606h213q25 0 41 3t25 11t12.5 21.5t3.5 34.5v536q0 22 -1.5 35.5t-7 21t-17 10.5t-31.5 4l-37 3v36h298v-36l-37 -3q-20 -1 -31.5 -4t-17 -10.5t-7 -21t-1.5 -35.5v-538q0 -23 1.5 -36
t7 -20.5t17 -10.5t31.5 -4l37 -3v-36z" />
    <glyph glyph-name="uni0429" unicode="&#x429;" horiz-adv-x="1208" 
d="M1179 -159h-32l-15 65q-8 35 -20.5 54t-37.5 28t-66 10.5t-106 1.5h-849v36l38 3q20 1 31 4t16.5 10.5t7 20.5t1.5 36v538q0 22 -1.5 35.5t-7 21t-16.5 10.5t-31 4l-38 3v36h299v-36l-38 -3q-20 -1 -31.5 -4t-17 -10.5t-7 -21t-1.5 -35.5v-536q0 -21 3.5 -34.5t13 -21.5
t25.5 -11t41 -3h213v606q0 22 -1.5 35.5t-7 21t-17 10.5t-31.5 4l-38 3v36h299v-36l-38 -3q-20 -1 -31 -4t-16.5 -10.5t-7 -21t-1.5 -35.5v-606h213q25 0 41 3t25 11t12.5 21.5t3.5 34.5v536q0 22 -1.5 35.5t-7 21t-17 10.5t-31.5 4l-37 3v36h298v-36l-37 -3
q-20 -1 -31.5 -4t-17 -10.5t-7 -21t-1.5 -35.5v-535q0 -23 1.5 -37t7 -21.5t17 -10t32.5 -2.5h45z" />
    <glyph glyph-name="uni042A" unicode="&#x42a;" horiz-adv-x="794" 
d="M769 231q0 -56 -22.5 -99t-63.5 -72t-99 -44.5t-129 -15.5h-301v36l37 3q20 1 31.5 3.5t17 10t7 21t1.5 36.5v605q-47 -1 -77 -4t-49.5 -13t-31 -27.5t-20.5 -47.5l-14 -47h-33l9 184l291 -2h129v-36l-37 -3q-20 -1 -31.5 -4t-17 -10.5t-7 -21t-1.5 -35.5v-212h98
q70 0 128 -14t99 -40.5t63.5 -64.5t22.5 -86zM358 112q0 -43 19 -57.5t67 -14.5q105 0 154.5 43t49.5 127q0 39 -10.5 72t-37 57t-71.5 37.5t-114 13.5h-57v-278z" />
    <glyph glyph-name="uni042B" unicode="&#x42b;" horiz-adv-x="1028" 
d="M352 758v-36l-38 -3q-20 -1 -31.5 -4t-17 -10.5t-7 -21t-1.5 -35.5v-212h99q70 0 127.5 -14t98.5 -40.5t64 -64.5t23 -86q0 -56 -22.5 -99t-64 -72t-99.5 -44.5t-128 -15.5h-302v36l38 3q19 1 30.5 3.5t17 10t7 21t1.5 36.5v538q0 23 -1.5 36.5t-7 21t-17 10t-31.5 3.5
l-37 3v36h299zM257 112q0 -43 19 -57.5t67 -14.5q105 0 154.5 43t49.5 127q0 39 -10.5 72t-37 57t-71.5 37.5t-114 13.5h-57v-278zM770 648q0 22 -1.5 35.5t-7 21t-16.5 10t-31 4.5l-38 3v36h299v-36l-38 -3q-20 -2 -31.5 -4.5t-17 -10t-7 -21t-1.5 -35.5v-538
q0 -23 1.5 -36t7 -20.5t17 -10.5t31.5 -4l38 -3v-36h-299v36l38 3q20 1 31 4t16.5 10.5t7 20.5t1.5 36v538z" />
    <glyph glyph-name="uni042C" unicode="&#x42c;" horiz-adv-x="693" 
d="M352 758v-36l-38 -3q-20 -1 -31.5 -4t-17 -10.5t-7 -21t-1.5 -35.5v-212h99q70 0 127.5 -14t98.5 -40.5t64 -64.5t23 -86q0 -56 -22.5 -99t-64 -72t-99.5 -44.5t-128 -15.5h-302v36l38 3q19 1 30.5 3.5t17 10t7 21t1.5 36.5v538q0 23 -1.5 36.5t-7 21t-17 10t-31.5 3.5
l-37 3v36h299zM257 112q0 -43 19 -57.5t67 -14.5q105 0 154.5 43t49.5 127q0 39 -10.5 72t-37 57t-71.5 37.5t-114 13.5h-57v-278z" />
    <glyph glyph-name="uni042D" unicode="&#x42d;" horiz-adv-x="770" 
d="M292 33q63 0 115 23t91 65.5t63 102t31 132.5h-197q-21 0 -36 -1.5t-26 -8t-18.5 -21t-13.5 -40.5l-9 -40h-33v270h33l9 -39q6 -26 13.5 -40.5t18.5 -21.5t26 -8.5t36 -1.5h200v9q0 83 -24 143.5t-63 99.5t-89.5 58t-102.5 19q-57 0 -105 -15t-74 -59l-54 -98h-29l33 183
q35 12 89.5 23.5t136.5 11.5q88 0 163.5 -31.5t130 -85.5t85.5 -126t31 -153t-30 -153t-83.5 -126t-127 -85.5t-159.5 -31.5q-82 0 -140 12t-103 26l-42 186h30l62 -104q26 -43 66.5 -58.5t95.5 -15.5z" />
    <glyph glyph-name="uni042E" unicode="&#x42e;" horiz-adv-x="1200" 
d="M147 648q0 22 -1.5 35.5t-7 21t-16.5 10.5t-31 4l-38 3v36h299v-36l-38 -3q-20 -1 -31.5 -4t-17 -10.5t-7 -21t-1.5 -35.5v-238h130q5 81 37 149t84 116.5t119 76t142 27.5q79 0 149 -29.5t122.5 -82t82.5 -125t30 -159.5t-31 -159.5t-83.5 -125t-122 -82t-147.5 -29.5
q-77 0 -144.5 27.5t-119 77t-83 118t-35.5 150.5h-130v-250q0 -23 1.5 -36t7 -20.5t17 -10.5t31.5 -4l38 -3v-36h-299v36l38 3q20 1 31 4t16.5 10.5t7 20.5t1.5 36v538zM757 735q-50 0 -94 -19.5t-77 -59.5t-52.5 -101t-19.5 -143q0 -89 19 -159.5t54 -120t84.5 -75.5
t110.5 -26q49 0 93.5 19.5t77.5 59.5t52.5 101t19.5 143q0 89 -19 159.5t-54 120t-84.5 75.5t-110.5 26z" />
    <glyph glyph-name="uni042F" unicode="&#x42f;" horiz-adv-x="771" 
d="M416 348l-228 -348h-185v36l24 2q28 2 48.5 14t44.5 47l184 266q-54 10 -89.5 28.5t-56.5 42t-29.5 51t-8.5 55.5q0 50 24.5 90t66.5 68t98 43t119 15h290v-36l-38 -3q-20 -1 -31 -3.5t-16.5 -10t-7 -21t-1.5 -36.5v-538q0 -23 1.5 -36.5t7 -21t16.5 -10t31 -3.5l38 -3
v-36h-310v38l37 2q24 1 38 3t20.5 8.5t8.5 20.5t2 38v238h-98zM514 695q0 7 -2.5 11.5t-10 7t-23 3t-40.5 0.5q-56 0 -94 -13t-61 -34t-33 -48t-10 -55q0 -34 9.5 -66t32 -56.5t60.5 -39.5t96 -15h76v305z" />
    <glyph glyph-name="uni0402" unicode="&#x402;" horiz-adv-x="890" 
d="M182 37l44 1q24 1 38 3t21 9t8.5 21.5t1.5 39.5v605h-2q-62 0 -101.5 -2t-64 -11t-38 -28t-23.5 -52l-15 -47h-29l12 214h8q14 -11 28 -17t36 -9.5t56.5 -4.5t90.5 -1h234q55 0 90 1t57 4.5t36 9.5t28 17h9l12 -214h-30l-15 47q-10 33 -23 51.5t-37 27.5t-64 11.5
t-103 2.5h-42v-336q22 17 47 31t46 24q20 10 51.5 17.5t70.5 7.5q45 0 85 -10t69 -33.5t46 -62.5t17 -98v-44q0 -38 -2.5 -67t-9.5 -52t-19.5 -42t-33.5 -37q-13 -11 -31 -25.5t-38.5 -30t-42.5 -31t-41 -28.5l-20 29q36 32 60.5 56.5t39.5 52.5t21.5 64t6.5 90v36
q0 37 -9 67t-28.5 51.5t-51.5 33t-78 11.5q-53 0 -92.5 -17.5t-62.5 -38.5v-223q0 -26 1.5 -40t7.5 -21t17.5 -9t30.5 -3l35 -1v-37h-315v37z" />
    <glyph glyph-name="uni0403" unicode="&#x403;" horiz-adv-x="640" 
d="M257 110q0 -24 2 -38t8.5 -21t20 -9t37.5 -2l55 -2v-38h-327v36l38 3q19 1 30.5 3.5t17 10t7 21t1.5 36.5v538q0 23 -1.5 36.5t-7 21t-17 10t-31.5 3.5l-37 3v36h264l291 2l9 -184h-33l-14 47q-11 33 -24 51.5t-37.5 28t-64.5 11.5t-104 2h-63q-20 0 -20 -20v-586z
M575 969l-243 -126h-21l102 129h162v-3z" />
    <glyph glyph-name="uni0404" unicode="&#x404;" horiz-adv-x="767" 
d="M477 33q55 0 95.5 15.5t66.5 58.5l62 104h30l-42 -186q-45 -14 -103 -26t-140 -12q-86 0 -159.5 31.5t-127 85.5t-83.5 126t-30 153t31 153t85.5 126t129.5 85.5t164 31.5q82 0 136.5 -11.5t89.5 -23.5l33 -183h-29l-54 98q-26 44 -74 59t-105 15q-53 0 -103 -19t-89 -58
t-63 -99.5t-24 -143.5v-3h199q21 0 36 1.5t26 8t19 21t14 40.5l9 40h32v-270h-32l-9 38q-6 26 -13.5 41t-19 22t-26.5 8.5t-36 1.5h-197q6 -75 30 -135.5t63 -103.5t92 -66.5t116 -23.5z" />
    <glyph glyph-name="uni0405" unicode="&#x405;" horiz-adv-x="602" 
d="M287 -13q-56 0 -104.5 11.5t-91.5 29.5l-40 205l30 7l62 -120q26 -50 61 -68.5t86 -18.5q35 0 65 7.5t52.5 24t35.5 41.5t13 61q0 29 -11 53t-29.5 43.5t-43.5 35t-53 27.5l-69 30q-91 40 -132.5 92t-41.5 124q0 46 19 84t50.5 65.5t73.5 42.5t88 15q95 0 165 -26
l33 -173l-30 -7l-59 96q-22 35 -48 49.5t-65 14.5q-29 0 -54 -7t-43.5 -21.5t-29.5 -37t-11 -53.5q0 -54 31.5 -90t87.5 -59l69 -29q43 -18 80 -38t63 -46t41 -59.5t15 -79.5q0 -53 -23.5 -94.5t-61 -71t-85 -45t-95.5 -15.5z" />
    <glyph glyph-name="uni0406" unicode="&#x406;" horiz-adv-x="405" 
d="M147 648q0 22 -1.5 35.5t-7 21t-16.5 10t-31 4.5l-38 3v36h299v-36l-38 -3q-20 -2 -31.5 -4.5t-17 -10t-7 -21t-1.5 -35.5v-538q0 -23 1.5 -36t7 -20.5t17 -10.5t31.5 -4l38 -3v-36h-299v36l38 3q20 1 31 4t16.5 10.5t7 20.5t1.5 36v538z" />
    <glyph glyph-name="uni0407" unicode="&#x407;" horiz-adv-x="405" 
d="M147 648q0 22 -1.5 35.5t-7 21t-16.5 10t-31 4.5l-38 3v36h299v-36l-38 -3q-20 -2 -31.5 -4.5t-17 -10t-7 -21t-1.5 -35.5v-538q0 -23 1.5 -36t7 -20.5t17 -10.5t31.5 -4l38 -3v-36h-299v36l38 3q20 1 31 4t16.5 10.5t7 20.5t1.5 36v538zM76 845q-26 0 -43.5 17.5
t-17.5 43.5q0 28 17.5 45.5t43.5 17.5t43.5 -17.5t17.5 -45.5q0 -26 -17.5 -43.5t-43.5 -17.5zM328 845q-26 0 -43.5 17.5t-17.5 43.5q0 28 17.5 45.5t43.5 17.5t43.5 -17.5t17.5 -45.5q0 -26 -17.5 -43.5t-43.5 -17.5z" />
    <glyph glyph-name="uni0408" unicode="&#x408;" horiz-adv-x="371" 
d="M21 -72q35 32 59.5 56.5t39.5 52t22 64t7 92.5v455q0 22 -1.5 35.5t-7 21t-17 10.5t-31.5 4l-37 3v36h298v-36l-37 -3q-20 -1 -31.5 -4t-17 -10.5t-7 -21t-1.5 -35.5v-437q0 -38 -2.5 -66.5t-9.5 -52t-19.5 -42t-33.5 -36.5q-13 -12 -31.5 -26t-39 -29.5t-42 -31
t-40.5 -28.5z" />
    <glyph glyph-name="uni0409" unicode="&#x409;" horiz-adv-x="1070" 
d="M295 716q-19 0 -19 -20q0 -204 -12 -339.5t-35.5 -217t-58.5 -115.5t-80 -34q-32 0 -52 14t-20 43q0 8 2 16t7 16q23 2 54.5 6.5t54.5 15.5q14 7 29.5 36.5t28.5 92.5t21.5 164.5t8.5 252.5q0 24 -1.5 38t-7 21t-17 9.5t-32.5 3.5l-36 2v37h599v-36l-38 -3
q-20 -1 -31 -3.5t-17 -10t-7.5 -21t-1.5 -36.5v-214h99q70 0 127.5 -14t98.5 -40t64 -63.5t23 -85.5q0 -56 -22.5 -99t-64 -72t-99.5 -44.5t-128 -15.5h-302v36l38 3q20 1 31 4t16.5 10.5t7 20.5t1.5 36v584q0 13 -4 17.5t-18 4.5h-207zM634 392v-280q0 -43 19 -57.5
t67 -14.5q105 0 154.5 43t49.5 127q0 39 -10.5 72t-37 57.5t-71.5 38.5t-114 14h-57z" />
    <glyph glyph-name="uni040A" unicode="&#x40a;" horiz-adv-x="1175" 
d="M147 648q0 22 -1.5 35.5t-7 21t-16.5 10.5t-31 4l-38 3v36h299v-36l-38 -3q-20 -1 -31.5 -4t-17 -10.5t-7 -21t-1.5 -35.5v-216h355v216q0 23 -1.5 36.5t-7 21t-17 10t-31.5 3.5l-37 3v36h299v-36l-38 -3q-20 -1 -31.5 -4t-17 -10.5t-7 -21t-1.5 -35.5v-216h116
q70 0 127.5 -13.5t98.5 -39t64 -63t23 -85.5q0 -57 -22.5 -100t-64 -72t-99.5 -44t-128 -15h-319v36l38 3q19 1 30.5 3.5t17 10t7 21t1.5 36.5v275h-355v-275q0 -23 1.5 -36t7 -20.5t17 -10.5t31.5 -4l38 -3v-36h-299v36l38 3q20 1 31 4t16.5 10.5t7 20.5t1.5 36v538z
M722 385v-273q0 -43 20 -57.5t75 -14.5q110 0 161 42t51 128q0 40 -11 72t-37.5 55t-71 35.5t-112.5 12.5h-75z" />
    <glyph glyph-name="uni040B" unicode="&#x40b;" horiz-adv-x="957" 
d="M183 37l44 1q24 1 38 3t21 9t8.5 21.5t1.5 39.5v605h-2q-62 0 -101.5 -2t-64 -11t-38 -28t-23.5 -52l-15 -47h-29l12 214h8q14 -11 28 -17t36 -9.5t56.5 -4.5t90.5 -1h234q55 0 90 1t57 4.5t36 9.5t28 17h9l12 -214h-30l-15 47q-10 33 -23 51.5t-37 27.5t-63.5 11.5
t-102.5 2.5h-43v-336q22 16 46 30.5t42 22.5q24 11 56.5 19t70.5 8q50 0 90.5 -10t68.5 -33.5t43 -62.5t15 -98v-143q0 -24 1.5 -38.5t7 -22t16.5 -10t30 -3.5l40 -2v-37h-205v214q0 41 -8 74t-27.5 55.5t-51.5 34.5t-80 12q-52 0 -91.5 -16.5t-63.5 -39.5v-223
q0 -26 1.5 -40t7.5 -21.5t17.5 -9.5t30.5 -2l53 -1v-37h-333v37z" />
    <glyph glyph-name="uni040C" unicode="&#x40c;" horiz-adv-x="811" 
d="M310 348l-53 -3v-235q0 -23 1.5 -36t7 -20.5t17 -10.5t31.5 -4l38 -3v-36h-299v36l38 3q20 1 31 4t16.5 10.5t7 20.5t1.5 36v538q0 22 -1.5 35.5t-7 21t-16.5 10t-31 4.5l-38 3v36h299v-36l-38 -3q-20 -2 -31.5 -4.5t-17 -10t-7 -21t-1.5 -35.5v-269q17 5 31.5 14.5
t35.5 32.5l174 185q31 33 46.5 53.5t15.5 32.5t-14.5 17t-43.5 7l-17 1v36h280v-36l-18 -2q-24 -3 -42 -6.5t-36.5 -14t-41 -30t-55.5 -52.5l-185 -189l305 -345q17 -20 37 -31t49 -13l36 -3v-36h-207zM661 969l-243 -126h-21l102 129h162v-3z" />
    <glyph glyph-name="uni040E" unicode="&#x40e;" horiz-adv-x="766" 
d="M511 357q-42 -77 -73 -135t-55 -99t-42.5 -67.5t-36.5 -41.5t-37 -21t-43 -6q-34 0 -54.5 15.5t-20.5 41.5q0 8 2.5 18t9.5 17q16 1 34.5 2t35.5 3t31 5t23 7q14 7 31.5 29t37.5 51l-257 493q-9 16 -16 25.5t-14 15t-15 7t-18 2.5l-32 3v36h290v-36l-48 -3
q-14 -1 -23.5 -3t-13 -8t-0.5 -17t12 -30l195 -380l177 334q15 30 20.5 49t2 30.5t-15 16.5t-29.5 7l-43 4v36h247v-36l-23 -3q-15 -2 -25.5 -6t-21 -15t-23 -31t-30.5 -54zM326 990q0 -26 4 -48.5t13.5 -39t26 -26.5t42.5 -10t42 10t24.5 26.5t11 39t2.5 48.5h89
q0 -73 -45.5 -116.5t-123.5 -43.5q-45 0 -77.5 13t-54 34.5t-32 50.5t-10.5 62h88z" />
    <glyph glyph-name="uni040F" unicode="&#x40f;" horiz-adv-x="889" 
d="M420 -93q-4 31 -11.5 49t-25 28t-49.5 13t-85 3h-196v36l38 3q20 1 31 4t16.5 10.5t7 20.5t1.5 36v538q0 22 -1.5 35.5t-7 21t-16.5 10.5t-31 4l-38 3v36h299v-36l-38 -3q-20 -1 -31.5 -4t-17 -10.5t-7 -21t-1.5 -35.5v-536q0 -21 3.5 -34.5t13 -21.5t25.5 -11t41 -3h210
q25 0 41 3t25 11t12.5 21.5t3.5 34.5v536q0 22 -1.5 35.5t-7 21t-17 10.5t-31.5 4l-37 3v36h298v-36l-37 -3q-20 -1 -31.5 -4t-17 -10.5t-7 -21t-1.5 -35.5v-538q0 -23 1.5 -36t7 -20.5t17 -10.5t31.5 -4l37 -3v-36h-195q-54 0 -86 -3t-49.5 -13t-25 -28t-11.5 -49l-8 -66
h-32z" />
    <glyph glyph-name="uni0490" unicode="&#x490;" horiz-adv-x="631" 
d="M340 758q61 0 100.5 2t63.5 11t36.5 27.5t20.5 52.5l15 64h32l-8 -199h-323q-20 0 -20 -20v-586q0 -24 2 -38t8.5 -21t20 -9t37.5 -2l55 -2v-38h-327v36l38 3q19 1 30.5 3.5t17 10t7 21t1.5 36.5v538q0 23 -1.5 36.5t-7 21t-17 10t-31.5 3.5l-37 3v36h287z" />
    <glyph glyph-name="uni0462" unicode="&#x462;" horiz-adv-x="810" 
d="M469 758v-36l-37 -3q-20 -1 -31.5 -4t-17 -10.5t-7 -21t-1.5 -35.5v-20h22q57 0 92 1t57 4.5t35.5 9.5t27.5 17h9l12 -214h-33l-14 47q-10 32 -22 51t-34 28.5t-58 12t-94 1.5v-221h100q154 0 232 -45.5t79 -123.5q1 -95 -79 -145.5t-235 -50.5h-302v36l38 3
q20 1 31.5 3.5t17 10t7 21t1.5 36.5v476q-58 0 -94 -2.5t-58 -12t-34 -28t-22 -50.5l-15 -47h-32l12 214h9q14 -11 27.5 -17t35.5 -9.5t57 -4.5t92 -1h22v20q0 23 -1.5 36.5t-7 21t-17 10t-31.5 3.5l-38 3v36h299zM375 112q0 -43 18.5 -57.5t66.5 -14.5q58 0 97.5 8.5
t63 25.5t33.5 42.5t10 58.5q0 31 -8.5 57t-34 45t-71 30t-118.5 11h-57v-206z" />
    <glyph glyph-name="uni0472" unicode="&#x472;" horiz-adv-x="881" 
d="M441 779q81 0 152.5 -29.5t125.5 -82t85 -125t31 -159.5t-31.5 -159.5t-85.5 -125t-125.5 -82t-151.5 -29.5q-81 0 -153 29.5t-125.5 82t-84.5 125t-31 159.5q0 86 31.5 159t85.5 125.5t125.5 82t151.5 29.5zM707 346q-58 -21 -105 -23.5t-88.5 5t-79 20.5t-77.5 22.5
t-84 10.5t-97 -16q5 -78 27 -140t58 -105t84.5 -66t107.5 -23q51 0 96.5 19t80 58t55.5 98.5t22 139.5zM428 735q-51 0 -97 -19.5t-80.5 -59.5t-55 -101t-20.5 -143v-12q76 30 135 38.5t106 4t85 -17t72 -24.5t66 -19t67 1q-3 82 -24 147.5t-57.5 111t-86.5 69.5t-110 24z
" />
    <glyph glyph-name="uni0474" unicode="&#x474;" horiz-adv-x="752" 
d="M395 -20h-41l-273 694q-6 15 -10.5 23.5t-11 13t-15 6t-21.5 2.5l-34 3v36h290v-36l-48 -3q-14 -1 -22.5 -2.5t-12 -6.5t-2 -15t8.5 -28l201 -523l183 490q16 43 32 71.5t33 44.5t36 22.5t42 6.5q34 0 54.5 -15.5t20.5 -41.5q0 -8 -2.5 -18t-9.5 -17q-16 -1 -34 -2.5
t-34.5 -3.5t-30 -5t-21.5 -6q-10 -5 -18 -20.5t-22 -50.5z" />
    <glyph glyph-name="uni0492" unicode="&#x492;" horiz-adv-x="640" 
d="M257 110q0 -24 2 -38t8.5 -21t20 -9t37.5 -2l55 -2v-38h-327v36l38 3q19 1 30.5 3.5t17 10t7 21t1.5 36.5v538q0 23 -1.5 36.5t-7 21t-17 10t-31.5 3.5l-37 3v36h264l291 2l9 -184h-33l-14 47q-11 33 -24 51.5t-37.5 28t-64.5 11.5t-104 2h-63q-20 0 -20 -20v-586z
M53 410h378v-50h-378v50z" />
    <glyph glyph-name="uni0496" unicode="&#x496;" horiz-adv-x="1183" 
d="M695 719q-20 -1 -31.5 -4t-17 -10.5t-7 -21t-1.5 -35.5v-271q22 4 38 13t38 36l145 185q28 35 43 56t16 32.5t-12.5 15.5t-42.5 6l-18 1v36h281v-36l-19 -2q-23 -2 -42.5 -5t-39 -13t-42.5 -30t-53 -55l-157 -186l259 -322q19 -24 33.5 -37.5t30.5 -20t35 -8t48 -1.5
l8 -201h-32l-15 65q-8 34 -18 53t-28 28t-45.5 11t-70.5 2h-10l-271 348l-59 -2v-236q0 -23 1.5 -36t7 -20.5t17 -10.5t31.5 -4l37 -3v-36h-298v36l37 3q20 1 31.5 4t17 10.5t7 20.5t1.5 36v236l-59 2l-270 -348h-201v36l37 3q30 2 49 12t36 32l274 340l-167 194
q-30 35 -51.5 55t-39.5 30t-36 13t-41 5l-19 2v36h281v-36l-18 -1q-29 -2 -42.5 -6t-12.5 -15.5t16 -32.5t43 -56l146 -185q21 -27 37 -36t38 -13v271q0 22 -1.5 35.5t-7 21t-17 10.5t-31.5 4l-37 3v36h298v-36z" />
    <glyph glyph-name="uni049A" unicode="&#x49a;" horiz-adv-x="820" 
d="M824 -159h-31l-16 65q-8 34 -18 53t-27.5 28t-45.5 11t-71 2h-8l-297 348l-53 -2v-236q0 -23 1.5 -36t7 -20.5t17 -10.5t31.5 -4l38 -3v-36h-299v36l38 3q20 1 31 4t16.5 10.5t7 20.5t1.5 36v538q0 22 -1.5 35.5t-7 21t-16.5 10.5t-31 4l-38 3v36h299v-36l-38 -3
q-20 -1 -31.5 -4t-17 -10.5t-7 -21t-1.5 -35.5v-269q18 5 32 15t35 32l174 185q31 33 46.5 53.5t16 32.5t-14.5 17t-44 7l-17 1v36h280v-36l-18 -2q-24 -2 -42 -5.5t-36.5 -14t-41 -30.5t-55.5 -53l-185 -189l294 -332q16 -18 29 -29t28 -16.5t33 -7t45 -1.5z" />
    <glyph glyph-name="uni04A2" unicode="&#x4a2;" horiz-adv-x="919" 
d="M890 -159h-31l-16 65q-8 35 -20.5 54t-37.5 28t-66 10.5t-106 1.5h-38v36l37 3q20 1 31.5 4t17 10.5t7 20.5t1.5 36v250h-412v-250q0 -23 1.5 -36t7 -20.5t17 -10.5t31.5 -4l38 -3v-36h-299v36l38 3q20 1 31 4t16.5 10.5t7 20.5t1.5 36v538q0 22 -1.5 35.5t-7 21
t-16.5 10.5t-31 4l-38 3v36h299v-36l-38 -3q-20 -1 -31.5 -4t-17 -10.5t-7 -21t-1.5 -35.5v-238h412v238q0 22 -1.5 35.5t-7 21t-17 10.5t-31.5 4l-37 3v36h299v-36l-38 -3q-20 -1 -31.5 -4t-17 -10.5t-7 -21t-1.5 -35.5v-535q0 -23 1.5 -37t7 -21.5t17 -10t32.5 -2.5h45z
" />
    <glyph glyph-name="uni04AE" unicode="&#x4ae;" horiz-adv-x="746" 
d="M203 38l44 2q24 1 38 3t21 9t8.5 21t1.5 38v221l-226 360q-9 15 -17.5 20t-34.5 7l-34 3v36h297v-36l-49 -3q-28 -2 -37.5 -8.5t4.5 -29.5l187 -298l141 218q41 63 42.5 90t-43.5 29l-38 2v36h249v-36l-32 -2q-17 -1 -29 -6.5t-24.5 -19t-28 -36.5t-39.5 -59l-178 -269
v-219q0 -24 1.5 -38t8.5 -21t21 -9t38 -3l44 -2v-38h-336v38z" />
    <glyph glyph-name="uni04B0" unicode="&#x4b0;" horiz-adv-x="746" 
d="M203 38l44 2q24 1 38 3t21 9t8.5 21t1.5 38v221l-226 360q-9 15 -17.5 20t-34.5 7l-34 3v36h297v-36l-49 -3q-28 -2 -37.5 -8.5t4.5 -29.5l187 -298l141 218q41 63 42.5 90t-43.5 29l-38 2v36h249v-36l-32 -2q-17 -1 -29 -6.5t-24.5 -19t-28 -36.5t-39.5 -59l-178 -269
v-219q0 -24 1.5 -38t8.5 -21t21 -9t38 -3l44 -2v-38h-336v38zM117 333h505v-50h-505v50z" />
    <glyph glyph-name="uni04B2" unicode="&#x4b2;" horiz-adv-x="846" 
d="M849 -159h-32l-15 65q-8 34 -18 53t-27.5 28t-45.5 11t-71 2h-130v36l46 3q28 2 36.5 9.5t-7.5 28.5l-200 264l-155 -191q-23 -28 -38.5 -48.5t-21 -34.5t-0.5 -21.5t25 -7.5l43 -2v-36h-251v36l38 2q31 2 61.5 31.5t77.5 84.5l193 226l-237 312q-5 7 -10 12t-11 8
t-14.5 4.5t-21.5 2.5l-33 3v36h306v-36l-46 -3q-28 -2 -36.5 -9.5t7.5 -28.5l164 -216l111 143q22 28 38 49t22 35t0.5 21t-25.5 7l-43 2v36h251v-36l-38 -2q-32 -2 -62 -31t-77 -85l-147 -178l232 -309q19 -25 33.5 -40t31 -22.5t37 -10t52.5 -2.5z" />
    <glyph glyph-name="uni04B6" unicode="&#x4b6;" horiz-adv-x="824" 
d="M479 0v36l38 3q20 1 31.5 4t17 10.5t7 20.5t1.5 36v222q-18 -4 -36.5 -8t-40.5 -7t-48 -4.5t-60 -1.5q-70 0 -122 11t-87 37.5t-52.5 70.5t-17.5 110v108q0 22 -1.5 35.5t-7.5 21t-17.5 10.5t-31.5 4l-36 2v37h298v-37l-36 -2q-20 -1 -31.5 -4t-17.5 -10.5t-7.5 -21
t-1.5 -35.5v-88q0 -53 6.5 -91t26.5 -62t57.5 -35t99.5 -11q58 0 95 6t69 14v267q0 22 -1.5 35.5t-7 21t-17 10.5t-31.5 4l-38 3v36h299v-36l-37 -3q-20 -1 -31.5 -4t-17 -10.5t-7 -21t-1.5 -35.5v-535q0 -23 1.5 -37t7 -21.5t17 -10t32.5 -2.5h45l8 -201h-32l-15 65
q-8 35 -20.5 54t-37.5 28t-66 10.5t-106 1.5h-39z" />
    <glyph glyph-name="uni04BA" unicode="&#x4ba;" horiz-adv-x="830" 
d="M720.956 109.993q0 -21.999 1.5 -35.498t7.49902 -20.998q6 -7.5 17.499 -10.5q11.5 -2.99902 31.498 -3.99902l35.998 -2v-36.998h-297.981v36.998l35.9971 2q19.999 1 31.498 3.99902q11.5 3 17.499 10.5q6 7.49902 7.5 20.998t1.5 35.498v87.9951
q0 52.9961 -6.5 90.9941q-6.49902 37.998 -26.498 61.9961q-19.999 23.999 -57.4971 34.998q-37.4971 10.999 -99.4932 10.999q-57.9971 0 -94.9941 -5.99902q-36.998 -6 -68.9961 -14v-266.983q0 -21.999 1.5 -35.498t6.99902 -20.998q5.5 -7.5 16.999 -10.5
q11.5 -2.99902 31.498 -3.99902l37.998 -3v-35.998h-298.981v35.998l36.9971 3q19.999 1 31.498 3.99902q11.5 3 16.999 10.5q5.5 7.49902 7 20.998t1.5 35.498v537.968q0 22.998 -1.5 35.9971t-7 20.499q-5.49902 7.5 -16.999 10.499q-11.499 3 -31.498 4l-36.9971 3
v35.998h298.981v-35.998l-37.998 -3q-19.998 -1 -31.498 -4q-11.499 -2.99902 -16.999 -10.499q-5.49902 -7.5 -6.99902 -20.499t-1.5 -35.9971v-221.987q17.999 4 36.498 8q18.498 4 40.4971 6.99902q21.999 3 47.9971 4.5t59.9961 1.5q69.9961 0 121.993 -10.999
q51.9971 -11 86.9941 -37.498q34.998 -26.498 52.4971 -70.4951q17.499 -43.998 17.499 -109.994v-107.993z" />
    <glyph glyph-name="uni04C0" unicode="&#x4c0;" horiz-adv-x="405" 
d="M147 648q0 22 -1.5 35.5t-7 21t-16.5 10t-31 4.5l-38 3v36h299v-36l-38 -3q-20 -2 -31.5 -4.5t-17 -10t-7 -21t-1.5 -35.5v-538q0 -23 1.5 -36t7 -20.5t17 -10.5t31.5 -4l38 -3v-36h-299v36l38 3q20 1 31 4t16.5 10.5t7 20.5t1.5 36v538z" />
    <glyph glyph-name="uni04D8" unicode="&#x4d8;" horiz-adv-x="793" 
d="M382 -13q-67 0 -126 21.5t-105 63t-75 101t-36 136.5h584q1 11 1.5 21.5t0.5 21.5q0 77 -18 141.5t-52.5 111t-85.5 72.5t-117 26q-37 0 -74 -7t-72.5 -25.5t-68 -49.5t-60.5 -79l-33 16q23 56 59 99t79.5 71.5t93.5 43t102 14.5q89 0 157.5 -30t115 -83.5t70.5 -126.5
t24 -160q0 -89 -28.5 -162t-78 -126t-115.5 -82t-142 -29zM394 30q50 0 89.5 20.5t67.5 54t45 75.5t23 86h-448q6 -61 27 -105.5t52 -73.5t68 -43t76 -14z" />
    <glyph glyph-name="uni04E2" unicode="&#x4e2;" horiz-adv-x="911" 
d="M147 648q0 22 -1.5 35.5t-7 21t-16.5 10.5t-31 4l-38 3v36h299v-36l-38 -3q-20 -1 -31.5 -4t-17 -10.5t-7 -21t-1.5 -35.5v-463l396 458v5q0 22 -1.5 35.5t-7 21t-17 10.5t-31.5 4l-37 3v36h299v-36l-38 -3q-20 -1 -31.5 -4t-17 -10.5t-7 -21.5t-1.5 -37v-536
q0 -23 1.5 -36t7 -20.5t17 -10.5t31.5 -4l38 -3v-36h-299v36l37 3q20 1 31.5 4t17 10.5t7 20.5t1.5 36v465l-396 -459v-6q0 -23 1.5 -36t7 -20.5t17 -10.5t31.5 -4l38 -3v-36h-299v36l38 3q20 1 31 4t16.5 10.5t7 20.5t1.5 36v538zM322 939h296v-65h-296v65z" />
    <glyph glyph-name="uni04E8" unicode="&#x4e8;" horiz-adv-x="881" 
d="M441 779q81 0 152.5 -29.5t125.5 -82t85 -125t31 -159.5t-31.5 -159.5t-85.5 -125t-125.5 -82t-151.5 -29.5q-81 0 -153 29.5t-125.5 82t-84.5 125t-31 159.5q0 86 31.5 159t85.5 125.5t125.5 82t151.5 29.5zM453 31q51 0 97.5 19.5t81 59.5t55 101t20.5 143v6h-530
q6 -77 28 -138t57.5 -103.5t84 -65t106.5 -22.5zM428 735q-51 0 -97 -19.5t-80.5 -59.5t-55 -101t-20.5 -143v-2h529q-6 76 -28 136.5t-58 102.5t-84 64t-106 22z" />
    <glyph glyph-name="uni04EE" unicode="&#x4ee;" horiz-adv-x="766" 
d="M511 357q-42 -77 -73 -135t-55 -99t-42.5 -67.5t-36.5 -41.5t-37 -21t-43 -6q-34 0 -54.5 15.5t-20.5 41.5q0 8 2.5 18t9.5 17q16 1 34.5 2t35.5 3t31 5t23 7q14 7 31.5 29t37.5 51l-257 493q-9 16 -16 25.5t-14 15t-15 7t-18 2.5l-32 3v36h290v-36l-48 -3
q-14 -1 -23.5 -3t-13 -8t-0.5 -17t12 -30l195 -380l177 334q15 30 20.5 49t2 30.5t-15 16.5t-29.5 7l-43 4v36h247v-36l-23 -3q-15 -2 -25.5 -6t-21 -15t-23 -31t-30.5 -54zM246 939h296v-65h-296v65z" />
    <glyph glyph-name="uni0430" unicode="&#x430;" horiz-adv-x="530" 
d="M200 -13q-29 0 -57 11t-49.5 29.5t-35 43.5t-13.5 54q0 28 11.5 49.5t33.5 38.5t55 32t76 30q16 6 33 13.5t33 16.5t29 19t20 20v29q0 26 -8.5 45.5t-22 32t-31 18.5t-35.5 6q-31 0 -51.5 -9.5t-32 -26.5t-16 -40t-4.5 -50q-6 -3 -14.5 -4t-16.5 -1h-2q-25 0 -40 13
t-15 36q0 21 23.5 40.5t67.5 38.5q36 15 76.5 31.5t79.5 16.5q30 0 55.5 -6.5t43.5 -22.5t28 -43.5t9 -69.5l-5 -286q-1 -26 3 -32t21 -6q15 0 30 1t28 3l4 -31l-31 -12q-8 -3 -19 -7.5t-23 -8.5t-24 -6.5t-21 -2.5q-25 0 -37 15.5t-19 49.5q-15 -13 -31 -25t-34 -23
q-34 -20 -72 -20zM253 42q26 0 49 14t28 36l5 209q-18 -12 -38 -23t-40 -21q-21 -11 -40.5 -22.5t-34 -25t-23.5 -30t-9 -37.5q0 -25 9.5 -44t24.5 -31.5t33.5 -18.5t35.5 -6z" />
    <glyph glyph-name="uni0431" unicode="&#x431;" horiz-adv-x="600" 
d="M560 269q0 -62 -20.5 -113.5t-55 -89t-80.5 -58.5t-97 -21q-125 0 -192.5 87t-67.5 248q0 82 20 158t60.5 135.5t102.5 98t145 45.5q60 5 96 20.5t36 49.5h25q0 -37 -7.5 -66t-27 -50t-52 -33.5t-81.5 -16.5q-74 -5 -112.5 -9.5t-57.5 -21.5q-11 -10 -19 -21.5
t-12.5 -33.5t-7 -58.5t-2.5 -94.5q23 20 49.5 40t46.5 31q21 11 45.5 17t47.5 6q49 0 89.5 -18.5t69 -51.5t44 -78.5t15.5 -100.5zM311 29q74 0 108 50.5t34 147.5q0 48 -10.5 90t-32 73.5t-53 49.5t-73.5 18q-29 0 -63 -17.5t-68 -51.5v-53q0 -81 11.5 -139t32.5 -95.5
t50 -55t64 -17.5z" />
    <glyph glyph-name="uni0432" unicode="&#x432;" horiz-adv-x="568" 
d="M279 502q106 0 162.5 -28.5t56.5 -84.5q0 -25 -11 -44.5t-31 -33.5t-47 -24t-60 -16v-1q38 -3 72 -11t59 -23t39.5 -36.5t14.5 -49.5q0 -72 -63 -111t-184 -39h-248v36l43 2q25 2 30.5 10t5.5 25v356q0 16 -5 24.5t-31 10.5l-43 2v36h240zM235 463q-12 0 -16 -4.5
t-4 -15.5v-157h59q63 0 91 24.5t28 72.5q0 45 -29 62.5t-93 17.5h-36zM215 85q0 -29 14.5 -38.5t50.5 -9.5q73 0 108.5 23t35.5 77q0 24 -7 44.5t-24 35t-46 23t-72 8.5h-60v-163z" />
    <glyph glyph-name="uni0433" unicode="&#x433;" horiz-adv-x="457" 
d="M226 463q-12 0 -16 -4.5t-4 -15.5v-370q0 -17 6 -25.5t32 -9.5l61 -2v-36h-275v36l43 2q25 2 30.5 10t5.5 25v356q0 17 -5.5 25t-30.5 10l-43 2v36h207l194 2l7 -164h-32l-11 38q-8 29 -17 46t-25 25.5t-42 11t-69 2.5h-16z" />
    <glyph glyph-name="uni0434" unicode="&#x434;" horiz-adv-x="575" 
d="M208 0q-39 0 -63 -1t-38.5 -7.5t-22.5 -19.5t-15 -37l-22 -74h-32l6 178h56q36 56 55 156t19 234q0 17 -5.5 25t-30.5 10l-44 2v36h474v-36l-43 -2q-25 -2 -30.5 -10t-5.5 -25v-356q0 -16 5.5 -25t30.5 -9h38l6 -178h-32l-22 74q-7 24 -15 37t-22.5 19.5t-39 7.5t-63.5 1
h-144zM330 39q23 0 31 8.5t8 25.5v370q0 11 -4 15.5t-16 4.5h-130q-12 0 -16 -4.5t-4 -15.5q0 -143 -19 -247.5t-49 -156.5h199z" />
    <glyph glyph-name="uni0435" unicode="&#x435;" horiz-adv-x="532" 
d="M274 -13q-42 0 -83.5 17.5t-74 51t-53 83t-20.5 114.5q0 57 17.5 105.5t48.5 84t72.5 56t89.5 20.5q54 0 92.5 -17.5t65 -47t42 -67t22.5 -77.5h-353v-6q0 -54 15 -98t40.5 -74.5t60.5 -47.5t74 -17q25 0 47.5 7.5t40.5 18.5t31.5 22.5t22.5 20.5l23 -25l-21 -22
q-48 -51 -94.5 -76.5t-105.5 -25.5zM266 483q-31 0 -53 -12t-36.5 -31t-22.5 -43t-11 -48h236q-5 60 -31.5 97t-81.5 37z" />
    <glyph glyph-name="uni0451" unicode="&#x451;" horiz-adv-x="532" 
d="M274 -13q-42 0 -83.5 17.5t-74 51t-53 83t-20.5 114.5q0 57 17.5 105.5t48.5 84t72.5 56t89.5 20.5q54 0 92.5 -17.5t65 -47t42 -67t22.5 -77.5h-353v-6q0 -54 15 -98t40.5 -74.5t60.5 -47.5t74 -17q25 0 47.5 7.5t40.5 18.5t31.5 22.5t22.5 20.5l23 -25l-21 -22
q-48 -51 -94.5 -76.5t-105.5 -25.5zM266 483q-31 0 -53 -12t-36.5 -31t-22.5 -43t-11 -48h236q-5 60 -31.5 97t-81.5 37zM158 663q-24 0 -41.5 16.5t-17.5 42.5t17.5 43t41.5 17q25 0 42 -17t17 -43t-17 -42.5t-42 -16.5zM391 663q-24 0 -41 16.5t-17 42.5t17 43t41 17
q26 0 43 -17t17 -43t-17 -42.5t-43 -16.5z" />
    <glyph glyph-name="uni0436" unicode="&#x436;" horiz-adv-x="909" 
d="M295 286l-138 123q-15 13 -27 23.5t-23.5 17.5t-24.5 10.5t-29 4.5l-23 1v36h220v-36h-20q-40 -1 -35.5 -14t44.5 -54l110 -111q16 -17 30.5 -22t26.5 -7v171q0 17 -5.5 25t-30.5 10l-38 2v36h244v-36l-37 -2q-25 -2 -30.5 -10t-5.5 -25v-171q12 2 26.5 7t31.5 22
l109 111q40 41 44.5 54t-35.5 14h-20v36h220v-36l-23 -1q-33 -2 -55.5 -15.5t-52.5 -40.5l-133 -117l186 -216q10 -12 17.5 -19t16 -10.5t18 -5.5t23.5 -3l30 -2v-36h-171l-188 232l-44 3v-162q0 -17 5.5 -25t30.5 -10l43 -2v-36h-254v36l42 2q25 2 30.5 10t5.5 25v162
l-44 -3l-188 -232h-171v36l30 2q28 2 44.5 8.5t36.5 29.5z" />
    <glyph glyph-name="uni0437" unicode="&#x437;" horiz-adv-x="490" 
d="M235 28q49 0 79 23.5t30 80.5t-32.5 84t-110.5 27h-45v42h46q65 0 95.5 25t30.5 75t-27.5 72t-72.5 22q-23 0 -38 -4t-26 -12.5t-20 -21.5t-19 -31l-27 -48l-35 6l20 131q25 9 66.5 14.5t89.5 5.5q93 0 144 -31.5t51 -85.5q0 -57 -42.5 -89t-108.5 -45v-1
q78 -6 125 -36.5t47 -87.5q0 -75 -60 -115.5t-172 -40.5q-38 0 -72 5.5t-59.5 17t-41 29t-15.5 41.5q0 29 20.5 43.5t47.5 12.5q10 -20 21.5 -39.5t26.5 -34.5t35 -24.5t49 -9.5z" />
    <glyph glyph-name="uni0438" unicode="&#x438;" horiz-adv-x="650" 
d="M206 155l238 248v26q0 17 -6 25t-30 10l-42 2v36h254v-36l-43 -2q-25 -2 -30.5 -10t-5.5 -25v-356q0 -17 5.5 -25t30.5 -10l43 -2v-36h-254v36l42 2q24 2 30 10t6 25v274l-238 -247v-27q0 -17 6 -25t31 -10l41 -2v-36h-254v36l43 2q25 2 30.5 10t5.5 25v356q0 17 -5.5 25
t-30.5 10l-43 2v36h254v-36l-41 -2q-25 -2 -31 -10t-6 -25v-274z" />
    <glyph glyph-name="uni0439" unicode="&#x439;" horiz-adv-x="650" 
d="M206 155l238 248v26q0 17 -6 25t-30 10l-42 2v36h254v-36l-43 -2q-25 -2 -30.5 -10t-5.5 -25v-356q0 -17 5.5 -25t30.5 -10l43 -2v-36h-254v36l42 2q24 2 30 10t6 25v274l-238 -247v-27q0 -17 6 -25t31 -10l41 -2v-36h-254v36l43 2q25 2 30.5 10t5.5 25v356q0 17 -5.5 25
t-30.5 10l-43 2v36h254v-36l-41 -2q-25 -2 -31 -10t-6 -25v-274zM248 788q0 -26 4 -48.5t13.5 -39t26 -26.5t42.5 -10t42 10t24.5 26.5t11 39t2.5 48.5h89q0 -73 -45.5 -116.5t-123.5 -43.5q-45 0 -77.5 13t-54 34.5t-32 50.5t-10.5 62h88z" />
    </font>
</defs>
</svg>
