<?xml version="1.0" standalone="no"?>
<!DOCTYPE svg PUBLIC "-//W3C//DTD SVG 1.1//EN" "http://www.w3.org/Graphics/SVG/1.1/DTD/svg11.dtd" >
<svg xmlns="http://www.w3.org/2000/svg" xmlns:xlink="http://www.w3.org/1999/xlink" version="1.1">
<metadata>
Created by Christoph Koeberlin (http://christoph.koe.berlin)
Copyright (c) 2017 Swiss Typefaces Sarl. All rights reserved.
</metadata>
<defs>
<font id="Font" horiz-adv-x="0" >
  <font-face 
    font-family="Font"
    font-weight="500"
    font-stretch="normal"
    units-per-em="1000"
    panose-1="2 4 6 4 6 0 0 0 0 4"
    ascent="800"
    descent="-200"
    x-height="502"
    cap-height="758"
    bbox="-417 -403 1327 1081"
    underline-thickness="67"
    underline-position="-130"
    unicode-range="U+0020-FEFF"
  />
<missing-glyph horiz-adv-x="640" 
d="M70 758h500v-758h-500v758zM320 396l217 343h-434zM89 30l221 349l-221 349v-698zM551 30v698l-220 -349zM537 19l-217 343l-217 -343h434z" />
    <glyph glyph-name="f_f.liga" unicode="ff" horiz-adv-x="760" 
d="M399 40l46 3q20 2 25.5 10t5.5 25v360h-70v64h70v4q0 70 26 124t65 95q42 45 84.5 68t74.5 23q29 0 44.5 -14t15.5 -40q0 -24 -11 -42.5t-25 -25.5q-14 4 -31 8t-34.5 7t-33.5 5t-27 2q-13 0 -21 -4t-12 -18t-4 -40t3 -69l6 -83h145v-64h-145v-358q0 -17 5.5 -25t25.5 -9
l76 -3v-43h-304v40zM41 40l46 3q20 2 25 10t5 25v360h-93v29l93 34v5q0 54 27 105.5t66 92.5q42 45 86 68t76 23q26 0 41.5 -14t15.5 -39q0 -24 -11 -43t-25 -25q-14 4 -31 7.5t-34.5 6.5t-33.5 5t-27 2q-13 0 -21 -4t-12 -17.5t-4 -39.5t3 -70l4 -62h131v-64h-131v-358
q0 -17 5.5 -25t25.5 -9l76 -3v-43h-303v40z" />
    <glyph glyph-name="f_i.liga" unicode="fi" horiz-adv-x="714" 
d="M40 40l46 3q20 2 25.5 10t5.5 25v360h-93v29l93 34v5q0 70 26.5 124t64.5 95q42 45 85 68t75 23q28 0 43.5 -14t15.5 -40q0 -24 -11 -42.5t-25 -25.5q-13 4 -30 8t-34.5 7t-33.5 5t-27 2q-14 0 -22 -4t-12 -18t-4 -40t3 -69l6 -83h145v-64h-145v-358q0 -17 5.5 -25
t25.5 -9l76 -3v-43h-304v40zM616 78q0 -17 5.5 -25t25.5 -10l46 -3v-40h-274v40l46 3q20 2 25.5 10t5.5 25v270q0 15 -0.5 24t-2.5 15t-7 10t-14 9l-67 35v6l211 81v-450zM548 655q-33 0 -56 23t-23 56t23 56t56 23t56.5 -23t23.5 -56t-23.5 -56t-56.5 -23z" />
    <glyph glyph-name="f_f_i.liga" unicode="ffi" horiz-adv-x="1074" 
d="M399 40l46 3q20 2 25.5 10t5.5 25v360h-70v64h70v4q0 70 26 124t65 95q42 45 84.5 68t74.5 23q29 0 44.5 -14t15.5 -40q0 -24 -11 -42.5t-25 -25.5q-14 4 -31 8t-34.5 7t-33.5 5t-27 2q-13 0 -21 -4t-12 -18t-4 -40t3 -69l6 -83h145v-64h-145v-358q0 -17 5.5 -25t25.5 -9
l76 -3v-43h-304v40zM41 40l46 3q20 2 25 10t5 25v360h-93v29l93 34v5q0 54 27 105.5t66 92.5q42 45 86 68t76 23q26 0 41.5 -14t15.5 -39q0 -24 -11 -43t-25 -25q-14 4 -31 7.5t-34.5 6.5t-33.5 5t-27 2q-13 0 -21 -4t-12 -17.5t-4 -39.5t3 -70l4 -62h131v-64h-131v-358
q0 -17 5.5 -25t25.5 -9l76 -3v-43h-303v40zM975 78q0 -17 5.5 -25t25.5 -10l46 -3v-40h-274v40l46 3q20 2 25.5 10t5.5 25v270q0 15 -0.5 24t-2.5 15t-7 10t-14 9l-67 35v6l211 81v-450zM907 655q-33 0 -56 23t-23 56t23 56t56 23t56.5 -23t23.5 -56t-23.5 -56t-56.5 -23z
" />
    <glyph glyph-name="f_l.liga" unicode="fl" horiz-adv-x="714" 
d="M40 40l46 3q20 2 25.5 10t5.5 25v360h-93v29l93 34v5q0 70 26.5 124t64.5 95q42 45 85 68t75 23q28 0 43.5 -14t15.5 -40q0 -24 -11 -42.5t-25 -25.5q-13 4 -30 8t-34.5 7t-33.5 5t-27 2q-14 0 -22 -4t-12 -18t-4 -40t3 -69l6 -83h145v-64h-145v-358q0 -17 5.5 -25
t25.5 -9l76 -3v-43h-304v40zM418 0v40l46 3q20 2 25.5 10t5.5 25v576q0 15 -0.5 24.5t-2.5 15.5t-6.5 10t-13.5 9l-68 35v6l211 79v-755q0 -17 5.5 -25t25.5 -10l46 -3v-40h-274z" />
    <glyph glyph-name="f_f_l.liga" unicode="ffl" horiz-adv-x="1074" 
d="M777 0v40l46 3q20 2 25.5 10t5.5 25v576q0 15 -0.5 24.5t-2.5 15.5t-6.5 10t-13.5 9l-49 25q-5 -16 -13 -27.5t-19 -16.5q-14 4 -31 8t-34.5 7t-33.5 5t-27 2q-13 0 -21 -4t-12 -18t-4 -40t3 -69l6 -83h145v-64h-145v-358q0 -17 5.5 -25t25.5 -9l76 -3v-43h-304v40l46 3
q20 2 25.5 10t5.5 25v360h-70v64h70v4q0 70 26 124t65 95q42 45 84.5 68t74.5 23q29 0 44.5 -14t15.5 -40l188 71v-755q0 -17 5.5 -25t25.5 -10l46 -3v-40h-274zM41 40l46 3q20 2 25 10t5 25v360h-93v29l93 34v5q0 54 27 105.5t66 92.5q42 45 86 68t76 23q26 0 41.5 -14
t15.5 -39q0 -24 -11 -43t-25 -25q-14 4 -31 7.5t-34.5 6.5t-33.5 5t-27 2q-13 0 -21 -4t-12 -17.5t-4 -39.5t3 -70l4 -62h131v-64h-131v-358q0 -17 5.5 -25t25.5 -9l76 -3v-43h-303v40z" />
    <glyph glyph-name=".notdef" horiz-adv-x="640" 
d="M70 758h500v-758h-500v758zM320 396l217 343h-434zM89 30l221 349l-221 349v-698zM551 30v698l-220 -349zM537 19l-217 343l-217 -343h434z" />
    <glyph glyph-name="glyph1" 
 />
    <glyph glyph-name="glyph2" horiz-adv-x="260" 
 />
    <glyph glyph-name="space" unicode=" " horiz-adv-x="260" 
 />
    <glyph glyph-name="exclam" unicode="!" horiz-adv-x="301" 
d="M131 237q-4 67 -8.5 115t-9.5 85t-10 68t-10.5 66t-10.5 77.5t-9 103.5q0 15 24 22.5t53 7.5t53 -7.5t24 -22.5q-4 -61 -8.5 -104t-10 -77.5t-10.5 -66t-10 -68t-9.5 -84.5t-8.5 -115h-39zM148 -13q-35 0 -60.5 26t-25.5 64q0 18 7 33.5t18.5 27t27 18.5t33.5 7
q38 0 64 -25.5t26 -60.5q0 -38 -26 -64t-64 -26z" />
    <glyph glyph-name="quotedbl" unicode="&#x22;" horiz-adv-x="398" 
d="M226 726q-6 32 11.5 42.5t51.5 10.5q33 0 50.5 -10.5t11.5 -42.5l-45 -234h-35zM47 726q-6 32 11.5 42.5t51.5 10.5q33 0 50.5 -10.5t11.5 -42.5l-45 -234h-35z" />
    <glyph glyph-name="numbersign" unicode="#" horiz-adv-x="890" 
d="M59 267h171l90 221h-172l27 68h173l89 220h74l-89 -220h193l89 220h74l-89 -220h169l-27 -68h-170l-90 -221h170l-27 -68h-170l-81 -199h-74l81 199h-193l-81 -199h-74l81 199h-173zM497 267l90 221h-193l-90 -221h193z" />
    <glyph glyph-name="dollar" unicode="$" horiz-adv-x="600" 
d="M318 886v-107q45 0 84.5 -8.5t69.5 -23.5t47 -36.5t17 -48.5q0 -31 -24 -51t-72 -11q-10 63 -39 94.5t-83 35.5v-277l31 -13q49 -20 87.5 -40t65.5 -45t41 -58t14 -81t-18.5 -87.5t-50.5 -69t-75.5 -47.5t-94.5 -23v-109h-46v107q-51 1 -94 12.5t-74 30t-48.5 42.5
t-17.5 51q0 34 27 55t75 13q9 -66 40.5 -107.5t91.5 -47.5v303l-26 11q-91 38 -137 90t-46 130q0 42 17 77.5t45.5 62t66.5 43.5t80 23v110h46zM160 617q0 -54 29 -87.5t83 -57.5v257q-49 -6 -80.5 -33.5t-31.5 -78.5zM454 165q0 30 -9 52.5t-26.5 40.5t-43 33t-57.5 29
v-284q63 7 99.5 40.5t36.5 88.5z" />
    <glyph glyph-name="percent" unicode="%" horiz-adv-x="944" 
d="M714 758h82l-566 -758h-82zM562 212q0 39 11 77.5t32.5 69t53.5 50t75 19.5t75.5 -19.5t54 -50t32 -69t10.5 -77.5t-10.5 -78t-32 -70.5t-54 -51t-75.5 -19.5t-75 19.5t-53.5 51t-32.5 70.5t-11 78zM660 212q0 -32 2.5 -65.5t10.5 -60.5t22.5 -44.5t38.5 -17.5t38.5 17.5
t22.5 44.5t10.5 60.5t2.5 65.5q0 31 -2.5 64t-10.5 60t-22.5 44t-38.5 17t-38.5 -17t-22.5 -44t-10.5 -60t-2.5 -64zM37 553q0 39 11 77.5t32.5 69t53.5 50t75 19.5t75.5 -19.5t54 -50t32 -69t10.5 -77.5t-10.5 -78t-32 -70.5t-54 -51t-75.5 -19.5t-75 19.5t-53.5 51
t-32.5 70.5t-11 78zM135 553q0 -32 2.5 -65.5t10.5 -60.5t22.5 -44.5t38.5 -17.5t38.5 17.5t22.5 44.5t10.5 60.5t2.5 65.5q0 31 -2.5 64t-10.5 60t-22.5 44t-38.5 17t-38.5 -17t-22.5 -44t-10.5 -60t-2.5 -64z" />
    <glyph glyph-name="ampersand" unicode="&#x26;" horiz-adv-x="902" 
d="M304 -13q-63 0 -111 19t-79.5 50t-47.5 70.5t-16 79.5q0 82 53 145.5t142 98.5q-42 39 -59.5 78.5t-17.5 79.5q0 36 17 67t45.5 54.5t66 36.5t78.5 13t75 -9.5t58 -26.5t37.5 -41.5t13.5 -54.5q0 -49 -27 -84t-74 -57l-70 -32q56 -48 112.5 -105t106.5 -113l15 26l58 106
q24 44 18 57t-42 15l-34 2v40h243v-40l-15 -1q-18 -1 -33 -5.5t-32 -18.5t-37.5 -40t-48.5 -69l-66 -101v-1q18 -21 34.5 -41.5t30.5 -39.5q42 -56 78 -80q19 -13 39 -17.5t49 -6.5l15 -1v-40h-232q-16 25 -38.5 57t-51.5 69q-25 -29 -46.5 -49t-38.5 -35
q-30 -26 -73.5 -40.5t-94.5 -14.5zM167 258q0 -39 13.5 -72.5t37.5 -57.5t57.5 -38t74.5 -14q58 0 102.5 21.5t80.5 58.5q-29 36 -61.5 73.5t-66.5 72.5t-67.5 67t-65.5 58q-52 -28 -78.5 -73t-26.5 -96zM277 647q0 -70 84 -149q110 43 110 136q0 45 -25 74.5t-71 29.5
q-48 0 -73 -26t-25 -65z" />
    <glyph glyph-name="quotesingle" unicode="'" horiz-adv-x="219" 
d="M47 726q-6 32 11.5 42.5t51.5 10.5q33 0 50.5 -10.5t11.5 -42.5l-45 -234h-35z" />
    <glyph glyph-name="parenleft" unicode="(" horiz-adv-x="331" 
d="M280 -244q-64 53 -109.5 116.5t-74.5 132.5t-42.5 142.5t-13.5 147.5t13.5 147.5t42.5 142.5t74.5 132.5t109.5 116.5l32 -28q-49 -54 -80.5 -116.5t-50 -128.5t-25.5 -133.5t-7 -132.5t7 -132.5t25.5 -133.5t50 -128.5t80.5 -116.5z" />
    <glyph glyph-name="parenright" unicode=")" horiz-adv-x="330" 
d="M51 834q64 -53 109.5 -116.5t74.5 -132.5t42.5 -142.5t13.5 -147.5t-13.5 -147.5t-42.5 -142.5t-74.5 -132.5t-109.5 -116.5l-32 28q49 54 80.5 116.5t50 128.5t25.5 133.5t7 132.5t-7 132.5t-25.5 133.5t-50 128.5t-80.5 116.5z" />
    <glyph glyph-name="asterisk" unicode="*" horiz-adv-x="491" 
d="M134 413l-24 17l79 145l-149 69l10 29l161 -32l19 162h30l20 -162l162 31l9 -28l-150 -69l79 -145l-24 -17l-111 121z" />
    <glyph glyph-name="plus" unicode="+" horiz-adv-x="653" 
d="M289 227h-231v71h231v218h75v-218h231v-71h-231v-227h-75v227z" />
    <glyph glyph-name="comma" unicode="," horiz-adv-x="300" 
d="M138 161q22 0 42.5 -9t35.5 -25t24 -39.5t9 -51.5q0 -27 -12.5 -56t-35.5 -57t-57 -53t-77 -45l-17 34q49 27 73.5 59.5t24.5 67.5t-24 56.5t-72 33.5q-1 20 6.5 36t19.5 27t28 16.5t32 5.5z" />
    <glyph glyph-name="hyphen" unicode="-" horiz-adv-x="420" 
d="M63 300h294v-75h-294v75z" />
    <glyph glyph-name="period" unicode="." horiz-adv-x="280" 
d="M138 -13q-35 0 -60.5 26t-25.5 64q0 18 7 33.5t18.5 27t27 18.5t33.5 7q38 0 64 -25.5t26 -60.5q0 -38 -26 -64t-64 -26z" />
    <glyph glyph-name="slash" unicode="/" horiz-adv-x="483" 
d="M371 806h85l-344 -858h-84z" />
    <glyph glyph-name="zero" unicode="0" horiz-adv-x="674" 
d="M49 385q0 70 17.5 140.5t53 126.5t89.5 91.5t128 35.5t128 -35.5t89.5 -91.5t53 -126.5t17.5 -140.5q0 -71 -17.5 -142t-53 -128t-89.5 -92.5t-128 -35.5t-128 35.5t-89.5 92.5t-53 128t-17.5 142zM187 385q0 -60 6.5 -123t23 -114t45.5 -83.5t75 -32.5q45 0 74.5 32.5
t46 83.5t23 114t6.5 123t-6.5 122t-23 112.5t-46 82.5t-74.5 32q-46 0 -75 -32t-45.5 -82.5t-23 -112.5t-6.5 -122z" />
    <glyph glyph-name="one" unicode="1" horiz-adv-x="403" 
d="M155 642h-127v38q49 4 83 12.5t58 20.5t41 28t31 37h34v-708q0 -12 4 -18t24 -8l46 -3v-41h-289v42l67 3q19 1 23.5 7.5t4.5 18.5v571z" />
    <glyph glyph-name="two" unicode="2" horiz-adv-x="583" 
d="M17 0v22q100 97 170.5 176t114 143.5t63.5 117t20 98.5q0 28 -8 53t-25 44t-43.5 30.5t-63.5 11.5q-28 0 -49.5 -7t-40 -20t-36 -33t-37.5 -45l-36 21q24 38 48.5 69t53.5 52.5t64 33.5t80 12q54 0 95 -15t68.5 -40.5t41.5 -60.5t14 -74q0 -44 -17.5 -86t-46 -82.5
t-64 -79t-71.5 -76.5l-155 -159l203 1q37 0 60.5 3.5t39 14t27 28.5t23.5 48l35 -4l-51 -197h-477z" />
    <glyph glyph-name="three" unicode="3" horiz-adv-x="578" 
d="M220 -13q-43 0 -78.5 9t-61 25t-39.5 37.5t-14 46.5q0 16 7 29t19 22t29.5 13t38.5 0q20 -61 52.5 -97.5t88.5 -36.5q24 0 50.5 9t49.5 29.5t38 52.5t15 78q0 45 -14 79.5t-36.5 58.5t-51 36.5t-57.5 12.5q-23 0 -41 -4.5t-36 -12.5l-11 38l57 22q73 28 111 72.5t38 94.5
q0 43 -29.5 69.5t-83.5 26.5q-50 0 -84.5 -25t-71.5 -83l-36 22q24 44 49.5 75.5t54.5 52t62.5 30.5t75.5 10q40 0 73.5 -10t57.5 -28t37.5 -43t13.5 -55q0 -54 -37.5 -93t-96.5 -65v-3q78 -26 126 -81.5t48 -132.5q0 -65 -29 -117t-74 -88.5t-100.5 -56t-109.5 -19.5z" />
    <glyph glyph-name="four" unicode="4" horiz-adv-x="635" 
d="M354 200h-344v34l361 524h103v-481h137v-77h-137v-200h-120v200zM354 277v368l-242 -368h242z" />
    <glyph glyph-name="five" unicode="5" horiz-adv-x="570" 
d="M201 -13q-39 0 -73 9t-58.5 24.5t-38.5 37t-14 46.5q0 16 7 29t19.5 22t30 13t38.5 0q20 -61 54 -95.5t91 -34.5q29 0 57 10.5t49.5 30t35 48t13.5 64.5q0 86 -77.5 141t-231.5 87l89 339h344l-32 -118h-293l-28 -101q165 -38 246 -107t81 -180q0 -54 -24.5 -102
t-66.5 -84.5t-98 -57.5t-120 -21z" />
    <glyph glyph-name="six" unicode="6" horiz-adv-x="620" 
d="M570 235q0 -53 -21.5 -98t-58 -78.5t-84.5 -52.5t-101 -19q-56 0 -104.5 20.5t-83.5 58.5t-55 92t-20 121q0 72 34 147.5t100.5 144.5t164.5 128t226 98l14 -43q-88 -30 -154.5 -71.5t-114 -90.5t-77.5 -102.5t-44 -106.5q15 11 32.5 23t33.5 23q19 12 42.5 20.5
t52.5 8.5q40 0 79 -12.5t70 -39.5t50 -69t19 -102zM177 279q0 -129 37.5 -188t96.5 -59q60 0 93.5 46.5t33.5 137.5q0 83 -41 126t-103 43q-34 0 -60.5 -9.5t-51.5 -32.5q-2 -17 -3.5 -32.5t-1.5 -31.5z" />
    <glyph glyph-name="seven" unicode="7" horiz-adv-x="565" 
d="M303 284q-47 -81 -71 -136t-40 -96q-7 -18 -12.5 -29.5t-12.5 -18t-16.5 -10t-24.5 -5.5l-50 -8q-23 -4 -28 6.5t17 42.5q94 142 193.5 294t208.5 322l-240 -2q-44 0 -69.5 -3.5t-41 -13.5t-25 -28.5t-21.5 -49.5l-37 5l44 204h478l13 -19z" />
    <glyph glyph-name="eight" unicode="8" horiz-adv-x="593" 
d="M290 -13q-54 0 -99 15t-77.5 41t-50 61.5t-17.5 76.5q0 66 45.5 112.5t117.5 79.5q-60 37 -96 87.5t-36 119.5q0 45 19 82t50.5 63t73 40t86.5 14q43 0 81.5 -11t67 -31.5t45.5 -49.5t17 -65q0 -31 -12 -57.5t-33 -49t-49 -41t-59 -32.5l14 -8q35 -20 66 -42t54 -49
t36 -61t13 -77q0 -50 -22 -90t-58 -68.5t-82 -44t-95 -15.5zM340 455q48 29 70.5 69t22.5 85q0 56 -35 90t-95 34q-57 0 -93 -29.5t-36 -77.5q0 -49 32 -81.5t86 -62.5zM140 190q0 -34 10.5 -62.5t30.5 -49.5t48 -33t64 -12q67 0 107 34t40 93q0 48 -32.5 84.5t-96.5 71.5
l-77 43q-42 -26 -68 -67.5t-26 -101.5z" />
    <glyph glyph-name="nine" unicode="9" horiz-adv-x="620" 
d="M578 487q0 -77 -34 -152.5t-100 -144t-164 -125.5t-227 -96l-13 43q88 30 154.5 71.5t114 90.5t77.5 102.5t44 106.5q-15 -11 -32 -23t-34 -23q-19 -12 -42.5 -20.5t-52.5 -8.5q-40 0 -79 12.5t-70 39.5t-50.5 69t-19.5 102q0 52 21.5 97.5t58.5 79t84.5 52.5t100.5 19
q57 0 105 -20.5t83 -58t55 -92t20 -121.5zM182 550q0 -84 41 -126.5t104 -42.5q34 0 60.5 10t51.5 33q2 17 3.5 32.5t1.5 30.5q0 129 -38 188t-97 59t-93 -46.5t-34 -137.5z" />
    <glyph glyph-name="colon" unicode=":" horiz-adv-x="302" 
d="M149 345q-35 0 -60.5 26t-25.5 64q0 18 7 33.5t18.5 27t27 18.5t33.5 7q38 0 64 -25.5t26 -60.5q0 -38 -26 -64t-64 -26zM149 -13q-35 0 -60.5 26t-25.5 64q0 18 7 33.5t18.5 27t27 18.5t33.5 7q38 0 64 -25.5t26 -60.5q0 -38 -26 -64t-64 -26z" />
    <glyph glyph-name="semicolon" unicode=";" horiz-adv-x="320" 
d="M159 345q-35 0 -60.5 26t-25.5 64q0 18 7 33.5t18.5 27t27 18.5t33.5 7q38 0 64 -25.5t26 -60.5q0 -38 -26 -64t-64 -26zM147 161q22 0 42.5 -9t35.5 -25t24 -39.5t9 -51.5q0 -27 -12.5 -56t-35.5 -57t-57 -53t-77 -45l-17 34q49 27 73.5 59.5t24.5 67.5t-24 56.5
t-72 33.5q-1 20 6.5 36t19.5 27t28 16.5t32 5.5z" />
    <glyph glyph-name="less" unicode="&#x3c;" horiz-adv-x="653" 
d="M53 295l527 225v-77l-428 -181l428 -181v-77l-527 226v65z" />
    <glyph glyph-name="equal" unicode="=" horiz-adv-x="653" 
d="M69 405h515v-71h-515v71zM69 179h515v-71h-515v71z" />
    <glyph glyph-name="greater" unicode="&#x3e;" horiz-adv-x="653" 
d="M600 230l-527 -226v77l428 181l-428 181v77l527 -225v-65z" />
    <glyph glyph-name="question" unicode="?" horiz-adv-x="534" 
d="M251 722q-51 0 -81 -26t-49 -71q-38 0 -61 19t-23 48q0 21 12.5 37.5t33.5 27.5t49 16.5t60 5.5q60 0 115.5 -18.5t98 -51.5t68.5 -78.5t26 -99.5q0 -59 -35.5 -90t-111.5 -45l-83 -15q-19 -3 -30 -6.5t-17 -10t-8 -17.5t-3 -29l-5 -81h-35l-17 157q-3 25 -1 41.5
t12 26.5t29 16.5t50 12.5l73 14q57 11 80.5 30t23.5 54q0 30 -16 54.5t-40.5 42t-55 27t-59.5 9.5zM192 -13q-35 0 -60.5 26t-25.5 64q0 18 7 33.5t18.5 27t27 18.5t33.5 7q38 0 64 -25.5t26 -60.5q0 -38 -26 -64t-64 -26z" />
    <glyph glyph-name="at" unicode="@" horiz-adv-x="909" 
d="M639 37q-36 -19 -96 -34.5t-132 -15.5q-69 0 -134 22t-116 63.5t-82 102t-31 138.5q0 93 40 177t108 148.5t157 102.5t188 38q60 0 119 -18.5t106.5 -55t77 -91t29.5 -126.5q0 -79 -27 -137.5t-72.5 -97.5t-106.5 -58t-130 -19q-61 0 -61 27q0 11 5.5 26t13.5 35l17 44
h-5q-46 -61 -92 -95.5t-100 -34.5q-39 0 -64.5 25t-25.5 70q0 36 16.5 75.5t44 78.5t63 74t73.5 62t76 43t70 16q38 0 74.5 -14.5t65.5 -28.5l-119 -309q-6 -17 -10 -26.5t-4 -14.5q0 -3 1.5 -4.5t7.5 -1.5q39 0 80.5 15t75.5 47t55.5 81.5t21.5 118.5q0 55 -21.5 100
t-59 77t-88.5 50t-111 18q-84 0 -157.5 -31.5t-128 -86t-86 -127t-31.5 -153.5q0 -60 19 -113.5t57.5 -94t96 -64t134.5 -23.5q26 0 52 3.5t50 9t44.5 12.5t34.5 14zM373 244q14 0 37 11.5t49.5 37t53.5 66.5t50 100l39 103q-8 21 -42 21t-73.5 -28t-73 -70.5t-55.5 -93.5
t-22 -97q0 -50 37 -50z" />
    <glyph glyph-name="A" unicode="A" horiz-adv-x="762" 
d="M-14 41l25 3q20 2 33 7.5t24.5 21.5t24.5 46.5t34 84.5l216 564h75l261 -676q10 -27 21.5 -36.5t38.5 -11.5l36 -3v-41h-317v41l48 3q29 2 36.5 11.5t-4.5 40.5l-64 169h-259l-23 -61q-18 -50 -27 -80t-8 -47t12 -23.5t32 -8.5l40 -4v-41h-255v41zM451 325l-108 283
l-106 -283h214z" />
    <glyph glyph-name="B" unicode="B" horiz-adv-x="717" 
d="M335 758q138 0 211.5 -41t73.5 -128q0 -37 -15 -65.5t-39 -49.5t-54 -35t-59 -22v-1q36 -5 76 -19t73 -38t55 -57.5t23 -76.5q1 -53 -21.5 -95t-64 -71t-100 -44t-128.5 -15h-319v41l42 3q18 1 28.5 4t16 10t7 19t1.5 31v542q0 37 -9 49.5t-44 14.5l-42 3v41h288z
M327 429q86 0 122 37.5t36 106.5q0 66 -37 102t-127 36q-32 0 -40.5 -3.5t-8.5 -18.5v-260h55zM272 116q0 -40 16 -55t58 -15q93 0 142 39t49 123t-49.5 128t-167.5 46h-48v-266z" />
    <glyph glyph-name="C" unicode="C" horiz-adv-x="769" 
d="M478 40q60 0 101.5 21.5t71.5 72.5l47 79h38l-45 -190q-45 -14 -100 -25t-133 -11q-94 0 -171 31.5t-131.5 85.5t-84 126t-29.5 153t31 153t87 126t134 85.5t173 31.5q78 0 130.5 -10.5t92.5 -24.5l33 -185h-38l-42 73q-30 52 -75 73t-109 21q-53 0 -101.5 -16.5
t-86 -53.5t-60 -96t-22.5 -144q0 -82 18.5 -151t55.5 -119t90.5 -78t124.5 -28z" />
    <glyph glyph-name="D" unicode="D" horiz-adv-x="863" 
d="M363 758q99 0 183 -25t145 -73t95 -117.5t34 -157.5q0 -89 -35 -160t-95.5 -121t-143.5 -77t-179 -27h-320v41l42 3q18 1 28.5 4t16 10t7 19t1.5 30v543q0 18 -1.5 30t-7 19t-16 10.5t-28.5 4.5l-42 3v41h316zM363 48q66 0 122.5 16t98 52t65 94.5t23.5 144.5
q0 181 -77.5 268t-243.5 87q-28 0 -43.5 -1t-23.5 -3t-10 -6.5t-2 -11.5v-569q0 -22 3 -35.5t11 -21.5t23 -11t39 -3h15z" />
    <glyph glyph-name="E" unicode="E" horiz-adv-x="718" 
d="M47 41l42 3q18 1 28.5 4t16 10t7 19t1.5 31v542q0 37 -9 49.5t-44 14.5l-42 3v41h265l289 2l10 -193h-40l-17 51q-11 31 -24 49t-36.5 27t-61.5 11.5t-98 2.5h-42q-20 0 -20 -20v-277h112q23 0 38 2t25.5 9t17 21t12.5 39l9 40h40v-276h-40l-9 40q-6 25 -12.5 39t-17 21
t-25.5 9t-38 2h-112v-225q0 -28 4 -44.5t14 -24.5t28 -10.5t45 -2.5h14q67 0 107 3t64 12.5t39 26.5t32 46l42 69h40l-55 -207h-599v41z" />
    <glyph glyph-name="F" unicode="F" horiz-adv-x="667" 
d="M47 41l42 3q18 1 28.5 4t16 10t7 19t1.5 31v542q0 37 -9 49.5t-44 14.5l-42 3v41h291l290 2l9 -193h-40l-17 51q-11 31 -24 49t-36.5 27t-61.5 11.5t-98 2.5h-68q-20 0 -20 -20v-277h139q22 0 37.5 2t26 9t17 21t12.5 39l9 40h40v-276h-40l-9 40q-6 25 -12.5 39t-17 21
t-26 9t-37.5 2h-139v-249q0 -20 2 -31.5t8 -18t17.5 -9t31.5 -3.5l56 -2v-44h-340v41z" />
    <glyph glyph-name="G" unicode="G" horiz-adv-x="818" 
d="M464 -13q-98 0 -176 31.5t-132.5 85.5t-84 126t-29.5 153t31 153t87.5 126t134.5 85.5t172 31.5q77 0 130 -10.5t93 -24.5l34 -186h-38l-43 74q-30 52 -75.5 73t-109.5 21q-52 0 -100.5 -16.5t-86 -53.5t-60 -96t-22.5 -144q0 -86 19.5 -155.5t56 -118.5t89.5 -75.5
t121 -26.5q30 0 54 3.5t50 10.5v205q0 19 -1.5 31t-7 19t-15.5 10t-28 4l-63 3v41h335v-41l-37 -3q-18 -2 -28 -5t-15.5 -10t-7 -18.5t-1.5 -30.5v-153l5 -71q-53 -20 -114.5 -34t-136.5 -14z" />
    <glyph glyph-name="H" unicode="H" horiz-adv-x="929" 
d="M142 650q0 37 -9 49.5t-44 14.5l-42 3v41h320v-41l-42 -3q-35 -2 -44 -14.5t-9 -49.5v-238h385v238q0 37 -9 49.5t-44 14.5l-43 3v41h321v-41l-42 -3q-35 -2 -44 -14.5t-9 -49.5v-542q0 -19 1.5 -31t7 -19t16 -10t28.5 -4l42 -3v-41h-321v41l43 3q18 1 28.5 4t16 10t7 19
t1.5 31v247h-385v-247q0 -19 1.5 -31t7 -19t16 -10t28.5 -4l42 -3v-41h-320v41l42 3q18 1 28.5 4t16 10t7 19t1.5 31v542z" />
    <glyph glyph-name="I" unicode="I" horiz-adv-x="414" 
d="M142 650q0 37 -9 49.5t-44 14.5l-42 3v41h320v-41l-42 -3q-35 -2 -44 -14.5t-9 -49.5v-542q0 -19 1.5 -31t7 -19t16 -10t28.5 -4l42 -3v-41h-320v41l42 3q18 1 28.5 4t16 10t7 19t1.5 31v542z" />
    <glyph glyph-name="J" unicode="J" horiz-adv-x="404" 
d="M6 -70q39 34 66 61t43 55.5t23 63t7 84.5v456q0 37 -9 49.5t-43 14.5l-43 3v41h321v-41l-43 -3q-35 -2 -43.5 -14.5t-8.5 -49.5v-443q0 -39 -5 -67.5t-15.5 -50.5t-27.5 -41t-40 -38q-13 -11 -32 -25t-40 -29.5t-43.5 -31.5t-41.5 -29z" />
    <glyph glyph-name="K" unicode="K" horiz-adv-x="826" 
d="M322 340l-50 -2v-230q0 -19 1.5 -31t7 -19t16 -10t28.5 -4l42 -3v-41h-320v41l42 3q18 1 28.5 4t16 10t7 19t1.5 31v542q0 37 -9 49.5t-44 14.5l-42 3v41h320v-41l-42 -3q-35 -2 -44 -14.5t-9 -49.5v-266q17 4 31 12.5t32 27.5l178 189q28 30 42.5 49.5t15.5 31
t-10.5 16.5t-34.5 6l-29 1v41h290v-41l-25 -2q-22 -2 -38.5 -5.5t-36 -14.5t-44.5 -32.5t-63 -59.5l-169 -168l304 -352q17 -20 31.5 -28.5t39.5 -10.5l43 -3v-41h-226z" />
    <glyph glyph-name="L" unicode="L" horiz-adv-x="663" 
d="M47 41l42 3q18 1 28.5 4.5t16 10.5t7 19t1.5 31v541q0 37 -9 49.5t-44 14.5l-42 3v41h320v-41l-42 -3q-35 -2 -44 -14.5t-9 -49.5v-516q0 -29 4 -45.5t15.5 -25t32 -11t53.5 -2.5q48 0 78 3t50.5 12.5t35 27t31.5 45.5l42 69h40l-54 -207h-553v41z" />
    <glyph glyph-name="M" unicode="M" horiz-adv-x="1053" 
d="M208 619l-9 -382q-2 -68 -0.5 -106t8 -56.5t18.5 -24t32 -6.5l37 -3v-41h-267v41l37 3q22 2 35.5 7t21.5 24t12 57t7 106l19 414q2 39 -8 49.5t-42 12.5l-44 3v41h225l248 -557l229 557h225v-41l-44 -3q-16 -1 -26.5 -3.5t-16 -9t-7 -18.5t-0.5 -31l27 -544
q1 -19 2.5 -31t7 -19t15.5 -10t28 -4l42 -3v-41h-321v41l43 3q18 1 28.5 4t16.5 10t7.5 19t0.5 31l-25 508l-261 -624h-18z" />
    <glyph glyph-name="N" unicode="N" horiz-adv-x="926" 
d="M209 594v-356q0 -68 2 -105.5t8.5 -56t20 -23.5t37.5 -8l37 -4v-41h-269v41l37 4q24 3 37.5 8t20.5 23.5t9 56t2 105.5v339q0 38 -6.5 63.5t-21 41.5t-38.5 24t-58 11v41h194l512 -538v300q0 67 -2 105t-9 56.5t-20.5 23.5t-37.5 8l-37 4v41h269v-41l-37 -4
q-24 -3 -37.5 -8t-20.5 -23.5t-9 -56.5t-2 -105v-529h-30z" />
    <glyph glyph-name="O" unicode="O" horiz-adv-x="880" 
d="M440 779q81 0 153 -29.5t126 -82t85.5 -125.5t31.5 -160t-32 -159.5t-86 -125t-126 -81.5t-152 -29q-81 0 -153 29t-126 81.5t-86 125.5t-32 160t32 159.5t86.5 125t126.5 82t152 29.5zM430 727q-46 0 -89 -17.5t-76.5 -55.5t-53.5 -97.5t-20 -143.5q0 -88 18.5 -157.5
t52.5 -117.5t81.5 -73.5t106.5 -25.5q46 0 89 17.5t76.5 55t53.5 97t20 143.5q0 88 -18.5 157.5t-52.5 118t-82 74t-106 25.5z" />
    <glyph glyph-name="P" unicode="P" horiz-adv-x="680" 
d="M47 41l42 3q18 1 28.5 4t16 10t7 19t1.5 31v542q0 37 -9 49.5t-44 14.5l-42 3v41h292q63 0 120.5 -9t102 -32t70.5 -63.5t26 -103.5q0 -51 -22 -91t-61.5 -67.5t-94.5 -42t-122 -14.5h-40v44h27q80 0 125 40t45 120q0 90 -47 130.5t-141 40.5q-37 0 -46 -4t-9 -20v-578
q0 -20 2 -32t8 -18.5t17.5 -9t31.5 -3.5l56 -2v-43h-340v41z" />
    <glyph glyph-name="Q" unicode="Q" horiz-adv-x="880" 
d="M440 779q81 0 153 -29.5t126 -82t85.5 -125.5t31.5 -160q0 -77 -25 -142.5t-69 -116t-103 -84t-127 -45.5l-203 -76q23 5 40 6t37 1q61 0 112.5 -8.5t96.5 -18t85 -18t76 -8.5q51 0 76.5 19.5t45.5 61.5l31 -11q-15 -39 -32 -71.5t-38 -56.5t-45.5 -37.5t-53.5 -13.5
q-28 0 -62 10t-71 25t-75 32t-74 32t-68.5 25t-58.5 10q-28 0 -49 -10q-2 -38 -16 -55.5t-33 -17.5q-15 0 -26.5 10.5t-11.5 30.5q0 8 2.5 18t10.5 20.5t23 21.5t41 20l143 53q-77 4 -144.5 35t-118 83t-80 122.5t-29.5 154.5q0 87 32 159.5t86.5 125t126.5 82t152 29.5z
M430 727q-46 0 -89 -17.5t-76.5 -55.5t-53.5 -97.5t-20 -143.5q0 -88 18.5 -157.5t52.5 -117.5t81.5 -73.5t106.5 -25.5q46 0 89 17.5t76.5 55t53.5 97t20 143.5q0 88 -18.5 157.5t-52.5 118t-82 74t-106 25.5z" />
    <glyph glyph-name="R" unicode="R" horiz-adv-x="781" 
d="M339 758q71 0 129 -9.5t99 -31t63.5 -56t22.5 -83.5q0 -75 -48 -123.5t-131 -71.5l218 -282q13 -18 23 -29t19 -17.5t18 -9t21 -2.5l27 -2v-41h-203l-256 358h-69v-250q0 -20 2 -32t8 -18.5t17.5 -9t31.5 -3.5l52 -2v-43h-336v41l42 3q18 1 28.5 4t16 10t7 19t1.5 31v542
q0 37 -9 49.5t-44 14.5l-42 3v41h292zM272 406q3 0 12 -0.5t19.5 -0.5h19.5h11q52 0 86.5 12t54.5 33t28.5 48.5t8.5 57.5q0 33 -8.5 61t-29.5 48.5t-55.5 32.5t-85.5 12q-21 0 -33 -1t-18 -3t-8 -7t-2 -12v-281z" />
    <glyph glyph-name="S" unicode="S" horiz-adv-x="608" 
d="M292 -13q-62 0 -113.5 13t-92.5 34l-36 198l37 7l46 -91q18 -35 34.5 -56.5t35 -33t41 -15.5t51.5 -4q31 0 59 7.5t49.5 22.5t34.5 39t13 57q0 54 -38.5 89.5t-104.5 63.5l-61 26q-91 38 -133.5 91.5t-42.5 132.5q0 47 20 86t53.5 66.5t78 43t92.5 15.5q47 0 88 -6.5
t78 -18.5l33 -177l-37 -8l-46 77q-15 24 -27.5 40t-26.5 25.5t-30 13t-38 3.5q-57 0 -93.5 -30.5t-36.5 -85.5q0 -49 26 -83.5t81 -57.5l62 -26q48 -20 87 -40t67.5 -45.5t44 -60.5t15.5 -84q0 -54 -24 -96.5t-62.5 -71.5t-86.5 -44.5t-97 -15.5z" />
    <glyph glyph-name="T" unicode="T" horiz-adv-x="743" 
d="M437 110q0 -19 1.5 -31t7.5 -19t17.5 -10t31.5 -4l51 -3v-43h-349v43l51 3q19 1 30.5 4t17.5 10t8 19t2 31v598h-17q-60 0 -98.5 -2.5t-62 -11.5t-36 -27t-22.5 -49l-16 -51h-40l15 226h11q15 -12 28.5 -18.5t37.5 -10.5t63 -5t104 -1h197q65 0 104 1t63 5t37.5 10.5
t28.5 18.5h11l15 -226h-40l-16 51q-10 31 -22.5 49t-36 27t-62 11.5t-98.5 2.5h-17v-598z" />
    <glyph glyph-name="U" unicode="U" horiz-adv-x="844" 
d="M422 -13q-146 0 -222.5 74.5t-76.5 234.5v354q0 37 -9 49.5t-44 14.5l-43 3v41h321v-41l-42 -3q-35 -2 -44 -14.5t-9 -49.5v-358q0 -128 49 -184t153 -56q100 0 153 59.5t53 190.5v218q0 67 -2 105.5t-9 57.5t-20.5 24t-37.5 7l-37 3v41h271v-41l-37 -3q-24 -2 -37.5 -7
t-20.5 -24t-9 -57.5t-2 -105.5v-219q0 -159 -77.5 -236.5t-220.5 -77.5z" />
    <glyph glyph-name="V" unicode="V" horiz-adv-x="761" 
d="M414 -10h-68l-264 676q-5 13 -10 22t-11.5 14.5t-15.5 8t-22 3.5l-36 3v41h317v-41l-48 -3q-29 -2 -37 -11.5t4 -40.5l195 -504l151 396q19 49 27.5 79.5t7 47.5t-12.5 23.5t-32 8.5l-40 4v41h255v-41l-25 -3q-20 -2 -33 -7.5t-24 -21.5t-24 -46.5t-34 -84.5z" />
    <glyph glyph-name="W" unicode="W" horiz-adv-x="1151" 
d="M82 666q-5 13 -10 22t-11.5 14.5t-15.5 8t-22 3.5l-36 3v41h317v-41l-48 -3q-29 -2 -37 -11.5t4 -40.5l195 -504l133 349l-89 251h258v-41l-48 -3q-29 -2 -36.5 -11t3.5 -41l169 -504l151 396q19 49 27.5 79.5t7 47.5t-12.5 23.5t-32 8.5l-39 4v41h254v-41l-25 -3
q-20 -2 -33 -7.5t-24 -21.5t-24 -46.5t-34 -84.5l-220 -564h-68l-154 431l-168 -431h-68z" />
    <glyph glyph-name="X" unicode="X" horiz-adv-x="834" 
d="M-9 41l39 2q19 1 34.5 8t33.5 23.5t41.5 43t58.5 66.5l164 191l-228 300q-14 19 -28 28t-40 11l-35 3v41h330v-41l-46 -3q-29 -2 -35.5 -12.5t10.5 -31.5l152 -199l86 113q30 40 48 65t23 39t-2.5 20t-28.5 7l-39 2v41h269v-41l-39 -2q-19 -1 -35 -8t-34.5 -23t-42 -43
t-56.5 -67l-118 -144l264 -347q14 -19 27.5 -28t39.5 -11l35 -3v-41h-330v41l46 3q29 2 35.5 12.5t-10.5 31.5l-186 245l-131 -159q-32 -39 -49.5 -63.5t-22.5 -39.5t3 -21t29 -7l39 -2v-41h-271v41z" />
    <glyph glyph-name="Y" unicode="Y" horiz-adv-x="764" 
d="M205 43l51 3q20 1 31.5 4t17.5 10t8 19t2 31v217l-216 348q-12 20 -22 28.5t-37 10.5l-36 3v41h324v-41l-53 -3q-29 -2 -37 -11.5t6 -32.5l177 -289l110 173q28 44 43.5 74t18 49t-7.5 27.5t-34 10.5l-35 2v41h262v-41l-29 -2q-20 -2 -35 -9t-31.5 -25t-37.5 -48.5
t-52 -78.5l-148 -227v-217q0 -19 2 -31t8 -19t17.5 -10t31.5 -4l51 -3v-43h-350v43z" />
    <glyph glyph-name="Z" unicode="Z" horiz-adv-x="754" 
d="M544 708h-165q-67 0 -107 -3t-64 -12.5t-39 -27t-32 -45.5l-42 -69h-40l69 242h11q15 -12 30.5 -18.5t41 -10.5t63.5 -5t98 -1h360l-543 -708h216q67 0 107 3t64 12t39 26t32 46l42 70h40l-55 -207h-669z" />
    <glyph glyph-name="bracketleft" unicode="[" horiz-adv-x="324" 
d="M186 -118q0 -24 3.5 -38.5t12 -23t24 -11.5t39.5 -4l37 -2v-41h-200v1064h200v-41l-37 -2q-24 -1 -39.5 -4t-24 -11.5t-12 -23t-3.5 -38.5v-824z" />
    <glyph glyph-name="backslash" unicode="\" horiz-adv-x="483" 
d="M371 -52l-344 858h85l343 -858h-84z" />
    <glyph glyph-name="bracketright" unicode="]" horiz-adv-x="324" 
d="M138 706q0 24 -3.5 38.5t-12 23t-24 11.5t-39.5 4l-37 2v41h200v-1064h-200v41l37 2q24 1 39.5 4t24 11.5t12 23t3.5 38.5v824z" />
    <glyph glyph-name="asciicircum" unicode="^" horiz-adv-x="653" 
d="M563 361h-74l-163 333l-163 -333h-73l206 415h61z" />
    <glyph glyph-name="underscore" unicode="_" horiz-adv-x="534" 
d="M0 -77h534v-67h-534v67z" />
    <glyph glyph-name="grave" unicode="`" 
d="M100 609l-227 171v8h137l108 -179h-18z" />
    <glyph glyph-name="a" unicode="a" horiz-adv-x="539" 
d="M194 -13q-30 0 -57.5 11t-48.5 30t-33.5 44t-12.5 54q0 28 11 50t33.5 40t56.5 33.5t79 30.5q32 11 62 27t45 36v15q0 60 -23.5 88t-61.5 28q-106 0 -95 -131q-8 -3 -18.5 -5t-22.5 -2h-3q-28 0 -45 14t-17 39q0 24 28 45t79 42q42 17 81 31.5t81 14.5q31 0 56 -7
t42.5 -24t26.5 -44.5t9 -69.5l-4 -283q0 -23 4.5 -29t21.5 -6q4 0 10.5 0.5t14 1t14 1t9.5 0.5l3 -36l-34 -13q-26 -9 -49.5 -16.5t-40.5 -7.5q-55 0 -61 71q-12 -14 -25 -25.5t-27 -21.5q-21 -16 -44 -21t-44 -5zM258 47q21 0 42.5 12t24.5 37l4 204q-18 -13 -36 -23.5
t-34 -18.5q-42 -22 -67 -46t-26 -62q0 -23 7.5 -42t20.5 -32.5t30 -21t34 -7.5z" />
    <glyph glyph-name="b" unicode="b" horiz-adv-x="614" 
d="M297 -13q-33 0 -69.5 9t-68.5 32l-72 -45l-6 3l1 97v571q0 15 -0.5 24.5t-2.5 15.5t-7 10t-14 9l-67 35v6l211 79v-386q20 13 40.5 26.5t38.5 23.5q15 8 34.5 14t43.5 6q51 0 91.5 -19t68.5 -53t42.5 -79.5t14.5 -98.5q0 -60 -24.5 -111.5t-64 -89t-89.5 -58.5t-101 -21z
M202 126q0 -43 30 -69.5t74 -26.5q28 0 54 11.5t46 34.5t32.5 58t12.5 82q0 57 -13 100t-35.5 71.5t-52.5 43t-64 14.5q-24 0 -45.5 -9.5t-38.5 -25.5v-284z" />
    <glyph glyph-name="c" unicode="c" horiz-adv-x="513" 
d="M276 -13q-52 0 -95.5 19.5t-75.5 53.5t-50 80.5t-18 100.5q0 66 25.5 118t66.5 87.5t92.5 54t104.5 18.5q28 0 54 -5t46.5 -15t32.5 -25.5t12 -36.5q0 -28 -19.5 -46t-55.5 -16q-19 45 -46.5 69t-71.5 24q-27 0 -50.5 -11t-41 -32t-28 -52.5t-10.5 -72.5
q0 -44 13.5 -83.5t37.5 -69t57.5 -47t73.5 -17.5q39 0 73.5 10.5t67.5 31.5l21 -30l-34 -28q-41 -33 -87 -56.5t-95 -23.5z" />
    <glyph glyph-name="d" unicode="d" horiz-adv-x="630" 
d="M607 39q-47 -8 -94.5 -21.5t-93.5 -30.5l-2 69q-20 -15 -42.5 -29t-42.5 -25q-15 -8 -33 -11.5t-40 -3.5q-50 0 -91 19.5t-70 53.5t-45 78.5t-16 95.5q0 62 25.5 114.5t66 90t90.5 58.5t100 21q23 0 48 -3t46 -10v149q0 30 -3 40t-21 19l-72 35v6l216 79v-719
q0 -17 4 -26.5t21 -9.5l49 -1v-38zM325 54q25 -1 48 9t40 25v291q0 45 -32 71t-78 26q-25 0 -50 -11t-45.5 -34t-33 -59t-12.5 -86q0 -59 15 -102t39 -72t53 -43.5t56 -14.5z" />
    <glyph glyph-name="e" unicode="e" horiz-adv-x="538" 
d="M280 -13q-52 0 -96 19.5t-76.5 54.5t-50.5 84.5t-18 108.5q0 58 19 107t51.5 84.5t76 55.5t93.5 20q51 0 90.5 -17.5t67 -47.5t44 -69t22.5 -81h-352v-1q0 -49 13.5 -90t38.5 -71t59.5 -46.5t76.5 -16.5q45 0 80.5 20.5t60.5 44.5l25 -28l-32 -34q-41 -43 -89 -70
t-104 -27zM268 479q-52 0 -79.5 -37t-34.5 -92h220q-2 62 -30 95.5t-76 33.5z" />
    <glyph glyph-name="f" unicode="f" horiz-adv-x="401" 
d="M40 40l46 3q20 2 25.5 10t5.5 25v360h-93v29l93 34v5q0 70 26.5 124t64.5 95q42 45 85 68t75 23q28 0 43.5 -14t15.5 -40q0 -24 -11 -42.5t-25 -25.5q-13 4 -30 8t-34.5 7t-33.5 5t-27 2q-14 0 -22 -4t-12 -18t-4 -40t3 -69l6 -83h145v-64h-145v-358q0 -17 5.5 -25
t25.5 -9l76 -3v-43h-304v40z" />
    <glyph glyph-name="g" unicode="g" horiz-adv-x="557" 
d="M255 173q-53 0 -96 17l-5 -71q-1 -9 0 -14.5t5 -8.5t13 -4t24 -1h116q108 0 163.5 -29.5t55.5 -102.5q0 -45 -24.5 -85.5t-65.5 -71.5t-94 -49t-111 -18q-50 0 -90.5 10.5t-69 29t-44 42.5t-15.5 51q0 20 9.5 38.5t29.5 30.5q25 14 49.5 28t53.5 30q-47 6 -73.5 25.5
t-26.5 46.5q0 15 9 30t21 32l48 70q-45 23 -69.5 60.5t-24.5 84.5q0 37 15.5 69t44 56t68 38t87.5 14q39 0 73 -8.5t60 -24.5l151 69v-80q0 -16 -7 -20.5t-26 -2.5l-84 8q22 -22 34 -50t12 -60q0 -36 -16 -68.5t-44.5 -57t-68.5 -39t-87 -14.5zM264 210q17 0 32.5 6
t27.5 19.5t19 35.5t7 54q0 30 -6.5 58.5t-19 50t-32 35t-44.5 13.5q-17 0 -32.5 -6t-27.5 -19.5t-19 -35t-7 -53.5q0 -30 6.5 -58.5t19.5 -50.5t32 -35.5t44 -13.5zM275 -215q31 0 59.5 8t50.5 23t35 37t13 50q0 47 -35 70t-112 23h-23q-35 0 -61 -9.5t-43.5 -24.5
t-26.5 -33t-9 -36q0 -24 12 -44t33 -34t48.5 -22t58.5 -8z" />
    <glyph glyph-name="h" unicode="h" horiz-adv-x="631" 
d="M343 40l38 3q20 2 25.5 10t5.5 25v210q0 86 -22.5 121t-75.5 35q-28 0 -54.5 -14t-40.5 -38v-314q0 -17 5 -25t25 -10l39 -3v-40h-266v40l46 3q20 2 25.5 10t5.5 25v576q0 15 -0.5 24.5t-2.5 15.5t-6.5 10t-13.5 9l-68 35v6l211 79v-394q20 14 43.5 29.5t40.5 26.5
q15 9 37.5 15.5t49.5 6.5q34 0 60.5 -8.5t44.5 -29t27.5 -54.5t9.5 -86v-261q0 -17 5.5 -25t25.5 -10l46 -3v-40h-266v40z" />
    <glyph glyph-name="i" unicode="i" horiz-adv-x="340" 
d="M238 78q0 -17 5.5 -25t25.5 -10l46 -3v-40h-274v40l46 3q20 2 25.5 10t5.5 25v270q0 15 -0.5 24t-2.5 15t-7 10t-14 9l-67 35v6l211 81v-450zM170 655q-33 0 -56 23t-23 56t23 56t56 23t56.5 -23t23.5 -56t-23.5 -56t-56.5 -23z" />
    <glyph glyph-name="j" unicode="j" horiz-adv-x="307" 
d="M225 47q0 -39 -4.5 -67t-14 -50.5t-25.5 -41.5t-39 -38q-13 -11 -32 -25t-40 -29.5t-43.5 -31.5t-41.5 -29l-22 31q34 31 60.5 55t44.5 52.5t27.5 66.5t9.5 95v313q0 15 -0.5 24.5t-2.5 15.5t-6.5 10t-13.5 9l-67 35v6l210 81v-482zM155 655q-33 0 -56 23t-23 56t23 56
t56 23t56.5 -23t23.5 -56t-23.5 -56t-56.5 -23z" />
    <glyph glyph-name="k" unicode="k" horiz-adv-x="619" 
d="M518 84q19 -23 33.5 -30.5t43.5 -10.5l26 -3v-40h-188l-186 230l-28 1v-153q0 -17 5 -25t25 -10l46 -3v-40h-273v40l46 3q20 2 25.5 10t5.5 25v576q0 15 -0.5 24.5t-2.5 15.5t-6.5 10t-13.5 9l-68 35v6l211 79v-571q10 2 21 7t26 20l102 102q41 41 42.5 54.5t-32.5 15.5
l-24 1v40h228v-40l-19 -1q-35 -2 -62 -19t-64 -50l-104 -93z" />
    <glyph glyph-name="l" unicode="l" horiz-adv-x="326" 
d="M26 0v40l46 3q20 2 25.5 10t5.5 25v576q0 15 -0.5 24.5t-2.5 15.5t-6.5 10t-13.5 9l-68 35v6l211 79v-755q0 -17 5.5 -25t25.5 -10l46 -3v-40h-274z" />
    <glyph glyph-name="m" unicode="m" horiz-adv-x="944" 
d="M540 78q0 -17 5 -25t25 -10l37 -3v-40h-255v40l37 3q20 2 25.5 10t5.5 25v210q0 86 -19 121t-72 35q-28 0 -54.5 -14t-40.5 -38v-314q0 -17 5 -25t25 -10l37 -3v-40h-264v40l46 3q20 2 25.5 10t5.5 25v270q0 15 -0.5 24t-2.5 15t-7 10t-14 9l-67 35v6l211 81v-89
q20 14 43.5 29.5t40.5 26.5q15 9 37 15.5t49 6.5q50 0 81 -18.5t45 -67.5q10 8 22.5 17t25.5 17.5t25 16t21 13.5q15 9 37 15.5t49 6.5q34 0 59 -8.5t42 -29t25.5 -54.5t8.5 -86v-261q0 -17 5.5 -25t25.5 -10l46 -3v-40h-264v40l37 3q20 2 25 10t5 25v210q0 43 -4 73
t-14.5 48.5t-27.5 26.5t-43 8q-29 0 -56.5 -16.5t-41.5 -39.5q1 -11 1.5 -23t0.5 -26v-261z" />
    <glyph glyph-name="n" unicode="n" horiz-adv-x="644" 
d="M37 40l46 3q20 2 25.5 10t5.5 25v270q0 15 -0.5 24t-2.5 15t-7 10t-14 9l-67 35v6l211 81v-89q20 14 43.5 29.5t40.5 26.5q15 9 37 15.5t50 6.5q34 0 60 -8.5t44 -29t27 -54.5t9 -86v-261q0 -17 5.5 -25t25.5 -10l46 -3v-40h-266v40l38 3q20 2 25.5 10t5.5 25v210
q0 86 -21.5 121t-74.5 35q-28 0 -54.5 -14t-40.5 -38v-314q0 -17 5 -25t25 -10l39 -3v-40h-266v40z" />
    <glyph glyph-name="o" unicode="o" horiz-adv-x="601" 
d="M303 521q59 0 107.5 -21t82.5 -56.5t52.5 -83t18.5 -100.5q0 -57 -20.5 -106.5t-56.5 -86.5t-84.5 -58.5t-103.5 -21.5q-60 0 -108 21t-82.5 57t-53 83.5t-18.5 100.5q0 57 20.5 106.5t56.5 86t84.5 58t104.5 21.5zM281 474q-23 0 -44 -9.5t-37 -30t-25 -53t-9 -77.5
q0 -44 9 -91.5t28 -87t48 -65.5t69 -26q23 0 44 9.5t36.5 30.5t25 53.5t9.5 77.5q0 43 -9 90.5t-28 87.5t-48 65.5t-69 25.5z" />
    <glyph glyph-name="p" unicode="p" horiz-adv-x="637" 
d="M324 -248h-296v40l46 3q20 2 25.5 10t5.5 25v518q0 29 -3 39t-20 19l-67 35v6l210 81v-82q19 14 39.5 27t39.5 24q15 9 34.5 14.5t44.5 5.5q51 0 91 -19t67.5 -53t42.5 -79.5t15 -98.5q0 -60 -24.5 -111.5t-64 -89t-89.5 -58.5t-102 -21q-23 0 -48.5 4t-45.5 12v-171
q0 -17 5.5 -25t25.5 -9l68 -3v-43zM225 125q0 -42 29.5 -68.5t74.5 -26.5q28 0 54 11.5t46 34.5t32.5 58t12.5 82q0 57 -13.5 100t-36 71.5t-52.5 43t-64 14.5q-23 0 -44.5 -9.5t-38.5 -25.5v-285z" />
    <glyph glyph-name="q" unicode="q" horiz-adv-x="614" 
d="M609 -248h-301v43l74 3q20 1 25.5 9t5.5 25v221q-20 -14 -41 -27t-40 -24q-15 -8 -33 -11.5t-40 -3.5q-50 0 -91 19.5t-70 53t-45 79t-16 96.5q0 61 25.5 113t66 90t90.5 59t100 21q32 0 71 -6t68 -23l75 39v-698q0 -17 5 -25t25 -10l46 -3v-40zM324 54q26 -1 49 9t40 26
v290q0 23 -9 41t-24 30.5t-35 19t-42 6.5q-25 0 -50 -11t-45.5 -34t-33 -59t-12.5 -86q0 -59 15 -102t39 -72t52.5 -43.5t55.5 -14.5z" />
    <glyph glyph-name="r" unicode="r" horiz-adv-x="451" 
d="M234 417q9 11 22 26t18 20q23 26 48 40.5t49 14.5q29 0 49 -17.5t20 -49.5q0 -30 -15.5 -48t-40.5 -23q-24 12 -48.5 24t-41.5 12q-14 0 -30 -7t-30 -22v-306q0 -17 5 -25.5t25 -9.5l72 -3v-43h-299v40l46 3q20 2 25.5 10t5.5 25v270q0 15 -0.5 24t-2.5 15t-7 10t-14 9
l-67 35v6l211 81v-111z" />
    <glyph glyph-name="s" unicode="s" horiz-adv-x="453" 
d="M205 -13q-45 0 -80 9t-61 22l-16 150l41 6l23 -57q11 -27 24.5 -44t27.5 -26.5t29.5 -12.5t30.5 -3q37 0 58 19.5t21 55.5q0 55 -82 89l-46 19q-52 21 -86.5 57t-34.5 97q0 36 16.5 64t43.5 47t62 28.5t73 9.5q35 0 64.5 -5.5t55.5 -14.5l22 -137l-41 -6l-23 44
q-20 39 -40.5 57t-53.5 18t-57 -17.5t-24 -49.5q0 -30 18 -49t50 -33l45 -19q37 -16 64 -31t44.5 -33.5t26 -41.5t8.5 -54q0 -38 -16 -67t-43.5 -49.5t-64.5 -31t-79 -10.5z" />
    <glyph glyph-name="t" unicode="t" horiz-adv-x="397" 
d="M216 -13q-23 0 -44 5.5t-36.5 19t-24.5 36.5t-9 58v332h-102v3l219 194h3v-133h149v-64h-149v-296q0 -39 13 -57t42 -18q20 0 38.5 9t45.5 27l21 -32l-51 -37q-27 -20 -56.5 -33.5t-58.5 -13.5z" />
    <glyph glyph-name="u" unicode="u" horiz-adv-x="612" 
d="M397 65q-19 -14 -39 -26.5t-34 -21.5q-20 -12 -45 -21t-54 -9q-32 0 -56 7t-40 26t-24 52.5t-8 86.5v235q0 23 -7.5 30.5t-33.5 9.5l-34 3v37l195 34v-316q0 -38 4 -63.5t13 -41t25 -22t40 -6.5q30 0 54.5 12.5t41.5 30.5v292q0 23 -7.5 30.5t-33.5 9.5l-34 3v37l195 34
v-394q0 -17 4 -26.5t21 -9.5l49 -1v-38q-47 -8 -96.5 -21.5t-95.5 -30.5v78z" />
    <glyph glyph-name="v" unicode="v" horiz-adv-x="555" 
d="M68 434q-6 16 -15 20.5t-36 6.5l-15 1v40h270v-40l-13 -1q-40 -3 -51.5 -8.5t-4.5 -23.5l109 -304l90 263q8 23 10 36.5t-2.5 21t-15.5 10t-28 4.5l-22 2v40h214v-40l-11 -1q-20 -2 -32.5 -4.5t-21.5 -9.5t-16.5 -21t-16.5 -39l-145 -392h-78z" />
    <glyph glyph-name="w" unicode="w" horiz-adv-x="856" 
d="M69 434q-6 16 -15 20.5t-36 6.5l-15 1v40h270v-40l-13 -1q-40 -3 -51 -8t-5 -24l99 -312l103 243l-58 142h223v-40l-14 -1q-40 -3 -51.5 -8.5t-3.5 -23.5l123 -304l77 263q7 23 8.5 36.5t-2.5 21t-14.5 10t-27.5 4.5l-22 2v40h214v-40l-11 -1q-20 -2 -32.5 -4.5t-22 -9.5
t-17 -21t-15.5 -39l-133 -392h-73l-125 307l-125 -307h-78z" />
    <glyph glyph-name="x" unicode="x" horiz-adv-x="591" 
d="M10 40l17 1q18 1 31 4.5t24.5 11t24.5 20.5t31 34l109 123l-148 200q-13 16 -24 20t-36 6l-19 2v40h271v-40l-18 -1q-35 -2 -40 -8.5t15 -33.5l72 -96l49 65q17 23 26 36.5t9.5 21t-8 10t-26.5 4.5l-21 2v40h216v-40l-13 -1q-19 -2 -32.5 -5t-26 -10.5t-25.5 -20.5
t-31 -34l-90 -104l163 -219q6 -8 11.5 -12.5t12 -7t15 -4t21.5 -2.5l18 -2v-40h-271v40l18 1q35 2 40 8.5t-15 33.5l-86 116l-67 -85q-18 -23 -26.5 -36.5t-8.5 -21t9 -10.5t27 -4l21 -2v-40h-219v40z" />
    <glyph glyph-name="y" unicode="y" horiz-adv-x="573" 
d="M149 -267q-30 0 -45.5 19t-15.5 42t15 38q8 3 22.5 8t30.5 11t29.5 11.5t19.5 8.5q12 8 20 18t16 28l19 47l-191 470q-7 16 -16 20.5t-36 6.5l-15 1v40h271v-40l-14 -1q-38 -3 -50 -9t-4 -26l117 -307l98 269q8 21 10.5 34.5t-1.5 21t-15 11t-30 5.5l-21 2v40h214v-40
l-13 -2q-18 -3 -29.5 -5t-20.5 -9t-17 -20.5t-18 -38.5l-193 -488q-20 -50 -37.5 -82t-34 -50.5t-32.5 -26t-33 -7.5z" />
    <glyph glyph-name="z" unicode="z" horiz-adv-x="520" 
d="M319 455h-54q-43 0 -69.5 -1.5t-43.5 -8.5t-28.5 -20t-23.5 -37l-25 -48h-40l44 182h11q26 -14 53 -17t69 -3h263l-291 -455h66q43 0 71.5 1.5t48 8t32.5 19.5t25 36l30 58h41l-49 -170h-422z" />
    <glyph glyph-name="braceleft" unicode="{" horiz-adv-x="373" 
d="M94 291q28 -3 60.5 -17t57.5 -43.5t37 -76t-1 -113.5l-14 -71q-14 -72 15 -113t100 -55l-8 -40q-44 5 -87.5 23t-75.5 49.5t-48 76.5t-6 105l16 93q8 46 0.5 76t-26 48t-46 27t-58.5 14v37q31 5 58.5 14t46 27t26 47.5t-0.5 76.5l-16 93q-10 60 6 105t48 76.5t75.5 49.5
t87.5 23l8 -40q-71 -14 -100 -55t-15 -113l14 -71q13 -67 1 -113.5t-37 -76t-57.5 -43.5t-60.5 -17v-3z" />
    <glyph glyph-name="bar" unicode="|" horiz-adv-x="281" 
d="M102 826h77v-1064h-77v1064z" />
    <glyph glyph-name="braceright" unicode="}" horiz-adv-x="373" 
d="M279 294q-28 3 -60.5 17t-57.5 43.5t-37 76t1 113.5l14 71q14 72 -15 113t-100 55l8 40q44 -5 87.5 -23t75.5 -49.5t48 -76.5t6 -105l-16 -93q-8 -46 -0.5 -76t26 -48t46 -27t58.5 -14v-37q-31 -5 -58.5 -14t-46 -27t-26 -47.5t0.5 -76.5l16 -93q10 -60 -6 -105
t-48 -76.5t-75.5 -49.5t-87.5 -23l-8 40q71 14 100 55t15 113l-14 71q-13 67 -1 113.5t37 76t57.5 43.5t60.5 17v3z" />
    <glyph glyph-name="asciitilde" unicode="~" horiz-adv-x="653" 
d="M205 335q42 0 75 -13.5t62 -29.5t54.5 -29.5t52.5 -13.5q32 0 56.5 17.5t26.5 63.5h69q-5 -66 -47 -106t-106 -40q-36 0 -67 13.5t-60.5 29.5t-58 29.5t-58.5 13.5q-16 0 -30 -4t-25.5 -13.5t-18.5 -25t-8 -38.5h-70q5 66 47 106t106 40z" />
    <glyph glyph-name="uni00A0" unicode="&#xa0;" horiz-adv-x="260" 
 />
    <glyph glyph-name="exclamdown" unicode="&#xa1;" horiz-adv-x="280" 
d="M160 270q4 -67 9.5 -115t12 -85t12.5 -68t11.5 -64.5t8.5 -74t3 -97.5q0 -15 -24 -22.5t-53 -7.5t-53 7.5t-24 22.5q0 57 3 97.5t8.5 74t11.5 64.5t12.5 68t12.5 84.5t10 115.5h39zM138 520q38 0 64 -26t26 -64q0 -35 -26 -60.5t-64 -25.5q-18 0 -33.5 7t-27 18.5
t-18.5 27t-7 33.5q0 38 25.5 64t60.5 26z" />
    <glyph glyph-name="cent" unicode="&#xa2;" horiz-adv-x="536" 
d="M302 620v-103q8 1 16 1.5t16 0.5q28 0 54 -5t46.5 -15t32.5 -25.5t12 -36.5q0 -28 -19.5 -46t-55.5 -16q-17 41 -41.5 64t-60.5 28v-380q15 -4 36 -4q39 0 73.5 10.5t67.5 31.5l21 -30l-34 -28q-37 -30 -78.5 -52t-85.5 -27v-108h-46v109q-47 5 -85.5 26t-66.5 54.5
t-43.5 77.5t-15.5 94q0 54 17 98t46 78t67.5 57t80.5 34v112h46zM156 300q0 -64 26.5 -116.5t73.5 -78.5v359q-43 -11 -71.5 -52.5t-28.5 -111.5z" />
    <glyph glyph-name="sterling" unicode="&#xa3;" horiz-adv-x="666" 
d="M454 -23q-25 0 -61 10.5t-76 27.5t-79.5 39t-71.5 45q-14 -60 -35.5 -85.5t-47.5 -25.5q-20 0 -32 11t-12 31q0 11 4 20t14 18.5t25 20.5t38 26q25 17 45 34.5t33 41t20 54.5t7 76q0 8 -0.5 15.5t-1.5 15.5h-158v58h143q-9 23 -20.5 43.5t-21.5 40.5t-16.5 40.5
t-6.5 44.5q0 41 26 77.5t67 63.5t93 43t104 16q25 0 51 -5t46 -15t33 -25.5t13 -37.5q0 -28 -19.5 -47t-54.5 -17q-24 43 -60 67t-88 24q-48 0 -74 -25t-26 -74q0 -30 10.5 -55.5t25 -50t29 -51t22.5 -57.5h188v-58h-181q-1 -35 -12 -62t-28 -48t-37.5 -38t-41.5 -32
q21 -12 57.5 -26.5t77 -27t78 -20.5t59.5 -8q37 0 56 18t37 59l36 -15l-18 -43q-28 -66 -63.5 -99t-94.5 -33z" />
    <glyph glyph-name="yen" unicode="&#xa5;" horiz-adv-x="822" 
d="M141 238h200v81h-200v55h171l-186 301q-12 20 -22.5 28.5t-37.5 10.5l-36 3v41h316v-41l-53 -3q-29 -2 -37 -11.5t6 -32.5l175 -289l111 173q28 44 44 74t18.5 49t-8 27.5t-34.5 10.5l-35 2v41h261v-41l-30 -2q-20 -1 -34.5 -8.5t-31 -25.5t-37.5 -48.5t-52 -78.5
l-117 -180h175v-55h-206v-81h206v-55h-206v-73q0 -22 2 -34.5t8 -19.5t17.5 -9t31.5 -3l51 -2v-42h-339v42l51 2q19 1 30.5 3t17.5 9t8 19.5t2 34.5v73h-200v55z" />
    <glyph glyph-name="brokenbar" unicode="&#xa6;" horiz-adv-x="281" 
d="M102 826h77v-421h-77v421zM102 183h77v-421h-77v421z" />
    <glyph glyph-name="section" unicode="&#xa7;" horiz-adv-x="603" 
d="M263 -150q46 0 73.5 31.5t27.5 91.5q0 53 -26.5 103.5t-76.5 104.5l-80 87q-28 31 -51.5 60.5t-40 59.5t-25.5 62t-9 68q0 57 26.5 105t71.5 82.5t104 54t123 19.5q33 0 62.5 -6.5t51.5 -19.5t34.5 -31t12.5 -42q0 -32 -25.5 -53.5t-74.5 -18.5q-10 57 -35 89t-72 32
q-20 0 -39 -6.5t-34 -19.5t-24 -33t-9 -46q0 -51 28 -95.5t76 -96.5l80 -87q35 -39 62 -71.5t45 -63t27 -62t9 -67.5q0 -60 -25 -110.5t-68.5 -87.5t-101.5 -58t-124 -21q-40 0 -74 8.5t-59 24.5t-39 37t-14 47q0 35 28.5 56t71.5 15q6 -29 15 -55t22.5 -45.5t32 -30.5
t43.5 -11zM434 16q0 -31 -10 -64.5t-30 -58.5q47 34 66.5 81t19.5 90q0 37 -12.5 69.5t-33 62t-45 57t-48.5 53.5l-80 87q-39 42 -69 90.5t-30 102.5q0 27 7.5 51.5t24.5 47.5q-38 -30 -55 -69t-17 -79q0 -56 28.5 -103t68.5 -91l80 -87q28 -30 52.5 -58.5t43 -57.5
t29 -59.5t10.5 -64.5z" />
    <glyph glyph-name="dieresis" unicode="&#xa8;" 
d="M-115 649q-27 0 -45 18.5t-18 46.5t18 46t45 18t45 -18t18 -46t-18 -46.5t-45 -18.5zM115 649q-27 0 -45 18.5t-18 46.5t18 46t45 18t45 -18t18 -46t-18 -46.5t-45 -18.5z" />
    <glyph glyph-name="copyright" unicode="&#xa9;" horiz-adv-x="885" 
d="M43 383q0 88 31.5 160.5t85.5 125t126.5 81.5t155.5 29t155.5 -29t126.5 -81.5t85.5 -125t31.5 -160.5t-31.5 -160.5t-85.5 -125t-126.5 -81.5t-155.5 -29t-155.5 29t-126.5 81.5t-85.5 125t-31.5 160.5zM104 383q0 -78 26 -142t71.5 -109t107 -69.5t133.5 -24.5
t134 24.5t107.5 69.5t71.5 109t26 142t-26 142t-71.5 109t-107.5 69.5t-134 24.5t-133.5 -24.5t-107 -69.5t-71.5 -109t-26 -142zM472 206q39 0 64 16.5t47 52.5l14 23h25l-29 -110q-25 -10 -53.5 -14.5t-68.5 -4.5q-59 0 -106 17.5t-80 48t-50.5 71.5t-17.5 87t18.5 87
t52 71.5t81 48.5t105.5 18q40 0 68.5 -5t55.5 -15l18 -108h-24l-13 22q-22 37 -46.5 53.5t-66.5 16.5q-28 0 -53.5 -10t-45 -30.5t-31.5 -52.5t-12 -76q0 -40 9 -77t27 -66t46 -46.5t66 -17.5z" />
    <glyph glyph-name="ordfeminine" unicode="&#xaa;" horiz-adv-x="476" 
d="M170 385q-25 0 -47 9t-38.5 24t-26 35t-9.5 43q0 46 35.5 74t112.5 53q26 8 48.5 20.5t33.5 26.5v10q0 52 -16 75.5t-47 23.5q-78 0 -72 -112q-8 -2 -15.5 -3.5t-17.5 -1.5h-5q-23 0 -38 10t-15 33q0 20 21.5 38t59.5 34q33 14 67 26.5t66 12.5q26 0 48 -6t37 -20
t23.5 -37t7.5 -57l-2 -225q0 -17 4 -22t18 -5q5 0 14 0.5t20 1.5l2 -30l-29 -11q-25 -10 -43 -15t-32 -5q-22 0 -35 15.5t-16 44.5q-8 -11 -18 -20t-20 -17q-19 -16 -38.5 -19.5t-37.5 -3.5zM227 436q15 0 31.5 8.5t18.5 29.5l2 162q-14 -11 -28 -18.5t-25 -14.5
q-33 -20 -50.5 -37t-18.5 -47q0 -35 21 -59t49 -24z" />
    <glyph glyph-name="guillemotleft" unicode="&#xab;" horiz-adv-x="544" 
d="M247 484l35 -22l-119 -211l119 -211l-35 -22l-204 233zM457 484l35 -22l-119 -211l119 -211l-35 -22l-204 233z" />
    <glyph glyph-name="uni00AD" unicode="&#xad;" horiz-adv-x="420" 
d="M63 300h294v-75h-294v75z" />
    <glyph glyph-name="registered" unicode="&#xae;" horiz-adv-x="885" 
d="M43 383q0 88 31.5 160.5t85.5 125t126.5 81.5t155.5 29t155.5 -29t126.5 -81.5t85.5 -125t31.5 -160.5t-31.5 -160.5t-85.5 -125t-126.5 -81.5t-155.5 -29t-155.5 29t-126.5 81.5t-85.5 125t-31.5 160.5zM104 383q0 -78 26 -142t71.5 -109t107 -69.5t133.5 -24.5
t134 24.5t107.5 69.5t71.5 109t26 142t-26 142t-71.5 109t-107.5 69.5t-134 24.5t-133.5 -24.5t-107 -69.5t-71.5 -109t-26 -142zM421 610q82 0 133 -23t51 -78q0 -43 -25.5 -69.5t-68.5 -39.5l120 -162q11 -16 20 -22t19 -7l19 -1v-28h-133l-139 203h-35v-145
q0 -14 5 -20.5t19 -7.5l35 -2v-28h-207v28l29 2q16 1 21 7t5 21v314q0 13 -5 20t-21 8l-29 2v28h187zM422 418q49 0 65.5 22.5t16.5 56.5q0 41 -22 59.5t-62 18.5q-26 0 -32 -2.5t-6 -10.5v-144h40z" />
    <glyph glyph-name="macron" unicode="&#xaf;" 
d="M-153 736h306v-67h-306v67z" />
    <glyph glyph-name="degree" unicode="&#xb0;" horiz-adv-x="422" 
d="M211 441q-36 0 -67 13t-54 36t-36 54t-13 66t13 66t36 54t54 36t67 13t67 -13t54 -36t36 -54t13 -66t-13 -66t-36 -54t-54 -36t-67 -13zM211 500q21 0 40 8t33 22.5t22.5 34.5t8.5 45t-8.5 45t-22.5 34.5t-33 22.5t-40 8t-40 -8t-33.5 -22.5t-23 -34.5t-8.5 -45t8.5 -45
t23 -34.5t33.5 -22.5t40 -8z" />
    <glyph glyph-name="plusminus" unicode="&#xb1;" horiz-adv-x="653" 
d="M289 285h-211v71h211v160h75v-160h211v-71h-211v-165h-75v165zM78 71h497v-71h-497v71z" />
    <glyph glyph-name="uni00B2" unicode="&#xb2;" horiz-adv-x="350" 
d="M19 401v15q54 52 90.5 94t59.5 76t33 61.5t10 50.5q0 29 -16 51.5t-53 22.5q-29 0 -47.5 -12.5t-40.5 -40.5l-22 14q13 21 27.5 39t32 30.5t39 19.5t48.5 7q31 0 53.5 -8.5t37.5 -23t22 -33t7 -38.5q0 -26 -11.5 -49.5t-28.5 -45.5t-38.5 -43t-40.5 -41l-70 -71h97
q20 0 34 2.5t24 8.5t17 16.5t14 26.5l23 -2l-29 -127h-272z" />
    <glyph glyph-name="uni00B3" unicode="&#xb3;" horiz-adv-x="344" 
d="M134 394q-46 0 -78 19.5t-32 50.5q0 23 19.5 38t51.5 10q5 -35 21.5 -61t51.5 -26q21 0 42 18t21 60q0 25 -7.5 45t-20 34.5t-28.5 22t-32 7.5q-12 0 -21 -2.5t-17 -6.5l-8 26l25 9q36 13 58.5 35t22.5 50q0 19 -14 34.5t-43 15.5q-23 0 -40 -12.5t-39 -43.5l-23 14
q31 52 62.5 75t79.5 23q46 0 73 -21t27 -52q0 -52 -73 -77v-2q51 -16 74.5 -49t23.5 -69t-15 -66t-39.5 -52t-56.5 -34.5t-66 -12.5z" />
    <glyph glyph-name="acute" unicode="&#xb4;" 
d="M-14 788h136v-8l-227 -171h-17z" />
    <glyph glyph-name="paragraph" unicode="&#xb6;" horiz-adv-x="579" 
d="M205 -192q-42 0 -65.5 19t-23.5 52q0 26 19 45.5t51 17.5q24 -32 48 -48.5t56 -16.5q34 0 54 31.5t20 103.5v291q-25 -8 -47.5 -12.5t-48.5 -4.5q-54 0 -97 16t-73.5 45.5t-46.5 70t-16 90.5q0 53 21.5 98.5t61.5 79.5t98 53t131 19h185v-40l-46 -3q-20 -2 -25.5 -10
t-5.5 -25v-578q0 -28 -3.5 -57.5t-12.5 -58t-24.5 -55.5t-39.5 -50q-35 -33 -78.5 -53t-91.5 -20z" />
    <glyph glyph-name="periodcentered" unicode="&#xb7;" horiz-adv-x="295" 
d="M146 174q-35 0 -60.5 26t-25.5 64q0 18 7 33.5t18.5 27t27 18.5t33.5 7q38 0 64 -25.5t26 -60.5q0 -38 -26 -64t-64 -26z" />
    <glyph glyph-name="cedilla" unicode="&#xb8;" 
d="M-33 -265q-15 0 -30.5 3t-28 9t-20.5 15.5t-8 22.5q0 15 13.5 27t39.5 7q0 -26 17.5 -40t40.5 -14q18 0 29.5 9t11.5 22q0 20 -33.5 40t-83.5 42l119 127h41l-76 -81q44 -22 64.5 -43t20.5 -53q0 -17 -8 -33.5t-23 -29.5t-37 -21.5t-49 -8.5z" />
    <glyph glyph-name="uni00B9" unicode="&#xb9;" horiz-adv-x="256" 
d="M95 750h-69v25q54 5 84 16.5t44 34.5h29v-378q0 -9 3 -13t15 -5l24 -2v-27h-188v28l38 2q13 1 16.5 5t3.5 12v302z" />
    <glyph glyph-name="ordmasculine" unicode="&#xba;" horiz-adv-x="503" 
d="M253 816q49 0 88.5 -17t67 -46t42.5 -67t15 -81q0 -47 -17.5 -87.5t-47 -70t-68.5 -46t-83 -16.5q-49 0 -88.5 17t-67 46t-42.5 67t-15 81q0 48 17.5 88t47 69.5t68.5 46t83 16.5zM238 778q-36 0 -61 -30t-25 -102q0 -41 6.5 -81t20 -71.5t35.5 -51.5t52 -20q35 0 60 31
t25 103q0 40 -6.5 80t-20 71.5t-35 51t-51.5 19.5z" />
    <glyph glyph-name="guillemotright" unicode="&#xbb;" horiz-adv-x="544" 
d="M291 251l-204 -233l-35 22l119 211l-119 211l35 22zM501 251l-204 -233l-35 22l119 211l-119 211l35 22z" />
    <glyph glyph-name="onequarter" unicode="&#xbc;" horiz-adv-x="818" 
d="M95 690h-69v25q54 5 84 16.5t44 34.5h29v-378q0 -9 3 -13t15 -5l24 -2v-27h-188v28l38 2q13 1 16.5 5t3.5 12v302zM600 758h82l-566 -758h-82zM632 105h-187v22l198 290h78v-260h76v-52h-76v-105h-89v105zM632 157v182l-118 -182h118z" />
    <glyph glyph-name="onehalf" unicode="&#xbd;" horiz-adv-x="805" 
d="M95 690h-69v25q54 5 84 16.5t44 34.5h29v-378q0 -9 3 -13t15 -5l24 -2v-27h-188v28l38 2q13 1 16.5 5t3.5 12v302zM600 758h82l-566 -758h-82zM475 0v15q54 52 90.5 94t59.5 76t33 61.5t10 50.5q0 29 -16 51.5t-53 22.5q-29 0 -47.5 -12.5t-40.5 -40.5l-22 14
q13 21 27.5 39t32 30.5t39 19.5t48.5 7q31 0 53.5 -8.5t37.5 -23t22 -33t7 -38.5q0 -26 -11.5 -49.5t-28.5 -45.5t-38.5 -43t-40.5 -41l-70 -71h97q20 0 34 2.5t24 8.5t17 16.5t14 26.5l23 -2l-29 -127h-272z" />
    <glyph glyph-name="threequarters" unicode="&#xbe;" horiz-adv-x="906" 
d="M134 334q-46 0 -78 19.5t-32 50.5q0 23 19.5 38t51.5 10q5 -35 21.5 -61t51.5 -26q21 0 42 18t21 60q0 25 -7.5 45t-20 34.5t-28.5 22t-32 7.5q-12 0 -21 -2.5t-17 -6.5l-8 26l25 9q36 13 58.5 35t22.5 50q0 19 -14 34.5t-43 15.5q-23 0 -40 -12.5t-39 -43.5l-23 14
q31 52 62.5 75t79.5 23q46 0 73 -21t27 -52q0 -52 -73 -77v-2q51 -16 74.5 -49t23.5 -69t-15 -66t-39.5 -52t-56.5 -34.5t-66 -12.5zM688 758h82l-566 -758h-82zM721 105h-187v22l198 290h78v-260h76v-52h-76v-105h-89v105zM721 157v182l-118 -182h118z" />
    <glyph glyph-name="questiondown" unicode="&#xbf;" horiz-adv-x="513" 
d="M265 -208q51 0 81.5 27t49.5 70q38 1 61.5 -19.5t22.5 -49.5q-1 -22 -15 -38t-36 -26.5t-49.5 -15.5t-54.5 -5q-60 0 -113.5 18.5t-94 51.5t-64 78.5t-23.5 100.5q0 58 35.5 88.5t110.5 45.5l79 16q19 4 30 7.5t17 9.5t8 16.5t3 28.5l5 74h35l17 -150q3 -25 1 -41
t-12 -26.5t-29 -17t-50 -12.5l-68 -14q-57 -11 -80.5 -29.5t-23.5 -53.5q0 -30 13.5 -55t36 -42.5t50.5 -27t57 -9.5zM334 520q35 0 60.5 -26t25.5 -64q0 -18 -7 -33.5t-18.5 -27t-27 -18.5t-33.5 -7q-38 0 -64 25.5t-26 60.5q0 38 26 64t64 26z" />
    <glyph glyph-name="Agrave" unicode="&#xc0;" horiz-adv-x="762" 
d="M-14 41l25 3q20 2 33 7.5t24.5 21.5t24.5 46.5t34 84.5l216 564h75l261 -676q10 -27 21.5 -36.5t38.5 -11.5l36 -3v-41h-317v41l48 3q29 2 36.5 11.5t-4.5 40.5l-64 169h-259l-23 -61q-18 -50 -27 -80t-8 -47t12 -23.5t32 -8.5l40 -4v-41h-255v41zM451 325l-108 283
l-106 -283h214zM323 972l101 -129h-21l-253 126v3h173z" />
    <glyph glyph-name="Aacute" unicode="&#xc1;" horiz-adv-x="762" 
d="M-14 41l25 3q20 2 33 7.5t24.5 21.5t24.5 46.5t34 84.5l216 564h75l261 -676q10 -27 21.5 -36.5t38.5 -11.5l36 -3v-41h-317v41l48 3q29 2 36.5 11.5t-4.5 40.5l-64 169h-259l-23 -61q-18 -50 -27 -80t-8 -47t12 -23.5t32 -8.5l40 -4v-41h-255v41zM451 325l-108 283
l-106 -283h214zM627 969l-253 -126h-21l101 129h173v-3z" />
    <glyph glyph-name="Acircumflex" unicode="&#xc2;" horiz-adv-x="762" 
d="M-14 41l25 3q20 2 33 7.5t24.5 21.5t24.5 46.5t34 84.5l216 564h75l261 -676q10 -27 21.5 -36.5t38.5 -11.5l36 -3v-41h-317v41l48 3q29 2 36.5 11.5t-4.5 40.5l-64 169h-259l-23 -61q-18 -50 -27 -80t-8 -47t12 -23.5t32 -8.5l40 -4v-41h-255v41zM451 325l-108 283
l-106 -283h214zM388 988l165 -155h-23l-150 66l-150 -66h-23l165 155h16z" />
    <glyph glyph-name="Atilde" unicode="&#xc3;" horiz-adv-x="762" 
d="M-14 41l25 3q20 2 33 7.5t24.5 21.5t24.5 46.5t34 84.5l216 564h75l261 -676q10 -27 21.5 -36.5t38.5 -11.5l36 -3v-41h-317v41l48 3q29 2 36.5 11.5t-4.5 40.5l-64 169h-259l-23 -61q-18 -50 -27 -80t-8 -47t12 -23.5t32 -8.5l40 -4v-41h-255v41zM451 325l-108 283
l-106 -283h214zM215 833q0 23 5.5 48t17.5 46t30 34.5t43 13.5q21 0 42 -10t41.5 -21.5t39 -21.5t35.5 -10q27 0 40 14t15 46h21q0 -41 -8 -67t-20.5 -42t-28 -22t-31.5 -6q-25 0 -46.5 10t-41 21.5t-38.5 21.5t-39 10q-24 0 -39 -17t-17 -48h-21z" />
    <glyph glyph-name="Adieresis" unicode="&#xc4;" horiz-adv-x="762" 
d="M-14 41l25 3q20 2 33 7.5t24.5 21.5t24.5 46.5t34 84.5l216 564h75l261 -676q10 -27 21.5 -36.5t38.5 -11.5l36 -3v-41h-317v41l48 3q29 2 36.5 11.5t-4.5 40.5l-64 169h-259l-23 -61q-18 -50 -27 -80t-8 -47t12 -23.5t32 -8.5l40 -4v-41h-255v41zM451 325l-108 283
l-106 -283h214zM260 841q-28 0 -46.5 19t-18.5 47q0 29 18.5 48t46.5 19t47 -19t19 -48q0 -28 -19 -47t-47 -19zM500 841q-29 0 -47.5 19t-18.5 47q0 29 18.5 48t47.5 19q27 0 46 -19t19 -48q0 -28 -19 -47t-46 -19z" />
    <glyph glyph-name="Aring" unicode="&#xc5;" horiz-adv-x="762" 
d="M-14 41l25 3q20 2 33 7.5t24.5 21.5t24.5 46.5t34 84.5l216 564h75l261 -676q10 -27 21.5 -36.5t38.5 -11.5l36 -3v-41h-317v41l48 3q29 2 36.5 11.5t-4.5 40.5l-64 169h-259l-23 -61q-18 -50 -27 -80t-8 -47t12 -23.5t32 -8.5l40 -4v-41h-255v41zM451 325l-108 283
l-106 -283h214zM256 960q0 25 10 47t26.5 38.5t39 26t48.5 9.5t49 -9.5t40 -26t27 -38.5t10 -47t-10 -47t-27 -38t-40 -25t-49 -9t-48.5 9t-39 25t-26.5 38t-10 47zM447 960q0 32 -17.5 50t-49.5 18q-31 0 -49 -18t-18 -50t18 -50t49 -18q32 0 49.5 18t17.5 50z" />
    <glyph glyph-name="AE" unicode="&#xc6;" horiz-adv-x="1103" 
d="M-23 41l26 3q22 3 40 10t36.5 24.5t40.5 47.5t53 78l354 554h170l289 2l10 -193h-41l-16 51q-10 31 -23 49t-36.5 27t-62 11.5t-98.5 2.5h-42q-20 0 -20 -20v-277h112q23 0 38 2t25.5 9t17 21t12.5 39l9 40h40v-276h-40l-9 40q-6 25 -12.5 39t-17 21t-25.5 9t-38 2h-112
v-225q0 -28 4 -44.5t14 -24.5t28 -10.5t45 -2.5h14q67 0 107 3t64 12.5t39 26.5t32 46l42 69h40l-55 -207h-600v41l43 3q18 1 28.5 4t16 10t7 19t1.5 31v157h-248l-40 -62q-29 -44 -46.5 -73.5t-23.5 -47.5t1.5 -26.5t28.5 -10.5l39 -4v-41h-261v41zM527 326v327l-209 -327
h209z" />
    <glyph glyph-name="Ccedilla" unicode="&#xc7;" horiz-adv-x="769" 
d="M478 40q60 0 101.5 21.5t71.5 72.5l47 79h38l-45 -190q-45 -14 -100 -25t-133 -11q-94 0 -171 31.5t-131.5 85.5t-84 126t-29.5 153t31 153t87 126t134 85.5t173 31.5q78 0 130.5 -10.5t92.5 -24.5l33 -185h-38l-42 73q-30 52 -75 73t-109 21q-53 0 -101.5 -16.5
t-86 -53.5t-60 -96t-22.5 -144q0 -82 18.5 -151t55.5 -119t90.5 -78t124.5 -28zM370 -268q-15 0 -30.5 3t-28 9t-20.5 15.5t-8 22.5q0 15 13.5 27t39.5 7q0 -26 17.5 -40t40.5 -14q18 0 29.5 9t11.5 22q0 20 -33.5 40.5t-83.5 42.5l119 126h41l-75 -80q43 -23 63.5 -44
t20.5 -53q0 -17 -8 -33.5t-23 -29.5t-37 -21.5t-49 -8.5z" />
    <glyph glyph-name="Egrave" unicode="&#xc8;" horiz-adv-x="718" 
d="M47 41l42 3q18 1 28.5 4t16 10t7 19t1.5 31v542q0 37 -9 49.5t-44 14.5l-42 3v41h265l289 2l10 -193h-40l-17 51q-11 31 -24 49t-36.5 27t-61.5 11.5t-98 2.5h-42q-20 0 -20 -20v-277h112q23 0 38 2t25.5 9t17 21t12.5 39l9 40h40v-276h-40l-9 40q-6 25 -12.5 39t-17 21
t-25.5 9t-38 2h-112v-225q0 -28 4 -44.5t14 -24.5t28 -10.5t45 -2.5h14q67 0 107 3t64 12.5t39 26.5t32 46l42 69h40l-55 -207h-599v41zM311 972l101 -129h-21l-253 126v3h173z" />
    <glyph glyph-name="Eacute" unicode="&#xc9;" horiz-adv-x="718" 
d="M47 41l42 3q18 1 28.5 4t16 10t7 19t1.5 31v542q0 37 -9 49.5t-44 14.5l-42 3v41h265l289 2l10 -193h-40l-17 51q-11 31 -24 49t-36.5 27t-61.5 11.5t-98 2.5h-42q-20 0 -20 -20v-277h112q23 0 38 2t25.5 9t17 21t12.5 39l9 40h40v-276h-40l-9 40q-6 25 -12.5 39t-17 21
t-25.5 9t-38 2h-112v-225q0 -28 4 -44.5t14 -24.5t28 -10.5t45 -2.5h14q67 0 107 3t64 12.5t39 26.5t32 46l42 69h40l-55 -207h-599v41zM615 969l-253 -126h-21l101 129h173v-3z" />
    <glyph glyph-name="Ecircumflex" unicode="&#xca;" horiz-adv-x="718" 
d="M47 41l42 3q18 1 28.5 4t16 10t7 19t1.5 31v542q0 37 -9 49.5t-44 14.5l-42 3v41h265l289 2l10 -193h-40l-17 51q-11 31 -24 49t-36.5 27t-61.5 11.5t-98 2.5h-42q-20 0 -20 -20v-277h112q23 0 38 2t25.5 9t17 21t12.5 39l9 40h40v-276h-40l-9 40q-6 25 -12.5 39t-17 21
t-25.5 9t-38 2h-112v-225q0 -28 4 -44.5t14 -24.5t28 -10.5t45 -2.5h14q67 0 107 3t64 12.5t39 26.5t32 46l42 69h40l-55 -207h-599v41zM376 988l165 -155h-23l-150 66l-150 -66h-23l165 155h16z" />
    <glyph glyph-name="Edieresis" unicode="&#xcb;" horiz-adv-x="718" 
d="M47 41l42 3q18 1 28.5 4t16 10t7 19t1.5 31v542q0 37 -9 49.5t-44 14.5l-42 3v41h265l289 2l10 -193h-40l-17 51q-11 31 -24 49t-36.5 27t-61.5 11.5t-98 2.5h-42q-20 0 -20 -20v-277h112q23 0 38 2t25.5 9t17 21t12.5 39l9 40h40v-276h-40l-9 40q-6 25 -12.5 39t-17 21
t-25.5 9t-38 2h-112v-225q0 -28 4 -44.5t14 -24.5t28 -10.5t45 -2.5h14q67 0 107 3t64 12.5t39 26.5t32 46l42 69h40l-55 -207h-599v41zM248 841q-28 0 -46.5 19t-18.5 47q0 29 18.5 48t46.5 19t47 -19t19 -48q0 -28 -19 -47t-47 -19zM488 841q-29 0 -47.5 19t-18.5 47
q0 29 18.5 48t47.5 19q27 0 46 -19t19 -48q0 -28 -19 -47t-46 -19z" />
    <glyph glyph-name="Igrave" unicode="&#xcc;" horiz-adv-x="414" 
d="M142 650q0 37 -9 49.5t-44 14.5l-42 3v41h320v-41l-42 -3q-35 -2 -44 -14.5t-9 -49.5v-542q0 -19 1.5 -31t7 -19t16 -10t28.5 -4l42 -3v-41h-320v41l42 3q18 1 28.5 4t16 10t7 19t1.5 31v542zM149 972l101 -129h-21l-253 126v3h173z" />
    <glyph glyph-name="Iacute" unicode="&#xcd;" horiz-adv-x="414" 
d="M142 650q0 37 -9 49.5t-44 14.5l-42 3v41h320v-41l-42 -3q-35 -2 -44 -14.5t-9 -49.5v-542q0 -19 1.5 -31t7 -19t16 -10t28.5 -4l42 -3v-41h-320v41l42 3q18 1 28.5 4t16 10t7 19t1.5 31v542zM454 969l-253 -126h-21l101 129h173v-3z" />
    <glyph glyph-name="Icircumflex" unicode="&#xce;" horiz-adv-x="414" 
d="M142 650q0 37 -9 49.5t-44 14.5l-42 3v41h320v-41l-42 -3q-35 -2 -44 -14.5t-9 -49.5v-542q0 -19 1.5 -31t7 -19t16 -10t28.5 -4l42 -3v-41h-320v41l42 3q18 1 28.5 4t16 10t7 19t1.5 31v542zM215 988l165 -155h-23l-150 66l-150 -66h-23l165 155h16z" />
    <glyph glyph-name="Idieresis" unicode="&#xcf;" horiz-adv-x="414" 
d="M142 650q0 37 -9 49.5t-44 14.5l-42 3v41h320v-41l-42 -3q-35 -2 -44 -14.5t-9 -49.5v-542q0 -19 1.5 -31t7 -19t16 -10t28.5 -4l42 -3v-41h-320v41l42 3q18 1 28.5 4t16 10t7 19t1.5 31v542zM87 841q-28 0 -46.5 19t-18.5 47q0 29 18.5 48t46.5 19t47 -19t19 -48
q0 -28 -19 -47t-47 -19zM327 841q-29 0 -47.5 19t-18.5 47q0 29 18.5 48t47.5 19q27 0 46 -19t19 -48q0 -28 -19 -47t-46 -19z" />
    <glyph glyph-name="Eth" unicode="&#xd0;" horiz-adv-x="873" 
d="M373 758q99 0 183 -25t145 -73t95 -117.5t34 -157.5q0 -89 -35 -160t-95.5 -121t-143.5 -77t-179 -27h-320v41l42 3q18 1 28.5 4t16 10t7 19t1.5 30v543q0 18 -1.5 30t-7 19t-16 10.5t-28.5 4.5l-42 3v41h316zM373 48q66 0 122.5 16t98 52t65 94.5t23.5 144.5
q0 181 -77.5 268t-243.5 87q-28 0 -43.5 -1t-23.5 -3t-10 -6.5t-2 -11.5v-569q0 -22 3 -35.5t11 -21.5t23 -11t39 -3h15zM57 413h388v-56h-388v56z" />
    <glyph glyph-name="Ntilde" unicode="&#xd1;" horiz-adv-x="926" 
d="M209 594v-356q0 -68 2 -105.5t8.5 -56t20 -23.5t37.5 -8l37 -4v-41h-269v41l37 4q24 3 37.5 8t20.5 23.5t9 56t2 105.5v339q0 38 -6.5 63.5t-21 41.5t-38.5 24t-58 11v41h194l512 -538v300q0 67 -2 105t-9 56.5t-20.5 23.5t-37.5 8l-37 4v41h269v-41l-37 -4
q-24 -3 -37.5 -8t-20.5 -23.5t-9 -56.5t-2 -105v-529h-30zM305 833q0 23 5.5 48t17.5 46t30 34.5t43 13.5q21 0 42 -10t41.5 -21.5t39 -21.5t35.5 -10q27 0 40 14t15 46h21q0 -41 -8 -67t-20.5 -42t-28 -22t-31.5 -6q-25 0 -46.5 10t-41 21.5t-38.5 21.5t-39 10
q-24 0 -39 -17t-17 -48h-21z" />
    <glyph glyph-name="Ograve" unicode="&#xd2;" horiz-adv-x="880" 
d="M440 779q81 0 153 -29.5t126 -82t85.5 -125.5t31.5 -160t-32 -159.5t-86 -125t-126 -81.5t-152 -29q-81 0 -153 29t-126 81.5t-86 125.5t-32 160t32 159.5t86.5 125t126.5 82t152 29.5zM430 727q-46 0 -89 -17.5t-76.5 -55.5t-53.5 -97.5t-20 -143.5q0 -88 18.5 -157.5
t52.5 -117.5t81.5 -73.5t106.5 -25.5q46 0 89 17.5t76.5 55t53.5 97t20 143.5q0 88 -18.5 157.5t-52.5 118t-82 74t-106 25.5zM384 972l101 -129h-21l-253 126v3h173z" />
    <glyph glyph-name="Oacute" unicode="&#xd3;" horiz-adv-x="880" 
d="M440 779q81 0 153 -29.5t126 -82t85.5 -125.5t31.5 -160t-32 -159.5t-86 -125t-126 -81.5t-152 -29q-81 0 -153 29t-126 81.5t-86 125.5t-32 160t32 159.5t86.5 125t126.5 82t152 29.5zM430 727q-46 0 -89 -17.5t-76.5 -55.5t-53.5 -97.5t-20 -143.5q0 -88 18.5 -157.5
t52.5 -117.5t81.5 -73.5t106.5 -25.5q46 0 89 17.5t76.5 55t53.5 97t20 143.5q0 88 -18.5 157.5t-52.5 118t-82 74t-106 25.5zM688 969l-253 -126h-21l101 129h173v-3z" />
    <glyph glyph-name="Ocircumflex" unicode="&#xd4;" horiz-adv-x="880" 
d="M440 779q81 0 153 -29.5t126 -82t85.5 -125.5t31.5 -160t-32 -159.5t-86 -125t-126 -81.5t-152 -29q-81 0 -153 29t-126 81.5t-86 125.5t-32 160t32 159.5t86.5 125t126.5 82t152 29.5zM430 727q-46 0 -89 -17.5t-76.5 -55.5t-53.5 -97.5t-20 -143.5q0 -88 18.5 -157.5
t52.5 -117.5t81.5 -73.5t106.5 -25.5q46 0 89 17.5t76.5 55t53.5 97t20 143.5q0 88 -18.5 157.5t-52.5 118t-82 74t-106 25.5zM449 988l165 -155h-23l-150 66l-150 -66h-23l165 155h16z" />
    <glyph glyph-name="Otilde" unicode="&#xd5;" horiz-adv-x="880" 
d="M440 779q81 0 153 -29.5t126 -82t85.5 -125.5t31.5 -160t-32 -159.5t-86 -125t-126 -81.5t-152 -29q-81 0 -153 29t-126 81.5t-86 125.5t-32 160t32 159.5t86.5 125t126.5 82t152 29.5zM430 727q-46 0 -89 -17.5t-76.5 -55.5t-53.5 -97.5t-20 -143.5q0 -88 18.5 -157.5
t52.5 -117.5t81.5 -73.5t106.5 -25.5q46 0 89 17.5t76.5 55t53.5 97t20 143.5q0 88 -18.5 157.5t-52.5 118t-82 74t-106 25.5zM276 833q0 23 5.5 48t17.5 46t30 34.5t43 13.5q21 0 42 -10t41.5 -21.5t39 -21.5t35.5 -10q27 0 40 14t15 46h21q0 -41 -8 -67t-20.5 -42t-28 -22
t-31.5 -6q-25 0 -46.5 10t-41 21.5t-38.5 21.5t-39 10q-24 0 -39 -17t-17 -48h-21z" />
    <glyph glyph-name="Odieresis" unicode="&#xd6;" horiz-adv-x="880" 
d="M440 779q81 0 153 -29.5t126 -82t85.5 -125.5t31.5 -160t-32 -159.5t-86 -125t-126 -81.5t-152 -29q-81 0 -153 29t-126 81.5t-86 125.5t-32 160t32 159.5t86.5 125t126.5 82t152 29.5zM430 727q-46 0 -89 -17.5t-76.5 -55.5t-53.5 -97.5t-20 -143.5q0 -88 18.5 -157.5
t52.5 -117.5t81.5 -73.5t106.5 -25.5q46 0 89 17.5t76.5 55t53.5 97t20 143.5q0 88 -18.5 157.5t-52.5 118t-82 74t-106 25.5zM321 841q-28 0 -46.5 19t-18.5 47q0 29 18.5 48t46.5 19t47 -19t19 -48q0 -28 -19 -47t-47 -19zM561 841q-29 0 -47.5 19t-18.5 47q0 29 18.5 48
t47.5 19q27 0 46 -19t19 -48q0 -28 -19 -47t-46 -19z" />
    <glyph glyph-name="multiply" unicode="&#xd7;" horiz-adv-x="653" 
d="M89 75l187 187l-187 187l50 50l187 -187l187 187l50 -50l-187 -187l187 -187l-50 -49l-187 187l-187 -187z" />
    <glyph glyph-name="Oslash" unicode="&#xd8;" horiz-adv-x="897" 
d="M449 779q81 0 153 -29.5t126 -82t85.5 -125.5t31.5 -160t-32 -159.5t-86 -125t-126 -81.5t-152 -29q-81 0 -153 29t-126 81.5t-86 125.5t-32 160t32 159.5t86.5 125t126.5 82t152 29.5zM439 727q-46 0 -89 -17.5t-76.5 -55.5t-53.5 -97.5t-20 -143.5q0 -88 18.5 -157.5
t52.5 -117.5t81.5 -73.5t106.5 -25.5q46 0 89 17.5t76.5 55t53.5 97t20 143.5q0 88 -18.5 157.5t-52.5 118t-82 74t-106 25.5zM53 -29l750 862l42 -37l-750 -862z" />
    <glyph glyph-name="Ugrave" unicode="&#xd9;" horiz-adv-x="844" 
d="M422 -13q-146 0 -222.5 74.5t-76.5 234.5v354q0 37 -9 49.5t-44 14.5l-43 3v41h321v-41l-42 -3q-35 -2 -44 -14.5t-9 -49.5v-358q0 -128 49 -184t153 -56q100 0 153 59.5t53 190.5v218q0 67 -2 105.5t-9 57.5t-20.5 24t-37.5 7l-37 3v41h271v-41l-37 -3q-24 -2 -37.5 -7
t-20.5 -24t-9 -57.5t-2 -105.5v-219q0 -159 -77.5 -236.5t-220.5 -77.5zM398 972l101 -129h-21l-253 126v3h173z" />
    <glyph glyph-name="Uacute" unicode="&#xda;" horiz-adv-x="844" 
d="M422 -13q-146 0 -222.5 74.5t-76.5 234.5v354q0 37 -9 49.5t-44 14.5l-43 3v41h321v-41l-42 -3q-35 -2 -44 -14.5t-9 -49.5v-358q0 -128 49 -184t153 -56q100 0 153 59.5t53 190.5v218q0 67 -2 105.5t-9 57.5t-20.5 24t-37.5 7l-37 3v41h271v-41l-37 -3q-24 -2 -37.5 -7
t-20.5 -24t-9 -57.5t-2 -105.5v-219q0 -159 -77.5 -236.5t-220.5 -77.5zM703 969l-253 -126h-21l101 129h173v-3z" />
    <glyph glyph-name="Ucircumflex" unicode="&#xdb;" horiz-adv-x="844" 
d="M422 -13q-146 0 -222.5 74.5t-76.5 234.5v354q0 37 -9 49.5t-44 14.5l-43 3v41h321v-41l-42 -3q-35 -2 -44 -14.5t-9 -49.5v-358q0 -128 49 -184t153 -56q100 0 153 59.5t53 190.5v218q0 67 -2 105.5t-9 57.5t-20.5 24t-37.5 7l-37 3v41h271v-41l-37 -3q-24 -2 -37.5 -7
t-20.5 -24t-9 -57.5t-2 -105.5v-219q0 -159 -77.5 -236.5t-220.5 -77.5zM464 988l165 -155h-23l-150 66l-150 -66h-23l165 155h16z" />
    <glyph glyph-name="Udieresis" unicode="&#xdc;" horiz-adv-x="844" 
d="M422 -13q-146 0 -222.5 74.5t-76.5 234.5v354q0 37 -9 49.5t-44 14.5l-43 3v41h321v-41l-42 -3q-35 -2 -44 -14.5t-9 -49.5v-358q0 -128 49 -184t153 -56q100 0 153 59.5t53 190.5v218q0 67 -2 105.5t-9 57.5t-20.5 24t-37.5 7l-37 3v41h271v-41l-37 -3q-24 -2 -37.5 -7
t-20.5 -24t-9 -57.5t-2 -105.5v-219q0 -159 -77.5 -236.5t-220.5 -77.5zM336 841q-28 0 -46.5 19t-18.5 47q0 29 18.5 48t46.5 19t47 -19t19 -48q0 -28 -19 -47t-47 -19zM576 841q-29 0 -47.5 19t-18.5 47q0 29 18.5 48t47.5 19q27 0 46 -19t19 -48q0 -28 -19 -47t-46 -19z
" />
    <glyph glyph-name="Yacute" unicode="&#xdd;" horiz-adv-x="764" 
d="M205 43l51 3q20 1 31.5 4t17.5 10t8 19t2 31v217l-216 348q-12 20 -22 28.5t-37 10.5l-36 3v41h324v-41l-53 -3q-29 -2 -37 -11.5t6 -32.5l177 -289l110 173q28 44 43.5 74t18 49t-7.5 27.5t-34 10.5l-35 2v41h262v-41l-29 -2q-20 -2 -35 -9t-31.5 -25t-37.5 -48.5
t-52 -78.5l-148 -227v-217q0 -19 2 -31t8 -19t17.5 -10t31.5 -4l51 -3v-43h-350v43zM659 969l-253 -126h-21l101 129h173v-3z" />
    <glyph glyph-name="Thorn" unicode="&#xde;" horiz-adv-x="722" 
d="M272 595h97q63 0 120.5 -9t102 -32t70.5 -63.5t26 -103.5q0 -51 -22 -91t-61.5 -67.5t-94.5 -42t-122 -14.5h-116v-64q0 -20 2 -32t8 -18.5t17.5 -9t31.5 -3.5l56 -2v-43h-340v41l42 3q18 1 28.5 4t16 10t7 19t1.5 31v542q0 37 -9 49.5t-44 14.5l-42 3v41h320v-41l-42 -3
q-35 -2 -44 -14.5t-9 -49.5v-55zM272 216h103q80 0 125 40t45 120q0 90 -47 130t-141 40h-32q-35 0 -44 -3.5t-9 -19.5v-307z" />
    <glyph glyph-name="germandbls" unicode="&#xdf;" horiz-adv-x="686" 
d="M439 -13q-69 0 -109.5 23.5t-40.5 64.5q0 29 23.5 44.5t52.5 11.5q14 -45 35 -71.5t59 -26.5q35 0 59.5 25t24.5 68q0 32 -17.5 63.5t-66.5 70.5l-24 19q-56 45 -84 80.5t-28 76.5q0 19 6.5 34t18.5 28.5t29 27t37 29.5q37 28 46.5 54t9.5 56q0 47 -29.5 71.5t-71.5 24.5
q-23 0 -46.5 -9t-42.5 -30t-31 -57t-12 -90v-575h-196v40l46 3q20 2 25 10t5 25v360h-93v29l93 34v21q0 58 22.5 110t60.5 91t89.5 61.5t109.5 22.5q46 0 79 -10t54.5 -27t32 -39.5t10.5 -47.5q0 -32 -14.5 -58.5t-37.5 -42.5l-60 -41q-36 -25 -36 -58q0 -9 3.5 -18
t12.5 -21t25.5 -27.5t43.5 -36.5l24 -19q63 -50 89.5 -93t26.5 -92q0 -42 -17 -77t-46.5 -60t-68 -38.5t-81.5 -13.5z" />
    <glyph glyph-name="agrave" unicode="&#xe0;" horiz-adv-x="539" 
d="M194 -13q-30 0 -57.5 11t-48.5 30t-33.5 44t-12.5 54q0 28 11 50t33.5 40t56.5 33.5t79 30.5q32 11 62 27t45 36v15q0 60 -23.5 88t-61.5 28q-106 0 -95 -131q-8 -3 -18.5 -5t-22.5 -2h-3q-28 0 -45 14t-17 39q0 24 28 45t79 42q42 17 81 31.5t81 14.5q31 0 56 -7
t42.5 -24t26.5 -44.5t9 -69.5l-4 -283q0 -23 4.5 -29t21.5 -6q4 0 10.5 0.5t14 1t14 1t9.5 0.5l3 -36l-34 -13q-26 -9 -49.5 -16.5t-40.5 -7.5q-55 0 -61 71q-12 -14 -25 -25.5t-27 -21.5q-21 -16 -44 -21t-44 -5zM258 47q21 0 42.5 12t24.5 37l4 204q-18 -13 -36 -23.5
t-34 -18.5q-42 -22 -67 -46t-26 -62q0 -23 7.5 -42t20.5 -32.5t30 -21t34 -7.5zM289 609l-227 171v8h137l108 -179h-18z" />
    <glyph glyph-name="aacute" unicode="&#xe1;" horiz-adv-x="539" 
d="M194 -13q-30 0 -57.5 11t-48.5 30t-33.5 44t-12.5 54q0 28 11 50t33.5 40t56.5 33.5t79 30.5q32 11 62 27t45 36v15q0 60 -23.5 88t-61.5 28q-106 0 -95 -131q-8 -3 -18.5 -5t-22.5 -2h-3q-28 0 -45 14t-17 39q0 24 28 45t79 42q42 17 81 31.5t81 14.5q31 0 56 -7
t42.5 -24t26.5 -44.5t9 -69.5l-4 -283q0 -23 4.5 -29t21.5 -6q4 0 10.5 0.5t14 1t14 1t9.5 0.5l3 -36l-34 -13q-26 -9 -49.5 -16.5t-40.5 -7.5q-55 0 -61 71q-12 -14 -25 -25.5t-27 -21.5q-21 -16 -44 -21t-44 -5zM258 47q21 0 42.5 12t24.5 37l4 204q-18 -13 -36 -23.5
t-34 -18.5q-42 -22 -67 -46t-26 -62q0 -23 7.5 -42t20.5 -32.5t30 -21t34 -7.5zM341 788h136v-8l-227 -171h-17z" />
    <glyph glyph-name="acircumflex" unicode="&#xe2;" horiz-adv-x="539" 
d="M194 -13q-30 0 -57.5 11t-48.5 30t-33.5 44t-12.5 54q0 28 11 50t33.5 40t56.5 33.5t79 30.5q32 11 62 27t45 36v15q0 60 -23.5 88t-61.5 28q-106 0 -95 -131q-8 -3 -18.5 -5t-22.5 -2h-3q-28 0 -45 14t-17 39q0 24 28 45t79 42q42 17 81 31.5t81 14.5q31 0 56 -7
t42.5 -24t26.5 -44.5t9 -69.5l-4 -283q0 -23 4.5 -29t21.5 -6q4 0 10.5 0.5t14 1t14 1t9.5 0.5l3 -36l-34 -13q-26 -9 -49.5 -16.5t-40.5 -7.5q-55 0 -61 71q-12 -14 -25 -25.5t-27 -21.5q-21 -16 -44 -21t-44 -5zM258 47q21 0 42.5 12t24.5 37l4 204q-18 -13 -36 -23.5
t-34 -18.5q-42 -22 -67 -46t-26 -62q0 -23 7.5 -42t20.5 -32.5t30 -21t34 -7.5zM437 609h-19l-148 89l-148 -89h-19l161 196h12z" />
    <glyph glyph-name="atilde" unicode="&#xe3;" horiz-adv-x="539" 
d="M194 -13q-30 0 -57.5 11t-48.5 30t-33.5 44t-12.5 54q0 28 11 50t33.5 40t56.5 33.5t79 30.5q32 11 62 27t45 36v15q0 60 -23.5 88t-61.5 28q-106 0 -95 -131q-8 -3 -18.5 -5t-22.5 -2h-3q-28 0 -45 14t-17 39q0 24 28 45t79 42q42 17 81 31.5t81 14.5q31 0 56 -7
t42.5 -24t26.5 -44.5t9 -69.5l-4 -283q0 -23 4.5 -29t21.5 -6q4 0 10.5 0.5t14 1t14 1t9.5 0.5l3 -36l-34 -13q-26 -9 -49.5 -16.5t-40.5 -7.5q-55 0 -61 71q-12 -14 -25 -25.5t-27 -21.5q-21 -16 -44 -21t-44 -5zM258 47q21 0 42.5 12t24.5 37l4 204q-18 -13 -36 -23.5
t-34 -18.5q-42 -22 -67 -46t-26 -62q0 -23 7.5 -42t20.5 -32.5t30 -21t34 -7.5zM105 649q0 23 5.5 48t17.5 46t30 34.5t43 13.5q21 0 42 -10.5t41.5 -23.5t39 -23.5t35.5 -10.5q28 0 40.5 16t14.5 49h21q0 -74 -25 -105.5t-63 -31.5q-25 0 -46.5 10.5t-41 22.5t-38.5 22.5
t-39 10.5q-26 0 -40 -18t-16 -50h-21z" />
    <glyph glyph-name="adieresis" unicode="&#xe4;" horiz-adv-x="539" 
d="M194 -13q-30 0 -57.5 11t-48.5 30t-33.5 44t-12.5 54q0 28 11 50t33.5 40t56.5 33.5t79 30.5q32 11 62 27t45 36v15q0 60 -23.5 88t-61.5 28q-106 0 -95 -131q-8 -3 -18.5 -5t-22.5 -2h-3q-28 0 -45 14t-17 39q0 24 28 45t79 42q42 17 81 31.5t81 14.5q31 0 56 -7
t42.5 -24t26.5 -44.5t9 -69.5l-4 -283q0 -23 4.5 -29t21.5 -6q4 0 10.5 0.5t14 1t14 1t9.5 0.5l3 -36l-34 -13q-26 -9 -49.5 -16.5t-40.5 -7.5q-55 0 -61 71q-12 -14 -25 -25.5t-27 -21.5q-21 -16 -44 -21t-44 -5zM258 47q21 0 42.5 12t24.5 37l4 204q-18 -13 -36 -23.5
t-34 -18.5q-42 -22 -67 -46t-26 -62q0 -23 7.5 -42t20.5 -32.5t30 -21t34 -7.5zM155 649q-27 0 -45 18.5t-18 46.5t18 46t45 18t45 -18t18 -46t-18 -46.5t-45 -18.5zM385 649q-27 0 -45 18.5t-18 46.5t18 46t45 18t45 -18t18 -46t-18 -46.5t-45 -18.5z" />
    <glyph glyph-name="aring" unicode="&#xe5;" horiz-adv-x="539" 
d="M194 -13q-30 0 -57.5 11t-48.5 30t-33.5 44t-12.5 54q0 28 11 50t33.5 40t56.5 33.5t79 30.5q32 11 62 27t45 36v15q0 60 -23.5 88t-61.5 28q-106 0 -95 -131q-8 -3 -18.5 -5t-22.5 -2h-3q-28 0 -45 14t-17 39q0 24 28 45t79 42q42 17 81 31.5t81 14.5q31 0 56 -7
t42.5 -24t26.5 -44.5t9 -69.5l-4 -283q0 -23 4.5 -29t21.5 -6q4 0 10.5 0.5t14 1t14 1t9.5 0.5l3 -36l-34 -13q-26 -9 -49.5 -16.5t-40.5 -7.5q-55 0 -61 71q-12 -14 -25 -25.5t-27 -21.5q-21 -16 -44 -21t-44 -5zM258 47q21 0 42.5 12t24.5 37l4 204q-18 -13 -36 -23.5
t-34 -18.5q-42 -22 -67 -46t-26 -62q0 -23 7.5 -42t20.5 -32.5t30 -21t34 -7.5zM146 705q0 25 10 47t26.5 38.5t39 26t48.5 9.5q27 0 50 -9.5t40 -26t26.5 -38.5t9.5 -47t-9.5 -46.5t-26.5 -37.5t-40 -25.5t-50 -9.5q-26 0 -48.5 9.5t-39 25.5t-26.5 37.5t-10 46.5zM338 705
q0 32 -18 50t-50 18q-31 0 -48.5 -18t-17.5 -50q0 -31 17.5 -49.5t48.5 -18.5q32 0 50 18.5t18 49.5z" />
    <glyph glyph-name="ae" unicode="&#xe6;" horiz-adv-x="826" 
d="M761 84q-41 -43 -89 -70.5t-104 -27.5q-59 0 -107.5 25t-81.5 71q-14 -18 -30 -33.5t-35 -28.5q-53 -33 -120 -33q-30 0 -57.5 11t-49 30t-34 44t-12.5 54q0 56 45 89t136 65q32 11 61.5 27t44.5 36v15q0 60 -23.5 89t-61.5 29q-53 0 -74.5 -35.5t-19.5 -98.5
q-15 -6 -37 -6h-5q-27 0 -44.5 12.5t-17.5 38.5q0 23 25.5 45t70.5 41q40 17 82 33t80 16q40 0 71 -12t49 -41q30 25 66 38.5t78 13.5q51 0 90 -17.5t66.5 -47.5t43.5 -69t21 -81h-349q0 -46 12.5 -87t36.5 -71.5t59 -48.5t80 -18t80.5 20.5t60.5 44.5l25 -28zM556 479
q-53 0 -81 -37.5t-33 -93.5h220q-2 62 -30 96.5t-76 34.5zM165 150q0 -23 8 -42t21 -32.5t30 -21t35 -7.5q29 0 58 17.5t40 54.5q-29 60 -29 136v45q-18 -13 -36 -23t-34 -19q-42 -23 -67 -46.5t-26 -61.5z" />
    <glyph glyph-name="ccedilla" unicode="&#xe7;" horiz-adv-x="513" 
d="M276 -13q-52 0 -95.5 19.5t-75.5 53.5t-50 80.5t-18 100.5q0 66 25.5 118t66.5 87.5t92.5 54t104.5 18.5q28 0 54 -5t46.5 -15t32.5 -25.5t12 -36.5q0 -28 -19.5 -46t-55.5 -16q-19 45 -46.5 69t-71.5 24q-27 0 -50.5 -11t-41 -32t-28 -52.5t-10.5 -72.5
q0 -44 13.5 -83.5t37.5 -69t57.5 -47t73.5 -17.5q39 0 73.5 10.5t67.5 31.5l21 -30l-34 -28q-41 -33 -87 -56.5t-95 -23.5zM220 -265q-15 0 -30.5 3t-28 9t-20.5 15.5t-8 22.5q0 15 13.5 27t39.5 7q0 -26 17.5 -40t40.5 -14q18 0 29.5 9t11.5 22q0 20 -33.5 40t-83.5 42
l119 127h41l-76 -81q44 -22 64.5 -43t20.5 -53q0 -17 -8 -33.5t-23 -29.5t-37 -21.5t-49 -8.5z" />
    <glyph glyph-name="egrave" unicode="&#xe8;" horiz-adv-x="538" 
d="M280 -13q-52 0 -96 19.5t-76.5 54.5t-50.5 84.5t-18 108.5q0 58 19 107t51.5 84.5t76 55.5t93.5 20q51 0 90.5 -17.5t67 -47.5t44 -69t22.5 -81h-352v-1q0 -49 13.5 -90t38.5 -71t59.5 -46.5t76.5 -16.5q45 0 80.5 20.5t60.5 44.5l25 -28l-32 -34q-41 -43 -89 -70
t-104 -27zM268 479q-52 0 -79.5 -37t-34.5 -92h220q-2 62 -30 95.5t-76 33.5zM301 609l-227 171v8h137l108 -179h-18z" />
    <glyph glyph-name="eacute" unicode="&#xe9;" horiz-adv-x="538" 
d="M280 -13q-52 0 -96 19.5t-76.5 54.5t-50.5 84.5t-18 108.5q0 58 19 107t51.5 84.5t76 55.5t93.5 20q51 0 90.5 -17.5t67 -47.5t44 -69t22.5 -81h-352v-1q0 -49 13.5 -90t38.5 -71t59.5 -46.5t76.5 -16.5q45 0 80.5 20.5t60.5 44.5l25 -28l-32 -34q-41 -43 -89 -70
t-104 -27zM268 479q-52 0 -79.5 -37t-34.5 -92h220q-2 62 -30 95.5t-76 33.5zM353 788h136v-8l-227 -171h-17z" />
    <glyph glyph-name="ecircumflex" unicode="&#xea;" horiz-adv-x="538" 
d="M280 -13q-52 0 -96 19.5t-76.5 54.5t-50.5 84.5t-18 108.5q0 58 19 107t51.5 84.5t76 55.5t93.5 20q51 0 90.5 -17.5t67 -47.5t44 -69t22.5 -81h-352v-1q0 -49 13.5 -90t38.5 -71t59.5 -46.5t76.5 -16.5q45 0 80.5 20.5t60.5 44.5l25 -28l-32 -34q-41 -43 -89 -70
t-104 -27zM268 479q-52 0 -79.5 -37t-34.5 -92h220q-2 62 -30 95.5t-76 33.5zM449 609h-19l-148 89l-148 -89h-19l161 196h12z" />
    <glyph glyph-name="edieresis" unicode="&#xeb;" horiz-adv-x="538" 
d="M280 -13q-52 0 -96 19.5t-76.5 54.5t-50.5 84.5t-18 108.5q0 58 19 107t51.5 84.5t76 55.5t93.5 20q51 0 90.5 -17.5t67 -47.5t44 -69t22.5 -81h-352v-1q0 -49 13.5 -90t38.5 -71t59.5 -46.5t76.5 -16.5q45 0 80.5 20.5t60.5 44.5l25 -28l-32 -34q-41 -43 -89 -70
t-104 -27zM268 479q-52 0 -79.5 -37t-34.5 -92h220q-2 62 -30 95.5t-76 33.5zM167 649q-27 0 -45 18.5t-18 46.5t18 46t45 18t45 -18t18 -46t-18 -46.5t-45 -18.5zM397 649q-27 0 -45 18.5t-18 46.5t18 46t45 18t45 -18t18 -46t-18 -46.5t-45 -18.5z" />
    <glyph glyph-name="igrave" unicode="&#xec;" horiz-adv-x="340" 
d="M238 78q0 -17 5.5 -25t25.5 -10l46 -3v-40h-274v40l46 3q20 2 25.5 10t5.5 25v270q0 15 -0.5 24t-2.5 15t-7 10t-14 9l-67 35v6l211 81v-450zM181 609l-227 171v8h137l108 -179h-18z" />
    <glyph glyph-name="iacute" unicode="&#xed;" horiz-adv-x="340" 
d="M238 78q0 -17 5.5 -25t25.5 -10l46 -3v-40h-274v40l46 3q20 2 25.5 10t5.5 25v270q0 15 -0.5 24t-2.5 15t-7 10t-14 9l-67 35v6l211 81v-450zM233 788h136v-8l-227 -171h-17z" />
    <glyph glyph-name="icircumflex" unicode="&#xee;" horiz-adv-x="340" 
d="M238 78q0 -17 5.5 -25t25.5 -10l46 -3v-40h-274v40l46 3q20 2 25.5 10t5.5 25v270q0 15 -0.5 24t-2.5 15t-7 10t-14 9l-67 35v6l211 81v-450zM329 609h-19l-148 89l-148 -89h-19l161 196h12z" />
    <glyph glyph-name="idieresis" unicode="&#xef;" horiz-adv-x="340" 
d="M238 78q0 -17 5.5 -25t25.5 -10l46 -3v-40h-274v40l46 3q20 2 25.5 10t5.5 25v270q0 15 -0.5 24t-2.5 15t-7 10t-14 9l-67 35v6l211 81v-450zM262 641q-27 0 -45 18t-18 46t18 46t45 18t45.5 -18t18.5 -46t-18.5 -46t-45.5 -18zM62 641q-27 0 -45 18t-18 46t18 46t45 18
t45.5 -18t18.5 -46t-18.5 -46t-45.5 -18z" />
    <glyph glyph-name="eth" unicode="&#xf0;" horiz-adv-x="613" 
d="M287 -13q-56 0 -101.5 19t-78 54t-50.5 84t-18 108q0 60 19.5 109.5t53 85t78 55t94.5 19.5q37 0 67.5 -14.5t53.5 -34.5q-20 55 -52.5 102t-75.5 85l-121 -64l-22 43l102 53q-57 43 -132 70l12 36q53 -12 99.5 -29.5t88.5 -40.5l125 65l21 -43l-98 -51
q103 -69 157.5 -168t54.5 -218q0 -75 -21.5 -135.5t-59 -102.5t-88 -64.5t-108.5 -22.5zM171 246q0 -101 34.5 -156.5t90.5 -55.5q33 0 59 18.5t44 52.5t27.5 81.5t9.5 106.5q0 74 -18 140q-23 20 -48.5 28.5t-51.5 8.5q-28 0 -54.5 -13.5t-47 -41t-33 -69.5t-12.5 -100z
" />
    <glyph glyph-name="ntilde" unicode="&#xf1;" horiz-adv-x="644" 
d="M37 40l46 3q20 2 25.5 10t5.5 25v270q0 15 -0.5 24t-2.5 15t-7 10t-14 9l-67 35v6l211 81v-89q20 14 43.5 29.5t40.5 26.5q15 9 37 15.5t50 6.5q34 0 60 -8.5t44 -29t27 -54.5t9 -86v-261q0 -17 5.5 -25t25.5 -10l46 -3v-40h-266v40l38 3q20 2 25.5 10t5.5 25v210
q0 86 -21.5 121t-74.5 35q-28 0 -54.5 -14t-40.5 -38v-314q0 -17 5 -25t25 -10l39 -3v-40h-266v40zM177 649q0 23 5.5 48t17.5 46t30 34.5t43 13.5q21 0 42 -10.5t41.5 -23.5t39 -23.5t35.5 -10.5q28 0 40.5 16t14.5 49h21q0 -74 -25 -105.5t-63 -31.5q-25 0 -46.5 10.5
t-41 22.5t-38.5 22.5t-39 10.5q-26 0 -40 -18t-16 -50h-21z" />
    <glyph glyph-name="ograve" unicode="&#xf2;" horiz-adv-x="601" 
d="M303 521q59 0 107.5 -21t82.5 -56.5t52.5 -83t18.5 -100.5q0 -57 -20.5 -106.5t-56.5 -86.5t-84.5 -58.5t-103.5 -21.5q-60 0 -108 21t-82.5 57t-53 83.5t-18.5 100.5q0 57 20.5 106.5t56.5 86t84.5 58t104.5 21.5zM281 474q-23 0 -44 -9.5t-37 -30t-25 -53t-9 -77.5
q0 -44 9 -91.5t28 -87t48 -65.5t69 -26q23 0 44 9.5t36.5 30.5t25 53.5t9.5 77.5q0 43 -9 90.5t-28 87.5t-48 65.5t-69 25.5zM320 609l-227 171v8h137l108 -179h-18z" />
    <glyph glyph-name="oacute" unicode="&#xf3;" horiz-adv-x="601" 
d="M303 521q59 0 107.5 -21t82.5 -56.5t52.5 -83t18.5 -100.5q0 -57 -20.5 -106.5t-56.5 -86.5t-84.5 -58.5t-103.5 -21.5q-60 0 -108 21t-82.5 57t-53 83.5t-18.5 100.5q0 57 20.5 106.5t56.5 86t84.5 58t104.5 21.5zM281 474q-23 0 -44 -9.5t-37 -30t-25 -53t-9 -77.5
q0 -44 9 -91.5t28 -87t48 -65.5t69 -26q23 0 44 9.5t36.5 30.5t25 53.5t9.5 77.5q0 43 -9 90.5t-28 87.5t-48 65.5t-69 25.5zM371 788h136v-8l-227 -171h-17z" />
    <glyph glyph-name="ocircumflex" unicode="&#xf4;" horiz-adv-x="601" 
d="M303 521q59 0 107.5 -21t82.5 -56.5t52.5 -83t18.5 -100.5q0 -57 -20.5 -106.5t-56.5 -86.5t-84.5 -58.5t-103.5 -21.5q-60 0 -108 21t-82.5 57t-53 83.5t-18.5 100.5q0 57 20.5 106.5t56.5 86t84.5 58t104.5 21.5zM281 474q-23 0 -44 -9.5t-37 -30t-25 -53t-9 -77.5
q0 -44 9 -91.5t28 -87t48 -65.5t69 -26q23 0 44 9.5t36.5 30.5t25 53.5t9.5 77.5q0 43 -9 90.5t-28 87.5t-48 65.5t-69 25.5zM467 609h-19l-148 89l-148 -89h-19l161 196h12z" />
    <glyph glyph-name="otilde" unicode="&#xf5;" horiz-adv-x="601" 
d="M303 521q59 0 107.5 -21t82.5 -56.5t52.5 -83t18.5 -100.5q0 -57 -20.5 -106.5t-56.5 -86.5t-84.5 -58.5t-103.5 -21.5q-60 0 -108 21t-82.5 57t-53 83.5t-18.5 100.5q0 57 20.5 106.5t56.5 86t84.5 58t104.5 21.5zM281 474q-23 0 -44 -9.5t-37 -30t-25 -53t-9 -77.5
q0 -44 9 -91.5t28 -87t48 -65.5t69 -26q23 0 44 9.5t36.5 30.5t25 53.5t9.5 77.5q0 43 -9 90.5t-28 87.5t-48 65.5t-69 25.5zM135 649q0 23 5.5 48t17.5 46t30 34.5t43 13.5q21 0 42 -10.5t41.5 -23.5t39 -23.5t35.5 -10.5q28 0 40.5 16t14.5 49h21q0 -74 -25 -105.5
t-63 -31.5q-25 0 -46.5 10.5t-41 22.5t-38.5 22.5t-39 10.5q-26 0 -40 -18t-16 -50h-21z" />
    <glyph glyph-name="odieresis" unicode="&#xf6;" horiz-adv-x="601" 
d="M303 521q59 0 107.5 -21t82.5 -56.5t52.5 -83t18.5 -100.5q0 -57 -20.5 -106.5t-56.5 -86.5t-84.5 -58.5t-103.5 -21.5q-60 0 -108 21t-82.5 57t-53 83.5t-18.5 100.5q0 57 20.5 106.5t56.5 86t84.5 58t104.5 21.5zM281 474q-23 0 -44 -9.5t-37 -30t-25 -53t-9 -77.5
q0 -44 9 -91.5t28 -87t48 -65.5t69 -26q23 0 44 9.5t36.5 30.5t25 53.5t9.5 77.5q0 43 -9 90.5t-28 87.5t-48 65.5t-69 25.5zM185 649q-27 0 -45 18.5t-18 46.5t18 46t45 18t45 -18t18 -46t-18 -46.5t-45 -18.5zM415 649q-27 0 -45 18.5t-18 46.5t18 46t45 18t45 -18t18 -46
t-18 -46.5t-45 -18.5z" />
    <glyph glyph-name="divide" unicode="&#xf7;" horiz-adv-x="653" 
d="M326 367q-17 0 -32.5 6.5t-27 18t-18 27t-6.5 33.5q0 35 24.5 59.5t59.5 24.5q18 0 33.5 -6.5t27 -18t18 -27t6.5 -32.5q0 -35 -25 -60t-60 -25zM63 298h527v-71h-527v71zM326 -11q-17 0 -32.5 6.5t-27 18t-18 27t-6.5 33.5q0 35 24.5 59.5t59.5 24.5q18 0 33.5 -6.5
t27 -18t18 -27t6.5 -32.5q0 -35 -25 -60t-60 -25z" />
    <glyph glyph-name="oslash" unicode="&#xf8;" horiz-adv-x="621" 
d="M313 521q59 0 107.5 -21t82.5 -56.5t52.5 -83t18.5 -100.5q0 -57 -20.5 -106.5t-56.5 -86.5t-84.5 -58.5t-103.5 -21.5q-60 0 -108 21t-82.5 57t-53 83.5t-18.5 100.5q0 57 20.5 106.5t56.5 86t84.5 58t104.5 21.5zM291 474q-23 0 -44 -9.5t-37 -30t-25 -53t-9 -77.5
q0 -44 9 -91.5t28 -87t48 -65.5t69 -26q23 0 44 9.5t36.5 30.5t25 53.5t9.5 77.5q0 43 -9 90.5t-28 87.5t-48 65.5t-69 25.5zM47 -19l491 582l36 -31l-492 -582z" />
    <glyph glyph-name="ugrave" unicode="&#xf9;" horiz-adv-x="612" 
d="M397 65q-19 -14 -39 -26.5t-34 -21.5q-20 -12 -45 -21t-54 -9q-32 0 -56 7t-40 26t-24 52.5t-8 86.5v235q0 23 -7.5 30.5t-33.5 9.5l-34 3v37l195 34v-316q0 -38 4 -63.5t13 -41t25 -22t40 -6.5q30 0 54.5 12.5t41.5 30.5v292q0 23 -7.5 30.5t-33.5 9.5l-34 3v37l195 34
v-394q0 -17 4 -26.5t21 -9.5l49 -1v-38q-47 -8 -96.5 -21.5t-95.5 -30.5v78zM326 609l-227 171v8h137l108 -179h-18z" />
    <glyph glyph-name="uacute" unicode="&#xfa;" horiz-adv-x="612" 
d="M397 65q-19 -14 -39 -26.5t-34 -21.5q-20 -12 -45 -21t-54 -9q-32 0 -56 7t-40 26t-24 52.5t-8 86.5v235q0 23 -7.5 30.5t-33.5 9.5l-34 3v37l195 34v-316q0 -38 4 -63.5t13 -41t25 -22t40 -6.5q30 0 54.5 12.5t41.5 30.5v292q0 23 -7.5 30.5t-33.5 9.5l-34 3v37l195 34
v-394q0 -17 4 -26.5t21 -9.5l49 -1v-38q-47 -8 -96.5 -21.5t-95.5 -30.5v78zM378 788h136v-8l-227 -171h-17z" />
    <glyph glyph-name="ucircumflex" unicode="&#xfb;" horiz-adv-x="612" 
d="M397 65q-19 -14 -39 -26.5t-34 -21.5q-20 -12 -45 -21t-54 -9q-32 0 -56 7t-40 26t-24 52.5t-8 86.5v235q0 23 -7.5 30.5t-33.5 9.5l-34 3v37l195 34v-316q0 -38 4 -63.5t13 -41t25 -22t40 -6.5q30 0 54.5 12.5t41.5 30.5v292q0 23 -7.5 30.5t-33.5 9.5l-34 3v37l195 34
v-394q0 -17 4 -26.5t21 -9.5l49 -1v-38q-47 -8 -96.5 -21.5t-95.5 -30.5v78zM474 609h-19l-148 89l-148 -89h-19l161 196h12z" />
    <glyph glyph-name="udieresis" unicode="&#xfc;" horiz-adv-x="612" 
d="M397 65q-19 -14 -39 -26.5t-34 -21.5q-20 -12 -45 -21t-54 -9q-32 0 -56 7t-40 26t-24 52.5t-8 86.5v235q0 23 -7.5 30.5t-33.5 9.5l-34 3v37l195 34v-316q0 -38 4 -63.5t13 -41t25 -22t40 -6.5q30 0 54.5 12.5t41.5 30.5v292q0 23 -7.5 30.5t-33.5 9.5l-34 3v37l195 34
v-394q0 -17 4 -26.5t21 -9.5l49 -1v-38q-47 -8 -96.5 -21.5t-95.5 -30.5v78zM192 649q-27 0 -45 18.5t-18 46.5t18 46t45 18t45 -18t18 -46t-18 -46.5t-45 -18.5zM422 649q-27 0 -45 18.5t-18 46.5t18 46t45 18t45 -18t18 -46t-18 -46.5t-45 -18.5z" />
    <glyph glyph-name="yacute" unicode="&#xfd;" horiz-adv-x="573" 
d="M149 -267q-30 0 -45.5 19t-15.5 42t15 38q8 3 22.5 8t30.5 11t29.5 11.5t19.5 8.5q12 8 20 18t16 28l19 47l-191 470q-7 16 -16 20.5t-36 6.5l-15 1v40h271v-40l-14 -1q-38 -3 -50 -9t-4 -26l117 -307l98 269q8 21 10.5 34.5t-1.5 21t-15 11t-30 5.5l-21 2v40h214v-40
l-13 -2q-18 -3 -29.5 -5t-20.5 -9t-17 -20.5t-18 -38.5l-193 -488q-20 -50 -37.5 -82t-34 -50.5t-32.5 -26t-33 -7.5zM377 788h136v-8l-227 -171h-17z" />
    <glyph glyph-name="thorn" unicode="&#xfe;" horiz-adv-x="610" 
d="M297 -248h-296v40l46 3q20 2 25.5 10t5.5 25v824q0 15 -0.5 24.5t-2.5 15.5t-7 10t-14 9l-67 35v6l211 79v-387q19 14 39.5 27t38.5 24q15 9 34.5 14.5t45.5 5.5q50 0 90 -19t68 -53t43 -79.5t15 -98.5q0 -60 -24.5 -111.5t-64 -89t-89.5 -58.5t-102 -21q-24 0 -49 4
t-45 12v-171q0 -17 5 -25t25 -9l69 -3v-43zM198 125q0 -42 29.5 -68.5t73.5 -26.5q28 0 54 11.5t46.5 34.5t33 58t12.5 82q0 57 -13.5 100t-36 71.5t-52.5 43t-64 14.5q-24 0 -45 -9.5t-38 -25.5v-285z" />
    <glyph glyph-name="ydieresis" unicode="&#xff;" horiz-adv-x="573" 
d="M149 -267q-30 0 -45.5 19t-15.5 42t15 38q8 3 22.5 8t30.5 11t29.5 11.5t19.5 8.5q12 8 20 18t16 28l19 47l-191 470q-7 16 -16 20.5t-36 6.5l-15 1v40h271v-40l-14 -1q-38 -3 -50 -9t-4 -26l117 -307l98 269q8 21 10.5 34.5t-1.5 21t-15 11t-30 5.5l-21 2v40h214v-40
l-13 -2q-18 -3 -29.5 -5t-20.5 -9t-17 -20.5t-18 -38.5l-193 -488q-20 -50 -37.5 -82t-34 -50.5t-32.5 -26t-33 -7.5zM191 649q-27 0 -45 18.5t-18 46.5t18 46t45 18t45 -18t18 -46t-18 -46.5t-45 -18.5zM421 649q-27 0 -45 18.5t-18 46.5t18 46t45 18t45 -18t18 -46
t-18 -46.5t-45 -18.5z" />
    <glyph glyph-name="Abreve" unicode="&#x102;" horiz-adv-x="762" 
d="M-14 41l25 3q20 2 33 7.5t24.5 21.5t24.5 46.5t34 84.5l216 564h75l261 -676q10 -27 21.5 -36.5t38.5 -11.5l36 -3v-41h-317v41l48 3q29 2 36.5 11.5t-4.5 40.5l-64 169h-259l-23 -61q-18 -50 -27 -80t-8 -47t12 -23.5t32 -8.5l40 -4v-41h-255v41zM451 325l-108 283
l-106 -283h214zM380 828q-23 0 -49.5 6.5t-50 24.5t-41 49t-22.5 80h56q7 -55 36.5 -81.5t70.5 -26.5t70.5 26.5t36.5 81.5h56q-5 -49 -22.5 -80t-41 -49t-50 -24.5t-49.5 -6.5z" />
    <glyph glyph-name="Amacron" unicode="&#x100;" horiz-adv-x="762" 
d="M-14 41l25 3q20 2 33 7.5t24.5 21.5t24.5 46.5t34 84.5l216 564h75l261 -676q10 -27 21.5 -36.5t38.5 -11.5l36 -3v-41h-317v41l48 3q29 2 36.5 11.5t-4.5 40.5l-64 169h-259l-23 -61q-18 -50 -27 -80t-8 -47t12 -23.5t32 -8.5l40 -4v-41h-255v41zM451 325l-108 283
l-106 -283h214zM227 940h306v-67h-306v67z" />
    <glyph glyph-name="Aogonek" unicode="&#x104;" horiz-adv-x="762" 
d="M-14 41l25 3q20 2 33 7.5t24.5 21.5t24.5 46.5t34 84.5l216 564h75l261 -676q10 -27 21.5 -36.5t38.5 -11.5l36 -3v-41h-317v41l48 3q29 2 36.5 11.5t-4.5 40.5l-64 169h-259l-23 -61q-18 -50 -27 -80t-8 -47t12 -23.5t32 -8.5l40 -4v-41h-255v41zM451 325l-108 283
l-106 -283h214zM733 -207q-17 -8 -45 -17.5t-57 -9.5q-21 0 -40 5.5t-34 16.5t-23.5 26.5t-8.5 36.5q0 19 11 39t28 39t37.5 37t40.5 34h39q-13 -12 -25.5 -27t-22.5 -31.5t-16 -33.5t-6 -33q0 -21 10 -34.5t27 -19.5t39 -5.5t46 6.5v-29z" />
    <glyph glyph-name="Cacute" unicode="&#x106;" horiz-adv-x="769" 
d="M478 40q60 0 101.5 21.5t71.5 72.5l47 79h38l-45 -190q-45 -14 -100 -25t-133 -11q-94 0 -171 31.5t-131.5 85.5t-84 126t-29.5 153t31 153t87 126t134 85.5t173 31.5q78 0 130.5 -10.5t92.5 -24.5l33 -185h-38l-42 73q-30 52 -75 73t-109 21q-53 0 -101.5 -16.5
t-86 -53.5t-60 -96t-22.5 -144q0 -82 18.5 -151t55.5 -119t90.5 -78t124.5 -28zM688 969l-253 -126h-21l101 129h173v-3z" />
    <glyph glyph-name="Ccaron" unicode="&#x10c;" horiz-adv-x="769" 
d="M478 40q60 0 101.5 21.5t71.5 72.5l47 79h38l-45 -190q-45 -14 -100 -25t-133 -11q-94 0 -171 31.5t-131.5 85.5t-84 126t-29.5 153t31 153t87 126t134 85.5t173 31.5q78 0 130.5 -10.5t92.5 -24.5l33 -185h-38l-42 73q-30 52 -75 73t-109 21q-53 0 -101.5 -16.5
t-86 -53.5t-60 -96t-22.5 -144q0 -82 18.5 -151t55.5 -119t90.5 -78t124.5 -28zM268 988h23l150 -66l150 66h23l-165 -155h-16z" />
    <glyph glyph-name="Ccircumflex" unicode="&#x108;" horiz-adv-x="769" 
d="M478 40q60 0 101.5 21.5t71.5 72.5l47 79h38l-45 -190q-45 -14 -100 -25t-133 -11q-94 0 -171 31.5t-131.5 85.5t-84 126t-29.5 153t31 153t87 126t134 85.5t173 31.5q78 0 130.5 -10.5t92.5 -24.5l33 -185h-38l-42 73q-30 52 -75 73t-109 21q-53 0 -101.5 -16.5
t-86 -53.5t-60 -96t-22.5 -144q0 -82 18.5 -151t55.5 -119t90.5 -78t124.5 -28zM449 988l165 -155h-23l-150 66l-150 -66h-23l165 155h16z" />
    <glyph glyph-name="Cdotaccent" unicode="&#x10a;" horiz-adv-x="769" 
d="M478 40q60 0 101.5 21.5t71.5 72.5l47 79h38l-45 -190q-45 -14 -100 -25t-133 -11q-94 0 -171 31.5t-131.5 85.5t-84 126t-29.5 153t31 153t87 126t134 85.5t173 31.5q78 0 130.5 -10.5t92.5 -24.5l33 -185h-38l-42 73q-30 52 -75 73t-109 21q-53 0 -101.5 -16.5
t-86 -53.5t-60 -96t-22.5 -144q0 -82 18.5 -151t55.5 -119t90.5 -78t124.5 -28zM441 841q-28 0 -47 19t-19 47q0 29 19 48t47 19t47 -19t19 -48q0 -28 -19 -47t-47 -19z" />
    <glyph glyph-name="Dcaron" unicode="&#x10e;" horiz-adv-x="863" 
d="M363 758q99 0 183 -25t145 -73t95 -117.5t34 -157.5q0 -89 -35 -160t-95.5 -121t-143.5 -77t-179 -27h-320v41l42 3q18 1 28.5 4t16 10t7 19t1.5 30v543q0 18 -1.5 30t-7 19t-16 10.5t-28.5 4.5l-42 3v41h316zM363 48q66 0 122.5 16t98 52t65 94.5t23.5 144.5
q0 181 -77.5 268t-243.5 87q-28 0 -43.5 -1t-23.5 -3t-10 -6.5t-2 -11.5v-569q0 -22 3 -35.5t11 -21.5t23 -11t39 -3h15zM233 988h23l150 -66l150 66h23l-165 -155h-16z" />
    <glyph glyph-name="Dcroat" unicode="&#x110;" horiz-adv-x="873" 
d="M373 758q99 0 183 -25t145 -73t95 -117.5t34 -157.5q0 -89 -35 -160t-95.5 -121t-143.5 -77t-179 -27h-320v41l42 3q18 1 28.5 4t16 10t7 19t1.5 30v543q0 18 -1.5 30t-7 19t-16 10.5t-28.5 4.5l-42 3v41h316zM373 48q66 0 122.5 16t98 52t65 94.5t23.5 144.5
q0 181 -77.5 268t-243.5 87q-28 0 -43.5 -1t-23.5 -3t-10 -6.5t-2 -11.5v-569q0 -22 3 -35.5t11 -21.5t23 -11t39 -3h15zM57 413h388v-56h-388v56z" />
    <glyph glyph-name="Ebreve" unicode="&#x114;" horiz-adv-x="718" 
d="M47 41l42 3q18 1 28.5 4t16 10t7 19t1.5 31v542q0 37 -9 49.5t-44 14.5l-42 3v41h265l289 2l10 -193h-40l-17 51q-11 31 -24 49t-36.5 27t-61.5 11.5t-98 2.5h-42q-20 0 -20 -20v-277h112q23 0 38 2t25.5 9t17 21t12.5 39l9 40h40v-276h-40l-9 40q-6 25 -12.5 39t-17 21
t-25.5 9t-38 2h-112v-225q0 -28 4 -44.5t14 -24.5t28 -10.5t45 -2.5h14q67 0 107 3t64 12.5t39 26.5t32 46l42 69h40l-55 -207h-599v41zM368 828q-23 0 -49.5 6.5t-50 24.5t-41 49t-22.5 80h56q7 -55 36.5 -81.5t70.5 -26.5t70.5 26.5t36.5 81.5h56q-5 -49 -22.5 -80
t-41 -49t-50 -24.5t-49.5 -6.5z" />
    <glyph glyph-name="Ecaron" unicode="&#x11a;" horiz-adv-x="718" 
d="M47 41l42 3q18 1 28.5 4t16 10t7 19t1.5 31v542q0 37 -9 49.5t-44 14.5l-42 3v41h265l289 2l10 -193h-40l-17 51q-11 31 -24 49t-36.5 27t-61.5 11.5t-98 2.5h-42q-20 0 -20 -20v-277h112q23 0 38 2t25.5 9t17 21t12.5 39l9 40h40v-276h-40l-9 40q-6 25 -12.5 39t-17 21
t-25.5 9t-38 2h-112v-225q0 -28 4 -44.5t14 -24.5t28 -10.5t45 -2.5h14q67 0 107 3t64 12.5t39 26.5t32 46l42 69h40l-55 -207h-599v41zM195 988h23l150 -66l150 66h23l-165 -155h-16z" />
    <glyph glyph-name="Emacron" unicode="&#x112;" horiz-adv-x="718" 
d="M47 41l42 3q18 1 28.5 4t16 10t7 19t1.5 31v542q0 37 -9 49.5t-44 14.5l-42 3v41h265l289 2l10 -193h-40l-17 51q-11 31 -24 49t-36.5 27t-61.5 11.5t-98 2.5h-42q-20 0 -20 -20v-277h112q23 0 38 2t25.5 9t17 21t12.5 39l9 40h40v-276h-40l-9 40q-6 25 -12.5 39t-17 21
t-25.5 9t-38 2h-112v-225q0 -28 4 -44.5t14 -24.5t28 -10.5t45 -2.5h14q67 0 107 3t64 12.5t39 26.5t32 46l42 69h40l-55 -207h-599v41zM215 940h306v-67h-306v67z" />
    <glyph glyph-name="Eogonek" unicode="&#x118;" horiz-adv-x="718" 
d="M47 41l42 3q18 1 28.5 4t16 10t7 19t1.5 31v542q0 37 -9 49.5t-44 14.5l-42 3v41h265l289 2l10 -193h-40l-17 51q-11 31 -24 49t-36.5 27t-61.5 11.5t-98 2.5h-42q-20 0 -20 -20v-277h112q23 0 38 2t25.5 9t17 21t12.5 39l9 40h40v-276h-40l-9 40q-6 25 -12.5 39t-17 21
t-25.5 9t-38 2h-112v-225q0 -28 4 -44.5t14 -24.5t28 -10.5t45 -2.5h14q67 0 107 3t64 12.5t39 26.5t32 46l42 69h40l-55 -207h-599v41zM698 -207q-17 -8 -45 -17.5t-57 -9.5q-21 0 -40 5.5t-34 16.5t-23.5 26.5t-8.5 36.5q0 19 11 39t28 39t37.5 37t40.5 34h39
q-13 -12 -25.5 -27t-22.5 -31.5t-16 -33.5t-6 -33q0 -21 10 -34.5t27 -19.5t39 -5.5t46 6.5v-29z" />
    <glyph glyph-name="Edotaccent" unicode="&#x116;" horiz-adv-x="718" 
d="M47 41l42 3q18 1 28.5 4t16 10t7 19t1.5 31v542q0 37 -9 49.5t-44 14.5l-42 3v41h265l289 2l10 -193h-40l-17 51q-11 31 -24 49t-36.5 27t-61.5 11.5t-98 2.5h-42q-20 0 -20 -20v-277h112q23 0 38 2t25.5 9t17 21t12.5 39l9 40h40v-276h-40l-9 40q-6 25 -12.5 39t-17 21
t-25.5 9t-38 2h-112v-225q0 -28 4 -44.5t14 -24.5t28 -10.5t45 -2.5h14q67 0 107 3t64 12.5t39 26.5t32 46l42 69h40l-55 -207h-599v41zM368 841q-28 0 -47 19t-19 47q0 29 19 48t47 19t47 -19t19 -48q0 -28 -19 -47t-47 -19z" />
    <glyph glyph-name="Gbreve" unicode="&#x11e;" horiz-adv-x="818" 
d="M464 -13q-98 0 -176 31.5t-132.5 85.5t-84 126t-29.5 153t31 153t87.5 126t134.5 85.5t172 31.5q77 0 130 -10.5t93 -24.5l34 -186h-38l-43 74q-30 52 -75.5 73t-109.5 21q-52 0 -100.5 -16.5t-86 -53.5t-60 -96t-22.5 -144q0 -86 19.5 -155.5t56 -118.5t89.5 -75.5
t121 -26.5q30 0 54 3.5t50 10.5v205q0 19 -1.5 31t-7 19t-15.5 10t-28 4l-63 3v41h335v-41l-37 -3q-18 -2 -28 -5t-15.5 -10t-7 -18.5t-1.5 -30.5v-153l5 -71q-53 -20 -114.5 -34t-136.5 -14zM446 828q-23 0 -49.5 6.5t-50 24.5t-41 49t-22.5 80h56q7 -55 36.5 -81.5
t70.5 -26.5t70.5 26.5t36.5 81.5h56q-5 -49 -22.5 -80t-41 -49t-50 -24.5t-49.5 -6.5z" />
    <glyph glyph-name="Gcircumflex" unicode="&#x11c;" horiz-adv-x="818" 
d="M464 -13q-98 0 -176 31.5t-132.5 85.5t-84 126t-29.5 153t31 153t87.5 126t134.5 85.5t172 31.5q77 0 130 -10.5t93 -24.5l34 -186h-38l-43 74q-30 52 -75.5 73t-109.5 21q-52 0 -100.5 -16.5t-86 -53.5t-60 -96t-22.5 -144q0 -86 19.5 -155.5t56 -118.5t89.5 -75.5
t121 -26.5q30 0 54 3.5t50 10.5v205q0 19 -1.5 31t-7 19t-15.5 10t-28 4l-63 3v41h335v-41l-37 -3q-18 -2 -28 -5t-15.5 -10t-7 -18.5t-1.5 -30.5v-153l5 -71q-53 -20 -114.5 -34t-136.5 -14zM454 988l165 -155h-23l-150 66l-150 -66h-23l165 155h16z" />
    <glyph glyph-name="uni0122" unicode="&#x122;" horiz-adv-x="818" 
d="M464 -13q-98 0 -176 31.5t-132.5 85.5t-84 126t-29.5 153t31 153t87.5 126t134.5 85.5t172 31.5q77 0 130 -10.5t93 -24.5l34 -186h-38l-43 74q-30 52 -75.5 73t-109.5 21q-52 0 -100.5 -16.5t-86 -53.5t-60 -96t-22.5 -144q0 -86 19.5 -155.5t56 -118.5t89.5 -75.5
t121 -26.5q30 0 54 3.5t50 10.5v205q0 19 -1.5 31t-7 19t-15.5 10t-28 4l-63 3v41h335v-41l-37 -3q-18 -2 -28 -5t-15.5 -10t-7 -18.5t-1.5 -30.5v-153l5 -71q-53 -20 -114.5 -34t-136.5 -14zM438 -88q22 0 41 -8.5t33 -23.5t22.5 -35t8.5 -44q0 -27 -12 -53t-33.5 -48.5
t-50 -41.5t-61.5 -33l-12 25q89 43 89 110q0 37 -24.5 56t-65.5 26q-2 32 15.5 51t49.5 19z" />
    <glyph glyph-name="Gdotaccent" unicode="&#x120;" horiz-adv-x="818" 
d="M464 -13q-98 0 -176 31.5t-132.5 85.5t-84 126t-29.5 153t31 153t87.5 126t134.5 85.5t172 31.5q77 0 130 -10.5t93 -24.5l34 -186h-38l-43 74q-30 52 -75.5 73t-109.5 21q-52 0 -100.5 -16.5t-86 -53.5t-60 -96t-22.5 -144q0 -86 19.5 -155.5t56 -118.5t89.5 -75.5
t121 -26.5q30 0 54 3.5t50 10.5v205q0 19 -1.5 31t-7 19t-15.5 10t-28 4l-63 3v41h335v-41l-37 -3q-18 -2 -28 -5t-15.5 -10t-7 -18.5t-1.5 -30.5v-153l5 -71q-53 -20 -114.5 -34t-136.5 -14zM446 841q-28 0 -47 19t-19 47q0 29 19 48t47 19t47 -19t19 -48q0 -28 -19 -47
t-47 -19z" />
    <glyph glyph-name="Hbar" unicode="&#x126;" horiz-adv-x="929" 
d="M142 650q0 37 -9 49.5t-44 14.5l-42 3v41h320v-41l-42 -3q-35 -2 -44 -14.5t-9 -49.5v-238h385v238q0 37 -9 49.5t-44 14.5l-43 3v41h321v-41l-42 -3q-35 -2 -44 -14.5t-9 -49.5v-542q0 -19 1.5 -31t7 -19t16 -10t28.5 -4l42 -3v-41h-321v41l43 3q18 1 28.5 4t16 10t7 19
t1.5 31v247h-385v-247q0 -19 1.5 -31t7 -19t16 -10t28.5 -4l42 -3v-41h-320v41l42 3q18 1 28.5 4t16 10t7 19t1.5 31v542zM47 592h835v-56h-835v56z" />
    <glyph glyph-name="Hcircumflex" unicode="&#x124;" horiz-adv-x="929" 
d="M142 650q0 37 -9 49.5t-44 14.5l-42 3v41h320v-41l-42 -3q-35 -2 -44 -14.5t-9 -49.5v-238h385v238q0 37 -9 49.5t-44 14.5l-43 3v41h321v-41l-42 -3q-35 -2 -44 -14.5t-9 -49.5v-542q0 -19 1.5 -31t7 -19t16 -10t28.5 -4l42 -3v-41h-321v41l43 3q18 1 28.5 4t16 10t7 19
t1.5 31v247h-385v-247q0 -19 1.5 -31t7 -19t16 -10t28.5 -4l42 -3v-41h-320v41l42 3q18 1 28.5 4t16 10t7 19t1.5 31v542zM472 988l165 -155h-23l-150 66l-150 -66h-23l165 155h16z" />
    <glyph glyph-name="Ibreve" unicode="&#x12c;" horiz-adv-x="414" 
d="M142 650q0 37 -9 49.5t-44 14.5l-42 3v41h320v-41l-42 -3q-35 -2 -44 -14.5t-9 -49.5v-542q0 -19 1.5 -31t7 -19t16 -10t28.5 -4l42 -3v-41h-320v41l42 3q18 1 28.5 4t16 10t7 19t1.5 31v542zM207 828q-23 0 -49.5 6.5t-50 24.5t-41 49t-22.5 80h56q7 -55 36.5 -81.5
t70.5 -26.5t70.5 26.5t36.5 81.5h56q-5 -49 -22.5 -80t-41 -49t-50 -24.5t-49.5 -6.5z" />
    <glyph glyph-name="Idotaccent" unicode="&#x130;" horiz-adv-x="414" 
d="M142 650q0 37 -9 49.5t-44 14.5l-42 3v41h320v-41l-42 -3q-35 -2 -44 -14.5t-9 -49.5v-542q0 -19 1.5 -31t7 -19t16 -10t28.5 -4l42 -3v-41h-320v41l42 3q18 1 28.5 4t16 10t7 19t1.5 31v542zM207 841q-28 0 -47 19t-19 47q0 29 19 48t47 19t47 -19t19 -48q0 -28 -19 -47
t-47 -19z" />
    <glyph glyph-name="Imacron" unicode="&#x12a;" horiz-adv-x="414" 
d="M142 650q0 37 -9 49.5t-44 14.5l-42 3v41h320v-41l-42 -3q-35 -2 -44 -14.5t-9 -49.5v-542q0 -19 1.5 -31t7 -19t16 -10t28.5 -4l42 -3v-41h-320v41l42 3q18 1 28.5 4t16 10t7 19t1.5 31v542zM54 940h306v-67h-306v67z" />
    <glyph glyph-name="Iogonek" unicode="&#x12e;" horiz-adv-x="414" 
d="M142 650q0 37 -9 49.5t-44 14.5l-42 3v41h320v-41l-42 -3q-35 -2 -44 -14.5t-9 -49.5v-542q0 -19 1.5 -31t7 -19t16 -10t28.5 -4l42 -3v-41h-320v41l42 3q18 1 28.5 4t16 10t7 19t1.5 31v542zM327 -207q-17 -8 -45 -17.5t-57 -9.5q-21 0 -40 5.5t-34 16.5t-23.5 26.5
t-8.5 36.5q0 19 11 39t28 39t37.5 37t40.5 34h39q-13 -12 -25.5 -27t-22.5 -31.5t-16 -33.5t-6 -33q0 -21 10 -34.5t27 -19.5t39 -5.5t46 6.5v-29z" />
    <glyph glyph-name="Itilde" unicode="&#x128;" horiz-adv-x="414" 
d="M142 650q0 37 -9 49.5t-44 14.5l-42 3v41h320v-41l-42 -3q-35 -2 -44 -14.5t-9 -49.5v-542q0 -19 1.5 -31t7 -19t16 -10t28.5 -4l42 -3v-41h-320v41l42 3q18 1 28.5 4t16 10t7 19t1.5 31v542zM42 833q0 23 5.5 48t17.5 46t30 34.5t43 13.5q21 0 42 -10t41.5 -21.5
t39 -21.5t35.5 -10q27 0 40 14t15 46h21q0 -41 -8 -67t-20.5 -42t-28 -22t-31.5 -6q-25 0 -46.5 10t-41 21.5t-38.5 21.5t-39 10q-24 0 -39 -17t-17 -48h-21z" />
    <glyph glyph-name="uni1ECA" unicode="&#x1eca;" horiz-adv-x="414" 
d="M142 650q0 37 -9 49.5t-44 14.5l-42 3v41h320v-41l-42 -3q-35 -2 -44 -14.5t-9 -49.5v-542q0 -19 1.5 -31t7 -19t16 -10t28.5 -4l42 -3v-41h-320v41l42 3q18 1 28.5 4t16 10t7 19t1.5 31v542zM207 -243q-28 0 -47 19t-19 47q0 29 19 48t47 19t47 -19t19 -48
q0 -28 -19 -47t-47 -19z" />
    <glyph glyph-name="Jcircumflex" unicode="&#x134;" horiz-adv-x="404" 
d="M6 -70q39 34 66 61t43 55.5t23 63t7 84.5v456q0 37 -9 49.5t-43 14.5l-43 3v41h321v-41l-43 -3q-35 -2 -43.5 -14.5t-8.5 -49.5v-443q0 -39 -5 -67.5t-15.5 -50.5t-27.5 -41t-40 -38q-13 -11 -32 -25t-40 -29.5t-43.5 -31.5t-41.5 -29zM218 988l165 -155h-23l-150 66
l-150 -66h-23l165 155h16z" />
    <glyph glyph-name="uni0136" unicode="&#x136;" horiz-adv-x="826" 
d="M322 340l-50 -2v-230q0 -19 1.5 -31t7 -19t16 -10t28.5 -4l42 -3v-41h-320v41l42 3q18 1 28.5 4t16 10t7 19t1.5 31v542q0 37 -9 49.5t-44 14.5l-42 3v41h320v-41l-42 -3q-35 -2 -44 -14.5t-9 -49.5v-266q17 4 31 12.5t32 27.5l178 189q28 30 42.5 49.5t15.5 31
t-10.5 16.5t-34.5 6l-29 1v41h290v-41l-25 -2q-22 -2 -38.5 -5.5t-36 -14.5t-44.5 -32.5t-63 -59.5l-169 -168l304 -352q17 -20 31.5 -28.5t39.5 -10.5l43 -3v-41h-226zM452 -88q22 0 41 -8.5t33 -23.5t22.5 -35t8.5 -44q0 -27 -12 -53t-33.5 -48.5t-50 -41.5t-61.5 -33
l-12 25q89 43 89 110q0 37 -24.5 56t-65.5 26q-2 32 15.5 51t49.5 19z" />
    <glyph glyph-name="Lacute" unicode="&#x139;" horiz-adv-x="663" 
d="M47 41l42 3q18 1 28.5 4.5t16 10.5t7 19t1.5 31v541q0 37 -9 49.5t-44 14.5l-42 3v41h320v-41l-42 -3q-35 -2 -44 -14.5t-9 -49.5v-516q0 -29 4 -45.5t15.5 -25t32 -11t53.5 -2.5q48 0 78 3t50.5 12.5t35 27t31.5 45.5l42 69h40l-54 -207h-553v41zM461 969l-253 -126h-21
l101 129h173v-3z" />
    <glyph glyph-name="Lcaron" unicode="&#x13d;" horiz-adv-x="663" 
d="M47 41l42 3q18 1 28.5 4.5t16 10.5t7 19t1.5 31v541q0 37 -9 49.5t-44 14.5l-42 3v41h320v-41l-42 -3q-35 -2 -44 -14.5t-9 -49.5v-516q0 -29 4 -45.5t15.5 -25t32 -11t53.5 -2.5q48 0 78 3t50.5 12.5t35 27t31.5 45.5l42 69h40l-54 -207h-553v41zM491 798q22 0 41 -8.5
t33 -23.5t22.5 -35t8.5 -44q0 -27 -12 -53t-33.5 -48.5t-50 -41.5t-61.5 -33l-12 25q89 43 89 110q0 37 -24.5 56t-65.5 26q-2 32 15.5 51t49.5 19z" />
    <glyph glyph-name="uni013B" unicode="&#x13b;" horiz-adv-x="663" 
d="M47 41l42 3q18 1 28.5 4.5t16 10.5t7 19t1.5 31v541q0 37 -9 49.5t-44 14.5l-42 3v41h320v-41l-42 -3q-35 -2 -44 -14.5t-9 -49.5v-516q0 -29 4 -45.5t15.5 -25t32 -11t53.5 -2.5q48 0 78 3t50.5 12.5t35 27t31.5 45.5l42 69h40l-54 -207h-553v41zM328 -88q22 0 41 -8.5
t33 -23.5t22.5 -35t8.5 -44q0 -27 -12 -53t-33.5 -48.5t-50 -41.5t-61.5 -33l-12 25q89 43 89 110q0 37 -24.5 56t-65.5 26q-2 32 15.5 51t49.5 19z" />
    <glyph glyph-name="Ldot" unicode="&#x13f;" horiz-adv-x="663" 
d="M47 41l42 3q18 1 28.5 4.5t16 10.5t7 19t1.5 31v541q0 37 -9 49.5t-44 14.5l-42 3v41h320v-41l-42 -3q-35 -2 -44 -14.5t-9 -49.5v-516q0 -29 4 -45.5t15.5 -25t32 -11t53.5 -2.5q48 0 78 3t50.5 12.5t35 27t31.5 45.5l42 69h40l-54 -207h-553v41zM532 345q-28 0 -47 19
t-19 48t19 48t47 19t47 -19t19 -48t-19 -48t-47 -19z" />
    <glyph glyph-name="glyph223" horiz-adv-x="663" 
d="M47 41l42 3q18 1 28.5 4.5t16 10.5t7 19t1.5 31v541q0 37 -9 49.5t-44 14.5l-42 3v41h320v-41l-42 -3q-35 -2 -44 -14.5t-9 -49.5v-516q0 -29 4 -45.5t15.5 -25t32 -11t53.5 -2.5q48 0 78 3t50.5 12.5t35 27t31.5 45.5l42 69h40l-54 -207h-553v41zM532 345q-28 0 -47 19
t-19 48t19 48t47 19t47 -19t19 -48t-19 -48t-47 -19z" />
    <glyph glyph-name="Lslash" unicode="&#x141;" horiz-adv-x="663" 
d="M47 41l42 3q18 1 28.5 4.5t16 10.5t7 19t1.5 31v541q0 37 -9 49.5t-44 14.5l-42 3v41h320v-41l-42 -3q-35 -2 -44 -14.5t-9 -49.5v-516q0 -29 4 -45.5t15.5 -25t32 -11t53.5 -2.5q48 0 78 3t50.5 12.5t35 27t31.5 45.5l42 69h40l-54 -207h-553v41zM6 296l403 209v-62
l-403 -209v62z" />
    <glyph glyph-name="Eng" unicode="&#x14a;" horiz-adv-x="926" 
d="M859 713q-24 -3 -37.5 -8t-20.5 -23.5t-9 -56.5t-2 -105v-473q0 -39 -4 -67t-14 -50.5t-25.5 -41.5t-39.5 -38q-13 -11 -32 -25t-40 -29.5t-43.5 -31.5t-41.5 -29l-22 31q34 31 60.5 55t44.5 52.5t27.5 66.5t9.5 95v55l-461 504v-356q0 -68 2 -105.5t8.5 -56t20 -23.5
t37.5 -8l37 -4v-41h-269v41l37 4q24 3 37.5 8t20.5 23.5t9 56t2 105.5v339q0 38 -6.5 63.5t-21 41.5t-38.5 24t-58 11v41h194l512 -538v300q0 67 -2 105t-9 56.5t-20.5 23.5t-37.5 8l-37 4v41h269v-41z" />
    <glyph glyph-name="Nacute" unicode="&#x143;" horiz-adv-x="926" 
d="M209 594v-356q0 -68 2 -105.5t8.5 -56t20 -23.5t37.5 -8l37 -4v-41h-269v41l37 4q24 3 37.5 8t20.5 23.5t9 56t2 105.5v339q0 38 -6.5 63.5t-21 41.5t-38.5 24t-58 11v41h194l512 -538v300q0 67 -2 105t-9 56.5t-20.5 23.5t-37.5 8l-37 4v41h269v-41l-37 -4
q-24 -3 -37.5 -8t-20.5 -23.5t-9 -56.5t-2 -105v-529h-30zM717 969l-253 -126h-21l101 129h173v-3z" />
    <glyph glyph-name="Ncaron" unicode="&#x147;" horiz-adv-x="926" 
d="M209 594v-356q0 -68 2 -105.5t8.5 -56t20 -23.5t37.5 -8l37 -4v-41h-269v41l37 4q24 3 37.5 8t20.5 23.5t9 56t2 105.5v339q0 38 -6.5 63.5t-21 41.5t-38.5 24t-58 11v41h194l512 -538v300q0 67 -2 105t-9 56.5t-20.5 23.5t-37.5 8l-37 4v41h269v-41l-37 -4
q-24 -3 -37.5 -8t-20.5 -23.5t-9 -56.5t-2 -105v-529h-30zM297 988h23l150 -66l150 66h23l-165 -155h-16z" />
    <glyph glyph-name="uni0145" unicode="&#x145;" horiz-adv-x="926" 
d="M209 594v-356q0 -68 2 -105.5t8.5 -56t20 -23.5t37.5 -8l37 -4v-41h-269v41l37 4q24 3 37.5 8t20.5 23.5t9 56t2 105.5v339q0 38 -6.5 63.5t-21 41.5t-38.5 24t-58 11v41h194l512 -538v300q0 67 -2 105t-9 56.5t-20.5 23.5t-37.5 8l-37 4v41h269v-41l-37 -4
q-24 -3 -37.5 -8t-20.5 -23.5t-9 -56.5t-2 -105v-529h-30zM458 -88q22 0 41 -8.5t33 -23.5t22.5 -35t8.5 -44q0 -27 -12 -53t-33.5 -48.5t-50 -41.5t-61.5 -33l-12 25q89 43 89 110q0 37 -24.5 56t-65.5 26q-2 32 15.5 51t49.5 19z" />
    <glyph glyph-name="OE" unicode="&#x152;" horiz-adv-x="1250" 
d="M440 -13q-81 0 -153 29t-126 81.5t-86 125.5t-32 160t32 159.5t86.5 125t126.5 82t152 29.5t144.5 -30.5t110.5 -84.5v94h149l289 2l10 -193h-40l-17 51q-11 31 -24 49t-36.5 27t-61.5 11.5t-98 2.5h-42q-20 0 -20 -20v-277h112q23 0 38 2t25.5 9t17 21t12.5 39l9 40h40
v-276h-40l-9 40q-6 25 -12.5 39t-17 21t-25.5 9t-38 2h-112v-225q0 -28 4 -44.5t14 -24.5t28 -10.5t45 -2.5h14q67 0 107 3t64 12.5t39 26.5t32 46l42 69h40l-55 -207h-483v102q-46 -54 -110.5 -84.5t-144.5 -30.5zM689 352q0 88 -18.5 157.5t-52.5 118t-82 74t-106 25.5
q-46 0 -89 -17.5t-76.5 -55.5t-53.5 -97.5t-20 -143.5q0 -88 18.5 -157.5t52.5 -117.5t81.5 -73.5t106.5 -25.5q46 0 89 17.5t76.5 55t53.5 97t20 143.5z" />
    <glyph glyph-name="Obreve" unicode="&#x14e;" horiz-adv-x="880" 
d="M440 779q81 0 153 -29.5t126 -82t85.5 -125.5t31.5 -160t-32 -159.5t-86 -125t-126 -81.5t-152 -29q-81 0 -153 29t-126 81.5t-86 125.5t-32 160t32 159.5t86.5 125t126.5 82t152 29.5zM430 727q-46 0 -89 -17.5t-76.5 -55.5t-53.5 -97.5t-20 -143.5q0 -88 18.5 -157.5
t52.5 -117.5t81.5 -73.5t106.5 -25.5q46 0 89 17.5t76.5 55t53.5 97t20 143.5q0 88 -18.5 157.5t-52.5 118t-82 74t-106 25.5zM441 828q-23 0 -49.5 6.5t-50 24.5t-41 49t-22.5 80h56q7 -55 36.5 -81.5t70.5 -26.5t70.5 26.5t36.5 81.5h56q-5 -49 -22.5 -80t-41 -49
t-50 -24.5t-49.5 -6.5z" />
    <glyph glyph-name="Ohungarumlaut" unicode="&#x150;" horiz-adv-x="880" 
d="M440 779q81 0 153 -29.5t126 -82t85.5 -125.5t31.5 -160t-32 -159.5t-86 -125t-126 -81.5t-152 -29q-81 0 -153 29t-126 81.5t-86 125.5t-32 160t32 159.5t86.5 125t126.5 82t152 29.5zM430 727q-46 0 -89 -17.5t-76.5 -55.5t-53.5 -97.5t-20 -143.5q0 -88 18.5 -157.5
t52.5 -117.5t81.5 -73.5t106.5 -25.5q46 0 89 17.5t76.5 55t53.5 97t20 143.5q0 88 -18.5 157.5t-52.5 118t-82 74t-106 25.5zM604 969l-253 -126h-21l101 129h173v-3zM809 969l-252 -126h-21l101 129h172v-3z" />
    <glyph glyph-name="Omacron" unicode="&#x14c;" horiz-adv-x="880" 
d="M440 779q81 0 153 -29.5t126 -82t85.5 -125.5t31.5 -160t-32 -159.5t-86 -125t-126 -81.5t-152 -29q-81 0 -153 29t-126 81.5t-86 125.5t-32 160t32 159.5t86.5 125t126.5 82t152 29.5zM430 727q-46 0 -89 -17.5t-76.5 -55.5t-53.5 -97.5t-20 -143.5q0 -88 18.5 -157.5
t52.5 -117.5t81.5 -73.5t106.5 -25.5q46 0 89 17.5t76.5 55t53.5 97t20 143.5q0 88 -18.5 157.5t-52.5 118t-82 74t-106 25.5zM288 940h306v-67h-306v67z" />
    <glyph glyph-name="uni1ECC" unicode="&#x1ecc;" horiz-adv-x="880" 
d="M440 779q81 0 153 -29.5t126 -82t85.5 -125.5t31.5 -160t-32 -159.5t-86 -125t-126 -81.5t-152 -29q-81 0 -153 29t-126 81.5t-86 125.5t-32 160t32 159.5t86.5 125t126.5 82t152 29.5zM430 727q-46 0 -89 -17.5t-76.5 -55.5t-53.5 -97.5t-20 -143.5q0 -88 18.5 -157.5
t52.5 -117.5t81.5 -73.5t106.5 -25.5q46 0 89 17.5t76.5 55t53.5 97t20 143.5q0 88 -18.5 157.5t-52.5 118t-82 74t-106 25.5zM447 -243q-28 0 -47 19t-19 47q0 29 19 48t47 19t47 -19t19 -48q0 -28 -19 -47t-47 -19z" />
    <glyph glyph-name="Racute" unicode="&#x154;" horiz-adv-x="781" 
d="M339 758q71 0 129 -9.5t99 -31t63.5 -56t22.5 -83.5q0 -75 -48 -123.5t-131 -71.5l218 -282q13 -18 23 -29t19 -17.5t18 -9t21 -2.5l27 -2v-41h-203l-256 358h-69v-250q0 -20 2 -32t8 -18.5t17.5 -9t31.5 -3.5l52 -2v-43h-336v41l42 3q18 1 28.5 4t16 10t7 19t1.5 31v542
q0 37 -9 49.5t-44 14.5l-42 3v41h292zM272 406q3 0 12 -0.5t19.5 -0.5h19.5h11q52 0 86.5 12t54.5 33t28.5 48.5t8.5 57.5q0 33 -8.5 61t-29.5 48.5t-55.5 32.5t-85.5 12q-21 0 -33 -1t-18 -3t-8 -7t-2 -12v-281zM617 969l-253 -126h-21l101 129h173v-3z" />
    <glyph glyph-name="Rcaron" unicode="&#x158;" horiz-adv-x="781" 
d="M339 758q71 0 129 -9.5t99 -31t63.5 -56t22.5 -83.5q0 -75 -48 -123.5t-131 -71.5l218 -282q13 -18 23 -29t19 -17.5t18 -9t21 -2.5l27 -2v-41h-203l-256 358h-69v-250q0 -20 2 -32t8 -18.5t17.5 -9t31.5 -3.5l52 -2v-43h-336v41l42 3q18 1 28.5 4t16 10t7 19t1.5 31v542
q0 37 -9 49.5t-44 14.5l-42 3v41h292zM272 406q3 0 12 -0.5t19.5 -0.5h19.5h11q52 0 86.5 12t54.5 33t28.5 48.5t8.5 57.5q0 33 -8.5 61t-29.5 48.5t-55.5 32.5t-85.5 12q-21 0 -33 -1t-18 -3t-8 -7t-2 -12v-281zM197 988h23l150 -66l150 66h23l-165 -155h-16z" />
    <glyph glyph-name="uni0156" unicode="&#x156;" horiz-adv-x="781" 
d="M339 758q71 0 129 -9.5t99 -31t63.5 -56t22.5 -83.5q0 -75 -48 -123.5t-131 -71.5l218 -282q13 -18 23 -29t19 -17.5t18 -9t21 -2.5l27 -2v-41h-203l-256 358h-69v-250q0 -20 2 -32t8 -18.5t17.5 -9t31.5 -3.5l52 -2v-43h-336v41l42 3q18 1 28.5 4t16 10t7 19t1.5 31v542
q0 37 -9 49.5t-44 14.5l-42 3v41h292zM272 406q3 0 12 -0.5t19.5 -0.5h19.5h11q52 0 86.5 12t54.5 33t28.5 48.5t8.5 57.5q0 33 -8.5 61t-29.5 48.5t-55.5 32.5t-85.5 12q-21 0 -33 -1t-18 -3t-8 -7t-2 -12v-281zM447 -88q22 0 41 -8.5t33 -23.5t22.5 -35t8.5 -44
q0 -27 -12 -53t-33.5 -48.5t-50 -41.5t-61.5 -33l-12 25q89 43 89 110q0 37 -24.5 56t-65.5 26q-2 32 15.5 51t49.5 19z" />
    <glyph glyph-name="Sacute" unicode="&#x15a;" horiz-adv-x="608" 
d="M292 -13q-62 0 -113.5 13t-92.5 34l-36 198l37 7l46 -91q18 -35 34.5 -56.5t35 -33t41 -15.5t51.5 -4q31 0 59 7.5t49.5 22.5t34.5 39t13 57q0 54 -38.5 89.5t-104.5 63.5l-61 26q-91 38 -133.5 91.5t-42.5 132.5q0 47 20 86t53.5 66.5t78 43t92.5 15.5q47 0 88 -6.5
t78 -18.5l33 -177l-37 -8l-46 77q-15 24 -27.5 40t-26.5 25.5t-30 13t-38 3.5q-57 0 -93.5 -30.5t-36.5 -85.5q0 -49 26 -83.5t81 -57.5l62 -26q48 -20 87 -40t67.5 -45.5t44 -60.5t15.5 -84q0 -54 -24 -96.5t-62.5 -71.5t-86.5 -44.5t-97 -15.5zM557 969l-253 -126h-21
l101 129h173v-3z" />
    <glyph glyph-name="Scaron" unicode="&#x160;" horiz-adv-x="608" 
d="M292 -13q-62 0 -113.5 13t-92.5 34l-36 198l37 7l46 -91q18 -35 34.5 -56.5t35 -33t41 -15.5t51.5 -4q31 0 59 7.5t49.5 22.5t34.5 39t13 57q0 54 -38.5 89.5t-104.5 63.5l-61 26q-91 38 -133.5 91.5t-42.5 132.5q0 47 20 86t53.5 66.5t78 43t92.5 15.5q47 0 88 -6.5
t78 -18.5l33 -177l-37 -8l-46 77q-15 24 -27.5 40t-26.5 25.5t-30 13t-38 3.5q-57 0 -93.5 -30.5t-36.5 -85.5q0 -49 26 -83.5t81 -57.5l62 -26q48 -20 87 -40t67.5 -45.5t44 -60.5t15.5 -84q0 -54 -24 -96.5t-62.5 -71.5t-86.5 -44.5t-97 -15.5zM137 988h23l150 -66l150 66
h23l-165 -155h-16z" />
    <glyph glyph-name="Scedilla" unicode="&#x15e;" horiz-adv-x="608" 
d="M292 -13q-62 0 -113.5 13t-92.5 34l-36 198l37 7l46 -91q18 -35 34.5 -56.5t35 -33t41 -15.5t51.5 -4q31 0 59 7.5t49.5 22.5t34.5 39t13 57q0 54 -38.5 89.5t-104.5 63.5l-61 26q-91 38 -133.5 91.5t-42.5 132.5q0 47 20 86t53.5 66.5t78 43t92.5 15.5q47 0 88 -6.5
t78 -18.5l33 -177l-37 -8l-46 77q-15 24 -27.5 40t-26.5 25.5t-30 13t-38 3.5q-57 0 -93.5 -30.5t-36.5 -85.5q0 -49 26 -83.5t81 -57.5l62 -26q48 -20 87 -40t67.5 -45.5t44 -60.5t15.5 -84q0 -54 -24 -96.5t-62.5 -71.5t-86.5 -44.5t-97 -15.5zM236 -268q-15 0 -30.5 3
t-28 9t-20.5 15.5t-8 22.5q0 15 13.5 27t39.5 7q0 -26 17.5 -40t40.5 -14q18 0 29.5 9t11.5 22q0 20 -33.5 40.5t-83.5 42.5l119 126h41l-75 -80q43 -23 63.5 -44t20.5 -53q0 -17 -8 -33.5t-23 -29.5t-37 -21.5t-49 -8.5z" />
    <glyph glyph-name="Scircumflex" unicode="&#x15c;" horiz-adv-x="608" 
d="M292 -13q-62 0 -113.5 13t-92.5 34l-36 198l37 7l46 -91q18 -35 34.5 -56.5t35 -33t41 -15.5t51.5 -4q31 0 59 7.5t49.5 22.5t34.5 39t13 57q0 54 -38.5 89.5t-104.5 63.5l-61 26q-91 38 -133.5 91.5t-42.5 132.5q0 47 20 86t53.5 66.5t78 43t92.5 15.5q47 0 88 -6.5
t78 -18.5l33 -177l-37 -8l-46 77q-15 24 -27.5 40t-26.5 25.5t-30 13t-38 3.5q-57 0 -93.5 -30.5t-36.5 -85.5q0 -49 26 -83.5t81 -57.5l62 -26q48 -20 87 -40t67.5 -45.5t44 -60.5t15.5 -84q0 -54 -24 -96.5t-62.5 -71.5t-86.5 -44.5t-97 -15.5zM318 988l165 -155h-23
l-150 66l-150 -66h-23l165 155h16z" />
    <glyph glyph-name="uni0218" unicode="&#x218;" horiz-adv-x="608" 
d="M292 -13q-62 0 -113.5 13t-92.5 34l-36 198l37 7l46 -91q18 -35 34.5 -56.5t35 -33t41 -15.5t51.5 -4q31 0 59 7.5t49.5 22.5t34.5 39t13 57q0 54 -38.5 89.5t-104.5 63.5l-61 26q-91 38 -133.5 91.5t-42.5 132.5q0 47 20 86t53.5 66.5t78 43t92.5 15.5q47 0 88 -6.5
t78 -18.5l33 -177l-37 -8l-46 77q-15 24 -27.5 40t-26.5 25.5t-30 13t-38 3.5q-57 0 -93.5 -30.5t-36.5 -85.5q0 -49 26 -83.5t81 -57.5l62 -26q48 -20 87 -40t67.5 -45.5t44 -60.5t15.5 -84q0 -54 -24 -96.5t-62.5 -71.5t-86.5 -44.5t-97 -15.5zM301 -88q22 0 41 -8.5
t33 -23.5t22.5 -35t8.5 -44q0 -27 -12 -53t-33.5 -48.5t-50 -41.5t-61.5 -33l-12 25q89 43 89 110q0 37 -24.5 56t-65.5 26q-2 32 15.5 51t49.5 19z" />
    <glyph glyph-name="Tbar" unicode="&#x166;" horiz-adv-x="743" 
d="M437 110q0 -19 1.5 -31t7.5 -19t17.5 -10t31.5 -4l51 -3v-43h-349v43l51 3q19 1 30.5 4t17.5 10t8 19t2 31v598h-17q-60 0 -98.5 -2.5t-62 -11.5t-36 -27t-22.5 -49l-16 -51h-40l15 226h11q15 -12 28.5 -18.5t37.5 -10.5t63 -5t104 -1h197q65 0 104 1t63 5t37.5 10.5
t28.5 18.5h11l15 -226h-40l-16 51q-10 31 -22.5 49t-36 27t-62 11.5t-98.5 2.5h-17v-598zM120 413h503v-56h-503v56z" />
    <glyph glyph-name="Tcaron" unicode="&#x164;" horiz-adv-x="743" 
d="M437 110q0 -19 1.5 -31t7.5 -19t17.5 -10t31.5 -4l51 -3v-43h-349v43l51 3q19 1 30.5 4t17.5 10t8 19t2 31v598h-17q-60 0 -98.5 -2.5t-62 -11.5t-36 -27t-22.5 -49l-16 -51h-40l15 226h11q15 -12 28.5 -18.5t37.5 -10.5t63 -5t104 -1h197q65 0 104 1t63 5t37.5 10.5
t28.5 18.5h11l15 -226h-40l-16 51q-10 31 -22.5 49t-36 27t-62 11.5t-98.5 2.5h-17v-598zM198 988h23l150 -66l150 66h23l-165 -155h-16z" />
    <glyph glyph-name="uni0162" unicode="&#x162;" horiz-adv-x="743" 
d="M437 110q0 -19 1.5 -31t7.5 -19t17.5 -10t31.5 -4l51 -3v-43h-349v43l51 3q19 1 30.5 4t17.5 10t8 19t2 31v598h-17q-60 0 -98.5 -2.5t-62 -11.5t-36 -27t-22.5 -49l-16 -51h-40l15 226h11q15 -12 28.5 -18.5t37.5 -10.5t63 -5t104 -1h197q65 0 104 1t63 5t37.5 10.5
t28.5 18.5h11l15 -226h-40l-16 51q-10 31 -22.5 49t-36 27t-62 11.5t-98.5 2.5h-17v-598zM352 -88q22 0 41 -8.5t33 -23.5t22.5 -35t8.5 -44q0 -27 -12 -53t-33.5 -48.5t-50 -41.5t-61.5 -33l-12 25q89 43 89 110q0 37 -24.5 56t-65.5 26q-2 32 15.5 51t49.5 19z" />
    <glyph glyph-name="uni021A" unicode="&#x21a;" horiz-adv-x="743" 
d="M437 110q0 -19 1.5 -31t7.5 -19t17.5 -10t31.5 -4l51 -3v-43h-349v43l51 3q19 1 30.5 4t17.5 10t8 19t2 31v598h-17q-60 0 -98.5 -2.5t-62 -11.5t-36 -27t-22.5 -49l-16 -51h-40l15 226h11q15 -12 28.5 -18.5t37.5 -10.5t63 -5t104 -1h197q65 0 104 1t63 5t37.5 10.5
t28.5 18.5h11l15 -226h-40l-16 51q-10 31 -22.5 49t-36 27t-62 11.5t-98.5 2.5h-17v-598zM352 -88q22 0 41 -8.5t33 -23.5t22.5 -35t8.5 -44q0 -27 -12 -53t-33.5 -48.5t-50 -41.5t-61.5 -33l-12 25q89 43 89 110q0 37 -24.5 56t-65.5 26q-2 32 15.5 51t49.5 19z" />
    <glyph glyph-name="Ubreve" unicode="&#x16c;" horiz-adv-x="844" 
d="M422 -13q-146 0 -222.5 74.5t-76.5 234.5v354q0 37 -9 49.5t-44 14.5l-43 3v41h321v-41l-42 -3q-35 -2 -44 -14.5t-9 -49.5v-358q0 -128 49 -184t153 -56q100 0 153 59.5t53 190.5v218q0 67 -2 105.5t-9 57.5t-20.5 24t-37.5 7l-37 3v41h271v-41l-37 -3q-24 -2 -37.5 -7
t-20.5 -24t-9 -57.5t-2 -105.5v-219q0 -159 -77.5 -236.5t-220.5 -77.5zM456 828q-23 0 -49.5 6.5t-50 24.5t-41 49t-22.5 80h56q7 -55 36.5 -81.5t70.5 -26.5t70.5 26.5t36.5 81.5h56q-5 -49 -22.5 -80t-41 -49t-50 -24.5t-49.5 -6.5z" />
    <glyph glyph-name="Uhungarumlaut" unicode="&#x170;" horiz-adv-x="844" 
d="M422 -13q-146 0 -222.5 74.5t-76.5 234.5v354q0 37 -9 49.5t-44 14.5l-43 3v41h321v-41l-42 -3q-35 -2 -44 -14.5t-9 -49.5v-358q0 -128 49 -184t153 -56q100 0 153 59.5t53 190.5v218q0 67 -2 105.5t-9 57.5t-20.5 24t-37.5 7l-37 3v41h271v-41l-37 -3q-24 -2 -37.5 -7
t-20.5 -24t-9 -57.5t-2 -105.5v-219q0 -159 -77.5 -236.5t-220.5 -77.5zM619 969l-253 -126h-21l101 129h173v-3zM824 969l-252 -126h-21l101 129h172v-3z" />
    <glyph glyph-name="Umacron" unicode="&#x16a;" horiz-adv-x="844" 
d="M422 -13q-146 0 -222.5 74.5t-76.5 234.5v354q0 37 -9 49.5t-44 14.5l-43 3v41h321v-41l-42 -3q-35 -2 -44 -14.5t-9 -49.5v-358q0 -128 49 -184t153 -56q100 0 153 59.5t53 190.5v218q0 67 -2 105.5t-9 57.5t-20.5 24t-37.5 7l-37 3v41h271v-41l-37 -3q-24 -2 -37.5 -7
t-20.5 -24t-9 -57.5t-2 -105.5v-219q0 -159 -77.5 -236.5t-220.5 -77.5zM303 940h306v-67h-306v67z" />
    <glyph glyph-name="Uogonek" unicode="&#x172;" horiz-adv-x="844" 
d="M422 -13q-146 0 -222.5 74.5t-76.5 234.5v354q0 37 -9 49.5t-44 14.5l-43 3v41h321v-41l-42 -3q-35 -2 -44 -14.5t-9 -49.5v-358q0 -128 49 -184t153 -56q100 0 153 59.5t53 190.5v218q0 67 -2 105.5t-9 57.5t-20.5 24t-37.5 7l-37 3v41h271v-41l-37 -3q-24 -2 -37.5 -7
t-20.5 -24t-9 -57.5t-2 -105.5v-219q0 -140 -59.5 -216t-171.5 -93q-23 -24 -41.5 -55t-18.5 -62q0 -21 10 -34.5t27 -19.5t39 -5.5t46 6.5v-29q-17 -8 -45 -17.5t-57 -9.5q-21 0 -40 5.5t-34 16.5t-23.5 26.5t-8.5 36.5q0 17 9 35t24 35.5t33.5 34.5t36.5 32q-6 -1 -12 -1
h-12z" />
    <glyph glyph-name="Uring" unicode="&#x16e;" horiz-adv-x="844" 
d="M422 -13q-146 0 -222.5 74.5t-76.5 234.5v354q0 37 -9 49.5t-44 14.5l-43 3v41h321v-41l-42 -3q-35 -2 -44 -14.5t-9 -49.5v-358q0 -128 49 -184t153 -56q100 0 153 59.5t53 190.5v218q0 67 -2 105.5t-9 57.5t-20.5 24t-37.5 7l-37 3v41h271v-41l-37 -3q-24 -2 -37.5 -7
t-20.5 -24t-9 -57.5t-2 -105.5v-219q0 -159 -77.5 -236.5t-220.5 -77.5zM332 960q0 25 10 47t26.5 38.5t39 26t48.5 9.5t49 -9.5t40 -26t27 -38.5t10 -47t-10 -47t-27 -38t-40 -25t-49 -9t-48.5 9t-39 25t-26.5 38t-10 47zM523 960q0 32 -17.5 50t-49.5 18q-31 0 -49 -18
t-18 -50t18 -50t49 -18q32 0 49.5 18t17.5 50z" />
    <glyph glyph-name="Utilde" unicode="&#x168;" horiz-adv-x="844" 
d="M422 -13q-146 0 -222.5 74.5t-76.5 234.5v354q0 37 -9 49.5t-44 14.5l-43 3v41h321v-41l-42 -3q-35 -2 -44 -14.5t-9 -49.5v-358q0 -128 49 -184t153 -56q100 0 153 59.5t53 190.5v218q0 67 -2 105.5t-9 57.5t-20.5 24t-37.5 7l-37 3v41h271v-41l-37 -3q-24 -2 -37.5 -7
t-20.5 -24t-9 -57.5t-2 -105.5v-219q0 -159 -77.5 -236.5t-220.5 -77.5zM291 833q0 23 5.5 48t17.5 46t30 34.5t43 13.5q21 0 42 -10t41.5 -21.5t39 -21.5t35.5 -10q27 0 40 14t15 46h21q0 -41 -8 -67t-20.5 -42t-28 -22t-31.5 -6q-25 0 -46.5 10t-41 21.5t-38.5 21.5
t-39 10q-24 0 -39 -17t-17 -48h-21z" />
    <glyph glyph-name="uni1EE4" unicode="&#x1ee4;" horiz-adv-x="844" 
d="M422 -13q-146 0 -222.5 74.5t-76.5 234.5v354q0 37 -9 49.5t-44 14.5l-43 3v41h321v-41l-42 -3q-35 -2 -44 -14.5t-9 -49.5v-358q0 -128 49 -184t153 -56q100 0 153 59.5t53 190.5v218q0 67 -2 105.5t-9 57.5t-20.5 24t-37.5 7l-37 3v41h271v-41l-37 -3q-24 -2 -37.5 -7
t-20.5 -24t-9 -57.5t-2 -105.5v-219q0 -159 -77.5 -236.5t-220.5 -77.5zM433 -243q-28 0 -47 19t-19 47q0 29 19 48t47 19t47 -19t19 -48q0 -28 -19 -47t-47 -19z" />
    <glyph glyph-name="Wacute" unicode="&#x1e82;" horiz-adv-x="1151" 
d="M82 666q-5 13 -10 22t-11.5 14.5t-15.5 8t-22 3.5l-36 3v41h317v-41l-48 -3q-29 -2 -37 -11.5t4 -40.5l195 -504l133 349l-89 251h258v-41l-48 -3q-29 -2 -36.5 -11t3.5 -41l169 -504l151 396q19 49 27.5 79.5t7 47.5t-12.5 23.5t-32 8.5l-39 4v41h254v-41l-25 -3
q-20 -2 -33 -7.5t-24 -21.5t-24 -46.5t-34 -84.5l-220 -564h-68l-154 431l-168 -431h-68zM822 969l-253 -126h-21l101 129h173v-3z" />
    <glyph glyph-name="Wcircumflex" unicode="&#x174;" horiz-adv-x="1151" 
d="M82 666q-5 13 -10 22t-11.5 14.5t-15.5 8t-22 3.5l-36 3v41h317v-41l-48 -3q-29 -2 -37 -11.5t4 -40.5l195 -504l133 349l-89 251h258v-41l-48 -3q-29 -2 -36.5 -11t3.5 -41l169 -504l151 396q19 49 27.5 79.5t7 47.5t-12.5 23.5t-32 8.5l-39 4v41h254v-41l-25 -3
q-20 -2 -33 -7.5t-24 -21.5t-24 -46.5t-34 -84.5l-220 -564h-68l-154 431l-168 -431h-68zM583 988l165 -155h-23l-150 66l-150 -66h-23l165 155h16z" />
    <glyph glyph-name="Wdieresis" unicode="&#x1e84;" horiz-adv-x="1151" 
d="M82 666q-5 13 -10 22t-11.5 14.5t-15.5 8t-22 3.5l-36 3v41h317v-41l-48 -3q-29 -2 -37 -11.5t4 -40.5l195 -504l133 349l-89 251h258v-41l-48 -3q-29 -2 -36.5 -11t3.5 -41l169 -504l151 396q19 49 27.5 79.5t7 47.5t-12.5 23.5t-32 8.5l-39 4v41h254v-41l-25 -3
q-20 -2 -33 -7.5t-24 -21.5t-24 -46.5t-34 -84.5l-220 -564h-68l-154 431l-168 -431h-68zM455 841q-28 0 -46.5 19t-18.5 47q0 29 18.5 48t46.5 19t47 -19t19 -48q0 -28 -19 -47t-47 -19zM695 841q-29 0 -47.5 19t-18.5 47q0 29 18.5 48t47.5 19q27 0 46 -19t19 -48
q0 -28 -19 -47t-46 -19z" />
    <glyph glyph-name="Wgrave" unicode="&#x1e80;" horiz-adv-x="1151" 
d="M82 666q-5 13 -10 22t-11.5 14.5t-15.5 8t-22 3.5l-36 3v41h317v-41l-48 -3q-29 -2 -37 -11.5t4 -40.5l195 -504l133 349l-89 251h258v-41l-48 -3q-29 -2 -36.5 -11t3.5 -41l169 -504l151 396q19 49 27.5 79.5t7 47.5t-12.5 23.5t-32 8.5l-39 4v41h254v-41l-25 -3
q-20 -2 -33 -7.5t-24 -21.5t-24 -46.5t-34 -84.5l-220 -564h-68l-154 431l-168 -431h-68zM518 972l101 -129h-21l-253 126v3h173z" />
    <glyph glyph-name="Ycircumflex" unicode="&#x176;" horiz-adv-x="764" 
d="M205 43l51 3q20 1 31.5 4t17.5 10t8 19t2 31v217l-216 348q-12 20 -22 28.5t-37 10.5l-36 3v41h324v-41l-53 -3q-29 -2 -37 -11.5t6 -32.5l177 -289l110 173q28 44 43.5 74t18 49t-7.5 27.5t-34 10.5l-35 2v41h262v-41l-29 -2q-20 -2 -35 -9t-31.5 -25t-37.5 -48.5
t-52 -78.5l-148 -227v-217q0 -19 2 -31t8 -19t17.5 -10t31.5 -4l51 -3v-43h-350v43zM420 988l165 -155h-23l-150 66l-150 -66h-23l165 155h16z" />
    <glyph glyph-name="Ydieresis" unicode="&#x178;" horiz-adv-x="764" 
d="M205 43l51 3q20 1 31.5 4t17.5 10t8 19t2 31v217l-216 348q-12 20 -22 28.5t-37 10.5l-36 3v41h324v-41l-53 -3q-29 -2 -37 -11.5t6 -32.5l177 -289l110 173q28 44 43.5 74t18 49t-7.5 27.5t-34 10.5l-35 2v41h262v-41l-29 -2q-20 -2 -35 -9t-31.5 -25t-37.5 -48.5
t-52 -78.5l-148 -227v-217q0 -19 2 -31t8 -19t17.5 -10t31.5 -4l51 -3v-43h-350v43zM292 841q-28 0 -46.5 19t-18.5 47q0 29 18.5 48t46.5 19t47 -19t19 -48q0 -28 -19 -47t-47 -19zM532 841q-29 0 -47.5 19t-18.5 47q0 29 18.5 48t47.5 19q27 0 46 -19t19 -48
q0 -28 -19 -47t-46 -19z" />
    <glyph glyph-name="Ygrave" unicode="&#x1ef2;" horiz-adv-x="764" 
d="M205 43l51 3q20 1 31.5 4t17.5 10t8 19t2 31v217l-216 348q-12 20 -22 28.5t-37 10.5l-36 3v41h324v-41l-53 -3q-29 -2 -37 -11.5t6 -32.5l177 -289l110 173q28 44 43.5 74t18 49t-7.5 27.5t-34 10.5l-35 2v41h262v-41l-29 -2q-20 -2 -35 -9t-31.5 -25t-37.5 -48.5
t-52 -78.5l-148 -227v-217q0 -19 2 -31t8 -19t17.5 -10t31.5 -4l51 -3v-43h-350v43zM355 972l101 -129h-21l-253 126v3h173z" />
    <glyph glyph-name="uni0232" unicode="&#x232;" horiz-adv-x="764" 
d="M205 43l51 3q20 1 31.5 4t17.5 10t8 19t2 31v217l-216 348q-12 20 -22 28.5t-37 10.5l-36 3v41h324v-41l-53 -3q-29 -2 -37 -11.5t6 -32.5l177 -289l110 173q28 44 43.5 74t18 49t-7.5 27.5t-34 10.5l-35 2v41h262v-41l-29 -2q-20 -2 -35 -9t-31.5 -25t-37.5 -48.5
t-52 -78.5l-148 -227v-217q0 -19 2 -31t8 -19t17.5 -10t31.5 -4l51 -3v-43h-350v43zM259 940h306v-67h-306v67z" />
    <glyph glyph-name="Zacute" unicode="&#x179;" horiz-adv-x="754" 
d="M544 708h-165q-67 0 -107 -3t-64 -12.5t-39 -27t-32 -45.5l-42 -69h-40l69 242h11q15 -12 30.5 -18.5t41 -10.5t63.5 -5t98 -1h360l-543 -708h216q67 0 107 3t64 12t39 26t32 46l42 70h40l-55 -207h-669zM666 969l-253 -126h-21l101 129h173v-3z" />
    <glyph glyph-name="Zcaron" unicode="&#x17d;" horiz-adv-x="754" 
d="M544 708h-165q-67 0 -107 -3t-64 -12.5t-39 -27t-32 -45.5l-42 -69h-40l69 242h11q15 -12 30.5 -18.5t41 -10.5t63.5 -5t98 -1h360l-543 -708h216q67 0 107 3t64 12t39 26t32 46l42 70h40l-55 -207h-669zM246 988h23l150 -66l150 66h23l-165 -155h-16z" />
    <glyph glyph-name="Zdotaccent" unicode="&#x17b;" horiz-adv-x="754" 
d="M544 708h-165q-67 0 -107 -3t-64 -12.5t-39 -27t-32 -45.5l-42 -69h-40l69 242h11q15 -12 30.5 -18.5t41 -10.5t63.5 -5t98 -1h360l-543 -708h216q67 0 107 3t64 12t39 26t32 46l42 70h40l-55 -207h-669zM419 841q-28 0 -47 19t-19 47q0 29 19 48t47 19t47 -19t19 -48
q0 -28 -19 -47t-47 -19z" />
    <glyph glyph-name="uni018F" unicode="&#x18f;" horiz-adv-x="803" 
d="M387 -13q-69 0 -131 23t-109.5 64.5t-77.5 100.5t-37 131h592q1 11 1.5 22.5t0.5 22.5q0 79 -20 141.5t-55.5 105t-84.5 65t-108 22.5q-81 0 -150.5 -37.5t-121.5 -122.5l-40 24q22 49 57.5 91.5t80.5 74t98 49.5t111 18q83 0 150.5 -27.5t115 -79.5t73.5 -125.5
t26 -165.5q0 -86 -29.5 -158.5t-80.5 -125.5t-118.5 -83t-142.5 -30zM398 38q42 0 78.5 15.5t65 43.5t48 67.5t27.5 87.5h-425q14 -103 71 -158.5t135 -55.5z" />
    <glyph glyph-name="abreve" unicode="&#x103;" horiz-adv-x="539" 
d="M194 -13q-30 0 -57.5 11t-48.5 30t-33.5 44t-12.5 54q0 28 11 50t33.5 40t56.5 33.5t79 30.5q32 11 62 27t45 36v15q0 60 -23.5 88t-61.5 28q-106 0 -95 -131q-8 -3 -18.5 -5t-22.5 -2h-3q-28 0 -45 14t-17 39q0 24 28 45t79 42q42 17 81 31.5t81 14.5q31 0 56 -7
t42.5 -24t26.5 -44.5t9 -69.5l-4 -283q0 -23 4.5 -29t21.5 -6q4 0 10.5 0.5t14 1t14 1t9.5 0.5l3 -36l-34 -13q-26 -9 -49.5 -16.5t-40.5 -7.5q-55 0 -61 71q-12 -14 -25 -25.5t-27 -21.5q-21 -16 -44 -21t-44 -5zM258 47q21 0 42.5 12t24.5 37l4 204q-18 -13 -36 -23.5
t-34 -18.5q-42 -22 -67 -46t-26 -62q0 -23 7.5 -42t20.5 -32.5t30 -21t34 -7.5zM270 628q-23 0 -49.5 6.5t-50 24.5t-41 49t-22.5 80h56q7 -56 36.5 -82.5t70.5 -26.5t70.5 26.5t36.5 82.5h56q-5 -49 -22.5 -80t-41 -49t-50 -24.5t-49.5 -6.5z" />
    <glyph glyph-name="amacron" unicode="&#x101;" horiz-adv-x="539" 
d="M194 -13q-30 0 -57.5 11t-48.5 30t-33.5 44t-12.5 54q0 28 11 50t33.5 40t56.5 33.5t79 30.5q32 11 62 27t45 36v15q0 60 -23.5 88t-61.5 28q-106 0 -95 -131q-8 -3 -18.5 -5t-22.5 -2h-3q-28 0 -45 14t-17 39q0 24 28 45t79 42q42 17 81 31.5t81 14.5q31 0 56 -7
t42.5 -24t26.5 -44.5t9 -69.5l-4 -283q0 -23 4.5 -29t21.5 -6q4 0 10.5 0.5t14 1t14 1t9.5 0.5l3 -36l-34 -13q-26 -9 -49.5 -16.5t-40.5 -7.5q-55 0 -61 71q-12 -14 -25 -25.5t-27 -21.5q-21 -16 -44 -21t-44 -5zM258 47q21 0 42.5 12t24.5 37l4 204q-18 -13 -36 -23.5
t-34 -18.5q-42 -22 -67 -46t-26 -62q0 -23 7.5 -42t20.5 -32.5t30 -21t34 -7.5zM117 736h306v-67h-306v67z" />
    <glyph glyph-name="aogonek" unicode="&#x105;" horiz-adv-x="539" 
d="M194 -13q-30 0 -57.5 11t-48.5 30t-33.5 44t-12.5 54q0 28 11 50t33.5 40t56.5 33.5t79 30.5q32 11 62 27t45 36v15q0 60 -23.5 88t-61.5 28q-106 0 -95 -131q-8 -3 -18.5 -5t-22.5 -2h-3q-28 0 -45 14t-17 39q0 24 28 45t79 42q42 17 81 31.5t81 14.5q31 0 56 -7
t42.5 -24t26.5 -44.5t9 -69.5l-4 -283q0 -23 4.5 -29t21.5 -6q4 0 10.5 0.5t14 1t14 1t9.5 0.5l3 -36l-34 -13q-11 -4 -21.5 -8t-21.5 -6q-25 -25 -44 -58.5t-19 -65.5q0 -21 10 -34.5t27 -19.5t39 -5.5t46 6.5v-29q-17 -8 -45 -17.5t-57 -9.5q-21 0 -40 5.5t-34 16.5
t-23.5 26.5t-8.5 36.5q0 18 9.5 36t24 35.5t33 34.5t36.5 32h-1q-55 0 -61 71q-12 -14 -25 -25.5t-27 -21.5q-21 -16 -44 -21t-44 -5zM258 47q21 0 42.5 12t24.5 37l4 204q-18 -13 -36 -23.5t-34 -18.5q-42 -22 -67 -46t-26 -62q0 -23 7.5 -42t20.5 -32.5t30 -21t34 -7.5z
" />
    <glyph glyph-name="cacute" unicode="&#x107;" horiz-adv-x="513" 
d="M276 -13q-52 0 -95.5 19.5t-75.5 53.5t-50 80.5t-18 100.5q0 66 25.5 118t66.5 87.5t92.5 54t104.5 18.5q28 0 54 -5t46.5 -15t32.5 -25.5t12 -36.5q0 -28 -19.5 -46t-55.5 -16q-19 45 -46.5 69t-71.5 24q-27 0 -50.5 -11t-41 -32t-28 -52.5t-10.5 -72.5
q0 -44 13.5 -83.5t37.5 -69t57.5 -47t73.5 -17.5q39 0 73.5 10.5t67.5 31.5l21 -30l-34 -28q-41 -33 -87 -56.5t-95 -23.5zM370 788h136v-8l-227 -171h-17z" />
    <glyph glyph-name="ccaron" unicode="&#x10d;" horiz-adv-x="513" 
d="M276 -13q-52 0 -95.5 19.5t-75.5 53.5t-50 80.5t-18 100.5q0 66 25.5 118t66.5 87.5t92.5 54t104.5 18.5q28 0 54 -5t46.5 -15t32.5 -25.5t12 -36.5q0 -28 -19.5 -46t-55.5 -16q-19 45 -46.5 69t-71.5 24q-27 0 -50.5 -11t-41 -32t-28 -52.5t-10.5 -72.5
q0 -44 13.5 -83.5t37.5 -69t57.5 -47t73.5 -17.5q39 0 73.5 10.5t67.5 31.5l21 -30l-34 -28q-41 -33 -87 -56.5t-95 -23.5zM293 609l-161 195h19l148 -89l148 89h19l-161 -195h-12z" />
    <glyph glyph-name="ccircumflex" unicode="&#x109;" horiz-adv-x="513" 
d="M276 -13q-52 0 -95.5 19.5t-75.5 53.5t-50 80.5t-18 100.5q0 66 25.5 118t66.5 87.5t92.5 54t104.5 18.5q28 0 54 -5t46.5 -15t32.5 -25.5t12 -36.5q0 -28 -19.5 -46t-55.5 -16q-19 45 -46.5 69t-71.5 24q-27 0 -50.5 -11t-41 -32t-28 -52.5t-10.5 -72.5
q0 -44 13.5 -83.5t37.5 -69t57.5 -47t73.5 -17.5q39 0 73.5 10.5t67.5 31.5l21 -30l-34 -28q-41 -33 -87 -56.5t-95 -23.5zM466 609h-19l-148 89l-148 -89h-19l161 196h12z" />
    <glyph glyph-name="cdotaccent" unicode="&#x10b;" horiz-adv-x="513" 
d="M276 -13q-52 0 -95.5 19.5t-75.5 53.5t-50 80.5t-18 100.5q0 66 25.5 118t66.5 87.5t92.5 54t104.5 18.5q28 0 54 -5t46.5 -15t32.5 -25.5t12 -36.5q0 -28 -19.5 -46t-55.5 -16q-19 45 -46.5 69t-71.5 24q-27 0 -50.5 -11t-41 -32t-28 -52.5t-10.5 -72.5
q0 -44 13.5 -83.5t37.5 -69t57.5 -47t73.5 -17.5q39 0 73.5 10.5t67.5 31.5l21 -30l-34 -28q-41 -33 -87 -56.5t-95 -23.5zM299 641q-27 0 -45 18t-18 46t18 46t45 18t45.5 -18t18.5 -46t-18.5 -46t-45.5 -18z" />
    <glyph glyph-name="dcaron" unicode="&#x10f;" horiz-adv-x="668" 
d="M607 39q-47 -8 -94.5 -21.5t-93.5 -30.5l-2 69q-20 -15 -42.5 -29t-42.5 -25q-15 -8 -33 -11.5t-40 -3.5q-50 0 -91 19.5t-70 53.5t-45 78.5t-16 95.5q0 62 25.5 114.5t66 90t90.5 58.5t100 21q23 0 48 -3t46 -10v149q0 30 -3 40t-21 19l-72 35v6l216 79v-719
q0 -17 4 -26.5t21 -9.5l49 -1v-38zM325 54q25 -1 48 9t40 25v291q0 45 -32 71t-78 26q-25 0 -50 -11t-45.5 -34t-33 -59t-12.5 -86q0 -59 15 -102t39 -72t53 -43.5t56 -14.5zM656 840q22 0 41 -8.5t33 -23.5t22.5 -35t8.5 -44q0 -27 -12 -53t-33.5 -48.5t-50 -41.5
t-61.5 -33l-12 25q89 43 89 110q0 37 -24.5 56t-65.5 26q-2 32 15.5 51t49.5 19z" />
    <glyph glyph-name="dcroat" unicode="&#x111;" horiz-adv-x="630" 
d="M607 39q-47 -8 -94.5 -21.5t-93.5 -30.5l-2 69q-20 -15 -42.5 -29t-42.5 -25q-15 -8 -33 -11.5t-40 -3.5q-50 0 -91 19.5t-70 53.5t-45 78.5t-16 95.5q0 62 25.5 114.5t66 90t90.5 58.5t100 21q23 0 48 -3t46 -10v149q0 30 -3 40t-21 19l-72 35v6l216 79v-719
q0 -17 4 -26.5t21 -9.5l49 -1v-38zM325 54q25 -1 48 9t40 25v291q0 45 -32 71t-78 26q-25 0 -50 -11t-45.5 -34t-33 -59t-12.5 -86q0 -59 15 -102t39 -72t53 -43.5t56 -14.5zM296 638h311v-48h-311v48z" />
    <glyph glyph-name="ebreve" unicode="&#x115;" horiz-adv-x="538" 
d="M280 -13q-52 0 -96 19.5t-76.5 54.5t-50.5 84.5t-18 108.5q0 58 19 107t51.5 84.5t76 55.5t93.5 20q51 0 90.5 -17.5t67 -47.5t44 -69t22.5 -81h-352v-1q0 -49 13.5 -90t38.5 -71t59.5 -46.5t76.5 -16.5q45 0 80.5 20.5t60.5 44.5l25 -28l-32 -34q-41 -43 -89 -70
t-104 -27zM268 479q-52 0 -79.5 -37t-34.5 -92h220q-2 62 -30 95.5t-76 33.5zM282 628q-23 0 -49.5 6.5t-50 24.5t-41 49t-22.5 80h56q7 -56 36.5 -82.5t70.5 -26.5t70.5 26.5t36.5 82.5h56q-5 -49 -22.5 -80t-41 -49t-50 -24.5t-49.5 -6.5z" />
    <glyph glyph-name="ecaron" unicode="&#x11b;" horiz-adv-x="538" 
d="M280 -13q-52 0 -96 19.5t-76.5 54.5t-50.5 84.5t-18 108.5q0 58 19 107t51.5 84.5t76 55.5t93.5 20q51 0 90.5 -17.5t67 -47.5t44 -69t22.5 -81h-352v-1q0 -49 13.5 -90t38.5 -71t59.5 -46.5t76.5 -16.5q45 0 80.5 20.5t60.5 44.5l25 -28l-32 -34q-41 -43 -89 -70
t-104 -27zM268 479q-52 0 -79.5 -37t-34.5 -92h220q-2 62 -30 95.5t-76 33.5zM276 609l-161 195h19l148 -89l148 89h19l-161 -195h-12z" />
    <glyph glyph-name="emacron" unicode="&#x113;" horiz-adv-x="538" 
d="M280 -13q-52 0 -96 19.5t-76.5 54.5t-50.5 84.5t-18 108.5q0 58 19 107t51.5 84.5t76 55.5t93.5 20q51 0 90.5 -17.5t67 -47.5t44 -69t22.5 -81h-352v-1q0 -49 13.5 -90t38.5 -71t59.5 -46.5t76.5 -16.5q45 0 80.5 20.5t60.5 44.5l25 -28l-32 -34q-41 -43 -89 -70
t-104 -27zM268 479q-52 0 -79.5 -37t-34.5 -92h220q-2 62 -30 95.5t-76 33.5zM129 736h306v-67h-306v67z" />
    <glyph glyph-name="eogonek" unicode="&#x119;" horiz-adv-x="538" 
d="M397 -207q-17 -8 -45 -17.5t-57 -9.5q-21 0 -40 5.5t-34 16.5t-23.5 26.5t-8.5 36.5q0 17 9 35t24.5 35.5t35.5 34.5t41 32q-3 -1 -10 -1h-9q-52 0 -96 19.5t-76.5 54.5t-50.5 84.5t-18 108.5q0 58 19 107t51.5 84.5t76 55.5t93.5 20q51 0 90.5 -17.5t67 -47.5t44 -69
t22.5 -81h-352v-1q0 -49 13.5 -90t38.5 -71t59.5 -46.5t76.5 -16.5q45 0 80.5 20.5t60.5 44.5l25 -28l-32 -34q-30 -32 -58.5 -51t-55.5 -36q-36 -23 -60.5 -52t-24.5 -70q0 -21 10 -34.5t27.5 -19.5t39.5 -5.5t46 6.5v-29zM268 479q-52 0 -79.5 -37t-34.5 -92h220
q-2 62 -30 95.5t-76 33.5z" />
    <glyph glyph-name="edotaccent" unicode="&#x117;" horiz-adv-x="538" 
d="M280 -13q-52 0 -96 19.5t-76.5 54.5t-50.5 84.5t-18 108.5q0 58 19 107t51.5 84.5t76 55.5t93.5 20q51 0 90.5 -17.5t67 -47.5t44 -69t22.5 -81h-352v-1q0 -49 13.5 -90t38.5 -71t59.5 -46.5t76.5 -16.5q45 0 80.5 20.5t60.5 44.5l25 -28l-32 -34q-41 -43 -89 -70
t-104 -27zM268 479q-52 0 -79.5 -37t-34.5 -92h220q-2 62 -30 95.5t-76 33.5zM282 641q-27 0 -45 18t-18 46t18 46t45 18t45.5 -18t18.5 -46t-18.5 -46t-45.5 -18z" />
    <glyph glyph-name="gbreve" unicode="&#x11f;" horiz-adv-x="557" 
d="M255 173q-53 0 -96 17l-5 -71q-1 -9 0 -14.5t5 -8.5t13 -4t24 -1h116q108 0 163.5 -29.5t55.5 -102.5q0 -45 -24.5 -85.5t-65.5 -71.5t-94 -49t-111 -18q-50 0 -90.5 10.5t-69 29t-44 42.5t-15.5 51q0 20 9.5 38.5t29.5 30.5q25 14 49.5 28t53.5 30q-47 6 -73.5 25.5
t-26.5 46.5q0 15 9 30t21 32l48 70q-45 23 -69.5 60.5t-24.5 84.5q0 37 15.5 69t44 56t68 38t87.5 14q39 0 73 -8.5t60 -24.5l151 69v-80q0 -16 -7 -20.5t-26 -2.5l-84 8q22 -22 34 -50t12 -60q0 -36 -16 -68.5t-44.5 -57t-68.5 -39t-87 -14.5zM264 210q17 0 32.5 6
t27.5 19.5t19 35.5t7 54q0 30 -6.5 58.5t-19 50t-32 35t-44.5 13.5q-17 0 -32.5 -6t-27.5 -19.5t-19 -35t-7 -53.5q0 -30 6.5 -58.5t19.5 -50.5t32 -35.5t44 -13.5zM275 -215q31 0 59.5 8t50.5 23t35 37t13 50q0 47 -35 70t-112 23h-23q-35 0 -61 -9.5t-43.5 -24.5
t-26.5 -33t-9 -36q0 -24 12 -44t33 -34t48.5 -22t58.5 -8zM272 628q-23 0 -49.5 6.5t-50 24.5t-41 49t-22.5 80h56q7 -56 36.5 -82.5t70.5 -26.5t70.5 26.5t36.5 82.5h56q-5 -49 -22.5 -80t-41 -49t-50 -24.5t-49.5 -6.5z" />
    <glyph glyph-name="gcircumflex" unicode="&#x11d;" horiz-adv-x="557" 
d="M255 173q-53 0 -96 17l-5 -71q-1 -9 0 -14.5t5 -8.5t13 -4t24 -1h116q108 0 163.5 -29.5t55.5 -102.5q0 -45 -24.5 -85.5t-65.5 -71.5t-94 -49t-111 -18q-50 0 -90.5 10.5t-69 29t-44 42.5t-15.5 51q0 20 9.5 38.5t29.5 30.5q25 14 49.5 28t53.5 30q-47 6 -73.5 25.5
t-26.5 46.5q0 15 9 30t21 32l48 70q-45 23 -69.5 60.5t-24.5 84.5q0 37 15.5 69t44 56t68 38t87.5 14q39 0 73 -8.5t60 -24.5l151 69v-80q0 -16 -7 -20.5t-26 -2.5l-84 8q22 -22 34 -50t12 -60q0 -36 -16 -68.5t-44.5 -57t-68.5 -39t-87 -14.5zM264 210q17 0 32.5 6
t27.5 19.5t19 35.5t7 54q0 30 -6.5 58.5t-19 50t-32 35t-44.5 13.5q-17 0 -32.5 -6t-27.5 -19.5t-19 -35t-7 -53.5q0 -30 6.5 -58.5t19.5 -50.5t32 -35.5t44 -13.5zM275 -215q31 0 59.5 8t50.5 23t35 37t13 50q0 47 -35 70t-112 23h-23q-35 0 -61 -9.5t-43.5 -24.5
t-26.5 -33t-9 -36q0 -24 12 -44t33 -34t48.5 -22t58.5 -8zM439 609h-19l-148 89l-148 -89h-19l161 196h12z" />
    <glyph glyph-name="uni0123" unicode="&#x123;" horiz-adv-x="557" 
d="M255 173q-53 0 -96 17l-5 -71q-1 -9 0 -14.5t5 -8.5t13 -4t24 -1h116q108 0 163.5 -29.5t55.5 -102.5q0 -45 -24.5 -85.5t-65.5 -71.5t-94 -49t-111 -18q-50 0 -90.5 10.5t-69 29t-44 42.5t-15.5 51q0 20 9.5 38.5t29.5 30.5q25 14 49.5 28t53.5 30q-47 6 -73.5 25.5
t-26.5 46.5q0 15 9 30t21 32l48 70q-45 23 -69.5 60.5t-24.5 84.5q0 37 15.5 69t44 56t68 38t87.5 14q39 0 73 -8.5t60 -24.5l151 69v-80q0 -16 -7 -20.5t-26 -2.5l-84 8q22 -22 34 -50t12 -60q0 -36 -16 -68.5t-44.5 -57t-68.5 -39t-87 -14.5zM264 210q17 0 32.5 6
t27.5 19.5t19 35.5t7 54q0 30 -6.5 58.5t-19 50t-32 35t-44.5 13.5q-17 0 -32.5 -6t-27.5 -19.5t-19 -35t-7 -53.5q0 -30 6.5 -58.5t19.5 -50.5t32 -35.5t44 -13.5zM275 -215q31 0 59.5 8t50.5 23t35 37t13 50q0 47 -35 70t-112 23h-23q-35 0 -61 -9.5t-43.5 -24.5
t-26.5 -33t-9 -36q0 -24 12 -44t33 -34t48.5 -22t58.5 -8zM289 595q-22 0 -41 8.5t-33.5 23.5t-22.5 35t-8 44q0 27 12 53t33.5 48.5t50 41.5t61.5 33l12 -25q-89 -43 -89 -110q0 -37 24.5 -56t65.5 -26q2 -32 -15.5 -51t-49.5 -19z" />
    <glyph glyph-name="gdotaccent" unicode="&#x121;" horiz-adv-x="557" 
d="M255 173q-53 0 -96 17l-5 -71q-1 -9 0 -14.5t5 -8.5t13 -4t24 -1h116q108 0 163.5 -29.5t55.5 -102.5q0 -45 -24.5 -85.5t-65.5 -71.5t-94 -49t-111 -18q-50 0 -90.5 10.5t-69 29t-44 42.5t-15.5 51q0 20 9.5 38.5t29.5 30.5q25 14 49.5 28t53.5 30q-47 6 -73.5 25.5
t-26.5 46.5q0 15 9 30t21 32l48 70q-45 23 -69.5 60.5t-24.5 84.5q0 37 15.5 69t44 56t68 38t87.5 14q39 0 73 -8.5t60 -24.5l151 69v-80q0 -16 -7 -20.5t-26 -2.5l-84 8q22 -22 34 -50t12 -60q0 -36 -16 -68.5t-44.5 -57t-68.5 -39t-87 -14.5zM264 210q17 0 32.5 6
t27.5 19.5t19 35.5t7 54q0 30 -6.5 58.5t-19 50t-32 35t-44.5 13.5q-17 0 -32.5 -6t-27.5 -19.5t-19 -35t-7 -53.5q0 -30 6.5 -58.5t19.5 -50.5t32 -35.5t44 -13.5zM275 -215q31 0 59.5 8t50.5 23t35 37t13 50q0 47 -35 70t-112 23h-23q-35 0 -61 -9.5t-43.5 -24.5
t-26.5 -33t-9 -36q0 -24 12 -44t33 -34t48.5 -22t58.5 -8zM272 641q-27 0 -45 18t-18 46t18 46t45 18t45.5 -18t18.5 -46t-18.5 -46t-45.5 -18z" />
    <glyph glyph-name="hbar" unicode="&#x127;" horiz-adv-x="631" 
d="M343 40l38 3q20 2 25.5 10t5.5 25v210q0 86 -22.5 121t-75.5 35q-28 0 -54.5 -14t-40.5 -38v-314q0 -17 5 -25t25 -10l39 -3v-40h-266v40l46 3q20 2 25.5 10t5.5 25v576q0 15 -0.5 24.5t-2.5 15.5t-6.5 10t-13.5 9l-68 35v6l211 79v-394q20 14 43.5 29.5t40.5 26.5
q15 9 37.5 15.5t49.5 6.5q34 0 60.5 -8.5t44.5 -29t27.5 -54.5t9.5 -86v-261q0 -17 5.5 -25t25.5 -10l46 -3v-40h-266v40zM18 638h311v-48h-311v48z" />
    <glyph glyph-name="hcircumflex" unicode="&#x125;" horiz-adv-x="631" 
d="M343 40l38 3q20 2 25.5 10t5.5 25v210q0 86 -22.5 121t-75.5 35q-28 0 -54.5 -14t-40.5 -38v-314q0 -17 5 -25t25 -10l39 -3v-40h-266v40l46 3q20 2 25.5 10t5.5 25v576q0 15 -0.5 24.5t-2.5 15.5t-6.5 10t-13.5 9l-68 35v6l211 79v-394q20 14 43.5 29.5t40.5 26.5
q15 9 37.5 15.5t49.5 6.5q34 0 60.5 -8.5t44.5 -29t27.5 -54.5t9.5 -86v-261q0 -17 5.5 -25t25.5 -10l46 -3v-40h-266v40zM156 1012l165 -155h-23l-150 66l-150 -66h-23l165 155h16z" />
    <glyph glyph-name="dotlessi" unicode="&#x131;" horiz-adv-x="340" 
d="M238 78q0 -17 5.5 -25t25.5 -10l46 -3v-40h-274v40l46 3q20 2 25.5 10t5.5 25v270q0 15 -0.5 24t-2.5 15t-7 10t-14 9l-67 35v6l211 81v-450z" />
    <glyph glyph-name="ibreve" unicode="&#x12d;" horiz-adv-x="340" 
d="M238 78q0 -17 5.5 -25t25.5 -10l46 -3v-40h-274v40l46 3q20 2 25.5 10t5.5 25v270q0 15 -0.5 24t-2.5 15t-7 10t-14 9l-67 35v6l211 81v-450zM162 628q-23 0 -49.5 6.5t-50 24.5t-41 49t-22.5 80h56q7 -56 36.5 -82.5t70.5 -26.5t70.5 26.5t36.5 82.5h56
q-5 -49 -22.5 -80t-41 -49t-50 -24.5t-49.5 -6.5z" />
    <glyph glyph-name="imacron" unicode="&#x12b;" horiz-adv-x="340" 
d="M238 78q0 -17 5.5 -25t25.5 -10l46 -3v-40h-274v40l46 3q20 2 25.5 10t5.5 25v270q0 15 -0.5 24t-2.5 15t-7 10t-14 9l-67 35v6l211 81v-450zM9 736h306v-67h-306v67z" />
    <glyph glyph-name="iogonek" unicode="&#x12f;" horiz-adv-x="340" 
d="M238 78q0 -17 5.5 -25t25.5 -10l46 -3v-40h-274v40l46 3q20 2 25.5 10t5.5 25v270q0 15 -0.5 24t-2.5 15t-7 10t-14 9l-67 35v6l211 81v-450zM170 655q-33 0 -56 23t-23 56t23 56t56 23t56.5 -23t23.5 -56t-23.5 -56t-56.5 -23zM278 -207q-17 -8 -45 -17.5t-57 -9.5
q-21 0 -40 5.5t-34 16.5t-23.5 26.5t-8.5 36.5q0 19 11 39t28 39t37.5 37t40.5 34h39q-13 -12 -25.5 -27t-22.5 -31.5t-16 -33.5t-6 -33q0 -21 10 -34.5t27 -19.5t39 -5.5t46 6.5v-29z" />
    <glyph glyph-name="itilde" unicode="&#x129;" horiz-adv-x="340" 
d="M238 78q0 -17 5.5 -25t25.5 -10l46 -3v-40h-274v40l46 3q20 2 25.5 10t5.5 25v270q0 15 -0.5 24t-2.5 15t-7 10t-14 9l-67 35v6l211 81v-450zM-3 649q0 23 5.5 48t17.5 46t30 34.5t43 13.5q21 0 42 -10.5t41.5 -23.5t39 -23.5t35.5 -10.5q28 0 40.5 16t14.5 49h21
q0 -74 -25 -105.5t-63 -31.5q-25 0 -46.5 10.5t-41 22.5t-38.5 22.5t-39 10.5q-26 0 -40 -18t-16 -50h-21z" />
    <glyph glyph-name="uni1ECB" unicode="&#x1ecb;" horiz-adv-x="340" 
d="M238 78q0 -17 5.5 -25t25.5 -10l46 -3v-40h-274v40l46 3q20 2 25.5 10t5.5 25v270q0 15 -0.5 24t-2.5 15t-7 10t-14 9l-67 35v6l211 81v-450zM170 655q-33 0 -56 23t-23 56t23 56t56 23t56.5 -23t23.5 -56t-23.5 -56t-56.5 -23zM174 -232q-27 0 -45 18t-18 46t18 46
t45 18t45.5 -18t18.5 -46t-18.5 -46t-45.5 -18z" />
    <glyph glyph-name="uni0237" unicode="&#x237;" horiz-adv-x="307" 
d="M225 47q0 -39 -4.5 -67t-14 -50.5t-25.5 -41.5t-39 -38q-13 -11 -32 -25t-40 -29.5t-43.5 -31.5t-41.5 -29l-22 31q34 31 60.5 55t44.5 52.5t27.5 66.5t9.5 95v313q0 15 -0.5 24.5t-2.5 15.5t-6.5 10t-13.5 9l-67 35v6l210 81v-482z" />
    <glyph glyph-name="jcircumflex" unicode="&#x135;" horiz-adv-x="307" 
d="M225 47q0 -39 -4.5 -67t-14 -50.5t-25.5 -41.5t-39 -38q-13 -11 -32 -25t-40 -29.5t-43.5 -31.5t-41.5 -29l-22 31q34 31 60.5 55t44.5 52.5t27.5 66.5t9.5 95v313q0 15 -0.5 24.5t-2.5 15.5t-6.5 10t-13.5 9l-67 35v6l210 81v-482zM316 609h-19l-148 89l-148 -89h-19
l161 196h12z" />
    <glyph glyph-name="uni0137" unicode="&#x137;" horiz-adv-x="619" 
d="M518 84q19 -23 33.5 -30.5t43.5 -10.5l26 -3v-40h-188l-186 230l-28 1v-153q0 -17 5 -25t25 -10l46 -3v-40h-273v40l46 3q20 2 25.5 10t5.5 25v576q0 15 -0.5 24.5t-2.5 15.5t-6.5 10t-13.5 9l-68 35v6l211 79v-571q10 2 21 7t26 20l102 102q41 41 42.5 54.5t-32.5 15.5
l-24 1v40h228v-40l-19 -1q-35 -2 -62 -19t-64 -50l-104 -93zM318 -88q22 0 41 -8.5t33 -23.5t22.5 -35t8.5 -44q0 -27 -12 -53t-33.5 -48.5t-50 -41.5t-61.5 -33l-12 25q89 43 89 110q0 37 -24.5 56t-65.5 26q-2 32 15.5 51t49.5 19z" />
    <glyph glyph-name="lacute" unicode="&#x13a;" horiz-adv-x="326" 
d="M26 0v40l46 3q20 2 25.5 10t5.5 25v576q0 15 -0.5 24.5t-2.5 15.5t-6.5 10t-13.5 9l-68 35v6l211 79v-755q0 -17 5.5 -25t25.5 -10l46 -3v-40h-274zM234 1062h136v-8l-227 -171h-17z" />
    <glyph glyph-name="lcaron" unicode="&#x13e;" horiz-adv-x="363" 
d="M26 0v40l46 3q20 2 25.5 10t5.5 25v576q0 15 -0.5 24.5t-2.5 15.5t-6.5 10t-13.5 9l-68 35v6l211 79v-755q0 -17 5.5 -25t25.5 -10l46 -3v-40h-274zM346 840q22 0 41 -8.5t33 -23.5t22.5 -35t8.5 -44q0 -27 -12 -53t-33.5 -48.5t-50 -41.5t-61.5 -33l-12 25q89 43 89 110
q0 37 -24.5 56t-65.5 26q-2 32 15.5 51t49.5 19z" />
    <glyph glyph-name="uni013C" unicode="&#x13c;" horiz-adv-x="326" 
d="M26 0v40l46 3q20 2 25.5 10t5.5 25v576q0 15 -0.5 24.5t-2.5 15.5t-6.5 10t-13.5 9l-68 35v6l211 79v-755q0 -17 5.5 -25t25.5 -10l46 -3v-40h-274zM144 -88q22 0 41 -8.5t33 -23.5t22.5 -35t8.5 -44q0 -27 -12 -53t-33.5 -48.5t-50 -41.5t-61.5 -33l-12 25q89 43 89 110
q0 37 -24.5 56t-65.5 26q-2 32 15.5 51t49.5 19z" />
    <glyph glyph-name="ldot" unicode="&#x140;" horiz-adv-x="428" 
d="M26 0v40l46 3q20 2 25.5 10t5.5 25v576q0 15 -0.5 24.5t-2.5 15.5t-6.5 10t-13.5 9l-68 35v6l211 79v-755q0 -17 5.5 -25t25.5 -10l46 -3v-40h-274zM376 364q-27 0 -45 18t-18 46t18 46t45 18t45.5 -18t18.5 -46t-18.5 -46t-45.5 -18z" />
    <glyph glyph-name="glyph298" horiz-adv-x="428" 
d="M26 0v40l46 3q20 2 25.5 10t5.5 25v576q0 15 -0.5 24.5t-2.5 15.5t-6.5 10t-13.5 9l-68 35v6l211 79v-755q0 -17 5.5 -25t25.5 -10l46 -3v-40h-274zM376 364q-27 0 -45 18t-18 46t18 46t45 18t45.5 -18t18.5 -46t-18.5 -46t-45.5 -18z" />
    <glyph glyph-name="lslash" unicode="&#x142;" horiz-adv-x="377" 
d="M52 0v40l46 3q20 2 25.5 10t5.5 25v576q0 15 -0.5 24.5t-2.5 15.5t-6.5 10t-13.5 9l-68 35v6l211 79v-755q0 -17 5.5 -25t25.5 -10l46 -3v-40h-274zM21 354l334 174v-56l-334 -174v56z" />
    <glyph glyph-name="eng" unicode="&#x14b;" horiz-adv-x="620" 
d="M37 40l46 3q20 2 25.5 10t5.5 25v270q0 15 -0.5 24t-2.5 15t-7 10t-14 9l-67 35v6l211 81v-89q20 14 43.5 29.5t40.5 26.5q15 9 37 15.5t50 6.5q34 0 60 -8.5t44 -29t27 -54.5t9 -86v-292q0 -39 -4.5 -67t-14 -50.5t-25.5 -41.5t-39 -38q-13 -11 -32 -25t-40 -29.5
t-43.5 -31.5t-41.5 -29l-22 31q34 31 60.5 55t44.5 52.5t27.5 66.5t9.5 95v253q0 86 -21.5 121t-74.5 35q-29 0 -56.5 -13.5t-38.5 -36.5v-316q0 -17 5 -25t25 -10l39 -3v-40h-266v40z" />
    <glyph glyph-name="nacute" unicode="&#x144;" horiz-adv-x="644" 
d="M37 40l46 3q20 2 25.5 10t5.5 25v270q0 15 -0.5 24t-2.5 15t-7 10t-14 9l-67 35v6l211 81v-89q20 14 43.5 29.5t40.5 26.5q15 9 37 15.5t50 6.5q34 0 60 -8.5t44 -29t27 -54.5t9 -86v-261q0 -17 5.5 -25t25.5 -10l46 -3v-40h-266v40l38 3q20 2 25.5 10t5.5 25v210
q0 86 -21.5 121t-74.5 35q-28 0 -54.5 -14t-40.5 -38v-314q0 -17 5 -25t25 -10l39 -3v-40h-266v40zM413 788h136v-8l-227 -171h-17z" />
    <glyph glyph-name="ncaron" unicode="&#x148;" horiz-adv-x="644" 
d="M37 40l46 3q20 2 25.5 10t5.5 25v270q0 15 -0.5 24t-2.5 15t-7 10t-14 9l-67 35v6l211 81v-89q20 14 43.5 29.5t40.5 26.5q15 9 37 15.5t50 6.5q34 0 60 -8.5t44 -29t27 -54.5t9 -86v-261q0 -17 5.5 -25t25.5 -10l46 -3v-40h-266v40l38 3q20 2 25.5 10t5.5 25v210
q0 86 -21.5 121t-74.5 35q-28 0 -54.5 -14t-40.5 -38v-314q0 -17 5 -25t25 -10l39 -3v-40h-266v40zM336 609l-161 195h19l148 -89l148 89h19l-161 -195h-12z" />
    <glyph glyph-name="uni0146" unicode="&#x146;" horiz-adv-x="644" 
d="M37 40l46 3q20 2 25.5 10t5.5 25v270q0 15 -0.5 24t-2.5 15t-7 10t-14 9l-67 35v6l211 81v-89q20 14 43.5 29.5t40.5 26.5q15 9 37 15.5t50 6.5q34 0 60 -8.5t44 -29t27 -54.5t9 -86v-261q0 -17 5.5 -25t25.5 -10l46 -3v-40h-266v40l38 3q20 2 25.5 10t5.5 25v210
q0 86 -21.5 121t-74.5 35q-28 0 -54.5 -14t-40.5 -38v-314q0 -17 5 -25t25 -10l39 -3v-40h-266v40zM310 -88q22 0 41 -8.5t33 -23.5t22.5 -35t8.5 -44q0 -27 -12 -53t-33.5 -48.5t-50 -41.5t-61.5 -33l-12 25q89 43 89 110q0 37 -24.5 56t-65.5 26q-2 32 15.5 51t49.5 19z
" />
    <glyph glyph-name="oe" unicode="&#x153;" horiz-adv-x="932" 
d="M37 249q0 57 20.5 106.5t56.5 86t84.5 58t104.5 21.5q65 0 112 -24.5t76 -66.5q32 43 79.5 67t102.5 24q51 0 90 -17.5t66.5 -47.5t43.5 -69t21 -81h-349q0 -49 13.5 -90.5t38 -71.5t59.5 -46.5t77 -16.5q45 0 80.5 20.5t60.5 44.5l25 -28l-32 -34q-41 -43 -89 -70
t-104 -27q-60 0 -108 24.5t-80 69.5q-32 -44 -79.5 -69t-107.5 -25t-108 21t-82.5 57t-53 83.5t-18.5 100.5zM662 479q-52 0 -80 -37.5t-34 -93.5h220q-2 62 -30 96.5t-76 34.5zM166 304q0 -44 9 -91.5t28 -87t48 -65.5t69 -26q23 0 44 9.5t36.5 30.5t25 53.5t9.5 77.5
q0 43 -9 90.5t-28 87.5t-48 65.5t-69 25.5q-23 0 -44 -9.5t-37 -30t-25 -53t-9 -77.5z" />
    <glyph glyph-name="obreve" unicode="&#x14f;" horiz-adv-x="601" 
d="M303 521q59 0 107.5 -21t82.5 -56.5t52.5 -83t18.5 -100.5q0 -57 -20.5 -106.5t-56.5 -86.5t-84.5 -58.5t-103.5 -21.5q-60 0 -108 21t-82.5 57t-53 83.5t-18.5 100.5q0 57 20.5 106.5t56.5 86t84.5 58t104.5 21.5zM281 474q-23 0 -44 -9.5t-37 -30t-25 -53t-9 -77.5
q0 -44 9 -91.5t28 -87t48 -65.5t69 -26q23 0 44 9.5t36.5 30.5t25 53.5t9.5 77.5q0 43 -9 90.5t-28 87.5t-48 65.5t-69 25.5zM300 628q-23 0 -49.5 6.5t-50 24.5t-41 49t-22.5 80h56q7 -56 36.5 -82.5t70.5 -26.5t70.5 26.5t36.5 82.5h56q-5 -49 -22.5 -80t-41 -49
t-50 -24.5t-49.5 -6.5z" />
    <glyph glyph-name="ohungarumlaut" unicode="&#x151;" horiz-adv-x="601" 
d="M303 521q59 0 107.5 -21t82.5 -56.5t52.5 -83t18.5 -100.5q0 -57 -20.5 -106.5t-56.5 -86.5t-84.5 -58.5t-103.5 -21.5q-60 0 -108 21t-82.5 57t-53 83.5t-18.5 100.5q0 57 20.5 106.5t56.5 86t84.5 58t104.5 21.5zM281 474q-23 0 -44 -9.5t-37 -30t-25 -53t-9 -77.5
q0 -44 9 -91.5t28 -87t48 -65.5t69 -26q23 0 44 9.5t36.5 30.5t25 53.5t9.5 77.5q0 43 -9 90.5t-28 87.5t-48 65.5t-69 25.5zM492 788h136v-8l-227 -171h-17zM312 788h137v-8l-227 -171h-18z" />
    <glyph glyph-name="omacron" unicode="&#x14d;" horiz-adv-x="601" 
d="M303 521q59 0 107.5 -21t82.5 -56.5t52.5 -83t18.5 -100.5q0 -57 -20.5 -106.5t-56.5 -86.5t-84.5 -58.5t-103.5 -21.5q-60 0 -108 21t-82.5 57t-53 83.5t-18.5 100.5q0 57 20.5 106.5t56.5 86t84.5 58t104.5 21.5zM281 474q-23 0 -44 -9.5t-37 -30t-25 -53t-9 -77.5
q0 -44 9 -91.5t28 -87t48 -65.5t69 -26q23 0 44 9.5t36.5 30.5t25 53.5t9.5 77.5q0 43 -9 90.5t-28 87.5t-48 65.5t-69 25.5zM147 736h306v-67h-306v67z" />
    <glyph glyph-name="uni1ECD" unicode="&#x1ecd;" horiz-adv-x="601" 
d="M303 521q59 0 107.5 -21t82.5 -56.5t52.5 -83t18.5 -100.5q0 -57 -20.5 -106.5t-56.5 -86.5t-84.5 -58.5t-103.5 -21.5q-60 0 -108 21t-82.5 57t-53 83.5t-18.5 100.5q0 57 20.5 106.5t56.5 86t84.5 58t104.5 21.5zM281 474q-23 0 -44 -9.5t-37 -30t-25 -53t-9 -77.5
q0 -44 9 -91.5t28 -87t48 -65.5t69 -26q23 0 44 9.5t36.5 30.5t25 53.5t9.5 77.5q0 43 -9 90.5t-28 87.5t-48 65.5t-69 25.5zM314 -232q-27 0 -45 18t-18 46t18 46t45 18t45.5 -18t18.5 -46t-18.5 -46t-45.5 -18z" />
    <glyph glyph-name="racute" unicode="&#x155;" horiz-adv-x="451" 
d="M234 417q9 11 22 26t18 20q23 26 48 40.5t49 14.5q29 0 49 -17.5t20 -49.5q0 -30 -15.5 -48t-40.5 -23q-24 12 -48.5 24t-41.5 12q-14 0 -30 -7t-30 -22v-306q0 -17 5 -25.5t25 -9.5l72 -3v-43h-299v40l46 3q20 2 25.5 10t5.5 25v270q0 15 -0.5 24t-2.5 15t-7 10t-14 9
l-67 35v6l211 81v-111zM354 788h136v-8l-227 -171h-17z" />
    <glyph glyph-name="rcaron" unicode="&#x159;" horiz-adv-x="451" 
d="M234 417q9 11 22 26t18 20q23 26 48 40.5t49 14.5q29 0 49 -17.5t20 -49.5q0 -30 -15.5 -48t-40.5 -23q-24 12 -48.5 24t-41.5 12q-14 0 -30 -7t-30 -22v-306q0 -17 5 -25.5t25 -9.5l72 -3v-43h-299v40l46 3q20 2 25.5 10t5.5 25v270q0 15 -0.5 24t-2.5 15t-7 10t-14 9
l-67 35v6l211 81v-111zM277 609l-161 195h19l148 -89l148 89h19l-161 -195h-12z" />
    <glyph glyph-name="uni0157" unicode="&#x157;" horiz-adv-x="451" 
d="M234 417q9 11 22 26t18 20q23 26 48 40.5t49 14.5q29 0 49 -17.5t20 -49.5q0 -30 -15.5 -48t-40.5 -23q-24 12 -48.5 24t-41.5 12q-14 0 -30 -7t-30 -22v-306q0 -17 5 -25.5t25 -9.5l72 -3v-43h-299v40l46 3q20 2 25.5 10t5.5 25v270q0 15 -0.5 24t-2.5 15t-7 10t-14 9
l-67 35v6l211 81v-111zM163 -88q22 0 41 -8.5t33 -23.5t22.5 -35t8.5 -44q0 -27 -12 -53t-33.5 -48.5t-50 -41.5t-61.5 -33l-12 25q89 43 89 110q0 37 -24.5 56t-65.5 26q-2 32 15.5 51t49.5 19z" />
    <glyph glyph-name="sacute" unicode="&#x15b;" horiz-adv-x="453" 
d="M205 -13q-45 0 -80 9t-61 22l-16 150l41 6l23 -57q11 -27 24.5 -44t27.5 -26.5t29.5 -12.5t30.5 -3q37 0 58 19.5t21 55.5q0 55 -82 89l-46 19q-52 21 -86.5 57t-34.5 97q0 36 16.5 64t43.5 47t62 28.5t73 9.5q35 0 64.5 -5.5t55.5 -14.5l22 -137l-41 -6l-23 44
q-20 39 -40.5 57t-53.5 18t-57 -17.5t-24 -49.5q0 -30 18 -49t50 -33l45 -19q37 -16 64 -31t44.5 -33.5t26 -41.5t8.5 -54q0 -38 -16 -67t-43.5 -49.5t-64.5 -31t-79 -10.5zM313 788h136v-8l-227 -171h-17z" />
    <glyph glyph-name="scaron" unicode="&#x161;" horiz-adv-x="453" 
d="M205 -13q-45 0 -80 9t-61 22l-16 150l41 6l23 -57q11 -27 24.5 -44t27.5 -26.5t29.5 -12.5t30.5 -3q37 0 58 19.5t21 55.5q0 55 -82 89l-46 19q-52 21 -86.5 57t-34.5 97q0 36 16.5 64t43.5 47t62 28.5t73 9.5q35 0 64.5 -5.5t55.5 -14.5l22 -137l-41 -6l-23 44
q-20 39 -40.5 57t-53.5 18t-57 -17.5t-24 -49.5q0 -30 18 -49t50 -33l45 -19q37 -16 64 -31t44.5 -33.5t26 -41.5t8.5 -54q0 -38 -16 -67t-43.5 -49.5t-64.5 -31t-79 -10.5zM236 609l-161 195h19l148 -89l148 89h19l-161 -195h-12z" />
    <glyph glyph-name="scedilla" unicode="&#x15f;" horiz-adv-x="453" 
d="M205 -13q-45 0 -80 9t-61 22l-16 150l41 6l23 -57q11 -27 24.5 -44t27.5 -26.5t29.5 -12.5t30.5 -3q37 0 58 19.5t21 55.5q0 55 -82 89l-46 19q-52 21 -86.5 57t-34.5 97q0 36 16.5 64t43.5 47t62 28.5t73 9.5q35 0 64.5 -5.5t55.5 -14.5l22 -137l-41 -6l-23 44
q-20 39 -40.5 57t-53.5 18t-57 -17.5t-24 -49.5q0 -30 18 -49t50 -33l45 -19q37 -16 64 -31t44.5 -33.5t26 -41.5t8.5 -54q0 -38 -16 -67t-43.5 -49.5t-64.5 -31t-79 -10.5zM168 -265q-15 0 -30.5 3t-28 9t-20.5 15.5t-8 22.5q0 15 13.5 27t39.5 7q0 -26 17.5 -40t40.5 -14
q18 0 29.5 9t11.5 22q0 20 -33.5 40t-83.5 42l119 127h41l-76 -81q44 -22 64.5 -43t20.5 -53q0 -17 -8 -33.5t-23 -29.5t-37 -21.5t-49 -8.5z" />
    <glyph glyph-name="scircumflex" unicode="&#x15d;" horiz-adv-x="453" 
d="M205 -13q-45 0 -80 9t-61 22l-16 150l41 6l23 -57q11 -27 24.5 -44t27.5 -26.5t29.5 -12.5t30.5 -3q37 0 58 19.5t21 55.5q0 55 -82 89l-46 19q-52 21 -86.5 57t-34.5 97q0 36 16.5 64t43.5 47t62 28.5t73 9.5q35 0 64.5 -5.5t55.5 -14.5l22 -137l-41 -6l-23 44
q-20 39 -40.5 57t-53.5 18t-57 -17.5t-24 -49.5q0 -30 18 -49t50 -33l45 -19q37 -16 64 -31t44.5 -33.5t26 -41.5t8.5 -54q0 -38 -16 -67t-43.5 -49.5t-64.5 -31t-79 -10.5zM409 609h-19l-148 89l-148 -89h-19l161 196h12z" />
    <glyph glyph-name="uni0219" unicode="&#x219;" horiz-adv-x="453" 
d="M205 -13q-45 0 -80 9t-61 22l-16 150l41 6l23 -57q11 -27 24.5 -44t27.5 -26.5t29.5 -12.5t30.5 -3q37 0 58 19.5t21 55.5q0 55 -82 89l-46 19q-52 21 -86.5 57t-34.5 97q0 36 16.5 64t43.5 47t62 28.5t73 9.5q35 0 64.5 -5.5t55.5 -14.5l22 -137l-41 -6l-23 44
q-20 39 -40.5 57t-53.5 18t-57 -17.5t-24 -49.5q0 -30 18 -49t50 -33l45 -19q37 -16 64 -31t44.5 -33.5t26 -41.5t8.5 -54q0 -38 -16 -67t-43.5 -49.5t-64.5 -31t-79 -10.5zM220 -88q22 0 41 -8.5t33 -23.5t22.5 -35t8.5 -44q0 -27 -12 -53t-33.5 -48.5t-50 -41.5t-61.5 -33
l-12 25q89 43 89 110q0 37 -24.5 56t-65.5 26q-2 32 15.5 51t49.5 19z" />
    <glyph glyph-name="tbar" unicode="&#x167;" horiz-adv-x="446" 
d="M240 -13q-23 0 -44 5.5t-36.5 19t-24.5 36.5t-9 58v332h-102v3l219 194h3v-133h149v-64h-149v-296q0 -39 13 -57t42 -18q20 0 38.5 9t45.5 27l21 -32l-51 -37q-27 -20 -56.5 -33.5t-58.5 -13.5zM34 352h362v-48h-362v48z" />
    <glyph glyph-name="tcaron" unicode="&#x165;" horiz-adv-x="397" 
d="M216 -13q-23 0 -44 5.5t-36.5 19t-24.5 36.5t-9 58v332h-102v3l219 194h3v-133h149v-64h-149v-296q0 -39 13 -57t42 -18q20 0 38.5 9t45.5 27l21 -32l-51 -37q-27 -20 -56.5 -33.5t-58.5 -13.5zM338 840q22 0 41 -8.5t33 -23.5t22.5 -35t8.5 -44q0 -27 -12 -53
t-33.5 -48.5t-50 -41.5t-61.5 -33l-12 25q89 43 89 110q0 37 -24.5 56t-65.5 26q-2 32 15.5 51t49.5 19z" />
    <glyph glyph-name="uni0163" unicode="&#x163;" horiz-adv-x="397" 
d="M216 -13q-23 0 -44 5.5t-36.5 19t-24.5 36.5t-9 58v332h-102v3l219 194h3v-133h149v-64h-149v-296q0 -39 13 -57t42 -18q20 0 38.5 9t45.5 27l21 -32l-51 -37q-27 -20 -56.5 -33.5t-58.5 -13.5zM177 -88q22 0 41 -8.5t33 -23.5t22.5 -35t8.5 -44q0 -27 -12 -53
t-33.5 -48.5t-50 -41.5t-61.5 -33l-12 25q89 43 89 110q0 37 -24.5 56t-65.5 26q-2 32 15.5 51t49.5 19z" />
    <glyph glyph-name="uni021B" unicode="&#x21b;" horiz-adv-x="397" 
d="M216 -13q-23 0 -44 5.5t-36.5 19t-24.5 36.5t-9 58v332h-102v3l219 194h3v-133h149v-64h-149v-296q0 -39 13 -57t42 -18q20 0 38.5 9t45.5 27l21 -32l-51 -37q-27 -20 -56.5 -33.5t-58.5 -13.5zM177 -88q22 0 41 -8.5t33 -23.5t22.5 -35t8.5 -44q0 -27 -12 -53
t-33.5 -48.5t-50 -41.5t-61.5 -33l-12 25q89 43 89 110q0 37 -24.5 56t-65.5 26q-2 32 15.5 51t49.5 19z" />
    <glyph glyph-name="ubreve" unicode="&#x16d;" horiz-adv-x="612" 
d="M397 65q-19 -14 -39 -26.5t-34 -21.5q-20 -12 -45 -21t-54 -9q-32 0 -56 7t-40 26t-24 52.5t-8 86.5v235q0 23 -7.5 30.5t-33.5 9.5l-34 3v37l195 34v-316q0 -38 4 -63.5t13 -41t25 -22t40 -6.5q30 0 54.5 12.5t41.5 30.5v292q0 23 -7.5 30.5t-33.5 9.5l-34 3v37l195 34
v-394q0 -17 4 -26.5t21 -9.5l49 -1v-38q-47 -8 -96.5 -21.5t-95.5 -30.5v78zM307 628q-23 0 -49.5 6.5t-50 24.5t-41 49t-22.5 80h56q7 -56 36.5 -82.5t70.5 -26.5t70.5 26.5t36.5 82.5h56q-5 -49 -22.5 -80t-41 -49t-50 -24.5t-49.5 -6.5z" />
    <glyph glyph-name="uhungarumlaut" unicode="&#x171;" horiz-adv-x="612" 
d="M397 65q-19 -14 -39 -26.5t-34 -21.5q-20 -12 -45 -21t-54 -9q-32 0 -56 7t-40 26t-24 52.5t-8 86.5v235q0 23 -7.5 30.5t-33.5 9.5l-34 3v37l195 34v-316q0 -38 4 -63.5t13 -41t25 -22t40 -6.5q30 0 54.5 12.5t41.5 30.5v292q0 23 -7.5 30.5t-33.5 9.5l-34 3v37l195 34
v-394q0 -17 4 -26.5t21 -9.5l49 -1v-38q-47 -8 -96.5 -21.5t-95.5 -30.5v78zM498 788h136v-8l-227 -171h-17zM318 788h137v-8l-227 -171h-18z" />
    <glyph glyph-name="umacron" unicode="&#x16b;" horiz-adv-x="612" 
d="M397 65q-19 -14 -39 -26.5t-34 -21.5q-20 -12 -45 -21t-54 -9q-32 0 -56 7t-40 26t-24 52.5t-8 86.5v235q0 23 -7.5 30.5t-33.5 9.5l-34 3v37l195 34v-316q0 -38 4 -63.5t13 -41t25 -22t40 -6.5q30 0 54.5 12.5t41.5 30.5v292q0 23 -7.5 30.5t-33.5 9.5l-34 3v37l195 34
v-394q0 -17 4 -26.5t21 -9.5l49 -1v-38q-47 -8 -96.5 -21.5t-95.5 -30.5v78zM154 736h306v-67h-306v67z" />
    <glyph glyph-name="uogonek" unicode="&#x173;" horiz-adv-x="612" 
d="M491 -205q-17 -8 -45 -17.5t-57 -9.5q-21 0 -40 5.5t-34 16.5t-23.5 26.5t-8.5 36.5q0 19 10.5 38.5t27 38t36.5 36.5t40 34v65q-19 -14 -39 -26.5t-34 -21.5q-20 -12 -45 -21t-54 -9q-32 0 -56 7t-40 26t-24 52.5t-8 86.5v235q0 23 -7.5 30.5t-33.5 9.5l-34 3v37l195 34
v-316q0 -38 4 -63.5t13 -41t25 -22t40 -6.5q30 0 54.5 12.5t41.5 30.5v292q0 23 -7.5 30.5t-33.5 9.5l-34 3v37l195 34v-394q0 -17 4 -26.5t21 -9.5l49 -1v-38q-37 -6 -76.5 -16t-77.5 -23q-25 -23 -45.5 -56t-20.5 -67q0 -21 10 -34t27 -19t39 -5.5t46 6.5v-30z" />
    <glyph glyph-name="uring" unicode="&#x16f;" horiz-adv-x="612" 
d="M397 65q-19 -14 -39 -26.5t-34 -21.5q-20 -12 -45 -21t-54 -9q-32 0 -56 7t-40 26t-24 52.5t-8 86.5v235q0 23 -7.5 30.5t-33.5 9.5l-34 3v37l195 34v-316q0 -38 4 -63.5t13 -41t25 -22t40 -6.5q30 0 54.5 12.5t41.5 30.5v292q0 23 -7.5 30.5t-33.5 9.5l-34 3v37l195 34
v-394q0 -17 4 -26.5t21 -9.5l49 -1v-38q-47 -8 -96.5 -21.5t-95.5 -30.5v78zM183 705q0 25 10 47t26.5 38.5t39 26t48.5 9.5q27 0 50 -9.5t40 -26t26.5 -38.5t9.5 -47t-9.5 -46.5t-26.5 -37.5t-40 -25.5t-50 -9.5q-26 0 -48.5 9.5t-39 25.5t-26.5 37.5t-10 46.5zM375 705
q0 32 -18 50t-50 18q-31 0 -48.5 -18t-17.5 -50q0 -31 17.5 -49.5t48.5 -18.5q32 0 50 18.5t18 49.5z" />
    <glyph glyph-name="utilde" unicode="&#x169;" horiz-adv-x="612" 
d="M397 65q-19 -14 -39 -26.5t-34 -21.5q-20 -12 -45 -21t-54 -9q-32 0 -56 7t-40 26t-24 52.5t-8 86.5v235q0 23 -7.5 30.5t-33.5 9.5l-34 3v37l195 34v-316q0 -38 4 -63.5t13 -41t25 -22t40 -6.5q30 0 54.5 12.5t41.5 30.5v292q0 23 -7.5 30.5t-33.5 9.5l-34 3v37l195 34
v-394q0 -17 4 -26.5t21 -9.5l49 -1v-38q-47 -8 -96.5 -21.5t-95.5 -30.5v78zM142 649q0 23 5.5 48t17.5 46t30 34.5t43 13.5q21 0 42 -10.5t41.5 -23.5t39 -23.5t35.5 -10.5q28 0 40.5 16t14.5 49h21q0 -74 -25 -105.5t-63 -31.5q-25 0 -46.5 10.5t-41 22.5t-38.5 22.5
t-39 10.5q-26 0 -40 -18t-16 -50h-21z" />
    <glyph glyph-name="uni1EE5" unicode="&#x1ee5;" horiz-adv-x="612" 
d="M397 65q-19 -14 -39 -26.5t-34 -21.5q-20 -12 -45 -21t-54 -9q-32 0 -56 7t-40 26t-24 52.5t-8 86.5v235q0 23 -7.5 30.5t-33.5 9.5l-34 3v37l195 34v-316q0 -38 4 -63.5t13 -41t25 -22t40 -6.5q30 0 54.5 12.5t41.5 30.5v292q0 23 -7.5 30.5t-33.5 9.5l-34 3v37l195 34
v-394q0 -17 4 -26.5t21 -9.5l49 -1v-38q-47 -8 -96.5 -21.5t-95.5 -30.5v78zM305 -232q-27 0 -45 18t-18 46t18 46t45 18t45.5 -18t18.5 -46t-18.5 -46t-45.5 -18z" />
    <glyph glyph-name="wacute" unicode="&#x1e83;" horiz-adv-x="856" 
d="M69 434q-6 16 -15 20.5t-36 6.5l-15 1v40h270v-40l-13 -1q-40 -3 -51 -8t-5 -24l99 -312l103 243l-58 142h223v-40l-14 -1q-40 -3 -51.5 -8.5t-3.5 -23.5l123 -304l77 263q7 23 8.5 36.5t-2.5 21t-14.5 10t-27.5 4.5l-22 2v40h214v-40l-11 -1q-20 -2 -32.5 -4.5t-22 -9.5
t-17 -21t-15.5 -39l-133 -392h-73l-125 307l-125 -307h-78zM501 788h136v-8l-227 -171h-17z" />
    <glyph glyph-name="wcircumflex" unicode="&#x175;" horiz-adv-x="856" 
d="M69 434q-6 16 -15 20.5t-36 6.5l-15 1v40h270v-40l-13 -1q-40 -3 -51 -8t-5 -24l99 -312l103 243l-58 142h223v-40l-14 -1q-40 -3 -51.5 -8.5t-3.5 -23.5l123 -304l77 263q7 23 8.5 36.5t-2.5 21t-14.5 10t-27.5 4.5l-22 2v40h214v-40l-11 -1q-20 -2 -32.5 -4.5t-22 -9.5
t-17 -21t-15.5 -39l-133 -392h-73l-125 307l-125 -307h-78zM597 609h-19l-148 89l-148 -89h-19l161 196h12z" />
    <glyph glyph-name="wdieresis" unicode="&#x1e85;" horiz-adv-x="856" 
d="M69 434q-6 16 -15 20.5t-36 6.5l-15 1v40h270v-40l-13 -1q-40 -3 -51 -8t-5 -24l99 -312l103 243l-58 142h223v-40l-14 -1q-40 -3 -51.5 -8.5t-3.5 -23.5l123 -304l77 263q7 23 8.5 36.5t-2.5 21t-14.5 10t-27.5 4.5l-22 2v40h214v-40l-11 -1q-20 -2 -32.5 -4.5t-22 -9.5
t-17 -21t-15.5 -39l-133 -392h-73l-125 307l-125 -307h-78zM315 649q-27 0 -45 18.5t-18 46.5t18 46t45 18t45 -18t18 -46t-18 -46.5t-45 -18.5zM545 649q-27 0 -45 18.5t-18 46.5t18 46t45 18t45 -18t18 -46t-18 -46.5t-45 -18.5z" />
    <glyph glyph-name="wgrave" unicode="&#x1e81;" horiz-adv-x="856" 
d="M69 434q-6 16 -15 20.5t-36 6.5l-15 1v40h270v-40l-13 -1q-40 -3 -51 -8t-5 -24l99 -312l103 243l-58 142h223v-40l-14 -1q-40 -3 -51.5 -8.5t-3.5 -23.5l123 -304l77 263q7 23 8.5 36.5t-2.5 21t-14.5 10t-27.5 4.5l-22 2v40h214v-40l-11 -1q-20 -2 -32.5 -4.5t-22 -9.5
t-17 -21t-15.5 -39l-133 -392h-73l-125 307l-125 -307h-78zM449 609l-227 171v8h137l108 -179h-18z" />
    <glyph glyph-name="ycircumflex" unicode="&#x177;" horiz-adv-x="573" 
d="M149 -267q-30 0 -45.5 19t-15.5 42t15 38q8 3 22.5 8t30.5 11t29.5 11.5t19.5 8.5q12 8 20 18t16 28l19 47l-191 470q-7 16 -16 20.5t-36 6.5l-15 1v40h271v-40l-14 -1q-38 -3 -50 -9t-4 -26l117 -307l98 269q8 21 10.5 34.5t-1.5 21t-15 11t-30 5.5l-21 2v40h214v-40
l-13 -2q-18 -3 -29.5 -5t-20.5 -9t-17 -20.5t-18 -38.5l-193 -488q-20 -50 -37.5 -82t-34 -50.5t-32.5 -26t-33 -7.5zM473 609h-19l-148 89l-148 -89h-19l161 196h12z" />
    <glyph glyph-name="ygrave" unicode="&#x1ef3;" horiz-adv-x="573" 
d="M149 -267q-30 0 -45.5 19t-15.5 42t15 38q8 3 22.5 8t30.5 11t29.5 11.5t19.5 8.5q12 8 20 18t16 28l19 47l-191 470q-7 16 -16 20.5t-36 6.5l-15 1v40h271v-40l-14 -1q-38 -3 -50 -9t-4 -26l117 -307l98 269q8 21 10.5 34.5t-1.5 21t-15 11t-30 5.5l-21 2v40h214v-40
l-13 -2q-18 -3 -29.5 -5t-20.5 -9t-17 -20.5t-18 -38.5l-193 -488q-20 -50 -37.5 -82t-34 -50.5t-32.5 -26t-33 -7.5zM325 609l-227 171v8h137l108 -179h-18z" />
    <glyph glyph-name="uni0233" unicode="&#x233;" horiz-adv-x="573" 
d="M149 -267q-30 0 -45.5 19t-15.5 42t15 38q8 3 22.5 8t30.5 11t29.5 11.5t19.5 8.5q12 8 20 18t16 28l19 47l-191 470q-7 16 -16 20.5t-36 6.5l-15 1v40h271v-40l-14 -1q-38 -3 -50 -9t-4 -26l117 -307l98 269q8 21 10.5 34.5t-1.5 21t-15 11t-30 5.5l-21 2v40h214v-40
l-13 -2q-18 -3 -29.5 -5t-20.5 -9t-17 -20.5t-18 -38.5l-193 -488q-20 -50 -37.5 -82t-34 -50.5t-32.5 -26t-33 -7.5zM153 736h306v-67h-306v67z" />
    <glyph glyph-name="zacute" unicode="&#x17a;" horiz-adv-x="520" 
d="M319 455h-54q-43 0 -69.5 -1.5t-43.5 -8.5t-28.5 -20t-23.5 -37l-25 -48h-40l44 182h11q26 -14 53 -17t69 -3h263l-291 -455h66q43 0 71.5 1.5t48 8t32.5 19.5t25 36l30 58h41l-49 -170h-422zM364 788h136v-8l-227 -171h-17z" />
    <glyph glyph-name="zcaron" unicode="&#x17e;" horiz-adv-x="520" 
d="M319 455h-54q-43 0 -69.5 -1.5t-43.5 -8.5t-28.5 -20t-23.5 -37l-25 -48h-40l44 182h11q26 -14 53 -17t69 -3h263l-291 -455h66q43 0 71.5 1.5t48 8t32.5 19.5t25 36l30 58h41l-49 -170h-422zM287 609l-161 195h19l148 -89l148 89h19l-161 -195h-12z" />
    <glyph glyph-name="zdotaccent" unicode="&#x17c;" horiz-adv-x="520" 
d="M319 455h-54q-43 0 -69.5 -1.5t-43.5 -8.5t-28.5 -20t-23.5 -37l-25 -48h-40l44 182h11q26 -14 53 -17t69 -3h263l-291 -455h66q43 0 71.5 1.5t48 8t32.5 19.5t25 36l30 58h41l-49 -170h-422zM293 641q-27 0 -45 18t-18 46t18 46t45 18t45.5 -18t18.5 -46t-18.5 -46
t-45.5 -18z" />
    <glyph glyph-name="uni0259" unicode="&#x259;" horiz-adv-x="536" 
d="M256.984 521.968q51.9971 0 95.9941 -19.498q43.9971 -19.499 76.4951 -54.4971t50.4971 -84.4951t17.999 -108.493q0 -57.9961 -18.999 -106.993t-51.4971 -84.4951t-75.9951 -55.4961q-43.4971 -19.999 -93.4941 -19.999q-50.9971 0 -90.4941 17.499
q-39.498 17.499 -66.9961 47.4971q-27.499 29.998 -43.998 68.9951q-16.498 38.998 -22.498 80.9951h351.979v1q0 48.9971 -13.499 89.9951q-13.499 40.9971 -38.498 70.9951q-24.998 29.998 -59.4961 46.4971t-76.4951 16.499q-44.998 0 -80.4951 -20.498
q-35.498 -20.499 -60.4971 -44.498l-24.998 27.999l31.998 33.9971q40.9971 42.998 88.9941 69.9961t103.994 26.998zM268.983 29.998q51.9971 0 79.4951 36.998t34.498 91.9941h-219.986q2 -61.9961 29.998 -95.4941t75.9951 -33.498z" />
    <glyph glyph-name="uni0410" unicode="&#x410;" horiz-adv-x="762" 
d="M-14 41l25 3q20 2 33 7.5t24.5 21.5t24.5 46.5t34 84.5l216 564h75l261 -676q10 -27 21.5 -36.5t38.5 -11.5l36 -3v-41h-317v41l48 3q29 2 36.5 11.5t-4.5 40.5l-64 169h-259l-23 -61q-18 -50 -27 -80t-8 -47t12 -23.5t32 -8.5l40 -4v-41h-255v41zM451 325l-108 283
l-106 -283h214z" />
    <glyph glyph-name="uni0411" unicode="&#x411;" horiz-adv-x="722" 
d="M615 760l10 -193h-40l-17 51q-10 31 -22.5 49t-36 27t-62 11.5t-99.5 2.5h-56q-20 0 -20 -20v-252h96q67 0 125 -14.5t100.5 -41.5t66.5 -66t24 -87q0 -55 -23.5 -97t-65.5 -71t-100.5 -44t-127.5 -15h-320v41l43 3q16 1 26.5 3.5t16 9.5t7.5 19t2 32v543q0 19 -2 30.5
t-7.5 18t-16 9.5t-28.5 5l-41 3v41h274zM272 117q0 -43 17.5 -57t59.5 -14q98 0 145 42t47 124q0 40 -10.5 71.5t-36.5 53.5t-69.5 33.5t-109.5 11.5h-43v-265z" />
    <glyph glyph-name="uni0412" unicode="&#x412;" horiz-adv-x="717" 
d="M335 758q138 0 211.5 -41t73.5 -128q0 -37 -15 -65.5t-39 -49.5t-54 -35t-59 -22v-1q36 -5 76 -19t73 -38t55 -57.5t23 -76.5q1 -53 -21.5 -95t-64 -71t-100 -44t-128.5 -15h-319v41l42 3q18 1 28.5 4t16 10t7 19t1.5 31v542q0 37 -9 49.5t-44 14.5l-42 3v41h288z
M327 429q86 0 122 37.5t36 106.5q0 66 -37 102t-127 36q-32 0 -40.5 -3.5t-8.5 -18.5v-260h55zM272 116q0 -40 16 -55t58 -15q93 0 142 39t49 123t-49.5 128t-167.5 46h-48v-266z" />
    <glyph glyph-name="uni0413" unicode="&#x413;" horiz-adv-x="647" 
d="M272 108q0 -21 2 -33t8 -18.5t16 -9t27 -2.5l63 -3v-42h-341v41l43 3q16 1 26.5 3.5t16 9.5t7.5 19t2 32v543q0 19 -2 30.5t-7.5 18t-16 9.5t-28.5 5l-41 3v41h278l295 2l9 -193h-40l-17 51q-10 31 -22.5 49t-36 27t-62 11.5t-99.5 2.5h-60q-20 0 -20 -20v-580z" />
    <glyph glyph-name="uni0414" unicode="&#x414;" horiz-adv-x="762" 
d="M627 121q0 -23 1.5 -37t7 -21.5t17 -10t32.5 -2.5h45l8 -209h-38l-19 65q-9 34 -20.5 53t-34 28t-61.5 11t-104 2h-174q-65 0 -104 -2t-61.5 -11t-34 -28t-21.5 -53l-18 -65h-38l8 209h68q31 52 52.5 117t35 140.5t19.5 161t6 178.5q0 19 -1.5 32t-7 20.5t-17 11
t-32.5 4.5l-36 2v41h617v-41l-42 -3q-17 -1 -27 -3.5t-16 -9t-8 -18.5t-2 -31v-531zM255 689q0 -224 -26 -380t-84 -259h264q27 0 43.5 3t26.5 11t13.5 22t3.5 36v564q0 12 -3.5 17t-17.5 5h-201q-19 0 -19 -19z" />
    <glyph glyph-name="uni0415" unicode="&#x415;" horiz-adv-x="718" 
d="M47 41l42 3q18 1 28.5 4t16 10t7 19t1.5 31v542q0 37 -9 49.5t-44 14.5l-42 3v41h265l289 2l10 -193h-40l-17 51q-11 31 -24 49t-36.5 27t-61.5 11.5t-98 2.5h-42q-20 0 -20 -20v-277h112q23 0 38 2t25.5 9t17 21t12.5 39l9 40h40v-276h-40l-9 40q-6 25 -12.5 39t-17 21
t-25.5 9t-38 2h-112v-225q0 -28 4 -44.5t14 -24.5t28 -10.5t45 -2.5h14q67 0 107 3t64 12.5t39 26.5t32 46l42 69h40l-55 -207h-599v41z" />
    <glyph glyph-name="uni0401" unicode="&#x401;" horiz-adv-x="718" 
d="M47 41l42 3q18 1 28.5 4t16 10t7 19t1.5 31v542q0 37 -9 49.5t-44 14.5l-42 3v41h265l289 2l10 -193h-40l-17 51q-11 31 -24 49t-36.5 27t-61.5 11.5t-98 2.5h-42q-20 0 -20 -20v-277h112q23 0 38 2t25.5 9t17 21t12.5 39l9 40h40v-276h-40l-9 40q-6 25 -12.5 39t-17 21
t-25.5 9t-38 2h-112v-225q0 -28 4 -44.5t14 -24.5t28 -10.5t45 -2.5h14q67 0 107 3t64 12.5t39 26.5t32 46l42 69h40l-55 -207h-599v41zM248 841q-28 0 -46.5 19t-18.5 47q0 29 18.5 48t46.5 19t47 -19t19 -48q0 -28 -19 -47t-47 -19zM488 841q-29 0 -47.5 19t-18.5 47
q0 29 18.5 48t47.5 19q27 0 46 -19t19 -48q0 -28 -19 -47t-46 -19z" />
    <glyph glyph-name="uni0416" unicode="&#x416;" horiz-adv-x="1203" 
d="M2 0v41l42 3q29 2 44.5 10t32.5 29l278 348l-155 172q-36 40 -60.5 62t-44 32.5t-36.5 13t-39 4.5l-24 2v41h290v-41l-29 -1q-23 -1 -34 -5t-9.5 -15.5t15.5 -31t40 -51.5l155 -189q18 -21 32.5 -29.5t33.5 -10.5v266q0 37 -8.5 49.5t-43.5 14.5l-43 3v41h321v-41l-43 -3
q-17 -1 -27.5 -4t-16 -10t-7 -19t-1.5 -31v-267q19 3 34 11t33 30l154 189q26 32 40 51.5t15.5 31t-9 15.5t-33.5 5l-29 1v41h290v-41l-25 -2q-22 -2 -39.5 -4.5t-37.5 -13t-45 -32.5t-61 -62l-148 -164l284 -356q16 -20 31 -28.5t40 -10.5l43 -3v-41h-226l-258 340l-53 -2
v-230q0 -19 1.5 -31t7 -19t16 -10t27.5 -4l43 -3v-41h-321v41l43 3q18 1 28 4t15.5 10t7 19t1.5 31v230l-52 2l-259 -340h-221z" />
    <glyph glyph-name="uni0417" unicode="&#x417;" horiz-adv-x="656" 
d="M290 779q64 0 115.5 -11.5t88 -34.5t56 -57.5t19.5 -80.5q0 -39 -16 -69.5t-41.5 -53t-57 -37.5t-62.5 -24v-1q38 -5 77.5 -19t72 -37t53 -56t20.5 -75q0 -56 -23.5 -100t-65 -74t-99 -46t-124.5 -16q-78 0 -131.5 12.5t-97.5 34.5l-36 198l37 7l50 -99q17 -33 34 -53
t36.5 -30.5t43 -14t52.5 -3.5q86 0 133.5 44.5t47.5 129.5q0 39 -11 70t-36 52.5t-64 33t-96 11.5h-53v50h60q88 0 125 38.5t37 111.5q0 69 -33 108.5t-105 39.5q-25 0 -44.5 -2.5t-36 -10.5t-32 -24.5t-32.5 -43.5l-48 -78l-37 8l33 177q33 11 81.5 18t109.5 7z" />
    <glyph glyph-name="uni0418" unicode="&#x418;" horiz-adv-x="926" 
d="M142 650q0 37 -9 49.5t-44 14.5l-42 3v41h320v-41l-42 -3q-35 -2 -44 -14.5t-9 -49.5v-449l382 432v17q0 37 -9 49.5t-44 14.5l-43 3v41h321v-41l-42 -3q-35 -2 -44 -14.5t-9 -49.5v-542q0 -19 1.5 -31t7 -19t16 -10t28.5 -4l42 -3v-41h-321v41l43 3q18 1 28.5 4t16 10
t7 19t1.5 31v449l-382 -431v-18q0 -19 1.5 -31t7 -19t16 -10t28.5 -4l42 -3v-41h-320v41l42 3q18 1 28.5 4t16 10t7 19t1.5 31v542z" />
    <glyph glyph-name="uni0419" unicode="&#x419;" horiz-adv-x="926" 
d="M142 650q0 37 -9 49.5t-44 14.5l-42 3v41h320v-41l-42 -3q-35 -2 -44 -14.5t-9 -49.5v-449l382 432v17q0 37 -9 49.5t-44 14.5l-43 3v41h321v-41l-42 -3q-35 -2 -44 -14.5t-9 -49.5v-542q0 -19 1.5 -31t7 -19t16 -10t28.5 -4l42 -3v-41h-321v41l43 3q18 1 28.5 4t16 10
t7 19t1.5 31v449l-382 -431v-18q0 -19 1.5 -31t7 -19t16 -10t28.5 -4l42 -3v-41h-320v41l42 3q18 1 28.5 4t16 10t7 19t1.5 31v542zM382 990q0 -26 3.5 -48.5t12.5 -39t25 -26.5t40 -10t39.5 10t24.5 26.5t12 39t3 48.5h97q0 -35 -11.5 -64t-33.5 -50.5t-55 -33.5t-76 -12
q-46 0 -79.5 13t-55.5 34.5t-33 50.5t-11 62h98z" />
    <glyph glyph-name="uni041A" unicode="&#x41a;" horiz-adv-x="826" 
d="M322 340l-50 -2v-230q0 -19 1.5 -31t7 -19t16 -10t28.5 -4l42 -3v-41h-320v41l42 3q18 1 28.5 4t16 10t7 19t1.5 31v542q0 37 -9 49.5t-44 14.5l-42 3v41h320v-41l-42 -3q-35 -2 -44 -14.5t-9 -49.5v-266q17 4 31 12.5t32 27.5l178 189q28 30 42.5 49.5t15.5 31
t-10.5 16.5t-34.5 6l-29 1v41h290v-41l-25 -2q-22 -2 -38.5 -5.5t-36 -14.5t-44.5 -32.5t-63 -59.5l-169 -168l304 -352q17 -20 31.5 -28.5t39.5 -10.5l43 -3v-41h-226z" />
    <glyph glyph-name="uni041B" unicode="&#x41b;" horiz-adv-x="806" 
d="M13 51q0 8 2 17t7 18q11 2 27 4.5t32.5 6t32 8t25.5 10.5q9 5 24 29t29 82.5t23.5 159.5t9.5 261q0 24 -1.5 37t-7 19.5t-17 8t-32.5 2.5l-36 2v42h629v-41l-43 -3q-33 -2 -43 -13.5t-10 -48.5v-544q0 -19 1.5 -31t7 -19t16 -10t28.5 -4l43 -3v-41h-321v41l43 3
q17 1 27.5 4t16 10t7 19t1.5 31v578q0 12 -4 17t-18 5h-211q-18 0 -18 -21q1 -206 -13.5 -340.5t-41.5 -214t-63.5 -111t-78.5 -31.5q-35 0 -54 16.5t-19 44.5z" />
    <glyph glyph-name="uni041C" unicode="&#x41c;" horiz-adv-x="1053" 
d="M208 619l-9 -382q-2 -68 -0.5 -106t8 -56.5t18.5 -24t32 -6.5l37 -3v-41h-267v41l37 3q22 2 35.5 7t21.5 24t12 57t7 106l19 414q2 39 -8 49.5t-42 12.5l-44 3v41h225l248 -557l229 557h225v-41l-44 -3q-16 -1 -26.5 -3.5t-16 -9t-7 -18.5t-0.5 -31l27 -544
q1 -19 2.5 -31t7 -19t15.5 -10t28 -4l42 -3v-41h-321v41l43 3q18 1 28.5 4t16.5 10t7.5 19t0.5 31l-25 508l-261 -624h-18z" />
    <glyph glyph-name="uni041D" unicode="&#x41d;" horiz-adv-x="929" 
d="M142 650q0 37 -9 49.5t-44 14.5l-42 3v41h320v-41l-42 -3q-35 -2 -44 -14.5t-9 -49.5v-238h385v238q0 37 -9 49.5t-44 14.5l-43 3v41h321v-41l-42 -3q-35 -2 -44 -14.5t-9 -49.5v-542q0 -19 1.5 -31t7 -19t16 -10t28.5 -4l42 -3v-41h-321v41l43 3q18 1 28.5 4t16 10t7 19
t1.5 31v247h-385v-247q0 -19 1.5 -31t7 -19t16 -10t28.5 -4l42 -3v-41h-320v41l42 3q18 1 28.5 4t16 10t7 19t1.5 31v542z" />
    <glyph glyph-name="uni041E" unicode="&#x41e;" horiz-adv-x="880" 
d="M440 779q81 0 153 -29.5t126 -82t85.5 -125.5t31.5 -160t-32 -159.5t-86 -125t-126 -81.5t-152 -29q-81 0 -153 29t-126 81.5t-86 125.5t-32 160t32 159.5t86.5 125t126.5 82t152 29.5zM430 727q-46 0 -89 -17.5t-76.5 -55.5t-53.5 -97.5t-20 -143.5q0 -88 18.5 -157.5
t52.5 -117.5t81.5 -73.5t106.5 -25.5q46 0 89 17.5t76.5 55t53.5 97t20 143.5q0 88 -18.5 157.5t-52.5 118t-82 74t-106 25.5z" />
    <glyph glyph-name="uni041F" unicode="&#x41f;" horiz-adv-x="909" 
d="M637 687q0 11 -3.5 16t-17.5 5h-324q-20 0 -20 -20v-580q0 -19 1.5 -31t7 -19t16 -10t28.5 -4l42 -3v-41h-320v41l42 3q18 1 28.5 4t16 10t7 19t1.5 31v542q0 37 -9 49.5t-44 14.5l-42 3v41h815v-41l-42 -3q-35 -2 -44 -14.5t-9 -49.5v-542q0 -19 1.5 -31t7 -19t16 -10
t28.5 -4l42 -3v-41h-321v41l43 3q18 1 28.5 4t16 10t7 19t1.5 31v579z" />
    <glyph glyph-name="uni0420" unicode="&#x420;" horiz-adv-x="672" 
d="M47 41l42 3q18 1 28.5 4t16 10t7 19t1.5 31v542q0 37 -9 49.5t-44 14.5l-42 3v41h292q63 0 120.5 -9t102 -32t70.5 -63.5t26 -103.5q0 -51 -22 -91t-61.5 -67.5t-94.5 -42t-122 -14.5h-40v44h27q80 0 125 40t45 120q0 90 -47 130.5t-141 40.5q-37 0 -46 -4t-9 -20v-578
q0 -20 2 -32t8 -18.5t17.5 -9t31.5 -3.5l56 -2v-43h-340v41z" />
    <glyph glyph-name="uni0421" unicode="&#x421;" horiz-adv-x="769" 
d="M478 40q60 0 101.5 21.5t71.5 72.5l47 79h38l-45 -190q-45 -14 -100 -25t-133 -11q-94 0 -171 31.5t-131.5 85.5t-84 126t-29.5 153t31 153t87 126t134 85.5t173 31.5q78 0 130.5 -10.5t92.5 -24.5l33 -185h-38l-42 73q-30 52 -75 73t-109 21q-53 0 -101.5 -16.5
t-86 -53.5t-60 -96t-22.5 -144q0 -82 18.5 -151t55.5 -119t90.5 -78t124.5 -28z" />
    <glyph glyph-name="uni0422" unicode="&#x422;" horiz-adv-x="743" 
d="M437 110q0 -19 1.5 -31t7.5 -19t17.5 -10t31.5 -4l51 -3v-43h-349v43l51 3q19 1 30.5 4t17.5 10t8 19t2 31v598h-17q-60 0 -98.5 -2.5t-62 -11.5t-36 -27t-22.5 -49l-16 -51h-40l15 226h11q15 -12 28.5 -18.5t37.5 -10.5t63 -5t104 -1h197q65 0 104 1t63 5t37.5 10.5
t28.5 18.5h11l15 -226h-40l-16 51q-10 31 -22.5 49t-36 27t-62 11.5t-98.5 2.5h-17v-598z" />
    <glyph glyph-name="uni0423" unicode="&#x423;" horiz-adv-x="780" 
d="M524 357q-63 -116 -103 -188.5t-69 -113t-55 -54.5t-62 -14q-34 0 -54.5 17t-20.5 45q0 8 2.5 19t7.5 19q14 1 32.5 3.5t37.5 5.5t35 6.5t25 7.5q12 6 24.5 21.5t32.5 43.5l-249 466q-12 22 -21.5 36t-18 22t-17.5 11t-22 4l-31 3v41h317v-41l-48 -3q-15 -1 -24.5 -4.5
t-12 -11.5t1.5 -22t16 -37l180 -342l169 318q15 28 20.5 46t2.5 28.5t-15 15.5t-31 7l-43 5v41h255v-41l-23 -3q-15 -2 -26 -6.5t-22 -15t-23 -29.5t-29 -50z" />
    <glyph glyph-name="uni0424" unicode="&#x424;" horiz-adv-x="965" 
d="M417 672q0 18 -1.5 30t-7 19t-15.5 10t-28 4l-43 3v42h321v-42l-43 -3q-17 -1 -27.5 -4t-16 -10t-7 -19t-1.5 -30v-1q88 -5 159 -27t120.5 -59t76.5 -88t27 -114t-27.5 -114t-77.5 -88t-120.5 -59t-157.5 -27v-9q0 -18 1.5 -30t7 -19t16 -10t27.5 -4l43 -3v-42h-321v42
l43 3q18 1 28 4t15.5 10t7 19t1.5 30v9q-88 4 -159 26t-120.5 59.5t-76.5 88.5t-27 114t27 114t77.5 88t121 59t157.5 27v1zM182 411q0 -118 60.5 -184t174.5 -80v474q-53 -3 -96 -16.5t-74 -39t-48 -64t-17 -90.5zM784 355q0 118 -60.5 184t-175.5 80v-474q52 3 95.5 16.5
t75 39t48.5 64t17 90.5z" />
    <glyph glyph-name="uni0425" unicode="&#x425;" horiz-adv-x="834" 
d="M-9 41l39 2q19 1 34.5 8t33.5 23.5t41.5 43t58.5 66.5l164 191l-228 300q-14 19 -28 28t-40 11l-35 3v41h330v-41l-46 -3q-29 -2 -35.5 -12.5t10.5 -31.5l152 -199l86 113q30 40 48 65t23 39t-2.5 20t-28.5 7l-39 2v41h269v-41l-39 -2q-19 -1 -35 -8t-34.5 -23t-42 -43
t-56.5 -67l-118 -144l264 -347q14 -19 27.5 -28t39.5 -11l35 -3v-41h-330v41l46 3q29 2 35.5 12.5t-10.5 31.5l-186 245l-131 -159q-32 -39 -49.5 -63.5t-22.5 -39.5t3 -21t29 -7l39 -2v-41h-271v41z" />
    <glyph glyph-name="uni0426" unicode="&#x426;" horiz-adv-x="903" 
d="M878 -159h-38l-18 65q-10 34 -21.5 53t-34 28t-61.5 11t-104 2h-554v41l42 3q18 1 28.5 4t16 10t7 19t1.5 31v542q0 37 -9 49.5t-44 14.5l-42 3v41h320v-41l-42 -3q-35 -2 -44 -14.5t-9 -49.5v-557q0 -25 9 -34t40 -9h267q29 0 39 9t10 34v557q0 37 -9 49.5t-44 14.5
l-43 3v41h321v-41l-42 -3q-35 -2 -44 -14.5t-9 -49.5v-529q0 -23 1.5 -37t7 -21.5t17 -10t32.5 -2.5h45z" />
    <glyph glyph-name="uni0427" unicode="&#x427;" horiz-adv-x="848" 
d="M113 650q0 18 -2 30t-8 19t-17.5 10t-30.5 5l-37 2v42h321v-42l-37 -2q-20 -2 -31.5 -5t-17.5 -10t-7.5 -19t-1.5 -30v-90q0 -53 7 -90t28 -60t59.5 -33t100.5 -10q44 0 76 4t61 12v267q0 37 -9 49.5t-44 14.5l-42 3v41h321v-41l-43 -3q-35 -2 -44 -14.5t-9 -49.5v-542
q0 -19 1.5 -31t7 -19t16 -10t28.5 -4l43 -3v-41h-321v41l42 3q18 1 28.5 4t16 10t7 19t1.5 31v222q-34 -8 -74.5 -13t-102.5 -5q-73 0 -127 11t-89 37.5t-52.5 70t-17.5 109.5v110z" />
    <glyph glyph-name="uni0428" unicode="&#x428;" horiz-adv-x="1233" 
d="M1187 0h-1140v41l42 3q18 1 28.5 4t16 10t7 19t1.5 31v542q0 37 -9 49.5t-44 14.5l-42 3v41h320v-41l-42 -3q-35 -2 -44 -14.5t-9 -49.5v-539q0 -35 13 -48t53 -13h213v600q0 37 -9 49.5t-43 14.5l-43 3v41h321v-41l-43 -3q-17 -1 -27.5 -4t-16 -10t-7 -19t-1.5 -31v-600
h213q40 0 53 13t13 48v539q0 37 -9 49.5t-43 14.5l-43 3v41h321v-41l-43 -3q-35 -2 -43.5 -14.5t-8.5 -49.5v-542q0 -19 1.5 -31t7 -19t15.5 -10t28 -4l43 -3v-41z" />
    <glyph glyph-name="uni0429" unicode="&#x429;" horiz-adv-x="1227" 
d="M1203 -159h-38l-19 65q-10 34 -21 53t-33.5 28t-61.5 11t-104 2h-879v41l42 3q18 1 28.5 4t16 10t7 19t1.5 31v542q0 37 -9 49.5t-44 14.5l-42 3v41h320v-41l-42 -3q-35 -2 -44 -14.5t-9 -49.5v-539q0 -35 13 -48t53 -13h213v600q0 37 -9 49.5t-43 14.5l-43 3v41h321v-41
l-43 -3q-17 -1 -27.5 -4t-16 -10t-7 -19t-1.5 -31v-600h213q40 0 53 13t13 48v539q0 37 -9 49.5t-43 14.5l-43 3v41h321v-41l-43 -3q-35 -2 -43.5 -14.5t-8.5 -49.5v-529q0 -23 1.5 -37t7 -21.5t17 -10t32.5 -2.5h45z" />
    <glyph glyph-name="uni042A" unicode="&#x42a;" horiz-adv-x="815" 
d="M793 227q0 -55 -23 -97t-65.5 -71t-102 -44t-132.5 -15h-321v41l44 3q16 1 26 3.5t15.5 9.5t7.5 19t2 32v599q-45 -1 -74 -4.5t-47 -13.5t-28.5 -27t-19.5 -44l-17 -51h-40l9 194l295 -3h148v-41l-43 -3q-17 -1 -27.5 -4t-16 -10t-7 -19t-1.5 -31v-213h96
q70 0 129.5 -14.5t102 -42t66.5 -66.5t24 -87zM375 117q0 -43 17.5 -57t59.5 -14q105 0 151.5 42t46.5 124q0 40 -10 71.5t-36.5 53.5t-71.5 33.5t-114 11.5h-43v-265z" />
    <glyph glyph-name="uni042B" unicode="&#x42b;" horiz-adv-x="1063" 
d="M367 758v-41l-42 -3q-35 -2 -44 -14.5t-9 -49.5v-213h96q70 0 129.5 -14.5t102 -42t66.5 -66.5t24 -87q0 -55 -23 -97t-65.5 -71t-102 -44t-132.5 -15h-320v41l43 3q16 1 26.5 3.5t16 9.5t7.5 19t2 32v543q0 19 -2 30.5t-7.5 18t-16 9.5t-28.5 5l-41 3v41h320zM272 117
q0 -43 17.5 -57t59.5 -14q105 0 151.5 42t46.5 124q0 40 -10 71.5t-36 53.5t-71 33.5t-115 11.5h-43v-265zM791 650q0 37 -9 49.5t-44 14.5l-42 3v41h320v-41l-42 -3q-35 -2 -44 -14.5t-9 -49.5v-542q0 -19 1.5 -31t7 -19t16 -10t28.5 -4l42 -3v-41h-320v41l42 3
q18 1 28.5 4t16 10t7 19t1.5 31v542z" />
    <glyph glyph-name="uni042C" unicode="&#x42c;" horiz-adv-x="712" 
d="M367 758v-41l-42 -3q-35 -2 -44 -14.5t-9 -49.5v-213h96q70 0 129.5 -14.5t102 -42t66.5 -66.5t24 -87q0 -55 -23 -97t-65.5 -71t-102 -44t-132.5 -15h-320v41l43 3q16 1 26.5 3.5t16 9.5t7.5 19t2 32v543q0 19 -2 30.5t-7.5 18t-16 9.5t-28.5 5l-41 3v41h320zM272 117
q0 -43 17.5 -57t59.5 -14q105 0 151.5 42t46.5 124q0 40 -10 71.5t-36 53.5t-71 33.5t-115 11.5h-43v-265z" />
    <glyph glyph-name="uni042D" unicode="&#x42d;" horiz-adv-x="769" 
d="M291 40q64 0 114 23t86 64.5t58 99t28 127.5h-171q-23 0 -38 -2t-25.5 -9t-17 -21t-12.5 -38l-9 -41h-40v277h40l9 -41q6 -25 12.5 -39t17 -21t25.5 -8.5t38 -1.5h174v7q0 85 -22.5 144t-60 96t-86.5 53.5t-101 16.5q-64 0 -109 -21t-75 -73l-42 -73h-38l33 185
q40 14 92.5 24.5t130.5 10.5q95 0 173 -31.5t134 -85.5t87 -126t31 -153t-29.5 -153t-84 -126t-131.5 -85.5t-171 -31.5q-78 0 -133 11t-100 25l-45 190h38l47 -79q31 -51 72 -72.5t101 -21.5z" />
    <glyph glyph-name="uni042E" unicode="&#x42e;" horiz-adv-x="1204" 
d="M142 650q0 37 -9 49.5t-44 14.5l-42 3v41h320v-41l-42 -3q-35 -2 -44 -14.5t-9 -49.5v-238h117q5 81 38 148.5t85 116t119.5 75.5t142.5 27q79 0 149 -29.5t123 -82t84 -125.5t31 -160t-31 -159.5t-84.5 -125t-123.5 -81.5t-148 -29q-75 0 -143 27t-120 75.5t-84.5 116
t-37.5 149.5h-117v-247q0 -19 1.5 -31t7 -19t16 -10t28.5 -4l42 -3v-41h-320v41l42 3q18 1 28.5 4t16 10t7 19t1.5 31v542zM764 727q-44 0 -85 -17.5t-73 -55.5t-51.5 -97.5t-19.5 -143.5q0 -88 18 -157.5t50.5 -117.5t78.5 -73.5t102 -25.5q44 0 85 17.5t73 55t51.5 97
t19.5 143.5q0 88 -18 157.5t-50.5 118t-78.5 74t-102 25.5z" />
    <glyph glyph-name="uni042F" unicode="&#x42f;" horiz-adv-x="794" 
d="M435 343l-225 -343h-206v41l25 2q23 2 44 13.5t44 43.5l183 263q-53 13 -87.5 32t-54.5 42.5t-28.5 49.5t-8.5 55q0 50 25 90t68 68t100 43t122 15h311v-41l-42 -3q-17 -1 -27.5 -4t-16 -10t-7.5 -19t-2 -31v-544q0 -20 2 -31.5t8 -18t16.5 -9t26.5 -3.5l42 -3v-41h-336
v43l52 2q19 1 30.5 3t18 8.5t8.5 18t2 31.5v237h-87zM522 687q0 7 -2.5 11.5t-10 7t-23 3t-40.5 0.5q-52 0 -87 -12.5t-56.5 -33t-31 -47.5t-9.5 -56q0 -31 8.5 -61.5t29.5 -54.5t56.5 -39t89.5 -15q17 0 37.5 0.5t38.5 2.5v294z" />
    <glyph glyph-name="uni0402" unicode="&#x402;" horiz-adv-x="908" 
d="M176 42l51 3q19 1 30.5 4t17.5 10t8 19t2 32v598h-7q-53 0 -88 -2.5t-58 -11.5t-36 -26.5t-23 -47.5l-17 -53h-39l15 226h11q14 -11 27.5 -18t35 -10.5t55.5 -5t90 -1.5h234q55 0 90 1t57.5 5t36.5 11t28 18h11l16 -226h-39l-17 53q-9 28 -21 45.5t-33.5 27t-57.5 12.5
t-94 3h-46v-320q22 17 47 31t46 24q20 10 51.5 17.5t70.5 7.5q44 0 85.5 -10t73 -33.5t50.5 -63.5t19 -100v-49q0 -41 -4.5 -70t-15 -51.5t-27 -41t-39.5 -38.5q-12 -10 -31 -24.5t-41 -30t-45 -32t-42 -29.5l-25 35q41 35 68 63t42.5 56.5t22 61t6.5 76.5v38q0 40 -8 71
t-26 52.5t-48 32.5t-75 11q-52 0 -92.5 -16t-62.5 -39v-227q0 -21 2 -33.5t8 -19t16 -9t26 -3.5l47 -3v-42h-339v42z" />
    <glyph glyph-name="uni0403" unicode="&#x403;" horiz-adv-x="647" 
d="M272 108q0 -21 2 -33t8 -18.5t16 -9t27 -2.5l63 -3v-42h-341v41l43 3q16 1 26.5 3.5t16 9.5t7.5 19t2 32v543q0 19 -2 30.5t-7.5 18t-16 9.5t-28.5 5l-41 3v41h278l295 2l9 -193h-40l-17 51q-10 31 -22.5 49t-36 27t-62 11.5t-99.5 2.5h-60q-20 0 -20 -20v-580zM588 969
l-253 -126h-21l101 129h173v-3z" />
    <glyph glyph-name="uni0404" unicode="&#x404;" horiz-adv-x="769" 
d="M478 40q60 0 101.5 21.5t71.5 72.5l47 79h38l-45 -190q-45 -14 -100 -25t-133 -11q-94 0 -171 31.5t-131.5 85.5t-84 126t-29.5 153t31 153t87 126t134 85.5t173 31.5q78 0 130.5 -10.5t92.5 -24.5l33 -185h-38l-42 73q-30 52 -75 73t-109 21q-53 0 -101.5 -16.5
t-86 -53.5t-60 -96t-22.5 -144v-5h191q22 0 37.5 2t26 9t17 21t12.5 39l9 40h40v-276h-40l-9 38q-6 25 -12.5 39.5t-17 22t-25.5 9.5t-38 2h-189q6 -71 28 -129t58 -100t86.5 -65t114.5 -23z" />
    <glyph glyph-name="uni0405" unicode="&#x405;" horiz-adv-x="608" 
d="M292 -13q-62 0 -113.5 13t-92.5 34l-36 198l37 7l46 -91q18 -35 34.5 -56.5t35 -33t41 -15.5t51.5 -4q31 0 59 7.5t49.5 22.5t34.5 39t13 57q0 54 -38.5 89.5t-104.5 63.5l-61 26q-91 38 -133.5 91.5t-42.5 132.5q0 47 20 86t53.5 66.5t78 43t92.5 15.5q47 0 88 -6.5
t78 -18.5l33 -177l-37 -8l-46 77q-15 24 -27.5 40t-26.5 25.5t-30 13t-38 3.5q-57 0 -93.5 -30.5t-36.5 -85.5q0 -49 26 -83.5t81 -57.5l62 -26q48 -20 87 -40t67.5 -45.5t44 -60.5t15.5 -84q0 -54 -24 -96.5t-62.5 -71.5t-86.5 -44.5t-97 -15.5z" />
    <glyph glyph-name="uni0406" unicode="&#x406;" horiz-adv-x="414" 
d="M142 650q0 37 -9 49.5t-44 14.5l-42 3v41h320v-41l-42 -3q-35 -2 -44 -14.5t-9 -49.5v-542q0 -19 1.5 -31t7 -19t16 -10t28.5 -4l42 -3v-41h-320v41l42 3q18 1 28.5 4t16 10t7 19t1.5 31v542z" />
    <glyph glyph-name="uni0407" unicode="&#x407;" horiz-adv-x="413" 
d="M142 650q0 37 -9 49.5t-44 14.5l-42 3v41h320v-41l-42 -3q-35 -2 -44 -14.5t-9 -49.5v-542q0 -19 1.5 -31t7 -19t16 -10t28.5 -4l42 -3v-41h-320v41l42 3q18 1 28.5 4t16 10t7 19t1.5 31v542zM87 841q-28 0 -46.5 19t-18.5 47q0 29 18.5 48t46.5 19t47 -19t19 -48
q0 -28 -19 -47t-47 -19zM327 841q-29 0 -47.5 19t-18.5 47q0 29 18.5 48t47.5 19q27 0 46 -19t19 -48q0 -28 -19 -47t-46 -19z" />
    <glyph glyph-name="uni0408" unicode="&#x408;" horiz-adv-x="394" 
d="M6 -70q39 34 66 61t43 55.5t23 63t7 84.5v456q0 37 -9 49.5t-43 14.5l-43 3v41h321v-41l-43 -3q-35 -2 -43.5 -14.5t-8.5 -49.5v-443q0 -39 -5 -67.5t-15.5 -50.5t-27.5 -41t-40 -38q-13 -11 -32 -25t-40 -29.5t-43.5 -31.5t-41.5 -29z" />
    <glyph glyph-name="uni0409" unicode="&#x409;" horiz-adv-x="1079" 
d="M734 758v-41l-42 -3q-17 -1 -27.5 -4t-16 -9.5t-7.5 -18t-2 -30.5v-216h96q70 0 129.5 -14.5t102 -41.5t66.5 -66t24 -87q0 -55 -23 -97t-65 -71t-101.5 -44t-131.5 -15h-323v41l43 3q18 1 28.5 4t16 10t7 19t1.5 31v578q0 12 -4 17t-18 5h-186q-18 0 -18 -21
q1 -206 -13.5 -340.5t-41.5 -214t-63.5 -111t-78.5 -31.5q-35 0 -54 16.5t-19 44.5q0 8 2 17t7 18q11 2 27 4.5t32.5 6t32 8t25.5 10.5q9 5 24 29t29 82.5t23.5 159.5t9.5 261q0 24 -1.5 37t-7 19.5t-17 8t-32.5 2.5l-36 2v42h603zM639 384v-267q0 -43 17.5 -57t59.5 -14
q105 0 151.5 42t46.5 124q0 40 -10 71.5t-36 54t-71 34.5t-115 12h-43z" />
    <glyph glyph-name="uni040A" unicode="&#x40a;" horiz-adv-x="1193" 
d="M142 650q0 37 -9 49.5t-44 14.5l-42 3v41h320v-41l-42 -3q-35 -2 -44 -14.5t-9 -49.5v-222h341v223q0 19 -1.5 30.5t-7 18t-16 9.5t-28.5 5l-42 3v41h321v-41l-43 -3q-17 -1 -27.5 -4t-16 -10t-7 -19t-1.5 -31v-222h105q68 0 126.5 -13t102 -38.5t68 -63.5t24.5 -87
q0 -55 -23.5 -97.5t-66.5 -71t-102.5 -43t-129.5 -14.5h-330v41l43 3q16 1 26.5 3.5t16 9.5t7.5 19t2 32v265h-341v-265q0 -19 1.5 -31t7 -19t16 -10t28.5 -4l42 -3v-41h-320v41l42 3q18 1 28.5 4t16 10t7 19t1.5 31v542zM744 373v-256q0 -43 18 -57t63 -14q104 0 153 41
t49 124q0 40 -11 70.5t-37.5 50.5t-71.5 30.5t-112 10.5h-51z" />
    <glyph glyph-name="uni040B" unicode="&#x40b;" horiz-adv-x="983" 
d="M180 42l52 3q19 1 30.5 4t17.5 10t8 19t2 32v598h-7q-54 0 -89 -2.5t-57.5 -11.5t-35.5 -26.5t-23 -47.5l-18 -53h-39l16 226h11q13 -11 26.5 -18t35.5 -10.5t56 -5t90 -1.5h234q55 0 90 1t57.5 5t36.5 11t28 18h11l15 -226h-39l-17 53q-9 28 -20.5 45.5t-33.5 27
t-57.5 12.5t-93.5 3h-47v-320q22 16 46.5 30.5t44.5 22.5q22 11 54 19t70 8q47 0 88.5 -10t72.5 -33.5t49 -63.5t18 -100v-150q0 -41 9 -53t39 -13l50 -3v-42h-228v219q0 41 -7.5 73.5t-25.5 54.5t-48.5 33.5t-76.5 11.5q-51 0 -91.5 -16t-63.5 -39v-227q0 -21 2 -33.5
t8 -19.5t16 -9t26 -3l61 -3v-42h-353v42z" />
    <glyph glyph-name="uni040C" unicode="&#x40c;" horiz-adv-x="826" 
d="M322 340l-50 -2v-230q0 -19 1.5 -31t7 -19t16 -10t28.5 -4l42 -3v-41h-320v41l42 3q18 1 28.5 4t16 10t7 19t1.5 31v542q0 37 -9 49.5t-44 14.5l-42 3v41h320v-41l-42 -3q-35 -2 -44 -14.5t-9 -49.5v-266q17 4 31 12.5t32 27.5l178 189q28 30 42.5 49.5t15.5 31
t-10.5 16.5t-34.5 6l-29 1v41h290v-41l-25 -2q-22 -2 -38.5 -5.5t-36 -14.5t-44.5 -32.5t-63 -59.5l-169 -168l304 -352q17 -20 31.5 -28.5t39.5 -10.5l43 -3v-41h-226zM679 969l-253 -126h-21l101 129h173v-3z" />
    <glyph glyph-name="uni040E" unicode="&#x40e;" horiz-adv-x="780" 
d="M524 357q-63 -116 -103 -188.5t-69 -113t-55 -54.5t-62 -14q-34 0 -54.5 17t-20.5 45q0 8 2.5 19t7.5 19q14 1 32.5 3.5t37.5 5.5t35 6.5t25 7.5q12 6 24.5 21.5t32.5 43.5l-249 466q-12 22 -21.5 36t-18 22t-17.5 11t-22 4l-31 3v41h317v-41l-48 -3q-15 -1 -24.5 -4.5
t-12 -11.5t1.5 -22t16 -37l180 -342l169 318q15 28 20.5 46t2.5 28.5t-15 15.5t-31 7l-43 5v41h255v-41l-23 -3q-15 -2 -26 -6.5t-22 -15t-23 -29.5t-29 -50zM345 990q0 -26 3.5 -48.5t12.5 -39t25 -26.5t40 -10t39.5 10t24.5 26.5t12 39t3 48.5h97q0 -35 -11.5 -64
t-33.5 -50.5t-55 -33.5t-76 -12q-46 0 -79.5 13t-55.5 34.5t-33 50.5t-11 62h98z" />
    <glyph glyph-name="uni040F" unicode="&#x40f;" horiz-adv-x="900" 
d="M419 -89q-5 30 -12 47.5t-25 26.5t-51.5 12t-89.5 3h-194v41l42 3q18 1 28.5 4t16 10t7 19t1.5 31v542q0 37 -9 49.5t-44 14.5l-42 3v41h320v-41l-42 -3q-35 -2 -44 -14.5t-9 -49.5v-539q0 -35 13 -48t53 -13h224q40 0 53 13t13 48v539q0 37 -9 49.5t-43 14.5l-43 3v41
h321v-41l-43 -3q-35 -2 -43.5 -14.5t-8.5 -49.5v-542q0 -19 1.5 -31t7 -19t15.5 -10t28 -4l43 -3v-41h-194q-57 0 -90.5 -3t-52 -12t-26 -26.5t-11.5 -47.5l-10 -70h-40z" />
    <glyph glyph-name="uni0490" unicode="&#x490;" horiz-adv-x="643" 
d="M352 758q60 0 98 2.5t61.5 11.5t35.5 26.5t21 48.5l17 60h40l-10 -199h-323q-20 0 -20 -20v-580q0 -21 2 -33t8 -18.5t16 -9t27 -2.5l63 -3v-42h-341v41l43 3q16 1 26.5 3.5t16 9.5t7.5 19t2 32v543q0 19 -2 30.5t-7.5 18t-16 9.5t-28.5 5l-41 3v41h305z" />
    <glyph glyph-name="uni0462" unicode="&#x462;" horiz-adv-x="835" 
d="M490 758v-41l-43 -3q-35 -2 -44 -14.5t-9 -49.5v-22h12q60 0 96 1t58 5t35 11t27 18h11l15 -226h-40l-17 51q-10 31 -22 49t-33 27t-54.5 11.5t-87.5 2.5v-208h102q155 0 235.5 -47.5t81.5 -128.5q0 -94 -82.5 -144t-240.5 -50h-321v41l43 3q16 1 26.5 3.5t16 9.5t7.5 19
t2 32v470q-54 0 -88 -2.5t-55 -11.5t-32.5 -27t-21.5 -49l-17 -51h-40l16 226h10q14 -11 27 -18t35 -11t58 -5t96 -1h12v23q0 19 -2 30.5t-7.5 18t-16 9.5t-28.5 5l-41 3v41h321zM394 117q0 -43 17.5 -57t59.5 -14q58 0 96.5 8.5t61 25t31.5 41.5t9 58q0 31 -9.5 56.5
t-35 43t-71 27t-116.5 9.5h-43v-198z" />
    <glyph glyph-name="uni0472" unicode="&#x472;" horiz-adv-x="880" 
d="M440 779q81 0 153 -29.5t126 -82t85.5 -125.5t31.5 -160t-32 -159.5t-86 -125t-126 -81.5t-152 -29q-81 0 -153 29t-126 81.5t-86 125.5t-32 160t32 159.5t86.5 125t126.5 82t152 29.5zM689 353q-56 -28 -102 -34t-86 0t-76 19.5t-73 23.5t-76 12t-84 -14
q6 -76 26.5 -135.5t54 -101t78.5 -63t99 -21.5q46 0 89 17.5t76.5 55t53.5 97t20 143.5v1zM430 727q-46 0 -89 -17.5t-76.5 -55.5t-53.5 -97.5t-20 -143.5v-7q67 31 120.5 40t98.5 4.5t82.5 -16.5t70.5 -23.5t63.5 -17t61.5 3.5q-5 78 -25.5 139t-54 103.5t-79 65
t-99.5 22.5z" />
    <glyph glyph-name="uni0474" unicode="&#x474;" horiz-adv-x="782" 
d="M414 -10h-68l-264 676q-11 27 -21.5 36.5t-37.5 11.5l-36 3v41h317v-41l-48 -3q-29 -2 -37 -11.5t4 -40.5l195 -504l157 413q24 62 44.5 102.5t41 64t42 32.5t46.5 9q33 0 52.5 -16t19.5 -44q0 -8 -1.5 -17.5t-8.5 -18.5q-13 -3 -29.5 -6.5t-32.5 -7.5l-30 -7.5t-21 -7.5
q-9 -5 -16 -11t-14.5 -17t-15.5 -28t-18 -44z" />
    <glyph glyph-name="uni0492" unicode="&#x492;" horiz-adv-x="647" 
d="M272 108q0 -21 2 -33t8 -18.5t16 -9t27 -2.5l63 -3v-42h-341v41l43 3q16 1 26.5 3.5t16 9.5t7.5 19t2 32v543q0 19 -2 30.5t-7.5 18t-16 9.5t-28.5 5l-41 3v41h278l295 2l9 -193h-40l-17 51q-10 31 -22.5 49t-36 27t-62 11.5t-99.5 2.5h-60q-20 0 -20 -20v-580zM47 413
h388v-56h-388v56z" />
    <glyph glyph-name="uni0496" unicode="&#x496;" horiz-adv-x="1214" 
d="M717 714q-17 -1 -27.5 -4t-16 -10t-7 -19t-1.5 -31v-267q19 3 33.5 11t33.5 30l154 189q26 32 40 52t15.5 31t-9 15.5t-33.5 4.5l-29 1v41h290v-41l-25 -2q-22 -2 -39.5 -4.5t-37.5 -13t-45 -32.5t-61 -62l-147 -164l258 -325q15 -20 28.5 -32t29 -19.5t36 -10t49.5 -2.5
l8 -209h-38l-19 65q-10 34 -19.5 53t-27 28t-47 11t-79.5 2h-8l-259 340l-52 -2v-230q0 -19 1.5 -31t7 -19t16 -10t27.5 -4l43 -3v-41h-321v41l43 3q18 1 28 4t15.5 10t7 19t1.5 31v230l-51 2l-260 -340h-221v41l42 3q28 2 44 10t33 29l277 348l-154 172q-36 40 -60.5 62
t-44 32.5t-36.5 13t-39 4.5l-24 2v41h290v-41l-29 -1q-23 0 -34 -4.5t-9.5 -15.5t15.5 -31t40 -52l155 -189q18 -22 33 -30t33 -11v267q0 37 -8.5 49.5t-43.5 14.5l-43 3v41h321v-41z" />
    <glyph glyph-name="uni049A" unicode="&#x49a;" horiz-adv-x="838" 
d="M839 -159h-38l-19 65q-9 34 -18.5 53t-27 28t-47.5 11t-79 2h-7l-281 340l-50 -2v-230q0 -19 1.5 -31t7 -19t16 -10t28.5 -4l42 -3v-41h-320v41l42 3q18 1 28.5 4t16 10t7 19t1.5 31v542q0 37 -9 49.5t-44 14.5l-42 3v41h320v-41l-42 -3q-35 -2 -44 -14.5t-9 -49.5v-266
q17 4 31 12t32 28l178 189q57 60 58.5 81t-45.5 22l-29 1v41h290v-41l-25 -2q-22 -2 -39 -5t-36 -14t-44 -33t-63 -60l-169 -168l285 -330q14 -16 26.5 -26.5t27.5 -17t34 -9t47 -2.5z" />
    <glyph glyph-name="uni04A2" unicode="&#x4a2;" horiz-adv-x="923" 
d="M898 -159h-38l-18 65q-10 34 -21.5 53t-34 28t-61.5 11t-104 2h-60v41l43 3q18 1 28.5 4t16 10t7 19t1.5 31v247h-385v-247q0 -19 1.5 -31t7 -19t16 -10t28.5 -4l42 -3v-41h-320v41l42 3q18 1 28.5 4t16 10t7 19t1.5 31v542q0 37 -9 49.5t-44 14.5l-42 3v41h320v-41
l-42 -3q-35 -2 -44 -14.5t-9 -49.5v-238h385v238q0 37 -9 49.5t-44 14.5l-43 3v41h321v-41l-42 -3q-35 -2 -44 -14.5t-9 -49.5v-529q0 -23 1.5 -37t7 -21.5t17 -10t32.5 -2.5h45z" />
    <glyph glyph-name="uni04AE" unicode="&#x4ae;" horiz-adv-x="764" 
d="M205 43l51 3q20 1 31.5 4t17.5 10t8 19t2 31v217l-216 348q-12 20 -22 28.5t-37 10.5l-36 3v41h324v-41l-53 -3q-29 -2 -37 -11.5t6 -32.5l177 -289l110 173q28 44 43.5 74t18 49t-7.5 27.5t-34 10.5l-35 2v41h262v-41l-29 -2q-20 -2 -35 -9t-31.5 -25t-37.5 -48.5
t-52 -78.5l-148 -227v-217q0 -19 2 -31t8 -19t17.5 -10t31.5 -4l51 -3v-43h-350v43z" />
    <glyph glyph-name="uni04B0" unicode="&#x4b0;" horiz-adv-x="764" 
d="M205 43l51 3q20 1 31.5 4t17.5 10t8 19t2 31v217l-216 348q-12 20 -22 28.5t-37 10.5l-36 3v41h324v-41l-53 -3q-29 -2 -37 -11.5t6 -32.5l177 -289l110 173q28 44 43.5 74t18 49t-7.5 27.5t-34 10.5l-35 2v41h262v-41l-29 -2q-20 -2 -35 -9t-31.5 -25t-37.5 -48.5
t-52 -78.5l-148 -227v-217q0 -19 2 -31t8 -19t17.5 -10t31.5 -4l51 -3v-43h-350v43zM127 329h503v-56h-503v56z" />
    <glyph glyph-name="uni04B2" unicode="&#x4b2;" horiz-adv-x="864" 
d="M863 -159h-38l-18 65q-10 34 -19.5 53t-27 28t-47.5 11t-79 2h-125v41l46 3q29 2 35.5 12.5t-10.5 31.5l-187 245l-130 -159q-32 -39 -49.5 -64t-22.5 -39.5t3 -20.5t29 -7l39 -2v-41h-271v41l39 2q19 1 34.5 8t33.5 23.5t41.5 43t58.5 66.5l164 191l-228 300
q-14 19 -28 28t-40 11l-35 3v41h330v-41l-46 -3q-29 -2 -35.5 -12.5t10.5 -31.5l152 -199l86 113q30 40 47.5 65t23 39.5t-2 20t-28.5 6.5l-39 2v41h269v-41l-39 -2q-19 -1 -35 -8t-34.5 -23t-42 -42.5t-56.5 -67.5l-118 -143l240 -317q15 -19 27.5 -31.5t28.5 -19.5t36 -10
t50 -3z" />
    <glyph glyph-name="uni04B6" unicode="&#x4b6;" horiz-adv-x="842" 
d="M481 0v41l42 3q18 1 28.5 4t16 10t7 19t1.5 31v222q-34 -8 -74.5 -13t-102.5 -5q-73 0 -127 11t-89 37.5t-52.5 70t-17.5 109.5v110q0 18 -2 30t-8 19t-17.5 10t-30.5 5l-37 2v42h321v-42l-37 -2q-20 -2 -31.5 -5t-17.5 -10t-7.5 -19t-1.5 -30v-90q0 -53 7 -90t28 -60
t59.5 -33t100.5 -10q44 0 76 4t61 12v267q0 37 -9 49.5t-44 14.5l-42 3v41h321v-41l-43 -3q-35 -2 -44 -14.5t-9 -49.5v-529q0 -23 1.5 -37t7 -21.5t17 -10t32.5 -2.5h45l8 -209h-37l-19 65q-10 34 -21.5 53t-34 28t-61.5 11t-104 2h-59z" />
    <glyph glyph-name="uni04BA" unicode="&#x4ba;" horiz-adv-x="842" 
d="M734.955 107.993q0 -17.999 2 -29.998t7.99902 -18.999q6 -6.99902 17.499 -9.99902q11.5 -3 30.498 -5l36.998 -2v-41.9971h-320.98v41.9971l36.998 2q19.999 2 31.498 5t17.499 9.99902q5.99902 7 7.49902 18.999t1.5 29.998v89.9951q0 52.9961 -6.99902 89.9941
q-7 36.998 -27.999 59.9961q-20.998 22.999 -59.4961 32.998q-38.4971 10 -100.494 10q-43.9971 0 -75.9951 -4t-60.9961 -11.999v-266.984q0 -36.9971 8.99902 -49.4971q9 -12.499 43.998 -14.499l41.9971 -3v-40.9971h-320.98v40.9971l42.9971 3q34.998 2 43.998 14.499
q8.99902 12.5 8.99902 49.4971v541.967q0 18.999 -1.5 30.998q-1.5 12 -6.99902 18.999q-5.5 7 -15.999 10q-10.5 2.99902 -28.499 3.99902l-42.9971 3v40.998h320.98v-40.998l-41.9971 -3q-17.999 -1 -28.499 -3.99902q-10.499 -3 -15.999 -10
q-5.49902 -6.99902 -6.99902 -18.999q-1.5 -11.999 -1.5 -30.998v-221.986q33.998 8 74.4951 12.999q40.498 5 102.494 5q72.9951 0 126.992 -10.999t88.9941 -37.498q34.998 -26.498 52.4971 -69.9951q17.499 -43.498 17.499 -109.494v-109.993z" />
    <glyph glyph-name="uni04C0" unicode="&#x4c0;" horiz-adv-x="414" 
d="M142 650q0 37 -9 49.5t-44 14.5l-42 3v41h320v-41l-42 -3q-35 -2 -44 -14.5t-9 -49.5v-542q0 -19 1.5 -31t7 -19t16 -10t28.5 -4l42 -3v-41h-320v41l42 3q18 1 28.5 4t16 10t7 19t1.5 31v542z" />
    <glyph glyph-name="uni04D8" unicode="&#x4d8;" horiz-adv-x="801" 
d="M387 -13q-69 0 -131 23t-109.5 64.5t-77.5 100.5t-37 131h592q1 11 1.5 22.5t0.5 22.5q0 79 -20 141.5t-55.5 105t-84.5 65t-108 22.5q-81 0 -150.5 -37.5t-121.5 -122.5l-40 24q22 49 57.5 91.5t80.5 74t98 49.5t111 18q83 0 150.5 -27.5t115 -79.5t73.5 -125.5
t26 -165.5q0 -86 -29.5 -158.5t-80.5 -125.5t-118.5 -83t-142.5 -30zM398 38q42 0 78.5 15.5t65 43.5t48 67.5t27.5 87.5h-425q14 -103 71 -158.5t135 -55.5z" />
    <glyph glyph-name="uni04E2" unicode="&#x4e2;" horiz-adv-x="926" 
d="M142 650q0 37 -9 49.5t-44 14.5l-42 3v41h320v-41l-42 -3q-35 -2 -44 -14.5t-9 -49.5v-449l382 432v17q0 37 -9 49.5t-44 14.5l-43 3v41h321v-41l-42 -3q-35 -2 -44 -14.5t-9 -49.5v-542q0 -19 1.5 -31t7 -19t16 -10t28.5 -4l42 -3v-41h-321v41l43 3q18 1 28.5 4t16 10
t7 19t1.5 31v449l-382 -431v-18q0 -19 1.5 -31t7 -19t16 -10t28.5 -4l42 -3v-41h-320v41l42 3q18 1 28.5 4t16 10t7 19t1.5 31v542zM324 940h306v-67h-306v67z" />
    <glyph glyph-name="uni04E8" unicode="&#x4e8;" horiz-adv-x="880" 
d="M440 779q81 0 153 -29.5t126 -82t85.5 -125.5t31.5 -160t-32 -159.5t-86 -125t-126 -81.5t-152 -29q-81 0 -153 29t-126 81.5t-86 125.5t-32 160t32 159.5t86.5 125t126.5 82t152 29.5zM450 39q46 0 89 17.5t76.5 55t53.5 97t20 143.5v3h-496q6 -75 27 -133.5t54 -99
t77.5 -62t98.5 -21.5zM430 727q-46 0 -89 -17.5t-76.5 -55.5t-53.5 -97.5t-20 -143.5v-1h495q-6 74 -27 132.5t-54 99t-77.5 62t-97.5 21.5z" />
    <glyph glyph-name="uni04EE" unicode="&#x4ee;" horiz-adv-x="780" 
d="M524 357q-63 -116 -103 -188.5t-69 -113t-55 -54.5t-62 -14q-34 0 -54.5 17t-20.5 45q0 8 2.5 19t7.5 19q14 1 32.5 3.5t37.5 5.5t35 6.5t25 7.5q12 6 24.5 21.5t32.5 43.5l-249 466q-12 22 -21.5 36t-18 22t-17.5 11t-22 4l-31 3v41h317v-41l-48 -3q-15 -1 -24.5 -4.5
t-12 -11.5t1.5 -22t16 -37l180 -342l169 318q15 28 20.5 46t2.5 28.5t-15 15.5t-31 7l-43 5v41h255v-41l-23 -3q-15 -2 -26 -6.5t-22 -15t-23 -29.5t-29 -50zM259 940h306v-67h-306v67z" />
    <glyph glyph-name="uni0430" unicode="&#x430;" horiz-adv-x="539" 
d="M194 -13q-30 0 -57.5 11t-48.5 30t-33.5 44t-12.5 54q0 28 11 50t33.5 40t56.5 33.5t79 30.5q32 11 62 27t45 36v15q0 60 -23.5 88t-61.5 28q-106 0 -95 -131q-8 -3 -18.5 -5t-22.5 -2h-3q-28 0 -45 14t-17 39q0 24 28 45t79 42q42 17 81 31.5t81 14.5q31 0 56 -7
t42.5 -24t26.5 -44.5t9 -69.5l-4 -283q0 -23 4.5 -29t21.5 -6q4 0 10.5 0.5t14 1t14 1t9.5 0.5l3 -36l-34 -13q-26 -9 -49.5 -16.5t-40.5 -7.5q-55 0 -61 71q-12 -14 -25 -25.5t-27 -21.5q-21 -16 -44 -21t-44 -5zM258 47q21 0 42.5 12t24.5 37l4 204q-18 -13 -36 -23.5
t-34 -18.5q-42 -22 -67 -46t-26 -62q0 -23 7.5 -42t20.5 -32.5t30 -21t34 -7.5z" />
    <glyph glyph-name="uni0431" unicode="&#x431;" horiz-adv-x="598" 
d="M562 269q0 -62 -20.5 -113.5t-55 -89t-81 -58.5t-98.5 -21q-128 0 -198 86t-70 241q0 83 21.5 160.5t66 139t113 102.5t163.5 51q45 4 73.5 18.5t28.5 43.5h32q0 -40 -7.5 -71.5t-26.5 -54t-50.5 -35.5t-79.5 -17q-40 -3 -69.5 -4t-50.5 -2.5t-34.5 -4.5t-22.5 -10
q-8 -7 -13 -17.5t-8.5 -31.5t-5 -55.5t-1.5 -88.5q21 17 42.5 33t38.5 25q21 11 45.5 17t47.5 6q50 0 90.5 -18.5t69.5 -51.5t44.5 -78.5t15.5 -100.5zM311 34q63 0 92.5 49.5t29.5 143.5q0 47 -9.5 89t-28 73t-46.5 49t-65 18q-26 0 -56 -14t-60 -41v-65q0 -80 10 -137
t29 -94t45.5 -54t58.5 -17z" />
    <glyph glyph-name="uni0432" unicode="&#x432;" horiz-adv-x="583" 
d="M296 502q108 0 163.5 -28.5t55.5 -84.5q0 -50 -41 -77.5t-108 -40.5v-1q39 -3 73 -11t58.5 -23t39 -36.5t14.5 -49.5q0 -72 -61.5 -111t-185.5 -39h-269v40l46 3q20 2 25.5 10t5.5 25v346q0 17 -5.5 25t-25.5 10l-46 3v40h261zM252 458q-12 0 -16 -4.5t-4 -15.5v-150h46
q61 0 87.5 23t26.5 66q0 50 -31 65.5t-86 15.5h-23zM232 89q0 -29 14.5 -38.5t50.5 -9.5q27 0 50 5t40 16.5t26.5 31t9.5 48.5q0 22 -7.5 41t-24.5 33.5t-44.5 22.5t-67.5 8h-47v-158z" />
    <glyph glyph-name="uni0433" unicode="&#x433;" horiz-adv-x="471" 
d="M248 458q-12 0 -16 -4.5t-4 -15.5v-360q0 -17 6 -25.5t31 -9.5l58 -3v-40h-292v40l46 3q20 2 25.5 10t5.5 25v346q0 17 -5.5 25t-25.5 10l-46 3v40h211l207 2l7 -164h-39l-8 29q-8 25 -17.5 42t-25 27.5t-40.5 15t-62 4.5h-16z" />
    <glyph glyph-name="uni0434" unicode="&#x434;" horiz-adv-x="574" 
d="M216 0q-39 0 -63.5 -1.5t-39.5 -8.5t-23.5 -23t-16.5 -44l-19 -62h-39l6 183h56q35 56 54.5 152t19.5 228q0 17 -4.5 25t-24.5 10l-51 3v40h478v-40l-46 -3q-20 -2 -25.5 -10t-5.5 -25v-346q0 -16 5.5 -25t30.5 -9h36l6 -183h-39l-18 62q-8 28 -17.5 44t-25.5 23
t-41.5 8.5t-64.5 1.5h-128zM316 44q22 0 29 7.5t7 26.5v360q0 11 -4 15.5t-16 4.5h-108q-12 0 -16 -4.5t-4 -15.5q0 -142 -19 -242t-49 -152h180z" />
    <glyph glyph-name="uni0435" unicode="&#x435;" horiz-adv-x="538" 
d="M280 -13q-52 0 -96 19.5t-76.5 54.5t-50.5 84.5t-18 108.5q0 58 19 107t51.5 84.5t76 55.5t93.5 20q51 0 90.5 -17.5t67 -47.5t44 -69t22.5 -81h-352v-1q0 -49 13.5 -90t38.5 -71t59.5 -46.5t76.5 -16.5q45 0 80.5 20.5t60.5 44.5l25 -28l-32 -34q-41 -43 -89 -70
t-104 -27zM268 479q-52 0 -79.5 -37t-34.5 -92h220q-2 62 -30 95.5t-76 33.5z" />
    <glyph glyph-name="uni0451" unicode="&#x451;" horiz-adv-x="538" 
d="M280 -13q-52 0 -96 19.5t-76.5 54.5t-50.5 84.5t-18 108.5q0 58 19 107t51.5 84.5t76 55.5t93.5 20q51 0 90.5 -17.5t67 -47.5t44 -69t22.5 -81h-352v-1q0 -49 13.5 -90t38.5 -71t59.5 -46.5t76.5 -16.5q45 0 80.5 20.5t60.5 44.5l25 -28l-32 -34q-41 -43 -89 -70
t-104 -27zM268 479q-52 0 -79.5 -37t-34.5 -92h220q-2 62 -30 95.5t-76 33.5zM167 649q-27 0 -45 18.5t-18 46.5t18 46t45 18t45 -18t18 -46t-18 -46.5t-45 -18.5zM397 649q-27 0 -45 18.5t-18 46.5t18 46t45 18t45 -18t18 -46t-18 -46.5t-45 -18.5z" />
    <glyph glyph-name="uni0436" unicode="&#x436;" horiz-adv-x="926" 
d="M279 293l-107 99q-18 17 -32.5 29.5t-28 21t-27.5 13t-31 5.5l-18 1v40h227v-40l-24 -1q-17 -1 -24.5 -4t-6 -10.5t11.5 -21t29 -34.5l96 -102q17 -17 32 -22t27 -6v163q0 17 -5.5 25t-25.5 10l-41 3v40h256v-40l-33 -3q-20 -2 -25.5 -10t-5.5 -25v-163q12 1 27 6t32 22
l96 102q19 21 29.5 34.5t11.5 21t-6.5 10.5t-24.5 4l-24 1v40h227v-40l-18 -1q-17 -1 -32 -5.5t-29 -13t-29 -21t-33 -29.5l-101 -93l173 -215q9 -12 17 -19t16 -11.5t18.5 -7t25.5 -3.5l25 -3v-40h-187l-174 230l-40 2v-154q0 -17 5.5 -25t25.5 -10l43 -3v-40h-268v40l43 3
q20 2 25.5 10t5.5 25v154l-40 -2l-174 -230h-187v40l25 3q16 1 27.5 3.5t21 7t18 11.5t17.5 19z" />
    <glyph glyph-name="uni0437" unicode="&#x437;" horiz-adv-x="504" 
d="M236 33q48 0 75.5 25t27.5 78q0 58 -36 81.5t-100 23.5h-47v46h47q60 0 88.5 23t28.5 74q0 48 -23.5 69t-68.5 21q-42 0 -62.5 -18.5t-38.5 -53.5l-25 -48l-41 6l22 137q23 8 66 16t94 8q94 0 147 -32.5t53 -86.5q0 -29 -12.5 -51t-33 -38.5t-47.5 -27t-57 -16.5v-1
q37 -3 69 -12t55 -24.5t36 -38t13 -52.5q0 -71 -60.5 -112.5t-177.5 -41.5q-40 0 -75 5.5t-61.5 17t-41.5 29t-15 41.5q0 61 74 61q7 -19 17.5 -38.5t26 -35t36 -25t47.5 -9.5z" />
    <glyph glyph-name="uni0438" unicode="&#x438;" horiz-adv-x="668" 
d="M228 165l212 235v24q0 17 -5.5 25t-25.5 10l-38 3v40h266v-40l-46 -3q-20 -2 -25.5 -10t-5.5 -25v-346q0 -17 5.5 -25t25.5 -10l46 -3v-40h-266v40l38 3q20 2 25.5 10t5.5 25v258l-212 -234v-24q0 -17 5 -25t25 -10l39 -3v-40h-266v40l46 3q20 2 25.5 10t5.5 25v346
q0 17 -5.5 25t-25.5 10l-46 3v40h266v-40l-39 -3q-20 -2 -25 -10t-5 -25v-259z" />
    <glyph glyph-name="uni0439" unicode="&#x439;" horiz-adv-x="668" 
d="M228 165l212 235v24q0 17 -5.5 25t-25.5 10l-38 3v40h266v-40l-46 -3q-20 -2 -25.5 -10t-5.5 -25v-346q0 -17 5.5 -25t25.5 -10l46 -3v-40h-266v40l38 3q20 2 25.5 10t5.5 25v258l-212 -234v-24q0 -17 5 -25t25 -10l39 -3v-40h-266v40l46 3q20 2 25.5 10t5.5 25v346
q0 17 -5.5 25t-25.5 10l-46 3v40h266v-40l-39 -3q-20 -2 -25 -10t-5 -25v-259zM252 788q0 -26 3.5 -48.5t12.5 -39t25 -26.5t40 -10t39.5 10t24.5 26.5t12 39t3 48.5h97q0 -35 -11.5 -64t-33.5 -50.5t-55 -33.5t-76 -12q-46 0 -79.5 13t-55.5 34.5t-33 50.5t-11 62h98z" />
    <glyph glyph-name="uni043A" unicode="&#x43a;" horiz-adv-x="626" 
d="M228 262q10 2 21 7t25 20l101 102q41 41 44 54.5t-30 15.5l-24 1v40h227v-40l-18 -1q-35 -2 -62 -19t-65 -50l-105 -93l181 -215q10 -11 17.5 -18.5t15.5 -12t18.5 -7t25.5 -3.5l25 -3v-40h-188l-181 230l-28 1v-153q0 -17 5 -25t25 -10l46 -3v-40h-273v40l46 3
q20 2 25.5 10t5.5 25v346q0 17 -5.5 25t-25.5 10l-46 3v40h264v-40l-37 -3q-20 -2 -25 -10t-5 -25v-162z" />
    <glyph glyph-name="uni043B" unicode="&#x43b;" horiz-adv-x="598" 
d="M224 438q0 -124 -12 -211t-39 -147q-17 -38 -42 -63t-57 -25q-33 0 -49 19t-16 40q0 23 15 38l61.5 21t31.5 16q29 27 41 99t12 201q0 15 -6 23t-32 10l-42 3v40h477v-40l-46 -3q-20 -2 -25.5 -10t-5.5 -25v-346q0 -17 5.5 -25t25.5 -10l46 -3v-40h-274v40l47 3
q20 2 25 10t5 25v360q0 11 -4 15.5t-16 4.5h-106q-12 0 -16 -4.5t-4 -15.5z" />
    <glyph glyph-name="uni043C" unicode="&#x43c;" horiz-adv-x="823" 
d="M184 426l-7 -268q-1 -42 -0.5 -65t5 -34.5t12.5 -14t22 -2.5l35 -2v-40h-226v40l45 2q13 0 21.5 2.5t13 13.5t7 34.5t4.5 66.5l11 256q2 26 -4.5 34.5t-30.5 9.5l-45 2v41h220l148 -338l140 338h224v-41l-46 -3q-23 -2 -30.5 -10t-5.5 -37l17 -320q1 -16 2 -25.5t5 -14
t11.5 -6t21.5 -2.5l44 -3v-40h-277v40l34 3q14 1 22 2.5t12 6t5 14t0 25.5l-18 335l-177 -434h-26z" />
    <glyph glyph-name="uni043D" unicode="&#x43d;" horiz-adv-x="656" 
d="M228 283h200v141q0 17 -5.5 25t-25.5 10l-36 3v40h264v-40l-46 -3q-20 -2 -25.5 -10t-5.5 -25v-346q0 -17 5.5 -25t25.5 -10l46 -3v-40h-264v40l36 3q20 2 25.5 10t5.5 25v158h-200v-158q0 -17 5 -25t25 -10l37 -3v-40h-264v40l46 3q20 2 25.5 10t5.5 25v346
q0 17 -5.5 25t-25.5 10l-46 3v40h264v-40l-37 -3q-20 -2 -25 -10t-5 -25v-141z" />
    <glyph glyph-name="uni043E" unicode="&#x43e;" horiz-adv-x="601" 
d="M303 521q59 0 107.5 -21t82.5 -56.5t52.5 -83t18.5 -100.5q0 -57 -20.5 -106.5t-56.5 -86.5t-84.5 -58.5t-103.5 -21.5q-60 0 -108 21t-82.5 57t-53 83.5t-18.5 100.5q0 57 20.5 106.5t56.5 86t84.5 58t104.5 21.5zM281 474q-23 0 -44 -9.5t-37 -30t-25 -53t-9 -77.5
q0 -44 9 -91.5t28 -87t48 -65.5t69 -26q23 0 44 9.5t36.5 30.5t25 53.5t9.5 77.5q0 43 -9 90.5t-28 87.5t-48 65.5t-69 25.5z" />
    <glyph glyph-name="uni043F" unicode="&#x43f;" horiz-adv-x="648" 
d="M420 438q0 11 -4 15.5t-16 4.5h-152q-12 0 -16 -4.5t-4 -15.5v-360q0 -17 5 -25t25 -10l34 -3v-40h-261v40l46 3q20 2 25.5 10t5.5 25v346q0 17 -5.5 25t-25.5 10l-46 3v40h586v-40l-46 -3q-20 -2 -25.5 -10t-5.5 -25v-346q0 -17 5.5 -25t25.5 -10l46 -3v-40h-261v40
l33 3q20 2 25.5 10t5.5 25v360z" />
    <glyph glyph-name="uni0440" unicode="&#x440;" horiz-adv-x="636" 
d="M324 -248h-296v40l46 3q20 2 25.5 10t5.5 25v518q0 29 -3 39t-20 19l-67 35v6l210 81v-82q19 14 39.5 27t39.5 24q15 9 34.5 14.5t44.5 5.5q51 0 91 -19t67.5 -53t42.5 -79.5t15 -98.5q0 -60 -24.5 -111.5t-64 -89t-89.5 -58.5t-102 -21q-23 0 -48.5 4t-45.5 12v-171
q0 -17 5.5 -25t25.5 -9l68 -3v-43zM225 125q0 -42 29.5 -68.5t74.5 -26.5q28 0 54 11.5t46 34.5t32.5 58t12.5 82q0 57 -13.5 100t-36 71.5t-52.5 43t-64 14.5q-23 0 -44.5 -9.5t-38.5 -25.5v-285z" />
    <glyph glyph-name="uni0441" unicode="&#x441;" horiz-adv-x="525" 
d="M276 -13q-52 0 -95.5 19.5t-75.5 53.5t-50 80.5t-18 100.5q0 66 25.5 118t66.5 87.5t92.5 54t104.5 18.5q28 0 54 -5t46.5 -15t32.5 -25.5t12 -36.5q0 -28 -19.5 -46t-55.5 -16q-19 45 -46.5 69t-71.5 24q-27 0 -50.5 -11t-41 -32t-28 -52.5t-10.5 -72.5
q0 -44 13.5 -83.5t37.5 -69t57.5 -47t73.5 -17.5q39 0 73.5 10.5t67.5 31.5l21 -30l-34 -28q-41 -33 -87 -56.5t-95 -23.5z" />
    <glyph glyph-name="uni0442" unicode="&#x442;" horiz-adv-x="523" 
d="M322 458v-379q0 -18 5.5 -26t25.5 -10l45 -3v-40h-273v40l45 3q20 2 26 10t6 26v379h-26q-33 0 -52 -3t-31 -11.5t-18.5 -23.5t-13.5 -39l-12 -41h-39l7 164l203 -2h82l204 2l7 -164h-39l-12 41q-7 24 -13.5 39t-18 23.5t-31 11.5t-52.5 3h-25z" />
    <glyph glyph-name="uni0443" unicode="&#x443;" horiz-adv-x="573" 
d="M149 -267q-30 0 -45.5 19t-15.5 42t15 38q8 3 22.5 8t30.5 11t29.5 11.5t19.5 8.5q12 8 20 18t16 28l19 47l-191 470q-7 16 -16 20.5t-36 6.5l-15 1v40h271v-40l-14 -1q-38 -3 -50 -9t-4 -26l117 -307l98 269q8 21 10.5 34.5t-1.5 21t-15 11t-30 5.5l-21 2v40h214v-40
l-13 -2q-18 -3 -29.5 -5t-20.5 -9t-17 -20.5t-18 -38.5l-193 -488q-20 -50 -37.5 -82t-34 -50.5t-32.5 -26t-33 -7.5z" />
    <glyph glyph-name="uni0444" unicode="&#x444;" horiz-adv-x="777" 
d="M448 520q71 -3 125.5 -25t91 -56.5t55.5 -79.5t19 -96q0 -54 -21.5 -101.5t-60 -84.5t-92 -60.5t-117.5 -28.5v-158q0 -17 5.5 -25t25.5 -10l46 -3v-40h-273v40l46 3q19 2 24.5 10t5.5 25v158q-71 3 -125.5 25t-91 56.5t-55.5 79.5t-19 96q0 54 21.5 101.5t60 84.5
t92 60.5t117.5 28.5v134q0 15 -0.5 24.5t-2.5 15.5t-6.5 10t-13.5 9l-67 35v6l210 79v-313zM166 283q0 -36 8 -75.5t27 -73.5t50 -60t77 -35v435q-72 -3 -117 -48.5t-45 -142.5zM610 225q0 36 -8 75.5t-27 73.5t-50 60t-77 35v-435q72 3 117 48.5t45 142.5z" />
    <glyph glyph-name="uni0445" unicode="&#x445;" horiz-adv-x="608" 
d="M10 40l17 1q18 1 31 4.5t24.5 11t24.5 20.5t31 34l109 123l-148 200q-13 16 -24 20t-36 6l-19 2v40h271v-40l-18 -1q-35 -2 -40 -8.5t15 -33.5l72 -96l49 65q17 23 26 36.5t9.5 21t-8 10t-26.5 4.5l-21 2v40h216v-40l-13 -1q-19 -2 -32.5 -5t-26 -10.5t-25.5 -20.5
t-31 -34l-90 -104l163 -219q6 -8 11.5 -12.5t12 -7t15 -4t21.5 -2.5l18 -2v-40h-271v40l18 1q35 2 40 8.5t-15 33.5l-86 116l-67 -85q-18 -23 -26.5 -36.5t-8.5 -21t9 -10.5t27 -4l21 -2v-40h-219v40z" />
    <glyph glyph-name="uni0446" unicode="&#x446;" horiz-adv-x="646" 
d="M35 0v40l46 3q20 2 25.5 10t5.5 25v346q0 17 -5.5 25t-25.5 10l-46 3v40h256v-40l-28 -3q-20 -2 -25.5 -10t-5.5 -25v-346q0 -21 6.5 -27.5t26.5 -6.5h129q18 0 24 7.5t6 26.5v346q0 17 -5 25t-25 10l-29 3v40h256v-40l-46 -3q-20 -2 -25.5 -10t-5.5 -25v-346
q0 -16 5.5 -25t30.5 -9h36l6 -183h-39l-18 62q-8 28 -18 44t-26 23t-41.5 8.5t-64.5 1.5h-380z" />
    <glyph glyph-name="uni0447" unicode="&#x447;" horiz-adv-x="628" 
d="M86 424q0 17 -5.5 25t-25.5 10l-40 3v40h258v-40l-36 -3q-20 -2 -25.5 -10t-5.5 -25v-64q0 -55 23 -80.5t77 -25.5q29 0 49.5 3t40.5 10v157q0 17 -5 25t-25 10l-37 3v40h264v-40l-46 -3q-20 -2 -25.5 -10t-5.5 -25v-346q0 -17 5.5 -25t25.5 -10l46 -3v-40h-270v40l43 3
q20 2 25 10t5 25v148q-30 -11 -61 -18.5t-74 -7.5q-93 0 -134 39t-41 127v58z" />
    </font>
</defs>
</svg>
