<?xml version="1.0" standalone="no"?>
<!DOCTYPE svg PUBLIC "-//W3C//DTD SVG 1.1//EN" "http://www.w3.org/Graphics/SVG/1.1/DTD/svg11.dtd" >
<svg xmlns="http://www.w3.org/2000/svg" xmlns:xlink="http://www.w3.org/1999/xlink" version="1.1">
<metadata>
Created by Christoph Koeberlin (http://christoph.koe.berlin)
Copyright (c) 2017 Swiss Typefaces Sarl. All rights reserved.
</metadata>
<defs>
<font id="Font" horiz-adv-x="0" >
  <font-face 
    font-family="Font"
    font-weight="500"
    font-style="italic"
    font-stretch="normal"
    units-per-em="1000"
    panose-1="2 4 6 4 6 0 0 0 0 4"
    ascent="800"
    descent="-200"
    x-height="515"
    cap-height="758"
    bbox="-477 -403 1385 1081"
    underline-thickness="67"
    underline-position="-130"
    slope="-17"
    unicode-range="U+0020-FEFF"
  />
<missing-glyph horiz-adv-x="640" 
d="M70 758h500v-758h-500v758zM320 396l217 343h-434zM89 30l221 349l-221 349v-698zM551 30v698l-220 -349zM537 19l-217 343l-217 -343h434z" />
    <glyph glyph-name="f_f.liga" unicode="ff" horiz-adv-x="699" 
d="M490 435h-214l-76 -331q-23 -99 -59.5 -169t-78.5 -114.5t-85.5 -65t-81.5 -20.5t-62 19t-24 46q0 20 14.5 37t40.5 17q17 0 29.5 -9t24 -20t22.5 -20t25 -9q11 0 20.5 6t18.5 24.5t19 51.5t22 87l105 470h-93l8 31l101 35q12 36 27 64t32 51.5t38 44t45 40.5
q56 47 103 68.5t80 21.5q52 0 52 -53q0 -12 -4 -24t-11.5 -22.5t-19.5 -17t-27 -6.5q-12 0 -25.5 3.5t-28 8t-30.5 8t-33 3.5q-13 0 -22.5 -4.5t-17.5 -18.5t-15 -41.5t-15 -72.5l-9 -52h222q49 143 145 223q57 47 104 68.5t79 21.5q53 0 53 -53q0 -11 -4 -23.5t-12 -22.5
t-20 -16.5t-27 -6.5q-12 0 -25.5 3.5t-28 7.5t-30 7.5t-33.5 3.5q-13 0 -22.5 -4.5t-17 -18.5t-14.5 -41.5t-15 -72.5l-13 -76h152l-23 -67h-139l-64 -276q-23 -99 -59 -169.5t-78 -115t-86 -65t-81 -20.5q-38 0 -62 19.5t-24 45.5q0 21 14 38t40 17q17 0 30 -9t24 -20.5
t22.5 -20.5t25.5 -9q11 0 20 6.5t18 24.5t19 51.5t22 87.5z" />
    <glyph glyph-name="f_i.liga" unicode="fi" horiz-adv-x="662" 
d="M200 104q-23 -99 -59.5 -169t-78.5 -114.5t-85.5 -65t-81.5 -20.5t-62 19t-24 46q0 20 14.5 37t40.5 17q17 0 29.5 -9t24 -20t22.5 -20t25 -9q11 0 20.5 6t18.5 24.5t19 51.5t22 87l105 470h-93l8 31l101 35q26 75 61.5 128.5t84.5 95.5t94.5 66t74.5 24q53 0 53 -53
q0 -11 -4 -23.5t-12 -22.5t-20 -16.5t-27 -6.5q-12 0 -23.5 3.5t-23.5 7.5t-25.5 7.5t-30.5 3.5q-13 0 -22.5 -4.5t-17 -19t-14.5 -41.5t-15 -72l-14 -76h359l-151 -380q-12 -29 -13 -43t13 -14q9 0 22.5 9.5t30 27t35.5 42t37 54.5l34 -19q-59 -97 -119 -144.5t-120 -47.5
q-47 0 -63 30t10 95l130 323h-214zM641 642q-35 0 -58.5 24t-23.5 59t23.5 59t58.5 24t59 -24t24 -59t-24 -59t-59 -24z" />
    <glyph glyph-name="f_f_i.liga" unicode="ffi" horiz-adv-x="1005" 
d="M-105 -265q-38 0 -62 19t-24 46q0 20 14.5 37t40.5 17q17 0 29.5 -9t24 -20t22.5 -20t25 -9q11 0 20.5 6t18.5 24.5t19 51.5t22 87l105 470h-93l8 31l101 35q12 36 27 64t32 51.5t38 44t45 40.5q56 47 103 68.5t80 21.5q52 0 52 -53q0 -12 -4 -24t-11.5 -22.5t-19.5 -17
t-27 -6.5q-12 0 -25.5 3.5t-28 8t-30.5 8t-33 3.5q-13 0 -22.5 -4.5t-17.5 -18.5t-15 -41.5t-15 -72.5l-9 -52h222q26 75 61 128.5t84 94.5q50 42 95.5 66t74.5 24q52 0 52 -53q0 -11 -4 -23.5t-11.5 -22.5t-19.5 -16.5t-27 -6.5q-12 0 -23.5 3.5t-23.5 7.5t-25.5 7.5
t-31.5 3.5q-13 0 -22.5 -4.5t-17 -18.5t-14.5 -41.5t-15 -72.5l-13 -76h359l-152 -380q-23 -57 0 -57q18 0 53 36.5t72 96.5l34 -19q-59 -97 -119 -144.5t-120 -47.5q-47 0 -62.5 30t10.5 95l129 323h-214l-64 -276q-23 -99 -59 -169t-78 -115t-86 -65.5t-81 -20.5
q-38 0 -62 19.5t-24 45.5q0 21 14 38t40 17q17 0 30 -9t24 -20.5t22.5 -20.5t25.5 -9q11 0 20 6.5t18 24.5t19 51.5t22 87.5l93 415h-214l-76 -331q-23 -99 -59.5 -169t-78.5 -114.5t-85.5 -65t-81.5 -20.5zM984 642q-35 0 -59 24t-24 59t24 59t59 24t59 -24t24 -59t-24 -59
t-59 -24z" />
    <glyph glyph-name="f_l.liga" unicode="fl" horiz-adv-x="676" 
d="M57 435l8 31l101 35q26 75 61.5 129t84.5 95q56 47 103 68.5t80 21.5q53 0 53 -53q0 -11 -4 -23.5t-12 -22.5t-20 -16.5t-27 -6.5q-12 0 -25.5 3.5t-28 7.5t-30.5 7.5t-33 3.5q-13 0 -22.5 -4.5t-17 -19t-14.5 -41.5t-15 -72l-14 -76h153l-23 -67h-139l-76 -331
q-23 -99 -59.5 -169t-78.5 -114.5t-85.5 -65t-81.5 -20.5t-62 19t-24 46q0 20 14.5 37t40.5 17q17 0 29.5 -9t24 -20t22.5 -20t25 -9q11 0 20.5 6t18.5 24.5t19 51.5t22 87l105 470h-93zM585 697q5 14 0 24t-29 13l-46 6l12 32l224 22l-234 -672q-11 -30 -12 -43.5t12 -13.5
q18 0 53 36.5t72 96.5l34 -19q-58 -97 -118.5 -144.5t-120.5 -47.5q-47 0 -60.5 30t9.5 96z" />
    <glyph glyph-name="f_f_l.liga" unicode="ffl" horiz-adv-x="1016" 
d="M925 697q5 14 0 24t-29 13l-13 1q-7 -17 -21.5 -29.5t-36.5 -12.5q-12 0 -25.5 3.5t-28 7.5t-30 7.5t-33.5 3.5q-13 0 -22.5 -4.5t-17 -18.5t-14.5 -41.5t-15 -72.5l-13 -76h152l-23 -67h-139l-64 -276q-23 -99 -59 -169.5t-78 -115t-86 -65t-81 -20.5q-38 0 -62 19.5
t-24 45.5q0 21 14 38t40 17q17 0 30 -9t24 -20.5t22.5 -20.5t25.5 -9q11 0 20 6.5t18 24.5t19 51.5t22 87.5l93 415h-214l-76 -331q-23 -99 -59.5 -169t-78.5 -114.5t-85.5 -65t-81.5 -20.5t-62 19t-24 46q0 20 14.5 37t40.5 17q17 0 29.5 -9t24 -20t22.5 -20t25 -9
q11 0 20.5 6t18.5 24.5t19 51.5t22 87l105 470h-93l8 31l101 35q12 36 27 64t32 51.5t38 44t45 40.5q56 47 103 68.5t80 21.5q52 0 52 -53q0 -12 -4 -24t-11.5 -22.5t-19.5 -17t-27 -6.5q-12 0 -25.5 3.5t-28 8t-30.5 8t-33 3.5q-13 0 -22.5 -4.5t-17.5 -18.5t-15 -41.5
t-15 -72.5l-9 -52h222q49 143 145 223q57 47 104 68.5t79 21.5q46 0 52 -41l199 20l-234 -672q-11 -30 -12 -43.5t12 -13.5q18 0 53 36.5t72 96.5l34 -19q-58 -97 -118.5 -144.5t-120.5 -47.5q-47 0 -60.5 30t9.5 96z" />
    <glyph glyph-name=".notdef" horiz-adv-x="640" 
d="M70 758h500v-758h-500v758zM320 396l217 343h-434zM89 30l221 349l-221 349v-698zM551 30v698l-220 -349zM537 19l-217 343l-217 -343h434z" />
    <glyph glyph-name="glyph1" 
 />
    <glyph glyph-name="glyph2" horiz-adv-x="260" 
 />
    <glyph glyph-name="space" unicode=" " horiz-adv-x="260" 
 />
    <glyph glyph-name="exclam" unicode="!" horiz-adv-x="307" 
d="M124 238q19 67 29.5 115t17 85.5t11 69t10.5 66t16 76.5t28 100q5 16 32.5 23.5t57.5 6t51 -12.5t14 -33q-19 -55 -36 -94.5t-33 -72t-33 -63t-35.5 -67.5t-40.5 -84.5t-48 -114.5h-41zM99 -13q-37 0 -63 26.5t-26 65.5q0 37 26 63t63 26q39 0 65.5 -26t26.5 -63
q0 -39 -26.5 -65.5t-65.5 -26.5z" />
    <glyph glyph-name="quotedbl" unicode="&#x22;" horiz-adv-x="406" 
d="M374 724q5 32 23 43.5t56 11.5q37 0 50.5 -15.5t-9.5 -58.5l-118 -215h-37zM191 724q5 32 23 43.5t56 11.5q37 0 50.5 -15.5t-9.5 -58.5l-118 -215h-37z" />
    <glyph glyph-name="numbersign" unicode="#" horiz-adv-x="802" 
d="M54 267h171l90 221h-172l27 69h173l89 219h75l-89 -219h192l89 219h75l-89 -219h170l-27 -69h-171l-90 -221h171l-28 -69h-171l-80 -198h-75l80 198h-192l-80 -198h-75l80 198h-172zM492 267l90 221h-192l-90 -221h192z" />
    <glyph glyph-name="dollar" unicode="$" horiz-adv-x="592" 
d="M516 886l-34 -109q74 -8 117.5 -39.5t43.5 -72.5q0 -31 -18 -45.5t-43 -14.5q-16 0 -26.5 8t-18.5 20t-14 25.5t-13 25.5q-9 14 -19.5 24.5t-24.5 16.5l-88 -281l19 -18q30 -27 54 -50.5t41.5 -47.5t27 -51.5t9.5 -63.5q0 -57 -26.5 -99.5t-68.5 -70.5t-94.5 -42
t-104.5 -14l-33 -107h-47l34 109q-88 10 -134 47.5t-45 81.5q0 34 20 49.5t43 14.5q18 -1 28.5 -10t17 -22t11 -28.5t11.5 -28.5q20 -41 64 -53l94 304l-37 34q-49 45 -76 89t-27 100q0 46 22.5 84.5t60.5 66.5t88 44t105 17l33 107h48zM341 477l79 255q-66 -1 -108.5 -32.5
t-42.5 -87.5q0 -35 17.5 -68t49.5 -62zM412 170q0 42 -21 75t-55 65l-86 -276q33 0 62.5 8.5t51.5 25t35 42t13 60.5z" />
    <glyph glyph-name="percent" unicode="%" horiz-adv-x="971" 
d="M892 758h96l-827 -758h-96zM697 -7q-36 0 -60.5 12.5t-39.5 32.5t-21.5 46.5t-6.5 54.5q0 55 20 107t52 92.5t73.5 65t85.5 24.5q35 0 59.5 -12t39.5 -32.5t22 -47t7 -54.5q0 -55 -20 -107t-52.5 -92.5t-74 -65t-84.5 -24.5zM703 23q22 0 40.5 17t34 44t27 60.5
t19.5 67.5t12 64t4 51q0 32 -12 51.5t-35 19.5q-22 0 -40.5 -17t-33.5 -44t-27 -60.5t-20 -67.5t-12 -64.5t-4 -50.5q0 -31 12 -51t35 -20zM252 334q-36 0 -60.5 12.5t-39.5 32.5t-21.5 46.5t-6.5 54.5q0 55 20 107t52 92.5t73.5 65t85.5 24.5q35 0 59.5 -12t39.5 -32.5
t22 -47t7 -54.5q0 -55 -20 -107t-52.5 -92.5t-74 -65t-84.5 -24.5zM258 364q22 0 40.5 17t34 44t27 60.5t19.5 67.5t12 64t4 51q0 32 -12 51.5t-35 19.5q-22 0 -40.5 -17t-33.5 -44t-27 -60.5t-20 -67.5t-12 -64.5t-4 -50.5q0 -31 12 -51t35 -20z" />
    <glyph glyph-name="ampersand" unicode="&#x26;" horiz-adv-x="1006" 
d="M339 -13q-77 0 -132 27t-89.5 69.5t-50.5 95t-16 103.5q0 73 26 131.5t64 99.5t81.5 63t79.5 22q38 0 64 -21.5t32 -59.5q39 33 66 63t44 59.5t24.5 61t8.5 69.5q1 27 5 43.5t12 26t20.5 13t30.5 3.5q19 0 34.5 -6.5t22.5 -20.5t3 -36t-23 -53q-44 -71 -89.5 -126.5
t-103 -105t-132.5 -99t-178 -108.5q9 -43 30.5 -79t53 -62.5t72.5 -41t89 -14.5q112 0 198 67.5t139 202.5l-31 26q-14 11 -28 23t-28.5 22t-27.5 16.5t-24 6.5q-24 0 -42 -15.5t-16 -42.5q1 -19 9 -33t18 -27t18 -25t8 -27q0 -21 -16 -36t-39 -15q-33 0 -53.5 26.5
t-20.5 69.5q0 28 13 55t32 51t40.5 43.5t39.5 32.5q26 19 42.5 25t31.5 6q12 0 24.5 -4t28.5 -13t37 -24t48 -38l37 -31q28 -23 57 -44t55 -21q23 0 39 15.5t16 41.5q0 22 -7.5 36.5t-16 27.5t-16 27t-7.5 35q0 19 15 34t43 15q37 0 52.5 -27t15.5 -65q0 -33 -14 -64.5
t-35 -59t-45.5 -49t-44.5 -34.5q-22 -14 -36.5 -19t-28.5 -5q-24 0 -49 13.5t-63 43.5q-24 -57 -59.5 -120t-86.5 -116.5t-118 -88.5t-153 -35zM136 365v-10t1 -10q45 25 85.5 48.5t77.5 48.5q5 38 -8.5 64.5t-44.5 26.5q-25 0 -45.5 -13.5t-35 -36.5t-22.5 -53.5t-8 -64.5z
" />
    <glyph glyph-name="quotesingle" unicode="'" horiz-adv-x="223" 
d="M191 724q5 32 23 43.5t56 11.5q37 0 50.5 -15.5t-9.5 -58.5l-118 -215h-37z" />
    <glyph glyph-name="parenleft" unicode="(" horiz-adv-x="339" 
d="M126 -245q-24 33 -43.5 72t-33.5 82.5t-22 90.5t-8 94q0 97 31 197t91 196.5t148 185t203 162.5l24 -36q-93 -74 -165.5 -169t-123 -197t-77 -205t-26.5 -194q0 -72 7.5 -134t31.5 -122z" />
    <glyph glyph-name="parenright" unicode=")" horiz-adv-x="339" 
d="M241 835q24 -33 43.5 -72t33.5 -82.5t22 -90.5t8 -94q0 -97 -31 -197t-91 -196.5t-148 -185t-203 -162.5l-24 36q93 74 165.5 169t123 197t77 205t26.5 194q0 72 -7.5 134t-31.5 122z" />
    <glyph glyph-name="asterisk" unicode="*" horiz-adv-x="511" 
d="M190 462l-18 24l125 110l-117 117l19 24l142 -85l74 147l30 -11l-38 -160l164 -27l-1 -30l-166 -14l25 -164l-29 -8l-63 152z" />
    <glyph glyph-name="plus" unicode="+" horiz-adv-x="653" 
d="M293 227h-231v71h231v218h75v-218h231v-71h-231v-227h-75v227z" />
    <glyph glyph-name="comma" unicode="," horiz-adv-x="304" 
d="M204 68q0 -32 -16.5 -66t-47 -66t-73.5 -60.5t-95 -50.5l-15 35q60 31 95 67t35 78q0 53 -81 71q7 48 37 69t66 21q40 0 67.5 -26t27.5 -72z" />
    <glyph glyph-name="hyphen" unicode="-" horiz-adv-x="427" 
d="M83 301h294l-26 -77h-294z" />
    <glyph glyph-name="period" unicode="." horiz-adv-x="284" 
d="M96 -13q-37 0 -63 26.5t-26 65.5q0 37 26 63t63 26q39 0 65.5 -26t26.5 -63q0 -39 -26.5 -65.5t-65.5 -26.5z" />
    <glyph glyph-name="slash" unicode="/" horiz-adv-x="547" 
d="M577 806h96l-625 -858h-95z" />
    <glyph glyph-name="zero" unicode="0" horiz-adv-x="691" 
d="M281 -13q-55 0 -95 20.5t-66 55t-38.5 81t-12.5 99.5q0 59 16.5 122t46 122.5t69.5 112.5t87 93t99 63t105 23q55 0 95 -20.5t66 -55t38.5 -81.5t12.5 -99q0 -59 -16.5 -122t-46 -122.5t-69.5 -112.5t-87 -93t-99 -63t-105 -23zM289 34q40 0 77 28.5t68.5 76t57 107.5
t43.5 123.5t27.5 125t9.5 110.5q0 59 -21 93t-67 34q-41 0 -77.5 -28.5t-68 -76t-57 -107.5t-43.5 -123.5t-27.5 -125t-9.5 -110.5q0 -59 21 -93t67 -34z" />
    <glyph glyph-name="one" unicode="1" horiz-adv-x="400" 
d="M279 634h-126l11 33q54 3 94.5 11.5t72 22.5t55 33t44.5 43h28l-241 -701q-5 -15 -0.5 -24t28.5 -14l25 -5l-11 -33h-288l11 33l52 7q28 4 38 12.5t15 23.5z" />
    <glyph glyph-name="two" unicode="2" horiz-adv-x="598" 
d="M446 779q94 0 144 -43.5t50 -109.5q0 -46 -17.5 -87.5t-50 -81t-78 -78.5t-102.5 -79q-6 -5 -23.5 -17t-42 -28.5t-53 -36l-57 -39t-54 -37.5t-43.5 -31l198 1q37 0 62.5 3.5t45.5 14t38.5 29t41.5 48.5l31 -15l-115 -192h-480l8 23q146 107 251 191.5t172.5 152.5
t99 122.5t31.5 101.5q0 48 -27 80t-84 32q-63 0 -109 -39.5t-66 -123.5h-44q9 54 31.5 98t57 75.5t81 48.5t103.5 17z" />
    <glyph glyph-name="three" unicode="3" horiz-adv-x="583" 
d="M193 -13q-43 0 -79.5 11t-63 29t-41.5 42t-15 50q0 27 17.5 46.5t47.5 19.5q18 0 29.5 -7.5t18.5 -19.5t12.5 -27t11.5 -30q6 -13 13.5 -25t19 -21t28 -14.5t40.5 -5.5q31 0 62.5 12.5t56.5 37.5t40.5 62t15.5 87q0 38 -11 67.5t-30 50t-43 31t-51 10.5q-9 0 -18.5 -1
t-19.5 -4l-6 42l52 12q42 9 80.5 23t68 34t47 47.5t17.5 64.5q0 42 -28 67t-82 25q-27 0 -52.5 -7t-47.5 -23t-38.5 -42t-26.5 -64h-42q17 102 86.5 157t173.5 55q89 0 137.5 -37t48.5 -96q0 -31 -14.5 -58.5t-39.5 -50.5t-58.5 -40t-71.5 -27l-1 -3q48 -29 74 -75t26 -103
q0 -59 -29.5 -113.5t-78 -96.5t-110.5 -67t-126 -25z" />
    <glyph glyph-name="four" unicode="4" horiz-adv-x="648" 
d="M342 209h-343l12 35l539 514h109l-162 -469h137l-27 -80h-138l-72 -209h-127zM370 289l114 333l-345 -333h231z" />
    <glyph glyph-name="five" unicode="5" horiz-adv-x="566" 
d="M189 -13q-44 0 -81 11t-64 29t-42 42t-15 50q0 27 17.5 46.5t47.5 19.5q18 0 28.5 -6.5t17.5 -17t12 -24t11 -27.5t14 -26.5t21.5 -22.5t33 -16t48.5 -6q31 0 61.5 9.5t54.5 28t39 47.5t15 68t-19.5 73.5t-53.5 64.5t-81.5 55.5t-102.5 47.5l174 325h332l-69 -123h-273
l-53 -95q123 -50 187 -118.5t64 -153.5q0 -66 -28.5 -118.5t-75 -88.5t-104.5 -55t-116 -19z" />
    <glyph glyph-name="six" unicode="6" horiz-adv-x="639" 
d="M282 -13q-50 0 -92 18t-72.5 51.5t-47.5 80.5t-17 106q0 80 47 164.5t135 160t214 136t285 92.5l9 -46q-96 -21 -175.5 -58.5t-142.5 -86t-110 -104.5t-77 -114q33 31 76 49.5t89 18.5q36 0 69.5 -11.5t59 -34t40.5 -56.5t15 -80q0 -67 -29.5 -120t-74.5 -90t-99 -56.5
t-102 -19.5zM183 184q0 -72 30 -111t80 -39q32 0 60.5 16.5t49.5 45t33.5 67t12.5 81.5q0 37 -11 63.5t-29.5 44t-42.5 25.5t-50 8q-22 0 -45 -6.5t-48 -21.5q-40 -92 -40 -173z" />
    <glyph glyph-name="seven" unicode="7" horiz-adv-x="600" 
d="M-12 -17q-24 -4 -29 7t27 43q142 141 293 290.5t319 316.5l-226 -2q-44 0 -72 -4.5t-48 -16t-36.5 -31t-38.5 -50.5l-37 12l119 210h478l9 -24l-413 -437q-41 -44 -71 -79.5t-52.5 -65t-39.5 -53.5t-32 -45q-14 -19 -24.5 -30t-20.5 -18t-21 -10t-27 -5z" />
    <glyph glyph-name="eight" unicode="8" horiz-adv-x="606" 
d="M261 -13q-50 0 -92.5 14t-73.5 38.5t-48.5 59t-17.5 75.5q0 40 17.5 75t48.5 63t73.5 49t92.5 34q-34 40 -52.5 82.5t-18.5 92.5q0 44 19 82t52.5 66.5t79.5 44.5t100 16q46 0 83.5 -11.5t64 -31.5t41 -48.5t14.5 -61.5q0 -38 -17.5 -69.5t-47 -56t-68 -43.5t-79.5 -31
l13 -14q39 -42 67 -88t28 -103q0 -50 -23 -92.5t-61.5 -74t-89 -49.5t-105.5 -18zM413 447q68 25 106 69t38 101q0 51 -32.5 82.5t-96.5 31.5q-60 0 -95 -28t-35 -73q0 -41 22 -74.5t60 -73.5zM124 181q0 -72 42 -109t111 -37q30 0 56.5 8t46.5 23.5t32 38.5t12 52
q0 37 -24.5 76t-58.5 75l-61 66q-33 -12 -61.5 -31.5t-49.5 -44.5t-33 -55t-12 -62z" />
    <glyph glyph-name="nine" unicode="9" horiz-adv-x="628" 
d="M16 16q95 20 170.5 57.5t133.5 86t98.5 105t65.5 115.5q-33 -29 -78.5 -49t-100.5 -20q-36 0 -69.5 12t-59 36t-40.5 59.5t-15 82.5q0 67 28.5 119t72.5 87.5t97 53.5t102 18q50 0 93 -17t74.5 -49t49 -78.5t17.5 -104.5q0 -80 -39 -164.5t-118 -161t-197 -138
t-277 -96.5zM259 529q0 -37 11 -64.5t29.5 -46t42.5 -28t50 -9.5q23 0 50.5 7.5t54.5 24.5q14 42 21 81.5t7 77.5q0 75 -30 117.5t-83 42.5q-33 0 -61 -15.5t-48.5 -42.5t-32 -64.5t-11.5 -80.5z" />
    <glyph glyph-name="colon" unicode=":" horiz-adv-x="321" 
d="M96 -13q-37 0 -63 26.5t-26 65.5q0 37 26 63t63 26q39 0 65.5 -26t26.5 -63q0 -39 -26.5 -65.5t-65.5 -26.5zM225 340q-37 0 -63 26.5t-26 65.5q0 37 26 63t63 26q39 0 65.5 -26t26.5 -63q0 -39 -26.5 -65.5t-65.5 -26.5z" />
    <glyph glyph-name="semicolon" unicode=";" horiz-adv-x="331" 
d="M202 68q0 -32 -16.5 -66t-47 -66t-73.5 -60.5t-95 -50.5l-15 35q60 31 95 67t35 78q0 53 -81 71q7 48 37 69t66 21q40 0 67.5 -26t27.5 -72zM229 340q-37 0 -63 26.5t-26 65.5q0 37 26 63t63 26q39 0 65.5 -26t26.5 -63q0 -39 -26.5 -65.5t-65.5 -26.5z" />
    <glyph glyph-name="less" unicode="&#x3c;" horiz-adv-x="653" 
d="M38 295l527 225v-77l-426 -181l426 -181v-77l-527 226v65z" />
    <glyph glyph-name="equal" unicode="=" horiz-adv-x="653" 
d="M72 406h513v-72h-513v72zM72 179h513v-72h-513v72z" />
    <glyph glyph-name="greater" unicode="&#x3e;" horiz-adv-x="653" 
d="M622 230l-527 -226v77l426 181l-426 181v77l527 -225v-65z" />
    <glyph glyph-name="question" unicode="?" horiz-adv-x="615" 
d="M261 397q7 25 14.5 41.5t19.5 27.5t32 17.5t53 12.5l75 13q36 6 60.5 13.5t39.5 17.5t21 23.5t6 31.5q0 24 -12.5 47.5t-35.5 42t-54.5 30t-68.5 11.5q-38 0 -61.5 -11t-37.5 -34q-14 -22 -31.5 -38.5t-44.5 -16.5q-26 0 -46.5 15.5t-20.5 43.5q0 44 53.5 69t148.5 25
q63 0 115 -18t89.5 -49t58.5 -74t21 -92q0 -31 -7 -54.5t-23.5 -41t-43 -29.5t-65.5 -19l-146 -28q-21 -4 -34.5 -8t-22.5 -10.5t-16 -17t-14 -28.5l-30 -72h-36zM202 -13q-37 0 -63 26.5t-26 65.5q0 37 26 63t63 26q39 0 65.5 -26t26.5 -63q0 -39 -26.5 -65.5t-65.5 -26.5z
" />
    <glyph glyph-name="at" unicode="@" horiz-adv-x="912" 
d="M688 37q-36 -19 -97 -34.5t-133 -15.5q-69 0 -134.5 22t-117 63.5t-83 102t-31.5 138.5q0 93 40.5 177t109 148.5t158.5 102.5t189 38q60 0 120 -18.5t108 -55t78 -91t30 -127.5q0 -78 -27 -136.5t-73 -97t-108 -58t-132 -19.5q-61 0 -61 27q0 11 5.5 26t13.5 35l17 44
h-5q-46 -61 -92 -95.5t-102 -34.5q-39 0 -65.5 25t-26.5 71q0 36 17 76t44.5 78.5t64 73.5t75 61.5t77 42.5t70.5 16q39 0 76 -14.5t66 -29.5l-118 -307q-7 -17 -10.5 -26t-3.5 -14q0 -3 1.5 -4.5t7.5 -1.5q40 0 81.5 15.5t75.5 47t55 80.5t21 115q0 55 -22 100.5t-60.5 78
t-90 50t-111.5 17.5q-84 0 -158.5 -31.5t-129.5 -85.5t-87 -126t-32 -154q0 -60 19.5 -113.5t58 -93.5t96 -63.5t133.5 -23.5q26 0 53 3.5t52 9.5t45.5 13t34.5 14zM421 246q14 0 37 11t49.5 36t53.5 66t50 100l38 101q-8 21 -42 21t-73 -27.5t-72.5 -69.5t-55.5 -92
t-22 -96q0 -50 37 -50z" />
    <glyph glyph-name="A" unicode="A" horiz-adv-x="776" 
d="M-96 36l39 5q15 2 27 7t25 17t30 32.5t42 53.5l494 638h52l19 -687q1 -31 10.5 -43.5t39.5 -17.5l35 -5l-11 -36h-312l11 36l39 5q31 4 41 15.5t9 39.5l-5 173h-260l-83 -108q-29 -38 -42.5 -60.5t-15 -35t6 -17.5t21.5 -7l36 -5l-12 -36h-247zM488 331l-7 265l-204 -265
h211z" />
    <glyph glyph-name="B" unicode="B" horiz-adv-x="784" 
d="M543 758q124 0 187 -36.5t63 -102.5q0 -43 -19.5 -76.5t-51 -58t-72.5 -41t-84 -25.5v-1q30 -4 61 -16.5t56.5 -33.5t41.5 -49.5t16 -64.5q0 -51 -28.5 -97t-79.5 -80.5t-120.5 -55t-151.5 -20.5h-383l12 36l38 5q31 4 44 15t22 40l173 566q9 29 2.5 40t-34.5 15l-36 5
l11 36h333zM469 709q-28 0 -37.5 -3.5t-14.5 -18.5l-79 -256h98q55 0 94.5 16t65 42t37.5 60t12 69q0 43 -30.5 67t-105.5 24h-40zM323 381l-80 -263q-12 -40 -0.5 -55t52.5 -15h38q63 0 109.5 17t78 46.5t47 69t15.5 84.5q0 57 -42.5 86.5t-137.5 29.5h-80z" />
    <glyph glyph-name="C" unicode="C" horiz-adv-x="799" 
d="M424 -13q-78 0 -142.5 22.5t-110 63t-70.5 97.5t-25 126q0 105 46.5 194t124 153t177 100t205.5 36q67 0 121 -9t92 -25l-15 -191h-36l-22 72q-17 57 -57.5 75.5t-105.5 18.5q-63 0 -129 -26t-120 -79t-88.5 -132.5t-34.5 -185.5q0 -65 17 -112.5t46.5 -78.5t69.5 -46
t87 -15q31 0 57 6t50 19t48 32t51 46l70 69h36l-103 -191q-50 -17 -107 -28t-132 -11z" />
    <glyph glyph-name="D" unicode="D" horiz-adv-x="882" 
d="M-10 36l38 5q31 4 44 15t22 40l173 566q9 29 2.5 40t-34.5 15l-36 5l11 36h289q92 0 164.5 -19.5t123 -56t77 -90t26.5 -120.5q0 -90 -41.5 -175t-119.5 -151t-189 -106t-249 -40h-313zM309 50q115 0 196 41.5t131.5 106.5t73.5 144t23 154q0 114 -59.5 163t-180.5 49
q-24 0 -38 -0.5t-21.5 -3t-11 -6.5t-5.5 -11l-174 -568q-7 -22 -8 -35.5t5 -21t19.5 -10t37.5 -2.5h12z" />
    <glyph glyph-name="E" unicode="E" horiz-adv-x="754" 
d="M511 758l306 2l-50 -198h-36l-1 53q-1 30 -8 48t-27 27.5t-56.5 12.5t-95.5 3h-100q-20 0 -26 -20l-84 -274h127q23 0 39 2t28.5 9t23 21t23.5 38l22 41h36l-86 -281h-36l3 41q2 24 0 38t-10 21t-23 9t-38 2h-127l-66 -217q-9 -29 -10.5 -45.5t6 -25t24 -11t44.5 -2.5h45
q62 0 101 3t66 13t47.5 28t47.5 47l62 68h37l-120 -211h-621l12 36l38 5q31 4 44 15t22 40l173 566q9 29 2.5 40t-34.5 15l-36 5l11 36h301z" />
    <glyph glyph-name="F" unicode="F" horiz-adv-x="723" 
d="M-10 36l38 5q31 4 44 15t22 40l173 566q9 29 2.5 40t-34.5 15l-36 5l11 36h325l305 2l-50 -198h-36l-2 53q-1 30 -8 48t-26.5 27.5t-55.5 12.5t-96 3h-123q-20 0 -26 -20l-84 -274h137q23 0 38.5 2t28 9.5t23 21t23.5 37.5l22 41h36l-86 -281h-36l4 41q2 24 0 38
t-10.5 21t-23 9t-37.5 2h-137l-79 -257q-9 -29 -2.5 -40t35.5 -13l66 -5l-12 -38h-345z" />
    <glyph glyph-name="G" unicode="G" horiz-adv-x="861" 
d="M424 -13q-78 0 -142 22.5t-109.5 63t-70.5 97.5t-25 126q0 105 46 194t122 153t175 100t205 36q66 0 120.5 -9t92.5 -25l-15 -191h-37l-22 72q-17 57 -57 75.5t-105 18.5q-63 0 -128.5 -26t-118.5 -79t-86.5 -132.5t-33.5 -185.5q0 -65 16.5 -112.5t45.5 -78.5t68.5 -46
t85.5 -15q26 0 54.5 5.5t49.5 14.5l72 208q11 29 5 41t-34 14l-69 5l13 36h347l-15 -44l-88 -4l-74 -212l-17 -72q-36 -3 -67 -11.5t-62.5 -17t-65.5 -15t-76 -6.5z" />
    <glyph glyph-name="H" unicode="H" horiz-adv-x="936" 
d="M293 0h-315l12 36l38 5q31 4 44 15t22 40l173 566q9 29 2.5 40t-34.5 15l-36 5l11 36h315l-11 -36l-39 -5q-30 -4 -43 -15t-22 -40l-77 -248h369l77 248q9 29 2 40t-34 15l-36 5l11 36h315l-11 -36l-40 -5q-30 -4 -43 -15t-22 -40l-173 -566q-9 -29 -2.5 -40t34.5 -15
l36 -5l-11 -36h-315l11 36l39 5q30 4 43 15t22 40l79 257h-369l-79 -257q-9 -29 -2 -40t34 -15l36 -5z" />
    <glyph glyph-name="I" unicode="I" horiz-adv-x="425" 
d="M267 662q9 29 2.5 40t-34.5 15l-36 5l11 36h315l-11 -36l-39 -5q-30 -4 -43 -15t-22 -40l-174 -566q-9 -29 -2 -40t34 -15l36 -5l-11 -36h-315l12 36l38 5q31 4 44 15t22 40z" />
    <glyph glyph-name="J" unicode="J" horiz-adv-x="416" 
d="M278 206q-12 -39 -27.5 -67.5t-35 -50.5t-44 -40.5t-54.5 -38.5q-17 -11 -40 -25t-48.5 -29.5t-52 -31t-50.5 -28.5l-19 35q52 36 88 63.5t61.5 56t43 62.5t32.5 83l143 467q9 29 2 40t-34 15l-36 5l11 36h315l-11 -36l-40 -5q-30 -4 -43 -15t-22 -40z" />
    <glyph glyph-name="K" unicode="K" horiz-adv-x="865" 
d="M318 363l-82 -267q-9 -29 -2 -40t34 -15l36 -5l-11 -36h-315l12 36l38 5q31 4 44 15t22 40l173 566q9 29 2.5 40t-34.5 15l-36 5l11 36h315l-11 -36l-39 -5q-30 -4 -43 -15t-22 -40l-81 -264l317 210q78 52 112 79t6 30l-52 5l11 36h278l-11 -36l-40 -5q-20 -3 -40 -10
t-44 -20t-53.5 -31.5t-68.5 -44.5l-290 -191l255 -331q17 -22 28 -33.5t32 -14.5l33 -5l-11 -36h-198z" />
    <glyph glyph-name="L" unicode="L" horiz-adv-x="703" 
d="M249 139q-9 -30 -10.5 -47t7.5 -26t29.5 -11.5t54.5 -2.5h43q44 0 73.5 3t52 12.5t42.5 26.5t45 46l63 71h36l-119 -211h-588l12 36l38 5q31 4 44 15t22 40l173 566q9 29 2.5 40t-34.5 15l-36 5l11 36h315l-11 -36l-39 -5q-30 -4 -43 -15t-22 -40z" />
    <glyph glyph-name="M" unicode="M" horiz-adv-x="1072" 
d="M321 610l-137 -398q-20 -58 -29.5 -91.5t-10 -50.5t7 -22t21.5 -7l37 -5l-11 -36h-237l11 36l39 5q15 2 26 7t22.5 22t25 50.5t34.5 91.5l159 450q11 29 3.5 40t-35.5 15l-36 5l11 36h219l79 -549l405 549h232l-11 -36l-39 -5q-30 -4 -44 -15t-22 -40l-146 -566
q-8 -29 -0.5 -40t34.5 -15l36 -5l-11 -36h-315l11 36l39 5q31 4 43.5 15t20.5 40l132 514l-455 -618h-18z" />
    <glyph glyph-name="N" unicode="N" horiz-adv-x="914" 
d="M315 602l-124 -404q-17 -56 -23.5 -87t-5 -46t10.5 -18.5t23 -5.5l39 -5l-11 -36h-246l11 36l42 5q15 2 26.5 5.5t22.5 18.5t23 46t29 87l113 372q22 72 9 108t-61 44l11 36h183l324 -547l107 349q17 56 23.5 86.5t5 45.5t-10.5 19t-23 6l-38 5l11 36h245l-11 -36l-41 -5
q-15 -2 -26.5 -6t-22 -19t-23 -45.5t-29.5 -86.5l-175 -570h-31z" />
    <glyph glyph-name="O" unicode="O" horiz-adv-x="908" 
d="M424 -13q-71 0 -134 22.5t-110 64.5t-74 101.5t-27 133.5q0 56 17 113t48.5 109t75.5 97.5t98.5 79t117 52.5t131.5 19q71 0 134 -23t109.5 -65t73.5 -101.5t27 -132.5q0 -56 -17 -113t-48.5 -109t-75.5 -97.5t-98 -79t-117 -52.5t-131 -19zM427 42q54 0 99 21t81.5 57
t64 82.5t46 98t27.5 103.5t9 99q0 112 -52 166.5t-138 54.5q-54 0 -99.5 -21t-82 -57t-63.5 -82.5t-45.5 -98t-27.5 -103.5t-9 -99q0 -113 52 -167t138 -54z" />
    <glyph glyph-name="P" unicode="P" horiz-adv-x="762" 
d="M-10 36l38 5q31 4 44 15t22 40l173 566q9 29 2.5 40t-34.5 15l-36 5l11 36h343q57 0 107.5 -9t88 -29t59.5 -52.5t22 -80.5q0 -51 -24 -97.5t-71.5 -81.5t-118.5 -56t-166 -21h-142l-72 -235q-9 -29 -2.5 -40t35.5 -13l66 -5l-12 -38h-345zM323 378h125q60 0 102.5 19.5
t69.5 49.5t39.5 67.5t12.5 73.5q0 66 -38.5 94t-111.5 28h-46q-17 0 -27.5 -1t-17 -3.5t-9.5 -7.5t-5 -12z" />
    <glyph glyph-name="Q" unicode="Q" horiz-adv-x="908" 
d="M408 -13l-186 -69q23 5 40 6t37 1q63 0 107.5 -6.5t79.5 -15t66.5 -15t67.5 -6.5q51 0 76.5 20t45.5 62l34 -12q-15 -39 -32.5 -72t-38.5 -57.5t-46 -38.5t-54 -14q-42 0 -89.5 20t-94.5 43.5t-92.5 43.5t-84.5 20q-28 0 -49 -10q-2 -38 -16.5 -55.5t-33.5 -17.5
q-15 0 -27 10t-12 31q0 8 2.5 18t10.5 20.5t23 21.5t41 20l162 60q-57 11 -105.5 38t-84.5 67.5t-56 93t-20 115.5q0 56 17 113t48.5 109t75.5 97.5t98.5 79t117 52.5t131.5 19q71 0 134 -23t109.5 -65t73.5 -101.5t27 -132.5q0 -56 -17 -113t-48.5 -109t-75.5 -97.5
t-98 -79t-117 -52.5t-131 -19h-16zM427 42q54 0 99 21t81.5 57t64 82.5t46 98t27.5 103.5t9 99q0 112 -52 166.5t-138 54.5q-54 0 -99.5 -21t-82 -57t-63.5 -82.5t-45.5 -98t-27.5 -103.5t-9 -99q0 -113 52 -167t138 -54z" />
    <glyph glyph-name="R" unicode="R" horiz-adv-x="820" 
d="M659 -13q-39 0 -68 11.5t-46.5 37t-23 65.5t2.5 97q7 52 0 84.5t-24.5 49.5t-41.5 23t-50 6h-91l-81 -265q-9 -29 -2 -40t34 -15l36 -5l-11 -36h-315l12 36l38 5q31 4 44 15t22 40l173 566q9 29 2.5 40t-34.5 15l-36 5l11 36h314q142 0 218 -36t76 -118q0 -41 -20 -77
t-56.5 -64t-89 -46.5t-118.5 -22.5l-1 -2q33 -4 62 -15.5t49.5 -32.5t31 -51t6.5 -71l-5 -54q-8 -78 13 -106t79 -23l-6 -33q-29 -9 -52.5 -14t-51.5 -5zM441 409q61 0 103.5 18.5t68.5 46.5t38 61.5t12 62.5q0 55 -33.5 83.5t-116.5 28.5h-32q-38 0 -49 -4.5t-15 -18.5
l-85 -277z" />
    <glyph glyph-name="S" unicode="S" horiz-adv-x="636" 
d="M203 -13q-55 0 -106.5 14t-86.5 32l39 219h36l21 -133q3 -17 8.5 -31t15.5 -23q16 -14 42 -19t61 -5q41 0 75.5 11t59 30.5t38.5 46.5t14 60q0 40 -20 68.5t-58 60.5l-62 53q-91 78 -91 170q0 51 25 94.5t69.5 75.5t105.5 50t133 18q56 0 98 -9.5t75 -21.5l-42 -187h-36
l-12 78q-5 28 -12.5 44.5t-23.5 26.5q-14 8 -33 12t-40 4q-78 0 -125 -35.5t-47 -93.5q0 -28 12.5 -54.5t42.5 -52.5l62 -53q28 -24 51 -45.5t39 -44t25 -48t9 -58.5q0 -54 -25 -100t-72 -80.5t-114 -54t-151 -19.5z" />
    <glyph glyph-name="T" unicode="T" horiz-adv-x="748" 
d="M123 38l68 5q29 2 42.5 13t22.5 40l186 610h-16q-60 0 -99 -2.5t-65.5 -11.5t-45 -27t-37.5 -48l-34 -55h-36l73 198l267 -2h162l266 2l-46 -198h-36l-1 55q0 30 -8 48t-29 27t-58.5 11.5t-97.5 2.5h-16l-187 -610q-9 -29 -2.5 -40t35.5 -13l66 -5l-12 -38h-375z" />
    <glyph glyph-name="U" unicode="U" horiz-adv-x="873" 
d="M380 -13q-75 0 -132 17t-90 54.5t-40 97t19 143.5l111 363q9 29 2.5 40t-34.5 15l-36 5l11 36h315l-11 -36l-39 -5q-30 -4 -43.5 -15t-22.5 -40l-111 -364q-40 -130 -6.5 -189.5t137.5 -59.5q112 0 184.5 59t114.5 194l80 258q17 56 23 86.5t4 45.5t-11.5 19t-22.5 6
l-39 5l11 36h246l-12 -36l-41 -5q-15 -2 -26 -6t-21.5 -19t-22.5 -45.5t-29 -86.5l-79 -260q-50 -165 -144.5 -239t-244.5 -74z" />
    <glyph glyph-name="V" unicode="V" horiz-adv-x="777" 
d="M952 722l-39 -5q-15 -2 -27 -7.5t-25 -17.5t-30 -32.5t-42 -52.5l-494 -635h-52l-19 684q-1 31 -10.5 44t-38.5 17l-36 5l12 36h312l-11 -36l-40 -5q-30 -4 -40 -15.5t-9 -39.5l13 -497l334 432q29 37 42.5 59.5t15.5 35.5t-6 18t-22 7l-35 5l11 36h247z" />
    <glyph glyph-name="W" unicode="W" horiz-adv-x="1186" 
d="M1362 722l-40 -5q-15 -2 -27 -7t-25 -17t-30 -32.5t-42 -53.5l-493 -635h-52l-13 443l-345 -443h-52l-19 684q-1 31 -10.5 44t-38.5 17l-36 5l12 36h312l-11 -36l-40 -5q-30 -4 -40 -15.5t-9 -39.5l13 -497l261 338l-7 255h265l-11 -36l-62 -5q-31 -2 -41 -14.5t-9 -40.5
l13 -496l334 431q29 37 42.5 60t15.5 35.5t-6 17.5t-21 7l-36 5l11 36h248z" />
    <glyph glyph-name="X" unicode="X" horiz-adv-x="827" 
d="M-71 36l38 5q21 3 38.5 9.5t38.5 21.5t49 39t70 62l235 208l-121 275q-12 28 -24.5 42.5t-39.5 18.5l-36 5l12 36h322l-12 -36l-39 -5q-30 -4 -38 -17.5t3 -37.5l81 -185l123 109q45 40 70 64.5t32.5 38.5t0 20t-27.5 9l-27 4l12 36h267l-12 -36l-38 -5q-21 -3 -38.5 -10
t-38.5 -21.5t-49 -39t-70 -61.5l-181 -160l143 -323q12 -28 24 -42.5t40 -18.5l36 -5l-12 -36h-322l12 36l38 5q31 4 39 17.5t-3 37.5l-103 233l-178 -157q-45 -40 -69.5 -64.5t-32 -38.5t0 -20t27.5 -9l27 -4l-12 -36h-267z" />
    <glyph glyph-name="Y" unicode="Y" horiz-adv-x="790" 
d="M142 38l69 5q29 2 42.5 13t22.5 40l74 243l-126 317q-5 13 -9 23.5t-9 18t-13 12.5t-21 7l-36 5l11 36h325l-11 -36l-39 -5q-31 -4 -44 -17t-3 -38l102 -261l202 196q33 32 51 54t23.5 36t0 21t-18.5 9l-36 5l11 36h249l-12 -36l-36 -5q-15 -2 -27.5 -8t-27.5 -18.5
t-35.5 -32.5t-52.5 -51l-275 -267l-75 -244q-9 -29 -2.5 -40t35.5 -13l66 -5l-12 -38h-375z" />
    <glyph glyph-name="Z" unicode="Z" horiz-adv-x="772" 
d="M673 708h-143q-66 0 -107.5 -3t-69.5 -13t-49.5 -27.5t-47.5 -46.5l-63 -69h-37l129 211l266 -2h345l-740 -708h198q66 0 107 3t69 12.5t49.5 27.5t47.5 47l62 69h37l-119 -209h-674z" />
    <glyph glyph-name="bracketleft" unicode="[" horiz-adv-x="322" 
d="M61 -115q-8 -24 -10 -39t4 -23.5t20 -12t38 -4.5l36 -2l-14 -42h-204l366 1064h204l-14 -42l-38 -2q-24 -1 -41 -4.5t-29 -12t-20.5 -23.5t-16.5 -39z" />
    <glyph glyph-name="backslash" unicode="\" horiz-adv-x="698" 
d="M500 -52l-314 858h90l312 -858h-88z" />
    <glyph glyph-name="bracketright" unicode="]" horiz-adv-x="322" 
d="M289 703q8 24 10 39t-4 23.5t-20 12t-38 4.5l-36 2l14 42h204l-366 -1064h-204l14 42l38 2q24 1 41 4.5t29 12t20.5 23.5t16.5 39z" />
    <glyph glyph-name="asciicircum" unicode="^" horiz-adv-x="653" 
d="M602 361h-71l-48 333l-278 -333h-81l349 415h66z" />
    <glyph glyph-name="underscore" unicode="_" horiz-adv-x="536" 
d="M-97 -77h534l-23 -67h-534z" />
    <glyph glyph-name="grave" unicode="`" 
d="M71 609l-164 170l3 9h131l46 -179h-16z" />
    <glyph glyph-name="a" unicode="a" horiz-adv-x="587" 
d="M93 -13q-51 0 -74 28.5t-23 71.5t19 92t50.5 97.5t72 92.5t83.5 78t84 54t75 20q46 0 57 -34l18 47h124l-156 -412q-11 -29 -12.5 -43t11.5 -14q18 0 53.5 36.5t71.5 96.5l34 -19q-58 -97 -118.5 -144.5t-119.5 -47.5q-48 0 -55.5 30t16.5 96l21 57h-1
q-61 -92 -116 -137.5t-115 -45.5zM167 60q17 0 45 24t59 63.5t60.5 89.5t49.5 103l18 48q10 27 11.5 44t-3 27.5t-13.5 14.5t-19 4q-26 0 -54 -17.5t-54.5 -47t-49.5 -67t-40.5 -78t-27.5 -80.5t-10 -73q0 -25 6 -40t22 -15z" />
    <glyph glyph-name="b" unicode="b" horiz-adv-x="570" 
d="M274 458q-5 -13 -12.5 -31t-16 -37t-16.5 -36t-13 -28h1q65 89 126 142t130 53q52 0 78.5 -28.5t26.5 -77.5q0 -40 -19 -87.5t-51 -95.5t-74.5 -92t-89.5 -78t-96 -54.5t-93 -20.5q-35 0 -63.5 7t-46.5 23.5t-22.5 43.5t9.5 66l195 570q5 14 0.5 24t-28.5 13l-46 6l11 32
l225 22zM198 38q41 0 83 34.5t76 87t55.5 113.5t21.5 114q0 61 -30 61q-23 0 -56 -25.5t-68 -67t-66 -95t-49 -108.5l-16 -49q-6 -18 -4 -30.5t9.5 -20t19 -11t24.5 -3.5z" />
    <glyph glyph-name="c" unicode="c" horiz-adv-x="446" 
d="M151 -13q-60 0 -98.5 36.5t-38.5 104.5q0 45 15.5 92t42.5 90.5t62.5 82t75 67t80.5 45t80 16.5q17 0 33.5 -3.5t29 -11t20.5 -20t8 -31.5q0 -26 -17.5 -46t-43.5 -20q-17 0 -28.5 9.5t-23 20.5t-25 20.5t-34.5 9.5q-30 0 -55.5 -24t-44.5 -62t-29.5 -87t-10.5 -98
q0 -57 19 -81.5t52 -24.5q36 0 71.5 31.5t73.5 94.5l33 -18q-21 -36 -45.5 -70.5t-54 -62t-66 -44t-81.5 -16.5z" />
    <glyph glyph-name="d" unicode="d" horiz-adv-x="617" 
d="M100 -13q-52 0 -78.5 28t-26.5 72q0 42 19 90.5t50.5 96.5t72 93t83.5 79t85.5 54.5t78.5 20.5q50 0 65 -37l70 213q5 14 0.5 24.5t-28.5 12.5l-63 6l11 32l240 22l-224 -672q-10 -30 -12 -43.5t12 -13.5q9 0 22.5 9.5t30 27t35.5 42t37 54.5l34 -19q-59 -97 -119 -144.5
t-120 -47.5q-47 0 -57 30t14 96l26 70h-2q-66 -91 -126.5 -143.5t-129.5 -52.5zM170 60q22 0 55 25.5t67.5 67.5t66 95t49.5 109l11 33q7 23 6 39.5t-7.5 27.5t-17.5 16t-24 5q-27 0 -55.5 -16.5t-55 -44.5t-49.5 -64t-40 -75.5t-27 -79.5t-10 -75q0 -63 31 -63z" />
    <glyph glyph-name="e" unicode="e" horiz-adv-x="459" 
d="M152 -13q-60 0 -100 36.5t-40 104.5q0 44 15.5 90t42.5 90t63 82.5t76.5 67.5t83 46t83.5 17q49 0 73 -21t24 -56q0 -44 -21.5 -73.5t-49.5 -48.5q-22 -6 -52.5 -14t-64 -16t-67 -15.5t-61.5 -13.5q-5 -21 -7.5 -42.5t-2.5 -42.5q0 -57 21 -81.5t55 -24.5q38 0 72 31.5
t73 94.5l33 -18q-21 -36 -45.5 -70.5t-54.5 -62t-66.5 -44t-82.5 -16.5zM327 475q-23 0 -46 -13.5t-44 -37.5t-39 -56t-30 -68q23 5 43.5 10.5t37.5 11.5q36 12 58.5 26.5t35 29.5t17 30.5t4.5 29.5q0 17 -9.5 27t-27.5 10z" />
    <glyph glyph-name="f" unicode="f" horiz-adv-x="359" 
d="M57 435l8 31l101 35q26 75 61.5 129t84.5 95q56 47 103 68.5t80 21.5q53 0 53 -53q0 -11 -4 -23.5t-12 -22.5t-20 -16.5t-27 -6.5q-12 0 -25.5 3.5t-28 7.5t-30.5 7.5t-33 3.5q-13 0 -22.5 -4.5t-17 -19t-14.5 -41.5t-15 -72l-14 -76h153l-23 -67h-139l-76 -331
q-23 -99 -59.5 -169t-78.5 -114.5t-85.5 -65t-81.5 -20.5t-62 19t-24 46q0 20 14.5 37t40.5 17q17 0 29.5 -9t24 -20t22.5 -20t25 -9q11 0 20.5 6t18.5 24.5t19 51.5t22 87l105 470h-93z" />
    <glyph glyph-name="g" unicode="g" horiz-adv-x="520" 
d="M217 161q-32 0 -56 7l-22 -33q-9 -13 -8.5 -18t11.5 -11l136 -81q63 -38 96 -69.5t33 -66.5q0 -38 -23 -67t-61 -49t-86 -30t-98 -10q-59 0 -107.5 10t-83 27.5t-53.5 41t-19 51.5q0 23 15 43t41 37t62 31t77 26q-31 19 -45 34.5t-14 32.5q0 18 15 34t45 34l67 40
q-37 15 -56.5 44t-19.5 67q0 43 22 85.5t58.5 75.5t84.5 53.5t100 20.5q38 0 67 -10t49 -28l175 71l-27 -82q-5 -16 -13 -21t-25 -3l-90 11q17 -28 17 -63q0 -44 -22 -86t-58.5 -75t-84 -53.5t-99.5 -20.5zM249 194q23 0 42 15t33 41t21.5 61t7.5 76q0 47 -14 74t-44 27
q-23 0 -42 -14.5t-33 -40.5t-21.5 -61.5t-7.5 -76.5q0 -47 14 -74t44 -27zM-23 -124q0 -45 50.5 -74t139.5 -29q25 0 49.5 3.5t43.5 11t30.5 18.5t11.5 26q0 9 -3.5 17.5t-13.5 18t-28.5 22t-47.5 29.5l-110 64q-63 -23 -92.5 -48.5t-29.5 -58.5z" />
    <glyph glyph-name="h" unicode="h" horiz-adv-x="606" 
d="M235 697q5 14 0.5 24t-28.5 13l-46 6l11 32l224 22l-113 -328q-14 -41 -30.5 -83t-26.5 -64h2q40 54 74 92.5t64.5 63t59 35.5t57.5 11q33 0 50 -12.5t21.5 -35t-2 -53.5t-21.5 -68l-94 -230q-12 -29 -13 -43t13 -14q9 0 22.5 9.5t30 27t35.5 42t37 54.5l34 -19
q-59 -97 -119 -144.5t-120 -47.5q-48 0 -63.5 29.5t10.5 95.5l92 226q21 52 24.5 76.5t-19.5 24.5q-17 0 -46 -23t-62.5 -65t-67.5 -100.5t-61 -128.5l-36 -112l-139 -22z" />
    <glyph glyph-name="i" unicode="i" horiz-adv-x="348" 
d="M96 -13q-47 0 -63 30t10 95l123 306q6 14 1.5 24.5t-28.5 13.5l-45 5l12 33l227 21l-157 -393q-12 -29 -13 -43t13 -14q9 0 22.5 9.5t30 27t35.5 42t37 54.5l34 -19q-59 -97 -119 -144.5t-120 -47.5zM327 642q-35 0 -58.5 24t-23.5 59t23.5 59t58.5 24t59 -24t24 -59
t-24 -59t-59 -24z" />
    <glyph glyph-name="j" unicode="j" horiz-adv-x="305" 
d="M145 48q-15 -38 -29 -66t-30.5 -50.5t-38 -41.5t-51.5 -39q-17 -11 -40 -25.5t-49.5 -30l-53 -31t-50.5 -28.5l-16 33q43 30 75.5 55t58.5 53.5t47.5 66t44.5 93.5l152 381q6 14 1 24.5t-29 13.5l-44 5l12 33l226 21zM327 642q-35 0 -58.5 24t-23.5 59t23.5 59t58.5 24
t59 -24t24 -59t-24 -59t-59 -24z" />
    <glyph glyph-name="k" unicode="k" horiz-adv-x="591" 
d="M382 -28q-33 0 -53 17.5t-33 49.5l-87 217l-50 -144l-29 -104l-140 -20l244 709q5 14 0.5 24t-28.5 13l-46 6l11 32l225 22l-187 -538l146 95q28 18 44 36t23.5 34t9 29.5t1.5 23.5q0 26 18.5 36.5t41.5 10.5t38.5 -12t15.5 -36q0 -11 -4.5 -22t-20.5 -26.5t-47.5 -38
t-84.5 -56.5l-64 -40l93 -210q7 -16 12.5 -21t12.5 -5q14 0 39.5 28t59.5 83l34 -21q-30 -48 -55 -81t-48 -53.5t-45.5 -29t-46.5 -8.5z" />
    <glyph glyph-name="l" unicode="l" horiz-adv-x="328" 
d="M237 697q5 14 0 24t-29 13l-46 6l12 32l224 22l-234 -672q-11 -30 -12 -43.5t12 -13.5q18 0 53 36.5t72 96.5l34 -19q-58 -97 -118.5 -144.5t-120.5 -47.5q-47 0 -60.5 30t9.5 96z" />
    <glyph glyph-name="m" unicode="m" horiz-adv-x="897" 
d="M241 321h3q39 53 72.5 91t64 62t59 35.5t57.5 11.5q66 0 68 -51.5t-46 -148.5h2q39 53 72.5 91t64 62t59 35.5t57.5 11.5q33 0 50.5 -12.5t22 -35t-2 -53.5t-21.5 -68l-95 -230q-23 -57 0 -57q9 0 22.5 9.5t30 27t35.5 42t37 54.5l34 -19q-59 -97 -119 -144.5t-120 -47.5
q-47 0 -63.5 29.5t10.5 95.5l93 226q21 52 24 76.5t-19 24.5q-17 0 -46.5 -23t-63 -65t-67.5 -100.5t-61 -128.5l-38 -112l-142 -22l135 350q20 52 23.5 76.5t-18.5 24.5q-17 0 -46 -23t-62.5 -65t-67.5 -100.5t-61 -128.5l-37 -112l-144 -22l167 430q5 14 1 24.5t-28 13.5
l-45 5l12 33l217 21z" />
    <glyph glyph-name="n" unicode="n" horiz-adv-x="620" 
d="M164 418q5 14 1 24.5t-28 13.5l-45 5l12 33l217 21l-80 -194h3q39 53 72.5 91t64 62t59 35.5t57.5 11.5q33 0 50 -12.5t21.5 -35t-2 -53.5t-21.5 -68l-94 -230q-12 -29 -13 -43t13 -14q9 0 22.5 9.5t30 27t35.5 42t37 54.5l33 -19q-58 -97 -118 -144.5t-120 -47.5
q-48 0 -63.5 29.5t10.5 95.5l92 226q21 52 24 76.5t-19 24.5q-17 0 -46 -23t-62.5 -65t-67.5 -100.5t-61 -128.5l-37 -112l-144 -22z" />
    <glyph glyph-name="o" unicode="o" horiz-adv-x="553" 
d="M180 -13q-40 0 -70.5 12t-50.5 32.5t-30.5 48t-10.5 59.5q0 47 15.5 94t41.5 89t61.5 78.5t75.5 63.5t82 42t83 15q40 0 70.5 -12.5t51 -33.5t31 -48.5t10.5 -58.5q0 -47 -15.5 -93.5t-42 -89t-62 -79t-75.5 -63t-82.5 -41.5t-82.5 -15zM213 35q37 0 70.5 33.5t59 85
t41 112.5t15.5 116q0 45 -12 68t-42 23q-37 0 -71 -33.5t-59.5 -85t-41 -112.5t-15.5 -116q0 -46 12 -68.5t43 -22.5z" />
    <glyph glyph-name="p" unicode="p" horiz-adv-x="595" 
d="M280 405h1q21 24 44.5 45t49 37t52 25t53.5 9q56 0 84 -33.5t27 -92.5q-1 -47 -17.5 -95.5t-45 -94t-65.5 -85t-78 -69.5t-83 -47t-80 -17q-22 0 -41.5 7.5t-30.5 21.5l-90 -264h-127l227 666q5 14 0.5 24.5t-28.5 13.5l-44 5l12 33l219 21zM231 32q30 0 58 16.5t52 43
t43.5 61.5t33.5 72t21.5 73.5t8.5 67.5q1 38 -10 60t-37 22q-55 0 -137 -99l-80 -234q-8 -24 -6.5 -40t9.5 -25.5t20 -13.5t24 -4z" />
    <glyph glyph-name="q" unicode="q" horiz-adv-x="575" 
d="M470 534h124l-269 -782h-126l94 277q4 13 12.5 33t18 42.5t18.5 43.5t16 35h-2q-66 -91 -126.5 -143.5t-129.5 -52.5q-52 0 -78.5 28t-26.5 72q0 42 19 90.5t50.5 96.5t72 93t83.5 79t85.5 54.5t78.5 20.5q25 0 42.5 -9.5t25.5 -27.5zM170 60q22 0 55 25.5t67.5 67.5
t66 95t49.5 109l11 33q7 23 6 39.5t-7.5 27.5t-17.5 16t-24 5q-27 0 -55.5 -16.5t-55 -44.5t-49.5 -64t-40 -75.5t-27 -79.5t-10 -75q0 -63 31 -63z" />
    <glyph glyph-name="r" unicode="r" horiz-adv-x="448" 
d="M164 418q5 14 1 24.5t-28 13.5l-45 5l12 33l210 21q-31 -73 -56 -131q-11 -25 -21 -49t-18.5 -43.5t-13.5 -32.5t-6 -15h4q30 65 67.5 119.5t66.5 88.5q32 38 59.5 53.5t55.5 15.5t44 -15.5t16 -42.5q0 -29 -18.5 -49t-42.5 -20q-14 0 -23 3.5t-17 8t-16 8t-19 3.5
q-14 0 -29 -13t-33 -36q-30 -39 -68 -104.5t-73 -153.5l-32 -100l-144 -22z" />
    <glyph glyph-name="s" unicode="s" horiz-adv-x="417" 
d="M119 -13q-28 0 -53 6.5t-44 18.5t-30 28t-11 36q0 25 18 42t44 17q22 0 34 -16t22.5 -35t25 -35t41.5 -16q31 0 47.5 16.5t16.5 38.5q0 20 -12.5 45.5t-35.5 54.5l-37 49q-23 30 -35 59t-12 58q0 37 21 68t53 53t70 34t73 12q50 0 83 -20.5t33 -55.5q0 -26 -16.5 -42
t-41.5 -16q-20 0 -30.5 13t-21 28.5t-26 28.5t-43.5 13q-25 0 -39.5 -12t-14.5 -32q0 -17 9.5 -40t34.5 -55l39 -52q27 -35 40 -64t13 -61q0 -39 -20 -69.5t-51 -52.5t-69 -33.5t-75 -11.5z" />
    <glyph glyph-name="t" unicode="t" horiz-adv-x="400" 
d="M181 122q-11 -30 -10.5 -43.5t15.5 -13.5q9 0 24.5 9.5t34.5 27t39 42t38 54.5l34 -19q-59 -97 -124.5 -144.5t-125.5 -47.5q-23 0 -39.5 7t-24.5 22.5t-6.5 39t14.5 56.5l124 323h-101l26 67h100l43 108h126l-41 -108h130l-26 -67h-130z" />
    <glyph glyph-name="u" unicode="u" horiz-adv-x="622" 
d="M194 170q-21 -53 -24 -77t19 -24q18 0 47 23t63 66t68.5 102.5t62.5 133.5l28 81l148 39l-153 -392q-11 -29 -12 -43t12 -14q18 0 53.5 36.5t71.5 96.5l34 -19q-58 -97 -118.5 -144.5t-120.5 -47.5q-95 0 -41 125l32 75h-3q-39 -53 -72.5 -91t-64 -62t-59 -35.5
t-57.5 -11.5q-33 0 -50.5 12.5t-22 35t2 53.5t21.5 68l105 262q6 14 1.5 24.5t-28.5 13.5l-45 5l12 33l228 21z" />
    <glyph glyph-name="v" unicode="v" horiz-adv-x="527" 
d="M84 0q6 116 19.5 225t36.5 193q5 15 1 25t-28 13l-45 5l12 33l210 21q-13 -41 -25 -92t-22.5 -105t-17.5 -107.5t-10 -100.5q35 36 70.5 70.5t67 66.5t56.5 62.5t40 57.5q7 14 8 28t-1 27.5t-5 26t-3 23.5q0 15 6 24.5t15 15t20 7.5t22 2t22.5 -3.5t21 -10.5t15.5 -18
t6 -26q0 -34 -35 -81.5t-95 -107.5q-33 -33 -65.5 -64.5t-65.5 -64t-67 -68t-71 -77.5h-93z" />
    <glyph glyph-name="w" unicode="w" horiz-adv-x="797" 
d="M78 0q8 116 22 225t38 193q5 15 1 25t-28 13l-45 5l12 33l211 21q-13 -41 -25.5 -92t-23.5 -105t-19 -108t-11 -100q29 24 56.5 52.5t51.5 58.5t45.5 60.5t38.5 58.5q4 35 7.5 66t8.5 57l132 51q-14 -88 -24.5 -184.5t-15.5 -205.5q33 34 64.5 66t59 62.5t49 59
t34.5 55.5q7 13 7.5 27.5t-1.5 28t-4.5 26t-2.5 23.5q0 15 6 24.5t15 15t20 7.5t22 2t22.5 -3.5t21 -10.5t15.5 -18t6 -26q0 -34 -35.5 -81t-93.5 -108q-33 -35 -63 -66t-60.5 -63.5t-62.5 -67.5t-68 -77h-83q2 52 6 118.5t10 135.5q-48 -65 -107.5 -130.5t-123.5 -123.5
h-85z" />
    <glyph glyph-name="x" unicode="x" horiz-adv-x="612" 
d="M-40 59q0 25 16 41.5t40 16.5q16 0 25.5 -9t17 -19.5t15.5 -19t21 -8.5q14 0 25 10q6 5 16.5 14t26 26t37 45t50.5 71l-18 152q-5 38 -12 54.5t-21 16.5q-18 0 -47.5 -27.5t-61.5 -67.5l-29 26q110 140 201 140q20 0 34.5 -4t25 -17.5t17.5 -38t12 -65.5l7 -58
q36 56 65.5 91.5t55 56t47.5 28t45 7.5q36 0 61 -19.5t25 -51.5q0 -26 -16 -42t-40 -16q-16 0 -25.5 8.5t-17 19t-15.5 19t-21 8.5t-25 -9q-6 -6 -16.5 -15t-26 -26.5t-37.5 -45.5t-52 -72l18 -150q5 -38 12 -54t21 -16q18 0 47.5 27t61.5 68l29 -26q-54 -70 -105 -105.5
t-96 -35.5q-20 0 -34.5 4.5t-25 18t-17.5 38.5t-12 66l-6 53q-36 -55 -65 -90t-54.5 -55t-48 -27.5t-44.5 -7.5q-36 0 -61 19.5t-25 52.5z" />
    <glyph glyph-name="y" unicode="y" horiz-adv-x="553" 
d="M-86 -267q-30 0 -47 15t-17 38q0 20 9 30.5t24 14.5t33.5 4h37.5t35.5 1t28.5 8q27 15 58 48.5t73 93.5l-13 432q-1 20 -5 27.5t-22 10.5l-45 5l12 33l191 21v-369l131 194q35 52 61.5 86.5t48 55.5t40 30t37.5 9q26 0 39.5 -12.5t13.5 -33.5q0 -20 -12.5 -36t-47.5 -25
q-20 -5 -37.5 -12t-34.5 -20t-36 -34t-42 -54l-198 -283q-17 -25 -38.5 -53t-44.5 -56t-47 -53.5t-46 -45.5q-78 -70 -140 -70z" />
    <glyph glyph-name="z" unicode="z" horiz-adv-x="535" 
d="M338 -45q-26 0 -53.5 15.5t-57.5 36.5t-64.5 41.5t-74.5 31.5q-8 -29 -16.5 -47.5t-18 -28.5t-19 -13.5t-18.5 -3.5q-17 0 -27.5 9.5t-10.5 25.5t12.5 33.5t46.5 44.5l333 269q-35 9 -64.5 21t-54.5 22t-45 17t-34 7q-16 0 -25.5 -7.5t-9.5 -21.5q0 -15 8 -21.5t17.5 -13
t17.5 -15.5t8 -28t-15 -33t-36 -14q-29 0 -44 19.5t-15 43.5t9.5 47t24.5 44t33.5 38t36.5 28q20 13 34.5 16.5t26.5 2.5q18 -1 45 -9.5t57 -18.5t58 -18.5t48 -8.5q32 0 58 16t46 34l29 -30l-409 -330q31 -8 58.5 -23.5t52 -31t46.5 -27.5t42 -12q35 0 55.5 24t37.5 64
l36 -15q-16 -39 -34.5 -72t-39 -57t-43.5 -37.5t-48 -13.5z" />
    <glyph glyph-name="braceleft" unicode="{" horiz-adv-x="370" 
d="M116 314q27 -3 55.5 -18t45 -44t15.5 -75t-33 -112l-45 -93q-32 -67 -23.5 -112t74.5 -59l-15 -39q-43 5 -81 24t-61 51.5t-26 77.5t24 103l52 112q22 46 23.5 76.5t-11.5 49.5t-37 28.5t-54 14.5l13 39q33 5 63.5 13t54.5 25t40.5 45.5t23.5 75.5l11 74q19 126 88 189.5
t201 62.5l1 -42q-46 -2 -75 -11t-46 -28t-26 -50t-15 -77l-7 -55q-9 -68 -33.5 -113t-57 -72.5t-69.5 -41t-70 -16.5v-3z" />
    <glyph glyph-name="bar" unicode="|" horiz-adv-x="346" 
d="M145 826h82v-1064h-82v1064z" />
    <glyph glyph-name="braceright" unicode="}" horiz-adv-x="370" 
d="M281 271q-27 3 -55.5 18t-45 44t-15.5 75t33 112l45 93q32 67 23.5 112t-74.5 59l15 39q43 -5 81 -24t61 -51.5t26 -77.5t-24 -103l-52 -112q-22 -46 -23.5 -76.5t11.5 -49.5t37 -28.5t54 -14.5l-13 -39q-33 -5 -63.5 -13t-54.5 -25t-40.5 -45.5t-23.5 -75.5l-11 -74
q-19 -126 -88 -189.5t-201 -62.5l-1 42q46 2 75 11t46 28t26 50t15 77l7 55q9 68 33.5 113t57 72.5t69.5 41t70 16.5v3z" />
    <glyph glyph-name="asciitilde" unicode="~" horiz-adv-x="653" 
d="M209 336q42 0 75 -13.5t62 -29.5t54.5 -29.5t52.5 -13.5q31 0 54.5 17.5t25.5 63.5h72q-5 -66 -47 -106.5t-106 -40.5q-36 0 -67.5 13.5t-60.5 29.5t-57.5 29.5t-58.5 13.5q-15 0 -29.5 -4t-25.5 -13.5t-18 -25t-8 -38.5h-71q5 66 47 106.5t106 40.5z" />
    <glyph glyph-name="uni00A0" unicode="&#xa0;" horiz-adv-x="260" 
 />
    <glyph glyph-name="exclamdown" unicode="&#xa1;" horiz-adv-x="284" 
d="M177 270q-19 -67 -30 -114.5t-17 -84.5t-10 -68t-10 -65t-16 -75.5t-28 -99.5q-3 -10 -17.5 -17t-33.5 -10t-40 -2.5t-37 6t-24.5 15t-3.5 24.5q19 54 36 93t33.5 71.5t33.5 62.5t35.5 66t40.5 83.5t48 114.5h40zM199 521q37 0 63 -26.5t26 -65.5q0 -37 -26 -63t-63 -26
q-39 0 -65.5 26t-26.5 63q0 39 26.5 65.5t65.5 26.5z" />
    <glyph glyph-name="cent" unicode="&#xa2;" horiz-adv-x="470" 
d="M160 -13q-60 0 -98.5 36.5t-38.5 104.5q0 63 29 127t75 118.5t102.5 93.5t111.5 50l34 103h46l-32 -99q31 -2 56 -17t25 -49q0 -26 -17.5 -46t-43.5 -20q-17 0 -28.5 9.5t-23 20.5t-25 20.5t-34.5 9.5q-30 0 -55.5 -24t-44.5 -62t-29.5 -87t-10.5 -98q0 -57 19 -81.5
t52 -24.5q36 0 71.5 31.5t73.5 94.5l33 -18q-18 -30 -37.5 -59t-42.5 -54t-50 -44t-59 -28l-38 -116h-45l34 108h-9z" />
    <glyph glyph-name="sterling" unicode="&#xa3;" horiz-adv-x="681" 
d="M566 345h-179q-19 -52 -64.5 -95t-105.5 -74q18 -13 50 -27.5t68 -26.5t70 -20t55 -8q39 0 67.5 17t53.5 64l32 -17l-23 -47q-19 -38 -42 -64t-48.5 -42t-53 -22.5t-54.5 -6.5q-31 0 -67 11t-71.5 29t-68 40.5t-57.5 45.5q-24 -60 -52 -87t-61 -27q-17 0 -28 10t-11 24
q0 10 4 20t15.5 21.5t32.5 24.5t54 28q34 16 63 39.5t51.5 53.5t37.5 64.5t21 71.5h-160l25 67h138q-3 34 -11.5 65.5t-8.5 66.5q0 50 33 93t84 74.5t112 49.5t116 18q32 0 59.5 -6t48 -17.5t32 -28.5t11.5 -39q0 -26 -18 -43.5t-44 -17.5q-16 0 -26.5 5t-18 13t-14 18
t-14.5 21q-15 20 -35 30t-55 10q-27 0 -53.5 -9t-47 -26t-33 -41.5t-12.5 -55.5q0 -23 5 -44.5t11.5 -43t12 -44.5t6.5 -48h192z" />
    <glyph glyph-name="yen" unicode="&#xa5;" horiz-adv-x="834" 
d="M150 44l55 4q19 1 30.5 4t19.5 9t13.5 17t11.5 29l26 76h-201l20 57h200l26 77h-199l20 57h168l-83 296q-6 21 -13.5 30.5t-34.5 11.5l-34 3l13 43h317l-14 -43l-56 -3q-30 -2 -41 -12.5t-5 -33.5l77 -282l155 157q47 48 74.5 80t37.5 52t2.5 29t-31.5 11l-34 2l14 43
h275l-14 -43l-29 -2q-21 -2 -40 -9.5t-43 -26.5t-57.5 -51.5t-83.5 -84.5l-163 -167h174l-20 -57h-204l-26 -77h203l-20 -57h-202l-26 -76q-12 -36 -6 -46t42 -13l51 -4l-14 -44h-345z" />
    <glyph glyph-name="brokenbar" unicode="&#xa6;" horiz-adv-x="346" 
d="M145 826h82v-421h-82v421zM145 183h82v-421h-82v421z" />
    <glyph glyph-name="section" unicode="&#xa7;" horiz-adv-x="650" 
d="M138 -196q-42 0 -78 8.5t-62 24.5t-41 38.5t-15 50.5q0 27 20 46.5t52 19.5q19 0 30.5 -7t20 -19t14.5 -28t14 -33q9 -20 25.5 -38t51.5 -18q33 0 59 18.5t45 48.5t29 67t10 74q0 39 -10 71t-32 67l-53 87q-26 42 -41.5 84.5t-15.5 93.5q0 66 33.5 124t89 101.5
t126.5 68.5t145 25q82 0 131 -29.5t49 -78.5q0 -31 -21 -48t-50 -17q-17 0 -29 7.5t-21 18.5t-15.5 23.5t-12.5 23.5q-11 22 -28 36t-48 14q-35 0 -62 -14t-46 -37t-29 -52.5t-10 -60.5q0 -38 12 -69.5t32 -66.5l51 -87q15 -26 28 -50t22.5 -47t14.5 -47.5t5 -51.5
q0 -61 -30 -122t-82.5 -110t-124 -79.5t-153.5 -30.5zM390 92q0 -24 -4.5 -50.5t-15 -52.5t-27 -51t-41.5 -46q40 24 68.5 52.5t46.5 59.5t26 63.5t8 62.5q0 51 -21.5 93.5t-44.5 81.5l-52 87q-17 29 -29 61.5t-12 69.5q0 44 14.5 86t55.5 77q-37 -21 -61.5 -47t-39.5 -52.5
t-21 -53t-6 -49.5q0 -38 13 -73t32 -66l53 -87q26 -42 42 -81.5t16 -84.5z" />
    <glyph glyph-name="dieresis" unicode="&#xa8;" 
d="M114 644q-27 0 -45.5 18.5t-18.5 47.5q0 28 18.5 46.5t45.5 18.5q28 0 46.5 -18.5t18.5 -46.5q0 -29 -18.5 -47.5t-46.5 -18.5zM-115 644q-27 0 -45.5 18.5t-18.5 47.5q0 28 18.5 46.5t45.5 18.5q28 0 46.5 -18.5t18.5 -46.5q0 -29 -18.5 -47.5t-46.5 -18.5z" />
    <glyph glyph-name="copyright" unicode="&#xa9;" horiz-adv-x="924" 
d="M104 383q0 88 31.5 160.5t85.5 125t126.5 81.5t155.5 29t155.5 -29t126.5 -81.5t85.5 -125t31.5 -160.5t-31.5 -160.5t-85.5 -125t-126.5 -81.5t-155.5 -29t-155.5 29t-126.5 81.5t-85.5 125t-31.5 160.5zM165 383q0 -78 26 -142t71.5 -109t107 -69.5t133.5 -24.5
q71 0 133 24.5t107.5 69.5t71.5 109t26 142t-26 142t-71.5 109t-107.5 69.5t-133 24.5q-72 0 -133.5 -24.5t-107 -69.5t-71.5 -109t-26 -142zM531 203q36 0 69 13.5t51 48.5l16 32h27l-30 -116q-26 -10 -61 -15t-74 -5q-61 0 -109 18t-81 48.5t-50.5 71.5t-17.5 87t18.5 87
t52 71.5t82 48.5t108.5 18q82 0 137 -20l18 -112h-26l-13 28q-9 19 -22 31t-29.5 19t-35 9.5t-37.5 2.5q-24 0 -49 -6t-45.5 -23.5t-34 -49t-13.5 -82.5q0 -44 9.5 -81t28 -65t46.5 -43.5t65 -15.5z" />
    <glyph glyph-name="ordfeminine" unicode="&#xaa;" horiz-adv-x="533" 
d="M193 367q-45 0 -64.5 23t-19.5 60q0 35 15.5 74t41 78t58 74.5t67 62.5t68.5 43.5t61 16.5q20 0 31 -8t16 -20l15 40h111l-127 -333q-9 -23 -9.5 -34t10.5 -11q14 0 39.5 27.5t55.5 78.5l30 -16q-47 -80 -96 -118t-100 -38q-38 0 -47 25.5t13 79.5l17 43h-2
q-26 -41 -49 -69t-45 -45.5t-44 -25.5t-46 -8zM256 430q14 0 36.5 20t47 52.5t47 73t37.5 81.5l11 31q8 22 9 36.5t-2 23t-9.5 11.5t-14.5 3q-21 0 -43 -14.5t-42.5 -38.5t-38.5 -54.5t-31.5 -62.5t-21 -63t-7.5 -56q0 -43 22 -43z" />
    <glyph glyph-name="guillemotleft" unicode="&#xab;" horiz-adv-x="559" 
d="M329 484l31 -31l-192 -208l45 -211l-44 -15l-123 232zM539 484l31 -31l-192 -208l45 -211l-44 -15l-123 232z" />
    <glyph glyph-name="uni00AD" unicode="&#xad;" horiz-adv-x="427" 
d="M83 301h294l-26 -77h-294z" />
    <glyph glyph-name="registered" unicode="&#xae;" horiz-adv-x="924" 
d="M104 383q0 88 31.5 160.5t85.5 125t126.5 81.5t155.5 29t155.5 -29t126.5 -81.5t85.5 -125t31.5 -160.5t-31.5 -160.5t-85.5 -125t-126.5 -81.5t-155.5 -29t-155.5 29t-126.5 81.5t-85.5 125t-31.5 160.5zM165 383q0 -78 26 -142t71.5 -109t107 -69.5t133.5 -24.5
q71 0 133 24.5t107.5 69.5t71.5 109t26 142t-26 142t-71.5 109t-107.5 69.5t-133 24.5q-72 0 -133.5 -24.5t-107 -69.5t-71.5 -109t-26 -142zM677 172q-24 0 -43.5 5t-35 18.5t-26.5 37t-17 60.5q-5 29 -13.5 46.5t-19 26.5t-23 12t-26.5 3h-31v-143q0 -17 7 -23.5t24 -8.5
l17 -2v-24h-201v24l17 2q18 2 25 8.5t7 22.5v316q0 16 -7 22.5t-25 8.5l-17 2v24h203q41 0 76 -5.5t61 -17.5t40.5 -31.5t14.5 -46.5q0 -40 -29 -66t-96 -37v-2q38 -3 67.5 -29.5t40.5 -68.5l8 -31q9 -35 24 -53t44 -12l6 -23q-20 -8 -34.5 -11.5t-37.5 -3.5zM493 414
q24 0 39.5 6.5t24 17.5t12 26.5t3.5 32.5q0 40 -21.5 59.5t-59.5 19.5h-13q-25 0 -30.5 -2.5t-5.5 -10.5v-149h51z" />
    <glyph glyph-name="macron" unicode="&#xaf;" 
d="M-143 736h308l-23 -67h-308z" />
    <glyph glyph-name="degree" unicode="&#xb0;" horiz-adv-x="427" 
d="M318 441q-36 0 -67 13t-54 36t-36 54t-13 66t13 66t36 54t54 36t67 13t67 -13t54 -36t36 -54t13 -66t-13 -66t-36 -54t-54 -36t-67 -13zM318 501q21 0 39.5 7.5t32.5 22t22.5 34.5t8.5 45t-8.5 45t-22.5 34t-32.5 22t-39.5 8t-40 -8t-33 -22t-22.5 -34t-8.5 -45t8.5 -45
t22.5 -34.5t33 -22t40 -7.5z" />
    <glyph glyph-name="plusminus" unicode="&#xb1;" horiz-adv-x="653" 
d="M272 285h-210v71h210v160h76v-160h211v-71h-211v-165h-76v165zM62 72h497v-72h-497v72z" />
    <glyph glyph-name="uni00B2" unicode="&#xb2;" horiz-adv-x="352" 
d="M60 401l5 16q86 62 143.5 109t92 83t49 62.5t14.5 47.5q0 25 -16 38t-43 13q-52 0 -90 -54l-24 17q32 48 68.5 72t89.5 24q51 0 78 -23t27 -61q0 -30 -16.5 -58t-44.5 -55t-65.5 -54t-79.5 -55l-68 -44h99q21 0 35.5 2t26.5 8t22.5 16.5t22.5 26.5l18 -9l-70 -122h-274z
" />
    <glyph glyph-name="uni00B3" unicode="&#xb3;" horiz-adv-x="337" 
d="M202 394q-49 0 -79.5 22.5t-30.5 55.5q0 19 12.5 32.5t32.5 13.5q15 0 23.5 -7t13.5 -17.5t8 -22.5t8 -22.5t14.5 -17.5t26.5 -7q13 0 26.5 5.5t24 17t17.5 29.5t7 44q0 49 -21.5 72t-50.5 21q-5 0 -13 -2l-3 29l34 7q16 3 34 9t33 15t24.5 21.5t9.5 29.5q0 25 -16.5 37
t-38.5 12q-15 0 -34 -6.5t-39 -32.5l-22 20q30 43 65.5 60t68.5 17q48 0 74.5 -21.5t26.5 -50.5q0 -34 -24 -56t-69 -33v-3q26 -17 38.5 -42t12.5 -55q0 -31 -16.5 -62t-43.5 -56t-62 -40.5t-72 -15.5z" />
    <glyph glyph-name="acute" unicode="&#xb4;" 
d="M0 788h155l-3 -9l-286 -170h-21z" />
    <glyph glyph-name="paragraph" unicode="&#xb6;" horiz-adv-x="609" 
d="M83 -183q-41 0 -65.5 18t-24.5 51q0 24 16.5 40t39.5 16t36 -12.5t24 -23.5q27 -25 62 -25q33 0 67 31.5t57 101.5l94 289q-27 -8 -52.5 -12.5t-51.5 -4.5q-43 0 -75 13t-53.5 36.5t-32.5 54.5t-11 67q0 59 28 113.5t80.5 96t128 66.5t170.5 25h206l-14 -43l-45 -3
q-18 -2 -29.5 -6t-19 -10.5t-12.5 -17.5t-10 -27l-179 -550q-20 -62 -55 -118.5t-97 -101.5q-49 -35 -96.5 -49.5t-85.5 -14.5z" />
    <glyph glyph-name="periodcentered" unicode="&#xb7;" horiz-adv-x="302" 
d="M153 172q-37 0 -63 26.5t-26 65.5q0 37 26 63t63 26q39 0 65.5 -26t26.5 -63q0 -39 -26.5 -65.5t-65.5 -26.5z" />
    <glyph glyph-name="cedilla" unicode="&#xb8;" 
d="M-61 -263q-52 0 -76 20t-24 42q0 23 19 32t40 1q1 -32 17.5 -48t41.5 -16q43 0 43 29q0 17 -22.5 35.5t-66.5 47.5l152 120h49l-107 -84q28 -18 44.5 -38.5t16.5 -45.5q0 -19 -9.5 -36.5t-26.5 -30.5t-40 -20.5t-51 -7.5z" />
    <glyph glyph-name="uni00B9" unicode="&#xb9;" horiz-adv-x="260" 
d="M252 750h-68l9 25q57 3 90.5 15.5t56.5 35.5h30l-130 -379q-3 -10 -1 -12.5t11 -3.5l34 -2l-11 -28h-199l11 29l39 1q14 0 17.5 3.5t6.5 13.5z" />
    <glyph glyph-name="ordmasculine" unicode="&#xba;" horiz-adv-x="474" 
d="M257 367q-64 0 -99.5 34t-35.5 88q0 58 27.5 114t70 99.5t95.5 70t104 26.5q64 0 99 -35.5t35 -88.5q0 -58 -27 -113.5t-69.5 -98.5t-95.5 -69.5t-104 -26.5zM286 408q26 0 52 25t46.5 65t33 90t12.5 99q0 35 -8 53t-31 18q-27 0 -53 -25.5t-46.5 -66t-33.5 -90
t-13 -98.5q0 -35 9 -52.5t32 -17.5z" />
    <glyph glyph-name="guillemotright" unicode="&#xbb;" horiz-adv-x="557" 
d="M21 19l-31 31l192 208l-45 211l44 15l123 -232zM231 19l-31 31l192 208l-45 211l44 15l123 -232z" />
    <glyph glyph-name="onequarter" unicode="&#xbc;" horiz-adv-x="884" 
d="M233 690h-68l9 25q57 3 90.5 15.5t56.5 35.5h30l-130 -379q-3 -10 -1 -12.5t11 -3.5l34 -2l-11 -28h-199l11 29l39 1q14 0 17.5 3.5t6.5 13.5zM807 758h95l-827 -758h-95zM650 103h-188l8 23l300 291h80l-90 -261h76l-19 -53h-75l-36 -103h-92zM668 156l60 172l-174 -172
h114z" />
    <glyph glyph-name="onehalf" unicode="&#xbd;" horiz-adv-x="856" 
d="M233 690h-68l9 25q57 3 90.5 15.5t56.5 35.5h30l-130 -379q-3 -10 -1 -12.5t11 -3.5l34 -2l-11 -28h-199l11 29l39 1q14 0 17.5 3.5t6.5 13.5zM807 758h95l-827 -758h-95zM442 0l5 16q86 62 143.5 109t92 83t49 62.5t14.5 47.5q0 25 -16 38t-43 13q-52 0 -90 -54l-24 17
q32 48 68.5 72t89.5 24q51 0 78 -23t27 -61q0 -30 -16.5 -58t-44.5 -55t-65.5 -54t-79.5 -55l-68 -44h99q21 0 35.5 2t26.5 8t22.5 16.5t22.5 26.5l18 -9l-70 -122h-274z" />
    <glyph glyph-name="threequarters" unicode="&#xbe;" horiz-adv-x="922" 
d="M184 334q-49 0 -79.5 22.5t-30.5 55.5q0 19 12.5 32.5t32.5 13.5q15 0 23.5 -7t13.5 -17.5t8 -22.5t8 -22.5t14.5 -17.5t26.5 -7q13 0 26.5 5.5t24 17t17.5 29.5t7 44q0 49 -21.5 72t-50.5 21q-5 0 -13 -2l-3 29l34 7q16 3 34 9t33 15t24.5 21.5t9.5 29.5q0 25 -16.5 37
t-38.5 12q-15 0 -34 -6.5t-39 -32.5l-22 20q30 43 65.5 60t68.5 17q48 0 74.5 -21.5t26.5 -50.5q0 -34 -24 -56t-69 -33v-3q26 -17 38.5 -42t12.5 -55q0 -31 -16.5 -62t-43.5 -56t-62 -40.5t-72 -15.5zM845 758h95l-827 -758h-95zM688 103h-188l8 23l300 291h80l-90 -261h76
l-19 -53h-75l-36 -103h-92zM706 156l60 172l-174 -172h114z" />
    <glyph glyph-name="questiondown" unicode="&#xbf;" horiz-adv-x="604" 
d="M353 115q-7 -25 -14.5 -41.5t-19.5 -27.5t-32 -17.5t-53 -12.5l-75 -13q-36 -6 -60.5 -13.5t-39.5 -17.5t-21 -23.5t-6 -31.5q0 -24 12.5 -47t35 -41.5t53.5 -29.5t69 -11t62 10t38 36q13 23 32 40t47 15q27 -2 46.5 -19t17.5 -43q-2 -44 -56.5 -69t-145.5 -25
q-62 0 -114 18t-90 49t-59 73.5t-21 92.5q0 30 6.5 53.5t22.5 41t42.5 29.5t67.5 20l146 28q21 4 34.5 8t22.5 10.5t15.5 17t14.5 28.5l30 72h36zM411 521q37 0 63 -26.5t26 -65.5q0 -37 -26 -63t-63 -26q-39 0 -65.5 26t-26.5 63q0 39 26.5 65.5t65.5 26.5z" />
    <glyph glyph-name="Agrave" unicode="&#xc0;" horiz-adv-x="776" 
d="M-96 36l39 5q15 2 27 7t25 17t30 32.5t42 53.5l494 638h52l19 -687q1 -31 10.5 -43.5t39.5 -17.5l35 -5l-11 -36h-312l11 36l39 5q31 4 41 15.5t9 39.5l-5 173h-260l-83 -108q-29 -38 -42.5 -60.5t-15 -35t6 -17.5t21.5 -7l36 -5l-12 -36h-247zM488 331l-7 265l-204 -265
h211zM575 973l57 -129h-19l-203 126l1 3h164z" />
    <glyph glyph-name="Aacute" unicode="&#xc1;" horiz-adv-x="776" 
d="M-96 36l39 5q15 2 27 7t25 17t30 32.5t42 53.5l494 638h52l19 -687q1 -31 10.5 -43.5t39.5 -17.5l35 -5l-11 -36h-312l11 36l39 5q31 4 41 15.5t9 39.5l-5 173h-260l-83 -108q-29 -38 -42.5 -60.5t-15 -35t6 -17.5t21.5 -7l36 -5l-12 -36h-247zM488 331l-7 265l-204 -265
h211zM866 970l-295 -126h-24l134 129h186z" />
    <glyph glyph-name="Acircumflex" unicode="&#xc2;" horiz-adv-x="776" 
d="M-96 36l39 5q15 2 27 7t25 17t30 32.5t42 53.5l494 638h52l19 -687q1 -31 10.5 -43.5t39.5 -17.5l35 -5l-11 -36h-312l11 36l39 5q31 4 41 15.5t9 39.5l-5 173h-260l-83 -108q-29 -38 -42.5 -60.5t-15 -35t6 -17.5t21.5 -7l36 -5l-12 -36h-247zM488 331l-7 265l-204 -265
h211zM651 986l97 -152h-20l-103 63l-196 -63h-27l233 152h16z" />
    <glyph glyph-name="Atilde" unicode="&#xc3;" horiz-adv-x="776" 
d="M-96 36l39 5q15 2 27 7t25 17t30 32.5t42 53.5l494 638h52l19 -687q1 -31 10.5 -43.5t39.5 -17.5l35 -5l-11 -36h-312l11 36l39 5q31 4 41 15.5t9 39.5l-5 173h-260l-83 -108q-29 -38 -42.5 -60.5t-15 -35t6 -17.5t21.5 -7l36 -5l-12 -36h-247zM488 331l-7 265l-204 -265
h211zM420 834q11 67 39.5 104.5t81.5 37.5q24 0 44 -10.5t39 -22.5t37.5 -22.5t38.5 -10.5t36 10.5t27 52.5h21q-7 -42 -18 -69t-25 -42t-31 -20.5t-35 -5.5q-26 0 -45.5 10t-37 22.5t-35.5 22.5t-42 10q-23 0 -43.5 -13t-30.5 -54h-21z" />
    <glyph glyph-name="Adieresis" unicode="&#xc4;" horiz-adv-x="776" 
d="M-96 36l39 5q15 2 27 7t25 17t30 32.5t42 53.5l494 638h52l19 -687q1 -31 10.5 -43.5t39.5 -17.5l35 -5l-11 -36h-312l11 36l39 5q31 4 41 15.5t9 39.5l-5 173h-260l-83 -108q-29 -38 -42.5 -60.5t-15 -35t6 -17.5t21.5 -7l36 -5l-12 -36h-247zM488 331l-7 265l-204 -265
h211zM489 841q-29 0 -48 19t-19 48q0 30 19 49.5t48 19.5t48 -19.5t19 -49.5q0 -29 -19 -48t-48 -19zM725 841q-29 0 -48 19t-19 48q0 30 19 49.5t48 19.5q28 0 47.5 -19.5t19.5 -49.5q0 -29 -19.5 -48t-47.5 -19z" />
    <glyph glyph-name="Aring" unicode="&#xc5;" horiz-adv-x="776" 
d="M-96 36l39 5q15 2 27 7t25 17t30 32.5t42 53.5l494 638h52l19 -687q1 -31 10.5 -43.5t39.5 -17.5l35 -5l-11 -36h-312l11 36l39 5q31 4 41 15.5t9 39.5l-5 173h-260l-83 -108q-29 -38 -42.5 -60.5t-15 -35t6 -17.5t21.5 -7l36 -5l-12 -36h-247zM488 331l-7 265l-204 -265
h211zM501 960q0 25 10 47t26.5 38.5t39 26t48.5 9.5t49 -9.5t40 -26t27 -38.5t10 -47t-10 -47t-27 -38t-40 -25t-49 -9t-48.5 9t-39 25t-26.5 38t-10 47zM692 960q0 32 -17.5 49.5t-49.5 17.5q-31 0 -48.5 -17.5t-17.5 -49.5q0 -31 17.5 -49.5t48.5 -18.5q32 0 49.5 18.5
t17.5 49.5z" />
    <glyph glyph-name="AE" unicode="&#xc6;" horiz-adv-x="1166" 
d="M-88 36l39 5q15 2 32 8.5t36.5 19t43 33t52.5 49.5l593 607h198l323 2l-50 -198h-36l-2 54q-1 31 -8.5 49t-28.5 27t-59 11.5t-101 2.5h-90q-20 0 -26 -20l-83 -274h126q23 0 39 2t28 9t23 21t24 38l22 41h36l-86 -281h-36l4 41q2 23 0 37t-9.5 21.5t-21 9.5t-34.5 2
h-133l-67 -218q-9 -28 -10.5 -44.5t6 -25t24 -11t44.5 -2.5h39q60 0 99.5 3t68 12t50.5 26.5t48 46.5l64 71h37l-120 -211h-620l11 36l42 6q17 3 27.5 7t17.5 11t11.5 18.5t9.5 28.5l50 162h-254l-105 -108q-33 -34 -53 -56t-28 -35.5t-5.5 -20t16.5 -8.5l35 -5l-11 -36
h-253zM577 331l98 319l-310 -319h212z" />
    <glyph glyph-name="Ccedilla" unicode="&#xc7;" horiz-adv-x="799" 
d="M424 -13q-78 0 -142.5 22.5t-110 63t-70.5 97.5t-25 126q0 105 46.5 194t124 153t177 100t205.5 36q67 0 121 -9t92 -25l-15 -191h-36l-22 72q-17 57 -57.5 75.5t-105.5 18.5q-63 0 -129 -26t-120 -79t-88.5 -132.5t-34.5 -185.5q0 -65 17 -112.5t46.5 -78.5t69.5 -46
t87 -15q31 0 57 6t50 19t48 32t51 46l70 69h36l-103 -191q-50 -17 -107 -28t-132 -11zM276 -263q-51 0 -75.5 20t-24.5 42q0 23 19.5 32t40.5 1q1 -32 17.5 -48t41.5 -16q43 0 43 29q0 17 -22.5 35.5t-66.5 47.5l152 120h49l-107 -84q28 -18 44 -38.5t16 -45.5
q0 -19 -9.5 -36.5t-26 -30.5t-40 -20.5t-51.5 -7.5z" />
    <glyph glyph-name="Egrave" unicode="&#xc8;" horiz-adv-x="754" 
d="M511 758l306 2l-50 -198h-36l-1 53q-1 30 -8 48t-27 27.5t-56.5 12.5t-95.5 3h-100q-20 0 -26 -20l-84 -274h127q23 0 39 2t28.5 9t23 21t23.5 38l22 41h36l-86 -281h-36l3 41q2 24 0 38t-10 21t-23 9t-38 2h-127l-66 -217q-9 -29 -10.5 -45.5t6 -25t24 -11t44.5 -2.5h45
q62 0 101 3t66 13t47.5 28t47.5 47l62 68h37l-120 -211h-621l12 36l38 5q31 4 44 15t22 40l173 566q9 29 2.5 40t-34.5 15l-36 5l11 36h301zM571 972l57 -129h-19l-203 126l1 3h164z" />
    <glyph glyph-name="Eacute" unicode="&#xc9;" horiz-adv-x="754" 
d="M511 758l306 2l-50 -198h-36l-1 53q-1 30 -8 48t-27 27.5t-56.5 12.5t-95.5 3h-100q-20 0 -26 -20l-84 -274h127q23 0 39 2t28.5 9t23 21t23.5 38l22 41h36l-86 -281h-36l3 41q2 24 0 38t-10 21t-23 9t-38 2h-127l-66 -217q-9 -29 -10.5 -45.5t6 -25t24 -11t44.5 -2.5h45
q62 0 101 3t66 13t47.5 28t47.5 47l62 68h37l-120 -211h-621l12 36l38 5q31 4 44 15t22 40l173 566q9 29 2.5 40t-34.5 15l-36 5l11 36h301zM862 969l-295 -126h-24l134 129h186z" />
    <glyph glyph-name="Ecircumflex" unicode="&#xca;" horiz-adv-x="754" 
d="M511 758l306 2l-50 -198h-36l-1 53q-1 30 -8 48t-27 27.5t-56.5 12.5t-95.5 3h-100q-20 0 -26 -20l-84 -274h127q23 0 39 2t28.5 9t23 21t23.5 38l22 41h36l-86 -281h-36l3 41q2 24 0 38t-10 21t-23 9t-38 2h-127l-66 -217q-9 -29 -10.5 -45.5t6 -25t24 -11t44.5 -2.5h45
q62 0 101 3t66 13t47.5 28t47.5 47l62 68h37l-120 -211h-621l12 36l38 5q31 4 44 15t22 40l173 566q9 29 2.5 40t-34.5 15l-36 5l11 36h301zM647 985l97 -152h-20l-103 63l-196 -63h-27l233 152h16z" />
    <glyph glyph-name="Edieresis" unicode="&#xcb;" horiz-adv-x="754" 
d="M511 758l306 2l-50 -198h-36l-1 53q-1 30 -8 48t-27 27.5t-56.5 12.5t-95.5 3h-100q-20 0 -26 -20l-84 -274h127q23 0 39 2t28.5 9t23 21t23.5 38l22 41h36l-86 -281h-36l3 41q2 24 0 38t-10 21t-23 9t-38 2h-127l-66 -217q-9 -29 -10.5 -45.5t6 -25t24 -11t44.5 -2.5h45
q62 0 101 3t66 13t47.5 28t47.5 47l62 68h37l-120 -211h-621l12 36l38 5q31 4 44 15t22 40l173 566q9 29 2.5 40t-34.5 15l-36 5l11 36h301zM484 840q-29 0 -48 19t-19 48q0 30 19 49.5t48 19.5t48 -19.5t19 -49.5q0 -29 -19 -48t-48 -19zM720 840q-29 0 -48 19t-19 48
q0 30 19 49.5t48 19.5q28 0 47.5 -19.5t19.5 -49.5q0 -29 -19.5 -48t-47.5 -19z" />
    <glyph glyph-name="Igrave" unicode="&#xcc;" horiz-adv-x="425" 
d="M267 662q9 29 2.5 40t-34.5 15l-36 5l11 36h315l-11 -36l-39 -5q-30 -4 -43 -15t-22 -40l-174 -566q-9 -29 -2 -40t34 -15l36 -5l-11 -36h-315l12 36l38 5q31 4 44 15t22 40zM385 972l57 -129h-19l-203 126l1 3h164z" />
    <glyph glyph-name="Iacute" unicode="&#xcd;" horiz-adv-x="425" 
d="M267 662q9 29 2.5 40t-34.5 15l-36 5l11 36h315l-11 -36l-39 -5q-30 -4 -43 -15t-22 -40l-174 -566q-9 -29 -2 -40t34 -15l36 -5l-11 -36h-315l12 36l38 5q31 4 44 15t22 40zM676 969l-295 -126h-24l134 129h186z" />
    <glyph glyph-name="Icircumflex" unicode="&#xce;" horiz-adv-x="425" 
d="M267 662q9 29 2.5 40t-34.5 15l-36 5l11 36h315l-11 -36l-39 -5q-30 -4 -43 -15t-22 -40l-174 -566q-9 -29 -2 -40t34 -15l36 -5l-11 -36h-315l12 36l38 5q31 4 44 15t22 40zM461 985l97 -152h-20l-103 63l-196 -63h-27l233 152h16z" />
    <glyph glyph-name="Idieresis" unicode="&#xcf;" horiz-adv-x="425" 
d="M267 662q9 29 2.5 40t-34.5 15l-36 5l11 36h315l-11 -36l-39 -5q-30 -4 -43 -15t-22 -40l-174 -566q-9 -29 -2 -40t34 -15l36 -5l-11 -36h-315l12 36l38 5q31 4 44 15t22 40zM299 840q-29 0 -48 19t-19 48q0 30 19 49.5t48 19.5t48 -19.5t19 -49.5q0 -29 -19 -48t-48 -19
zM535 840q-29 0 -48 19t-19 48q0 30 19 49.5t48 19.5q28 0 47.5 -19.5t19.5 -49.5q0 -29 -19.5 -48t-47.5 -19z" />
    <glyph glyph-name="Eth" unicode="&#xd0;" horiz-adv-x="882" 
d="M-10 36l38 5q31 4 44 15t22 40l173 566q9 29 2.5 40t-34.5 15l-36 5l11 36h289q92 0 164.5 -19.5t123 -56t77 -90t26.5 -120.5q0 -90 -41.5 -175t-119.5 -151t-189 -106t-249 -40h-313zM309 50q115 0 196 41.5t131.5 106.5t73.5 144t23 154q0 114 -59.5 163t-180.5 49
q-24 0 -38 -0.5t-21.5 -3t-11 -6.5t-5.5 -11l-174 -568q-7 -22 -8 -35.5t5 -21t19.5 -10t37.5 -2.5h12zM96 415h391l-18 -61h-391z" />
    <glyph glyph-name="Ntilde" unicode="&#xd1;" horiz-adv-x="914" 
d="M315 602l-124 -404q-17 -56 -23.5 -87t-5 -46t10.5 -18.5t23 -5.5l39 -5l-11 -36h-246l11 36l42 5q15 2 26.5 5.5t22.5 18.5t23 46t29 87l113 372q22 72 9 108t-61 44l11 36h183l324 -547l107 349q17 56 23.5 86.5t5 45.5t-10.5 19t-23 6l-38 5l11 36h245l-11 -36l-41 -5
q-15 -2 -26.5 -6t-22 -19t-23 -45.5t-29.5 -86.5l-175 -570h-31zM479 833q11 67 39.5 104.5t81.5 37.5q24 0 44 -10.5t39 -22.5t37.5 -22.5t38.5 -10.5t36 10.5t27 52.5h21q-7 -42 -18 -69t-25 -42t-31 -20.5t-35 -5.5q-26 0 -45.5 10t-37 22.5t-35.5 22.5t-42 10
q-23 0 -43.5 -13t-30.5 -54h-21z" />
    <glyph glyph-name="Ograve" unicode="&#xd2;" horiz-adv-x="908" 
d="M424 -13q-71 0 -134 22.5t-110 64.5t-74 101.5t-27 133.5q0 56 17 113t48.5 109t75.5 97.5t98.5 79t117 52.5t131.5 19q71 0 134 -23t109.5 -65t73.5 -101.5t27 -132.5q0 -56 -17 -113t-48.5 -109t-75.5 -97.5t-98 -79t-117 -52.5t-131 -19zM427 42q54 0 99 21t81.5 57
t64 82.5t46 98t27.5 103.5t9 99q0 112 -52 166.5t-138 54.5q-54 0 -99.5 -21t-82 -57t-63.5 -82.5t-45.5 -98t-27.5 -103.5t-9 -99q0 -113 52 -167t138 -54zM583 972l57 -129h-19l-203 126l1 3h164z" />
    <glyph glyph-name="Oacute" unicode="&#xd3;" horiz-adv-x="908" 
d="M424 -13q-71 0 -134 22.5t-110 64.5t-74 101.5t-27 133.5q0 56 17 113t48.5 109t75.5 97.5t98.5 79t117 52.5t131.5 19q71 0 134 -23t109.5 -65t73.5 -101.5t27 -132.5q0 -56 -17 -113t-48.5 -109t-75.5 -97.5t-98 -79t-117 -52.5t-131 -19zM427 42q54 0 99 21t81.5 57
t64 82.5t46 98t27.5 103.5t9 99q0 112 -52 166.5t-138 54.5q-54 0 -99.5 -21t-82 -57t-63.5 -82.5t-45.5 -98t-27.5 -103.5t-9 -99q0 -113 52 -167t138 -54zM874 969l-295 -126h-24l134 129h186z" />
    <glyph glyph-name="Ocircumflex" unicode="&#xd4;" horiz-adv-x="908" 
d="M424 -13q-71 0 -134 22.5t-110 64.5t-74 101.5t-27 133.5q0 56 17 113t48.5 109t75.5 97.5t98.5 79t117 52.5t131.5 19q71 0 134 -23t109.5 -65t73.5 -101.5t27 -132.5q0 -56 -17 -113t-48.5 -109t-75.5 -97.5t-98 -79t-117 -52.5t-131 -19zM427 42q54 0 99 21t81.5 57
t64 82.5t46 98t27.5 103.5t9 99q0 112 -52 166.5t-138 54.5q-54 0 -99.5 -21t-82 -57t-63.5 -82.5t-45.5 -98t-27.5 -103.5t-9 -99q0 -113 52 -167t138 -54zM659 985l97 -152h-20l-103 63l-196 -63h-27l233 152h16z" />
    <glyph glyph-name="Otilde" unicode="&#xd5;" horiz-adv-x="908" 
d="M424 -13q-71 0 -134 22.5t-110 64.5t-74 101.5t-27 133.5q0 56 17 113t48.5 109t75.5 97.5t98.5 79t117 52.5t131.5 19q71 0 134 -23t109.5 -65t73.5 -101.5t27 -132.5q0 -56 -17 -113t-48.5 -109t-75.5 -97.5t-98 -79t-117 -52.5t-131 -19zM427 42q54 0 99 21t81.5 57
t64 82.5t46 98t27.5 103.5t9 99q0 112 -52 166.5t-138 54.5q-54 0 -99.5 -21t-82 -57t-63.5 -82.5t-45.5 -98t-27.5 -103.5t-9 -99q0 -113 52 -167t138 -54zM428 833q11 67 39.5 104.5t81.5 37.5q24 0 44 -10.5t39 -22.5t37.5 -22.5t38.5 -10.5t36 10.5t27 52.5h21
q-7 -42 -18 -69t-25 -42t-31 -20.5t-35 -5.5q-26 0 -45.5 10t-37 22.5t-35.5 22.5t-42 10q-23 0 -43.5 -13t-30.5 -54h-21z" />
    <glyph glyph-name="Odieresis" unicode="&#xd6;" horiz-adv-x="908" 
d="M424 -13q-71 0 -134 22.5t-110 64.5t-74 101.5t-27 133.5q0 56 17 113t48.5 109t75.5 97.5t98.5 79t117 52.5t131.5 19q71 0 134 -23t109.5 -65t73.5 -101.5t27 -132.5q0 -56 -17 -113t-48.5 -109t-75.5 -97.5t-98 -79t-117 -52.5t-131 -19zM427 42q54 0 99 21t81.5 57
t64 82.5t46 98t27.5 103.5t9 99q0 112 -52 166.5t-138 54.5q-54 0 -99.5 -21t-82 -57t-63.5 -82.5t-45.5 -98t-27.5 -103.5t-9 -99q0 -113 52 -167t138 -54zM496 840q-29 0 -48 19t-19 48q0 30 19 49.5t48 19.5t48 -19.5t19 -49.5q0 -29 -19 -48t-48 -19zM732 840
q-29 0 -48 19t-19 48q0 30 19 49.5t48 19.5q28 0 47.5 -19.5t19.5 -49.5q0 -29 -19.5 -48t-47.5 -19z" />
    <glyph glyph-name="multiply" unicode="&#xd7;" horiz-adv-x="653" 
d="M93 76l186 187l-186 186l51 51l186 -186l186 186l51 -51l-186 -186l186 -187l-51 -51l-186 186l-186 -186z" />
    <glyph glyph-name="Oslash" unicode="&#xd8;" horiz-adv-x="908" 
d="M424 -13q-71 0 -134 22.5t-110 64.5t-74 101.5t-27 133.5q0 56 17 113t48.5 109t75.5 97.5t98.5 79t117 52.5t131.5 19q71 0 134 -23t109.5 -65t73.5 -101.5t27 -132.5q0 -56 -17 -113t-48.5 -109t-75.5 -97.5t-98 -79t-117 -52.5t-131 -19zM427 42q54 0 99 21t81.5 57
t64 82.5t46 98t27.5 103.5t9 99q0 112 -52 166.5t-138 54.5q-54 0 -99.5 -21t-82 -57t-63.5 -82.5t-45.5 -98t-27.5 -103.5t-9 -99q0 -113 52 -167t138 -54zM905 835l40 -43l-907 -860l-41 43z" />
    <glyph glyph-name="Ugrave" unicode="&#xd9;" horiz-adv-x="873" 
d="M380 -13q-75 0 -132 17t-90 54.5t-40 97t19 143.5l111 363q9 29 2.5 40t-34.5 15l-36 5l11 36h315l-11 -36l-39 -5q-30 -4 -43.5 -15t-22.5 -40l-111 -364q-40 -130 -6.5 -189.5t137.5 -59.5q112 0 184.5 59t114.5 194l80 258q17 56 23 86.5t4 45.5t-11.5 19t-22.5 6
l-39 5l11 36h246l-12 -36l-41 -5q-15 -2 -26 -6t-21.5 -19t-22.5 -45.5t-29 -86.5l-79 -260q-50 -165 -144.5 -239t-244.5 -74zM633 972l57 -129h-19l-203 126l1 3h164z" />
    <glyph glyph-name="Uacute" unicode="&#xda;" horiz-adv-x="873" 
d="M380 -13q-75 0 -132 17t-90 54.5t-40 97t19 143.5l111 363q9 29 2.5 40t-34.5 15l-36 5l11 36h315l-11 -36l-39 -5q-30 -4 -43.5 -15t-22.5 -40l-111 -364q-40 -130 -6.5 -189.5t137.5 -59.5q112 0 184.5 59t114.5 194l80 258q17 56 23 86.5t4 45.5t-11.5 19t-22.5 6
l-39 5l11 36h246l-12 -36l-41 -5q-15 -2 -26 -6t-21.5 -19t-22.5 -45.5t-29 -86.5l-79 -260q-50 -165 -144.5 -239t-244.5 -74zM924 969l-295 -126h-24l134 129h186z" />
    <glyph glyph-name="Ucircumflex" unicode="&#xdb;" horiz-adv-x="873" 
d="M380 -13q-75 0 -132 17t-90 54.5t-40 97t19 143.5l111 363q9 29 2.5 40t-34.5 15l-36 5l11 36h315l-11 -36l-39 -5q-30 -4 -43.5 -15t-22.5 -40l-111 -364q-40 -130 -6.5 -189.5t137.5 -59.5q112 0 184.5 59t114.5 194l80 258q17 56 23 86.5t4 45.5t-11.5 19t-22.5 6
l-39 5l11 36h246l-12 -36l-41 -5q-15 -2 -26 -6t-21.5 -19t-22.5 -45.5t-29 -86.5l-79 -260q-50 -165 -144.5 -239t-244.5 -74zM709 985l97 -152h-20l-103 63l-196 -63h-27l233 152h16z" />
    <glyph glyph-name="Udieresis" unicode="&#xdc;" horiz-adv-x="873" 
d="M380 -13q-75 0 -132 17t-90 54.5t-40 97t19 143.5l111 363q9 29 2.5 40t-34.5 15l-36 5l11 36h315l-11 -36l-39 -5q-30 -4 -43.5 -15t-22.5 -40l-111 -364q-40 -130 -6.5 -189.5t137.5 -59.5q112 0 184.5 59t114.5 194l80 258q17 56 23 86.5t4 45.5t-11.5 19t-22.5 6
l-39 5l11 36h246l-12 -36l-41 -5q-15 -2 -26 -6t-21.5 -19t-22.5 -45.5t-29 -86.5l-79 -260q-50 -165 -144.5 -239t-244.5 -74zM546 840q-29 0 -48 19t-19 48q0 30 19 49.5t48 19.5t48 -19.5t19 -49.5q0 -29 -19 -48t-48 -19zM782 840q-29 0 -48 19t-19 48q0 30 19 49.5
t48 19.5q28 0 47.5 -19.5t19.5 -49.5q0 -29 -19.5 -48t-47.5 -19z" />
    <glyph glyph-name="Yacute" unicode="&#xdd;" horiz-adv-x="790" 
d="M142 38l69 5q29 2 42.5 13t22.5 40l74 243l-126 317q-5 13 -9 23.5t-9 18t-13 12.5t-21 7l-36 5l11 36h325l-11 -36l-39 -5q-31 -4 -44 -17t-3 -38l102 -261l202 196q33 32 51 54t23.5 36t0 21t-18.5 9l-36 5l11 36h249l-12 -36l-36 -5q-15 -2 -27.5 -8t-27.5 -18.5
t-35.5 -32.5t-52.5 -51l-275 -267l-75 -244q-9 -29 -2.5 -40t35.5 -13l66 -5l-12 -38h-375zM881 969l-295 -126h-24l134 129h186z" />
    <glyph glyph-name="Thorn" unicode="&#xde;" horiz-adv-x="769" 
d="M-10 36l38 5q31 4 44 15t22 40l173 566q9 29 2.5 40t-34.5 15l-36 5l11 36h315l-11 -36l-39 -5q-14 -2 -24 -5t-17.5 -8.5t-12.5 -14t-9 -21.5l-22 -68h114q57 0 108 -9t88.5 -29t59.5 -52.5t22 -80.5q0 -51 -24 -97.5t-71.5 -81.5t-118.5 -56t-166 -21h-142l-24 -77
q-9 -29 -2.5 -40t35.5 -13l66 -5l-12 -38h-345zM274 220h126q60 0 102.5 19.5t69.5 49.5t39.5 67.5t12.5 73.5q0 66 -39 93.5t-111 27.5h-46q-35 0 -45.5 -4t-14.5 -20z" />
    <glyph glyph-name="germandbls" unicode="&#xdf;" horiz-adv-x="669" 
d="M-169 -265q-38 0 -62 19t-24 46q0 20 14.5 37t40.5 17q17 0 29.5 -9.5t23.5 -21t22.5 -21t25.5 -9.5t26 8.5t25.5 34.5t31.5 73.5t45 124.5l137 397h-92l11 33l105 36l8 22q21 57 60.5 108t90 90t107 61.5t111.5 22.5q72 0 109 -29t37 -75q0 -39 -24 -74t-59 -52l-82 -42
q-34 -17 -50.5 -31.5t-16.5 -36.5q0 -15 12 -35t36 -53l17 -23q29 -40 47 -75.5t18 -73.5q0 -42 -20 -81t-55 -69t-82.5 -48.5t-102.5 -18.5q-29 0 -54 7t-44 19.5t-30 29t-11 36.5q0 23 16 38.5t42 15.5q24 0 34.5 -16t19.5 -35t21.5 -35t39.5 -16q22 0 42 8t35 23t24 36
t9 46q0 31 -11 55t-33 53l-18 24q-36 47 -51 79t-15 65q0 18 6 34t20.5 31.5t39 32.5t60.5 38q99 58 99 136q0 34 -18 49t-48 15q-23 0 -47 -8t-48 -28t-46 -54.5t-40 -87.5l-163 -474q-33 -95 -75.5 -164t-89.5 -115t-95 -68t-91 -22z" />
    <glyph glyph-name="agrave" unicode="&#xe0;" horiz-adv-x="587" 
d="M93 -13q-51 0 -74 28.5t-23 71.5t19 92t50.5 97.5t72 92.5t83.5 78t84 54t75 20q46 0 57 -34l18 47h124l-156 -412q-11 -29 -12.5 -43t11.5 -14q18 0 53.5 36.5t71.5 96.5l34 -19q-58 -97 -118.5 -144.5t-119.5 -47.5q-48 0 -55.5 30t16.5 96l21 57h-1
q-61 -92 -116 -137.5t-115 -45.5zM167 60q17 0 45 24t59 63.5t60.5 89.5t49.5 103l18 48q10 27 11.5 44t-3 27.5t-13.5 14.5t-19 4q-26 0 -54 -17.5t-54.5 -47t-49.5 -67t-40.5 -78t-27.5 -80.5t-10 -73q0 -25 6 -40t22 -15zM433 609l-164 170l3 9h131l46 -179h-16z" />
    <glyph glyph-name="aacute" unicode="&#xe1;" horiz-adv-x="587" 
d="M93 -13q-51 0 -74 28.5t-23 71.5t19 92t50.5 97.5t72 92.5t83.5 78t84 54t75 20q46 0 57 -34l18 47h124l-156 -412q-11 -29 -12.5 -43t11.5 -14q18 0 53.5 36.5t71.5 96.5l34 -19q-58 -97 -118.5 -144.5t-119.5 -47.5q-48 0 -55.5 30t16.5 96l21 57h-1
q-61 -92 -116 -137.5t-115 -45.5zM167 60q17 0 45 24t59 63.5t60.5 89.5t49.5 103l18 48q10 27 11.5 44t-3 27.5t-13.5 14.5t-19 4q-26 0 -54 -17.5t-54.5 -47t-49.5 -67t-40.5 -78t-27.5 -80.5t-10 -73q0 -25 6 -40t22 -15zM563 788h155l-3 -9l-286 -170h-21z" />
    <glyph glyph-name="acircumflex" unicode="&#xe2;" horiz-adv-x="587" 
d="M93 -13q-51 0 -74 28.5t-23 71.5t19 92t50.5 97.5t72 92.5t83.5 78t84 54t75 20q46 0 57 -34l18 47h124l-156 -412q-11 -29 -12.5 -43t11.5 -14q18 0 53.5 36.5t71.5 96.5l34 -19q-58 -97 -118.5 -144.5t-119.5 -47.5q-48 0 -55.5 30t16.5 96l21 57h-1
q-61 -92 -116 -137.5t-115 -45.5zM167 60q17 0 45 24t59 63.5t60.5 89.5t49.5 103l18 48q10 27 11.5 44t-3 27.5t-13.5 14.5t-19 4q-26 0 -54 -17.5t-54.5 -47t-49.5 -67t-40.5 -78t-27.5 -80.5t-10 -73q0 -25 6 -40t22 -15zM597 609h-17l-95 86l-201 -86h-23l246 196h12z
" />
    <glyph glyph-name="atilde" unicode="&#xe3;" horiz-adv-x="587" 
d="M93 -13q-51 0 -74 28.5t-23 71.5t19 92t50.5 97.5t72 92.5t83.5 78t84 54t75 20q46 0 57 -34l18 47h124l-156 -412q-11 -29 -12.5 -43t11.5 -14q18 0 53.5 36.5t71.5 96.5l34 -19q-58 -97 -118.5 -144.5t-119.5 -47.5q-48 0 -55.5 30t16.5 96l21 57h-1
q-61 -92 -116 -137.5t-115 -45.5zM167 60q17 0 45 24t59 63.5t60.5 89.5t49.5 103l18 48q10 27 11.5 44t-3 27.5t-13.5 14.5t-19 4q-26 0 -54 -17.5t-54.5 -47t-49.5 -67t-40.5 -78t-27.5 -80.5t-10 -73q0 -25 6 -40t22 -15zM285 648q11 67 39.5 104.5t81.5 37.5
q24 0 44 -10.5t39 -22.5t37.5 -22.5t38.5 -10.5t36 10.5t27 52.5h21q-7 -42 -18 -69t-25 -42t-31 -20.5t-35 -5.5q-26 0 -45.5 10t-37 22.5t-35.5 22.5t-42 10q-23 0 -43.5 -13t-30.5 -54h-21z" />
    <glyph glyph-name="adieresis" unicode="&#xe4;" horiz-adv-x="587" 
d="M93 -13q-51 0 -74 28.5t-23 71.5t19 92t50.5 97.5t72 92.5t83.5 78t84 54t75 20q46 0 57 -34l18 47h124l-156 -412q-11 -29 -12.5 -43t11.5 -14q18 0 53.5 36.5t71.5 96.5l34 -19q-58 -97 -118.5 -144.5t-119.5 -47.5q-48 0 -55.5 30t16.5 96l21 57h-1
q-61 -92 -116 -137.5t-115 -45.5zM167 60q17 0 45 24t59 63.5t60.5 89.5t49.5 103l18 48q10 27 11.5 44t-3 27.5t-13.5 14.5t-19 4q-26 0 -54 -17.5t-54.5 -47t-49.5 -67t-40.5 -78t-27.5 -80.5t-10 -73q0 -25 6 -40t22 -15zM581 644q-27 0 -45.5 18.5t-18.5 47.5
q0 28 18.5 46.5t45.5 18.5q28 0 46.5 -18.5t18.5 -46.5q0 -29 -18.5 -47.5t-46.5 -18.5zM352 644q-27 0 -45.5 18.5t-18.5 47.5q0 28 18.5 46.5t45.5 18.5q28 0 46.5 -18.5t18.5 -46.5q0 -29 -18.5 -47.5t-46.5 -18.5z" />
    <glyph glyph-name="aring" unicode="&#xe5;" horiz-adv-x="587" 
d="M93 -13q-51 0 -74 28.5t-23 71.5t19 92t50.5 97.5t72 92.5t83.5 78t84 54t75 20q46 0 57 -34l18 47h124l-156 -412q-11 -29 -12.5 -43t11.5 -14q18 0 53.5 36.5t71.5 96.5l34 -19q-58 -97 -118.5 -144.5t-119.5 -47.5q-48 0 -55.5 30t16.5 96l21 57h-1
q-61 -92 -116 -137.5t-115 -45.5zM167 60q17 0 45 24t59 63.5t60.5 89.5t49.5 103l18 48q10 27 11.5 44t-3 27.5t-13.5 14.5t-19 4q-26 0 -54 -17.5t-54.5 -47t-49.5 -67t-40.5 -78t-27.5 -80.5t-10 -73q0 -25 6 -40t22 -15zM341 705q0 25 10 47t26.5 38.5t39 26t48.5 9.5
q27 0 50 -9.5t40 -26t26.5 -38.5t9.5 -47t-9.5 -46.5t-26.5 -37.5t-40 -25.5t-50 -9.5q-26 0 -48.5 9.5t-39 25.5t-26.5 37.5t-10 46.5zM532 705q0 32 -17.5 50t-49.5 18q-31 0 -48.5 -18t-17.5 -50q0 -31 17.5 -49.5t48.5 -18.5q32 0 49.5 18.5t17.5 49.5z" />
    <glyph glyph-name="ae" unicode="&#xe6;" horiz-adv-x="747" 
d="M106 -13q-51 0 -81 27.5t-30 83.5q0 45 20 94.5t59 96.5t96.5 89t131.5 74t165 50.5t197 18.5q49 0 73.5 -21t24.5 -56q0 -44 -22 -73.5t-50 -48.5q-22 -6 -52.5 -14t-63.5 -15.5t-66.5 -15.5t-61.5 -14q-5 -21 -7.5 -42.5t-2.5 -42.5q0 -57 20.5 -81.5t54.5 -24.5
q38 0 72.5 31.5t72.5 94.5l33 -18q-21 -36 -45 -70.5t-54 -62t-67 -44t-83 -16.5q-55 0 -93 31t-46 88q-49 -63 -99 -91t-96 -28zM615 475q-23 0 -45.5 -13.5t-43.5 -37.5t-39 -55.5t-30 -67.5q23 5 43 10t37 11q36 12 58.5 26.5t35 29.5t17 30.5t4.5 29.5q0 17 -9.5 27
t-27.5 10zM139 117q0 -57 38 -57q20 0 51.5 19.5t73.5 76.5q5 44 24 89t48 86.5t65.5 77.5t76.5 62q-93 -15 -163.5 -49t-118 -81t-71.5 -105t-24 -119z" />
    <glyph glyph-name="ccedilla" unicode="&#xe7;" horiz-adv-x="446" 
d="M151 -13q-60 0 -98.5 36.5t-38.5 104.5q0 45 15.5 92t42.5 90.5t62.5 82t75 67t80.5 45t80 16.5q17 0 33.5 -3.5t29 -11t20.5 -20t8 -31.5q0 -26 -17.5 -46t-43.5 -20q-17 0 -28.5 9.5t-23 20.5t-25 20.5t-34.5 9.5q-30 0 -55.5 -24t-44.5 -62t-29.5 -87t-10.5 -98
q0 -57 19 -81.5t52 -24.5q36 0 71.5 31.5t73.5 94.5l33 -18q-21 -36 -45.5 -70.5t-54 -62t-66 -44t-81.5 -16.5zM36 -263q-52 0 -76 20t-24 42q0 23 19 32t40 1q1 -32 17.5 -48t41.5 -16q43 0 43 29q0 17 -22.5 35.5t-66.5 47.5l152 120h49l-107 -84q28 -18 44.5 -38.5
t16.5 -45.5q0 -19 -9.5 -36.5t-26.5 -30.5t-40 -20.5t-51 -7.5z" />
    <glyph glyph-name="egrave" unicode="&#xe8;" horiz-adv-x="459" 
d="M152 -13q-60 0 -100 36.5t-40 104.5q0 44 15.5 90t42.5 90t63 82.5t76.5 67.5t83 46t83.5 17q49 0 73 -21t24 -56q0 -44 -21.5 -73.5t-49.5 -48.5q-22 -6 -52.5 -14t-64 -16t-67 -15.5t-61.5 -13.5q-5 -21 -7.5 -42.5t-2.5 -42.5q0 -57 21 -81.5t55 -24.5q38 0 72 31.5
t73 94.5l33 -18q-21 -36 -45.5 -70.5t-54.5 -62t-66.5 -44t-82.5 -16.5zM327 475q-23 0 -46 -13.5t-44 -37.5t-39 -56t-30 -68q23 5 43.5 10.5t37.5 11.5q36 12 58.5 26.5t35 29.5t17 30.5t4.5 29.5q0 17 -9.5 27t-27.5 10zM380 609l-164 170l3 9h131l46 -179h-16z" />
    <glyph glyph-name="eacute" unicode="&#xe9;" horiz-adv-x="459" 
d="M152 -13q-60 0 -100 36.5t-40 104.5q0 44 15.5 90t42.5 90t63 82.5t76.5 67.5t83 46t83.5 17q49 0 73 -21t24 -56q0 -44 -21.5 -73.5t-49.5 -48.5q-22 -6 -52.5 -14t-64 -16t-67 -15.5t-61.5 -13.5q-5 -21 -7.5 -42.5t-2.5 -42.5q0 -57 21 -81.5t55 -24.5q38 0 72 31.5
t73 94.5l33 -18q-21 -36 -45.5 -70.5t-54.5 -62t-66.5 -44t-82.5 -16.5zM327 475q-23 0 -46 -13.5t-44 -37.5t-39 -56t-30 -68q23 5 43.5 10.5t37.5 11.5q36 12 58.5 26.5t35 29.5t17 30.5t4.5 29.5q0 17 -9.5 27t-27.5 10zM510 788h155l-3 -9l-286 -170h-21z" />
    <glyph glyph-name="ecircumflex" unicode="&#xea;" horiz-adv-x="459" 
d="M152 -13q-60 0 -100 36.5t-40 104.5q0 44 15.5 90t42.5 90t63 82.5t76.5 67.5t83 46t83.5 17q49 0 73 -21t24 -56q0 -44 -21.5 -73.5t-49.5 -48.5q-22 -6 -52.5 -14t-64 -16t-67 -15.5t-61.5 -13.5q-5 -21 -7.5 -42.5t-2.5 -42.5q0 -57 21 -81.5t55 -24.5q38 0 72 31.5
t73 94.5l33 -18q-21 -36 -45.5 -70.5t-54.5 -62t-66.5 -44t-82.5 -16.5zM327 475q-23 0 -46 -13.5t-44 -37.5t-39 -56t-30 -68q23 5 43.5 10.5t37.5 11.5q36 12 58.5 26.5t35 29.5t17 30.5t4.5 29.5q0 17 -9.5 27t-27.5 10zM543 609h-17l-95 86l-201 -86h-23l246 196h12z
" />
    <glyph glyph-name="edieresis" unicode="&#xeb;" horiz-adv-x="459" 
d="M152 -13q-60 0 -100 36.5t-40 104.5q0 44 15.5 90t42.5 90t63 82.5t76.5 67.5t83 46t83.5 17q49 0 73 -21t24 -56q0 -44 -21.5 -73.5t-49.5 -48.5q-22 -6 -52.5 -14t-64 -16t-67 -15.5t-61.5 -13.5q-5 -21 -7.5 -42.5t-2.5 -42.5q0 -57 21 -81.5t55 -24.5q38 0 72 31.5
t73 94.5l33 -18q-21 -36 -45.5 -70.5t-54.5 -62t-66.5 -44t-82.5 -16.5zM327 475q-23 0 -46 -13.5t-44 -37.5t-39 -56t-30 -68q23 5 43.5 10.5t37.5 11.5q36 12 58.5 26.5t35 29.5t17 30.5t4.5 29.5q0 17 -9.5 27t-27.5 10zM528 644q-27 0 -45.5 18.5t-18.5 47.5
q0 28 18.5 46.5t45.5 18.5q28 0 46.5 -18.5t18.5 -46.5q0 -29 -18.5 -47.5t-46.5 -18.5zM299 644q-27 0 -45.5 18.5t-18.5 47.5q0 28 18.5 46.5t45.5 18.5q28 0 46.5 -18.5t18.5 -46.5q0 -29 -18.5 -47.5t-46.5 -18.5z" />
    <glyph glyph-name="igrave" unicode="&#xec;" horiz-adv-x="348" 
d="M96 -13q-47 0 -63 30t10 95l123 306q6 14 1.5 24.5t-28.5 13.5l-45 5l12 33l227 21l-157 -393q-12 -29 -13 -43t13 -14q9 0 22.5 9.5t30 27t35.5 42t37 54.5l34 -19q-59 -97 -119 -144.5t-120 -47.5zM294 609l-164 170l3 9h131l46 -179h-16z" />
    <glyph glyph-name="iacute" unicode="&#xed;" horiz-adv-x="348" 
d="M96 -13q-47 0 -63 30t10 95l123 306q6 14 1.5 24.5t-28.5 13.5l-45 5l12 33l227 21l-157 -393q-12 -29 -13 -43t13 -14q9 0 22.5 9.5t30 27t35.5 42t37 54.5l34 -19q-59 -97 -119 -144.5t-120 -47.5zM424 788h155l-3 -9l-286 -170h-21z" />
    <glyph glyph-name="icircumflex" unicode="&#xee;" horiz-adv-x="348" 
d="M96 -13q-47 0 -63 30t10 95l123 306q6 14 1.5 24.5t-28.5 13.5l-45 5l12 33l227 21l-157 -393q-12 -29 -13 -43t13 -14q9 0 22.5 9.5t30 27t35.5 42t37 54.5l34 -19q-59 -97 -119 -144.5t-120 -47.5zM457 609h-17l-95 86l-201 -86h-23l246 196h12z" />
    <glyph glyph-name="idieresis" unicode="&#xef;" horiz-adv-x="348" 
d="M96 -13q-47 0 -63 30t10 95l123 306q6 14 1.5 24.5t-28.5 13.5l-45 5l12 33l227 21l-157 -393q-12 -29 -13 -43t13 -14q9 0 22.5 9.5t30 27t35.5 42t37 54.5l34 -19q-59 -97 -119 -144.5t-120 -47.5zM426 639q-28 0 -46.5 19t-18.5 47q0 29 18.5 47.5t46.5 18.5
q27 0 46 -18.5t19 -47.5q0 -28 -19 -47t-46 -19zM226 639q-28 0 -46.5 19t-18.5 47q0 29 18.5 47.5t46.5 18.5q27 0 46 -18.5t19 -47.5q0 -28 -19 -47t-46 -19z" />
    <glyph glyph-name="eth" unicode="&#xf0;" horiz-adv-x="554" 
d="M165 -13q-69 0 -111.5 35t-42.5 102q0 41 15 86.5t41 89.5t60.5 84t74 70.5t81 48.5t81.5 18h9t9 -1q-11 35 -30 69t-47 66l-148 -66l-20 45l131 59q-20 17 -43.5 34t-50.5 32l19 38q79 -27 146 -73l149 67l20 -45l-123 -55q72 -57 115 -131t43 -159q0 -87 -34.5 -162.5
t-89.5 -131.5t-122 -88t-132 -32zM148 122q0 -41 11 -63.5t43 -22.5q35 0 71 30.5t64.5 80t46.5 113.5t18 131q0 26 -3 53q-11 34 -51 34q-28 0 -53.5 -17.5t-47.5 -46t-40.5 -65.5t-31.5 -76.5t-20 -79t-7 -71.5z" />
    <glyph glyph-name="ntilde" unicode="&#xf1;" horiz-adv-x="620" 
d="M164 418q5 14 1 24.5t-28 13.5l-45 5l12 33l217 21l-80 -194h3q39 53 72.5 91t64 62t59 35.5t57.5 11.5q33 0 50 -12.5t21.5 -35t-2 -53.5t-21.5 -68l-94 -230q-12 -29 -13 -43t13 -14q9 0 22.5 9.5t30 27t35.5 42t37 54.5l33 -19q-58 -97 -118 -144.5t-120 -47.5
q-48 0 -63.5 29.5t10.5 95.5l92 226q21 52 24 76.5t-19 24.5q-17 0 -46 -23t-62.5 -65t-67.5 -100.5t-61 -128.5l-37 -112l-144 -22zM285 648q11 67 39.5 104.5t81.5 37.5q24 0 44 -10.5t39 -22.5t37.5 -22.5t38.5 -10.5t36 10.5t27 52.5h21q-7 -42 -18 -69t-25 -42
t-31 -20.5t-35 -5.5q-26 0 -45.5 10t-37 22.5t-35.5 22.5t-42 10q-23 0 -43.5 -13t-30.5 -54h-21z" />
    <glyph glyph-name="ograve" unicode="&#xf2;" horiz-adv-x="553" 
d="M180 -13q-40 0 -70.5 12t-50.5 32.5t-30.5 48t-10.5 59.5q0 47 15.5 94t41.5 89t61.5 78.5t75.5 63.5t82 42t83 15q40 0 70.5 -12.5t51 -33.5t31 -48.5t10.5 -58.5q0 -47 -15.5 -93.5t-42 -89t-62 -79t-75.5 -63t-82.5 -41.5t-82.5 -15zM213 35q37 0 70.5 33.5t59 85
t41 112.5t15.5 116q0 45 -12 68t-42 23q-37 0 -71 -33.5t-59.5 -85t-41 -112.5t-15.5 -116q0 -46 12 -68.5t43 -22.5zM403 609l-164 170l3 9h131l46 -179h-16z" />
    <glyph glyph-name="oacute" unicode="&#xf3;" horiz-adv-x="553" 
d="M180 -13q-40 0 -70.5 12t-50.5 32.5t-30.5 48t-10.5 59.5q0 47 15.5 94t41.5 89t61.5 78.5t75.5 63.5t82 42t83 15q40 0 70.5 -12.5t51 -33.5t31 -48.5t10.5 -58.5q0 -47 -15.5 -93.5t-42 -89t-62 -79t-75.5 -63t-82.5 -41.5t-82.5 -15zM213 35q37 0 70.5 33.5t59 85
t41 112.5t15.5 116q0 45 -12 68t-42 23q-37 0 -71 -33.5t-59.5 -85t-41 -112.5t-15.5 -116q0 -46 12 -68.5t43 -22.5zM533 788h155l-3 -9l-286 -170h-21z" />
    <glyph glyph-name="ocircumflex" unicode="&#xf4;" horiz-adv-x="553" 
d="M180 -13q-40 0 -70.5 12t-50.5 32.5t-30.5 48t-10.5 59.5q0 47 15.5 94t41.5 89t61.5 78.5t75.5 63.5t82 42t83 15q40 0 70.5 -12.5t51 -33.5t31 -48.5t10.5 -58.5q0 -47 -15.5 -93.5t-42 -89t-62 -79t-75.5 -63t-82.5 -41.5t-82.5 -15zM213 35q37 0 70.5 33.5t59 85
t41 112.5t15.5 116q0 45 -12 68t-42 23q-37 0 -71 -33.5t-59.5 -85t-41 -112.5t-15.5 -116q0 -46 12 -68.5t43 -22.5zM566 609h-17l-95 86l-201 -86h-23l246 196h12z" />
    <glyph glyph-name="otilde" unicode="&#xf5;" horiz-adv-x="553" 
d="M180 -13q-40 0 -70.5 12t-50.5 32.5t-30.5 48t-10.5 59.5q0 47 15.5 94t41.5 89t61.5 78.5t75.5 63.5t82 42t83 15q40 0 70.5 -12.5t51 -33.5t31 -48.5t10.5 -58.5q0 -47 -15.5 -93.5t-42 -89t-62 -79t-75.5 -63t-82.5 -41.5t-82.5 -15zM213 35q37 0 70.5 33.5t59 85
t41 112.5t15.5 116q0 45 -12 68t-42 23q-37 0 -71 -33.5t-59.5 -85t-41 -112.5t-15.5 -116q0 -46 12 -68.5t43 -22.5zM255 648q11 67 39.5 104.5t81.5 37.5q24 0 44 -10.5t39 -22.5t37.5 -22.5t38.5 -10.5t36 10.5t27 52.5h21q-7 -42 -18 -69t-25 -42t-31 -20.5t-35 -5.5
q-26 0 -45.5 10t-37 22.5t-35.5 22.5t-42 10q-23 0 -43.5 -13t-30.5 -54h-21z" />
    <glyph glyph-name="odieresis" unicode="&#xf6;" horiz-adv-x="553" 
d="M180 -13q-40 0 -70.5 12t-50.5 32.5t-30.5 48t-10.5 59.5q0 47 15.5 94t41.5 89t61.5 78.5t75.5 63.5t82 42t83 15q40 0 70.5 -12.5t51 -33.5t31 -48.5t10.5 -58.5q0 -47 -15.5 -93.5t-42 -89t-62 -79t-75.5 -63t-82.5 -41.5t-82.5 -15zM213 35q37 0 70.5 33.5t59 85
t41 112.5t15.5 116q0 45 -12 68t-42 23q-37 0 -71 -33.5t-59.5 -85t-41 -112.5t-15.5 -116q0 -46 12 -68.5t43 -22.5zM551 644q-27 0 -45.5 18.5t-18.5 47.5q0 28 18.5 46.5t45.5 18.5q28 0 46.5 -18.5t18.5 -46.5q0 -29 -18.5 -47.5t-46.5 -18.5zM322 644q-27 0 -45.5 18.5
t-18.5 47.5q0 28 18.5 46.5t45.5 18.5q28 0 46.5 -18.5t18.5 -46.5q0 -29 -18.5 -47.5t-46.5 -18.5z" />
    <glyph glyph-name="divide" unicode="&#xf7;" horiz-adv-x="653" 
d="M331 366q-18 0 -33.5 7t-27 18.5t-18.5 27t-7 33.5t7 33.5t18.5 27t27 18.5t33.5 7t33.5 -7t27.5 -18.5t18.5 -27t6.5 -33.5t-6.5 -33.5t-18.5 -27t-27.5 -18.5t-33.5 -7zM68 298h527v-71h-527v71zM331 -13q-18 0 -33.5 7t-27 18.5t-18.5 27.5t-7 34q0 17 7 32.5t18.5 27
t27 18.5t33.5 7t33.5 -7t27.5 -18.5t18.5 -27t6.5 -32.5q0 -36 -25 -61.5t-61 -25.5z" />
    <glyph glyph-name="oslash" unicode="&#xf8;" horiz-adv-x="610" 
d="M207 -13q-40 0 -70.5 12t-50.5 32.5t-30.5 48t-10.5 59.5q0 47 15.5 94t41.5 89t61.5 78.5t75.5 63.5t82 42t83 15q40 0 70.5 -12.5t51 -33.5t31 -48.5t10.5 -58.5q0 -47 -15.5 -93.5t-42 -89t-62 -79t-75.5 -63t-82.5 -41.5t-82.5 -15zM240 35q37 0 70.5 33.5t59 85
t41 112.5t15.5 116q0 45 -12 68t-42 23q-37 0 -71 -33.5t-59.5 -85t-41 -112.5t-15.5 -116q0 -46 12 -68.5t43 -22.5zM-56 -14l691 580l31 -37l-691 -581z" />
    <glyph glyph-name="ugrave" unicode="&#xf9;" horiz-adv-x="622" 
d="M194 170q-21 -53 -24 -77t19 -24q18 0 47 23t63 66t68.5 102.5t62.5 133.5l28 81l148 39l-153 -392q-11 -29 -12 -43t12 -14q18 0 53.5 36.5t71.5 96.5l34 -19q-58 -97 -118.5 -144.5t-120.5 -47.5q-95 0 -41 125l32 75h-3q-39 -53 -72.5 -91t-64 -62t-59 -35.5
t-57.5 -11.5q-33 0 -50.5 12.5t-22 35t2 53.5t21.5 68l105 262q6 14 1.5 24.5t-28.5 13.5l-45 5l12 33l228 21zM432 609l-164 170l3 9h131l46 -179h-16z" />
    <glyph glyph-name="uacute" unicode="&#xfa;" horiz-adv-x="622" 
d="M194 170q-21 -53 -24 -77t19 -24q18 0 47 23t63 66t68.5 102.5t62.5 133.5l28 81l148 39l-153 -392q-11 -29 -12 -43t12 -14q18 0 53.5 36.5t71.5 96.5l34 -19q-58 -97 -118.5 -144.5t-120.5 -47.5q-95 0 -41 125l32 75h-3q-39 -53 -72.5 -91t-64 -62t-59 -35.5
t-57.5 -11.5q-33 0 -50.5 12.5t-22 35t2 53.5t21.5 68l105 262q6 14 1.5 24.5t-28.5 13.5l-45 5l12 33l228 21zM562 788h155l-3 -9l-286 -170h-21z" />
    <glyph glyph-name="ucircumflex" unicode="&#xfb;" horiz-adv-x="622" 
d="M194 170q-21 -53 -24 -77t19 -24q18 0 47 23t63 66t68.5 102.5t62.5 133.5l28 81l148 39l-153 -392q-11 -29 -12 -43t12 -14q18 0 53.5 36.5t71.5 96.5l34 -19q-58 -97 -118.5 -144.5t-120.5 -47.5q-95 0 -41 125l32 75h-3q-39 -53 -72.5 -91t-64 -62t-59 -35.5
t-57.5 -11.5q-33 0 -50.5 12.5t-22 35t2 53.5t21.5 68l105 262q6 14 1.5 24.5t-28.5 13.5l-45 5l12 33l228 21zM596 609h-17l-95 86l-201 -86h-23l246 196h12z" />
    <glyph glyph-name="udieresis" unicode="&#xfc;" horiz-adv-x="622" 
d="M194 170q-21 -53 -24 -77t19 -24q18 0 47 23t63 66t68.5 102.5t62.5 133.5l28 81l148 39l-153 -392q-11 -29 -12 -43t12 -14q18 0 53.5 36.5t71.5 96.5l34 -19q-58 -97 -118.5 -144.5t-120.5 -47.5q-95 0 -41 125l32 75h-3q-39 -53 -72.5 -91t-64 -62t-59 -35.5
t-57.5 -11.5q-33 0 -50.5 12.5t-22 35t2 53.5t21.5 68l105 262q6 14 1.5 24.5t-28.5 13.5l-45 5l12 33l228 21zM580 644q-27 0 -45.5 18.5t-18.5 47.5q0 28 18.5 46.5t45.5 18.5q28 0 46.5 -18.5t18.5 -46.5q0 -29 -18.5 -47.5t-46.5 -18.5zM351 644q-27 0 -45.5 18.5
t-18.5 47.5q0 28 18.5 46.5t45.5 18.5q28 0 46.5 -18.5t18.5 -46.5q0 -29 -18.5 -47.5t-46.5 -18.5z" />
    <glyph glyph-name="yacute" unicode="&#xfd;" horiz-adv-x="553" 
d="M-86 -267q-30 0 -47 15t-17 38q0 20 9 30.5t24 14.5t33.5 4h37.5t35.5 1t28.5 8q27 15 58 48.5t73 93.5l-13 432q-1 20 -5 27.5t-22 10.5l-45 5l12 33l191 21v-369l131 194q35 52 61.5 86.5t48 55.5t40 30t37.5 9q26 0 39.5 -12.5t13.5 -33.5q0 -20 -12.5 -36t-47.5 -25
q-20 -5 -37.5 -12t-34.5 -20t-36 -34t-42 -54l-198 -283q-17 -25 -38.5 -53t-44.5 -56t-47 -53.5t-46 -45.5q-78 -70 -140 -70zM542 788h155l-3 -9l-286 -170h-21z" />
    <glyph glyph-name="thorn" unicode="&#xfe;" horiz-adv-x="571" 
d="M36 -248h-127l324 945q5 14 0.5 24t-28.5 13l-46 6l11 32l223 22l-136 -388h1q21 24 44.5 44.5t49 36.5t51.5 25t53 9q56 0 84 -33.5t27 -92.5q-1 -47 -17.5 -95.5t-45 -94t-65.5 -85t-77.5 -69.5t-82.5 -47t-80 -17q-23 0 -43 6.5t-32 18.5zM207 32q30 0 58 16.5t52 43
t43.5 61.5t33.5 72t21.5 73.5t8.5 67.5q1 38 -10 60t-37 22q-55 0 -137 -99l-80 -234q-8 -24 -6.5 -40t9.5 -25.5t20 -13.5t24 -4z" />
    <glyph glyph-name="ydieresis" unicode="&#xff;" horiz-adv-x="553" 
d="M-86 -267q-30 0 -47 15t-17 38q0 20 9 30.5t24 14.5t33.5 4h37.5t35.5 1t28.5 8q27 15 58 48.5t73 93.5l-13 432q-1 20 -5 27.5t-22 10.5l-45 5l12 33l191 21v-369l131 194q35 52 61.5 86.5t48 55.5t40 30t37.5 9q26 0 39.5 -12.5t13.5 -33.5q0 -20 -12.5 -36t-47.5 -25
q-20 -5 -37.5 -12t-34.5 -20t-36 -34t-42 -54l-198 -283q-17 -25 -38.5 -53t-44.5 -56t-47 -53.5t-46 -45.5q-78 -70 -140 -70zM560 644q-27 0 -45.5 18.5t-18.5 47.5q0 28 18.5 46.5t45.5 18.5q28 0 46.5 -18.5t18.5 -46.5q0 -29 -18.5 -47.5t-46.5 -18.5zM331 644
q-27 0 -45.5 18.5t-18.5 47.5q0 28 18.5 46.5t45.5 18.5q28 0 46.5 -18.5t18.5 -46.5q0 -29 -18.5 -47.5t-46.5 -18.5z" />
    <glyph glyph-name="Abreve" unicode="&#x102;" horiz-adv-x="776" 
d="M-96 36l39 5q15 2 27 7t25 17t30 32.5t42 53.5l494 638h52l19 -687q1 -31 10.5 -43.5t39.5 -17.5l35 -5l-11 -36h-312l11 36l39 5q31 4 41 15.5t9 39.5l-5 173h-260l-83 -108q-29 -38 -42.5 -60.5t-15 -35t6 -17.5t21.5 -7l36 -5l-12 -36h-247zM488 331l-7 265l-204 -265
h211zM604 829q-29 0 -56.5 8.5t-47.5 28t-28.5 49.5t-0.5 74h56q-9 -54 14 -81t67 -27q48 0 80.5 23t49.5 85h59q-14 -54 -38 -86t-52 -48.5t-55.5 -21t-47.5 -4.5z" />
    <glyph glyph-name="Amacron" unicode="&#x100;" horiz-adv-x="776" 
d="M-96 36l39 5q15 2 27 7t25 17t30 32.5t42 53.5l494 638h52l19 -687q1 -31 10.5 -43.5t39.5 -17.5l35 -5l-11 -36h-312l11 36l39 5q31 4 41 15.5t9 39.5l-5 173h-260l-83 -108q-29 -38 -42.5 -60.5t-15 -35t6 -17.5t21.5 -7l36 -5l-12 -36h-247zM488 331l-7 265l-204 -265
h211zM463 941h308l-22 -67h-308z" />
    <glyph glyph-name="Aogonek" unicode="&#x104;" horiz-adv-x="776" 
d="M-96 36l39 5q15 2 27 7t25 17t30 32.5t42 53.5l494 638h52l19 -687q1 -31 10.5 -43.5t39.5 -17.5l35 -5l-11 -36h-312l11 36l39 5q31 4 41 15.5t9 39.5l-5 173h-260l-83 -108q-29 -38 -42.5 -60.5t-15 -35t6 -17.5t21.5 -7l36 -5l-12 -36h-247zM488 331l-7 265l-204 -265
h211zM612 -207q-20 -9 -47.5 -18t-54.5 -9q-42 0 -67.5 20.5t-25.5 55.5q0 24 15.5 46t40 42t54 37.5t57.5 32.5h45q-21 -15 -41.5 -31t-37 -33.5t-27 -35.5t-10.5 -37q0 -62 109 -40z" />
    <glyph glyph-name="Cacute" unicode="&#x106;" horiz-adv-x="799" 
d="M424 -13q-78 0 -142.5 22.5t-110 63t-70.5 97.5t-25 126q0 105 46.5 194t124 153t177 100t205.5 36q67 0 121 -9t92 -25l-15 -191h-36l-22 72q-17 57 -57.5 75.5t-105.5 18.5q-63 0 -129 -26t-120 -79t-88.5 -132.5t-34.5 -185.5q0 -65 17 -112.5t46.5 -78.5t69.5 -46
t87 -15q31 0 57 6t50 19t48 32t51 46l70 69h36l-103 -191q-50 -17 -107 -28t-132 -11zM913 969l-295 -126h-24l134 129h186z" />
    <glyph glyph-name="Ccaron" unicode="&#x10c;" horiz-adv-x="799" 
d="M424 -13q-78 0 -142.5 22.5t-110 63t-70.5 97.5t-25 126q0 105 46.5 194t124 153t177 100t205.5 36q67 0 121 -9t92 -25l-15 -191h-36l-22 72q-17 57 -57.5 75.5t-105.5 18.5q-63 0 -129 -26t-120 -79t-88.5 -132.5t-34.5 -185.5q0 -65 17 -112.5t46.5 -78.5t69.5 -46
t87 -15q31 0 57 6t50 19t48 32t51 46l70 69h36l-103 -191q-50 -17 -107 -28t-132 -11zM614 834l-97 152h20l103 -63l196 63h27l-233 -152h-16z" />
    <glyph glyph-name="Ccircumflex" unicode="&#x108;" horiz-adv-x="799" 
d="M424 -13q-78 0 -142.5 22.5t-110 63t-70.5 97.5t-25 126q0 105 46.5 194t124 153t177 100t205.5 36q67 0 121 -9t92 -25l-15 -191h-36l-22 72q-17 57 -57.5 75.5t-105.5 18.5q-63 0 -129 -26t-120 -79t-88.5 -132.5t-34.5 -185.5q0 -65 17 -112.5t46.5 -78.5t69.5 -46
t87 -15q31 0 57 6t50 19t48 32t51 46l70 69h36l-103 -191q-50 -17 -107 -28t-132 -11zM698 985l97 -152h-20l-103 63l-196 -63h-27l233 152h16z" />
    <glyph glyph-name="Cdotaccent" unicode="&#x10a;" horiz-adv-x="799" 
d="M424 -13q-78 0 -142.5 22.5t-110 63t-70.5 97.5t-25 126q0 105 46.5 194t124 153t177 100t205.5 36q67 0 121 -9t92 -25l-15 -191h-36l-22 72q-17 57 -57.5 75.5t-105.5 18.5q-63 0 -129 -26t-120 -79t-88.5 -132.5t-34.5 -185.5q0 -65 17 -112.5t46.5 -78.5t69.5 -46
t87 -15q31 0 57 6t50 19t48 32t51 46l70 69h36l-103 -191q-50 -17 -107 -28t-132 -11zM653 840q-29 0 -48 19t-19 48q0 30 19 49.5t48 19.5q28 0 47.5 -19.5t19.5 -49.5q0 -29 -19.5 -48t-47.5 -19z" />
    <glyph glyph-name="Dcaron" unicode="&#x10e;" horiz-adv-x="882" 
d="M-10 36l38 5q31 4 44 15t22 40l173 566q9 29 2.5 40t-34.5 15l-36 5l11 36h289q92 0 164.5 -19.5t123 -56t77 -90t26.5 -120.5q0 -90 -41.5 -175t-119.5 -151t-189 -106t-249 -40h-313zM309 50q115 0 196 41.5t131.5 106.5t73.5 144t23 154q0 114 -59.5 163t-180.5 49
q-24 0 -38 -0.5t-21.5 -3t-11 -6.5t-5.5 -11l-174 -568q-7 -22 -8 -35.5t5 -21t19.5 -10t37.5 -2.5h12zM580 834l-97 152h20l103 -63l196 63h27l-233 -152h-16z" />
    <glyph glyph-name="Dcroat" unicode="&#x110;" horiz-adv-x="882" 
d="M-10 36l38 5q31 4 44 15t22 40l173 566q9 29 2.5 40t-34.5 15l-36 5l11 36h289q92 0 164.5 -19.5t123 -56t77 -90t26.5 -120.5q0 -90 -41.5 -175t-119.5 -151t-189 -106t-249 -40h-313zM309 50q115 0 196 41.5t131.5 106.5t73.5 144t23 154q0 114 -59.5 163t-180.5 49
q-24 0 -38 -0.5t-21.5 -3t-11 -6.5t-5.5 -11l-174 -568q-7 -22 -8 -35.5t5 -21t19.5 -10t37.5 -2.5h12zM96 415h391l-18 -61h-391z" />
    <glyph glyph-name="Ebreve" unicode="&#x114;" horiz-adv-x="754" 
d="M511 758l306 2l-50 -198h-36l-1 53q-1 30 -8 48t-27 27.5t-56.5 12.5t-95.5 3h-100q-20 0 -26 -20l-84 -274h127q23 0 39 2t28.5 9t23 21t23.5 38l22 41h36l-86 -281h-36l3 41q2 24 0 38t-10 21t-23 9t-38 2h-127l-66 -217q-9 -29 -10.5 -45.5t6 -25t24 -11t44.5 -2.5h45
q62 0 101 3t66 13t47.5 28t47.5 47l62 68h37l-120 -211h-621l12 36l38 5q31 4 44 15t22 40l173 566q9 29 2.5 40t-34.5 15l-36 5l11 36h301zM600 828q-29 0 -56.5 8.5t-47.5 28t-28.5 49.5t-0.5 74h56q-9 -54 14 -81t67 -27q48 0 80.5 23t49.5 85h59q-14 -54 -38 -86
t-52 -48.5t-55.5 -21t-47.5 -4.5z" />
    <glyph glyph-name="Ecaron" unicode="&#x11a;" horiz-adv-x="754" 
d="M511 758l306 2l-50 -198h-36l-1 53q-1 30 -8 48t-27 27.5t-56.5 12.5t-95.5 3h-100q-20 0 -26 -20l-84 -274h127q23 0 39 2t28.5 9t23 21t23.5 38l22 41h36l-86 -281h-36l3 41q2 24 0 38t-10 21t-23 9t-38 2h-127l-66 -217q-9 -29 -10.5 -45.5t6 -25t24 -11t44.5 -2.5h45
q62 0 101 3t66 13t47.5 28t47.5 47l62 68h37l-120 -211h-621l12 36l38 5q31 4 44 15t22 40l173 566q9 29 2.5 40t-34.5 15l-36 5l11 36h301zM563 834l-97 152h20l103 -63l196 63h27l-233 -152h-16z" />
    <glyph glyph-name="Emacron" unicode="&#x112;" horiz-adv-x="754" 
d="M511 758l306 2l-50 -198h-36l-1 53q-1 30 -8 48t-27 27.5t-56.5 12.5t-95.5 3h-100q-20 0 -26 -20l-84 -274h127q23 0 39 2t28.5 9t23 21t23.5 38l22 41h36l-86 -281h-36l3 41q2 24 0 38t-10 21t-23 9t-38 2h-127l-66 -217q-9 -29 -10.5 -45.5t6 -25t24 -11t44.5 -2.5h45
q62 0 101 3t66 13t47.5 28t47.5 47l62 68h37l-120 -211h-621l12 36l38 5q31 4 44 15t22 40l173 566q9 29 2.5 40t-34.5 15l-36 5l11 36h301zM458 940h308l-22 -67h-308z" />
    <glyph glyph-name="Eogonek" unicode="&#x118;" horiz-adv-x="754" 
d="M511 758l306 2l-50 -198h-36l-1 53q-1 30 -8 48t-27 27.5t-56.5 12.5t-95.5 3h-100q-20 0 -26 -20l-84 -274h127q23 0 39 2t28.5 9t23 21t23.5 38l22 41h36l-86 -281h-36l3 41q2 24 0 38t-10 21t-23 9t-38 2h-127l-66 -217q-9 -29 -10.5 -45.5t6 -25t24 -11t44.5 -2.5h45
q62 0 101 3t66 13t47.5 28t47.5 47l62 68h37l-120 -211h-621l12 36l38 5q31 4 44 15t22 40l173 566q9 29 2.5 40t-34.5 15l-36 5l11 36h301zM582 -207q-20 -9 -47.5 -18t-54.5 -9q-42 0 -67.5 20.5t-25.5 55.5q0 24 15.5 46t40 42t54 37.5t57.5 32.5h45q-21 -15 -41.5 -31
t-37 -33.5t-27 -35.5t-10.5 -37q0 -62 109 -40z" />
    <glyph glyph-name="Edotaccent" unicode="&#x116;" horiz-adv-x="754" 
d="M511 758l306 2l-50 -198h-36l-1 53q-1 30 -8 48t-27 27.5t-56.5 12.5t-95.5 3h-100q-20 0 -26 -20l-84 -274h127q23 0 39 2t28.5 9t23 21t23.5 38l22 41h36l-86 -281h-36l3 41q2 24 0 38t-10 21t-23 9t-38 2h-127l-66 -217q-9 -29 -10.5 -45.5t6 -25t24 -11t44.5 -2.5h45
q62 0 101 3t66 13t47.5 28t47.5 47l62 68h37l-120 -211h-621l12 36l38 5q31 4 44 15t22 40l173 566q9 29 2.5 40t-34.5 15l-36 5l11 36h301zM602 840q-29 0 -48 19t-19 48q0 30 19 49.5t48 19.5q28 0 47.5 -19.5t19.5 -49.5q0 -29 -19.5 -48t-47.5 -19z" />
    <glyph glyph-name="Gbreve" unicode="&#x11e;" horiz-adv-x="861" 
d="M424 -13q-78 0 -142 22.5t-109.5 63t-70.5 97.5t-25 126q0 105 46 194t122 153t175 100t205 36q66 0 120.5 -9t92.5 -25l-15 -191h-37l-22 72q-17 57 -57 75.5t-105 18.5q-63 0 -128.5 -26t-118.5 -79t-86.5 -132.5t-33.5 -185.5q0 -65 16.5 -112.5t45.5 -78.5t68.5 -46
t85.5 -15q26 0 54.5 5.5t49.5 14.5l72 208q11 29 5 41t-34 14l-69 5l13 36h347l-15 -44l-88 -4l-74 -212l-17 -72q-36 -3 -67 -11.5t-62.5 -17t-65.5 -15t-76 -6.5zM646 828q-29 0 -56.5 8.5t-47.5 28t-28.5 49.5t-0.5 74h56q-9 -54 14 -81t67 -27q48 0 80.5 23t49.5 85h59
q-14 -54 -38 -86t-52 -48.5t-55.5 -21t-47.5 -4.5z" />
    <glyph glyph-name="Gcircumflex" unicode="&#x11c;" horiz-adv-x="861" 
d="M424 -13q-78 0 -142 22.5t-109.5 63t-70.5 97.5t-25 126q0 105 46 194t122 153t175 100t205 36q66 0 120.5 -9t92.5 -25l-15 -191h-37l-22 72q-17 57 -57 75.5t-105 18.5q-63 0 -128.5 -26t-118.5 -79t-86.5 -132.5t-33.5 -185.5q0 -65 16.5 -112.5t45.5 -78.5t68.5 -46
t85.5 -15q26 0 54.5 5.5t49.5 14.5l72 208q11 29 5 41t-34 14l-69 5l13 36h347l-15 -44l-88 -4l-74 -212l-17 -72q-36 -3 -67 -11.5t-62.5 -17t-65.5 -15t-76 -6.5zM694 985l97 -152h-20l-103 63l-196 -63h-27l233 152h16z" />
    <glyph glyph-name="uni0122" unicode="&#x122;" horiz-adv-x="861" 
d="M424 -13q-78 0 -142 22.5t-109.5 63t-70.5 97.5t-25 126q0 105 46 194t122 153t175 100t205 36q66 0 120.5 -9t92.5 -25l-15 -191h-37l-22 72q-17 57 -57 75.5t-105 18.5q-63 0 -128.5 -26t-118.5 -79t-86.5 -132.5t-33.5 -185.5q0 -65 16.5 -112.5t45.5 -78.5t68.5 -46
t85.5 -15q26 0 54.5 5.5t49.5 14.5l72 208q11 29 5 41t-34 14l-69 5l13 36h347l-15 -44l-88 -4l-74 -212l-17 -72q-36 -3 -67 -11.5t-62.5 -17t-65.5 -15t-76 -6.5zM342 -88q42 0 69 -26t27 -70q0 -33 -17 -60.5t-46.5 -51.5t-69 -44t-84.5 -36l-12 27q60 26 97.5 57.5
t38.5 69.5q1 28 -20.5 44t-53.5 23q0 32 19.5 49.5t51.5 17.5z" />
    <glyph glyph-name="Gdotaccent" unicode="&#x120;" horiz-adv-x="861" 
d="M424 -13q-78 0 -142 22.5t-109.5 63t-70.5 97.5t-25 126q0 105 46 194t122 153t175 100t205 36q66 0 120.5 -9t92.5 -25l-15 -191h-37l-22 72q-17 57 -57 75.5t-105 18.5q-63 0 -128.5 -26t-118.5 -79t-86.5 -132.5t-33.5 -185.5q0 -65 16.5 -112.5t45.5 -78.5t68.5 -46
t85.5 -15q26 0 54.5 5.5t49.5 14.5l72 208q11 29 5 41t-34 14l-69 5l13 36h347l-15 -44l-88 -4l-74 -212l-17 -72q-36 -3 -67 -11.5t-62.5 -17t-65.5 -15t-76 -6.5zM649 840q-29 0 -48 19t-19 48q0 30 19 49.5t48 19.5q28 0 47.5 -19.5t19.5 -49.5q0 -29 -19.5 -48
t-47.5 -19z" />
    <glyph glyph-name="Hbar" unicode="&#x126;" horiz-adv-x="936" 
d="M293 0h-315l12 36l38 5q31 4 44 15t22 40l173 566q9 29 2.5 40t-34.5 15l-36 5l11 36h315l-11 -36l-39 -5q-30 -4 -43 -15t-22 -40l-77 -248h369l77 248q9 29 2 40t-34 15l-36 5l11 36h315l-11 -36l-40 -5q-30 -4 -43 -15t-22 -40l-173 -566q-9 -29 -2.5 -40t34.5 -15
l36 -5l-11 -36h-315l11 36l39 5q30 4 43 15t22 40l79 257h-369l-79 -257q-9 -29 -2 -40t34 -15l36 -5zM160 594h827l-18 -61h-827z" />
    <glyph glyph-name="Hcircumflex" unicode="&#x124;" horiz-adv-x="936" 
d="M293 0h-315l12 36l38 5q31 4 44 15t22 40l173 566q9 29 2.5 40t-34.5 15l-36 5l11 36h315l-11 -36l-39 -5q-30 -4 -43 -15t-22 -40l-77 -248h369l77 248q9 29 2 40t-34 15l-36 5l11 36h315l-11 -36l-40 -5q-30 -4 -43 -15t-22 -40l-173 -566q-9 -29 -2.5 -40t34.5 -15
l36 -5l-11 -36h-315l11 36l39 5q30 4 43 15t22 40l79 257h-369l-79 -257q-9 -29 -2 -40t34 -15l36 -5zM720 985l97 -152h-20l-103 63l-196 -63h-27l233 152h16z" />
    <glyph glyph-name="Ibreve" unicode="&#x12c;" horiz-adv-x="425" 
d="M267 662q9 29 2.5 40t-34.5 15l-36 5l11 36h315l-11 -36l-39 -5q-30 -4 -43 -15t-22 -40l-174 -566q-9 -29 -2 -40t34 -15l36 -5l-11 -36h-315l12 36l38 5q31 4 44 15t22 40zM414 828q-29 0 -56.5 8.5t-47.5 28t-28.5 49.5t-0.5 74h56q-9 -54 14 -81t67 -27q48 0 80.5 23
t49.5 85h59q-14 -54 -38 -86t-52 -48.5t-55.5 -21t-47.5 -4.5z" />
    <glyph glyph-name="Idotaccent" unicode="&#x130;" horiz-adv-x="425" 
d="M267 662q9 29 2.5 40t-34.5 15l-36 5l11 36h315l-11 -36l-39 -5q-30 -4 -43 -15t-22 -40l-174 -566q-9 -29 -2 -40t34 -15l36 -5l-11 -36h-315l12 36l38 5q31 4 44 15t22 40zM417 840q-29 0 -48 19t-19 48q0 30 19 49.5t48 19.5q28 0 47.5 -19.5t19.5 -49.5
q0 -29 -19.5 -48t-47.5 -19z" />
    <glyph glyph-name="Imacron" unicode="&#x12a;" horiz-adv-x="425" 
d="M267 662q9 29 2.5 40t-34.5 15l-36 5l11 36h315l-11 -36l-39 -5q-30 -4 -43 -15t-22 -40l-174 -566q-9 -29 -2 -40t34 -15l36 -5l-11 -36h-315l12 36l38 5q31 4 44 15t22 40zM273 940h308l-22 -67h-308z" />
    <glyph glyph-name="Iogonek" unicode="&#x12e;" horiz-adv-x="425" 
d="M267 662q9 29 2.5 40t-34.5 15l-36 5l11 36h315l-11 -36l-39 -5q-30 -4 -43 -15t-22 -40l-174 -566q-9 -29 -2 -40t34 -15l36 -5l-11 -36h-315l12 36l38 5q31 4 44 15t22 40zM195 -207q-20 -9 -47.5 -18t-54.5 -9q-42 0 -67.5 20.5t-25.5 55.5q0 24 15.5 46t40 42
t54 37.5t57.5 32.5h45q-21 -15 -41.5 -31t-37 -33.5t-27 -35.5t-10.5 -37q0 -62 109 -40z" />
    <glyph glyph-name="Itilde" unicode="&#x128;" horiz-adv-x="425" 
d="M267 662q9 29 2.5 40t-34.5 15l-36 5l11 36h315l-11 -36l-39 -5q-30 -4 -43 -15t-22 -40l-174 -566q-9 -29 -2 -40t34 -15l36 -5l-11 -36h-315l12 36l38 5q31 4 44 15t22 40zM230 833q11 67 39.5 104.5t81.5 37.5q24 0 44 -10.5t39 -22.5t37.5 -22.5t38.5 -10.5t36 10.5
t27 52.5h21q-7 -42 -18 -69t-25 -42t-31 -20.5t-35 -5.5q-26 0 -45.5 10t-37 22.5t-35.5 22.5t-42 10q-23 0 -43.5 -13t-30.5 -54h-21z" />
    <glyph glyph-name="uni1ECA" unicode="&#x1eca;" horiz-adv-x="425" 
d="M267 662q9 29 2.5 40t-34.5 15l-36 5l11 36h315l-11 -36l-39 -5q-30 -4 -43 -15t-22 -40l-174 -566q-9 -29 -2 -40t34 -15l36 -5l-11 -36h-315l12 36l38 5q31 4 44 15t22 40zM86 -243q-29 0 -48 19.5t-19 48.5t19 48.5t48 19.5q28 0 47.5 -19.5t19.5 -48.5t-19.5 -48.5
t-47.5 -19.5z" />
    <glyph glyph-name="Jcircumflex" unicode="&#x134;" horiz-adv-x="416" 
d="M278 206q-12 -39 -27.5 -67.5t-35 -50.5t-44 -40.5t-54.5 -38.5q-17 -11 -40 -25t-48.5 -29.5t-52 -31t-50.5 -28.5l-19 35q52 36 88 63.5t61.5 56t43 62.5t32.5 83l143 467q9 29 2 40t-34 15l-36 5l11 36h315l-11 -36l-40 -5q-30 -4 -43 -15t-22 -40zM469 985l97 -152
h-20l-103 63l-196 -63h-27l233 152h16z" />
    <glyph glyph-name="uni0136" unicode="&#x136;" horiz-adv-x="865" 
d="M318 363l-82 -267q-9 -29 -2 -40t34 -15l36 -5l-11 -36h-315l12 36l38 5q31 4 44 15t22 40l173 566q9 29 2.5 40t-34.5 15l-36 5l11 36h315l-11 -36l-39 -5q-30 -4 -43 -15t-22 -40l-81 -264l317 210q78 52 112 79t6 30l-52 5l11 36h278l-11 -36l-40 -5q-20 -3 -40 -10
t-44 -20t-53.5 -31.5t-68.5 -44.5l-290 -191l255 -331q17 -22 28 -33.5t32 -14.5l33 -5l-11 -36h-198zM406 -88q42 0 69 -26t27 -70q0 -33 -17 -60.5t-46.5 -51.5t-69 -44t-84.5 -36l-12 27q60 26 97.5 57.5t38.5 69.5q1 28 -20.5 44t-53.5 23q0 32 19.5 49.5t51.5 17.5z
" />
    <glyph glyph-name="Lacute" unicode="&#x139;" horiz-adv-x="703" 
d="M249 139q-9 -30 -10.5 -47t7.5 -26t29.5 -11.5t54.5 -2.5h43q44 0 73.5 3t52 12.5t42.5 26.5t45 46l63 71h36l-119 -211h-588l12 36l38 5q31 4 44 15t22 40l173 566q9 29 2.5 40t-34.5 15l-36 5l11 36h315l-11 -36l-39 -5q-30 -4 -43 -15t-22 -40zM679 969l-295 -126h-24
l134 129h186z" />
    <glyph glyph-name="Lcaron" unicode="&#x13d;" horiz-adv-x="703" 
d="M249 139q-9 -30 -10.5 -47t7.5 -26t29.5 -11.5t54.5 -2.5h43q44 0 73.5 3t52 12.5t42.5 26.5t45 46l63 71h36l-119 -211h-588l12 36l38 5q31 4 44 15t22 40l173 566q9 29 2.5 40t-34.5 15l-36 5l11 36h315l-11 -36l-39 -5q-30 -4 -43 -15t-22 -40zM642 784q42 0 69 -26
t27 -70q0 -33 -17 -60.5t-46.5 -51.5t-69 -44t-84.5 -36l-12 27q60 26 97.5 57.5t38.5 69.5q1 28 -20.5 44t-53.5 23q0 32 19.5 49.5t51.5 17.5z" />
    <glyph glyph-name="uni013B" unicode="&#x13b;" horiz-adv-x="703" 
d="M249 139q-9 -30 -10.5 -47t7.5 -26t29.5 -11.5t54.5 -2.5h43q44 0 73.5 3t52 12.5t42.5 26.5t45 46l63 71h36l-119 -211h-588l12 36l38 5q31 4 44 15t22 40l173 566q9 29 2.5 40t-34.5 15l-36 5l11 36h315l-11 -36l-39 -5q-30 -4 -43 -15t-22 -40zM278 -88q42 0 69 -26
t27 -70q0 -33 -17 -60.5t-46.5 -51.5t-69 -44t-84.5 -36l-12 27q60 26 97.5 57.5t38.5 69.5q1 28 -20.5 44t-53.5 23q0 32 19.5 49.5t51.5 17.5z" />
    <glyph glyph-name="Ldot" unicode="&#x13f;" horiz-adv-x="703" 
d="M249 139q-9 -30 -10.5 -47t7.5 -26t29.5 -11.5t54.5 -2.5h43q44 0 73.5 3t52 12.5t42.5 26.5t45 46l63 71h36l-119 -211h-588l12 36l38 5q31 4 44 15t22 40l173 566q9 29 2.5 40t-34.5 15l-36 5l11 36h315l-11 -36l-39 -5q-30 -4 -43 -15t-22 -40zM615 344
q-29 0 -48 19.5t-19 48.5t19 48.5t48 19.5q28 0 47.5 -19.5t19.5 -48.5t-19.5 -48.5t-47.5 -19.5z" />
    <glyph glyph-name="glyph223" horiz-adv-x="703" 
d="M249 139q-9 -30 -10.5 -47t7.5 -26t29.5 -11.5t54.5 -2.5h43q44 0 73.5 3t52 12.5t42.5 26.5t45 46l63 71h36l-119 -211h-588l12 36l38 5q31 4 44 15t22 40l173 566q9 29 2.5 40t-34.5 15l-36 5l11 36h315l-11 -36l-39 -5q-30 -4 -43 -15t-22 -40zM615 344
q-29 0 -48 19.5t-19 48.5t19 48.5t48 19.5q28 0 47.5 -19.5t19.5 -48.5t-19.5 -48.5t-47.5 -19.5z" />
    <glyph glyph-name="Lslash" unicode="&#x141;" horiz-adv-x="703" 
d="M249 139q-9 -30 -10.5 -47t7.5 -26t29.5 -11.5t54.5 -2.5h43q44 0 73.5 3t52 12.5t42.5 26.5t45 46l63 71h36l-119 -211h-588l12 36l38 5q31 4 44 15t22 40l173 566q9 29 2.5 40t-34.5 15l-36 5l11 36h315l-11 -36l-39 -5q-30 -4 -43 -15t-22 -40zM19 303l485 213
l-22 -72l-486 -213z" />
    <glyph glyph-name="Eng" unicode="&#x14a;" horiz-adv-x="914" 
d="M572 -149q-17 -11 -40 -25.5t-49.5 -30l-53 -31t-50.5 -28.5l-16 33q43 30 77.5 54.5t61.5 52.5t48.5 66t38.5 95l19 63l-293 502l-124 -404q-17 -56 -23.5 -87t-5 -46t10.5 -18.5t23 -5.5l39 -5l-11 -36h-246l11 36l42 5q15 2 26.5 5.5t22.5 18.5t23 46t29 87l113 372
q22 72 9 108t-61 44l11 36h183l324 -546l107 348q17 56 23.5 86.5t5 45.5t-10.5 19t-23 6l-38 5l11 36h245l-11 -36l-41 -5q-15 -2 -26.5 -6t-22 -19t-23 -45.5t-29.5 -86.5l-157 -512q-12 -40 -25.5 -68t-31 -50t-40 -40.5t-52.5 -38.5z" />
    <glyph glyph-name="Nacute" unicode="&#x143;" horiz-adv-x="914" 
d="M315 602l-124 -404q-17 -56 -23.5 -87t-5 -46t10.5 -18.5t23 -5.5l39 -5l-11 -36h-246l11 36l42 5q15 2 26.5 5.5t22.5 18.5t23 46t29 87l113 372q22 72 9 108t-61 44l11 36h183l324 -547l107 349q17 56 23.5 86.5t5 45.5t-10.5 19t-23 6l-38 5l11 36h245l-11 -36l-41 -5
q-15 -2 -26.5 -6t-22 -19t-23 -45.5t-29.5 -86.5l-175 -570h-31zM925 969l-295 -126h-24l134 129h186z" />
    <glyph glyph-name="Ncaron" unicode="&#x147;" horiz-adv-x="914" 
d="M315 602l-124 -404q-17 -56 -23.5 -87t-5 -46t10.5 -18.5t23 -5.5l39 -5l-11 -36h-246l11 36l42 5q15 2 26.5 5.5t22.5 18.5t23 46t29 87l113 372q22 72 9 108t-61 44l11 36h183l324 -547l107 349q17 56 23.5 86.5t5 45.5t-10.5 19t-23 6l-38 5l11 36h245l-11 -36l-41 -5
q-15 -2 -26.5 -6t-22 -19t-23 -45.5t-29.5 -86.5l-175 -570h-31zM626 834l-97 152h20l103 -63l196 63h27l-233 -152h-16z" />
    <glyph glyph-name="uni0145" unicode="&#x145;" horiz-adv-x="914" 
d="M315 602l-124 -404q-17 -56 -23.5 -87t-5 -46t10.5 -18.5t23 -5.5l39 -5l-11 -36h-246l11 36l42 5q15 2 26.5 5.5t22.5 18.5t23 46t29 87l113 372q22 72 9 108t-61 44l11 36h183l324 -547l107 349q17 56 23.5 86.5t5 45.5t-10.5 19t-23 6l-38 5l11 36h245l-11 -36l-41 -5
q-15 -2 -26.5 -6t-22 -19t-23 -45.5t-29.5 -86.5l-175 -570h-31zM368 -88q42 0 69 -26t27 -70q0 -33 -17 -60.5t-46.5 -51.5t-69 -44t-84.5 -36l-12 27q60 26 97.5 57.5t38.5 69.5q1 28 -20.5 44t-53.5 23q0 32 19.5 49.5t51.5 17.5z" />
    <glyph glyph-name="OE" unicode="&#x152;" horiz-adv-x="1302" 
d="M421 -13q-71 0 -133.5 22.5t-108.5 64.5t-72.5 101.5t-26.5 133.5q0 56 17 113t48 109t74.5 97.5t97.5 79t116 52.5t131 19q94 0 160 -43t101 -114l42 136h184l307 2l-50 -198h-37l-2 53q-1 30 -8 48t-27.5 27.5t-57 12.5t-97.5 3h-79q-20 0 -26 -20l-83 -274h120
q23 0 39 2t28.5 9t23.5 21t23 38l21 41h38l-86 -281h-38l4 41q2 24 0 38t-10.5 21t-23 9t-37.5 2h-121l-66 -217q-9 -29 -10.5 -45.5t6 -25t24 -11t44.5 -2.5h37q63 0 101.5 3t65.5 13t47.5 28t47.5 47l62 68h38l-120 -211h-514l23 76q-50 -40 -109 -64.5t-128 -24.5z
M748 503q0 113 -50 167t-137 54q-54 0 -99 -21t-81 -57t-63 -82.5t-45 -98t-27 -103.5t-9 -99q0 -113 50 -167t137 -54q54 0 99 21t81 57t63 82.5t45 98t27 103.5t9 99z" />
    <glyph glyph-name="Obreve" unicode="&#x14e;" horiz-adv-x="908" 
d="M424 -13q-71 0 -134 22.5t-110 64.5t-74 101.5t-27 133.5q0 56 17 113t48.5 109t75.5 97.5t98.5 79t117 52.5t131.5 19q71 0 134 -23t109.5 -65t73.5 -101.5t27 -132.5q0 -56 -17 -113t-48.5 -109t-75.5 -97.5t-98 -79t-117 -52.5t-131 -19zM427 42q54 0 99 21t81.5 57
t64 82.5t46 98t27.5 103.5t9 99q0 112 -52 166.5t-138 54.5q-54 0 -99.5 -21t-82 -57t-63.5 -82.5t-45.5 -98t-27.5 -103.5t-9 -99q0 -113 52 -167t138 -54zM612 828q-29 0 -56.5 8.5t-47.5 28t-28.5 49.5t-0.5 74h56q-9 -54 14 -81t67 -27q48 0 80.5 23t49.5 85h59
q-14 -54 -38 -86t-52 -48.5t-55.5 -21t-47.5 -4.5z" />
    <glyph glyph-name="Ohungarumlaut" unicode="&#x150;" horiz-adv-x="908" 
d="M424 -13q-71 0 -134 22.5t-110 64.5t-74 101.5t-27 133.5q0 56 17 113t48.5 109t75.5 97.5t98.5 79t117 52.5t131.5 19q71 0 134 -23t109.5 -65t73.5 -101.5t27 -132.5q0 -56 -17 -113t-48.5 -109t-75.5 -97.5t-98 -79t-117 -52.5t-131 -19zM427 42q54 0 99 21t81.5 57
t64 82.5t46 98t27.5 103.5t9 99q0 112 -52 166.5t-138 54.5q-54 0 -99.5 -21t-82 -57t-63.5 -82.5t-45.5 -98t-27.5 -103.5t-9 -99q0 -113 52 -167t138 -54zM999 969l-296 -126h-24l136 129h185zM783 969l-296 -126h-25l136 129h186z" />
    <glyph glyph-name="Omacron" unicode="&#x14c;" horiz-adv-x="908" 
d="M424 -13q-71 0 -134 22.5t-110 64.5t-74 101.5t-27 133.5q0 56 17 113t48.5 109t75.5 97.5t98.5 79t117 52.5t131.5 19q71 0 134 -23t109.5 -65t73.5 -101.5t27 -132.5q0 -56 -17 -113t-48.5 -109t-75.5 -97.5t-98 -79t-117 -52.5t-131 -19zM427 42q54 0 99 21t81.5 57
t64 82.5t46 98t27.5 103.5t9 99q0 112 -52 166.5t-138 54.5q-54 0 -99.5 -21t-82 -57t-63.5 -82.5t-45.5 -98t-27.5 -103.5t-9 -99q0 -113 52 -167t138 -54zM471 940h308l-22 -67h-308z" />
    <glyph glyph-name="uni1ECC" unicode="&#x1ecc;" horiz-adv-x="908" 
d="M424 -13q-71 0 -134 22.5t-110 64.5t-74 101.5t-27 133.5q0 56 17 113t48.5 109t75.5 97.5t98.5 79t117 52.5t131.5 19q71 0 134 -23t109.5 -65t73.5 -101.5t27 -132.5q0 -56 -17 -113t-48.5 -109t-75.5 -97.5t-98 -79t-117 -52.5t-131 -19zM427 42q54 0 99 21t81.5 57
t64 82.5t46 98t27.5 103.5t9 99q0 112 -52 166.5t-138 54.5q-54 0 -99.5 -21t-82 -57t-63.5 -82.5t-45.5 -98t-27.5 -103.5t-9 -99q0 -113 52 -167t138 -54zM335 -243q-29 0 -48 19.5t-19 48.5t19 48.5t48 19.5q28 0 47.5 -19.5t19.5 -48.5t-19.5 -48.5t-47.5 -19.5z" />
    <glyph glyph-name="Racute" unicode="&#x154;" horiz-adv-x="820" 
d="M659 -13q-39 0 -68 11.5t-46.5 37t-23 65.5t2.5 97q7 52 0 84.5t-24.5 49.5t-41.5 23t-50 6h-91l-81 -265q-9 -29 -2 -40t34 -15l36 -5l-11 -36h-315l12 36l38 5q31 4 44 15t22 40l173 566q9 29 2.5 40t-34.5 15l-36 5l11 36h314q142 0 218 -36t76 -118q0 -41 -20 -77
t-56.5 -64t-89 -46.5t-118.5 -22.5l-1 -2q33 -4 62 -15.5t49.5 -32.5t31 -51t6.5 -71l-5 -54q-8 -78 13 -106t79 -23l-6 -33q-29 -9 -52.5 -14t-51.5 -5zM441 409q61 0 103.5 18.5t68.5 46.5t38 61.5t12 62.5q0 55 -33.5 83.5t-116.5 28.5h-32q-38 0 -49 -4.5t-15 -18.5
l-85 -277zM870 969l-295 -126h-24l134 129h186z" />
    <glyph glyph-name="Rcaron" unicode="&#x158;" horiz-adv-x="820" 
d="M659 -13q-39 0 -68 11.5t-46.5 37t-23 65.5t2.5 97q7 52 0 84.5t-24.5 49.5t-41.5 23t-50 6h-91l-81 -265q-9 -29 -2 -40t34 -15l36 -5l-11 -36h-315l12 36l38 5q31 4 44 15t22 40l173 566q9 29 2.5 40t-34.5 15l-36 5l11 36h314q142 0 218 -36t76 -118q0 -41 -20 -77
t-56.5 -64t-89 -46.5t-118.5 -22.5l-1 -2q33 -4 62 -15.5t49.5 -32.5t31 -51t6.5 -71l-5 -54q-8 -78 13 -106t79 -23l-6 -33q-29 -9 -52.5 -14t-51.5 -5zM441 409q61 0 103.5 18.5t68.5 46.5t38 61.5t12 62.5q0 55 -33.5 83.5t-116.5 28.5h-32q-38 0 -49 -4.5t-15 -18.5
l-85 -277zM571 834l-97 152h20l103 -63l196 63h27l-233 -152h-16z" />
    <glyph glyph-name="uni0156" unicode="&#x156;" horiz-adv-x="820" 
d="M659 -13q-39 0 -68 11.5t-46.5 37t-23 65.5t2.5 97q7 52 0 84.5t-24.5 49.5t-41.5 23t-50 6h-91l-81 -265q-9 -29 -2 -40t34 -15l36 -5l-11 -36h-315l12 36l38 5q31 4 44 15t22 40l173 566q9 29 2.5 40t-34.5 15l-36 5l11 36h314q142 0 218 -36t76 -118q0 -41 -20 -77
t-56.5 -64t-89 -46.5t-118.5 -22.5l-1 -2q33 -4 62 -15.5t49.5 -32.5t31 -51t6.5 -71l-5 -54q-8 -78 13 -106t79 -23l-6 -33q-29 -9 -52.5 -14t-51.5 -5zM441 409q61 0 103.5 18.5t68.5 46.5t38 61.5t12 62.5q0 55 -33.5 83.5t-116.5 28.5h-32q-38 0 -49 -4.5t-15 -18.5
l-85 -277zM384 -88q42 0 69 -26t27 -70q0 -33 -17 -60.5t-46.5 -51.5t-69 -44t-84.5 -36l-12 27q60 26 97.5 57.5t38.5 69.5q1 28 -20.5 44t-53.5 23q0 32 19.5 49.5t51.5 17.5z" />
    <glyph glyph-name="Sacute" unicode="&#x15a;" horiz-adv-x="636" 
d="M203 -13q-55 0 -106.5 14t-86.5 32l39 219h36l21 -133q3 -17 8.5 -31t15.5 -23q16 -14 42 -19t61 -5q41 0 75.5 11t59 30.5t38.5 46.5t14 60q0 40 -20 68.5t-58 60.5l-62 53q-91 78 -91 170q0 51 25 94.5t69.5 75.5t105.5 50t133 18q56 0 98 -9.5t75 -21.5l-42 -187h-36
l-12 78q-5 28 -12.5 44.5t-23.5 26.5q-14 8 -33 12t-40 4q-78 0 -125 -35.5t-47 -93.5q0 -28 12.5 -54.5t42.5 -52.5l62 -53q28 -24 51 -45.5t39 -44t25 -48t9 -58.5q0 -54 -25 -100t-72 -80.5t-114 -54t-151 -19.5zM807 969l-295 -126h-24l134 129h186z" />
    <glyph glyph-name="Scaron" unicode="&#x160;" horiz-adv-x="636" 
d="M203 -13q-55 0 -106.5 14t-86.5 32l39 219h36l21 -133q3 -17 8.5 -31t15.5 -23q16 -14 42 -19t61 -5q41 0 75.5 11t59 30.5t38.5 46.5t14 60q0 40 -20 68.5t-58 60.5l-62 53q-91 78 -91 170q0 51 25 94.5t69.5 75.5t105.5 50t133 18q56 0 98 -9.5t75 -21.5l-42 -187h-36
l-12 78q-5 28 -12.5 44.5t-23.5 26.5q-14 8 -33 12t-40 4q-78 0 -125 -35.5t-47 -93.5q0 -28 12.5 -54.5t42.5 -52.5l62 -53q28 -24 51 -45.5t39 -44t25 -48t9 -58.5q0 -54 -25 -100t-72 -80.5t-114 -54t-151 -19.5zM508 834l-97 152h20l103 -63l196 63h27l-233 -152h-16z
" />
    <glyph glyph-name="Scedilla" unicode="&#x15e;" horiz-adv-x="636" 
d="M203 -13q-55 0 -106.5 14t-86.5 32l39 219h36l21 -133q3 -17 8.5 -31t15.5 -23q16 -14 42 -19t61 -5q41 0 75.5 11t59 30.5t38.5 46.5t14 60q0 40 -20 68.5t-58 60.5l-62 53q-91 78 -91 170q0 51 25 94.5t69.5 75.5t105.5 50t133 18q56 0 98 -9.5t75 -21.5l-42 -187h-36
l-12 78q-5 28 -12.5 44.5t-23.5 26.5q-14 8 -33 12t-40 4q-78 0 -125 -35.5t-47 -93.5q0 -28 12.5 -54.5t42.5 -52.5l62 -53q28 -24 51 -45.5t39 -44t25 -48t9 -58.5q0 -54 -25 -100t-72 -80.5t-114 -54t-151 -19.5zM133 -263q-51 0 -75.5 20t-24.5 42q0 23 19.5 32t40.5 1
q1 -32 17.5 -48t41.5 -16q43 0 43 29q0 17 -22.5 35.5t-66.5 47.5l152 120h49l-107 -84q28 -18 44 -38.5t16 -45.5q0 -19 -9.5 -36.5t-26 -30.5t-40 -20.5t-51.5 -7.5z" />
    <glyph glyph-name="Scircumflex" unicode="&#x15c;" horiz-adv-x="636" 
d="M203 -13q-55 0 -106.5 14t-86.5 32l39 219h36l21 -133q3 -17 8.5 -31t15.5 -23q16 -14 42 -19t61 -5q41 0 75.5 11t59 30.5t38.5 46.5t14 60q0 40 -20 68.5t-58 60.5l-62 53q-91 78 -91 170q0 51 25 94.5t69.5 75.5t105.5 50t133 18q56 0 98 -9.5t75 -21.5l-42 -187h-36
l-12 78q-5 28 -12.5 44.5t-23.5 26.5q-14 8 -33 12t-40 4q-78 0 -125 -35.5t-47 -93.5q0 -28 12.5 -54.5t42.5 -52.5l62 -53q28 -24 51 -45.5t39 -44t25 -48t9 -58.5q0 -54 -25 -100t-72 -80.5t-114 -54t-151 -19.5zM592 985l97 -152h-20l-103 63l-196 -63h-27l233 152h16z
" />
    <glyph glyph-name="uni0218" unicode="&#x218;" horiz-adv-x="636" 
d="M203 -13q-55 0 -106.5 14t-86.5 32l39 219h36l21 -133q3 -17 8.5 -31t15.5 -23q16 -14 42 -19t61 -5q41 0 75.5 11t59 30.5t38.5 46.5t14 60q0 40 -20 68.5t-58 60.5l-62 53q-91 78 -91 170q0 51 25 94.5t69.5 75.5t105.5 50t133 18q56 0 98 -9.5t75 -21.5l-42 -187h-36
l-12 78q-5 28 -12.5 44.5t-23.5 26.5q-14 8 -33 12t-40 4q-78 0 -125 -35.5t-47 -93.5q0 -28 12.5 -54.5t42.5 -52.5l62 -53q28 -24 51 -45.5t39 -44t25 -48t9 -58.5q0 -54 -25 -100t-72 -80.5t-114 -54t-151 -19.5zM205 -88q42 0 69 -26t27 -70q0 -33 -17 -60.5
t-46.5 -51.5t-69 -44t-84.5 -36l-12 27q60 26 97.5 57.5t38.5 69.5q1 28 -20.5 44t-53.5 23q0 32 19.5 49.5t51.5 17.5z" />
    <glyph glyph-name="Tbar" unicode="&#x166;" horiz-adv-x="748" 
d="M123 38l68 5q29 2 42.5 13t22.5 40l186 610h-16q-60 0 -99 -2.5t-65.5 -11.5t-45 -27t-37.5 -48l-34 -55h-36l73 198l267 -2h162l266 2l-46 -198h-36l-1 55q0 30 -8 48t-29 27t-58.5 11.5t-97.5 2.5h-16l-187 -610q-9 -29 -2.5 -40t35.5 -13l66 -5l-12 -38h-375zM173 415
h503l-19 -61h-502z" />
    <glyph glyph-name="Tcaron" unicode="&#x164;" horiz-adv-x="748" 
d="M123 38l68 5q29 2 42.5 13t22.5 40l186 610h-16q-60 0 -99 -2.5t-65.5 -11.5t-45 -27t-37.5 -48l-34 -55h-36l73 198l267 -2h162l266 2l-46 -198h-36l-1 55q0 30 -8 48t-29 27t-58.5 11.5t-97.5 2.5h-16l-187 -610q-9 -29 -2.5 -40t35.5 -13l66 -5l-12 -38h-375zM542 834
l-97 152h20l103 -63l196 63h27l-233 -152h-16z" />
    <glyph glyph-name="uni0162" unicode="&#x162;" horiz-adv-x="748" 
d="M123 38l68 5q29 2 42.5 13t22.5 40l186 610h-16q-60 0 -99 -2.5t-65.5 -11.5t-45 -27t-37.5 -48l-34 -55h-36l73 198l267 -2h162l266 2l-46 -198h-36l-1 55q0 30 -8 48t-29 27t-58.5 11.5t-97.5 2.5h-16l-187 -610q-9 -29 -2.5 -40t35.5 -13l66 -5l-12 -38h-375zM227 -88
q42 0 69 -26t27 -70q0 -33 -17 -60.5t-46.5 -51.5t-69 -44t-84.5 -36l-12 27q60 26 97.5 57.5t38.5 69.5q1 28 -20.5 44t-53.5 23q0 32 19.5 49.5t51.5 17.5z" />
    <glyph glyph-name="uni021A" unicode="&#x21a;" horiz-adv-x="748" 
d="M123 38l68 5q29 2 42.5 13t22.5 40l186 610h-16q-60 0 -99 -2.5t-65.5 -11.5t-45 -27t-37.5 -48l-34 -55h-36l73 198l267 -2h162l266 2l-46 -198h-36l-1 55q0 30 -8 48t-29 27t-58.5 11.5t-97.5 2.5h-16l-187 -610q-9 -29 -2.5 -40t35.5 -13l66 -5l-12 -38h-375zM227 -88
q42 0 69 -26t27 -70q0 -33 -17 -60.5t-46.5 -51.5t-69 -44t-84.5 -36l-12 27q60 26 97.5 57.5t38.5 69.5q1 28 -20.5 44t-53.5 23q0 32 19.5 49.5t51.5 17.5z" />
    <glyph glyph-name="Ubreve" unicode="&#x16c;" horiz-adv-x="873" 
d="M380 -13q-75 0 -132 17t-90 54.5t-40 97t19 143.5l111 363q9 29 2.5 40t-34.5 15l-36 5l11 36h315l-11 -36l-39 -5q-30 -4 -43.5 -15t-22.5 -40l-111 -364q-40 -130 -6.5 -189.5t137.5 -59.5q112 0 184.5 59t114.5 194l80 258q17 56 23 86.5t4 45.5t-11.5 19t-22.5 6
l-39 5l11 36h246l-12 -36l-41 -5q-15 -2 -26 -6t-21.5 -19t-22.5 -45.5t-29 -86.5l-79 -260q-50 -165 -144.5 -239t-244.5 -74zM662 828q-29 0 -56.5 8.5t-47.5 28t-28.5 49.5t-0.5 74h56q-9 -54 14 -81t67 -27q48 0 80.5 23t49.5 85h59q-14 -54 -38 -86t-52 -48.5
t-55.5 -21t-47.5 -4.5z" />
    <glyph glyph-name="Uhungarumlaut" unicode="&#x170;" horiz-adv-x="873" 
d="M380 -13q-75 0 -132 17t-90 54.5t-40 97t19 143.5l111 363q9 29 2.5 40t-34.5 15l-36 5l11 36h315l-11 -36l-39 -5q-30 -4 -43.5 -15t-22.5 -40l-111 -364q-40 -130 -6.5 -189.5t137.5 -59.5q112 0 184.5 59t114.5 194l80 258q17 56 23 86.5t4 45.5t-11.5 19t-22.5 6
l-39 5l11 36h246l-12 -36l-41 -5q-15 -2 -26 -6t-21.5 -19t-22.5 -45.5t-29 -86.5l-79 -260q-50 -165 -144.5 -239t-244.5 -74zM1049 969l-296 -126h-24l136 129h185zM833 969l-296 -126h-25l136 129h186z" />
    <glyph glyph-name="Umacron" unicode="&#x16a;" horiz-adv-x="873" 
d="M380 -13q-75 0 -132 17t-90 54.5t-40 97t19 143.5l111 363q9 29 2.5 40t-34.5 15l-36 5l11 36h315l-11 -36l-39 -5q-30 -4 -43.5 -15t-22.5 -40l-111 -364q-40 -130 -6.5 -189.5t137.5 -59.5q112 0 184.5 59t114.5 194l80 258q17 56 23 86.5t4 45.5t-11.5 19t-22.5 6
l-39 5l11 36h246l-12 -36l-41 -5q-15 -2 -26 -6t-21.5 -19t-22.5 -45.5t-29 -86.5l-79 -260q-50 -165 -144.5 -239t-244.5 -74zM521 940h308l-22 -67h-308z" />
    <glyph glyph-name="Uogonek" unicode="&#x172;" horiz-adv-x="873" 
d="M380 -13q-75 0 -132 17t-90 54.5t-40 97t19 143.5l111 363q9 29 2.5 40t-34.5 15l-36 5l11 36h315l-11 -36l-39 -5q-30 -4 -43.5 -15t-22.5 -40l-111 -364q-40 -130 -6.5 -189.5t137.5 -59.5q112 0 184.5 59t114.5 194l80 258q17 56 23 86.5t4 45.5t-11.5 19t-22.5 6
l-39 5l11 36h246l-12 -36l-41 -5q-15 -2 -26 -6t-21.5 -19t-22.5 -45.5t-29 -86.5l-79 -260q-46 -150 -127.5 -224.5t-208.5 -85.5q-19 -14 -36.5 -29t-31 -31t-22 -33t-8.5 -34q0 -62 109 -40l-10 -30q-20 -9 -47.5 -18t-54.5 -9q-42 0 -67.5 20.5t-25.5 55.5q0 21 13 41
t33.5 38.5t46 35t51.5 30.5h-3z" />
    <glyph glyph-name="Uring" unicode="&#x16e;" horiz-adv-x="873" 
d="M380 -13q-75 0 -132 17t-90 54.5t-40 97t19 143.5l111 363q9 29 2.5 40t-34.5 15l-36 5l11 36h315l-11 -36l-39 -5q-30 -4 -43.5 -15t-22.5 -40l-111 -364q-40 -130 -6.5 -189.5t137.5 -59.5q112 0 184.5 59t114.5 194l80 258q17 56 23 86.5t4 45.5t-11.5 19t-22.5 6
l-39 5l11 36h246l-12 -36l-41 -5q-15 -2 -26 -6t-21.5 -19t-22.5 -45.5t-29 -86.5l-79 -260q-50 -165 -144.5 -239t-244.5 -74zM558 959q0 25 10 47t26.5 38.5t39 26t48.5 9.5t49 -9.5t40 -26t27 -38.5t10 -47t-10 -47t-27 -38t-40 -25t-49 -9t-48.5 9t-39 25t-26.5 38
t-10 47zM749 959q0 32 -17.5 49.5t-49.5 17.5q-31 0 -48.5 -17.5t-17.5 -49.5q0 -31 17.5 -49.5t48.5 -18.5q32 0 49.5 18.5t17.5 49.5z" />
    <glyph glyph-name="Utilde" unicode="&#x168;" horiz-adv-x="873" 
d="M380 -13q-75 0 -132 17t-90 54.5t-40 97t19 143.5l111 363q9 29 2.5 40t-34.5 15l-36 5l11 36h315l-11 -36l-39 -5q-30 -4 -43.5 -15t-22.5 -40l-111 -364q-40 -130 -6.5 -189.5t137.5 -59.5q112 0 184.5 59t114.5 194l80 258q17 56 23 86.5t4 45.5t-11.5 19t-22.5 6
l-39 5l11 36h246l-12 -36l-41 -5q-15 -2 -26 -6t-21.5 -19t-22.5 -45.5t-29 -86.5l-79 -260q-50 -165 -144.5 -239t-244.5 -74zM478 833q11 67 39.5 104.5t81.5 37.5q24 0 44 -10.5t39 -22.5t37.5 -22.5t38.5 -10.5t36 10.5t27 52.5h21q-7 -42 -18 -69t-25 -42t-31 -20.5
t-35 -5.5q-26 0 -45.5 10t-37 22.5t-35.5 22.5t-42 10q-23 0 -43.5 -13t-30.5 -54h-21z" />
    <glyph glyph-name="uni1EE4" unicode="&#x1ee4;" horiz-adv-x="873" 
d="M380 -13q-75 0 -132 17t-90 54.5t-40 97t19 143.5l111 363q9 29 2.5 40t-34.5 15l-36 5l11 36h315l-11 -36l-39 -5q-30 -4 -43.5 -15t-22.5 -40l-111 -364q-40 -130 -6.5 -189.5t137.5 -59.5q112 0 184.5 59t114.5 194l80 258q17 56 23 86.5t4 45.5t-11.5 19t-22.5 6
l-39 5l11 36h246l-12 -36l-41 -5q-15 -2 -26 -6t-21.5 -19t-22.5 -45.5t-29 -86.5l-79 -260q-50 -165 -144.5 -239t-244.5 -74zM318 -243q-29 0 -48 19.5t-19 48.5t19 48.5t48 19.5q28 0 47.5 -19.5t19.5 -48.5t-19.5 -48.5t-47.5 -19.5z" />
    <glyph glyph-name="Wacute" unicode="&#x1e82;" horiz-adv-x="1186" 
d="M1362 722l-40 -5q-15 -2 -27 -7t-25 -17t-30 -32.5t-42 -53.5l-493 -635h-52l-13 443l-345 -443h-52l-19 684q-1 31 -10.5 44t-38.5 17l-36 5l12 36h312l-11 -36l-40 -5q-30 -4 -40 -15.5t-9 -39.5l13 -497l261 338l-7 255h265l-11 -36l-62 -5q-31 -2 -41 -14.5t-9 -40.5
l13 -496l334 431q29 37 42.5 60t15.5 35.5t-6 17.5t-21 7l-36 5l11 36h248zM1064 969l-295 -126h-24l134 129h186z" />
    <glyph glyph-name="Wcircumflex" unicode="&#x174;" horiz-adv-x="1186" 
d="M1362 722l-40 -5q-15 -2 -27 -7t-25 -17t-30 -32.5t-42 -53.5l-493 -635h-52l-13 443l-345 -443h-52l-19 684q-1 31 -10.5 44t-38.5 17l-36 5l12 36h312l-11 -36l-40 -5q-30 -4 -40 -15.5t-9 -39.5l13 -497l261 338l-7 255h265l-11 -36l-62 -5q-31 -2 -41 -14.5t-9 -40.5
l13 -496l334 431q29 37 42.5 60t15.5 35.5t-6 17.5t-21 7l-36 5l11 36h248zM850 985l97 -152h-20l-103 63l-196 -63h-27l233 152h16z" />
    <glyph glyph-name="Wdieresis" unicode="&#x1e84;" horiz-adv-x="1186" 
d="M1362 722l-40 -5q-15 -2 -27 -7t-25 -17t-30 -32.5t-42 -53.5l-493 -635h-52l-13 443l-345 -443h-52l-19 684q-1 31 -10.5 44t-38.5 17l-36 5l12 36h312l-11 -36l-40 -5q-30 -4 -40 -15.5t-9 -39.5l13 -497l261 338l-7 255h265l-11 -36l-62 -5q-31 -2 -41 -14.5t-9 -40.5
l13 -496l334 431q29 37 42.5 60t15.5 35.5t-6 17.5t-21 7l-36 5l11 36h248zM687 840q-29 0 -48 19t-19 48q0 30 19 49.5t48 19.5t48 -19.5t19 -49.5q0 -29 -19 -48t-48 -19zM923 840q-29 0 -48 19t-19 48q0 30 19 49.5t48 19.5q28 0 47.5 -19.5t19.5 -49.5q0 -29 -19.5 -48
t-47.5 -19z" />
    <glyph glyph-name="Wgrave" unicode="&#x1e80;" horiz-adv-x="1186" 
d="M1362 722l-40 -5q-15 -2 -27 -7t-25 -17t-30 -32.5t-42 -53.5l-493 -635h-52l-13 443l-345 -443h-52l-19 684q-1 31 -10.5 44t-38.5 17l-36 5l12 36h312l-11 -36l-40 -5q-30 -4 -40 -15.5t-9 -39.5l13 -497l261 338l-7 255h265l-11 -36l-62 -5q-31 -2 -41 -14.5t-9 -40.5
l13 -496l334 431q29 37 42.5 60t15.5 35.5t-6 17.5t-21 7l-36 5l11 36h248zM773 972l57 -129h-19l-203 126l1 3h164z" />
    <glyph glyph-name="Ycircumflex" unicode="&#x176;" horiz-adv-x="790" 
d="M142 38l69 5q29 2 42.5 13t22.5 40l74 243l-126 317q-5 13 -9 23.5t-9 18t-13 12.5t-21 7l-36 5l11 36h325l-11 -36l-39 -5q-31 -4 -44 -17t-3 -38l102 -261l202 196q33 32 51 54t23.5 36t0 21t-18.5 9l-36 5l11 36h249l-12 -36l-36 -5q-15 -2 -27.5 -8t-27.5 -18.5
t-35.5 -32.5t-52.5 -51l-275 -267l-75 -244q-9 -29 -2.5 -40t35.5 -13l66 -5l-12 -38h-375zM667 985l97 -152h-20l-103 63l-196 -63h-27l233 152h16z" />
    <glyph glyph-name="Ydieresis" unicode="&#x178;" horiz-adv-x="790" 
d="M142 38l69 5q29 2 42.5 13t22.5 40l74 243l-126 317q-5 13 -9 23.5t-9 18t-13 12.5t-21 7l-36 5l11 36h325l-11 -36l-39 -5q-31 -4 -44 -17t-3 -38l102 -261l202 196q33 32 51 54t23.5 36t0 21t-18.5 9l-36 5l11 36h249l-12 -36l-36 -5q-15 -2 -27.5 -8t-27.5 -18.5
t-35.5 -32.5t-52.5 -51l-275 -267l-75 -244q-9 -29 -2.5 -40t35.5 -13l66 -5l-12 -38h-375zM504 840q-29 0 -48 19t-19 48q0 30 19 49.5t48 19.5t48 -19.5t19 -49.5q0 -29 -19 -48t-48 -19zM740 840q-29 0 -48 19t-19 48q0 30 19 49.5t48 19.5q28 0 47.5 -19.5t19.5 -49.5
q0 -29 -19.5 -48t-47.5 -19z" />
    <glyph glyph-name="Ygrave" unicode="&#x1ef2;" horiz-adv-x="790" 
d="M142 38l69 5q29 2 42.5 13t22.5 40l74 243l-126 317q-5 13 -9 23.5t-9 18t-13 12.5t-21 7l-36 5l11 36h325l-11 -36l-39 -5q-31 -4 -44 -17t-3 -38l102 -261l202 196q33 32 51 54t23.5 36t0 21t-18.5 9l-36 5l11 36h249l-12 -36l-36 -5q-15 -2 -27.5 -8t-27.5 -18.5
t-35.5 -32.5t-52.5 -51l-275 -267l-75 -244q-9 -29 -2.5 -40t35.5 -13l66 -5l-12 -38h-375zM590 972l57 -129h-19l-203 126l1 3h164z" />
    <glyph glyph-name="uni0232" unicode="&#x232;" horiz-adv-x="790" 
d="M142 38l69 5q29 2 42.5 13t22.5 40l74 243l-126 317q-5 13 -9 23.5t-9 18t-13 12.5t-21 7l-36 5l11 36h325l-11 -36l-39 -5q-31 -4 -44 -17t-3 -38l102 -261l202 196q33 32 51 54t23.5 36t0 21t-18.5 9l-36 5l11 36h249l-12 -36l-36 -5q-15 -2 -27.5 -8t-27.5 -18.5
t-35.5 -32.5t-52.5 -51l-275 -267l-75 -244q-9 -29 -2.5 -40t35.5 -13l66 -5l-12 -38h-375zM478 940h308l-22 -67h-308z" />
    <glyph glyph-name="Zacute" unicode="&#x179;" horiz-adv-x="772" 
d="M673 708h-143q-66 0 -107.5 -3t-69.5 -13t-49.5 -27.5t-47.5 -46.5l-63 -69h-37l129 211l266 -2h345l-740 -708h198q66 0 107 3t69 12.5t49.5 27.5t47.5 47l62 69h37l-119 -209h-674zM877 969l-295 -126h-24l134 129h186z" />
    <glyph glyph-name="Zcaron" unicode="&#x17d;" horiz-adv-x="772" 
d="M673 708h-143q-66 0 -107.5 -3t-69.5 -13t-49.5 -27.5t-47.5 -46.5l-63 -69h-37l129 211l266 -2h345l-740 -708h198q66 0 107 3t69 12.5t49.5 27.5t47.5 47l62 69h37l-119 -209h-674zM577 834l-97 152h20l103 -63l196 63h27l-233 -152h-16z" />
    <glyph glyph-name="Zdotaccent" unicode="&#x17b;" horiz-adv-x="772" 
d="M673 708h-143q-66 0 -107.5 -3t-69.5 -13t-49.5 -27.5t-47.5 -46.5l-63 -69h-37l129 211l266 -2h345l-740 -708h198q66 0 107 3t69 12.5t49.5 27.5t47.5 47l62 69h37l-119 -209h-674zM617 840q-29 0 -48 19t-19 48q0 30 19 49.5t48 19.5q28 0 47.5 -19.5t19.5 -49.5
q0 -29 -19.5 -48t-47.5 -19z" />
    <glyph glyph-name="uni018F" unicode="&#x18f;" horiz-adv-x="807" 
d="M368 -11q-71 0 -128.5 23t-97 65t-59.5 100.5t-15 128.5h591q12 51 12 103q0 66 -17.5 116.5t-49 85t-76.5 52.5t-99 18q-86 0 -155.5 -45.5t-118.5 -115.5l-43 28q22 41 56.5 82.5t81 74.5t106.5 54t133 21q66 0 124 -22t100.5 -64t67 -104t24.5 -141q0 -89 -35 -172
t-94.5 -147t-139 -102.5t-168.5 -38.5zM383 42q48 0 89 16.5t73.5 44.5t57 66t40.5 81h-427q-8 -98 36 -153t131 -55z" />
    <glyph glyph-name="abreve" unicode="&#x103;" horiz-adv-x="587" 
d="M93 -13q-51 0 -74 28.5t-23 71.5t19 92t50.5 97.5t72 92.5t83.5 78t84 54t75 20q46 0 57 -34l18 47h124l-156 -412q-11 -29 -12.5 -43t11.5 -14q18 0 53.5 36.5t71.5 96.5l34 -19q-58 -97 -118.5 -144.5t-119.5 -47.5q-48 0 -55.5 30t16.5 96l21 57h-1
q-61 -92 -116 -137.5t-115 -45.5zM167 60q17 0 45 24t59 63.5t60.5 89.5t49.5 103l18 48q10 27 11.5 44t-3 27.5t-13.5 14.5t-19 4q-26 0 -54 -17.5t-54.5 -47t-49.5 -67t-40.5 -78t-27.5 -80.5t-10 -73q0 -25 6 -40t22 -15zM459 628q-29 0 -56.5 8.5t-47.5 28t-28.5 49.5
t-0.5 74h56q-9 -54 14 -81t67 -27q48 0 80.5 23t49.5 85h59q-14 -54 -38 -86t-52 -48.5t-55.5 -21t-47.5 -4.5z" />
    <glyph glyph-name="amacron" unicode="&#x101;" horiz-adv-x="587" 
d="M93 -13q-51 0 -74 28.5t-23 71.5t19 92t50.5 97.5t72 92.5t83.5 78t84 54t75 20q46 0 57 -34l18 47h124l-156 -412q-11 -29 -12.5 -43t11.5 -14q18 0 53.5 36.5t71.5 96.5l34 -19q-58 -97 -118.5 -144.5t-119.5 -47.5q-48 0 -55.5 30t16.5 96l21 57h-1
q-61 -92 -116 -137.5t-115 -45.5zM167 60q17 0 45 24t59 63.5t60.5 89.5t49.5 103l18 48q10 27 11.5 44t-3 27.5t-13.5 14.5t-19 4q-26 0 -54 -17.5t-54.5 -47t-49.5 -67t-40.5 -78t-27.5 -80.5t-10 -73q0 -25 6 -40t22 -15zM321 736h308l-23 -67h-308z" />
    <glyph glyph-name="aogonek" unicode="&#x105;" horiz-adv-x="587" 
d="M93 -13q-51 0 -74 28.5t-23 71.5t19 92t50.5 97.5t72 92.5t83.5 78t84 54t75 20q46 0 57 -34l18 47h124l-156 -412q-11 -29 -12.5 -43t11.5 -14q18 0 53.5 36.5t71.5 96.5l34 -19q-48 -79 -97.5 -125.5t-98.5 -60.5q-20 -14 -38.5 -29.5t-32.5 -32t-23 -33.5t-9 -35
q0 -62 109 -40l-10 -30q-20 -9 -47.5 -18t-54.5 -9q-42 0 -67.5 20.5t-25.5 55.5q0 21 13 41.5t33.5 39t46 35t51.5 30.5q-38 4 -43.5 34t17.5 91l21 57h-1q-61 -92 -116 -137.5t-115 -45.5zM167 60q17 0 45 24t59 63.5t60.5 89.5t49.5 103l18 48q10 27 11.5 44t-3 27.5
t-13.5 14.5t-19 4q-26 0 -54 -17.5t-54.5 -47t-49.5 -67t-40.5 -78t-27.5 -80.5t-10 -73q0 -25 6 -40t22 -15z" />
    <glyph glyph-name="cacute" unicode="&#x107;" horiz-adv-x="446" 
d="M151 -13q-60 0 -98.5 36.5t-38.5 104.5q0 45 15.5 92t42.5 90.5t62.5 82t75 67t80.5 45t80 16.5q17 0 33.5 -3.5t29 -11t20.5 -20t8 -31.5q0 -26 -17.5 -46t-43.5 -20q-17 0 -28.5 9.5t-23 20.5t-25 20.5t-34.5 9.5q-30 0 -55.5 -24t-44.5 -62t-29.5 -87t-10.5 -98
q0 -57 19 -81.5t52 -24.5q36 0 71.5 31.5t73.5 94.5l33 -18q-21 -36 -45.5 -70.5t-54 -62t-66 -44t-81.5 -16.5zM513 788h155l-3 -9l-286 -170h-21z" />
    <glyph glyph-name="ccaron" unicode="&#x10d;" horiz-adv-x="446" 
d="M151 -13q-60 0 -98.5 36.5t-38.5 104.5q0 45 15.5 92t42.5 90.5t62.5 82t75 67t80.5 45t80 16.5q17 0 33.5 -3.5t29 -11t20.5 -20t8 -31.5q0 -26 -17.5 -46t-43.5 -20q-17 0 -28.5 9.5t-23 20.5t-25 20.5t-34.5 9.5q-30 0 -55.5 -24t-44.5 -62t-29.5 -87t-10.5 -98
q0 -57 19 -81.5t52 -24.5q36 0 71.5 31.5t73.5 94.5l33 -18q-21 -36 -45.5 -70.5t-54 -62t-66 -44t-81.5 -16.5zM293 805h17l95 -86l201 86h23l-246 -196h-12z" />
    <glyph glyph-name="ccircumflex" unicode="&#x109;" horiz-adv-x="446" 
d="M151 -13q-60 0 -98.5 36.5t-38.5 104.5q0 45 15.5 92t42.5 90.5t62.5 82t75 67t80.5 45t80 16.5q17 0 33.5 -3.5t29 -11t20.5 -20t8 -31.5q0 -26 -17.5 -46t-43.5 -20q-17 0 -28.5 9.5t-23 20.5t-25 20.5t-34.5 9.5q-30 0 -55.5 -24t-44.5 -62t-29.5 -87t-10.5 -98
q0 -57 19 -81.5t52 -24.5q36 0 71.5 31.5t73.5 94.5l33 -18q-21 -36 -45.5 -70.5t-54 -62t-66 -44t-81.5 -16.5zM546 609h-17l-95 86l-201 -86h-23l246 196h12z" />
    <glyph glyph-name="cdotaccent" unicode="&#x10b;" horiz-adv-x="446" 
d="M151 -13q-60 0 -98.5 36.5t-38.5 104.5q0 45 15.5 92t42.5 90.5t62.5 82t75 67t80.5 45t80 16.5q17 0 33.5 -3.5t29 -11t20.5 -20t8 -31.5q0 -26 -17.5 -46t-43.5 -20q-17 0 -28.5 9.5t-23 20.5t-25 20.5t-34.5 9.5q-30 0 -55.5 -24t-44.5 -62t-29.5 -87t-10.5 -98
q0 -57 19 -81.5t52 -24.5q36 0 71.5 31.5t73.5 94.5l33 -18q-21 -36 -45.5 -70.5t-54 -62t-66 -44t-81.5 -16.5zM415 638q-28 0 -46.5 18.5t-18.5 46.5q0 29 18.5 47.5t46.5 18.5q27 0 46 -18.5t19 -47.5q0 -28 -19 -46.5t-46 -18.5z" />
    <glyph glyph-name="dcaron" unicode="&#x10f;" horiz-adv-x="654" 
d="M100 -13q-52 0 -78.5 28t-26.5 72q0 42 19 90.5t50.5 96.5t72 93t83.5 79t85.5 54.5t78.5 20.5q50 0 65 -37l70 213q5 14 0.5 24.5t-28.5 12.5l-63 6l11 32l240 22l-224 -672q-10 -30 -12 -43.5t12 -13.5q9 0 22.5 9.5t30 27t35.5 42t37 54.5l34 -19q-59 -97 -119 -144.5
t-120 -47.5q-47 0 -57 30t14 96l26 70h-2q-66 -91 -126.5 -143.5t-129.5 -52.5zM170 60q22 0 55 25.5t67.5 67.5t66 95t49.5 109l11 33q7 23 6 39.5t-7.5 27.5t-17.5 16t-24 5q-27 0 -55.5 -16.5t-55 -44.5t-49.5 -64t-40 -75.5t-27 -79.5t-10 -75q0 -63 31 -63zM797 826
q42 0 69 -26t27 -70q0 -33 -17 -60.5t-46.5 -51.5t-69 -44t-84.5 -36l-12 27q60 26 97.5 57.5t38.5 69.5q1 28 -20.5 44t-53.5 23q0 32 19.5 49.5t51.5 17.5z" />
    <glyph glyph-name="dcroat" unicode="&#x111;" horiz-adv-x="617" 
d="M100 -13q-52 0 -78.5 28t-26.5 72q0 42 19 90.5t50.5 96.5t72 93t83.5 79t85.5 54.5t78.5 20.5q50 0 65 -37l70 213q5 14 0.5 24.5t-28.5 12.5l-63 6l11 32l240 22l-224 -672q-10 -30 -12 -43.5t12 -13.5q9 0 22.5 9.5t30 27t35.5 42t37 54.5l34 -19q-59 -97 -119 -144.5
t-120 -47.5q-47 0 -57 30t14 96l26 70h-2q-66 -91 -126.5 -143.5t-129.5 -52.5zM170 60q22 0 55 25.5t67.5 67.5t66 95t49.5 109l11 33q7 23 6 39.5t-7.5 27.5t-17.5 16t-24 5q-27 0 -55.5 -16.5t-55 -44.5t-49.5 -64t-40 -75.5t-27 -79.5t-10 -75q0 -63 31 -63zM383 630
h322l-17 -48h-322z" />
    <glyph glyph-name="ebreve" unicode="&#x115;" horiz-adv-x="459" 
d="M152 -13q-60 0 -100 36.5t-40 104.5q0 44 15.5 90t42.5 90t63 82.5t76.5 67.5t83 46t83.5 17q49 0 73 -21t24 -56q0 -44 -21.5 -73.5t-49.5 -48.5q-22 -6 -52.5 -14t-64 -16t-67 -15.5t-61.5 -13.5q-5 -21 -7.5 -42.5t-2.5 -42.5q0 -57 21 -81.5t55 -24.5q38 0 72 31.5
t73 94.5l33 -18q-21 -36 -45.5 -70.5t-54.5 -62t-66.5 -44t-82.5 -16.5zM327 475q-23 0 -46 -13.5t-44 -37.5t-39 -56t-30 -68q23 5 43.5 10.5t37.5 11.5q36 12 58.5 26.5t35 29.5t17 30.5t4.5 29.5q0 17 -9.5 27t-27.5 10zM405 628q-29 0 -56.5 8.5t-47.5 28t-28.5 49.5
t-0.5 74h56q-9 -54 14 -81t67 -27q48 0 80.5 23t49.5 85h59q-14 -54 -38 -86t-52 -48.5t-55.5 -21t-47.5 -4.5z" />
    <glyph glyph-name="ecaron" unicode="&#x11b;" horiz-adv-x="459" 
d="M152 -13q-60 0 -100 36.5t-40 104.5q0 44 15.5 90t42.5 90t63 82.5t76.5 67.5t83 46t83.5 17q49 0 73 -21t24 -56q0 -44 -21.5 -73.5t-49.5 -48.5q-22 -6 -52.5 -14t-64 -16t-67 -15.5t-61.5 -13.5q-5 -21 -7.5 -42.5t-2.5 -42.5q0 -57 21 -81.5t55 -24.5q38 0 72 31.5
t73 94.5l33 -18q-21 -36 -45.5 -70.5t-54.5 -62t-66.5 -44t-82.5 -16.5zM327 475q-23 0 -46 -13.5t-44 -37.5t-39 -56t-30 -68q23 5 43.5 10.5t37.5 11.5q36 12 58.5 26.5t35 29.5t17 30.5t4.5 29.5q0 17 -9.5 27t-27.5 10zM290 805h17l95 -86l201 86h23l-246 -196h-12z" />
    <glyph glyph-name="emacron" unicode="&#x113;" horiz-adv-x="459" 
d="M152 -13q-60 0 -100 36.5t-40 104.5q0 44 15.5 90t42.5 90t63 82.5t76.5 67.5t83 46t83.5 17q49 0 73 -21t24 -56q0 -44 -21.5 -73.5t-49.5 -48.5q-22 -6 -52.5 -14t-64 -16t-67 -15.5t-61.5 -13.5q-5 -21 -7.5 -42.5t-2.5 -42.5q0 -57 21 -81.5t55 -24.5q38 0 72 31.5
t73 94.5l33 -18q-21 -36 -45.5 -70.5t-54.5 -62t-66.5 -44t-82.5 -16.5zM327 475q-23 0 -46 -13.5t-44 -37.5t-39 -56t-30 -68q23 5 43.5 10.5t37.5 11.5q36 12 58.5 26.5t35 29.5t17 30.5t4.5 29.5q0 17 -9.5 27t-27.5 10zM268 736h308l-23 -67h-308z" />
    <glyph glyph-name="eogonek" unicode="&#x119;" horiz-adv-x="459" 
d="M205 -207q-20 -9 -47.5 -18t-54.5 -9q-42 0 -67.5 20.5t-25.5 55.5q0 21 13 41t34.5 38.5t48.5 35t54 30.5h-8q-60 0 -100 36.5t-40 104.5q0 44 15.5 90t42.5 90t63 82.5t76.5 67.5t83 46t83.5 17q49 0 73 -21t24 -56q0 -44 -21.5 -73.5t-49.5 -48.5q-22 -6 -52.5 -14
t-64 -16t-67 -15.5t-61.5 -13.5q-5 -21 -7.5 -42.5t-2.5 -42.5q0 -57 21 -81.5t55 -24.5q38 0 72 31.5t73 94.5l33 -18q-35 -62 -73.5 -103.5t-92.5 -74.5q-27 -16 -50.5 -33t-41 -34.5t-27.5 -35.5t-10 -36q0 -62 109 -40zM327 475q-23 0 -46 -13.5t-44 -37.5t-39 -56
t-30 -68q23 5 43.5 10.5t37.5 11.5q36 12 58.5 26.5t35 29.5t17 30.5t4.5 29.5q0 17 -9.5 27t-27.5 10z" />
    <glyph glyph-name="edotaccent" unicode="&#x117;" horiz-adv-x="459" 
d="M152 -13q-60 0 -100 36.5t-40 104.5q0 44 15.5 90t42.5 90t63 82.5t76.5 67.5t83 46t83.5 17q49 0 73 -21t24 -56q0 -44 -21.5 -73.5t-49.5 -48.5q-22 -6 -52.5 -14t-64 -16t-67 -15.5t-61.5 -13.5q-5 -21 -7.5 -42.5t-2.5 -42.5q0 -57 21 -81.5t55 -24.5q38 0 72 31.5
t73 94.5l33 -18q-21 -36 -45.5 -70.5t-54.5 -62t-66.5 -44t-82.5 -16.5zM327 475q-23 0 -46 -13.5t-44 -37.5t-39 -56t-30 -68q23 5 43.5 10.5t37.5 11.5q36 12 58.5 26.5t35 29.5t17 30.5t4.5 29.5q0 17 -9.5 27t-27.5 10zM412 638q-28 0 -46.5 18.5t-18.5 46.5
q0 29 18.5 47.5t46.5 18.5q27 0 46 -18.5t19 -47.5q0 -28 -19 -46.5t-46 -18.5z" />
    <glyph glyph-name="gbreve" unicode="&#x11f;" horiz-adv-x="520" 
d="M217 161q-32 0 -56 7l-22 -33q-9 -13 -8.5 -18t11.5 -11l136 -81q63 -38 96 -69.5t33 -66.5q0 -38 -23 -67t-61 -49t-86 -30t-98 -10q-59 0 -107.5 10t-83 27.5t-53.5 41t-19 51.5q0 23 15 43t41 37t62 31t77 26q-31 19 -45 34.5t-14 32.5q0 18 15 34t45 34l67 40
q-37 15 -56.5 44t-19.5 67q0 43 22 85.5t58.5 75.5t84.5 53.5t100 20.5q38 0 67 -10t49 -28l175 71l-27 -82q-5 -16 -13 -21t-25 -3l-90 11q17 -28 17 -63q0 -44 -22 -86t-58.5 -75t-84 -53.5t-99.5 -20.5zM249 194q23 0 42 15t33 41t21.5 61t7.5 76q0 47 -14 74t-44 27
q-23 0 -42 -14.5t-33 -40.5t-21.5 -61.5t-7.5 -76.5q0 -47 14 -74t44 -27zM-23 -124q0 -45 50.5 -74t139.5 -29q25 0 49.5 3.5t43.5 11t30.5 18.5t11.5 26q0 9 -3.5 17.5t-13.5 18t-28.5 22t-47.5 29.5l-110 64q-63 -23 -92.5 -48.5t-29.5 -58.5zM372 628q-29 0 -56.5 8.5
t-47.5 28t-28.5 49.5t-0.5 74h56q-9 -54 14 -81t67 -27q48 0 80.5 23t49.5 85h59q-14 -54 -38 -86t-52 -48.5t-55.5 -21t-47.5 -4.5z" />
    <glyph glyph-name="gcircumflex" unicode="&#x11d;" horiz-adv-x="520" 
d="M217 161q-32 0 -56 7l-22 -33q-9 -13 -8.5 -18t11.5 -11l136 -81q63 -38 96 -69.5t33 -66.5q0 -38 -23 -67t-61 -49t-86 -30t-98 -10q-59 0 -107.5 10t-83 27.5t-53.5 41t-19 51.5q0 23 15 43t41 37t62 31t77 26q-31 19 -45 34.5t-14 32.5q0 18 15 34t45 34l67 40
q-37 15 -56.5 44t-19.5 67q0 43 22 85.5t58.5 75.5t84.5 53.5t100 20.5q38 0 67 -10t49 -28l175 71l-27 -82q-5 -16 -13 -21t-25 -3l-90 11q17 -28 17 -63q0 -44 -22 -86t-58.5 -75t-84 -53.5t-99.5 -20.5zM249 194q23 0 42 15t33 41t21.5 61t7.5 76q0 47 -14 74t-44 27
q-23 0 -42 -14.5t-33 -40.5t-21.5 -61.5t-7.5 -76.5q0 -47 14 -74t44 -27zM-23 -124q0 -45 50.5 -74t139.5 -29q25 0 49.5 3.5t43.5 11t30.5 18.5t11.5 26q0 9 -3.5 17.5t-13.5 18t-28.5 22t-47.5 29.5l-110 64q-63 -23 -92.5 -48.5t-29.5 -58.5zM509 609h-17l-95 86
l-201 -86h-23l246 196h12z" />
    <glyph glyph-name="uni0123" unicode="&#x123;" horiz-adv-x="520" 
d="M217 161q-32 0 -56 7l-22 -33q-9 -13 -8.5 -18t11.5 -11l136 -81q63 -38 96 -69.5t33 -66.5q0 -38 -23 -67t-61 -49t-86 -30t-98 -10q-59 0 -107.5 10t-83 27.5t-53.5 41t-19 51.5q0 23 15 43t41 37t62 31t77 26q-31 19 -45 34.5t-14 32.5q0 18 15 34t45 34l67 40
q-37 15 -56.5 44t-19.5 67q0 43 22 85.5t58.5 75.5t84.5 53.5t100 20.5q38 0 67 -10t49 -28l175 71l-27 -82q-5 -16 -13 -21t-25 -3l-90 11q17 -28 17 -63q0 -44 -22 -86t-58.5 -75t-84 -53.5t-99.5 -20.5zM249 194q23 0 42 15t33 41t21.5 61t7.5 76q0 47 -14 74t-44 27
q-23 0 -42 -14.5t-33 -40.5t-21.5 -61.5t-7.5 -76.5q0 -47 14 -74t44 -27zM-23 -124q0 -45 50.5 -74t139.5 -29q25 0 49.5 3.5t43.5 11t30.5 18.5t11.5 26q0 9 -3.5 17.5t-13.5 18t-28.5 22t-47.5 29.5l-110 64q-63 -23 -92.5 -48.5t-29.5 -58.5zM377 595q-42 0 -69 26
t-27 70q0 33 17 60.5t46.5 51.5t69 43.5t84.5 36.5l13 -27q-60 -26 -98 -57.5t-39 -69.5q-1 -28 20.5 -44t53.5 -23q0 -32 -19.5 -49.5t-51.5 -17.5z" />
    <glyph glyph-name="gdotaccent" unicode="&#x121;" horiz-adv-x="520" 
d="M217 161q-32 0 -56 7l-22 -33q-9 -13 -8.5 -18t11.5 -11l136 -81q63 -38 96 -69.5t33 -66.5q0 -38 -23 -67t-61 -49t-86 -30t-98 -10q-59 0 -107.5 10t-83 27.5t-53.5 41t-19 51.5q0 23 15 43t41 37t62 31t77 26q-31 19 -45 34.5t-14 32.5q0 18 15 34t45 34l67 40
q-37 15 -56.5 44t-19.5 67q0 43 22 85.5t58.5 75.5t84.5 53.5t100 20.5q38 0 67 -10t49 -28l175 71l-27 -82q-5 -16 -13 -21t-25 -3l-90 11q17 -28 17 -63q0 -44 -22 -86t-58.5 -75t-84 -53.5t-99.5 -20.5zM249 194q23 0 42 15t33 41t21.5 61t7.5 76q0 47 -14 74t-44 27
q-23 0 -42 -14.5t-33 -40.5t-21.5 -61.5t-7.5 -76.5q0 -47 14 -74t44 -27zM-23 -124q0 -45 50.5 -74t139.5 -29q25 0 49.5 3.5t43.5 11t30.5 18.5t11.5 26q0 9 -3.5 17.5t-13.5 18t-28.5 22t-47.5 29.5l-110 64q-63 -23 -92.5 -48.5t-29.5 -58.5zM378 638q-28 0 -46.5 18.5
t-18.5 46.5q0 29 18.5 47.5t46.5 18.5q27 0 46 -18.5t19 -47.5q0 -28 -19 -46.5t-46 -18.5z" />
    <glyph glyph-name="hbar" unicode="&#x127;" horiz-adv-x="606" 
d="M235 697q5 14 0.5 24t-28.5 13l-46 6l11 32l224 22l-113 -328q-14 -41 -30.5 -83t-26.5 -64h2q40 54 74 92.5t64.5 63t59 35.5t57.5 11q33 0 50 -12.5t21.5 -35t-2 -53.5t-21.5 -68l-94 -230q-12 -29 -13 -43t13 -14q9 0 22.5 9.5t30 27t35.5 42t37 54.5l34 -19
q-59 -97 -119 -144.5t-120 -47.5q-48 0 -63.5 29.5t10.5 95.5l92 226q21 52 24.5 76.5t-19.5 24.5q-17 0 -46 -23t-62.5 -65t-67.5 -100.5t-61 -128.5l-36 -112l-139 -22zM127 630h321l-17 -48h-322z" />
    <glyph glyph-name="hcircumflex" unicode="&#x125;" horiz-adv-x="606" 
d="M235 697q5 14 0.5 24t-28.5 13l-46 6l11 32l224 22l-113 -328q-14 -41 -30.5 -83t-26.5 -64h2q40 54 74 92.5t64.5 63t59 35.5t57.5 11q33 0 50 -12.5t21.5 -35t-2 -53.5t-21.5 -68l-94 -230q-12 -29 -13 -43t13 -14q9 0 22.5 9.5t30 27t35.5 42t37 54.5l34 -19
q-59 -97 -119 -144.5t-120 -47.5q-48 0 -63.5 29.5t10.5 95.5l92 226q21 52 24.5 76.5t-19.5 24.5q-17 0 -46 -23t-62.5 -65t-67.5 -100.5t-61 -128.5l-36 -112l-139 -22zM414 1014l97 -152h-20l-103 63l-196 -63h-27l233 152h16z" />
    <glyph glyph-name="dotlessi" unicode="&#x131;" horiz-adv-x="348" 
d="M96 -13q-47 0 -63 30t10 95l123 306q6 14 1.5 24.5t-28.5 13.5l-45 5l12 33l227 21l-157 -393q-12 -29 -13 -43t13 -14q9 0 22.5 9.5t30 27t35.5 42t37 54.5l34 -19q-59 -97 -119 -144.5t-120 -47.5z" />
    <glyph glyph-name="ibreve" unicode="&#x12d;" horiz-adv-x="348" 
d="M96 -13q-47 0 -63 30t10 95l123 306q6 14 1.5 24.5t-28.5 13.5l-45 5l12 33l227 21l-157 -393q-12 -29 -13 -43t13 -14q9 0 22.5 9.5t30 27t35.5 42t37 54.5l34 -19q-59 -97 -119 -144.5t-120 -47.5zM320 628q-29 0 -56.5 8.5t-47.5 28t-28.5 49.5t-0.5 74h56
q-9 -54 14 -81t67 -27q48 0 80.5 23t49.5 85h59q-14 -54 -38 -86t-52 -48.5t-55.5 -21t-47.5 -4.5z" />
    <glyph glyph-name="imacron" unicode="&#x12b;" horiz-adv-x="348" 
d="M96 -13q-47 0 -63 30t10 95l123 306q6 14 1.5 24.5t-28.5 13.5l-45 5l12 33l227 21l-157 -393q-12 -29 -13 -43t13 -14q9 0 22.5 9.5t30 27t35.5 42t37 54.5l34 -19q-59 -97 -119 -144.5t-120 -47.5zM182 736h308l-23 -67h-308z" />
    <glyph glyph-name="iogonek" unicode="&#x12f;" horiz-adv-x="348" 
d="M96 -13q-47 0 -63 30t10 95l123 306q6 14 1.5 24.5t-28.5 13.5l-45 5l12 33l227 21l-157 -393q-12 -29 -13 -43t13 -14q9 0 22.5 9.5t30 27t35.5 42t37 54.5l34 -19q-59 -97 -119 -144.5t-120 -47.5zM327 642q-35 0 -58.5 24t-23.5 59t23.5 59t58.5 24t59 -24t24 -59
t-24 -59t-59 -24zM138 -207q-20 -9 -47.5 -18t-55.5 -9q-42 0 -67.5 20.5t-25.5 55.5q0 24 16 46t40.5 42t54 37.5t57.5 32.5h45q-21 -15 -41.5 -31t-37.5 -33.5t-27.5 -35.5t-10.5 -37q0 -30 27.5 -40.5t82.5 0.5z" />
    <glyph glyph-name="itilde" unicode="&#x129;" horiz-adv-x="348" 
d="M96 -13q-47 0 -63 30t10 95l123 306q6 14 1.5 24.5t-28.5 13.5l-45 5l12 33l227 21l-157 -393q-12 -29 -13 -43t13 -14q9 0 22.5 9.5t30 27t35.5 42t37 54.5l34 -19q-59 -97 -119 -144.5t-120 -47.5zM146 648q11 67 39.5 104.5t81.5 37.5q24 0 44 -10.5t39 -22.5
t37.5 -22.5t38.5 -10.5t36 10.5t27 52.5h21q-7 -42 -18 -69t-25 -42t-31 -20.5t-35 -5.5q-26 0 -45.5 10t-37 22.5t-35.5 22.5t-42 10q-23 0 -43.5 -13t-30.5 -54h-21z" />
    <glyph glyph-name="uni1ECB" unicode="&#x1ecb;" horiz-adv-x="348" 
d="M96 -13q-47 0 -63 30t10 95l123 306q6 14 1.5 24.5t-28.5 13.5l-45 5l12 33l227 21l-157 -393q-12 -29 -13 -43t13 -14q9 0 22.5 9.5t30 27t35.5 42t37 54.5l34 -19q-59 -97 -119 -144.5t-120 -47.5zM327 642q-35 0 -58.5 24t-23.5 59t23.5 59t58.5 24t59 -24t24 -59
t-24 -59t-59 -24zM16 -235q-28 0 -46.5 18.5t-18.5 46.5q0 29 18.5 47.5t46.5 18.5q27 0 46 -18.5t19 -47.5q0 -28 -19 -46.5t-46 -18.5z" />
    <glyph glyph-name="uni0237" unicode="&#x237;" horiz-adv-x="305" 
d="M145 48q-15 -38 -29 -66t-30.5 -50.5t-38 -41.5t-51.5 -39q-17 -11 -40 -25.5t-49.5 -30l-53 -31t-50.5 -28.5l-16 33q43 30 75.5 55t58.5 53.5t47.5 66t44.5 93.5l152 381q6 14 1 24.5t-29 13.5l-44 5l12 33l226 21z" />
    <glyph glyph-name="jcircumflex" unicode="&#x135;" horiz-adv-x="305" 
d="M145 48q-15 -38 -29 -66t-30.5 -50.5t-38 -41.5t-51.5 -39q-17 -11 -40 -25.5t-49.5 -30l-53 -31t-50.5 -28.5l-16 33q43 30 75.5 55t58.5 53.5t47.5 66t44.5 93.5l152 381q6 14 1 24.5t-29 13.5l-44 5l12 33l226 21zM430 609h-17l-95 86l-201 -86h-23l246 196h12z" />
    <glyph glyph-name="uni0137" unicode="&#x137;" horiz-adv-x="591" 
d="M382 -28q-33 0 -53 17.5t-33 49.5l-87 217l-50 -144l-29 -104l-140 -20l244 709q5 14 0.5 24t-28.5 13l-46 6l11 32l225 22l-187 -538l146 95q28 18 44 36t23.5 34t9 29.5t1.5 23.5q0 26 18.5 36.5t41.5 10.5t38.5 -12t15.5 -36q0 -11 -4.5 -22t-20.5 -26.5t-47.5 -38
t-84.5 -56.5l-64 -40l93 -210q7 -16 12.5 -21t12.5 -5q14 0 39.5 28t59.5 83l34 -21q-30 -48 -55 -81t-48 -53.5t-45.5 -29t-46.5 -8.5zM187 -88q42 0 69 -26t27 -70q0 -33 -17 -60.5t-46.5 -51.5t-69 -44t-84.5 -36l-12 27q60 26 97.5 57.5t38.5 69.5q1 28 -20.5 44
t-53.5 23q0 32 19.5 49.5t51.5 17.5z" />
    <glyph glyph-name="lacute" unicode="&#x13a;" horiz-adv-x="328" 
d="M237 697q5 14 0 24t-29 13l-46 6l12 32l224 22l-234 -672q-11 -30 -12 -43.5t12 -13.5q18 0 53 36.5t72 96.5l34 -19q-58 -97 -118.5 -144.5t-120.5 -47.5q-47 0 -60.5 30t9.5 96zM490 1044h155l-3 -9l-286 -170h-21z" />
    <glyph glyph-name="lcaron" unicode="&#x13e;" horiz-adv-x="367" 
d="M237 697q5 14 0 24t-29 13l-46 6l12 32l224 22l-234 -672q-11 -30 -12 -43.5t12 -13.5q18 0 53 36.5t72 96.5l34 -19q-58 -97 -118.5 -144.5t-120.5 -47.5q-47 0 -60.5 30t9.5 96zM516 826q42 0 69 -26t27 -70q0 -33 -17 -60.5t-46.5 -51.5t-69 -44t-84.5 -36l-12 27
q60 26 97.5 57.5t38.5 69.5q1 28 -20.5 44t-53.5 23q0 32 19.5 49.5t51.5 17.5z" />
    <glyph glyph-name="uni013C" unicode="&#x13c;" horiz-adv-x="328" 
d="M237 697q5 14 0 24t-29 13l-46 6l12 32l224 22l-234 -672q-11 -30 -12 -43.5t12 -13.5q18 0 53 36.5t72 96.5l34 -19q-58 -97 -118.5 -144.5t-120.5 -47.5q-47 0 -60.5 30t9.5 96zM20 -88q42 0 69 -26t27 -70q0 -33 -17 -60.5t-46.5 -51.5t-69 -44t-84.5 -36l-12 27
q60 26 97.5 57.5t38.5 69.5q1 28 -20.5 44t-53.5 23q0 32 19.5 49.5t51.5 17.5z" />
    <glyph glyph-name="ldot" unicode="&#x140;" horiz-adv-x="437" 
d="M237 697q5 14 0 24t-29 13l-46 6l12 32l224 22l-234 -672q-11 -30 -12 -43.5t12 -13.5q18 0 53 36.5t72 96.5l34 -19q-58 -97 -118.5 -144.5t-120.5 -47.5q-47 0 -60.5 30t9.5 96zM423 362q-28 0 -46.5 18.5t-18.5 47.5q0 28 18.5 46.5t46.5 18.5q27 0 46 -18.5t19 -46.5
q0 -29 -19 -47.5t-46 -18.5z" />
    <glyph glyph-name="glyph298" horiz-adv-x="437" 
d="M237 697q5 14 0 24t-29 13l-46 6l12 32l224 22l-234 -672q-11 -30 -12 -43.5t12 -13.5q18 0 53 36.5t72 96.5l34 -19q-58 -97 -118.5 -144.5t-120.5 -47.5q-47 0 -60.5 30t9.5 96zM423 362q-28 0 -46.5 18.5t-18.5 47.5q0 28 18.5 46.5t46.5 18.5q27 0 46 -18.5t19 -46.5
q0 -29 -19 -47.5t-46 -18.5z" />
    <glyph glyph-name="lslash" unicode="&#x142;" horiz-adv-x="396" 
d="M271 697q5 14 0 24t-29 13l-46 6l12 32l224 22l-234 -672q-11 -30 -12 -43.5t12 -13.5q18 0 53 36.5t72 96.5l34 -19q-58 -97 -118.5 -144.5t-120.5 -47.5q-47 0 -60.5 30t9.5 96zM40 352l410 182l-20 -62l-410 -182z" />
    <glyph glyph-name="eng" unicode="&#x14b;" horiz-adv-x="576" 
d="M271 -149q-17 -11 -40.5 -25.5t-49.5 -30t-53 -31t-51 -28.5l-16 33q44 30 76 55t58 53.5t47.5 66t44.5 93.5l123 301q21 52 24 76.5t-19 24.5q-17 0 -48 -23.5t-65.5 -66t-68.5 -102.5t-58 -133l-34 -104l-144 -22l167 430q5 14 1 24t-28 14l-45 5l12 33l217 21
l-80 -194h3q39 53 72.5 91t64 62t59 35.5t57.5 11.5q33 0 50 -12.5t21.5 -35t-2 -53.5t-21.5 -68l-124 -304q-16 -38 -30 -66t-30.5 -50.5t-38 -41.5t-51.5 -39z" />
    <glyph glyph-name="nacute" unicode="&#x144;" horiz-adv-x="620" 
d="M164 418q5 14 1 24.5t-28 13.5l-45 5l12 33l217 21l-80 -194h3q39 53 72.5 91t64 62t59 35.5t57.5 11.5q33 0 50 -12.5t21.5 -35t-2 -53.5t-21.5 -68l-94 -230q-12 -29 -13 -43t13 -14q9 0 22.5 9.5t30 27t35.5 42t37 54.5l33 -19q-58 -97 -118 -144.5t-120 -47.5
q-48 0 -63.5 29.5t10.5 95.5l92 226q21 52 24 76.5t-19 24.5q-17 0 -46 -23t-62.5 -65t-67.5 -100.5t-61 -128.5l-37 -112l-144 -22zM563 788h155l-3 -9l-286 -170h-21z" />
    <glyph glyph-name="ncaron" unicode="&#x148;" horiz-adv-x="620" 
d="M164 418q5 14 1 24.5t-28 13.5l-45 5l12 33l217 21l-80 -194h3q39 53 72.5 91t64 62t59 35.5t57.5 11.5q33 0 50 -12.5t21.5 -35t-2 -53.5t-21.5 -68l-94 -230q-12 -29 -13 -43t13 -14q9 0 22.5 9.5t30 27t35.5 42t37 54.5l33 -19q-58 -97 -118 -144.5t-120 -47.5
q-48 0 -63.5 29.5t10.5 95.5l92 226q21 52 24 76.5t-19 24.5q-17 0 -46 -23t-62.5 -65t-67.5 -100.5t-61 -128.5l-37 -112l-144 -22zM344 805h17l95 -86l201 86h23l-246 -196h-12z" />
    <glyph glyph-name="uni0146" unicode="&#x146;" horiz-adv-x="620" 
d="M164 418q5 14 1 24.5t-28 13.5l-45 5l12 33l217 21l-80 -194h3q39 53 72.5 91t64 62t59 35.5t57.5 11.5q33 0 50 -12.5t21.5 -35t-2 -53.5t-21.5 -68l-94 -230q-12 -29 -13 -43t13 -14q9 0 22.5 9.5t30 27t35.5 42t37 54.5l33 -19q-58 -97 -118 -144.5t-120 -47.5
q-48 0 -63.5 29.5t10.5 95.5l92 226q21 52 24 76.5t-19 24.5q-17 0 -46 -23t-62.5 -65t-67.5 -100.5t-61 -128.5l-37 -112l-144 -22zM204 -88q42 0 69 -26t27 -70q0 -33 -17 -60.5t-46.5 -51.5t-69 -44t-84.5 -36l-12 27q60 26 97.5 57.5t38.5 69.5q1 28 -20.5 44t-53.5 23
q0 32 19.5 49.5t51.5 17.5z" />
    <glyph glyph-name="oe" unicode="&#x153;" horiz-adv-x="802" 
d="M744 180q-21 -36 -45.5 -70.5t-54.5 -62t-66.5 -44t-82.5 -16.5q-45 0 -79.5 20.5t-49.5 59.5q-42 -37 -89.5 -58.5t-96.5 -21.5q-40 0 -70.5 12t-50.5 32.5t-30.5 48t-10.5 59.5q0 47 15.5 94t41.5 89t61.5 78.5t75.5 63.5t82 42t83 15q58 0 87.5 -29.5t39.5 -72.5
q49 46 105 74t110 28q49 0 73 -21t24 -56q0 -44 -21.5 -73.5t-49.5 -48.5q-22 -6 -52.5 -14t-64 -16t-67 -15.5t-61.5 -13.5q-5 -21 -7.5 -42.5t-2.5 -42.5q0 -57 21 -81.5t55 -24.5q38 0 72 31.5t73 94.5zM592 322q36 12 58.5 26.5t35 29.5t17 30.5t4.5 29.5q0 17 -9.5 27
t-27.5 10q-23 0 -46 -13.5t-44 -37.5t-39 -55.5t-30 -67.5q23 5 43.5 10t37.5 11zM158 126q0 -46 12 -68.5t43 -22.5q37 0 70.5 33.5t59 85t41 112.5t15.5 116q0 45 -12 68t-42 23q-37 0 -71 -33.5t-59.5 -85t-41 -112.5t-15.5 -116z" />
    <glyph glyph-name="obreve" unicode="&#x14f;" horiz-adv-x="553" 
d="M180 -13q-40 0 -70.5 12t-50.5 32.5t-30.5 48t-10.5 59.5q0 47 15.5 94t41.5 89t61.5 78.5t75.5 63.5t82 42t83 15q40 0 70.5 -12.5t51 -33.5t31 -48.5t10.5 -58.5q0 -47 -15.5 -93.5t-42 -89t-62 -79t-75.5 -63t-82.5 -41.5t-82.5 -15zM213 35q37 0 70.5 33.5t59 85
t41 112.5t15.5 116q0 45 -12 68t-42 23q-37 0 -71 -33.5t-59.5 -85t-41 -112.5t-15.5 -116q0 -46 12 -68.5t43 -22.5zM429 628q-29 0 -56.5 8.5t-47.5 28t-28.5 49.5t-0.5 74h56q-9 -54 14 -81t67 -27q48 0 80.5 23t49.5 85h59q-14 -54 -38 -86t-52 -48.5t-55.5 -21
t-47.5 -4.5z" />
    <glyph glyph-name="ohungarumlaut" unicode="&#x151;" horiz-adv-x="553" 
d="M180 -13q-40 0 -70.5 12t-50.5 32.5t-30.5 48t-10.5 59.5q0 47 15.5 94t41.5 89t61.5 78.5t75.5 63.5t82 42t83 15q40 0 70.5 -12.5t51 -33.5t31 -48.5t10.5 -58.5q0 -47 -15.5 -93.5t-42 -89t-62 -79t-75.5 -63t-82.5 -41.5t-82.5 -15zM213 35q37 0 70.5 33.5t59 85
t41 112.5t15.5 116q0 45 -12 68t-42 23q-37 0 -71 -33.5t-59.5 -85t-41 -112.5t-15.5 -116q0 -46 12 -68.5t43 -22.5zM639 788h155l-3 -9l-287 -170h-21zM445 788h154l-3 -9l-287 -170h-21z" />
    <glyph glyph-name="omacron" unicode="&#x14d;" horiz-adv-x="553" 
d="M180 -13q-40 0 -70.5 12t-50.5 32.5t-30.5 48t-10.5 59.5q0 47 15.5 94t41.5 89t61.5 78.5t75.5 63.5t82 42t83 15q40 0 70.5 -12.5t51 -33.5t31 -48.5t10.5 -58.5q0 -47 -15.5 -93.5t-42 -89t-62 -79t-75.5 -63t-82.5 -41.5t-82.5 -15zM213 35q37 0 70.5 33.5t59 85
t41 112.5t15.5 116q0 45 -12 68t-42 23q-37 0 -71 -33.5t-59.5 -85t-41 -112.5t-15.5 -116q0 -46 12 -68.5t43 -22.5zM291 736h308l-23 -67h-308z" />
    <glyph glyph-name="uni1ECD" unicode="&#x1ecd;" horiz-adv-x="553" 
d="M180 -13q-40 0 -70.5 12t-50.5 32.5t-30.5 48t-10.5 59.5q0 47 15.5 94t41.5 89t61.5 78.5t75.5 63.5t82 42t83 15q40 0 70.5 -12.5t51 -33.5t31 -48.5t10.5 -58.5q0 -47 -15.5 -93.5t-42 -89t-62 -79t-75.5 -63t-82.5 -41.5t-82.5 -15zM213 35q37 0 70.5 33.5t59 85
t41 112.5t15.5 116q0 45 -12 68t-42 23q-37 0 -71 -33.5t-59.5 -85t-41 -112.5t-15.5 -116q0 -46 12 -68.5t43 -22.5zM130 -235q-28 0 -46.5 18.5t-18.5 46.5q0 29 18.5 47.5t46.5 18.5q27 0 46 -18.5t19 -47.5q0 -28 -19 -46.5t-46 -18.5z" />
    <glyph glyph-name="racute" unicode="&#x155;" horiz-adv-x="448" 
d="M164 418q5 14 1 24.5t-28 13.5l-45 5l12 33l210 21q-31 -73 -56 -131q-11 -25 -21 -49t-18.5 -43.5t-13.5 -32.5t-6 -15h4q30 65 67.5 119.5t66.5 88.5q32 38 59.5 53.5t55.5 15.5t44 -15.5t16 -42.5q0 -29 -18.5 -49t-42.5 -20q-14 0 -23 3.5t-17 8t-16 8t-19 3.5
q-14 0 -29 -13t-33 -36q-30 -39 -68 -104.5t-73 -153.5l-32 -100l-144 -22zM522 788h155l-3 -9l-286 -170h-21z" />
    <glyph glyph-name="rcaron" unicode="&#x159;" horiz-adv-x="448" 
d="M164 418q5 14 1 24.5t-28 13.5l-45 5l12 33l210 21q-31 -73 -56 -131q-11 -25 -21 -49t-18.5 -43.5t-13.5 -32.5t-6 -15h4q30 65 67.5 119.5t66.5 88.5q32 38 59.5 53.5t55.5 15.5t44 -15.5t16 -42.5q0 -29 -18.5 -49t-42.5 -20q-14 0 -23 3.5t-17 8t-16 8t-19 3.5
q-14 0 -29 -13t-33 -36q-30 -39 -68 -104.5t-73 -153.5l-32 -100l-144 -22zM302 805h17l95 -86l201 86h23l-246 -196h-12z" />
    <glyph glyph-name="uni0157" unicode="&#x157;" horiz-adv-x="448" 
d="M164 418q5 14 1 24.5t-28 13.5l-45 5l12 33l210 21q-31 -73 -56 -131q-11 -25 -21 -49t-18.5 -43.5t-13.5 -32.5t-6 -15h4q30 65 67.5 119.5t66.5 88.5q32 38 59.5 53.5t55.5 15.5t44 -15.5t16 -42.5q0 -29 -18.5 -49t-42.5 -20q-14 0 -23 3.5t-17 8t-16 8t-19 3.5
q-14 0 -29 -13t-33 -36q-30 -39 -68 -104.5t-73 -153.5l-32 -100l-144 -22zM25 -88q42 0 69 -26t27 -70q0 -33 -17 -60.5t-46.5 -51.5t-69 -44t-84.5 -36l-12 27q60 26 97.5 57.5t38.5 69.5q1 28 -20.5 44t-53.5 23q0 32 19.5 49.5t51.5 17.5z" />
    <glyph glyph-name="sacute" unicode="&#x15b;" horiz-adv-x="417" 
d="M119 -13q-28 0 -53 6.5t-44 18.5t-30 28t-11 36q0 25 18 42t44 17q22 0 34 -16t22.5 -35t25 -35t41.5 -16q31 0 47.5 16.5t16.5 38.5q0 20 -12.5 45.5t-35.5 54.5l-37 49q-23 30 -35 59t-12 58q0 37 21 68t53 53t70 34t73 12q50 0 83 -20.5t33 -55.5q0 -26 -16.5 -42
t-41.5 -16q-20 0 -30.5 13t-21 28.5t-26 28.5t-43.5 13q-25 0 -39.5 -12t-14.5 -32q0 -17 9.5 -40t34.5 -55l39 -52q27 -35 40 -64t13 -61q0 -39 -20 -69.5t-51 -52.5t-69 -33.5t-75 -11.5zM468 788h155l-3 -9l-286 -170h-21z" />
    <glyph glyph-name="scaron" unicode="&#x161;" horiz-adv-x="417" 
d="M119 -13q-28 0 -53 6.5t-44 18.5t-30 28t-11 36q0 25 18 42t44 17q22 0 34 -16t22.5 -35t25 -35t41.5 -16q31 0 47.5 16.5t16.5 38.5q0 20 -12.5 45.5t-35.5 54.5l-37 49q-23 30 -35 59t-12 58q0 37 21 68t53 53t70 34t73 12q50 0 83 -20.5t33 -55.5q0 -26 -16.5 -42
t-41.5 -16q-20 0 -30.5 13t-21 28.5t-26 28.5t-43.5 13q-25 0 -39.5 -12t-14.5 -32q0 -17 9.5 -40t34.5 -55l39 -52q27 -35 40 -64t13 -61q0 -39 -20 -69.5t-51 -52.5t-69 -33.5t-75 -11.5zM248 805h17l95 -86l201 86h23l-246 -196h-12z" />
    <glyph glyph-name="scedilla" unicode="&#x15f;" horiz-adv-x="417" 
d="M119 -13q-28 0 -53 6.5t-44 18.5t-30 28t-11 36q0 25 18 42t44 17q22 0 34 -16t22.5 -35t25 -35t41.5 -16q31 0 47.5 16.5t16.5 38.5q0 20 -12.5 45.5t-35.5 54.5l-37 49q-23 30 -35 59t-12 58q0 37 21 68t53 53t70 34t73 12q50 0 83 -20.5t33 -55.5q0 -26 -16.5 -42
t-41.5 -16q-20 0 -30.5 13t-21 28.5t-26 28.5t-43.5 13q-25 0 -39.5 -12t-14.5 -32q0 -17 9.5 -40t34.5 -55l39 -52q27 -35 40 -64t13 -61q0 -39 -20 -69.5t-51 -52.5t-69 -33.5t-75 -11.5zM9 -263q-52 0 -76 20t-24 42q0 23 19 32t40 1q1 -32 17.5 -48t41.5 -16q43 0 43 29
q0 17 -22.5 35.5t-66.5 47.5l152 120h49l-107 -84q28 -18 44.5 -38.5t16.5 -45.5q0 -19 -9.5 -36.5t-26.5 -30.5t-40 -20.5t-51 -7.5z" />
    <glyph glyph-name="scircumflex" unicode="&#x15d;" horiz-adv-x="417" 
d="M119 -13q-28 0 -53 6.5t-44 18.5t-30 28t-11 36q0 25 18 42t44 17q22 0 34 -16t22.5 -35t25 -35t41.5 -16q31 0 47.5 16.5t16.5 38.5q0 20 -12.5 45.5t-35.5 54.5l-37 49q-23 30 -35 59t-12 58q0 37 21 68t53 53t70 34t73 12q50 0 83 -20.5t33 -55.5q0 -26 -16.5 -42
t-41.5 -16q-20 0 -30.5 13t-21 28.5t-26 28.5t-43.5 13q-25 0 -39.5 -12t-14.5 -32q0 -17 9.5 -40t34.5 -55l39 -52q27 -35 40 -64t13 -61q0 -39 -20 -69.5t-51 -52.5t-69 -33.5t-75 -11.5zM501 609h-17l-95 86l-201 -86h-23l246 196h12z" />
    <glyph glyph-name="uni0219" unicode="&#x219;" horiz-adv-x="417" 
d="M119 -13q-28 0 -53 6.5t-44 18.5t-30 28t-11 36q0 25 18 42t44 17q22 0 34 -16t22.5 -35t25 -35t41.5 -16q31 0 47.5 16.5t16.5 38.5q0 20 -12.5 45.5t-35.5 54.5l-37 49q-23 30 -35 59t-12 58q0 37 21 68t53 53t70 34t73 12q50 0 83 -20.5t33 -55.5q0 -26 -16.5 -42
t-41.5 -16q-20 0 -30.5 13t-21 28.5t-26 28.5t-43.5 13q-25 0 -39.5 -12t-14.5 -32q0 -17 9.5 -40t34.5 -55l39 -52q27 -35 40 -64t13 -61q0 -39 -20 -69.5t-51 -52.5t-69 -33.5t-75 -11.5zM84 -88q42 0 69 -26t27 -70q0 -33 -17 -60.5t-46.5 -51.5t-69 -44t-84.5 -36
l-12 27q60 26 97.5 57.5t38.5 69.5q1 28 -20.5 44t-53.5 23q0 32 19.5 49.5t51.5 17.5z" />
    <glyph glyph-name="tbar" unicode="&#x167;" horiz-adv-x="440" 
d="M201 122q-11 -30 -10.5 -43.5t15.5 -13.5q9 0 24.5 9.5t34.5 27t39 42t38 54.5l34 -19q-59 -97 -124.5 -144.5t-125.5 -47.5q-23 0 -39.5 7t-24.5 22.5t-6.5 39t14.5 56.5l124 323h-101l26 67h100l43 108h126l-41 -108h130l-26 -67h-130zM59 348h358l-17 -49h-359z" />
    <glyph glyph-name="tcaron" unicode="&#x165;" horiz-adv-x="400" 
d="M181 122q-11 -30 -10.5 -43.5t15.5 -13.5q9 0 24.5 9.5t34.5 27t39 42t38 54.5l34 -19q-59 -97 -124.5 -144.5t-125.5 -47.5q-23 0 -39.5 7t-24.5 22.5t-6.5 39t14.5 56.5l124 323h-101l26 67h100l43 108h126l-41 -108h130l-26 -67h-130zM557 832q42 0 69 -26t27 -70
q0 -33 -17 -60.5t-46.5 -51.5t-69 -44t-84.5 -36l-12 27q60 26 97.5 57.5t38.5 69.5q1 28 -20.5 44t-53.5 23q0 32 19.5 49.5t51.5 17.5z" />
    <glyph glyph-name="uni0163" unicode="&#x163;" horiz-adv-x="400" 
d="M181 122q-11 -30 -10.5 -43.5t15.5 -13.5q9 0 24.5 9.5t34.5 27t39 42t38 54.5l34 -19q-59 -97 -124.5 -144.5t-125.5 -47.5q-23 0 -39.5 7t-24.5 22.5t-6.5 39t14.5 56.5l124 323h-101l26 67h100l43 108h126l-41 -108h130l-26 -67h-130zM34 -88q42 0 69 -26t27 -70
q0 -33 -17 -60.5t-46.5 -51.5t-69 -44t-84.5 -36l-12 27q60 26 97.5 57.5t38.5 69.5q1 28 -20.5 44t-53.5 23q0 32 19.5 49.5t51.5 17.5z" />
    <glyph glyph-name="uni021B" unicode="&#x21b;" horiz-adv-x="400" 
d="M181 122q-11 -30 -10.5 -43.5t15.5 -13.5q9 0 24.5 9.5t34.5 27t39 42t38 54.5l34 -19q-59 -97 -124.5 -144.5t-125.5 -47.5q-23 0 -39.5 7t-24.5 22.5t-6.5 39t14.5 56.5l124 323h-101l26 67h100l43 108h126l-41 -108h130l-26 -67h-130zM34 -88q42 0 69 -26t27 -70
q0 -33 -17 -60.5t-46.5 -51.5t-69 -44t-84.5 -36l-12 27q60 26 97.5 57.5t38.5 69.5q1 28 -20.5 44t-53.5 23q0 32 19.5 49.5t51.5 17.5z" />
    <glyph glyph-name="ubreve" unicode="&#x16d;" horiz-adv-x="622" 
d="M194 170q-21 -53 -24 -77t19 -24q18 0 47 23t63 66t68.5 102.5t62.5 133.5l28 81l148 39l-153 -392q-11 -29 -12 -43t12 -14q18 0 53.5 36.5t71.5 96.5l34 -19q-58 -97 -118.5 -144.5t-120.5 -47.5q-95 0 -41 125l32 75h-3q-39 -53 -72.5 -91t-64 -62t-59 -35.5
t-57.5 -11.5q-33 0 -50.5 12.5t-22 35t2 53.5t21.5 68l105 262q6 14 1.5 24.5t-28.5 13.5l-45 5l12 33l228 21zM458 628q-29 0 -56.5 8.5t-47.5 28t-28.5 49.5t-0.5 74h56q-9 -54 14 -81t67 -27q48 0 80.5 23t49.5 85h59q-14 -54 -38 -86t-52 -48.5t-55.5 -21t-47.5 -4.5z
" />
    <glyph glyph-name="uhungarumlaut" unicode="&#x171;" horiz-adv-x="622" 
d="M194 170q-21 -53 -24 -77t19 -24q18 0 47 23t63 66t68.5 102.5t62.5 133.5l28 81l148 39l-153 -392q-11 -29 -12 -43t12 -14q18 0 53.5 36.5t71.5 96.5l34 -19q-58 -97 -118.5 -144.5t-120.5 -47.5q-95 0 -41 125l32 75h-3q-39 -53 -72.5 -91t-64 -62t-59 -35.5
t-57.5 -11.5q-33 0 -50.5 12.5t-22 35t2 53.5t21.5 68l105 262q6 14 1.5 24.5t-28.5 13.5l-45 5l12 33l228 21zM668 788h155l-3 -9l-287 -170h-21zM474 788h154l-3 -9l-287 -170h-21z" />
    <glyph glyph-name="umacron" unicode="&#x16b;" horiz-adv-x="622" 
d="M194 170q-21 -53 -24 -77t19 -24q18 0 47 23t63 66t68.5 102.5t62.5 133.5l28 81l148 39l-153 -392q-11 -29 -12 -43t12 -14q18 0 53.5 36.5t71.5 96.5l34 -19q-58 -97 -118.5 -144.5t-120.5 -47.5q-95 0 -41 125l32 75h-3q-39 -53 -72.5 -91t-64 -62t-59 -35.5
t-57.5 -11.5q-33 0 -50.5 12.5t-22 35t2 53.5t21.5 68l105 262q6 14 1.5 24.5t-28.5 13.5l-45 5l12 33l228 21zM320 736h308l-23 -67h-308z" />
    <glyph glyph-name="uogonek" unicode="&#x173;" horiz-adv-x="622" 
d="M194 170q-21 -53 -24 -77t19 -24q18 0 47 23t63 66t68.5 102.5t62.5 133.5l28 81l148 39l-153 -392q-11 -29 -12 -43t12 -14q18 0 53.5 36.5t71.5 96.5l34 -19q-91 -151 -189 -183q-20 -14 -39.5 -30t-34.5 -33t-24 -34.5t-9 -35.5q0 -62 109 -40l-10 -30
q-20 -9 -47.5 -18t-55.5 -9q-42 0 -67 20.5t-25 55.5q0 21 13 41.5t33.5 39t46 35t51.5 30.5q-82 6 -32 124l32 75h-3q-39 -53 -72.5 -91t-64 -62t-59 -35.5t-57.5 -11.5q-33 0 -50.5 12.5t-22 35t2 53.5t21.5 68l105 262q6 14 1.5 24.5t-28.5 13.5l-45 5l12 33l228 21z" />
    <glyph glyph-name="uring" unicode="&#x16f;" horiz-adv-x="622" 
d="M194 170q-21 -53 -24 -77t19 -24q18 0 47 23t63 66t68.5 102.5t62.5 133.5l28 81l148 39l-153 -392q-11 -29 -12 -43t12 -14q18 0 53.5 36.5t71.5 96.5l34 -19q-58 -97 -118.5 -144.5t-120.5 -47.5q-95 0 -41 125l32 75h-3q-39 -53 -72.5 -91t-64 -62t-59 -35.5
t-57.5 -11.5q-33 0 -50.5 12.5t-22 35t2 53.5t21.5 68l105 262q6 14 1.5 24.5t-28.5 13.5l-45 5l12 33l228 21zM340 705q0 25 10 47t26.5 38.5t39 26t48.5 9.5q27 0 50 -9.5t40 -26t26.5 -38.5t9.5 -47t-9.5 -46.5t-26.5 -37.5t-40 -25.5t-50 -9.5q-26 0 -48.5 9.5t-39 25.5
t-26.5 37.5t-10 46.5zM531 705q0 32 -17.5 50t-49.5 18q-31 0 -48.5 -18t-17.5 -50q0 -31 17.5 -49.5t48.5 -18.5q32 0 49.5 18.5t17.5 49.5z" />
    <glyph glyph-name="utilde" unicode="&#x169;" horiz-adv-x="622" 
d="M194 170q-21 -53 -24 -77t19 -24q18 0 47 23t63 66t68.5 102.5t62.5 133.5l28 81l148 39l-153 -392q-11 -29 -12 -43t12 -14q18 0 53.5 36.5t71.5 96.5l34 -19q-58 -97 -118.5 -144.5t-120.5 -47.5q-95 0 -41 125l32 75h-3q-39 -53 -72.5 -91t-64 -62t-59 -35.5
t-57.5 -11.5q-33 0 -50.5 12.5t-22 35t2 53.5t21.5 68l105 262q6 14 1.5 24.5t-28.5 13.5l-45 5l12 33l228 21zM284 648q11 67 39.5 104.5t81.5 37.5q24 0 44 -10.5t39 -22.5t37.5 -22.5t38.5 -10.5t36 10.5t27 52.5h21q-7 -42 -18 -69t-25 -42t-31 -20.5t-35 -5.5
q-26 0 -45.5 10t-37 22.5t-35.5 22.5t-42 10q-23 0 -43.5 -13t-30.5 -54h-21z" />
    <glyph glyph-name="uni1EE5" unicode="&#x1ee5;" horiz-adv-x="622" 
d="M194 170q-21 -53 -24 -77t19 -24q18 0 47 23t63 66t68.5 102.5t62.5 133.5l28 81l148 39l-153 -392q-11 -29 -12 -43t12 -14q18 0 53.5 36.5t71.5 96.5l34 -19q-58 -97 -118.5 -144.5t-120.5 -47.5q-95 0 -41 125l32 75h-3q-39 -53 -72.5 -91t-64 -62t-59 -35.5
t-57.5 -11.5q-33 0 -50.5 12.5t-22 35t2 53.5t21.5 68l105 262q6 14 1.5 24.5t-28.5 13.5l-45 5l12 33l228 21zM185 -235q-28 0 -46.5 18.5t-18.5 46.5q0 29 18.5 47.5t46.5 18.5q27 0 46 -18.5t19 -47.5q0 -28 -19 -46.5t-46 -18.5z" />
    <glyph glyph-name="wacute" unicode="&#x1e83;" horiz-adv-x="797" 
d="M78 0q8 116 22 225t38 193q5 15 1 25t-28 13l-45 5l12 33l211 21q-13 -41 -25.5 -92t-23.5 -105t-19 -108t-11 -100q29 24 56.5 52.5t51.5 58.5t45.5 60.5t38.5 58.5q4 35 7.5 66t8.5 57l132 51q-14 -88 -24.5 -184.5t-15.5 -205.5q33 34 64.5 66t59 62.5t49 59
t34.5 55.5q7 13 7.5 27.5t-1.5 28t-4.5 26t-2.5 23.5q0 15 6 24.5t15 15t20 7.5t22 2t22.5 -3.5t21 -10.5t15.5 -18t6 -26q0 -34 -35.5 -81t-93.5 -108q-33 -35 -63 -66t-60.5 -63.5t-62.5 -67.5t-68 -77h-83q2 52 6 118.5t10 135.5q-48 -65 -107.5 -130.5t-123.5 -123.5
h-85zM647 788h155l-3 -9l-286 -170h-21z" />
    <glyph glyph-name="wcircumflex" unicode="&#x175;" horiz-adv-x="797" 
d="M78 0q8 116 22 225t38 193q5 15 1 25t-28 13l-45 5l12 33l211 21q-13 -41 -25.5 -92t-23.5 -105t-19 -108t-11 -100q29 24 56.5 52.5t51.5 58.5t45.5 60.5t38.5 58.5q4 35 7.5 66t8.5 57l132 51q-14 -88 -24.5 -184.5t-15.5 -205.5q33 34 64.5 66t59 62.5t49 59
t34.5 55.5q7 13 7.5 27.5t-1.5 28t-4.5 26t-2.5 23.5q0 15 6 24.5t15 15t20 7.5t22 2t22.5 -3.5t21 -10.5t15.5 -18t6 -26q0 -34 -35.5 -81t-93.5 -108q-33 -35 -63 -66t-60.5 -63.5t-62.5 -67.5t-68 -77h-83q2 52 6 118.5t10 135.5q-48 -65 -107.5 -130.5t-123.5 -123.5
h-85zM680 609h-17l-95 86l-201 -86h-23l246 196h12z" />
    <glyph glyph-name="wdieresis" unicode="&#x1e85;" horiz-adv-x="797" 
d="M78 0q8 116 22 225t38 193q5 15 1 25t-28 13l-45 5l12 33l211 21q-13 -41 -25.5 -92t-23.5 -105t-19 -108t-11 -100q29 24 56.5 52.5t51.5 58.5t45.5 60.5t38.5 58.5q4 35 7.5 66t8.5 57l132 51q-14 -88 -24.5 -184.5t-15.5 -205.5q33 34 64.5 66t59 62.5t49 59
t34.5 55.5q7 13 7.5 27.5t-1.5 28t-4.5 26t-2.5 23.5q0 15 6 24.5t15 15t20 7.5t22 2t22.5 -3.5t21 -10.5t15.5 -18t6 -26q0 -34 -35.5 -81t-93.5 -108q-33 -35 -63 -66t-60.5 -63.5t-62.5 -67.5t-68 -77h-83q2 52 6 118.5t10 135.5q-48 -65 -107.5 -130.5t-123.5 -123.5
h-85zM665 644q-27 0 -45.5 18.5t-18.5 47.5q0 28 18.5 46.5t45.5 18.5q28 0 46.5 -18.5t18.5 -46.5q0 -29 -18.5 -47.5t-46.5 -18.5zM436 644q-27 0 -45.5 18.5t-18.5 47.5q0 28 18.5 46.5t45.5 18.5q28 0 46.5 -18.5t18.5 -46.5q0 -29 -18.5 -47.5t-46.5 -18.5z" />
    <glyph glyph-name="wgrave" unicode="&#x1e81;" horiz-adv-x="797" 
d="M78 0q8 116 22 225t38 193q5 15 1 25t-28 13l-45 5l12 33l211 21q-13 -41 -25.5 -92t-23.5 -105t-19 -108t-11 -100q29 24 56.5 52.5t51.5 58.5t45.5 60.5t38.5 58.5q4 35 7.5 66t8.5 57l132 51q-14 -88 -24.5 -184.5t-15.5 -205.5q33 34 64.5 66t59 62.5t49 59
t34.5 55.5q7 13 7.5 27.5t-1.5 28t-4.5 26t-2.5 23.5q0 15 6 24.5t15 15t20 7.5t22 2t22.5 -3.5t21 -10.5t15.5 -18t6 -26q0 -34 -35.5 -81t-93.5 -108q-33 -35 -63 -66t-60.5 -63.5t-62.5 -67.5t-68 -77h-83q2 52 6 118.5t10 135.5q-48 -65 -107.5 -130.5t-123.5 -123.5
h-85zM517 609l-164 170l3 9h131l46 -179h-16z" />
    <glyph glyph-name="ycircumflex" unicode="&#x177;" horiz-adv-x="553" 
d="M-86 -267q-30 0 -47 15t-17 38q0 20 9 30.5t24 14.5t33.5 4h37.5t35.5 1t28.5 8q27 15 58 48.5t73 93.5l-13 432q-1 20 -5 27.5t-22 10.5l-45 5l12 33l191 21v-369l131 194q35 52 61.5 86.5t48 55.5t40 30t37.5 9q26 0 39.5 -12.5t13.5 -33.5q0 -20 -12.5 -36t-47.5 -25
q-20 -5 -37.5 -12t-34.5 -20t-36 -34t-42 -54l-198 -283q-17 -25 -38.5 -53t-44.5 -56t-47 -53.5t-46 -45.5q-78 -70 -140 -70zM575 609h-17l-95 86l-201 -86h-23l246 196h12z" />
    <glyph glyph-name="ygrave" unicode="&#x1ef3;" horiz-adv-x="553" 
d="M-86 -267q-30 0 -47 15t-17 38q0 20 9 30.5t24 14.5t33.5 4h37.5t35.5 1t28.5 8q27 15 58 48.5t73 93.5l-13 432q-1 20 -5 27.5t-22 10.5l-45 5l12 33l191 21v-369l131 194q35 52 61.5 86.5t48 55.5t40 30t37.5 9q26 0 39.5 -12.5t13.5 -33.5q0 -20 -12.5 -36t-47.5 -25
q-20 -5 -37.5 -12t-34.5 -20t-36 -34t-42 -54l-198 -283q-17 -25 -38.5 -53t-44.5 -56t-47 -53.5t-46 -45.5q-78 -70 -140 -70zM412 609l-164 170l3 9h131l46 -179h-16z" />
    <glyph glyph-name="uni0233" unicode="&#x233;" horiz-adv-x="553" 
d="M-86 -267q-30 0 -47 15t-17 38q0 20 9 30.5t24 14.5t33.5 4h37.5t35.5 1t28.5 8q27 15 58 48.5t73 93.5l-13 432q-1 20 -5 27.5t-22 10.5l-45 5l12 33l191 21v-369l131 194q35 52 61.5 86.5t48 55.5t40 30t37.5 9q26 0 39.5 -12.5t13.5 -33.5q0 -20 -12.5 -36t-47.5 -25
q-20 -5 -37.5 -12t-34.5 -20t-36 -34t-42 -54l-198 -283q-17 -25 -38.5 -53t-44.5 -56t-47 -53.5t-46 -45.5q-78 -70 -140 -70zM300 736h308l-23 -67h-308z" />
    <glyph glyph-name="zacute" unicode="&#x17a;" horiz-adv-x="535" 
d="M338 -45q-26 0 -53.5 15.5t-57.5 36.5t-64.5 41.5t-74.5 31.5q-8 -29 -16.5 -47.5t-18 -28.5t-19 -13.5t-18.5 -3.5q-17 0 -27.5 9.5t-10.5 25.5t12.5 33.5t46.5 44.5l333 269q-35 9 -64.5 21t-54.5 22t-45 17t-34 7q-16 0 -25.5 -7.5t-9.5 -21.5q0 -15 8 -21.5t17.5 -13
t17.5 -15.5t8 -28t-15 -33t-36 -14q-29 0 -44 19.5t-15 43.5t9.5 47t24.5 44t33.5 38t36.5 28q20 13 34.5 16.5t26.5 2.5q18 -1 45 -9.5t57 -18.5t58 -18.5t48 -8.5q32 0 58 16t46 34l29 -30l-409 -330q31 -8 58.5 -23.5t52 -31t46.5 -27.5t42 -12q35 0 55.5 24t37.5 64
l36 -15q-16 -39 -34.5 -72t-39 -57t-43.5 -37.5t-48 -13.5zM513 788h155l-3 -9l-286 -170h-21z" />
    <glyph glyph-name="zcaron" unicode="&#x17e;" horiz-adv-x="535" 
d="M338 -45q-26 0 -53.5 15.5t-57.5 36.5t-64.5 41.5t-74.5 31.5q-8 -29 -16.5 -47.5t-18 -28.5t-19 -13.5t-18.5 -3.5q-17 0 -27.5 9.5t-10.5 25.5t12.5 33.5t46.5 44.5l333 269q-35 9 -64.5 21t-54.5 22t-45 17t-34 7q-16 0 -25.5 -7.5t-9.5 -21.5q0 -15 8 -21.5t17.5 -13
t17.5 -15.5t8 -28t-15 -33t-36 -14q-29 0 -44 19.5t-15 43.5t9.5 47t24.5 44t33.5 38t36.5 28q20 13 34.5 16.5t26.5 2.5q18 -1 45 -9.5t57 -18.5t58 -18.5t48 -8.5q32 0 58 16t46 34l29 -30l-409 -330q31 -8 58.5 -23.5t52 -31t46.5 -27.5t42 -12q35 0 55.5 24t37.5 64
l36 -15q-16 -39 -34.5 -72t-39 -57t-43.5 -37.5t-48 -13.5zM294 805h17l95 -86l201 86h23l-246 -196h-12z" />
    <glyph glyph-name="zdotaccent" unicode="&#x17c;" horiz-adv-x="535" 
d="M338 -45q-26 0 -53.5 15.5t-57.5 36.5t-64.5 41.5t-74.5 31.5q-8 -29 -16.5 -47.5t-18 -28.5t-19 -13.5t-18.5 -3.5q-17 0 -27.5 9.5t-10.5 25.5t12.5 33.5t46.5 44.5l333 269q-35 9 -64.5 21t-54.5 22t-45 17t-34 7q-16 0 -25.5 -7.5t-9.5 -21.5q0 -15 8 -21.5t17.5 -13
t17.5 -15.5t8 -28t-15 -33t-36 -14q-29 0 -44 19.5t-15 43.5t9.5 47t24.5 44t33.5 38t36.5 28q20 13 34.5 16.5t26.5 2.5q18 -1 45 -9.5t57 -18.5t58 -18.5t48 -8.5q32 0 58 16t46 34l29 -30l-409 -330q31 -8 58.5 -23.5t52 -31t46.5 -27.5t42 -12q35 0 55.5 24t37.5 64
l36 -15q-16 -39 -34.5 -72t-39 -57t-43.5 -37.5t-48 -13.5zM415 638q-28 0 -46.5 18.5t-18.5 46.5q0 29 18.5 47.5t46.5 18.5q27 0 46 -18.5t19 -47.5q0 -28 -19 -46.5t-46 -18.5z" />
    <glyph glyph-name="uni0259" unicode="&#x259;" horiz-adv-x="461" 
d="M312.98 521.968q59.9971 0 99.9941 -36.4971q39.998 -36.498 39.998 -104.494q0 -43.9971 -15.499 -89.9941t-42.498 -89.9951q-26.998 -43.9971 -62.9961 -82.4941q-35.9971 -38.498 -76.4951 -67.4961q-40.4971 -28.998 -82.9951 -45.9971
q-42.4971 -16.999 -83.4951 -16.999q-48.9961 0 -72.9951 20.998q-23.999 20.999 -23.999 55.9971q0 43.9971 21.499 73.4951q21.499 29.499 49.4971 48.4971q21.999 6 52.4971 13.999q30.498 8 63.9961 15.999q33.498 8 66.9961 15.499q33.4971 7.5 61.4961 13.5
q4.99902 20.998 7.49902 42.4971t2.5 42.4971q0 56.9971 -20.999 81.4951q-20.998 24.499 -54.9961 24.499q-37.998 0 -71.9961 -31.498q-33.9971 -31.498 -72.9951 -94.4941l-32.998 17.998q20.999 35.998 45.4971 70.4961q24.499 34.498 54.4971 61.9961t66.4961 43.9971
q36.4971 16.499 82.4941 16.499zM137.991 33.998q22.999 0 45.9971 13.499q22.999 13.499 43.998 37.498q20.998 23.998 38.9971 55.9961t29.998 67.9961q-22.998 -5 -43.4971 -10.499q-20.499 -5.5 -37.498 -11.5q-35.9971 -11.999 -58.4961 -26.498
q-22.498 -14.499 -34.998 -29.498q-12.499 -14.999 -16.999 -30.498q-4.49902 -15.499 -4.49902 -29.498q0 -16.999 9.49902 -26.999q9.49902 -9.99902 27.498 -9.99902z" />
    <glyph glyph-name="uni0410" unicode="&#x410;" horiz-adv-x="773" 
d="M-96 36l39 5q15 2 27 7t25 17t30 32.5t42 53.5l494 638h52l19 -687q1 -31 10.5 -43.5t39.5 -17.5l35 -5l-11 -36h-312l11 36l39 5q31 4 41 15.5t9 39.5l-5 173h-260l-83 -108q-29 -38 -42.5 -60.5t-15 -35t6 -17.5t21.5 -7l36 -5l-12 -36h-247zM488 331l-7 265l-204 -265
h211z" />
    <glyph glyph-name="uni0411" unicode="&#x411;" horiz-adv-x="755" 
d="M803 760l-51 -198h-36l-2 53q-1 30 -8.5 48t-27.5 27.5t-56.5 12.5t-96.5 3h-92q-22 0 -30.5 -4t-12.5 -18l-77 -249h143q122 0 191.5 -42t69.5 -128q0 -54 -25.5 -102t-75.5 -84.5t-123.5 -57.5t-169.5 -21h-373l11 36l39 5q30 4 43.5 15t22.5 40l174 566q9 29 2.5 40
t-34.5 15l-36 5l11 36h314zM217 121q-13 -40 -1.5 -54.5t52.5 -14.5h47q57 0 102 16t76 44t47.5 66.5t16.5 82.5q0 63 -41 91t-132 28h-88z" />
    <glyph glyph-name="uni0412" unicode="&#x412;" horiz-adv-x="742" 
d="M543 758q124 0 187 -36.5t63 -102.5q0 -43 -19.5 -76.5t-51 -58t-72.5 -41t-84 -25.5v-1q30 -4 61 -16.5t56.5 -33.5t41.5 -49.5t16 -64.5q0 -51 -28.5 -97t-79.5 -80.5t-120.5 -55t-151.5 -20.5h-383l12 36l38 5q31 4 44 15t22 40l173 566q9 29 2.5 40t-34.5 15l-36 5
l11 36h333zM469 709q-28 0 -37.5 -3.5t-14.5 -18.5l-79 -256h98q55 0 94.5 16t65 42t37.5 60t12 69q0 43 -30.5 67t-105.5 24h-40zM323 381l-80 -263q-12 -40 -0.5 -55t52.5 -15h38q63 0 109.5 17t78 46.5t47 69t15.5 84.5q0 57 -42.5 86.5t-137.5 29.5h-80z" />
    <glyph glyph-name="uni0413" unicode="&#x413;" horiz-adv-x="681" 
d="M267 662q9 29 2.5 40t-33.5 15l-36 5l11 36h281l306 2l-50 -198h-36l-2 53q-1 30 -8 48t-27.5 27.5t-57.5 12.5t-97 3h-77q-20 0 -26 -20l-181 -590q-9 -29 -2.5 -40t35.5 -13l66 -5l-12 -38h-345l12 36l38 5q31 4 44 15t22 40z" />
    <glyph glyph-name="uni0414" unicode="&#x414;" horiz-adv-x="816" 
d="M705 52l-46 -212h-36v66q0 34 -6.5 53t-27.5 28t-60 11t-104 2h-211q-58 0 -93.5 -3t-60 -13t-42.5 -28.5t-40 -49.5l-47 -66h-35l84 212h63q54 69 99.5 149t82.5 161.5t65 159t48 140.5q9 29 2.5 40t-33.5 15l-37 5l12 36h634l-11 -36l-38 -5q-31 -4 -44 -15t-22 -40
l-168 -546q-11 -38 -0.5 -51t46.5 -13h26zM409 686q-10 -33 -25.5 -79.5t-36.5 -100.5t-46.5 -113.5t-54.5 -119t-62 -116t-68 -105.5h265q28 0 46 2.5t30.5 11t21 25t17.5 45.5l170 550q6 20 -14 20h-217q-11 0 -16.5 -4.5t-9.5 -15.5z" />
    <glyph glyph-name="uni0415" unicode="&#x415;" horiz-adv-x="754" 
d="M511 758l306 2l-50 -198h-36l-1 53q-1 30 -8 48t-27 27.5t-56.5 12.5t-95.5 3h-100q-20 0 -26 -20l-84 -274h127q23 0 39 2t28.5 9t23 21t23.5 38l22 41h36l-86 -281h-36l3 41q2 24 0 38t-10 21t-23 9t-38 2h-127l-66 -217q-9 -29 -10.5 -45.5t6 -25t24 -11t44.5 -2.5h45
q62 0 101 3t66 13t47.5 28t47.5 47l62 68h37l-120 -211h-621l12 36l38 5q31 4 44 15t22 40l173 566q9 29 2.5 40t-34.5 15l-36 5l11 36h301z" />
    <glyph glyph-name="uni0401" unicode="&#x401;" horiz-adv-x="754" 
d="M511 758l306 2l-50 -198h-36l-1 53q-1 30 -8 48t-27 27.5t-56.5 12.5t-95.5 3h-100q-20 0 -26 -20l-84 -274h127q23 0 39 2t28.5 9t23 21t23.5 38l22 41h36l-86 -281h-36l3 41q2 24 0 38t-10 21t-23 9t-38 2h-127l-66 -217q-9 -29 -10.5 -45.5t6 -25t24 -11t44.5 -2.5h45
q62 0 101 3t66 13t47.5 28t47.5 47l62 68h37l-120 -211h-621l12 36l38 5q31 4 44 15t22 40l173 566q9 29 2.5 40t-34.5 15l-36 5l11 36h301zM484 840q-29 0 -48 19t-19 48q0 30 19 49.5t48 19.5t48 -19.5t19 -49.5q0 -29 -19 -48t-48 -19zM720 840q-29 0 -48 19t-19 48
q0 30 19 49.5t48 19.5q28 0 47.5 -19.5t19.5 -49.5q0 -29 -19.5 -48t-47.5 -19z" />
    <glyph glyph-name="uni0416" unicode="&#x416;" horiz-adv-x="1248" 
d="M-71 0l11 36l37 5q23 4 40 14.5t46 33.5l435 354l-129 168q-22 29 -41 48t-36.5 31t-35.5 18t-39 9l-36 5l11 36h267l-11 -36l-33 -4q-35 -3 -23.5 -28.5t54.5 -81.5l160 -209l81 263q9 29 3 40t-35 15l-35 5l11 36h315l-12 -36l-39 -5q-30 -4 -43 -15t-22 -40l-81 -262
l289 208q77 56 105 81.5t-6 28.5l-31 4l11 36h268l-12 -36l-40 -5q-20 -3 -39.5 -9.5t-43 -18.5t-52.5 -31t-67 -47l-259 -187l206 -335q14 -23 24 -33.5t31 -14.5l32 -5l-11 -36h-195l-222 361l-81 -265q-9 -29 -3 -40t35 -15l35 -5l-11 -36h-315l11 36l40 5q29 4 42.5 15
t22.5 40l82 265l-445 -361h-221z" />
    <glyph glyph-name="uni0417" unicode="&#x417;" horiz-adv-x="688" 
d="M411 721q-30 0 -55 -7.5t-48.5 -21.5t-46 -34t-47.5 -44l-66 -65h-36l104 192q45 16 101.5 27t116.5 11q58 0 105.5 -9.5t81.5 -29.5t52 -50t18 -71q0 -42 -22.5 -77t-59 -62.5t-82 -46t-90.5 -26.5l-1 -1q39 -5 72 -16.5t57 -30.5t37 -46.5t13 -63.5q0 -54 -33 -102
t-88.5 -83t-129 -55.5t-154.5 -20.5q-69 0 -126.5 15.5t-96.5 38.5l26 190h36l17 -77q14 -63 50 -86t96 -23q59 0 104.5 18t76 46.5t46.5 64.5t16 71q0 26 -9.5 50t-28 42t-47 28.5t-67.5 10.5h-95l17 58h98q51 0 91 16.5t67 42t41 57t14 61.5q0 22 -7.5 41.5t-23 34.5
t-39 24t-55.5 9z" />
    <glyph glyph-name="uni0418" unicode="&#x418;" horiz-adv-x="947" 
d="M293 0h-315l12 36l39 5q30 4 43 15t22 40l174 566q8 29 2 40t-34 15l-36 5l11 36h315l-12 -36l-38 -5q-31 -4 -44 -15t-22 -40l-132 -432l503 401l9 31q8 29 2 40t-34 15l-36 5l11 36h315l-12 -36l-38 -5q-30 -4 -43.5 -15t-22.5 -40l-173 -566q-9 -29 -2.5 -40t33.5 -15
l37 -5l-12 -36h-314l11 36l39 5q30 4 43 15t22 40l136 443l-503 -402l-13 -41q-9 -29 -2 -40t34 -15l36 -5z" />
    <glyph glyph-name="uni0419" unicode="&#x419;" horiz-adv-x="947" 
d="M293 0h-315l12 36l39 5q30 4 43 15t22 40l174 566q8 29 2 40t-34 15l-36 5l11 36h315l-12 -36l-38 -5q-31 -4 -44 -15t-22 -40l-132 -432l503 401l9 31q8 29 2 40t-34 15l-36 5l11 36h315l-12 -36l-38 -5q-30 -4 -43.5 -15t-22.5 -40l-173 -566q-9 -29 -2.5 -40t33.5 -15
l37 -5l-12 -36h-314l11 36l39 5q30 4 43 15t22 40l136 443l-503 -402l-13 -41q-9 -29 -2 -40t34 -15l36 -5zM644 829q-48 0 -81 12.5t-51 34t-21.5 51t6.5 62.5h100q-7 -23 -9 -43t3 -35t19 -23.5t38 -8.5q52 0 77.5 31t39.5 79h99q-23 -78 -78 -119t-142 -41z" />
    <glyph glyph-name="uni041A" unicode="&#x41a;" horiz-adv-x="865" 
d="M318 363l-82 -267q-9 -29 -2 -40t34 -15l36 -5l-11 -36h-315l12 36l38 5q31 4 44 15t22 40l173 566q9 29 2.5 40t-34.5 15l-36 5l11 36h315l-11 -36l-39 -5q-30 -4 -43 -15t-22 -40l-81 -264l317 210q78 52 112 79t6 30l-52 5l11 36h278l-11 -36l-40 -5q-20 -3 -40 -10
t-44 -20t-53.5 -31.5t-68.5 -44.5l-290 -191l255 -331q17 -22 28 -33.5t32 -14.5l33 -5l-11 -36h-198z" />
    <glyph glyph-name="uni041B" unicode="&#x41b;" horiz-adv-x="804" 
d="M137 88q-21 -30 -41.5 -50t-39 -31t-36 -15.5t-32.5 -4.5q-23 0 -39 15t-16 38q0 25 18.5 45t60.5 34q37 12 62 25.5t49 42.5q21 26 48 79t55 119.5t54 139t46 137.5q10 29 3.5 40t-34.5 15l-36 5l11 36h634l-11 -36l-38 -5q-30 -4 -43.5 -15t-22.5 -40l-174 -566
q-9 -29 -2.5 -40t34.5 -15l35 -5l-11 -36h-314l11 36l39 5q30 4 43.5 15t21.5 40l182 590q6 20 -14 20h-217q-20 0 -26 -20q-20 -65 -47 -143.5t-60 -159.5t-71.5 -158t-81.5 -137z" />
    <glyph glyph-name="uni041C" unicode="&#x41c;" horiz-adv-x="1072" 
d="M321 610l-137 -398q-20 -58 -29.5 -91.5t-10 -50.5t7 -22t21.5 -7l37 -5l-11 -36h-237l11 36l39 5q15 2 26 7t22.5 22t25 50.5t34.5 91.5l159 450q11 29 3.5 40t-35.5 15l-36 5l11 36h219l79 -549l405 549h232l-11 -36l-39 -5q-30 -4 -44 -15t-22 -40l-146 -566
q-8 -29 -0.5 -40t34.5 -15l36 -5l-11 -36h-315l11 36l39 5q31 4 43.5 15t20.5 40l132 514l-455 -618h-18z" />
    <glyph glyph-name="uni041D" unicode="&#x41d;" horiz-adv-x="936" 
d="M293 0h-315l12 36l38 5q31 4 44 15t22 40l173 566q9 29 2.5 40t-34.5 15l-36 5l11 36h315l-11 -36l-39 -5q-30 -4 -43 -15t-22 -40l-77 -248h369l77 248q9 29 2 40t-34 15l-36 5l11 36h315l-11 -36l-40 -5q-30 -4 -43 -15t-22 -40l-173 -566q-9 -29 -2.5 -40t34.5 -15
l36 -5l-11 -36h-315l11 36l39 5q30 4 43 15t22 40l79 257h-369l-79 -257q-9 -29 -2 -40t34 -15l36 -5z" />
    <glyph glyph-name="uni041E" unicode="&#x41e;" horiz-adv-x="908" 
d="M424 -13q-71 0 -134 22.5t-110 64.5t-74 101.5t-27 133.5q0 56 17 113t48.5 109t75.5 97.5t98.5 79t117 52.5t131.5 19q71 0 134 -23t109.5 -65t73.5 -101.5t27 -132.5q0 -56 -17 -113t-48.5 -109t-75.5 -97.5t-98 -79t-117 -52.5t-131 -19zM427 42q54 0 99 21t81.5 57
t64 82.5t46 98t27.5 103.5t9 99q0 112 -52 166.5t-138 54.5q-54 0 -99.5 -21t-82 -57t-63.5 -82.5t-45.5 -98t-27.5 -103.5t-9 -99q0 -113 52 -167t138 -54z" />
    <glyph glyph-name="uni041F" unicode="&#x41f;" horiz-adv-x="897" 
d="M756 686q3 10 1 15t-15 5h-311q-12 0 -17.5 -5t-8.5 -15l-180 -586q-9 -29 -4 -40t34 -14l45 -5l-12 -41h-323l13 41l49 5q29 3 41 14.5t21 40.5l171 556q8 29 3.5 40.5t-33.5 14.5l-45 5l13 41h810l-13 -41l-49 -5q-29 -3 -41.5 -14t-20.5 -40l-171 -558q-9 -29 -4 -40
t33 -14l46 -5l-13 -41h-322l13 41l48 5q29 3 41 14.5t21 40.5z" />
    <glyph glyph-name="uni0420" unicode="&#x420;" horiz-adv-x="762" 
d="M-10 36l38 5q31 4 44 15t22 40l173 566q9 29 2.5 40t-34.5 15l-36 5l11 36h343q57 0 107.5 -9t88 -29t59.5 -52.5t22 -80.5q0 -51 -24 -97.5t-71.5 -81.5t-118.5 -56t-166 -21h-142l-72 -235q-9 -29 -2.5 -40t35.5 -13l66 -5l-12 -38h-345zM323 378h125q60 0 102.5 19.5
t69.5 49.5t39.5 67.5t12.5 73.5q0 66 -38.5 94t-111.5 28h-46q-17 0 -27.5 -1t-17 -3.5t-9.5 -7.5t-5 -12z" />
    <glyph glyph-name="uni0421" unicode="&#x421;" horiz-adv-x="799" 
d="M424 -13q-78 0 -142.5 22.5t-110 63t-70.5 97.5t-25 126q0 105 46.5 194t124 153t177 100t205.5 36q67 0 121 -9t92 -25l-15 -191h-36l-22 72q-17 57 -57.5 75.5t-105.5 18.5q-63 0 -129 -26t-120 -79t-88.5 -132.5t-34.5 -185.5q0 -65 17 -112.5t46.5 -78.5t69.5 -46
t87 -15q31 0 57 6t50 19t48 32t51 46l70 69h36l-103 -191q-50 -17 -107 -28t-132 -11z" />
    <glyph glyph-name="uni0422" unicode="&#x422;" horiz-adv-x="782" 
d="M144 38l68 5q29 2 42.5 13t22.5 40l186 610h-16q-60 0 -99 -2.5t-65.5 -11.5t-45 -27t-37.5 -48l-34 -55h-36l73 198l267 -2h162l266 2l-46 -198h-36l-1 55q0 30 -8 48t-29 27t-58.5 11.5t-97.5 2.5h-16l-187 -610q-9 -29 -2.5 -40t35.5 -13l66 -5l-12 -38h-375z" />
    <glyph glyph-name="uni0423" unicode="&#x423;" horiz-adv-x="783" 
d="M362 116q-55 -66 -99 -97.5t-86 -31.5q-29 0 -44.5 14.5t-15.5 37.5q0 28 20 48t62 28q22 5 43 10t40 13t36.5 20t33.5 31l-117 467q-3 14 -6.5 24.5t-9 18t-14.5 12t-24 6.5l-36 5l11 36h331l-11 -36l-39 -5q-32 -4 -48 -16t-9 -39l84 -340l230 275q29 35 43.5 57.5
t17 36t-5 19t-21.5 7.5l-36 5l11 36h241l-11 -36l-23 -3q-20 -3 -34.5 -9t-29.5 -18.5t-32.5 -33t-43.5 -51.5z" />
    <glyph glyph-name="uni0424" unicode="&#x424;" horiz-adv-x="1047" 
d="M579 683q8 29 2 40t-34 15l-36 5l12 36h314l-11 -36l-39 -5q-30 -4 -43.5 -15t-21.5 -40l-4 -12q71 -3 131 -18t104 -44t69 -71.5t25 -100.5q0 -74 -37 -135.5t-104 -106.5t-160.5 -71t-205.5 -29l-6 -19q-9 -29 -2 -40t34 -15l36 -5l-11 -36h-314l11 36l38 5q31 4 44 15
t22 40l6 19q-71 3 -131.5 18t-104.5 44t-69 71.5t-25 100.5q0 75 37.5 136.5t104.5 106t160 70.5t205 29zM232 330q0 -87 49.5 -129.5t133.5 -48.5l143 463q-53 -2 -110.5 -17t-105.5 -48t-79 -87t-31 -133zM883 436q0 88 -49 129.5t-133 48.5l-144 -463q53 2 110.5 17.5
t105.5 48.5t79 87t31 132z" />
    <glyph glyph-name="uni0425" unicode="&#x425;" horiz-adv-x="827" 
d="M-71 36l38 5q21 3 38.5 9.5t38.5 21.5t49 39t70 62l235 208l-121 275q-12 28 -24.5 42.5t-39.5 18.5l-36 5l12 36h322l-12 -36l-39 -5q-30 -4 -38 -17.5t3 -37.5l81 -185l123 109q45 40 70 64.5t32.5 38.5t0 20t-27.5 9l-27 4l12 36h267l-12 -36l-38 -5q-21 -3 -38.5 -10
t-38.5 -21.5t-49 -39t-70 -61.5l-181 -160l143 -323q12 -28 24 -42.5t40 -18.5l36 -5l-12 -36h-322l12 36l38 5q31 4 39 17.5t-3 37.5l-103 233l-178 -157q-45 -40 -69.5 -64.5t-32 -38.5t0 -20t27.5 -9l27 -4l-12 -36h-267z" />
    <glyph glyph-name="uni0426" unicode="&#x426;" horiz-adv-x="925" 
d="M-22 0l12 36l38 5q31 4 44 15t22 40l174 566q9 29 2.5 40t-33.5 15l-37 5l11 36h315l-11 -36l-39 -5q-30 -4 -43 -15t-22 -40l-162 -526q-9 -29 -10.5 -45.5t6 -25t24 -11t44.5 -2.5h170q28 0 46 2.5t30.5 11t21 25t17.5 45.5l162 526q9 29 2 40t-34 15l-36 5l11 36h315
l-11 -36l-39 -5q-15 -2 -25.5 -5.5t-18 -9.5t-12.5 -15.5t-9 -24.5l-169 -546q-11 -38 -0.5 -51t47.5 -13h26l-46 -212h-37v66q0 34 -6.5 53t-27.5 28t-60 11t-104 2h-548z" />
    <glyph glyph-name="uni0427" unicode="&#x427;" horiz-adv-x="869" 
d="M247 662q9 29 3 40t-35 15l-35 5l11 36h315l-11 -36l-40 -5q-29 -4 -42.5 -15t-22.5 -40l-30 -99q-18 -57 -17 -94t17 -59t46 -31t71 -9q45 0 80 5t70 13l84 274q9 29 3 40t-35 15l-35 5l11 36h315l-11 -36l-40 -5q-29 -4 -42.5 -15t-22.5 -40l-174 -566q-9 -29 -3 -40
t35 -15l35 -5l-11 -36h-321l12 36l45 5q30 4 43 15t22 40l73 237q-38 -11 -83 -19t-109 -8q-67 0 -114 15.5t-72.5 47.5t-29 82.5t17.5 119.5z" />
    <glyph glyph-name="uni0428" unicode="&#x428;" horiz-adv-x="1240" 
d="M-10 36l39 5q30 4 43.5 15t22.5 40l173 566q9 29 3 40t-34 15l-36 5l11 36h312l-12 -36l-36 -5q-29 -5 -42.5 -15.5t-22.5 -39.5l-161 -526q-9 -29 -10.5 -45.5t5.5 -25t23.5 -11t44.5 -2.5h175l187 610q9 29 2.5 39.5t-34.5 15.5l-32 5l12 36h307l-11 -36l-36 -5
q-29 -5 -42.5 -15.5t-22.5 -39.5l-188 -610h175q28 0 46 2.5t30.5 11t21 25t17.5 45.5l162 526q9 29 2.5 39.5t-34.5 15.5l-32 5l11 36h311l-11 -36l-39 -5q-30 -4 -43.5 -15t-22.5 -40l-173 -566q-9 -29 -3 -40t34 -15l36 -5l-12 -36h-1128z" />
    <glyph glyph-name="uni0429" unicode="&#x429;" horiz-adv-x="1246" 
d="M1056 116q-11 -38 -0.5 -51t47.5 -13h26l-47 -212h-36v66q0 34 -6.5 53t-27.5 28t-60 11t-104 2h-870l12 36l38 5q31 4 44 15t22 40l174 566q9 29 2.5 40t-33.5 15l-37 5l11 36h312l-11 -36l-36 -5q-15 -2 -25.5 -5.5t-17.5 -9.5t-12.5 -15.5t-9.5 -24.5l-162 -526
q-9 -29 -10.5 -45.5t6 -25t24 -11t44.5 -2.5h174l188 610q9 29 2.5 39.5t-34.5 15.5l-32 5l11 36h307l-11 -36l-35 -5q-15 -2 -25.5 -5.5t-17.5 -9.5t-12.5 -15.5t-9.5 -24.5l-188 -610h175q27 0 45 2.5t30.5 11t21 25t17.5 45.5l162 526q10 29 3 39.5t-34 15.5l-33 5l11 36
h311l-11 -36l-38 -5q-31 -4 -44 -15t-22 -40z" />
    <glyph glyph-name="uni042A" unicode="&#x42a;" horiz-adv-x="911" 
d="M118 36l40 5q29 4 42 15t23 40l186 609h-2q-47 0 -78 -3.5t-53.5 -13.5t-38.5 -27t-33 -44l-35 -55h-36l73 199l293 -3h173l-11 -36l-56 -5q-30 -2 -43.5 -14t-22.5 -41l-66 -214h132q123 0 195.5 -46.5t72.5 -139.5q0 -62 -31 -110.5t-84.5 -82.5t-126 -51.5
t-155.5 -17.5h-369zM373 121q-13 -40 -1 -54.5t52 -14.5h45q57 0 102.5 15t77 42.5t48 66t16.5 85.5q0 63 -42 94.5t-133 31.5h-83z" />
    <glyph glyph-name="uni042B" unicode="&#x42b;" horiz-adv-x="1127" 
d="M533 722l-57 -5q-29 -2 -42.5 -14t-22.5 -41l-66 -214h131q124 0 196.5 -46.5t72.5 -139.5q0 -62 -31 -110.5t-84.5 -82.5t-126 -51.5t-155.5 -17.5h-370l12 36l39 5q30 4 43.5 15t22.5 40l173 566q9 29 3 40t-34 15l-36 5l11 36h332zM245 121q-13 -40 -1.5 -54.5
t52.5 -14.5h45q57 0 102 15t76.5 42.5t48.5 66t17 85.5q0 63 -42.5 94.5t-133.5 31.5h-83zM970 662q9 29 2.5 40t-34.5 15l-36 5l11 36h315l-11 -36l-39 -5q-30 -4 -43 -15t-22 -40l-174 -566q-9 -29 -2 -40t34 -15l36 -5l-11 -36h-315l12 36l38 5q31 4 44 15t22 40z" />
    <glyph glyph-name="uni042C" unicode="&#x42c;" horiz-adv-x="783" 
d="M533 722l-57 -5q-29 -2 -42.5 -14t-22.5 -41l-66 -214h131q124 0 196.5 -46.5t72.5 -139.5q0 -62 -31 -110.5t-84.5 -82.5t-126 -51.5t-155.5 -17.5h-370l12 36l39 5q30 4 43.5 15t22.5 40l173 566q9 29 3 40t-34 15l-36 5l11 36h332zM245 121q-13 -40 -1.5 -54.5
t52.5 -14.5h45q57 0 102 15t76.5 42.5t48.5 66t17 85.5q0 63 -42.5 94.5t-133.5 31.5h-83z" />
    <glyph glyph-name="uni042D" unicode="&#x42d;" horiz-adv-x="824" 
d="M479 779q78 0 142.5 -22.5t110 -63t70.5 -97.5t25 -126q0 -105 -46 -194t-122.5 -153t-175 -100t-203.5 -36q-66 0 -122.5 9t-94.5 25l15 192h35l21 -67q9 -29 22 -48t33 -30.5t47.5 -16.5t66.5 -5q53 0 108 19t104 57t86.5 95t54.5 134h-215q-23 0 -39 -2t-28.5 -8.5
t-23 -20.5t-23.5 -38l-21 -42h-36l86 282h36l-4 -41q-2 -24 0 -38t10 -21t23 -9t38 -2h207q3 28 3 58q0 65 -17 112.5t-46 78.5t-69 46t-86 15q-32 0 -57 -6.5t-48.5 -19t-46.5 -32t-50 -45.5l-70 -69h-36l103 191q49 17 103.5 28t129.5 11z" />
    <glyph glyph-name="uni042E" unicode="&#x42e;" horiz-adv-x="1247" 
d="M293 0h-315l12 36l38 5q31 4 44 15t22 40l173 566q8 29 2 40t-34 15l-36 5l11 36h315l-11 -36l-39 -5q-30 -4 -43.5 -15t-21.5 -40l-77 -248h119q19 71 62.5 137t104 116.5t136.5 81t161 30.5q69 0 130 -23t106.5 -65t72 -101.5t26.5 -132.5q0 -56 -17 -113t-47.5 -109
t-74 -97.5t-96.5 -79t-114.5 -52.5t-128.5 -19q-69 0 -130 22.5t-106.5 64.5t-72 101.5t-26.5 133.5q0 21 3 44h-126l-79 -257q-9 -29 -2 -40t34 -15l36 -5zM776 42q53 0 96.5 21t79 57t62 82.5t44 98t26.5 103.5t9 99q0 113 -49 167t-131 54q-52 0 -96 -21t-79.5 -57
t-62 -82.5t-44 -98t-26.5 -103.5t-9 -99q0 -113 49 -167t131 -54z" />
    <glyph glyph-name="uni042F" unicode="&#x42f;" horiz-adv-x="841" 
d="M-53 0l11 36l38 7q30 6 47 16.5t31 23.5l289 268q-72 16 -111 60t-39 102q0 46 25 90.5t73 78.5t118.5 55t161.5 21h351l-12 -36l-39 -5q-30 -4 -43 -15t-22 -40l-174 -566q-10 -30 -3 -40.5t35 -14.5l35 -5l-11 -36h-315l11 36l40 5q29 4 42.5 15t22.5 40l73 236h-71
l-354 -332h-210zM691 687q4 14 -2.5 18.5t-39.5 4.5h-31q-63 0 -110 -17t-78.5 -45t-47 -63.5t-15.5 -72.5q0 -28 9 -52.5t27.5 -42.5t47.5 -28.5t69 -10.5q10 0 22.5 0.5t23.5 1t19.5 1t10.5 0.5z" />
    <glyph glyph-name="uni0402" unicode="&#x402;" horiz-adv-x="925" 
d="M109 38l69 5q29 2 42.5 13t22.5 40l186 610h-10q-58 0 -95.5 -2.5t-63 -12t-44 -27t-37.5 -47.5l-34 -55h-36l73 198l260 -2h162l273 2l-46 -198h-36l-1 55q0 30 -8.5 48t-30 27t-60.5 11.5t-100 2.5h-23l-97 -316q50 32 111.5 56t132.5 24q53 0 92 -16t61 -46.5
t25.5 -76t-14.5 -104.5l-10 -30q-11 -36 -24 -61.5t-30 -46t-41 -39t-57 -40.5q-15 -10 -38.5 -24.5t-50.5 -30t-55 -32t-52 -29.5l-15 36q53 36 89 65t60 57.5t39.5 60.5t28.5 73l12 39q26 82 5.5 124.5t-103.5 42.5q-54 0 -102 -16t-81 -41l-73 -239q-9 -29 -2.5 -40
t35.5 -13l66 -5l-12 -38h-375z" />
    <glyph glyph-name="uni0403" unicode="&#x403;" horiz-adv-x="681" 
d="M267 662q9 29 2.5 40t-33.5 15l-36 5l11 36h281l306 2l-50 -198h-36l-2 53q-1 30 -8 48t-27.5 27.5t-57.5 12.5t-97 3h-77q-20 0 -26 -20l-181 -590q-9 -29 -2.5 -40t35.5 -13l66 -5l-12 -38h-345l12 36l38 5q31 4 44 15t22 40zM809 969l-295 -126h-24l134 129h186z" />
    <glyph glyph-name="uni0404" unicode="&#x404;" horiz-adv-x="799" 
d="M424 -13q-78 0 -142.5 22.5t-110 63t-70.5 97.5t-25 126q0 105 46.5 194t124 153t177 100t205.5 36q67 0 121 -9t92 -25l-15 -191h-36l-22 72q-17 57 -57.5 75.5t-105.5 18.5q-54 0 -110.5 -19t-106 -57.5t-87.5 -96.5t-56 -135h192q23 0 39 2t28.5 9t23 21t23.5 38
l21 41h36l-86 -281h-36l4 41q2 24 0 38t-10 21t-23 9t-38 2h-183q-3 -27 -3 -56q0 -65 17 -112.5t46.5 -78.5t69.5 -46t87 -15q31 0 57 6t50 19t48 32t51 46l70 69h36l-103 -191q-50 -17 -107 -28t-132 -11z" />
    <glyph glyph-name="uni0405" unicode="&#x405;" horiz-adv-x="636" 
d="M203 -13q-55 0 -106.5 14t-86.5 32l39 219h36l21 -133q3 -17 8.5 -31t15.5 -23q16 -14 42 -19t61 -5q41 0 75.5 11t59 30.5t38.5 46.5t14 60q0 40 -20 68.5t-58 60.5l-62 53q-91 78 -91 170q0 51 25 94.5t69.5 75.5t105.5 50t133 18q56 0 98 -9.5t75 -21.5l-42 -187h-36
l-12 78q-5 28 -12.5 44.5t-23.5 26.5q-14 8 -33 12t-40 4q-78 0 -125 -35.5t-47 -93.5q0 -28 12.5 -54.5t42.5 -52.5l62 -53q28 -24 51 -45.5t39 -44t25 -48t9 -58.5q0 -54 -25 -100t-72 -80.5t-114 -54t-151 -19.5z" />
    <glyph glyph-name="uni0406" unicode="&#x406;" horiz-adv-x="425" 
d="M267 662q9 29 2.5 40t-34.5 15l-36 5l11 36h315l-11 -36l-39 -5q-30 -4 -43 -15t-22 -40l-174 -566q-9 -29 -2 -40t34 -15l36 -5l-11 -36h-315l12 36l38 5q31 4 44 15t22 40z" />
    <glyph glyph-name="uni0407" unicode="&#x407;" horiz-adv-x="425" 
d="M267 662q9 29 2.5 40t-34.5 15l-36 5l11 36h315l-11 -36l-39 -5q-30 -4 -43 -15t-22 -40l-174 -566q-9 -29 -2 -40t34 -15l36 -5l-11 -36h-315l12 36l38 5q31 4 44 15t22 40zM299 840q-29 0 -48 19t-19 48q0 30 19 49.5t48 19.5t48 -19.5t19 -49.5q0 -29 -19 -48t-48 -19
zM535 840q-29 0 -48 19t-19 48q0 30 19 49.5t48 19.5q28 0 47.5 -19.5t19.5 -49.5q0 -29 -19.5 -48t-47.5 -19z" />
    <glyph glyph-name="uni0408" unicode="&#x408;" horiz-adv-x="416" 
d="M278 206q-12 -39 -27.5 -67.5t-35 -50.5t-44 -40.5t-54.5 -38.5q-17 -11 -40 -25t-48.5 -29.5t-52 -31t-50.5 -28.5l-19 35q52 36 88 63.5t61.5 56t43 62.5t32.5 83l143 467q9 29 2 40t-34 15l-36 5l11 36h315l-11 -36l-40 -5q-30 -4 -43 -15t-22 -40z" />
    <glyph glyph-name="uni0409" unicode="&#x409;" horiz-adv-x="1140" 
d="M884 758l-11 -36l-38 -5q-30 -4 -43.5 -15t-22.5 -40l-67 -214h132q124 0 196.5 -46.5t72.5 -139.5q0 -62 -31 -110.5t-84.5 -82.5t-126 -51.5t-155.5 -17.5h-370l12 36l39 5q29 4 42.5 15t22.5 40l182 590q6 20 -14 20h-197q-20 0 -26 -20q-20 -65 -47 -143.5
t-60 -159.5t-71.5 -158t-81.5 -137q-21 -30 -41.5 -50t-39 -31t-36 -15.5t-32.5 -4.5q-23 0 -39 15t-16 38q0 25 18.5 45t60.5 34q37 12 62 25.5t49 42.5q21 26 48 79t55 119.5t54 139t46 137.5q10 29 3.5 40t-34.5 15l-36 5l11 36h614zM602 121q-12 -40 -0.5 -54.5
t52.5 -14.5h44q57 0 102.5 15t77 42.5t48 66t16.5 85.5q0 63 -42 94.5t-133 31.5h-83z" />
    <glyph glyph-name="uni040A" unicode="&#x40a;" horiz-adv-x="1254" 
d="M293 0h-315l12 36l39 5q30 4 43 15t22 40l174 566q8 29 2 40t-34 15l-36 5l11 36h315l-12 -36l-38 -5q-31 -4 -44 -15t-22 -40l-72 -235h327l72 235q9 29 3 40t-35 15l-35 5l11 36h332l-12 -36l-56 -5q-29 -2 -42.5 -14t-22.5 -41l-73 -235h138q62 0 112 -10.5
t85.5 -32.5t54.5 -55t19 -78q0 -60 -32.5 -106.5t-87 -79t-126.5 -49t-150 -16.5h-373l12 36l39 5q29 4 42.5 15t22.5 40l83 270h-326l-84 -270q-9 -29 -2 -40t34 -15l36 -5zM714 121q-13 -40 -1.5 -54.5t52.5 -14.5h47q56 0 101 15.5t77 42t49 62t17 76.5q0 60 -42.5 89
t-136.5 29h-88z" />
    <glyph glyph-name="uni040B" unicode="&#x40b;" horiz-adv-x="992" 
d="M109 38l69 5q29 2 42.5 13t22.5 40l186 610h-10q-58 0 -95.5 -2.5t-63 -12t-44 -27t-37.5 -47.5l-34 -55h-36l73 198l260 -2h162l273 2l-46 -198h-36l-1 55q0 30 -8.5 48t-30 27t-60.5 11.5t-100 2.5h-23l-95 -311q48 31 107.5 53t128.5 22q48 0 88 -13t64 -41t30 -72
t-13 -107l-42 -141q-8 -27 -3.5 -39t32.5 -14l59 -5l-11 -38h-250l69 225q13 41 14.5 72.5t-10 52.5t-38 31.5t-70.5 10.5q-50 0 -96 -17t-77 -37l-74 -242q-9 -29 -2.5 -40t35.5 -13l66 -5l-12 -38h-375z" />
    <glyph glyph-name="uni040C" unicode="&#x40c;" horiz-adv-x="865" 
d="M318 363l-82 -267q-9 -29 -2 -40t34 -15l36 -5l-11 -36h-315l12 36l38 5q31 4 44 15t22 40l173 566q9 29 2.5 40t-34.5 15l-36 5l11 36h315l-11 -36l-39 -5q-30 -4 -43 -15t-22 -40l-81 -264l317 210q78 52 112 79t6 30l-52 5l11 36h278l-11 -36l-40 -5q-20 -3 -40 -10
t-44 -20t-53.5 -31.5t-68.5 -44.5l-290 -191l255 -331q17 -22 28 -33.5t32 -14.5l33 -5l-11 -36h-198zM899 969l-295 -126h-24l134 129h186z" />
    <glyph glyph-name="uni040E" unicode="&#x40e;" horiz-adv-x="783" 
d="M362 116q-55 -66 -99 -97.5t-86 -31.5q-29 0 -44.5 14.5t-15.5 37.5q0 28 20 48t62 28q22 5 43 10t40 13t36.5 20t33.5 31l-117 467q-3 14 -6.5 24.5t-9 18t-14.5 12t-24 6.5l-36 5l11 36h331l-11 -36l-39 -5q-32 -4 -48 -16t-9 -39l84 -340l230 275q29 35 43.5 57.5
t17 36t-5 19t-21.5 7.5l-36 5l11 36h241l-11 -36l-23 -3q-20 -3 -34.5 -9t-29.5 -18.5t-32.5 -33t-43.5 -51.5zM585 829q-48 0 -81 12.5t-51 34t-21.5 51t6.5 62.5h100q-7 -23 -9 -43t3 -35t19 -23.5t38 -8.5q52 0 77.5 31t39.5 79h99q-23 -78 -78 -119t-142 -41z" />
    <glyph glyph-name="uni040F" unicode="&#x40f;" horiz-adv-x="917" 
d="M615 0q-62 0 -100 -2t-63 -11t-40.5 -28t-31.5 -53l-30 -66h-35l9 66q5 34 1 53t-23 28t-56 11t-98 2h-170l12 36l38 5q31 4 44 15t22 40l174 566q9 29 2.5 40t-33.5 15l-37 5l11 36h315l-11 -36l-39 -5q-30 -4 -43 -15t-22 -40l-162 -526q-9 -29 -10.5 -45.5t6 -25
t24 -11t44.5 -2.5h170q28 0 46 2.5t30.5 11t21 25t17.5 45.5l162 526q9 29 2 40t-34 15l-36 5l11 36h315l-11 -36l-39 -5q-15 -2 -25.5 -5.5t-18 -9.5t-12.5 -15.5t-9 -24.5l-175 -566q-9 -29 -2.5 -40t34.5 -15l36 -5l-11 -36h-170z" />
    <glyph glyph-name="uni0490" unicode="&#x490;" horiz-adv-x="701" 
d="M444 706q-20 0 -26 -20l-182 -590q-9 -29 -2.5 -40t35.5 -13l65 -5l-11 -38h-345l12 36l38 5q31 4 44 15t22 40l174 566q9 29 2.5 40t-33.5 15l-37 5l11 36h308q65 0 105.5 2t67 11t45 28t38.5 53l40 66h36l-84 -212h-323z" />
    <glyph glyph-name="uni0462" unicode="&#x462;" horiz-adv-x="845" 
d="M467 576l-62 -200h134q56 0 105 -8.5t85 -27t57 -49.5t21 -76q0 -43 -28 -82t-78.5 -68.5t-121.5 -47t-157 -17.5h-363l11 36l40 5q29 4 42.5 15t22.5 40l150 480h-10q-48 0 -79 -3t-53 -12t-39 -26.5t-37 -47.5l-32 -48h-36l73 191l220 -2h9l11 34q9 29 3 40t-34 15
l-36 5l11 36h312l-11 -36l-37 -5q-15 -2 -25.5 -5.5t-18 -9.5t-13 -15.5t-9.5 -24.5l-11 -34h11l221 2l-47 -191h-36l-2 48q-2 30 -7.5 47.5t-21.5 26.5t-45.5 12t-77.5 3h-11zM325 121q-12 -40 -0.5 -54.5t51.5 -14.5h39q44 0 85.5 10t74 30.5t52 50.5t19.5 70
q0 30 -13 49.5t-37 31t-57.5 16.5t-73.5 5h-79z" />
    <glyph glyph-name="uni0472" unicode="&#x472;" horiz-adv-x="908" 
d="M424 -13q-71 0 -134 22.5t-110 64.5t-74 101.5t-27 133.5q0 56 17 113t48.5 109t75.5 97.5t98.5 79t117 52.5t131.5 19q71 0 134 -23t109.5 -65t73.5 -101.5t27 -132.5q0 -56 -17 -113t-48.5 -109t-75.5 -97.5t-98 -79t-117 -52.5t-131 -19zM254 402q79 32 135 40.5
t97 3.5t71.5 -17.5t58.5 -23t58 -13.5t70 11q5 26 7.5 51t2.5 49q0 112 -52 166.5t-138 54.5q-63 0 -113.5 -28t-89.5 -73t-65.5 -103t-41.5 -118zM427 42q61 0 111 27t88.5 71t65.5 100t42 115q-77 -32 -128 -39.5t-88 -1.5t-64.5 19.5t-56 24t-64.5 12t-89 -16.5
q-4 -23 -5.5 -46t-1.5 -44q0 -113 52 -167t138 -54z" />
    <glyph glyph-name="uni0474" unicode="&#x474;" horiz-adv-x="827" 
d="M295 -28h-52l-19 684q-2 31 -11 43.5t-38 17.5l-36 5l12 36h312l-11 -36l-40 -5q-30 -4 -40 -15.5t-9 -39.5l13 -497l369 478q22 28 44.5 53t46.5 43.5t50 29t55 10.5q31 0 47.5 -15.5t16.5 -39.5q0 -29 -21.5 -45t-50.5 -24q-26 -8 -50.5 -14.5t-47.5 -17t-45.5 -28
t-45.5 -45.5z" />
    <glyph glyph-name="uni0492" unicode="&#x492;" horiz-adv-x="675" 
d="M261 662q9 29 2.5 40t-33.5 15l-36 5l11 36h281l306 2l-50 -198h-36l-2 53q-1 30 -8 48t-27.5 27.5t-57.5 12.5t-97 3h-77q-20 0 -26 -20l-181 -590q-9 -29 -2.5 -40t35.5 -13l66 -5l-12 -38h-345l12 36l38 5q31 4 44 15t22 40zM89 415h391l-18 -61h-391z" />
    <glyph glyph-name="uni0496" unicode="&#x496;" horiz-adv-x="1268" 
d="M-71 0l11 36l37 5q23 4 40 14.5t46 33.5l435 354l-129 168q-22 29 -41 48t-36.5 31t-35.5 18t-39 9l-36 5l11 36h267l-11 -36l-33 -4q-35 -3 -23.5 -28.5t54.5 -81.5l160 -209l81 263q9 29 3 40t-35 15l-35 5l11 36h315l-12 -36l-39 -5q-30 -4 -43 -15t-22 -40l-81 -262
l289 208q77 56 105 81.5t-6 28.5l-31 4l11 36h268l-12 -36l-40 -5q-20 -3 -39.5 -9.5t-43 -18.5t-52.5 -31t-67 -47l-259 -187l206 -335q11 -18 24 -27.5t40 -9.5h50l-46 -212h-36v66q0 33 -5 51.5t-21 28t-46 12t-79 2.5l-222 361l-81 -265q-9 -29 -3 -40t35 -15l35 -5
l-11 -36h-315l11 36l40 5q29 4 42.5 15t22.5 40l82 265l-445 -361h-221z" />
    <glyph glyph-name="uni049A" unicode="&#x49a;" horiz-adv-x="885" 
d="M318 363l-82 -267q-9 -29 -2 -40t34 -15l36 -5l-11 -36h-315l12 36l38 5q31 4 44 15t22 40l173 566q8 29 2 40t-34 15l-36 5l11 36h315l-11 -36l-39 -5q-30 -4 -43.5 -15t-21.5 -40l-81 -264l317 210q78 51 112 78.5t6 30.5l-52 5l11 36h278l-11 -36l-40 -5
q-20 -3 -40 -10t-44 -20t-53.5 -31.5t-68.5 -44.5l-290 -191l255 -331q13 -17 25 -27t42 -10h50l-46 -212h-36l-1 66q0 33 -5 51.5t-21 28t-45.5 12t-78.5 2.5z" />
    <glyph glyph-name="uni04A2" unicode="&#x4a2;" horiz-adv-x="944" 
d="M490 0l11 36l39 5q30 4 43 15t22 40l79 257h-369l-79 -257q-9 -29 -2 -40t34 -15l36 -5l-11 -36h-315l12 36l38 5q31 4 44 15t22 40l173 566q9 29 2.5 40t-33.5 15l-36 5l11 36h314l-11 -36l-38 -5q-31 -4 -44 -15t-22 -40l-76 -248h369l76 248q9 29 2.5 40t-34.5 15
l-36 5l11 36h315l-11 -36l-39 -5q-30 -4 -43 -15t-22 -40l-169 -549q-11 -35 0.5 -48t47.5 -13h26l-46 -212h-37l1 66q0 34 -7 53t-28 28t-60 11t-104 2h-56z" />
    <glyph glyph-name="uni04AE" unicode="&#x4ae;" horiz-adv-x="790" 
d="M142 38l69 5q29 2 42.5 13t22.5 40l74 243l-126 317q-5 13 -9 23.5t-9 18t-13 12.5t-21 7l-36 5l11 36h325l-11 -36l-39 -5q-31 -4 -44 -17t-3 -38l102 -261l202 196q33 32 51 54t23.5 36t0 21t-18.5 9l-36 5l11 36h249l-12 -36l-36 -5q-15 -2 -27.5 -8t-27.5 -18.5
t-35.5 -32.5t-52.5 -51l-275 -267l-75 -244q-9 -29 -2.5 -40t35.5 -13l66 -5l-12 -38h-375z" />
    <glyph glyph-name="uni04B0" unicode="&#x4b0;" horiz-adv-x="790" 
d="M142 38l69 5q29 2 42.5 13t22.5 40l74 243l-126 317q-5 13 -9 23.5t-9 18t-13 12.5t-21 7l-36 5l11 36h325l-11 -36l-39 -5q-31 -4 -44 -17t-3 -38l102 -261l202 196q33 32 51 54t23.5 36t0 21t-18.5 9l-36 5l11 36h249l-12 -36l-36 -5q-15 -2 -27.5 -8t-27.5 -18.5
t-35.5 -32.5t-52.5 -51l-275 -267l-75 -244q-9 -29 -2.5 -40t35.5 -13l66 -5l-12 -38h-375zM170 341h503l-19 -61h-502z" />
    <glyph glyph-name="uni04B2" unicode="&#x4b2;" horiz-adv-x="841" 
d="M-71 36l38 5q21 3 38.5 9.5t38.5 21.5t49 39t70 62l235 208l-121 275q-12 28 -24.5 42.5t-39.5 18.5l-36 5l12 36h322l-12 -36l-39 -5q-30 -4 -38 -17.5t3 -37.5l81 -185l123 109q45 40 70 65t32.5 39t0 20t-27.5 8l-27 4l12 36h267l-12 -36l-38 -5q-21 -3 -38.5 -9.5
t-38.5 -21.5t-49 -39.5t-70 -61.5l-181 -160l143 -323q12 -27 24.5 -38.5t39.5 -11.5h49l-46 -212h-36v66q0 33 -5 51.5t-21.5 28t-46.5 12t-81 2.5h-111l12 36l38 5q31 4 39 17.5t-3 37.5l-103 233l-178 -157q-45 -40 -69.5 -64.5t-32 -38.5t0 -20t27.5 -9l27 -4l-12 -36
h-267z" />
    <glyph glyph-name="uni04B6" unicode="&#x4b6;" horiz-adv-x="877" 
d="M415 0l12 36l45 5q30 4 43 15t22 40l73 237q-38 -11 -83 -19t-109 -8q-67 0 -114 15.5t-72.5 47.5t-29 82.5t17.5 119.5l27 91q9 29 3 40t-35 15l-35 5l11 36h315l-11 -36l-40 -5q-29 -4 -42.5 -15t-22.5 -40l-30 -99q-18 -57 -17 -94t17 -59t46 -31t71 -9q45 0 80 5
t70 13l84 274q9 29 3 40t-35 15l-35 5l11 36h315l-11 -36l-40 -5q-29 -4 -42.5 -15t-22.5 -40l-168 -546q-11 -38 0 -51t47 -13h26l-46 -212h-36v66q0 34 -6.5 53t-27.5 28t-60.5 11t-104.5 2h-63z" />
    <glyph glyph-name="uni04BA" unicode="&#x4ba;" horiz-adv-x="862" 
d="M700.957 95.9941q-8.99902 -28.998 -3 -39.998q6 -10.999 34.998 -14.999l34.998 -4.99902l-10.999 -35.998h-314.981l11 35.998l39.9971 4.99902q28.998 4 42.498 14.999q13.499 11 22.498 39.998l29.998 98.9941q17.999 56.9961 16.999 93.9941t-16.999 58.9961
q-15.999 21.999 -45.9971 30.998q-29.998 9 -70.9951 9q-44.998 0 -79.9951 -5q-34.998 -5 -69.9961 -12.999l-83.9951 -273.983q-8.99902 -28.998 -3 -39.998q6 -10.999 34.998 -14.999l34.998 -4.99902l-10.999 -35.998h-314.981l11 35.998l39.9971 4.99902
q28.998 4 42.498 14.999q13.499 11 22.498 39.998l173.989 565.966q9 28.998 3 39.9971t-34.998 14.999l-34.998 5l11 35.998h320.98l-12 -35.998l-44.9971 -5q-29.998 -4 -42.9971 -14.999t-21.999 -39.9971l-72.9951 -236.986q37.9971 11 82.9951 18.999
q44.9971 8 108.993 8q66.9961 0 113.993 -15.499t72.4951 -47.4971q25.499 -31.998 28.998 -82.4951q3.5 -50.4971 -17.499 -119.493z" />
    <glyph glyph-name="uni04C0" unicode="&#x4c0;" horiz-adv-x="425" 
d="M267 662q9 29 2.5 40t-34.5 15l-36 5l11 36h315l-11 -36l-39 -5q-30 -4 -43 -15t-22 -40l-174 -566q-9 -29 -2 -40t34 -15l36 -5l-11 -36h-315l12 36l38 5q31 4 44 15t22 40z" />
    <glyph glyph-name="uni04D8" unicode="&#x4d8;" horiz-adv-x="801" 
d="M368 -11q-71 0 -128.5 23t-97 65t-59.5 100.5t-15 128.5h591q12 51 12 103q0 66 -17.5 116.5t-49 85t-76.5 52.5t-99 18q-86 0 -155.5 -45.5t-118.5 -115.5l-43 28q22 41 56.5 82.5t81 74.5t106.5 54t133 21q66 0 124 -22t100.5 -64t67 -104t24.5 -141q0 -89 -35 -172
t-94.5 -147t-139 -102.5t-168.5 -38.5zM383 42q48 0 89 16.5t73.5 44.5t57 66t40.5 81h-427q-8 -98 36 -153t131 -55z" />
    <glyph glyph-name="uni04E2" unicode="&#x4e2;" horiz-adv-x="947" 
d="M293 0h-315l12 36l39 5q30 4 43 15t22 40l174 566q8 29 2 40t-34 15l-36 5l11 36h315l-12 -36l-38 -5q-31 -4 -44 -15t-22 -40l-132 -432l503 401l9 31q8 29 2 40t-34 15l-36 5l11 36h315l-12 -36l-38 -5q-30 -4 -43.5 -15t-22.5 -40l-173 -566q-9 -29 -2.5 -40t33.5 -15
l37 -5l-12 -36h-314l11 36l39 5q30 4 43 15t22 40l136 443l-503 -402l-13 -41q-9 -29 -2 -40t34 -15l36 -5zM506 940h308l-22 -67h-308z" />
    <glyph glyph-name="uni04E8" unicode="&#x4e8;" horiz-adv-x="908" 
d="M424 -13q-71 0 -134 22.5t-110 64.5t-74 101.5t-27 133.5q0 56 17 113t48.5 109t75.5 97.5t98.5 79t117 52.5t131.5 19q71 0 134 -23t109.5 -65t73.5 -101.5t27 -132.5q0 -56 -17 -113t-48.5 -109t-75.5 -97.5t-98 -79t-117 -52.5t-131 -19zM427 42q61 0 110.5 26.5
t88 70t65.5 99.5t42 115h-489q-4 -23 -5.5 -46t-1.5 -44q0 -113 52 -167t138 -54zM564 724q-61 0 -111 -26.5t-88.5 -70t-65.5 -99.5t-42 -114h489q4 23 6 45.5t2 43.5q0 112 -52 166.5t-138 54.5z" />
    <glyph glyph-name="uni04EE" unicode="&#x4ee;" horiz-adv-x="783" 
d="M362 116q-55 -66 -99 -97.5t-86 -31.5q-29 0 -44.5 14.5t-15.5 37.5q0 28 20 48t62 28q22 5 43 10t40 13t36.5 20t33.5 31l-117 467q-3 14 -6.5 24.5t-9 18t-14.5 12t-24 6.5l-36 5l11 36h331l-11 -36l-39 -5q-32 -4 -48 -16t-9 -39l84 -340l230 275q29 35 43.5 57.5
t17 36t-5 19t-21.5 7.5l-36 5l11 36h241l-11 -36l-23 -3q-20 -3 -34.5 -9t-29.5 -18.5t-32.5 -33t-43.5 -51.5zM463 940h308l-22 -67h-308z" />
    <glyph glyph-name="uni0430" unicode="&#x430;" horiz-adv-x="587" 
d="M93 -13q-51 0 -74 28.5t-23 71.5t19 92t50.5 97.5t72 92.5t83.5 78t84 54t75 20q46 0 57 -34l18 47h124l-156 -412q-11 -29 -12.5 -43t11.5 -14q18 0 53.5 36.5t71.5 96.5l34 -19q-58 -97 -118.5 -144.5t-119.5 -47.5q-48 0 -55.5 30t16.5 96l21 57h-1
q-61 -92 -116 -137.5t-115 -45.5zM167 60q17 0 45 24t59 63.5t60.5 89.5t49.5 103l18 48q10 27 11.5 44t-3 27.5t-13.5 14.5t-19 4q-26 0 -54 -17.5t-54.5 -47t-49.5 -67t-40.5 -78t-27.5 -80.5t-10 -73q0 -25 6 -40t22 -15z" />
    <glyph glyph-name="uni0431" unicode="&#x431;" horiz-adv-x="558" 
d="M535 370q0 -73 -30 -142t-78 -122.5t-109 -86t-122 -32.5q-81 0 -122.5 43.5t-41.5 124.5q0 61 14.5 125.5t44 127t73.5 120t103 105t132.5 82.5t161.5 51q46 8 77 20t48 43h29q-15 -39 -32 -71.5t-41.5 -55.5t-59 -36.5t-84.5 -15.5q-35 -2 -60.5 -1.5t-44 0t-32 -3
t-24.5 -9.5q-35 -22 -67 -80t-56 -134q18 18 39 35.5t45 31t50.5 21.5t55.5 8q63 0 97 -41.5t34 -106.5zM218 36q26 0 49.5 17.5t43.5 46t35.5 65t26.5 74.5t17 73.5t6 63.5q0 79 -56 79q-28 0 -61.5 -19.5t-77.5 -57.5q-17 -63 -26.5 -128t-9.5 -125q0 -46 15 -67.5
t38 -21.5z" />
    <glyph glyph-name="uni0432" unicode="&#x432;" horiz-adv-x="518" 
d="M190 -13q-81 0 -125.5 36.5t-44.5 104.5q0 44 15.5 90t42.5 90t63.5 82.5t77 67.5t83.5 46t84 17q60 0 89 -21t29 -56q0 -56 -55 -100t-156 -68q75 1 109 -26.5t34 -75.5q0 -34 -20.5 -67.5t-54.5 -60t-78.5 -43t-92.5 -16.5zM337 475q-27 0 -50.5 -16.5t-44 -45
t-36.5 -65.5t-27 -77q52 12 88.5 30t60 40t34.5 47t11 50q0 17 -9.5 27t-26.5 10zM156 111q0 -40 12 -61t41 -21q20 0 37 12t29 31.5t19 44.5t7 51q0 35 -13 57.5t-50 22.5q-17 0 -34 -4t-34 -9q-14 -67 -14 -124z" />
    <glyph glyph-name="uni0433" unicode="&#x433;" horiz-adv-x="496" 
d="M177 -13q-79 0 -122 28t-43 85q0 61 43 102t135 76l46 17q61 22 94.5 51.5t33.5 71.5q0 54 -67 54q-32 0 -57.5 -19t-59.5 -58l-37 -43l-40 6l73 139q35 10 70.5 15t65.5 5q88 0 128.5 -28t40.5 -82q0 -57 -49 -101t-137 -76l-51 -19q-117 -44 -117 -119q0 -32 20.5 -46
t49.5 -14q19 0 35 5t32 16t32.5 28.5t36.5 42.5l42 53l40 -6l-72 -151q-36 -14 -78.5 -23.5t-87.5 -9.5z" />
    <glyph glyph-name="uni0434" unicode="&#x434;" horiz-adv-x="547" 
d="M178 -13q-72 0 -115 38t-43 117q0 66 30.5 133t81 122t115.5 89.5t133 34.5q9 0 17.5 -1t16.5 -3v8q0 50 -6.5 92t-20 72.5t-35 47.5t-51.5 17q-46 0 -86 -27l-17 31q29 21 63.5 34t75.5 13q51 0 90.5 -22t67 -60.5t41.5 -91t14 -113.5q0 -115 -30 -212.5t-81 -168
t-118.5 -110.5t-142.5 -40zM160 126q0 -42 10.5 -66.5t39.5 -24.5q33 0 66.5 31t61.5 87.5t48 134.5t26 171q-14 19 -45 19q-30 0 -57.5 -16t-50.5 -42.5t-41.5 -62t-31 -74.5t-19.5 -79.5t-7 -77.5z" />
    <glyph glyph-name="uni0435" unicode="&#x435;" horiz-adv-x="459" 
d="M152 -13q-60 0 -100 36.5t-40 104.5q0 44 15.5 90t42.5 90t63 82.5t76.5 67.5t83 46t83.5 17q49 0 73 -21t24 -56q0 -44 -21.5 -73.5t-49.5 -48.5q-22 -6 -52.5 -14t-64 -16t-67 -15.5t-61.5 -13.5q-5 -21 -7.5 -42.5t-2.5 -42.5q0 -57 21 -81.5t55 -24.5q38 0 72 31.5
t73 94.5l33 -18q-21 -36 -45.5 -70.5t-54.5 -62t-66.5 -44t-82.5 -16.5zM327 475q-23 0 -46 -13.5t-44 -37.5t-39 -56t-30 -68q23 5 43.5 10.5t37.5 11.5q36 12 58.5 26.5t35 29.5t17 30.5t4.5 29.5q0 17 -9.5 27t-27.5 10z" />
    <glyph glyph-name="uni0451" unicode="&#x451;" horiz-adv-x="459" 
d="M152 -13q-60 0 -100 36.5t-40 104.5q0 44 15.5 90t42.5 90t63 82.5t76.5 67.5t83 46t83.5 17q49 0 73 -21t24 -56q0 -44 -21.5 -73.5t-49.5 -48.5q-22 -6 -52.5 -14t-64 -16t-67 -15.5t-61.5 -13.5q-5 -21 -7.5 -42.5t-2.5 -42.5q0 -57 21 -81.5t55 -24.5q38 0 72 31.5
t73 94.5l33 -18q-21 -36 -45.5 -70.5t-54.5 -62t-66.5 -44t-82.5 -16.5zM327 475q-23 0 -46 -13.5t-44 -37.5t-39 -56t-30 -68q23 5 43.5 10.5t37.5 11.5q36 12 58.5 26.5t35 29.5t17 30.5t4.5 29.5q0 17 -9.5 27t-27.5 10zM528 644q-27 0 -45.5 18.5t-18.5 47.5
q0 28 18.5 46.5t45.5 18.5q28 0 46.5 -18.5t18.5 -46.5q0 -29 -18.5 -47.5t-46.5 -18.5zM299 644q-27 0 -45.5 18.5t-18.5 47.5q0 28 18.5 46.5t45.5 18.5q28 0 46.5 -18.5t18.5 -46.5q0 -29 -18.5 -47.5t-46.5 -18.5z" />
    </font>
</defs>
</svg>
