<?xml version="1.0" standalone="no"?>
<!DOCTYPE svg PUBLIC "-//W3C//DTD SVG 1.1//EN" "http://www.w3.org/Graphics/SVG/1.1/DTD/svg11.dtd" >
<svg xmlns="http://www.w3.org/2000/svg" xmlns:xlink="http://www.w3.org/1999/xlink" version="1.1">
<metadata>
Created by Christoph Koeberlin (http://christoph.koe.berlin)
Copyright (c) 2017 Swiss Typefaces Sarl. All rights reserved.
</metadata>
<defs>
<font id="Font" horiz-adv-x="0" >
  <font-face 
    font-family="Font"
    font-weight="700"
    font-style="italic"
    font-stretch="normal"
    units-per-em="1000"
    panose-1="2 4 8 4 6 0 0 0 0 4"
    ascent="800"
    descent="-200"
    x-height="516"
    cap-height="758"
    bbox="-478 -403 1412 1079"
    underline-thickness="71"
    underline-position="-130"
    slope="-17"
    unicode-range="U+0020-FEFF"
  />
<missing-glyph horiz-adv-x="640" 
d="M70 758h500v-758h-500v758zM320 396l217 343h-434zM89 30l221 349l-221 349v-698zM551 30v698l-220 -349zM537 19l-217 343l-217 -343h434z" />
    <glyph glyph-name="f_f.liga" unicode="ff" horiz-adv-x="717" 
d="M492 428h-206l-71 -304q-24 -102 -64 -175.5t-85.5 -121.5t-92.5 -71t-84 -23q-42 0 -62.5 20t-20.5 46q0 23 15.5 41t43.5 18q18 0 31 -8.5t24.5 -19t22.5 -19t23 -8.5q9 0 17 4t16 18.5t16 42t19 74.5l110 486h-91l9 35l99 36q12 35 27 62.5t33 50t39 42.5t46 40
q66 55 115 77.5t82 22.5q55 0 55 -58q0 -12 -4.5 -25.5t-13.5 -24.5t-22 -18.5t-30 -7.5q-27 0 -58 11t-67 11q-12 0 -21 -3.5t-16.5 -18t-13.5 -43t-13 -78.5l-5 -37h216q24 69 60.5 121t86.5 93q66 55 115 77.5t82 22.5q55 0 55 -58q0 -12 -4.5 -25.5t-13.5 -24.5
t-22 -18.5t-30 -7.5q-27 0 -58 11t-67 11q-12 0 -21 -3.5t-16.5 -18t-13.5 -43t-13 -78.5l-8 -59h156l-27 -74h-137l-58 -247q-24 -102 -64 -176t-86 -121.5t-92.5 -70.5t-83.5 -23q-42 0 -62.5 20t-20.5 46q0 23 15.5 41t43.5 18q18 0 31 -8.5t24.5 -19t22.5 -19t23 -8.5
q9 0 17 4t16 18.5t16 42t19 74.5z" />
    <glyph glyph-name="f_i.liga" unicode="fi" horiz-adv-x="679" 
d="M215 124q-24 -102 -64 -175.5t-85.5 -121.5t-92.5 -71t-84 -23q-42 0 -62.5 20t-20.5 46q0 23 15.5 41t43.5 18q18 0 31 -8.5t24.5 -19t22.5 -19t23 -8.5q9 0 17 4t16 18.5t16 42t19 74.5l110 486h-91l9 35l99 36q25 71 61.5 123t86.5 94q57 48 103 74t74 26q55 0 55 -58
q0 -12 -4.5 -25.5t-13.5 -24.5t-22 -18.5t-30 -7.5q-14 0 -25 3.5t-23 7.5t-25.5 7.5t-31.5 3.5q-12 0 -21 -3.5t-16.5 -18t-13.5 -43t-13 -78.5l-8 -59h368l-150 -376q-12 -29 -12 -42t14 -13q16 0 47.5 33t68.5 96l37 -20q-57 -99 -118 -146t-126 -47q-47 0 -66.5 31.5
t7.5 99.5l125 310h-203zM742 727q0 -38 -26 -64t-64 -26q-37 0 -63 26t-26 64q0 37 26 63t63 26q38 0 64 -26t26 -63z" />
    <glyph glyph-name="f_f_i.liga" unicode="ffi" horiz-adv-x="1027" 
d="M1000 637q-37 0 -63 26t-26 64q0 37 26 63t63 26q38 0 64 -26t26 -63q0 -38 -26 -64t-64 -26zM-111 -267q-42 0 -62.5 20t-20.5 46q0 23 15.5 41t43.5 18q18 0 31 -8.5t24.5 -19t22.5 -19t23 -8.5q9 0 17 4t16 18.5t16 42t19 74.5l110 486h-91l9 35l99 36q12 35 27 62.5
t33 50t39 42.5t46 40q66 55 115 77.5t82 22.5q55 0 55 -58q0 -12 -4.5 -25.5t-13.5 -24.5t-22 -18.5t-30 -7.5q-27 0 -58 11t-67 11q-12 0 -21 -3.5t-16.5 -18t-13.5 -43t-13 -78.5l-5 -37h216q25 71 61 121.5t86 92.5q57 48 103 74t74 26q55 0 55 -58q0 -12 -4.5 -25.5
t-13.5 -24.5t-22 -18.5t-30 -7.5q-14 0 -25 3.5t-23 7.5t-25.5 7.5t-31.5 3.5q-12 0 -21 -3.5t-16.5 -18t-13.5 -43t-13 -78.5l-8 -59h368l-150 -376q-12 -29 -12 -42t14 -13q16 0 47.5 33t68.5 96l37 -20q-57 -99 -118 -146t-126 -47q-47 0 -66.5 31.5t7.5 99.5l125 310
h-203l-58 -247q-24 -102 -64 -175.5t-86 -121.5t-92.5 -71t-83.5 -23q-42 0 -62.5 20t-20.5 46q0 23 15.5 41t43.5 18q18 0 31 -8.5t24.5 -19t22.5 -19t23 -8.5q9 0 17 4t16 18.5t16 42t19 74.5l97 429h-206l-71 -304q-24 -102 -64 -175.5t-85.5 -121.5t-92.5 -71t-84 -23z
" />
    <glyph glyph-name="f_l.liga" unicode="fl" horiz-adv-x="696" 
d="M53 428l9 35l99 36q25 71 61.5 123.5t86.5 93.5q66 55 115 77.5t82 22.5q55 0 55 -58q0 -12 -4.5 -25.5t-13.5 -24.5t-22 -18.5t-30 -7.5q-27 0 -58 11t-67 11q-12 0 -21 -3.5t-16.5 -18t-13.5 -43t-13 -78.5l-8 -59h156l-27 -74h-137l-71 -304q-24 -102 -64 -175.5
t-85.5 -121.5t-92.5 -71t-84 -23q-42 0 -62.5 20t-20.5 46q0 23 15.5 41t43.5 18q18 0 31 -8.5t24.5 -19t22.5 -19t23 -8.5q9 0 17 4t16 18.5t16 42t19 74.5l110 486h-91zM591 695q5 14 0.5 24.5t-28.5 13.5l-44 5l12 35l239 21l-232 -668q-11 -30 -11.5 -42.5t13.5 -12.5
q16 0 47.5 33t68.5 96l37 -20q-57 -99 -118 -146t-126 -47q-48 0 -65.5 30.5t6.5 100.5z" />
    <glyph glyph-name="f_f_l.liga" unicode="ffl" horiz-adv-x="1044" 
d="M939 695q5 14 0.5 24.5t-28.5 13.5h-6q-7 -20 -23.5 -35.5t-42.5 -15.5q-27 0 -58 11t-67 11q-12 0 -21 -3.5t-16.5 -18t-13.5 -43t-13 -78.5l-8 -59h156l-27 -74h-137l-58 -247q-24 -102 -64 -176t-86 -121.5t-92.5 -70.5t-83.5 -23q-42 0 -62.5 20t-20.5 46
q0 23 15.5 41t43.5 18q18 0 31 -8.5t24.5 -19t22.5 -19t23 -8.5q9 0 17 4t16 18.5t16 42t19 74.5l97 429h-206l-71 -304q-24 -102 -64 -175.5t-85.5 -121.5t-92.5 -71t-84 -23q-42 0 -62.5 20t-20.5 46q0 23 15.5 41t43.5 18q18 0 31 -8.5t24.5 -19t22.5 -19t23 -8.5
q9 0 17 4t16 18.5t16 42t19 74.5l110 486h-91l9 35l99 36q12 35 27 62.5t33 50t39 42.5t46 40q66 55 115 77.5t82 22.5q55 0 55 -58q0 -12 -4.5 -25.5t-13.5 -24.5t-22 -18.5t-30 -7.5q-27 0 -58 11t-67 11q-12 0 -21 -3.5t-16.5 -18t-13.5 -43t-13 -78.5l-5 -37h216
q24 69 60.5 121t86.5 93q66 55 115 77.5t82 22.5q45 0 53 -41l211 19l-232 -668q-11 -30 -11.5 -42.5t13.5 -12.5q16 0 47.5 33t68.5 96l37 -20q-57 -99 -118 -146t-126 -47q-48 0 -65.5 30.5t6.5 100.5z" />
    <glyph glyph-name=".notdef" horiz-adv-x="640" 
d="M70 758h500v-758h-500v758zM320 396l217 343h-434zM89 30l221 349l-221 349v-698zM551 30v698l-220 -349zM537 19l-217 343l-217 -343h434z" />
    <glyph glyph-name="glyph1" 
 />
    <glyph glyph-name="glyph2" horiz-adv-x="235" 
 />
    <glyph glyph-name="space" unicode=" " horiz-adv-x="235" 
 />
    <glyph glyph-name="exclam" unicode="!" horiz-adv-x="305" 
d="M121 241q19 66 29 113t15 84t8 68.5t8 65.5t15 75t29 98q4 11 20 19t37 11t44 1.5t40.5 -8t27 -18t3.5 -28.5q-17 -51 -34 -88.5t-34.5 -69t-35.5 -61.5t-38 -66t-42 -83t-48 -113h-44zM100 -13q-20 0 -37 7.5t-30 21t-20.5 31.5t-7.5 39q0 19 7.5 36.5t20.5 30.5
t30 20.5t37 7.5q21 0 39 -7.5t31.5 -20.5t21 -30.5t7.5 -36.5q0 -42 -28.5 -70.5t-70.5 -28.5z" />
    <glyph glyph-name="quotedbl" unicode="&#x22;" horiz-adv-x="420" 
d="M378 721q4 32 21.5 45t65.5 13q46 0 57.5 -17.5t-13.5 -62.5l-120 -216h-43zM186 721q4 32 21.5 45t65.5 13q46 0 57.5 -17.5t-13.5 -62.5l-120 -216h-43z" />
    <glyph glyph-name="numbersign" unicode="#" horiz-adv-x="806" 
d="M54 267h171l90 221h-172l29 72h172l88 216h78l-88 -216h189l88 216h78l-88 -216h172l-29 -72h-172l-90 -221h172l-29 -72h-172l-79 -195h-78l79 195h-189l-79 -195h-78l79 195h-172zM492 267l90 221h-189l-90 -221h189z" />
    <glyph glyph-name="dollar" unicode="$" horiz-adv-x="604" 
d="M241 -13l-35 -107h-50l36 110q-46 4 -80 17t-57 30.5t-34.5 38.5t-11.5 42q0 37 22 53t46 14q19 -1 30 -10.5t17.5 -23t11.5 -28t11 -25.5q11 -21 27 -34t35 -19l93 286l-36 35q-49 46 -79 91.5t-30 105.5q0 47 24 87t64.5 68.5t93 44.5t108.5 16l35 107h50l-36 -110
q74 -9 116.5 -41t42.5 -74q0 -18 -6 -30.5t-15 -20t-20.5 -10.5t-23.5 -3q-18 0 -29.5 9.5t-19.5 23t-14.5 29t-13.5 27.5q-16 23 -35 33l-90 -278l13 -13q31 -30 57 -55t44.5 -49.5t28.5 -52t10 -62.5q0 -59 -27 -101t-70 -69t-96 -39.5t-105 -12.5h-2zM350 478l81 250h-1
q-33 0 -60.5 -8t-48 -22.5t-32 -35.5t-11.5 -47q0 -34 18 -68t50 -66zM412 161q0 41 -20 71.5t-52 61.5l-83 -256q34 0 62.5 7.5t49 22.5t32 38t11.5 55z" />
    <glyph glyph-name="percent" unicode="%" horiz-adv-x="983" 
d="M901 758h104l-840 -758h-104zM256 334q-37 0 -62.5 12.5t-41 33.5t-22 47.5t-6.5 54.5q0 57 20 108.5t52 91.5t73.5 63.5t85.5 23.5q37 0 62.5 -12.5t41 -33.5t22 -47.5t6.5 -54.5q0 -57 -20 -108.5t-52.5 -91.5t-74 -63.5t-84.5 -23.5zM264 366q22 0 40 17t32 44.5
t25 61.5t18 67.5t10.5 62.5t3.5 47q0 31 -12 51t-34 20t-40 -17t-32.5 -44.5t-25 -61t-18 -67t-11 -63t-3.5 -47.5q0 -31 12.5 -51t34.5 -20zM709 -7q-37 0 -62.5 12.5t-41 33.5t-22 47.5t-6.5 54.5q0 57 20 108.5t52 91.5t73.5 63.5t85.5 23.5q37 0 62.5 -12.5t41 -33.5
t22 -47.5t6.5 -54.5q0 -57 -20 -108.5t-52.5 -91.5t-74 -63.5t-84.5 -23.5zM717 25q22 0 40 17t32 44.5t25 61.5t18 67.5t10.5 62.5t3.5 47q0 31 -12 51t-34 20t-40 -17t-32.5 -44.5t-25 -61t-18 -67t-11 -63t-3.5 -47.5q0 -31 12.5 -51t34.5 -20z" />
    <glyph glyph-name="ampersand" unicode="&#x26;" horiz-adv-x="1015" 
d="M339 -13q-78 0 -133.5 27t-90.5 70t-51.5 96t-16.5 104q0 73 26.5 132t65.5 100.5t82.5 63.5t77.5 22q40 0 68 -21t36 -57q37 33 62 62t39.5 58t21 59.5t8.5 66.5q1 29 5 47.5t12.5 28.5t22.5 13.5t34 3.5t36.5 -6.5t24 -20.5t4 -36.5t-22.5 -53.5q-42 -71 -85.5 -125.5
t-99.5 -104.5t-132 -100t-184 -111q9 -43 30 -78.5t52 -61t71.5 -39.5t87.5 -14q55 0 105 16t94 49t80 83t62 118l-34 30q-13 11 -27.5 23t-29 22t-28 16.5t-24.5 6.5q-23 0 -41 -13t-18 -38q0 -20 9 -35.5t20 -29.5t20 -28t9 -30q0 -23 -17.5 -38t-40.5 -15q-37 0 -59 29
t-22 72q0 31 15 61.5t37 57.5t47 48t44 33q22 14 36.5 18t27.5 4q12 0 25.5 -3.5t30 -12t37.5 -24t48 -39.5l38 -33q28 -25 59 -46.5t57 -21.5q23 0 37 15t14 40t-8 40.5t-17.5 28.5t-17.5 27t-8 37q0 19 16 35.5t46 16.5q21 0 35 -8t23 -21.5t12.5 -31.5t3.5 -37
q0 -33 -15 -67t-37.5 -63t-47.5 -52t-44 -35q-22 -14 -37 -18.5t-29 -4.5q-26 0 -51.5 13.5t-60.5 42.5q-16 -37 -37 -78.5t-48 -82t-61.5 -77t-76.5 -64.5t-92 -44.5t-110 -16.5zM143 353q42 22 80.5 44t73.5 45q5 40 -6.5 67t-43.5 27q-26 0 -45 -13.5t-32.5 -36.5
t-20 -54t-6.5 -65v-14z" />
    <glyph glyph-name="quotesingle" unicode="'" horiz-adv-x="228" 
d="M186 721q4 32 21.5 45t65.5 13q46 0 57.5 -17.5t-13.5 -62.5l-120 -216h-43z" />
    <glyph glyph-name="parenleft" unicode="(" horiz-adv-x="344" 
d="M126 -248q-50 66 -80.5 154.5t-30.5 188.5q0 97 32 197.5t94 197t152 185.5t207 163l26 -39q-89 -71 -162 -166.5t-125 -200t-80.5 -209.5t-28.5 -195q0 -36 1 -68t4.5 -62t11 -59.5t19.5 -60.5z" />
    <glyph glyph-name="parenright" unicode=")" horiz-adv-x="344" 
d="M246 838q50 -66 80.5 -154.5t30.5 -188.5q0 -97 -32 -197.5t-94 -197t-152 -185.5t-207 -163l-26 39q89 71 162 166.5t125 200t80.5 209.5t28.5 195q0 36 -1 68t-4.5 62t-11 59.5t-19.5 60.5z" />
    <glyph glyph-name="asterisk" unicode="*" horiz-adv-x="521" 
d="M191 458l-19 26l126 112l-118 119l21 26l144 -85l75 148l32 -12l-37 -162l166 -28l-1 -33l-168 -14l24 -167l-32 -8l-64 153z" />
    <glyph glyph-name="plus" unicode="+" horiz-adv-x="653" 
d="M291 225h-229v75h229v216h79v-216h229v-75h-229v-225h-79v225z" />
    <glyph glyph-name="comma" unicode="," horiz-adv-x="309" 
d="M214 76q0 -32 -16.5 -66t-48 -67t-76.5 -63.5t-103 -54.5l-15 38q56 28 93.5 64t37.5 80q0 54 -84 71q4 27 15 45.5t26.5 30.5t34 17.5t37.5 5.5q41 0 70 -26.5t29 -74.5z" />
    <glyph glyph-name="hyphen" unicode="-" horiz-adv-x="422" 
d="M82 303h294l-28 -81h-294z" />
    <glyph glyph-name="period" unicode="." horiz-adv-x="290" 
d="M100 -13q-20 0 -37 7.5t-30 21t-20.5 31.5t-7.5 39q0 19 7.5 36.5t20.5 30.5t30 20.5t37 7.5q21 0 39 -7.5t31.5 -20.5t21 -30.5t7.5 -36.5q0 -42 -28.5 -70.5t-70.5 -28.5z" />
    <glyph glyph-name="slash" unicode="/" horiz-adv-x="552" 
d="M573 806h107l-622 -858h-107z" />
    <glyph glyph-name="zero" unicode="0" horiz-adv-x="698" 
d="M289 -13q-59 0 -100.5 21t-68 57t-39 83t-12.5 99q0 62 16.5 125.5t46 123t69 111t86.5 90t99 60.5t105 22q59 0 100.5 -21t68 -57t39 -83t12.5 -99q0 -62 -16.5 -125.5t-46 -123t-69 -111t-86.5 -90t-99 -60.5t-105 -22zM299 37q40 0 75.5 29.5t65.5 77.5t54 108.5
t40.5 123.5t25 122t8.5 103q0 58 -21 93t-66 35q-40 0 -75.5 -29.5t-65.5 -77.5t-54 -108.5t-40.5 -123.5t-25 -122t-8.5 -103q0 -58 21 -93t66 -35z" />
    <glyph glyph-name="one" unicode="1" horiz-adv-x="413" 
d="M276 628h-125l11 33q55 3 98.5 11.5t77 23t59 34.5t46.5 45h31l-240 -697q-5 -14 -0.5 -23.5t28.5 -14.5l23 -5l-12 -35h-307l12 35l55 7q28 4 38 13t15 23z" />
    <glyph glyph-name="two" unicode="2" horiz-adv-x="603" 
d="M453 779q97 0 146 -43t49 -109q0 -48 -18 -90.5t-51.5 -82.5t-81 -78.5t-107.5 -78.5l-262 -174l195 1q37 0 63 4t46.5 14.5t39 29t41.5 48.5l32 -16l-120 -204h-487l8 25q150 109 255 194.5t170.5 152.5t95 119.5t29.5 96.5q0 22 -6 42.5t-18.5 35.5t-32 24t-46.5 9
q-58 0 -103.5 -38t-68.5 -130h-47q7 56 30.5 101.5t59.5 78t84 50.5t105 18z" />
    <glyph glyph-name="three" unicode="3" horiz-adv-x="583" 
d="M193 -13q-44 0 -80.5 10.5t-62.5 29t-41 42.5t-15 51q0 29 18.5 50t50.5 21q20 0 32 -7.5t20.5 -19.5t14 -27.5t11.5 -30.5q6 -13 13 -25.5t18 -22t27 -15t39 -5.5q28 0 56.5 11t51 34.5t37 59t14.5 84.5q0 39 -11 69t-29.5 51t-42.5 31.5t-51 10.5q-16 0 -31 -3l-6 46
l56 12q37 8 73 20.5t64.5 31.5t46 45.5t17.5 62.5q0 45 -28.5 70t-79.5 25q-24 0 -48 -6t-45.5 -21.5t-38.5 -42t-27 -67.5h-46q16 102 84 159.5t178 57.5q48 0 84.5 -11t61 -29.5t36.5 -43t12 -51.5q0 -55 -47.5 -101.5t-134.5 -68.5v-3q48 -31 72.5 -75.5t24.5 -100.5
q0 -58 -29.5 -113.5t-78.5 -98.5t-111.5 -69.5t-128.5 -26.5z" />
    <glyph glyph-name="four" unicode="4" horiz-adv-x="660" 
d="M337 200h-342l13 38l541 520h124l-163 -471h138l-30 -87h-138l-69 -200h-143zM367 287l111 321l-331 -321h220z" />
    <glyph glyph-name="five" unicode="5" horiz-adv-x="568" 
d="M183 -13q-44 0 -80.5 10.5t-62.5 29t-41 42.5t-15 51q0 29 18.5 50t50.5 21q19 0 30.5 -6.5t19.5 -17t13 -23.5t11 -27t14 -27t21 -23t32 -16.5t48 -6.5q28 0 56.5 8t51 25.5t36.5 44t14 64.5q0 72 -66.5 130.5t-184.5 106.5l181 335h338l-77 -138h-276l-44 -78
q125 -51 184 -119.5t59 -149.5q0 -68 -29 -121t-76.5 -90t-106.5 -56t-119 -19z" />
    <glyph glyph-name="six" unicode="6" horiz-adv-x="646" 
d="M283 -13q-51 0 -94 17.5t-74 50.5t-48.5 80.5t-17.5 106.5q0 70 42.5 151.5t128.5 158t215 141t302 102.5l10 -50q-99 -23 -178.5 -62t-141 -87t-105.5 -102t-72 -108q36 35 80.5 53.5t87.5 18.5q39 0 72.5 -11t57.5 -33.5t38 -56t14 -77.5q0 -47 -15 -87t-40 -72.5
t-57 -57.5t-67.5 -42t-71 -25.5t-66.5 -8.5zM192 182q0 -67 28 -106t75 -39q32 0 60 17t48.5 46t32.5 67t12 79q0 38 -11.5 64.5t-29.5 43t-40.5 23.5t-44.5 7q-19 0 -39.5 -5.5t-45.5 -19.5q-23 -50 -34 -95.5t-11 -81.5z" />
    <glyph glyph-name="seven" unicode="7" horiz-adv-x="608" 
d="M-13 -11q-12 -2 -19.5 0t-8.5 7.5t5.5 16t22.5 26.5q72 70 143 139.5t145.5 141.5t152.5 147.5t164 158.5l-218 -2q-44 0 -72.5 -5t-49 -17t-38 -32t-39.5 -51l-41 14l132 225h478l10 -28l-385 -401q-50 -52 -84.5 -93t-60 -73.5t-43.5 -58t-33 -45.5t-25.5 -31.5
t-20 -17.5t-20 -8.5t-26.5 -4.5z" />
    <glyph glyph-name="eight" unicode="8" horiz-adv-x="611" 
d="M267 -13q-53 0 -96.5 14.5t-75 40.5t-49 62t-17.5 78q0 36 17 69t46.5 60.5t69.5 48.5t87 35q-32 38 -49 79.5t-17 91.5q0 45 18.5 83.5t52 67.5t80 45.5t102.5 16.5q47 0 85.5 -11.5t66.5 -32.5t43 -50t15 -64t-17 -64.5t-45 -53.5t-64.5 -42.5t-75.5 -30.5l6 -6
q43 -44 71.5 -91t28.5 -107q0 -51 -23.5 -94.5t-62.5 -76t-90 -50.5t-107 -18zM129 192q0 -39 11.5 -67.5t32.5 -47.5t50 -28.5t63 -9.5q28 0 54 7t45 20.5t30.5 34t11.5 46.5q0 19 -8 39.5t-21.5 41.5t-30.5 41t-35 38l-64 66q-32 -13 -57.5 -33t-43.5 -44t-28 -51t-10 -53
zM424 451q63 23 96.5 65.5t33.5 93.5t-33.5 84t-98.5 33q-57 0 -90 -24.5t-33 -63.5q0 -42 24.5 -76t62.5 -73z" />
    <glyph glyph-name="nine" unicode="9" horiz-adv-x="638" 
d="M21 21q99 22 175 61t132.5 87t95 102.5t61.5 108.5q-38 -34 -84.5 -53t-101.5 -19q-39 0 -72.5 12.5t-57.5 36.5t-38 59t-14 79q0 72 30.5 125t76.5 88.5t100.5 53t102.5 17.5q51 0 95.5 -16.5t76.5 -48t50.5 -78t18.5 -105.5q0 -71 -34.5 -152t-110.5 -158
t-197.5 -143.5t-295.5 -106.5zM269 531q0 -38 11.5 -66t29.5 -46.5t40.5 -27.5t44.5 -9q20 0 46.5 6.5t55.5 24.5q15 43 22 83t7 74q0 71 -28.5 115t-80.5 44q-33 0 -60.5 -15.5t-47 -42.5t-30 -63t-10.5 -77z" />
    <glyph glyph-name="colon" unicode=":" horiz-adv-x="321" 
d="M102 -13q-20 0 -37 7.5t-30 21t-20.5 31.5t-7.5 39q0 19 7.5 36.5t20.5 30.5t30 20.5t37 7.5q21 0 39 -7.5t31.5 -20.5t21 -30.5t7.5 -36.5q0 -42 -28.5 -70.5t-70.5 -28.5zM219 329q-20 0 -37 7.5t-30 21t-20.5 31.5t-7.5 39q0 19 7.5 36.5t20.5 30.5t30 20.5t37 7.5
q21 0 39 -7.5t31.5 -20.5t21 -30.5t7.5 -36.5q0 -42 -28.5 -70.5t-70.5 -28.5z" />
    <glyph glyph-name="semicolon" unicode=";" horiz-adv-x="330" 
d="M214 76q0 -32 -16.5 -66t-48 -67t-76.5 -63.5t-103 -54.5l-15 38q56 28 93.5 64t37.5 80q0 54 -84 71q4 27 15 45.5t26.5 30.5t34 17.5t37.5 5.5q41 0 70 -26.5t29 -74.5zM221 329q-20 0 -37 7.5t-30 21t-20.5 31.5t-7.5 39q0 19 7.5 36.5t20.5 30.5t30 20.5t37 7.5
q21 0 39 -7.5t31.5 -20.5t21 -30.5t7.5 -36.5q0 -42 -28.5 -70.5t-70.5 -28.5z" />
    <glyph glyph-name="less" unicode="&#x3c;" horiz-adv-x="653" 
d="M38 297l527 225v-81l-423 -179l423 -179v-81l-527 226v69z" />
    <glyph glyph-name="equal" unicode="=" horiz-adv-x="653" 
d="M75 409h507v-75h-507v75zM75 179h507v-75h-507v75z" />
    <glyph glyph-name="greater" unicode="&#x3e;" horiz-adv-x="653" 
d="M622 228l-527 -226v81l423 179l-423 179v81l527 -225v-69z" />
    <glyph glyph-name="question" unicode="?" horiz-adv-x="633" 
d="M275 404q7 25 14.5 41.5t20 27.5t33 18t53.5 13l71 13q36 7 60 14t38 16t20 21t6 30q0 24 -12.5 46t-34.5 39.5t-52.5 28t-67.5 10.5q-77 0 -103 -48q-13 -23 -31.5 -40.5t-47.5 -17.5t-51.5 18t-22.5 47q0 45 56.5 71.5t157.5 26.5q61 0 114 -17t92 -48.5t61 -75.5
t22 -98q0 -28 -6 -51t-21.5 -41t-42 -30.5t-66.5 -20.5l-149 -29q-23 -5 -37 -9t-24 -10.5t-17 -17.5t-15 -30l-26 -60h-39zM217 -13q-20 0 -37 7.5t-30 21t-20.5 31.5t-7.5 39q0 19 7.5 36.5t20.5 30.5t30 20.5t37 7.5q21 0 39 -7.5t31.5 -20.5t21 -30.5t7.5 -36.5
q0 -42 -28.5 -70.5t-70.5 -28.5z" />
    <glyph glyph-name="at" unicode="@" horiz-adv-x="932" 
d="M700 37q-18 -9 -44 -18t-57 -16t-65.5 -11.5t-69.5 -4.5q-69 0 -135.5 22t-119.5 63.5t-85.5 102t-32.5 138.5q0 93 42 177t112.5 148.5t162 102.5t190.5 38q62 0 124 -18.5t111.5 -55t80.5 -92t31 -128.5q0 -77 -27 -134.5t-74.5 -96.5t-111.5 -58.5t-138 -19.5
q-61 0 -61 27q0 11 5.5 26t13.5 35l17 44h-5q-46 -61 -92.5 -95.5t-105.5 -34.5q-40 0 -68.5 25.5t-28.5 73.5q0 36 17.5 76t46.5 78.5t66 73t77 60.5t79.5 41.5t72.5 15.5q43 0 82 -15t67 -31l-117 -302q-6 -16 -9 -24.5t-3 -13.5q0 -3 1.5 -4.5t7.5 -1.5q42 0 83 16
t74 47.5t53 78.5t20 108q0 57 -23.5 102.5t-63.5 77.5t-93.5 49.5t-114.5 17.5q-84 0 -159.5 -30.5t-132 -84t-89.5 -125.5t-33 -155q0 -60 20 -113t59 -92.5t96 -62.5t131 -23q28 0 57 3.5t55.5 9.5t48.5 13.5t36 14.5zM430 251q14 0 37 10.5t49.5 34.5t53.5 64t50 99
l37 97q-8 21 -42 21t-73 -26.5t-72 -67t-55 -89t-22 -93.5q0 -50 37 -50z" />
    <glyph glyph-name="A" unicode="A" horiz-adv-x="780" 
d="M-98 39l36 4q16 2 28 7t25.5 17t31.5 33t45 56l496 633h61l13 -691q0 -26 10.5 -38.5t39.5 -16.5l32 -4l-12 -39h-327l12 39l36 4q32 4 43 16t11 39l-2 164h-253l-68 -87q-32 -42 -47.5 -67t-18 -39t5.5 -19t22 -7l32 -4l-12 -39h-252zM480 331l-3 251l-196 -251h199z
" />
    <glyph glyph-name="B" unicode="B" horiz-adv-x="800" 
d="M562 758q121 0 185.5 -36.5t64.5 -102.5q0 -45 -21 -78.5t-53.5 -57.5t-72.5 -38.5t-77 -22.5v-1q29 -5 59.5 -18t55 -34t40.5 -49.5t16 -63.5q0 -55 -30.5 -101.5t-83 -81t-122.5 -54t-150 -19.5h-397l12 39l35 4q32 4 46 15t23 40l172 562q8 29 1 40t-36 15l-33 4
l12 39h354zM483 705q-26 0 -36.5 -3.5t-15.5 -18.5l-77 -250h92q52 0 89.5 16t62.5 42t37 60t12 69q0 41 -29 63t-102 22h-33zM338 379l-79 -258q-12 -38 -1.5 -53t48.5 -15h27q67 0 115 19t78.5 49.5t44.5 69.5t14 80q0 56 -44 82t-135 26h-68z" />
    <glyph glyph-name="C" unicode="C" horiz-adv-x="803" 
d="M433 -13q-84 0 -150 23.5t-112.5 65t-71 97.5t-24.5 122q0 108 47 197.5t124.5 153t178.5 98.5t209 35q72 0 123.5 -9.5t90.5 -25.5l-18 -193h-41l-17 57q-19 62 -60 84t-111 22q-56 0 -118 -23.5t-114 -73t-86 -126.5t-34 -184q0 -66 16.5 -114.5t45.5 -80t68 -46.5
t84 -15q31 0 58 6.5t52.5 20t51 34t52.5 49.5l55 58h41l-107 -197q-50 -16 -105 -25.5t-128 -9.5z" />
    <glyph glyph-name="D" unicode="D" horiz-adv-x="889" 
d="M-12 39l35 4q32 4 46 15t23 40l172 562q8 29 1 40t-36 15l-33 4l12 39h293q94 0 168 -18.5t125 -54.5t78 -89t27 -122q0 -92 -42 -177.5t-120.5 -151.5t-190.5 -105.5t-253 -39.5h-317zM310 54q77 0 138 20t107 53.5t78.5 78t53 93.5t30 100t9.5 98q0 114 -55 160.5
t-170 46.5q-22 0 -34.5 -0.5t-20 -3t-10.5 -6.5t-5 -11l-172 -561q-6 -22 -7.5 -35t3.5 -20.5t18 -10t35 -2.5h2z" />
    <glyph glyph-name="E" unicode="E" horiz-adv-x="765" 
d="M514 758l314 2l-51 -205h-41l-2 56q-1 29 -8.5 46.5t-27 27t-55 12.5t-92.5 3h-95q-20 0 -26 -20l-81 -266h117q24 0 40 2t28 9t22 21t22 37l22 42h41l-88 -287h-41l4 42q2 23 0.5 37t-9 21t-22.5 9t-39 2h-117l-62 -202q-9 -30 -11.5 -47.5t3.5 -26.5t22 -12t45 -3h45
q60 0 96.5 3t63 13t47.5 28t49 48l62 67h41l-123 -217h-631l12 39l35 4q32 4 46 15t23 40l172 562q8 29 1 40t-36 15l-33 4l12 39h306z" />
    <glyph glyph-name="F" unicode="F" horiz-adv-x="732" 
d="M-12 39l35 4q32 4 46 15t23 40l172 562q8 29 1 40t-36 15l-33 4l12 39h329l313 2l-51 -205h-41l-2 56q-1 29 -8.5 46.5t-27 27t-55 12.5t-92.5 3h-117q-20 0 -26 -20l-81 -266h119q24 0 40 2t28 9t22 21t22 37l22 42h41l-88 -287h-41l4 42q2 23 0.5 37t-9 21t-22.5 9
t-39 2h-119l-77 -251q-9 -29 -1.5 -40t37.5 -13l63 -4l-13 -41h-362z" />
    <glyph glyph-name="G" unicode="G" horiz-adv-x="864" 
d="M434 -13q-84 0 -150 23.5t-112.5 65t-71 97.5t-24.5 122q0 108 46 197.5t122.5 153t176.5 98.5t208 35q72 0 123.5 -9.5t90.5 -25.5l-18 -193h-41l-17 57q-19 62 -60 84t-111 22q-56 0 -117 -23.5t-112 -73t-84 -126.5t-33 -184q0 -66 16.5 -114.5t45.5 -80t68 -46.5
t84 -15q42 0 79 14l72 208q10 29 3 41t-36 14l-63 4l14 39h362l-17 -48l-87 -3l-74 -214l-18 -71q-40 -4 -71 -12t-60.5 -16t-61 -14t-72.5 -6z" />
    <glyph glyph-name="H" unicode="H" horiz-adv-x="951" 
d="M308 0h-332l12 39l35 4q32 4 46 15t23 40l172 562q8 29 1 40t-36 15l-33 4l12 39h332l-12 -39l-35 -4q-32 -4 -46.5 -15t-22.5 -40l-75 -244h354l75 244q8 29 1 40t-36 15l-33 4l12 39h332l-12 -39l-35 -4q-32 -4 -46.5 -15t-22.5 -40l-172 -562q-9 -29 -1.5 -40
t36.5 -15l33 -4l-12 -39h-332l12 39l35 4q32 4 46 15t23 40l77 251h-354l-77 -251q-9 -29 -1.5 -40t36.5 -15l33 -4z" />
    <glyph glyph-name="I" unicode="I" horiz-adv-x="437" 
d="M264 660q8 29 1 40t-36 15l-33 4l12 39h332l-12 -39l-35 -4q-32 -4 -46.5 -15t-22.5 -40l-172 -562q-9 -29 -1.5 -40t36.5 -15l33 -4l-12 -39h-332l12 39l35 4q32 4 46 15t23 40z" />
    <glyph glyph-name="J" unicode="J" horiz-adv-x="432" 
d="M294 203q-12 -41 -29.5 -68.5t-40 -49.5t-50 -40t-60.5 -39q-17 -11 -40 -24.5t-49 -29t-52.5 -31t-50.5 -28.5l-23 39q56 37 94.5 66.5t64.5 58.5t43 61.5t31 77.5l142 464q8 29 1 40t-36 15l-33 4l12 39h332l-12 -39l-35 -4q-32 -4 -46.5 -15t-22.5 -40z" />
    <glyph glyph-name="K" unicode="K" horiz-adv-x="885" 
d="M333 362l-81 -264q-9 -29 -1.5 -40t36.5 -15l33 -4l-12 -39h-332l12 39l35 4q32 4 46 15t23 40l172 562q8 29 1 40t-36 15l-33 4l12 39h332l-12 -39l-35 -4q-32 -4 -46.5 -15t-22.5 -40l-79 -258l300 197q87 57 123 85.5t7 30.5l-53 4l12 39h290l-12 -39l-35 -4
q-23 -3 -45 -10t-47 -20t-55.5 -31.5t-69.5 -44.5l-277 -182l251 -335q17 -23 25 -35t26 -14l33 -4l-12 -39h-206z" />
    <glyph glyph-name="L" unicode="L" horiz-adv-x="720" 
d="M268 151q-9 -31 -11.5 -49.5t6 -28t29.5 -12.5t59 -3h50q37 0 63 3t47.5 12.5t42 27t47.5 46.5l63 70h41l-123 -217h-606l12 39l35 4q32 4 46 15t23 40l172 562q8 29 1 40t-36 15l-33 4l12 39h332l-12 -39l-35 -4q-32 -4 -46.5 -15t-22.5 -40z" />
    <glyph glyph-name="M" unicode="M" horiz-adv-x="1084" 
d="M320 594l-137 -390q-19 -54 -27 -85t-7.5 -47.5t9 -21.5t22.5 -7l33 -4l-12 -39h-241l12 39l35 4q16 2 27.5 7t23 21t25 47t32.5 85l162 457q10 29 2 40t-37 15l-33 4l12 39h234l77 -527l392 527h247l-12 -39l-35 -4q-32 -4 -47 -15t-22 -40l-145 -562q-8 -29 0 -40
t37 -15l33 -4l-12 -39h-332l12 39l35 4q32 4 45.5 15t21.5 40l128 496l-447 -602h-20z" />
    <glyph glyph-name="N" unicode="N" horiz-adv-x="910" 
d="M315 600l-121 -394q-18 -59 -24.5 -91t-4 -47.5t12 -19.5t24.5 -5l37 -4l-12 -39h-255l12 39l39 4q15 1 27 5t24 19.5t25.5 47.5t31.5 91l106 346q24 78 15 117.5t-60 49.5l12 39h203l306 -521l97 315q18 59 24.5 91t4 47.5t-12.5 19t-24 5.5l-37 4l12 39h255l-12 -39
l-39 -4q-16 -2 -28 -5.5t-24 -19t-25 -47.5t-31 -91l-173 -565h-32z" />
    <glyph glyph-name="O" unicode="O" horiz-adv-x="918" 
d="M433 -13q-72 0 -136 22.5t-113 65t-77.5 103t-28.5 136.5q0 81 36.5 163.5t102 149.5t155 109.5t195.5 42.5q72 0 136 -22.5t113 -65t77.5 -103t28.5 -136.5q0 -81 -36.5 -163.5t-102 -149.5t-155 -109.5t-195.5 -42.5zM435 46q51 0 94.5 21t78 56.5t61 82.5t44 98.5
t26.5 104t9 100.5q0 106 -48.5 158.5t-134.5 52.5q-52 0 -95 -21t-77.5 -56.5t-61 -82.5t-44 -98.5t-26.5 -104.5t-9 -100q0 -106 48.5 -158.5t134.5 -52.5z" />
    <glyph glyph-name="P" unicode="P" horiz-adv-x="783" 
d="M-12 39l35 4q32 4 46 15t23 40l172 562q8 29 1 40t-36 15l-33 4l12 39h353q60 0 113 -9t93 -29t63 -53t23 -82q0 -53 -25 -100t-74 -82.5t-122 -56t-169 -20.5h-141l-70 -228q-9 -29 -1.5 -40t37.5 -13l63 -4l-13 -41h-362zM337 378h122q58 0 99.5 19.5t68.5 50
t39.5 67.5t12.5 73q0 66 -39 91.5t-111 25.5h-38q-18 0 -29 -1t-17.5 -3.5t-9.5 -7.5t-5 -12z" />
    <glyph glyph-name="Q" unicode="Q" horiz-adv-x="918" 
d="M418 -13l-185 -69q23 5 40 6t37 1q69 0 114.5 -7t79.5 -16t62.5 -16t64.5 -7q26 0 44.5 5.5t32.5 16.5t24.5 27t20.5 37l39 -15q-15 -39 -32.5 -74t-39 -61.5t-47 -42t-54.5 -15.5q-42 0 -89.5 21.5t-95.5 48t-94 48t-85 21.5q-28 0 -49 -10q-2 -38 -17.5 -56t-34.5 -18
q-15 0 -27.5 9.5t-12.5 32.5q0 8 2.5 18t10.5 21t23 22t41 20l161 60q-58 11 -108 37.5t-87 67.5t-58 95t-21 119q0 81 36.5 163.5t102 149.5t155 109.5t195.5 42.5q72 0 136 -22.5t113 -65t77.5 -103t28.5 -136.5q0 -81 -36.5 -163.5t-102 -149.5t-155 -109.5t-195.5 -42.5
h-15zM435 46q51 0 94.5 21t78 56.5t61 82.5t44 98.5t26.5 104t9 100.5q0 106 -48.5 158.5t-134.5 52.5q-52 0 -95 -21t-77.5 -56.5t-61 -82.5t-44 -98.5t-26.5 -104.5t-9 -100q0 -106 48.5 -158.5t134.5 -52.5z" />
    <glyph glyph-name="R" unicode="R" horiz-adv-x="833" 
d="M662 -13q-81 0 -117.5 50t-20.5 161q7 52 -0.5 83.5t-24.5 48.5t-41 22.5t-49 5.5h-78l-79 -260q-9 -29 -1.5 -40t36.5 -15l33 -4l-12 -39h-332l12 39l35 4q32 4 46 15t23 40l172 562q8 29 1 40t-36 15l-33 4l12 39h314q151 0 231.5 -36.5t80.5 -119.5q0 -42 -21 -78
t-59 -63.5t-90 -44.5t-114 -20l-1 -2q33 -5 62 -17.5t50 -34t31.5 -51.5t6.5 -69l-5 -54q-7 -72 13 -101.5t77 -21.5l-5 -37q-33 -11 -58.5 -16t-58.5 -5zM457 411q57 0 96 18t63 45.5t35 60t11 61.5q0 56 -32.5 82.5t-110.5 26.5h-21q-20 0 -32.5 -1t-19.5 -3.5t-10 -7
t-5 -11.5l-83 -271h109z" />
    <glyph glyph-name="S" unicode="S" horiz-adv-x="640" 
d="M198 -13q-54 0 -103 12t-84 30l38 220h41l20 -122q6 -40 25 -59q15 -14 39.5 -18t57.5 -4q42 0 75.5 10.5t56.5 29.5t35.5 44.5t12.5 55.5q0 21 -5.5 37.5t-16 30.5t-25 27.5t-31.5 27.5l-56 46q-51 42 -74.5 85t-23.5 94q0 54 27 99t74 77.5t110 50.5t134 18
q54 0 95 -10t74 -22l-42 -190h-41l-9 64q-5 31 -13 51t-22 32q-13 10 -31 14t-39 4q-75 0 -121 -34t-46 -91q0 -27 12 -54t43 -52l56 -46q31 -25 55.5 -47t41.5 -45t26.5 -48.5t9.5 -58.5q0 -56 -25.5 -103.5t-74 -82t-118.5 -54t-158 -19.5z" />
    <glyph glyph-name="T" unicode="T" horiz-adv-x="750" 
d="M116 41l65 4q30 2 44.5 13t23.5 40l184 602h-10q-57 0 -94.5 -2.5t-64 -11.5t-44.5 -26t-36 -46l-37 -59h-41l78 205l257 -2h180l257 2l-46 -205h-41l-1 59q-1 29 -9 46t-28.5 26t-56.5 11.5t-93 2.5h-10l-184 -602q-9 -29 -1.5 -40t37.5 -13l63 -4l-13 -41h-392z" />
    <glyph glyph-name="U" unicode="U" horiz-adv-x="877" 
d="M380 -13q-75 0 -132.5 18t-91 55.5t-41 94.5t16.5 136l113 369q8 29 1 40t-36 15l-33 4l12 39h332l-12 -39l-35 -4q-32 -4 -46.5 -15t-22.5 -40l-113 -370q-18 -57 -21 -101.5t11 -74.5t47 -45.5t88 -15.5q117 0 186 60.5t106 181.5l79 257q18 59 24 91t3 47.5t-13.5 19
t-24.5 5.5l-37 4l12 39h255l-12 -39l-39 -4q-16 -2 -27.5 -5.5t-23 -19t-24 -47.5t-30.5 -91l-79 -259q-48 -155 -142 -230.5t-250 -75.5z" />
    <glyph glyph-name="V" unicode="V" horiz-adv-x="781" 
d="M959 719l-36 -4q-16 -2 -28 -7t-25.5 -17t-31.5 -33.5t-45 -55.5l-496 -628h-61l-13 686q-1 26 -11 38.5t-39 16.5l-32 4l12 39h327l-12 -39l-36 -4q-32 -4 -43 -16t-11 -39l6 -480l317 403q33 41 48 66t17.5 39t-5.5 19.5t-22 7.5l-32 4l12 39h252z" />
    <glyph glyph-name="W" unicode="W" horiz-adv-x="1196" 
d="M1374 719l-36 -4q-16 -2 -28 -7t-25.5 -17t-31.5 -33.5t-45 -55.5l-496 -628h-61l-8 438l-346 -438h-61l-13 686q-1 26 -11 38.5t-39 16.5l-32 4l12 39h327l-12 -39l-36 -4q-32 -4 -43 -16t-11 -39l6 -480l257 327l-5 251h279l-12 -39l-56 -4q-32 -2 -43 -15t-11 -40
l6 -480l317 403q33 41 48 66t17.5 39t-5.5 19.5t-22 7.5l-32 4l12 39h252z" />
    <glyph glyph-name="X" unicode="X" horiz-adv-x="829" 
d="M-67 39l35 4q23 3 42.5 10.5t42.5 24t53 43t75 66.5l209 189l-128 284q-10 23 -23 37t-42 18l-33 4l12 39h340l-12 -39l-35 -4q-61 -7 -39 -55l79 -176l92 83q53 48 81 76.5t35.5 44t-2.5 21.5t-33 8l-20 2l12 39h278l-12 -39l-35 -4q-24 -3 -43.5 -10.5t-42 -24
t-52.5 -43t-75 -66.5l-158 -142l149 -331q10 -23 23 -37t42 -18l33 -4l-12 -39h-340l12 39l35 4q61 7 39 55l-100 223l-144 -130q-53 -48 -81 -76.5t-35.5 -44t3 -21.5t33.5 -8l20 -2l-12 -39h-278z" />
    <glyph glyph-name="Y" unicode="Y" horiz-adv-x="797" 
d="M139 41l65 4q30 2 44.5 13t23.5 40l75 244l-129 318q-5 12 -8 21.5t-8 16.5t-13 11t-22 6l-33 4l12 39h345l-12 -39l-35 -4q-32 -4 -47.5 -17.5t-5.5 -37.5l99 -251l178 174q36 36 56.5 60t27.5 39.5t2 23t-19 9.5l-33 4l12 39h252l-12 -39l-32 -4q-16 -2 -28 -7
t-27.5 -17.5t-37.5 -33.5t-57 -55l-265 -258l-75 -246q-9 -29 -1.5 -40t37.5 -13l63 -4l-13 -41h-392z" />
    <glyph glyph-name="Z" unicode="Z" horiz-adv-x="778" 
d="M656 704h-124q-63 0 -103.5 -3.5t-69 -13t-50.5 -28t-50 -48.5l-63 -67h-41l136 216l257 -2h354l-727 -704h186q63 0 103 3t68.5 13t51 28t50.5 48l62 67h41l-122 -213h-686z" />
    <glyph glyph-name="bracketleft" unicode="[" horiz-adv-x="324" 
d="M68 -107q-17 -48 -6.5 -65t57.5 -19l36 -2l-15 -45h-213l366 1064h213l-15 -45l-38 -2q-24 -1 -41 -5.5t-29.5 -14t-21.5 -25t-17 -39.5z" />
    <glyph glyph-name="backslash" unicode="\" horiz-adv-x="738" 
d="M529 -52l-343 858h100l343 -858h-100z" />
    <glyph glyph-name="bracketright" unicode="]" horiz-adv-x="324" 
d="M284 695q17 48 6.5 65t-57.5 19l-36 2l15 45h213l-366 -1064h-213l15 45l38 2q24 1 41 5.5t29.5 14t21.5 25t17 39.5z" />
    <glyph glyph-name="asciicircum" unicode="^" horiz-adv-x="653" 
d="M606 361h-74l-48 333l-278 -333h-86l349 415h74z" />
    <glyph glyph-name="underscore" unicode="_" horiz-adv-x="536" 
d="M-97 -75h534l-24 -71h-534z" />
    <glyph glyph-name="grave" unicode="`" 
d="M73 609l-172 168l4 11h137l48 -179h-17z" />
    <glyph glyph-name="a" unicode="a" horiz-adv-x="598" 
d="M99 -13q-56 0 -80.5 28.5t-24.5 74.5q0 43 19 92t50.5 97t72 92t83.5 78t84.5 54t75.5 20q24 0 38.5 -10t19.5 -24l19 49h140l-157 -412q-11 -29 -11.5 -42t13.5 -13q16 0 47.5 33t68.5 96l37 -20q-57 -99 -118 -146t-126 -47q-48 0 -58 31t16 100l20 53h-2
q-32 -51 -61 -86.5t-56 -57t-54 -31t-56 -9.5zM178 66q18 0 45 25.5t56.5 66t57.5 90.5t47 100l14 36q10 27 12 45t-2.5 28.5t-13 14.5t-17.5 4q-27 0 -54 -18t-52 -48t-47 -67.5t-38 -77.5t-25.5 -78t-9.5 -68q0 -53 27 -53z" />
    <glyph glyph-name="b" unicode="b" horiz-adv-x="586" 
d="M290 468q-13 -38 -29.5 -71.5t-32.5 -65.5h2q29 41 57.5 76.5t59 61t63.5 40t72 14.5q56 0 85 -29.5t29 -82.5q0 -41 -19.5 -88t-52.5 -94t-77 -91t-92.5 -77.5t-99 -53.5t-96.5 -20q-36 0 -66.5 7t-49 24t-23 46.5t11.5 74.5l192 556q5 14 0.5 24.5t-28.5 13.5l-44 5
l12 35l239 21zM210 43q28 0 55.5 16t52.5 42.5t47 61t38 72t25 75t9 70.5q0 34 -8 49t-23 15q-23 0 -55.5 -26t-65.5 -68.5t-62.5 -96t-47.5 -107.5l-12 -36q-11 -35 5 -51t42 -16z" />
    <glyph glyph-name="c" unicode="c" horiz-adv-x="451" 
d="M154 -13q-63 0 -102.5 37.5t-39.5 106.5q0 49 16.5 97t44.5 91.5t65 80.5t77 64.5t81 43t78 15.5q16 0 32.5 -3.5t29.5 -11t21 -21t8 -32.5q0 -13 -5 -26t-13.5 -23t-21 -16.5t-27.5 -6.5q-17 0 -30 9.5t-25 20.5t-25.5 20.5t-32.5 9.5q-28 0 -51 -22.5t-39.5 -58.5
t-25.5 -81t-9 -90q0 -31 5.5 -51.5t15 -33t23 -18t29.5 -5.5q35 0 69 29t72 94l35 -18q-20 -36 -44.5 -72t-55 -64.5t-69 -46.5t-86.5 -18z" />
    <glyph glyph-name="d" unicode="d" horiz-adv-x="633" 
d="M107 -13q-56 0 -85 28.5t-29 74.5q0 43 19.5 92t51 97t73 92t85 78t86.5 54t78 20q50 0 66 -39l70 211q5 14 0.5 25t-28.5 13l-64 5l12 35l257 21l-223 -668q-10 -30 -11 -42.5t13 -12.5q16 0 47.5 33t68.5 96l37 -20q-57 -99 -118 -146t-126 -47q-48 0 -60.5 31
t12.5 100l22 61h-2q-29 -41 -57.5 -76.5t-59 -61t-63.5 -40t-72 -14.5zM183 66q23 0 55.5 26.5t65.5 68.5t62.5 95.5t47.5 107.5l8 25q14 42 -0.5 64.5t-42.5 22.5t-55.5 -16.5t-52.5 -44t-47 -63.5t-38 -74.5t-25 -76.5t-9 -71q0 -34 8 -49t23 -15z" />
    <glyph glyph-name="e" unicode="e" horiz-adv-x="467" 
d="M156 -13q-64 0 -105 37.5t-41 106.5q0 45 16 91.5t43.5 90t64.5 82t79 67t86 45t87 16.5q51 0 74.5 -21t23.5 -56q0 -44 -22 -74t-50 -49q-23 -6 -53.5 -14t-64 -16l-67 -16t-61.5 -14q-8 -38 -8 -72q0 -31 6.5 -51.5t17 -33t25 -18t30.5 -5.5q38 0 70 29t71 94l36 -18
q-21 -36 -45 -72t-55 -64.5t-69.5 -46.5t-88.5 -18zM326 471q-23 0 -44.5 -13.5t-41 -36t-35.5 -53t-27 -63.5q22 5 42.5 10t37.5 11q34 12 55 25.5t32 27.5t14.5 28.5t3.5 27.5q0 17 -9.5 26.5t-27.5 9.5z" />
    <glyph glyph-name="f" unicode="f" horiz-adv-x="369" 
d="M53 428l9 35l99 36q25 71 61.5 123.5t86.5 93.5q66 55 115 77.5t82 22.5q55 0 55 -58q0 -12 -4.5 -25.5t-13.5 -24.5t-22 -18.5t-30 -7.5q-27 0 -58 11t-67 11q-12 0 -21 -3.5t-16.5 -18t-13.5 -43t-13 -78.5l-8 -59h156l-27 -74h-137l-71 -304q-24 -102 -64 -175.5
t-85.5 -121.5t-92.5 -71t-84 -23q-42 0 -62.5 20t-20.5 46q0 23 15.5 41t43.5 18q18 0 31 -8.5t24.5 -19t22.5 -19t23 -8.5q9 0 17 4t16 18.5t16 42t19 74.5l110 486h-91z" />
    <glyph glyph-name="g" unicode="g" horiz-adv-x="538" 
d="M226 162q-31 0 -58 6l-20 -32q-8 -13 -7.5 -18t11.5 -11l124 -73q67 -40 103.5 -73.5t36.5 -71.5q0 -39 -25.5 -68t-65 -48.5t-88 -29.5t-94.5 -10q-62 0 -113 10.5t-87 28.5t-56 41.5t-20 50.5q0 22 15 41t42 35t64 29t81 23q-35 22 -48.5 38t-13.5 32q0 36 66 74l69 41
q-38 15 -59 44t-21 67q0 46 22 88.5t59 75t86 52t103 19.5q41 0 72.5 -10.5t53.5 -30.5l180 75l-26 -86q-6 -19 -14.5 -24t-25.5 -3l-91 9q14 -25 14 -56q0 -46 -22 -88.5t-59 -75t-85.5 -52t-102.5 -19.5zM259 196q42 0 68.5 49.5t26.5 137.5q0 51 -13.5 78.5t-42.5 27.5
q-42 0 -68.5 -49t-26.5 -137q0 -52 13.5 -79.5t42.5 -27.5zM-21 -124q0 -23 14 -41.5t39 -32t60 -20.5t77 -7q25 0 48 3t41 9.5t28.5 16.5t10.5 23q0 9 -3 16.5t-12.5 17t-28.5 22t-51 31.5l-104 61q-57 -20 -88 -42.5t-31 -56.5z" />
    <glyph glyph-name="h" unicode="h" horiz-adv-x="612" 
d="M230 695q5 14 0.5 24.5t-28.5 13.5l-44 5l12 35l239 21l-107 -309q-21 -60 -37.5 -99.5t-30.5 -70.5h3q39 57 72 96.5t63 64t58 36t57 11.5q36 0 54.5 -13t23.5 -36t-1.5 -54t-21.5 -67l-94 -227q-12 -29 -12 -42t14 -13q16 0 47.5 33t68.5 96l37 -20q-57 -99 -118 -146
t-126 -47q-24 0 -41 7.5t-26 23.5t-7.5 41t15.5 59l91 221q20 48 23.5 70.5t-16.5 22.5q-15 0 -41 -22.5t-57 -64.5t-64.5 -101.5t-62.5 -132.5l-32 -100l-156 -24z" />
    <glyph glyph-name="i" unicode="i" horiz-adv-x="356" 
d="M100 -13q-47 0 -66.5 31.5t7.5 99.5l120 299q5 14 1 24.5t-28 13.5l-43 5l13 35l241 21l-156 -390q-12 -29 -12 -42t14 -13q16 0 47.5 33t68.5 96l37 -20q-57 -99 -118 -146t-126 -47zM329 637q-37 0 -63 26t-26 64q0 37 26 63t63 26q38 0 64 -26t26 -63q0 -38 -26 -64
t-64 -26z" />
    <glyph glyph-name="j" unicode="j" horiz-adv-x="312" 
d="M154 49q-16 -39 -31 -67t-33.5 -49.5t-41.5 -40.5t-56 -40q-17 -11 -40.5 -25t-50.5 -30t-54 -31.5t-51 -28.5l-17 37q44 30 76.5 55t58.5 53.5t48 66t45 93.5l154 375q5 14 1 24.5t-28 13.5l-43 5l13 35l242 21zM338 637q-37 0 -63 26t-26 64q0 37 26 63t63 26
q38 0 64 -26t26 -63q0 -38 -26 -64t-64 -26z" />
    <glyph glyph-name="k" unicode="k" horiz-adv-x="591" 
d="M383 -28q-38 0 -60.5 21t-33.5 53l-68 208l-51 -146l-27 -100l-157 -21l243 708q5 14 0.5 24.5t-28.5 13.5l-44 5l12 35l239 21l-186 -537l133 88q29 19 45.5 38t24.5 36t10 31t2 23q0 26 15.5 38t41.5 12q24 0 44.5 -12t20.5 -37q0 -11 -5 -22t-22 -27t-49.5 -39.5
t-88.5 -59.5l-45 -29l78 -208q7 -18 12.5 -22.5t12.5 -4.5q12 0 34 23.5t56 78.5l37 -22q-29 -50 -54.5 -82.5t-49 -52t-46 -27.5t-46.5 -8z" />
    <glyph glyph-name="l" unicode="l" horiz-adv-x="336" 
d="M231 695q5 14 0.5 24.5t-28.5 13.5l-44 5l12 35l239 21l-232 -668q-11 -30 -11.5 -42.5t13.5 -12.5q16 0 47.5 33t68.5 96l37 -20q-57 -99 -118 -146t-126 -47q-48 0 -65.5 30.5t6.5 100.5z" />
    <glyph glyph-name="m" unicode="m" horiz-adv-x="898" 
d="M246 315h3q39 57 72 96.5t63 64t58 36t57 11.5q36 0 53 -14t18.5 -41t-12 -65.5t-38.5 -87.5h3q39 57 72 96.5t63 64t58 36t57 11.5q36 0 54.5 -13t23.5 -36t-1.5 -54t-21.5 -67l-94 -227q-12 -29 -12 -42t14 -13q16 0 47.5 33t68.5 96l37 -20q-57 -99 -118 -146
t-126 -47q-24 0 -41 7.5t-26 23.5t-7.5 41t15.5 59l91 221q20 48 23.5 70.5t-16.5 22.5q-15 0 -41 -22.5t-57 -64.5t-64.5 -101.5t-62.5 -132.5l-33 -101l-159 -23l136 352q19 48 23 70.5t-16 22.5q-15 0 -41 -22.5t-57 -64.5t-64.5 -101.5t-62.5 -132.5l-32 -100l-160 -24
l166 430q5 14 1 24.5t-28 13.5l-43 5l13 35l226 21z" />
    <glyph glyph-name="n" unicode="n" horiz-adv-x="624" 
d="M159 417q5 14 1 24.5t-28 13.5l-43 5l13 35l226 21l-82 -201h3q39 57 72 96.5t63 64t58 36t57 11.5q36 0 54.5 -13t23.5 -36t-1.5 -54t-21.5 -67l-94 -227q-12 -29 -12 -42t14 -13q16 0 47.5 33t68.5 96l37 -20q-57 -99 -118 -146t-126 -47q-24 0 -41 7.5t-26 23.5
t-7.5 41t15.5 59l91 221q20 48 23.5 70.5t-16.5 22.5q-15 0 -41 -22.5t-57 -64.5t-64.5 -101.5t-62.5 -132.5l-32 -100l-160 -24z" />
    <glyph glyph-name="o" unicode="o" horiz-adv-x="564" 
d="M183 -13q-79 0 -123 41.5t-44 110.5q0 48 15.5 95.5t42 90t62.5 79t77 63t85 41.5t87 15q39 0 70.5 -11.5t53 -32.5t33 -49t11.5 -61q0 -48 -15.5 -95t-42.5 -89.5t-63 -78.5t-77 -62.5t-85 -41.5t-87 -15zM220 39q31 0 63 30.5t57 79.5t41 111t16 124q0 42 -10 64.5
t-38 22.5q-32 0 -63.5 -31t-57 -80.5t-41.5 -111.5t-16 -124q0 -42 10 -63.5t39 -21.5z" />
    <glyph glyph-name="p" unicode="p" horiz-adv-x="609" 
d="M293 407h1q42 48 93.5 82t108.5 34q53 0 82 -34t29 -94q0 -48 -17 -97.5t-46 -94.5t-66.5 -84.5t-79.5 -69t-84.5 -46t-81.5 -16.5q-22 0 -40.5 7t-29.5 21l-89 -263h-144l227 665q5 14 1 24.5t-28 13.5l-43 5l13 35l232 21zM241 35q30 0 57 16.5t50 43.5t41.5 61.5
t31.5 71.5t20 72.5t7 64.5q0 35 -10 56t-34 21q-26 0 -56.5 -23.5t-71.5 -72.5l-78 -227q-9 -26 -7.5 -42.5t9 -25.5t19 -12.5t22.5 -3.5z" />
    <glyph glyph-name="q" unicode="q" horiz-adv-x="591" 
d="M475 538h141l-272 -786h-142l89 259q13 38 32 82t38 86h-2q-29 -41 -57.5 -76.5t-59 -61t-63.5 -40t-72 -14.5q-56 0 -85 28.5t-29 74.5q0 43 19.5 92t51 97t73 92t85 78t86.5 54t78 20q26 0 44 -10t26 -29zM183 66q23 0 55.5 26.5t65.5 68.5t62.5 95.5t47.5 107.5l8 25
q14 42 -0.5 64.5t-42.5 22.5t-55.5 -16.5t-52.5 -44t-47 -63.5t-38 -74.5t-25 -76.5t-9 -71q0 -34 8 -49t23 -15z" />
    <glyph glyph-name="r" unicode="r" horiz-adv-x="450" 
d="M159 417q5 14 1 24.5t-28 13.5l-43 5l13 35l216 21l-114 -272h4q15 34 33 66t37 60.5t37 52t33 40.5q31 35 56.5 47.5t51.5 12.5q29 0 44.5 -16t15.5 -45q0 -15 -5.5 -29t-15 -24t-22 -16t-25.5 -6q-15 0 -24.5 3.5t-17 8t-15 8t-17.5 3.5q-24 0 -61 -51
q-28 -38 -62 -100t-66 -144l-32 -104l-160 -24z" />
    <glyph glyph-name="s" unicode="s" horiz-adv-x="425" 
d="M127 -13q-30 0 -56.5 7t-46.5 19.5t-32 30t-12 38.5q0 29 20 46.5t47 17.5q23 0 35 -17.5t22.5 -38t25 -38t41.5 -17.5q30 0 44.5 16t14.5 34q0 20 -14.5 46.5t-39.5 58.5l-32 41q-50 64 -50 118q0 39 22.5 71t56.5 55t74.5 35.5t75.5 12.5q54 0 86 -21t32 -58
q0 -29 -18 -45.5t-44 -16.5q-20 0 -31 13.5t-22.5 29t-27.5 29t-44 13.5q-22 0 -34.5 -10.5t-12.5 -27.5q0 -16 10 -39t37 -58l35 -45q29 -36 43 -66t14 -62q0 -41 -20.5 -72.5t-53 -54t-71 -34t-74.5 -11.5z" />
    <glyph glyph-name="t" unicode="t" horiz-adv-x="408" 
d="M197 126q-11 -30 -11.5 -42.5t13.5 -12.5q16 0 53 33t74 96l37 -20q-57 -98 -123.5 -145.5t-131.5 -47.5q-48 0 -67 31t8 100l120 310h-99l29 74h98l44 112h143l-43 -112h126l-29 -74h-125z" />
    <glyph glyph-name="u" unicode="u" horiz-adv-x="628" 
d="M207 170q-19 -48 -23 -70t16 -22q15 0 41 22.5t57 64.5t64.5 101t62.5 132l24 67l166 48l-151 -387q-11 -29 -11.5 -42t13.5 -13q16 0 47.5 33t68.5 96l37 -20q-57 -99 -118 -146t-126 -47q-48 0 -61.5 32.5t16.5 98.5l34 76h-3q-39 -57 -72 -96t-63 -64t-58 -36t-57 -11
q-36 0 -54 13t-23 36t1.5 54t20.5 66l103 261q5 14 1 24.5t-28 13.5l-43 5l13 35l242 21z" />
    <glyph glyph-name="v" unicode="v" horiz-adv-x="539" 
d="M80 0q6 116 19 224.5t36 192.5q4 14 0.5 24.5t-27.5 13.5l-43 5l13 35l223 21q-13 -41 -25 -91.5t-22.5 -104.5t-17.5 -107.5t-10 -100.5q35 36 70 70t66 66t55 61.5t38 55.5q7 15 8 29.5t-0.5 29t-4.5 27.5t-3 24q0 15 6 24t16 14.5t21.5 7.5t22.5 2q10 0 22.5 -3
t23 -10.5t18 -19t7.5 -29.5q0 -37 -42.5 -92t-115.5 -124q-57 -54 -115.5 -112t-125.5 -133h-113z" />
    <glyph glyph-name="w" unicode="w" horiz-adv-x="818" 
d="M80 0q6 116 19 224.5t36 192.5q4 14 0.5 24.5t-27.5 13.5l-43 5l13 35l223 21q-13 -41 -25 -91.5t-22 -104.5t-17.5 -108t-10.5 -100q55 46 102 107.5t80 117.5q4 34 7.5 65t8.5 57l150 55q-14 -87 -24.5 -181t-16.5 -201q66 66 121 125.5t80 107.5q7 15 8 29.5t-0.5 29
t-4.5 27.5t-3 24q0 15 6 24t16 14.5t21.5 7.5t22.5 2q10 0 22.5 -3t23 -10.5t18 -19t7.5 -29.5q0 -37 -42.5 -92t-115.5 -124q-29 -27 -56 -54.5t-54.5 -57.5t-57.5 -63t-63 -70h-99q2 50 6 112.5t9 127.5q-44 -61 -98 -121.5t-117 -118.5h-103z" />
    <glyph glyph-name="x" unicode="x" horiz-adv-x="622" 
d="M-43 62q0 27 17 45t43 18q17 0 26 -9.5t15.5 -21t14 -21t21.5 -9.5t27 10q6 5 16 13.5t25 25t36 43t50 68.5l-19 157q-8 66 -33 66q-18 0 -47 -26.5t-62 -66.5l-30 29q55 69 107.5 104.5t97.5 35.5q22 0 38.5 -4t29 -17.5t20.5 -40t14 -72.5l5 -45q36 54 65 89t54.5 55
t48 27.5t45.5 7.5q38 0 64 -20t26 -55q0 -27 -17 -45t-43 -18q-17 0 -26 9.5t-15.5 21t-14 21t-21.5 9.5t-27 -10q-7 -6 -17 -14.5t-25.5 -25.5t-37 -44.5t-51.5 -71.5l18 -151q7 -66 33 -66q18 0 47 26.5t62 66.5l30 -29q-55 -69 -107.5 -104.5t-97.5 -35.5q-22 0 -38.5 4
t-29 18t-20.5 41t-14 73l-4 37q-35 -53 -63.5 -86.5t-53.5 -52.5t-47.5 -26.5t-44.5 -7.5q-38 0 -64 20t-26 55z" />
    <glyph glyph-name="y" unicode="y" horiz-adv-x="563" 
d="M-83 -267q-32 0 -51.5 15.5t-19.5 42.5q0 31 22 41.5t51.5 11t59.5 -1.5t47 6q22 10 50 38.5t72 90.5l-18 440q-1 20 -5.5 28t-21.5 10l-43 5l13 35l205 21l2 -361l122 186q34 52 60.5 87t48.5 56t41.5 30t39.5 9q29 0 43 -14t14 -36t-13.5 -40t-53.5 -26
q-19 -4 -35.5 -9.5t-33 -17.5t-34.5 -32t-41 -53l-198 -285q-17 -25 -38.5 -52.5t-44.5 -55t-46.5 -53t-45.5 -44.5q-35 -32 -76 -52t-72 -20z" />
    <glyph glyph-name="z" unicode="z" horiz-adv-x="543" 
d="M344 -48q-27 0 -55.5 16.5t-59 38.5t-63 43.5t-68.5 31.5q-10 -29 -19.5 -47.5t-19.5 -29t-20 -14.5t-20 -4q-18 0 -29.5 10t-11.5 27q0 16 12.5 33.5t46.5 43.5l329 257q-34 9 -63.5 21t-55 22.5t-45.5 18t-34 7.5q-16 0 -25.5 -7t-9.5 -21q0 -15 8.5 -22t18 -13.5
t18 -16t8.5 -29.5t-15.5 -34.5t-36.5 -14.5q-30 0 -45 20.5t-15 44.5t9.5 49t24.5 48t33.5 42t36.5 30q20 13 34.5 16t26.5 3q17 0 46 -9t60.5 -19.5t62 -19.5t50.5 -9q33 0 59 15t48 34l31 -32l-404 -317q26 -7 52 -23t50.5 -32.5t47 -29t42.5 -12.5q35 0 56 26.5t38 66.5
l41 -17q-16 -39 -35.5 -73.5t-42 -61t-47 -42t-50.5 -15.5z" />
    <glyph glyph-name="braceleft" unicode="{" horiz-adv-x="374" 
d="M121 314q30 -3 59 -17.5t46 -43.5t16 -75.5t-32 -113.5l-43 -94q-16 -34 -23 -61.5t-2.5 -48.5t22 -35t50.5 -21l-17 -42q-43 5 -82.5 22.5t-64 48.5t-29 76.5t22.5 106.5l52 116q21 46 22 76t-11.5 48.5t-36.5 27.5t-54 14l14 41q33 5 62.5 13t53 25.5t39.5 46t23 75.5
l10 70q16 118 88 186.5t209 67.5l3 -45q-45 -2 -73.5 -10.5t-45.5 -27t-25 -49t-13 -76.5l-5 -48q-7 -68 -32.5 -114t-60 -75t-72.5 -43.5t-70 -17.5v-3z" />
    <glyph glyph-name="bar" unicode="|" horiz-adv-x="351" 
d="M143 826h91v-1064h-91v1064z" />
    <glyph glyph-name="braceright" unicode="}" horiz-adv-x="374" 
d="M280 271q-30 3 -59 17.5t-46 43.5t-16 75.5t32 113.5l43 94q16 34 23 61.5t2.5 48.5t-22 35t-50.5 21l17 42q43 -5 82.5 -22.5t64 -48.5t29 -76.5t-22.5 -106.5l-52 -116q-21 -46 -22 -76t11.5 -48.5t36.5 -27.5t54 -14l-14 -41q-33 -5 -62.5 -13t-53 -25.5t-39.5 -46
t-23 -75.5l-10 -70q-16 -118 -88 -186.5t-209 -67.5l-3 45q45 2 73.5 10.5t45.5 27t25 49t13 76.5l5 48q7 68 32.5 114t60 75t72.5 43.5t70 17.5v3z" />
    <glyph glyph-name="asciitilde" unicode="~" horiz-adv-x="653" 
d="M209 338q42 0 75.5 -13.5t62 -29.5t54 -29.5t52.5 -13.5q28 0 51.5 17.5t25.5 63.5h75q-2 -33 -14.5 -60.5t-32.5 -47.5t-47 -31t-59 -11q-37 0 -68 13.5t-60 29.5t-57.5 29.5t-58.5 13.5q-14 0 -27.5 -4t-24 -13.5t-17.5 -25t-8 -38.5h-75q2 33 14.5 60.5t32.5 47.5
t47 31t59 11z" />
    <glyph glyph-name="uni00A0" unicode="&#xa0;" horiz-adv-x="235" 
 />
    <glyph glyph-name="exclamdown" unicode="&#xa1;" horiz-adv-x="284" 
d="M179 269q-19 -66 -29 -113t-15 -84.5t-8 -68.5t-8 -65t-15 -75.5t-29 -97.5q-4 -12 -20 -19.5t-37 -10.5t-44 -1.5t-40.5 8t-27 18t-3.5 28.5q17 51 34 88.5t34.5 69t35.5 61.5t38 66t42 83t48 113h44zM200 523q19 0 36.5 -7.5t30.5 -21t20.5 -31.5t7.5 -39
q0 -20 -7.5 -37t-20.5 -30t-30.5 -20.5t-36.5 -7.5q-21 0 -39 7.5t-31.5 20.5t-21 30t-7.5 37q0 42 28.5 70.5t70.5 28.5z" />
    <glyph glyph-name="cent" unicode="&#xa2;" horiz-adv-x="479" 
d="M165 -13q-63 0 -102.5 37.5t-39.5 106.5q0 67 31 132.5t79 119t105.5 90.5t111.5 47l33 100h50l-32 -98q29 -2 52 -17.5t23 -49.5q0 -13 -5 -26t-13.5 -23t-21 -16.5t-27.5 -6.5q-17 0 -30 9.5t-25 20.5t-25.5 20.5t-32.5 9.5q-28 0 -51 -22.5t-39.5 -58.5t-25.5 -81
t-9 -90q0 -31 5.5 -51.5t15 -33t23 -18t29.5 -5.5q35 0 69 29t72 94l35 -18q-17 -30 -36 -59.5t-42 -55t-50.5 -46t-61.5 -30.5l-37 -117h-50l34 107h-12z" />
    <glyph glyph-name="sterling" unicode="&#xa3;" horiz-adv-x="699" 
d="M578 344h-180q-17 -45 -57.5 -84.5t-102.5 -70.5q18 -14 50 -28.5t68 -26.5t70 -20t55 -8q40 0 67.5 18t54.5 64l34 -18l-25 -49q-21 -41 -45.5 -69.5t-51.5 -45.5t-55.5 -24.5t-56.5 -7.5q-33 0 -69.5 11.5t-72.5 30.5t-68.5 42.5t-57.5 46.5q-43 -118 -115 -118
q-19 0 -30.5 10.5t-11.5 25.5q0 10 3 20t13.5 21t30.5 23.5t53 27.5q34 15 63.5 39t52.5 54t38 64.5t21 71.5h-160l28 74h134q-4 32 -11.5 63.5t-7.5 67.5q0 51 36 93.5t90 72.5t115.5 47t112.5 17q69 0 112 -25t43 -70q0 -26 -17.5 -43.5t-46.5 -17.5q-17 0 -28 5.5
t-19 13.5t-15 18.5t-16 21.5q-15 18 -34.5 29t-55.5 11q-26 0 -50.5 -8.5t-43.5 -24.5t-31 -39.5t-12 -54.5q0 -22 4.5 -43t10.5 -42.5t11.5 -44t7.5 -47.5h196z" />
    <glyph glyph-name="yen" unicode="&#xa5;" horiz-adv-x="850" 
d="M150 47l60 5q15 1 25.5 4t18 9t12.5 16t10 24l27 77h-201l22 62h200l24 68h-199l22 62h166l-77 284q-7 25 -15 36t-35 14l-36 4l15 46h338l-15 -46l-59 -4q-31 -2 -41.5 -14t-4.5 -36l70 -274l124 124q56 56 89.5 94t45.5 61.5t5 34t-32 12.5l-32 2l15 46h284l-15 -46
l-27 -2q-24 -2 -45 -11t-49 -31.5t-66.5 -61t-97.5 -98.5l-131 -134h169l-22 -62h-200l-23 -68h198l-22 -62h-198l-26 -77q-10 -29 -4.5 -40t34.5 -13l56 -5l-15 -47h-357z" />
    <glyph glyph-name="brokenbar" unicode="&#xa6;" horiz-adv-x="351" 
d="M143 826h91v-421h-91v421zM143 183h91v-421h-91v421z" />
    <glyph glyph-name="section" unicode="&#xa7;" horiz-adv-x="667" 
d="M150 -196q-45 0 -83 9.5t-65 26.5t-42 41.5t-15 53.5t21 50.5t55 21.5q20 0 32.5 -7.5t21 -20.5t15 -30t14.5 -36q4 -11 10 -22t14.5 -20t21 -14.5t31.5 -5.5q30 0 55.5 19.5t43.5 48.5t28 64t10 67q0 40 -10.5 72t-34.5 71l-54 87q-26 43 -43 87.5t-17 97.5
q0 66 33.5 123t89 99.5t127.5 67t150 24.5q88 0 139.5 -31t51.5 -85q0 -33 -22.5 -51.5t-54.5 -18.5q-18 0 -31 8t-22 20t-15.5 25l-11.5 23q-12 24 -30 40.5t-52 16.5q-33 0 -58.5 -13.5t-43 -35.5t-27 -50t-9.5 -56q0 -40 12.5 -73t35.5 -69l53 -87q16 -27 29.5 -50.5
t23 -47.5t14.5 -49t5 -55q0 -61 -31 -121t-84.5 -108t-125.5 -77.5t-155 -29.5zM402 89q0 -25 -4.5 -52t-16 -54t-31 -52.5t-48.5 -47.5q45 25 76 54.5t50 62t27.5 65t8.5 63.5q0 25 -6.5 49t-16.5 46t-22.5 42.5t-24.5 40.5l-54 87q-19 30 -31 62.5t-12 70.5q0 45 16 90
t63 80q-41 -21 -68 -47t-42.5 -54t-21.5 -55t-6 -49q0 -41 14.5 -78t34.5 -69l54 -87q27 -44 44 -83.5t17 -84.5z" />
    <glyph glyph-name="dieresis" unicode="&#xa8;" 
d="M113 636q-29 0 -48.5 20t-19.5 49q0 30 19.5 49.5t48.5 19.5t48.5 -19.5t19.5 -49.5q0 -29 -19.5 -49t-48.5 -20zM-113 636q-29 0 -48.5 20t-19.5 49q0 30 19.5 49.5t48.5 19.5t48.5 -19.5t19.5 -49.5q0 -29 -19.5 -49t-48.5 -20z" />
    <glyph glyph-name="copyright" unicode="&#xa9;" horiz-adv-x="922" 
d="M103 383q0 88 31.5 160.5t85.5 125t126.5 81.5t155.5 29t155.5 -29t126.5 -81.5t85.5 -125t31.5 -160.5t-31.5 -160.5t-85.5 -125t-126.5 -81.5t-155.5 -29t-155.5 29t-126.5 81.5t-85.5 125t-31.5 160.5zM166 383q0 -78 26 -141.5t71 -108t106.5 -69t132.5 -24.5
t132.5 24.5t106.5 69t71 108t26 141.5t-26 141.5t-71 108t-106.5 69t-132.5 24.5t-132.5 -24.5t-106.5 -69t-71 -108t-26 -141.5zM531 207q35 0 69 14t53 51l14 28h29l-31 -119q-26 -10 -61 -14.5t-73 -4.5q-63 0 -111.5 18t-81.5 48.5t-50 71.5t-17 87t18 87t51.5 71.5
t82.5 48.5t111 18q40 0 74.5 -4.5t63.5 -15.5l18 -114h-29l-10 24q-19 39 -54.5 52t-71.5 13q-21 0 -44.5 -5.5t-44 -22t-33.5 -47.5t-13 -82q0 -42 9 -79t26.5 -64.5t44 -43.5t61.5 -16z" />
    <glyph glyph-name="ordfeminine" unicode="&#xaa;" horiz-adv-x="540" 
d="M197 367q-48 0 -69 23t-21 62q0 34 15.5 73.5t41 78t58 74t67 63t68 43.5t61.5 16q21 0 32 -8t16 -19l16 41h124l-127 -333q-10 -23 -9 -33t12 -10t34 25t53 77l32 -17q-45 -81 -94.5 -118.5t-105.5 -37.5q-39 0 -48.5 25.5t11.5 83.5l16 40h-2q-27 -45 -50.5 -74
t-44.5 -45.5t-42 -23t-44 -6.5zM264 434q15 0 36.5 21.5t44 55t44 74t36.5 78.5l8 21q9 23 10.5 37.5t-1.5 23t-10 12t-14 3.5q-32 0 -63.5 -32t-56 -77t-40 -93.5t-15.5 -81.5q0 -42 21 -42z" />
    <glyph glyph-name="guillemotleft" unicode="&#xab;" horiz-adv-x="560" 
d="M325 484l36 -36l-190 -203l44 -208l-50 -18l-120 232zM535 484l36 -36l-190 -203l44 -208l-50 -18l-120 232z" />
    <glyph glyph-name="uni00AD" unicode="&#xad;" horiz-adv-x="422" 
d="M82 303h294l-28 -81h-294z" />
    <glyph glyph-name="registered" unicode="&#xae;" horiz-adv-x="922" 
d="M103 383q0 88 31.5 160.5t85.5 125t126.5 81.5t155.5 29t155.5 -29t126.5 -81.5t85.5 -125t31.5 -160.5t-31.5 -160.5t-85.5 -125t-126.5 -81.5t-155.5 -29t-155.5 29t-126.5 81.5t-85.5 125t-31.5 160.5zM166 383q0 -78 26 -141.5t71 -108t106.5 -69t132.5 -24.5
t132.5 24.5t106.5 69t71 108t26 141.5t-26 141.5t-71 108t-106.5 69t-132.5 24.5t-132.5 -24.5t-106.5 -69t-71 -108t-26 -141.5zM672 172q-25 0 -45 5t-35.5 18t-26.5 36.5t-18 61.5q-5 29 -13 46t-18 26t-22.5 11.5t-25.5 2.5h-24v-140q0 -16 7.5 -23t25.5 -9l15 -1v-26
h-210v26l15 1q19 2 26.5 9t7.5 22v314q0 15 -7.5 22t-26.5 9l-15 1v26h208q41 0 77 -5.5t62.5 -17.5t41.5 -31t15 -46q0 -39 -27.5 -65t-97.5 -38v-2q39 -4 67.5 -31t39.5 -68l8 -31q8 -32 23 -51t44 -11l7 -25q-22 -8 -37.5 -12t-40.5 -4zM493 415q44 0 58 23.5t14 58.5
q0 42 -22 59.5t-53 17.5h-8q-26 0 -32 -2.5t-6 -10.5v-146h49z" />
    <glyph glyph-name="macron" unicode="&#xaf;" 
d="M-145 737h314l-24 -68h-314z" />
    <glyph glyph-name="degree" unicode="&#xb0;" horiz-adv-x="422" 
d="M315 441q-36 0 -67 13t-54 36t-36 54t-13 66t13 66t36 54t54 36t67 13t67 -13t54 -36t36 -54t13 -66t-13 -66t-36 -54t-54 -36t-67 -13zM315 504q20 0 38.5 7.5t32.5 21.5t22 33.5t8 43.5t-8 43.5t-22 33.5t-32.5 21.5t-38.5 7.5t-38.5 -7.5t-32.5 -21.5t-22 -33.5
t-8 -43.5t8 -43.5t22 -33.5t32.5 -21.5t38.5 -7.5z" />
    <glyph glyph-name="plusminus" unicode="&#xb1;" horiz-adv-x="653" 
d="M271 283h-209v75h209v158h79v-158h209v-75h-209v-163h-79v163zM62 75h497v-75h-497v75z" />
    <glyph glyph-name="uni00B2" unicode="&#xb2;" horiz-adv-x="352" 
d="M58 401l5 17q88 63 145.5 110.5t91 82.5t46.5 60.5t13 44.5q0 25 -15 37t-41 12q-53 0 -89 -51l-25 17q32 48 69 73t91 25q51 0 79 -23t28 -62q0 -32 -17.5 -61t-47.5 -56.5t-70.5 -55.5t-86.5 -56l-48 -30h95q21 0 36 2.5t27 8.5t22.5 16.5t22.5 26.5l19 -10l-73 -128
h-277z" />
    <glyph glyph-name="uni00B3" unicode="&#xb3;" horiz-adv-x="335" 
d="M201 394q-50 0 -80 22.5t-30 57.5q0 19 12 33.5t35 14.5q16 0 24.5 -7t13.5 -18t8 -23t8.5 -23t14.5 -18t26 -7q12 0 23.5 4.5t21 15.5t15.5 28t6 43q0 51 -20.5 74t-49.5 20l-11 -1l-2 31l35 7q14 2 30.5 7t31 13.5t24 20.5t9.5 29q0 26 -16.5 37t-37.5 11
q-12 0 -30.5 -5.5t-37.5 -31.5l-24 21q30 45 66 62t69 17q49 0 76 -22t27 -50q0 -34 -23 -54.5t-68 -31.5v-3q26 -18 37.5 -42.5t11.5 -54.5t-16.5 -61.5t-43.5 -57t-62 -42t-73 -16.5z" />
    <glyph glyph-name="acute" unicode="&#xb4;" 
d="M-2 788h162l-4 -11l-294 -168h-22z" />
    <glyph glyph-name="paragraph" unicode="&#xb6;" horiz-adv-x="615" 
d="M77 -180q-42 0 -66.5 19t-24.5 52q0 25 16.5 42t41.5 17q23 0 36 -12t24 -23q26 -26 64 -26q35 0 71.5 32.5t57.5 98.5l92 283q-27 -8 -52.5 -12.5t-51.5 -4.5q-43 0 -75 13t-53.5 36.5t-32.5 54.5t-11 67q0 59 28 113.5t80.5 96t128 66.5t170.5 25h214l-15 -46l-49 -4
q-34 -5 -46 -17t-20 -38l-179 -551q-18 -57 -56.5 -112.5t-99.5 -100.5q-53 -38 -103.5 -53.5t-88.5 -15.5z" />
    <glyph glyph-name="periodcentered" unicode="&#xb7;" horiz-adv-x="305" 
d="M154 165q-20 0 -37 7.5t-30 21t-20.5 31.5t-7.5 39q0 19 7.5 36.5t20.5 30.5t30 20.5t37 7.5q21 0 39 -7.5t31.5 -20.5t21 -30.5t7.5 -36.5q0 -42 -28.5 -70.5t-70.5 -28.5z" />
    <glyph glyph-name="cedilla" unicode="&#xb8;" 
d="M-52 -265q-28 0 -48 6t-32.5 15t-18.5 20.5t-6 22.5q0 12 6 20.5t15 13t19.5 4t20.5 -4.5q1 -32 18 -48.5t42 -16.5q43 0 43 29q0 18 -22 35.5t-68 46.5l156 122h51l-109 -85q27 -18 43.5 -38.5t16.5 -46.5q0 -42 -36 -68.5t-91 -26.5z" />
    <glyph glyph-name="uni00B9" unicode="&#xb9;" horiz-adv-x="268" 
d="M251 748h-67l9 27q57 2 92.5 14.5t58.5 35.5h34l-129 -375q-4 -11 -1 -13.5t11 -3.5l38 -2l-11 -30h-214l11 31l39 1q15 1 19 4t8 14z" />
    <glyph glyph-name="ordmasculine" unicode="&#xba;" horiz-adv-x="482" 
d="M259 367q-63 0 -101 31.5t-38 90.5q0 60 27.5 116t71 99.5t98 69.5t108.5 26q63 0 101 -34t38 -91q0 -59 -27.5 -114.5t-71 -98.5t-98 -69t-108.5 -26zM292 411q22 0 46 22.5t44 61t33 88.5t13 106q0 32 -7 49.5t-28 17.5q-22 0 -46 -23t-44.5 -62t-33.5 -89.5
t-13 -105.5q0 -32 6.5 -48.5t29.5 -16.5z" />
    <glyph glyph-name="guillemotright" unicode="&#xbb;" horiz-adv-x="558" 
d="M26 19l-36 36l190 203l-44 208l50 18l120 -232zM236 19l-36 36l190 203l-44 208l50 18l120 -232z" />
    <glyph glyph-name="onequarter" unicode="&#xbc;" horiz-adv-x="912" 
d="M232 688h-67l9 27q57 2 92.5 14.5t58.5 35.5h34l-129 -375q-4 -11 -1 -13.5t11 -3.5l38 -2l-11 -30h-214l11 31l39 1q15 1 19 4t8 14zM827 758h104l-840 -758h-104zM669 98h-187l9 25l300 294h89l-90 -262h75l-20 -57h-75l-34 -98h-101zM689 155l57 166l-167 -166h110z
" />
    <glyph glyph-name="onehalf" unicode="&#xbd;" horiz-adv-x="876" 
d="M232 688h-67l9 27q57 2 92.5 14.5t58.5 35.5h34l-129 -375q-4 -11 -1 -13.5t11 -3.5l38 -2l-11 -30h-214l11 31l39 1q15 1 19 4t8 14zM827 758h104l-840 -758h-104zM460 0l5 17q88 63 145.5 110.5t91 82.5t46.5 60.5t13 44.5q0 25 -15 37t-41 12q-53 0 -89 -51l-25 17
q32 48 69 73t91 25q51 0 79 -23t28 -62q0 -32 -17.5 -61t-47.5 -56.5t-70.5 -55.5t-86.5 -56l-48 -30h95q21 0 36 2.5t27 8.5t22.5 16.5t22.5 26.5l19 -10l-73 -128h-277z" />
    <glyph glyph-name="threequarters" unicode="&#xbe;" horiz-adv-x="930" 
d="M183 334q-50 0 -80 22.5t-30 57.5q0 19 12 33.5t35 14.5q16 0 24.5 -7t13.5 -18t8 -23t8.5 -23t14.5 -18t26 -7q12 0 23.5 4.5t21 15.5t15.5 28t6 43q0 51 -20.5 74t-49.5 20l-11 -1l-2 31l35 7q14 2 30.5 7t31 13.5t24 20.5t9.5 29q0 26 -16.5 37t-37.5 11
q-12 0 -30.5 -5.5t-37.5 -31.5l-24 21q30 45 66 62t69 17q49 0 76 -22t27 -50q0 -34 -23 -54.5t-68 -31.5v-3q26 -18 37.5 -42.5t11.5 -54.5t-16.5 -61.5t-43.5 -57t-62 -42t-73 -16.5zM845 758h104l-840 -758h-104zM687 98h-187l9 25l300 294h89l-90 -262h75l-20 -57h-75
l-34 -98h-101zM707 155l57 166l-167 -166h110z" />
    <glyph glyph-name="questiondown" unicode="&#xbf;" horiz-adv-x="621" 
d="M356 108q-7 -25 -14.5 -41.5t-20 -27.5t-33 -18t-53.5 -13l-71 -13q-36 -7 -60 -14t-38 -16t-20 -21t-6 -30q0 -24 12.5 -46t34.5 -39.5t52.5 -28t67.5 -10.5q77 0 103 48q13 23 31.5 40.5t47.5 17.5t51.5 -18t22.5 -47q0 -45 -56.5 -71.5t-157.5 -26.5q-62 0 -114.5 17
t-91.5 48.5t-61 75.5t-22 98q0 28 6 51t21.5 41t42 30.5t66.5 20.5l149 29q23 4 37 8t24 11t17 18t15 30l26 60h39zM414 523q19 0 36.5 -7.5t30.5 -21t20.5 -31.5t7.5 -39q0 -20 -7.5 -37t-20.5 -30t-30.5 -20.5t-36.5 -7.5q-21 0 -39 7.5t-31.5 20.5t-21 30t-7.5 37
q0 42 28.5 70.5t70.5 28.5z" />
    <glyph glyph-name="Agrave" unicode="&#xc0;" horiz-adv-x="780" 
d="M-98 39l36 4q16 2 28 7t25.5 17t31.5 33t45 56l496 633h61l13 -691q0 -26 10.5 -38.5t39.5 -16.5l32 -4l-12 -39h-327l12 39l36 4q32 4 43 16t11 39l-2 164h-253l-68 -87q-32 -42 -47.5 -67t-18 -39t5.5 -19t22 -7l32 -4l-12 -39h-252zM480 331l-3 251l-196 -251h199z
M585 973l55 -129h-19l-208 126l1 3h171z" />
    <glyph glyph-name="Aacute" unicode="&#xc1;" horiz-adv-x="780" 
d="M-98 39l36 4q16 2 28 7t25.5 17t31.5 33t45 56l496 633h61l13 -691q0 -26 10.5 -38.5t39.5 -16.5l32 -4l-12 -39h-327l12 39l36 4q32 4 43 16t11 39l-2 164h-253l-68 -87q-32 -42 -47.5 -67t-18 -39t5.5 -19t22 -7l32 -4l-12 -39h-252zM480 331l-3 251l-196 -251h199z
M885 970l-300 -126h-25l133 129h193z" />
    <glyph glyph-name="Acircumflex" unicode="&#xc2;" horiz-adv-x="780" 
d="M-98 39l36 4q16 2 28 7t25.5 17t31.5 33t45 56l496 633h61l13 -691q0 -26 10.5 -38.5t39.5 -16.5l32 -4l-12 -39h-327l12 39l36 4q32 4 43 16t11 39l-2 164h-253l-68 -87q-32 -42 -47.5 -67t-18 -39t5.5 -19t22 -7l32 -4l-12 -39h-252zM480 331l-3 251l-196 -251h199z
M661 988l97 -154h-20l-103 62l-197 -62h-26l233 154h16z" />
    <glyph glyph-name="Atilde" unicode="&#xc3;" horiz-adv-x="780" 
d="M-98 39l36 4q16 2 28 7t25.5 17t31.5 33t45 56l496 633h61l13 -691q0 -26 10.5 -38.5t39.5 -16.5l32 -4l-12 -39h-327l12 39l36 4q32 4 43 16t11 39l-2 164h-253l-68 -87q-32 -42 -47.5 -67t-18 -39t5.5 -19t22 -7l32 -4l-12 -39h-252zM480 331l-3 251l-196 -251h199z
M437 834q10 67 38.5 104.5t83.5 37.5q23 0 42.5 -10t38.5 -22t37 -22t38 -10q9 0 17 1.5t15.5 8t14 18.5t12.5 33h21q-7 -45 -18.5 -72t-26 -41.5t-31 -19t-32.5 -4.5q-26 0 -45 10t-36.5 21.5t-35.5 21.5t-42 10q-10 0 -20.5 -2.5t-20 -9.5t-17 -20t-12.5 -33h-21z" />
    <glyph glyph-name="Adieresis" unicode="&#xc4;" horiz-adv-x="780" 
d="M-98 39l36 4q16 2 28 7t25.5 17t31.5 33t45 56l496 633h61l13 -691q0 -26 10.5 -38.5t39.5 -16.5l32 -4l-12 -39h-327l12 39l36 4q32 4 43 16t11 39l-2 164h-253l-68 -87q-32 -42 -47.5 -67t-18 -39t5.5 -19t22 -7l32 -4l-12 -39h-252zM480 331l-3 251l-196 -251h199z
M506 838q-30 0 -50 20.5t-20 50.5q0 31 20 51t50 20q29 0 49.5 -20t20.5 -51q0 -30 -20.5 -50.5t-49.5 -20.5zM732 838q-30 0 -50 20.5t-20 50.5q0 31 20 51t50 20q29 0 49.5 -20t20.5 -51q0 -30 -20.5 -50.5t-49.5 -20.5z" />
    <glyph glyph-name="Aring" unicode="&#xc5;" horiz-adv-x="780" 
d="M-98 39l36 4q16 2 28 7t25.5 17t31.5 33t45 56l496 633h61l13 -691q0 -26 10.5 -38.5t39.5 -16.5l32 -4l-12 -39h-327l12 39l36 4q32 4 43 16t11 39l-2 164h-253l-68 -87q-32 -42 -47.5 -67t-18 -39t5.5 -19t22 -7l32 -4l-12 -39h-252zM480 331l-3 251l-196 -251h199z
M512 958q0 25 10 47t26.5 38.5t39 26t48.5 9.5q27 0 50 -9.5t40 -26t27 -38.5t10 -47t-10 -47t-27 -38t-40 -25.5t-50 -9.5q-26 0 -48.5 9.5t-39 25.5t-26.5 38t-10 47zM702 958q0 31 -17 48.5t-49 17.5q-30 0 -47.5 -17.5t-17.5 -48.5t17.5 -49t47.5 -18q32 0 49 18t17 49z
" />
    <glyph glyph-name="AE" unicode="&#xc6;" horiz-adv-x="1170" 
d="M-88 39l36 4q16 2 33 8t37 19t44.5 34t54.5 52l164 170l4 5h1l413 427h197l337 2l-51 -205h-41l-2 58q-1 29 -9 46t-29 26t-58 12t-97 3h-85q-20 0 -26 -20l-81 -266h116q24 0 40 2t28 9t22.5 20.5t22.5 37.5l22 42h41l-88 -287h-41l4 42q2 22 1 35.5t-8 21t-20 10
t-34 2.5h-126l-62 -203q-9 -30 -11.5 -47.5t3.5 -26.5t22 -11.5t45 -2.5h38q56 0 93.5 2.5t65 11.5t51 26.5t50.5 47.5l64 71h42l-123 -217h-631l12 39l45 6q31 4 42 17.5t20 42.5l48 157h-248l-83 -87q-36 -38 -58 -62.5t-31 -39.5t-5.5 -21.5t17.5 -8.5l32 -4l-12 -39
h-260zM569 331l94 309l-296 -309h202z" />
    <glyph glyph-name="Ccedilla" unicode="&#xc7;" horiz-adv-x="803" 
d="M433 -13q-84 0 -150 23.5t-112.5 65t-71 97.5t-24.5 122q0 108 47 197.5t124.5 153t178.5 98.5t209 35q72 0 123.5 -9.5t90.5 -25.5l-18 -193h-41l-17 57q-19 62 -60 84t-111 22q-56 0 -118 -23.5t-114 -73t-86 -126.5t-34 -184q0 -66 16.5 -114.5t45.5 -80t68 -46.5
t84 -15q31 0 58 6.5t52.5 20t51 34t52.5 49.5l55 58h41l-107 -197q-50 -16 -105 -25.5t-128 -9.5zM284 -265q-28 0 -48 6t-32.5 15t-18.5 20.5t-6 22.5q0 12 6 20.5t15 13t19.5 4t20.5 -4.5q1 -32 18 -48.5t42 -16.5q43 0 43 29q0 18 -22 35.5t-68 46.5l156 122h51l-109 -85
q27 -18 43.5 -38.5t16.5 -46.5q0 -42 -36 -68.5t-91 -26.5z" />
    <glyph glyph-name="Egrave" unicode="&#xc8;" horiz-adv-x="765" 
d="M514 758l314 2l-51 -205h-41l-2 56q-1 29 -8.5 46.5t-27 27t-55 12.5t-92.5 3h-95q-20 0 -26 -20l-81 -266h117q24 0 40 2t28 9t22 21t22 37l22 42h41l-88 -287h-41l4 42q2 23 0.5 37t-9 21t-22.5 9t-39 2h-117l-62 -202q-9 -30 -11.5 -47.5t3.5 -26.5t22 -12t45 -3h45
q60 0 96.5 3t63 13t47.5 28t49 48l62 67h41l-123 -217h-631l12 39l35 4q32 4 46 15t23 40l172 562q8 29 1 40t-36 15l-33 4l12 39h306zM578 972l55 -129h-19l-208 126l1 3h171z" />
    <glyph glyph-name="Eacute" unicode="&#xc9;" horiz-adv-x="765" 
d="M514 758l314 2l-51 -205h-41l-2 56q-1 29 -8.5 46.5t-27 27t-55 12.5t-92.5 3h-95q-20 0 -26 -20l-81 -266h117q24 0 40 2t28 9t22 21t22 37l22 42h41l-88 -287h-41l4 42q2 23 0.5 37t-9 21t-22.5 9t-39 2h-117l-62 -202q-9 -30 -11.5 -47.5t3.5 -26.5t22 -12t45 -3h45
q60 0 96.5 3t63 13t47.5 28t49 48l62 67h41l-123 -217h-631l12 39l35 4q32 4 46 15t23 40l172 562q8 29 1 40t-36 15l-33 4l12 39h306zM878 969l-300 -126h-25l133 129h193z" />
    <glyph glyph-name="Ecircumflex" unicode="&#xca;" horiz-adv-x="765" 
d="M514 758l314 2l-51 -205h-41l-2 56q-1 29 -8.5 46.5t-27 27t-55 12.5t-92.5 3h-95q-20 0 -26 -20l-81 -266h117q24 0 40 2t28 9t22 21t22 37l22 42h41l-88 -287h-41l4 42q2 23 0.5 37t-9 21t-22.5 9t-39 2h-117l-62 -202q-9 -30 -11.5 -47.5t3.5 -26.5t22 -12t45 -3h45
q60 0 96.5 3t63 13t47.5 28t49 48l62 67h41l-123 -217h-631l12 39l35 4q32 4 46 15t23 40l172 562q8 29 1 40t-36 15l-33 4l12 39h306zM654 987l97 -154h-20l-103 62l-197 -62h-26l233 154h16z" />
    <glyph glyph-name="Edieresis" unicode="&#xcb;" horiz-adv-x="765" 
d="M514 758l314 2l-51 -205h-41l-2 56q-1 29 -8.5 46.5t-27 27t-55 12.5t-92.5 3h-95q-20 0 -26 -20l-81 -266h117q24 0 40 2t28 9t22 21t22 37l22 42h41l-88 -287h-41l4 42q2 23 0.5 37t-9 21t-22.5 9t-39 2h-117l-62 -202q-9 -30 -11.5 -47.5t3.5 -26.5t22 -12t45 -3h45
q60 0 96.5 3t63 13t47.5 28t49 48l62 67h41l-123 -217h-631l12 39l35 4q32 4 46 15t23 40l172 562q8 29 1 40t-36 15l-33 4l12 39h306zM499 837q-30 0 -50 20.5t-20 50.5q0 31 20 51t50 20q29 0 49.5 -20t20.5 -51q0 -30 -20.5 -50.5t-49.5 -20.5zM725 837q-30 0 -50 20.5
t-20 50.5q0 31 20 51t50 20q29 0 49.5 -20t20.5 -51q0 -30 -20.5 -50.5t-49.5 -20.5z" />
    <glyph glyph-name="Igrave" unicode="&#xcc;" horiz-adv-x="437" 
d="M264 660q8 29 1 40t-36 15l-33 4l12 39h332l-12 -39l-35 -4q-32 -4 -46.5 -15t-22.5 -40l-172 -562q-9 -29 -1.5 -40t36.5 -15l33 -4l-12 -39h-332l12 39l35 4q32 4 46 15t23 40zM392 972l55 -129h-19l-208 126l1 3h171z" />
    <glyph glyph-name="Iacute" unicode="&#xcd;" horiz-adv-x="437" 
d="M264 660q8 29 1 40t-36 15l-33 4l12 39h332l-12 -39l-35 -4q-32 -4 -46.5 -15t-22.5 -40l-172 -562q-9 -29 -1.5 -40t36.5 -15l33 -4l-12 -39h-332l12 39l35 4q32 4 46 15t23 40zM692 969l-300 -126h-25l133 129h193z" />
    <glyph glyph-name="Icircumflex" unicode="&#xce;" horiz-adv-x="437" 
d="M264 660q8 29 1 40t-36 15l-33 4l12 39h332l-12 -39l-35 -4q-32 -4 -46.5 -15t-22.5 -40l-172 -562q-9 -29 -1.5 -40t36.5 -15l33 -4l-12 -39h-332l12 39l35 4q32 4 46 15t23 40zM468 987l97 -154h-20l-103 62l-197 -62h-26l233 154h16z" />
    <glyph glyph-name="Idieresis" unicode="&#xcf;" horiz-adv-x="437" 
d="M264 660q8 29 1 40t-36 15l-33 4l12 39h332l-12 -39l-35 -4q-32 -4 -46.5 -15t-22.5 -40l-172 -562q-9 -29 -1.5 -40t36.5 -15l33 -4l-12 -39h-332l12 39l35 4q32 4 46 15t23 40zM313 837q-30 0 -50 20.5t-20 50.5q0 31 20 51t50 20q29 0 49.5 -20t20.5 -51
q0 -30 -20.5 -50.5t-49.5 -20.5zM539 837q-30 0 -50 20.5t-20 50.5q0 31 20 51t50 20q29 0 49.5 -20t20.5 -51q0 -30 -20.5 -50.5t-49.5 -20.5z" />
    <glyph glyph-name="Eth" unicode="&#xd0;" horiz-adv-x="889" 
d="M-12 39l35 4q32 4 46 15t23 40l172 562q8 29 1 40t-36 15l-33 4l12 39h293q94 0 168 -18.5t125 -54.5t78 -89t27 -122q0 -92 -42 -177.5t-120.5 -151.5t-190.5 -105.5t-253 -39.5h-317zM310 54q77 0 138 20t107 53.5t78.5 78t53 93.5t30 100t9.5 98q0 114 -55 160.5
t-170 46.5q-22 0 -34.5 -0.5t-20 -3t-10.5 -6.5t-5 -11l-172 -561q-6 -22 -7.5 -35t3.5 -20.5t18 -10t35 -2.5h2zM93 416h399l-20 -67h-399z" />
    <glyph glyph-name="Ntilde" unicode="&#xd1;" horiz-adv-x="910" 
d="M315 600l-121 -394q-18 -59 -24.5 -91t-4 -47.5t12 -19.5t24.5 -5l37 -4l-12 -39h-255l12 39l39 4q15 1 27 5t24 19.5t25.5 47.5t31.5 91l106 346q24 78 15 117.5t-60 49.5l12 39h203l306 -521l97 315q18 59 24.5 91t4 47.5t-12.5 19t-24 5.5l-37 4l12 39h255l-12 -39
l-39 -4q-16 -2 -28 -5.5t-24 -19t-25 -47.5t-31 -91l-173 -565h-32zM493 833q10 67 38.5 104.5t83.5 37.5q23 0 42.5 -10t38.5 -22t37 -22t38 -10q9 0 17 1.5t15.5 8t14 18.5t12.5 33h21q-7 -45 -18.5 -72t-26 -41.5t-31 -19t-32.5 -4.5q-26 0 -45 10t-36.5 21.5t-35.5 21.5
t-42 10q-10 0 -20.5 -2.5t-20 -9.5t-17 -20t-12.5 -33h-21z" />
    <glyph glyph-name="Ograve" unicode="&#xd2;" horiz-adv-x="918" 
d="M433 -13q-72 0 -136 22.5t-113 65t-77.5 103t-28.5 136.5q0 81 36.5 163.5t102 149.5t155 109.5t195.5 42.5q72 0 136 -22.5t113 -65t77.5 -103t28.5 -136.5q0 -81 -36.5 -163.5t-102 -149.5t-155 -109.5t-195.5 -42.5zM435 46q51 0 94.5 21t78 56.5t61 82.5t44 98.5
t26.5 104t9 100.5q0 106 -48.5 158.5t-134.5 52.5q-52 0 -95 -21t-77.5 -56.5t-61 -82.5t-44 -98.5t-26.5 -104.5t-9 -100q0 -106 48.5 -158.5t134.5 -52.5zM586 972l55 -129h-19l-208 126l1 3h171z" />
    <glyph glyph-name="Oacute" unicode="&#xd3;" horiz-adv-x="918" 
d="M433 -13q-72 0 -136 22.5t-113 65t-77.5 103t-28.5 136.5q0 81 36.5 163.5t102 149.5t155 109.5t195.5 42.5q72 0 136 -22.5t113 -65t77.5 -103t28.5 -136.5q0 -81 -36.5 -163.5t-102 -149.5t-155 -109.5t-195.5 -42.5zM435 46q51 0 94.5 21t78 56.5t61 82.5t44 98.5
t26.5 104t9 100.5q0 106 -48.5 158.5t-134.5 52.5q-52 0 -95 -21t-77.5 -56.5t-61 -82.5t-44 -98.5t-26.5 -104.5t-9 -100q0 -106 48.5 -158.5t134.5 -52.5zM886 969l-300 -126h-25l133 129h193z" />
    <glyph glyph-name="Ocircumflex" unicode="&#xd4;" horiz-adv-x="918" 
d="M433 -13q-72 0 -136 22.5t-113 65t-77.5 103t-28.5 136.5q0 81 36.5 163.5t102 149.5t155 109.5t195.5 42.5q72 0 136 -22.5t113 -65t77.5 -103t28.5 -136.5q0 -81 -36.5 -163.5t-102 -149.5t-155 -109.5t-195.5 -42.5zM435 46q51 0 94.5 21t78 56.5t61 82.5t44 98.5
t26.5 104t9 100.5q0 106 -48.5 158.5t-134.5 52.5q-52 0 -95 -21t-77.5 -56.5t-61 -82.5t-44 -98.5t-26.5 -104.5t-9 -100q0 -106 48.5 -158.5t134.5 -52.5zM662 987l97 -154h-20l-103 62l-197 -62h-26l233 154h16z" />
    <glyph glyph-name="Otilde" unicode="&#xd5;" horiz-adv-x="918" 
d="M433 -13q-72 0 -136 22.5t-113 65t-77.5 103t-28.5 136.5q0 81 36.5 163.5t102 149.5t155 109.5t195.5 42.5q72 0 136 -22.5t113 -65t77.5 -103t28.5 -136.5q0 -81 -36.5 -163.5t-102 -149.5t-155 -109.5t-195.5 -42.5zM435 46q51 0 94.5 21t78 56.5t61 82.5t44 98.5
t26.5 104t9 100.5q0 106 -48.5 158.5t-134.5 52.5q-52 0 -95 -21t-77.5 -56.5t-61 -82.5t-44 -98.5t-26.5 -104.5t-9 -100q0 -106 48.5 -158.5t134.5 -52.5zM438 833q10 67 38.5 104.5t83.5 37.5q23 0 42.5 -10t38.5 -22t37 -22t38 -10q9 0 17 1.5t15.5 8t14 18.5t12.5 33
h21q-7 -45 -18.5 -72t-26 -41.5t-31 -19t-32.5 -4.5q-26 0 -45 10t-36.5 21.5t-35.5 21.5t-42 10q-10 0 -20.5 -2.5t-20 -9.5t-17 -20t-12.5 -33h-21z" />
    <glyph glyph-name="Odieresis" unicode="&#xd6;" horiz-adv-x="918" 
d="M433 -13q-72 0 -136 22.5t-113 65t-77.5 103t-28.5 136.5q0 81 36.5 163.5t102 149.5t155 109.5t195.5 42.5q72 0 136 -22.5t113 -65t77.5 -103t28.5 -136.5q0 -81 -36.5 -163.5t-102 -149.5t-155 -109.5t-195.5 -42.5zM435 46q51 0 94.5 21t78 56.5t61 82.5t44 98.5
t26.5 104t9 100.5q0 106 -48.5 158.5t-134.5 52.5q-52 0 -95 -21t-77.5 -56.5t-61 -82.5t-44 -98.5t-26.5 -104.5t-9 -100q0 -106 48.5 -158.5t134.5 -52.5zM507 837q-30 0 -50 20.5t-20 50.5q0 31 20 51t50 20q29 0 49.5 -20t20.5 -51q0 -30 -20.5 -50.5t-49.5 -20.5z
M733 837q-30 0 -50 20.5t-20 50.5q0 31 20 51t50 20q29 0 49.5 -20t20.5 -51q0 -30 -20.5 -50.5t-49.5 -20.5z" />
    <glyph glyph-name="multiply" unicode="&#xd7;" horiz-adv-x="653" 
d="M92 77l185 186l-185 185l53 53l185 -185l185 185l53 -53l-185 -185l185 -186l-53 -53l-185 185l-185 -185z" />
    <glyph glyph-name="Oslash" unicode="&#xd8;" horiz-adv-x="918" 
d="M433 -13q-72 0 -136 22.5t-113 65t-77.5 103t-28.5 136.5q0 81 36.5 163.5t102 149.5t155 109.5t195.5 42.5q72 0 136 -22.5t113 -65t77.5 -103t28.5 -136.5q0 -81 -36.5 -163.5t-102 -149.5t-155 -109.5t-195.5 -42.5zM435 46q51 0 94.5 21t78 56.5t61 82.5t44 98.5
t26.5 104t9 100.5q0 106 -48.5 158.5t-134.5 52.5q-52 0 -95 -21t-77.5 -56.5t-61 -82.5t-44 -98.5t-26.5 -104.5t-9 -100q0 -106 48.5 -158.5t134.5 -52.5zM907 840l44 -46l-907 -867l-44 46z" />
    <glyph glyph-name="Ugrave" unicode="&#xd9;" horiz-adv-x="877" 
d="M380 -13q-75 0 -132.5 18t-91 55.5t-41 94.5t16.5 136l113 369q8 29 1 40t-36 15l-33 4l12 39h332l-12 -39l-35 -4q-32 -4 -46.5 -15t-22.5 -40l-113 -370q-18 -57 -21 -101.5t11 -74.5t47 -45.5t88 -15.5q117 0 186 60.5t106 181.5l79 257q18 59 24 91t3 47.5t-13.5 19
t-24.5 5.5l-37 4l12 39h255l-12 -39l-39 -4q-16 -2 -27.5 -5.5t-23 -19t-24 -47.5t-30.5 -91l-79 -259q-48 -155 -142 -230.5t-250 -75.5zM637 972l55 -129h-19l-208 126l1 3h171z" />
    <glyph glyph-name="Uacute" unicode="&#xda;" horiz-adv-x="877" 
d="M380 -13q-75 0 -132.5 18t-91 55.5t-41 94.5t16.5 136l113 369q8 29 1 40t-36 15l-33 4l12 39h332l-12 -39l-35 -4q-32 -4 -46.5 -15t-22.5 -40l-113 -370q-18 -57 -21 -101.5t11 -74.5t47 -45.5t88 -15.5q117 0 186 60.5t106 181.5l79 257q18 59 24 91t3 47.5t-13.5 19
t-24.5 5.5l-37 4l12 39h255l-12 -39l-39 -4q-16 -2 -27.5 -5.5t-23 -19t-24 -47.5t-30.5 -91l-79 -259q-48 -155 -142 -230.5t-250 -75.5zM937 969l-300 -126h-25l133 129h193z" />
    <glyph glyph-name="Ucircumflex" unicode="&#xdb;" horiz-adv-x="877" 
d="M380 -13q-75 0 -132.5 18t-91 55.5t-41 94.5t16.5 136l113 369q8 29 1 40t-36 15l-33 4l12 39h332l-12 -39l-35 -4q-32 -4 -46.5 -15t-22.5 -40l-113 -370q-18 -57 -21 -101.5t11 -74.5t47 -45.5t88 -15.5q117 0 186 60.5t106 181.5l79 257q18 59 24 91t3 47.5t-13.5 19
t-24.5 5.5l-37 4l12 39h255l-12 -39l-39 -4q-16 -2 -27.5 -5.5t-23 -19t-24 -47.5t-30.5 -91l-79 -259q-48 -155 -142 -230.5t-250 -75.5zM713 987l97 -154h-20l-103 62l-197 -62h-26l233 154h16z" />
    <glyph glyph-name="Udieresis" unicode="&#xdc;" horiz-adv-x="877" 
d="M380 -13q-75 0 -132.5 18t-91 55.5t-41 94.5t16.5 136l113 369q8 29 1 40t-36 15l-33 4l12 39h332l-12 -39l-35 -4q-32 -4 -46.5 -15t-22.5 -40l-113 -370q-18 -57 -21 -101.5t11 -74.5t47 -45.5t88 -15.5q117 0 186 60.5t106 181.5l79 257q18 59 24 91t3 47.5t-13.5 19
t-24.5 5.5l-37 4l12 39h255l-12 -39l-39 -4q-16 -2 -27.5 -5.5t-23 -19t-24 -47.5t-30.5 -91l-79 -259q-48 -155 -142 -230.5t-250 -75.5zM558 837q-30 0 -50 20.5t-20 50.5q0 31 20 51t50 20q29 0 49.5 -20t20.5 -51q0 -30 -20.5 -50.5t-49.5 -20.5zM784 837
q-30 0 -50 20.5t-20 50.5q0 31 20 51t50 20q29 0 49.5 -20t20.5 -51q0 -30 -20.5 -50.5t-49.5 -20.5z" />
    <glyph glyph-name="Yacute" unicode="&#xdd;" horiz-adv-x="797" 
d="M139 41l65 4q30 2 44.5 13t23.5 40l75 244l-129 318q-5 12 -8 21.5t-8 16.5t-13 11t-22 6l-33 4l12 39h345l-12 -39l-35 -4q-32 -4 -47.5 -17.5t-5.5 -37.5l99 -251l178 174q36 36 56.5 60t27.5 39.5t2 23t-19 9.5l-33 4l12 39h252l-12 -39l-32 -4q-16 -2 -28 -7
t-27.5 -17.5t-37.5 -33.5t-57 -55l-265 -258l-75 -246q-9 -29 -1.5 -40t37.5 -13l63 -4l-13 -41h-392zM899 969l-300 -126h-25l133 129h193z" />
    <glyph glyph-name="Thorn" unicode="&#xde;" horiz-adv-x="791" 
d="M-12 39l35 4q32 4 46 15t23 40l172 562q9 29 1.5 40t-36.5 15l-33 4l12 39h332l-12 -39l-35 -4q-16 -2 -27 -5.5t-18.5 -9.5t-13 -15.5t-10.5 -24.5l-19 -59h108q60 0 113 -9t93 -29t63 -53t23 -82q0 -53 -25 -100t-74 -82.5t-122 -56t-169 -20.5h-142l-21 -71
q-8 -28 -1 -39.5t37 -13.5l63 -4l-13 -41h-362zM289 221h122q58 0 99.5 19.5t68.5 50t39.5 67.5t12.5 73q0 66 -39 91.5t-111 25.5h-38q-18 0 -29 -1t-17.5 -3.5t-9.5 -7.5t-5 -12z" />
    <glyph glyph-name="germandbls" unicode="&#xdf;" horiz-adv-x="680" 
d="M-176 -267q-42 0 -62.5 20t-20.5 46q0 23 15.5 41t43.5 18q18 0 31 -9.5t24.5 -21t22.5 -21t23 -9.5q13 0 24 7t24 30t29.5 66.5t41.5 116.5l142 411h-90l13 38l102 36l10 27q21 55 62.5 105t94 87.5t110.5 60t112 22.5q72 0 112 -29.5t40 -79.5q0 -42 -26 -76t-61 -50
l-77 -35q-37 -17 -53.5 -31t-16.5 -32q0 -16 12 -36t37 -53l18 -24q29 -39 46.5 -75t17.5 -76q0 -44 -20 -84t-55.5 -70t-83.5 -48t-104 -18q-29 0 -54 7.5t-44 20.5t-30 30.5t-11 37.5q0 25 17.5 41t43.5 16q24 0 34.5 -16.5t19.5 -37t22 -37t40 -16.5q42 0 70.5 29
t28.5 75q0 31 -11 55t-34 54l-18 24q-20 27 -33 48t-20.5 38.5t-10 33t-2.5 32.5q0 18 5.5 33.5t19 31t37.5 32t61 37.5q47 26 73 58.5t26 74.5q0 35 -16.5 49t-44.5 14q-20 0 -42.5 -6.5t-45 -23.5t-43.5 -48t-38 -80l-161 -470q-34 -98 -80.5 -171.5t-97.5 -122.5
t-102.5 -73t-96.5 -24z" />
    <glyph glyph-name="agrave" unicode="&#xe0;" horiz-adv-x="598" 
d="M99 -13q-56 0 -80.5 28.5t-24.5 74.5q0 43 19 92t50.5 97t72 92t83.5 78t84.5 54t75.5 20q24 0 38.5 -10t19.5 -24l19 49h140l-157 -412q-11 -29 -11.5 -42t13.5 -13q16 0 47.5 33t68.5 96l37 -20q-57 -99 -118 -146t-126 -47q-48 0 -58 31t16 100l20 53h-2
q-32 -51 -61 -86.5t-56 -57t-54 -31t-56 -9.5zM178 66q18 0 45 25.5t56.5 66t57.5 90.5t47 100l14 36q10 27 12 45t-2.5 28.5t-13 14.5t-17.5 4q-27 0 -54 -18t-52 -48t-47 -67.5t-38 -77.5t-25.5 -78t-9.5 -68q0 -53 27 -53zM442 609l-172 168l4 11h137l48 -179h-17z" />
    <glyph glyph-name="aacute" unicode="&#xe1;" horiz-adv-x="598" 
d="M99 -13q-56 0 -80.5 28.5t-24.5 74.5q0 43 19 92t50.5 97t72 92t83.5 78t84.5 54t75.5 20q24 0 38.5 -10t19.5 -24l19 49h140l-157 -412q-11 -29 -11.5 -42t13.5 -13q16 0 47.5 33t68.5 96l37 -20q-57 -99 -118 -146t-126 -47q-48 0 -58 31t16 100l20 53h-2
q-32 -51 -61 -86.5t-56 -57t-54 -31t-56 -9.5zM178 66q18 0 45 25.5t56.5 66t57.5 90.5t47 100l14 36q10 27 12 45t-2.5 28.5t-13 14.5t-17.5 4q-27 0 -54 -18t-52 -48t-47 -67.5t-38 -77.5t-25.5 -78t-9.5 -68q0 -53 27 -53zM573 788h162l-4 -11l-294 -168h-22z" />
    <glyph glyph-name="acircumflex" unicode="&#xe2;" horiz-adv-x="598" 
d="M99 -13q-56 0 -80.5 28.5t-24.5 74.5q0 43 19 92t50.5 97t72 92t83.5 78t84.5 54t75.5 20q24 0 38.5 -10t19.5 -24l19 49h140l-157 -412q-11 -29 -11.5 -42t13.5 -13q16 0 47.5 33t68.5 96l37 -20q-57 -99 -118 -146t-126 -47q-48 0 -58 31t16 100l20 53h-2
q-32 -51 -61 -86.5t-56 -57t-54 -31t-56 -9.5zM178 66q18 0 45 25.5t56.5 66t57.5 90.5t47 100l14 36q10 27 12 45t-2.5 28.5t-13 14.5t-17.5 4q-27 0 -54 -18t-52 -48t-47 -67.5t-38 -77.5t-25.5 -78t-9.5 -68q0 -53 27 -53zM606 609h-17l-99 82l-201 -82h-23l248 196h12z
" />
    <glyph glyph-name="atilde" unicode="&#xe3;" horiz-adv-x="598" 
d="M99 -13q-56 0 -80.5 28.5t-24.5 74.5q0 43 19 92t50.5 97t72 92t83.5 78t84.5 54t75.5 20q24 0 38.5 -10t19.5 -24l19 49h140l-157 -412q-11 -29 -11.5 -42t13.5 -13q16 0 47.5 33t68.5 96l37 -20q-57 -99 -118 -146t-126 -47q-48 0 -58 31t16 100l20 53h-2
q-32 -51 -61 -86.5t-56 -57t-54 -31t-56 -9.5zM178 66q18 0 45 25.5t56.5 66t57.5 90.5t47 100l14 36q10 27 12 45t-2.5 28.5t-13 14.5t-17.5 4q-27 0 -54 -18t-52 -48t-47 -67.5t-38 -77.5t-25.5 -78t-9.5 -68q0 -53 27 -53zM295 649q10 67 38.5 104.5t83.5 37.5
q23 0 42.5 -10t38.5 -22t37 -22t38 -10q9 0 17 1.5t15.5 8t14 18.5t12.5 33h21q-7 -45 -18.5 -72t-26 -41.5t-31 -19t-32.5 -4.5q-26 0 -45 10t-36.5 21.5t-35.5 21.5t-42 10q-10 0 -20.5 -2.5t-20 -9.5t-17 -20t-12.5 -33h-21z" />
    <glyph glyph-name="adieresis" unicode="&#xe4;" horiz-adv-x="598" 
d="M99 -13q-56 0 -80.5 28.5t-24.5 74.5q0 43 19 92t50.5 97t72 92t83.5 78t84.5 54t75.5 20q24 0 38.5 -10t19.5 -24l19 49h140l-157 -412q-11 -29 -11.5 -42t13.5 -13q16 0 47.5 33t68.5 96l37 -20q-57 -99 -118 -146t-126 -47q-48 0 -58 31t16 100l20 53h-2
q-32 -51 -61 -86.5t-56 -57t-54 -31t-56 -9.5zM178 66q18 0 45 25.5t56.5 66t57.5 90.5t47 100l14 36q10 27 12 45t-2.5 28.5t-13 14.5t-17.5 4q-27 0 -54 -18t-52 -48t-47 -67.5t-38 -77.5t-25.5 -78t-9.5 -68q0 -53 27 -53zM583 636q-29 0 -48.5 20t-19.5 49
q0 30 19.5 49.5t48.5 19.5t48.5 -19.5t19.5 -49.5q0 -29 -19.5 -49t-48.5 -20zM357 636q-29 0 -48.5 20t-19.5 49q0 30 19.5 49.5t48.5 19.5t48.5 -19.5t19.5 -49.5q0 -29 -19.5 -49t-48.5 -20z" />
    <glyph glyph-name="aring" unicode="&#xe5;" horiz-adv-x="598" 
d="M99 -13q-56 0 -80.5 28.5t-24.5 74.5q0 43 19 92t50.5 97t72 92t83.5 78t84.5 54t75.5 20q24 0 38.5 -10t19.5 -24l19 49h140l-157 -412q-11 -29 -11.5 -42t13.5 -13q16 0 47.5 33t68.5 96l37 -20q-57 -99 -118 -146t-126 -47q-48 0 -58 31t16 100l20 53h-2
q-32 -51 -61 -86.5t-56 -57t-54 -31t-56 -9.5zM178 66q18 0 45 25.5t56.5 66t57.5 90.5t47 100l14 36q10 27 12 45t-2.5 28.5t-13 14.5t-17.5 4q-27 0 -54 -18t-52 -48t-47 -67.5t-38 -77.5t-25.5 -78t-9.5 -68q0 -53 27 -53zM346 705q0 25 10 47t26.5 38.5t39 26t48.5 9.5
q27 0 50 -9.5t40 -26t27 -38.5t10 -47t-10 -47t-27 -38t-40 -25.5t-50 -9.5q-26 0 -48.5 9.5t-39 25.5t-26.5 38t-10 47zM536 705q0 31 -17 48.5t-49 17.5q-30 0 -47.5 -17.5t-17.5 -48.5t17.5 -49t47.5 -18q32 0 49 18t17 49z" />
    <glyph glyph-name="ae" unicode="&#xe6;" horiz-adv-x="762" 
d="M112 -13q-54 0 -86 28.5t-32 87.5q0 69 44.5 143t131.5 135.5t215.5 101.5t295.5 40q51 0 74.5 -21t23.5 -56q0 -44 -22 -74t-50 -49q-23 -6 -53.5 -14t-64 -16l-67 -16t-61.5 -14q-8 -38 -8 -72q0 -31 6.5 -51.5t17 -33t25 -18t30.5 -5.5q38 0 70 29t71 94l36 -18
q-21 -36 -45 -72t-55 -64.5t-69.5 -46.5t-88.5 -18q-57 0 -96 30t-48 85q-49 -62 -99.5 -88.5t-95.5 -26.5zM621 471q-23 0 -44.5 -13.5t-41 -36t-35.5 -53t-27 -63.5q22 5 42.5 10t37.5 11q34 12 55 25.5t32 27.5t14.5 28.5t3.5 27.5q0 17 -9.5 26.5t-27.5 9.5zM152 123
q0 -57 38 -57q20 0 49 18t67 69q4 44 22.5 89t47 86t64.5 77t77 63q-91 -15 -159.5 -48.5t-114 -79t-68.5 -101.5t-23 -116z" />
    <glyph glyph-name="ccedilla" unicode="&#xe7;" horiz-adv-x="451" 
d="M154 -13q-63 0 -102.5 37.5t-39.5 106.5q0 49 16.5 97t44.5 91.5t65 80.5t77 64.5t81 43t78 15.5q16 0 32.5 -3.5t29.5 -11t21 -21t8 -32.5q0 -13 -5 -26t-13.5 -23t-21 -16.5t-27.5 -6.5q-17 0 -30 9.5t-25 20.5t-25.5 20.5t-32.5 9.5q-28 0 -51 -22.5t-39.5 -58.5
t-25.5 -81t-9 -90q0 -31 5.5 -51.5t15 -33t23 -18t29.5 -5.5q35 0 69 29t72 94l35 -18q-20 -36 -44.5 -72t-55 -64.5t-69 -46.5t-86.5 -18zM39 -265q-28 0 -48 6t-32.5 15t-18.5 20.5t-6 22.5q0 12 6 20.5t15 13t19.5 4t20.5 -4.5q1 -32 18 -48.5t42 -16.5q43 0 43 29
q0 18 -22 35.5t-68 46.5l156 122h51l-109 -85q27 -18 43.5 -38.5t16.5 -46.5q0 -42 -36 -68.5t-91 -26.5z" />
    <glyph glyph-name="egrave" unicode="&#xe8;" horiz-adv-x="467" 
d="M156 -13q-64 0 -105 37.5t-41 106.5q0 45 16 91.5t43.5 90t64.5 82t79 67t86 45t87 16.5q51 0 74.5 -21t23.5 -56q0 -44 -22 -74t-50 -49q-23 -6 -53.5 -14t-64 -16l-67 -16t-61.5 -14q-8 -38 -8 -72q0 -31 6.5 -51.5t17 -33t25 -18t30.5 -5.5q38 0 70 29t71 94l36 -18
q-21 -36 -45 -72t-55 -64.5t-69.5 -46.5t-88.5 -18zM326 471q-23 0 -44.5 -13.5t-41 -36t-35.5 -53t-27 -63.5q22 5 42.5 10t37.5 11q34 12 55 25.5t32 27.5t14.5 28.5t3.5 27.5q0 17 -9.5 26.5t-27.5 9.5zM385 609l-172 168l4 11h137l48 -179h-17z" />
    <glyph glyph-name="eacute" unicode="&#xe9;" horiz-adv-x="467" 
d="M156 -13q-64 0 -105 37.5t-41 106.5q0 45 16 91.5t43.5 90t64.5 82t79 67t86 45t87 16.5q51 0 74.5 -21t23.5 -56q0 -44 -22 -74t-50 -49q-23 -6 -53.5 -14t-64 -16l-67 -16t-61.5 -14q-8 -38 -8 -72q0 -31 6.5 -51.5t17 -33t25 -18t30.5 -5.5q38 0 70 29t71 94l36 -18
q-21 -36 -45 -72t-55 -64.5t-69.5 -46.5t-88.5 -18zM326 471q-23 0 -44.5 -13.5t-41 -36t-35.5 -53t-27 -63.5q22 5 42.5 10t37.5 11q34 12 55 25.5t32 27.5t14.5 28.5t3.5 27.5q0 17 -9.5 26.5t-27.5 9.5zM516 788h162l-4 -11l-294 -168h-22z" />
    <glyph glyph-name="ecircumflex" unicode="&#xea;" horiz-adv-x="467" 
d="M156 -13q-64 0 -105 37.5t-41 106.5q0 45 16 91.5t43.5 90t64.5 82t79 67t86 45t87 16.5q51 0 74.5 -21t23.5 -56q0 -44 -22 -74t-50 -49q-23 -6 -53.5 -14t-64 -16l-67 -16t-61.5 -14q-8 -38 -8 -72q0 -31 6.5 -51.5t17 -33t25 -18t30.5 -5.5q38 0 70 29t71 94l36 -18
q-21 -36 -45 -72t-55 -64.5t-69.5 -46.5t-88.5 -18zM326 471q-23 0 -44.5 -13.5t-41 -36t-35.5 -53t-27 -63.5q22 5 42.5 10t37.5 11q34 12 55 25.5t32 27.5t14.5 28.5t3.5 27.5q0 17 -9.5 26.5t-27.5 9.5zM549 609h-17l-99 82l-201 -82h-23l248 196h12z" />
    <glyph glyph-name="edieresis" unicode="&#xeb;" horiz-adv-x="467" 
d="M156 -13q-64 0 -105 37.5t-41 106.5q0 45 16 91.5t43.5 90t64.5 82t79 67t86 45t87 16.5q51 0 74.5 -21t23.5 -56q0 -44 -22 -74t-50 -49q-23 -6 -53.5 -14t-64 -16l-67 -16t-61.5 -14q-8 -38 -8 -72q0 -31 6.5 -51.5t17 -33t25 -18t30.5 -5.5q38 0 70 29t71 94l36 -18
q-21 -36 -45 -72t-55 -64.5t-69.5 -46.5t-88.5 -18zM326 471q-23 0 -44.5 -13.5t-41 -36t-35.5 -53t-27 -63.5q22 5 42.5 10t37.5 11q34 12 55 25.5t32 27.5t14.5 28.5t3.5 27.5q0 17 -9.5 26.5t-27.5 9.5zM526 636q-29 0 -48.5 20t-19.5 49q0 30 19.5 49.5t48.5 19.5
t48.5 -19.5t19.5 -49.5q0 -29 -19.5 -49t-48.5 -20zM300 636q-29 0 -48.5 20t-19.5 49q0 30 19.5 49.5t48.5 19.5t48.5 -19.5t19.5 -49.5q0 -29 -19.5 -49t-48.5 -20z" />
    <glyph glyph-name="igrave" unicode="&#xec;" horiz-adv-x="356" 
d="M100 -13q-47 0 -66.5 31.5t7.5 99.5l120 299q5 14 1 24.5t-28 13.5l-43 5l13 35l241 21l-156 -390q-12 -29 -12 -42t14 -13q16 0 47.5 33t68.5 96l37 -20q-57 -99 -118 -146t-126 -47zM299 609l-172 168l4 11h137l48 -179h-17z" />
    <glyph glyph-name="iacute" unicode="&#xed;" horiz-adv-x="356" 
d="M100 -13q-47 0 -66.5 31.5t7.5 99.5l120 299q5 14 1 24.5t-28 13.5l-43 5l13 35l241 21l-156 -390q-12 -29 -12 -42t14 -13q16 0 47.5 33t68.5 96l37 -20q-57 -99 -118 -146t-126 -47zM430 788h162l-4 -11l-294 -168h-22z" />
    <glyph glyph-name="icircumflex" unicode="&#xee;" horiz-adv-x="356" 
d="M100 -13q-47 0 -66.5 31.5t7.5 99.5l120 299q5 14 1 24.5t-28 13.5l-43 5l13 35l241 21l-156 -390q-12 -29 -12 -42t14 -13q16 0 47.5 33t68.5 96l37 -20q-57 -99 -118 -146t-126 -47zM463 609h-17l-99 82l-201 -82h-23l248 196h12z" />
    <glyph glyph-name="idieresis" unicode="&#xef;" horiz-adv-x="356" 
d="M100 -13q-47 0 -66.5 31.5t7.5 99.5l120 299q5 14 1 24.5t-28 13.5l-43 5l13 35l241 21l-156 -390q-12 -29 -12 -42t14 -13q16 0 47.5 33t68.5 96l37 -20q-57 -99 -118 -146t-126 -47zM427 636q-29 0 -48.5 20t-19.5 49q0 30 19.5 49.5t48.5 19.5t48.5 -19.5t19.5 -49.5
q0 -29 -19.5 -49t-48.5 -20zM227 636q-29 0 -48.5 20t-19.5 49q0 30 19.5 49.5t48.5 19.5t48.5 -19.5t19.5 -49.5q0 -29 -19.5 -49t-48.5 -20z" />
    <glyph glyph-name="eth" unicode="&#xf0;" horiz-adv-x="567" 
d="M170 -13q-69 0 -114.5 35.5t-45.5 105.5q0 41 14.5 86.5t40.5 89.5t60 83.5t74 70t82.5 48t84.5 17.5h8.5t8.5 -1q-11 34 -30 67t-48 65l-153 -70l-21 48l135 61q-35 32 -86 63l21 41q38 -14 73.5 -31.5t68.5 -37.5l152 69l21 -47l-124 -57q75 -58 121 -132t46 -159
q0 -86 -35 -161.5t-90.5 -132t-125 -89t-138.5 -32.5zM162 127q0 -38 10 -62t43 -24q29 0 62 27t61 74t46.5 110.5t18.5 137.5q0 26 -3 52q-11 35 -52 35q-27 0 -51 -17t-44.5 -45.5t-37.5 -65t-28.5 -75.5t-18 -77t-6.5 -70z" />
    <glyph glyph-name="ntilde" unicode="&#xf1;" horiz-adv-x="624" 
d="M159 417q5 14 1 24.5t-28 13.5l-43 5l13 35l226 21l-82 -201h3q39 57 72 96.5t63 64t58 36t57 11.5q36 0 54.5 -13t23.5 -36t-1.5 -54t-21.5 -67l-94 -227q-12 -29 -12 -42t14 -13q16 0 47.5 33t68.5 96l37 -20q-57 -99 -118 -146t-126 -47q-24 0 -41 7.5t-26 23.5
t-7.5 41t15.5 59l91 221q20 48 23.5 70.5t-16.5 22.5q-15 0 -41 -22.5t-57 -64.5t-64.5 -101.5t-62.5 -132.5l-32 -100l-160 -24zM295 649q10 67 38.5 104.5t83.5 37.5q23 0 42.5 -10t38.5 -22t37 -22t38 -10q9 0 17 1.5t15.5 8t14 18.5t12.5 33h21q-7 -45 -18.5 -72
t-26 -41.5t-31 -19t-32.5 -4.5q-26 0 -45 10t-36.5 21.5t-35.5 21.5t-42 10q-10 0 -20.5 -2.5t-20 -9.5t-17 -20t-12.5 -33h-21z" />
    <glyph glyph-name="ograve" unicode="&#xf2;" horiz-adv-x="564" 
d="M183 -13q-79 0 -123 41.5t-44 110.5q0 48 15.5 95.5t42 90t62.5 79t77 63t85 41.5t87 15q39 0 70.5 -11.5t53 -32.5t33 -49t11.5 -61q0 -48 -15.5 -95t-42.5 -89.5t-63 -78.5t-77 -62.5t-85 -41.5t-87 -15zM220 39q31 0 63 30.5t57 79.5t41 111t16 124q0 42 -10 64.5
t-38 22.5q-32 0 -63.5 -31t-57 -80.5t-41.5 -111.5t-16 -124q0 -42 10 -63.5t39 -21.5zM411 609l-172 168l4 11h137l48 -179h-17z" />
    <glyph glyph-name="oacute" unicode="&#xf3;" horiz-adv-x="564" 
d="M183 -13q-79 0 -123 41.5t-44 110.5q0 48 15.5 95.5t42 90t62.5 79t77 63t85 41.5t87 15q39 0 70.5 -11.5t53 -32.5t33 -49t11.5 -61q0 -48 -15.5 -95t-42.5 -89.5t-63 -78.5t-77 -62.5t-85 -41.5t-87 -15zM220 39q31 0 63 30.5t57 79.5t41 111t16 124q0 42 -10 64.5
t-38 22.5q-32 0 -63.5 -31t-57 -80.5t-41.5 -111.5t-16 -124q0 -42 10 -63.5t39 -21.5zM542 788h162l-4 -11l-294 -168h-22z" />
    <glyph glyph-name="ocircumflex" unicode="&#xf4;" horiz-adv-x="564" 
d="M183 -13q-79 0 -123 41.5t-44 110.5q0 48 15.5 95.5t42 90t62.5 79t77 63t85 41.5t87 15q39 0 70.5 -11.5t53 -32.5t33 -49t11.5 -61q0 -48 -15.5 -95t-42.5 -89.5t-63 -78.5t-77 -62.5t-85 -41.5t-87 -15zM220 39q31 0 63 30.5t57 79.5t41 111t16 124q0 42 -10 64.5
t-38 22.5q-32 0 -63.5 -31t-57 -80.5t-41.5 -111.5t-16 -124q0 -42 10 -63.5t39 -21.5zM575 609h-17l-99 82l-201 -82h-23l248 196h12z" />
    <glyph glyph-name="otilde" unicode="&#xf5;" horiz-adv-x="564" 
d="M183 -13q-79 0 -123 41.5t-44 110.5q0 48 15.5 95.5t42 90t62.5 79t77 63t85 41.5t87 15q39 0 70.5 -11.5t53 -32.5t33 -49t11.5 -61q0 -48 -15.5 -95t-42.5 -89.5t-63 -78.5t-77 -62.5t-85 -41.5t-87 -15zM220 39q31 0 63 30.5t57 79.5t41 111t16 124q0 42 -10 64.5
t-38 22.5q-32 0 -63.5 -31t-57 -80.5t-41.5 -111.5t-16 -124q0 -42 10 -63.5t39 -21.5zM264 649q10 67 38.5 104.5t83.5 37.5q23 0 42.5 -10t38.5 -22t37 -22t38 -10q9 0 17 1.5t15.5 8t14 18.5t12.5 33h21q-7 -45 -18.5 -72t-26 -41.5t-31 -19t-32.5 -4.5q-26 0 -45 10
t-36.5 21.5t-35.5 21.5t-42 10q-10 0 -20.5 -2.5t-20 -9.5t-17 -20t-12.5 -33h-21z" />
    <glyph glyph-name="odieresis" unicode="&#xf6;" horiz-adv-x="564" 
d="M183 -13q-79 0 -123 41.5t-44 110.5q0 48 15.5 95.5t42 90t62.5 79t77 63t85 41.5t87 15q39 0 70.5 -11.5t53 -32.5t33 -49t11.5 -61q0 -48 -15.5 -95t-42.5 -89.5t-63 -78.5t-77 -62.5t-85 -41.5t-87 -15zM220 39q31 0 63 30.5t57 79.5t41 111t16 124q0 42 -10 64.5
t-38 22.5q-32 0 -63.5 -31t-57 -80.5t-41.5 -111.5t-16 -124q0 -42 10 -63.5t39 -21.5zM552 636q-29 0 -48.5 20t-19.5 49q0 30 19.5 49.5t48.5 19.5t48.5 -19.5t19.5 -49.5q0 -29 -19.5 -49t-48.5 -20zM326 636q-29 0 -48.5 20t-19.5 49q0 30 19.5 49.5t48.5 19.5
t48.5 -19.5t19.5 -49.5q0 -29 -19.5 -49t-48.5 -20z" />
    <glyph glyph-name="divide" unicode="&#xf7;" horiz-adv-x="653" 
d="M331 363q-37 0 -63 26t-26 64q0 37 26 63t63 26q38 0 64 -26t26 -63q0 -38 -26 -64t-64 -26zM68 300h527v-75h-527v75zM331 -17q-37 0 -63 26t-26 64q0 37 26 63t63 26q38 0 64 -26t26 -63q0 -38 -26 -64t-64 -26z" />
    <glyph glyph-name="oslash" unicode="&#xf8;" horiz-adv-x="624" 
d="M213 -13q-79 0 -123 41.5t-44 110.5q0 48 15.5 95.5t42 90t62.5 79t77 63t85 41.5t87 15q39 0 70.5 -11.5t53 -32.5t33 -49t11.5 -61q0 -48 -15.5 -95t-42.5 -89.5t-63 -78.5t-77 -62.5t-85 -41.5t-87 -15zM250 39q31 0 63 30.5t57 79.5t41 111t16 124q0 42 -10 64.5
t-38 22.5q-32 0 -63.5 -31t-57 -80.5t-41.5 -111.5t-16 -124q0 -42 10 -63.5t39 -21.5zM-50 -15l697 589l33 -40l-697 -589z" />
    <glyph glyph-name="ugrave" unicode="&#xf9;" horiz-adv-x="628" 
d="M207 170q-19 -48 -23 -70t16 -22q15 0 41 22.5t57 64.5t64.5 101t62.5 132l24 67l166 48l-151 -387q-11 -29 -11.5 -42t13.5 -13q16 0 47.5 33t68.5 96l37 -20q-57 -99 -118 -146t-126 -47q-48 0 -61.5 32.5t16.5 98.5l34 76h-3q-39 -57 -72 -96t-63 -64t-58 -36t-57 -11
q-36 0 -54 13t-23 36t1.5 54t20.5 66l103 261q5 14 1 24.5t-28 13.5l-43 5l13 35l242 21zM437 609l-172 168l4 11h137l48 -179h-17z" />
    <glyph glyph-name="uacute" unicode="&#xfa;" horiz-adv-x="628" 
d="M207 170q-19 -48 -23 -70t16 -22q15 0 41 22.5t57 64.5t64.5 101t62.5 132l24 67l166 48l-151 -387q-11 -29 -11.5 -42t13.5 -13q16 0 47.5 33t68.5 96l37 -20q-57 -99 -118 -146t-126 -47q-48 0 -61.5 32.5t16.5 98.5l34 76h-3q-39 -57 -72 -96t-63 -64t-58 -36t-57 -11
q-36 0 -54 13t-23 36t1.5 54t20.5 66l103 261q5 14 1 24.5t-28 13.5l-43 5l13 35l242 21zM568 788h162l-4 -11l-294 -168h-22z" />
    <glyph glyph-name="ucircumflex" unicode="&#xfb;" horiz-adv-x="628" 
d="M207 170q-19 -48 -23 -70t16 -22q15 0 41 22.5t57 64.5t64.5 101t62.5 132l24 67l166 48l-151 -387q-11 -29 -11.5 -42t13.5 -13q16 0 47.5 33t68.5 96l37 -20q-57 -99 -118 -146t-126 -47q-48 0 -61.5 32.5t16.5 98.5l34 76h-3q-39 -57 -72 -96t-63 -64t-58 -36t-57 -11
q-36 0 -54 13t-23 36t1.5 54t20.5 66l103 261q5 14 1 24.5t-28 13.5l-43 5l13 35l242 21zM601 609h-17l-99 82l-201 -82h-23l248 196h12z" />
    <glyph glyph-name="udieresis" unicode="&#xfc;" horiz-adv-x="628" 
d="M207 170q-19 -48 -23 -70t16 -22q15 0 41 22.5t57 64.5t64.5 101t62.5 132l24 67l166 48l-151 -387q-11 -29 -11.5 -42t13.5 -13q16 0 47.5 33t68.5 96l37 -20q-57 -99 -118 -146t-126 -47q-48 0 -61.5 32.5t16.5 98.5l34 76h-3q-39 -57 -72 -96t-63 -64t-58 -36t-57 -11
q-36 0 -54 13t-23 36t1.5 54t20.5 66l103 261q5 14 1 24.5t-28 13.5l-43 5l13 35l242 21zM578 636q-29 0 -48.5 20t-19.5 49q0 30 19.5 49.5t48.5 19.5t48.5 -19.5t19.5 -49.5q0 -29 -19.5 -49t-48.5 -20zM352 636q-29 0 -48.5 20t-19.5 49q0 30 19.5 49.5t48.5 19.5
t48.5 -19.5t19.5 -49.5q0 -29 -19.5 -49t-48.5 -20z" />
    <glyph glyph-name="yacute" unicode="&#xfd;" horiz-adv-x="563" 
d="M-83 -267q-32 0 -51.5 15.5t-19.5 42.5q0 31 22 41.5t51.5 11t59.5 -1.5t47 6q22 10 50 38.5t72 90.5l-18 440q-1 20 -5.5 28t-21.5 10l-43 5l13 35l205 21l2 -361l122 186q34 52 60.5 87t48.5 56t41.5 30t39.5 9q29 0 43 -14t14 -36t-13.5 -40t-53.5 -26
q-19 -4 -35.5 -9.5t-33 -17.5t-34.5 -32t-41 -53l-198 -285q-17 -25 -38.5 -52.5t-44.5 -55t-46.5 -53t-45.5 -44.5q-35 -32 -76 -52t-72 -20zM550 788h162l-4 -11l-294 -168h-22z" />
    <glyph glyph-name="thorn" unicode="&#xfe;" horiz-adv-x="585" 
d="M49 -248h-144l323 943q5 14 0.5 24.5t-28.5 13.5l-44 5l12 35l236 21l-135 -387h1q42 48 93.5 82t108.5 34q53 0 82 -34t29 -94q0 -48 -17 -97.5t-46 -94.5t-66.5 -84.5t-79.5 -69t-84.5 -46t-81.5 -16.5q-22 0 -40.5 7t-29.5 21zM217 35q30 0 57 16.5t50 43.5t41.5 61.5
t31.5 71.5t20 72.5t7 64.5q0 35 -10 56t-34 21q-26 0 -56.5 -23.5t-71.5 -72.5l-78 -227q-9 -26 -7.5 -42.5t9 -25.5t19 -12.5t22.5 -3.5z" />
    <glyph glyph-name="ydieresis" unicode="&#xff;" horiz-adv-x="563" 
d="M-83 -267q-32 0 -51.5 15.5t-19.5 42.5q0 31 22 41.5t51.5 11t59.5 -1.5t47 6q22 10 50 38.5t72 90.5l-18 440q-1 20 -5.5 28t-21.5 10l-43 5l13 35l205 21l2 -361l122 186q34 52 60.5 87t48.5 56t41.5 30t39.5 9q29 0 43 -14t14 -36t-13.5 -40t-53.5 -26
q-19 -4 -35.5 -9.5t-33 -17.5t-34.5 -32t-41 -53l-198 -285q-17 -25 -38.5 -52.5t-44.5 -55t-46.5 -53t-45.5 -44.5q-35 -32 -76 -52t-72 -20zM560 636q-29 0 -48.5 20t-19.5 49q0 30 19.5 49.5t48.5 19.5t48.5 -19.5t19.5 -49.5q0 -29 -19.5 -49t-48.5 -20zM334 636
q-29 0 -48.5 20t-19.5 49q0 30 19.5 49.5t48.5 19.5t48.5 -19.5t19.5 -49.5q0 -29 -19.5 -49t-48.5 -20z" />
    <glyph glyph-name="Abreve" unicode="&#x102;" horiz-adv-x="780" 
d="M-98 39l36 4q16 2 28 7t25.5 17t31.5 33t45 56l496 633h61l13 -691q0 -26 10.5 -38.5t39.5 -16.5l32 -4l-12 -39h-327l12 39l36 4q32 4 43 16t11 39l-2 164h-253l-68 -87q-32 -42 -47.5 -67t-18 -39t5.5 -19t22 -7l32 -4l-12 -39h-252zM480 331l-3 251l-196 -251h199z
M617 828q-27 0 -54.5 8t-47.5 26.5t-30 49.5t-2 76h58q-8 -54 15.5 -80t65.5 -26q50 0 80 23t47 83h60q-14 -57 -39.5 -89t-54 -48t-55.5 -19.5t-43 -3.5z" />
    <glyph glyph-name="Amacron" unicode="&#x100;" horiz-adv-x="780" 
d="M-98 39l36 4q16 2 28 7t25.5 17t31.5 33t45 56l496 633h61l13 -691q0 -26 10.5 -38.5t39.5 -16.5l32 -4l-12 -39h-327l12 39l36 4q32 4 43 16t11 39l-2 164h-253l-68 -87q-32 -42 -47.5 -67t-18 -39t5.5 -19t22 -7l32 -4l-12 -39h-252zM480 331l-3 251l-196 -251h199z
M473 941h314l-24 -68h-314z" />
    <glyph glyph-name="Aogonek" unicode="&#x104;" horiz-adv-x="780" 
d="M-98 39l36 4q16 2 28 7t25.5 17t31.5 33t45 56l496 633h61l13 -691q0 -26 10.5 -38.5t39.5 -16.5l32 -4l-12 -39h-327l12 39l36 4q32 4 43 16t11 39l-2 164h-253l-68 -87q-32 -42 -47.5 -67t-18 -39t5.5 -19t22 -7l32 -4l-12 -39h-252zM480 331l-3 251l-196 -251h199z
M615 -207q-20 -9 -48.5 -18t-54.5 -9q-41 0 -67 20.5t-26 56.5q0 24 15.5 46t40 41.5t54 37t58.5 32.5h47q-21 -15 -41.5 -31.5t-37 -33.5t-26.5 -35t-10 -36q0 -30 27.5 -40.5t79.5 0.5z" />
    <glyph glyph-name="Cacute" unicode="&#x106;" horiz-adv-x="803" 
d="M433 -13q-84 0 -150 23.5t-112.5 65t-71 97.5t-24.5 122q0 108 47 197.5t124.5 153t178.5 98.5t209 35q72 0 123.5 -9.5t90.5 -25.5l-18 -193h-41l-17 57q-19 62 -60 84t-111 22q-56 0 -118 -23.5t-114 -73t-86 -126.5t-34 -184q0 -66 16.5 -114.5t45.5 -80t68 -46.5
t84 -15q31 0 58 6.5t52.5 20t51 34t52.5 49.5l55 58h41l-107 -197q-50 -16 -105 -25.5t-128 -9.5zM925 969l-300 -126h-25l133 129h193z" />
    <glyph glyph-name="Ccaron" unicode="&#x10c;" horiz-adv-x="803" 
d="M433 -13q-84 0 -150 23.5t-112.5 65t-71 97.5t-24.5 122q0 108 47 197.5t124.5 153t178.5 98.5t209 35q72 0 123.5 -9.5t90.5 -25.5l-18 -193h-41l-17 57q-19 62 -60 84t-111 22q-56 0 -118 -23.5t-114 -73t-86 -126.5t-34 -184q0 -66 16.5 -114.5t45.5 -80t68 -46.5
t84 -15q31 0 58 6.5t52.5 20t51 34t52.5 49.5l55 58h41l-107 -197q-50 -16 -105 -25.5t-128 -9.5zM614 834l-97 154h20l103 -62l197 62h26l-233 -154h-16z" />
    <glyph glyph-name="Ccircumflex" unicode="&#x108;" horiz-adv-x="803" 
d="M433 -13q-84 0 -150 23.5t-112.5 65t-71 97.5t-24.5 122q0 108 47 197.5t124.5 153t178.5 98.5t209 35q72 0 123.5 -9.5t90.5 -25.5l-18 -193h-41l-17 57q-19 62 -60 84t-111 22q-56 0 -118 -23.5t-114 -73t-86 -126.5t-34 -184q0 -66 16.5 -114.5t45.5 -80t68 -46.5
t84 -15q31 0 58 6.5t52.5 20t51 34t52.5 49.5l55 58h41l-107 -197q-50 -16 -105 -25.5t-128 -9.5zM701 987l97 -154h-20l-103 62l-197 -62h-26l233 154h16z" />
    <glyph glyph-name="Cdotaccent" unicode="&#x10a;" horiz-adv-x="803" 
d="M433 -13q-84 0 -150 23.5t-112.5 65t-71 97.5t-24.5 122q0 108 47 197.5t124.5 153t178.5 98.5t209 35q72 0 123.5 -9.5t90.5 -25.5l-18 -193h-41l-17 57q-19 62 -60 84t-111 22q-56 0 -118 -23.5t-114 -73t-86 -126.5t-34 -184q0 -66 16.5 -114.5t45.5 -80t68 -46.5
t84 -15q31 0 58 6.5t52.5 20t51 34t52.5 49.5l55 58h41l-107 -197q-50 -16 -105 -25.5t-128 -9.5zM659 837q-30 0 -50 20.5t-20 50.5q0 31 20 51t50 20q29 0 49.5 -20t20.5 -51q0 -30 -20.5 -50.5t-49.5 -20.5z" />
    <glyph glyph-name="Dcaron" unicode="&#x10e;" horiz-adv-x="889" 
d="M-12 39l35 4q32 4 46 15t23 40l172 562q8 29 1 40t-36 15l-33 4l12 39h293q94 0 168 -18.5t125 -54.5t78 -89t27 -122q0 -92 -42 -177.5t-120.5 -151.5t-190.5 -105.5t-253 -39.5h-317zM310 54q77 0 138 20t107 53.5t78.5 78t53 93.5t30 100t9.5 98q0 114 -55 160.5
t-170 46.5q-22 0 -34.5 -0.5t-20 -3t-10.5 -6.5t-5 -11l-172 -561q-6 -22 -7.5 -35t3.5 -20.5t18 -10t35 -2.5h2zM578 834l-97 154h20l103 -62l197 62h26l-233 -154h-16z" />
    <glyph glyph-name="Dcroat" unicode="&#x110;" horiz-adv-x="889" 
d="M-12 39l35 4q32 4 46 15t23 40l172 562q8 29 1 40t-36 15l-33 4l12 39h293q94 0 168 -18.5t125 -54.5t78 -89t27 -122q0 -92 -42 -177.5t-120.5 -151.5t-190.5 -105.5t-253 -39.5h-317zM310 54q77 0 138 20t107 53.5t78.5 78t53 93.5t30 100t9.5 98q0 114 -55 160.5
t-170 46.5q-22 0 -34.5 -0.5t-20 -3t-10.5 -6.5t-5 -11l-172 -561q-6 -22 -7.5 -35t3.5 -20.5t18 -10t35 -2.5h2zM93 416h399l-20 -67h-399z" />
    <glyph glyph-name="Ebreve" unicode="&#x114;" horiz-adv-x="765" 
d="M514 758l314 2l-51 -205h-41l-2 56q-1 29 -8.5 46.5t-27 27t-55 12.5t-92.5 3h-95q-20 0 -26 -20l-81 -266h117q24 0 40 2t28 9t22 21t22 37l22 42h41l-88 -287h-41l4 42q2 23 0.5 37t-9 21t-22.5 9t-39 2h-117l-62 -202q-9 -30 -11.5 -47.5t3.5 -26.5t22 -12t45 -3h45
q60 0 96.5 3t63 13t47.5 28t49 48l62 67h41l-123 -217h-631l12 39l35 4q32 4 46 15t23 40l172 562q8 29 1 40t-36 15l-33 4l12 39h306zM610 827q-27 0 -54.5 8t-47.5 26.5t-30 49.5t-2 76h58q-8 -54 15.5 -80t65.5 -26q50 0 80 23t47 83h60q-14 -57 -39.5 -89t-54 -48
t-55.5 -19.5t-43 -3.5z" />
    <glyph glyph-name="Ecaron" unicode="&#x11a;" horiz-adv-x="765" 
d="M514 758l314 2l-51 -205h-41l-2 56q-1 29 -8.5 46.5t-27 27t-55 12.5t-92.5 3h-95q-20 0 -26 -20l-81 -266h117q24 0 40 2t28 9t22 21t22 37l22 42h41l-88 -287h-41l4 42q2 23 0.5 37t-9 21t-22.5 9t-39 2h-117l-62 -202q-9 -30 -11.5 -47.5t3.5 -26.5t22 -12t45 -3h45
q60 0 96.5 3t63 13t47.5 28t49 48l62 67h41l-123 -217h-631l12 39l35 4q32 4 46 15t23 40l172 562q8 29 1 40t-36 15l-33 4l12 39h306zM567 834l-97 154h20l103 -62l197 62h26l-233 -154h-16z" />
    <glyph glyph-name="Emacron" unicode="&#x112;" horiz-adv-x="765" 
d="M514 758l314 2l-51 -205h-41l-2 56q-1 29 -8.5 46.5t-27 27t-55 12.5t-92.5 3h-95q-20 0 -26 -20l-81 -266h117q24 0 40 2t28 9t22 21t22 37l22 42h41l-88 -287h-41l4 42q2 23 0.5 37t-9 21t-22.5 9t-39 2h-117l-62 -202q-9 -30 -11.5 -47.5t3.5 -26.5t22 -12t45 -3h45
q60 0 96.5 3t63 13t47.5 28t49 48l62 67h41l-123 -217h-631l12 39l35 4q32 4 46 15t23 40l172 562q8 29 1 40t-36 15l-33 4l12 39h306zM466 940h314l-24 -68h-314z" />
    <glyph glyph-name="Eogonek" unicode="&#x118;" horiz-adv-x="765" 
d="M514 758l314 2l-51 -205h-41l-2 56q-1 29 -8.5 46.5t-27 27t-55 12.5t-92.5 3h-95q-20 0 -26 -20l-81 -266h117q24 0 40 2t28 9t22 21t22 37l22 42h41l-88 -287h-41l4 42q2 23 0.5 37t-9 21t-22.5 9t-39 2h-117l-62 -202q-9 -30 -11.5 -47.5t3.5 -26.5t22 -12t45 -3h45
q60 0 96.5 3t63 13t47.5 28t49 48l62 67h41l-123 -217h-631l12 39l35 4q32 4 46 15t23 40l172 562q8 29 1 40t-36 15l-33 4l12 39h306zM588 -207q-20 -9 -48.5 -18t-54.5 -9q-41 0 -67 20.5t-26 56.5q0 24 15.5 46t40 41.5t54 37t58.5 32.5h47q-21 -15 -41.5 -31.5
t-37 -33.5t-26.5 -35t-10 -36q0 -30 27.5 -40.5t79.5 0.5z" />
    <glyph glyph-name="Edotaccent" unicode="&#x116;" horiz-adv-x="765" 
d="M514 758l314 2l-51 -205h-41l-2 56q-1 29 -8.5 46.5t-27 27t-55 12.5t-92.5 3h-95q-20 0 -26 -20l-81 -266h117q24 0 40 2t28 9t22 21t22 37l22 42h41l-88 -287h-41l4 42q2 23 0.5 37t-9 21t-22.5 9t-39 2h-117l-62 -202q-9 -30 -11.5 -47.5t3.5 -26.5t22 -12t45 -3h45
q60 0 96.5 3t63 13t47.5 28t49 48l62 67h41l-123 -217h-631l12 39l35 4q32 4 46 15t23 40l172 562q8 29 1 40t-36 15l-33 4l12 39h306zM612 837q-30 0 -50 20.5t-20 50.5q0 31 20 51t50 20q29 0 49.5 -20t20.5 -51q0 -30 -20.5 -50.5t-49.5 -20.5z" />
    <glyph glyph-name="Gbreve" unicode="&#x11e;" horiz-adv-x="864" 
d="M434 -13q-84 0 -150 23.5t-112.5 65t-71 97.5t-24.5 122q0 108 46 197.5t122.5 153t176.5 98.5t208 35q72 0 123.5 -9.5t90.5 -25.5l-18 -193h-41l-17 57q-19 62 -60 84t-111 22q-56 0 -117 -23.5t-112 -73t-84 -126.5t-33 -184q0 -66 16.5 -114.5t45.5 -80t68 -46.5
t84 -15q42 0 79 14l72 208q10 29 3 41t-36 14l-63 4l14 39h362l-17 -48l-87 -3l-74 -214l-18 -71q-40 -4 -71 -12t-60.5 -16t-61 -14t-72.5 -6zM652 827q-27 0 -54.5 8t-47.5 26.5t-30 49.5t-2 76h58q-8 -54 15.5 -80t65.5 -26q50 0 80 23t47 83h60q-14 -57 -39.5 -89
t-54 -48t-55.5 -19.5t-43 -3.5z" />
    <glyph glyph-name="Gcircumflex" unicode="&#x11c;" horiz-adv-x="864" 
d="M434 -13q-84 0 -150 23.5t-112.5 65t-71 97.5t-24.5 122q0 108 46 197.5t122.5 153t176.5 98.5t208 35q72 0 123.5 -9.5t90.5 -25.5l-18 -193h-41l-17 57q-19 62 -60 84t-111 22q-56 0 -117 -23.5t-112 -73t-84 -126.5t-33 -184q0 -66 16.5 -114.5t45.5 -80t68 -46.5
t84 -15q42 0 79 14l72 208q10 29 3 41t-36 14l-63 4l14 39h362l-17 -48l-87 -3l-74 -214l-18 -71q-40 -4 -71 -12t-60.5 -16t-61 -14t-72.5 -6zM696 987l97 -154h-20l-103 62l-197 -62h-26l233 154h16z" />
    <glyph glyph-name="uni0122" unicode="&#x122;" horiz-adv-x="864" 
d="M434 -13q-84 0 -150 23.5t-112.5 65t-71 97.5t-24.5 122q0 108 46 197.5t122.5 153t176.5 98.5t208 35q72 0 123.5 -9.5t90.5 -25.5l-18 -193h-41l-17 57q-19 62 -60 84t-111 22q-56 0 -117 -23.5t-112 -73t-84 -126.5t-33 -184q0 -66 16.5 -114.5t45.5 -80t68 -46.5
t84 -15q42 0 79 14l72 208q10 29 3 41t-36 14l-63 4l14 39h362l-17 -48l-87 -3l-74 -214l-18 -71q-40 -4 -71 -12t-60.5 -16t-61 -14t-72.5 -6zM354 -86q42 0 70 -26t28 -71q0 -36 -19.5 -65.5t-52 -53.5t-73 -42.5t-82.5 -33.5l-13 29q58 24 97.5 55t40.5 70
q1 27 -20.5 43.5t-53.5 21.5q1 34 22 53.5t56 19.5z" />
    <glyph glyph-name="Gdotaccent" unicode="&#x120;" horiz-adv-x="864" 
d="M434 -13q-84 0 -150 23.5t-112.5 65t-71 97.5t-24.5 122q0 108 46 197.5t122.5 153t176.5 98.5t208 35q72 0 123.5 -9.5t90.5 -25.5l-18 -193h-41l-17 57q-19 62 -60 84t-111 22q-56 0 -117 -23.5t-112 -73t-84 -126.5t-33 -184q0 -66 16.5 -114.5t45.5 -80t68 -46.5
t84 -15q42 0 79 14l72 208q10 29 3 41t-36 14l-63 4l14 39h362l-17 -48l-87 -3l-74 -214l-18 -71q-40 -4 -71 -12t-60.5 -16t-61 -14t-72.5 -6zM654 837q-30 0 -50 20.5t-20 50.5q0 31 20 51t50 20q29 0 49.5 -20t20.5 -51q0 -30 -20.5 -50.5t-49.5 -20.5z" />
    <glyph glyph-name="Hbar" unicode="&#x126;" horiz-adv-x="951" 
d="M308 0h-332l12 39l35 4q32 4 46 15t23 40l172 562q8 29 1 40t-36 15l-33 4l12 39h332l-12 -39l-35 -4q-32 -4 -46.5 -15t-22.5 -40l-75 -244h354l75 244q8 29 1 40t-36 15l-33 4l12 39h332l-12 -39l-35 -4q-32 -4 -46.5 -15t-22.5 -40l-172 -562q-9 -29 -1.5 -40
t36.5 -15l33 -4l-12 -39h-332l12 39l35 4q32 4 46 15t23 40l77 251h-354l-77 -251q-9 -29 -1.5 -40t36.5 -15l33 -4zM158 596h847l-20 -67h-847z" />
    <glyph glyph-name="Hcircumflex" unicode="&#x124;" horiz-adv-x="951" 
d="M308 0h-332l12 39l35 4q32 4 46 15t23 40l172 562q8 29 1 40t-36 15l-33 4l12 39h332l-12 -39l-35 -4q-32 -4 -46.5 -15t-22.5 -40l-75 -244h354l75 244q8 29 1 40t-36 15l-33 4l12 39h332l-12 -39l-35 -4q-32 -4 -46.5 -15t-22.5 -40l-172 -562q-9 -29 -1.5 -40
t36.5 -15l33 -4l-12 -39h-332l12 39l35 4q32 4 46 15t23 40l77 251h-354l-77 -251q-9 -29 -1.5 -40t36.5 -15l33 -4zM725 987l97 -154h-20l-103 62l-197 -62h-26l233 154h16z" />
    <glyph glyph-name="Ibreve" unicode="&#x12c;" horiz-adv-x="437" 
d="M264 660q8 29 1 40t-36 15l-33 4l12 39h332l-12 -39l-35 -4q-32 -4 -46.5 -15t-22.5 -40l-172 -562q-9 -29 -1.5 -40t36.5 -15l33 -4l-12 -39h-332l12 39l35 4q32 4 46 15t23 40zM424 827q-27 0 -54.5 8t-47.5 26.5t-30 49.5t-2 76h58q-8 -54 15.5 -80t65.5 -26
q50 0 80 23t47 83h60q-14 -57 -39.5 -89t-54 -48t-55.5 -19.5t-43 -3.5z" />
    <glyph glyph-name="Idotaccent" unicode="&#x130;" horiz-adv-x="437" 
d="M264 660q8 29 1 40t-36 15l-33 4l12 39h332l-12 -39l-35 -4q-32 -4 -46.5 -15t-22.5 -40l-172 -562q-9 -29 -1.5 -40t36.5 -15l33 -4l-12 -39h-332l12 39l35 4q32 4 46 15t23 40zM426 837q-30 0 -50 20.5t-20 50.5q0 31 20 51t50 20q29 0 49.5 -20t20.5 -51
q0 -30 -20.5 -50.5t-49.5 -20.5z" />
    <glyph glyph-name="Imacron" unicode="&#x12a;" horiz-adv-x="437" 
d="M264 660q8 29 1 40t-36 15l-33 4l12 39h332l-12 -39l-35 -4q-32 -4 -46.5 -15t-22.5 -40l-172 -562q-9 -29 -1.5 -40t36.5 -15l33 -4l-12 -39h-332l12 39l35 4q32 4 46 15t23 40zM280 940h314l-24 -68h-314z" />
    <glyph glyph-name="Iogonek" unicode="&#x12e;" horiz-adv-x="437" 
d="M264 660q8 29 1 40t-36 15l-33 4l12 39h332l-12 -39l-35 -4q-32 -4 -46.5 -15t-22.5 -40l-172 -562q-9 -29 -1.5 -40t36.5 -15l33 -4l-12 -39h-332l12 39l35 4q32 4 46 15t23 40zM209 -207q-20 -9 -48.5 -18t-54.5 -9q-41 0 -67 20.5t-26 56.5q0 24 15.5 46t40 41.5
t54 37t58.5 32.5h47q-21 -15 -41.5 -31.5t-37 -33.5t-26.5 -35t-10 -36q0 -30 27.5 -40.5t79.5 0.5z" />
    <glyph glyph-name="Itilde" unicode="&#x128;" horiz-adv-x="437" 
d="M264 660q8 29 1 40t-36 15l-33 4l12 39h332l-12 -39l-35 -4q-32 -4 -46.5 -15t-22.5 -40l-172 -562q-9 -29 -1.5 -40t36.5 -15l33 -4l-12 -39h-332l12 39l35 4q32 4 46 15t23 40zM244 833q10 67 38.5 104.5t83.5 37.5q23 0 42.5 -10t38.5 -22t37 -22t38 -10q9 0 17 1.5
t15.5 8t14 18.5t12.5 33h21q-7 -45 -18.5 -72t-26 -41.5t-31 -19t-32.5 -4.5q-26 0 -45 10t-36.5 21.5t-35.5 21.5t-42 10q-10 0 -20.5 -2.5t-20 -9.5t-17 -20t-12.5 -33h-21z" />
    <glyph glyph-name="uni1ECA" unicode="&#x1eca;" horiz-adv-x="437" 
d="M264 660q8 29 1 40t-36 15l-33 4l12 39h332l-12 -39l-35 -4q-32 -4 -46.5 -15t-22.5 -40l-172 -562q-9 -29 -1.5 -40t36.5 -15l33 -4l-12 -39h-332l12 39l35 4q32 4 46 15t23 40zM94 -242q-30 0 -50 20.5t-20 50.5q0 31 20 51t50 20q29 0 49.5 -20t20.5 -51
q0 -30 -20.5 -50.5t-49.5 -20.5z" />
    <glyph glyph-name="Jcircumflex" unicode="&#x134;" horiz-adv-x="432" 
d="M294 203q-12 -41 -29.5 -68.5t-40 -49.5t-50 -40t-60.5 -39q-17 -11 -40 -24.5t-49 -29t-52.5 -31t-50.5 -28.5l-23 39q56 37 94.5 66.5t64.5 58.5t43 61.5t31 77.5l142 464q8 29 1 40t-36 15l-33 4l12 39h332l-12 -39l-35 -4q-32 -4 -46.5 -15t-22.5 -40zM479 987
l97 -154h-20l-103 62l-197 -62h-26l233 154h16z" />
    <glyph glyph-name="uni0136" unicode="&#x136;" horiz-adv-x="885" 
d="M333 362l-81 -264q-9 -29 -1.5 -40t36.5 -15l33 -4l-12 -39h-332l12 39l35 4q32 4 46 15t23 40l172 562q8 29 1 40t-36 15l-33 4l12 39h332l-12 -39l-35 -4q-32 -4 -46.5 -15t-22.5 -40l-79 -258l300 197q87 57 123 85.5t7 30.5l-53 4l12 39h290l-12 -39l-35 -4
q-23 -3 -45 -10t-47 -20t-55.5 -31.5t-69.5 -44.5l-277 -182l251 -335q17 -23 25 -35t26 -14l33 -4l-12 -39h-206zM414 -86q42 0 70 -26t28 -71q0 -36 -19.5 -65.5t-52 -53.5t-73 -42.5t-82.5 -33.5l-13 29q58 24 97.5 55t40.5 70q1 27 -20.5 43.5t-53.5 21.5q1 34 22 53.5
t56 19.5z" />
    <glyph glyph-name="Lacute" unicode="&#x139;" horiz-adv-x="720" 
d="M268 151q-9 -31 -11.5 -49.5t6 -28t29.5 -12.5t59 -3h50q37 0 63 3t47.5 12.5t42 27t47.5 46.5l63 70h41l-123 -217h-606l12 39l35 4q32 4 46 15t23 40l172 562q8 29 1 40t-36 15l-33 4l12 39h332l-12 -39l-35 -4q-32 -4 -46.5 -15t-22.5 -40zM692 969l-300 -126h-25
l133 129h193z" />
    <glyph glyph-name="Lcaron" unicode="&#x13d;" horiz-adv-x="720" 
d="M268 151q-9 -31 -11.5 -49.5t6 -28t29.5 -12.5t59 -3h50q37 0 63 3t47.5 12.5t42 27t47.5 46.5l63 70h41l-123 -217h-606l12 39l35 4q32 4 46 15t23 40l172 562q8 29 1 40t-36 15l-33 4l12 39h332l-12 -39l-35 -4q-32 -4 -46.5 -15t-22.5 -40zM653 794q42 0 70 -26
t28 -71q0 -36 -19.5 -65.5t-52 -53.5t-73 -42.5t-82.5 -33.5l-13 29q58 24 97.5 55t40.5 70q1 27 -20.5 43.5t-53.5 21.5q1 34 22 53.5t56 19.5z" />
    <glyph glyph-name="uni013B" unicode="&#x13b;" horiz-adv-x="720" 
d="M268 151q-9 -31 -11.5 -49.5t6 -28t29.5 -12.5t59 -3h50q37 0 63 3t47.5 12.5t42 27t47.5 46.5l63 70h41l-123 -217h-606l12 39l35 4q32 4 46 15t23 40l172 562q8 29 1 40t-36 15l-33 4l12 39h332l-12 -39l-35 -4q-32 -4 -46.5 -15t-22.5 -40zM287 -86q42 0 70 -26
t28 -71q0 -36 -19.5 -65.5t-52 -53.5t-73 -42.5t-82.5 -33.5l-13 29q58 24 97.5 55t40.5 70q1 27 -20.5 43.5t-53.5 21.5q1 34 22 53.5t56 19.5z" />
    <glyph glyph-name="Ldot" unicode="&#x13f;" horiz-adv-x="720" 
d="M268 151q-9 -31 -11.5 -49.5t6 -28t29.5 -12.5t59 -3h50q37 0 63 3t47.5 12.5t42 27t47.5 46.5l63 70h41l-123 -217h-606l12 39l35 4q32 4 46 15t23 40l172 562q8 29 1 40t-36 15l-33 4l12 39h332l-12 -39l-35 -4q-32 -4 -46.5 -15t-22.5 -40zM632 341q-30 0 -50 20.5
t-20 50.5q0 31 20 51t50 20q29 0 49.5 -20t20.5 -51q0 -30 -20.5 -50.5t-49.5 -20.5z" />
    <glyph glyph-name="glyph223" horiz-adv-x="720" 
d="M268 151q-9 -31 -11.5 -49.5t6 -28t29.5 -12.5t59 -3h50q37 0 63 3t47.5 12.5t42 27t47.5 46.5l63 70h41l-123 -217h-606l12 39l35 4q32 4 46 15t23 40l172 562q8 29 1 40t-36 15l-33 4l12 39h332l-12 -39l-35 -4q-32 -4 -46.5 -15t-22.5 -40zM632 341q-30 0 -50 20.5
t-20 50.5q0 31 20 51t50 20q29 0 49.5 -20t20.5 -51q0 -30 -20.5 -50.5t-49.5 -20.5z" />
    <glyph glyph-name="Lslash" unicode="&#x141;" horiz-adv-x="720" 
d="M268 151q-9 -31 -11.5 -49.5t6 -28t29.5 -12.5t59 -3h50q37 0 63 3t47.5 12.5t42 27t47.5 46.5l63 70h41l-123 -217h-606l12 39l35 4q32 4 46 15t23 40l172 562q8 29 1 40t-36 15l-33 4l12 39h332l-12 -39l-35 -4q-32 -4 -46.5 -15t-22.5 -40zM17 310l510 224l-24 -77
l-511 -224z" />
    <glyph glyph-name="Eng" unicode="&#x14a;" horiz-adv-x="910" 
d="M557 -148q-17 -11 -40.5 -25t-50.5 -30t-54 -31.5t-51 -28.5l-17 37q44 30 78.5 54.5t62 52.5t48.5 66t39 95l22 73l-279 485l-121 -394q-18 -59 -24.5 -91t-4 -47.5t12 -19.5t24.5 -5l37 -4l-12 -39h-255l12 39l39 4q15 1 27 5t24 19.5t25.5 47.5t31.5 91l106 346
q24 78 15 117.5t-60 49.5l12 39h203l306 -521l97 315q18 59 24.5 91t4 47.5t-12.5 19t-24 5.5l-37 4l12 39h255l-12 -39l-39 -4q-16 -2 -28 -5.5t-24 -19t-25 -47.5t-31 -91l-154 -503q-12 -41 -27 -69t-34 -49.5t-43.5 -39.5t-57.5 -39z" />
    <glyph glyph-name="Nacute" unicode="&#x143;" horiz-adv-x="910" 
d="M315 600l-121 -394q-18 -59 -24.5 -91t-4 -47.5t12 -19.5t24.5 -5l37 -4l-12 -39h-255l12 39l39 4q15 1 27 5t24 19.5t25.5 47.5t31.5 91l106 346q24 78 15 117.5t-60 49.5l12 39h203l306 -521l97 315q18 59 24.5 91t4 47.5t-12.5 19t-24 5.5l-37 4l12 39h255l-12 -39
l-39 -4q-16 -2 -28 -5.5t-24 -19t-25 -47.5t-31 -91l-173 -565h-32zM941 969l-300 -126h-25l133 129h193z" />
    <glyph glyph-name="Ncaron" unicode="&#x147;" horiz-adv-x="910" 
d="M315 600l-121 -394q-18 -59 -24.5 -91t-4 -47.5t12 -19.5t24.5 -5l37 -4l-12 -39h-255l12 39l39 4q15 1 27 5t24 19.5t25.5 47.5t31.5 91l106 346q24 78 15 117.5t-60 49.5l12 39h203l306 -521l97 315q18 59 24.5 91t4 47.5t-12.5 19t-24 5.5l-37 4l12 39h255l-12 -39
l-39 -4q-16 -2 -28 -5.5t-24 -19t-25 -47.5t-31 -91l-173 -565h-32zM630 834l-97 154h20l103 -62l197 62h26l-233 -154h-16z" />
    <glyph glyph-name="uni0145" unicode="&#x145;" horiz-adv-x="910" 
d="M315 600l-121 -394q-18 -59 -24.5 -91t-4 -47.5t12 -19.5t24.5 -5l37 -4l-12 -39h-255l12 39l39 4q15 1 27 5t24 19.5t25.5 47.5t31.5 91l106 346q24 78 15 117.5t-60 49.5l12 39h203l306 -521l97 315q18 59 24.5 91t4 47.5t-12.5 19t-24 5.5l-37 4l12 39h255l-12 -39
l-39 -4q-16 -2 -28 -5.5t-24 -19t-25 -47.5t-31 -91l-173 -565h-32zM367 -86q42 0 70 -26t28 -71q0 -36 -19.5 -65.5t-52 -53.5t-73 -42.5t-82.5 -33.5l-13 29q58 24 97.5 55t40.5 70q1 27 -20.5 43.5t-53.5 21.5q1 34 22 53.5t56 19.5z" />
    <glyph glyph-name="OE" unicode="&#x152;" horiz-adv-x="1323" 
d="M433 -13q-72 0 -136 22.5t-113 65t-77.5 103t-28.5 136.5q0 81 36.5 163.5t102 149.5t155 109.5t195.5 42.5q94 0 161 -42t103 -111l41 132h200l314 2l-51 -205h-41l-2 56q-1 29 -8.5 46.5t-27 27t-55 12.5t-92.5 3h-95q-20 0 -26 -20l-81 -266h117q24 0 40 2t28 9t22 21
t22 37l22 42h41l-88 -287h-41l4 42q2 23 0.5 37t-9 21t-22.5 9t-39 2h-117l-62 -202q-9 -30 -11.5 -47.5t3.5 -26.5t22 -12t45 -3h45q60 0 96.5 3t63 13t47.5 28t49 48l62 67h41l-123 -217h-525l22 71q-48 -38 -105.5 -61t-123.5 -23zM748 509q0 106 -48.5 158.5
t-134.5 52.5q-52 0 -95 -21t-77.5 -56.5t-61 -82.5t-44 -98.5t-26.5 -104.5t-9 -100q0 -106 48.5 -158.5t134.5 -52.5q51 0 94.5 21t78 56.5t61 82.5t44 98.5t26.5 104t9 100.5z" />
    <glyph glyph-name="Obreve" unicode="&#x14e;" horiz-adv-x="918" 
d="M433 -13q-72 0 -136 22.5t-113 65t-77.5 103t-28.5 136.5q0 81 36.5 163.5t102 149.5t155 109.5t195.5 42.5q72 0 136 -22.5t113 -65t77.5 -103t28.5 -136.5q0 -81 -36.5 -163.5t-102 -149.5t-155 -109.5t-195.5 -42.5zM435 46q51 0 94.5 21t78 56.5t61 82.5t44 98.5
t26.5 104t9 100.5q0 106 -48.5 158.5t-134.5 52.5q-52 0 -95 -21t-77.5 -56.5t-61 -82.5t-44 -98.5t-26.5 -104.5t-9 -100q0 -106 48.5 -158.5t134.5 -52.5zM618 827q-27 0 -54.5 8t-47.5 26.5t-30 49.5t-2 76h58q-8 -54 15.5 -80t65.5 -26q50 0 80 23t47 83h60
q-14 -57 -39.5 -89t-54 -48t-55.5 -19.5t-43 -3.5z" />
    <glyph glyph-name="Ohungarumlaut" unicode="&#x150;" horiz-adv-x="918" 
d="M433 -13q-72 0 -136 22.5t-113 65t-77.5 103t-28.5 136.5q0 81 36.5 163.5t102 149.5t155 109.5t195.5 42.5q72 0 136 -22.5t113 -65t77.5 -103t28.5 -136.5q0 -81 -36.5 -163.5t-102 -149.5t-155 -109.5t-195.5 -42.5zM435 46q51 0 94.5 21t78 56.5t61 82.5t44 98.5
t26.5 104t9 100.5q0 106 -48.5 158.5t-134.5 52.5q-52 0 -95 -21t-77.5 -56.5t-61 -82.5t-44 -98.5t-26.5 -104.5t-9 -100q0 -106 48.5 -158.5t134.5 -52.5zM1021 969l-302 -126h-25l135 129h193zM801 969l-302 -126h-25l135 129h193z" />
    <glyph glyph-name="Omacron" unicode="&#x14c;" horiz-adv-x="918" 
d="M433 -13q-72 0 -136 22.5t-113 65t-77.5 103t-28.5 136.5q0 81 36.5 163.5t102 149.5t155 109.5t195.5 42.5q72 0 136 -22.5t113 -65t77.5 -103t28.5 -136.5q0 -81 -36.5 -163.5t-102 -149.5t-155 -109.5t-195.5 -42.5zM435 46q51 0 94.5 21t78 56.5t61 82.5t44 98.5
t26.5 104t9 100.5q0 106 -48.5 158.5t-134.5 52.5q-52 0 -95 -21t-77.5 -56.5t-61 -82.5t-44 -98.5t-26.5 -104.5t-9 -100q0 -106 48.5 -158.5t134.5 -52.5zM474 940h314l-24 -68h-314z" />
    <glyph glyph-name="uni1ECC" unicode="&#x1ecc;" horiz-adv-x="918" 
d="M433 -13q-72 0 -136 22.5t-113 65t-77.5 103t-28.5 136.5q0 81 36.5 163.5t102 149.5t155 109.5t195.5 42.5q72 0 136 -22.5t113 -65t77.5 -103t28.5 -136.5q0 -81 -36.5 -163.5t-102 -149.5t-155 -109.5t-195.5 -42.5zM435 46q51 0 94.5 21t78 56.5t61 82.5t44 98.5
t26.5 104t9 100.5q0 106 -48.5 158.5t-134.5 52.5q-52 0 -95 -21t-77.5 -56.5t-61 -82.5t-44 -98.5t-26.5 -104.5t-9 -100q0 -106 48.5 -158.5t134.5 -52.5zM341 -242q-30 0 -50 20.5t-20 50.5q0 31 20 51t50 20q29 0 49.5 -20t20.5 -51q0 -30 -20.5 -50.5t-49.5 -20.5z" />
    <glyph glyph-name="Racute" unicode="&#x154;" horiz-adv-x="833" 
d="M662 -13q-81 0 -117.5 50t-20.5 161q7 52 -0.5 83.5t-24.5 48.5t-41 22.5t-49 5.5h-78l-79 -260q-9 -29 -1.5 -40t36.5 -15l33 -4l-12 -39h-332l12 39l35 4q32 4 46 15t23 40l172 562q8 29 1 40t-36 15l-33 4l12 39h314q151 0 231.5 -36.5t80.5 -119.5q0 -42 -21 -78
t-59 -63.5t-90 -44.5t-114 -20l-1 -2q33 -5 62 -17.5t50 -34t31.5 -51.5t6.5 -69l-5 -54q-7 -72 13 -101.5t77 -21.5l-5 -37q-33 -11 -58.5 -16t-58.5 -5zM457 411q57 0 96 18t63 45.5t35 60t11 61.5q0 56 -32.5 82.5t-110.5 26.5h-21q-20 0 -32.5 -1t-19.5 -3.5t-10 -7
t-5 -11.5l-83 -271h109zM889 969l-300 -126h-25l133 129h193z" />
    <glyph glyph-name="Rcaron" unicode="&#x158;" horiz-adv-x="833" 
d="M662 -13q-81 0 -117.5 50t-20.5 161q7 52 -0.5 83.5t-24.5 48.5t-41 22.5t-49 5.5h-78l-79 -260q-9 -29 -1.5 -40t36.5 -15l33 -4l-12 -39h-332l12 39l35 4q32 4 46 15t23 40l172 562q8 29 1 40t-36 15l-33 4l12 39h314q151 0 231.5 -36.5t80.5 -119.5q0 -42 -21 -78
t-59 -63.5t-90 -44.5t-114 -20l-1 -2q33 -5 62 -17.5t50 -34t31.5 -51.5t6.5 -69l-5 -54q-7 -72 13 -101.5t77 -21.5l-5 -37q-33 -11 -58.5 -16t-58.5 -5zM457 411q57 0 96 18t63 45.5t35 60t11 61.5q0 56 -32.5 82.5t-110.5 26.5h-21q-20 0 -32.5 -1t-19.5 -3.5t-10 -7
t-5 -11.5l-83 -271h109zM578 834l-97 154h20l103 -62l197 62h26l-233 -154h-16z" />
    <glyph glyph-name="uni0156" unicode="&#x156;" horiz-adv-x="833" 
d="M662 -13q-81 0 -117.5 50t-20.5 161q7 52 -0.5 83.5t-24.5 48.5t-41 22.5t-49 5.5h-78l-79 -260q-9 -29 -1.5 -40t36.5 -15l33 -4l-12 -39h-332l12 39l35 4q32 4 46 15t23 40l172 562q8 29 1 40t-36 15l-33 4l12 39h314q151 0 231.5 -36.5t80.5 -119.5q0 -42 -21 -78
t-59 -63.5t-90 -44.5t-114 -20l-1 -2q33 -5 62 -17.5t50 -34t31.5 -51.5t6.5 -69l-5 -54q-7 -72 13 -101.5t77 -21.5l-5 -37q-33 -11 -58.5 -16t-58.5 -5zM457 411q57 0 96 18t63 45.5t35 60t11 61.5q0 56 -32.5 82.5t-110.5 26.5h-21q-20 0 -32.5 -1t-19.5 -3.5t-10 -7
t-5 -11.5l-83 -271h109zM401 -86q42 0 70 -26t28 -71q0 -36 -19.5 -65.5t-52 -53.5t-73 -42.5t-82.5 -33.5l-13 29q58 24 97.5 55t40.5 70q1 27 -20.5 43.5t-53.5 21.5q1 34 22 53.5t56 19.5z" />
    <glyph glyph-name="Sacute" unicode="&#x15a;" horiz-adv-x="640" 
d="M198 -13q-54 0 -103 12t-84 30l38 220h41l20 -122q6 -40 25 -59q15 -14 39.5 -18t57.5 -4q42 0 75.5 10.5t56.5 29.5t35.5 44.5t12.5 55.5q0 21 -5.5 37.5t-16 30.5t-25 27.5t-31.5 27.5l-56 46q-51 42 -74.5 85t-23.5 94q0 54 27 99t74 77.5t110 50.5t134 18
q54 0 95 -10t74 -22l-42 -190h-41l-9 64q-5 31 -13 51t-22 32q-13 10 -31 14t-39 4q-75 0 -121 -34t-46 -91q0 -27 12 -54t43 -52l56 -46q31 -25 55.5 -47t41.5 -45t26.5 -48.5t9.5 -58.5q0 -56 -25.5 -103.5t-74 -82t-118.5 -54t-158 -19.5zM817 969l-300 -126h-25l133 129
h193z" />
    <glyph glyph-name="Scaron" unicode="&#x160;" horiz-adv-x="640" 
d="M198 -13q-54 0 -103 12t-84 30l38 220h41l20 -122q6 -40 25 -59q15 -14 39.5 -18t57.5 -4q42 0 75.5 10.5t56.5 29.5t35.5 44.5t12.5 55.5q0 21 -5.5 37.5t-16 30.5t-25 27.5t-31.5 27.5l-56 46q-51 42 -74.5 85t-23.5 94q0 54 27 99t74 77.5t110 50.5t134 18
q54 0 95 -10t74 -22l-42 -190h-41l-9 64q-5 31 -13 51t-22 32q-13 10 -31 14t-39 4q-75 0 -121 -34t-46 -91q0 -27 12 -54t43 -52l56 -46q31 -25 55.5 -47t41.5 -45t26.5 -48.5t9.5 -58.5q0 -56 -25.5 -103.5t-74 -82t-118.5 -54t-158 -19.5zM506 834l-97 154h20l103 -62
l197 62h26l-233 -154h-16z" />
    <glyph glyph-name="Scedilla" unicode="&#x15e;" horiz-adv-x="640" 
d="M198 -13q-54 0 -103 12t-84 30l38 220h41l20 -122q6 -40 25 -59q15 -14 39.5 -18t57.5 -4q42 0 75.5 10.5t56.5 29.5t35.5 44.5t12.5 55.5q0 21 -5.5 37.5t-16 30.5t-25 27.5t-31.5 27.5l-56 46q-51 42 -74.5 85t-23.5 94q0 54 27 99t74 77.5t110 50.5t134 18
q54 0 95 -10t74 -22l-42 -190h-41l-9 64q-5 31 -13 51t-22 32q-13 10 -31 14t-39 4q-75 0 -121 -34t-46 -91q0 -27 12 -54t43 -52l56 -46q31 -25 55.5 -47t41.5 -45t26.5 -48.5t9.5 -58.5q0 -56 -25.5 -103.5t-74 -82t-118.5 -54t-158 -19.5zM137 -265q-28 0 -48 6t-32.5 15
t-18.5 20.5t-6 22.5q0 12 6 20.5t15 13t19.5 4t20.5 -4.5q1 -32 18 -48.5t42 -16.5q43 0 43 29q0 18 -22 35.5t-68 46.5l156 122h51l-109 -85q27 -18 43.5 -38.5t16.5 -46.5q0 -42 -36 -68.5t-91 -26.5z" />
    <glyph glyph-name="Scircumflex" unicode="&#x15c;" horiz-adv-x="640" 
d="M198 -13q-54 0 -103 12t-84 30l38 220h41l20 -122q6 -40 25 -59q15 -14 39.5 -18t57.5 -4q42 0 75.5 10.5t56.5 29.5t35.5 44.5t12.5 55.5q0 21 -5.5 37.5t-16 30.5t-25 27.5t-31.5 27.5l-56 46q-51 42 -74.5 85t-23.5 94q0 54 27 99t74 77.5t110 50.5t134 18
q54 0 95 -10t74 -22l-42 -190h-41l-9 64q-5 31 -13 51t-22 32q-13 10 -31 14t-39 4q-75 0 -121 -34t-46 -91q0 -27 12 -54t43 -52l56 -46q31 -25 55.5 -47t41.5 -45t26.5 -48.5t9.5 -58.5q0 -56 -25.5 -103.5t-74 -82t-118.5 -54t-158 -19.5zM593 987l97 -154h-20l-103 62
l-197 -62h-26l233 154h16z" />
    <glyph glyph-name="uni0218" unicode="&#x218;" horiz-adv-x="640" 
d="M198 -13q-54 0 -103 12t-84 30l38 220h41l20 -122q6 -40 25 -59q15 -14 39.5 -18t57.5 -4q42 0 75.5 10.5t56.5 29.5t35.5 44.5t12.5 55.5q0 21 -5.5 37.5t-16 30.5t-25 27.5t-31.5 27.5l-56 46q-51 42 -74.5 85t-23.5 94q0 54 27 99t74 77.5t110 50.5t134 18
q54 0 95 -10t74 -22l-42 -190h-41l-9 64q-5 31 -13 51t-22 32q-13 10 -31 14t-39 4q-75 0 -121 -34t-46 -91q0 -27 12 -54t43 -52l56 -46q31 -25 55.5 -47t41.5 -45t26.5 -48.5t9.5 -58.5q0 -56 -25.5 -103.5t-74 -82t-118.5 -54t-158 -19.5zM209 -86q42 0 70 -26t28 -71
q0 -36 -19.5 -65.5t-52 -53.5t-73 -42.5t-82.5 -33.5l-13 29q58 24 97.5 55t40.5 70q1 27 -20.5 43.5t-53.5 21.5q1 34 22 53.5t56 19.5z" />
    <glyph glyph-name="Tbar" unicode="&#x166;" horiz-adv-x="750" 
d="M116 41l65 4q30 2 44.5 13t23.5 40l184 602h-10q-57 0 -94.5 -2.5t-64 -11.5t-44.5 -26t-36 -46l-37 -59h-41l78 205l257 -2h180l257 2l-46 -205h-41l-1 59q-1 29 -9 46t-28.5 26t-56.5 11.5t-93 2.5h-10l-184 -602q-9 -29 -1.5 -40t37.5 -13l63 -4l-13 -41h-392z
M176 417h501l-20 -67h-501z" />
    <glyph glyph-name="Tcaron" unicode="&#x164;" horiz-adv-x="750" 
d="M116 41l65 4q30 2 44.5 13t23.5 40l184 602h-10q-57 0 -94.5 -2.5t-64 -11.5t-44.5 -26t-36 -46l-37 -59h-41l78 205l257 -2h180l257 2l-46 -205h-41l-1 59q-1 29 -9 46t-28.5 26t-56.5 11.5t-93 2.5h-10l-184 -602q-9 -29 -1.5 -40t37.5 -13l63 -4l-13 -41h-392z
M538 834l-97 154h20l103 -62l197 62h26l-233 -154h-16z" />
    <glyph glyph-name="uni0162" unicode="&#x162;" horiz-adv-x="750" 
d="M116 41l65 4q30 2 44.5 13t23.5 40l184 602h-10q-57 0 -94.5 -2.5t-64 -11.5t-44.5 -26t-36 -46l-37 -59h-41l78 205l257 -2h180l257 2l-46 -205h-41l-1 59q-1 29 -9 46t-28.5 26t-56.5 11.5t-93 2.5h-10l-184 -602q-9 -29 -1.5 -40t37.5 -13l63 -4l-13 -41h-392z
M232 -86q42 0 70 -26t28 -71q0 -36 -19.5 -65.5t-52 -53.5t-73 -42.5t-82.5 -33.5l-13 29q58 24 97.5 55t40.5 70q1 27 -20.5 43.5t-53.5 21.5q1 34 22 53.5t56 19.5z" />
    <glyph glyph-name="uni021A" unicode="&#x21a;" horiz-adv-x="750" 
d="M116 41l65 4q30 2 44.5 13t23.5 40l184 602h-10q-57 0 -94.5 -2.5t-64 -11.5t-44.5 -26t-36 -46l-37 -59h-41l78 205l257 -2h180l257 2l-46 -205h-41l-1 59q-1 29 -9 46t-28.5 26t-56.5 11.5t-93 2.5h-10l-184 -602q-9 -29 -1.5 -40t37.5 -13l63 -4l-13 -41h-392z
M232 -86q42 0 70 -26t28 -71q0 -36 -19.5 -65.5t-52 -53.5t-73 -42.5t-82.5 -33.5l-13 29q58 24 97.5 55t40.5 70q1 27 -20.5 43.5t-53.5 21.5q1 34 22 53.5t56 19.5z" />
    <glyph glyph-name="Ubreve" unicode="&#x16c;" horiz-adv-x="877" 
d="M380 -13q-75 0 -132.5 18t-91 55.5t-41 94.5t16.5 136l113 369q8 29 1 40t-36 15l-33 4l12 39h332l-12 -39l-35 -4q-32 -4 -46.5 -15t-22.5 -40l-113 -370q-18 -57 -21 -101.5t11 -74.5t47 -45.5t88 -15.5q117 0 186 60.5t106 181.5l79 257q18 59 24 91t3 47.5t-13.5 19
t-24.5 5.5l-37 4l12 39h255l-12 -39l-39 -4q-16 -2 -27.5 -5.5t-23 -19t-24 -47.5t-30.5 -91l-79 -259q-48 -155 -142 -230.5t-250 -75.5zM669 827q-27 0 -54.5 8t-47.5 26.5t-30 49.5t-2 76h58q-8 -54 15.5 -80t65.5 -26q50 0 80 23t47 83h60q-14 -57 -39.5 -89t-54 -48
t-55.5 -19.5t-43 -3.5z" />
    <glyph glyph-name="Uhungarumlaut" unicode="&#x170;" horiz-adv-x="877" 
d="M380 -13q-75 0 -132.5 18t-91 55.5t-41 94.5t16.5 136l113 369q8 29 1 40t-36 15l-33 4l12 39h332l-12 -39l-35 -4q-32 -4 -46.5 -15t-22.5 -40l-113 -370q-18 -57 -21 -101.5t11 -74.5t47 -45.5t88 -15.5q117 0 186 60.5t106 181.5l79 257q18 59 24 91t3 47.5t-13.5 19
t-24.5 5.5l-37 4l12 39h255l-12 -39l-39 -4q-16 -2 -27.5 -5.5t-23 -19t-24 -47.5t-30.5 -91l-79 -259q-48 -155 -142 -230.5t-250 -75.5zM1072 969l-302 -126h-25l135 129h193zM852 969l-302 -126h-25l135 129h193z" />
    <glyph glyph-name="Umacron" unicode="&#x16a;" horiz-adv-x="877" 
d="M380 -13q-75 0 -132.5 18t-91 55.5t-41 94.5t16.5 136l113 369q8 29 1 40t-36 15l-33 4l12 39h332l-12 -39l-35 -4q-32 -4 -46.5 -15t-22.5 -40l-113 -370q-18 -57 -21 -101.5t11 -74.5t47 -45.5t88 -15.5q117 0 186 60.5t106 181.5l79 257q18 59 24 91t3 47.5t-13.5 19
t-24.5 5.5l-37 4l12 39h255l-12 -39l-39 -4q-16 -2 -27.5 -5.5t-23 -19t-24 -47.5t-30.5 -91l-79 -259q-48 -155 -142 -230.5t-250 -75.5zM525 940h314l-24 -68h-314z" />
    <glyph glyph-name="Uogonek" unicode="&#x172;" horiz-adv-x="877" 
d="M380 -13q-75 0 -132.5 18t-91 55.5t-41 94.5t16.5 136l113 369q8 29 1 40t-36 15l-33 4l12 39h332l-12 -39l-35 -4q-32 -4 -46.5 -15t-22.5 -40l-113 -370q-18 -57 -21 -101.5t11 -74.5t47 -45.5t88 -15.5q117 0 186 60.5t106 181.5l79 257q18 59 24 91t3 47.5t-13.5 19
t-24.5 5.5l-37 4l12 39h255l-12 -39l-39 -4q-16 -2 -27.5 -5.5t-23 -19t-24 -47.5t-30.5 -91l-79 -259q-44 -142 -125.5 -216.5t-212.5 -86.5q-19 -15 -36 -30t-30.5 -31t-21.5 -32t-8 -33q0 -30 27.5 -40.5t79.5 0.5l-11 -31q-20 -9 -48.5 -18t-54.5 -9q-41 0 -67 20.5
t-26 56.5q0 21 13 41t33.5 38t46.5 34.5t52 30.5h-3z" />
    <glyph glyph-name="Uring" unicode="&#x16e;" horiz-adv-x="877" 
d="M380 -13q-75 0 -132.5 18t-91 55.5t-41 94.5t16.5 136l113 369q8 29 1 40t-36 15l-33 4l12 39h332l-12 -39l-35 -4q-32 -4 -46.5 -15t-22.5 -40l-113 -370q-18 -57 -21 -101.5t11 -74.5t47 -45.5t88 -15.5q117 0 186 60.5t106 181.5l79 257q18 59 24 91t3 47.5t-13.5 19
t-24.5 5.5l-37 4l12 39h255l-12 -39l-39 -4q-16 -2 -27.5 -5.5t-23 -19t-24 -47.5t-30.5 -91l-79 -259q-48 -155 -142 -230.5t-250 -75.5zM564 957q0 25 10 47t26.5 38.5t39 26t48.5 9.5q27 0 50 -9.5t40 -26t27 -38.5t10 -47t-10 -47t-27 -38t-40 -25.5t-50 -9.5
q-26 0 -48.5 9.5t-39 25.5t-26.5 38t-10 47zM754 957q0 31 -17 48.5t-49 17.5q-30 0 -47.5 -17.5t-17.5 -48.5t17.5 -49t47.5 -18q32 0 49 18t17 49z" />
    <glyph glyph-name="Utilde" unicode="&#x168;" horiz-adv-x="877" 
d="M380 -13q-75 0 -132.5 18t-91 55.5t-41 94.5t16.5 136l113 369q8 29 1 40t-36 15l-33 4l12 39h332l-12 -39l-35 -4q-32 -4 -46.5 -15t-22.5 -40l-113 -370q-18 -57 -21 -101.5t11 -74.5t47 -45.5t88 -15.5q117 0 186 60.5t106 181.5l79 257q18 59 24 91t3 47.5t-13.5 19
t-24.5 5.5l-37 4l12 39h255l-12 -39l-39 -4q-16 -2 -27.5 -5.5t-23 -19t-24 -47.5t-30.5 -91l-79 -259q-48 -155 -142 -230.5t-250 -75.5zM489 833q10 67 38.5 104.5t83.5 37.5q23 0 42.5 -10t38.5 -22t37 -22t38 -10q9 0 17 1.5t15.5 8t14 18.5t12.5 33h21
q-7 -45 -18.5 -72t-26 -41.5t-31 -19t-32.5 -4.5q-26 0 -45 10t-36.5 21.5t-35.5 21.5t-42 10q-10 0 -20.5 -2.5t-20 -9.5t-17 -20t-12.5 -33h-21z" />
    <glyph glyph-name="uni1EE4" unicode="&#x1ee4;" horiz-adv-x="877" 
d="M380 -13q-75 0 -132.5 18t-91 55.5t-41 94.5t16.5 136l113 369q8 29 1 40t-36 15l-33 4l12 39h332l-12 -39l-35 -4q-32 -4 -46.5 -15t-22.5 -40l-113 -370q-18 -57 -21 -101.5t11 -74.5t47 -45.5t88 -15.5q117 0 186 60.5t106 181.5l79 257q18 59 24 91t3 47.5t-13.5 19
t-24.5 5.5l-37 4l12 39h255l-12 -39l-39 -4q-16 -2 -27.5 -5.5t-23 -19t-24 -47.5t-30.5 -91l-79 -259q-48 -155 -142 -230.5t-250 -75.5zM318 -242q-30 0 -50 20.5t-20 50.5q0 31 20 51t50 20q29 0 49.5 -20t20.5 -51q0 -30 -20.5 -50.5t-49.5 -20.5z" />
    <glyph glyph-name="Wacute" unicode="&#x1e82;" horiz-adv-x="1196" 
d="M1374 719l-36 -4q-16 -2 -28 -7t-25.5 -17t-31.5 -33.5t-45 -55.5l-496 -628h-61l-8 438l-346 -438h-61l-13 686q-1 26 -11 38.5t-39 16.5l-32 4l12 39h327l-12 -39l-36 -4q-32 -4 -43 -16t-11 -39l6 -480l257 327l-5 251h279l-12 -39l-56 -4q-32 -2 -43 -15t-11 -40
l6 -480l317 403q33 41 48 66t17.5 39t-5.5 19.5t-22 7.5l-32 4l12 39h252zM1087 969l-300 -126h-25l133 129h193z" />
    <glyph glyph-name="Wcircumflex" unicode="&#x174;" horiz-adv-x="1196" 
d="M1374 719l-36 -4q-16 -2 -28 -7t-25.5 -17t-31.5 -33.5t-45 -55.5l-496 -628h-61l-8 438l-346 -438h-61l-13 686q-1 26 -11 38.5t-39 16.5l-32 4l12 39h327l-12 -39l-36 -4q-32 -4 -43 -16t-11 -39l6 -480l257 327l-5 251h279l-12 -39l-56 -4q-32 -2 -43 -15t-11 -40
l6 -480l317 403q33 41 48 66t17.5 39t-5.5 19.5t-22 7.5l-32 4l12 39h252zM863 987l97 -154h-20l-103 62l-197 -62h-26l233 154h16z" />
    <glyph glyph-name="Wdieresis" unicode="&#x1e84;" horiz-adv-x="1196" 
d="M1374 719l-36 -4q-16 -2 -28 -7t-25.5 -17t-31.5 -33.5t-45 -55.5l-496 -628h-61l-8 438l-346 -438h-61l-13 686q-1 26 -11 38.5t-39 16.5l-32 4l12 39h327l-12 -39l-36 -4q-32 -4 -43 -16t-11 -39l6 -480l257 327l-5 251h279l-12 -39l-56 -4q-32 -2 -43 -15t-11 -40
l6 -480l317 403q33 41 48 66t17.5 39t-5.5 19.5t-22 7.5l-32 4l12 39h252zM708 837q-30 0 -50 20.5t-20 50.5q0 31 20 51t50 20q29 0 49.5 -20t20.5 -51q0 -30 -20.5 -50.5t-49.5 -20.5zM934 837q-30 0 -50 20.5t-20 50.5q0 31 20 51t50 20q29 0 49.5 -20t20.5 -51
q0 -30 -20.5 -50.5t-49.5 -20.5z" />
    <glyph glyph-name="Wgrave" unicode="&#x1e80;" horiz-adv-x="1196" 
d="M1374 719l-36 -4q-16 -2 -28 -7t-25.5 -17t-31.5 -33.5t-45 -55.5l-496 -628h-61l-8 438l-346 -438h-61l-13 686q-1 26 -11 38.5t-39 16.5l-32 4l12 39h327l-12 -39l-36 -4q-32 -4 -43 -16t-11 -39l6 -480l257 327l-5 251h279l-12 -39l-56 -4q-32 -2 -43 -15t-11 -40
l6 -480l317 403q33 41 48 66t17.5 39t-5.5 19.5t-22 7.5l-32 4l12 39h252zM787 972l55 -129h-19l-208 126l1 3h171z" />
    <glyph glyph-name="Ycircumflex" unicode="&#x176;" horiz-adv-x="797" 
d="M139 41l65 4q30 2 44.5 13t23.5 40l75 244l-129 318q-5 12 -8 21.5t-8 16.5t-13 11t-22 6l-33 4l12 39h345l-12 -39l-35 -4q-32 -4 -47.5 -17.5t-5.5 -37.5l99 -251l178 174q36 36 56.5 60t27.5 39.5t2 23t-19 9.5l-33 4l12 39h252l-12 -39l-32 -4q-16 -2 -28 -7
t-27.5 -17.5t-37.5 -33.5t-57 -55l-265 -258l-75 -246q-9 -29 -1.5 -40t37.5 -13l63 -4l-13 -41h-392zM675 987l97 -154h-20l-103 62l-197 -62h-26l233 154h16z" />
    <glyph glyph-name="Ydieresis" unicode="&#x178;" horiz-adv-x="797" 
d="M139 41l65 4q30 2 44.5 13t23.5 40l75 244l-129 318q-5 12 -8 21.5t-8 16.5t-13 11t-22 6l-33 4l12 39h345l-12 -39l-35 -4q-32 -4 -47.5 -17.5t-5.5 -37.5l99 -251l178 174q36 36 56.5 60t27.5 39.5t2 23t-19 9.5l-33 4l12 39h252l-12 -39l-32 -4q-16 -2 -28 -7
t-27.5 -17.5t-37.5 -33.5t-57 -55l-265 -258l-75 -246q-9 -29 -1.5 -40t37.5 -13l63 -4l-13 -41h-392zM520 837q-30 0 -50 20.5t-20 50.5q0 31 20 51t50 20q29 0 49.5 -20t20.5 -51q0 -30 -20.5 -50.5t-49.5 -20.5zM746 837q-30 0 -50 20.5t-20 50.5q0 31 20 51t50 20
q29 0 49.5 -20t20.5 -51q0 -30 -20.5 -50.5t-49.5 -20.5z" />
    <glyph glyph-name="Ygrave" unicode="&#x1ef2;" horiz-adv-x="797" 
d="M139 41l65 4q30 2 44.5 13t23.5 40l75 244l-129 318q-5 12 -8 21.5t-8 16.5t-13 11t-22 6l-33 4l12 39h345l-12 -39l-35 -4q-32 -4 -47.5 -17.5t-5.5 -37.5l99 -251l178 174q36 36 56.5 60t27.5 39.5t2 23t-19 9.5l-33 4l12 39h252l-12 -39l-32 -4q-16 -2 -28 -7
t-27.5 -17.5t-37.5 -33.5t-57 -55l-265 -258l-75 -246q-9 -29 -1.5 -40t37.5 -13l63 -4l-13 -41h-392zM599 972l55 -129h-19l-208 126l1 3h171z" />
    <glyph glyph-name="uni0232" unicode="&#x232;" horiz-adv-x="797" 
d="M139 41l65 4q30 2 44.5 13t23.5 40l75 244l-129 318q-5 12 -8 21.5t-8 16.5t-13 11t-22 6l-33 4l12 39h345l-12 -39l-35 -4q-32 -4 -47.5 -17.5t-5.5 -37.5l99 -251l178 174q36 36 56.5 60t27.5 39.5t2 23t-19 9.5l-33 4l12 39h252l-12 -39l-32 -4q-16 -2 -28 -7
t-27.5 -17.5t-37.5 -33.5t-57 -55l-265 -258l-75 -246q-9 -29 -1.5 -40t37.5 -13l63 -4l-13 -41h-392zM487 940h314l-24 -68h-314z" />
    <glyph glyph-name="Zacute" unicode="&#x179;" horiz-adv-x="778" 
d="M656 704h-124q-63 0 -103.5 -3.5t-69 -13t-50.5 -28t-50 -48.5l-63 -67h-41l136 216l257 -2h354l-727 -704h186q63 0 103 3t68.5 13t51 28t50.5 48l62 67h41l-122 -213h-686zM891 969l-300 -126h-25l133 129h193z" />
    <glyph glyph-name="Zcaron" unicode="&#x17d;" horiz-adv-x="778" 
d="M656 704h-124q-63 0 -103.5 -3.5t-69 -13t-50.5 -28t-50 -48.5l-63 -67h-41l136 216l257 -2h354l-727 -704h186q63 0 103 3t68.5 13t51 28t50.5 48l62 67h41l-122 -213h-686zM580 834l-97 154h20l103 -62l197 62h26l-233 -154h-16z" />
    <glyph glyph-name="Zdotaccent" unicode="&#x17b;" horiz-adv-x="778" 
d="M656 704h-124q-63 0 -103.5 -3.5t-69 -13t-50.5 -28t-50 -48.5l-63 -67h-41l136 216l257 -2h354l-727 -704h186q63 0 103 3t68.5 13t51 28t50.5 48l62 67h41l-122 -213h-686zM625 837q-30 0 -50 20.5t-20 50.5q0 31 20 51t50 20q29 0 49.5 -20t20.5 -51
q0 -30 -20.5 -50.5t-49.5 -20.5z" />
    <glyph glyph-name="uni018F" unicode="&#x18f;" horiz-adv-x="808" 
d="M374 -11q-72 0 -131 23t-100 65t-62 100t-16 127h590q11 50 11 99q0 126 -64.5 195.5t-178.5 69.5q-44 0 -82.5 -13t-72 -34.5t-61.5 -50.5t-51 -60l-49 33q22 39 56 81t81.5 76.5t108 57t135.5 22.5q66 0 124 -21.5t101.5 -64.5t68.5 -106t25 -146q0 -56 -15.5 -112
t-43.5 -106t-67.5 -93t-88 -74.5t-103.5 -49.5t-115 -18zM393 45q44 0 81.5 15t68 41t54 62t39.5 77h-407q-8 -91 35.5 -143t128.5 -52z" />
    <glyph glyph-name="abreve" unicode="&#x103;" horiz-adv-x="598" 
d="M99 -13q-56 0 -80.5 28.5t-24.5 74.5q0 43 19 92t50.5 97t72 92t83.5 78t84.5 54t75.5 20q24 0 38.5 -10t19.5 -24l19 49h140l-157 -412q-11 -29 -11.5 -42t13.5 -13q16 0 47.5 33t68.5 96l37 -20q-57 -99 -118 -146t-126 -47q-48 0 -58 31t16 100l20 53h-2
q-32 -51 -61 -86.5t-56 -57t-54 -31t-56 -9.5zM178 66q18 0 45 25.5t56.5 66t57.5 90.5t47 100l14 36q10 27 12 45t-2.5 28.5t-13 14.5t-17.5 4q-27 0 -54 -18t-52 -48t-47 -67.5t-38 -77.5t-25.5 -78t-9.5 -68q0 -53 27 -53zM470 628q-27 0 -54.5 8t-47.5 26.5t-30 49.5
t-2 76h58q-8 -54 15.5 -80t65.5 -26q50 0 80 23t47 83h60q-14 -57 -39.5 -89t-54 -48t-55.5 -19.5t-43 -3.5z" />
    <glyph glyph-name="amacron" unicode="&#x101;" horiz-adv-x="598" 
d="M99 -13q-56 0 -80.5 28.5t-24.5 74.5q0 43 19 92t50.5 97t72 92t83.5 78t84.5 54t75.5 20q24 0 38.5 -10t19.5 -24l19 49h140l-157 -412q-11 -29 -11.5 -42t13.5 -13q16 0 47.5 33t68.5 96l37 -20q-57 -99 -118 -146t-126 -47q-48 0 -58 31t16 100l20 53h-2
q-32 -51 -61 -86.5t-56 -57t-54 -31t-56 -9.5zM178 66q18 0 45 25.5t56.5 66t57.5 90.5t47 100l14 36q10 27 12 45t-2.5 28.5t-13 14.5t-17.5 4q-27 0 -54 -18t-52 -48t-47 -67.5t-38 -77.5t-25.5 -78t-9.5 -68q0 -53 27 -53zM324 737h314l-24 -68h-314z" />
    <glyph glyph-name="aogonek" unicode="&#x105;" horiz-adv-x="598" 
d="M99 -13q-56 0 -80.5 28.5t-24.5 74.5q0 43 19 92t50.5 97t72 92t83.5 78t84.5 54t75.5 20q24 0 38.5 -10t19.5 -24l19 49h140l-157 -412q-11 -29 -11.5 -42t13.5 -13q16 0 47.5 33t68.5 96l37 -20q-91 -156 -193 -185q-20 -15 -39 -30.5t-33.5 -32t-23 -33.5t-8.5 -35
q0 -30 27.5 -40.5t79.5 0.5l-11 -31q-20 -9 -48.5 -18t-54.5 -9q-41 0 -67 20.5t-26 56.5q0 21 12.5 41t33 38t46.5 34.5t52 30.5q-42 3 -50 34t17 97l20 53h-2q-32 -51 -61 -86.5t-56 -57t-54 -31t-56 -9.5zM178 66q18 0 45 25.5t56.5 66t57.5 90.5t47 100l14 36
q10 27 12 45t-2.5 28.5t-13 14.5t-17.5 4q-27 0 -54 -18t-52 -48t-47 -67.5t-38 -77.5t-25.5 -78t-9.5 -68q0 -53 27 -53z" />
    <glyph glyph-name="cacute" unicode="&#x107;" horiz-adv-x="451" 
d="M154 -13q-63 0 -102.5 37.5t-39.5 106.5q0 49 16.5 97t44.5 91.5t65 80.5t77 64.5t81 43t78 15.5q16 0 32.5 -3.5t29.5 -11t21 -21t8 -32.5q0 -13 -5 -26t-13.5 -23t-21 -16.5t-27.5 -6.5q-17 0 -30 9.5t-25 20.5t-25.5 20.5t-32.5 9.5q-28 0 -51 -22.5t-39.5 -58.5
t-25.5 -81t-9 -90q0 -31 5.5 -51.5t15 -33t23 -18t29.5 -5.5q35 0 69 29t72 94l35 -18q-20 -36 -44.5 -72t-55 -64.5t-69 -46.5t-86.5 -18zM519 788h162l-4 -11l-294 -168h-22z" />
    <glyph glyph-name="ccaron" unicode="&#x10d;" horiz-adv-x="451" 
d="M154 -13q-63 0 -102.5 37.5t-39.5 106.5q0 49 16.5 97t44.5 91.5t65 80.5t77 64.5t81 43t78 15.5q16 0 32.5 -3.5t29.5 -11t21 -21t8 -32.5q0 -13 -5 -26t-13.5 -23t-21 -16.5t-27.5 -6.5q-17 0 -30 9.5t-25 20.5t-25.5 20.5t-32.5 9.5q-28 0 -51 -22.5t-39.5 -58.5
t-25.5 -81t-9 -90q0 -31 5.5 -51.5t15 -33t23 -18t29.5 -5.5q35 0 69 29t72 94l35 -18q-20 -36 -44.5 -72t-55 -64.5t-69 -46.5t-86.5 -18zM292 805h17l99 -82l201 82h23l-248 -196h-12z" />
    <glyph glyph-name="ccircumflex" unicode="&#x109;" horiz-adv-x="451" 
d="M154 -13q-63 0 -102.5 37.5t-39.5 106.5q0 49 16.5 97t44.5 91.5t65 80.5t77 64.5t81 43t78 15.5q16 0 32.5 -3.5t29.5 -11t21 -21t8 -32.5q0 -13 -5 -26t-13.5 -23t-21 -16.5t-27.5 -6.5q-17 0 -30 9.5t-25 20.5t-25.5 20.5t-32.5 9.5q-28 0 -51 -22.5t-39.5 -58.5
t-25.5 -81t-9 -90q0 -31 5.5 -51.5t15 -33t23 -18t29.5 -5.5q35 0 69 29t72 94l35 -18q-20 -36 -44.5 -72t-55 -64.5t-69 -46.5t-86.5 -18zM552 609h-17l-99 82l-201 -82h-23l248 196h12z" />
    <glyph glyph-name="cdotaccent" unicode="&#x10b;" horiz-adv-x="451" 
d="M154 -13q-63 0 -102.5 37.5t-39.5 106.5q0 49 16.5 97t44.5 91.5t65 80.5t77 64.5t81 43t78 15.5q16 0 32.5 -3.5t29.5 -11t21 -21t8 -32.5q0 -13 -5 -26t-13.5 -23t-21 -16.5t-27.5 -6.5q-17 0 -30 9.5t-25 20.5t-25.5 20.5t-32.5 9.5q-28 0 -51 -22.5t-39.5 -58.5
t-25.5 -81t-9 -90q0 -31 5.5 -51.5t15 -33t23 -18t29.5 -5.5q35 0 69 29t72 94l35 -18q-20 -36 -44.5 -72t-55 -64.5t-69 -46.5t-86.5 -18zM416 636q-29 0 -48.5 20t-19.5 49q0 30 19.5 49.5t48.5 19.5t48.5 -19.5t19.5 -49.5q0 -29 -19.5 -49t-48.5 -20z" />
    <glyph glyph-name="dcaron" unicode="&#x10f;" horiz-adv-x="663" 
d="M107 -13q-56 0 -85 28.5t-29 74.5q0 43 19.5 92t51 97t73 92t85 78t86.5 54t78 20q50 0 66 -39l70 211q5 14 0.5 25t-28.5 13l-64 5l12 35l257 21l-223 -668q-10 -30 -11 -42.5t13 -12.5q16 0 47.5 33t68.5 96l37 -20q-57 -99 -118 -146t-126 -47q-48 0 -60.5 31
t12.5 100l22 61h-2q-29 -41 -57.5 -76.5t-59 -61t-63.5 -40t-72 -14.5zM183 66q23 0 55.5 26.5t65.5 68.5t62.5 95.5t47.5 107.5l8 25q14 42 -0.5 64.5t-42.5 22.5t-55.5 -16.5t-52.5 -44t-47 -63.5t-38 -74.5t-25 -76.5t-9 -71q0 -34 8 -49t23 -15zM818 836q42 0 70 -26
t28 -71q0 -36 -19.5 -65.5t-52 -53.5t-73 -42.5t-82.5 -33.5l-13 29q58 24 97.5 55t40.5 70q1 27 -20.5 43.5t-53.5 21.5q1 34 22 53.5t56 19.5z" />
    <glyph glyph-name="dcroat" unicode="&#x111;" horiz-adv-x="633" 
d="M107 -13q-56 0 -85 28.5t-29 74.5q0 43 19.5 92t51 97t73 92t85 78t86.5 54t78 20q50 0 66 -39l70 211q5 14 0.5 25t-28.5 13l-64 5l12 35l257 21l-223 -668q-10 -30 -11 -42.5t13 -12.5q16 0 47.5 33t68.5 96l37 -20q-57 -99 -118 -146t-126 -47q-48 0 -60.5 31
t12.5 100l22 61h-2q-29 -41 -57.5 -76.5t-59 -61t-63.5 -40t-72 -14.5zM183 66q23 0 55.5 26.5t65.5 68.5t62.5 95.5t47.5 107.5l8 25q14 42 -0.5 64.5t-42.5 22.5t-55.5 -16.5t-52.5 -44t-47 -63.5t-38 -74.5t-25 -76.5t-9 -71q0 -34 8 -49t23 -15zM391 628h333l-18 -51
h-333z" />
    <glyph glyph-name="ebreve" unicode="&#x115;" horiz-adv-x="467" 
d="M156 -13q-64 0 -105 37.5t-41 106.5q0 45 16 91.5t43.5 90t64.5 82t79 67t86 45t87 16.5q51 0 74.5 -21t23.5 -56q0 -44 -22 -74t-50 -49q-23 -6 -53.5 -14t-64 -16l-67 -16t-61.5 -14q-8 -38 -8 -72q0 -31 6.5 -51.5t17 -33t25 -18t30.5 -5.5q38 0 70 29t71 94l36 -18
q-21 -36 -45 -72t-55 -64.5t-69.5 -46.5t-88.5 -18zM326 471q-23 0 -44.5 -13.5t-41 -36t-35.5 -53t-27 -63.5q22 5 42.5 10t37.5 11q34 12 55 25.5t32 27.5t14.5 28.5t3.5 27.5q0 17 -9.5 26.5t-27.5 9.5zM413 628q-27 0 -54.5 8t-47.5 26.5t-30 49.5t-2 76h58
q-8 -54 15.5 -80t65.5 -26q50 0 80 23t47 83h60q-14 -57 -39.5 -89t-54 -48t-55.5 -19.5t-43 -3.5z" />
    <glyph glyph-name="ecaron" unicode="&#x11b;" horiz-adv-x="467" 
d="M156 -13q-64 0 -105 37.5t-41 106.5q0 45 16 91.5t43.5 90t64.5 82t79 67t86 45t87 16.5q51 0 74.5 -21t23.5 -56q0 -44 -22 -74t-50 -49q-23 -6 -53.5 -14t-64 -16l-67 -16t-61.5 -14q-8 -38 -8 -72q0 -31 6.5 -51.5t17 -33t25 -18t30.5 -5.5q38 0 70 29t71 94l36 -18
q-21 -36 -45 -72t-55 -64.5t-69.5 -46.5t-88.5 -18zM326 471q-23 0 -44.5 -13.5t-41 -36t-35.5 -53t-27 -63.5q22 5 42.5 10t37.5 11q34 12 55 25.5t32 27.5t14.5 28.5t3.5 27.5q0 17 -9.5 26.5t-27.5 9.5zM289 805h17l99 -82l201 82h23l-248 -196h-12z" />
    <glyph glyph-name="emacron" unicode="&#x113;" horiz-adv-x="467" 
d="M156 -13q-64 0 -105 37.5t-41 106.5q0 45 16 91.5t43.5 90t64.5 82t79 67t86 45t87 16.5q51 0 74.5 -21t23.5 -56q0 -44 -22 -74t-50 -49q-23 -6 -53.5 -14t-64 -16l-67 -16t-61.5 -14q-8 -38 -8 -72q0 -31 6.5 -51.5t17 -33t25 -18t30.5 -5.5q38 0 70 29t71 94l36 -18
q-21 -36 -45 -72t-55 -64.5t-69.5 -46.5t-88.5 -18zM326 471q-23 0 -44.5 -13.5t-41 -36t-35.5 -53t-27 -63.5q22 5 42.5 10t37.5 11q34 12 55 25.5t32 27.5t14.5 28.5t3.5 27.5q0 17 -9.5 26.5t-27.5 9.5zM267 737h314l-24 -68h-314z" />
    <glyph glyph-name="eogonek" unicode="&#x119;" horiz-adv-x="467" 
d="M210 -207q-20 -9 -48.5 -18t-54.5 -9q-41 0 -67 20.5t-26 56.5q0 21 13.5 40.5t35 37.5t49 34.5t54.5 31.5h-10q-64 0 -105 37.5t-41 106.5q0 45 16 91.5t43.5 90t64.5 82t79 67t86 45t87 16.5q51 0 74.5 -21t23.5 -56q0 -44 -22 -74t-50 -49q-23 -6 -53.5 -14t-64 -16
l-67 -16t-61.5 -14q-8 -38 -8 -72q0 -31 6.5 -51.5t17 -33t25 -18t30.5 -5.5q38 0 70 29t71 94l36 -18q-37 -65 -75 -109t-91 -75q-58 -34 -96 -68t-38 -72q0 -30 27.5 -40.5t79.5 0.5zM326 471q-23 0 -44.5 -13.5t-41 -36t-35.5 -53t-27 -63.5q22 5 42.5 10t37.5 11
q34 12 55 25.5t32 27.5t14.5 28.5t3.5 27.5q0 17 -9.5 26.5t-27.5 9.5z" />
    <glyph glyph-name="edotaccent" unicode="&#x117;" horiz-adv-x="467" 
d="M156 -13q-64 0 -105 37.5t-41 106.5q0 45 16 91.5t43.5 90t64.5 82t79 67t86 45t87 16.5q51 0 74.5 -21t23.5 -56q0 -44 -22 -74t-50 -49q-23 -6 -53.5 -14t-64 -16l-67 -16t-61.5 -14q-8 -38 -8 -72q0 -31 6.5 -51.5t17 -33t25 -18t30.5 -5.5q38 0 70 29t71 94l36 -18
q-21 -36 -45 -72t-55 -64.5t-69.5 -46.5t-88.5 -18zM326 471q-23 0 -44.5 -13.5t-41 -36t-35.5 -53t-27 -63.5q22 5 42.5 10t37.5 11q34 12 55 25.5t32 27.5t14.5 28.5t3.5 27.5q0 17 -9.5 26.5t-27.5 9.5zM413 636q-29 0 -48.5 20t-19.5 49q0 30 19.5 49.5t48.5 19.5
t48.5 -19.5t19.5 -49.5q0 -29 -19.5 -49t-48.5 -20z" />
    <glyph glyph-name="gbreve" unicode="&#x11f;" horiz-adv-x="538" 
d="M226 162q-31 0 -58 6l-20 -32q-8 -13 -7.5 -18t11.5 -11l124 -73q67 -40 103.5 -73.5t36.5 -71.5q0 -39 -25.5 -68t-65 -48.5t-88 -29.5t-94.5 -10q-62 0 -113 10.5t-87 28.5t-56 41.5t-20 50.5q0 22 15 41t42 35t64 29t81 23q-35 22 -48.5 38t-13.5 32q0 36 66 74l69 41
q-38 15 -59 44t-21 67q0 46 22 88.5t59 75t86 52t103 19.5q41 0 72.5 -10.5t53.5 -30.5l180 75l-26 -86q-6 -19 -14.5 -24t-25.5 -3l-91 9q14 -25 14 -56q0 -46 -22 -88.5t-59 -75t-85.5 -52t-102.5 -19.5zM259 196q42 0 68.5 49.5t26.5 137.5q0 51 -13.5 78.5t-42.5 27.5
q-42 0 -68.5 -49t-26.5 -137q0 -52 13.5 -79.5t42.5 -27.5zM-21 -124q0 -23 14 -41.5t39 -32t60 -20.5t77 -7q25 0 48 3t41 9.5t28.5 16.5t10.5 23q0 9 -3 16.5t-12.5 17t-28.5 22t-51 31.5l-104 61q-57 -20 -88 -42.5t-31 -56.5zM379 628q-27 0 -54.5 8t-47.5 26.5
t-30 49.5t-2 76h58q-8 -54 15.5 -80t65.5 -26q50 0 80 23t47 83h60q-14 -57 -39.5 -89t-54 -48t-55.5 -19.5t-43 -3.5z" />
    <glyph glyph-name="gcircumflex" unicode="&#x11d;" horiz-adv-x="538" 
d="M226 162q-31 0 -58 6l-20 -32q-8 -13 -7.5 -18t11.5 -11l124 -73q67 -40 103.5 -73.5t36.5 -71.5q0 -39 -25.5 -68t-65 -48.5t-88 -29.5t-94.5 -10q-62 0 -113 10.5t-87 28.5t-56 41.5t-20 50.5q0 22 15 41t42 35t64 29t81 23q-35 22 -48.5 38t-13.5 32q0 36 66 74l69 41
q-38 15 -59 44t-21 67q0 46 22 88.5t59 75t86 52t103 19.5q41 0 72.5 -10.5t53.5 -30.5l180 75l-26 -86q-6 -19 -14.5 -24t-25.5 -3l-91 9q14 -25 14 -56q0 -46 -22 -88.5t-59 -75t-85.5 -52t-102.5 -19.5zM259 196q42 0 68.5 49.5t26.5 137.5q0 51 -13.5 78.5t-42.5 27.5
q-42 0 -68.5 -49t-26.5 -137q0 -52 13.5 -79.5t42.5 -27.5zM-21 -124q0 -23 14 -41.5t39 -32t60 -20.5t77 -7q25 0 48 3t41 9.5t28.5 16.5t10.5 23q0 9 -3 16.5t-12.5 17t-28.5 22t-51 31.5l-104 61q-57 -20 -88 -42.5t-31 -56.5zM515 609h-17l-99 82l-201 -82h-23l248 196
h12z" />
    <glyph glyph-name="uni0123" unicode="&#x123;" horiz-adv-x="538" 
d="M226 162q-31 0 -58 6l-20 -32q-8 -13 -7.5 -18t11.5 -11l124 -73q67 -40 103.5 -73.5t36.5 -71.5q0 -39 -25.5 -68t-65 -48.5t-88 -29.5t-94.5 -10q-62 0 -113 10.5t-87 28.5t-56 41.5t-20 50.5q0 22 15 41t42 35t64 29t81 23q-35 22 -48.5 38t-13.5 32q0 36 66 74l69 41
q-38 15 -59 44t-21 67q0 46 22 88.5t59 75t86 52t103 19.5q41 0 72.5 -10.5t53.5 -30.5l180 75l-26 -86q-6 -19 -14.5 -24t-25.5 -3l-91 9q14 -25 14 -56q0 -46 -22 -88.5t-59 -75t-85.5 -52t-102.5 -19.5zM259 196q42 0 68.5 49.5t26.5 137.5q0 51 -13.5 78.5t-42.5 27.5
q-42 0 -68.5 -49t-26.5 -137q0 -52 13.5 -79.5t42.5 -27.5zM-21 -124q0 -23 14 -41.5t39 -32t60 -20.5t77 -7q25 0 48 3t41 9.5t28.5 16.5t10.5 23q0 9 -3 16.5t-12.5 17t-28.5 22t-51 31.5l-104 61q-57 -20 -88 -42.5t-31 -56.5zM380 593q-42 0 -70 26t-28 71
q0 36 19.5 65.5t52 53.5t73 42.5t82.5 33.5l13 -29q-58 -24 -97.5 -55t-40.5 -70q-1 -27 20.5 -43.5t53.5 -21.5q-1 -34 -22 -53.5t-56 -19.5z" />
    <glyph glyph-name="gdotaccent" unicode="&#x121;" horiz-adv-x="538" 
d="M226 162q-31 0 -58 6l-20 -32q-8 -13 -7.5 -18t11.5 -11l124 -73q67 -40 103.5 -73.5t36.5 -71.5q0 -39 -25.5 -68t-65 -48.5t-88 -29.5t-94.5 -10q-62 0 -113 10.5t-87 28.5t-56 41.5t-20 50.5q0 22 15 41t42 35t64 29t81 23q-35 22 -48.5 38t-13.5 32q0 36 66 74l69 41
q-38 15 -59 44t-21 67q0 46 22 88.5t59 75t86 52t103 19.5q41 0 72.5 -10.5t53.5 -30.5l180 75l-26 -86q-6 -19 -14.5 -24t-25.5 -3l-91 9q14 -25 14 -56q0 -46 -22 -88.5t-59 -75t-85.5 -52t-102.5 -19.5zM259 196q42 0 68.5 49.5t26.5 137.5q0 51 -13.5 78.5t-42.5 27.5
q-42 0 -68.5 -49t-26.5 -137q0 -52 13.5 -79.5t42.5 -27.5zM-21 -124q0 -23 14 -41.5t39 -32t60 -20.5t77 -7q25 0 48 3t41 9.5t28.5 16.5t10.5 23q0 9 -3 16.5t-12.5 17t-28.5 22t-51 31.5l-104 61q-57 -20 -88 -42.5t-31 -56.5zM379 636q-29 0 -48.5 20t-19.5 49
q0 30 19.5 49.5t48.5 19.5t48.5 -19.5t19.5 -49.5q0 -29 -19.5 -49t-48.5 -20z" />
    <glyph glyph-name="hbar" unicode="&#x127;" horiz-adv-x="612" 
d="M230 695q5 14 0.5 24.5t-28.5 13.5l-44 5l12 35l239 21l-107 -309q-21 -60 -37.5 -99.5t-30.5 -70.5h3q39 57 72 96.5t63 64t58 36t57 11.5q36 0 54.5 -13t23.5 -36t-1.5 -54t-21.5 -67l-94 -227q-12 -29 -12 -42t14 -13q16 0 47.5 33t68.5 96l37 -20q-57 -99 -118 -146
t-126 -47q-24 0 -41 7.5t-26 23.5t-7.5 41t15.5 59l91 221q20 48 23.5 70.5t-16.5 22.5q-15 0 -41 -22.5t-57 -64.5t-64.5 -101.5t-62.5 -132.5l-32 -100l-156 -24zM127 628h333l-18 -51h-333z" />
    <glyph glyph-name="hcircumflex" unicode="&#x125;" horiz-adv-x="612" 
d="M230 695q5 14 0.5 24.5t-28.5 13.5l-44 5l12 35l239 21l-107 -309q-21 -60 -37.5 -99.5t-30.5 -70.5h3q39 57 72 96.5t63 64t58 36t57 11.5q36 0 54.5 -13t23.5 -36t-1.5 -54t-21.5 -67l-94 -227q-12 -29 -12 -42t14 -13q16 0 47.5 33t68.5 96l37 -20q-57 -99 -118 -146
t-126 -47q-24 0 -41 7.5t-26 23.5t-7.5 41t15.5 59l91 221q20 48 23.5 70.5t-16.5 22.5q-15 0 -41 -22.5t-57 -64.5t-64.5 -101.5t-62.5 -132.5l-32 -100l-156 -24zM425 1029l97 -154h-20l-103 62l-197 -62h-26l233 154h16z" />
    <glyph glyph-name="dotlessi" unicode="&#x131;" horiz-adv-x="356" 
d="M100 -13q-47 0 -66.5 31.5t7.5 99.5l120 299q5 14 1 24.5t-28 13.5l-43 5l13 35l241 21l-156 -390q-12 -29 -12 -42t14 -13q16 0 47.5 33t68.5 96l37 -20q-57 -99 -118 -146t-126 -47z" />
    <glyph glyph-name="ibreve" unicode="&#x12d;" horiz-adv-x="356" 
d="M100 -13q-47 0 -66.5 31.5t7.5 99.5l120 299q5 14 1 24.5t-28 13.5l-43 5l13 35l241 21l-156 -390q-12 -29 -12 -42t14 -13q16 0 47.5 33t68.5 96l37 -20q-57 -99 -118 -146t-126 -47zM327 628q-27 0 -54.5 8t-47.5 26.5t-30 49.5t-2 76h58q-8 -54 15.5 -80t65.5 -26
q50 0 80 23t47 83h60q-14 -57 -39.5 -89t-54 -48t-55.5 -19.5t-43 -3.5z" />
    <glyph glyph-name="imacron" unicode="&#x12b;" horiz-adv-x="356" 
d="M100 -13q-47 0 -66.5 31.5t7.5 99.5l120 299q5 14 1 24.5t-28 13.5l-43 5l13 35l241 21l-156 -390q-12 -29 -12 -42t14 -13q16 0 47.5 33t68.5 96l37 -20q-57 -99 -118 -146t-126 -47zM181 737h314l-24 -68h-314z" />
    <glyph glyph-name="iogonek" unicode="&#x12f;" horiz-adv-x="356" 
d="M100 -13q-47 0 -66.5 31.5t7.5 99.5l120 299q5 14 1 24.5t-28 13.5l-43 5l13 35l241 21l-156 -390q-12 -29 -12 -42t14 -13q16 0 47.5 33t68.5 96l37 -20q-57 -99 -118 -146t-126 -47zM329 637q-37 0 -63 26t-26 64q0 37 26 63t63 26q38 0 64 -26t26 -63q0 -38 -26 -64
t-64 -26zM145 -207q-20 -9 -48.5 -18t-54.5 -9q-41 0 -67 20.5t-26 56.5q0 24 15.5 46t40 41.5t54 37t58.5 32.5h47q-21 -15 -41.5 -31.5t-37 -33.5t-26.5 -35t-10 -36q0 -30 27.5 -40.5t79.5 0.5z" />
    <glyph glyph-name="itilde" unicode="&#x129;" horiz-adv-x="356" 
d="M100 -13q-47 0 -66.5 31.5t7.5 99.5l120 299q5 14 1 24.5t-28 13.5l-43 5l13 35l241 21l-156 -390q-12 -29 -12 -42t14 -13q16 0 47.5 33t68.5 96l37 -20q-57 -99 -118 -146t-126 -47zM152 649q10 67 38.5 104.5t83.5 37.5q23 0 42.5 -10t38.5 -22t37 -22t38 -10
q9 0 17 1.5t15.5 8t14 18.5t12.5 33h21q-7 -45 -18.5 -72t-26 -41.5t-31 -19t-32.5 -4.5q-26 0 -45 10t-36.5 21.5t-35.5 21.5t-42 10q-10 0 -20.5 -2.5t-20 -9.5t-17 -20t-12.5 -33h-21z" />
    <glyph glyph-name="uni1ECB" unicode="&#x1ecb;" horiz-adv-x="356" 
d="M100 -13q-47 0 -66.5 31.5t7.5 99.5l120 299q5 14 1 24.5t-28 13.5l-43 5l13 35l241 21l-156 -390q-12 -29 -12 -42t14 -13q16 0 47.5 33t68.5 96l37 -20q-57 -99 -118 -146t-126 -47zM329 637q-37 0 -63 26t-26 64q0 37 26 63t63 26q38 0 64 -26t26 -63q0 -38 -26 -64
t-64 -26zM20 -237q-29 0 -48.5 20t-19.5 49q0 30 19.5 49.5t48.5 19.5t48.5 -19.5t19.5 -49.5q0 -29 -19.5 -49t-48.5 -20z" />
    <glyph glyph-name="uni0237" unicode="&#x237;" horiz-adv-x="312" 
d="M154 49q-16 -39 -31 -67t-33.5 -49.5t-41.5 -40.5t-56 -40q-17 -11 -40.5 -25t-50.5 -30t-54 -31.5t-51 -28.5l-17 37q44 30 76.5 55t58.5 53.5t48 66t45 93.5l154 375q5 14 1 24.5t-28 13.5l-43 5l13 35l242 21z" />
    <glyph glyph-name="jcircumflex" unicode="&#x135;" horiz-adv-x="312" 
d="M154 49q-16 -39 -31 -67t-33.5 -49.5t-41.5 -40.5t-56 -40q-17 -11 -40.5 -25t-50.5 -30t-54 -31.5t-51 -28.5l-17 37q44 30 76.5 55t58.5 53.5t48 66t45 93.5l154 375q5 14 1 24.5t-28 13.5l-43 5l13 35l242 21zM431 609h-17l-99 82l-201 -82h-23l248 196h12z" />
    <glyph glyph-name="uni0137" unicode="&#x137;" horiz-adv-x="591" 
d="M383 -28q-38 0 -60.5 21t-33.5 53l-68 208l-51 -146l-27 -100l-157 -21l243 708q5 14 0.5 24.5t-28.5 13.5l-44 5l12 35l239 21l-186 -537l133 88q29 19 45.5 38t24.5 36t10 31t2 23q0 26 15.5 38t41.5 12q24 0 44.5 -12t20.5 -37q0 -11 -5 -22t-22 -27t-49.5 -39.5
t-88.5 -59.5l-45 -29l78 -208q7 -18 12.5 -22.5t12.5 -4.5q12 0 34 23.5t56 78.5l37 -22q-29 -50 -54.5 -82.5t-49 -52t-46 -27.5t-46.5 -8zM194 -86q42 0 70 -26t28 -71q0 -36 -19.5 -65.5t-52 -53.5t-73 -42.5t-82.5 -33.5l-13 29q58 24 97.5 55t40.5 70q1 27 -20.5 43.5
t-53.5 21.5q1 34 22 53.5t56 19.5z" />
    <glyph glyph-name="lacute" unicode="&#x13a;" horiz-adv-x="336" 
d="M231 695q5 14 0.5 24.5t-28.5 13.5l-44 5l12 35l239 21l-232 -668q-11 -30 -11.5 -42.5t13.5 -12.5q16 0 47.5 33t68.5 96l37 -20q-57 -99 -118 -146t-126 -47q-48 0 -65.5 30.5t6.5 100.5zM499 1044h162l-4 -11l-294 -168h-22z" />
    <glyph glyph-name="lcaron" unicode="&#x13e;" horiz-adv-x="366" 
d="M231 695q5 14 0.5 24.5t-28.5 13.5l-44 5l12 35l239 21l-232 -668q-11 -30 -11.5 -42.5t13.5 -12.5q16 0 47.5 33t68.5 96l37 -20q-57 -99 -118 -146t-126 -47q-48 0 -65.5 30.5t6.5 100.5zM529 836q42 0 70 -26t28 -71q0 -36 -19.5 -65.5t-52 -53.5t-73 -42.5
t-82.5 -33.5l-13 29q58 24 97.5 55t40.5 70q1 27 -20.5 43.5t-53.5 21.5q1 34 22 53.5t56 19.5z" />
    <glyph glyph-name="uni013C" unicode="&#x13c;" horiz-adv-x="336" 
d="M231 695q5 14 0.5 24.5t-28.5 13.5l-44 5l12 35l239 21l-232 -668q-11 -30 -11.5 -42.5t13.5 -12.5q16 0 47.5 33t68.5 96l37 -20q-57 -99 -118 -146t-126 -47q-48 0 -65.5 30.5t6.5 100.5zM25 -86q42 0 70 -26t28 -71q0 -36 -19.5 -65.5t-52 -53.5t-73 -42.5
t-82.5 -33.5l-13 29q58 24 97.5 55t40.5 70q1 27 -20.5 43.5t-53.5 21.5q1 34 22 53.5t56 19.5z" />
    <glyph glyph-name="ldot" unicode="&#x140;" horiz-adv-x="457" 
d="M231 695q5 14 0.5 24.5t-28.5 13.5l-44 5l12 35l239 21l-232 -668q-11 -30 -11.5 -42.5t13.5 -12.5q16 0 47.5 33t68.5 96l37 -20q-57 -99 -118 -146t-126 -47q-48 0 -65.5 30.5t6.5 100.5zM438 359q-29 0 -48.5 20t-19.5 49q0 30 19.5 49.5t48.5 19.5t48.5 -19.5
t19.5 -49.5q0 -29 -19.5 -49t-48.5 -20z" />
    <glyph glyph-name="glyph298" horiz-adv-x="457" 
d="M231 695q5 14 0.5 24.5t-28.5 13.5l-44 5l12 35l239 21l-232 -668q-11 -30 -11.5 -42.5t13.5 -12.5q16 0 47.5 33t68.5 96l37 -20q-57 -99 -118 -146t-126 -47q-48 0 -65.5 30.5t6.5 100.5zM438 359q-29 0 -48.5 20t-19.5 49q0 30 19.5 49.5t48.5 19.5t48.5 -19.5
t19.5 -49.5q0 -29 -19.5 -49t-48.5 -20z" />
    <glyph glyph-name="lslash" unicode="&#x142;" horiz-adv-x="416" 
d="M271 695q5 14 0.5 24.5t-28.5 13.5l-44 5l12 35l239 21l-232 -668q-11 -30 -11.5 -42.5t13.5 -12.5q16 0 47.5 33t68.5 96l37 -20q-57 -99 -118 -146t-126 -47q-48 0 -65.5 30.5t6.5 100.5zM28 343l451 201l-21 -67l-451 -201z" />
    <glyph glyph-name="eng" unicode="&#x14b;" horiz-adv-x="579" 
d="M266 -148q-17 -11 -40.5 -25t-50.5 -30t-54 -31.5t-51 -28.5l-17 37q44 30 76.5 55t58.5 53.5t48 66t45 93.5l122 297q20 48 23.5 70.5t-16.5 22.5q-15 0 -41 -22.5t-57 -64.5t-64.5 -101.5t-62.5 -132.5l-32 -100l-160 -24l166 430q5 14 1 24.5t-28 13.5l-43 5l13 35
l226 21l-82 -201h3q39 57 72 96.5t63 64t58 36t57 11.5q36 0 54.5 -13t23.5 -36t-1.5 -54t-21.5 -67l-126 -304q-16 -39 -31 -67t-33.5 -49.5t-41.5 -40.5t-56 -40z" />
    <glyph glyph-name="nacute" unicode="&#x144;" horiz-adv-x="624" 
d="M159 417q5 14 1 24.5t-28 13.5l-43 5l13 35l226 21l-82 -201h3q39 57 72 96.5t63 64t58 36t57 11.5q36 0 54.5 -13t23.5 -36t-1.5 -54t-21.5 -67l-94 -227q-12 -29 -12 -42t14 -13q16 0 47.5 33t68.5 96l37 -20q-57 -99 -118 -146t-126 -47q-24 0 -41 7.5t-26 23.5
t-7.5 41t15.5 59l91 221q20 48 23.5 70.5t-16.5 22.5q-15 0 -41 -22.5t-57 -64.5t-64.5 -101.5t-62.5 -132.5l-32 -100l-160 -24zM573 788h162l-4 -11l-294 -168h-22z" />
    <glyph glyph-name="ncaron" unicode="&#x148;" horiz-adv-x="624" 
d="M159 417q5 14 1 24.5t-28 13.5l-43 5l13 35l226 21l-82 -201h3q39 57 72 96.5t63 64t58 36t57 11.5q36 0 54.5 -13t23.5 -36t-1.5 -54t-21.5 -67l-94 -227q-12 -29 -12 -42t14 -13q16 0 47.5 33t68.5 96l37 -20q-57 -99 -118 -146t-126 -47q-24 0 -41 7.5t-26 23.5
t-7.5 41t15.5 59l91 221q20 48 23.5 70.5t-16.5 22.5q-15 0 -41 -22.5t-57 -64.5t-64.5 -101.5t-62.5 -132.5l-32 -100l-160 -24zM346 805h17l99 -82l201 82h23l-248 -196h-12z" />
    <glyph glyph-name="uni0146" unicode="&#x146;" horiz-adv-x="624" 
d="M159 417q5 14 1 24.5t-28 13.5l-43 5l13 35l226 21l-82 -201h3q39 57 72 96.5t63 64t58 36t57 11.5q36 0 54.5 -13t23.5 -36t-1.5 -54t-21.5 -67l-94 -227q-12 -29 -12 -42t14 -13q16 0 47.5 33t68.5 96l37 -20q-57 -99 -118 -146t-126 -47q-24 0 -41 7.5t-26 23.5
t-7.5 41t15.5 59l91 221q20 48 23.5 70.5t-16.5 22.5q-15 0 -41 -22.5t-57 -64.5t-64.5 -101.5t-62.5 -132.5l-32 -100l-160 -24zM209 -86q42 0 70 -26t28 -71q0 -36 -19.5 -65.5t-52 -53.5t-73 -42.5t-82.5 -33.5l-13 29q58 24 97.5 55t40.5 70q1 27 -20.5 43.5t-53.5 21.5
q1 34 22 53.5t56 19.5z" />
    <glyph glyph-name="oe" unicode="&#x153;" horiz-adv-x="812" 
d="M183 -13q-79 0 -123 41.5t-44 110.5q0 48 15.5 95.5t42 90t62.5 79t77 63t85 41.5t87 15q57 0 86.5 -28t40.5 -70q51 45 107.5 71.5t111.5 26.5q51 0 74.5 -21t23.5 -56q0 -44 -22 -74t-50 -49q-23 -6 -53.5 -14t-64 -16l-67 -16t-61.5 -14q-8 -38 -8 -72
q0 -31 6.5 -51.5t17 -33t25 -18t30.5 -5.5q38 0 70 29t71 94l36 -18q-21 -36 -45 -72t-55 -64.5t-69.5 -46.5t-88.5 -18q-45 0 -79.5 19.5t-51.5 54.5q-42 -35 -89.5 -54.5t-97.5 -19.5zM671 471q-23 0 -44.5 -13.5t-41 -36t-35.5 -53t-27 -63.5q22 5 42.5 10t37.5 11
q34 12 55 25.5t32 27.5t14.5 28.5t3.5 27.5q0 17 -9.5 26.5t-27.5 9.5zM220 39q31 0 63 30.5t57 79.5t41 111t16 124q0 42 -10 64.5t-38 22.5q-32 0 -63.5 -31t-57 -80.5t-41.5 -111.5t-16 -124q0 -42 10 -63.5t39 -21.5z" />
    <glyph glyph-name="obreve" unicode="&#x14f;" horiz-adv-x="564" 
d="M183 -13q-79 0 -123 41.5t-44 110.5q0 48 15.5 95.5t42 90t62.5 79t77 63t85 41.5t87 15q39 0 70.5 -11.5t53 -32.5t33 -49t11.5 -61q0 -48 -15.5 -95t-42.5 -89.5t-63 -78.5t-77 -62.5t-85 -41.5t-87 -15zM220 39q31 0 63 30.5t57 79.5t41 111t16 124q0 42 -10 64.5
t-38 22.5q-32 0 -63.5 -31t-57 -80.5t-41.5 -111.5t-16 -124q0 -42 10 -63.5t39 -21.5zM439 628q-27 0 -54.5 8t-47.5 26.5t-30 49.5t-2 76h58q-8 -54 15.5 -80t65.5 -26q50 0 80 23t47 83h60q-14 -57 -39.5 -89t-54 -48t-55.5 -19.5t-43 -3.5z" />
    <glyph glyph-name="ohungarumlaut" unicode="&#x151;" horiz-adv-x="564" 
d="M183 -13q-79 0 -123 41.5t-44 110.5q0 48 15.5 95.5t42 90t62.5 79t77 63t85 41.5t87 15q39 0 70.5 -11.5t53 -32.5t33 -49t11.5 -61q0 -48 -15.5 -95t-42.5 -89.5t-63 -78.5t-77 -62.5t-85 -41.5t-87 -15zM220 39q31 0 63 30.5t57 79.5t41 111t16 124q0 42 -10 64.5
t-38 22.5q-32 0 -63.5 -31t-57 -80.5t-41.5 -111.5t-16 -124q0 -42 10 -63.5t39 -21.5zM644 788h162l-4 -11l-294 -168h-22zM451 788h162l-4 -11l-294 -168h-22z" />
    <glyph glyph-name="omacron" unicode="&#x14d;" horiz-adv-x="564" 
d="M183 -13q-79 0 -123 41.5t-44 110.5q0 48 15.5 95.5t42 90t62.5 79t77 63t85 41.5t87 15q39 0 70.5 -11.5t53 -32.5t33 -49t11.5 -61q0 -48 -15.5 -95t-42.5 -89.5t-63 -78.5t-77 -62.5t-85 -41.5t-87 -15zM220 39q31 0 63 30.5t57 79.5t41 111t16 124q0 42 -10 64.5
t-38 22.5q-32 0 -63.5 -31t-57 -80.5t-41.5 -111.5t-16 -124q0 -42 10 -63.5t39 -21.5zM293 737h314l-24 -68h-314z" />
    <glyph glyph-name="uni1ECD" unicode="&#x1ecd;" horiz-adv-x="564" 
d="M183 -13q-79 0 -123 41.5t-44 110.5q0 48 15.5 95.5t42 90t62.5 79t77 63t85 41.5t87 15q39 0 70.5 -11.5t53 -32.5t33 -49t11.5 -61q0 -48 -15.5 -95t-42.5 -89.5t-63 -78.5t-77 -62.5t-85 -41.5t-87 -15zM220 39q31 0 63 30.5t57 79.5t41 111t16 124q0 42 -10 64.5
t-38 22.5q-32 0 -63.5 -31t-57 -80.5t-41.5 -111.5t-16 -124q0 -42 10 -63.5t39 -21.5zM133 -237q-29 0 -48.5 20t-19.5 49q0 30 19.5 49.5t48.5 19.5t48.5 -19.5t19.5 -49.5q0 -29 -19.5 -49t-48.5 -20z" />
    <glyph glyph-name="racute" unicode="&#x155;" horiz-adv-x="450" 
d="M159 417q5 14 1 24.5t-28 13.5l-43 5l13 35l216 21l-114 -272h4q15 34 33 66t37 60.5t37 52t33 40.5q31 35 56.5 47.5t51.5 12.5q29 0 44.5 -16t15.5 -45q0 -15 -5.5 -29t-15 -24t-22 -16t-25.5 -6q-15 0 -24.5 3.5t-17 8t-15 8t-17.5 3.5q-24 0 -61 -51
q-28 -38 -62 -100t-66 -144l-32 -104l-160 -24zM528 788h162l-4 -11l-294 -168h-22z" />
    <glyph glyph-name="rcaron" unicode="&#x159;" horiz-adv-x="450" 
d="M159 417q5 14 1 24.5t-28 13.5l-43 5l13 35l216 21l-114 -272h4q15 34 33 66t37 60.5t37 52t33 40.5q31 35 56.5 47.5t51.5 12.5q29 0 44.5 -16t15.5 -45q0 -15 -5.5 -29t-15 -24t-22 -16t-25.5 -6q-15 0 -24.5 3.5t-17 8t-15 8t-17.5 3.5q-24 0 -61 -51
q-28 -38 -62 -100t-66 -144l-32 -104l-160 -24zM301 805h17l99 -82l201 82h23l-248 -196h-12z" />
    <glyph glyph-name="uni0157" unicode="&#x157;" horiz-adv-x="450" 
d="M159 417q5 14 1 24.5t-28 13.5l-43 5l13 35l216 21l-114 -272h4q15 34 33 66t37 60.5t37 52t33 40.5q31 35 56.5 47.5t51.5 12.5q29 0 44.5 -16t15.5 -45q0 -15 -5.5 -29t-15 -24t-22 -16t-25.5 -6q-15 0 -24.5 3.5t-17 8t-15 8t-17.5 3.5q-24 0 -61 -51
q-28 -38 -62 -100t-66 -144l-32 -104l-160 -24zM30 -86q42 0 70 -26t28 -71q0 -36 -19.5 -65.5t-52 -53.5t-73 -42.5t-82.5 -33.5l-13 29q58 24 97.5 55t40.5 70q1 27 -20.5 43.5t-53.5 21.5q1 34 22 53.5t56 19.5z" />
    <glyph glyph-name="sacute" unicode="&#x15b;" horiz-adv-x="425" 
d="M127 -13q-30 0 -56.5 7t-46.5 19.5t-32 30t-12 38.5q0 29 20 46.5t47 17.5q23 0 35 -17.5t22.5 -38t25 -38t41.5 -17.5q30 0 44.5 16t14.5 34q0 20 -14.5 46.5t-39.5 58.5l-32 41q-50 64 -50 118q0 39 22.5 71t56.5 55t74.5 35.5t75.5 12.5q54 0 86 -21t32 -58
q0 -29 -18 -45.5t-44 -16.5q-20 0 -31 13.5t-22.5 29t-27.5 29t-44 13.5q-22 0 -34.5 -10.5t-12.5 -27.5q0 -16 10 -39t37 -58l35 -45q29 -36 43 -66t14 -62q0 -41 -20.5 -72.5t-53 -54t-71 -34t-74.5 -11.5zM478 788h162l-4 -11l-294 -168h-22z" />
    <glyph glyph-name="scaron" unicode="&#x161;" horiz-adv-x="425" 
d="M127 -13q-30 0 -56.5 7t-46.5 19.5t-32 30t-12 38.5q0 29 20 46.5t47 17.5q23 0 35 -17.5t22.5 -38t25 -38t41.5 -17.5q30 0 44.5 16t14.5 34q0 20 -14.5 46.5t-39.5 58.5l-32 41q-50 64 -50 118q0 39 22.5 71t56.5 55t74.5 35.5t75.5 12.5q54 0 86 -21t32 -58
q0 -29 -18 -45.5t-44 -16.5q-20 0 -31 13.5t-22.5 29t-27.5 29t-44 13.5q-22 0 -34.5 -10.5t-12.5 -27.5q0 -16 10 -39t37 -58l35 -45q29 -36 43 -66t14 -62q0 -41 -20.5 -72.5t-53 -54t-71 -34t-74.5 -11.5zM251 805h17l99 -82l201 82h23l-248 -196h-12z" />
    <glyph glyph-name="scedilla" unicode="&#x15f;" horiz-adv-x="425" 
d="M127 -13q-30 0 -56.5 7t-46.5 19.5t-32 30t-12 38.5q0 29 20 46.5t47 17.5q23 0 35 -17.5t22.5 -38t25 -38t41.5 -17.5q30 0 44.5 16t14.5 34q0 20 -14.5 46.5t-39.5 58.5l-32 41q-50 64 -50 118q0 39 22.5 71t56.5 55t74.5 35.5t75.5 12.5q54 0 86 -21t32 -58
q0 -29 -18 -45.5t-44 -16.5q-20 0 -31 13.5t-22.5 29t-27.5 29t-44 13.5q-22 0 -34.5 -10.5t-12.5 -27.5q0 -16 10 -39t37 -58l35 -45q29 -36 43 -66t14 -62q0 -41 -20.5 -72.5t-53 -54t-71 -34t-74.5 -11.5zM8 -265q-28 0 -48 6t-32.5 15t-18.5 20.5t-6 22.5q0 12 6 20.5
t15 13t19.5 4t20.5 -4.5q1 -32 18 -48.5t42 -16.5q43 0 43 29q0 18 -22 35.5t-68 46.5l156 122h51l-109 -85q27 -18 43.5 -38.5t16.5 -46.5q0 -42 -36 -68.5t-91 -26.5z" />
    <glyph glyph-name="scircumflex" unicode="&#x15d;" horiz-adv-x="425" 
d="M127 -13q-30 0 -56.5 7t-46.5 19.5t-32 30t-12 38.5q0 29 20 46.5t47 17.5q23 0 35 -17.5t22.5 -38t25 -38t41.5 -17.5q30 0 44.5 16t14.5 34q0 20 -14.5 46.5t-39.5 58.5l-32 41q-50 64 -50 118q0 39 22.5 71t56.5 55t74.5 35.5t75.5 12.5q54 0 86 -21t32 -58
q0 -29 -18 -45.5t-44 -16.5q-20 0 -31 13.5t-22.5 29t-27.5 29t-44 13.5q-22 0 -34.5 -10.5t-12.5 -27.5q0 -16 10 -39t37 -58l35 -45q29 -36 43 -66t14 -62q0 -41 -20.5 -72.5t-53 -54t-71 -34t-74.5 -11.5zM511 609h-17l-99 82l-201 -82h-23l248 196h12z" />
    <glyph glyph-name="uni0219" unicode="&#x219;" horiz-adv-x="425" 
d="M127 -13q-30 0 -56.5 7t-46.5 19.5t-32 30t-12 38.5q0 29 20 46.5t47 17.5q23 0 35 -17.5t22.5 -38t25 -38t41.5 -17.5q30 0 44.5 16t14.5 34q0 20 -14.5 46.5t-39.5 58.5l-32 41q-50 64 -50 118q0 39 22.5 71t56.5 55t74.5 35.5t75.5 12.5q54 0 86 -21t32 -58
q0 -29 -18 -45.5t-44 -16.5q-20 0 -31 13.5t-22.5 29t-27.5 29t-44 13.5q-22 0 -34.5 -10.5t-12.5 -27.5q0 -16 10 -39t37 -58l35 -45q29 -36 43 -66t14 -62q0 -41 -20.5 -72.5t-53 -54t-71 -34t-74.5 -11.5zM90 -86q42 0 70 -26t28 -71q0 -36 -19.5 -65.5t-52 -53.5
t-73 -42.5t-82.5 -33.5l-13 29q58 24 97.5 55t40.5 70q1 27 -20.5 43.5t-53.5 21.5q1 34 22 53.5t56 19.5z" />
    <glyph glyph-name="tbar" unicode="&#x167;" horiz-adv-x="448" 
d="M217 126q-11 -30 -11.5 -42.5t13.5 -12.5q16 0 53 33t74 96l37 -20q-57 -98 -123.5 -145.5t-131.5 -47.5q-48 0 -67 31t8 100l120 310h-99l29 74h98l44 112h143l-43 -112h126l-29 -74h-125zM55 338h368l-18 -51h-370z" />
    <glyph glyph-name="tcaron" unicode="&#x165;" horiz-adv-x="408" 
d="M197 126q-11 -30 -11.5 -42.5t13.5 -12.5q16 0 53 33t74 96l37 -20q-57 -98 -123.5 -145.5t-131.5 -47.5q-48 0 -67 31t8 100l120 310h-99l29 74h98l44 112h143l-43 -112h126l-29 -74h-125zM570 835q42 0 70 -26t28 -71q0 -36 -19.5 -65.5t-52 -53.5t-73 -42.5
t-82.5 -33.5l-13 29q58 24 97.5 55t40.5 70q1 27 -20.5 43.5t-53.5 21.5q1 34 22 53.5t56 19.5z" />
    <glyph glyph-name="uni0163" unicode="&#x163;" horiz-adv-x="408" 
d="M197 126q-11 -30 -11.5 -42.5t13.5 -12.5q16 0 53 33t74 96l37 -20q-57 -98 -123.5 -145.5t-131.5 -47.5q-48 0 -67 31t8 100l120 310h-99l29 74h98l44 112h143l-43 -112h126l-29 -74h-125zM35 -86q42 0 70 -26t28 -71q0 -36 -19.5 -65.5t-52 -53.5t-73 -42.5
t-82.5 -33.5l-13 29q58 24 97.5 55t40.5 70q1 27 -20.5 43.5t-53.5 21.5q1 34 22 53.5t56 19.5z" />
    <glyph glyph-name="uni021B" unicode="&#x21b;" horiz-adv-x="408" 
d="M197 126q-11 -30 -11.5 -42.5t13.5 -12.5q16 0 53 33t74 96l37 -20q-57 -98 -123.5 -145.5t-131.5 -47.5q-48 0 -67 31t8 100l120 310h-99l29 74h98l44 112h143l-43 -112h126l-29 -74h-125zM35 -86q42 0 70 -26t28 -71q0 -36 -19.5 -65.5t-52 -53.5t-73 -42.5
t-82.5 -33.5l-13 29q58 24 97.5 55t40.5 70q1 27 -20.5 43.5t-53.5 21.5q1 34 22 53.5t56 19.5z" />
    <glyph glyph-name="ubreve" unicode="&#x16d;" horiz-adv-x="628" 
d="M207 170q-19 -48 -23 -70t16 -22q15 0 41 22.5t57 64.5t64.5 101t62.5 132l24 67l166 48l-151 -387q-11 -29 -11.5 -42t13.5 -13q16 0 47.5 33t68.5 96l37 -20q-57 -99 -118 -146t-126 -47q-48 0 -61.5 32.5t16.5 98.5l34 76h-3q-39 -57 -72 -96t-63 -64t-58 -36t-57 -11
q-36 0 -54 13t-23 36t1.5 54t20.5 66l103 261q5 14 1 24.5t-28 13.5l-43 5l13 35l242 21zM465 628q-27 0 -54.5 8t-47.5 26.5t-30 49.5t-2 76h58q-8 -54 15.5 -80t65.5 -26q50 0 80 23t47 83h60q-14 -57 -39.5 -89t-54 -48t-55.5 -19.5t-43 -3.5z" />
    <glyph glyph-name="uhungarumlaut" unicode="&#x171;" horiz-adv-x="628" 
d="M207 170q-19 -48 -23 -70t16 -22q15 0 41 22.5t57 64.5t64.5 101t62.5 132l24 67l166 48l-151 -387q-11 -29 -11.5 -42t13.5 -13q16 0 47.5 33t68.5 96l37 -20q-57 -99 -118 -146t-126 -47q-48 0 -61.5 32.5t16.5 98.5l34 76h-3q-39 -57 -72 -96t-63 -64t-58 -36t-57 -11
q-36 0 -54 13t-23 36t1.5 54t20.5 66l103 261q5 14 1 24.5t-28 13.5l-43 5l13 35l242 21zM670 788h162l-4 -11l-294 -168h-22zM477 788h162l-4 -11l-294 -168h-22z" />
    <glyph glyph-name="umacron" unicode="&#x16b;" horiz-adv-x="628" 
d="M207 170q-19 -48 -23 -70t16 -22q15 0 41 22.5t57 64.5t64.5 101t62.5 132l24 67l166 48l-151 -387q-11 -29 -11.5 -42t13.5 -13q16 0 47.5 33t68.5 96l37 -20q-57 -99 -118 -146t-126 -47q-48 0 -61.5 32.5t16.5 98.5l34 76h-3q-39 -57 -72 -96t-63 -64t-58 -36t-57 -11
q-36 0 -54 13t-23 36t1.5 54t20.5 66l103 261q5 14 1 24.5t-28 13.5l-43 5l13 35l242 21zM319 737h314l-24 -68h-314z" />
    <glyph glyph-name="uogonek" unicode="&#x173;" horiz-adv-x="628" 
d="M207 170q-19 -48 -23 -70t16 -22q15 0 41 22.5t57 64.5t64.5 101t62.5 132l24 67l166 48l-151 -387q-11 -29 -11.5 -42t13.5 -13q16 0 47.5 33t68.5 96l37 -20q-90 -154 -189 -184q-20 -15 -39.5 -31t-34.5 -32.5t-24 -33.5t-9 -35q0 -30 27.5 -40.5t79.5 0.5l-11 -31
q-20 -9 -48.5 -18t-54.5 -9q-41 0 -67 20.5t-26 56.5q0 21 12.5 41t33 38t46.5 34.5t52 30.5q-43 3 -54.5 35t17.5 96l34 76h-3q-39 -57 -72 -96t-63 -64t-58 -36t-57 -11q-36 0 -54 13t-23 36t1.5 54t20.5 66l103 261q5 14 1 24.5t-28 13.5l-43 5l13 35l242 21z" />
    <glyph glyph-name="uring" unicode="&#x16f;" horiz-adv-x="628" 
d="M207 170q-19 -48 -23 -70t16 -22q15 0 41 22.5t57 64.5t64.5 101t62.5 132l24 67l166 48l-151 -387q-11 -29 -11.5 -42t13.5 -13q16 0 47.5 33t68.5 96l37 -20q-57 -99 -118 -146t-126 -47q-48 0 -61.5 32.5t16.5 98.5l34 76h-3q-39 -57 -72 -96t-63 -64t-58 -36t-57 -11
q-36 0 -54 13t-23 36t1.5 54t20.5 66l103 261q5 14 1 24.5t-28 13.5l-43 5l13 35l242 21zM341 705q0 25 10 47t26.5 38.5t39 26t48.5 9.5q27 0 50 -9.5t40 -26t27 -38.5t10 -47t-10 -47t-27 -38t-40 -25.5t-50 -9.5q-26 0 -48.5 9.5t-39 25.5t-26.5 38t-10 47zM531 705
q0 31 -17 48.5t-49 17.5q-30 0 -47.5 -17.5t-17.5 -48.5t17.5 -49t47.5 -18q32 0 49 18t17 49z" />
    <glyph glyph-name="utilde" unicode="&#x169;" horiz-adv-x="628" 
d="M207 170q-19 -48 -23 -70t16 -22q15 0 41 22.5t57 64.5t64.5 101t62.5 132l24 67l166 48l-151 -387q-11 -29 -11.5 -42t13.5 -13q16 0 47.5 33t68.5 96l37 -20q-57 -99 -118 -146t-126 -47q-48 0 -61.5 32.5t16.5 98.5l34 76h-3q-39 -57 -72 -96t-63 -64t-58 -36t-57 -11
q-36 0 -54 13t-23 36t1.5 54t20.5 66l103 261q5 14 1 24.5t-28 13.5l-43 5l13 35l242 21zM290 649q10 67 38.5 104.5t83.5 37.5q23 0 42.5 -10t38.5 -22t37 -22t38 -10q9 0 17 1.5t15.5 8t14 18.5t12.5 33h21q-7 -45 -18.5 -72t-26 -41.5t-31 -19t-32.5 -4.5q-26 0 -45 10
t-36.5 21.5t-35.5 21.5t-42 10q-10 0 -20.5 -2.5t-20 -9.5t-17 -20t-12.5 -33h-21z" />
    <glyph glyph-name="uni1EE5" unicode="&#x1ee5;" horiz-adv-x="628" 
d="M207 170q-19 -48 -23 -70t16 -22q15 0 41 22.5t57 64.5t64.5 101t62.5 132l24 67l166 48l-151 -387q-11 -29 -11.5 -42t13.5 -13q16 0 47.5 33t68.5 96l37 -20q-57 -99 -118 -146t-126 -47q-48 0 -61.5 32.5t16.5 98.5l34 76h-3q-39 -57 -72 -96t-63 -64t-58 -36t-57 -11
q-36 0 -54 13t-23 36t1.5 54t20.5 66l103 261q5 14 1 24.5t-28 13.5l-43 5l13 35l242 21zM188 -237q-29 0 -48.5 20t-19.5 49q0 30 19.5 49.5t48.5 19.5t48.5 -19.5t19.5 -49.5q0 -29 -19.5 -49t-48.5 -20z" />
    <glyph glyph-name="wacute" unicode="&#x1e83;" horiz-adv-x="818" 
d="M80 0q6 116 19 224.5t36 192.5q4 14 0.5 24.5t-27.5 13.5l-43 5l13 35l223 21q-13 -41 -25 -91.5t-22 -104.5t-17.5 -108t-10.5 -100q55 46 102 107.5t80 117.5q4 34 7.5 65t8.5 57l150 55q-14 -87 -24.5 -181t-16.5 -201q66 66 121 125.5t80 107.5q7 15 8 29.5t-0.5 29
t-4.5 27.5t-3 24q0 15 6 24t16 14.5t21.5 7.5t22.5 2q10 0 22.5 -3t23 -10.5t18 -19t7.5 -29.5q0 -37 -42.5 -92t-115.5 -124q-29 -27 -56 -54.5t-54.5 -57.5t-57.5 -63t-63 -70h-99q2 50 6 112.5t9 127.5q-44 -61 -98 -121.5t-117 -118.5h-103zM664 788h162l-4 -11
l-294 -168h-22z" />
    <glyph glyph-name="wcircumflex" unicode="&#x175;" horiz-adv-x="818" 
d="M80 0q6 116 19 224.5t36 192.5q4 14 0.5 24.5t-27.5 13.5l-43 5l13 35l223 21q-13 -41 -25 -91.5t-22 -104.5t-17.5 -108t-10.5 -100q55 46 102 107.5t80 117.5q4 34 7.5 65t8.5 57l150 55q-14 -87 -24.5 -181t-16.5 -201q66 66 121 125.5t80 107.5q7 15 8 29.5t-0.5 29
t-4.5 27.5t-3 24q0 15 6 24t16 14.5t21.5 7.5t22.5 2q10 0 22.5 -3t23 -10.5t18 -19t7.5 -29.5q0 -37 -42.5 -92t-115.5 -124q-29 -27 -56 -54.5t-54.5 -57.5t-57.5 -63t-63 -70h-99q2 50 6 112.5t9 127.5q-44 -61 -98 -121.5t-117 -118.5h-103zM697 609h-17l-99 82
l-201 -82h-23l248 196h12z" />
    <glyph glyph-name="wdieresis" unicode="&#x1e85;" horiz-adv-x="818" 
d="M80 0q6 116 19 224.5t36 192.5q4 14 0.5 24.5t-27.5 13.5l-43 5l13 35l223 21q-13 -41 -25 -91.5t-22 -104.5t-17.5 -108t-10.5 -100q55 46 102 107.5t80 117.5q4 34 7.5 65t8.5 57l150 55q-14 -87 -24.5 -181t-16.5 -201q66 66 121 125.5t80 107.5q7 15 8 29.5t-0.5 29
t-4.5 27.5t-3 24q0 15 6 24t16 14.5t21.5 7.5t22.5 2q10 0 22.5 -3t23 -10.5t18 -19t7.5 -29.5q0 -37 -42.5 -92t-115.5 -124q-29 -27 -56 -54.5t-54.5 -57.5t-57.5 -63t-63 -70h-99q2 50 6 112.5t9 127.5q-44 -61 -98 -121.5t-117 -118.5h-103zM674 636q-29 0 -48.5 20
t-19.5 49q0 30 19.5 49.5t48.5 19.5t48.5 -19.5t19.5 -49.5q0 -29 -19.5 -49t-48.5 -20zM448 636q-29 0 -48.5 20t-19.5 49q0 30 19.5 49.5t48.5 19.5t48.5 -19.5t19.5 -49.5q0 -29 -19.5 -49t-48.5 -20z" />
    <glyph glyph-name="wgrave" unicode="&#x1e81;" horiz-adv-x="818" 
d="M80 0q6 116 19 224.5t36 192.5q4 14 0.5 24.5t-27.5 13.5l-43 5l13 35l223 21q-13 -41 -25 -91.5t-22 -104.5t-17.5 -108t-10.5 -100q55 46 102 107.5t80 117.5q4 34 7.5 65t8.5 57l150 55q-14 -87 -24.5 -181t-16.5 -201q66 66 121 125.5t80 107.5q7 15 8 29.5t-0.5 29
t-4.5 27.5t-3 24q0 15 6 24t16 14.5t21.5 7.5t22.5 2q10 0 22.5 -3t23 -10.5t18 -19t7.5 -29.5q0 -37 -42.5 -92t-115.5 -124q-29 -27 -56 -54.5t-54.5 -57.5t-57.5 -63t-63 -70h-99q2 50 6 112.5t9 127.5q-44 -61 -98 -121.5t-117 -118.5h-103zM533 609l-172 168l4 11h137
l48 -179h-17z" />
    <glyph glyph-name="ycircumflex" unicode="&#x177;" horiz-adv-x="563" 
d="M-83 -267q-32 0 -51.5 15.5t-19.5 42.5q0 31 22 41.5t51.5 11t59.5 -1.5t47 6q22 10 50 38.5t72 90.5l-18 440q-1 20 -5.5 28t-21.5 10l-43 5l13 35l205 21l2 -361l122 186q34 52 60.5 87t48.5 56t41.5 30t39.5 9q29 0 43 -14t14 -36t-13.5 -40t-53.5 -26
q-19 -4 -35.5 -9.5t-33 -17.5t-34.5 -32t-41 -53l-198 -285q-17 -25 -38.5 -52.5t-44.5 -55t-46.5 -53t-45.5 -44.5q-35 -32 -76 -52t-72 -20zM583 609h-17l-99 82l-201 -82h-23l248 196h12z" />
    <glyph glyph-name="ygrave" unicode="&#x1ef3;" horiz-adv-x="563" 
d="M-83 -267q-32 0 -51.5 15.5t-19.5 42.5q0 31 22 41.5t51.5 11t59.5 -1.5t47 6q22 10 50 38.5t72 90.5l-18 440q-1 20 -5.5 28t-21.5 10l-43 5l13 35l205 21l2 -361l122 186q34 52 60.5 87t48.5 56t41.5 30t39.5 9q29 0 43 -14t14 -36t-13.5 -40t-53.5 -26
q-19 -4 -35.5 -9.5t-33 -17.5t-34.5 -32t-41 -53l-198 -285q-17 -25 -38.5 -52.5t-44.5 -55t-46.5 -53t-45.5 -44.5q-35 -32 -76 -52t-72 -20zM419 609l-172 168l4 11h137l48 -179h-17z" />
    <glyph glyph-name="uni0233" unicode="&#x233;" horiz-adv-x="563" 
d="M-83 -267q-32 0 -51.5 15.5t-19.5 42.5q0 31 22 41.5t51.5 11t59.5 -1.5t47 6q22 10 50 38.5t72 90.5l-18 440q-1 20 -5.5 28t-21.5 10l-43 5l13 35l205 21l2 -361l122 186q34 52 60.5 87t48.5 56t41.5 30t39.5 9q29 0 43 -14t14 -36t-13.5 -40t-53.5 -26
q-19 -4 -35.5 -9.5t-33 -17.5t-34.5 -32t-41 -53l-198 -285q-17 -25 -38.5 -52.5t-44.5 -55t-46.5 -53t-45.5 -44.5q-35 -32 -76 -52t-72 -20zM301 737h314l-24 -68h-314z" />
    <glyph glyph-name="zacute" unicode="&#x17a;" horiz-adv-x="543" 
d="M344 -48q-27 0 -55.5 16.5t-59 38.5t-63 43.5t-68.5 31.5q-10 -29 -19.5 -47.5t-19.5 -29t-20 -14.5t-20 -4q-18 0 -29.5 10t-11.5 27q0 16 12.5 33.5t46.5 43.5l329 257q-34 9 -63.5 21t-55 22.5t-45.5 18t-34 7.5q-16 0 -25.5 -7t-9.5 -21q0 -15 8.5 -22t18 -13.5
t18 -16t8.5 -29.5t-15.5 -34.5t-36.5 -14.5q-30 0 -45 20.5t-15 44.5t9.5 49t24.5 48t33.5 42t36.5 30q20 13 34.5 16t26.5 3q17 0 46 -9t60.5 -19.5t62 -19.5t50.5 -9q33 0 59 15t48 34l31 -32l-404 -317q26 -7 52 -23t50.5 -32.5t47 -29t42.5 -12.5q35 0 56 26.5t38 66.5
l41 -17q-16 -39 -35.5 -73.5t-42 -61t-47 -42t-50.5 -15.5zM520 788h162l-4 -11l-294 -168h-22z" />
    <glyph glyph-name="zcaron" unicode="&#x17e;" horiz-adv-x="543" 
d="M344 -48q-27 0 -55.5 16.5t-59 38.5t-63 43.5t-68.5 31.5q-10 -29 -19.5 -47.5t-19.5 -29t-20 -14.5t-20 -4q-18 0 -29.5 10t-11.5 27q0 16 12.5 33.5t46.5 43.5l329 257q-34 9 -63.5 21t-55 22.5t-45.5 18t-34 7.5q-16 0 -25.5 -7t-9.5 -21q0 -15 8.5 -22t18 -13.5
t18 -16t8.5 -29.5t-15.5 -34.5t-36.5 -14.5q-30 0 -45 20.5t-15 44.5t9.5 49t24.5 48t33.5 42t36.5 30q20 13 34.5 16t26.5 3q17 0 46 -9t60.5 -19.5t62 -19.5t50.5 -9q33 0 59 15t48 34l31 -32l-404 -317q26 -7 52 -23t50.5 -32.5t47 -29t42.5 -12.5q35 0 56 26.5t38 66.5
l41 -17q-16 -39 -35.5 -73.5t-42 -61t-47 -42t-50.5 -15.5zM293 805h17l99 -82l201 82h23l-248 -196h-12z" />
    <glyph glyph-name="zdotaccent" unicode="&#x17c;" horiz-adv-x="543" 
d="M344 -48q-27 0 -55.5 16.5t-59 38.5t-63 43.5t-68.5 31.5q-10 -29 -19.5 -47.5t-19.5 -29t-20 -14.5t-20 -4q-18 0 -29.5 10t-11.5 27q0 16 12.5 33.5t46.5 43.5l329 257q-34 9 -63.5 21t-55 22.5t-45.5 18t-34 7.5q-16 0 -25.5 -7t-9.5 -21q0 -15 8.5 -22t18 -13.5
t18 -16t8.5 -29.5t-15.5 -34.5t-36.5 -14.5q-30 0 -45 20.5t-15 44.5t9.5 49t24.5 48t33.5 42t36.5 30q20 13 34.5 16t26.5 3q17 0 46 -9t60.5 -19.5t62 -19.5t50.5 -9q33 0 59 15t48 34l31 -32l-404 -317q26 -7 52 -23t50.5 -32.5t47 -29t42.5 -12.5q35 0 56 26.5t38 66.5
l41 -17q-16 -39 -35.5 -73.5t-42 -61t-47 -42t-50.5 -15.5zM417 636q-29 0 -48.5 20t-19.5 49q0 30 19.5 49.5t48.5 19.5t48.5 -19.5t19.5 -49.5q0 -29 -19.5 -49t-48.5 -20z" />
    <glyph glyph-name="uni0259" unicode="&#x259;" horiz-adv-x="469" 
d="M316.98 522.968q63.9961 0 104.994 -37.4971q40.9971 -37.498 40.9971 -106.494q0 -44.9971 -15.999 -91.4941t-43.4971 -89.9941q-27.499 -43.498 -64.4961 -81.9951q-36.998 -38.498 -78.9951 -66.9961q-41.998 -28.498 -85.9951 -44.9971t-86.9941 -16.499
q-50.9971 0 -74.4961 20.999q-23.498 20.998 -23.498 55.9961q0 43.9971 21.998 73.9951q21.999 29.999 49.9971 48.9971q22.999 6 53.4971 13.999q30.498 8 63.9961 15.999q33.498 8 66.9961 15.999q33.498 8 61.4961 14q7.99902 37.9971 7.99902 71.9951
q0 30.998 -6.49902 51.4971q-6.5 20.499 -16.999 32.998q-10.5 12.499 -24.999 17.999q-14.499 5.49902 -30.498 5.49902q-37.9971 0 -69.9951 -28.998t-70.9961 -93.9941l-35.998 17.999q20.999 35.998 44.998 71.9951q23.998 35.998 54.9961 64.4961
q30.998 28.499 69.4961 46.4971q38.4971 17.999 88.4941 17.999zM146.991 38.998q22.998 0 44.4971 13.499t40.9971 35.9971q19.499 22.499 35.498 52.9971t26.999 63.4961q-21.999 -4.99902 -42.498 -9.99902q-20.498 -5 -37.4971 -11q-33.998 -11.999 -54.9971 -25.498
t-31.998 -27.498t-14.499 -28.498q-3.5 -14.5 -3.5 -27.499q0 -16.999 9.5 -26.498q9.49902 -9.49902 27.498 -9.49902z" />
    <glyph glyph-name="uni0410" unicode="&#x410;" horiz-adv-x="780" 
d="M-98 39l36 4q16 2 28 7t25.5 17t31.5 33t45 56l496 633h61l13 -691q0 -26 10.5 -38.5t39.5 -16.5l32 -4l-12 -39h-327l12 39l36 4q32 4 43 16t11 39l-2 164h-253l-68 -87q-32 -42 -47.5 -67t-18 -39t5.5 -19t22 -7l32 -4l-12 -39h-252zM480 331l-3 251l-196 -251h199z
" />
    <glyph glyph-name="uni0411" unicode="&#x411;" horiz-adv-x="752" 
d="M804 760l-52 -205h-41l-2 56q-1 29 -8 46.5t-27 27t-55.5 12.5t-92.5 3h-85q-26 0 -36 -3.5t-15 -18.5l-74 -241h139q61 0 110 -10.5t83.5 -31.5t53 -53t18.5 -76q0 -55 -24.5 -103.5t-74.5 -84.5t-125 -57t-175 -21h-386l12 39l35 4q32 4 46.5 15t22.5 40l173 562
q9 29 1.5 40t-36.5 15l-33 4l12 39h322zM220 125q-12 -38 -1.5 -53t48.5 -15h40q56 0 100 15t74.5 43t46.5 67t16 86q0 62 -41.5 87t-126.5 25h-78z" />
    <glyph glyph-name="uni0412" unicode="&#x412;" horiz-adv-x="738" 
d="M562 758q121 0 185.5 -36.5t64.5 -102.5q0 -45 -21 -78.5t-53.5 -57.5t-72.5 -38.5t-77 -22.5v-1q29 -5 59.5 -18t55 -34t40.5 -49.5t16 -63.5q0 -55 -30.5 -101.5t-83 -81t-122.5 -54t-150 -19.5h-397l12 39l35 4q32 4 46 15t23 40l172 562q8 29 1 40t-36 15l-33 4
l12 39h354zM483 705q-26 0 -36.5 -3.5t-15.5 -18.5l-77 -250h92q52 0 89.5 16t62.5 42t37 60t12 69q0 41 -29 63t-102 22h-33zM338 379l-79 -258q-12 -38 -1.5 -53t48.5 -15h27q67 0 115 19t78.5 49.5t44.5 69.5t14 80q0 56 -44 82t-135 26h-68z" />
    <glyph glyph-name="uni0413" unicode="&#x413;" horiz-adv-x="702" 
d="M264 660q8 29 1 40t-36 15l-33 4l12 39h299l313 2l-51 -205h-41l-2 56q-1 29 -8.5 46.5t-27 27t-55 12.5t-92.5 3h-87q-20 0 -26 -20l-178 -582q-9 -29 -1.5 -40t37.5 -13l63 -4l-13 -41h-362l12 39l35 4q32 4 46 15t23 40z" />
    <glyph glyph-name="uni0414" unicode="&#x414;" horiz-adv-x="832" 
d="M721 58l-43 -218h-41l-2 66q-1 33 -7.5 52t-27 28.5t-58.5 11.5t-103 2h-225q-54 0 -87 -3.5t-55 -14t-39.5 -28.5t-41.5 -48l-53 -66h-40l91 218h64q54 69 99.5 151t82.5 164t65 157t45 130q9 29 1.5 40t-36.5 15l-33 4l12 39h646l-12 -39l-35 -4q-32 -4 -46 -15
t-23 -40l-167 -542q-9 -31 -2.5 -45.5t36.5 -14.5h35zM420 680q-6 -21 -20 -61t-34 -92.5t-45.5 -113.5t-55.5 -123t-64 -122t-71 -110h258q29 0 47 3t29.5 12t19.5 26.5t17 47.5l164 533q7 20 -14 20h-205q-11 0 -16.5 -4.5t-9.5 -15.5z" />
    <glyph glyph-name="uni0415" unicode="&#x415;" horiz-adv-x="765" 
d="M514 758l314 2l-51 -205h-41l-2 56q-1 29 -8.5 46.5t-27 27t-55 12.5t-92.5 3h-95q-20 0 -26 -20l-81 -266h117q24 0 40 2t28 9t22 21t22 37l22 42h41l-88 -287h-41l4 42q2 23 0.5 37t-9 21t-22.5 9t-39 2h-117l-62 -202q-9 -30 -11.5 -47.5t3.5 -26.5t22 -12t45 -3h45
q60 0 96.5 3t63 13t47.5 28t49 48l62 67h41l-123 -217h-631l12 39l35 4q32 4 46 15t23 40l172 562q8 29 1 40t-36 15l-33 4l12 39h306z" />
    <glyph glyph-name="uni0401" unicode="&#x401;" horiz-adv-x="765" 
d="M514 758l314 2l-51 -205h-41l-2 56q-1 29 -8.5 46.5t-27 27t-55 12.5t-92.5 3h-95q-20 0 -26 -20l-81 -266h117q24 0 40 2t28 9t22 21t22 37l22 42h41l-88 -287h-41l4 42q2 23 0.5 37t-9 21t-22.5 9t-39 2h-117l-62 -202q-9 -30 -11.5 -47.5t3.5 -26.5t22 -12t45 -3h45
q60 0 96.5 3t63 13t47.5 28t49 48l62 67h41l-123 -217h-631l12 39l35 4q32 4 46 15t23 40l172 562q8 29 1 40t-36 15l-33 4l12 39h306zM499 837q-30 0 -50 20.5t-20 50.5q0 31 20 51t50 20q29 0 49.5 -20t20.5 -51q0 -30 -20.5 -50.5t-49.5 -20.5zM725 837q-30 0 -50 20.5
t-20 50.5q0 31 20 51t50 20q29 0 49.5 -20t20.5 -51q0 -30 -20.5 -50.5t-49.5 -20.5z" />
    <glyph glyph-name="uni0416" unicode="&#x416;" horiz-adv-x="1273" 
d="M-67 0l12 39l36 4q19 2 35 13t46 36l434 364l-119 153q-23 29 -42.5 48t-38.5 31t-39.5 18t-44.5 9l-32 4l12 39h280l-12 -39l-27 -2q-39 -3 -28.5 -30t58.5 -88l150 -193l78 254q9 29 1.5 40t-36.5 15l-32 4l12 39h332l-12 -39l-36 -4q-31 -4 -45.5 -15t-23.5 -40
l-78 -254l270 193q85 61 112.5 88t-9.5 30l-26 2l12 39h280l-12 -39l-36 -4q-23 -3 -44.5 -9.5t-46.5 -18.5t-55 -31t-69 -47l-245 -175l197 -342q14 -25 23.5 -36t27.5 -13l32 -4l-12 -39h-205l-208 360l-80 -262q-9 -29 -1.5 -40t36.5 -15l32 -4l-12 -39h-332l12 39l36 4
q31 4 45.5 15t23.5 40l80 263l-430 -361h-236z" />
    <glyph glyph-name="uni0417" unicode="&#x417;" horiz-adv-x="688" 
d="M407 714q-61 0 -109.5 -27t-88.5 -77l-47 -59h-41l91 193q45 14 102.5 24.5t120.5 10.5q60 0 108.5 -10t83.5 -30t54 -52t19 -75q0 -42 -24 -76.5t-61.5 -60.5t-83.5 -44t-91 -25v-1q40 -5 74 -16t58 -30.5t37.5 -47.5t13.5 -66q0 -54 -34 -101t-92 -82t-133.5 -55
t-159.5 -20q-78 0 -133.5 10t-92.5 25l12 197h41l13 -63q6 -29 22 -49t37.5 -32t47 -17.5t51.5 -5.5q61 0 107 17.5t76.5 45t46 62t15.5 68.5q0 26 -9 49.5t-27.5 41.5t-46 28.5t-64.5 10.5h-88l19 62h92q51 0 89 15.5t64 39.5t39 54t13 59q0 22 -7.5 41.5t-22.5 34.5
t-37.5 24t-53.5 9z" />
    <glyph glyph-name="uni0418" unicode="&#x418;" horiz-adv-x="961" 
d="M308 0h-332l12 39l35 4q32 4 46 15t23 40l172 562q8 29 1 40t-36 15l-33 4l12 39h332l-12 -39l-35 -4q-32 -4 -46.5 -15t-22.5 -40l-128 -419l481 382l11 37q8 29 1 40t-36 15l-33 4l12 39h332l-12 -39l-35 -4q-32 -4 -46.5 -15t-22.5 -40l-172 -562q-9 -29 -1.5 -40
t36.5 -15l33 -4l-12 -39h-332l12 39l35 4q32 4 46 15t23 40l130 425l-481 -383l-13 -42q-9 -29 -1.5 -40t36.5 -15l33 -4z" />
    <glyph glyph-name="uni0419" unicode="&#x419;" horiz-adv-x="961" 
d="M308 0h-332l12 39l35 4q32 4 46 15t23 40l172 562q8 29 1 40t-36 15l-33 4l12 39h332l-12 -39l-35 -4q-32 -4 -46.5 -15t-22.5 -40l-128 -419l481 382l11 37q8 29 1 40t-36 15l-33 4l12 39h332l-12 -39l-35 -4q-32 -4 -46.5 -15t-22.5 -40l-172 -562q-9 -29 -1.5 -40
t36.5 -15l33 -4l-12 -39h-332l12 39l35 4q32 4 46 15t23 40l130 425l-481 -383l-13 -42q-9 -29 -1.5 -40t36.5 -15l33 -4zM645 828q-52 0 -86.5 13t-53.5 34.5t-23 50.5t6 62h106q-14 -44 -4.5 -73.5t57.5 -29.5q26 0 44.5 7.5t32 21t22.5 32.5t16 42h106
q-23 -78 -78.5 -119t-144.5 -41z" />
    <glyph glyph-name="uni041A" unicode="&#x41a;" horiz-adv-x="885" 
d="M333 362l-81 -264q-9 -29 -1.5 -40t36.5 -15l33 -4l-12 -39h-332l12 39l35 4q32 4 46 15t23 40l172 562q8 29 1 40t-36 15l-33 4l12 39h332l-12 -39l-35 -4q-32 -4 -46.5 -15t-22.5 -40l-79 -258l300 197q87 57 123 85.5t7 30.5l-53 4l12 39h290l-12 -39l-35 -4
q-23 -3 -45 -10t-47 -20t-55.5 -31.5t-69.5 -44.5l-277 -182l251 -335q17 -23 25 -35t26 -14l33 -4l-12 -39h-206z" />
    <glyph glyph-name="uni041B" unicode="&#x41b;" horiz-adv-x="821" 
d="M149 88q-21 -31 -42 -50.5t-40.5 -31t-37.5 -15.5t-34 -4q-24 0 -39.5 15t-15.5 39q0 26 19 48t65 37q35 12 60.5 25.5t49.5 42.5q20 24 46.5 75.5t54 117t53.5 137t46 136.5q9 29 1.5 40t-36.5 15l-33 4l12 39h646l-12 -39l-35 -4q-31 -4 -45.5 -15t-23.5 -40l-173 -562
q-8 -29 -1 -40t36 -15l33 -4l-12 -39h-332l12 39l35 4q32 4 46.5 15t22.5 40l179 582q7 20 -13 20h-207q-20 0 -27 -20q-20 -65 -46.5 -142.5t-59.5 -157.5t-71.5 -156t-80.5 -136z" />
    <glyph glyph-name="uni041C" unicode="&#x41c;" horiz-adv-x="1084" 
d="M320 594l-137 -390q-19 -54 -27 -85t-7.5 -47.5t9 -21.5t22.5 -7l33 -4l-12 -39h-241l12 39l35 4q16 2 27.5 7t23 21t25 47t32.5 85l162 457q10 29 2 40t-37 15l-33 4l12 39h234l77 -527l392 527h247l-12 -39l-35 -4q-32 -4 -47 -15t-22 -40l-145 -562q-8 -29 0 -40
t37 -15l33 -4l-12 -39h-332l12 39l35 4q32 4 45.5 15t21.5 40l128 496l-447 -602h-20z" />
    <glyph glyph-name="uni041D" unicode="&#x41d;" horiz-adv-x="951" 
d="M308 0h-332l12 39l35 4q32 4 46 15t23 40l172 562q8 29 1 40t-36 15l-33 4l12 39h332l-12 -39l-35 -4q-32 -4 -46.5 -15t-22.5 -40l-75 -244h354l75 244q8 29 1 40t-36 15l-33 4l12 39h332l-12 -39l-35 -4q-32 -4 -46.5 -15t-22.5 -40l-172 -562q-9 -29 -1.5 -40
t36.5 -15l33 -4l-12 -39h-332l12 39l35 4q32 4 46 15t23 40l77 251h-354l-77 -251q-9 -29 -1.5 -40t36.5 -15l33 -4z" />
    <glyph glyph-name="uni041E" unicode="&#x41e;" horiz-adv-x="918" 
d="M433 -13q-72 0 -136 22.5t-113 65t-77.5 103t-28.5 136.5q0 81 36.5 163.5t102 149.5t155 109.5t195.5 42.5q72 0 136 -22.5t113 -65t77.5 -103t28.5 -136.5q0 -81 -36.5 -163.5t-102 -149.5t-155 -109.5t-195.5 -42.5zM435 46q51 0 94.5 21t78 56.5t61 82.5t44 98.5
t26.5 104t9 100.5q0 106 -48.5 158.5t-134.5 52.5q-52 0 -95 -21t-77.5 -56.5t-61 -82.5t-44 -98.5t-26.5 -104.5t-9 -100q0 -106 48.5 -158.5t134.5 -52.5z" />
    <glyph glyph-name="uni041F" unicode="&#x41f;" horiz-adv-x="902" 
d="M749 680q3 10 1.5 15t-15.5 5h-297q-12 0 -17.5 -5t-8.5 -15l-176 -575q-9 -29 -3.5 -41t34.5 -14l47 -4l-14 -46h-343l14 46l49 4q31 2 43.5 14t21.5 41l168 548q8 29 3 41t-35 14l-46 4l14 46h831l-14 -46l-50 -4q-30 -2 -43 -14t-21 -41l-168 -548q-9 -29 -3.5 -41
t34.5 -14l47 -4l-14 -46h-343l14 46l49 4q31 2 43.5 14t21.5 41z" />
    <glyph glyph-name="uni0420" unicode="&#x420;" horiz-adv-x="783" 
d="M-12 39l35 4q32 4 46 15t23 40l172 562q8 29 1 40t-36 15l-33 4l12 39h353q60 0 113 -9t93 -29t63 -53t23 -82q0 -53 -25 -100t-74 -82.5t-122 -56t-169 -20.5h-141l-70 -228q-9 -29 -1.5 -40t37.5 -13l63 -4l-13 -41h-362zM337 378h122q58 0 99.5 19.5t68.5 50
t39.5 67.5t12.5 73q0 66 -39 91.5t-111 25.5h-38q-18 0 -29 -1t-17.5 -3.5t-9.5 -7.5t-5 -12z" />
    <glyph glyph-name="uni0421" unicode="&#x421;" horiz-adv-x="803" 
d="M433 -13q-84 0 -150 23.5t-112.5 65t-71 97.5t-24.5 122q0 108 47 197.5t124.5 153t178.5 98.5t209 35q72 0 123.5 -9.5t90.5 -25.5l-18 -193h-41l-17 57q-19 62 -60 84t-111 22q-56 0 -118 -23.5t-114 -73t-86 -126.5t-34 -184q0 -66 16.5 -114.5t45.5 -80t68 -46.5
t84 -15q31 0 58 6.5t52.5 20t51 34t52.5 49.5l55 58h41l-107 -197q-50 -16 -105 -25.5t-128 -9.5z" />
    <glyph glyph-name="uni0422" unicode="&#x422;" horiz-adv-x="799" 
d="M146 41l65 4q30 2 44.5 13t23.5 40l184 602h-10q-57 0 -94.5 -2.5t-64 -11.5t-44.5 -26t-36 -46l-37 -59h-41l78 205l257 -2h180l257 2l-46 -205h-41l-1 59q-1 29 -9 46t-28.5 26t-56.5 11.5t-93 2.5h-10l-184 -602q-9 -29 -1.5 -40t37.5 -13l63 -4l-13 -41h-392z" />
    <glyph glyph-name="uni0423" unicode="&#x423;" horiz-adv-x="790" 
d="M374 116q-55 -66 -100.5 -97.5t-87.5 -31.5q-30 0 -46 14.5t-16 39.5q0 29 20.5 50t65.5 29q18 3 36.5 7t38 10.5t38 18t36.5 31.5l-127 473q-3 13 -5.5 22.5t-7.5 16t-14 10.5t-25 6l-33 4l12 39h343l-12 -39l-35 -4q-34 -4 -51.5 -16.5t-10.5 -38.5l88 -328l209 251
q32 39 47 63.5t17.5 39t-5.5 21t-23 8.5l-33 4l12 39h244l-12 -39l-19 -2q-21 -3 -35.5 -8.5t-29 -18.5t-32.5 -34t-45 -54z" />
    <glyph glyph-name="uni0424" unicode="&#x424;" horiz-adv-x="1085" 
d="M590 681q8 29 1 40t-36 15l-33 4l12 39h332l-12 -39l-35 -4q-32 -4 -46.5 -15t-22.5 -40l-4 -12q77 -3 138.5 -18.5t104.5 -44.5t66 -70.5t23 -96.5q0 -72 -35 -133.5t-101 -107t-160 -72t-212 -29.5l-6 -19q-9 -29 -1.5 -40t36.5 -15l33 -4l-12 -39h-332l12 39l35 4
q32 4 46 15t23 40l6 19q-77 3 -138.5 18.5t-104.5 44.5t-66 70.5t-23 96.5q0 72 35 133.5t101 107t160 72t212 29.5zM258 329q0 -43 12.5 -73.5t35.5 -51t54 -31.5t69 -14l138 449q-45 -2 -98.5 -16t-100.5 -45.5t-78.5 -84.5t-31.5 -133zM898 437q0 43 -12.5 73.5t-35.5 51
t-54.5 31.5t-68.5 14l-138 -449q45 2 98.5 16t100.5 45.5t78.5 84.5t31.5 133z" />
    <glyph glyph-name="uni0425" unicode="&#x425;" horiz-adv-x="829" 
d="M-67 39l35 4q23 3 42.5 10.5t42.5 24t53 43t75 66.5l209 189l-128 284q-10 23 -23 37t-42 18l-33 4l12 39h340l-12 -39l-35 -4q-61 -7 -39 -55l79 -176l92 83q53 48 81 76.5t35.5 44t-2.5 21.5t-33 8l-20 2l12 39h278l-12 -39l-35 -4q-24 -3 -43.5 -10.5t-42 -24
t-52.5 -43t-75 -66.5l-158 -142l149 -331q10 -23 23 -37t42 -18l33 -4l-12 -39h-340l12 39l35 4q61 7 39 55l-100 223l-144 -130q-53 -48 -81 -76.5t-35.5 -44t3 -21.5t33.5 -8l20 -2l-12 -39h-278z" />
    <glyph glyph-name="uni0426" unicode="&#x426;" horiz-adv-x="932" 
d="M-24 0l12 39l35 4q32 4 46 15t23 40l173 562q9 29 1.5 40t-36.5 15l-33 4l12 39h332l-12 -39l-35 -4q-32 -4 -46 -15t-23 -40l-158 -513q-9 -30 -11.5 -47.5t3.5 -26.5t22 -12t45 -3h162q29 0 47 3t29.5 12t19.5 26.5t17 47.5l158 513q9 29 1.5 40t-36.5 15l-33 4l12 39
h332l-12 -39l-35 -4q-32 -4 -46 -15t-23 -40l-167 -542q-9 -31 -2.5 -45.5t36.5 -14.5h35l-43 -218h-41l-2 66q-1 33 -7.5 52t-27 28.5t-58.5 11.5t-103 2h-563z" />
    <glyph glyph-name="uni0427" unicode="&#x427;" horiz-adv-x="885" 
d="M247 660q9 29 1.5 40t-36.5 15l-32 4l12 39h332l-12 -39l-36 -4q-31 -4 -45.5 -15t-23.5 -40l-30 -98q-18 -59 -15.5 -95.5t20 -57t45.5 -27.5t61 -7q38 0 72 4t69 13l82 268q9 29 1.5 40t-36.5 15l-32 4l12 39h332l-12 -39l-36 -4q-31 -4 -45.5 -15t-23.5 -40l-172 -562
q-9 -29 -1.5 -40t36.5 -15l32 -4l-12 -39h-332l12 39l36 4q31 4 45.5 15t23.5 40l72 236q-38 -12 -86 -21t-119 -9q-62 0 -106.5 16t-69 49t-27.5 83.5t18 120.5z" />
    <glyph glyph-name="uni0428" unicode="&#x428;" horiz-adv-x="1253" 
d="M-12 39l36 4q31 4 45.5 15t23.5 40l172 562q9 29 1.5 40t-36.5 15l-32 4l12 39h327l-12 -39l-31 -4q-31 -5 -45.5 -15.5t-23.5 -39.5l-157 -513q-9 -30 -12 -47.5t3 -26.5t22 -12t45 -3h161l185 602q9 29 1.5 39.5t-36.5 15.5l-27 4l12 39h322l-12 -39l-31 -4
q-31 -5 -45.5 -15.5t-23.5 -39.5l-185 -602h161q29 0 47 3t29.5 12t20 26.5t17.5 47.5l157 513q9 29 1.5 39.5t-36.5 15.5l-27 4l12 39h327l-12 -39l-36 -4q-31 -4 -45.5 -15t-23.5 -40l-172 -562q-9 -29 -1.5 -40t36.5 -15l32 -4l-12 -39h-1146z" />
    <glyph glyph-name="uni0429" unicode="&#x429;" horiz-adv-x="1252" 
d="M1072 118q-9 -31 -2.5 -45.5t36.5 -14.5h35l-43 -218h-41l-2 66q-1 33 -7.5 52t-27 28.5t-58.5 11.5t-103 2h-883l12 39l35 4q32 4 46 15t23 40l173 562q9 29 1.5 40t-36.5 15l-33 4l12 39h327l-12 -39l-30 -4q-16 -2 -27 -5.5t-19 -10t-13.5 -16t-9.5 -23.5l-158 -513
q-9 -30 -11.5 -47.5t3.5 -26.5t22 -12t45 -3h160l186 602q9 29 1.5 39.5t-36.5 15.5l-28 4l12 39h322l-12 -39l-30 -4q-16 -2 -27 -5.5t-19 -10t-13.5 -16t-9.5 -23.5l-185 -602h161q29 0 47 3t29.5 12t19.5 26.5t17 47.5l158 513q9 29 1.5 39.5t-36.5 15.5l-28 4l12 39h327
l-12 -39l-35 -4q-32 -4 -46 -15t-23 -40z" />
    <glyph glyph-name="uni042A" unicode="&#x42a;" horiz-adv-x="921" 
d="M115 39l36 4q31 4 45.5 15t23.5 40l183 601q-46 -1 -77 -4.5t-52.5 -13t-37.5 -25.5t-32 -42l-37 -59h-41l77 206l296 -3h190l-12 -39l-56 -4q-31 -2 -45.5 -14t-23.5 -41l-64 -208h139q58 0 107 -11t83.5 -34t54 -57.5t19.5 -80.5q0 -64 -31.5 -114t-86 -84.5
t-127.5 -52.5t-157 -18h-386zM388 125q-12 -38 -1.5 -53t48.5 -15h40q57 0 101.5 16t75 44.5t47 67.5t16.5 84q0 116 -169 116h-78z" />
    <glyph glyph-name="uni042B" unicode="&#x42b;" horiz-adv-x="1152" 
d="M550 719l-56 -4q-31 -2 -45.5 -14t-23.5 -41l-64 -208h139q58 0 107 -11t83.5 -34t54 -57.5t19.5 -80.5q0 -64 -31.5 -114t-86 -84.5t-127.5 -52.5t-157 -18h-386l12 39l36 4q31 4 45.5 15t23.5 40l172 562q9 29 1.5 40t-36.5 15l-32 4l12 39h352zM261 125
q-12 -38 -1.5 -53t48.5 -15h40q57 0 101.5 16t75 44.5t47 67.5t16.5 84q0 116 -169 116h-78zM979 660q8 29 1 40t-36 15l-33 4l12 39h332l-12 -39l-35 -4q-32 -4 -46.5 -15t-22.5 -40l-172 -562q-9 -29 -1.5 -40t36.5 -15l33 -4l-12 -39h-332l12 39l35 4q32 4 46 15t23 40z
" />
    <glyph glyph-name="uni042C" unicode="&#x42c;" horiz-adv-x="794" 
d="M550 719l-56 -4q-31 -2 -45.5 -14t-23.5 -41l-64 -208h139q58 0 107 -11t83.5 -34t54 -57.5t19.5 -80.5q0 -64 -31.5 -114t-86 -84.5t-127.5 -52.5t-157 -18h-386l12 39l36 4q31 4 45.5 15t23.5 40l172 562q9 29 1.5 40t-36.5 15l-32 4l12 39h352zM261 125
q-12 -38 -1.5 -53t48.5 -15h40q57 0 101.5 16t75 44.5t47 67.5t16.5 84q0 116 -169 116h-78z" />
    <glyph glyph-name="uni042D" unicode="&#x42d;" horiz-adv-x="844" 
d="M490 779q84 0 150 -23.5t112.5 -65t71 -97.5t24.5 -122q0 -108 -47 -197.5t-124.5 -153t-178.5 -98.5t-209 -35q-72 0 -123.5 9.5t-90.5 25.5l18 193h41l17 -57q19 -62 60 -84t111 -22q48 0 101.5 17.5t101 53.5t84.5 92t54 134h-220q-24 0 -40 -2t-28 -9t-22 -21
t-22 -37l-22 -42h-41l88 287h41l-4 -42q-2 -23 -0.5 -37t9 -21t22.5 -9t39 -2h209q1 11 1.5 22t0.5 23q0 66 -16.5 114t-45.5 79.5t-68 47t-84 15.5q-31 0 -58 -6.5t-52.5 -20t-51 -34.5t-52.5 -49l-55 -58h-41l107 197q50 16 105 25.5t128 9.5z" />
    <glyph glyph-name="uni042E" unicode="&#x42e;" horiz-adv-x="1268" 
d="M308 0h-332l12 39l35 4q32 4 46 15t23 40l172 562q8 29 1 40t-36 15l-33 4l12 39h332l-12 -39l-35 -4q-32 -4 -46.5 -15t-22.5 -40l-75 -244h113q19 69 61 134.5t102.5 116.5t137 81.5t164.5 30.5q70 0 132.5 -22.5t109.5 -65t75 -103t28 -136.5q0 -54 -16 -109
t-46.5 -107t-73 -97t-96 -79t-116 -53.5t-131.5 -19.5q-70 0 -132.5 22.5t-110 65t-75 103t-27.5 136.5q0 9 0.5 17.5t1.5 17.5h-121l-77 -251q-9 -29 -1.5 -40t36.5 -15l33 -4zM795 46q50 0 91.5 21t75.5 56.5t59.5 82.5t42.5 98.5t25.5 104t8.5 100.5q0 106 -46 158.5
t-127 52.5q-50 0 -91.5 -21t-75.5 -56.5t-59.5 -82.5t-42.5 -98.5t-25.5 -104.5t-8.5 -100q0 -106 46 -158.5t127 -52.5z" />
    <glyph glyph-name="uni042F" unicode="&#x42f;" horiz-adv-x="856" 
d="M-50 0l12 39l38 7q31 6 46.5 17t25.5 20l282 270q-70 17 -105.5 62t-35.5 100q0 43 23 86t69.5 78t117.5 57t168 22h368l-12 -39l-36 -4q-31 -4 -45.5 -15t-23.5 -40l-172 -562q-9 -29 -1.5 -40t36.5 -15l32 -4l-12 -39h-332l12 39l36 4q31 4 45.5 15t23.5 40l71 232h-66
l-340 -330h-225zM689 682q5 14 -2 18.5t-40 4.5h-18q-62 0 -108 -17t-76 -44.5t-45 -61.5t-15 -68q0 -27 9 -51t27.5 -42.5t45.5 -29.5t63 -11h26.5t21.5 1q11 1 19 2z" />
    <glyph glyph-name="uni0402" unicode="&#x402;" horiz-adv-x="934" 
d="M106 41l65 4q30 2 44.5 13t23.5 40l184 602h-10q-55 0 -91 -3t-60.5 -12t-42 -26t-35.5 -45l-37 -59h-41l78 205l247 -2h180l267 2l-46 -205h-41l-1 59q0 29 -8.5 46t-30.5 26t-60 11.5t-98 2.5h-10l-93 -304q49 31 108.5 55t131.5 24q54 0 94 -16t63 -47.5t26.5 -77.5
t-14.5 -105l-10 -32q-12 -39 -26 -64t-33.5 -44.5t-46 -38t-63.5 -42.5q-14 -9 -38 -23.5t-52 -31t-57 -33t-53 -29.5l-18 41q58 37 95.5 68.5t62 60.5t39 58.5t25.5 63.5l13 40q27 83 8.5 127t-100.5 44q-51 0 -95 -15.5t-78 -40.5l-73 -240q-9 -29 -1.5 -40t37.5 -13
l63 -4l-13 -41h-392z" />
    <glyph glyph-name="uni0403" unicode="&#x403;" horiz-adv-x="702" 
d="M264 660q8 29 1 40t-36 15l-33 4l12 39h299l313 2l-51 -205h-41l-2 56q-1 29 -8.5 46.5t-27 27t-55 12.5t-92.5 3h-87q-20 0 -26 -20l-178 -582q-9 -29 -1.5 -40t37.5 -13l63 -4l-13 -41h-362l12 39l35 4q32 4 46 15t23 40zM812 969l-300 -126h-25l133 129h193z" />
    <glyph glyph-name="uni0404" unicode="&#x404;" horiz-adv-x="803" 
d="M433 -13q-84 0 -150 23.5t-112.5 65t-71 97.5t-24.5 122q0 108 47 197.5t124.5 153t178.5 98.5t209 35q72 0 123.5 -9.5t90.5 -25.5l-18 -193h-41l-17 57q-19 62 -60 84t-111 22q-49 0 -102 -17.5t-101 -54t-85.5 -93.5t-53.5 -135h186q24 0 40 2t28 9t22 21t22 37l22 42
h41l-88 -287h-41l4 42q2 23 0.5 37t-9 21t-22.5 9t-39 2h-175q-1 -11 -1 -21v-21q0 -66 16.5 -114.5t45.5 -80t68 -46.5t84 -15q31 0 58 6.5t52.5 20t51 34t52.5 49.5l55 58h41l-107 -197q-50 -16 -105 -25.5t-128 -9.5z" />
    <glyph glyph-name="uni0405" unicode="&#x405;" horiz-adv-x="640" 
d="M198 -13q-54 0 -103 12t-84 30l38 220h41l20 -122q6 -40 25 -59q15 -14 39.5 -18t57.5 -4q42 0 75.5 10.5t56.5 29.5t35.5 44.5t12.5 55.5q0 21 -5.5 37.5t-16 30.5t-25 27.5t-31.5 27.5l-56 46q-51 42 -74.5 85t-23.5 94q0 54 27 99t74 77.5t110 50.5t134 18
q54 0 95 -10t74 -22l-42 -190h-41l-9 64q-5 31 -13 51t-22 32q-13 10 -31 14t-39 4q-75 0 -121 -34t-46 -91q0 -27 12 -54t43 -52l56 -46q31 -25 55.5 -47t41.5 -45t26.5 -48.5t9.5 -58.5q0 -56 -25.5 -103.5t-74 -82t-118.5 -54t-158 -19.5z" />
    <glyph glyph-name="uni0406" unicode="&#x406;" horiz-adv-x="437" 
d="M264 660q8 29 1 40t-36 15l-33 4l12 39h332l-12 -39l-35 -4q-32 -4 -46.5 -15t-22.5 -40l-172 -562q-9 -29 -1.5 -40t36.5 -15l33 -4l-12 -39h-332l12 39l35 4q32 4 46 15t23 40z" />
    <glyph glyph-name="uni0407" unicode="&#x407;" horiz-adv-x="437" 
d="M264 660q8 29 1 40t-36 15l-33 4l12 39h332l-12 -39l-35 -4q-32 -4 -46.5 -15t-22.5 -40l-172 -562q-9 -29 -1.5 -40t36.5 -15l33 -4l-12 -39h-332l12 39l35 4q32 4 46 15t23 40zM313 837q-30 0 -50 20.5t-20 50.5q0 31 20 51t50 20q29 0 49.5 -20t20.5 -51
q0 -30 -20.5 -50.5t-49.5 -20.5zM539 837q-30 0 -50 20.5t-20 50.5q0 31 20 51t50 20q29 0 49.5 -20t20.5 -51q0 -30 -20.5 -50.5t-49.5 -20.5z" />
    <glyph glyph-name="uni0408" unicode="&#x408;" horiz-adv-x="432" 
d="M294 203q-12 -41 -29.5 -68.5t-40 -49.5t-50 -40t-60.5 -39q-17 -11 -40 -24.5t-49 -29t-52.5 -31t-50.5 -28.5l-23 39q56 37 94.5 66.5t64.5 58.5t43 61.5t31 77.5l142 464q8 29 1 40t-36 15l-33 4l12 39h332l-12 -39l-35 -4q-32 -4 -46.5 -15t-22.5 -40z" />
    <glyph glyph-name="uni0409" unicode="&#x409;" horiz-adv-x="1156" 
d="M634 680q3 11 0.5 15.5t-13.5 4.5h-187q-20 0 -27 -20q-20 -65 -46.5 -142.5t-59.5 -157.5t-71.5 -156t-80.5 -136q-21 -31 -42 -50.5t-40.5 -31t-37.5 -15.5t-34 -4q-24 0 -39.5 15t-15.5 39q0 26 19 48t65 37q35 12 60.5 25.5t49.5 42.5q20 24 46.5 75.5t54 117
t53.5 137t46 136.5q9 29 1.5 40t-36.5 15l-33 4l12 39h626l-12 -39l-35 -4q-31 -4 -45.5 -15t-23.5 -40l-65 -208h139q58 0 107 -11t83.5 -34t54 -57.5t19.5 -80.5q0 -64 -31.5 -114t-86 -84.5t-127.5 -52.5t-157 -18h-386l12 39l36 4q31 4 45.5 15t23.5 40zM623 125
q-12 -38 -1.5 -53t48.5 -15h40q57 0 101.5 16t75 44.5t47 67.5t16.5 84q0 116 -169 116h-78z" />
    <glyph glyph-name="uni040A" unicode="&#x40a;" horiz-adv-x="1264" 
d="M308 0h-332l12 39l35 4q32 4 46 15t23 40l172 562q8 29 1 40t-36 15l-33 4l12 39h332l-12 -39l-35 -4q-32 -4 -46 -15t-23 -40l-72 -234h311l72 234q9 29 1.5 40t-36.5 15l-32 4l12 39h352l-12 -39l-56 -4q-31 -2 -45.5 -14t-23.5 -41l-72 -234h139q60 0 110 -10.5
t86 -31.5t56 -53.5t20 -76.5q0 -60 -31.5 -107.5t-86 -80t-127.5 -49.5t-157 -17h-386l12 39l36 4q31 4 45.5 15t23.5 40l80 261h-311l-80 -261q-9 -29 -1.5 -40t36.5 -15l33 -4zM731 125q-12 -38 -1.5 -53t48.5 -15h40q57 0 101.5 15t75 41.5t47 62.5t16.5 78
q0 54 -44.5 79.5t-132.5 25.5h-78z" />
    <glyph glyph-name="uni040B" unicode="&#x40b;" horiz-adv-x="1003" 
d="M106 41l65 4q30 2 44.5 13t23.5 40l184 602h-10q-55 0 -91 -3t-60.5 -12t-42 -26t-35.5 -45l-37 -59h-41l78 205l247 -2h180l267 2l-46 -205h-41l-1 59q0 29 -8.5 46t-30.5 26t-60 11.5t-98 2.5h-10l-91 -299q47 29 104.5 51.5t126.5 22.5q52 0 93 -14t65.5 -43.5
t30 -75.5t-13.5 -109l-40 -134q-8 -26 -3 -39t34 -15l66 -4l-12 -41h-276l68 223q13 42 15.5 74t-8 53.5t-36 32.5t-68.5 11q-48 0 -91 -17.5t-74 -35.5l-74 -243q-9 -29 -1.5 -40t37.5 -13l63 -4l-13 -41h-392z" />
    <glyph glyph-name="uni040C" unicode="&#x40c;" horiz-adv-x="885" 
d="M333 362l-81 -264q-9 -29 -1.5 -40t36.5 -15l33 -4l-12 -39h-332l12 39l35 4q32 4 46 15t23 40l172 562q8 29 1 40t-36 15l-33 4l12 39h332l-12 -39l-35 -4q-32 -4 -46.5 -15t-22.5 -40l-79 -258l300 197q87 57 123 85.5t7 30.5l-53 4l12 39h290l-12 -39l-35 -4
q-23 -3 -45 -10t-47 -20t-55.5 -31.5t-69.5 -44.5l-277 -182l251 -335q17 -23 25 -35t26 -14l33 -4l-12 -39h-206zM907 969l-300 -126h-25l133 129h193z" />
    <glyph glyph-name="uni040E" unicode="&#x40e;" horiz-adv-x="790" 
d="M374 116q-55 -66 -100.5 -97.5t-87.5 -31.5q-30 0 -46 14.5t-16 39.5q0 29 20.5 50t65.5 29q18 3 36.5 7t38 10.5t38 18t36.5 31.5l-127 473q-3 13 -5.5 22.5t-7.5 16t-14 10.5t-25 6l-33 4l12 39h343l-12 -39l-35 -4q-34 -4 -51.5 -16.5t-10.5 -38.5l88 -328l209 251
q32 39 47 63.5t17.5 39t-5.5 21t-23 8.5l-33 4l12 39h244l-12 -39l-19 -2q-21 -3 -35.5 -8.5t-29 -18.5t-32.5 -34t-45 -54zM588 828q-52 0 -86.5 13t-53.5 34.5t-23 50.5t6 62h106q-14 -44 -4.5 -73.5t57.5 -29.5q26 0 44.5 7.5t32 21t22.5 32.5t16 42h106
q-23 -78 -78.5 -119t-144.5 -41z" />
    <glyph glyph-name="uni040F" unicode="&#x40f;" horiz-adv-x="932" 
d="M632 0q-65 0 -105.5 -2t-66 -11t-41 -28t-30.5 -53l-29 -66h-40l10 66q5 34 1 53t-23.5 28t-58.5 11t-104 2h-169l12 39l35 4q32 4 46 15t23 40l173 562q9 29 1.5 40t-36.5 15l-33 4l12 39h332l-12 -39l-35 -4q-32 -4 -46 -15t-23 -40l-158 -513q-9 -30 -11.5 -47.5
t3.5 -26.5t22 -12t45 -3h162q29 0 47 3t29.5 12t19.5 26.5t17 47.5l158 513q9 29 1.5 40t-36.5 15l-33 4l12 39h332l-12 -39l-35 -4q-32 -4 -46 -15t-23 -40l-173 -562q-9 -29 -1.5 -40t36.5 -15l33 -4l-12 -39h-170z" />
    <glyph glyph-name="uni0490" unicode="&#x490;" horiz-adv-x="717" 
d="M457 700q-20 0 -26 -20l-179 -582q-9 -29 -1.5 -40t37.5 -13l62 -4l-12 -41h-362l12 39l35 4q32 4 46 15t23 40l173 562q9 29 1.5 40t-36.5 15l-33 4l12 39h317q65 0 104.5 2t66 11.5t44.5 28.5t39 52l42 66h41l-91 -218h-315z" />
    <glyph glyph-name="uni0462" unicode="&#x462;" horiz-adv-x="865" 
d="M481 570l-57 -188h139q54 0 103 -8.5t86.5 -28t60 -51t22.5 -78.5q0 -41 -27 -80t-77 -69t-122.5 -48.5t-162.5 -18.5h-386l12 39l36 4q31 4 45.5 15t23.5 40l144 472h-9q-46 0 -75.5 -3t-50.5 -12t-38 -26t-36 -45l-34 -49h-41l76 195l217 -2h9l10 32q9 29 1.5 40
t-36.5 15l-32 4l12 39h332l-12 -39l-36 -4q-31 -4 -45.5 -15t-23.5 -40l-10 -32h11l217 2l-44 -195h-41l-4 49q-2 28 -8 45t-21.5 26t-43 12t-73.5 3h-11zM345 125q-12 -38 -1.5 -53t48.5 -15h40q40 0 80.5 9t73 28.5t52.5 50t20 72.5q0 31 -14.5 50.5t-39 30t-56.5 14
t-67 3.5h-78z" />
    <glyph glyph-name="uni0472" unicode="&#x472;" horiz-adv-x="918" 
d="M433 -13q-72 0 -136 22.5t-113 65t-77.5 103t-28.5 136.5q0 81 36.5 163.5t102 149.5t155 109.5t195.5 42.5q72 0 136 -22.5t113 -65t77.5 -103t28.5 -136.5q0 -81 -36.5 -163.5t-102 -149.5t-155 -109.5t-195.5 -42.5zM271 406q75 31 128.5 39.5t92.5 3.5t68 -17t56 -23
t55.5 -14.5t66.5 9.5q5 27 7.5 53.5t2.5 51.5q0 106 -48.5 158.5t-134.5 52.5q-59 0 -106.5 -27t-84.5 -71t-62.5 -100.5t-40.5 -115.5zM435 46q57 0 104 26t83.5 68.5t62.5 97.5t41 113q-73 -31 -121.5 -38.5t-84 -1.5t-61.5 19.5t-53.5 24t-61.5 12t-84 -15.5
q-5 -24 -6.5 -47.5t-1.5 -46.5q0 -106 48.5 -158.5t134.5 -52.5z" />
    <glyph glyph-name="uni0474" unicode="&#x474;" horiz-adv-x="839" 
d="M297 -26h-61l-13 686q-1 26 -11 38.5t-39 16.5l-32 4l12 39h327l-12 -39l-36 -4q-32 -4 -43 -16t-11 -39l6 -479l368 469q20 26 42.5 49.5t48 41t55 28t63.5 10.5q32 0 45 -13t13 -34q0 -32 -21.5 -51t-49.5 -27q-30 -8 -57.5 -16.5t-53 -21.5t-49 -31.5t-46.5 -46.5z
" />
    <glyph glyph-name="uni0492" unicode="&#x492;" horiz-adv-x="692" 
d="M255 660q8 29 1 40t-36 15l-33 4l12 39h299l313 2l-51 -205h-41l-2 56q-1 29 -8.5 46.5t-27 27t-55 12.5t-92.5 3h-87q-20 0 -26 -20l-178 -582q-9 -29 -1.5 -40t37.5 -13l63 -4l-13 -41h-362l12 39l35 4q32 4 46 15t23 40zM83 416h399l-20 -67h-399z" />
    <glyph glyph-name="uni0496" unicode="&#x496;" horiz-adv-x="1293" 
d="M-67 0l12 39l36 4q19 2 35 13t46 36l434 364l-119 153q-23 29 -42.5 48t-38.5 31t-39.5 18t-44.5 9l-32 4l12 39h280l-12 -39l-27 -2q-39 -3 -28.5 -30t58.5 -88l150 -193l78 254q9 29 1.5 40t-36.5 15l-32 4l12 39h332l-12 -39l-36 -4q-31 -4 -45.5 -15t-23.5 -40
l-78 -254l270 193q85 61 112.5 88t-9.5 30l-26 2l12 39h280l-12 -39l-36 -4q-23 -3 -44.5 -9.5t-46.5 -18.5t-55 -31t-69 -47l-245 -175l197 -342q10 -17 22 -25.5t36 -8.5h49l-43 -218h-41l-2 66q-1 33 -6 52t-21 28.5t-46.5 11.5t-81.5 2l-208 360l-80 -262
q-9 -29 -1.5 -40t36.5 -15l32 -4l-12 -39h-332l12 39l36 4q31 4 45.5 15t23.5 40l80 263l-430 -361h-236z" />
    <glyph glyph-name="uni049A" unicode="&#x49a;" horiz-adv-x="905" 
d="M333 362l-81 -264q-9 -29 -1.5 -40t36.5 -15l33 -4l-12 -39h-332l12 39l35 4q32 4 46 15t23 40l172 562q8 29 1 40t-36 15l-33 4l12 39h332l-12 -39l-35 -4q-32 -4 -46.5 -15t-22.5 -40l-79 -258l300 197q87 57 123 85.5t7 30.5l-53 4l12 39h290l-12 -39l-35 -4
q-23 -3 -45 -10t-47 -20t-55.5 -31.5t-69.5 -44.5l-277 -182l251 -335q13 -17 23.5 -25.5t34.5 -8.5h49l-43 -218h-41l-2 66q-1 33 -6 52t-21 28.5t-46.5 11.5t-81.5 2z" />
    <glyph glyph-name="uni04A2" unicode="&#x4a2;" horiz-adv-x="951" 
d="M490 0l12 39l35 4q32 4 46 15t23 40l77 251h-354l-77 -251q-9 -29 -1.5 -40t36.5 -15l33 -4l-12 -39h-332l12 39l35 4q32 4 46 15t23 40l172 562q8 29 1 40t-36 15l-33 4l12 39h332l-12 -39l-35 -4q-32 -4 -46.5 -15t-22.5 -40l-75 -244h354l75 244q8 29 1 40t-36 15
l-33 4l12 39h332l-12 -39l-35 -4q-32 -4 -46 -15t-23 -40l-167 -547q-8 -28 -1 -41.5t36 -13.5h35l-43 -218h-41l-2 66q-1 33 -7.5 52t-27 28.5t-58.5 11.5t-103 2h-69z" />
    <glyph glyph-name="uni04AE" unicode="&#x4ae;" horiz-adv-x="797" 
d="M139 41l65 4q30 2 44.5 13t23.5 40l75 244l-129 318q-5 12 -8 21.5t-8 16.5t-13 11t-22 6l-33 4l12 39h345l-12 -39l-35 -4q-32 -4 -47.5 -17.5t-5.5 -37.5l99 -251l178 174q36 36 56.5 60t27.5 39.5t2 23t-19 9.5l-33 4l12 39h252l-12 -39l-32 -4q-16 -2 -28 -7
t-27.5 -17.5t-37.5 -33.5t-57 -55l-265 -258l-75 -246q-9 -29 -1.5 -40t37.5 -13l63 -4l-13 -41h-392z" />
    <glyph glyph-name="uni04B0" unicode="&#x4b0;" horiz-adv-x="797" 
d="M139 41l65 4q30 2 44.5 13t23.5 40l75 244l-129 318q-5 12 -8 21.5t-8 16.5t-13 11t-22 6l-33 4l12 39h345l-12 -39l-35 -4q-32 -4 -47.5 -17.5t-5.5 -37.5l99 -251l178 174q36 36 56.5 60t27.5 39.5t2 23t-19 9.5l-33 4l12 39h252l-12 -39l-32 -4q-16 -2 -28 -7
t-27.5 -17.5t-37.5 -33.5t-57 -55l-265 -258l-75 -246q-9 -29 -1.5 -40t37.5 -13l63 -4l-13 -41h-392zM176 344h501l-20 -67h-501z" />
    <glyph glyph-name="uni04B2" unicode="&#x4b2;" horiz-adv-x="849" 
d="M-67 39l35 4q23 3 42.5 10.5t42.5 24t53 43t75 66.5l209 189l-128 284q-10 23 -23 37t-42 18l-33 4l12 39h340l-12 -39l-35 -4q-61 -7 -39 -55l79 -176l92 83q53 48 81 76.5t35.5 44t-2.5 21.5t-33 8l-20 2l12 39h278l-12 -39l-35 -4q-24 -3 -43.5 -10.5t-42 -24
t-52.5 -43t-75 -66.5l-158 -142l149 -331q10 -22 22.5 -31t37.5 -9h49l-43 -218h-41l-2 66q-1 33 -6 52t-21 28.5t-46.5 11.5t-81.5 2h-122l12 39l35 4q61 7 39 55l-100 223l-144 -130q-53 -48 -81 -76.5t-35.5 -44t3 -21.5t33.5 -8l20 -2l-12 -39h-278z" />
    <glyph glyph-name="uni04B6" unicode="&#x4b6;" horiz-adv-x="885" 
d="M422 0l12 39l36 4q31 4 45.5 15t23.5 40l72 236q-38 -12 -86 -21t-119 -9q-62 0 -106.5 16t-69 49t-27.5 83.5t18 120.5l26 87q9 29 1.5 40t-36.5 15l-32 4l12 39h332l-12 -39l-36 -4q-31 -4 -45.5 -15t-23.5 -40l-30 -98q-18 -59 -15.5 -95.5t20 -57t45.5 -27.5t61 -7
q38 0 72 4t69 13l82 268q9 29 1.5 40t-36.5 15l-32 4l12 39h332l-12 -39l-36 -4q-31 -4 -45.5 -15t-23.5 -40l-166 -542q-10 -31 -3 -45.5t37 -14.5h35l-43 -218h-41l-2 66q-1 33 -7.5 52t-27 28.5t-58.5 11.5t-103 2h-70z" />
    <glyph glyph-name="uni04BA" unicode="&#x4ba;" horiz-adv-x="874" 
d="M716.956 97.9941q-8.99902 -28.998 -1.5 -39.998q7.5 -10.999 36.498 -14.999l31.998 -3.99902l-11.999 -38.998h-331.98l12 38.998l35.998 3.99902q30.998 4 45.4971 14.999q14.499 11 23.498 39.998l29.998 97.9941q17.999 58.9961 15.499 95.4941t-19.998 56.9961
q-17.499 20.499 -45.498 27.498q-27.998 7 -60.9961 7q-37.9971 0 -71.9951 -4q-33.998 -3.99902 -68.9961 -12.999l-81.9951 -267.983q-8.99902 -28.998 -1.5 -39.998q7.5 -10.999 36.498 -14.999l31.998 -3.99902l-11.999 -38.998h-331.979l11.999 38.998l35.9971 3.99902
q30.999 4 45.498 14.999q14.499 11 23.498 39.998l171.989 561.966q9 28.998 1.5 39.9971q-7.49902 11 -36.4971 14.999l-31.998 4l11.999 38.998h331.979l-11.999 -38.998l-35.998 -4q-30.998 -3.99902 -45.4971 -14.999q-14.499 -10.999 -23.499 -39.9971
l-71.9951 -235.985q37.998 11.999 85.9951 20.998q47.9971 9 118.992 9q61.9961 0 106.493 -15.999q44.498 -15.999 68.9961 -48.9971q24.499 -32.998 27.498 -83.4951q3 -50.4971 -17.998 -120.493z" />
    <glyph glyph-name="uni04C0" unicode="&#x4c0;" horiz-adv-x="437" 
d="M264 660q8 29 1 40t-36 15l-33 4l12 39h332l-12 -39l-35 -4q-32 -4 -46.5 -15t-22.5 -40l-172 -562q-9 -29 -1.5 -40t36.5 -15l33 -4l-12 -39h-332l12 39l35 4q32 4 46 15t23 40z" />
    <glyph glyph-name="uni04D8" unicode="&#x4d8;" horiz-adv-x="803" 
d="M374 -11q-72 0 -131 23t-100 65t-62 100t-16 127h590q11 50 11 99q0 126 -64.5 195.5t-178.5 69.5q-44 0 -82.5 -13t-72 -34.5t-61.5 -50.5t-51 -60l-49 33q22 39 56 81t81.5 76.5t108 57t135.5 22.5q66 0 124 -21.5t101.5 -64.5t68.5 -106t25 -146q0 -56 -15.5 -112
t-43.5 -106t-67.5 -93t-88 -74.5t-103.5 -49.5t-115 -18zM393 45q44 0 81.5 15t68 41t54 62t39.5 77h-407q-8 -91 35.5 -143t128.5 -52z" />
    <glyph glyph-name="uni04E2" unicode="&#x4e2;" horiz-adv-x="961" 
d="M308 0h-332l12 39l35 4q32 4 46 15t23 40l172 562q8 29 1 40t-36 15l-33 4l12 39h332l-12 -39l-35 -4q-32 -4 -46.5 -15t-22.5 -40l-128 -419l481 382l11 37q8 29 1 40t-36 15l-33 4l12 39h332l-12 -39l-35 -4q-32 -4 -46.5 -15t-22.5 -40l-172 -562q-9 -29 -1.5 -40
t36.5 -15l33 -4l-12 -39h-332l12 39l35 4q32 4 46 15t23 40l130 425l-481 -383l-13 -42q-9 -29 -1.5 -40t36.5 -15l33 -4zM513 940h314l-24 -68h-314z" />
    <glyph glyph-name="uni04E8" unicode="&#x4e8;" horiz-adv-x="918" 
d="M433 -13q-72 0 -136 22.5t-113 65t-77.5 103t-28.5 136.5q0 81 36.5 163.5t102 149.5t155 109.5t195.5 42.5q72 0 136 -22.5t113 -65t77.5 -103t28.5 -136.5q0 -81 -36.5 -163.5t-102 -149.5t-155 -109.5t-195.5 -42.5zM565 720q-57 0 -104 -26t-84 -68.5t-63 -97
t-41 -112.5h467q4 24 6 47t2 46q0 106 -48.5 158.5t-134.5 52.5zM435 46q57 0 104 25.5t83.5 68t62.5 97t41 112.5h-467q-4 -24 -5.5 -47t-1.5 -45q0 -106 48.5 -158.5t134.5 -52.5z" />
    <glyph glyph-name="uni04EE" unicode="&#x4ee;" horiz-adv-x="790" 
d="M374 116q-55 -66 -100.5 -97.5t-87.5 -31.5q-30 0 -46 14.5t-16 39.5q0 29 20.5 50t65.5 29q18 3 36.5 7t38 10.5t38 18t36.5 31.5l-127 473q-3 13 -5.5 22.5t-7.5 16t-14 10.5t-25 6l-33 4l12 39h343l-12 -39l-35 -4q-34 -4 -51.5 -16.5t-10.5 -38.5l88 -328l209 251
q32 39 47 63.5t17.5 39t-5.5 21t-23 8.5l-33 4l12 39h244l-12 -39l-19 -2q-21 -3 -35.5 -8.5t-29 -18.5t-32.5 -34t-45 -54zM467 940h314l-24 -68h-314z" />
    <glyph glyph-name="uni0430" unicode="&#x430;" horiz-adv-x="598" 
d="M99 -13q-56 0 -80.5 28.5t-24.5 74.5q0 43 19 92t50.5 97t72 92t83.5 78t84.5 54t75.5 20q24 0 38.5 -10t19.5 -24l19 49h140l-157 -412q-11 -29 -11.5 -42t13.5 -13q16 0 47.5 33t68.5 96l37 -20q-57 -99 -118 -146t-126 -47q-48 0 -58 31t16 100l20 53h-2
q-32 -51 -61 -86.5t-56 -57t-54 -31t-56 -9.5zM178 66q18 0 45 25.5t56.5 66t57.5 90.5t47 100l14 36q10 27 12 45t-2.5 28.5t-13 14.5t-17.5 4q-27 0 -54 -18t-52 -48t-47 -67.5t-38 -77.5t-25.5 -78t-9.5 -68q0 -53 27 -53z" />
    <glyph glyph-name="uni0431" unicode="&#x431;" horiz-adv-x="570" 
d="M555 365q0 -73 -33 -141.5t-85 -121t-115.5 -84t-123.5 -31.5q-83 0 -126 41t-43 117q0 93 32 191t100 184t173 152.5t251 97.5q43 9 72 19.5t48 39.5h32q-17 -41 -35 -75t-43.5 -58.5t-61 -38.5t-86.5 -15q-35 -1 -60.5 0t-44.5 1.5t-33 -1t-25 -8.5q-36 -22 -67.5 -81
t-54.5 -138q19 20 40 38.5t45 33t52 23t60 8.5q33 0 57.5 -12t41 -32.5t25 -48.5t8.5 -60zM227 39q23 0 45.5 16t42 43t36 62t28 72.5t18 75.5t6.5 71q0 39 -13 56.5t-34 17.5q-50 0 -141 -79q-15 -63 -23.5 -128.5t-8.5 -128.5q0 -39 12.5 -58.5t31.5 -19.5z" />
    <glyph glyph-name="uni0432" unicode="&#x432;" horiz-adv-x="526" 
d="M447 173q0 -34 -21 -67t-56 -59.5t-81.5 -43t-97.5 -16.5q-81 0 -128 37.5t-47 106.5q0 45 16 91.5t43.5 90t64.5 82t79 67t86 45t87 16.5q63 0 93 -21t30 -56q0 -54 -54 -98t-160 -70q76 0 111 -28t35 -77zM332 471q-27 0 -50 -16.5t-41 -44t-31.5 -63t-23.5 -72.5
q95 23 139 66t44 94q0 17 -9.5 26.5t-27.5 9.5zM164 110q0 -78 49 -78q19 0 34.5 11t26.5 30t17 43t6 51q0 35 -11.5 57.5t-48.5 22.5q-16 0 -30.5 -3t-28.5 -8q-8 -35 -11 -67.5t-3 -58.5z" />
    <glyph glyph-name="uni0433" unicode="&#x433;" horiz-adv-x="502" 
d="M177 -13q-35 0 -65.5 7t-53 21t-35.5 36t-13 51q0 63 44 105.5t130 72.5l43 15q63 22 97 50t34 67q0 29 -18 42t-47 13t-54.5 -19t-60.5 -61l-35 -41l-47 6l80 143q35 11 70.5 16t66.5 5q86 0 132.5 -30.5t46.5 -84.5q0 -53 -48 -98t-141 -78l-45 -16
q-60 -21 -88.5 -50.5t-28.5 -65.5q0 -28 17.5 -42.5t46.5 -14.5q18 0 34 5t32 15.5t33 28t37 42.5l43 53l46 -6l-80 -154q-38 -14 -82 -23.5t-91 -9.5z" />
    <glyph glyph-name="uni0434" unicode="&#x434;" horiz-adv-x="552" 
d="M176 -13q-35 0 -64 9t-50.5 28.5t-33.5 49.5t-12 72q0 63 31 129.5t82.5 121.5t118 90.5t137.5 35.5q6 0 12 -0.5t12 -1.5q-1 51 -8 93.5t-21.5 73t-36.5 47.5t-52 17q-20 0 -41.5 -4.5t-43.5 -16.5l-16 33q33 20 71 32t78 12q52 0 94 -21.5t71.5 -59t45 -89.5t15.5 -113
q0 -128 -34 -228t-89 -169t-124.5 -105t-141.5 -36zM171 127q0 -40 8.5 -64t37.5 -24t61 26.5t59.5 79.5t47 132t23.5 184q-14 16 -41 16q-42 0 -78 -35t-62.5 -87.5t-41 -113.5t-14.5 -114z" />
    <glyph glyph-name="uni0435" unicode="&#x435;" horiz-adv-x="467" 
d="M156 -13q-64 0 -105 37.5t-41 106.5q0 45 16 91.5t43.5 90t64.5 82t79 67t86 45t87 16.5q51 0 74.5 -21t23.5 -56q0 -44 -22 -74t-50 -49q-23 -6 -53.5 -14t-64 -16l-67 -16t-61.5 -14q-8 -38 -8 -72q0 -31 6.5 -51.5t17 -33t25 -18t30.5 -5.5q38 0 70 29t71 94l36 -18
q-21 -36 -45 -72t-55 -64.5t-69.5 -46.5t-88.5 -18zM326 471q-23 0 -44.5 -13.5t-41 -36t-35.5 -53t-27 -63.5q22 5 42.5 10t37.5 11q34 12 55 25.5t32 27.5t14.5 28.5t3.5 27.5q0 17 -9.5 26.5t-27.5 9.5z" />
    <glyph glyph-name="uni0451" unicode="&#x451;" horiz-adv-x="467" 
d="M156 -13q-64 0 -105 37.5t-41 106.5q0 45 16 91.5t43.5 90t64.5 82t79 67t86 45t87 16.5q51 0 74.5 -21t23.5 -56q0 -44 -22 -74t-50 -49q-23 -6 -53.5 -14t-64 -16l-67 -16t-61.5 -14q-8 -38 -8 -72q0 -31 6.5 -51.5t17 -33t25 -18t30.5 -5.5q38 0 70 29t71 94l36 -18
q-21 -36 -45 -72t-55 -64.5t-69.5 -46.5t-88.5 -18zM326 471q-23 0 -44.5 -13.5t-41 -36t-35.5 -53t-27 -63.5q22 5 42.5 10t37.5 11q34 12 55 25.5t32 27.5t14.5 28.5t3.5 27.5q0 17 -9.5 26.5t-27.5 9.5zM526 636q-29 0 -48.5 20t-19.5 49q0 30 19.5 49.5t48.5 19.5
t48.5 -19.5t19.5 -49.5q0 -29 -19.5 -49t-48.5 -20zM300 636q-29 0 -48.5 20t-19.5 49q0 30 19.5 49.5t48.5 19.5t48.5 -19.5t19.5 -49.5q0 -29 -19.5 -49t-48.5 -20z" />
    </font>
</defs>
</svg>
