<?xml version="1.0" standalone="no"?>
<!DOCTYPE svg PUBLIC "-//W3C//DTD SVG 1.1//EN" "http://www.w3.org/Graphics/SVG/1.1/DTD/svg11.dtd" >
<svg xmlns="http://www.w3.org/2000/svg" xmlns:xlink="http://www.w3.org/1999/xlink" version="1.1">
<metadata>
Created by Christoph Koeberlin (http://christoph.koe.berlin)
Copyright (c) 2017 Swiss Typefaces Sarl. All rights reserved.
</metadata>
<defs>
<font id="Font" horiz-adv-x="0" >
  <font-face 
    font-family="Font"
    font-weight="700"
    font-stretch="normal"
    units-per-em="1000"
    panose-1="2 7 8 4 9 0 0 0 0 4"
    ascent="800"
    descent="-200"
    x-height="502"
    cap-height="758"
    bbox="-426 -403 1362 1072"
    underline-thickness="75"
    underline-position="-130"
    unicode-range="U+0020-FEFF"
  />
<missing-glyph horiz-adv-x="626" 
d="M63 758h500v-758h-500v758zM313 396l217 343h-434zM82 30l221 349l-221 349v-698zM544 30v698l-220 -349zM530 19l-217 343l-217 -343h434z" />
    <glyph glyph-name="f_f.liga" unicode="ff" horiz-adv-x="758" 
d="M369 10h71v414h-77v10q32 7 52.5 22t34 35t21.5 44t16 50q15 52 41.5 88.5t59 60t66 34.5t62.5 11q34 0 58 -16.5t24 -49.5q0 -28 -15 -50t-31 -27q-56 6 -111.5 11t-106.5 7q-10 -8 -22 -29.5t-12 -49.5q0 -32 22.5 -52.5t76.5 -20.5h200l-55 -78h-156v-414h101v-10
h-320v10zM23 10h70v414h-76v10q32 7 52.5 21.5t34 34t22 43.5t16.5 51q14 51 41 87t59 59t65.5 34t62.5 11q33 0 57.5 -16.5t24.5 -50.5q0 -27 -15.5 -49t-30.5 -27q-57 5 -112.5 10t-106.5 7q-10 -8 -21.5 -28.5t-11.5 -45.5q0 -32 22.5 -52.5t76.5 -20.5h144l-55 -78h-101
v-414h101v-10h-319v10z" />
    <glyph glyph-name="f_i.liga" unicode="fi" horiz-adv-x="686" 
d="M528 606q-38 0 -64 26.5t-26 64.5q0 19 7 35.5t19 28.5t28.5 19t35.5 7q38 0 64.5 -26t26.5 -64q0 -19 -7 -35.5t-19.5 -29t-29 -19.5t-35.5 -7zM23 10h70v414h-76v10q32 7 52.5 22t34 35t21.5 44t16 50q15 52 38.5 88.5t51.5 60t57 34.5t55 11q34 0 58 -16.5t24 -49.5
q0 -28 -17 -50t-33 -27q-94 12 -188 18q-10 -8 -21.5 -29.5t-11.5 -49.5q0 -32 22.5 -52.5t76.5 -20.5h156l-55 -78h-113v-414h101v-10h-319v10zM606 10h71v-10h-290v10h71v368l-71 49v4l219 94v-515z" />
    <glyph glyph-name="f_f_i.liga" unicode="ffi" horiz-adv-x="1032" 
d="M874 606q-19 0 -35.5 7t-28.5 19.5t-19 29t-7 35.5q0 38 26 64t64 26q19 0 35.5 -7t29 -19t19.5 -28.5t7 -35.5q0 -38 -26.5 -64.5t-64.5 -26.5zM369 10h71v414h-77v10q32 7 52.5 22t34 35t21.5 44t16 50q15 52 38.5 88.5t51.5 60t57.5 34.5t55.5 11q34 0 57.5 -16.5
t23.5 -49.5q0 -28 -15 -50t-31 -27q-48 6 -96.5 10.5t-95.5 7.5q-10 -8 -21.5 -29.5t-11.5 -49.5q0 -32 22.5 -52.5t76.5 -20.5h156l-54 -78h-113v-414h101v-10h-320v10zM23 10h70v414h-76v10q32 7 52.5 21.5t34 34t22 43.5t16.5 51q14 51 41 87t59 59t65.5 34t62.5 11
q33 0 57.5 -16.5t24.5 -50.5q0 -27 -15.5 -49t-30.5 -27q-57 5 -112.5 10t-106.5 7q-10 -8 -21.5 -28.5t-11.5 -45.5q0 -32 22.5 -52.5t76.5 -20.5h144l-55 -78h-101v-414h101v-10h-319v10zM952 10h71v-10h-290v10h71v368l-71 49v4l219 94v-515z" />
    <glyph glyph-name="f_l.liga" unicode="fl" horiz-adv-x="682" 
d="M384 10h71v738h-25q9 -15 9 -35q0 -28 -15.5 -50t-31.5 -27q-100 12 -205 18q-10 -8 -21.5 -29.5t-11.5 -49.5q0 -32 22.5 -52.5t76.5 -20.5h172l-54 -78h-130v-414h101v-10h-319v10h70v414h-76v10q32 7 52.5 22t34 35t21.5 44t16 50q15 52 40.5 88.5t56 60t63 34.5
t61.5 11q40 0 60 -21h180v-748h71v-10h-289v10z" />
    <glyph glyph-name="f_f_l.liga" unicode="ffl" horiz-adv-x="1029" 
d="M731 10h71v738h-26q4 -8 6.5 -16t2.5 -19q0 -28 -15 -50t-31 -27q-51 6 -102.5 10.5t-102.5 7.5q-10 -8 -22 -29.5t-12 -49.5q0 -32 22.5 -52.5t76.5 -20.5h173l-54 -78h-130v-414h101v-10h-320v10h71v414h-77v10q32 7 52.5 22t34 35t21.5 44t16 50q15 52 40.5 88.5
t56.5 60t63.5 34.5t61.5 11q39 0 59 -21h181v-748h71v-10h-289v10zM23 10h70v414h-76v10q32 7 52.5 21.5t34 34t22 43.5t16.5 51q14 51 41 87t59 59t65.5 34t62.5 11q33 0 57.5 -16.5t24.5 -50.5q0 -27 -15.5 -49t-30.5 -27q-57 5 -112.5 10t-106.5 7q-10 -8 -21.5 -28.5
t-11.5 -45.5q0 -32 22.5 -52.5t76.5 -20.5h144l-55 -78h-101v-414h101v-10h-319v10z" />
    <glyph glyph-name=".notdef" horiz-adv-x="626" 
d="M63 758h500v-758h-500v758zM313 396l217 343h-434zM82 30l221 349l-221 349v-698zM544 30v698l-220 -349zM530 19l-217 343l-217 -343h434z" />
    <glyph glyph-name="glyph1" 
 />
    <glyph glyph-name="glyph2" horiz-adv-x="250" 
 />
    <glyph glyph-name="space" unicode=" " horiz-adv-x="250" 
 />
    <glyph glyph-name="exclam" unicode="!" horiz-adv-x="305" 
d="M147 267q0 72 -9.5 134.5t-25 113.5t-35 89t-38.5 61q6 20 18 41t27 39.5t32.5 34t35.5 24.5q18 -9 35.5 -24.5t33 -34t27 -39.5t17.5 -41q-19 -23 -38 -61t-34.5 -89t-25 -113.5t-9.5 -134.5v-31h-11v31zM151 -13q-20 0 -37 7.5t-30.5 21t-21 32t-7.5 39.5
q0 19 7.5 36.5t21 31t30.5 21t37 7.5q21 0 39.5 -7.5t32 -21t21 -31t7.5 -36.5q0 -43 -28.5 -71.5t-71.5 -28.5z" />
    <glyph glyph-name="quotedbl" unicode="&#x22;" horiz-adv-x="402" 
d="M38 733q-5 25 8 35.5t51 10.5q37 0 49.5 -10.5t7.5 -35.5l-54 -250h-8zM248 733q-5 25 8 35.5t51 10.5q37 0 49.5 -10.5t7.5 -35.5l-54 -250h-8z" />
    <glyph glyph-name="numbersign" unicode="#" horiz-adv-x="874" 
d="M197 200h-173l27 67h173l90 221h-174l27 67h174l90 221h72l-90 -221h195l90 221h72l-90 -221h169l-26 -67h-170l-90 -221h170l-27 -67h-170l-81 -200h-72l81 200h-195l-81 -200h-72zM491 267l90 221h-195l-90 -221h195z" />
    <glyph glyph-name="dollar" unicode="$" horiz-adv-x="618" 
d="M298 -13q-56 0 -103 10.5t-81 28.5t-53 43t-19 54q0 39 35 57.5t86 9.5q3 -44 11 -79.5t24 -60.5t41 -38.5t63 -13.5v309l-53 17q-94 31 -148 89.5t-54 142.5q0 55 23 97t60 70t82 42t90 14v101h12v-101q49 -1 91.5 -9.5t74 -23.5t49.5 -36.5t18 -48.5q0 -39 -32.5 -56.5
t-84.5 -8.5q-1 39 -7 69.5t-19 52.5t-35 34.5t-55 14.5v-289l39 -12q50 -16 92 -36t73 -48t48 -65.5t17 -87.5q0 -54 -23 -97.5t-60.5 -75t-86 -49t-99.5 -20.5v-101h-12v101h-4zM302 482v286h-5q-29 0 -55 -8.5t-45.5 -24.5t-31 -39.5t-11.5 -53.5q0 -60 36 -98t100 -58z
M473 140q0 34 -11 59t-31.5 44t-50 33.5t-66.5 26.5v-305q34 1 63 12t50.5 29.5t33.5 44t12 56.5z" />
    <glyph glyph-name="percent" unicode="%" horiz-adv-x="951" 
d="M732 758h65l-584 -758h-65zM212 339q-44 0 -78 19.5t-57 50.5t-35.5 70t-12.5 78t12.5 78t35.5 69.5t57 50t78 19.5t78.5 -19.5t58 -50t36 -69.5t12.5 -78t-12.5 -78t-36 -70t-58 -50.5t-78.5 -19.5zM212 347q22 0 35.5 16t21.5 44.5t11 67t3 82.5t-3 82t-11 66.5
t-21.5 45t-35.5 16.5q-21 0 -34.5 -16.5t-21 -45t-10.5 -66.5t-3 -82t3 -82.5t10.5 -67t21 -44.5t34.5 -16zM737 -10q-44 0 -78 19.5t-57 50.5t-35.5 70t-12.5 78t12.5 78t35.5 69.5t57 50t78 19.5t78.5 -19.5t58 -50t36 -69.5t12.5 -78t-12.5 -78t-36 -70t-58 -50.5
t-78.5 -19.5zM737 -2q22 0 35.5 16t21.5 44.5t11 67t3 82.5t-3 82t-11 66.5t-21.5 45t-35.5 16.5q-21 0 -34.5 -16.5t-21 -45t-10.5 -66.5t-3 -82t3 -82.5t10.5 -67t21 -44.5t34.5 -16z" />
    <glyph glyph-name="ampersand" unicode="&#x26;" horiz-adv-x="923" 
d="M555 138q-47 -74 -106 -112.5t-136 -38.5q-57 0 -102 18.5t-76 48.5t-47.5 68.5t-16.5 78.5q0 43 16 78t44.5 63t67 49.5t83.5 36.5q-47 52 -73 95t-26 88q0 37 17.5 68t49 53t74 34.5t92.5 12.5q84 0 131.5 -35t47.5 -95q0 -31 -13 -57t-35 -47t-51 -37t-62 -27l5 -6
l197 -211l142 228h-98v10h208v-10h-97l-147 -237l239 -255h-197zM214 273q0 -41 13.5 -76.5t38.5 -61t58.5 -40t74.5 -14.5q88 0 148 66l-249 264l-8 9q-40 -27 -58 -66t-18 -81zM314 672q0 -24 9.5 -47t25 -46t36 -45.5t41.5 -44.5q72 25 114 64.5t42 95.5q0 57 -44 87.5
t-114 30.5q-46 0 -78 -23.5t-32 -71.5z" />
    <glyph glyph-name="quotesingle" unicode="'" horiz-adv-x="192" 
d="M38 733q-5 25 8 35.5t51 10.5q37 0 49.5 -10.5t7.5 -35.5l-54 -250h-8z" />
    <glyph glyph-name="parenleft" unicode="(" horiz-adv-x="331" 
d="M309 -264q-64 55 -115.5 114t-87.5 124.5t-55 137.5t-19 152t19 152t55 137.5t87.5 124.5t115.5 114l7 -8q-50 -52 -78 -114t-42 -129t-17.5 -137.5t-3.5 -139.5t3.5 -139.5t17.5 -137.5t42 -129t78 -114z" />
    <glyph glyph-name="parenright" unicode=")" horiz-adv-x="331" 
d="M36 792q64 -55 115.5 -114t87.5 -124.5t55 -137.5t19 -152t-19 -152t-55 -137.5t-87.5 -124.5t-115.5 -114l-7 8q50 52 78 114t42 129t17.5 137.5t3.5 139.5t-3.5 139.5t-17.5 137.5t-42 129t-78 114z" />
    <glyph glyph-name="asterisk" unicode="*" horiz-adv-x="463" 
d="M357 407l-7 -4l-119 110l-118 -111l-7 5l68 148l-143 78l3 9l162 -19l30 159h9l32 -159l161 19l3 -8l-142 -79z" />
    <glyph glyph-name="plus" unicode="+" horiz-adv-x="639" 
d="M280 225h-229v75h229v216h79v-216h229v-75h-229v-225h-79v225z" />
    <glyph glyph-name="comma" unicode="," horiz-adv-x="293" 
d="M141 170q20 0 39 -8t34 -23t24 -37t9 -50q0 -59 -47 -117.5t-135 -112.5l-5 8q48 32 74 66.5t26 67.5q0 38 -31 63.5t-83 33.5q-2 57 26 83t69 26z" />
    <glyph glyph-name="hyphen" unicode="-" horiz-adv-x="411" 
d="M58 303h294v-86h-294v86z" />
    <glyph glyph-name="period" unicode="." horiz-adv-x="285" 
d="M140 -13q-20 0 -37 7.5t-30.5 21t-21 32t-7.5 39.5q0 19 7.5 36.5t21 31t30.5 21t37 7.5q21 0 39.5 -7.5t32 -21t21 -31t7.5 -36.5q0 -43 -28.5 -71.5t-71.5 -28.5z" />
    <glyph glyph-name="slash" unicode="/" horiz-adv-x="470" 
d="M365 776h82l-344 -828h-81z" />
    <glyph glyph-name="zero" unicode="0" horiz-adv-x="706" 
d="M353 -13q-75 0 -132.5 35.5t-97.5 92t-60.5 127t-20.5 141.5t20.5 141.5t60.5 127t97.5 92t132.5 35.5t132.5 -35.5t97 -92t60 -127t20.5 -141.5t-20.5 -141.5t-60 -127t-97 -92t-132.5 -35.5zM353 -2q42 0 68.5 32t42.5 85.5t22 123t6 144.5t-6 144.5t-22 123
t-42.5 85.5t-68.5 32t-68.5 -32t-42.5 -85.5t-22 -123t-6 -144.5t6 -144.5t22 -123t42.5 -85.5t68.5 -32z" />
    <glyph glyph-name="one" unicode="1" horiz-adv-x="400" 
d="M48 10h94v642h-125v10q98 5 167 35t99 81h7v-768h71v-10h-313v10z" />
    <glyph glyph-name="two" unicode="2" horiz-adv-x="587" 
d="M-1 4q107 98 177.5 178t112.5 145.5t59.5 119t17.5 97.5q0 69 -37 110t-103 41q-50 0 -92 -24t-73 -89l-9 3q38 98 106 146t158 48q50 0 89.5 -14t67 -39t42 -58.5t14.5 -73.5q0 -51 -22.5 -96.5t-57 -87t-76 -78.5t-79.5 -71q-11 -9 -30.5 -26t-41.5 -35.5t-42.5 -36.5
t-32.5 -28h411l-54 -135h-505v4z" />
    <glyph glyph-name="three" unicode="3" horiz-adv-x="593" 
d="M236 -13q-50 0 -90 10.5t-68.5 27.5t-44 39t-15.5 45q0 19 8 34.5t23 25t35.5 12t45.5 -4.5q11 -21 22.5 -43.5t22.5 -43.5t21 -39t19 -30q11 -14 20 -18t21 -4q37 0 66 16.5t49.5 44.5t31.5 66t11 80t-13 77t-35 60t-52.5 38.5t-64.5 13.5q-20 0 -40 -6.5t-37 -13.5
l-4 10l62 25q74 30 109.5 80t35.5 98q0 54 -37.5 82t-91.5 28q-30 0 -57.5 -9.5t-49 -27.5t-35.5 -44.5t-17 -60.5h-9q3 49 20.5 90t47.5 71t73 46.5t97 16.5q39 0 74 -8.5t62 -25.5t42.5 -41.5t15.5 -56.5q0 -52 -41.5 -86t-114.5 -60v-3q97 -24 148.5 -83t51.5 -146
q0 -59 -27 -110.5t-71.5 -89.5t-101.5 -60t-118 -22z" />
    <glyph glyph-name="four" unicode="4" horiz-adv-x="658" 
d="M347 0v192h-354v2l499 592h5v-477h135v-117h-135v-192h-150zM347 309v289l-239 -289h239z" />
    <glyph glyph-name="five" unicode="5" horiz-adv-x="594" 
d="M229 -13q-47 0 -86.5 10t-68 26.5t-44.5 38.5t-16 46q0 18 8 33t22.5 25t35 12.5t45.5 -4.5q11 -21 23 -42.5t23.5 -42t22.5 -38t20 -29.5q12 -14 21 -17.5t24 -3.5q35 0 65.5 11.5t53.5 33t36 51.5t13 68q0 50 -24.5 87.5t-68.5 64.5t-104.5 44.5t-131.5 27.5l96 369
h375l-45 -135h-353l-24 -89q94 -14 166.5 -35.5t122 -54t75.5 -77.5t26 -106q0 -56 -25 -106t-67.5 -87.5t-98.5 -59t-117 -21.5z" />
    <glyph glyph-name="six" unicode="6" horiz-adv-x="642" 
d="M314 -13q-63 0 -114.5 23.5t-88 64t-56.5 94.5t-20 115q0 82 37.5 159.5t112 146.5t186 128t259.5 104l3 -7q-94 -37 -166.5 -87t-124 -107.5t-83 -121.5t-43.5 -129q19 38 60 66.5t102 28.5q45 0 83.5 -15.5t66.5 -44t44 -69.5t16 -91q0 -56 -21 -103t-58 -81.5t-87 -54
t-108 -19.5zM207 280q0 -143 26.5 -212.5t83.5 -69.5q52 0 76 55.5t24 154.5q0 45 -7.5 82t-22 63.5t-35.5 41t-49 14.5q-26 0 -49.5 -12t-40.5 -39q-6 -39 -6 -78z" />
    <glyph glyph-name="seven" unicode="7" horiz-adv-x="554" 
d="M63 0l406 623h-457l45 135h517l-496 -758h-15z" />
    <glyph glyph-name="eight" unicode="8" horiz-adv-x="598" 
d="M291 -13q-54 0 -99.5 15t-79 41t-52 60.5t-18.5 74.5q0 63 45 108.5t119 74.5q-63 38 -100 90.5t-37 120.5q0 48 20.5 86.5t54 65.5t75.5 41t86 14q42 0 81 -10t69 -29.5t48 -48.5t18 -66q0 -29 -12.5 -54.5t-34 -46.5t-50.5 -37.5t-62 -28.5l17 -9q37 -19 69.5 -41
t56.5 -49t38 -61t14 -77q0 -53 -23.5 -96.5t-61 -74t-85.5 -47t-96 -16.5zM136 186q0 -87 41.5 -137.5t116.5 -50.5q68 0 109.5 36t41.5 105q0 29 -10 52.5t-29 43.5t-46.5 38.5t-61.5 37.5l-74 40l-7 4q-39 -29 -60 -71.5t-21 -97.5zM354 462q45 28 64.5 71.5t19.5 90.5
q0 31 -8.5 57t-26 45.5t-43 30.5t-59.5 11q-27 0 -51 -7t-42 -21t-28 -36t-10 -52q0 -56 37 -94.5t95 -68.5z" />
    <glyph glyph-name="nine" unicode="9" horiz-adv-x="642" 
d="M340.979 778.952q62.9961 0 114.493 -23.498q51.4961 -23.499 87.9941 -63.9961q36.498 -40.498 56.4961 -94.4941q19.999 -53.9971 19.999 -114.993q0 -81.9951 -37.4971 -159.49q-37.498 -77.4951 -111.993 -146.491q-74.4961 -68.9961 -185.989 -127.992
t-259.484 -103.993l-2.99902 6.99902q93.9941 36.998 166.489 86.9951q72.4961 49.9961 123.992 107.493q51.4971 57.4961 82.9951 121.492t43.498 128.992q-18.999 -37.9971 -59.9971 -66.4961q-40.9971 -28.498 -101.993 -28.498q-44.9971 0 -83.4951 15.499
t-66.4961 43.9971q-27.998 28.499 -43.9971 69.4961q-15.999 40.998 -15.999 90.9941q0 55.9971 20.998 102.994q20.999 46.9971 57.9971 81.4951t86.9941 53.9971q49.9971 19.498 107.994 19.498zM447.973 485.971q0 142.991 -26.498 212.486
q-26.499 69.4961 -83.4951 69.4961q-51.9971 0 -75.9951 -55.4971q-23.999 -55.4961 -23.999 -154.49q0 -44.9971 7.5 -81.9951q7.49902 -36.9971 21.998 -63.4961q14.499 -26.498 35.498 -40.9971t48.9971 -14.499q25.998 0 49.4971 11.999q23.498 11.999 40.4971 38.9971
q6 38.998 6 77.9961z" />
    <glyph glyph-name="colon" unicode=":" horiz-adv-x="302" 
d="M149 322q-20 0 -37 7.5t-30.5 21t-21 32t-7.5 39.5q0 19 7.5 36.5t21 31t30.5 21t37 7.5q21 0 39.5 -7.5t32 -21t21 -31t7.5 -36.5q0 -43 -28.5 -71.5t-71.5 -28.5zM149 -13q-20 0 -37 7.5t-30.5 21t-21 32t-7.5 39.5q0 19 7.5 36.5t21 31t30.5 21t37 7.5q21 0 39.5 -7.5
t32 -21t21 -31t7.5 -36.5q0 -43 -28.5 -71.5t-71.5 -28.5z" />
    <glyph glyph-name="semicolon" unicode=";" horiz-adv-x="315" 
d="M154 322q-20 0 -37 7.5t-30.5 21t-21 32t-7.5 39.5q0 19 7.5 36.5t21 31t30.5 21t37 7.5q21 0 39.5 -7.5t32 -21t21 -31t7.5 -36.5q0 -43 -28.5 -71.5t-71.5 -28.5zM154 170q20 0 39 -8t34 -23t24 -37t9 -50q0 -59 -47 -117.5t-135 -112.5l-5 8q48 32 74 66.5t26 67.5
q0 38 -31 63.5t-83 33.5q-2 57 26 83t69 26z" />
    <glyph glyph-name="less" unicode="&#x3c;" horiz-adv-x="639" 
d="M45 297l527 225v-80l-425 -180l425 -180v-80l-527 226v69z" />
    <glyph glyph-name="equal" unicode="=" horiz-adv-x="639" 
d="M61 408h517v-74h-517v74zM61 179h517v-74h-517v74z" />
    <glyph glyph-name="greater" unicode="&#x3e;" horiz-adv-x="639" 
d="M608 228l-527 -226v80l425 180l-425 180v80l527 -225v-69z" />
    <glyph glyph-name="question" unicode="?" horiz-adv-x="597" 
d="M292 764q-32 0 -56.5 -8t-41 -27t-24.5 -51.5t-7 -80.5q-23 -1 -47 3t-43.5 13t-32.5 24t-13 36q0 22 18 41.5t48.5 33.5t71 22.5t86.5 8.5q71 0 129 -18t99.5 -50t64 -77.5t22.5 -99.5q0 -34 -9 -63.5t-29.5 -52t-54.5 -37t-84 -20.5l-130 -15q-24 -3 -31.5 -9t-7.5 -29
l-1 -72h-9l-20 176q-3 28 0.5 44.5t14 25.5t28.5 13.5t44 8.5l107 15q134 19 134 97q0 30 -20.5 57t-53 47.5t-73 32t-79.5 11.5zM221 -13q-20 0 -37 7.5t-30.5 21t-21 32t-7.5 39.5q0 19 7.5 36.5t21 31t30.5 21t37 7.5q21 0 39.5 -7.5t32 -21t21 -31t7.5 -36.5
q0 -43 -28.5 -71.5t-71.5 -28.5z" />
    <glyph glyph-name="at" unicode="@" horiz-adv-x="964" 
d="M416 -13q-75 0 -143 20t-119 59.5t-81 97.5t-30 133q0 61 20 120.5t56.5 113t86.5 99t110 78.5t128 52t139 19q67 0 130.5 -19t112.5 -56t79 -91.5t30 -124.5q0 -74 -33 -134.5t-86 -103t-118.5 -66t-131.5 -23.5q-25 0 -40.5 6.5t-15.5 20.5q0 10 5 25t13 35l41 105h-2
q-48 -87 -110 -139t-125 -52q-22 0 -41.5 6.5t-34 19.5t-23 33t-8.5 46q0 40 18.5 81t49 80t70 73t82 59.5t84.5 40.5t77 15q41 0 83.5 -14.5t71.5 -27.5l-137 -345q-7 -17 -10.5 -27t-3.5 -15q0 -4 2.5 -6.5t10.5 -2.5q32 0 77.5 17t87.5 54.5t71.5 96t29.5 141.5
q0 69 -24 121.5t-65.5 88.5t-97 54.5t-119.5 18.5q-97 0 -181 -40t-146.5 -106t-98 -150.5t-35.5 -173.5q0 -70 21.5 -126t61.5 -95t95.5 -60t123.5 -21q80 0 133.5 18.5t85.5 35.5l4 -8q-37 -19 -92 -38t-139 -19zM396 222q22 0 49 13.5t54.5 41t54.5 69t48 97.5l55 146
q-12 18 -50 18q-27 0 -56.5 -15t-58 -40.5t-54.5 -59t-46 -69.5t-31.5 -73t-11.5 -69q0 -59 47 -59z" />
    <glyph glyph-name="A" unicode="A" horiz-adv-x="751" 
d="M442 10h88l-101 269h-265l-103 -269h92v-10h-188v10h83l243 637l-41 111h170l281 -748h83v-10h-342v10zM407 339l-109 291l-111 -291h220z" />
    <glyph glyph-name="B" unicode="B" horiz-adv-x="789" 
d="M394 758q303 0 303 -170q0 -79 -64.5 -123t-182.5 -58v-2q69 -1 125 -12.5t96 -34t61.5 -56.5t22.5 -80q2 -110 -88 -166t-258 -56h-373v10h91v738h-91v10h358zM526 577q0 77 -36.5 124t-109.5 47h-88v-342h88q73 0 109.5 47.5t36.5 123.5zM575 203q0 94 -47.5 143.5
t-136.5 49.5h-99v-386h99q89 0 136.5 49.5t47.5 143.5z" />
    <glyph glyph-name="C" unicode="C" horiz-adv-x="851" 
d="M488 -4q48 0 91 15t82 50.5t73.5 93t65.5 143.5h6l-52 -308h-6l-49 57q-20 -15 -45.5 -26t-54 -18.5t-59 -11.5t-58.5 -4q-97 0 -178.5 28.5t-140.5 81t-92 125t-33 161.5q0 84 31 156.5t89 125.5t139.5 83.5t182.5 30.5q28 0 58 -4t58.5 -11.5t54 -18.5t45.5 -26l50 57
h6l52 -308h-6q-31 85 -66 143t-74 93.5t-82 50.5t-91 15q-45 0 -91.5 -18t-84.5 -59.5t-62.5 -109t-24.5 -166.5q0 -86 17.5 -162.5t51.5 -134t83.5 -91t113.5 -33.5z" />
    <glyph glyph-name="D" unicode="D" horiz-adv-x="863" 
d="M36 10h91v738h-91v10h333q99 0 182 -25t144 -73t95 -117.5t34 -157.5t-35 -159t-96 -121.5t-143.5 -77.5t-178.5 -27h-335v10zM360 10q58 0 110.5 21t91.5 66t60 116.5t17 173.5q-7 181 -80 271t-204 90h-63v-738h68z" />
    <glyph glyph-name="E" unicode="E" horiz-adv-x="767" 
d="M36 10h91v738h-91v10h585l47 -235h-6l-162 204q-11 14 -19 17.5t-27 3.5h-162v-355h121q10 0 14.5 2.5t9.5 13.5l59 127h6v-297h-6l-59 127q-5 11 -9.5 14t-14.5 3h-121v-373h222q19 0 28 4t18 16l184 231h6l-69 -261h-645v10z" />
    <glyph glyph-name="F" unicode="F" horiz-adv-x="717" 
d="M36 10h91v738h-91v10h626l48 -235h-6l-162 204q-11 14 -19.5 17.5t-27.5 3.5h-203v-355h135q9 0 13.5 2.5t9.5 13.5l60 127h6v-297h-6l-60 127q-5 11 -9.5 14t-13.5 3h-135v-373h124v-10h-380v10z" />
    <glyph glyph-name="G" unicode="G" horiz-adv-x="891" 
d="M490 -13q-102 0 -185.5 28.5t-142.5 81t-91.5 125t-32.5 161.5q0 84 31 156.5t89 125.5t139.5 83.5t182.5 30.5q28 0 58 -4t58.5 -11.5t54 -18.5t45.5 -26l50 57h6l52 -308h-6q-31 85 -66 143t-74 93.5t-82 50.5t-91 15q-45 0 -91.5 -18t-84.5 -59.5t-62.5 -109
t-24.5 -166.5q0 -97 20 -175t56 -132.5t85.5 -83.5t108.5 -29q48 0 87.5 9t68.5 24v304h-211v60h371v-267l3 -68q-38 -5 -74.5 -17t-75.5 -24t-81 -21.5t-90 -9.5z" />
    <glyph glyph-name="H" unicode="H" horiz-adv-x="916" 
d="M384 0h-348v10h91v738h-91v10h348v-10h-92v-326h332v326h-91v10h347v-10h-91v-738h91v-10h-347v10h91v352h-332v-352h92v-10z" />
    <glyph glyph-name="I" unicode="I" horiz-adv-x="420" 
d="M384 0h-348v10h91v738h-91v10h348v-10h-92v-738h92v-10z" />
    <glyph glyph-name="J" unicode="J" horiz-adv-x="460" 
d="M132 -143q-35 0 -66 8t-53.5 23t-35.5 36t-13 46q0 21 9.5 36.5t25.5 25t36 12.5t41 -2q9 -37 19.5 -67.5t23.5 -52.5t29 -34.5t36 -12.5q35 0 51.5 23t16.5 55q0 37 -20.5 73.5t-57.5 59.5l-2 662h-91v10h347v-10h-91v-641q0 -69 -16.5 -116.5t-44 -77t-65 -43
t-79.5 -13.5z" />
    <glyph glyph-name="K" unicode="K" horiz-adv-x="846" 
d="M384 0h-348v10h91v738h-91v10h348v-10h-92v-335l394 335h-112v10h245v-10h-114l-409 -347h199l375 -401h-218l-360 385v-375h92v-10z" />
    <glyph glyph-name="L" unicode="L" horiz-adv-x="713" 
d="M477 10q18 0 27 4.5t18 15.5l185 231h6l-69 -261h-608v10h91v738h-91v10h348v-10h-92v-738h185z" />
    <glyph glyph-name="M" unicode="M" horiz-adv-x="1002" 
d="M13 10h97l37 606l-78 142h184l266 -478l183 478h246v-10h-98l44 -738h98v-10h-362v10h98l-41 675l-236 -616h-6l-288 527l-35 -586h96v-10h-205v10z" />
    <glyph glyph-name="N" unicode="N" horiz-adv-x="850" 
d="M51 10h97v595l-137 151v2h207l498 -532v522h-96v10h205v-10h-97v-779h-3l-565 623v-582h96v-10h-205v10z" />
    <glyph glyph-name="O" unicode="O" horiz-adv-x="927" 
d="M464 -13q-80 0 -156.5 26.5t-136.5 77.5t-96.5 124.5t-36.5 167.5t36.5 167.5t96.5 124.5t136.5 77.5t156.5 26.5t156.5 -26.5t136 -77.5t96 -124.5t36.5 -167.5t-36.5 -167.5t-96 -124.5t-136 -77.5t-156.5 -26.5zM511 1q41 0 79 16t67.5 49t47.5 83.5t18 119.5
q0 50 -9.5 106t-27.5 111t-44.5 105.5t-60.5 89t-75.5 61.5t-89.5 23q-41 0 -79 -16t-67.5 -49t-47.5 -83.5t-18 -119.5q0 -50 9.5 -106t27.5 -111t44.5 -105.5t60.5 -89t75.5 -61.5t89.5 -23z" />
    <glyph glyph-name="P" unicode="P" horiz-adv-x="756" 
d="M36 10h91v738h-91v10h365q72 0 135 -8.5t110.5 -31t74.5 -61t27 -99.5q0 -54 -25 -94.5t-70 -66.5t-107.5 -39t-137.5 -13h-85v10h84q39 0 69.5 14.5t51.5 40t31.5 61.5t10.5 80q0 43 -10.5 79.5t-31.5 62.5t-51.5 40.5t-69.5 14.5h-115v-738h116v-10h-372v10z" />
    <glyph glyph-name="Q" unicode="Q" horiz-adv-x="927" 
d="M464 -13q-80 0 -156.5 26.5t-136.5 77.5t-96.5 124.5t-36.5 167.5t36.5 167.5t96.5 124.5t136.5 77.5t156.5 26.5t156.5 -26.5t136 -77.5t96 -124.5t36.5 -167.5q0 -67 -19 -123.5t-52 -102t-77.5 -79.5t-96.5 -55l134 -166l-9 -8l-137 169q-82 -31 -168 -31zM511 1
q29 0 56.5 7.5t52.5 24.5l-125 156l9 8l126 -157q41 32 67 88t26 141q0 50 -9.5 106t-27.5 111t-44.5 105.5t-60.5 89t-75.5 61.5t-89.5 23q-41 0 -79 -16t-67.5 -49t-47.5 -83.5t-18 -119.5q0 -50 9.5 -106t27.5 -111t44.5 -105.5t60.5 -89t75.5 -61.5t89.5 -23z" />
    <glyph glyph-name="R" unicode="R" horiz-adv-x="802" 
d="M36 10h91v738h-91v10h316q79 0 142.5 -9t108 -30t68 -55.5t23.5 -85.5q0 -41 -18.5 -72.5t-53 -54t-83.5 -36.5t-109 -20v-2q36 -4 64.5 -17t52.5 -32.5t45 -44t43 -51.5l199 -248h-202l-299 381h-41v-371h102v-10h-358v10zM346 391q45 0 77.5 13t53 36.5t30 56.5t9.5 73
q0 39 -9.5 72t-30 56.5t-53 36.5t-77.5 13h-54v-357h54z" />
    <glyph glyph-name="S" unicode="S" horiz-adv-x="655" 
d="M323 -13q-53 0 -101.5 13.5t-74.5 33.5l-45 -44h-6l-38 299h6q25 -80 53.5 -135.5t60.5 -90.5t68.5 -51t78.5 -16q78 0 124.5 38.5t46.5 102.5q0 34 -11.5 59t-33 43.5t-52.5 32.5t-69 25l-67 20q-99 29 -151 92.5t-52 149.5q0 54 22.5 95t59 69t82.5 42t93 14
q45 0 89.5 -12.5t71.5 -35.5l43 45h6l37 -280h-6q-26 78 -53 130.5t-57 84.5t-63 45.5t-71 13.5q-30 0 -56 -8.5t-45.5 -25t-30.5 -40t-11 -53.5q0 -60 36 -95.5t102 -56.5l66 -21q51 -17 94.5 -38t75 -50t49 -67.5t17.5 -89.5q0 -55 -24.5 -99t-65 -75t-92 -47.5
t-106.5 -16.5z" />
    <glyph glyph-name="T" unicode="T" horiz-adv-x="797" 
d="M210 10h106v738h-148q-17 0 -23.5 -3.5t-13.5 -17.5l-113 -235h-6l37 316h7l90 -50h506l90 50h6l38 -316h-6l-114 235q-7 14 -13.5 17.5t-23.5 3.5h-148v-738h106v-10h-377v10z" />
    <glyph glyph-name="U" unicode="U" horiz-adv-x="844" 
d="M428 -13q-75 0 -134.5 17t-101 54t-63.5 93.5t-22 136.5v460h-91v10h347v-10h-91v-442q0 -135 53 -201t169 -66q50 0 92 13t72.5 43t47.5 79t17 121v453h-97v10h207v-10h-98v-453q0 -150 -73.5 -229t-233.5 -79z" />
    <glyph glyph-name="V" unicode="V" horiz-adv-x="757" 
d="M382 -14h-6l-331 762h-83v10h350v-10h-88l234 -556l240 556h-91v10h188v-10h-83z" />
    <glyph glyph-name="W" unicode="W" horiz-adv-x="1157" 
d="M588 461l-206 -475h-6l-331 762h-83v10h258l238 -566l123 287l-111 279h300v-10h-117l206 -554l239 554h-91v10h188v-10h-83l-330 -762h-6z" />
    <glyph glyph-name="X" unicode="X" horiz-adv-x="849" 
d="M206 0h-209v10h93l272 329l-278 409h-93v10h386v-10h-93l188 -277l229 277h-95v10h209v-10h-98l-238 -287l306 -451h93v-10h-385v10h93l-216 318l-264 -318h100v-10z" />
    <glyph glyph-name="Y" unicode="Y" horiz-adv-x="793" 
d="M220 10h97v366l-254 372h-93v10h373v-10h-93l233 -346l235 346h-94v10h193v-10h-84l-252 -371v-367h97v-10h-358v10z" />
    <glyph glyph-name="Z" unicode="Z" horiz-adv-x="764" 
d="M537 748h-258q-19 0 -28 -3.5t-18 -15.5l-171 -216h-10l98 295h9l80 -50h491l-543 -748h306q20 0 28 3t19 17l189 231h9l-74 -261h-671z" />
    <glyph glyph-name="bracketleft" unicode="[" horiz-adv-x="328" 
d="M207 -191q0 -21 3 -33t10.5 -18t20 -8t32.5 -2l48 -1v-10h-229v1055h229v-10l-48 -1q-20 0 -32.5 -2t-20 -8t-10.5 -18t-3 -33v-911z" />
    <glyph glyph-name="backslash" unicode="\" horiz-adv-x="470" 
d="M367 -52l-344 828h82l343 -828h-81z" />
    <glyph glyph-name="bracketright" unicode="]" horiz-adv-x="328" 
d="M135 720q0 21 -3 33t-10.5 18t-20 8t-32.5 2l-48 1v10h229v-1055h-229v10l48 1q20 0 32.5 2t20 8t10.5 18t3 33v911z" />
    <glyph glyph-name="asciicircum" unicode="^" horiz-adv-x="639" 
d="M285 758h68l206 -415h-77l-163 333l-163 -333h-77z" />
    <glyph glyph-name="underscore" unicode="_" horiz-adv-x="520" 
d="M-7 -78h534v-75h-534v75z" />
    <glyph glyph-name="grave" unicode="`" 
d="M91 579l-200 176v3h154l56 -179h-10z" />
    <glyph glyph-name="a" unicode="a" horiz-adv-x="549" 
d="M191 -13q-32 0 -60 10.5t-49 28.5t-33.5 42.5t-12.5 53.5q0 35 15.5 56.5t41 36.5t58.5 27.5t69 30.5q24 12 43 25t33 25q17 14 24.5 30t7.5 42q0 49 -22.5 78t-57.5 29q-18 0 -35 -7t-28 -25.5t-14 -50.5t6 -82q-10 -14 -29.5 -20.5t-34.5 -6.5q-32 0 -55 13t-23 39
q0 30 26 52.5t56 40.5l42 24t44.5 21.5t50.5 15t60 5.5q32 0 61 -6t51 -23.5t35 -48.5t13 -81v-352h71v-10h-208l-10 94q-14 -54 -51.5 -80.5t-84.5 -26.5zM263 42q25 0 43 24.5t19 69.5l3 205q-7 -8 -15.5 -15.5t-17.5 -15.5q-19 -15 -37.5 -30t-33.5 -32t-24.5 -36.5
t-9.5 -43.5q0 -25 5.5 -48t15 -40t23 -27.5t29.5 -10.5z" />
    <glyph glyph-name="b" unicode="b" horiz-adv-x="616" 
d="M218 417q17 43 56.5 72t91.5 29q39 0 78 -17t70 -51t50 -83.5t19 -113.5q0 -62 -19 -111.5t-50.5 -84t-72 -52.5t-82.5 -18q-48 0 -86.5 25t-54.5 67v-79h-148v748h-71v10h219v-341zM300 32q21 0 41 11.5t36 37.5t26 66.5t10 99.5q0 114 -34 167.5t-82 53.5
q-23 0 -47.5 -20.5t-31.5 -59.5v-280q7 -35 31 -55.5t51 -20.5z" />
    <glyph glyph-name="c" unicode="c" horiz-adv-x="548" 
d="M287 -13q-56 0 -102.5 18.5t-80.5 53t-53 83.5t-19 109q0 62 23.5 111.5t62.5 84t90 53t107 18.5q34 0 66 -8t56.5 -22t39 -35t14.5 -46q0 -37 -33 -56t-87 -11q-2 85 -30 124t-73 39q-50 0 -78.5 -46.5t-28.5 -123.5q0 -49 12 -92.5t36 -76.5t59.5 -52.5t82.5 -19.5
q23 0 48 6t48.5 22.5t42 46t29.5 76.5h9q-7 -71 -28 -120t-53 -79t-73 -43.5t-87 -13.5z" />
    <glyph glyph-name="d" unicode="d" horiz-adv-x="626" 
d="M399 748h-96v10h244v-748h71v-10h-219v88q-17 -43 -56.5 -72t-91.5 -29q-39 0 -78 17t-70 51t-50 83t-19 114q0 62 19 111.5t50.5 84t72 52.5t82.5 18q48 0 86.5 -25t54.5 -67v322zM317 473q-21 0 -41 -11.5t-36 -37.5t-26 -67t-10 -99q0 -114 34 -167.5t82 -53.5
q23 0 47.5 21t31.5 59v280q-7 37 -31 56.5t-51 19.5z" />
    <glyph glyph-name="e" unicode="e" horiz-adv-x="569" 
d="M293 -13q-54 0 -102 18t-83 51.5t-55.5 82.5t-20.5 111q0 58 21.5 107t57.5 85t82 56t96 20q35 0 71 -8t67.5 -26.5t56 -50.5t37.5 -80h-359q-1 -6 -1 -12v-13q0 -52 13.5 -95t38 -74.5t60 -49t80.5 -17.5q25 0 53 6t53.5 23t46 46t30.5 76h8q-7 -71 -29 -120t-55.5 -79
t-76 -43.5t-90.5 -13.5zM280 508q-46 0 -78 -35.5t-39 -108.5h121q48 0 65 13t17 44q0 13 -5 28.5t-15.5 28.5t-27 21.5t-38.5 8.5z" />
    <glyph glyph-name="f" unicode="f" horiz-adv-x="411" 
d="M22 10h71v414h-76v10q32 7 52.5 22t34 35t21.5 44t16 50q15 52 41.5 88.5t59 60t66 34.5t62.5 11q33 0 57.5 -16.5t24.5 -49.5q0 -28 -15.5 -50t-30.5 -27q-56 6 -111.5 11t-107.5 7q-10 -8 -21.5 -29.5t-11.5 -49.5q0 -32 22.5 -52.5t76.5 -20.5h199l-55 -78h-156v-414
h101v-10h-320v10z" />
    <glyph glyph-name="g" unicode="g" horiz-adv-x="591" 
d="M266 163q-26 0 -49 3.5t-43 9.5l-59 -70l225 -26q53 -6 96 -14.5t73 -22.5t46.5 -36t16.5 -55q0 -42 -30.5 -80.5t-80 -68.5t-111.5 -47.5t-124 -17.5q-43 0 -81.5 7.5t-68 22t-47 34.5t-17.5 45q0 41 53.5 69.5t144.5 34.5q-11 2 -38.5 12t-57.5 21.5t-55 22t-31 14.5
l135 159q-58 20 -89.5 62.5t-31.5 96.5q0 37 15.5 69.5t44.5 57t71 38.5t95 14q51 0 91.5 -13t69.5 -36l46 89h160l-49 -95h-149q27 -23 41 -54.5t14 -66.5q0 -37 -15.5 -69.5t-44.5 -57t-71 -38.5t-95 -14zM293 173q24 0 45.5 21.5t21.5 71.5q0 35 -9 77t-25.5 79
t-38.5 61.5t-47 24.5q-24 0 -45 -21.5t-21 -72.5q0 -35 9 -76.5t25 -78.5t37.5 -61.5t47.5 -24.5zM246 -249q37 0 77.5 9t74.5 25.5t56.5 40t22.5 52.5q0 21 -14.5 35t-40 23t-59.5 13t-74 4q-83 0 -129.5 -30t-46.5 -74q0 -15 7.5 -32.5t23.5 -32t41 -24t61 -9.5z" />
    <glyph glyph-name="h" unicode="h" horiz-adv-x="613" 
d="M9 10h71v738h-71v10h218v-348q15 56 57 82t98 26q72 0 114 -45t42 -141v-322h71v-10h-280v10h61v323q0 74 -20.5 105.5t-58.5 31.5q-42 0 -63 -32.5t-21 -104.5v-323h61v-10h-279v10z" />
    <glyph glyph-name="i" unicode="i" horiz-adv-x="319" 
d="M239 10h71v-10h-290v10h71v368l-71 49v4l219 94v-515zM162 606q-38 0 -64.5 26.5t-26.5 64.5q0 19 7 35.5t19.5 28.5t29 19t35.5 7q38 0 64.5 -26t26.5 -64q0 -19 -7 -35.5t-19.5 -29t-29 -19.5t-35.5 -7z" />
    <glyph glyph-name="j" unicode="j" horiz-adv-x="298" 
d="M229 49q0 -39 -8 -68.5t-22.5 -53.5t-34 -43.5t-42.5 -37.5q-13 -11 -31 -24t-38.5 -27.5t-42.5 -29.5t-43 -28l-5 7q35 29 58 54.5t36.5 56t19 70.5t5.5 97v356l-71 49v4l219 94v-476zM152 606q-38 0 -64.5 26.5t-26.5 64.5q0 19 7 35.5t19.5 28.5t29 19t35.5 7
q38 0 64.5 -26t26.5 -64q0 -19 -7 -35.5t-19.5 -29t-29 -19.5t-35.5 -7z" />
    <glyph glyph-name="k" unicode="k" horiz-adv-x="595" 
d="M66 748h-71v10h219v-456l177 200h175l-87 -98h-161l-102 -115h166l230 -289h-181l-217 274v-274h-148v748z" />
    <glyph glyph-name="l" unicode="l" horiz-adv-x="307" 
d="M9 10h71v738h-71v10h218v-748h71v-10h-289v10z" />
    <glyph glyph-name="m" unicode="m" horiz-adv-x="935" 
d="M300 0h-280v10h71v368l-71 49v4l219 94v-115q14 56 56.5 82t98.5 26q60 0 99 -30t52 -93q6 33 21 56.5t36.5 38.5t47.5 21.5t54 6.5q72 0 114 -45t42 -141v-322h71v-10h-280v10h61v323q0 74 -20.5 105.5t-58.5 31.5q-42 0 -62.5 -32.5t-20.5 -104.5v-323h61v-10h-270v10
h61v323q0 74 -21 105.5t-58 31.5q-42 0 -63 -32.5t-21 -104.5v-323h61v-10z" />
    <glyph glyph-name="n" unicode="n" horiz-adv-x="624" 
d="M20 10h71v368l-71 49v4l219 94v-115q14 56 56.5 82t98.5 26q72 0 114 -45t42 -141v-322h71v-10h-280v10h61v323q0 74 -21 105.5t-58 31.5q-42 0 -63 -32.5t-21 -104.5v-323h61v-10h-280v10z" />
    <glyph glyph-name="o" unicode="o" horiz-adv-x="609" 
d="M304 -13q-64 0 -114.5 21.5t-86 58.5t-54 85t-18.5 102t19 102t55 84t86.5 57t113.5 21q64 0 114.5 -22t86 -58.5t54 -85t18.5 -102.5t-19 -102t-55 -84t-86.5 -56.5t-113.5 -20.5zM346 0q16 0 32 6t28.5 20.5t20 38.5t7.5 61q0 29 -7 69.5t-21 93.5q-13 49 -28 88.5
t-32 67.5t-37.5 43.5t-45.5 15.5q-16 0 -32 -6t-28.5 -20t-20 -38.5t-7.5 -61.5q0 -55 29 -162q13 -49 27.5 -89t32 -68t37.5 -43.5t45 -15.5z" />
    <glyph glyph-name="p" unicode="p" horiz-adv-x="627" 
d="M10 -238h71v616l-71 49v4l219 94v-108q17 43 56.5 72t91.5 29q39 0 78 -17t70 -51t50 -83.5t19 -113.5q0 -62 -19 -111.5t-50.5 -84t-72 -52.5t-82.5 -18q-48 0 -86.5 25t-54.5 67v-317h95v-10h-314v10zM311 32q21 0 41 11.5t36 37.5t26 66.5t10 99.5q0 114 -34 167.5
t-82 53.5q-23 0 -47.5 -20.5t-31.5 -59.5v-280q7 -35 31 -55.5t51 -20.5z" />
    <glyph glyph-name="q" unicode="q" horiz-adv-x="616" 
d="M399 88q-17 -43 -56.5 -72t-91.5 -29q-39 0 -78 17t-70 51t-50 83t-19 114q0 62 19 111.5t50.5 84t72 52.5t82.5 18q48 0 86.5 -25t54.5 -67v76h148v-740h71v-10h-315v10h96v326zM317 473q-21 0 -41 -11.5t-36 -37.5t-26 -67t-10 -99q0 -114 34 -167.5t82 -53.5
q23 0 47.5 21t31.5 59v280q-7 37 -31 56.5t-51 19.5z" />
    <glyph glyph-name="r" unicode="r" horiz-adv-x="451" 
d="M335 0h-315v10h71v368l-71 49v4l219 94v-151q25 70 58.5 106.5t71.5 36.5q34 0 54.5 -22t20.5 -58q0 -38 -17.5 -61.5t-40.5 -28.5l-116 61q-2 -2 -7 -8t-10.5 -14t-9.5 -17t-4 -18v-341h96v-10z" />
    <glyph glyph-name="s" unicode="s" horiz-adv-x="480" 
d="M222 -13q-37 0 -76 4.5t-77 14.5l-24 205h6l133 -196q8 -12 19 -15t30 -3q24 0 46 5.5t39 16.5t27 27.5t10 38.5q0 38 -26 60.5t-75 34.5l-62 15q-75 18 -111.5 62t-36.5 100q0 39 17 69t46 50.5t67 31t81 10.5q34 0 69.5 -5.5t70.5 -16.5l25 -176h-7l-134 173
q-6 8 -17 10.5t-28 2.5q-18 0 -36 -3.5t-33 -12t-24 -23t-9 -36.5q0 -34 23 -57.5t67 -34.5l59 -14q167 -40 167 -168q0 -39 -16.5 -70.5t-46.5 -53.5t-71.5 -34t-91.5 -12z" />
    <glyph glyph-name="t" unicode="t" horiz-adv-x="420" 
d="M247 149q0 -56 23.5 -77t57.5 -21q23 0 48.5 7.5t43.5 21.5l4 -6q-15 -17 -35 -32t-44 -26.5t-51 -18.5t-56 -7q-26 0 -51 5t-44.5 19t-31.5 39.5t-12 67.5v303h-102v5l245 193h5v-120h199l-54 -78h-145v-275z" />
    <glyph glyph-name="u" unicode="u" horiz-adv-x="601" 
d="M228 -13q-70 0 -111.5 45t-41.5 141v319h-71v10h219v-330q0 -75 20 -106t53 -31q38 0 57.5 32.5t19.5 104.5v320h-66v10h214v-492h71v-10h-219v90q-11 -47 -49 -75t-96 -28z" />
    <glyph glyph-name="v" unicode="v" horiz-adv-x="550" 
d="M39 492h-64v10h290v-10h-65l148 -329l152 329h-114v10h194v-10h-67l-235 -507h-8z" />
    <glyph glyph-name="w" unicode="w" horiz-adv-x="859" 
d="M39 492h-64v10h221l152 -339l78 168l-76 171h230v-10h-65l143 -329l152 329h-115v10h195v-10h-67l-235 -507h-8l-148 333l-154 -333h-8z" />
    <glyph glyph-name="x" unicode="x" horiz-adv-x="579" 
d="M176 10v-10h-180v10h72l171 199l-181 283h-62v10h292v-10h-66l111 -174l150 174h-93v10h180v-10h-72l-158 -184l191 -298h62v-10h-292v10h66l-121 189l-163 -189h93z" />
    <glyph glyph-name="y" unicode="y" horiz-adv-x="551" 
d="M115 -256q-29 0 -47.5 18.5t-18.5 46.5q0 18 10.5 36t33 32t56.5 21.5t82 4.5l39 85l-231 504h-63v10h289v-10h-65l150 -330l151 330h-115v10h194v-10h-66l-292 -636q-13 -29 -24 -50t-23 -34.5t-26.5 -20.5t-33.5 -7z" />
    <glyph glyph-name="z" unicode="z" horiz-adv-x="560" 
d="M354 492h-135q-11 0 -15.5 -2.5t-10.5 -10.5l-153 -212h-6l80 290h6l80 -55h327l-332 -492h133q15 0 22.5 4.5t17.5 16.5l158 207h7l-54 -238h-457z" />
    <glyph glyph-name="braceleft" unicode="{" horiz-adv-x="353" 
d="M334 -263q-60 7 -109.5 26t-83 50.5t-48.5 75.5t-5 102l16 93q9 51 8.5 83t-11 51.5t-32.5 28t-57 12.5v11q35 4 57 12.5t32.5 28t11 51.5t-8.5 83l-16 93q-10 58 5 102t48.5 75.5t83 50.5t109.5 26l2 -10q-39 -6 -64 -19t-37 -36t-11 -58t14 -85l18 -71q17 -66 3 -111.5
t-47.5 -74.5t-80.5 -43t-95 -18v-3q48 -4 95 -18t80.5 -43t47.5 -74.5t-3 -111.5l-18 -71q-13 -50 -14 -85t11 -58t37 -36t64 -19z" />
    <glyph glyph-name="bar" unicode="|" horiz-adv-x="258" 
d="M92 780h74v-1028h-74v1028z" />
    <glyph glyph-name="braceright" unicode="}" horiz-adv-x="353" 
d="M33 792q60 -7 109.5 -26t83 -50.5t48.5 -75.5t5 -102l-16 -93q-9 -51 -8.5 -83t11 -51.5t32.5 -28t57 -12.5v-11q-35 -4 -57 -12.5t-32.5 -28t-11 -51.5t8.5 -83l16 -93q10 -58 -5 -102t-48.5 -75.5t-83 -50.5t-109.5 -26l-2 10q39 6 64 19t37 36t11 58t-14 85l-18 71
q-17 66 -3 111.5t47.5 74.5t80.5 43t95 18v3q-48 4 -95 18t-80.5 43t-47.5 74.5t3 111.5l18 71q13 50 14 85t-11 58t-37 36t-64 19z" />
    <glyph glyph-name="asciitilde" unicode="~" horiz-adv-x="639" 
d="M199 345q42 0 75 -12.5t62 -28t54.5 -28t52.5 -12.5q33 0 55 17t24 59h73q-5 -66 -45 -105.5t-108 -39.5q-36 0 -67 13t-60.5 28t-58 28t-58.5 13q-32 0 -54 -17t-24 -60h-74q5 66 45.5 105.5t107.5 39.5z" />
    <glyph glyph-name="uni00A0" unicode="&#xa0;" horiz-adv-x="250" 
 />
    <glyph glyph-name="exclamdown" unicode="&#xa1;" horiz-adv-x="286" 
d="M148 269v-31q0 -72 9.5 -132.5t25 -108.5t35 -83.5t38.5 -58.5q-6 -20 -18 -40.5t-27 -39.5t-32.5 -34.5t-35.5 -24.5q-18 9 -36 24.5t-33 34.5t-27 39.5t-18 40.5q19 23 38.5 58.5t35 83.5t25.5 108.5t10 132.5v31h10zM141 518q43 0 71.5 -28.5t28.5 -71.5
q0 -20 -7.5 -37t-21 -30.5t-32 -21t-39.5 -7.5q-20 0 -37 7.5t-30.5 21t-21 30.5t-7.5 37q0 21 7.5 39.5t21 32t30.5 21t37 7.5z" />
    <glyph glyph-name="cent" unicode="&#xa2;" horiz-adv-x="567" 
d="M285 -13q-54 1 -99 20.5t-78 54t-51 82.5t-18 107q0 57 19.5 103.5t53.5 80t78.5 54.5t94.5 27v94h12v-93q6 0 12 0.5t13 0.5q34 0 66 -8t56.5 -22t39 -35t14.5 -46q0 -37 -33 -56t-87 -11q-2 74 -24 113t-57 47v-398q26 -10 61 -10q23 0 48 6t48.5 22.5t42 46t29.5 76.5
h9q-7 -71 -28 -119.5t-52.5 -79t-71.5 -44t-86 -13.5v-101h-12v101zM168 333q0 -77 29.5 -138.5t87.5 -87.5v395q-4 1 -10 1q-50 0 -78.5 -46.5t-28.5 -123.5z" />
    <glyph glyph-name="sterling" unicode="&#xa3;" horiz-adv-x="676" 
d="M27 4l120 103q65 56 93 90t28 63q0 50 -42 104h-161l7 10h146q-3 4 -6 7.5t-7 7.5l-49 53q-21 23 -37 49t-16 55q0 39 31 76.5t97 81.5q58 39 112.5 57t113.5 18q61 0 93 -22t32 -54q0 -16 -7 -30.5t-19 -25.5t-27 -17.5t-31 -6.5q-15 13 -35 27.5t-42 29t-42.5 26
t-36.5 18.5q-19 8 -29.5 8.5t-24.5 -6.5q-9 -4 -18.5 -9.5t-17.5 -10.5q-16 -10 -27 -21.5t-11 -23.5q0 -19 20.5 -48t58.5 -70l41 -45q29 -33 48 -62.5t21 -61.5h170l-6 -10h-164q-1 -19 -9 -37t-26 -38.5t-45.5 -45.5t-67.5 -56l-66 -52h455l-53 -135h-564v4z" />
    <glyph glyph-name="yen" unicode="&#xa5;" horiz-adv-x="865" 
d="M267 10h97v236h-178v10h178v115h-178v10h174l-250 367h-93v10h359v-10h-93l230 -346l235 346h-92v10h191v-10h-84l-249 -367h175v-10h-178v-115h178v-10h-178v-236h97v-10h-341v10z" />
    <glyph glyph-name="brokenbar" unicode="&#xa6;" horiz-adv-x="258" 
d="M92 780h74v-394h-74v394zM92 146h74v-394h-74v394z" />
    <glyph glyph-name="section" unicode="&#xa7;" horiz-adv-x="652" 
d="M428 -75q0 27 -12 54t-34.5 57t-55 64.5t-74.5 77.5l-72 74q-32 33 -57 63.5t-42.5 62t-26.5 64.5t-9 72q0 56 25 104.5t69 84t102.5 56t126.5 20.5q51 0 91 -9.5t67.5 -25.5t42.5 -38.5t15 -47.5q0 -36 -30.5 -57.5t-88.5 -13.5q-2 81 -33.5 131t-93.5 50
q-23 0 -42.5 -8t-34.5 -22t-23.5 -34.5t-8.5 -45.5q0 -26 10.5 -52.5t30 -54.5t47.5 -59.5t64 -67.5l72 -74q36 -38 65.5 -71.5t50.5 -66.5t32 -68t11 -74q0 -57 -25.5 -105t-69.5 -83t-104 -54.5t-130 -19.5q-50 0 -91.5 10.5t-71.5 29t-46.5 42.5t-16.5 51q0 38 35 60.5
t92 14.5q1 -43 10 -79t25 -62.5t39.5 -41t54.5 -14.5q24 0 44.5 7.5t36.5 21t25 33.5t9 44zM474 -26q0 -50 -21 -83t-58 -57q84 26 122 77t38 126q0 36 -12 69t-33.5 66.5t-51.5 67.5t-66 71l-77 78q-39 39 -64 71.5t-40 59.5t-21 50t-6 43q0 45 19 78.5t53 57.5
q-84 -29 -119.5 -80.5t-35.5 -119.5q0 -63 34.5 -124.5t106.5 -134.5l76 -77q39 -39 68 -71t48.5 -60t29.5 -54t10 -54z" />
    <glyph glyph-name="dieresis" unicode="&#xa8;" 
d="M119 614q-32 0 -52.5 21t-20.5 52q0 32 20.5 53t52.5 21t52.5 -21t20.5 -53q0 -31 -20.5 -52t-52.5 -21zM-118 614q-32 0 -52.5 20.5t-20.5 51.5q0 32 20.5 53t52.5 21t52 -21t20 -53q0 -31 -20 -51.5t-52 -20.5z" />
    <glyph glyph-name="copyright" unicode="&#xa9;" horiz-adv-x="871" 
d="M39 382q0 88 30.5 161t84 125.5t126 81.5t156.5 29q82 0 154 -29t125.5 -81.5t84.5 -125.5t31 -161t-31 -160.5t-84.5 -124.5t-125.5 -81t-154 -29q-84 0 -156.5 29t-126 81t-84 124.5t-30.5 160.5zM75 382q0 -82 27.5 -149.5t76 -115.5t114.5 -74.5t143 -26.5
q78 0 143.5 26.5t113.5 74.5t75 115.5t27 149.5q0 83 -27 150.5t-75 115.5t-113.5 74.5t-143.5 26.5q-77 0 -143 -26.5t-114.5 -74.5t-76 -115.5t-27.5 -150.5zM463 172q27 0 50.5 8t45 27.5t41.5 51.5t39 81h6l-28 -175h-3l-30 33q-22 -18 -58 -26t-68 -8
q-58 0 -106.5 16.5t-83.5 46t-54.5 70.5t-19.5 91q0 48 19 89.5t53.5 71.5t83 47t107.5 17q32 0 68 -8.5t59 -26.5l28 33h4l28 -175h-6q-19 48 -38.5 80.5t-41 52t-45 27.5t-50.5 8q-24 0 -48.5 -9t-45 -31.5t-33 -60t-12.5 -94.5q0 -49 8.5 -92t25.5 -75.5t43.5 -51
t61.5 -18.5z" />
    <glyph glyph-name="ordfeminine" unicode="&#xaa;" horiz-adv-x="492" 
d="M169 348q-26 0 -48 8.5t-39 23t-26.5 34.5t-9.5 43q0 29 12.5 46.5t33 29.5t47 22t55.5 25q19 9 34.5 19.5t26.5 20.5q13 11 19 24t6 34q0 38 -16.5 61.5t-45.5 23.5q-14 0 -27.5 -5.5t-22.5 -20t-11.5 -40.5t5.5 -66q-8 -11 -24.5 -17t-28.5 -6q-26 0 -45 11t-19 31
q0 25 22 43.5t46 32.5q16 10 33 19.5t36 17t41 12t49 4.5q26 0 49.5 -5t41.5 -19t28 -39t10 -65l-1 -283h57v-10h-169l-8 76q-11 -44 -42 -65t-69 -21zM230 393q19 0 33 20t15 55l2 165q-9 -11 -26 -24q-15 -12 -29.5 -24t-25.5 -25.5t-18 -29.5t-7 -35q0 -20 4 -38.5
t11 -32.5t17.5 -22.5t23.5 -8.5z" />
    <glyph glyph-name="guillemotleft" unicode="&#xab;" horiz-adv-x="538" 
d="M274 483l8 -5l-107 -227l107 -227l-8 -5l-240 232zM484 483l8 -5l-107 -227l107 -227l-8 -5l-240 232z" />
    <glyph glyph-name="uni00AD" unicode="&#xad;" horiz-adv-x="411" 
d="M58 303h294v-86h-294v86z" />
    <glyph glyph-name="registered" unicode="&#xae;" horiz-adv-x="871" 
d="M39 382q0 88 30.5 161t84 125.5t126 81.5t156.5 29q82 0 154 -29t125.5 -81.5t84.5 -125.5t31 -161t-31 -160.5t-84.5 -124.5t-125.5 -81t-154 -29q-84 0 -156.5 29t-126 81t-84 124.5t-30.5 160.5zM75 382q0 -82 27.5 -149.5t76 -115.5t114.5 -74.5t143 -26.5
q78 0 143.5 26.5t113.5 74.5t75 115.5t27 149.5q0 83 -27 150.5t-75 115.5t-113.5 74.5t-143.5 26.5q-77 0 -143 -26.5t-114.5 -74.5t-76 -115.5t-27.5 -150.5zM221 189h50v412h-50v9h183q99 0 155 -21.5t56 -80.5q0 -48 -44 -72t-117 -29v-3q28 -1 48 -8.5t35.5 -20
t28.5 -28t26 -33.5l99 -134h-134l-154 216h-20v-207h52v-9h-214v9zM407 404q50 0 70.5 26.5t20.5 72.5t-20.5 72t-70.5 26h-24v-197h24z" />
    <glyph glyph-name="macron" unicode="&#xaf;" 
d="M-157 705h314v-64h-314v64z" />
    <glyph glyph-name="degree" unicode="&#xb0;" horiz-adv-x="410" 
d="M205 441q-36 0 -67 13t-54 36t-36 54t-13 66t13 66t36 54t54 36t67 13t67 -13t54 -36t36 -54t13 -66t-13 -66t-36 -54t-54 -36t-67 -13zM205 495q22 0 42 8.5t35 23.5t23.5 36t8.5 47t-8.5 47t-23.5 36t-35 23.5t-42 8.5t-42 -8.5t-35 -23.5t-23.5 -36t-8.5 -47t8.5 -47
t23.5 -36t35 -23.5t42 -8.5z" />
    <glyph glyph-name="plusminus" unicode="&#xb1;" horiz-adv-x="639" 
d="M280 283h-209v75h209v158h79v-158h209v-75h-209v-163h-79v163zM71 74h497v-74h-497v74z" />
    <glyph glyph-name="uni00B2" unicode="&#xb2;" horiz-adv-x="345" 
d="M1 403q60 54 98.5 97t60.5 78t30.5 62.5t8.5 50.5q0 38 -19.5 60.5t-54.5 22.5q-26 0 -47 -12.5t-38 -47.5l-6 3q24 57 64 84.5t90 27.5q57 0 88.5 -29t31.5 -74q0 -29 -13 -54t-32.5 -46t-42 -39t-41.5 -33l-80 -64h227l-35 -89h-290v2z" />
    <glyph glyph-name="uni00B3" unicode="&#xb3;" horiz-adv-x="348" 
d="M141 394q-28 0 -51.5 6t-40 16.5t-26 24t-9.5 28.5q0 22 20 36t51 4q11 -21 25.5 -49.5t25.5 -44.5q6 -8 11 -10t12 -2q36 0 54.5 30t18.5 72q0 21 -6 40.5t-17.5 34.5t-28 24t-38.5 9q-12 0 -23 -4t-21 -8l-3 8l28 12q42 17 62.5 43t20.5 52t-18 42t-50 16
q-33 0 -56.5 -18.5t-28.5 -56.5h-7q4 60 38.5 95t100.5 35q42 0 73.5 -17t31.5 -52q0 -27 -23 -45.5t-65 -31.5v-1q60 -11 90.5 -46t30.5 -83q0 -31 -14.5 -59.5t-39 -50.5t-58 -35.5t-70.5 -13.5z" />
    <glyph glyph-name="acute" unicode="&#xb4;" 
d="M-49 758h154v-3l-200 -176h-10z" />
    <glyph glyph-name="paragraph" unicode="&#xb6;" horiz-adv-x="597" 
d="M305 289q-20 -3 -42 -3q-56 0 -100 16t-75 45.5t-47 70t-16 90.5q0 53 21.5 98.5t63.5 79.5t104 53t142 19h205v-10h-90v-808l-98 -77v442q-29 -9 -57 -15v-471l-11 -9v479z" />
    <glyph glyph-name="periodcentered" unicode="&#xb7;" horiz-adv-x="299" 
d="M147 164q-20 0 -37 7.5t-30.5 21t-21 32t-7.5 39.5q0 19 7.5 36.5t21 31t30.5 21t37 7.5q21 0 39.5 -7.5t32 -21t21 -31t7.5 -36.5q0 -43 -28.5 -71.5t-71.5 -28.5z" />
    <glyph glyph-name="cedilla" unicode="&#xb8;" 
d="M-34 -269q-20 0 -38 3.5t-32.5 10.5t-23 17t-8.5 23q0 18 15.5 28t36.5 2l41 -60q5 -8 9.5 -11t12.5 -3q26 0 42 11.5t16 28.5q0 14 -9.5 27t-26.5 24.5t-40 21.5t-50 18l115 128h12l-65 -74q54 -22 78.5 -43.5t24.5 -59.5q0 -17 -8 -33.5t-22.5 -29.5t-34.5 -21t-45 -8z
" />
    <glyph glyph-name="uni00B9" unicode="&#xb9;" horiz-adv-x="248" 
d="M30 409h52v342h-69v8q27 1 53 6.5t48 14t38.5 21t24.5 27.5h5v-419h41v-8h-193v8z" />
    <glyph glyph-name="ordmasculine" unicode="&#xba;" horiz-adv-x="508" 
d="M254 349q-52 0 -93 17.5t-69.5 47t-43.5 68.5t-15 83t15.5 82.5t44 67.5t69.5 46t92 17q52 0 93 -17.5t69.5 -47.5t43.5 -69t15 -82q0 -44 -15.5 -82.5t-44 -67.5t-69.5 -46t-92 -17zM293 362q16 1 28 11t19 31.5t7 55.5t-7 85q-7 46 -18 87t-26 71.5t-35 47.5t-45 14
q-17 -2 -29 -11.5t-19 -31t-7.5 -56t7.5 -84.5q7 -46 18 -87t26 -71t35 -47t46 -15z" />
    <glyph glyph-name="guillemotright" unicode="&#xbb;" horiz-adv-x="538" 
d="M308 251l-240 -232l-8 5l107 227l-107 227l8 5zM518 251l-240 -232l-8 5l107 227l-107 227l8 5z" />
    <glyph glyph-name="onequarter" unicode="&#xbc;" horiz-adv-x="786" 
d="M30 349h52v342h-69v8q27 1 53 6.5t48 14t38.5 21t24.5 27.5h5v-419h41v-8h-193v8zM617 758h65l-584 -758h-65zM593 0v99h-194v1l293 335h2v-260h74v-76h-74v-99h-101zM593 175v135l-116 -135h116z" />
    <glyph glyph-name="onehalf" unicode="&#xbd;" horiz-adv-x="795" 
d="M30 349h52v342h-69v8q27 1 53 6.5t48 14t38.5 21t24.5 27.5h5v-419h41v-8h-193v8zM617 758h65l-584 -758h-65zM451 2q60 54 98.5 97t60.5 78t30.5 62.5t8.5 50.5q0 38 -19.5 60.5t-54.5 22.5q-26 0 -47 -12.5t-38 -47.5l-6 3q24 57 64 84.5t90 27.5q57 0 88.5 -29
t31.5 -74q0 -29 -13 -54t-32.5 -46t-42 -39t-41.5 -33l-80 -64h227l-35 -89h-290v2z" />
    <glyph glyph-name="threequarters" unicode="&#xbe;" horiz-adv-x="865" 
d="M141 334q-28 0 -51.5 6t-40 16.5t-26 24t-9.5 28.5q0 22 20 36t51 4q11 -21 25.5 -49.5t25.5 -44.5q6 -8 11 -10t12 -2q36 0 54.5 30t18.5 72q0 21 -6 40.5t-17.5 34.5t-28 24t-38.5 9q-12 0 -23 -4t-21 -8l-3 8l28 12q42 17 62.5 43t20.5 52t-18 42t-50 16
q-33 0 -56.5 -18.5t-28.5 -56.5h-7q4 60 38.5 95t100.5 35q42 0 73.5 -17t31.5 -52q0 -27 -23 -45.5t-65 -31.5v-1q60 -11 90.5 -46t30.5 -83q0 -31 -14.5 -59.5t-39 -50.5t-58 -35.5t-70.5 -13.5zM696 758h65l-584 -758h-65zM673 0v99h-194v1l293 335h2v-260h74v-76h-74
v-99h-101zM673 175v135l-116 -135h116z" />
    <glyph glyph-name="questiondown" unicode="&#xbf;" horiz-adv-x="588" 
d="M301 -247q32 0 56.5 8t41 27t24.5 51.5t7 80.5q23 1 47 -3t44 -13t33 -23.5t13 -36.5t-18 -41.5t-48.5 -33.5t-71.5 -22.5t-87 -8.5q-71 0 -129 18t-99 50t-64 77.5t-23 99.5q0 34 9 63t30 51.5t55 37.5t84 21l130 15q23 3 31.5 9t8.5 29v60h8l21 -164q3 -28 -0.5 -44.5
t-14 -25.5t-29 -13.5t-44.5 -8.5l-106 -15q-69 -10 -101 -34t-32 -61q0 -31 20 -58t52.5 -47.5t72.5 -32.5t79 -12zM387 518q19 0 36.5 -7.5t31 -21t21 -32t7.5 -39.5q0 -20 -7.5 -37t-21 -30.5t-31 -21t-36.5 -7.5q-21 0 -39.5 7.5t-32 21t-21 30.5t-7.5 37q0 43 28.5 71.5
t71.5 28.5z" />
    <glyph glyph-name="Agrave" unicode="&#xc0;" horiz-adv-x="751" 
d="M442 10h88l-101 269h-265l-103 -269h92v-10h-188v10h83l243 637l-41 111h170l281 -748h83v-10h-342v10zM407 339l-109 291l-111 -291h220zM301 972l81 -129h-10l-252 126v3h181z" />
    <glyph glyph-name="Aacute" unicode="&#xc1;" horiz-adv-x="751" 
d="M442 10h88l-101 269h-265l-103 -269h92v-10h-188v10h83l243 637l-41 111h170l281 -748h83v-10h-342v10zM407 339l-109 291l-111 -291h220zM551 969l-252 -126h-10l82 129h180v-3z" />
    <glyph glyph-name="Acircumflex" unicode="&#xc2;" horiz-adv-x="751" 
d="M442 10h88l-101 269h-265l-103 -269h92v-10h-188v10h83l243 637l-41 111h170l281 -748h83v-10h-342v10zM407 339l-109 291l-111 -291h220zM324 986h58l142 -143h-10l-161 63l-161 -63h-10z" />
    <glyph glyph-name="Atilde" unicode="&#xc3;" horiz-adv-x="751" 
d="M442 10h88l-101 269h-265l-103 -269h92v-10h-188v10h83l243 637l-41 111h170l281 -748h83v-10h-342v10zM407 339l-109 291l-111 -291h220zM189 851q1 77 26.5 116t67.5 39q22 0 43 -10.5t41 -22.5t39 -22.5t38 -10.5q32 0 46.5 14.5t16.5 48.5h10q0 -48 -8.5 -77.5
t-21 -46t-28.5 -22.5t-32 -6q-26 0 -46.5 10t-39.5 22.5t-37.5 22.5t-40.5 10q-60 0 -64 -65h-10z" />
    <glyph glyph-name="Adieresis" unicode="&#xc4;" horiz-adv-x="751" 
d="M442 10h88l-101 269h-265l-103 -269h92v-10h-188v10h83l243 637l-41 111h170l281 -748h83v-10h-342v10zM407 339l-109 291l-111 -291h220zM239 851q-32 0 -52.5 21t-20.5 52q0 32 20.5 53t52.5 21t52.5 -21t20.5 -53q0 -31 -20.5 -52t-52.5 -21zM468 851q-32 0 -53 21
t-21 52q0 32 21 53t53 21q31 0 51.5 -21t20.5 -53q0 -31 -20.5 -52t-51.5 -21z" />
    <glyph glyph-name="Aring" unicode="&#xc5;" horiz-adv-x="751" 
d="M442 10h88l-101 269h-265l-103 -269h92v-10h-188v10h83l243 637l-41 111h170l281 -748h83v-10h-342v10zM407 339l-109 291l-111 -291h220zM242 964q0 22 9 42t24 34.5t35.5 23t43.5 8.5q22 0 42.5 -8.5t36 -23t24.5 -34.5t9 -42q0 -23 -9 -42.5t-24.5 -33.5t-36 -22.5
t-42.5 -8.5q-23 0 -43.5 8.5t-35.5 22.5t-24 33.5t-9 42.5zM417 964q0 29 -17 47.5t-46 18.5q-30 0 -47 -18.5t-17 -47.5t17 -47t47 -18q29 0 46 18t17 47z" />
    <glyph glyph-name="AE" unicode="&#xc6;" horiz-adv-x="1170" 
d="M440 10h91v269h-299l-176 -269h91v-10h-188v10h83l489 748h494l47 -235h-6l-162 204q-11 14 -19 17.5t-27 3.5h-162v-355h121q9 0 13.5 2.5t9.5 13.5l60 127h6v-297h-6l-60 127q-5 11 -9.5 14t-13.5 3h-121v-373h222q19 0 27.5 4.5t17.5 15.5l185 231h6l-69 -261h-645v10
zM531 339v396l-259 -396h259z" />
    <glyph glyph-name="Ccedilla" unicode="&#xc7;" horiz-adv-x="851" 
d="M488 -4q48 0 91 15t82 50.5t73.5 93t65.5 143.5h6l-52 -308h-6l-49 57q-20 -15 -45.5 -26t-54 -18.5t-59 -11.5t-58.5 -4q-97 0 -178.5 28.5t-140.5 81t-92 125t-33 161.5q0 84 31 156.5t89 125.5t139.5 83.5t182.5 30.5q28 0 58 -4t58.5 -11.5t54 -18.5t45.5 -26l50 57
h6l52 -308h-6q-31 85 -66 143t-74 93.5t-82 50.5t-91 15q-45 0 -91.5 -18t-84.5 -59.5t-62.5 -109t-24.5 -166.5q0 -86 17.5 -162.5t51.5 -134t83.5 -91t113.5 -33.5zM416 -271q-20 0 -38 3.5t-32.5 10.5t-23 17t-8.5 23q0 18 15.5 28t36.5 2l41 -60q5 -8 9.5 -11t12.5 -3
q26 0 42 11.5t16 28.5q0 14 -9.5 27t-26.5 24.5t-40 21.5t-50 18l113 126h12l-63 -72q54 -22 78.5 -43.5t24.5 -59.5q0 -17 -8 -33.5t-22.5 -29.5t-34.5 -21t-45 -8z" />
    <glyph glyph-name="Egrave" unicode="&#xc8;" horiz-adv-x="767" 
d="M36 10h91v738h-91v10h585l47 -235h-6l-162 204q-11 14 -19 17.5t-27 3.5h-162v-355h121q10 0 14.5 2.5t9.5 13.5l59 127h6v-297h-6l-59 127q-5 11 -9.5 14t-14.5 3h-121v-373h222q19 0 28 4t18 16l184 231h6l-69 -261h-645v10zM334 972l81 -129h-10l-252 126v3h181z" />
    <glyph glyph-name="Eacute" unicode="&#xc9;" horiz-adv-x="767" 
d="M36 10h91v738h-91v10h585l47 -235h-6l-162 204q-11 14 -19 17.5t-27 3.5h-162v-355h121q10 0 14.5 2.5t9.5 13.5l59 127h6v-297h-6l-59 127q-5 11 -9.5 14t-14.5 3h-121v-373h222q19 0 28 4t18 16l184 231h6l-69 -261h-645v10zM584 969l-252 -126h-10l82 129h180v-3z" />
    <glyph glyph-name="Ecircumflex" unicode="&#xca;" horiz-adv-x="767" 
d="M36 10h91v738h-91v10h585l47 -235h-6l-162 204q-11 14 -19 17.5t-27 3.5h-162v-355h121q10 0 14.5 2.5t9.5 13.5l59 127h6v-297h-6l-59 127q-5 11 -9.5 14t-14.5 3h-121v-373h222q19 0 28 4t18 16l184 231h6l-69 -261h-645v10zM357 986h58l142 -143h-10l-161 63l-161 -63
h-10z" />
    <glyph glyph-name="Edieresis" unicode="&#xcb;" horiz-adv-x="767" 
d="M36 10h91v738h-91v10h585l47 -235h-6l-162 204q-11 14 -19 17.5t-27 3.5h-162v-355h121q10 0 14.5 2.5t9.5 13.5l59 127h6v-297h-6l-59 127q-5 11 -9.5 14t-14.5 3h-121v-373h222q19 0 28 4t18 16l184 231h6l-69 -261h-645v10zM272 851q-32 0 -52.5 21t-20.5 52
q0 32 20.5 53t52.5 21t52.5 -21t20.5 -53q0 -31 -20.5 -52t-52.5 -21zM501 851q-32 0 -53 21t-21 52q0 32 21 53t53 21q31 0 51.5 -21t20.5 -53q0 -31 -20.5 -52t-51.5 -21z" />
    <glyph glyph-name="Igrave" unicode="&#xcc;" horiz-adv-x="420" 
d="M384 0h-348v10h91v738h-91v10h348v-10h-92v-738h92v-10zM158 972l81 -129h-10l-252 126v3h181z" />
    <glyph glyph-name="Iacute" unicode="&#xcd;" horiz-adv-x="420" 
d="M384 0h-348v10h91v738h-91v10h348v-10h-92v-738h92v-10zM408 969l-252 -126h-10l82 129h180v-3z" />
    <glyph glyph-name="Icircumflex" unicode="&#xce;" horiz-adv-x="420" 
d="M384 0h-348v10h91v738h-91v10h348v-10h-92v-738h92v-10zM181 986h58l142 -143h-10l-161 63l-161 -63h-10z" />
    <glyph glyph-name="Idieresis" unicode="&#xcf;" horiz-adv-x="420" 
d="M384 0h-348v10h91v738h-91v10h348v-10h-92v-738h92v-10zM96 851q-32 0 -52.5 21t-20.5 52q0 32 20.5 53t52.5 21t52.5 -21t20.5 -53q0 -31 -20.5 -52t-52.5 -21zM325 851q-32 0 -53 21t-21 52q0 32 21 53t53 21q31 0 51.5 -21t20.5 -53q0 -31 -20.5 -52t-51.5 -21z" />
    <glyph glyph-name="Eth" unicode="&#xd0;" horiz-adv-x="873" 
d="M46 10h91v738h-91v10h333q99 0 182 -25t144 -73t95 -117.5t34 -157.5t-35 -159t-96 -121.5t-143.5 -77.5t-178.5 -27h-335v10zM370 10q58 0 110.5 21t91.5 66t60 116.5t17 173.5q-7 181 -80 271t-204 90h-63v-738h68zM46 422h419v-60h-419v60z" />
    <glyph glyph-name="Ntilde" unicode="&#xd1;" horiz-adv-x="850" 
d="M51 10h97v595l-137 151v2h207l498 -532v522h-96v10h205v-10h-97v-779h-3l-565 623v-582h96v-10h-205v10zM292 851q1 77 26.5 116t67.5 39q22 0 43 -10.5t41 -22.5t39 -22.5t38 -10.5q32 0 46.5 14.5t16.5 48.5h10q0 -48 -8.5 -77.5t-21 -46t-28.5 -22.5t-32 -6
q-26 0 -46.5 10t-39.5 22.5t-37.5 22.5t-40.5 10q-60 0 -64 -65h-10z" />
    <glyph glyph-name="Ograve" unicode="&#xd2;" horiz-adv-x="927" 
d="M464 -13q-80 0 -156.5 26.5t-136.5 77.5t-96.5 124.5t-36.5 167.5t36.5 167.5t96.5 124.5t136.5 77.5t156.5 26.5t156.5 -26.5t136 -77.5t96 -124.5t36.5 -167.5t-36.5 -167.5t-96 -124.5t-136 -77.5t-156.5 -26.5zM511 1q41 0 79 16t67.5 49t47.5 83.5t18 119.5
q0 50 -9.5 106t-27.5 111t-44.5 105.5t-60.5 89t-75.5 61.5t-89.5 23q-41 0 -79 -16t-67.5 -49t-47.5 -83.5t-18 -119.5q0 -50 9.5 -106t27.5 -111t44.5 -105.5t60.5 -89t75.5 -61.5t89.5 -23zM412 972l81 -129h-10l-252 126v3h181z" />
    <glyph glyph-name="Oacute" unicode="&#xd3;" horiz-adv-x="927" 
d="M464 -13q-80 0 -156.5 26.5t-136.5 77.5t-96.5 124.5t-36.5 167.5t36.5 167.5t96.5 124.5t136.5 77.5t156.5 26.5t156.5 -26.5t136 -77.5t96 -124.5t36.5 -167.5t-36.5 -167.5t-96 -124.5t-136 -77.5t-156.5 -26.5zM511 1q41 0 79 16t67.5 49t47.5 83.5t18 119.5
q0 50 -9.5 106t-27.5 111t-44.5 105.5t-60.5 89t-75.5 61.5t-89.5 23q-41 0 -79 -16t-67.5 -49t-47.5 -83.5t-18 -119.5q0 -50 9.5 -106t27.5 -111t44.5 -105.5t60.5 -89t75.5 -61.5t89.5 -23zM663 969l-252 -126h-10l82 129h180v-3z" />
    <glyph glyph-name="Ocircumflex" unicode="&#xd4;" horiz-adv-x="927" 
d="M464 -13q-80 0 -156.5 26.5t-136.5 77.5t-96.5 124.5t-36.5 167.5t36.5 167.5t96.5 124.5t136.5 77.5t156.5 26.5t156.5 -26.5t136 -77.5t96 -124.5t36.5 -167.5t-36.5 -167.5t-96 -124.5t-136 -77.5t-156.5 -26.5zM511 1q41 0 79 16t67.5 49t47.5 83.5t18 119.5
q0 50 -9.5 106t-27.5 111t-44.5 105.5t-60.5 89t-75.5 61.5t-89.5 23q-41 0 -79 -16t-67.5 -49t-47.5 -83.5t-18 -119.5q0 -50 9.5 -106t27.5 -111t44.5 -105.5t60.5 -89t75.5 -61.5t89.5 -23zM435 986h58l142 -143h-10l-161 63l-161 -63h-10z" />
    <glyph glyph-name="Otilde" unicode="&#xd5;" horiz-adv-x="927" 
d="M464 -13q-80 0 -156.5 26.5t-136.5 77.5t-96.5 124.5t-36.5 167.5t36.5 167.5t96.5 124.5t136.5 77.5t156.5 26.5t156.5 -26.5t136 -77.5t96 -124.5t36.5 -167.5t-36.5 -167.5t-96 -124.5t-136 -77.5t-156.5 -26.5zM511 1q41 0 79 16t67.5 49t47.5 83.5t18 119.5
q0 50 -9.5 106t-27.5 111t-44.5 105.5t-60.5 89t-75.5 61.5t-89.5 23q-41 0 -79 -16t-67.5 -49t-47.5 -83.5t-18 -119.5q0 -50 9.5 -106t27.5 -111t44.5 -105.5t60.5 -89t75.5 -61.5t89.5 -23zM300 851q1 77 26.5 116t67.5 39q22 0 43 -10.5t41 -22.5t39 -22.5t38 -10.5
q32 0 46.5 14.5t16.5 48.5h10q0 -48 -8.5 -77.5t-21 -46t-28.5 -22.5t-32 -6q-26 0 -46.5 10t-39.5 22.5t-37.5 22.5t-40.5 10q-60 0 -64 -65h-10z" />
    <glyph glyph-name="Odieresis" unicode="&#xd6;" horiz-adv-x="927" 
d="M464 -13q-80 0 -156.5 26.5t-136.5 77.5t-96.5 124.5t-36.5 167.5t36.5 167.5t96.5 124.5t136.5 77.5t156.5 26.5t156.5 -26.5t136 -77.5t96 -124.5t36.5 -167.5t-36.5 -167.5t-96 -124.5t-136 -77.5t-156.5 -26.5zM511 1q41 0 79 16t67.5 49t47.5 83.5t18 119.5
q0 50 -9.5 106t-27.5 111t-44.5 105.5t-60.5 89t-75.5 61.5t-89.5 23q-41 0 -79 -16t-67.5 -49t-47.5 -83.5t-18 -119.5q0 -50 9.5 -106t27.5 -111t44.5 -105.5t60.5 -89t75.5 -61.5t89.5 -23zM350 851q-32 0 -52.5 21t-20.5 52q0 32 20.5 53t52.5 21t52.5 -21t20.5 -53
q0 -31 -20.5 -52t-52.5 -21zM579 851q-32 0 -53 21t-21 52q0 32 21 53t53 21q31 0 51.5 -21t20.5 -53q0 -31 -20.5 -52t-51.5 -21z" />
    <glyph glyph-name="multiply" unicode="&#xd7;" horiz-adv-x="639" 
d="M82 77l186 185l-186 186l52 52l186 -186l186 186l51 -51l-186 -186l187 -186l-52 -53l-187 187l-186 -185z" />
    <glyph glyph-name="Oslash" unicode="&#xd8;" horiz-adv-x="927" 
d="M464 -13q-80 0 -156.5 26.5t-136.5 77.5t-96.5 124.5t-36.5 167.5t36.5 167.5t96.5 124.5t136.5 77.5t156.5 26.5t156.5 -26.5t136 -77.5t96 -124.5t36.5 -167.5t-36.5 -167.5t-96 -124.5t-136 -77.5t-156.5 -26.5zM511 1q41 0 79 16t67.5 49t47.5 83.5t18 119.5
q0 50 -9.5 106t-27.5 111t-44.5 105.5t-60.5 89t-75.5 61.5t-89.5 23q-41 0 -79 -16t-67.5 -49t-47.5 -83.5t-18 -119.5q0 -50 9.5 -106t27.5 -111t44.5 -105.5t60.5 -89t75.5 -61.5t89.5 -23zM37 -20l809 848l42 -41l-809 -848z" />
    <glyph glyph-name="Ugrave" unicode="&#xd9;" horiz-adv-x="844" 
d="M428 -13q-75 0 -134.5 17t-101 54t-63.5 93.5t-22 136.5v460h-91v10h347v-10h-91v-442q0 -135 53 -201t169 -66q50 0 92 13t72.5 43t47.5 79t17 121v453h-97v10h207v-10h-98v-453q0 -150 -73.5 -229t-233.5 -79zM430 972l81 -129h-10l-252 126v3h181z" />
    <glyph glyph-name="Uacute" unicode="&#xda;" horiz-adv-x="844" 
d="M428 -13q-75 0 -134.5 17t-101 54t-63.5 93.5t-22 136.5v460h-91v10h347v-10h-91v-442q0 -135 53 -201t169 -66q50 0 92 13t72.5 43t47.5 79t17 121v453h-97v10h207v-10h-98v-453q0 -150 -73.5 -229t-233.5 -79zM681 969l-252 -126h-10l82 129h180v-3z" />
    <glyph glyph-name="Ucircumflex" unicode="&#xdb;" horiz-adv-x="844" 
d="M428 -13q-75 0 -134.5 17t-101 54t-63.5 93.5t-22 136.5v460h-91v10h347v-10h-91v-442q0 -135 53 -201t169 -66q50 0 92 13t72.5 43t47.5 79t17 121v453h-97v10h207v-10h-98v-453q0 -150 -73.5 -229t-233.5 -79zM453 986h58l142 -143h-10l-161 63l-161 -63h-10z" />
    <glyph glyph-name="Udieresis" unicode="&#xdc;" horiz-adv-x="844" 
d="M428 -13q-75 0 -134.5 17t-101 54t-63.5 93.5t-22 136.5v460h-91v10h347v-10h-91v-442q0 -135 53 -201t169 -66q50 0 92 13t72.5 43t47.5 79t17 121v453h-97v10h207v-10h-98v-453q0 -150 -73.5 -229t-233.5 -79zM368 851q-32 0 -52.5 21t-20.5 52q0 32 20.5 53t52.5 21
t52.5 -21t20.5 -53q0 -31 -20.5 -52t-52.5 -21zM597 851q-32 0 -53 21t-21 52q0 32 21 53t53 21q31 0 51.5 -21t20.5 -53q0 -31 -20.5 -52t-51.5 -21z" />
    <glyph glyph-name="Yacute" unicode="&#xdd;" horiz-adv-x="793" 
d="M220 10h97v366l-254 372h-93v10h373v-10h-93l233 -346l235 346h-94v10h193v-10h-84l-252 -371v-367h97v-10h-358v10zM649 969l-252 -126h-10l82 129h180v-3z" />
    <glyph glyph-name="Thorn" unicode="&#xde;" horiz-adv-x="777" 
d="M36 758h348v-10h-92v-152h109q72 0 135 -8.5t110.5 -31t74.5 -61t27 -99.5q0 -54 -25 -94t-70 -66.5t-107.5 -39t-137.5 -12.5h-116v-174h116v-10h-372v10h91v738h-91v10zM292 194h115q79 0 121 54t42 141q0 43 -10.5 79.5t-31.5 62.5t-51.5 40.5t-69.5 14.5h-115v-392z
" />
    <glyph glyph-name="germandbls" unicode="&#xdf;" horiz-adv-x="714" 
d="M465 -13q-81 0 -128 24t-47 68q0 30 25 47.5t63 9.5q20 -38 37 -67.5t39 -56.5q7 -9 13.5 -12t14.5 -3q42 0 69 24t27 66q0 40 -28 75t-84 80l-24 19q-55 44 -83 81t-28 75q0 32 22.5 55.5t64.5 44.5l14 7q37 19 46 48.5t9 73.5q0 65 -28.5 95.5t-75.5 30.5
q-25 0 -50.5 -11t-45.5 -36.5t-33 -66.5t-13 -100v-558h-218v10h70v410h-76v10q11 2 25.5 6.5t29 14.5t26.5 25.5t17 39.5q10 47 34.5 94.5t61 85.5t84.5 62t105 24q43 0 78.5 -8t61.5 -23t40.5 -35.5t14.5 -45.5q0 -37 -28 -66t-82 -58l-22 -12q-17 -9 -23 -18t-6 -22
q0 -23 29.5 -51t83.5 -73l29 -24q60 -50 85.5 -91.5t25.5 -88.5q0 -42 -20 -75t-51.5 -56.5t-71.5 -35.5t-79 -12z" />
    <glyph glyph-name="agrave" unicode="&#xe0;" horiz-adv-x="549" 
d="M191 -13q-32 0 -60 10.5t-49 28.5t-33.5 42.5t-12.5 53.5q0 35 15.5 56.5t41 36.5t58.5 27.5t69 30.5q24 12 43 25t33 25q17 14 24.5 30t7.5 42q0 49 -22.5 78t-57.5 29q-18 0 -35 -7t-28 -25.5t-14 -50.5t6 -82q-10 -14 -29.5 -20.5t-34.5 -6.5q-32 0 -55 13t-23 39
q0 30 26 52.5t56 40.5l42 24t44.5 21.5t50.5 15t60 5.5q32 0 61 -6t51 -23.5t35 -48.5t13 -81v-352h71v-10h-208l-10 94q-14 -54 -51.5 -80.5t-84.5 -26.5zM263 42q25 0 43 24.5t19 69.5l3 205q-7 -8 -15.5 -15.5t-17.5 -15.5q-19 -15 -37.5 -30t-33.5 -32t-24.5 -36.5
t-9.5 -43.5q0 -25 5.5 -48t15 -40t23 -27.5t29.5 -10.5zM284 579l-200 176v3h154l56 -179h-10z" />
    <glyph glyph-name="aacute" unicode="&#xe1;" horiz-adv-x="549" 
d="M191 -13q-32 0 -60 10.5t-49 28.5t-33.5 42.5t-12.5 53.5q0 35 15.5 56.5t41 36.5t58.5 27.5t69 30.5q24 12 43 25t33 25q17 14 24.5 30t7.5 42q0 49 -22.5 78t-57.5 29q-18 0 -35 -7t-28 -25.5t-14 -50.5t6 -82q-10 -14 -29.5 -20.5t-34.5 -6.5q-32 0 -55 13t-23 39
q0 30 26 52.5t56 40.5l42 24t44.5 21.5t50.5 15t60 5.5q32 0 61 -6t51 -23.5t35 -48.5t13 -81v-352h71v-10h-208l-10 94q-14 -54 -51.5 -80.5t-84.5 -26.5zM263 42q25 0 43 24.5t19 69.5l3 205q-7 -8 -15.5 -15.5t-17.5 -15.5q-19 -15 -37.5 -30t-33.5 -32t-24.5 -36.5
t-9.5 -43.5q0 -25 5.5 -48t15 -40t23 -27.5t29.5 -10.5zM288 758h154v-3l-200 -176h-10z" />
    <glyph glyph-name="acircumflex" unicode="&#xe2;" horiz-adv-x="549" 
d="M191 -13q-32 0 -60 10.5t-49 28.5t-33.5 42.5t-12.5 53.5q0 35 15.5 56.5t41 36.5t58.5 27.5t69 30.5q24 12 43 25t33 25q17 14 24.5 30t7.5 42q0 49 -22.5 78t-57.5 29q-18 0 -35 -7t-28 -25.5t-14 -50.5t6 -82q-10 -14 -29.5 -20.5t-34.5 -6.5q-32 0 -55 13t-23 39
q0 30 26 52.5t56 40.5l42 24t44.5 21.5t50.5 15t60 5.5q32 0 61 -6t51 -23.5t35 -48.5t13 -81v-352h71v-10h-208l-10 94q-14 -54 -51.5 -80.5t-84.5 -26.5zM263 42q25 0 43 24.5t19 69.5l3 205q-7 -8 -15.5 -15.5t-17.5 -15.5q-19 -15 -37.5 -30t-33.5 -32t-24.5 -36.5
t-9.5 -43.5q0 -25 5.5 -48t15 -40t23 -27.5t29.5 -10.5zM437 579h-10l-157 96l-157 -96h-10l161 206h12z" />
    <glyph glyph-name="atilde" unicode="&#xe3;" horiz-adv-x="549" 
d="M191 -13q-32 0 -60 10.5t-49 28.5t-33.5 42.5t-12.5 53.5q0 35 15.5 56.5t41 36.5t58.5 27.5t69 30.5q24 12 43 25t33 25q17 14 24.5 30t7.5 42q0 49 -22.5 78t-57.5 29q-18 0 -35 -7t-28 -25.5t-14 -50.5t6 -82q-10 -14 -29.5 -20.5t-34.5 -6.5q-32 0 -55 13t-23 39
q0 30 26 52.5t56 40.5l42 24t44.5 21.5t50.5 15t60 5.5q32 0 61 -6t51 -23.5t35 -48.5t13 -81v-352h71v-10h-208l-10 94q-14 -54 -51.5 -80.5t-84.5 -26.5zM263 42q25 0 43 24.5t19 69.5l3 205q-7 -8 -15.5 -15.5t-17.5 -15.5q-19 -15 -37.5 -30t-33.5 -32t-24.5 -36.5
t-9.5 -43.5q0 -25 5.5 -48t15 -40t23 -27.5t29.5 -10.5zM106 610q1 77 26.5 116t67.5 39q22 0 43 -10.5t41 -22.5t39 -22.5t38 -10.5q32 0 46.5 14.5t16.5 48.5h10q0 -48 -8.5 -77.5t-21 -46t-28.5 -22.5t-32 -6q-26 0 -46.5 10t-39.5 22.5t-37.5 22.5t-40.5 10
q-60 0 -64 -65h-10z" />
    <glyph glyph-name="adieresis" unicode="&#xe4;" horiz-adv-x="549" 
d="M191 -13q-32 0 -60 10.5t-49 28.5t-33.5 42.5t-12.5 53.5q0 35 15.5 56.5t41 36.5t58.5 27.5t69 30.5q24 12 43 25t33 25q17 14 24.5 30t7.5 42q0 49 -22.5 78t-57.5 29q-18 0 -35 -7t-28 -25.5t-14 -50.5t6 -82q-10 -14 -29.5 -20.5t-34.5 -6.5q-32 0 -55 13t-23 39
q0 30 26 52.5t56 40.5l42 24t44.5 21.5t50.5 15t60 5.5q32 0 61 -6t51 -23.5t35 -48.5t13 -81v-352h71v-10h-208l-10 94q-14 -54 -51.5 -80.5t-84.5 -26.5zM263 42q25 0 43 24.5t19 69.5l3 205q-7 -8 -15.5 -15.5t-17.5 -15.5q-19 -15 -37.5 -30t-33.5 -32t-24.5 -36.5
t-9.5 -43.5q0 -25 5.5 -48t15 -40t23 -27.5t29.5 -10.5zM389 614q-32 0 -52.5 21t-20.5 52q0 32 20.5 53t52.5 21t52.5 -21t20.5 -53q0 -31 -20.5 -52t-52.5 -21zM152 614q-32 0 -52.5 20.5t-20.5 51.5q0 32 20.5 53t52.5 21t52 -21t20 -53q0 -31 -20 -51.5t-52 -20.5z" />
    <glyph glyph-name="aring" unicode="&#xe5;" horiz-adv-x="549" 
d="M191 -13q-32 0 -60 10.5t-49 28.5t-33.5 42.5t-12.5 53.5q0 35 15.5 56.5t41 36.5t58.5 27.5t69 30.5q24 12 43 25t33 25q17 14 24.5 30t7.5 42q0 49 -22.5 78t-57.5 29q-18 0 -35 -7t-28 -25.5t-14 -50.5t6 -82q-10 -14 -29.5 -20.5t-34.5 -6.5q-32 0 -55 13t-23 39
q0 30 26 52.5t56 40.5l42 24t44.5 21.5t50.5 15t60 5.5q32 0 61 -6t51 -23.5t35 -48.5t13 -81v-352h71v-10h-208l-10 94q-14 -54 -51.5 -80.5t-84.5 -26.5zM263 42q25 0 43 24.5t19 69.5l3 205q-7 -8 -15.5 -15.5t-17.5 -15.5q-19 -15 -37.5 -30t-33.5 -32t-24.5 -36.5
t-9.5 -43.5q0 -25 5.5 -48t15 -40t23 -27.5t29.5 -10.5zM159 704q0 22 9 42t24 34t35.5 22.5t43.5 8.5q22 0 42.5 -8.5t36 -22.5t24.5 -34t9 -42q0 -23 -9 -42.5t-24.5 -34t-36 -23t-42.5 -8.5q-23 0 -43.5 8.5t-35.5 23t-24 34t-9 42.5zM334 703q0 29 -17 47.5t-46 18.5
q-30 0 -47 -18.5t-17 -47.5t17 -46.5t47 -17.5q29 0 46 17.5t17 46.5z" />
    <glyph glyph-name="ae" unicode="&#xe6;" horiz-adv-x="863" 
d="M839 243q-7 -71 -29.5 -120t-55.5 -79t-75.5 -43.5t-90.5 -13.5q-77 0 -138 35t-93 107q-5 -36 -20.5 -62.5t-38 -44t-50 -26.5t-56.5 -9q-32 0 -60.5 10.5t-49.5 28.5t-33.5 42.5t-12.5 53.5q0 35 15.5 56.5t41 36.5t58.5 27.5t69 30.5q24 12 43 25t33 25q17 14 24.5 30
t7.5 42q0 48 -22.5 77t-57.5 29q-18 0 -35 -7t-28 -25t-14 -50t6 -82q-10 -14 -29.5 -20.5t-34.5 -6.5q-32 0 -55 13t-23 39q0 30 26 52.5t56 40.5l42 24t44.5 21.5t50.5 15t60 5.5q38 0 70 -12t49 -44q32 26 70 40t80 14q35 0 71 -8t67.5 -27t56.5 -51t38 -80h-359
q-1 -6 -1 -12v-13q0 -52 13 -95t38 -74.5t60.5 -49t79.5 -17.5q26 0 54 6t53.5 23t45.5 46t30 76h9zM574 509q-46 0 -77.5 -35.5t-38.5 -109.5h120q48 0 65.5 13t17.5 44q0 14 -5 29.5t-15.5 28.5t-27 21.5t-39.5 8.5zM190 168q0 -25 5.5 -48t15 -40t24 -27.5t32.5 -10.5
q25 0 50.5 24.5t31.5 80.5q-11 29 -16.5 62.5t-4.5 71.5v60q-7 -8 -15.5 -15.5t-17.5 -15.5q-19 -15 -37.5 -30t-33.5 -32t-24.5 -36.5t-9.5 -43.5z" />
    <glyph glyph-name="ccedilla" unicode="&#xe7;" horiz-adv-x="548" 
d="M287 -13q-56 0 -102.5 18.5t-80.5 53t-53 83.5t-19 109q0 62 23.5 111.5t62.5 84t90 53t107 18.5q34 0 66 -8t56.5 -22t39 -35t14.5 -46q0 -37 -33 -56t-87 -11q-2 85 -30 124t-73 39q-50 0 -78.5 -46.5t-28.5 -123.5q0 -49 12 -92.5t36 -76.5t59.5 -52.5t82.5 -19.5
q23 0 48 6t48.5 22.5t42 46t29.5 76.5h9q-7 -71 -28 -120t-53 -79t-73 -43.5t-87 -13.5zM272 -269q-20 0 -38 3.5t-32.5 10.5t-23 17t-8.5 23q0 18 15.5 28t36.5 2l41 -60q5 -8 9.5 -11t12.5 -3q26 0 42 11.5t16 28.5q0 14 -9.5 27t-26.5 24.5t-40 21.5t-50 18l115 128h12
l-65 -74q54 -22 78.5 -43.5t24.5 -59.5q0 -17 -8 -33.5t-22.5 -29.5t-34.5 -21t-45 -8z" />
    <glyph glyph-name="egrave" unicode="&#xe8;" horiz-adv-x="569" 
d="M293 -13q-54 0 -102 18t-83 51.5t-55.5 82.5t-20.5 111q0 58 21.5 107t57.5 85t82 56t96 20q35 0 71 -8t67.5 -26.5t56 -50.5t37.5 -80h-359q-1 -6 -1 -12v-13q0 -52 13.5 -95t38 -74.5t60 -49t80.5 -17.5q25 0 53 6t53.5 23t46 46t30.5 76h8q-7 -71 -29 -120t-55.5 -79
t-76 -43.5t-90.5 -13.5zM280 508q-46 0 -78 -35.5t-39 -108.5h121q48 0 65 13t17 44q0 13 -5 28.5t-15.5 28.5t-27 21.5t-38.5 8.5zM299 579l-200 176v3h154l56 -179h-10z" />
    <glyph glyph-name="eacute" unicode="&#xe9;" horiz-adv-x="569" 
d="M293 -13q-54 0 -102 18t-83 51.5t-55.5 82.5t-20.5 111q0 58 21.5 107t57.5 85t82 56t96 20q35 0 71 -8t67.5 -26.5t56 -50.5t37.5 -80h-359q-1 -6 -1 -12v-13q0 -52 13.5 -95t38 -74.5t60 -49t80.5 -17.5q25 0 53 6t53.5 23t46 46t30.5 76h8q-7 -71 -29 -120t-55.5 -79
t-76 -43.5t-90.5 -13.5zM280 508q-46 0 -78 -35.5t-39 -108.5h121q48 0 65 13t17 44q0 13 -5 28.5t-15.5 28.5t-27 21.5t-38.5 8.5zM302 758h154v-3l-200 -176h-10z" />
    <glyph glyph-name="ecircumflex" unicode="&#xea;" horiz-adv-x="569" 
d="M293 -13q-54 0 -102 18t-83 51.5t-55.5 82.5t-20.5 111q0 58 21.5 107t57.5 85t82 56t96 20q35 0 71 -8t67.5 -26.5t56 -50.5t37.5 -80h-359q-1 -6 -1 -12v-13q0 -52 13.5 -95t38 -74.5t60 -49t80.5 -17.5q25 0 53 6t53.5 23t46 46t30.5 76h8q-7 -71 -29 -120t-55.5 -79
t-76 -43.5t-90.5 -13.5zM280 508q-46 0 -78 -35.5t-39 -108.5h121q48 0 65 13t17 44q0 13 -5 28.5t-15.5 28.5t-27 21.5t-38.5 8.5zM451 579h-10l-157 96l-157 -96h-10l161 206h12z" />
    <glyph glyph-name="edieresis" unicode="&#xeb;" horiz-adv-x="569" 
d="M293 -13q-54 0 -102 18t-83 51.5t-55.5 82.5t-20.5 111q0 58 21.5 107t57.5 85t82 56t96 20q35 0 71 -8t67.5 -26.5t56 -50.5t37.5 -80h-359q-1 -6 -1 -12v-13q0 -52 13.5 -95t38 -74.5t60 -49t80.5 -17.5q25 0 53 6t53.5 23t46 46t30.5 76h8q-7 -71 -29 -120t-55.5 -79
t-76 -43.5t-90.5 -13.5zM280 508q-46 0 -78 -35.5t-39 -108.5h121q48 0 65 13t17 44q0 13 -5 28.5t-15.5 28.5t-27 21.5t-38.5 8.5zM403 614q-32 0 -52.5 21t-20.5 52q0 32 20.5 53t52.5 21t52.5 -21t20.5 -53q0 -31 -20.5 -52t-52.5 -21zM166 614q-32 0 -52.5 20.5
t-20.5 51.5q0 32 20.5 53t52.5 21t52 -21t20 -53q0 -31 -20 -51.5t-52 -20.5z" />
    <glyph glyph-name="igrave" unicode="&#xec;" horiz-adv-x="319" 
d="M239 10h71v-10h-290v10h71v368l-71 49v4l219 94v-515zM183 579l-200 176v3h154l56 -179h-10z" />
    <glyph glyph-name="iacute" unicode="&#xed;" horiz-adv-x="319" 
d="M239 10h71v-10h-290v10h71v368l-71 49v4l219 94v-515zM186 758h154v-3l-200 -176h-10z" />
    <glyph glyph-name="icircumflex" unicode="&#xee;" horiz-adv-x="319" 
d="M239 10h71v-10h-290v10h71v368l-71 49v4l219 94v-515zM335 579h-10l-157 96l-157 -96h-10l161 206h12z" />
    <glyph glyph-name="idieresis" unicode="&#xef;" horiz-adv-x="319" 
d="M239 10h71v-10h-290v10h71v368l-71 49v4l219 94v-515zM50 614q-32 0 -52.5 21t-20.5 52q0 32 20.5 53t52.5 21t52 -21t20 -53q0 -31 -20 -52t-52 -21zM287 614q-32 0 -52.5 21t-20.5 52q0 32 20.5 53t52.5 21t52.5 -21t20.5 -53q0 -31 -20.5 -52t-52.5 -21z" />
    <glyph glyph-name="eth" unicode="&#xf0;" horiz-adv-x="620" 
d="M300 -13q-62 0 -111 20t-84 55.5t-53.5 84.5t-18.5 108q0 64 21.5 113t56 82.5t77 50.5t84.5 17q46 0 77.5 -16t51.5 -40q-16 58 -42 109t-64 94l-139 -69l-22 38l129 64q-64 61 -152 92l3 7q110 -27 196 -75l120 59l22 -38l-97 -48q106 -69 165.5 -167.5t59.5 -218.5
q0 -73 -21 -132.5t-58 -101.5t-88.5 -65t-112.5 -23zM201 245q0 -248 101 -248q55 0 88 72.5t33 223.5q0 84 -19 159q-20 19 -40.5 25t-40.5 6q-53 0 -87.5 -61.5t-34.5 -176.5z" />
    <glyph glyph-name="ntilde" unicode="&#xf1;" horiz-adv-x="624" 
d="M20 10h71v368l-71 49v4l219 94v-115q14 56 56.5 82t98.5 26q72 0 114 -45t42 -141v-322h71v-10h-280v10h61v323q0 74 -21 105.5t-58 31.5q-42 0 -63 -32.5t-21 -104.5v-323h61v-10h-280v10zM164 610q1 77 26.5 116t67.5 39q22 0 43 -10.5t41 -22.5t39 -22.5t38 -10.5
q32 0 46.5 14.5t16.5 48.5h10q0 -48 -8.5 -77.5t-21 -46t-28.5 -22.5t-32 -6q-26 0 -46.5 10t-39.5 22.5t-37.5 22.5t-40.5 10q-60 0 -64 -65h-10z" />
    <glyph glyph-name="ograve" unicode="&#xf2;" horiz-adv-x="609" 
d="M304 -13q-64 0 -114.5 21.5t-86 58.5t-54 85t-18.5 102t19 102t55 84t86.5 57t113.5 21q64 0 114.5 -22t86 -58.5t54 -85t18.5 -102.5t-19 -102t-55 -84t-86.5 -56.5t-113.5 -20.5zM346 0q16 0 32 6t28.5 20.5t20 38.5t7.5 61q0 29 -7 69.5t-21 93.5q-13 49 -28 88.5
t-32 67.5t-37.5 43.5t-45.5 15.5q-16 0 -32 -6t-28.5 -20t-20 -38.5t-7.5 -61.5q0 -55 29 -162q13 -49 27.5 -89t32 -68t37.5 -43.5t45 -15.5zM317 579l-200 176v3h154l56 -179h-10z" />
    <glyph glyph-name="oacute" unicode="&#xf3;" horiz-adv-x="609" 
d="M304 -13q-64 0 -114.5 21.5t-86 58.5t-54 85t-18.5 102t19 102t55 84t86.5 57t113.5 21q64 0 114.5 -22t86 -58.5t54 -85t18.5 -102.5t-19 -102t-55 -84t-86.5 -56.5t-113.5 -20.5zM346 0q16 0 32 6t28.5 20.5t20 38.5t7.5 61q0 29 -7 69.5t-21 93.5q-13 49 -28 88.5
t-32 67.5t-37.5 43.5t-45.5 15.5q-16 0 -32 -6t-28.5 -20t-20 -38.5t-7.5 -61.5q0 -55 29 -162q13 -49 27.5 -89t32 -68t37.5 -43.5t45 -15.5zM321 758h154v-3l-200 -176h-10z" />
    <glyph glyph-name="ocircumflex" unicode="&#xf4;" horiz-adv-x="609" 
d="M304 -13q-64 0 -114.5 21.5t-86 58.5t-54 85t-18.5 102t19 102t55 84t86.5 57t113.5 21q64 0 114.5 -22t86 -58.5t54 -85t18.5 -102.5t-19 -102t-55 -84t-86.5 -56.5t-113.5 -20.5zM346 0q16 0 32 6t28.5 20.5t20 38.5t7.5 61q0 29 -7 69.5t-21 93.5q-13 49 -28 88.5
t-32 67.5t-37.5 43.5t-45.5 15.5q-16 0 -32 -6t-28.5 -20t-20 -38.5t-7.5 -61.5q0 -55 29 -162q13 -49 27.5 -89t32 -68t37.5 -43.5t45 -15.5zM469 579h-10l-157 96l-157 -96h-10l161 206h12z" />
    <glyph glyph-name="otilde" unicode="&#xf5;" horiz-adv-x="609" 
d="M304 -13q-64 0 -114.5 21.5t-86 58.5t-54 85t-18.5 102t19 102t55 84t86.5 57t113.5 21q64 0 114.5 -22t86 -58.5t54 -85t18.5 -102.5t-19 -102t-55 -84t-86.5 -56.5t-113.5 -20.5zM346 0q16 0 32 6t28.5 20.5t20 38.5t7.5 61q0 29 -7 69.5t-21 93.5q-13 49 -28 88.5
t-32 67.5t-37.5 43.5t-45.5 15.5q-16 0 -32 -6t-28.5 -20t-20 -38.5t-7.5 -61.5q0 -55 29 -162q13 -49 27.5 -89t32 -68t37.5 -43.5t45 -15.5zM138 610q1 77 26.5 116t67.5 39q22 0 43 -10.5t41 -22.5t39 -22.5t38 -10.5q32 0 46.5 14.5t16.5 48.5h10q0 -48 -8.5 -77.5
t-21 -46t-28.5 -22.5t-32 -6q-26 0 -46.5 10t-39.5 22.5t-37.5 22.5t-40.5 10q-60 0 -64 -65h-10z" />
    <glyph glyph-name="odieresis" unicode="&#xf6;" horiz-adv-x="609" 
d="M304 -13q-64 0 -114.5 21.5t-86 58.5t-54 85t-18.5 102t19 102t55 84t86.5 57t113.5 21q64 0 114.5 -22t86 -58.5t54 -85t18.5 -102.5t-19 -102t-55 -84t-86.5 -56.5t-113.5 -20.5zM346 0q16 0 32 6t28.5 20.5t20 38.5t7.5 61q0 29 -7 69.5t-21 93.5q-13 49 -28 88.5
t-32 67.5t-37.5 43.5t-45.5 15.5q-16 0 -32 -6t-28.5 -20t-20 -38.5t-7.5 -61.5q0 -55 29 -162q13 -49 27.5 -89t32 -68t37.5 -43.5t45 -15.5zM421 614q-32 0 -52.5 21t-20.5 52q0 32 20.5 53t52.5 21t52.5 -21t20.5 -53q0 -31 -20.5 -52t-52.5 -21zM184 614
q-32 0 -52.5 20.5t-20.5 51.5q0 32 20.5 53t52.5 21t52 -21t20 -53q0 -31 -20 -51.5t-52 -20.5z" />
    <glyph glyph-name="divide" unicode="&#xf7;" horiz-adv-x="639" 
d="M320 368q-35 0 -59.5 24.5t-24.5 59.5q0 34 24.5 58.5t59.5 24.5q34 0 58.5 -24.5t24.5 -58.5q0 -35 -24.5 -59.5t-58.5 -24.5zM56 300h527v-75h-527v75zM320 -10q-35 0 -59.5 24.5t-24.5 59.5q0 34 24.5 58.5t59.5 24.5q34 0 58.5 -24.5t24.5 -58.5q0 -35 -24.5 -59.5
t-58.5 -24.5z" />
    <glyph glyph-name="oslash" unicode="&#xf8;" horiz-adv-x="619" 
d="M309 -13q-64 0 -114.5 21.5t-86 58.5t-54 85t-18.5 102t19 102t55 84t86.5 57t113.5 21q64 0 114.5 -22t86 -58.5t54 -85t18.5 -102.5t-19 -102t-55 -84t-86.5 -56.5t-113.5 -20.5zM351 0q16 0 32 6t28.5 20.5t20 38.5t7.5 61q0 29 -7 69.5t-21 93.5q-13 49 -28 88.5
t-32 67.5t-37.5 43.5t-45.5 15.5q-16 0 -32 -6t-28.5 -20t-20 -38.5t-7.5 -61.5q0 -55 29 -162q13 -49 27.5 -89t32 -68t37.5 -43.5t45 -15.5zM570 532l-490 -585l-32 26l490 585z" />
    <glyph glyph-name="ugrave" unicode="&#xf9;" horiz-adv-x="601" 
d="M228 -13q-70 0 -111.5 45t-41.5 141v319h-71v10h219v-330q0 -75 20 -106t53 -31q38 0 57.5 32.5t19.5 104.5v320h-66v10h214v-492h71v-10h-219v90q-11 -47 -49 -75t-96 -28zM310 579l-200 176v3h154l56 -179h-10z" />
    <glyph glyph-name="uacute" unicode="&#xfa;" horiz-adv-x="601" 
d="M228 -13q-70 0 -111.5 45t-41.5 141v319h-71v10h219v-330q0 -75 20 -106t53 -31q38 0 57.5 32.5t19.5 104.5v320h-66v10h214v-492h71v-10h-219v90q-11 -47 -49 -75t-96 -28zM313 758h154v-3l-200 -176h-10z" />
    <glyph glyph-name="ucircumflex" unicode="&#xfb;" horiz-adv-x="601" 
d="M228 -13q-70 0 -111.5 45t-41.5 141v319h-71v10h219v-330q0 -75 20 -106t53 -31q38 0 57.5 32.5t19.5 104.5v320h-66v10h214v-492h71v-10h-219v90q-11 -47 -49 -75t-96 -28zM462 579h-10l-157 96l-157 -96h-10l161 206h12z" />
    <glyph glyph-name="udieresis" unicode="&#xfc;" horiz-adv-x="601" 
d="M228 -13q-70 0 -111.5 45t-41.5 141v319h-71v10h219v-330q0 -75 20 -106t53 -31q38 0 57.5 32.5t19.5 104.5v320h-66v10h214v-492h71v-10h-219v90q-11 -47 -49 -75t-96 -28zM414 614q-32 0 -52.5 21t-20.5 52q0 32 20.5 53t52.5 21t52.5 -21t20.5 -53q0 -31 -20.5 -52
t-52.5 -21zM177 614q-32 0 -52.5 20.5t-20.5 51.5q0 32 20.5 53t52.5 21t52 -21t20 -53q0 -31 -20 -51.5t-52 -20.5z" />
    <glyph glyph-name="yacute" unicode="&#xfd;" horiz-adv-x="551" 
d="M115 -256q-29 0 -47.5 18.5t-18.5 46.5q0 18 10.5 36t33 32t56.5 21.5t82 4.5l39 85l-231 504h-63v10h289v-10h-65l150 -330l151 330h-115v10h194v-10h-66l-292 -636q-13 -29 -24 -50t-23 -34.5t-26.5 -20.5t-33.5 -7zM328 758h154v-3l-200 -176h-10z" />
    <glyph glyph-name="thorn" unicode="&#xfe;" horiz-adv-x="612" 
d="M214 -238h95v-10h-314v10h71v986h-71v10h219v-341q17 43 56.5 72t91.5 29q39 0 78 -17t70 -51t50 -83.5t19 -113.5q0 -62 -19 -111.5t-50.5 -84t-72 -52.5t-82.5 -18q-48 0 -86.5 25t-54.5 67v-317zM296 32q21 0 41 11.5t36 37.5t26 66.5t10 99.5q0 114 -34 167.5
t-82 53.5q-23 0 -47.5 -21t-31.5 -59v-280q7 -35 31 -55.5t51 -20.5z" />
    <glyph glyph-name="ydieresis" unicode="&#xff;" horiz-adv-x="551" 
d="M115 -256q-29 0 -47.5 18.5t-18.5 46.5q0 18 10.5 36t33 32t56.5 21.5t82 4.5l39 85l-231 504h-63v10h289v-10h-65l150 -330l151 330h-115v10h194v-10h-66l-292 -636q-13 -29 -24 -50t-23 -34.5t-26.5 -20.5t-33.5 -7zM429 614q-32 0 -52.5 21t-20.5 52q0 32 20.5 53
t52.5 21t52.5 -21t20.5 -53q0 -31 -20.5 -52t-52.5 -21zM192 614q-32 0 -52.5 20.5t-20.5 51.5q0 32 20.5 53t52.5 21t52 -21t20 -53q0 -31 -20 -51.5t-52 -20.5z" />
    <glyph glyph-name="Abreve" unicode="&#x102;" horiz-adv-x="751" 
d="M442 10h88l-101 269h-265l-103 -269h92v-10h-188v10h83l243 637l-41 111h170l281 -748h83v-10h-342v10zM407 339l-109 291l-111 -291h220zM353 837q-18 0 -43.5 5.5t-50.5 22t-44.5 48t-24.5 84.5h53q8 -59 38.5 -86t71.5 -27q40 0 71 27t39 86h53q-5 -53 -24.5 -84.5
t-44.5 -48t-50.5 -22t-43.5 -5.5z" />
    <glyph glyph-name="Amacron" unicode="&#x100;" horiz-adv-x="751" 
d="M442 10h88l-101 269h-265l-103 -269h92v-10h-188v10h83l243 637l-41 111h170l281 -748h83v-10h-342v10zM407 339l-109 291l-111 -291h220zM196 944h314v-64h-314v64z" />
    <glyph glyph-name="Aogonek" unicode="&#x104;" horiz-adv-x="751" 
d="M442 10h88l-101 269h-265l-103 -269h92v-10h-188v10h83l243 637l-41 111h170l281 -748h83v-10h-342v10zM407 339l-109 291l-111 -291h220zM721 -167q-9 -11 -20.5 -23t-26 -21.5t-31.5 -16t-38 -6.5q-39 0 -67 22t-28 64q0 23 12.5 45t33 41.5t46 35t51.5 26.5h19
q-33 -23 -54 -53t-21 -62q0 -33 17.5 -49t40.5 -16q34 0 60 20z" />
    <glyph glyph-name="Cacute" unicode="&#x106;" horiz-adv-x="851" 
d="M488 -4q48 0 91 15t82 50.5t73.5 93t65.5 143.5h6l-52 -308h-6l-49 57q-20 -15 -45.5 -26t-54 -18.5t-59 -11.5t-58.5 -4q-97 0 -178.5 28.5t-140.5 81t-92 125t-33 161.5q0 84 31 156.5t89 125.5t139.5 83.5t182.5 30.5q28 0 58 -4t58.5 -11.5t54 -18.5t45.5 -26l50 57
h6l52 -308h-6q-31 85 -66 143t-74 93.5t-82 50.5t-91 15q-45 0 -91.5 -18t-84.5 -59.5t-62.5 -109t-24.5 -166.5q0 -86 17.5 -162.5t51.5 -134t83.5 -91t113.5 -33.5zM672 969l-252 -126h-10l82 129h180v-3z" />
    <glyph glyph-name="Ccaron" unicode="&#x10c;" horiz-adv-x="851" 
d="M488 -4q48 0 91 15t82 50.5t73.5 93t65.5 143.5h6l-52 -308h-6l-49 57q-20 -15 -45.5 -26t-54 -18.5t-59 -11.5t-58.5 -4q-97 0 -178.5 28.5t-140.5 81t-92 125t-33 161.5q0 84 31 156.5t89 125.5t139.5 83.5t182.5 30.5q28 0 58 -4t58.5 -11.5t54 -18.5t45.5 -26l50 57
h6l52 -308h-6q-31 85 -66 143t-74 93.5t-82 50.5t-91 15q-45 0 -91.5 -18t-84.5 -59.5t-62.5 -109t-24.5 -166.5q0 -86 17.5 -162.5t51.5 -134t83.5 -91t113.5 -33.5zM302 986h10l161 -63l161 63h10l-142 -143h-58z" />
    <glyph glyph-name="Ccircumflex" unicode="&#x108;" horiz-adv-x="851" 
d="M488 -4q48 0 91 15t82 50.5t73.5 93t65.5 143.5h6l-52 -308h-6l-49 57q-20 -15 -45.5 -26t-54 -18.5t-59 -11.5t-58.5 -4q-97 0 -178.5 28.5t-140.5 81t-92 125t-33 161.5q0 84 31 156.5t89 125.5t139.5 83.5t182.5 30.5q28 0 58 -4t58.5 -11.5t54 -18.5t45.5 -26l50 57
h6l52 -308h-6q-31 85 -66 143t-74 93.5t-82 50.5t-91 15q-45 0 -91.5 -18t-84.5 -59.5t-62.5 -109t-24.5 -166.5q0 -86 17.5 -162.5t51.5 -134t83.5 -91t113.5 -33.5zM444 986h58l142 -143h-10l-161 63l-161 -63h-10z" />
    <glyph glyph-name="Cdotaccent" unicode="&#x10a;" horiz-adv-x="851" 
d="M488 -4q48 0 91 15t82 50.5t73.5 93t65.5 143.5h6l-52 -308h-6l-49 57q-20 -15 -45.5 -26t-54 -18.5t-59 -11.5t-58.5 -4q-97 0 -178.5 28.5t-140.5 81t-92 125t-33 161.5q0 84 31 156.5t89 125.5t139.5 83.5t182.5 30.5q28 0 58 -4t58.5 -11.5t54 -18.5t45.5 -26l50 57
h6l52 -308h-6q-31 85 -66 143t-74 93.5t-82 50.5t-91 15q-45 0 -91.5 -18t-84.5 -59.5t-62.5 -109t-24.5 -166.5q0 -86 17.5 -162.5t51.5 -134t83.5 -91t113.5 -33.5zM474 851q-32 0 -53 21t-21 52q0 32 21 53t53 21q31 0 51.5 -21t20.5 -53q0 -31 -20.5 -52t-51.5 -21z" />
    <glyph glyph-name="Dcaron" unicode="&#x10e;" horiz-adv-x="863" 
d="M36 10h91v738h-91v10h333q99 0 182 -25t144 -73t95 -117.5t34 -157.5t-35 -159t-96 -121.5t-143.5 -77.5t-178.5 -27h-335v10zM360 10q58 0 110.5 21t91.5 66t60 116.5t17 173.5q-7 181 -80 271t-204 90h-63v-738h68zM265 986h10l161 -63l161 63h10l-142 -143h-58z" />
    <glyph glyph-name="Dcroat" unicode="&#x110;" horiz-adv-x="873" 
d="M46 10h91v738h-91v10h333q99 0 182 -25t144 -73t95 -117.5t34 -157.5t-35 -159t-96 -121.5t-143.5 -77.5t-178.5 -27h-335v10zM370 10q58 0 110.5 21t91.5 66t60 116.5t17 173.5q-7 181 -80 271t-204 90h-63v-738h68zM46 422h419v-60h-419v60z" />
    <glyph glyph-name="Ebreve" unicode="&#x114;" horiz-adv-x="767" 
d="M36 10h91v738h-91v10h585l47 -235h-6l-162 204q-11 14 -19 17.5t-27 3.5h-162v-355h121q10 0 14.5 2.5t9.5 13.5l59 127h6v-297h-6l-59 127q-5 11 -9.5 14t-14.5 3h-121v-373h222q19 0 28 4t18 16l184 231h6l-69 -261h-645v10zM386 837q-18 0 -43.5 5.5t-50.5 22
t-44.5 48t-24.5 84.5h53q8 -59 38.5 -86t71.5 -27q40 0 71 27t39 86h53q-5 -53 -24.5 -84.5t-44.5 -48t-50.5 -22t-43.5 -5.5z" />
    <glyph glyph-name="Ecaron" unicode="&#x11a;" horiz-adv-x="767" 
d="M36 10h91v738h-91v10h585l47 -235h-6l-162 204q-11 14 -19 17.5t-27 3.5h-162v-355h121q10 0 14.5 2.5t9.5 13.5l59 127h6v-297h-6l-59 127q-5 11 -9.5 14t-14.5 3h-121v-373h222q19 0 28 4t18 16l184 231h6l-69 -261h-645v10zM215 986h10l161 -63l161 63h10l-142 -143
h-58z" />
    <glyph glyph-name="Emacron" unicode="&#x112;" horiz-adv-x="767" 
d="M36 10h91v738h-91v10h585l47 -235h-6l-162 204q-11 14 -19 17.5t-27 3.5h-162v-355h121q10 0 14.5 2.5t9.5 13.5l59 127h6v-297h-6l-59 127q-5 11 -9.5 14t-14.5 3h-121v-373h222q19 0 28 4t18 16l184 231h6l-69 -261h-645v10zM229 944h314v-64h-314v64z" />
    <glyph glyph-name="Eogonek" unicode="&#x118;" horiz-adv-x="767" 
d="M36 10h91v738h-91v10h585l47 -235h-6l-162 204q-11 14 -19 17.5t-27 3.5h-162v-355h121q10 0 14.5 2.5t9.5 13.5l59 127h6v-297h-6l-59 127q-5 11 -9.5 14t-14.5 3h-121v-373h222q19 0 28 4t18 16l184 231h6l-69 -261h-645v10zM730 -167q-9 -11 -20.5 -23t-26 -21.5
t-31.5 -16t-38 -6.5q-39 0 -67 22t-28 64q0 23 12.5 45t33 41.5t46 35t51.5 26.5h19q-33 -23 -54 -53t-21 -62q0 -33 17.5 -49t40.5 -16q34 0 60 20z" />
    <glyph glyph-name="Edotaccent" unicode="&#x116;" horiz-adv-x="767" 
d="M36 10h91v738h-91v10h585l47 -235h-6l-162 204q-11 14 -19 17.5t-27 3.5h-162v-355h121q10 0 14.5 2.5t9.5 13.5l59 127h6v-297h-6l-59 127q-5 11 -9.5 14t-14.5 3h-121v-373h222q19 0 28 4t18 16l184 231h6l-69 -261h-645v10zM387 851q-32 0 -53 21t-21 52q0 32 21 53
t53 21q31 0 51.5 -21t20.5 -53q0 -31 -20.5 -52t-51.5 -21z" />
    <glyph glyph-name="Gbreve" unicode="&#x11e;" horiz-adv-x="891" 
d="M490 -13q-102 0 -185.5 28.5t-142.5 81t-91.5 125t-32.5 161.5q0 84 31 156.5t89 125.5t139.5 83.5t182.5 30.5q28 0 58 -4t58.5 -11.5t54 -18.5t45.5 -26l50 57h6l52 -308h-6q-31 85 -66 143t-74 93.5t-82 50.5t-91 15q-45 0 -91.5 -18t-84.5 -59.5t-62.5 -109
t-24.5 -166.5q0 -97 20 -175t56 -132.5t85.5 -83.5t108.5 -29q48 0 87.5 9t68.5 24v304h-211v60h371v-267l3 -68q-38 -5 -74.5 -17t-75.5 -24t-81 -21.5t-90 -9.5zM479 837q-18 0 -43.5 5.5t-50.5 22t-44.5 48t-24.5 84.5h53q8 -59 38.5 -86t71.5 -27q40 0 71 27t39 86h53
q-5 -53 -24.5 -84.5t-44.5 -48t-50.5 -22t-43.5 -5.5z" />
    <glyph glyph-name="Gcircumflex" unicode="&#x11c;" horiz-adv-x="891" 
d="M490 -13q-102 0 -185.5 28.5t-142.5 81t-91.5 125t-32.5 161.5q0 84 31 156.5t89 125.5t139.5 83.5t182.5 30.5q28 0 58 -4t58.5 -11.5t54 -18.5t45.5 -26l50 57h6l52 -308h-6q-31 85 -66 143t-74 93.5t-82 50.5t-91 15q-45 0 -91.5 -18t-84.5 -59.5t-62.5 -109
t-24.5 -166.5q0 -97 20 -175t56 -132.5t85.5 -83.5t108.5 -29q48 0 87.5 9t68.5 24v304h-211v60h371v-267l3 -68q-38 -5 -74.5 -17t-75.5 -24t-81 -21.5t-90 -9.5zM450 986h58l142 -143h-10l-161 63l-161 -63h-10z" />
    <glyph glyph-name="uni0122" unicode="&#x122;" horiz-adv-x="891" 
d="M490 -13q-102 0 -185.5 28.5t-142.5 81t-91.5 125t-32.5 161.5q0 84 31 156.5t89 125.5t139.5 83.5t182.5 30.5q28 0 58 -4t58.5 -11.5t54 -18.5t45.5 -26l50 57h6l52 -308h-6q-31 85 -66 143t-74 93.5t-82 50.5t-91 15q-45 0 -91.5 -18t-84.5 -59.5t-62.5 -109
t-24.5 -166.5q0 -97 20 -175t56 -132.5t85.5 -83.5t108.5 -29q48 0 87.5 9t68.5 24v304h-211v60h371v-267l3 -68q-38 -5 -74.5 -17t-75.5 -24t-81 -21.5t-90 -9.5zM477 -78q21 0 39 -8.5t31 -23t20.5 -34.5t7.5 -43q0 -30 -12.5 -56t-33.5 -48.5t-49 -41t-58 -31.5l-4 8
q43 23 67.5 51.5t24.5 63.5q0 21 -8 37t-22 27.5t-32 18.5t-39 12q-1 30 18.5 49t49.5 19z" />
    <glyph glyph-name="Gdotaccent" unicode="&#x120;" horiz-adv-x="891" 
d="M490 -13q-102 0 -185.5 28.5t-142.5 81t-91.5 125t-32.5 161.5q0 84 31 156.5t89 125.5t139.5 83.5t182.5 30.5q28 0 58 -4t58.5 -11.5t54 -18.5t45.5 -26l50 57h6l52 -308h-6q-31 85 -66 143t-74 93.5t-82 50.5t-91 15q-45 0 -91.5 -18t-84.5 -59.5t-62.5 -109
t-24.5 -166.5q0 -97 20 -175t56 -132.5t85.5 -83.5t108.5 -29q48 0 87.5 9t68.5 24v304h-211v60h371v-267l3 -68q-38 -5 -74.5 -17t-75.5 -24t-81 -21.5t-90 -9.5zM480 851q-32 0 -53 21t-21 52q0 32 21 53t53 21q31 0 51.5 -21t20.5 -53q0 -31 -20.5 -52t-51.5 -21z" />
    <glyph glyph-name="Hbar" unicode="&#x126;" horiz-adv-x="916" 
d="M384 0h-348v10h91v738h-91v10h348v-10h-92v-326h332v326h-91v10h347v-10h-91v-738h91v-10h-347v10h91v352h-332v-352h92v-10zM36 611h844v-60h-844v60z" />
    <glyph glyph-name="Hcircumflex" unicode="&#x124;" horiz-adv-x="916" 
d="M384 0h-348v10h91v738h-91v10h348v-10h-92v-326h332v326h-91v10h347v-10h-91v-738h91v-10h-347v10h91v352h-332v-352h92v-10zM429 986h58l142 -143h-10l-161 63l-161 -63h-10z" />
    <glyph glyph-name="Ibreve" unicode="&#x12c;" horiz-adv-x="420" 
d="M384 0h-348v10h91v738h-91v10h348v-10h-92v-738h92v-10zM210 837q-18 0 -43.5 5.5t-50.5 22t-44.5 48t-24.5 84.5h53q8 -59 38.5 -86t71.5 -27q40 0 71 27t39 86h53q-5 -53 -24.5 -84.5t-44.5 -48t-50.5 -22t-43.5 -5.5z" />
    <glyph glyph-name="Idotaccent" unicode="&#x130;" horiz-adv-x="420" 
d="M384 0h-348v10h91v738h-91v10h348v-10h-92v-738h92v-10zM211 851q-32 0 -53 21t-21 52q0 32 21 53t53 21q31 0 51.5 -21t20.5 -53q0 -31 -20.5 -52t-51.5 -21z" />
    <glyph glyph-name="Imacron" unicode="&#x12a;" horiz-adv-x="420" 
d="M384 0h-348v10h91v738h-91v10h348v-10h-92v-738h92v-10zM53 944h314v-64h-314v64z" />
    <glyph glyph-name="Iogonek" unicode="&#x12e;" horiz-adv-x="420" 
d="M384 0h-348v10h91v738h-91v10h348v-10h-92v-738h92v-10zM318 -167q-9 -11 -20.5 -23t-26 -21.5t-31.5 -16t-38 -6.5q-39 0 -67 22t-28 64q0 23 12.5 45t33 41.5t46 35t51.5 26.5h19q-33 -23 -54 -53t-21 -62q0 -33 17.5 -49t40.5 -16q34 0 60 20z" />
    <glyph glyph-name="Itilde" unicode="&#x128;" horiz-adv-x="420" 
d="M384 0h-348v10h91v738h-91v10h348v-10h-92v-738h92v-10zM46 851q1 77 26.5 116t67.5 39q22 0 43 -10.5t41 -22.5t39 -22.5t38 -10.5q32 0 46.5 14.5t16.5 48.5h10q0 -48 -8.5 -77.5t-21 -46t-28.5 -22.5t-32 -6q-26 0 -46.5 10t-39.5 22.5t-37.5 22.5t-40.5 10
q-60 0 -64 -65h-10z" />
    <glyph glyph-name="uni1ECA" unicode="&#x1eca;" horiz-adv-x="420" 
d="M384 0h-348v10h91v738h-91v10h348v-10h-92v-738h92v-10zM211 -238q-32 0 -53 21t-21 52q0 32 21 53t53 21q31 0 51.5 -21t20.5 -53q0 -31 -20.5 -52t-51.5 -21z" />
    <glyph glyph-name="Jcircumflex" unicode="&#x134;" horiz-adv-x="460" 
d="M132 -143q-35 0 -66 8t-53.5 23t-35.5 36t-13 46q0 21 9.5 36.5t25.5 25t36 12.5t41 -2q9 -37 19.5 -67.5t23.5 -52.5t29 -34.5t36 -12.5q35 0 51.5 23t16.5 55q0 37 -20.5 73.5t-57.5 59.5l-2 662h-91v10h347v-10h-91v-641q0 -69 -16.5 -116.5t-44 -77t-65 -43
t-79.5 -13.5zM224 986h58l142 -143h-10l-161 63l-161 -63h-10z" />
    <glyph glyph-name="uni0136" unicode="&#x136;" horiz-adv-x="846" 
d="M384 0h-348v10h91v738h-91v10h348v-10h-92v-335l394 335h-112v10h245v-10h-114l-409 -347h199l375 -401h-218l-360 385v-375h92v-10zM469 -78q21 0 39 -8.5t31 -23t20.5 -34.5t7.5 -43q0 -30 -12.5 -56t-33.5 -48.5t-49 -41t-58 -31.5l-4 8q43 23 67.5 51.5t24.5 63.5
q0 21 -8 37t-22 27.5t-32 18.5t-39 12q-1 30 18.5 49t49.5 19z" />
    <glyph glyph-name="Lacute" unicode="&#x139;" horiz-adv-x="713" 
d="M477 10q18 0 27 4.5t18 15.5l185 231h6l-69 -261h-608v10h91v738h-91v10h348v-10h-92v-738h185zM408 969l-252 -126h-10l82 129h180v-3z" />
    <glyph glyph-name="Lcaron" unicode="&#x13d;" horiz-adv-x="713" 
d="M477 10q18 0 27 4.5t18 15.5l185 231h6l-69 -261h-608v10h91v738h-91v10h348v-10h-92v-738h185zM511 776q43 0 71 -31t28 -79q0 -30 -12.5 -56t-34 -48.5t-49 -41t-57.5 -31.5l-4 8q42 23 61.5 55.5t19.5 63.5q0 42 -24.5 62.5t-66.5 28.5q0 31 19 50t49 19z" />
    <glyph glyph-name="uni013B" unicode="&#x13b;" horiz-adv-x="713" 
d="M477 10q18 0 27 4.5t18 15.5l185 231h6l-69 -261h-608v10h91v738h-91v10h348v-10h-92v-738h185zM364 -78q21 0 39 -8.5t31 -23t20.5 -34.5t7.5 -43q0 -30 -12.5 -56t-33.5 -48.5t-49 -41t-58 -31.5l-4 8q43 23 67.5 51.5t24.5 63.5q0 21 -8 37t-22 27.5t-32 18.5t-39 12
q-1 30 18.5 49t49.5 19z" />
    <glyph glyph-name="Ldot" unicode="&#x13f;" horiz-adv-x="713" 
d="M477 10q18 0 27 4.5t18 15.5l185 231h6l-69 -261h-608v10h91v738h-91v10h348v-10h-92v-738h185zM567 342q-32 0 -53 20.5t-21 51.5q0 32 21 53t53 21q31 0 51.5 -21t20.5 -53q0 -31 -20.5 -51.5t-51.5 -20.5z" />
    <glyph glyph-name="glyph223" horiz-adv-x="713" 
d="M477 10q18 0 27 4.5t18 15.5l185 231h6l-69 -261h-608v10h91v738h-91v10h348v-10h-92v-738h185zM567 342q-32 0 -53 20.5t-21 51.5q0 32 21 53t53 21q31 0 51.5 -21t20.5 -53q0 -31 -20.5 -51.5t-51.5 -20.5z" />
    <glyph glyph-name="Lslash" unicode="&#x141;" horiz-adv-x="713" 
d="M477 10q18 0 27 4.5t18 15.5l185 231h6l-69 -261h-608v10h91v738h-91v10h348v-10h-92v-738h185zM-10 237l439 345v-76l-439 -345v76z" />
    <glyph glyph-name="Eng" unicode="&#x14a;" horiz-adv-x="849" 
d="M51 10h97v594l-137 152v2h207l498 -532v522h-96v10h205v-10h-97v-699q0 -39 -8 -68.5t-22 -53.5t-33.5 -43.5t-42.5 -37.5q-13 -11 -31 -24t-39 -27.5t-42.5 -29.5t-42.5 -28l-6 7q35 29 58 54.5t36.5 56t19 70.5t5.5 97v104l-420 465v-581h96v-10h-205v10z" />
    <glyph glyph-name="Nacute" unicode="&#x143;" horiz-adv-x="850" 
d="M51 10h97v595l-137 151v2h207l498 -532v522h-96v10h205v-10h-97v-779h-3l-565 623v-582h96v-10h-205v10zM655 969l-252 -126h-10l82 129h180v-3z" />
    <glyph glyph-name="Ncaron" unicode="&#x147;" horiz-adv-x="850" 
d="M51 10h97v595l-137 151v2h207l498 -532v522h-96v10h205v-10h-97v-779h-3l-565 623v-582h96v-10h-205v10zM285 986h10l161 -63l161 63h10l-142 -143h-58z" />
    <glyph glyph-name="uni0145" unicode="&#x145;" horiz-adv-x="850" 
d="M51 10h97v595l-137 151v2h207l498 -532v522h-96v10h205v-10h-97v-779h-3l-565 623v-582h96v-10h-205v10zM416 -78q21 0 39 -8.5t31 -23t20.5 -34.5t7.5 -43q0 -30 -12.5 -56t-33.5 -48.5t-49 -41t-58 -31.5l-4 8q43 23 67.5 51.5t24.5 63.5q0 21 -8 37t-22 27.5t-32 18.5
t-39 12q-1 30 18.5 49t49.5 19z" />
    <glyph glyph-name="OE" unicode="&#x152;" horiz-adv-x="1341" 
d="M464 -13q-80 0 -156.5 26.5t-136.5 77.5t-96.5 124.5t-36.5 167.5t36.5 167.5t96.5 124.5t136.5 77.5t156.5 26.5q88 0 163.5 -34.5t129.5 -100.5v114h438l47 -235h-6l-162 204q-11 14 -19 17.5t-27 3.5h-162v-355h121q10 0 14.5 2.5t9.5 13.5l59 127h6v-297h-6l-59 127
q-5 11 -9.5 14t-14.5 3h-121v-373h222q19 0 27.5 4.5t18.5 15.5l184 231h6l-69 -261h-498v123q-52 -64 -127 -100t-166 -36zM416 765q-46 0 -85 -18.5t-67 -53t-44 -84t-16 -112.5q0 -50 9.5 -106.5t28 -111.5t45.5 -105t61 -88.5t75 -61t88 -22.5q46 0 85 18.5t67 53t44 84
t16 112.5q0 50 -9.5 106.5t-28 111.5t-45.5 105t-61 88.5t-75 61t-88 22.5z" />
    <glyph glyph-name="Obreve" unicode="&#x14e;" horiz-adv-x="927" 
d="M464 -13q-80 0 -156.5 26.5t-136.5 77.5t-96.5 124.5t-36.5 167.5t36.5 167.5t96.5 124.5t136.5 77.5t156.5 26.5t156.5 -26.5t136 -77.5t96 -124.5t36.5 -167.5t-36.5 -167.5t-96 -124.5t-136 -77.5t-156.5 -26.5zM511 1q41 0 79 16t67.5 49t47.5 83.5t18 119.5
q0 50 -9.5 106t-27.5 111t-44.5 105.5t-60.5 89t-75.5 61.5t-89.5 23q-41 0 -79 -16t-67.5 -49t-47.5 -83.5t-18 -119.5q0 -50 9.5 -106t27.5 -111t44.5 -105.5t60.5 -89t75.5 -61.5t89.5 -23zM464 837q-18 0 -43.5 5.5t-50.5 22t-44.5 48t-24.5 84.5h53q8 -59 38.5 -86
t71.5 -27q40 0 71 27t39 86h53q-5 -53 -24.5 -84.5t-44.5 -48t-50.5 -22t-43.5 -5.5z" />
    <glyph glyph-name="Ohungarumlaut" unicode="&#x150;" horiz-adv-x="927" 
d="M464 -13q-80 0 -156.5 26.5t-136.5 77.5t-96.5 124.5t-36.5 167.5t36.5 167.5t96.5 124.5t136.5 77.5t156.5 26.5t156.5 -26.5t136 -77.5t96 -124.5t36.5 -167.5t-36.5 -167.5t-96 -124.5t-136 -77.5t-156.5 -26.5zM511 1q41 0 79 16t67.5 49t47.5 83.5t18 119.5
q0 50 -9.5 106t-27.5 111t-44.5 105.5t-60.5 89t-75.5 61.5t-89.5 23q-41 0 -79 -16t-67.5 -49t-47.5 -83.5t-18 -119.5q0 -50 9.5 -106t27.5 -111t44.5 -105.5t60.5 -89t75.5 -61.5t89.5 -23zM816 969l-252 -126h-10l82 129h180v-3zM606 969l-252 -126h-10l83 129h179v-3z
" />
    <glyph glyph-name="Omacron" unicode="&#x14c;" horiz-adv-x="927" 
d="M464 -13q-80 0 -156.5 26.5t-136.5 77.5t-96.5 124.5t-36.5 167.5t36.5 167.5t96.5 124.5t136.5 77.5t156.5 26.5t156.5 -26.5t136 -77.5t96 -124.5t36.5 -167.5t-36.5 -167.5t-96 -124.5t-136 -77.5t-156.5 -26.5zM511 1q41 0 79 16t67.5 49t47.5 83.5t18 119.5
q0 50 -9.5 106t-27.5 111t-44.5 105.5t-60.5 89t-75.5 61.5t-89.5 23q-41 0 -79 -16t-67.5 -49t-47.5 -83.5t-18 -119.5q0 -50 9.5 -106t27.5 -111t44.5 -105.5t60.5 -89t75.5 -61.5t89.5 -23zM307 944h314v-64h-314v64z" />
    <glyph glyph-name="uni1ECC" unicode="&#x1ecc;" horiz-adv-x="927" 
d="M464 -13q-80 0 -156.5 26.5t-136.5 77.5t-96.5 124.5t-36.5 167.5t36.5 167.5t96.5 124.5t136.5 77.5t156.5 26.5t156.5 -26.5t136 -77.5t96 -124.5t36.5 -167.5t-36.5 -167.5t-96 -124.5t-136 -77.5t-156.5 -26.5zM511 1q41 0 79 16t67.5 49t47.5 83.5t18 119.5
q0 50 -9.5 106t-27.5 111t-44.5 105.5t-60.5 89t-75.5 61.5t-89.5 23q-41 0 -79 -16t-67.5 -49t-47.5 -83.5t-18 -119.5q0 -50 9.5 -106t27.5 -111t44.5 -105.5t60.5 -89t75.5 -61.5t89.5 -23zM484 -238q-32 0 -53 21t-21 52q0 32 21 53t53 21q31 0 51.5 -21t20.5 -53
q0 -31 -20.5 -52t-51.5 -21z" />
    <glyph glyph-name="Racute" unicode="&#x154;" horiz-adv-x="802" 
d="M36 10h91v738h-91v10h316q79 0 142.5 -9t108 -30t68 -55.5t23.5 -85.5q0 -41 -18.5 -72.5t-53 -54t-83.5 -36.5t-109 -20v-2q36 -4 64.5 -17t52.5 -32.5t45 -44t43 -51.5l199 -248h-202l-299 381h-41v-371h102v-10h-358v10zM346 391q45 0 77.5 13t53 36.5t30 56.5t9.5 73
q0 39 -9.5 72t-30 56.5t-53 36.5t-77.5 13h-54v-357h54zM611 969l-252 -126h-10l82 129h180v-3z" />
    <glyph glyph-name="Rcaron" unicode="&#x158;" horiz-adv-x="802" 
d="M36 10h91v738h-91v10h316q79 0 142.5 -9t108 -30t68 -55.5t23.5 -85.5q0 -41 -18.5 -72.5t-53 -54t-83.5 -36.5t-109 -20v-2q36 -4 64.5 -17t52.5 -32.5t45 -44t43 -51.5l199 -248h-202l-299 381h-41v-371h102v-10h-358v10zM346 391q45 0 77.5 13t53 36.5t30 56.5t9.5 73
q0 39 -9.5 72t-30 56.5t-53 36.5t-77.5 13h-54v-357h54zM242 986h10l161 -63l161 63h10l-142 -143h-58z" />
    <glyph glyph-name="uni0156" unicode="&#x156;" horiz-adv-x="802" 
d="M36 10h91v738h-91v10h316q79 0 142.5 -9t108 -30t68 -55.5t23.5 -85.5q0 -41 -18.5 -72.5t-53 -54t-83.5 -36.5t-109 -20v-2q36 -4 64.5 -17t52.5 -32.5t45 -44t43 -51.5l199 -248h-202l-299 381h-41v-371h102v-10h-358v10zM346 391q45 0 77.5 13t53 36.5t30 56.5t9.5 73
q0 39 -9.5 72t-30 56.5t-53 36.5t-77.5 13h-54v-357h54zM451 -78q21 0 39 -8.5t31 -23t20.5 -34.5t7.5 -43q0 -30 -12.5 -56t-33.5 -48.5t-49 -41t-58 -31.5l-4 8q43 23 67.5 51.5t24.5 63.5q0 21 -8 37t-22 27.5t-32 18.5t-39 12q-1 30 18.5 49t49.5 19z" />
    <glyph glyph-name="Sacute" unicode="&#x15a;" horiz-adv-x="655" 
d="M323 -13q-53 0 -101.5 13.5t-74.5 33.5l-45 -44h-6l-38 299h6q25 -80 53.5 -135.5t60.5 -90.5t68.5 -51t78.5 -16q78 0 124.5 38.5t46.5 102.5q0 34 -11.5 59t-33 43.5t-52.5 32.5t-69 25l-67 20q-99 29 -151 92.5t-52 149.5q0 54 22.5 95t59 69t82.5 42t93 14
q45 0 89.5 -12.5t71.5 -35.5l43 45h6l37 -280h-6q-26 78 -53 130.5t-57 84.5t-63 45.5t-71 13.5q-30 0 -56 -8.5t-45.5 -25t-30.5 -40t-11 -53.5q0 -60 36 -95.5t102 -56.5l66 -21q51 -17 94.5 -38t75 -50t49 -67.5t17.5 -89.5q0 -55 -24.5 -99t-65 -75t-92 -47.5
t-106.5 -16.5zM526 969l-252 -126h-10l82 129h180v-3z" />
    <glyph glyph-name="Scaron" unicode="&#x160;" horiz-adv-x="655" 
d="M323 -13q-53 0 -101.5 13.5t-74.5 33.5l-45 -44h-6l-38 299h6q25 -80 53.5 -135.5t60.5 -90.5t68.5 -51t78.5 -16q78 0 124.5 38.5t46.5 102.5q0 34 -11.5 59t-33 43.5t-52.5 32.5t-69 25l-67 20q-99 29 -151 92.5t-52 149.5q0 54 22.5 95t59 69t82.5 42t93 14
q45 0 89.5 -12.5t71.5 -35.5l43 45h6l37 -280h-6q-26 78 -53 130.5t-57 84.5t-63 45.5t-71 13.5q-30 0 -56 -8.5t-45.5 -25t-30.5 -40t-11 -53.5q0 -60 36 -95.5t102 -56.5l66 -21q51 -17 94.5 -38t75 -50t49 -67.5t17.5 -89.5q0 -55 -24.5 -99t-65 -75t-92 -47.5
t-106.5 -16.5zM157 986h10l161 -63l161 63h10l-142 -143h-58z" />
    <glyph glyph-name="Scedilla" unicode="&#x15e;" horiz-adv-x="655" 
d="M323 -13q-53 0 -101.5 13.5t-74.5 33.5l-45 -44h-6l-38 299h6q25 -80 53.5 -135.5t60.5 -90.5t68.5 -51t78.5 -16q78 0 124.5 38.5t46.5 102.5q0 34 -11.5 59t-33 43.5t-52.5 32.5t-69 25l-67 20q-99 29 -151 92.5t-52 149.5q0 54 22.5 95t59 69t82.5 42t93 14
q45 0 89.5 -12.5t71.5 -35.5l43 45h6l37 -280h-6q-26 78 -53 130.5t-57 84.5t-63 45.5t-71 13.5q-30 0 -56 -8.5t-45.5 -25t-30.5 -40t-11 -53.5q0 -60 36 -95.5t102 -56.5l66 -21q51 -17 94.5 -38t75 -50t49 -67.5t17.5 -89.5q0 -55 -24.5 -99t-65 -75t-92 -47.5
t-106.5 -16.5zM300 -269q-20 0 -38 3.5t-32.5 10.5t-23 17t-8.5 23q0 18 15.5 28t36.5 2l41 -60q5 -8 9.5 -11t12.5 -3q26 0 42 11.5t16 28.5q0 14 -9.5 27t-26.5 24.5t-40 21.5t-50 18l113 126h12l-63 -72q54 -22 78.5 -43.5t24.5 -59.5q0 -17 -8 -33.5t-22.5 -29.5
t-34.5 -21t-45 -8z" />
    <glyph glyph-name="Scircumflex" unicode="&#x15c;" horiz-adv-x="655" 
d="M323 -13q-53 0 -101.5 13.5t-74.5 33.5l-45 -44h-6l-38 299h6q25 -80 53.5 -135.5t60.5 -90.5t68.5 -51t78.5 -16q78 0 124.5 38.5t46.5 102.5q0 34 -11.5 59t-33 43.5t-52.5 32.5t-69 25l-67 20q-99 29 -151 92.5t-52 149.5q0 54 22.5 95t59 69t82.5 42t93 14
q45 0 89.5 -12.5t71.5 -35.5l43 45h6l37 -280h-6q-26 78 -53 130.5t-57 84.5t-63 45.5t-71 13.5q-30 0 -56 -8.5t-45.5 -25t-30.5 -40t-11 -53.5q0 -60 36 -95.5t102 -56.5l66 -21q51 -17 94.5 -38t75 -50t49 -67.5t17.5 -89.5q0 -55 -24.5 -99t-65 -75t-92 -47.5
t-106.5 -16.5zM299 986h58l142 -143h-10l-161 63l-161 -63h-10z" />
    <glyph glyph-name="uni0218" unicode="&#x218;" horiz-adv-x="655" 
d="M323 -13q-53 0 -101.5 13.5t-74.5 33.5l-45 -44h-6l-38 299h6q25 -80 53.5 -135.5t60.5 -90.5t68.5 -51t78.5 -16q78 0 124.5 38.5t46.5 102.5q0 34 -11.5 59t-33 43.5t-52.5 32.5t-69 25l-67 20q-99 29 -151 92.5t-52 149.5q0 54 22.5 95t59 69t82.5 42t93 14
q45 0 89.5 -12.5t71.5 -35.5l43 45h6l37 -280h-6q-26 78 -53 130.5t-57 84.5t-63 45.5t-71 13.5q-30 0 -56 -8.5t-45.5 -25t-30.5 -40t-11 -53.5q0 -60 36 -95.5t102 -56.5l66 -21q51 -17 94.5 -38t75 -50t49 -67.5t17.5 -89.5q0 -55 -24.5 -99t-65 -75t-92 -47.5
t-106.5 -16.5zM320 -78q21 0 39 -8.5t31 -23t20.5 -34.5t7.5 -43q0 -30 -12.5 -56t-33.5 -48.5t-49 -41t-58 -31.5l-4 8q43 23 67.5 51.5t24.5 63.5q0 21 -8 37t-22 27.5t-32 18.5t-39 12q-1 30 18.5 49t49.5 19z" />
    <glyph glyph-name="Tbar" unicode="&#x166;" horiz-adv-x="797" 
d="M210 10h106v738h-148q-17 0 -23.5 -3.5t-13.5 -17.5l-113 -235h-6l37 316h7l90 -50h506l90 50h6l38 -316h-6l-114 235q-7 14 -13.5 17.5t-23.5 3.5h-148v-738h106v-10h-377v10zM152 422h493v-60h-493v60z" />
    <glyph glyph-name="Tcaron" unicode="&#x164;" horiz-adv-x="797" 
d="M210 10h106v738h-148q-17 0 -23.5 -3.5t-13.5 -17.5l-113 -235h-6l37 316h7l90 -50h506l90 50h6l38 -316h-6l-114 235q-7 14 -13.5 17.5t-23.5 3.5h-148v-738h106v-10h-377v10zM227 986h10l161 -63l161 63h10l-142 -143h-58z" />
    <glyph glyph-name="uni0162" unicode="&#x162;" horiz-adv-x="797" 
d="M210 10h106v738h-148q-17 0 -23.5 -3.5t-13.5 -17.5l-113 -235h-6l37 316h7l90 -50h506l90 50h6l38 -316h-6l-114 235q-7 14 -13.5 17.5t-23.5 3.5h-148v-738h106v-10h-377v10zM384 -78q21 0 39 -8.5t31 -23t20.5 -34.5t7.5 -43q0 -30 -12.5 -56t-33.5 -48.5t-49 -41
t-58 -31.5l-4 8q43 23 67.5 51.5t24.5 63.5q0 21 -8 37t-22 27.5t-32 18.5t-39 12q-1 30 18.5 49t49.5 19z" />
    <glyph glyph-name="uni021A" unicode="&#x21a;" horiz-adv-x="797" 
d="M210 10h106v738h-148q-17 0 -23.5 -3.5t-13.5 -17.5l-113 -235h-6l37 316h7l90 -50h506l90 50h6l38 -316h-6l-114 235q-7 14 -13.5 17.5t-23.5 3.5h-148v-738h106v-10h-377v10zM384 -78q21 0 39 -8.5t31 -23t20.5 -34.5t7.5 -43q0 -30 -12.5 -56t-33.5 -48.5t-49 -41
t-58 -31.5l-4 8q43 23 67.5 51.5t24.5 63.5q0 21 -8 37t-22 27.5t-32 18.5t-39 12q-1 30 18.5 49t49.5 19z" />
    <glyph glyph-name="Ubreve" unicode="&#x16c;" horiz-adv-x="844" 
d="M428 -13q-75 0 -134.5 17t-101 54t-63.5 93.5t-22 136.5v460h-91v10h347v-10h-91v-442q0 -135 53 -201t169 -66q50 0 92 13t72.5 43t47.5 79t17 121v453h-97v10h207v-10h-98v-453q0 -150 -73.5 -229t-233.5 -79zM482 837q-18 0 -43.5 5.5t-50.5 22t-44.5 48t-24.5 84.5
h53q8 -59 38.5 -86t71.5 -27q40 0 71 27t39 86h53q-5 -53 -24.5 -84.5t-44.5 -48t-50.5 -22t-43.5 -5.5z" />
    <glyph glyph-name="Uhungarumlaut" unicode="&#x170;" horiz-adv-x="844" 
d="M428 -13q-75 0 -134.5 17t-101 54t-63.5 93.5t-22 136.5v460h-91v10h347v-10h-91v-442q0 -135 53 -201t169 -66q50 0 92 13t72.5 43t47.5 79t17 121v453h-97v10h207v-10h-98v-453q0 -150 -73.5 -229t-233.5 -79zM834 969l-252 -126h-10l82 129h180v-3zM624 969l-252 -126
h-10l83 129h179v-3z" />
    <glyph glyph-name="Umacron" unicode="&#x16a;" horiz-adv-x="844" 
d="M428 -13q-75 0 -134.5 17t-101 54t-63.5 93.5t-22 136.5v460h-91v10h347v-10h-91v-442q0 -135 53 -201t169 -66q50 0 92 13t72.5 43t47.5 79t17 121v453h-97v10h207v-10h-98v-453q0 -150 -73.5 -229t-233.5 -79zM325 944h314v-64h-314v64z" />
    <glyph glyph-name="Uogonek" unicode="&#x172;" horiz-adv-x="844" 
d="M428 -13q-75 0 -134.5 17t-101 54t-63.5 93.5t-22 136.5v460h-91v10h347v-10h-91v-442q0 -135 53 -201t169 -66q50 0 92 13t72.5 43t47.5 79t17 121v453h-97v10h207v-10h-98v-453q0 -139 -62.5 -217t-196.5 -89q-56 -45 -56 -104q0 -33 17.5 -49t40.5 -16q34 0 60 20
l6 -7q-9 -11 -20.5 -23t-26 -21.5t-31.5 -16t-38 -6.5q-39 0 -67 22t-28 64q0 20 10 39.5t26.5 37t37.5 32.5t44 27q-5 -1 -11 -1h-12z" />
    <glyph glyph-name="Uring" unicode="&#x16e;" horiz-adv-x="844" 
d="M428 -13q-75 0 -134.5 17t-101 54t-63.5 93.5t-22 136.5v460h-91v10h347v-10h-91v-442q0 -135 53 -201t169 -66q50 0 92 13t72.5 43t47.5 79t17 121v453h-97v10h207v-10h-98v-453q0 -150 -73.5 -229t-233.5 -79zM371 964q0 22 9 42t24 34.5t35.5 23t43.5 8.5
q22 0 42.5 -8.5t36 -23t24.5 -34.5t9 -42q0 -23 -9 -42.5t-24.5 -33.5t-36 -22.5t-42.5 -8.5q-23 0 -43.5 8.5t-35.5 22.5t-24 33.5t-9 42.5zM546 964q0 29 -17 47.5t-46 18.5q-30 0 -47 -18.5t-17 -47.5t17 -47t47 -18q29 0 46 18t17 47z" />
    <glyph glyph-name="Utilde" unicode="&#x168;" horiz-adv-x="844" 
d="M428 -13q-75 0 -134.5 17t-101 54t-63.5 93.5t-22 136.5v460h-91v10h347v-10h-91v-442q0 -135 53 -201t169 -66q50 0 92 13t72.5 43t47.5 79t17 121v453h-97v10h207v-10h-98v-453q0 -150 -73.5 -229t-233.5 -79zM318 851q1 77 26.5 116t67.5 39q22 0 43 -10.5t41 -22.5
t39 -22.5t38 -10.5q32 0 46.5 14.5t16.5 48.5h10q0 -48 -8.5 -77.5t-21 -46t-28.5 -22.5t-32 -6q-26 0 -46.5 10t-39.5 22.5t-37.5 22.5t-40.5 10q-60 0 -64 -65h-10z" />
    <glyph glyph-name="uni1EE4" unicode="&#x1ee4;" horiz-adv-x="844" 
d="M428 -13q-75 0 -134.5 17t-101 54t-63.5 93.5t-22 136.5v460h-91v10h347v-10h-91v-442q0 -135 53 -201t169 -66q50 0 92 13t72.5 43t47.5 79t17 121v453h-97v10h207v-10h-98v-453q0 -150 -73.5 -229t-233.5 -79zM442 -238q-32 0 -53 21t-21 52q0 32 21 53t53 21
q31 0 51.5 -21t20.5 -53q0 -31 -20.5 -52t-51.5 -21z" />
    <glyph glyph-name="Wacute" unicode="&#x1e82;" horiz-adv-x="1157" 
d="M588 461l-206 -475h-6l-331 762h-83v10h258l238 -566l123 287l-111 279h300v-10h-117l206 -554l239 554h-91v10h188v-10h-83l-330 -762h-6zM766 969l-252 -126h-10l82 129h180v-3z" />
    <glyph glyph-name="Wcircumflex" unicode="&#x174;" horiz-adv-x="1157" 
d="M588 461l-206 -475h-6l-331 762h-83v10h258l238 -566l123 287l-111 279h300v-10h-117l206 -554l239 554h-91v10h188v-10h-83l-330 -762h-6zM539 986h58l142 -143h-10l-161 63l-161 -63h-10z" />
    <glyph glyph-name="Wdieresis" unicode="&#x1e84;" horiz-adv-x="1157" 
d="M588 461l-206 -475h-6l-331 762h-83v10h258l238 -566l123 287l-111 279h300v-10h-117l206 -554l239 554h-91v10h188v-10h-83l-330 -762h-6zM454 851q-32 0 -52.5 21t-20.5 52q0 32 20.5 53t52.5 21t52.5 -21t20.5 -53q0 -31 -20.5 -52t-52.5 -21zM683 851q-32 0 -53 21
t-21 52q0 32 21 53t53 21q31 0 51.5 -21t20.5 -53q0 -31 -20.5 -52t-51.5 -21z" />
    <glyph glyph-name="Wgrave" unicode="&#x1e80;" horiz-adv-x="1157" 
d="M588 461l-206 -475h-6l-331 762h-83v10h258l238 -566l123 287l-111 279h300v-10h-117l206 -554l239 554h-91v10h188v-10h-83l-330 -762h-6zM516 972l81 -129h-10l-252 126v3h181z" />
    <glyph glyph-name="Ycircumflex" unicode="&#x176;" horiz-adv-x="793" 
d="M220 10h97v366l-254 372h-93v10h373v-10h-93l233 -346l235 346h-94v10h193v-10h-84l-252 -371v-367h97v-10h-358v10zM421 986h58l142 -143h-10l-161 63l-161 -63h-10z" />
    <glyph glyph-name="Ydieresis" unicode="&#x178;" horiz-adv-x="793" 
d="M220 10h97v366l-254 372h-93v10h373v-10h-93l233 -346l235 346h-94v10h193v-10h-84l-252 -371v-367h97v-10h-358v10zM336 851q-32 0 -52.5 21t-20.5 52q0 32 20.5 53t52.5 21t52.5 -21t20.5 -53q0 -31 -20.5 -52t-52.5 -21zM565 851q-32 0 -53 21t-21 52q0 32 21 53
t53 21q31 0 51.5 -21t20.5 -53q0 -31 -20.5 -52t-51.5 -21z" />
    <glyph glyph-name="Ygrave" unicode="&#x1ef2;" horiz-adv-x="793" 
d="M220 10h97v366l-254 372h-93v10h373v-10h-93l233 -346l235 346h-94v10h193v-10h-84l-252 -371v-367h97v-10h-358v10zM398 972l81 -129h-10l-252 126v3h181z" />
    <glyph glyph-name="uni0232" unicode="&#x232;" horiz-adv-x="793" 
d="M220 10h97v366l-254 372h-93v10h373v-10h-93l233 -346l235 346h-94v10h193v-10h-84l-252 -371v-367h97v-10h-358v10zM293 944h314v-64h-314v64z" />
    <glyph glyph-name="Zacute" unicode="&#x179;" horiz-adv-x="764" 
d="M537 748h-258q-19 0 -28 -3.5t-18 -15.5l-171 -216h-10l98 295h9l80 -50h491l-543 -748h306q20 0 28 3t19 17l189 231h9l-74 -261h-671zM635 969l-252 -126h-10l82 129h180v-3z" />
    <glyph glyph-name="Zcaron" unicode="&#x17d;" horiz-adv-x="764" 
d="M537 748h-258q-19 0 -28 -3.5t-18 -15.5l-171 -216h-10l98 295h9l80 -50h491l-543 -748h306q20 0 28 3t19 17l189 231h9l-74 -261h-671zM266 986h10l161 -63l161 63h10l-142 -143h-58z" />
    <glyph glyph-name="Zdotaccent" unicode="&#x17b;" horiz-adv-x="764" 
d="M537 748h-258q-19 0 -28 -3.5t-18 -15.5l-171 -216h-10l98 295h9l80 -50h491l-543 -748h306q20 0 28 3t19 17l189 231h9l-74 -261h-671zM438 851q-32 0 -53 21t-21 52q0 32 21 53t53 21q31 0 51.5 -21t20.5 -53q0 -31 -20.5 -52t-51.5 -21z" />
    <glyph glyph-name="uni018F" unicode="&#x18f;" horiz-adv-x="842" 
d="M418 -13q-62 0 -120.5 15.5t-106.5 46t-81.5 77t-46.5 109.5h586q1 10 1.5 20.5t0.5 21.5q0 79 -21 145.5t-62 114.5t-100.5 74.5t-136.5 26.5q-46 0 -93 -12.5t-87 -42t-69 -78t-39 -120.5h-13q5 91 36.5 164t83.5 124t121.5 78.5t149.5 27.5q82 0 152 -27.5t121 -79
t79.5 -125t28.5 -164.5q0 -94 -32.5 -167.5t-86 -124.5t-123 -77.5t-142.5 -26.5zM429 1q40 0 76.5 15t65.5 43.5t49 69t27 92.5h-244q-41 0 -67.5 -4.5t-42.5 -14t-22.5 -24.5t-6.5 -36q0 -24 9 -49.5t29 -45.5t51 -33t76 -13z" />
    <glyph glyph-name="abreve" unicode="&#x103;" horiz-adv-x="549" 
d="M191 -13q-32 0 -60 10.5t-49 28.5t-33.5 42.5t-12.5 53.5q0 35 15.5 56.5t41 36.5t58.5 27.5t69 30.5q24 12 43 25t33 25q17 14 24.5 30t7.5 42q0 49 -22.5 78t-57.5 29q-18 0 -35 -7t-28 -25.5t-14 -50.5t6 -82q-10 -14 -29.5 -20.5t-34.5 -6.5q-32 0 -55 13t-23 39
q0 30 26 52.5t56 40.5l42 24t44.5 21.5t50.5 15t60 5.5q32 0 61 -6t51 -23.5t35 -48.5t13 -81v-352h71v-10h-208l-10 94q-14 -54 -51.5 -80.5t-84.5 -26.5zM263 42q25 0 43 24.5t19 69.5l3 205q-7 -8 -15.5 -15.5t-17.5 -15.5q-19 -15 -37.5 -30t-33.5 -32t-24.5 -36.5
t-9.5 -43.5q0 -25 5.5 -48t15 -40t23 -27.5t29.5 -10.5zM270 598q-18 0 -43.5 5.5t-50.5 22t-44.5 48t-24.5 84.5h53q8 -59 38.5 -86t71.5 -27q40 0 71 27t39 86h53q-5 -53 -24.5 -84.5t-44.5 -48t-50.5 -22t-43.5 -5.5z" />
    <glyph glyph-name="amacron" unicode="&#x101;" horiz-adv-x="549" 
d="M191 -13q-32 0 -60 10.5t-49 28.5t-33.5 42.5t-12.5 53.5q0 35 15.5 56.5t41 36.5t58.5 27.5t69 30.5q24 12 43 25t33 25q17 14 24.5 30t7.5 42q0 49 -22.5 78t-57.5 29q-18 0 -35 -7t-28 -25.5t-14 -50.5t6 -82q-10 -14 -29.5 -20.5t-34.5 -6.5q-32 0 -55 13t-23 39
q0 30 26 52.5t56 40.5l42 24t44.5 21.5t50.5 15t60 5.5q32 0 61 -6t51 -23.5t35 -48.5t13 -81v-352h71v-10h-208l-10 94q-14 -54 -51.5 -80.5t-84.5 -26.5zM263 42q25 0 43 24.5t19 69.5l3 205q-7 -8 -15.5 -15.5t-17.5 -15.5q-19 -15 -37.5 -30t-33.5 -32t-24.5 -36.5
t-9.5 -43.5q0 -25 5.5 -48t15 -40t23 -27.5t29.5 -10.5zM113 705h314v-64h-314v64z" />
    <glyph glyph-name="aogonek" unicode="&#x105;" horiz-adv-x="549" 
d="M191 -13q-32 0 -60 10.5t-49 28.5t-33.5 42.5t-12.5 53.5q0 35 15.5 56.5t41 36.5t58.5 27.5t69 30.5q24 12 43 25t33 25q17 14 24.5 30t7.5 42q0 49 -22.5 78t-57.5 29q-18 0 -35 -7t-28 -25.5t-14 -50.5t6 -82q-10 -14 -29.5 -20.5t-34.5 -6.5q-32 0 -55 13t-23 39
q0 30 26 52.5t56 40.5l42 24t44.5 21.5t50.5 15t60 5.5q32 0 61 -6t51 -23.5t35 -48.5t13 -81v-352h71v-10h-69q-33 -23 -54 -53t-21 -62q0 -33 17.5 -49t40.5 -16q34 0 60 20l6 -7q-9 -11 -20.5 -23t-26 -21.5t-31.5 -16t-38 -6.5q-39 0 -67 22t-28 64q0 23 13.5 45
t34.5 41.5t47.5 35t52.5 26.5h-125l-10 94q-14 -54 -51.5 -80.5t-84.5 -26.5zM263 42q25 0 43 24.5t19 69.5l3 205q-7 -8 -15.5 -15.5t-17.5 -15.5q-19 -15 -37.5 -30t-33.5 -32t-24.5 -36.5t-9.5 -43.5q0 -25 5.5 -48t15 -40t23 -27.5t29.5 -10.5z" />
    <glyph glyph-name="cacute" unicode="&#x107;" horiz-adv-x="548" 
d="M287 -13q-56 0 -102.5 18.5t-80.5 53t-53 83.5t-19 109q0 62 23.5 111.5t62.5 84t90 53t107 18.5q34 0 66 -8t56.5 -22t39 -35t14.5 -46q0 -37 -33 -56t-87 -11q-2 85 -30 124t-73 39q-50 0 -78.5 -46.5t-28.5 -123.5q0 -49 12 -92.5t36 -76.5t59.5 -52.5t82.5 -19.5
q23 0 48 6t48.5 22.5t42 46t29.5 76.5h9q-7 -71 -28 -120t-53 -79t-73 -43.5t-87 -13.5zM300 758h154v-3l-200 -176h-10z" />
    <glyph glyph-name="ccaron" unicode="&#x10d;" horiz-adv-x="548" 
d="M287 -13q-56 0 -102.5 18.5t-80.5 53t-53 83.5t-19 109q0 62 23.5 111.5t62.5 84t90 53t107 18.5q34 0 66 -8t56.5 -22t39 -35t14.5 -46q0 -37 -33 -56t-87 -11q-2 85 -30 124t-73 39q-50 0 -78.5 -46.5t-28.5 -123.5q0 -49 12 -92.5t36 -76.5t59.5 -52.5t82.5 -19.5
q23 0 48 6t48.5 22.5t42 46t29.5 76.5h9q-7 -71 -28 -120t-53 -79t-73 -43.5t-87 -13.5zM115 785h10l157 -95l156 95h10l-160 -207h-12z" />
    <glyph glyph-name="ccircumflex" unicode="&#x109;" horiz-adv-x="548" 
d="M287 -13q-56 0 -102.5 18.5t-80.5 53t-53 83.5t-19 109q0 62 23.5 111.5t62.5 84t90 53t107 18.5q34 0 66 -8t56.5 -22t39 -35t14.5 -46q0 -37 -33 -56t-87 -11q-2 85 -30 124t-73 39q-50 0 -78.5 -46.5t-28.5 -123.5q0 -49 12 -92.5t36 -76.5t59.5 -52.5t82.5 -19.5
q23 0 48 6t48.5 22.5t42 46t29.5 76.5h9q-7 -71 -28 -120t-53 -79t-73 -43.5t-87 -13.5zM449 579h-10l-157 96l-157 -96h-10l161 206h12z" />
    <glyph glyph-name="cdotaccent" unicode="&#x10b;" horiz-adv-x="548" 
d="M287 -13q-56 0 -102.5 18.5t-80.5 53t-53 83.5t-19 109q0 62 23.5 111.5t62.5 84t90 53t107 18.5q34 0 66 -8t56.5 -22t39 -35t14.5 -46q0 -37 -33 -56t-87 -11q-2 85 -30 124t-73 39q-50 0 -78.5 -46.5t-28.5 -123.5q0 -49 12 -92.5t36 -76.5t59.5 -52.5t82.5 -19.5
q23 0 48 6t48.5 22.5t42 46t29.5 76.5h9q-7 -71 -28 -120t-53 -79t-73 -43.5t-87 -13.5zM283 614q-32 0 -53 21t-21 52q0 32 21 53t53 21q31 0 51.5 -21t20.5 -53q0 -31 -20.5 -52t-51.5 -21z" />
    <glyph glyph-name="dcaron" unicode="&#x10f;" horiz-adv-x="676" 
d="M399 748h-96v10h244v-748h71v-10h-219v88q-17 -43 -56.5 -72t-91.5 -29q-39 0 -78 17t-70 51t-50 83t-19 114q0 62 19 111.5t50.5 84t72 52.5t82.5 18q48 0 86.5 -25t54.5 -67v322zM317 473q-21 0 -41 -11.5t-36 -37.5t-26 -67t-10 -99q0 -114 34 -167.5t82 -53.5
q23 0 47.5 21t31.5 59v280q-7 37 -31 56.5t-51 19.5zM675 776q43 0 71 -31t28 -79q0 -30 -12.5 -56t-34 -48.5t-49 -41t-57.5 -31.5l-4 8q42 23 61.5 55.5t19.5 63.5q0 42 -24.5 62.5t-66.5 28.5q0 31 19 50t49 19z" />
    <glyph glyph-name="dcroat" unicode="&#x111;" horiz-adv-x="626" 
d="M399 748h-96v10h244v-748h71v-10h-219v88q-17 -43 -56.5 -72t-91.5 -29q-39 0 -78 17t-70 51t-50 83t-19 114q0 62 19 111.5t50.5 84t72 52.5t82.5 18q48 0 86.5 -25t54.5 -67v322zM317 473q-21 0 -41 -11.5t-36 -37.5t-26 -67t-10 -99q0 -114 34 -167.5t82 -53.5
q23 0 47.5 21t31.5 59v280q-7 37 -31 56.5t-51 19.5zM258 640h360v-43h-360v43z" />
    <glyph glyph-name="ebreve" unicode="&#x115;" horiz-adv-x="569" 
d="M293 -13q-54 0 -102 18t-83 51.5t-55.5 82.5t-20.5 111q0 58 21.5 107t57.5 85t82 56t96 20q35 0 71 -8t67.5 -26.5t56 -50.5t37.5 -80h-359q-1 -6 -1 -12v-13q0 -52 13.5 -95t38 -74.5t60 -49t80.5 -17.5q25 0 53 6t53.5 23t46 46t30.5 76h8q-7 -71 -29 -120t-55.5 -79
t-76 -43.5t-90.5 -13.5zM280 508q-46 0 -78 -35.5t-39 -108.5h121q48 0 65 13t17 44q0 13 -5 28.5t-15.5 28.5t-27 21.5t-38.5 8.5zM284 598q-18 0 -43.5 5.5t-50.5 22t-44.5 48t-24.5 84.5h53q8 -59 38.5 -86t71.5 -27q40 0 71 27t39 86h53q-5 -53 -24.5 -84.5t-44.5 -48
t-50.5 -22t-43.5 -5.5z" />
    <glyph glyph-name="ecaron" unicode="&#x11b;" horiz-adv-x="569" 
d="M293 -13q-54 0 -102 18t-83 51.5t-55.5 82.5t-20.5 111q0 58 21.5 107t57.5 85t82 56t96 20q35 0 71 -8t67.5 -26.5t56 -50.5t37.5 -80h-359q-1 -6 -1 -12v-13q0 -52 13.5 -95t38 -74.5t60 -49t80.5 -17.5q25 0 53 6t53.5 23t46 46t30.5 76h8q-7 -71 -29 -120t-55.5 -79
t-76 -43.5t-90.5 -13.5zM280 508q-46 0 -78 -35.5t-39 -108.5h121q48 0 65 13t17 44q0 13 -5 28.5t-15.5 28.5t-27 21.5t-38.5 8.5zM117 785h10l157 -95l156 95h10l-160 -207h-12z" />
    <glyph glyph-name="emacron" unicode="&#x113;" horiz-adv-x="569" 
d="M293 -13q-54 0 -102 18t-83 51.5t-55.5 82.5t-20.5 111q0 58 21.5 107t57.5 85t82 56t96 20q35 0 71 -8t67.5 -26.5t56 -50.5t37.5 -80h-359q-1 -6 -1 -12v-13q0 -52 13.5 -95t38 -74.5t60 -49t80.5 -17.5q25 0 53 6t53.5 23t46 46t30.5 76h8q-7 -71 -29 -120t-55.5 -79
t-76 -43.5t-90.5 -13.5zM280 508q-46 0 -78 -35.5t-39 -108.5h121q48 0 65 13t17 44q0 13 -5 28.5t-15.5 28.5t-27 21.5t-38.5 8.5zM127 705h314v-64h-314v64z" />
    <glyph glyph-name="eogonek" unicode="&#x119;" horiz-adv-x="569" 
d="M416 -167q-9 -11 -21 -23t-26 -21.5t-31 -16t-38 -6.5q-39 0 -67 22t-28 64q0 22 12.5 42.5t33.5 38.5t48 33t57 27q-14 -3 -31.5 -4.5t-31.5 -1.5q-54 0 -102 18t-83 51.5t-55.5 82.5t-20.5 111q0 58 21.5 107t57.5 85t82 56t96 20q35 0 71 -8t67.5 -26.5t56 -50.5
t37.5 -80h-359q-1 -6 -1 -12v-13q0 -52 13.5 -95t38 -74.5t60 -49t80.5 -17.5q25 0 53 6t53.5 23t46 46t30.5 76h8q-6 -60 -21.5 -100.5t-37 -68t-46.5 -44.5t-50 -30q-51 -26 -74 -54.5t-23 -60.5q0 -33 17.5 -49t40.5 -16q33 0 60 20zM280 508q-46 0 -78 -35.5t-39 -108.5
h121q48 0 65 13t17 44q0 13 -5 28.5t-15.5 28.5t-27 21.5t-38.5 8.5z" />
    <glyph glyph-name="edotaccent" unicode="&#x117;" horiz-adv-x="569" 
d="M293 -13q-54 0 -102 18t-83 51.5t-55.5 82.5t-20.5 111q0 58 21.5 107t57.5 85t82 56t96 20q35 0 71 -8t67.5 -26.5t56 -50.5t37.5 -80h-359q-1 -6 -1 -12v-13q0 -52 13.5 -95t38 -74.5t60 -49t80.5 -17.5q25 0 53 6t53.5 23t46 46t30.5 76h8q-7 -71 -29 -120t-55.5 -79
t-76 -43.5t-90.5 -13.5zM280 508q-46 0 -78 -35.5t-39 -108.5h121q48 0 65 13t17 44q0 13 -5 28.5t-15.5 28.5t-27 21.5t-38.5 8.5zM285 614q-32 0 -53 21t-21 52q0 32 21 53t53 21q31 0 51.5 -21t20.5 -53q0 -31 -20.5 -52t-51.5 -21z" />
    <glyph glyph-name="gbreve" unicode="&#x11f;" horiz-adv-x="591" 
d="M266 163q-26 0 -49 3.5t-43 9.5l-59 -70l225 -26q53 -6 96 -14.5t73 -22.5t46.5 -36t16.5 -55q0 -42 -30.5 -80.5t-80 -68.5t-111.5 -47.5t-124 -17.5q-43 0 -81.5 7.5t-68 22t-47 34.5t-17.5 45q0 41 53.5 69.5t144.5 34.5q-11 2 -38.5 12t-57.5 21.5t-55 22t-31 14.5
l135 159q-58 20 -89.5 62.5t-31.5 96.5q0 37 15.5 69.5t44.5 57t71 38.5t95 14q51 0 91.5 -13t69.5 -36l46 89h160l-49 -95h-149q27 -23 41 -54.5t14 -66.5q0 -37 -15.5 -69.5t-44.5 -57t-71 -38.5t-95 -14zM293 173q24 0 45.5 21.5t21.5 71.5q0 35 -9 77t-25.5 79
t-38.5 61.5t-47 24.5q-24 0 -45 -21.5t-21 -72.5q0 -35 9 -76.5t25 -78.5t37.5 -61.5t47.5 -24.5zM246 -249q37 0 77.5 9t74.5 25.5t56.5 40t22.5 52.5q0 21 -14.5 35t-40 23t-59.5 13t-74 4q-83 0 -129.5 -30t-46.5 -74q0 -15 7.5 -32.5t23.5 -32t41 -24t61 -9.5zM281 598
q-18 0 -43.5 5.5t-50.5 22t-44.5 48t-24.5 84.5h53q8 -59 38.5 -86t71.5 -27q40 0 71 27t39 86h53q-5 -53 -24.5 -84.5t-44.5 -48t-50.5 -22t-43.5 -5.5z" />
    <glyph glyph-name="gcircumflex" unicode="&#x11d;" horiz-adv-x="591" 
d="M266 163q-26 0 -49 3.5t-43 9.5l-59 -70l225 -26q53 -6 96 -14.5t73 -22.5t46.5 -36t16.5 -55q0 -42 -30.5 -80.5t-80 -68.5t-111.5 -47.5t-124 -17.5q-43 0 -81.5 7.5t-68 22t-47 34.5t-17.5 45q0 41 53.5 69.5t144.5 34.5q-11 2 -38.5 12t-57.5 21.5t-55 22t-31 14.5
l135 159q-58 20 -89.5 62.5t-31.5 96.5q0 37 15.5 69.5t44.5 57t71 38.5t95 14q51 0 91.5 -13t69.5 -36l46 89h160l-49 -95h-149q27 -23 41 -54.5t14 -66.5q0 -37 -15.5 -69.5t-44.5 -57t-71 -38.5t-95 -14zM293 173q24 0 45.5 21.5t21.5 71.5q0 35 -9 77t-25.5 79
t-38.5 61.5t-47 24.5q-24 0 -45 -21.5t-21 -72.5q0 -35 9 -76.5t25 -78.5t37.5 -61.5t47.5 -24.5zM246 -249q37 0 77.5 9t74.5 25.5t56.5 40t22.5 52.5q0 21 -14.5 35t-40 23t-59.5 13t-74 4q-83 0 -129.5 -30t-46.5 -74q0 -15 7.5 -32.5t23.5 -32t41 -24t61 -9.5zM448 579
h-10l-157 96l-157 -96h-10l161 206h12z" />
    <glyph glyph-name="uni0123" unicode="&#x123;" horiz-adv-x="591" 
d="M266 163q-26 0 -49 3.5t-43 9.5l-59 -70l225 -26q53 -6 96 -14.5t73 -22.5t46.5 -36t16.5 -55q0 -42 -30.5 -80.5t-80 -68.5t-111.5 -47.5t-124 -17.5q-43 0 -81.5 7.5t-68 22t-47 34.5t-17.5 45q0 41 53.5 69.5t144.5 34.5q-11 2 -38.5 12t-57.5 21.5t-55 22t-31 14.5
l135 159q-58 20 -89.5 62.5t-31.5 96.5q0 37 15.5 69.5t44.5 57t71 38.5t95 14q51 0 91.5 -13t69.5 -36l46 89h160l-49 -95h-149q27 -23 41 -54.5t14 -66.5q0 -37 -15.5 -69.5t-44.5 -57t-71 -38.5t-95 -14zM293 173q24 0 45.5 21.5t21.5 71.5q0 35 -9 77t-25.5 79
t-38.5 61.5t-47 24.5q-24 0 -45 -21.5t-21 -72.5q0 -35 9 -76.5t25 -78.5t37.5 -61.5t47.5 -24.5zM246 -249q37 0 77.5 9t74.5 25.5t56.5 40t22.5 52.5q0 21 -14.5 35t-40 23t-59.5 13t-74 4q-83 0 -129.5 -30t-46.5 -74q0 -15 7.5 -32.5t23.5 -32t41 -24t61 -9.5zM298 592
q-43 0 -71 31t-28 78q0 30 12.5 56t34 48.5t49 41t57.5 32.5l4 -8q-42 -24 -61.5 -56.5t-19.5 -64.5q0 -41 24.5 -61t66.5 -29q0 -30 -19 -49t-49 -19z" />
    <glyph glyph-name="gdotaccent" unicode="&#x121;" horiz-adv-x="591" 
d="M266 163q-26 0 -49 3.5t-43 9.5l-59 -70l225 -26q53 -6 96 -14.5t73 -22.5t46.5 -36t16.5 -55q0 -42 -30.5 -80.5t-80 -68.5t-111.5 -47.5t-124 -17.5q-43 0 -81.5 7.5t-68 22t-47 34.5t-17.5 45q0 41 53.5 69.5t144.5 34.5q-11 2 -38.5 12t-57.5 21.5t-55 22t-31 14.5
l135 159q-58 20 -89.5 62.5t-31.5 96.5q0 37 15.5 69.5t44.5 57t71 38.5t95 14q51 0 91.5 -13t69.5 -36l46 89h160l-49 -95h-149q27 -23 41 -54.5t14 -66.5q0 -37 -15.5 -69.5t-44.5 -57t-71 -38.5t-95 -14zM293 173q24 0 45.5 21.5t21.5 71.5q0 35 -9 77t-25.5 79
t-38.5 61.5t-47 24.5q-24 0 -45 -21.5t-21 -72.5q0 -35 9 -76.5t25 -78.5t37.5 -61.5t47.5 -24.5zM246 -249q37 0 77.5 9t74.5 25.5t56.5 40t22.5 52.5q0 21 -14.5 35t-40 23t-59.5 13t-74 4q-83 0 -129.5 -30t-46.5 -74q0 -15 7.5 -32.5t23.5 -32t41 -24t61 -9.5zM282 614
q-32 0 -53 21t-21 52q0 32 21 53t53 21q31 0 51.5 -21t20.5 -53q0 -31 -20.5 -52t-51.5 -21z" />
    <glyph glyph-name="hbar" unicode="&#x127;" horiz-adv-x="613" 
d="M9 10h71v738h-71v10h218v-348q15 56 57 82t98 26q72 0 114 -45t42 -141v-322h71v-10h-280v10h61v323q0 74 -20.5 105.5t-58.5 31.5q-42 0 -63 -32.5t-21 -104.5v-323h61v-10h-279v10zM9 640h360v-43h-360v43z" />
    <glyph glyph-name="hcircumflex" unicode="&#x125;" horiz-adv-x="613" 
d="M9 10h71v738h-71v10h218v-348q15 56 57 82t98 26q72 0 114 -45t42 -141v-322h71v-10h-280v10h61v323q0 74 -20.5 105.5t-58.5 31.5q-42 0 -63 -32.5t-21 -104.5v-323h61v-10h-279v10zM124 986h58l142 -143h-10l-161 63l-161 -63h-10z" />
    <glyph glyph-name="dotlessi" unicode="&#x131;" horiz-adv-x="319" 
d="M239 10h71v-10h-290v10h71v368l-71 49v4l219 94v-515z" />
    <glyph glyph-name="ibreve" unicode="&#x12d;" horiz-adv-x="319" 
d="M239 10h71v-10h-290v10h71v368l-71 49v4l219 94v-515zM168 598q-18 0 -43.5 5.5t-50.5 22t-44.5 48t-24.5 84.5h53q8 -59 38.5 -86t71.5 -27q40 0 71 27t39 86h53q-5 -53 -24.5 -84.5t-44.5 -48t-50.5 -22t-43.5 -5.5z" />
    <glyph glyph-name="imacron" unicode="&#x12b;" horiz-adv-x="319" 
d="M239 10h71v-10h-290v10h71v368l-71 49v4l219 94v-515zM11 705h314v-64h-314v64z" />
    <glyph glyph-name="iogonek" unicode="&#x12f;" horiz-adv-x="319" 
d="M239 10h71v-10h-290v10h71v368l-71 49v4l219 94v-515zM162 606q-38 0 -64.5 26.5t-26.5 64.5q0 19 7 35.5t19.5 28.5t29 19t35.5 7q38 0 64.5 -26t26.5 -64q0 -19 -7 -35.5t-19.5 -29t-29 -19.5t-35.5 -7zM269 -167q-9 -11 -20.5 -23t-26 -21.5t-31.5 -16t-38 -6.5
q-39 0 -67 22t-28 64q0 23 12.5 45t33 41.5t46 35t51.5 26.5h19q-33 -23 -54 -53t-21 -62q0 -33 17.5 -49t40.5 -16q34 0 60 20z" />
    <glyph glyph-name="itilde" unicode="&#x129;" horiz-adv-x="319" 
d="M239 10h71v-10h-290v10h71v368l-71 49v4l219 94v-515zM4 610q1 77 26.5 116t67.5 39q22 0 43 -10.5t41 -22.5t39 -22.5t38 -10.5q32 0 46.5 14.5t16.5 48.5h10q0 -48 -8.5 -77.5t-21 -46t-28.5 -22.5t-32 -6q-26 0 -46.5 10t-39.5 22.5t-37.5 22.5t-40.5 10
q-60 0 -64 -65h-10z" />
    <glyph glyph-name="uni1ECB" unicode="&#x1ecb;" horiz-adv-x="319" 
d="M239 10h71v-10h-290v10h71v368l-71 49v4l219 94v-515zM162 606q-38 0 -64.5 26.5t-26.5 64.5q0 19 7 35.5t19.5 28.5t29 19t35.5 7q38 0 64.5 -26t26.5 -64q0 -19 -7 -35.5t-19.5 -29t-29 -19.5t-35.5 -7zM167 -238q-32 0 -53 21t-21 53q0 31 21 52t53 21q31 0 51.5 -21
t20.5 -52q0 -32 -20.5 -53t-51.5 -21z" />
    <glyph glyph-name="uni0237" unicode="&#x237;" horiz-adv-x="298" 
d="M229 49q0 -39 -8 -68.5t-22.5 -53.5t-34 -43.5t-42.5 -37.5q-13 -11 -31 -24t-38.5 -27.5t-42.5 -29.5t-43 -28l-5 7q35 29 58 54.5t36.5 56t19 70.5t5.5 97v356l-71 49v4l219 94v-476z" />
    <glyph glyph-name="jcircumflex" unicode="&#x135;" horiz-adv-x="298" 
d="M229 49q0 -39 -8 -68.5t-22.5 -53.5t-34 -43.5t-42.5 -37.5q-13 -11 -31 -24t-38.5 -27.5t-42.5 -29.5t-43 -28l-5 7q35 29 58 54.5t36.5 56t19 70.5t5.5 97v356l-71 49v4l219 94v-476zM324 579h-10l-157 96l-157 -96h-10l161 206h12z" />
    <glyph glyph-name="uni0137" unicode="&#x137;" horiz-adv-x="595" 
d="M66 748h-71v10h219v-456l177 200h175l-87 -98h-161l-102 -115h166l230 -289h-181l-217 274v-274h-148v748zM311 -78q21 0 39 -8.5t31 -23t20.5 -34.5t7.5 -43q0 -30 -12.5 -56t-33.5 -48.5t-49 -41t-58 -31.5l-4 8q43 23 67.5 51.5t24.5 63.5q0 21 -8 37t-22 27.5
t-32 18.5t-39 12q-1 30 18.5 49t49.5 19z" />
    <glyph glyph-name="lacute" unicode="&#x13a;" horiz-adv-x="307" 
d="M9 10h71v738h-71v10h218v-748h71v-10h-289v10zM172 1014h154v-3l-200 -176h-10z" />
    <glyph glyph-name="lcaron" unicode="&#x13e;" horiz-adv-x="352" 
d="M9 10h71v738h-71v10h218v-748h71v-10h-289v10zM356 776q43 0 71 -31t28 -79q0 -30 -12.5 -56t-34 -48.5t-49 -41t-57.5 -31.5l-4 8q42 23 61.5 55.5t19.5 63.5q0 42 -24.5 62.5t-66.5 28.5q0 31 19 50t49 19z" />
    <glyph glyph-name="uni013C" unicode="&#x13c;" horiz-adv-x="307" 
d="M9 10h71v738h-71v10h218v-748h71v-10h-289v10zM140 -78q21 0 39 -8.5t31 -23t20.5 -34.5t7.5 -43q0 -30 -12.5 -56t-33.5 -48.5t-49 -41t-58 -31.5l-4 8q43 23 67.5 51.5t24.5 63.5q0 21 -8 37t-22 27.5t-32 18.5t-39 12q-1 30 18.5 49t49.5 19z" />
    <glyph glyph-name="ldot" unicode="&#x140;" horiz-adv-x="440" 
d="M9 10h71v738h-71v10h218v-748h71v-10h-289v10zM381 320q-32 0 -53 20.5t-21 51.5q0 32 21 53t53 21q31 0 51.5 -21t20.5 -53q0 -31 -20.5 -51.5t-51.5 -20.5z" />
    <glyph glyph-name="glyph298" horiz-adv-x="440" 
d="M9 10h71v738h-71v10h218v-748h71v-10h-289v10zM381 320q-32 0 -53 20.5t-21 51.5q0 32 21 53t53 21q31 0 51.5 -21t20.5 -53q0 -31 -20.5 -51.5t-51.5 -20.5z" />
    <glyph glyph-name="lslash" unicode="&#x142;" horiz-adv-x="340" 
d="M28 10h71v738h-71v10h218v-748h71v-10h-289v10zM350 492l-354 -261v52l354 261v-52z" />
    <glyph glyph-name="eng" unicode="&#x14b;" horiz-adv-x="613" 
d="M394 518q72 0 114 -45t42 -141v-283q0 -39 -8 -68.5t-22.5 -53.5t-34 -43.5t-42.5 -37.5q-13 -11 -31 -24t-38.5 -27.5t-42.5 -29.5t-43 -28l-5 7q35 29 58 54.5t36.5 56t19 70.5t5.5 97v311q0 74 -21 105.5t-58 31.5q-42 0 -63 -32.5t-21 -104.5v-323h71v-10h-290v10h71
v368l-71 49v4l219 94v-115q14 56 56.5 82t98.5 26z" />
    <glyph glyph-name="nacute" unicode="&#x144;" horiz-adv-x="624" 
d="M20 10h71v368l-71 49v4l219 94v-115q14 56 56.5 82t98.5 26q72 0 114 -45t42 -141v-322h71v-10h-280v10h61v323q0 74 -21 105.5t-58 31.5q-42 0 -63 -32.5t-21 -104.5v-323h61v-10h-280v10zM347 758h154v-3l-200 -176h-10z" />
    <glyph glyph-name="ncaron" unicode="&#x148;" horiz-adv-x="624" 
d="M20 10h71v368l-71 49v4l219 94v-115q14 56 56.5 82t98.5 26q72 0 114 -45t42 -141v-322h71v-10h-280v10h61v323q0 74 -21 105.5t-58 31.5q-42 0 -63 -32.5t-21 -104.5v-323h61v-10h-280v10zM161 785h10l157 -95l156 95h10l-160 -207h-12z" />
    <glyph glyph-name="uni0146" unicode="&#x146;" horiz-adv-x="624" 
d="M20 10h71v368l-71 49v4l219 94v-115q14 56 56.5 82t98.5 26q72 0 114 -45t42 -141v-322h71v-10h-280v10h61v323q0 74 -21 105.5t-58 31.5q-42 0 -63 -32.5t-21 -104.5v-323h61v-10h-280v10zM306 -78q21 0 39 -8.5t31 -23t20.5 -34.5t7.5 -43q0 -30 -12.5 -56t-33.5 -48.5
t-49 -41t-58 -31.5l-4 8q43 23 67.5 51.5t24.5 63.5q0 21 -8 37t-22 27.5t-32 18.5t-39 12q-1 30 18.5 49t49.5 19z" />
    <glyph glyph-name="oe" unicode="&#x153;" horiz-adv-x="968" 
d="M304 -13q-64 0 -114.5 21.5t-86 58.5t-54 85t-18.5 102t19 102t55 84t86.5 57t113.5 21q60 0 108.5 -25t81.5 -68q36 44 86.5 68.5t106.5 24.5q35 0 71 -8t67.5 -26.5t56.5 -50.5t38 -80h-359q-4 -49 6 -96t33.5 -83.5t61 -59t89.5 -22.5q26 0 54 6t53.5 23t45.5 46
t30 76h9q-7 -71 -29.5 -120t-55.5 -79t-75.5 -43.5t-90.5 -13.5q-62 0 -114.5 22.5t-87.5 65.5q-31 -38 -77.5 -63t-109.5 -25zM679 508q-46 0 -77.5 -35.5t-38.5 -108.5h120q48 0 65.5 13t17.5 44q0 13 -5 28.5t-15.5 28.5t-27 21.5t-39.5 8.5zM414 227q-9 56 -22 107
t-31.5 89.5t-44 60.5t-58.5 20q-20 -2 -35.5 -14.5t-24.5 -38.5t-10.5 -68.5t7.5 -104.5q9 -56 22 -107t31.5 -89t44 -60t58.5 -20q20 2 35.5 14t24.5 38.5t10.5 68.5t-7.5 104z" />
    <glyph glyph-name="obreve" unicode="&#x14f;" horiz-adv-x="609" 
d="M304 -13q-64 0 -114.5 21.5t-86 58.5t-54 85t-18.5 102t19 102t55 84t86.5 57t113.5 21q64 0 114.5 -22t86 -58.5t54 -85t18.5 -102.5t-19 -102t-55 -84t-86.5 -56.5t-113.5 -20.5zM346 0q16 0 32 6t28.5 20.5t20 38.5t7.5 61q0 29 -7 69.5t-21 93.5q-13 49 -28 88.5
t-32 67.5t-37.5 43.5t-45.5 15.5q-16 0 -32 -6t-28.5 -20t-20 -38.5t-7.5 -61.5q0 -55 29 -162q13 -49 27.5 -89t32 -68t37.5 -43.5t45 -15.5zM302 598q-18 0 -43.5 5.5t-50.5 22t-44.5 48t-24.5 84.5h53q8 -59 38.5 -86t71.5 -27q40 0 71 27t39 86h53q-5 -53 -24.5 -84.5
t-44.5 -48t-50.5 -22t-43.5 -5.5z" />
    <glyph glyph-name="ohungarumlaut" unicode="&#x151;" horiz-adv-x="609" 
d="M304 -13q-64 0 -114.5 21.5t-86 58.5t-54 85t-18.5 102t19 102t55 84t86.5 57t113.5 21q64 0 114.5 -22t86 -58.5t54 -85t18.5 -102.5t-19 -102t-55 -84t-86.5 -56.5t-113.5 -20.5zM346 0q16 0 32 6t28.5 20.5t20 38.5t7.5 61q0 29 -7 69.5t-21 93.5q-13 49 -28 88.5
t-32 67.5t-37.5 43.5t-45.5 15.5q-16 0 -32 -6t-28.5 -20t-20 -38.5t-7.5 -61.5q0 -55 29 -162q13 -49 27.5 -89t32 -68t37.5 -43.5t45 -15.5zM252 758h154v-3l-200 -176h-10zM456 758h154v-3l-200 -176h-10z" />
    <glyph glyph-name="omacron" unicode="&#x14d;" horiz-adv-x="609" 
d="M304 -13q-64 0 -114.5 21.5t-86 58.5t-54 85t-18.5 102t19 102t55 84t86.5 57t113.5 21q64 0 114.5 -22t86 -58.5t54 -85t18.5 -102.5t-19 -102t-55 -84t-86.5 -56.5t-113.5 -20.5zM346 0q16 0 32 6t28.5 20.5t20 38.5t7.5 61q0 29 -7 69.5t-21 93.5q-13 49 -28 88.5
t-32 67.5t-37.5 43.5t-45.5 15.5q-16 0 -32 -6t-28.5 -20t-20 -38.5t-7.5 -61.5q0 -55 29 -162q13 -49 27.5 -89t32 -68t37.5 -43.5t45 -15.5zM145 705h314v-64h-314v64z" />
    <glyph glyph-name="uni1ECD" unicode="&#x1ecd;" horiz-adv-x="609" 
d="M304 -13q-64 0 -114.5 21.5t-86 58.5t-54 85t-18.5 102t19 102t55 84t86.5 57t113.5 21q64 0 114.5 -22t86 -58.5t54 -85t18.5 -102.5t-19 -102t-55 -84t-86.5 -56.5t-113.5 -20.5zM346 0q16 0 32 6t28.5 20.5t20 38.5t7.5 61q0 29 -7 69.5t-21 93.5q-13 49 -28 88.5
t-32 67.5t-37.5 43.5t-45.5 15.5q-16 0 -32 -6t-28.5 -20t-20 -38.5t-7.5 -61.5q0 -55 29 -162q13 -49 27.5 -89t32 -68t37.5 -43.5t45 -15.5zM325 -238q-32 0 -53 21t-21 53q0 31 21 52t53 21q31 0 51.5 -21t20.5 -52q0 -32 -20.5 -53t-51.5 -21z" />
    <glyph glyph-name="racute" unicode="&#x155;" horiz-adv-x="451" 
d="M335 0h-315v10h71v368l-71 49v4l219 94v-151q25 70 58.5 106.5t71.5 36.5q34 0 54.5 -22t20.5 -58q0 -38 -17.5 -61.5t-40.5 -28.5l-116 61q-2 -2 -7 -8t-10.5 -14t-9.5 -17t-4 -18v-341h96v-10zM295 758h154v-3l-200 -176h-10z" />
    <glyph glyph-name="rcaron" unicode="&#x159;" horiz-adv-x="451" 
d="M335 0h-315v10h71v368l-71 49v4l219 94v-151q25 70 58.5 106.5t71.5 36.5q34 0 54.5 -22t20.5 -58q0 -38 -17.5 -61.5t-40.5 -28.5l-116 61q-2 -2 -7 -8t-10.5 -14t-9.5 -17t-4 -18v-341h96v-10zM110 785h10l157 -95l156 95h10l-160 -207h-12z" />
    <glyph glyph-name="uni0157" unicode="&#x157;" horiz-adv-x="451" 
d="M335 0h-315v10h71v368l-71 49v4l219 94v-151q25 70 58.5 106.5t71.5 36.5q34 0 54.5 -22t20.5 -58q0 -38 -17.5 -61.5t-40.5 -28.5l-116 61q-2 -2 -7 -8t-10.5 -14t-9.5 -17t-4 -18v-341h96v-10zM160 -78q21 0 39 -8.5t31 -23t20.5 -34.5t7.5 -43q0 -30 -12.5 -56
t-33.5 -48.5t-49 -41t-58 -31.5l-4 8q43 23 67.5 51.5t24.5 63.5q0 21 -8 37t-22 27.5t-32 18.5t-39 12q-1 30 18.5 49t49.5 19z" />
    <glyph glyph-name="sacute" unicode="&#x15b;" horiz-adv-x="480" 
d="M222 -13q-37 0 -76 4.5t-77 14.5l-24 205h6l133 -196q8 -12 19 -15t30 -3q24 0 46 5.5t39 16.5t27 27.5t10 38.5q0 38 -26 60.5t-75 34.5l-62 15q-75 18 -111.5 62t-36.5 100q0 39 17 69t46 50.5t67 31t81 10.5q34 0 69.5 -5.5t70.5 -16.5l25 -176h-7l-134 173
q-6 8 -17 10.5t-28 2.5q-18 0 -36 -3.5t-33 -12t-24 -23t-9 -36.5q0 -34 23 -57.5t67 -34.5l59 -14q167 -40 167 -168q0 -39 -16.5 -70.5t-46.5 -53.5t-71.5 -34t-91.5 -12zM250 758h154v-3l-200 -176h-10z" />
    <glyph glyph-name="scaron" unicode="&#x161;" horiz-adv-x="480" 
d="M222 -13q-37 0 -76 4.5t-77 14.5l-24 205h6l133 -196q8 -12 19 -15t30 -3q24 0 46 5.5t39 16.5t27 27.5t10 38.5q0 38 -26 60.5t-75 34.5l-62 15q-75 18 -111.5 62t-36.5 100q0 39 17 69t46 50.5t67 31t81 10.5q34 0 69.5 -5.5t70.5 -16.5l25 -176h-7l-134 173
q-6 8 -17 10.5t-28 2.5q-18 0 -36 -3.5t-33 -12t-24 -23t-9 -36.5q0 -34 23 -57.5t67 -34.5l59 -14q167 -40 167 -168q0 -39 -16.5 -70.5t-46.5 -53.5t-71.5 -34t-91.5 -12zM65 785h10l157 -95l156 95h10l-160 -207h-12z" />
    <glyph glyph-name="scedilla" unicode="&#x15f;" horiz-adv-x="480" 
d="M222 -13q-37 0 -76 4.5t-77 14.5l-24 205h6l133 -196q8 -12 19 -15t30 -3q24 0 46 5.5t39 16.5t27 27.5t10 38.5q0 38 -26 60.5t-75 34.5l-62 15q-75 18 -111.5 62t-36.5 100q0 39 17 69t46 50.5t67 31t81 10.5q34 0 69.5 -5.5t70.5 -16.5l25 -176h-7l-134 173
q-6 8 -17 10.5t-28 2.5q-18 0 -36 -3.5t-33 -12t-24 -23t-9 -36.5q0 -34 23 -57.5t67 -34.5l59 -14q167 -40 167 -168q0 -39 -16.5 -70.5t-46.5 -53.5t-71.5 -34t-91.5 -12zM220 -269q-20 0 -38 3.5t-32.5 10.5t-23 17t-8.5 23q0 18 15.5 28t36.5 2l41 -60q5 -8 9.5 -11
t12.5 -3q26 0 42 11.5t16 28.5q0 14 -9.5 27t-26.5 24.5t-40 21.5t-50 18l115 128h12l-65 -74q54 -22 78.5 -43.5t24.5 -59.5q0 -17 -8 -33.5t-22.5 -29.5t-34.5 -21t-45 -8z" />
    <glyph glyph-name="scircumflex" unicode="&#x15d;" horiz-adv-x="480" 
d="M222 -13q-37 0 -76 4.5t-77 14.5l-24 205h6l133 -196q8 -12 19 -15t30 -3q24 0 46 5.5t39 16.5t27 27.5t10 38.5q0 38 -26 60.5t-75 34.5l-62 15q-75 18 -111.5 62t-36.5 100q0 39 17 69t46 50.5t67 31t81 10.5q34 0 69.5 -5.5t70.5 -16.5l25 -176h-7l-134 173
q-6 8 -17 10.5t-28 2.5q-18 0 -36 -3.5t-33 -12t-24 -23t-9 -36.5q0 -34 23 -57.5t67 -34.5l59 -14q167 -40 167 -168q0 -39 -16.5 -70.5t-46.5 -53.5t-71.5 -34t-91.5 -12zM399 579h-10l-157 96l-157 -96h-10l161 206h12z" />
    <glyph glyph-name="uni0219" unicode="&#x219;" horiz-adv-x="480" 
d="M222 -13q-37 0 -76 4.5t-77 14.5l-24 205h6l133 -196q8 -12 19 -15t30 -3q24 0 46 5.5t39 16.5t27 27.5t10 38.5q0 38 -26 60.5t-75 34.5l-62 15q-75 18 -111.5 62t-36.5 100q0 39 17 69t46 50.5t67 31t81 10.5q34 0 69.5 -5.5t70.5 -16.5l25 -176h-7l-134 173
q-6 8 -17 10.5t-28 2.5q-18 0 -36 -3.5t-33 -12t-24 -23t-9 -36.5q0 -34 23 -57.5t67 -34.5l59 -14q167 -40 167 -168q0 -39 -16.5 -70.5t-46.5 -53.5t-71.5 -34t-91.5 -12zM240 -78q21 0 39 -8.5t31 -23t20.5 -34.5t7.5 -43q0 -30 -12.5 -56t-33.5 -48.5t-49 -41t-58 -31.5
l-4 8q43 23 67.5 51.5t24.5 63.5q0 21 -8 37t-22 27.5t-32 18.5t-39 12q-1 30 18.5 49t49.5 19z" />
    <glyph glyph-name="tbar" unicode="&#x167;" horiz-adv-x="420" 
d="M247 149q0 -56 23.5 -77t57.5 -21q23 0 48.5 7.5t43.5 21.5l4 -6q-15 -17 -35 -32t-44 -26.5t-51 -18.5t-56 -7q-26 0 -51 5t-44.5 19t-31.5 39.5t-12 67.5v303h-102v5l245 193h5v-120h199l-54 -78h-145v-275zM-3 359h410v-43h-410v43z" />
    <glyph glyph-name="tcaron" unicode="&#x165;" horiz-adv-x="420" 
d="M247 149q0 -56 23.5 -77t57.5 -21q23 0 48.5 7.5t43.5 21.5l4 -6q-15 -17 -35 -32t-44 -26.5t-51 -18.5t-56 -7q-26 0 -51 5t-44.5 19t-31.5 39.5t-12 67.5v303h-102v5l245 193h5v-120h199l-54 -78h-145v-275zM377 829q43 0 71 -31t28 -79q0 -30 -12.5 -56t-34 -48.5
t-49 -41t-57.5 -31.5l-4 8q42 23 61.5 55.5t19.5 63.5q0 42 -24.5 62.5t-66.5 28.5q0 31 19 50t49 19z" />
    <glyph glyph-name="uni0163" unicode="&#x163;" horiz-adv-x="420" 
d="M247 149q0 -56 23.5 -77t57.5 -21q23 0 48.5 7.5t43.5 21.5l4 -6q-15 -17 -35 -32t-44 -26.5t-51 -18.5t-56 -7q-26 0 -51 5t-44.5 19t-31.5 39.5t-12 67.5v303h-102v5l245 193h5v-120h199l-54 -78h-145v-275zM191 -78q21 0 39 -8.5t31 -23t20.5 -34.5t7.5 -43
q0 -30 -12.5 -56t-33.5 -48.5t-49 -41t-58 -31.5l-4 8q43 23 67.5 51.5t24.5 63.5q0 21 -8 37t-22 27.5t-32 18.5t-39 12q-1 30 18.5 49t49.5 19z" />
    <glyph glyph-name="uni021B" unicode="&#x21b;" horiz-adv-x="420" 
d="M247 149q0 -56 23.5 -77t57.5 -21q23 0 48.5 7.5t43.5 21.5l4 -6q-15 -17 -35 -32t-44 -26.5t-51 -18.5t-56 -7q-26 0 -51 5t-44.5 19t-31.5 39.5t-12 67.5v303h-102v5l245 193h5v-120h199l-54 -78h-145v-275zM191 -78q21 0 39 -8.5t31 -23t20.5 -34.5t7.5 -43
q0 -30 -12.5 -56t-33.5 -48.5t-49 -41t-58 -31.5l-4 8q43 23 67.5 51.5t24.5 63.5q0 21 -8 37t-22 27.5t-32 18.5t-39 12q-1 30 18.5 49t49.5 19z" />
    <glyph glyph-name="ubreve" unicode="&#x16d;" horiz-adv-x="601" 
d="M228 -13q-70 0 -111.5 45t-41.5 141v319h-71v10h219v-330q0 -75 20 -106t53 -31q38 0 57.5 32.5t19.5 104.5v320h-66v10h214v-492h71v-10h-219v90q-11 -47 -49 -75t-96 -28zM295 598q-18 0 -43.5 5.5t-50.5 22t-44.5 48t-24.5 84.5h53q8 -59 38.5 -86t71.5 -27
q40 0 71 27t39 86h53q-5 -53 -24.5 -84.5t-44.5 -48t-50.5 -22t-43.5 -5.5z" />
    <glyph glyph-name="uhungarumlaut" unicode="&#x171;" horiz-adv-x="601" 
d="M228 -13q-70 0 -111.5 45t-41.5 141v319h-71v10h219v-330q0 -75 20 -106t53 -31q38 0 57.5 32.5t19.5 104.5v320h-66v10h214v-492h71v-10h-219v90q-11 -47 -49 -75t-96 -28zM245 758h154v-3l-200 -176h-10zM449 758h154v-3l-200 -176h-10z" />
    <glyph glyph-name="umacron" unicode="&#x16b;" horiz-adv-x="601" 
d="M228 -13q-70 0 -111.5 45t-41.5 141v319h-71v10h219v-330q0 -75 20 -106t53 -31q38 0 57.5 32.5t19.5 104.5v320h-66v10h214v-492h71v-10h-219v90q-11 -47 -49 -75t-96 -28zM138 705h314v-64h-314v64z" />
    <glyph glyph-name="uogonek" unicode="&#x173;" horiz-adv-x="601" 
d="M228 -13q-70 0 -111.5 45t-41.5 141v319h-71v10h219v-330q0 -75 20 -106t53 -31q38 0 57.5 32.5t19.5 104.5v320h-66v10h214v-492h71v-10h-219v90q-11 -47 -49 -75t-96 -28zM573 -167q-9 -11 -20.5 -23t-26 -21.5t-31.5 -16t-38 -6.5q-39 0 -67 22t-28 64q0 23 12.5 45
t33 41.5t46 35t51.5 26.5h19q-33 -23 -54 -53t-21 -62q0 -33 17.5 -49t40.5 -16q34 0 60 20z" />
    <glyph glyph-name="uring" unicode="&#x16f;" horiz-adv-x="601" 
d="M228 -13q-70 0 -111.5 45t-41.5 141v319h-71v10h219v-330q0 -75 20 -106t53 -31q38 0 57.5 32.5t19.5 104.5v320h-66v10h214v-492h71v-10h-219v90q-11 -47 -49 -75t-96 -28zM184 704q0 22 9 42t24 34t35.5 22.5t43.5 8.5q22 0 42.5 -8.5t36 -22.5t24.5 -34t9 -42
q0 -23 -9 -42.5t-24.5 -34t-36 -23t-42.5 -8.5q-23 0 -43.5 8.5t-35.5 23t-24 34t-9 42.5zM359 703q0 29 -17 47.5t-46 18.5q-30 0 -47 -18.5t-17 -47.5t17 -46.5t47 -17.5q29 0 46 17.5t17 46.5z" />
    <glyph glyph-name="utilde" unicode="&#x169;" horiz-adv-x="601" 
d="M228 -13q-70 0 -111.5 45t-41.5 141v319h-71v10h219v-330q0 -75 20 -106t53 -31q38 0 57.5 32.5t19.5 104.5v320h-66v10h214v-492h71v-10h-219v90q-11 -47 -49 -75t-96 -28zM131 610q1 77 26.5 116t67.5 39q22 0 43 -10.5t41 -22.5t39 -22.5t38 -10.5q32 0 46.5 14.5
t16.5 48.5h10q0 -48 -8.5 -77.5t-21 -46t-28.5 -22.5t-32 -6q-26 0 -46.5 10t-39.5 22.5t-37.5 22.5t-40.5 10q-60 0 -64 -65h-10z" />
    <glyph glyph-name="uni1EE5" unicode="&#x1ee5;" horiz-adv-x="601" 
d="M228 -13q-70 0 -111.5 45t-41.5 141v319h-71v10h219v-330q0 -75 20 -106t53 -31q38 0 57.5 32.5t19.5 104.5v320h-66v10h214v-492h71v-10h-219v90q-11 -47 -49 -75t-96 -28zM306 -238q-32 0 -53 21t-21 53q0 31 21 52t53 21q31 0 51.5 -21t20.5 -52q0 -32 -20.5 -53
t-51.5 -21z" />
    <glyph glyph-name="wacute" unicode="&#x1e83;" horiz-adv-x="859" 
d="M39 492h-64v10h221l152 -339l78 168l-76 171h230v-10h-65l143 -329l152 329h-115v10h195v-10h-67l-235 -507h-8l-148 333l-154 -333h-8zM457 758h154v-3l-200 -176h-10z" />
    <glyph glyph-name="wcircumflex" unicode="&#x175;" horiz-adv-x="859" 
d="M39 492h-64v10h221l152 -339l78 168l-76 171h230v-10h-65l143 -329l152 329h-115v10h195v-10h-67l-235 -507h-8l-148 333l-154 -333h-8zM605 579h-10l-157 96l-157 -96h-10l161 206h12z" />
    <glyph glyph-name="wdieresis" unicode="&#x1e85;" horiz-adv-x="859" 
d="M39 492h-64v10h221l152 -339l78 168l-76 171h230v-10h-65l143 -329l152 329h-115v10h195v-10h-67l-235 -507h-8l-148 333l-154 -333h-8zM557 614q-32 0 -52.5 21t-20.5 52q0 32 20.5 53t52.5 21t52.5 -21t20.5 -53q0 -31 -20.5 -52t-52.5 -21zM320 614q-32 0 -52.5 20.5
t-20.5 51.5q0 32 20.5 53t52.5 21t52 -21t20 -53q0 -31 -20 -51.5t-52 -20.5z" />
    <glyph glyph-name="wgrave" unicode="&#x1e81;" horiz-adv-x="859" 
d="M39 492h-64v10h221l152 -339l78 168l-76 171h230v-10h-65l143 -329l152 329h-115v10h195v-10h-67l-235 -507h-8l-148 333l-154 -333h-8zM453 579l-200 176v3h154l56 -179h-10z" />
    <glyph glyph-name="ycircumflex" unicode="&#x177;" horiz-adv-x="551" 
d="M115 -256q-29 0 -47.5 18.5t-18.5 46.5q0 18 10.5 36t33 32t56.5 21.5t82 4.5l39 85l-231 504h-63v10h289v-10h-65l150 -330l151 330h-115v10h194v-10h-66l-292 -636q-13 -29 -24 -50t-23 -34.5t-26.5 -20.5t-33.5 -7zM477 579h-10l-157 96l-157 -96h-10l161 206h12z" />
    <glyph glyph-name="ygrave" unicode="&#x1ef3;" horiz-adv-x="551" 
d="M115 -256q-29 0 -47.5 18.5t-18.5 46.5q0 18 10.5 36t33 32t56.5 21.5t82 4.5l39 85l-231 504h-63v10h289v-10h-65l150 -330l151 330h-115v10h194v-10h-66l-292 -636q-13 -29 -24 -50t-23 -34.5t-26.5 -20.5t-33.5 -7zM325 579l-200 176v3h154l56 -179h-10z" />
    <glyph glyph-name="uni0233" unicode="&#x233;" horiz-adv-x="551" 
d="M115 -256q-29 0 -47.5 18.5t-18.5 46.5q0 18 10.5 36t33 32t56.5 21.5t82 4.5l39 85l-231 504h-63v10h289v-10h-65l150 -330l151 330h-115v10h194v-10h-66l-292 -636q-13 -29 -24 -50t-23 -34.5t-26.5 -20.5t-33.5 -7zM153 705h314v-64h-314v64z" />
    <glyph glyph-name="zacute" unicode="&#x17a;" horiz-adv-x="560" 
d="M354 492h-135q-11 0 -15.5 -2.5t-10.5 -10.5l-153 -212h-6l80 290h6l80 -55h327l-332 -492h133q15 0 22.5 4.5t17.5 16.5l158 207h7l-54 -238h-457zM335 758h154v-3l-200 -176h-10z" />
    <glyph glyph-name="zcaron" unicode="&#x17e;" horiz-adv-x="560" 
d="M354 492h-135q-11 0 -15.5 -2.5t-10.5 -10.5l-153 -212h-6l80 290h6l80 -55h327l-332 -492h133q15 0 22.5 4.5t17.5 16.5l158 207h7l-54 -238h-457zM150 785h10l157 -95l156 95h10l-160 -207h-12z" />
    <glyph glyph-name="zdotaccent" unicode="&#x17c;" horiz-adv-x="560" 
d="M354 492h-135q-11 0 -15.5 -2.5t-10.5 -10.5l-153 -212h-6l80 290h6l80 -55h327l-332 -492h133q15 0 22.5 4.5t17.5 16.5l158 207h7l-54 -238h-457zM318 614q-32 0 -53 21t-21 52q0 32 21 53t53 21q31 0 51.5 -21t20.5 -53q0 -31 -20.5 -52t-51.5 -21z" />
    <glyph glyph-name="uni0259" unicode="&#x259;" horiz-adv-x="569" 
d="M281 519q54 0 101 -18t81 -52t53.5 -83t19.5 -110q0 -59 -21.5 -108t-57 -84.5t-82 -55.5t-95.5 -20q-35 0 -71 7.5t-67.5 26.5t-56 50.5t-37.5 79.5h359q1 6 1 12v13q0 52 -13.5 95t-38 74.5t-60 49t-80.5 17.5q-26 0 -53.5 -6t-53 -22.5t-46 -46t-30.5 -75.5h-8
q7 71 29.5 120t57 79t78 43.5t91.5 13.5zM289 -2q46 0 78 35.5t39 108.5h-121q-48 0 -65 -13.5t-17 -43.5q0 -14 5 -29t15.5 -28t26.5 -21.5t39 -8.5z" />
    <glyph glyph-name="uni0410" unicode="&#x410;" horiz-adv-x="765" 
d="M449 10h88l-101 269h-265l-103 -269h92v-10h-188v10h83l243 637l-41 111h170l281 -748h83v-10h-342v10zM414 339l-109 291l-111 -291h220z" />
    <glyph glyph-name="uni0411" unicode="&#x411;" horiz-adv-x="781" 
d="M298 416h97q168 0 257.5 -47.5t89.5 -143.5q0 -112 -89.5 -168.5t-257.5 -56.5h-353v10h91v738h-91v10h602l47 -235h-6l-162 204q-11 14 -19.5 17.5t-27.5 3.5h-178v-332zM562 206q0 98 -47.5 149t-137.5 51h-79v-396h80q89 0 136.5 50t47.5 146z" />
    <glyph glyph-name="uni0412" unicode="&#x412;" horiz-adv-x="803" 
d="M401 758q303 0 303 -170q0 -79 -64.5 -123t-182.5 -58v-2q69 -1 125 -12.5t96 -34t61.5 -56.5t22.5 -80q2 -110 -88 -166t-258 -56h-373v10h91v738h-91v10h358zM533 577q0 77 -36.5 124t-109.5 47h-88v-342h88q73 0 109.5 47.5t36.5 123.5zM582 203q0 94 -47.5 143.5
t-136.5 49.5h-99v-386h99q89 0 136.5 49.5t47.5 143.5z" />
    <glyph glyph-name="uni0413" unicode="&#x413;" horiz-adv-x="682" 
d="M42 10h91v738h-91v10h588l37 -235h-6l-147 204q-10 14 -18.5 17.5t-27.5 3.5h-170v-738h125v-10h-381v10z" />
    <glyph glyph-name="uni0414" unicode="&#x414;" horiz-adv-x="778" 
d="M-6 10h100q30 62 51 145.5t34.5 179.5t20.5 201t8 212h-96v10h617v-10h-92v-738h103l11 -235h-6l-128 207q-8 12 -16 15t-25 3h-418q-17 0 -25 -3t-16 -15l-128 -207h-6zM221 748q-2 -111 -9.5 -217t-21 -201t-34 -177t-49.5 -143h366v738h-252z" />
    <glyph glyph-name="uni0415" unicode="&#x415;" horiz-adv-x="781" 
d="M43 10h91v738h-91v10h585l47 -235h-6l-162 204q-11 14 -19 17.5t-27 3.5h-162v-355h121q10 0 14.5 2.5t9.5 13.5l59 127h6v-297h-6l-59 127q-5 11 -9.5 14t-14.5 3h-121v-373h222q19 0 28 4t18 16l184 231h6l-69 -261h-645v10z" />
    <glyph glyph-name="uni0401" unicode="&#x401;" horiz-adv-x="781" 
d="M43 10h91v738h-91v10h585l47 -235h-6l-162 204q-11 14 -19 17.5t-27 3.5h-162v-355h121q10 0 14.5 2.5t9.5 13.5l59 127h6v-297h-6l-59 127q-5 11 -9.5 14t-14.5 3h-121v-373h222q19 0 28 4t18 16l184 231h6l-69 -261h-645v10zM279 851q-32 0 -52.5 21t-20.5 52
q0 32 20.5 53t52.5 21t52.5 -21t20.5 -53q0 -31 -20.5 -52t-52.5 -21zM508 851q-32 0 -53 21t-21 52q0 32 21 53t53 21q31 0 51.5 -21t20.5 -53q0 -31 -20.5 -52t-51.5 -21z" />
    <glyph glyph-name="uni0416" unicode="&#x416;" horiz-adv-x="1201" 
d="M-17 0l326 401h195l-371 347h-115v10h245v-10h-112l364 -341v341h-91v10h348v-10h-92v-341l364 341h-112v10h245v-10h-116l-371 -347h202l326 -401h-218l-320 392v-382h77v-10h-319v10h77v382l-320 -392h-212z" />
    <glyph glyph-name="uni0417" unicode="&#x417;" horiz-adv-x="694" 
d="M331 -13q-51 0 -101 11.5t-88 35.5l-45 -44h-6l-38 299h6q27 -86 56.5 -142t63 -89t70 -46.5t76.5 -13.5q81 0 120.5 53.5t39.5 140.5q0 92 -46 146t-144 54h-84v10h84q72 0 109.5 49.5t37.5 134.5q0 82 -30 132t-89 50q-74 0 -128.5 -66t-101.5 -207h-6l37 281h6l43 -45
q29 23 72 35.5t101 12.5q127 0 197 -46t70 -131q0 -47 -18 -81.5t-49.5 -59t-75 -39.5t-95.5 -22v-2q55 -2 107.5 -12.5t93 -32.5t65 -57.5t24.5 -86.5q0 -113 -87.5 -167.5t-246.5 -54.5z" />
    <glyph glyph-name="uni0418" unicode="&#x418;" horiz-adv-x="925" 
d="M391 0h-348v10h91v738h-91v10h348v-10h-92v-654l327 609v45h-92v10h348v-10h-91v-738h91v-10h-348v10h92v662l-327 -608v-54h92v-10z" />
    <glyph glyph-name="uni0419" unicode="&#x419;" horiz-adv-x="926" 
d="M391 0h-348v10h91v738h-91v10h348v-10h-92v-654l327 609v45h-92v10h348v-10h-91v-738h91v-10h-348v10h92v662l-327 -608v-54h92v-10zM467 830q-45 0 -79.5 13t-57 34.5t-34 50.5t-11.5 62h105q0 -75 16 -112.5t61 -37.5q24 0 38 9.5t21.5 28t10 46.5t2.5 66h105
q0 -37 -13 -66.5t-36.5 -50.5t-56 -32t-71.5 -11z" />
    <glyph glyph-name="uni041A" unicode="&#x41a;" horiz-adv-x="860" 
d="M391 0h-348v10h91v738h-91v10h348v-10h-92v-335l394 335h-112v10h245v-10h-114l-409 -347h199l375 -401h-218l-360 385v-375h92v-10z" />
    <glyph glyph-name="uni041B" unicode="&#x41b;" horiz-adv-x="792" 
d="M237 748q-2 -116 -6 -220.5t-12 -193t-21.5 -158t-34.5 -116.5q-16 -35 -42 -54t-59 -19q-29 0 -53 16.5t-24 51.5q0 36 30 59t77 23q27 0 45.5 -2.5t35.5 -7.5q15 55 24.5 126.5t15 153t7.5 168.5t3 173h-101v10h627v-10h-91v-738h91v-10h-347v10h91v738h-256z" />
    <glyph glyph-name="uni041C" unicode="&#x41c;" horiz-adv-x="1016" 
d="M13 10h97l37 606l-78 142h184l266 -478l183 478h246v-10h-98l44 -738h98v-10h-362v10h98l-41 675l-236 -616h-6l-288 527l-35 -586h96v-10h-205v10z" />
    <glyph glyph-name="uni041D" unicode="&#x41d;" horiz-adv-x="930" 
d="M391 0h-348v10h91v738h-91v10h348v-10h-92v-326h332v326h-91v10h347v-10h-91v-738h91v-10h-347v10h91v352h-332v-352h92v-10z" />
    <glyph glyph-name="uni041E" unicode="&#x41e;" horiz-adv-x="941" 
d="M471 -13q-80 0 -156.5 26.5t-136.5 77.5t-96.5 124.5t-36.5 167.5t36.5 167.5t96.5 124.5t136.5 77.5t156.5 26.5t156.5 -26.5t136 -77.5t96 -124.5t36.5 -167.5t-36.5 -167.5t-96 -124.5t-136 -77.5t-156.5 -26.5zM518 1q41 0 79 16t67.5 49t47.5 83.5t18 119.5
q0 50 -9.5 106t-27.5 111t-44.5 105.5t-60.5 89t-75.5 61.5t-89.5 23q-41 0 -79 -16t-67.5 -49t-47.5 -83.5t-18 -119.5q0 -50 9.5 -106t27.5 -111t44.5 -105.5t60.5 -89t75.5 -61.5t89.5 -23z" />
    <glyph glyph-name="uni041F" unicode="&#x41f;" horiz-adv-x="918" 
d="M619 748h-320v-738h92v-10h-348v10h91v738h-91v10h832v-10h-91v-738h91v-10h-347v10h91v738z" />
    <glyph glyph-name="uni0420" unicode="&#x420;" horiz-adv-x="770" 
d="M43 10h91v738h-91v10h365q72 0 135 -8.5t110.5 -31t74.5 -61t27 -99.5q0 -54 -25 -94.5t-70 -66.5t-107.5 -39t-137.5 -13h-85v10h84q39 0 69.5 14.5t51.5 40t31.5 61.5t10.5 80q0 43 -10.5 79.5t-31.5 62.5t-51.5 40.5t-69.5 14.5h-115v-738h116v-10h-372v10z" />
    <glyph glyph-name="uni0421" unicode="&#x421;" horiz-adv-x="865" 
d="M495 -4q48 0 91 15t82 50.5t73.5 93t65.5 143.5h6l-52 -308h-6l-49 57q-20 -15 -45.5 -26t-54 -18.5t-59 -11.5t-58.5 -4q-97 0 -178.5 28.5t-140.5 81t-92 125t-33 161.5q0 84 31 156.5t89 125.5t139.5 83.5t182.5 30.5q28 0 58 -4t58.5 -11.5t54 -18.5t45.5 -26l50 57
h6l52 -308h-6q-31 85 -66 143t-74 93.5t-82 50.5t-91 15q-45 0 -91.5 -18t-84.5 -59.5t-62.5 -109t-24.5 -166.5q0 -86 17.5 -162.5t51.5 -134t83.5 -91t113.5 -33.5z" />
    <glyph glyph-name="uni0422" unicode="&#x422;" horiz-adv-x="811" 
d="M217 10h106v738h-148q-17 0 -23.5 -3.5t-13.5 -17.5l-113 -235h-6l37 316h7l90 -50h506l90 50h6l38 -316h-6l-114 235q-7 14 -13.5 17.5t-23.5 3.5h-148v-738h106v-10h-377v10z" />
    <glyph glyph-name="uni0423" unicode="&#x423;" horiz-adv-x="718" 
d="M358 115q-32 -66 -63.5 -97t-78.5 -31q-32 0 -51 18.5t-19 44.5q0 20 12 38.5t37 30.5t63.5 15.5t92.5 -5.5l21 43l-323 576h-75v10h340v-10h-85l226 -406l198 406h-84v10h173v-10h-76z" />
    <glyph glyph-name="uni0424" unicode="&#x424;" horiz-adv-x="1044" 
d="M703 -20h-362v10h99v97q-87 2 -162.5 24.5t-131.5 61.5t-88 92t-32 118q0 64 32 117.5t88 92.5t131.5 61.5t162.5 24.5v89h-99v10h362v-10h-99v-89q87 -2 162.5 -24.5t132 -61.5t88.5 -92.5t32 -117.5q0 -65 -32 -118t-88.5 -92t-132 -61.5t-162.5 -24.5v-97h99v-10z
M440 668q-54 0 -99 -18t-78 -51.5t-51 -81t-18 -107.5q0 -69 18.5 -124.5t51.5 -95t78 -63t98 -28.5v569zM850 356q0 69 -18.5 124t-51.5 95t-78 63.5t-98 28.5v-569q54 0 99 18.5t78 52t51 81t18 106.5z" />
    <glyph glyph-name="uni0425" unicode="&#x425;" horiz-adv-x="863" 
d="M213 0h-209v10h93l272 329l-278 409h-93v10h386v-10h-93l188 -277l229 277h-95v10h209v-10h-98l-238 -287l306 -451h93v-10h-385v10h93l-216 318l-264 -318h100v-10z" />
    <glyph glyph-name="uni0426" unicode="&#x426;" horiz-adv-x="924" 
d="M784 10h103l11 -235h-6l-129 207q-8 12 -16 15t-25 3h-679v10h91v738h-91v10h348v-10h-92v-738h320v738h-91v10h347v-10h-91v-738z" />
    <glyph glyph-name="uni0427" unicode="&#x427;" horiz-adv-x="869" 
d="M107 748h-92v10h348v-10h-91v-182q0 -71 11.5 -115t34 -69t55 -34t74.5 -9q23 0 55 5t67 20v384h-91v10h348v-10h-92v-738h92v-10h-357v10h100v343q-35 -13 -74 -19t-96 -6q-152 0 -222 55t-70 183v182z" />
    <glyph glyph-name="uni0428" unicode="&#x428;" horiz-adv-x="1298" 
d="M43 0v10h91v738h-91v10h348v-10h-92v-738h268v738h-92v10h348v-10h-91v-738h267v738h-91v10h347v-10h-91v-738h91v-10h-1212z" />
    <glyph glyph-name="uni0429" unicode="&#x429;" horiz-adv-x="1305" 
d="M1164 10h103l11 -235h-6l-129 207q-7 12 -15 15t-25 3h-1060v10h91v738h-91v10h348v-10h-92v-738h268v738h-92v10h348v-10h-91v-738h267v738h-91v10h347v-10h-91v-738z" />
    <glyph glyph-name="uni042A" unicode="&#x42a;" horiz-adv-x="891" 
d="M272 748h-58q-19 0 -27 -3.5t-19 -17.5l-153 -204h-6l38 235h481v-10h-91v-316h107q75 0 137 -12.5t106.5 -38t69 -63t24.5 -86.5q0 -60 -24.5 -103.5t-68.5 -72t-106 -42.5t-137 -14h-364v10h91v738zM701 213q0 46 -11.5 84.5t-35 66.5t-58 43t-80.5 15h-79v-412h79
q92 0 138.5 55t46.5 148z" />
    <glyph glyph-name="uni042B" unicode="&#x42b;" horiz-adv-x="1137" 
d="M300 432h107q75 0 137 -12.5t106.5 -38t69 -63t24.5 -86.5q0 -60 -24.5 -103.5t-68.5 -72t-106 -42.5t-137 -14h-364v10h91v738h-91v10h348v-10h-92v-316zM564 213q0 46 -11.5 84.5t-35 66.5t-58 43t-80.5 15h-79v-412h79q92 0 138.5 55t46.5 148zM1095 0h-348v10h91v738
h-91v10h348v-10h-92v-738h92v-10z" />
    <glyph glyph-name="uni042C" unicode="&#x42c;" horiz-adv-x="753" 
d="M299 432h107q75 0 137 -12.5t106.5 -38t69 -63t24.5 -86.5q0 -60 -24.5 -103.5t-68.5 -72t-106 -42.5t-137 -14h-364v10h91v738h-91v10h348v-10h-92v-316zM563 213q0 46 -11.5 84.5t-35 66.5t-58 43t-80.5 15h-79v-412h79q92 0 138.5 55t46.5 148z" />
    <glyph glyph-name="uni042D" unicode="&#x42d;" horiz-adv-x="862" 
d="M369 770q-48 0 -90.5 -16t-81 -51.5t-73 -93t-64.5 -141.5h-6l52 308h6l49 -57q40 31 97 45.5t115 14.5q92 0 173 -26.5t141 -76t95 -122t35 -163.5q0 -90 -32 -164t-91 -127.5t-141.5 -83t-182.5 -29.5q-55 0 -113 14t-98 46l-50 -57h-6l-51 308h6q30 -86 65 -144
t74 -93t82 -50t91 -15q43 0 90 19.5t85 63.5t63 115t25 174v15h-202q-10 0 -14.5 -3t-9.5 -14l-60 -127h-6v297h6l60 -127q5 -11 9.5 -13.5t14.5 -2.5h202q-3 87 -23.5 157t-55 118.5t-82 75t-103.5 26.5z" />
    <glyph glyph-name="uni042E" unicode="&#x42e;" horiz-adv-x="1271" 
d="M391 0h-348v10h91v738h-91v10h348v-10h-92v-352h96q3 91 39.5 162t94.5 120t131.5 75t150.5 26q78 0 153 -26.5t133 -77.5t93.5 -124.5t35.5 -167.5t-35.5 -167.5t-93.5 -124.5t-133 -77.5t-153 -26.5t-153 26.5t-133.5 77.5t-94 124.5t-35.5 167.5v3h-96v-376h92v-10z
M908 7q48 12 82.5 49.5t52 94.5t16.5 131.5t-24 161.5q-22 87 -56 152t-76 105.5t-90.5 55.5t-99.5 2q-50 -13 -85.5 -50t-53.5 -94t-17 -131.5t24 -161.5q22 -87 56.5 -152.5t77.5 -106t92 -55t101 -1.5z" />
    <glyph glyph-name="uni042F" unicode="&#x42f;" horiz-adv-x="809" 
d="M408 0v10h102v354h-35l-285 -364h-197l180 224q51 69 96 102.5t80 41.5v3q-117 12 -179 58t-62 127q0 105 83.5 153.5t253.5 48.5h321v-10h-91v-738h91v-10h-358zM510 748h-56q-44 0 -75.5 -14t-52 -39t-30.5 -59.5t-10 -74.5t10 -74.5t30.5 -59.5t52 -39t75.5 -14h56
v374z" />
    <glyph glyph-name="uni0402" unicode="&#x402;" horiz-adv-x="933" 
d="M194 10h107v738h-131q-17 0 -22.5 -4t-11.5 -15l-111 -203h-6l34 282h6l90 -50h487l90 50h7l34 -282h-6l-112 203q-5 11 -10.5 15t-23.5 4h-150v-354q26 16 66 27.5t108 11.5q72 0 122 -14t81.5 -41.5t46 -69.5t14.5 -98v-3q0 -40 -7 -70t-22 -54.5t-37.5 -44.5
t-52.5 -40q-31 -22 -72.5 -48.5t-87.5 -54.5l-5 8q42 31 66 56.5t36 54t14.5 65.5t2.5 93v43q0 56 -9.5 94t-27.5 61.5t-44.5 34t-60.5 10.5q-44 0 -75.5 -9.5t-55.5 -24.5v-371h107v-10h-378v10z" />
    <glyph glyph-name="uni0403" unicode="&#x403;" horiz-adv-x="682" 
d="M42 10h91v738h-91v10h588l37 -235h-6l-147 204q-10 14 -18.5 17.5t-27.5 3.5h-170v-738h125v-10h-381v10zM605 969l-252 -126h-10l82 129h180v-3z" />
    <glyph glyph-name="uni0404" unicode="&#x404;" horiz-adv-x="865" 
d="M495 -4q48 0 91 15t82 50.5t73.5 93t65.5 143.5h6l-52 -308h-6l-49 57q-20 -15 -45.5 -26t-54 -18.5t-59 -11.5t-58.5 -4q-97 0 -178.5 28.5t-140.5 81t-92 125t-33 161.5q0 84 31 156.5t89 125.5t139.5 83.5t182.5 30.5q28 0 58 -4t58.5 -11.5t54 -18.5t45.5 -26l50 57
h6l52 -308h-6q-31 85 -66 143t-74 93.5t-82 50.5t-91 15q-45 0 -91.5 -18t-84.5 -59.5t-62.5 -109t-24.5 -166.5v-24h238q10 0 14.5 2.5t9.5 13.5l60 127h6v-297h-6l-60 127q-5 11 -9.5 14t-14.5 3h-238q3 -81 22.5 -151.5t53 -123t81.5 -82.5t109 -30z" />
    <glyph glyph-name="uni0405" unicode="&#x405;" horiz-adv-x="669" 
d="M323 -13q-53 0 -101.5 13.5t-74.5 33.5l-45 -44h-6l-38 299h6q25 -80 53.5 -135.5t60.5 -90.5t68.5 -51t78.5 -16q78 0 124.5 38.5t46.5 102.5q0 34 -11.5 59t-33 43.5t-52.5 32.5t-69 25l-67 20q-99 29 -151 92.5t-52 149.5q0 54 22.5 95t59 69t82.5 42t93 14
q45 0 89.5 -12.5t71.5 -35.5l43 45h6l37 -280h-6q-26 78 -53 130.5t-57 84.5t-63 45.5t-71 13.5q-30 0 -56 -8.5t-45.5 -25t-30.5 -40t-11 -53.5q0 -60 36 -95.5t102 -56.5l66 -21q51 -17 94.5 -38t75 -50t49 -67.5t17.5 -89.5q0 -55 -24.5 -99t-65 -75t-92 -47.5
t-106.5 -16.5z" />
    <glyph glyph-name="uni0406" unicode="&#x406;" horiz-adv-x="434" 
d="M391 0h-348v10h91v738h-91v10h348v-10h-92v-738h92v-10z" />
    <glyph glyph-name="uni0407" unicode="&#x407;" horiz-adv-x="434" 
d="M391 0h-348v10h91v738h-91v10h348v-10h-92v-738h92v-10zM103 851q-32 0 -52.5 21t-20.5 52q0 32 20.5 53t52.5 21t52.5 -21t20.5 -53q0 -31 -20.5 -52t-52.5 -21zM332 851q-32 0 -53 21t-21 52q0 32 21 53t53 21q31 0 51.5 -21t20.5 -53q0 -31 -20.5 -52t-51.5 -21z" />
    <glyph glyph-name="uni0408" unicode="&#x408;" horiz-adv-x="474" 
d="M139 -143q-35 0 -66 8t-53.5 23t-35.5 36t-13 46q0 21 9.5 36.5t25.5 25t36 12.5t41 -2q9 -37 19.5 -67.5t23.5 -52.5t29 -34.5t36 -12.5q35 0 51.5 23t16.5 55q0 37 -20.5 73.5t-57.5 59.5l-2 662h-91v10h347v-10h-91v-641q0 -69 -16.5 -116.5t-44 -77t-65 -43
t-79.5 -13.5z" />
    <glyph glyph-name="uni0409" unicode="&#x409;" horiz-adv-x="1083" 
d="M636 432h107q75 0 137 -12.5t106.5 -38t69 -63t24.5 -86.5q0 -60 -24.5 -103.5t-68.5 -72t-106 -42.5t-137 -14h-364v10h91v738h-234q-2 -116 -6 -220.5t-12 -193t-21.5 -158t-34.5 -116.5q-16 -35 -42 -54t-59 -19q-29 0 -53 16.5t-24 51.5q0 36 30 59t77 23
q27 0 45.5 -2.5t35.5 -7.5q15 55 24.5 126.5t15 153t7.5 168.5t3 173h-101v10h606v-10h-92v-316zM900 213q0 46 -11.5 84.5t-35 66.5t-58 43t-80.5 15h-79v-412h79q92 0 138.5 55t46.5 148z" />
    <glyph glyph-name="uni040A" unicode="&#x40a;" horiz-adv-x="1205" 
d="M386 0h-343v10h91v738h-91v10h343v-10h-87v-328h287v328h-87v10h343v-10h-91v-328h107q75 0 137 -12.5t106.5 -36.5t69 -60.5t24.5 -84.5q0 -58 -24.5 -100.5t-68.5 -70.5t-106 -41.5t-137 -13.5h-360v10h87v400h-287v-400h87v-10zM1015 207q0 45 -11.5 82.5t-35 64
t-58 41.5t-80.5 15h-79v-400h79q92 0 138.5 53.5t46.5 143.5z" />
    <glyph glyph-name="uni040B" unicode="&#x40b;" horiz-adv-x="992" 
d="M194 10h107v738h-131q-17 0 -22.5 -4t-11.5 -15l-111 -203h-6l34 282h6l90 -50h487l90 50h7l34 -282h-6l-112 203q-5 11 -10.5 15t-23.5 4h-150v-354q28 17 70 28t105 11q135 0 199 -53t64 -179v-191h81v-10h-246v206q0 58 -9.5 98t-27.5 65t-44.5 35.5t-60.5 10.5
q-80 0 -131 -34v-371h107v-10h-378v10z" />
    <glyph glyph-name="uni040C" unicode="&#x40c;" horiz-adv-x="860" 
d="M391 0h-348v10h91v738h-91v10h348v-10h-92v-335l394 335h-112v10h245v-10h-114l-409 -347h199l375 -401h-218l-360 385v-375h92v-10zM694 969l-252 -126h-10l82 129h180v-3z" />
    <glyph glyph-name="uni040E" unicode="&#x40e;" horiz-adv-x="718" 
d="M358 115q-32 -66 -63.5 -97t-78.5 -31q-32 0 -51 18.5t-19 44.5q0 20 12 38.5t37 30.5t63.5 15.5t92.5 -5.5l21 43l-323 576h-75v10h340v-10h-85l226 -406l198 406h-84v10h173v-10h-76zM447 830q-45 0 -79.5 13t-57 34.5t-34 50.5t-11.5 62h105q0 -75 16 -112.5t61 -37.5
q24 0 38 9.5t21.5 28t10 46.5t2.5 66h105q0 -37 -13 -66.5t-36.5 -50.5t-56 -32t-71.5 -11z" />
    <glyph glyph-name="uni040F" unicode="&#x40f;" horiz-adv-x="908" 
d="M454 -225h-6l-59 204q-5 16 -14 18.5t-26 2.5h-306v10h91v738h-91v10h348v-10h-92v-738h310v738h-92v10h348v-10h-92v-738h92v-10h-300q-19 0 -33 -2.5t-19 -18.5z" />
    <glyph glyph-name="uni0490" unicode="&#x490;" horiz-adv-x="663" 
d="M469 758q19 0 28 3t18 18l126 204h6l-11 -235h-337v-738h125v-10h-381v10h91v738h-91v10h426z" />
    <glyph glyph-name="uni0462" unicode="&#x462;" horiz-adv-x="863" 
d="M409 618v-246h108q75 0 136.5 -9.5t106 -30t69 -52.5t24.5 -78q0 -56 -24.5 -94.5t-68.5 -62.5t-105.5 -34.5t-136.5 -10.5h-365v10h92v608h-88q-17 0 -23 -3.5t-14 -17.5l-104 -181h-6l28 262h7l90 -50h110v120h-92v10h348v-10h-92v-120h110l90 50h7l28 -262h-6
l-104 181q-8 14 -14 17.5t-23 3.5h-88zM673 183q0 86 -46 132.5t-139 46.5h-79v-352h79q185 0 185 173z" />
    <glyph glyph-name="uni0472" unicode="&#x472;" horiz-adv-x="941" 
d="M471 -13q-80 0 -156.5 26.5t-136.5 77.5t-96.5 124.5t-36.5 167.5t36.5 167.5t96.5 124.5t136.5 77.5t156.5 26.5t156.5 -26.5t136 -77.5t96 -124.5t36.5 -167.5t-36.5 -167.5t-96 -124.5t-136 -77.5t-156.5 -26.5zM222 384q75 37 133.5 48t104 7t81.5 -18.5t66 -28
t57.5 -22t56.5 -0.5q-11 69 -36.5 139.5t-63 127.5t-87.5 92.5t-111 35.5q-41 0 -79 -16t-67.5 -49t-47.5 -83.5t-18 -119.5q0 -52 11 -113zM518 1q41 0 79 16t67.5 49t47.5 83.5t18 119.5q0 21 -2 43.5t-5 45.5q-66 -35 -120 -44t-98 -3.5t-81 20.5t-70.5 28.5t-65 19.5
t-65.5 -5q13 -68 39 -134.5t63.5 -119.5t85.5 -86t107 -33z" />
    <glyph glyph-name="uni0474" unicode="&#x474;" horiz-adv-x="831" 
d="M753 623q-21 0 -43.5 4.5t-38.5 9.5l-282 -651h-6l-331 762h-83v10h350v-10h-88l235 -557l213 495q23 52 49.5 72.5t59.5 20.5q32 0 54 -16.5t22 -50.5t-28 -61.5t-83 -27.5z" />
    <glyph glyph-name="uni0492" unicode="&#x492;" horiz-adv-x="682" 
d="M42 10h91v738h-91v10h588l37 -235h-6l-147 204q-10 14 -18.5 17.5t-27.5 3.5h-170v-738h125v-10h-381v10zM42 422h419v-60h-419v60z" />
    <glyph glyph-name="uni0496" unicode="&#x496;" horiz-adv-x="1289" 
d="M-17 0l326 401h195l-371 347h-115v10h245v-10h-112l364 -341v341h-91v10h348v-10h-92v-341l364 341h-112v10h245v-10h-116l-371 -347h202l318 -391h88l11 -235h-6l-129 207q-8 12 -16 15t-25 3h-133l-320 392v-382h77v-10h-319v10h77v382l-320 -392h-212z" />
    <glyph glyph-name="uni049A" unicode="&#x49a;" horiz-adv-x="946" 
d="M391 0h-348v10h91v738h-91v10h348v-10h-92v-335l394 335h-112v10h245v-10h-114l-409 -347h199l365 -391h88l11 -235h-6l-129 207q-7 10 -13.5 13.5t-17.5 4.5h-141l-360 385v-375h92v-10z" />
    <glyph glyph-name="uni04A2" unicode="&#x4a2;" horiz-adv-x="936" 
d="M43 0v10h91v738h-91v10h348v-10h-92v-326h332v326h-91v10h347v-10h-91v-738h103l11 -235h-6l-129 207q-8 12 -16 15t-25 3h-194v10h91v352h-332v-352h92v-10h-348z" />
    <glyph glyph-name="uni04AE" unicode="&#x4ae;" horiz-adv-x="807" 
d="M227 10h97v366l-254 372h-93v10h373v-10h-93l233 -346l235 346h-94v10h193v-10h-84l-252 -371v-367h97v-10h-358v10z" />
    <glyph glyph-name="uni04B0" unicode="&#x4b0;" horiz-adv-x="807" 
d="M227 10h97v366l-254 372h-93v10h373v-10h-93l233 -346l235 346h-94v10h193v-10h-84l-252 -371v-367h97v-10h-358v10zM159 379h493v-60h-493v60z" />
    <glyph glyph-name="uni04B2" unicode="&#x4b2;" horiz-adv-x="882" 
d="M213 0h-209v10h93l272 329l-278 409h-93v10h386v-10h-93l188 -277l229 277h-95v10h209v-10h-98l-238 -287l306 -451h96l11 -235h-6l-128 207q-7 10 -13.5 13.5t-17.5 4.5h-234v10h93l-216 318l-264 -318h100v-10z" />
    <glyph glyph-name="uni04B6" unicode="&#x4b6;" horiz-adv-x="875" 
d="M469 0v10h100v343q-35 -13 -74 -19t-96 -6q-152 0 -222 55t-70 183v182h-92v10h348v-10h-91v-182q0 -71 11.5 -115t34 -69t55 -34t74.5 -9q23 0 55 5t67 20v384h-91v10h348v-10h-92v-738h103l11 -235h-6l-128 207q-8 12 -16 15t-25 3h-204z" />
    <glyph glyph-name="uni04BA" unicode="&#x4ba;" horiz-adv-x="839" 
d="M761.953 9.99902h91.9951v-9.99902h-347.979v9.99902h90.9951v181.989q0 70.9961 -11.5 114.993q-11.499 43.9971 -33.9971 68.9951q-22.499 24.999 -54.9971 33.998q-32.498 9 -74.4951 9q-22.999 0 -54.9971 -5t-66.9961 -19.999v-383.977h90.9951v-9.99902h-347.979
v9.99902h91.9951v737.955h-91.9951v10h356.979v-10h-99.9941v-342.979q34.998 12.999 73.9961 18.999q38.9971 5.99902 95.9941 5.99902q151.99 0 221.986 -54.9961q69.9951 -54.9971 69.9951 -182.989v-181.989z" />
    <glyph glyph-name="uni04C0" unicode="&#x4c0;" horiz-adv-x="434" 
d="M391 0h-348v10h91v738h-91v10h348v-10h-92v-738h92v-10z" />
    <glyph glyph-name="uni04D8" unicode="&#x4d8;" horiz-adv-x="856" 
d="M425 -13q-62 0 -120.5 15.5t-106.5 46t-81.5 77t-46.5 109.5h586q1 10 1.5 20.5t0.5 21.5q0 79 -21 145.5t-62 114.5t-100.5 74.5t-136.5 26.5q-46 0 -93 -12.5t-87 -42t-69 -78t-39 -120.5h-13q5 91 36.5 164t83.5 124t121.5 78.5t149.5 27.5q82 0 152 -27.5t121 -79
t79.5 -125t28.5 -164.5q0 -94 -32.5 -167.5t-86 -124.5t-123 -77.5t-142.5 -26.5zM436 1q40 0 76.5 15t65.5 43.5t49 69t27 92.5h-244q-41 0 -67.5 -4.5t-42.5 -14t-22.5 -24.5t-6.5 -36q0 -24 9 -49.5t29 -45.5t51 -33t76 -13z" />
    <glyph glyph-name="uni04E2" unicode="&#x4e2;" horiz-adv-x="925" 
d="M391 0h-348v10h91v738h-91v10h348v-10h-92v-654l327 609v45h-92v10h348v-10h-91v-738h91v-10h-348v10h92v662l-327 -608v-54h92v-10zM302 944h314v-64h-314v64z" />
    <glyph glyph-name="uni04E8" unicode="&#x4e8;" horiz-adv-x="941" 
d="M471 -13q-80 0 -156.5 26.5t-136.5 77.5t-96.5 124.5t-36.5 167.5t36.5 167.5t96.5 124.5t136.5 77.5t156.5 26.5t156.5 -26.5t136 -77.5t96 -124.5t36.5 -167.5t-36.5 -167.5t-96 -124.5t-136 -77.5t-156.5 -26.5zM518 1q41 0 79 16t67.5 49t47.5 83.5t18 119.5
q0 22 -2 45t-5 47h-497q14 -66 40 -130.5t63 -115.5t84.5 -82.5t104.5 -31.5zM211 497q0 -19 1.5 -38.5t3.5 -39.5h495q-15 64 -41 126t-62.5 111t-83 79t-101.5 30q-41 0 -79 -16t-67.5 -49t-47.5 -83.5t-18 -119.5z" />
    <glyph glyph-name="uni04EE" unicode="&#x4ee;" horiz-adv-x="718" 
d="M358 115q-32 -66 -63.5 -97t-78.5 -31q-32 0 -51 18.5t-19 44.5q0 20 12 38.5t37 30.5t63.5 15.5t92.5 -5.5l21 43l-323 576h-75v10h340v-10h-85l226 -406l198 406h-84v10h173v-10h-76zM248 944h314v-64h-314v64z" />
    <glyph glyph-name="uni0430" unicode="&#x430;" horiz-adv-x="563" 
d="M198 -13q-32 0 -60 10.5t-49 28.5t-33.5 42.5t-12.5 53.5q0 35 15.5 56.5t41 36.5t58.5 27.5t69 30.5q24 12 43 25t33 25q17 14 24.5 30t7.5 42q0 49 -22.5 78t-57.5 29q-18 0 -35 -7t-28 -25.5t-14 -50.5t6 -82q-10 -14 -29.5 -20.5t-34.5 -6.5q-32 0 -55 13t-23 39
q0 30 26 52.5t56 40.5l42 24t44.5 21.5t50.5 15t60 5.5q32 0 61 -6t51 -23.5t35 -48.5t13 -81v-352h71v-10h-208l-10 94q-14 -54 -51.5 -80.5t-84.5 -26.5zM270 42q25 0 43 24.5t19 69.5l3 205q-7 -8 -15.5 -15.5t-17.5 -15.5q-19 -15 -37.5 -30t-33.5 -32t-24.5 -36.5
t-9.5 -43.5q0 -25 5.5 -48t15 -40t23 -27.5t29.5 -10.5z" />
    <glyph glyph-name="uni0431" unicode="&#x431;" horiz-adv-x="623" 
d="M586 249q0 -62 -22 -110t-59 -82t-87 -51.5t-105 -17.5q-130 0 -202 85t-72 240q0 100 32 182.5t90.5 141t141.5 90.5t185 32h44v61h10v-183q-34 -3 -71.5 -1t-76 5.5t-75.5 8.5t-69 10q-43 6 -62 -15t-19 -86q0 -26 1 -51t3 -51q24 21 59 33t88 12q67 0 117 -21t83 -56
t49.5 -81t16.5 -95zM432 120q0 30 -3.5 68.5t-10.5 79t-19 80t-29.5 70t-40.5 49.5t-53 19q-31 0 -56.5 -11t-45.5 -31q7 -85 22.5 -165t39 -141.5t53 -98.5t64.5 -37q37 0 58 26.5t21 91.5z" />
    <glyph glyph-name="uni0432" unicode="&#x432;" horiz-adv-x="596" 
d="M27 0v10h71v482h-71v10h274q53 0 96.5 -7t74 -21t47.5 -35t17 -48q0 -53 -46.5 -83.5t-140.5 -43.5v-1q107 -6 163 -34.5t56 -85.5q0 -69 -63.5 -106t-183.5 -37h-294zM246 267h37q46 0 71.5 26t25.5 80q0 119 -108 119h-26v-225zM280 10q36 0 60 9t39 25.5t21 38t6 47.5
t-6 49t-20 40.5t-37.5 27.5t-59.5 10h-37v-247h34z" />
    <glyph glyph-name="uni0433" unicode="&#x433;" horiz-adv-x="498" 
d="M246 492v-482h86v-10h-305v10h71v482h-71v10h438l18 -183h-6l-118 155q-9 12 -15.5 15t-23.5 3h-74z" />
    <glyph glyph-name="uni0434" unicode="&#x434;" horiz-adv-x="562" 
d="M3 10h70q29 63 46 184t17 298h-75v10h464v-10h-71v-482h81l10 -170h-6l-93 143q-7 11 -12.5 14t-23.5 3h-282q-18 0 -23.5 -3t-12.5 -14l-93 -143h-6zM306 10v482h-157q0 -180 -18 -299.5t-44 -182.5h219z" />
    <glyph glyph-name="uni0435" unicode="&#x435;" horiz-adv-x="583" 
d="M300 -13q-54 0 -102 18t-83 51.5t-55.5 82.5t-20.5 111q0 58 21.5 107t57.5 85t82 56t96 20q35 0 71 -8t67.5 -26.5t56 -50.5t37.5 -80h-359q-1 -6 -1 -12v-13q0 -52 13.5 -95t38 -74.5t60 -49t80.5 -17.5q25 0 53 6t53.5 23t46 46t30.5 76h8q-7 -71 -29 -120t-55.5 -79
t-76 -43.5t-90.5 -13.5zM287 508q-46 0 -78 -35.5t-39 -108.5h121q48 0 65 13t17 44q0 13 -5 28.5t-15.5 28.5t-27 21.5t-38.5 8.5z" />
    <glyph glyph-name="uni0451" unicode="&#x451;" horiz-adv-x="583" 
d="M300 -13q-54 0 -102 18t-83 51.5t-55.5 82.5t-20.5 111q0 58 21.5 107t57.5 85t82 56t96 20q35 0 71 -8t67.5 -26.5t56 -50.5t37.5 -80h-359q-1 -6 -1 -12v-13q0 -52 13.5 -95t38 -74.5t60 -49t80.5 -17.5q25 0 53 6t53.5 23t46 46t30.5 76h8q-7 -71 -29 -120t-55.5 -79
t-76 -43.5t-90.5 -13.5zM287 508q-46 0 -78 -35.5t-39 -108.5h121q48 0 65 13t17 44q0 13 -5 28.5t-15.5 28.5t-27 21.5t-38.5 8.5zM410 614q-32 0 -52.5 21t-20.5 52q0 32 20.5 53t52.5 21t52.5 -21t20.5 -53q0 -31 -20.5 -52t-52.5 -21zM173 614q-32 0 -52.5 20.5
t-20.5 51.5q0 32 20.5 53t52.5 21t52 -21t20 -53q0 -31 -20 -51.5t-52 -20.5z" />
    <glyph glyph-name="uni0436" unicode="&#x436;" horiz-adv-x="897" 
d="M200 263h162l-115 131h-160l-80 108h170l196 -237v227h-71v10h289v-10h-70v-225l195 235h169l-79 -108h-160l-115 -131h166l210 -263h-181l-205 258v-248h66v-10h-281v10h67v250l-207 -260h-176z" />
    <glyph glyph-name="uni0437" unicode="&#x437;" horiz-adv-x="520" 
d="M240 0q25 0 41 9.5t26 25.5t14 38t4 47q0 30 -5 55.5t-18.5 45t-36.5 30.5t-59 11h-47v10h47q51 0 75 28t24 87q0 57 -16.5 88.5t-57.5 31.5q-17 0 -24.5 -7t-21.5 -24l-120 -156h-7l25 176q65 22 169 22q96 0 154 -31t58 -91q0 -53 -48.5 -84.5t-137.5 -42.5v-1
q46 -2 85 -11t67.5 -25.5t44 -41t15.5 -57.5q0 -70 -63.5 -108t-180.5 -38q-103 0 -159 29.5t-56 81.5q0 36 34 56t86 12q7 -83 27 -124.5t62 -41.5z" />
    <glyph glyph-name="uni0438" unicode="&#x438;" horiz-adv-x="661" 
d="M27 10h71v482h-71v10h260v-10h-41v-396l169 358v38h-71v10h290v-10h-71v-482h71v-10h-260v10h41v405l-169 -358v-47h71v-10h-290v10z" />
    <glyph glyph-name="uni0439" unicode="&#x439;" horiz-adv-x="661" 
d="M27 10h71v482h-71v10h260v-10h-41v-396l169 358v38h-71v10h290v-10h-71v-482h71v-10h-260v10h41v405l-169 -358v-47h71v-10h-290v10zM329 628q-45 0 -79.5 13t-57 34.5t-34 50.5t-11.5 62h105q0 -75 16 -112.5t61 -37.5q24 0 38 9.5t21.5 28t10 46.5t2.5 66h105
q0 -37 -13 -66.5t-36.5 -50.5t-56 -32t-71.5 -11z" />
    <glyph glyph-name="uni043A" unicode="&#x43a;" horiz-adv-x="636" 
d="M29 10h71v482h-71v10h290v-10h-71v-216l207 226h169l-79 -108h-170l-125 -131h166l230 -263h-181l-217 250v-240h66v-10h-285v10z" />
    <glyph glyph-name="uni043B" unicode="&#x43b;" horiz-adv-x="577" 
d="M550 502v-10h-71v-482h71v-10h-290v10h71v482h-142q0 -64 -1.5 -123t-5.5 -110t-9.5 -93t-13.5 -72q-15 -57 -44 -82t-62 -25q-26 0 -44 15.5t-18 46.5q0 32 26.5 54.5t69.5 22.5q19 0 35 -1.5t28 -3.5q14 64 20 158t6 213h-76v10h450z" />
    <glyph glyph-name="uni043C" unicode="&#x43c;" horiz-adv-x="743" 
d="M8 10h71l28 400l-52 92h175l150 -264l124 264h205v-10h-71l26 -482h71v-10h-290v10h71l-21 443l-183 -399h-5l-190 337l-26 -381h71v-10h-154v10z" />
    <glyph glyph-name="uni043D" unicode="&#x43d;" horiz-adv-x="656" 
d="M368 10h42v226h-164v-226h71v-10h-290v10h71v482h-71v10h260v-10h-41v-213h164v213h-71v10h290v-10h-71v-482h71v-10h-261v10z" />
    <glyph glyph-name="uni043E" unicode="&#x43e;" horiz-adv-x="623" 
d="M311 -13q-64 0 -114.5 21.5t-86 58.5t-54 85t-18.5 102t19 102t55 84t86.5 57t113.5 21q64 0 114.5 -22t86 -58.5t54 -85t18.5 -102.5t-19 -102t-55 -84t-86.5 -56.5t-113.5 -20.5zM353 0q16 0 32 6t28.5 20.5t20 38.5t7.5 61q0 29 -7 69.5t-21 93.5q-13 49 -28 88.5
t-32 67.5t-37.5 43.5t-45.5 15.5q-16 0 -32 -6t-28.5 -20t-20 -38.5t-7.5 -61.5q0 -55 29 -162q13 -49 27.5 -89t32 -68t37.5 -43.5t45 -15.5z" />
    <glyph glyph-name="uni043F" unicode="&#x43f;" horiz-adv-x="653" 
d="M27 502h599v-10h-71v-482h71v-10h-260v10h41v482h-161v-482h71v-10h-290v10h71v482h-71v10z" />
    <glyph glyph-name="uni0440" unicode="&#x440;" horiz-adv-x="641" 
d="M17 -238h71v616l-71 49v4l219 94v-108q17 43 56.5 72t91.5 29q39 0 78 -17t70 -51t50 -83.5t19 -113.5q0 -62 -19 -111.5t-50.5 -84t-72 -52.5t-82.5 -18q-48 0 -86.5 25t-54.5 67v-317h95v-10h-314v10zM318 32q21 0 41 11.5t36 37.5t26 66.5t10 99.5q0 114 -34 167.5
t-82 53.5q-23 0 -47.5 -20.5t-31.5 -59.5v-280q7 -35 31 -55.5t51 -20.5z" />
    <glyph glyph-name="uni0441" unicode="&#x441;" horiz-adv-x="562" 
d="M294 -13q-56 0 -102.5 18.5t-80.5 53t-53 83.5t-19 109q0 62 23.5 111.5t62.5 84t90 53t107 18.5q34 0 66 -8t56.5 -22t39 -35t14.5 -46q0 -37 -33 -56t-87 -11q-2 85 -30 124t-73 39q-50 0 -78.5 -46.5t-28.5 -123.5q0 -49 12 -92.5t36 -76.5t59.5 -52.5t82.5 -19.5
q23 0 48 6t48.5 22.5t42 46t29.5 76.5h9q-7 -71 -28 -120t-53 -79t-73 -43.5t-87 -13.5z" />
    <glyph glyph-name="uni0442" unicode="&#x442;" horiz-adv-x="570" 
d="M28 502h514l18 -183h-6l-113 155q-9 12 -15.5 15t-23.5 3h-43v-482h81v-10h-310v10h81v482h-43q-17 0 -24 -3t-15 -15l-113 -155h-6z" />
    <glyph glyph-name="uni0443" unicode="&#x443;" horiz-adv-x="565" 
d="M122 -256q-29 0 -47.5 18.5t-18.5 46.5q0 18 10.5 36t33 32t56.5 21.5t82 4.5l39 85l-231 504h-63v10h289v-10h-65l150 -330l151 330h-115v10h194v-10h-66l-292 -636q-13 -29 -24 -50t-23 -34.5t-26.5 -20.5t-33.5 -7z" />
    <glyph glyph-name="uni0444" unicode="&#x444;" horiz-adv-x="834" 
d="M273 -238h71v225q-74 2 -131 24.5t-96 58t-59 81t-20 93.5q0 55 22.5 103.5t63 85t96.5 57.5t124 21v237h-71v10h217v-247q71 -2 127.5 -22t96.5 -53.5t61 -78.5t21 -96q0 -58 -23.5 -108t-64.5 -87t-97 -58t-121 -21v-225h71v-10h-288v10zM197 275q0 -57 9 -105.5
t27.5 -85.5t46 -59t64.5 -25v498q-31 -1 -57.5 -13.5t-46.5 -38.5t-31.5 -68t-11.5 -103zM637 230q0 52 -8.5 98.5t-26.5 82t-45.5 58.5t-66.5 28v-497h2q30 0 56 13t46 41t31.5 71.5t11.5 104.5z" />
    <glyph glyph-name="uni0445" unicode="&#x445;" horiz-adv-x="593" 
d="M183 10v-10h-180v10h72l171 199l-181 283h-62v10h292v-10h-66l111 -174l150 174h-93v10h180v-10h-72l-158 -184l191 -298h62v-10h-292v10h66l-121 189l-163 -189h93z" />
    <glyph glyph-name="uni0446" unicode="&#x446;" horiz-adv-x="663" 
d="M555 10h81l10 -170h-6l-94 143q-7 11 -12.5 14t-23.5 3h-483v10h71v482h-71v10h260v-10h-41v-482h161v482h-71v10h290v-10h-71v-482z" />
    <glyph glyph-name="uni0447" unicode="&#x447;" horiz-adv-x="620" 
d="M289 213q-57 0 -97.5 7t-67 25.5t-38.5 50.5t-12 81v115h-71v10h259v-10h-41v-144q0 -66 20.5 -94.5t73.5 -28.5q16 0 31.5 1.5t27.5 5.5v260h-71v10h290v-10h-71v-482h71v-10h-300v10h81v212q-10 -3 -21.5 -4.5t-23.5 -2.5t-22.5 -1.5t-17.5 -0.5z" />
    <glyph glyph-name="uni0448" unicode="&#x448;" horiz-adv-x="947" 
d="M547 10h153v482h-66v10h285v-10h-71v-482h71v-10h-892v10h71v482h-71v10h258v-10h-39v-482h153v482h-67v10h254v-10h-39v-482z" />
    <glyph glyph-name="uni0449" unicode="&#x449;" horiz-adv-x="956" 
d="M848 10h81l10 -170h-6l-94 143q-7 11 -12.5 14t-23.5 3h-776v10h71v482h-71v10h258v-10h-39v-482h153v482h-67v10h254v-10h-39v-482h153v482h-66v10h285v-10h-71v-482z" />
    <glyph glyph-name="uni044A" unicode="&#x44a;" horiz-adv-x="661" 
d="M389 300q135 0 199.5 -35.5t64.5 -105.5q0 -77 -64.5 -118t-200.5 -41h-259v10h71v482h-28q-17 0 -23.5 -3t-15.5 -15l-117 -155h-6l18 183h391v-10h-71v-192h41zM376 10q34 0 56.5 10.5t36 28.5t19 42.5t5.5 52.5q0 31 -5.5 57.5t-18.5 46t-35 31t-55 11.5h-31v-280h28z
" />
    <glyph glyph-name="uni044B" unicode="&#x44b;" horiz-adv-x="876" 
d="M559 10h71v482h-71v10h290v-10h-71v-482h71v-10h-290v10zM292 300q133 0 196 -35.5t63 -105.5q0 -77 -63 -118t-197 -41h-264v10h71v482h-71v10h290v-10h-71v-192h46zM275 10q33 0 55.5 10.5t36 28.5t19 42.5t5.5 52.5q0 31 -5.5 57.5t-18.5 46t-34.5 31t-54.5 11.5h-32
v-280h29z" />
    <glyph glyph-name="uni044C" unicode="&#x44c;" horiz-adv-x="559" 
d="M292 300q133 0 196 -35.5t63 -105.5q0 -77 -63 -118t-197 -41h-264v10h71v482h-71v10h290v-10h-71v-192h46zM275 10q33 0 55.5 10.5t36 28.5t19 42.5t5.5 52.5q0 31 -5.5 57.5t-18.5 46t-34.5 31t-54.5 11.5h-32v-280h29z" />
    <glyph glyph-name="uni044D" unicode="&#x44d;" horiz-adv-x="575" 
d="M258 -4q27 0 47 21.5t33.5 56.5t20.5 80.5t7 92.5v4h-199v10h199q-1 48 -9.5 92.5t-24 79t-39 55t-55.5 20.5q-19 0 -28 -5.5t-19 -18.5l-126 -164h-7l25 176q34 11 76.5 16.5t100.5 5.5q62 0 113 -19t87 -54t56 -84.5t20 -110.5q0 -59 -20.5 -107t-56.5 -83t-86 -54
t-108 -19q-116 0 -175 29.5t-59 82.5q0 36 33 56t87 11q2 -86 31 -128t76 -42z" />
    <glyph glyph-name="uni044E" unicode="&#x44e;" horiz-adv-x="893" 
d="M27 10h71v482h-71v10h290v-10h-71v-226h73q2 52 22 98t55 80.5t83.5 54t108.5 19.5q63 0 112.5 -22t84 -58.5t52.5 -85t18 -102.5t-19 -102t-53.5 -84t-84.5 -56.5t-111 -20.5q-63 0 -113 21.5t-84.5 58.5t-52.5 85t-18 102v2h-73v-246h71v-10h-290v10zM628 0q15 0 30 6
t27 20.5t19.5 38.5t7.5 61q0 31 -8 73t-22 96q-26 96 -58 152.5t-78 56.5q-15 0 -30 -6t-27 -20t-19 -38.5t-7 -61.5q0 -61 28 -164q13 -49 27.5 -88.5t31 -67.5t36 -43t42.5 -15z" />
    <glyph glyph-name="uni044F" unicode="&#x44f;" horiz-adv-x="609" 
d="M151 0h-158l127 151q32 42 62 60.5t68 20.5v2q-87 5 -134 37.5t-47 91.5q0 35 17 61t48.5 43.5t76 26t99.5 8.5h272v-10h-71v-482h71v-10h-290v10h71v218h-26zM363 238v254h-28q-54 0 -80.5 -33.5t-26.5 -93.5q0 -54 27.5 -90.5t81.5 -36.5h26z" />
    <glyph glyph-name="uni0452" unicode="&#x452;" horiz-adv-x="603" 
d="M545 49q0 -39 -8 -68.5t-22.5 -53.5t-34 -43.5t-42.5 -37.5q-13 -11 -31 -24t-38.5 -27.5t-42 -29.5t-42.5 -28l-6 7q35 29 58 54.5t36.5 56t19 70.5t5.5 97v311q0 74 -20.5 105.5t-58.5 31.5q-42 0 -63 -32.5t-21 -104.5v-323h71v-10h-289v10h71v587h-71v43h71v108h-71
v10h218v-118h142v-43h-142v-187q15 56 57 82t98 26q72 0 114 -45t42 -141v-283z" />
    <glyph glyph-name="uni0453" unicode="&#x453;" horiz-adv-x="498" 
d="M246 492v-482h86v-10h-305v10h71v482h-71v10h438l18 -183h-6l-118 155q-9 12 -15.5 15t-23.5 3h-74zM284 758h154v-3l-200 -176h-10z" />
    <glyph glyph-name="uni0454" unicode="&#x454;" horiz-adv-x="562" 
d="M294 -13q-56 0 -102.5 18.5t-80.5 53t-53 83.5t-19 109q0 62 23.5 111.5t62.5 84t90 53t107 18.5q34 0 66 -7.5t56.5 -21t39 -33.5t14.5 -44q0 -40 -33 -56.5t-87 -7.5q-2 81 -30 118t-73 37q-51 0 -79.5 -47t-28.5 -124q0 -16 1.5 -31.5t3.5 -30.5h192v-10h-190
q7 -36 22.5 -67t38.5 -53.5t53 -35.5t68 -13q23 0 48.5 6t49 23t42.5 46.5t30 76.5h9q-7 -71 -28 -120t-53 -79t-73 -43.5t-87 -13.5z" />
    <glyph glyph-name="uni0455" unicode="&#x455;" horiz-adv-x="494" 
d="M229 -13q-37 0 -76 4.5t-77 14.5l-24 205h6l133 -196q8 -12 19 -15t30 -3q24 0 46 5.5t39 16.5t27 27.5t10 38.5q0 38 -26 60.5t-75 34.5l-62 15q-75 18 -111.5 62t-36.5 100q0 39 17 69t46 50.5t67 31t81 10.5q34 0 69.5 -5.5t70.5 -16.5l25 -176h-7l-134 173
q-6 8 -17 10.5t-28 2.5q-18 0 -36 -3.5t-33 -12t-24 -23t-9 -36.5q0 -34 23 -57.5t67 -34.5l59 -14q167 -40 167 -168q0 -39 -16.5 -70.5t-46.5 -53.5t-71.5 -34t-91.5 -12z" />
    <glyph glyph-name="uni0456" unicode="&#x456;" horiz-adv-x="333" 
d="M246 10h71v-10h-290v10h71v368l-71 49v4l219 94v-515zM169 606q-38 0 -64.5 26.5t-26.5 64.5q0 19 7 35.5t19.5 28.5t29 19t35.5 7q38 0 64.5 -26t26.5 -64q0 -19 -7 -35.5t-19.5 -29t-29 -19.5t-35.5 -7z" />
    <glyph glyph-name="uni0457" unicode="&#x457;" horiz-adv-x="332" 
d="M79 606q-35 0 -54.5 24.5t-19.5 66.5t19.5 66t54.5 24q34 0 54 -24t20 -66t-20 -66.5t-54 -24.5zM258 606q-35 0 -54.5 24.5t-19.5 66.5t19.5 66t54.5 24q34 0 54 -24t20 -66t-20 -66.5t-54 -24.5zM246 10h71v-10h-290v10h71v368l-71 49v4l219 94v-515z" />
    <glyph glyph-name="uni0458" unicode="&#x458;" horiz-adv-x="312" 
d="M236 49q0 -39 -8 -68.5t-22.5 -53.5t-34 -43.5t-42.5 -37.5q-13 -11 -31 -24t-38.5 -27.5t-42.5 -29.5t-43 -28l-5 7q35 29 58 54.5t36.5 56t19 70.5t5.5 97v356l-71 49v4l219 94v-476zM159 606q-38 0 -64.5 26.5t-26.5 64.5q0 19 7 35.5t19.5 28.5t29 19t35.5 7
q38 0 64.5 -26t26.5 -64q0 -19 -7 -35.5t-19.5 -29t-29 -19.5t-35.5 -7z" />
    <glyph glyph-name="uni0459" unicode="&#x459;" horiz-adv-x="794" 
d="M526 300q133 0 196 -35.5t63 -105.5q0 -77 -63 -118t-197 -41h-264v10h71v482h-143q0 -64 -1.5 -123t-5.5 -110t-9.5 -93t-13.5 -72q-15 -57 -44 -82t-62 -25q-26 0 -44 15.5t-18 46.5q0 32 26.5 54.5t69.5 22.5q19 0 35 -1.5t28 -3.5q14 64 20 158t6 213h-76v10h451v-10
h-71v-192h46zM509 10q33 0 55.5 10.5t36 28.5t19 42.5t5.5 52.5q0 31 -5.5 57.5t-18.5 46t-34.5 31t-54.5 11.5h-32v-280h29z" />
    <glyph glyph-name="uni045A" unicode="&#x45a;" horiz-adv-x="856" 
d="M27 10h71v482h-71v10h260v-10h-41v-203h154v203h-66v10h285v-10h-71v-203h41q133 0 196 -34t63 -101q0 -75 -63 -114.5t-197 -39.5h-229v10h41v269h-154v-269h71v-10h-290v10zM571 10q34 0 56.5 10t36 27t19 41t5.5 51q0 29 -5.5 54.5t-18.5 44.5t-35 30t-55 11h-26v-269
h23z" />
    <glyph glyph-name="uni045B" unicode="&#x45b;" horiz-adv-x="627" 
d="M16 10h71v738h-71v10h218v-348q15 56 57 82t98 26q72 0 114 -45t42 -141v-322h71v-10h-280v10h61v323q0 74 -20.5 105.5t-58.5 31.5q-42 0 -63 -32.5t-21 -104.5v-323h61v-10h-279v10zM16 640h360v-43h-360v43z" />
    <glyph glyph-name="uni045C" unicode="&#x45c;" horiz-adv-x="636" 
d="M29 10h71v482h-71v10h290v-10h-71v-216l207 226h169l-79 -108h-170l-125 -131h166l230 -263h-181l-217 250v-240h66v-10h-285v10zM379 758h154v-3l-200 -176h-10z" />
    <glyph glyph-name="uni045E" unicode="&#x45e;" horiz-adv-x="565" 
d="M122 -256q-29 0 -47.5 18.5t-18.5 46.5q0 18 10.5 36t33 32t56.5 21.5t82 4.5l39 85l-231 504h-63v10h289v-10h-65l150 -330l151 330h-115v10h194v-10h-66l-292 -636q-13 -29 -24 -50t-23 -34.5t-26.5 -20.5t-33.5 -7zM320 628q-45 0 -79.5 13t-57 34.5t-34 50.5
t-11.5 62h105q0 -75 16 -112.5t61 -37.5q24 0 38 9.5t21.5 28t10 46.5t2.5 66h105q0 -37 -13 -66.5t-36.5 -50.5t-56 -32t-71.5 -11z" />
    <glyph glyph-name="uni045F" unicode="&#x45f;" horiz-adv-x="653" 
d="M280 -17q-4 12 -11 14.5t-25 2.5h-217v10h71v482h-71v10h260v-10h-41v-482h161v482h-71v10h290v-10h-71v-482h71v-10h-217q-18 0 -25.5 -2.5t-10.5 -14.5l-43 -142h-6z" />
    <glyph glyph-name="uni0491" unicode="&#x491;" horiz-adv-x="478" 
d="M246 492v-482h86v-10h-305v10h71v482h-71v10h293q17 0 23.5 3t14.5 15l108 142h6l-8 -170h-218z" />
    <glyph glyph-name="uni0463" unicode="&#x463;" horiz-adv-x="659" 
d="M198 10v482h-33q-17 0 -23.5 -3t-15.5 -15l-112 -155h-6l17 183h173v246h-71v10h219v-256h172l18 -183h-6l-113 155q-8 12 -15 15t-24 3h-32v-217h46q133 0 196 -31.5t63 -96.5q0 -75 -63 -111t-197 -36h-264v10h71zM374 10q34 0 56.5 9t36 25t19 38.5t5.5 49.5
q0 29 -5.5 53.5t-18.5 42t-35 27.5t-55 10h-31v-255h28z" />
    <glyph glyph-name="uni0473" unicode="&#x473;" horiz-adv-x="623" 
d="M311 -13q-64 0 -114.5 21.5t-86 58.5t-54 85t-18.5 102t19 102t55 84t86.5 57t113.5 21q64 0 114.5 -22t86 -58.5t54 -85t18.5 -102.5t-19 -102t-55 -84t-86.5 -56.5t-113.5 -20.5zM202 250q37 23 64 29.5t47 4t34.5 -10.5t26.5 -15.5t23.5 -11t25.5 3.5q-2 10 -5 19
t-5 20q-13 49 -28 88.5t-32 67.5t-37.5 43.5t-45.5 15.5q-16 0 -32 -6t-28.5 -20t-20 -38.5t-7.5 -61.5q0 -24 4.5 -56t15.5 -72zM353 0q16 0 32 6t28.5 20.5t20 38.5t7.5 61q0 46 -16 117q-32 -25 -56 -32t-43 -4.5t-34 11.5t-29 17t-28 12t-31 -4q2 -7 3.5 -13.5
t3.5 -13.5q13 -49 27.5 -89t32 -68t37.5 -43.5t45 -15.5z" />
    <glyph glyph-name="uni0475" unicode="&#x475;" horiz-adv-x="607" 
d="M641 462q0 -29 -14.5 -48t-38.5 -28t-54.5 -8.5t-61.5 8.5l-187 -401h-8l-231 507h-64v10h290v-10h-65l148 -329l126 272q19 41 42 62t55 21q29 0 46 -15t17 -41z" />
    <glyph glyph-name="uni0493" unicode="&#x493;" horiz-adv-x="498" 
d="M246 492v-213h134v-43h-134v-226h86v-10h-305v10h71v226h-68v43h68v213h-71v10h438l18 -183h-6l-118 155q-9 12 -15.5 15t-23.5 3h-74z" />
    <glyph glyph-name="uni0497" unicode="&#x497;" horiz-adv-x="958" 
d="M200 263h162l-115 131h-160l-80 108h170l196 -237v227h-71v10h289v-10h-70v-225l195 235h169l-79 -108h-160l-115 -131h166l202 -253h69l10 -170h-6l-93 143q-6 9 -10.5 12.5t-16.5 4.5h-126l-205 258v-248h66v-10h-281v10h67v250l-207 -260h-176z" />
    <glyph glyph-name="uni049B" unicode="&#x49b;" horiz-adv-x="695" 
d="M28 10h71v482h-71v10h290v-10h-71v-216l207 226h169l-79 -108h-170l-125 -131h166l221 -253h69l10 -170h-6l-94 143q-7 11 -12.5 14t-23.5 3h-115l-217 250v-240h66v-10h-285v10z" />
    <glyph glyph-name="uni04A3" unicode="&#x4a3;" horiz-adv-x="666" 
d="M27 10h71v482h-71v10h260v-10h-41v-213h164v213h-71v10h290v-10h-71v-482h80l10 -170h-6l-94 143q-7 11 -12.5 14t-23.5 3h-144v10h42v226h-164v-226h71v-10h-290v10z" />
    <glyph glyph-name="uni04AF" unicode="&#x4af;" horiz-adv-x="566" 
d="M139 -238h71v233l-162 497h-64v10h290v-10h-65l147 -462l153 462h-114v10h194v-10h-67l-164 -494v-236h71v-10h-290v10z" />
    <glyph glyph-name="uni04B1" unicode="&#x4b1;" horiz-adv-x="566" 
d="M139 -238h71v233l-162 497h-64v10h290v-10h-65l147 -462l153 462h-114v10h194v-10h-67l-164 -494v-236h71v-10h-290v10zM79 1h410v-43h-410v43z" />
    <glyph glyph-name="uni04B3" unicode="&#x4b3;" horiz-adv-x="611" 
d="M183 10v-10h-180v10h72l171 199l-181 283h-62v10h292v-10h-66l111 -174l150 174h-93v10h180v-10h-72l-158 -184l191 -298h70l10 -170h-6l-94 143q-6 9 -10.5 12.5t-16.5 4.5h-183v10h66l-121 189l-163 -189h93z" />
    <glyph glyph-name="uni04B7" unicode="&#x4b7;" horiz-adv-x="630" 
d="M289 213q-57 0 -97.5 7t-67 25.5t-38.5 50.5t-12 81v115h-71v10h259v-10h-41v-144q0 -66 20.5 -94.5t73.5 -28.5q16 0 31.5 1.5t27.5 5.5v260h-71v10h290v-10h-71v-482h80l10 -170h-6l-93 143q-7 11 -12.5 14t-23.5 3h-184v10h81v212q-10 -3 -21.5 -4.5t-23.5 -2.5
t-22.5 -1.5t-17.5 -0.5z" />
    <glyph glyph-name="uni04BB" unicode="&#x4bb;" horiz-adv-x="627" 
d="M16 10h71v738h-71v10h218v-348q15 56 57 82t98 26q72 0 114 -45t42 -141v-322h71v-10h-280v10h61v323q0 74 -20.5 105.5t-58.5 31.5q-42 0 -63 -32.5t-21 -104.5v-323h61v-10h-279v10z" />
    <glyph glyph-name="uni04CF" unicode="&#x4cf;" horiz-adv-x="321" 
d="M16 10h71v738h-71v10h289v-10h-71v-738h71v-10h-289v10z" />
    <glyph glyph-name="uni04D9" unicode="&#x4d9;" horiz-adv-x="583" 
d="M288 519q54 0 101 -18t81 -52t53.5 -83t19.5 -110q0 -59 -21.5 -108t-57 -84.5t-82 -55.5t-95.5 -20q-35 0 -71 7.5t-67.5 26.5t-56 50.5t-37.5 79.5h359q1 6 1 12v13q0 52 -13.5 95t-38 74.5t-60 49t-80.5 17.5q-26 0 -53.5 -6t-53 -22.5t-46 -46t-30.5 -75.5h-8
q7 71 29.5 120t57 79t78 43.5t91.5 13.5zM296 -2q46 0 78 35.5t39 108.5h-121q-48 0 -65 -13.5t-17 -43.5q0 -14 5 -29t15.5 -28t26.5 -21.5t39 -8.5z" />
    <glyph glyph-name="uni04E3" unicode="&#x4e3;" horiz-adv-x="661" 
d="M171 705h314v-64h-314v64zM27 10h71v482h-71v10h260v-10h-41v-396l169 358v38h-71v10h290v-10h-71v-482h71v-10h-260v10h41v405l-169 -358v-47h71v-10h-290v10z" />
    <glyph glyph-name="uni04E9" unicode="&#x4e9;" horiz-adv-x="623" 
d="M311 -13q-64 0 -114.5 21.5t-86 58.5t-54 85t-18.5 102t19 102t55 84t86.5 57t113.5 21q64 0 114.5 -22t86 -58.5t54 -85t18.5 -102.5t-19 -102t-55 -84t-86.5 -56.5t-113.5 -20.5zM353 0q16 0 32 6t28.5 20.5t20 38.5t7.5 61q0 29 -7 69.5t-21 93.5q-13 49 -28 88.5
t-32 67.5t-37.5 43.5t-45.5 15.5q-16 0 -32 -6t-28.5 -20t-20 -38.5t-7.5 -61.5q0 -55 29 -162q13 -49 27.5 -89t32 -68t37.5 -43.5t45 -15.5zM107 280h410v-43h-410v43z" />
    <glyph glyph-name="uni04EF" unicode="&#x4ef;" horiz-adv-x="565" 
d="M122 -256q-29 0 -47.5 18.5t-18.5 46.5q0 18 10.5 36t33 32t56.5 21.5t82 4.5l39 85l-231 504h-63v10h289v-10h-65l150 -330l151 330h-115v10h194v-10h-66l-292 -636q-13 -29 -24 -50t-23 -34.5t-26.5 -20.5t-33.5 -7zM155 705h314v-64h-314v64z" />
    <glyph glyph-name="uni0414.aalt" horiz-adv-x="807" 
d="M340 623l-225 -613h436zM102 10l232 632l-40 116h170l258 -748h87l11 -235h-6l-129 207q-8 12 -16 15t-25 3h-481q-17 0 -25 -3t-16 -15l-129 -207h-6l11 235h104z" />
    <glyph glyph-name="uni041B.aalt" horiz-adv-x="736" 
d="M421 10h88l-219 614l-222 -614h92v-10h-188v10h83l228 632l-41 116h171l267 -748h83v-10h-342v10z" />
    <glyph glyph-name="uni0432.aalt" horiz-adv-x="572" 
d="M288 -13q-47 0 -89.5 13.5t-74 40.5t-50 68t-18.5 97v359q0 109 63 167.5t173 58.5q54 0 94 -14t66.5 -37.5t40 -53.5t13.5 -62q0 -84 -54 -136.5t-163 -67.5v-1q58 -3 105.5 -17.5t81 -41.5t52 -65t18.5 -87q0 -51 -18.5 -92t-52.5 -69.5t-81.5 -44t-105.5 -15.5z
M204 424h41q35 0 55.5 19t31.5 46.5t14.5 59t3.5 56.5q0 40 -4 72t-13 55t-23 35.5t-35 12.5q-20 0 -33.5 -7.5t-21.5 -27.5t-12 -54t-4 -87v-180zM298 -3q47 0 68.5 45.5t21.5 147.5q0 106 -33 165t-109 59h-42v-219q0 -99 20.5 -148.5t73.5 -49.5z" />
    <glyph glyph-name="uni0433.aalt" horiz-adv-x="488" 
d="M261 -13q-46 0 -86 7t-69 23t-46 41.5t-17 62.5q0 28 9.5 50.5t27.5 41.5t44.5 36.5t61.5 35.5l30 16q44 25 65 54.5t21 72.5q0 42 -17 60.5t-41 18.5q-17 0 -25.5 -5.5t-19.5 -19.5l-125 -162h-7l25 175q67 23 156 23q37 0 72.5 -6t63.5 -21t45 -40.5t17 -63.5
q0 -53 -30.5 -87t-91.5 -66l-33 -17q-56 -32 -81 -60.5t-25 -69.5t20.5 -65.5t55.5 -24.5q20 0 29.5 4t20.5 20l129 190h6l-24 -205q-38 -10 -78.5 -14.5t-82.5 -4.5z" />
    <glyph glyph-name="uni0434.aalt" horiz-adv-x="625" 
d="M552 -22q0 -54 -18 -98.5t-50.5 -76.5t-79 -49.5t-103.5 -17.5q-105 0 -166.5 30t-61.5 81q0 37 32.5 56t86.5 11q2 -86 33.5 -127.5t79.5 -41.5q44 0 71.5 40t27.5 130v170q-17 -44 -56.5 -71t-91.5 -27q-39 0 -78 17t-70 50.5t-50 83t-19 114.5q0 62 19 111.5t50.5 84
t72 52.5t82.5 18q48 0 86.5 -24t54.5 -64v72h148v-524zM325 37q23 0 47.5 21t31.5 59v279q-7 36 -31 56t-51 20q-21 0 -41 -11.5t-36 -37t-26 -66.5t-10 -99q0 -114 34 -167.5t82 -53.5z" />
    <glyph glyph-name="uni0436.aalt" horiz-adv-x="897" 
d="M200 263h162l-115 131h-160l-80 108h170l196 -237v483h-71v10h219v-491l195 235h169l-79 -108h-160l-115 -131h166l210 -263h-181l-205 258v-258h-148v260l-207 -260h-176z" />
    <glyph glyph-name="uni0437.aalt" horiz-adv-x="511" 
d="M225 -252q25 0 43.5 16t30.5 42.5t17.5 60t5.5 69.5q0 100 -31 154.5t-104 54.5h-50v10h50q28 0 48.5 13.5t34 37.5t20 55.5t6.5 67.5q0 40 -4 72.5t-13 56t-23 36.5t-35 13q-17 0 -26.5 -4.5t-16.5 -13.5l-130 -169h-7l25 176q66 22 169 22q50 0 90.5 -12.5t68.5 -35
t43 -54t15 -70.5q0 -36 -13.5 -68t-38.5 -57.5t-62 -43.5t-83 -25v-1q49 -3 91 -16.5t72.5 -38.5t47.5 -61.5t17 -85.5q0 -47 -18.5 -86t-52.5 -67t-82.5 -44t-107.5 -16q-51 0 -92 11t-70 30t-45 44t-16 53q0 20 9.5 35.5t26 25.5t39 13t47.5 -2q2 -104 30.5 -151t73.5 -47
z" />
    <glyph glyph-name="uni0438.aalt" horiz-adv-x="615" 
d="M235 -13q-70 0 -111.5 45t-41.5 141v319h-71v10h219v-330q0 -75 20 -106t53 -31q38 0 57.5 32.5t19.5 104.5v320h-66v10h214v-492h71v-10h-219v90q-11 -47 -49 -75t-96 -28z" />
    <glyph glyph-name="uni0439.aalt" horiz-adv-x="615" 
d="M235 -13q-70 0 -111.5 45t-41.5 141v319h-71v10h219v-330q0 -75 20 -106t53 -31q38 0 57.5 32.5t19.5 104.5v320h-66v10h214v-492h71v-10h-219v90q-11 -47 -49 -75t-96 -28zM301 628q-45 0 -79.5 13t-57 34.5t-34 50.5t-11.5 62h105q0 -75 16 -112.5t61 -37.5
q24 0 38 9.5t21.5 28t10 46.5t2.5 66h105q0 -37 -13 -66.5t-36.5 -50.5t-56 -32t-71.5 -11z" />
    <glyph glyph-name="uni043A.aalt" horiz-adv-x="609" 
d="M73 748h-71v10h219v-456l177 200h175l-87 -98h-161l-102 -115h166l230 -289h-181l-217 274v-274h-148v748z" />
    <glyph glyph-name="uni043B.aalt" horiz-adv-x="548" 
d="M570 0h-334v10h109l-141 344l-149 -344h71v-10h-150v10h66l156 360l-54 132h161l201 -492h64v-10z" />
    <glyph glyph-name="uni043D.aalt" horiz-adv-x="653" 
d="M27 10h71v482h-71v10h219v-223h164v213h-71v10h219v-492h71v-10h-261v10h42v226h-164v-226h71v-10h-290v10z" />
    <glyph glyph-name="uni043F.aalt" horiz-adv-x="638" 
d="M27 10h71v368l-71 49v4l219 94v-115q14 56 56.5 82t98.5 26q72 0 114 -45t42 -141v-322h71v-10h-280v10h61v323q0 74 -21 105.5t-58 31.5q-42 0 -63 -32.5t-21 -104.5v-323h61v-10h-280v10z" />
    <glyph glyph-name="uni0442.aalt" horiz-adv-x="949" 
d="M307 0h-280v10h71v368l-71 49v4l219 94v-115q14 56 56.5 82t98.5 26q60 0 99 -30t52 -93q6 33 21 56.5t36.5 38.5t47.5 21.5t54 6.5q72 0 114 -45t42 -141v-322h71v-10h-280v10h61v323q0 74 -20.5 105.5t-58.5 31.5q-42 0 -62.5 -32.5t-20.5 -104.5v-323h61v-10h-270v10
h61v323q0 74 -21 105.5t-58 31.5q-42 0 -63 -32.5t-21 -104.5v-323h61v-10z" />
    <glyph glyph-name="uni0447.aalt" horiz-adv-x="620" 
d="M593 0h-300v10h81v210q-20 -6 -45.5 -9t-39.5 -3q-57 0 -97.5 7.5t-67 26.5t-38.5 51.5t-12 83.5v115h-71v10h218v-156q0 -68 20 -97t74 -29q31 0 59 10v262h-71v10h219v-492h71v-10z" />
    <glyph glyph-name="uni0446.aalt" horiz-adv-x="636" 
d="M235 -13q-70 0 -111.5 45t-41.5 141v319h-71v10h219v-330q0 -75 20 -106t53 -31q38 0 57.5 32.5t19.5 104.5v320h-66v10h214v-492h81l10 -170h-6l-94 143q-7 11 -12.5 14t-23.5 3h-103v90q-11 -47 -49 -75t-96 -28z" />
    <glyph glyph-name="uni0448.aalt" horiz-adv-x="935" 
d="M227 502v-328q0 -75 21 -106t59 -31q42 0 62.5 32.5t20.5 104.5v318h-71v10h219v-328q0 -75 20.5 -106t58.5 -31q42 0 63 32.5t21 104.5v318h-71v10h219v-492h70v-10h-218v96q-15 -55 -57 -81t-98 -26q-60 0 -99 30t-52 93q-6 -33 -21 -56.5t-36.5 -38.5t-48 -21.5
t-54.5 -6.5q-72 0 -113.5 45t-41.5 141v317h-71v10h218z" />
    <glyph glyph-name="uni0449.aalt" horiz-adv-x="957" 
d="M227 502v-328q0 -75 21 -106t59 -31q42 0 62.5 32.5t20.5 104.5v318h-71v10h219v-328q0 -75 20.5 -106t58.5 -31q42 0 63 32.5t21 104.5v318h-71v10h219v-492h80l10 -170h-6l-94 143q-6 9 -10.5 12.5t-16.5 4.5h-111v96q-15 -55 -57 -81t-98 -26q-60 0 -99 30t-52 93
q-6 -33 -21 -56.5t-36.5 -38.5t-48 -21.5t-54.5 -6.5q-72 0 -113.5 45t-41.5 141v317h-71v10h218z" />
    <glyph glyph-name="uni044E.aalt" horiz-adv-x="868" 
d="M73 0v748h-71v10h219v-492h73q2 52 22 98t54.5 80.5t83 54t108.5 19.5q63 0 112.5 -22t84 -58.5t52.5 -85t18 -102.5t-18.5 -102t-53.5 -84t-84.5 -56.5t-111.5 -20.5q-63 0 -112.5 21.5t-84 58.5t-52.5 85t-18 102v2h-73v-256h-148zM608 1q19 2 34 14.5t23 38.5t9 68.5
t-8 104.5q-9 56 -21.5 107t-31 89.5t-43 60.5t-55.5 20q-20 -2 -34.5 -14.5t-22.5 -38.5t-9 -68.5t8 -104.5q9 -56 21.5 -107t31 -89.5t42.5 -60.5t56 -20z" />
    <glyph glyph-name="uni044C.aalt" horiz-adv-x="553" 
d="M277 311q268 0 268 -146q0 -83 -63 -130.5t-178 -47.5q-63 0 -105.5 12t-68.5 34t-37 53t-11 69v337h-71v10h219v-191h47zM230 154q0 -78 16.5 -118.5t61.5 -40.5q37 0 57 42.5t20 112.5q0 32 -6 59.5t-19.5 48t-35 32t-52.5 11.5h-42v-147z" />
    <glyph glyph-name="uni044A.aalt" horiz-adv-x="665" 
d="M389 311q268 0 268 -146q0 -83 -63 -130.5t-178 -47.5q-63 0 -105.5 12t-68.5 34t-37 53t-11 69v337h-31q-17 0 -24 -3t-15 -15l-110 -155h-6l15 183h319v-191h47zM342 154q0 -78 16.5 -118.5t61.5 -40.5q37 0 57 42.5t20 112.5q0 32 -6 59.5t-19.5 48t-35 32t-52.5 11.5
h-42v-147z" />
    <glyph glyph-name="uni0431.aalt" horiz-adv-x="623" 
d="M310 511q67 -5 118.5 -28.5t86 -58.5t52.5 -80t18 -94q0 -52 -18.5 -99.5t-53.5 -84t-86.5 -58t-118.5 -21.5q-58 0 -107.5 20t-85.5 55.5t-56.5 84t-20.5 105.5q0 47 14.5 89t42 75.5t68 56.5t91.5 33q-42 4 -75 11t-55.5 20t-34.5 33t-12 51q0 67 47 102t158 35h239v61
h10v-179h-350q-45 0 -63.5 -12t-18.5 -35q0 -38 52.5 -56t158.5 -26zM268 498q-47 -4 -64.5 -57.5t-1.5 -163.5q9 -57 22 -108t32.5 -89t44.5 -59.5t58 -19.5q46 4 63 56t-1 169q-5 45 -17 94t-31.5 89t-45.5 65.5t-59 23.5z" />
    <glyph glyph-name="glyph489" 
d="M0 628q-45 0 -79.5 13t-57 34.5t-34 50.5t-11.5 62h105q0 -75 16 -112.5t61 -37.5q24 0 38 9.5t21.5 28t10 46.5t2.5 66h105q0 -37 -13 -66.5t-36.5 -50.5t-56 -32t-71.5 -11z" />
    <glyph glyph-name="glyph490" 
d="M2 830q-45 0 -79.5 13t-57 34.5t-34 50.5t-11.5 62h105q0 -75 16 -112.5t61 -37.5q24 0 38 9.5t21.5 28t10 46.5t2.5 66h105q0 -37 -13 -66.5t-36.5 -50.5t-56 -32t-71.5 -11z" />
    <glyph glyph-name="uni20BD" unicode="&#x20bd;" horiz-adv-x="769" 
d="M42 10h91v213h-86v10h86v112h-86v10h86v393h-91v10h365q72 0 135 -8.5t110.5 -31t74.5 -61t27 -99.5q0 -54 -25 -94.5t-70 -66.5t-107.5 -39t-137.5 -13h-116v-112h245v-10h-245v-213h116v-10h-372v10zM298 355h115q39 0 69.5 14.5t51.5 40t31.5 61.5t10.5 80
q0 43 -10.5 79.5t-31.5 62.5t-51.5 40.5t-69.5 14.5h-115v-393z" />
    <glyph glyph-name="uni20B4" unicode="&#x20b4;" horiz-adv-x="678" 
d="M36 447v10h299q71 35 104.5 81.5t33.5 104.5q0 68 -34.5 97.5t-89.5 29.5q-38 0 -71.5 -13.5t-63.5 -44t-57 -81.5t-52 -126h-6l36 271h6l43 -45q27 23 72.5 35.5t92.5 12.5q52 0 98 -10t80.5 -32.5t55 -59t20.5 -90.5q0 -35 -16.5 -70t-46.5 -60h102v-10h-606zM350 322
q-84 -30 -121.5 -75t-37.5 -110q0 -72 42.5 -106.5t109.5 -34.5q42 0 78.5 15t68.5 48t59.5 86t51.5 128h6l-36 -283h-5l-46 44q-26 -20 -74 -33.5t-104 -13.5q-59 0 -111 11.5t-90.5 35.5t-61 61t-22.5 88q0 18 3.5 37t11.5 37.5t20.5 35t30.5 29.5h-87v10h606v-10h-292z
" />
    <glyph glyph-name="uni20B8" unicode="&#x20b8;" horiz-adv-x="811" 
d="M62 748l1 10h689l1 -10h-691zM217 10h106v618h-148q-17 0 -23 -3.5t-14 -18.5l-113 -234h-6l31 266h711l32 -266h-6l-114 234q-7 15 -13.5 18.5t-23.5 3.5h-148v-618h106v-10h-377v10z" />
    <glyph glyph-name="ellipsis" unicode="&#x2026;" horiz-adv-x="1003" 
d="M858 -13q-20 0 -37 7.5t-30.5 21t-21 32t-7.5 39.5q0 19 7.5 36.5t21 31t30.5 21t37 7.5q21 0 39.5 -7.5t32 -21t21 -31t7.5 -36.5q0 -43 -28.5 -71.5t-71.5 -28.5zM499 -13q-20 0 -37 7.5t-30.5 21t-21 32t-7.5 39.5q0 19 7.5 36.5t21 31t30.5 21t37 7.5q21 0 39.5 -7.5
t32 -21t21 -31t7.5 -36.5q0 -43 -28.5 -71.5t-71.5 -28.5zM140 -13q-20 0 -37 7.5t-30.5 21t-21 32t-7.5 39.5q0 19 7.5 36.5t21 31t30.5 21t37 7.5q21 0 39.5 -7.5t32 -21t21 -31t7.5 -36.5q0 -43 -28.5 -71.5t-71.5 -28.5z" />
    <glyph glyph-name="endash" unicode="&#x2013;" horiz-adv-x="655" 
d="M61 300h534v-75h-534v75z" />
    <glyph glyph-name="emdash" unicode="&#x2014;" horiz-adv-x="1081" 
d="M61 300h960v-75h-960v75z" />
    <glyph glyph-name="guilsinglleft" unicode="&#x2039;" horiz-adv-x="328" 
d="M274 483l8 -5l-107 -227l107 -227l-8 -5l-240 232z" />
    <glyph glyph-name="guilsinglright" unicode="&#x203a;" horiz-adv-x="328" 
d="M308 251l-240 -232l-8 5l107 227l-107 227l8 5z" />
    <glyph glyph-name="quoteleft" unicode="&#x2018;" horiz-adv-x="273" 
d="M153 433q-20 0 -39 8t-34 23t-24 37t-9 50q0 59 47 117.5t135 112.5l5 -8q-48 -32 -74 -66.5t-26 -67.5q0 -38 31 -63.5t83 -33.5q2 -57 -26 -83t-69 -26z" />
    <glyph glyph-name="quoteright" unicode="&#x2019;" horiz-adv-x="275" 
d="M142 779q20 0 39 -8t34 -23t24 -37t9 -50q0 -59 -47 -117.5t-135 -112.5l-5 8q48 32 74 66.5t26 67.5q0 38 -31 63.5t-83 33.5q-2 57 26 83t69 26z" />
    <glyph glyph-name="uni02BB" unicode="&#x2bb;" horiz-adv-x="273" 
d="M153 433q-20 0 -39 8t-34 23t-24 37t-9 50q0 59 47 117.5t135 112.5l5 -8q-48 -32 -74 -66.5t-26 -67.5q0 -38 31 -63.5t83 -33.5q2 -57 -26 -83t-69 -26z" />
    <glyph glyph-name="uni02BC" unicode="&#x2bc;" horiz-adv-x="289" 
d="M142 779q20 0 39 -8t34 -23t24 -37t9 -50q0 -59 -47 -117.5t-135 -112.5l-5 8q48 32 74 66.5t26 67.5q0 38 -31 63.5t-83 33.5q-2 57 26 83t69 26z" />
    <glyph glyph-name="quotedblleft" unicode="&#x201c;" horiz-adv-x="506" 
d="M153 433q-20 0 -39 8t-34 23t-24 37t-9 50q0 59 47 117.5t135 112.5l5 -8q-48 -32 -74 -66.5t-26 -67.5q0 -38 31 -63.5t83 -33.5q2 -57 -26 -83t-69 -26zM386 433q-20 0 -39 8t-34 23t-24 37t-9 50q0 59 47 117.5t135 112.5l5 -8q-48 -32 -74 -66.5t-26 -67.5
q0 -38 31 -63.5t83 -33.5q2 -57 -26 -83t-69 -26z" />
    <glyph glyph-name="quotedblright" unicode="&#x201d;" horiz-adv-x="508" 
d="M142 779q20 0 39 -8t34 -23t24 -37t9 -50q0 -59 -47 -117.5t-135 -112.5l-5 8q48 32 74 66.5t26 67.5q0 38 -31 63.5t-83 33.5q-2 57 26 83t69 26zM375 779q20 0 39 -8t34 -23t24 -37t9 -50q0 -59 -47 -117.5t-135 -112.5l-5 8q48 32 74 66.5t26 67.5q0 38 -31 63.5
t-83 33.5q-2 57 26 83t69 26z" />
    <glyph glyph-name="quotesinglbase" unicode="&#x201a;" horiz-adv-x="293" 
d="M141 170q20 0 39 -8t34 -23t24 -37t9 -50q0 -59 -47 -117.5t-135 -112.5l-5 8q48 32 74 66.5t26 67.5q0 38 -31 63.5t-83 33.5q-2 57 26 83t69 26z" />
    <glyph glyph-name="quotedblbase" unicode="&#x201e;" horiz-adv-x="526" 
d="M141 170q20 0 39 -8t34 -23t24 -37t9 -50q0 -59 -47 -117.5t-135 -112.5l-5 8q48 32 74 66.5t26 67.5q0 38 -31 63.5t-83 33.5q-2 57 26 83t69 26zM374 170q20 0 39 -8t34 -23t24 -37t9 -50q0 -59 -47 -117.5t-135 -112.5l-5 8q48 32 74 66.5t26 67.5q0 38 -31 63.5
t-83 33.5q-2 57 26 83t69 26z" />
    <glyph glyph-name="bullet" unicode="&#x2022;" horiz-adv-x="391" 
d="M195 263q-26 0 -49 10t-40 27t-27 40.5t-10 49.5t10 49t27 40t40 27t49 10t49 -10t40.5 -27t27.5 -40t10 -49t-10 -49.5t-27.5 -40.5t-40.5 -27t-49 -10z" />
    <glyph glyph-name="dagger" unicode="&#x2020;" horiz-adv-x="725" 
d="M358 2q0 59 -8 101.5t-20.5 73t-27 52t-27.5 37.5q13 14 27.5 28t27 32.5t20.5 45.5t8 67v27h-35q-39 0 -68.5 -12t-49.5 -30t-31.5 -39t-15.5 -39q-18 8 -36 21.5t-35 30.5t-31 35.5t-24 37.5q10 19 24 37.5t31 35.5t35 30.5t36 21.5q4 -18 15.5 -39t31.5 -39t49.5 -30
t68.5 -12h35v39q0 40 -12.5 68.5t-31 47.5t-40 30.5t-39.5 17.5q9 18 23.5 36t31.5 35t36 31.5t37 24.5q18 -10 37 -24.5t36 -31.5t31 -35t23 -36q-18 -6 -39.5 -17.5t-39.5 -30.5t-30.5 -47.5t-12.5 -68.5v-39h35q39 0 68 12t49.5 30t32 39t15.5 39q18 -8 36 -21.5
t35 -30.5t31 -35.5t24 -37.5q-10 -19 -24 -37.5t-31 -35.5t-35 -30.5t-36 -21.5q-4 18 -15.5 39t-32 39t-49.5 30t-68 12h-35v-27q0 -40 8 -67t20.5 -45.5t27 -32.5t27.5 -28q-13 -16 -27.5 -37.5t-27 -52t-20.5 -73t-8 -101.5v-229h-10v229z" />
    <glyph glyph-name="daggerdbl" unicode="&#x2021;" horiz-adv-x="725" 
d="M403 66q39 0 68 12t49.5 30t32 39t15.5 39q18 -8 36 -21.5t35 -30.5t31 -35.5t24 -37.5q-10 -19 -24 -37.5t-31 -35.5t-35 -30.5t-36 -21.5q-4 18 -15.5 39t-32 39t-49.5 30t-68 12h-35v-39q0 -41 12.5 -69t30.5 -47t39.5 -30.5t39.5 -17.5q-9 -18 -23 -36t-31 -35
t-36 -31.5t-37 -24.5q-18 10 -37 24.5t-36 31.5t-31.5 35t-23.5 36q18 6 39.5 17.5t40 30.5t31 47t12.5 69v39h-35q-39 0 -68.5 -12t-49.5 -30t-31.5 -39t-15.5 -39q-18 8 -36 21.5t-35 30.5t-31 35.5t-24 37.5q10 19 24 37.5t31 35.5t35 30.5t36 21.5q4 -18 15.5 -39
t31.5 -39t49.5 -30t68.5 -12h35v27q0 40 -8 67t-20.5 45.5t-27 32.5t-27.5 28q13 14 27.5 28t27 32.5t20.5 45.5t8 67v27h-35q-39 0 -68.5 -12t-49.5 -30t-31.5 -39t-15.5 -39q-18 8 -36 21.5t-35 30.5t-31 35.5t-24 37.5q10 19 24 37.5t31 35.5t35 30.5t36 21.5
q4 -18 15.5 -39t31.5 -39t49.5 -30t68.5 -12h35v39q0 40 -12.5 68.5t-31 47.5t-40 30.5t-39.5 17.5q9 18 23.5 36t31.5 35t36 31.5t37 24.5q18 -10 37 -24.5t36 -31.5t31 -35t23 -36q-18 -6 -39.5 -17.5t-39.5 -30.5t-30.5 -47.5t-12.5 -68.5v-39h35q39 0 68 12t49.5 30
t32 39t15.5 39q18 -8 36 -21.5t35 -30.5t31 -35.5t24 -37.5q-10 -19 -24 -37.5t-31 -35.5t-35 -30.5t-36 -21.5q-4 18 -15.5 39t-32 39t-49.5 30t-68 12h-35v-27q0 -40 8 -67t20.5 -45.5t27 -32.5t27.5 -28q-13 -14 -27.5 -28t-27 -32.5t-20.5 -45.5t-8 -67v-27h35z" />
    <glyph glyph-name="perthousand" unicode="&#x2030;" horiz-adv-x="1389" 
d="M732 758h65l-584 -758h-65zM212 339q-44 0 -78 19.5t-57 50.5t-35.5 70t-12.5 78t12.5 78t35.5 69.5t57 50t78 19.5t78.5 -19.5t58 -50t36 -69.5t12.5 -78t-12.5 -78t-36 -70t-58 -50.5t-78.5 -19.5zM212 347q22 0 35.5 16t21.5 44.5t11 67t3 82.5t-3 82t-11 66.5
t-21.5 45t-35.5 16.5q-21 0 -34.5 -16.5t-21 -45t-10.5 -66.5t-3 -82t3 -82.5t10.5 -67t21 -44.5t34.5 -16zM735 -10q-44 0 -78 19.5t-57 50.5t-35.5 70t-12.5 78t12.5 78t35.5 69.5t57 50t78 19.5t78.5 -19.5t58 -50t36 -69.5t12.5 -78t-12.5 -78t-36 -70t-58 -50.5
t-78.5 -19.5zM735 -2q22 0 35.5 16t21.5 44.5t11 67t3 82.5t-3 82t-11 66.5t-21.5 45t-35.5 16.5q-21 0 -34.5 -16.5t-21 -45t-10.5 -66.5t-3 -82t3 -82.5t10.5 -67t21 -44.5t34.5 -16zM1177 -10q-44 0 -78 19.5t-57 50.5t-35.5 70t-12.5 78t12.5 78t35.5 69.5t57 50
t78 19.5t78.5 -19.5t58 -50t36 -69.5t12.5 -78t-12.5 -78t-36 -70t-58 -50.5t-78.5 -19.5zM1177 -2q22 0 35.5 16t21.5 44.5t11 67t3 82.5t-3 82t-11 66.5t-21.5 45t-35.5 16.5q-21 0 -34.5 -16.5t-21 -45t-10.5 -66.5t-3 -82t3 -82.5t10.5 -67t21 -44.5t34.5 -16z" />
    <glyph glyph-name="uni2117" unicode="&#x2117;" horiz-adv-x="871" 
d="M39 382q0 88 30.5 161t84 125.5t126 81.5t156.5 29q82 0 154 -29t125.5 -81.5t84.5 -125.5t31 -161t-31 -160.5t-84.5 -124.5t-125.5 -81t-154 -29q-84 0 -156.5 29t-126 81t-84 124.5t-30.5 160.5zM75 382q0 -82 27.5 -149.5t76 -115.5t114.5 -74.5t143 -26.5
q78 0 143.5 26.5t113.5 74.5t75 115.5t27 149.5q0 83 -27 150.5t-75 115.5t-113.5 74.5t-143.5 26.5q-77 0 -143 -26.5t-114.5 -74.5t-76 -115.5t-27.5 -150.5zM247 189h50v412h-50v9h210q47 0 86.5 -5t67.5 -18t43.5 -35.5t15.5 -56.5q0 -65 -57 -94t-154 -29h-34v8h34
q47 0 68.5 29.5t21.5 80.5t-21.5 81t-68.5 30h-51v-412h66v-9h-227v9z" />
    <glyph glyph-name="trademark" unicode="&#x2122;" horiz-adv-x="1223" 
d="M152 297h65v453h-76q-11 0 -15.5 -2.5t-9.5 -12.5l-80 -148h-4l26 203h5l62 -32h312l62 32h4l27 -203h-4l-80 148q-5 10 -10 12.5t-16 2.5h-74v-453h64v-9h-258v9zM554 297h60l23 370l-46 91h141l140 -270l97 270h182v-9h-60l27 -452h60v-9h-250v9h60l-25 413l-139 -400
h-4l-173 339l-22 -352h56v-9h-127v9z" />
    <glyph glyph-name="uni2116" unicode="&#x2116;" horiz-adv-x="1268" 
d="M881 291h323v-57h-323v57zM67 10h97v595l-137 151v2h207l498 -532v522h-96v10h205v-10h-97v-779h-3l-565 623v-582h96v-10h-205v10zM1040 334q-44 0 -78 19.5t-57 50.5t-35.5 70t-12.5 78t12.5 78t35.5 69.5t57 50t78 19.5t78.5 -19.5t58 -50t36 -69.5t12.5 -78
t-12.5 -78t-36 -70t-58 -50.5t-78.5 -19.5zM1040 342q22 0 35.5 16t21.5 44.5t11 67t3 82.5t-3 82t-11 66.5t-21.5 45t-35.5 16.5q-21 0 -34.5 -16.5t-21 -45t-10.5 -66.5t-3 -82t3 -82.5t10.5 -67t21 -44.5t34.5 -16z" />
    </font>
</defs>
</svg>
