<?xml version="1.0" standalone="no"?>
<!DOCTYPE svg PUBLIC "-//W3C//DTD SVG 1.1//EN" "http://www.w3.org/Graphics/SVG/1.1/DTD/svg11.dtd" >
<svg xmlns="http://www.w3.org/2000/svg" xmlns:xlink="http://www.w3.org/1999/xlink" version="1.1">
<metadata>
Created by Christoph Koeberlin (http://christoph.koe.berlin)
Copyright (c) 2017 Swiss Typefaces Sarl. All rights reserved.
</metadata>
<defs>
<font id="Font" horiz-adv-x="0" >
  <font-face 
    font-family="Font"
    font-weight="400"
    font-style="italic"
    font-stretch="normal"
    units-per-em="1000"
    panose-1="2 4 5 4 6 0 0 0 0 4"
    ascent="800"
    descent="-200"
    x-height="516"
    cap-height="758"
    bbox="-474 -403 1337 1084"
    underline-thickness="61"
    underline-position="-130"
    slope="-17"
    unicode-range="U+0020-FEFF"
  />
<missing-glyph horiz-adv-x="640" 
d="M70 758h500v-758h-500v758zM320 396l217 343h-434zM89 30l221 349l-221 349v-698zM551 30v698l-220 -349zM537 19l-217 343l-217 -343h434z" />
    <glyph glyph-name="f_f.liga" unicode="ff" horiz-adv-x="642" 
d="M-104 -267q-15 0 -30.5 5t-27.5 14t-19.5 20.5t-7.5 24.5q0 20 12.5 35t32.5 13q10 -7 23.5 -17.5t28 -20.5t29 -17t26.5 -7q6 0 14 4t15 14q6 8 13 22t16 38t19.5 62t22.5 94l95 433h-98l5 23l105 31q28 63 61 113t80 90q18 15 39.5 27.5t43 21.5t42 14t36.5 5
q17 0 28.5 -10t11.5 -26q0 -20 -12.5 -38t-33.5 -21q-19 8 -48 14.5t-52 6.5q-29 0 -52.5 -29t-37.5 -96l-16 -74h218q28 83 62 143t81 100q18 15 39 28t43 22.5t42 14.5t36 5q17 0 28.5 -10t11.5 -26q0 -20 -12.5 -38t-33.5 -21q-19 8 -48 14.5t-52 6.5q-29 0 -47.5 -27.5
t-33.5 -97.5l-25 -114h144l-12 -52h-144l-78 -342q-21 -93 -50.5 -156t-63 -101.5t-71 -54.5t-75.5 -16q-34 0 -55 19t-21 45q0 20 12.5 35t32.5 13q10 -9 21.5 -19.5t23.5 -20t24.5 -16t24.5 -6.5q6 0 14 4t15 14q6 8 13 22t16 38t19.5 62t22.5 94l85 386h-219l-88 -389
q-21 -93 -50 -156t-63.5 -101.5t-73 -54.5t-77.5 -16z" />
    <glyph glyph-name="f_i.liga" unicode="fi" horiz-adv-x="647" 
d="M503 450h-255l-88 -389q-21 -93 -50 -156t-63.5 -101.5t-73 -54.5t-77.5 -16q-15 0 -30.5 5t-27.5 14t-19.5 20.5t-7.5 24.5q0 20 12.5 35t32.5 13q10 -7 23.5 -17.5t28 -20.5t29 -17t26.5 -7q6 0 14 4t15 14q6 8 13 22t16 38t19.5 62t22.5 94l95 433h-98l5 23l105 31
q28 83 61.5 142t80.5 99q18 15 39 28t43 22.5t42 14.5t36 5q17 0 28.5 -10t11.5 -26q0 -20 -12.5 -38t-33.5 -21q-19 8 -48 14.5t-52 6.5q-29 0 -47.5 -27.5t-33.5 -97.5l-25 -114h357l-155 -389q-11 -29 -14 -45t9 -16q11 0 28 12t37 31.5t41 45t39 53.5l27 -16
q-61 -94 -120 -142.5t-107 -48.5q-46 0 -54 27.5t15 84.5zM635 653q-29 0 -48.5 20t-19.5 49t19.5 48.5t48.5 19.5t49 -19.5t20 -48.5t-20 -49t-49 -20z" />
    <glyph glyph-name="f_f_i.liga" unicode="ffi" horiz-adv-x="956" 
d="M-104 -267q-15 0 -30.5 5t-27.5 14t-19.5 20.5t-7.5 24.5q0 20 12.5 35t32.5 13q10 -7 23.5 -17.5t28 -20.5t29 -17t26.5 -7q6 0 14 4t15 14q6 8 13 22t16 38t19.5 62t22.5 94l95 433h-98l5 23l105 31q28 63 61 113t80 90q18 15 39.5 27.5t43 21.5t42 14t36.5 5
q17 0 28.5 -10t11.5 -26q0 -20 -12.5 -38t-33.5 -21q-19 8 -48 14.5t-52 6.5q-29 0 -52.5 -29t-37.5 -96l-16 -74h218q28 83 62 143t81 100q18 15 39 28t43 22.5t42 14.5t36 5q17 0 28.5 -10t11.5 -26q0 -20 -12.5 -38t-33.5 -21q-19 8 -48 14.5t-52 6.5q-29 0 -47.5 -27.5
t-33.5 -97.5l-25 -114h357l-155 -389q-11 -29 -14 -45t9 -16q11 0 28 12t37 31.5t41 45t39 53.5l27 -16q-61 -94 -120 -142.5t-107 -48.5q-46 0 -54 27.5t15 84.5l140 351h-255l-78 -342q-21 -93 -50.5 -156t-63 -101.5t-71 -54.5t-75.5 -16q-34 0 -55 19t-21 45
q0 20 12.5 35t32.5 13q10 -9 21.5 -19.5t23.5 -20t24.5 -16t24.5 -6.5q6 0 14 4t15 14q6 8 13 22t16 38t19.5 62t22.5 94l85 386h-219l-88 -389q-21 -93 -50 -156t-63.5 -101.5t-73 -54.5t-77.5 -16zM944 653q-29 0 -48.5 20t-19.5 49t19.5 48.5t48.5 19.5t49 -19.5
t20 -48.5t-20 -49t-49 -20z" />
    <glyph glyph-name="f_l.liga" unicode="fl" horiz-adv-x="627" 
d="M60 450l5 23l105 31q28 83 61.5 142t80.5 99q18 15 39 28t43 22.5t42 14.5t36 5q17 0 28.5 -10t11.5 -26q0 -20 -12.5 -38t-33.5 -21q-19 8 -48 14.5t-52 6.5q-29 0 -47.5 -27.5t-33.5 -97.5l-25 -114h144l-12 -52h-144l-88 -389q-21 -93 -50 -156t-63.5 -101.5
t-73 -54.5t-77.5 -16q-15 0 -30.5 5t-27.5 14t-19.5 20.5t-7.5 24.5q0 20 12.5 35t32.5 13q10 -7 23.5 -17.5t28 -20.5t29 -17t26.5 -7q6 0 14 4t15 14q6 8 13 22t16 38t19.5 62t22.5 94l95 433h-98zM558 689q7 20 6 26t-14 12l-64 31l2 6l209 66l-250 -717
q-11 -30 -14 -45.5t9 -15.5q11 0 28 12t37 31.5t41 45t39 53.5l27 -16q-61 -94 -120 -142.5t-107 -48.5q-46 0 -50 28t16 86z" />
    <glyph glyph-name="f_f_l.liga" unicode="ffl" horiz-adv-x="936" 
d="M867 689q7 20 6 26t-14 12l-46 22q-6 -11 -15.5 -19t-22.5 -10q-19 8 -48 14.5t-52 6.5q-29 0 -47.5 -27.5t-33.5 -97.5l-25 -114h144l-12 -52h-144l-78 -342q-21 -93 -50.5 -156t-63 -101.5t-71 -54.5t-75.5 -16q-34 0 -55 19t-21 45q0 20 12.5 35t32.5 13
q10 -9 21.5 -19.5t23.5 -20t24.5 -16t24.5 -6.5q6 0 14 4t15 14q6 8 13 22t16 38t19.5 62t22.5 94l85 386h-219l-88 -389q-21 -93 -50 -156t-63.5 -101.5t-73 -54.5t-77.5 -16q-15 0 -30.5 5t-27.5 14t-19.5 20.5t-7.5 24.5q0 20 12.5 35t32.5 13q10 -7 23.5 -17.5t28 -20.5
t29 -17t26.5 -7q6 0 14 4t15 14q6 8 13 22t16 38t19.5 62t22.5 94l95 433h-98l5 23l105 31q28 63 61 113t80 90q18 15 39.5 27.5t43 21.5t42 14t36.5 5q17 0 28.5 -10t11.5 -26q0 -20 -12.5 -38t-33.5 -21q-19 8 -48 14.5t-52 6.5q-29 0 -52.5 -29t-37.5 -96l-16 -74h218
q28 83 62 143t81 100q18 15 39 28t43 22.5t42 14.5t36 5q17 0 28.5 -10t11.5 -26q0 -5 -1 -8l186 59l-250 -717q-11 -30 -14 -45.5t9 -15.5q11 0 28 12t37 31.5t41 45t39 53.5l27 -16q-61 -94 -120 -142.5t-107 -48.5q-46 0 -50 28t16 86z" />
    <glyph glyph-name=".notdef" horiz-adv-x="640" 
d="M70 758h500v-758h-500v758zM320 396l217 343h-434zM89 30l221 349l-221 349v-698zM551 30v698l-220 -349zM537 19l-217 343l-217 -343h434z" />
    <glyph glyph-name="glyph1" 
 />
    <glyph glyph-name="glyph2" horiz-adv-x="280" 
 />
    <glyph glyph-name="space" unicode=" " horiz-adv-x="280" 
 />
    <glyph glyph-name="exclam" unicode="!" horiz-adv-x="306" 
d="M124 232q18 70 30.5 119t21.5 87t16.5 70t15.5 67.5t18 79t25 105.5q3 13 24 19t43.5 6t39.5 -6.5t13 -18.5q-22 -62 -39 -106t-31.5 -79.5t-28.5 -67t-30.5 -69.5t-37 -87t-48.5 -119h-32zM99 -13q-31 0 -53 22.5t-22 55.5q0 31 22 53t53 22q33 0 55.5 -22t22.5 -53
q0 -33 -22.5 -55.5t-55.5 -22.5z" />
    <glyph glyph-name="quotedbl" unicode="&#x22;" horiz-adv-x="372" 
d="M364 732q6 30 24 38.5t35 8.5q9 0 19.5 -2t18 -8.5t8.5 -18.5t-9 -32l-115 -214h-23zM202 732q6 30 24 38.5t35 8.5q9 0 19.5 -2t18 -8.5t8.5 -18.5t-9 -32l-115 -214h-23z" />
    <glyph glyph-name="numbersign" unicode="#" horiz-adv-x="792" 
d="M53 267h173l90 221h-174l25 62h174l92 226h67l-92 -226h200l92 226h67l-92 -226h168l-25 -62h-168l-90 -221h168l-25 -62h-168l-83 -205h-67l83 205h-200l-83 -205h-67l83 205h-174zM493 267l90 221h-200l-90 -221h200z" />
    <glyph glyph-name="dollar" unicode="$" horiz-adv-x="559" 
d="M169 -120h-41l36 110q-36 4 -64.5 16.5t-48.5 29t-31 37t-11 41.5q0 16 7 31t20 26.5t32 16.5t42 1q-18 -69 -2 -106.5t70 -47.5l109 337l-38 33q-50 42 -70.5 81.5t-20.5 87.5q0 40 19 76.5t53.5 64.5t82.5 45t106 19l35 107h41l-35 -109q29 -3 55 -12.5t45.5 -24
t31 -32.5t11.5 -38q0 -39 -27.5 -58t-67.5 -11q13 59 -0.5 91.5t-62.5 40.5l-92 -286l32 -27q24 -21 45 -40.5t36.5 -42t24 -50.5t8.5 -64q0 -54 -26.5 -97.5t-68.5 -74.5t-94.5 -47.5t-105.5 -16.5zM218 31h6q33 0 66 10t59.5 29.5t43 49.5t16.5 69q0 48 -23.5 83.5
t-65.5 71.5zM321 475l84 260q-34 -1 -63.5 -9.5t-51 -25t-34 -41t-12.5 -55.5q0 -38 18 -66.5t47 -52.5z" />
    <glyph glyph-name="percent" unicode="%" horiz-adv-x="944" 
d="M873 758h78l-798 -758h-78zM669 -7q-32 0 -54.5 11.5t-36.5 31t-21 45t-7 54.5q0 50 20 102t52.5 94.5t74.5 69.5t86 27q31 0 53.5 -11t36.5 -30.5t21 -45t7 -54.5q0 -50 -20 -102.5t-52.5 -95t-74.5 -69.5t-85 -27zM673 19q22 0 42.5 16t37.5 42t30.5 59.5t23 68
t14.5 68t5 59.5q0 32 -11.5 51t-36.5 19q-22 0 -42 -16t-37 -42t-31 -59.5t-23.5 -68t-14.5 -68t-5 -59.5q0 -32 11.5 -51t36.5 -19zM241 334q-32 0 -54.5 11.5t-36.5 31t-21 45t-7 54.5q0 50 20 102t52.5 94.5t74.5 69.5t86 27q31 0 53.5 -11t36.5 -30.5t21 -45t7 -54.5
q0 -50 -20 -102.5t-52.5 -95t-74.5 -69.5t-85 -27zM245 360q22 0 42.5 16t37.5 42t30.5 59.5t23 68t14.5 68t5 59.5q0 32 -11.5 51t-36.5 19q-22 0 -42 -16t-37 -42t-31 -59.5t-23.5 -68t-14.5 -68t-5 -59.5q0 -32 11.5 -51t36.5 -19z" />
    <glyph glyph-name="ampersand" unicode="&#x26;" horiz-adv-x="989" 
d="M521 259q-27 0 -44.5 20t-17.5 49q0 28 13 54.5t32.5 50t42 41.5t41.5 30q21 14 35.5 18.5t28.5 4.5q11 0 23 -3t27.5 -11t34.5 -22t44 -35l33 -30q13 -12 27.5 -24t29 -21.5t28 -16t24.5 -6.5q25 0 40.5 17.5t15.5 37.5q0 33 -19.5 53t-43.5 37q1 12 7.5 22t15.5 16.5
t19 10t19 3.5q29 0 46 -21.5t17 -52.5q0 -42 -23.5 -79t-54.5 -65q-34 -29 -55.5 -39t-41.5 -10t-46.5 13.5t-71.5 48.5q-26 -65 -62.5 -130t-86 -117t-113.5 -84t-144 -32q-75 0 -128.5 26.5t-87.5 68.5t-50 94t-16 103q0 72 24.5 129.5t60 98t76.5 62.5t74 22
q42 0 66.5 -24t26.5 -65q42 33 75 64t54.5 66t32.5 77t10 98q16 15 39 22.5t37 7.5q13 0 23 -6.5t12.5 -20t-4 -34.5t-25.5 -50q-50 -74 -101 -131t-111.5 -107t-133 -97t-165.5 -100q10 -43 33 -80.5t56.5 -65t75.5 -43.5t92 -16q58 0 107 20t90 57t75 90t62 119l-27 22
q-27 23 -53.5 42.5t-50.5 19.5q-27 0 -46.5 -17.5t-19.5 -45.5q0 -30 16 -50t35 -35q2 -23 -15 -36t-39 -13zM122 361q0 -8 0.5 -16t1.5 -16q51 31 97 58.5t88 55.5q2 36 -14.5 61t-46.5 25q-25 0 -47.5 -14t-40 -37t-28 -53.5t-10.5 -63.5z" />
    <glyph glyph-name="quotesingle" unicode="'" horiz-adv-x="210" 
d="M202 732q6 30 24 38.5t35 8.5q9 0 19.5 -2t18 -8.5t8.5 -18.5t-9 -32l-115 -214h-23z" />
    <glyph glyph-name="parenleft" unicode="(" horiz-adv-x="333" 
d="M126 -238q-21 33 -39.5 72.5t-31.5 83t-20.5 88.5t-7.5 87q0 95 28 194.5t84.5 195t140 183.5t194.5 162l21 -29q-101 -81 -174 -174t-120 -190t-69 -195.5t-22 -191.5q0 -72 11.5 -143t34.5 -128z" />
    <glyph glyph-name="parenright" unicode=")" horiz-adv-x="332" 
d="M235 828q21 -33 39.5 -72.5t31.5 -83t20.5 -88.5t7.5 -87q0 -95 -28 -194.5t-84.5 -195t-140 -183.5t-194.5 -162l-21 29q101 81 174 174t120 190t69 195.5t22 191.5q0 72 -11.5 143t-34.5 128z" />
    <glyph glyph-name="asterisk" unicode="*" horiz-adv-x="491" 
d="M188 470l-14 21l122 105l-115 113l16 19l137 -84l70 144l25 -9l-38 -156l159 -23l-1 -25l-161 -13l26 -158l-23 -8l-61 150z" />
    <glyph glyph-name="plus" unicode="+" horiz-adv-x="653" 
d="M296 230h-234v65h234v221h69v-221h234v-65h-234v-230h-69v230z" />
    <glyph glyph-name="comma" unicode="," horiz-adv-x="289" 
d="M179 51q0 -35 -17 -68t-45.5 -62.5t-66 -54t-77.5 -41.5l-12 28q66 36 95.5 74t29.5 72q0 28 -18.5 45t-54.5 29q4 34 27 50.5t54 16.5q37 0 61 -23.5t24 -65.5z" />
    <glyph glyph-name="hyphen" unicode="-" horiz-adv-x="436" 
d="M86 295h294l-22 -65h-294z" />
    <glyph glyph-name="period" unicode="." horiz-adv-x="267" 
d="M84 -13q-31 0 -53 22.5t-22 55.5q0 31 22 53t53 22q33 0 55.5 -22t22.5 -53q0 -33 -22.5 -55.5t-55.5 -22.5z" />
    <glyph glyph-name="slash" unicode="/" horiz-adv-x="537" 
d="M586 806h73l-632 -858h-70z" />
    <glyph glyph-name="zero" unicode="0" horiz-adv-x="674" 
d="M262 -13q-47 0 -83 18.5t-61 51.5t-37.5 78.5t-12.5 98.5q0 54 16.5 115t46 121.5t70 116.5t87.5 98.5t99.5 68t106.5 25.5q47 0 83 -18.5t61 -51.5t37.5 -78.5t12.5 -98.5q0 -54 -16.5 -115t-46 -121.5t-70 -116.5t-87.5 -98.5t-99.5 -68t-106.5 -25.5zM266 26
q41 0 80.5 27t74.5 72.5t64 105.5t50.5 125.5t33 132t11.5 125.5q0 60 -20 93t-70 33q-41 0 -80.5 -27t-74.5 -72.5t-64 -105.5t-50.5 -125.5t-33 -132t-11.5 -125.5q0 -60 20 -93t70 -33z" />
    <glyph glyph-name="one" unicode="1" horiz-adv-x="376" 
d="M289 648h-129l12 32q51 4 85.5 13t60 21.5t45.5 29t41 37.5h21l-244 -710q-5 -16 -2.5 -24t28.5 -10l41 -2l-12 -35h-259l12 35l52 3q27 2 36 9.5t14 23.5z" />
    <glyph glyph-name="two" unicode="2" horiz-adv-x="583" 
d="M-54 0l6 17q137 102 242.5 185.5t177 154t108.5 129.5t37 112q0 54 -35.5 84t-93.5 30q-29 0 -52 -6.5t-43.5 -20t-40.5 -35.5t-42 -52l-31 20q25 39 51.5 69t57 50.5t67 31t82.5 10.5q44 0 78 -12t57 -33t35 -49t12 -61q0 -81 -61.5 -160t-163.5 -158
q-65 -50 -137.5 -104t-158.5 -118l204 1q37 0 61.5 3.5t43 14t36 28.5t41.5 48l28 -13l-103 -166h-463z" />
    <glyph glyph-name="three" unicode="3" horiz-adv-x="579" 
d="M188 -13q-42 0 -78 11t-62.5 29t-42 41t-15.5 46q0 18 8 30.5t21 19t28.5 7.5t29.5 -4q9 -75 43 -107t95 -32q37 0 74.5 15t67.5 43.5t49 69.5t19 93q0 36 -11.5 65t-30.5 48.5t-44 30t-52 10.5q-26 0 -51 -9l-7 32l44 11q52 13 96 30t76 39.5t49.5 51.5t17.5 67
q0 37 -27 62.5t-77 25.5q-53 0 -93 -20.5t-86 -64.5l-23 25q58 64 116.5 95t124.5 31q32 0 61.5 -8t52 -24t35.5 -40.5t13 -57.5q0 -39 -19 -70t-47.5 -54.5t-61.5 -39.5t-61 -25l-2 -2q49 -27 78.5 -75.5t29.5 -106.5q0 -62 -29.5 -114.5t-77.5 -91.5t-108.5 -61
t-122.5 -22z" />
    <glyph glyph-name="four" unicode="4" horiz-adv-x="620" 
d="M354 230h-345l9 28l534 500h75l-160 -464h137l-22 -64h-138l-79 -230h-90zM376 294l123 357l-379 -357h256z" />
    <glyph glyph-name="five" unicode="5" horiz-adv-x="560" 
d="M201 -13q-44 0 -82 11t-65.5 29t-43.5 41t-16 46q0 18 8 30.5t21 19t28.5 7.5t29.5 -4q9 -75 45 -107t102 -32q36 0 71 12t63 34.5t45.5 55.5t17.5 75q0 46 -24 84.5t-62.5 69.5t-87 55.5t-96.5 41.5l159 302h318l-52 -91h-267l-70 -132q57 -24 106 -52.5t85 -63
t56.5 -75t20.5 -88.5q0 -63 -27.5 -112.5t-71.5 -84.5t-99.5 -53.5t-111.5 -18.5z" />
    <glyph glyph-name="six" unicode="6" horiz-adv-x="622" 
d="M281 -13q-48 0 -88 19t-69.5 53.5t-45.5 82t-16 104.5q0 68 25.5 131.5t71.5 120t108.5 105.5t136.5 88t156.5 66.5t167.5 41.5l5 -38q-83 -14 -162 -46.5t-148 -80.5t-123.5 -110t-88.5 -134q17 11 43 25t47 22q14 6 31.5 8.5t36.5 2.5q31 0 64.5 -11.5t61 -34.5
t45 -59.5t17.5 -85.5q0 -58 -23.5 -107.5t-62.5 -85.5t-88.5 -56.5t-101.5 -20.5zM164 189q0 -84 34.5 -123.5t88.5 -39.5q32 0 61.5 15.5t52.5 43.5t36.5 67.5t13.5 87.5q0 69 -40 107.5t-109 38.5q-31 0 -58 -9.5t-49 -23.5q-15 -39 -23 -80t-8 -84z" />
    <glyph glyph-name="seven" unicode="7" horiz-adv-x="584" 
d="M-10 -29q-12 -3 -20.5 -2t-10.5 7t4 16.5t22 26.5q70 71 147 150t156.5 162t161.5 168.5t163 171.5l-246 -2q-44 0 -70 -3.5t-44 -14t-33.5 -29t-37.5 -49.5l-29 9l92 176h478l5 -15l-473 -518q-46 -51 -77.5 -95t-61.5 -86q-12 -16 -22 -26.5t-20.5 -18t-23.5 -12
t-29 -8.5z" />
    <glyph glyph-name="eight" unicode="8" horiz-adv-x="596" 
d="M247 -13q-45 0 -84.5 12.5t-69.5 34.5t-47.5 53t-17.5 68q0 51 19.5 89.5t54.5 68t83 49.5t105 33q-38 46 -62 90t-24 93q0 43 20 79.5t54.5 63.5t79 42.5t94.5 15.5q45 0 80 -11t59 -30.5t36.5 -45.5t12.5 -56q0 -43 -19.5 -77.5t-51.5 -62t-74 -47t-88 -32.5l28 -33
q15 -19 30 -39.5t27 -42t19.5 -44.5t7.5 -47q0 -47 -22.5 -88t-60 -71t-87 -47.5t-102.5 -17.5zM391 435q38 17 70 37t55 44.5t36 53.5t13 64q0 48 -30.5 77t-93.5 29q-32 0 -59 -10t-46 -27.5t-29.5 -41t-10.5 -51.5q0 -39 18 -71.5t54 -75.5zM112 156q0 -59 37 -94.5
t108 -35.5q33 0 62 10.5t50.5 30t34.5 48t13 64.5t-13 65.5t-42 64.5l-56 67q-33 -9 -67.5 -26.5t-62.5 -44.5t-46 -64t-18 -85z" />
    <glyph glyph-name="nine" unicode="9" horiz-adv-x="607" 
d="M5 5q83 14 158 47t137.5 81.5t110 111t76.5 135.5q-8 -5 -20 -12t-26 -14.5t-28 -14t-26 -10.5q-14 -6 -31.5 -8.5t-36.5 -2.5q-31 0 -64.5 11.5t-61 35.5t-45 61t-17.5 88q0 58 23.5 106.5t62.5 84t88.5 55t101.5 19.5q48 0 88 -18t69.5 -51t45.5 -79.5t16 -103.5
q0 -68 -22.5 -131.5t-63.5 -121t-97.5 -107t-125 -89t-146.5 -68t-161 -43.5zM237 526q0 -69 40 -107.5t109 -38.5q33 0 63 10.5t50 24.5q12 38 18.5 79t6.5 83q0 84 -34.5 123.5t-88.5 39.5q-32 0 -61.5 -15.5t-52.5 -43.5t-36.5 -67.5t-13.5 -87.5z" />
    <glyph glyph-name="colon" unicode=":" horiz-adv-x="320" 
d="M83 -13q-31 0 -53 22.5t-22 55.5q0 31 22 53t53 22q33 0 55.5 -22t22.5 -53q0 -33 -22.5 -55.5t-55.5 -22.5zM237 365q-31 0 -53 22.5t-22 55.5q0 31 22 53t53 22q33 0 55.5 -22t22.5 -53q0 -33 -22.5 -55.5t-55.5 -22.5z" />
    <glyph glyph-name="semicolon" unicode=";" horiz-adv-x="329" 
d="M171 51q0 -35 -17 -68t-45.5 -62.5t-66 -54t-77.5 -41.5l-12 28q66 36 95.5 74t29.5 72q0 28 -18.5 45t-54.5 29q4 34 27 50.5t54 16.5q37 0 61 -23.5t24 -65.5zM245 365q-31 0 -53 22.5t-22 55.5q0 31 22 53t53 22q33 0 55.5 -22t22.5 -53q0 -33 -22.5 -55.5
t-55.5 -22.5z" />
    <glyph glyph-name="less" unicode="&#x3c;" horiz-adv-x="653" 
d="M39 292l527 225v-71l-433 -184l433 -184v-71l-527 226v59z" />
    <glyph glyph-name="equal" unicode="=" horiz-adv-x="653" 
d="M64 399h527v-65h-527v65zM64 179h527v-65h-527v65z" />
    <glyph glyph-name="greater" unicode="&#x3e;" horiz-adv-x="653" 
d="M622 233l-527 -226v71l433 184l-433 184v71l527 -225v-59z" />
    <glyph glyph-name="question" unicode="?" horiz-adv-x="550" 
d="M360 730q-38 0 -67.5 -18.5t-49.5 -63.5q-24 -2 -45 12t-21 41q0 32 38 55t106 23q63 0 113.5 -19t86.5 -50.5t55.5 -71t19.5 -80.5q0 -35 -7.5 -59.5t-24.5 -41t-45 -27t-68 -17.5l-141 -25q-17 -3 -28 -6t-18.5 -9t-13.5 -16t-13 -26l-40 -99h-30l38 149q6 25 13 41
t19 26.5t32 17t52 12.5l82 14q74 13 104.5 36t30.5 61q0 24 -13 49t-36.5 45.5t-56 33.5t-72.5 13zM144 -13q-31 0 -53 22.5t-22 55.5q0 31 22 53t53 22q33 0 55.5 -22t22.5 -53q0 -33 -22.5 -55.5t-55.5 -22.5z" />
    <glyph glyph-name="at" unicode="@" horiz-adv-x="868" 
d="M660 37q-36 -19 -88.5 -34.5t-127.5 -15.5q-69 0 -132 22t-111.5 63.5t-77.5 102t-29 138.5q0 93 37 177t101.5 148.5t150.5 102.5t185 38q57 0 113 -18.5t100.5 -54.5t72 -90t27.5 -125q0 -82 -26.5 -141.5t-71 -98t-101.5 -57t-118 -18.5t-61 27q0 11 5.5 26t13.5 35
l17 44h-5q-46 -61 -90.5 -95.5t-92.5 -34.5q-38 0 -60 24t-22 66q0 35 15.5 74.5t41 78.5t59 75.5t69 64.5t71 44.5t66.5 16.5q32 0 65.5 -13.5t63.5 -24.5l-122 -319q-7 -18 -11.5 -28.5t-4.5 -15.5q0 -3 1.5 -4.5t7.5 -1.5q36 0 77.5 13.5t77 45.5t59 85t23.5 132
q0 52 -19 97t-53.5 77.5t-82 51t-105.5 18.5q-84 0 -155.5 -33.5t-123.5 -89t-81 -128.5t-29 -152q0 -60 18 -114.5t55.5 -96t95.5 -66t139 -24.5q46 0 88.5 11.5t70.5 25.5zM400 235q14 0 37 13t49.5 40t53.5 69.5t50 101.5l42 111q-8 21 -42 21q-23 0 -48.5 -13.5t-51 -37
t-48.5 -54t-40.5 -64.5t-28 -69.5t-10.5 -67.5q0 -50 37 -50z" />
    <glyph glyph-name="A" unicode="A" horiz-adv-x="749" 
d="M-95 35l38 2q15 1 28 7t27.5 19t31 33t38.5 49l479 636h36l27 -720q1 -15 8 -18t33 -5l33 -3l-10 -35h-276l10 35l48 3q28 1 38 6t9 29l-6 197h-269l-93 -127q-23 -31 -36 -51t-15.5 -32t5.5 -17t27 -6l44 -2l-10 -35h-255zM495 319l-9 301l-222 -301h231z" />
    <glyph glyph-name="B" unicode="B" horiz-adv-x="697" 
d="M-11 35l36 2q21 1 33.5 4t20.5 10.5t13.5 21.5t13.5 38l164 536q7 24 10.5 38t0 21.5t-14.5 10.5t-31 4l-36 2l11 35h238q129 0 190 -37.5t61 -101.5q0 -77 -62 -132t-173 -77v-1q32 -4 64.5 -15.5t59 -32t43.5 -49t17 -67.5q0 -44 -24.5 -87.5t-71.5 -78.5t-115 -57
t-155 -22h-304zM367 425q61 0 104 16.5t69.5 43.5t38.5 61t12 69q0 46 -33.5 75.5t-110.5 29.5q-19 0 -29.5 -1t-16 -3.5t-8 -7t-4.5 -11.5l-83 -272h61zM284 38q53 0 98 13t78 40t51.5 67t18.5 94q0 29 -9 53t-30 41.5t-56 27.5t-86 10h-55l-84 -274q-14 -43 1 -57.5
t69 -14.5h4z" />
    <glyph glyph-name="C" unicode="C" horiz-adv-x="785" 
d="M401 -13q-68 0 -126.5 19.5t-101.5 58.5t-68 97t-25 135q0 99 44.5 186.5t118.5 153t168.5 104t195.5 38.5q57 0 115.5 -8t96.5 -23l-10 -186h-27l-32 105q-7 22 -20 35.5t-32 20.5t-42 9t-49 2q-79 0 -153 -32.5t-131.5 -92.5t-92.5 -144.5t-35 -188.5
q0 -63 17.5 -109.5t48.5 -76.5t74 -44.5t94 -14.5q34 0 58.5 5t45.5 15.5t41 27t45 39.5l102 93h27l-97 -176q-49 -17 -110.5 -32.5t-139.5 -15.5z" />
    <glyph glyph-name="D" unicode="D" horiz-adv-x="868" 
d="M-11 35l36 2q21 1 33.5 4t20.5 10.5t13.5 21.5t13.5 38l164 536q7 24 10.5 38t0 21.5t-14.5 10.5t-31 4l-36 2l11 35h285q88 0 157.5 -21t118 -59t74.5 -91.5t26 -117.5q0 -87 -41 -171.5t-117 -150.5t-183.5 -106.5t-240.5 -40.5h-311zM308 38q115 0 198.5 39t137.5 103
t80 146t26 169q0 115 -69.5 170t-204.5 55q-29 0 -45.5 -1t-25 -3.5t-11.5 -7t-5 -11.5l-179 -585q-6 -22 -7 -36t6.5 -22.5t23 -12t42.5 -3.5h33z" />
    <glyph glyph-name="E" unicode="E" horiz-adv-x="710" 
d="M-11 35l36 2q21 1 33.5 4t20.5 10.5t13.5 21.5t13.5 38l164 536q7 24 10 38t-0.5 21.5t-14.5 10.5t-31 4l-35 2l11 35h242l291 2l-47 -181h-30v45q0 34 -6.5 53t-28 28t-62 11t-108.5 2h-46q-11 0 -16.5 -4.5t-9.5 -15.5l-88 -289h128q20 0 35.5 1.5t28.5 8.5t25.5 21.5
t27.5 40.5l21 39h30l-82 -268h-30l3 39q1 26 -2.5 40.5t-12.5 21.5t-23.5 8.5t-34.5 1.5h-128l-77 -251q-8 -26 -6.5 -40.5t11 -21.5t27.5 -8.5t43 -1.5h21q69 0 111.5 3.5t71 13t48.5 26t43 43.5l64 73h30l-112 -199h-584z" />
    <glyph glyph-name="F" unicode="F" horiz-adv-x="652" 
d="M-11 35l36 2q21 1 33.5 4t20.5 10.5t13.5 21.5t13.5 38l164 536q7 24 10 38t-0.5 21.5t-14.5 10.5t-31 4l-35 2l11 35h259l291 2l-47 -181h-30v45q0 34 -6.5 53t-27.5 28t-59.5 11t-103.5 2h-71q-11 0 -16.5 -4.5t-9.5 -15.5l-88 -289h145q20 0 35.5 1.5t28.5 8.5
t25.5 21.5t27.5 40.5l21 39h30l-82 -268h-30l3 39q1 26 -2.5 40.5t-12.5 21.5t-23.5 8.5t-34.5 1.5h-145l-77 -252q-8 -26 -11 -40.5t2 -21.5t18.5 -8.5t39.5 -2.5l42 -1l-11 -37h-312z" />
    <glyph glyph-name="G" unicode="G" horiz-adv-x="833" 
d="M402 -13q-68 0 -126.5 19.5t-102 58.5t-68.5 97t-25 135q0 99 44.5 186.5t118.5 153t168.5 104t195.5 38.5q57 0 115.5 -8t96.5 -23l-10 -186h-27l-32 105q-7 22 -20 35.5t-32 20.5t-42 9t-49 2q-79 0 -153 -32.5t-131.5 -92.5t-92.5 -144.5t-35 -188.5
q0 -63 17.5 -109.5t48 -76.5t71.5 -44.5t88 -14.5q38 0 74.5 7.5t63.5 18.5l63 195q8 24 11 38.5t-0.5 22t-14.5 10t-32 3.5l-55 2l11 35h312l-11 -35l-37 -2q-21 -1 -33.5 -4t-20 -10.5t-13.5 -21.5t-13 -38l-45 -145l-16 -71q-28 -3 -58.5 -11.5t-63.5 -16.5t-68.5 -14.5
t-71.5 -6.5z" />
    <glyph glyph-name="H" unicode="H" horiz-adv-x="925" 
d="M270 647q7 24 10.5 38t0 21.5t-14.5 10.5t-31 4l-36 2l11 35h292l-11 -35l-36 -2q-21 -1 -33.5 -4t-20.5 -10.5t-14 -21.5t-13 -38l-73 -238h420l73 238q7 24 10.5 38t0 21.5t-14.5 10.5t-31 4l-36 2l11 35h292l-11 -35l-36 -2q-21 -1 -33.5 -4t-20.5 -10.5t-14 -21.5
t-13 -38l-164 -536q-8 -24 -11 -38t0.5 -21.5t14.5 -10.5t31 -4l36 -2l-11 -35h-292l11 35l36 2q21 1 33.5 4t20.5 10.5t13.5 21.5t13.5 38l76 250h-420l-76 -250q-8 -24 -11 -38t0.5 -21.5t14.5 -10.5t31 -4l36 -2l-11 -35h-292l11 35l36 2q21 1 33.5 4t20.5 10.5
t13.5 21.5t13.5 38z" />
    <glyph glyph-name="I" unicode="I" horiz-adv-x="401" 
d="M270 647q7 24 10.5 38t0 21.5t-14.5 10.5t-31 4l-36 2l11 35h292l-11 -35l-36 -2q-21 -1 -33.5 -4t-20.5 -10.5t-14 -21.5t-13 -38l-164 -536q-8 -24 -11 -38t0.5 -21.5t14.5 -10.5t31 -4l36 -2l-11 -35h-292l11 35l36 2q21 1 33.5 4t20.5 10.5t13.5 21.5t13.5 38z" />
    <glyph glyph-name="J" unicode="J" horiz-adv-x="392" 
d="M-72 -73q43 31 75 55t56 51.5t43 64.5t37 94l139 455q7 24 10.5 38t0 21.5t-14.5 10.5t-31 4l-36 2l11 35h292l-11 -35l-36 -2q-21 -1 -33.5 -4t-20.5 -10.5t-14 -21.5t-13 -38l-133 -435q-11 -37 -21.5 -66t-24 -52t-30.5 -42.5t-42 -36.5q-17 -12 -39 -26t-47 -29.5
t-51 -31t-50 -28.5z" />
    <glyph glyph-name="K" unicode="K" horiz-adv-x="821" 
d="M352 351l-69 -2l-73 -238q-8 -24 -11 -38t0.5 -21.5t14.5 -10.5t31 -4l36 -2l-11 -35h-292l11 35l36 2q21 1 33.5 4t20.5 10.5t13.5 21.5t13.5 38l164 536q7 24 10.5 38t0 21.5t-14.5 10.5t-31 4l-36 2l11 35h292l-11 -35l-36 -2q-21 -1 -33.5 -4t-20.5 -10.5t-14 -21.5
t-13 -38l-82 -268q17 6 33.5 17t43.5 31l244 183q53 39 79 61t32.5 33t-2 13.5t-25.5 3.5l-40 2l11 35h273l-11 -35l-30 -2q-24 -2 -42.5 -6t-39 -14.5t-47.5 -29.5t-69 -50l-273 -198l218 -340q13 -20 29.5 -31.5t45.5 -13.5l35 -3l-11 -35h-177z" />
    <glyph glyph-name="L" unicode="L" horiz-adv-x="646" 
d="M-11 35l36 2q21 1 33.5 4t20.5 10.5t13.5 21.5t13.5 38l164 536q7 24 10.5 38t0 21.5t-14.5 10.5t-31 4l-36 2l11 35h292l-11 -35l-36 -2q-21 -1 -33.5 -4t-20.5 -10.5t-14 -21.5t-13 -38l-164 -535q-8 -26 -6.5 -40.5t11 -21.5t27.5 -8.5t43 -1.5q54 0 90.5 3.5t63.5 13
t48 26t44 43.5l63 73h27l-112 -199h-531z" />
    <glyph glyph-name="M" unicode="M" horiz-adv-x="1051" 
d="M326 644l-140 -423q-20 -64 -30 -100.5t-9.5 -55.5t11 -24t31.5 -5l36 -1l-10 -35h-256l10 35l38 1q21 0 35 5t26.5 24t27.5 55.5t37 101.5l147 422q9 26 12 41t-0.5 23t-14 10t-27.5 3l-37 2l10 35h190l84 -598l434 598h203l-10 -35l-39 -2q-18 -1 -30 -3t-20 -10
t-14.5 -23t-13.5 -41l-137 -533q-6 -24 -8.5 -38t1 -21.5t14 -10.5t30.5 -4l35 -2l-10 -35h-292l10 35l37 2q21 1 34 4t21 10.5t13.5 21.5t11.5 38l136 533l-471 -653h-14z" />
    <glyph glyph-name="N" unicode="N" horiz-adv-x="926" 
d="M317 608l-118 -386q-20 -64 -30 -100.5t-9.5 -55t12 -23.5t35.5 -6l36 -2l-10 -35h-253l10 35l38 2q25 1 39.5 6t26 23.5t23.5 55t32 100.5l119 387q18 60 -2.5 86t-85.5 28l10 35h155l364 -603l116 381q19 64 29.5 100.5t10.5 55t-11.5 23.5t-35.5 6l-36 2l10 35h253
l-10 -35l-38 -2q-25 -1 -39.5 -6t-26.5 -23.5t-24.5 -55t-31.5 -100.5l-164 -539h-27z" />
    <glyph glyph-name="O" unicode="O" horiz-adv-x="870" 
d="M394 -13q-71 0 -128 23t-98 64.5t-63 98.5t-22 126q0 92 38.5 178.5t103.5 153.5t151 107.5t182 40.5q70 0 127.5 -23t98 -64.5t63 -98.5t22.5 -126q0 -92 -38.5 -178.5t-103.5 -153.5t-151 -107.5t-182 -40.5zM400 32q60 0 109 21.5t88 57t67.5 82.5t47.5 98t28 102.5
t9 96.5q0 64 -14.5 110t-40.5 76t-62 44t-80 14q-60 0 -109 -21.5t-88 -57t-67.5 -82.5t-47.5 -98t-28 -102.5t-9 -96.5q0 -64 14.5 -110t40.5 -76t62 -44t80 -14z" />
    <glyph glyph-name="P" unicode="P" horiz-adv-x="657" 
d="M-11 35l36 2q21 1 33.5 4t20.5 10.5t13.5 21.5t13.5 38l164 536q7 24 10.5 38t0 21.5t-14.5 10.5t-31 4l-36 2l11 35h267q51 0 95.5 -9t78 -29.5t53 -52t19.5 -76.5q0 -47 -22 -93t-66 -83t-111.5 -59.5t-158.5 -22.5h-36l11 35h33q63 0 107.5 20.5t72 53t40.5 71.5
t13 76q0 131 -151 131q-35 0 -48 -4t-18 -20l-179 -585q-8 -26 -11 -40.5t2 -21.5t19 -8.5t40 -2.5l41 -1l-11 -37h-312z" />
    <glyph glyph-name="Q" unicode="Q" horiz-adv-x="870" 
d="M208 -82q23 5 40 6t37 1q50 0 92.5 -5.5t81 -12t74.5 -12t74 -5.5q48 0 74 16t46 57l25 -8q-29 -78 -68 -117.5t-98 -39.5q-42 0 -88.5 16t-93 34.5t-91 34.5t-83.5 16q-28 0 -49 -10q-2 -38 -14 -55t-31 -17q-15 0 -25.5 11.5t-10.5 28.5q0 8 2.5 17.5t10.5 20t23 21
t41 19.5l155 57q-57 9 -103.5 35.5t-78.5 66.5t-49.5 92t-17.5 113q0 92 38.5 178.5t103.5 153.5t151 107.5t182 40.5q70 0 127.5 -23t98 -64.5t63 -98.5t22.5 -126q0 -92 -38.5 -178.5t-103.5 -153.5t-151 -107.5t-182 -40.5zM400 32q60 0 109 21.5t88 57t67.5 82.5
t47.5 98t28 102.5t9 96.5q0 64 -14.5 110t-40.5 76t-62 44t-80 14q-60 0 -109 -21.5t-88 -57t-67.5 -82.5t-47.5 -98t-28 -102.5t-9 -96.5q0 -64 14.5 -110t40.5 -76t62 -44t80 -14z" />
    <glyph glyph-name="R" unicode="R" horiz-adv-x="750" 
d="M-11 35l36 2q21 1 33.5 4t20.5 10.5t13.5 21.5t13.5 38l164 536q7 24 10.5 38t0 21.5t-14.5 10.5t-31 4l-36 2l11 35h252q130 0 200 -41t70 -119q0 -40 -16 -77t-48 -67t-79.5 -51.5t-111.5 -30.5q33 -72 65.5 -139.5t68.5 -132.5q9 -17 16 -28.5t14.5 -19t17 -11.5
t23.5 -5l23 -1l-11 -35h-155l-163 358h-90l-76 -247q-8 -26 -11 -40.5t2 -21.5t19 -8.5t40 -2.5l31 -1l-11 -37h-302zM298 397q6 -1 16 -1.5t20.5 -1t20 -0.5h15.5q75 0 122.5 18.5t74.5 48t37 66t10 72.5q0 25 -7.5 47t-26 38.5t-49.5 26t-79 9.5q-20 0 -31.5 -1t-17.5 -3
t-9 -7t-5 -12z" />
    <glyph glyph-name="S" unicode="S" horiz-adv-x="596" 
d="M203 -13q-27 0 -54.5 5t-52.5 13.5t-47 18t-37 18.5l38 217h26l20 -157q2 -14 6.5 -25.5t13.5 -19.5q17 -14 45 -20t62 -6q36 0 71 11t62.5 32.5t44.5 52t17 69.5q0 72 -73 142l-70 68q-38 37 -54.5 74t-16.5 78q0 43 20 83t57.5 71t91 49t121.5 18q54 0 96.5 -8.5
t73.5 -19.5l-39 -182h-25l-15 109q-3 21 -11 30.5t-25 15.5q-14 5 -35 8t-41 3q-39 0 -71 -10.5t-55 -29.5t-36 -44t-13 -55q0 -28 12 -55t39 -53l70 -68q19 -19 36.5 -38.5t31 -42.5t21 -50t7.5 -60q0 -48 -23.5 -92t-65 -77t-98.5 -53t-125 -20z" />
    <glyph glyph-name="T" unicode="T" horiz-adv-x="744" 
d="M142 37l42 1q26 1 41 2.5t24 8.5t15 21.5t14 40.5l186 607h-31q-65 0 -106 -2t-69 -11t-47 -28t-40 -53l-28 -45h-27l75 210h8q11 -10 23 -16t33.5 -9.5t55.5 -4.5t90 -1h254q55 0 90 1t58.5 4.5t39 9.5t32.5 16h8l-53 -210h-27v45q0 34 -7.5 53t-29.5 28t-62 11t-105 2
h-31l-186 -607q-8 -26 -11 -40.5t2 -21.5t19 -8.5t40 -2.5l42 -1l-12 -37h-332z" />
    <glyph glyph-name="U" unicode="U" horiz-adv-x="847" 
d="M371 -13q-71 0 -124.5 16.5t-85 53.5t-37.5 95.5t20 142.5l108 352q7 24 10 38t0 21.5t-14 10.5t-31 4l-36 2l11 35h292l-11 -35l-36 -2q-21 -1 -33.5 -4t-21 -10.5t-14 -21.5t-12.5 -38l-108 -352q-22 -72 -19 -121.5t24.5 -80t58 -44t82.5 -13.5q49 0 91.5 13.5
t77.5 43.5t63.5 79t49.5 120l75 244q19 64 29.5 100.5t10.5 55t-11.5 23.5t-35.5 7l-37 2l11 34h257l-11 -34l-37 -2q-25 -2 -39.5 -7t-26.5 -23.5t-24.5 -55t-31.5 -100.5l-74 -243q-25 -81 -59 -139t-78.5 -95t-99.5 -54.5t-123 -17.5z" />
    <glyph glyph-name="V" unicode="V" horiz-adv-x="750" 
d="M220 697q-1 15 -8 18t-33 5l-33 3l10 35h276l-10 -35l-48 -3q-14 -1 -23.5 -2t-14.5 -4.5t-7 -10t-2 -18.5l17 -538l351 468q23 31 36 51t15.5 32t-5.5 17t-27 6l-44 2l10 35h255l-10 -35l-38 -2q-15 -1 -28.5 -7t-27.5 -19t-31 -33t-38 -49l-479 -626h-36z" />
    <glyph glyph-name="W" unicode="W" horiz-adv-x="1145" 
d="M220 697q-1 15 -8 18t-33 5l-33 3l10 35h276l-10 -35l-48 -3q-14 -1 -23.5 -2t-14.5 -4.5t-7 -10t-2 -18.5l17 -538l278 372l-9 239h214l-10 -35l-48 -3q-14 -1 -23.5 -2t-14.5 -4.5t-7 -10t-2 -18.5l17 -538l351 468q23 31 36 51t15.5 32t-5.5 17t-27 6l-44 2l10 35h255
l-10 -35l-38 -2q-15 -1 -28.5 -7t-27.5 -19t-31 -33t-38 -49l-479 -626h-36l-17 447l-342 -447h-36z" />
    <glyph glyph-name="X" unicode="X" horiz-adv-x="808" 
d="M-71 35l38 3q15 1 29 6.5t32 17.5t42 32.5t59 50.5l277 243l-138 309q-6 13 -13.5 17t-32.5 6l-33 3l11 35h283l-11 -35l-45 -3q-29 -2 -40 -8.5t-2 -26.5l103 -229l167 159q27 26 48 45.5t31.5 32.5t8 20t-21.5 8l-44 2l11 35h251l-11 -35l-38 -3q-15 -1 -29.5 -6.5
t-32.5 -17.5t-42 -32t-58 -51l-222 -198l159 -354q3 -6 6 -10t7.5 -6.5t12 -4t20.5 -2.5l33 -3l-11 -35h-283l11 35l45 3q29 2 40 8.5t2 26.5l-123 274l-221 -204q-27 -25 -48 -44.5t-31.5 -33t-8 -20.5t21.5 -8l44 -2l-11 -35h-253z" />
    <glyph glyph-name="Y" unicode="Y" horiz-adv-x="734" 
d="M133 37l43 1q26 1 41 2.5t24 8.5t15 21.5t14 40.5l68 222l-118 364q-4 13 -10.5 17.5t-31.5 6.5l-33 2l11 35h279l-11 -35l-48 -2q-29 -2 -41 -8t-4 -28l98 -301l221 231q53 55 60.5 80t-34.5 26l-39 2l11 35h255l-11 -35l-33 -2q-16 0 -29 -5t-28 -17t-35.5 -33
t-51.5 -53l-274 -282l-67 -220q-8 -26 -11 -40.5t2 -21.5t19 -8.5t40 -2.5l41 -1l-11 -37h-332z" />
    <glyph glyph-name="Z" unicode="Z" horiz-adv-x="758" 
d="M715 718h-189q-72 0 -115.5 -3.5t-71 -13t-46.5 -26t-42 -43.5l-63 -73h-30l129 230h8q11 -10 26 -16t38 -9.5t56.5 -4.5t81.5 -1h386l-775 -718h225q72 0 115.5 3.5t71 13t46.5 26t42 43.5l63 73h30l-112 -199h-649z" />
    <glyph glyph-name="bracketleft" unicode="[" horiz-adv-x="319" 
d="M44 -132q-8 -24 -9.5 -37.5t4.5 -20t20.5 -8.5t38.5 -3l36 -2l-12 -35h-184l366 1064h184l-12 -35l-38 -2q-24 -1 -40 -3t-26.5 -8.5t-18 -20t-15.5 -37.5z" />
    <glyph glyph-name="backslash" unicode="\" horiz-adv-x="608" 
d="M435 -52l-248 858h66l245 -858h-63z" />
    <glyph glyph-name="bracketright" unicode="]" horiz-adv-x="319" 
d="M303 720q8 24 9.5 37.5t-4.5 20t-20.5 8.5t-38.5 3l-36 2l12 35h184l-366 -1064h-184l12 35l38 2q24 1 40 3t26.5 8.5t18 20t15.5 37.5z" />
    <glyph glyph-name="asciicircum" unicode="^" horiz-adv-x="653" 
d="M592 361h-62l-48 333l-278 -333h-70l349 415h46z" />
    <glyph glyph-name="underscore" unicode="_" horiz-adv-x="536" 
d="M-98 -80h534l-21 -61h-534z" />
    <glyph glyph-name="grave" unicode="`" 
d="M67 609l-146 176l1 3h116l43 -179h-14z" />
    <glyph glyph-name="a" unicode="a" horiz-adv-x="565" 
d="M80 -13q-42 0 -61.5 28t-19.5 66q0 43 19 92.5t51 98t73 93t84.5 78.5t86.5 54.5t78 20.5q44 0 73 -16l72 32l6 -4l-156 -417q-11 -29 -14 -45t9 -16q11 0 28 12t37 31.5t41 45t39 53.5l27 -16q-61 -94 -120 -142.5t-107 -48.5q-46 0 -49 28t18 86l24 66h-1
q-26 -33 -55 -65.5t-59.5 -58t-61.5 -41t-62 -15.5zM141 48q16 0 46 21t64 58t67 87t56 109l36 94q6 15 4.5 26.5t-8 19t-16.5 11t-20 3.5q-27 0 -56.5 -16t-58 -44t-55 -65t-46 -78t-31.5 -84.5t-12 -84.5q0 -23 6.5 -40t23.5 -17z" />
    <glyph glyph-name="b" unicode="b" horiz-adv-x="534" 
d="M146 -13q-64 0 -97.5 29.5t-16.5 82.5l197 590q7 20 6 26t-14 12l-64 31l2 6l208 66l-131 -393l-49 -123h1q81 106 147 155t116 49q44 0 65.5 -27t21.5 -67t-18 -88t-48 -96.5t-69.5 -94t-83 -80.5t-88.5 -56.5t-85 -21.5zM169 26q40 0 85 35.5t83.5 91t64 121.5
t25.5 128q0 24 -7 39.5t-23 15.5q-20 0 -55 -23.5t-73 -64t-73 -93.5t-54 -111l-25 -76q-7 -20 -4.5 -32.5t11 -19.5t20.5 -9t25 -2z" />
    <glyph glyph-name="c" unicode="c" horiz-adv-x="433" 
d="M143 -13q-26 0 -49 8.5t-40 25.5t-27 42t-10 57q0 38 13.5 82.5t37.5 88.5t56.5 85t71 72.5t80 50.5t84.5 19q36 0 62.5 -16t26.5 -45q0 -22 -14 -38t-34 -16q-21 26 -47 42t-57 16q-35 0 -66.5 -26t-55 -69.5t-37.5 -99.5t-14 -116q0 -45 15 -73.5t52 -28.5
q41 0 79 35.5t76 95.5l26 -18q-23 -36 -47.5 -67.5t-52 -55.5t-60 -37.5t-69.5 -13.5z" />
    <glyph glyph-name="d" unicode="d" horiz-adv-x="584" 
d="M86 -13q-44 0 -65.5 27t-21.5 67t18 88t48.5 96.5t70.5 94t83 80.5t87 56.5t83 21.5q19 0 34 -4.5t25 -10.5l61 186q7 20 6 26t-14 12l-64 31l2 6l209 66l-240 -717q-10 -30 -13.5 -45.5t8.5 -15.5q11 0 28 12t37 31.5t41 45t39 53.5l27 -16q-61 -94 -120 -142.5
t-107 -48.5q-46 0 -49 28t18 86l33 90h-2q-81 -106 -146.5 -155t-115.5 -49zM140 48q20 0 55 23.5t72.5 64t72 93t54.5 111.5l20 60q7 23 5 38.5t-10 24.5t-19.5 12.5t-21.5 3.5q-27 0 -56.5 -16.5t-58 -44.5t-54.5 -65t-45.5 -78.5t-31 -84.5t-11.5 -82q0 -28 6.5 -44
t22.5 -16z" />
    <glyph glyph-name="e" unicode="e" horiz-adv-x="442" 
d="M143 -13q-26 0 -49 8.5t-40 25.5t-27 42t-10 57q0 42 14.5 87.5t39.5 90t58.5 84.5t71 70t77 48t76.5 18q46 0 71 -21t25 -56q0 -44 -21.5 -73t-48.5 -48q-22 -6 -52 -14t-62.5 -15.5t-65.5 -15t-61 -13.5q-7 -26 -11 -54.5t-4 -57.5q0 -45 15 -73.5t52 -28.5
q41 0 79 35.5t76 95.5l26 -18q-23 -36 -47.5 -67.5t-52 -55.5t-60 -37.5t-69.5 -13.5zM330 483q-23 0 -48.5 -14.5t-50 -40t-46 -60.5t-36.5 -77q22 5 43 10.5t38 11.5q40 13 66.5 29t42.5 33.5t22 35t6 34.5t-9.5 27.5t-27.5 10.5z" />
    <glyph glyph-name="f" unicode="f" horiz-adv-x="333" 
d="M60 450l5 23l105 31q28 83 61.5 142t80.5 99q18 15 39 28t43 22.5t42 14.5t36 5q17 0 28.5 -10t11.5 -26q0 -20 -12.5 -38t-33.5 -21q-19 8 -48 14.5t-52 6.5q-29 0 -47.5 -27.5t-33.5 -97.5l-25 -114h144l-12 -52h-144l-88 -389q-21 -93 -50 -156t-63.5 -101.5
t-73 -54.5t-77.5 -16q-15 0 -30.5 5t-27.5 14t-19.5 20.5t-7.5 24.5q0 20 12.5 35t32.5 13q10 -7 23.5 -17.5t28 -20.5t29 -17t26.5 -7q6 0 14 4t15 14q6 8 13 22t16 38t19.5 62t22.5 94l95 433h-98z" />
    <glyph glyph-name="g" unicode="g" horiz-adv-x="481" 
d="M196 158q-14 0 -27 2t-24 5l-27 -32q-11 -13 -10.5 -18t11.5 -12l165 -99q53 -32 77.5 -58.5t24.5 -56.5q0 -37 -18 -66t-52 -49t-81.5 -30.5t-105.5 -10.5q-51 0 -94 8.5t-74 25t-48.5 40t-17.5 53.5q0 25 15 46t40.5 40t58.5 35.5t70 31.5q-23 14 -40 30t-17 35
q0 16 11 28t37 28l61 37q-32 15 -49 43.5t-17 66.5q0 39 21.5 81t57 76.5t81.5 57t94 22.5q32 0 56 -9t41 -26v1l161 62l-29 -71q-5 -11 -11.5 -16t-22.5 -3l-86 14q22 -31 22 -75q0 -39 -21.5 -81t-57 -76.5t-81.5 -57t-94 -22.5zM227 189q27 0 50 19t39 49t25 67t9 73
q0 35 -14 61.5t-48 26.5q-27 0 -50 -19t-39 -49t-25 -67t-9 -73q0 -35 14 -61.5t48 -26.5zM-27 -124q0 -22 11 -41.5t34.5 -34.5t59.5 -23.5t86 -8.5q26 0 52.5 5t48.5 14t35.5 23t13.5 32q0 23 -21 42t-67 45l-124 71q-38 -15 -63 -30t-39.5 -31t-20.5 -31.5t-6 -31.5z" />
    <glyph glyph-name="h" unicode="h" horiz-adv-x="593" 
d="M240 689q7 20 6 26t-14 12l-64 31l2 6l209 66l-140 -405l-33 -96h1q83 97 144 143t120 46q55 0 61 -44.5t-26 -124.5l-96 -236q-12 -29 -14.5 -45t9.5 -16q11 0 28 12t37 31.5t41 45t39 53.5l27 -16q-61 -94 -120 -142.5t-107 -48.5q-46 0 -54.5 27t14.5 85l96 236
q25 62 26 91t-25 29q-22 0 -58 -24t-75 -65.5t-75 -97.5t-58 -120l-43 -140l-102 -19z" />
    <glyph glyph-name="i" unicode="i" horiz-adv-x="337" 
d="M92 -13q-46 0 -54 27.5t15 84.5l124 310q7 17 2 20.5t-31 -0.5l-63 -9l-3 27l221 68l6 -6l-157 -396q-11 -29 -14 -45t9 -16q11 0 28 12t37 31.5t41 45t39 53.5l27 -16q-61 -94 -120 -142.5t-107 -48.5zM325 653q-29 0 -48.5 20t-19.5 49t19.5 48.5t48.5 19.5t49 -19.5
t20 -48.5t-20 -49t-49 -20z" />
    <glyph glyph-name="j" unicode="j" horiz-adv-x="291" 
d="M130 45q-13 -36 -24.5 -65t-24.5 -52.5t-30 -43t-42 -36.5q-17 -12 -39 -26t-47 -29.5t-51 -31t-50 -28.5l-13 24q43 31 75.5 55.5t58 53t46.5 66t42 93.5l143 387q6 17 1.5 20.5t-30.5 -0.5l-63 -9l-3 27l215 68l6 -6zM308 653q-29 0 -48.5 20t-19.5 49t19.5 48.5
t48.5 19.5t49 -19.5t20 -48.5t-20 -49t-49 -20z" />
    <glyph glyph-name="k" unicode="k" horiz-adv-x="588" 
d="M132 122l-34 -114l-102 -19l244 700q7 20 6 26t-14 12l-64 31l2 6l209 66zM378 -27q-23 0 -38 11t-31 40l-126 232l170 107q25 16 39.5 31.5t20.5 31.5t6.5 33.5t-0.5 37.5q3 9 17.5 15t29.5 6q20 0 36 -13t16 -33q0 -11 -3.5 -22t-18 -25.5t-42 -34.5t-75.5 -50
l-107 -66l127 -215q5 -9 11.5 -15.5t14.5 -6.5q9 0 22 10t28.5 27.5t32.5 41.5t34 51l27 -17q-30 -47 -54.5 -80t-47 -55t-44 -32t-45.5 -10z" />
    <glyph glyph-name="l" unicode="l" horiz-adv-x="312" 
d="M243 689q7 20 6 26t-14 12l-64 31l2 6l209 66l-250 -717q-11 -30 -14 -45.5t9 -15.5q11 0 28 12t37 31.5t41 45t39 53.5l27 -16q-61 -94 -120 -142.5t-107 -48.5q-46 0 -50 28t16 86z" />
    <glyph glyph-name="m" unicode="m" horiz-adv-x="904" 
d="M176 409q7 17 2 20.5t-31 -0.5l-63 -9l-3 27l221 68l6 -6l-71 -174h1q78 91 139.5 137t119.5 46q55 0 61 -46t-36 -137h1q78 91 139.5 137t119.5 46q55 0 61 -44.5t-26 -124.5l-96 -236q-12 -29 -14.5 -45t9.5 -16q11 0 28 12t37 31.5t41 45t39 53.5l27 -16
q-61 -94 -120 -142.5t-107 -48.5q-46 0 -54.5 27t14.5 85l96 236q25 62 26 91t-25 29q-22 0 -58 -24t-75 -65.5t-75 -97.5t-58 -120l-48 -139l-106 -20l134 346q24 62 25.5 91t-24.5 29q-22 0 -58 -24t-75 -65.5t-75 -97.5t-58 -120l-48 -139l-106 -20z" />
    <glyph glyph-name="n" unicode="n" horiz-adv-x="619" 
d="M176 409q7 17 2 20.5t-31 -0.5l-63 -9l-3 27l221 68l6 -6l-71 -174h1q78 91 139.5 137t119.5 46q55 0 61 -44.5t-26 -124.5l-96 -236q-12 -29 -14.5 -45t9.5 -16q11 0 28 12t37 31.5t41 45t39 53.5l27 -16q-61 -94 -120 -142.5t-107 -48.5q-46 0 -54.5 27t14.5 85l96 236
q25 62 26 91t-25 29q-22 0 -58 -24t-75 -65.5t-75 -97.5t-58 -120l-48 -139l-106 -20z" />
    <glyph glyph-name="o" unicode="o" horiz-adv-x="530" 
d="M173 -13q-42 0 -70.5 14t-46.5 36t-25.5 48.5t-7.5 52.5q0 46 15 91.5t40.5 88t59.5 79t71.5 63.5t76 42.5t74.5 15.5q42 0 70.5 -14t46.5 -36t25.5 -49t7.5 -52q0 -45 -15 -91t-40.5 -88.5t-59.5 -79t-71.5 -63.5t-76 -42.5t-74.5 -15.5zM196 27q33 0 61 18.5t51 49
t41 68.5t30.5 77t19 74.5t6.5 61.5q0 54 -17 78t-51 24q-32 0 -60.5 -18.5t-51.5 -49t-41 -68.5t-30.5 -77t-19 -74.5t-6.5 -61.5q0 -54 17 -78t51 -24z" />
    <glyph glyph-name="p" unicode="p" horiz-adv-x="568" 
d="M168 409q6 17 1.5 20.5t-30.5 -0.5l-63 -9l-3 27l216 68l6 -6l-41 -107h1q21 24 45 45t49.5 37t50.5 25t49 9q62 0 87.5 -34.5t23.5 -88.5q-2 -44 -19 -91t-44 -92.5t-62.5 -86t-74 -71.5t-78 -49t-75.5 -18q-25 0 -48 5.5t-37 13.5l-87 -254h-90zM214 24q47 0 89 34.5
t74 86.5t52 112.5t23 111.5q2 44 -12 68t-43 24q-33 0 -74 -28t-82 -77l-85 -250q-7 -20 -4.5 -35t11 -25.5t22 -16t29.5 -5.5z" />
    <glyph glyph-name="q" unicode="q" horiz-adv-x="538" 
d="M299 68l51 123h-2q-81 -106 -146.5 -155t-115.5 -49q-44 0 -65.5 27t-21.5 67t18 88t48.5 96.5t70.5 94t83 80.5t87 56.5t83 21.5q19 0 39 -4.5t34 -15.5l79 36l6 -4l-264 -778h-90zM140 48q20 0 55 23.5t72.5 64t72 93t54.5 111.5l20 60q7 23 5 38.5t-10 24.5
t-19.5 12.5t-21.5 3.5q-27 0 -56.5 -16.5t-58 -44.5t-54.5 -65t-45.5 -78.5t-31 -84.5t-11.5 -82q0 -28 6.5 -44t22.5 -16z" />
    <glyph glyph-name="r" unicode="r" horiz-adv-x="450" 
d="M176 409q7 17 2 20.5t-31 -0.5l-63 -9l-3 27l221 68l6 -6q-28 -64 -51 -118q-10 -23 -19.5 -46t-18 -43t-15 -35.5t-9.5 -22.5h2q32 59 63 104t59 80q36 45 67.5 66.5t62.5 21.5q26 0 43.5 -14t17.5 -37q0 -25 -12.5 -39.5t-26.5 -19.5q-46 20 -78 27q-11 2 -16 0.5
t-13 -6.5q-20 -14 -41 -39q-35 -42 -82.5 -115t-89.5 -173l-30 -91l-108 -20z" />
    <glyph glyph-name="s" unicode="s" horiz-adv-x="401" 
d="M98 -13q-22 0 -43 6.5t-37 18t-25.5 27t-9.5 32.5q0 18 12.5 32.5t37.5 16.5q16 -17 30 -32.5t29 -27.5t30.5 -19t34.5 -7q32 0 52.5 17.5t20.5 48.5q0 18 -8.5 41t-26.5 48l-43 58q-18 26 -28.5 55t-10.5 59q0 35 17 64t44.5 49.5t61.5 32t68 11.5q21 0 41 -5.5
t35.5 -15.5t25 -23.5t9.5 -28.5q0 -19 -13.5 -34t-37.5 -17q-23 32 -52.5 56t-64.5 24q-29 0 -46.5 -15.5t-17.5 -39.5q0 -22 9 -43.5t29 -49.5l41 -58q25 -36 35.5 -62t10.5 -57q0 -34 -19 -63.5t-49 -51.5t-67.5 -34.5t-74.5 -12.5z" />
    <glyph glyph-name="t" unicode="t" horiz-adv-x="383" 
d="M149 113q-12 -30 -10.5 -45.5t20.5 -15.5q12 0 31 12t40.5 31.5t43.5 45t40 53.5l27 -16q-61 -94 -123.5 -142.5t-113.5 -48.5q-46 0 -60 26.5t9 85.5l134 351h-106l19 52h107l39 100h89l-38 -100h140l-20 -52h-140z" />
    <glyph glyph-name="u" unicode="u" horiz-adv-x="615" 
d="M367 170h-2q-76 -90 -139 -136.5t-121 -46.5q-55 0 -61 44.5t26 124.5l104 253q7 17 2 20.5t-31 -0.5l-63 -9l-3 27l223 68l6 -6l-138 -339q-25 -62 -26 -91t25 -29q23 0 59.5 24.5t76 68.5t77.5 106t63 137l38 110l106 20l-155 -403q-11 -29 -14 -45t9 -16q11 0 28 12
t37 31.5t41 45t39 53.5l27 -16q-61 -94 -120 -142.5t-107 -48.5q-46 0 -50 27t17 85z" />
    <glyph glyph-name="v" unicode="v" horiz-adv-x="514" 
d="M102 0q6 117 17.5 214.5t33.5 182.5q6 23 -0.5 29t-28.5 2l-60 -11l-6 26l209 72l6 -6q-13 -42 -25 -92.5t-22.5 -104t-17.5 -106.5t-9 -100q36 37 72.5 71.5t69 68t59 65t43.5 62.5q23 43 -2 117q7 13 22 20.5t35 7.5q25 0 38.5 -15.5t13.5 -35.5q0 -28 -18 -59t-50 -69
q-42 -50 -82 -90t-80 -78t-82 -79t-87 -92h-49z" />
    <glyph glyph-name="w" unicode="w" horiz-adv-x="769" 
d="M275 509q-13 -42 -26.5 -93t-25.5 -104.5t-21 -106.5t-12 -100q65 53 117.5 113t96.5 117q4 38 8 73t9 64l91 43q-15 -94 -24.5 -194.5t-14.5 -215.5q33 37 65.5 70t61.5 65.5t53 65t40 67.5q11 23 11 51t-13 66q7 13 22 20.5t35 7.5q25 0 38.5 -15.5t13.5 -35.5
q0 -28 -17 -58.5t-47 -69.5q-41 -55 -78 -95.5t-73.5 -77t-74 -75.5t-79.5 -91h-49q2 54 6 125t10 143q-26 -32 -59 -68t-69 -71.5t-71.5 -68.5t-65.5 -60h-44q10 117 27 214.5t39 182.5q6 23 -0.5 29t-28.5 2l-60 -11l-6 26l209 72z" />
    <glyph glyph-name="x" unicode="x" horiz-adv-x="591" 
d="M-32 54q0 20 15 36t35 14q36 -51 72 -51q16 0 29 10q6 5 17 15.5t27.5 30t39.5 50.5t54 76l-17 141q-6 48 -13 64t-21 16q-18 0 -47.5 -29t-61.5 -70l-26 19q53 70 101 106t91 36q15 0 25 -5t17 -17.5t11 -33.5t8 -52l10 -84q37 59 67.5 96.5t56 58.5t47.5 29t43 8
q35 0 56 -18t21 -49q0 -20 -15 -36t-35 -14q-36 51 -72 51q-16 0 -29 -10q-6 -5 -16.5 -15t-26.5 -29t-38.5 -48.5t-52.5 -73.5l18 -147q6 -48 12.5 -64t20.5 -16q18 0 47.5 29t61.5 70l26 -19q-53 -70 -101 -106t-91 -36q-15 0 -25 5t-16.5 17.5t-10.5 33.5t-8 52l-11 90
q-39 -61 -69.5 -99.5t-56.5 -60.5t-48.5 -30t-43.5 -8q-35 0 -56 18t-21 49z" />
    <glyph glyph-name="y" unicode="y" horiz-adv-x="547" 
d="M250 128l151 209q37 52 63 86.5t46 55.5t36 30t33 9q18 0 30.5 -12t12.5 -32q0 -12 -3.5 -22.5t-10.5 -15.5q-30 -9 -53 -18.5t-44.5 -24.5t-43.5 -39t-50 -63l-198 -279q-18 -24 -39 -53t-44.5 -57.5t-48 -55.5t-48.5 -48q-44 -39 -70 -52t-52 -13q-25 0 -35.5 12.5
t-10.5 28.5q0 17 6.5 29t17.5 16q15 -1 32 -1t33 2t30 5.5t22 9.5q39 26 76 69.5t73 100.5l-1 401q0 23 -5.5 26.5t-23.5 0.5l-60 -13l-6 26l182 72l6 -6z" />
    <glyph glyph-name="z" unicode="z" horiz-adv-x="523" 
d="M328 -37q-24 0 -53 13t-62.5 31t-70 37t-73.5 31q-2 -30 -9 -47.5t-15.5 -26.5t-17 -11.5t-14.5 -2.5q-14 0 -23 8.5t-9 22.5q0 16 12 34t46 47l343 293q-36 9 -66.5 20.5t-55 21.5t-43.5 16.5t-32 6.5q-16 0 -26 -7.5t-10 -23.5q0 -13 5.5 -23t13.5 -18t16 -15t14 -13
q0 -19 -15 -31t-36 -12q-27 0 -41.5 16.5t-14.5 40.5t9.5 43t24.5 34.5t33.5 28t36.5 23.5q20 13 34.5 17t26.5 2q18 -3 42 -11.5t49.5 -17t49.5 -15.5t42 -7q15 0 29 5.5t26 13.5t23 17t20 17l22 -25l-419 -359q31 -10 60 -25t56.5 -29.5t52 -24.5t46.5 -10q35 0 53.5 19
t35.5 59l28 -10q-32 -77 -63.5 -115t-80.5 -38z" />
    <glyph glyph-name="braceleft" unicode="{" horiz-adv-x="368" 
d="M108 313q22 -3 49 -18.5t44.5 -45.5t16.5 -74.5t-35 -106.5l-50 -91q-18 -32 -24 -62t0.5 -54.5t26 -41.5t52.5 -24l-11 -33q-43 5 -77.5 27.5t-53 57.5t-18.5 80t26 96l52 101q24 47 26.5 79t-10 52.5t-37 31t-54.5 15.5l11 33q34 5 65 12.5t56 24t43 44.5t25 75l13 86
q11 71 32 118.5t54 75.5t79.5 40t107.5 12l-5 -36q-48 -4 -77.5 -13.5t-47.5 -29t-27 -51t-16 -78.5l-10 -69q-10 -68 -33 -110.5t-54 -68t-67 -36.5t-72 -15v-3z" />
    <glyph glyph-name="bar" unicode="|" horiz-adv-x="335" 
d="M151 826h60v-1064h-60v1064z" />
    <glyph glyph-name="braceright" unicode="}" horiz-adv-x="368" 
d="M287 272q-22 3 -49 18.5t-44.5 45.5t-16.5 74.5t35 106.5l50 91q18 32 24 62t-0.5 54.5t-26 41.5t-52.5 24l11 33q43 -5 77.5 -27.5t53 -57.5t18.5 -80t-26 -96l-52 -101q-24 -47 -26.5 -79t10 -52.5t37 -31t54.5 -15.5l-11 -33q-34 -5 -65 -12.5t-56 -24t-43 -44.5
t-25 -75l-13 -86q-11 -71 -32 -118.5t-54 -75.5t-79.5 -40t-107.5 -12l5 36q48 4 77.5 13.5t47.5 29t27 51t16 78.5l10 69q10 68 33 110.5t54 68t67 36.5t72 15v3z" />
    <glyph glyph-name="asciitilde" unicode="~" horiz-adv-x="653" 
d="M208 331q40 0 73.5 -13.5t62.5 -29.5t55 -29.5t53 -13.5q36 0 61.5 17.5t27.5 63.5h63q-5 -66 -47 -103t-106 -37q-35 0 -66.5 13.5t-60.5 29.5t-58 29.5t-59 13.5q-36 0 -61.5 -17.5t-27.5 -63.5h-63q5 66 47 103t106 37z" />
    <glyph glyph-name="uni00A0" unicode="&#xa0;" horiz-adv-x="280" 
 />
    <glyph glyph-name="exclamdown" unicode="&#xa1;" horiz-adv-x="283" 
d="M171 273q-19 -70 -31 -118t-21 -84.5t-16 -67t-14.5 -64.5t-18 -76.5t-25.5 -104.5q-2 -8 -12.5 -14t-25 -8.5t-30.5 -2.5t-28.5 3t-19.5 8.5t-4 13.5q23 62 41 105t32.5 77t28.5 64t30 66.5t35.5 84.5t46.5 118h32zM197 518q31 0 53 -22.5t22 -55.5q0 -31 -22 -53
t-53 -22q-33 0 -55.5 22t-22.5 53q0 33 22.5 55.5t55.5 22.5z" />
    <glyph glyph-name="cent" unicode="&#xa2;" horiz-adv-x="450" 
d="M414 619l-41 -101q33 -2 57 -18t24 -43q0 -22 -14 -38t-34 -16q-21 26 -47 42t-57 16q-35 0 -66.5 -26t-55 -69.5t-37.5 -99.5t-14 -116q0 -45 15 -73.5t52 -28.5q41 0 79 35.5t76 95.5l26 -18q-22 -36 -46 -67t-51.5 -54.5t-59 -37.5t-67.5 -15l-45 -110h-36l46 113
q-42 8 -69 41t-27 89q0 36 12 77.5t33.5 83.5t51.5 81.5t64.5 71t73.5 53.5t79 28l42 104h36z" />
    <glyph glyph-name="sterling" unicode="&#xa3;" horiz-adv-x="637" 
d="M368 -19q-27 0 -61 9t-69 24.5t-67.5 36t-57.5 43.5q-28 -60 -55.5 -82.5t-51.5 -22.5q-15 0 -24 8.5t-9 21.5q0 11 6 22t19.5 22.5t36.5 25t57 30.5q65 32 111.5 92.5t58.5 135.5h-160l16 52h147q-1 19 -4.5 36t-7 33.5t-6.5 32.5t-3 33q0 49 26.5 93t71.5 78t103.5 54
t123.5 20q21 0 42 -3.5t37.5 -12t27 -21.5t10.5 -31q0 -29 -20.5 -46.5t-58.5 -14.5q-7 15 -16 29t-22.5 24.5t-33 17t-47.5 6.5q-31 0 -59 -11.5t-49 -31.5t-33 -46t-12 -54q0 -21 6 -42.5t13 -44t13 -46.5t6 -49v-3h183l-16 -52h-175q-11 -35 -33 -65.5t-49 -55.5t-56 -45
t-54 -33q17 -12 48.5 -26t67.5 -26t70.5 -20t56.5 -8q18 0 35 3.5t32 12t27.5 23.5t21.5 38l29 -13l-20 -42q-15 -32 -34.5 -53t-42 -33.5t-47 -17.5t-49.5 -5z" />
    <glyph glyph-name="yen" unicode="&#xa5;" horiz-adv-x="799" 
d="M151 37l42 1q26 1 41.5 2.5t24.5 8.5t15.5 21.5t14.5 40.5l24 74h-200l15 45h200l31 98h-200l15 45h175l-99 324q-4 13 -10.5 17.5t-31.5 6.5l-32 2l11 35h268l-11 -35l-49 -2q-29 -2 -40.5 -8t-5.5 -28l91 -301l226 231q54 55 62 80t-35 26l-38 2l11 35h254l-11 -35
l-34 -2q-16 0 -28.5 -5t-28 -17t-36.5 -33l-53 -53l-237 -240h186l-15 -45h-214l-32 -98h215l-15 -45h-214l-24 -74q-8 -26 -11 -40.5t1.5 -21.5t18 -8.5t39.5 -2.5l42 -1l-12 -37h-318z" />
    <glyph glyph-name="brokenbar" unicode="&#xa6;" horiz-adv-x="335" 
d="M151 826h60v-421h-60v421zM151 183h60v-421h-60v421z" />
    <glyph glyph-name="section" unicode="&#xa7;" horiz-adv-x="589" 
d="M75 -197q-68 0 -107 24t-39 56q0 31 26 49t65 14q-5 -46 18.5 -73.5t61.5 -27.5t72.5 17.5t60.5 48t41.5 72t15.5 89.5q0 38 -8.5 69t-25.5 60l-50 87q-23 39 -38 77.5t-15 83.5q0 48 17.5 91t46.5 80t68 66t82 50t87 32t85 11q66 0 104 -20.5t38 -58.5q0 -30 -26 -47
t-64 -13q3 45 -23 71t-72 26q-38 0 -68.5 -15.5t-52 -41.5t-33 -59.5t-11.5 -68.5t7.5 -64.5t25.5 -59.5l49 -87q29 -50 46.5 -94t17.5 -89q0 -62 -32.5 -125t-88 -114t-128.5 -83.5t-153 -32.5zM352 100q0 -45 -18 -94.5t-47 -88.5q60 42 92 100.5t32 118.5q0 47 -17 88.5
t-39 79.5l-50 87q-14 27 -24 58.5t-10 66.5q0 42 12 76t39 71q-57 -44 -82 -95t-25 -98q0 -35 10 -65.5t25 -56.5l50 -87q23 -40 37.5 -79.5t14.5 -81.5z" />
    <glyph glyph-name="dieresis" unicode="&#xa8;" 
d="M117 662q-23 0 -40 16t-17 42q0 25 17 41.5t40 16.5q25 0 41.5 -16.5t16.5 -41.5q0 -26 -16.5 -42t-41.5 -16zM-118 662q-23 0 -40 16t-17 42q0 25 17 41.5t40 16.5q25 0 41.5 -16.5t16.5 -41.5q0 -26 -16.5 -42t-41.5 -16z" />
    <glyph glyph-name="copyright" unicode="&#xa9;" horiz-adv-x="928" 
d="M106 383q0 88 31.5 160.5t85.5 125t126.5 81.5t155.5 29t155.5 -29t126.5 -81.5t85.5 -125t31.5 -160.5t-31.5 -160.5t-85.5 -125t-126.5 -81.5t-155.5 -29t-155.5 29t-126.5 81.5t-85.5 125t-31.5 160.5zM163 383q0 -79 26 -143.5t72 -110t108.5 -70t135.5 -24.5
t135.5 24.5t108.5 70t72 110t26 143.5t-26 143.5t-72 110t-108.5 70t-135.5 24.5t-135.5 -24.5t-108.5 -70t-72 -110t-26 -143.5zM533 204q35 0 58 14t42 45l23 37h24l-27 -108q-25 -9 -55.5 -14.5t-73.5 -5.5q-54 0 -98 17.5t-75.5 48t-49 71.5t-17.5 87t18 87t50.5 71.5
t77.5 48.5t99 18q42 0 72 -6t53 -14l19 -106h-24l-20 35q-19 32 -43.5 45.5t-62.5 13.5q-28 0 -55 -9t-48.5 -29t-34.5 -53t-13 -82q0 -46 10.5 -85t31 -67t50.5 -44t69 -16z" />
    <glyph glyph-name="ordfeminine" unicode="&#xaa;" horiz-adv-x="511" 
d="M186 379q-37 0 -53.5 22.5t-16.5 54.5q0 35 15.5 74.5t41.5 79t59 75t68.5 63t70 44t63.5 16.5q38 0 60 -16l66 30l5 -3l-126 -336q-9 -24 -11 -36.5t8 -12.5q8 0 21 9t28.5 24.5t31.5 36t31 43.5l24 -14q-49 -76 -97 -115t-90 -39q-37 0 -40.5 23t13.5 72l19 51h-1
q-22 -30 -45.5 -57t-47.5 -46.5t-48.5 -31t-48.5 -11.5zM238 431q13 0 37 17.5t51 48t53 71t43 86.5l23 61q6 16 5.5 27.5t-5 18.5t-12 10t-15.5 3q-21 0 -44.5 -13.5t-46 -36t-43 -53t-36 -63.5t-24.5 -67t-9 -65q0 -19 4.5 -32t18.5 -13z" />
    <glyph glyph-name="guillemotleft" unicode="&#xab;" horiz-adv-x="555" 
d="M338 484l19 -20l-197 -218l47 -218l-29 -10l-130 233zM548 484l19 -20l-197 -218l47 -218l-29 -10l-130 233z" />
    <glyph glyph-name="uni00AD" unicode="&#xad;" horiz-adv-x="436" 
d="M86 295h294l-22 -65h-294z" />
    <glyph glyph-name="registered" unicode="&#xae;" horiz-adv-x="928" 
d="M106 383q0 88 31.5 160.5t85.5 125t126.5 81.5t155.5 29t155.5 -29t126.5 -81.5t85.5 -125t31.5 -160.5t-31.5 -160.5t-85.5 -125t-126.5 -81.5t-155.5 -29t-155.5 29t-126.5 81.5t-85.5 125t-31.5 160.5zM163 383q0 -79 26 -143.5t72 -110t108.5 -70t135.5 -24.5
t135.5 24.5t108.5 70t72 110t26 143.5t-26 143.5t-72 110t-108.5 70t-135.5 24.5t-135.5 -24.5t-108.5 -70t-72 -110t-26 -143.5zM483 610q81 0 130 -23.5t49 -78.5q0 -43 -26.5 -70t-72.5 -40q4 -5 22 -29t39.5 -52t39.5 -52t22 -28q15 -20 23 -25t21 -6l16 -1v-25h-120
l-144 203h-37v-143q0 -19 5 -25t25 -8l34 -2v-25h-198v25l25 2q19 2 24 8t5 25v310q0 19 -5 25t-24 8l-25 2v25h172zM481 412q56 0 75.5 24.5t19.5 59.5q0 38 -21.5 61t-74.5 23q-25 0 -30 -2t-5 -11v-155h36z" />
    <glyph glyph-name="macron" unicode="&#xaf;" 
d="M-137 735h294l-22 -65h-294z" />
    <glyph glyph-name="degree" unicode="&#xb0;" horiz-adv-x="437" 
d="M323 441q-36 0 -67 13t-54 36t-36 54t-13 66t13 66t36 54t54 36t67 13t67 -13t54 -36t36 -54t13 -66t-13 -66t-36 -54t-54 -36t-67 -13zM323 495q22 0 42 8.5t35 23.5t23.5 36t8.5 47t-8.5 47t-23.5 36t-35 23.5t-42 8.5t-42 -8.5t-35 -23.5t-23.5 -36t-8.5 -47t8.5 -47
t23.5 -36t35 -23.5t42 -8.5z" />
    <glyph glyph-name="plusminus" unicode="&#xb1;" horiz-adv-x="653" 
d="M275 288h-214v65h214v163h69v-163h214v-65h-214v-168h-69v168zM61 65h497v-65h-497v65z" />
    <glyph glyph-name="uni00B2" unicode="&#xb2;" horiz-adv-x="351" 
d="M67 401l4 13q81 59 139 105.5t94.5 84t53.5 67t17 54.5q0 55 -64 55q-24 0 -47.5 -13t-46.5 -45l-21 14q32 48 68 70.5t87 22.5q48 0 73.5 -23.5t25.5 -59.5q0 -27 -13 -53t-35.5 -51t-54 -50t-67.5 -51q-26 -19 -53 -37.5t-55 -38.5h103q21 0 35 2t25 8t21.5 16t22.5 27
l17 -9l-64 -108h-265z" />
    <glyph glyph-name="uni00B3" unicode="&#xb3;" horiz-adv-x="341" 
d="M203 394q-48 0 -79 22t-31 52q0 19 17 31.5t43 6.5q6 -39 21.5 -62t51.5 -23q16 0 32.5 6.5t29.5 20t21.5 33.5t8.5 47q0 43 -22.5 65.5t-51.5 22.5q-5 0 -9.5 -0.5t-9.5 -1.5l-3 24l29 7q22 5 42.5 12.5t36.5 17.5t26 24t10 33q0 23 -16 36t-40 13q-22 0 -42 -8.5
t-42 -34.5l-18 17q31 40 64.5 57t68.5 17q45 0 70.5 -21t25.5 -51q0 -34 -26.5 -59.5t-71.5 -37.5v-1q54 -34 54 -98q0 -32 -16.5 -62.5t-43 -53.5t-60.5 -37t-70 -14z" />
    <glyph glyph-name="acute" unicode="&#xb4;" 
d="M4 788h139l-1 -3l-268 -176h-19z" />
    <glyph glyph-name="paragraph" unicode="&#xb6;" horiz-adv-x="594" 
d="M90 -193q-27 0 -49 12.5t-22 41.5q0 28 19.5 43t45.5 12q20 -27 43 -38.5t53 -11.5q18 0 32.5 6.5t27.5 22.5t25 42t24 64l99 302q-27 -8 -52.5 -12.5t-51.5 -4.5q-43 0 -75 13t-53.5 36.5t-32.5 54.5t-11 67q0 59 28 113.5t80.5 96t128 66.5t170.5 25h189l-11 -35
l-37 -2q-21 -1 -33.5 -4t-20.5 -10.5t-14 -21.5t-14 -38l-179 -549q-9 -28 -20 -59.5t-26.5 -62.5t-38.5 -59.5t-56 -50.5q-42 -28 -87 -43.5t-81 -15.5z" />
    <glyph glyph-name="periodcentered" unicode="&#xb7;" horiz-adv-x="290" 
d="M147 186q-31 0 -53 22.5t-22 55.5q0 31 22 53t53 22q33 0 55.5 -22t22.5 -53q0 -33 -22.5 -55.5t-55.5 -22.5z" />
    <glyph glyph-name="cedilla" unicode="&#xb8;" 
d="M-82 -260q-43 0 -66 18.5t-23 40.5q0 18 15.5 29t39.5 4q2 -32 17.5 -47.5t41.5 -15.5q18 0 30 7.5t12 22.5q0 16 -24 38t-64 49l145 114h43l-102 -81q29 -19 45.5 -40t16.5 -44q0 -16 -9 -32.5t-25.5 -30.5t-40 -23t-52.5 -9z" />
    <glyph glyph-name="uni00B9" unicode="&#xb9;" horiz-adv-x="242" 
d="M254 753h-69l8 22q55 5 85 17.5t53 35.5h22l-133 -388q-2 -6 -1 -9t10 -4l25 -2l-9 -24h-166l9 25l41 2q9 1 12 3.5t5 8.5z" />
    <glyph glyph-name="ordmasculine" unicode="&#xba;" horiz-adv-x="454" 
d="M254 379q-33 0 -56.5 11t-38.5 28t-22 39t-7 44q0 55 26.5 110t67.5 99t90 71t94 27q33 0 56.5 -11t38.5 -28.5t22 -39t7 -43.5q0 -56 -26.5 -111t-67 -98.5t-90 -70.5t-94.5 -27zM275 413q36 0 66 30.5t51.5 74.5t33.5 92.5t12 83.5q0 80 -51 80q-24 0 -45.5 -14.5
t-39.5 -37.5t-32.5 -53t-24.5 -61.5t-15.5 -61.5t-5.5 -54q0 -79 51 -79z" />
    <glyph glyph-name="guillemotright" unicode="&#xbb;" horiz-adv-x="555" 
d="M8 18l-19 20l197 218l-47 218l29 10l130 -233zM218 18l-19 20l197 218l-47 218l29 10l130 -233z" />
    <glyph glyph-name="onequarter" unicode="&#xbc;" horiz-adv-x="820" 
d="M236 693h-69l8 22q55 5 85 17.5t53 35.5h22l-133 -388q-2 -6 -1 -9t10 -4l25 -2l-9 -24h-166l9 25l41 2q9 1 12 3.5t5 8.5zM761 758h78l-798 -758h-78zM606 113h-189l7 20l297 284h63l-89 -258h76l-16 -46h-76l-39 -113h-73zM622 159l62 180l-187 -180h125z" />
    <glyph glyph-name="onehalf" unicode="&#xbd;" horiz-adv-x="810" 
d="M236 693h-69l8 22q55 5 85 17.5t53 35.5h22l-133 -388q-2 -6 -1 -9t10 -4l25 -2l-9 -24h-166l9 25l41 2q9 1 12 3.5t5 8.5zM761 758h78l-798 -758h-78zM403 0l4 13q81 59 139 105.5t94.5 84t53.5 67t17 54.5q0 55 -64 55q-24 0 -47.5 -13t-46.5 -45l-21 14q32 48 68 70.5
t87 22.5q48 0 73.5 -23.5t25.5 -59.5q0 -27 -13 -53t-35.5 -51t-54 -50t-67.5 -51q-26 -19 -53 -37.5t-55 -38.5h103q21 0 35 2t25 8t21.5 16t22.5 27l17 -9l-64 -108h-265z" />
    <glyph glyph-name="threequarters" unicode="&#xbe;" horiz-adv-x="902" 
d="M185 334q-48 0 -79 22t-31 52q0 19 17 31.5t43 6.5q6 -39 21.5 -62t51.5 -23q16 0 32.5 6.5t29.5 20t21.5 33.5t8.5 47q0 43 -22.5 65.5t-51.5 22.5q-5 0 -9.5 -0.5t-9.5 -1.5l-3 24l29 7q22 5 42.5 12.5t36.5 17.5t26 24t10 33q0 23 -16 36t-40 13q-22 0 -42 -8.5
t-42 -34.5l-18 17q31 40 64.5 57t68.5 17q45 0 70.5 -21t25.5 -51q0 -34 -26.5 -59.5t-71.5 -37.5v-1q54 -34 54 -98q0 -32 -16.5 -62.5t-43 -53.5t-60.5 -37t-70 -14zM843 758h78l-798 -758h-78zM688 113h-189l7 20l297 284h63l-89 -258h76l-16 -46h-76l-39 -113h-73z
M704 159l62 180l-187 -180h125z" />
    <glyph glyph-name="questiondown" unicode="&#xbf;" horiz-adv-x="539" 
d="M189 -218q38 0 67.5 18.5t49.5 63.5q24 2 45 -12t21 -41q0 -32 -38 -55t-106 -23q-63 0 -113.5 19t-86.5 50.5t-55.5 71t-19.5 80.5q0 35 7.5 59.5t24.5 41t44.5 27t68.5 17.5l141 25q17 3 28 6t18.5 9t13.5 15.5t13 26.5l40 99h30l-38 -149q-6 -25 -13 -41t-19 -26.5
t-32 -17t-52 -12.5l-82 -14q-74 -13 -104.5 -36t-30.5 -61q0 -24 13 -49t36.5 -45.5t56 -33.5t72.5 -13zM405 518q31 0 53 -22.5t22 -55.5q0 -31 -22 -53t-53 -22q-33 0 -55.5 22t-22.5 53q0 33 22.5 55.5t55.5 22.5z" />
    <glyph glyph-name="Agrave" unicode="&#xc0;" horiz-adv-x="749" 
d="M-95 35l38 2q15 1 28 7t27.5 19t31 33t38.5 49l479 636h36l27 -720q1 -15 8 -18t33 -5l33 -3l-10 -35h-276l10 35l48 3q28 1 38 6t9 29l-6 197h-269l-93 -127q-23 -31 -36 -51t-15.5 -32t5.5 -17t27 -6l44 -2l-10 -35h-255zM495 319l-9 301l-222 -301h231zM554 972
l59 -129h-19l-192 126l1 3h151z" />
    <glyph glyph-name="Aacute" unicode="&#xc1;" horiz-adv-x="749" 
d="M-95 35l38 2q15 1 28 7t27.5 19t31 33t38.5 49l479 636h36l27 -720q1 -15 8 -18t33 -5l33 -3l-10 -35h-276l10 35l48 3q28 1 38 6t9 29l-6 197h-269l-93 -127q-23 -31 -36 -51t-15.5 -32t5.5 -17t27 -6l44 -2l-10 -35h-255zM495 319l-9 301l-222 -301h231zM823 969
l-282 -126h-23l138 129h168z" />
    <glyph glyph-name="Acircumflex" unicode="&#xc2;" horiz-adv-x="749" 
d="M-95 35l38 2q15 1 28 7t27.5 19t31 33t38.5 49l479 636h36l27 -720q1 -15 8 -18t33 -5l33 -3l-10 -35h-276l10 35l48 3q28 1 38 6t9 29l-6 197h-269l-93 -127q-23 -31 -36 -51t-15.5 -32t5.5 -17t27 -6l44 -2l-10 -35h-255zM495 319l-9 301l-222 -301h231zM629 982
l97 -149h-20l-103 66l-194 -66h-29l233 149h16z" />
    <glyph glyph-name="Atilde" unicode="&#xc3;" horiz-adv-x="749" 
d="M-95 35l38 2q15 1 28 7t27.5 19t31 33t38.5 49l479 636h36l27 -720q1 -15 8 -18t33 -5l33 -3l-10 -35h-276l10 35l48 3q28 1 38 6t9 29l-6 197h-269l-93 -127q-23 -31 -36 -51t-15.5 -32t5.5 -17t27 -6l44 -2l-10 -35h-255zM495 319l-9 301l-222 -301h231zM381 833
q13 67 43 104.5t78 37.5q24 0 45 -11t40.5 -24.5t39 -24.5t40.5 -11q23 0 41.5 13t28.5 55h23q-11 -76 -38.5 -106.5t-72.5 -30.5q-26 0 -46.5 11t-39 23.5t-36.5 23.5t-40 11q-29 0 -51.5 -14.5t-33.5 -56.5h-21z" />
    <glyph glyph-name="Adieresis" unicode="&#xc4;" horiz-adv-x="749" 
d="M-95 35l38 2q15 1 28 7t27.5 19t31 33t38.5 49l479 636h36l27 -720q1 -15 8 -18t33 -5l33 -3l-10 -35h-276l10 35l48 3q28 1 38 6t9 29l-6 197h-269l-93 -127q-23 -31 -36 -51t-15.5 -32t5.5 -17t27 -6l44 -2l-10 -35h-255zM495 319l-9 301l-222 -301h231zM451 846
q-26 0 -43 17t-17 43q0 27 17 44.5t43 17.5t43 -17.5t17 -44.5q0 -26 -17 -43t-43 -17zM707 846q-26 0 -43 17t-17 43q0 27 17 44.5t43 17.5t43 -17.5t17 -44.5q0 -26 -17 -43t-43 -17z" />
    <glyph glyph-name="Aring" unicode="&#xc5;" horiz-adv-x="749" 
d="M-95 35l38 2q15 1 28 7t27.5 19t31 33t38.5 49l479 636h36l27 -720q1 -15 8 -18t33 -5l33 -3l-10 -35h-276l10 35l48 3q28 1 38 6t9 29l-6 197h-269l-93 -127q-23 -31 -36 -51t-15.5 -32t5.5 -17t27 -6l44 -2l-10 -35h-255zM495 319l-9 301l-222 -301h231zM475 964
q0 25 9.5 46.5t26.5 38t39 26t48 9.5t49 -9.5t40 -26t26.5 -38t9.5 -46.5t-9.5 -46.5t-26.5 -37.5t-40 -25t-49 -9t-48 9t-39 25t-26.5 37.5t-9.5 46.5zM668 964q0 32 -18.5 51t-51.5 19q-32 0 -50 -19t-18 -51t18 -51t50 -19q33 0 51.5 19t18.5 51z" />
    <glyph glyph-name="AE" unicode="&#xc6;" horiz-adv-x="1122" 
d="M-85 35l38 2q30 2 67 29.5t88 78.5l607 613h149l291 2l-47 -181h-30v45q0 34 -6.5 53t-28 28t-62 11t-108.5 2h-46q-11 0 -16.5 -4.5t-9.5 -15.5l-88 -289h128q20 0 35.5 1.5t28.5 8.5t25.5 21.5t27.5 40.5l21 39h30l-82 -268h-30l3 39q1 26 -2.5 40.5t-12.5 21.5
t-23.5 8.5t-34.5 1.5h-128l-77 -251q-8 -26 -6.5 -40.5t11 -21.5t27.5 -8.5t43 -1.5h21q69 0 111.5 3.5t71 13t48.5 26t43 43.5l64 73h30l-112 -199h-584l11 35l36 2q21 1 33.5 4t20.5 10.5t13.5 21.5t13.5 38l49 159h-261l-123 -127q-54 -56 -70.5 -80t21.5 -26l44 -2
l-10 -35h-263zM582 319l105 343l-333 -343h228z" />
    <glyph glyph-name="Ccedilla" unicode="&#xc7;" horiz-adv-x="785" 
d="M401 -13q-68 0 -126.5 19.5t-101.5 58.5t-68 97t-25 135q0 99 44.5 186.5t118.5 153t168.5 104t195.5 38.5q57 0 115.5 -8t96.5 -23l-10 -186h-27l-32 105q-7 22 -20 35.5t-32 20.5t-42 9t-49 2q-79 0 -153 -32.5t-131.5 -92.5t-92.5 -144.5t-35 -188.5
q0 -63 17.5 -109.5t48.5 -76.5t74 -44.5t94 -14.5q34 0 58.5 5t45.5 15.5t41 27t45 39.5l102 93h27l-97 -176q-49 -17 -110.5 -32.5t-139.5 -15.5zM271 -260q-43 0 -66 18.5t-23 40.5q0 18 15.5 29t39.5 4q2 -32 17.5 -47.5t41.5 -15.5q18 0 30 7.5t12 22.5q0 16 -24 38
t-64 49l145 114h43l-102 -81q29 -19 45.5 -40t16.5 -44q0 -16 -9 -32.5t-25.5 -30.5t-40 -23t-52.5 -9z" />
    <glyph glyph-name="Egrave" unicode="&#xc8;" horiz-adv-x="710" 
d="M-11 35l36 2q21 1 33.5 4t20.5 10.5t13.5 21.5t13.5 38l164 536q7 24 10 38t-0.5 21.5t-14.5 10.5t-31 4l-35 2l11 35h242l291 2l-47 -181h-30v45q0 34 -6.5 53t-28 28t-62 11t-108.5 2h-46q-11 0 -16.5 -4.5t-9.5 -15.5l-88 -289h128q20 0 35.5 1.5t28.5 8.5t25.5 21.5
t27.5 40.5l21 39h30l-82 -268h-30l3 39q1 26 -2.5 40.5t-12.5 21.5t-23.5 8.5t-34.5 1.5h-128l-77 -251q-8 -26 -6.5 -40.5t11 -21.5t27.5 -8.5t43 -1.5h21q69 0 111.5 3.5t71 13t48.5 26t43 43.5l64 73h30l-112 -199h-584zM524 972l59 -129h-19l-192 126l1 3h151z" />
    <glyph glyph-name="Eacute" unicode="&#xc9;" horiz-adv-x="710" 
d="M-11 35l36 2q21 1 33.5 4t20.5 10.5t13.5 21.5t13.5 38l164 536q7 24 10 38t-0.5 21.5t-14.5 10.5t-31 4l-35 2l11 35h242l291 2l-47 -181h-30v45q0 34 -6.5 53t-28 28t-62 11t-108.5 2h-46q-11 0 -16.5 -4.5t-9.5 -15.5l-88 -289h128q20 0 35.5 1.5t28.5 8.5t25.5 21.5
t27.5 40.5l21 39h30l-82 -268h-30l3 39q1 26 -2.5 40.5t-12.5 21.5t-23.5 8.5t-34.5 1.5h-128l-77 -251q-8 -26 -6.5 -40.5t11 -21.5t27.5 -8.5t43 -1.5h21q69 0 111.5 3.5t71 13t48.5 26t43 43.5l64 73h30l-112 -199h-584zM793 969l-282 -126h-23l138 129h168z" />
    <glyph glyph-name="Ecircumflex" unicode="&#xca;" horiz-adv-x="710" 
d="M-11 35l36 2q21 1 33.5 4t20.5 10.5t13.5 21.5t13.5 38l164 536q7 24 10 38t-0.5 21.5t-14.5 10.5t-31 4l-35 2l11 35h242l291 2l-47 -181h-30v45q0 34 -6.5 53t-28 28t-62 11t-108.5 2h-46q-11 0 -16.5 -4.5t-9.5 -15.5l-88 -289h128q20 0 35.5 1.5t28.5 8.5t25.5 21.5
t27.5 40.5l21 39h30l-82 -268h-30l3 39q1 26 -2.5 40.5t-12.5 21.5t-23.5 8.5t-34.5 1.5h-128l-77 -251q-8 -26 -6.5 -40.5t11 -21.5t27.5 -8.5t43 -1.5h21q69 0 111.5 3.5t71 13t48.5 26t43 43.5l64 73h30l-112 -199h-584zM599 982l97 -149h-20l-103 66l-194 -66h-29
l233 149h16z" />
    <glyph glyph-name="Edieresis" unicode="&#xcb;" horiz-adv-x="710" 
d="M-11 35l36 2q21 1 33.5 4t20.5 10.5t13.5 21.5t13.5 38l164 536q7 24 10 38t-0.5 21.5t-14.5 10.5t-31 4l-35 2l11 35h242l291 2l-47 -181h-30v45q0 34 -6.5 53t-28 28t-62 11t-108.5 2h-46q-11 0 -16.5 -4.5t-9.5 -15.5l-88 -289h128q20 0 35.5 1.5t28.5 8.5t25.5 21.5
t27.5 40.5l21 39h30l-82 -268h-30l3 39q1 26 -2.5 40.5t-12.5 21.5t-23.5 8.5t-34.5 1.5h-128l-77 -251q-8 -26 -6.5 -40.5t11 -21.5t27.5 -8.5t43 -1.5h21q69 0 111.5 3.5t71 13t48.5 26t43 43.5l64 73h30l-112 -199h-584zM421 846q-26 0 -43 17t-17 43q0 27 17 44.5
t43 17.5t43 -17.5t17 -44.5q0 -26 -17 -43t-43 -17zM677 846q-26 0 -43 17t-17 43q0 27 17 44.5t43 17.5t43 -17.5t17 -44.5q0 -26 -17 -43t-43 -17z" />
    <glyph glyph-name="Igrave" unicode="&#xcc;" horiz-adv-x="401" 
d="M270 647q7 24 10.5 38t0 21.5t-14.5 10.5t-31 4l-36 2l11 35h292l-11 -35l-36 -2q-21 -1 -33.5 -4t-20.5 -10.5t-14 -21.5t-13 -38l-164 -536q-8 -24 -11 -38t0.5 -21.5t14.5 -10.5t31 -4l36 -2l-11 -35h-292l11 35l36 2q21 1 33.5 4t20.5 10.5t13.5 21.5t13.5 38z
M377 972l59 -129h-19l-192 126l1 3h151z" />
    <glyph glyph-name="Iacute" unicode="&#xcd;" horiz-adv-x="401" 
d="M270 647q7 24 10.5 38t0 21.5t-14.5 10.5t-31 4l-36 2l11 35h292l-11 -35l-36 -2q-21 -1 -33.5 -4t-20.5 -10.5t-14 -21.5t-13 -38l-164 -536q-8 -24 -11 -38t0.5 -21.5t14.5 -10.5t31 -4l36 -2l-11 -35h-292l11 35l36 2q21 1 33.5 4t20.5 10.5t13.5 21.5t13.5 38z
M646 969l-282 -126h-23l138 129h168z" />
    <glyph glyph-name="Icircumflex" unicode="&#xce;" horiz-adv-x="401" 
d="M270 647q7 24 10.5 38t0 21.5t-14.5 10.5t-31 4l-36 2l11 35h292l-11 -35l-36 -2q-21 -1 -33.5 -4t-20.5 -10.5t-14 -21.5t-13 -38l-164 -536q-8 -24 -11 -38t0.5 -21.5t14.5 -10.5t31 -4l36 -2l-11 -35h-292l11 35l36 2q21 1 33.5 4t20.5 10.5t13.5 21.5t13.5 38z
M452 982l97 -149h-20l-103 66l-194 -66h-29l233 149h16z" />
    <glyph glyph-name="Idieresis" unicode="&#xcf;" horiz-adv-x="401" 
d="M270 647q7 24 10.5 38t0 21.5t-14.5 10.5t-31 4l-36 2l11 35h292l-11 -35l-36 -2q-21 -1 -33.5 -4t-20.5 -10.5t-14 -21.5t-13 -38l-164 -536q-8 -24 -11 -38t0.5 -21.5t14.5 -10.5t31 -4l36 -2l-11 -35h-292l11 35l36 2q21 1 33.5 4t20.5 10.5t13.5 21.5t13.5 38z
M274 846q-26 0 -43 17t-17 43q0 27 17 44.5t43 17.5t43 -17.5t17 -44.5q0 -26 -17 -43t-43 -17zM530 846q-26 0 -43 17t-17 43q0 27 17 44.5t43 17.5t43 -17.5t17 -44.5q0 -26 -17 -43t-43 -17z" />
    <glyph glyph-name="Eth" unicode="&#xd0;" horiz-adv-x="868" 
d="M-11 35l36 2q21 1 33.5 4t20.5 10.5t13.5 21.5t13.5 38l164 536q7 24 10.5 38t0 21.5t-14.5 10.5t-31 4l-36 2l11 35h285q88 0 157.5 -21t118 -59t74.5 -91.5t26 -117.5q0 -87 -41 -171.5t-117 -150.5t-183.5 -106.5t-240.5 -40.5h-311zM308 38q115 0 198.5 39t137.5 103
t80 146t26 169q0 115 -69.5 170t-204.5 55q-29 0 -45.5 -1t-25 -3.5t-11.5 -7t-5 -11.5l-179 -585q-6 -22 -7 -36t6.5 -22.5t23 -12t42.5 -3.5h33zM104 410h375l-14 -48h-375z" />
    <glyph glyph-name="Ntilde" unicode="&#xd1;" horiz-adv-x="926" 
d="M317 608l-118 -386q-20 -64 -30 -100.5t-9.5 -55t12 -23.5t35.5 -6l36 -2l-10 -35h-253l10 35l38 2q25 1 39.5 6t26 23.5t23.5 55t32 100.5l119 387q18 60 -2.5 86t-85.5 28l10 35h155l364 -603l116 381q19 64 29.5 100.5t10.5 55t-11.5 23.5t-35.5 6l-36 2l10 35h253
l-10 -35l-38 -2q-25 -1 -39.5 -6t-26.5 -23.5t-24.5 -55t-31.5 -100.5l-164 -539h-27zM449 833q13 67 43 104.5t78 37.5q24 0 45 -11t40.5 -24.5t39 -24.5t40.5 -11q23 0 41.5 13t28.5 55h23q-11 -76 -38.5 -106.5t-72.5 -30.5q-26 0 -46.5 11t-39 23.5t-36.5 23.5t-40 11
q-29 0 -51.5 -14.5t-33.5 -56.5h-21z" />
    <glyph glyph-name="Ograve" unicode="&#xd2;" horiz-adv-x="870" 
d="M394 -13q-71 0 -128 23t-98 64.5t-63 98.5t-22 126q0 92 38.5 178.5t103.5 153.5t151 107.5t182 40.5q70 0 127.5 -23t98 -64.5t63 -98.5t22.5 -126q0 -92 -38.5 -178.5t-103.5 -153.5t-151 -107.5t-182 -40.5zM400 32q60 0 109 21.5t88 57t67.5 82.5t47.5 98t28 102.5
t9 96.5q0 64 -14.5 110t-40.5 76t-62 44t-80 14q-60 0 -109 -21.5t-88 -57t-67.5 -82.5t-47.5 -98t-28 -102.5t-9 -96.5q0 -64 14.5 -110t40.5 -76t62 -44t80 -14zM588 972l59 -129h-19l-192 126l1 3h151z" />
    <glyph glyph-name="Oacute" unicode="&#xd3;" horiz-adv-x="870" 
d="M394 -13q-71 0 -128 23t-98 64.5t-63 98.5t-22 126q0 92 38.5 178.5t103.5 153.5t151 107.5t182 40.5q70 0 127.5 -23t98 -64.5t63 -98.5t22.5 -126q0 -92 -38.5 -178.5t-103.5 -153.5t-151 -107.5t-182 -40.5zM400 32q60 0 109 21.5t88 57t67.5 82.5t47.5 98t28 102.5
t9 96.5q0 64 -14.5 110t-40.5 76t-62 44t-80 14q-60 0 -109 -21.5t-88 -57t-67.5 -82.5t-47.5 -98t-28 -102.5t-9 -96.5q0 -64 14.5 -110t40.5 -76t62 -44t80 -14zM857 969l-282 -126h-23l138 129h168z" />
    <glyph glyph-name="Ocircumflex" unicode="&#xd4;" horiz-adv-x="870" 
d="M394 -13q-71 0 -128 23t-98 64.5t-63 98.5t-22 126q0 92 38.5 178.5t103.5 153.5t151 107.5t182 40.5q70 0 127.5 -23t98 -64.5t63 -98.5t22.5 -126q0 -92 -38.5 -178.5t-103.5 -153.5t-151 -107.5t-182 -40.5zM400 32q60 0 109 21.5t88 57t67.5 82.5t47.5 98t28 102.5
t9 96.5q0 64 -14.5 110t-40.5 76t-62 44t-80 14q-60 0 -109 -21.5t-88 -57t-67.5 -82.5t-47.5 -98t-28 -102.5t-9 -96.5q0 -64 14.5 -110t40.5 -76t62 -44t80 -14zM663 982l97 -149h-20l-103 66l-194 -66h-29l233 149h16z" />
    <glyph glyph-name="Otilde" unicode="&#xd5;" horiz-adv-x="870" 
d="M394 -13q-71 0 -128 23t-98 64.5t-63 98.5t-22 126q0 92 38.5 178.5t103.5 153.5t151 107.5t182 40.5q70 0 127.5 -23t98 -64.5t63 -98.5t22.5 -126q0 -92 -38.5 -178.5t-103.5 -153.5t-151 -107.5t-182 -40.5zM400 32q60 0 109 21.5t88 57t67.5 82.5t47.5 98t28 102.5
t9 96.5q0 64 -14.5 110t-40.5 76t-62 44t-80 14q-60 0 -109 -21.5t-88 -57t-67.5 -82.5t-47.5 -98t-28 -102.5t-9 -96.5q0 -64 14.5 -110t40.5 -76t62 -44t80 -14zM415 833q13 67 43 104.5t78 37.5q24 0 45 -11t40.5 -24.5t39 -24.5t40.5 -11q23 0 41.5 13t28.5 55h23
q-11 -76 -38.5 -106.5t-72.5 -30.5q-26 0 -46.5 11t-39 23.5t-36.5 23.5t-40 11q-29 0 -51.5 -14.5t-33.5 -56.5h-21z" />
    <glyph glyph-name="Odieresis" unicode="&#xd6;" horiz-adv-x="870" 
d="M394 -13q-71 0 -128 23t-98 64.5t-63 98.5t-22 126q0 92 38.5 178.5t103.5 153.5t151 107.5t182 40.5q70 0 127.5 -23t98 -64.5t63 -98.5t22.5 -126q0 -92 -38.5 -178.5t-103.5 -153.5t-151 -107.5t-182 -40.5zM400 32q60 0 109 21.5t88 57t67.5 82.5t47.5 98t28 102.5
t9 96.5q0 64 -14.5 110t-40.5 76t-62 44t-80 14q-60 0 -109 -21.5t-88 -57t-67.5 -82.5t-47.5 -98t-28 -102.5t-9 -96.5q0 -64 14.5 -110t40.5 -76t62 -44t80 -14zM485 846q-26 0 -43 17t-17 43q0 27 17 44.5t43 17.5t43 -17.5t17 -44.5q0 -26 -17 -43t-43 -17zM741 846
q-26 0 -43 17t-17 43q0 27 17 44.5t43 17.5t43 -17.5t17 -44.5q0 -26 -17 -43t-43 -17z" />
    <glyph glyph-name="multiply" unicode="&#xd7;" horiz-adv-x="653" 
d="M95 73l189 189l-189 189l46 46l189 -189l189 189l46 -46l-189 -189l189 -189l-46 -45l-189 189l-189 -189z" />
    <glyph glyph-name="Oslash" unicode="&#xd8;" horiz-adv-x="870" 
d="M394 -13q-71 0 -128 23t-98 64.5t-63 98.5t-22 126q0 92 38.5 178.5t103.5 153.5t151 107.5t182 40.5q70 0 127.5 -23t98 -64.5t63 -98.5t22.5 -126q0 -92 -38.5 -178.5t-103.5 -153.5t-151 -107.5t-182 -40.5zM400 32q60 0 109 21.5t88 57t67.5 82.5t47.5 98t28 102.5
t9 96.5q0 64 -14.5 110t-40.5 76t-62 44t-80 14q-60 0 -109 -21.5t-88 -57t-67.5 -82.5t-47.5 -98t-28 -102.5t-9 -96.5q0 -64 14.5 -110t40.5 -76t62 -44t80 -14zM911 823l33 -35l-908 -845l-33 35z" />
    <glyph glyph-name="Ugrave" unicode="&#xd9;" horiz-adv-x="847" 
d="M371 -13q-71 0 -124.5 16.5t-85 53.5t-37.5 95.5t20 142.5l108 352q7 24 10 38t0 21.5t-14 10.5t-31 4l-36 2l11 35h292l-11 -35l-36 -2q-21 -1 -33.5 -4t-21 -10.5t-14 -21.5t-12.5 -38l-108 -352q-22 -72 -19 -121.5t24.5 -80t58 -44t82.5 -13.5q49 0 91.5 13.5
t77.5 43.5t63.5 79t49.5 120l75 244q19 64 29.5 100.5t10.5 55t-11.5 23.5t-35.5 7l-37 2l11 34h257l-11 -34l-37 -2q-25 -2 -39.5 -7t-26.5 -23.5t-24.5 -55t-31.5 -100.5l-74 -243q-25 -81 -59 -139t-78.5 -95t-99.5 -54.5t-123 -17.5zM595 972l59 -129h-19l-192 126l1 3
h151z" />
    <glyph glyph-name="Uacute" unicode="&#xda;" horiz-adv-x="847" 
d="M371 -13q-71 0 -124.5 16.5t-85 53.5t-37.5 95.5t20 142.5l108 352q7 24 10 38t0 21.5t-14 10.5t-31 4l-36 2l11 35h292l-11 -35l-36 -2q-21 -1 -33.5 -4t-21 -10.5t-14 -21.5t-12.5 -38l-108 -352q-22 -72 -19 -121.5t24.5 -80t58 -44t82.5 -13.5q49 0 91.5 13.5
t77.5 43.5t63.5 79t49.5 120l75 244q19 64 29.5 100.5t10.5 55t-11.5 23.5t-35.5 7l-37 2l11 34h257l-11 -34l-37 -2q-25 -2 -39.5 -7t-26.5 -23.5t-24.5 -55t-31.5 -100.5l-74 -243q-25 -81 -59 -139t-78.5 -95t-99.5 -54.5t-123 -17.5zM864 969l-282 -126h-23l138 129h168
z" />
    <glyph glyph-name="Ucircumflex" unicode="&#xdb;" horiz-adv-x="847" 
d="M371 -13q-71 0 -124.5 16.5t-85 53.5t-37.5 95.5t20 142.5l108 352q7 24 10 38t0 21.5t-14 10.5t-31 4l-36 2l11 35h292l-11 -35l-36 -2q-21 -1 -33.5 -4t-21 -10.5t-14 -21.5t-12.5 -38l-108 -352q-22 -72 -19 -121.5t24.5 -80t58 -44t82.5 -13.5q49 0 91.5 13.5
t77.5 43.5t63.5 79t49.5 120l75 244q19 64 29.5 100.5t10.5 55t-11.5 23.5t-35.5 7l-37 2l11 34h257l-11 -34l-37 -2q-25 -2 -39.5 -7t-26.5 -23.5t-24.5 -55t-31.5 -100.5l-74 -243q-25 -81 -59 -139t-78.5 -95t-99.5 -54.5t-123 -17.5zM670 982l97 -149h-20l-103 66
l-194 -66h-29l233 149h16z" />
    <glyph glyph-name="Udieresis" unicode="&#xdc;" horiz-adv-x="847" 
d="M371 -13q-71 0 -124.5 16.5t-85 53.5t-37.5 95.5t20 142.5l108 352q7 24 10 38t0 21.5t-14 10.5t-31 4l-36 2l11 35h292l-11 -35l-36 -2q-21 -1 -33.5 -4t-21 -10.5t-14 -21.5t-12.5 -38l-108 -352q-22 -72 -19 -121.5t24.5 -80t58 -44t82.5 -13.5q49 0 91.5 13.5
t77.5 43.5t63.5 79t49.5 120l75 244q19 64 29.5 100.5t10.5 55t-11.5 23.5t-35.5 7l-37 2l11 34h257l-11 -34l-37 -2q-25 -2 -39.5 -7t-26.5 -23.5t-24.5 -55t-31.5 -100.5l-74 -243q-25 -81 -59 -139t-78.5 -95t-99.5 -54.5t-123 -17.5zM492 846q-26 0 -43 17t-17 43
q0 27 17 44.5t43 17.5t43 -17.5t17 -44.5q0 -26 -17 -43t-43 -17zM748 846q-26 0 -43 17t-17 43q0 27 17 44.5t43 17.5t43 -17.5t17 -44.5q0 -26 -17 -43t-43 -17z" />
    <glyph glyph-name="Yacute" unicode="&#xdd;" horiz-adv-x="734" 
d="M133 37l43 1q26 1 41 2.5t24 8.5t15 21.5t14 40.5l68 222l-118 364q-4 13 -10.5 17.5t-31.5 6.5l-33 2l11 35h279l-11 -35l-48 -2q-29 -2 -41 -8t-4 -28l98 -301l221 231q53 55 60.5 80t-34.5 26l-39 2l11 35h255l-11 -35l-33 -2q-16 0 -29 -5t-28 -17t-35.5 -33
t-51.5 -53l-274 -282l-67 -220q-8 -26 -11 -40.5t2 -21.5t19 -8.5t40 -2.5l41 -1l-11 -37h-332zM819 969l-282 -126h-23l138 129h168z" />
    <glyph glyph-name="Thorn" unicode="&#xde;" horiz-adv-x="666" 
d="M210 758h292l-11 -35l-36 -2q-20 -1 -32 -3.5t-20 -9t-13.5 -18.5t-11.5 -31l-17 -55h69q51 0 95.5 -9t78 -29.5t53 -52t19.5 -76.5q0 -47 -22 -93t-66 -83t-111.5 -59.5t-158.5 -22.5h-87l-21 -68q-8 -27 -11 -41.5t2 -21t19 -8t40 -2.5l41 -1l-11 -37h-312l11 35l36 2
q21 1 33.5 4t20.5 10.5t13.5 21.5t13.5 38l164 536q7 24 10.5 38t0 21.5t-14.5 10.5t-31 4l-36 2zM242 214h84q63 0 107.5 20.5t72 53t40.5 71.5t13 76q0 131 -151 131q-35 0 -48 -4t-18 -20z" />
    <glyph glyph-name="germandbls" unicode="&#xdf;" horiz-adv-x="645" 
d="M176 437h-98l8 23l111 36l3 9q21 62 57 116.5t82 95t99.5 64t110.5 23.5q73 0 103 -27.5t30 -64.5q0 -35 -20.5 -70.5t-53.5 -56.5l-93 -57q-28 -17 -45 -33t-17 -45q0 -14 10.5 -35t34.5 -52l17 -22q30 -40 48 -74t18 -71q0 -35 -19.5 -72t-53.5 -67.5t-80 -50
t-100 -19.5q-66 0 -102.5 21t-36.5 53q0 25 20 43t55 12q5 -19 12 -35t17 -28t24.5 -19t34.5 -7q27 0 51.5 9.5t43.5 27t30 41.5t11 54t-11 55.5t-31 51.5l-18 23q-26 33 -46.5 63.5t-20.5 61.5q0 19 7.5 35.5t24 33t42 34t60.5 39.5q57 35 77 72t20 72q0 30 -20 47.5
t-57 17.5q-29 0 -57 -12t-55 -38t-51 -68.5t-45 -102.5l-166 -484q-31 -90 -68 -152.5t-77 -101.5t-81 -56t-80 -17q-15 0 -30.5 5t-27.5 14t-19.5 20.5t-7.5 24.5q0 20 12.5 35t32.5 13q10 -7 23.5 -17.5t28 -20.5t29 -17t26.5 -7q11 0 19 4.5t16 13.5q15 17 45 87.5
t68 182.5z" />
    <glyph glyph-name="agrave" unicode="&#xe0;" horiz-adv-x="565" 
d="M80 -13q-42 0 -61.5 28t-19.5 66q0 43 19 92.5t51 98t73 93t84.5 78.5t86.5 54.5t78 20.5q44 0 73 -16l72 32l6 -4l-156 -417q-11 -29 -14 -45t9 -16q11 0 28 12t37 31.5t41 45t39 53.5l27 -16q-61 -94 -120 -142.5t-107 -48.5q-46 0 -49 28t18 86l24 66h-1
q-26 -33 -55 -65.5t-59.5 -58t-61.5 -41t-62 -15.5zM141 48q16 0 46 21t64 58t67 87t56 109l36 94q6 15 4.5 26.5t-8 19t-16.5 11t-20 3.5q-27 0 -56.5 -16t-58 -44t-55 -65t-46 -78t-31.5 -84.5t-12 -84.5q0 -23 6.5 -40t23.5 -17zM421 609l-146 176l1 3h116l43 -179h-14z
" />
    <glyph glyph-name="aacute" unicode="&#xe1;" horiz-adv-x="565" 
d="M80 -13q-42 0 -61.5 28t-19.5 66q0 43 19 92.5t51 98t73 93t84.5 78.5t86.5 54.5t78 20.5q44 0 73 -16l72 32l6 -4l-156 -417q-11 -29 -14 -45t9 -16q11 0 28 12t37 31.5t41 45t39 53.5l27 -16q-61 -94 -120 -142.5t-107 -48.5q-46 0 -49 28t18 86l24 66h-1
q-26 -33 -55 -65.5t-59.5 -58t-61.5 -41t-62 -15.5zM141 48q16 0 46 21t64 58t67 87t56 109l36 94q6 15 4.5 26.5t-8 19t-16.5 11t-20 3.5q-27 0 -56.5 -16t-58 -44t-55 -65t-46 -78t-31.5 -84.5t-12 -84.5q0 -23 6.5 -40t23.5 -17zM548 788h139l-1 -3l-268 -176h-19z" />
    <glyph glyph-name="acircumflex" unicode="&#xe2;" horiz-adv-x="565" 
d="M80 -13q-42 0 -61.5 28t-19.5 66q0 43 19 92.5t51 98t73 93t84.5 78.5t86.5 54.5t78 20.5q44 0 73 -16l72 32l6 -4l-156 -417q-11 -29 -14 -45t9 -16q11 0 28 12t37 31.5t41 45t39 53.5l27 -16q-61 -94 -120 -142.5t-107 -48.5q-46 0 -49 28t18 86l24 66h-1
q-26 -33 -55 -65.5t-59.5 -58t-61.5 -41t-62 -15.5zM141 48q16 0 46 21t64 58t67 87t56 109l36 94q6 15 4.5 26.5t-8 19t-16.5 11t-20 3.5q-27 0 -56.5 -16t-58 -44t-55 -65t-46 -78t-31.5 -84.5t-12 -84.5q0 -23 6.5 -40t23.5 -17zM582 609h-17l-87 96l-201 -96h-23
l243 197h12z" />
    <glyph glyph-name="atilde" unicode="&#xe3;" horiz-adv-x="565" 
d="M80 -13q-42 0 -61.5 28t-19.5 66q0 43 19 92.5t51 98t73 93t84.5 78.5t86.5 54.5t78 20.5q44 0 73 -16l72 32l6 -4l-156 -417q-11 -29 -14 -45t9 -16q11 0 28 12t37 31.5t41 45t39 53.5l27 -16q-61 -94 -120 -142.5t-107 -48.5q-46 0 -49 28t18 86l24 66h-1
q-26 -33 -55 -65.5t-59.5 -58t-61.5 -41t-62 -15.5zM141 48q16 0 46 21t64 58t67 87t56 109l36 94q6 15 4.5 26.5t-8 19t-16.5 11t-20 3.5q-27 0 -56.5 -16t-58 -44t-55 -65t-46 -78t-31.5 -84.5t-12 -84.5q0 -23 6.5 -40t23.5 -17zM269 647q13 67 43 104.5t78 37.5
q24 0 45 -11t40.5 -24.5t39 -24.5t40.5 -11q23 0 41.5 13t28.5 55h23q-11 -76 -38.5 -106.5t-72.5 -30.5q-26 0 -46.5 11t-39 23.5t-36.5 23.5t-40 11q-29 0 -51.5 -14.5t-33.5 -56.5h-21z" />
    <glyph glyph-name="adieresis" unicode="&#xe4;" horiz-adv-x="565" 
d="M80 -13q-42 0 -61.5 28t-19.5 66q0 43 19 92.5t51 98t73 93t84.5 78.5t86.5 54.5t78 20.5q44 0 73 -16l72 32l6 -4l-156 -417q-11 -29 -14 -45t9 -16q11 0 28 12t37 31.5t41 45t39 53.5l27 -16q-61 -94 -120 -142.5t-107 -48.5q-46 0 -49 28t18 86l24 66h-1
q-26 -33 -55 -65.5t-59.5 -58t-61.5 -41t-62 -15.5zM141 48q16 0 46 21t64 58t67 87t56 109l36 94q6 15 4.5 26.5t-8 19t-16.5 11t-20 3.5q-27 0 -56.5 -16t-58 -44t-55 -65t-46 -78t-31.5 -84.5t-12 -84.5q0 -23 6.5 -40t23.5 -17zM585 662q-23 0 -40 16t-17 42
q0 25 17 41.5t40 16.5q25 0 41.5 -16.5t16.5 -41.5q0 -26 -16.5 -42t-41.5 -16zM350 662q-23 0 -40 16t-17 42q0 25 17 41.5t40 16.5q25 0 41.5 -16.5t16.5 -41.5q0 -26 -16.5 -42t-41.5 -16z" />
    <glyph glyph-name="aring" unicode="&#xe5;" horiz-adv-x="565" 
d="M80 -13q-42 0 -61.5 28t-19.5 66q0 43 19 92.5t51 98t73 93t84.5 78.5t86.5 54.5t78 20.5q44 0 73 -16l72 32l6 -4l-156 -417q-11 -29 -14 -45t9 -16q11 0 28 12t37 31.5t41 45t39 53.5l27 -16q-61 -94 -120 -142.5t-107 -48.5q-46 0 -49 28t18 86l24 66h-1
q-26 -33 -55 -65.5t-59.5 -58t-61.5 -41t-62 -15.5zM141 48q16 0 46 21t64 58t67 87t56 109l36 94q6 15 4.5 26.5t-8 19t-16.5 11t-20 3.5q-27 0 -56.5 -16t-58 -44t-55 -65t-46 -78t-31.5 -84.5t-12 -84.5q0 -23 6.5 -40t23.5 -17zM339 706q0 25 9.5 46.5t26.5 38t39 26
t48 9.5t49 -9.5t40 -26t26.5 -38t9.5 -46.5t-9.5 -46.5t-26.5 -37.5t-40 -25t-49 -9t-48 9t-39 25t-26.5 37.5t-9.5 46.5zM532 706q0 32 -18.5 51t-51.5 19q-32 0 -50 -19t-18 -51t18 -51t50 -19q33 0 51.5 19t18.5 51z" />
    <glyph glyph-name="ae" unicode="&#xe6;" horiz-adv-x="715" 
d="M94 -13q-44 0 -70 25t-26 76q0 45 20.5 94t59 97t93.5 91t125 76t153.5 52.5t177.5 19.5q46 0 71 -21t25 -56q0 -44 -21.5 -73t-48.5 -48q-22 -6 -52 -14t-62.5 -15.5t-65.5 -15t-61 -13.5q-7 -26 -11 -54.5t-4 -57.5q0 -45 15 -73.5t52 -28.5q41 0 79 35.5t76 95.5
l26 -18q-23 -36 -47.5 -67.5t-52 -55.5t-60 -37.5t-69.5 -13.5q-26 0 -49 8.5t-40 25t-27 40.5t-10 55q-51 -66 -100 -97.5t-96 -31.5zM603 483q-23 0 -48.5 -14.5t-50 -40t-46 -60.5t-36.5 -77q22 5 43 10.5t38 11.5q40 13 66.5 29t42.5 33.5t22 35t6 34.5t-9.5 27.5
t-27.5 10.5zM110 105q0 -29 8.5 -43t28.5 -14q10 0 25 5t33.5 18.5t41 37t48.5 59.5q8 43 28 87.5t48.5 86t63.5 76.5t73 59q-96 -13 -170 -49t-124.5 -87t-77 -112t-26.5 -124z" />
    <glyph glyph-name="ccedilla" unicode="&#xe7;" horiz-adv-x="433" 
d="M143 -13q-26 0 -49 8.5t-40 25.5t-27 42t-10 57q0 38 13.5 82.5t37.5 88.5t56.5 85t71 72.5t80 50.5t84.5 19q36 0 62.5 -16t26.5 -45q0 -22 -14 -38t-34 -16q-21 26 -47 42t-57 16q-35 0 -66.5 -26t-55 -69.5t-37.5 -99.5t-14 -116q0 -45 15 -73.5t52 -28.5
q41 0 79 35.5t76 95.5l26 -18q-23 -36 -47.5 -67.5t-52 -55.5t-60 -37.5t-69.5 -13.5zM27 -260q-43 0 -66 18.5t-23 40.5q0 18 15.5 29t39.5 4q2 -32 17.5 -47.5t41.5 -15.5q18 0 30 7.5t12 22.5q0 16 -24 38t-64 49l145 114h43l-102 -81q29 -19 45.5 -40t16.5 -44
q0 -16 -9 -32.5t-25.5 -30.5t-40 -23t-52.5 -9z" />
    <glyph glyph-name="egrave" unicode="&#xe8;" horiz-adv-x="442" 
d="M143 -13q-26 0 -49 8.5t-40 25.5t-27 42t-10 57q0 42 14.5 87.5t39.5 90t58.5 84.5t71 70t77 48t76.5 18q46 0 71 -21t25 -56q0 -44 -21.5 -73t-48.5 -48q-22 -6 -52 -14t-62.5 -15.5t-65.5 -15t-61 -13.5q-7 -26 -11 -54.5t-4 -57.5q0 -45 15 -73.5t52 -28.5
q41 0 79 35.5t76 95.5l26 -18q-23 -36 -47.5 -67.5t-52 -55.5t-60 -37.5t-69.5 -13.5zM330 483q-23 0 -48.5 -14.5t-50 -40t-46 -60.5t-36.5 -77q22 5 43 10.5t38 11.5q40 13 66.5 29t42.5 33.5t22 35t6 34.5t-9.5 27.5t-27.5 10.5zM369 609l-146 176l1 3h116l43 -179h-14z
" />
    <glyph glyph-name="eacute" unicode="&#xe9;" horiz-adv-x="442" 
d="M143 -13q-26 0 -49 8.5t-40 25.5t-27 42t-10 57q0 42 14.5 87.5t39.5 90t58.5 84.5t71 70t77 48t76.5 18q46 0 71 -21t25 -56q0 -44 -21.5 -73t-48.5 -48q-22 -6 -52 -14t-62.5 -15.5t-65.5 -15t-61 -13.5q-7 -26 -11 -54.5t-4 -57.5q0 -45 15 -73.5t52 -28.5
q41 0 79 35.5t76 95.5l26 -18q-23 -36 -47.5 -67.5t-52 -55.5t-60 -37.5t-69.5 -13.5zM330 483q-23 0 -48.5 -14.5t-50 -40t-46 -60.5t-36.5 -77q22 5 43 10.5t38 11.5q40 13 66.5 29t42.5 33.5t22 35t6 34.5t-9.5 27.5t-27.5 10.5zM496 788h139l-1 -3l-268 -176h-19z" />
    <glyph glyph-name="ecircumflex" unicode="&#xea;" horiz-adv-x="442" 
d="M143 -13q-26 0 -49 8.5t-40 25.5t-27 42t-10 57q0 42 14.5 87.5t39.5 90t58.5 84.5t71 70t77 48t76.5 18q46 0 71 -21t25 -56q0 -44 -21.5 -73t-48.5 -48q-22 -6 -52 -14t-62.5 -15.5t-65.5 -15t-61 -13.5q-7 -26 -11 -54.5t-4 -57.5q0 -45 15 -73.5t52 -28.5
q41 0 79 35.5t76 95.5l26 -18q-23 -36 -47.5 -67.5t-52 -55.5t-60 -37.5t-69.5 -13.5zM330 483q-23 0 -48.5 -14.5t-50 -40t-46 -60.5t-36.5 -77q22 5 43 10.5t38 11.5q40 13 66.5 29t42.5 33.5t22 35t6 34.5t-9.5 27.5t-27.5 10.5zM530 609h-17l-87 96l-201 -96h-23
l243 197h12z" />
    <glyph glyph-name="edieresis" unicode="&#xeb;" horiz-adv-x="442" 
d="M143 -13q-26 0 -49 8.5t-40 25.5t-27 42t-10 57q0 42 14.5 87.5t39.5 90t58.5 84.5t71 70t77 48t76.5 18q46 0 71 -21t25 -56q0 -44 -21.5 -73t-48.5 -48q-22 -6 -52 -14t-62.5 -15.5t-65.5 -15t-61 -13.5q-7 -26 -11 -54.5t-4 -57.5q0 -45 15 -73.5t52 -28.5
q41 0 79 35.5t76 95.5l26 -18q-23 -36 -47.5 -67.5t-52 -55.5t-60 -37.5t-69.5 -13.5zM330 483q-23 0 -48.5 -14.5t-50 -40t-46 -60.5t-36.5 -77q22 5 43 10.5t38 11.5q40 13 66.5 29t42.5 33.5t22 35t6 34.5t-9.5 27.5t-27.5 10.5zM533 662q-23 0 -40 16t-17 42
q0 25 17 41.5t40 16.5q25 0 41.5 -16.5t16.5 -41.5q0 -26 -16.5 -42t-41.5 -16zM298 662q-23 0 -40 16t-17 42q0 25 17 41.5t40 16.5q25 0 41.5 -16.5t16.5 -41.5q0 -26 -16.5 -42t-41.5 -16z" />
    <glyph glyph-name="igrave" unicode="&#xec;" horiz-adv-x="337" 
d="M92 -13q-46 0 -54 27.5t15 84.5l124 310q7 17 2 20.5t-31 -0.5l-63 -9l-3 27l221 68l6 -6l-157 -396q-11 -29 -14 -45t9 -16q11 0 28 12t37 31.5t41 45t39 53.5l27 -16q-61 -94 -120 -142.5t-107 -48.5zM289 609l-146 176l1 3h116l43 -179h-14z" />
    <glyph glyph-name="iacute" unicode="&#xed;" horiz-adv-x="337" 
d="M92 -13q-46 0 -54 27.5t15 84.5l124 310q7 17 2 20.5t-31 -0.5l-63 -9l-3 27l221 68l6 -6l-157 -396q-11 -29 -14 -45t9 -16q11 0 28 12t37 31.5t41 45t39 53.5l27 -16q-61 -94 -120 -142.5t-107 -48.5zM416 788h139l-1 -3l-268 -176h-19z" />
    <glyph glyph-name="icircumflex" unicode="&#xee;" horiz-adv-x="337" 
d="M92 -13q-46 0 -54 27.5t15 84.5l124 310q7 17 2 20.5t-31 -0.5l-63 -9l-3 27l221 68l6 -6l-157 -396q-11 -29 -14 -45t9 -16q11 0 28 12t37 31.5t41 45t39 53.5l27 -16q-61 -94 -120 -142.5t-107 -48.5zM450 609h-17l-87 96l-201 -96h-23l243 197h12z" />
    <glyph glyph-name="idieresis" unicode="&#xef;" horiz-adv-x="337" 
d="M92 -13q-46 0 -54 27.5t15 84.5l124 310q7 17 2 20.5t-31 -0.5l-63 -9l-3 27l221 68l6 -6l-157 -396q-11 -29 -14 -45t9 -16q11 0 28 12t37 31.5t41 45t39 53.5l27 -16q-61 -94 -120 -142.5t-107 -48.5zM430 647q-23 0 -40 16t-17 42q0 25 17 41.5t40 16.5
q25 0 41.5 -16.5t16.5 -41.5q0 -26 -16.5 -42t-41.5 -16zM230 647q-23 0 -40 16t-17 42q0 25 17 41.5t40 16.5q25 0 41.5 -16.5t16.5 -41.5q0 -26 -16.5 -42t-41.5 -16z" />
    <glyph glyph-name="eth" unicode="&#xf0;" horiz-adv-x="533" 
d="M163 -13q-69 0 -106 33.5t-37 93.5q0 40 16 85.5t42.5 90.5t62 86.5t74 73t78 50t74.5 18.5q8 0 13.5 -0.5t9.5 -1.5q-12 39 -31.5 75t-45.5 67l-138 -58l-17 40l123 52q-47 46 -112 75l15 30q41 -14 80 -34t74 -46l144 61l17 -41l-123 -52q62 -57 100 -129.5t38 -156.5
q0 -89 -34 -164t-86 -130.5t-114 -86.5t-117 -31zM125 110q0 -45 13.5 -65t43.5 -20q32 0 61.5 17.5t55 47t46 67t34.5 78.5t22 82t8 76q0 14 -1 28t-3 28q-9 31 -49 31q-30 0 -59 -18t-54.5 -47.5t-47 -68.5t-37 -80t-24.5 -81.5t-9 -74.5z" />
    <glyph glyph-name="ntilde" unicode="&#xf1;" horiz-adv-x="619" 
d="M176 409q7 17 2 20.5t-31 -0.5l-63 -9l-3 27l221 68l6 -6l-71 -174h1q78 91 139.5 137t119.5 46q55 0 61 -44.5t-26 -124.5l-96 -236q-12 -29 -14.5 -45t9.5 -16q11 0 28 12t37 31.5t41 45t39 53.5l27 -16q-61 -94 -120 -142.5t-107 -48.5q-46 0 -54.5 27t14.5 85l96 236
q25 62 26 91t-25 29q-22 0 -58 -24t-75 -65.5t-75 -97.5t-58 -120l-48 -139l-106 -20zM268 647q13 67 43 104.5t78 37.5q24 0 45 -11t40.5 -24.5t39 -24.5t40.5 -11q23 0 41.5 13t28.5 55h23q-11 -76 -38.5 -106.5t-72.5 -30.5q-26 0 -46.5 11t-39 23.5t-36.5 23.5t-40 11
q-29 0 -51.5 -14.5t-33.5 -56.5h-21z" />
    <glyph glyph-name="ograve" unicode="&#xf2;" horiz-adv-x="530" 
d="M173 -13q-42 0 -70.5 14t-46.5 36t-25.5 48.5t-7.5 52.5q0 46 15 91.5t40.5 88t59.5 79t71.5 63.5t76 42.5t74.5 15.5q42 0 70.5 -14t46.5 -36t25.5 -49t7.5 -52q0 -45 -15 -91t-40.5 -88.5t-59.5 -79t-71.5 -63.5t-76 -42.5t-74.5 -15.5zM196 27q33 0 61 18.5t51 49
t41 68.5t30.5 77t19 74.5t6.5 61.5q0 54 -17 78t-51 24q-32 0 -60.5 -18.5t-51.5 -49t-41 -68.5t-30.5 -77t-19 -74.5t-6.5 -61.5q0 -54 17 -78t51 -24zM386 609l-146 176l1 3h116l43 -179h-14z" />
    <glyph glyph-name="oacute" unicode="&#xf3;" horiz-adv-x="530" 
d="M173 -13q-42 0 -70.5 14t-46.5 36t-25.5 48.5t-7.5 52.5q0 46 15 91.5t40.5 88t59.5 79t71.5 63.5t76 42.5t74.5 15.5q42 0 70.5 -14t46.5 -36t25.5 -49t7.5 -52q0 -45 -15 -91t-40.5 -88.5t-59.5 -79t-71.5 -63.5t-76 -42.5t-74.5 -15.5zM196 27q33 0 61 18.5t51 49
t41 68.5t30.5 77t19 74.5t6.5 61.5q0 54 -17 78t-51 24q-32 0 -60.5 -18.5t-51.5 -49t-41 -68.5t-30.5 -77t-19 -74.5t-6.5 -61.5q0 -54 17 -78t51 -24zM513 788h139l-1 -3l-268 -176h-19z" />
    <glyph glyph-name="ocircumflex" unicode="&#xf4;" horiz-adv-x="530" 
d="M173 -13q-42 0 -70.5 14t-46.5 36t-25.5 48.5t-7.5 52.5q0 46 15 91.5t40.5 88t59.5 79t71.5 63.5t76 42.5t74.5 15.5q42 0 70.5 -14t46.5 -36t25.5 -49t7.5 -52q0 -45 -15 -91t-40.5 -88.5t-59.5 -79t-71.5 -63.5t-76 -42.5t-74.5 -15.5zM196 27q33 0 61 18.5t51 49
t41 68.5t30.5 77t19 74.5t6.5 61.5q0 54 -17 78t-51 24q-32 0 -60.5 -18.5t-51.5 -49t-41 -68.5t-30.5 -77t-19 -74.5t-6.5 -61.5q0 -54 17 -78t51 -24zM547 609h-17l-87 96l-201 -96h-23l243 197h12z" />
    <glyph glyph-name="otilde" unicode="&#xf5;" horiz-adv-x="530" 
d="M173 -13q-42 0 -70.5 14t-46.5 36t-25.5 48.5t-7.5 52.5q0 46 15 91.5t40.5 88t59.5 79t71.5 63.5t76 42.5t74.5 15.5q42 0 70.5 -14t46.5 -36t25.5 -49t7.5 -52q0 -45 -15 -91t-40.5 -88.5t-59.5 -79t-71.5 -63.5t-76 -42.5t-74.5 -15.5zM196 27q33 0 61 18.5t51 49
t41 68.5t30.5 77t19 74.5t6.5 61.5q0 54 -17 78t-51 24q-32 0 -60.5 -18.5t-51.5 -49t-41 -68.5t-30.5 -77t-19 -74.5t-6.5 -61.5q0 -54 17 -78t51 -24zM234 647q13 67 43 104.5t78 37.5q24 0 45 -11t40.5 -24.5t39 -24.5t40.5 -11q23 0 41.5 13t28.5 55h23
q-11 -76 -38.5 -106.5t-72.5 -30.5q-26 0 -46.5 11t-39 23.5t-36.5 23.5t-40 11q-29 0 -51.5 -14.5t-33.5 -56.5h-21z" />
    <glyph glyph-name="odieresis" unicode="&#xf6;" horiz-adv-x="530" 
d="M173 -13q-42 0 -70.5 14t-46.5 36t-25.5 48.5t-7.5 52.5q0 46 15 91.5t40.5 88t59.5 79t71.5 63.5t76 42.5t74.5 15.5q42 0 70.5 -14t46.5 -36t25.5 -49t7.5 -52q0 -45 -15 -91t-40.5 -88.5t-59.5 -79t-71.5 -63.5t-76 -42.5t-74.5 -15.5zM196 27q33 0 61 18.5t51 49
t41 68.5t30.5 77t19 74.5t6.5 61.5q0 54 -17 78t-51 24q-32 0 -60.5 -18.5t-51.5 -49t-41 -68.5t-30.5 -77t-19 -74.5t-6.5 -61.5q0 -54 17 -78t51 -24zM550 662q-23 0 -40 16t-17 42q0 25 17 41.5t40 16.5q25 0 41.5 -16.5t16.5 -41.5q0 -26 -16.5 -42t-41.5 -16zM315 662
q-23 0 -40 16t-17 42q0 25 17 41.5t40 16.5q25 0 41.5 -16.5t16.5 -41.5q0 -26 -16.5 -42t-41.5 -16z" />
    <glyph glyph-name="divide" unicode="&#xf7;" horiz-adv-x="653" 
d="M331 373q-32 0 -55 23t-23 55q0 16 6 30t16.5 24.5t25 16.5t30.5 6q32 0 54.5 -22.5t22.5 -54.5q0 -16 -6 -30.5t-16.5 -25t-24.5 -16.5t-30 -6zM67 295h527v-65h-527v65zM331 -3q-32 0 -55 23t-23 55q0 16 6 30t16.5 24.5t25 16.5t30.5 6q32 0 54.5 -22.5t22.5 -54.5
q0 -16 -6 -30.5t-16.5 -25t-24.5 -16.5t-30 -6z" />
    <glyph glyph-name="oslash" unicode="&#xf8;" horiz-adv-x="570" 
d="M193 -13q-42 0 -70.5 14t-46.5 36t-25.5 48.5t-7.5 52.5q0 46 15 91.5t40.5 88t59.5 79t71.5 63.5t76 42.5t74.5 15.5q42 0 70.5 -14t46.5 -36t25.5 -49t7.5 -52q0 -45 -15 -91t-40.5 -88.5t-59.5 -79t-71.5 -63.5t-76 -42.5t-74.5 -15.5zM216 27q33 0 61 18.5t51 49
t41 68.5t30.5 77t19 74.5t6.5 61.5q0 54 -17 78t-51 24q-32 0 -60.5 -18.5t-51.5 -49t-41 -68.5t-30.5 -77t-19 -74.5t-6.5 -61.5q0 -54 17 -78t51 -24zM-68 -12l678 561l27 -32l-679 -561z" />
    <glyph glyph-name="ugrave" unicode="&#xf9;" horiz-adv-x="615" 
d="M367 170h-2q-76 -90 -139 -136.5t-121 -46.5q-55 0 -61 44.5t26 124.5l104 253q7 17 2 20.5t-31 -0.5l-63 -9l-3 27l223 68l6 -6l-138 -339q-25 -62 -26 -91t25 -29q23 0 59.5 24.5t76 68.5t77.5 106t63 137l38 110l106 20l-155 -403q-11 -29 -14 -45t9 -16q11 0 28 12
t37 31.5t41 45t39 53.5l27 -16q-61 -94 -120 -142.5t-107 -48.5q-46 0 -50 27t17 85zM426 609l-146 176l1 3h116l43 -179h-14z" />
    <glyph glyph-name="uacute" unicode="&#xfa;" horiz-adv-x="615" 
d="M367 170h-2q-76 -90 -139 -136.5t-121 -46.5q-55 0 -61 44.5t26 124.5l104 253q7 17 2 20.5t-31 -0.5l-63 -9l-3 27l223 68l6 -6l-138 -339q-25 -62 -26 -91t25 -29q23 0 59.5 24.5t76 68.5t77.5 106t63 137l38 110l106 20l-155 -403q-11 -29 -14 -45t9 -16q11 0 28 12
t37 31.5t41 45t39 53.5l27 -16q-61 -94 -120 -142.5t-107 -48.5q-46 0 -50 27t17 85zM553 788h139l-1 -3l-268 -176h-19z" />
    <glyph glyph-name="ucircumflex" unicode="&#xfb;" horiz-adv-x="615" 
d="M367 170h-2q-76 -90 -139 -136.5t-121 -46.5q-55 0 -61 44.5t26 124.5l104 253q7 17 2 20.5t-31 -0.5l-63 -9l-3 27l223 68l6 -6l-138 -339q-25 -62 -26 -91t25 -29q23 0 59.5 24.5t76 68.5t77.5 106t63 137l38 110l106 20l-155 -403q-11 -29 -14 -45t9 -16q11 0 28 12
t37 31.5t41 45t39 53.5l27 -16q-61 -94 -120 -142.5t-107 -48.5q-46 0 -50 27t17 85zM587 609h-17l-87 96l-201 -96h-23l243 197h12z" />
    <glyph glyph-name="udieresis" unicode="&#xfc;" horiz-adv-x="615" 
d="M367 170h-2q-76 -90 -139 -136.5t-121 -46.5q-55 0 -61 44.5t26 124.5l104 253q7 17 2 20.5t-31 -0.5l-63 -9l-3 27l223 68l6 -6l-138 -339q-25 -62 -26 -91t25 -29q23 0 59.5 24.5t76 68.5t77.5 106t63 137l38 110l106 20l-155 -403q-11 -29 -14 -45t9 -16q11 0 28 12
t37 31.5t41 45t39 53.5l27 -16q-61 -94 -120 -142.5t-107 -48.5q-46 0 -50 27t17 85zM590 662q-23 0 -40 16t-17 42q0 25 17 41.5t40 16.5q25 0 41.5 -16.5t16.5 -41.5q0 -26 -16.5 -42t-41.5 -16zM355 662q-23 0 -40 16t-17 42q0 25 17 41.5t40 16.5q25 0 41.5 -16.5
t16.5 -41.5q0 -26 -16.5 -42t-41.5 -16z" />
    <glyph glyph-name="yacute" unicode="&#xfd;" horiz-adv-x="547" 
d="M250 128l151 209q37 52 63 86.5t46 55.5t36 30t33 9q18 0 30.5 -12t12.5 -32q0 -12 -3.5 -22.5t-10.5 -15.5q-30 -9 -53 -18.5t-44.5 -24.5t-43.5 -39t-50 -63l-198 -279q-18 -24 -39 -53t-44.5 -57.5t-48 -55.5t-48.5 -48q-44 -39 -70 -52t-52 -13q-25 0 -35.5 12.5
t-10.5 28.5q0 17 6.5 29t17.5 16q15 -1 32 -1t33 2t30 5.5t22 9.5q39 26 76 69.5t73 100.5l-1 401q0 23 -5.5 26.5t-23.5 0.5l-60 -13l-6 26l182 72l6 -6zM538 788h139l-1 -3l-268 -176h-19z" />
    <glyph glyph-name="thorn" unicode="&#xfe;" horiz-adv-x="540" 
d="M7 -248h-90l319 937q7 20 6 26t-14 12l-64 31l2 6l209 66l-146 -428h1q20 22 43.5 43t48.5 37t50 26t49 10q62 0 87.5 -34.5t23.5 -88.5q-2 -44 -19 -91t-44 -92.5t-62.5 -86t-74 -71.5t-78 -49t-75.5 -18q-25 0 -48 5.5t-37 13.5zM186 24q47 0 89 34.5t74 86.5t52 112.5
t23 111.5q2 44 -12 68t-43 24q-33 0 -74 -28t-81 -76l-86 -251q-7 -20 -4.5 -35t11 -25.5t22 -16t29.5 -5.5z" />
    <glyph glyph-name="ydieresis" unicode="&#xff;" horiz-adv-x="547" 
d="M250 128l151 209q37 52 63 86.5t46 55.5t36 30t33 9q18 0 30.5 -12t12.5 -32q0 -12 -3.5 -22.5t-10.5 -15.5q-30 -9 -53 -18.5t-44.5 -24.5t-43.5 -39t-50 -63l-198 -279q-18 -24 -39 -53t-44.5 -57.5t-48 -55.5t-48.5 -48q-44 -39 -70 -52t-52 -13q-25 0 -35.5 12.5
t-10.5 28.5q0 17 6.5 29t17.5 16q15 -1 32 -1t33 2t30 5.5t22 9.5q39 26 76 69.5t73 100.5l-1 401q0 23 -5.5 26.5t-23.5 0.5l-60 -13l-6 26l182 72l6 -6zM575 662q-23 0 -40 16t-17 42q0 25 17 41.5t40 16.5q25 0 41.5 -16.5t16.5 -41.5q0 -26 -16.5 -42t-41.5 -16z
M340 662q-23 0 -40 16t-17 42q0 25 17 41.5t40 16.5q25 0 41.5 -16.5t16.5 -41.5q0 -26 -16.5 -42t-41.5 -16z" />
    <glyph glyph-name="Abreve" unicode="&#x102;" horiz-adv-x="749" 
d="M-95 35l38 2q15 1 28 7t27.5 19t31 33t38.5 49l479 636h36l27 -720q1 -15 8 -18t33 -5l33 -3l-10 -35h-276l10 35l48 3q28 1 38 6t9 29l-6 197h-269l-93 -127q-23 -31 -36 -51t-15.5 -32t5.5 -17t27 -6l44 -2l-10 -35h-255zM495 319l-9 301l-222 -301h231zM576 830
q-34 0 -62 10.5t-47 30.5t-25.5 50t2.5 69h54q-13 -53 9.5 -82.5t71.5 -29.5q22 0 42.5 4.5t38 17t31.5 34.5t23 56h56q-12 -48 -33 -79t-47 -49t-55.5 -25t-58.5 -7z" />
    <glyph glyph-name="Amacron" unicode="&#x100;" horiz-adv-x="749" 
d="M-95 35l38 2q15 1 28 7t27.5 19t31 33t38.5 49l479 636h36l27 -720q1 -15 8 -18t33 -5l33 -3l-10 -35h-276l10 35l48 3q28 1 38 6t9 29l-6 197h-269l-93 -127q-23 -31 -36 -51t-15.5 -32t5.5 -17t27 -6l44 -2l-10 -35h-255zM495 319l-9 301l-222 -301h231zM442 939h294
l-20 -65h-294z" />
    <glyph glyph-name="Aogonek" unicode="&#x104;" horiz-adv-x="749" 
d="M-95 35l38 2q15 1 28 7t27.5 19t31 33t38.5 49l479 636h36l27 -720q1 -15 8 -18t33 -5l33 -3l-10 -35h-276l10 35l48 3q28 1 38 6t9 29l-6 197h-269l-93 -127q-23 -31 -36 -51t-15.5 -32t5.5 -17t27 -6l44 -2l-10 -35h-255zM495 319l-9 301l-222 -301h231zM589 -208
q-18 -9 -44 -17.5t-58 -8.5q-43 0 -67.5 20.5t-24.5 52.5q0 24 16 46.5t41 43t54 38.5t55 33h41q-20 -14 -41.5 -30t-39 -33.5t-28.5 -36.5t-11 -38q0 -31 26.5 -43t88.5 1z" />
    <glyph glyph-name="Cacute" unicode="&#x106;" horiz-adv-x="785" 
d="M401 -13q-68 0 -126.5 19.5t-101.5 58.5t-68 97t-25 135q0 99 44.5 186.5t118.5 153t168.5 104t195.5 38.5q57 0 115.5 -8t96.5 -23l-10 -186h-27l-32 105q-7 22 -20 35.5t-32 20.5t-42 9t-49 2q-79 0 -153 -32.5t-131.5 -92.5t-92.5 -144.5t-35 -188.5
q0 -63 17.5 -109.5t48.5 -76.5t74 -44.5t94 -14.5q34 0 58.5 5t45.5 15.5t41 27t45 39.5l102 93h27l-97 -176q-49 -17 -110.5 -32.5t-139.5 -15.5zM895 969l-282 -126h-23l138 129h168z" />
    <glyph glyph-name="Ccaron" unicode="&#x10c;" horiz-adv-x="785" 
d="M401 -13q-68 0 -126.5 19.5t-101.5 58.5t-68 97t-25 135q0 99 44.5 186.5t118.5 153t168.5 104t195.5 38.5q57 0 115.5 -8t96.5 -23l-10 -186h-27l-32 105q-7 22 -20 35.5t-32 20.5t-42 9t-49 2q-79 0 -153 -32.5t-131.5 -92.5t-92.5 -144.5t-35 -188.5
q0 -63 17.5 -109.5t48.5 -76.5t74 -44.5t94 -14.5q34 0 58.5 5t45.5 15.5t41 27t45 39.5l102 93h27l-97 -176q-49 -17 -110.5 -32.5t-139.5 -15.5zM625 833l-97 149h20l103 -66l194 66h29l-233 -149h-16z" />
    <glyph glyph-name="Ccircumflex" unicode="&#x108;" horiz-adv-x="785" 
d="M401 -13q-68 0 -126.5 19.5t-101.5 58.5t-68 97t-25 135q0 99 44.5 186.5t118.5 153t168.5 104t195.5 38.5q57 0 115.5 -8t96.5 -23l-10 -186h-27l-32 105q-7 22 -20 35.5t-32 20.5t-42 9t-49 2q-79 0 -153 -32.5t-131.5 -92.5t-92.5 -144.5t-35 -188.5
q0 -63 17.5 -109.5t48.5 -76.5t74 -44.5t94 -14.5q34 0 58.5 5t45.5 15.5t41 27t45 39.5l102 93h27l-97 -176q-49 -17 -110.5 -32.5t-139.5 -15.5zM701 982l97 -149h-20l-103 66l-194 -66h-29l233 149h16z" />
    <glyph glyph-name="Cdotaccent" unicode="&#x10a;" horiz-adv-x="785" 
d="M401 -13q-68 0 -126.5 19.5t-101.5 58.5t-68 97t-25 135q0 99 44.5 186.5t118.5 153t168.5 104t195.5 38.5q57 0 115.5 -8t96.5 -23l-10 -186h-27l-32 105q-7 22 -20 35.5t-32 20.5t-42 9t-49 2q-79 0 -153 -32.5t-131.5 -92.5t-92.5 -144.5t-35 -188.5
q0 -63 17.5 -109.5t48.5 -76.5t74 -44.5t94 -14.5q34 0 58.5 5t45.5 15.5t41 27t45 39.5l102 93h27l-97 -176q-49 -17 -110.5 -32.5t-139.5 -15.5zM651 846q-26 0 -43 17t-17 43q0 27 17 44.5t43 17.5t43 -17.5t17 -44.5q0 -26 -17 -43t-43 -17z" />
    <glyph glyph-name="Dcaron" unicode="&#x10e;" horiz-adv-x="868" 
d="M-11 35l36 2q21 1 33.5 4t20.5 10.5t13.5 21.5t13.5 38l164 536q7 24 10.5 38t0 21.5t-14.5 10.5t-31 4l-36 2l11 35h285q88 0 157.5 -21t118 -59t74.5 -91.5t26 -117.5q0 -87 -41 -171.5t-117 -150.5t-183.5 -106.5t-240.5 -40.5h-311zM308 38q115 0 198.5 39t137.5 103
t80 146t26 169q0 115 -69.5 170t-204.5 55q-29 0 -45.5 -1t-25 -3.5t-11.5 -7t-5 -11.5l-179 -585q-6 -22 -7 -36t6.5 -22.5t23 -12t42.5 -3.5h33zM588 833l-97 149h20l103 -66l194 66h29l-233 -149h-16z" />
    <glyph glyph-name="Dcroat" unicode="&#x110;" horiz-adv-x="868" 
d="M-11 35l36 2q21 1 33.5 4t20.5 10.5t13.5 21.5t13.5 38l164 536q7 24 10.5 38t0 21.5t-14.5 10.5t-31 4l-36 2l11 35h285q88 0 157.5 -21t118 -59t74.5 -91.5t26 -117.5q0 -87 -41 -171.5t-117 -150.5t-183.5 -106.5t-240.5 -40.5h-311zM308 38q115 0 198.5 39t137.5 103
t80 146t26 169q0 115 -69.5 170t-204.5 55q-29 0 -45.5 -1t-25 -3.5t-11.5 -7t-5 -11.5l-179 -585q-6 -22 -7 -36t6.5 -22.5t23 -12t42.5 -3.5h33zM104 410h375l-14 -48h-375z" />
    <glyph glyph-name="Ebreve" unicode="&#x114;" horiz-adv-x="710" 
d="M-11 35l36 2q21 1 33.5 4t20.5 10.5t13.5 21.5t13.5 38l164 536q7 24 10 38t-0.5 21.5t-14.5 10.5t-31 4l-35 2l11 35h242l291 2l-47 -181h-30v45q0 34 -6.5 53t-28 28t-62 11t-108.5 2h-46q-11 0 -16.5 -4.5t-9.5 -15.5l-88 -289h128q20 0 35.5 1.5t28.5 8.5t25.5 21.5
t27.5 40.5l21 39h30l-82 -268h-30l3 39q1 26 -2.5 40.5t-12.5 21.5t-23.5 8.5t-34.5 1.5h-128l-77 -251q-8 -26 -6.5 -40.5t11 -21.5t27.5 -8.5t43 -1.5h21q69 0 111.5 3.5t71 13t48.5 26t43 43.5l64 73h30l-112 -199h-584zM546 830q-34 0 -62 10.5t-47 30.5t-25.5 50
t2.5 69h54q-13 -53 9.5 -82.5t71.5 -29.5q22 0 42.5 4.5t38 17t31.5 34.5t23 56h56q-12 -48 -33 -79t-47 -49t-55.5 -25t-58.5 -7z" />
    <glyph glyph-name="Ecaron" unicode="&#x11a;" horiz-adv-x="710" 
d="M-11 35l36 2q21 1 33.5 4t20.5 10.5t13.5 21.5t13.5 38l164 536q7 24 10 38t-0.5 21.5t-14.5 10.5t-31 4l-35 2l11 35h242l291 2l-47 -181h-30v45q0 34 -6.5 53t-28 28t-62 11t-108.5 2h-46q-11 0 -16.5 -4.5t-9.5 -15.5l-88 -289h128q20 0 35.5 1.5t28.5 8.5t25.5 21.5
t27.5 40.5l21 39h30l-82 -268h-30l3 39q1 26 -2.5 40.5t-12.5 21.5t-23.5 8.5t-34.5 1.5h-128l-77 -251q-8 -26 -6.5 -40.5t11 -21.5t27.5 -8.5t43 -1.5h21q69 0 111.5 3.5t71 13t48.5 26t43 43.5l64 73h30l-112 -199h-584zM523 833l-97 149h20l103 -66l194 66h29l-233 -149
h-16z" />
    <glyph glyph-name="Emacron" unicode="&#x112;" horiz-adv-x="710" 
d="M-11 35l36 2q21 1 33.5 4t20.5 10.5t13.5 21.5t13.5 38l164 536q7 24 10 38t-0.5 21.5t-14.5 10.5t-31 4l-35 2l11 35h242l291 2l-47 -181h-30v45q0 34 -6.5 53t-28 28t-62 11t-108.5 2h-46q-11 0 -16.5 -4.5t-9.5 -15.5l-88 -289h128q20 0 35.5 1.5t28.5 8.5t25.5 21.5
t27.5 40.5l21 39h30l-82 -268h-30l3 39q1 26 -2.5 40.5t-12.5 21.5t-23.5 8.5t-34.5 1.5h-128l-77 -251q-8 -26 -6.5 -40.5t11 -21.5t27.5 -8.5t43 -1.5h21q69 0 111.5 3.5t71 13t48.5 26t43 43.5l64 73h30l-112 -199h-584zM412 939h294l-20 -65h-294z" />
    <glyph glyph-name="Eogonek" unicode="&#x118;" horiz-adv-x="710" 
d="M-11 35l36 2q21 1 33.5 4t20.5 10.5t13.5 21.5t13.5 38l164 536q7 24 10 38t-0.5 21.5t-14.5 10.5t-31 4l-35 2l11 35h242l291 2l-47 -181h-30v45q0 34 -6.5 53t-28 28t-62 11t-108.5 2h-46q-11 0 -16.5 -4.5t-9.5 -15.5l-88 -289h128q20 0 35.5 1.5t28.5 8.5t25.5 21.5
t27.5 40.5l21 39h30l-82 -268h-30l3 39q1 26 -2.5 40.5t-12.5 21.5t-23.5 8.5t-34.5 1.5h-128l-77 -251q-8 -26 -6.5 -40.5t11 -21.5t27.5 -8.5t43 -1.5h21q69 0 111.5 3.5t71 13t48.5 26t43 43.5l64 73h30l-112 -199h-584zM549 -208q-18 -9 -44 -17.5t-58 -8.5
q-43 0 -67.5 20.5t-24.5 52.5q0 24 16 46.5t41 43t54 38.5t55 33h41q-20 -14 -41.5 -30t-39 -33.5t-28.5 -36.5t-11 -38q0 -31 26.5 -43t88.5 1z" />
    <glyph glyph-name="Edotaccent" unicode="&#x116;" horiz-adv-x="710" 
d="M-11 35l36 2q21 1 33.5 4t20.5 10.5t13.5 21.5t13.5 38l164 536q7 24 10 38t-0.5 21.5t-14.5 10.5t-31 4l-35 2l11 35h242l291 2l-47 -181h-30v45q0 34 -6.5 53t-28 28t-62 11t-108.5 2h-46q-11 0 -16.5 -4.5t-9.5 -15.5l-88 -289h128q20 0 35.5 1.5t28.5 8.5t25.5 21.5
t27.5 40.5l21 39h30l-82 -268h-30l3 39q1 26 -2.5 40.5t-12.5 21.5t-23.5 8.5t-34.5 1.5h-128l-77 -251q-8 -26 -6.5 -40.5t11 -21.5t27.5 -8.5t43 -1.5h21q69 0 111.5 3.5t71 13t48.5 26t43 43.5l64 73h30l-112 -199h-584zM549 846q-26 0 -43 17t-17 43q0 27 17 44.5
t43 17.5t43 -17.5t17 -44.5q0 -26 -17 -43t-43 -17z" />
    <glyph glyph-name="Gbreve" unicode="&#x11e;" horiz-adv-x="833" 
d="M402 -13q-68 0 -126.5 19.5t-102 58.5t-68.5 97t-25 135q0 99 44.5 186.5t118.5 153t168.5 104t195.5 38.5q57 0 115.5 -8t96.5 -23l-10 -186h-27l-32 105q-7 22 -20 35.5t-32 20.5t-42 9t-49 2q-79 0 -153 -32.5t-131.5 -92.5t-92.5 -144.5t-35 -188.5
q0 -63 17.5 -109.5t48 -76.5t71.5 -44.5t88 -14.5q38 0 74.5 7.5t63.5 18.5l63 195q8 24 11 38.5t-0.5 22t-14.5 10t-32 3.5l-55 2l11 35h312l-11 -35l-37 -2q-21 -1 -33.5 -4t-20 -10.5t-13.5 -21.5t-13 -38l-45 -145l-16 -71q-28 -3 -58.5 -11.5t-63.5 -16.5t-68.5 -14.5
t-71.5 -6.5zM643 830q-34 0 -62 10.5t-47 30.5t-25.5 50t2.5 69h54q-13 -53 9.5 -82.5t71.5 -29.5q22 0 42.5 4.5t38 17t31.5 34.5t23 56h56q-12 -48 -33 -79t-47 -49t-55.5 -25t-58.5 -7z" />
    <glyph glyph-name="Gcircumflex" unicode="&#x11c;" horiz-adv-x="833" 
d="M402 -13q-68 0 -126.5 19.5t-102 58.5t-68.5 97t-25 135q0 99 44.5 186.5t118.5 153t168.5 104t195.5 38.5q57 0 115.5 -8t96.5 -23l-10 -186h-27l-32 105q-7 22 -20 35.5t-32 20.5t-42 9t-49 2q-79 0 -153 -32.5t-131.5 -92.5t-92.5 -144.5t-35 -188.5
q0 -63 17.5 -109.5t48 -76.5t71.5 -44.5t88 -14.5q38 0 74.5 7.5t63.5 18.5l63 195q8 24 11 38.5t-0.5 22t-14.5 10t-32 3.5l-55 2l11 35h312l-11 -35l-37 -2q-21 -1 -33.5 -4t-20 -10.5t-13.5 -21.5t-13 -38l-45 -145l-16 -71q-28 -3 -58.5 -11.5t-63.5 -16.5t-68.5 -14.5
t-71.5 -6.5zM696 982l97 -149h-20l-103 66l-194 -66h-29l233 149h16z" />
    <glyph glyph-name="uni0122" unicode="&#x122;" horiz-adv-x="833" 
d="M402 -13q-68 0 -126.5 19.5t-102 58.5t-68.5 97t-25 135q0 99 44.5 186.5t118.5 153t168.5 104t195.5 38.5q57 0 115.5 -8t96.5 -23l-10 -186h-27l-32 105q-7 22 -20 35.5t-32 20.5t-42 9t-49 2q-79 0 -153 -32.5t-131.5 -92.5t-92.5 -144.5t-35 -188.5
q0 -63 17.5 -109.5t48 -76.5t71.5 -44.5t88 -14.5q38 0 74.5 7.5t63.5 18.5l63 195q8 24 11 38.5t-0.5 22t-14.5 10t-32 3.5l-55 2l11 35h312l-11 -35l-37 -2q-21 -1 -33.5 -4t-20 -10.5t-13.5 -21.5t-13 -38l-45 -145l-16 -71q-28 -3 -58.5 -11.5t-63.5 -16.5t-68.5 -14.5
t-71.5 -6.5zM325 -91q42 0 67.5 -28t25.5 -67q0 -48 -45.5 -96.5t-150.5 -89.5l-11 22q65 30 99 64.5t34 68.5q0 30 -20.5 45.5t-54.5 25.5q0 26 16 40.5t40 14.5z" />
    <glyph glyph-name="Gdotaccent" unicode="&#x120;" horiz-adv-x="833" 
d="M402 -13q-68 0 -126.5 19.5t-102 58.5t-68.5 97t-25 135q0 99 44.5 186.5t118.5 153t168.5 104t195.5 38.5q57 0 115.5 -8t96.5 -23l-10 -186h-27l-32 105q-7 22 -20 35.5t-32 20.5t-42 9t-49 2q-79 0 -153 -32.5t-131.5 -92.5t-92.5 -144.5t-35 -188.5
q0 -63 17.5 -109.5t48 -76.5t71.5 -44.5t88 -14.5q38 0 74.5 7.5t63.5 18.5l63 195q8 24 11 38.5t-0.5 22t-14.5 10t-32 3.5l-55 2l11 35h312l-11 -35l-37 -2q-21 -1 -33.5 -4t-20 -10.5t-13.5 -21.5t-13 -38l-45 -145l-16 -71q-28 -3 -58.5 -11.5t-63.5 -16.5t-68.5 -14.5
t-71.5 -6.5zM646 846q-26 0 -43 17t-17 43q0 27 17 44.5t43 17.5t43 -17.5t17 -44.5q0 -26 -17 -43t-43 -17z" />
    <glyph glyph-name="Hbar" unicode="&#x126;" horiz-adv-x="925" 
d="M270 647q7 24 10.5 38t0 21.5t-14.5 10.5t-31 4l-36 2l11 35h292l-11 -35l-36 -2q-21 -1 -33.5 -4t-20.5 -10.5t-14 -21.5t-13 -38l-73 -238h420l73 238q7 24 10.5 38t0 21.5t-14.5 10.5t-31 4l-36 2l11 35h292l-11 -35l-36 -2q-21 -1 -33.5 -4t-20.5 -10.5t-14 -21.5
t-13 -38l-164 -536q-8 -24 -11 -38t0.5 -21.5t14.5 -10.5t31 -4l36 -2l-11 -35h-292l11 35l36 2q21 1 33.5 4t20.5 10.5t13.5 21.5t13.5 38l76 250h-420l-76 -250q-8 -24 -11 -38t0.5 -21.5t14.5 -10.5t31 -4l36 -2l-11 -35h-292l11 35l36 2q21 1 33.5 4t20.5 10.5
t13.5 21.5t13.5 38zM163 590h815l-15 -48h-815z" />
    <glyph glyph-name="Hcircumflex" unicode="&#x124;" horiz-adv-x="925" 
d="M270 647q7 24 10.5 38t0 21.5t-14.5 10.5t-31 4l-36 2l11 35h292l-11 -35l-36 -2q-21 -1 -33.5 -4t-20.5 -10.5t-14 -21.5t-13 -38l-73 -238h420l73 238q7 24 10.5 38t0 21.5t-14.5 10.5t-31 4l-36 2l11 35h292l-11 -35l-36 -2q-21 -1 -33.5 -4t-20.5 -10.5t-14 -21.5
t-13 -38l-164 -536q-8 -24 -11 -38t0.5 -21.5t14.5 -10.5t31 -4l36 -2l-11 -35h-292l11 35l36 2q21 1 33.5 4t20.5 10.5t13.5 21.5t13.5 38l76 250h-420l-76 -250q-8 -24 -11 -38t0.5 -21.5t14.5 -10.5t31 -4l36 -2l-11 -35h-292l11 35l36 2q21 1 33.5 4t20.5 10.5
t13.5 21.5t13.5 38zM714 982l97 -149h-20l-103 66l-194 -66h-29l233 149h16z" />
    <glyph glyph-name="Ibreve" unicode="&#x12c;" horiz-adv-x="401" 
d="M270 647q7 24 10.5 38t0 21.5t-14.5 10.5t-31 4l-36 2l11 35h292l-11 -35l-36 -2q-21 -1 -33.5 -4t-20.5 -10.5t-14 -21.5t-13 -38l-164 -536q-8 -24 -11 -38t0.5 -21.5t14.5 -10.5t31 -4l36 -2l-11 -35h-292l11 35l36 2q21 1 33.5 4t20.5 10.5t13.5 21.5t13.5 38z
M399 830q-34 0 -62 10.5t-47 30.5t-25.5 50t2.5 69h54q-13 -53 9.5 -82.5t71.5 -29.5q22 0 42.5 4.5t38 17t31.5 34.5t23 56h56q-12 -48 -33 -79t-47 -49t-55.5 -25t-58.5 -7z" />
    <glyph glyph-name="Idotaccent" unicode="&#x130;" horiz-adv-x="401" 
d="M270 647q7 24 10.5 38t0 21.5t-14.5 10.5t-31 4l-36 2l11 35h292l-11 -35l-36 -2q-21 -1 -33.5 -4t-20.5 -10.5t-14 -21.5t-13 -38l-164 -536q-8 -24 -11 -38t0.5 -21.5t14.5 -10.5t31 -4l36 -2l-11 -35h-292l11 35l36 2q21 1 33.5 4t20.5 10.5t13.5 21.5t13.5 38z
M402 846q-26 0 -43 17t-17 43q0 27 17 44.5t43 17.5t43 -17.5t17 -44.5q0 -26 -17 -43t-43 -17z" />
    <glyph glyph-name="Imacron" unicode="&#x12a;" horiz-adv-x="401" 
d="M270 647q7 24 10.5 38t0 21.5t-14.5 10.5t-31 4l-36 2l11 35h292l-11 -35l-36 -2q-21 -1 -33.5 -4t-20.5 -10.5t-14 -21.5t-13 -38l-164 -536q-8 -24 -11 -38t0.5 -21.5t14.5 -10.5t31 -4l36 -2l-11 -35h-292l11 35l36 2q21 1 33.5 4t20.5 10.5t13.5 21.5t13.5 38z
M265 939h294l-20 -65h-294z" />
    <glyph glyph-name="Iogonek" unicode="&#x12e;" horiz-adv-x="401" 
d="M270 647q7 24 10.5 38t0 21.5t-14.5 10.5t-31 4l-36 2l11 35h292l-11 -35l-36 -2q-21 -1 -33.5 -4t-20.5 -10.5t-14 -21.5t-13 -38l-164 -536q-8 -24 -11 -38t0.5 -21.5t14.5 -10.5t31 -4l36 -2l-11 -35h-292l11 35l36 2q21 1 33.5 4t20.5 10.5t13.5 21.5t13.5 38z
M166 -208q-18 -9 -44 -17.5t-58 -8.5q-43 0 -67.5 20.5t-24.5 52.5q0 24 16 46.5t41 43t54 38.5t55 33h41q-20 -14 -41.5 -30t-39 -33.5t-28.5 -36.5t-11 -38q0 -31 26.5 -43t88.5 1z" />
    <glyph glyph-name="Itilde" unicode="&#x128;" horiz-adv-x="401" 
d="M270 647q7 24 10.5 38t0 21.5t-14.5 10.5t-31 4l-36 2l11 35h292l-11 -35l-36 -2q-21 -1 -33.5 -4t-20.5 -10.5t-14 -21.5t-13 -38l-164 -536q-8 -24 -11 -38t0.5 -21.5t14.5 -10.5t31 -4l36 -2l-11 -35h-292l11 35l36 2q21 1 33.5 4t20.5 10.5t13.5 21.5t13.5 38z
M204 833q13 67 43 104.5t78 37.5q24 0 45 -11t40.5 -24.5t39 -24.5t40.5 -11q23 0 41.5 13t28.5 55h23q-11 -76 -38.5 -106.5t-72.5 -30.5q-26 0 -46.5 11t-39 23.5t-36.5 23.5t-40 11q-29 0 -51.5 -14.5t-33.5 -56.5h-21z" />
    <glyph glyph-name="uni1ECA" unicode="&#x1eca;" horiz-adv-x="401" 
d="M270 647q7 24 10.5 38t0 21.5t-14.5 10.5t-31 4l-36 2l11 35h292l-11 -35l-36 -2q-21 -1 -33.5 -4t-20.5 -10.5t-14 -21.5t-13 -38l-164 -536q-8 -24 -11 -38t0.5 -21.5t14.5 -10.5t31 -4l36 -2l-11 -35h-292l11 35l36 2q21 1 33.5 4t20.5 10.5t13.5 21.5t13.5 38z
M83 -244q-26 0 -43 17t-17 43q0 27 17 44.5t43 17.5t43 -17.5t17 -44.5q0 -26 -17 -43t-43 -17z" />
    <glyph glyph-name="Jcircumflex" unicode="&#x134;" horiz-adv-x="392" 
d="M-72 -73q43 31 75 55t56 51.5t43 64.5t37 94l139 455q7 24 10.5 38t0 21.5t-14.5 10.5t-31 4l-36 2l11 35h292l-11 -35l-36 -2q-21 -1 -33.5 -4t-20.5 -10.5t-14 -21.5t-13 -38l-133 -435q-11 -37 -21.5 -66t-24 -52t-30.5 -42.5t-42 -36.5q-17 -12 -39 -26t-47 -29.5
t-51 -31t-50 -28.5zM452 982l97 -149h-20l-103 66l-194 -66h-29l233 149h16z" />
    <glyph glyph-name="uni0136" unicode="&#x136;" horiz-adv-x="821" 
d="M352 351l-69 -2l-73 -238q-8 -24 -11 -38t0.5 -21.5t14.5 -10.5t31 -4l36 -2l-11 -35h-292l11 35l36 2q21 1 33.5 4t20.5 10.5t13.5 21.5t13.5 38l164 536q7 24 10.5 38t0 21.5t-14.5 10.5t-31 4l-36 2l11 35h292l-11 -35l-36 -2q-21 -1 -33.5 -4t-20.5 -10.5t-14 -21.5
t-13 -38l-82 -268q17 6 33.5 17t43.5 31l244 183q53 39 79 61t32.5 33t-2 13.5t-25.5 3.5l-40 2l11 35h273l-11 -35l-30 -2q-24 -2 -42.5 -6t-39 -14.5t-47.5 -29.5t-69 -50l-273 -198l218 -340q13 -20 29.5 -31.5t45.5 -13.5l35 -3l-11 -35h-177zM377 -91q42 0 67.5 -28
t25.5 -67q0 -48 -45.5 -96.5t-150.5 -89.5l-11 22q65 30 99 64.5t34 68.5q0 30 -20.5 45.5t-54.5 25.5q0 26 16 40.5t40 14.5z" />
    <glyph glyph-name="Lacute" unicode="&#x139;" horiz-adv-x="646" 
d="M-11 35l36 2q21 1 33.5 4t20.5 10.5t13.5 21.5t13.5 38l164 536q7 24 10.5 38t0 21.5t-14.5 10.5t-31 4l-36 2l11 35h292l-11 -35l-36 -2q-21 -1 -33.5 -4t-20.5 -10.5t-14 -21.5t-13 -38l-164 -535q-8 -26 -6.5 -40.5t11 -21.5t27.5 -8.5t43 -1.5q54 0 90.5 3.5t63.5 13
t48 26t44 43.5l63 73h27l-112 -199h-531zM646 969l-282 -126h-23l138 129h168z" />
    <glyph glyph-name="Lcaron" unicode="&#x13d;" horiz-adv-x="646" 
d="M-11 35l36 2q21 1 33.5 4t20.5 10.5t13.5 21.5t13.5 38l164 536q7 24 10.5 38t0 21.5t-14.5 10.5t-31 4l-36 2l11 35h292l-11 -35l-36 -2q-21 -1 -33.5 -4t-20.5 -10.5t-14 -21.5t-13 -38l-164 -535q-8 -26 -6.5 -40.5t11 -21.5t27.5 -8.5t43 -1.5q54 0 90.5 3.5t63.5 13
t48 26t44 43.5l63 73h27l-112 -199h-531zM626 789q42 0 67.5 -28t25.5 -67q0 -48 -45.5 -96.5t-150.5 -89.5l-11 22q65 30 99 64.5t34 68.5q0 30 -20.5 45.5t-54.5 25.5q0 26 16 40.5t40 14.5z" />
    <glyph glyph-name="uni013B" unicode="&#x13b;" horiz-adv-x="646" 
d="M-11 35l36 2q21 1 33.5 4t20.5 10.5t13.5 21.5t13.5 38l164 536q7 24 10.5 38t0 21.5t-14.5 10.5t-31 4l-36 2l11 35h292l-11 -35l-36 -2q-21 -1 -33.5 -4t-20.5 -10.5t-14 -21.5t-13 -38l-164 -535q-8 -26 -6.5 -40.5t11 -21.5t27.5 -8.5t43 -1.5q54 0 90.5 3.5t63.5 13
t48 26t44 43.5l63 73h27l-112 -199h-531zM242 -91q42 0 67.5 -28t25.5 -67q0 -48 -45.5 -96.5t-150.5 -89.5l-11 22q65 30 99 64.5t34 68.5q0 30 -20.5 45.5t-54.5 25.5q0 26 16 40.5t40 14.5z" />
    <glyph glyph-name="Ldot" unicode="&#x13f;" horiz-adv-x="646" 
d="M-11 35l36 2q21 1 33.5 4t20.5 10.5t13.5 21.5t13.5 38l164 536q7 24 10.5 38t0 21.5t-14.5 10.5t-31 4l-36 2l11 35h292l-11 -35l-36 -2q-21 -1 -33.5 -4t-20.5 -10.5t-14 -21.5t-13 -38l-164 -535q-8 -26 -6.5 -40.5t11 -21.5t27.5 -8.5t43 -1.5q54 0 90.5 3.5t63.5 13
t48 26t44 43.5l63 73h27l-112 -199h-531zM572 351q-26 0 -43 17t-17 43q0 27 17 44.5t43 17.5t43 -17.5t17 -44.5q0 -26 -17 -43t-43 -17z" />
    <glyph glyph-name="glyph223" horiz-adv-x="646" 
d="M-11 35l36 2q21 1 33.5 4t20.5 10.5t13.5 21.5t13.5 38l164 536q7 24 10.5 38t0 21.5t-14.5 10.5t-31 4l-36 2l11 35h292l-11 -35l-36 -2q-21 -1 -33.5 -4t-20.5 -10.5t-14 -21.5t-13 -38l-164 -535q-8 -26 -6.5 -40.5t11 -21.5t27.5 -8.5t43 -1.5q54 0 90.5 3.5t63.5 13
t48 26t44 43.5l63 73h27l-112 -199h-531zM572 351q-26 0 -43 17t-17 43q0 27 17 44.5t43 17.5t43 -17.5t17 -44.5q0 -26 -17 -43t-43 -17z" />
    <glyph glyph-name="Lslash" unicode="&#x141;" horiz-adv-x="646" 
d="M-11 35l36 2q21 1 33.5 4t20.5 10.5t13.5 21.5t13.5 38l164 536q7 24 10.5 38t0 21.5t-14.5 10.5t-31 4l-36 2l11 35h292l-11 -35l-36 -2q-21 -1 -33.5 -4t-20.5 -10.5t-14 -21.5t-13 -38l-164 -535q-8 -26 -6.5 -40.5t11 -21.5t27.5 -8.5t43 -1.5q54 0 90.5 3.5t63.5 13
t48 26t44 43.5l63 73h27l-112 -199h-531zM28 288l430 189l-18 -60l-430 -189z" />
    <glyph glyph-name="Eng" unicode="&#x14a;" horiz-adv-x="926" 
d="M605 -152q-17 -12 -39 -26t-47 -29.5t-51 -31t-50 -28.5l-13 24q43 31 76.5 55.5t60 53t47.5 65.5t38 94l13 44l-323 539l-118 -386q-20 -64 -30 -100.5t-9.5 -55t12 -23.5t35.5 -6l36 -2l-10 -35h-253l10 35l38 2q25 1 39.5 6t26 23.5t23.5 55t32 100.5l119 387
q18 60 -2.5 86t-85.5 28l10 35h155l364 -603l116 381q19 64 29.5 100.5t10.5 55t-11.5 23.5t-35.5 6l-36 2l10 35h253l-10 -35l-38 -2q-25 -1 -39.5 -6t-26.5 -23.5t-24.5 -55t-31.5 -100.5l-149 -491q-11 -37 -22 -66t-24.5 -52t-31.5 -42.5t-43 -36.5z" />
    <glyph glyph-name="Nacute" unicode="&#x143;" horiz-adv-x="926" 
d="M317 608l-118 -386q-20 -64 -30 -100.5t-9.5 -55t12 -23.5t35.5 -6l36 -2l-10 -35h-253l10 35l38 2q25 1 39.5 6t26 23.5t23.5 55t32 100.5l119 387q18 60 -2.5 86t-85.5 28l10 35h155l364 -603l116 381q19 64 29.5 100.5t10.5 55t-11.5 23.5t-35.5 6l-36 2l10 35h253
l-10 -35l-38 -2q-25 -1 -39.5 -6t-26.5 -23.5t-24.5 -55t-31.5 -100.5l-164 -539h-27zM891 969l-282 -126h-23l138 129h168z" />
    <glyph glyph-name="Ncaron" unicode="&#x147;" horiz-adv-x="926" 
d="M317 608l-118 -386q-20 -64 -30 -100.5t-9.5 -55t12 -23.5t35.5 -6l36 -2l-10 -35h-253l10 35l38 2q25 1 39.5 6t26 23.5t23.5 55t32 100.5l119 387q18 60 -2.5 86t-85.5 28l10 35h155l364 -603l116 381q19 64 29.5 100.5t10.5 55t-11.5 23.5t-35.5 6l-36 2l10 35h253
l-10 -35l-38 -2q-25 -1 -39.5 -6t-26.5 -23.5t-24.5 -55t-31.5 -100.5l-164 -539h-27zM621 833l-97 149h20l103 -66l194 66h29l-233 -149h-16z" />
    <glyph glyph-name="uni0145" unicode="&#x145;" horiz-adv-x="926" 
d="M317 608l-118 -386q-20 -64 -30 -100.5t-9.5 -55t12 -23.5t35.5 -6l36 -2l-10 -35h-253l10 35l38 2q25 1 39.5 6t26 23.5t23.5 55t32 100.5l119 387q18 60 -2.5 86t-85.5 28l10 35h155l364 -603l116 381q19 64 29.5 100.5t10.5 55t-11.5 23.5t-35.5 6l-36 2l10 35h253
l-10 -35l-38 -2q-25 -1 -39.5 -6t-26.5 -23.5t-24.5 -55t-31.5 -100.5l-164 -539h-27zM379 -91q42 0 67.5 -28t25.5 -67q0 -48 -45.5 -96.5t-150.5 -89.5l-11 22q65 30 99 64.5t34 68.5q0 30 -20.5 45.5t-54.5 25.5q0 26 16 40.5t40 14.5z" />
    <glyph glyph-name="OE" unicode="&#x152;" horiz-adv-x="1263" 
d="M83 299q0 92 38.5 178.5t103.5 153.5t151 107.5t182 40.5q98 0 161 -47t93 -122l45 148h148l291 2l-47 -181h-30v45q0 34 -6.5 53t-28 28t-62 11t-108.5 2h-46q-11 0 -16.5 -4.5t-9.5 -15.5l-88 -289h128q20 0 35.5 1.5t28.5 8.5t25.5 21.5t27.5 40.5l21 39h30l-82 -268
h-30l3 39q1 26 -2.5 40.5t-12.5 21.5t-23.5 8.5t-34.5 1.5h-128l-77 -251q-8 -26 -6.5 -40.5t11 -21.5t27.5 -8.5t43 -1.5h21q69 0 111.5 3.5t71 13t48.5 26t43 43.5l64 73h30l-112 -199h-490l26 86q-54 -45 -119 -72t-138 -27q-71 0 -128 23t-98 64.5t-63 98.5t-22 126z
M400 32q60 0 109 21.5t88 57t67.5 82.5t47.5 98t28 102.5t9 96.5q0 64 -14.5 110t-40.5 76t-62 44t-80 14q-60 0 -109 -21.5t-88 -57t-67.5 -82.5t-47.5 -98t-28 -102.5t-9 -96.5q0 -64 14.5 -110t40.5 -76t62 -44t80 -14z" />
    <glyph glyph-name="Obreve" unicode="&#x14e;" horiz-adv-x="870" 
d="M394 -13q-71 0 -128 23t-98 64.5t-63 98.5t-22 126q0 92 38.5 178.5t103.5 153.5t151 107.5t182 40.5q70 0 127.5 -23t98 -64.5t63 -98.5t22.5 -126q0 -92 -38.5 -178.5t-103.5 -153.5t-151 -107.5t-182 -40.5zM400 32q60 0 109 21.5t88 57t67.5 82.5t47.5 98t28 102.5
t9 96.5q0 64 -14.5 110t-40.5 76t-62 44t-80 14q-60 0 -109 -21.5t-88 -57t-67.5 -82.5t-47.5 -98t-28 -102.5t-9 -96.5q0 -64 14.5 -110t40.5 -76t62 -44t80 -14zM610 830q-34 0 -62 10.5t-47 30.5t-25.5 50t2.5 69h54q-13 -53 9.5 -82.5t71.5 -29.5q22 0 42.5 4.5t38 17
t31.5 34.5t23 56h56q-12 -48 -33 -79t-47 -49t-55.5 -25t-58.5 -7z" />
    <glyph glyph-name="Ohungarumlaut" unicode="&#x150;" horiz-adv-x="870" 
d="M394 -13q-71 0 -128 23t-98 64.5t-63 98.5t-22 126q0 92 38.5 178.5t103.5 153.5t151 107.5t182 40.5q70 0 127.5 -23t98 -64.5t63 -98.5t22.5 -126q0 -92 -38.5 -178.5t-103.5 -153.5t-151 -107.5t-182 -40.5zM400 32q60 0 109 21.5t88 57t67.5 82.5t47.5 98t28 102.5
t9 96.5q0 64 -14.5 110t-40.5 76t-62 44t-80 14q-60 0 -109 -21.5t-88 -57t-67.5 -82.5t-47.5 -98t-28 -102.5t-9 -96.5q0 -64 14.5 -110t40.5 -76t62 -44t80 -14zM961 969l-282 -126h-23l138 129h168zM752 969l-282 -126h-23l138 129h168z" />
    <glyph glyph-name="Omacron" unicode="&#x14c;" horiz-adv-x="870" 
d="M394 -13q-71 0 -128 23t-98 64.5t-63 98.5t-22 126q0 92 38.5 178.5t103.5 153.5t151 107.5t182 40.5q70 0 127.5 -23t98 -64.5t63 -98.5t22.5 -126q0 -92 -38.5 -178.5t-103.5 -153.5t-151 -107.5t-182 -40.5zM400 32q60 0 109 21.5t88 57t67.5 82.5t47.5 98t28 102.5
t9 96.5q0 64 -14.5 110t-40.5 76t-62 44t-80 14q-60 0 -109 -21.5t-88 -57t-67.5 -82.5t-47.5 -98t-28 -102.5t-9 -96.5q0 -64 14.5 -110t40.5 -76t62 -44t80 -14zM476 939h294l-20 -65h-294z" />
    <glyph glyph-name="uni1ECC" unicode="&#x1ecc;" horiz-adv-x="870" 
d="M394 -13q-71 0 -128 23t-98 64.5t-63 98.5t-22 126q0 92 38.5 178.5t103.5 153.5t151 107.5t182 40.5q70 0 127.5 -23t98 -64.5t63 -98.5t22.5 -126q0 -92 -38.5 -178.5t-103.5 -153.5t-151 -107.5t-182 -40.5zM400 32q60 0 109 21.5t88 57t67.5 82.5t47.5 98t28 102.5
t9 96.5q0 64 -14.5 110t-40.5 76t-62 44t-80 14q-60 0 -109 -21.5t-88 -57t-67.5 -82.5t-47.5 -98t-28 -102.5t-9 -96.5q0 -64 14.5 -110t40.5 -76t62 -44t80 -14zM332 -244q-26 0 -43 17t-17 43q0 27 17 44.5t43 17.5t43 -17.5t17 -44.5q0 -26 -17 -43t-43 -17z" />
    <glyph glyph-name="Racute" unicode="&#x154;" horiz-adv-x="750" 
d="M-11 35l36 2q21 1 33.5 4t20.5 10.5t13.5 21.5t13.5 38l164 536q7 24 10.5 38t0 21.5t-14.5 10.5t-31 4l-36 2l11 35h252q130 0 200 -41t70 -119q0 -40 -16 -77t-48 -67t-79.5 -51.5t-111.5 -30.5q33 -72 65.5 -139.5t68.5 -132.5q9 -17 16 -28.5t14.5 -19t17 -11.5
t23.5 -5l23 -1l-11 -35h-155l-163 358h-90l-76 -247q-8 -26 -11 -40.5t2 -21.5t19 -8.5t40 -2.5l31 -1l-11 -37h-302zM298 397q6 -1 16 -1.5t20.5 -1t20 -0.5h15.5q75 0 122.5 18.5t74.5 48t37 66t10 72.5q0 25 -7.5 47t-26 38.5t-49.5 26t-79 9.5q-20 0 -31.5 -1t-17.5 -3
t-9 -7t-5 -12zM790 969l-282 -126h-23l138 129h168z" />
    <glyph glyph-name="Rcaron" unicode="&#x158;" horiz-adv-x="750" 
d="M-11 35l36 2q21 1 33.5 4t20.5 10.5t13.5 21.5t13.5 38l164 536q7 24 10.5 38t0 21.5t-14.5 10.5t-31 4l-36 2l11 35h252q130 0 200 -41t70 -119q0 -40 -16 -77t-48 -67t-79.5 -51.5t-111.5 -30.5q33 -72 65.5 -139.5t68.5 -132.5q9 -17 16 -28.5t14.5 -19t17 -11.5
t23.5 -5l23 -1l-11 -35h-155l-163 358h-90l-76 -247q-8 -26 -11 -40.5t2 -21.5t19 -8.5t40 -2.5l31 -1l-11 -37h-302zM298 397q6 -1 16 -1.5t20.5 -1t20 -0.5h15.5q75 0 122.5 18.5t74.5 48t37 66t10 72.5q0 25 -7.5 47t-26 38.5t-49.5 26t-79 9.5q-20 0 -31.5 -1t-17.5 -3
t-9 -7t-5 -12zM520 833l-97 149h20l103 -66l194 66h29l-233 -149h-16z" />
    <glyph glyph-name="uni0156" unicode="&#x156;" horiz-adv-x="750" 
d="M-11 35l36 2q21 1 33.5 4t20.5 10.5t13.5 21.5t13.5 38l164 536q7 24 10.5 38t0 21.5t-14.5 10.5t-31 4l-36 2l11 35h252q130 0 200 -41t70 -119q0 -40 -16 -77t-48 -67t-79.5 -51.5t-111.5 -30.5q33 -72 65.5 -139.5t68.5 -132.5q9 -17 16 -28.5t14.5 -19t17 -11.5
t23.5 -5l23 -1l-11 -35h-155l-163 358h-90l-76 -247q-8 -26 -11 -40.5t2 -21.5t19 -8.5t40 -2.5l31 -1l-11 -37h-302zM298 397q6 -1 16 -1.5t20.5 -1t20 -0.5h15.5q75 0 122.5 18.5t74.5 48t37 66t10 72.5q0 25 -7.5 47t-26 38.5t-49.5 26t-79 9.5q-20 0 -31.5 -1t-17.5 -3
t-9 -7t-5 -12zM363 -91q42 0 67.5 -28t25.5 -67q0 -48 -45.5 -96.5t-150.5 -89.5l-11 22q65 30 99 64.5t34 68.5q0 30 -20.5 45.5t-54.5 25.5q0 26 16 40.5t40 14.5z" />
    <glyph glyph-name="Sacute" unicode="&#x15a;" horiz-adv-x="596" 
d="M203 -13q-27 0 -54.5 5t-52.5 13.5t-47 18t-37 18.5l38 217h26l20 -157q2 -14 6.5 -25.5t13.5 -19.5q17 -14 45 -20t62 -6q36 0 71 11t62.5 32.5t44.5 52t17 69.5q0 72 -73 142l-70 68q-38 37 -54.5 74t-16.5 78q0 43 20 83t57.5 71t91 49t121.5 18q54 0 96.5 -8.5
t73.5 -19.5l-39 -182h-25l-15 109q-3 21 -11 30.5t-25 15.5q-14 5 -35 8t-41 3q-39 0 -71 -10.5t-55 -29.5t-36 -44t-13 -55q0 -28 12 -55t39 -53l70 -68q19 -19 36.5 -38.5t31 -42.5t21 -50t7.5 -60q0 -48 -23.5 -92t-65 -77t-98.5 -53t-125 -20zM793 969l-282 -126h-23
l138 129h168z" />
    <glyph glyph-name="Scaron" unicode="&#x160;" horiz-adv-x="596" 
d="M203 -13q-27 0 -54.5 5t-52.5 13.5t-47 18t-37 18.5l38 217h26l20 -157q2 -14 6.5 -25.5t13.5 -19.5q17 -14 45 -20t62 -6q36 0 71 11t62.5 32.5t44.5 52t17 69.5q0 72 -73 142l-70 68q-38 37 -54.5 74t-16.5 78q0 43 20 83t57.5 71t91 49t121.5 18q54 0 96.5 -8.5
t73.5 -19.5l-39 -182h-25l-15 109q-3 21 -11 30.5t-25 15.5q-14 5 -35 8t-41 3q-39 0 -71 -10.5t-55 -29.5t-36 -44t-13 -55q0 -28 12 -55t39 -53l70 -68q19 -19 36.5 -38.5t31 -42.5t21 -50t7.5 -60q0 -48 -23.5 -92t-65 -77t-98.5 -53t-125 -20zM523 833l-97 149h20
l103 -66l194 66h29l-233 -149h-16z" />
    <glyph glyph-name="Scedilla" unicode="&#x15e;" horiz-adv-x="596" 
d="M203 -13q-27 0 -54.5 5t-52.5 13.5t-47 18t-37 18.5l38 217h26l20 -157q2 -14 6.5 -25.5t13.5 -19.5q17 -14 45 -20t62 -6q36 0 71 11t62.5 32.5t44.5 52t17 69.5q0 72 -73 142l-70 68q-38 37 -54.5 74t-16.5 78q0 43 20 83t57.5 71t91 49t121.5 18q54 0 96.5 -8.5
t73.5 -19.5l-39 -182h-25l-15 109q-3 21 -11 30.5t-25 15.5q-14 5 -35 8t-41 3q-39 0 -71 -10.5t-55 -29.5t-36 -44t-13 -55q0 -28 12 -55t39 -53l70 -68q19 -19 36.5 -38.5t31 -42.5t21 -50t7.5 -60q0 -48 -23.5 -92t-65 -77t-98.5 -53t-125 -20zM120 -260q-43 0 -66 18.5
t-23 40.5q0 18 15.5 29t39.5 4q2 -32 17.5 -47.5t41.5 -15.5q18 0 30 7.5t12 22.5q0 16 -24 38t-64 49l145 114h43l-102 -81q29 -19 45.5 -40t16.5 -44q0 -16 -9 -32.5t-25.5 -30.5t-40 -23t-52.5 -9z" />
    <glyph glyph-name="Scircumflex" unicode="&#x15c;" horiz-adv-x="596" 
d="M203 -13q-27 0 -54.5 5t-52.5 13.5t-47 18t-37 18.5l38 217h26l20 -157q2 -14 6.5 -25.5t13.5 -19.5q17 -14 45 -20t62 -6q36 0 71 11t62.5 32.5t44.5 52t17 69.5q0 72 -73 142l-70 68q-38 37 -54.5 74t-16.5 78q0 43 20 83t57.5 71t91 49t121.5 18q54 0 96.5 -8.5
t73.5 -19.5l-39 -182h-25l-15 109q-3 21 -11 30.5t-25 15.5q-14 5 -35 8t-41 3q-39 0 -71 -10.5t-55 -29.5t-36 -44t-13 -55q0 -28 12 -55t39 -53l70 -68q19 -19 36.5 -38.5t31 -42.5t21 -50t7.5 -60q0 -48 -23.5 -92t-65 -77t-98.5 -53t-125 -20zM599 982l97 -149h-20
l-103 66l-194 -66h-29l233 149h16z" />
    <glyph glyph-name="uni0218" unicode="&#x218;" horiz-adv-x="596" 
d="M203 -13q-27 0 -54.5 5t-52.5 13.5t-47 18t-37 18.5l38 217h26l20 -157q2 -14 6.5 -25.5t13.5 -19.5q17 -14 45 -20t62 -6q36 0 71 11t62.5 32.5t44.5 52t17 69.5q0 72 -73 142l-70 68q-38 37 -54.5 74t-16.5 78q0 43 20 83t57.5 71t91 49t121.5 18q54 0 96.5 -8.5
t73.5 -19.5l-39 -182h-25l-15 109q-3 21 -11 30.5t-25 15.5q-14 5 -35 8t-41 3q-39 0 -71 -10.5t-55 -29.5t-36 -44t-13 -55q0 -28 12 -55t39 -53l70 -68q19 -19 36.5 -38.5t31 -42.5t21 -50t7.5 -60q0 -48 -23.5 -92t-65 -77t-98.5 -53t-125 -20zM188 -91q42 0 67.5 -28
t25.5 -67q0 -48 -45.5 -96.5t-150.5 -89.5l-11 22q65 30 99 64.5t34 68.5q0 30 -20.5 45.5t-54.5 25.5q0 26 16 40.5t40 14.5z" />
    <glyph glyph-name="Tbar" unicode="&#x166;" horiz-adv-x="744" 
d="M142 37l42 1q26 1 41 2.5t24 8.5t15 21.5t14 40.5l186 607h-31q-65 0 -106 -2t-69 -11t-47 -28t-40 -53l-28 -45h-27l75 210h8q11 -10 23 -16t33.5 -9.5t55.5 -4.5t90 -1h254q55 0 90 1t58.5 4.5t39 9.5t32.5 16h8l-53 -210h-27v45q0 34 -7.5 53t-29.5 28t-62 11t-105 2
h-31l-186 -607q-8 -26 -11 -40.5t2 -21.5t19 -8.5t40 -2.5l42 -1l-12 -37h-332zM171 410h505l-15 -48h-505z" />
    <glyph glyph-name="Tcaron" unicode="&#x164;" horiz-adv-x="744" 
d="M142 37l42 1q26 1 41 2.5t24 8.5t15 21.5t14 40.5l186 607h-31q-65 0 -106 -2t-69 -11t-47 -28t-40 -53l-28 -45h-27l75 210h8q11 -10 23 -16t33.5 -9.5t55.5 -4.5t90 -1h254q55 0 90 1t58.5 4.5t39 9.5t32.5 16h8l-53 -210h-27v45q0 34 -7.5 53t-29.5 28t-62 11t-105 2
h-31l-186 -607q-8 -26 -11 -40.5t2 -21.5t19 -8.5t40 -2.5l42 -1l-12 -37h-332zM548 833l-97 149h20l103 -66l194 66h29l-233 -149h-16z" />
    <glyph glyph-name="uni0162" unicode="&#x162;" horiz-adv-x="744" 
d="M142 37l42 1q26 1 41 2.5t24 8.5t15 21.5t14 40.5l186 607h-31q-65 0 -106 -2t-69 -11t-47 -28t-40 -53l-28 -45h-27l75 210h8q11 -10 23 -16t33.5 -9.5t55.5 -4.5t90 -1h254q55 0 90 1t58.5 4.5t39 9.5t32.5 16h8l-53 -210h-27v45q0 34 -7.5 53t-29.5 28t-62 11t-105 2
h-31l-186 -607q-8 -26 -11 -40.5t2 -21.5t19 -8.5t40 -2.5l42 -1l-12 -37h-332zM235 -91q42 0 67.5 -28t25.5 -67q0 -48 -45.5 -96.5t-150.5 -89.5l-11 22q65 30 99 64.5t34 68.5q0 30 -20.5 45.5t-54.5 25.5q0 26 16 40.5t40 14.5z" />
    <glyph glyph-name="uni021A" unicode="&#x21a;" horiz-adv-x="744" 
d="M142 37l42 1q26 1 41 2.5t24 8.5t15 21.5t14 40.5l186 607h-31q-65 0 -106 -2t-69 -11t-47 -28t-40 -53l-28 -45h-27l75 210h8q11 -10 23 -16t33.5 -9.5t55.5 -4.5t90 -1h254q55 0 90 1t58.5 4.5t39 9.5t32.5 16h8l-53 -210h-27v45q0 34 -7.5 53t-29.5 28t-62 11t-105 2
h-31l-186 -607q-8 -26 -11 -40.5t2 -21.5t19 -8.5t40 -2.5l42 -1l-12 -37h-332zM235 -91q42 0 67.5 -28t25.5 -67q0 -48 -45.5 -96.5t-150.5 -89.5l-11 22q65 30 99 64.5t34 68.5q0 30 -20.5 45.5t-54.5 25.5q0 26 16 40.5t40 14.5z" />
    <glyph glyph-name="Ubreve" unicode="&#x16c;" horiz-adv-x="847" 
d="M371 -13q-71 0 -124.5 16.5t-85 53.5t-37.5 95.5t20 142.5l108 352q7 24 10 38t0 21.5t-14 10.5t-31 4l-36 2l11 35h292l-11 -35l-36 -2q-21 -1 -33.5 -4t-21 -10.5t-14 -21.5t-12.5 -38l-108 -352q-22 -72 -19 -121.5t24.5 -80t58 -44t82.5 -13.5q49 0 91.5 13.5
t77.5 43.5t63.5 79t49.5 120l75 244q19 64 29.5 100.5t10.5 55t-11.5 23.5t-35.5 7l-37 2l11 34h257l-11 -34l-37 -2q-25 -2 -39.5 -7t-26.5 -23.5t-24.5 -55t-31.5 -100.5l-74 -243q-25 -81 -59 -139t-78.5 -95t-99.5 -54.5t-123 -17.5zM617 830q-34 0 -62 10.5t-47 30.5
t-25.5 50t2.5 69h54q-13 -53 9.5 -82.5t71.5 -29.5q22 0 42.5 4.5t38 17t31.5 34.5t23 56h56q-12 -48 -33 -79t-47 -49t-55.5 -25t-58.5 -7z" />
    <glyph glyph-name="Uhungarumlaut" unicode="&#x170;" horiz-adv-x="847" 
d="M371 -13q-71 0 -124.5 16.5t-85 53.5t-37.5 95.5t20 142.5l108 352q7 24 10 38t0 21.5t-14 10.5t-31 4l-36 2l11 35h292l-11 -35l-36 -2q-21 -1 -33.5 -4t-21 -10.5t-14 -21.5t-12.5 -38l-108 -352q-22 -72 -19 -121.5t24.5 -80t58 -44t82.5 -13.5q49 0 91.5 13.5
t77.5 43.5t63.5 79t49.5 120l75 244q19 64 29.5 100.5t10.5 55t-11.5 23.5t-35.5 7l-37 2l11 34h257l-11 -34l-37 -2q-25 -2 -39.5 -7t-26.5 -23.5t-24.5 -55t-31.5 -100.5l-74 -243q-25 -81 -59 -139t-78.5 -95t-99.5 -54.5t-123 -17.5zM968 969l-282 -126h-23l138 129h168
zM759 969l-282 -126h-23l138 129h168z" />
    <glyph glyph-name="Umacron" unicode="&#x16a;" horiz-adv-x="847" 
d="M371 -13q-71 0 -124.5 16.5t-85 53.5t-37.5 95.5t20 142.5l108 352q7 24 10 38t0 21.5t-14 10.5t-31 4l-36 2l11 35h292l-11 -35l-36 -2q-21 -1 -33.5 -4t-21 -10.5t-14 -21.5t-12.5 -38l-108 -352q-22 -72 -19 -121.5t24.5 -80t58 -44t82.5 -13.5q49 0 91.5 13.5
t77.5 43.5t63.5 79t49.5 120l75 244q19 64 29.5 100.5t10.5 55t-11.5 23.5t-35.5 7l-37 2l11 34h257l-11 -34l-37 -2q-25 -2 -39.5 -7t-26.5 -23.5t-24.5 -55t-31.5 -100.5l-74 -243q-25 -81 -59 -139t-78.5 -95t-99.5 -54.5t-123 -17.5zM483 939h294l-20 -65h-294z" />
    <glyph glyph-name="Uogonek" unicode="&#x172;" horiz-adv-x="847" 
d="M371 -13q-71 0 -124.5 16.5t-85 53.5t-37.5 95.5t20 142.5l108 352q7 24 10 38t0 21.5t-14 10.5t-31 4l-36 2l11 35h292l-11 -35l-36 -2q-21 -1 -33.5 -4t-21 -10.5t-14 -21.5t-12.5 -38l-108 -352q-22 -72 -19 -121.5t24.5 -80t58 -44t82.5 -13.5q49 0 91.5 13.5
t77.5 43.5t63.5 79t49.5 120l75 244q19 64 29.5 100.5t10.5 55t-11.5 23.5t-35.5 7l-37 2l11 34h257l-11 -34l-37 -2q-25 -2 -39.5 -7t-26.5 -23.5t-24.5 -55t-31.5 -100.5l-74 -243q-47 -149 -123.5 -221.5t-193.5 -82.5q-18 -13 -36 -28t-32.5 -31.5t-23 -33.5t-8.5 -34
q0 -31 26.5 -43t88.5 1l-8 -28q-18 -9 -44 -17.5t-58 -8.5q-43 0 -67.5 20.5t-24.5 52.5q0 22 13 42t34 39t46.5 35.5t50.5 31.5z" />
    <glyph glyph-name="Uring" unicode="&#x16e;" horiz-adv-x="847" 
d="M371 -13q-71 0 -124.5 16.5t-85 53.5t-37.5 95.5t20 142.5l108 352q7 24 10 38t0 21.5t-14 10.5t-31 4l-36 2l11 35h292l-11 -35l-36 -2q-21 -1 -33.5 -4t-21 -10.5t-14 -21.5t-12.5 -38l-108 -352q-22 -72 -19 -121.5t24.5 -80t58 -44t82.5 -13.5q49 0 91.5 13.5
t77.5 43.5t63.5 79t49.5 120l75 244q19 64 29.5 100.5t10.5 55t-11.5 23.5t-35.5 7l-37 2l11 34h257l-11 -34l-37 -2q-25 -2 -39.5 -7t-26.5 -23.5t-24.5 -55t-31.5 -100.5l-74 -243q-25 -81 -59 -139t-78.5 -95t-99.5 -54.5t-123 -17.5zM516 964q0 25 9.5 46.5t26.5 38
t39 26t48 9.5t49 -9.5t40 -26t26.5 -38t9.5 -46.5t-9.5 -46.5t-26.5 -37.5t-40 -25t-49 -9t-48 9t-39 25t-26.5 37.5t-9.5 46.5zM709 964q0 32 -18.5 51t-51.5 19q-32 0 -50 -19t-18 -51t18 -51t50 -19q33 0 51.5 19t18.5 51z" />
    <glyph glyph-name="Utilde" unicode="&#x168;" horiz-adv-x="847" 
d="M371 -13q-71 0 -124.5 16.5t-85 53.5t-37.5 95.5t20 142.5l108 352q7 24 10 38t0 21.5t-14 10.5t-31 4l-36 2l11 35h292l-11 -35l-36 -2q-21 -1 -33.5 -4t-21 -10.5t-14 -21.5t-12.5 -38l-108 -352q-22 -72 -19 -121.5t24.5 -80t58 -44t82.5 -13.5q49 0 91.5 13.5
t77.5 43.5t63.5 79t49.5 120l75 244q19 64 29.5 100.5t10.5 55t-11.5 23.5t-35.5 7l-37 2l11 34h257l-11 -34l-37 -2q-25 -2 -39.5 -7t-26.5 -23.5t-24.5 -55t-31.5 -100.5l-74 -243q-25 -81 -59 -139t-78.5 -95t-99.5 -54.5t-123 -17.5zM422 833q13 67 43 104.5t78 37.5
q24 0 45 -11t40.5 -24.5t39 -24.5t40.5 -11q23 0 41.5 13t28.5 55h23q-11 -76 -38.5 -106.5t-72.5 -30.5q-26 0 -46.5 11t-39 23.5t-36.5 23.5t-40 11q-29 0 -51.5 -14.5t-33.5 -56.5h-21z" />
    <glyph glyph-name="uni1EE4" unicode="&#x1ee4;" horiz-adv-x="847" 
d="M371 -13q-71 0 -124.5 16.5t-85 53.5t-37.5 95.5t20 142.5l108 352q7 24 10 38t0 21.5t-14 10.5t-31 4l-36 2l11 35h292l-11 -35l-36 -2q-21 -1 -33.5 -4t-21 -10.5t-14 -21.5t-12.5 -38l-108 -352q-22 -72 -19 -121.5t24.5 -80t58 -44t82.5 -13.5q49 0 91.5 13.5
t77.5 43.5t63.5 79t49.5 120l75 244q19 64 29.5 100.5t10.5 55t-11.5 23.5t-35.5 7l-37 2l11 34h257l-11 -34l-37 -2q-25 -2 -39.5 -7t-26.5 -23.5t-24.5 -55t-31.5 -100.5l-74 -243q-25 -81 -59 -139t-78.5 -95t-99.5 -54.5t-123 -17.5zM319 -244q-26 0 -43 17t-17 43
q0 27 17 44.5t43 17.5t43 -17.5t17 -44.5q0 -26 -17 -43t-43 -17z" />
    <glyph glyph-name="Wacute" unicode="&#x1e82;" horiz-adv-x="1145" 
d="M220 697q-1 15 -8 18t-33 5l-33 3l10 35h276l-10 -35l-48 -3q-14 -1 -23.5 -2t-14.5 -4.5t-7 -10t-2 -18.5l17 -538l278 372l-9 239h214l-10 -35l-48 -3q-14 -1 -23.5 -2t-14.5 -4.5t-7 -10t-2 -18.5l17 -538l351 468q23 31 36 51t15.5 32t-5.5 17t-27 6l-44 2l10 35h255
l-10 -35l-38 -2q-15 -1 -28.5 -7t-27.5 -19t-31 -33t-38 -49l-479 -626h-36l-17 447l-342 -447h-36zM995 969l-282 -126h-23l138 129h168z" />
    <glyph glyph-name="Wcircumflex" unicode="&#x174;" horiz-adv-x="1145" 
d="M220 697q-1 15 -8 18t-33 5l-33 3l10 35h276l-10 -35l-48 -3q-14 -1 -23.5 -2t-14.5 -4.5t-7 -10t-2 -18.5l17 -538l278 372l-9 239h214l-10 -35l-48 -3q-14 -1 -23.5 -2t-14.5 -4.5t-7 -10t-2 -18.5l17 -538l351 468q23 31 36 51t15.5 32t-5.5 17t-27 6l-44 2l10 35h255
l-10 -35l-38 -2q-15 -1 -28.5 -7t-27.5 -19t-31 -33t-38 -49l-479 -626h-36l-17 447l-342 -447h-36zM801 982l97 -149h-20l-103 66l-194 -66h-29l233 149h16z" />
    <glyph glyph-name="Wdieresis" unicode="&#x1e84;" horiz-adv-x="1145" 
d="M220 697q-1 15 -8 18t-33 5l-33 3l10 35h276l-10 -35l-48 -3q-14 -1 -23.5 -2t-14.5 -4.5t-7 -10t-2 -18.5l17 -538l278 372l-9 239h214l-10 -35l-48 -3q-14 -1 -23.5 -2t-14.5 -4.5t-7 -10t-2 -18.5l17 -538l351 468q23 31 36 51t15.5 32t-5.5 17t-27 6l-44 2l10 35h255
l-10 -35l-38 -2q-15 -1 -28.5 -7t-27.5 -19t-31 -33t-38 -49l-479 -626h-36l-17 447l-342 -447h-36zM623 846q-26 0 -43 17t-17 43q0 27 17 44.5t43 17.5t43 -17.5t17 -44.5q0 -26 -17 -43t-43 -17zM879 846q-26 0 -43 17t-17 43q0 27 17 44.5t43 17.5t43 -17.5t17 -44.5
q0 -26 -17 -43t-43 -17z" />
    <glyph glyph-name="Wgrave" unicode="&#x1e80;" horiz-adv-x="1145" 
d="M220 697q-1 15 -8 18t-33 5l-33 3l10 35h276l-10 -35l-48 -3q-14 -1 -23.5 -2t-14.5 -4.5t-7 -10t-2 -18.5l17 -538l278 372l-9 239h214l-10 -35l-48 -3q-14 -1 -23.5 -2t-14.5 -4.5t-7 -10t-2 -18.5l17 -538l351 468q23 31 36 51t15.5 32t-5.5 17t-27 6l-44 2l10 35h255
l-10 -35l-38 -2q-15 -1 -28.5 -7t-27.5 -19t-31 -33t-38 -49l-479 -626h-36l-17 447l-342 -447h-36zM726 972l59 -129h-19l-192 126l1 3h151z" />
    <glyph glyph-name="Ycircumflex" unicode="&#x176;" horiz-adv-x="734" 
d="M133 37l43 1q26 1 41 2.5t24 8.5t15 21.5t14 40.5l68 222l-118 364q-4 13 -10.5 17.5t-31.5 6.5l-33 2l11 35h279l-11 -35l-48 -2q-29 -2 -41 -8t-4 -28l98 -301l221 231q53 55 60.5 80t-34.5 26l-39 2l11 35h255l-11 -35l-33 -2q-16 0 -29 -5t-28 -17t-35.5 -33
t-51.5 -53l-274 -282l-67 -220q-8 -26 -11 -40.5t2 -21.5t19 -8.5t40 -2.5l41 -1l-11 -37h-332zM625 982l97 -149h-20l-103 66l-194 -66h-29l233 149h16z" />
    <glyph glyph-name="Ydieresis" unicode="&#x178;" horiz-adv-x="734" 
d="M133 37l43 1q26 1 41 2.5t24 8.5t15 21.5t14 40.5l68 222l-118 364q-4 13 -10.5 17.5t-31.5 6.5l-33 2l11 35h279l-11 -35l-48 -2q-29 -2 -41 -8t-4 -28l98 -301l221 231q53 55 60.5 80t-34.5 26l-39 2l11 35h255l-11 -35l-33 -2q-16 0 -29 -5t-28 -17t-35.5 -33
t-51.5 -53l-274 -282l-67 -220q-8 -26 -11 -40.5t2 -21.5t19 -8.5t40 -2.5l41 -1l-11 -37h-332zM447 846q-26 0 -43 17t-17 43q0 27 17 44.5t43 17.5t43 -17.5t17 -44.5q0 -26 -17 -43t-43 -17zM703 846q-26 0 -43 17t-17 43q0 27 17 44.5t43 17.5t43 -17.5t17 -44.5
q0 -26 -17 -43t-43 -17z" />
    <glyph glyph-name="Ygrave" unicode="&#x1ef2;" horiz-adv-x="734" 
d="M133 37l43 1q26 1 41 2.5t24 8.5t15 21.5t14 40.5l68 222l-118 364q-4 13 -10.5 17.5t-31.5 6.5l-33 2l11 35h279l-11 -35l-48 -2q-29 -2 -41 -8t-4 -28l98 -301l221 231q53 55 60.5 80t-34.5 26l-39 2l11 35h255l-11 -35l-33 -2q-16 0 -29 -5t-28 -17t-35.5 -33
t-51.5 -53l-274 -282l-67 -220q-8 -26 -11 -40.5t2 -21.5t19 -8.5t40 -2.5l41 -1l-11 -37h-332zM550 972l59 -129h-19l-192 126l1 3h151z" />
    <glyph glyph-name="uni0232" unicode="&#x232;" horiz-adv-x="734" 
d="M133 37l43 1q26 1 41 2.5t24 8.5t15 21.5t14 40.5l68 222l-118 364q-4 13 -10.5 17.5t-31.5 6.5l-33 2l11 35h279l-11 -35l-48 -2q-29 -2 -41 -8t-4 -28l98 -301l221 231q53 55 60.5 80t-34.5 26l-39 2l11 35h255l-11 -35l-33 -2q-16 0 -29 -5t-28 -17t-35.5 -33
t-51.5 -53l-274 -282l-67 -220q-8 -26 -11 -40.5t2 -21.5t19 -8.5t40 -2.5l41 -1l-11 -37h-332zM438 939h294l-20 -65h-294z" />
    <glyph glyph-name="Zacute" unicode="&#x179;" horiz-adv-x="758" 
d="M715 718h-189q-72 0 -115.5 -3.5t-71 -13t-46.5 -26t-42 -43.5l-63 -73h-30l129 230h8q11 -10 26 -16t38 -9.5t56.5 -4.5t81.5 -1h386l-775 -718h225q72 0 115.5 3.5t71 13t46.5 26t42 43.5l63 73h30l-112 -199h-649zM841 969l-282 -126h-23l138 129h168z" />
    <glyph glyph-name="Zcaron" unicode="&#x17d;" horiz-adv-x="758" 
d="M715 718h-189q-72 0 -115.5 -3.5t-71 -13t-46.5 -26t-42 -43.5l-63 -73h-30l129 230h8q11 -10 26 -16t38 -9.5t56.5 -4.5t81.5 -1h386l-775 -718h225q72 0 115.5 3.5t71 13t46.5 26t42 43.5l63 73h30l-112 -199h-649zM571 833l-97 149h20l103 -66l194 66h29l-233 -149
h-16z" />
    <glyph glyph-name="Zdotaccent" unicode="&#x17b;" horiz-adv-x="758" 
d="M715 718h-189q-72 0 -115.5 -3.5t-71 -13t-46.5 -26t-42 -43.5l-63 -73h-30l129 230h8q11 -10 26 -16t38 -9.5t56.5 -4.5t81.5 -1h386l-775 -718h225q72 0 115.5 3.5t71 13t46.5 26t42 43.5l63 73h30l-112 -199h-649zM597 846q-26 0 -43 17t-17 43q0 27 17 44.5t43 17.5
t43 -17.5t17 -44.5q0 -26 -17 -43t-43 -17z" />
    <glyph glyph-name="uni018F" unicode="&#x18f;" horiz-adv-x="804" 
d="M356 -11q-69 0 -123.5 23.5t-91 66t-54.5 102t-13 131.5h595q7 28 10 56t3 55q0 72 -19 126t-52 90t-76.5 53.5t-92.5 17.5q-81 0 -157.5 -41.5t-131.5 -126.5l-31 17q22 45 57 85.5t81 70.5t103.5 48t126.5 18q67 0 124 -22.5t98 -64t64 -100t23 -129.5
q0 -99 -36.5 -186t-98 -151.5t-141.5 -101.5t-167 -37zM361 34q59 0 107 19t85 52t63 76t42 91h-471q-10 -114 36.5 -176t137.5 -62z" />
    <glyph glyph-name="abreve" unicode="&#x103;" horiz-adv-x="565" 
d="M80 -13q-42 0 -61.5 28t-19.5 66q0 43 19 92.5t51 98t73 93t84.5 78.5t86.5 54.5t78 20.5q44 0 73 -16l72 32l6 -4l-156 -417q-11 -29 -14 -45t9 -16q11 0 28 12t37 31.5t41 45t39 53.5l27 -16q-61 -94 -120 -142.5t-107 -48.5q-46 0 -49 28t18 86l24 66h-1
q-26 -33 -55 -65.5t-59.5 -58t-61.5 -41t-62 -15.5zM141 48q16 0 46 21t64 58t67 87t56 109l36 94q6 15 4.5 26.5t-8 19t-16.5 11t-20 3.5q-27 0 -56.5 -16t-58 -44t-55 -65t-46 -78t-31.5 -84.5t-12 -84.5q0 -23 6.5 -40t23.5 -17zM442 628q-34 0 -62 10.5t-47 30.5
t-25.5 50t2.5 69h54q-13 -53 9.5 -82.5t71.5 -29.5q22 0 42.5 4.5t38 17t31.5 34.5t23 56h56q-12 -48 -33 -79t-47 -49t-55.5 -25t-58.5 -7z" />
    <glyph glyph-name="amacron" unicode="&#x101;" horiz-adv-x="565" 
d="M80 -13q-42 0 -61.5 28t-19.5 66q0 43 19 92.5t51 98t73 93t84.5 78.5t86.5 54.5t78 20.5q44 0 73 -16l72 32l6 -4l-156 -417q-11 -29 -14 -45t9 -16q11 0 28 12t37 31.5t41 45t39 53.5l27 -16q-61 -94 -120 -142.5t-107 -48.5q-46 0 -49 28t18 86l24 66h-1
q-26 -33 -55 -65.5t-59.5 -58t-61.5 -41t-62 -15.5zM141 48q16 0 46 21t64 58t67 87t56 109l36 94q6 15 4.5 26.5t-8 19t-16.5 11t-20 3.5q-27 0 -56.5 -16t-58 -44t-55 -65t-46 -78t-31.5 -84.5t-12 -84.5q0 -23 6.5 -40t23.5 -17zM324 735h294l-22 -65h-294z" />
    <glyph glyph-name="aogonek" unicode="&#x105;" horiz-adv-x="565" 
d="M80 -13q-42 0 -61.5 28t-19.5 66q0 43 19 92.5t51 98t73 93t84.5 78.5t86.5 54.5t78 20.5q44 0 73 -16l72 32l6 -4l-156 -417q-11 -29 -14 -45t9 -16q11 0 28 12t37 31.5t41 45t39 53.5l27 -16q-48 -74 -95.5 -119.5t-89.5 -62.5q-20 -13 -40 -29t-36 -33t-26.5 -35.5
t-10.5 -36.5q0 -31 26.5 -43t88.5 1l-8 -28q-18 -9 -44 -17.5t-58 -8.5q-43 0 -67.5 20.5t-24.5 52.5q0 22 14 42.5t35.5 39t48 35.5t51.5 32q-39 2 -40.5 30t18.5 83l24 66h-1q-26 -33 -55 -65.5t-59.5 -58t-61.5 -41t-62 -15.5zM141 48q16 0 46 21t64 58t67 87t56 109
l36 94q6 15 4.5 26.5t-8 19t-16.5 11t-20 3.5q-27 0 -56.5 -16t-58 -44t-55 -65t-46 -78t-31.5 -84.5t-12 -84.5q0 -23 6.5 -40t23.5 -17z" />
    <glyph glyph-name="cacute" unicode="&#x107;" horiz-adv-x="433" 
d="M143 -13q-26 0 -49 8.5t-40 25.5t-27 42t-10 57q0 38 13.5 82.5t37.5 88.5t56.5 85t71 72.5t80 50.5t84.5 19q36 0 62.5 -16t26.5 -45q0 -22 -14 -38t-34 -16q-21 26 -47 42t-57 16q-35 0 -66.5 -26t-55 -69.5t-37.5 -99.5t-14 -116q0 -45 15 -73.5t52 -28.5
q41 0 79 35.5t76 95.5l26 -18q-23 -36 -47.5 -67.5t-52 -55.5t-60 -37.5t-69.5 -13.5zM498 788h139l-1 -3l-268 -176h-19z" />
    <glyph glyph-name="ccaron" unicode="&#x10d;" horiz-adv-x="433" 
d="M143 -13q-26 0 -49 8.5t-40 25.5t-27 42t-10 57q0 38 13.5 82.5t37.5 88.5t56.5 85t71 72.5t80 50.5t84.5 19q36 0 62.5 -16t26.5 -45q0 -22 -14 -38t-34 -16q-21 26 -47 42t-57 16q-35 0 -66.5 -26t-55 -69.5t-37.5 -99.5t-14 -116q0 -45 15 -73.5t52 -28.5
q41 0 79 35.5t76 95.5l26 -18q-23 -36 -47.5 -67.5t-52 -55.5t-60 -37.5t-69.5 -13.5zM295 805h17l87 -96l201 96h23l-243 -196h-12z" />
    <glyph glyph-name="ccircumflex" unicode="&#x109;" horiz-adv-x="433" 
d="M143 -13q-26 0 -49 8.5t-40 25.5t-27 42t-10 57q0 38 13.5 82.5t37.5 88.5t56.5 85t71 72.5t80 50.5t84.5 19q36 0 62.5 -16t26.5 -45q0 -22 -14 -38t-34 -16q-21 26 -47 42t-57 16q-35 0 -66.5 -26t-55 -69.5t-37.5 -99.5t-14 -116q0 -45 15 -73.5t52 -28.5
q41 0 79 35.5t76 95.5l26 -18q-23 -36 -47.5 -67.5t-52 -55.5t-60 -37.5t-69.5 -13.5zM532 609h-17l-87 96l-201 -96h-23l243 197h12z" />
    <glyph glyph-name="cdotaccent" unicode="&#x10b;" horiz-adv-x="433" 
d="M143 -13q-26 0 -49 8.5t-40 25.5t-27 42t-10 57q0 38 13.5 82.5t37.5 88.5t56.5 85t71 72.5t80 50.5t84.5 19q36 0 62.5 -16t26.5 -45q0 -22 -14 -38t-34 -16q-21 26 -47 42t-57 16q-35 0 -66.5 -26t-55 -69.5t-37.5 -99.5t-14 -116q0 -45 15 -73.5t52 -28.5
q41 0 79 35.5t76 95.5l26 -18q-23 -36 -47.5 -67.5t-52 -55.5t-60 -37.5t-69.5 -13.5zM412 642q-23 0 -40 16t-17 42q0 25 17 41.5t40 16.5q25 0 41.5 -16.5t16.5 -41.5q0 -26 -16.5 -42t-41.5 -16z" />
    <glyph glyph-name="dcaron" unicode="&#x10f;" horiz-adv-x="624" 
d="M86 -13q-44 0 -65.5 27t-21.5 67t18 88t48.5 96.5t70.5 94t83 80.5t87 56.5t83 21.5q19 0 34 -4.5t25 -10.5l61 186q7 20 6 26t-14 12l-64 31l2 6l209 66l-240 -717q-10 -30 -13.5 -45.5t8.5 -15.5q11 0 28 12t37 31.5t41 45t39 53.5l27 -16q-61 -94 -120 -142.5
t-107 -48.5q-46 0 -49 28t18 86l33 90h-2q-81 -106 -146.5 -155t-115.5 -49zM140 48q20 0 55 23.5t72.5 64t72 93t54.5 111.5l20 60q7 23 5 38.5t-10 24.5t-19.5 12.5t-21.5 3.5q-27 0 -56.5 -16.5t-58 -44.5t-54.5 -65t-45.5 -78.5t-31 -84.5t-11.5 -82q0 -28 6.5 -44
t22.5 -16zM754 831q42 0 67.5 -28t25.5 -67q0 -48 -45.5 -96.5t-150.5 -89.5l-11 22q65 30 99 64.5t34 68.5q0 30 -20.5 45.5t-54.5 25.5q0 26 16 40.5t40 14.5z" />
    <glyph glyph-name="dcroat" unicode="&#x111;" horiz-adv-x="584" 
d="M86 -13q-44 0 -65.5 27t-21.5 67t18 88t48.5 96.5t70.5 94t83 80.5t87 56.5t83 21.5q19 0 34 -4.5t25 -10.5l61 186q7 20 6 26t-14 12l-64 31l2 6l209 66l-240 -717q-10 -30 -13.5 -45.5t8.5 -15.5q11 0 28 12t37 31.5t41 45t39 53.5l27 -16q-61 -94 -120 -142.5
t-107 -48.5q-46 0 -49 28t18 86l33 90h-2q-81 -106 -146.5 -155t-115.5 -49zM140 48q20 0 55 23.5t72.5 64t72 93t54.5 111.5l20 60q7 23 5 38.5t-10 24.5t-19.5 12.5t-21.5 3.5q-27 0 -56.5 -16.5t-58 -44.5t-54.5 -65t-45.5 -78.5t-31 -84.5t-11.5 -82q0 -28 6.5 -44
t22.5 -16zM373 654h296l-15 -43h-296z" />
    <glyph glyph-name="ebreve" unicode="&#x115;" horiz-adv-x="442" 
d="M143 -13q-26 0 -49 8.5t-40 25.5t-27 42t-10 57q0 42 14.5 87.5t39.5 90t58.5 84.5t71 70t77 48t76.5 18q46 0 71 -21t25 -56q0 -44 -21.5 -73t-48.5 -48q-22 -6 -52 -14t-62.5 -15.5t-65.5 -15t-61 -13.5q-7 -26 -11 -54.5t-4 -57.5q0 -45 15 -73.5t52 -28.5
q41 0 79 35.5t76 95.5l26 -18q-23 -36 -47.5 -67.5t-52 -55.5t-60 -37.5t-69.5 -13.5zM330 483q-23 0 -48.5 -14.5t-50 -40t-46 -60.5t-36.5 -77q22 5 43 10.5t38 11.5q40 13 66.5 29t42.5 33.5t22 35t6 34.5t-9.5 27.5t-27.5 10.5zM390 628q-34 0 -62 10.5t-47 30.5
t-25.5 50t2.5 69h54q-13 -53 9.5 -82.5t71.5 -29.5q22 0 42.5 4.5t38 17t31.5 34.5t23 56h56q-12 -48 -33 -79t-47 -49t-55.5 -25t-58.5 -7z" />
    <glyph glyph-name="ecaron" unicode="&#x11b;" horiz-adv-x="442" 
d="M143 -13q-26 0 -49 8.5t-40 25.5t-27 42t-10 57q0 42 14.5 87.5t39.5 90t58.5 84.5t71 70t77 48t76.5 18q46 0 71 -21t25 -56q0 -44 -21.5 -73t-48.5 -48q-22 -6 -52 -14t-62.5 -15.5t-65.5 -15t-61 -13.5q-7 -26 -11 -54.5t-4 -57.5q0 -45 15 -73.5t52 -28.5
q41 0 79 35.5t76 95.5l26 -18q-23 -36 -47.5 -67.5t-52 -55.5t-60 -37.5t-69.5 -13.5zM330 483q-23 0 -48.5 -14.5t-50 -40t-46 -60.5t-36.5 -77q22 5 43 10.5t38 11.5q40 13 66.5 29t42.5 33.5t22 35t6 34.5t-9.5 27.5t-27.5 10.5zM293 805h17l87 -96l201 96h23l-243 -196
h-12z" />
    <glyph glyph-name="emacron" unicode="&#x113;" horiz-adv-x="442" 
d="M143 -13q-26 0 -49 8.5t-40 25.5t-27 42t-10 57q0 42 14.5 87.5t39.5 90t58.5 84.5t71 70t77 48t76.5 18q46 0 71 -21t25 -56q0 -44 -21.5 -73t-48.5 -48q-22 -6 -52 -14t-62.5 -15.5t-65.5 -15t-61 -13.5q-7 -26 -11 -54.5t-4 -57.5q0 -45 15 -73.5t52 -28.5
q41 0 79 35.5t76 95.5l26 -18q-23 -36 -47.5 -67.5t-52 -55.5t-60 -37.5t-69.5 -13.5zM330 483q-23 0 -48.5 -14.5t-50 -40t-46 -60.5t-36.5 -77q22 5 43 10.5t38 11.5q40 13 66.5 29t42.5 33.5t22 35t6 34.5t-9.5 27.5t-27.5 10.5zM272 735h294l-22 -65h-294z" />
    <glyph glyph-name="eogonek" unicode="&#x119;" horiz-adv-x="442" 
d="M196 -208q-18 -9 -44 -17.5t-58 -8.5q-43 0 -67.5 20.5t-24.5 52.5q0 22 15 43t38.5 39.5t51.5 35.5t54 31q-4 -1 -9 -1h-9q-26 0 -49 8.5t-40 25.5t-27 42t-10 57q0 42 14.5 87.5t39.5 90t58.5 84.5t71 70t77 48t76.5 18q46 0 71 -21t25 -56q0 -44 -21.5 -73t-48.5 -48
q-22 -6 -52 -14t-62.5 -15.5t-65.5 -15t-61 -13.5q-7 -26 -11 -54.5t-4 -57.5q0 -45 15 -73.5t52 -28.5q41 0 79 35.5t76 95.5l26 -18q-36 -60 -72.5 -97t-79.5 -63q-24 -15 -47.5 -30.5t-42 -33t-30 -36t-11.5 -39.5q0 -31 26.5 -43t88.5 1zM330 483q-23 0 -48.5 -14.5
t-50 -40t-46 -60.5t-36.5 -77q22 5 43 10.5t38 11.5q40 13 66.5 29t42.5 33.5t22 35t6 34.5t-9.5 27.5t-27.5 10.5z" />
    <glyph glyph-name="edotaccent" unicode="&#x117;" horiz-adv-x="442" 
d="M143 -13q-26 0 -49 8.5t-40 25.5t-27 42t-10 57q0 42 14.5 87.5t39.5 90t58.5 84.5t71 70t77 48t76.5 18q46 0 71 -21t25 -56q0 -44 -21.5 -73t-48.5 -48q-22 -6 -52 -14t-62.5 -15.5t-65.5 -15t-61 -13.5q-7 -26 -11 -54.5t-4 -57.5q0 -45 15 -73.5t52 -28.5
q41 0 79 35.5t76 95.5l26 -18q-23 -36 -47.5 -67.5t-52 -55.5t-60 -37.5t-69.5 -13.5zM330 483q-23 0 -48.5 -14.5t-50 -40t-46 -60.5t-36.5 -77q22 5 43 10.5t38 11.5q40 13 66.5 29t42.5 33.5t22 35t6 34.5t-9.5 27.5t-27.5 10.5zM410 642q-23 0 -40 16t-17 42
q0 25 17 41.5t40 16.5q25 0 41.5 -16.5t16.5 -41.5q0 -26 -16.5 -42t-41.5 -16z" />
    <glyph glyph-name="gbreve" unicode="&#x11f;" horiz-adv-x="481" 
d="M196 158q-14 0 -27 2t-24 5l-27 -32q-11 -13 -10.5 -18t11.5 -12l165 -99q53 -32 77.5 -58.5t24.5 -56.5q0 -37 -18 -66t-52 -49t-81.5 -30.5t-105.5 -10.5q-51 0 -94 8.5t-74 25t-48.5 40t-17.5 53.5q0 25 15 46t40.5 40t58.5 35.5t70 31.5q-23 14 -40 30t-17 35
q0 16 11 28t37 28l61 37q-32 15 -49 43.5t-17 66.5q0 39 21.5 81t57 76.5t81.5 57t94 22.5q32 0 56 -9t41 -26v1l161 62l-29 -71q-5 -11 -11.5 -16t-22.5 -3l-86 14q22 -31 22 -75q0 -39 -21.5 -81t-57 -76.5t-81.5 -57t-94 -22.5zM227 189q27 0 50 19t39 49t25 67t9 73
q0 35 -14 61.5t-48 26.5q-27 0 -50 -19t-39 -49t-25 -67t-9 -73q0 -35 14 -61.5t48 -26.5zM-27 -124q0 -22 11 -41.5t34.5 -34.5t59.5 -23.5t86 -8.5q26 0 52.5 5t48.5 14t35.5 23t13.5 32q0 23 -21 42t-67 45l-124 71q-38 -15 -63 -30t-39.5 -31t-20.5 -31.5t-6 -31.5z
M356 628q-34 0 -62 10.5t-47 30.5t-25.5 50t2.5 69h54q-13 -53 9.5 -82.5t71.5 -29.5q22 0 42.5 4.5t38 17t31.5 34.5t23 56h56q-12 -48 -33 -79t-47 -49t-55.5 -25t-58.5 -7z" />
    <glyph glyph-name="gcircumflex" unicode="&#x11d;" horiz-adv-x="481" 
d="M196 158q-14 0 -27 2t-24 5l-27 -32q-11 -13 -10.5 -18t11.5 -12l165 -99q53 -32 77.5 -58.5t24.5 -56.5q0 -37 -18 -66t-52 -49t-81.5 -30.5t-105.5 -10.5q-51 0 -94 8.5t-74 25t-48.5 40t-17.5 53.5q0 25 15 46t40.5 40t58.5 35.5t70 31.5q-23 14 -40 30t-17 35
q0 16 11 28t37 28l61 37q-32 15 -49 43.5t-17 66.5q0 39 21.5 81t57 76.5t81.5 57t94 22.5q32 0 56 -9t41 -26v1l161 62l-29 -71q-5 -11 -11.5 -16t-22.5 -3l-86 14q22 -31 22 -75q0 -39 -21.5 -81t-57 -76.5t-81.5 -57t-94 -22.5zM227 189q27 0 50 19t39 49t25 67t9 73
q0 35 -14 61.5t-48 26.5q-27 0 -50 -19t-39 -49t-25 -67t-9 -73q0 -35 14 -61.5t48 -26.5zM-27 -124q0 -22 11 -41.5t34.5 -34.5t59.5 -23.5t86 -8.5q26 0 52.5 5t48.5 14t35.5 23t13.5 32q0 23 -21 42t-67 45l-124 71q-38 -15 -63 -30t-39.5 -31t-20.5 -31.5t-6 -31.5z
M496 609h-17l-87 96l-201 -96h-23l243 197h12z" />
    <glyph glyph-name="uni0123" unicode="&#x123;" horiz-adv-x="481" 
d="M196 158q-14 0 -27 2t-24 5l-27 -32q-11 -13 -10.5 -18t11.5 -12l165 -99q53 -32 77.5 -58.5t24.5 -56.5q0 -37 -18 -66t-52 -49t-81.5 -30.5t-105.5 -10.5q-51 0 -94 8.5t-74 25t-48.5 40t-17.5 53.5q0 25 15 46t40.5 40t58.5 35.5t70 31.5q-23 14 -40 30t-17 35
q0 16 11 28t37 28l61 37q-32 15 -49 43.5t-17 66.5q0 39 21.5 81t57 76.5t81.5 57t94 22.5q32 0 56 -9t41 -26v1l161 62l-29 -71q-5 -11 -11.5 -16t-22.5 -3l-86 14q22 -31 22 -75q0 -39 -21.5 -81t-57 -76.5t-81.5 -57t-94 -22.5zM227 189q27 0 50 19t39 49t25 67t9 73
q0 35 -14 61.5t-48 26.5q-27 0 -50 -19t-39 -49t-25 -67t-9 -73q0 -35 14 -61.5t48 -26.5zM-27 -124q0 -22 11 -41.5t34.5 -34.5t59.5 -23.5t86 -8.5q26 0 52.5 5t48.5 14t35.5 23t13.5 32q0 23 -21 42t-67 45l-124 71q-38 -15 -63 -30t-39.5 -31t-20.5 -31.5t-6 -31.5z
M372 598q-42 0 -67.5 28t-25.5 67q0 48 45.5 96.5t150.5 89.5l11 -22q-65 -30 -99 -64.5t-34 -68.5q0 -30 20.5 -45.5t54.5 -25.5q0 -26 -16 -40.5t-40 -14.5z" />
    <glyph glyph-name="gdotaccent" unicode="&#x121;" horiz-adv-x="481" 
d="M196 158q-14 0 -27 2t-24 5l-27 -32q-11 -13 -10.5 -18t11.5 -12l165 -99q53 -32 77.5 -58.5t24.5 -56.5q0 -37 -18 -66t-52 -49t-81.5 -30.5t-105.5 -10.5q-51 0 -94 8.5t-74 25t-48.5 40t-17.5 53.5q0 25 15 46t40.5 40t58.5 35.5t70 31.5q-23 14 -40 30t-17 35
q0 16 11 28t37 28l61 37q-32 15 -49 43.5t-17 66.5q0 39 21.5 81t57 76.5t81.5 57t94 22.5q32 0 56 -9t41 -26v1l161 62l-29 -71q-5 -11 -11.5 -16t-22.5 -3l-86 14q22 -31 22 -75q0 -39 -21.5 -81t-57 -76.5t-81.5 -57t-94 -22.5zM227 189q27 0 50 19t39 49t25 67t9 73
q0 35 -14 61.5t-48 26.5q-27 0 -50 -19t-39 -49t-25 -67t-9 -73q0 -35 14 -61.5t48 -26.5zM-27 -124q0 -22 11 -41.5t34.5 -34.5t59.5 -23.5t86 -8.5q26 0 52.5 5t48.5 14t35.5 23t13.5 32q0 23 -21 42t-67 45l-124 71q-38 -15 -63 -30t-39.5 -31t-20.5 -31.5t-6 -31.5z
M376 642q-23 0 -40 16t-17 42q0 25 17 41.5t40 16.5q25 0 41.5 -16.5t16.5 -41.5q0 -26 -16.5 -42t-41.5 -16z" />
    <glyph glyph-name="hbar" unicode="&#x127;" horiz-adv-x="593" 
d="M240 689q7 20 6 26t-14 12l-64 31l2 6l209 66l-140 -405l-33 -96h1q83 97 144 143t120 46q55 0 61 -44.5t-26 -124.5l-96 -236q-12 -29 -14.5 -45t9.5 -16q11 0 28 12t37 31.5t41 45t39 53.5l27 -16q-61 -94 -120 -142.5t-107 -48.5q-46 0 -54.5 27t14.5 85l96 236
q25 62 26 91t-25 29q-22 0 -58 -24t-75 -65.5t-75 -97.5t-58 -120l-43 -140l-102 -19zM131 654h296l-15 -43h-296z" />
    <glyph glyph-name="hcircumflex" unicode="&#x125;" horiz-adv-x="593" 
d="M240 689q7 20 6 26t-14 12l-64 31l2 6l209 66l-140 -405l-33 -96h1q83 97 144 143t120 46q55 0 61 -44.5t-26 -124.5l-96 -236q-12 -29 -14.5 -45t9.5 -16q11 0 28 12t37 31.5t41 45t39 53.5l27 -16q-61 -94 -120 -142.5t-107 -48.5q-46 0 -54.5 27t14.5 85l96 236
q25 62 26 91t-25 29q-22 0 -58 -24t-75 -65.5t-75 -97.5t-58 -120l-43 -140l-102 -19zM386 982l97 -149h-20l-103 66l-194 -66h-29l233 149h16z" />
    <glyph glyph-name="dotlessi" unicode="&#x131;" horiz-adv-x="337" 
d="M92 -13q-46 0 -54 27.5t15 84.5l124 310q7 17 2 20.5t-31 -0.5l-63 -9l-3 27l221 68l6 -6l-157 -396q-11 -29 -14 -45t9 -16q11 0 28 12t37 31.5t41 45t39 53.5l27 -16q-61 -94 -120 -142.5t-107 -48.5z" />
    <glyph glyph-name="ibreve" unicode="&#x12d;" horiz-adv-x="337" 
d="M92 -13q-46 0 -54 27.5t15 84.5l124 310q7 17 2 20.5t-31 -0.5l-63 -9l-3 27l221 68l6 -6l-157 -396q-11 -29 -14 -45t9 -16q11 0 28 12t37 31.5t41 45t39 53.5l27 -16q-61 -94 -120 -142.5t-107 -48.5zM310 628q-34 0 -62 10.5t-47 30.5t-25.5 50t2.5 69h54
q-13 -53 9.5 -82.5t71.5 -29.5q22 0 42.5 4.5t38 17t31.5 34.5t23 56h56q-12 -48 -33 -79t-47 -49t-55.5 -25t-58.5 -7z" />
    <glyph glyph-name="imacron" unicode="&#x12b;" horiz-adv-x="337" 
d="M92 -13q-46 0 -54 27.5t15 84.5l124 310q7 17 2 20.5t-31 -0.5l-63 -9l-3 27l221 68l6 -6l-157 -396q-11 -29 -14 -45t9 -16q11 0 28 12t37 31.5t41 45t39 53.5l27 -16q-61 -94 -120 -142.5t-107 -48.5zM192 735h294l-22 -65h-294z" />
    <glyph glyph-name="iogonek" unicode="&#x12f;" horiz-adv-x="337" 
d="M92 -13q-46 0 -54 27.5t15 84.5l124 310q7 17 2 20.5t-31 -0.5l-63 -9l-3 27l221 68l6 -6l-157 -396q-11 -29 -14 -45t9 -16q11 0 28 12t37 31.5t41 45t39 53.5l27 -16q-61 -94 -120 -142.5t-107 -48.5zM325 653q-29 0 -48.5 20t-19.5 49t19.5 48.5t48.5 19.5t49 -19.5
t20 -48.5t-20 -49t-49 -20zM126 -208q-18 -9 -44 -17.5t-58 -8.5q-43 0 -67.5 20.5t-24.5 52.5q0 24 16 46.5t41 43t54 38.5t55 33h41q-20 -14 -41.5 -30t-39 -33.5t-28.5 -36.5t-11 -38q0 -31 26.5 -43t88.5 1z" />
    <glyph glyph-name="itilde" unicode="&#x129;" horiz-adv-x="337" 
d="M92 -13q-46 0 -54 27.5t15 84.5l124 310q7 17 2 20.5t-31 -0.5l-63 -9l-3 27l221 68l6 -6l-157 -396q-11 -29 -14 -45t9 -16q11 0 28 12t37 31.5t41 45t39 53.5l27 -16q-61 -94 -120 -142.5t-107 -48.5zM137 647q13 67 43 104.5t78 37.5q24 0 45 -11t40.5 -24.5t39 -24.5
t40.5 -11q23 0 41.5 13t28.5 55h23q-11 -76 -38.5 -106.5t-72.5 -30.5q-26 0 -46.5 11t-39 23.5t-36.5 23.5t-40 11q-29 0 -51.5 -14.5t-33.5 -56.5h-21z" />
    <glyph glyph-name="uni1ECB" unicode="&#x1ecb;" horiz-adv-x="337" 
d="M92 -13q-46 0 -54 27.5t15 84.5l124 310q7 17 2 20.5t-31 -0.5l-63 -9l-3 27l221 68l6 -6l-157 -396q-11 -29 -14 -45t9 -16q11 0 28 12t37 31.5t41 45t39 53.5l27 -16q-61 -94 -120 -142.5t-107 -48.5zM325 653q-29 0 -48.5 20t-19.5 49t19.5 48.5t48.5 19.5t49 -19.5
t20 -48.5t-20 -49t-49 -20zM16 -231q-23 0 -40 16t-17 42q0 25 17 41.5t40 16.5q25 0 41.5 -16.5t16.5 -41.5q0 -26 -16.5 -42t-41.5 -16z" />
    <glyph glyph-name="uni0237" unicode="&#x237;" horiz-adv-x="291" 
d="M130 45q-13 -36 -24.5 -65t-24.5 -52.5t-30 -43t-42 -36.5q-17 -12 -39 -26t-47 -29.5t-51 -31t-50 -28.5l-13 24q43 31 75.5 55.5t58 53t46.5 66t42 93.5l143 387q6 17 1.5 20.5t-30.5 -0.5l-63 -9l-3 27l215 68l6 -6z" />
    <glyph glyph-name="jcircumflex" unicode="&#x135;" horiz-adv-x="291" 
d="M130 45q-13 -36 -24.5 -65t-24.5 -52.5t-30 -43t-42 -36.5q-17 -12 -39 -26t-47 -29.5t-51 -31t-50 -28.5l-13 24q43 31 75.5 55.5t58 53t46.5 66t42 93.5l143 387q6 17 1.5 20.5t-30.5 -0.5l-63 -9l-3 27l215 68l6 -6zM412 609h-17l-87 96l-201 -96h-23l243 197h12z" />
    <glyph glyph-name="uni0137" unicode="&#x137;" horiz-adv-x="588" 
d="M132 122l-34 -114l-102 -19l244 700q7 20 6 26t-14 12l-64 31l2 6l209 66zM378 -27q-23 0 -38 11t-31 40l-126 232l170 107q25 16 39.5 31.5t20.5 31.5t6.5 33.5t-0.5 37.5q3 9 17.5 15t29.5 6q20 0 36 -13t16 -33q0 -11 -3.5 -22t-18 -25.5t-42 -34.5t-75.5 -50
l-107 -66l127 -215q5 -9 11.5 -15.5t14.5 -6.5q9 0 22 10t28.5 27.5t32.5 41.5t34 51l27 -17q-30 -47 -54.5 -80t-47 -55t-44 -32t-45.5 -10zM153 -91q42 0 67.5 -28t25.5 -67q0 -48 -45.5 -96.5t-150.5 -89.5l-11 22q65 30 99 64.5t34 68.5q0 30 -20.5 45.5t-54.5 25.5
q0 26 16 40.5t40 14.5z" />
    <glyph glyph-name="lacute" unicode="&#x13a;" horiz-adv-x="312" 
d="M243 689q7 20 6 26t-14 12l-64 31l2 6l209 66l-250 -717q-11 -30 -14 -45.5t9 -15.5q11 0 28 12t37 31.5t41 45t39 53.5l27 -16q-61 -94 -120 -142.5t-107 -48.5q-46 0 -50 28t16 86zM467 1044h139l-1 -3l-268 -176h-19z" />
    <glyph glyph-name="lcaron" unicode="&#x13e;" horiz-adv-x="352" 
d="M243 689q7 20 6 26t-14 12l-64 31l2 6l209 66l-250 -717q-11 -30 -14 -45.5t9 -15.5q11 0 28 12t37 31.5t41 45t39 53.5l27 -16q-61 -94 -120 -142.5t-107 -48.5q-46 0 -50 28t16 86zM487 831q42 0 67.5 -28t25.5 -67q0 -48 -45.5 -96.5t-150.5 -89.5l-11 22
q65 30 99 64.5t34 68.5q0 30 -20.5 45.5t-54.5 25.5q0 26 16 40.5t40 14.5z" />
    <glyph glyph-name="uni013C" unicode="&#x13c;" horiz-adv-x="312" 
d="M243 689q7 20 6 26t-14 12l-64 31l2 6l209 66l-250 -717q-11 -30 -14 -45.5t9 -15.5q11 0 28 12t37 31.5t41 45t39 53.5l27 -16q-61 -94 -120 -142.5t-107 -48.5q-46 0 -50 28t16 86zM17 -91q42 0 67.5 -28t25.5 -67q0 -48 -45.5 -96.5t-150.5 -89.5l-11 22
q65 30 99 64.5t34 68.5q0 30 -20.5 45.5t-54.5 25.5q0 26 16 40.5t40 14.5z" />
    <glyph glyph-name="ldot" unicode="&#x140;" horiz-adv-x="401" 
d="M243 689q7 20 6 26t-14 12l-64 31l2 6l209 66l-250 -717q-11 -30 -14 -45.5t9 -15.5q11 0 28 12t37 31.5t41 45t39 53.5l27 -16q-61 -94 -120 -142.5t-107 -48.5q-46 0 -50 28t16 86zM393 369q-23 0 -40 16t-17 42q0 25 17 41.5t40 16.5q25 0 41.5 -16.5t16.5 -41.5
q0 -26 -16.5 -42t-41.5 -16z" />
    <glyph glyph-name="glyph298" horiz-adv-x="401" 
d="M243 689q7 20 6 26t-14 12l-64 31l2 6l209 66l-250 -717q-11 -30 -14 -45.5t9 -15.5q11 0 28 12t37 31.5t41 45t39 53.5l27 -16q-61 -94 -120 -142.5t-107 -48.5q-46 0 -50 28t16 86zM393 369q-23 0 -40 16t-17 42q0 25 17 41.5t40 16.5q25 0 41.5 -16.5t16.5 -41.5
q0 -26 -16.5 -42t-41.5 -16z" />
    <glyph glyph-name="lslash" unicode="&#x142;" horiz-adv-x="352" 
d="M263 689q7 20 6 26t-14 12l-64 31l2 6l209 66l-250 -717q-11 -30 -14 -45.5t9 -15.5q11 0 28 12t37 31.5t41 45t39 53.5l27 -16q-61 -94 -120 -142.5t-107 -48.5q-46 0 -50 28t16 86zM63 371l318 140l-17 -51l-319 -140z" />
    <glyph glyph-name="eng" unicode="&#x14b;" horiz-adv-x="571" 
d="M288 -152q-17 -12 -39 -26t-47 -29.5t-51 -31t-50 -28.5l-13 24q43 31 74 56t55.5 53.5t45 65.5t43.5 93l126 310q25 62 26 91t-25 29q-22 0 -58 -24t-75 -65.5t-75 -97.5t-58 -120l-48 -139l-106 -20l163 420q7 17 2 20.5t-31 -0.5l-63 -9l-3 27l221 68l6 -6l-71 -174h1
q78 91 139.5 137t119.5 46q55 0 61 -44.5t-26 -124.5l-123 -304q-15 -36 -26.5 -65t-24 -52.5t-29 -43t-41.5 -36.5z" />
    <glyph glyph-name="nacute" unicode="&#x144;" horiz-adv-x="619" 
d="M176 409q7 17 2 20.5t-31 -0.5l-63 -9l-3 27l221 68l6 -6l-71 -174h1q78 91 139.5 137t119.5 46q55 0 61 -44.5t-26 -124.5l-96 -236q-12 -29 -14.5 -45t9.5 -16q11 0 28 12t37 31.5t41 45t39 53.5l27 -16q-61 -94 -120 -142.5t-107 -48.5q-46 0 -54.5 27t14.5 85l96 236
q25 62 26 91t-25 29q-22 0 -58 -24t-75 -65.5t-75 -97.5t-58 -120l-48 -139l-106 -20zM547 788h139l-1 -3l-268 -176h-19z" />
    <glyph glyph-name="ncaron" unicode="&#x148;" horiz-adv-x="619" 
d="M176 409q7 17 2 20.5t-31 -0.5l-63 -9l-3 27l221 68l6 -6l-71 -174h1q78 91 139.5 137t119.5 46q55 0 61 -44.5t-26 -124.5l-96 -236q-12 -29 -14.5 -45t9.5 -16q11 0 28 12t37 31.5t41 45t39 53.5l27 -16q-61 -94 -120 -142.5t-107 -48.5q-46 0 -54.5 27t14.5 85l96 236
q25 62 26 91t-25 29q-22 0 -58 -24t-75 -65.5t-75 -97.5t-58 -120l-48 -139l-106 -20zM344 805h17l87 -96l201 96h23l-243 -196h-12z" />
    <glyph glyph-name="uni0146" unicode="&#x146;" horiz-adv-x="619" 
d="M176 409q7 17 2 20.5t-31 -0.5l-63 -9l-3 27l221 68l6 -6l-71 -174h1q78 91 139.5 137t119.5 46q55 0 61 -44.5t-26 -124.5l-96 -236q-12 -29 -14.5 -45t9.5 -16q11 0 28 12t37 31.5t41 45t39 53.5l27 -16q-61 -94 -120 -142.5t-107 -48.5q-46 0 -54.5 27t14.5 85l96 236
q25 62 26 91t-25 29q-22 0 -58 -24t-75 -65.5t-75 -97.5t-58 -120l-48 -139l-106 -20zM198 -91q42 0 67.5 -28t25.5 -67q0 -48 -45.5 -96.5t-150.5 -89.5l-11 22q65 30 99 64.5t34 68.5q0 30 -20.5 45.5t-54.5 25.5q0 26 16 40.5t40 14.5z" />
    <glyph glyph-name="oe" unicode="&#x153;" horiz-adv-x="780" 
d="M481 -13q-45 0 -78 24t-44 71q-43 -43 -91 -69t-95 -26q-42 0 -70.5 14t-46.5 36t-25.5 48.5t-7.5 52.5q0 46 15 91.5t40.5 88t59.5 79t71.5 63.5t76 42.5t74.5 15.5q32 0 55 -9.5t38 -25.5t23 -36.5t11 -42.5q48 51 101 82.5t104 31.5q46 0 71 -21t25 -56
q0 -44 -21.5 -73t-48.5 -48q-22 -6 -52 -14t-62.5 -15.5t-65.5 -15t-61 -13.5q-7 -26 -11 -54.5t-4 -57.5q0 -45 15 -73.5t52 -28.5q41 0 79 35.5t76 95.5l26 -18q-23 -36 -47.5 -67.5t-52 -55.5t-60 -37.5t-69.5 -13.5zM668 483q-23 0 -48.5 -14.5t-50 -40t-46 -60.5
t-36.5 -77q22 5 43 10.5t38 11.5q40 13 66.5 29t42.5 33.5t22 35t6 34.5t-9.5 27.5t-27.5 10.5zM337 478q-32 0 -60.5 -18.5t-51.5 -49t-41 -68.5t-30.5 -77t-19 -74.5t-6.5 -61.5q0 -54 17 -78t51 -24q33 0 61 18.5t51 49t41 68.5t30.5 77t19 74.5t6.5 61.5q0 54 -17 78
t-51 24z" />
    <glyph glyph-name="obreve" unicode="&#x14f;" horiz-adv-x="530" 
d="M173 -13q-42 0 -70.5 14t-46.5 36t-25.5 48.5t-7.5 52.5q0 46 15 91.5t40.5 88t59.5 79t71.5 63.5t76 42.5t74.5 15.5q42 0 70.5 -14t46.5 -36t25.5 -49t7.5 -52q0 -45 -15 -91t-40.5 -88.5t-59.5 -79t-71.5 -63.5t-76 -42.5t-74.5 -15.5zM196 27q33 0 61 18.5t51 49
t41 68.5t30.5 77t19 74.5t6.5 61.5q0 54 -17 78t-51 24q-32 0 -60.5 -18.5t-51.5 -49t-41 -68.5t-30.5 -77t-19 -74.5t-6.5 -61.5q0 -54 17 -78t51 -24zM407 628q-34 0 -62 10.5t-47 30.5t-25.5 50t2.5 69h54q-13 -53 9.5 -82.5t71.5 -29.5q22 0 42.5 4.5t38 17t31.5 34.5
t23 56h56q-12 -48 -33 -79t-47 -49t-55.5 -25t-58.5 -7z" />
    <glyph glyph-name="ohungarumlaut" unicode="&#x151;" horiz-adv-x="530" 
d="M173 -13q-42 0 -70.5 14t-46.5 36t-25.5 48.5t-7.5 52.5q0 46 15 91.5t40.5 88t59.5 79t71.5 63.5t76 42.5t74.5 15.5q42 0 70.5 -14t46.5 -36t25.5 -49t7.5 -52q0 -45 -15 -91t-40.5 -88.5t-59.5 -79t-71.5 -63.5t-76 -42.5t-74.5 -15.5zM196 27q33 0 61 18.5t51 49
t41 68.5t30.5 77t19 74.5t6.5 61.5q0 54 -17 78t-51 24q-32 0 -60.5 -18.5t-51.5 -49t-41 -68.5t-30.5 -77t-19 -74.5t-6.5 -61.5q0 -54 17 -78t51 -24zM629 788h139l-1 -3l-272 -176h-19zM431 788h139l-1 -3l-272 -176h-19z" />
    <glyph glyph-name="omacron" unicode="&#x14d;" horiz-adv-x="530" 
d="M173 -13q-42 0 -70.5 14t-46.5 36t-25.5 48.5t-7.5 52.5q0 46 15 91.5t40.5 88t59.5 79t71.5 63.5t76 42.5t74.5 15.5q42 0 70.5 -14t46.5 -36t25.5 -49t7.5 -52q0 -45 -15 -91t-40.5 -88.5t-59.5 -79t-71.5 -63.5t-76 -42.5t-74.5 -15.5zM196 27q33 0 61 18.5t51 49
t41 68.5t30.5 77t19 74.5t6.5 61.5q0 54 -17 78t-51 24q-32 0 -60.5 -18.5t-51.5 -49t-41 -68.5t-30.5 -77t-19 -74.5t-6.5 -61.5q0 -54 17 -78t51 -24zM289 735h294l-22 -65h-294z" />
    <glyph glyph-name="uni1ECD" unicode="&#x1ecd;" horiz-adv-x="530" 
d="M173 -13q-42 0 -70.5 14t-46.5 36t-25.5 48.5t-7.5 52.5q0 46 15 91.5t40.5 88t59.5 79t71.5 63.5t76 42.5t74.5 15.5q42 0 70.5 -14t46.5 -36t25.5 -49t7.5 -52q0 -45 -15 -91t-40.5 -88.5t-59.5 -79t-71.5 -63.5t-76 -42.5t-74.5 -15.5zM196 27q33 0 61 18.5t51 49
t41 68.5t30.5 77t19 74.5t6.5 61.5q0 54 -17 78t-51 24q-32 0 -60.5 -18.5t-51.5 -49t-41 -68.5t-30.5 -77t-19 -74.5t-6.5 -61.5q0 -54 17 -78t51 -24zM127 -231q-23 0 -40 16t-17 42q0 25 17 41.5t40 16.5q25 0 41.5 -16.5t16.5 -41.5q0 -26 -16.5 -42t-41.5 -16z" />
    <glyph glyph-name="racute" unicode="&#x155;" horiz-adv-x="450" 
d="M176 409q7 17 2 20.5t-31 -0.5l-63 -9l-3 27l221 68l6 -6q-28 -64 -51 -118q-10 -23 -19.5 -46t-18 -43t-15 -35.5t-9.5 -22.5h2q32 59 63 104t59 80q36 45 67.5 66.5t62.5 21.5q26 0 43.5 -14t17.5 -37q0 -25 -12.5 -39.5t-26.5 -19.5q-46 20 -78 27q-11 2 -16 0.5
t-13 -6.5q-20 -14 -41 -39q-35 -42 -82.5 -115t-89.5 -173l-30 -91l-108 -20zM513 788h139l-1 -3l-268 -176h-19z" />
    <glyph glyph-name="rcaron" unicode="&#x159;" horiz-adv-x="450" 
d="M176 409q7 17 2 20.5t-31 -0.5l-63 -9l-3 27l221 68l6 -6q-28 -64 -51 -118q-10 -23 -19.5 -46t-18 -43t-15 -35.5t-9.5 -22.5h2q32 59 63 104t59 80q36 45 67.5 66.5t62.5 21.5q26 0 43.5 -14t17.5 -37q0 -25 -12.5 -39.5t-26.5 -19.5q-46 20 -78 27q-11 2 -16 0.5
t-13 -6.5q-20 -14 -41 -39q-35 -42 -82.5 -115t-89.5 -173l-30 -91l-108 -20zM310 805h17l87 -96l201 96h23l-243 -196h-12z" />
    <glyph glyph-name="uni0157" unicode="&#x157;" horiz-adv-x="450" 
d="M176 409q7 17 2 20.5t-31 -0.5l-63 -9l-3 27l221 68l6 -6q-28 -64 -51 -118q-10 -23 -19.5 -46t-18 -43t-15 -35.5t-9.5 -22.5h2q32 59 63 104t59 80q36 45 67.5 66.5t62.5 21.5q26 0 43.5 -14t17.5 -37q0 -25 -12.5 -39.5t-26.5 -19.5q-46 20 -78 27q-11 2 -16 0.5
t-13 -6.5q-20 -14 -41 -39q-35 -42 -82.5 -115t-89.5 -173l-30 -91l-108 -20zM20 -91q42 0 67.5 -28t25.5 -67q0 -48 -45.5 -96.5t-150.5 -89.5l-11 22q65 30 99 64.5t34 68.5q0 30 -20.5 45.5t-54.5 25.5q0 26 16 40.5t40 14.5z" />
    <glyph glyph-name="sacute" unicode="&#x15b;" horiz-adv-x="401" 
d="M98 -13q-22 0 -43 6.5t-37 18t-25.5 27t-9.5 32.5q0 18 12.5 32.5t37.5 16.5q16 -17 30 -32.5t29 -27.5t30.5 -19t34.5 -7q32 0 52.5 17.5t20.5 48.5q0 18 -8.5 41t-26.5 48l-43 58q-18 26 -28.5 55t-10.5 59q0 35 17 64t44.5 49.5t61.5 32t68 11.5q21 0 41 -5.5
t35.5 -15.5t25 -23.5t9.5 -28.5q0 -19 -13.5 -34t-37.5 -17q-23 32 -52.5 56t-64.5 24q-29 0 -46.5 -15.5t-17.5 -39.5q0 -22 9 -43.5t29 -49.5l41 -58q25 -36 35.5 -62t10.5 -57q0 -34 -19 -63.5t-49 -51.5t-67.5 -34.5t-74.5 -12.5zM460 788h139l-1 -3l-268 -176h-19z" />
    <glyph glyph-name="scaron" unicode="&#x161;" horiz-adv-x="401" 
d="M98 -13q-22 0 -43 6.5t-37 18t-25.5 27t-9.5 32.5q0 18 12.5 32.5t37.5 16.5q16 -17 30 -32.5t29 -27.5t30.5 -19t34.5 -7q32 0 52.5 17.5t20.5 48.5q0 18 -8.5 41t-26.5 48l-43 58q-18 26 -28.5 55t-10.5 59q0 35 17 64t44.5 49.5t61.5 32t68 11.5q21 0 41 -5.5
t35.5 -15.5t25 -23.5t9.5 -28.5q0 -19 -13.5 -34t-37.5 -17q-23 32 -52.5 56t-64.5 24q-29 0 -46.5 -15.5t-17.5 -39.5q0 -22 9 -43.5t29 -49.5l41 -58q25 -36 35.5 -62t10.5 -57q0 -34 -19 -63.5t-49 -51.5t-67.5 -34.5t-74.5 -12.5zM257 805h17l87 -96l201 96h23
l-243 -196h-12z" />
    <glyph glyph-name="scedilla" unicode="&#x15f;" horiz-adv-x="401" 
d="M98 -13q-22 0 -43 6.5t-37 18t-25.5 27t-9.5 32.5q0 18 12.5 32.5t37.5 16.5q16 -17 30 -32.5t29 -27.5t30.5 -19t34.5 -7q32 0 52.5 17.5t20.5 48.5q0 18 -8.5 41t-26.5 48l-43 58q-18 26 -28.5 55t-10.5 59q0 35 17 64t44.5 49.5t61.5 32t68 11.5q21 0 41 -5.5
t35.5 -15.5t25 -23.5t9.5 -28.5q0 -19 -13.5 -34t-37.5 -17q-23 32 -52.5 56t-64.5 24q-29 0 -46.5 -15.5t-17.5 -39.5q0 -22 9 -43.5t29 -49.5l41 -58q25 -36 35.5 -62t10.5 -57q0 -34 -19 -63.5t-49 -51.5t-67.5 -34.5t-74.5 -12.5zM6 -260q-43 0 -66 18.5t-23 40.5
q0 18 15.5 29t39.5 4q2 -32 17.5 -47.5t41.5 -15.5q18 0 30 7.5t12 22.5q0 16 -24 38t-64 49l145 114h43l-102 -81q29 -19 45.5 -40t16.5 -44q0 -16 -9 -32.5t-25.5 -30.5t-40 -23t-52.5 -9z" />
    <glyph glyph-name="scircumflex" unicode="&#x15d;" horiz-adv-x="401" 
d="M98 -13q-22 0 -43 6.5t-37 18t-25.5 27t-9.5 32.5q0 18 12.5 32.5t37.5 16.5q16 -17 30 -32.5t29 -27.5t30.5 -19t34.5 -7q32 0 52.5 17.5t20.5 48.5q0 18 -8.5 41t-26.5 48l-43 58q-18 26 -28.5 55t-10.5 59q0 35 17 64t44.5 49.5t61.5 32t68 11.5q21 0 41 -5.5
t35.5 -15.5t25 -23.5t9.5 -28.5q0 -19 -13.5 -34t-37.5 -17q-23 32 -52.5 56t-64.5 24q-29 0 -46.5 -15.5t-17.5 -39.5q0 -22 9 -43.5t29 -49.5l41 -58q25 -36 35.5 -62t10.5 -57q0 -34 -19 -63.5t-49 -51.5t-67.5 -34.5t-74.5 -12.5zM494 609h-17l-87 96l-201 -96h-23
l243 197h12z" />
    <glyph glyph-name="uni0219" unicode="&#x219;" horiz-adv-x="401" 
d="M98 -13q-22 0 -43 6.5t-37 18t-25.5 27t-9.5 32.5q0 18 12.5 32.5t37.5 16.5q16 -17 30 -32.5t29 -27.5t30.5 -19t34.5 -7q32 0 52.5 17.5t20.5 48.5q0 18 -8.5 41t-26.5 48l-43 58q-18 26 -28.5 55t-10.5 59q0 35 17 64t44.5 49.5t61.5 32t68 11.5q21 0 41 -5.5
t35.5 -15.5t25 -23.5t9.5 -28.5q0 -19 -13.5 -34t-37.5 -17q-23 32 -52.5 56t-64.5 24q-29 0 -46.5 -15.5t-17.5 -39.5q0 -22 9 -43.5t29 -49.5l41 -58q25 -36 35.5 -62t10.5 -57q0 -34 -19 -63.5t-49 -51.5t-67.5 -34.5t-74.5 -12.5zM65 -91q42 0 67.5 -28t25.5 -67
q0 -48 -45.5 -96.5t-150.5 -89.5l-11 22q65 30 99 64.5t34 68.5q0 30 -20.5 45.5t-54.5 25.5q0 26 16 40.5t40 14.5z" />
    <glyph glyph-name="tbar" unicode="&#x167;" horiz-adv-x="423" 
d="M169 113q-12 -30 -10.5 -45.5t20.5 -15.5q12 0 31 12t40.5 31.5t43.5 45t40 53.5l27 -16q-61 -94 -123.5 -142.5t-113.5 -48.5q-46 0 -60 26.5t9 85.5l134 351h-106l19 52h107l39 100h89l-38 -100h140l-20 -52h-140zM70 371h336l-16 -43h-336z" />
    <glyph glyph-name="tcaron" unicode="&#x165;" horiz-adv-x="383" 
d="M149 113q-12 -30 -10.5 -45.5t20.5 -15.5q12 0 31 12t40.5 31.5t43.5 45t40 53.5l27 -16q-61 -94 -123.5 -142.5t-113.5 -48.5q-46 0 -60 26.5t9 85.5l134 351h-106l19 52h107l39 100h89l-38 -100h140l-20 -52h-140zM508 841q42 0 67.5 -28t25.5 -67q0 -48 -45.5 -96.5
t-150.5 -89.5l-11 22q65 30 99 64.5t34 68.5q0 30 -20.5 45.5t-54.5 25.5q0 26 16 40.5t40 14.5z" />
    <glyph glyph-name="uni0163" unicode="&#x163;" horiz-adv-x="383" 
d="M149 113q-12 -30 -10.5 -45.5t20.5 -15.5q12 0 31 12t40.5 31.5t43.5 45t40 53.5l27 -16q-61 -94 -123.5 -142.5t-113.5 -48.5q-46 0 -60 26.5t9 85.5l134 351h-106l19 52h107l39 100h89l-38 -100h140l-20 -52h-140zM34 -91q42 0 67.5 -28t25.5 -67q0 -48 -45.5 -96.5
t-150.5 -89.5l-11 22q65 30 99 64.5t34 68.5q0 30 -20.5 45.5t-54.5 25.5q0 26 16 40.5t40 14.5z" />
    <glyph glyph-name="uni021B" unicode="&#x21b;" horiz-adv-x="383" 
d="M149 113q-12 -30 -10.5 -45.5t20.5 -15.5q12 0 31 12t40.5 31.5t43.5 45t40 53.5l27 -16q-61 -94 -123.5 -142.5t-113.5 -48.5q-46 0 -60 26.5t9 85.5l134 351h-106l19 52h107l39 100h89l-38 -100h140l-20 -52h-140zM34 -91q42 0 67.5 -28t25.5 -67q0 -48 -45.5 -96.5
t-150.5 -89.5l-11 22q65 30 99 64.5t34 68.5q0 30 -20.5 45.5t-54.5 25.5q0 26 16 40.5t40 14.5z" />
    <glyph glyph-name="ubreve" unicode="&#x16d;" horiz-adv-x="615" 
d="M367 170h-2q-76 -90 -139 -136.5t-121 -46.5q-55 0 -61 44.5t26 124.5l104 253q7 17 2 20.5t-31 -0.5l-63 -9l-3 27l223 68l6 -6l-138 -339q-25 -62 -26 -91t25 -29q23 0 59.5 24.5t76 68.5t77.5 106t63 137l38 110l106 20l-155 -403q-11 -29 -14 -45t9 -16q11 0 28 12
t37 31.5t41 45t39 53.5l27 -16q-61 -94 -120 -142.5t-107 -48.5q-46 0 -50 27t17 85zM447 628q-34 0 -62 10.5t-47 30.5t-25.5 50t2.5 69h54q-13 -53 9.5 -82.5t71.5 -29.5q22 0 42.5 4.5t38 17t31.5 34.5t23 56h56q-12 -48 -33 -79t-47 -49t-55.5 -25t-58.5 -7z" />
    <glyph glyph-name="uhungarumlaut" unicode="&#x171;" horiz-adv-x="615" 
d="M367 170h-2q-76 -90 -139 -136.5t-121 -46.5q-55 0 -61 44.5t26 124.5l104 253q7 17 2 20.5t-31 -0.5l-63 -9l-3 27l223 68l6 -6l-138 -339q-25 -62 -26 -91t25 -29q23 0 59.5 24.5t76 68.5t77.5 106t63 137l38 110l106 20l-155 -403q-11 -29 -14 -45t9 -16q11 0 28 12
t37 31.5t41 45t39 53.5l27 -16q-61 -94 -120 -142.5t-107 -48.5q-46 0 -50 27t17 85zM669 788h139l-1 -3l-272 -176h-19zM471 788h139l-1 -3l-272 -176h-19z" />
    <glyph glyph-name="umacron" unicode="&#x16b;" horiz-adv-x="615" 
d="M367 170h-2q-76 -90 -139 -136.5t-121 -46.5q-55 0 -61 44.5t26 124.5l104 253q7 17 2 20.5t-31 -0.5l-63 -9l-3 27l223 68l6 -6l-138 -339q-25 -62 -26 -91t25 -29q23 0 59.5 24.5t76 68.5t77.5 106t63 137l38 110l106 20l-155 -403q-11 -29 -14 -45t9 -16q11 0 28 12
t37 31.5t41 45t39 53.5l27 -16q-61 -94 -120 -142.5t-107 -48.5q-46 0 -50 27t17 85zM329 735h294l-22 -65h-294z" />
    <glyph glyph-name="uogonek" unicode="&#x173;" horiz-adv-x="615" 
d="M367 170h-2q-76 -90 -139 -136.5t-121 -46.5q-55 0 -61 44.5t26 124.5l104 253q7 17 2 20.5t-31 -0.5l-63 -9l-3 27l223 68l6 -6l-138 -339q-25 -62 -26 -91t25 -29q23 0 59.5 24.5t76 68.5t77.5 106t63 137l38 110l106 20l-155 -403q-11 -29 -14 -45t9 -16q11 0 28 12
t37 31.5t41 45t39 53.5l27 -16q-48 -74 -95.5 -119.5t-89.5 -62.5q-20 -13 -40 -29t-36 -33t-26.5 -35.5t-10.5 -36.5q0 -31 26.5 -43t88.5 1l-8 -28q-18 -9 -44 -17.5t-58 -8.5q-43 0 -67.5 20.5t-24.5 52.5q0 22 14 42.5t35.5 39t48 35.5t51.5 32q-39 2 -41.5 29t17.5 82z
" />
    <glyph glyph-name="uring" unicode="&#x16f;" horiz-adv-x="615" 
d="M367 170h-2q-76 -90 -139 -136.5t-121 -46.5q-55 0 -61 44.5t26 124.5l104 253q7 17 2 20.5t-31 -0.5l-63 -9l-3 27l223 68l6 -6l-138 -339q-25 -62 -26 -91t25 -29q23 0 59.5 24.5t76 68.5t77.5 106t63 137l38 110l106 20l-155 -403q-11 -29 -14 -45t9 -16q11 0 28 12
t37 31.5t41 45t39 53.5l27 -16q-61 -94 -120 -142.5t-107 -48.5q-46 0 -50 27t17 85zM344 706q0 25 9.5 46.5t26.5 38t39 26t48 9.5t49 -9.5t40 -26t26.5 -38t9.5 -46.5t-9.5 -46.5t-26.5 -37.5t-40 -25t-49 -9t-48 9t-39 25t-26.5 37.5t-9.5 46.5zM537 706q0 32 -18.5 51
t-51.5 19q-32 0 -50 -19t-18 -51t18 -51t50 -19q33 0 51.5 19t18.5 51z" />
    <glyph glyph-name="utilde" unicode="&#x169;" horiz-adv-x="615" 
d="M367 170h-2q-76 -90 -139 -136.5t-121 -46.5q-55 0 -61 44.5t26 124.5l104 253q7 17 2 20.5t-31 -0.5l-63 -9l-3 27l223 68l6 -6l-138 -339q-25 -62 -26 -91t25 -29q23 0 59.5 24.5t76 68.5t77.5 106t63 137l38 110l106 20l-155 -403q-11 -29 -14 -45t9 -16q11 0 28 12
t37 31.5t41 45t39 53.5l27 -16q-61 -94 -120 -142.5t-107 -48.5q-46 0 -50 27t17 85zM274 647q13 67 43 104.5t78 37.5q24 0 45 -11t40.5 -24.5t39 -24.5t40.5 -11q23 0 41.5 13t28.5 55h23q-11 -76 -38.5 -106.5t-72.5 -30.5q-26 0 -46.5 11t-39 23.5t-36.5 23.5t-40 11
q-29 0 -51.5 -14.5t-33.5 -56.5h-21z" />
    <glyph glyph-name="uni1EE5" unicode="&#x1ee5;" horiz-adv-x="615" 
d="M367 170h-2q-76 -90 -139 -136.5t-121 -46.5q-55 0 -61 44.5t26 124.5l104 253q7 17 2 20.5t-31 -0.5l-63 -9l-3 27l223 68l6 -6l-138 -339q-25 -62 -26 -91t25 -29q23 0 59.5 24.5t76 68.5t77.5 106t63 137l38 110l106 20l-155 -403q-11 -29 -14 -45t9 -16q11 0 28 12
t37 31.5t41 45t39 53.5l27 -16q-61 -94 -120 -142.5t-107 -48.5q-46 0 -50 27t17 85zM183 -231q-23 0 -40 16t-17 42q0 25 17 41.5t40 16.5q25 0 41.5 -16.5t16.5 -41.5q0 -26 -16.5 -42t-41.5 -16z" />
    <glyph glyph-name="wacute" unicode="&#x1e83;" horiz-adv-x="769" 
d="M275 509q-13 -42 -26.5 -93t-25.5 -104.5t-21 -106.5t-12 -100q65 53 117.5 113t96.5 117q4 38 8 73t9 64l91 43q-15 -94 -24.5 -194.5t-14.5 -215.5q33 37 65.5 70t61.5 65.5t53 65t40 67.5q11 23 11 51t-13 66q7 13 22 20.5t35 7.5q25 0 38.5 -15.5t13.5 -35.5
q0 -28 -17 -58.5t-47 -69.5q-41 -55 -78 -95.5t-73.5 -77t-74 -75.5t-79.5 -91h-49q2 54 6 125t10 143q-26 -32 -59 -68t-69 -71.5t-71.5 -68.5t-65.5 -60h-44q10 117 27 214.5t39 182.5q6 23 -0.5 29t-28.5 2l-60 -11l-6 26l209 72zM623 788h139l-1 -3l-268 -176h-19z" />
    <glyph glyph-name="wcircumflex" unicode="&#x175;" horiz-adv-x="769" 
d="M275 509q-13 -42 -26.5 -93t-25.5 -104.5t-21 -106.5t-12 -100q65 53 117.5 113t96.5 117q4 38 8 73t9 64l91 43q-15 -94 -24.5 -194.5t-14.5 -215.5q33 37 65.5 70t61.5 65.5t53 65t40 67.5q11 23 11 51t-13 66q7 13 22 20.5t35 7.5q25 0 38.5 -15.5t13.5 -35.5
q0 -28 -17 -58.5t-47 -69.5q-41 -55 -78 -95.5t-73.5 -77t-74 -75.5t-79.5 -91h-49q2 54 6 125t10 143q-26 -32 -59 -68t-69 -71.5t-71.5 -68.5t-65.5 -60h-44q10 117 27 214.5t39 182.5q6 23 -0.5 29t-28.5 2l-60 -11l-6 26l209 72zM657 609h-17l-87 96l-201 -96h-23
l243 197h12z" />
    <glyph glyph-name="wdieresis" unicode="&#x1e85;" horiz-adv-x="769" 
d="M275 509q-13 -42 -26.5 -93t-25.5 -104.5t-21 -106.5t-12 -100q65 53 117.5 113t96.5 117q4 38 8 73t9 64l91 43q-15 -94 -24.5 -194.5t-14.5 -215.5q33 37 65.5 70t61.5 65.5t53 65t40 67.5q11 23 11 51t-13 66q7 13 22 20.5t35 7.5q25 0 38.5 -15.5t13.5 -35.5
q0 -28 -17 -58.5t-47 -69.5q-41 -55 -78 -95.5t-73.5 -77t-74 -75.5t-79.5 -91h-49q2 54 6 125t10 143q-26 -32 -59 -68t-69 -71.5t-71.5 -68.5t-65.5 -60h-44q10 117 27 214.5t39 182.5q6 23 -0.5 29t-28.5 2l-60 -11l-6 26l209 72zM660 662q-23 0 -40 16t-17 42
q0 25 17 41.5t40 16.5q25 0 41.5 -16.5t16.5 -41.5q0 -26 -16.5 -42t-41.5 -16zM425 662q-23 0 -40 16t-17 42q0 25 17 41.5t40 16.5q25 0 41.5 -16.5t16.5 -41.5q0 -26 -16.5 -42t-41.5 -16z" />
    <glyph glyph-name="wgrave" unicode="&#x1e81;" horiz-adv-x="769" 
d="M275 509q-13 -42 -26.5 -93t-25.5 -104.5t-21 -106.5t-12 -100q65 53 117.5 113t96.5 117q4 38 8 73t9 64l91 43q-15 -94 -24.5 -194.5t-14.5 -215.5q33 37 65.5 70t61.5 65.5t53 65t40 67.5q11 23 11 51t-13 66q7 13 22 20.5t35 7.5q25 0 38.5 -15.5t13.5 -35.5
q0 -28 -17 -58.5t-47 -69.5q-41 -55 -78 -95.5t-73.5 -77t-74 -75.5t-79.5 -91h-49q2 54 6 125t10 143q-26 -32 -59 -68t-69 -71.5t-71.5 -68.5t-65.5 -60h-44q10 117 27 214.5t39 182.5q6 23 -0.5 29t-28.5 2l-60 -11l-6 26l209 72zM496 609l-146 176l1 3h116l43 -179h-14z
" />
    <glyph glyph-name="ycircumflex" unicode="&#x177;" horiz-adv-x="547" 
d="M250 128l151 209q37 52 63 86.5t46 55.5t36 30t33 9q18 0 30.5 -12t12.5 -32q0 -12 -3.5 -22.5t-10.5 -15.5q-30 -9 -53 -18.5t-44.5 -24.5t-43.5 -39t-50 -63l-198 -279q-18 -24 -39 -53t-44.5 -57.5t-48 -55.5t-48.5 -48q-44 -39 -70 -52t-52 -13q-25 0 -35.5 12.5
t-10.5 28.5q0 17 6.5 29t17.5 16q15 -1 32 -1t33 2t30 5.5t22 9.5q39 26 76 69.5t73 100.5l-1 401q0 23 -5.5 26.5t-23.5 0.5l-60 -13l-6 26l182 72l6 -6zM572 609h-17l-87 96l-201 -96h-23l243 197h12z" />
    <glyph glyph-name="ygrave" unicode="&#x1ef3;" horiz-adv-x="547" 
d="M250 128l151 209q37 52 63 86.5t46 55.5t36 30t33 9q18 0 30.5 -12t12.5 -32q0 -12 -3.5 -22.5t-10.5 -15.5q-30 -9 -53 -18.5t-44.5 -24.5t-43.5 -39t-50 -63l-198 -279q-18 -24 -39 -53t-44.5 -57.5t-48 -55.5t-48.5 -48q-44 -39 -70 -52t-52 -13q-25 0 -35.5 12.5
t-10.5 28.5q0 17 6.5 29t17.5 16q15 -1 32 -1t33 2t30 5.5t22 9.5q39 26 76 69.5t73 100.5l-1 401q0 23 -5.5 26.5t-23.5 0.5l-60 -13l-6 26l182 72l6 -6zM411 609l-146 176l1 3h116l43 -179h-14z" />
    <glyph glyph-name="uni0233" unicode="&#x233;" horiz-adv-x="547" 
d="M250 128l151 209q37 52 63 86.5t46 55.5t36 30t33 9q18 0 30.5 -12t12.5 -32q0 -12 -3.5 -22.5t-10.5 -15.5q-30 -9 -53 -18.5t-44.5 -24.5t-43.5 -39t-50 -63l-198 -279q-18 -24 -39 -53t-44.5 -57.5t-48 -55.5t-48.5 -48q-44 -39 -70 -52t-52 -13q-25 0 -35.5 12.5
t-10.5 28.5q0 17 6.5 29t17.5 16q15 -1 32 -1t33 2t30 5.5t22 9.5q39 26 76 69.5t73 100.5l-1 401q0 23 -5.5 26.5t-23.5 0.5l-60 -13l-6 26l182 72l6 -6zM314 735h294l-22 -65h-294z" />
    <glyph glyph-name="zacute" unicode="&#x17a;" horiz-adv-x="523" 
d="M328 -37q-24 0 -53 13t-62.5 31t-70 37t-73.5 31q-2 -30 -9 -47.5t-15.5 -26.5t-17 -11.5t-14.5 -2.5q-14 0 -23 8.5t-9 22.5q0 16 12 34t46 47l343 293q-36 9 -66.5 20.5t-55 21.5t-43.5 16.5t-32 6.5q-16 0 -26 -7.5t-10 -23.5q0 -13 5.5 -23t13.5 -18t16 -15t14 -13
q0 -19 -15 -31t-36 -12q-27 0 -41.5 16.5t-14.5 40.5t9.5 43t24.5 34.5t33.5 28t36.5 23.5q20 13 34.5 17t26.5 2q18 -3 42 -11.5t49.5 -17t49.5 -15.5t42 -7q15 0 29 5.5t26 13.5t23 17t20 17l22 -25l-419 -359q31 -10 60 -25t56.5 -29.5t52 -24.5t46.5 -10q35 0 53.5 19
t35.5 59l28 -10q-32 -77 -63.5 -115t-80.5 -38zM501 788h139l-1 -3l-268 -176h-19z" />
    <glyph glyph-name="zcaron" unicode="&#x17e;" horiz-adv-x="523" 
d="M328 -37q-24 0 -53 13t-62.5 31t-70 37t-73.5 31q-2 -30 -9 -47.5t-15.5 -26.5t-17 -11.5t-14.5 -2.5q-14 0 -23 8.5t-9 22.5q0 16 12 34t46 47l343 293q-36 9 -66.5 20.5t-55 21.5t-43.5 16.5t-32 6.5q-16 0 -26 -7.5t-10 -23.5q0 -13 5.5 -23t13.5 -18t16 -15t14 -13
q0 -19 -15 -31t-36 -12q-27 0 -41.5 16.5t-14.5 40.5t9.5 43t24.5 34.5t33.5 28t36.5 23.5q20 13 34.5 17t26.5 2q18 -3 42 -11.5t49.5 -17t49.5 -15.5t42 -7q15 0 29 5.5t26 13.5t23 17t20 17l22 -25l-419 -359q31 -10 60 -25t56.5 -29.5t52 -24.5t46.5 -10q35 0 53.5 19
t35.5 59l28 -10q-32 -77 -63.5 -115t-80.5 -38zM298 805h17l87 -96l201 96h23l-243 -196h-12z" />
    <glyph glyph-name="zdotaccent" unicode="&#x17c;" horiz-adv-x="523" 
d="M328 -37q-24 0 -53 13t-62.5 31t-70 37t-73.5 31q-2 -30 -9 -47.5t-15.5 -26.5t-17 -11.5t-14.5 -2.5q-14 0 -23 8.5t-9 22.5q0 16 12 34t46 47l343 293q-36 9 -66.5 20.5t-55 21.5t-43.5 16.5t-32 6.5q-16 0 -26 -7.5t-10 -23.5q0 -13 5.5 -23t13.5 -18t16 -15t14 -13
q0 -19 -15 -31t-36 -12q-27 0 -41.5 16.5t-14.5 40.5t9.5 43t24.5 34.5t33.5 28t36.5 23.5q20 13 34.5 17t26.5 2q18 -3 42 -11.5t49.5 -17t49.5 -15.5t42 -7q15 0 29 5.5t26 13.5t23 17t20 17l22 -25l-419 -359q31 -10 60 -25t56.5 -29.5t52 -24.5t46.5 -10q35 0 53.5 19
t35.5 59l28 -10q-32 -77 -63.5 -115t-80.5 -38zM415 642q-23 0 -40 16t-17 42q0 25 17 41.5t40 16.5q25 0 41.5 -16.5t16.5 -41.5q0 -26 -16.5 -42t-41.5 -16z" />
    <glyph glyph-name="uni0259" unicode="&#x259;" horiz-adv-x="443" 
d="M303.981 519.969q25.998 0 48.9971 -8.5q22.998 -8.49902 39.9971 -25.498t26.999 -41.998q9.99902 -24.998 9.99902 -56.9961q0 -41.998 -14.499 -87.4951t-39.498 -89.9941q-24.998 -44.4971 -58.4961 -84.4951q-33.498 -39.9971 -70.9951 -69.9951
q-37.498 -29.999 -76.9961 -47.9971q-39.4971 -17.999 -76.4951 -17.999q-45.9971 0 -70.9951 20.998q-24.999 20.999 -24.999 55.9971q0 43.9971 21.499 72.9951q21.499 28.999 48.4971 47.9971q21.998 6 51.9971 13.999q29.998 8 62.4961 15.499q32.498 7.5 65.4961 15
q32.9971 7.49902 60.9961 13.499q6.99902 25.998 10.999 54.4961q4 28.499 4 57.4971q0 44.9971 -14.999 73.4951t-51.9971 28.498q-40.9971 0 -78.9951 -35.4971q-37.998 -35.498 -75.9951 -95.4941l-25.999 17.998q22.999 35.998 47.4971 67.4961
q24.499 31.498 51.9971 55.4971q27.498 23.998 59.9961 37.4971q32.498 13.5 69.4961 13.5zM116.993 23.998q22.998 0 48.4971 14.5q25.498 14.499 49.9971 39.9971q24.498 25.499 45.9971 60.4961q21.498 34.998 36.4971 76.9951q-21.998 -4.99902 -42.9971 -10.499
q-20.999 -5.49902 -37.998 -11.499q-39.9971 -12.999 -66.4951 -28.998q-26.499 -15.999 -42.498 -33.498t-21.998 -34.998q-6 -17.499 -6 -34.498t9.49902 -27.498q9.5 -10.5 27.499 -10.5z" />
    <glyph glyph-name="uni0410" unicode="&#x410;" horiz-adv-x="749" 
d="M-95 35l38 2q15 1 28 7t27.5 19t31 33t38.5 49l479 636h36l27 -720q1 -15 8 -18t33 -5l33 -3l-10 -35h-276l10 35l48 3q28 1 38 6t9 29l-6 197h-269l-93 -127q-23 -31 -36 -51t-15.5 -32t5.5 -17t27 -6l44 -2l-10 -35h-255zM495 319l-9 301l-222 -301h231z" />
    <glyph glyph-name="uni0411" unicode="&#x411;" horiz-adv-x="696" 
d="M380 436q137 0 206.5 -46t69.5 -137q0 -52 -24.5 -98t-73 -80.5t-120.5 -54.5t-166 -20h-296l11 35l36 2q21 1 33.5 4t20.5 10.5t13.5 21.5t13.5 38l164 536q7 24 10 38t-0.5 21.5t-14 10.5t-31.5 4l-35 2l11 35h249l291 2l-47 -181h-30v45q0 34 -7.5 53t-29.5 28t-62 11
t-105 2h-53q-20 0 -27 -20l-80 -262h73zM207 110q-14 -43 1 -57.5t65 -14.5q69 0 119 17t82 46.5t47.5 68t15.5 82.5q0 34 -9.5 60.5t-31.5 44t-58 26.5t-89 9h-56z" />
    <glyph glyph-name="uni0412" unicode="&#x412;" horiz-adv-x="697" 
d="M-11 35l36 2q21 1 33.5 4t20.5 10.5t13.5 21.5t13.5 38l164 536q7 24 10.5 38t0 21.5t-14.5 10.5t-31 4l-36 2l11 35h238q129 0 190 -37.5t61 -101.5q0 -77 -62 -132t-173 -77v-1q32 -4 64.5 -15.5t59 -32t43.5 -49t17 -67.5q0 -44 -24.5 -87.5t-71.5 -78.5t-115 -57
t-155 -22h-304zM367 425q61 0 104 16.5t69.5 43.5t38.5 61t12 69q0 46 -33.5 75.5t-110.5 29.5q-19 0 -29.5 -1t-16 -3.5t-8 -7t-4.5 -11.5l-83 -272h61zM284 38q53 0 98 13t78 40t51.5 67t18.5 94q0 29 -9 53t-30 41.5t-56 27.5t-86 10h-55l-84 -274q-14 -43 1 -57.5
t69 -14.5h4z" />
    <glyph glyph-name="uni0413" unicode="&#x413;" horiz-adv-x="615" 
d="M-10 35l36 2q21 1 33.5 4t20.5 10.5t13.5 21.5t13.5 38l164 536q7 24 10 38t-0.5 21.5t-14.5 10.5t-31 4l-35 2l11 35h249l291 2l-47 -181h-30v45q0 34 -6.5 53t-27 28t-59.5 11t-104 2h-61q-11 0 -16.5 -4.5t-9.5 -15.5l-179 -587q-8 -26 -11 -40.5t2 -21.5t18.5 -8.5
t39.5 -2.5l42 -1l-11 -37h-312z" />
    <glyph glyph-name="uni0414" unicode="&#x414;" horiz-adv-x="806" 
d="M620 111q-7 -23 -10 -37t0.5 -21.5t14 -10t31.5 -2.5h45l-53 -199h-30l6 65q3 35 -4 54t-30 28t-64 10.5t-106 1.5h-164q-65 0 -107 -1.5t-70.5 -10.5t-47.5 -28t-37 -54l-34 -65h-30l69 199h62q48 52 90.5 118.5t81 144t71.5 164.5t61 180q7 24 10.5 38t0 21.5
t-14.5 10.5t-31 4l-35 2l10 35h606l-10 -35l-37 -2q-21 -1 -33.5 -4t-20.5 -10.5t-14 -21.5t-13 -38zM431 699q-69 -225 -145 -390t-167 -269h288q27 0 44.5 3t29.5 11t20 22t15 36l178 584q5 14 2 18t-17 4h-223q-18 0 -25 -19z" />
    <glyph glyph-name="uni0415" unicode="&#x415;" horiz-adv-x="710" 
d="M-11 35l36 2q21 1 33.5 4t20.5 10.5t13.5 21.5t13.5 38l164 536q7 24 10 38t-0.5 21.5t-14.5 10.5t-31 4l-35 2l11 35h242l291 2l-47 -181h-30v45q0 34 -6.5 53t-28 28t-62 11t-108.5 2h-46q-11 0 -16.5 -4.5t-9.5 -15.5l-88 -289h128q20 0 35.5 1.5t28.5 8.5t25.5 21.5
t27.5 40.5l21 39h30l-82 -268h-30l3 39q1 26 -2.5 40.5t-12.5 21.5t-23.5 8.5t-34.5 1.5h-128l-77 -251q-8 -26 -6.5 -40.5t11 -21.5t27.5 -8.5t43 -1.5h21q69 0 111.5 3.5t71 13t48.5 26t43 43.5l64 73h30l-112 -199h-584z" />
    <glyph glyph-name="uni0401" unicode="&#x401;" horiz-adv-x="710" 
d="M-11 35l36 2q21 1 33.5 4t20.5 10.5t13.5 21.5t13.5 38l164 536q7 24 10 38t-0.5 21.5t-14.5 10.5t-31 4l-35 2l11 35h242l291 2l-47 -181h-30v45q0 34 -6.5 53t-28 28t-62 11t-108.5 2h-46q-11 0 -16.5 -4.5t-9.5 -15.5l-88 -289h128q20 0 35.5 1.5t28.5 8.5t25.5 21.5
t27.5 40.5l21 39h30l-82 -268h-30l3 39q1 26 -2.5 40.5t-12.5 21.5t-23.5 8.5t-34.5 1.5h-128l-77 -251q-8 -26 -6.5 -40.5t11 -21.5t27.5 -8.5t43 -1.5h21q69 0 111.5 3.5t71 13t48.5 26t43 43.5l64 73h30l-112 -199h-584zM421 846q-26 0 -43 17t-17 43q0 27 17 44.5
t43 17.5t43 -17.5t17 -44.5q0 -26 -17 -43t-43 -17zM677 846q-26 0 -43 17t-17 43q0 27 17 44.5t43 17.5t43 -17.5t17 -44.5q0 -26 -17 -43t-43 -17z" />
    <glyph glyph-name="uni0416" unicode="&#x416;" horiz-adv-x="1188" 
d="M-80 0l11 35l35 2q33 2 58 13t50 33l394 344l-105 194q-19 34 -34.5 54t-31.5 29.5t-34.5 12.5t-43.5 5l-17 1l11 35h268l-11 -35h-4q-31 0 -47 -4t-19 -16t5.5 -34.5t26.5 -58.5l90 -183q7 -14 13.5 -23t13.5 -15t15.5 -9t19.5 -5l83 272q7 24 10 38t-0.5 21.5t-14 10.5
t-31.5 4l-35 2l11 35h292l-11 -35l-37 -2q-21 -1 -33 -4t-20.5 -10.5t-14 -21.5t-12.5 -38l-82 -268q17 5 34 15.5t43 32.5l214 183q50 43 75.5 65.5t33 32t0 11t-24.5 2.5l-40 2l11 35h273l-11 -35l-30 -2q-24 -2 -43 -5.5t-39.5 -13.5t-47.5 -29t-68 -52l-246 -197
l191 -341q11 -20 28.5 -31.5t46.5 -13.5l35 -3l-11 -35h-177l-190 351l-66 -2l-73 -238q-8 -24 -11 -38t0.5 -21.5t14.5 -10.5t31 -4l36 -2l-11 -35h-292l11 35l36 2q21 1 33.5 4t20.5 10.5t13.5 21.5t13.5 38l73 237l-62 2l-400 -350h-194z" />
    <glyph glyph-name="uni0417" unicode="&#x417;" horiz-adv-x="695" 
d="M481 779q99 0 157.5 -42t58.5 -122q0 -92 -66.5 -143t-181.5 -63v-1q30 -4 61 -14.5t56.5 -31t42 -50.5t16.5 -73q0 -54 -26 -100.5t-73 -80t-112 -52.5t-143 -19q-74 0 -124 12.5t-87 25.5l15 186h27l32 -112q6 -20 18.5 -33.5t31 -21t42 -10.5t50.5 -3q52 0 95 15.5
t73.5 43t47 65t16.5 80.5q0 70 -39 108t-136 38h-68l15 46h68q55 0 100 13.5t76 38t48 58.5t17 76q0 58 -28 90t-87 32q-49 0 -95 -16.5t-88 -66.5l-76 -90h-27l88 182q35 12 89.5 23.5t115.5 11.5z" />
    <glyph glyph-name="uni0418" unicode="&#x418;" horiz-adv-x="905" 
d="M270 647q7 24 10 38t-0.5 21.5t-14 10.5t-31.5 4l-35 2l11 35h292l-11 -35l-37 -2q-21 -1 -33 -4t-20.5 -10.5t-14 -21.5t-12.5 -38l-141 -461l541 462q7 24 10 37.5t-0.5 21t-14 10.5t-31.5 4l-35 2l11 35h292l-11 -35l-37 -2q-21 -1 -33.5 -4t-20.5 -10.5t-14 -22
t-13 -39.5l-163 -534q-8 -24 -11 -38t0.5 -21.5t14.5 -10.5t31 -4l36 -2l-11 -35h-292l11 35l36 2q21 1 33.5 4t20.5 10.5t13.5 21.5t13.5 38l142 464l-541 -461l-1 -3q-8 -24 -11 -38t0.5 -21.5t14.5 -10.5t31 -4l36 -2l-11 -35h-292l11 35l36 2q21 1 33.5 4t20.5 10.5
t13.5 21.5t13.5 38z" />
    <glyph glyph-name="uni0419" unicode="&#x419;" horiz-adv-x="905" 
d="M270 647q7 24 10 38t-0.5 21.5t-14 10.5t-31.5 4l-35 2l11 35h292l-11 -35l-37 -2q-21 -1 -33 -4t-20.5 -10.5t-14 -21.5t-12.5 -38l-141 -461l541 462q7 24 10 37.5t-0.5 21t-14 10.5t-31.5 4l-35 2l11 35h292l-11 -35l-37 -2q-21 -1 -33.5 -4t-20.5 -10.5t-14 -22
t-13 -39.5l-163 -534q-8 -24 -11 -38t0.5 -21.5t14.5 -10.5t31 -4l36 -2l-11 -35h-292l11 35l36 2q21 1 33.5 4t20.5 10.5t13.5 21.5t13.5 38l142 464l-541 -461l-1 -3q-8 -24 -11 -38t0.5 -21.5t14.5 -10.5t31 -4l36 -2l-11 -35h-292l11 35l36 2q21 1 33.5 4t20.5 10.5
t13.5 21.5t13.5 38zM624 830q-41 0 -69 12t-44 33.5t-18.5 51t7.5 63.5h86q-8 -26 -11 -48.5t1.5 -39t18.5 -26.5t40 -10q27 0 46 10t33 26.5t23.5 39t16.5 48.5h86q-23 -75 -78.5 -117.5t-137.5 -42.5z" />
    <glyph glyph-name="uni041A" unicode="&#x41a;" horiz-adv-x="821" 
d="M352 351l-69 -2l-73 -238q-8 -24 -11 -38t0.5 -21.5t14.5 -10.5t31 -4l36 -2l-11 -35h-292l11 35l36 2q21 1 33.5 4t20.5 10.5t13.5 21.5t13.5 38l164 536q7 24 10.5 38t0 21.5t-14.5 10.5t-31 4l-36 2l11 35h292l-11 -35l-36 -2q-21 -1 -33.5 -4t-20.5 -10.5t-14 -21.5
t-13 -38l-82 -268q17 6 33.5 17t43.5 31l244 183q53 39 79 61t32.5 33t-2 13.5t-25.5 3.5l-40 2l11 35h273l-11 -35l-30 -2q-24 -2 -42.5 -6t-39 -14.5t-47.5 -29.5t-69 -50l-273 -198l218 -340q13 -20 29.5 -31.5t45.5 -13.5l35 -3l-11 -35h-177z" />
    <glyph glyph-name="uni041B" unicode="&#x41b;" horiz-adv-x="808" 
d="M-35 36q0 11 4.5 23t14.5 22q26 5 51 12t54 22q26 14 54 45.5t60 92t69 156.5t81 238q7 24 10.5 38t0 21.5t-14.5 10.5t-32 4l-35 2l11 35h616l-11 -35l-37 -2q-21 -1 -33 -4t-20.5 -10.5t-14 -21.5t-12.5 -38l-164 -536q-8 -24 -11 -38t0.5 -21.5t14.5 -10.5t31 -4
l36 -2l-11 -35h-292l11 35l36 2q21 1 33.5 4t20.5 10.5t13.5 21.5t13.5 38l179 585q4 14 1.5 18t-16.5 4h-233q-20 0 -25 -19q-43 -140 -81.5 -247.5t-74 -186t-68.5 -131.5t-64 -85t-60.5 -45.5t-58.5 -13.5q-24 0 -35.5 13t-11.5 33z" />
    <glyph glyph-name="uni041C" unicode="&#x41c;" horiz-adv-x="1051" 
d="M326 644l-140 -423q-20 -64 -30 -100.5t-9.5 -55.5t11 -24t31.5 -5l36 -1l-10 -35h-256l10 35l38 1q21 0 35 5t26.5 24t27.5 55.5t37 101.5l147 422q9 26 12 41t-0.5 23t-14 10t-27.5 3l-37 2l10 35h190l84 -598l434 598h203l-10 -35l-39 -2q-18 -1 -30 -3t-20 -10
t-14.5 -23t-13.5 -41l-137 -533q-6 -24 -8.5 -38t1 -21.5t14 -10.5t30.5 -4l35 -2l-10 -35h-292l10 35l37 2q21 1 34 4t21 10.5t13.5 21.5t11.5 38l136 533l-471 -653h-14z" />
    <glyph glyph-name="uni041D" unicode="&#x41d;" horiz-adv-x="925" 
d="M270 647q7 24 10.5 38t0 21.5t-14.5 10.5t-31 4l-36 2l11 35h292l-11 -35l-36 -2q-21 -1 -33.5 -4t-20.5 -10.5t-14 -21.5t-13 -38l-73 -238h420l73 238q7 24 10.5 38t0 21.5t-14.5 10.5t-31 4l-36 2l11 35h292l-11 -35l-36 -2q-21 -1 -33.5 -4t-20.5 -10.5t-14 -21.5
t-13 -38l-164 -536q-8 -24 -11 -38t0.5 -21.5t14.5 -10.5t31 -4l36 -2l-11 -35h-292l11 35l36 2q21 1 33.5 4t20.5 10.5t13.5 21.5t13.5 38l76 250h-420l-76 -250q-8 -24 -11 -38t0.5 -21.5t14.5 -10.5t31 -4l36 -2l-11 -35h-292l11 35l36 2q21 1 33.5 4t20.5 10.5
t13.5 21.5t13.5 38z" />
    <glyph glyph-name="uni041E" unicode="&#x41e;" horiz-adv-x="870" 
d="M394 -13q-71 0 -128 23t-98 64.5t-63 98.5t-22 126q0 92 38.5 178.5t103.5 153.5t151 107.5t182 40.5q70 0 127.5 -23t98 -64.5t63 -98.5t22.5 -126q0 -92 -38.5 -178.5t-103.5 -153.5t-151 -107.5t-182 -40.5zM400 32q60 0 109 21.5t88 57t67.5 82.5t47.5 98t28 102.5
t9 96.5q0 64 -14.5 110t-40.5 76t-62 44t-80 14q-60 0 -109 -21.5t-88 -57t-67.5 -82.5t-47.5 -98t-28 -102.5t-9 -96.5q0 -64 14.5 -110t40.5 -76t62 -44t80 -14z" />
    <glyph glyph-name="uni041F" unicode="&#x41f;" horiz-adv-x="903" 
d="M787 696q4 14 1.5 18t-16.5 4h-359q-20 0 -25 -19l-180 -588q-8 -24 -11 -38t0.5 -21.5t14.5 -10.5t31 -4l36 -2l-11 -35h-292l11 35l36 2q21 1 33.5 4t20.5 10.5t13.5 21.5t13.5 38l164 536q7 24 10 38t-0.5 21.5t-14 10.5t-31.5 4l-35 2l11 35h796l-11 -35l-37 -2
q-21 -1 -33 -4t-20.5 -10.5t-14 -21.5t-12.5 -38l-164 -536q-8 -24 -11 -38t0.5 -21.5t14.5 -10.5t31 -4l36 -2l-11 -35h-292l11 35l36 2q21 1 33.5 4t20.5 10.5t13.5 21.5t13.5 38z" />
    <glyph glyph-name="uni0420" unicode="&#x420;" horiz-adv-x="657" 
d="M-11 35l36 2q21 1 33.5 4t20.5 10.5t13.5 21.5t13.5 38l164 536q7 24 10.5 38t0 21.5t-14.5 10.5t-31 4l-36 2l11 35h267q51 0 95.5 -9t78 -29.5t53 -52t19.5 -76.5q0 -47 -22 -93t-66 -83t-111.5 -59.5t-158.5 -22.5h-36l11 35h33q63 0 107.5 20.5t72 53t40.5 71.5
t13 76q0 131 -151 131q-35 0 -48 -4t-18 -20l-179 -585q-8 -26 -11 -40.5t2 -21.5t19 -8.5t40 -2.5l41 -1l-11 -37h-312z" />
    <glyph glyph-name="uni0421" unicode="&#x421;" horiz-adv-x="785" 
d="M401 -13q-68 0 -126.5 19.5t-101.5 58.5t-68 97t-25 135q0 99 44.5 186.5t118.5 153t168.5 104t195.5 38.5q57 0 115.5 -8t96.5 -23l-10 -186h-27l-32 105q-7 22 -20 35.5t-32 20.5t-42 9t-49 2q-79 0 -153 -32.5t-131.5 -92.5t-92.5 -144.5t-35 -188.5
q0 -63 17.5 -109.5t48.5 -76.5t74 -44.5t94 -14.5q34 0 58.5 5t45.5 15.5t41 27t45 39.5l102 93h27l-97 -176q-49 -17 -110.5 -32.5t-139.5 -15.5z" />
    <glyph glyph-name="uni0422" unicode="&#x422;" horiz-adv-x="744" 
d="M142 37l42 1q26 1 41 2.5t24 8.5t15 21.5t14 40.5l186 607h-31q-65 0 -106 -2t-69 -11t-47 -28t-40 -53l-28 -45h-27l75 210h8q11 -10 23 -16t33.5 -9.5t55.5 -4.5t90 -1h254q55 0 90 1t58.5 4.5t39 9.5t32.5 16h8l-53 -210h-27v45q0 34 -7.5 53t-29.5 28t-62 11t-105 2
h-31l-186 -607q-8 -26 -11 -40.5t2 -21.5t19 -8.5t40 -2.5l42 -1l-12 -37h-332z" />
    <glyph glyph-name="uni0423" unicode="&#x423;" horiz-adv-x="756" 
d="M540 357q-66 -77 -114.5 -135t-85 -99t-63 -67.5t-49 -41.5t-43 -21t-44.5 -6q-28 0 -43.5 11t-15.5 33q0 12 5 24.5t16 20.5q37 1 71.5 4.5t53.5 11.5q17 8 44.5 32.5t57.5 55.5l-105 497q-3 14 -7 22.5t-9 13t-12 6t-17 2.5l-32 2l11 35h282l-11 -35l-49 -2
q-14 -1 -23.5 -3t-15 -7t-6.5 -15.5t2 -27.5l78 -387l279 334q25 30 36 49.5t11 31.5t-9.5 17.5t-26.5 6.5l-43 3l11 35h251l-11 -35l-24 -2q-15 -1 -27 -5t-25.5 -15.5t-32 -32t-48.5 -55.5z" />
    <glyph glyph-name="uni0424" unicode="&#x424;" horiz-adv-x="966" 
d="M559 -20h-292l11 35l36 2q21 1 33.5 4t20.5 10.5t13.5 21.5t13.5 38q-71 3 -128 21t-97.5 48t-62.5 71.5t-22 92.5q0 78 38.5 141.5t105.5 108.5t155.5 71t189.5 30q6 21 8.5 33.5t-1.5 19.5t-15 9.5t-30 3.5l-36 2l11 35h292l-11 -35l-36 -2q-20 -1 -32 -3.5t-20 -9.5
t-13.5 -19.5t-12.5 -33.5q70 -3 127.5 -21t97.5 -48t62 -71.5t22 -92.5q0 -78 -38.5 -141.5t-105 -108.5t-155.5 -71t-189 -30q-8 -24 -11 -38t0.5 -21.5t14.5 -10.5t31 -4l36 -2zM207 335q0 -89 51 -140.5t150 -60.5l153 500q-82 -3 -147.5 -26t-111.5 -62.5t-70.5 -93.5
t-24.5 -117zM865 431q0 89 -51 140t-150 61l-152 -500q82 3 147 26t111 62.5t70.5 93.5t24.5 117z" />
    <glyph glyph-name="uni0425" unicode="&#x425;" horiz-adv-x="808" 
d="M-71 35l38 3q15 1 29 6.5t32 17.5t42 32.5t59 50.5l277 243l-138 309q-6 13 -13.5 17t-32.5 6l-33 3l11 35h283l-11 -35l-45 -3q-29 -2 -40 -8.5t-2 -26.5l103 -229l167 159q27 26 48 45.5t31.5 32.5t8 20t-21.5 8l-44 2l11 35h251l-11 -35l-38 -3q-15 -1 -29.5 -6.5
t-32.5 -17.5t-42 -32t-58 -51l-222 -198l159 -354q3 -6 6 -10t7.5 -6.5t12 -4t20.5 -2.5l33 -3l-11 -35h-283l11 35l45 3q29 2 40 8.5t2 26.5l-123 274l-221 -204q-27 -25 -48 -44.5t-31.5 -33t-8 -20.5t21.5 -8l44 -2l-11 -35h-253z" />
    <glyph glyph-name="uni0426" unicode="&#x426;" horiz-adv-x="898" 
d="M740 -159h-30l6 65q3 35 -4 54t-30 28t-64 10.5t-106 1.5h-536l10 35l37 2q21 1 33.5 4t20.5 10.5t13.5 21.5t13.5 38l163 536q7 24 10.5 38t0 21.5t-14.5 10.5t-31 4l-35 2l10 35h292l-10 -35l-37 -2q-21 -1 -33.5 -4t-20.5 -10.5t-14 -21.5t-13 -38l-163 -535
q-7 -22 -7.5 -36t6.5 -22t23 -11t43 -3h226q27 0 44.5 3t29.5 11t20 22t15 36l163 535q7 24 10.5 38t0 21.5t-14.5 10.5t-31 4l-35 2l10 35h292l-10 -35l-37 -2q-21 -1 -33.5 -4t-20.5 -10.5t-14 -21.5t-13 -38l-163 -536q-7 -23 -10 -37t0.5 -21.5t14 -10t31.5 -2.5h45z
" />
    <glyph glyph-name="uni0427" unicode="&#x427;" horiz-adv-x="833" 
d="M238 647q7 24 10 38t-0.5 21.5t-14 10.5t-31.5 4l-35 2l11 35h292l-11 -35l-37 -2q-21 -1 -33 -4t-20.5 -10.5t-14 -21.5t-12.5 -38l-23 -75q-34 -111 -9 -162t126 -51q33 0 59.5 1.5t48 4.5t40 7t36.5 8l82 267q7 24 10 38t-0.5 21.5t-14 10.5t-31.5 4l-35 2l11 35h292
l-11 -35l-37 -2q-21 -1 -33 -4t-20.5 -10.5t-14 -21.5t-12.5 -38l-164 -536q-8 -24 -11 -38t0.5 -21.5t14.5 -10.5t31 -4l36 -2l-11 -35h-292l11 35l36 2q21 1 33.5 4t20.5 10.5t13.5 21.5t13.5 38l68 222q-39 -9 -79 -15.5t-98 -6.5q-152 0 -204 65.5t-10 197.5z" />
    <glyph glyph-name="uni0428" unicode="&#x428;" horiz-adv-x="1207" 
d="M1076 0h-1100l11 35l36 2q21 1 33.5 4t20.5 10.5t13.5 21.5t13.5 38l164 536q7 24 10 38t-0.5 21.5t-14 10.5t-31.5 4l-35 2l11 35h292l-11 -35l-37 -2q-21 -1 -33 -4t-20.5 -10.5t-14 -21.5t-12.5 -38l-164 -535q-6 -22 -7 -36t6.5 -22t23 -11t42.5 -3h213l186 607
q7 24 10 38t-0.5 21.5t-14 10.5t-31.5 4l-35 2l11 35h292l-11 -35l-37 -2q-21 -1 -33 -4t-20.5 -10.5t-14 -21.5t-12.5 -38l-186 -607h213q27 0 45 3t30 11t20 22t14 36l164 535q7 24 10 38t-0.5 21.5t-14 10.5t-31.5 4l-35 2l11 35h292l-11 -35l-37 -2q-21 -1 -33 -4
t-20.5 -10.5t-14 -21.5t-12.5 -38l-164 -536q-8 -24 -11 -38t0.5 -21.5t14.5 -10.5t31 -4l36 -2z" />
    <glyph glyph-name="uni0429" unicode="&#x429;" horiz-adv-x="1202" 
d="M1044 -159h-30l6 65q3 35 -4 54t-30 28t-64 10.5t-106 1.5h-840l10 35l37 2q21 1 33.5 4t20.5 10.5t13.5 21.5t13.5 38l163 536q7 24 10.5 38t0 21.5t-14.5 10.5t-31 4l-35 2l10 35h292l-10 -35l-37 -2q-21 -1 -33.5 -4t-20.5 -10.5t-14 -21.5t-13 -38l-163 -535
q-7 -22 -7.5 -36t6.5 -22t23 -11t43 -3h213l185 607q7 24 10.5 38t0 21.5t-14.5 10.5t-31 4l-35 2l10 35h292l-10 -35l-37 -2q-21 -1 -33.5 -4t-20.5 -10.5t-14 -21.5t-13 -38l-185 -607h213q27 0 44.5 3t29.5 11t20 22t15 36l163 535q7 24 10.5 38t0 21.5t-14.5 10.5t-31 4
l-35 2l10 35h292l-10 -35l-37 -2q-21 -1 -33.5 -4t-20.5 -10.5t-14 -21.5t-13 -38l-163 -536q-7 -23 -10 -37t0.5 -21.5t14 -10t31.5 -2.5h45z" />
    <glyph glyph-name="uni042A" unicode="&#x42a;" horiz-adv-x="834" 
d="M527 436q137 0 206.5 -46t69.5 -137q0 -52 -24.5 -98t-73.5 -80.5t-121 -54.5t-166 -20h-296l11 35l36 2q21 1 33.5 4t20.5 10.5t13.5 21.5t13.5 38l186 607q-48 -1 -79.5 -4.5t-54 -13t-39.5 -28t-36 -48.5l-28 -45h-30l63 181l291 -2h123l-11 -35l-37 -2q-21 -1 -33 -4
t-20.5 -10.5t-14 -21.5t-12.5 -38l-65 -211h74zM354 110q-14 -43 1 -57.5t65 -14.5q69 0 119 17t82 46.5t47.5 68t15.5 82.5q0 34 -9.5 60.5t-31.5 44t-58 26.5t-89 9h-56z" />
    <glyph glyph-name="uni042B" unicode="&#x42b;" horiz-adv-x="1029" 
d="M502 758l-11 -35l-37 -2q-21 -1 -33 -4t-20.5 -10.5t-14 -21.5t-12.5 -38l-65 -211h74q137 0 206.5 -46t69.5 -137q0 -52 -24.5 -98t-73.5 -80.5t-121 -54.5t-166 -20h-296l11 35l36 2q21 1 33.5 4t20.5 10.5t13.5 21.5t13.5 38l164 536q7 24 10 38t-0.5 21.5t-14 10.5
t-31.5 4l-35 2l11 35h292zM210 110q-14 -43 1 -57.5t65 -14.5q69 0 119 17t82 46.5t47.5 68t15.5 82.5q0 34 -9.5 60.5t-31.5 44t-58 26.5t-89 9h-56zM898 647q7 24 10.5 38t0 21.5t-14.5 10.5t-31 4l-36 2l11 35h292l-11 -35l-36 -2q-21 -1 -33.5 -4t-20.5 -10.5t-14 -21.5
t-13 -38l-164 -536q-8 -24 -11 -38t0.5 -21.5t14.5 -10.5t31 -4l36 -2l-11 -35h-292l11 35l36 2q21 1 33.5 4t20.5 10.5t13.5 21.5t13.5 38z" />
    <glyph glyph-name="uni042C" unicode="&#x42c;" horiz-adv-x="687" 
d="M499 758l-11 -35l-37 -2q-21 -1 -33 -4t-20.5 -10.5t-14 -21.5t-12.5 -38l-65 -211h74q137 0 206.5 -46t69.5 -137q0 -52 -24.5 -98t-73.5 -80.5t-121 -54.5t-166 -20h-296l11 35l36 2q21 1 33.5 4t20.5 10.5t13.5 21.5t13.5 38l164 536q7 24 10 38t-0.5 21.5t-14 10.5
t-31.5 4l-35 2l11 35h292zM207 110q-14 -43 1 -57.5t65 -14.5q69 0 119 17t82 46.5t47.5 68t15.5 82.5q0 34 -9.5 60.5t-31.5 44t-58 26.5t-89 9h-56z" />
    <glyph glyph-name="uni042D" unicode="&#x42d;" horiz-adv-x="770" 
d="M462 779q66 0 122 -20t97 -59t64.5 -97t23.5 -134q0 -106 -41 -194.5t-111.5 -152.5t-164.5 -99.5t-200 -35.5q-27 0 -55 2t-54.5 6t-50.5 10t-42 13l10 186h27l32 -105q7 -23 19.5 -36t29.5 -20t38.5 -9t45.5 -2q70 0 133.5 21t114.5 62t87.5 101.5t53.5 140.5h-200
q-20 0 -35.5 -1.5t-29 -8.5t-26 -21.5t-26.5 -40.5l-21 -39h-30l82 268h30l-3 -39q-2 -26 1.5 -40.5t12.5 -21.5t24 -8.5t35 -1.5h194q2 21 3.5 42.5t1.5 44.5q0 63 -16 109.5t-43 76.5t-64 44.5t-79 14.5q-30 0 -54.5 -4.5t-45.5 -15t-40.5 -27t-41.5 -40.5l-78 -86h-27
l80 182q43 15 97 25t120 10z" />
    <glyph glyph-name="uni042E" unicode="&#x42e;" horiz-adv-x="1185" 
d="M270 647q7 24 10 38t-0.5 21.5t-14.5 10.5t-31 4l-35 2l11 35h292l-11 -35l-37 -2q-21 -1 -33.5 -4t-20.5 -10.5t-13.5 -21.5t-12.5 -38l-73 -238h131q19 75 62.5 142.5t103 118t132.5 80t153 29.5q68 0 123.5 -23t95 -64.5t61 -98.5t21.5 -126q0 -92 -37.5 -178.5
t-101.5 -153.5t-148 -107.5t-178 -40.5q-68 0 -123.5 23t-95 64.5t-61 98.5t-21.5 126q0 16 1.5 31.5t3.5 30.5h-137l-76 -250q-8 -24 -11 -38t0.5 -21.5t14.5 -10.5t31 -4l36 -2l-11 -35h-292l11 35l36 2q21 1 33.5 4t20.5 10.5t13.5 21.5t13.5 38zM725 32q58 0 106 21.5
t85.5 57t65.5 82.5t46 98t27 102.5t9 96.5q0 64 -13.5 110t-38.5 76t-59 44t-76 14q-58 0 -106 -21.5t-85.5 -57t-65.5 -82.5t-46 -98t-27 -102.5t-9 -96.5q0 -64 13.5 -110t38.5 -76t59 -44t76 -14z" />
    <glyph glyph-name="uni042F" unicode="&#x42f;" horiz-adv-x="792" 
d="M474 350l-335 -350h-179l11 35l23 1q15 1 27.5 4t25 10.5t26.5 19.5t32 30l259 265q-67 11 -100.5 50t-33.5 87q0 55 30 101.5t81.5 81t120.5 54t147 19.5h284l-11 -35l-37 -2q-21 -1 -33 -4t-20.5 -10.5t-14 -21.5t-12.5 -38l-164 -536q-8 -24 -11 -38t0.5 -21.5
t14.5 -10.5t31 -4l36 -2l-11 -35h-302l11 37l33 1q26 1 41 2.5t24 8.5t15 21.5t14 40.5l73 239h-96zM676 697q2 7 1 11.5t-8 7t-22 3t-40 0.5q-67 0 -115.5 -16t-80.5 -45t-47.5 -69t-15.5 -87q0 -24 8 -45.5t26.5 -37t48.5 -24.5t74 -9q17 0 37.5 0.5t39.5 2.5z" />
    <glyph glyph-name="uni0402" unicode="&#x402;" horiz-adv-x="869" 
d="M128 37l42 1q26 1 41 2.5t24 8.5t15 21.5t14 40.5l186 607h-1q-65 0 -106 -2t-69 -11t-47 -28t-40 -53l-28 -45h-27l75 210h8q11 -10 23 -16t33.5 -9.5t55.5 -4.5t90 -1h234q55 0 90 1t58.5 4.5t39 9.5t32.5 16h8l-53 -210h-27v45q0 34 -7.5 53t-29.5 28t-62 11t-105 2
h-41l-104 -340q26 16 56 30.5t54 24.5q23 10 57 17.5t73 7.5q45 0 79 -16.5t53 -47.5t21.5 -75.5t-15.5 -100.5l-14 -43q-10 -30 -19.5 -53t-21.5 -42t-27.5 -34.5t-36.5 -30.5q-16 -11 -38 -25.5t-47 -29.5t-50.5 -30t-48.5 -28l-13 25q43 31 74 55t54.5 51.5t41 64.5
t35.5 94l11 36q11 36 11.5 66t-13 51t-41 32.5t-71.5 11.5q-57 0 -102.5 -17.5t-75.5 -39.5l-68 -221q-8 -26 -11 -40t2 -21t19 -9t40 -3l22 -1l-12 -37h-312z" />
    <glyph glyph-name="uni0403" unicode="&#x403;" horiz-adv-x="615" 
d="M-10 35l36 2q21 1 33.5 4t20.5 10.5t13.5 21.5t13.5 38l164 536q7 24 10 38t-0.5 21.5t-14.5 10.5t-31 4l-35 2l11 35h249l291 2l-47 -181h-30v45q0 34 -6.5 53t-27 28t-59.5 11t-104 2h-61q-11 0 -16.5 -4.5t-9.5 -15.5l-179 -587q-8 -26 -11 -40.5t2 -21.5t18.5 -8.5
t39.5 -2.5l42 -1l-11 -37h-312zM801 969l-282 -126h-23l138 129h168z" />
    <glyph glyph-name="uni0404" unicode="&#x404;" horiz-adv-x="785" 
d="M401 -13q-68 0 -126.5 19.5t-101.5 58.5t-68 97t-25 135q0 99 44.5 186.5t118.5 153t168.5 104t195.5 38.5q57 0 115.5 -8t96.5 -23l-10 -186h-27l-32 105q-7 22 -20 35.5t-32 20.5t-42 9t-49 2q-65 0 -127.5 -22.5t-115.5 -65t-93 -102.5t-60 -135h208q20 0 35.5 1.5
t29 8.5t26 21.5t26.5 40.5l21 39h30l-82 -268h-30l3 39q2 26 -1.5 40.5t-12.5 21.5t-24 8.5t-35 1.5h-203q-4 -21 -5.5 -42.5t-1.5 -44.5q0 -63 17.5 -109.5t48.5 -76.5t74 -44.5t94 -14.5q34 0 58.5 5t45.5 15.5t41 27t45 39.5l102 93h27l-97 -176q-49 -17 -110.5 -32.5
t-139.5 -15.5z" />
    <glyph glyph-name="uni0405" unicode="&#x405;" horiz-adv-x="596" 
d="M203 -13q-27 0 -54.5 5t-52.5 13.5t-47 18t-37 18.5l38 217h26l20 -157q2 -14 6.5 -25.5t13.5 -19.5q17 -14 45 -20t62 -6q36 0 71 11t62.5 32.5t44.5 52t17 69.5q0 72 -73 142l-70 68q-38 37 -54.5 74t-16.5 78q0 43 20 83t57.5 71t91 49t121.5 18q54 0 96.5 -8.5
t73.5 -19.5l-39 -182h-25l-15 109q-3 21 -11 30.5t-25 15.5q-14 5 -35 8t-41 3q-39 0 -71 -10.5t-55 -29.5t-36 -44t-13 -55q0 -28 12 -55t39 -53l70 -68q19 -19 36.5 -38.5t31 -42.5t21 -50t7.5 -60q0 -48 -23.5 -92t-65 -77t-98.5 -53t-125 -20z" />
    <glyph glyph-name="uni0406" unicode="&#x406;" horiz-adv-x="401" 
d="M270 647q7 24 10.5 38t0 21.5t-14.5 10.5t-31 4l-36 2l11 35h292l-11 -35l-36 -2q-21 -1 -33.5 -4t-20.5 -10.5t-14 -21.5t-13 -38l-164 -536q-8 -24 -11 -38t0.5 -21.5t14.5 -10.5t31 -4l36 -2l-11 -35h-292l11 35l36 2q21 1 33.5 4t20.5 10.5t13.5 21.5t13.5 38z" />
    <glyph glyph-name="uni0407" unicode="&#x407;" horiz-adv-x="401" 
d="M270 647q7 24 10.5 38t0 21.5t-14.5 10.5t-31 4l-36 2l11 35h292l-11 -35l-36 -2q-21 -1 -33.5 -4t-20.5 -10.5t-14 -21.5t-13 -38l-164 -536q-8 -24 -11 -38t0.5 -21.5t14.5 -10.5t31 -4l36 -2l-11 -35h-292l11 35l36 2q21 1 33.5 4t20.5 10.5t13.5 21.5t13.5 38z
M274 846q-26 0 -43 17t-17 43q0 27 17 44.5t43 17.5t43 -17.5t17 -44.5q0 -26 -17 -43t-43 -17zM530 846q-26 0 -43 17t-17 43q0 27 17 44.5t43 17.5t43 -17.5t17 -44.5q0 -26 -17 -43t-43 -17z" />
    <glyph glyph-name="uni0408" unicode="&#x408;" horiz-adv-x="392" 
d="M-72 -73q43 31 75 55t56 51.5t43 64.5t37 94l139 455q7 24 10.5 38t0 21.5t-14.5 10.5t-31 4l-36 2l11 35h292l-11 -35l-36 -2q-21 -1 -33.5 -4t-20.5 -10.5t-14 -21.5t-13 -38l-133 -435q-11 -37 -21.5 -66t-24 -52t-30.5 -42.5t-42 -36.5q-17 -12 -39 -26t-47 -29.5
t-51 -31t-50 -28.5z" />
    <glyph glyph-name="uni0409" unicode="&#x409;" horiz-adv-x="1077" 
d="M696 436h74q137 0 206.5 -46t69.5 -137q0 -52 -24.5 -98t-73.5 -80.5t-121 -54.5t-166 -20h-296l11 35l36 2q21 1 33.5 4t20.5 10.5t13.5 21.5t13.5 38l179 585q2 4 2 7.5v5.5q0 9 -17 9h-213q-20 0 -25 -19q-43 -140 -81.5 -247.5t-74 -186t-68.5 -131.5t-64 -85
t-60.5 -45.5t-58.5 -13.5q-24 0 -35.5 13t-11.5 33q0 11 4.5 23t14.5 22q26 5 51 12t54 22q26 14 54 45.5t60 92t69 156.5t81 238q5 18 8.5 30t3.5 20q0 14 -11 18t-37 6l-35 2l11 35h596l-11 -35l-37 -2q-21 -1 -33 -4t-20.5 -10.5t-14 -21.5t-12.5 -38zM597 110
q-14 -43 1 -57.5t65 -14.5q69 0 119 17t82 46.5t47.5 68t15.5 82.5q0 34 -9.5 60.5t-31.5 44t-58 26.5t-89 9h-56z" />
    <glyph glyph-name="uni040A" unicode="&#x40a;" horiz-adv-x="1152" 
d="M268 647q7 24 10.5 38t0 21.5t-14.5 10.5t-31 4l-36 2l11 35h292l-11 -35l-36 -2q-21 -1 -33.5 -4t-20.5 -10.5t-14 -21.5t-13 -38l-65 -214h360l65 214q7 24 10 38t-0.5 21.5t-14 10.5t-31.5 4l-35 2l11 35h292l-11 -35l-37 -2q-21 -1 -33 -4t-20 -10.5t-14 -21.5
t-13 -38l-66 -214h74q137 0 207 -44.5t70 -135.5q0 -52 -24.5 -98t-73.5 -80.5t-121 -54.5t-166 -20h-296l11 35l36 2q21 1 33.5 4t20.5 10.5t13.5 21.5t13.5 38l85 278h-360l-85 -278q-8 -24 -11 -38t0.5 -21.5t14.5 -10.5t31 -4l36 -2l-11 -35h-292l11 35l36 2
q21 1 33.5 4t20.5 10.5t13.5 21.5t13.5 38zM672 110q-13 -43 1.5 -57.5t64.5 -14.5q69 0 119 17t82 46.5t47.5 68t15.5 82.5q0 34 -9.5 60t-32 43t-58.5 25.5t-89 8.5h-56z" />
    <glyph glyph-name="uni040B" unicode="&#x40b;" horiz-adv-x="959" 
d="M148 37l42 1q26 1 41 2.5t24 8.5t15 21.5t14 40.5l186 607h-1q-65 0 -106 -2t-69 -11t-47 -28t-40 -53l-28 -45h-27l75 210h8q11 -10 23 -16t33.5 -9.5t55.5 -4.5t90 -1h234q55 0 90 1t58.5 4.5t39 9.5t32.5 16h8l-53 -210h-27v45q0 34 -7.5 53t-29.5 28t-62 11t-105 2
h-41l-104 -339q26 16 54 29.5t48 21.5q29 11 64 19.5t73 8.5q46 0 80.5 -14t54 -44.5t21 -78.5t-19.5 -117l-28 -91q-8 -26 -11 -40.5t0 -22t13.5 -10t30.5 -3.5l37 -2l-11 -35h-198l65 213q12 41 14 73.5t-10.5 55.5t-41 35t-76.5 12q-54 0 -97.5 -16.5t-75.5 -39.5
l-68 -222q-8 -26 -11 -40.5t2 -21.5t19 -8.5t40 -2.5l32 -1l-12 -37h-322z" />
    <glyph glyph-name="uni040C" unicode="&#x40c;" horiz-adv-x="821" 
d="M352 351l-69 -2l-73 -238q-8 -24 -11 -38t0.5 -21.5t14.5 -10.5t31 -4l36 -2l-11 -35h-292l11 35l36 2q21 1 33.5 4t20.5 10.5t13.5 21.5t13.5 38l164 536q7 24 10.5 38t0 21.5t-14.5 10.5t-31 4l-36 2l11 35h292l-11 -35l-36 -2q-21 -1 -33.5 -4t-20.5 -10.5t-14 -21.5
t-13 -38l-82 -268q17 6 33.5 17t43.5 31l244 183q53 39 79 61t32.5 33t-2 13.5t-25.5 3.5l-40 2l11 35h273l-11 -35l-30 -2q-24 -2 -42.5 -6t-39 -14.5t-47.5 -29.5t-69 -50l-273 -198l218 -340q13 -20 29.5 -31.5t45.5 -13.5l35 -3l-11 -35h-177zM876 969l-282 -126h-23
l138 129h168z" />
    <glyph glyph-name="uni040E" unicode="&#x40e;" horiz-adv-x="756" 
d="M540 357q-66 -77 -114.5 -135t-85 -99t-63 -67.5t-49 -41.5t-43 -21t-44.5 -6q-28 0 -43.5 11t-15.5 33q0 12 5 24.5t16 20.5q37 1 71.5 4.5t53.5 11.5q17 8 44.5 32.5t57.5 55.5l-105 497q-3 14 -7 22.5t-9 13t-12 6t-17 2.5l-32 2l11 35h282l-11 -35l-49 -2
q-14 -1 -23.5 -3t-15 -7t-6.5 -15.5t2 -27.5l78 -387l279 334q25 30 36 49.5t11 31.5t-9.5 17.5t-26.5 6.5l-43 3l11 35h251l-11 -35l-24 -2q-15 -1 -27 -5t-25.5 -15.5t-32 -32t-48.5 -55.5zM556 830q-41 0 -69 12t-44 33.5t-18.5 51t7.5 63.5h86q-8 -26 -11 -48.5t1.5 -39
t18.5 -26.5t40 -10q27 0 46 10t33 26.5t23.5 39t16.5 48.5h86q-23 -75 -78.5 -117.5t-137.5 -42.5z" />
    <glyph glyph-name="uni040F" unicode="&#x40f;" horiz-adv-x="882" 
d="M312 -94q6 31 4 49.5t-16.5 28.5t-45 13t-82.5 3h-196l10 35l37 2q21 1 33.5 4t20.5 10.5t13.5 21.5t13.5 38l163 536q7 24 10.5 38t0 21.5t-14.5 10.5t-31 4l-35 2l10 35h292l-10 -35l-37 -2q-21 -1 -33.5 -4t-20.5 -10.5t-14 -21.5t-13 -38l-163 -535q-7 -22 -7.5 -36
t6.5 -22t23 -11t43 -3h206q27 0 44.5 3t29.5 11t20 22t15 36l163 535q7 24 10.5 38t0 21.5t-14.5 10.5t-31 4l-35 2l10 35h292l-10 -35l-37 -2q-21 -1 -33.5 -4t-20.5 -10.5t-14 -21.5t-13 -38l-163 -536q-8 -24 -11 -38t0.5 -21.5t14.5 -10.5t31 -4l35 -2l-10 -35h-196
q-53 0 -85.5 -3t-53 -13t-33.5 -28.5t-26 -49.5l-28 -65h-30z" />
    <glyph glyph-name="uni0490" unicode="&#x490;" horiz-adv-x="621" 
d="M489 758q62 0 102 1.5t67 10.5t45.5 28t36.5 54l34 65h30l-68 -199h-322q-20 0 -27 -20l-179 -587q-8 -26 -11 -40.5t2 -21.5t19 -9t40 -2l51 -1l-11 -37h-322l11 35l36 2q21 1 33.5 4t20.5 10.5t13.5 21.5t13.5 38l164 536q7 24 10 38t-0.5 21.5t-14 10.5t-31.5 4l-35 2
l11 35h281z" />
    <glyph glyph-name="uni0462" unicode="&#x462;" horiz-adv-x="779" 
d="M600 758l-11 -35l-37 -2q-21 -1 -33.5 -4t-20.5 -10.5t-14 -21.5t-13 -38l-6 -19h26q55 0 90 1t58.5 4.5t39 9.5t32.5 16h8l-53 -210h-30l-1 45q0 33 -6.5 52t-26 28.5t-55 12t-94.5 1.5l-69 -225h99q134 0 199.5 -39.5t65.5 -112.5q0 -41 -25.5 -79.5t-73.5 -67.5
t-118.5 -46.5t-160.5 -17.5h-296l11 35l37 2q21 1 33.5 4t20.5 10.5t13.5 21.5t13.5 38l146 477q-59 0 -96 -2.5t-62.5 -11.5t-43.5 -28t-38 -52l-27 -45h-30l75 210h8q11 -10 23 -16t33.5 -9.5t55.5 -4.5t90 -1h24l6 19q7 24 10.5 38t0 21.5t-14.5 10.5t-31 4l-35 2l11 35
h292zM306 110q-14 -43 1 -57.5t65 -14.5q128 0 192.5 45t64.5 123q0 25 -9 46t-31.5 36t-60.5 23t-96 8h-61z" />
    <glyph glyph-name="uni0472" unicode="&#x472;" horiz-adv-x="870" 
d="M394 -13q-71 0 -128 23t-98 64.5t-63 98.5t-22 126q0 92 38.5 178.5t103.5 153.5t151 107.5t182 40.5q70 0 127.5 -23t98 -64.5t63 -98.5t22.5 -126q0 -92 -38.5 -178.5t-103.5 -153.5t-151 -107.5t-182 -40.5zM400 32q69 0 124 28t96 73.5t68.5 103.5t42.5 117
q-65 -26 -112.5 -29.5t-85 4.5t-70.5 22t-69 23.5t-80 9t-104 -21.5q-4 -23 -5.5 -44.5t-1.5 -41.5q0 -64 14.5 -110t40.5 -76t62 -44t80 -14zM216 393q87 34 148.5 43t105.5 3.5t76 -20t61 -26.5t59.5 -17t71.5 9q5 27 8 53.5t3 51.5q0 64 -14.5 110t-40.5 76t-62 44
t-80 14q-72 0 -128.5 -30.5t-98 -79t-69 -109.5t-40.5 -122z" />
    <glyph glyph-name="uni0474" unicode="&#x474;" horiz-adv-x="765" 
d="M723 655q24 32 44 55.5t40.5 38.5t42.5 22.5t49 7.5q26 0 38.5 -14t12.5 -34q0 -11 -4.5 -22t-14.5 -19q-29 -2 -58.5 -5.5t-46.5 -10.5q-10 -4 -25 -16.5t-39 -44.5l-479 -626h-36l-27 710q-1 15 -8 18t-33 5l-33 3l10 35h276l-10 -35l-48 -3q-14 -1 -23.5 -2
t-14.5 -4.5t-7 -10t-2 -18.5l17 -538z" />
    <glyph glyph-name="uni0492" unicode="&#x492;" horiz-adv-x="615" 
d="M-10 35l36 2q21 1 33.5 4t20.5 10.5t13.5 21.5t13.5 38l164 536q7 24 10 38t-0.5 21.5t-14.5 10.5t-31 4l-35 2l11 35h249l291 2l-47 -181h-30v45q0 34 -6.5 53t-27 28t-59.5 11t-104 2h-61q-11 0 -16.5 -4.5t-9.5 -15.5l-179 -587q-8 -26 -11 -40.5t2 -21.5t18.5 -8.5
t39.5 -2.5l42 -1l-11 -37h-312zM102 410h375l-14 -48h-375z" />
    <glyph glyph-name="uni0496" unicode="&#x496;" horiz-adv-x="1198" 
d="M-80 0l11 35l35 2q30 2 52.5 14t45.5 32l404 344l-105 194q-19 34 -34.5 54t-31.5 29.5t-34.5 12.5t-43.5 5l-17 1l11 35h268l-11 -35h-4q-31 0 -47 -4t-19 -16t5.5 -34.5t26.5 -58.5l90 -183q7 -14 13.5 -23t13.5 -15t15.5 -9t19.5 -5l83 272q7 24 10 38t-0.5 21.5
t-14 10.5t-31.5 4l-35 2l11 35h292l-11 -35l-37 -2q-21 -1 -33 -4t-20.5 -10.5t-14 -21.5t-12.5 -38l-82 -268q17 5 34 15.5t43 32.5l214 183q50 43 75.5 65.5t33 32t0 11t-24.5 2.5l-40 2l11 35h273l-11 -35l-30 -2q-24 -2 -43 -5.5t-39.5 -13.5t-47.5 -29t-68 -52
l-246 -197l176 -315q14 -26 26.5 -40t28 -20.5t37 -7.5t53.5 -1l-53 -199h-30l6 65q3 34 -1.5 53t-18 28t-38.5 11t-62 2h-11l-190 351l-66 -2l-73 -238q-8 -24 -11 -38t0.5 -21.5t14.5 -10.5t31 -4l36 -2l-11 -35h-292l11 35l36 2q21 1 33.5 4t20.5 10.5t13.5 21.5t13.5 38
l73 237l-62 2l-400 -350h-194z" />
    <glyph glyph-name="uni049A" unicode="&#x49a;" horiz-adv-x="829" 
d="M638 94q12 -19 23.5 -30t26.5 -16t35 -6.5t50 -1.5l-53 -199h-30l6 65q3 34 -1 53t-18 28t-38.5 11t-62.5 2h-9l-217 351l-69 -2l-73 -238q-8 -24 -11 -38t0.5 -21.5t14.5 -10.5t31 -4l36 -2l-11 -35h-292l11 35l36 2q21 1 33.5 4t20.5 10.5t13.5 21.5t13.5 38l164 536
q7 24 10.5 38t0 21.5t-14.5 10.5t-31 4l-36 2l11 35h292l-11 -35l-36 -2q-21 -1 -33.5 -4t-20.5 -10.5t-14 -21.5t-13 -38l-82 -268q17 6 33.5 17t43.5 31l244 183q53 39 79 61t32.5 33t-2 13.5t-25.5 3.5l-40 2l11 35h273l-11 -35l-30 -2q-24 -2 -42.5 -6t-39 -14.5
t-47.5 -29.5t-69 -50l-273 -198z" />
    <glyph glyph-name="uni04A2" unicode="&#x4a2;" horiz-adv-x="918" 
d="M760 -159h-30l6 65q3 35 -4 54t-30 28t-64 10.5t-106 1.5h-32l10 35l37 2q21 1 33.5 4t20.5 10.5t13.5 21.5t13.5 38l76 250h-420l-76 -250q-8 -24 -11 -38t0.5 -21.5t14.5 -10.5t31 -4l35 -2l-10 -35h-292l10 35l37 2q21 1 33.5 4t20.5 10.5t13.5 21.5t13.5 38l163 536
q7 24 10.5 38t0 21.5t-14.5 10.5t-31 4l-35 2l10 35h292l-10 -35l-37 -2q-21 -1 -33.5 -4t-20.5 -10.5t-14 -21.5t-13 -38l-72 -238h420l72 238q7 24 10.5 38t0 21.5t-14.5 10.5t-31 4l-35 2l10 35h292l-10 -35l-37 -2q-21 -1 -33.5 -4t-20.5 -10.5t-14 -21.5t-13 -38
l-163 -536q-7 -23 -10 -37t0.5 -21.5t14 -10t31.5 -2.5h45z" />
    </font>
</defs>
</svg>
