<?xml version="1.0" standalone="no"?>
<!DOCTYPE svg PUBLIC "-//W3C//DTD SVG 1.1//EN" "http://www.w3.org/Graphics/SVG/1.1/DTD/svg11.dtd" >
<svg xmlns="http://www.w3.org/2000/svg" xmlns:xlink="http://www.w3.org/1999/xlink" version="1.1">
<metadata>
Created by Christoph Koeberlin (http://christoph.koe.berlin)
Copyright (c) 2017 Swiss Typefaces Sarl. All rights reserved.
</metadata>
<defs>
<font id="Font" horiz-adv-x="0" >
  <font-face 
    font-family="Font"
    font-weight="400"
    font-stretch="normal"
    units-per-em="1000"
    panose-1="2 4 5 4 6 0 0 0 0 4"
    ascent="800"
    descent="-200"
    x-height="502"
    cap-height="758"
    bbox="-407 -403 1275 1086"
    underline-thickness="61"
    underline-position="-130"
    unicode-range="U+0020-FEFF"
  />
<missing-glyph horiz-adv-x="640" 
d="M70 758h500v-758h-500v758zM320 396l217 343h-434zM89 30l221 349l-221 349v-698zM551 30v698l-220 -349zM537 19l-217 343l-217 -343h434z" />
    <glyph glyph-name="f_f.liga" unicode="ff" horiz-adv-x="722" 
d="M387 35l42 2q26 2 32 10t6 24v379h-75v52h75v4q0 80 24 139.5t62 99.5q29 31 70.5 50.5t73.5 19.5q20 0 34.5 -10.5t14.5 -30.5q0 -21 -10.5 -36.5t-22.5 -17.5q-10 4 -23.5 7.5t-28 6.5t-28.5 5t-25 2q-29 0 -40 -27.5t-11 -97.5v-114h144v-52h-144v-377q0 -16 6 -24.5
t32 -9.5l72 -2v-37h-280v35zM43 35l42 2q26 2 32 10t6 24v379h-98v23l98 31v2q0 65 24 122t62 97q29 31 70.5 50.5t73.5 19.5q20 0 34.5 -10.5t14.5 -30.5q0 -21 -10.5 -36.5t-22.5 -17.5q-10 4 -23.5 7.5t-28 6.5t-28.5 5t-25 2q-29 0 -40 -27.5t-11 -97.5v-94h139v-52
h-139v-377q0 -16 6 -24.5t32 -9.5l72 -2v-37h-280v35z" />
    <glyph glyph-name="f_i.liga" unicode="fi" horiz-adv-x="685" 
d="M43 35l42 2q26 2 32 10t6 24v379h-98v23l98 31v2q0 80 24 139.5t62 99.5q29 31 70.5 50.5t73.5 19.5q20 0 34.5 -10.5t14.5 -30.5q0 -21 -10.5 -36.5t-22.5 -17.5q-10 4 -23.5 7.5t-28 6.5t-28.5 5t-25 2q-29 0 -40 -27.5t-11 -97.5v-114h144v-52h-144v-377
q0 -16 6 -24.5t32 -9.5l72 -2v-37h-280v35zM576 71q0 -16 6 -24t32 -10l42 -2v-35h-250v35l42 2q26 2 32 10t6 24v312q0 20 -2.5 25.5t-18.5 12.5l-75 31v6l186 70v-457zM524 678q-29 0 -47.5 18.5t-18.5 47.5q0 28 18.5 47t47.5 19q28 0 47 -19t19 -47q0 -29 -19 -47.5
t-47 -18.5z" />
    <glyph glyph-name="f_f_i.liga" unicode="ffi" horiz-adv-x="1025" 
d="M387 35l42 2q26 2 32 10t6 24v379h-75v52h75v4q0 80 24 139.5t62 99.5q29 31 70.5 50.5t73.5 19.5q20 0 34.5 -10.5t14.5 -30.5q0 -21 -10.5 -36.5t-22.5 -17.5q-10 4 -23.5 7.5t-28 6.5t-28.5 5t-25 2q-29 0 -40 -27.5t-11 -97.5v-114h144v-52h-144v-377q0 -16 6 -24.5
t32 -9.5l72 -2v-37h-280v35zM43 35l42 2q26 2 32 10t6 24v379h-98v23l98 31v2q0 65 24 122t62 97q29 31 70.5 50.5t73.5 19.5q20 0 34.5 -10.5t14.5 -30.5q0 -21 -10.5 -36.5t-22.5 -17.5q-10 4 -23.5 7.5t-28 6.5t-28.5 5t-25 2q-29 0 -40 -27.5t-11 -97.5v-94h139v-52
h-139v-377q0 -16 6 -24.5t32 -9.5l72 -2v-37h-280v35zM920 71q0 -16 6 -24t32 -10l42 -2v-35h-250v35l42 2q26 2 32 10t6 24v312q0 20 -2.5 25.5t-18.5 12.5l-75 31v6l186 70v-457zM868 678q-29 0 -47.5 18.5t-18.5 47.5q0 28 18.5 47t47.5 19q28 0 47 -19t19 -47
q0 -29 -19 -47.5t-47 -18.5z" />
    <glyph glyph-name="f_l.liga" unicode="fl" horiz-adv-x="676" 
d="M43 35l42 2q26 2 32 10t6 24v379h-98v23l98 31v2q0 80 24 139.5t62 99.5q29 31 70.5 50.5t73.5 19.5q20 0 34.5 -10.5t14.5 -30.5q0 -21 -10.5 -36.5t-22.5 -17.5q-10 4 -23.5 7.5t-28 6.5t-28.5 5t-25 2q-29 0 -40 -27.5t-11 -97.5v-114h144v-52h-144v-377
q0 -16 6 -24.5t32 -9.5l72 -2v-37h-280v35zM567 71q0 -16 6 -24t32 -10l42 -2v-35h-250v35l42 2q26 2 32 10t6 24v618q0 20 -2.5 25.5t-18.5 12.5l-75 31v6l186 66v-759z" />
    <glyph glyph-name="f_f_l.liga" unicode="ffl" horiz-adv-x="1016" 
d="M911 71q0 -16 6 -24t32 -10l42 -2v-35h-250v35l42 2q26 2 32 10t6 24v618q0 20 -2.5 25.5t-18.5 12.5l-58 24q-10 -27 -29 -31q-10 4 -23.5 7.5t-28 6.5t-28.5 5t-25 2q-29 0 -40 -27.5t-11 -97.5v-114h144v-52h-144v-377q0 -16 6 -24.5t32 -9.5l72 -2v-37h-280v35l42 2
q26 2 32 10t6 24v379h-75v52h75v4q0 80 24 139.5t62 99.5q29 31 70.5 50.5t73.5 19.5q20 0 34.5 -10.5t14.5 -30.5v-3l165 59v-759zM43 35l42 2q26 2 32 10t6 24v379h-98v23l98 31v2q0 65 24 122t62 97q29 31 70.5 50.5t73.5 19.5q20 0 34.5 -10.5t14.5 -30.5
q0 -21 -10.5 -36.5t-22.5 -17.5q-10 4 -23.5 7.5t-28 6.5t-28.5 5t-25 2q-29 0 -40 -27.5t-11 -97.5v-94h139v-52h-139v-377q0 -16 6 -24.5t32 -9.5l72 -2v-37h-280v35z" />
    <glyph glyph-name=".notdef" horiz-adv-x="640" 
d="M70 758h500v-758h-500v758zM320 396l217 343h-434zM89 30l221 349l-221 349v-698zM551 30v698l-220 -349zM537 19l-217 343l-217 -343h434z" />
    <glyph glyph-name="glyph1" 
 />
    <glyph glyph-name="glyph2" horiz-adv-x="270" 
 />
    <glyph glyph-name="space" unicode=" " horiz-adv-x="270" 
 />
    <glyph glyph-name="exclam" unicode="!" horiz-adv-x="309" 
d="M139 232l-8.5 119t-7 87t-7 70t-6.5 67.5t-7 79t-8 105.5q0 13 18.5 19t41 6t41.5 -6t19 -19q-4 -62 -7.5 -105.5t-6.5 -79t-6.5 -67.5t-7 -70t-7.5 -87t-9 -119h-32zM153 -13q-31 0 -53 22.5t-22 55.5q0 31 22 53t53 22q33 0 55.5 -22t22.5 -53q0 -33 -22.5 -55.5
t-55.5 -22.5z" />
    <glyph glyph-name="quotedbl" unicode="&#x22;" horiz-adv-x="371" 
d="M215 732q-3 16 1.5 25.5t13 14t19 6t18.5 1.5t18 -1.5t18.5 -6t13 -14t1.5 -25.5l-40 -228h-23zM53 732q-3 16 1.5 25.5t13 14t19 6t18.5 1.5t18 -1.5t18.5 -6t13 -14t1.5 -25.5l-40 -228h-23z" />
    <glyph glyph-name="numbersign" unicode="#" horiz-adv-x="881" 
d="M58 267h173l90 221h-174l25 62h174l92 226h67l-92 -226h200l92 226h67l-92 -226h168l-25 -62h-168l-90 -221h168l-25 -62h-168l-83 -205h-67l83 205h-200l-83 -205h-67l83 205h-174zM498 267l90 221h-200l-90 -221h200z" />
    <glyph glyph-name="dollar" unicode="$" horiz-adv-x="584" 
d="M311 886v-107h6q37 0 73 -7.5t64 -22t45 -35t17 -47.5q0 -26 -23.5 -42t-58.5 -9q-6 64 -37.5 90t-85.5 29v-292l34 -14q42 -18 77.5 -37.5t60.5 -44t39 -57.5t14 -78q0 -43 -16 -81.5t-45 -68.5t-71 -49t-93 -24v-109h-40v107q-48 1 -90.5 13.5t-74 32.5t-49.5 45
t-18 52q0 33 23.5 50t58.5 10q5 -78 42.5 -117t107.5 -42v321l-29 12q-92 38 -133 89t-41 120q0 40 15.5 74.5t42.5 61t64 44t81 23.5v110h40zM148 614q0 -57 31.5 -92.5t91.5 -61.5v274q-25 -3 -47 -11.5t-39 -23t-27 -36t-10 -49.5zM311 335v-303q67 8 104 44t37 91
q0 35 -11 61t-30 45.5t-44.5 34t-53.5 26.5z" />
    <glyph glyph-name="percent" unicode="%" horiz-adv-x="907" 
d="M702 758h69l-566 -758h-69zM543 212q0 39 9.5 77.5t29.5 69t50.5 50t72.5 19.5q41 0 71.5 -19.5t50.5 -50t30 -69t10 -77.5t-10 -78t-30 -70.5t-50.5 -51t-71.5 -19.5q-42 0 -72.5 19.5t-50.5 51t-29.5 70.5t-9.5 78zM625 212q0 -33 3 -67t12 -62t24.5 -45.5t40.5 -17.5
q24 0 39.5 17.5t24.5 45.5t12.5 62t3.5 67q0 32 -3.5 65.5t-12.5 61t-24.5 45t-39.5 17.5q-25 0 -40.5 -17.5t-24.5 -45t-12 -61t-3 -65.5zM40 553q0 39 9.5 77.5t29.5 69t50.5 50t72.5 19.5q41 0 71.5 -19.5t50.5 -50t30 -69t10 -77.5t-10 -78t-30 -70.5t-50.5 -51
t-71.5 -19.5q-42 0 -72.5 19.5t-50.5 51t-29.5 70.5t-9.5 78zM122 553q0 -33 3 -67t12 -62t24.5 -45.5t40.5 -17.5q24 0 39.5 17.5t24.5 45.5t12.5 62t3.5 67q0 32 -3.5 65.5t-12.5 61t-24.5 45t-39.5 17.5q-25 0 -40.5 -17.5t-24.5 -45t-12 -61t-3 -65.5z" />
    <glyph glyph-name="ampersand" unicode="&#x26;" horiz-adv-x="896" 
d="M298 -13q-65 0 -111.5 20t-75.5 51t-42.5 69t-13.5 74q0 44 16 83t43.5 71.5t64 57.5t77.5 41q-38 36 -57 75.5t-19 80.5q0 35 14 66t39.5 54t60.5 36t76 13q34 0 64.5 -9.5t53.5 -26.5t36 -41.5t13 -55.5q0 -40 -19.5 -77t-65.5 -60l-77 -38q57 -50 115 -108.5
t109 -115.5q16 25 33 54l58 99q12 20 16.5 32.5t1 19.5t-16 10t-35.5 4l-29 1v35h233v-35l-18 -1q-19 -1 -33 -4.5t-29 -16t-34 -37.5t-48 -69l-77 -117q17 -20 32 -39.5t29 -37.5q42 -56 75 -84q19 -15 40.5 -19t54.5 -6l13 -1v-35h-202q-17 27 -43 63t-58 77
q-26 -32 -49.5 -54t-46.5 -41q-33 -28 -75.5 -43t-92.5 -15zM145 253q0 -39 14 -73.5t39.5 -60t61.5 -40.5t80 -15q61 0 109 26t91 77q-58 71 -126 142.5t-134 123.5q-58 -26 -96.5 -73t-38.5 -107zM265 649q0 -36 21 -76t66 -82q54 20 84.5 57.5t30.5 88.5q0 23 -7 43.5
t-19.5 36t-31.5 24.5t-43 9q-45 0 -73 -27.5t-28 -73.5z" />
    <glyph glyph-name="quotesingle" unicode="'" horiz-adv-x="209" 
d="M53 732q-3 16 1.5 25.5t13 14t19 6t18.5 1.5t18 -1.5t18.5 -6t13 -14t1.5 -25.5l-40 -228h-23z" />
    <glyph glyph-name="parenleft" unicode="(" horiz-adv-x="323" 
d="M272 -238q-62 53 -105 117t-70 133t-39.5 141t-12.5 142t12.5 142t39.5 141t70 133t105 117l26 -24q-49 -54 -81.5 -117t-52 -129t-27.5 -133t-8 -130t8 -130t27.5 -133t52 -129t81.5 -117z" />
    <glyph glyph-name="parenright" unicode=")" horiz-adv-x="322" 
d="M51 828q62 -53 105 -117t70 -133t39.5 -141t12.5 -142t-12.5 -142t-39.5 -141t-70 -133t-105 -117l-26 24q49 54 81.5 117t52 129t27.5 133t8 130t-8 130t-27.5 133t-52 129t-81.5 117z" />
    <glyph glyph-name="asterisk" unicode="*" horiz-adv-x="473" 
d="M129 422l-21 15l79 140l-147 67l9 24l157 -33l17 160h26l18 -160l157 33l8 -24l-147 -67l79 -140l-20 -15l-108 120z" />
    <glyph glyph-name="plus" unicode="+" horiz-adv-x="653" 
d="M292 230h-234v65h234v221h69v-221h234v-65h-234v-230h-69v230z" />
    <glyph glyph-name="comma" unicode="," horiz-adv-x="290" 
d="M127 140q21 0 40.5 -8.5t34.5 -23.5t23.5 -37t8.5 -49q0 -26 -11.5 -52.5t-33.5 -52.5t-52.5 -49.5t-69.5 -42.5l-13 28q26 15 44.5 31.5t30 33.5t17 32.5t5.5 28.5q0 38 -22.5 59t-68.5 35q0 16 6 28.5t16 21t21.5 13t23.5 4.5z" />
    <glyph glyph-name="hyphen" unicode="-" horiz-adv-x="428" 
d="M67 295h294v-65h-294v65z" />
    <glyph glyph-name="period" unicode="." horiz-adv-x="269" 
d="M133 -13q-31 0 -53 22.5t-22 55.5q0 31 22 53t53 22q33 0 55.5 -22t22.5 -53q0 -33 -22.5 -55.5t-55.5 -22.5z" />
    <glyph glyph-name="slash" unicode="/" horiz-adv-x="471" 
d="M374 806h67l-346 -858h-64z" />
    <glyph glyph-name="zero" unicode="0" horiz-adv-x="655" 
d="M54 385q0 70 16 140.5t50 126.5t85 91.5t122 35.5t122.5 -35.5t85.5 -91.5t50 -126.5t16 -140.5q0 -71 -16 -142t-50 -128t-85.5 -92.5t-122.5 -35.5t-122 35.5t-85 92.5t-50 128t-16 142zM166 385q0 -63 7.5 -126.5t25.5 -115.5t49 -84.5t79 -32.5t79 32.5t49.5 84.5
t26 115.5t7.5 126.5q0 62 -7.5 125t-26 114t-49.5 83.5t-79 32.5t-79 -32.5t-49 -83.5t-25.5 -114t-7.5 -125z" />
    <glyph glyph-name="one" unicode="1" horiz-adv-x="386" 
d="M160 648h-129v32q49 4 81 13t53 21.5t35.5 29t28.5 37.5h21v-710q0 -16 6 -24t32 -10l42 -2v-35h-259v35l51 3q26 2 32 9.5t6 23.5v577z" />
    <glyph glyph-name="two" unicode="2" horiz-adv-x="575" 
d="M20 0v17q102 100 174 180.5t117.5 147t66.5 121t21 102.5q0 31 -10.5 57.5t-29.5 45.5t-47 30t-62 11q-29 0 -51 -8t-41 -23t-36.5 -36t-37.5 -46l-32 19q23 38 47 68t52 50.5t60.5 31.5t73.5 11q51 0 91 -14.5t68 -39.5t42.5 -58.5t14.5 -72.5q0 -45 -15.5 -87.5
t-41 -83.5t-59.5 -80.5t-70 -77.5q-32 -34 -78 -82t-98 -99l223 1q37 0 59 3t36.5 13t24.5 27.5t22 47.5l29 -4l-50 -172h-463z" />
    <glyph glyph-name="three" unicode="3" horiz-adv-x="576" 
d="M219 -13q-43 0 -78 9t-59.5 24t-38 34.5t-13.5 39.5q0 28 21.5 42.5t47.5 10.5q28 -61 62.5 -90t85.5 -29q27 0 58.5 10.5t58.5 33.5t45 60t18 90q0 42 -14 74.5t-37 55t-53 34.5t-61 12q-18 0 -36.5 -5.5t-38.5 -13.5l-9 32l66 26q77 30 113 78t36 97t-32.5 75t-86.5 26
q-29 0 -51.5 -7t-42 -21t-37 -35.5t-35.5 -50.5l-32 19q43 84 99.5 122.5t136.5 38.5t129 -36.5t49 -98.5q0 -29 -12 -54.5t-31.5 -47.5t-43.5 -40.5t-49 -31.5v-3q34 -12 65 -31t55 -45.5t38 -60.5t14 -76q0 -65 -30.5 -115t-76 -84t-99.5 -51t-101 -17z" />
    <glyph glyph-name="four" unicode="4" horiz-adv-x="616" 
d="M360 200h-346v28l361 530h75v-494h137v-64h-137v-200h-90v200zM360 264v399l-266 -399h266z" />
    <glyph glyph-name="five" unicode="5" horiz-adv-x="566" 
d="M204 -13q-42 0 -76 9t-58 24t-37 34.5t-13 39.5q0 28 21.5 42.5t47.5 10.5q29 -60 62 -89.5t84 -29.5q28 0 60.5 11t60.5 34.5t46 58.5t18 83q0 49 -23.5 87t-64 67t-96 49.5t-119.5 35.5l81 304h326l-25 -91h-283l-34 -124q78 -22 138 -48.5t101 -61t63 -79t22 -102.5
q0 -60 -27 -109t-70.5 -83.5t-97.5 -53.5t-107 -19z" />
    <glyph glyph-name="six" unicode="6" horiz-adv-x="610" 
d="M546 233q0 -53 -21 -98t-56.5 -78t-81 -51.5t-93.5 -18.5q-52 0 -97 21.5t-78.5 60.5t-52.5 93t-19 120q0 77 36.5 156t104.5 148.5t165 125.5t219 86l8 -37q-92 -24 -163 -67.5t-122.5 -96.5t-84 -112t-46.5 -116q14 13 36.5 28.5t42.5 27.5q38 23 95 23q36 0 73 -11
t67 -36.5t49 -66.5t19 -101zM153 282q0 -129 39.5 -192.5t107.5 -63.5q64 0 102 47.5t38 137.5q0 84 -42 129.5t-112 45.5q-42 0 -74.5 -16t-54.5 -39q-4 -23 -4 -49z" />
    <glyph glyph-name="seven" unicode="7" horiz-adv-x="554" 
d="M260 225q-29 -51 -47.5 -95t-34.5 -86q-12 -32 -24.5 -44.5t-42.5 -20.5l-29 -8q-22 -6 -27.5 4.5t15.5 42.5q46 71 95.5 149.5t101 162t103.5 169.5t103 172l-254 -2q-45 0 -70.5 -3t-40.5 -12t-23.5 -27t-20.5 -49l-29 4l31 176h478l10 -15z" />
    <glyph glyph-name="eight" unicode="8" horiz-adv-x="585" 
d="M287 -13q-55 0 -99 16.5t-74.5 43.5t-46.5 62t-16 73q0 36 13.5 66.5t37 55.5t54.5 46t66 38q-70 42 -106 90t-36 113q0 43 19 77.5t50.5 59t71.5 38t82 13.5q41 0 78 -11t64.5 -31.5t44 -50t16.5 -65.5q0 -33 -15 -62t-38 -53t-51.5 -43t-56.5 -32l29 -16
q31 -17 60 -37.5t51 -46t35 -58t13 -74.5q0 -46 -20 -84.5t-54 -67t-78.5 -44.5t-93.5 -16zM320 445q52 30 81.5 72.5t29.5 96.5q0 29 -10 52t-27.5 39.5t-40.5 25.5t-50 9q-31 0 -56 -10t-42.5 -26.5t-27 -38.5t-9.5 -46q0 -53 33.5 -90t86.5 -66zM135 192
q0 -73 39.5 -119.5t112.5 -46.5q32 0 58.5 11t46 30t30.5 45.5t11 57.5q0 23 -5 44t-18 40.5t-35 38.5t-56 39l-72 41q-23 -13 -43 -30t-35.5 -39t-24.5 -50t-9 -62z" />
    <glyph glyph-name="nine" unicode="9" horiz-adv-x="610" 
d="M564 484q0 -77 -36.5 -156t-104.5 -148.5t-165.5 -125.5t-218.5 -86l-8 37q92 24 163 67t122.5 96.5t84 112.5t46.5 116q-14 -13 -36.5 -28.5t-42.5 -27.5q-38 -23 -95 -23q-36 0 -73 11t-67 36.5t-49 66.5t-19 101q0 52 21 97t56.5 78t81 52t93.5 19q52 0 97 -21.5
t78.5 -60.5t52.5 -93t19 -120zM171 555q0 -84 42 -129.5t112 -45.5q42 0 74.5 16t54.5 39q4 23 4 49q0 129 -39.5 192.5t-107.5 63.5q-64 0 -102 -47.5t-38 -137.5z" />
    <glyph glyph-name="colon" unicode=":" horiz-adv-x="289" 
d="M143 365q-31 0 -53 22.5t-22 55.5q0 31 22 53t53 22q33 0 55.5 -22t22.5 -53q0 -33 -22.5 -55.5t-55.5 -22.5zM143 -13q-31 0 -53 22.5t-22 55.5q0 31 22 53t53 22q33 0 55.5 -22t22.5 -53q0 -33 -22.5 -55.5t-55.5 -22.5z" />
    <glyph glyph-name="semicolon" unicode=";" horiz-adv-x="315" 
d="M157 365q-31 0 -53 22.5t-22 55.5q0 31 22 53t53 22q33 0 55.5 -22t22.5 -53q0 -33 -22.5 -55.5t-55.5 -22.5zM138 140q21 0 40.5 -8.5t34.5 -23.5t23.5 -37t8.5 -49q0 -26 -11.5 -52.5t-33.5 -52.5t-52.5 -49.5t-69.5 -42.5l-13 28q26 15 44.5 31.5t30 33.5t17 32.5
t5.5 28.5q0 38 -22.5 59t-68.5 35q0 16 6 28.5t16 21t21.5 13t23.5 4.5z" />
    <glyph glyph-name="less" unicode="&#x3c;" horiz-adv-x="653" 
d="M52 292l527 225v-71l-433 -184l433 -184v-71l-527 226v59z" />
    <glyph glyph-name="equal" unicode="=" horiz-adv-x="653" 
d="M63 399h527v-65h-527v65zM63 179h527v-65h-527v65z" />
    <glyph glyph-name="greater" unicode="&#x3e;" horiz-adv-x="653" 
d="M601 233l-527 -226v71l433 184l-433 184v71l527 -225v-59z" />
    <glyph glyph-name="question" unicode="?" horiz-adv-x="514" 
d="M230 730q-48 0 -79.5 -22.5t-51.5 -59.5q-28 1 -43.5 16.5t-15.5 36.5q0 32 37.5 55t107.5 23q55 0 107.5 -18t93.5 -50t66.5 -75t25.5 -94t-32.5 -84.5t-103.5 -47.5l-96 -18q-16 -3 -25 -6.5t-13.5 -9.5t-6 -16t-2.5 -26l-7 -102h-30l-18 149q-3 25 -1.5 41t11 26.5
t28 17t49.5 12.5l77 14q60 11 83.5 32.5t23.5 62.5q0 29 -16.5 55t-42.5 45.5t-59 31t-67 11.5zM181 -13q-31 0 -53 22.5t-22 55.5q0 31 22 53t53 22q33 0 55.5 -22t22.5 -53q0 -33 -22.5 -55.5t-55.5 -22.5z" />
    <glyph glyph-name="at" unicode="@" horiz-adv-x="876" 
d="M617 37q-36 -19 -88.5 -34.5t-127.5 -15.5q-69 0 -132 22t-111.5 63.5t-77.5 102t-29 138.5q0 93 37 177t101.5 148.5t150.5 102.5t185 38q57 0 113 -18.5t100.5 -54.5t72 -90t27.5 -125q0 -82 -26.5 -141.5t-71 -98t-101.5 -57t-118 -18.5t-61 27q0 11 5.5 26t13.5 35
l17 44h-5q-46 -61 -90.5 -95.5t-92.5 -34.5q-38 0 -60 24t-22 66q0 35 15.5 74.5t41 78.5t59 75.5t69 64.5t71 44.5t66.5 16.5q32 0 65.5 -13.5t63.5 -24.5l-122 -319q-7 -18 -11.5 -28.5t-4.5 -15.5q0 -3 1.5 -4.5t7.5 -1.5q36 0 77.5 13.5t77 45.5t59 85t23.5 132
q0 52 -19 97t-53.5 77.5t-82 51t-105.5 18.5q-84 0 -155.5 -33.5t-123.5 -89t-81 -128.5t-29 -152q0 -60 18 -114.5t55.5 -96t95.5 -66t139 -24.5q46 0 88.5 11.5t70.5 25.5zM357 235q14 0 37 13t49.5 40t53.5 69.5t50 101.5l42 111q-8 21 -42 21q-23 0 -48.5 -13.5t-51 -37
t-48.5 -54t-40.5 -64.5t-28 -69.5t-10.5 -67.5q0 -50 37 -50z" />
    <glyph glyph-name="A" unicode="A" horiz-adv-x="746" 
d="M-14 35l23 2q22 2 35.5 5.5t24 14.5t19.5 31.5t23 56.5l237 636h46l269 -700q6 -15 11 -23.5t11.5 -13t15.5 -5.5t22 -2l33 -2v-35h-282v35l48 2q14 1 22 2.5t11 6.5t1 15.5t-9 28.5l-67 180h-267l-45 -127q-11 -31 -16 -51t-3 -31.5t11.5 -16.5t26.5 -6l44 -3v-35h-245
v35zM462 319l-118 317l-113 -317h231z" />
    <glyph glyph-name="B" unicode="B" horiz-adv-x="693" 
d="M310 758q134 0 206.5 -43t72.5 -128q0 -38 -15.5 -67t-40 -50.5t-56 -36.5t-62.5 -24v-1q37 -5 78 -18t75.5 -35t57.5 -54t25 -74q2 -54 -20 -96.5t-62.5 -71.5t-97 -44t-125.5 -15h-291v35l36 2q21 1 32.5 4t17 10.5t7 21.5t1.5 38v536q0 24 -1.5 38t-7 21.5t-17 10.5
t-32.5 4l-36 2v35h255zM308 425q91 0 132.5 41t41.5 116q0 67 -42 102.5t-136 35.5q-19 0 -29 -1t-15 -3.5t-6 -7t-1 -11.5v-272h55zM253 110q0 -43 18 -57.5t65 -14.5q102 0 151 42.5t49 123.5q0 37 -10.5 70t-36.5 57.5t-70 38.5t-110 14h-56v-274z" />
    <glyph glyph-name="C" unicode="C" horiz-adv-x="766" 
d="M476 31q54 0 95 13.5t65 54.5l66 112h27l-41 -186q-45 -14 -104 -26t-142 -12q-84 0 -156 31.5t-125 85.5t-83.5 126t-30.5 153t31 153t85.5 126t128.5 85.5t161 31.5q83 0 138 -12t89 -23l33 -182h-27l-58 105q-12 21 -30.5 34t-42 20.5t-50 10.5t-54.5 3
q-53 0 -103.5 -19.5t-90 -59.5t-64 -101t-24.5 -143q0 -86 22.5 -156t63 -120t97 -77.5t124.5 -27.5z" />
    <glyph glyph-name="D" unicode="D" horiz-adv-x="861" 
d="M360 758q98 0 181 -26t144 -74t95 -117t34 -156q0 -86 -35.5 -157t-97 -121.5t-144.5 -78.5t-177 -28h-305v35l36 2q21 1 32.5 4t17 10.5t7 21.5t1.5 38v536q0 24 -1.5 38t-7 21.5t-17 10.5t-32.5 4l-36 2v35h305zM360 38q66 0 126 17t105.5 55.5t72.5 99.5t27 150
q0 86 -20 153t-62.5 113t-109 70t-159.5 24q-30 0 -47 -1t-26 -3.5t-11.5 -7t-2.5 -11.5v-585q0 -22 3.5 -36t13.5 -22.5t26.5 -12t43.5 -3.5h20z" />
    <glyph glyph-name="E" unicode="E" horiz-adv-x="711" 
d="M55 35l36 2q21 1 32.5 4t17 10.5t7 21.5t1.5 38v536q0 24 -1.5 38t-7 21.5t-17 10.5t-32.5 4l-36 2v35h242l291 2l8 -181h-30l-14 45q-11 34 -24 53t-38 28t-65.5 11t-105.5 2h-46q-20 0 -20 -20v-289h128q20 0 35 1.5t26.5 8.5t19.5 21.5t14 40.5l9 39h30v-268h-30
l-9 39q-6 26 -14 40.5t-19.5 21.5t-26.5 8.5t-35 1.5h-128v-251q0 -26 5.5 -40.5t17.5 -21.5t30.5 -8.5t43.5 -1.5h21q72 0 114.5 3.5t67 13t38 26t28.5 43.5l41 73h30l-51 -199h-584v35z" />
    <glyph glyph-name="F" unicode="F" horiz-adv-x="647" 
d="M55 35l36 2q21 1 32.5 4t17 10.5t7 21.5t1.5 38v536q0 24 -1.5 38t-7 21.5t-17 10.5t-32.5 4l-36 2v35h259l291 2l8 -181h-30l-14 45q-11 34 -24 53t-38 28t-65.5 11t-105.5 2h-63q-20 0 -20 -20v-289h145q20 0 35 1.5t26.5 8.5t19.5 21.5t14 40.5l9 39h30v-268h-30
l-9 39q-6 26 -14 40.5t-19.5 21.5t-26.5 8.5t-35 1.5h-145v-252q0 -26 1.5 -40.5t8.5 -21.5t21.5 -8.5t40.5 -2.5l42 -1v-37h-312v35z" />
    <glyph glyph-name="G" unicode="G" horiz-adv-x="813" 
d="M457 -13q-92 0 -167.5 31.5t-129.5 85.5t-83.5 126t-29.5 153t32 153t87 126t129 85.5t158 31.5q83 0 138 -12t89 -23l33 -182h-27l-58 105q-12 21 -30.5 34t-42 20.5t-50 10.5t-54.5 3q-53 0 -103.5 -19.5t-90 -59.5t-64 -101t-24.5 -143q0 -86 22.5 -156t61.5 -120
t93 -77.5t117 -27.5q44 0 72 5.5t58 14.5v200q0 24 -1.5 38.5t-7 22t-17 10t-32.5 3.5l-56 2v35h312v-35l-36 -2q-21 -1 -32.5 -4t-17 -10.5t-7 -21.5t-1.5 -38v-145l5 -71q-53 -20 -110.5 -34t-134.5 -14z" />
    <glyph glyph-name="H" unicode="H" horiz-adv-x="926" 
d="M149 647q0 24 -1.5 38t-7 21.5t-17 10.5t-32.5 4l-36 2v35h292v-35l-36 -2q-21 -1 -32.5 -4t-17 -10.5t-7 -21.5t-1.5 -38v-238h420v238q0 24 -1.5 38t-7 21.5t-17 10.5t-32.5 4l-36 2v35h292v-35l-36 -2q-21 -1 -32.5 -4t-17 -10.5t-7 -21.5t-1.5 -38v-536
q0 -24 1.5 -38t7 -21.5t17 -10.5t32.5 -4l36 -2v-35h-292v35l36 2q21 1 32.5 4t17 10.5t7 21.5t1.5 38v250h-420v-250q0 -24 1.5 -38t7 -21.5t17 -10.5t32.5 -4l36 -2v-35h-292v35l36 2q21 1 32.5 4t17 10.5t7 21.5t1.5 38v536z" />
    <glyph glyph-name="I" unicode="I" horiz-adv-x="402" 
d="M149 647q0 24 -1.5 38t-7 21.5t-17 10.5t-32.5 4l-36 2v35h292v-35l-36 -2q-21 -1 -32.5 -4t-17 -10.5t-7 -21.5t-1.5 -38v-536q0 -24 1.5 -38t7 -21.5t17 -10.5t32.5 -4l36 -2v-35h-292v35l36 2q21 1 32.5 4t17 10.5t7 21.5t1.5 38v536z" />
    <glyph glyph-name="J" unicode="J" horiz-adv-x="387" 
d="M26 -73q34 31 57.5 55t38.5 51.5t21.5 64.5t6.5 94v455q0 24 -1.5 38t-7 21.5t-17 10.5t-32.5 4l-36 2v35h292v-35l-36 -2q-21 -1 -32.5 -4t-17 -10.5t-7 -21.5t-1.5 -38v-435q0 -37 -2 -66t-8 -52t-17.5 -42.5t-30.5 -36.5q-13 -12 -31 -26t-38.5 -29.5t-42 -31
t-40.5 -28.5z" />
    <glyph glyph-name="K" unicode="K" horiz-adv-x="807" 
d="M306 350l-53 -2v-237q0 -24 1.5 -38t7 -21.5t17 -10.5t32.5 -4l36 -2v-35h-292v35l36 2q21 1 32.5 4t17 10.5t7 21.5t1.5 38v536q0 24 -1.5 38t-7 21.5t-17 10.5t-32.5 4l-36 2v35h292v-35l-36 -2q-21 -1 -32.5 -4t-17 -10.5t-7 -21.5t-1.5 -38v-270q18 5 32 16t36 34
l173 183q32 34 47.5 55.5t15.5 34.5t-15.5 18t-46.5 5h-14v35h278v-35l-17 -1q-24 -2 -42.5 -5.5t-37 -14t-40.5 -30t-53 -51.5l-190 -195l306 -343q18 -20 39.5 -32t50.5 -14l35 -2v-35h-202z" />
    <glyph glyph-name="L" unicode="L" horiz-adv-x="653" 
d="M55 35l36 2q21 1 32.5 4t17 10.5t7 21.5t1.5 38v536q0 24 -1.5 38t-7 21.5t-17 10.5t-32.5 4l-36 2v35h292v-35l-36 -2q-21 -1 -32.5 -4t-17 -10.5t-7 -21.5t-1.5 -38v-535q0 -26 5.5 -40.5t17.5 -21.5t30.5 -8.5t43.5 -1.5q58 0 94 3.5t58.5 13t37 26t29.5 43.5l41 73
h30l-51 -199h-534v35z" />
    <glyph glyph-name="M" unicode="M" horiz-adv-x="1048" 
d="M207 644l-11 -423q-2 -64 -0.5 -100.5t8 -55.5t18.5 -24t33 -5l37 -1v-35h-256v35l37 1q21 0 33.5 5t19.5 24t10.5 55.5t6.5 101.5l18 422q1 26 -0.5 41t-7.5 23t-17 10t-29 3l-38 2v35h200l263 -583l245 583h203v-35l-38 -2q-18 -1 -29 -3t-17 -10t-7.5 -23t-0.5 -41
l26 -533q1 -24 2.5 -38t7.5 -21.5t17 -10.5t32 -4l36 -2v-35h-292v35l36 2q21 1 33 4t18 10.5t7 21.5t0 38l-27 533l-272 -653h-14z" />
    <glyph glyph-name="N" unicode="N" horiz-adv-x="924" 
d="M204 608v-386q0 -64 1 -100t7 -54.5t19 -24t37 -6.5l37 -2v-35h-253v35l37 2q24 1 37.5 6.5t19.5 24t7 54.5t1 100v387q0 60 -28.5 86t-94.5 28v35h171l532 -569v347q0 64 -1 100t-7 54.5t-19 23.5t-37 7l-37 2v35h253v-35l-37 -2q-24 -2 -37.5 -7t-19.5 -23.5t-7 -54.5
t-1 -100v-539h-27z" />
    <glyph glyph-name="O" unicode="O" horiz-adv-x="882" 
d="M441 779q81 0 153 -29.5t125 -82t84 -125.5t31 -159t-31.5 -159t-85 -125.5t-125 -82t-151.5 -29.5q-81 0 -153 29.5t-125 82t-84 125.5t-31 159t31.5 159t85 125.5t125 82t151.5 29.5zM428 737q-53 0 -100 -20.5t-82 -61t-55.5 -101.5t-20.5 -143q0 -89 20.5 -159.5
t57.5 -120t89.5 -76t116.5 -26.5q53 0 100 20.5t82 61t55.5 101.5t20.5 143q0 89 -20.5 159.5t-57.5 120t-89.5 76t-116.5 26.5z" />
    <glyph glyph-name="P" unicode="P" horiz-adv-x="648" 
d="M55 35l36 2q21 1 32.5 4t17 10.5t7 21.5t1.5 38v536q0 24 -1.5 38t-7 21.5t-17 10.5t-32.5 4l-36 2v35h262q55 0 109.5 -9t97.5 -32t70 -63.5t27 -103.5q0 -51 -22.5 -91.5t-60.5 -68t-89 -42.5t-109 -15h-36v35h33q81 0 126 44t45 125q0 89 -53 136t-152 47
q-32 0 -41 -4t-9 -20v-585q0 -26 1.5 -40.5t8.5 -21.5t21.5 -8.5t40.5 -2.5l42 -1v-37h-312v35z" />
    <glyph glyph-name="Q" unicode="Q" horiz-adv-x="882" 
d="M441 779q81 0 153 -29.5t125 -82t84 -125.5t31 -159q0 -78 -25.5 -145t-70.5 -118t-105.5 -84.5t-129.5 -43.5l-199 -74q23 5 40 6t37 1q50 0 110 -9.5t119.5 -21.5t113 -21.5t91.5 -9.5q48 0 74.5 16.5t46.5 58.5l30 -11q-29 -78 -71 -117t-101 -39q-28 0 -66.5 9.5
t-82 23.5t-89 31t-88 31t-79.5 23.5t-63 9.5q-28 0 -49 -10q-2 -38 -14 -55t-31 -17q-15 0 -25.5 11.5t-10.5 28.5q0 8 2.5 17.5t10.5 20t23 21t41 19.5l143 53q-77 4 -144 35.5t-117 83.5t-78.5 122.5t-28.5 153.5q0 86 31.5 159t85 125.5t125 82t151.5 29.5zM428 737
q-53 0 -100 -20.5t-82 -61t-55.5 -101.5t-20.5 -143q0 -89 20.5 -159.5t57.5 -120t89.5 -76t116.5 -26.5q53 0 100 20.5t82 61t55.5 101.5t20.5 143q0 89 -20.5 159.5t-57.5 120t-89.5 76t-116.5 26.5z" />
    <glyph glyph-name="R" unicode="R" horiz-adv-x="754" 
d="M319 758q70 0 126.5 -10t96 -32t61 -56.5t21.5 -83.5q0 -75 -50.5 -124.5t-138.5 -73.5q56 -72 111 -142.5t111 -135.5q14 -17 25 -28.5t20.5 -19t20.5 -11.5t25 -5l23 -1v-35h-179l-263 358h-76v-247q0 -26 1.5 -40.5t8.5 -21.5t21.5 -8.5t40.5 -2.5l32 -1v-37h-302v35
l36 2q21 1 32.5 4t17 10.5t7 21.5t1.5 38v536q0 24 -1.5 38t-7 21.5t-17 10.5t-32.5 4l-36 2v35h264zM253 397q14 -2 29 -2.5t27 -0.5q59 0 98 13.5t62 35.5t32.5 51t9.5 59q0 31 -7.5 61t-29 53.5t-61.5 38t-104 14.5q-19 0 -30 -1t-17 -3t-7.5 -7t-1.5 -12v-300z" />
    <glyph glyph-name="S" unicode="S" horiz-adv-x="600" 
d="M286 -13q-54 0 -102 11t-91 28l-41 207l27 7l67 -129q23 -44 58 -62t85 -18q36 0 67 7.5t53.5 24t35.5 42.5t13 62q0 30 -11 55t-30 45t-43.5 35.5t-51.5 26.5l-71 30q-92 38 -133 91.5t-41 122.5q0 46 18.5 84t50 65t72.5 42t87 15q95 0 164 -26l33 -172l-26 -9l-64 104
q-20 32 -46.5 45.5t-64.5 13.5q-29 0 -54 -7t-44.5 -21.5t-30.5 -37.5t-11 -55q0 -54 33 -91t89 -60l71 -30q42 -18 78 -38t62 -45.5t40.5 -59t14.5 -78.5q0 -52 -23 -93.5t-60.5 -71t-84.5 -45t-95 -15.5z" />
    <glyph glyph-name="T" unicode="T" horiz-adv-x="746" 
d="M207 37l42 1q26 1 40.5 2.5t21.5 8.5t8.5 21.5t1.5 40.5v607h-31q-65 0 -105 -2t-64.5 -11t-37.5 -28t-23 -53l-14 -45h-30l11 210h8q14 -10 28 -16t36 -9.5t56.5 -4.5t90.5 -1h254q55 0 90 1t57 4.5t36 9.5t28 16h8l11 -210h-30l-14 45q-11 34 -23.5 53t-37 28t-64.5 11
t-105 2h-31v-607q0 -26 1.5 -40.5t8.5 -21.5t21.5 -8.5t40.5 -2.5l42 -1v-37h-332v37z" />
    <glyph glyph-name="U" unicode="U" horiz-adv-x="843" 
d="M423 -13q-71 0 -126 16.5t-93 53.5t-58 95.5t-20 142.5v352q0 24 -1.5 38t-7 21.5t-17 10.5t-32.5 4l-36 2v35h292v-35l-36 -2q-21 -1 -32.5 -4t-17 -10.5t-7 -21.5t-1.5 -38v-352q0 -72 16 -121.5t44 -80t66.5 -44t84.5 -13.5q49 0 89.5 13.5t69 43.5t44 79t15.5 120
v244q0 64 -1 100.5t-7 55t-19 23.5t-37 7l-37 2v34h257v-34l-37 -2q-24 -2 -37.5 -7t-19.5 -23.5t-7 -55t-1 -100.5v-243q0 -81 -20 -139t-57.5 -95t-91 -54.5t-121.5 -17.5z" />
    <glyph glyph-name="V" unicode="V" horiz-adv-x="743" 
d="M389 -23h-32l-276 700q-6 15 -11 23.5t-11 13t-14.5 5.5t-21.5 2l-33 2v35h282v-35l-48 -2q-14 -1 -22.5 -2.5t-12 -6.5t-1.5 -15.5t9 -28.5l203 -528l176 475q12 31 16.5 51t2 31.5t-12.5 16.5t-27 6l-44 3v35h245v-35l-23 -2q-22 -2 -35 -5.5t-23 -14.5t-19 -31.5
t-23 -56.5z" />
    <glyph glyph-name="W" unicode="W" horiz-adv-x="1120" 
d="M81 677q-6 15 -11 23.5t-11 13t-14.5 5.5t-21.5 2l-33 2v35h282v-35l-48 -2q-14 -1 -22.5 -2.5t-12 -6.5t-1.5 -15.5t9 -28.5l203 -528l142 384l-82 234h223v-35l-48 -2q-14 -1 -22 -2t-11 -6.5t-1.5 -15.5t7.5 -29l169 -528l176 475q12 31 16.5 51t2 31.5t-12.5 16.5
t-27 6l-44 3v35h245v-35l-23 -2q-22 -2 -35 -5.5t-23 -14.5t-19 -31.5t-23 -56.5l-244 -636h-32l-165 469l-180 -469h-32z" />
    <glyph glyph-name="X" unicode="X" horiz-adv-x="808" 
d="M-14 35l38 2q29 2 58.5 31t70.5 77l202 236l-239 316q-5 6 -9 10.5t-9.5 7t-14 4t-21.5 2.5l-33 2v35h299v-35l-45 -2q-28 -2 -37 -9t6 -27l168 -222l119 152q20 25 35 45t21 33.5t1 21t-24 7.5l-44 1v35h245v-35l-38 -2q-29 -2 -59 -31t-70 -77l-157 -188l274 -364
q5 -6 9 -10.5t9.5 -7t14 -4t21.5 -2.5l33 -2v-35h-299v35l45 2q28 2 37 9t-6 27l-204 270l-163 -200q-20 -25 -35 -44.5t-21 -33.5t-1.5 -21.5t24.5 -7.5l44 -1v-35h-245v35z" />
    <glyph glyph-name="Y" unicode="Y" horiz-adv-x="741" 
d="M202 37l42 1q26 1 40.5 2.5t21.5 8.5t8.5 21.5t1.5 40.5v222l-229 364q-8 14 -16 18t-34 6l-33 2v35h289v-35l-48 -2q-28 -2 -38 -8t4 -28l190 -301l151 231q36 55 36 80t-43 26l-39 2v35h245v-35l-33 -2q-16 0 -27 -5t-22.5 -17t-26 -33t-35.5 -53l-187 -282v-220
q0 -26 1.5 -40.5t8.5 -21.5t21.5 -8.5t40.5 -2.5l42 -1v-37h-332v37z" />
    <glyph glyph-name="Z" unicode="Z" horiz-adv-x="745" 
d="M567 718h-192q-72 0 -114.5 -3.5t-67 -13t-38 -26t-28.5 -43.5l-41 -73h-30l59 230h8q14 -10 30.5 -16t40.5 -9.5t58 -4.5t82 -1h386l-558 -718h228q72 0 114.5 3.5t67 13t38 26t28.5 43.5l41 73h30l-51 -199h-649z" />
    <glyph glyph-name="bracketleft" unicode="[" horiz-adv-x="321" 
d="M179 -132q0 -24 3 -37.5t11.5 -20t23.5 -8.5t39 -3l37 -2v-35h-184v1064h184v-35l-37 -2q-24 -1 -39 -3t-23.5 -8.5t-11.5 -20t-3 -37.5v-852z" />
    <glyph glyph-name="backslash" unicode="\" horiz-adv-x="471" 
d="M376 -52l-346 858h67l343 -858h-64z" />
    <glyph glyph-name="bracketright" unicode="]" horiz-adv-x="321" 
d="M142 720q0 24 -3 37.5t-11.5 20t-23.5 8.5t-39 3l-37 2v35h184v-1064h-184v35l37 2q24 1 39 3t23.5 8.5t11.5 20t3 37.5v852z" />
    <glyph glyph-name="asciicircum" unicode="^" horiz-adv-x="653" 
d="M556 361h-66l-163 333l-163 -333h-66l206 415h46z" />
    <glyph glyph-name="underscore" unicode="_" horiz-adv-x="534" 
d="M0 -80h534v-61h-534v61z" />
    <glyph glyph-name="grave" unicode="`" 
d="M97 609l-210 176v3h121l105 -179h-16z" />
    <glyph glyph-name="a" unicode="a" horiz-adv-x="527" 
d="M202 -13q-29 0 -56.5 11t-50 29.5t-36 43.5t-13.5 54q0 28 11.5 49t33.5 38t54.5 31.5t74.5 30.5q16 6 34 14t34.5 17.5t29.5 19.5t20 20v32q0 25 -9 43.5t-23.5 30.5t-32.5 18t-36 6q-32 0 -52.5 -10t-32.5 -26.5t-16.5 -39.5t-4.5 -48q-6 -3 -14 -4t-14 -1h-2
q-24 0 -38.5 12.5t-14.5 35.5q0 20 22 39.5t64 37.5q35 15 75.5 32t78.5 17q30 0 55.5 -6.5t44 -22.5t28.5 -43t9 -69l-5 -288q-1 -26 2.5 -32t20.5 -6t31.5 1t29.5 3l4 -30l-30 -12q-6 -3 -17 -7t-23 -7.5t-24 -6.5t-21 -3q-25 0 -36 14.5t-19 48.5q-16 -13 -33 -25.5
t-36 -23.5q-15 -8 -32 -13t-35 -5zM251 40q27 0 50.5 15t30.5 36l5 211q-18 -12 -39 -23t-41 -22q-21 -11 -41.5 -23t-36 -26t-25 -30.5t-9.5 -37.5q0 -26 10 -45t26 -31t34.5 -18t35.5 -6z" />
    <glyph glyph-name="b" unicode="b" horiz-adv-x="598" 
d="M272 -13q-24 0 -61 7.5t-69 25.5l-51 -36h-4l2 88v617q0 20 -2.5 25.5t-18.5 12.5l-75 31v6l186 66v-383q20 14 42.5 28t43.5 25q15 8 34 13t39 5q49 0 89 -18.5t68.5 -51.5t44 -78.5t15.5 -100.5q0 -62 -23.5 -113.5t-63 -89t-90.5 -58.5t-106 -21zM179 119
q0 -47 28 -70.5t71 -23.5q35 0 67 13.5t56.5 39t39 63.5t14.5 86t-11 90t-33 73.5t-55 50t-76 18.5q-27 0 -54.5 -12.5t-46.5 -29.5v-298z" />
    <glyph glyph-name="c" unicode="c" horiz-adv-x="511" 
d="M281 -13q-54 0 -98.5 20.5t-75.5 55t-48 81t-17 98.5q0 60 21.5 111t58.5 87.5t87.5 57t108.5 20.5q26 0 52 -4t46.5 -12t33.5 -22t13 -33q0 -26 -16 -42.5t-45 -13.5q-20 36 -51.5 59t-77.5 23q-27 0 -53 -12t-46.5 -35t-32.5 -56.5t-12 -75.5q0 -46 15 -87t40.5 -72
t60.5 -49t75 -18q43 0 76.5 10.5t72.5 34.5l17 -27l-43 -34q-31 -24 -71 -44.5t-91 -20.5z" />
    <glyph glyph-name="d" unicode="d" horiz-adv-x="615" 
d="M590 38q-48 -8 -87 -21.5t-79 -30.5v71q-20 -15 -42.5 -28.5t-43.5 -24.5q-15 -8 -33 -12.5t-41 -4.5q-46 0 -86.5 18.5t-70.5 51.5t-47.5 79t-17.5 101q0 64 26 116t67.5 88.5t93 56.5t101.5 20q25 0 48.5 -3t41.5 -7v181q0 20 -2.5 25.5t-18.5 12.5l-75 31v6l186 66
v-733q0 -12 3 -19.5t20 -7.5h57v-32zM316 44q31 -2 58 11.5t46 31.5v307q0 42 -32 65t-80 23q-27 0 -56 -11.5t-53.5 -36t-40.5 -62.5t-16 -91q0 -55 15 -98.5t39.5 -74t55.5 -47t64 -17.5z" />
    <glyph glyph-name="e" unicode="e" horiz-adv-x="530" 
d="M272 -13q-39 0 -79.5 16.5t-73.5 50t-54 83.5t-21 116q0 56 17.5 104.5t47.5 84t71 56t89 20.5q54 0 92.5 -17.5t65 -46.5t41 -66t20.5 -77h-352v-7q0 -56 15.5 -100.5t41.5 -75.5t61 -48t73 -17q28 0 51 8t41 19.5t30.5 23t19.5 19.5l23 -24l-18 -19q-50 -52 -96 -77.5
t-106 -25.5zM265 486q-32 0 -54.5 -12.5t-37.5 -32.5t-23 -44.5t-11 -48.5h241q-3 30 -10.5 55t-21 43.5t-34.5 29t-49 10.5z" />
    <glyph glyph-name="f" unicode="f" horiz-adv-x="378" 
d="M43 35l42 2q26 2 32 10t6 24v379h-98v23l98 31v2q0 80 24 139.5t62 99.5q29 31 70.5 50.5t73.5 19.5q20 0 34.5 -10.5t14.5 -30.5q0 -21 -10.5 -36.5t-22.5 -17.5q-10 4 -23.5 7.5t-28 6.5t-28.5 5t-25 2q-29 0 -40 -27.5t-11 -97.5v-114h144v-52h-144v-377
q0 -16 6 -24.5t32 -9.5l72 -2v-37h-280v35z" />
    <glyph glyph-name="g" unicode="g" horiz-adv-x="548" 
d="M253 164q-26 0 -50.5 5t-45.5 13l-8 -85q-1 -9 0.5 -14t6.5 -8t16 -3.5t29 -0.5h110q110 0 158 -31t48 -95q0 -41 -21 -79t-57.5 -67.5t-85.5 -47.5t-105 -18q-54 0 -96.5 11t-72 30t-45 42.5t-15.5 49.5q0 19 8.5 38.5t27.5 30.5q27 17 49.5 30t54.5 29q-42 1 -68 20
t-26 45q0 14 10 30t21 33l46 68q-44 23 -69 61.5t-25 86.5q0 37 15.5 70t43 57.5t65.5 38.5t84 14q41 0 75.5 -10.5t60.5 -28.5l144 67v-72q0 -12 -7 -16.5t-27 -2.5l-92 9q24 -23 37.5 -53t13.5 -65q0 -37 -15.5 -70t-43 -58t-66 -39.5t-83.5 -14.5zM261 194q21 0 39.5 7.5
t33 24t23 41.5t8.5 60q0 30 -8.5 58.5t-23.5 51t-37 36.5t-49 14q-21 0 -39.5 -7.5t-33 -24t-23 -41.5t-8.5 -60q0 -30 8.5 -58.5t23.5 -51t37 -36.5t49 -14zM274 -228q34 0 64.5 8.5t53 23.5t35.5 36.5t13 48.5q0 51 -36 78.5t-120 27.5h-33q-33 0 -60 -10t-45.5 -25.5
t-28.5 -33.5t-10 -33q0 -26 15 -48.5t38.5 -38.5t53.5 -25t60 -9z" />
    <glyph glyph-name="h" unicode="h" horiz-adv-x="615" 
d="M341 35l42 2q26 2 32 10t6 24v239q0 70 -24.5 108t-84.5 38q-38 0 -69 -16.5t-48 -40.5v-328q0 -16 6 -24t32 -10l42 -2v-35h-250v35l42 2q26 2 32 10t6 24v618q0 20 -2.5 25.5t-18.5 12.5l-75 31v6l186 66v-393q20 15 42.5 30t41.5 26q15 9 39 17t54 8q32 0 58 -7.5
t44 -26.5t27.5 -53t9.5 -86v-274q0 -16 6 -24t32 -10l42 -2v-35h-250v35z" />
    <glyph glyph-name="i" unicode="i" horiz-adv-x="324" 
d="M215 71q0 -16 6 -24t32 -10l42 -2v-35h-250v35l42 2q26 2 32 10t6 24v312q0 20 -2.5 25.5t-18.5 12.5l-75 31v6l186 70v-457zM163 678q-29 0 -47.5 18.5t-18.5 47.5q0 28 18.5 47t47.5 19q28 0 47 -19t19 -47q0 -29 -19 -47.5t-47 -18.5z" />
    <glyph glyph-name="j" unicode="j" horiz-adv-x="292" 
d="M203 45q0 -37 -2 -66t-8 -52t-17.5 -42.5t-30.5 -36.5q-13 -12 -31 -26t-38.5 -29.5t-42 -31t-40.5 -28.5l-15 22q34 31 59 55.5t42 53t25.5 66.5t8.5 95v358q0 20 -2.5 25.5t-18.5 12.5l-75 31v6l186 70v-483zM146 678q-29 0 -47.5 18.5t-18.5 47.5q0 28 18.5 47
t47.5 19q28 0 47 -19t19 -47q0 -29 -19 -47.5t-47 -18.5z" />
    <glyph glyph-name="k" unicode="k" horiz-adv-x="601" 
d="M493 74q10 -11 18.5 -18t16.5 -11t17.5 -5.5t22.5 -2.5l31 -2v-35h-165l-203 233l-36 2v-164q0 -16 6 -24t32 -10l42 -2v-35h-250v35l42 2q26 2 32 10t6 24v618q0 20 -2.5 25.5t-18.5 12.5l-75 31v6l186 66v-572q10 3 21 9t24 19l113 114q40 40 45 53.5t-37 13.5h-18v35
h217v-35l-24 -1q-17 -1 -30 -4t-25 -9.5t-23.5 -16t-25.5 -22.5l-138 -124z" />
    <glyph glyph-name="l" unicode="l" horiz-adv-x="308" 
d="M199 71q0 -16 6 -24t32 -10l42 -2v-35h-250v35l42 2q26 2 32 10t6 24v618q0 20 -2.5 25.5t-18.5 12.5l-75 31v6l186 66v-759z" />
    <glyph glyph-name="m" unicode="m" horiz-adv-x="929" 
d="M518 71q0 -16 6 -24t32 -10l42 -2v-35h-250v35l42 2q26 2 32 10t6 24v239q0 70 -20 108t-80 38q-38 0 -69 -16.5t-48 -40.5v-328q0 -16 6 -24t32 -10l42 -2v-35h-250v35l42 2q26 2 32 10t6 24v312q0 20 -2.5 25.5t-18.5 12.5l-75 31v6l186 70v-91q20 15 42.5 30t41.5 26
q15 9 38.5 17t52.5 8q48 0 79 -17.5t44 -68.5q21 17 47 33t46 28q15 9 39 17t53 8q32 0 56.5 -7.5t41 -26.5t25 -53t8.5 -86v-274q0 -16 6 -24t32 -10l42 -2v-35h-250v35l42 2q26 2 32 10t6 24v239q0 70 -20 108t-80 38q-38 0 -70 -17t-50 -41q3 -24 3 -53v-274z" />
    <glyph glyph-name="n" unicode="n" horiz-adv-x="627" 
d="M41 35l42 2q26 2 32 10t6 24v312q0 20 -2.5 25.5t-18.5 12.5l-75 31v6l186 70v-91q20 15 42.5 30t41.5 26q15 9 39 17t54 8q32 0 57 -7.5t42.5 -26.5t26.5 -53t9 -86v-274q0 -16 6 -24t32 -10l42 -2v-35h-250v35l42 2q26 2 32 10t6 24v239q0 70 -22.5 108t-82.5 38
q-38 0 -69 -16.5t-48 -40.5v-328q0 -16 6 -24t32 -10l42 -2v-35h-250v35z" />
    <glyph glyph-name="o" unicode="o" horiz-adv-x="600" 
d="M302 518q57 0 104.5 -21t81 -56.5t52 -82.5t18.5 -99t-19 -101t-53.5 -87t-82.5 -61t-105 -23t-104.5 21t-81 57t-52 83t-18.5 99t19 101t53.5 86.5t82.5 60.5t105 23zM281 477q-28 0 -53.5 -11t-44.5 -34t-30.5 -58.5t-11.5 -84.5q0 -43 11 -89t33.5 -84.5t56 -63
t77.5 -24.5q28 0 53.5 11t44.5 34.5t30.5 59t11.5 84.5q0 43 -11 89t-33.5 84t-56 62.5t-77.5 24.5z" />
    <glyph glyph-name="p" unicode="p" horiz-adv-x="622" 
d="M308 -248h-275v35l42 2q26 2 32 10t6 24v560q0 20 -2.5 25.5t-18.5 12.5l-75 31v6l186 70v-81q20 14 42.5 28t43.5 25q15 8 34 13t39 5q49 0 89 -18.5t68.5 -51.5t44 -78.5t15.5 -100.5q0 -62 -23.5 -113.5t-63 -89t-90.5 -58.5t-106 -21q-22 0 -46.5 3t-46.5 11v-176
q0 -16 6 -24.5t32 -9.5l67 -2v-37zM203 114q0 -43 28 -66t71 -23q35 0 67 13.5t56.5 39t39 63.5t14.5 86t-11 90t-33 73.5t-55 50t-76 18.5q-27 0 -54.5 -12.5t-46.5 -29.5v-303z" />
    <glyph glyph-name="q" unicode="q" horiz-adv-x="599" 
d="M590 -248h-275v37l67 2q26 1 32 9.5t6 24.5v229q-19 -14 -40.5 -27t-41.5 -23q-15 -8 -33 -12.5t-41 -4.5q-46 0 -86.5 18.5t-70.5 51.5t-47.5 79t-17.5 101q0 64 26 116t67.5 88.5t93 56.5t101.5 20q34 0 68.5 -5t62.5 -16l49 28v-702q0 -16 6 -24t32 -10l42 -2v-35z
M316 44q31 -2 58 11.5t46 31.5v307q0 42 -32 65t-80 23q-27 0 -56 -11.5t-53.5 -36t-40.5 -62.5t-16 -91q0 -55 15 -98.5t39.5 -74t55.5 -47t64 -17.5z" />
    <glyph glyph-name="r" unicode="r" horiz-adv-x="423" 
d="M211 425q19 20 51 51q21 20 44 31t46 11q24 0 41.5 -13.5t17.5 -38.5q0 -24 -14 -41t-32 -17q-21 11 -43 19t-36 10q-17 0 -39 -10t-36 -31v-322q0 -16 6 -24.5t32 -9.5l62 -2v-38h-270v35l42 2q26 2 32 10t6 24v312q0 20 -2.5 25.5t-18.5 12.5l-75 31v6l186 70v-103z
" />
    <glyph glyph-name="s" unicode="s" horiz-adv-x="442" 
d="M203 -13q-40 0 -77 9t-62 22l-11 145l32 6l24 -57q20 -47 47 -67t66 -20q36 0 63 21t27 66q0 30 -20 52.5t-60 40.5l-55 25q-23 10 -44 24t-37.5 32.5t-26.5 41.5t-10 52q0 35 16 61t42.5 43t60 25.5t69.5 8.5q31 0 58.5 -5t51.5 -13l19 -130l-32 -6l-27 48
q-20 35 -41.5 52t-53.5 17q-35 0 -60 -20.5t-25 -53.5q0 -32 19 -52.5t53 -36.5l55 -25q32 -15 56 -29.5t40.5 -32.5t24.5 -41t8 -54q0 -38 -15.5 -66t-42 -46.5t-61 -27.5t-71.5 -9z" />
    <glyph glyph-name="t" unicode="t" horiz-adv-x="372" 
d="M218 -13q-49 0 -78.5 23t-29.5 84v356h-97v4l183 165h4v-117h140v-52h-140v-322q0 -44 14.5 -60t46.5 -16q17 0 35.5 8t43.5 25l19 -28q-27 -20 -46 -32.5t-33 -20.5q-17 -10 -31.5 -13.5t-30.5 -3.5z" />
    <glyph glyph-name="u" unicode="u" horiz-adv-x="598" 
d="M407 66q-20 -15 -42 -29.5t-40 -24.5q-15 -8 -40 -16.5t-51 -8.5q-35 0 -59.5 7.5t-40 26.5t-23 52.5t-7.5 86.5v256q0 16 -6 23.5t-32 9.5l-42 4v31l170 29v-318q0 -41 4 -69.5t15 -46t30 -25.5t49 -8q36 0 64.5 15t46.5 37v318q0 16 -6 23.5t-32 9.5l-42 4v31l170 29
v-416q0 -12 3 -19.5t20 -7.5h57v-32q-48 -8 -87 -21.5t-79 -30.5v80z" />
    <glyph glyph-name="v" unicode="v" horiz-adv-x="545" 
d="M75 439q-6 16 -16.5 20.5t-40.5 6.5l-15 1v35h253v-35l-16 -1q-39 -2 -53.5 -7.5t-6.5 -24.5l119 -312l101 271q9 23 10 36.5t-5 21t-18.5 10.5t-31.5 5l-14 1v35h203v-35l-13 -1q-17 -1 -28 -3t-19 -8.5t-15 -18.5t-16 -34l-164 -414h-34z" />
    <glyph glyph-name="w" unicode="w" horiz-adv-x="837" 
d="M76 439q-6 16 -16.5 20.5t-40.5 6.5l-15 1v35h253v-35l-16 -1q-39 -2 -52.5 -7.5t-7.5 -24.5l106 -320l114 250l-60 138h202v-35l-16 -1q-39 -2 -53.5 -7.5t-6.5 -24.5l138 -313l86 272q7 23 8 37t-4.5 21.5t-17.5 10t-31 4.5l-14 1v35h203v-35l-13 -1q-17 -1 -28 -3
t-19.5 -8.5t-15.5 -18.5t-15 -34l-149 -414h-30l-144 331l-146 -331h-34z" />
    <glyph glyph-name="x" unicode="x" horiz-adv-x="581" 
d="M11 35l16 1q20 1 33 4t24.5 10t22.5 19t27 31l120 142l-145 197q-12 16 -24 20t-36 6l-22 2v35h245v-35l-24 -1q-17 -1 -26.5 -2.5t-12 -5t0 -9.5t9.5 -15l89 -121l55 80q17 25 27.5 39t12 21t-7.5 9.5t-31 3.5l-22 1v35h211v-35l-16 -1q-19 -1 -32.5 -4t-25 -10t-23 -19
t-26.5 -31l-97 -122l159 -217q12 -16 24 -20t36 -6l22 -2v-35h-245v35l24 1q17 1 26.5 2.5t12 5t0 9.5t-9.5 15l-104 142l-77 -101q-18 -23 -28.5 -37t-12 -21.5t8 -10.5t31.5 -4l22 -1v-35h-211v35z" />
    <glyph glyph-name="y" unicode="y" horiz-adv-x="563" 
d="M151 -267q-26 0 -39.5 17t-13.5 35q0 19 12 33q38 14 60.5 22.5t32.5 19.5q11 12 19.5 29.5t19.5 43.5l20 46l-186 460q-6 16 -16.5 20.5t-40.5 6.5l-15 1v35h253v-35l-16 -1q-39 -2 -53.5 -8t-4.5 -31l128 -327l104 293q8 23 9.5 37t-3.5 21.5t-17.5 10t-32.5 4.5l-15 1
v35h206v-35l-13 -1q-17 -1 -27.5 -3t-19 -8t-15.5 -18.5t-16 -34.5l-221 -556q-24 -60 -44.5 -86.5t-54.5 -26.5z" />
    <glyph glyph-name="z" unicode="z" horiz-adv-x="510" 
d="M335 465h-77q-44 0 -70 -1.5t-42 -8t-24.5 -18.5t-18.5 -33l-27 -58h-34l42 171h8q23 -11 51.5 -13t70.5 -2h242l-307 -465h109q38 0 62.5 1t41 6.5t27 16t20.5 28.5l42 76h34l-45 -165h-412z" />
    <glyph glyph-name="braceleft" unicode="{" horiz-adv-x="369" 
d="M84 291q23 -2 54.5 -16t57 -43.5t38.5 -76.5t0 -114l-14 -71q-15 -77 18 -117.5t104 -54.5l-8 -36q-44 5 -84.5 24t-69.5 51t-42.5 77t-3.5 102l16 93q8 46 0 76.5t-26.5 49t-46.5 27.5t-59 14v33q31 5 59 14t46.5 27.5t26.5 48.5t0 77l-16 93q-10 57 3.5 102t42.5 77
t69.5 51t84.5 24l8 -36q-71 -14 -104 -54.5t-18 -117.5l14 -71q13 -67 0 -114t-38.5 -76.5t-57 -43.5t-54.5 -16v-3z" />
    <glyph glyph-name="bar" unicode="|" horiz-adv-x="278" 
d="M109 826h60v-1064h-60v1064z" />
    <glyph glyph-name="braceright" unicode="}" horiz-adv-x="369" 
d="M285 294q-23 2 -54.5 16t-57 43.5t-38.5 76.5t0 114l14 71q15 77 -18 117.5t-104 54.5l8 36q44 -5 84.5 -24t69.5 -51t42.5 -77t3.5 -102l-16 -93q-8 -46 0 -76.5t26.5 -49t46.5 -27.5t59 -14v-33q-31 -5 -59 -14t-46.5 -27.5t-26.5 -48.5t0 -77l16 -93q10 -57 -3.5 -102
t-42.5 -77t-69.5 -51t-84.5 -24l-8 36q71 14 104 54.5t18 117.5l-14 71q-13 67 0 114t38.5 76.5t57 43.5t54.5 16v3z" />
    <glyph glyph-name="asciitilde" unicode="~" horiz-adv-x="653" 
d="M206 331q40 0 73.5 -13.5t62.5 -29.5t55 -29.5t53 -13.5q36 0 61.5 17.5t27.5 63.5h63q-5 -66 -47 -103t-106 -37q-35 0 -66.5 13.5t-60.5 29.5t-58 29.5t-59 13.5q-36 0 -61.5 -17.5t-27.5 -63.5h-63q5 66 47 103t106 37z" />
    <glyph glyph-name="uni00A0" unicode="&#xa0;" horiz-adv-x="270" 
 />
    <glyph glyph-name="exclamdown" unicode="&#xa1;" horiz-adv-x="285" 
d="M159 271q5 -70 9 -119t7.5 -87t7 -69.5t6.5 -65t6.5 -74t7.5 -97.5q0 -13 -19 -19.5t-41.5 -6.5t-41 6.5t-18.5 19.5q4 57 8 97.5t7 74t6.5 65t7 69.5t7 87l8.5 119h32zM141 516q33 0 55.5 -22.5t22.5 -55.5q0 -31 -22.5 -53t-55.5 -22q-31 0 -53 22t-22 53q0 33 22 55.5
t53 22.5z" />
    <glyph glyph-name="cent" unicode="&#xa2;" horiz-adv-x="530" 
d="M296 619v-103q7 1 13.5 1.5t14.5 0.5q26 0 52 -4t46.5 -12t33.5 -22t13 -33q0 -26 -16 -42.5t-45 -13.5q-19 32 -46 54t-66 27v-402q7 -2 14.5 -2h15.5q43 0 76.5 10.5t72.5 34.5l17 -27l-43 -34q-29 -23 -67 -43t-86 -22v-107h-40v109q-48 6 -86.5 28t-65.5 56
t-41.5 77.5t-14.5 91.5q0 51 15.5 95.5t43 79t66 58.5t83.5 35v109h40zM135 294q0 -72 33.5 -128.5t87.5 -82.5v388q-24 -5 -46 -19t-38.5 -36.5t-26.5 -53t-10 -68.5z" />
    <glyph glyph-name="sterling" unicode="&#xa3;" horiz-adv-x="630" 
d="M440 -19q-25 0 -60.5 9t-74.5 24.5t-78 36t-71 43.5q-30 -105 -80 -105q-14 0 -25 8.5t-11 27.5q0 22 19 41t64 49q25 17 45 34.5t33 41t20 54.5t7 76q0 7 -0.5 13.5t-0.5 12.5h-159v52h147q-9 25 -21 47t-22.5 43.5t-18 43t-7.5 46.5q0 40 20 76.5t55 64t81.5 43.5
t100.5 16q24 0 48.5 -4.5t44.5 -13.5t32.5 -23.5t12.5 -33.5q0 -26 -16 -41.5t-45 -12.5q-23 31 -55 54t-87 23q-48 0 -81.5 -27.5t-33.5 -80.5q0 -29 12.5 -54.5t29 -51t33.5 -53.5t25 -61h183v-52h-177q-1 -36 -13.5 -65.5t-31 -54.5t-41 -44.5t-43.5 -34.5q21 -12 57 -26
t75 -26t76 -20t59 -8q37 0 56 18t37 59l33 -13l-18 -43q-24 -57 -54.5 -82.5t-80.5 -25.5z" />
    <glyph glyph-name="yen" unicode="&#xa5;" horiz-adv-x="794" 
d="M143 230h200v98h-200v45h175l-204 324q-8 14 -16 18t-34 6l-33 2v35h277v-35l-48 -2q-28 -2 -38 -8t4 -28l188 -301l151 231q36 55 36 80t-43 26l-39 2v35h245v-35l-33 -2q-16 0 -27 -5t-22.5 -17t-26 -33t-35.5 -53l-159 -240h186v-45h-214v-98h214v-45h-214v-74
q0 -26 1.5 -40.5t8.5 -21.5t21.5 -8.5t40.5 -2.5l42 -1v-37h-318v37l42 1q26 1 40.5 2.5t21.5 8.5t8.5 21.5t1.5 40.5v74h-200v45z" />
    <glyph glyph-name="brokenbar" unicode="&#xa6;" horiz-adv-x="278" 
d="M109 826h60v-421h-60v421zM109 183h60v-421h-60v421z" />
    <glyph glyph-name="section" unicode="&#xa7;" horiz-adv-x="561" 
d="M242 -156q45 0 77.5 32t32.5 98q0 55 -23 105.5t-71 101.5l-82 87q-58 61 -93 120t-35 133q0 59 25.5 107t68 81.5t97 51.5t112.5 18q28 0 55 -4.5t48 -14t34 -24t13 -34.5q0 -29 -19 -46.5t-53 -12.5q-17 41 -45.5 67.5t-73.5 26.5q-21 0 -40.5 -7.5t-35.5 -22.5
t-25.5 -37t-9.5 -51q0 -49 25 -92t74 -95l82 -87q36 -39 62.5 -71.5t43.5 -63t25.5 -61.5t8.5 -68q0 -57 -23 -107t-64 -88t-96.5 -60t-120.5 -22q-36 0 -67 6.5t-54.5 19.5t-36.5 31t-13 41q0 25 20 42.5t52 14.5q7 -21 18 -41.5t26.5 -37t35 -26.5t45.5 -10zM412 15
q0 -30 -9 -66t-23 -59q20 17 34.5 38t23.5 44t13.5 46t4.5 44q0 37 -11.5 70t-30 63t-42 57.5t-48.5 53.5l-82 87q-40 43 -70 91t-30 103q0 27 6 49t17 42q-31 -31 -44 -68.5t-13 -75.5q0 -54 27 -102.5t64 -87.5l82 -87q29 -30 53 -58.5t41.5 -57t27 -59.5t9.5 -67z" />
    <glyph glyph-name="dieresis" unicode="&#xa8;" 
d="M-118 667q-23 0 -40 16t-17 42q0 25 17 41.5t40 16.5q25 0 41.5 -16.5t16.5 -41.5q0 -26 -16.5 -42t-41.5 -16zM117 667q-23 0 -40 16t-17 42q0 25 17 41.5t40 16.5q25 0 41.5 -16.5t16.5 -41.5q0 -26 -16.5 -42t-41.5 -16z" />
    <glyph glyph-name="copyright" unicode="&#xa9;" horiz-adv-x="894" 
d="M48 383q0 88 31.5 160.5t85.5 125t126.5 81.5t155.5 29t155.5 -29t126.5 -81.5t85.5 -125t31.5 -160.5t-31.5 -160.5t-85.5 -125t-126.5 -81.5t-155.5 -29t-155.5 29t-126.5 81.5t-85.5 125t-31.5 160.5zM105 383q0 -79 26 -143.5t72 -110t108.5 -70t135.5 -24.5
t135.5 24.5t108.5 70t72 110t26 143.5t-26 143.5t-72 110t-108.5 70t-135.5 24.5t-135.5 -24.5t-108.5 -70t-72 -110t-26 -143.5zM475 204q35 0 58 14t42 45l23 37h24l-27 -108q-25 -9 -55.5 -14.5t-73.5 -5.5q-54 0 -98 17.5t-75.5 48t-49 71.5t-17.5 87t18 87t50.5 71.5
t77.5 48.5t99 18q42 0 72 -6t53 -14l19 -106h-24l-20 35q-19 32 -43.5 45.5t-62.5 13.5q-28 0 -55 -9t-48.5 -29t-34.5 -53t-13 -82q0 -46 10.5 -85t31 -67t50.5 -44t69 -16z" />
    <glyph glyph-name="ordfeminine" unicode="&#xaa;" horiz-adv-x="470" 
d="M178 379q-23 0 -45.5 9t-40 24t-28 35t-10.5 43t9 40t27 31t44.5 26t61.5 25q26 10 53 24t39 31v20q0 45 -23.5 65.5t-53.5 20.5q-48 0 -65 -29t-17 -75q-5 -2 -12 -3t-13 -1h-3q-20 0 -32.5 10t-12.5 30q0 17 18.5 33.5t53.5 31.5q29 13 62.5 26t64.5 13q25 0 45.5 -5.5
t35.5 -18.5t23.5 -35.5t7.5 -55.5l-3 -231q-1 -20 2 -24.5t17 -4.5q11 0 23.5 0.5t21.5 2.5l3 -26l-25 -11q-14 -6 -35 -12.5t-36 -6.5q-20 0 -30.5 13t-15.5 40q-23 -22 -50 -38q-27 -17 -61 -17zM222 424q20 0 38.5 11t23.5 29l3 168q-14 -10 -30 -18.5t-31 -16.5
q-35 -19 -60 -39t-25 -53q0 -20 7.5 -35t19.5 -25.5t26 -15.5t28 -5z" />
    <glyph glyph-name="guillemotleft" unicode="&#xab;" horiz-adv-x="545" 
d="M256 484l24 -15l-122 -218l122 -218l-24 -15l-210 233zM466 484l24 -15l-122 -218l122 -218l-24 -15l-210 233z" />
    <glyph glyph-name="uni00AD" unicode="&#xad;" horiz-adv-x="428" 
d="M67 295h294v-65h-294v65z" />
    <glyph glyph-name="registered" unicode="&#xae;" horiz-adv-x="894" 
d="M48 383q0 88 31.5 160.5t85.5 125t126.5 81.5t155.5 29t155.5 -29t126.5 -81.5t85.5 -125t31.5 -160.5t-31.5 -160.5t-85.5 -125t-126.5 -81.5t-155.5 -29t-155.5 29t-126.5 81.5t-85.5 125t-31.5 160.5zM105 383q0 -79 26 -143.5t72 -110t108.5 -70t135.5 -24.5
t135.5 24.5t108.5 70t72 110t26 143.5t-26 143.5t-72 110t-108.5 70t-135.5 24.5t-135.5 -24.5t-108.5 -70t-72 -110t-26 -143.5zM425 610q81 0 130 -23.5t49 -78.5q0 -43 -26.5 -70t-72.5 -40q4 -5 22 -29t39.5 -52t39.5 -52t22 -28q15 -20 23 -25t21 -6l16 -1v-25h-120
l-144 203h-37v-143q0 -19 5 -25t25 -8l34 -2v-25h-198v25l25 2q19 2 24 8t5 25v310q0 19 -5 25t-24 8l-25 2v25h172zM423 412q56 0 75.5 24.5t19.5 59.5q0 38 -21.5 61t-74.5 23q-25 0 -30 -2t-5 -11v-155h36z" />
    <glyph glyph-name="macron" unicode="&#xaf;" 
d="M-147 735h294v-65h-294v65z" />
    <glyph glyph-name="degree" unicode="&#xb0;" horiz-adv-x="432" 
d="M216 441q-36 0 -67 13t-54 36t-36 54t-13 66t13 66t36 54t54 36t67 13t67 -13t54 -36t36 -54t13 -66t-13 -66t-36 -54t-54 -36t-67 -13zM216 495q22 0 42 8.5t35 23.5t23.5 36t8.5 47t-8.5 47t-23.5 36t-35 23.5t-42 8.5t-42 -8.5t-35 -23.5t-23.5 -36t-8.5 -47t8.5 -47
t23.5 -36t35 -23.5t42 -8.5z" />
    <glyph glyph-name="plusminus" unicode="&#xb1;" horiz-adv-x="653" 
d="M292 288h-214v65h214v163h69v-163h214v-65h-214v-168h-69v168zM78 65h497v-65h-497v65z" />
    <glyph glyph-name="uni00B2" unicode="&#xb2;" horiz-adv-x="349" 
d="M23 401v13q55 53 93 96t61.5 78t34 63.5t10.5 52.5q0 29 -16.5 52.5t-57.5 23.5q-31 0 -49 -14t-40 -42l-21 12q13 21 27 38.5t30 29.5t36 18.5t46 6.5q61 0 90.5 -30.5t29.5 -74.5q0 -24 -10 -47.5t-26 -45.5t-36 -43t-40 -41l-80 -82h106q21 0 34 2t22 8t15.5 16
t13.5 27l21 -3l-29 -114h-265z" />
    <glyph glyph-name="uni00B3" unicode="&#xb3;" horiz-adv-x="345" 
d="M134 394q-47 0 -77 19t-30 48q0 19 15.5 31.5t42.5 7.5q9 -35 26.5 -56.5t49.5 -21.5q12 0 25.5 4.5t25 15t19 27t7.5 40.5q0 25 -7.5 45t-20 33.5t-28 20.5t-30.5 7q-14 0 -23.5 -2.5t-18.5 -7.5l-7 23l29 11q39 14 60.5 38t21.5 52q0 22 -16 37t-45 15q-26 0 -44 -13.5
t-39 -45.5l-21 13q29 50 58.5 72t76.5 22q45 0 73 -20.5t28 -53.5q0 -29 -19.5 -49.5t-54.5 -34.5v-1q46 -15 71.5 -46.5t25.5 -71.5q0 -36 -15.5 -65t-40.5 -49.5t-56 -32t-62 -11.5z" />
    <glyph glyph-name="acute" unicode="&#xb4;" 
d="M-8 788h121v-3l-210 -176h-16z" />
    <glyph glyph-name="paragraph" unicode="&#xb6;" horiz-adv-x="576" 
d="M219 -193q-36 0 -55.5 15t-19.5 41q0 22 15 37t37 13q27 -21 50.5 -31.5t53.5 -10.5q16 0 28 6.5t20 22.5t12.5 42t4.5 64v297q-25 -8 -47.5 -12.5t-48.5 -4.5q-54 0 -97 16t-73.5 45.5t-46.5 70t-16 90.5q0 53 21.5 98.5t61.5 79.5t98 53t131 19h175v-35l-42 -2
q-26 -2 -32 -10t-6 -24v-584q0 -28 -1.5 -59.5t-9 -62t-22 -59t-39.5 -51.5q-30 -27 -69.5 -45.5t-82.5 -18.5z" />
    <glyph glyph-name="periodcentered" unicode="&#xb7;" horiz-adv-x="287" 
d="M142 186q-31 0 -53 22.5t-22 55.5q0 31 22 53t53 22q33 0 55.5 -22t22.5 -53q0 -33 -22.5 -55.5t-55.5 -22.5z" />
    <glyph glyph-name="cedilla" unicode="&#xb8;" 
d="M-33 -265q-15 0 -30 2.5t-27.5 8.5t-20 15t-7.5 21q0 14 12.5 25.5t38.5 6.5q0 -26 18.5 -38.5t41.5 -12.5q18 0 29.5 9t11.5 22q0 21 -34 42t-84 43l118 126h36l-76 -81q45 -23 67.5 -44t22.5 -52q0 -16 -8.5 -32.5t-23.5 -30t-36.5 -22t-48.5 -8.5z" />
    <glyph glyph-name="uni00B9" unicode="&#xb9;" horiz-adv-x="244" 
d="M97 753h-70v22q27 3 46.5 7t33.5 10.5t23.5 15.5t17.5 20h22v-388q0 -6 2 -9t11 -4l26 -2v-24h-166v25l40 2q9 0 11.5 3t2.5 9v313z" />
    <glyph glyph-name="ordmasculine" unicode="&#xba;" horiz-adv-x="504" 
d="M253 808q47 0 85.5 -17t66 -45.5t42.5 -67t15 -80.5q0 -44 -16 -83.5t-44.5 -69.5t-67 -48t-84.5 -18q-47 0 -85.5 17t-65.5 45.5t-42 67t-15 80.5q0 43 16 83t44 70t67 48t84 18zM236 773q-21 0 -40 -8.5t-33.5 -26t-23 -45t-8.5 -66.5q0 -35 8.5 -72.5t25 -69t42 -51.5
t60.5 -20q21 0 40.5 8.5t33.5 26.5t22.5 45.5t8.5 65.5q0 35 -8.5 73t-25 69t-42.5 51t-60 20z" />
    <glyph glyph-name="guillemotright" unicode="&#xbb;" horiz-adv-x="545" 
d="M289 251l-210 -233l-24 15l122 218l-122 218l24 15zM499 251l-210 -233l-24 15l122 218l-122 218l24 15z" />
    <glyph glyph-name="onequarter" unicode="&#xbc;" horiz-adv-x="798" 
d="M97 693h-70v22q27 3 46.5 7t33.5 10.5t23.5 15.5t17.5 20h22v-388q0 -6 2 -9t11 -4l26 -2v-24h-166v25l40 2q9 0 11.5 3t2.5 9v313zM594 758h69l-566 -758h-69zM626 113h-188v20l198 284h64v-258h75v-46h-75v-113h-74v113zM626 159v190l-127 -190h127z" />
    <glyph glyph-name="onehalf" unicode="&#xbd;" horiz-adv-x="793" 
d="M97 693h-70v22q27 3 46.5 7t33.5 10.5t23.5 15.5t17.5 20h22v-388q0 -6 2 -9t11 -4l26 -2v-24h-166v25l40 2q9 0 11.5 3t2.5 9v313zM594 758h69l-566 -758h-69zM467 0v13q55 53 93 96t61.5 78t34 63.5t10.5 52.5q0 29 -16.5 52.5t-57.5 23.5q-31 0 -49 -14t-40 -42
l-21 12q13 21 27 38.5t30 29.5t36 18.5t46 6.5q61 0 90.5 -30.5t29.5 -74.5q0 -24 -10 -47.5t-26 -45.5t-36 -43t-40 -41l-80 -82h106q21 0 34 2t22 8t15.5 16t13.5 27l21 -3l-29 -114h-265z" />
    <glyph glyph-name="threequarters" unicode="&#xbe;" horiz-adv-x="899" 
d="M134 334q-47 0 -77 19t-30 48q0 19 15.5 31.5t42.5 7.5q9 -35 26.5 -56.5t49.5 -21.5q12 0 25.5 4.5t25 15t19 27t7.5 40.5q0 25 -7.5 45t-20 33.5t-28 20.5t-30.5 7q-14 0 -23.5 -2.5t-18.5 -7.5l-7 23l29 11q39 14 60.5 38t21.5 52q0 22 -16 37t-45 15q-26 0 -44 -13.5
t-39 -45.5l-21 13q29 50 58.5 72t76.5 22q45 0 73 -20.5t28 -53.5q0 -29 -19.5 -49.5t-54.5 -34.5v-1q46 -15 71.5 -46.5t25.5 -71.5q0 -36 -15.5 -65t-40.5 -49.5t-56 -32t-62 -11.5zM695 758h69l-566 -758h-69zM727 113h-188v20l198 284h64v-258h75v-46h-75v-113h-74v113z
M727 159v190l-127 -190h127z" />
    <glyph glyph-name="questiondown" unicode="&#xbf;" horiz-adv-x="477" 
d="M249 -218q47 0 77 24t56 58q30 -1 44.5 -18.5t12.5 -40.5q-2 -17 -15 -30.5t-33 -22.5t-45.5 -14t-51.5 -5q-55 0 -102.5 18t-83 50t-56 75t-20.5 94t32.5 84t103.5 48l85 18q16 3 25 6.5t14 9.5t6.5 15.5t2.5 26.5l6 93h30l17 -140q3 -25 1.5 -41t-10.5 -26.5t-27.5 -17
t-49.5 -12.5l-66 -14q-60 -13 -83.5 -33.5t-23.5 -61.5q0 -29 11.5 -55t32 -45.5t48.5 -31t62 -11.5zM318 516q31 0 53 -22.5t22 -55.5q0 -31 -22 -53t-53 -22q-33 0 -55.5 22t-22.5 53q0 33 22.5 55.5t55.5 22.5z" />
    <glyph glyph-name="Agrave" unicode="&#xc0;" horiz-adv-x="746" 
d="M-14 35l23 2q22 2 35.5 5.5t24 14.5t19.5 31.5t23 56.5l237 636h46l269 -700q6 -15 11 -23.5t11.5 -13t15.5 -5.5t22 -2l33 -2v-35h-282v35l48 2q14 1 22 2.5t11 6.5t1 15.5t-9 28.5l-67 180h-267l-45 -127q-11 -31 -16 -51t-3 -31.5t11.5 -16.5t26.5 -6l44 -3v-35h-245
v35zM462 319l-118 317l-113 -317h231zM325 972l103 -129h-21l-241 126v3h159z" />
    <glyph glyph-name="Aacute" unicode="&#xc1;" horiz-adv-x="746" 
d="M-14 35l23 2q22 2 35.5 5.5t24 14.5t19.5 31.5t23 56.5l237 636h46l269 -700q6 -15 11 -23.5t11.5 -13t15.5 -5.5t22 -2l33 -2v-35h-282v35l48 2q14 1 22 2.5t11 6.5t1 15.5t-9 28.5l-67 180h-267l-45 -127q-11 -31 -16 -51t-3 -31.5t11.5 -16.5t26.5 -6l44 -3v-35h-245
v35zM462 319l-118 317l-113 -317h231zM595 969l-241 -126h-21l103 129h159v-3z" />
    <glyph glyph-name="Acircumflex" unicode="&#xc2;" horiz-adv-x="746" 
d="M-14 35l23 2q22 2 35.5 5.5t24 14.5t19.5 31.5t23 56.5l237 636h46l269 -700q6 -15 11 -23.5t11.5 -13t15.5 -5.5t22 -2l33 -2v-35h-282v35l48 2q14 1 22 2.5t11 6.5t1 15.5t-9 28.5l-67 180h-267l-45 -127q-11 -31 -16 -51t-3 -31.5t11.5 -16.5t26.5 -6l44 -3v-35h-245
v35zM462 319l-118 317l-113 -317h231zM379 986l165 -153h-23l-150 66l-150 -66h-23l165 153h16z" />
    <glyph glyph-name="Atilde" unicode="&#xc3;" horiz-adv-x="746" 
d="M-14 35l23 2q22 2 35.5 5.5t24 14.5t19.5 31.5t23 56.5l237 636h46l269 -700q6 -15 11 -23.5t11.5 -13t15.5 -5.5t22 -2l33 -2v-35h-282v35l48 2q14 1 22 2.5t11 6.5t1 15.5t-9 28.5l-67 180h-267l-45 -127q-11 -31 -16 -51t-3 -31.5t11.5 -16.5t26.5 -6l44 -3v-35h-245
v35zM462 319l-118 317l-113 -317h231zM200 833q0 23 5.5 48t17.5 46t30 34.5t43 13.5q21 0 44 -10t45.5 -21.5t43 -21.5t37.5 -10q27 0 40 14t15 46h21q0 -41 -8 -67t-20.5 -42t-28 -22t-31.5 -6q-25 0 -48.5 10t-45.5 21.5t-42.5 21.5t-40.5 10q-24 0 -39 -17t-17 -48h-21z
" />
    <glyph glyph-name="Adieresis" unicode="&#xc4;" horiz-adv-x="746" 
d="M-14 35l23 2q22 2 35.5 5.5t24 14.5t19.5 31.5t23 56.5l237 636h46l269 -700q6 -15 11 -23.5t11.5 -13t15.5 -5.5t22 -2l33 -2v-35h-282v35l48 2q14 1 22 2.5t11 6.5t1 15.5t-9 28.5l-67 180h-267l-45 -127q-11 -31 -16 -51t-3 -31.5t11.5 -16.5t26.5 -6l44 -3v-35h-245
v35zM462 319l-118 317l-113 -317h231zM243 846q-26 0 -43 17t-17 43q0 27 17 44.5t43 17.5t43 -17.5t17 -44.5q0 -26 -17 -43t-43 -17zM499 846q-26 0 -43 17t-17 43q0 27 17 44.5t43 17.5t43 -17.5t17 -44.5q0 -26 -17 -43t-43 -17z" />
    <glyph glyph-name="Aring" unicode="&#xc5;" horiz-adv-x="746" 
d="M-14 35l23 2q22 2 35.5 5.5t24 14.5t19.5 31.5t23 56.5l237 636h46l269 -700q6 -15 11 -23.5t11.5 -13t15.5 -5.5t22 -2l33 -2v-35h-282v35l48 2q14 1 22 2.5t11 6.5t1 15.5t-9 28.5l-67 180h-267l-45 -127q-11 -31 -16 -51t-3 -31.5t11.5 -16.5t26.5 -6l44 -3v-35h-245
v35zM462 319l-118 317l-113 -317h231zM247 964q0 25 9.5 46.5t26.5 38t39 26t48 9.5t49 -9.5t40 -26t26.5 -38t9.5 -46.5t-9.5 -46.5t-26.5 -37.5t-40 -25t-49 -9t-48 9t-39 25t-26.5 37.5t-9.5 46.5zM440 964q0 32 -18.5 51t-51.5 19q-32 0 -50 -19t-18 -51t18 -51t50 -19
q33 0 51.5 19t18.5 51z" />
    <glyph glyph-name="AE" unicode="&#xc6;" horiz-adv-x="1092" 
d="M-21 35l23 2q22 2 36.5 7t28 16.5t28.5 31.5t36 53l399 613h148l291 2l8 -181h-30l-14 45q-11 34 -24 53t-38 28t-65.5 11t-105.5 2h-46q-20 0 -20 -20v-289h128q20 0 35 1.5t26.5 8.5t19.5 21.5t14 40.5l9 39h30v-268h-30l-9 39q-6 26 -14 40.5t-19.5 21.5t-26.5 8.5
t-35 1.5h-128v-251q0 -26 5.5 -40.5t17.5 -21.5t30.5 -8.5t43.5 -1.5h21q72 0 114.5 3.5t67 13t38 26t28.5 43.5l41 73h30l-51 -199h-584v35l36 2q21 1 32.5 4t17 10.5t7 21.5t1.5 38v159h-258l-83 -127q-37 -57 -40 -80t32 -25l44 -3v-35h-246v35zM530 319v348l-226 -348
h226z" />
    <glyph glyph-name="Ccedilla" unicode="&#xc7;" horiz-adv-x="766" 
d="M476 31q54 0 95 13.5t65 54.5l66 112h27l-41 -186q-45 -14 -104 -26t-142 -12q-84 0 -156 31.5t-125 85.5t-83.5 126t-30.5 153t31 153t85.5 126t128.5 85.5t161 31.5q83 0 138 -12t89 -23l33 -182h-27l-58 105q-12 21 -30.5 34t-42 20.5t-50 10.5t-54.5 3
q-53 0 -103.5 -19.5t-90 -59.5t-64 -101t-24.5 -143q0 -86 22.5 -156t63 -120t97 -77.5t124.5 -27.5zM381 -265q-15 0 -30 2.5t-27.5 8.5t-20 15t-7.5 21q0 14 12.5 25.5t38.5 6.5q0 -26 18.5 -38.5t41.5 -12.5q18 0 29.5 9t11.5 22q0 21 -34 42t-84 43l118 126h36l-76 -81
q45 -23 67.5 -44t22.5 -52q0 -16 -8.5 -32.5t-23.5 -30t-36.5 -22t-48.5 -8.5z" />
    <glyph glyph-name="Egrave" unicode="&#xc8;" horiz-adv-x="711" 
d="M55 35l36 2q21 1 32.5 4t17 10.5t7 21.5t1.5 38v536q0 24 -1.5 38t-7 21.5t-17 10.5t-32.5 4l-36 2v35h242l291 2l8 -181h-30l-14 45q-11 34 -24 53t-38 28t-65.5 11t-105.5 2h-46q-20 0 -20 -20v-289h128q20 0 35 1.5t26.5 8.5t19.5 21.5t14 40.5l9 39h30v-268h-30
l-9 39q-6 26 -14 40.5t-19.5 21.5t-26.5 8.5t-35 1.5h-128v-251q0 -26 5.5 -40.5t17.5 -21.5t30.5 -8.5t43.5 -1.5h21q72 0 114.5 3.5t67 13t38 26t28.5 43.5l41 73h30l-51 -199h-584v35zM326 972l103 -129h-21l-241 126v3h159z" />
    <glyph glyph-name="Eacute" unicode="&#xc9;" horiz-adv-x="711" 
d="M55 35l36 2q21 1 32.5 4t17 10.5t7 21.5t1.5 38v536q0 24 -1.5 38t-7 21.5t-17 10.5t-32.5 4l-36 2v35h242l291 2l8 -181h-30l-14 45q-11 34 -24 53t-38 28t-65.5 11t-105.5 2h-46q-20 0 -20 -20v-289h128q20 0 35 1.5t26.5 8.5t19.5 21.5t14 40.5l9 39h30v-268h-30
l-9 39q-6 26 -14 40.5t-19.5 21.5t-26.5 8.5t-35 1.5h-128v-251q0 -26 5.5 -40.5t17.5 -21.5t30.5 -8.5t43.5 -1.5h21q72 0 114.5 3.5t67 13t38 26t28.5 43.5l41 73h30l-51 -199h-584v35zM596 969l-241 -126h-21l103 129h159v-3z" />
    <glyph glyph-name="Ecircumflex" unicode="&#xca;" horiz-adv-x="711" 
d="M55 35l36 2q21 1 32.5 4t17 10.5t7 21.5t1.5 38v536q0 24 -1.5 38t-7 21.5t-17 10.5t-32.5 4l-36 2v35h242l291 2l8 -181h-30l-14 45q-11 34 -24 53t-38 28t-65.5 11t-105.5 2h-46q-20 0 -20 -20v-289h128q20 0 35 1.5t26.5 8.5t19.5 21.5t14 40.5l9 39h30v-268h-30
l-9 39q-6 26 -14 40.5t-19.5 21.5t-26.5 8.5t-35 1.5h-128v-251q0 -26 5.5 -40.5t17.5 -21.5t30.5 -8.5t43.5 -1.5h21q72 0 114.5 3.5t67 13t38 26t28.5 43.5l41 73h30l-51 -199h-584v35zM380 986l165 -153h-23l-150 66l-150 -66h-23l165 153h16z" />
    <glyph glyph-name="Edieresis" unicode="&#xcb;" horiz-adv-x="711" 
d="M55 35l36 2q21 1 32.5 4t17 10.5t7 21.5t1.5 38v536q0 24 -1.5 38t-7 21.5t-17 10.5t-32.5 4l-36 2v35h242l291 2l8 -181h-30l-14 45q-11 34 -24 53t-38 28t-65.5 11t-105.5 2h-46q-20 0 -20 -20v-289h128q20 0 35 1.5t26.5 8.5t19.5 21.5t14 40.5l9 39h30v-268h-30
l-9 39q-6 26 -14 40.5t-19.5 21.5t-26.5 8.5t-35 1.5h-128v-251q0 -26 5.5 -40.5t17.5 -21.5t30.5 -8.5t43.5 -1.5h21q72 0 114.5 3.5t67 13t38 26t28.5 43.5l41 73h30l-51 -199h-584v35zM244 846q-26 0 -43 17t-17 43q0 27 17 44.5t43 17.5t43 -17.5t17 -44.5
q0 -26 -17 -43t-43 -17zM500 846q-26 0 -43 17t-17 43q0 27 17 44.5t43 17.5t43 -17.5t17 -44.5q0 -26 -17 -43t-43 -17z" />
    <glyph glyph-name="Igrave" unicode="&#xcc;" horiz-adv-x="402" 
d="M149 647q0 24 -1.5 38t-7 21.5t-17 10.5t-32.5 4l-36 2v35h292v-35l-36 -2q-21 -1 -32.5 -4t-17 -10.5t-7 -21.5t-1.5 -38v-536q0 -24 1.5 -38t7 -21.5t17 -10.5t32.5 -4l36 -2v-35h-292v35l36 2q21 1 32.5 4t17 10.5t7 21.5t1.5 38v536zM155 972l103 -129h-21l-241 126
v3h159z" />
    <glyph glyph-name="Iacute" unicode="&#xcd;" horiz-adv-x="402" 
d="M149 647q0 24 -1.5 38t-7 21.5t-17 10.5t-32.5 4l-36 2v35h292v-35l-36 -2q-21 -1 -32.5 -4t-17 -10.5t-7 -21.5t-1.5 -38v-536q0 -24 1.5 -38t7 -21.5t17 -10.5t32.5 -4l36 -2v-35h-292v35l36 2q21 1 32.5 4t17 10.5t7 21.5t1.5 38v536zM425 969l-241 -126h-21l103 129
h159v-3z" />
    <glyph glyph-name="Icircumflex" unicode="&#xce;" horiz-adv-x="402" 
d="M149 647q0 24 -1.5 38t-7 21.5t-17 10.5t-32.5 4l-36 2v35h292v-35l-36 -2q-21 -1 -32.5 -4t-17 -10.5t-7 -21.5t-1.5 -38v-536q0 -24 1.5 -38t7 -21.5t17 -10.5t32.5 -4l36 -2v-35h-292v35l36 2q21 1 32.5 4t17 10.5t7 21.5t1.5 38v536zM209 986l165 -153h-23l-150 66
l-150 -66h-23l165 153h16z" />
    <glyph glyph-name="Idieresis" unicode="&#xcf;" horiz-adv-x="402" 
d="M149 647q0 24 -1.5 38t-7 21.5t-17 10.5t-32.5 4l-36 2v35h292v-35l-36 -2q-21 -1 -32.5 -4t-17 -10.5t-7 -21.5t-1.5 -38v-536q0 -24 1.5 -38t7 -21.5t17 -10.5t32.5 -4l36 -2v-35h-292v35l36 2q21 1 32.5 4t17 10.5t7 21.5t1.5 38v536zM73 846q-26 0 -43 17t-17 43
q0 27 17 44.5t43 17.5t43 -17.5t17 -44.5q0 -26 -17 -43t-43 -17zM329 846q-26 0 -43 17t-17 43q0 27 17 44.5t43 17.5t43 -17.5t17 -44.5q0 -26 -17 -43t-43 -17z" />
    <glyph glyph-name="Eth" unicode="&#xd0;" horiz-adv-x="871" 
d="M370 758q98 0 181 -26t144 -74t95 -117t34 -156q0 -86 -35.5 -157t-97 -121.5t-144.5 -78.5t-177 -28h-305v35l36 2q21 1 32.5 4t17 10.5t7 21.5t1.5 38v536q0 24 -1.5 38t-7 21.5t-17 10.5t-32.5 4l-36 2v35h305zM370 38q66 0 126 17t105.5 55.5t72.5 99.5t27 150
q0 86 -20 153t-62.5 113t-109 70t-159.5 24q-30 0 -47 -1t-26 -3.5t-11.5 -7t-2.5 -11.5v-585q0 -22 3.5 -36t13.5 -22.5t26.5 -12t43.5 -3.5h20zM65 410h375v-48h-375v48z" />
    <glyph glyph-name="Ntilde" unicode="&#xd1;" horiz-adv-x="924" 
d="M204 608v-386q0 -64 1 -100t7 -54.5t19 -24t37 -6.5l37 -2v-35h-253v35l37 2q24 1 37.5 6.5t19.5 24t7 54.5t1 100v387q0 60 -28.5 86t-94.5 28v35h171l532 -569v347q0 64 -1 100t-7 54.5t-19 23.5t-37 7l-37 2v35h253v-35l-37 -2q-24 -2 -37.5 -7t-19.5 -23.5t-7 -54.5
t-1 -100v-539h-27zM295 833q0 23 5.5 48t17.5 46t30 34.5t43 13.5q21 0 44 -10t45.5 -21.5t43 -21.5t37.5 -10q27 0 40 14t15 46h21q0 -41 -8 -67t-20.5 -42t-28 -22t-31.5 -6q-25 0 -48.5 10t-45.5 21.5t-42.5 21.5t-40.5 10q-24 0 -39 -17t-17 -48h-21z" />
    <glyph glyph-name="Ograve" unicode="&#xd2;" horiz-adv-x="882" 
d="M441 779q81 0 153 -29.5t125 -82t84 -125.5t31 -159t-31.5 -159t-85 -125.5t-125 -82t-151.5 -29.5q-81 0 -153 29.5t-125 82t-84 125.5t-31 159t31.5 159t85 125.5t125 82t151.5 29.5zM428 737q-53 0 -100 -20.5t-82 -61t-55.5 -101.5t-20.5 -143q0 -89 20.5 -159.5
t57.5 -120t89.5 -76t116.5 -26.5q53 0 100 20.5t82 61t55.5 101.5t20.5 143q0 89 -20.5 159.5t-57.5 120t-89.5 76t-116.5 26.5zM395 972l103 -129h-21l-241 126v3h159z" />
    <glyph glyph-name="Oacute" unicode="&#xd3;" horiz-adv-x="882" 
d="M441 779q81 0 153 -29.5t125 -82t84 -125.5t31 -159t-31.5 -159t-85 -125.5t-125 -82t-151.5 -29.5q-81 0 -153 29.5t-125 82t-84 125.5t-31 159t31.5 159t85 125.5t125 82t151.5 29.5zM428 737q-53 0 -100 -20.5t-82 -61t-55.5 -101.5t-20.5 -143q0 -89 20.5 -159.5
t57.5 -120t89.5 -76t116.5 -26.5q53 0 100 20.5t82 61t55.5 101.5t20.5 143q0 89 -20.5 159.5t-57.5 120t-89.5 76t-116.5 26.5zM665 969l-241 -126h-21l103 129h159v-3z" />
    <glyph glyph-name="Ocircumflex" unicode="&#xd4;" horiz-adv-x="882" 
d="M441 779q81 0 153 -29.5t125 -82t84 -125.5t31 -159t-31.5 -159t-85 -125.5t-125 -82t-151.5 -29.5q-81 0 -153 29.5t-125 82t-84 125.5t-31 159t31.5 159t85 125.5t125 82t151.5 29.5zM428 737q-53 0 -100 -20.5t-82 -61t-55.5 -101.5t-20.5 -143q0 -89 20.5 -159.5
t57.5 -120t89.5 -76t116.5 -26.5q53 0 100 20.5t82 61t55.5 101.5t20.5 143q0 89 -20.5 159.5t-57.5 120t-89.5 76t-116.5 26.5zM449 986l165 -153h-23l-150 66l-150 -66h-23l165 153h16z" />
    <glyph glyph-name="Otilde" unicode="&#xd5;" horiz-adv-x="882" 
d="M441 779q81 0 153 -29.5t125 -82t84 -125.5t31 -159t-31.5 -159t-85 -125.5t-125 -82t-151.5 -29.5q-81 0 -153 29.5t-125 82t-84 125.5t-31 159t31.5 159t85 125.5t125 82t151.5 29.5zM428 737q-53 0 -100 -20.5t-82 -61t-55.5 -101.5t-20.5 -143q0 -89 20.5 -159.5
t57.5 -120t89.5 -76t116.5 -26.5q53 0 100 20.5t82 61t55.5 101.5t20.5 143q0 89 -20.5 159.5t-57.5 120t-89.5 76t-116.5 26.5zM270 833q0 23 5.5 48t17.5 46t30 34.5t43 13.5q21 0 44 -10t45.5 -21.5t43 -21.5t37.5 -10q27 0 40 14t15 46h21q0 -41 -8 -67t-20.5 -42
t-28 -22t-31.5 -6q-25 0 -48.5 10t-45.5 21.5t-42.5 21.5t-40.5 10q-24 0 -39 -17t-17 -48h-21z" />
    <glyph glyph-name="Odieresis" unicode="&#xd6;" horiz-adv-x="882" 
d="M441 779q81 0 153 -29.5t125 -82t84 -125.5t31 -159t-31.5 -159t-85 -125.5t-125 -82t-151.5 -29.5q-81 0 -153 29.5t-125 82t-84 125.5t-31 159t31.5 159t85 125.5t125 82t151.5 29.5zM428 737q-53 0 -100 -20.5t-82 -61t-55.5 -101.5t-20.5 -143q0 -89 20.5 -159.5
t57.5 -120t89.5 -76t116.5 -26.5q53 0 100 20.5t82 61t55.5 101.5t20.5 143q0 89 -20.5 159.5t-57.5 120t-89.5 76t-116.5 26.5zM313 846q-26 0 -43 17t-17 43q0 27 17 44.5t43 17.5t43 -17.5t17 -44.5q0 -26 -17 -43t-43 -17zM569 846q-26 0 -43 17t-17 43q0 27 17 44.5
t43 17.5t43 -17.5t17 -44.5q0 -26 -17 -43t-43 -17z" />
    <glyph glyph-name="multiply" unicode="&#xd7;" horiz-adv-x="653" 
d="M91 73l189 189l-189 189l46 46l189 -189l189 189l46 -46l-189 -189l189 -189l-46 -45l-189 189l-189 -189z" />
    <glyph glyph-name="Oslash" unicode="&#xd8;" horiz-adv-x="922" 
d="M461 779q81 0 153 -29.5t125 -82t84 -125.5t31 -159t-31.5 -159t-85 -125.5t-125 -82t-151.5 -29.5q-81 0 -153 29.5t-125 82t-84 125.5t-31 159t31.5 159t85 125.5t125 82t151.5 29.5zM448 737q-53 0 -100 -20.5t-82 -61t-55.5 -101.5t-20.5 -143q0 -89 20.5 -159.5
t57.5 -120t89.5 -76t116.5 -26.5q53 0 100 20.5t82 61t55.5 101.5t20.5 143q0 89 -20.5 159.5t-57.5 120t-89.5 76t-116.5 26.5zM68 -25l750 848l36 -32l-750 -848z" />
    <glyph glyph-name="Ugrave" unicode="&#xd9;" horiz-adv-x="843" 
d="M423 -13q-71 0 -126 16.5t-93 53.5t-58 95.5t-20 142.5v352q0 24 -1.5 38t-7 21.5t-17 10.5t-32.5 4l-36 2v35h292v-35l-36 -2q-21 -1 -32.5 -4t-17 -10.5t-7 -21.5t-1.5 -38v-352q0 -72 16 -121.5t44 -80t66.5 -44t84.5 -13.5q49 0 89.5 13.5t69 43.5t44 79t15.5 120
v244q0 64 -1 100.5t-7 55t-19 23.5t-37 7l-37 2v34h257v-34l-37 -2q-24 -2 -37.5 -7t-19.5 -23.5t-7 -55t-1 -100.5v-243q0 -81 -20 -139t-57.5 -95t-91 -54.5t-121.5 -17.5zM396 972l103 -129h-21l-241 126v3h159z" />
    <glyph glyph-name="Uacute" unicode="&#xda;" horiz-adv-x="843" 
d="M423 -13q-71 0 -126 16.5t-93 53.5t-58 95.5t-20 142.5v352q0 24 -1.5 38t-7 21.5t-17 10.5t-32.5 4l-36 2v35h292v-35l-36 -2q-21 -1 -32.5 -4t-17 -10.5t-7 -21.5t-1.5 -38v-352q0 -72 16 -121.5t44 -80t66.5 -44t84.5 -13.5q49 0 89.5 13.5t69 43.5t44 79t15.5 120
v244q0 64 -1 100.5t-7 55t-19 23.5t-37 7l-37 2v34h257v-34l-37 -2q-24 -2 -37.5 -7t-19.5 -23.5t-7 -55t-1 -100.5v-243q0 -81 -20 -139t-57.5 -95t-91 -54.5t-121.5 -17.5zM666 969l-241 -126h-21l103 129h159v-3z" />
    <glyph glyph-name="Ucircumflex" unicode="&#xdb;" horiz-adv-x="843" 
d="M423 -13q-71 0 -126 16.5t-93 53.5t-58 95.5t-20 142.5v352q0 24 -1.5 38t-7 21.5t-17 10.5t-32.5 4l-36 2v35h292v-35l-36 -2q-21 -1 -32.5 -4t-17 -10.5t-7 -21.5t-1.5 -38v-352q0 -72 16 -121.5t44 -80t66.5 -44t84.5 -13.5q49 0 89.5 13.5t69 43.5t44 79t15.5 120
v244q0 64 -1 100.5t-7 55t-19 23.5t-37 7l-37 2v34h257v-34l-37 -2q-24 -2 -37.5 -7t-19.5 -23.5t-7 -55t-1 -100.5v-243q0 -81 -20 -139t-57.5 -95t-91 -54.5t-121.5 -17.5zM450 986l165 -153h-23l-150 66l-150 -66h-23l165 153h16z" />
    <glyph glyph-name="Udieresis" unicode="&#xdc;" horiz-adv-x="843" 
d="M423 -13q-71 0 -126 16.5t-93 53.5t-58 95.5t-20 142.5v352q0 24 -1.5 38t-7 21.5t-17 10.5t-32.5 4l-36 2v35h292v-35l-36 -2q-21 -1 -32.5 -4t-17 -10.5t-7 -21.5t-1.5 -38v-352q0 -72 16 -121.5t44 -80t66.5 -44t84.5 -13.5q49 0 89.5 13.5t69 43.5t44 79t15.5 120
v244q0 64 -1 100.5t-7 55t-19 23.5t-37 7l-37 2v34h257v-34l-37 -2q-24 -2 -37.5 -7t-19.5 -23.5t-7 -55t-1 -100.5v-243q0 -81 -20 -139t-57.5 -95t-91 -54.5t-121.5 -17.5zM314 846q-26 0 -43 17t-17 43q0 27 17 44.5t43 17.5t43 -17.5t17 -44.5q0 -26 -17 -43t-43 -17z
M570 846q-26 0 -43 17t-17 43q0 27 17 44.5t43 17.5t43 -17.5t17 -44.5q0 -26 -17 -43t-43 -17z" />
    <glyph glyph-name="Yacute" unicode="&#xdd;" horiz-adv-x="741" 
d="M202 37l42 1q26 1 40.5 2.5t21.5 8.5t8.5 21.5t1.5 40.5v222l-229 364q-8 14 -16 18t-34 6l-33 2v35h289v-35l-48 -2q-28 -2 -38 -8t4 -28l190 -301l151 231q36 55 36 80t-43 26l-39 2v35h245v-35l-33 -2q-16 0 -27 -5t-22.5 -17t-26 -33t-35.5 -53l-187 -282v-220
q0 -26 1.5 -40.5t8.5 -21.5t21.5 -8.5t40.5 -2.5l42 -1v-37h-332v37zM619 969l-241 -126h-21l103 129h159v-3z" />
    <glyph glyph-name="Thorn" unicode="&#xde;" horiz-adv-x="689" 
d="M253 603h94q55 0 109.5 -9t97.5 -32t70 -63.5t27 -103.5q0 -51 -22.5 -91.5t-60.5 -68t-89 -42.5t-109 -15h-117v-67q0 -26 1.5 -40.5t8.5 -21.5t21.5 -8.5t40.5 -2.5l42 -1v-37h-312v35l36 2q21 1 32.5 4t17 10.5t7 21.5t1.5 38v536q0 24 -1.5 38t-7 21.5t-17 10.5
t-32.5 4l-36 2v35h292v-35l-36 -2q-21 -1 -32.5 -4t-17 -10.5t-7 -21.5t-1.5 -38v-44zM253 213h114q81 0 126 44t45 125q0 89 -53 135.5t-152 46.5h-32q-30 0 -39 -3.5t-9 -19.5v-328z" />
    <glyph glyph-name="germandbls" unicode="&#xdf;" horiz-adv-x="665" 
d="M427 -13q-30 0 -57 5t-47.5 15t-32 25t-11.5 35q0 22 16.5 38t45.5 11q16 -38 40.5 -63t66.5 -25q18 0 34.5 6t29.5 18.5t21 31t8 44.5q0 29 -14.5 61.5t-62.5 70.5l-24 19q-48 38 -79.5 78t-31.5 85q0 19 5 33.5t16 28.5t27 28t39 32q33 26 42.5 49.5t9.5 53.5
q0 47 -28.5 76t-76.5 29q-29 0 -56 -12t-48 -38t-33.5 -68.5t-12.5 -102.5v-551h-170v35l42 2q26 2 32 10t6 24v379h-98v23l98 31v8q0 62 19.5 116.5t54 95t82 64t104.5 23.5q46 0 79 -12t53 -30.5t29.5 -42t9.5 -46.5q0 -26 -9 -48t-28 -37l-73 -57q-36 -29 -36 -61
q0 -9 3 -19.5t11.5 -24t24.5 -30.5t43 -38l24 -19q62 -49 87.5 -94t25.5 -89q0 -39 -15.5 -71t-42.5 -55.5t-63.5 -36.5t-78.5 -13z" />
    <glyph glyph-name="agrave" unicode="&#xe0;" horiz-adv-x="527" 
d="M202 -13q-29 0 -56.5 11t-50 29.5t-36 43.5t-13.5 54q0 28 11.5 49t33.5 38t54.5 31.5t74.5 30.5q16 6 34 14t34.5 17.5t29.5 19.5t20 20v32q0 25 -9 43.5t-23.5 30.5t-32.5 18t-36 6q-32 0 -52.5 -10t-32.5 -26.5t-16.5 -39.5t-4.5 -48q-6 -3 -14 -4t-14 -1h-2
q-24 0 -38.5 12.5t-14.5 35.5q0 20 22 39.5t64 37.5q35 15 75.5 32t78.5 17q30 0 55.5 -6.5t44 -22.5t28.5 -43t9 -69l-5 -288q-1 -26 2.5 -32t20.5 -6t31.5 1t29.5 3l4 -30l-30 -12q-6 -3 -17 -7t-23 -7.5t-24 -6.5t-21 -3q-25 0 -36 14.5t-19 48.5q-16 -13 -33 -25.5
t-36 -23.5q-15 -8 -32 -13t-35 -5zM251 40q27 0 50.5 15t30.5 36l5 211q-18 -12 -39 -23t-41 -22q-21 -11 -41.5 -23t-36 -26t-25 -30.5t-9.5 -37.5q0 -26 10 -45t26 -31t34.5 -18t35.5 -6zM295 609l-210 176v3h121l105 -179h-16z" />
    <glyph glyph-name="aacute" unicode="&#xe1;" horiz-adv-x="527" 
d="M202 -13q-29 0 -56.5 11t-50 29.5t-36 43.5t-13.5 54q0 28 11.5 49t33.5 38t54.5 31.5t74.5 30.5q16 6 34 14t34.5 17.5t29.5 19.5t20 20v32q0 25 -9 43.5t-23.5 30.5t-32.5 18t-36 6q-32 0 -52.5 -10t-32.5 -26.5t-16.5 -39.5t-4.5 -48q-6 -3 -14 -4t-14 -1h-2
q-24 0 -38.5 12.5t-14.5 35.5q0 20 22 39.5t64 37.5q35 15 75.5 32t78.5 17q30 0 55.5 -6.5t44 -22.5t28.5 -43t9 -69l-5 -288q-1 -26 2.5 -32t20.5 -6t31.5 1t29.5 3l4 -30l-30 -12q-6 -3 -17 -7t-23 -7.5t-24 -6.5t-21 -3q-25 0 -36 14.5t-19 48.5q-16 -13 -33 -25.5
t-36 -23.5q-15 -8 -32 -13t-35 -5zM251 40q27 0 50.5 15t30.5 36l5 211q-18 -12 -39 -23t-41 -22q-21 -11 -41.5 -23t-36 -26t-25 -30.5t-9.5 -37.5q0 -26 10 -45t26 -31t34.5 -18t35.5 -6zM329 788h121v-3l-210 -176h-16z" />
    <glyph glyph-name="acircumflex" unicode="&#xe2;" horiz-adv-x="527" 
d="M202 -13q-29 0 -56.5 11t-50 29.5t-36 43.5t-13.5 54q0 28 11.5 49t33.5 38t54.5 31.5t74.5 30.5q16 6 34 14t34.5 17.5t29.5 19.5t20 20v32q0 25 -9 43.5t-23.5 30.5t-32.5 18t-36 6q-32 0 -52.5 -10t-32.5 -26.5t-16.5 -39.5t-4.5 -48q-6 -3 -14 -4t-14 -1h-2
q-24 0 -38.5 12.5t-14.5 35.5q0 20 22 39.5t64 37.5q35 15 75.5 32t78.5 17q30 0 55.5 -6.5t44 -22.5t28.5 -43t9 -69l-5 -288q-1 -26 2.5 -32t20.5 -6t31.5 1t29.5 3l4 -30l-30 -12q-6 -3 -17 -7t-23 -7.5t-24 -6.5t-21 -3q-25 0 -36 14.5t-19 48.5q-16 -13 -33 -25.5
t-36 -23.5q-15 -8 -32 -13t-35 -5zM251 40q27 0 50.5 15t30.5 36l5 211q-18 -12 -39 -23t-41 -22q-21 -11 -41.5 -23t-36 -26t-25 -30.5t-9.5 -37.5q0 -26 10 -45t26 -31t34.5 -18t35.5 -6zM432 609h-19l-145 98l-145 -98h-19l158 197h12z" />
    <glyph glyph-name="atilde" unicode="&#xe3;" horiz-adv-x="527" 
d="M202 -13q-29 0 -56.5 11t-50 29.5t-36 43.5t-13.5 54q0 28 11.5 49t33.5 38t54.5 31.5t74.5 30.5q16 6 34 14t34.5 17.5t29.5 19.5t20 20v32q0 25 -9 43.5t-23.5 30.5t-32.5 18t-36 6q-32 0 -52.5 -10t-32.5 -26.5t-16.5 -39.5t-4.5 -48q-6 -3 -14 -4t-14 -1h-2
q-24 0 -38.5 12.5t-14.5 35.5q0 20 22 39.5t64 37.5q35 15 75.5 32t78.5 17q30 0 55.5 -6.5t44 -22.5t28.5 -43t9 -69l-5 -288q-1 -26 2.5 -32t20.5 -6t31.5 1t29.5 3l4 -30l-30 -12q-6 -3 -17 -7t-23 -7.5t-24 -6.5t-21 -3q-25 0 -36 14.5t-19 48.5q-16 -13 -33 -25.5
t-36 -23.5q-15 -8 -32 -13t-35 -5zM251 40q27 0 50.5 15t30.5 36l5 211q-18 -12 -39 -23t-41 -22q-21 -11 -41.5 -23t-36 -26t-25 -30.5t-9.5 -37.5q0 -26 10 -45t26 -31t34.5 -18t35.5 -6zM97 648q0 24 5.5 49t17.5 46t30 34t43 13q21 0 44 -11.5t45.5 -25t43 -25
t37.5 -11.5q29 0 41 18t14 52h21q0 -63 -21.5 -100t-66.5 -37q-25 0 -48.5 11t-45.5 24.5t-42.5 24.5t-40.5 11q-26 0 -40 -20t-16 -53h-21z" />
    <glyph glyph-name="adieresis" unicode="&#xe4;" horiz-adv-x="527" 
d="M202 -13q-29 0 -56.5 11t-50 29.5t-36 43.5t-13.5 54q0 28 11.5 49t33.5 38t54.5 31.5t74.5 30.5q16 6 34 14t34.5 17.5t29.5 19.5t20 20v32q0 25 -9 43.5t-23.5 30.5t-32.5 18t-36 6q-32 0 -52.5 -10t-32.5 -26.5t-16.5 -39.5t-4.5 -48q-6 -3 -14 -4t-14 -1h-2
q-24 0 -38.5 12.5t-14.5 35.5q0 20 22 39.5t64 37.5q35 15 75.5 32t78.5 17q30 0 55.5 -6.5t44 -22.5t28.5 -43t9 -69l-5 -288q-1 -26 2.5 -32t20.5 -6t31.5 1t29.5 3l4 -30l-30 -12q-6 -3 -17 -7t-23 -7.5t-24 -6.5t-21 -3q-25 0 -36 14.5t-19 48.5q-16 -13 -33 -25.5
t-36 -23.5q-15 -8 -32 -13t-35 -5zM251 40q27 0 50.5 15t30.5 36l5 211q-18 -12 -39 -23t-41 -22q-21 -11 -41.5 -23t-36 -26t-25 -30.5t-9.5 -37.5q0 -26 10 -45t26 -31t34.5 -18t35.5 -6zM150 667q-23 0 -40 16t-17 42q0 25 17 41.5t40 16.5q25 0 41.5 -16.5t16.5 -41.5
q0 -26 -16.5 -42t-41.5 -16zM385 667q-23 0 -40 16t-17 42q0 25 17 41.5t40 16.5q25 0 41.5 -16.5t16.5 -41.5q0 -26 -16.5 -42t-41.5 -16z" />
    <glyph glyph-name="aring" unicode="&#xe5;" horiz-adv-x="527" 
d="M202 -13q-29 0 -56.5 11t-50 29.5t-36 43.5t-13.5 54q0 28 11.5 49t33.5 38t54.5 31.5t74.5 30.5q16 6 34 14t34.5 17.5t29.5 19.5t20 20v32q0 25 -9 43.5t-23.5 30.5t-32.5 18t-36 6q-32 0 -52.5 -10t-32.5 -26.5t-16.5 -39.5t-4.5 -48q-6 -3 -14 -4t-14 -1h-2
q-24 0 -38.5 12.5t-14.5 35.5q0 20 22 39.5t64 37.5q35 15 75.5 32t78.5 17q30 0 55.5 -6.5t44 -22.5t28.5 -43t9 -69l-5 -288q-1 -26 2.5 -32t20.5 -6t31.5 1t29.5 3l4 -30l-30 -12q-6 -3 -17 -7t-23 -7.5t-24 -6.5t-21 -3q-25 0 -36 14.5t-19 48.5q-16 -13 -33 -25.5
t-36 -23.5q-15 -8 -32 -13t-35 -5zM251 40q27 0 50.5 15t30.5 36l5 211q-18 -12 -39 -23t-41 -22q-21 -11 -41.5 -23t-36 -26t-25 -30.5t-9.5 -37.5q0 -26 10 -45t26 -31t34.5 -18t35.5 -6zM145 706q0 25 9.5 46.5t26.5 38t39 26t48 9.5t49 -9.5t40 -26t26.5 -38t9.5 -46.5
t-9.5 -46.5t-26.5 -37.5t-40 -25t-49 -9t-48 9t-39 25t-26.5 37.5t-9.5 46.5zM338 706q0 32 -18.5 51t-51.5 19q-32 0 -50 -19t-18 -51t18 -51t50 -19q33 0 51.5 19t18.5 51z" />
    <glyph glyph-name="ae" unicode="&#xe6;" horiz-adv-x="822" 
d="M766 90q-50 -52 -96 -77.5t-106 -25.5q-48 0 -97 26t-83 78q-19 -26 -39.5 -45.5t-43.5 -33.5q-26 -15 -52.5 -20t-46.5 -5q-29 0 -56.5 11t-50 29.5t-36 43.5t-13.5 54q0 28 11.5 49t33.5 38t54.5 31.5t74.5 30.5q16 6 34 14t34.5 17.5t29.5 19.5t20 20v32q0 25 -9 43.5
t-23.5 30.5t-32.5 18t-36 6q-32 0 -52.5 -10t-32.5 -26.5t-16.5 -39.5t-4.5 -48q-6 -3 -14 -4t-14 -1h-2q-24 0 -38.5 12.5t-14.5 35.5q0 20 22 39.5t64 37.5q35 15 75.5 32t78.5 17q43 0 76 -13.5t49 -51.5q29 30 67 46.5t81 16.5q54 0 92.5 -17.5t65 -46.5t41 -66
t20.5 -77h-352q-1 -49 12 -93.5t37.5 -79t60.5 -55t81 -20.5q28 0 51 8t41 19.5t30.5 23t19.5 19.5l23 -24zM145 140q0 -26 10 -45t26 -31t34.5 -18t35.5 -6q15 0 32 4t33 14t29 26.5t19 40.5q-13 28 -20 61t-7 71v45q-18 -12 -39 -23t-41 -22q-21 -11 -41.5 -23t-36 -26
t-25 -30.5t-9.5 -37.5zM557 487q-32 0 -54.5 -13t-37.5 -33t-23 -44.5t-11 -48.5h241q-3 30 -10.5 55t-21 44t-34.5 29.5t-49 10.5z" />
    <glyph glyph-name="ccedilla" unicode="&#xe7;" horiz-adv-x="511" 
d="M281 -13q-54 0 -98.5 20.5t-75.5 55t-48 81t-17 98.5q0 60 21.5 111t58.5 87.5t87.5 57t108.5 20.5q26 0 52 -4t46.5 -12t33.5 -22t13 -33q0 -26 -16 -42.5t-45 -13.5q-20 36 -51.5 59t-77.5 23q-27 0 -53 -12t-46.5 -35t-32.5 -56.5t-12 -75.5q0 -46 15 -87t40.5 -72
t60.5 -49t75 -18q43 0 76.5 10.5t72.5 34.5l17 -27l-43 -34q-31 -24 -71 -44.5t-91 -20.5zM236 -265q-15 0 -30 2.5t-27.5 8.5t-20 15t-7.5 21q0 14 12.5 25.5t38.5 6.5q0 -26 18.5 -38.5t41.5 -12.5q18 0 29.5 9t11.5 22q0 21 -34 42t-84 43l118 126h36l-76 -81
q45 -23 67.5 -44t22.5 -52q0 -16 -8.5 -32.5t-23.5 -30t-36.5 -22t-48.5 -8.5z" />
    <glyph glyph-name="egrave" unicode="&#xe8;" horiz-adv-x="530" 
d="M272 -13q-39 0 -79.5 16.5t-73.5 50t-54 83.5t-21 116q0 56 17.5 104.5t47.5 84t71 56t89 20.5q54 0 92.5 -17.5t65 -46.5t41 -66t20.5 -77h-352v-7q0 -56 15.5 -100.5t41.5 -75.5t61 -48t73 -17q28 0 51 8t41 19.5t30.5 23t19.5 19.5l23 -24l-18 -19q-50 -52 -96 -77.5
t-106 -25.5zM265 486q-32 0 -54.5 -12.5t-37.5 -32.5t-23 -44.5t-11 -48.5h241q-3 30 -10.5 55t-21 43.5t-34.5 29t-49 10.5zM300 609l-210 176v3h121l105 -179h-16z" />
    <glyph glyph-name="eacute" unicode="&#xe9;" horiz-adv-x="530" 
d="M272 -13q-39 0 -79.5 16.5t-73.5 50t-54 83.5t-21 116q0 56 17.5 104.5t47.5 84t71 56t89 20.5q54 0 92.5 -17.5t65 -46.5t41 -66t20.5 -77h-352v-7q0 -56 15.5 -100.5t41.5 -75.5t61 -48t73 -17q28 0 51 8t41 19.5t30.5 23t19.5 19.5l23 -24l-18 -19q-50 -52 -96 -77.5
t-106 -25.5zM265 486q-32 0 -54.5 -12.5t-37.5 -32.5t-23 -44.5t-11 -48.5h241q-3 30 -10.5 55t-21 43.5t-34.5 29t-49 10.5zM334 788h121v-3l-210 -176h-16z" />
    <glyph glyph-name="ecircumflex" unicode="&#xea;" horiz-adv-x="530" 
d="M272 -13q-39 0 -79.5 16.5t-73.5 50t-54 83.5t-21 116q0 56 17.5 104.5t47.5 84t71 56t89 20.5q54 0 92.5 -17.5t65 -46.5t41 -66t20.5 -77h-352v-7q0 -56 15.5 -100.5t41.5 -75.5t61 -48t73 -17q28 0 51 8t41 19.5t30.5 23t19.5 19.5l23 -24l-18 -19q-50 -52 -96 -77.5
t-106 -25.5zM265 486q-32 0 -54.5 -12.5t-37.5 -32.5t-23 -44.5t-11 -48.5h241q-3 30 -10.5 55t-21 43.5t-34.5 29t-49 10.5zM437 609h-19l-145 98l-145 -98h-19l158 197h12z" />
    <glyph glyph-name="edieresis" unicode="&#xeb;" horiz-adv-x="530" 
d="M272 -13q-39 0 -79.5 16.5t-73.5 50t-54 83.5t-21 116q0 56 17.5 104.5t47.5 84t71 56t89 20.5q54 0 92.5 -17.5t65 -46.5t41 -66t20.5 -77h-352v-7q0 -56 15.5 -100.5t41.5 -75.5t61 -48t73 -17q28 0 51 8t41 19.5t30.5 23t19.5 19.5l23 -24l-18 -19q-50 -52 -96 -77.5
t-106 -25.5zM265 486q-32 0 -54.5 -12.5t-37.5 -32.5t-23 -44.5t-11 -48.5h241q-3 30 -10.5 55t-21 43.5t-34.5 29t-49 10.5zM155 667q-23 0 -40 16t-17 42q0 25 17 41.5t40 16.5q25 0 41.5 -16.5t16.5 -41.5q0 -26 -16.5 -42t-41.5 -16zM390 667q-23 0 -40 16t-17 42
q0 25 17 41.5t40 16.5q25 0 41.5 -16.5t16.5 -41.5q0 -26 -16.5 -42t-41.5 -16z" />
    <glyph glyph-name="igrave" unicode="&#xec;" horiz-adv-x="324" 
d="M215 71q0 -16 6 -24t32 -10l42 -2v-35h-250v35l42 2q26 2 32 10t6 24v312q0 20 -2.5 25.5t-18.5 12.5l-75 31v6l186 70v-457zM185 609l-210 176v3h121l105 -179h-16z" />
    <glyph glyph-name="iacute" unicode="&#xed;" horiz-adv-x="324" 
d="M215 71q0 -16 6 -24t32 -10l42 -2v-35h-250v35l42 2q26 2 32 10t6 24v312q0 20 -2.5 25.5t-18.5 12.5l-75 31v6l186 70v-457zM219 788h121v-3l-210 -176h-16z" />
    <glyph glyph-name="icircumflex" unicode="&#xee;" horiz-adv-x="324" 
d="M215 71q0 -16 6 -24t32 -10l42 -2v-35h-250v35l42 2q26 2 32 10t6 24v312q0 20 -2.5 25.5t-18.5 12.5l-75 31v6l186 70v-457zM322 609h-19l-145 98l-145 -98h-19l158 197h12z" />
    <glyph glyph-name="idieresis" unicode="&#xef;" horiz-adv-x="324" 
d="M215 71q0 -16 6 -24t32 -10l42 -2v-35h-250v35l42 2q26 2 32 10t6 24v312q0 20 -2.5 25.5t-18.5 12.5l-75 31v6l186 70v-457zM258 647q-23 0 -40 16t-17 42q0 25 17 41.5t40 16.5q25 0 41.5 -16.5t16.5 -41.5q0 -26 -16.5 -42t-41.5 -16zM58 647q-23 0 -40 16t-17 42
q0 25 17 41.5t40 16.5q25 0 41.5 -16.5t16.5 -41.5q0 -26 -16.5 -42t-41.5 -16z" />
    <glyph glyph-name="eth" unicode="&#xf0;" horiz-adv-x="602" 
d="M282 -13q-56 0 -100.5 20t-75 55.5t-47 83t-16.5 103.5q0 60 20.5 109.5t54.5 85t77.5 55t89.5 19.5q45 0 78.5 -17.5t56.5 -42.5q-43 125 -142 208l-127 -63l-20 39l109 54q-62 44 -139 71l9 30q52 -13 98 -31.5t88 -41.5l112 56l20 -39l-89 -44q99 -70 152 -169.5
t53 -220.5q0 -66 -17 -124.5t-50.5 -102t-82.5 -68.5t-112 -25zM147 245q0 -106 38.5 -162t100.5 -56q37 0 67 18.5t51 53t32 84t11 110.5q0 34 -4 66t-12 63q-30 30 -61 42.5t-63 12.5q-31 0 -60 -15.5t-51 -45t-35.5 -73t-13.5 -98.5z" />
    <glyph glyph-name="ntilde" unicode="&#xf1;" horiz-adv-x="627" 
d="M41 35l42 2q26 2 32 10t6 24v312q0 20 -2.5 25.5t-18.5 12.5l-75 31v6l186 70v-91q20 15 42.5 30t41.5 26q15 9 39 17t54 8q32 0 57 -7.5t42.5 -26.5t26.5 -53t9 -86v-274q0 -16 6 -24t32 -10l42 -2v-35h-250v35l42 2q26 2 32 10t6 24v239q0 70 -22.5 108t-82.5 38
q-38 0 -69 -16.5t-48 -40.5v-328q0 -16 6 -24t32 -10l42 -2v-35h-250v35zM158 648q0 24 5.5 49t17.5 46t30 34t43 13q21 0 44 -11.5t45.5 -25t43 -25t37.5 -11.5q29 0 41 18t14 52h21q0 -63 -21.5 -100t-66.5 -37q-25 0 -48.5 11t-45.5 24.5t-42.5 24.5t-40.5 11
q-26 0 -40 -20t-16 -53h-21z" />
    <glyph glyph-name="ograve" unicode="&#xf2;" horiz-adv-x="600" 
d="M302 518q57 0 104.5 -21t81 -56.5t52 -82.5t18.5 -99t-19 -101t-53.5 -87t-82.5 -61t-105 -23t-104.5 21t-81 57t-52 83t-18.5 99t19 101t53.5 86.5t82.5 60.5t105 23zM281 477q-28 0 -53.5 -11t-44.5 -34t-30.5 -58.5t-11.5 -84.5q0 -43 11 -89t33.5 -84.5t56 -63
t77.5 -24.5q28 0 53.5 11t44.5 34.5t30.5 59t11.5 84.5q0 43 -11 89t-33.5 84t-56 62.5t-77.5 24.5zM329 609l-210 176v3h121l105 -179h-16z" />
    <glyph glyph-name="oacute" unicode="&#xf3;" horiz-adv-x="600" 
d="M302 518q57 0 104.5 -21t81 -56.5t52 -82.5t18.5 -99t-19 -101t-53.5 -87t-82.5 -61t-105 -23t-104.5 21t-81 57t-52 83t-18.5 99t19 101t53.5 86.5t82.5 60.5t105 23zM281 477q-28 0 -53.5 -11t-44.5 -34t-30.5 -58.5t-11.5 -84.5q0 -43 11 -89t33.5 -84.5t56 -63
t77.5 -24.5q28 0 53.5 11t44.5 34.5t30.5 59t11.5 84.5q0 43 -11 89t-33.5 84t-56 62.5t-77.5 24.5zM363 788h121v-3l-210 -176h-16z" />
    <glyph glyph-name="ocircumflex" unicode="&#xf4;" horiz-adv-x="600" 
d="M302 518q57 0 104.5 -21t81 -56.5t52 -82.5t18.5 -99t-19 -101t-53.5 -87t-82.5 -61t-105 -23t-104.5 21t-81 57t-52 83t-18.5 99t19 101t53.5 86.5t82.5 60.5t105 23zM281 477q-28 0 -53.5 -11t-44.5 -34t-30.5 -58.5t-11.5 -84.5q0 -43 11 -89t33.5 -84.5t56 -63
t77.5 -24.5q28 0 53.5 11t44.5 34.5t30.5 59t11.5 84.5q0 43 -11 89t-33.5 84t-56 62.5t-77.5 24.5zM466 609h-19l-145 98l-145 -98h-19l158 197h12z" />
    <glyph glyph-name="otilde" unicode="&#xf5;" horiz-adv-x="600" 
d="M302 518q57 0 104.5 -21t81 -56.5t52 -82.5t18.5 -99t-19 -101t-53.5 -87t-82.5 -61t-105 -23t-104.5 21t-81 57t-52 83t-18.5 99t19 101t53.5 86.5t82.5 60.5t105 23zM281 477q-28 0 -53.5 -11t-44.5 -34t-30.5 -58.5t-11.5 -84.5q0 -43 11 -89t33.5 -84.5t56 -63
t77.5 -24.5q28 0 53.5 11t44.5 34.5t30.5 59t11.5 84.5q0 43 -11 89t-33.5 84t-56 62.5t-77.5 24.5zM131 648q0 24 5.5 49t17.5 46t30 34t43 13q21 0 44 -11.5t45.5 -25t43 -25t37.5 -11.5q29 0 41 18t14 52h21q0 -63 -21.5 -100t-66.5 -37q-25 0 -48.5 11t-45.5 24.5
t-42.5 24.5t-40.5 11q-26 0 -40 -20t-16 -53h-21z" />
    <glyph glyph-name="odieresis" unicode="&#xf6;" horiz-adv-x="600" 
d="M302 518q57 0 104.5 -21t81 -56.5t52 -82.5t18.5 -99t-19 -101t-53.5 -87t-82.5 -61t-105 -23t-104.5 21t-81 57t-52 83t-18.5 99t19 101t53.5 86.5t82.5 60.5t105 23zM281 477q-28 0 -53.5 -11t-44.5 -34t-30.5 -58.5t-11.5 -84.5q0 -43 11 -89t33.5 -84.5t56 -63
t77.5 -24.5q28 0 53.5 11t44.5 34.5t30.5 59t11.5 84.5q0 43 -11 89t-33.5 84t-56 62.5t-77.5 24.5zM184 667q-23 0 -40 16t-17 42q0 25 17 41.5t40 16.5q25 0 41.5 -16.5t16.5 -41.5q0 -26 -16.5 -42t-41.5 -16zM419 667q-23 0 -40 16t-17 42q0 25 17 41.5t40 16.5
q25 0 41.5 -16.5t16.5 -41.5q0 -26 -16.5 -42t-41.5 -16z" />
    <glyph glyph-name="divide" unicode="&#xf7;" horiz-adv-x="653" 
d="M327 373q-32 0 -55 23t-23 55q0 16 6 30t16.5 24.5t25 16.5t30.5 6q32 0 54.5 -22.5t22.5 -54.5q0 -16 -6 -30.5t-16.5 -25t-24.5 -16.5t-30 -6zM63 295h527v-65h-527v65zM327 -3q-32 0 -55 23t-23 55q0 16 6 30t16.5 24.5t25 16.5t30.5 6q32 0 54.5 -22.5t22.5 -54.5
q0 -16 -6 -30.5t-16.5 -25t-24.5 -16.5t-30 -6z" />
    <glyph glyph-name="oslash" unicode="&#xf8;" horiz-adv-x="620" 
d="M312 518q57 0 104.5 -21t81 -56.5t52 -82.5t18.5 -99t-19 -101t-53.5 -87t-82.5 -61t-105 -23t-104.5 21t-81 57t-52 83t-18.5 99t19 101t53.5 86.5t82.5 60.5t105 23zM291 477q-28 0 -53.5 -11t-44.5 -34t-30.5 -58.5t-11.5 -84.5q0 -43 11 -89t33.5 -84.5t56 -63
t77.5 -24.5q28 0 53.5 11t44.5 34.5t30.5 59t11.5 84.5q0 43 -11 89t-33.5 84t-56 62.5t-77.5 24.5zM51 -16l484 565l32 -28l-484 -565z" />
    <glyph glyph-name="ugrave" unicode="&#xf9;" horiz-adv-x="598" 
d="M407 66q-20 -15 -42 -29.5t-40 -24.5q-15 -8 -40 -16.5t-51 -8.5q-35 0 -59.5 7.5t-40 26.5t-23 52.5t-7.5 86.5v256q0 16 -6 23.5t-32 9.5l-42 4v31l170 29v-318q0 -41 4 -69.5t15 -46t30 -25.5t49 -8q36 0 64.5 15t46.5 37v318q0 16 -6 23.5t-32 9.5l-42 4v31l170 29
v-416q0 -12 3 -19.5t20 -7.5h57v-32q-48 -8 -87 -21.5t-79 -30.5v80zM328 609l-210 176v3h121l105 -179h-16z" />
    <glyph glyph-name="uacute" unicode="&#xfa;" horiz-adv-x="598" 
d="M407 66q-20 -15 -42 -29.5t-40 -24.5q-15 -8 -40 -16.5t-51 -8.5q-35 0 -59.5 7.5t-40 26.5t-23 52.5t-7.5 86.5v256q0 16 -6 23.5t-32 9.5l-42 4v31l170 29v-318q0 -41 4 -69.5t15 -46t30 -25.5t49 -8q36 0 64.5 15t46.5 37v318q0 16 -6 23.5t-32 9.5l-42 4v31l170 29
v-416q0 -12 3 -19.5t20 -7.5h57v-32q-48 -8 -87 -21.5t-79 -30.5v80zM362 788h121v-3l-210 -176h-16z" />
    <glyph glyph-name="ucircumflex" unicode="&#xfb;" horiz-adv-x="598" 
d="M407 66q-20 -15 -42 -29.5t-40 -24.5q-15 -8 -40 -16.5t-51 -8.5q-35 0 -59.5 7.5t-40 26.5t-23 52.5t-7.5 86.5v256q0 16 -6 23.5t-32 9.5l-42 4v31l170 29v-318q0 -41 4 -69.5t15 -46t30 -25.5t49 -8q36 0 64.5 15t46.5 37v318q0 16 -6 23.5t-32 9.5l-42 4v31l170 29
v-416q0 -12 3 -19.5t20 -7.5h57v-32q-48 -8 -87 -21.5t-79 -30.5v80zM465 609h-19l-145 98l-145 -98h-19l158 197h12z" />
    <glyph glyph-name="udieresis" unicode="&#xfc;" horiz-adv-x="598" 
d="M407 66q-20 -15 -42 -29.5t-40 -24.5q-15 -8 -40 -16.5t-51 -8.5q-35 0 -59.5 7.5t-40 26.5t-23 52.5t-7.5 86.5v256q0 16 -6 23.5t-32 9.5l-42 4v31l170 29v-318q0 -41 4 -69.5t15 -46t30 -25.5t49 -8q36 0 64.5 15t46.5 37v318q0 16 -6 23.5t-32 9.5l-42 4v31l170 29
v-416q0 -12 3 -19.5t20 -7.5h57v-32q-48 -8 -87 -21.5t-79 -30.5v80zM183 667q-23 0 -40 16t-17 42q0 25 17 41.5t40 16.5q25 0 41.5 -16.5t16.5 -41.5q0 -26 -16.5 -42t-41.5 -16zM418 667q-23 0 -40 16t-17 42q0 25 17 41.5t40 16.5q25 0 41.5 -16.5t16.5 -41.5
q0 -26 -16.5 -42t-41.5 -16z" />
    <glyph glyph-name="yacute" unicode="&#xfd;" horiz-adv-x="563" 
d="M151 -267q-26 0 -39.5 17t-13.5 35q0 19 12 33q38 14 60.5 22.5t32.5 19.5q11 12 19.5 29.5t19.5 43.5l20 46l-186 460q-6 16 -16.5 20.5t-40.5 6.5l-15 1v35h253v-35l-16 -1q-39 -2 -53.5 -8t-4.5 -31l128 -327l104 293q8 23 9.5 37t-3.5 21.5t-17.5 10t-32.5 4.5l-15 1
v35h206v-35l-13 -1q-17 -1 -27.5 -3t-19 -8t-15.5 -18.5t-16 -34.5l-221 -556q-24 -60 -44.5 -86.5t-54.5 -26.5zM367 788h121v-3l-210 -176h-16z" />
    <glyph glyph-name="thorn" unicode="&#xfe;" horiz-adv-x="594" 
d="M280 -248h-275v35l42 2q26 2 32 10t6 24v866q0 20 -2.5 25.5t-18.5 12.5l-75 31v6l186 66v-383q20 14 42.5 28t43.5 25q15 8 34 13t39 5q49 0 89 -18.5t68.5 -51.5t44 -78.5t15.5 -100.5q0 -62 -23.5 -113.5t-63 -89t-90.5 -58.5t-106 -21q-22 0 -46.5 3t-46.5 11v-176
q0 -16 6 -24.5t32 -9.5l67 -2v-37zM175 114q0 -43 28 -66t71 -23q35 0 67 13.5t56.5 39t39 63.5t14.5 86t-11 90t-33 73.5t-55 50t-76 18.5q-27 0 -54.5 -12.5t-46.5 -29.5v-303z" />
    <glyph glyph-name="ydieresis" unicode="&#xff;" horiz-adv-x="563" 
d="M151 -267q-26 0 -39.5 17t-13.5 35q0 19 12 33q38 14 60.5 22.5t32.5 19.5q11 12 19.5 29.5t19.5 43.5l20 46l-186 460q-6 16 -16.5 20.5t-40.5 6.5l-15 1v35h253v-35l-16 -1q-39 -2 -53.5 -8t-4.5 -31l128 -327l104 293q8 23 9.5 37t-3.5 21.5t-17.5 10t-32.5 4.5l-15 1
v35h206v-35l-13 -1q-17 -1 -27.5 -3t-19 -8t-15.5 -18.5t-16 -34.5l-221 -556q-24 -60 -44.5 -86.5t-54.5 -26.5zM188 667q-23 0 -40 16t-17 42q0 25 17 41.5t40 16.5q25 0 41.5 -16.5t16.5 -41.5q0 -26 -16.5 -42t-41.5 -16zM423 667q-23 0 -40 16t-17 42q0 25 17 41.5
t40 16.5q25 0 41.5 -16.5t16.5 -41.5q0 -26 -16.5 -42t-41.5 -16z" />
    <glyph glyph-name="Abreve" unicode="&#x102;" horiz-adv-x="746" 
d="M-14 35l23 2q22 2 35.5 5.5t24 14.5t19.5 31.5t23 56.5l237 636h46l269 -700q6 -15 11 -23.5t11.5 -13t15.5 -5.5t22 -2l33 -2v-35h-282v35l48 2q14 1 22 2.5t11 6.5t1 15.5t-9 28.5l-67 180h-267l-45 -127q-11 -31 -16 -51t-3 -31.5t11.5 -16.5t26.5 -6l44 -3v-35h-245
v35zM462 319l-118 317l-113 -317h231zM371 830q-30 0 -57 8t-49 27t-37 49.5t-20 75.5h54q7 -60 37 -86t72 -26t72 26t37 86h54q-5 -45 -20 -75.5t-37 -49.5t-49 -27t-57 -8z" />
    <glyph glyph-name="Amacron" unicode="&#x100;" horiz-adv-x="746" 
d="M-14 35l23 2q22 2 35.5 5.5t24 14.5t19.5 31.5t23 56.5l237 636h46l269 -700q6 -15 11 -23.5t11.5 -13t15.5 -5.5t22 -2l33 -2v-35h-282v35l48 2q14 1 22 2.5t11 6.5t1 15.5t-9 28.5l-67 180h-267l-45 -127q-11 -31 -16 -51t-3 -31.5t11.5 -16.5t26.5 -6l44 -3v-35h-245
v35zM462 319l-118 317l-113 -317h231zM224 939h294v-65h-294v65z" />
    <glyph glyph-name="Aogonek" unicode="&#x104;" horiz-adv-x="746" 
d="M-14 35l23 2q22 2 35.5 5.5t24 14.5t19.5 31.5t23 56.5l237 636h46l269 -700q6 -15 11 -23.5t11.5 -13t15.5 -5.5t22 -2l33 -2v-35h-282v35l48 2q14 1 22 2.5t11 6.5t1 15.5t-9 28.5l-67 180h-267l-45 -127q-11 -31 -16 -51t-3 -31.5t11.5 -16.5t26.5 -6l44 -3v-35h-245
v35zM462 319l-118 317l-113 -317h231zM726 -207q-17 -8 -45 -17.5t-57 -9.5q-42 0 -71.5 21.5t-29.5 63.5q0 19 11 39t28 39t37.5 37t39.5 34h35q-13 -11 -26 -25.5t-23.5 -31t-17 -34t-6.5 -34.5q0 -23 10.5 -36.5t27.5 -19.5t40 -5.5t47 6.5v-27z" />
    <glyph glyph-name="Cacute" unicode="&#x106;" horiz-adv-x="766" 
d="M476 31q54 0 95 13.5t65 54.5l66 112h27l-41 -186q-45 -14 -104 -26t-142 -12q-84 0 -156 31.5t-125 85.5t-83.5 126t-30.5 153t31 153t85.5 126t128.5 85.5t161 31.5q83 0 138 -12t89 -23l33 -182h-27l-58 105q-12 21 -30.5 34t-42 20.5t-50 10.5t-54.5 3
q-53 0 -103.5 -19.5t-90 -59.5t-64 -101t-24.5 -143q0 -86 22.5 -156t63 -120t97 -77.5t124.5 -27.5zM666 969l-241 -126h-21l103 129h159v-3z" />
    <glyph glyph-name="Ccaron" unicode="&#x10c;" horiz-adv-x="766" 
d="M476 31q54 0 95 13.5t65 54.5l66 112h27l-41 -186q-45 -14 -104 -26t-142 -12q-84 0 -156 31.5t-125 85.5t-83.5 126t-30.5 153t31 153t85.5 126t128.5 85.5t161 31.5q83 0 138 -12t89 -23l33 -182h-27l-58 105q-12 21 -30.5 34t-42 20.5t-50 10.5t-54.5 3
q-53 0 -103.5 -19.5t-90 -59.5t-64 -101t-24.5 -143q0 -86 22.5 -156t63 -120t97 -77.5t124.5 -27.5zM268 986h23l150 -66l150 66h23l-165 -153h-16z" />
    <glyph glyph-name="Ccircumflex" unicode="&#x108;" horiz-adv-x="766" 
d="M476 31q54 0 95 13.5t65 54.5l66 112h27l-41 -186q-45 -14 -104 -26t-142 -12q-84 0 -156 31.5t-125 85.5t-83.5 126t-30.5 153t31 153t85.5 126t128.5 85.5t161 31.5q83 0 138 -12t89 -23l33 -182h-27l-58 105q-12 21 -30.5 34t-42 20.5t-50 10.5t-54.5 3
q-53 0 -103.5 -19.5t-90 -59.5t-64 -101t-24.5 -143q0 -86 22.5 -156t63 -120t97 -77.5t124.5 -27.5zM450 986l165 -153h-23l-150 66l-150 -66h-23l165 153h16z" />
    <glyph glyph-name="Cdotaccent" unicode="&#x10a;" horiz-adv-x="766" 
d="M476 31q54 0 95 13.5t65 54.5l66 112h27l-41 -186q-45 -14 -104 -26t-142 -12q-84 0 -156 31.5t-125 85.5t-83.5 126t-30.5 153t31 153t85.5 126t128.5 85.5t161 31.5q83 0 138 -12t89 -23l33 -182h-27l-58 105q-12 21 -30.5 34t-42 20.5t-50 10.5t-54.5 3
q-53 0 -103.5 -19.5t-90 -59.5t-64 -101t-24.5 -143q0 -86 22.5 -156t63 -120t97 -77.5t124.5 -27.5zM442 846q-26 0 -43 17t-17 43q0 27 17 44.5t43 17.5t43 -17.5t17 -44.5q0 -26 -17 -43t-43 -17z" />
    <glyph glyph-name="Dcaron" unicode="&#x10e;" horiz-adv-x="861" 
d="M360 758q98 0 181 -26t144 -74t95 -117t34 -156q0 -86 -35.5 -157t-97 -121.5t-144.5 -78.5t-177 -28h-305v35l36 2q21 1 32.5 4t17 10.5t7 21.5t1.5 38v536q0 24 -1.5 38t-7 21.5t-17 10.5t-32.5 4l-36 2v35h305zM360 38q66 0 126 17t105.5 55.5t72.5 99.5t27 150
q0 86 -20 153t-62.5 113t-109 70t-159.5 24q-30 0 -47 -1t-26 -3.5t-11.5 -7t-2.5 -11.5v-585q0 -22 3.5 -36t13.5 -22.5t26.5 -12t43.5 -3.5h20zM251 986h23l150 -66l150 66h23l-165 -153h-16z" />
    <glyph glyph-name="Dcroat" unicode="&#x110;" horiz-adv-x="871" 
d="M370 758q98 0 181 -26t144 -74t95 -117t34 -156q0 -86 -35.5 -157t-97 -121.5t-144.5 -78.5t-177 -28h-305v35l36 2q21 1 32.5 4t17 10.5t7 21.5t1.5 38v536q0 24 -1.5 38t-7 21.5t-17 10.5t-32.5 4l-36 2v35h305zM370 38q66 0 126 17t105.5 55.5t72.5 99.5t27 150
q0 86 -20 153t-62.5 113t-109 70t-159.5 24q-30 0 -47 -1t-26 -3.5t-11.5 -7t-2.5 -11.5v-585q0 -22 3.5 -36t13.5 -22.5t26.5 -12t43.5 -3.5h20zM65 410h375v-48h-375v48z" />
    <glyph glyph-name="Ebreve" unicode="&#x114;" horiz-adv-x="711" 
d="M55 35l36 2q21 1 32.5 4t17 10.5t7 21.5t1.5 38v536q0 24 -1.5 38t-7 21.5t-17 10.5t-32.5 4l-36 2v35h242l291 2l8 -181h-30l-14 45q-11 34 -24 53t-38 28t-65.5 11t-105.5 2h-46q-20 0 -20 -20v-289h128q20 0 35 1.5t26.5 8.5t19.5 21.5t14 40.5l9 39h30v-268h-30
l-9 39q-6 26 -14 40.5t-19.5 21.5t-26.5 8.5t-35 1.5h-128v-251q0 -26 5.5 -40.5t17.5 -21.5t30.5 -8.5t43.5 -1.5h21q72 0 114.5 3.5t67 13t38 26t28.5 43.5l41 73h30l-51 -199h-584v35zM372 830q-30 0 -57 8t-49 27t-37 49.5t-20 75.5h54q7 -60 37 -86t72 -26t72 26t37 86
h54q-5 -45 -20 -75.5t-37 -49.5t-49 -27t-57 -8z" />
    <glyph glyph-name="Ecaron" unicode="&#x11a;" horiz-adv-x="711" 
d="M55 35l36 2q21 1 32.5 4t17 10.5t7 21.5t1.5 38v536q0 24 -1.5 38t-7 21.5t-17 10.5t-32.5 4l-36 2v35h242l291 2l8 -181h-30l-14 45q-11 34 -24 53t-38 28t-65.5 11t-105.5 2h-46q-20 0 -20 -20v-289h128q20 0 35 1.5t26.5 8.5t19.5 21.5t14 40.5l9 39h30v-268h-30
l-9 39q-6 26 -14 40.5t-19.5 21.5t-26.5 8.5t-35 1.5h-128v-251q0 -26 5.5 -40.5t17.5 -21.5t30.5 -8.5t43.5 -1.5h21q72 0 114.5 3.5t67 13t38 26t28.5 43.5l41 73h30l-51 -199h-584v35zM198 986h23l150 -66l150 66h23l-165 -153h-16z" />
    <glyph glyph-name="Emacron" unicode="&#x112;" horiz-adv-x="711" 
d="M55 35l36 2q21 1 32.5 4t17 10.5t7 21.5t1.5 38v536q0 24 -1.5 38t-7 21.5t-17 10.5t-32.5 4l-36 2v35h242l291 2l8 -181h-30l-14 45q-11 34 -24 53t-38 28t-65.5 11t-105.5 2h-46q-20 0 -20 -20v-289h128q20 0 35 1.5t26.5 8.5t19.5 21.5t14 40.5l9 39h30v-268h-30
l-9 39q-6 26 -14 40.5t-19.5 21.5t-26.5 8.5t-35 1.5h-128v-251q0 -26 5.5 -40.5t17.5 -21.5t30.5 -8.5t43.5 -1.5h21q72 0 114.5 3.5t67 13t38 26t28.5 43.5l41 73h30l-51 -199h-584v35zM225 939h294v-65h-294v65z" />
    <glyph glyph-name="Eogonek" unicode="&#x118;" horiz-adv-x="711" 
d="M55 35l36 2q21 1 32.5 4t17 10.5t7 21.5t1.5 38v536q0 24 -1.5 38t-7 21.5t-17 10.5t-32.5 4l-36 2v35h242l291 2l8 -181h-30l-14 45q-11 34 -24 53t-38 28t-65.5 11t-105.5 2h-46q-20 0 -20 -20v-289h128q20 0 35 1.5t26.5 8.5t19.5 21.5t14 40.5l9 39h30v-268h-30
l-9 39q-6 26 -14 40.5t-19.5 21.5t-26.5 8.5t-35 1.5h-128v-251q0 -26 5.5 -40.5t17.5 -21.5t30.5 -8.5t43.5 -1.5h21q72 0 114.5 3.5t67 13t38 26t28.5 43.5l41 73h30l-51 -199h-584v35zM691 -207q-17 -8 -45 -17.5t-57 -9.5q-42 0 -71.5 21.5t-29.5 63.5q0 19 11 39t28 39
t37.5 37t39.5 34h35q-13 -11 -26 -25.5t-23.5 -31t-17 -34t-6.5 -34.5q0 -23 10.5 -36.5t27.5 -19.5t40 -5.5t47 6.5v-27z" />
    <glyph glyph-name="Edotaccent" unicode="&#x116;" horiz-adv-x="711" 
d="M55 35l36 2q21 1 32.5 4t17 10.5t7 21.5t1.5 38v536q0 24 -1.5 38t-7 21.5t-17 10.5t-32.5 4l-36 2v35h242l291 2l8 -181h-30l-14 45q-11 34 -24 53t-38 28t-65.5 11t-105.5 2h-46q-20 0 -20 -20v-289h128q20 0 35 1.5t26.5 8.5t19.5 21.5t14 40.5l9 39h30v-268h-30
l-9 39q-6 26 -14 40.5t-19.5 21.5t-26.5 8.5t-35 1.5h-128v-251q0 -26 5.5 -40.5t17.5 -21.5t30.5 -8.5t43.5 -1.5h21q72 0 114.5 3.5t67 13t38 26t28.5 43.5l41 73h30l-51 -199h-584v35zM372 846q-26 0 -43 17t-17 43q0 27 17 44.5t43 17.5t43 -17.5t17 -44.5
q0 -26 -17 -43t-43 -17z" />
    <glyph glyph-name="Gbreve" unicode="&#x11e;" horiz-adv-x="813" 
d="M457 -13q-92 0 -167.5 31.5t-129.5 85.5t-83.5 126t-29.5 153t32 153t87 126t129 85.5t158 31.5q83 0 138 -12t89 -23l33 -182h-27l-58 105q-12 21 -30.5 34t-42 20.5t-50 10.5t-54.5 3q-53 0 -103.5 -19.5t-90 -59.5t-64 -101t-24.5 -143q0 -86 22.5 -156t61.5 -120
t93 -77.5t117 -27.5q44 0 72 5.5t58 14.5v200q0 24 -1.5 38.5t-7 22t-17 10t-32.5 3.5l-56 2v35h312v-35l-36 -2q-21 -1 -32.5 -4t-17 -10.5t-7 -21.5t-1.5 -38v-145l5 -71q-53 -20 -110.5 -34t-134.5 -14zM444 830q-30 0 -57 8t-49 27t-37 49.5t-20 75.5h54q7 -60 37 -86
t72 -26t72 26t37 86h54q-5 -45 -20 -75.5t-37 -49.5t-49 -27t-57 -8z" />
    <glyph glyph-name="Gcircumflex" unicode="&#x11c;" horiz-adv-x="813" 
d="M457 -13q-92 0 -167.5 31.5t-129.5 85.5t-83.5 126t-29.5 153t32 153t87 126t129 85.5t158 31.5q83 0 138 -12t89 -23l33 -182h-27l-58 105q-12 21 -30.5 34t-42 20.5t-50 10.5t-54.5 3q-53 0 -103.5 -19.5t-90 -59.5t-64 -101t-24.5 -143q0 -86 22.5 -156t61.5 -120
t93 -77.5t117 -27.5q44 0 72 5.5t58 14.5v200q0 24 -1.5 38.5t-7 22t-17 10t-32.5 3.5l-56 2v35h312v-35l-36 -2q-21 -1 -32.5 -4t-17 -10.5t-7 -21.5t-1.5 -38v-145l5 -71q-53 -20 -110.5 -34t-134.5 -14zM452 986l165 -153h-23l-150 66l-150 -66h-23l165 153h16z" />
    <glyph glyph-name="uni0122" unicode="&#x122;" horiz-adv-x="813" 
d="M457 -13q-92 0 -167.5 31.5t-129.5 85.5t-83.5 126t-29.5 153t32 153t87 126t129 85.5t158 31.5q83 0 138 -12t89 -23l33 -182h-27l-58 105q-12 21 -30.5 34t-42 20.5t-50 10.5t-54.5 3q-53 0 -103.5 -19.5t-90 -59.5t-64 -101t-24.5 -143q0 -86 22.5 -156t61.5 -120
t93 -77.5t117 -27.5q44 0 72 5.5t58 14.5v200q0 24 -1.5 38.5t-7 22t-17 10t-32.5 3.5l-56 2v35h312v-35l-36 -2q-21 -1 -32.5 -4t-17 -10.5t-7 -21.5t-1.5 -38v-145l5 -71q-53 -20 -110.5 -34t-134.5 -14zM403 -91q20 0 39 -7.5t33.5 -22t23.5 -35t9 -46.5q0 -44 -35 -91
t-108 -79l-10 21q48 24 67.5 55t19.5 66t-24.5 55t-66.5 27q-2 24 12.5 40.5t39.5 16.5z" />
    <glyph glyph-name="Gdotaccent" unicode="&#x120;" horiz-adv-x="813" 
d="M457 -13q-92 0 -167.5 31.5t-129.5 85.5t-83.5 126t-29.5 153t32 153t87 126t129 85.5t158 31.5q83 0 138 -12t89 -23l33 -182h-27l-58 105q-12 21 -30.5 34t-42 20.5t-50 10.5t-54.5 3q-53 0 -103.5 -19.5t-90 -59.5t-64 -101t-24.5 -143q0 -86 22.5 -156t61.5 -120
t93 -77.5t117 -27.5q44 0 72 5.5t58 14.5v200q0 24 -1.5 38.5t-7 22t-17 10t-32.5 3.5l-56 2v35h312v-35l-36 -2q-21 -1 -32.5 -4t-17 -10.5t-7 -21.5t-1.5 -38v-145l5 -71q-53 -20 -110.5 -34t-134.5 -14zM444 846q-26 0 -43 17t-17 43q0 27 17 44.5t43 17.5t43 -17.5
t17 -44.5q0 -26 -17 -43t-43 -17z" />
    <glyph glyph-name="Hbar" unicode="&#x126;" horiz-adv-x="926" 
d="M149 647q0 24 -1.5 38t-7 21.5t-17 10.5t-32.5 4l-36 2v35h292v-35l-36 -2q-21 -1 -32.5 -4t-17 -10.5t-7 -21.5t-1.5 -38v-238h420v238q0 24 -1.5 38t-7 21.5t-17 10.5t-32.5 4l-36 2v35h292v-35l-36 -2q-21 -1 -32.5 -4t-17 -10.5t-7 -21.5t-1.5 -38v-536
q0 -24 1.5 -38t7 -21.5t17 -10.5t32.5 -4l36 -2v-35h-292v35l36 2q21 1 32.5 4t17 10.5t7 21.5t1.5 38v250h-420v-250q0 -24 1.5 -38t7 -21.5t17 -10.5t32.5 -4l36 -2v-35h-292v35l36 2q21 1 32.5 4t17 10.5t7 21.5t1.5 38v536zM56 590h815v-48h-815v48z" />
    <glyph glyph-name="Hcircumflex" unicode="&#x124;" horiz-adv-x="926" 
d="M149 647q0 24 -1.5 38t-7 21.5t-17 10.5t-32.5 4l-36 2v35h292v-35l-36 -2q-21 -1 -32.5 -4t-17 -10.5t-7 -21.5t-1.5 -38v-238h420v238q0 24 -1.5 38t-7 21.5t-17 10.5t-32.5 4l-36 2v35h292v-35l-36 -2q-21 -1 -32.5 -4t-17 -10.5t-7 -21.5t-1.5 -38v-536
q0 -24 1.5 -38t7 -21.5t17 -10.5t32.5 -4l36 -2v-35h-292v35l36 2q21 1 32.5 4t17 10.5t7 21.5t1.5 38v250h-420v-250q0 -24 1.5 -38t7 -21.5t17 -10.5t32.5 -4l36 -2v-35h-292v35l36 2q21 1 32.5 4t17 10.5t7 21.5t1.5 38v536zM471 986l165 -153h-23l-150 66l-150 -66h-23
l165 153h16z" />
    <glyph glyph-name="Ibreve" unicode="&#x12c;" horiz-adv-x="402" 
d="M149 647q0 24 -1.5 38t-7 21.5t-17 10.5t-32.5 4l-36 2v35h292v-35l-36 -2q-21 -1 -32.5 -4t-17 -10.5t-7 -21.5t-1.5 -38v-536q0 -24 1.5 -38t7 -21.5t17 -10.5t32.5 -4l36 -2v-35h-292v35l36 2q21 1 32.5 4t17 10.5t7 21.5t1.5 38v536zM201 830q-30 0 -57 8t-49 27
t-37 49.5t-20 75.5h54q7 -60 37 -86t72 -26t72 26t37 86h54q-5 -45 -20 -75.5t-37 -49.5t-49 -27t-57 -8z" />
    <glyph glyph-name="Idotaccent" unicode="&#x130;" horiz-adv-x="402" 
d="M149 647q0 24 -1.5 38t-7 21.5t-17 10.5t-32.5 4l-36 2v35h292v-35l-36 -2q-21 -1 -32.5 -4t-17 -10.5t-7 -21.5t-1.5 -38v-536q0 -24 1.5 -38t7 -21.5t17 -10.5t32.5 -4l36 -2v-35h-292v35l36 2q21 1 32.5 4t17 10.5t7 21.5t1.5 38v536zM201 846q-26 0 -43 17t-17 43
q0 27 17 44.5t43 17.5t43 -17.5t17 -44.5q0 -26 -17 -43t-43 -17z" />
    <glyph glyph-name="Imacron" unicode="&#x12a;" horiz-adv-x="402" 
d="M149 647q0 24 -1.5 38t-7 21.5t-17 10.5t-32.5 4l-36 2v35h292v-35l-36 -2q-21 -1 -32.5 -4t-17 -10.5t-7 -21.5t-1.5 -38v-536q0 -24 1.5 -38t7 -21.5t17 -10.5t32.5 -4l36 -2v-35h-292v35l36 2q21 1 32.5 4t17 10.5t7 21.5t1.5 38v536zM54 939h294v-65h-294v65z" />
    <glyph glyph-name="Iogonek" unicode="&#x12e;" horiz-adv-x="402" 
d="M149 647q0 24 -1.5 38t-7 21.5t-17 10.5t-32.5 4l-36 2v35h292v-35l-36 -2q-21 -1 -32.5 -4t-17 -10.5t-7 -21.5t-1.5 -38v-536q0 -24 1.5 -38t7 -21.5t17 -10.5t32.5 -4l36 -2v-35h-292v35l36 2q21 1 32.5 4t17 10.5t7 21.5t1.5 38v536zM308 -207q-17 -8 -45 -17.5
t-57 -9.5q-42 0 -71.5 21.5t-29.5 63.5q0 19 11 39t28 39t37.5 37t39.5 34h35q-13 -11 -26 -25.5t-23.5 -31t-17 -34t-6.5 -34.5q0 -23 10.5 -36.5t27.5 -19.5t40 -5.5t47 6.5v-27z" />
    <glyph glyph-name="Itilde" unicode="&#x128;" horiz-adv-x="402" 
d="M149 647q0 24 -1.5 38t-7 21.5t-17 10.5t-32.5 4l-36 2v35h292v-35l-36 -2q-21 -1 -32.5 -4t-17 -10.5t-7 -21.5t-1.5 -38v-536q0 -24 1.5 -38t7 -21.5t17 -10.5t32.5 -4l36 -2v-35h-292v35l36 2q21 1 32.5 4t17 10.5t7 21.5t1.5 38v536zM30 833q0 23 5.5 48t17.5 46
t30 34.5t43 13.5q21 0 44 -10t45.5 -21.5t43 -21.5t37.5 -10q27 0 40 14t15 46h21q0 -41 -8 -67t-20.5 -42t-28 -22t-31.5 -6q-25 0 -48.5 10t-45.5 21.5t-42.5 21.5t-40.5 10q-24 0 -39 -17t-17 -48h-21z" />
    <glyph glyph-name="uni1ECA" unicode="&#x1eca;" horiz-adv-x="402" 
d="M149 647q0 24 -1.5 38t-7 21.5t-17 10.5t-32.5 4l-36 2v35h292v-35l-36 -2q-21 -1 -32.5 -4t-17 -10.5t-7 -21.5t-1.5 -38v-536q0 -24 1.5 -38t7 -21.5t17 -10.5t32.5 -4l36 -2v-35h-292v35l36 2q21 1 32.5 4t17 10.5t7 21.5t1.5 38v536zM201 -244q-26 0 -43 17t-17 43
q0 27 17 44.5t43 17.5t43 -17.5t17 -44.5q0 -26 -17 -43t-43 -17z" />
    <glyph glyph-name="Jcircumflex" unicode="&#x134;" horiz-adv-x="387" 
d="M26 -73q34 31 57.5 55t38.5 51.5t21.5 64.5t6.5 94v455q0 24 -1.5 38t-7 21.5t-17 10.5t-32.5 4l-36 2v35h292v-35l-36 -2q-21 -1 -32.5 -4t-17 -10.5t-7 -21.5t-1.5 -38v-435q0 -37 -2 -66t-8 -52t-17.5 -42.5t-30.5 -36.5q-13 -12 -31 -26t-38.5 -29.5t-42 -31
t-40.5 -28.5zM210 986l165 -153h-23l-150 66l-150 -66h-23l165 153h16z" />
    <glyph glyph-name="uni0136" unicode="&#x136;" horiz-adv-x="807" 
d="M306 350l-53 -2v-237q0 -24 1.5 -38t7 -21.5t17 -10.5t32.5 -4l36 -2v-35h-292v35l36 2q21 1 32.5 4t17 10.5t7 21.5t1.5 38v536q0 24 -1.5 38t-7 21.5t-17 10.5t-32.5 4l-36 2v35h292v-35l-36 -2q-21 -1 -32.5 -4t-17 -10.5t-7 -21.5t-1.5 -38v-270q18 5 32 16t36 34
l173 183q32 34 47.5 55.5t15.5 34.5t-15.5 18t-46.5 5h-14v35h278v-35l-17 -1q-24 -2 -42.5 -5.5t-37 -14t-40.5 -30t-53 -51.5l-190 -195l306 -343q18 -20 39.5 -32t50.5 -14l35 -2v-35h-202zM426 -91q20 0 39 -7.5t33.5 -22t23.5 -35t9 -46.5q0 -44 -35 -91t-108 -79
l-10 21q48 24 67.5 55t19.5 66t-24.5 55t-66.5 27q-2 24 12.5 40.5t39.5 16.5z" />
    <glyph glyph-name="Lacute" unicode="&#x139;" horiz-adv-x="653" 
d="M55 35l36 2q21 1 32.5 4t17 10.5t7 21.5t1.5 38v536q0 24 -1.5 38t-7 21.5t-17 10.5t-32.5 4l-36 2v35h292v-35l-36 -2q-21 -1 -32.5 -4t-17 -10.5t-7 -21.5t-1.5 -38v-535q0 -26 5.5 -40.5t17.5 -21.5t30.5 -8.5t43.5 -1.5q58 0 94 3.5t58.5 13t37 26t29.5 43.5l41 73
h30l-51 -199h-534v35zM443 969l-241 -126h-21l103 129h159v-3z" />
    <glyph glyph-name="Lcaron" unicode="&#x13d;" horiz-adv-x="653" 
d="M55 35l36 2q21 1 32.5 4t17 10.5t7 21.5t1.5 38v536q0 24 -1.5 38t-7 21.5t-17 10.5t-32.5 4l-36 2v35h292v-35l-36 -2q-21 -1 -32.5 -4t-17 -10.5t-7 -21.5t-1.5 -38v-535q0 -26 5.5 -40.5t17.5 -21.5t30.5 -8.5t43.5 -1.5q58 0 94 3.5t58.5 13t37 26t29.5 43.5l41 73
h30l-51 -199h-534v35zM476 795q20 0 39 -7.5t33.5 -22t23.5 -35t9 -46.5q0 -44 -35 -91t-108 -79l-10 21q48 24 67.5 55t19.5 66t-24.5 55t-66.5 27q-2 24 12.5 40.5t39.5 16.5z" />
    <glyph glyph-name="uni013B" unicode="&#x13b;" horiz-adv-x="653" 
d="M55 35l36 2q21 1 32.5 4t17 10.5t7 21.5t1.5 38v536q0 24 -1.5 38t-7 21.5t-17 10.5t-32.5 4l-36 2v35h292v-35l-36 -2q-21 -1 -32.5 -4t-17 -10.5t-7 -21.5t-1.5 -38v-535q0 -26 5.5 -40.5t17.5 -21.5t30.5 -8.5t43.5 -1.5q58 0 94 3.5t58.5 13t37 26t29.5 43.5l41 73
h30l-51 -199h-534v35zM326 -91q20 0 39 -7.5t33.5 -22t23.5 -35t9 -46.5q0 -44 -35 -91t-108 -79l-10 21q48 24 67.5 55t19.5 66t-24.5 55t-66.5 27q-2 24 12.5 40.5t39.5 16.5z" />
    <glyph glyph-name="Ldot" unicode="&#x13f;" horiz-adv-x="653" 
d="M55 35l36 2q21 1 32.5 4t17 10.5t7 21.5t1.5 38v536q0 24 -1.5 38t-7 21.5t-17 10.5t-32.5 4l-36 2v35h292v-35l-36 -2q-21 -1 -32.5 -4t-17 -10.5t-7 -21.5t-1.5 -38v-535q0 -26 5.5 -40.5t17.5 -21.5t30.5 -8.5t43.5 -1.5q58 0 94 3.5t58.5 13t37 26t29.5 43.5l41 73
h30l-51 -199h-534v35zM523 351q-26 0 -43 17t-17 43q0 27 17 44.5t43 17.5t43 -17.5t17 -44.5q0 -26 -17 -43t-43 -17z" />
    <glyph glyph-name="glyph223" horiz-adv-x="653" 
d="M55 35l36 2q21 1 32.5 4t17 10.5t7 21.5t1.5 38v536q0 24 -1.5 38t-7 21.5t-17 10.5t-32.5 4l-36 2v35h292v-35l-36 -2q-21 -1 -32.5 -4t-17 -10.5t-7 -21.5t-1.5 -38v-535q0 -26 5.5 -40.5t17.5 -21.5t30.5 -8.5t43.5 -1.5q58 0 94 3.5t58.5 13t37 26t29.5 43.5l41 73
h30l-51 -199h-534v35zM523 351q-26 0 -43 17t-17 43q0 27 17 44.5t43 17.5t43 -17.5t17 -44.5q0 -26 -17 -43t-43 -17z" />
    <glyph glyph-name="Lslash" unicode="&#x141;" horiz-adv-x="653" 
d="M55 35l36 2q21 1 32.5 4t17 10.5t7 21.5t1.5 38v536q0 24 -1.5 38t-7 21.5t-17 10.5t-32.5 4l-36 2v35h292v-35l-36 -2q-21 -1 -32.5 -4t-17 -10.5t-7 -21.5t-1.5 -38v-535q0 -26 5.5 -40.5t17.5 -21.5t30.5 -8.5t43.5 -1.5q58 0 94 3.5t58.5 13t37 26t29.5 43.5l41 73
h30l-51 -199h-534v35zM19 284l365 189v-53l-365 -189v53z" />
    <glyph glyph-name="Eng" unicode="&#x14a;" horiz-adv-x="924" 
d="M849 721q-24 -1 -37.5 -6t-19.5 -23.5t-7 -55t-1 -100.5v-491q0 -37 -2 -66t-8 -52t-17.5 -42.5t-30.5 -36.5q-13 -12 -31 -26t-38.5 -29.5t-42 -31t-40.5 -28.5l-15 22q34 31 59 55.5t42 53t25.5 66.5t8.5 95v42l-490 541v-386q0 -64 1 -100.5t7 -55t19 -23.5t37 -6
l37 -2v-35h-253v35l37 2q24 1 37.5 6t19.5 23.5t7 55t1 100.5v387q0 60 -28.5 86t-94.5 28v35h171l532 -569v347q0 64 -1 100.5t-7 55t-19 23.5t-37 6l-37 2v35h253v-35z" />
    <glyph glyph-name="Nacute" unicode="&#x143;" horiz-adv-x="924" 
d="M204 608v-386q0 -64 1 -100t7 -54.5t19 -24t37 -6.5l37 -2v-35h-253v35l37 2q24 1 37.5 6.5t19.5 24t7 54.5t1 100v387q0 60 -28.5 86t-94.5 28v35h171l532 -569v347q0 64 -1 100t-7 54.5t-19 23.5t-37 7l-37 2v35h253v-35l-37 -2q-24 -2 -37.5 -7t-19.5 -23.5t-7 -54.5
t-1 -100v-539h-27zM690 969l-241 -126h-21l103 129h159v-3z" />
    <glyph glyph-name="Ncaron" unicode="&#x147;" horiz-adv-x="924" 
d="M204 608v-386q0 -64 1 -100t7 -54.5t19 -24t37 -6.5l37 -2v-35h-253v35l37 2q24 1 37.5 6.5t19.5 24t7 54.5t1 100v387q0 60 -28.5 86t-94.5 28v35h171l532 -569v347q0 64 -1 100t-7 54.5t-19 23.5t-37 7l-37 2v35h253v-35l-37 -2q-24 -2 -37.5 -7t-19.5 -23.5t-7 -54.5
t-1 -100v-539h-27zM292 986h23l150 -66l150 66h23l-165 -153h-16z" />
    <glyph glyph-name="uni0145" unicode="&#x145;" horiz-adv-x="924" 
d="M204 608v-386q0 -64 1 -100t7 -54.5t19 -24t37 -6.5l37 -2v-35h-253v35l37 2q24 1 37.5 6.5t19.5 24t7 54.5t1 100v387q0 60 -28.5 86t-94.5 28v35h171l532 -569v347q0 64 -1 100t-7 54.5t-19 23.5t-37 7l-37 2v35h253v-35l-37 -2q-24 -2 -37.5 -7t-19.5 -23.5t-7 -54.5
t-1 -100v-539h-27zM457 -91q20 0 39 -7.5t33.5 -22t23.5 -35t9 -46.5q0 -44 -35 -91t-108 -79l-10 21q48 24 67.5 55t19.5 66t-24.5 55t-66.5 27q-2 24 12.5 40.5t39.5 16.5z" />
    <glyph glyph-name="OE" unicode="&#x152;" horiz-adv-x="1260" 
d="M441 -13q-81 0 -153 29.5t-125 82t-84 125.5t-31 159t31.5 159t85 125.5t125 82t151.5 29.5q81 0 145.5 -29t111.5 -81v89h148l291 2l8 -181h-30l-14 45q-11 34 -24 53t-38 28t-65.5 11t-105.5 2h-46q-20 0 -20 -20v-289h128q20 0 35 1.5t26.5 8.5t19.5 21.5t14 40.5
l9 39h30v-268h-30l-9 39q-6 26 -14 40.5t-19.5 21.5t-26.5 8.5t-35 1.5h-128v-251q0 -26 5.5 -40.5t17.5 -21.5t30.5 -8.5t43.5 -1.5h21q72 0 114.5 3.5t67 13t38 26t28.5 43.5l41 73h30l-51 -199h-490v98q-47 -53 -112 -82t-145 -29zM712 355q0 89 -20.5 159.5t-57.5 120
t-89.5 76t-116.5 26.5q-53 0 -100 -20.5t-82 -61t-55.5 -101.5t-20.5 -143q0 -89 20.5 -159.5t57.5 -120t89.5 -76t116.5 -26.5q53 0 100 20.5t82 61t55.5 101.5t20.5 143z" />
    <glyph glyph-name="Obreve" unicode="&#x14e;" horiz-adv-x="882" 
d="M441 779q81 0 153 -29.5t125 -82t84 -125.5t31 -159t-31.5 -159t-85 -125.5t-125 -82t-151.5 -29.5q-81 0 -153 29.5t-125 82t-84 125.5t-31 159t31.5 159t85 125.5t125 82t151.5 29.5zM428 737q-53 0 -100 -20.5t-82 -61t-55.5 -101.5t-20.5 -143q0 -89 20.5 -159.5
t57.5 -120t89.5 -76t116.5 -26.5q53 0 100 20.5t82 61t55.5 101.5t20.5 143q0 89 -20.5 159.5t-57.5 120t-89.5 76t-116.5 26.5zM441 830q-30 0 -57 8t-49 27t-37 49.5t-20 75.5h54q7 -60 37 -86t72 -26t72 26t37 86h54q-5 -45 -20 -75.5t-37 -49.5t-49 -27t-57 -8z" />
    <glyph glyph-name="Ohungarumlaut" unicode="&#x150;" horiz-adv-x="882" 
d="M441 779q81 0 153 -29.5t125 -82t84 -125.5t31 -159t-31.5 -159t-85 -125.5t-125 -82t-151.5 -29.5q-81 0 -153 29.5t-125 82t-84 125.5t-31 159t31.5 159t85 125.5t125 82t151.5 29.5zM428 737q-53 0 -100 -20.5t-82 -61t-55.5 -101.5t-20.5 -143q0 -89 20.5 -159.5
t57.5 -120t89.5 -76t116.5 -26.5q53 0 100 20.5t82 61t55.5 101.5t20.5 143q0 89 -20.5 159.5t-57.5 120t-89.5 76t-116.5 26.5zM576 969l-241 -126h-21l103 129h159v-3zM776 969l-241 -126h-21l103 129h159v-3z" />
    <glyph glyph-name="Omacron" unicode="&#x14c;" horiz-adv-x="882" 
d="M441 779q81 0 153 -29.5t125 -82t84 -125.5t31 -159t-31.5 -159t-85 -125.5t-125 -82t-151.5 -29.5q-81 0 -153 29.5t-125 82t-84 125.5t-31 159t31.5 159t85 125.5t125 82t151.5 29.5zM428 737q-53 0 -100 -20.5t-82 -61t-55.5 -101.5t-20.5 -143q0 -89 20.5 -159.5
t57.5 -120t89.5 -76t116.5 -26.5q53 0 100 20.5t82 61t55.5 101.5t20.5 143q0 89 -20.5 159.5t-57.5 120t-89.5 76t-116.5 26.5zM294 939h294v-65h-294v65z" />
    <glyph glyph-name="uni1ECC" unicode="&#x1ecc;" horiz-adv-x="882" 
d="M441 779q81 0 153 -29.5t125 -82t84 -125.5t31 -159t-31.5 -159t-85 -125.5t-125 -82t-151.5 -29.5q-81 0 -153 29.5t-125 82t-84 125.5t-31 159t31.5 159t85 125.5t125 82t151.5 29.5zM428 737q-53 0 -100 -20.5t-82 -61t-55.5 -101.5t-20.5 -143q0 -89 20.5 -159.5
t57.5 -120t89.5 -76t116.5 -26.5q53 0 100 20.5t82 61t55.5 101.5t20.5 143q0 89 -20.5 159.5t-57.5 120t-89.5 76t-116.5 26.5zM449 -244q-26 0 -43 17t-17 43q0 27 17 44.5t43 17.5t43 -17.5t17 -44.5q0 -26 -17 -43t-43 -17z" />
    <glyph glyph-name="Racute" unicode="&#x154;" horiz-adv-x="754" 
d="M319 758q70 0 126.5 -10t96 -32t61 -56.5t21.5 -83.5q0 -75 -50.5 -124.5t-138.5 -73.5q56 -72 111 -142.5t111 -135.5q14 -17 25 -28.5t20.5 -19t20.5 -11.5t25 -5l23 -1v-35h-179l-263 358h-76v-247q0 -26 1.5 -40.5t8.5 -21.5t21.5 -8.5t40.5 -2.5l32 -1v-37h-302v35
l36 2q21 1 32.5 4t17 10.5t7 21.5t1.5 38v536q0 24 -1.5 38t-7 21.5t-17 10.5t-32.5 4l-36 2v35h264zM253 397q14 -2 29 -2.5t27 -0.5q59 0 98 13.5t62 35.5t32.5 51t9.5 59q0 31 -7.5 61t-29 53.5t-61.5 38t-104 14.5q-19 0 -30 -1t-17 -3t-7.5 -7t-1.5 -12v-300zM573 969
l-241 -126h-21l103 129h159v-3z" />
    <glyph glyph-name="Rcaron" unicode="&#x158;" horiz-adv-x="754" 
d="M319 758q70 0 126.5 -10t96 -32t61 -56.5t21.5 -83.5q0 -75 -50.5 -124.5t-138.5 -73.5q56 -72 111 -142.5t111 -135.5q14 -17 25 -28.5t20.5 -19t20.5 -11.5t25 -5l23 -1v-35h-179l-263 358h-76v-247q0 -26 1.5 -40.5t8.5 -21.5t21.5 -8.5t40.5 -2.5l32 -1v-37h-302v35
l36 2q21 1 32.5 4t17 10.5t7 21.5t1.5 38v536q0 24 -1.5 38t-7 21.5t-17 10.5t-32.5 4l-36 2v35h264zM253 397q14 -2 29 -2.5t27 -0.5q59 0 98 13.5t62 35.5t32.5 51t9.5 59q0 31 -7.5 61t-29 53.5t-61.5 38t-104 14.5q-19 0 -30 -1t-17 -3t-7.5 -7t-1.5 -12v-300zM175 986
h23l150 -66l150 66h23l-165 -153h-16z" />
    <glyph glyph-name="uni0156" unicode="&#x156;" horiz-adv-x="754" 
d="M319 758q70 0 126.5 -10t96 -32t61 -56.5t21.5 -83.5q0 -75 -50.5 -124.5t-138.5 -73.5q56 -72 111 -142.5t111 -135.5q14 -17 25 -28.5t20.5 -19t20.5 -11.5t25 -5l23 -1v-35h-179l-263 358h-76v-247q0 -26 1.5 -40.5t8.5 -21.5t21.5 -8.5t40.5 -2.5l32 -1v-37h-302v35
l36 2q21 1 32.5 4t17 10.5t7 21.5t1.5 38v536q0 24 -1.5 38t-7 21.5t-17 10.5t-32.5 4l-36 2v35h264zM253 397q14 -2 29 -2.5t27 -0.5q59 0 98 13.5t62 35.5t32.5 51t9.5 59q0 31 -7.5 61t-29 53.5t-61.5 38t-104 14.5q-19 0 -30 -1t-17 -3t-7.5 -7t-1.5 -12v-300zM434 -91
q20 0 39 -7.5t33.5 -22t23.5 -35t9 -46.5q0 -44 -35 -91t-108 -79l-10 21q48 24 67.5 55t19.5 66t-24.5 55t-66.5 27q-2 24 12.5 40.5t39.5 16.5z" />
    <glyph glyph-name="Sacute" unicode="&#x15a;" horiz-adv-x="600" 
d="M286 -13q-54 0 -102 11t-91 28l-41 207l27 7l67 -129q23 -44 58 -62t85 -18q36 0 67 7.5t53.5 24t35.5 42.5t13 62q0 30 -11 55t-30 45t-43.5 35.5t-51.5 26.5l-71 30q-92 38 -133 91.5t-41 122.5q0 46 18.5 84t50 65t72.5 42t87 15q95 0 164 -26l33 -172l-26 -9l-64 104
q-20 32 -46.5 45.5t-64.5 13.5q-29 0 -54 -7t-44.5 -21.5t-30.5 -37.5t-11 -55q0 -54 33 -91t89 -60l71 -30q42 -18 78 -38t62 -45.5t40.5 -59t14.5 -78.5q0 -52 -23 -93.5t-60.5 -71t-84.5 -45t-95 -15.5zM523 969l-241 -126h-21l103 129h159v-3z" />
    <glyph glyph-name="Scaron" unicode="&#x160;" horiz-adv-x="600" 
d="M286 -13q-54 0 -102 11t-91 28l-41 207l27 7l67 -129q23 -44 58 -62t85 -18q36 0 67 7.5t53.5 24t35.5 42.5t13 62q0 30 -11 55t-30 45t-43.5 35.5t-51.5 26.5l-71 30q-92 38 -133 91.5t-41 122.5q0 46 18.5 84t50 65t72.5 42t87 15q95 0 164 -26l33 -172l-26 -9l-64 104
q-20 32 -46.5 45.5t-64.5 13.5q-29 0 -54 -7t-44.5 -21.5t-30.5 -37.5t-11 -55q0 -54 33 -91t89 -60l71 -30q42 -18 78 -38t62 -45.5t40.5 -59t14.5 -78.5q0 -52 -23 -93.5t-60.5 -71t-84.5 -45t-95 -15.5zM125 986h23l150 -66l150 66h23l-165 -153h-16z" />
    <glyph glyph-name="Scedilla" unicode="&#x15e;" horiz-adv-x="600" 
d="M286 -13q-54 0 -102 11t-91 28l-41 207l27 7l67 -129q23 -44 58 -62t85 -18q36 0 67 7.5t53.5 24t35.5 42.5t13 62q0 30 -11 55t-30 45t-43.5 35.5t-51.5 26.5l-71 30q-92 38 -133 91.5t-41 122.5q0 46 18.5 84t50 65t72.5 42t87 15q95 0 164 -26l33 -172l-26 -9l-64 104
q-20 32 -46.5 45.5t-64.5 13.5q-29 0 -54 -7t-44.5 -21.5t-30.5 -37.5t-11 -55q0 -54 33 -91t89 -60l71 -30q42 -18 78 -38t62 -45.5t40.5 -59t14.5 -78.5q0 -52 -23 -93.5t-60.5 -71t-84.5 -45t-95 -15.5zM255 -265q-15 0 -30 2.5t-27.5 8.5t-20 15t-7.5 21q0 14 12.5 25.5
t38.5 6.5q0 -26 18.5 -38.5t41.5 -12.5q18 0 29.5 9t11.5 22q0 21 -34 42t-84 43l118 126h36l-76 -81q45 -23 67.5 -44t22.5 -52q0 -16 -8.5 -32.5t-23.5 -30t-36.5 -22t-48.5 -8.5z" />
    <glyph glyph-name="Scircumflex" unicode="&#x15c;" horiz-adv-x="600" 
d="M286 -13q-54 0 -102 11t-91 28l-41 207l27 7l67 -129q23 -44 58 -62t85 -18q36 0 67 7.5t53.5 24t35.5 42.5t13 62q0 30 -11 55t-30 45t-43.5 35.5t-51.5 26.5l-71 30q-92 38 -133 91.5t-41 122.5q0 46 18.5 84t50 65t72.5 42t87 15q95 0 164 -26l33 -172l-26 -9l-64 104
q-20 32 -46.5 45.5t-64.5 13.5q-29 0 -54 -7t-44.5 -21.5t-30.5 -37.5t-11 -55q0 -54 33 -91t89 -60l71 -30q42 -18 78 -38t62 -45.5t40.5 -59t14.5 -78.5q0 -52 -23 -93.5t-60.5 -71t-84.5 -45t-95 -15.5zM307 986l165 -153h-23l-150 66l-150 -66h-23l165 153h16z" />
    <glyph glyph-name="uni0218" unicode="&#x218;" horiz-adv-x="600" 
d="M286 -13q-54 0 -102 11t-91 28l-41 207l27 7l67 -129q23 -44 58 -62t85 -18q36 0 67 7.5t53.5 24t35.5 42.5t13 62q0 30 -11 55t-30 45t-43.5 35.5t-51.5 26.5l-71 30q-92 38 -133 91.5t-41 122.5q0 46 18.5 84t50 65t72.5 42t87 15q95 0 164 -26l33 -172l-26 -9l-64 104
q-20 32 -46.5 45.5t-64.5 13.5q-29 0 -54 -7t-44.5 -21.5t-30.5 -37.5t-11 -55q0 -54 33 -91t89 -60l71 -30q42 -18 78 -38t62 -45.5t40.5 -59t14.5 -78.5q0 -52 -23 -93.5t-60.5 -71t-84.5 -45t-95 -15.5zM308 -91q20 0 39 -7.5t33.5 -22t23.5 -35t9 -46.5q0 -44 -35 -91
t-108 -79l-10 21q48 24 67.5 55t19.5 66t-24.5 55t-66.5 27q-2 24 12.5 40.5t39.5 16.5z" />
    <glyph glyph-name="Tbar" unicode="&#x166;" horiz-adv-x="746" 
d="M207 37l42 1q26 1 40.5 2.5t21.5 8.5t8.5 21.5t1.5 40.5v607h-31q-65 0 -105 -2t-64.5 -11t-37.5 -28t-23 -53l-14 -45h-30l11 210h8q14 -10 28 -16t36 -9.5t56.5 -4.5t90.5 -1h254q55 0 90 1t57 4.5t36 9.5t28 16h8l11 -210h-30l-14 45q-11 34 -23.5 53t-37 28t-64.5 11
t-105 2h-31v-607q0 -26 1.5 -40.5t8.5 -21.5t21.5 -8.5t40.5 -2.5l42 -1v-37h-332v37zM121 409h505v-48h-505v48z" />
    <glyph glyph-name="Tcaron" unicode="&#x164;" horiz-adv-x="746" 
d="M207 37l42 1q26 1 40.5 2.5t21.5 8.5t8.5 21.5t1.5 40.5v607h-31q-65 0 -105 -2t-64.5 -11t-37.5 -28t-23 -53l-14 -45h-30l11 210h8q14 -10 28 -16t36 -9.5t56.5 -4.5t90.5 -1h254q55 0 90 1t57 4.5t36 9.5t28 16h8l11 -210h-30l-14 45q-11 34 -23.5 53t-37 28t-64.5 11
t-105 2h-31v-607q0 -26 1.5 -40.5t8.5 -21.5t21.5 -8.5t40.5 -2.5l42 -1v-37h-332v37zM199 986h23l150 -66l150 66h23l-165 -153h-16z" />
    <glyph glyph-name="uni0162" unicode="&#x162;" horiz-adv-x="746" 
d="M207 37l42 1q26 1 40.5 2.5t21.5 8.5t8.5 21.5t1.5 40.5v607h-31q-65 0 -105 -2t-64.5 -11t-37.5 -28t-23 -53l-14 -45h-30l11 210h8q14 -10 28 -16t36 -9.5t56.5 -4.5t90.5 -1h254q55 0 90 1t57 4.5t36 9.5t28 16h8l11 -210h-30l-14 45q-11 34 -23.5 53t-37 28t-64.5 11
t-105 2h-31v-607q0 -26 1.5 -40.5t8.5 -21.5t21.5 -8.5t40.5 -2.5l42 -1v-37h-332v37zM347 -91q20 0 39 -7.5t33.5 -22t23.5 -35t9 -46.5q0 -44 -35 -91t-108 -79l-10 21q48 24 67.5 55t19.5 66t-24.5 55t-66.5 27q-2 24 12.5 40.5t39.5 16.5z" />
    <glyph glyph-name="uni021A" unicode="&#x21a;" horiz-adv-x="746" 
d="M207 37l42 1q26 1 40.5 2.5t21.5 8.5t8.5 21.5t1.5 40.5v607h-31q-65 0 -105 -2t-64.5 -11t-37.5 -28t-23 -53l-14 -45h-30l11 210h8q14 -10 28 -16t36 -9.5t56.5 -4.5t90.5 -1h254q55 0 90 1t57 4.5t36 9.5t28 16h8l11 -210h-30l-14 45q-11 34 -23.5 53t-37 28t-64.5 11
t-105 2h-31v-607q0 -26 1.5 -40.5t8.5 -21.5t21.5 -8.5t40.5 -2.5l42 -1v-37h-332v37zM347 -91q20 0 39 -7.5t33.5 -22t23.5 -35t9 -46.5q0 -44 -35 -91t-108 -79l-10 21q48 24 67.5 55t19.5 66t-24.5 55t-66.5 27q-2 24 12.5 40.5t39.5 16.5z" />
    <glyph glyph-name="Ubreve" unicode="&#x16c;" horiz-adv-x="843" 
d="M423 -13q-71 0 -126 16.5t-93 53.5t-58 95.5t-20 142.5v352q0 24 -1.5 38t-7 21.5t-17 10.5t-32.5 4l-36 2v35h292v-35l-36 -2q-21 -1 -32.5 -4t-17 -10.5t-7 -21.5t-1.5 -38v-352q0 -72 16 -121.5t44 -80t66.5 -44t84.5 -13.5q49 0 89.5 13.5t69 43.5t44 79t15.5 120
v244q0 64 -1 100.5t-7 55t-19 23.5t-37 7l-37 2v34h257v-34l-37 -2q-24 -2 -37.5 -7t-19.5 -23.5t-7 -55t-1 -100.5v-243q0 -81 -20 -139t-57.5 -95t-91 -54.5t-121.5 -17.5zM442 830q-30 0 -57 8t-49 27t-37 49.5t-20 75.5h54q7 -60 37 -86t72 -26t72 26t37 86h54
q-5 -45 -20 -75.5t-37 -49.5t-49 -27t-57 -8z" />
    <glyph glyph-name="Uhungarumlaut" unicode="&#x170;" horiz-adv-x="843" 
d="M423 -13q-71 0 -126 16.5t-93 53.5t-58 95.5t-20 142.5v352q0 24 -1.5 38t-7 21.5t-17 10.5t-32.5 4l-36 2v35h292v-35l-36 -2q-21 -1 -32.5 -4t-17 -10.5t-7 -21.5t-1.5 -38v-352q0 -72 16 -121.5t44 -80t66.5 -44t84.5 -13.5q49 0 89.5 13.5t69 43.5t44 79t15.5 120
v244q0 64 -1 100.5t-7 55t-19 23.5t-37 7l-37 2v34h257v-34l-37 -2q-24 -2 -37.5 -7t-19.5 -23.5t-7 -55t-1 -100.5v-243q0 -81 -20 -139t-57.5 -95t-91 -54.5t-121.5 -17.5zM577 969l-241 -126h-21l103 129h159v-3zM777 969l-241 -126h-21l103 129h159v-3z" />
    <glyph glyph-name="Umacron" unicode="&#x16a;" horiz-adv-x="843" 
d="M423 -13q-71 0 -126 16.5t-93 53.5t-58 95.5t-20 142.5v352q0 24 -1.5 38t-7 21.5t-17 10.5t-32.5 4l-36 2v35h292v-35l-36 -2q-21 -1 -32.5 -4t-17 -10.5t-7 -21.5t-1.5 -38v-352q0 -72 16 -121.5t44 -80t66.5 -44t84.5 -13.5q49 0 89.5 13.5t69 43.5t44 79t15.5 120
v244q0 64 -1 100.5t-7 55t-19 23.5t-37 7l-37 2v34h257v-34l-37 -2q-24 -2 -37.5 -7t-19.5 -23.5t-7 -55t-1 -100.5v-243q0 -81 -20 -139t-57.5 -95t-91 -54.5t-121.5 -17.5zM295 939h294v-65h-294v65z" />
    <glyph glyph-name="Uogonek" unicode="&#x172;" horiz-adv-x="843" 
d="M423 -13q-71 0 -126 16.5t-93 53.5t-58 95.5t-20 142.5v352q0 24 -1.5 38t-7 21.5t-17 10.5t-32.5 4l-36 2v35h292v-35l-36 -2q-21 -1 -32.5 -4t-17 -10.5t-7 -21.5t-1.5 -38v-352q0 -72 16 -121.5t44 -80t66.5 -44t84.5 -13.5q49 0 89.5 13.5t69 43.5t44 79t15.5 120
v244q0 64 -1 100.5t-7 55t-19 23.5t-37 7l-37 2v34h257v-34l-37 -2q-24 -2 -37.5 -7t-19.5 -23.5t-7 -55t-1 -100.5v-243q0 -146 -62 -218t-172 -85q-23 -23 -41.5 -53t-18.5 -62q0 -23 10.5 -36.5t27.5 -19.5t40 -5.5t47 6.5v-27q-17 -8 -45 -17.5t-57 -9.5
q-42 0 -71.5 21.5t-29.5 63.5q0 17 9 35t23.5 35.5t32.5 34t36 31.5h-19z" />
    <glyph glyph-name="Uring" unicode="&#x16e;" horiz-adv-x="843" 
d="M423 -13q-71 0 -126 16.5t-93 53.5t-58 95.5t-20 142.5v352q0 24 -1.5 38t-7 21.5t-17 10.5t-32.5 4l-36 2v35h292v-35l-36 -2q-21 -1 -32.5 -4t-17 -10.5t-7 -21.5t-1.5 -38v-352q0 -72 16 -121.5t44 -80t66.5 -44t84.5 -13.5q49 0 89.5 13.5t69 43.5t44 79t15.5 120
v244q0 64 -1 100.5t-7 55t-19 23.5t-37 7l-37 2v34h257v-34l-37 -2q-24 -2 -37.5 -7t-19.5 -23.5t-7 -55t-1 -100.5v-243q0 -81 -20 -139t-57.5 -95t-91 -54.5t-121.5 -17.5zM318 964q0 25 9.5 46.5t26.5 38t39 26t48 9.5t49 -9.5t40 -26t26.5 -38t9.5 -46.5t-9.5 -46.5
t-26.5 -37.5t-40 -25t-49 -9t-48 9t-39 25t-26.5 37.5t-9.5 46.5zM511 964q0 32 -18.5 51t-51.5 19q-32 0 -50 -19t-18 -51t18 -51t50 -19q33 0 51.5 19t18.5 51z" />
    <glyph glyph-name="Utilde" unicode="&#x168;" horiz-adv-x="843" 
d="M423 -13q-71 0 -126 16.5t-93 53.5t-58 95.5t-20 142.5v352q0 24 -1.5 38t-7 21.5t-17 10.5t-32.5 4l-36 2v35h292v-35l-36 -2q-21 -1 -32.5 -4t-17 -10.5t-7 -21.5t-1.5 -38v-352q0 -72 16 -121.5t44 -80t66.5 -44t84.5 -13.5q49 0 89.5 13.5t69 43.5t44 79t15.5 120
v244q0 64 -1 100.5t-7 55t-19 23.5t-37 7l-37 2v34h257v-34l-37 -2q-24 -2 -37.5 -7t-19.5 -23.5t-7 -55t-1 -100.5v-243q0 -81 -20 -139t-57.5 -95t-91 -54.5t-121.5 -17.5zM271 833q0 23 5.5 48t17.5 46t30 34.5t43 13.5q21 0 44 -10t45.5 -21.5t43 -21.5t37.5 -10
q27 0 40 14t15 46h21q0 -41 -8 -67t-20.5 -42t-28 -22t-31.5 -6q-25 0 -48.5 10t-45.5 21.5t-42.5 21.5t-40.5 10q-24 0 -39 -17t-17 -48h-21z" />
    <glyph glyph-name="uni1EE4" unicode="&#x1ee4;" horiz-adv-x="843" 
d="M423 -13q-71 0 -126 16.5t-93 53.5t-58 95.5t-20 142.5v352q0 24 -1.5 38t-7 21.5t-17 10.5t-32.5 4l-36 2v35h292v-35l-36 -2q-21 -1 -32.5 -4t-17 -10.5t-7 -21.5t-1.5 -38v-352q0 -72 16 -121.5t44 -80t66.5 -44t84.5 -13.5q49 0 89.5 13.5t69 43.5t44 79t15.5 120
v244q0 64 -1 100.5t-7 55t-19 23.5t-37 7l-37 2v34h257v-34l-37 -2q-24 -2 -37.5 -7t-19.5 -23.5t-7 -55t-1 -100.5v-243q0 -81 -20 -139t-57.5 -95t-91 -54.5t-121.5 -17.5zM436 -244q-26 0 -43 17t-17 43q0 27 17 44.5t43 17.5t43 -17.5t17 -44.5q0 -26 -17 -43t-43 -17z
" />
    <glyph glyph-name="Wacute" unicode="&#x1e82;" horiz-adv-x="1120" 
d="M81 677q-6 15 -11 23.5t-11 13t-14.5 5.5t-21.5 2l-33 2v35h282v-35l-48 -2q-14 -1 -22.5 -2.5t-12 -6.5t-1.5 -15.5t9 -28.5l203 -528l142 384l-82 234h223v-35l-48 -2q-14 -1 -22 -2t-11 -6.5t-1.5 -15.5t7.5 -29l169 -528l176 475q12 31 16.5 51t2 31.5t-12.5 16.5
t-27 6l-44 3v35h245v-35l-23 -2q-22 -2 -35 -5.5t-23 -14.5t-19 -31.5t-23 -56.5l-244 -636h-32l-165 469l-180 -469h-32zM785 969l-241 -126h-21l103 129h159v-3z" />
    <glyph glyph-name="Wcircumflex" unicode="&#x174;" horiz-adv-x="1120" 
d="M81 677q-6 15 -11 23.5t-11 13t-14.5 5.5t-21.5 2l-33 2v35h282v-35l-48 -2q-14 -1 -22.5 -2.5t-12 -6.5t-1.5 -15.5t9 -28.5l203 -528l142 384l-82 234h223v-35l-48 -2q-14 -1 -22 -2t-11 -6.5t-1.5 -15.5t7.5 -29l169 -528l176 475q12 31 16.5 51t2 31.5t-12.5 16.5
t-27 6l-44 3v35h245v-35l-23 -2q-22 -2 -35 -5.5t-23 -14.5t-19 -31.5t-23 -56.5l-244 -636h-32l-165 469l-180 -469h-32zM569 986l165 -153h-23l-150 66l-150 -66h-23l165 153h16z" />
    <glyph glyph-name="Wdieresis" unicode="&#x1e84;" horiz-adv-x="1120" 
d="M81 677q-6 15 -11 23.5t-11 13t-14.5 5.5t-21.5 2l-33 2v35h282v-35l-48 -2q-14 -1 -22.5 -2.5t-12 -6.5t-1.5 -15.5t9 -28.5l203 -528l142 384l-82 234h223v-35l-48 -2q-14 -1 -22 -2t-11 -6.5t-1.5 -15.5t7.5 -29l169 -528l176 475q12 31 16.5 51t2 31.5t-12.5 16.5
t-27 6l-44 3v35h245v-35l-23 -2q-22 -2 -35 -5.5t-23 -14.5t-19 -31.5t-23 -56.5l-244 -636h-32l-165 469l-180 -469h-32zM433 846q-26 0 -43 17t-17 43q0 27 17 44.5t43 17.5t43 -17.5t17 -44.5q0 -26 -17 -43t-43 -17zM689 846q-26 0 -43 17t-17 43q0 27 17 44.5t43 17.5
t43 -17.5t17 -44.5q0 -26 -17 -43t-43 -17z" />
    <glyph glyph-name="Wgrave" unicode="&#x1e80;" horiz-adv-x="1120" 
d="M81 677q-6 15 -11 23.5t-11 13t-14.5 5.5t-21.5 2l-33 2v35h282v-35l-48 -2q-14 -1 -22.5 -2.5t-12 -6.5t-1.5 -15.5t9 -28.5l203 -528l142 384l-82 234h223v-35l-48 -2q-14 -1 -22 -2t-11 -6.5t-1.5 -15.5t7.5 -29l169 -528l176 475q12 31 16.5 51t2 31.5t-12.5 16.5
t-27 6l-44 3v35h245v-35l-23 -2q-22 -2 -35 -5.5t-23 -14.5t-19 -31.5t-23 -56.5l-244 -636h-32l-165 469l-180 -469h-32zM515 972l103 -129h-21l-241 126v3h159z" />
    <glyph glyph-name="Ycircumflex" unicode="&#x176;" horiz-adv-x="741" 
d="M202 37l42 1q26 1 40.5 2.5t21.5 8.5t8.5 21.5t1.5 40.5v222l-229 364q-8 14 -16 18t-34 6l-33 2v35h289v-35l-48 -2q-28 -2 -38 -8t4 -28l190 -301l151 231q36 55 36 80t-43 26l-39 2v35h245v-35l-33 -2q-16 0 -27 -5t-22.5 -17t-26 -33t-35.5 -53l-187 -282v-220
q0 -26 1.5 -40.5t8.5 -21.5t21.5 -8.5t40.5 -2.5l42 -1v-37h-332v37zM403 986l165 -153h-23l-150 66l-150 -66h-23l165 153h16z" />
    <glyph glyph-name="Ydieresis" unicode="&#x178;" horiz-adv-x="741" 
d="M202 37l42 1q26 1 40.5 2.5t21.5 8.5t8.5 21.5t1.5 40.5v222l-229 364q-8 14 -16 18t-34 6l-33 2v35h289v-35l-48 -2q-28 -2 -38 -8t4 -28l190 -301l151 231q36 55 36 80t-43 26l-39 2v35h245v-35l-33 -2q-16 0 -27 -5t-22.5 -17t-26 -33t-35.5 -53l-187 -282v-220
q0 -26 1.5 -40.5t8.5 -21.5t21.5 -8.5t40.5 -2.5l42 -1v-37h-332v37zM267 846q-26 0 -43 17t-17 43q0 27 17 44.5t43 17.5t43 -17.5t17 -44.5q0 -26 -17 -43t-43 -17zM523 846q-26 0 -43 17t-17 43q0 27 17 44.5t43 17.5t43 -17.5t17 -44.5q0 -26 -17 -43t-43 -17z" />
    <glyph glyph-name="Ygrave" unicode="&#x1ef2;" horiz-adv-x="741" 
d="M202 37l42 1q26 1 40.5 2.5t21.5 8.5t8.5 21.5t1.5 40.5v222l-229 364q-8 14 -16 18t-34 6l-33 2v35h289v-35l-48 -2q-28 -2 -38 -8t4 -28l190 -301l151 231q36 55 36 80t-43 26l-39 2v35h245v-35l-33 -2q-16 0 -27 -5t-22.5 -17t-26 -33t-35.5 -53l-187 -282v-220
q0 -26 1.5 -40.5t8.5 -21.5t21.5 -8.5t40.5 -2.5l42 -1v-37h-332v37zM349 972l103 -129h-21l-241 126v3h159z" />
    <glyph glyph-name="uni0232" unicode="&#x232;" horiz-adv-x="741" 
d="M202 37l42 1q26 1 40.5 2.5t21.5 8.5t8.5 21.5t1.5 40.5v222l-229 364q-8 14 -16 18t-34 6l-33 2v35h289v-35l-48 -2q-28 -2 -38 -8t4 -28l190 -301l151 231q36 55 36 80t-43 26l-39 2v35h245v-35l-33 -2q-16 0 -27 -5t-22.5 -17t-26 -33t-35.5 -53l-187 -282v-220
q0 -26 1.5 -40.5t8.5 -21.5t21.5 -8.5t40.5 -2.5l42 -1v-37h-332v37zM248 939h294v-65h-294v65z" />
    <glyph glyph-name="Zacute" unicode="&#x179;" horiz-adv-x="745" 
d="M567 718h-192q-72 0 -114.5 -3.5t-67 -13t-38 -26t-28.5 -43.5l-41 -73h-30l59 230h8q14 -10 30.5 -16t40.5 -9.5t58 -4.5t82 -1h386l-558 -718h228q72 0 114.5 3.5t67 13t38 26t28.5 43.5l41 73h30l-51 -199h-649zM636 969l-241 -126h-21l103 129h159v-3z" />
    <glyph glyph-name="Zcaron" unicode="&#x17d;" horiz-adv-x="745" 
d="M567 718h-192q-72 0 -114.5 -3.5t-67 -13t-38 -26t-28.5 -43.5l-41 -73h-30l59 230h8q14 -10 30.5 -16t40.5 -9.5t58 -4.5t82 -1h386l-558 -718h228q72 0 114.5 3.5t67 13t38 26t28.5 43.5l41 73h30l-51 -199h-649zM238 986h23l150 -66l150 66h23l-165 -153h-16z" />
    <glyph glyph-name="Zdotaccent" unicode="&#x17b;" horiz-adv-x="745" 
d="M567 718h-192q-72 0 -114.5 -3.5t-67 -13t-38 -26t-28.5 -43.5l-41 -73h-30l59 230h8q14 -10 30.5 -16t40.5 -9.5t58 -4.5t82 -1h386l-558 -718h228q72 0 114.5 3.5t67 13t38 26t28.5 43.5l41 73h30l-51 -199h-649zM412 846q-26 0 -43 17t-17 43q0 27 17 44.5t43 17.5
t43 -17.5t17 -44.5q0 -26 -17 -43t-43 -17z" />
    <glyph glyph-name="uni018F" unicode="&#x18f;" horiz-adv-x="793" 
d="M380 -13q-66 0 -124 21t-103.5 62.5t-74.5 101.5t-36 138h582q1 11 1.5 21.5t0.5 20.5q0 77 -17.5 142t-52 112.5t-86 74.5t-119.5 27q-36 0 -72.5 -6.5t-72.5 -24t-69 -49t-61 -81.5l-31 14q24 58 59.5 101t79 70.5t92.5 41t99 13.5q90 0 159 -30.5t115.5 -84.5
t70 -127.5t23.5 -158.5q0 -89 -28 -162.5t-77 -126t-115.5 -81.5t-142.5 -29zM393 27q53 0 93 22t68.5 57.5t44.5 78.5t21 85h-455q6 -64 27.5 -110t53.5 -75.5t70 -43.5t77 -14z" />
    <glyph glyph-name="abreve" unicode="&#x103;" horiz-adv-x="527" 
d="M202 -13q-29 0 -56.5 11t-50 29.5t-36 43.5t-13.5 54q0 28 11.5 49t33.5 38t54.5 31.5t74.5 30.5q16 6 34 14t34.5 17.5t29.5 19.5t20 20v32q0 25 -9 43.5t-23.5 30.5t-32.5 18t-36 6q-32 0 -52.5 -10t-32.5 -26.5t-16.5 -39.5t-4.5 -48q-6 -3 -14 -4t-14 -1h-2
q-24 0 -38.5 12.5t-14.5 35.5q0 20 22 39.5t64 37.5q35 15 75.5 32t78.5 17q30 0 55.5 -6.5t44 -22.5t28.5 -43t9 -69l-5 -288q-1 -26 2.5 -32t20.5 -6t31.5 1t29.5 3l4 -30l-30 -12q-6 -3 -17 -7t-23 -7.5t-24 -6.5t-21 -3q-25 0 -36 14.5t-19 48.5q-16 -13 -33 -25.5
t-36 -23.5q-15 -8 -32 -13t-35 -5zM251 40q27 0 50.5 15t30.5 36l5 211q-18 -12 -39 -23t-41 -22q-21 -11 -41.5 -23t-36 -26t-25 -30.5t-9.5 -37.5q0 -26 10 -45t26 -31t34.5 -18t35.5 -6zM268 628q-30 0 -57 8t-49 27t-37 49.5t-20 75.5h54q7 -60 37 -86t72 -26t72 26
t37 86h54q-5 -45 -20 -75.5t-37 -49.5t-49 -27t-57 -8z" />
    <glyph glyph-name="amacron" unicode="&#x101;" horiz-adv-x="527" 
d="M202 -13q-29 0 -56.5 11t-50 29.5t-36 43.5t-13.5 54q0 28 11.5 49t33.5 38t54.5 31.5t74.5 30.5q16 6 34 14t34.5 17.5t29.5 19.5t20 20v32q0 25 -9 43.5t-23.5 30.5t-32.5 18t-36 6q-32 0 -52.5 -10t-32.5 -26.5t-16.5 -39.5t-4.5 -48q-6 -3 -14 -4t-14 -1h-2
q-24 0 -38.5 12.5t-14.5 35.5q0 20 22 39.5t64 37.5q35 15 75.5 32t78.5 17q30 0 55.5 -6.5t44 -22.5t28.5 -43t9 -69l-5 -288q-1 -26 2.5 -32t20.5 -6t31.5 1t29.5 3l4 -30l-30 -12q-6 -3 -17 -7t-23 -7.5t-24 -6.5t-21 -3q-25 0 -36 14.5t-19 48.5q-16 -13 -33 -25.5
t-36 -23.5q-15 -8 -32 -13t-35 -5zM251 40q27 0 50.5 15t30.5 36l5 211q-18 -12 -39 -23t-41 -22q-21 -11 -41.5 -23t-36 -26t-25 -30.5t-9.5 -37.5q0 -26 10 -45t26 -31t34.5 -18t35.5 -6zM121 735h294v-65h-294v65z" />
    <glyph glyph-name="aogonek" unicode="&#x105;" horiz-adv-x="527" 
d="M202 -13q-29 0 -56.5 11t-50 29.5t-36 43.5t-13.5 54q0 28 11.5 49t33.5 38t54.5 31.5t74.5 30.5q16 6 34 14t34.5 17.5t29.5 19.5t20 20v32q0 25 -9 43.5t-23.5 30.5t-32.5 18t-36 6q-32 0 -52.5 -10t-32.5 -26.5t-16.5 -39.5t-4.5 -48q-6 -3 -14 -4t-14 -1h-2
q-24 0 -38.5 12.5t-14.5 35.5q0 20 22 39.5t64 37.5q35 15 75.5 32t78.5 17q30 0 55.5 -6.5t44 -22.5t28.5 -43t9 -69l-5 -288q-1 -26 2.5 -32t20.5 -6t31.5 1t29.5 3l4 -30l-30 -12q-8 -4 -22 -9t-29 -9q-26 -23 -46.5 -55.5t-20.5 -66.5q0 -23 10.5 -36.5t27.5 -19.5
t40 -5.5t47 6.5v-27q-17 -8 -45 -17.5t-57 -9.5q-42 0 -71.5 21.5t-29.5 63.5q0 18 9.5 36.5t25 36.5t34.5 35t37 32q-23 2 -33 16.5t-17 46.5q-16 -13 -33 -25.5t-36 -23.5q-15 -8 -32 -13t-35 -5zM251 40q27 0 50.5 15t30.5 36l5 211q-18 -12 -39 -23t-41 -22
q-21 -11 -41.5 -23t-36 -26t-25 -30.5t-9.5 -37.5q0 -26 10 -45t26 -31t34.5 -18t35.5 -6z" />
    <glyph glyph-name="cacute" unicode="&#x107;" horiz-adv-x="511" 
d="M281 -13q-54 0 -98.5 20.5t-75.5 55t-48 81t-17 98.5q0 60 21.5 111t58.5 87.5t87.5 57t108.5 20.5q26 0 52 -4t46.5 -12t33.5 -22t13 -33q0 -26 -16 -42.5t-45 -13.5q-20 36 -51.5 59t-77.5 23q-27 0 -53 -12t-46.5 -35t-32.5 -56.5t-12 -75.5q0 -46 15 -87t40.5 -72
t60.5 -49t75 -18q43 0 76.5 10.5t72.5 34.5l17 -27l-43 -34q-31 -24 -71 -44.5t-91 -20.5zM357 788h121v-3l-210 -176h-16z" />
    <glyph glyph-name="ccaron" unicode="&#x10d;" horiz-adv-x="511" 
d="M281 -13q-54 0 -98.5 20.5t-75.5 55t-48 81t-17 98.5q0 60 21.5 111t58.5 87.5t87.5 57t108.5 20.5q26 0 52 -4t46.5 -12t33.5 -22t13 -33q0 -26 -16 -42.5t-45 -13.5q-20 36 -51.5 59t-77.5 23q-27 0 -53 -12t-46.5 -35t-32.5 -56.5t-12 -75.5q0 -46 15 -87t40.5 -72
t60.5 -49t75 -18q43 0 76.5 10.5t72.5 34.5l17 -27l-43 -34q-31 -24 -71 -44.5t-91 -20.5zM290 609l-158 196h19l145 -98l145 98h19l-158 -196h-12z" />
    <glyph glyph-name="ccircumflex" unicode="&#x109;" horiz-adv-x="511" 
d="M281 -13q-54 0 -98.5 20.5t-75.5 55t-48 81t-17 98.5q0 60 21.5 111t58.5 87.5t87.5 57t108.5 20.5q26 0 52 -4t46.5 -12t33.5 -22t13 -33q0 -26 -16 -42.5t-45 -13.5q-20 36 -51.5 59t-77.5 23q-27 0 -53 -12t-46.5 -35t-32.5 -56.5t-12 -75.5q0 -46 15 -87t40.5 -72
t60.5 -49t75 -18q43 0 76.5 10.5t72.5 34.5l17 -27l-43 -34q-31 -24 -71 -44.5t-91 -20.5zM460 609h-19l-145 98l-145 -98h-19l158 197h12z" />
    <glyph glyph-name="cdotaccent" unicode="&#x10b;" horiz-adv-x="511" 
d="M281 -13q-54 0 -98.5 20.5t-75.5 55t-48 81t-17 98.5q0 60 21.5 111t58.5 87.5t87.5 57t108.5 20.5q26 0 52 -4t46.5 -12t33.5 -22t13 -33q0 -26 -16 -42.5t-45 -13.5q-20 36 -51.5 59t-77.5 23q-27 0 -53 -12t-46.5 -35t-32.5 -56.5t-12 -75.5q0 -46 15 -87t40.5 -72
t60.5 -49t75 -18q43 0 76.5 10.5t72.5 34.5l17 -27l-43 -34q-31 -24 -71 -44.5t-91 -20.5zM296 647q-23 0 -40 16t-17 42q0 25 17 41.5t40 16.5q25 0 41.5 -16.5t16.5 -41.5q0 -26 -16.5 -42t-41.5 -16z" />
    <glyph glyph-name="dcaron" unicode="&#x10f;" horiz-adv-x="649" 
d="M590 38q-48 -8 -87 -21.5t-79 -30.5v71q-20 -15 -42.5 -28.5t-43.5 -24.5q-15 -8 -33 -12.5t-41 -4.5q-46 0 -86.5 18.5t-70.5 51.5t-47.5 79t-17.5 101q0 64 26 116t67.5 88.5t93 56.5t101.5 20q25 0 48.5 -3t41.5 -7v181q0 20 -2.5 25.5t-18.5 12.5l-75 31v6l186 66
v-733q0 -12 3 -19.5t20 -7.5h57v-32zM316 44q31 -2 58 11.5t46 31.5v307q0 42 -32 65t-80 23q-27 0 -56 -11.5t-53.5 -36t-40.5 -62.5t-16 -91q0 -55 15 -98.5t39.5 -74t55.5 -47t64 -17.5zM630 837q20 0 39 -7.5t33.5 -22t23.5 -35t9 -46.5q0 -44 -35 -91t-108 -79l-10 21
q48 24 67.5 55t19.5 66t-24.5 55t-66.5 27q-2 24 12.5 40.5t39.5 16.5z" />
    <glyph glyph-name="dcroat" unicode="&#x111;" horiz-adv-x="615" 
d="M590 38q-48 -8 -87 -21.5t-79 -30.5v71q-20 -15 -42.5 -28.5t-43.5 -24.5q-15 -8 -33 -12.5t-41 -4.5q-46 0 -86.5 18.5t-70.5 51.5t-47.5 79t-17.5 101q0 64 26 116t67.5 88.5t93 56.5t101.5 20q25 0 48.5 -3t41.5 -7v181q0 20 -2.5 25.5t-18.5 12.5l-75 31v6l186 66
v-733q0 -12 3 -19.5t20 -7.5h57v-32zM316 44q31 -2 58 11.5t46 31.5v307q0 42 -32 65t-80 23q-27 0 -56 -11.5t-53.5 -36t-40.5 -62.5t-16 -91q0 -55 15 -98.5t39.5 -74t55.5 -47t64 -17.5zM294 653h296v-43h-296v43z" />
    <glyph glyph-name="ebreve" unicode="&#x115;" horiz-adv-x="530" 
d="M272 -13q-39 0 -79.5 16.5t-73.5 50t-54 83.5t-21 116q0 56 17.5 104.5t47.5 84t71 56t89 20.5q54 0 92.5 -17.5t65 -46.5t41 -66t20.5 -77h-352v-7q0 -56 15.5 -100.5t41.5 -75.5t61 -48t73 -17q28 0 51 8t41 19.5t30.5 23t19.5 19.5l23 -24l-18 -19q-50 -52 -96 -77.5
t-106 -25.5zM265 486q-32 0 -54.5 -12.5t-37.5 -32.5t-23 -44.5t-11 -48.5h241q-3 30 -10.5 55t-21 43.5t-34.5 29t-49 10.5zM273 628q-30 0 -57 8t-49 27t-37 49.5t-20 75.5h54q7 -60 37 -86t72 -26t72 26t37 86h54q-5 -45 -20 -75.5t-37 -49.5t-49 -27t-57 -8z" />
    <glyph glyph-name="ecaron" unicode="&#x11b;" horiz-adv-x="530" 
d="M272 -13q-39 0 -79.5 16.5t-73.5 50t-54 83.5t-21 116q0 56 17.5 104.5t47.5 84t71 56t89 20.5q54 0 92.5 -17.5t65 -46.5t41 -66t20.5 -77h-352v-7q0 -56 15.5 -100.5t41.5 -75.5t61 -48t73 -17q28 0 51 8t41 19.5t30.5 23t19.5 19.5l23 -24l-18 -19q-50 -52 -96 -77.5
t-106 -25.5zM265 486q-32 0 -54.5 -12.5t-37.5 -32.5t-23 -44.5t-11 -48.5h241q-3 30 -10.5 55t-21 43.5t-34.5 29t-49 10.5zM267 609l-158 196h19l145 -98l145 98h19l-158 -196h-12z" />
    <glyph glyph-name="emacron" unicode="&#x113;" horiz-adv-x="530" 
d="M272 -13q-39 0 -79.5 16.5t-73.5 50t-54 83.5t-21 116q0 56 17.5 104.5t47.5 84t71 56t89 20.5q54 0 92.5 -17.5t65 -46.5t41 -66t20.5 -77h-352v-7q0 -56 15.5 -100.5t41.5 -75.5t61 -48t73 -17q28 0 51 8t41 19.5t30.5 23t19.5 19.5l23 -24l-18 -19q-50 -52 -96 -77.5
t-106 -25.5zM265 486q-32 0 -54.5 -12.5t-37.5 -32.5t-23 -44.5t-11 -48.5h241q-3 30 -10.5 55t-21 43.5t-34.5 29t-49 10.5zM126 735h294v-65h-294v65z" />
    <glyph glyph-name="eogonek" unicode="&#x119;" horiz-adv-x="530" 
d="M400 -207q-17 -8 -45 -17.5t-57 -9.5q-42 0 -71.5 21.5t-29.5 63.5q0 18 9 36t24 35.5t35 34.5t43 32q-7 -1 -17.5 -1.5t-18.5 -0.5q-39 0 -79.5 16.5t-73.5 50t-54 83.5t-21 116q0 56 17.5 104.5t47.5 84t71 56t89 20.5q54 0 92.5 -17.5t65 -46.5t41 -66t20.5 -77h-352
v-7q0 -56 15.5 -100.5t41.5 -75.5t61 -48t73 -17q28 0 51 8t41 19.5t30.5 23t19.5 19.5l23 -24l-18 -19q-29 -32 -59.5 -52t-57.5 -39q-35 -24 -58.5 -56t-23.5 -68q0 -23 10.5 -36.5t27.5 -19.5t40 -5.5t47 6.5v-27zM265 486q-32 0 -54.5 -12.5t-37.5 -32.5t-23 -44.5
t-11 -48.5h241q-3 30 -10.5 55t-21 43.5t-34.5 29t-49 10.5z" />
    <glyph glyph-name="edotaccent" unicode="&#x117;" horiz-adv-x="530" 
d="M272 -13q-39 0 -79.5 16.5t-73.5 50t-54 83.5t-21 116q0 56 17.5 104.5t47.5 84t71 56t89 20.5q54 0 92.5 -17.5t65 -46.5t41 -66t20.5 -77h-352v-7q0 -56 15.5 -100.5t41.5 -75.5t61 -48t73 -17q28 0 51 8t41 19.5t30.5 23t19.5 19.5l23 -24l-18 -19q-50 -52 -96 -77.5
t-106 -25.5zM265 486q-32 0 -54.5 -12.5t-37.5 -32.5t-23 -44.5t-11 -48.5h241q-3 30 -10.5 55t-21 43.5t-34.5 29t-49 10.5zM273 647q-23 0 -40 16t-17 42q0 25 17 41.5t40 16.5q25 0 41.5 -16.5t16.5 -41.5q0 -26 -16.5 -42t-41.5 -16z" />
    <glyph glyph-name="gbreve" unicode="&#x11f;" horiz-adv-x="548" 
d="M253 164q-26 0 -50.5 5t-45.5 13l-8 -85q-1 -9 0.5 -14t6.5 -8t16 -3.5t29 -0.5h110q110 0 158 -31t48 -95q0 -41 -21 -79t-57.5 -67.5t-85.5 -47.5t-105 -18q-54 0 -96.5 11t-72 30t-45 42.5t-15.5 49.5q0 19 8.5 38.5t27.5 30.5q27 17 49.5 30t54.5 29q-42 1 -68 20
t-26 45q0 14 10 30t21 33l46 68q-44 23 -69 61.5t-25 86.5q0 37 15.5 70t43 57.5t65.5 38.5t84 14q41 0 75.5 -10.5t60.5 -28.5l144 67v-72q0 -12 -7 -16.5t-27 -2.5l-92 9q24 -23 37.5 -53t13.5 -65q0 -37 -15.5 -70t-43 -58t-66 -39.5t-83.5 -14.5zM261 194q21 0 39.5 7.5
t33 24t23 41.5t8.5 60q0 30 -8.5 58.5t-23.5 51t-37 36.5t-49 14q-21 0 -39.5 -7.5t-33 -24t-23 -41.5t-8.5 -60q0 -30 8.5 -58.5t23.5 -51t37 -36.5t49 -14zM274 -228q34 0 64.5 8.5t53 23.5t35.5 36.5t13 48.5q0 51 -36 78.5t-120 27.5h-33q-33 0 -60 -10t-45.5 -25.5
t-28.5 -33.5t-10 -33q0 -26 15 -48.5t38.5 -38.5t53.5 -25t60 -9zM271 628q-30 0 -57 8t-49 27t-37 49.5t-20 75.5h54q7 -60 37 -86t72 -26t72 26t37 86h54q-5 -45 -20 -75.5t-37 -49.5t-49 -27t-57 -8z" />
    <glyph glyph-name="gcircumflex" unicode="&#x11d;" horiz-adv-x="548" 
d="M253 164q-26 0 -50.5 5t-45.5 13l-8 -85q-1 -9 0.5 -14t6.5 -8t16 -3.5t29 -0.5h110q110 0 158 -31t48 -95q0 -41 -21 -79t-57.5 -67.5t-85.5 -47.5t-105 -18q-54 0 -96.5 11t-72 30t-45 42.5t-15.5 49.5q0 19 8.5 38.5t27.5 30.5q27 17 49.5 30t54.5 29q-42 1 -68 20
t-26 45q0 14 10 30t21 33l46 68q-44 23 -69 61.5t-25 86.5q0 37 15.5 70t43 57.5t65.5 38.5t84 14q41 0 75.5 -10.5t60.5 -28.5l144 67v-72q0 -12 -7 -16.5t-27 -2.5l-92 9q24 -23 37.5 -53t13.5 -65q0 -37 -15.5 -70t-43 -58t-66 -39.5t-83.5 -14.5zM261 194q21 0 39.5 7.5
t33 24t23 41.5t8.5 60q0 30 -8.5 58.5t-23.5 51t-37 36.5t-49 14q-21 0 -39.5 -7.5t-33 -24t-23 -41.5t-8.5 -60q0 -30 8.5 -58.5t23.5 -51t37 -36.5t49 -14zM274 -228q34 0 64.5 8.5t53 23.5t35.5 36.5t13 48.5q0 51 -36 78.5t-120 27.5h-33q-33 0 -60 -10t-45.5 -25.5
t-28.5 -33.5t-10 -33q0 -26 15 -48.5t38.5 -38.5t53.5 -25t60 -9zM435 609h-19l-145 98l-145 -98h-19l158 197h12z" />
    <glyph glyph-name="uni0123" unicode="&#x123;" horiz-adv-x="548" 
d="M253 164q-26 0 -50.5 5t-45.5 13l-8 -85q-1 -9 0.5 -14t6.5 -8t16 -3.5t29 -0.5h110q110 0 158 -31t48 -95q0 -41 -21 -79t-57.5 -67.5t-85.5 -47.5t-105 -18q-54 0 -96.5 11t-72 30t-45 42.5t-15.5 49.5q0 19 8.5 38.5t27.5 30.5q27 17 49.5 30t54.5 29q-42 1 -68 20
t-26 45q0 14 10 30t21 33l46 68q-44 23 -69 61.5t-25 86.5q0 37 15.5 70t43 57.5t65.5 38.5t84 14q41 0 75.5 -10.5t60.5 -28.5l144 67v-72q0 -12 -7 -16.5t-27 -2.5l-92 9q24 -23 37.5 -53t13.5 -65q0 -37 -15.5 -70t-43 -58t-66 -39.5t-83.5 -14.5zM261 194q21 0 39.5 7.5
t33 24t23 41.5t8.5 60q0 30 -8.5 58.5t-23.5 51t-37 36.5t-49 14q-21 0 -39.5 -7.5t-33 -24t-23 -41.5t-8.5 -60q0 -30 8.5 -58.5t23.5 -51t37 -36.5t49 -14zM274 -228q34 0 64.5 8.5t53 23.5t35.5 36.5t13 48.5q0 51 -36 78.5t-120 27.5h-33q-33 0 -60 -10t-45.5 -25.5
t-28.5 -33.5t-10 -33q0 -26 15 -48.5t38.5 -38.5t53.5 -25t60 -9zM290 598q-20 0 -39 7.5t-33.5 22t-23.5 35t-9 46.5q0 44 35 91t108 79l10 -21q-48 -24 -67.5 -55t-19.5 -66t24.5 -55t66.5 -27q2 -24 -12.5 -40.5t-39.5 -16.5z" />
    <glyph glyph-name="gdotaccent" unicode="&#x121;" horiz-adv-x="548" 
d="M253 164q-26 0 -50.5 5t-45.5 13l-8 -85q-1 -9 0.5 -14t6.5 -8t16 -3.5t29 -0.5h110q110 0 158 -31t48 -95q0 -41 -21 -79t-57.5 -67.5t-85.5 -47.5t-105 -18q-54 0 -96.5 11t-72 30t-45 42.5t-15.5 49.5q0 19 8.5 38.5t27.5 30.5q27 17 49.5 30t54.5 29q-42 1 -68 20
t-26 45q0 14 10 30t21 33l46 68q-44 23 -69 61.5t-25 86.5q0 37 15.5 70t43 57.5t65.5 38.5t84 14q41 0 75.5 -10.5t60.5 -28.5l144 67v-72q0 -12 -7 -16.5t-27 -2.5l-92 9q24 -23 37.5 -53t13.5 -65q0 -37 -15.5 -70t-43 -58t-66 -39.5t-83.5 -14.5zM261 194q21 0 39.5 7.5
t33 24t23 41.5t8.5 60q0 30 -8.5 58.5t-23.5 51t-37 36.5t-49 14q-21 0 -39.5 -7.5t-33 -24t-23 -41.5t-8.5 -60q0 -30 8.5 -58.5t23.5 -51t37 -36.5t49 -14zM274 -228q34 0 64.5 8.5t53 23.5t35.5 36.5t13 48.5q0 51 -36 78.5t-120 27.5h-33q-33 0 -60 -10t-45.5 -25.5
t-28.5 -33.5t-10 -33q0 -26 15 -48.5t38.5 -38.5t53.5 -25t60 -9zM271 647q-23 0 -40 16t-17 42q0 25 17 41.5t40 16.5q25 0 41.5 -16.5t16.5 -41.5q0 -26 -16.5 -42t-41.5 -16z" />
    <glyph glyph-name="hbar" unicode="&#x127;" horiz-adv-x="615" 
d="M341 35l42 2q26 2 32 10t6 24v239q0 70 -24.5 108t-84.5 38q-38 0 -69 -16.5t-48 -40.5v-328q0 -16 6 -24t32 -10l42 -2v-35h-250v35l42 2q26 2 32 10t6 24v618q0 20 -2.5 25.5t-18.5 12.5l-75 31v6l186 66v-393q20 15 42.5 30t41.5 26q15 9 39 17t54 8q32 0 58 -7.5
t44 -26.5t27.5 -53t9.5 -86v-274q0 -16 6 -24t32 -10l42 -2v-35h-250v35zM9 653h296v-43h-296v43z" />
    <glyph glyph-name="hcircumflex" unicode="&#x125;" horiz-adv-x="615" 
d="M341 35l42 2q26 2 32 10t6 24v239q0 70 -24.5 108t-84.5 38q-38 0 -69 -16.5t-48 -40.5v-328q0 -16 6 -24t32 -10l42 -2v-35h-250v35l42 2q26 2 32 10t6 24v618q0 20 -2.5 25.5t-18.5 12.5l-75 31v6l186 66v-393q20 15 42.5 30t41.5 26q15 9 39 17t54 8q32 0 58 -7.5
t44 -26.5t27.5 -53t9.5 -86v-274q0 -16 6 -24t32 -10l42 -2v-35h-250v35zM158 986l165 -153h-23l-150 66l-150 -66h-23l165 153h16z" />
    <glyph glyph-name="dotlessi" unicode="&#x131;" horiz-adv-x="324" 
d="M215 71q0 -16 6 -24t32 -10l42 -2v-35h-250v35l42 2q26 2 32 10t6 24v312q0 20 -2.5 25.5t-18.5 12.5l-75 31v6l186 70v-457z" />
    <glyph glyph-name="ibreve" unicode="&#x12d;" horiz-adv-x="324" 
d="M215 71q0 -16 6 -24t32 -10l42 -2v-35h-250v35l42 2q26 2 32 10t6 24v312q0 20 -2.5 25.5t-18.5 12.5l-75 31v6l186 70v-457zM158 628q-30 0 -57 8t-49 27t-37 49.5t-20 75.5h54q7 -60 37 -86t72 -26t72 26t37 86h54q-5 -45 -20 -75.5t-37 -49.5t-49 -27t-57 -8z" />
    <glyph glyph-name="imacron" unicode="&#x12b;" horiz-adv-x="324" 
d="M215 71q0 -16 6 -24t32 -10l42 -2v-35h-250v35l42 2q26 2 32 10t6 24v312q0 20 -2.5 25.5t-18.5 12.5l-75 31v6l186 70v-457zM11 735h294v-65h-294v65z" />
    <glyph glyph-name="iogonek" unicode="&#x12f;" horiz-adv-x="324" 
d="M215 71q0 -16 6 -24t32 -10l42 -2v-35h-250v35l42 2q26 2 32 10t6 24v312q0 20 -2.5 25.5t-18.5 12.5l-75 31v6l186 70v-457zM163 678q-29 0 -47.5 18.5t-18.5 47.5q0 28 18.5 47t47.5 19q28 0 47 -19t19 -47q0 -29 -19 -47.5t-47 -18.5zM256 -207q-17 -8 -45 -17.5
t-57 -9.5q-42 0 -71.5 21.5t-29.5 63.5q0 19 11 39t28 39t37.5 37t39.5 34h35q-13 -11 -26 -25.5t-23.5 -31t-17 -34t-6.5 -34.5q0 -23 10.5 -36.5t27.5 -19.5t40 -5.5t47 6.5v-27z" />
    <glyph glyph-name="itilde" unicode="&#x129;" horiz-adv-x="324" 
d="M215 71q0 -16 6 -24t32 -10l42 -2v-35h-250v35l42 2q26 2 32 10t6 24v312q0 20 -2.5 25.5t-18.5 12.5l-75 31v6l186 70v-457zM-13 648q0 24 5.5 49t17.5 46t30 34t43 13q21 0 44 -11.5t45.5 -25t43 -25t37.5 -11.5q29 0 41 18t14 52h21q0 -63 -21.5 -100t-66.5 -37
q-25 0 -48.5 11t-45.5 24.5t-42.5 24.5t-40.5 11q-26 0 -40 -20t-16 -53h-21z" />
    <glyph glyph-name="uni1ECB" unicode="&#x1ecb;" horiz-adv-x="324" 
d="M215 71q0 -16 6 -24t32 -10l42 -2v-35h-250v35l42 2q26 2 32 10t6 24v312q0 20 -2.5 25.5t-18.5 12.5l-75 31v6l186 70v-457zM163 678q-29 0 -47.5 18.5t-18.5 47.5q0 28 18.5 47t47.5 19q28 0 47 -19t19 -47q0 -29 -19 -47.5t-47 -18.5zM163 -226q-23 0 -40 16t-17 42
q0 25 17 41.5t40 16.5q25 0 41.5 -16.5t16.5 -41.5q0 -26 -16.5 -42t-41.5 -16z" />
    <glyph glyph-name="uni0237" unicode="&#x237;" horiz-adv-x="292" 
d="M203 45q0 -37 -2 -66t-8 -52t-17.5 -42.5t-30.5 -36.5q-13 -12 -31 -26t-38.5 -29.5t-42 -31t-40.5 -28.5l-15 22q34 31 59 55.5t42 53t25.5 66.5t8.5 95v358q0 20 -2.5 25.5t-18.5 12.5l-75 31v6l186 70v-483z" />
    <glyph glyph-name="jcircumflex" unicode="&#x135;" horiz-adv-x="292" 
d="M203 45q0 -37 -2 -66t-8 -52t-17.5 -42.5t-30.5 -36.5q-13 -12 -31 -26t-38.5 -29.5t-42 -31t-40.5 -28.5l-15 22q34 31 59 55.5t42 53t25.5 66.5t8.5 95v358q0 20 -2.5 25.5t-18.5 12.5l-75 31v6l186 70v-483zM310 609h-19l-145 98l-145 -98h-19l158 197h12z" />
    <glyph glyph-name="uni0137" unicode="&#x137;" horiz-adv-x="601" 
d="M493 74q10 -11 18.5 -18t16.5 -11t17.5 -5.5t22.5 -2.5l31 -2v-35h-165l-203 233l-36 2v-164q0 -16 6 -24t32 -10l42 -2v-35h-250v35l42 2q26 2 32 10t6 24v618q0 20 -2.5 25.5t-18.5 12.5l-75 31v6l186 66v-572q10 3 21 9t24 19l113 114q40 40 45 53.5t-37 13.5h-18v35
h217v-35l-24 -1q-17 -1 -30 -4t-25 -9.5t-23.5 -16t-25.5 -22.5l-138 -124zM302 -91q20 0 39 -7.5t33.5 -22t23.5 -35t9 -46.5q0 -44 -35 -91t-108 -79l-10 21q48 24 67.5 55t19.5 66t-24.5 55t-66.5 27q-2 24 12.5 40.5t39.5 16.5z" />
    <glyph glyph-name="lacute" unicode="&#x13a;" horiz-adv-x="308" 
d="M199 71q0 -16 6 -24t32 -10l42 -2v-35h-250v35l42 2q26 2 32 10t6 24v618q0 20 -2.5 25.5t-18.5 12.5l-75 31v6l186 66v-759zM214 1086h121v-3l-210 -176h-16z" />
    <glyph glyph-name="lcaron" unicode="&#x13e;" horiz-adv-x="342" 
d="M199 71q0 -16 6 -24t32 -10l42 -2v-35h-250v35l42 2q26 2 32 10t6 24v618q0 20 -2.5 25.5t-18.5 12.5l-75 31v6l186 66v-759zM319 837q20 0 39 -7.5t33.5 -22t23.5 -35t9 -46.5q0 -44 -35 -91t-108 -79l-10 21q48 24 67.5 55t19.5 66t-24.5 55t-66.5 27q-2 24 12.5 40.5
t39.5 16.5z" />
    <glyph glyph-name="uni013C" unicode="&#x13c;" horiz-adv-x="308" 
d="M199 71q0 -16 6 -24t32 -10l42 -2v-35h-250v35l42 2q26 2 32 10t6 24v618q0 20 -2.5 25.5t-18.5 12.5l-75 31v6l186 66v-759zM129 -91q20 0 39 -7.5t33.5 -22t23.5 -35t9 -46.5q0 -44 -35 -91t-108 -79l-10 21q48 24 67.5 55t19.5 66t-24.5 55t-66.5 27q-2 24 12.5 40.5
t39.5 16.5z" />
    <glyph glyph-name="ldot" unicode="&#x140;" horiz-adv-x="393" 
d="M199 71q0 -16 6 -24t32 -10l42 -2v-35h-250v35l42 2q26 2 32 10t6 24v618q0 20 -2.5 25.5t-18.5 12.5l-75 31v6l186 66v-759zM350 369q-23 0 -40 16t-17 42q0 25 17 41.5t40 16.5q25 0 41.5 -16.5t16.5 -41.5q0 -26 -16.5 -42t-41.5 -16z" />
    <glyph glyph-name="glyph298" horiz-adv-x="393" 
d="M199 71q0 -16 6 -24t32 -10l42 -2v-35h-250v35l42 2q26 2 32 10t6 24v618q0 20 -2.5 25.5t-18.5 12.5l-75 31v6l186 66v-759zM350 369q-23 0 -40 16t-17 42q0 25 17 41.5t40 16.5q25 0 41.5 -16.5t16.5 -41.5q0 -26 -16.5 -42t-41.5 -16z" />
    <glyph glyph-name="lslash" unicode="&#x142;" horiz-adv-x="348" 
d="M219 71q0 -16 6 -24t32 -10l42 -2v-35h-250v35l42 2q26 2 32 10t6 24v618q0 20 -2.5 25.5t-18.5 12.5l-75 31v6l186 66v-759zM39 371l270 140v-51l-270 -140v51z" />
    <glyph glyph-name="eng" unicode="&#x14b;" horiz-adv-x="605" 
d="M41 35l42 2q26 2 32 10t6 24v312q0 20 -2.5 25.5t-18.5 12.5l-75 31v6l186 70v-91q20 15 42.5 30t41.5 26q15 9 39 17t54 8q32 0 57 -7.5t42.5 -26.5t26.5 -53t9 -86v-300q0 -37 -2 -66t-8 -52t-17.5 -42.5t-30.5 -36.5q-13 -12 -31 -26t-38.5 -29.5t-42 -31t-40.5 -28.5
l-15 22q34 31 59 55.5t42 53t25.5 66.5t8.5 95v285q0 70 -22.5 108t-82.5 38q-38 0 -69 -16.5t-48 -40.5v-328q0 -16 6 -24t32 -10l42 -2v-35h-250v35z" />
    <glyph glyph-name="nacute" unicode="&#x144;" horiz-adv-x="627" 
d="M41 35l42 2q26 2 32 10t6 24v312q0 20 -2.5 25.5t-18.5 12.5l-75 31v6l186 70v-91q20 15 42.5 30t41.5 26q15 9 39 17t54 8q32 0 57 -7.5t42.5 -26.5t26.5 -53t9 -86v-274q0 -16 6 -24t32 -10l42 -2v-35h-250v35l42 2q26 2 32 10t6 24v239q0 70 -22.5 108t-82.5 38
q-38 0 -69 -16.5t-48 -40.5v-328q0 -16 6 -24t32 -10l42 -2v-35h-250v35zM390 788h121v-3l-210 -176h-16z" />
    <glyph glyph-name="ncaron" unicode="&#x148;" horiz-adv-x="627" 
d="M41 35l42 2q26 2 32 10t6 24v312q0 20 -2.5 25.5t-18.5 12.5l-75 31v6l186 70v-91q20 15 42.5 30t41.5 26q15 9 39 17t54 8q32 0 57 -7.5t42.5 -26.5t26.5 -53t9 -86v-274q0 -16 6 -24t32 -10l42 -2v-35h-250v35l42 2q26 2 32 10t6 24v239q0 70 -22.5 108t-82.5 38
q-38 0 -69 -16.5t-48 -40.5v-328q0 -16 6 -24t32 -10l42 -2v-35h-250v35zM323 609l-158 196h19l145 -98l145 98h19l-158 -196h-12z" />
    <glyph glyph-name="uni0146" unicode="&#x146;" horiz-adv-x="627" 
d="M41 35l42 2q26 2 32 10t6 24v312q0 20 -2.5 25.5t-18.5 12.5l-75 31v6l186 70v-91q20 15 42.5 30t41.5 26q15 9 39 17t54 8q32 0 57 -7.5t42.5 -26.5t26.5 -53t9 -86v-274q0 -16 6 -24t32 -10l42 -2v-35h-250v35l42 2q26 2 32 10t6 24v239q0 70 -22.5 108t-82.5 38
q-38 0 -69 -16.5t-48 -40.5v-328q0 -16 6 -24t32 -10l42 -2v-35h-250v35zM297 -91q20 0 39 -7.5t33.5 -22t23.5 -35t9 -46.5q0 -44 -35 -91t-108 -79l-10 21q48 24 67.5 55t19.5 66t-24.5 55t-66.5 27q-2 24 12.5 40.5t39.5 16.5z" />
    <glyph glyph-name="oe" unicode="&#x153;" horiz-adv-x="945" 
d="M302 518q68 0 119 -28t83 -75q30 48 76.5 75.5t103.5 27.5q54 0 92.5 -17.5t65 -46.5t41 -66t20.5 -77h-352q-2 -48 11 -93t38 -79.5t61 -55t81 -20.5q28 0 51 8t41 19.5t30.5 23t19.5 19.5l23 -24l-18 -19q-50 -52 -96 -77.5t-106 -25.5q-51 0 -101.5 27t-84.5 82
q-33 -48 -84.5 -78.5t-118.5 -30.5q-57 0 -104.5 21t-81 57t-52 83t-18.5 99t19 101t53.5 86.5t82.5 60.5t105 23zM281 477q-28 0 -53.5 -11t-44.5 -34t-30.5 -58.5t-11.5 -84.5q0 -43 11 -89t33.5 -84.5t56 -63t77.5 -24.5q28 0 53.5 11t44.5 34.5t30.5 59t11.5 84.5
q0 43 -11 89t-33.5 84t-56 62.5t-77.5 24.5zM680 487q-32 0 -54.5 -13t-37.5 -33t-23 -44.5t-11 -48.5h241q-3 30 -10.5 55t-21 44t-34.5 29.5t-49 10.5z" />
    <glyph glyph-name="obreve" unicode="&#x14f;" horiz-adv-x="600" 
d="M302 518q57 0 104.5 -21t81 -56.5t52 -82.5t18.5 -99t-19 -101t-53.5 -87t-82.5 -61t-105 -23t-104.5 21t-81 57t-52 83t-18.5 99t19 101t53.5 86.5t82.5 60.5t105 23zM281 477q-28 0 -53.5 -11t-44.5 -34t-30.5 -58.5t-11.5 -84.5q0 -43 11 -89t33.5 -84.5t56 -63
t77.5 -24.5q28 0 53.5 11t44.5 34.5t30.5 59t11.5 84.5q0 43 -11 89t-33.5 84t-56 62.5t-77.5 24.5zM302 628q-30 0 -57 8t-49 27t-37 49.5t-20 75.5h54q7 -60 37 -86t72 -26t72 26t37 86h54q-5 -45 -20 -75.5t-37 -49.5t-49 -27t-57 -8z" />
    <glyph glyph-name="ohungarumlaut" unicode="&#x151;" horiz-adv-x="600" 
d="M302 518q57 0 104.5 -21t81 -56.5t52 -82.5t18.5 -99t-19 -101t-53.5 -87t-82.5 -61t-105 -23t-104.5 21t-81 57t-52 83t-18.5 99t19 101t53.5 86.5t82.5 60.5t105 23zM281 477q-28 0 -53.5 -11t-44.5 -34t-30.5 -58.5t-11.5 -84.5q0 -43 11 -89t33.5 -84.5t56 -63
t77.5 -24.5q28 0 53.5 11t44.5 34.5t30.5 59t11.5 84.5q0 43 -11 89t-33.5 84t-56 62.5t-77.5 24.5zM497 788h121v-3l-210 -176h-16zM317 788h121v-3l-210 -176h-16z" />
    <glyph glyph-name="omacron" unicode="&#x14d;" horiz-adv-x="600" 
d="M302 518q57 0 104.5 -21t81 -56.5t52 -82.5t18.5 -99t-19 -101t-53.5 -87t-82.5 -61t-105 -23t-104.5 21t-81 57t-52 83t-18.5 99t19 101t53.5 86.5t82.5 60.5t105 23zM281 477q-28 0 -53.5 -11t-44.5 -34t-30.5 -58.5t-11.5 -84.5q0 -43 11 -89t33.5 -84.5t56 -63
t77.5 -24.5q28 0 53.5 11t44.5 34.5t30.5 59t11.5 84.5q0 43 -11 89t-33.5 84t-56 62.5t-77.5 24.5zM155 735h294v-65h-294v65z" />
    <glyph glyph-name="uni1ECD" unicode="&#x1ecd;" horiz-adv-x="600" 
d="M302 518q57 0 104.5 -21t81 -56.5t52 -82.5t18.5 -99t-19 -101t-53.5 -87t-82.5 -61t-105 -23t-104.5 21t-81 57t-52 83t-18.5 99t19 101t53.5 86.5t82.5 60.5t105 23zM281 477q-28 0 -53.5 -11t-44.5 -34t-30.5 -58.5t-11.5 -84.5q0 -43 11 -89t33.5 -84.5t56 -63
t77.5 -24.5q28 0 53.5 11t44.5 34.5t30.5 59t11.5 84.5q0 43 -11 89t-33.5 84t-56 62.5t-77.5 24.5zM321 -226q-23 0 -40 16t-17 42q0 25 17 41.5t40 16.5q25 0 41.5 -16.5t16.5 -41.5q0 -26 -16.5 -42t-41.5 -16z" />
    <glyph glyph-name="racute" unicode="&#x155;" horiz-adv-x="423" 
d="M211 425q19 20 51 51q21 20 44 31t46 11q24 0 41.5 -13.5t17.5 -38.5q0 -24 -14 -41t-32 -17q-21 11 -43 19t-36 10q-17 0 -39 -10t-36 -31v-322q0 -16 6 -24.5t32 -9.5l62 -2v-38h-270v35l42 2q26 2 32 10t6 24v312q0 20 -2.5 25.5t-18.5 12.5l-75 31v6l186 70v-103z
M323 788h121v-3l-210 -176h-16z" />
    <glyph glyph-name="rcaron" unicode="&#x159;" horiz-adv-x="423" 
d="M211 425q19 20 51 51q21 20 44 31t46 11q24 0 41.5 -13.5t17.5 -38.5q0 -24 -14 -41t-32 -17q-21 11 -43 19t-36 10q-17 0 -39 -10t-36 -31v-322q0 -16 6 -24.5t32 -9.5l62 -2v-38h-270v35l42 2q26 2 32 10t6 24v312q0 20 -2.5 25.5t-18.5 12.5l-75 31v6l186 70v-103z
M256 609l-158 196h19l145 -98l145 98h19l-158 -196h-12z" />
    <glyph glyph-name="uni0157" unicode="&#x157;" horiz-adv-x="423" 
d="M211 425q19 20 51 51q21 20 44 31t46 11q24 0 41.5 -13.5t17.5 -38.5q0 -24 -14 -41t-32 -17q-21 11 -43 19t-36 10q-17 0 -39 -10t-36 -31v-322q0 -16 6 -24.5t32 -9.5l62 -2v-38h-270v35l42 2q26 2 32 10t6 24v312q0 20 -2.5 25.5t-18.5 12.5l-75 31v6l186 70v-103z
M158 -91q20 0 39 -7.5t33.5 -22t23.5 -35t9 -46.5q0 -44 -35 -91t-108 -79l-10 21q48 24 67.5 55t19.5 66t-24.5 55t-66.5 27q-2 24 12.5 40.5t39.5 16.5z" />
    <glyph glyph-name="sacute" unicode="&#x15b;" horiz-adv-x="442" 
d="M203 -13q-40 0 -77 9t-62 22l-11 145l32 6l24 -57q20 -47 47 -67t66 -20q36 0 63 21t27 66q0 30 -20 52.5t-60 40.5l-55 25q-23 10 -44 24t-37.5 32.5t-26.5 41.5t-10 52q0 35 16 61t42.5 43t60 25.5t69.5 8.5q31 0 58.5 -5t51.5 -13l19 -130l-32 -6l-27 48
q-20 35 -41.5 52t-53.5 17q-35 0 -60 -20.5t-25 -53.5q0 -32 19 -52.5t53 -36.5l55 -25q32 -15 56 -29.5t40.5 -32.5t24.5 -41t8 -54q0 -38 -15.5 -66t-42 -46.5t-61 -27.5t-71.5 -9zM295 788h121v-3l-210 -176h-16z" />
    <glyph glyph-name="scaron" unicode="&#x161;" horiz-adv-x="442" 
d="M203 -13q-40 0 -77 9t-62 22l-11 145l32 6l24 -57q20 -47 47 -67t66 -20q36 0 63 21t27 66q0 30 -20 52.5t-60 40.5l-55 25q-23 10 -44 24t-37.5 32.5t-26.5 41.5t-10 52q0 35 16 61t42.5 43t60 25.5t69.5 8.5q31 0 58.5 -5t51.5 -13l19 -130l-32 -6l-27 48
q-20 35 -41.5 52t-53.5 17q-35 0 -60 -20.5t-25 -53.5q0 -32 19 -52.5t53 -36.5l55 -25q32 -15 56 -29.5t40.5 -32.5t24.5 -41t8 -54q0 -38 -15.5 -66t-42 -46.5t-61 -27.5t-71.5 -9zM228 609l-158 196h19l145 -98l145 98h19l-158 -196h-12z" />
    <glyph glyph-name="scedilla" unicode="&#x15f;" horiz-adv-x="442" 
d="M203 -13q-40 0 -77 9t-62 22l-11 145l32 6l24 -57q20 -47 47 -67t66 -20q36 0 63 21t27 66q0 30 -20 52.5t-60 40.5l-55 25q-23 10 -44 24t-37.5 32.5t-26.5 41.5t-10 52q0 35 16 61t42.5 43t60 25.5t69.5 8.5q31 0 58.5 -5t51.5 -13l19 -130l-32 -6l-27 48
q-20 35 -41.5 52t-53.5 17q-35 0 -60 -20.5t-25 -53.5q0 -32 19 -52.5t53 -36.5l55 -25q32 -15 56 -29.5t40.5 -32.5t24.5 -41t8 -54q0 -38 -15.5 -66t-42 -46.5t-61 -27.5t-71.5 -9zM177 -265q-15 0 -30 2.5t-27.5 8.5t-20 15t-7.5 21q0 14 12.5 25.5t38.5 6.5
q0 -26 18.5 -38.5t41.5 -12.5q18 0 29.5 9t11.5 22q0 21 -34 42t-84 43l118 126h36l-76 -81q45 -23 67.5 -44t22.5 -52q0 -16 -8.5 -32.5t-23.5 -30t-36.5 -22t-48.5 -8.5z" />
    <glyph glyph-name="scircumflex" unicode="&#x15d;" horiz-adv-x="442" 
d="M203 -13q-40 0 -77 9t-62 22l-11 145l32 6l24 -57q20 -47 47 -67t66 -20q36 0 63 21t27 66q0 30 -20 52.5t-60 40.5l-55 25q-23 10 -44 24t-37.5 32.5t-26.5 41.5t-10 52q0 35 16 61t42.5 43t60 25.5t69.5 8.5q31 0 58.5 -5t51.5 -13l19 -130l-32 -6l-27 48
q-20 35 -41.5 52t-53.5 17q-35 0 -60 -20.5t-25 -53.5q0 -32 19 -52.5t53 -36.5l55 -25q32 -15 56 -29.5t40.5 -32.5t24.5 -41t8 -54q0 -38 -15.5 -66t-42 -46.5t-61 -27.5t-71.5 -9zM398 609h-19l-145 98l-145 -98h-19l158 197h12z" />
    <glyph glyph-name="uni0219" unicode="&#x219;" horiz-adv-x="442" 
d="M203 -13q-40 0 -77 9t-62 22l-11 145l32 6l24 -57q20 -47 47 -67t66 -20q36 0 63 21t27 66q0 30 -20 52.5t-60 40.5l-55 25q-23 10 -44 24t-37.5 32.5t-26.5 41.5t-10 52q0 35 16 61t42.5 43t60 25.5t69.5 8.5q31 0 58.5 -5t51.5 -13l19 -130l-32 -6l-27 48
q-20 35 -41.5 52t-53.5 17q-35 0 -60 -20.5t-25 -53.5q0 -32 19 -52.5t53 -36.5l55 -25q32 -15 56 -29.5t40.5 -32.5t24.5 -41t8 -54q0 -38 -15.5 -66t-42 -46.5t-61 -27.5t-71.5 -9zM203 -91q20 0 39 -7.5t33.5 -22t23.5 -35t9 -46.5q0 -44 -35 -91t-108 -79l-10 21
q48 24 67.5 55t19.5 66t-24.5 55t-66.5 27q-2 24 12.5 40.5t39.5 16.5z" />
    <glyph glyph-name="tbar" unicode="&#x167;" horiz-adv-x="432" 
d="M248 -13q-49 0 -78.5 23t-29.5 84v356h-97v4l183 165h4v-117h140v-52h-140v-322q0 -44 14.5 -60t46.5 -16q17 0 35.5 8t43.5 25l19 -28q-27 -20 -46 -32.5t-33 -20.5q-17 -10 -31.5 -13.5t-30.5 -3.5zM43 371h327v-43h-327v43z" />
    <glyph glyph-name="tcaron" unicode="&#x165;" horiz-adv-x="372" 
d="M218 -13q-49 0 -78.5 23t-29.5 84v356h-97v4l183 165h4v-117h140v-52h-140v-322q0 -44 14.5 -60t46.5 -16q17 0 35.5 8t43.5 25l19 -28q-27 -20 -46 -32.5t-33 -20.5q-17 -10 -31.5 -13.5t-30.5 -3.5zM303 837q20 0 39 -7.5t33.5 -22t23.5 -35t9 -46.5q0 -44 -35 -91
t-108 -79l-10 21q48 24 67.5 55t19.5 66t-24.5 55t-66.5 27q-2 24 12.5 40.5t39.5 16.5z" />
    <glyph glyph-name="uni0163" unicode="&#x163;" horiz-adv-x="372" 
d="M218 -13q-49 0 -78.5 23t-29.5 84v356h-97v4l183 165h4v-117h140v-52h-140v-322q0 -44 14.5 -60t46.5 -16q17 0 35.5 8t43.5 25l19 -28q-27 -20 -46 -32.5t-33 -20.5q-17 -10 -31.5 -13.5t-30.5 -3.5zM162 -91q20 0 39 -7.5t33.5 -22t23.5 -35t9 -46.5q0 -44 -35 -91
t-108 -79l-10 21q48 24 67.5 55t19.5 66t-24.5 55t-66.5 27q-2 24 12.5 40.5t39.5 16.5z" />
    <glyph glyph-name="uni021B" unicode="&#x21b;" horiz-adv-x="372" 
d="M218 -13q-49 0 -78.5 23t-29.5 84v356h-97v4l183 165h4v-117h140v-52h-140v-322q0 -44 14.5 -60t46.5 -16q17 0 35.5 8t43.5 25l19 -28q-27 -20 -46 -32.5t-33 -20.5q-17 -10 -31.5 -13.5t-30.5 -3.5zM162 -91q20 0 39 -7.5t33.5 -22t23.5 -35t9 -46.5q0 -44 -35 -91
t-108 -79l-10 21q48 24 67.5 55t19.5 66t-24.5 55t-66.5 27q-2 24 12.5 40.5t39.5 16.5z" />
    <glyph glyph-name="ubreve" unicode="&#x16d;" horiz-adv-x="598" 
d="M407 66q-20 -15 -42 -29.5t-40 -24.5q-15 -8 -40 -16.5t-51 -8.5q-35 0 -59.5 7.5t-40 26.5t-23 52.5t-7.5 86.5v256q0 16 -6 23.5t-32 9.5l-42 4v31l170 29v-318q0 -41 4 -69.5t15 -46t30 -25.5t49 -8q36 0 64.5 15t46.5 37v318q0 16 -6 23.5t-32 9.5l-42 4v31l170 29
v-416q0 -12 3 -19.5t20 -7.5h57v-32q-48 -8 -87 -21.5t-79 -30.5v80zM301 628q-30 0 -57 8t-49 27t-37 49.5t-20 75.5h54q7 -60 37 -86t72 -26t72 26t37 86h54q-5 -45 -20 -75.5t-37 -49.5t-49 -27t-57 -8z" />
    <glyph glyph-name="uhungarumlaut" unicode="&#x171;" horiz-adv-x="598" 
d="M407 66q-20 -15 -42 -29.5t-40 -24.5q-15 -8 -40 -16.5t-51 -8.5q-35 0 -59.5 7.5t-40 26.5t-23 52.5t-7.5 86.5v256q0 16 -6 23.5t-32 9.5l-42 4v31l170 29v-318q0 -41 4 -69.5t15 -46t30 -25.5t49 -8q36 0 64.5 15t46.5 37v318q0 16 -6 23.5t-32 9.5l-42 4v31l170 29
v-416q0 -12 3 -19.5t20 -7.5h57v-32q-48 -8 -87 -21.5t-79 -30.5v80zM496 788h121v-3l-210 -176h-16zM316 788h121v-3l-210 -176h-16z" />
    <glyph glyph-name="umacron" unicode="&#x16b;" horiz-adv-x="598" 
d="M407 66q-20 -15 -42 -29.5t-40 -24.5q-15 -8 -40 -16.5t-51 -8.5q-35 0 -59.5 7.5t-40 26.5t-23 52.5t-7.5 86.5v256q0 16 -6 23.5t-32 9.5l-42 4v31l170 29v-318q0 -41 4 -69.5t15 -46t30 -25.5t49 -8q36 0 64.5 15t46.5 37v318q0 16 -6 23.5t-32 9.5l-42 4v31l170 29
v-416q0 -12 3 -19.5t20 -7.5h57v-32q-48 -8 -87 -21.5t-79 -30.5v80zM154 735h294v-65h-294v65z" />
    <glyph glyph-name="uogonek" unicode="&#x173;" horiz-adv-x="598" 
d="M496 -204q-17 -8 -45 -17.5t-57 -9.5q-42 0 -71.5 21.5t-29.5 63.5q0 19 11 38.5t27.5 38.5t36.5 37t39 33v65q-20 -15 -42 -29.5t-40 -24.5q-15 -8 -40 -16.5t-51 -8.5q-35 0 -59.5 7.5t-40 26.5t-23 52.5t-7.5 86.5v256q0 16 -6 23.5t-32 9.5l-42 4v31l170 29v-318
q0 -41 4 -69.5t15 -46t30 -25.5t49 -8q36 0 64.5 15t46.5 37v318q0 16 -6 23.5t-32 9.5l-42 4v31l170 29v-416q0 -12 3 -19.5t20 -7.5h57v-32q-38 -7 -71 -17t-65 -22q-25 -23 -45.5 -55.5t-20.5 -65.5q0 -23 10.5 -36.5t27.5 -19.5t40 -5.5t47 6.5v-27z" />
    <glyph glyph-name="uring" unicode="&#x16f;" horiz-adv-x="598" 
d="M407 66q-20 -15 -42 -29.5t-40 -24.5q-15 -8 -40 -16.5t-51 -8.5q-35 0 -59.5 7.5t-40 26.5t-23 52.5t-7.5 86.5v256q0 16 -6 23.5t-32 9.5l-42 4v31l170 29v-318q0 -41 4 -69.5t15 -46t30 -25.5t49 -8q36 0 64.5 15t46.5 37v318q0 16 -6 23.5t-32 9.5l-42 4v31l170 29
v-416q0 -12 3 -19.5t20 -7.5h57v-32q-48 -8 -87 -21.5t-79 -30.5v80zM178 706q0 25 9.5 46.5t26.5 38t39 26t48 9.5t49 -9.5t40 -26t26.5 -38t9.5 -46.5t-9.5 -46.5t-26.5 -37.5t-40 -25t-49 -9t-48 9t-39 25t-26.5 37.5t-9.5 46.5zM371 706q0 32 -18.5 51t-51.5 19
q-32 0 -50 -19t-18 -51t18 -51t50 -19q33 0 51.5 19t18.5 51z" />
    <glyph glyph-name="utilde" unicode="&#x169;" horiz-adv-x="598" 
d="M407 66q-20 -15 -42 -29.5t-40 -24.5q-15 -8 -40 -16.5t-51 -8.5q-35 0 -59.5 7.5t-40 26.5t-23 52.5t-7.5 86.5v256q0 16 -6 23.5t-32 9.5l-42 4v31l170 29v-318q0 -41 4 -69.5t15 -46t30 -25.5t49 -8q36 0 64.5 15t46.5 37v318q0 16 -6 23.5t-32 9.5l-42 4v31l170 29
v-416q0 -12 3 -19.5t20 -7.5h57v-32q-48 -8 -87 -21.5t-79 -30.5v80zM130 648q0 24 5.5 49t17.5 46t30 34t43 13q21 0 44 -11.5t45.5 -25t43 -25t37.5 -11.5q29 0 41 18t14 52h21q0 -63 -21.5 -100t-66.5 -37q-25 0 -48.5 11t-45.5 24.5t-42.5 24.5t-40.5 11q-26 0 -40 -20
t-16 -53h-21z" />
    <glyph glyph-name="uni1EE5" unicode="&#x1ee5;" horiz-adv-x="598" 
d="M407 66q-20 -15 -42 -29.5t-40 -24.5q-15 -8 -40 -16.5t-51 -8.5q-35 0 -59.5 7.5t-40 26.5t-23 52.5t-7.5 86.5v256q0 16 -6 23.5t-32 9.5l-42 4v31l170 29v-318q0 -41 4 -69.5t15 -46t30 -25.5t49 -8q36 0 64.5 15t46.5 37v318q0 16 -6 23.5t-32 9.5l-42 4v31l170 29
v-416q0 -12 3 -19.5t20 -7.5h57v-32q-48 -8 -87 -21.5t-79 -30.5v80zM296 -226q-23 0 -40 16t-17 42q0 25 17 41.5t40 16.5q25 0 41.5 -16.5t16.5 -41.5q0 -26 -16.5 -42t-41.5 -16z" />
    <glyph glyph-name="wacute" unicode="&#x1e83;" horiz-adv-x="837" 
d="M76 439q-6 16 -16.5 20.5t-40.5 6.5l-15 1v35h253v-35l-16 -1q-39 -2 -52.5 -7.5t-7.5 -24.5l106 -320l114 250l-60 138h202v-35l-16 -1q-39 -2 -53.5 -7.5t-6.5 -24.5l138 -313l86 272q7 23 8 37t-4.5 21.5t-17.5 10t-31 4.5l-14 1v35h203v-35l-13 -1q-17 -1 -28 -3
t-19.5 -8.5t-15.5 -18.5t-15 -34l-149 -414h-30l-144 331l-146 -331h-34zM480 788h121v-3l-210 -176h-16z" />
    <glyph glyph-name="wcircumflex" unicode="&#x175;" horiz-adv-x="837" 
d="M76 439q-6 16 -16.5 20.5t-40.5 6.5l-15 1v35h253v-35l-16 -1q-39 -2 -52.5 -7.5t-7.5 -24.5l106 -320l114 250l-60 138h202v-35l-16 -1q-39 -2 -53.5 -7.5t-6.5 -24.5l138 -313l86 272q7 23 8 37t-4.5 21.5t-17.5 10t-31 4.5l-14 1v35h203v-35l-13 -1q-17 -1 -28 -3
t-19.5 -8.5t-15.5 -18.5t-15 -34l-149 -414h-30l-144 331l-146 -331h-34zM583 609h-19l-145 98l-145 -98h-19l158 197h12z" />
    <glyph glyph-name="wdieresis" unicode="&#x1e85;" horiz-adv-x="837" 
d="M76 439q-6 16 -16.5 20.5t-40.5 6.5l-15 1v35h253v-35l-16 -1q-39 -2 -52.5 -7.5t-7.5 -24.5l106 -320l114 250l-60 138h202v-35l-16 -1q-39 -2 -53.5 -7.5t-6.5 -24.5l138 -313l86 272q7 23 8 37t-4.5 21.5t-17.5 10t-31 4.5l-14 1v35h203v-35l-13 -1q-17 -1 -28 -3
t-19.5 -8.5t-15.5 -18.5t-15 -34l-149 -414h-30l-144 331l-146 -331h-34zM301 667q-23 0 -40 16t-17 42q0 25 17 41.5t40 16.5q25 0 41.5 -16.5t16.5 -41.5q0 -26 -16.5 -42t-41.5 -16zM536 667q-23 0 -40 16t-17 42q0 25 17 41.5t40 16.5q25 0 41.5 -16.5t16.5 -41.5
q0 -26 -16.5 -42t-41.5 -16z" />
    <glyph glyph-name="wgrave" unicode="&#x1e81;" horiz-adv-x="837" 
d="M76 439q-6 16 -16.5 20.5t-40.5 6.5l-15 1v35h253v-35l-16 -1q-39 -2 -52.5 -7.5t-7.5 -24.5l106 -320l114 250l-60 138h202v-35l-16 -1q-39 -2 -53.5 -7.5t-6.5 -24.5l138 -313l86 272q7 23 8 37t-4.5 21.5t-17.5 10t-31 4.5l-14 1v35h203v-35l-13 -1q-17 -1 -28 -3
t-19.5 -8.5t-15.5 -18.5t-15 -34l-149 -414h-30l-144 331l-146 -331h-34zM446 609l-210 176v3h121l105 -179h-16z" />
    <glyph glyph-name="ycircumflex" unicode="&#x177;" horiz-adv-x="563" 
d="M151 -267q-26 0 -39.5 17t-13.5 35q0 19 12 33q38 14 60.5 22.5t32.5 19.5q11 12 19.5 29.5t19.5 43.5l20 46l-186 460q-6 16 -16.5 20.5t-40.5 6.5l-15 1v35h253v-35l-16 -1q-39 -2 -53.5 -8t-4.5 -31l128 -327l104 293q8 23 9.5 37t-3.5 21.5t-17.5 10t-32.5 4.5l-15 1
v35h206v-35l-13 -1q-17 -1 -27.5 -3t-19 -8t-15.5 -18.5t-16 -34.5l-221 -556q-24 -60 -44.5 -86.5t-54.5 -26.5zM470 609h-19l-145 98l-145 -98h-19l158 197h12z" />
    <glyph glyph-name="ygrave" unicode="&#x1ef3;" horiz-adv-x="563" 
d="M151 -267q-26 0 -39.5 17t-13.5 35q0 19 12 33q38 14 60.5 22.5t32.5 19.5q11 12 19.5 29.5t19.5 43.5l20 46l-186 460q-6 16 -16.5 20.5t-40.5 6.5l-15 1v35h253v-35l-16 -1q-39 -2 -53.5 -8t-4.5 -31l128 -327l104 293q8 23 9.5 37t-3.5 21.5t-17.5 10t-32.5 4.5l-15 1
v35h206v-35l-13 -1q-17 -1 -27.5 -3t-19 -8t-15.5 -18.5t-16 -34.5l-221 -556q-24 -60 -44.5 -86.5t-54.5 -26.5zM333 609l-210 176v3h121l105 -179h-16z" />
    <glyph glyph-name="uni0233" unicode="&#x233;" horiz-adv-x="563" 
d="M151 -267q-26 0 -39.5 17t-13.5 35q0 19 12 33q38 14 60.5 22.5t32.5 19.5q11 12 19.5 29.5t19.5 43.5l20 46l-186 460q-6 16 -16.5 20.5t-40.5 6.5l-15 1v35h253v-35l-16 -1q-39 -2 -53.5 -8t-4.5 -31l128 -327l104 293q8 23 9.5 37t-3.5 21.5t-17.5 10t-32.5 4.5l-15 1
v35h206v-35l-13 -1q-17 -1 -27.5 -3t-19 -8t-15.5 -18.5t-16 -34.5l-221 -556q-24 -60 -44.5 -86.5t-54.5 -26.5zM159 735h294v-65h-294v65z" />
    <glyph glyph-name="zacute" unicode="&#x17a;" horiz-adv-x="510" 
d="M335 465h-77q-44 0 -70 -1.5t-42 -8t-24.5 -18.5t-18.5 -33l-27 -58h-34l42 171h8q23 -11 51.5 -13t70.5 -2h242l-307 -465h109q38 0 62.5 1t41 6.5t27 16t20.5 28.5l42 76h34l-45 -165h-412zM346 788h121v-3l-210 -176h-16z" />
    <glyph glyph-name="zcaron" unicode="&#x17e;" horiz-adv-x="510" 
d="M335 465h-77q-44 0 -70 -1.5t-42 -8t-24.5 -18.5t-18.5 -33l-27 -58h-34l42 171h8q23 -11 51.5 -13t70.5 -2h242l-307 -465h109q38 0 62.5 1t41 6.5t27 16t20.5 28.5l42 76h34l-45 -165h-412zM279 609l-158 196h19l145 -98l145 98h19l-158 -196h-12z" />
    <glyph glyph-name="zdotaccent" unicode="&#x17c;" horiz-adv-x="510" 
d="M335 465h-77q-44 0 -70 -1.5t-42 -8t-24.5 -18.5t-18.5 -33l-27 -58h-34l42 171h8q23 -11 51.5 -13t70.5 -2h242l-307 -465h109q38 0 62.5 1t41 6.5t27 16t20.5 28.5l42 76h34l-45 -165h-412zM285 647q-23 0 -40 16t-17 42q0 25 17 41.5t40 16.5q25 0 41.5 -16.5
t16.5 -41.5q0 -26 -16.5 -42t-41.5 -16z" />
    <glyph glyph-name="uni0259" unicode="&#x259;" horiz-adv-x="530" 
d="M257.984 518.969q38.9971 0 79.4951 -16.499q40.4971 -16.499 73.4951 -49.9971t53.9971 -83.4951t20.999 -115.993q0 -55.9961 -17.499 -104.493t-47.4971 -83.9951t-70.9961 -55.9971q-40.9971 -20.498 -88.9941 -20.498q-53.9971 0 -92.4951 17.499
q-38.4971 17.499 -64.9951 46.4971q-26.499 28.998 -40.998 65.9961q-14.499 36.9971 -20.499 76.9951h351.979v6.99902q0 55.9971 -15.499 100.494t-41.4971 75.4951t-60.9961 47.9971t-72.9961 16.999q-27.998 0 -50.9971 -7.99902q-22.998 -8 -40.9971 -19.499
t-30.498 -22.999q-12.499 -11.499 -19.499 -19.498l-22.998 23.998l17.998 18.999q49.9971 51.9971 95.9941 77.4951q45.998 25.499 105.994 25.499zM264.983 19.999q31.998 0 54.4971 12.499t37.498 32.498t22.998 44.4971q8 24.499 11 48.4971h-240.985
q2.99902 -29.998 10.499 -54.9961q7.5 -24.999 20.999 -43.498t34.4971 -28.998q20.999 -10.499 48.9971 -10.499z" />
    <glyph glyph-name="uni0410" unicode="&#x410;" horiz-adv-x="746" 
d="M-14 35l23 2q22 2 35.5 5.5t24 14.5t19.5 31.5t23 56.5l237 636h46l269 -700q6 -15 11 -23.5t11.5 -13t15.5 -5.5t22 -2l33 -2v-35h-282v35l48 2q14 1 22 2.5t11 6.5t1 15.5t-9 28.5l-67 180h-267l-45 -127q-11 -31 -16 -51t-3 -31.5t11.5 -16.5t26.5 -6l44 -3v-35h-245
v35zM462 319l-118 317l-113 -317h231z" />
    <glyph glyph-name="uni0411" unicode="&#x411;" horiz-adv-x="696" 
d="M595 760l8 -181h-30l-14 45q-11 34 -24 53t-38 28t-65.5 11t-105.5 2h-53q-20 0 -20 -20v-264h99q70 0 127 -14t97.5 -40t62.5 -63.5t22 -84.5q0 -56 -22.5 -99t-63 -72.5t-97.5 -45t-127 -15.5h-296v35l36 2q21 1 32.5 4t17 10.5t7 21.5t1.5 38v536q0 24 -1.5 38
t-7 21.5t-17 10.5t-32.5 4l-36 2v35h249zM253 110q0 -43 19 -57.5t69 -14.5q104 0 154.5 43.5t50.5 127.5q0 39 -11 72t-37.5 57.5t-71 38.5t-112.5 14h-61v-281z" />
    <glyph glyph-name="uni0412" unicode="&#x412;" horiz-adv-x="693" 
d="M310 758q134 0 206.5 -43t72.5 -128q0 -38 -15.5 -67t-40 -50.5t-56 -36.5t-62.5 -24v-1q37 -5 78 -18t75.5 -35t57.5 -54t25 -74q2 -54 -20 -96.5t-62.5 -71.5t-97 -44t-125.5 -15h-291v35l36 2q21 1 32.5 4t17 10.5t7 21.5t1.5 38v536q0 24 -1.5 38t-7 21.5t-17 10.5
t-32.5 4l-36 2v35h255zM308 425q91 0 132.5 41t41.5 116q0 67 -42 102.5t-136 35.5q-19 0 -29 -1t-15 -3.5t-6 -7t-1 -11.5v-272h55zM253 110q0 -43 18 -57.5t65 -14.5q102 0 151 42.5t49 123.5q0 37 -10.5 70t-36.5 57.5t-70 38.5t-110 14h-56v-274z" />
    <glyph glyph-name="uni0413" unicode="&#x413;" horiz-adv-x="638" 
d="M253 111q0 -26 1.5 -40.5t8.5 -21.5t21.5 -9t40.5 -2l52 -1v-37h-322v35l36 2q21 1 32.5 4t17 10.5t7 21.5t1.5 38v536q0 24 -1.5 38t-7 21.5t-17 10.5t-32.5 4l-36 2v35h259l291 2l8 -181h-30l-14 45q-11 34 -24 53t-38 28t-65.5 11t-105.5 2h-63q-20 0 -20 -20v-587z
" />
    <glyph glyph-name="uni0414" unicode="&#x414;" horiz-adv-x="758" 
d="M617 111q0 -23 1.5 -37t7 -21.5t17 -10t32.5 -2.5h45l8 -199h-30l-14 65q-8 35 -21 54t-38.5 28t-67 10.5t-106.5 1.5h-164q-65 0 -106.5 -1.5t-67 -10.5t-39 -28t-20.5 -54l-14 -65h-30l8 199h62q32 52 54.5 118.5t37 144t21 164.5t6.5 180q0 24 -1.5 38t-7 21.5
t-17 10.5t-32.5 4l-36 2v35h606v-35l-36 -2q-21 -1 -32.5 -4t-17 -10.5t-7 -21.5t-1.5 -38v-536zM249 699q0 -225 -27 -390t-88 -269h292q27 0 43.5 3t26.5 11t13.5 22t3.5 36v584q0 14 -4 18t-18 4h-223q-19 0 -19 -19z" />
    <glyph glyph-name="uni0415" unicode="&#x415;" horiz-adv-x="711" 
d="M55 35l36 2q21 1 32.5 4t17 10.5t7 21.5t1.5 38v536q0 24 -1.5 38t-7 21.5t-17 10.5t-32.5 4l-36 2v35h242l291 2l8 -181h-30l-14 45q-11 34 -24 53t-38 28t-65.5 11t-105.5 2h-46q-20 0 -20 -20v-289h128q20 0 35 1.5t26.5 8.5t19.5 21.5t14 40.5l9 39h30v-268h-30
l-9 39q-6 26 -14 40.5t-19.5 21.5t-26.5 8.5t-35 1.5h-128v-251q0 -26 5.5 -40.5t17.5 -21.5t30.5 -8.5t43.5 -1.5h21q72 0 114.5 3.5t67 13t38 26t28.5 43.5l41 73h30l-51 -199h-584v35z" />
    <glyph glyph-name="uni0401" unicode="&#x401;" horiz-adv-x="711" 
d="M55 35l36 2q21 1 32.5 4t17 10.5t7 21.5t1.5 38v536q0 24 -1.5 38t-7 21.5t-17 10.5t-32.5 4l-36 2v35h242l291 2l8 -181h-30l-14 45q-11 34 -24 53t-38 28t-65.5 11t-105.5 2h-46q-20 0 -20 -20v-289h128q20 0 35 1.5t26.5 8.5t19.5 21.5t14 40.5l9 39h30v-268h-30
l-9 39q-6 26 -14 40.5t-19.5 21.5t-26.5 8.5t-35 1.5h-128v-251q0 -26 5.5 -40.5t17.5 -21.5t30.5 -8.5t43.5 -1.5h21q72 0 114.5 3.5t67 13t38 26t28.5 43.5l41 73h30l-51 -199h-584v35zM244 846q-26 0 -43 17t-17 43q0 27 17 44.5t43 17.5t43 -17.5t17 -44.5
q0 -26 -17 -43t-43 -17zM500 846q-26 0 -43 17t-17 43q0 27 17 44.5t43 17.5t43 -17.5t17 -44.5q0 -26 -17 -43t-43 -17z" />
    <glyph glyph-name="uni0416" unicode="&#x416;" horiz-adv-x="1164" 
d="M-3 0v35l35 2q32 2 52 13t37 33l271 335l-170 203q-29 34 -49 53.5t-38 29.5t-36 13t-42 5l-17 1v35h278v-35h-14q-31 0 -45.5 -4t-13.5 -16t16 -34.5t44 -58.5l143 -183q22 -29 38.5 -38.5t39.5 -13.5v272q0 24 -1.5 38t-7 21.5t-17 10.5t-32.5 4l-36 2v35h292v-35
l-36 -2q-21 -1 -32.5 -4t-17 -10.5t-7 -21.5t-1.5 -38v-272q11 2 20.5 5t18.5 9t18.5 15t20.5 23l143 183q28 36 43.5 58.5t16 34.5t-13.5 16t-45 4h-14v35h278v-35l-17 -1q-24 -2 -43.5 -5t-39.5 -13t-42 -29.5t-50 -53.5l-161 -192l279 -346q17 -21 39 -32.5t51 -13.5
l35 -2v-35h-202l-274 350l-61 -2v-237q0 -24 1.5 -38t7 -21.5t17 -10.5t32.5 -4l36 -2v-35h-292v35l36 2q21 1 32.5 4t17 10.5t7 21.5t1.5 38v237l-61 2l-274 -350h-194z" />
    <glyph glyph-name="uni0417" unicode="&#x417;" horiz-adv-x="638" 
d="M289 779q60 0 108.5 -12.5t83 -36t53.5 -58t19 -79.5q0 -39 -16 -69t-42.5 -52.5t-59 -38t-65.5 -24.5v-1q36 -4 76 -17.5t73 -36.5t55 -56t22 -76q0 -51 -21.5 -94.5t-60 -74.5t-93 -48.5t-120.5 -17.5q-74 0 -127.5 12.5t-95.5 25.5l-41 186h27l66 -112
q24 -41 66.5 -54.5t96.5 -13.5q91 0 139.5 44.5t48.5 123.5q0 38 -10 71t-35 58t-67 39t-106 14h-68v46h68q95 0 139 42t44 119q0 68 -37 107t-109 40q-53 1 -94 -16t-68 -67l-49 -90h-27l33 182q31 12 82 23.5t112 11.5z" />
    <glyph glyph-name="uni0418" unicode="&#x418;" horiz-adv-x="906" 
d="M149 647q0 24 -1.5 38t-7 21.5t-17 10.5t-32.5 4l-36 2v35h292v-35l-36 -2q-21 -1 -32.5 -4t-17 -10.5t-7 -21.5t-1.5 -38v-465l400 465q0 24 -1.5 38t-7 21.5t-17 10.5t-32.5 4l-36 2v35h292v-35l-36 -2q-21 -1 -32.5 -4t-17 -10.5t-7 -22t-1.5 -39.5v-534
q0 -24 1.5 -38t7 -21.5t17 -10.5t32.5 -4l36 -2v-35h-292v35l36 2q21 1 32.5 4t17 10.5t7 21.5t1.5 38v469l-400 -465v-4q0 -24 1.5 -38t7 -21.5t17 -10.5t32.5 -4l36 -2v-35h-292v35l36 2q21 1 32.5 4t17 10.5t7 21.5t1.5 38v536z" />
    <glyph glyph-name="uni0419" unicode="&#x419;" horiz-adv-x="906" 
d="M149 647q0 24 -1.5 38t-7 21.5t-17 10.5t-32.5 4l-36 2v35h292v-35l-36 -2q-21 -1 -32.5 -4t-17 -10.5t-7 -21.5t-1.5 -38v-465l400 465q0 24 -1.5 38t-7 21.5t-17 10.5t-32.5 4l-36 2v35h292v-35l-36 -2q-21 -1 -32.5 -4t-17 -10.5t-7 -22t-1.5 -39.5v-534
q0 -24 1.5 -38t7 -21.5t17 -10.5t32.5 -4l36 -2v-35h-292v35l36 2q21 1 32.5 4t17 10.5t7 21.5t1.5 38v469l-400 -465v-4q0 -24 1.5 -38t7 -21.5t17 -10.5t32.5 -4l36 -2v-35h-292v35l36 2q21 1 32.5 4t17 10.5t7 21.5t1.5 38v536zM369 990q0 -26 4 -48.5t13.5 -39
t26.5 -26.5t43 -10q27 0 43 10t24.5 26.5t11 39t2.5 48.5h86q0 -74 -45.5 -117t-121.5 -43q-44 0 -76.5 13t-54 34.5t-32 50.5t-10.5 62h86z" />
    <glyph glyph-name="uni041A" unicode="&#x41a;" horiz-adv-x="807" 
d="M306 350l-53 -2v-237q0 -24 1.5 -38t7 -21.5t17 -10.5t32.5 -4l36 -2v-35h-292v35l36 2q21 1 32.5 4t17 10.5t7 21.5t1.5 38v536q0 24 -1.5 38t-7 21.5t-17 10.5t-32.5 4l-36 2v35h292v-35l-36 -2q-21 -1 -32.5 -4t-17 -10.5t-7 -21.5t-1.5 -38v-270q18 5 32 16t36 34
l173 183q32 34 47.5 55.5t15.5 34.5t-15.5 18t-46.5 5h-14v35h278v-35l-17 -1q-24 -2 -42.5 -5.5t-37 -14t-40.5 -30t-53 -51.5l-190 -195l306 -343q18 -20 39.5 -32t50.5 -14l35 -2v-35h-202z" />
    <glyph glyph-name="uni041B" unicode="&#x41b;" horiz-adv-x="801" 
d="M20 49q0 8 1.5 16t6.5 16q20 5 49.5 14t51.5 23q14 9 30.5 37t31 87.5t24 157.5t9.5 247q0 24 -1.5 38t-7 21.5t-17 10.5t-32.5 4l-36 2v35h616v-35l-36 -2q-21 -1 -32.5 -4t-17 -10.5t-7 -21.5t-1.5 -38v-536q0 -24 1.5 -38t7 -21.5t17 -10.5t32.5 -4l36 -2v-35h-292v35
l36 2q21 1 32.5 4t17 10.5t7 21.5t1.5 38v585q0 14 -4 18t-18 4h-233q-19 0 -19 -19q0 -140 -6 -247.5t-17.5 -186t-28 -131.5t-37.5 -85t-46.5 -45.5t-54.5 -13.5q-27 0 -45.5 15t-18.5 44z" />
    <glyph glyph-name="uni041C" unicode="&#x41c;" horiz-adv-x="1048" 
d="M207 644l-11 -423q-2 -64 -0.5 -100.5t8 -55.5t18.5 -24t33 -5l37 -1v-35h-256v35l37 1q21 0 33.5 5t19.5 24t10.5 55.5t6.5 101.5l18 422q1 26 -0.5 41t-7.5 23t-17 10t-29 3l-38 2v35h200l263 -583l245 583h203v-35l-38 -2q-18 -1 -29 -3t-17 -10t-7.5 -23t-0.5 -41
l26 -533q1 -24 2.5 -38t7.5 -21.5t17 -10.5t32 -4l36 -2v-35h-292v35l36 2q21 1 33 4t18 10.5t7 21.5t0 38l-27 533l-272 -653h-14z" />
    <glyph glyph-name="uni041D" unicode="&#x41d;" horiz-adv-x="926" 
d="M149 647q0 24 -1.5 38t-7 21.5t-17 10.5t-32.5 4l-36 2v35h292v-35l-36 -2q-21 -1 -32.5 -4t-17 -10.5t-7 -21.5t-1.5 -38v-238h420v238q0 24 -1.5 38t-7 21.5t-17 10.5t-32.5 4l-36 2v35h292v-35l-36 -2q-21 -1 -32.5 -4t-17 -10.5t-7 -21.5t-1.5 -38v-536
q0 -24 1.5 -38t7 -21.5t17 -10.5t32.5 -4l36 -2v-35h-292v35l36 2q21 1 32.5 4t17 10.5t7 21.5t1.5 38v250h-420v-250q0 -24 1.5 -38t7 -21.5t17 -10.5t32.5 -4l36 -2v-35h-292v35l36 2q21 1 32.5 4t17 10.5t7 21.5t1.5 38v536z" />
    <glyph glyph-name="uni041E" unicode="&#x41e;" horiz-adv-x="882" 
d="M441 779q81 0 153 -29.5t125 -82t84 -125.5t31 -159t-31.5 -159t-85 -125.5t-125 -82t-151.5 -29.5q-81 0 -153 29.5t-125 82t-84 125.5t-31 159t31.5 159t85 125.5t125 82t151.5 29.5zM428 737q-53 0 -100 -20.5t-82 -61t-55.5 -101.5t-20.5 -143q0 -89 20.5 -159.5
t57.5 -120t89.5 -76t116.5 -26.5q53 0 100 20.5t82 61t55.5 101.5t20.5 143q0 89 -20.5 159.5t-57.5 120t-89.5 76t-116.5 26.5z" />
    <glyph glyph-name="uni041F" unicode="&#x41f;" horiz-adv-x="906" 
d="M653 696q0 14 -4 18t-18 4h-359q-19 0 -19 -19v-588q0 -24 1.5 -38t7 -21.5t17 -10.5t32.5 -4l36 -2v-35h-292v35l36 2q21 1 32.5 4t17 10.5t7 21.5t1.5 38v536q0 24 -1.5 38t-7 21.5t-17 10.5t-32.5 4l-36 2v35h796v-35l-36 -2q-21 -1 -32.5 -4t-17 -10.5t-7 -21.5
t-1.5 -38v-536q0 -24 1.5 -38t7 -21.5t17 -10.5t32.5 -4l36 -2v-35h-292v35l36 2q21 1 32.5 4t17 10.5t7 21.5t1.5 38v585z" />
    <glyph glyph-name="uni0420" unicode="&#x420;" horiz-adv-x="648" 
d="M55 35l36 2q21 1 32.5 4t17 10.5t7 21.5t1.5 38v536q0 24 -1.5 38t-7 21.5t-17 10.5t-32.5 4l-36 2v35h262q55 0 109.5 -9t97.5 -32t70 -63.5t27 -103.5q0 -51 -22.5 -91.5t-60.5 -68t-89 -42.5t-109 -15h-36v35h33q81 0 126 44t45 125q0 89 -53 136t-152 47
q-32 0 -41 -4t-9 -20v-585q0 -26 1.5 -40.5t8.5 -21.5t21.5 -8.5t40.5 -2.5l42 -1v-37h-312v35z" />
    <glyph glyph-name="uni0421" unicode="&#x421;" horiz-adv-x="766" 
d="M476 31q54 0 95 13.5t65 54.5l66 112h27l-41 -186q-45 -14 -104 -26t-142 -12q-84 0 -156 31.5t-125 85.5t-83.5 126t-30.5 153t31 153t85.5 126t128.5 85.5t161 31.5q83 0 138 -12t89 -23l33 -182h-27l-58 105q-12 21 -30.5 34t-42 20.5t-50 10.5t-54.5 3
q-53 0 -103.5 -19.5t-90 -59.5t-64 -101t-24.5 -143q0 -86 22.5 -156t63 -120t97 -77.5t124.5 -27.5z" />
    <glyph glyph-name="uni0422" unicode="&#x422;" horiz-adv-x="746" 
d="M207 37l42 1q26 1 40.5 2.5t21.5 8.5t8.5 21.5t1.5 40.5v607h-31q-65 0 -105 -2t-64.5 -11t-37.5 -28t-23 -53l-14 -45h-30l11 210h8q14 -10 28 -16t36 -9.5t56.5 -4.5t90.5 -1h254q55 0 90 1t57 4.5t36 9.5t28 16h8l11 -210h-30l-14 45q-11 34 -23.5 53t-37 28t-64.5 11
t-105 2h-31v-607q0 -26 1.5 -40.5t8.5 -21.5t21.5 -8.5t40.5 -2.5l42 -1v-37h-332v37z" />
    <glyph glyph-name="uni0423" unicode="&#x423;" horiz-adv-x="762" 
d="M507 357q-63 -116 -102 -188.5t-68 -113t-54.5 -54.5t-61.5 -14q-34 0 -54.5 15t-20.5 41q0 8 2.5 17.5t9.5 15.5q17 1 35.5 2t35 3t30 4.5t22.5 6.5q14 7 33 31t38 53l-258 501q-8 14 -14 22.5t-12.5 13t-14 6t-17.5 2.5l-33 2v35h282v-35l-48 -2q-14 -1 -23 -3t-13 -7
t-2 -15.5t11 -27.5l199 -392l180 339q16 30 21 49.5t1.5 31.5t-15 17.5t-28.5 6.5l-44 3v35h245v-35l-23 -2q-15 -1 -25.5 -5t-21 -15.5t-22.5 -32t-31 -55.5z" />
    <glyph glyph-name="uni0424" unicode="&#x424;" horiz-adv-x="966" 
d="M629 -20h-292v35l36 2q21 1 32.5 4t17 10.5t7 21.5t1.5 38q-85 3 -157 25t-124 60t-81 90t-29 117q0 64 29.5 116.5t82 90.5t124 60t155.5 25q0 21 -2 33.5t-8 19.5t-17.5 9.5t-30.5 3.5l-36 2v35h292v-35l-36 -2q-20 -1 -31.5 -3.5t-17.5 -9.5t-7.5 -19.5t-1.5 -33.5
q85 -3 157 -25t124 -60t81 -90.5t29 -116.5q0 -65 -29.5 -117t-82 -90t-124 -60t-155.5 -25q0 -24 1.5 -38t7.5 -21.5t17.5 -10.5t31.5 -4l36 -2v-35zM162 411q0 -128 69.5 -197.5t199.5 -79.5v500q-60 -2 -109.5 -15.5t-85 -40.5t-55 -68.5t-19.5 -98.5zM804 355
q0 128 -69.5 197.5t-199.5 79.5v-500q60 2 109.5 15.5t85 40.5t55 68.5t19.5 98.5z" />
    <glyph glyph-name="uni0425" unicode="&#x425;" horiz-adv-x="808" 
d="M-14 35l38 2q29 2 58.5 31t70.5 77l202 236l-239 316q-5 6 -9 10.5t-9.5 7t-14 4t-21.5 2.5l-33 2v35h299v-35l-45 -2q-28 -2 -37 -9t6 -27l168 -222l119 152q20 25 35 45t21 33.5t1 21t-24 7.5l-44 1v35h245v-35l-38 -2q-29 -2 -59 -31t-70 -77l-157 -188l274 -364
q5 -6 9 -10.5t9.5 -7t14 -4t21.5 -2.5l33 -2v-35h-299v35l45 2q28 2 37 9t-6 27l-204 270l-163 -200q-20 -25 -35 -44.5t-21 -33.5t-1.5 -21.5t24.5 -7.5l44 -1v-35h-245v35z" />
    <glyph glyph-name="uni0426" unicode="&#x426;" horiz-adv-x="898" 
d="M868 -159h-30l-14 65q-8 35 -21 54t-38.5 28t-67 10.5t-106.5 1.5h-536v35l36 2q21 1 32.5 4t17 10.5t7 21.5t1.5 38v536q0 24 -1.5 38t-7 21.5t-17 10.5t-32.5 4l-36 2v35h292v-35l-36 -2q-21 -1 -32.5 -4t-17 -10.5t-7 -21.5t-1.5 -38v-535q0 -22 3.5 -36t13.5 -22
t26.5 -11t43.5 -3h226q27 0 43.5 3t26.5 11t13.5 22t3.5 36v535q0 24 -1.5 38t-7 21.5t-17 10.5t-32.5 4l-36 2v35h292v-35l-36 -2q-21 -1 -32.5 -4t-17 -10.5t-7 -21.5t-1.5 -38v-536q0 -23 1.5 -37t7 -21.5t17 -10t32.5 -2.5h45z" />
    <glyph glyph-name="uni0427" unicode="&#x427;" horiz-adv-x="826" 
d="M109 647q0 24 -1.5 38t-7 21.5t-17 10.5t-32.5 4l-36 2v35h292v-35l-36 -2q-21 -1 -32.5 -4t-17 -10.5t-7 -21.5t-1.5 -38v-87q0 -53 6 -91t26 -62.5t57 -36t99 -11.5t101 6.5t71 14.5v267q0 24 -1.5 38t-7 21.5t-17 10.5t-32.5 4l-36 2v35h292v-35l-36 -2
q-21 -1 -32.5 -4t-17 -10.5t-7 -21.5t-1.5 -38v-536q0 -24 1.5 -38t7 -21.5t17 -10.5t32.5 -4l36 -2v-35h-292v35l36 2q21 1 32.5 4t17 10.5t7 21.5t1.5 38v222q-18 -5 -36.5 -9t-40.5 -7t-49 -4.5t-61 -1.5q-69 0 -121 11t-86.5 37.5t-52 70.5t-17.5 110v107z" />
    <glyph glyph-name="uni0428" unicode="&#x428;" horiz-adv-x="1210" 
d="M1155 0h-1100v35l36 2q21 1 32.5 4t17 10.5t7 21.5t1.5 38v536q0 24 -1.5 38t-7 21.5t-17 10.5t-32.5 4l-36 2v35h292v-35l-36 -2q-21 -1 -32.5 -4t-17 -10.5t-7 -21.5t-1.5 -38v-535q0 -22 3.5 -36t13.5 -22t26.5 -11t43.5 -3h213v607q0 24 -1.5 38t-7 21.5t-17 10.5
t-32.5 4l-36 2v35h292v-35l-36 -2q-21 -1 -32.5 -4t-17 -10.5t-7 -21.5t-1.5 -38v-607h213q27 0 43.5 3t26.5 11t13.5 22t3.5 36v535q0 24 -1.5 38t-7 21.5t-17 10.5t-32.5 4l-36 2v35h292v-35l-36 -2q-21 -1 -32.5 -4t-17 -10.5t-7 -21.5t-1.5 -38v-536q0 -24 1.5 -38
t7 -21.5t17 -10.5t32.5 -4l36 -2v-35z" />
    <glyph glyph-name="uni0429" unicode="&#x429;" horiz-adv-x="1202" 
d="M1172 -159h-30l-14 65q-8 35 -21 54t-38.5 28t-67 10.5t-106.5 1.5h-840v35l36 2q21 1 32.5 4t17 10.5t7 21.5t1.5 38v536q0 24 -1.5 38t-7 21.5t-17 10.5t-32.5 4l-36 2v35h292v-35l-36 -2q-21 -1 -32.5 -4t-17 -10.5t-7 -21.5t-1.5 -38v-535q0 -22 3.5 -36t13.5 -22
t26.5 -11t43.5 -3h213v607q0 24 -1.5 38t-7 21.5t-17 10.5t-32.5 4l-36 2v35h292v-35l-36 -2q-21 -1 -32.5 -4t-17 -10.5t-7 -21.5t-1.5 -38v-607h213q27 0 43.5 3t26.5 11t13.5 22t3.5 36v535q0 24 -1.5 38t-7 21.5t-17 10.5t-32.5 4l-36 2v35h292v-35l-36 -2
q-21 -1 -32.5 -4t-17 -10.5t-7 -21.5t-1.5 -38v-536q0 -23 1.5 -37t7 -21.5t17 -10t32.5 -2.5h45z" />
    <glyph glyph-name="uni042A" unicode="&#x42a;" horiz-adv-x="787" 
d="M762 232q0 -56 -22 -99t-63 -72.5t-98.5 -45t-127.5 -15.5h-296v35l36 2q21 1 32.5 4t17 10.5t7 21.5t1.5 38v607q-48 -1 -78.5 -4.5t-50 -13t-31 -28t-20.5 -48.5l-14 -45h-30l8 181l291 -2h123v-35l-36 -2q-21 -1 -32.5 -4t-17 -10.5t-7 -21.5t-1.5 -38v-211h99
q70 0 127 -14t97.5 -40.5t63 -64.5t22.5 -85zM353 110q0 -43 19 -57.5t69 -14.5q105 0 155.5 43.5t50.5 127.5q0 39 -11 72t-37.5 58t-71.5 39t-113 14h-61v-282z" />
    <glyph glyph-name="uni042B" unicode="&#x42b;" horiz-adv-x="1017" 
d="M347 758v-35l-36 -2q-21 -1 -32.5 -4t-17 -10.5t-7 -21.5t-1.5 -38v-211h99q70 0 127 -14t97.5 -40.5t63 -64.5t22.5 -85q0 -56 -22 -99t-63 -72.5t-98.5 -45t-127.5 -15.5h-296v35l36 2q21 1 32.5 4t17 10.5t7 21.5t1.5 38v536q0 24 -1.5 38t-7 21.5t-17 10.5t-32.5 4
l-36 2v35h292zM253 110q0 -43 19 -57.5t69 -14.5q105 0 155.5 43.5t50.5 127.5q0 39 -11 72t-37.5 58t-71.5 39t-113 14h-61v-282zM764 647q0 24 -1.5 38t-7 21.5t-17 10.5t-32.5 4l-36 2v35h292v-35l-36 -2q-21 -1 -32.5 -4t-17 -10.5t-7 -21.5t-1.5 -38v-536
q0 -24 1.5 -38t7 -21.5t17 -10.5t32.5 -4l36 -2v-35h-292v35l36 2q21 1 32.5 4t17 10.5t7 21.5t1.5 38v536z" />
    <glyph glyph-name="uni042C" unicode="&#x42c;" horiz-adv-x="687" 
d="M347 758v-35l-36 -2q-21 -1 -32.5 -4t-17 -10.5t-7 -21.5t-1.5 -38v-211h99q70 0 127 -14t97.5 -40.5t63 -64.5t22.5 -85q0 -56 -22 -99t-63 -72.5t-98.5 -45t-127.5 -15.5h-296v35l36 2q21 1 32.5 4t17 10.5t7 21.5t1.5 38v536q0 24 -1.5 38t-7 21.5t-17 10.5t-32.5 4
l-36 2v35h292zM253 110q0 -43 19 -57.5t69 -14.5q105 0 155.5 43.5t50.5 127.5q0 39 -11 72t-37.5 58t-71.5 39t-113 14h-61v-282z" />
    <glyph glyph-name="uni042D" unicode="&#x42d;" horiz-adv-x="767" 
d="M326 779q81 0 153 -29.5t125 -82t84 -125.5t31 -159t-31.5 -159t-85 -125.5t-125 -82t-151.5 -29.5q-84 0 -143.5 12t-104.5 26l-41 186h27l66 -112q13 -22 34.5 -36t48.5 -21.5t59 -10t67 -2.5q53 0 100 20.5t82 61t55.5 101.5t20.5 143v2h-208q-20 0 -35.5 -1.5
t-26.5 -8.5t-19 -21.5t-14 -40.5l-9 -39h-30v268h30l9 -39q6 -26 14 -40.5t19 -21.5t26.5 -8.5t35.5 -1.5h206q-5 78 -27.5 140t-59 105t-86 66t-109.5 23q-27 0 -52.5 -3t-48 -11t-40.5 -21.5t-30 -34.5l-58 -105h-27l33 182q35 12 92.5 23.5t143.5 11.5z" />
    <glyph glyph-name="uni042E" unicode="&#x42e;" horiz-adv-x="1199" 
d="M149 647q0 24 -1.5 38t-7 21.5t-17 10.5t-32.5 4l-36 2v35h292v-35l-36 -2q-21 -1 -32.5 -4t-17 -10.5t-7 -21.5t-1.5 -38v-238h133q4 81 36.5 149t84 117t119 76.5t142.5 27.5q79 0 149 -29.5t122 -82t82 -125.5t30 -159t-30.5 -159t-83 -125.5t-122 -82t-147.5 -29.5
q-77 0 -144.5 27.5t-119 77t-83 118.5t-35.5 151h-133v-250q0 -24 1.5 -38t7 -21.5t17 -10.5t32.5 -4l36 -2v-35h-292v35l36 2q21 1 32.5 4t17 10.5t7 21.5t1.5 38v536zM755 737q-51 0 -96 -20.5t-79 -61t-53.5 -101.5t-19.5 -143q0 -89 19.5 -159.5t55.5 -120t86.5 -76
t112.5 -26.5q51 0 96 20.5t79 61t53.5 101.5t19.5 143q0 89 -19.5 159.5t-55.5 120t-86.5 76t-112.5 26.5z" />
    <glyph glyph-name="uni042F" unicode="&#x42f;" horiz-adv-x="764" 
d="M410 350l-228 -350h-179v35l23 1q30 2 50 14.5t45 48.5l184 267q-54 9 -89.5 27.5t-57 42t-30 51t-8.5 55.5q0 50 24 90t65.5 68t97 43t118.5 15h284v-35l-36 -2q-21 -1 -32.5 -4t-17 -10.5t-7 -21.5t-1.5 -38v-536q0 -24 1.5 -38t7 -21.5t17 -10.5t32.5 -4l36 -2v-35
h-302v37l32 1q26 1 40.5 2.5t21.5 8.5t8.5 21.5t1.5 40.5v239h-101zM511 697q0 7 -2.5 11.5t-10 7t-23 3t-40.5 0.5q-57 0 -95.5 -13t-62.5 -34t-34 -48t-10 -55q0 -35 9.5 -68t32.5 -58.5t62 -41t98 -15.5q17 0 37.5 0.5t38.5 2.5v308z" />
    <glyph glyph-name="uni0402" unicode="&#x402;" horiz-adv-x="885" 
d="M184 35l42 1q26 1 40.5 2.5t21.5 9t8.5 22t1.5 41.5v607h-1q-65 0 -105.5 -2t-65.5 -11t-38.5 -28t-23.5 -53l-14 -45h-27l11 210h8q14 -10 28 -16t36 -9.5t56.5 -4.5t90.5 -1h234q55 0 90 1t57 4.5t36 9.5t28 16h8l11 -210h-27l-14 45q-11 34 -24 53t-38 28t-65.5 11
t-105.5 2h-41v-340q22 17 47 31t46 24q20 10 51.5 17.5t70.5 7.5q46 0 85 -10t67.5 -33t44.5 -62.5t16 -97.5v-43q0 -37 -2 -66t-8 -52t-17.5 -42.5t-30.5 -36.5q-13 -12 -31 -26t-38.5 -29.5t-42 -31t-40.5 -28.5l-18 27q34 31 57.5 55t38.5 51.5t21.5 64.5t6.5 94v36
q0 73 -38.5 117t-130.5 44q-54 0 -92.5 -17.5t-62.5 -38.5v-222q0 -27 1.5 -41.5t7.5 -22t17.5 -9t31.5 -2.5l32 -1v-35h-308v35z" />
    <glyph glyph-name="uni0403" unicode="&#x403;" horiz-adv-x="638" 
d="M253 111q0 -26 1.5 -40.5t8.5 -21.5t21.5 -9t40.5 -2l52 -1v-37h-322v35l36 2q21 1 32.5 4t17 10.5t7 21.5t1.5 38v536q0 24 -1.5 38t-7 21.5t-17 10.5t-32.5 4l-36 2v35h259l291 2l8 -181h-30l-14 45q-11 34 -24 53t-38 28t-65.5 11t-105.5 2h-63q-20 0 -20 -20v-587z
M571 969l-241 -126h-21l103 129h159v-3z" />
    <glyph glyph-name="uni0404" unicode="&#x404;" horiz-adv-x="766" 
d="M476 31q54 0 95 13.5t65 54.5l66 112h27l-41 -186q-45 -14 -104 -26t-142 -12q-84 0 -156 31.5t-125 85.5t-83.5 126t-30.5 153t31 153t85.5 126t128.5 85.5t161 31.5q83 0 138 -12t89 -23l33 -182h-27l-58 105q-12 21 -30.5 34t-42 20.5t-50 10.5t-54.5 3
q-53 0 -103.5 -19.5t-90 -59.5t-64 -101t-24.5 -143v-3h202q20 0 35 1.5t26.5 8.5t19.5 21.5t14 40.5l9 39h30v-268h-30l-9 39q-6 26 -14 40.5t-19.5 21.5t-26.5 8.5t-35 1.5h-200q6 -76 31 -137t65 -104.5t93 -67t116 -23.5z" />
    <glyph glyph-name="uni0405" unicode="&#x405;" horiz-adv-x="600" 
d="M286 -13q-54 0 -102 11t-91 28l-41 207l27 7l67 -129q23 -44 58 -62t85 -18q36 0 67 7.5t53.5 24t35.5 42.5t13 62q0 30 -11 55t-30 45t-43.5 35.5t-51.5 26.5l-71 30q-92 38 -133 91.5t-41 122.5q0 46 18.5 84t50 65t72.5 42t87 15q95 0 164 -26l33 -172l-26 -9l-64 104
q-20 32 -46.5 45.5t-64.5 13.5q-29 0 -54 -7t-44.5 -21.5t-30.5 -37.5t-11 -55q0 -54 33 -91t89 -60l71 -30q42 -18 78 -38t62 -45.5t40.5 -59t14.5 -78.5q0 -52 -23 -93.5t-60.5 -71t-84.5 -45t-95 -15.5z" />
    <glyph glyph-name="uni0406" unicode="&#x406;" horiz-adv-x="402" 
d="M149 647q0 24 -1.5 38t-7 21.5t-17 10.5t-32.5 4l-36 2v35h292v-35l-36 -2q-21 -1 -32.5 -4t-17 -10.5t-7 -21.5t-1.5 -38v-536q0 -24 1.5 -38t7 -21.5t17 -10.5t32.5 -4l36 -2v-35h-292v35l36 2q21 1 32.5 4t17 10.5t7 21.5t1.5 38v536z" />
    <glyph glyph-name="uni0407" unicode="&#x407;" horiz-adv-x="402" 
d="M149 647q0 24 -1.5 38t-7 21.5t-17 10.5t-32.5 4l-36 2v35h292v-35l-36 -2q-21 -1 -32.5 -4t-17 -10.5t-7 -21.5t-1.5 -38v-536q0 -24 1.5 -38t7 -21.5t17 -10.5t32.5 -4l36 -2v-35h-292v35l36 2q21 1 32.5 4t17 10.5t7 21.5t1.5 38v536zM73 846q-26 0 -43 17t-17 43
q0 27 17 44.5t43 17.5t43 -17.5t17 -44.5q0 -26 -17 -43t-43 -17zM329 846q-26 0 -43 17t-17 43q0 27 17 44.5t43 17.5t43 -17.5t17 -44.5q0 -26 -17 -43t-43 -17z" />
    <glyph glyph-name="uni0408" unicode="&#x408;" horiz-adv-x="364" 
d="M26 -73q34 31 57.5 55t38.5 51.5t21.5 64.5t6.5 94v455q0 24 -1.5 38t-7 21.5t-17 10.5t-32.5 4l-36 2v35h292v-35l-36 -2q-21 -1 -32.5 -4t-17 -10.5t-7 -21.5t-1.5 -38v-435q0 -37 -2 -66t-8 -52t-17.5 -42.5t-30.5 -36.5q-13 -12 -31 -26t-38.5 -29.5t-42 -31
t-40.5 -28.5z" />
    <glyph glyph-name="uni0409" unicode="&#x409;" horiz-adv-x="1067" 
d="M1042 232q0 -56 -22 -99t-63 -72.5t-98.5 -45t-127.5 -15.5h-296v35l36 2q21 1 32.5 4t17 10.5t7 21.5t1.5 38v585q0 14 -4 18t-18 4h-214q-19 0 -19 -19q0 -140 -6 -247.5t-17.5 -186t-28 -131.5t-37.5 -85t-46.5 -45.5t-54.5 -13.5q-27 0 -45.5 15t-18.5 44q0 8 1.5 16
t6.5 16q20 5 49.5 14t51.5 23q14 9 30.5 37t31 87.5t24 157.5t9.5 247q0 24 -1.5 38t-7 21.5t-17 10.5t-32.5 4l-36 2v35h597v-35l-36 -2q-21 -1 -32.5 -4t-17 -10.5t-7 -21.5t-1.5 -38v-214h99q70 0 127 -13.5t97.5 -39.5t63 -63.5t22.5 -84.5zM633 395v-285
q0 -43 19 -57.5t69 -14.5q105 0 155.5 43.5t50.5 127.5q0 39 -11 72.5t-37.5 59t-71.5 40t-113 14.5h-61z" />
    <glyph glyph-name="uni040A" unicode="&#x40a;" horiz-adv-x="1170" 
d="M149 647q0 24 -1.5 38t-7 21.5t-17 10.5t-32.5 4l-36 2v35h292v-35l-36 -2q-21 -1 -32.5 -4t-17 -10.5t-7 -21.5t-1.5 -38v-214h359v214q0 24 -1.5 38t-7 21.5t-17 10.5t-32.5 4l-36 2v35h292v-35l-36 -2q-21 -1 -32.5 -4t-17 -10.5t-7 -21.5t-1.5 -38v-214h119
q70 0 127 -13.5t97.5 -39t63 -63t22.5 -85.5q0 -57 -22 -100t-63 -72.5t-98.5 -44.5t-127.5 -15h-316v35l36 2q21 1 32.5 4t17 10.5t7 21.5t1.5 38v278h-359v-278q0 -24 1.5 -38t7 -21.5t17 -10.5t32.5 -4l36 -2v-35h-292v35l36 2q21 1 32.5 4t17 10.5t7 21.5t1.5 38v536z
M716 389v-279q0 -21 4.5 -35t16 -22.5t30 -11.5t47.5 -3q112 0 164 42.5t52 128.5q0 40 -11 73t-37.5 57t-71.5 37t-113 13h-81z" />
    <glyph glyph-name="uni040B" unicode="&#x40b;" horiz-adv-x="949" 
d="M184 35l42 1q26 1 40.5 2.5t21.5 9t8.5 22t1.5 41.5v607h-1q-65 0 -105.5 -2t-65.5 -11t-38.5 -28t-23.5 -53l-14 -45h-27l11 210h8q14 -10 28 -16t36 -9.5t56.5 -4.5t90.5 -1h234q55 0 90 1t57 4.5t36 9.5t28 16h8l11 -210h-27l-14 45q-11 34 -24 53t-38 28t-65.5 11
t-105.5 2h-41v-340q22 16 46 30t41 22q25 11 57.5 19.5t70.5 8.5q51 0 90.5 -10t67 -33.5t41.5 -62.5t14 -97v-142q0 -26 1.5 -40.5t7 -22t17 -10t31.5 -3.5l37 -2v-35h-198v213q0 41 -8.5 73.5t-28 55.5t-52 35t-80.5 12q-53 0 -92 -16.5t-63 -39.5v-222q0 -27 1.5 -41.5
t7.5 -22t17.5 -9.5t31.5 -2l51 -1v-35h-327v35z" />
    <glyph glyph-name="uni040C" unicode="&#x40c;" horiz-adv-x="807" 
d="M306 350l-53 -2v-237q0 -24 1.5 -38t7 -21.5t17 -10.5t32.5 -4l36 -2v-35h-292v35l36 2q21 1 32.5 4t17 10.5t7 21.5t1.5 38v536q0 24 -1.5 38t-7 21.5t-17 10.5t-32.5 4l-36 2v35h292v-35l-36 -2q-21 -1 -32.5 -4t-17 -10.5t-7 -21.5t-1.5 -38v-270q18 5 32 16t36 34
l173 183q32 34 47.5 55.5t15.5 34.5t-15.5 18t-46.5 5h-14v35h278v-35l-17 -1q-24 -2 -42.5 -5.5t-37 -14t-40.5 -30t-53 -51.5l-190 -195l306 -343q18 -20 39.5 -32t50.5 -14l35 -2v-35h-202zM656 969l-241 -126h-21l103 129h159v-3z" />
    <glyph glyph-name="uni040E" unicode="&#x40e;" horiz-adv-x="762" 
d="M507 357q-63 -116 -102 -188.5t-68 -113t-54.5 -54.5t-61.5 -14q-34 0 -54.5 15t-20.5 41q0 8 2.5 17.5t9.5 15.5q17 1 35.5 2t35 3t30 4.5t22.5 6.5q14 7 33 31t38 53l-258 501q-8 14 -14 22.5t-12.5 13t-14 6t-17.5 2.5l-33 2v35h282v-35l-48 -2q-14 -1 -23 -3t-13 -7
t-2 -15.5t11 -27.5l199 -392l180 339q16 30 21 49.5t1.5 31.5t-15 17.5t-28.5 6.5l-44 3v35h245v-35l-23 -2q-15 -1 -25.5 -5t-21 -15.5t-22.5 -32t-31 -55.5zM321 990q0 -26 4 -48.5t13.5 -39t26.5 -26.5t43 -10q27 0 43 10t24.5 26.5t11 39t2.5 48.5h86q0 -74 -45.5 -117
t-121.5 -43q-44 0 -76.5 13t-54 34.5t-32 50.5t-10.5 62h86z" />
    <glyph glyph-name="uni040F" unicode="&#x40f;" horiz-adv-x="886" 
d="M420 -94q-4 31 -11 49.5t-24.5 28.5t-49.5 13t-84 3h-196v35l36 2q21 1 32.5 4t17 10.5t7 21.5t1.5 38v536q0 24 -1.5 38t-7 21.5t-17 10.5t-32.5 4l-36 2v35h292v-35l-36 -2q-21 -1 -32.5 -4t-17 -10.5t-7 -21.5t-1.5 -38v-535q0 -22 3.5 -36t13.5 -22t26.5 -11t43.5 -3
h206q27 0 43.5 3t26.5 11t13.5 22t3.5 36v535q0 24 -1.5 38t-7 21.5t-17 10.5t-32.5 4l-36 2v35h292v-35l-36 -2q-21 -1 -32.5 -4t-17 -10.5t-7 -21.5t-1.5 -38v-536q0 -24 1.5 -38t7 -21.5t17 -10.5t32.5 -4l36 -2v-35h-196q-53 0 -84.5 -3t-49 -13t-24.5 -28.5t-11 -49.5
l-8 -65h-30z" />
    <glyph glyph-name="uni0490" unicode="&#x490;" horiz-adv-x="628" 
d="M336 758q62 0 102 1.5t64.5 10.5t36.5 28t20 54l14 65h30l-8 -199h-322q-20 0 -20 -20v-587q0 -26 1.5 -40.5t8.5 -21.5t21.5 -9t40.5 -2l52 -1v-37h-322v35l36 2q21 1 32.5 4t17 10.5t7 21.5t1.5 38v536q0 24 -1.5 38t-7 21.5t-17 10.5t-32.5 4l-36 2v35h281z" />
    <glyph glyph-name="uni0462" unicode="&#x462;" horiz-adv-x="803" 
d="M463 758v-35l-36 -2q-21 -1 -32.5 -4t-17 -10.5t-7 -21.5t-1.5 -38v-19h25q55 0 90 1t57 4.5t36 9.5t28 16h8l11 -210h-30l-14 45q-10 33 -22.5 52t-35 28.5t-59 12t-94.5 1.5v-225h99q154 0 231.5 -44.5t78.5 -121.5q1 -95 -78 -146t-233 -51h-296v35l36 2q21 1 32.5 4
t17 10.5t7 21.5t1.5 38v477q-59 0 -95 -2.5t-58.5 -11.5t-35 -28t-22.5 -52l-14 -45h-30l11 210h8q14 -10 28 -16t36 -9.5t56.5 -4.5t90.5 -1h25v19q0 24 -1.5 38t-7 21.5t-17 10.5t-32.5 4l-36 2v35h292zM369 110q0 -43 19 -57.5t69 -14.5q58 0 97.5 8.5t63.5 26t34.5 43
t10.5 58.5q0 30 -8.5 56.5t-33.5 46t-70.5 31t-120.5 11.5h-61v-209z" />
    <glyph glyph-name="uni0472" unicode="&#x472;" horiz-adv-x="882" 
d="M441 779q81 0 153 -29.5t125 -82t84 -125.5t31 -159t-31.5 -159t-85 -125.5t-125 -82t-151.5 -29.5q-81 0 -153 29.5t-125 82t-84 125.5t-31 159t31.5 159t85 125.5t125 82t151.5 29.5zM712 345q-59 -19 -106.5 -20.5t-89 6.5t-79.5 21t-78.5 22t-86 9.5t-101.5 -16.5
q5 -79 27.5 -142t59 -106.5t86.5 -66.5t110 -23q52 0 98.5 19.5t81.5 59t55.5 99t22.5 138.5zM428 737q-53 0 -100 -20.5t-82 -61t-55.5 -101.5t-20.5 -143v-11q78 29 138.5 37t108.5 3t86.5 -17.5t72.5 -24.5t66 -19.5t69 -0.5q-3 84 -24 150.5t-58 113t-88 71t-113 24.5z
" />
    <glyph glyph-name="uni0474" unicode="&#x474;" horiz-adv-x="743" 
d="M389 -23h-32l-276 700q-6 15 -11 23.5t-11 13t-14.5 5.5t-21.5 2l-33 2v35h282v-35l-48 -2q-14 -1 -22.5 -2.5t-12 -6.5t-1.5 -15.5t9 -28.5l203 -528l190 513q14 37 28.5 61.5t31 39t35 20t40.5 5.5q34 0 54.5 -15t20.5 -41q0 -8 -2.5 -17.5t-9.5 -15.5q-17 -1 -35 -2
t-34.5 -3t-30 -4.5t-22.5 -6.5q-7 -3 -14.5 -17t-18.5 -44z" />
    <glyph glyph-name="uni0492" unicode="&#x492;" horiz-adv-x="638" 
d="M253 111q0 -26 1.5 -40.5t8.5 -21.5t21.5 -9t40.5 -2l52 -1v-37h-322v35l36 2q21 1 32.5 4t17 10.5t7 21.5t1.5 38v536q0 24 -1.5 38t-7 21.5t-17 10.5t-32.5 4l-36 2v35h259l291 2l8 -181h-30l-14 45q-11 34 -24 53t-38 28t-65.5 11t-105.5 2h-63q-20 0 -20 -20v-587z
M55 410h375v-48h-375v48z" />
    <glyph glyph-name="uni0496" unicode="&#x496;" horiz-adv-x="1174" 
d="M688 721q-21 -1 -32.5 -4t-17 -10.5t-7 -21.5t-1.5 -38v-272q11 2 20.5 5t18.5 9t18.5 15t20.5 23l143 183q28 36 43.5 58.5t16 34.5t-13.5 16t-45 4h-14v35h278v-35l-17 -1q-24 -2 -43.5 -5t-39.5 -13t-42 -29.5t-50 -53.5l-161 -192l260 -322q20 -25 35 -38.5t30.5 -20
t34.5 -7.5t48 -1l8 -199h-30l-14 65q-8 34 -18 53t-28 28t-45 11t-68 2h-11l-274 350l-61 -2v-237q0 -24 1.5 -38t7 -21.5t17 -10.5t32.5 -4l36 -2v-35h-292v35l36 2q21 1 32.5 4t17 10.5t7 21.5t1.5 38v237l-61 2l-274 -350h-194v35l35 2q31 2 51 13t37 33l273 338
l-171 200q-29 34 -49.5 53.5t-38.5 29.5t-35.5 13t-41.5 5l-17 1v35h278v-35h-14q-31 0 -45.5 -4t-13.5 -16t16 -34.5t44 -58.5l143 -183q22 -29 38.5 -38.5t39.5 -13.5v272q0 24 -1.5 38t-7 21.5t-17 10.5t-32.5 4l-36 2v35h292v-35z" />
    <glyph glyph-name="uni049A" unicode="&#x49a;" horiz-adv-x="815" 
d="M820 -159h-30l-14 65q-8 34 -18 53t-28 28t-45 11t-68 2h-9l-302 350l-53 -2v-237q0 -24 1.5 -38t7 -21.5t17 -10.5t32.5 -4l36 -2v-35h-292v35l36 2q21 1 32.5 4t17 10.5t7 21.5t1.5 38v536q0 24 -1.5 38t-7 21.5t-17 10.5t-32.5 4l-36 2v35h292v-35l-36 -2
q-21 -1 -32.5 -4t-17 -10.5t-7 -21.5t-1.5 -38v-270q18 5 32 16t36 34l173 183q32 34 47.5 55.5t15.5 34.5t-15.5 18t-46.5 5h-14v35h278v-35l-17 -1q-24 -2 -42.5 -5.5t-37 -14t-40.5 -30t-53 -51.5l-190 -195l297 -333q17 -19 30.5 -29.5t28 -16t32.5 -6.5t45 -1z" />
    <glyph glyph-name="uni04A2" unicode="&#x4a2;" horiz-adv-x="918" 
d="M888 -159h-30l-14 65q-8 35 -21 54t-38.5 28t-67 10.5t-106.5 1.5h-32v35l36 2q21 1 32.5 4t17 10.5t7 21.5t1.5 38v250h-420v-250q0 -24 1.5 -38t7 -21.5t17 -10.5t32.5 -4l36 -2v-35h-292v35l36 2q21 1 32.5 4t17 10.5t7 21.5t1.5 38v536q0 24 -1.5 38t-7 21.5
t-17 10.5t-32.5 4l-36 2v35h292v-35l-36 -2q-21 -1 -32.5 -4t-17 -10.5t-7 -21.5t-1.5 -38v-238h420v238q0 24 -1.5 38t-7 21.5t-17 10.5t-32.5 4l-36 2v35h292v-35l-36 -2q-21 -1 -32.5 -4t-17 -10.5t-7 -21.5t-1.5 -38v-536q0 -23 1.5 -37t7 -21.5t17 -10t32.5 -2.5h45z
" />
    <glyph glyph-name="uni04AE" unicode="&#x4ae;" horiz-adv-x="741" 
d="M202 37l42 1q26 1 40.5 2.5t21.5 8.5t8.5 21.5t1.5 40.5v222l-229 364q-8 14 -16 18t-34 6l-33 2v35h289v-35l-48 -2q-28 -2 -38 -8t4 -28l190 -301l151 231q36 55 36 80t-43 26l-39 2v35h245v-35l-33 -2q-16 0 -27 -5t-22.5 -17t-26 -33t-35.5 -53l-187 -282v-220
q0 -26 1.5 -40.5t8.5 -21.5t21.5 -8.5t40.5 -2.5l42 -1v-37h-332v37z" />
    <glyph glyph-name="uni04B0" unicode="&#x4b0;" horiz-adv-x="741" 
d="M202 37l42 1q26 1 40.5 2.5t21.5 8.5t8.5 21.5t1.5 40.5v222l-229 364q-8 14 -16 18t-34 6l-33 2v35h289v-35l-48 -2q-28 -2 -38 -8t4 -28l190 -301l151 231q36 55 36 80t-43 26l-39 2v35h245v-35l-33 -2q-16 0 -27 -5t-22.5 -17t-26 -33t-35.5 -53l-187 -282v-220
q0 -26 1.5 -40.5t8.5 -21.5t21.5 -8.5t40.5 -2.5l42 -1v-37h-332v37zM114 334h505v-48h-505v48z" />
    <glyph glyph-name="uni04B2" unicode="&#x4b2;" horiz-adv-x="840" 
d="M845 -159h-30l-14 65q-8 34 -18 53t-28 28t-45 11t-68 2h-131v35l45 2q28 2 37 9t-6 27l-204 270l-163 -200q-20 -25 -35 -44.5t-21 -33.5t-1.5 -21.5t24.5 -7.5l44 -1v-35h-245v35l38 2q29 2 58.5 31t70.5 77l202 236l-239 316q-5 6 -9 10.5t-9.5 7t-14 4t-21.5 2.5
l-33 2v35h299v-35l-45 -2q-28 -2 -37 -9t6 -27l168 -222l119 152q20 25 35 45t21 33.5t1 21t-24 7.5l-44 1v35h245v-35l-38 -2q-29 -2 -59 -31t-70 -77l-157 -188l230 -307q20 -27 35 -42.5t31.5 -23.5t38 -10t53.5 -2z" />
    <glyph glyph-name="uni04B6" unicode="&#x4b6;" horiz-adv-x="818" 
d="M479 0v35l36 2q21 1 32.5 4t17 10.5t7 21.5t1.5 38v222q-18 -5 -36.5 -9t-40.5 -7t-49 -4.5t-61 -1.5q-69 0 -121 11t-86.5 37.5t-52 70.5t-17.5 110v107q0 24 -1.5 38t-7 21.5t-17 10.5t-32.5 4l-36 2v35h292v-35l-36 -2q-21 -1 -32.5 -4t-17 -10.5t-7 -21.5t-1.5 -38
v-87q0 -53 6 -91t26 -62.5t57 -36t99 -11.5t101 6.5t71 14.5v267q0 24 -1.5 38t-7 21.5t-17 10.5t-32.5 4l-36 2v35h292v-35l-36 -2q-21 -1 -32.5 -4t-17 -10.5t-7 -21.5t-1.5 -38v-536q0 -23 1.5 -37t7 -21.5t17 -10t32.5 -2.5h45l8 -199h-30l-14 65q-8 35 -21 54t-38.5 28
t-67 10.5t-106.5 1.5h-32z" />
    <glyph glyph-name="uni04BA" unicode="&#x4ba;" horiz-adv-x="826" 
d="M716.956 110.993q0 -23.998 1.5 -37.998q1.5 -13.999 7 -21.498q5.49902 -7.5 16.999 -10.5q11.499 -2.99902 32.498 -3.99902l35.9971 -2v-34.998h-291.981v34.998l35.9971 2q20.999 1 32.498 3.99902q11.5 3 16.999 10.5q5.5 7.49902 7 21.498q1.5 14 1.5 37.998
v86.9951q0 52.9961 -6 90.9941t-25.998 62.4961q-19.999 24.498 -56.9971 35.998q-36.9971 11.499 -98.9941 11.499q-61.9961 0 -100.993 -6.5q-38.998 -6.49902 -70.9961 -14.499v-266.983q0 -23.998 1.5 -37.998q1.5 -13.999 7 -21.498q5.49902 -7.5 16.999 -10.5
q11.499 -2.99902 32.498 -3.99902l35.9971 -2v-34.998h-291.981v34.998l35.9971 2q20.999 1 32.498 3.99902q11.5 3 16.999 10.5q5.5 7.49902 7 21.498q1.5 14 1.5 37.998v535.968q0 23.998 -1.5 37.9971t-7 21.499q-5.49902 7.49902 -16.999 10.499q-11.499 3 -32.498 4
l-35.9971 2v34.998h291.981v-34.998l-35.9971 -2q-20.999 -1 -32.498 -4q-11.5 -3 -16.999 -10.499q-5.5 -7.5 -7 -21.499t-1.5 -37.9971v-221.987q17.999 5 36.498 9t40.4971 6.99902q21.999 3 48.9971 4.5q26.999 1.5 60.9961 1.5q68.9961 0 120.993 -10.999
q51.9971 -11 86.4951 -37.498q34.4971 -26.498 51.9961 -70.4951q17.499 -43.998 17.499 -109.994v-106.993z" />
    <glyph glyph-name="uni04C0" unicode="&#x4c0;" horiz-adv-x="402" 
d="M149 647q0 24 -1.5 38t-7 21.5t-17 10.5t-32.5 4l-36 2v35h292v-35l-36 -2q-21 -1 -32.5 -4t-17 -10.5t-7 -21.5t-1.5 -38v-536q0 -24 1.5 -38t7 -21.5t17 -10.5t32.5 -4l36 -2v-35h-292v35l36 2q21 1 32.5 4t17 10.5t7 21.5t1.5 38v536z" />
    <glyph glyph-name="uni04D8" unicode="&#x4d8;" horiz-adv-x="791" 
d="M380 -13q-66 0 -124 21t-103.5 62.5t-74.5 101.5t-36 138h582q1 11 1.5 21.5t0.5 20.5q0 77 -17.5 142t-52 112.5t-86 74.5t-119.5 27q-36 0 -72.5 -6.5t-72.5 -24t-69 -49t-61 -81.5l-31 14q24 58 59.5 101t79 70.5t92.5 41t99 13.5q90 0 159 -30.5t115.5 -84.5
t70 -127.5t23.5 -158.5q0 -89 -28 -162.5t-77 -126t-115.5 -81.5t-142.5 -29zM393 27q53 0 93 22t68.5 57.5t44.5 78.5t21 85h-455q6 -64 27.5 -110t53.5 -75.5t70 -43.5t77 -14z" />
    <glyph glyph-name="uni04E2" unicode="&#x4e2;" horiz-adv-x="906" 
d="M149 647q0 24 -1.5 38t-7 21.5t-17 10.5t-32.5 4l-36 2v35h292v-35l-36 -2q-21 -1 -32.5 -4t-17 -10.5t-7 -21.5t-1.5 -38v-465l400 465q0 24 -1.5 38t-7 21.5t-17 10.5t-32.5 4l-36 2v35h292v-35l-36 -2q-21 -1 -32.5 -4t-17 -10.5t-7 -22t-1.5 -39.5v-534
q0 -24 1.5 -38t7 -21.5t17 -10.5t32.5 -4l36 -2v-35h-292v35l36 2q21 1 32.5 4t17 10.5t7 21.5t1.5 38v469l-400 -465v-4q0 -24 1.5 -38t7 -21.5t17 -10.5t32.5 -4l36 -2v-35h-292v35l36 2q21 1 32.5 4t17 10.5t7 21.5t1.5 38v536zM321 939h294v-65h-294v65z" />
    <glyph glyph-name="uni04E8" unicode="&#x4e8;" horiz-adv-x="882" 
d="M441 779q81 0 153 -29.5t125 -82t84 -125.5t31 -159t-31.5 -159t-85 -125.5t-125 -82t-151.5 -29.5q-81 0 -153 29.5t-125 82t-84 125.5t-31 159t31.5 159t85 125.5t125 82t151.5 29.5zM454 29q53 0 100 20.5t82 61t55.5 101.5t20.5 143v6h-540q6 -78 28 -139.5
t59 -104.5t86 -65.5t109 -22.5zM428 737q-53 0 -100 -20.5t-82 -61t-55.5 -101.5t-20.5 -143v-2h540q-6 77 -28.5 138t-59.5 103t-86 64.5t-108 22.5z" />
    <glyph glyph-name="uni04EE" unicode="&#x4ee;" horiz-adv-x="762" 
d="M507 357q-63 -116 -102 -188.5t-68 -113t-54.5 -54.5t-61.5 -14q-34 0 -54.5 15t-20.5 41q0 8 2.5 17.5t9.5 15.5q17 1 35.5 2t35 3t30 4.5t22.5 6.5q14 7 33 31t38 53l-258 501q-8 14 -14 22.5t-12.5 13t-14 6t-17.5 2.5l-33 2v35h282v-35l-48 -2q-14 -1 -23 -3t-13 -7
t-2 -15.5t11 -27.5l199 -392l180 339q16 30 21 49.5t1.5 31.5t-15 17.5t-28.5 6.5l-44 3v35h245v-35l-23 -2q-15 -1 -25.5 -5t-21 -15.5t-22.5 -32t-31 -55.5zM242 939h294v-65h-294v65z" />
    <glyph glyph-name="uni0430" unicode="&#x430;" horiz-adv-x="527" 
d="M202 -13q-29 0 -56.5 11t-50 29.5t-36 43.5t-13.5 54q0 28 11.5 49t33.5 38t54.5 31.5t74.5 30.5q16 6 34 14t34.5 17.5t29.5 19.5t20 20v32q0 25 -9 43.5t-23.5 30.5t-32.5 18t-36 6q-32 0 -52.5 -10t-32.5 -26.5t-16.5 -39.5t-4.5 -48q-6 -3 -14 -4t-14 -1h-2
q-24 0 -38.5 12.5t-14.5 35.5q0 20 22 39.5t64 37.5q35 15 75.5 32t78.5 17q30 0 55.5 -6.5t44 -22.5t28.5 -43t9 -69l-5 -288q-1 -26 2.5 -32t20.5 -6t31.5 1t29.5 3l4 -30l-30 -12q-6 -3 -17 -7t-23 -7.5t-24 -6.5t-21 -3q-25 0 -36 14.5t-19 48.5q-16 -13 -33 -25.5
t-36 -23.5q-15 -8 -32 -13t-35 -5zM251 40q27 0 50.5 15t30.5 36l5 211q-18 -12 -39 -23t-41 -22q-21 -11 -41.5 -23t-36 -26t-25 -30.5t-9.5 -37.5q0 -26 10 -45t26 -31t34.5 -18t35.5 -6z" />
    <glyph glyph-name="uni0431" unicode="&#x431;" horiz-adv-x="601" 
d="M559 269q0 -62 -20 -113.5t-54.5 -89t-80.5 -58.5t-97 -21q-123 0 -190 87t-67 251q0 82 19.5 157.5t58.5 134t98.5 96t139.5 44.5q64 5 102.5 21t38.5 51h24q0 -36 -7.5 -64.5t-27 -49t-52.5 -32.5t-83 -16q-36 -3 -63 -5t-47 -5.5t-34 -9t-24 -14.5q-12 -11 -20.5 -23
t-13.5 -34.5t-7.5 -59t-2.5 -95.5q24 20 51 41.5t49 32.5q21 11 45.5 17t47.5 6q49 0 89 -18.5t68.5 -51.5t44 -78.5t15.5 -100.5zM311 28q77 0 112.5 51t35.5 148q0 48 -11 90t-33 73.5t-55 50t-76 18.5q-30 0 -65 -18.5t-70 -55.5v-49q0 -81 11.5 -139.5t33 -96t51.5 -55
t66 -17.5z" />
    <glyph glyph-name="uni0432" unicode="&#x432;" horiz-adv-x="564" 
d="M274 502q106 0 162.5 -28.5t56.5 -84.5q0 -25 -11 -44.5t-31 -33.5t-47.5 -24t-59.5 -16v-1q38 -3 71.5 -11t59 -23t40 -36.5t14.5 -49.5q0 -72 -63 -111t-184 -39h-242v35l42 2q26 2 32 10t6 24v360q0 15 -5.5 23.5t-32.5 10.5l-42 2v35h234zM230 465q-12 0 -16 -4.5
t-4 -15.5v-160h63q64 0 92 25.5t28 74.5q0 44 -28 62t-95 18h-40zM210 84q0 -29 14.5 -38.5t50.5 -9.5q78 0 113.5 23t35.5 76q0 25 -6.5 46t-23.5 36t-46 23.5t-74 8.5h-64v-165z" />
    <glyph glyph-name="uni0433" unicode="&#x433;" horiz-adv-x="453" 
d="M220 465q-12 0 -16 -4.5t-4 -15.5v-374q0 -16 6 -24.5t32 -9.5l62 -2v-35h-270v35l42 2q26 2 32 10t6 24v360q0 16 -6 24t-32 10l-42 2v35h206l190 2l7 -164h-30l-12 41q-9 30 -17.5 47t-24.5 25t-42.5 10t-70.5 2h-16z" />
    <glyph glyph-name="uni0434" unicode="&#x434;" horiz-adv-x="575" 
d="M205 0q-39 0 -63 -1t-38 -7t-21.5 -18.5t-14.5 -34.5l-23 -78h-30l6 176h56q36 57 55 158.5t19 235.5q0 16 -6 24t-32 10l-42 2v35h473v-35l-42 -2q-26 -2 -32 -10t-6 -24v-360q0 -16 5.5 -25t30.5 -9h39l6 -176h-30l-23 78q-7 22 -14.5 34.5t-21.5 18.5t-38 7t-63 1
h-150zM334 37q24 0 32 9t8 25v374q0 11 -4 15.5t-16 4.5h-137q-12 0 -16 -4.5t-4 -15.5q0 -144 -18.5 -249.5t-49.5 -158.5h205z" />
    <glyph glyph-name="uni0435" unicode="&#x435;" horiz-adv-x="530" 
d="M272 -13q-39 0 -79.5 16.5t-73.5 50t-54 83.5t-21 116q0 56 17.5 104.5t47.5 84t71 56t89 20.5q54 0 92.5 -17.5t65 -46.5t41 -66t20.5 -77h-352v-7q0 -56 15.5 -100.5t41.5 -75.5t61 -48t73 -17q28 0 51 8t41 19.5t30.5 23t19.5 19.5l23 -24l-18 -19q-50 -52 -96 -77.5
t-106 -25.5zM265 486q-32 0 -54.5 -12.5t-37.5 -32.5t-23 -44.5t-11 -48.5h241q-3 30 -10.5 55t-21 43.5t-34.5 29t-49 10.5z" />
    <glyph glyph-name="uni0451" unicode="&#x451;" horiz-adv-x="530" 
d="M272 -13q-39 0 -79.5 16.5t-73.5 50t-54 83.5t-21 116q0 56 17.5 104.5t47.5 84t71 56t89 20.5q54 0 92.5 -17.5t65 -46.5t41 -66t20.5 -77h-352v-7q0 -56 15.5 -100.5t41.5 -75.5t61 -48t73 -17q28 0 51 8t41 19.5t30.5 23t19.5 19.5l23 -24l-18 -19q-50 -52 -96 -77.5
t-106 -25.5zM265 486q-32 0 -54.5 -12.5t-37.5 -32.5t-23 -44.5t-11 -48.5h241q-3 30 -10.5 55t-21 43.5t-34.5 29t-49 10.5zM155 667q-23 0 -40 16t-17 42q0 25 17 41.5t40 16.5q25 0 41.5 -16.5t16.5 -41.5q0 -26 -16.5 -42t-41.5 -16zM390 667q-23 0 -40 16t-17 42
q0 25 17 41.5t40 16.5q25 0 41.5 -16.5t16.5 -41.5q0 -26 -16.5 -42t-41.5 -16z" />
    <glyph glyph-name="uni0436" unicode="&#x436;" horiz-adv-x="904" 
d="M300 284l-148 130q-14 13 -25.5 22.5t-22.5 15.5t-23 9.5t-28 4.5l-24 1v35h217v-35h-18q-42 0 -37 -13.5t45 -53.5l114 -114q16 -16 30.5 -21.5t26.5 -7.5v174q0 16 -6 24t-32 10l-37 2v35h240v-35l-37 -2q-26 -2 -32 -10t-6 -24v-174q12 2 26.5 7.5t30.5 21.5l114 114
q40 40 45 53.5t-37 13.5h-18v35h217v-35l-24 -1q-32 -2 -54 -14.5t-50 -37.5l-142 -125l189 -215q20 -23 34.5 -29.5t40.5 -7.5l31 -2v-35h-165l-194 233l-44 3v-165q0 -16 6 -24t32 -10l42 -2v-35h-250v35l42 2q26 2 32 10t6 24v165l-44 -3l-194 -233h-165v35l31 2
q27 1 43 7.5t37 29.5z" />
    <glyph glyph-name="uni0437" unicode="&#x437;" horiz-adv-x="486" 
d="M234 25q50 0 81 24t31 82q0 57 -31.5 85t-113.5 28h-45v40h45q67 0 98.5 25.5t31.5 75.5t-29.5 71t-73.5 21q-23 0 -40.5 -5.5t-30.5 -16.5t-23.5 -27.5t-20.5 -38.5l-21 -48h-30l11 145q28 14 73 23t92 9q93 0 143 -31t50 -85q0 -57 -41 -89t-110 -45v-1
q79 -6 125 -36.5t46 -87.5q0 -75 -59 -115.5t-171 -40.5q-35 0 -68 5.5t-59 16.5t-42 28t-16 41q0 30 16.5 43t44.5 13q10 -20 21 -39t26 -35t36.5 -25.5t53.5 -9.5z" />
    <glyph glyph-name="uni0438" unicode="&#x438;" horiz-adv-x="645" 
d="M200 152l245 251v28q0 16 -6 24t-32 10l-42 2v35h250v-35l-42 -2q-26 -2 -32 -10t-6 -24v-360q0 -16 6 -24t32 -10l42 -2v-35h-250v35l42 2q26 2 32 10t6 24v278l-245 -250v-28q0 -16 6 -24t32 -10l42 -2v-35h-250v35l42 2q26 2 32 10t6 24v360q0 16 -6 24t-32 10l-42 2
v35h250v-35l-42 -2q-26 -2 -32 -10t-6 -24v-279z" />
    </font>
</defs>
</svg>
