<?xml version="1.0" standalone="no"?>
<!DOCTYPE svg PUBLIC "-//W3C//DTD SVG 1.1//EN" "http://www.w3.org/Graphics/SVG/1.1/DTD/svg11.dtd" >
<svg xmlns="http://www.w3.org/2000/svg" xmlns:xlink="http://www.w3.org/1999/xlink" version="1.1">
<metadata>
Created by Christoph Koeberlin (http://christoph.koe.berlin)
Copyright (c) 2017 Swiss Typefaces Sarl. All rights reserved.
</metadata>
<defs>
<font id="Font" horiz-adv-x="0" >
  <font-face 
    font-family="Font"
    font-weight="400"
    font-style="italic"
    font-stretch="normal"
    units-per-em="1000"
    panose-1="2 7 5 4 9 0 0 0 0 4"
    ascent="800"
    descent="-200"
    x-height="502"
    cap-height="758"
    bbox="-485 -403 1399 1056"
    underline-thickness="61"
    underline-position="-130"
    slope="-17"
    unicode-range="U+0020-FEFF"
  />
<missing-glyph horiz-adv-x="640" 
d="M70 758h500v-758h-500v758zM320 396l217 343h-434zM89 30l221 349l-221 349v-698zM551 30v698l-220 -349zM537 19l-217 343l-217 -343h434z" />
    <glyph glyph-name="f_f.liga" unicode="ff" horiz-adv-x="630" 
d="M439 446h-211l-49 -217q-25 -112 -53 -191.5t-57 -133.5t-58 -86t-56 -48.5t-51 -21.5t-43 -5q-23 0 -37 12.5t-14 32.5t11.5 33.5t32.5 14.5l123 -38q4 9 10.5 23t14.5 38.5t18.5 62.5t22.5 94l95 430h-78l2 9q28 5 49 17.5t38.5 33t34 48.5t35.5 63q25 46 51.5 74
t52.5 43t52 20t50 5q34 0 47 -15.5t13 -35.5q0 -16 -9.5 -31t-26.5 -23l-163 39q-9 -9 -20 -21.5t-20 -29t-15 -36.5t-6 -43q0 -26 11.5 -43.5t49.5 -17.5h163q18 21 34.5 50t36.5 65q25 46 51.5 77t52.5 50t52 27t50 8q34 0 47 -15.5t13 -35.5q0 -16 -9.5 -31t-26.5 -23
l-150 36q-9 -9 -22 -23.5t-24.5 -33.5t-19.5 -42t-8 -48q0 -26 11.5 -43.5t49.5 -17.5h131l-40 -56h-149l-42 -182q-26 -112 -54 -191.5t-57 -133.5t-57.5 -86t-55.5 -48.5t-51 -21.5t-43 -5q-23 0 -37 12.5t-14 32.5t11.5 33.5t32.5 14.5l123 -38q4 9 10.5 23t14.5 38.5
t18.5 62.5t22.5 94z" />
    <glyph glyph-name="f_i.liga" unicode="fi" horiz-adv-x="582" 
d="M179 229q-25 -112 -53 -191.5t-57 -133.5t-58 -86t-56 -48.5t-51 -21.5t-43 -5q-23 0 -37 12.5t-14 32.5t11.5 33.5t32.5 14.5l123 -38q4 9 10.5 23t14.5 38.5t18.5 62.5t22.5 94l95 430h-78l2 9q28 5 49 17.5t38.5 33t34 48.5t35.5 63q25 46 51.5 77t52.5 50t52 27t50 8
q34 0 47 -15.5t13 -35.5q0 -16 -9.5 -31t-26.5 -23l-150 36q-9 -9 -22 -23.5t-24.5 -33.5t-19.5 -42t-8 -48q0 -26 11.5 -43.5t49.5 -17.5h282l-163 -411q-15 -38 -18 -58t11 -20q22 0 61 36t80 105l10 -6q-50 -83 -98 -122t-108 -39q-42 0 -46.5 28.5t18.5 85.5l137 345
h-224zM588 641q-26 0 -43.5 17.5t-17.5 43.5t17.5 43.5t43.5 17.5t43.5 -17.5t17.5 -43.5t-17.5 -43.5t-43.5 -17.5z" />
    <glyph glyph-name="f_f_i.liga" unicode="ffi" horiz-adv-x="883" 
d="M706 91q-15 -38 -18 -58t11 -20q22 0 61 36t80 105l10 -6q-50 -83 -98 -122t-108 -39q-42 0 -46.5 28.5t18.5 85.5l137 345h-224l-42 -182q-26 -112 -54 -191.5t-57 -133.5t-57.5 -86t-55.5 -48.5t-51 -21.5t-43 -5q-23 0 -37 12.5t-14 32.5t11.5 33.5t32.5 14.5l123 -38
q4 9 10.5 23t14.5 38.5t18.5 62.5t22.5 94l88 395h-211l-49 -217q-25 -112 -53 -191.5t-57 -133.5t-58 -86t-56 -48.5t-51 -21.5t-43 -5q-23 0 -37 12.5t-14 32.5t11.5 33.5t32.5 14.5l123 -38q4 9 10.5 23t14.5 38.5t18.5 62.5t22.5 94l95 430h-78l2 9q28 5 49 17.5
t38.5 33t34 48.5t35.5 63q25 46 51.5 74t52.5 43t52 20t50 5q34 0 47 -15.5t13 -35.5q0 -16 -9.5 -31t-26.5 -23l-163 39q-9 -9 -20 -21.5t-20 -29t-15 -36.5t-6 -43q0 -26 11.5 -43.5t49.5 -17.5h163q18 21 34.5 50t36.5 65q25 46 51.5 77t52.5 50t52 27t50 8
q34 0 47 -15.5t13 -35.5q0 -16 -9.5 -31t-26.5 -23l-150 36q-9 -9 -22 -23.5t-24.5 -33.5t-19.5 -42t-8 -48q0 -26 11.5 -43.5t49.5 -17.5h282zM889 641q-26 0 -43.5 17.5t-17.5 43.5t17.5 43.5t43.5 17.5t43.5 -17.5t17.5 -43.5t-17.5 -43.5t-43.5 -17.5z" />
    <glyph glyph-name="f_l.liga" unicode="fl" horiz-adv-x="584" 
d="M-139 -257q-23 0 -37 12.5t-14 32.5t11.5 33.5t32.5 14.5l123 -38q4 9 10.5 23t14.5 38.5t18.5 62.5t22.5 94l95 430h-78l2 9q28 5 49 17.5t38.5 33t34 48.5t35.5 63q25 46 51.5 77t52.5 50t52 27t50 8q20 0 32 -6t19 -15h170l-233 -667q-14 -38 -16.5 -58t11.5 -20
q22 0 61 36t80 105l10 -6q-50 -83 -98 -122t-108 -39q-42 0 -44 28.5t18 86.5l225 646h-70q3 -9 3 -20q0 -16 -9.5 -31t-26.5 -23l-150 36q-9 -9 -22 -23.5t-24.5 -33.5t-19.5 -42t-8 -48q0 -26 11.5 -43.5t49.5 -17.5h120l-40 -56h-138l-49 -217q-25 -112 -53 -191.5
t-57 -133.5t-58 -86t-56 -48.5t-51 -21.5t-43 -5z" />
    <glyph glyph-name="f_f_l.liga" unicode="ffl" horiz-adv-x="885" 
d="M439 446h-211l-49 -217q-25 -112 -53 -191.5t-57 -133.5t-58 -86t-56 -48.5t-51 -21.5t-43 -5q-23 0 -37 12.5t-14 32.5t11.5 33.5t32.5 14.5l123 -38q4 9 10.5 23t14.5 38.5t18.5 62.5t22.5 94l95 430h-78l2 9q28 5 49 17.5t38.5 33t34 48.5t35.5 63q25 46 51.5 74
t52.5 43t52 20t50 5q34 0 47 -15.5t13 -35.5q0 -16 -9.5 -31t-26.5 -23l-163 39q-9 -9 -20 -21.5t-20 -29t-15 -36.5t-6 -43q0 -26 11.5 -43.5t49.5 -17.5h163q18 21 34.5 50t36.5 65q25 46 51.5 77t52.5 50t52 27t50 8q20 0 32 -6t19 -15h170l-233 -667q-14 -38 -16.5 -58
t11.5 -20q22 0 61 36t80 105l10 -6q-50 -83 -98 -122t-108 -39q-42 0 -44 28.5t18 86.5l225 646h-70q3 -9 3 -20q0 -16 -9.5 -31t-26.5 -23l-150 36q-9 -9 -22 -23.5t-24.5 -33.5t-19.5 -42t-8 -48q0 -26 11.5 -43.5t49.5 -17.5h120l-40 -56h-138l-42 -182
q-26 -112 -54 -191.5t-57 -133.5t-57.5 -86t-55.5 -48.5t-51 -21.5t-43 -5q-23 0 -37 12.5t-14 32.5t11.5 33.5t32.5 14.5l123 -38q4 9 10.5 23t14.5 38.5t18.5 62.5t22.5 94z" />
    <glyph glyph-name=".notdef" horiz-adv-x="640" 
d="M70 758h500v-758h-500v758zM320 396l217 343h-434zM89 30l221 349l-221 349v-698zM551 30v698l-220 -349zM537 19l-217 343l-217 -343h434z" />
    <glyph glyph-name="glyph1" 
 />
    <glyph glyph-name="glyph2" horiz-adv-x="284" 
 />
    <glyph glyph-name="space" unicode=" " horiz-adv-x="284" 
 />
    <glyph glyph-name="exclam" unicode="!" horiz-adv-x="284" 
d="M136 256q21 69 36.5 136t24 125.5t10 104.5t-5.5 72q13 37 42.5 66.5t64.5 42.5q21 -17 33.5 -45.5t7.5 -63.5q-23 -26 -49.5 -72t-53.5 -104.5t-52.5 -125.5t-46.5 -136l-13 -43h-11zM86 -13q-31 0 -53 22.5t-22 55.5q0 31 22 53t53 22q33 0 55.5 -22t22.5 -53
q0 -33 -22.5 -55.5t-55.5 -22.5z" />
    <glyph glyph-name="quotedbl" unicode="&#x22;" horiz-adv-x="411" 
d="M206 743q3 20 14 28t40 8t37.5 -9.5t-4.5 -35.5l-127 -251h-8zM416 743q3 20 14 28t40 8t37.5 -9.5t-4.5 -35.5l-127 -251h-8z" />
    <glyph glyph-name="numbersign" unicode="#" horiz-adv-x="792" 
d="M201 205h-174l26 62h173l90 221h-174l25 62h174l92 226h67l-92 -226h200l92 226h67l-92 -226h168l-25 -62h-168l-90 -221h168l-25 -62h-168l-83 -205h-67l83 205h-200l-83 -205h-67zM493 267l90 221h-200l-90 -221h200z" />
    <glyph glyph-name="dollar" unicode="$" horiz-adv-x="569" 
d="M196 -13q-42 1 -77 10.5t-61 26.5t-40.5 39.5t-14.5 49.5q0 36 30.5 53t74.5 6q-14 -82 5 -126.5t86 -48.5l109 358l-31 36q-53 61 -76.5 106t-23.5 89q0 37 20 72t55 62t82.5 43t103.5 16l31 101h12l-31 -101q41 -1 73.5 -11t55.5 -26t35 -36t12 -41q0 -35 -28 -47.5
t-72 2.5q6 29 7 55.5t-7 47t-27 33t-52 14.5l-92 -303l39 -47l40 -48t36 -48t26 -49.5t10 -53.5q0 -46 -22.5 -88.5t-62 -74.5t-94.5 -51.5t-119 -19.5l-31 -101h-12zM317 344l-106 -347q48 0 85 13.5t62.5 37t38.5 55.5t13 68q0 46 -22 81t-51 69zM346 477l89 293
q-38 0 -69.5 -10t-54 -28t-35.5 -43t-13 -56q0 -38 18.5 -70t53.5 -73z" />
    <glyph glyph-name="percent" unicode="%" horiz-adv-x="960" 
d="M906 758h75l-846 -758h-75zM242 334q-59 0 -89.5 41.5t-30.5 104.5q0 45 20.5 96t54.5 93.5t77.5 71t89.5 28.5q29 0 51.5 -11t37.5 -30.5t23 -46t8 -57.5q0 -45 -20.5 -96t-54.5 -94t-77.5 -71.5t-89.5 -28.5zM240 342q22 0 42.5 15t38.5 41t34 61t28 75
q14 42 21.5 81.5t7.5 73.5q0 39 -10.5 56t-35.5 17q-22 0 -42.5 -15t-38.5 -41.5t-34 -61.5t-28 -75q-14 -42 -21.5 -81.5t-7.5 -73.5q0 -39 10.5 -55.5t35.5 -16.5zM677 -7q-59 0 -89.5 41.5t-30.5 104.5q0 45 20.5 96t54.5 93.5t77.5 71t89.5 28.5q29 0 51.5 -11
t37.5 -30.5t23 -46t8 -57.5q0 -45 -20.5 -96t-54.5 -94t-77.5 -71.5t-89.5 -28.5zM675 1q22 0 42.5 15t38.5 41t34 61t28 75q14 42 21.5 81.5t7.5 73.5q0 39 -10.5 56t-35.5 17q-22 0 -42.5 -15t-38.5 -41.5t-34 -61.5t-28 -75q-14 -42 -21.5 -81.5t-7.5 -73.5
q0 -39 10.5 -55.5t35.5 -16.5z" />
    <glyph glyph-name="ampersand" unicode="&#x26;" horiz-adv-x="1054" 
d="M789 354q-28 -56 -64 -120t-85.5 -118.5t-115 -90.5t-152.5 -36q-74 0 -128.5 27t-89.5 70.5t-52 98t-17 110.5q0 78 20.5 139.5t51 103.5t66.5 64.5t66 22.5q27 0 45.5 -12t29 -32t12.5 -45t-3 -51l114 85l56 217q11 8 24 14t30 6q20 0 31 -9.5t11 -24.5
q0 -21 -16.5 -51.5t-42 -64t-57.5 -65.5t-63 -55l-301 -224q10 -49 34.5 -88.5t59.5 -67.5t78.5 -43t93.5 -15q111 0 201.5 66t152.5 190l3 6l-65 42q-35 23 -64 40t-61 18q-29 0 -45.5 -21.5t-24.5 -47.5l120 -39q4 -21 0.5 -38t-13 -28.5t-22.5 -18t-28 -6.5
q-29 0 -52 22.5t-23 61.5q0 31 13 62.5t34 57t49 41.5t58 16q23 0 54.5 -10t67.5 -33l104 -66q35 -22 64 -40.5t61 -19.5q29 0 46 21.5t24 47.5l-120 39q-5 20 -1 36.5t13 28.5t22.5 18.5t28.5 6.5q29 0 52 -22t23 -61q0 -29 -12.5 -60.5t-33.5 -57.5t-49 -43t-58 -17
q-23 0 -56 11.5t-71 36.5l-27 17zM152 381q0 -15 1.5 -28.5t3.5 -27.5l66 49q31 23 47 61t18.5 74t-8 62t-32.5 26q-26 0 -44 -20.5t-29.5 -52t-17 -70t-5.5 -73.5z" />
    <glyph glyph-name="quotesingle" unicode="'" horiz-adv-x="201" 
d="M206 743q3 20 14 28t40 8t37.5 -9.5t-4.5 -35.5l-127 -251h-8z" />
    <glyph glyph-name="parenleft" unicode="(" horiz-adv-x="327" 
d="M146 -264q-24 37 -45 82t-36 95t-24 102.5t-9 103.5q0 101 34 201t95 189t145.5 162t184.5 121l4 -10q-115 -64 -201 -172.5t-135 -253.5q-26 -78 -40 -164t-14 -180q0 -73 10.5 -142t40.5 -127z" />
    <glyph glyph-name="parenright" unicode=")" horiz-adv-x="326" 
d="M190 792q24 -37 45 -82t36 -95t24 -102.5t9 -103.5q0 -101 -34 -201t-95 -189t-145.5 -162t-184.5 -121l-4 10q115 64 201 172.5t135 253.5q26 78 40 164t14 180q0 73 -10.5 142t-40.5 127z" />
    <glyph glyph-name="asterisk" unicode="*" horiz-adv-x="489" 
d="M399 371l-10 -2l-68 146l-146 -69l-6 8l118 111l-111 118l6 8l142 -78l78 142l10 -4l-31 -159l159 -31v-10l-161 -20z" />
    <glyph glyph-name="plus" unicode="+" horiz-adv-x="653" 
d="M296 230h-234v65h234v221h69v-221h234v-65h-234v-230h-69v230z" />
    <glyph glyph-name="comma" unicode="," horiz-adv-x="291" 
d="M-31 -161q69 36 96.5 74t27.5 72q0 31 -17.5 52.5t-61.5 35.5q4 34 28 50.5t53 16.5q35 0 60 -23.5t25 -65.5q0 -35 -17 -66t-45.5 -59t-66 -52t-77.5 -44z" />
    <glyph glyph-name="hyphen" unicode="-" horiz-adv-x="439" 
d="M87 295h294l-22 -65h-294z" />
    <glyph glyph-name="period" unicode="." horiz-adv-x="270" 
d="M85 -13q-31 0 -53 22.5t-22 55.5q0 31 22 53t53 22q33 0 55.5 -22t22.5 -53q0 -33 -22.5 -55.5t-55.5 -22.5z" />
    <glyph glyph-name="slash" unicode="/" horiz-adv-x="558" 
d="M600 776h75l-652 -828h-72z" />
    <glyph glyph-name="zero" unicode="0" horiz-adv-x="678" 
d="M264 -13q-47 0 -83 18.5t-61 51.5t-37.5 78.5t-12.5 98.5q0 54 16.5 115t46 121.5t70 116.5t87.5 98.5t99.5 68t106.5 25.5q47 0 83 -18.5t61 -51.5t37.5 -78.5t12.5 -98.5q0 -54 -16.5 -115t-46 -121.5t-70 -116.5t-87.5 -98.5t-99.5 -68t-106.5 -25.5zM268 -3
q42 0 82.5 28t75.5 76t64.5 111.5t50.5 133.5q20 66 30.5 134.5t10.5 133.5q0 83 -20 119t-70 36q-42 0 -82.5 -28t-75.5 -76t-64.5 -111.5t-50.5 -133.5q-20 -66 -30.5 -134.5t-10.5 -133.5q0 -83 20 -119t70 -36z" />
    <glyph glyph-name="one" unicode="1" horiz-adv-x="371" 
d="M-31 10h95l227 660h-125l4 10q49 3 85.5 11.5t64.5 21.5t50.5 30t43.5 38h5l-265 -771h78l-4 -10h-263z" />
    <glyph glyph-name="two" unicode="2" horiz-adv-x="562" 
d="M-61 4q153 115 259.5 205t173 162t96.5 129.5t30 108.5q0 50 -33.5 82t-90.5 32q-54 0 -98.5 -26.5t-78.5 -96.5l-8 3q32 86 91.5 131t149.5 45q79 0 125.5 -41.5t46.5 -115.5q0 -51 -26.5 -99.5t-68.5 -93t-95 -86t-105 -79.5l-240 -174h407l-53 -90h-483z" />
    <glyph glyph-name="three" unicode="3" horiz-adv-x="565" 
d="M155 -13q-38 0 -68.5 8t-51.5 21t-32 30t-11 34q0 16 7.5 28.5t20 19t28.5 8t34 -3.5l53 -116q5 -11 11.5 -14t20.5 -3q45 0 89 15t78.5 46t56 78.5t21.5 111.5q0 38 -11.5 70t-31.5 55t-46.5 36t-56.5 13q-24 0 -49 -9l-4 11l44 11q52 13 96 30t76 39.5t49.5 51.5
t17.5 67q0 45 -34 71.5t-92 26.5q-32 0 -62 -9.5t-55.5 -29t-44 -49.5t-27.5 -70h-8q9 59 32.5 100t57.5 66.5t75 36.5t83 11q34 0 65.5 -8t55 -23.5t37.5 -39.5t14 -56t-13.5 -58t-39 -47t-62.5 -38t-83 -32l-2 -2q57 -28 88.5 -78.5t31.5 -114.5q0 -63 -32.5 -117
t-84.5 -93.5t-115.5 -62t-125.5 -22.5z" />
    <glyph glyph-name="four" unicode="4" horiz-adv-x="632" 
d="M351 213h-356l1 2l639 563h5l-167 -484h137l-28 -81h-137l-73 -213h-94zM379 294l120 347l-394 -347h274z" />
    <glyph glyph-name="five" unicode="5" horiz-adv-x="541" 
d="M165 -1q42 0 85.5 12t78.5 36.5t57 62.5t22 90q0 49 -23 88.5t-60.5 71t-85 55.5t-95.5 41l159 302h318l-52 -91h-300l-65 -122q61 -22 113 -50.5t89.5 -64.5t58.5 -78.5t21 -91.5q0 -63 -26.5 -113.5t-72.5 -86t-106.5 -54.5t-127.5 -19q-38 0 -68.5 8t-51.5 21t-32 30
t-11 34q0 16 7.5 28.5t20 19t28.5 8t34 -3.5l53 -116q5 -11 11.5 -14t20.5 -3z" />
    <glyph glyph-name="six" unicode="6" horiz-adv-x="615" 
d="M283 -13q-48 0 -88 19t-69.5 53.5t-45.5 82t-16 104.5q0 68 25.5 132t71.5 122.5t108.5 110t136.5 93t156.5 72t167.5 48.5l1 -7q-87 -20 -170 -62.5t-153.5 -102.5t-124.5 -133.5t-84 -154.5q26 33 68.5 58.5t99.5 25.5q33 0 67 -12t62 -37t45.5 -62t17.5 -86
q0 -58 -23.5 -106.5t-62.5 -83.5t-88.5 -54.5t-101.5 -19.5zM166 189q0 -53 9 -89t25.5 -59t39 -33t49.5 -10q32 0 61.5 15t52.5 44.5t36.5 73.5t13.5 103q0 81 -40 124.5t-109 43.5q-61 0 -111 -53l-5 -17q-11 -35 -16.5 -71t-5.5 -72z" />
    <glyph glyph-name="seven" unicode="7" horiz-adv-x="553" 
d="M-35 0l643 668h-445l56 90h493l-730 -758h-17z" />
    <glyph glyph-name="eight" unicode="8" horiz-adv-x="597" 
d="M28 155q0 49 21 85.5t57.5 64t85 48t102.5 37.5q-40 48 -63 92t-23 95q0 43 19.5 80t53 64t77.5 42.5t94 15.5q45 0 80.5 -10.5t60.5 -29.5t38.5 -44.5t13.5 -55.5q0 -43 -20.5 -77t-54.5 -60t-77.5 -46t-88.5 -36l31 -36q15 -19 29.5 -38t25.5 -39.5t18 -42.5t7 -46
q0 -49 -23.5 -91t-63 -73t-91 -49t-106.5 -18q-49 0 -86.5 14.5t-63.5 38.5t-39.5 54t-13.5 61zM397 428q39 18 70.5 39.5t54.5 46.5t35.5 55t12.5 65q0 69 -33 101.5t-96 32.5q-33 0 -60 -11t-46.5 -30.5t-30 -47t-10.5 -60.5q0 -23 5 -42t14 -37.5t23 -37t32 -39.5z
M107 157q0 -72 32 -115.5t101 -43.5q35 0 68.5 11t59 32t41 52.5t15.5 72.5q0 25 -4.5 44.5t-12.5 35.5t-19.5 31t-25.5 32l-61 73q-30 -13 -64 -32t-63 -46t-48 -63t-19 -84z" />
    <glyph glyph-name="nine" unicode="9" horiz-adv-x="613" 
d="M398 779q48 0 90 -19t73.5 -53.5t50 -82t18.5 -104.5q0 -68 -24.5 -132t-68 -122.5t-104.5 -110t-133 -93t-153 -72.5t-166 -48l-1 7q87 20 168 62.5t148.5 102t119 133t80.5 154.5q-26 -33 -69.5 -58t-101.5 -25q-36 0 -70 13.5t-60.5 39t-43 63.5t-16.5 88
q0 58 21.5 105.5t58 81t84 52t99.5 18.5zM241 539q0 -81 40 -128t109 -47q62 0 111 52q2 7 4 13t4 13q19 64 19 135q0 52 -11 88.5t-30 59.5t-43.5 33t-51.5 10q-32 0 -59.5 -14t-48 -42t-32 -71.5t-11.5 -101.5z" />
    <glyph glyph-name="colon" unicode=":" horiz-adv-x="315" 
d="M221 358q-31 0 -53 22.5t-22 55.5q0 31 22 53t53 22q33 0 55.5 -22t22.5 -53q0 -33 -22.5 -55.5t-55.5 -22.5zM91 -13q-31 0 -53 22.5t-22 55.5q0 31 22 53t53 22q33 0 55.5 -22t22.5 -53q0 -33 -22.5 -55.5t-55.5 -22.5z" />
    <glyph glyph-name="semicolon" unicode=";" horiz-adv-x="320" 
d="M-30 -161q69 36 96.5 74t27.5 72q0 31 -17.5 52.5t-61.5 35.5q4 34 28 50.5t53 16.5q35 0 60 -23.5t25 -65.5q0 -35 -17 -66t-45.5 -59t-66 -52t-77.5 -44zM223 358q-31 0 -53 22.5t-22 55.5q0 31 22 53t53 22q33 0 55.5 -22t22.5 -53q0 -33 -22.5 -55.5t-55.5 -22.5z
" />
    <glyph glyph-name="less" unicode="&#x3c;" horiz-adv-x="653" 
d="M38 292l527 225v-71l-433 -184l433 -184v-71l-527 226v59z" />
    <glyph glyph-name="equal" unicode="=" horiz-adv-x="653" 
d="M65 399h527v-65h-527v65zM65 179h527v-65h-527v65z" />
    <glyph glyph-name="greater" unicode="&#x3e;" horiz-adv-x="653" 
d="M623 233l-527 -226v71l433 184l-433 184v71l527 -225v-59z" />
    <glyph glyph-name="question" unicode="?" horiz-adv-x="615" 
d="M403 765q-60 0 -93 -32.5t-43 -112.5q-18 -2 -36 1t-32 10t-22.5 17.5t-8.5 25.5q0 24 17 43t46 33t67 21.5t81 7.5q67 0 118.5 -22.5t85.5 -58.5t51.5 -81t17.5 -90q0 -29 -7 -52.5t-24.5 -41.5t-47 -31t-74.5 -19l-207 -29q-12 -2 -20 -4t-13.5 -6t-9.5 -11.5t-8 -20.5
l-35 -99h-7l31 157q5 26 12.5 42t19.5 26t29 15t42 8l154 21q69 9 99.5 32.5t30.5 74.5q0 33 -17.5 64.5t-46.5 56t-68 40t-82 15.5zM162 -13q-31 0 -53 22.5t-22 55.5q0 31 22 53t53 22q33 0 55.5 -22t22.5 -53q0 -33 -22.5 -55.5t-55.5 -22.5z" />
    <glyph glyph-name="at" unicode="@" horiz-adv-x="946" 
d="M455 -13q-75 0 -142 20t-117.5 59.5t-79.5 97.5t-29 133q0 61 20 120.5t55.5 113t85 99t109 78.5t127 52t138.5 19q67 0 129 -19t109.5 -56t76 -91.5t28.5 -124.5q0 -74 -30.5 -134t-80 -102.5t-112.5 -65.5t-129 -23q-25 0 -39 6.5t-14 21.5q0 9 4 24t12 35l44 111h-2
q-51 -97 -115 -147t-126 -50q-45 0 -73.5 25.5t-28.5 75.5q0 42 17.5 84t46.5 81.5t67.5 73.5t79.5 59t83 39.5t79 14.5t69.5 -13.5t60.5 -24.5l-137 -346q-14 -35 -14 -45q0 -5 3 -8.5t17 -3.5q43 0 92.5 19t91.5 57t69.5 96.5t27.5 138.5q0 69 -24 121.5t-65 88.5
t-96.5 54.5t-118.5 18.5q-99 0 -185 -40t-150 -106t-101 -150.5t-37 -173.5q0 -70 23 -126t64 -95t98 -60t125 -21q40 0 74 5t61 13t48.5 17.5t37.5 18.5l5 -8q-37 -19 -92.5 -38t-139.5 -19zM417 212q27 0 58.5 15t62.5 43.5t59 69.5t49 94l61 156q-17 18 -57 18
q-45 0 -96 -32t-94.5 -80.5t-72 -106t-28.5 -109.5q0 -68 58 -68z" />
    <glyph glyph-name="A" unicode="A" horiz-adv-x="793" 
d="M-136 10h99l840 787h7l-241 -787h99l-3 -10h-302l3 10h99l84 275h-277l-293 -275h118l-3 -10h-233zM566 338l95 311l-332 -311h237z" />
    <glyph glyph-name="B" unicode="B" horiz-adv-x="729" 
d="M500 758q114 0 174 -35t60 -99q0 -85 -70.5 -143.5t-201.5 -79.5l-1 -1q42 -2 81 -12t68.5 -28t47 -45.5t17.5 -63.5q0 -41 -19.5 -85.5t-65 -81.5t-119 -60.5t-181.5 -23.5h-322l3 10h99l226 738h-99l3 10h300zM396 403q55 0 98.5 21.5t72.5 55.5t44.5 76.5t15.5 83.5
q0 51 -31 79.5t-94 28.5h-102l-106 -345h102zM293 10q69 0 119.5 24.5t83.5 62.5t49 85t16 91q0 57 -36.5 88.5t-114.5 31.5h-119l-117 -383h119z" />
    <glyph glyph-name="C" unicode="C" horiz-adv-x="814" 
d="M389 -13q-60 0 -115.5 18t-97.5 55.5t-67 95t-25 137.5q0 97 42 185.5t112.5 155t163 106t193.5 39.5q60 0 109.5 -15t78.5 -42l65 54h6l-51 -308h-6q3 85 -10.5 143t-40.5 93t-66 50.5t-88 15.5q-91 0 -162.5 -42.5t-121 -113.5t-76 -164.5t-26.5 -196.5
q0 -57 12 -104.5t36 -81t59 -52t81 -18.5q49 0 94.5 15.5t91.5 51t94.5 93t104.5 141.5h6l-161 -308h-6l-26 50q-50 -34 -101 -43.5t-102 -9.5z" />
    <glyph glyph-name="D" unicode="D" horiz-adv-x="848" 
d="M-29 10h99l226 738h-99l3 10h284q83 0 150 -19t114.5 -55.5t73 -90t25.5 -122.5q0 -91 -40 -176t-112 -150.5t-172 -105t-221 -39.5h-334zM303 10q100 0 179 43t133.5 112.5t83 157.5t28.5 179q0 118 -62 182t-188 64h-77l-226 -738h129z" />
    <glyph glyph-name="E" unicode="E" horiz-adv-x="750" 
d="M-29 10h99l226 738h-99l3 10h539l-27 -234h-6l-67 206q-4 11 -10 14.5t-23 3.5h-206l-109 -355h147q8 0 12.5 2t12.5 13l94 123h6l-87 -286h-6l-19 123q-2 11 -5 13t-11 2h-147l-114 -373h272q16 0 25.5 4t20.5 14l226 216h7l-146 -244h-611z" />
    <glyph glyph-name="F" unicode="F" horiz-adv-x="692" 
d="M-29 10h99l226 738h-99l3 10h582l-27 -234h-6l-67 206q-4 11 -10 14.5t-23 3.5h-249l-109 -355h149q8 0 12.5 2t12.5 13l94 123h6l-87 -286h-6l-19 123q-2 11 -5 13t-11 2h-149l-114 -373h122l-3 -10h-325z" />
    <glyph glyph-name="G" unicode="G" horiz-adv-x="839" 
d="M407 -13q-64 0 -122.5 18.5t-103 57t-71 96.5t-26.5 138q0 98 42.5 185.5t114 153.5t166 104.5t199.5 38.5q60 0 109.5 -15t78.5 -42l65 54h6l-51 -308h-6q3 85 -10.5 143t-40.5 93t-66 50.5t-88 15.5q-90 0 -163.5 -41.5t-125 -112t-80 -164.5t-28.5 -199
q0 -57 13.5 -104.5t39 -81t63.5 -52t88 -18.5t98 11.5t82 25.5l110 299h-250l38 53h335l-102 -280l-16 -65q-33 -1 -67.5 -9.5t-71.5 -18.5t-76.5 -18t-82.5 -8z" />
    <glyph glyph-name="H" unicode="H" horiz-adv-x="889" 
d="M270 0h-302l3 10h99l226 738h-99l3 10h302l-3 -10h-99l-101 -331h394l101 331h-99l3 10h302l-3 -10h-99l-226 -738h99l-3 -10h-302l3 10h99l108 354h-394l-108 -354h99z" />
    <glyph glyph-name="I" unicode="I" horiz-adv-x="391" 
d="M270 0h-302l3 10h99l226 738h-99l3 10h302l-3 -10h-99l-226 -738h99z" />
    <glyph glyph-name="J" unicode="J" horiz-adv-x="415" 
d="M-7 -143q-26 0 -45.5 7t-32.5 19t-20 27t-7 31q0 18 8 32.5t21 23.5t30.5 12t36.5 -1q-3 -25 -2 -48t8 -41t21 -28.5t35 -10.5q24 0 40.5 9t27.5 24t16 34t5 39q0 44 -19 76l207 686h-99l3 10h302l-3 -10h-99l-208 -680q-32 -106 -89.5 -158.5t-136.5 -52.5z" />
    <glyph glyph-name="K" unicode="K" horiz-adv-x="806" 
d="M270 0h-302l3 10h99l226 738h-99l3 10h302l-3 -10h-99l-103 -337l515 337h-112l3 10h247l-3 -10h-114l-536 -350h110l328 -398h-131l-316 383l-114 -373h99z" />
    <glyph glyph-name="L" unicode="L" horiz-adv-x="702" 
d="M414 10q16 0 25.5 4t20.5 14l226 216h7l-146 -244h-579l3 10h99l226 738h-99l3 10h302l-3 -10h-99l-226 -738h240z" />
    <glyph glyph-name="M" unicode="M" horiz-adv-x="998" 
d="M-45 10h97l224 612l-40 136h110l156 -528l393 528h185l-3 -10h-99l-182 -738h99l-3 -10h-302l3 10h99l168 683l-429 -576h-5l-144 487l-218 -594h96l-3 -10h-205z" />
    <glyph glyph-name="N" unicode="N" horiz-adv-x="864" 
d="M-13 10h97l189 618l-73 128v2h119l360 -628l189 618h-96l3 10h205l-3 -10h-97l-236 -771h-3l-360 637l-185 -604h96l-4 -10h-205z" />
    <glyph glyph-name="O" unicode="O" horiz-adv-x="845" 
d="M569 779q58 0 109 -18t89 -53.5t60.5 -87.5t22.5 -120q0 -56 -16.5 -115.5t-47 -116.5t-74.5 -108t-98.5 -89.5t-119 -61t-136.5 -22.5q-58 0 -109 18t-89.5 53.5t-60.5 87.5t-22 120q0 56 16.5 115.5t47 116.5t74.5 108t98.5 89.5t119 61t136.5 22.5zM559 769
q-71 0 -135.5 -42.5t-114 -115.5t-79 -171t-29.5 -209q0 -65 13 -109.5t35.5 -72t53 -40t65.5 -12.5q71 0 135.5 42.5t114 115.5t79 171t29.5 209q0 64 -13 109t-35.5 72.5t-53 40t-65.5 12.5z" />
    <glyph glyph-name="P" unicode="P" horiz-adv-x="717" 
d="M-29 10h99l226 738h-99l3 10h352q49 0 94.5 -7t79.5 -23.5t54.5 -44.5t20.5 -69q0 -53 -27 -100t-75 -82t-113 -55t-140 -20h-133l3 10h131q57 0 102 23.5t75.5 60t47 81.5t16.5 87q0 62 -33.5 95.5t-103.5 33.5h-151l-226 -738h119l-3 -10h-322z" />
    <glyph glyph-name="Q" unicode="Q" horiz-adv-x="845" 
d="M569 779q58 0 109 -18t89 -53.5t60.5 -87.5t22.5 -120t-24 -140.5t-67.5 -138.5t-105 -120t-137.5 -84l129 -160l-9 -8l-132 163q-35 -12 -71.5 -18.5t-74.5 -6.5q-58 0 -109 18t-89.5 53.5t-60.5 87.5t-22 120q0 56 16.5 115.5t47 116.5t74.5 108t98.5 89.5t119 61
t136.5 22.5zM559 769q-71 0 -135.5 -42.5t-114 -115.5t-79 -171t-29.5 -209q0 -65 13 -109.5t35.5 -72t53 -40t65.5 -12.5q32 0 62 8.5t59 24.5l-127 159l9 8l129 -160q48 30 89.5 80t72 114.5t47.5 142t17 161.5q0 64 -13 109t-35.5 72.5t-53 40t-65.5 12.5z" />
    <glyph glyph-name="R" unicode="R" horiz-adv-x="756" 
d="M-29 10h99l226 738h-99l3 10h295q116 0 183.5 -33.5t67.5 -104.5q0 -47 -21 -85.5t-59 -67.5t-92.5 -48t-121.5 -28l-1 -3q22 -10 47 -43t51 -75l164 -270h-122l-234 384h-68l-115 -374h119l-3 -10h-322zM380 394q63 0 110.5 22.5t79 57t47.5 76.5t16 82q0 52 -34.5 84
t-110.5 32h-88l-108 -354h88z" />
    <glyph glyph-name="S" unicode="S" horiz-adv-x="620" 
d="M214 -13q-46 0 -82 13t-60 33l-53 -43h-6l43 284h6q2 -76 11 -129t27.5 -86t46.5 -48t68 -15q41 0 80 11.5t69 34t48 56t18 77.5q0 43 -18 77.5t-55 78.5l-67 78q-33 39 -53 76.5t-20 82.5q0 48 24 87t62.5 66.5t85.5 42.5t92 15q20 0 40.5 -3.5t39.5 -10t34 -15
t23 -17.5l53 43h6l-41 -270h-6q-3 67 -12.5 116.5t-27.5 82.5t-46.5 49t-68.5 16q-30 0 -60 -9t-53.5 -27t-38.5 -44.5t-15 -60.5q0 -24 5 -42.5t13.5 -34t19.5 -29.5t23 -28l67 -78q21 -24 38.5 -46t30 -43.5t20 -44t7.5 -48.5q0 -47 -23.5 -92t-66 -79.5t-101 -55.5
t-127.5 -21z" />
    <glyph glyph-name="T" unicode="T" horiz-adv-x="775" 
d="M154 10h109l225 738h-186q-8 0 -12.5 -0.5t-7.5 -2t-6.5 -5.5t-8.5 -11l-161 -223h-6l122 299h6l61 -47h510l89 47h6l-62 -299h-6l-21 223q-2 14 -5.5 16.5t-19.5 2.5h-188l-225 -738h109l-3 -10h-322z" />
    <glyph glyph-name="U" unicode="U" horiz-adv-x="847" 
d="M369 -13q-74 0 -128 16.5t-84 52t-35 90.5t19 133l144 469h-99l3 10h302l-3 -10h-99l-144 -470q-43 -140 -5.5 -202t150.5 -62q55 0 105 13.5t92.5 44.5t76 81.5t56.5 124.5l144 470h-99l3 10h210l-3 -10h-99l-144 -470q-47 -151 -138 -221t-225 -70z" />
    <glyph glyph-name="V" unicode="V" horiz-adv-x="792" 
d="M301 748h-99l3 10h302l-3 -10h-99l-195 -638l680 638h-117l3 10h233l-3 -10h-99l-840 -787h-7z" />
    <glyph glyph-name="W" unicode="W" horiz-adv-x="1182" 
d="M301 748h-99l3 10h302l-3 -10h-99l-195 -638l401 376l83 272h233l-3 -10h-129l-195 -638l680 638h-117l3 10h233l-3 -10h-99l-840 -787h-7l154 504l-537 -504h-7z" />
    <glyph glyph-name="X" unicode="X" horiz-adv-x="848" 
d="M106 0h-210l5 10h93l442 359l-81 379h-93l5 10h291l-5 -10h-93l66 -306l376 306h-95l5 10h210l-5 -10h-98l-391 -318l90 -420h93l-5 -10h-291l5 10h93l-74 348l-428 -348h100z" />
    <glyph glyph-name="Y" unicode="Y" horiz-adv-x="760" 
d="M467 0h-322l3 10h109l109 355l-144 383h-93l3 10h292l-3 -10h-93l140 -368l363 368h-92l3 10h192l-3 -10h-84l-377 -382l-109 -356h109z" />
    <glyph glyph-name="Z" unicode="Z" horiz-adv-x="738" 
d="M706 748h-277q-19 0 -27 -2.5t-21 -15.5l-214 -206h-12l184 281h10l38 -47h453l-771 -748h344q9 0 15.5 0.5t11.5 2t9.5 5.5t11.5 10l221 206h12l-142 -234h-614z" />
    <glyph glyph-name="bracketleft" unicode="[" horiz-adv-x="323" 
d="M32 -182q-8 -24 -9.5 -37.5t4.5 -20t20 -8.5t38 -3l36 -2l-3 -10h-184l363 1055h184l-3 -10l-38 -2q-24 -1 -40 -3t-26.5 -8.5t-18.5 -20t-16 -37.5z" />
    <glyph glyph-name="backslash" unicode="\" horiz-adv-x="698" 
d="M525 -52l-346 828h67l343 -828h-64z" />
    <glyph glyph-name="bracketright" unicode="]" horiz-adv-x="323" 
d="M300 711q8 24 9.5 37.5t-4.5 20t-20 8.5t-38 3l-36 2l3 10h184l-363 -1055h-184l3 10l38 2q24 1 40 3t26.5 8.5t18.5 20t16 37.5z" />
    <glyph glyph-name="asciicircum" unicode="^" horiz-adv-x="653" 
d="M478 758h46l63 -415h-62l-48 333l-278 -333h-70z" />
    <glyph glyph-name="underscore" unicode="_" horiz-adv-x="536" 
d="M-98 -80h534l-21 -61h-534z" />
    <glyph glyph-name="grave" unicode="`" 
d="M80 579l-171 176v3h128l54 -179h-11z" />
    <glyph glyph-name="a" unicode="a" horiz-adv-x="536" 
d="M90 -13q-42 0 -62.5 26.5t-20.5 70.5q0 43 15 91.5t40.5 96t59.5 90.5t71.5 76.5t76 53t73.5 19.5q32 0 48.5 -24.5t10.5 -64.5h1l35 92h84l-158 -423q-14 -38 -17.5 -58t10.5 -20q22 0 61 36t80 105l10 -6q-50 -83 -98 -122t-108 -39q-21 0 -30.5 7.5t-10.5 22.5t5.5 36
t17.5 48l47 118h-2q-27 -47 -54.5 -89t-57 -73.5t-61 -50.5t-66.5 -19zM147 20q16 0 40.5 22t52 57.5t54.5 80.5t49 91t35.5 89.5t13.5 75.5t-13 48t-35 16q-30 0 -58.5 -18t-53.5 -49t-46.5 -71t-37 -84t-24 -89.5t-8.5 -85.5q0 -46 8.5 -64.5t22.5 -18.5z" />
    <glyph glyph-name="b" unicode="b" horiz-adv-x="513" 
d="M128 -13q-136 0 -99 112l217 649h-78l4 10h168l-131 -390l-49 -147h2q30 52 60.5 104t64 93t70 67t77.5 26q40 0 59 -27.5t19 -69.5q0 -41 -17.5 -89t-47.5 -95t-68.5 -91t-81.5 -78t-86.5 -54t-82.5 -20zM142 -2q34 0 66 21t61 55.5t53.5 78.5t42 90t27.5 90.5t10 80.5
q0 35 -5 49.5t-19 14.5q-18 0 -43.5 -24.5t-54 -63.5t-57.5 -86.5t-53 -92.5q-53 -99 -61 -156t33 -57z" />
    <glyph glyph-name="c" unicode="c" horiz-adv-x="417" 
d="M150 -13q-54 0 -88 35.5t-34 113.5q0 64 25 130.5t67.5 121t98.5 89t117 34.5q16 0 33.5 -3.5t31 -11.5t22.5 -21t9 -32q0 -16 -7.5 -27t-18.5 -17.5t-24 -9.5t-24 -2l-37 115q-33 -3 -66.5 -30.5t-61 -72.5t-45 -105t-17.5 -128q0 -30 4.5 -57t13 -47.5t22 -32.5
t31.5 -12q33 0 68.5 36.5t67.5 103.5l10 -4q-17 -37 -37 -67.5t-44.5 -52.5t-53.5 -34t-63 -12z" />
    <glyph glyph-name="d" unicode="d" horiz-adv-x="549" 
d="M88 -13q-24 0 -39.5 8.5t-24.5 22.5t-12.5 31t-3.5 34q0 42 14.5 90.5t39 96t57 91t69 77t75 53.5t74.5 20q31 0 48.5 -20t19.5 -52h1l102 309h-97l4 10h187l-222 -667q-13 -38 -16 -58t11 -20q22 0 61 36t80 105l10 -6q-50 -83 -98 -122t-108 -39q-42 0 -43.5 28
t19.5 86l43 118h-2q-25 -44 -53 -86t-59.5 -74.5t-65.5 -52t-71 -19.5zM147 20q16 0 41 20.5t52.5 53.5t55 75.5t49.5 87.5t36 88t14 78q0 41 -17 59t-39 18q-45 0 -85 -38t-70.5 -96t-48.5 -126.5t-18 -129.5q0 -90 30 -90z" />
    <glyph glyph-name="e" unicode="e" horiz-adv-x="445" 
d="M156 -13q-28 0 -52 9t-41.5 27t-27.5 46.5t-10 67.5q0 50 15.5 97.5t40.5 89t58.5 76t69.5 59.5t72 38.5t68 13.5q43 0 70.5 -24t27.5 -59q0 -58 -60 -97l-228 -8q-15 -35 -23.5 -74t-8.5 -80q0 -67 21.5 -109.5t64.5 -42.5q45 0 86 42t73 115l10 -4q-35 -85 -90 -134
t-136 -49zM349 502q-25 0 -51 -12.5t-50.5 -35t-46.5 -53t-38 -67.5l62 2q41 1 73 14.5t53.5 32.5t33 40t11.5 39q0 20 -13 30t-34 10z" />
    <glyph glyph-name="f" unicode="f" horiz-adv-x="329" 
d="M-139 -257q-23 0 -37 12.5t-14 32.5t11.5 33.5t32.5 14.5l123 -38q4 9 10.5 23t14.5 38.5t18.5 62.5t22.5 94l95 430h-78l2 9q28 5 49 17.5t38.5 33t34 48.5t35.5 63q25 46 51.5 77t52.5 50t52 27t50 8q34 0 47 -15.5t13 -35.5q0 -16 -9.5 -31t-26.5 -23l-150 36
q-9 -9 -22 -23.5t-24.5 -33.5t-19.5 -42t-8 -48q0 -26 11.5 -43.5t49.5 -17.5h131l-40 -56h-149l-49 -217q-25 -112 -53 -191.5t-57 -133.5t-58 -86t-56 -48.5t-51 -21.5t-43 -5z" />
    <glyph glyph-name="g" unicode="g" horiz-adv-x="483" 
d="M192 158q-24 0 -40 4l-44 -48l183 -110q53 -32 77.5 -58.5t24.5 -56.5q0 -36 -22.5 -63.5t-59 -45.5t-82.5 -27t-93 -9q-51 0 -94 8.5t-74 24t-48.5 36.5t-17.5 47q0 22 15 40.5t41.5 36t63.5 34t81 34.5l-48 67l87 93q-40 12 -60.5 42t-20.5 72q0 38 21.5 79t57 75
t81.5 56t95 22q39 0 67 -13.5t44 -36.5l38 69h105l-41 -73h-100q18 -29 18 -67t-21.5 -79t-57 -75t-81.5 -56t-95 -22zM223 169q32 0 55.5 23.5t38.5 59t22.5 76t7.5 73.5q0 43 -14 70t-48 27q-32 0 -55.5 -23.5t-38.5 -59t-22.5 -76t-7.5 -73.5q0 -43 14 -70t48 -27z
M-20 -124q0 -22 11.5 -43t35 -37t59.5 -26t86 -10q26 0 53.5 3.5t50.5 12t37.5 22.5t14.5 35q0 23 -24.5 46.5t-70.5 49.5l-123 70q-42 -18 -68 -33.5t-39.5 -30t-18 -29t-4.5 -30.5z" />
    <glyph glyph-name="h" unicode="h" horiz-adv-x="536" 
d="M244 -13q-37 0 -64 19t-27 51q0 28 23 43t51 12l39 -115q34 17 60.5 59t45 96t28.5 113.5t10 110.5q0 45 -12 73.5t-30 28.5q-17 0 -41.5 -24.5t-52.5 -63.5t-56 -87t-50 -94q-16 -33 -27.5 -59t-20.5 -49.5t-16.5 -45.5t-15.5 -47l-95 -18l264 758h-78l4 10h168
l-165 -467l-27 -70h2q25 47 53.5 98.5t61 94t69 70t77.5 27.5q40 0 66 -28t26 -85q0 -48 -13 -97t-34.5 -95t-49 -85.5t-57.5 -69.5t-60 -47t-56 -17z" />
    <glyph glyph-name="i" unicode="i" horiz-adv-x="309" 
d="M315 641q-26 0 -43.5 17.5t-17.5 43.5t17.5 43.5t43.5 17.5t43.5 -17.5t17.5 -43.5t-17.5 -43.5t-43.5 -17.5zM161 402l-78 46l2 4l213 59l-166 -420q-15 -38 -18 -58t11 -20q22 0 61 36t80 105l10 -6q-50 -83 -98 -122t-108 -39q-42 0 -46.5 28.5t18.5 85.5z" />
    <glyph glyph-name="j" unicode="j" horiz-adv-x="276" 
d="M77 448l2 4l210 59l-171 -466q-15 -41 -26.5 -69t-23 -47.5t-24.5 -32.5t-31 -24l-208 -128l-5 9q33 23 62 43.5t51 37.5q19 15 33.5 33.5t26 42t22.5 52t24 63.5l138 375zM305 641q-26 0 -43.5 17.5t-17.5 43.5t17.5 43.5t43.5 17.5t43.5 -17.5t17.5 -43.5t-17.5 -43.5
t-43.5 -17.5z" />
    <glyph glyph-name="k" unicode="k" horiz-adv-x="552" 
d="M257 748h-78l4 10h168l-96 -274l-59 -153h3q27 47 52.5 83.5t52 61t55.5 37t63 12.5q52 0 71 -21t19 -52q0 -34 -22 -63.5t-55.5 -53t-74.5 -41t-78 -26.5l105 -211q17 -35 26 -47t21 -12q15 0 32.5 22t35.5 80l11 -3q-12 -36 -23.5 -59.5t-26 -38t-32 -20t-39.5 -5.5
q-19 0 -34.5 6.5t-30.5 20.5t-30 37.5t-31 56.5l-82 165q47 0 91 13t77.5 37t54 57t20.5 73q0 26 -10.5 45.5t-34.5 19.5q-18 0 -38 -12t-40 -32.5t-39.5 -46.5t-36.5 -54t-30.5 -55t-21.5 -50l-44 -124l-40 -122l-99 -19z" />
    <glyph glyph-name="l" unicode="l" horiz-adv-x="292" 
d="M61 -13q-42 0 -44 28.5t18 86.5l225 646h-78l4 10h168l-233 -667q-14 -38 -16.5 -58t11.5 -20q22 0 61 36t80 105l10 -6q-50 -83 -98 -122t-108 -39z" />
    <glyph glyph-name="m" unicode="m" horiz-adv-x="824" 
d="M580 -13q-42 0 -47 29.5t21 85.5l127 274q17 37 24.5 59.5t7.5 34.5t-6 16t-15 4q-16 0 -35 -13.5t-39.5 -36t-41.5 -52t-41 -62.5q-29 -46 -56.5 -94t-51 -91.5t-42 -78.5t-27.5 -53l-100 -19l158 386q15 37 22.5 59.5t8.5 34.5t-4 16t-14 4q-16 0 -35 -13.5t-39.5 -36
t-41.5 -52t-41 -62.5q-29 -46 -56.5 -94.5t-51 -92t-40.5 -78t-24 -52.5l-100 -19l161 413l-78 45l2 4l208 59l-149 -381h2q15 27 31 56.5t32.5 58t33 55.5t30.5 49q46 72 91 117t95 45q57 0 64.5 -41.5t-24.5 -117.5l-92 -222h2q15 27 31 56.5t32.5 58t33 55.5t30.5 49
q46 72 91 117t95 45q57 0 66.5 -42t-25.5 -117l-121 -261q-17 -37 -19 -57.5t12 -20.5q22 0 61 36t80 105l10 -6q-50 -83 -98 -122t-108 -39z" />
    <glyph glyph-name="n" unicode="n" horiz-adv-x="561" 
d="M317 -13q-42 0 -47 29.5t21 85.5l127 274q17 37 24.5 59.5t7.5 34.5t-6 16t-15 4q-16 0 -35 -13.5t-39 -36t-41.5 -52.5t-41.5 -62q-29 -46 -56.5 -94.5t-51 -92t-40.5 -78t-24 -52.5l-100 -19l161 413l-78 45l2 4l208 59l-149 -381h2q15 27 31 56.5t32.5 58t33 55.5
t30.5 49q46 72 91 117t95 45q57 0 66.5 -42t-25.5 -117l-121 -261q-17 -37 -19 -57.5t12 -20.5q22 0 61 36t80 105l10 -6q-50 -83 -98 -122t-108 -39z" />
    <glyph glyph-name="o" unicode="o" horiz-adv-x="488" 
d="M159 -13q-40 0 -66 14t-41.5 35.5t-21.5 48t-6 51.5q0 45 14.5 90.5t38 87t55 77.5t65.5 62.5t68.5 42t64.5 15.5q40 0 66 -14t41.5 -35.5t21.5 -48t6 -51.5q0 -45 -14.5 -90.5t-38 -87t-55 -77.5t-65.5 -62.5t-68.5 -42t-64.5 -15.5zM183 1q27 0 50.5 18.5t43.5 49
t35 69.5t26 80t16.5 81t5.5 72q0 66 -11 96t-43 30q-27 0 -50.5 -18.5t-43.5 -49t-35 -69.5t-26 -80t-16.5 -81t-5.5 -72q0 -66 11 -96t43 -30z" />
    <glyph glyph-name="p" unicode="p" horiz-adv-x="526" 
d="M146 -13q-22 0 -44 6l-82 -241h-90l223 651l-78 45l2 4l203 59l-24 -70q26 29 67 49.5t84 20.5q49 0 78 -29.5t29 -85.5q0 -47 -15.5 -95.5t-42.5 -94t-63 -85.5t-77 -69.5t-84.5 -47t-85.5 -17.5zM337 473q-25 0 -47 -15t-39 -32l-144 -421q20 -7 41 -7q54 0 101 37
t82 92.5t55 120t20 119.5q0 31 -5.5 51.5t-14.5 32.5t-21.5 17t-27.5 5z" />
    <glyph glyph-name="q" unicode="q" horiz-adv-x="514" 
d="M278 68l61 151h-2q-25 -44 -53 -86t-59.5 -74.5t-65.5 -52t-71 -19.5q-24 0 -39.5 8.5t-24.5 22.5t-12.5 31t-3.5 34q0 42 14.5 90.5t39 96t57 91t69 77t75 53.5t74.5 20q31 0 50 -21.5t20 -63.5h1l30 85h82l-258 -759h-90zM147 20q14 0 33 14t41 38t44.5 55.5t43.5 65.5
t38.5 69t28.5 67q16 46 18 78.5t-5 53t-20.5 30t-29.5 9.5q-45 0 -85 -38t-70.5 -96t-48.5 -126.5t-18 -129.5q0 -90 30 -90z" />
    <glyph glyph-name="r" unicode="r" horiz-adv-x="402" 
d="M161 403l-78 45l2 4l207 59l-160 -378h3q13 28 30 63.5t35 70.5t34 65t27 48q23 38 41 63t34 39.5t31 20.5t32 6q26 0 41 -15t15 -36q0 -29 -19.5 -51t-48.5 -22l-43 89q-23 -21 -54.5 -70t-67.5 -118q-30 -59 -62.5 -128t-60.5 -149l-99 -19z" />
    <glyph glyph-name="s" unicode="s" horiz-adv-x="376" 
d="M102 -13q-24 0 -44 7.5t-34 20t-21.5 28t-7.5 31.5q0 28 23.5 43t54.5 12l37 -131q13 0 32 5t36.5 15.5t30 27.5t12.5 42q0 19 -9.5 43t-33.5 57l-42 58q-20 28 -29 52.5t-9 48.5q0 34 16 63.5t42.5 52t60 35.5t69.5 13q42 0 67.5 -20t25.5 -51q0 -26 -18 -43.5
t-56 -15.5l-30 118q-18 0 -37.5 -5t-36 -15t-27 -25t-10.5 -35q0 -17 11 -42.5t31 -52.5l42 -58q40 -55 40 -109q0 -39 -18 -70t-45.5 -53.5t-60.5 -34.5t-62 -12z" />
    <glyph glyph-name="t" unicode="t" horiz-adv-x="366" 
d="M69 -13q-42 0 -46 28.5t21 85.5l150 345h-116l23 56h118l50 116h85l-49 -116h145l-23 -56h-146l-150 -355q-16 -38 -18.5 -58t11.5 -20q22 0 61 36t80 105l10 -6q-50 -83 -98 -122t-108 -39z" />
    <glyph glyph-name="u" unicode="u" horiz-adv-x="557" 
d="M400 368h-2q-15 -27 -31 -56.5t-32.5 -58t-33 -55.5t-30.5 -49q-23 -36 -45.5 -66t-45 -51t-46 -33t-49.5 -12q-57 0 -65 41.5t24 117.5l138 336l-86 -16l4 11l186 35l-160 -390q-15 -38 -22 -60.5t-7.5 -34.5t4.5 -15.5t14 -3.5q15 0 34 13.5t40 36t42 52t41 62.5
q28 46 56 94.5t51.5 92.5t40.5 79t25 55l101 19l-165 -421q-15 -38 -17.5 -58t11.5 -20q22 0 61 36t80 105l10 -6q-50 -83 -98 -122t-108 -39q-42 0 -45 28t20 85z" />
    <glyph glyph-name="v" unicode="v" horiz-adv-x="551" 
d="M179 -13q-55 0 -79.5 25.5t-24.5 69.5q0 48 23 97.5t56.5 94.5t72.5 82.5t71 61.5h-211l-60 -102h-10l101 186h257q-33 -39 -70 -82.5t-69 -88.5t-53 -89t-21 -84q0 -46 21.5 -65.5t56.5 -19.5q31 0 72 18t80.5 52t72.5 83t50 112l-94 123q5 26 22 38t34 12q23 0 42 -20
t19 -61q0 -40 -12 -88.5t-34 -97.5t-53.5 -95.5t-71.5 -82.5t-87.5 -57.5t-100.5 -21.5z" />
    <glyph glyph-name="w" unicode="w" horiz-adv-x="786" 
d="M164 -13q-44 0 -66.5 25.5t-22.5 69.5q0 48 22 96.5t55.5 93t72.5 82.5t73 64h-211l-60 -102h-10l101 186h257q-33 -39 -70 -82.5t-69 -88.5t-53 -89t-21 -84q0 -24 7 -40.5t17.5 -26t24 -14t26.5 -4.5q26 0 51.5 8t51.5 26q-2 14 -3.5 29.5t-1.5 31.5q0 60 19 121.5
t48.5 110.5t64 80t64.5 31q26 0 38.5 -16t12.5 -45q0 -44 -32 -110t-100 -145l-53 -60q17 -28 44 -45t62 -17q34 0 68.5 16.5t66 49.5t58 83t43.5 116l-96 123q5 26 22 38t34 12q23 0 42 -20t19 -61q0 -31 -8.5 -75.5t-25.5 -94t-41.5 -98.5t-56.5 -87.5t-72 -63t-86 -24.5
q-51 0 -81 27t-43 70q-45 -42 -91 -69.5t-91 -27.5zM367 249q0 -58 23 -102q27 24 56 59q56 66 78 112t22 69q0 25 -13 37.5t-36 12.5t-46 -12.5t-41.5 -36.5t-30.5 -59t-12 -80z" />
    <glyph glyph-name="x" unicode="x" horiz-adv-x="541" 
d="M305 -13q-15 0 -25 5t-16.5 17.5t-10.5 33t-8 51.5l-11 91q-44 -67 -74.5 -106.5t-53 -59.5t-41.5 -26t-40 -6q-29 0 -44 16t-15 37q0 13 5 26.5t15 24t25 17.5t34 7l20 -111q31 11 69.5 61t97.5 136l-21 170q-4 32 -7 53t-7 33t-8.5 17t-11.5 5q-9 0 -22 -8.5t-28 -23.5
t-29.5 -35.5t-26.5 -44.5l-10 5q37 70 84 104.5t90 34.5q15 0 25 -5t16.5 -17.5t10.5 -33t8 -51.5l12 -97q45 69 76 109.5t54.5 61.5t42.5 27t40 6q29 0 44 -16t15 -37q0 -13 -5 -26.5t-15 -24t-25 -17.5t-34 -7l-20 111q-32 -12 -72 -64.5t-99 -138.5l20 -164q4 -32 7 -53
t7 -33t8.5 -17t11.5 -5q9 0 22 8.5t28 23.5t29.5 35.5t26.5 44.5l10 -5q-37 -70 -84 -104.5t-90 -34.5z" />
    <glyph glyph-name="y" unicode="y" horiz-adv-x="527" 
d="M15 -248h-106l236 268l-7 462l-86 -16l4 11l180 34l9 -476l246 312l-46 123q9 22 26 31.5t34 9.5q22 0 38 -14.5t16 -41.5q0 -19 -10 -42.5t-33 -52.5l-278 -352z" />
    <glyph glyph-name="z" unicode="z" horiz-adv-x="496" 
d="M39 -11q-37 -5 -54 4.5t-17 30.5q0 16 17.5 32t49.5 42l391 320h-283l-60 -102h-10l101 186h370l-325 -266l45 -118q15 -41 25.5 -66t18.5 -39.5t15.5 -19.5t18.5 -5q17 0 33 11.5t25.5 34.5t9 57t-17.5 80l10 3q18 -50 18.5 -87.5t-11.5 -62.5t-34.5 -37.5t-50.5 -12.5
q-25 0 -46 7t-40.5 25t-39.5 50t-42 82l-15 34l-78 -64q-21 -17 -23.5 -45t-0.5 -74z" />
    <glyph glyph-name="braceleft" unicode="{" horiz-adv-x="352" 
d="M146 -263q-42 5 -74.5 27t-49 58t-13 84t33.5 105l48 93q25 48 29.5 79.5t-6 51.5t-34 30t-54.5 14l4 11q34 4 64.5 14t54.5 30t41.5 51.5t25.5 79.5l16 93q20 115 92.5 173.5t184.5 60.5v-10q-46 -3 -77.5 -17t-52.5 -37t-32.5 -54.5t-17.5 -69.5l-11 -71
q-11 -67 -40.5 -113t-67 -74.5t-77 -42.5t-70.5 -17l-1 -3q28 -3 59 -17t49.5 -42.5t17 -74.5t-37.5 -113l-38 -71q-21 -39 -32 -75t-8 -65.5t21 -50t56 -27.5z" />
    <glyph glyph-name="bar" unicode="|" horiz-adv-x="335" 
d="M142 780h60v-1028h-60v1028z" />
    <glyph glyph-name="braceright" unicode="}" horiz-adv-x="351" 
d="M215 792q42 -5 74.5 -27t49 -58t13 -84t-33.5 -105l-48 -93q-25 -48 -29.5 -79.5t6 -51.5t34 -30t54.5 -14l-4 -11q-34 -4 -64.5 -14t-54.5 -30t-41.5 -51.5t-25.5 -79.5l-16 -93q-20 -115 -92.5 -173.5t-184.5 -60.5v10q46 3 77.5 17t52.5 37t32.5 54.5t17.5 69.5l11 71
q11 67 40.5 113t67 74.5t77 42.5t70.5 17l1 3q-28 3 -59 17t-49.5 42.5t-17 74.5t37.5 113l38 71q21 39 32 75t8 65.5t-21 50t-56 27.5z" />
    <glyph glyph-name="asciitilde" unicode="~" horiz-adv-x="653" 
d="M208 331q40 0 73.5 -13.5t62.5 -29.5t55 -29.5t53 -13.5q36 0 61.5 17.5t27.5 63.5h63q-5 -66 -47 -103t-106 -37q-35 0 -66.5 13.5t-60.5 29.5t-58 29.5t-59 13.5q-36 0 -61.5 -17.5t-27.5 -63.5h-63q5 66 47 103t106 37z" />
    <glyph glyph-name="uni00A0" unicode="&#xa0;" horiz-adv-x="284" 
 />
    <glyph glyph-name="exclamdown" unicode="&#xa1;" horiz-adv-x="260" 
d="M-27 -275q-21 17 -33.5 45.5t-7.5 63.5q23 26 49.5 72t53.5 104.5t52.5 125.5t46.5 136l4 13h11l-4 -13q-21 -69 -36.5 -136t-24 -125.5t-10 -104.5t5.5 -72q-13 -37 -42.5 -66.5t-64.5 -42.5zM185 511q33 0 55.5 -22.5t22.5 -55.5q0 -31 -22.5 -53t-55.5 -22
q-31 0 -53 22t-22 53q0 33 22 55.5t53 22.5z" />
    <glyph glyph-name="cent" unicode="&#xa2;" horiz-adv-x="434" 
d="M156 -13q-54 0 -88 35.5t-34 113.5q0 61 23 125t62.5 117.5t92 89.5t110.5 42l31 100h12l-31 -100q2 0 4 0.5t4 0.5q16 0 33.5 -3.5t31 -11.5t22.5 -21t9 -32q0 -16 -7.5 -27t-18.5 -17.5t-24 -9.5t-24 -2l-37 115q-33 -3 -66.5 -30.5t-61 -72.5t-45 -105t-17.5 -128
q0 -30 4.5 -57t13 -47.5t22 -32.5t31.5 -12q33 0 68.5 36.5t67.5 103.5l10 -4q-32 -69 -75.5 -113.5t-104.5 -51.5l-31 -102h-12l31 101h-6z" />
    <glyph glyph-name="sterling" unicode="&#xa3;" horiz-adv-x="645" 
d="M-35 4l174 114q57 37 94 63.5t58.5 46.5t30.5 37t9 36q0 25 -12 48h-200l9 11h184q-5 8 -15 22l-57 75q-22 29 -32 51.5t-10 45.5q0 40 39.5 77t123.5 79q69 35 130.5 52t103.5 17q40 0 58 -15t18 -41q0 -23 -17 -39t-40 -22l-32.5 12.5t-41 15.5t-42 15.5t-35.5 12.5
q-13 4 -22.5 6t-19.5 0t-22.5 -7.5t-32.5 -15.5q-38 -20 -58.5 -34.5t-23.5 -35.5q-2 -16 8.5 -42t42.5 -68l53 -71q17 -22 27.5 -43.5t10.5 -44.5v-2h179l-9 -11h-170q-2 -26 -14.5 -47t-40 -44t-73 -52t-113.5 -72l-70 -44h442l-52 -90h-540v4z" />
    <glyph glyph-name="yen" unicode="&#xa5;" horiz-adv-x="856" 
d="M509 0h-322l3 10h109l67 219h-155l8 11h151l35 114h-157l8 11h152l-144 383h-93l3 10h292l-3 -10h-93l139 -367l363 367h-91l3 10h192l-3 -10h-84l-377 -382v-1h168l-8 -11h-164l-35 -114h170l-8 -11h-165l-67 -219h109z" />
    <glyph glyph-name="brokenbar" unicode="&#xa6;" horiz-adv-x="335" 
d="M142 780h60v-394h-60v394zM142 146h60v-394h-60v394z" />
    <glyph glyph-name="section" unicode="&#xa7;" horiz-adv-x="612" 
d="M145 -181q31 0 61.5 14t54 37.5t38 53.5t14.5 63q0 44 -24 90.5t-58 103.5l-42 74q-29 49 -43 89.5t-14 82.5q0 63 29.5 125.5t82 113t124 82t156.5 31.5q78 0 123 -31t45 -77q0 -21 -9.5 -37t-25 -25.5t-36.5 -13t-45 -0.5q7 35 9 66.5t-5.5 55t-27 37.5t-54.5 14
q-31 0 -61.5 -13t-55 -36t-40 -53.5t-15.5 -65.5q0 -36 19 -78t51 -98l42 -74q32 -55 52 -102t20 -98q0 -62 -31 -123t-83.5 -109.5t-122 -79t-146.5 -30.5q-83 0 -130.5 34t-47.5 83q0 25 11.5 42.5t29 27.5t38 13t38.5 0q-8 -39 -9.5 -73.5t6.5 -60t27.5 -40.5t54.5 -15z
M361 23q0 -20 -6 -43.5t-19.5 -47t-34.5 -46.5t-51 -41q57 21 97 52.5t65 67.5t36.5 74t11.5 71q0 48 -19.5 96t-51.5 105l-44 78q-32 57 -46 98.5t-14 74.5q0 54 28.5 101.5t77.5 78.5q-54 -21 -93.5 -51t-65 -66t-38 -75.5t-12.5 -78.5q0 -42 14.5 -86t43.5 -95l44 -77
q35 -62 56 -105.5t21 -84.5z" />
    <glyph glyph-name="dieresis" unicode="&#xa8;" 
d="M-117 624q-29 0 -47 18t-18 44q0 28 18 46t47 18q27 0 45 -18t18 -46q0 -26 -18 -44t-45 -18zM119 624q-29 0 -47 18t-18 44q0 28 18 46t47 18q27 0 45 -18t18 -46q0 -26 -18 -44t-45 -18z" />
    <glyph glyph-name="copyright" unicode="&#xa9;" horiz-adv-x="930" 
d="M110 382q0 88 30.5 161t84 125.5t126 81.5t156.5 29q82 0 154 -29t125.5 -81.5t84.5 -125.5t31 -161t-31 -160.5t-84.5 -124.5t-125.5 -81t-154 -29q-84 0 -156.5 29t-126 81t-84 124.5t-30.5 160.5zM146 382q0 -82 27.5 -149.5t76 -115.5t114.5 -74.5t143 -26.5
q78 0 143.5 26.5t113.5 74.5t75 115.5t27 149.5q0 83 -27 150.5t-75 115.5t-113.5 74.5t-143.5 26.5q-77 0 -143 -26.5t-114.5 -74.5t-76 -115.5t-27.5 -150.5zM526 172q27 0 51.5 8t46 27.5t40.5 52t35 80.5h6l-30 -175h-3l-28 32q-22 -17 -54.5 -25t-65.5 -8
q-52 0 -97.5 16t-79.5 45t-53.5 70.5t-19.5 92.5q0 47 18 88t51 71.5t78.5 48t100.5 17.5q33 0 65.5 -8t54.5 -25l27 31h4l30 -175h-6q-16 48 -35 80.5t-40.5 52t-46 28t-51.5 8.5t-55.5 -10.5t-52 -34.5t-38.5 -62t-15 -92q0 -49 11.5 -92t33 -74.5t51.5 -49.5t67 -18z" />
    <glyph glyph-name="ordfeminine" unicode="&#xaa;" horiz-adv-x="491" 
d="M187 356q-34 0 -51 21.5t-17 57.5q0 35 12.5 74t33 77.5t48 73t57.5 61t61.5 42.5t59.5 16q26 0 39.5 -19.5t8.5 -51.5h1l28 73h72l-127 -341q-12 -31 -14.5 -47t8.5 -16q17 0 48.5 29t65.5 86l8 -5q-41 -68 -80 -99.5t-88 -31.5q-18 0 -26 6t-9 18t4 29t14 39l37 94h-1
q-22 -38 -44 -71.5t-45.5 -59t-49 -40.5t-54.5 -15zM236 383q13 0 32.5 17.5t41 46.5t43 65.5t39 73.5t28.5 72t11 61t-10.5 38.5t-27.5 12.5q-36 0 -68.5 -32t-58 -80t-40.5 -104t-15 -105q0 -37 7 -51.5t18 -14.5z" />
    <glyph glyph-name="guillemotleft" unicode="&#xab;" horiz-adv-x="542" 
d="M341 483l6 -6l-185 -233l29 -221l-8 -3l-133 231zM551 483l6 -6l-185 -233l29 -221l-8 -3l-133 231z" />
    <glyph glyph-name="uni00AD" unicode="&#xad;" horiz-adv-x="439" 
d="M87 295h294l-22 -65h-294z" />
    <glyph glyph-name="registered" unicode="&#xae;" horiz-adv-x="930" 
d="M110 382q0 88 30.5 161t84 125.5t126 81.5t156.5 29q82 0 154 -29t125.5 -81.5t84.5 -125.5t31 -161t-31 -160.5t-84.5 -124.5t-125.5 -81t-154 -29q-84 0 -156.5 29t-126 81t-84 124.5t-30.5 160.5zM146 382q0 -82 27.5 -149.5t76 -115.5t114.5 -74.5t143 -26.5
q78 0 143.5 26.5t113.5 74.5t75 115.5t27 149.5q0 83 -27 150.5t-75 115.5t-113.5 74.5t-143.5 26.5q-77 0 -143 -26.5t-114.5 -74.5t-76 -115.5t-27.5 -150.5zM312 189h55v412h-55v9h177q40 0 72.5 -5.5t56 -17.5t36 -31.5t12.5 -47.5q0 -45 -37 -71t-102 -34v-2
q26 -5 48.5 -25.5t45.5 -48.5l128 -147h-96l-186 217h-26v-208h63v-9h-192v9zM483 406q54 0 78 26.5t24 71.5q0 44 -24 70.5t-78 26.5h-42v-195h42z" />
    <glyph glyph-name="macron" unicode="&#xaf;" 
d="M-145 705h310l-21 -61h-310z" />
    <glyph glyph-name="degree" unicode="&#xb0;" horiz-adv-x="441" 
d="M325 441q-36 0 -67 13t-54 36t-36 54t-13 66t13 66t36 54t54 36t67 13t67 -13t54 -36t36 -54t13 -66t-13 -66t-36 -54t-54 -36t-67 -13zM325 489q23 0 44 9t36.5 24.5t24.5 38t9 49.5t-9 49.5t-24.5 38t-36.5 24.5t-44 9t-44 -9t-36.5 -24.5t-24.5 -38t-9 -49.5t9 -49.5
t24.5 -38t36.5 -24.5t44 -9z" />
    <glyph glyph-name="plusminus" unicode="&#xb1;" horiz-adv-x="653" 
d="M275 288h-214v65h214v163h69v-163h214v-65h-214v-168h-69v168zM61 65h497v-65h-497v65z" />
    <glyph glyph-name="uni00B2" unicode="&#xb2;" horiz-adv-x="340" 
d="M58 403q88 64 146.5 113t93.5 87.5t49.5 68t14.5 55.5q0 28 -18 45t-47 17t-52 -14.5t-42 -50.5l-6 2q42 103 144 103q48 0 73.5 -24t25.5 -64q0 -29 -14.5 -55.5t-38 -50.5t-53.5 -46.5t-61 -42.5l-121 -80h225l-43 -65h-276v2z" />
    <glyph glyph-name="uni00B3" unicode="&#xb3;" horiz-adv-x="343" 
d="M195 394q-47 0 -74 20t-27 43q0 21 19 32t43 3l25 -77q3 -8 7.5 -10.5t12.5 -2.5q24 0 46 9t39 26.5t27 42.5t10 57q0 42 -22.5 67t-53.5 25q-15 0 -31 -6l-2 8l26 6q58 14 92 38.5t34 60.5q0 24 -18 38.5t-50 14.5q-34 0 -60.5 -19t-37.5 -59h-6q6 32 20 54.5t33 36.5
t42.5 20.5t47.5 6.5q39 0 68 -17t29 -52q0 -34 -27 -56t-78 -36l-1 -1q33 -14 50.5 -41.5t17.5 -64.5q0 -36 -18 -66.5t-47 -53t-64.5 -35t-71.5 -12.5z" />
    <glyph glyph-name="acute" unicode="&#xb4;" 
d="M-6 758h129l-1 -3l-234 -176h-11z" />
    <glyph glyph-name="paragraph" unicode="&#xb6;" horiz-adv-x="600" 
d="M328 288q-8 -1 -16 -1.5t-17 -0.5q-41 0 -75.5 12t-59.5 34.5t-38.5 55t-13.5 74.5q0 57 32 110.5t92 94.5t145 66t190 25h144l-3 -10h-90l-284 -834l-83 -51l150 442q-17 -5 -31.5 -9.5t-29.5 -6.5l-161 -470l-14 -9z" />
    <glyph glyph-name="periodcentered" unicode="&#xb7;" horiz-adv-x="294" 
d="M149 186q-31 0 -53 22.5t-22 55.5q0 31 22 53t53 22q33 0 55.5 -22t22.5 -53q0 -33 -22.5 -55.5t-55.5 -22.5z" />
    <glyph glyph-name="cedilla" unicode="&#xb8;" 
d="M-59 -269q-21 0 -40.5 4t-34.5 11.5t-23.5 18t-8.5 22.5q0 11 6 18.5t15 10.5t18.5 2t17.5 -7l38 -57q4 -6 6.5 -10t10.5 -4q12 0 24.5 2.5t22.5 7.5t16.5 13.5t6.5 19.5q0 27 -30 50t-72 40l154 127h16l-101 -83q45 -21 63 -43t18 -48q0 -19 -10.5 -36t-28 -30
t-39.5 -21t-45 -8z" />
    <glyph glyph-name="uni00B9" unicode="&#xb9;" horiz-adv-x="236" 
d="M80 409h52l121 352h-69l3 8q55 3 93 19t63 42h4l-145 -421h40l-3 -8h-162z" />
    <glyph glyph-name="ordmasculine" unicode="&#xba;" horiz-adv-x="423" 
d="M237 356q-32 0 -53.5 11t-34 28.5t-17.5 38.5t-5 42q0 54 25 108.5t62.5 97.5t81.5 70t82 27q32 0 53.5 -11t34 -28.5t17.5 -39t5 -41.5q0 -55 -25 -109t-62.5 -97t-81.5 -70t-82 -27zM259 367q32 0 58 31.5t44 77.5t28 98t10 93q0 52 -9 76t-34 24q-21 0 -40 -14.5
t-34.5 -39t-27.5 -55.5t-20.5 -64.5t-13 -66t-4.5 -59.5q0 -53 9 -77t34 -24z" />
    <glyph glyph-name="guillemotright" unicode="&#xbb;" horiz-adv-x="542" 
d="M-7 20l-6 6l185 233l-29 221l8 3l133 -231zM203 20l-6 6l185 233l-29 221l8 3l133 -231z" />
    <glyph glyph-name="onequarter" unicode="&#xbc;" horiz-adv-x="803" 
d="M62 349h52l121 352h-69l3 8q55 3 93 19t63 42h4l-145 -421h40l-3 -8h-162zM795 758h75l-846 -758h-75zM584 110h-195v1l374 320h3l-91 -264h75l-20 -57h-74l-38 -110h-72zM604 167l58 168l-194 -168h136z" />
    <glyph glyph-name="onehalf" unicode="&#xbd;" horiz-adv-x="816" 
d="M62 349h52l121 352h-69l3 8q55 3 93 19t63 42h4l-145 -421h40l-3 -8h-162zM795 758h75l-846 -758h-75zM413 2q88 64 146.5 113t93.5 87.5t49.5 68t14.5 55.5q0 28 -18 45t-47 17t-52 -14.5t-42 -50.5l-6 2q42 103 144 103q48 0 73.5 -24t25.5 -64q0 -29 -14.5 -55.5
t-38 -50.5t-53.5 -46.5t-61 -42.5l-121 -80h225l-43 -65h-276v2z" />
    <glyph glyph-name="threequarters" unicode="&#xbe;" horiz-adv-x="878" 
d="M177 334q-47 0 -74 20t-27 43q0 21 19 32t43 3l25 -77q3 -8 7.5 -10.5t12.5 -2.5q24 0 46 9t39 26.5t27 42.5t10 57q0 42 -22.5 67t-53.5 25q-15 0 -31 -6l-2 8l26 6q58 14 92 38.5t34 60.5q0 24 -18 38.5t-50 14.5q-34 0 -60.5 -19t-37.5 -59h-6q6 32 20 54.5t33 36.5
t42.5 20.5t47.5 6.5q39 0 68 -17t29 -52q0 -34 -27 -56t-78 -36l-1 -1q33 -14 50.5 -41.5t17.5 -64.5q0 -36 -18 -66.5t-47 -53t-64.5 -35t-71.5 -12.5zM870 758h75l-846 -758h-75zM659 110h-195v1l374 320h3l-91 -264h75l-20 -57h-74l-38 -110h-72zM679 167l58 168
l-194 -168h136z" />
    <glyph glyph-name="questiondown" unicode="&#xbf;" horiz-adv-x="605" 
d="M214 -243q60 0 93 32.5t43 112.5q18 1 36 -1.5t32 -9.5t22.5 -17.5t8.5 -25.5q0 -24 -17 -43t-46 -33t-67 -21.5t-81 -7.5q-68 0 -119 21.5t-85 57t-51.5 80t-17.5 89.5q0 28 7 52t24.5 42t47 31t74.5 19l207 29q12 2 20 4t13.5 6t9.5 11.5t8 20.5l28 79h10l-27 -137
q-5 -26 -12.5 -42t-19.5 -26t-29 -15t-42 -8l-154 -21q-69 -9 -99.5 -32.5t-30.5 -74.5q0 -33 17.5 -64t46.5 -55t68 -38.5t82 -14.5zM446 511q31 0 53 -22.5t22 -55.5q0 -31 -22 -53t-53 -22q-33 0 -55.5 22t-22.5 53q0 33 22.5 55.5t55.5 22.5z" />
    <glyph glyph-name="Agrave" unicode="&#xc0;" horiz-adv-x="793" 
d="M-136 10h99l840 787h7l-241 -787h99l-3 -10h-302l3 10h99l84 275h-277l-293 -275h118l-3 -10h-233zM566 338l95 311l-332 -311h237zM750 972l91 -129h-9l-240 126v3h158z" />
    <glyph glyph-name="Aacute" unicode="&#xc1;" horiz-adv-x="793" 
d="M-136 10h99l840 787h7l-241 -787h99l-3 -10h-302l3 10h99l84 275h-277l-293 -275h118l-3 -10h-233zM566 338l95 311l-332 -311h237zM1022 969l-292 -126h-13l136 129h170z" />
    <glyph glyph-name="Acircumflex" unicode="&#xc2;" horiz-adv-x="793" 
d="M-136 10h99l840 787h7l-241 -787h99l-3 -10h-302l3 10h99l84 275h-277l-293 -275h118l-3 -10h-233zM566 338l95 311l-332 -311h237zM846 996h16l87 -153h-10l-101 66l-200 -66h-15z" />
    <glyph glyph-name="Atilde" unicode="&#xc3;" horiz-adv-x="793" 
d="M-136 10h99l840 787h7l-241 -787h99l-3 -10h-302l3 10h99l84 275h-277l-293 -275h118l-3 -10h-233zM566 338l95 311l-332 -311h237zM636 859q5 63 36 102.5t85 39.5q21 0 41 -10t39.5 -21.5t39 -21.5t39.5 -10q30 0 47.5 14t28.5 46h11q-8 -41 -19 -67t-26 -42t-33 -22
t-38 -6q-25 0 -45.5 10t-39 21.5t-37 21.5t-39.5 10q-29 0 -50.5 -16t-28.5 -49h-11z" />
    <glyph glyph-name="Adieresis" unicode="&#xc4;" horiz-adv-x="793" 
d="M-136 10h99l840 787h7l-241 -787h99l-3 -10h-302l3 10h99l84 275h-277l-293 -275h118l-3 -10h-233zM566 338l95 311l-332 -311h237zM719 861q-29 0 -47 18t-18 44q0 28 18 46t47 18q27 0 45 -18t18 -46q0 -26 -18 -44t-45 -18zM919 861q-29 0 -47 18t-18 44q0 28 18 46
t47 18q27 0 45 -18t18 -46q0 -26 -18 -44t-45 -18z" />
    <glyph glyph-name="Aring" unicode="&#xc5;" horiz-adv-x="793" 
d="M-136 10h99l840 787h7l-241 -787h99l-3 -10h-302l3 10h99l84 275h-277l-293 -275h118l-3 -10h-233zM566 338l95 311l-332 -311h237zM721 953q0 22 8.5 40.5t23 32.5t34 22t42.5 8q22 0 41.5 -8t34 -22t23 -32.5t8.5 -40.5t-8.5 -41t-23 -33t-34 -22t-41.5 -8
q-23 0 -42.5 8t-34 22t-23 33t-8.5 41zM890 953q0 27 -16.5 45t-44.5 18q-29 0 -45.5 -18t-16.5 -45q0 -28 16.5 -45.5t45.5 -17.5q28 0 44.5 17.5t16.5 45.5z" />
    <glyph glyph-name="AE" unicode="&#xc6;" horiz-adv-x="1147" 
d="M-134 10h99l731 748h440l-27 -234h-6l-67 206q-4 11 -10 14.5t-23 3.5h-206l-109 -355h147q8 0 12.5 2t12.5 13l94 123h6l-87 -286h-6l-19 123q-2 11 -5 13t-11 2h-147l-114 -373h272q16 0 25.5 4t20.5 14l226 216h7l-146 -244h-611l3 10h99l84 275h-301l-269 -275h118
l-3 -10h-233zM302 338h265l120 394z" />
    <glyph glyph-name="Ccedilla" unicode="&#xc7;" horiz-adv-x="814" 
d="M389 -13q-60 0 -115.5 18t-97.5 55.5t-67 95t-25 137.5q0 97 42 185.5t112.5 155t163 106t193.5 39.5q60 0 109.5 -15t78.5 -42l65 54h6l-51 -308h-6q3 85 -10.5 143t-40.5 93t-66 50.5t-88 15.5q-91 0 -162.5 -42.5t-121 -113.5t-76 -164.5t-26.5 -196.5
q0 -57 12 -104.5t36 -81t59 -52t81 -18.5q49 0 94.5 15.5t91.5 51t94.5 93t104.5 141.5h6l-161 -308h-6l-26 50q-50 -34 -101 -43.5t-102 -9.5zM277 -271q-21 0 -40.5 4t-34.5 11.5t-23.5 18t-8.5 22.5q0 11 6 18.5t15 10.5t18.5 2t17.5 -7l38 -57q4 -6 6.5 -10t10.5 -4
q12 0 24.5 2.5t22.5 7.5t16.5 13.5t6.5 19.5q0 27 -30 50t-72 40l154 127h16l-101 -83q45 -21 63 -43t18 -48q0 -19 -10.5 -36t-28 -30t-39.5 -21t-45 -8z" />
    <glyph glyph-name="Egrave" unicode="&#xc8;" horiz-adv-x="750" 
d="M-29 10h99l226 738h-99l3 10h539l-27 -234h-6l-67 206q-4 11 -10 14.5t-23 3.5h-206l-109 -355h147q8 0 12.5 2t12.5 13l94 123h6l-87 -286h-6l-19 123q-2 11 -5 13t-11 2h-147l-114 -373h272q16 0 25.5 4t20.5 14l226 216h7l-146 -244h-611zM502 972l91 -129h-9
l-240 126v3h158z" />
    <glyph glyph-name="Eacute" unicode="&#xc9;" horiz-adv-x="750" 
d="M-29 10h99l226 738h-99l3 10h539l-27 -234h-6l-67 206q-4 11 -10 14.5t-23 3.5h-206l-109 -355h147q8 0 12.5 2t12.5 13l94 123h6l-87 -286h-6l-19 123q-2 11 -5 13t-11 2h-147l-114 -373h272q16 0 25.5 4t20.5 14l226 216h7l-146 -244h-611zM774 969l-292 -126h-13
l136 129h170z" />
    <glyph glyph-name="Ecircumflex" unicode="&#xca;" horiz-adv-x="750" 
d="M-29 10h99l226 738h-99l3 10h539l-27 -234h-6l-67 206q-4 11 -10 14.5t-23 3.5h-206l-109 -355h147q8 0 12.5 2t12.5 13l94 123h6l-87 -286h-6l-19 123q-2 11 -5 13t-11 2h-147l-114 -373h272q16 0 25.5 4t20.5 14l226 216h7l-146 -244h-611zM598 996h16l87 -153h-10
l-101 66l-200 -66h-15z" />
    <glyph glyph-name="Edieresis" unicode="&#xcb;" horiz-adv-x="750" 
d="M-29 10h99l226 738h-99l3 10h539l-27 -234h-6l-67 206q-4 11 -10 14.5t-23 3.5h-206l-109 -355h147q8 0 12.5 2t12.5 13l94 123h6l-87 -286h-6l-19 123q-2 11 -5 13t-11 2h-147l-114 -373h272q16 0 25.5 4t20.5 14l226 216h7l-146 -244h-611zM471 861q-29 0 -47 18
t-18 44q0 28 18 46t47 18q27 0 45 -18t18 -46q0 -26 -18 -44t-45 -18zM671 861q-29 0 -47 18t-18 44q0 28 18 46t47 18q27 0 45 -18t18 -46q0 -26 -18 -44t-45 -18z" />
    <glyph glyph-name="Igrave" unicode="&#xcc;" horiz-adv-x="391" 
d="M270 0h-302l3 10h99l226 738h-99l3 10h302l-3 -10h-99l-226 -738h99zM342 972l91 -129h-9l-240 126v3h158z" />
    <glyph glyph-name="Iacute" unicode="&#xcd;" horiz-adv-x="391" 
d="M270 0h-302l3 10h99l226 738h-99l3 10h302l-3 -10h-99l-226 -738h99zM614 969l-292 -126h-13l136 129h170z" />
    <glyph glyph-name="Icircumflex" unicode="&#xce;" horiz-adv-x="391" 
d="M270 0h-302l3 10h99l226 738h-99l3 10h302l-3 -10h-99l-226 -738h99zM438 996h16l87 -153h-10l-101 66l-200 -66h-15z" />
    <glyph glyph-name="Idieresis" unicode="&#xcf;" horiz-adv-x="391" 
d="M270 0h-302l3 10h99l226 738h-99l3 10h302l-3 -10h-99l-226 -738h99zM311 861q-29 0 -47 18t-18 44q0 28 18 46t47 18q27 0 45 -18t18 -46q0 -26 -18 -44t-45 -18zM511 861q-29 0 -47 18t-18 44q0 28 18 46t47 18q27 0 45 -18t18 -46q0 -26 -18 -44t-45 -18z" />
    <glyph glyph-name="Eth" unicode="&#xd0;" horiz-adv-x="849" 
d="M-28 10h99l226 738h-99l3 10h284q83 0 150 -19t114.5 -55.5t73 -90t25.5 -122.5q0 -91 -40 -176t-112 -150.5t-172 -105t-221 -39.5h-334zM304 10q100 0 179 43t133.5 112.5t83 157.5t28.5 179q0 118 -62 182t-188 64h-77l-226 -738h129zM97 417h380l-17 -53h-380z" />
    <glyph glyph-name="Ntilde" unicode="&#xd1;" horiz-adv-x="864" 
d="M-13 10h97l189 618l-73 128v2h119l360 -628l189 618h-96l3 10h205l-3 -10h-97l-236 -771h-3l-360 637l-185 -604h96l-4 -10h-205zM475 859q5 63 36 102.5t85 39.5q21 0 41 -10t39.5 -21.5t39 -21.5t39.5 -10q30 0 47.5 14t28.5 46h11q-8 -41 -19 -67t-26 -42t-33 -22
t-38 -6q-25 0 -45.5 10t-39 21.5t-37 21.5t-39.5 10q-29 0 -50.5 -16t-28.5 -49h-11z" />
    <glyph glyph-name="Ograve" unicode="&#xd2;" horiz-adv-x="845" 
d="M569 779q58 0 109 -18t89 -53.5t60.5 -87.5t22.5 -120q0 -56 -16.5 -115.5t-47 -116.5t-74.5 -108t-98.5 -89.5t-119 -61t-136.5 -22.5q-58 0 -109 18t-89.5 53.5t-60.5 87.5t-22 120q0 56 16.5 115.5t47 116.5t74.5 108t98.5 89.5t119 61t136.5 22.5zM559 769
q-71 0 -135.5 -42.5t-114 -115.5t-79 -171t-29.5 -209q0 -65 13 -109.5t35.5 -72t53 -40t65.5 -12.5q71 0 135.5 42.5t114 115.5t79 171t29.5 209q0 64 -13 109t-35.5 72.5t-53 40t-65.5 12.5zM583 972l91 -129h-9l-240 126v3h158z" />
    <glyph glyph-name="Oacute" unicode="&#xd3;" horiz-adv-x="845" 
d="M569 779q58 0 109 -18t89 -53.5t60.5 -87.5t22.5 -120q0 -56 -16.5 -115.5t-47 -116.5t-74.5 -108t-98.5 -89.5t-119 -61t-136.5 -22.5q-58 0 -109 18t-89.5 53.5t-60.5 87.5t-22 120q0 56 16.5 115.5t47 116.5t74.5 108t98.5 89.5t119 61t136.5 22.5zM559 769
q-71 0 -135.5 -42.5t-114 -115.5t-79 -171t-29.5 -209q0 -65 13 -109.5t35.5 -72t53 -40t65.5 -12.5q71 0 135.5 42.5t114 115.5t79 171t29.5 209q0 64 -13 109t-35.5 72.5t-53 40t-65.5 12.5zM855 969l-292 -126h-13l136 129h170z" />
    <glyph glyph-name="Ocircumflex" unicode="&#xd4;" horiz-adv-x="845" 
d="M569 779q58 0 109 -18t89 -53.5t60.5 -87.5t22.5 -120q0 -56 -16.5 -115.5t-47 -116.5t-74.5 -108t-98.5 -89.5t-119 -61t-136.5 -22.5q-58 0 -109 18t-89.5 53.5t-60.5 87.5t-22 120q0 56 16.5 115.5t47 116.5t74.5 108t98.5 89.5t119 61t136.5 22.5zM559 769
q-71 0 -135.5 -42.5t-114 -115.5t-79 -171t-29.5 -209q0 -65 13 -109.5t35.5 -72t53 -40t65.5 -12.5q71 0 135.5 42.5t114 115.5t79 171t29.5 209q0 64 -13 109t-35.5 72.5t-53 40t-65.5 12.5zM679 996h16l87 -153h-10l-101 66l-200 -66h-15z" />
    <glyph glyph-name="Otilde" unicode="&#xd5;" horiz-adv-x="845" 
d="M569 779q58 0 109 -18t89 -53.5t60.5 -87.5t22.5 -120q0 -56 -16.5 -115.5t-47 -116.5t-74.5 -108t-98.5 -89.5t-119 -61t-136.5 -22.5q-58 0 -109 18t-89.5 53.5t-60.5 87.5t-22 120q0 56 16.5 115.5t47 116.5t74.5 108t98.5 89.5t119 61t136.5 22.5zM559 769
q-71 0 -135.5 -42.5t-114 -115.5t-79 -171t-29.5 -209q0 -65 13 -109.5t35.5 -72t53 -40t65.5 -12.5q71 0 135.5 42.5t114 115.5t79 171t29.5 209q0 64 -13 109t-35.5 72.5t-53 40t-65.5 12.5zM469 859q5 63 36 102.5t85 39.5q21 0 41 -10t39.5 -21.5t39 -21.5t39.5 -10
q30 0 47.5 14t28.5 46h11q-8 -41 -19 -67t-26 -42t-33 -22t-38 -6q-25 0 -45.5 10t-39 21.5t-37 21.5t-39.5 10q-29 0 -50.5 -16t-28.5 -49h-11z" />
    <glyph glyph-name="Odieresis" unicode="&#xd6;" horiz-adv-x="845" 
d="M569 779q58 0 109 -18t89 -53.5t60.5 -87.5t22.5 -120q0 -56 -16.5 -115.5t-47 -116.5t-74.5 -108t-98.5 -89.5t-119 -61t-136.5 -22.5q-58 0 -109 18t-89.5 53.5t-60.5 87.5t-22 120q0 56 16.5 115.5t47 116.5t74.5 108t98.5 89.5t119 61t136.5 22.5zM559 769
q-71 0 -135.5 -42.5t-114 -115.5t-79 -171t-29.5 -209q0 -65 13 -109.5t35.5 -72t53 -40t65.5 -12.5q71 0 135.5 42.5t114 115.5t79 171t29.5 209q0 64 -13 109t-35.5 72.5t-53 40t-65.5 12.5zM552 861q-29 0 -47 18t-18 44q0 28 18 46t47 18q27 0 45 -18t18 -46
q0 -26 -18 -44t-45 -18zM752 861q-29 0 -47 18t-18 44q0 28 18 46t47 18q27 0 45 -18t18 -46q0 -26 -18 -44t-45 -18z" />
    <glyph glyph-name="multiply" unicode="&#xd7;" horiz-adv-x="653" 
d="M95 73l189 189l-189 189l46 46l189 -189l189 189l46 -46l-189 -189l189 -189l-46 -45l-189 189l-189 -189z" />
    <glyph glyph-name="Oslash" unicode="&#xd8;" horiz-adv-x="862" 
d="M578 779q58 0 109 -18t89 -53.5t60.5 -87.5t22.5 -120q0 -56 -16.5 -115.5t-47 -116.5t-74.5 -108t-98.5 -89.5t-119 -61t-136.5 -22.5q-58 0 -109 18t-89.5 53.5t-60.5 87.5t-22 120q0 56 16.5 115.5t47 116.5t74.5 108t98.5 89.5t119 61t136.5 22.5zM568 769
q-71 0 -135.5 -42.5t-114 -115.5t-79 -171t-29.5 -209q0 -65 13 -109.5t35.5 -72t53 -40t65.5 -12.5q71 0 135.5 42.5t114 115.5t79 171t29.5 209q0 64 -13 109t-35.5 72.5t-53 40t-65.5 12.5zM-13 -18l928 841l36 -39l-928 -841z" />
    <glyph glyph-name="Ugrave" unicode="&#xd9;" horiz-adv-x="847" 
d="M369 -13q-74 0 -128 16.5t-84 52t-35 90.5t19 133l144 469h-99l3 10h302l-3 -10h-99l-144 -470q-43 -140 -5.5 -202t150.5 -62q55 0 105 13.5t92.5 44.5t76 81.5t56.5 124.5l144 470h-99l3 10h210l-3 -10h-99l-144 -470q-47 -151 -138 -221t-225 -70zM591 972l91 -129h-9
l-240 126v3h158z" />
    <glyph glyph-name="Uacute" unicode="&#xda;" horiz-adv-x="847" 
d="M369 -13q-74 0 -128 16.5t-84 52t-35 90.5t19 133l144 469h-99l3 10h302l-3 -10h-99l-144 -470q-43 -140 -5.5 -202t150.5 -62q55 0 105 13.5t92.5 44.5t76 81.5t56.5 124.5l144 470h-99l3 10h210l-3 -10h-99l-144 -470q-47 -151 -138 -221t-225 -70zM863 969l-292 -126
h-13l136 129h170z" />
    <glyph glyph-name="Ucircumflex" unicode="&#xdb;" horiz-adv-x="847" 
d="M369 -13q-74 0 -128 16.5t-84 52t-35 90.5t19 133l144 469h-99l3 10h302l-3 -10h-99l-144 -470q-43 -140 -5.5 -202t150.5 -62q55 0 105 13.5t92.5 44.5t76 81.5t56.5 124.5l144 470h-99l3 10h210l-3 -10h-99l-144 -470q-47 -151 -138 -221t-225 -70zM687 996h16l87 -153
h-10l-101 66l-200 -66h-15z" />
    <glyph glyph-name="Udieresis" unicode="&#xdc;" horiz-adv-x="847" 
d="M369 -13q-74 0 -128 16.5t-84 52t-35 90.5t19 133l144 469h-99l3 10h302l-3 -10h-99l-144 -470q-43 -140 -5.5 -202t150.5 -62q55 0 105 13.5t92.5 44.5t76 81.5t56.5 124.5l144 470h-99l3 10h210l-3 -10h-99l-144 -470q-47 -151 -138 -221t-225 -70zM560 861
q-29 0 -47 18t-18 44q0 28 18 46t47 18q27 0 45 -18t18 -46q0 -26 -18 -44t-45 -18zM760 861q-29 0 -47 18t-18 44q0 28 18 46t47 18q27 0 45 -18t18 -46q0 -26 -18 -44t-45 -18z" />
    <glyph glyph-name="Yacute" unicode="&#xdd;" horiz-adv-x="760" 
d="M467 0h-322l3 10h109l109 355l-144 383h-93l3 10h292l-3 -10h-93l140 -368l363 368h-92l3 10h192l-3 -10h-84l-377 -382l-109 -356h109zM816 969l-292 -126h-13l136 129h170z" />
    <glyph glyph-name="Thorn" unicode="&#xde;" horiz-adv-x="737" 
d="M-29 10h99l226 738h-99l3 10h302l-3 -10h-99l-50 -162h149q49 0 94.5 -7t79.5 -23.5t54.5 -44.5t20.5 -69q0 -53 -27 -100t-75 -82t-113 -55t-140 -20h-166l-53 -175h119l-3 -10h-322zM230 195h164q57 0 102 23.5t75.5 60t47 81.5t16.5 87q0 62 -33.5 95.5t-103.5 33.5
h-151z" />
    <glyph glyph-name="germandbls" unicode="&#xdf;" horiz-adv-x="594" 
d="M177 228q-34 -110 -66.5 -188.5t-63 -132.5t-59.5 -86.5t-55.5 -49.5t-49.5 -22.5t-42 -5.5q-23 0 -37 12.5t-14 32.5t11.5 33.5t32.5 14.5l121 -36q4 9 10 23t14.5 38.5t20.5 61.5t28 93l123 426h-78l3 10q12 1 29 6t35 14.5t34 25t27 38.5q24 51 50 97t58.5 81.5t74 56
t97.5 20.5q37 0 63.5 -9t44 -24.5t26 -35.5t8.5 -42q0 -23 -8 -40t-25 -33t-45 -32.5t-67 -37.5l-31 -17q-26 -14 -39.5 -25.5t-13.5 -31.5q0 -19 13 -43t43 -65l14 -19q31 -42 49.5 -78.5t18.5 -74.5q0 -49 -24 -86t-58.5 -61.5t-73.5 -36.5t-70 -12q-30 0 -53.5 7
t-39.5 18t-24.5 25.5t-8.5 28.5q0 16 7 27t18 18t24.5 9t26.5 -1l58 -121q25 0 50 8t44.5 23.5t31.5 39t12 55.5q0 35 -14 66t-36 60l-14 19q-26 35 -46 66.5t-20 62.5q0 19 5 33.5t16.5 28t31.5 27.5t50 31l14 8q49 28 79 66.5t30 88.5q0 19 -4.5 37t-14.5 31.5t-26 21.5
t-39 8q-36 0 -62.5 -12t-47.5 -37.5t-38.5 -65.5t-34.5 -96z" />
    <glyph glyph-name="agrave" unicode="&#xe0;" horiz-adv-x="536" 
d="M90 -13q-42 0 -62.5 26.5t-20.5 70.5q0 43 15 91.5t40.5 96t59.5 90.5t71.5 76.5t76 53t73.5 19.5q32 0 48.5 -24.5t10.5 -64.5h1l35 92h84l-158 -423q-14 -38 -17.5 -58t10.5 -20q22 0 61 36t80 105l10 -6q-50 -83 -98 -122t-108 -39q-21 0 -30.5 7.5t-10.5 22.5t5.5 36
t17.5 48l47 118h-2q-27 -47 -54.5 -89t-57 -73.5t-61 -50.5t-66.5 -19zM147 20q16 0 40.5 22t52 57.5t54.5 80.5t49 91t35.5 89.5t13.5 75.5t-13 48t-35 16q-30 0 -58.5 -18t-53.5 -49t-46.5 -71t-37 -84t-24 -89.5t-8.5 -85.5q0 -46 8.5 -64.5t22.5 -18.5zM382 579
l-171 176v3h128l54 -179h-11z" />
    <glyph glyph-name="aacute" unicode="&#xe1;" horiz-adv-x="536" 
d="M90 -13q-42 0 -62.5 26.5t-20.5 70.5q0 43 15 91.5t40.5 96t59.5 90.5t71.5 76.5t76 53t73.5 19.5q32 0 48.5 -24.5t10.5 -64.5h1l35 92h84l-158 -423q-14 -38 -17.5 -58t10.5 -20q22 0 61 36t80 105l10 -6q-50 -83 -98 -122t-108 -39q-21 0 -30.5 7.5t-10.5 22.5t5.5 36
t17.5 48l47 118h-2q-27 -47 -54.5 -89t-57 -73.5t-61 -50.5t-66.5 -19zM147 20q16 0 40.5 22t52 57.5t54.5 80.5t49 91t35.5 89.5t13.5 75.5t-13 48t-35 16q-30 0 -58.5 -18t-53.5 -49t-46.5 -71t-37 -84t-24 -89.5t-8.5 -85.5q0 -46 8.5 -64.5t22.5 -18.5zM452 758h129
l-1 -3l-234 -176h-11z" />
    <glyph glyph-name="acircumflex" unicode="&#xe2;" horiz-adv-x="536" 
d="M90 -13q-42 0 -62.5 26.5t-20.5 70.5q0 43 15 91.5t40.5 96t59.5 90.5t71.5 76.5t76 53t73.5 19.5q32 0 48.5 -24.5t10.5 -64.5h1l35 92h84l-158 -423q-14 -38 -17.5 -58t10.5 -20q22 0 61 36t80 105l10 -6q-50 -83 -98 -122t-108 -39q-21 0 -30.5 7.5t-10.5 22.5t5.5 36
t17.5 48l47 118h-2q-27 -47 -54.5 -89t-57 -73.5t-61 -50.5t-66.5 -19zM147 20q16 0 40.5 22t52 57.5t54.5 80.5t49 91t35.5 89.5t13.5 75.5t-13 48t-35 16q-30 0 -58.5 -18t-53.5 -49t-46.5 -71t-37 -84t-24 -89.5t-8.5 -85.5q0 -46 8.5 -64.5t22.5 -18.5zM461 782h12
l67 -203h-10l-91 109l-209 -109h-14z" />
    <glyph glyph-name="atilde" unicode="&#xe3;" horiz-adv-x="536" 
d="M90 -13q-42 0 -62.5 26.5t-20.5 70.5q0 43 15 91.5t40.5 96t59.5 90.5t71.5 76.5t76 53t73.5 19.5q32 0 48.5 -24.5t10.5 -64.5h1l35 92h84l-158 -423q-14 -38 -17.5 -58t10.5 -20q22 0 61 36t80 105l10 -6q-50 -83 -98 -122t-108 -39q-21 0 -30.5 7.5t-10.5 22.5t5.5 36
t17.5 48l47 118h-2q-27 -47 -54.5 -89t-57 -73.5t-61 -50.5t-66.5 -19zM147 20q16 0 40.5 22t52 57.5t54.5 80.5t49 91t35.5 89.5t13.5 75.5t-13 48t-35 16q-30 0 -58.5 -18t-53.5 -49t-46.5 -71t-37 -84t-24 -89.5t-8.5 -85.5q0 -46 8.5 -64.5t22.5 -18.5zM232 618
q5 63 36 102.5t85 39.5q21 0 41 -10t39.5 -21.5t39 -21.5t39.5 -10q30 0 47.5 14t28.5 46h11q-8 -41 -19 -67t-26 -42t-33 -22t-38 -6q-25 0 -45.5 10t-39 21.5t-37 21.5t-39.5 10q-29 0 -50.5 -16t-28.5 -49h-11z" />
    <glyph glyph-name="adieresis" unicode="&#xe4;" horiz-adv-x="536" 
d="M90 -13q-42 0 -62.5 26.5t-20.5 70.5q0 43 15 91.5t40.5 96t59.5 90.5t71.5 76.5t76 53t73.5 19.5q32 0 48.5 -24.5t10.5 -64.5h1l35 92h84l-158 -423q-14 -38 -17.5 -58t10.5 -20q22 0 61 36t80 105l10 -6q-50 -83 -98 -122t-108 -39q-21 0 -30.5 7.5t-10.5 22.5t5.5 36
t17.5 48l47 118h-2q-27 -47 -54.5 -89t-57 -73.5t-61 -50.5t-66.5 -19zM147 20q16 0 40.5 22t52 57.5t54.5 80.5t49 91t35.5 89.5t13.5 75.5t-13 48t-35 16q-30 0 -58.5 -18t-53.5 -49t-46.5 -71t-37 -84t-24 -89.5t-8.5 -85.5q0 -46 8.5 -64.5t22.5 -18.5zM299 624
q-29 0 -47 18t-18 44q0 28 18 46t47 18q27 0 45 -18t18 -46q0 -26 -18 -44t-45 -18zM535 624q-29 0 -47 18t-18 44q0 28 18 46t47 18q27 0 45 -18t18 -46q0 -26 -18 -44t-45 -18z" />
    <glyph glyph-name="aring" unicode="&#xe5;" horiz-adv-x="536" 
d="M90 -13q-42 0 -62.5 26.5t-20.5 70.5q0 43 15 91.5t40.5 96t59.5 90.5t71.5 76.5t76 53t73.5 19.5q32 0 48.5 -24.5t10.5 -64.5h1l35 92h84l-158 -423q-14 -38 -17.5 -58t10.5 -20q22 0 61 36t80 105l10 -6q-50 -83 -98 -122t-108 -39q-21 0 -30.5 7.5t-10.5 22.5t5.5 36
t17.5 48l47 118h-2q-27 -47 -54.5 -89t-57 -73.5t-61 -50.5t-66.5 -19zM147 20q16 0 40.5 22t52 57.5t54.5 80.5t49 91t35.5 89.5t13.5 75.5t-13 48t-35 16q-30 0 -58.5 -18t-53.5 -49t-46.5 -71t-37 -84t-24 -89.5t-8.5 -85.5q0 -46 8.5 -64.5t22.5 -18.5zM314 702
q0 22 8.5 40.5t23 32.5t34 22t42.5 8q22 0 41.5 -8t34 -22t23 -32.5t8.5 -40.5t-8.5 -41t-23 -33t-34 -22t-41.5 -8q-23 0 -42.5 8t-34 22t-23 33t-8.5 41zM483 702q0 27 -16.5 45t-44.5 18q-29 0 -45.5 -18t-16.5 -45q0 -28 16.5 -45.5t45.5 -17.5q28 0 44.5 17.5
t16.5 45.5z" />
    <glyph glyph-name="ae" unicode="&#xe6;" horiz-adv-x="717" 
d="M96 -13q-46 0 -71 25t-25 73q0 44 16 88.5t44 85.5t65.5 76.5t79.5 62.5q98 62 197.5 87.5t214.5 25.5h4q43 0 70.5 -24t27.5 -59q0 -58 -60 -97l-228 -8q-15 -35 -23.5 -74t-8.5 -80q0 -67 21.5 -109.5t64.5 -42.5q45 0 86 42t73 115l10 -4q-35 -85 -90 -134t-136 -49
q-56 0 -93.5 36t-37.5 113q-43 -68 -96.5 -108.5t-104.5 -40.5zM109 79q0 -28 7.5 -43.5t26.5 -15.5q13 0 31.5 10t40 28t43 43t40.5 56q4 62 30 118.5t64.5 102.5t84.5 78t90 46q-58 -4 -106.5 -17.5t-89 -33t-73.5 -44.5t-61 -53q-58 -58 -93 -130.5t-35 -144.5zM621 502
q-25 0 -51 -12.5t-50.5 -35t-46.5 -53t-38 -67.5l62 2q41 1 73 14.5t53.5 32.5t33 40t11.5 39q0 20 -13 30t-34 10z" />
    <glyph glyph-name="ccedilla" unicode="&#xe7;" horiz-adv-x="417" 
d="M150 -13q-54 0 -88 35.5t-34 113.5q0 64 25 130.5t67.5 121t98.5 89t117 34.5q16 0 33.5 -3.5t31 -11.5t22.5 -21t9 -32q0 -16 -7.5 -27t-18.5 -17.5t-24 -9.5t-24 -2l-37 115q-33 -3 -66.5 -30.5t-61 -72.5t-45 -105t-17.5 -128q0 -30 4.5 -57t13 -47.5t22 -32.5
t31.5 -12q33 0 68.5 36.5t67.5 103.5l10 -4q-17 -37 -37 -67.5t-44.5 -52.5t-53.5 -34t-63 -12zM49 -269q-21 0 -40.5 4t-34.5 11.5t-23.5 18t-8.5 22.5q0 11 6 18.5t15 10.5t18.5 2t17.5 -7l38 -57q4 -6 6.5 -10t10.5 -4q12 0 24.5 2.5t22.5 7.5t16.5 13.5t6.5 19.5
q0 27 -30 50t-72 40l154 127h16l-101 -83q45 -21 63 -43t18 -48q0 -19 -10.5 -36t-28 -30t-39.5 -21t-45 -8z" />
    <glyph glyph-name="egrave" unicode="&#xe8;" horiz-adv-x="445" 
d="M156 -13q-28 0 -52 9t-41.5 27t-27.5 46.5t-10 67.5q0 50 15.5 97.5t40.5 89t58.5 76t69.5 59.5t72 38.5t68 13.5q43 0 70.5 -24t27.5 -59q0 -58 -60 -97l-228 -8q-15 -35 -23.5 -74t-8.5 -80q0 -67 21.5 -109.5t64.5 -42.5q45 0 86 42t73 115l10 -4q-35 -85 -90 -134
t-136 -49zM349 502q-25 0 -51 -12.5t-50.5 -35t-46.5 -53t-38 -67.5l62 2q41 1 73 14.5t53.5 32.5t33 40t11.5 39q0 20 -13 30t-34 10zM382 579l-171 176v3h128l54 -179h-11z" />
    <glyph glyph-name="eacute" unicode="&#xe9;" horiz-adv-x="445" 
d="M156 -13q-28 0 -52 9t-41.5 27t-27.5 46.5t-10 67.5q0 50 15.5 97.5t40.5 89t58.5 76t69.5 59.5t72 38.5t68 13.5q43 0 70.5 -24t27.5 -59q0 -58 -60 -97l-228 -8q-15 -35 -23.5 -74t-8.5 -80q0 -67 21.5 -109.5t64.5 -42.5q45 0 86 42t73 115l10 -4q-35 -85 -90 -134
t-136 -49zM349 502q-25 0 -51 -12.5t-50.5 -35t-46.5 -53t-38 -67.5l62 2q41 1 73 14.5t53.5 32.5t33 40t11.5 39q0 20 -13 30t-34 10zM452 758h129l-1 -3l-234 -176h-11z" />
    <glyph glyph-name="ecircumflex" unicode="&#xea;" horiz-adv-x="445" 
d="M156 -13q-28 0 -52 9t-41.5 27t-27.5 46.5t-10 67.5q0 50 15.5 97.5t40.5 89t58.5 76t69.5 59.5t72 38.5t68 13.5q43 0 70.5 -24t27.5 -59q0 -58 -60 -97l-228 -8q-15 -35 -23.5 -74t-8.5 -80q0 -67 21.5 -109.5t64.5 -42.5q45 0 86 42t73 115l10 -4q-35 -85 -90 -134
t-136 -49zM349 502q-25 0 -51 -12.5t-50.5 -35t-46.5 -53t-38 -67.5l62 2q41 1 73 14.5t53.5 32.5t33 40t11.5 39q0 20 -13 30t-34 10zM461 782h12l67 -203h-10l-91 109l-209 -109h-14z" />
    <glyph glyph-name="edieresis" unicode="&#xeb;" horiz-adv-x="445" 
d="M156 -13q-28 0 -52 9t-41.5 27t-27.5 46.5t-10 67.5q0 50 15.5 97.5t40.5 89t58.5 76t69.5 59.5t72 38.5t68 13.5q43 0 70.5 -24t27.5 -59q0 -58 -60 -97l-228 -8q-15 -35 -23.5 -74t-8.5 -80q0 -67 21.5 -109.5t64.5 -42.5q45 0 86 42t73 115l10 -4q-35 -85 -90 -134
t-136 -49zM349 502q-25 0 -51 -12.5t-50.5 -35t-46.5 -53t-38 -67.5l62 2q41 1 73 14.5t53.5 32.5t33 40t11.5 39q0 20 -13 30t-34 10zM299 624q-29 0 -47 18t-18 44q0 28 18 46t47 18q27 0 45 -18t18 -46q0 -26 -18 -44t-45 -18zM535 624q-29 0 -47 18t-18 44q0 28 18 46
t47 18q27 0 45 -18t18 -46q0 -26 -18 -44t-45 -18z" />
    <glyph glyph-name="igrave" unicode="&#xec;" horiz-adv-x="309" 
d="M161 402l-78 46l2 4l213 59l-166 -420q-15 -38 -18 -58t11 -20q22 0 61 36t80 105l10 -6q-50 -83 -98 -122t-108 -39q-42 0 -46.5 28.5t18.5 85.5zM272 579l-171 176v3h128l54 -179h-11z" />
    <glyph glyph-name="iacute" unicode="&#xed;" horiz-adv-x="309" 
d="M161 402l-78 46l2 4l213 59l-166 -420q-15 -38 -18 -58t11 -20q22 0 61 36t80 105l10 -6q-50 -83 -98 -122t-108 -39q-42 0 -46.5 28.5t18.5 85.5zM342 758h129l-1 -3l-234 -176h-11z" />
    <glyph glyph-name="icircumflex" unicode="&#xee;" horiz-adv-x="309" 
d="M161 402l-78 46l2 4l213 59l-166 -420q-15 -38 -18 -58t11 -20q22 0 61 36t80 105l10 -6q-50 -83 -98 -122t-108 -39q-42 0 -46.5 28.5t18.5 85.5zM351 782h12l67 -203h-10l-91 109l-209 -109h-14z" />
    <glyph glyph-name="idieresis" unicode="&#xef;" horiz-adv-x="309" 
d="M161 402l-78 46l2 4l213 59l-166 -420q-15 -38 -18 -58t11 -20q22 0 61 36t80 105l10 -6q-50 -83 -98 -122t-108 -39q-42 0 -46.5 28.5t18.5 85.5zM189 624q-29 0 -47 18t-18 44q0 28 18 46t47 18q27 0 45 -18t18 -46q0 -26 -18 -44t-45 -18zM425 624q-29 0 -47 18
t-18 44q0 28 18 46t47 18q27 0 45 -18t18 -46q0 -26 -18 -44t-45 -18z" />
    <glyph glyph-name="eth" unicode="&#xf0;" horiz-adv-x="496" 
d="M134 649l141 61q-25 24 -56.5 44.5t-70.5 36.5l3 8q45 -14 84.5 -32.5t74.5 -41.5l136 59l16 -37l-114 -49q63 -53 98.5 -122.5t35.5 -155.5q0 -54 -15 -107.5t-40 -101.5t-59 -89t-71.5 -71t-77 -47t-76.5 -17q-61 0 -95.5 34t-34.5 91q0 40 13.5 85.5t36.5 90t53.5 85
t65 71t70.5 49t70 18.5q35 0 52 -27q-5 55 -22 103.5t-49 90.5l-153 -66zM122 112q0 -111 50 -111q27 0 53 19.5t49 52t42 75.5t32.5 90.5t21 96.5t7.5 94v23q-5 23 -19 35.5t-35 12.5q-30 0 -57 -18t-49 -48.5t-40 -70.5t-30 -83t-18.5 -86.5t-6.5 -81.5z" />
    <glyph glyph-name="ntilde" unicode="&#xf1;" horiz-adv-x="561" 
d="M317 -13q-42 0 -47 29.5t21 85.5l127 274q17 37 24.5 59.5t7.5 34.5t-6 16t-15 4q-16 0 -35 -13.5t-39 -36t-41.5 -52.5t-41.5 -62q-29 -46 -56.5 -94.5t-51 -92t-40.5 -78t-24 -52.5l-100 -19l161 413l-78 45l2 4l208 59l-149 -381h2q15 27 31 56.5t32.5 58t33 55.5
t30.5 49q46 72 91 117t95 45q57 0 66.5 -42t-25.5 -117l-121 -261q-17 -37 -19 -57.5t12 -20.5q22 0 61 36t80 105l10 -6q-50 -83 -98 -122t-108 -39zM278 618q5 63 36 102.5t85 39.5q21 0 41 -10t39.5 -21.5t39 -21.5t39.5 -10q30 0 47.5 14t28.5 46h11q-8 -41 -19 -67
t-26 -42t-33 -22t-38 -6q-25 0 -45.5 10t-39 21.5t-37 21.5t-39.5 10q-29 0 -50.5 -16t-28.5 -49h-11z" />
    <glyph glyph-name="ograve" unicode="&#xf2;" horiz-adv-x="488" 
d="M159 -13q-40 0 -66 14t-41.5 35.5t-21.5 48t-6 51.5q0 45 14.5 90.5t38 87t55 77.5t65.5 62.5t68.5 42t64.5 15.5q40 0 66 -14t41.5 -35.5t21.5 -48t6 -51.5q0 -45 -14.5 -90.5t-38 -87t-55 -77.5t-65.5 -62.5t-68.5 -42t-64.5 -15.5zM183 1q27 0 50.5 18.5t43.5 49
t35 69.5t26 80t16.5 81t5.5 72q0 66 -11 96t-43 30q-27 0 -50.5 -18.5t-43.5 -49t-35 -69.5t-26 -80t-16.5 -81t-5.5 -72q0 -66 11 -96t43 -30zM354 579l-171 176v3h128l54 -179h-11z" />
    <glyph glyph-name="oacute" unicode="&#xf3;" horiz-adv-x="488" 
d="M159 -13q-40 0 -66 14t-41.5 35.5t-21.5 48t-6 51.5q0 45 14.5 90.5t38 87t55 77.5t65.5 62.5t68.5 42t64.5 15.5q40 0 66 -14t41.5 -35.5t21.5 -48t6 -51.5q0 -45 -14.5 -90.5t-38 -87t-55 -77.5t-65.5 -62.5t-68.5 -42t-64.5 -15.5zM183 1q27 0 50.5 18.5t43.5 49
t35 69.5t26 80t16.5 81t5.5 72q0 66 -11 96t-43 30q-27 0 -50.5 -18.5t-43.5 -49t-35 -69.5t-26 -80t-16.5 -81t-5.5 -72q0 -66 11 -96t43 -30zM424 758h129l-1 -3l-234 -176h-11z" />
    <glyph glyph-name="ocircumflex" unicode="&#xf4;" horiz-adv-x="488" 
d="M159 -13q-40 0 -66 14t-41.5 35.5t-21.5 48t-6 51.5q0 45 14.5 90.5t38 87t55 77.5t65.5 62.5t68.5 42t64.5 15.5q40 0 66 -14t41.5 -35.5t21.5 -48t6 -51.5q0 -45 -14.5 -90.5t-38 -87t-55 -77.5t-65.5 -62.5t-68.5 -42t-64.5 -15.5zM183 1q27 0 50.5 18.5t43.5 49
t35 69.5t26 80t16.5 81t5.5 72q0 66 -11 96t-43 30q-27 0 -50.5 -18.5t-43.5 -49t-35 -69.5t-26 -80t-16.5 -81t-5.5 -72q0 -66 11 -96t43 -30zM433 782h12l67 -203h-10l-91 109l-209 -109h-14z" />
    <glyph glyph-name="otilde" unicode="&#xf5;" horiz-adv-x="488" 
d="M159 -13q-40 0 -66 14t-41.5 35.5t-21.5 48t-6 51.5q0 45 14.5 90.5t38 87t55 77.5t65.5 62.5t68.5 42t64.5 15.5q40 0 66 -14t41.5 -35.5t21.5 -48t6 -51.5q0 -45 -14.5 -90.5t-38 -87t-55 -77.5t-65.5 -62.5t-68.5 -42t-64.5 -15.5zM183 1q27 0 50.5 18.5t43.5 49
t35 69.5t26 80t16.5 81t5.5 72q0 66 -11 96t-43 30q-27 0 -50.5 -18.5t-43.5 -49t-35 -69.5t-26 -80t-16.5 -81t-5.5 -72q0 -66 11 -96t43 -30zM204 618q5 63 36 102.5t85 39.5q21 0 41 -10t39.5 -21.5t39 -21.5t39.5 -10q30 0 47.5 14t28.5 46h11q-8 -41 -19 -67t-26 -42
t-33 -22t-38 -6q-25 0 -45.5 10t-39 21.5t-37 21.5t-39.5 10q-29 0 -50.5 -16t-28.5 -49h-11z" />
    <glyph glyph-name="odieresis" unicode="&#xf6;" horiz-adv-x="488" 
d="M159 -13q-40 0 -66 14t-41.5 35.5t-21.5 48t-6 51.5q0 45 14.5 90.5t38 87t55 77.5t65.5 62.5t68.5 42t64.5 15.5q40 0 66 -14t41.5 -35.5t21.5 -48t6 -51.5q0 -45 -14.5 -90.5t-38 -87t-55 -77.5t-65.5 -62.5t-68.5 -42t-64.5 -15.5zM183 1q27 0 50.5 18.5t43.5 49
t35 69.5t26 80t16.5 81t5.5 72q0 66 -11 96t-43 30q-27 0 -50.5 -18.5t-43.5 -49t-35 -69.5t-26 -80t-16.5 -81t-5.5 -72q0 -66 11 -96t43 -30zM271 624q-29 0 -47 18t-18 44q0 28 18 46t47 18q27 0 45 -18t18 -46q0 -26 -18 -44t-45 -18zM507 624q-29 0 -47 18t-18 44
q0 28 18 46t47 18q27 0 45 -18t18 -46q0 -26 -18 -44t-45 -18z" />
    <glyph glyph-name="divide" unicode="&#xf7;" horiz-adv-x="653" 
d="M331 373q-32 0 -55 23t-23 55q0 16 6 30t16.5 24.5t25 16.5t30.5 6q32 0 54.5 -22.5t22.5 -54.5q0 -16 -6 -30.5t-16.5 -25t-24.5 -16.5t-30 -6zM67 295h527v-65h-527v65zM331 -3q-32 0 -55 23t-23 55q0 16 6 30t16.5 24.5t25 16.5t30.5 6q32 0 54.5 -22.5t22.5 -54.5
q0 -16 -6 -30.5t-16.5 -25t-24.5 -16.5t-30 -6z" />
    <glyph glyph-name="oslash" unicode="&#xf8;" horiz-adv-x="545" 
d="M191 -13q-40 0 -66 14t-41.5 35.5t-21.5 48t-6 51.5q0 45 14.5 90.5t38 87t55 77.5t65.5 62.5t68.5 42t64.5 15.5q40 0 66 -14t41.5 -35.5t21.5 -48t6 -51.5q0 -45 -14.5 -90.5t-38 -87t-55 -77.5t-65.5 -62.5t-68.5 -42t-64.5 -15.5zM215 1q27 0 50.5 18.5t43.5 49
t35 69.5t26 80t16.5 81t5.5 72q0 66 -11 96t-43 30q-27 0 -50.5 -18.5t-43.5 -49t-35 -69.5t-26 -80t-16.5 -81t-5.5 -72q0 -66 11 -96t43 -30zM631 522l-687 -568l-22 27l686 568z" />
    <glyph glyph-name="ugrave" unicode="&#xf9;" horiz-adv-x="557" 
d="M400 368h-2q-15 -27 -31 -56.5t-32.5 -58t-33 -55.5t-30.5 -49q-23 -36 -45.5 -66t-45 -51t-46 -33t-49.5 -12q-57 0 -65 41.5t24 117.5l138 336l-86 -16l4 11l186 35l-160 -390q-15 -38 -22 -60.5t-7.5 -34.5t4.5 -15.5t14 -3.5q15 0 34 13.5t40 36t42 52t41 62.5
q28 46 56 94.5t51.5 92.5t40.5 79t25 55l101 19l-165 -421q-15 -38 -17.5 -58t11.5 -20q22 0 61 36t80 105l10 -6q-50 -83 -98 -122t-108 -39q-42 0 -45 28t20 85zM381 579l-171 176v3h128l54 -179h-11z" />
    <glyph glyph-name="uacute" unicode="&#xfa;" horiz-adv-x="557" 
d="M400 368h-2q-15 -27 -31 -56.5t-32.5 -58t-33 -55.5t-30.5 -49q-23 -36 -45.5 -66t-45 -51t-46 -33t-49.5 -12q-57 0 -65 41.5t24 117.5l138 336l-86 -16l4 11l186 35l-160 -390q-15 -38 -22 -60.5t-7.5 -34.5t4.5 -15.5t14 -3.5q15 0 34 13.5t40 36t42 52t41 62.5
q28 46 56 94.5t51.5 92.5t40.5 79t25 55l101 19l-165 -421q-15 -38 -17.5 -58t11.5 -20q22 0 61 36t80 105l10 -6q-50 -83 -98 -122t-108 -39q-42 0 -45 28t20 85zM451 758h129l-1 -3l-234 -176h-11z" />
    <glyph glyph-name="ucircumflex" unicode="&#xfb;" horiz-adv-x="557" 
d="M400 368h-2q-15 -27 -31 -56.5t-32.5 -58t-33 -55.5t-30.5 -49q-23 -36 -45.5 -66t-45 -51t-46 -33t-49.5 -12q-57 0 -65 41.5t24 117.5l138 336l-86 -16l4 11l186 35l-160 -390q-15 -38 -22 -60.5t-7.5 -34.5t4.5 -15.5t14 -3.5q15 0 34 13.5t40 36t42 52t41 62.5
q28 46 56 94.5t51.5 92.5t40.5 79t25 55l101 19l-165 -421q-15 -38 -17.5 -58t11.5 -20q22 0 61 36t80 105l10 -6q-50 -83 -98 -122t-108 -39q-42 0 -45 28t20 85zM460 782h12l67 -203h-10l-91 109l-209 -109h-14z" />
    <glyph glyph-name="udieresis" unicode="&#xfc;" horiz-adv-x="557" 
d="M400 368h-2q-15 -27 -31 -56.5t-32.5 -58t-33 -55.5t-30.5 -49q-23 -36 -45.5 -66t-45 -51t-46 -33t-49.5 -12q-57 0 -65 41.5t24 117.5l138 336l-86 -16l4 11l186 35l-160 -390q-15 -38 -22 -60.5t-7.5 -34.5t4.5 -15.5t14 -3.5q15 0 34 13.5t40 36t42 52t41 62.5
q28 46 56 94.5t51.5 92.5t40.5 79t25 55l101 19l-165 -421q-15 -38 -17.5 -58t11.5 -20q22 0 61 36t80 105l10 -6q-50 -83 -98 -122t-108 -39q-42 0 -45 28t20 85zM298 624q-29 0 -47 18t-18 44q0 28 18 46t47 18q27 0 45 -18t18 -46q0 -26 -18 -44t-45 -18zM534 624
q-29 0 -47 18t-18 44q0 28 18 46t47 18q27 0 45 -18t18 -46q0 -26 -18 -44t-45 -18z" />
    <glyph glyph-name="yacute" unicode="&#xfd;" horiz-adv-x="527" 
d="M15 -248h-106l236 268l-7 462l-86 -16l4 11l180 34l9 -476l246 312l-46 123q9 22 26 31.5t34 9.5q22 0 38 -14.5t16 -41.5q0 -19 -10 -42.5t-33 -52.5l-278 -352zM448 758h129l-1 -3l-234 -176h-11z" />
    <glyph glyph-name="thorn" unicode="&#xfe;" horiz-adv-x="508" 
d="M128 -13q-20 0 -43 5l-83 -240h-90l344 996h-78l4 10h168l-108 -313q26 28 65.5 47t81.5 19q49 0 78 -29.5t29 -85.5q0 -47 -15.5 -95.5t-42.5 -94t-63 -85.5t-77 -69.5t-84.5 -47t-85.5 -17.5zM319 473q-24 0 -45 -13.5t-38 -30.5l-147 -425q21 -6 41 -6q54 0 101 37
t82 92.5t55 120t20 119.5q0 31 -5.5 51.5t-14.5 32.5t-21.5 17t-27.5 5z" />
    <glyph glyph-name="ydieresis" unicode="&#xff;" horiz-adv-x="527" 
d="M15 -248h-106l236 268l-7 462l-86 -16l4 11l180 34l9 -476l246 312l-46 123q9 22 26 31.5t34 9.5q22 0 38 -14.5t16 -41.5q0 -19 -10 -42.5t-33 -52.5l-278 -352zM295 624q-29 0 -47 18t-18 44q0 28 18 46t47 18q27 0 45 -18t18 -46q0 -26 -18 -44t-45 -18zM531 624
q-29 0 -47 18t-18 44q0 28 18 46t47 18q27 0 45 -18t18 -46q0 -26 -18 -44t-45 -18z" />
    <glyph glyph-name="Abreve" unicode="&#x102;" horiz-adv-x="793" 
d="M-136 10h99l840 787h7l-241 -787h99l-3 -10h-302l3 10h99l84 275h-277l-293 -275h118l-3 -10h-233zM566 338l95 311l-332 -311h237zM808 837q-24 0 -50.5 8t-47 26.5t-31 49t-2.5 76.5h52q-8 -60 15 -87t71 -27t85 28t47 86h53q-9 -48 -30.5 -79t-48.5 -49t-57 -25
t-56 -7z" />
    <glyph glyph-name="Amacron" unicode="&#x100;" horiz-adv-x="793" 
d="M-136 10h99l840 787h7l-241 -787h99l-3 -10h-302l3 10h99l84 275h-277l-293 -275h118l-3 -10h-233zM566 338l95 311l-332 -311h237zM680 944h310l-42 -61h-310z" />
    <glyph glyph-name="Aogonek" unicode="&#x104;" horiz-adv-x="793" 
d="M-136 10h99l840 787h7l-241 -787h99l-3 -10h-302l3 10h99l84 275h-277l-293 -275h118l-3 -10h-233zM566 338l95 311l-332 -311h237zM545 -176q-24 -23 -53.5 -40.5t-61.5 -17.5q-38 0 -59 18.5t-21 51.5q0 27 18.5 51t47 44.5t62 37.5t64.5 31h13q-23 -16 -45 -33.5
t-39 -36t-27.5 -37.5t-10.5 -37q0 -44 46 -44q16 0 31 6t29 14z" />
    <glyph glyph-name="Cacute" unicode="&#x106;" horiz-adv-x="814" 
d="M389 -13q-60 0 -115.5 18t-97.5 55.5t-67 95t-25 137.5q0 97 42 185.5t112.5 155t163 106t193.5 39.5q60 0 109.5 -15t78.5 -42l65 54h6l-51 -308h-6q3 85 -10.5 143t-40.5 93t-66 50.5t-88 15.5q-91 0 -162.5 -42.5t-121 -113.5t-76 -164.5t-26.5 -196.5
q0 -57 12 -104.5t36 -81t59 -52t81 -18.5q49 0 94.5 15.5t91.5 51t94.5 93t104.5 141.5h6l-161 -308h-6l-26 50q-50 -34 -101 -43.5t-102 -9.5zM857 969l-292 -126h-13l136 129h170z" />
    <glyph glyph-name="Ccaron" unicode="&#x10c;" horiz-adv-x="814" 
d="M389 -13q-60 0 -115.5 18t-97.5 55.5t-67 95t-25 137.5q0 97 42 185.5t112.5 155t163 106t193.5 39.5q60 0 109.5 -15t78.5 -42l65 54h6l-51 -308h-6q3 85 -10.5 143t-40.5 93t-66 50.5t-88 15.5q-91 0 -162.5 -42.5t-121 -113.5t-76 -164.5t-26.5 -196.5
q0 -57 12 -104.5t36 -81t59 -52t81 -18.5q49 0 94.5 15.5t91.5 51t94.5 93t104.5 141.5h6l-161 -308h-6l-26 50q-50 -34 -101 -43.5t-102 -9.5zM501 996h10l101 -65l200 65h15l-223 -153h-16z" />
    <glyph glyph-name="Ccircumflex" unicode="&#x108;" horiz-adv-x="814" 
d="M389 -13q-60 0 -115.5 18t-97.5 55.5t-67 95t-25 137.5q0 97 42 185.5t112.5 155t163 106t193.5 39.5q60 0 109.5 -15t78.5 -42l65 54h6l-51 -308h-6q3 85 -10.5 143t-40.5 93t-66 50.5t-88 15.5q-91 0 -162.5 -42.5t-121 -113.5t-76 -164.5t-26.5 -196.5
q0 -57 12 -104.5t36 -81t59 -52t81 -18.5q49 0 94.5 15.5t91.5 51t94.5 93t104.5 141.5h6l-161 -308h-6l-26 50q-50 -34 -101 -43.5t-102 -9.5zM681 996h16l87 -153h-10l-101 66l-200 -66h-15z" />
    <glyph glyph-name="Cdotaccent" unicode="&#x10a;" horiz-adv-x="814" 
d="M389 -13q-60 0 -115.5 18t-97.5 55.5t-67 95t-25 137.5q0 97 42 185.5t112.5 155t163 106t193.5 39.5q60 0 109.5 -15t78.5 -42l65 54h6l-51 -308h-6q3 85 -10.5 143t-40.5 93t-66 50.5t-88 15.5q-91 0 -162.5 -42.5t-121 -113.5t-76 -164.5t-26.5 -196.5
q0 -57 12 -104.5t36 -81t59 -52t81 -18.5q49 0 94.5 15.5t91.5 51t94.5 93t104.5 141.5h6l-161 -308h-6l-26 50q-50 -34 -101 -43.5t-102 -9.5zM654 861q-29 0 -47 18t-18 44q0 28 18 46t47 18q27 0 45 -18t18 -46q0 -26 -18 -44t-45 -18z" />
    <glyph glyph-name="Dcaron" unicode="&#x10e;" horiz-adv-x="848" 
d="M-29 10h99l226 738h-99l3 10h284q83 0 150 -19t114.5 -55.5t73 -90t25.5 -122.5q0 -91 -40 -176t-112 -150.5t-172 -105t-221 -39.5h-334zM303 10q100 0 179 43t133.5 112.5t83 157.5t28.5 179q0 118 -62 182t-188 64h-77l-226 -738h129zM464 996h10l101 -65l200 65h15
l-223 -153h-16z" />
    <glyph glyph-name="Dcroat" unicode="&#x110;" horiz-adv-x="849" 
d="M-28 10h99l226 738h-99l3 10h284q83 0 150 -19t114.5 -55.5t73 -90t25.5 -122.5q0 -91 -40 -176t-112 -150.5t-172 -105t-221 -39.5h-334zM304 10q100 0 179 43t133.5 112.5t83 157.5t28.5 179q0 118 -62 182t-188 64h-77l-226 -738h129zM97 417h380l-17 -53h-380z" />
    <glyph glyph-name="Ebreve" unicode="&#x114;" horiz-adv-x="750" 
d="M-29 10h99l226 738h-99l3 10h539l-27 -234h-6l-67 206q-4 11 -10 14.5t-23 3.5h-206l-109 -355h147q8 0 12.5 2t12.5 13l94 123h6l-87 -286h-6l-19 123q-2 11 -5 13t-11 2h-147l-114 -373h272q16 0 25.5 4t20.5 14l226 216h7l-146 -244h-611zM560 837q-24 0 -50.5 8
t-47 26.5t-31 49t-2.5 76.5h52q-8 -60 15 -87t71 -27t85 28t47 86h53q-9 -48 -30.5 -79t-48.5 -49t-57 -25t-56 -7z" />
    <glyph glyph-name="Ecaron" unicode="&#x11a;" horiz-adv-x="750" 
d="M-29 10h99l226 738h-99l3 10h539l-27 -234h-6l-67 206q-4 11 -10 14.5t-23 3.5h-206l-109 -355h147q8 0 12.5 2t12.5 13l94 123h6l-87 -286h-6l-19 123q-2 11 -5 13t-11 2h-147l-114 -373h272q16 0 25.5 4t20.5 14l226 216h7l-146 -244h-611zM418 996h10l101 -65l200 65
h15l-223 -153h-16z" />
    <glyph glyph-name="Emacron" unicode="&#x112;" horiz-adv-x="750" 
d="M-29 10h99l226 738h-99l3 10h539l-27 -234h-6l-67 206q-4 11 -10 14.5t-23 3.5h-206l-109 -355h147q8 0 12.5 2t12.5 13l94 123h6l-87 -286h-6l-19 123q-2 11 -5 13t-11 2h-147l-114 -373h272q16 0 25.5 4t20.5 14l226 216h7l-146 -244h-611zM432 944h310l-42 -61h-310z
" />
    <glyph glyph-name="Eogonek" unicode="&#x118;" horiz-adv-x="750" 
d="M-29 10h99l226 738h-99l3 10h539l-27 -234h-6l-67 206q-4 11 -10 14.5t-23 3.5h-206l-109 -355h147q8 0 12.5 2t12.5 13l94 123h6l-87 -286h-6l-19 123q-2 11 -5 13t-11 2h-147l-114 -373h272q16 0 25.5 4t20.5 14l226 216h7l-146 -244h-611zM569 -176
q-24 -23 -53.5 -40.5t-61.5 -17.5q-38 0 -59 18.5t-21 51.5q0 27 18.5 51t47 44.5t62 37.5t64.5 31h13q-23 -16 -45 -33.5t-39 -36t-27.5 -37.5t-10.5 -37q0 -44 46 -44q16 0 31 6t29 14z" />
    <glyph glyph-name="Edotaccent" unicode="&#x116;" horiz-adv-x="750" 
d="M-29 10h99l226 738h-99l3 10h539l-27 -234h-6l-67 206q-4 11 -10 14.5t-23 3.5h-206l-109 -355h147q8 0 12.5 2t12.5 13l94 123h6l-87 -286h-6l-19 123q-2 11 -5 13t-11 2h-147l-114 -373h272q16 0 25.5 4t20.5 14l226 216h7l-146 -244h-611zM571 861q-29 0 -47 18
t-18 44q0 28 18 46t47 18q27 0 45 -18t18 -46q0 -26 -18 -44t-45 -18z" />
    <glyph glyph-name="Gbreve" unicode="&#x11e;" horiz-adv-x="839" 
d="M407 -13q-64 0 -122.5 18.5t-103 57t-71 96.5t-26.5 138q0 98 42.5 185.5t114 153.5t166 104.5t199.5 38.5q60 0 109.5 -15t78.5 -42l65 54h6l-51 -308h-6q3 85 -10.5 143t-40.5 93t-66 50.5t-88 15.5q-90 0 -163.5 -41.5t-125 -112t-80 -164.5t-28.5 -199
q0 -57 13.5 -104.5t39 -81t63.5 -52t88 -18.5t98 11.5t82 25.5l110 299h-250l38 53h335l-102 -280l-16 -65q-33 -1 -67.5 -9.5t-71.5 -18.5t-76.5 -18t-82.5 -8zM649 837q-24 0 -50.5 8t-47 26.5t-31 49t-2.5 76.5h52q-8 -60 15 -87t71 -27t85 28t47 86h53q-9 -48 -30.5 -79
t-48.5 -49t-57 -25t-56 -7z" />
    <glyph glyph-name="Gcircumflex" unicode="&#x11c;" horiz-adv-x="839" 
d="M407 -13q-64 0 -122.5 18.5t-103 57t-71 96.5t-26.5 138q0 98 42.5 185.5t114 153.5t166 104.5t199.5 38.5q60 0 109.5 -15t78.5 -42l65 54h6l-51 -308h-6q3 85 -10.5 143t-40.5 93t-66 50.5t-88 15.5q-90 0 -163.5 -41.5t-125 -112t-80 -164.5t-28.5 -199
q0 -57 13.5 -104.5t39 -81t63.5 -52t88 -18.5t98 11.5t82 25.5l110 299h-250l38 53h335l-102 -280l-16 -65q-33 -1 -67.5 -9.5t-71.5 -18.5t-76.5 -18t-82.5 -8zM687 996h16l87 -153h-10l-101 66l-200 -66h-15z" />
    <glyph glyph-name="uni0122" unicode="&#x122;" horiz-adv-x="839" 
d="M407 -13q-64 0 -122.5 18.5t-103 57t-71 96.5t-26.5 138q0 98 42.5 185.5t114 153.5t166 104.5t199.5 38.5q60 0 109.5 -15t78.5 -42l65 54h6l-51 -308h-6q3 85 -10.5 143t-40.5 93t-66 50.5t-88 15.5q-90 0 -163.5 -41.5t-125 -112t-80 -164.5t-28.5 -199
q0 -57 13.5 -104.5t39 -81t63.5 -52t88 -18.5t98 11.5t82 25.5l110 299h-250l38 53h335l-102 -280l-16 -65q-33 -1 -67.5 -9.5t-71.5 -18.5t-76.5 -18t-82.5 -8zM207 -364q69 30 105.5 66t36.5 80q0 30 -22 46t-54 20q2 27 22 44.5t50 17.5q32 0 57 -21.5t25 -63.5
q0 -57 -54 -108t-162 -91z" />
    <glyph glyph-name="Gdotaccent" unicode="&#x120;" horiz-adv-x="839" 
d="M407 -13q-64 0 -122.5 18.5t-103 57t-71 96.5t-26.5 138q0 98 42.5 185.5t114 153.5t166 104.5t199.5 38.5q60 0 109.5 -15t78.5 -42l65 54h6l-51 -308h-6q3 85 -10.5 143t-40.5 93t-66 50.5t-88 15.5q-90 0 -163.5 -41.5t-125 -112t-80 -164.5t-28.5 -199
q0 -57 13.5 -104.5t39 -81t63.5 -52t88 -18.5t98 11.5t82 25.5l110 299h-250l38 53h335l-102 -280l-16 -65q-33 -1 -67.5 -9.5t-71.5 -18.5t-76.5 -18t-82.5 -8zM660 861q-29 0 -47 18t-18 44q0 28 18 46t47 18q27 0 45 -18t18 -46q0 -26 -18 -44t-45 -18z" />
    <glyph glyph-name="Hbar" unicode="&#x126;" horiz-adv-x="890" 
d="M271 0h-302l3 10h99l226 738h-99l3 10h302l-3 -10h-99l-101 -331h394l101 331h-99l3 10h302l-3 -10h-99l-226 -738h99l-3 -10h-302l3 10h99l108 354h-394l-108 -354h99zM153 601h800l-16 -53h-800z" />
    <glyph glyph-name="Hcircumflex" unicode="&#x124;" horiz-adv-x="889" 
d="M270 0h-302l3 10h99l226 738h-99l3 10h302l-3 -10h-99l-101 -331h394l101 331h-99l3 10h302l-3 -10h-99l-226 -738h99l-3 -10h-302l3 10h99l108 354h-394l-108 -354h99zM685 996h16l87 -153h-10l-101 66l-200 -66h-15z" />
    <glyph glyph-name="Ibreve" unicode="&#x12c;" horiz-adv-x="391" 
d="M270 0h-302l3 10h99l226 738h-99l3 10h302l-3 -10h-99l-226 -738h99zM400 837q-24 0 -50.5 8t-47 26.5t-31 49t-2.5 76.5h52q-8 -60 15 -87t71 -27t85 28t47 86h53q-9 -48 -30.5 -79t-48.5 -49t-57 -25t-56 -7z" />
    <glyph glyph-name="Idotaccent" unicode="&#x130;" horiz-adv-x="391" 
d="M270 0h-302l3 10h99l226 738h-99l3 10h302l-3 -10h-99l-226 -738h99zM411 861q-29 0 -47 18t-18 44q0 28 18 46t47 18q27 0 45 -18t18 -46q0 -26 -18 -44t-45 -18z" />
    <glyph glyph-name="Imacron" unicode="&#x12a;" horiz-adv-x="391" 
d="M270 0h-302l3 10h99l226 738h-99l3 10h302l-3 -10h-99l-226 -738h99zM272 944h310l-42 -61h-310z" />
    <glyph glyph-name="Iogonek" unicode="&#x12e;" horiz-adv-x="391" 
d="M270 0h-302l3 10h99l226 738h-99l3 10h302l-3 -10h-99l-226 -738h99zM138 -176q-24 -23 -53.5 -40.5t-61.5 -17.5q-38 0 -59 18.5t-21 51.5q0 27 18.5 51t47 44.5t62 37.5t64.5 31h13q-23 -16 -45 -33.5t-39 -36t-27.5 -37.5t-10.5 -37q0 -44 46 -44q16 0 31 6t29 14z
" />
    <glyph glyph-name="Itilde" unicode="&#x128;" horiz-adv-x="391" 
d="M270 0h-302l3 10h99l226 738h-99l3 10h302l-3 -10h-99l-226 -738h99zM228 859q5 63 36 102.5t85 39.5q21 0 41 -10t39.5 -21.5t39 -21.5t39.5 -10q30 0 47.5 14t28.5 46h11q-8 -41 -19 -67t-26 -42t-33 -22t-38 -6q-25 0 -45.5 10t-39 21.5t-37 21.5t-39.5 10
q-29 0 -50.5 -16t-28.5 -49h-11z" />
    <glyph glyph-name="uni1ECA" unicode="&#x1eca;" horiz-adv-x="391" 
d="M270 0h-302l3 10h99l226 738h-99l3 10h302l-3 -10h-99l-226 -738h99zM63 -230q-29 0 -47 18t-18 44q0 28 18 46t47 18q27 0 45 -18t18 -46q0 -26 -18 -44t-45 -18z" />
    <glyph glyph-name="Jcircumflex" unicode="&#x134;" horiz-adv-x="415" 
d="M-7 -143q-26 0 -45.5 7t-32.5 19t-20 27t-7 31q0 18 8 32.5t21 23.5t30.5 12t36.5 -1q-3 -25 -2 -48t8 -41t21 -28.5t35 -10.5q24 0 40.5 9t27.5 24t16 34t5 39q0 44 -19 76l207 686h-99l3 10h302l-3 -10h-99l-208 -680q-32 -106 -89.5 -158.5t-136.5 -52.5zM462 996h16
l87 -153h-10l-101 66l-200 -66h-15z" />
    <glyph glyph-name="uni0136" unicode="&#x136;" horiz-adv-x="806" 
d="M270 0h-302l3 10h99l226 738h-99l3 10h302l-3 -10h-99l-103 -337l515 337h-112l3 10h247l-3 -10h-114l-536 -350h110l328 -398h-131l-316 383l-114 -373h99zM240 -364q69 30 105.5 66t36.5 80q0 30 -22 46t-54 20q2 27 22 44.5t50 17.5q32 0 57 -21.5t25 -63.5
q0 -57 -54 -108t-162 -91z" />
    <glyph glyph-name="Lacute" unicode="&#x139;" horiz-adv-x="702" 
d="M414 10q16 0 25.5 4t20.5 14l226 216h7l-146 -244h-579l3 10h99l226 738h-99l3 10h302l-3 -10h-99l-226 -738h240zM614 969l-292 -126h-13l136 129h170z" />
    <glyph glyph-name="Lcaron" unicode="&#x13d;" horiz-adv-x="702" 
d="M414 10q16 0 25.5 4t20.5 14l226 216h7l-146 -244h-579l3 10h99l226 738h-99l3 10h302l-3 -10h-99l-226 -738h240zM515 498q68 30 105 66t37 80q0 30 -22 46t-54 20q2 27 22 44.5t50 17.5q32 0 57 -21.5t25 -63.5q0 -57 -54 -108t-162 -91z" />
    <glyph glyph-name="uni013B" unicode="&#x13b;" horiz-adv-x="702" 
d="M414 10q16 0 25.5 4t20.5 14l226 216h7l-146 -244h-579l3 10h99l226 738h-99l3 10h302l-3 -10h-99l-226 -738h240zM102 -364q69 30 105.5 66t36.5 80q0 30 -22 46t-54 20q2 27 22 44.5t50 17.5q32 0 57 -21.5t25 -63.5q0 -57 -54 -108t-162 -91z" />
    <glyph glyph-name="Ldot" unicode="&#x13f;" horiz-adv-x="702" 
d="M414 10q16 0 25.5 4t20.5 14l226 216h7l-146 -244h-579l3 10h99l226 738h-99l3 10h302l-3 -10h-99l-226 -738h240zM587 343q-29 0 -47 18t-18 44q0 28 18 46t47 18q27 0 45 -18t18 -46q0 -26 -18 -44t-45 -18z" />
    <glyph glyph-name="glyph223" horiz-adv-x="702" 
d="M414 10q16 0 25.5 4t20.5 14l226 216h7l-146 -244h-579l3 10h99l226 738h-99l3 10h302l-3 -10h-99l-226 -738h240zM587 343q-29 0 -47 18t-18 44q0 28 18 46t47 18q27 0 45 -18t18 -46q0 -26 -18 -44t-45 -18z" />
    <glyph glyph-name="Lslash" unicode="&#x141;" horiz-adv-x="723" 
d="M435 10q16 0 25.5 4t20.5 14l226 216h7l-146 -244h-579l3 10h99l226 738h-99l3 10h302l-3 -10h-99l-226 -738h240zM11 246l503 312l-23 -77l-503 -312z" />
    <glyph glyph-name="Eng" unicode="&#x14a;" horiz-adv-x="863" 
d="M350 -257l-5 9q33 23 62 43.5t51 37.5q19 15 34 33.5t27.5 41t23 51.5t21.5 65l17 57l-302 533l-184 -604h96l-4 -10h-205l4 10h97l189 617l-73 129v2h119l359 -628l190 618h-96l3 10h205l-3 -10h-97l-216 -704q-13 -42 -24.5 -70t-23.5 -47.5t-25.5 -32t-31.5 -23.5z
" />
    <glyph glyph-name="Nacute" unicode="&#x143;" horiz-adv-x="864" 
d="M-13 10h97l189 618l-73 128v2h119l360 -628l189 618h-96l3 10h205l-3 -10h-97l-236 -771h-3l-360 637l-185 -604h96l-4 -10h-205zM861 969l-292 -126h-13l136 129h170z" />
    <glyph glyph-name="Ncaron" unicode="&#x147;" horiz-adv-x="864" 
d="M-13 10h97l189 618l-73 128v2h119l360 -628l189 618h-96l3 10h205l-3 -10h-97l-236 -771h-3l-360 637l-185 -604h96l-4 -10h-205zM505 996h10l101 -65l200 65h15l-223 -153h-16z" />
    <glyph glyph-name="uni0145" unicode="&#x145;" horiz-adv-x="864" 
d="M-13 10h97l189 618l-73 128v2h119l360 -628l189 618h-96l3 10h205l-3 -10h-97l-236 -771h-3l-360 637l-185 -604h96l-4 -10h-205zM195 -364q69 30 105.5 66t36.5 80q0 30 -22 46t-54 20q2 27 22 44.5t50 17.5q32 0 57 -21.5t25 -63.5q0 -57 -54 -108t-162 -91z" />
    <glyph glyph-name="OE" unicode="&#x152;" horiz-adv-x="1280" 
d="M358 -13q-58 0 -109 18t-89.5 53.5t-60.5 87.5t-22 120q0 56 16.5 115.5t47 116.5t74.5 108t98.5 89.5t119 61t136.5 22.5q79 0 136.5 -36.5t87.5 -101.5l36 117h440l-27 -234h-6l-67 206q-4 11 -10 14.5t-23 3.5h-206l-109 -355h147q8 0 12.5 2t12.5 13l94 123h6
l-87 -286h-6l-19 123q-2 11 -5 13t-11 2h-147l-114 -373h272q16 0 25.5 4t20.5 14l226 216h7l-146 -244h-512l28 91q-55 -48 -122 -76t-145 -28zM368 -3q52 0 100.5 23t90.5 65t76 99.5t57 126.5l4 12q16 48 23 101.5t7 110.5q0 64 -13 109t-35.5 72.5t-53 40t-65.5 12.5
q-71 0 -135.5 -42.5t-114 -115.5t-79 -171t-29.5 -209q0 -65 13 -109.5t35.5 -72t53 -40t65.5 -12.5z" />
    <glyph glyph-name="Obreve" unicode="&#x14e;" horiz-adv-x="845" 
d="M569 779q58 0 109 -18t89 -53.5t60.5 -87.5t22.5 -120q0 -56 -16.5 -115.5t-47 -116.5t-74.5 -108t-98.5 -89.5t-119 -61t-136.5 -22.5q-58 0 -109 18t-89.5 53.5t-60.5 87.5t-22 120q0 56 16.5 115.5t47 116.5t74.5 108t98.5 89.5t119 61t136.5 22.5zM559 769
q-71 0 -135.5 -42.5t-114 -115.5t-79 -171t-29.5 -209q0 -65 13 -109.5t35.5 -72t53 -40t65.5 -12.5q71 0 135.5 42.5t114 115.5t79 171t29.5 209q0 64 -13 109t-35.5 72.5t-53 40t-65.5 12.5zM641 837q-24 0 -50.5 8t-47 26.5t-31 49t-2.5 76.5h52q-8 -60 15 -87t71 -27
t85 28t47 86h53q-9 -48 -30.5 -79t-48.5 -49t-57 -25t-56 -7z" />
    <glyph glyph-name="Ohungarumlaut" unicode="&#x150;" horiz-adv-x="845" 
d="M569 779q58 0 109 -18t89 -53.5t60.5 -87.5t22.5 -120q0 -56 -16.5 -115.5t-47 -116.5t-74.5 -108t-98.5 -89.5t-119 -61t-136.5 -22.5q-58 0 -109 18t-89.5 53.5t-60.5 87.5t-22 120q0 56 16.5 115.5t47 116.5t74.5 108t98.5 89.5t119 61t136.5 22.5zM559 769
q-71 0 -135.5 -42.5t-114 -115.5t-79 -171t-29.5 -209q0 -65 13 -109.5t35.5 -72t53 -40t65.5 -12.5q71 0 135.5 42.5t114 115.5t79 171t29.5 209q0 64 -13 109t-35.5 72.5t-53 40t-65.5 12.5zM787 969l-292 -126h-13l136 129h170zM987 969l-292 -126h-13l136 129h170z" />
    <glyph glyph-name="Omacron" unicode="&#x14c;" horiz-adv-x="845" 
d="M569 779q58 0 109 -18t89 -53.5t60.5 -87.5t22.5 -120q0 -56 -16.5 -115.5t-47 -116.5t-74.5 -108t-98.5 -89.5t-119 -61t-136.5 -22.5q-58 0 -109 18t-89.5 53.5t-60.5 87.5t-22 120q0 56 16.5 115.5t47 116.5t74.5 108t98.5 89.5t119 61t136.5 22.5zM559 769
q-71 0 -135.5 -42.5t-114 -115.5t-79 -171t-29.5 -209q0 -65 13 -109.5t35.5 -72t53 -40t65.5 -12.5q71 0 135.5 42.5t114 115.5t79 171t29.5 209q0 64 -13 109t-35.5 72.5t-53 40t-65.5 12.5zM513 944h310l-42 -61h-310z" />
    <glyph glyph-name="uni1ECC" unicode="&#x1ecc;" horiz-adv-x="845" 
d="M569 779q58 0 109 -18t89 -53.5t60.5 -87.5t22.5 -120q0 -56 -16.5 -115.5t-47 -116.5t-74.5 -108t-98.5 -89.5t-119 -61t-136.5 -22.5q-58 0 -109 18t-89.5 53.5t-60.5 87.5t-22 120q0 56 16.5 115.5t47 116.5t74.5 108t98.5 89.5t119 61t136.5 22.5zM559 769
q-71 0 -135.5 -42.5t-114 -115.5t-79 -171t-29.5 -209q0 -65 13 -109.5t35.5 -72t53 -40t65.5 -12.5q71 0 135.5 42.5t114 115.5t79 171t29.5 209q0 64 -13 109t-35.5 72.5t-53 40t-65.5 12.5zM287 -230q-29 0 -47 18t-18 44q0 28 18 46t47 18q27 0 45 -18t18 -46
q0 -26 -18 -44t-45 -18z" />
    <glyph glyph-name="Racute" unicode="&#x154;" horiz-adv-x="756" 
d="M-29 10h99l226 738h-99l3 10h295q116 0 183.5 -33.5t67.5 -104.5q0 -47 -21 -85.5t-59 -67.5t-92.5 -48t-121.5 -28l-1 -3q22 -10 47 -43t51 -75l164 -270h-122l-234 384h-68l-115 -374h119l-3 -10h-322zM380 394q63 0 110.5 22.5t79 57t47.5 76.5t16 82q0 52 -34.5 84
t-110.5 32h-88l-108 -354h88zM827 969l-292 -126h-13l136 129h170z" />
    <glyph glyph-name="Rcaron" unicode="&#x158;" horiz-adv-x="756" 
d="M-29 10h99l226 738h-99l3 10h295q116 0 183.5 -33.5t67.5 -104.5q0 -47 -21 -85.5t-59 -67.5t-92.5 -48t-121.5 -28l-1 -3q22 -10 47 -43t51 -75l164 -270h-122l-234 384h-68l-115 -374h119l-3 -10h-322zM380 394q63 0 110.5 22.5t79 57t47.5 76.5t16 82q0 52 -34.5 84
t-110.5 32h-88l-108 -354h88zM471 996h10l101 -65l200 65h15l-223 -153h-16z" />
    <glyph glyph-name="uni0156" unicode="&#x156;" horiz-adv-x="756" 
d="M-29 10h99l226 738h-99l3 10h295q116 0 183.5 -33.5t67.5 -104.5q0 -47 -21 -85.5t-59 -67.5t-92.5 -48t-121.5 -28l-1 -3q22 -10 47 -43t51 -75l164 -270h-122l-234 384h-68l-115 -374h119l-3 -10h-322zM380 394q63 0 110.5 22.5t79 57t47.5 76.5t16 82q0 52 -34.5 84
t-110.5 32h-88l-108 -354h88zM217 -364q69 30 105.5 66t36.5 80q0 30 -22 46t-54 20q2 27 22 44.5t50 17.5q32 0 57 -21.5t25 -63.5q0 -57 -54 -108t-162 -91z" />
    <glyph glyph-name="Sacute" unicode="&#x15a;" horiz-adv-x="620" 
d="M214 -13q-46 0 -82 13t-60 33l-53 -43h-6l43 284h6q2 -76 11 -129t27.5 -86t46.5 -48t68 -15q41 0 80 11.5t69 34t48 56t18 77.5q0 43 -18 77.5t-55 78.5l-67 78q-33 39 -53 76.5t-20 82.5q0 48 24 87t62.5 66.5t85.5 42.5t92 15q20 0 40.5 -3.5t39.5 -10t34 -15
t23 -17.5l53 43h6l-41 -270h-6q-3 67 -12.5 116.5t-27.5 82.5t-46.5 49t-68.5 16q-30 0 -60 -9t-53.5 -27t-38.5 -44.5t-15 -60.5q0 -24 5 -42.5t13.5 -34t19.5 -29.5t23 -28l67 -78q21 -24 38.5 -46t30 -43.5t20 -44t7.5 -48.5q0 -47 -23.5 -92t-66 -79.5t-101 -55.5
t-127.5 -21zM767 969l-292 -126h-13l136 129h170z" />
    <glyph glyph-name="Scaron" unicode="&#x160;" horiz-adv-x="620" 
d="M214 -13q-46 0 -82 13t-60 33l-53 -43h-6l43 284h6q2 -76 11 -129t27.5 -86t46.5 -48t68 -15q41 0 80 11.5t69 34t48 56t18 77.5q0 43 -18 77.5t-55 78.5l-67 78q-33 39 -53 76.5t-20 82.5q0 48 24 87t62.5 66.5t85.5 42.5t92 15q20 0 40.5 -3.5t39.5 -10t34 -15
t23 -17.5l53 43h6l-41 -270h-6q-3 67 -12.5 116.5t-27.5 82.5t-46.5 49t-68.5 16q-30 0 -60 -9t-53.5 -27t-38.5 -44.5t-15 -60.5q0 -24 5 -42.5t13.5 -34t19.5 -29.5t23 -28l67 -78q21 -24 38.5 -46t30 -43.5t20 -44t7.5 -48.5q0 -47 -23.5 -92t-66 -79.5t-101 -55.5
t-127.5 -21zM411 996h10l101 -65l200 65h15l-223 -153h-16z" />
    <glyph glyph-name="Scedilla" unicode="&#x15e;" horiz-adv-x="620" 
d="M214 -13q-46 0 -82 13t-60 33l-53 -43h-6l43 284h6q2 -76 11 -129t27.5 -86t46.5 -48t68 -15q41 0 80 11.5t69 34t48 56t18 77.5q0 43 -18 77.5t-55 78.5l-67 78q-33 39 -53 76.5t-20 82.5q0 48 24 87t62.5 66.5t85.5 42.5t92 15q20 0 40.5 -3.5t39.5 -10t34 -15
t23 -17.5l53 43h6l-41 -270h-6q-3 67 -12.5 116.5t-27.5 82.5t-46.5 49t-68.5 16q-30 0 -60 -9t-53.5 -27t-38.5 -44.5t-15 -60.5q0 -24 5 -42.5t13.5 -34t19.5 -29.5t23 -28l67 -78q21 -24 38.5 -46t30 -43.5t20 -44t7.5 -48.5q0 -47 -23.5 -92t-66 -79.5t-101 -55.5
t-127.5 -21zM145 -274q-21 0 -40.5 4t-34.5 11.5t-23.5 18t-8.5 22.5q0 11 6 18.5t15 10.5t18.5 2t17.5 -7l38 -57q4 -6 6.5 -10t10.5 -4q12 0 24.5 2.5t22.5 7.5t16.5 13.5t6.5 19.5q0 27 -30 50t-72 40l154 127h16l-101 -83q45 -21 63 -43t18 -48q0 -19 -10.5 -36t-28 -30
t-39.5 -21t-45 -8z" />
    <glyph glyph-name="Scircumflex" unicode="&#x15c;" horiz-adv-x="620" 
d="M214 -13q-46 0 -82 13t-60 33l-53 -43h-6l43 284h6q2 -76 11 -129t27.5 -86t46.5 -48t68 -15q41 0 80 11.5t69 34t48 56t18 77.5q0 43 -18 77.5t-55 78.5l-67 78q-33 39 -53 76.5t-20 82.5q0 48 24 87t62.5 66.5t85.5 42.5t92 15q20 0 40.5 -3.5t39.5 -10t34 -15
t23 -17.5l53 43h6l-41 -270h-6q-3 67 -12.5 116.5t-27.5 82.5t-46.5 49t-68.5 16q-30 0 -60 -9t-53.5 -27t-38.5 -44.5t-15 -60.5q0 -24 5 -42.5t13.5 -34t19.5 -29.5t23 -28l67 -78q21 -24 38.5 -46t30 -43.5t20 -44t7.5 -48.5q0 -47 -23.5 -92t-66 -79.5t-101 -55.5
t-127.5 -21zM591 996h16l87 -153h-10l-101 66l-200 -66h-15z" />
    <glyph glyph-name="uni0218" unicode="&#x218;" horiz-adv-x="620" 
d="M214 -13q-46 0 -82 13t-60 33l-53 -43h-6l43 284h6q2 -76 11 -129t27.5 -86t46.5 -48t68 -15q41 0 80 11.5t69 34t48 56t18 77.5q0 43 -18 77.5t-55 78.5l-67 78q-33 39 -53 76.5t-20 82.5q0 48 24 87t62.5 66.5t85.5 42.5t92 15q20 0 40.5 -3.5t39.5 -10t34 -15
t23 -17.5l53 43h6l-41 -270h-6q-3 67 -12.5 116.5t-27.5 82.5t-46.5 49t-68.5 16q-30 0 -60 -9t-53.5 -27t-38.5 -44.5t-15 -60.5q0 -24 5 -42.5t13.5 -34t19.5 -29.5t23 -28l67 -78q21 -24 38.5 -46t30 -43.5t20 -44t7.5 -48.5q0 -47 -23.5 -92t-66 -79.5t-101 -55.5
t-127.5 -21zM57 -369q69 30 105.5 66t36.5 80q0 30 -22 46t-54 20q2 27 22 44.5t50 17.5q32 0 57 -21.5t25 -63.5q0 -57 -54 -108t-162 -91z" />
    <glyph glyph-name="Tbar" unicode="&#x166;" horiz-adv-x="777" 
d="M154 10h109l225 738h-186q-8 0 -12.5 -0.5t-7.5 -2t-6.5 -5.5t-8.5 -11l-161 -223h-6l122 299h6l61 -47h510l89 47h6l-62 -299h-6l-21 223q-2 14 -5.5 16.5t-19.5 2.5h-188l-225 -738h109l-3 -10h-322zM216 418h447l-16 -53h-447z" />
    <glyph glyph-name="Tcaron" unicode="&#x164;" horiz-adv-x="775" 
d="M154 10h109l225 738h-186q-8 0 -12.5 -0.5t-7.5 -2t-6.5 -5.5t-8.5 -11l-161 -223h-6l122 299h6l61 -47h510l89 47h6l-62 -299h-6l-21 223q-2 14 -5.5 16.5t-19.5 2.5h-188l-225 -738h109l-3 -10h-322zM480 996h10l101 -65l200 65h15l-223 -153h-16z" />
    <glyph glyph-name="uni0162" unicode="&#x162;" horiz-adv-x="775" 
d="M154 10h109l225 738h-186q-8 0 -12.5 -0.5t-7.5 -2t-6.5 -5.5t-8.5 -11l-161 -223h-6l122 299h6l61 -47h510l89 47h6l-62 -299h-6l-21 223q-2 14 -5.5 16.5t-19.5 2.5h-188l-225 -738h109l-3 -10h-322zM121 -364q69 30 105.5 66t36.5 80q0 30 -22 46t-54 20q2 27 22 44.5
t50 17.5q32 0 57 -21.5t25 -63.5q0 -57 -54 -108t-162 -91z" />
    <glyph glyph-name="uni021A" unicode="&#x21a;" horiz-adv-x="775" 
d="M154 10h109l225 738h-186q-8 0 -12.5 -0.5t-7.5 -2t-6.5 -5.5t-8.5 -11l-161 -223h-6l122 299h6l61 -47h510l89 47h6l-62 -299h-6l-21 223q-2 14 -5.5 16.5t-19.5 2.5h-188l-225 -738h109l-3 -10h-322zM121 -364q69 30 105.5 66t36.5 80q0 30 -22 46t-54 20q2 27 22 44.5
t50 17.5q32 0 57 -21.5t25 -63.5q0 -57 -54 -108t-162 -91z" />
    <glyph glyph-name="Ubreve" unicode="&#x16c;" horiz-adv-x="847" 
d="M369 -13q-74 0 -128 16.5t-84 52t-35 90.5t19 133l144 469h-99l3 10h302l-3 -10h-99l-144 -470q-43 -140 -5.5 -202t150.5 -62q55 0 105 13.5t92.5 44.5t76 81.5t56.5 124.5l144 470h-99l3 10h210l-3 -10h-99l-144 -470q-47 -151 -138 -221t-225 -70zM649 837
q-24 0 -50.5 8t-47 26.5t-31 49t-2.5 76.5h52q-8 -60 15 -87t71 -27t85 28t47 86h53q-9 -48 -30.5 -79t-48.5 -49t-57 -25t-56 -7z" />
    <glyph glyph-name="Uhungarumlaut" unicode="&#x170;" horiz-adv-x="847" 
d="M369 -13q-74 0 -128 16.5t-84 52t-35 90.5t19 133l144 469h-99l3 10h302l-3 -10h-99l-144 -470q-43 -140 -5.5 -202t150.5 -62q55 0 105 13.5t92.5 44.5t76 81.5t56.5 124.5l144 470h-99l3 10h210l-3 -10h-99l-144 -470q-47 -151 -138 -221t-225 -70zM795 969l-292 -126
h-13l136 129h170zM995 969l-292 -126h-13l136 129h170z" />
    <glyph glyph-name="Umacron" unicode="&#x16a;" horiz-adv-x="847" 
d="M369 -13q-74 0 -128 16.5t-84 52t-35 90.5t19 133l144 469h-99l3 10h302l-3 -10h-99l-144 -470q-43 -140 -5.5 -202t150.5 -62q55 0 105 13.5t92.5 44.5t76 81.5t56.5 124.5l144 470h-99l3 10h210l-3 -10h-99l-144 -470q-47 -151 -138 -221t-225 -70zM521 944h310
l-42 -61h-310z" />
    <glyph glyph-name="Uogonek" unicode="&#x172;" horiz-adv-x="847" 
d="M369 -13q-74 0 -128 16.5t-84 52t-35 90.5t19 133l144 469h-99l3 10h302l-3 -10h-99l-144 -470q-43 -140 -5.5 -202t150.5 -62q55 0 105 13.5t92.5 44.5t76 81.5t56.5 124.5l144 470h-99l3 10h210l-3 -10h-99l-144 -470q-47 -151 -138 -221t-225 -70zM422 -176
q-24 -23 -53.5 -40.5t-61.5 -17.5q-38 0 -59 18.5t-21 51.5q0 27 18.5 51t47 44.5t62 37.5t64.5 31h13q-23 -16 -45 -33.5t-39 -36t-27.5 -37.5t-10.5 -37q0 -44 46 -44q16 0 31 6t29 14z" />
    <glyph glyph-name="Uring" unicode="&#x16e;" horiz-adv-x="847" 
d="M369 -13q-74 0 -128 16.5t-84 52t-35 90.5t19 133l144 469h-99l3 10h302l-3 -10h-99l-144 -470q-43 -140 -5.5 -202t150.5 -62q55 0 105 13.5t92.5 44.5t76 81.5t56.5 124.5l144 470h-99l3 10h210l-3 -10h-99l-144 -470q-47 -151 -138 -221t-225 -70zM562 953
q0 22 8.5 40.5t23 32.5t34 22t42.5 8q22 0 41.5 -8t34 -22t23 -32.5t8.5 -40.5t-8.5 -41t-23 -33t-34 -22t-41.5 -8q-23 0 -42.5 8t-34 22t-23 33t-8.5 41zM731 953q0 27 -16.5 45t-44.5 18q-29 0 -45.5 -18t-16.5 -45q0 -28 16.5 -45.5t45.5 -17.5q28 0 44.5 17.5
t16.5 45.5z" />
    <glyph glyph-name="Utilde" unicode="&#x168;" horiz-adv-x="847" 
d="M369 -13q-74 0 -128 16.5t-84 52t-35 90.5t19 133l144 469h-99l3 10h302l-3 -10h-99l-144 -470q-43 -140 -5.5 -202t150.5 -62q55 0 105 13.5t92.5 44.5t76 81.5t56.5 124.5l144 470h-99l3 10h210l-3 -10h-99l-144 -470q-47 -151 -138 -221t-225 -70zM477 859
q5 63 36 102.5t85 39.5q21 0 41 -10t39.5 -21.5t39 -21.5t39.5 -10q30 0 47.5 14t28.5 46h11q-8 -41 -19 -67t-26 -42t-33 -22t-38 -6q-25 0 -45.5 10t-39 21.5t-37 21.5t-39.5 10q-29 0 -50.5 -16t-28.5 -49h-11z" />
    <glyph glyph-name="uni1EE4" unicode="&#x1ee4;" horiz-adv-x="847" 
d="M369 -13q-74 0 -128 16.5t-84 52t-35 90.5t19 133l144 469h-99l3 10h302l-3 -10h-99l-144 -470q-43 -140 -5.5 -202t150.5 -62q55 0 105 13.5t92.5 44.5t76 81.5t56.5 124.5l144 470h-99l3 10h210l-3 -10h-99l-144 -470q-47 -151 -138 -221t-225 -70zM317 -230
q-29 0 -47 18t-18 44q0 28 18 46t47 18q27 0 45 -18t18 -46q0 -26 -18 -44t-45 -18z" />
    <glyph glyph-name="Wacute" unicode="&#x1e82;" horiz-adv-x="1182" 
d="M301 748h-99l3 10h302l-3 -10h-99l-195 -638l401 376l83 272h233l-3 -10h-129l-195 -638l680 638h-117l3 10h233l-3 -10h-99l-840 -787h-7l154 504l-537 -504h-7zM1063 969l-292 -126h-13l136 129h170z" />
    <glyph glyph-name="Wcircumflex" unicode="&#x174;" horiz-adv-x="1182" 
d="M301 748h-99l3 10h302l-3 -10h-99l-195 -638l401 376l83 272h233l-3 -10h-129l-195 -638l680 638h-117l3 10h233l-3 -10h-99l-840 -787h-7l154 504l-537 -504h-7zM887 996h16l87 -153h-10l-101 66l-200 -66h-15z" />
    <glyph glyph-name="Wdieresis" unicode="&#x1e84;" horiz-adv-x="1182" 
d="M301 748h-99l3 10h302l-3 -10h-99l-195 -638l401 376l83 272h233l-3 -10h-129l-195 -638l680 638h-117l3 10h233l-3 -10h-99l-840 -787h-7l154 504l-537 -504h-7zM760 861q-29 0 -47 18t-18 44q0 28 18 46t47 18q27 0 45 -18t18 -46q0 -26 -18 -44t-45 -18zM960 861
q-29 0 -47 18t-18 44q0 28 18 46t47 18q27 0 45 -18t18 -46q0 -26 -18 -44t-45 -18z" />
    <glyph glyph-name="Wgrave" unicode="&#x1e80;" horiz-adv-x="1182" 
d="M301 748h-99l3 10h302l-3 -10h-99l-195 -638l401 376l83 272h233l-3 -10h-129l-195 -638l680 638h-117l3 10h233l-3 -10h-99l-840 -787h-7l154 504l-537 -504h-7zM791 972l91 -129h-9l-240 126v3h158z" />
    <glyph glyph-name="Ycircumflex" unicode="&#x176;" horiz-adv-x="760" 
d="M467 0h-322l3 10h109l109 355l-144 383h-93l3 10h292l-3 -10h-93l140 -368l363 368h-92l3 10h192l-3 -10h-84l-377 -382l-109 -356h109zM640 996h16l87 -153h-10l-101 66l-200 -66h-15z" />
    <glyph glyph-name="Ydieresis" unicode="&#x178;" horiz-adv-x="760" 
d="M467 0h-322l3 10h109l109 355l-144 383h-93l3 10h292l-3 -10h-93l140 -368l363 368h-92l3 10h192l-3 -10h-84l-377 -382l-109 -356h109zM513 861q-29 0 -47 18t-18 44q0 28 18 46t47 18q27 0 45 -18t18 -46q0 -26 -18 -44t-45 -18zM713 861q-29 0 -47 18t-18 44
q0 28 18 46t47 18q27 0 45 -18t18 -46q0 -26 -18 -44t-45 -18z" />
    <glyph glyph-name="Ygrave" unicode="&#x1ef2;" horiz-adv-x="760" 
d="M467 0h-322l3 10h109l109 355l-144 383h-93l3 10h292l-3 -10h-93l140 -368l363 368h-92l3 10h192l-3 -10h-84l-377 -382l-109 -356h109zM544 972l91 -129h-9l-240 126v3h158z" />
    <glyph glyph-name="uni0232" unicode="&#x232;" horiz-adv-x="760" 
d="M467 0h-322l3 10h109l109 355l-144 383h-93l3 10h292l-3 -10h-93l140 -368l363 368h-92l3 10h192l-3 -10h-84l-377 -382l-109 -356h109zM474 944h310l-42 -61h-310z" />
    <glyph glyph-name="Zacute" unicode="&#x179;" horiz-adv-x="738" 
d="M706 748h-277q-19 0 -27 -2.5t-21 -15.5l-214 -206h-12l184 281h10l38 -47h453l-771 -748h344q9 0 15.5 0.5t11.5 2t9.5 5.5t11.5 10l221 206h12l-142 -234h-614zM845 969l-292 -126h-13l136 129h170z" />
    <glyph glyph-name="Zcaron" unicode="&#x17d;" horiz-adv-x="738" 
d="M706 748h-277q-19 0 -27 -2.5t-21 -15.5l-214 -206h-12l184 281h10l38 -47h453l-771 -748h344q9 0 15.5 0.5t11.5 2t9.5 5.5t11.5 10l221 206h12l-142 -234h-614zM489 996h10l101 -65l200 65h15l-223 -153h-16z" />
    <glyph glyph-name="Zdotaccent" unicode="&#x17b;" horiz-adv-x="738" 
d="M706 748h-277q-19 0 -27 -2.5t-21 -15.5l-214 -206h-12l184 281h10l38 -47h453l-771 -748h344q9 0 15.5 0.5t11.5 2t9.5 5.5t11.5 10l221 206h12l-142 -234h-614zM642 861q-29 0 -47 18t-18 44q0 28 18 46t47 18q27 0 45 -18t18 -46q0 -26 -18 -44t-45 -18z" />
    <glyph glyph-name="uni018F" unicode="&#x18f;" horiz-adv-x="769" 
d="M330 -12q-60 0 -105.5 18.5t-77.5 52t-50.5 80t-24.5 102.5h525q24 57 37 116.5t13 113.5q0 61 -15 104.5t-41 71t-61 40.5t-75 13q-47 0 -96 -14.5t-95 -47.5t-85.5 -86t-67.5 -129h-11q19 70 54 135t86 114t117 78.5t146 29.5q60 0 109.5 -19t85 -55.5t54.5 -90
t19 -123.5q0 -49 -14 -106t-40.5 -113t-65 -107.5t-87.5 -91t-108 -63t-126 -23.5zM339 -2q39 0 76 18t69 49.5t59.5 73.5t48.5 90h-280q-35 0 -55.5 -3t-31.5 -10t-14.5 -20t-3.5 -32q0 -27 5 -56t19.5 -53.5t40.5 -40.5t67 -16z" />
    <glyph glyph-name="abreve" unicode="&#x103;" horiz-adv-x="536" 
d="M90 -13q-42 0 -62.5 26.5t-20.5 70.5q0 43 15 91.5t40.5 96t59.5 90.5t71.5 76.5t76 53t73.5 19.5q32 0 48.5 -24.5t10.5 -64.5h1l35 92h84l-158 -423q-14 -38 -17.5 -58t10.5 -20q22 0 61 36t80 105l10 -6q-50 -83 -98 -122t-108 -39q-21 0 -30.5 7.5t-10.5 22.5t5.5 36
t17.5 48l47 118h-2q-27 -47 -54.5 -89t-57 -73.5t-61 -50.5t-66.5 -19zM147 20q16 0 40.5 22t52 57.5t54.5 80.5t49 91t35.5 89.5t13.5 75.5t-13 48t-35 16q-30 0 -58.5 -18t-53.5 -49t-46.5 -71t-37 -84t-24 -89.5t-8.5 -85.5q0 -46 8.5 -64.5t22.5 -18.5zM402 598
q-24 0 -50.5 8t-47 26.5t-31 49t-2.5 76.5h52q-8 -60 15 -87t71 -27t85 28t47 86h53q-9 -48 -30.5 -79t-48.5 -49t-57 -25t-56 -7z" />
    <glyph glyph-name="amacron" unicode="&#x101;" horiz-adv-x="536" 
d="M90 -13q-42 0 -62.5 26.5t-20.5 70.5q0 43 15 91.5t40.5 96t59.5 90.5t71.5 76.5t76 53t73.5 19.5q32 0 48.5 -24.5t10.5 -64.5h1l35 92h84l-158 -423q-14 -38 -17.5 -58t10.5 -20q22 0 61 36t80 105l10 -6q-50 -83 -98 -122t-108 -39q-21 0 -30.5 7.5t-10.5 22.5t5.5 36
t17.5 48l47 118h-2q-27 -47 -54.5 -89t-57 -73.5t-61 -50.5t-66.5 -19zM147 20q16 0 40.5 22t52 57.5t54.5 80.5t49 91t35.5 89.5t13.5 75.5t-13 48t-35 16q-30 0 -58.5 -18t-53.5 -49t-46.5 -71t-37 -84t-24 -89.5t-8.5 -85.5q0 -46 8.5 -64.5t22.5 -18.5zM267 705h310
l-21 -61h-310z" />
    <glyph glyph-name="aogonek" unicode="&#x105;" horiz-adv-x="536" 
d="M90 -13q-42 0 -62.5 26.5t-20.5 70.5q0 43 15 91.5t40.5 96t59.5 90.5t71.5 76.5t76 53t73.5 19.5q32 0 48.5 -24.5t10.5 -64.5h1l35 92h84l-158 -423q-14 -38 -17.5 -58t10.5 -20q22 0 61 36t80 105l10 -6q-40 -66 -77.5 -104t-81.5 -50q-44 -31 -75.5 -67t-31.5 -71
q0 -44 46 -44q16 0 31 6t29 14l6 -8q-24 -23 -53.5 -40.5t-61.5 -17.5q-38 0 -59 18.5t-21 51.5q0 24 14 46t36 41t50 35t57 30q-4 -1 -7.5 -1h-6.5q-21 0 -30.5 7.5t-10.5 22.5t5.5 36t17.5 48l47 118h-2q-27 -47 -54.5 -89t-57 -73.5t-61 -50.5t-66.5 -19zM147 20
q16 0 40.5 22t52 57.5t54.5 80.5t49 91t35.5 89.5t13.5 75.5t-13 48t-35 16q-30 0 -58.5 -18t-53.5 -49t-46.5 -71t-37 -84t-24 -89.5t-8.5 -85.5q0 -46 8.5 -64.5t22.5 -18.5z" />
    <glyph glyph-name="cacute" unicode="&#x107;" horiz-adv-x="417" 
d="M150 -13q-54 0 -88 35.5t-34 113.5q0 64 25 130.5t67.5 121t98.5 89t117 34.5q16 0 33.5 -3.5t31 -11.5t22.5 -21t9 -32q0 -16 -7.5 -27t-18.5 -17.5t-24 -9.5t-24 -2l-37 115q-33 -3 -66.5 -30.5t-61 -72.5t-45 -105t-17.5 -128q0 -30 4.5 -57t13 -47.5t22 -32.5
t31.5 -12q33 0 68.5 36.5t67.5 103.5l10 -4q-17 -37 -37 -67.5t-44.5 -52.5t-53.5 -34t-63 -12zM422 758h129l-1 -3l-234 -176h-11z" />
    <glyph glyph-name="ccaron" unicode="&#x10d;" horiz-adv-x="417" 
d="M150 -13q-54 0 -88 35.5t-34 113.5q0 64 25 130.5t67.5 121t98.5 89t117 34.5q16 0 33.5 -3.5t31 -11.5t22.5 -21t9 -32q0 -16 -7.5 -27t-18.5 -17.5t-24 -9.5t-24 -2l-37 115q-33 -3 -66.5 -30.5t-61 -72.5t-45 -105t-17.5 -128q0 -30 4.5 -57t13 -47.5t22 -32.5
t31.5 -12q33 0 68.5 36.5t67.5 103.5l10 -4q-17 -37 -37 -67.5t-44.5 -52.5t-53.5 -34t-63 -12zM258 782h10l91 -109l209 109h14l-245 -203h-12z" />
    <glyph glyph-name="ccircumflex" unicode="&#x109;" horiz-adv-x="417" 
d="M150 -13q-54 0 -88 35.5t-34 113.5q0 64 25 130.5t67.5 121t98.5 89t117 34.5q16 0 33.5 -3.5t31 -11.5t22.5 -21t9 -32q0 -16 -7.5 -27t-18.5 -17.5t-24 -9.5t-24 -2l-37 115q-33 -3 -66.5 -30.5t-61 -72.5t-45 -105t-17.5 -128q0 -30 4.5 -57t13 -47.5t22 -32.5
t31.5 -12q33 0 68.5 36.5t67.5 103.5l10 -4q-17 -37 -37 -67.5t-44.5 -52.5t-53.5 -34t-63 -12zM431 782h12l67 -203h-10l-91 109l-209 -109h-14z" />
    <glyph glyph-name="cdotaccent" unicode="&#x10b;" horiz-adv-x="417" 
d="M150 -13q-54 0 -88 35.5t-34 113.5q0 64 25 130.5t67.5 121t98.5 89t117 34.5q16 0 33.5 -3.5t31 -11.5t22.5 -21t9 -32q0 -16 -7.5 -27t-18.5 -17.5t-24 -9.5t-24 -2l-37 115q-33 -3 -66.5 -30.5t-61 -72.5t-45 -105t-17.5 -128q0 -30 4.5 -57t13 -47.5t22 -32.5
t31.5 -12q33 0 68.5 36.5t67.5 103.5l10 -4q-17 -37 -37 -67.5t-44.5 -52.5t-53.5 -34t-63 -12zM387 624q-29 0 -47 18t-18 44q0 28 18 46t47 18q27 0 45 -18t18 -46q0 -26 -18 -44t-45 -18z" />
    <glyph glyph-name="dcaron" unicode="&#x10f;" horiz-adv-x="610" 
d="M88 -13q-24 0 -39.5 8.5t-24.5 22.5t-12.5 31t-3.5 34q0 42 14.5 90.5t39 96t57 91t69 77t75 53.5t74.5 20q31 0 48.5 -20t19.5 -52h1l102 309h-97l4 10h187l-222 -667q-13 -38 -16 -58t11 -20q22 0 61 36t80 105l10 -6q-50 -83 -98 -122t-108 -39q-42 0 -43.5 28
t19.5 86l43 118h-2q-25 -44 -53 -86t-59.5 -74.5t-65.5 -52t-71 -19.5zM147 20q16 0 41 20.5t52.5 53.5t55 75.5t49.5 87.5t36 88t14 78q0 41 -17 59t-39 18q-45 0 -85 -38t-70.5 -96t-48.5 -126.5t-18 -129.5q0 -90 30 -90zM595 498q68 30 105 66t37 80q0 30 -22 46t-54 20
q2 27 22 44.5t50 17.5q32 0 57 -21.5t25 -63.5q0 -57 -54 -108t-162 -91z" />
    <glyph glyph-name="dcroat" unicode="&#x111;" horiz-adv-x="549" 
d="M88 -13q-24 0 -39.5 8.5t-24.5 22.5t-12.5 31t-3.5 34q0 42 14.5 90.5t39 96t57 91t69 77t75 53.5t74.5 20q31 0 48.5 -20t19.5 -52h1l102 309h-97l4 10h187l-222 -667q-13 -38 -16 -58t11 -20q22 0 61 36t80 105l10 -6q-50 -83 -98 -122t-108 -39q-42 0 -43.5 28
t19.5 86l43 118h-2q-25 -44 -53 -86t-59.5 -74.5t-65.5 -52t-71 -19.5zM147 20q16 0 41 20.5t52.5 53.5t55 75.5t49.5 87.5t36 88t14 78q0 41 -17 59t-39 18q-45 0 -85 -38t-70.5 -96t-48.5 -126.5t-18 -129.5q0 -90 30 -90zM338 630h302l-12 -35h-302z" />
    <glyph glyph-name="ebreve" unicode="&#x115;" horiz-adv-x="445" 
d="M156 -13q-28 0 -52 9t-41.5 27t-27.5 46.5t-10 67.5q0 50 15.5 97.5t40.5 89t58.5 76t69.5 59.5t72 38.5t68 13.5q43 0 70.5 -24t27.5 -59q0 -58 -60 -97l-228 -8q-15 -35 -23.5 -74t-8.5 -80q0 -67 21.5 -109.5t64.5 -42.5q45 0 86 42t73 115l10 -4q-35 -85 -90 -134
t-136 -49zM349 502q-25 0 -51 -12.5t-50.5 -35t-46.5 -53t-38 -67.5l62 2q41 1 73 14.5t53.5 32.5t33 40t11.5 39q0 20 -13 30t-34 10zM402 598q-24 0 -50.5 8t-47 26.5t-31 49t-2.5 76.5h52q-8 -60 15 -87t71 -27t85 28t47 86h53q-9 -48 -30.5 -79t-48.5 -49t-57 -25
t-56 -7z" />
    <glyph glyph-name="ecaron" unicode="&#x11b;" horiz-adv-x="445" 
d="M156 -13q-28 0 -52 9t-41.5 27t-27.5 46.5t-10 67.5q0 50 15.5 97.5t40.5 89t58.5 76t69.5 59.5t72 38.5t68 13.5q43 0 70.5 -24t27.5 -59q0 -58 -60 -97l-228 -8q-15 -35 -23.5 -74t-8.5 -80q0 -67 21.5 -109.5t64.5 -42.5q45 0 86 42t73 115l10 -4q-35 -85 -90 -134
t-136 -49zM349 502q-25 0 -51 -12.5t-50.5 -35t-46.5 -53t-38 -67.5l62 2q41 1 73 14.5t53.5 32.5t33 40t11.5 39q0 20 -13 30t-34 10zM288 782h10l91 -109l209 109h14l-245 -203h-12z" />
    <glyph glyph-name="emacron" unicode="&#x113;" horiz-adv-x="445" 
d="M156 -13q-28 0 -52 9t-41.5 27t-27.5 46.5t-10 67.5q0 50 15.5 97.5t40.5 89t58.5 76t69.5 59.5t72 38.5t68 13.5q43 0 70.5 -24t27.5 -59q0 -58 -60 -97l-228 -8q-15 -35 -23.5 -74t-8.5 -80q0 -67 21.5 -109.5t64.5 -42.5q45 0 86 42t73 115l10 -4q-35 -85 -90 -134
t-136 -49zM349 502q-25 0 -51 -12.5t-50.5 -35t-46.5 -53t-38 -67.5l62 2q41 1 73 14.5t53.5 32.5t33 40t11.5 39q0 20 -13 30t-34 10zM267 705h310l-21 -61h-310z" />
    <glyph glyph-name="eogonek" unicode="&#x119;" horiz-adv-x="445" 
d="M216 -176q-24 -23 -53.5 -40.5t-61.5 -17.5q-38 0 -59 18.5t-21 51.5q0 24 14 45.5t38 41t56 36.5t68 32q-6 -2 -19.5 -3t-21.5 -1q-28 0 -52 9t-41.5 27t-27.5 46.5t-10 67.5q0 50 15.5 97.5t40.5 89t58.5 76t69.5 59.5t72 38.5t68 13.5q43 0 70.5 -24t27.5 -59
q0 -58 -60 -97l-228 -8q-15 -35 -23.5 -74t-8.5 -80q0 -67 21.5 -109.5t64.5 -42.5q45 0 86 42t73 115l10 -4q-29 -68 -65 -108.5t-85 -67.5q-57 -32 -92.5 -67.5t-35.5 -70.5q0 -44 46 -44q16 0 31 6t29 14zM349 502q-25 0 -51 -12.5t-50.5 -35t-46.5 -53t-38 -67.5l62 2
q41 1 73 14.5t53.5 32.5t33 40t11.5 39q0 20 -13 30t-34 10z" />
    <glyph glyph-name="edotaccent" unicode="&#x117;" horiz-adv-x="445" 
d="M156 -13q-28 0 -52 9t-41.5 27t-27.5 46.5t-10 67.5q0 50 15.5 97.5t40.5 89t58.5 76t69.5 59.5t72 38.5t68 13.5q43 0 70.5 -24t27.5 -59q0 -58 -60 -97l-228 -8q-15 -35 -23.5 -74t-8.5 -80q0 -67 21.5 -109.5t64.5 -42.5q45 0 86 42t73 115l10 -4q-35 -85 -90 -134
t-136 -49zM349 502q-25 0 -51 -12.5t-50.5 -35t-46.5 -53t-38 -67.5l62 2q41 1 73 14.5t53.5 32.5t33 40t11.5 39q0 20 -13 30t-34 10zM417 624q-29 0 -47 18t-18 44q0 28 18 46t47 18q27 0 45 -18t18 -46q0 -26 -18 -44t-45 -18z" />
    <glyph glyph-name="gbreve" unicode="&#x11f;" horiz-adv-x="483" 
d="M192 158q-24 0 -40 4l-44 -48l183 -110q53 -32 77.5 -58.5t24.5 -56.5q0 -36 -22.5 -63.5t-59 -45.5t-82.5 -27t-93 -9q-51 0 -94 8.5t-74 24t-48.5 36.5t-17.5 47q0 22 15 40.5t41.5 36t63.5 34t81 34.5l-48 67l87 93q-40 12 -60.5 42t-20.5 72q0 38 21.5 79t57 75
t81.5 56t95 22q39 0 67 -13.5t44 -36.5l38 69h105l-41 -73h-100q18 -29 18 -67t-21.5 -79t-57 -75t-81.5 -56t-95 -22zM223 169q32 0 55.5 23.5t38.5 59t22.5 76t7.5 73.5q0 43 -14 70t-48 27q-32 0 -55.5 -23.5t-38.5 -59t-22.5 -76t-7.5 -73.5q0 -43 14 -70t48 -27z
M-20 -124q0 -22 11.5 -43t35 -37t59.5 -26t86 -10q26 0 53.5 3.5t50.5 12t37.5 22.5t14.5 35q0 23 -24.5 46.5t-70.5 49.5l-123 70q-42 -18 -68 -33.5t-39.5 -30t-18 -29t-4.5 -30.5zM354 598q-24 0 -50.5 8t-47 26.5t-31 49t-2.5 76.5h52q-8 -60 15 -87t71 -27t85 28t47 86
h53q-9 -48 -30.5 -79t-48.5 -49t-57 -25t-56 -7z" />
    <glyph glyph-name="gcircumflex" unicode="&#x11d;" horiz-adv-x="483" 
d="M192 158q-24 0 -40 4l-44 -48l183 -110q53 -32 77.5 -58.5t24.5 -56.5q0 -36 -22.5 -63.5t-59 -45.5t-82.5 -27t-93 -9q-51 0 -94 8.5t-74 24t-48.5 36.5t-17.5 47q0 22 15 40.5t41.5 36t63.5 34t81 34.5l-48 67l87 93q-40 12 -60.5 42t-20.5 72q0 38 21.5 79t57 75
t81.5 56t95 22q39 0 67 -13.5t44 -36.5l38 69h105l-41 -73h-100q18 -29 18 -67t-21.5 -79t-57 -75t-81.5 -56t-95 -22zM223 169q32 0 55.5 23.5t38.5 59t22.5 76t7.5 73.5q0 43 -14 70t-48 27q-32 0 -55.5 -23.5t-38.5 -59t-22.5 -76t-7.5 -73.5q0 -43 14 -70t48 -27z
M-20 -124q0 -22 11.5 -43t35 -37t59.5 -26t86 -10q26 0 53.5 3.5t50.5 12t37.5 22.5t14.5 35q0 23 -24.5 46.5t-70.5 49.5l-123 70q-42 -18 -68 -33.5t-39.5 -30t-18 -29t-4.5 -30.5zM413 782h12l67 -203h-10l-91 109l-209 -109h-14z" />
    <glyph glyph-name="uni0123" unicode="&#x123;" horiz-adv-x="483" 
d="M192 158q-24 0 -40 4l-44 -48l183 -110q53 -32 77.5 -58.5t24.5 -56.5q0 -36 -22.5 -63.5t-59 -45.5t-82.5 -27t-93 -9q-51 0 -94 8.5t-74 24t-48.5 36.5t-17.5 47q0 22 15 40.5t41.5 36t63.5 34t81 34.5l-48 67l87 93q-40 12 -60.5 42t-20.5 72q0 38 21.5 79t57 75
t81.5 56t95 22q39 0 67 -13.5t44 -36.5l38 69h105l-41 -73h-100q18 -29 18 -67t-21.5 -79t-57 -75t-81.5 -56t-95 -22zM223 169q32 0 55.5 23.5t38.5 59t22.5 76t7.5 73.5q0 43 -14 70t-48 27q-32 0 -55.5 -23.5t-38.5 -59t-22.5 -76t-7.5 -73.5q0 -43 14 -70t48 -27z
M-20 -124q0 -22 11.5 -43t35 -37t59.5 -26t86 -10q26 0 53.5 3.5t50.5 12t37.5 22.5t14.5 35q0 23 -24.5 46.5t-70.5 49.5l-123 70q-42 -18 -68 -33.5t-39.5 -30t-18 -29t-4.5 -30.5zM333 597q-32 0 -57 21.5t-25 63.5q0 57 54 108t162 91l4 -10q-67 -30 -104.5 -66
t-37.5 -80q0 -30 22 -46t54 -20q-2 -27 -22 -44.5t-50 -17.5z" />
    <glyph glyph-name="gdotaccent" unicode="&#x121;" horiz-adv-x="483" 
d="M192 158q-24 0 -40 4l-44 -48l183 -110q53 -32 77.5 -58.5t24.5 -56.5q0 -36 -22.5 -63.5t-59 -45.5t-82.5 -27t-93 -9q-51 0 -94 8.5t-74 24t-48.5 36.5t-17.5 47q0 22 15 40.5t41.5 36t63.5 34t81 34.5l-48 67l87 93q-40 12 -60.5 42t-20.5 72q0 38 21.5 79t57 75
t81.5 56t95 22q39 0 67 -13.5t44 -36.5l38 69h105l-41 -73h-100q18 -29 18 -67t-21.5 -79t-57 -75t-81.5 -56t-95 -22zM223 169q32 0 55.5 23.5t38.5 59t22.5 76t7.5 73.5q0 43 -14 70t-48 27q-32 0 -55.5 -23.5t-38.5 -59t-22.5 -76t-7.5 -73.5q0 -43 14 -70t48 -27z
M-20 -124q0 -22 11.5 -43t35 -37t59.5 -26t86 -10q26 0 53.5 3.5t50.5 12t37.5 22.5t14.5 35q0 23 -24.5 46.5t-70.5 49.5l-123 70q-42 -18 -68 -33.5t-39.5 -30t-18 -29t-4.5 -30.5zM369 624q-29 0 -47 18t-18 44q0 28 18 46t47 18q27 0 45 -18t18 -46q0 -26 -18 -44
t-45 -18z" />
    <glyph glyph-name="hbar" unicode="&#x127;" horiz-adv-x="536" 
d="M244 -13q-37 0 -64 19t-27 51q0 28 23 43t51 12l39 -115q34 17 60.5 59t45 96t28.5 113.5t10 110.5q0 45 -12 73.5t-30 28.5q-17 0 -41.5 -24.5t-52.5 -63.5t-56 -87t-50 -94q-16 -33 -27.5 -59t-20.5 -49.5t-16.5 -45.5t-15.5 -47l-95 -18l264 758h-78l4 10h168
l-165 -467l-27 -70h2q25 47 53.5 98.5t61 94t69 70t77.5 27.5q40 0 66 -28t26 -85q0 -48 -13 -97t-34.5 -95t-49 -85.5t-57.5 -69.5t-60 -47t-56 -17zM139 630h306l-12 -35h-306z" />
    <glyph glyph-name="hcircumflex" unicode="&#x125;" horiz-adv-x="536" 
d="M244 -13q-37 0 -64 19t-27 51q0 28 23 43t51 12l39 -115q34 17 60.5 59t45 96t28.5 113.5t10 110.5q0 45 -12 73.5t-30 28.5q-17 0 -41.5 -24.5t-52.5 -63.5t-56 -87t-50 -94q-16 -33 -27.5 -59t-20.5 -49.5t-16.5 -45.5t-15.5 -47l-95 -18l264 758h-78l4 10h168
l-165 -467l-27 -70h2q25 47 53.5 98.5t61 94t69 70t77.5 27.5q40 0 66 -28t26 -85q0 -48 -13 -97t-34.5 -95t-49 -85.5t-57.5 -69.5t-60 -47t-56 -17zM372 996h16l87 -153h-10l-101 66l-200 -66h-15z" />
    <glyph glyph-name="dotlessi" unicode="&#x131;" horiz-adv-x="309" 
d="M161 402l-78 46l2 4l213 59l-166 -420q-15 -38 -18 -58t11 -20q22 0 61 36t80 105l10 -6q-50 -83 -98 -122t-108 -39q-42 0 -46.5 28.5t18.5 85.5z" />
    <glyph glyph-name="ibreve" unicode="&#x12d;" horiz-adv-x="309" 
d="M161 402l-78 46l2 4l213 59l-166 -420q-15 -38 -18 -58t11 -20q22 0 61 36t80 105l10 -6q-50 -83 -98 -122t-108 -39q-42 0 -46.5 28.5t18.5 85.5zM292 598q-24 0 -50.5 8t-47 26.5t-31 49t-2.5 76.5h52q-8 -60 15 -87t71 -27t85 28t47 86h53q-9 -48 -30.5 -79t-48.5 -49
t-57 -25t-56 -7z" />
    <glyph glyph-name="imacron" unicode="&#x12b;" horiz-adv-x="309" 
d="M161 402l-78 46l2 4l213 59l-166 -420q-15 -38 -18 -58t11 -20q22 0 61 36t80 105l10 -6q-50 -83 -98 -122t-108 -39q-42 0 -46.5 28.5t18.5 85.5zM157 705h310l-21 -61h-310z" />
    <glyph glyph-name="iogonek" unicode="&#x12f;" horiz-adv-x="309" 
d="M315 641q-26 0 -43.5 17.5t-17.5 43.5t17.5 43.5t43.5 17.5t43.5 -17.5t17.5 -43.5t-17.5 -43.5t-43.5 -17.5zM161 402l-78 46l2 4l213 59l-166 -420q-15 -38 -18 -58t11 -20q22 0 61 36t80 105l10 -6q-50 -83 -98 -122t-108 -39q-42 0 -46.5 28.5t18.5 85.5zM120 -176
q-24 -23 -53.5 -40.5t-61.5 -17.5q-38 0 -59 18.5t-21 51.5q0 27 16.5 51t42.5 44.5t57.5 37.5t62.5 31h26q-23 -16 -45 -33.5t-39 -36t-27.5 -37.5t-10.5 -37q0 -44 46 -44q16 0 31 6t29 14z" />
    <glyph glyph-name="itilde" unicode="&#x129;" horiz-adv-x="309" 
d="M161 402l-78 46l2 4l213 59l-166 -420q-15 -38 -18 -58t11 -20q22 0 61 36t80 105l10 -6q-50 -83 -98 -122t-108 -39q-42 0 -46.5 28.5t18.5 85.5zM122 618q5 63 36 102.5t85 39.5q21 0 41 -10t39.5 -21.5t39 -21.5t39.5 -10q30 0 47.5 14t28.5 46h11q-8 -41 -19 -67
t-26 -42t-33 -22t-38 -6q-25 0 -45.5 10t-39 21.5t-37 21.5t-39.5 10q-29 0 -50.5 -16t-28.5 -49h-11z" />
    <glyph glyph-name="uni1ECB" unicode="&#x1ecb;" horiz-adv-x="309" 
d="M315 641q-26 0 -43.5 17.5t-17.5 43.5t17.5 43.5t43.5 17.5t43.5 -17.5t17.5 -43.5t-17.5 -43.5t-43.5 -17.5zM161 402l-78 46l2 4l213 59l-166 -420q-15 -38 -18 -58t11 -20q22 0 61 36t80 105l10 -6q-50 -83 -98 -122t-108 -39q-42 0 -46.5 28.5t18.5 85.5zM-6 -229
q-29 0 -47 18t-18 44q0 28 18 46t47 18q27 0 45 -18t18 -46q0 -26 -18 -44t-45 -18z" />
    <glyph glyph-name="uni0237" unicode="&#x237;" horiz-adv-x="276" 
d="M77 448l2 4l210 59l-171 -466q-15 -41 -26.5 -69t-23 -47.5t-24.5 -32.5t-31 -24l-208 -128l-5 9q33 23 62 43.5t51 37.5q19 15 33.5 33.5t26 42t22.5 52t24 63.5l138 375z" />
    <glyph glyph-name="jcircumflex" unicode="&#x135;" horiz-adv-x="276" 
d="M77 448l2 4l210 59l-171 -466q-15 -41 -26.5 -69t-23 -47.5t-24.5 -32.5t-31 -24l-208 -128l-5 9q33 23 62 43.5t51 37.5q19 15 33.5 33.5t26 42t22.5 52t24 63.5l138 375zM320 782h12l67 -203h-10l-91 109l-209 -109h-14z" />
    <glyph glyph-name="uni0137" unicode="&#x137;" horiz-adv-x="552" 
d="M257 748h-78l4 10h168l-96 -274l-59 -153h3q27 47 52.5 83.5t52 61t55.5 37t63 12.5q52 0 71 -21t19 -52q0 -34 -22 -63.5t-55.5 -53t-74.5 -41t-78 -26.5l105 -211q17 -35 26 -47t21 -12q15 0 32.5 22t35.5 80l11 -3q-12 -36 -23.5 -59.5t-26 -38t-32 -20t-39.5 -5.5
q-19 0 -34.5 6.5t-30.5 20.5t-30 37.5t-31 56.5l-82 165q47 0 91 13t77.5 37t54 57t20.5 73q0 26 -10.5 45.5t-34.5 19.5q-18 0 -38 -12t-40 -32.5t-39.5 -46.5t-36.5 -54t-30.5 -55t-21.5 -50l-44 -124l-40 -122l-99 -19zM37 -364q69 30 105.5 66t36.5 80q0 30 -22 46
t-54 20q2 27 22 44.5t50 17.5q32 0 57 -21.5t25 -63.5q0 -57 -54 -108t-162 -91z" />
    <glyph glyph-name="lacute" unicode="&#x13a;" horiz-adv-x="292" 
d="M61 -13q-42 0 -44 28.5t18 86.5l225 646h-78l4 10h168l-233 -667q-14 -38 -16.5 -58t11.5 -20q22 0 61 36t80 105l10 -6q-50 -83 -98 -122t-108 -39zM411 1014h129l-1 -3l-234 -176h-11z" />
    <glyph glyph-name="lcaron" unicode="&#x13e;" horiz-adv-x="356" 
d="M61 -13q-42 0 -44 28.5t18 86.5l225 646h-78l4 10h168l-233 -667q-14 -38 -16.5 -58t11.5 -20q22 0 61 36t80 105l10 -6q-50 -83 -98 -122t-108 -39zM347 498q68 30 105 66t37 80q0 30 -22 46t-54 20q2 27 22 44.5t50 17.5q32 0 57 -21.5t25 -63.5q0 -57 -54 -108
t-162 -91z" />
    <glyph glyph-name="uni013C" unicode="&#x13c;" horiz-adv-x="292" 
d="M61 -13q-42 0 -44 28.5t18 86.5l225 646h-78l4 10h168l-233 -667q-14 -38 -16.5 -58t11.5 -20q22 0 61 36t80 105l10 -6q-50 -83 -98 -122t-108 -39zM-115 -364q69 30 105.5 66t36.5 80q0 30 -22 46t-54 20q2 27 22 44.5t50 17.5q32 0 57 -21.5t25 -63.5q0 -57 -54 -108
t-162 -91z" />
    <glyph glyph-name="ldot" unicode="&#x140;" horiz-adv-x="407" 
d="M61 -13q-42 0 -44 28.5t18 86.5l225 646h-78l4 10h168l-233 -667q-14 -38 -16.5 -58t11.5 -20q22 0 61 36t80 105l10 -6q-50 -83 -98 -122t-108 -39zM382 330q-29 0 -47 18t-18 44q0 28 18 46t47 18q27 0 45 -18t18 -46q0 -26 -18 -44t-45 -18z" />
    <glyph glyph-name="glyph298" horiz-adv-x="407" 
d="M61 -13q-42 0 -44 28.5t18 86.5l225 646h-78l4 10h168l-233 -667q-14 -38 -16.5 -58t11.5 -20q22 0 61 36t80 105l10 -6q-50 -83 -98 -122t-108 -39zM382 330q-29 0 -47 18t-18 44q0 28 18 46t47 18q27 0 45 -18t18 -46q0 -26 -18 -44t-45 -18z" />
    <glyph glyph-name="lslash" unicode="&#x142;" horiz-adv-x="412" 
d="M117 -13q-42 0 -44 28.5t18 86.5l225 646h-78l4 10h168l-233 -667q-14 -38 -16.5 -58t11.5 -20q22 0 61 36t80 105l10 -6q-50 -83 -98 -122t-108 -39zM398 452l-347 -206l15 50l347 206z" />
    <glyph glyph-name="eng" unicode="&#x14b;" horiz-adv-x="528" 
d="M42 -256l-5 9q33 23 62 43.5t51 37.5q19 15 32.5 34t24.5 42.5t22 52t27 62.5l162 351q17 37 24.5 59.5t7.5 34.5t-6 16t-15 4q-15 0 -34 -13.5t-39.5 -36t-42 -52.5t-41.5 -62q-29 -46 -56.5 -94.5t-51 -92t-40.5 -78t-24 -52.5l-100 -19l161 413l-78 45l2 4l208 59
l-149 -381h2q15 27 31 56.5t32.5 58t33 55.5t30.5 49q23 36 45 66t44.5 51t46.5 33t50 12q57 0 66.5 -42t-25.5 -117l-142 -307q-18 -39 -31 -67t-24.5 -48t-24 -33.5t-30.5 -24.5z" />
    <glyph glyph-name="nacute" unicode="&#x144;" horiz-adv-x="561" 
d="M317 -13q-42 0 -47 29.5t21 85.5l127 274q17 37 24.5 59.5t7.5 34.5t-6 16t-15 4q-16 0 -35 -13.5t-39 -36t-41.5 -52.5t-41.5 -62q-29 -46 -56.5 -94.5t-51 -92t-40.5 -78t-24 -52.5l-100 -19l161 413l-78 45l2 4l208 59l-149 -381h2q15 27 31 56.5t32.5 58t33 55.5
t30.5 49q46 72 91 117t95 45q57 0 66.5 -42t-25.5 -117l-121 -261q-17 -37 -19 -57.5t12 -20.5q22 0 61 36t80 105l10 -6q-50 -83 -98 -122t-108 -39zM498 758h129l-1 -3l-234 -176h-11z" />
    <glyph glyph-name="ncaron" unicode="&#x148;" horiz-adv-x="561" 
d="M317 -13q-42 0 -47 29.5t21 85.5l127 274q17 37 24.5 59.5t7.5 34.5t-6 16t-15 4q-16 0 -35 -13.5t-39 -36t-41.5 -52.5t-41.5 -62q-29 -46 -56.5 -94.5t-51 -92t-40.5 -78t-24 -52.5l-100 -19l161 413l-78 45l2 4l208 59l-149 -381h2q15 27 31 56.5t32.5 58t33 55.5
t30.5 49q46 72 91 117t95 45q57 0 66.5 -42t-25.5 -117l-121 -261q-17 -37 -19 -57.5t12 -20.5q22 0 61 36t80 105l10 -6q-50 -83 -98 -122t-108 -39zM334 782h10l91 -109l209 109h14l-245 -203h-12z" />
    <glyph glyph-name="uni0146" unicode="&#x146;" horiz-adv-x="561" 
d="M317 -13q-42 0 -47 29.5t21 85.5l127 274q17 37 24.5 59.5t7.5 34.5t-6 16t-15 4q-16 0 -35 -13.5t-39 -36t-41.5 -52.5t-41.5 -62q-29 -46 -56.5 -94.5t-51 -92t-40.5 -78t-24 -52.5l-100 -19l161 413l-78 45l2 4l208 59l-149 -381h2q15 27 31 56.5t32.5 58t33 55.5
t30.5 49q46 72 91 117t95 45q57 0 66.5 -42t-25.5 -117l-121 -261q-17 -37 -19 -57.5t12 -20.5q22 0 61 36t80 105l10 -6q-50 -83 -98 -122t-108 -39zM14 -364q69 30 105.5 66t36.5 80q0 30 -22 46t-54 20q2 27 22 44.5t50 17.5q32 0 57 -21.5t25 -63.5q0 -57 -54 -108
t-162 -91z" />
    <glyph glyph-name="oe" unicode="&#x153;" horiz-adv-x="748" 
d="M685 170q-35 -85 -90 -134t-136 -49q-45 0 -78 22.5t-46 71.5q-39 -44 -84.5 -69t-91.5 -25q-40 0 -66 14t-41.5 35.5t-21.5 48t-6 51.5q0 45 14.5 90.5t38 87t55 77.5t65.5 62.5t68.5 42t64.5 15.5t51 -9.5t34 -25t19.5 -35.5t8.5 -41q49 51 105 81t104 30
q43 0 70.5 -24t27.5 -59q0 -58 -60 -97l-228 -8q-15 -35 -23.5 -74t-8.5 -80q0 -67 21.5 -109.5t64.5 -42.5q45 0 86 42t73 115zM528 336q41 1 73 14.5t53.5 32.5t33 40t11.5 39q0 20 -13 30t-34 10q-25 0 -51 -12.5t-50.5 -35t-46.5 -53t-38 -67.5zM183 1q27 0 50.5 18.5
t43.5 49t35 69.5t26 80t16.5 81t5.5 72q0 66 -11 96t-43 30q-27 0 -50.5 -18.5t-43.5 -49t-35 -69.5t-26 -80t-16.5 -81t-5.5 -72q0 -66 11 -96t43 -30z" />
    <glyph glyph-name="obreve" unicode="&#x14f;" horiz-adv-x="488" 
d="M159 -13q-40 0 -66 14t-41.5 35.5t-21.5 48t-6 51.5q0 45 14.5 90.5t38 87t55 77.5t65.5 62.5t68.5 42t64.5 15.5q40 0 66 -14t41.5 -35.5t21.5 -48t6 -51.5q0 -45 -14.5 -90.5t-38 -87t-55 -77.5t-65.5 -62.5t-68.5 -42t-64.5 -15.5zM183 1q27 0 50.5 18.5t43.5 49
t35 69.5t26 80t16.5 81t5.5 72q0 66 -11 96t-43 30q-27 0 -50.5 -18.5t-43.5 -49t-35 -69.5t-26 -80t-16.5 -81t-5.5 -72q0 -66 11 -96t43 -30zM374 598q-24 0 -50.5 8t-47 26.5t-31 49t-2.5 76.5h52q-8 -60 15 -87t71 -27t85 28t47 86h53q-9 -48 -30.5 -79t-48.5 -49
t-57 -25t-56 -7z" />
    <glyph glyph-name="ohungarumlaut" unicode="&#x151;" horiz-adv-x="488" 
d="M159 -13q-40 0 -66 14t-41.5 35.5t-21.5 48t-6 51.5q0 45 14.5 90.5t38 87t55 77.5t65.5 62.5t68.5 42t64.5 15.5q40 0 66 -14t41.5 -35.5t21.5 -48t6 -51.5q0 -45 -14.5 -90.5t-38 -87t-55 -77.5t-65.5 -62.5t-68.5 -42t-64.5 -15.5zM183 1q27 0 50.5 18.5t43.5 49
t35 69.5t26 80t16.5 81t5.5 72q0 66 -11 96t-43 30q-27 0 -50.5 -18.5t-43.5 -49t-35 -69.5t-26 -80t-16.5 -81t-5.5 -72q0 -66 11 -96t43 -30zM365 758h129l-1 -3l-234 -176h-11zM543 758h129l-1 -3l-234 -176h-11z" />
    <glyph glyph-name="omacron" unicode="&#x14d;" horiz-adv-x="488" 
d="M159 -13q-40 0 -66 14t-41.5 35.5t-21.5 48t-6 51.5q0 45 14.5 90.5t38 87t55 77.5t65.5 62.5t68.5 42t64.5 15.5q40 0 66 -14t41.5 -35.5t21.5 -48t6 -51.5q0 -45 -14.5 -90.5t-38 -87t-55 -77.5t-65.5 -62.5t-68.5 -42t-64.5 -15.5zM183 1q27 0 50.5 18.5t43.5 49
t35 69.5t26 80t16.5 81t5.5 72q0 66 -11 96t-43 30q-27 0 -50.5 -18.5t-43.5 -49t-35 -69.5t-26 -80t-16.5 -81t-5.5 -72q0 -66 11 -96t43 -30zM239 705h310l-21 -61h-310z" />
    <glyph glyph-name="uni1ECD" unicode="&#x1ecd;" horiz-adv-x="488" 
d="M159 -13q-40 0 -66 14t-41.5 35.5t-21.5 48t-6 51.5q0 45 14.5 90.5t38 87t55 77.5t65.5 62.5t68.5 42t64.5 15.5q40 0 66 -14t41.5 -35.5t21.5 -48t6 -51.5q0 -45 -14.5 -90.5t-38 -87t-55 -77.5t-65.5 -62.5t-68.5 -42t-64.5 -15.5zM183 1q27 0 50.5 18.5t43.5 49
t35 69.5t26 80t16.5 81t5.5 72q0 66 -11 96t-43 30q-27 0 -50.5 -18.5t-43.5 -49t-35 -69.5t-26 -80t-16.5 -81t-5.5 -72q0 -66 11 -96t43 -30zM110 -230q-29 0 -47 18t-18 44q0 28 18 46t47 18q27 0 45 -18t18 -46q0 -26 -18 -44t-45 -18z" />
    <glyph glyph-name="racute" unicode="&#x155;" horiz-adv-x="402" 
d="M161 403l-78 45l2 4l207 59l-160 -378h3q13 28 30 63.5t35 70.5t34 65t27 48q23 38 41 63t34 39.5t31 20.5t32 6q26 0 41 -15t15 -36q0 -29 -19.5 -51t-48.5 -22l-43 89q-23 -21 -54.5 -70t-67.5 -118q-30 -59 -62.5 -128t-60.5 -149l-99 -19zM439 758h129l-1 -3
l-234 -176h-11z" />
    <glyph glyph-name="rcaron" unicode="&#x159;" horiz-adv-x="402" 
d="M161 403l-78 45l2 4l207 59l-160 -378h3q13 28 30 63.5t35 70.5t34 65t27 48q23 38 41 63t34 39.5t31 20.5t32 6q26 0 41 -15t15 -36q0 -29 -19.5 -51t-48.5 -22l-43 89q-23 -21 -54.5 -70t-67.5 -118q-30 -59 -62.5 -128t-60.5 -149l-99 -19zM275 782h10l91 -109
l209 109h14l-245 -203h-12z" />
    <glyph glyph-name="uni0157" unicode="&#x157;" horiz-adv-x="402" 
d="M161 403l-78 45l2 4l207 59l-160 -378h3q13 28 30 63.5t35 70.5t34 65t27 48q23 38 41 63t34 39.5t31 20.5t32 6q26 0 41 -15t15 -36q0 -29 -19.5 -51t-48.5 -22l-43 89q-23 -21 -54.5 -70t-67.5 -118q-30 -59 -62.5 -128t-60.5 -149l-99 -19zM-115 -364q69 30 105.5 66
t36.5 80q0 30 -22 46t-54 20q2 27 22 44.5t50 17.5q32 0 57 -21.5t25 -63.5q0 -57 -54 -108t-162 -91z" />
    <glyph glyph-name="sacute" unicode="&#x15b;" horiz-adv-x="376" 
d="M102 -13q-24 0 -44 7.5t-34 20t-21.5 28t-7.5 31.5q0 28 23.5 43t54.5 12l37 -131q13 0 32 5t36.5 15.5t30 27.5t12.5 42q0 19 -9.5 43t-33.5 57l-42 58q-20 28 -29 52.5t-9 48.5q0 34 16 63.5t42.5 52t60 35.5t69.5 13q42 0 67.5 -20t25.5 -51q0 -26 -18 -43.5
t-56 -15.5l-30 118q-18 0 -37.5 -5t-36 -15t-27 -25t-10.5 -35q0 -17 11 -42.5t31 -52.5l42 -58q40 -55 40 -109q0 -39 -18 -70t-45.5 -53.5t-60.5 -34.5t-62 -12zM372 758h129l-1 -3l-234 -176h-11z" />
    <glyph glyph-name="scaron" unicode="&#x161;" horiz-adv-x="376" 
d="M102 -13q-24 0 -44 7.5t-34 20t-21.5 28t-7.5 31.5q0 28 23.5 43t54.5 12l37 -131q13 0 32 5t36.5 15.5t30 27.5t12.5 42q0 19 -9.5 43t-33.5 57l-42 58q-20 28 -29 52.5t-9 48.5q0 34 16 63.5t42.5 52t60 35.5t69.5 13q42 0 67.5 -20t25.5 -51q0 -26 -18 -43.5
t-56 -15.5l-30 118q-18 0 -37.5 -5t-36 -15t-27 -25t-10.5 -35q0 -17 11 -42.5t31 -52.5l42 -58q40 -55 40 -109q0 -39 -18 -70t-45.5 -53.5t-60.5 -34.5t-62 -12zM208 782h10l91 -109l209 109h14l-245 -203h-12z" />
    <glyph glyph-name="scedilla" unicode="&#x15f;" horiz-adv-x="376" 
d="M102 -13q-24 0 -44 7.5t-34 20t-21.5 28t-7.5 31.5q0 28 23.5 43t54.5 12l37 -131q13 0 32 5t36.5 15.5t30 27.5t12.5 42q0 19 -9.5 43t-33.5 57l-42 58q-20 28 -29 52.5t-9 48.5q0 34 16 63.5t42.5 52t60 35.5t69.5 13q42 0 67.5 -20t25.5 -51q0 -26 -18 -43.5
t-56 -15.5l-30 118q-18 0 -37.5 -5t-36 -15t-27 -25t-10.5 -35q0 -17 11 -42.5t31 -52.5l42 -58q40 -55 40 -109q0 -39 -18 -70t-45.5 -53.5t-60.5 -34.5t-62 -12zM21 -269q-21 0 -40.5 4t-34.5 11.5t-23.5 18t-8.5 22.5q0 11 6 18.5t15 10.5t18.5 2t17.5 -7l38 -57
q4 -6 6.5 -10t10.5 -4q12 0 24.5 2.5t22.5 7.5t16.5 13.5t6.5 19.5q0 27 -30 50t-72 40l154 127h16l-101 -83q45 -21 63 -43t18 -48q0 -19 -10.5 -36t-28 -30t-39.5 -21t-45 -8z" />
    <glyph glyph-name="scircumflex" unicode="&#x15d;" horiz-adv-x="376" 
d="M102 -13q-24 0 -44 7.5t-34 20t-21.5 28t-7.5 31.5q0 28 23.5 43t54.5 12l37 -131q13 0 32 5t36.5 15.5t30 27.5t12.5 42q0 19 -9.5 43t-33.5 57l-42 58q-20 28 -29 52.5t-9 48.5q0 34 16 63.5t42.5 52t60 35.5t69.5 13q42 0 67.5 -20t25.5 -51q0 -26 -18 -43.5
t-56 -15.5l-30 118q-18 0 -37.5 -5t-36 -15t-27 -25t-10.5 -35q0 -17 11 -42.5t31 -52.5l42 -58q40 -55 40 -109q0 -39 -18 -70t-45.5 -53.5t-60.5 -34.5t-62 -12zM381 782h12l67 -203h-10l-91 109l-209 -109h-14z" />
    <glyph glyph-name="uni0219" unicode="&#x219;" horiz-adv-x="376" 
d="M102 -13q-24 0 -44 7.5t-34 20t-21.5 28t-7.5 31.5q0 28 23.5 43t54.5 12l37 -131q13 0 32 5t36.5 15.5t30 27.5t12.5 42q0 19 -9.5 43t-33.5 57l-42 58q-20 28 -29 52.5t-9 48.5q0 34 16 63.5t42.5 52t60 35.5t69.5 13q42 0 67.5 -20t25.5 -51q0 -26 -18 -43.5
t-56 -15.5l-30 118q-18 0 -37.5 -5t-36 -15t-27 -25t-10.5 -35q0 -17 11 -42.5t31 -52.5l42 -58q40 -55 40 -109q0 -39 -18 -70t-45.5 -53.5t-60.5 -34.5t-62 -12zM-56 -364q69 30 105.5 66t36.5 80q0 30 -22 46t-54 20q2 27 22 44.5t50 17.5q32 0 57 -21.5t25 -63.5
q0 -57 -54 -108t-162 -91z" />
    <glyph glyph-name="tbar" unicode="&#x167;" horiz-adv-x="417" 
d="M97 -13q-42 0 -46 28.5t21 85.5l150 345h-116l23 56h118l50 116h85l-49 -116h145l-23 -56h-146l-150 -355q-16 -38 -18.5 -58t11.5 -20q22 0 61 36t80 105l10 -6q-50 -83 -98 -122t-108 -39zM73 370h349l-15 -35h-349z" />
    <glyph glyph-name="tcaron" unicode="&#x165;" horiz-adv-x="366" 
d="M69 -13q-42 0 -46 28.5t21 85.5l150 345h-116l23 56h118l50 116h85l-49 -116h145l-23 -56h-146l-150 -355q-16 -38 -18.5 -58t11.5 -20q22 0 61 36t80 105l10 -6q-50 -83 -98 -122t-108 -39zM404 547q68 30 105 66t37 80q0 30 -22 46t-54 20q2 27 22 44.5t50 17.5
q32 0 57 -21.5t25 -63.5q0 -57 -54 -108t-162 -91z" />
    <glyph glyph-name="uni0163" unicode="&#x163;" horiz-adv-x="366" 
d="M69 -13q-42 0 -46 28.5t21 85.5l150 345h-116l23 56h118l50 116h85l-49 -116h145l-23 -56h-146l-150 -355q-16 -38 -18.5 -58t11.5 -20q22 0 61 36t80 105l10 -6q-50 -83 -98 -122t-108 -39zM-105 -364q69 30 105.5 66t36.5 80q0 30 -22 46t-54 20q2 27 22 44.5t50 17.5
q32 0 57 -21.5t25 -63.5q0 -57 -54 -108t-162 -91z" />
    <glyph glyph-name="uni021B" unicode="&#x21b;" horiz-adv-x="366" 
d="M69 -13q-42 0 -46 28.5t21 85.5l150 345h-116l23 56h118l50 116h85l-49 -116h145l-23 -56h-146l-150 -355q-16 -38 -18.5 -58t11.5 -20q22 0 61 36t80 105l10 -6q-50 -83 -98 -122t-108 -39zM-105 -364q69 30 105.5 66t36.5 80q0 30 -22 46t-54 20q2 27 22 44.5t50 17.5
q32 0 57 -21.5t25 -63.5q0 -57 -54 -108t-162 -91z" />
    <glyph glyph-name="ubreve" unicode="&#x16d;" horiz-adv-x="557" 
d="M400 368h-2q-15 -27 -31 -56.5t-32.5 -58t-33 -55.5t-30.5 -49q-23 -36 -45.5 -66t-45 -51t-46 -33t-49.5 -12q-57 0 -65 41.5t24 117.5l138 336l-86 -16l4 11l186 35l-160 -390q-15 -38 -22 -60.5t-7.5 -34.5t4.5 -15.5t14 -3.5q15 0 34 13.5t40 36t42 52t41 62.5
q28 46 56 94.5t51.5 92.5t40.5 79t25 55l101 19l-165 -421q-15 -38 -17.5 -58t11.5 -20q22 0 61 36t80 105l10 -6q-50 -83 -98 -122t-108 -39q-42 0 -45 28t20 85zM401 598q-24 0 -50.5 8t-47 26.5t-31 49t-2.5 76.5h52q-8 -60 15 -87t71 -27t85 28t47 86h53
q-9 -48 -30.5 -79t-48.5 -49t-57 -25t-56 -7z" />
    <glyph glyph-name="uhungarumlaut" unicode="&#x171;" horiz-adv-x="557" 
d="M400 368h-2q-15 -27 -31 -56.5t-32.5 -58t-33 -55.5t-30.5 -49q-23 -36 -45.5 -66t-45 -51t-46 -33t-49.5 -12q-57 0 -65 41.5t24 117.5l138 336l-86 -16l4 11l186 35l-160 -390q-15 -38 -22 -60.5t-7.5 -34.5t4.5 -15.5t14 -3.5q15 0 34 13.5t40 36t42 52t41 62.5
q28 46 56 94.5t51.5 92.5t40.5 79t25 55l101 19l-165 -421q-15 -38 -17.5 -58t11.5 -20q22 0 61 36t80 105l10 -6q-50 -83 -98 -122t-108 -39q-42 0 -45 28t20 85zM392 758h129l-1 -3l-234 -176h-11zM570 758h129l-1 -3l-234 -176h-11z" />
    <glyph glyph-name="umacron" unicode="&#x16b;" horiz-adv-x="557" 
d="M400 368h-2q-15 -27 -31 -56.5t-32.5 -58t-33 -55.5t-30.5 -49q-23 -36 -45.5 -66t-45 -51t-46 -33t-49.5 -12q-57 0 -65 41.5t24 117.5l138 336l-86 -16l4 11l186 35l-160 -390q-15 -38 -22 -60.5t-7.5 -34.5t4.5 -15.5t14 -3.5q15 0 34 13.5t40 36t42 52t41 62.5
q28 46 56 94.5t51.5 92.5t40.5 79t25 55l101 19l-165 -421q-15 -38 -17.5 -58t11.5 -20q22 0 61 36t80 105l10 -6q-50 -83 -98 -122t-108 -39q-42 0 -45 28t20 85zM266 705h310l-21 -61h-310z" />
    <glyph glyph-name="uogonek" unicode="&#x173;" horiz-adv-x="557" 
d="M400 368h-2q-15 -27 -31 -56.5t-32.5 -58t-33 -55.5t-30.5 -49q-23 -36 -45.5 -66t-45 -51t-46 -33t-49.5 -12q-57 0 -65 41.5t24 117.5l138 336l-86 -16l4 11l186 35l-160 -390q-15 -38 -22 -60.5t-7.5 -34.5t4.5 -15.5t14 -3.5q15 0 34 13.5t40 36t42 52t41 62.5
q28 46 56 94.5t51.5 92.5t40.5 79t25 55l101 19l-165 -421q-15 -38 -17.5 -58t11.5 -20q22 0 61 36t80 105l10 -6q-38 -63 -74.5 -100.5t-78.5 -51.5q-22 -16 -42.5 -33t-36 -35t-24.5 -36t-9 -36q0 -44 46 -44q16 0 31 6t29 14l6 -8q-24 -23 -53.5 -40.5t-61.5 -17.5
q-38 0 -59 18.5t-21 51.5q0 24 13.5 46t36 41t50 35t56.5 30q-4 -1 -7.5 -1h-6.5q-42 0 -45 28t20 85z" />
    <glyph glyph-name="uring" unicode="&#x16f;" horiz-adv-x="557" 
d="M400 368h-2q-15 -27 -31 -56.5t-32.5 -58t-33 -55.5t-30.5 -49q-23 -36 -45.5 -66t-45 -51t-46 -33t-49.5 -12q-57 0 -65 41.5t24 117.5l138 336l-86 -16l4 11l186 35l-160 -390q-15 -38 -22 -60.5t-7.5 -34.5t4.5 -15.5t14 -3.5q15 0 34 13.5t40 36t42 52t41 62.5
q28 46 56 94.5t51.5 92.5t40.5 79t25 55l101 19l-165 -421q-15 -38 -17.5 -58t11.5 -20q22 0 61 36t80 105l10 -6q-50 -83 -98 -122t-108 -39q-42 0 -45 28t20 85zM313 702q0 22 8.5 40.5t23 32.5t34 22t42.5 8q22 0 41.5 -8t34 -22t23 -32.5t8.5 -40.5t-8.5 -41t-23 -33
t-34 -22t-41.5 -8q-23 0 -42.5 8t-34 22t-23 33t-8.5 41zM482 702q0 27 -16.5 45t-44.5 18q-29 0 -45.5 -18t-16.5 -45q0 -28 16.5 -45.5t45.5 -17.5q28 0 44.5 17.5t16.5 45.5z" />
    <glyph glyph-name="utilde" unicode="&#x169;" horiz-adv-x="557" 
d="M400 368h-2q-15 -27 -31 -56.5t-32.5 -58t-33 -55.5t-30.5 -49q-23 -36 -45.5 -66t-45 -51t-46 -33t-49.5 -12q-57 0 -65 41.5t24 117.5l138 336l-86 -16l4 11l186 35l-160 -390q-15 -38 -22 -60.5t-7.5 -34.5t4.5 -15.5t14 -3.5q15 0 34 13.5t40 36t42 52t41 62.5
q28 46 56 94.5t51.5 92.5t40.5 79t25 55l101 19l-165 -421q-15 -38 -17.5 -58t11.5 -20q22 0 61 36t80 105l10 -6q-50 -83 -98 -122t-108 -39q-42 0 -45 28t20 85zM231 618q5 63 36 102.5t85 39.5q21 0 41 -10t39.5 -21.5t39 -21.5t39.5 -10q30 0 47.5 14t28.5 46h11
q-8 -41 -19 -67t-26 -42t-33 -22t-38 -6q-25 0 -45.5 10t-39 21.5t-37 21.5t-39.5 10q-29 0 -50.5 -16t-28.5 -49h-11z" />
    <glyph glyph-name="uni1EE5" unicode="&#x1ee5;" horiz-adv-x="557" 
d="M400 368h-2q-15 -27 -31 -56.5t-32.5 -58t-33 -55.5t-30.5 -49q-23 -36 -45.5 -66t-45 -51t-46 -33t-49.5 -12q-57 0 -65 41.5t24 117.5l138 336l-86 -16l4 11l186 35l-160 -390q-15 -38 -22 -60.5t-7.5 -34.5t4.5 -15.5t14 -3.5q15 0 34 13.5t40 36t42 52t41 62.5
q28 46 56 94.5t51.5 92.5t40.5 79t25 55l101 19l-165 -421q-15 -38 -17.5 -58t11.5 -20q22 0 61 36t80 105l10 -6q-50 -83 -98 -122t-108 -39q-42 0 -45 28t20 85zM120 -231q-29 0 -47 18t-18 44q0 28 18 46t47 18q27 0 45 -18t18 -46q0 -26 -18 -44t-45 -18z" />
    <glyph glyph-name="wacute" unicode="&#x1e83;" horiz-adv-x="786" 
d="M164 -13q-44 0 -66.5 25.5t-22.5 69.5q0 48 22 96.5t55.5 93t72.5 82.5t73 64h-211l-60 -102h-10l101 186h257q-33 -39 -70 -82.5t-69 -88.5t-53 -89t-21 -84q0 -24 7 -40.5t17.5 -26t24 -14t26.5 -4.5q26 0 51.5 8t51.5 26q-2 14 -3.5 29.5t-1.5 31.5q0 60 19 121.5
t48.5 110.5t64 80t64.5 31q26 0 38.5 -16t12.5 -45q0 -44 -32 -110t-100 -145l-53 -60q17 -28 44 -45t62 -17q34 0 68.5 16.5t66 49.5t58 83t43.5 116l-96 123q5 26 22 38t34 12q23 0 42 -20t19 -61q0 -31 -8.5 -75.5t-25.5 -94t-41.5 -98.5t-56.5 -87.5t-72 -63t-86 -24.5
q-51 0 -81 27t-43 70q-45 -42 -91 -69.5t-91 -27.5zM367 249q0 -58 23 -102q27 24 56 59q56 66 78 112t22 69q0 25 -13 37.5t-36 12.5t-46 -12.5t-41.5 -36.5t-30.5 -59t-12 -80zM617 758h129l-1 -3l-234 -176h-11z" />
    <glyph glyph-name="wcircumflex" unicode="&#x175;" horiz-adv-x="786" 
d="M164 -13q-44 0 -66.5 25.5t-22.5 69.5q0 48 22 96.5t55.5 93t72.5 82.5t73 64h-211l-60 -102h-10l101 186h257q-33 -39 -70 -82.5t-69 -88.5t-53 -89t-21 -84q0 -24 7 -40.5t17.5 -26t24 -14t26.5 -4.5q26 0 51.5 8t51.5 26q-2 14 -3.5 29.5t-1.5 31.5q0 60 19 121.5
t48.5 110.5t64 80t64.5 31q26 0 38.5 -16t12.5 -45q0 -44 -32 -110t-100 -145l-53 -60q17 -28 44 -45t62 -17q34 0 68.5 16.5t66 49.5t58 83t43.5 116l-96 123q5 26 22 38t34 12q23 0 42 -20t19 -61q0 -31 -8.5 -75.5t-25.5 -94t-41.5 -98.5t-56.5 -87.5t-72 -63t-86 -24.5
q-51 0 -81 27t-43 70q-45 -42 -91 -69.5t-91 -27.5zM367 249q0 -58 23 -102q27 24 56 59q56 66 78 112t22 69q0 25 -13 37.5t-36 12.5t-46 -12.5t-41.5 -36.5t-30.5 -59t-12 -80zM626 782h12l67 -203h-10l-91 109l-209 -109h-14z" />
    <glyph glyph-name="wdieresis" unicode="&#x1e85;" horiz-adv-x="786" 
d="M164 -13q-44 0 -66.5 25.5t-22.5 69.5q0 48 22 96.5t55.5 93t72.5 82.5t73 64h-211l-60 -102h-10l101 186h257q-33 -39 -70 -82.5t-69 -88.5t-53 -89t-21 -84q0 -24 7 -40.5t17.5 -26t24 -14t26.5 -4.5q26 0 51.5 8t51.5 26q-2 14 -3.5 29.5t-1.5 31.5q0 60 19 121.5
t48.5 110.5t64 80t64.5 31q26 0 38.5 -16t12.5 -45q0 -44 -32 -110t-100 -145l-53 -60q17 -28 44 -45t62 -17q34 0 68.5 16.5t66 49.5t58 83t43.5 116l-96 123q5 26 22 38t34 12q23 0 42 -20t19 -61q0 -31 -8.5 -75.5t-25.5 -94t-41.5 -98.5t-56.5 -87.5t-72 -63t-86 -24.5
q-51 0 -81 27t-43 70q-45 -42 -91 -69.5t-91 -27.5zM367 249q0 -58 23 -102q27 24 56 59q56 66 78 112t22 69q0 25 -13 37.5t-36 12.5t-46 -12.5t-41.5 -36.5t-30.5 -59t-12 -80zM464 624q-29 0 -47 18t-18 44q0 28 18 46t47 18q27 0 45 -18t18 -46q0 -26 -18 -44t-45 -18z
M700 624q-29 0 -47 18t-18 44q0 28 18 46t47 18q27 0 45 -18t18 -46q0 -26 -18 -44t-45 -18z" />
    <glyph glyph-name="wgrave" unicode="&#x1e81;" horiz-adv-x="786" 
d="M164 -13q-44 0 -66.5 25.5t-22.5 69.5q0 48 22 96.5t55.5 93t72.5 82.5t73 64h-211l-60 -102h-10l101 186h257q-33 -39 -70 -82.5t-69 -88.5t-53 -89t-21 -84q0 -24 7 -40.5t17.5 -26t24 -14t26.5 -4.5q26 0 51.5 8t51.5 26q-2 14 -3.5 29.5t-1.5 31.5q0 60 19 121.5
t48.5 110.5t64 80t64.5 31q26 0 38.5 -16t12.5 -45q0 -44 -32 -110t-100 -145l-53 -60q17 -28 44 -45t62 -17q34 0 68.5 16.5t66 49.5t58 83t43.5 116l-96 123q5 26 22 38t34 12q23 0 42 -20t19 -61q0 -31 -8.5 -75.5t-25.5 -94t-41.5 -98.5t-56.5 -87.5t-72 -63t-86 -24.5
q-51 0 -81 27t-43 70q-45 -42 -91 -69.5t-91 -27.5zM367 249q0 -58 23 -102q27 24 56 59q56 66 78 112t22 69q0 25 -13 37.5t-36 12.5t-46 -12.5t-41.5 -36.5t-30.5 -59t-12 -80zM547 579l-171 176v3h128l54 -179h-11z" />
    <glyph glyph-name="ycircumflex" unicode="&#x177;" horiz-adv-x="527" 
d="M15 -248h-106l236 268l-7 462l-86 -16l4 11l180 34l9 -476l246 312l-46 123q9 22 26 31.5t34 9.5q22 0 38 -14.5t16 -41.5q0 -19 -10 -42.5t-33 -52.5l-278 -352zM457 782h12l67 -203h-10l-91 109l-209 -109h-14z" />
    <glyph glyph-name="ygrave" unicode="&#x1ef3;" horiz-adv-x="527" 
d="M15 -248h-106l236 268l-7 462l-86 -16l4 11l180 34l9 -476l246 312l-46 123q9 22 26 31.5t34 9.5q22 0 38 -14.5t16 -41.5q0 -19 -10 -42.5t-33 -52.5l-278 -352zM378 579l-171 176v3h128l54 -179h-11z" />
    <glyph glyph-name="uni0233" unicode="&#x233;" horiz-adv-x="527" 
d="M15 -248h-106l236 268l-7 462l-86 -16l4 11l180 34l9 -476l246 312l-46 123q9 22 26 31.5t34 9.5q22 0 38 -14.5t16 -41.5q0 -19 -10 -42.5t-33 -52.5l-278 -352zM263 705h310l-21 -61h-310z" />
    <glyph glyph-name="zacute" unicode="&#x17a;" horiz-adv-x="496" 
d="M39 -11q-37 -5 -54 4.5t-17 30.5q0 16 17.5 32t49.5 42l391 320h-283l-60 -102h-10l101 186h370l-325 -266l45 -118q15 -41 25.5 -66t18.5 -39.5t15.5 -19.5t18.5 -5q17 0 33 11.5t25.5 34.5t9 57t-17.5 80l10 3q18 -50 18.5 -87.5t-11.5 -62.5t-34.5 -37.5t-50.5 -12.5
q-25 0 -46 7t-40.5 25t-39.5 50t-42 82l-15 34l-78 -64q-21 -17 -23.5 -45t-0.5 -74zM449 758h129l-1 -3l-234 -176h-11z" />
    <glyph glyph-name="zcaron" unicode="&#x17e;" horiz-adv-x="496" 
d="M39 -11q-37 -5 -54 4.5t-17 30.5q0 16 17.5 32t49.5 42l391 320h-283l-60 -102h-10l101 186h370l-325 -266l45 -118q15 -41 25.5 -66t18.5 -39.5t15.5 -19.5t18.5 -5q17 0 33 11.5t25.5 34.5t9 57t-17.5 80l10 3q18 -50 18.5 -87.5t-11.5 -62.5t-34.5 -37.5t-50.5 -12.5
q-25 0 -46 7t-40.5 25t-39.5 50t-42 82l-15 34l-78 -64q-21 -17 -23.5 -45t-0.5 -74zM285 782h10l91 -109l209 109h14l-245 -203h-12z" />
    <glyph glyph-name="zdotaccent" unicode="&#x17c;" horiz-adv-x="496" 
d="M39 -11q-37 -5 -54 4.5t-17 30.5q0 16 17.5 32t49.5 42l391 320h-283l-60 -102h-10l101 186h370l-325 -266l45 -118q15 -41 25.5 -66t18.5 -39.5t15.5 -19.5t18.5 -5q17 0 33 11.5t25.5 34.5t9 57t-17.5 80l10 3q18 -50 18.5 -87.5t-11.5 -62.5t-34.5 -37.5t-50.5 -12.5
q-25 0 -46 7t-40.5 25t-39.5 50t-42 82l-15 34l-78 -64q-21 -17 -23.5 -45t-0.5 -74zM414 624q-29 0 -47 18t-18 44q0 28 18 46t47 18q27 0 45 -18t18 -46q0 -26 -18 -44t-45 -18z" />
    <glyph glyph-name="uni0259" unicode="&#x259;" horiz-adv-x="448" 
d="M291.982 510.969q27.998 0 51.9961 -8.99902q23.999 -9 41.498 -26.999t27.498 -46.4971q10 -28.498 10 -67.4961q0 -49.9961 -15.499 -97.4932q-15.499 -47.498 -40.498 -88.9951q-24.998 -41.4971 -58.4961 -75.9951t-69.4961 -59.4961
q-35.998 -24.999 -71.9951 -38.498q-35.998 -13.499 -67.9961 -13.499q-42.998 0 -70.4961 23.998q-27.498 23.999 -27.498 58.9971q0 57.9961 59.9961 96.9941l227.986 7.99902q14.999 34.998 23.498 73.9951q8.5 38.998 8.5 79.9951q0 66.9961 -21.499 109.494
q-21.498 42.4971 -64.4961 42.4971q-44.9971 0 -85.9941 -41.9971q-40.998 -41.998 -72.9961 -114.993l-9.99902 4q34.998 84.9941 89.9941 133.991q54.9971 48.9971 135.992 48.9971zM98.9941 -4q24.998 0 50.9971 12.499q25.998 12.5 50.4961 34.998
q24.499 22.499 46.498 52.9971q21.998 30.498 37.9971 67.4961l-61.9961 -2q-40.9971 -1 -72.9951 -14.499t-53.4971 -32.498t-32.998 -39.998q-11.499 -20.998 -11.499 -38.9971q0 -19.999 12.999 -29.998q12.999 -10 33.998 -10z" />
    <glyph glyph-name="uni0410" unicode="&#x410;" horiz-adv-x="793" 
d="M-136 10h99l840 787h7l-241 -787h99l-3 -10h-302l3 10h99l84 275h-277l-293 -275h118l-3 -10h-233zM566 338l95 311l-332 -311h237z" />
    <glyph glyph-name="uni0411" unicode="&#x411;" horiz-adv-x="733" 
d="M401 748l-103 -335h118q140 0 211 -36t71 -121q0 -70 -34.5 -119t-90.5 -79.5t-126 -44t-141 -13.5h-338l4 10h99l226 738h-99l4 10h559l-31 -234h-6l-66 206q-5 11 -11.5 14.5t-23.5 3.5h-222zM581 255q0 36 -7 64t-26 46.5t-51.5 28t-84.5 9.5h-117l-120 -393h135
q50 0 98.5 14t87 44t62 76.5t23.5 110.5z" />
    <glyph glyph-name="uni0412" unicode="&#x412;" horiz-adv-x="729" 
d="M500 758q114 0 174 -35t60 -99q0 -85 -70.5 -143.5t-201.5 -79.5l-1 -1q42 -2 81 -12t68.5 -28t47 -45.5t17.5 -63.5q0 -41 -19.5 -85.5t-65 -81.5t-119 -60.5t-181.5 -23.5h-322l3 10h99l226 738h-99l3 10h300zM396 403q55 0 98.5 21.5t72.5 55.5t44.5 76.5t15.5 83.5
q0 51 -31 79.5t-94 28.5h-102l-106 -345h102zM293 10q69 0 119.5 24.5t83.5 62.5t49 85t16 91q0 57 -36.5 88.5t-114.5 31.5h-119l-117 -383h119z" />
    <glyph glyph-name="uni0413" unicode="&#x413;" horiz-adv-x="660" 
d="M-29 10h99l227 738h-99l3 10h559l-31 -234h-6l-66 206q-5 11 -11 14.5t-23 3.5h-222l-227 -738h125l-3 -10h-328z" />
    <glyph glyph-name="uni0414" unicode="&#x414;" horiz-adv-x="801" 
d="M-42 10h99q54 63 101 145t89 177.5t79.5 200.5t72.5 215h-99l3 10h609l-3 -10h-99l-227 -738h98l-61 -234h-6l-37 206q-2 13 -9 15.5t-24 2.5h-455q-17 0 -25.5 -2.5t-19.5 -15.5l-163 -206h-6zM412 748q-36 -111 -74 -216.5t-79.5 -200.5t-87.5 -176.5t-99 -144.5h407
l227 738h-294z" />
    <glyph glyph-name="uni0415" unicode="&#x415;" horiz-adv-x="750" 
d="M-29 10h99l226 738h-99l3 10h539l-27 -234h-6l-67 206q-4 11 -10 14.5t-23 3.5h-206l-109 -355h147q8 0 12.5 2t12.5 13l94 123h6l-87 -286h-6l-19 123q-2 11 -5 13t-11 2h-147l-114 -373h272q16 0 25.5 4t20.5 14l226 216h7l-146 -244h-611z" />
    <glyph glyph-name="uni0401" unicode="&#x401;" horiz-adv-x="750" 
d="M-29 10h99l226 738h-99l3 10h539l-27 -234h-6l-67 206q-4 11 -10 14.5t-23 3.5h-206l-109 -355h147q8 0 12.5 2t12.5 13l94 123h6l-87 -286h-6l-19 123q-2 11 -5 13t-11 2h-147l-114 -373h272q16 0 25.5 4t20.5 14l226 216h7l-146 -244h-611zM471 861q-29 0 -47 18
t-18 44q0 28 18 46t47 18q27 0 45 -18t18 -46q0 -26 -18 -44t-45 -18zM671 861q-29 0 -47 18t-18 44q0 28 18 46t47 18q27 0 45 -18t18 -46q0 -26 -18 -44t-45 -18z" />
    <glyph glyph-name="uni0416" unicode="&#x416;" horiz-adv-x="1201" 
d="M-66 0l516 398h148l-275 350h-115l3 10h245l-3 -10h-112l274 -350l108 350h-99l3 10h302l-3 -10h-99l-108 -350l490 350h-112l3 10h245l-3 -10h-116l-491 -350h125l272 -398h-142l-271 397l-119 -387h99l-3 -10h-302l3 10h99l119 387l-515 -397h-166z" />
    <glyph glyph-name="uni0417" unicode="&#x417;" horiz-adv-x="684" 
d="M254 -3q59 0 104.5 23.5t77 60.5t48 82t16.5 88q0 29 -8 54.5t-24 45t-40.5 31t-57.5 11.5h-88l3 10h88q52 0 91.5 23t66.5 59t40.5 79.5t13.5 83.5q0 25 -5.5 47.5t-17 39t-28.5 26t-39 9.5q-41 0 -77 -16t-73 -49t-76.5 -82.5t-86.5 -116.5h-6l135 270h6l23 -40
q29 20 72 31.5t86 11.5q51 0 87 -11t59 -29.5t34 -43.5t11 -53q0 -43 -18.5 -83t-51.5 -73t-79.5 -56t-103.5 -30v-1q87 -4 133 -47.5t46 -109.5q0 -47 -21.5 -93t-66 -82t-113.5 -58t-163 -22q-50 0 -93 14.5t-66 28.5l-48 -40h-6l35 283h6q10 -142 49.5 -209t125.5 -67z
" />
    <glyph glyph-name="uni0418" unicode="&#x418;" horiz-adv-x="875" 
d="M270 0h-302l3 10h99l227 738h-99l3 10h302l-3 -10h-99l-202 -656l569 618l12 38h-99l3 10h302l-3 -10h-99l-227 -738h99l-3 -10h-302l3 10h99l207 672l-570 -620l-16 -52h99z" />
    <glyph glyph-name="uni0419" unicode="&#x419;" horiz-adv-x="871" 
d="M272 0h-302l3 10h99l227 738h-99l3 10h302l-3 -10h-99l-202 -656l569 618l12 38h-99l3 10h302l-3 -10h-99l-227 -738h99l-3 -10h-302l3 10h99l207 672l-570 -620l-16 -52h99zM621 837q-86 0 -117 44.5t-11 115.5h86q-11 -36 -15.5 -63.5t-0.5 -47t17.5 -29.5t39.5 -10
q27 0 46 10t33.5 29.5t25.5 47t22 63.5h86q-24 -78 -81.5 -119t-130.5 -41z" />
    <glyph glyph-name="uni041A" unicode="&#x41a;" horiz-adv-x="806" 
d="M270 0h-302l3 10h99l226 738h-99l3 10h302l-3 -10h-99l-103 -337l515 337h-112l3 10h247l-3 -10h-114l-536 -350h110l328 -398h-131l-316 383l-114 -373h99z" />
    <glyph glyph-name="uni041B" unicode="&#x41b;" horiz-adv-x="828" 
d="M146 49q-28 -37 -54 -49.5t-53 -12.5q-22 0 -35.5 14.5t-13.5 37.5q0 13 6 25.5t19.5 23t36 17t56.5 6.5q33 0 60 -6q35 57 69.5 131t67 158t63 174t58.5 180h-99l3 10h609l-3 -10h-99l-227 -738h99l-3 -10h-302l3 10h99l227 738h-293q-39 -120 -77 -228t-75 -198
t-72.5 -159.5t-69.5 -113.5z" />
    <glyph glyph-name="uni041C" unicode="&#x41c;" horiz-adv-x="998" 
d="M-45 10h97l224 612l-40 136h110l156 -528l393 528h185l-3 -10h-99l-182 -738h99l-3 -10h-302l3 10h99l168 683l-429 -576h-5l-144 487l-218 -594h96l-3 -10h-205z" />
    <glyph glyph-name="uni041D" unicode="&#x41d;" horiz-adv-x="889" 
d="M270 0h-302l3 10h99l226 738h-99l3 10h302l-3 -10h-99l-101 -331h394l101 331h-99l3 10h302l-3 -10h-99l-226 -738h99l-3 -10h-302l3 10h99l108 354h-394l-108 -354h99z" />
    <glyph glyph-name="uni041E" unicode="&#x41e;" horiz-adv-x="845" 
d="M569 779q58 0 109 -18t89 -53.5t60.5 -87.5t22.5 -120q0 -56 -16.5 -115.5t-47 -116.5t-74.5 -108t-98.5 -89.5t-119 -61t-136.5 -22.5q-58 0 -109 18t-89.5 53.5t-60.5 87.5t-22 120q0 56 16.5 115.5t47 116.5t74.5 108t98.5 89.5t119 61t136.5 22.5zM559 769
q-71 0 -135.5 -42.5t-114 -115.5t-79 -171t-29.5 -209q0 -65 13 -109.5t35.5 -72t53 -40t65.5 -12.5q71 0 135.5 42.5t114 115.5t79 171t29.5 209q0 64 -13 109t-35.5 72.5t-53 40t-65.5 12.5z" />
    <glyph glyph-name="uni041F" unicode="&#x41f;" horiz-adv-x="880" 
d="M785 748h-384l-227 -738h99l-3 -10h-302l3 10h99l227 738h-99l3 10h790l-3 -10h-99l-227 -738h99l-3 -10h-302l3 10h99z" />
    <glyph glyph-name="uni0420" unicode="&#x420;" horiz-adv-x="717" 
d="M-29 10h99l226 738h-99l3 10h352q49 0 94.5 -7t79.5 -23.5t54.5 -44.5t20.5 -69q0 -53 -27 -100t-75 -82t-113 -55t-140 -20h-133l3 10h131q57 0 102 23.5t75.5 60t47 81.5t16.5 87q0 62 -33.5 95.5t-103.5 33.5h-151l-226 -738h119l-3 -10h-322z" />
    <glyph glyph-name="uni0421" unicode="&#x421;" horiz-adv-x="814" 
d="M389 -13q-60 0 -115.5 18t-97.5 55.5t-67 95t-25 137.5q0 97 42 185.5t112.5 155t163 106t193.5 39.5q60 0 109.5 -15t78.5 -42l65 54h6l-51 -308h-6q3 85 -10.5 143t-40.5 93t-66 50.5t-88 15.5q-91 0 -162.5 -42.5t-121 -113.5t-76 -164.5t-26.5 -196.5
q0 -57 12 -104.5t36 -81t59 -52t81 -18.5q49 0 94.5 15.5t91.5 51t94.5 93t104.5 141.5h6l-161 -308h-6l-26 50q-50 -34 -101 -43.5t-102 -9.5z" />
    <glyph glyph-name="uni0422" unicode="&#x422;" horiz-adv-x="775" 
d="M154 10h109l225 738h-186q-8 0 -12.5 -0.5t-7.5 -2t-6.5 -5.5t-8.5 -11l-161 -223h-6l122 299h6l61 -47h510l89 47h6l-62 -299h-6l-21 223q-2 14 -5.5 16.5t-19.5 2.5h-188l-225 -738h109l-3 -10h-322z" />
    <glyph glyph-name="uni0423" unicode="&#x423;" horiz-adv-x="720" 
d="M271 73q-21 -26 -38.5 -43t-33.5 -26.5t-32 -13t-33 -3.5q-28 0 -42.5 14t-6.5 37q4 15 16.5 28.5t35.5 22.5t58.5 13t86.5 1l58 73l-124 572h-83l3 10h286l-3 -10h-93l97 -464h3l369 464h-92l3 10h188l-3 -10h-83z" />
    <glyph glyph-name="uni0424" unicode="&#x424;" horiz-adv-x="1003" 
d="M562 -20h-302l3 10h99l30 97q-73 2 -133.5 18.5t-104 47t-67.5 74.5t-24 102q0 75 41.5 138t112 109.5t163 73.5t194.5 29l27 89h-99l3 10h302l-3 -10h-99l-27 -89q73 -2 133.5 -18.5t104 -47t67.5 -74.5t24 -102q0 -75 -41.5 -138.5t-112 -109.5t-163 -73t-194.5 -29
l-30 -97h99zM181 329q0 -110 58.5 -166.5t156.5 -63.5l174 569q-91 0 -163 -27.5t-122.5 -74t-77 -108t-26.5 -129.5zM889 437q0 55 -15 96.5t-43 70t-68 44t-89 19.5l-175 -569q91 0 163.5 27.5t123 74t77 108t26.5 129.5z" />
    <glyph glyph-name="uni0425" unicode="&#x425;" horiz-adv-x="848" 
d="M106 0h-210l5 10h93l442 359l-81 379h-93l5 10h291l-5 -10h-93l66 -306l376 306h-95l5 10h210l-5 -10h-98l-391 -318l90 -420h93l-5 -10h-291l5 10h93l-74 348l-428 -348h100z" />
    <glyph glyph-name="uni0426" unicode="&#x426;" horiz-adv-x="880" 
d="M662 10h98l-61 -234h-6l-37 206q-2 13 -9 15.5t-24 2.5h-655l3 10h99l227 738h-99l3 10h302l-3 -10h-99l-227 -738h384l227 738h-99l3 10h302l-3 -10h-99z" />
    <glyph glyph-name="uni0427" unicode="&#x427;" horiz-adv-x="812" 
d="M259 748h-99l3 10h302l-3 -10h-99l-57 -186q-20 -63 -20.5 -106t16 -69.5t50.5 -37.5t84 -11q23 0 66.5 6.5t99.5 29.5l115 374h-99l3 10h302l-3 -10h-99l-227 -738h99l-3 -10h-302l3 10h99l109 354q-54 -21 -101 -28.5t-88 -7.5q-70 0 -118 13.5t-73.5 44t-28 80
t19.5 121.5z" />
    <glyph glyph-name="uni0428" unicode="&#x428;" horiz-adv-x="1220" 
d="M-32 0l3 10h99l227 738h-99l3 10h302l-3 -10h-99l-227 -738h310l227 738h-99l3 10h302l-3 -10h-99l-227 -738h310l227 738h-99l3 10h302l-3 -10h-99l-227 -738h99l-3 -10h-1130z" />
    <glyph glyph-name="uni0429" unicode="&#x429;" horiz-adv-x="1220" 
d="M1002 10h98l-61 -234h-6l-37 206q-2 13 -9 15.5t-24 2.5h-995l3 10h99l227 738h-99l3 10h302l-3 -10h-99l-227 -738h310l227 738h-99l3 10h302l-3 -10h-99l-227 -738h310l227 738h-99l3 10h302l-3 -10h-99z" />
    <glyph glyph-name="uni042A" unicode="&#x42a;" horiz-adv-x="879" 
d="M447 423h113q140 0 212 -40.5t72 -126.5q0 -62 -29.5 -109.5t-82 -80t-124 -49.5t-156.5 -17h-338l3 10h99l227 738h-99q-17 0 -25 -3.5t-19 -14.5l-194 -206h-6l113 234h436l-3 -10h-99zM455 10q64 0 115 18.5t85.5 51.5t53 78.5t18.5 98.5q0 35 -9 64t-29.5 49.5
t-53.5 31.5t-81 11h-110l-124 -403h135z" />
    <glyph glyph-name="uni042B" unicode="&#x42b;" horiz-adv-x="1068" 
d="M303 423h113q140 0 212 -40.5t72 -126.5q0 -62 -29.5 -109.5t-82 -80t-124 -49.5t-156.5 -17h-338l3 10h99l227 738h-99l3 10h302l-3 -10h-99zM311 10q64 0 115 18.5t85.5 51.5t53 78.5t18.5 98.5q0 35 -9 64t-29.5 49.5t-53.5 31.5t-81 11h-110l-124 -403h135zM947 0
h-302l3 10h99l226 738h-99l3 10h302l-3 -10h-99l-226 -738h99z" />
    <glyph glyph-name="uni042C" unicode="&#x42c;" horiz-adv-x="733" 
d="M301 423h113q140 0 212 -40.5t72 -126.5q0 -62 -29.5 -109.5t-82 -80t-124 -49.5t-156.5 -17h-338l3 10h99l227 738h-99l3 10h302l-3 -10h-99zM309 10q64 0 115 18.5t85.5 51.5t53 78.5t18.5 98.5q0 35 -9 64t-29.5 49.5t-53.5 31.5t-81 11h-110l-124 -403h135z" />
    <glyph glyph-name="uni042D" unicode="&#x42d;" horiz-adv-x="829" 
d="M529 779q60 0 115.5 -18t97.5 -55.5t67 -95.5t25 -137q0 -98 -42 -186t-112.5 -154.5t-163 -106t-193.5 -39.5q-60 0 -109.5 15t-78.5 42l-65 -54h-6l51 308h6q-3 -85 10.5 -143t40.5 -93t66 -50.5t88 -15.5q76 0 139 30t110.5 82.5t79.5 123t46 151.5h-228
q-8 0 -12.5 -2t-12.5 -13l-95 -123h-6l88 286h6l20 -123q1 -11 4 -13t11 -2h227q9 58 9 120q0 57 -12 104.5t-36 81t-59 52t-81 18.5q-49 0 -94.5 -15.5t-91.5 -51t-95 -93t-104 -141.5h-6l161 308h6l26 -50q50 34 101 43.5t102 9.5z" />
    <glyph glyph-name="uni042E" unicode="&#x42e;" horiz-adv-x="1215" 
d="M344 0h-302l3 10h99l227 738h-99l3 10h302l-3 -10h-99l-108 -352h120q22 72 64.5 140.5t102.5 122.5t134.5 87t160.5 33q56 0 105.5 -18t86 -53.5t58 -87.5t21.5 -120q0 -56 -16 -115.5t-46 -116.5t-73 -108t-96.5 -89.5t-117 -61t-133.5 -22.5q-56 0 -105.5 18t-86 53.5
t-58 87.5t-21.5 120q0 57 17 120h-120l-116 -376h99zM939 769q-69 0 -132 -42.5t-111 -115.5t-76.5 -171t-28.5 -209q0 -65 12.5 -109.5t33.5 -72t49.5 -40t61.5 -12.5q69 0 132 42.5t111 115.5t76.5 171t28.5 209q0 64 -12.5 109t-33.5 72.5t-49.5 40t-61.5 12.5z" />
    <glyph glyph-name="uni042F" unicode="&#x42f;" horiz-adv-x="832" 
d="M388 0l3 10h119l109 354h-50l-444 -364h-140l305 250q51 42 96 75t73 43l1 3q-90 9 -135 46t-45 107q0 50 27.5 93t76.5 74.5t117.5 49t150.5 17.5h291l-3 -10h-99l-227 -738h99l-3 -10h-322zM737 748h-88q-61 0 -109 -17.5t-81 -47.5t-50.5 -71.5t-17.5 -89.5
q0 -74 34.5 -111t108.5 -37h88z" />
    <glyph glyph-name="uni0402" unicode="&#x402;" horiz-adv-x="919" 
d="M139 10h109l225 738h-176q-8 0 -12.5 -0.5t-7.5 -2t-6.5 -5.5t-8.5 -11l-161 -223h-6l122 299h6l61 -47h510l89 47h6l-62 -299h-6l-21 223q-2 14 -5.5 16.5t-19.5 2.5h-198l-112 -369q42 26 102 44t141 18q56 0 92 -17.5t53.5 -48.5t18 -72t-14.5 -89l-8 -26
q-9 -29 -18 -53t-21.5 -45t-30 -39.5t-42.5 -35.5q-17 -12 -39 -26t-47 -29.5t-51 -31t-50 -28.5l-3 7q48 30 77.5 53.5t49 51.5t34 65.5t32.5 94.5l14 45q31 101 2.5 150.5t-108.5 49.5q-58 0 -103 -14t-85 -37l-108 -356h109l-3 -10h-322z" />
    <glyph glyph-name="uni0403" unicode="&#x403;" horiz-adv-x="660" 
d="M-29 10h99l227 738h-99l3 10h559l-31 -234h-6l-66 206q-5 11 -11 14.5t-23 3.5h-222l-227 -738h125l-3 -10h-328zM822 969l-292 -126h-13l136 129h170z" />
    <glyph glyph-name="uni0404" unicode="&#x404;" horiz-adv-x="814" 
d="M389 -13q-60 0 -115.5 18t-97.5 55.5t-67 95t-25 137.5q0 97 42 185.5t112.5 155t163 106t193.5 39.5q60 0 109.5 -15t78.5 -42l65 54h6l-51 -308h-6q3 85 -10.5 143t-40.5 93t-66 50.5t-88 15.5q-75 0 -137 -29t-109.5 -80t-79.5 -120t-47 -148h277q8 0 12 2t12 13
l95 123h6l-88 -286h-6l-19 123q-2 11 -5 13t-11 2h-275q-6 -32 -8.5 -64.5t-2.5 -65.5q0 -57 12 -104.5t36 -81t59 -52t81 -18.5q49 0 94.5 15.5t91.5 51t94.5 93t104.5 141.5h6l-161 -308h-6l-26 50q-50 -34 -101 -43.5t-102 -9.5z" />
    <glyph glyph-name="uni0405" unicode="&#x405;" horiz-adv-x="620" 
d="M214 -13q-46 0 -82 13t-60 33l-53 -43h-6l43 284h6q2 -76 11 -129t27.5 -86t46.5 -48t68 -15q41 0 80 11.5t69 34t48 56t18 77.5q0 43 -18 77.5t-55 78.5l-67 78q-33 39 -53 76.5t-20 82.5q0 48 24 87t62.5 66.5t85.5 42.5t92 15q20 0 40.5 -3.5t39.5 -10t34 -15
t23 -17.5l53 43h6l-41 -270h-6q-3 67 -12.5 116.5t-27.5 82.5t-46.5 49t-68.5 16q-30 0 -60 -9t-53.5 -27t-38.5 -44.5t-15 -60.5q0 -24 5 -42.5t13.5 -34t19.5 -29.5t23 -28l67 -78q21 -24 38.5 -46t30 -43.5t20 -44t7.5 -48.5q0 -47 -23.5 -92t-66 -79.5t-101 -55.5
t-127.5 -21z" />
    <glyph glyph-name="uni0406" unicode="&#x406;" horiz-adv-x="391" 
d="M270 0h-302l3 10h99l226 738h-99l3 10h302l-3 -10h-99l-226 -738h99z" />
    <glyph glyph-name="uni0407" unicode="&#x407;" horiz-adv-x="391" 
d="M270 0h-302l3 10h99l226 738h-99l3 10h302l-3 -10h-99l-226 -738h99zM311 861q-29 0 -47 18t-18 44q0 28 18 46t47 18q27 0 45 -18t18 -46q0 -26 -18 -44t-45 -18zM511 861q-29 0 -47 18t-18 44q0 28 18 46t47 18q27 0 45 -18t18 -46q0 -26 -18 -44t-45 -18z" />
    <glyph glyph-name="uni0408" unicode="&#x408;" horiz-adv-x="415" 
d="M-7 -143q-26 0 -45.5 7t-32.5 19t-20 27t-7 31q0 18 8 32.5t21 23.5t30.5 12t36.5 -1q-3 -25 -2 -48t8 -41t21 -28.5t35 -10.5q24 0 40.5 9t27.5 24t16 34t5 39q0 44 -19 76l207 686h-99l3 10h302l-3 -10h-99l-208 -680q-32 -106 -89.5 -158.5t-136.5 -52.5z" />
    <glyph glyph-name="uni0409" unicode="&#x409;" horiz-adv-x="1154" 
d="M722 423h113q140 0 212 -40.5t72 -126.5q0 -62 -29.5 -109.5t-82 -80t-124 -49.5t-156.5 -17h-338l3 10h99l227 738h-278q-39 -120 -77 -228t-75 -198t-72.5 -159.5t-69.5 -113.5q-28 -37 -54 -49.5t-53 -12.5q-22 0 -35.5 14.5t-13.5 37.5q0 13 6 25.5t19.5 23t36 17
t56.5 6.5q33 0 60 -6q35 57 69.5 131t67 158t63 174t58.5 180h-99l3 10h594l-3 -10h-99zM730 10q64 0 115 18.5t85.5 51.5t53 78.5t18.5 98.5q0 35 -9 64t-29.5 49.5t-53.5 31.5t-81 11h-110l-124 -403h135z" />
    <glyph glyph-name="uni040A" unicode="&#x40a;" horiz-adv-x="1171" 
d="M270 0h-302l3 10h99l227 738h-99l3 10h302l-3 -10h-99l-102 -331h344l102 331h-99l3 10h302l-3 -10h-99l-103 -335h106q140 0 212 -40.5t72 -126.5q0 -62 -29.5 -108t-82 -77t-124 -46t-156.5 -15h-328l3 10h99l122 398h-343l-123 -398h99zM747 10q64 0 115 17t85.5 48
t53 75t18.5 97q0 35 -9 64t-29.5 49.5t-53.5 31.5t-81 11h-103l-121 -393h125z" />
    <glyph glyph-name="uni040B" unicode="&#x40b;" horiz-adv-x="973" 
d="M139 10h109l225 738h-176q-8 0 -12.5 -0.5t-7.5 -2t-6.5 -5.5t-8.5 -11l-161 -223h-6l122 299h6l61 -47h510l89 47h6l-62 -299h-6l-21 223q-2 14 -5.5 16.5t-19.5 2.5h-198l-113 -372q48 30 111.5 47.5t140.5 17.5q47 0 82 -15t54.5 -44t22 -73t-15.5 -102l-61 -197h78
l-3 -10h-182l64 207q32 103 5.5 156.5t-108.5 53.5q-106 0 -193 -55l-107 -352h109l-3 -10h-322z" />
    <glyph glyph-name="uni040C" unicode="&#x40c;" horiz-adv-x="806" 
d="M270 0h-302l3 10h99l226 738h-99l3 10h302l-3 -10h-99l-103 -337l515 337h-112l3 10h247l-3 -10h-114l-536 -350h110l328 -398h-131l-316 383l-114 -373h99zM877 969l-292 -126h-13l136 129h170z" />
    <glyph glyph-name="uni040E" unicode="&#x40e;" horiz-adv-x="720" 
d="M271 73q-21 -26 -38.5 -43t-33.5 -26.5t-32 -13t-33 -3.5q-28 0 -42.5 14t-6.5 37q4 15 16.5 28.5t35.5 22.5t58.5 13t86.5 1l58 73l-124 572h-83l3 10h286l-3 -10h-93l97 -464h3l369 464h-92l3 10h188l-3 -10h-83zM569 837q-86 0 -117 44.5t-11 115.5h86
q-11 -36 -15.5 -63.5t-0.5 -47t17.5 -29.5t39.5 -10q27 0 46 10t33.5 29.5t25.5 47t22 63.5h86q-24 -78 -81.5 -119t-130.5 -41z" />
    <glyph glyph-name="uni040F" unicode="&#x40f;" horiz-adv-x="860" 
d="M287 -224h-6l17 203q2 16 -7 18.5t-26 2.5h-297l3 10h99l227 738h-99l3 10h302l-3 -10h-99l-227 -738h364l227 738h-99l3 10h302l-3 -10h-99l-227 -738h99l-3 -10h-285q-19 0 -34.5 -2.5t-24.5 -18.5z" />
    <glyph glyph-name="uni0490" unicode="&#x490;" horiz-adv-x="660" 
d="M626 758q17 0 25.5 2.5t19.5 15.5l163 206h6l-83 -234h-356l-227 -738h125l-3 -10h-328l3 10h99l227 738h-99l3 10h425z" />
    <glyph glyph-name="uni0462" unicode="&#x462;" horiz-adv-x="809" 
d="M451 618l-79 -255h135q142 0 204.5 -34t62.5 -107q0 -44 -28.5 -84t-78.5 -70.5t-120 -49t-152 -18.5h-338l3 10h99l188 608h-117q-8 0 -12.5 -0.5t-8 -2t-6.5 -5.5t-9 -11l-148 -183h-6l110 259h6l61 -47h133l37 120h-99l3 10h302l-3 -10h-99l-37 -120h133l89 47h6
l-50 -259h-6l-34 183q-2 14 -5 16.5t-19 2.5h-117zM398 10q61 0 109 17.5t82 46.5t52 67t18 80q0 63 -37 97.5t-118 34.5h-135l-106 -343h135z" />
    <glyph glyph-name="uni0472" unicode="&#x472;" horiz-adv-x="845" 
d="M569 779q58 0 109 -18t89 -53.5t60.5 -87.5t22.5 -120q0 -56 -16.5 -115.5t-47 -116.5t-74.5 -108t-98.5 -89.5t-119 -61t-136.5 -22.5q-58 0 -109 18t-89.5 53.5t-60.5 87.5t-22 120q0 56 16.5 115.5t47 116.5t74.5 108t98.5 89.5t119 61t136.5 22.5zM559 769
q-58 0 -112.5 -28.5t-100 -79.5t-79.5 -121.5t-51 -153.5q70 32 125.5 41t100 4t80.5 -18.5t67.5 -26t60 -19t58.5 3.5q18 78 18 164q0 64 -13 109t-35.5 72.5t-53 40t-65.5 12.5zM706 361q-60 -27 -110 -33.5t-94 -1.5t-82 17t-73 22.5t-67.5 14.5t-65.5 -7
q-6 -34 -9.5 -69.5t-3.5 -72.5q0 -65 13 -109.5t35.5 -72t53 -40t65.5 -12.5q56 0 109 27t97.5 75.5t78.5 115t53 146.5z" />
    <glyph glyph-name="uni0474" unicode="&#x474;" horiz-adv-x="832" 
d="M862 655q-17 0 -32.5 2t-27.5 5l-735 -701h-7l241 787h-99l3 10h302l-3 -10h-99l-194 -632l629 601q36 34 62.5 48t57.5 14q23 0 36 -11t13 -31q0 -33 -36.5 -57.5t-110.5 -24.5z" />
    <glyph glyph-name="uni0492" unicode="&#x492;" horiz-adv-x="660" 
d="M99 417h96l102 331h-99l3 10h559l-31 -234h-6l-66 206q-5 11 -11 14.5t-23 3.5h-222l-102 -331h180l-17 -53h-180l-108 -354h125l-3 -10h-328l3 10h99l109 354h-97z" />
    <glyph glyph-name="uni0496" unicode="&#x496;" horiz-adv-x="1260" 
d="M-66 0l516 398h148l-275 350h-115l3 10h245l-3 -10h-112l274 -350l108 350h-99l3 10h302l-3 -10h-99l-108 -350l490 350h-112l3 10h245l-3 -10h-116l-491 -350h125l265 -388h64l-61 -234h-6l-37 206q-2 13 -9 15.5t-24 2.5h-62l-271 397l-119 -387h99l-3 -10h-302l3 10
h99l119 387l-515 -397h-166z" />
    <glyph glyph-name="uni049A" unicode="&#x49a;" horiz-adv-x="870" 
d="M270 0h-302l3 10h99l226 738h-99l3 10h302l-3 -10h-99l-103 -337l515 337h-112l3 10h247l-3 -10h-114l-536 -350h110l320 -388h65l-61 -234h-6l-37 206q-2 11 -6.5 14t-15.5 4h-62l-316 383l-114 -373h99z" />
    <glyph glyph-name="uni04A2" unicode="&#x4a2;" horiz-adv-x="890" 
d="M672 10h98l-61 -234h-6l-37 206q-2 13 -9 15.5t-24 2.5h-167l3 10h99l109 354h-394l-109 -354h99l-3 -10h-302l3 10h99l227 738h-99l3 10h302l-3 -10h-99l-102 -331h394l102 331h-99l3 10h302l-3 -10h-99z" />
    <glyph glyph-name="uni04AE" unicode="&#x4ae;" horiz-adv-x="760" 
d="M467 0h-322l3 10h109l109 355l-144 383h-93l3 10h292l-3 -10h-93l140 -368l363 368h-92l3 10h192l-3 -10h-84l-377 -382l-109 -356h109z" />
    <glyph glyph-name="uni04B0" unicode="&#x4b0;" horiz-adv-x="760" 
d="M467 0h-322l3 10h109l109 355l-144 383h-93l3 10h292l-3 -10h-93l140 -368l363 368h-92l3 10h192l-3 -10h-84l-377 -382l-109 -356h109zM195 367h447l-16 -53h-447z" />
    <glyph glyph-name="uni04B2" unicode="&#x4b2;" horiz-adv-x="848" 
d="M106 0h-210l5 10h93l442 359l-81 379h-93l5 10h291l-5 -10h-93l66 -306l376 306h-95l5 10h210l-5 -10h-98l-391 -318l90 -420h97l-61 -234h-6l-37 206q-2 11 -6.5 14t-15.5 4h-174l5 10h93l-74 348l-428 -348h100z" />
    <glyph glyph-name="uni04B6" unicode="&#x4b6;" horiz-adv-x="812" 
d="M388 0l3 10h99l109 354q-54 -21 -101 -28.5t-88 -7.5q-70 0 -118 13.5t-73.5 44t-28 80t19.5 121.5l49 161h-99l3 10h302l-3 -10h-99l-57 -186q-20 -63 -20.5 -106t16 -69.5t50.5 -37.5t84 -11q23 0 66.5 6.5t99.5 29.5l115 374h-99l3 10h302l-3 -10h-99l-227 -738h98
l-61 -234h-6l-37 206q-2 13 -9 15.5t-24 2.5h-167z" />
    <glyph glyph-name="uni04BA" unicode="&#x4ba;" horiz-adv-x="821" 
d="M631.961 9.99902h98.9941l-3 -9.99902h-301.981l3 9.99902h98.9941l56.9961 185.989q19.999 62.9961 20.499 105.993t-15.999 69.4961q-16.499 26.498 -50.4971 37.4971q-33.998 11 -83.9941 11q-22.999 0 -66.4961 -6.5q-43.498 -6.49902 -99.4941 -29.498
l-114.993 -373.978h98.9941l-3 -9.99902h-301.981l3 9.99902h98.9941l226.985 737.955h-98.9932l2.99902 10h301.982l-3 -10h-98.9941l-108.993 -353.979q53.9961 20.999 100.993 28.499q46.9971 7.49902 87.9951 7.49902q69.9961 0 117.993 -13.499t73.4951 -43.9971
t27.998 -79.9951t-19.499 -121.493z" />
    <glyph glyph-name="uni04C0" unicode="&#x4c0;" horiz-adv-x="391" 
d="M270 0h-302l3 10h99l226 738h-99l3 10h302l-3 -10h-99l-226 -738h99z" />
    <glyph glyph-name="uni04D8" unicode="&#x4d8;" horiz-adv-x="766" 
d="M330 -12q-60 0 -105.5 18.5t-77.5 52t-50.5 80t-24.5 102.5h525q24 57 37 116.5t13 113.5q0 61 -15 104.5t-41 71t-61 40.5t-75 13q-47 0 -96 -14.5t-95 -47.5t-85.5 -86t-67.5 -129h-11q19 70 54 135t86 114t117 78.5t146 29.5q60 0 109.5 -19t85 -55.5t54.5 -90
t19 -123.5q0 -49 -14 -106t-40.5 -113t-65 -107.5t-87.5 -91t-108 -63t-126 -23.5zM339 -2q39 0 76 18t69 49.5t59.5 73.5t48.5 90h-280q-35 0 -55.5 -3t-31.5 -10t-14.5 -20t-3.5 -32q0 -27 5 -56t19.5 -53.5t40.5 -40.5t67 -16z" />
    <glyph glyph-name="uni04E2" unicode="&#x4e2;" horiz-adv-x="869" 
d="M270 0h-302l3 10h99l227 738h-99l3 10h302l-3 -10h-99l-202 -656l569 618l12 38h-99l3 10h302l-3 -10h-99l-227 -738h99l-3 -10h-302l3 10h99l207 672l-570 -620l-16 -52h99zM496 944h310l-42 -61h-310z" />
    <glyph glyph-name="uni04E8" unicode="&#x4e8;" horiz-adv-x="845" 
d="M569 779q58 0 109 -18t89 -53.5t60.5 -87.5t22.5 -120q0 -56 -16.5 -115.5t-47 -116.5t-74.5 -108t-98.5 -89.5t-119 -61t-136.5 -22.5q-58 0 -109 18t-89.5 53.5t-60.5 87.5t-22 120q0 56 16.5 115.5t47 116.5t74.5 108t98.5 89.5t119 61t136.5 22.5zM368 -3
q57 0 110 27.5t97.5 76t78.5 116t52 147.5h-494q-5 -32 -8 -65t-3 -68q0 -65 13 -109.5t35.5 -72t53 -40t65.5 -12.5zM559 769q-56 0 -107.5 -26t-96 -73t-78.5 -111.5t-53 -141.5h493q9 57 9 118q0 64 -13 109t-35.5 72.5t-53 40t-65.5 12.5z" />
    <glyph glyph-name="uni04EE" unicode="&#x4ee;" horiz-adv-x="710" 
d="M271 73q-21 -26 -38.5 -43t-33.5 -26.5t-32 -13t-33 -3.5q-28 0 -42.5 14t-6.5 37q4 15 16.5 28.5t35.5 22.5t58.5 13t86.5 1l58 73l-124 572h-83l3 10h286l-3 -10h-93l97 -464h3l369 464h-92l3 10h188l-3 -10h-83zM451 944h310l-42 -61h-310z" />
    <glyph glyph-name="uni0430" unicode="&#x430;" horiz-adv-x="536" 
d="M90 -13q-42 0 -62.5 26.5t-20.5 70.5q0 43 15 91.5t40.5 96t59.5 90.5t71.5 76.5t76 53t73.5 19.5q32 0 48.5 -24.5t10.5 -64.5h1l35 92h84l-158 -423q-14 -38 -17.5 -58t10.5 -20q22 0 61 36t80 105l10 -6q-50 -83 -98 -122t-108 -39q-21 0 -30.5 7.5t-10.5 22.5t5.5 36
t17.5 48l47 118h-2q-27 -47 -54.5 -89t-57 -73.5t-61 -50.5t-66.5 -19zM147 20q16 0 40.5 22t52 57.5t54.5 80.5t49 91t35.5 89.5t13.5 75.5t-13 48t-35 16q-30 0 -58.5 -18t-53.5 -49t-46.5 -71t-37 -84t-24 -89.5t-8.5 -85.5q0 -46 8.5 -64.5t22.5 -18.5z" />
    <glyph glyph-name="uni0431" unicode="&#x431;" horiz-adv-x="488" 
d="M466 363q0 -44 -14 -89t-37.5 -87t-55 -78.5t-66 -63.5t-71 -42.5t-70.5 -15.5q-58 0 -93 38.5t-35 106.5q0 71 18.5 145t51.5 143.5t79.5 131t103 107.5t121 72.5t133.5 26.5h44l24 61h10l-56 -141h-141q-50 0 -89 -13q-44 -14 -76 -45q-43 -41 -70.5 -115.5
t-39.5 -193.5q33 90 88.5 140t117.5 50q31 0 54 -10.5t38.5 -29t23 -43.5t7.5 -55zM176 0q28 0 52.5 17t45 46t36.5 67t27.5 80.5t17.5 86.5t6 84q0 44 -11 73t-40 29q-18 0 -41.5 -13.5t-48 -40t-48 -66t-39.5 -91.5q-2 -35 -3.5 -74t-1.5 -82q0 -61 13.5 -88.5t34.5 -27.5
z" />
    <glyph glyph-name="uni0432" unicode="&#x432;" horiz-adv-x="477" 
d="M168 -13q-71 0 -107 34t-36 117q0 75 33 143t83 119t109 81t111 30q116 0 116 -83q0 -49 -60.5 -86t-173.5 -72q42 6 73 1t51.5 -18t31 -32t10.5 -41q0 -38 -21 -73t-55 -61.5t-77 -42.5t-88 -16zM348 502q-25 0 -54.5 -17.5t-57.5 -50.5t-52 -81t-39 -108l47 16
q42 14 76.5 36.5t58.5 50t37 57.5t13 59q0 38 -29 38zM127 91q0 -40 8.5 -67t31.5 -27q28 0 52.5 18t43.5 46t30 62.5t11 67.5q0 21 -6 37t-19 24.5t-34 8.5t-52 -10l-50 -17q-8 -32 -12 -68t-4 -75z" />
    <glyph glyph-name="uni0433" unicode="&#x433;" horiz-adv-x="484" 
d="M174 -13q-35 0 -64.5 6.5t-51 20t-34 33t-12.5 46.5q0 30 12 54.5t38 45.5t66 41t96 41l24 9q74 28 103.5 64.5t29.5 80.5q0 38 -19 54.5t-44 16.5q-23 0 -39 -8t-34 -25l-150 -140h-7l88 162q33 11 72 16.5t71 5.5q66 0 107 -23t41 -74q0 -29 -10.5 -53t-34 -45
t-60 -40.5t-88.5 -39.5l-36 -14q-78 -31 -108 -67.5t-30 -81.5q0 -19 7 -33.5t18 -24t24.5 -14t27.5 -4.5q26 0 41 5.5t35 25.5l145 147h7l-79 -169q-38 -10 -78 -14.5t-74 -4.5z" />
    <glyph glyph-name="uni0434" unicode="&#x434;" horiz-adv-x="496" 
d="M486 477q0 -55 -10 -113t-30 -112.5t-49 -102.5t-67 -84t-85 -57t-102 -21q-61 0 -95.5 34t-34.5 91q0 40 13.5 85.5t36.5 90t53.5 85t65 71t70.5 49t70 18.5q37 0 55 -31q0 54 -6.5 102.5t-19 85t-31.5 58t-44 21.5q-20 0 -41.5 -11t-45.5 -35l-6 6q27 32 55.5 46
t57.5 14q49 0 84.5 -23.5t59 -63t35 -92.5t11.5 -111zM122 112q0 -111 50 -111q49 0 86.5 41t63 106t39.5 145t16 158q-11 49 -54 49q-30 0 -57 -18t-49 -48.5t-40 -70.5t-30 -83t-18.5 -86.5t-6.5 -81.5z" />
    <glyph glyph-name="uni0435" unicode="&#x435;" horiz-adv-x="445" 
d="M156 -13q-28 0 -52 9t-41.5 27t-27.5 46.5t-10 67.5q0 50 15.5 97.5t40.5 89t58.5 76t69.5 59.5t72 38.5t68 13.5q43 0 70.5 -24t27.5 -59q0 -58 -60 -97l-228 -8q-15 -35 -23.5 -74t-8.5 -80q0 -67 21.5 -109.5t64.5 -42.5q45 0 86 42t73 115l10 -4q-35 -85 -90 -134
t-136 -49zM349 502q-25 0 -51 -12.5t-50.5 -35t-46.5 -53t-38 -67.5l62 2q41 1 73 14.5t53.5 32.5t33 40t11.5 39q0 20 -13 30t-34 10z" />
    <glyph glyph-name="uni0451" unicode="&#x451;" horiz-adv-x="445" 
d="M156 -13q-28 0 -52 9t-41.5 27t-27.5 46.5t-10 67.5q0 50 15.5 97.5t40.5 89t58.5 76t69.5 59.5t72 38.5t68 13.5q43 0 70.5 -24t27.5 -59q0 -58 -60 -97l-228 -8q-15 -35 -23.5 -74t-8.5 -80q0 -67 21.5 -109.5t64.5 -42.5q45 0 86 42t73 115l10 -4q-35 -85 -90 -134
t-136 -49zM349 502q-25 0 -51 -12.5t-50.5 -35t-46.5 -53t-38 -67.5l62 2q41 1 73 14.5t53.5 32.5t33 40t11.5 39q0 20 -13 30t-34 10zM299 624q-29 0 -47 18t-18 44q0 28 18 46t47 18q27 0 45 -18t18 -46q0 -26 -18 -44t-45 -18zM535 624q-29 0 -47 18t-18 44q0 28 18 46
t47 18q27 0 45 -18t18 -46q0 -26 -18 -44t-45 -18z" />
    <glyph glyph-name="uni0436" unicode="&#x436;" horiz-adv-x="890" 
d="M225 511q38 0 61 -27t23 -75q0 -44 -11.5 -90.5t-31.5 -92.5l131 21l94 246l101 19l-96 -250l133 22q21 46 47.5 87t55.5 72t59 49.5t57 18.5q10 0 22 -2.5t22 -8.5t16.5 -17t6.5 -28q0 -20 -9.5 -33.5t-22.5 -21.5t-27 -11t-23 -2l5 115q-13 -2 -30 -20t-35.5 -48
t-36.5 -70t-32 -86t-23 -96.5t-9 -100.5q0 -29 5.5 -46.5t18.5 -17.5q22 0 53 36.5t60 103.5l11 -4q-31 -75 -70 -120.5t-85 -45.5q-38 0 -61 27t-23 75q0 44 11.5 90.5t31.5 92.5l-132 -20l-93 -243l-100 -19l94 246l-131 -21q-21 -46 -47.5 -87t-56 -72.5t-59.5 -50
t-57 -18.5q-11 0 -22.5 2.5t-21.5 8.5t-16.5 17t-6.5 28q0 20 9.5 33.5t22.5 21.5t27 11t23 2l-5 -115q13 2 30 20t35.5 48t36.5 70t32 86t23 96t9 101q0 29 -5.5 46.5t-18.5 17.5q-22 0 -53 -36.5t-60 -103.5l-11 4q31 75 70 120.5t85 45.5z" />
    <glyph glyph-name="uni0437" unicode="&#x437;" horiz-adv-x="417" 
d="M100 -2q1 -1 4 -1h12q28 0 53.5 17.5t44 44.5t29.5 60t11 65q0 24 -5.5 42t-18.5 27.5t-34.5 10t-52.5 -10.5l-37 -13l5 13l31 10q38 12 70 27t55.5 34t36.5 42t13 52q0 58 -69 58q-39 0 -81 -29.5t-70 -79.5l-9 5q35 63 90.5 101t122.5 38q60 0 88 -21t28 -56
q0 -52 -57.5 -90t-166.5 -72q42 6 73 0.5t51.5 -19.5t31 -35t10.5 -45q0 -36 -21 -70t-55 -59.5t-78 -41t-89 -15.5q-58 0 -92 15t-34 53q0 16 7.5 27t18.5 17.5t24 9.5t24 2z" />
    <glyph glyph-name="uni0438" unicode="&#x438;" horiz-adv-x="557" 
d="M400 368h-2q-15 -27 -31 -56.5t-32.5 -58t-33 -55.5t-30.5 -49q-23 -36 -45.5 -66t-45 -51t-46 -33t-49.5 -12q-57 0 -65 41.5t24 117.5l138 336l-86 -16l4 11l186 35l-160 -390q-15 -38 -22 -60.5t-7.5 -34.5t4.5 -15.5t14 -3.5q15 0 34 13.5t40 36t42 52t41 62.5
q28 46 56 94.5t51.5 92.5t40.5 79t25 55l101 19l-165 -421q-15 -38 -17.5 -58t11.5 -20q22 0 61 36t80 105l10 -6q-50 -83 -98 -122t-108 -39q-42 0 -45 28t20 85z" />
    <glyph glyph-name="uni0439" unicode="&#x439;" horiz-adv-x="557" 
d="M362 598q-46 0 -74 13t-41.5 34.5t-12.5 50.5t14 62h86q-14 -36 -21 -63.5t-5 -47t15 -29.5t39 -10q27 0 47 10t36 29.5t29.5 47t27.5 63.5h86q-30 -78 -91.5 -119t-134.5 -41zM400 368h-2q-15 -27 -31 -56.5t-32.5 -58t-33 -55.5t-30.5 -49q-23 -36 -45.5 -66t-45 -51
t-46 -33t-49.5 -12q-57 0 -65 41.5t24 117.5l138 336l-86 -16l4 11l186 35l-160 -390q-15 -38 -22 -60.5t-7.5 -34.5t4.5 -15.5t14 -3.5q15 0 34 13.5t40 36t42 52t41 62.5q28 46 56 94.5t51.5 92.5t40.5 79t25 55l101 19l-165 -421q-15 -38 -17.5 -58t11.5 -20q22 0 61 36
t80 105l10 -6q-50 -83 -98 -122t-108 -39q-42 0 -45 28t20 85z" />
    <glyph glyph-name="uni043A" unicode="&#x43a;" horiz-adv-x="544" 
d="M0 -10l161 413l-78 45l2 4l208 59l-95 -247l142 135q35 34 58 55.5t40.5 34t32 17.5t32.5 5q27 0 41.5 -16t14.5 -37q0 -13 -5 -26.5t-15 -24t-25 -17.5t-34 -7l-19 107q-21 -13 -43.5 -33.5t-64.5 -60.5l-143 -133h75l57 -161q17 -48 27 -65.5t24 -17.5q9 0 20 8.5
t22.5 23.5t21.5 35.5t16 44.5l11 -5q-20 -66 -54 -102.5t-77 -36.5q-19 0 -32.5 5t-24 17.5t-19.5 33t-20 51.5l-60 168l-97 -253z" />
    <glyph glyph-name="uni043B" unicode="&#x43b;" horiz-adv-x="501" 
d="M87 82q42 69 84 152.5t87 192.5l1 75h93l-11 -411q-2 -70 22 -70q16 0 43.5 35t59.5 98l10 -6q-44 -80 -81 -120.5t-85 -40.5q-36 0 -47.5 26t-10.5 87l5 294q-42 -97 -79.5 -172.5t-74.5 -139.5q-15 -26 -27 -44t-24.5 -29t-26.5 -16.5t-32 -5.5q-22 0 -32.5 13
t-10.5 32q0 14 4.5 27t15.5 23h117z" />
    <glyph glyph-name="uni043C" unicode="&#x43c;" horiz-adv-x="717" 
d="M87 82q32 67 63 148t61 186l-13 86h110l51 -346l253 346h93l-160 -411q-15 -38 -17.5 -58t11.5 -20q22 0 61 36t80 105l10 -6q-50 -83 -98 -122t-108 -39q-42 0 -44.5 28t19.5 85l134 353l-231 -315v-1h-1l-86 -118h-5l-55 367q-29 -94 -56 -167.5t-56 -136.5
q-23 -51 -47 -73t-58 -22q-22 0 -32.5 13t-10.5 32q0 14 4.5 27t15.5 23h112z" />
    <glyph glyph-name="uni043D" unicode="&#x43d;" horiz-adv-x="554" 
d="M0 -10l161 413l-78 45l2 4l208 59l-107 -278l169 31l87 229l101 19l-165 -421q-15 -38 -17.5 -58t11.5 -20q22 0 61 36t80 105l10 -6q-50 -83 -98 -122t-108 -39q-42 0 -44.5 28t19.5 85l59 154l-169 -33l-82 -212z" />
    <glyph glyph-name="uni043E" unicode="&#x43e;" horiz-adv-x="488" 
d="M159 -13q-40 0 -66 14t-41.5 35.5t-21.5 48t-6 51.5q0 45 14.5 90.5t38 87t55 77.5t65.5 62.5t68.5 42t64.5 15.5q40 0 66 -14t41.5 -35.5t21.5 -48t6 -51.5q0 -45 -14.5 -90.5t-38 -87t-55 -77.5t-65.5 -62.5t-68.5 -42t-64.5 -15.5zM183 1q27 0 50.5 18.5t43.5 49
t35 69.5t26 80t16.5 81t5.5 72q0 66 -11 96t-43 30q-27 0 -50.5 -18.5t-43.5 -49t-35 -69.5t-26 -80t-16.5 -81t-5.5 -72q0 -66 11 -96t43 -30z" />
    <glyph glyph-name="uni043F" unicode="&#x43f;" horiz-adv-x="561" 
d="M317 -13q-42 0 -47 29.5t21 85.5l127 274q17 37 24.5 59.5t7.5 34.5t-6 16t-15 4q-16 0 -35 -13.5t-39 -36t-41.5 -52.5t-41.5 -62q-29 -46 -56.5 -94.5t-51 -92t-40.5 -78t-24 -52.5l-100 -19l161 413l-78 45l2 4l208 59l-149 -381h2q15 27 31 56.5t32.5 58t33 55.5
t30.5 49q46 72 91 117t95 45q57 0 66.5 -42t-25.5 -117l-121 -261q-17 -37 -19 -57.5t12 -20.5q22 0 61 36t80 105l10 -6q-50 -83 -98 -122t-108 -39z" />
    <glyph glyph-name="uni0440" unicode="&#x440;" horiz-adv-x="526" 
d="M146 -13q-22 0 -44 6l-82 -241h-90l223 651l-78 45l2 4l203 59l-24 -70q26 29 67 49.5t84 20.5q49 0 78 -29.5t29 -85.5q0 -47 -15.5 -95.5t-42.5 -94t-63 -85.5t-77 -69.5t-84.5 -47t-85.5 -17.5zM337 473q-25 0 -47 -15t-39 -32l-144 -421q20 -7 41 -7q54 0 101 37
t82 92.5t55 120t20 119.5q0 31 -5.5 51.5t-14.5 32.5t-21.5 17t-27.5 5z" />
    <glyph glyph-name="uni0441" unicode="&#x441;" horiz-adv-x="417" 
d="M150 -13q-54 0 -88 35.5t-34 113.5q0 64 25 130.5t67.5 121t98.5 89t117 34.5q16 0 33.5 -3.5t31 -11.5t22.5 -21t9 -32q0 -16 -7.5 -27t-18.5 -17.5t-24 -9.5t-24 -2l-37 115q-33 -3 -66.5 -30.5t-61 -72.5t-45 -105t-17.5 -128q0 -30 4.5 -57t13 -47.5t22 -32.5
t31.5 -12q33 0 68.5 36.5t67.5 103.5l10 -4q-17 -37 -37 -67.5t-44.5 -52.5t-53.5 -34t-63 -12z" />
    <glyph glyph-name="uni0442" unicode="&#x442;" horiz-adv-x="824" 
d="M580 -13q-42 0 -47 29.5t21 85.5l127 274q17 37 24.5 59.5t7.5 34.5t-6 16t-15 4q-16 0 -35 -13.5t-39.5 -36t-41.5 -52t-41 -62.5q-29 -46 -56.5 -94t-51 -91.5t-42 -78.5t-27.5 -53l-100 -19l158 386q15 37 22.5 59.5t8.5 34.5t-4 16t-14 4q-16 0 -35 -13.5t-39.5 -36
t-41.5 -52t-41 -62.5q-29 -46 -56.5 -94.5t-51 -92t-40.5 -78t-24 -52.5l-100 -19l161 413l-78 45l2 4l208 59l-149 -381h2q15 27 31 56.5t32.5 58t33 55.5t30.5 49q46 72 91 117t95 45q57 0 64.5 -41.5t-24.5 -117.5l-92 -222h2q15 27 31 56.5t32.5 58t33 55.5t30.5 49
q46 72 91 117t95 45q57 0 66.5 -42t-25.5 -117l-121 -261q-17 -37 -19 -57.5t12 -20.5q22 0 61 36t80 105l10 -6q-50 -83 -98 -122t-108 -39z" />
    <glyph glyph-name="uni0443" unicode="&#x443;" horiz-adv-x="527" 
d="M15 -248h-106l236 268l-7 462l-86 -16l4 11l180 34l9 -476l246 312l-46 123q9 22 26 31.5t34 9.5q22 0 38 -14.5t16 -41.5q0 -19 -10 -42.5t-33 -52.5l-278 -352z" />
    <glyph glyph-name="uni0444" unicode="&#x444;" horiz-adv-x="735" 
d="M221 -12q-93 4 -145 45t-52 128q0 53 29.5 113t82.5 111.5t127.5 86.5t163.5 39l93 237h-78l4 10h168l-97 -247q91 -4 143 -45.5t52 -128.5q0 -53 -29.5 -113t-82.5 -111t-127 -86.5t-162 -39.5l-93 -235h-90zM129 159q0 -68 20.5 -108.5t77.5 -48.5l194 495
q-64 0 -117.5 -30t-92.5 -78t-60.5 -108.5t-21.5 -121.5zM607 339q0 67 -20 107.5t-76 48.5l-195 -494q64 0 117.5 30t92 78t60 108t21.5 122z" />
    <glyph glyph-name="uni0445" unicode="&#x445;" horiz-adv-x="541" 
d="M305 -13q-15 0 -25 5t-16.5 17.5t-10.5 33t-8 51.5l-11 91q-44 -67 -74.5 -106.5t-53 -59.5t-41.5 -26t-40 -6q-29 0 -44 16t-15 37q0 13 5 26.5t15 24t25 17.5t34 7l20 -111q31 11 69.5 61t97.5 136l-21 170q-4 32 -7 53t-7 33t-8.5 17t-11.5 5q-9 0 -22 -8.5t-28 -23.5
t-29.5 -35.5t-26.5 -44.5l-10 5q37 70 84 104.5t90 34.5q15 0 25 -5t16.5 -17.5t10.5 -33t8 -51.5l12 -97q45 69 76 109.5t54.5 61.5t42.5 27t40 6q29 0 44 -16t15 -37q0 -13 -5 -26.5t-15 -24t-25 -17.5t-34 -7l-20 111q-32 -12 -72 -64.5t-99 -138.5l20 -164q4 -32 7 -53
t7 -33t8.5 -17t11.5 -5q9 0 22 8.5t28 23.5t29.5 35.5t26.5 44.5l10 -5q-37 -70 -84 -104.5t-90 -34.5z" />
    <glyph glyph-name="uni0446" unicode="&#x446;" horiz-adv-x="557" 
d="M400 368h-2q-15 -27 -31 -56.5t-32.5 -58t-33 -55.5t-30.5 -49q-23 -36 -45.5 -66t-45 -51t-46 -33t-49.5 -12q-57 0 -65 41.5t24 117.5l138 336l-86 -16l4 11l186 35l-160 -390q-15 -38 -22 -60.5t-7.5 -34.5t4.5 -15.5t14 -3.5q15 0 34 13.5t40 36t42 52t41 62.5
q28 46 56 94.5t51.5 92.5t40.5 79t25 55l101 19l-165 -421q-15 -38 -17.5 -58t11.5 -20q22 0 61 36t80 105l10 -6q-20 -33 -28.5 -56.5t-9.5 -46t3.5 -48t10.5 -62.5t4.5 -64t-15.5 -45t-41.5 -27t-72.5 -9l1 10q16 0 25.5 8t13.5 22t5 34.5t1 44.5q0 27 2.5 47.5t7.5 38
t12.5 33t17.5 32.5q-64 -73 -143 -73q-42 0 -45 28t20 85z" />
    <glyph glyph-name="uni0447" unicode="&#x447;" horiz-adv-x="527" 
d="M382 400h-2q-28 -47 -56.5 -88.5t-58.5 -73t-61 -50t-63 -18.5q-57 0 -64.5 41.5t23.5 117.5l62 153l-86 -16l4 11l186 35l-84 -207q-15 -37 -22 -59.5t-7.5 -34.5t4.5 -16t14 -4q18 0 42 18.5t49 47t50 64t46 69t36 61.5t21 42l101 19l-165 -421q-15 -38 -17.5 -58
t11.5 -20q22 0 61 36t80 105l10 -6q-50 -83 -98 -122t-108 -39q-42 0 -45 28t20 85z" />
    <glyph glyph-name="uni0448" unicode="&#x448;" horiz-adv-x="825" 
d="M400 368h-2q-15 -27 -31 -56.5t-32.5 -58t-33 -55.5t-30.5 -49q-23 -36 -45.5 -66t-45 -51t-46 -33t-49.5 -12q-57 0 -65 41.5t24 117.5l138 336l-86 -16l4 11l186 35l-160 -390q-15 -38 -22 -60.5t-7.5 -34.5t4.5 -15.5t14 -3.5q15 0 34 13.5t40 36t42 52t41 62.5
q28 46 56 94.5t51.5 92.5t40.5 79t25 55l101 19l-152 -390q-15 -38 -21.5 -60.5t-7.5 -34.5t4 -15.5t14 -3.5q15 0 34 13.5t40 36t42 52t41 62.5q28 46 56 94.5t51.5 92.5t40.5 79t25 55l101 19l-165 -421q-15 -38 -17.5 -58t11.5 -20q22 0 61 36t80 105l10 -6
q-50 -83 -98 -122t-108 -39q-42 0 -45 28t20 85l105 268h-2q-15 -27 -31 -56.5t-32.5 -58t-33 -55.5t-30.5 -49q-23 -36 -45.5 -66t-45 -51t-46 -33t-49.5 -12q-57 0 -64 41t23 118z" />
    <glyph glyph-name="uni0449" unicode="&#x449;" horiz-adv-x="825" 
d="M400 368h-2q-15 -27 -31 -56.5t-32.5 -58t-33 -55.5t-30.5 -49q-23 -36 -45.5 -66t-45 -51t-46 -33t-49.5 -12q-57 0 -65 41.5t24 117.5l138 336l-86 -16l4 11l186 35l-160 -390q-15 -38 -22 -60.5t-7.5 -34.5t4.5 -15.5t14 -3.5q15 0 34 13.5t40 36t42 52t41 62.5
q28 46 56 94.5t51.5 92.5t40.5 79t25 55l101 19l-152 -390q-15 -38 -21.5 -60.5t-7.5 -34.5t4 -15.5t14 -3.5q15 0 34 13.5t40 36t42 52t41 62.5q28 46 56 94.5t51.5 92.5t40.5 79t25 55l101 19l-165 -421q-15 -38 -17.5 -58t11.5 -20q22 0 61 36t80 105l10 -6
q-20 -33 -28.5 -56.5t-9.5 -46t3.5 -48t10.5 -62.5t4.5 -64t-15.5 -45t-41.5 -27t-72.5 -9l1 10q16 0 25.5 8t13.5 22t5 34.5t1 44.5q0 53 10 86t30 66q-33 -38 -67 -56t-76 -18t-45 28t20 85l105 268h-2q-15 -27 -31 -56.5t-32.5 -58t-33 -55.5t-30.5 -49
q-23 -36 -45.5 -66t-45 -51t-46 -33t-49.5 -12q-57 0 -64 41t23 118z" />
    <glyph glyph-name="uni044A" unicode="&#x44a;" horiz-adv-x="488" 
d="M438 180q0 -38 -19.5 -73t-51.5 -61.5t-73.5 -42.5t-86.5 -16q-69 0 -104.5 25.5t-35.5 85.5q0 48 23.5 94.5t59 88.5t75.5 77.5t73 59.5h-211l-60 -102h-10l101 186h257q-36 -44 -79.5 -94t-76.5 -113h51q91 0 129.5 -29t38.5 -86zM208 -3q27 0 51.5 18t43 46t29.5 62.5
t11 67.5q0 42 -16.5 68t-60.5 26h-53q-23 -45 -37 -96t-14 -111q0 -43 13 -62t33 -19z" />
    <glyph glyph-name="uni044B" unicode="&#x44b;" horiz-adv-x="694" 
d="M683 512l-165 -421q-15 -38 -17.5 -58t11.5 -20q22 0 61 36t80 105l10 -6q-50 -83 -98 -122t-108 -39q-42 0 -44.5 28t19.5 85l150 393zM168 -13q-44 0 -74 11t-45 35t-13 61.5t23 89.5l123 298l-86 -16l4 11l186 35l-89 -217h34q91 0 129.5 -29t38.5 -86
q0 -38 -19.5 -73t-51.5 -61.5t-73.5 -42.5t-86.5 -16zM139 154q-64 -157 28 -157q28 0 52.5 18t43.5 46t30 62.5t11 67.5q0 42 -16.5 68t-60.5 26h-34z" />
    <glyph glyph-name="uni044C" unicode="&#x44c;" horiz-adv-x="449" 
d="M168 -13q-44 0 -74 11t-45 35t-13 61.5t23 89.5l123 298l-86 -16l4 11l186 35l-89 -217h34q91 0 129.5 -29t38.5 -86q0 -38 -19.5 -73t-51.5 -61.5t-73.5 -42.5t-86.5 -16zM139 154q-64 -157 28 -157q28 0 52.5 18t43.5 46t30 62.5t11 67.5q0 42 -16.5 68t-60.5 26h-34z
" />
    <glyph glyph-name="uni044D" unicode="&#x44d;" horiz-adv-x="417" 
d="M272 511q54 0 88 -35.5t34 -113.5q0 -64 -25 -130.5t-67.5 -121t-98.5 -89t-117 -34.5q-17 0 -34 3.5t-30.5 11.5t-22.5 21t-9 32q0 16 7.5 27t18.5 17.5t24 9.5t24 2l37 -115q28 3 57 23.5t54.5 55.5t45 82t27.5 102l-177 -33l3 10l176 33q2 15 3 30.5t1 32.5
q0 30 -4.5 57t-13 47.5t-22 32.5t-31.5 12q-33 0 -68.5 -36.5t-67.5 -103.5l-10 4q17 37 37 67.5t44.5 52.5t53.5 34t63 12z" />
    <glyph glyph-name="uni044E" unicode="&#x44e;" horiz-adv-x="718" 
d="M0 -10l161 413l-78 45l2 4l208 59l-107 -278l90 17q20 52 53.5 99.5t73 83.5t80.5 57t77 21q40 0 66 -14t41.5 -35.5t21.5 -48t6 -51.5q0 -45 -14.5 -90.5t-38 -87t-55 -77.5t-65.5 -62.5t-68.5 -42t-64.5 -15.5q-40 0 -66 14t-41.5 35.5t-21.5 48t-6 51.5q0 26 5 51.5
t13 51.5l-90 -17l-82 -213zM413 1q27 0 50.5 18.5t43.5 49t35 69.5t26 80t16.5 81t5.5 72q0 66 -11 96t-43 30q-27 0 -50.5 -18.5t-43.5 -49t-35 -69.5t-26 -80t-16.5 -81t-5.5 -72q0 -66 11 -96t43 -30z" />
    <glyph glyph-name="uni044F" unicode="&#x44f;" horiz-adv-x="521" 
d="M510 502l-160 -411q-15 -38 -17.5 -58t11.5 -20q22 0 61 36t80 105l10 -6q-50 -83 -98 -122t-108 -39q-42 0 -44.5 28t19.5 85l65 171q-63 -72 -107.5 -117t-77.5 -78q-24 -24 -42 -41t-32.5 -27.5t-28 -15.5t-28.5 -5q-24 0 -33.5 14.5t-9.5 31.5q0 14 6 27t14 20h138
l71.5 71.5l74.5 74.5q-40 -25 -89 -25q-38 0 -59 21t-21 62q0 33 18.5 73t49 74t69 57t78.5 23q31 0 50 -21t20 -59l27 71h93zM250 233q16 0 32.5 10t30.5 26.5t25.5 36.5t19.5 41l9 27q19 57 5 91.5t-50 34.5q-22 0 -41.5 -17.5t-34.5 -45t-23.5 -62t-8.5 -68.5
q0 -35 8 -54.5t28 -19.5z" />
    <glyph glyph-name="uni0452" unicode="&#x452;" horiz-adv-x="512" 
d="M139 630h77l41 118h-78l4 10h168l-45 -128h139l-12 -35h-140l-107 -304l-58 -162h2q15 27 31 56.5t32.5 58t33 55.5t30.5 49q46 72 91 117t95 45q57 0 66.5 -42t-25.5 -117l-142 -307q-18 -39 -31 -67t-24.5 -48t-24 -33.5t-30.5 -24.5l-206 -128l-5 9q33 23 62 43.5
t51 37.5q19 15 32.5 34t24.5 42.5t22 52t27 62.5l162 351q17 37 24.5 59.5t7.5 34.5t-6 16t-15 4q-16 0 -35 -13.5t-39 -36t-41.5 -52.5t-41.5 -62q-29 -45 -56 -94t-49.5 -92.5t-39 -78t-23.5 -52.5l-95 -18l211 605h-77z" />
    <glyph glyph-name="uni0453" unicode="&#x453;" horiz-adv-x="484" 
d="M174 -13q-35 0 -64.5 6.5t-51 20t-34 33t-12.5 46.5q0 30 12 54.5t38 45.5t66 41t96 41l24 9q74 28 103.5 64.5t29.5 80.5q0 38 -19 54.5t-44 16.5q-23 0 -39 -8t-34 -25l-150 -140h-7l88 162q33 11 72 16.5t71 5.5q66 0 107 -23t41 -74q0 -29 -10.5 -53t-34 -45
t-60 -40.5t-88.5 -39.5l-36 -14q-78 -31 -108 -67.5t-30 -81.5q0 -19 7 -33.5t18 -24t24.5 -14t27.5 -4.5q26 0 41 5.5t35 25.5l145 147h7l-79 -169q-38 -10 -78 -14.5t-74 -4.5zM417 758h129l-1 -3l-234 -176h-11z" />
    <glyph glyph-name="uni0454" unicode="&#x454;" horiz-adv-x="417" 
d="M150 -13q-54 0 -88 35.5t-34 113.5q0 64 25 130.5t67.5 121t98.5 89t117 34.5q16 0 33.5 -3.5t31 -11.5t22.5 -21t9 -32q0 -16 -7.5 -27t-18.5 -17.5t-24 -9.5t-24 -2l-37 115q-28 -3 -57.5 -23.5t-55 -55.5t-44.5 -82t-28 -102l178 33l-3 -10l-176 -33q-2 -16 -3 -31.5
t-1 -31.5q0 -30 4.5 -57t13 -47.5t22 -32.5t31.5 -12q33 0 68.5 36.5t67.5 103.5l10 -4q-17 -37 -37 -67.5t-44.5 -52.5t-53.5 -34t-63 -12z" />
    <glyph glyph-name="uni0455" unicode="&#x455;" horiz-adv-x="376" 
d="M102 -13q-24 0 -44 7.5t-34 20t-21.5 28t-7.5 31.5q0 28 23.5 43t54.5 12l37 -131q13 0 32 5t36.5 15.5t30 27.5t12.5 42q0 19 -9.5 43t-33.5 57l-42 58q-20 28 -29 52.5t-9 48.5q0 34 16 63.5t42.5 52t60 35.5t69.5 13q42 0 67.5 -20t25.5 -51q0 -26 -18 -43.5
t-56 -15.5l-30 118q-18 0 -37.5 -5t-36 -15t-27 -25t-10.5 -35q0 -17 11 -42.5t31 -52.5l42 -58q40 -55 40 -109q0 -39 -18 -70t-45.5 -53.5t-60.5 -34.5t-62 -12z" />
    <glyph glyph-name="uni0456" unicode="&#x456;" horiz-adv-x="309" 
d="M315 641q-26 0 -43.5 17.5t-17.5 43.5t17.5 43.5t43.5 17.5t43.5 -17.5t17.5 -43.5t-17.5 -43.5t-43.5 -17.5zM161 402l-78 46l2 4l213 59l-166 -420q-15 -38 -18 -58t11 -20q22 0 61 36t80 105l10 -6q-50 -83 -98 -122t-108 -39q-42 0 -46.5 28.5t18.5 85.5z" />
    <glyph glyph-name="uni0457" unicode="&#x457;" horiz-adv-x="309" 
d="M233 641q-26 0 -43.5 17.5t-17.5 43.5t17.5 43.5t43.5 17.5t43.5 -17.5t17.5 -43.5t-17.5 -43.5t-43.5 -17.5zM403 641q-26 0 -43.5 17.5t-17.5 43.5t17.5 43.5t43.5 17.5t43.5 -17.5t17.5 -43.5t-17.5 -43.5t-43.5 -17.5zM161 402l-78 46l2 4l213 59l-166 -420
q-15 -38 -18 -58t11 -20q22 0 61 36t80 105l10 -6q-50 -83 -98 -122t-108 -39q-42 0 -46.5 28.5t18.5 85.5z" />
    <glyph glyph-name="uni0458" unicode="&#x458;" horiz-adv-x="276" 
d="M77 448l2 4l210 59l-171 -466q-15 -41 -26.5 -69t-23 -47.5t-24.5 -32.5t-31 -24l-208 -128l-5 9q33 23 62 43.5t51 37.5q19 15 33.5 33.5t26 42t22.5 52t24 63.5l138 375zM305 641q-26 0 -43.5 17.5t-17.5 43.5t17.5 43.5t43.5 17.5t43.5 -17.5t17.5 -43.5t-17.5 -43.5
t-43.5 -17.5z" />
    <glyph glyph-name="uni0459" unicode="&#x459;" horiz-adv-x="632" 
d="M87 82q45 85 94.5 189.5t105.5 230.5h93l-47 -207h71q91 0 134.5 -29t43.5 -86q0 -38 -21 -73t-55 -61.5t-77 -42.5t-88 -16q-88 0 -119.5 45.5t-5.5 151.5l66 274q-51 -112 -95 -206t-84 -170q-14 -26 -26.5 -44.5t-25 -29.5t-26.5 -16t-32 -5q-22 0 -32.5 13t-10.5 32
q0 14 4.5 27t15.5 23h117zM301 154q-18 -80 -12 -118.5t51 -38.5q28 0 52.5 18t43.5 46t30 62.5t11 67.5q0 42 -16.5 68t-60.5 26h-69z" />
    <glyph glyph-name="uni045A" unicode="&#x45a;" horiz-adv-x="718" 
d="M0 -10l161 413l-78 45l2 4l208 59l-103 -268l165 31l90 219l100 19l-89 -217h34q91 0 134.5 -29t43.5 -86q0 -38 -21 -73t-55 -61.5t-77 -42.5t-88 -16q-44 0 -74.5 11t-45.5 35t-13 61t24 90l33 80l-165 -32l-86 -223zM398 154q-64 -157 28 -157q28 0 52.5 18t43.5 46
t30 62.5t11 67.5q0 42 -16.5 68t-60.5 26h-34z" />
    <glyph glyph-name="uni045B" unicode="&#x45b;" horiz-adv-x="545" 
d="M130 129q15 27 31 56.5t32.5 58t33 55.5t30.5 49q46 72 91 117t95 45q57 0 66.5 -42t-25.5 -117l-121 -261q-17 -37 -19 -57.5t12 -20.5q22 0 61 36t80 105l10 -6q-50 -83 -98 -122t-108 -39q-42 0 -47 29.5t21 85.5l127 274q17 37 24.5 59.5t7.5 34.5t-6 16t-15 4
q-16 0 -35 -13.5t-39 -36t-41.5 -52.5t-41.5 -62q-29 -45 -56 -94t-49.5 -92.5t-39 -78t-23.5 -52.5l-95 -18l211 605h-77l12 35h77l41 118h-78l4 10h168l-45 -128h139l-12 -35h-140l-107 -304l-58 -162h2z" />
    <glyph glyph-name="uni045C" unicode="&#x45c;" horiz-adv-x="544" 
d="M464 758h129l-1 -3l-234 -176h-11zM0 -10l161 413l-78 45l2 4l208 59l-95 -247l142 135q35 34 58 55.5t40.5 34t32 17.5t32.5 5q27 0 41.5 -16t14.5 -37q0 -13 -5 -26.5t-15 -24t-25 -17.5t-34 -7l-19 107q-21 -13 -43.5 -33.5t-64.5 -60.5l-143 -133h75l57 -161
q17 -48 27 -65.5t24 -17.5q9 0 20 8.5t22.5 23.5t21.5 35.5t16 44.5l11 -5q-20 -66 -54 -102.5t-77 -36.5q-19 0 -32.5 5t-24 17.5t-19.5 33t-20 51.5l-60 168l-97 -253z" />
    <glyph glyph-name="uni045E" unicode="&#x45e;" horiz-adv-x="527" 
d="M15 -248h-106l236 268l-7 462l-86 -16l4 11l180 34l9 -476l246 312l-46 123q9 22 26 31.5t34 9.5q22 0 38 -14.5t16 -41.5q0 -19 -10 -42.5t-33 -52.5l-278 -352zM362 598q-46 0 -74 13t-41.5 34.5t-12.5 50.5t14 62h86q-14 -36 -21 -63.5t-5 -47t15 -29.5t39 -10
q27 0 47 10t36 29.5t29.5 47t27.5 63.5h86q-30 -78 -91.5 -119t-134.5 -41z" />
    <glyph glyph-name="uni045F" unicode="&#x45f;" horiz-adv-x="557" 
d="M233 0q-21 -30 -32.5 -61t-11.5 -54q0 -32 14 -47.5t50 -18.5l-2 -8q-73 -8 -109 10.5t-36 50.5q0 36 34.5 69.5t82.5 58.5h10zM400 368h-2q-15 -27 -31 -56.5t-32.5 -58t-33 -55.5t-30.5 -49q-23 -36 -45.5 -66t-45 -51t-46 -33t-49.5 -12q-57 0 -65 41.5t24 117.5
l138 336l-86 -16l4 11l186 35l-160 -390q-15 -38 -22 -60.5t-7.5 -34.5t4.5 -15.5t14 -3.5q15 0 34 13.5t40 36t42 52t41 62.5q28 46 56 94.5t51.5 92.5t40.5 79t25 55l101 19l-165 -421q-15 -38 -17.5 -58t11.5 -20q22 0 61 36t80 105l10 -6q-50 -83 -98 -122t-108 -39
q-42 0 -45 28t20 85z" />
    <glyph glyph-name="uni0491" unicode="&#x491;" horiz-adv-x="428" 
d="M0 -10l196 502h-78l4 10h239q17 0 24.5 2.5t21.5 15.5l142 141h6l-66 -169h-200l-189 -483z" />
    <glyph glyph-name="uni0463" unicode="&#x463;" horiz-adv-x="729" 
d="M669 180q0 -38 -19.5 -73t-51.5 -61.5t-73.5 -42.5t-86.5 -16q-44 0 -75 11.5t-46.5 36t-13.5 61.5t26 88l89 192q17 37 24.5 59.5t7.5 34.5t-6 16t-15 4q-16 0 -35 -13.5t-39 -36t-41.5 -52.5t-41.5 -62q-29 -46 -56.5 -94.5t-51 -92t-40.5 -78t-24 -52.5l-100 -19
l161 413l-78 45l2 4l208 59l-149 -381h2q15 27 31 56.5t32.5 58t33 55.5t30.5 49q46 72 91 117t95 45q57 0 66.5 -42t-25.5 -117l-26 -57h27q91 0 129.5 -29t38.5 -86zM409 154q-35 -78 -26 -117.5t54 -39.5q28 0 52.5 18t43.5 46t30 62.5t11 67.5q0 42 -16.5 68t-60.5 26
h-28z" />
    <glyph glyph-name="uni0473" unicode="&#x473;" horiz-adv-x="488" 
d="M159 -13q-40 0 -66 14t-41.5 35.5t-21.5 48t-6 51.5q0 45 14.5 90.5t38 87t55 77.5t65.5 62.5t68.5 42t64.5 15.5q40 0 66 -14t41.5 -35.5t21.5 -48t6 -51.5q0 -45 -14.5 -90.5t-38 -87t-55 -77.5t-65.5 -62.5t-68.5 -42t-64.5 -15.5zM146 260q32 19 55 23.5t41 0.5
t31.5 -13t25 -16.5t22.5 -11t24 4.5q8 33 11.5 65t3.5 58q0 66 -11 96t-43 30q-29 0 -54 -20.5t-45 -54.5t-35.5 -76.5t-25.5 -85.5zM183 1q28 0 52.5 20t45 53t36 75t25.5 85q-25 -20 -45 -25.5t-37 -2.5t-31.5 12t-28.5 17t-28 12t-29 -1q-14 -67 -14 -119q0 -66 11 -96
t43 -30z" />
    <glyph glyph-name="uni0475" unicode="&#x475;" horiz-adv-x="548" 
d="M495 430l-349 -440h-6l2 492l-86 -16l4 11l180 34l-6 -395l259 327q13 16 23 28.5t20 21.5t21.5 13.5t26.5 4.5q17 0 27.5 -10.5t10.5 -26.5q0 -11 -5 -23.5t-14 -20.5h-108z" />
    <glyph glyph-name="uni0493" unicode="&#x493;" horiz-adv-x="484" 
d="M174 -13q-162 0 -162 101q0 53 35 87.5t112 68.5h-137l14 35h212q37 14 61 31.5t37.5 37.5t19 40.5t5.5 40.5q0 32 -14 51.5t-39 19.5q-23 0 -39 -8t-34 -25l-150 -140h-7l88 162q33 11 72 16.5t71 5.5q73 0 110.5 -23t37.5 -74q0 -43 -25 -74.5t-82 -60.5h110l-14 -35
h-174l-8 -3l-36 -14q-39 -15 -64 -34t-39.5 -39t-19.5 -41t-5 -40q0 -32 19.5 -54t47.5 -22q26 0 41 5.5t35 25.5l145 147h7l-79 -169q-38 -10 -78 -14.5t-74 -4.5z" />
    <glyph glyph-name="uni0497" unicode="&#x497;" horiz-adv-x="890" 
d="M225 511q38 0 61 -27t23 -75q0 -44 -11.5 -90.5t-31.5 -92.5l131 21l94 246l101 19l-96 -250l133 22q21 46 47.5 87t55.5 72t59 49.5t57 18.5q10 0 22 -2.5t22 -8.5t16.5 -17t6.5 -28q0 -20 -9.5 -33.5t-22.5 -21.5t-27 -11t-23 -2l5 115q-13 -2 -30 -20t-35.5 -48
t-36.5 -70t-32 -86t-23 -96.5t-9 -100.5q0 -29 5.5 -46.5t18.5 -17.5q22 0 53 36.5t60 103.5l11 -4l-12 -27q-10 -25 -14.5 -46t-5.5 -42t2 -45.5t8 -57.5q6 -37 4.5 -64t-15.5 -45t-41.5 -27t-72.5 -9l1 10q16 0 25.5 8t13.5 22t5 34.5t1 44.5q0 37 8.5 66.5t22.5 56.5
q-40 -45 -85 -45q-38 0 -61 27t-23 75q0 44 11.5 90.5t31.5 92.5l-132 -20l-93 -243l-100 -19l94 246l-131 -21q-21 -46 -47.5 -87t-56 -72.5t-59.5 -50t-57 -18.5q-11 0 -22.5 2.5t-21.5 8.5t-16.5 17t-6.5 28q0 20 9.5 33.5t22.5 21.5t27 11t23 2l-5 -115q13 2 30 20
t35.5 48t36.5 70t32 86t23 96t9 101q0 29 -5.5 46.5t-18.5 17.5q-22 0 -53 -36.5t-60 -103.5l-11 4q31 75 70 120.5t85 45.5z" />
    <glyph glyph-name="uni049B" unicode="&#x49b;" horiz-adv-x="544" 
d="M0 -10l161 413l-78 45l2 4l208 59l-95 -247l142 135q35 34 58 55.5t40.5 34t32 17.5t32.5 5q27 0 41.5 -16t14.5 -37q0 -13 -5 -26.5t-15 -24t-25 -17.5t-34 -7l-19 107q-21 -13 -43.5 -33.5t-64.5 -60.5l-143 -133h75l57 -161q17 -48 27 -65.5t24 -17.5q9 0 20 8.5
t22.5 23.5t21.5 35.5t16 44.5l11 -5q-2 -7 -4 -13t-4 -11q0 -1 -0.5 -1t-0.5 -1q-22 -56 -53 -84q10 20 22.5 40t27.5 47l12 23l-8 -24q0 -1 -0.5 -1t-0.5 -1q-5 -18 -7 -35.5t-1 -37t4 -42t8 -50.5q6 -37 4.5 -64t-15.5 -45t-41.5 -27t-72.5 -9l1 10q16 0 25.5 8t13.5 22
t5 34.5t1 44.5q0 36 5.5 61t16.5 46q-32 -29 -69 -29q-19 0 -32.5 5t-24 17.5t-19.5 33t-20 51.5l-60 168l-97 -253z" />
    <glyph glyph-name="uni04A3" unicode="&#x4a3;" horiz-adv-x="554" 
d="M0 -10l161 413l-78 45l2 4l208 59l-107 -278l169 31l87 229l101 19l-165 -421q-15 -38 -17.5 -58t11.5 -20q22 0 61 36t80 105l10 -6q-20 -33 -28.5 -56.5t-9.5 -46t3.5 -48t10.5 -62.5t4.5 -64t-15.5 -45t-41.5 -27t-72.5 -9l1 10q16 0 25.5 8t13.5 22t5 34.5t1 44.5
q0 27 2.5 47.5t7.5 38t12.5 33t17.5 32.5q-64 -73 -143 -73q-42 0 -44.5 28t19.5 85l59 154l-169 -33l-82 -212z" />
    <glyph glyph-name="uni04AF" unicode="&#x4af;" horiz-adv-x="560" 
d="M46 -248l99 250l-7 480l-86 -16l4 11l180 34l9 -477l246 313l-46 123q9 22 26 31.5t34 9.5q22 0 38 -14.5t16 -41.5q0 -19 -10 -42.5t-33 -52.5l-281 -358l-99 -250h-90z" />
    <glyph glyph-name="uni04B1" unicode="&#x4b1;" horiz-adv-x="560" 
d="M46 -248l99 250l-7 480l-86 -16l4 11l180 34l9 -477l246 313l-46 123q9 22 26 31.5t34 9.5q22 0 38 -14.5t16 -41.5q0 -19 -10 -42.5t-33 -52.5l-281 -358l-99 -250h-90zM14 1h349l-15 -35h-349z" />
    <glyph glyph-name="uni04B3" unicode="&#x4b3;" horiz-adv-x="582" 
d="M305 -13q-15 0 -25 5t-16.5 17.5t-10.5 33t-8 51.5l-11 91q-44 -67 -74.5 -106.5t-53 -59.5t-41.5 -26t-40 -6q-29 0 -44 16t-15 37q0 13 5 26.5t15 24t25 17.5t34 7l20 -111q31 11 69.5 61t97.5 136l-21 170q-4 32 -7 53t-7 33t-8.5 17t-11.5 5q-9 0 -22 -8.5t-28 -23.5
t-29.5 -35.5t-26.5 -44.5l-10 5q37 70 84 104.5t90 34.5q15 0 25 -5t16.5 -17.5t10.5 -33t8 -51.5l12 -97q45 69 76 109.5t54.5 61.5t42.5 27t40 6q29 0 44 -16t15 -37q0 -13 -5 -26.5t-15 -24t-25 -17.5t-34 -7l-20 111q-32 -12 -72 -64.5t-99 -138.5l20 -164q4 -32 7 -53
t7 -33t8.5 -17t11.5 -5q9 0 22 8.5t28 23.5t29.5 35.5t26.5 44.5l10 -5l-7 -13q-12 -23 -16 -42t-3 -39t5.5 -43t9.5 -54q6 -37 4.5 -64t-15.5 -45t-41.5 -27t-72.5 -9l1 10q16 0 25.5 8t13.5 22t5 34.5t1 44.5q0 45 9.5 76.5t26.5 63.5q-29 -32 -60 -47t-60 -15z" />
    <glyph glyph-name="uni04B7" unicode="&#x4b7;" horiz-adv-x="527" 
d="M382 400h-2q-28 -47 -56.5 -88.5t-58.5 -73t-61 -50t-63 -18.5q-57 0 -64.5 41.5t23.5 117.5l62 153l-86 -16l4 11l186 35l-84 -207q-15 -37 -22 -59.5t-7.5 -34.5t4.5 -16t14 -4q18 0 42 18.5t49 47t50 64t46 69t36 61.5t21 42l101 19l-165 -421q-15 -38 -17.5 -58
t11.5 -20q22 0 61 36t80 105l10 -6q-20 -33 -28.5 -56.5t-9.5 -46t3.5 -48t10.5 -62.5t4.5 -64t-15.5 -45t-41.5 -27t-72.5 -9l1 10q16 0 25.5 8t13.5 22t5 34.5t1 44.5q0 53 10 86t30 66q-33 -38 -67 -56t-76 -18t-45 28t20 85z" />
    <glyph glyph-name="uni04BB" unicode="&#x4bb;" horiz-adv-x="545" 
d="M130 129q15 27 31 56.5t32.5 58t33 55.5t30.5 49q46 72 91 117t95 45q57 0 66.5 -42t-25.5 -117l-121 -261q-17 -37 -19 -57.5t12 -20.5q22 0 61 36t80 105l10 -6q-50 -83 -98 -122t-108 -39q-42 0 -47 29.5t21 85.5l127 274q17 37 24.5 59.5t7.5 34.5t-6 16t-15 4
q-16 0 -35 -13.5t-39 -36t-41.5 -52.5t-41.5 -62q-29 -45 -56 -94t-49.5 -92.5t-39 -78t-23.5 -52.5l-95 -18l264 758h-78l4 10h168l-165 -467l-58 -162h2z" />
    <glyph glyph-name="uni04CF" unicode="&#x4cf;" horiz-adv-x="280" 
d="M-73 10h78l291 738h-78l4 10h246l-4 -10h-78l-291 -738h78l-4 -10h-246z" />
    <glyph glyph-name="uni04D9" unicode="&#x4d9;" horiz-adv-x="469" 
d="M314.98 510.969q27.999 0 51.9971 -8.99902q23.999 -9 41.4971 -26.999q17.499 -17.999 27.499 -46.4971q9.99902 -28.498 9.99902 -67.4961q0 -49.9961 -15.499 -97.4932q-15.499 -47.498 -40.4971 -88.9951q-24.999 -41.4971 -58.4971 -75.9951t-69.4951 -59.4961
q-35.998 -24.999 -71.9961 -38.498t-67.9961 -13.499q-42.9971 0 -70.4951 23.998q-27.499 23.999 -27.499 58.9971q0 57.9961 59.9971 96.9941l227.985 7.99902q15 34.998 23.499 73.9951q8.49902 38.998 8.49902 79.9951q0 66.9961 -21.498 109.494
q-21.499 42.4971 -64.4961 42.4971q-44.9971 0 -85.9951 -41.9971q-40.9971 -41.998 -72.9951 -114.993l-10 4q34.998 84.9941 89.9951 133.991q54.9961 48.9971 135.991 48.9971zM121.992 -4q24.999 0 50.9971 12.499q25.999 12.5 50.4971 34.998
q24.498 22.499 46.4971 52.9971t37.998 67.4961l-61.9961 -2q-40.998 -1 -72.9961 -14.499t-53.4961 -32.498q-21.499 -18.999 -32.998 -39.998q-11.5 -20.998 -11.5 -38.9971q0 -19.999 12.999 -29.998q13 -10 33.998 -10z" />
    <glyph glyph-name="uni04E3" unicode="&#x4e3;" horiz-adv-x="557" 
d="M400 368h-2q-15 -27 -31 -56.5t-32.5 -58t-33 -55.5t-30.5 -49q-23 -36 -45.5 -66t-45 -51t-46 -33t-49.5 -12q-57 0 -65 41.5t24 117.5l138 336l-86 -16l4 11l186 35l-160 -390q-15 -38 -22 -60.5t-7.5 -34.5t4.5 -15.5t14 -3.5q15 0 34 13.5t40 36t42 52t41 62.5
q28 46 56 94.5t51.5 92.5t40.5 79t25 55l101 19l-165 -421q-15 -38 -17.5 -58t11.5 -20q22 0 61 36t80 105l10 -6q-50 -83 -98 -122t-108 -39q-42 0 -45 28t20 85zM239 705h310l-21 -61h-310z" />
    <glyph glyph-name="uni04E9" unicode="&#x4e9;" horiz-adv-x="488" 
d="M159 -13q-40 0 -66 14t-41.5 35.5t-21.5 48t-6 51.5q0 45 14.5 90.5t38 87t55 77.5t65.5 62.5t68.5 42t64.5 15.5q40 0 66 -14t41.5 -35.5t21.5 -48t6 -51.5q0 -45 -14.5 -90.5t-38 -87t-55 -77.5t-65.5 -62.5t-68.5 -42t-64.5 -15.5zM183 1q31 0 57 23.5t47 61
t36.5 84.5t24.5 93l-210 -39q-9 -53 -9 -97q0 -66 11 -96t43 -30zM306 497q-31 0 -57 -23.5t-47 -61t-36.5 -84t-24.5 -92.5l209 39q5 26 7.5 50.5t2.5 45.5q0 66 -11 96t-43 30z" />
    <glyph glyph-name="uni04EF" unicode="&#x4ef;" horiz-adv-x="526" 
d="M15 -248h-106l236 268l-7 462l-86 -16l4 11l180 34l9 -476l246 312l-46 123q9 22 26 31.5t34 9.5q22 0 38 -14.5t16 -41.5q0 -19 -10 -42.5t-33 -52.5l-278 -352zM237 705h310l-21 -61h-310z" />
    <glyph glyph-name="uni0414.aalt" horiz-adv-x="774" 
d="M473 633l-435 -623h481zM24 10l448 641l-8 107h107l56 -748h83l-61 -234h-6l-37 206q-2 13 -9 15.5t-24 2.5h-514q-17 0 -25.5 -2.5t-19.5 -15.5l-163 -206h-6l83 234h96z" />
    <glyph glyph-name="uni041B.aalt" horiz-adv-x="728" 
d="M389 10h93l-46 623l-436 -623h92l-3 -10h-188l3 10h83l448 640l-8 108h107l56 -748h83l-3 -10h-284z" />
    <glyph glyph-name="uni0432.aalt" horiz-adv-x="505" 
d="M156 -13q-42 0 -72.5 14t-46 44t-13.5 75.5t27 108.5l141 357q38 97 101.5 151t156.5 54q49 0 78.5 -16t43 -42t12.5 -60.5t-14 -71.5q-27 -75 -92.5 -119.5t-158.5 -61.5v-1q42 -4 73 -21.5t48 -46.5t18.5 -69.5t-15.5 -90.5q-15 -45 -44.5 -82.5t-67.5 -64.5t-83.5 -42
t-91.5 -15zM218 424h40q83 0 133.5 49.5t79.5 131.5q31 86 23.5 130.5t-52.5 44.5q-21 0 -39.5 -7.5t-36.5 -27t-37 -53.5t-40 -88zM159 -3q61 0 105.5 47t77.5 146q35 106 17.5 165t-86.5 59h-59l-85 -216q-17 -44 -23 -81t-1.5 -63.5t18.5 -41.5t36 -15z" />
    </font>
</defs>
</svg>
