<?xml version="1.0" standalone="no"?>
<!DOCTYPE svg PUBLIC "-//W3C//DTD SVG 1.1//EN" "http://www.w3.org/Graphics/SVG/1.1/DTD/svg11.dtd" >
<svg xmlns="http://www.w3.org/2000/svg" xmlns:xlink="http://www.w3.org/1999/xlink" version="1.1">
<metadata>
Created by Christoph Koeberlin (http://christoph.koe.berlin)
Copyright (c) 2017 Swiss Typefaces Sarl. All rights reserved.
</metadata>
<defs>
<font id="Font" horiz-adv-x="0" >
  <font-face 
    font-family="Font"
    font-weight="700"
    font-style="italic"
    font-stretch="normal"
    units-per-em="1000"
    panose-1="2 4 8 4 8 0 0 0 0 4"
    ascent="800"
    descent="-200"
    x-height="502"
    cap-height="758"
    bbox="-453 -403 1493 1078"
    underline-thickness="71"
    underline-position="-130"
    slope="-17"
    unicode-range="U+0020-FEFF"
  />
<missing-glyph horiz-adv-x="636" 
d="M68 758h500v-758h-500v758zM318 396l217 343h-434zM87 30l221 349l-221 349v-698zM549 30v698l-220 -349zM535 19l-217 343l-217 -343h434z" />
    <glyph glyph-name="f_f.liga" unicode="ff" horiz-adv-x="686" 
d="M458 425h-185l-54 -244q-27 -120 -69 -204t-89.5 -137t-96 -77t-87.5 -24q-42 0 -63.5 22t-21.5 52q0 25 19.5 46.5t48.5 23.5q13 -14 26 -28.5t26 -26t25 -19t23 -7.5q9 0 17 4.5t16 19.5t16.5 43t18.5 75l103 481h-83l10 32q29 3 50.5 8.5t39 18t32.5 33.5t32 55
q29 60 59.5 97.5t60 58.5t57 28.5t50.5 7.5q35 0 52.5 -16t17.5 -43q0 -22 -10 -44.5t-28 -33.5q-25 8 -48.5 11.5t-44.5 3.5q-66 0 -99 -26t-33 -63q0 -28 16 -39.5t52 -11.5h122q28 0 45 7.5t27.5 19t17 25.5t13.5 28q29 60 59.5 99t60 62t57 32t50.5 9q35 0 52.5 -16
t17.5 -43q0 -22 -10 -44.5t-28 -33.5q-25 8 -48.5 11.5t-44.5 3.5q-33 0 -58 -8.5t-41.5 -22.5t-24.5 -32t-8 -36q0 -28 16 -44.5t52 -16.5h135l-50 -77h-126l-45 -205q-26 -120 -68 -204t-90 -137t-96.5 -77t-87.5 -24q-42 0 -63.5 22t-21.5 52q0 25 19.5 46.5t48.5 23.5
q13 -14 26 -28.5t26 -26t25 -19t23 -7.5q9 0 17 4.5t16 19.5t16.5 43t18.5 75z" />
    <glyph glyph-name="f_i.liga" unicode="fi" horiz-adv-x="644" 
d="M525 710q0 18 7.5 35t20.5 30t30 20.5t35 7.5q19 0 36 -7.5t30 -20.5t20.5 -30t7.5 -35q0 -19 -7.5 -36t-20.5 -30t-30 -20.5t-36 -7.5q-18 0 -35 7.5t-30 20.5t-20.5 30t-7.5 36zM-123 -261q-42 0 -63.5 22t-21.5 52q0 25 19.5 46.5t48.5 23.5q13 -14 26 -28.5t26 -26
t25 -19t23 -7.5q9 0 17 4.5t16 19.5t16.5 43t18.5 75l103 481h-83l10 32q29 2 50.5 9t39 21.5t32.5 37.5t32 57q29 60 57.5 99t56 62t52.5 32t46 9q35 0 52.5 -16t17.5 -43q0 -22 -10 -44.5t-28 -33.5q-25 8 -48.5 11.5t-44.5 3.5q-31 0 -53 -8.5t-36.5 -22.5t-21 -32
t-6.5 -36q0 -28 16 -44.5t52 -16.5h312l-149 -387q-15 -40 -16.5 -56t14.5 -16q9 0 24.5 8t34 25t38.5 45t40 67l29 -12q-21 -43 -46 -78t-55.5 -59.5t-68 -38t-82.5 -13.5q-32 0 -49.5 9t-24 24.5t-3 37.5t13.5 49l123 318h-176l-54 -244q-27 -120 -69 -204t-89.5 -137
t-96 -77t-87.5 -24z" />
    <glyph glyph-name="f_f_i.liga" unicode="ffi" horiz-adv-x="969" 
d="M850 710q0 18 7.5 35t20.5 30t30 20.5t35 7.5q19 0 36 -7.5t30 -20.5t20.5 -30t7.5 -35q0 -19 -7.5 -36t-20.5 -30t-30 -20.5t-36 -7.5q-18 0 -35 7.5t-30 20.5t-20.5 30t-7.5 36zM-123 -261q-42 0 -63.5 22t-21.5 52q0 25 19.5 46.5t48.5 23.5q13 -14 26 -28.5t26 -26
t25 -19t23 -7.5q9 0 17 4.5t16 19.5t16.5 43t18.5 75l103 481h-83l10 32q29 4 50.5 9.5t39 18t32.5 33t32 54.5q29 60 59.5 97.5t60 58.5t57 28.5t50.5 7.5q35 0 52.5 -16t17.5 -43q0 -22 -10 -44.5t-28 -33.5q-25 8 -48.5 11.5t-44.5 3.5q-66 0 -99 -26t-33 -63
q0 -28 16 -39.5t52 -11.5h120q28 0 45 7.5t27.5 19t17 25.5t13.5 28q29 60 57.5 99t55.5 62t52 32t47 9q35 0 52.5 -16t17.5 -43q0 -22 -10 -44.5t-28 -33.5q-25 8 -48.5 11.5t-44.5 3.5q-31 0 -53 -8.5t-36.5 -22.5t-21 -32t-6.5 -36q0 -28 16 -44.5t52 -16.5h312
l-149 -387q-15 -40 -16.5 -56t14.5 -16q9 0 24.5 8t34 25t38.5 45t40 67l29 -12q-21 -43 -46 -78t-55.5 -59.5t-68 -38t-82.5 -13.5q-32 0 -49.5 9t-24 24.5t-3 37.5t13.5 49l123 318h-176l-45 -205q-26 -120 -68 -204t-90 -137t-96.5 -77t-87.5 -24q-42 0 -63.5 22
t-21.5 52q0 25 19.5 46.5t48.5 23.5q13 -14 26 -28.5t26 -26t25 -19t23 -7.5q9 0 17 4.5t16 19.5t16.5 43t18.5 75l94 442h-183l-54 -244q-27 -120 -69 -204t-89.5 -137t-96 -77t-87.5 -24z" />
    <glyph glyph-name="f_l.liga" unicode="fl" horiz-adv-x="667" 
d="M-123 -261q-42 0 -63.5 22t-21.5 52q0 25 19.5 46.5t48.5 23.5q13 -14 26 -28.5t26 -26t25 -19t23 -7.5q9 0 17 4.5t16 19.5t16.5 43t18.5 75l103 481h-83l10 32q29 2 50.5 9t39 21.5t32.5 37.5t32 57q29 60 59.5 99t60 62t57 32t50.5 9q31 0 48 -12.5t21 -33.5l232 64
l-236 -687q-14 -41 -16 -56.5t14 -15.5q9 0 24.5 8t34 25t38.5 45t40 67l29 -12q-21 -43 -46 -78t-55.5 -59.5t-68 -38t-82.5 -13.5q-32 0 -49.5 8.5t-23.5 24.5t-2.5 38t12.5 49l191 557l-39 33q-5 -16 -13.5 -29t-20.5 -21q-25 8 -48.5 11.5t-44.5 3.5q-33 0 -58 -8.5
t-41.5 -22.5t-24.5 -32t-8 -36q0 -28 16 -44.5t52 -16.5h125l-50 -77h-116l-54 -244q-27 -120 -69 -204t-89.5 -137t-96 -77t-87.5 -24z" />
    <glyph glyph-name="f_f_l.liga" unicode="ffl" horiz-adv-x="1000" 
d="M-123 -261q-42 0 -63.5 22t-21.5 52q0 25 19.5 46.5t48.5 23.5q13 -14 26 -28.5t26 -26t25 -19t23 -7.5q9 0 17 4.5t16 19.5t16.5 43t18.5 75l103 481h-83l10 32q29 4 50.5 9.5t39 18t32.5 33t32 54.5q29 60 59.5 97.5t60 58.5t57 28.5t50.5 7.5q35 0 52.5 -16t17.5 -43
q0 -22 -10 -44.5t-28 -33.5q-25 8 -48.5 11.5t-44.5 3.5q-66 0 -99 -26t-33 -63q0 -28 16 -39.5t52 -11.5h124q28 0 45 7.5t27.5 19t17 25.5t13.5 28q29 60 59.5 99t60 62t57 32t50.5 9q32 0 48.5 -12.5t20.5 -34.5l236 65l-236 -687q-14 -41 -16 -56.5t14 -15.5q9 0 24.5 8
t34 25t38.5 45t40 67l29 -12q-21 -43 -46 -78t-55.5 -59.5t-68 -38t-82.5 -13.5q-32 0 -49.5 8.5t-23.5 24.5t-2.5 38t12.5 49l191 557l-42 36q-5 -17 -13.5 -31t-21.5 -22q-25 8 -48.5 11.5t-44.5 3.5q-33 0 -58 -8.5t-41.5 -22.5t-24.5 -32t-8 -36q0 -28 16 -44.5
t52 -16.5h135l-50 -77h-126l-45 -205q-26 -120 -68 -204t-90 -137t-96.5 -77t-87.5 -24q-42 0 -63.5 22t-21.5 52q0 25 19.5 46.5t48.5 23.5q13 -14 26 -28.5t26 -26t25 -19t23 -7.5q9 0 17 4.5t16 19.5t16.5 43t18.5 75l94 442h-187l-54 -244q-27 -120 -69 -204t-89.5 -137
t-96 -77t-87.5 -24z" />
    <glyph glyph-name=".notdef" horiz-adv-x="636" 
d="M68 758h500v-758h-500v758zM318 396l217 343h-434zM87 30l221 349l-221 349v-698zM549 30v698l-220 -349zM535 19l-217 343l-217 -343h434z" />
    <glyph glyph-name="glyph1" 
 />
    <glyph glyph-name="glyph2" horiz-adv-x="220" 
 />
    <glyph glyph-name="space" unicode=" " horiz-adv-x="220" 
 />
    <glyph glyph-name="exclam" unicode="!" horiz-adv-x="296" 
d="M124 241q17 66 25 113t11.5 84t4.5 68.5t4.5 65.5t11.5 75t26 98q3 11 19 19t37 11.5t44 3t41.5 -5.5t29 -14.5t6.5 -23.5q-17 -55 -34 -94.5t-34 -72t-35 -63.5t-37.5 -67.5t-41 -83.5t-44.5 -113h-34zM105 -13q-20 0 -37 7.5t-30 21t-20.5 31.5t-7.5 39q0 19 7.5 36.5
t20.5 30.5t30 20.5t37 7.5q21 0 39 -7.5t31.5 -20.5t21 -30.5t7.5 -36.5q0 -42 -28.5 -70.5t-70.5 -28.5z" />
    <glyph glyph-name="quotedbl" unicode="&#x22;" horiz-adv-x="416" 
d="M184 721q4 32 21.5 45t65.5 13q46 0 57.5 -17.5t-13.5 -62.5l-120 -216h-43zM376 721q4 32 21.5 45t65.5 13q46 0 57.5 -17.5t-13.5 -62.5l-120 -216h-43z" />
    <glyph glyph-name="numbersign" unicode="#" horiz-adv-x="790" 
d="M188 195h-172l30 72h171l90 221h-172l29 72h172l88 216h78l-88 -216h189l88 216h78l-88 -216h172l-29 -72h-172l-90 -221h172l-29 -72h-172l-79 -195h-78l79 195h-189l-79 -195h-78zM484 267l90 221h-189l-90 -221h189z" />
    <glyph glyph-name="dollar" unicode="$" horiz-adv-x="579" 
d="M509 886l-34 -107h6q36 0 67.5 -7t54.5 -19.5t36.5 -31t13.5 -40.5q0 -23 -10.5 -42.5t-30 -32.5t-46.5 -19t-60 -1q23 69 14.5 106.5t-59.5 40.5l-85 -269l26 -20q32 -24 56 -45t40.5 -43t25 -46.5t8.5 -56.5q0 -49 -22.5 -94.5t-63 -81.5t-96.5 -59.5t-124 -29.5
l-34 -108h-47l34 107q-38 1 -72 9t-59.5 22.5t-40.5 35.5t-15 47q0 24 12 43t32.5 32.5t48 20t58.5 3.5q-34 -72 -19.5 -113.5t70.5 -50.5l93 296l-45 34q-50 38 -73 77.5t-23 91.5q0 45 22 85t60.5 72.5t89.5 54t109 29.5l35 110h47zM268 597q0 -29 19.5 -54t50.5 -50
l75 237q-64 -11 -104.5 -48t-40.5 -85zM400 192q0 36 -21.5 61.5t-53.5 49.5l-85 -270q33 2 62 13.5t50.5 31.5t34.5 49t13 65z" />
    <glyph glyph-name="percent" unicode="%" horiz-adv-x="981" 
d="M896 758h104l-840 -758h-104zM240 333q-34 0 -58 12t-39 32.5t-21.5 47t-6.5 55.5q0 54 20.5 106t54 93t76 66.5t85.5 25.5q34 0 57.5 -12t38.5 -32.5t22 -47t7 -55.5q0 -54 -21 -106t-54.5 -93t-75.5 -66.5t-85 -25.5zM246 362q20 0 38 16.5t33 44t26.5 61.5t19.5 69.5
t12.5 68.5t4.5 58q0 30 -9 46.5t-27 16.5q-20 0 -38 -17t-32.5 -44t-26 -61.5t-20 -70t-12.5 -68.5t-4 -58q0 -29 8.5 -45.5t26.5 -16.5zM712 -8q-34 0 -58 12t-39 32.5t-21.5 47t-6.5 55.5q0 54 20.5 106t54 93t76 66.5t85.5 25.5q34 0 57.5 -12t38.5 -32.5t22 -47t7 -55.5
q0 -54 -21 -106t-54.5 -93t-75.5 -66.5t-85 -25.5zM718 21q20 0 38 16.5t33 44t26.5 61.5t19.5 69.5t12.5 68.5t4.5 58q0 30 -9 46.5t-27 16.5q-20 0 -38 -17t-32.5 -44t-26 -61.5t-20 -70t-12.5 -68.5t-4 -58q0 -29 8.5 -45.5t26.5 -16.5z" />
    <glyph glyph-name="ampersand" unicode="&#x26;" horiz-adv-x="987" 
d="M516 245q-37 0 -59.5 24t-22.5 59q0 33 15 66t36.5 62.5t46 52t44.5 34.5q27 17 49.5 21.5t46 -3.5t50.5 -27.5t62 -50.5l34 -30q13 -11 30 -23.5t34 -23t34 -17t30 -6.5q23 0 35.5 13t12.5 33q0 17 -10.5 30.5t-25.5 23.5t-32.5 17t-30.5 10q1 45 23 68.5t53 23.5
q37 0 64 -24t27 -77q0 -29 -14.5 -57t-35.5 -53t-45.5 -45.5t-43.5 -33.5q-19 -12 -37.5 -18t-40 -2.5t-47 17.5t-58.5 42q-26 -59 -64 -123.5t-89 -118t-116 -88t-146 -34.5q-77 0 -131.5 27t-89.5 69t-51 94.5t-16 103.5q0 72 25 130.5t62 99t79.5 62.5t77.5 22
q45 0 71.5 -24t30.5 -65q38 33 63.5 65.5t41 68.5t22 77.5t6.5 91.5q17 12 42.5 21.5t44.5 9.5q50 -1 50 -42q0 -20 -15 -55.5t-44.5 -78.5t-74 -91t-104.5 -94q-105 -81 -277 -176q17 -85 79.5 -133t153.5 -48q55 0 106 14.5t95 45t80 78t62 113.5l-31 28
q-14 12 -30.5 24.5t-33.5 22.5t-33 16.5t-29 6.5q-18 0 -33 -13.5t-15 -39.5q0 -15 7.5 -29t19.5 -26t26 -21.5t28 -16.5q-1 -36 -23 -58t-51 -22zM132 363q0 -9 0.5 -18t1.5 -17q41 23 78 48.5t72 51.5q2 22 0 43t-9 37t-18 25.5t-27 9.5q-25 0 -43.5 -15.5t-30.5 -41
t-18 -58t-6 -65.5z" />
    <glyph glyph-name="quotesingle" unicode="'" horiz-adv-x="224" 
d="M184 721q4 32 21.5 45t65.5 13q46 0 57.5 -17.5t-13.5 -62.5l-120 -216h-43z" />
    <glyph glyph-name="parenleft" unicode="(" horiz-adv-x="340" 
d="M155 -247q-27 33 -52 72t-44.5 84t-31.5 94.5t-12 103.5q0 93 32 191t94 193.5t152 184t207 162.5l19 -26q-89 -71 -161 -168.5t-122.5 -203.5t-78 -211.5t-27.5 -191.5q0 -72 10.5 -138.5t39.5 -128.5z" />
    <glyph glyph-name="parenright" unicode=")" horiz-adv-x="339" 
d="M217 837q27 -33 52 -72t44.5 -84t31.5 -94.5t12 -103.5q0 -93 -32 -191t-94 -193.5t-152 -184t-207 -162.5l-19 26q89 71 161 168.5t122.5 203.5t78 211.5t27.5 191.5q0 72 -10.5 138.5t-39.5 128.5z" />
    <glyph glyph-name="asterisk" unicode="*" horiz-adv-x="501" 
d="M165 485l117 113l-109 119l18 22l143 -76l79 140l27 -10l-28 -158l157 -35v-28l-161 -23l18 -159l-28 -8l-70 146l-146 -66z" />
    <glyph glyph-name="plus" unicode="+" horiz-adv-x="649" 
d="M289 225h-229v75h229v216h79v-216h229v-75h-229v-225h-79v225z" />
    <glyph glyph-name="comma" unicode="," horiz-adv-x="305" 
d="M-46 -156q28 14 52 33t41 40t27 42t10 41q0 62 -84 78q4 27 15 45.5t26.5 30.5t34 17.5t37.5 5.5q41 0 70 -26.5t29 -74.5q0 -32 -16.5 -68t-48 -72t-76.5 -68.5t-103 -56.5z" />
    <glyph glyph-name="hyphen" unicode="-" horiz-adv-x="418" 
d="M80 303h294l-28 -81h-294z" />
    <glyph glyph-name="period" unicode="." horiz-adv-x="286" 
d="M98 -13q-20 0 -37 7.5t-30 21t-20.5 31.5t-7.5 39q0 19 7.5 36.5t20.5 30.5t30 20.5t37 7.5q21 0 39 -7.5t31.5 -20.5t21 -30.5t7.5 -36.5q0 -42 -28.5 -70.5t-70.5 -28.5z" />
    <glyph glyph-name="slash" unicode="/" horiz-adv-x="526" 
d="M560 806h107l-622 -858h-107z" />
    <glyph glyph-name="zero" unicode="0" horiz-adv-x="676" 
d="M278 -13q-59 0 -100.5 21t-68 57t-39 83t-12.5 99q0 62 16.5 125.5t46 123t69 111t86.5 90t99 60.5t105 22q59 0 100.5 -21t68 -57t39 -83t12.5 -99q0 -62 -16.5 -125.5t-46 -123t-69 -111t-86.5 -90t-99 -60.5t-105 -22zM288 30q40 0 75.5 29.5t65.5 77.5t54 109.5
t40.5 125t25 123.5t8.5 106q0 63 -21 99t-66 36q-40 0 -75.5 -29.5t-65.5 -77.5t-54 -109.5t-40.5 -125t-25 -123.5t-8.5 -106q0 -63 21 -99t66 -36z" />
    <glyph glyph-name="one" unicode="1" horiz-adv-x="382" 
d="M273 666l-142 -50l13 41l313 114l-237 -688q-9 -26 -3 -36.5t32 -12.5l20 -2l-11 -32h-292l11 33l33 4q28 3 40.5 11.5t21.5 34.5z" />
    <glyph glyph-name="two" unicode="2" horiz-adv-x="585" 
d="M-77 6q150 109 256 197.5t172.5 159t97 126t30.5 99.5q0 22 -6 42.5t-18.5 35.5t-32 24t-46.5 9q-29 0 -56 -9.5t-50.5 -30t-42 -52.5t-29.5 -78h-35q7 56 29.5 102t57.5 79t82 51t104 18q97 0 146 -44t49 -116q0 -45 -18 -86t-51.5 -80t-81 -77.5t-107.5 -78.5
l-250 -166h216q31 0 53 2t38.5 8t30 17t28.5 30l27 33h35l-129 -221h-501z" />
    <glyph glyph-name="three" unicode="3" horiz-adv-x="559" 
d="M527 294q0 -58 -29.5 -113.5t-78.5 -98.5t-111.5 -69t-128.5 -26q-44 0 -80.5 10.5t-62.5 29t-41 43.5t-15 53q0 17 8.5 32.5t24.5 26.5t37.5 15.5t47.5 -0.5q6 -36 14.5 -65.5t23.5 -51t37 -33.5t55 -12q28 0 56.5 11t51 34.5t37 59t14.5 84.5q0 42 -11.5 74t-31 54.5
t-44.5 34t-52 11.5q-16 0 -31 -3l-5 37l56 12q37 8 73 20.5t64.5 31.5t46 45.5t17.5 62.5q0 45 -29 70t-81 25q-24 0 -48.5 -6.5t-47 -22t-40 -42.5t-27.5 -68h-35q16 102 82.5 160.5t176.5 58.5q48 0 84 -11t60 -29.5t36 -43t12 -51.5t-13 -53.5t-38 -48.5t-63 -38.5
t-87 -25.5v-3q59 -30 87.5 -77.5t28.5 -103.5z" />
    <glyph glyph-name="four" unicode="4" horiz-adv-x="666" 
d="M348 190h-373l585 568h133l-159 -461h133l-37 -107h-133l-66 -190h-148zM385 297l120 346l-353 -346h233z" />
    <glyph glyph-name="five" unicode="5" horiz-adv-x="545" 
d="M173 -13q-42 0 -78.5 10.5t-63.5 29t-42.5 43.5t-15.5 53q0 17 8.5 32.5t24.5 26.5t37 15.5t47 -0.5q10 -70 42 -113t101 -43q28 0 56.5 8t51 25.5t36.5 44t14 64.5q0 72 -67 132t-185 108l181 335h338l-77 -138h-288l-42 -74q130 -51 191.5 -120.5t61.5 -152.5
q0 -68 -29 -121t-76.5 -90t-106.5 -56t-119 -19z" />
    <glyph glyph-name="six" unicode="6" horiz-adv-x="620" 
d="M270 -13q-50 0 -93 16t-74.5 46.5t-49 75t-17.5 102.5q0 76 45.5 164t134.5 170.5t220.5 151t304.5 106.5l8 -34q-96 -23 -178 -64t-148 -94.5t-115.5 -116t-80.5 -126.5q37 38 85 56t93 18q39 0 72.5 -11t57.5 -33.5t38 -56t14 -77.5q0 -47 -15 -87t-40 -72.5t-57 -57.5
t-67.5 -42t-71 -25.5t-66.5 -8.5zM179 194q0 -78 28 -122t77 -44q31 0 59 17.5t48 47t32 69t12 84.5q0 39 -11.5 66.5t-29.5 45t-40.5 25t-44.5 7.5q-20 0 -43.5 -7.5t-51.5 -26.5q-35 -85 -35 -162z" />
    <glyph glyph-name="seven" unicode="7" horiz-adv-x="610" 
d="M780 758l-381 -367q-61 -59 -105 -110.5t-75 -94t-51 -75t-33 -52.5q-12 -20 -22 -32t-19.5 -18t-19.5 -8.5t-22 -3.5l-73 -8q-12 -1 -21.5 0.5t-13.5 7t0 16t20 26.5q73 75 143.5 142.5t146 136t159 142t182.5 160.5h-252q-35 0 -57.5 -2.5t-40 -10t-32.5 -22t-34 -38.5
l-13 -17h-35l132 228h517z" />
    <glyph glyph-name="eight" unicode="8" horiz-adv-x="591" 
d="M257 -13q-53 0 -96.5 15t-75 41t-49 62.5t-17.5 78.5q0 37 16.5 70t46 59.5t70 47t89.5 32.5q-32 38 -50 80t-18 93q0 45 18.5 83.5t52 67.5t80 45.5t102.5 16.5q47 0 85.5 -12t66.5 -33t43 -50.5t15 -64.5t-17 -64.5t-45 -53.5t-65 -42t-76 -30l6 -6q43 -44 72 -90.5
t29 -106.5q0 -51 -23.5 -94.5t-62.5 -76t-90 -50.5t-107 -18zM413 449q64 23 97.5 65t33.5 94q0 57 -33.5 92t-98.5 35q-57 0 -90 -25.5t-33 -70.5q0 -42 24 -76.5t62 -73.5zM119 194q0 -42 11.5 -72.5t32.5 -50.5t50 -30t63 -10q28 0 54 7t45 21.5t30.5 36.5t11.5 51
q0 19 -8 39.5t-21.5 41.5t-30 41.5t-34.5 38.5l-64 66q-32 -13 -58 -33t-44 -44t-28 -50.5t-10 -52.5z" />
    <glyph glyph-name="nine" unicode="9" horiz-adv-x="612" 
d="M6 -19q93 24 168 66t132.5 94.5t98 113.5t65.5 124q-37 -33 -85 -52t-102 -19q-39 0 -72.5 13.5t-57.5 38.5t-38 60.5t-14 79.5q0 64 29.5 115.5t75 88t100 56t105.5 19.5t95.5 -16.5t76.5 -48t50.5 -78t18.5 -105.5q0 -71 -34.5 -154t-110.5 -164t-197.5 -151.5
t-295.5 -114.5zM253 529q0 -39 11.5 -68t29.5 -48t40.5 -28t44.5 -9q26 0 50.5 7.5t52.5 27.5q14 44 21 86.5t7 82.5q0 78 -30 118t-78 40q-33 0 -60 -15.5t-47 -43.5t-31 -66t-11 -84z" />
    <glyph glyph-name="colon" unicode=":" horiz-adv-x="315" 
d="M99 -13q-20 0 -37 7.5t-30 21t-20.5 31.5t-7.5 39q0 19 7.5 36.5t20.5 30.5t30 20.5t37 7.5q21 0 39 -7.5t31.5 -20.5t21 -30.5t7.5 -36.5q0 -42 -28.5 -70.5t-70.5 -28.5zM216 327q-20 0 -37 7.5t-30 21t-20.5 31.5t-7.5 39q0 19 7.5 36.5t20.5 30.5t30 20.5t37 7.5
q21 0 39 -7.5t31.5 -20.5t21 -30.5t7.5 -36.5q0 -42 -28.5 -70.5t-70.5 -28.5z" />
    <glyph glyph-name="semicolon" unicode=";" horiz-adv-x="323" 
d="M-45 -156q28 14 52 33t41 40t27 42t10 41q0 62 -84 78q4 27 15 45.5t26.5 30.5t34 17.5t37.5 5.5q41 0 70 -26.5t29 -74.5q0 -32 -16.5 -68t-48 -72t-76.5 -68.5t-103 -56.5zM215 327q-20 0 -37 7.5t-30 21t-20.5 31.5t-7.5 39q0 19 7.5 36.5t20.5 30.5t30 20.5t37 7.5
q21 0 39 -7.5t31.5 -20.5t21 -30.5t7.5 -36.5q0 -42 -28.5 -70.5t-70.5 -28.5z" />
    <glyph glyph-name="less" unicode="&#x3c;" horiz-adv-x="649" 
d="M36 297l527 225v-81l-423 -179l423 -179v-81l-527 226v69z" />
    <glyph glyph-name="equal" unicode="=" horiz-adv-x="649" 
d="M72 409h507v-75h-507v75zM72 179h507v-75h-507v75z" />
    <glyph glyph-name="greater" unicode="&#x3e;" horiz-adv-x="649" 
d="M625 228l-527 -226v81l423 179l-423 179v81l527 -225v-69z" />
    <glyph glyph-name="question" unicode="?" horiz-adv-x="607" 
d="M416 733q-26 0 -47 -6t-37 -20.5t-25.5 -39t-11.5 -61.5q-24 -3 -48 0t-43 12.5t-30.5 25t-11.5 36.5q1 48 55.5 73.5t158.5 25.5q59 0 110.5 -14.5t89.5 -44t59.5 -73.5t21.5 -103q0 -74 -43.5 -122.5t-146.5 -61.5l-182 -23q-23 -3 -30 -8t-16 -25l-33 -71h-32l36 167
q6 30 16 48t25 27.5t35.5 14t49.5 7.5l128 15q37 4 62 11.5t40 18t21.5 25t6.5 34.5q0 30 -16.5 54.5t-42 41.5t-57 26.5t-62.5 9.5zM160 -13q-20 0 -37 7.5t-30 21t-20.5 31.5t-7.5 39q0 19 7.5 36.5t20.5 30.5t30 20.5t37 7.5q21 0 39 -7.5t31.5 -20.5t21 -30.5t7.5 -36.5
q0 -42 -28.5 -70.5t-70.5 -28.5z" />
    <glyph glyph-name="at" unicode="@" horiz-adv-x="931" 
d="M595 158q-25 0 -40 6.5t-15 20.5q0 11 6 26l14 35l30 76h-5q-24 -35 -49.5 -64.5t-52.5 -51.5t-55 -34t-58 -12q-44 0 -72 25.5t-28 73.5q0 40 18 82t48 81.5t69 74.5t80 61.5t82 41.5t75 15q22 0 42.5 -5t40 -12.5t37 -15.5t32.5 -13l-125 -315q-6 -16 -9 -24.5
t-3 -13.5q0 -6 6 -6q24 0 65 16t80 49.5t67.5 85.5t28.5 125q0 63 -24.5 110.5t-66 78.5t-96 46.5t-113.5 15.5q-90 0 -168.5 -35.5t-137 -95.5t-92 -139t-33.5 -167q0 -70 21.5 -124t61 -91.5t95.5 -57t124 -19.5q70 0 120.5 13.5t79.5 27.5l13 -30q-37 -19 -92.5 -34.5
t-132.5 -15.5t-147.5 22t-123.5 63.5t-84.5 102t-31.5 138.5q0 61 20 121t56 114t85.5 99.5t108 78.5t125 52t135.5 19q66 0 128.5 -17.5t111 -53.5t78.5 -91t30 -131q0 -73 -30 -133t-80 -103.5t-114.5 -67.5t-134.5 -24zM435 233q15 0 39 12.5t52 39t56.5 68t51.5 100.5
l42 107q-7 19 -43 19q-35 0 -76 -29.5t-76 -74t-58.5 -96t-23.5 -96.5q0 -25 8 -37.5t28 -12.5z" />
    <glyph glyph-name="A" unicode="A" horiz-adv-x="819" 
d="M-134 36l34 4q27 3 53 12.5t52 32.5l773 703h20l-145 -699q-6 -29 3.5 -37.5t35.5 -11.5l34 -4l-11 -36h-338l11 36l36 4q27 3 44.5 11.5t24.5 37.5l35 158h-271l-177 -162q-23 -21 -26 -32t23 -13l60 -4l-11 -36h-271zM541 306l55 251l-274 -251h219z" />
    <glyph glyph-name="B" unicode="B" horiz-adv-x="766" 
d="M-21 36l36 4q27 3 43.5 11.5t25.5 37.5l178 580q9 29 -2.5 37.5t-36.5 11.5l-34 4l11 36h298q146 0 214.5 -32t66.5 -100q-1 -43 -22 -79t-59 -64t-90 -46.5t-115 -25.5v-2q48 -2 90.5 -12t75 -29.5t51.5 -48t19 -67.5q0 -49 -28.5 -94.5t-81.5 -80.5t-128 -56t-168 -21
h-355zM416 424q49 0 85.5 20t61 50.5t36.5 66t12 67.5q0 43 -24.5 64.5t-81.5 21.5h-70l-88 -290h69zM318 44q63 0 107 21t72.5 54t41.5 73t13 78q0 63 -38 86.5t-106 23.5h-75l-103 -336h88z" />
    <glyph glyph-name="C" unicode="C" horiz-adv-x="811" 
d="M433 -13q-73 0 -138.5 21.5t-114.5 62.5t-78 101t-29 137q0 99 45.5 184.5t120 149t170 100t194.5 36.5q73 0 140.5 -16.5t110.5 -45.5l-29 -235h-22l-62 177q-14 40 -40 57q-15 10 -37.5 13.5t-54.5 3.5q-70 0 -134 -33t-113.5 -93.5t-79 -145t-29.5 -186.5
q0 -54 10.5 -98.5t33.5 -76.5t59.5 -49.5t88.5 -17.5q25 0 45 2.5t40 12.5q9 5 19 12t20 18l199 203h22l-137 -263q-21 -5 -47.5 -10.5t-55 -10t-59 -7.5t-58.5 -3z" />
    <glyph glyph-name="D" unicode="D" horiz-adv-x="858" 
d="M-21 36l36 4q27 3 43.5 11.5t25.5 37.5l178 580q9 29 -2.5 37.5t-36.5 11.5l-34 4l11 36h258q205 0 309 -73t104 -209q0 -93 -42.5 -179t-119 -152t-183.5 -105.5t-236 -39.5h-322zM299 44q96 0 170 39.5t124 104t75.5 147t25.5 167.5q0 103 -55.5 157.5t-171.5 54.5h-32
l-205 -670h69z" />
    <glyph glyph-name="E" unicode="E" horiz-adv-x="770" 
d="M-21 36l36 4q27 3 43.5 11.5t25.5 37.5l178 580q9 29 -2.5 37.5t-36.5 11.5l-34 4l11 36h576l-46 -271h-22l-70 207q-4 12 -9.5 15t-21.5 3h-172l-90 -293h116q12 0 20 11l89 131h22l-103 -336h-22l-8 131q0 11 -14 11h-116l-98 -321h225q13 0 18.5 3t16.5 11l251 211h22
l-151 -271h-645z" />
    <glyph glyph-name="F" unicode="F" horiz-adv-x="729" 
d="M-21 36l36 4q27 3 43.5 11.5t25.5 37.5l178 580q9 29 -2.5 37.5t-36.5 11.5l-34 4l11 36h628l-46 -271h-22l-70 207q-4 12 -9.5 15t-21.5 3h-224l-90 -293h130q12 0 20 11l89 131h22l-103 -336h-22l-8 131q0 11 -14 11h-130l-85 -278q-9 -29 2.5 -37.5t37.5 -9.5l69 -4
l-12 -38h-373z" />
    <glyph glyph-name="G" unicode="G" horiz-adv-x="874" 
d="M429 -13q-72 0 -136.5 21.5t-113 62.5t-77.5 101t-29 137q0 99 45.5 184.5t120 149t170 100t194.5 36.5q73 0 140.5 -16.5t110.5 -45.5l-29 -235h-22l-62 177q-14 40 -40 57q-15 10 -40.5 13.5t-54.5 3.5q-69 0 -132.5 -33t-112.5 -93.5t-78.5 -145t-29.5 -186.5
q0 -54 10.5 -98t33.5 -75.5t59 -49t87 -17.5q23 0 48 4.5t52 18.5l76 202q11 29 0.5 37.5t-36.5 10.5l-90 4l15 41h394l-16 -45h-89l-76 -202l-18 -71q-48 -2 -83 -10t-65 -16.5t-59.5 -15t-66.5 -6.5z" />
    <glyph glyph-name="H" unicode="H" horiz-adv-x="907" 
d="M-21 36l36 4q27 3 43.5 11.5t25.5 37.5l178 580q9 29 -2.5 37.5t-36.5 11.5l-34 4l11 36h338l-11 -36l-36 -4q-28 -3 -44 -11.5t-25 -37.5l-74 -242h321l74 242q9 29 -2.5 37.5t-36.5 11.5l-34 4l11 36h338l-11 -36l-36 -4q-28 -3 -44 -11.5t-25 -37.5l-178 -580
q-9 -29 2 -37.5t37 -11.5l34 -4l-11 -36h-338l11 36l36 4q27 3 43.5 11.5t25.5 37.5l86 279h-321l-86 -279q-9 -29 2 -37.5t37 -11.5l34 -4l-11 -36h-338z" />
    <glyph glyph-name="I" unicode="I" horiz-adv-x="426" 
d="M-21 36l36 4q27 3 43.5 11.5t25.5 37.5l178 580q9 29 -2.5 37.5t-36.5 11.5l-34 4l11 36h338l-11 -36l-36 -4q-28 -3 -44 -11.5t-25 -37.5l-178 -580q-9 -29 2 -37.5t37 -11.5l34 -4l-11 -36h-338z" />
    <glyph glyph-name="J" unicode="J" horiz-adv-x="424" 
d="M-107 -68q59 36 96.5 60.5t61.5 49.5t39 55.5t30 78.5l152 497q8 28 -2.5 34t-36.5 8l-43 2l13 41h350l-13 -41l-43 -2q-27 -2 -42 -8t-23 -34l-141 -459q-12 -41 -25.5 -70t-31.5 -52t-43.5 -42.5t-61.5 -40.5q-17 -10 -44 -23.5l-58 -29t-61.5 -30.5t-54.5 -28z" />
    <glyph glyph-name="K" unicode="K" horiz-adv-x="855" 
d="M-21 36l36 4q27 3 43.5 11.5t25.5 37.5l178 580q9 29 -2.5 37.5t-36.5 11.5l-34 4l11 36h338l-11 -36l-36 -4q-28 -3 -44 -11.5t-25 -37.5l-91 -295l433 314q14 11 13 19.5t-23 10.5l-72 4l11 36h306l-11 -36l-52 -3q-33 -2 -55 -10.5t-45 -25.5l-354 -256l321 -427h-195
l-279 366l-85 -277q-9 -29 2 -37.5t37 -11.5l34 -4l-11 -36h-338z" />
    <glyph glyph-name="L" unicode="L" horiz-adv-x="724" 
d="M-21 36l36 4q27 3 43.5 11.5t25.5 37.5l178 580q9 29 -2.5 37.5t-36.5 11.5l-34 4l11 36h338l-11 -36l-36 -4q-28 -3 -44 -11.5t-25 -37.5l-191 -623h185q14 0 19 3t16 11l251 211h22l-151 -271h-605z" />
    <glyph glyph-name="M" unicode="M" horiz-adv-x="1039" 
d="M-21 36l36 4q27 3 43.5 11.5t25.5 37.5l178 580q9 29 -2.5 37.5t-36.5 11.5l-34 4l11 36h274l71 -416l319 416h287l-11 -36l-36 -4q-28 -3 -44 -11.5t-25 -37.5l-178 -580q-9 -29 2 -37.5t37 -11.5l34 -4l-11 -36h-338l11 36l36 4q27 3 43.5 11.5t25.5 37.5l186 609
l-452 -589h-6l-100 586l-185 -606q-9 -29 2 -37.5t37 -11.5l34 -4l-11 -36h-234z" />
    <glyph glyph-name="N" unicode="N" horiz-adv-x="877" 
d="M312 651l-173 -562q-9 -29 2 -37.5t37 -11.5l34 -4l-11 -36h-234l11 36l36 4q27 3 43.5 11.5t25.5 37.5l179 580q9 29 -2.5 37.5t-36.5 11.5l-34 4l11 36h235l265 -497l127 408q9 29 -2.5 37.5t-36.5 11.5l-34 4l11 36h234l-11 -36l-36 -4q-28 -3 -44 -11.5t-25 -37.5
l-210 -686h-4z" />
    <glyph glyph-name="O" unicode="O" horiz-adv-x="878" 
d="M368 -13q-64 0 -119.5 18t-97 53.5t-65.5 87.5t-24 120q0 56 17.5 115.5t50.5 116.5t80 108t106.5 89.5t129 61t148.5 22.5q64 0 119.5 -18t96.5 -53.5t65 -87.5t24 -120q0 -56 -17.5 -115.5t-50.5 -116.5t-80 -108t-106 -89.5t-129 -61t-148 -22.5zM398 29
q60 0 117 35.5t101.5 97.5t71 147.5t26.5 184.5q0 52 -7.5 96.5t-24.5 77t-46 51t-72 18.5q-60 0 -117 -35.5t-101.5 -97.5t-71 -147.5t-26.5 -184.5q0 -52 7.5 -96.5t24.5 -77t46 -51t72 -18.5z" />
    <glyph glyph-name="P" unicode="P" horiz-adv-x="736" 
d="M-21 36l36 4q27 3 43.5 11.5t25.5 37.5l178 580q9 29 -2.5 37.5t-36.5 11.5l-34 4l11 36h318q65 0 119.5 -7t94 -25t61.5 -48t22 -76q0 -53 -25.5 -100.5t-77 -83.5t-129 -57t-181.5 -21h-56l14 45h49q63 0 106.5 20.5t71 52.5t39.5 71.5t12 77.5q0 55 -31 81t-98 26h-74
l-191 -625q-9 -29 2.5 -37.5t37.5 -9.5l69 -4l-12 -38h-373z" />
    <glyph glyph-name="Q" unicode="Q" horiz-adv-x="878" 
d="M353 -13l-195 -68q28 8 57.5 10.5t49.5 2.5q58 0 102.5 -10t82.5 -22t71.5 -22t68.5 -10q44 0 83.5 22.5t79.5 73.5l31 -19q-29 -45 -60 -83t-63 -65.5t-63.5 -43t-60.5 -15.5q-50 0 -92.5 25.5t-82.5 56t-79 56t-82 25.5q-28 0 -52 -10q-9 -41 -26.5 -55.5t-36.5 -14.5
q-13 0 -21 8t-8 21t7.5 27.5t25 29t46.5 29.5t72 30l80 29q-49 10 -90.5 32t-71.5 56t-47 80t-17 103q0 56 17.5 115.5t50.5 116.5t80 108t106.5 89.5t129 61t148.5 22.5q64 0 119.5 -18t96.5 -53.5t65 -87.5t24 -120q0 -56 -17.5 -115.5t-50.5 -116.5t-80 -108t-106 -89.5
t-129 -61t-148 -22.5h-15zM398 29q60 0 117 35.5t101.5 97.5t71 147.5t26.5 184.5q0 52 -7.5 96.5t-24.5 77t-46 51t-72 18.5q-60 0 -117 -35.5t-101.5 -97.5t-71 -147.5t-26.5 -184.5q0 -52 7.5 -96.5t24.5 -77t46 -51t72 -18.5z" />
    <glyph glyph-name="R" unicode="R" horiz-adv-x="810" 
d="M-21 36l36 4q27 3 43.5 11.5t25.5 37.5l178 580q9 29 -2.5 37.5t-36.5 11.5l-34 4l11 36h305q140 0 215 -37.5t75 -115.5q0 -43 -20.5 -78t-55 -62t-81.5 -45.5t-99 -28.5l246 -391h-180l-229 369h-46l-86 -280q-9 -29 2 -37.5t37 -11.5l34 -4l-11 -36h-338zM404 414
q52 0 92 18t67 47t41 65t14 71q0 49 -29.5 74t-93.5 25h-60l-91 -300h60z" />
    <glyph glyph-name="S" unicode="S" horiz-adv-x="622" 
d="M215 -13q-25 0 -53.5 3t-57 9t-56.5 15.5t-52 23.5l60 241h22l31 -179q3 -18 7 -28.5t14 -18.5q11 -10 36.5 -15.5t59.5 -5.5q37 0 71.5 8.5t61.5 24.5t43 40t16 54q0 35 -23 74.5t-77 95.5l-52 54q-31 32 -53 73t-22 90q0 45 24 87.5t66 74.5t99.5 51.5t124.5 19.5
q46 0 92.5 -10.5t81.5 -33.5l-41 -225h-22l-52 163q-5 17 -9.5 27.5t-11.5 17.5q-8 8 -23.5 11.5t-29.5 3.5q-35 0 -64.5 -8t-52 -22.5t-35 -35.5t-12.5 -46q0 -32 18.5 -63t48.5 -63l55 -57q31 -33 52 -59t33 -49t17 -44.5t5 -45.5q0 -57 -28 -103.5t-74.5 -79.5
t-108.5 -51.5t-129 -18.5z" />
    <glyph glyph-name="T" unicode="T" horiz-adv-x="782" 
d="M133 38l61 4q26 2 42.5 10t25.5 37l192 628h-100q-16 0 -23 -3t-19 -15l-200 -212h-22l105 271h704l-61 -271h-22l-56 212q-3 12 -9.5 15t-22.5 3h-114l-192 -628q-9 -29 2.5 -37.5t37.5 -9.5l59 -4l-12 -38h-388z" />
    <glyph glyph-name="U" unicode="U" horiz-adv-x="861" 
d="M391 -13q-77 0 -137 18t-96 57t-44.5 100.5t18.5 147.5l110 359q9 29 -2.5 37.5t-36.5 11.5l-34 4l11 36h338l-11 -36l-36 -4q-28 -3 -44 -11.5t-25 -37.5l-116 -377q-20 -66 -18.5 -110.5t21 -71.5t56 -38.5t85.5 -11.5q103 0 172 58t109 188l111 363q9 29 -2.5 38
t-36.5 11l-44 4l11 36h244l-11 -36l-36 -4q-28 -3 -44 -11.5t-25 -37.5l-115 -373q-23 -75 -56 -133t-78.5 -97t-104 -59t-133.5 -20z" />
    <glyph glyph-name="V" unicode="V" horiz-adv-x="817" 
d="M245 669q6 29 -3.5 37.5t-35.5 11.5l-34 4l11 36h338l-11 -36l-36 -4q-27 -3 -44.5 -11.5t-24.5 -37.5l-103 -466l515 470q23 21 26.5 32t-22.5 13l-62 4l11 36h273l-11 -36l-34 -4q-27 -3 -53 -12.5t-52 -32.5l-773 -703h-20z" />
    <glyph glyph-name="W" unicode="W" horiz-adv-x="1267" 
d="M245 669q6 29 -3.5 37.5t-35.5 11.5l-34 4l11 36h338l-11 -36l-36 -4q-27 -3 -44.5 -11.5t-24.5 -37.5l-103 -466l366 334l46 221h277l-11 -36l-56 -4q-27 -2 -44.5 -11t-24.5 -38l-103 -466l515 470q23 21 26.5 32t-22.5 13l-62 4l11 36h273l-11 -36l-34 -4
q-27 -3 -53 -12.5t-52 -32.5l-773 -703h-20l100 482l-530 -482h-20z" />
    <glyph glyph-name="X" unicode="X" horiz-adv-x="842" 
d="M-95 36l34 4q28 3 53.5 13t53.5 32l354 283l-79 305q-5 23 -17 32.5t-36 12.5l-32 4l16 36h337l-16 -36l-44 -4q-28 -2 -39.5 -12t-5.5 -33l51 -198l248 198q29 23 31.5 33t-22.5 12l-42 4l16 36h257l-16 -36l-34 -4q-29 -3 -54 -13t-53 -32l-316 -252l87 -336
q6 -23 17 -32.5t36 -12.5l32 -4l-16 -36h-337l16 36l44 4q28 2 39 12t6 33l-59 228l-286 -228q-29 -23 -31.5 -33t22.5 -12l42 -4l-16 -36h-257z" />
    <glyph glyph-name="Y" unicode="Y" horiz-adv-x="780" 
d="M132 38l61 4q26 2 42.5 10t25.5 37l78 253l-119 331q-9 25 -17 33.5t-33 11.5l-32 4l11 36h339l-11 -36l-44 -4q-27 -2 -41.5 -11.5t-6.5 -33.5l94 -272l265 272q24 25 21.5 34t-28.5 11l-62 4l11 36h270l-11 -36l-34 -4q-28 -3 -47.5 -11.5t-43.5 -33.5l-322 -332
l-77 -252q-9 -29 2.5 -37.5t37.5 -9.5l59 -4l-12 -38h-388z" />
    <glyph glyph-name="Z" unicode="Z" horiz-adv-x="748" 
d="M-53 12l686 702h-198q-16 0 -22.5 -3.5t-19.5 -14.5l-247 -209h-22l160 271h577l-4 -12l-685 -702h246q16 0 22.5 3.5t20.5 14.5l247 209h22l-160 -271h-627z" />
    <glyph glyph-name="bracketleft" unicode="[" horiz-adv-x="317" 
d="M290 826h213l-12 -34l-37 -2q-24 -1 -41 -5.5t-29.5 -14t-21.5 -25t-17 -39.5l-284 -824q-17 -48 -6.5 -65t57.5 -19l37 -2l-12 -34h-213z" />
    <glyph glyph-name="backslash" unicode="\" horiz-adv-x="730" 
d="M525 -52l-343 858h100l343 -858h-100z" />
    <glyph glyph-name="bracketright" unicode="]" horiz-adv-x="316" 
d="M58 -238h-213l12 34l37 2q24 1 41 5.5t29.5 14t21.5 25t17 39.5l284 824q17 48 6.5 65t-57.5 19l-37 2l12 34h213z" />
    <glyph glyph-name="asciicircum" unicode="^" horiz-adv-x="649" 
d="M467 776h74l63 -415h-74l-48 333l-278 -333h-86z" />
    <glyph glyph-name="underscore" unicode="_" horiz-adv-x="532" 
d="M-99 -75h534l-24 -71h-534z" />
    <glyph glyph-name="grave" unicode="`" 
d="M63 609l-159 168l4 11h132l48 -179h-25z" />
    <glyph glyph-name="a" unicode="a" horiz-adv-x="582" 
d="M89 -13q-44 0 -67 30.5t-23 75.5t16 94t43 96.5t63 90.5t75 75.5t79 52t76 19.5q26 0 41.5 -15t18.5 -32h1l17 46h140l-149 -405q-15 -40 -16 -56t15 -16q9 0 24.5 8t34 25t38.5 45t40 67l29 -12q-21 -43 -46 -78t-55.5 -59.5t-68 -38t-82.5 -13.5q-32 0 -47.5 9.5
t-19.5 26t1.5 39.5t16.5 50l25 65h-2q-30 -50 -55 -86t-49.5 -59t-52 -34t-61.5 -11zM179 65q14 0 38 25.5t49.5 64.5t49.5 84.5t39 84.5q34 91 30.5 128.5t-33.5 37.5q-24 0 -47.5 -19.5t-45 -51t-40 -72t-32 -82.5t-21 -82t-7.5 -71q0 -47 20 -47z" />
    <glyph glyph-name="b" unicode="b" horiz-adv-x="556" 
d="M152 -13q-33 0 -62.5 5.5t-48.5 21t-24 44t11 75.5l183 531l-70 59l2 6l264 73l-124 -358l-63 -139h2q35 59 65 100.5t59 67t57.5 37t60.5 11.5q27 0 46 -9t31 -24t17 -35t5 -42q0 -46 -18.5 -95.5t-49.5 -97t-72 -89.5t-87 -73.5t-93.5 -50t-90.5 -18.5zM178 18
q24 0 50 18.5t50.5 49.5t46.5 70.5t38.5 81.5t26 83.5t9.5 75.5q0 46 -21 46q-18 0 -44.5 -26.5t-54 -66.5t-52.5 -86.5t-39 -85.5q-17 -45 -27 -76t-12 -49.5t5 -26.5t24 -8z" />
    <glyph glyph-name="c" unicode="c" horiz-adv-x="461" 
d="M162 -13q-72 0 -110 39t-38 112q0 45 14 91t38.5 88.5t57.5 79.5t71.5 64.5t80 43.5t83.5 16q49 0 82.5 -21.5t33.5 -66.5q0 -40 -37.5 -64.5t-103.5 -16.5q20 77 20 107t-22 30q-23 0 -50.5 -27.5t-51 -72t-39 -101.5t-15.5 -116q0 -63 17 -89.5t52 -26.5
q33 0 69.5 30.5t70.5 107.5l29 -11q-44 -108 -108.5 -152t-143.5 -44z" />
    <glyph glyph-name="d" unicode="d" horiz-adv-x="598" 
d="M94 -13q-42 0 -67.5 30.5t-25.5 81.5q0 45 16 93.5t42.5 95.5t61.5 89t73.5 74t78 51t74.5 19q51 0 63 -47h1l63 190l-70 59l2 6l261 73l-229 -687q-14 -41 -16 -56.5t14 -15.5q9 0 24.5 8t34 25t38.5 45t40 67l29 -12q-21 -43 -46 -78t-55.5 -59.5t-68 -38t-82.5 -13.5
q-32 0 -47 9.5t-19 26t1.5 39.5t15.5 50l27 74h-2q-30 -53 -57 -90.5t-54.5 -61.5t-57 -35.5t-63.5 -11.5zM189 65q16 0 39.5 25.5t48 63t47 80.5t36.5 79q34 88 28.5 132.5t-38.5 44.5q-25 0 -48 -18.5t-43.5 -48.5t-37.5 -68.5t-29.5 -79.5t-19.5 -81t-7 -72
q0 -31 5.5 -44t18.5 -13z" />
    <glyph glyph-name="e" unicode="e" horiz-adv-x="477" 
d="M170 -13q-72 0 -114.5 39t-42.5 112t34.5 142t87 122.5t114.5 86t118 32.5q60 0 89.5 -29t29.5 -70q0 -28 -13.5 -57t-37.5 -53l-236 -2q-11 -32 -17.5 -66.5t-6.5 -71.5q0 -63 18.5 -89.5t53.5 -26.5q78 0 151 143l30 -10q-48 -102 -109 -152t-149 -50zM372 490
q-22 0 -44.5 -11.5t-44.5 -32t-41 -49.5t-34 -63h25q40 0 72.5 12.5t55.5 31t35.5 39.5t12.5 39q0 34 -37 34z" />
    <glyph glyph-name="f" unicode="f" horiz-adv-x="359" 
d="M-123 -261q-42 0 -63.5 22t-21.5 52q0 25 19.5 46.5t48.5 23.5q13 -14 26 -28.5t26 -26t25 -19t23 -7.5q9 0 17 4.5t16 19.5t16.5 43t18.5 75l103 481h-83l10 32q29 2 50.5 9t39 21.5t32.5 37.5t32 57q29 60 59.5 99t60 62t57 32t50.5 9q35 0 52.5 -16t17.5 -43
q0 -22 -10 -44.5t-28 -33.5q-25 8 -48.5 11.5t-44.5 3.5q-33 0 -58 -8.5t-41.5 -22.5t-24.5 -32t-8 -36q0 -28 16 -44.5t52 -16.5h135l-50 -77h-126l-54 -244q-27 -120 -69 -204t-89.5 -137t-96 -77t-87.5 -24z" />
    <glyph glyph-name="g" unicode="g" horiz-adv-x="534" 
d="M221 169q-8 0 -15.5 0.5t-14.5 1.5l-66 -52l146 -85q68 -40 104 -73.5t36 -71.5q0 -39 -25.5 -67t-65 -47t-88 -28t-94.5 -9q-62 0 -113 8.5t-87 23.5t-56 36.5t-20 48.5q0 22 16 42.5t44 38t66 32.5t82 28l-33 92l116 90q-45 13 -70.5 42.5t-25.5 71.5q0 45 22 86t59 73
t86 51t103 19q48 0 84 -15t57 -41l48 91h123l-54 -99h-112q17 -26 17 -59q0 -45 -22 -86t-59 -73t-85.5 -51t-102.5 -19zM254 202q42 0 68.5 48.5t26.5 133.5q0 51 -13.5 77.5t-42.5 26.5q-42 0 -68.5 -48.5t-26.5 -133.5q0 -51 13.5 -77.5t42.5 -26.5zM-36 -117
q0 -26 16.5 -47t44 -36t65 -23t79.5 -8q54 0 90.5 13.5t36.5 39.5q0 9 -3.5 17.5t-14 19t-30 24t-51.5 31.5l-111 63q-59 -22 -90.5 -42t-31.5 -52z" />
    <glyph glyph-name="h" unicode="h" horiz-adv-x="588" 
d="M282 -13q-35 0 -62.5 17.5t-27.5 54.5q0 16 7 29.5t18.5 22.5t26 14t28.5 4q12 -38 21 -59t16 -31t11.5 -12t7.5 -2q14 0 30.5 31t31 80.5t24 110t9.5 120.5q0 76 -35 76q-18 0 -44 -27t-54 -67.5t-53 -87t-41 -85.5q-7 -18 -16.5 -41t-19 -46.5t-18 -44t-12.5 -33.5
l-147 -21l233 674l-70 59l2 6l263 73l-123 -358l-58 -139h2q35 59 65 100.5t59 67t57.5 37t60.5 11.5q59 0 84 -35t25 -89q0 -46 -14.5 -94.5t-38 -94t-54.5 -85.5t-64.5 -70.5t-67 -48t-62.5 -17.5z" />
    <glyph glyph-name="i" unicode="i" horiz-adv-x="357" 
d="M102 -13q-32 0 -49.5 9t-24 24.5t-3 37.5t13.5 49l130 337h-93l11 32l262 53l-159 -414q-15 -40 -16.5 -56t14.5 -16q9 0 24.5 8t34 25t38.5 45t40 67l29 -12q-21 -43 -46 -78t-55.5 -59.5t-68 -38t-82.5 -13.5zM238 710q0 18 7.5 35t20.5 30t30 20.5t35 7.5
q19 0 36 -7.5t30 -20.5t20.5 -30t7.5 -35q0 -19 -7.5 -36t-20.5 -30t-30 -20.5t-36 -7.5q-18 0 -35 7.5t-30 20.5t-20.5 30t-7.5 36z" />
    <glyph glyph-name="j" unicode="j" horiz-adv-x="316" 
d="M-242 -235q47 30 83.5 55.5t66.5 55.5t55 69.5t48 96.5l163 402h-93l11 32l264 53l-207 -511q-13 -32 -24 -54.5t-26.5 -41.5t-38.5 -35t-59 -34l-230 -115zM251 710q0 18 7.5 35t20.5 30t30 20.5t35 7.5q19 0 36 -7.5t30 -20.5t20.5 -30t7.5 -35q0 -19 -7.5 -36
t-20.5 -30t-30 -20.5t-36 -7.5q-18 0 -35 7.5t-30 20.5t-20.5 30t-7.5 36z" />
    <glyph glyph-name="k" unicode="k" horiz-adv-x="602" 
d="M418 -28q-55 0 -93.5 37t-63.5 119l-39 127q-3 -8 -6 -15t-5 -15l-31 -94l-38 -118l-159 -23l232 674l-70 59l2 6l264 73l-102 -295l-53 -132h3q46 70 96.5 108t113.5 38q51 0 72 -21.5t21 -53.5q0 -54 -50 -98.5t-136 -69.5l54 -193q6 -23 12.5 -36t12.5 -19.5t11.5 -8
t10.5 -1.5q6 0 15 3.5t19.5 15.5t21.5 33.5t23 57.5l29 -9q-15 -45 -31.5 -74t-36.5 -45.5t-44.5 -23t-54.5 -6.5zM423 476q-25 0 -53.5 -19t-55.5 -50.5t-51.5 -71t-40.5 -79.5q54 0 97 14.5t73 39t46.5 56.5t16.5 66q0 20 -6.5 32t-25.5 12z" />
    <glyph glyph-name="l" unicode="l" horiz-adv-x="339" 
d="M88 -13q-32 0 -49.5 8.5t-23.5 24.5t-2.5 38t12.5 49l191 557l-70 59l2 6l264 73l-236 -687q-14 -41 -16 -56.5t14 -15.5q9 0 24.5 8t34 25t38.5 45t40 67l29 -12q-21 -43 -46 -78t-55.5 -59.5t-68 -38t-82.5 -13.5z" />
    <glyph glyph-name="m" unicode="m" horiz-adv-x="906" 
d="M642 -13q-32 0 -51 9t-26.5 25t-4 38t15.5 48l108 224q17 35 26 57.5t12 36t0 18.5t-10 5q-19 0 -50 -38t-69 -97q-23 -35 -47 -73.5t-46 -78t-41 -77.5t-31 -71l-153 -23l134 341q14 36 22.5 58.5t12.5 35.5t2 18t-9 5q-19 0 -50 -38t-69 -97q-23 -35 -47 -73.5t-46 -78
t-41 -77.5t-31 -71l-157 -23l175 454h-93l11 32l261 53l-136 -336h1q29 54 54.5 96.5t47.5 76.5q28 43 52.5 72.5t48.5 48t48 26.5t50 8q59 0 66 -51t-31 -137l-62 -140h1q29 54 54.5 96.5t47.5 76.5q28 43 52.5 72.5t48.5 48t48 26.5t50 8q29 0 47.5 -13.5t24.5 -38
t-0.5 -59t-27.5 -77.5l-105 -218q-18 -38 -18 -55t16 -17q9 0 24.5 8t34 25t38.5 45t40 67l29 -12q-21 -43 -46 -78t-55.5 -59.5t-68 -38t-82.5 -13.5z" />
    <glyph glyph-name="n" unicode="n" horiz-adv-x="631" 
d="M367 -13q-32 0 -51 9t-26.5 25t-4 38t15.5 48l108 224q17 35 26 57.5t12 36t0 18.5t-10 5q-19 0 -50 -38t-69 -97q-23 -35 -47 -73.5t-46 -78t-41 -77.5t-31 -71l-157 -23l175 454h-93l11 32l261 53l-136 -336h1q29 54 54.5 96.5t47.5 76.5q28 43 52.5 72.5t48.5 48
t48 26.5t50 8q29 0 47.5 -13.5t24.5 -38t-0.5 -59t-27.5 -77.5l-105 -218q-18 -38 -18 -55t16 -17q9 0 24.5 8t34 25t38.5 45t40 67l29 -12q-21 -43 -46 -78t-55.5 -59.5t-68 -38t-82.5 -13.5z" />
    <glyph glyph-name="o" unicode="o" horiz-adv-x="520" 
d="M160 -13q-36 0 -63 11.5t-45.5 31.5t-28 46t-9.5 56q0 68 29 137.5t77.5 125.5t111.5 91t131 35q36 0 63 -11.5t45.5 -31.5t28 -46t9.5 -56q0 -69 -29 -138.5t-77.5 -125t-111.5 -90.5t-131 -35zM217 29q19 0 42 25t42 72t31.5 114.5t12.5 152.5q0 86 -37 86
q-21 0 -43.5 -25t-42 -72t-32 -114.5t-12.5 -152.5q0 -42 9 -64t30 -22z" />
    <glyph glyph-name="p" unicode="p" horiz-adv-x="584" 
d="M163 444h-93l11 32l259 53l-29 -84q28 32 67.5 54t80.5 22q57 0 90 -34.5t33 -90.5q0 -73 -35 -146.5t-94.5 -132t-136.5 -94.5t-161 -33l-82 -238h-148zM356 437q-29 0 -55 -21l-136 -397q34 0 65.5 16t59.5 43t51.5 61.5t40 71.5t26 73.5t9.5 66.5q0 48 -18 67t-43 19z
" />
    <glyph glyph-name="q" unicode="q" horiz-adv-x="551" 
d="M258 41l46 104h-2q-26 -42 -50 -71.5t-49 -49t-51.5 -28.5t-57.5 -9q-42 0 -67.5 30.5t-25.5 81.5q0 45 16 93.5t42.5 95.5t61.5 89t73.5 74t78 51t74.5 19q25 0 43 -12t25 -35h2l16 46h139l-264 -768h-148zM165 122q0 -31 5.5 -44t18.5 -13q16 0 39.5 25.5t48 63
t47 80.5t36.5 79q34 88 28.5 132.5t-38.5 44.5q-25 0 -48 -18.5t-43.5 -48.5t-37.5 -68.5t-29.5 -79.5t-19.5 -81t-7 -72z" />
    <glyph glyph-name="r" unicode="r" horiz-adv-x="483" 
d="M170 444h-93l11 32l261 53l-130 -330h1l102 182q20 35 37 61t34 43t36.5 25.5t44.5 8.5q29 0 48 -18t19 -50q0 -81 -101 -98q-12 25 -22.5 43t-25.5 41q-21 -32 -46 -73t-53.5 -89t-59.5 -101.5t-62 -109.5l-18 -51l-157 -23z" />
    <glyph glyph-name="s" unicode="s" horiz-adv-x="408" 
d="M112 -13q-27 0 -50 7.5t-40 20t-26.5 29.5t-9.5 35q0 20 8 35.5t21.5 25t31 14.5t36.5 4q13 -43 21.5 -69.5t15 -40.5t12 -19t12.5 -5q15 0 30 5.5t27 14t19 19.5t7 23q0 20 -16 45t-42 57l-33 41q-49 61 -49 119q0 37 20 69t52 55t71.5 36t78.5 13q51 0 81.5 -21
t30.5 -58q0 -14 -6 -29t-17.5 -26.5t-28.5 -18t-40 -3.5q-13 38 -20.5 62t-13 37t-10.5 17.5t-12 4.5q-12 0 -26 -4t-25.5 -11.5t-19 -17.5t-7.5 -22q0 -16 12.5 -39.5t41.5 -58.5l36 -45q12 -16 21 -29.5t15 -27t8.5 -27.5t2.5 -32q0 -43 -20 -77.5t-52 -58.5t-71 -36.5
t-77 -12.5z" />
    <glyph glyph-name="t" unicode="t" horiz-adv-x="411" 
d="M105 -13q-32 0 -49.5 9t-24 25t-3.5 38t14 48l128 318h-109l30 77h110l47 116h147l-46 -116h129l-31 -77h-129l-124 -310q-16 -40 -17.5 -56t14.5 -16q9 0 24.5 8t34 25t38.5 45t40 67l29 -12q-21 -43 -46 -78t-55.5 -59.5t-68 -38t-82.5 -13.5z" />
    <glyph glyph-name="u" unicode="u" horiz-adv-x="627" 
d="M205 177q-16 -36 -25 -58.5t-12 -35.5t-0.5 -18t9.5 -5q19 0 50 38t69 97q23 34 46 72.5t44.5 77.5t40.5 76.5t34 71.5l156 26l-156 -404q-15 -40 -16.5 -56t14.5 -16q9 0 24.5 8t34 25t38.5 45t40 67l29 -12q-21 -43 -46 -78t-55.5 -59.5t-68 -38t-82.5 -13.5
q-32 0 -50 9t-24.5 24.5t-3 37.5t14.5 49l77 189h-1q-24 -44 -47.5 -83t-43.5 -69q-27 -43 -51.5 -73t-47.5 -48.5t-47 -27t-51 -8.5q-59 0 -71 50t27 138l119 269h-93l11 32l272 53z" />
    <glyph glyph-name="v" unicode="v" horiz-adv-x="559" 
d="M554 421q0 -81 -30 -158.5t-81.5 -139t-120.5 -99t-146 -37.5q-53 0 -79 28t-26 74q0 39 14 77t39 74.5t60 72.5t76 70h-181l-43 -81h-32l90 200h292q-33 -37 -66.5 -74t-61 -74t-44.5 -73.5t-17 -73.5q0 -48 24.5 -65.5t62.5 -17.5q29 0 61 10.5t63 32.5t58 56t46 81
l-100 124q-4 21 0 38t14 29t24.5 19t31.5 7q14 0 27 -4.5t23 -16t16 -31t6 -48.5z" />
    <glyph glyph-name="w" unicode="w" horiz-adv-x="787" 
d="M154 -13q-45 0 -66.5 25.5t-21.5 72.5q0 38 15.5 75.5t42 75t62.5 74.5t78 73h-183l-43 -81h-32l90 200h292q-33 -38 -67 -75t-61.5 -73.5t-45 -73t-17.5 -73.5q0 -41 18 -62.5t52 -21.5q20 0 37.5 3.5t36.5 12.5q-2 14 -3.5 28.5t-1.5 30.5q0 54 16.5 111t43.5 104.5
t61 77.5t69 30q26 0 40 -16t14 -45q0 -22 -5.5 -51.5t-19.5 -64t-37 -72.5t-57 -77l-30 -33q22 -20 50 -29.5t59 -9.5q28 0 56 10t53 31.5t44.5 56t30.5 83.5l-100 124q-4 21 0 38t14 29t24.5 19t31.5 7q14 0 27 -4.5t23 -16t16 -31t6 -48.5q0 -42 -8 -91t-23.5 -97
t-39 -92.5t-54.5 -78.5t-70 -54.5t-85 -20.5q-48 0 -81 28t-50 73q-51 -44 -102 -72.5t-99 -28.5zM381 285q0 -30 7.5 -54t20.5 -44l20 19q26 26 42.5 47t26.5 38.5t13.5 32.5t3.5 28q0 23 -13.5 36t-36.5 13q-15 0 -30 -7t-27 -21t-19.5 -36t-7.5 -52z" />
    <glyph glyph-name="x" unicode="x" horiz-adv-x="628" 
d="M28 -13q-31 0 -47.5 20.5t-16.5 47.5q0 40 28.5 71t75.5 34q14 -55 21.5 -77.5t19.5 -22.5q8 0 22 11.5t31.5 31t38 46.5t42.5 59l-19 171q-4 33 -10 56.5t-24 23.5q-24 0 -56.5 -33t-65.5 -81l-24 18q23 33 46 62t49 50.5t55 33.5t64 12q19 0 38 -4t34.5 -17.5t27.5 -40
t17 -72.5l5 -47q40 58 73.5 94t61.5 55t51 25.5t42 6.5q31 0 47.5 -20.5t16.5 -47.5q0 -40 -28.5 -71t-75.5 -34q-14 55 -21.5 77.5t-19.5 22.5q-9 0 -23.5 -12t-33 -33.5t-40 -50.5t-44.5 -62l18 -161q4 -33 10 -56.5t24 -23.5q24 0 56.5 33t65.5 81l24 -18
q-23 -33 -46 -62t-49 -50.5t-55 -33.5t-64 -12q-19 0 -38 4t-34.5 17.5t-27.5 40t-17 72.5l-4 37q-39 -55 -71 -88.5t-59 -52t-49.5 -24.5t-41.5 -6z" />
    <glyph glyph-name="y" unicode="y" horiz-adv-x="564" 
d="M-91 -261q-34 0 -53.5 18.5t-19.5 47.5q0 18 10 38t28 28q25 -13 47 -20.5t50 -7.5q15 0 32.5 4t37.5 15.5t44 33t53 56.5l2 485l-83 -5l-1 31l232 66l-6 -377l119 171q36 51 62 88.5t47 61.5t40 36t41 12q29 0 42.5 -15.5t13.5 -38.5q0 -26 -10.5 -41.5t-22.5 -23.5
q-35 -9 -61 -16t-45 -14.5t-31.5 -16.5t-21.5 -22l-225 -323q-32 -45 -72 -93t-83 -87.5t-86 -65t-80 -25.5z" />
    <glyph glyph-name="z" unicode="z" horiz-adv-x="528" 
d="M157 502h452l-334 -254l51 -131q12 -32 21.5 -51.5t18 -30.5t16.5 -15t17 -4q13 0 25 8t17.5 25.5t3 46t-17.5 70.5l31 12q36 -100 8 -153t-109 -53q-32 0 -59 7.5t-51.5 25.5t-47.5 48t-48 75l-10 18l-41 -32q-15 -12 -23.5 -21.5t-11 -21t-1 -27t6.5 -40.5
q-22 -12 -42 -15t-35 1t-24 14.5t-9 26.5q0 7 2.5 14t10 15.5t20 19.5t32.5 26l364 277h-248l-43 -81h-32z" />
    <glyph glyph-name="braceleft" unicode="{" horiz-adv-x="368" 
d="M177 -238q-42 5 -81 26.5t-62.5 57t-25.5 84.5t30 110l48 93q24 46 28 76t-7 48.5t-34 27.5t-53 14l12 35q33 5 62.5 14t53 27.5t40 48t24.5 76.5l16 93q10 61 40.5 104.5t72.5 71.5t92 41t101 13l1 -30q-42 -2 -71 -13t-47.5 -31t-28.5 -48t-15 -62l-11 -71
q-11 -67 -37 -112.5t-61 -74.5t-77 -43.5t-84 -19.5l-1 -3q39 -5 71.5 -19.5t49 -43t12 -74.5t-40.5 -113l-38 -71q-18 -35 -28 -68.5t-7.5 -61.5t18 -48t48.5 -27z" />
    <glyph glyph-name="bar" unicode="|" horiz-adv-x="348" 
d="M142 826h91v-1064h-91v1064z" />
    <glyph glyph-name="braceright" unicode="}" horiz-adv-x="368" 
d="M222 823q42 -5 81 -26.5t62.5 -57t25.5 -84.5t-30 -110l-48 -93q-24 -46 -28 -76t7 -48.5t34 -27.5t53 -14l-12 -35q-33 -5 -62.5 -14t-53 -27.5t-40 -48t-24.5 -76.5l-16 -93q-10 -61 -40.5 -104.5t-72.5 -71.5t-92 -41t-101 -13l-1 30q42 2 71 13t47.5 31t28.5 48
t15 62l11 71q11 67 37 112.5t61 74.5t77 43.5t84 19.5l1 3q-39 5 -71.5 19.5t-49 43t-12 74.5t40.5 113l38 71q18 35 28 68.5t7.5 61.5t-18 48t-48.5 27z" />
    <glyph glyph-name="asciitilde" unicode="~" horiz-adv-x="649" 
d="M207 338q42 0 75.5 -13.5t62 -29.5t54 -29.5t52.5 -13.5q28 0 51.5 17.5t25.5 63.5h75q-2 -33 -14.5 -60.5t-32.5 -47.5t-47 -31t-59 -11q-37 0 -68 13.5t-60 29.5t-57.5 29.5t-58.5 13.5q-14 0 -27.5 -4t-24 -13.5t-17.5 -25t-8 -38.5h-75q2 33 14.5 60.5t32.5 47.5
t47 31t59 11z" />
    <glyph glyph-name="uni00A0" unicode="&#xa0;" horiz-adv-x="220" 
 />
    <glyph glyph-name="exclamdown" unicode="&#xa1;" horiz-adv-x="282" 
d="M175 267q-17 -66 -25.5 -112.5t-12 -83t-5.5 -66.5t-6 -63.5t-13 -74t-26 -96.5q-3 -12 -19 -19.5t-37 -11t-44 -3t-41.5 5.5t-29 14.5t-6.5 23.5q17 54 33.5 93t33 71.5t34 62t36.5 65t39.5 82t44.5 112.5h44zM193 521q19 0 36.5 -7.5t30.5 -21t20.5 -31.5t7.5 -39
q0 -20 -7.5 -37t-20.5 -30t-30.5 -20.5t-36.5 -7.5q-21 0 -39 7.5t-31.5 20.5t-21 30t-7.5 37q0 42 28.5 70.5t70.5 28.5z" />
    <glyph glyph-name="cent" unicode="&#xa2;" horiz-adv-x="472" 
d="M152 -12q-66 4 -100 42.5t-34 107.5q0 62 26 125t68.5 115.5t97 89.5t111.5 48l33 104h44l-32 -99q48 -1 80.5 -22.5t32.5 -65.5q0 -40 -37.5 -64.5t-103.5 -16.5q20 77 20 107t-22 30q-23 0 -50.5 -27.5t-51 -72t-39 -101.5t-15.5 -116q0 -63 17 -89.5t52 -26.5
q33 0 69.5 30.5t70.5 107.5l29 -11q-40 -98 -96.5 -142.5t-125.5 -51.5l-34 -109h-44z" />
    <glyph glyph-name="sterling" unicode="&#xa3;" horiz-adv-x="625" 
d="M-47 4l208 143q62 43 86 84.5t24 82.5h-159l18 54h133q-2 9 -5.5 18.5t-6.5 18.5l-21 57q-9 25 -15 52t-6 53q0 40 28 78t76 68t111.5 48t134.5 18q60 0 99 -23t39 -63q0 -20 -10 -38t-28.5 -30.5t-44.5 -19.5t-59 -4q8 36 5.5 60.5t-12 40.5t-26 23t-37.5 7
q-18 0 -39.5 -6t-40 -18t-31 -30.5t-12.5 -44.5q0 -14 3.5 -32t9.5 -35l21 -57q11 -29 20 -57.5t9 -58.5q0 -6 -0.5 -12.5t-1.5 -12.5h166l-18 -54h-167q-17 -31 -51 -64.5t-92 -71.5l-80 -52h356l-74 -126h-511z" />
    <glyph glyph-name="yen" unicode="&#xa5;" horiz-adv-x="843" 
d="M169 38l51 4q26 2 42.5 10t25.5 37l24 78h-189l19 54h187l18 59h-185l19 54h183l2 8l-119 331q-9 25 -17 33.5t-33 11.5l-32 4l11 36h339l-11 -36l-44 -4q-27 -2 -41.5 -11.5t-6.5 -33.5l85 -271l264 271q24 25 21.5 34t-28.5 11l-62 4l11 36h270l-11 -36l-34 -4
q-28 -3 -47.5 -11.5t-43.5 -33.5l-322 -332l-2 -7h186l-19 -54h-184l-18 -59h182l-19 -54h-179l-24 -78q-9 -29 2.5 -37t37.5 -10l49 -4v-38h-358v38z" />
    <glyph glyph-name="brokenbar" unicode="&#xa6;" horiz-adv-x="348" 
d="M142 826h91v-421h-91v421zM142 183h91v-421h-91v421z" />
    <glyph glyph-name="section" unicode="&#xa7;" horiz-adv-x="642" 
d="M218 280q-26 43 -43 87.5t-17 97.5q0 67 32 124.5t84.5 99.5t118.5 66t135 24q48 0 85 -9t61.5 -25t37.5 -36.5t13 -42.5q0 -27 -15 -48t-39 -34.5t-54 -19t-59 -0.5q16 47 17.5 79t-8.5 52t-31.5 29t-51.5 9q-63 0 -91.5 -38.5t-28.5 -104.5q0 -41 16.5 -83t39.5 -78
l54 -87q33 -53 52 -96.5t19 -96.5q0 -68 -31.5 -130t-84.5 -110t-121.5 -76.5t-143.5 -28.5q-47 0 -87.5 11.5t-70.5 31t-47.5 45t-17.5 54.5q0 30 15 51.5t39 35t53.5 18.5t58.5 3q-32 -103 -9.5 -152.5t91.5 -49.5q34 0 60 14t42.5 38t25 55.5t8.5 67.5q0 43 -13 82.5
t-40 83.5zM310 -132q42 25 71.5 56.5t47.5 66.5t26.5 70.5t8.5 67.5q0 49 -20.5 95.5t-45.5 86.5l-54 87q-19 30 -32.5 68t-13.5 73q0 14 2 33.5t8 42t18 45.5t32 45q-35 -25 -58.5 -52.5t-38 -56t-21 -56.5t-6.5 -53q0 -38 13 -77t33 -71l55 -87q28 -45 46.5 -84.5
t18.5 -87.5q0 -21 -4 -46.5t-14 -53t-27.5 -56t-44.5 -56.5z" />
    <glyph glyph-name="dieresis" unicode="&#xa8;" 
d="M-113 636q-29 0 -48.5 20t-19.5 49q0 30 19.5 49.5t48.5 19.5t48.5 -19.5t19.5 -49.5q0 -29 -19.5 -49t-48.5 -20zM113 636q-29 0 -48.5 20t-19.5 49q0 30 19.5 49.5t48.5 19.5t48.5 -19.5t19.5 -49.5q0 -29 -19.5 -49t-48.5 -20z" />
    <glyph glyph-name="copyright" unicode="&#xa9;" horiz-adv-x="908" 
d="M495 -13q-83 0 -155.5 29t-126.5 81.5t-85.5 125t-31.5 160.5t31.5 160.5t85.5 125t126.5 81.5t155.5 29t155.5 -29t126.5 -81.5t85.5 -125t31.5 -160.5t-31.5 -160.5t-85.5 -125t-126.5 -81.5t-155.5 -29zM495 35q73 0 135.5 24.5t108.5 70t72 110t26 143.5t-26 143.5
t-72 110t-108.5 70t-135.5 24.5t-135.5 -24.5t-108.5 -70t-72 -110t-26 -143.5t26 -143.5t72 -110t108.5 -70t135.5 -24.5zM509 162q-56 0 -102 16.5t-79.5 46.5t-52 71.5t-18.5 91.5t19 91.5t53 71t81 46t103 16.5q35 0 69.5 -5t60.5 -12l26 -160h-7l-90 117
q-11 14 -20 20.5t-16 8.5q-5 1 -13 1.5t-16 0.5q-23 0 -46.5 -8.5t-43.5 -28.5t-32.5 -53.5t-12.5 -84.5q0 -42 8.5 -81t26 -69t45 -48.5t66.5 -18.5q17 0 29 3q8 2 16.5 7.5t19.5 20.5l89 115h7l-30 -159q-26 -7 -65 -12t-75 -5z" />
    <glyph glyph-name="ordfeminine" unicode="&#xaa;" horiz-adv-x="524" 
d="M181 359q-35 0 -53.5 25t-18.5 61t13 76t35 78.5t50.5 73t60 61t63.5 42t61 15.5q20 0 32 -11t14 -23h1l13 34h120l-119 -325q-11 -32 -12.5 -45.5t11.5 -13.5q7 0 19 6.5t26.5 20.5t31 36.5t31.5 54.5l25 -10q-33 -70 -82.5 -113t-125.5 -43q-26 0 -39 7.5t-16.5 21.5
t1 33t13.5 43l19 48h-2q-24 -41 -43.5 -69.5t-39 -47.5t-40.5 -27.5t-49 -8.5zM259 426q10 0 27.5 21t37.5 52.5t38.5 67t29.5 65.5q28 73 26 103t-25 30q-18 0 -35.5 -15.5t-34 -40.5t-30.5 -57.5t-24 -66.5t-16 -66.5t-6 -58.5q0 -34 12 -34z" />
    <glyph glyph-name="guillemotleft" unicode="&#xab;" horiz-adv-x="557" 
d="M214 24l-16 -6l-158 233l318 233l10 -12l-193 -225zM424 24l-16 -6l-158 233l318 233l10 -12l-193 -225z" />
    <glyph glyph-name="uni00AD" unicode="&#xad;" horiz-adv-x="418" 
d="M80 303h294l-28 -81h-294z" />
    <glyph glyph-name="registered" unicode="&#xae;" horiz-adv-x="908" 
d="M495 -13q-83 0 -155.5 29t-126.5 81.5t-85.5 125t-31.5 160.5t31.5 160.5t85.5 125t126.5 81.5t155.5 29t155.5 -29t126.5 -81.5t85.5 -125t31.5 -160.5t-31.5 -160.5t-85.5 -125t-126.5 -81.5t-155.5 -29zM495 35q73 0 135.5 24.5t108.5 70t72 110t26 143.5t-26 143.5
t-72 110t-108.5 70t-135.5 24.5t-135.5 -24.5t-108.5 -70t-72 -110t-26 -143.5t26 -143.5t72 -110t108.5 -70t135.5 -24.5zM281 203l17 2q16 2 24.5 7.5t8.5 23.5v318q0 18 -8.5 23.5t-24.5 7.5l-17 2v23h186q89 0 139 -24t50 -78q0 -14 -4.5 -29.5t-16 -29.5t-30.5 -26
t-48 -19l177 -224h-127l-158 209h-14v-153q0 -18 8.5 -23.5t24.5 -7.5l17 -2v-23h-204v23zM463 417q45 0 61.5 24t16.5 59t-16.5 58.5t-61.5 23.5h-28v-165h28z" />
    <glyph glyph-name="macron" unicode="&#xaf;" 
d="M-131 737h285l-23 -68h-285z" />
    <glyph glyph-name="degree" unicode="&#xb0;" horiz-adv-x="418" 
d="M313 441q-36 0 -67 13t-54 36t-36 54t-13 66t13 66t36 54t54 36t67 13t67 -13t54 -36t36 -54t13 -66t-13 -66t-36 -54t-54 -36t-67 -13zM313 504q20 0 38.5 7.5t32.5 21.5t22 33.5t8 43.5t-8 43.5t-22 33.5t-32.5 21.5t-38.5 7.5t-38.5 -7.5t-32.5 -21.5t-22 -33.5
t-8 -43.5t8 -43.5t22 -33.5t32.5 -21.5t38.5 -7.5z" />
    <glyph glyph-name="plusminus" unicode="&#xb1;" horiz-adv-x="649" 
d="M268 283h-209v75h209v158h79v-158h209v-75h-209v-163h-79v163zM59 75h497v-75h-497v75z" />
    <glyph glyph-name="uni00B2" unicode="&#xb2;" horiz-adv-x="344" 
d="M56 405q142 106 216 183.5t74 134.5q0 26 -14 40.5t-40 14.5q-31 0 -54.5 -21.5t-33.5 -67.5h-23q5 62 44 102t111 40q52 0 82 -27t30 -67q0 -47 -37 -86.5t-111 -88.5l-111 -73h97q21 0 34 1.5t22.5 5.5t17.5 11.5t19 19.5l7 8l19 -7l-72 -127h-278z" />
    <glyph glyph-name="uni00B3" unicode="&#xb3;" horiz-adv-x="332" 
d="M395 567q0 -33 -17.5 -64t-46 -55.5t-65 -39.5t-74.5 -15q-20 0 -39 4.5t-34 13.5t-24 22t-9 30q0 25 22 41t57 10q9 -40 20 -64.5t44 -24.5q10 0 22.5 5t23.5 16t18 29t7 44q0 51 -23 73.5t-53 22.5q-5 0 -10 -1l-4 24l35 8q16 4 34 9.5t33 15t25 23.5t10 34
q0 23 -14.5 36.5t-40.5 13.5q-12 0 -24.5 -3.5t-24 -11.5t-20.5 -22.5t-14 -36.5h-24q8 57 45 92t103 35q57 0 83.5 -23t26.5 -52q0 -35 -27.5 -54.5t-81.5 -29.5v-2q33 -19 47 -47t14 -56z" />
    <glyph glyph-name="acute" unicode="&#xb4;" 
d="M-5 788h157l-4 -11l-267 -168h-29z" />
    <glyph glyph-name="paragraph" unicode="&#xb6;" horiz-adv-x="585" 
d="M285 286h-10q-40 0 -73.5 10t-57.5 29.5t-37 47.5t-13 65q0 63 30.5 121t87.5 102t138.5 70.5t183.5 26.5h170l-11 -36l-37 -4q-27 -3 -44.5 -11.5t-26.5 -37.5l-227 -744l-128 -78l137 456q-8 -3 -16.5 -5.5t-16.5 -4.5l-142 -469l-59 -37z" />
    <glyph glyph-name="periodcentered" unicode="&#xb7;" horiz-adv-x="301" 
d="M152 165q-20 0 -37 7.5t-30 21t-20.5 31.5t-7.5 39q0 19 7.5 36.5t20.5 30.5t30 20.5t37 7.5q21 0 39 -7.5t31.5 -20.5t21 -30.5t7.5 -36.5q0 -42 -28.5 -70.5t-70.5 -28.5z" />
    <glyph glyph-name="cedilla" unicode="&#xb8;" 
d="M-48 -265q-50 0 -78 21t-28 45q0 23 19 32.5t41 -1.5q-4 -34 15 -49.5t47 -15.5q43 0 43 27q0 20 -22 38.5t-63 46.5l143 121h48l-98 -83q23 -17 38.5 -37t15.5 -44q0 -45 -33 -73t-88 -28z" />
    <glyph glyph-name="uni00B9" unicode="&#xb9;" horiz-adv-x="257" 
d="M85 427l25 2q17 2 24 7.5t13 22.5l100 289l-81 -28l12 35l196 71l-127 -367q-6 -17 -2.5 -24t18.5 -8l19 -1l-8 -25h-197z" />
    <glyph glyph-name="ordmasculine" unicode="&#xba;" horiz-adv-x="437" 
d="M233 359q-29 0 -50.5 9.5t-36 25.5t-22 37t-7.5 44q0 55 23.5 111.5t62.5 102t90.5 74t107.5 28.5q28 0 50 -9.5t36.5 -25t22 -36.5t7.5 -44q0 -56 -23.5 -112.5t-63 -102t-91 -74t-106.5 -28.5zM282 395q14 0 30.5 20t30.5 58t23.5 93t9.5 124q0 65 -23 65
q-15 0 -31.5 -20t-30.5 -58t-23.5 -93t-9.5 -124q0 -32 5 -48.5t19 -16.5z" />
    <glyph glyph-name="guillemotright" unicode="&#xbb;" horiz-adv-x="556" 
d="M138 479l16 6l158 -233l-318 -233l-10 12l193 225zM348 479l16 6l158 -233l-318 -233l-10 12l193 225z" />
    <glyph glyph-name="onequarter" unicode="&#xbc;" horiz-adv-x="896" 
d="M66 367l25 2q17 2 24 7.5t13 22.5l100 289l-81 -28l12 35l196 71l-127 -367q-6 -17 -2.5 -24t18.5 -8l19 -1l-8 -25h-197zM819 758h104l-840 -758h-104zM662 100h-194l313 316h90l-84 -244h69l-25 -72h-69l-35 -100h-100zM686 172l59 168l-168 -168h109z" />
    <glyph glyph-name="onehalf" unicode="&#xbd;" horiz-adv-x="879" 
d="M66 367l25 2q17 2 24 7.5t13 22.5l100 289l-81 -28l12 35l196 71l-127 -367q-6 -17 -2.5 -24t18.5 -8l19 -1l-8 -25h-197zM819 758h104l-840 -758h-104zM469 4q142 106 216 183.5t74 134.5q0 26 -14 40.5t-40 14.5q-31 0 -54.5 -21.5t-33.5 -67.5h-23q5 62 44 102t111 40
q52 0 82 -27t30 -67q0 -47 -37 -86.5t-111 -88.5l-111 -73h97q21 0 34 1.5t22.5 5.5t17.5 11.5t19 19.5l7 8l19 -7l-72 -127h-278z" />
    <glyph glyph-name="threequarters" unicode="&#xbe;" horiz-adv-x="921" 
d="M377 507q0 -33 -17.5 -64t-46 -55.5t-65 -39.5t-74.5 -15q-20 0 -39 4.5t-34 13.5t-24 22t-9 30q0 25 22 41t57 10q9 -40 20 -64.5t44 -24.5q10 0 22.5 5t23.5 16t18 29t7 44q0 51 -23 73.5t-53 22.5q-5 0 -10 -1l-4 24l35 8q16 4 34 9.5t33 15t25 23.5t10 34
q0 23 -14.5 36.5t-40.5 13.5q-12 0 -24.5 -3.5t-24 -11.5t-20.5 -22.5t-14 -36.5h-24q8 57 45 92t103 35q57 0 83.5 -23t26.5 -52q0 -35 -27.5 -54.5t-81.5 -29.5v-2q33 -19 47 -47t14 -56zM844 758h104l-840 -758h-104zM687 100h-194l313 316h90l-84 -244h69l-25 -72h-69
l-35 -100h-100zM711 172l59 168l-168 -168h109z" />
    <glyph glyph-name="questiondown" unicode="&#xbf;" horiz-adv-x="607" 
d="M210 -216q25 0 46.5 6t37.5 20.5t25.5 39t11.5 61.5q24 3 48 0t43 -12.5t30.5 -25t11.5 -36.5q-1 -48 -55.5 -73.5t-158.5 -25.5q-59 0 -110.5 14.5t-89.5 44t-59.5 73.5t-21.5 103q0 31 7.5 61t28.5 54.5t58 42.5t96 26l182 23q12 1 19 3t12 5.5t8.5 9t8.5 15.5l31 62
h32l-36 -158q-7 -30 -16.5 -48t-24.5 -27.5t-36 -14t-49 -7.5l-128 -15q-37 -5 -62 -12t-40 -17.5t-21.5 -25t-6.5 -34.5q0 -30 16.5 -54.5t42 -41.5t57 -26.5t62.5 -9.5zM470 521q19 0 36.5 -7.5t30.5 -21t20.5 -31.5t7.5 -39q0 -20 -7.5 -37t-20.5 -30t-30.5 -20.5
t-36.5 -7.5q-21 0 -39 7.5t-31.5 20.5t-21 30t-7.5 37q0 42 28.5 70.5t70.5 28.5z" />
    <glyph glyph-name="Agrave" unicode="&#xc0;" horiz-adv-x="819" 
d="M-134 36l34 4q27 3 53 12.5t52 32.5l773 703h20l-145 -699q-6 -29 3.5 -37.5t35.5 -11.5l34 -4l-11 -36h-338l11 36l36 4q27 3 44.5 11.5t24.5 37.5l35 158h-271l-177 -162q-23 -21 -26 -32t23 -13l60 -4l-11 -36h-271zM541 306l55 251l-274 -251h219zM792 843l-183 126
l1 3h163l46 -129h-27z" />
    <glyph glyph-name="Aacute" unicode="&#xc1;" horiz-adv-x="819" 
d="M-134 36l34 4q27 3 53 12.5t52 32.5l773 703h20l-145 -699q-6 -29 3.5 -37.5t35.5 -11.5l34 -4l-11 -36h-338l11 36l36 4q27 3 44.5 11.5t24.5 37.5l35 158h-271l-177 -162q-23 -21 -26 -32t23 -13l60 -4l-11 -36h-271zM541 306l55 251l-274 -251h219zM895 972h181l-1 -3
l-270 -126h-32z" />
    <glyph glyph-name="Acircumflex" unicode="&#xc2;" horiz-adv-x="819" 
d="M-134 36l34 4q27 3 53 12.5t52 32.5l773 703h20l-145 -699q-6 -29 3.5 -37.5t35.5 -11.5l34 -4l-11 -36h-338l11 36l36 4q27 3 44.5 11.5t24.5 37.5l35 158h-271l-177 -162q-23 -21 -26 -32t23 -13l60 -4l-11 -36h-271zM541 306l55 251l-274 -251h219zM847 987h14
l82 -154h-29l-80 59l-170 -59h-35z" />
    <glyph glyph-name="Atilde" unicode="&#xc3;" horiz-adv-x="819" 
d="M-134 36l34 4q27 3 53 12.5t52 32.5l773 703h20l-145 -699q-6 -29 3.5 -37.5t35.5 -11.5l34 -4l-11 -36h-338l11 36l36 4q27 3 44.5 11.5t24.5 37.5l35 158h-271l-177 -162q-23 -21 -26 -32t23 -13l60 -4l-11 -36h-271zM541 306l55 251l-274 -251h219zM878 829
q-24 0 -43.5 9t-37 20t-34.5 20t-37 9q-23 0 -40 -11t-27 -43h-20q9 72 36.5 109.5t78.5 37.5q24 0 42.5 -9t35 -20t33 -20t36.5 -9q21 0 35.5 11t22.5 39h20q-7 -44 -17 -71.5t-22.5 -43.5t-28 -22t-33.5 -6z" />
    <glyph glyph-name="Adieresis" unicode="&#xc4;" horiz-adv-x="819" 
d="M-134 36l34 4q27 3 53 12.5t52 32.5l773 703h20l-145 -699q-6 -29 3.5 -37.5t35.5 -11.5l34 -4l-11 -36h-338l11 36l36 4q27 3 44.5 11.5t24.5 37.5l35 158h-271l-177 -162q-23 -21 -26 -32t23 -13l60 -4l-11 -36h-271zM541 306l55 251l-274 -251h219zM925 837
q-30 0 -50 20.5t-20 50.5q0 31 20 51t50 20q29 0 49.5 -20t20.5 -51q0 -30 -20.5 -50.5t-49.5 -20.5zM699 837q-30 0 -50 20.5t-20 50.5q0 31 20 51t50 20q29 0 49.5 -20t20.5 -51q0 -30 -20.5 -50.5t-49.5 -20.5z" />
    <glyph glyph-name="Aring" unicode="&#xc5;" horiz-adv-x="819" 
d="M-134 36l34 4q27 3 53 12.5t52 32.5l773 703h20l-145 -699q-6 -29 3.5 -37.5t35.5 -11.5l34 -4l-11 -36h-338l11 36l36 4q27 3 44.5 11.5t24.5 37.5l35 158h-271l-177 -162q-23 -21 -26 -32t23 -13l60 -4l-11 -36h-271zM541 306l55 251l-274 -251h219zM829 837
q-26 0 -48.5 9.5t-39 25.5t-26.5 38t-10 47t10 47t26.5 38.5t39 26t48.5 9.5q27 0 50 -9.5t40 -26t27 -38.5t10 -47t-10 -47t-27 -38t-40 -25.5t-50 -9.5zM829 890q32 0 49 18t17 49t-17 48.5t-49 17.5q-30 0 -47.5 -17.5t-17.5 -48.5t17.5 -49t47.5 -18z" />
    <glyph glyph-name="AE" unicode="&#xc6;" horiz-adv-x="1146" 
d="M-126 36l34 4q27 3 54 11.5t51 33.5l652 673h487l-46 -271h-12l-80 207q-5 12 -10 15t-21 3h-172l-90 -293h116q12 0 20 11l99 131h12l-103 -336h-12l-18 131q-1 11 -14 11h-116l-98 -321h225q13 0 18.5 3t16.5 11l261 211h12l-151 -271h-645l11 36l36 4q27 3 43.5 11.5
t25.5 37.5l49 158h-270l-157 -162q-22 -23 -25.5 -33t22.5 -12l60 -4l-11 -36h-265zM527 306l106 348l-337 -348h231z" />
    <glyph glyph-name="Ccedilla" unicode="&#xc7;" horiz-adv-x="811" 
d="M433 -13q-73 0 -138.5 21.5t-114.5 62.5t-78 101t-29 137q0 99 45.5 184.5t120 149t170 100t194.5 36.5q73 0 140.5 -16.5t110.5 -45.5l-29 -235h-22l-62 177q-14 40 -40 57q-15 10 -37.5 13.5t-54.5 3.5q-70 0 -134 -33t-113.5 -93.5t-79 -145t-29.5 -186.5
q0 -54 10.5 -98.5t33.5 -76.5t59.5 -49.5t88.5 -17.5q25 0 45 2.5t40 12.5q9 5 19 12t20 18l199 203h22l-137 -263q-21 -5 -47.5 -10.5t-55 -10t-59 -7.5t-58.5 -3zM257 -265q-50 0 -78 21t-28 45q0 23 19 32.5t41 -1.5q-4 -34 15 -49.5t47 -15.5q43 0 43 27q0 20 -22 38.5
t-63 46.5l143 121h48l-98 -83q23 -17 38.5 -37t15.5 -44q0 -45 -33 -73t-88 -28z" />
    <glyph glyph-name="Egrave" unicode="&#xc8;" horiz-adv-x="770" 
d="M-21 36l36 4q27 3 43.5 11.5t25.5 37.5l178 580q9 29 -2.5 37.5t-36.5 11.5l-34 4l11 36h576l-46 -271h-22l-70 207q-4 12 -9.5 15t-21.5 3h-172l-90 -293h116q12 0 20 11l89 131h22l-103 -336h-22l-8 131q0 11 -14 11h-116l-98 -321h225q13 0 18.5 3t16.5 11l251 211h22
l-151 -271h-645zM562 843l-183 126l1 3h163l46 -129h-27z" />
    <glyph glyph-name="Eacute" unicode="&#xc9;" horiz-adv-x="770" 
d="M-21 36l36 4q27 3 43.5 11.5t25.5 37.5l178 580q9 29 -2.5 37.5t-36.5 11.5l-34 4l11 36h576l-46 -271h-22l-70 207q-4 12 -9.5 15t-21.5 3h-172l-90 -293h116q12 0 20 11l89 131h22l-103 -336h-22l-8 131q0 11 -14 11h-116l-98 -321h225q13 0 18.5 3t16.5 11l251 211h22
l-151 -271h-645zM665 972h181l-1 -3l-270 -126h-32z" />
    <glyph glyph-name="Ecircumflex" unicode="&#xca;" horiz-adv-x="770" 
d="M-21 36l36 4q27 3 43.5 11.5t25.5 37.5l178 580q9 29 -2.5 37.5t-36.5 11.5l-34 4l11 36h576l-46 -271h-22l-70 207q-4 12 -9.5 15t-21.5 3h-172l-90 -293h116q12 0 20 11l89 131h22l-103 -336h-22l-8 131q0 11 -14 11h-116l-98 -321h225q13 0 18.5 3t16.5 11l251 211h22
l-151 -271h-645zM617 987h14l82 -154h-29l-80 59l-170 -59h-35z" />
    <glyph glyph-name="Edieresis" unicode="&#xcb;" horiz-adv-x="770" 
d="M-21 36l36 4q27 3 43.5 11.5t25.5 37.5l178 580q9 29 -2.5 37.5t-36.5 11.5l-34 4l11 36h576l-46 -271h-22l-70 207q-4 12 -9.5 15t-21.5 3h-172l-90 -293h116q12 0 20 11l89 131h22l-103 -336h-22l-8 131q0 11 -14 11h-116l-98 -321h225q13 0 18.5 3t16.5 11l251 211h22
l-151 -271h-645zM695 837q-30 0 -50 20.5t-20 50.5q0 31 20 51t50 20q29 0 49.5 -20t20.5 -51q0 -30 -20.5 -50.5t-49.5 -20.5zM469 837q-30 0 -50 20.5t-20 50.5q0 31 20 51t50 20q29 0 49.5 -20t20.5 -51q0 -30 -20.5 -50.5t-49.5 -20.5z" />
    <glyph glyph-name="Igrave" unicode="&#xcc;" horiz-adv-x="426" 
d="M-21 36l36 4q27 3 43.5 11.5t25.5 37.5l178 580q9 29 -2.5 37.5t-36.5 11.5l-34 4l11 36h338l-11 -36l-36 -4q-28 -3 -44 -11.5t-25 -37.5l-178 -580q-9 -29 2 -37.5t37 -11.5l34 -4l-11 -36h-338zM403 843l-183 126l1 3h163l46 -129h-27z" />
    <glyph glyph-name="Iacute" unicode="&#xcd;" horiz-adv-x="426" 
d="M-21 36l36 4q27 3 43.5 11.5t25.5 37.5l178 580q9 29 -2.5 37.5t-36.5 11.5l-34 4l11 36h338l-11 -36l-36 -4q-28 -3 -44 -11.5t-25 -37.5l-178 -580q-9 -29 2 -37.5t37 -11.5l34 -4l-11 -36h-338zM506 972h181l-1 -3l-270 -126h-32z" />
    <glyph glyph-name="Icircumflex" unicode="&#xce;" horiz-adv-x="426" 
d="M-21 36l36 4q27 3 43.5 11.5t25.5 37.5l178 580q9 29 -2.5 37.5t-36.5 11.5l-34 4l11 36h338l-11 -36l-36 -4q-28 -3 -44 -11.5t-25 -37.5l-178 -580q-9 -29 2 -37.5t37 -11.5l34 -4l-11 -36h-338zM458 987h14l82 -154h-29l-80 59l-170 -59h-35z" />
    <glyph glyph-name="Idieresis" unicode="&#xcf;" horiz-adv-x="426" 
d="M-21 36l36 4q27 3 43.5 11.5t25.5 37.5l178 580q9 29 -2.5 37.5t-36.5 11.5l-34 4l11 36h338l-11 -36l-36 -4q-28 -3 -44 -11.5t-25 -37.5l-178 -580q-9 -29 2 -37.5t37 -11.5l34 -4l-11 -36h-338zM536 837q-30 0 -50 20.5t-20 50.5q0 31 20 51t50 20q29 0 49.5 -20
t20.5 -51q0 -30 -20.5 -50.5t-49.5 -20.5zM310 837q-30 0 -50 20.5t-20 50.5q0 31 20 51t50 20q29 0 49.5 -20t20.5 -51q0 -30 -20.5 -50.5t-49.5 -20.5z" />
    <glyph glyph-name="Eth" unicode="&#xd0;" horiz-adv-x="858" 
d="M-21 36l36 4q27 3 43.5 11.5t25.5 37.5l178 580q9 29 -2.5 37.5t-36.5 11.5l-34 4l11 36h258q205 0 309 -73t104 -209q0 -93 -42.5 -179t-119 -152t-183.5 -105.5t-236 -39.5h-322zM299 44q96 0 170 39.5t124 104t75.5 147t25.5 167.5q0 103 -55.5 157.5t-171.5 54.5h-32
l-205 -670h69zM92 427h393l-18 -59h-393z" />
    <glyph glyph-name="Ntilde" unicode="&#xd1;" horiz-adv-x="877" 
d="M312 651l-173 -562q-9 -29 2 -37.5t37 -11.5l34 -4l-11 -36h-234l11 36l36 4q27 3 43.5 11.5t25.5 37.5l179 580q9 29 -2.5 37.5t-36.5 11.5l-34 4l11 36h235l265 -497l127 408q9 29 -2.5 37.5t-36.5 11.5l-34 4l11 36h234l-11 -36l-36 -4q-28 -3 -44 -11.5t-25 -37.5
l-210 -686h-4zM708 829q-24 0 -43.5 9t-37 20t-34.5 20t-37 9q-23 0 -40 -11t-27 -43h-20q9 72 36.5 109.5t78.5 37.5q24 0 42.5 -9t35 -20t33 -20t36.5 -9q21 0 35.5 11t22.5 39h20q-7 -44 -17 -71.5t-22.5 -43.5t-28 -22t-33.5 -6z" />
    <glyph glyph-name="Ograve" unicode="&#xd2;" horiz-adv-x="878" 
d="M368 -13q-64 0 -119.5 18t-97 53.5t-65.5 87.5t-24 120q0 56 17.5 115.5t50.5 116.5t80 108t106.5 89.5t129 61t148.5 22.5q64 0 119.5 -18t96.5 -53.5t65 -87.5t24 -120q0 -56 -17.5 -115.5t-50.5 -116.5t-80 -108t-106 -89.5t-129 -61t-148 -22.5zM398 29
q60 0 117 35.5t101.5 97.5t71 147.5t26.5 184.5q0 52 -7.5 96.5t-24.5 77t-46 51t-72 18.5q-60 0 -117 -35.5t-101.5 -97.5t-71 -147.5t-26.5 -184.5q0 -52 7.5 -96.5t24.5 -77t46 -51t72 -18.5zM627 843l-183 126l1 3h163l46 -129h-27z" />
    <glyph glyph-name="Oacute" unicode="&#xd3;" horiz-adv-x="878" 
d="M368 -13q-64 0 -119.5 18t-97 53.5t-65.5 87.5t-24 120q0 56 17.5 115.5t50.5 116.5t80 108t106.5 89.5t129 61t148.5 22.5q64 0 119.5 -18t96.5 -53.5t65 -87.5t24 -120q0 -56 -17.5 -115.5t-50.5 -116.5t-80 -108t-106 -89.5t-129 -61t-148 -22.5zM398 29
q60 0 117 35.5t101.5 97.5t71 147.5t26.5 184.5q0 52 -7.5 96.5t-24.5 77t-46 51t-72 18.5q-60 0 -117 -35.5t-101.5 -97.5t-71 -147.5t-26.5 -184.5q0 -52 7.5 -96.5t24.5 -77t46 -51t72 -18.5zM730 972h181l-1 -3l-270 -126h-32z" />
    <glyph glyph-name="Ocircumflex" unicode="&#xd4;" horiz-adv-x="878" 
d="M368 -13q-64 0 -119.5 18t-97 53.5t-65.5 87.5t-24 120q0 56 17.5 115.5t50.5 116.5t80 108t106.5 89.5t129 61t148.5 22.5q64 0 119.5 -18t96.5 -53.5t65 -87.5t24 -120q0 -56 -17.5 -115.5t-50.5 -116.5t-80 -108t-106 -89.5t-129 -61t-148 -22.5zM398 29
q60 0 117 35.5t101.5 97.5t71 147.5t26.5 184.5q0 52 -7.5 96.5t-24.5 77t-46 51t-72 18.5q-60 0 -117 -35.5t-101.5 -97.5t-71 -147.5t-26.5 -184.5q0 -52 7.5 -96.5t24.5 -77t46 -51t72 -18.5zM682 987h14l82 -154h-29l-80 59l-170 -59h-35z" />
    <glyph glyph-name="Otilde" unicode="&#xd5;" horiz-adv-x="878" 
d="M368 -13q-64 0 -119.5 18t-97 53.5t-65.5 87.5t-24 120q0 56 17.5 115.5t50.5 116.5t80 108t106.5 89.5t129 61t148.5 22.5q64 0 119.5 -18t96.5 -53.5t65 -87.5t24 -120q0 -56 -17.5 -115.5t-50.5 -116.5t-80 -108t-106 -89.5t-129 -61t-148 -22.5zM398 29
q60 0 117 35.5t101.5 97.5t71 147.5t26.5 184.5q0 52 -7.5 96.5t-24.5 77t-46 51t-72 18.5q-60 0 -117 -35.5t-101.5 -97.5t-71 -147.5t-26.5 -184.5q0 -52 7.5 -96.5t24.5 -77t46 -51t72 -18.5zM713 829q-24 0 -43.5 9t-37 20t-34.5 20t-37 9q-23 0 -40 -11t-27 -43h-20
q9 72 36.5 109.5t78.5 37.5q24 0 42.5 -9t35 -20t33 -20t36.5 -9q21 0 35.5 11t22.5 39h20q-7 -44 -17 -71.5t-22.5 -43.5t-28 -22t-33.5 -6z" />
    <glyph glyph-name="Odieresis" unicode="&#xd6;" horiz-adv-x="878" 
d="M368 -13q-64 0 -119.5 18t-97 53.5t-65.5 87.5t-24 120q0 56 17.5 115.5t50.5 116.5t80 108t106.5 89.5t129 61t148.5 22.5q64 0 119.5 -18t96.5 -53.5t65 -87.5t24 -120q0 -56 -17.5 -115.5t-50.5 -116.5t-80 -108t-106 -89.5t-129 -61t-148 -22.5zM398 29
q60 0 117 35.5t101.5 97.5t71 147.5t26.5 184.5q0 52 -7.5 96.5t-24.5 77t-46 51t-72 18.5q-60 0 -117 -35.5t-101.5 -97.5t-71 -147.5t-26.5 -184.5q0 -52 7.5 -96.5t24.5 -77t46 -51t72 -18.5zM760 837q-30 0 -50 20.5t-20 50.5q0 31 20 51t50 20q29 0 49.5 -20t20.5 -51
q0 -30 -20.5 -50.5t-49.5 -20.5zM534 837q-30 0 -50 20.5t-20 50.5q0 31 20 51t50 20q29 0 49.5 -20t20.5 -51q0 -30 -20.5 -50.5t-49.5 -20.5z" />
    <glyph glyph-name="multiply" unicode="&#xd7;" horiz-adv-x="649" 
d="M90 77l185 186l-185 185l53 53l185 -185l185 185l53 -53l-185 -185l185 -186l-53 -53l-185 185l-185 -185z" />
    <glyph glyph-name="Oslash" unicode="&#xd8;" horiz-adv-x="878" 
d="M368 -13q-64 0 -119.5 18t-97 53.5t-65.5 87.5t-24 120q0 56 17.5 115.5t50.5 116.5t80 108t106.5 89.5t129 61t148.5 22.5q64 0 119.5 -18t96.5 -53.5t65 -87.5t24 -120q0 -56 -17.5 -115.5t-50.5 -116.5t-80 -108t-106 -89.5t-129 -61t-148 -22.5zM398 29
q60 0 117 35.5t101.5 97.5t71 147.5t26.5 184.5q0 52 -7.5 96.5t-24.5 77t-46 51t-72 18.5q-60 0 -117 -35.5t-101.5 -97.5t-71 -147.5t-26.5 -184.5q0 -52 7.5 -96.5t24.5 -77t46 -51t72 -18.5zM27 -30l864 870l43 -43l-864 -870z" />
    <glyph glyph-name="Ugrave" unicode="&#xd9;" horiz-adv-x="861" 
d="M391 -13q-77 0 -137 18t-96 57t-44.5 100.5t18.5 147.5l110 359q9 29 -2.5 37.5t-36.5 11.5l-34 4l11 36h338l-11 -36l-36 -4q-28 -3 -44 -11.5t-25 -37.5l-116 -377q-20 -66 -18.5 -110.5t21 -71.5t56 -38.5t85.5 -11.5q103 0 172 58t109 188l111 363q9 29 -2.5 38
t-36.5 11l-44 4l11 36h244l-11 -36l-36 -4q-28 -3 -44 -11.5t-25 -37.5l-115 -373q-23 -75 -56 -133t-78.5 -97t-104 -59t-133.5 -20zM635 843l-183 126l1 3h163l46 -129h-27z" />
    <glyph glyph-name="Uacute" unicode="&#xda;" horiz-adv-x="861" 
d="M391 -13q-77 0 -137 18t-96 57t-44.5 100.5t18.5 147.5l110 359q9 29 -2.5 37.5t-36.5 11.5l-34 4l11 36h338l-11 -36l-36 -4q-28 -3 -44 -11.5t-25 -37.5l-116 -377q-20 -66 -18.5 -110.5t21 -71.5t56 -38.5t85.5 -11.5q103 0 172 58t109 188l111 363q9 29 -2.5 38
t-36.5 11l-44 4l11 36h244l-11 -36l-36 -4q-28 -3 -44 -11.5t-25 -37.5l-115 -373q-23 -75 -56 -133t-78.5 -97t-104 -59t-133.5 -20zM738 972h181l-1 -3l-270 -126h-32z" />
    <glyph glyph-name="Ucircumflex" unicode="&#xdb;" horiz-adv-x="861" 
d="M391 -13q-77 0 -137 18t-96 57t-44.5 100.5t18.5 147.5l110 359q9 29 -2.5 37.5t-36.5 11.5l-34 4l11 36h338l-11 -36l-36 -4q-28 -3 -44 -11.5t-25 -37.5l-116 -377q-20 -66 -18.5 -110.5t21 -71.5t56 -38.5t85.5 -11.5q103 0 172 58t109 188l111 363q9 29 -2.5 38
t-36.5 11l-44 4l11 36h244l-11 -36l-36 -4q-28 -3 -44 -11.5t-25 -37.5l-115 -373q-23 -75 -56 -133t-78.5 -97t-104 -59t-133.5 -20zM690 987h14l82 -154h-29l-80 59l-170 -59h-35z" />
    <glyph glyph-name="Udieresis" unicode="&#xdc;" horiz-adv-x="861" 
d="M391 -13q-77 0 -137 18t-96 57t-44.5 100.5t18.5 147.5l110 359q9 29 -2.5 37.5t-36.5 11.5l-34 4l11 36h338l-11 -36l-36 -4q-28 -3 -44 -11.5t-25 -37.5l-116 -377q-20 -66 -18.5 -110.5t21 -71.5t56 -38.5t85.5 -11.5q103 0 172 58t109 188l111 363q9 29 -2.5 38
t-36.5 11l-44 4l11 36h244l-11 -36l-36 -4q-28 -3 -44 -11.5t-25 -37.5l-115 -373q-23 -75 -56 -133t-78.5 -97t-104 -59t-133.5 -20zM768 837q-30 0 -50 20.5t-20 50.5q0 31 20 51t50 20q29 0 49.5 -20t20.5 -51q0 -30 -20.5 -50.5t-49.5 -20.5zM542 837q-30 0 -50 20.5
t-20 50.5q0 31 20 51t50 20q29 0 49.5 -20t20.5 -51q0 -30 -20.5 -50.5t-49.5 -20.5z" />
    <glyph glyph-name="Yacute" unicode="&#xdd;" horiz-adv-x="780" 
d="M132 38l61 4q26 2 42.5 10t25.5 37l78 253l-119 331q-9 25 -17 33.5t-33 11.5l-32 4l11 36h339l-11 -36l-44 -4q-27 -2 -41.5 -11.5t-6.5 -33.5l94 -272l265 272q24 25 21.5 34t-28.5 11l-62 4l11 36h270l-11 -36l-34 -4q-28 -3 -47.5 -11.5t-43.5 -33.5l-322 -332
l-77 -252q-9 -29 2.5 -37.5t37.5 -9.5l59 -4l-12 -38h-388zM705 972h181l-1 -3l-270 -126h-32z" />
    <glyph glyph-name="Thorn" unicode="&#xde;" horiz-adv-x="743" 
d="M200 758h337l-11 -36l-36 -4q-26 -3 -42.5 -10t-24.5 -32l-24 -79h69q65 0 119.5 -7t94 -25t61.5 -48t22 -76q0 -53 -25.5 -100.5t-77 -83.5t-129 -57t-181.5 -21h-81l-27 -90q-9 -30 2.5 -38t37.5 -9l69 -4l-12 -38h-373l11 36l36 4q27 3 43.5 11.5t25.5 37.5l178 580
q9 29 -2.5 37.5t-36.5 11.5l-34 4zM359 224q63 0 106.5 20.5t71 52.5t39.5 71.5t12 77.5q0 55 -31 81t-98 26h-74l-100 -329h74z" />
    <glyph glyph-name="germandbls" unicode="&#xdf;" horiz-adv-x="669" 
d="M-166 -261q-42 0 -63.5 22t-21.5 52q0 25 19.5 46.5t48.5 23.5q25 -30 48.5 -53.5t44.5 -23.5q9 0 16 5t14.5 20.5t18 43.5t25.5 73l163 477h-67l10 32q11 1 24.5 4.5t26.5 10.5t24 18t17 28l4 11q18 49 48 96t73.5 83.5t102 58.5t133.5 22q76 0 120.5 -26t44.5 -80
q0 -42 -25 -69.5t-75 -50.5l-55 -25q-37 -17 -53.5 -33t-16.5 -34q0 -16 12 -36t37 -53l18 -24q29 -39 46.5 -75t17.5 -76q0 -44 -18.5 -84t-53 -70t-83 -48t-108.5 -18q-66 0 -101 26t-35 56q0 18 9 33.5t24 26t34 15t38 0.5q-5 -51 13.5 -83t53.5 -32q21 0 40 7t33.5 20.5
t23.5 32t9 41.5q0 31 -13.5 58.5t-36.5 57.5l-18 24q-20 27 -33 46.5t-20.5 35t-10 28.5t-2.5 27q0 40 32.5 72.5t103.5 67.5l6 3q47 23 68.5 53.5t21.5 73.5q0 41 -22 58t-52 17q-18 0 -40 -6.5t-44.5 -24t-43.5 -48t-38 -79.5l-142 -413q-40 -116 -89 -199.5t-99.5 -137.5
t-99 -79.5t-87.5 -25.5z" />
    <glyph glyph-name="agrave" unicode="&#xe0;" horiz-adv-x="582" 
d="M89 -13q-44 0 -67 30.5t-23 75.5t16 94t43 96.5t63 90.5t75 75.5t79 52t76 19.5q26 0 41.5 -15t18.5 -32h1l17 46h140l-149 -405q-15 -40 -16 -56t15 -16q9 0 24.5 8t34 25t38.5 45t40 67l29 -12q-21 -43 -46 -78t-55.5 -59.5t-68 -38t-82.5 -13.5q-32 0 -47.5 9.5
t-19.5 26t1.5 39.5t16.5 50l25 65h-2q-30 -50 -55 -86t-49.5 -59t-52 -34t-61.5 -11zM179 65q14 0 38 25.5t49.5 64.5t49.5 84.5t39 84.5q34 91 30.5 128.5t-33.5 37.5q-24 0 -47.5 -19.5t-45 -51t-40 -72t-32 -82.5t-21 -82t-7.5 -71q0 -47 20 -47zM408 609l-159 168l4 11
h132l48 -179h-25z" />
    <glyph glyph-name="aacute" unicode="&#xe1;" horiz-adv-x="582" 
d="M89 -13q-44 0 -67 30.5t-23 75.5t16 94t43 96.5t63 90.5t75 75.5t79 52t76 19.5q26 0 41.5 -15t18.5 -32h1l17 46h140l-149 -405q-15 -40 -16 -56t15 -16q9 0 24.5 8t34 25t38.5 45t40 67l29 -12q-21 -43 -46 -78t-55.5 -59.5t-68 -38t-82.5 -13.5q-32 0 -47.5 9.5
t-19.5 26t1.5 39.5t16.5 50l25 65h-2q-30 -50 -55 -86t-49.5 -59t-52 -34t-61.5 -11zM179 65q14 0 38 25.5t49.5 64.5t49.5 84.5t39 84.5q34 91 30.5 128.5t-33.5 37.5q-24 0 -47.5 -19.5t-45 -51t-40 -72t-32 -82.5t-21 -82t-7.5 -71q0 -47 20 -47zM507 788h157l-4 -11
l-267 -168h-29z" />
    <glyph glyph-name="acircumflex" unicode="&#xe2;" horiz-adv-x="582" 
d="M89 -13q-44 0 -67 30.5t-23 75.5t16 94t43 96.5t63 90.5t75 75.5t79 52t76 19.5q26 0 41.5 -15t18.5 -32h1l17 46h140l-149 -405q-15 -40 -16 -56t15 -16q9 0 24.5 8t34 25t38.5 45t40 67l29 -12q-21 -43 -46 -78t-55.5 -59.5t-68 -38t-82.5 -13.5q-32 0 -47.5 9.5
t-19.5 26t1.5 39.5t16.5 50l25 65h-2q-30 -50 -55 -86t-49.5 -59t-52 -34t-61.5 -11zM179 65q14 0 38 25.5t49.5 64.5t49.5 84.5t39 84.5q34 91 30.5 128.5t-33.5 37.5q-24 0 -47.5 -19.5t-45 -51t-40 -72t-32 -82.5t-21 -82t-7.5 -71q0 -47 20 -47zM484 805h11l64 -196h-27
l-76 80l-176 -80h-30z" />
    <glyph glyph-name="atilde" unicode="&#xe3;" horiz-adv-x="582" 
d="M89 -13q-44 0 -67 30.5t-23 75.5t16 94t43 96.5t63 90.5t75 75.5t79 52t76 19.5q26 0 41.5 -15t18.5 -32h1l17 46h140l-149 -405q-15 -40 -16 -56t15 -16q9 0 24.5 8t34 25t38.5 45t40 67l29 -12q-21 -43 -46 -78t-55.5 -59.5t-68 -38t-82.5 -13.5q-32 0 -47.5 9.5
t-19.5 26t1.5 39.5t16.5 50l25 65h-2q-30 -50 -55 -86t-49.5 -59t-52 -34t-61.5 -11zM179 65q14 0 38 25.5t49.5 64.5t49.5 84.5t39 84.5q34 91 30.5 128.5t-33.5 37.5q-24 0 -47.5 -19.5t-45 -51t-40 -72t-32 -82.5t-21 -82t-7.5 -71q0 -47 20 -47zM516 645q-24 0 -43.5 9
t-37 20t-34.5 20t-37 9q-23 0 -40 -11t-27 -43h-20q9 72 36.5 109.5t78.5 37.5q24 0 42.5 -9t35 -20t33 -20t36.5 -9q21 0 35.5 11t22.5 39h20q-7 -44 -17 -71.5t-22.5 -43.5t-28 -22t-33.5 -6z" />
    <glyph glyph-name="adieresis" unicode="&#xe4;" horiz-adv-x="582" 
d="M89 -13q-44 0 -67 30.5t-23 75.5t16 94t43 96.5t63 90.5t75 75.5t79 52t76 19.5q26 0 41.5 -15t18.5 -32h1l17 46h140l-149 -405q-15 -40 -16 -56t15 -16q9 0 24.5 8t34 25t38.5 45t40 67l29 -12q-21 -43 -46 -78t-55.5 -59.5t-68 -38t-82.5 -13.5q-32 0 -47.5 9.5
t-19.5 26t1.5 39.5t16.5 50l25 65h-2q-30 -50 -55 -86t-49.5 -59t-52 -34t-61.5 -11zM179 65q14 0 38 25.5t49.5 64.5t49.5 84.5t39 84.5q34 91 30.5 128.5t-33.5 37.5q-24 0 -47.5 -19.5t-45 -51t-40 -72t-32 -82.5t-21 -82t-7.5 -71q0 -47 20 -47zM324 636q-29 0 -48.5 20
t-19.5 49q0 30 19.5 49.5t48.5 19.5t48.5 -19.5t19.5 -49.5q0 -29 -19.5 -49t-48.5 -20zM550 636q-29 0 -48.5 20t-19.5 49q0 30 19.5 49.5t48.5 19.5t48.5 -19.5t19.5 -49.5q0 -29 -19.5 -49t-48.5 -20z" />
    <glyph glyph-name="aring" unicode="&#xe5;" horiz-adv-x="582" 
d="M89 -13q-44 0 -67 30.5t-23 75.5t16 94t43 96.5t63 90.5t75 75.5t79 52t76 19.5q26 0 41.5 -15t18.5 -32h1l17 46h140l-149 -405q-15 -40 -16 -56t15 -16q9 0 24.5 8t34 25t38.5 45t40 67l29 -12q-21 -43 -46 -78t-55.5 -59.5t-68 -38t-82.5 -13.5q-32 0 -47.5 9.5
t-19.5 26t1.5 39.5t16.5 50l25 65h-2q-30 -50 -55 -86t-49.5 -59t-52 -34t-61.5 -11zM179 65q14 0 38 25.5t49.5 64.5t49.5 84.5t39 84.5q34 91 30.5 128.5t-33.5 37.5q-24 0 -47.5 -19.5t-45 -51t-40 -72t-32 -82.5t-21 -82t-7.5 -71q0 -47 20 -47zM437 585
q-26 0 -48.5 9.5t-39 25.5t-26.5 38t-10 47t10 47t26.5 38.5t39 26t48.5 9.5q27 0 50 -9.5t40 -26t27 -38.5t10 -47t-10 -47t-27 -38t-40 -25.5t-50 -9.5zM437 638q32 0 49 18t17 49t-17 48.5t-49 17.5q-30 0 -47.5 -17.5t-17.5 -48.5t17.5 -49t47.5 -18z" />
    <glyph glyph-name="ae" unicode="&#xe6;" horiz-adv-x="755" 
d="M101 -13q-48 0 -75.5 28.5t-27.5 88.5q0 43 15 91t48 95.5t86 90.5t129 75q71 30 162 47.5t207 17.5q60 0 89.5 -29t29.5 -70q0 -28 -13.5 -57t-37.5 -53l-236 -2q-11 -32 -17.5 -66.5t-6.5 -71.5q0 -63 18.5 -89.5t53.5 -26.5q78 0 151 143l30 -10q-48 -102 -109 -152
t-149 -50q-66 0 -106.5 32t-48.5 93q-20 -26 -43 -48.5t-47.5 -39.5t-50.5 -27t-51 -10zM162 123q0 -31 6.5 -44.5t20.5 -13.5q17 0 43.5 18.5t58.5 65.5q2 54 23 106t54.5 97t75.5 80.5t87 58.5q-61 -8 -109 -24t-86 -38q-51 -30 -85 -67.5t-53.5 -78.5t-27.5 -82.5
t-8 -77.5zM650 490q-22 0 -44.5 -11.5t-44.5 -32t-41 -49.5t-34 -63h25q40 0 72.5 12.5t55.5 31t35.5 39.5t12.5 39q0 34 -37 34z" />
    <glyph glyph-name="ccedilla" unicode="&#xe7;" horiz-adv-x="461" 
d="M162 -13q-72 0 -110 39t-38 112q0 45 14 91t38.5 88.5t57.5 79.5t71.5 64.5t80 43.5t83.5 16q49 0 82.5 -21.5t33.5 -66.5q0 -40 -37.5 -64.5t-103.5 -16.5q20 77 20 107t-22 30q-23 0 -50.5 -27.5t-51 -72t-39 -101.5t-15.5 -116q0 -63 17 -89.5t52 -26.5
q33 0 69.5 30.5t70.5 107.5l29 -11q-44 -108 -108.5 -152t-143.5 -44zM53 -265q-50 0 -78 21t-28 45q0 23 19 32.5t41 -1.5q-4 -34 15 -49.5t47 -15.5q43 0 43 27q0 20 -22 38.5t-63 46.5l143 121h48l-98 -83q23 -17 38.5 -37t15.5 -44q0 -45 -33 -73t-88 -28z" />
    <glyph glyph-name="egrave" unicode="&#xe8;" horiz-adv-x="477" 
d="M170 -13q-72 0 -114.5 39t-42.5 112t34.5 142t87 122.5t114.5 86t118 32.5q60 0 89.5 -29t29.5 -70q0 -28 -13.5 -57t-37.5 -53l-236 -2q-11 -32 -17.5 -66.5t-6.5 -71.5q0 -63 18.5 -89.5t53.5 -26.5q78 0 151 143l30 -10q-48 -102 -109 -152t-149 -50zM372 490
q-22 0 -44.5 -11.5t-44.5 -32t-41 -49.5t-34 -63h25q40 0 72.5 12.5t55.5 31t35.5 39.5t12.5 39q0 34 -37 34zM407 609l-159 168l4 11h132l48 -179h-25z" />
    <glyph glyph-name="eacute" unicode="&#xe9;" horiz-adv-x="477" 
d="M170 -13q-72 0 -114.5 39t-42.5 112t34.5 142t87 122.5t114.5 86t118 32.5q60 0 89.5 -29t29.5 -70q0 -28 -13.5 -57t-37.5 -53l-236 -2q-11 -32 -17.5 -66.5t-6.5 -71.5q0 -63 18.5 -89.5t53.5 -26.5q78 0 151 143l30 -10q-48 -102 -109 -152t-149 -50zM372 490
q-22 0 -44.5 -11.5t-44.5 -32t-41 -49.5t-34 -63h25q40 0 72.5 12.5t55.5 31t35.5 39.5t12.5 39q0 34 -37 34zM506 788h157l-4 -11l-267 -168h-29z" />
    <glyph glyph-name="ecircumflex" unicode="&#xea;" horiz-adv-x="477" 
d="M170 -13q-72 0 -114.5 39t-42.5 112t34.5 142t87 122.5t114.5 86t118 32.5q60 0 89.5 -29t29.5 -70q0 -28 -13.5 -57t-37.5 -53l-236 -2q-11 -32 -17.5 -66.5t-6.5 -71.5q0 -63 18.5 -89.5t53.5 -26.5q78 0 151 143l30 -10q-48 -102 -109 -152t-149 -50zM372 490
q-22 0 -44.5 -11.5t-44.5 -32t-41 -49.5t-34 -63h25q40 0 72.5 12.5t55.5 31t35.5 39.5t12.5 39q0 34 -37 34zM483 805h11l64 -196h-27l-76 80l-176 -80h-30z" />
    <glyph glyph-name="edieresis" unicode="&#xeb;" horiz-adv-x="477" 
d="M170 -13q-72 0 -114.5 39t-42.5 112t34.5 142t87 122.5t114.5 86t118 32.5q60 0 89.5 -29t29.5 -70q0 -28 -13.5 -57t-37.5 -53l-236 -2q-11 -32 -17.5 -66.5t-6.5 -71.5q0 -63 18.5 -89.5t53.5 -26.5q78 0 151 143l30 -10q-48 -102 -109 -152t-149 -50zM372 490
q-22 0 -44.5 -11.5t-44.5 -32t-41 -49.5t-34 -63h25q40 0 72.5 12.5t55.5 31t35.5 39.5t12.5 39q0 34 -37 34zM323 636q-29 0 -48.5 20t-19.5 49q0 30 19.5 49.5t48.5 19.5t48.5 -19.5t19.5 -49.5q0 -29 -19.5 -49t-48.5 -20zM549 636q-29 0 -48.5 20t-19.5 49
q0 30 19.5 49.5t48.5 19.5t48.5 -19.5t19.5 -49.5q0 -29 -19.5 -49t-48.5 -20z" />
    <glyph glyph-name="igrave" unicode="&#xec;" horiz-adv-x="357" 
d="M102 -13q-32 0 -49.5 9t-24 24.5t-3 37.5t13.5 49l130 337h-93l11 32l262 53l-159 -414q-15 -40 -16.5 -56t14.5 -16q9 0 24.5 8t34 25t38.5 45t40 67l29 -12q-21 -43 -46 -78t-55.5 -59.5t-68 -38t-82.5 -13.5zM305 609l-159 168l4 11h132l48 -179h-25z" />
    <glyph glyph-name="iacute" unicode="&#xed;" horiz-adv-x="357" 
d="M102 -13q-32 0 -49.5 9t-24 24.5t-3 37.5t13.5 49l130 337h-93l11 32l262 53l-159 -414q-15 -40 -16.5 -56t14.5 -16q9 0 24.5 8t34 25t38.5 45t40 67l29 -12q-21 -43 -46 -78t-55.5 -59.5t-68 -38t-82.5 -13.5zM404 788h157l-4 -11l-267 -168h-29z" />
    <glyph glyph-name="icircumflex" unicode="&#xee;" horiz-adv-x="357" 
d="M102 -13q-32 0 -49.5 9t-24 24.5t-3 37.5t13.5 49l130 337h-93l11 32l262 53l-159 -414q-15 -40 -16.5 -56t14.5 -16q9 0 24.5 8t34 25t38.5 45t40 67l29 -12q-21 -43 -46 -78t-55.5 -59.5t-68 -38t-82.5 -13.5zM381 805h11l64 -196h-27l-76 80l-176 -80h-30z" />
    <glyph glyph-name="idieresis" unicode="&#xef;" horiz-adv-x="357" 
d="M102 -13q-32 0 -49.5 9t-24 24.5t-3 37.5t13.5 49l130 337h-93l11 32l262 53l-159 -414q-15 -40 -16.5 -56t14.5 -16q9 0 24.5 8t34 25t38.5 45t40 67l29 -12q-21 -43 -46 -78t-55.5 -59.5t-68 -38t-82.5 -13.5zM234 636q-29 0 -48.5 20t-19.5 49q0 30 19.5 49.5
t48.5 19.5t48.5 -19.5t19.5 -49.5q0 -29 -19.5 -49t-48.5 -20zM434 636q-29 0 -48.5 20t-19.5 49q0 30 19.5 49.5t48.5 19.5t48.5 -19.5t19.5 -49.5q0 -29 -19.5 -49t-48.5 -20z" />
    <glyph glyph-name="eth" unicode="&#xf0;" horiz-adv-x="523" 
d="M157 -13q-30 0 -56.5 8.5t-46 26t-30.5 44t-11 62.5q0 38 12 82t32.5 87.5t48 84t58.5 71.5t64.5 49.5t66.5 18.5q22 0 40 -10q-7 36 -20.5 70.5t-36.5 67.5l-139 -65l-20 45l129 59q-18 21 -40.5 40.5t-49.5 39.5l22 29q77 -34 138 -76l159 73l20 -44l-136 -63
q69 -60 108.5 -135t39.5 -166q0 -81 -29.5 -153.5t-79 -127t-113 -86.5t-130.5 -32zM173 113q0 -42 8.5 -64t31.5 -22t46.5 22t42.5 68t31 117t12 169q0 30 -3 57q-9 32 -38 32q-18 0 -34.5 -17.5t-31 -47.5t-26.5 -68.5t-20.5 -81t-13.5 -85t-5 -79.5z" />
    <glyph glyph-name="ntilde" unicode="&#xf1;" horiz-adv-x="631" 
d="M367 -13q-32 0 -51 9t-26.5 25t-4 38t15.5 48l108 224q17 35 26 57.5t12 36t0 18.5t-10 5q-19 0 -50 -38t-69 -97q-23 -35 -47 -73.5t-46 -78t-41 -77.5t-31 -71l-157 -23l175 454h-93l11 32l261 53l-136 -336h1q29 54 54.5 96.5t47.5 76.5q28 43 52.5 72.5t48.5 48
t48 26.5t50 8q29 0 47.5 -13.5t24.5 -38t-0.5 -59t-27.5 -77.5l-105 -218q-18 -38 -18 -55t16 -17q9 0 24.5 8t34 25t38.5 45t40 67l29 -12q-21 -43 -46 -78t-55.5 -59.5t-68 -38t-82.5 -13.5zM567 645q-24 0 -43.5 9t-37 20t-34.5 20t-37 9q-23 0 -40 -11t-27 -43h-20
q9 72 36.5 109.5t78.5 37.5q24 0 42.5 -9t35 -20t33 -20t36.5 -9q21 0 35.5 11t22.5 39h20q-7 -44 -17 -71.5t-22.5 -43.5t-28 -22t-33.5 -6z" />
    <glyph glyph-name="ograve" unicode="&#xf2;" horiz-adv-x="520" 
d="M160 -13q-36 0 -63 11.5t-45.5 31.5t-28 46t-9.5 56q0 68 29 137.5t77.5 125.5t111.5 91t131 35q36 0 63 -11.5t45.5 -31.5t28 -46t9.5 -56q0 -69 -29 -138.5t-77.5 -125t-111.5 -90.5t-131 -35zM217 29q19 0 42 25t42 72t31.5 114.5t12.5 152.5q0 86 -37 86
q-21 0 -43.5 -25t-42 -72t-32 -114.5t-12.5 -152.5q0 -42 9 -64t30 -22zM388 609l-159 168l4 11h132l48 -179h-25z" />
    <glyph glyph-name="oacute" unicode="&#xf3;" horiz-adv-x="520" 
d="M160 -13q-36 0 -63 11.5t-45.5 31.5t-28 46t-9.5 56q0 68 29 137.5t77.5 125.5t111.5 91t131 35q36 0 63 -11.5t45.5 -31.5t28 -46t9.5 -56q0 -69 -29 -138.5t-77.5 -125t-111.5 -90.5t-131 -35zM217 29q19 0 42 25t42 72t31.5 114.5t12.5 152.5q0 86 -37 86
q-21 0 -43.5 -25t-42 -72t-32 -114.5t-12.5 -152.5q0 -42 9 -64t30 -22zM487 788h157l-4 -11l-267 -168h-29z" />
    <glyph glyph-name="ocircumflex" unicode="&#xf4;" horiz-adv-x="520" 
d="M160 -13q-36 0 -63 11.5t-45.5 31.5t-28 46t-9.5 56q0 68 29 137.5t77.5 125.5t111.5 91t131 35q36 0 63 -11.5t45.5 -31.5t28 -46t9.5 -56q0 -69 -29 -138.5t-77.5 -125t-111.5 -90.5t-131 -35zM217 29q19 0 42 25t42 72t31.5 114.5t12.5 152.5q0 86 -37 86
q-21 0 -43.5 -25t-42 -72t-32 -114.5t-12.5 -152.5q0 -42 9 -64t30 -22zM464 805h11l64 -196h-27l-76 80l-176 -80h-30z" />
    <glyph glyph-name="otilde" unicode="&#xf5;" horiz-adv-x="520" 
d="M160 -13q-36 0 -63 11.5t-45.5 31.5t-28 46t-9.5 56q0 68 29 137.5t77.5 125.5t111.5 91t131 35q36 0 63 -11.5t45.5 -31.5t28 -46t9.5 -56q0 -69 -29 -138.5t-77.5 -125t-111.5 -90.5t-131 -35zM217 29q19 0 42 25t42 72t31.5 114.5t12.5 152.5q0 86 -37 86
q-21 0 -43.5 -25t-42 -72t-32 -114.5t-12.5 -152.5q0 -42 9 -64t30 -22zM496 645q-24 0 -43.5 9t-37 20t-34.5 20t-37 9q-23 0 -40 -11t-27 -43h-20q9 72 36.5 109.5t78.5 37.5q24 0 42.5 -9t35 -20t33 -20t36.5 -9q21 0 35.5 11t22.5 39h20q-7 -44 -17 -71.5t-22.5 -43.5
t-28 -22t-33.5 -6z" />
    <glyph glyph-name="odieresis" unicode="&#xf6;" horiz-adv-x="520" 
d="M160 -13q-36 0 -63 11.5t-45.5 31.5t-28 46t-9.5 56q0 68 29 137.5t77.5 125.5t111.5 91t131 35q36 0 63 -11.5t45.5 -31.5t28 -46t9.5 -56q0 -69 -29 -138.5t-77.5 -125t-111.5 -90.5t-131 -35zM217 29q19 0 42 25t42 72t31.5 114.5t12.5 152.5q0 86 -37 86
q-21 0 -43.5 -25t-42 -72t-32 -114.5t-12.5 -152.5q0 -42 9 -64t30 -22zM304 636q-29 0 -48.5 20t-19.5 49q0 30 19.5 49.5t48.5 19.5t48.5 -19.5t19.5 -49.5q0 -29 -19.5 -49t-48.5 -20zM530 636q-29 0 -48.5 20t-19.5 49q0 30 19.5 49.5t48.5 19.5t48.5 -19.5t19.5 -49.5
q0 -29 -19.5 -49t-48.5 -20z" />
    <glyph glyph-name="divide" unicode="&#xf7;" horiz-adv-x="649" 
d="M329 363q-37 0 -63 26t-26 64q0 37 26 63t63 26q38 0 64 -26t26 -63q0 -38 -26 -64t-64 -26zM66 300h527v-75h-527v75zM329 -17q-37 0 -63 26t-26 64q0 37 26 63t63 26q38 0 64 -26t26 -63q0 -38 -26 -64t-64 -26z" />
    <glyph glyph-name="oslash" unicode="&#xf8;" horiz-adv-x="560" 
d="M180 -13q-36 0 -63 11.5t-45.5 31.5t-28 46t-9.5 56q0 68 29 137.5t77.5 125.5t111.5 91t131 35q36 0 63 -11.5t45.5 -31.5t28 -46t9.5 -56q0 -69 -29 -138.5t-77.5 -125t-111.5 -90.5t-131 -35zM237 29q19 0 42 25t42 72t31.5 114.5t12.5 152.5q0 86 -37 86
q-21 0 -43.5 -25t-42 -72t-32 -114.5t-12.5 -152.5q0 -42 9 -64t30 -22zM621 532l-647 -592l-33 37l647 592z" />
    <glyph glyph-name="ugrave" unicode="&#xf9;" horiz-adv-x="627" 
d="M205 177q-16 -36 -25 -58.5t-12 -35.5t-0.5 -18t9.5 -5q19 0 50 38t69 97q23 34 46 72.5t44.5 77.5t40.5 76.5t34 71.5l156 26l-156 -404q-15 -40 -16.5 -56t14.5 -16q9 0 24.5 8t34 25t38.5 45t40 67l29 -12q-21 -43 -46 -78t-55.5 -59.5t-68 -38t-82.5 -13.5
q-32 0 -50 9t-24.5 24.5t-3 37.5t14.5 49l77 189h-1q-24 -44 -47.5 -83t-43.5 -69q-27 -43 -51.5 -73t-47.5 -48.5t-47 -27t-51 -8.5q-59 0 -71 50t27 138l119 269h-93l11 32l272 53zM441 609l-159 168l4 11h132l48 -179h-25z" />
    <glyph glyph-name="uacute" unicode="&#xfa;" horiz-adv-x="627" 
d="M205 177q-16 -36 -25 -58.5t-12 -35.5t-0.5 -18t9.5 -5q19 0 50 38t69 97q23 34 46 72.5t44.5 77.5t40.5 76.5t34 71.5l156 26l-156 -404q-15 -40 -16.5 -56t14.5 -16q9 0 24.5 8t34 25t38.5 45t40 67l29 -12q-21 -43 -46 -78t-55.5 -59.5t-68 -38t-82.5 -13.5
q-32 0 -50 9t-24.5 24.5t-3 37.5t14.5 49l77 189h-1q-24 -44 -47.5 -83t-43.5 -69q-27 -43 -51.5 -73t-47.5 -48.5t-47 -27t-51 -8.5q-59 0 -71 50t27 138l119 269h-93l11 32l272 53zM540 788h157l-4 -11l-267 -168h-29z" />
    <glyph glyph-name="ucircumflex" unicode="&#xfb;" horiz-adv-x="627" 
d="M205 177q-16 -36 -25 -58.5t-12 -35.5t-0.5 -18t9.5 -5q19 0 50 38t69 97q23 34 46 72.5t44.5 77.5t40.5 76.5t34 71.5l156 26l-156 -404q-15 -40 -16.5 -56t14.5 -16q9 0 24.5 8t34 25t38.5 45t40 67l29 -12q-21 -43 -46 -78t-55.5 -59.5t-68 -38t-82.5 -13.5
q-32 0 -50 9t-24.5 24.5t-3 37.5t14.5 49l77 189h-1q-24 -44 -47.5 -83t-43.5 -69q-27 -43 -51.5 -73t-47.5 -48.5t-47 -27t-51 -8.5q-59 0 -71 50t27 138l119 269h-93l11 32l272 53zM517 805h11l64 -196h-27l-76 80l-176 -80h-30z" />
    <glyph glyph-name="udieresis" unicode="&#xfc;" horiz-adv-x="627" 
d="M205 177q-16 -36 -25 -58.5t-12 -35.5t-0.5 -18t9.5 -5q19 0 50 38t69 97q23 34 46 72.5t44.5 77.5t40.5 76.5t34 71.5l156 26l-156 -404q-15 -40 -16.5 -56t14.5 -16q9 0 24.5 8t34 25t38.5 45t40 67l29 -12q-21 -43 -46 -78t-55.5 -59.5t-68 -38t-82.5 -13.5
q-32 0 -50 9t-24.5 24.5t-3 37.5t14.5 49l77 189h-1q-24 -44 -47.5 -83t-43.5 -69q-27 -43 -51.5 -73t-47.5 -48.5t-47 -27t-51 -8.5q-59 0 -71 50t27 138l119 269h-93l11 32l272 53zM357 636q-29 0 -48.5 20t-19.5 49q0 30 19.5 49.5t48.5 19.5t48.5 -19.5t19.5 -49.5
q0 -29 -19.5 -49t-48.5 -20zM583 636q-29 0 -48.5 20t-19.5 49q0 30 19.5 49.5t48.5 19.5t48.5 -19.5t19.5 -49.5q0 -29 -19.5 -49t-48.5 -20z" />
    <glyph glyph-name="yacute" unicode="&#xfd;" horiz-adv-x="564" 
d="M-91 -261q-34 0 -53.5 18.5t-19.5 47.5q0 18 10 38t28 28q25 -13 47 -20.5t50 -7.5q15 0 32.5 4t37.5 15.5t44 33t53 56.5l2 485l-83 -5l-1 31l232 66l-6 -377l119 171q36 51 62 88.5t47 61.5t40 36t41 12q29 0 42.5 -15.5t13.5 -38.5q0 -26 -10.5 -41.5t-22.5 -23.5
q-35 -9 -61 -16t-45 -14.5t-31.5 -16.5t-21.5 -22l-225 -323q-32 -45 -72 -93t-83 -87.5t-86 -65t-80 -25.5zM540 788h157l-4 -11l-267 -168h-29z" />
    <glyph glyph-name="thorn" unicode="&#xfe;" horiz-adv-x="561" 
d="M288 446q28 32 67.5 53.5t80.5 21.5q57 0 90 -34.5t33 -90.5q0 -73 -35 -146.5t-94.5 -132t-136.5 -94.5t-161 -33l-82 -238h-148l313 912l-70 59l2 6l264 73zM333 437q-29 0 -55 -21l-136 -397q34 0 65.5 16t59.5 43t51.5 61.5t40 71.5t26 73.5t9.5 66.5q0 48 -18 67
t-43 19z" />
    <glyph glyph-name="ydieresis" unicode="&#xff;" horiz-adv-x="564" 
d="M-91 -261q-34 0 -53.5 18.5t-19.5 47.5q0 18 10 38t28 28q25 -13 47 -20.5t50 -7.5q15 0 32.5 4t37.5 15.5t44 33t53 56.5l2 485l-83 -5l-1 31l232 66l-6 -377l119 171q36 51 62 88.5t47 61.5t40 36t41 12q29 0 42.5 -15.5t13.5 -38.5q0 -26 -10.5 -41.5t-22.5 -23.5
q-35 -9 -61 -16t-45 -14.5t-31.5 -16.5t-21.5 -22l-225 -323q-32 -45 -72 -93t-83 -87.5t-86 -65t-80 -25.5zM357 636q-29 0 -48.5 20t-19.5 49q0 30 19.5 49.5t48.5 19.5t48.5 -19.5t19.5 -49.5q0 -29 -19.5 -49t-48.5 -20zM583 636q-29 0 -48.5 20t-19.5 49
q0 30 19.5 49.5t48.5 19.5t48.5 -19.5t19.5 -49.5q0 -29 -19.5 -49t-48.5 -20z" />
    <glyph glyph-name="Abreve" unicode="&#x102;" horiz-adv-x="819" 
d="M-134 36l34 4q27 3 53 12.5t52 32.5l773 703h20l-145 -699q-6 -29 3.5 -37.5t35.5 -11.5l34 -4l-11 -36h-338l11 36l36 4q27 3 44.5 11.5t24.5 37.5l35 158h-271l-177 -162q-23 -21 -26 -32t23 -13l60 -4l-11 -36h-271zM541 306l55 251l-274 -251h219zM799 827
q-24 0 -48 8t-41.5 27t-24 49.5t3.5 75.5h53q-11 -56 8.5 -81t59.5 -25q36 0 69 23.5t50 82.5h56q-13 -51 -34.5 -82.5t-47.5 -48.5t-53 -23t-51 -6z" />
    <glyph glyph-name="Amacron" unicode="&#x100;" horiz-adv-x="819" 
d="M-134 36l34 4q27 3 53 12.5t52 32.5l773 703h20l-145 -699q-6 -29 3.5 -37.5t35.5 -11.5l34 -4l-11 -36h-338l11 36l36 4q27 3 44.5 11.5t24.5 37.5l35 158h-271l-177 -162q-23 -21 -26 -32t23 -13l60 -4l-11 -36h-271zM541 306l55 251l-274 -251h219zM680 940h285
l-23 -68h-285z" />
    <glyph glyph-name="Aogonek" unicode="&#x104;" horiz-adv-x="819" 
d="M-134 36l34 4q27 3 53 12.5t52 32.5l773 703h20l-145 -699q-6 -29 3.5 -37.5t35.5 -11.5l34 -4l-11 -36h-338l11 36l36 4q27 3 44.5 11.5t24.5 37.5l35 158h-271l-177 -162q-23 -21 -26 -32t23 -13l60 -4l-11 -36h-271zM541 306l55 251l-274 -251h219zM511 -234
q-38 0 -64 17t-26 52q0 23 15 46.5t39 45t54 40t60 33.5h34q-17 -15 -36 -31t-35 -33t-26 -35t-10 -37q0 -46 58 -46q20 0 46 6l-11 -31q-18 -12 -45 -19.5t-53 -7.5z" />
    <glyph glyph-name="Cacute" unicode="&#x106;" horiz-adv-x="811" 
d="M433 -13q-73 0 -138.5 21.5t-114.5 62.5t-78 101t-29 137q0 99 45.5 184.5t120 149t170 100t194.5 36.5q73 0 140.5 -16.5t110.5 -45.5l-29 -235h-22l-62 177q-14 40 -40 57q-15 10 -37.5 13.5t-54.5 3.5q-70 0 -134 -33t-113.5 -93.5t-79 -145t-29.5 -186.5
q0 -54 10.5 -98.5t33.5 -76.5t59.5 -49.5t88.5 -17.5q25 0 45 2.5t40 12.5q9 5 19 12t20 18l199 203h22l-137 -263q-21 -5 -47.5 -10.5t-55 -10t-59 -7.5t-58.5 -3zM750 972h181l-1 -3l-270 -126h-32z" />
    <glyph glyph-name="Ccaron" unicode="&#x10c;" horiz-adv-x="811" 
d="M433 -13q-73 0 -138.5 21.5t-114.5 62.5t-78 101t-29 137q0 99 45.5 184.5t120 149t170 100t194.5 36.5q73 0 140.5 -16.5t110.5 -45.5l-29 -235h-22l-62 177q-14 40 -40 57q-15 10 -37.5 13.5t-54.5 3.5q-70 0 -134 -33t-113.5 -93.5t-79 -145t-29.5 -186.5
q0 -54 10.5 -98.5t33.5 -76.5t59.5 -49.5t88.5 -17.5q25 0 45 2.5t40 12.5q9 5 19 12t20 18l199 203h22l-137 -263q-21 -5 -47.5 -10.5t-55 -10t-59 -7.5t-58.5 -3zM548 988h29l80 -59l170 59h35l-218 -155h-14z" />
    <glyph glyph-name="Ccircumflex" unicode="&#x108;" horiz-adv-x="811" 
d="M433 -13q-73 0 -138.5 21.5t-114.5 62.5t-78 101t-29 137q0 99 45.5 184.5t120 149t170 100t194.5 36.5q73 0 140.5 -16.5t110.5 -45.5l-29 -235h-22l-62 177q-14 40 -40 57q-15 10 -37.5 13.5t-54.5 3.5q-70 0 -134 -33t-113.5 -93.5t-79 -145t-29.5 -186.5
q0 -54 10.5 -98.5t33.5 -76.5t59.5 -49.5t88.5 -17.5q25 0 45 2.5t40 12.5q9 5 19 12t20 18l199 203h22l-137 -263q-21 -5 -47.5 -10.5t-55 -10t-59 -7.5t-58.5 -3zM702 987h14l82 -154h-29l-80 59l-170 -59h-35z" />
    <glyph glyph-name="Cdotaccent" unicode="&#x10a;" horiz-adv-x="811" 
d="M433 -13q-73 0 -138.5 21.5t-114.5 62.5t-78 101t-29 137q0 99 45.5 184.5t120 149t170 100t194.5 36.5q73 0 140.5 -16.5t110.5 -45.5l-29 -235h-22l-62 177q-14 40 -40 57q-15 10 -37.5 13.5t-54.5 3.5q-70 0 -134 -33t-113.5 -93.5t-79 -145t-29.5 -186.5
q0 -54 10.5 -98.5t33.5 -76.5t59.5 -49.5t88.5 -17.5q25 0 45 2.5t40 12.5q9 5 19 12t20 18l199 203h22l-137 -263q-21 -5 -47.5 -10.5t-55 -10t-59 -7.5t-58.5 -3zM667 837q-30 0 -50 20.5t-20 50.5q0 31 20 51t50 20q29 0 49.5 -20t20.5 -51q0 -30 -20.5 -50.5
t-49.5 -20.5z" />
    <glyph glyph-name="Dcaron" unicode="&#x10e;" horiz-adv-x="858" 
d="M-21 36l36 4q27 3 43.5 11.5t25.5 37.5l178 580q9 29 -2.5 37.5t-36.5 11.5l-34 4l11 36h258q205 0 309 -73t104 -209q0 -93 -42.5 -179t-119 -152t-183.5 -105.5t-236 -39.5h-322zM299 44q96 0 170 39.5t124 104t75.5 147t25.5 167.5q0 103 -55.5 157.5t-171.5 54.5h-32
l-205 -670h69zM536 988h29l80 -59l170 59h35l-218 -155h-14z" />
    <glyph glyph-name="Dcroat" unicode="&#x110;" horiz-adv-x="858" 
d="M-21 36l36 4q27 3 43.5 11.5t25.5 37.5l178 580q9 29 -2.5 37.5t-36.5 11.5l-34 4l11 36h258q205 0 309 -73t104 -209q0 -93 -42.5 -179t-119 -152t-183.5 -105.5t-236 -39.5h-322zM299 44q96 0 170 39.5t124 104t75.5 147t25.5 167.5q0 103 -55.5 157.5t-171.5 54.5h-32
l-205 -670h69zM92 427h393l-18 -59h-393z" />
    <glyph glyph-name="Ebreve" unicode="&#x114;" horiz-adv-x="770" 
d="M-21 36l36 4q27 3 43.5 11.5t25.5 37.5l178 580q9 29 -2.5 37.5t-36.5 11.5l-34 4l11 36h576l-46 -271h-22l-70 207q-4 12 -9.5 15t-21.5 3h-172l-90 -293h116q12 0 20 11l89 131h22l-103 -336h-22l-8 131q0 11 -14 11h-116l-98 -321h225q13 0 18.5 3t16.5 11l251 211h22
l-151 -271h-645zM569 827q-24 0 -48 8t-41.5 27t-24 49.5t3.5 75.5h53q-11 -56 8.5 -81t59.5 -25q36 0 69 23.5t50 82.5h56q-13 -51 -34.5 -82.5t-47.5 -48.5t-53 -23t-51 -6z" />
    <glyph glyph-name="Ecaron" unicode="&#x11a;" horiz-adv-x="770" 
d="M-21 36l36 4q27 3 43.5 11.5t25.5 37.5l178 580q9 29 -2.5 37.5t-36.5 11.5l-34 4l11 36h576l-46 -271h-22l-70 207q-4 12 -9.5 15t-21.5 3h-172l-90 -293h116q12 0 20 11l89 131h22l-103 -336h-22l-8 131q0 11 -14 11h-116l-98 -321h225q13 0 18.5 3t16.5 11l251 211h22
l-151 -271h-645zM463 988h29l80 -59l170 59h35l-218 -155h-14z" />
    <glyph glyph-name="Emacron" unicode="&#x112;" horiz-adv-x="770" 
d="M-21 36l36 4q27 3 43.5 11.5t25.5 37.5l178 580q9 29 -2.5 37.5t-36.5 11.5l-34 4l11 36h576l-46 -271h-22l-70 207q-4 12 -9.5 15t-21.5 3h-172l-90 -293h116q12 0 20 11l89 131h22l-103 -336h-22l-8 131q0 11 -14 11h-116l-98 -321h225q13 0 18.5 3t16.5 11l251 211h22
l-151 -271h-645zM450 940h285l-23 -68h-285z" />
    <glyph glyph-name="Eogonek" unicode="&#x118;" horiz-adv-x="770" 
d="M-21 36l36 4q27 3 43.5 11.5t25.5 37.5l178 580q9 29 -2.5 37.5t-36.5 11.5l-34 4l11 36h576l-46 -271h-22l-70 207q-4 12 -9.5 15t-21.5 3h-172l-90 -293h116q12 0 20 11l89 131h22l-103 -336h-22l-8 131q0 11 -14 11h-116l-98 -321h225q13 0 18.5 3t16.5 11l251 211h22
l-151 -271h-645zM501 -234q-38 0 -64 17t-26 52q0 23 15 46.5t39 45t54 40t60 33.5h34q-17 -15 -36 -31t-35 -33t-26 -35t-10 -37q0 -46 58 -46q20 0 46 6l-11 -31q-18 -12 -45 -19.5t-53 -7.5z" />
    <glyph glyph-name="Edotaccent" unicode="&#x116;" horiz-adv-x="770" 
d="M-21 36l36 4q27 3 43.5 11.5t25.5 37.5l178 580q9 29 -2.5 37.5t-36.5 11.5l-34 4l11 36h576l-46 -271h-22l-70 207q-4 12 -9.5 15t-21.5 3h-172l-90 -293h116q12 0 20 11l89 131h22l-103 -336h-22l-8 131q0 11 -14 11h-116l-98 -321h225q13 0 18.5 3t16.5 11l251 211h22
l-151 -271h-645zM582 837q-30 0 -50 20.5t-20 50.5q0 31 20 51t50 20q29 0 49.5 -20t20.5 -51q0 -30 -20.5 -50.5t-49.5 -20.5z" />
    <glyph glyph-name="Gbreve" unicode="&#x11e;" horiz-adv-x="874" 
d="M429 -13q-72 0 -136.5 21.5t-113 62.5t-77.5 101t-29 137q0 99 45.5 184.5t120 149t170 100t194.5 36.5q73 0 140.5 -16.5t110.5 -45.5l-29 -235h-22l-62 177q-14 40 -40 57q-15 10 -40.5 13.5t-54.5 3.5q-69 0 -132.5 -33t-112.5 -93.5t-78.5 -145t-29.5 -186.5
q0 -54 10.5 -98t33.5 -75.5t59 -49t87 -17.5q23 0 48 4.5t52 18.5l76 202q11 29 0.5 37.5t-36.5 10.5l-90 4l15 41h394l-16 -45h-89l-76 -202l-18 -71q-48 -2 -83 -10t-65 -16.5t-59.5 -15t-66.5 -6.5zM652 827q-24 0 -48 8t-41.5 27t-24 49.5t3.5 75.5h53q-11 -56 8.5 -81
t59.5 -25q36 0 69 23.5t50 82.5h56q-13 -51 -34.5 -82.5t-47.5 -48.5t-53 -23t-51 -6z" />
    <glyph glyph-name="Gcircumflex" unicode="&#x11c;" horiz-adv-x="874" 
d="M429 -13q-72 0 -136.5 21.5t-113 62.5t-77.5 101t-29 137q0 99 45.5 184.5t120 149t170 100t194.5 36.5q73 0 140.5 -16.5t110.5 -45.5l-29 -235h-22l-62 177q-14 40 -40 57q-15 10 -40.5 13.5t-54.5 3.5q-69 0 -132.5 -33t-112.5 -93.5t-78.5 -145t-29.5 -186.5
q0 -54 10.5 -98t33.5 -75.5t59 -49t87 -17.5q23 0 48 4.5t52 18.5l76 202q11 29 0.5 37.5t-36.5 10.5l-90 4l15 41h394l-16 -45h-89l-76 -202l-18 -71q-48 -2 -83 -10t-65 -16.5t-59.5 -15t-66.5 -6.5zM700 987h14l82 -154h-29l-80 59l-170 -59h-35z" />
    <glyph glyph-name="uni0122" unicode="&#x122;" horiz-adv-x="874" 
d="M429 -13q-72 0 -136.5 21.5t-113 62.5t-77.5 101t-29 137q0 99 45.5 184.5t120 149t170 100t194.5 36.5q73 0 140.5 -16.5t110.5 -45.5l-29 -235h-22l-62 177q-14 40 -40 57q-15 10 -40.5 13.5t-54.5 3.5q-69 0 -132.5 -33t-112.5 -93.5t-78.5 -145t-29.5 -186.5
q0 -54 10.5 -98t33.5 -75.5t59 -49t87 -17.5q23 0 48 4.5t52 18.5l76 202q11 29 0.5 37.5t-36.5 10.5l-90 4l15 41h394l-16 -45h-89l-76 -202l-18 -71q-48 -2 -83 -10t-65 -16.5t-59.5 -15t-66.5 -6.5zM212 -347q54 24 88.5 53.5t34.5 62.5q0 26 -18.5 43t-50.5 22
q-1 35 19.5 57t53.5 23q41 1 69.5 -25t28.5 -71q0 -33 -18.5 -62.5t-48.5 -54t-67.5 -44.5t-76.5 -35z" />
    <glyph glyph-name="Gdotaccent" unicode="&#x120;" horiz-adv-x="874" 
d="M429 -13q-72 0 -136.5 21.5t-113 62.5t-77.5 101t-29 137q0 99 45.5 184.5t120 149t170 100t194.5 36.5q73 0 140.5 -16.5t110.5 -45.5l-29 -235h-22l-62 177q-14 40 -40 57q-15 10 -40.5 13.5t-54.5 3.5q-69 0 -132.5 -33t-112.5 -93.5t-78.5 -145t-29.5 -186.5
q0 -54 10.5 -98t33.5 -75.5t59 -49t87 -17.5q23 0 48 4.5t52 18.5l76 202q11 29 0.5 37.5t-36.5 10.5l-90 4l15 41h394l-16 -45h-89l-76 -202l-18 -71q-48 -2 -83 -10t-65 -16.5t-59.5 -15t-66.5 -6.5zM665 837q-30 0 -50 20.5t-20 50.5q0 31 20 51t50 20q29 0 49.5 -20
t20.5 -51q0 -30 -20.5 -50.5t-49.5 -20.5z" />
    <glyph glyph-name="Hbar" unicode="&#x126;" horiz-adv-x="907" 
d="M-21 36l36 4q27 3 43.5 11.5t25.5 37.5l178 580q9 29 -2.5 37.5t-36.5 11.5l-34 4l11 36h338l-11 -36l-36 -4q-28 -3 -44 -11.5t-25 -37.5l-74 -242h321l74 242q9 29 -2.5 37.5t-36.5 11.5l-34 4l11 36h338l-11 -36l-36 -4q-28 -3 -44 -11.5t-25 -37.5l-178 -580
q-9 -29 2 -37.5t37 -11.5l34 -4l-11 -36h-338l11 36l36 4q27 3 43.5 11.5t25.5 37.5l86 279h-321l-86 -279q-9 -29 2 -37.5t37 -11.5l34 -4l-11 -36h-338zM151 599h819l-18 -59h-819z" />
    <glyph glyph-name="Hcircumflex" unicode="&#x124;" horiz-adv-x="907" 
d="M-21 36l36 4q27 3 43.5 11.5t25.5 37.5l178 580q9 29 -2.5 37.5t-36.5 11.5l-34 4l11 36h338l-11 -36l-36 -4q-28 -3 -44 -11.5t-25 -37.5l-74 -242h321l74 242q9 29 -2.5 37.5t-36.5 11.5l-34 4l11 36h338l-11 -36l-36 -4q-28 -3 -44 -11.5t-25 -37.5l-178 -580
q-9 -29 2 -37.5t37 -11.5l34 -4l-11 -36h-338l11 36l36 4q27 3 43.5 11.5t25.5 37.5l86 279h-321l-86 -279q-9 -29 2 -37.5t37 -11.5l34 -4l-11 -36h-338zM695 987h14l82 -154h-29l-80 59l-170 -59h-35z" />
    <glyph glyph-name="Ibreve" unicode="&#x12c;" horiz-adv-x="426" 
d="M-21 36l36 4q27 3 43.5 11.5t25.5 37.5l178 580q9 29 -2.5 37.5t-36.5 11.5l-34 4l11 36h338l-11 -36l-36 -4q-28 -3 -44 -11.5t-25 -37.5l-178 -580q-9 -29 2 -37.5t37 -11.5l34 -4l-11 -36h-338zM410 827q-24 0 -48 8t-41.5 27t-24 49.5t3.5 75.5h53q-11 -56 8.5 -81
t59.5 -25q36 0 69 23.5t50 82.5h56q-13 -51 -34.5 -82.5t-47.5 -48.5t-53 -23t-51 -6z" />
    <glyph glyph-name="Idotaccent" unicode="&#x130;" horiz-adv-x="426" 
d="M-21 36l36 4q27 3 43.5 11.5t25.5 37.5l178 580q9 29 -2.5 37.5t-36.5 11.5l-34 4l11 36h338l-11 -36l-36 -4q-28 -3 -44 -11.5t-25 -37.5l-178 -580q-9 -29 2 -37.5t37 -11.5l34 -4l-11 -36h-338zM423 837q-30 0 -50 20.5t-20 50.5q0 31 20 51t50 20q29 0 49.5 -20
t20.5 -51q0 -30 -20.5 -50.5t-49.5 -20.5z" />
    <glyph glyph-name="Imacron" unicode="&#x12a;" horiz-adv-x="426" 
d="M-21 36l36 4q27 3 43.5 11.5t25.5 37.5l178 580q9 29 -2.5 37.5t-36.5 11.5l-34 4l11 36h338l-11 -36l-36 -4q-28 -3 -44 -11.5t-25 -37.5l-178 -580q-9 -29 2 -37.5t37 -11.5l34 -4l-11 -36h-338zM291 940h285l-23 -68h-285z" />
    <glyph glyph-name="Iogonek" unicode="&#x12e;" horiz-adv-x="426" 
d="M-21 36l36 4q27 3 43.5 11.5t25.5 37.5l178 580q9 29 -2.5 37.5t-36.5 11.5l-34 4l11 36h338l-11 -36l-36 -4q-28 -3 -44 -11.5t-25 -37.5l-178 -580q-9 -29 2 -37.5t37 -11.5l34 -4l-11 -36h-338zM97 -234q-38 0 -64 17t-26 52q0 23 15 46.5t39 45t54 40t60 33.5h34
q-17 -15 -36 -31t-35 -33t-26 -35t-10 -37q0 -46 58 -46q20 0 46 6l-11 -31q-18 -12 -45 -19.5t-53 -7.5z" />
    <glyph glyph-name="Itilde" unicode="&#x128;" horiz-adv-x="426" 
d="M-21 36l36 4q27 3 43.5 11.5t25.5 37.5l178 580q9 29 -2.5 37.5t-36.5 11.5l-34 4l11 36h338l-11 -36l-36 -4q-28 -3 -44 -11.5t-25 -37.5l-178 -580q-9 -29 2 -37.5t37 -11.5l34 -4l-11 -36h-338zM489 829q-24 0 -43.5 9t-37 20t-34.5 20t-37 9q-23 0 -40 -11t-27 -43
h-20q9 72 36.5 109.5t78.5 37.5q24 0 42.5 -9t35 -20t33 -20t36.5 -9q21 0 35.5 11t22.5 39h20q-7 -44 -17 -71.5t-22.5 -43.5t-28 -22t-33.5 -6z" />
    <glyph glyph-name="uni1ECA" unicode="&#x1eca;" horiz-adv-x="426" 
d="M-21 36l36 4q27 3 43.5 11.5t25.5 37.5l178 580q9 29 -2.5 37.5t-36.5 11.5l-34 4l11 36h338l-11 -36l-36 -4q-28 -3 -44 -11.5t-25 -37.5l-178 -580q-9 -29 2 -37.5t37 -11.5l34 -4l-11 -36h-338zM79 -242q-30 0 -50 20.5t-20 50.5q0 31 20 51t50 20q29 0 49.5 -20
t20.5 -51q0 -30 -20.5 -50.5t-49.5 -20.5z" />
    <glyph glyph-name="Jcircumflex" unicode="&#x134;" horiz-adv-x="424" 
d="M-107 -68q59 36 96.5 60.5t61.5 49.5t39 55.5t30 78.5l152 497q8 28 -2.5 34t-36.5 8l-43 2l13 41h350l-13 -41l-43 -2q-27 -2 -42 -8t-23 -34l-141 -459q-12 -41 -25.5 -70t-31.5 -52t-43.5 -42.5t-61.5 -40.5q-17 -10 -44 -23.5l-58 -29t-61.5 -30.5t-54.5 -28z
M457 987h14l82 -154h-29l-80 59l-170 -59h-35z" />
    <glyph glyph-name="uni0136" unicode="&#x136;" horiz-adv-x="855" 
d="M-21 36l36 4q27 3 43.5 11.5t25.5 37.5l178 580q9 29 -2.5 37.5t-36.5 11.5l-34 4l11 36h338l-11 -36l-36 -4q-28 -3 -44 -11.5t-25 -37.5l-91 -295l433 314q14 11 13 19.5t-23 10.5l-72 4l11 36h306l-11 -36l-52 -3q-33 -2 -55 -10.5t-45 -25.5l-354 -256l321 -427h-195
l-279 366l-85 -277q-9 -29 2 -37.5t37 -11.5l34 -4l-11 -36h-338zM273 -347q54 24 88.5 53.5t34.5 62.5q0 26 -18.5 43t-50.5 22q-1 35 19.5 57t53.5 23q41 1 69.5 -25t28.5 -71q0 -33 -18.5 -62.5t-48.5 -54t-67.5 -44.5t-76.5 -35z" />
    <glyph glyph-name="Lacute" unicode="&#x139;" horiz-adv-x="724" 
d="M-21 36l36 4q27 3 43.5 11.5t25.5 37.5l178 580q9 29 -2.5 37.5t-36.5 11.5l-34 4l11 36h338l-11 -36l-36 -4q-28 -3 -44 -11.5t-25 -37.5l-191 -623h185q14 0 19 3t16 11l251 211h22l-151 -271h-605zM490 972h181l-1 -3l-270 -126h-32z" />
    <glyph glyph-name="Lcaron" unicode="&#x13d;" horiz-adv-x="724" 
d="M-21 36l36 4q27 3 43.5 11.5t25.5 37.5l178 580q9 29 -2.5 37.5t-36.5 11.5l-34 4l11 36h338l-11 -36l-36 -4q-28 -3 -44 -11.5t-25 -37.5l-191 -623h185q14 0 19 3t16 11l251 211h22l-151 -271h-605zM535 543q54 24 88.5 53.5t34.5 62.5q0 26 -18.5 43t-50.5 22
q-1 35 19.5 57t53.5 23q41 1 69.5 -25t28.5 -71q0 -33 -18.5 -62.5t-48.5 -54t-67.5 -44.5t-76.5 -35z" />
    <glyph glyph-name="uni013B" unicode="&#x13b;" horiz-adv-x="724" 
d="M-21 36l36 4q27 3 43.5 11.5t25.5 37.5l178 580q9 29 -2.5 37.5t-36.5 11.5l-34 4l11 36h338l-11 -36l-36 -4q-28 -3 -44 -11.5t-25 -37.5l-191 -623h185q14 0 19 3t16 11l251 211h22l-151 -271h-605zM136 -347q54 24 88.5 53.5t34.5 62.5q0 26 -18.5 43t-50.5 22
q-1 35 19.5 57t53.5 23q41 1 69.5 -25t28.5 -71q0 -33 -18.5 -62.5t-48.5 -54t-67.5 -44.5t-76.5 -35z" />
    <glyph glyph-name="Ldot" unicode="&#x13f;" horiz-adv-x="724" 
d="M-21 36l36 4q27 3 43.5 11.5t25.5 37.5l178 580q9 29 -2.5 37.5t-36.5 11.5l-34 4l11 36h338l-11 -36l-36 -4q-28 -3 -44 -11.5t-25 -37.5l-191 -623h185q14 0 19 3t16 11l251 211h22l-151 -271h-605zM634 352q-30 0 -50 20.5t-20 50.5q0 31 20 51t50 20q29 0 49.5 -20
t20.5 -51q0 -30 -20.5 -50.5t-49.5 -20.5z" />
    <glyph glyph-name="glyph223" horiz-adv-x="724" 
d="M-21 36l36 4q27 3 43.5 11.5t25.5 37.5l178 580q9 29 -2.5 37.5t-36.5 11.5l-34 4l11 36h338l-11 -36l-36 -4q-28 -3 -44 -11.5t-25 -37.5l-191 -623h185q14 0 19 3t16 11l251 211h22l-151 -271h-605zM634 352q-30 0 -50 20.5t-20 50.5q0 31 20 51t50 20q29 0 49.5 -20
t20.5 -51q0 -30 -20.5 -50.5t-49.5 -20.5z" />
    <glyph glyph-name="Lslash" unicode="&#x141;" horiz-adv-x="724" 
d="M-21 36l36 4q27 3 43.5 11.5t25.5 37.5l178 580q9 29 -2.5 37.5t-36.5 11.5l-34 4l11 36h338l-11 -36l-36 -4q-28 -3 -44 -11.5t-25 -37.5l-191 -623h185q14 0 19 3t16 11l251 211h22l-151 -271h-605zM30 305l470 224l-23 -76l-470 -224z" />
    <glyph glyph-name="Eng" unicode="&#x14a;" horiz-adv-x="875" 
d="M302 -262l-13 27q47 30 85.5 55.5t69.5 55.5t55.5 69t42.5 97l36 113l-266 496l-173 -562q-9 -29 2 -37.5t37 -11.5l34 -4l-11 -36h-234l11 36l36 4q27 3 43.5 11.5t25.5 37.5l179 580q9 29 -2.5 37.5t-36.5 11.5l-34 4l11 36h235l265 -497l127 408q9 29 -2.5 37.5
t-36.5 11.5l-34 4l11 36h234l-11 -36l-36 -4q-28 -3 -44 -11.5t-25 -37.5l-203 -651q-10 -32 -21 -55t-27 -41.5t-40 -34.5t-60 -34z" />
    <glyph glyph-name="Nacute" unicode="&#x143;" horiz-adv-x="877" 
d="M312 651l-173 -562q-9 -29 2 -37.5t37 -11.5l34 -4l-11 -36h-234l11 36l36 4q27 3 43.5 11.5t25.5 37.5l179 580q9 29 -2.5 37.5t-36.5 11.5l-34 4l11 36h235l265 -497l127 408q9 29 -2.5 37.5t-36.5 11.5l-34 4l11 36h234l-11 -36l-36 -4q-28 -3 -44 -11.5t-25 -37.5
l-210 -686h-4zM725 972h181l-1 -3l-270 -126h-32z" />
    <glyph glyph-name="Ncaron" unicode="&#x147;" horiz-adv-x="877" 
d="M312 651l-173 -562q-9 -29 2 -37.5t37 -11.5l34 -4l-11 -36h-234l11 36l36 4q27 3 43.5 11.5t25.5 37.5l179 580q9 29 -2.5 37.5t-36.5 11.5l-34 4l11 36h235l265 -497l127 408q9 29 -2.5 37.5t-36.5 11.5l-34 4l11 36h234l-11 -36l-36 -4q-28 -3 -44 -11.5t-25 -37.5
l-210 -686h-4zM523 988h29l80 -59l170 59h35l-218 -155h-14z" />
    <glyph glyph-name="uni0145" unicode="&#x145;" horiz-adv-x="877" 
d="M312 651l-173 -562q-9 -29 2 -37.5t37 -11.5l34 -4l-11 -36h-234l11 36l36 4q27 3 43.5 11.5t25.5 37.5l179 580q9 29 -2.5 37.5t-36.5 11.5l-34 4l11 36h235l265 -497l127 408q9 29 -2.5 37.5t-36.5 11.5l-34 4l11 36h234l-11 -36l-36 -4q-28 -3 -44 -11.5t-25 -37.5
l-210 -686h-4zM230 -347q54 24 88.5 53.5t34.5 62.5q0 26 -18.5 43t-50.5 22q-1 35 19.5 57t53.5 23q41 1 69.5 -25t28.5 -71q0 -33 -18.5 -62.5t-48.5 -54t-67.5 -44.5t-76.5 -35z" />
    <glyph glyph-name="OE" unicode="&#x152;" horiz-adv-x="1306" 
d="M368 -13q-64 0 -119.5 18t-97 53.5t-65.5 87.5t-24 120q0 56 17.5 115.5t50.5 116.5t80 108t106.5 89.5t129 61t148.5 22.5q84 0 138 -35t82 -95l33 109h465l-46 -271h-12l-80 207q-5 12 -10 15t-21 3h-172l-90 -293h116q12 0 20 11l99 131h12l-103 -336h-12l-18 131
q-1 11 -14 11h-116l-98 -321h225q13 0 18.5 3t16.5 11l261 211h12l-151 -271h-534l29 96q-56 -49 -125 -79t-151 -30zM564 737q-60 0 -117 -35.5t-101.5 -97.5t-71 -147.5t-26.5 -184.5q0 -52 7.5 -96.5t24.5 -77t46 -51t72 -18.5q60 0 117 35.5t101.5 97.5t71 147.5
t26.5 184.5q0 52 -7.5 96.5t-24.5 77t-46 51t-72 18.5z" />
    <glyph glyph-name="Obreve" unicode="&#x14e;" horiz-adv-x="878" 
d="M368 -13q-64 0 -119.5 18t-97 53.5t-65.5 87.5t-24 120q0 56 17.5 115.5t50.5 116.5t80 108t106.5 89.5t129 61t148.5 22.5q64 0 119.5 -18t96.5 -53.5t65 -87.5t24 -120q0 -56 -17.5 -115.5t-50.5 -116.5t-80 -108t-106 -89.5t-129 -61t-148 -22.5zM398 29
q60 0 117 35.5t101.5 97.5t71 147.5t26.5 184.5q0 52 -7.5 96.5t-24.5 77t-46 51t-72 18.5q-60 0 -117 -35.5t-101.5 -97.5t-71 -147.5t-26.5 -184.5q0 -52 7.5 -96.5t24.5 -77t46 -51t72 -18.5zM634 827q-24 0 -48 8t-41.5 27t-24 49.5t3.5 75.5h53q-11 -56 8.5 -81
t59.5 -25q36 0 69 23.5t50 82.5h56q-13 -51 -34.5 -82.5t-47.5 -48.5t-53 -23t-51 -6z" />
    <glyph glyph-name="Ohungarumlaut" unicode="&#x150;" horiz-adv-x="878" 
d="M368 -13q-64 0 -119.5 18t-97 53.5t-65.5 87.5t-24 120q0 56 17.5 115.5t50.5 116.5t80 108t106.5 89.5t129 61t148.5 22.5q64 0 119.5 -18t96.5 -53.5t65 -87.5t24 -120q0 -56 -17.5 -115.5t-50.5 -116.5t-80 -108t-106 -89.5t-129 -61t-148 -22.5zM398 29
q60 0 117 35.5t101.5 97.5t71 147.5t26.5 184.5q0 52 -7.5 96.5t-24.5 77t-46 51t-72 18.5q-60 0 -117 -35.5t-101.5 -97.5t-71 -147.5t-26.5 -184.5q0 -52 7.5 -96.5t24.5 -77t46 -51t72 -18.5zM624 972h181l-1 -3l-272 -126h-32zM829 972h181l-1 -3l-272 -126h-32z" />
    <glyph glyph-name="Omacron" unicode="&#x14c;" horiz-adv-x="878" 
d="M368 -13q-64 0 -119.5 18t-97 53.5t-65.5 87.5t-24 120q0 56 17.5 115.5t50.5 116.5t80 108t106.5 89.5t129 61t148.5 22.5q64 0 119.5 -18t96.5 -53.5t65 -87.5t24 -120q0 -56 -17.5 -115.5t-50.5 -116.5t-80 -108t-106 -89.5t-129 -61t-148 -22.5zM398 29
q60 0 117 35.5t101.5 97.5t71 147.5t26.5 184.5q0 52 -7.5 96.5t-24.5 77t-46 51t-72 18.5q-60 0 -117 -35.5t-101.5 -97.5t-71 -147.5t-26.5 -184.5q0 -52 7.5 -96.5t24.5 -77t46 -51t72 -18.5zM515 940h285l-23 -68h-285z" />
    <glyph glyph-name="uni1ECC" unicode="&#x1ecc;" horiz-adv-x="878" 
d="M368 -13q-64 0 -119.5 18t-97 53.5t-65.5 87.5t-24 120q0 56 17.5 115.5t50.5 116.5t80 108t106.5 89.5t129 61t148.5 22.5q64 0 119.5 -18t96.5 -53.5t65 -87.5t24 -120q0 -56 -17.5 -115.5t-50.5 -116.5t-80 -108t-106 -89.5t-129 -61t-148 -22.5zM398 29
q60 0 117 35.5t101.5 97.5t71 147.5t26.5 184.5q0 52 -7.5 96.5t-24.5 77t-46 51t-72 18.5q-60 0 -117 -35.5t-101.5 -97.5t-71 -147.5t-26.5 -184.5q0 -52 7.5 -96.5t24.5 -77t46 -51t72 -18.5zM314 -242q-30 0 -50 20.5t-20 50.5q0 31 20 51t50 20q29 0 49.5 -20t20.5 -51
q0 -30 -20.5 -50.5t-49.5 -20.5z" />
    <glyph glyph-name="Racute" unicode="&#x154;" horiz-adv-x="810" 
d="M-21 36l36 4q27 3 43.5 11.5t25.5 37.5l178 580q9 29 -2.5 37.5t-36.5 11.5l-34 4l11 36h305q140 0 215 -37.5t75 -115.5q0 -43 -20.5 -78t-55 -62t-81.5 -45.5t-99 -28.5l246 -391h-180l-229 369h-46l-86 -280q-9 -29 2 -37.5t37 -11.5l34 -4l-11 -36h-338zM404 414
q52 0 92 18t67 47t41 65t14 71q0 49 -29.5 74t-93.5 25h-60l-91 -300h60zM658 972h181l-1 -3l-270 -126h-32z" />
    <glyph glyph-name="Rcaron" unicode="&#x158;" horiz-adv-x="810" 
d="M-21 36l36 4q27 3 43.5 11.5t25.5 37.5l178 580q9 29 -2.5 37.5t-36.5 11.5l-34 4l11 36h305q140 0 215 -37.5t75 -115.5q0 -43 -20.5 -78t-55 -62t-81.5 -45.5t-99 -28.5l246 -391h-180l-229 369h-46l-86 -280q-9 -29 2 -37.5t37 -11.5l34 -4l-11 -36h-338zM404 414
q52 0 92 18t67 47t41 65t14 71q0 49 -29.5 74t-93.5 25h-60l-91 -300h60zM456 988h29l80 -59l170 59h35l-218 -155h-14z" />
    <glyph glyph-name="uni0156" unicode="&#x156;" horiz-adv-x="810" 
d="M-21 36l36 4q27 3 43.5 11.5t25.5 37.5l178 580q9 29 -2.5 37.5t-36.5 11.5l-34 4l11 36h305q140 0 215 -37.5t75 -115.5q0 -43 -20.5 -78t-55 -62t-81.5 -45.5t-99 -28.5l246 -391h-180l-229 369h-46l-86 -280q-9 -29 2 -37.5t37 -11.5l34 -4l-11 -36h-338zM404 414
q52 0 92 18t67 47t41 65t14 71q0 49 -29.5 74t-93.5 25h-60l-91 -300h60zM258 -347q54 24 88.5 53.5t34.5 62.5q0 26 -18.5 43t-50.5 22q-1 35 19.5 57t53.5 23q41 1 69.5 -25t28.5 -71q0 -33 -18.5 -62.5t-48.5 -54t-67.5 -44.5t-76.5 -35z" />
    <glyph glyph-name="Sacute" unicode="&#x15a;" horiz-adv-x="622" 
d="M215 -13q-25 0 -53.5 3t-57 9t-56.5 15.5t-52 23.5l60 241h22l31 -179q3 -18 7 -28.5t14 -18.5q11 -10 36.5 -15.5t59.5 -5.5q37 0 71.5 8.5t61.5 24.5t43 40t16 54q0 35 -23 74.5t-77 95.5l-52 54q-31 32 -53 73t-22 90q0 45 24 87.5t66 74.5t99.5 51.5t124.5 19.5
q46 0 92.5 -10.5t81.5 -33.5l-41 -225h-22l-52 163q-5 17 -9.5 27.5t-11.5 17.5q-8 8 -23.5 11.5t-29.5 3.5q-35 0 -64.5 -8t-52 -22.5t-35 -35.5t-12.5 -46q0 -32 18.5 -63t48.5 -63l55 -57q31 -33 52 -59t33 -49t17 -44.5t5 -45.5q0 -57 -28 -103.5t-74.5 -79.5
t-108.5 -51.5t-129 -18.5zM612 972h181l-1 -3l-270 -126h-32z" />
    <glyph glyph-name="Scaron" unicode="&#x160;" horiz-adv-x="622" 
d="M215 -13q-25 0 -53.5 3t-57 9t-56.5 15.5t-52 23.5l60 241h22l31 -179q3 -18 7 -28.5t14 -18.5q11 -10 36.5 -15.5t59.5 -5.5q37 0 71.5 8.5t61.5 24.5t43 40t16 54q0 35 -23 74.5t-77 95.5l-52 54q-31 32 -53 73t-22 90q0 45 24 87.5t66 74.5t99.5 51.5t124.5 19.5
q46 0 92.5 -10.5t81.5 -33.5l-41 -225h-22l-52 163q-5 17 -9.5 27.5t-11.5 17.5q-8 8 -23.5 11.5t-29.5 3.5q-35 0 -64.5 -8t-52 -22.5t-35 -35.5t-12.5 -46q0 -32 18.5 -63t48.5 -63l55 -57q31 -33 52 -59t33 -49t17 -44.5t5 -45.5q0 -57 -28 -103.5t-74.5 -79.5
t-108.5 -51.5t-129 -18.5zM410 988h29l80 -59l170 59h35l-218 -155h-14z" />
    <glyph glyph-name="Scedilla" unicode="&#x15e;" horiz-adv-x="622" 
d="M215 -13q-25 0 -53.5 3t-57 9t-56.5 15.5t-52 23.5l60 241h22l31 -179q3 -18 7 -28.5t14 -18.5q11 -10 36.5 -15.5t59.5 -5.5q37 0 71.5 8.5t61.5 24.5t43 40t16 54q0 35 -23 74.5t-77 95.5l-52 54q-31 32 -53 73t-22 90q0 45 24 87.5t66 74.5t99.5 51.5t124.5 19.5
q46 0 92.5 -10.5t81.5 -33.5l-41 -225h-22l-52 163q-5 17 -9.5 27.5t-11.5 17.5q-8 8 -23.5 11.5t-29.5 3.5q-35 0 -64.5 -8t-52 -22.5t-35 -35.5t-12.5 -46q0 -32 18.5 -63t48.5 -63l55 -57q31 -33 52 -59t33 -49t17 -44.5t5 -45.5q0 -57 -28 -103.5t-74.5 -79.5
t-108.5 -51.5t-129 -18.5zM121 -265q-50 0 -78 21t-28 45q0 23 19 32.5t41 -1.5q-4 -34 15 -49.5t47 -15.5q43 0 43 27q0 20 -22 38.5t-63 46.5l143 121h48l-98 -83q23 -17 38.5 -37t15.5 -44q0 -45 -33 -73t-88 -28z" />
    <glyph glyph-name="Scircumflex" unicode="&#x15c;" horiz-adv-x="622" 
d="M215 -13q-25 0 -53.5 3t-57 9t-56.5 15.5t-52 23.5l60 241h22l31 -179q3 -18 7 -28.5t14 -18.5q11 -10 36.5 -15.5t59.5 -5.5q37 0 71.5 8.5t61.5 24.5t43 40t16 54q0 35 -23 74.5t-77 95.5l-52 54q-31 32 -53 73t-22 90q0 45 24 87.5t66 74.5t99.5 51.5t124.5 19.5
q46 0 92.5 -10.5t81.5 -33.5l-41 -225h-22l-52 163q-5 17 -9.5 27.5t-11.5 17.5q-8 8 -23.5 11.5t-29.5 3.5q-35 0 -64.5 -8t-52 -22.5t-35 -35.5t-12.5 -46q0 -32 18.5 -63t48.5 -63l55 -57q31 -33 52 -59t33 -49t17 -44.5t5 -45.5q0 -57 -28 -103.5t-74.5 -79.5
t-108.5 -51.5t-129 -18.5zM564 987h14l82 -154h-29l-80 59l-170 -59h-35z" />
    <glyph glyph-name="uni0218" unicode="&#x218;" horiz-adv-x="622" 
d="M215 -13q-25 0 -53.5 3t-57 9t-56.5 15.5t-52 23.5l60 241h22l31 -179q3 -18 7 -28.5t14 -18.5q11 -10 36.5 -15.5t59.5 -5.5q37 0 71.5 8.5t61.5 24.5t43 40t16 54q0 35 -23 74.5t-77 95.5l-52 54q-31 32 -53 73t-22 90q0 45 24 87.5t66 74.5t99.5 51.5t124.5 19.5
q46 0 92.5 -10.5t81.5 -33.5l-41 -225h-22l-52 163q-5 17 -9.5 27.5t-11.5 17.5q-8 8 -23.5 11.5t-29.5 3.5q-35 0 -64.5 -8t-52 -22.5t-35 -35.5t-12.5 -46q0 -32 18.5 -63t48.5 -63l55 -57q31 -33 52 -59t33 -49t17 -44.5t5 -45.5q0 -57 -28 -103.5t-74.5 -79.5
t-108.5 -51.5t-129 -18.5zM52 -347q54 24 88.5 53.5t34.5 62.5q0 26 -18.5 43t-50.5 22q-1 35 19.5 57t53.5 23q41 1 69.5 -25t28.5 -71q0 -33 -18.5 -62.5t-48.5 -54t-67.5 -44.5t-76.5 -35z" />
    <glyph glyph-name="Tbar" unicode="&#x166;" horiz-adv-x="782" 
d="M133 38l61 4q26 2 42.5 10t25.5 37l192 628h-100q-16 0 -23 -3t-19 -15l-200 -212h-22l105 271h704l-61 -271h-22l-56 212q-3 12 -9.5 15t-22.5 3h-114l-192 -628q-9 -29 2.5 -37.5t37.5 -9.5l59 -4l-12 -38h-388zM218 428h455l-18 -59h-455z" />
    <glyph glyph-name="Tcaron" unicode="&#x164;" horiz-adv-x="782" 
d="M133 38l61 4q26 2 42.5 10t25.5 37l192 628h-100q-16 0 -23 -3t-19 -15l-200 -212h-22l105 271h704l-61 -271h-22l-56 212q-3 12 -9.5 15t-22.5 3h-114l-192 -628q-9 -29 2.5 -37.5t37.5 -9.5l59 -4l-12 -38h-388zM480 988h29l80 -59l170 59h35l-218 -155h-14z" />
    <glyph glyph-name="uni0162" unicode="&#x162;" horiz-adv-x="782" 
d="M133 38l61 4q26 2 42.5 10t25.5 37l192 628h-100q-16 0 -23 -3t-19 -15l-200 -212h-22l105 271h704l-61 -271h-22l-56 212q-3 12 -9.5 15t-22.5 3h-114l-192 -628q-9 -29 2.5 -37.5t37.5 -9.5l59 -4l-12 -38h-388zM123 -347q54 24 88.5 53.5t34.5 62.5q0 26 -18.5 43
t-50.5 22q-1 35 19.5 57t53.5 23q41 1 69.5 -25t28.5 -71q0 -33 -18.5 -62.5t-48.5 -54t-67.5 -44.5t-76.5 -35z" />
    <glyph glyph-name="uni021A" unicode="&#x21a;" horiz-adv-x="782" 
d="M133 38l61 4q26 2 42.5 10t25.5 37l192 628h-100q-16 0 -23 -3t-19 -15l-200 -212h-22l105 271h704l-61 -271h-22l-56 212q-3 12 -9.5 15t-22.5 3h-114l-192 -628q-9 -29 2.5 -37.5t37.5 -9.5l59 -4l-12 -38h-388zM123 -347q54 24 88.5 53.5t34.5 62.5q0 26 -18.5 43
t-50.5 22q-1 35 19.5 57t53.5 23q41 1 69.5 -25t28.5 -71q0 -33 -18.5 -62.5t-48.5 -54t-67.5 -44.5t-76.5 -35z" />
    <glyph glyph-name="Ubreve" unicode="&#x16c;" horiz-adv-x="861" 
d="M391 -13q-77 0 -137 18t-96 57t-44.5 100.5t18.5 147.5l110 359q9 29 -2.5 37.5t-36.5 11.5l-34 4l11 36h338l-11 -36l-36 -4q-28 -3 -44 -11.5t-25 -37.5l-116 -377q-20 -66 -18.5 -110.5t21 -71.5t56 -38.5t85.5 -11.5q103 0 172 58t109 188l111 363q9 29 -2.5 38
t-36.5 11l-44 4l11 36h244l-11 -36l-36 -4q-28 -3 -44 -11.5t-25 -37.5l-115 -373q-23 -75 -56 -133t-78.5 -97t-104 -59t-133.5 -20zM642 827q-24 0 -48 8t-41.5 27t-24 49.5t3.5 75.5h53q-11 -56 8.5 -81t59.5 -25q36 0 69 23.5t50 82.5h56q-13 -51 -34.5 -82.5
t-47.5 -48.5t-53 -23t-51 -6z" />
    <glyph glyph-name="Uhungarumlaut" unicode="&#x170;" horiz-adv-x="861" 
d="M391 -13q-77 0 -137 18t-96 57t-44.5 100.5t18.5 147.5l110 359q9 29 -2.5 37.5t-36.5 11.5l-34 4l11 36h338l-11 -36l-36 -4q-28 -3 -44 -11.5t-25 -37.5l-116 -377q-20 -66 -18.5 -110.5t21 -71.5t56 -38.5t85.5 -11.5q103 0 172 58t109 188l111 363q9 29 -2.5 38
t-36.5 11l-44 4l11 36h244l-11 -36l-36 -4q-28 -3 -44 -11.5t-25 -37.5l-115 -373q-23 -75 -56 -133t-78.5 -97t-104 -59t-133.5 -20zM632 972h181l-1 -3l-272 -126h-32zM837 972h181l-1 -3l-272 -126h-32z" />
    <glyph glyph-name="Umacron" unicode="&#x16a;" horiz-adv-x="861" 
d="M391 -13q-77 0 -137 18t-96 57t-44.5 100.5t18.5 147.5l110 359q9 29 -2.5 37.5t-36.5 11.5l-34 4l11 36h338l-11 -36l-36 -4q-28 -3 -44 -11.5t-25 -37.5l-116 -377q-20 -66 -18.5 -110.5t21 -71.5t56 -38.5t85.5 -11.5q103 0 172 58t109 188l111 363q9 29 -2.5 38
t-36.5 11l-44 4l11 36h244l-11 -36l-36 -4q-28 -3 -44 -11.5t-25 -37.5l-115 -373q-23 -75 -56 -133t-78.5 -97t-104 -59t-133.5 -20zM523 940h285l-23 -68h-285z" />
    <glyph glyph-name="Uogonek" unicode="&#x172;" horiz-adv-x="861" 
d="M327 -234q-38 0 -64 17t-26 52q0 21 12.5 42t33 40.5t46.5 37t54 32.5q-75 1 -133 19.5t-93 57.5t-43 100t18 146l110 359q9 29 -2.5 37.5t-36.5 11.5l-34 4l11 36h338l-11 -36l-36 -4q-28 -3 -44 -11.5t-25 -37.5l-116 -377q-20 -66 -18.5 -110.5t21 -71.5t56 -38.5
t85.5 -11.5q103 0 172 58t109 188l111 363q9 29 -2.5 38t-36.5 11l-44 4l11 36h244l-11 -36l-36 -4q-28 -3 -44 -11.5t-25 -37.5l-115 -373q-44 -143 -125.5 -221.5t-216.5 -86.5q-16 -14 -32 -28.5t-28.5 -30.5t-20.5 -32t-8 -33q0 -46 58 -46q20 0 46 6l-11 -31
q-18 -12 -45 -19.5t-53 -7.5z" />
    <glyph glyph-name="Uring" unicode="&#x16e;" horiz-adv-x="861" 
d="M391 -13q-77 0 -137 18t-96 57t-44.5 100.5t18.5 147.5l110 359q9 29 -2.5 37.5t-36.5 11.5l-34 4l11 36h338l-11 -36l-36 -4q-28 -3 -44 -11.5t-25 -37.5l-116 -377q-20 -66 -18.5 -110.5t21 -71.5t56 -38.5t85.5 -11.5q103 0 172 58t109 188l111 363q9 29 -2.5 38
t-36.5 11l-44 4l11 36h244l-11 -36l-36 -4q-28 -3 -44 -11.5t-25 -37.5l-115 -373q-23 -75 -56 -133t-78.5 -97t-104 -59t-133.5 -20zM672 837q-26 0 -48.5 9.5t-39 25.5t-26.5 38t-10 47t10 47t26.5 38.5t39 26t48.5 9.5q27 0 50 -9.5t40 -26t27 -38.5t10 -47t-10 -47
t-27 -38t-40 -25.5t-50 -9.5zM672 890q32 0 49 18t17 49t-17 48.5t-49 17.5q-30 0 -47.5 -17.5t-17.5 -48.5t17.5 -49t47.5 -18z" />
    <glyph glyph-name="Utilde" unicode="&#x168;" horiz-adv-x="861" 
d="M391 -13q-77 0 -137 18t-96 57t-44.5 100.5t18.5 147.5l110 359q9 29 -2.5 37.5t-36.5 11.5l-34 4l11 36h338l-11 -36l-36 -4q-28 -3 -44 -11.5t-25 -37.5l-116 -377q-20 -66 -18.5 -110.5t21 -71.5t56 -38.5t85.5 -11.5q103 0 172 58t109 188l111 363q9 29 -2.5 38
t-36.5 11l-44 4l11 36h244l-11 -36l-36 -4q-28 -3 -44 -11.5t-25 -37.5l-115 -373q-23 -75 -56 -133t-78.5 -97t-104 -59t-133.5 -20zM721 829q-24 0 -43.5 9t-37 20t-34.5 20t-37 9q-23 0 -40 -11t-27 -43h-20q9 72 36.5 109.5t78.5 37.5q24 0 42.5 -9t35 -20t33 -20
t36.5 -9q21 0 35.5 11t22.5 39h20q-7 -44 -17 -71.5t-22.5 -43.5t-28 -22t-33.5 -6z" />
    <glyph glyph-name="uni1EE4" unicode="&#x1ee4;" horiz-adv-x="861" 
d="M391 -13q-77 0 -137 18t-96 57t-44.5 100.5t18.5 147.5l110 359q9 29 -2.5 37.5t-36.5 11.5l-34 4l11 36h338l-11 -36l-36 -4q-28 -3 -44 -11.5t-25 -37.5l-116 -377q-20 -66 -18.5 -110.5t21 -71.5t56 -38.5t85.5 -11.5q103 0 172 58t109 188l111 363q9 29 -2.5 38
t-36.5 11l-44 4l11 36h244l-11 -36l-36 -4q-28 -3 -44 -11.5t-25 -37.5l-115 -373q-23 -75 -56 -133t-78.5 -97t-104 -59t-133.5 -20zM325 -242q-30 0 -50 20.5t-20 50.5q0 31 20 51t50 20q29 0 49.5 -20t20.5 -51q0 -30 -20.5 -50.5t-49.5 -20.5z" />
    <glyph glyph-name="Wacute" unicode="&#x1e82;" horiz-adv-x="1267" 
d="M245 669q6 29 -3.5 37.5t-35.5 11.5l-34 4l11 36h338l-11 -36l-36 -4q-27 -3 -44.5 -11.5t-24.5 -37.5l-103 -466l366 334l46 221h277l-11 -36l-56 -4q-27 -2 -44.5 -11t-24.5 -38l-103 -466l515 470q23 21 26.5 32t-22.5 13l-62 4l11 36h273l-11 -36l-34 -4
q-27 -3 -53 -12.5t-52 -32.5l-773 -703h-20l100 482l-530 -482h-20zM970 972h181l-1 -3l-270 -126h-32z" />
    <glyph glyph-name="Wcircumflex" unicode="&#x174;" horiz-adv-x="1267" 
d="M245 669q6 29 -3.5 37.5t-35.5 11.5l-34 4l11 36h338l-11 -36l-36 -4q-27 -3 -44.5 -11.5t-24.5 -37.5l-103 -466l366 334l46 221h277l-11 -36l-56 -4q-27 -2 -44.5 -11t-24.5 -38l-103 -466l515 470q23 21 26.5 32t-22.5 13l-62 4l11 36h273l-11 -36l-34 -4
q-27 -3 -53 -12.5t-52 -32.5l-773 -703h-20l100 482l-530 -482h-20zM922 987h14l82 -154h-29l-80 59l-170 -59h-35z" />
    <glyph glyph-name="Wdieresis" unicode="&#x1e84;" horiz-adv-x="1267" 
d="M245 669q6 29 -3.5 37.5t-35.5 11.5l-34 4l11 36h338l-11 -36l-36 -4q-27 -3 -44.5 -11.5t-24.5 -37.5l-103 -466l366 334l46 221h277l-11 -36l-56 -4q-27 -2 -44.5 -11t-24.5 -38l-103 -466l515 470q23 21 26.5 32t-22.5 13l-62 4l11 36h273l-11 -36l-34 -4
q-27 -3 -53 -12.5t-52 -32.5l-773 -703h-20l100 482l-530 -482h-20zM1000 837q-30 0 -50 20.5t-20 50.5q0 31 20 51t50 20q29 0 49.5 -20t20.5 -51q0 -30 -20.5 -50.5t-49.5 -20.5zM774 837q-30 0 -50 20.5t-20 50.5q0 31 20 51t50 20q29 0 49.5 -20t20.5 -51
q0 -30 -20.5 -50.5t-49.5 -20.5z" />
    <glyph glyph-name="Wgrave" unicode="&#x1e80;" horiz-adv-x="1267" 
d="M245 669q6 29 -3.5 37.5t-35.5 11.5l-34 4l11 36h338l-11 -36l-36 -4q-27 -3 -44.5 -11.5t-24.5 -37.5l-103 -466l366 334l46 221h277l-11 -36l-56 -4q-27 -2 -44.5 -11t-24.5 -38l-103 -466l515 470q23 21 26.5 32t-22.5 13l-62 4l11 36h273l-11 -36l-34 -4
q-27 -3 -53 -12.5t-52 -32.5l-773 -703h-20l100 482l-530 -482h-20zM867 843l-183 126l1 3h163l46 -129h-27z" />
    <glyph glyph-name="Ycircumflex" unicode="&#x176;" horiz-adv-x="780" 
d="M132 38l61 4q26 2 42.5 10t25.5 37l78 253l-119 331q-9 25 -17 33.5t-33 11.5l-32 4l11 36h339l-11 -36l-44 -4q-27 -2 -41.5 -11.5t-6.5 -33.5l94 -272l265 272q24 25 21.5 34t-28.5 11l-62 4l11 36h270l-11 -36l-34 -4q-28 -3 -47.5 -11.5t-43.5 -33.5l-322 -332
l-77 -252q-9 -29 2.5 -37.5t37.5 -9.5l59 -4l-12 -38h-388zM657 987h14l82 -154h-29l-80 59l-170 -59h-35z" />
    <glyph glyph-name="Ydieresis" unicode="&#x178;" horiz-adv-x="780" 
d="M132 38l61 4q26 2 42.5 10t25.5 37l78 253l-119 331q-9 25 -17 33.5t-33 11.5l-32 4l11 36h339l-11 -36l-44 -4q-27 -2 -41.5 -11.5t-6.5 -33.5l94 -272l265 272q24 25 21.5 34t-28.5 11l-62 4l11 36h270l-11 -36l-34 -4q-28 -3 -47.5 -11.5t-43.5 -33.5l-322 -332
l-77 -252q-9 -29 2.5 -37.5t37.5 -9.5l59 -4l-12 -38h-388zM735 837q-30 0 -50 20.5t-20 50.5q0 31 20 51t50 20q29 0 49.5 -20t20.5 -51q0 -30 -20.5 -50.5t-49.5 -20.5zM509 837q-30 0 -50 20.5t-20 50.5q0 31 20 51t50 20q29 0 49.5 -20t20.5 -51q0 -30 -20.5 -50.5
t-49.5 -20.5z" />
    <glyph glyph-name="Ygrave" unicode="&#x1ef2;" horiz-adv-x="780" 
d="M132 38l61 4q26 2 42.5 10t25.5 37l78 253l-119 331q-9 25 -17 33.5t-33 11.5l-32 4l11 36h339l-11 -36l-44 -4q-27 -2 -41.5 -11.5t-6.5 -33.5l94 -272l265 272q24 25 21.5 34t-28.5 11l-62 4l11 36h270l-11 -36l-34 -4q-28 -3 -47.5 -11.5t-43.5 -33.5l-322 -332
l-77 -252q-9 -29 2.5 -37.5t37.5 -9.5l59 -4l-12 -38h-388zM602 843l-183 126l1 3h163l46 -129h-27z" />
    <glyph glyph-name="uni0232" unicode="&#x232;" horiz-adv-x="780" 
d="M132 38l61 4q26 2 42.5 10t25.5 37l78 253l-119 331q-9 25 -17 33.5t-33 11.5l-32 4l11 36h339l-11 -36l-44 -4q-27 -2 -41.5 -11.5t-6.5 -33.5l94 -272l265 272q24 25 21.5 34t-28.5 11l-62 4l11 36h270l-11 -36l-34 -4q-28 -3 -47.5 -11.5t-43.5 -33.5l-322 -332
l-77 -252q-9 -29 2.5 -37.5t37.5 -9.5l59 -4l-12 -38h-388zM490 940h285l-23 -68h-285z" />
    <glyph glyph-name="Zacute" unicode="&#x179;" horiz-adv-x="748" 
d="M-53 12l686 702h-198q-16 0 -22.5 -3.5t-19.5 -14.5l-247 -209h-22l160 271h577l-4 -12l-685 -702h246q16 0 22.5 3.5t20.5 14.5l247 209h22l-160 -271h-627zM692 972h181l-1 -3l-270 -126h-32z" />
    <glyph glyph-name="Zcaron" unicode="&#x17d;" horiz-adv-x="748" 
d="M-53 12l686 702h-198q-16 0 -22.5 -3.5t-19.5 -14.5l-247 -209h-22l160 271h577l-4 -12l-685 -702h246q16 0 22.5 3.5t20.5 14.5l247 209h22l-160 -271h-627zM490 988h29l80 -59l170 59h35l-218 -155h-14z" />
    <glyph glyph-name="Zdotaccent" unicode="&#x17b;" horiz-adv-x="748" 
d="M-53 12l686 702h-198q-16 0 -22.5 -3.5t-19.5 -14.5l-247 -209h-22l160 271h577l-4 -12l-685 -702h246q16 0 22.5 3.5t20.5 14.5l247 209h22l-160 -271h-627zM609 837q-30 0 -50 20.5t-20 50.5q0 31 20 51t50 20q29 0 49.5 -20t20.5 -51q0 -30 -20.5 -50.5t-49.5 -20.5z
" />
    <glyph glyph-name="uni018F" unicode="&#x18f;" horiz-adv-x="816" 
d="M367 -12q-81 0 -139.5 24.5t-93.5 67t-47.5 100.5t-1.5 126h570q5 26 8 52t3 55q0 68 -18.5 117.5t-52 82t-79.5 48.5t-100 16q-103 0 -174.5 -61t-112.5 -167h-34q22 88 64 150.5t96 102.5t115.5 59t123.5 19q73 0 133.5 -21.5t104.5 -61t68.5 -96.5t24.5 -129
q0 -59 -15.5 -118t-44.5 -112.5t-70 -100t-91.5 -80.5t-110.5 -53.5t-126 -19.5zM385 30q39 0 76.5 15t70.5 43t60 67.5t45 87.5h-394q-16 -106 17.5 -159.5t124.5 -53.5z" />
    <glyph glyph-name="abreve" unicode="&#x103;" horiz-adv-x="582" 
d="M89 -13q-44 0 -67 30.5t-23 75.5t16 94t43 96.5t63 90.5t75 75.5t79 52t76 19.5q26 0 41.5 -15t18.5 -32h1l17 46h140l-149 -405q-15 -40 -16 -56t15 -16q9 0 24.5 8t34 25t38.5 45t40 67l29 -12q-21 -43 -46 -78t-55.5 -59.5t-68 -38t-82.5 -13.5q-32 0 -47.5 9.5
t-19.5 26t1.5 39.5t16.5 50l25 65h-2q-30 -50 -55 -86t-49.5 -59t-52 -34t-61.5 -11zM179 65q14 0 38 25.5t49.5 64.5t49.5 84.5t39 84.5q34 91 30.5 128.5t-33.5 37.5q-24 0 -47.5 -19.5t-45 -51t-40 -72t-32 -82.5t-21 -82t-7.5 -71q0 -47 20 -47zM403 628q-24 0 -48 8
t-41.5 27t-24 49.5t3.5 75.5h53q-11 -56 8.5 -81t59.5 -25q36 0 69 23.5t50 82.5h56q-13 -51 -34.5 -82.5t-47.5 -48.5t-53 -23t-51 -6z" />
    <glyph glyph-name="amacron" unicode="&#x101;" horiz-adv-x="582" 
d="M89 -13q-44 0 -67 30.5t-23 75.5t16 94t43 96.5t63 90.5t75 75.5t79 52t76 19.5q26 0 41.5 -15t18.5 -32h1l17 46h140l-149 -405q-15 -40 -16 -56t15 -16q9 0 24.5 8t34 25t38.5 45t40 67l29 -12q-21 -43 -46 -78t-55.5 -59.5t-68 -38t-82.5 -13.5q-32 0 -47.5 9.5
t-19.5 26t1.5 39.5t16.5 50l25 65h-2q-30 -50 -55 -86t-49.5 -59t-52 -34t-61.5 -11zM179 65q14 0 38 25.5t49.5 64.5t49.5 84.5t39 84.5q34 91 30.5 128.5t-33.5 37.5q-24 0 -47.5 -19.5t-45 -51t-40 -72t-32 -82.5t-21 -82t-7.5 -71q0 -47 20 -47zM305 737h285l-23 -68
h-285z" />
    <glyph glyph-name="aogonek" unicode="&#x105;" horiz-adv-x="582" 
d="M89 -13q-44 0 -67 30.5t-23 75.5t16 94t43 96.5t63 90.5t75 75.5t79 52t76 19.5q26 0 41.5 -15t18.5 -32h1l17 46h140l-149 -405q-15 -40 -16 -56t15 -16q9 0 24.5 8t34 25t38.5 45t40 67l29 -12q-34 -69 -79 -116.5t-108 -64.5q-17 -15 -34 -30.5t-31 -32t-22.5 -33.5
t-8.5 -35q0 -46 58 -46q20 0 46 6l-11 -31q-18 -12 -45 -19.5t-53 -7.5q-38 0 -64 17t-26 52q0 21 12.5 42t32.5 40.5t46.5 37.5t53.5 33q-5 -1 -9.5 -1h-9.5q-32 0 -47.5 9.5t-19.5 26t1.5 39.5t16.5 50l25 65h-2q-30 -50 -55 -86t-49.5 -59t-52 -34t-61.5 -11zM179 65
q14 0 38 25.5t49.5 64.5t49.5 84.5t39 84.5q34 91 30.5 128.5t-33.5 37.5q-24 0 -47.5 -19.5t-45 -51t-40 -72t-32 -82.5t-21 -82t-7.5 -71q0 -47 20 -47z" />
    <glyph glyph-name="cacute" unicode="&#x107;" horiz-adv-x="461" 
d="M162 -13q-72 0 -110 39t-38 112q0 45 14 91t38.5 88.5t57.5 79.5t71.5 64.5t80 43.5t83.5 16q49 0 82.5 -21.5t33.5 -66.5q0 -40 -37.5 -64.5t-103.5 -16.5q20 77 20 107t-22 30q-23 0 -50.5 -27.5t-51 -72t-39 -101.5t-15.5 -116q0 -63 17 -89.5t52 -26.5
q33 0 69.5 30.5t70.5 107.5l29 -11q-44 -108 -108.5 -152t-143.5 -44zM479 788h157l-4 -11l-267 -168h-29z" />
    <glyph glyph-name="ccaron" unicode="&#x10d;" horiz-adv-x="461" 
d="M162 -13q-72 0 -110 39t-38 112q0 45 14 91t38.5 88.5t57.5 79.5t71.5 64.5t80 43.5t83.5 16q49 0 82.5 -21.5t33.5 -66.5q0 -40 -37.5 -64.5t-103.5 -16.5q20 77 20 107t-22 30q-23 0 -50.5 -27.5t-51 -72t-39 -101.5t-15.5 -116q0 -63 17 -89.5t52 -26.5
q33 0 69.5 30.5t70.5 107.5l29 -11q-44 -108 -108.5 -152t-143.5 -44zM287 805h27l75 -80l177 80h30l-234 -196h-11z" />
    <glyph glyph-name="ccircumflex" unicode="&#x109;" horiz-adv-x="461" 
d="M162 -13q-72 0 -110 39t-38 112q0 45 14 91t38.5 88.5t57.5 79.5t71.5 64.5t80 43.5t83.5 16q49 0 82.5 -21.5t33.5 -66.5q0 -40 -37.5 -64.5t-103.5 -16.5q20 77 20 107t-22 30q-23 0 -50.5 -27.5t-51 -72t-39 -101.5t-15.5 -116q0 -63 17 -89.5t52 -26.5
q33 0 69.5 30.5t70.5 107.5l29 -11q-44 -108 -108.5 -152t-143.5 -44zM456 805h11l64 -196h-27l-76 80l-176 -80h-30z" />
    <glyph glyph-name="cdotaccent" unicode="&#x10b;" horiz-adv-x="461" 
d="M162 -13q-72 0 -110 39t-38 112q0 45 14 91t38.5 88.5t57.5 79.5t71.5 64.5t80 43.5t83.5 16q49 0 82.5 -21.5t33.5 -66.5q0 -40 -37.5 -64.5t-103.5 -16.5q20 77 20 107t-22 30q-23 0 -50.5 -27.5t-51 -72t-39 -101.5t-15.5 -116q0 -63 17 -89.5t52 -26.5
q33 0 69.5 30.5t70.5 107.5l29 -11q-44 -108 -108.5 -152t-143.5 -44zM409 636q-29 0 -48.5 20t-19.5 49q0 30 19.5 49.5t48.5 19.5t48.5 -19.5t19.5 -49.5q0 -29 -19.5 -49t-48.5 -20z" />
    <glyph glyph-name="dcaron" unicode="&#x10f;" horiz-adv-x="638" 
d="M94 -13q-42 0 -67.5 30.5t-25.5 81.5q0 45 16 93.5t42.5 95.5t61.5 89t73.5 74t78 51t74.5 19q51 0 63 -47h1l63 190l-70 59l2 6l261 73l-229 -687q-14 -41 -16 -56.5t14 -15.5q9 0 24.5 8t34 25t38.5 45t40 67l29 -12q-21 -43 -46 -78t-55.5 -59.5t-68 -38t-82.5 -13.5
q-32 0 -47 9.5t-19 26t1.5 39.5t15.5 50l27 74h-2q-30 -53 -57 -90.5t-54.5 -61.5t-57 -35.5t-63.5 -11.5zM189 65q16 0 39.5 25.5t48 63t47 80.5t36.5 79q34 88 28.5 132.5t-38.5 44.5q-25 0 -48 -18.5t-43.5 -48.5t-37.5 -68.5t-29.5 -79.5t-19.5 -81t-7 -72
q0 -31 5.5 -44t18.5 -13zM649 543q54 24 88.5 53.5t34.5 62.5q0 26 -18.5 43t-50.5 22q-1 35 19.5 57t53.5 23q41 1 69.5 -25t28.5 -71q0 -33 -18.5 -62.5t-48.5 -54t-67.5 -44.5t-76.5 -35z" />
    <glyph glyph-name="dcroat" unicode="&#x111;" horiz-adv-x="598" 
d="M94 -13q-42 0 -67.5 30.5t-25.5 81.5q0 45 16 93.5t42.5 95.5t61.5 89t73.5 74t78 51t74.5 19q51 0 63 -47h1l63 190l-70 59l2 6l261 73l-229 -687q-14 -41 -16 -56.5t14 -15.5q9 0 24.5 8t34 25t38.5 45t40 67l29 -12q-21 -43 -46 -78t-55.5 -59.5t-68 -38t-82.5 -13.5
q-32 0 -47 9.5t-19 26t1.5 39.5t15.5 50l27 74h-2q-30 -53 -57 -90.5t-54.5 -61.5t-57 -35.5t-63.5 -11.5zM189 65q16 0 39.5 25.5t48 63t47 80.5t36.5 79q34 88 28.5 132.5t-38.5 44.5q-25 0 -48 -18.5t-43.5 -48.5t-37.5 -68.5t-29.5 -79.5t-19.5 -81t-7 -72
q0 -31 5.5 -44t18.5 -13zM366 616h316l-18 -51h-316z" />
    <glyph glyph-name="ebreve" unicode="&#x115;" horiz-adv-x="477" 
d="M170 -13q-72 0 -114.5 39t-42.5 112t34.5 142t87 122.5t114.5 86t118 32.5q60 0 89.5 -29t29.5 -70q0 -28 -13.5 -57t-37.5 -53l-236 -2q-11 -32 -17.5 -66.5t-6.5 -71.5q0 -63 18.5 -89.5t53.5 -26.5q78 0 151 143l30 -10q-48 -102 -109 -152t-149 -50zM372 490
q-22 0 -44.5 -11.5t-44.5 -32t-41 -49.5t-34 -63h25q40 0 72.5 12.5t55.5 31t35.5 39.5t12.5 39q0 34 -37 34zM402 628q-24 0 -48 8t-41.5 27t-24 49.5t3.5 75.5h53q-11 -56 8.5 -81t59.5 -25q36 0 69 23.5t50 82.5h56q-13 -51 -34.5 -82.5t-47.5 -48.5t-53 -23t-51 -6z" />
    <glyph glyph-name="ecaron" unicode="&#x11b;" horiz-adv-x="477" 
d="M170 -13q-72 0 -114.5 39t-42.5 112t34.5 142t87 122.5t114.5 86t118 32.5q60 0 89.5 -29t29.5 -70q0 -28 -13.5 -57t-37.5 -53l-236 -2q-11 -32 -17.5 -66.5t-6.5 -71.5q0 -63 18.5 -89.5t53.5 -26.5q78 0 151 143l30 -10q-48 -102 -109 -152t-149 -50zM372 490
q-22 0 -44.5 -11.5t-44.5 -32t-41 -49.5t-34 -63h25q40 0 72.5 12.5t55.5 31t35.5 39.5t12.5 39q0 34 -37 34zM314 805h27l75 -80l177 80h30l-234 -196h-11z" />
    <glyph glyph-name="emacron" unicode="&#x113;" horiz-adv-x="477" 
d="M170 -13q-72 0 -114.5 39t-42.5 112t34.5 142t87 122.5t114.5 86t118 32.5q60 0 89.5 -29t29.5 -70q0 -28 -13.5 -57t-37.5 -53l-236 -2q-11 -32 -17.5 -66.5t-6.5 -71.5q0 -63 18.5 -89.5t53.5 -26.5q78 0 151 143l30 -10q-48 -102 -109 -152t-149 -50zM372 490
q-22 0 -44.5 -11.5t-44.5 -32t-41 -49.5t-34 -63h25q40 0 72.5 12.5t55.5 31t35.5 39.5t12.5 39q0 34 -37 34zM304 737h285l-23 -68h-285z" />
    <glyph glyph-name="eogonek" unicode="&#x119;" horiz-adv-x="477" 
d="M231 -207q-18 -12 -45 -19.5t-53 -7.5q-38 0 -64 17t-26 52q0 21 13.5 42t35 40.5t48.5 37.5t55 33q-5 -1 -12.5 -1h-12.5q-72 0 -114.5 39t-42.5 112t34.5 142t87 122.5t114.5 86t118 32.5q60 0 89.5 -29t29.5 -70q0 -28 -13.5 -57t-37.5 -53l-236 -2
q-11 -32 -17.5 -66.5t-6.5 -71.5q0 -63 18.5 -89.5t53.5 -26.5q78 0 151 143l30 -10q-19 -41 -38.5 -70t-40.5 -51.5t-44 -39t-49 -31.5q-24 -14 -45.5 -30t-37.5 -33t-25.5 -34.5t-9.5 -35.5q0 -46 58 -46q20 0 46 6zM372 490q-22 0 -44.5 -11.5t-44.5 -32t-41 -49.5
t-34 -63h25q40 0 72.5 12.5t55.5 31t35.5 39.5t12.5 39q0 34 -37 34z" />
    <glyph glyph-name="edotaccent" unicode="&#x117;" horiz-adv-x="477" 
d="M170 -13q-72 0 -114.5 39t-42.5 112t34.5 142t87 122.5t114.5 86t118 32.5q60 0 89.5 -29t29.5 -70q0 -28 -13.5 -57t-37.5 -53l-236 -2q-11 -32 -17.5 -66.5t-6.5 -71.5q0 -63 18.5 -89.5t53.5 -26.5q78 0 151 143l30 -10q-48 -102 -109 -152t-149 -50zM372 490
q-22 0 -44.5 -11.5t-44.5 -32t-41 -49.5t-34 -63h25q40 0 72.5 12.5t55.5 31t35.5 39.5t12.5 39q0 34 -37 34zM436 636q-29 0 -48.5 20t-19.5 49q0 30 19.5 49.5t48.5 19.5t48.5 -19.5t19.5 -49.5q0 -29 -19.5 -49t-48.5 -20z" />
    <glyph glyph-name="gbreve" unicode="&#x11f;" horiz-adv-x="534" 
d="M221 169q-8 0 -15.5 0.5t-14.5 1.5l-66 -52l146 -85q68 -40 104 -73.5t36 -71.5q0 -39 -25.5 -67t-65 -47t-88 -28t-94.5 -9q-62 0 -113 8.5t-87 23.5t-56 36.5t-20 48.5q0 22 16 42.5t44 38t66 32.5t82 28l-33 92l116 90q-45 13 -70.5 42.5t-25.5 71.5q0 45 22 86t59 73
t86 51t103 19q48 0 84 -15t57 -41l48 91h123l-54 -99h-112q17 -26 17 -59q0 -45 -22 -86t-59 -73t-85.5 -51t-102.5 -19zM254 202q42 0 68.5 48.5t26.5 133.5q0 51 -13.5 77.5t-42.5 26.5q-42 0 -68.5 -48.5t-26.5 -133.5q0 -51 13.5 -77.5t42.5 -26.5zM-36 -117
q0 -26 16.5 -47t44 -36t65 -23t79.5 -8q54 0 90.5 13.5t36.5 39.5q0 9 -3.5 17.5t-14 19t-30 24t-51.5 31.5l-111 63q-59 -22 -90.5 -42t-31.5 -52zM339 628q-24 0 -48 8t-41.5 27t-24 49.5t3.5 75.5h53q-11 -56 8.5 -81t59.5 -25q36 0 69 23.5t50 82.5h56
q-13 -51 -34.5 -82.5t-47.5 -48.5t-53 -23t-51 -6z" />
    <glyph glyph-name="gcircumflex" unicode="&#x11d;" horiz-adv-x="534" 
d="M221 169q-8 0 -15.5 0.5t-14.5 1.5l-66 -52l146 -85q68 -40 104 -73.5t36 -71.5q0 -39 -25.5 -67t-65 -47t-88 -28t-94.5 -9q-62 0 -113 8.5t-87 23.5t-56 36.5t-20 48.5q0 22 16 42.5t44 38t66 32.5t82 28l-33 92l116 90q-45 13 -70.5 42.5t-25.5 71.5q0 45 22 86t59 73
t86 51t103 19q48 0 84 -15t57 -41l48 91h123l-54 -99h-112q17 -26 17 -59q0 -45 -22 -86t-59 -73t-85.5 -51t-102.5 -19zM254 202q42 0 68.5 48.5t26.5 133.5q0 51 -13.5 77.5t-42.5 26.5q-42 0 -68.5 -48.5t-26.5 -133.5q0 -51 13.5 -77.5t42.5 -26.5zM-36 -117
q0 -26 16.5 -47t44 -36t65 -23t79.5 -8q54 0 90.5 13.5t36.5 39.5q0 9 -3.5 17.5t-14 19t-30 24t-51.5 31.5l-111 63q-59 -22 -90.5 -42t-31.5 -52zM420 805h11l64 -196h-27l-76 80l-176 -80h-30z" />
    <glyph glyph-name="uni0123" unicode="&#x123;" horiz-adv-x="534" 
d="M221 169q-8 0 -15.5 0.5t-14.5 1.5l-66 -52l146 -85q68 -40 104 -73.5t36 -71.5q0 -39 -25.5 -67t-65 -47t-88 -28t-94.5 -9q-62 0 -113 8.5t-87 23.5t-56 36.5t-20 48.5q0 22 16 42.5t44 38t66 32.5t82 28l-33 92l116 90q-45 13 -70.5 42.5t-25.5 71.5q0 45 22 86t59 73
t86 51t103 19q48 0 84 -15t57 -41l48 91h123l-54 -99h-112q17 -26 17 -59q0 -45 -22 -86t-59 -73t-85.5 -51t-102.5 -19zM254 202q42 0 68.5 48.5t26.5 133.5q0 51 -13.5 77.5t-42.5 26.5q-42 0 -68.5 -48.5t-26.5 -133.5q0 -51 13.5 -77.5t42.5 -26.5zM-36 -117
q0 -26 16.5 -47t44 -36t65 -23t79.5 -8q54 0 90.5 13.5t36.5 39.5q0 9 -3.5 17.5t-14 19t-30 24t-51.5 31.5l-111 63q-59 -22 -90.5 -42t-31.5 -52zM479 845q-49 -23 -81 -49.5t-32 -57.5q0 -24 17 -39.5t46 -20.5q1 -32 -17.5 -52t-49.5 -21q-37 -1 -63.5 23t-26.5 65
q0 31 17 58t44.5 49.5t62 40.5t70.5 32z" />
    <glyph glyph-name="gdotaccent" unicode="&#x121;" horiz-adv-x="534" 
d="M221 169q-8 0 -15.5 0.5t-14.5 1.5l-66 -52l146 -85q68 -40 104 -73.5t36 -71.5q0 -39 -25.5 -67t-65 -47t-88 -28t-94.5 -9q-62 0 -113 8.5t-87 23.5t-56 36.5t-20 48.5q0 22 16 42.5t44 38t66 32.5t82 28l-33 92l116 90q-45 13 -70.5 42.5t-25.5 71.5q0 45 22 86t59 73
t86 51t103 19q48 0 84 -15t57 -41l48 91h123l-54 -99h-112q17 -26 17 -59q0 -45 -22 -86t-59 -73t-85.5 -51t-102.5 -19zM254 202q42 0 68.5 48.5t26.5 133.5q0 51 -13.5 77.5t-42.5 26.5q-42 0 -68.5 -48.5t-26.5 -133.5q0 -51 13.5 -77.5t42.5 -26.5zM-36 -117
q0 -26 16.5 -47t44 -36t65 -23t79.5 -8q54 0 90.5 13.5t36.5 39.5q0 9 -3.5 17.5t-14 19t-30 24t-51.5 31.5l-111 63q-59 -22 -90.5 -42t-31.5 -52zM373 636q-29 0 -48.5 20t-19.5 49q0 30 19.5 49.5t48.5 19.5t48.5 -19.5t19.5 -49.5q0 -29 -19.5 -49t-48.5 -20z" />
    <glyph glyph-name="hbar" unicode="&#x127;" horiz-adv-x="588" 
d="M282 -13q-35 0 -62.5 17.5t-27.5 54.5q0 16 7 29.5t18.5 22.5t26 14t28.5 4q12 -38 21 -59t16 -31t11.5 -12t7.5 -2q14 0 30.5 31t31 80.5t24 110t9.5 120.5q0 76 -35 76q-18 0 -44 -27t-54 -67.5t-53 -87t-41 -85.5q-7 -18 -16.5 -41t-19 -46.5t-18 -44t-12.5 -33.5
l-147 -21l233 674l-70 59l2 6l263 73l-123 -358l-58 -139h2q35 59 65 100.5t59 67t57.5 37t60.5 11.5q59 0 84 -35t25 -89q0 -46 -14.5 -94.5t-38 -94t-54.5 -85.5t-64.5 -70.5t-67 -48t-62.5 -17.5zM121 616h316l-18 -51h-316z" />
    <glyph glyph-name="hcircumflex" unicode="&#x125;" horiz-adv-x="588" 
d="M282 -13q-35 0 -62.5 17.5t-27.5 54.5q0 16 7 29.5t18.5 22.5t26 14t28.5 4q12 -38 21 -59t16 -31t11.5 -12t7.5 -2q14 0 30.5 31t31 80.5t24 110t9.5 120.5q0 76 -35 76q-18 0 -44 -27t-54 -67.5t-53 -87t-41 -85.5q-7 -18 -16.5 -41t-19 -46.5t-18 -44t-12.5 -33.5
l-147 -21l233 674l-70 59l2 6l263 73l-123 -358l-58 -139h2q35 59 65 100.5t59 67t57.5 37t60.5 11.5q59 0 84 -35t25 -89q0 -46 -14.5 -94.5t-38 -94t-54.5 -85.5t-64.5 -70.5t-67 -48t-62.5 -17.5zM403 987h14l82 -154h-29l-80 59l-170 -59h-35z" />
    <glyph glyph-name="dotlessi" unicode="&#x131;" horiz-adv-x="357" 
d="M102 -13q-32 0 -49.5 9t-24 24.5t-3 37.5t13.5 49l130 337h-93l11 32l262 53l-159 -414q-15 -40 -16.5 -56t14.5 -16q9 0 24.5 8t34 25t38.5 45t40 67l29 -12q-21 -43 -46 -78t-55.5 -59.5t-68 -38t-82.5 -13.5z" />
    <glyph glyph-name="ibreve" unicode="&#x12d;" horiz-adv-x="357" 
d="M102 -13q-32 0 -49.5 9t-24 24.5t-3 37.5t13.5 49l130 337h-93l11 32l262 53l-159 -414q-15 -40 -16.5 -56t14.5 -16q9 0 24.5 8t34 25t38.5 45t40 67l29 -12q-21 -43 -46 -78t-55.5 -59.5t-68 -38t-82.5 -13.5zM300 628q-24 0 -48 8t-41.5 27t-24 49.5t3.5 75.5h53
q-11 -56 8.5 -81t59.5 -25q36 0 69 23.5t50 82.5h56q-13 -51 -34.5 -82.5t-47.5 -48.5t-53 -23t-51 -6z" />
    <glyph glyph-name="imacron" unicode="&#x12b;" horiz-adv-x="357" 
d="M102 -13q-32 0 -49.5 9t-24 24.5t-3 37.5t13.5 49l130 337h-93l11 32l262 53l-159 -414q-15 -40 -16.5 -56t14.5 -16q9 0 24.5 8t34 25t38.5 45t40 67l29 -12q-21 -43 -46 -78t-55.5 -59.5t-68 -38t-82.5 -13.5zM202 737h285l-23 -68h-285z" />
    <glyph glyph-name="iogonek" unicode="&#x12f;" horiz-adv-x="357" 
d="M102 -13q-32 0 -49.5 9t-24 24.5t-3 37.5t13.5 49l130 337h-93l11 32l262 53l-159 -414q-15 -40 -16.5 -56t14.5 -16q9 0 24.5 8t34 25t38.5 45t40 67l29 -12q-21 -43 -46 -78t-55.5 -59.5t-68 -38t-82.5 -13.5zM238 710q0 18 7.5 35t20.5 30t30 20.5t35 7.5
q19 0 36 -7.5t30 -20.5t20.5 -30t7.5 -35q0 -19 -7.5 -36t-20.5 -30t-30 -20.5t-36 -7.5q-18 0 -35 7.5t-30 20.5t-20.5 30t-7.5 36zM35 -234q-38 0 -64 17t-26 52q0 23 15 46.5t39 45t54 40t60 33.5h34q-17 -15 -36 -31t-35 -33t-26 -35t-10 -37q0 -46 58 -46q20 0 46 6
l-11 -31q-18 -12 -45 -19.5t-53 -7.5z" />
    <glyph glyph-name="itilde" unicode="&#x129;" horiz-adv-x="357" 
d="M102 -13q-32 0 -49.5 9t-24 24.5t-3 37.5t13.5 49l130 337h-93l11 32l262 53l-159 -414q-15 -40 -16.5 -56t14.5 -16q9 0 24.5 8t34 25t38.5 45t40 67l29 -12q-21 -43 -46 -78t-55.5 -59.5t-68 -38t-82.5 -13.5zM413 645q-24 0 -43.5 9t-37 20t-34.5 20t-37 9
q-23 0 -40 -11t-27 -43h-20q9 72 36.5 109.5t78.5 37.5q24 0 42.5 -9t35 -20t33 -20t36.5 -9q21 0 35.5 11t22.5 39h20q-7 -44 -17 -71.5t-22.5 -43.5t-28 -22t-33.5 -6z" />
    <glyph glyph-name="uni1ECB" unicode="&#x1ecb;" horiz-adv-x="357" 
d="M102 -13q-32 0 -49.5 9t-24 24.5t-3 37.5t13.5 49l130 337h-93l11 32l262 53l-159 -414q-15 -40 -16.5 -56t14.5 -16q9 0 24.5 8t34 25t38.5 45t40 67l29 -12q-21 -43 -46 -78t-55.5 -59.5t-68 -38t-82.5 -13.5zM238 710q0 18 7.5 35t20.5 30t30 20.5t35 7.5
q19 0 36 -7.5t30 -20.5t20.5 -30t7.5 -35q0 -19 -7.5 -36t-20.5 -30t-30 -20.5t-36 -7.5q-18 0 -35 7.5t-30 20.5t-20.5 30t-7.5 36zM15 -237q-29 0 -48.5 20t-19.5 49q0 30 19.5 49.5t48.5 19.5t48.5 -19.5t19.5 -49.5q0 -29 -19.5 -49t-48.5 -20z" />
    <glyph glyph-name="uni0237" unicode="&#x237;" horiz-adv-x="316" 
d="M-242 -235q47 30 83.5 55.5t66.5 55.5t55 69.5t48 96.5l163 402h-93l11 32l264 53l-207 -511q-13 -32 -24 -54.5t-26.5 -41.5t-38.5 -35t-59 -34l-230 -115z" />
    <glyph glyph-name="jcircumflex" unicode="&#x135;" horiz-adv-x="316" 
d="M-242 -235q47 30 83.5 55.5t66.5 55.5t55 69.5t48 96.5l163 402h-93l11 32l264 53l-207 -511q-13 -32 -24 -54.5t-26.5 -41.5t-38.5 -35t-59 -34l-230 -115zM356 805h11l64 -196h-27l-76 80l-176 -80h-30z" />
    <glyph glyph-name="uni0137" unicode="&#x137;" horiz-adv-x="602" 
d="M418 -28q-55 0 -93.5 37t-63.5 119l-39 127q-3 -8 -6 -15t-5 -15l-31 -94l-38 -118l-159 -23l232 674l-70 59l2 6l264 73l-102 -295l-53 -132h3q46 70 96.5 108t113.5 38q51 0 72 -21.5t21 -53.5q0 -54 -50 -98.5t-136 -69.5l54 -193q6 -23 12.5 -36t12.5 -19.5t11.5 -8
t10.5 -1.5q6 0 15 3.5t19.5 15.5t21.5 33.5t23 57.5l29 -9q-15 -45 -31.5 -74t-36.5 -45.5t-44.5 -23t-54.5 -6.5zM423 476q-25 0 -53.5 -19t-55.5 -50.5t-51.5 -71t-40.5 -79.5q54 0 97 14.5t73 39t46.5 56.5t16.5 66q0 20 -6.5 32t-25.5 12zM76 -347q54 24 88.5 53.5
t34.5 62.5q0 26 -18.5 43t-50.5 22q-1 35 19.5 57t53.5 23q41 1 69.5 -25t28.5 -71q0 -33 -18.5 -62.5t-48.5 -54t-67.5 -44.5t-76.5 -35z" />
    <glyph glyph-name="lacute" unicode="&#x13a;" horiz-adv-x="339" 
d="M88 -13q-32 0 -49.5 8.5t-23.5 24.5t-2.5 38t12.5 49l191 557l-70 59l2 6l264 73l-236 -687q-14 -41 -16 -56.5t14 -15.5q9 0 24.5 8t34 25t38.5 45t40 67l29 -12q-21 -43 -46 -78t-55.5 -59.5t-68 -38t-82.5 -13.5zM445 1044h157l-4 -11l-267 -168h-29z" />
    <glyph glyph-name="lcaron" unicode="&#x13e;" horiz-adv-x="379" 
d="M88 -13q-32 0 -49.5 8.5t-23.5 24.5t-2.5 38t12.5 49l191 557l-70 59l2 6l264 73l-236 -687q-14 -41 -16 -56.5t14 -15.5q9 0 24.5 8t34 25t38.5 45t40 67l29 -12q-21 -43 -46 -78t-55.5 -59.5t-68 -38t-82.5 -13.5zM400 543q54 24 88.5 53.5t34.5 62.5q0 26 -18.5 43
t-50.5 22q-1 35 19.5 57t53.5 23q41 1 69.5 -25t28.5 -71q0 -33 -18.5 -62.5t-48.5 -54t-67.5 -44.5t-76.5 -35z" />
    <glyph glyph-name="uni013C" unicode="&#x13c;" horiz-adv-x="339" 
d="M88 -13q-32 0 -49.5 8.5t-23.5 24.5t-2.5 38t12.5 49l191 557l-70 59l2 6l264 73l-236 -687q-14 -41 -16 -56.5t14 -15.5q9 0 24.5 8t34 25t38.5 45t40 67l29 -12q-21 -43 -46 -78t-55.5 -59.5t-68 -38t-82.5 -13.5zM-111 -347q54 24 88.5 53.5t34.5 62.5q0 26 -18.5 43
t-50.5 22q-1 35 19.5 57t53.5 23q41 1 69.5 -25t28.5 -71q0 -33 -18.5 -62.5t-48.5 -54t-67.5 -44.5t-76.5 -35z" />
    <glyph glyph-name="ldot" unicode="&#x140;" horiz-adv-x="442" 
d="M88 -13q-32 0 -49.5 8.5t-23.5 24.5t-2.5 38t12.5 49l191 557l-70 59l2 6l264 73l-236 -687q-14 -41 -16 -56.5t14 -15.5q9 0 24.5 8t34 25t38.5 45t40 67l29 -12q-21 -43 -46 -78t-55.5 -59.5t-68 -38t-82.5 -13.5zM419 327q-29 0 -48.5 20t-19.5 49q0 30 19.5 49.5
t48.5 19.5t48.5 -19.5t19.5 -49.5q0 -29 -19.5 -49t-48.5 -20z" />
    <glyph glyph-name="glyph298" horiz-adv-x="442" 
d="M88 -13q-32 0 -49.5 8.5t-23.5 24.5t-2.5 38t12.5 49l191 557l-70 59l2 6l264 73l-236 -687q-14 -41 -16 -56.5t14 -15.5q9 0 24.5 8t34 25t38.5 45t40 67l29 -12q-21 -43 -46 -78t-55.5 -59.5t-68 -38t-82.5 -13.5zM419 327q-29 0 -48.5 20t-19.5 49q0 30 19.5 49.5
t48.5 19.5t48.5 -19.5t19.5 -49.5q0 -29 -19.5 -49t-48.5 -20z" />
    <glyph glyph-name="lslash" unicode="&#x142;" horiz-adv-x="420" 
d="M129 -13q-32 0 -49.5 8.5t-23.5 24.5t-2.5 38t12.5 49l191 557l-70 59l2 6l264 73l-236 -687q-14 -41 -16 -56.5t14 -15.5q9 0 24.5 8t34 25t38.5 45t40 67l29 -12q-21 -43 -46 -78t-55.5 -59.5t-68 -38t-82.5 -13.5zM38 327l416 201l-20 -70l-416 -201z" />
    <glyph glyph-name="eng" unicode="&#x14b;" horiz-adv-x="584" 
d="M31 -262l-13 27q47 30 82 56t64 56.5t54.5 69.5t52.5 95l138 289q17 35 26 57.5t12 36t0 18.5t-10 5q-19 0 -50 -38t-69 -97q-23 -35 -47 -73.5t-46 -78t-41 -77.5t-31 -71l-157 -23l175 454h-93l11 32l261 53l-136 -336h1q29 54 54.5 96.5t47.5 76.5q28 43 52.5 72.5
t48.5 48t48 26.5t50 8q29 0 47.5 -13.5t24.5 -38t-0.5 -59t-27.5 -77.5l-150 -315q-15 -31 -26.5 -54t-26.5 -41.5t-37.5 -35t-58.5 -34.5z" />
    <glyph glyph-name="nacute" unicode="&#x144;" horiz-adv-x="631" 
d="M367 -13q-32 0 -51 9t-26.5 25t-4 38t15.5 48l108 224q17 35 26 57.5t12 36t0 18.5t-10 5q-19 0 -50 -38t-69 -97q-23 -35 -47 -73.5t-46 -78t-41 -77.5t-31 -71l-157 -23l175 454h-93l11 32l261 53l-136 -336h1q29 54 54.5 96.5t47.5 76.5q28 43 52.5 72.5t48.5 48
t48 26.5t50 8q29 0 47.5 -13.5t24.5 -38t-0.5 -59t-27.5 -77.5l-105 -218q-18 -38 -18 -55t16 -17q9 0 24.5 8t34 25t38.5 45t40 67l29 -12q-21 -43 -46 -78t-55.5 -59.5t-68 -38t-82.5 -13.5zM558 788h157l-4 -11l-267 -168h-29z" />
    <glyph glyph-name="ncaron" unicode="&#x148;" horiz-adv-x="631" 
d="M367 -13q-32 0 -51 9t-26.5 25t-4 38t15.5 48l108 224q17 35 26 57.5t12 36t0 18.5t-10 5q-19 0 -50 -38t-69 -97q-23 -35 -47 -73.5t-46 -78t-41 -77.5t-31 -71l-157 -23l175 454h-93l11 32l261 53l-136 -336h1q29 54 54.5 96.5t47.5 76.5q28 43 52.5 72.5t48.5 48
t48 26.5t50 8q29 0 47.5 -13.5t24.5 -38t-0.5 -59t-27.5 -77.5l-105 -218q-18 -38 -18 -55t16 -17q9 0 24.5 8t34 25t38.5 45t40 67l29 -12q-21 -43 -46 -78t-55.5 -59.5t-68 -38t-82.5 -13.5zM366 805h27l75 -80l177 80h30l-234 -196h-11z" />
    <glyph glyph-name="uni0146" unicode="&#x146;" horiz-adv-x="631" 
d="M367 -13q-32 0 -51 9t-26.5 25t-4 38t15.5 48l108 224q17 35 26 57.5t12 36t0 18.5t-10 5q-19 0 -50 -38t-69 -97q-23 -35 -47 -73.5t-46 -78t-41 -77.5t-31 -71l-157 -23l175 454h-93l11 32l261 53l-136 -336h1q29 54 54.5 96.5t47.5 76.5q28 43 52.5 72.5t48.5 48
t48 26.5t50 8q29 0 47.5 -13.5t24.5 -38t-0.5 -59t-27.5 -77.5l-105 -218q-18 -38 -18 -55t16 -17q9 0 24.5 8t34 25t38.5 45t40 67l29 -12q-21 -43 -46 -78t-55.5 -59.5t-68 -38t-82.5 -13.5zM89 -347q54 24 88.5 53.5t34.5 62.5q0 26 -18.5 43t-50.5 22q-1 35 19.5 57
t53.5 23q41 1 69.5 -25t28.5 -71q0 -33 -18.5 -62.5t-48.5 -54t-67.5 -44.5t-76.5 -35z" />
    <glyph glyph-name="oe" unicode="&#x153;" horiz-adv-x="782" 
d="M14 132q0 68 29 137.5t77.5 125.5t111.5 91t131 35q48 0 76 -23t40 -59q47 38 97 60t96 22q60 0 89.5 -29t29.5 -70q0 -28 -13.5 -57t-37.5 -53l-236 -2q-11 -32 -17.5 -66.5t-6.5 -71.5q0 -63 18.5 -89.5t53.5 -26.5q78 0 151 143l30 -10q-48 -102 -109 -152t-149 -50
q-50 0 -85.5 18.5t-54.5 53.5q-38 -33 -82 -52.5t-93 -19.5q-36 0 -63 11.5t-45.5 31.5t-28 46t-9.5 56zM677 490q-22 0 -44.5 -11.5t-44.5 -32t-41 -49.5t-34 -63h25q40 0 72.5 12.5t55.5 31t35.5 39.5t12.5 39q0 34 -37 34zM217 29q19 0 42 25t42 72t31.5 114.5
t12.5 152.5q0 86 -37 86q-21 0 -43.5 -25t-42 -72t-32 -114.5t-12.5 -152.5q0 -42 9 -64t30 -22z" />
    <glyph glyph-name="obreve" unicode="&#x14f;" horiz-adv-x="520" 
d="M160 -13q-36 0 -63 11.5t-45.5 31.5t-28 46t-9.5 56q0 68 29 137.5t77.5 125.5t111.5 91t131 35q36 0 63 -11.5t45.5 -31.5t28 -46t9.5 -56q0 -69 -29 -138.5t-77.5 -125t-111.5 -90.5t-131 -35zM217 29q19 0 42 25t42 72t31.5 114.5t12.5 152.5q0 86 -37 86
q-21 0 -43.5 -25t-42 -72t-32 -114.5t-12.5 -152.5q0 -42 9 -64t30 -22zM383 628q-24 0 -48 8t-41.5 27t-24 49.5t3.5 75.5h53q-11 -56 8.5 -81t59.5 -25q36 0 69 23.5t50 82.5h56q-13 -51 -34.5 -82.5t-47.5 -48.5t-53 -23t-51 -6z" />
    <glyph glyph-name="ohungarumlaut" unicode="&#x151;" horiz-adv-x="520" 
d="M160 -13q-36 0 -63 11.5t-45.5 31.5t-28 46t-9.5 56q0 68 29 137.5t77.5 125.5t111.5 91t131 35q36 0 63 -11.5t45.5 -31.5t28 -46t9.5 -56q0 -69 -29 -138.5t-77.5 -125t-111.5 -90.5t-131 -35zM217 29q19 0 42 25t42 72t31.5 114.5t12.5 152.5q0 86 -37 86
q-21 0 -43.5 -25t-42 -72t-32 -114.5t-12.5 -152.5q0 -42 9 -64t30 -22zM591 788h157l-4 -11l-267 -168h-29zM397 788h157l-4 -11l-267 -168h-29z" />
    <glyph glyph-name="omacron" unicode="&#x14d;" horiz-adv-x="520" 
d="M160 -13q-36 0 -63 11.5t-45.5 31.5t-28 46t-9.5 56q0 68 29 137.5t77.5 125.5t111.5 91t131 35q36 0 63 -11.5t45.5 -31.5t28 -46t9.5 -56q0 -69 -29 -138.5t-77.5 -125t-111.5 -90.5t-131 -35zM217 29q19 0 42 25t42 72t31.5 114.5t12.5 152.5q0 86 -37 86
q-21 0 -43.5 -25t-42 -72t-32 -114.5t-12.5 -152.5q0 -42 9 -64t30 -22zM285 737h285l-23 -68h-285z" />
    <glyph glyph-name="uni1ECD" unicode="&#x1ecd;" horiz-adv-x="520" 
d="M160 -13q-36 0 -63 11.5t-45.5 31.5t-28 46t-9.5 56q0 68 29 137.5t77.5 125.5t111.5 91t131 35q36 0 63 -11.5t45.5 -31.5t28 -46t9.5 -56q0 -69 -29 -138.5t-77.5 -125t-111.5 -90.5t-131 -35zM217 29q19 0 42 25t42 72t31.5 114.5t12.5 152.5q0 86 -37 86
q-21 0 -43.5 -25t-42 -72t-32 -114.5t-12.5 -152.5q0 -42 9 -64t30 -22zM117 -237q-29 0 -48.5 20t-19.5 49q0 30 19.5 49.5t48.5 19.5t48.5 -19.5t19.5 -49.5q0 -29 -19.5 -49t-48.5 -20z" />
    <glyph glyph-name="racute" unicode="&#x155;" horiz-adv-x="483" 
d="M170 444h-93l11 32l261 53l-130 -330h1l102 182q20 35 37 61t34 43t36.5 25.5t44.5 8.5q29 0 48 -18t19 -50q0 -81 -101 -98q-12 25 -22.5 43t-25.5 41q-21 -32 -46 -73t-53.5 -89t-59.5 -101.5t-62 -109.5l-18 -51l-157 -23zM528 788h157l-4 -11l-267 -168h-29z" />
    <glyph glyph-name="rcaron" unicode="&#x159;" horiz-adv-x="483" 
d="M170 444h-93l11 32l261 53l-130 -330h1l102 182q20 35 37 61t34 43t36.5 25.5t44.5 8.5q29 0 48 -18t19 -50q0 -81 -101 -98q-12 25 -22.5 43t-25.5 41q-21 -32 -46 -73t-53.5 -89t-59.5 -101.5t-62 -109.5l-18 -51l-157 -23zM336 805h27l75 -80l177 80h30l-234 -196h-11
z" />
    <glyph glyph-name="uni0157" unicode="&#x157;" horiz-adv-x="483" 
d="M170 444h-93l11 32l261 53l-130 -330h1l102 182q20 35 37 61t34 43t36.5 25.5t44.5 8.5q29 0 48 -18t19 -50q0 -81 -101 -98q-12 25 -22.5 43t-25.5 41q-21 -32 -46 -73t-53.5 -89t-59.5 -101.5t-62 -109.5l-18 -51l-157 -23zM-109 -347q54 24 88.5 53.5t34.5 62.5
q0 26 -18.5 43t-50.5 22q-1 35 19.5 57t53.5 23q41 1 69.5 -25t28.5 -71q0 -33 -18.5 -62.5t-48.5 -54t-67.5 -44.5t-76.5 -35z" />
    <glyph glyph-name="sacute" unicode="&#x15b;" horiz-adv-x="408" 
d="M112 -13q-27 0 -50 7.5t-40 20t-26.5 29.5t-9.5 35q0 20 8 35.5t21.5 25t31 14.5t36.5 4q13 -43 21.5 -69.5t15 -40.5t12 -19t12.5 -5q15 0 30 5.5t27 14t19 19.5t7 23q0 20 -16 45t-42 57l-33 41q-49 61 -49 119q0 37 20 69t52 55t71.5 36t78.5 13q51 0 81.5 -21
t30.5 -58q0 -14 -6 -29t-17.5 -26.5t-28.5 -18t-40 -3.5q-13 38 -20.5 62t-13 37t-10.5 17.5t-12 4.5q-12 0 -26 -4t-25.5 -11.5t-19 -17.5t-7.5 -22q0 -16 12.5 -39.5t41.5 -58.5l36 -45q12 -16 21 -29.5t15 -27t8.5 -27.5t2.5 -32q0 -43 -20 -77.5t-52 -58.5t-71 -36.5
t-77 -12.5zM433 788h157l-4 -11l-267 -168h-29z" />
    <glyph glyph-name="scaron" unicode="&#x161;" horiz-adv-x="408" 
d="M112 -13q-27 0 -50 7.5t-40 20t-26.5 29.5t-9.5 35q0 20 8 35.5t21.5 25t31 14.5t36.5 4q13 -43 21.5 -69.5t15 -40.5t12 -19t12.5 -5q15 0 30 5.5t27 14t19 19.5t7 23q0 20 -16 45t-42 57l-33 41q-49 61 -49 119q0 37 20 69t52 55t71.5 36t78.5 13q51 0 81.5 -21
t30.5 -58q0 -14 -6 -29t-17.5 -26.5t-28.5 -18t-40 -3.5q-13 38 -20.5 62t-13 37t-10.5 17.5t-12 4.5q-12 0 -26 -4t-25.5 -11.5t-19 -17.5t-7.5 -22q0 -16 12.5 -39.5t41.5 -58.5l36 -45q12 -16 21 -29.5t15 -27t8.5 -27.5t2.5 -32q0 -43 -20 -77.5t-52 -58.5t-71 -36.5
t-77 -12.5zM241 805h27l75 -80l177 80h30l-234 -196h-11z" />
    <glyph glyph-name="scedilla" unicode="&#x15f;" horiz-adv-x="408" 
d="M112 -13q-27 0 -50 7.5t-40 20t-26.5 29.5t-9.5 35q0 20 8 35.5t21.5 25t31 14.5t36.5 4q13 -43 21.5 -69.5t15 -40.5t12 -19t12.5 -5q15 0 30 5.5t27 14t19 19.5t7 23q0 20 -16 45t-42 57l-33 41q-49 61 -49 119q0 37 20 69t52 55t71.5 36t78.5 13q51 0 81.5 -21
t30.5 -58q0 -14 -6 -29t-17.5 -26.5t-28.5 -18t-40 -3.5q-13 38 -20.5 62t-13 37t-10.5 17.5t-12 4.5q-12 0 -26 -4t-25.5 -11.5t-19 -17.5t-7.5 -22q0 -16 12.5 -39.5t41.5 -58.5l36 -45q12 -16 21 -29.5t15 -27t8.5 -27.5t2.5 -32q0 -43 -20 -77.5t-52 -58.5t-71 -36.5
t-77 -12.5zM14 -265q-50 0 -78 21t-28 45q0 23 19 32.5t41 -1.5q-4 -34 15 -49.5t47 -15.5q43 0 43 27q0 20 -22 38.5t-63 46.5l143 121h48l-98 -83q23 -17 38.5 -37t15.5 -44q0 -45 -33 -73t-88 -28z" />
    <glyph glyph-name="scircumflex" unicode="&#x15d;" horiz-adv-x="408" 
d="M112 -13q-27 0 -50 7.5t-40 20t-26.5 29.5t-9.5 35q0 20 8 35.5t21.5 25t31 14.5t36.5 4q13 -43 21.5 -69.5t15 -40.5t12 -19t12.5 -5q15 0 30 5.5t27 14t19 19.5t7 23q0 20 -16 45t-42 57l-33 41q-49 61 -49 119q0 37 20 69t52 55t71.5 36t78.5 13q51 0 81.5 -21
t30.5 -58q0 -14 -6 -29t-17.5 -26.5t-28.5 -18t-40 -3.5q-13 38 -20.5 62t-13 37t-10.5 17.5t-12 4.5q-12 0 -26 -4t-25.5 -11.5t-19 -17.5t-7.5 -22q0 -16 12.5 -39.5t41.5 -58.5l36 -45q12 -16 21 -29.5t15 -27t8.5 -27.5t2.5 -32q0 -43 -20 -77.5t-52 -58.5t-71 -36.5
t-77 -12.5zM410 805h11l64 -196h-27l-76 80l-176 -80h-30z" />
    <glyph glyph-name="uni0219" unicode="&#x219;" horiz-adv-x="408" 
d="M112 -13q-27 0 -50 7.5t-40 20t-26.5 29.5t-9.5 35q0 20 8 35.5t21.5 25t31 14.5t36.5 4q13 -43 21.5 -69.5t15 -40.5t12 -19t12.5 -5q15 0 30 5.5t27 14t19 19.5t7 23q0 20 -16 45t-42 57l-33 41q-49 61 -49 119q0 37 20 69t52 55t71.5 36t78.5 13q51 0 81.5 -21
t30.5 -58q0 -14 -6 -29t-17.5 -26.5t-28.5 -18t-40 -3.5q-13 38 -20.5 62t-13 37t-10.5 17.5t-12 4.5q-12 0 -26 -4t-25.5 -11.5t-19 -17.5t-7.5 -22q0 -16 12.5 -39.5t41.5 -58.5l36 -45q12 -16 21 -29.5t15 -27t8.5 -27.5t2.5 -32q0 -43 -20 -77.5t-52 -58.5t-71 -36.5
t-77 -12.5zM-55 -347q54 24 88.5 53.5t34.5 62.5q0 26 -18.5 43t-50.5 22q-1 35 19.5 57t53.5 23q41 1 69.5 -25t28.5 -71q0 -33 -18.5 -62.5t-48.5 -54t-67.5 -44.5t-76.5 -35z" />
    <glyph glyph-name="tbar" unicode="&#x167;" horiz-adv-x="451" 
d="M125 -13q-32 0 -49.5 9t-24 25t-3.5 38t14 48l128 318h-109l30 77h110l47 116h147l-46 -116h129l-31 -77h-129l-124 -310q-16 -40 -17.5 -56t14.5 -16q9 0 24.5 8t34 25t38.5 45t40 67l29 -12q-21 -43 -46 -78t-55.5 -59.5t-68 -38t-82.5 -13.5zM51 351h386l-21 -51h-386
z" />
    <glyph glyph-name="tcaron" unicode="&#x165;" horiz-adv-x="411" 
d="M105 -13q-32 0 -49.5 9t-24 25t-3.5 38t14 48l128 318h-109l30 77h110l47 116h147l-46 -116h129l-31 -77h-129l-124 -310q-16 -40 -17.5 -56t14.5 -16q9 0 24.5 8t34 25t38.5 45t40 67l29 -12q-21 -43 -46 -78t-55.5 -59.5t-68 -38t-82.5 -13.5zM470 609q54 24 88.5 53.5
t34.5 62.5q0 26 -18.5 43t-50.5 22q-1 35 19.5 57t53.5 23q41 1 69.5 -25t28.5 -71q0 -33 -18.5 -62.5t-48.5 -54t-67.5 -44.5t-76.5 -35z" />
    <glyph glyph-name="uni0163" unicode="&#x163;" horiz-adv-x="411" 
d="M105 -13q-32 0 -49.5 9t-24 25t-3.5 38t14 48l128 318h-109l30 77h110l47 116h147l-46 -116h129l-31 -77h-129l-124 -310q-16 -40 -17.5 -56t14.5 -16q9 0 24.5 8t34 25t38.5 45t40 67l29 -12q-21 -43 -46 -78t-55.5 -59.5t-68 -38t-82.5 -13.5zM-96 -347
q54 24 88.5 53.5t34.5 62.5q0 26 -18.5 43t-50.5 22q-1 35 19.5 57t53.5 23q41 1 69.5 -25t28.5 -71q0 -33 -18.5 -62.5t-48.5 -54t-67.5 -44.5t-76.5 -35z" />
    <glyph glyph-name="uni021B" unicode="&#x21b;" horiz-adv-x="411" 
d="M105 -13q-32 0 -49.5 9t-24 25t-3.5 38t14 48l128 318h-109l30 77h110l47 116h147l-46 -116h129l-31 -77h-129l-124 -310q-16 -40 -17.5 -56t14.5 -16q9 0 24.5 8t34 25t38.5 45t40 67l29 -12q-21 -43 -46 -78t-55.5 -59.5t-68 -38t-82.5 -13.5zM-96 -347
q54 24 88.5 53.5t34.5 62.5q0 26 -18.5 43t-50.5 22q-1 35 19.5 57t53.5 23q41 1 69.5 -25t28.5 -71q0 -33 -18.5 -62.5t-48.5 -54t-67.5 -44.5t-76.5 -35z" />
    <glyph glyph-name="ubreve" unicode="&#x16d;" horiz-adv-x="627" 
d="M205 177q-16 -36 -25 -58.5t-12 -35.5t-0.5 -18t9.5 -5q19 0 50 38t69 97q23 34 46 72.5t44.5 77.5t40.5 76.5t34 71.5l156 26l-156 -404q-15 -40 -16.5 -56t14.5 -16q9 0 24.5 8t34 25t38.5 45t40 67l29 -12q-21 -43 -46 -78t-55.5 -59.5t-68 -38t-82.5 -13.5
q-32 0 -50 9t-24.5 24.5t-3 37.5t14.5 49l77 189h-1q-24 -44 -47.5 -83t-43.5 -69q-27 -43 -51.5 -73t-47.5 -48.5t-47 -27t-51 -8.5q-59 0 -71 50t27 138l119 269h-93l11 32l272 53zM436 628q-24 0 -48 8t-41.5 27t-24 49.5t3.5 75.5h53q-11 -56 8.5 -81t59.5 -25
q36 0 69 23.5t50 82.5h56q-13 -51 -34.5 -82.5t-47.5 -48.5t-53 -23t-51 -6z" />
    <glyph glyph-name="uhungarumlaut" unicode="&#x171;" horiz-adv-x="627" 
d="M205 177q-16 -36 -25 -58.5t-12 -35.5t-0.5 -18t9.5 -5q19 0 50 38t69 97q23 34 46 72.5t44.5 77.5t40.5 76.5t34 71.5l156 26l-156 -404q-15 -40 -16.5 -56t14.5 -16q9 0 24.5 8t34 25t38.5 45t40 67l29 -12q-21 -43 -46 -78t-55.5 -59.5t-68 -38t-82.5 -13.5
q-32 0 -50 9t-24.5 24.5t-3 37.5t14.5 49l77 189h-1q-24 -44 -47.5 -83t-43.5 -69q-27 -43 -51.5 -73t-47.5 -48.5t-47 -27t-51 -8.5q-59 0 -71 50t27 138l119 269h-93l11 32l272 53zM644 788h157l-4 -11l-267 -168h-29zM450 788h157l-4 -11l-267 -168h-29z" />
    <glyph glyph-name="umacron" unicode="&#x16b;" horiz-adv-x="627" 
d="M205 177q-16 -36 -25 -58.5t-12 -35.5t-0.5 -18t9.5 -5q19 0 50 38t69 97q23 34 46 72.5t44.5 77.5t40.5 76.5t34 71.5l156 26l-156 -404q-15 -40 -16.5 -56t14.5 -16q9 0 24.5 8t34 25t38.5 45t40 67l29 -12q-21 -43 -46 -78t-55.5 -59.5t-68 -38t-82.5 -13.5
q-32 0 -50 9t-24.5 24.5t-3 37.5t14.5 49l77 189h-1q-24 -44 -47.5 -83t-43.5 -69q-27 -43 -51.5 -73t-47.5 -48.5t-47 -27t-51 -8.5q-59 0 -71 50t27 138l119 269h-93l11 32l272 53zM338 737h285l-23 -68h-285z" />
    <glyph glyph-name="uogonek" unicode="&#x173;" horiz-adv-x="627" 
d="M205 177q-16 -36 -25 -58.5t-12 -35.5t-0.5 -18t9.5 -5q19 0 50 38t69 97q23 34 46 72.5t44.5 77.5t40.5 76.5t34 71.5l156 26l-156 -404q-15 -40 -16.5 -56t14.5 -16q9 0 24.5 8t34 25t38.5 45t40 67l29 -12q-34 -69 -79 -116.5t-108 -64.5q-17 -15 -34.5 -30.5
t-31.5 -32t-23 -33.5t-9 -35q0 -46 58 -46q20 0 46 6l-11 -31q-18 -12 -45 -19.5t-53 -7.5q-38 0 -64 17t-26 52q0 21 12 42t32.5 40.5t46.5 37.5t54 33q-5 -1 -8.5 -1h-8.5q-32 0 -50 9t-24.5 24.5t-3 37.5t14.5 49l77 189h-1q-24 -44 -47.5 -83t-43.5 -69
q-27 -43 -51.5 -73t-47.5 -48.5t-47 -27t-51 -8.5q-59 0 -71 50t27 138l119 269h-93l11 32l272 53z" />
    <glyph glyph-name="uring" unicode="&#x16f;" horiz-adv-x="627" 
d="M205 177q-16 -36 -25 -58.5t-12 -35.5t-0.5 -18t9.5 -5q19 0 50 38t69 97q23 34 46 72.5t44.5 77.5t40.5 76.5t34 71.5l156 26l-156 -404q-15 -40 -16.5 -56t14.5 -16q9 0 24.5 8t34 25t38.5 45t40 67l29 -12q-21 -43 -46 -78t-55.5 -59.5t-68 -38t-82.5 -13.5
q-32 0 -50 9t-24.5 24.5t-3 37.5t14.5 49l77 189h-1q-24 -44 -47.5 -83t-43.5 -69q-27 -43 -51.5 -73t-47.5 -48.5t-47 -27t-51 -8.5q-59 0 -71 50t27 138l119 269h-93l11 32l272 53zM470 585q-26 0 -48.5 9.5t-39 25.5t-26.5 38t-10 47t10 47t26.5 38.5t39 26t48.5 9.5
q27 0 50 -9.5t40 -26t27 -38.5t10 -47t-10 -47t-27 -38t-40 -25.5t-50 -9.5zM470 638q32 0 49 18t17 49t-17 48.5t-49 17.5q-30 0 -47.5 -17.5t-17.5 -48.5t17.5 -49t47.5 -18z" />
    <glyph glyph-name="utilde" unicode="&#x169;" horiz-adv-x="627" 
d="M205 177q-16 -36 -25 -58.5t-12 -35.5t-0.5 -18t9.5 -5q19 0 50 38t69 97q23 34 46 72.5t44.5 77.5t40.5 76.5t34 71.5l156 26l-156 -404q-15 -40 -16.5 -56t14.5 -16q9 0 24.5 8t34 25t38.5 45t40 67l29 -12q-21 -43 -46 -78t-55.5 -59.5t-68 -38t-82.5 -13.5
q-32 0 -50 9t-24.5 24.5t-3 37.5t14.5 49l77 189h-1q-24 -44 -47.5 -83t-43.5 -69q-27 -43 -51.5 -73t-47.5 -48.5t-47 -27t-51 -8.5q-59 0 -71 50t27 138l119 269h-93l11 32l272 53zM549 645q-24 0 -43.5 9t-37 20t-34.5 20t-37 9q-23 0 -40 -11t-27 -43h-20
q9 72 36.5 109.5t78.5 37.5q24 0 42.5 -9t35 -20t33 -20t36.5 -9q21 0 35.5 11t22.5 39h20q-7 -44 -17 -71.5t-22.5 -43.5t-28 -22t-33.5 -6z" />
    <glyph glyph-name="uni1EE5" unicode="&#x1ee5;" horiz-adv-x="627" 
d="M205 177q-16 -36 -25 -58.5t-12 -35.5t-0.5 -18t9.5 -5q19 0 50 38t69 97q23 34 46 72.5t44.5 77.5t40.5 76.5t34 71.5l156 26l-156 -404q-15 -40 -16.5 -56t14.5 -16q9 0 24.5 8t34 25t38.5 45t40 67l29 -12q-21 -43 -46 -78t-55.5 -59.5t-68 -38t-82.5 -13.5
q-32 0 -50 9t-24.5 24.5t-3 37.5t14.5 49l77 189h-1q-24 -44 -47.5 -83t-43.5 -69q-27 -43 -51.5 -73t-47.5 -48.5t-47 -27t-51 -8.5q-59 0 -71 50t27 138l119 269h-93l11 32l272 53zM150 -237q-29 0 -48.5 20t-19.5 49q0 30 19.5 49.5t48.5 19.5t48.5 -19.5t19.5 -49.5
q0 -29 -19.5 -49t-48.5 -20z" />
    <glyph glyph-name="wacute" unicode="&#x1e83;" horiz-adv-x="787" 
d="M154 -13q-45 0 -66.5 25.5t-21.5 72.5q0 38 15.5 75.5t42 75t62.5 74.5t78 73h-183l-43 -81h-32l90 200h292q-33 -38 -67 -75t-61.5 -73.5t-45 -73t-17.5 -73.5q0 -41 18 -62.5t52 -21.5q20 0 37.5 3.5t36.5 12.5q-2 14 -3.5 28.5t-1.5 30.5q0 54 16.5 111t43.5 104.5
t61 77.5t69 30q26 0 40 -16t14 -45q0 -22 -5.5 -51.5t-19.5 -64t-37 -72.5t-57 -77l-30 -33q22 -20 50 -29.5t59 -9.5q28 0 56 10t53 31.5t44.5 56t30.5 83.5l-100 124q-4 21 0 38t14 29t24.5 19t31.5 7q14 0 27 -4.5t23 -16t16 -31t6 -48.5q0 -42 -8 -91t-23.5 -97
t-39 -92.5t-54.5 -78.5t-70 -54.5t-85 -20.5q-48 0 -81 28t-50 73q-51 -44 -102 -72.5t-99 -28.5zM381 285q0 -30 7.5 -54t20.5 -44l20 19q26 26 42.5 47t26.5 38.5t13.5 32.5t3.5 28q0 23 -13.5 36t-36.5 13q-15 0 -30 -7t-27 -21t-19.5 -36t-7.5 -52zM654 788h157l-4 -11
l-267 -168h-29z" />
    <glyph glyph-name="wcircumflex" unicode="&#x175;" horiz-adv-x="787" 
d="M154 -13q-45 0 -66.5 25.5t-21.5 72.5q0 38 15.5 75.5t42 75t62.5 74.5t78 73h-183l-43 -81h-32l90 200h292q-33 -38 -67 -75t-61.5 -73.5t-45 -73t-17.5 -73.5q0 -41 18 -62.5t52 -21.5q20 0 37.5 3.5t36.5 12.5q-2 14 -3.5 28.5t-1.5 30.5q0 54 16.5 111t43.5 104.5
t61 77.5t69 30q26 0 40 -16t14 -45q0 -22 -5.5 -51.5t-19.5 -64t-37 -72.5t-57 -77l-30 -33q22 -20 50 -29.5t59 -9.5q28 0 56 10t53 31.5t44.5 56t30.5 83.5l-100 124q-4 21 0 38t14 29t24.5 19t31.5 7q14 0 27 -4.5t23 -16t16 -31t6 -48.5q0 -42 -8 -91t-23.5 -97
t-39 -92.5t-54.5 -78.5t-70 -54.5t-85 -20.5q-48 0 -81 28t-50 73q-51 -44 -102 -72.5t-99 -28.5zM381 285q0 -30 7.5 -54t20.5 -44l20 19q26 26 42.5 47t26.5 38.5t13.5 32.5t3.5 28q0 23 -13.5 36t-36.5 13q-15 0 -30 -7t-27 -21t-19.5 -36t-7.5 -52zM631 805h11l64 -196
h-27l-76 80l-176 -80h-30z" />
    <glyph glyph-name="wdieresis" unicode="&#x1e85;" horiz-adv-x="787" 
d="M154 -13q-45 0 -66.5 25.5t-21.5 72.5q0 38 15.5 75.5t42 75t62.5 74.5t78 73h-183l-43 -81h-32l90 200h292q-33 -38 -67 -75t-61.5 -73.5t-45 -73t-17.5 -73.5q0 -41 18 -62.5t52 -21.5q20 0 37.5 3.5t36.5 12.5q-2 14 -3.5 28.5t-1.5 30.5q0 54 16.5 111t43.5 104.5
t61 77.5t69 30q26 0 40 -16t14 -45q0 -22 -5.5 -51.5t-19.5 -64t-37 -72.5t-57 -77l-30 -33q22 -20 50 -29.5t59 -9.5q28 0 56 10t53 31.5t44.5 56t30.5 83.5l-100 124q-4 21 0 38t14 29t24.5 19t31.5 7q14 0 27 -4.5t23 -16t16 -31t6 -48.5q0 -42 -8 -91t-23.5 -97
t-39 -92.5t-54.5 -78.5t-70 -54.5t-85 -20.5q-48 0 -81 28t-50 73q-51 -44 -102 -72.5t-99 -28.5zM381 285q0 -30 7.5 -54t20.5 -44l20 19q26 26 42.5 47t26.5 38.5t13.5 32.5t3.5 28q0 23 -13.5 36t-36.5 13q-15 0 -30 -7t-27 -21t-19.5 -36t-7.5 -52zM471 636
q-29 0 -48.5 20t-19.5 49q0 30 19.5 49.5t48.5 19.5t48.5 -19.5t19.5 -49.5q0 -29 -19.5 -49t-48.5 -20zM697 636q-29 0 -48.5 20t-19.5 49q0 30 19.5 49.5t48.5 19.5t48.5 -19.5t19.5 -49.5q0 -29 -19.5 -49t-48.5 -20z" />
    <glyph glyph-name="wgrave" unicode="&#x1e81;" horiz-adv-x="787" 
d="M154 -13q-45 0 -66.5 25.5t-21.5 72.5q0 38 15.5 75.5t42 75t62.5 74.5t78 73h-183l-43 -81h-32l90 200h292q-33 -38 -67 -75t-61.5 -73.5t-45 -73t-17.5 -73.5q0 -41 18 -62.5t52 -21.5q20 0 37.5 3.5t36.5 12.5q-2 14 -3.5 28.5t-1.5 30.5q0 54 16.5 111t43.5 104.5
t61 77.5t69 30q26 0 40 -16t14 -45q0 -22 -5.5 -51.5t-19.5 -64t-37 -72.5t-57 -77l-30 -33q22 -20 50 -29.5t59 -9.5q28 0 56 10t53 31.5t44.5 56t30.5 83.5l-100 124q-4 21 0 38t14 29t24.5 19t31.5 7q14 0 27 -4.5t23 -16t16 -31t6 -48.5q0 -42 -8 -91t-23.5 -97
t-39 -92.5t-54.5 -78.5t-70 -54.5t-85 -20.5q-48 0 -81 28t-50 73q-51 -44 -102 -72.5t-99 -28.5zM381 285q0 -30 7.5 -54t20.5 -44l20 19q26 26 42.5 47t26.5 38.5t13.5 32.5t3.5 28q0 23 -13.5 36t-36.5 13q-15 0 -30 -7t-27 -21t-19.5 -36t-7.5 -52zM555 609l-159 168
l4 11h132l48 -179h-25z" />
    <glyph glyph-name="ycircumflex" unicode="&#x177;" horiz-adv-x="564" 
d="M-91 -261q-34 0 -53.5 18.5t-19.5 47.5q0 18 10 38t28 28q25 -13 47 -20.5t50 -7.5q15 0 32.5 4t37.5 15.5t44 33t53 56.5l2 485l-83 -5l-1 31l232 66l-6 -377l119 171q36 51 62 88.5t47 61.5t40 36t41 12q29 0 42.5 -15.5t13.5 -38.5q0 -26 -10.5 -41.5t-22.5 -23.5
q-35 -9 -61 -16t-45 -14.5t-31.5 -16.5t-21.5 -22l-225 -323q-32 -45 -72 -93t-83 -87.5t-86 -65t-80 -25.5zM517 805h11l64 -196h-27l-76 80l-176 -80h-30z" />
    <glyph glyph-name="ygrave" unicode="&#x1ef3;" horiz-adv-x="564" 
d="M-91 -261q-34 0 -53.5 18.5t-19.5 47.5q0 18 10 38t28 28q25 -13 47 -20.5t50 -7.5q15 0 32.5 4t37.5 15.5t44 33t53 56.5l2 485l-83 -5l-1 31l232 66l-6 -377l119 171q36 51 62 88.5t47 61.5t40 36t41 12q29 0 42.5 -15.5t13.5 -38.5q0 -26 -10.5 -41.5t-22.5 -23.5
q-35 -9 -61 -16t-45 -14.5t-31.5 -16.5t-21.5 -22l-225 -323q-32 -45 -72 -93t-83 -87.5t-86 -65t-80 -25.5zM441 609l-159 168l4 11h132l48 -179h-25z" />
    <glyph glyph-name="uni0233" unicode="&#x233;" horiz-adv-x="564" 
d="M-91 -261q-34 0 -53.5 18.5t-19.5 47.5q0 18 10 38t28 28q25 -13 47 -20.5t50 -7.5q15 0 32.5 4t37.5 15.5t44 33t53 56.5l2 485l-83 -5l-1 31l232 66l-6 -377l119 171q36 51 62 88.5t47 61.5t40 36t41 12q29 0 42.5 -15.5t13.5 -38.5q0 -26 -10.5 -41.5t-22.5 -23.5
q-35 -9 -61 -16t-45 -14.5t-31.5 -16.5t-21.5 -22l-225 -323q-32 -45 -72 -93t-83 -87.5t-86 -65t-80 -25.5zM338 737h285l-23 -68h-285z" />
    <glyph glyph-name="zacute" unicode="&#x17a;" horiz-adv-x="528" 
d="M157 502h452l-334 -254l51 -131q12 -32 21.5 -51.5t18 -30.5t16.5 -15t17 -4q13 0 25 8t17.5 25.5t3 46t-17.5 70.5l31 12q36 -100 8 -153t-109 -53q-32 0 -59 7.5t-51.5 25.5t-47.5 48t-48 75l-10 18l-41 -32q-15 -12 -23.5 -21.5t-11 -21t-1 -27t6.5 -40.5
q-22 -12 -42 -15t-35 1t-24 14.5t-9 26.5q0 7 2.5 14t10 15.5t20 19.5t32.5 26l364 277h-248l-43 -81h-32zM504 788h157l-4 -11l-267 -168h-29z" />
    <glyph glyph-name="zcaron" unicode="&#x17e;" horiz-adv-x="528" 
d="M157 502h452l-334 -254l51 -131q12 -32 21.5 -51.5t18 -30.5t16.5 -15t17 -4q13 0 25 8t17.5 25.5t3 46t-17.5 70.5l31 12q36 -100 8 -153t-109 -53q-32 0 -59 7.5t-51.5 25.5t-47.5 48t-48 75l-10 18l-41 -32q-15 -12 -23.5 -21.5t-11 -21t-1 -27t6.5 -40.5
q-22 -12 -42 -15t-35 1t-24 14.5t-9 26.5q0 7 2.5 14t10 15.5t20 19.5t32.5 26l364 277h-248l-43 -81h-32zM312 805h27l75 -80l177 80h30l-234 -196h-11z" />
    <glyph glyph-name="zdotaccent" unicode="&#x17c;" horiz-adv-x="528" 
d="M157 502h452l-334 -254l51 -131q12 -32 21.5 -51.5t18 -30.5t16.5 -15t17 -4q13 0 25 8t17.5 25.5t3 46t-17.5 70.5l31 12q36 -100 8 -153t-109 -53q-32 0 -59 7.5t-51.5 25.5t-47.5 48t-48 75l-10 18l-41 -32q-15 -12 -23.5 -21.5t-11 -21t-1 -27t6.5 -40.5
q-22 -12 -42 -15t-35 1t-24 14.5t-9 26.5q0 7 2.5 14t10 15.5t20 19.5t32.5 26l364 277h-248l-43 -81h-32zM434 636q-29 0 -48.5 20t-19.5 49q0 30 19.5 49.5t48.5 19.5t48.5 -19.5t19.5 -49.5q0 -29 -19.5 -49t-48.5 -20z" />
    <glyph glyph-name="uni0259" unicode="&#x259;" horiz-adv-x="481" 
d="M317.98 521.968q71.9961 0 114.493 -38.9971q42.4971 -38.998 42.4971 -111.993q0 -72.9961 -34.498 -141.991q-34.4971 -68.9961 -86.9941 -122.493q-52.4971 -53.4961 -114.493 -85.9941t-117.993 -32.498q-59.9961 0 -89.4941 28.998t-29.498 69.9961
q0 27.998 13.499 56.9961t37.498 52.9971l235.985 2q10.999 31.998 17.499 66.4951q6.49902 34.498 6.49902 71.4961q0 62.9961 -18.498 89.4941q-18.499 26.499 -53.4971 26.499q-77.9951 0 -150.991 -142.991l-29.998 9.99902q47.9971 101.994 108.993 151.99
q60.9971 49.9971 148.991 49.9971zM115.993 18.999q21.998 0 44.4971 11.499t44.4971 31.998q21.999 20.499 40.998 49.4971q18.998 28.998 33.9971 62.9961h-24.998q-39.9971 0 -72.4951 -12.499t-55.4971 -30.998q-22.998 -18.499 -35.498 -39.498
q-12.499 -20.998 -12.499 -38.9971q0 -33.998 36.998 -33.998z" />
    <glyph glyph-name="uni0410" unicode="&#x410;" horiz-adv-x="823" 
d="M-132 36l34 4q27 3 53 12.5t52 32.5l773 703h20l-145 -699q-6 -29 3.5 -37.5t35.5 -11.5l34 -4l-11 -36h-338l11 36l36 4q27 3 44.5 11.5t24.5 37.5l35 158h-271l-177 -162q-23 -21 -26 -32t23 -13l60 -4l-11 -36h-271zM543 306l55 251l-274 -251h219z" />
    <glyph glyph-name="uni0411" unicode="&#x411;" horiz-adv-x="764" 
d="M264 669q8 29 2.5 38t-31.5 11l-44 4l11 36h580l-45 -256h-22l-81 192q-5 12 -10 15t-21 3h-166l-82 -267h67q155 0 234 -44t79 -139q0 -65 -38 -114t-101 -82t-144 -49.5t-166 -16.5h-316l11 36l46 4q27 2 38.5 11t20.5 38zM268 46q137 0 213.5 53.5t76.5 162.5
q0 74 -43 105.5t-127 31.5h-47l-108 -353h35z" />
    <glyph glyph-name="uni0412" unicode="&#x412;" horiz-adv-x="770" 
d="M-19 36l36 4q27 3 43.5 11.5t25.5 37.5l178 580q9 29 -2.5 37.5t-36.5 11.5l-34 4l11 36h298q146 0 214.5 -32t66.5 -100q-1 -43 -22 -79t-59 -64t-90 -46.5t-115 -25.5v-2q48 -2 90.5 -12t75 -29.5t51.5 -48t19 -67.5q0 -49 -28.5 -94.5t-81.5 -80.5t-128 -56t-168 -21
h-355zM418 424q49 0 85.5 20t61 50.5t36.5 66t12 67.5q0 43 -24.5 64.5t-81.5 21.5h-70l-88 -290h69zM320 44q63 0 107 21t72.5 54t41.5 73t13 78q0 63 -38 86.5t-106 23.5h-75l-103 -336h88z" />
    <glyph glyph-name="uni0413" unicode="&#x413;" horiz-adv-x="723" 
d="M-19 36l36 4q27 3 43.5 11.5t25.5 37.5l178 580q9 29 -2.5 37.5t-36.5 11.5l-34 4l11 36h618l-46 -271h-22l-70 207q-4 12 -9.5 15t-21.5 3h-214l-191 -623q-9 -29 2.5 -37.5t37.5 -9.5l69 -4l-12 -38h-373z" />
    <glyph glyph-name="uni0414" unicode="&#x414;" horiz-adv-x="798" 
d="M-73 -179h-22l77 225h85q49 69 94 153t82 168.5t66 163t47 138.5q9 29 3 38t-32 11l-44 4l11 36h617l-11 -36l-46 -4q-27 -2 -38.5 -11t-20.5 -38l-190 -623h104l-61 -225h-22l-59 167q-2 7 -6.5 9.5t-15.5 2.5h-427q-12 0 -17.5 -2.5t-12.5 -9.5zM648 712h-222
q-22 -72 -53 -158.5t-69.5 -175.5t-83.5 -175t-94 -157h319z" />
    <glyph glyph-name="uni0415" unicode="&#x415;" horiz-adv-x="774" 
d="M-19 36l36 4q27 3 43.5 11.5t25.5 37.5l178 580q9 29 -2.5 37.5t-36.5 11.5l-34 4l11 36h576l-46 -271h-22l-70 207q-4 12 -9.5 15t-21.5 3h-172l-90 -293h116q12 0 20 11l89 131h22l-103 -336h-22l-8 131q0 11 -14 11h-116l-98 -321h225q13 0 18.5 3t16.5 11l251 211h22
l-151 -271h-645z" />
    <glyph glyph-name="uni0401" unicode="&#x401;" horiz-adv-x="774" 
d="M-21 36l36 4q27 3 43.5 11.5t25.5 37.5l178 580q9 29 -2.5 37.5t-36.5 11.5l-34 4l11 36h576l-46 -271h-22l-70 207q-4 12 -9.5 15t-21.5 3h-172l-90 -293h116q12 0 20 11l89 131h22l-103 -336h-22l-8 131q0 11 -14 11h-116l-98 -321h225q13 0 18.5 3t16.5 11l251 211h22
l-151 -271h-645zM695 837q-30 0 -50 20.5t-20 50.5q0 31 20 51t50 20q29 0 49.5 -20t20.5 -51q0 -30 -20.5 -50.5t-49.5 -20.5zM469 837q-30 0 -50 20.5t-20 50.5q0 31 20 51t50 20q29 0 49.5 -20t20.5 -51q0 -30 -20.5 -50.5t-49.5 -20.5z" />
    <glyph glyph-name="uni0416" unicode="&#x416;" horiz-adv-x="1195" 
d="M-50 0l508 458l-138 225q-11 19 -28.5 26.5t-55.5 9.5l-50 3l11 36h288l-11 -36l-64 -4q-23 -2 -30 -10.5t-1 -19.5l191 -313l90 294q8 29 2.5 38t-31.5 11l-44 4l11 36h338l-11 -36l-46 -4q-27 -2 -39 -11t-20 -38l-90 -294l381 313q14 11 12.5 19.5t-23.5 10.5l-62 4
l11 36h288l-11 -36l-52 -3q-34 -2 -54 -10.5t-42 -25.5l-297 -244l219 -439h-191l-182 366l-85 -277q-9 -29 -3 -38t32 -11l44 -4l-11 -36h-338l11 36l46 4q27 2 38.5 11t20.5 38l85 278l-406 -367h-211z" />
    <glyph glyph-name="uni0417" unicode="&#x417;" horiz-adv-x="698" 
d="M283 33q49 0 86.5 19t63 48.5t38.5 66.5t13 73q0 28 -9.5 53t-28 44.5t-47 31t-66.5 11.5h-73l14 44h67q51 0 88.5 19.5t63 49.5t38 66t12.5 69q0 43 -20 73.5t-61 30.5q-18 0 -33 -3q-11 -2 -18 -6t-24 -20l-197 -186h-22l120 235q39 14 83.5 20.5t98.5 6.5
q123 0 181 -43.5t58 -111.5q0 -38 -18 -74t-54.5 -65.5t-91 -50t-127.5 -28.5l-1 -2q126 0 185 -42.5t59 -115.5q0 -60 -30 -107.5t-82 -81.5t-120.5 -52t-144.5 -18q-67 0 -123 8t-101 29l29 246h22l80 -196q8 -19 16.5 -25.5t19.5 -9.5q25 -6 56 -6z" />
    <glyph glyph-name="uni0418" unicode="&#x418;" horiz-adv-x="921" 
d="M-19 36l46 4q27 2 38.5 11t20.5 38l178 580q8 29 2.5 38t-31.5 11l-44 4l11 36h338l-11 -36l-46 -4q-27 -2 -38.5 -11t-20.5 -38l-140 -457l464 435l7 22q8 29 2.5 38t-31.5 11l-44 4l11 36h338l-11 -36l-46 -4q-27 -2 -39 -11t-20 -38l-178 -580q-9 -29 -3 -38t32 -11
l44 -4l-11 -36h-338l11 36l46 4q27 2 38.5 11t20.5 38l142 464l-464 -435l-9 -29q-9 -29 -3 -38t32 -11l44 -4l-11 -36h-338z" />
    <glyph glyph-name="uni0419" unicode="&#x419;" horiz-adv-x="921" 
d="M-19 36l46 4q27 2 38.5 11t20.5 38l178 580q8 29 2.5 38t-31.5 11l-44 4l11 36h338l-11 -36l-46 -4q-27 -2 -38.5 -11t-20.5 -38l-140 -457l464 435l7 22q8 29 2.5 38t-31.5 11l-44 4l11 36h338l-11 -36l-46 -4q-27 -2 -39 -11t-20 -38l-178 -580q-9 -29 -3 -38t32 -11
l44 -4l-11 -36h-338l11 36l46 4q27 2 38.5 11t20.5 38l142 464l-464 -435l-9 -29q-9 -29 -3 -38t32 -11l44 -4l-11 -36h-338zM626 827q-47 0 -77.5 13t-47 35.5t-19 51t7.5 60.5h113q-12 -40 -13.5 -65t4 -38.5t15.5 -18t20 -4.5q12 0 25.5 4.5t28 18t28.5 38.5t26 65h113
q-23 -81 -81 -120.5t-143 -39.5z" />
    <glyph glyph-name="uni041A" unicode="&#x41a;" horiz-adv-x="859" 
d="M-19 36l36 4q27 3 43.5 11.5t25.5 37.5l178 580q9 29 -2.5 37.5t-36.5 11.5l-34 4l11 36h338l-11 -36l-36 -4q-28 -3 -44 -11.5t-25 -37.5l-91 -295l433 314q14 11 13 19.5t-23 10.5l-72 4l11 36h306l-11 -36l-52 -3q-33 -2 -55 -10.5t-45 -25.5l-354 -256l321 -427h-195
l-279 366l-85 -277q-9 -29 2 -37.5t37 -11.5l34 -4l-11 -36h-338z" />
    <glyph glyph-name="uni041B" unicode="&#x41b;" horiz-adv-x="800" 
d="M148 83q-38 -51 -72.5 -73t-71.5 -22q-28 0 -40 13t-12 31q0 25 11.5 47.5t35 39.5t58 27.5t79.5 12.5q33 48 60.5 102t53 116.5t50 134.5t50.5 157q9 29 3 38t-32 11l-44 4l11 36h622l-11 -36l-46 -4q-27 -2 -38.5 -11t-20.5 -38l-177 -580q-9 -29 -3 -38t32 -11l44 -4
l-11 -36h-338l11 36l46 4q27 2 38.5 11t20.5 38l190 623h-227q-33 -110 -65.5 -202.5t-65.5 -170t-67.5 -141.5t-73.5 -115z" />
    <glyph glyph-name="uni041C" unicode="&#x41c;" horiz-adv-x="1043" 
d="M-19 36l36 4q27 3 43.5 11.5t25.5 37.5l178 580q9 29 -2.5 37.5t-36.5 11.5l-34 4l11 36h274l71 -416l319 416h287l-11 -36l-36 -4q-28 -3 -44 -11.5t-25 -37.5l-178 -580q-9 -29 2 -37.5t37 -11.5l34 -4l-11 -36h-338l11 36l36 4q27 3 43.5 11.5t25.5 37.5l186 609
l-452 -589h-6l-100 586l-185 -606q-9 -29 2 -37.5t37 -11.5l34 -4l-11 -36h-234z" />
    <glyph glyph-name="uni041D" unicode="&#x41d;" horiz-adv-x="911" 
d="M-19 36l36 4q27 3 43.5 11.5t25.5 37.5l178 580q9 29 -2.5 37.5t-36.5 11.5l-34 4l11 36h338l-11 -36l-36 -4q-28 -3 -44 -11.5t-25 -37.5l-74 -242h321l74 242q9 29 -2.5 37.5t-36.5 11.5l-34 4l11 36h338l-11 -36l-36 -4q-28 -3 -44 -11.5t-25 -37.5l-178 -580
q-9 -29 2 -37.5t37 -11.5l34 -4l-11 -36h-338l11 36l36 4q27 3 43.5 11.5t25.5 37.5l86 279h-321l-86 -279q-9 -29 2 -37.5t37 -11.5l34 -4l-11 -36h-338z" />
    <glyph glyph-name="uni041E" unicode="&#x41e;" horiz-adv-x="882" 
d="M370 -13q-64 0 -119.5 18t-97 53.5t-65.5 87.5t-24 120q0 56 17.5 115.5t50.5 116.5t80 108t106.5 89.5t129 61t148.5 22.5q64 0 119.5 -18t96.5 -53.5t65 -87.5t24 -120q0 -56 -17.5 -115.5t-50.5 -116.5t-80 -108t-106 -89.5t-129 -61t-148 -22.5zM400 29
q60 0 117 35.5t101.5 97.5t71 147.5t26.5 184.5q0 52 -7.5 96.5t-24.5 77t-46 51t-72 18.5q-60 0 -117 -35.5t-101.5 -97.5t-71 -147.5t-26.5 -184.5q0 -52 7.5 -96.5t24.5 -77t46 -51t72 -18.5z" />
    <glyph glyph-name="uni041F" unicode="&#x41f;" horiz-adv-x="901" 
d="M1011 758l-11 -36l-46 -4q-27 -2 -39 -11t-20 -38l-178 -580q-9 -29 -3 -38t32 -11l44 -4l-11 -36h-338l11 36l46 4q27 2 38.5 11t20.5 38l191 623h-311l-191 -623q-9 -29 -3 -38t32 -11l44 -4l-11 -36h-338l11 36l46 4q27 2 38.5 11t20.5 38l178 580q8 29 2.5 38
t-31.5 11l-44 4l11 36h809z" />
    <glyph glyph-name="uni0420" unicode="&#x420;" horiz-adv-x="740" 
d="M-19 36l36 4q27 3 43.5 11.5t25.5 37.5l178 580q9 29 -2.5 37.5t-36.5 11.5l-34 4l11 36h318q65 0 119.5 -7t94 -25t61.5 -48t22 -76q0 -53 -25.5 -100.5t-77 -83.5t-129 -57t-181.5 -21h-56l14 45h49q63 0 106.5 20.5t71 52.5t39.5 71.5t12 77.5q0 55 -31 81t-98 26h-74
l-191 -625q-9 -29 2.5 -37.5t37.5 -9.5l69 -4l-12 -38h-373z" />
    <glyph glyph-name="uni0421" unicode="&#x421;" horiz-adv-x="815" 
d="M435 -13q-73 0 -138.5 21.5t-114.5 62.5t-78 101t-29 137q0 99 45.5 184.5t120 149t170 100t194.5 36.5q73 0 140.5 -16.5t110.5 -45.5l-29 -235h-22l-62 177q-14 40 -40 57q-15 10 -37.5 13.5t-54.5 3.5q-70 0 -134 -33t-113.5 -93.5t-79 -145t-29.5 -186.5
q0 -54 10.5 -98.5t33.5 -76.5t59.5 -49.5t88.5 -17.5q25 0 45 2.5t40 12.5q9 5 19 12t20 18l199 203h22l-137 -263q-21 -5 -47.5 -10.5t-55 -10t-59 -7.5t-58.5 -3z" />
    <glyph glyph-name="uni0422" unicode="&#x422;" horiz-adv-x="786" 
d="M135 38l61 4q26 2 42.5 10t25.5 37l192 628h-100q-16 0 -23 -3t-19 -15l-200 -212h-22l105 271h704l-61 -271h-22l-56 212q-3 12 -9.5 15t-22.5 3h-114l-192 -628q-9 -29 2.5 -37.5t37.5 -9.5l59 -4l-12 -38h-388z" />
    <glyph glyph-name="uni0423" unicode="&#x423;" horiz-adv-x="784" 
d="M327 84q-43 -52 -78 -74t-73 -22q-29 0 -41 12.5t-12 34.5q0 27 14.5 48t40.5 35t61.5 21t77.5 7l36 43l-128 484q-7 25 -16 33.5t-34 11.5l-32 4l11 36h335l-11 -36l-44 -4q-27 -2 -40.5 -10.5t-7.5 -34.5l88 -335l276 335q22 25 13.5 34t-33.5 11l-42 4l11 36h242
l-11 -36l-34 -4q-18 -2 -29.5 -5t-20.5 -8t-16.5 -13t-17.5 -20z" />
    <glyph glyph-name="uni0424" unicode="&#x424;" horiz-adv-x="1010" 
d="M262 16l46 4q27 2 38.5 11t20.5 38l10 34q-72 6 -132 23t-102.5 44.5t-66 65t-23.5 84.5q0 73 37.5 132.5t104 103t157 70t196.5 34.5l9 29q9 29 3 38t-32 11l-44 4l11 36h338l-11 -36l-46 -4q-27 -2 -38.5 -11t-20.5 -38l-9 -29q73 -6 133.5 -23t103.5 -44.5t66.5 -65
t23.5 -84.5q0 -74 -38 -133.5t-104.5 -103t-158 -70t-197.5 -33.5l-10 -34q-9 -29 -3 -38t32 -11l44 -4l-11 -36h-338zM861 441q0 78 -41 119t-126 52l-142 -460q74 10 131.5 37.5t97 66.5t60 86.5t20.5 98.5zM227 322q0 -78 40.5 -119t124.5 -52l141 460
q-73 -10 -130 -37.5t-96 -66.5t-59.5 -86.5t-20.5 -98.5z" />
    <glyph glyph-name="uni0425" unicode="&#x425;" horiz-adv-x="846" 
d="M-93 36l34 4q28 3 53.5 13t53.5 32l354 283l-79 305q-5 23 -17 32.5t-36 12.5l-32 4l16 36h337l-16 -36l-44 -4q-28 -2 -39.5 -12t-5.5 -33l51 -198l248 198q29 23 31.5 33t-22.5 12l-42 4l16 36h257l-16 -36l-34 -4q-29 -3 -54 -13t-53 -32l-316 -252l87 -336
q6 -23 17 -32.5t36 -12.5l32 -4l-16 -36h-337l16 36l44 4q28 2 39 12t6 33l-59 228l-286 -228q-29 -23 -31.5 -33t22.5 -12l42 -4l-16 -36h-257z" />
    <glyph glyph-name="uni0426" unicode="&#x426;" horiz-adv-x="918" 
d="M-30 0l11 36l46 4q27 2 38.5 11t20.5 38l177 580q9 29 3 38t-32 11l-44 4l11 36h338l-11 -36l-46 -4q-27 -2 -38.5 -11t-20.5 -38l-190 -623h311l190 623q9 29 3 38t-32 11l-44 4l11 36h338l-11 -36l-46 -4q-27 -2 -38.5 -11t-20.5 -38l-190 -623h104l-61 -225h-22
l-59 167q-2 7 -6.5 9.5t-15.5 2.5h-674z" />
    <glyph glyph-name="uni0427" unicode="&#x427;" horiz-adv-x="891" 
d="M244 669q8 29 2.5 38t-31.5 11l-44 4l11 36h338l-11 -36l-46 -4q-27 -2 -39 -11t-20 -38l-33 -107q-18 -57 -17.5 -94.5t17 -59.5t49 -31t79.5 -9q35 0 68.5 4t70.5 14l87 283q8 29 2.5 38t-31.5 11l-44 4l11 36h338l-11 -36l-46 -4q-27 -2 -39 -11t-20 -38l-178 -580
q-9 -29 -3 -38t32 -11l44 -4l-11 -36h-338l11 36l46 4q27 2 38.5 11t20.5 38l73 238q-58 -12 -104 -15.5t-73 -3.5q-76 0 -129 15.5t-82 48t-33 83t17 121.5z" />
    <glyph glyph-name="uni0428" unicode="&#x428;" horiz-adv-x="1270" 
d="M-30 0l11 36l46 4q27 2 38.5 11t20.5 38l178 580q8 29 2.5 38t-31.5 11l-44 4l11 36h338l-11 -36l-46 -4q-27 -2 -39 -11t-20 -38l-191 -623h260l191 623q8 29 2.5 38t-31.5 11l-44 4l11 36h338l-11 -36l-46 -4q-27 -2 -39 -11t-20 -38l-191 -623h260l191 623
q8 29 2.5 38t-31.5 11l-44 4l11 36h338l-11 -36l-46 -4q-27 -2 -39 -11t-20 -38l-178 -580q-9 -29 -3 -38t32 -11l44 -4l-11 -36h-1178z" />
    <glyph glyph-name="uni0429" unicode="&#x429;" horiz-adv-x="1287" 
d="M-30 0l11 36l46 4q27 2 38.5 11t20.5 38l177 580q9 29 3 38t-32 11l-44 4l11 36h338l-11 -36l-46 -4q-27 -2 -38.5 -11t-20.5 -38l-190 -623h260l190 623q9 29 3 38t-32 11l-44 4l11 36h338l-11 -36l-46 -4q-27 -2 -38.5 -11t-20.5 -38l-190 -623h260l190 623q9 29 3 38
t-32 11l-44 4l11 36h338l-11 -36l-46 -4q-27 -2 -38.5 -11t-20.5 -38l-190 -623h104l-61 -225h-22l-59 167q-2 7 -6.5 9.5t-15.5 2.5h-1043z" />
    <glyph glyph-name="uni042A" unicode="&#x42a;" horiz-adv-x="863" 
d="M545 445q155 0 234 -44t79 -139q0 -65 -38 -114t-101 -82t-144 -49.5t-166 -16.5h-316l11 36l46 4q27 2 38.5 11t20.5 38l192 628h-52q-16 0 -23.5 -2.5t-18.5 -15.5l-193 -212h-22l105 271h486l-11 -36l-66 -4q-14 -1 -23 -3t-16 -7.5t-11.5 -14.5t-8.5 -24l-69 -224h67
zM391 46q137 0 213.5 53.5t76.5 162.5q0 74 -43 105.5t-127 31.5h-47l-108 -353h35z" />
    <glyph glyph-name="uni042B" unicode="&#x42b;" horiz-adv-x="1103" 
d="M422 445q155 0 234 -44t79 -139q0 -65 -38 -114t-101 -82t-144 -49.5t-166 -16.5h-316l11 36l46 4q27 2 38.5 11t20.5 38l178 580q8 29 2.5 38t-31.5 11l-44 4l11 36h358l-11 -36l-66 -4q-14 -1 -23 -3t-16 -7.5t-11.5 -14.5t-8.5 -24l-69 -224h67zM268 46
q137 0 213.5 53.5t76.5 162.5q0 74 -43 105.5t-127 31.5h-47l-108 -353h35zM674 36l36 4q27 3 43.5 11.5t25.5 37.5l178 580q9 29 -2.5 37.5t-36.5 11.5l-34 4l11 36h338l-11 -36l-36 -4q-28 -3 -44 -11.5t-25 -37.5l-178 -580q-9 -29 2 -37.5t37 -11.5l34 -4l-11 -36h-338z
" />
    <glyph glyph-name="uni042C" unicode="&#x42c;" horiz-adv-x="740" 
d="M422 445q155 0 234 -44t79 -139q0 -65 -38 -114t-101 -82t-144 -49.5t-166 -16.5h-316l11 36l46 4q27 2 38.5 11t20.5 38l178 580q8 29 2.5 38t-31.5 11l-44 4l11 36h358l-11 -36l-66 -4q-14 -1 -23 -3t-16 -7.5t-11.5 -14.5t-8.5 -24l-69 -224h67zM268 46
q137 0 213.5 53.5t76.5 162.5q0 74 -43 105.5t-127 31.5h-47l-108 -353h35z" />
    <glyph glyph-name="uni042D" unicode="&#x42d;" horiz-adv-x="807" 
d="M526 779q63 0 118 -18t95.5 -53.5t63.5 -87.5t23 -120q0 -56 -17 -115.5t-49.5 -116.5t-78.5 -108t-104 -89.5t-126.5 -61t-145.5 -22.5q-33 0 -68 2.5t-67.5 7t-61 11t-48.5 14.5l27 262h22l73 -192q9 -25 21 -35t23 -15q9 -4 28 -6.5t41 -2.5q60 0 114 24.5t97.5 68.5
t75 105.5t46.5 135.5h-182q-12 0 -20 -11l-88 -131h-22l102 336h22l8 -131q0 -11 14 -11h175q2 18 3 36.5t1 38.5q0 51 -5.5 94.5t-19.5 76t-37.5 50.5t-59.5 18q-17 0 -37 -2.5t-32 -6.5q-14 -5 -31.5 -15t-42.5 -35l-191 -192h-22l126 262q50 16 114.5 25.5t122.5 9.5z
" />
    <glyph glyph-name="uni042E" unicode="&#x42e;" horiz-adv-x="1232" 
d="M-19 36l36 4q27 3 43.5 11.5t25.5 37.5l178 580q9 29 -2.5 37.5t-36.5 11.5l-34 4l11 36h338l-11 -36l-36 -4q-28 -3 -44 -11.5t-25 -37.5l-74 -242h117q27 68 73 131.5t109 112.5t140.5 78.5t166.5 29.5q61 0 115 -18t94 -53.5t63 -87.5t23 -120q0 -56 -17 -115.5
t-49.5 -116.5t-78.5 -108t-104 -89.5t-126.5 -61t-145.5 -22.5q-62 0 -115.5 18t-94 53.5t-63.5 87.5t-23 120q0 48 14 102h-116l-86 -279q-9 -29 2 -37.5t37 -11.5l34 -4l-11 -36h-338zM760 29q58 0 113.5 35.5t98 97.5t68.5 147.5t26 184.5q0 52 -7 96.5t-23 77t-43 51
t-67 18.5q-59 0 -114 -35.5t-97.5 -97.5t-68.5 -147.5t-26 -184.5q0 -52 7 -96.5t23 -77t43 -51t67 -18.5z" />
    <glyph glyph-name="uni042F" unicode="&#x42f;" horiz-adv-x="837" 
d="M-61 0l416 354q-81 14 -125 52.5t-44 96.5q0 60 30.5 107.5t84.5 80t128.5 50t162.5 17.5h355l-11 -36l-46 -4q-27 -2 -39 -11t-20 -38l-178 -580q-9 -29 -3 -38t32 -11l44 -4l-11 -36h-338l11 36l46 4q27 2 38.5 11t20.5 38l76 247h-40l-395 -336h-195zM684 714h-54
q-58 0 -107 -12.5t-85 -38.5t-56 -65.5t-20 -93.5q0 -61 43 -92.5t124 -31.5h53z" />
    <glyph glyph-name="uni0402" unicode="&#x402;" horiz-adv-x="902" 
d="M104 38l71 4q27 1 38 9.5t20 37.5l192 628h-111q-13 0 -18 -2.5t-16 -13.5l-159 -169h-22l87 226h694l-51 -226h-22l-54 169q-4 11 -7.5 13.5t-15.5 2.5h-145l-97 -317q46 27 104.5 42t124.5 15q48 0 84.5 -15t59 -44.5t29.5 -73.5t-6 -101l-2 -9q-9 -42 -26.5 -71
t-41.5 -51.5t-53.5 -41t-62.5 -39.5q-16 -11 -40.5 -25t-51.5 -30t-55 -32t-52 -29l-14 30q56 37 93 63t62 51.5t40.5 57t29.5 79.5l8 29q24 88 0.5 136t-105.5 48q-78 0 -138 -31l-82 -269q-9 -29 -2.5 -37.5t32.5 -9.5l69 -4l-12 -38h-388z" />
    <glyph glyph-name="uni0403" unicode="&#x403;" horiz-adv-x="723" 
d="M-19 36l36 4q27 3 43.5 11.5t25.5 37.5l178 580q9 29 -2.5 37.5t-36.5 11.5l-34 4l11 36h618l-46 -271h-22l-70 207q-4 12 -9.5 15t-21.5 3h-214l-191 -623q-9 -29 2.5 -37.5t37.5 -9.5l69 -4l-12 -38h-373zM652 972h181l-1 -3l-270 -126h-32z" />
    <glyph glyph-name="uni0404" unicode="&#x404;" horiz-adv-x="815" 
d="M435 -13q-73 0 -138.5 21.5t-114.5 62.5t-78 101t-29 137q0 99 45.5 184.5t120 149t170 100t194.5 36.5q73 0 140.5 -16.5t110.5 -45.5l-29 -235h-22l-62 177q-14 40 -40 57q-15 10 -37.5 13.5t-54.5 3.5q-57 0 -110.5 -22t-98.5 -63t-78.5 -99t-51.5 -130h240
q7 0 11.5 2t9.5 9l88 131h22l-103 -336h-22l-8 131q-1 11 -14 11h-235q-6 -45 -6 -92q0 -54 10.5 -98.5t33.5 -76.5t59.5 -49.5t88.5 -17.5q25 0 45 2.5t40 12.5q9 5 19 12t20 18l199 203h22l-137 -263q-21 -5 -47.5 -10.5t-55 -10t-59 -7.5t-58.5 -3z" />
    <glyph glyph-name="uni0405" unicode="&#x405;" horiz-adv-x="626" 
d="M217 -13q-25 0 -53.5 3t-57 9t-56.5 15.5t-52 23.5l60 241h22l31 -179q3 -18 7 -28.5t14 -18.5q11 -10 36.5 -15.5t59.5 -5.5q37 0 71.5 8.5t61.5 24.5t43 40t16 54q0 35 -23 74.5t-77 95.5l-52 54q-31 32 -53 73t-22 90q0 45 24 87.5t66 74.5t99.5 51.5t124.5 19.5
q46 0 92.5 -10.5t81.5 -33.5l-41 -225h-22l-52 163q-5 17 -9.5 27.5t-11.5 17.5q-8 8 -23.5 11.5t-29.5 3.5q-35 0 -64.5 -8t-52 -22.5t-35 -35.5t-12.5 -46q0 -32 18.5 -63t48.5 -63l55 -57q31 -33 52 -59t33 -49t17 -44.5t5 -45.5q0 -57 -28 -103.5t-74.5 -79.5
t-108.5 -51.5t-129 -18.5z" />
    <glyph glyph-name="uni0406" unicode="&#x406;" horiz-adv-x="430" 
d="M-19 36l36 4q27 3 43.5 11.5t25.5 37.5l178 580q9 29 -2.5 37.5t-36.5 11.5l-34 4l11 36h338l-11 -36l-36 -4q-28 -3 -44 -11.5t-25 -37.5l-178 -580q-9 -29 2 -37.5t37 -11.5l34 -4l-11 -36h-338z" />
    <glyph glyph-name="uni0407" unicode="&#x407;" horiz-adv-x="430" 
d="M-21 36l36 4q27 3 43.5 11.5t25.5 37.5l178 580q9 29 -2.5 37.5t-36.5 11.5l-34 4l11 36h338l-11 -36l-36 -4q-28 -3 -44 -11.5t-25 -37.5l-178 -580q-9 -29 2 -37.5t37 -11.5l34 -4l-11 -36h-338zM536 837q-30 0 -50 20.5t-20 50.5q0 31 20 51t50 20q29 0 49.5 -20
t20.5 -51q0 -30 -20.5 -50.5t-49.5 -20.5zM310 837q-30 0 -50 20.5t-20 50.5q0 31 20 51t50 20q29 0 49.5 -20t20.5 -51q0 -30 -20.5 -50.5t-49.5 -20.5z" />
    <glyph glyph-name="uni0408" unicode="&#x408;" horiz-adv-x="428" 
d="M-105 -68q59 36 96.5 60.5t61.5 49.5t39 55.5t30 78.5l152 497q8 28 -2.5 34t-36.5 8l-43 2l13 41h350l-13 -41l-43 -2q-27 -2 -42 -8t-23 -34l-141 -459q-12 -41 -25.5 -70t-31.5 -52t-43.5 -42.5t-61.5 -40.5q-17 -10 -44 -23.5l-58 -29t-61.5 -30.5t-54.5 -28z" />
    <glyph glyph-name="uni0409" unicode="&#x409;" horiz-adv-x="1110" 
d="M148 83q-38 -51 -72.5 -73t-71.5 -22q-28 0 -40 13t-12 31q0 25 10.5 47.5t33 39.5t57.5 27.5t83 12.5q33 48 60.5 102t53 116.5t50 134.5t50.5 157q9 29 3 38t-32 11l-44 4l11 36h642l-11 -36l-66 -4q-14 -1 -23 -3t-16 -7.5t-11.5 -14.5t-8.5 -24l-69 -224h67
q155 0 234 -44t79 -139q0 -65 -38 -114t-101 -82t-144 -49.5t-166 -16.5h-316l11 36l46 4q27 2 38.5 11t20.5 38l191 623h-227q-33 -110 -65.5 -202.5t-65.5 -170t-67.5 -141.5t-73.5 -115zM638 46q137 0 213.5 53.5t76.5 162.5q0 74 -43 105.5t-127 31.5h-47l-108 -353h35z
" />
    <glyph glyph-name="uni040A" unicode="&#x40a;" horiz-adv-x="1201" 
d="M-19 36l46 4q27 2 38.5 11t20.5 38l178 580q8 29 2.5 38t-31.5 11l-44 4l11 36h338l-11 -36l-46 -4q-27 -2 -39 -11t-20 -38l-72 -233h300l72 233q8 29 2.5 38t-31.5 11l-44 4l11 36h358l-11 -36l-66 -4q-14 -1 -23 -3t-15.5 -7.5t-11.5 -14.5t-9 -24l-72 -232h67
q156 0 236 -43t80 -137q0 -64 -38 -112t-101 -80.5t-144 -48.5t-166 -16h-316l11 36l46 4q27 2 38.5 11t20.5 38l88 288h-300l-88 -288q-9 -29 -3 -38t32 -11l44 -4l-11 -36h-338zM728 46q137 0 213.5 52.5t76.5 158.5q0 72 -44 103t-129 31h-47l-105 -345h35z" />
    <glyph glyph-name="uni040B" unicode="&#x40b;" horiz-adv-x="1011" 
d="M104 38l71 4q26 1 37.5 9.5t20.5 37.5l192 628h-111q-13 0 -18 -2.5t-16 -13.5l-159 -169h-22l87 226h694l-51 -226h-22l-54 169q-4 11 -7.5 13.5t-15.5 2.5h-145l-97 -316q45 26 100.5 41t116.5 15q53 0 93 -14t62.5 -45t25.5 -80t-19 -119l-34 -110q-9 -29 -3 -38
t32 -11l44 -4l-11 -36h-249l63 205q27 89 3 136.5t-104 47.5q-38 0 -71 -8t-61 -22l-83 -270q-9 -29 -2.5 -37t32.5 -10l69 -4l-12 -38h-388z" />
    <glyph glyph-name="uni040C" unicode="&#x40c;" horiz-adv-x="859" 
d="M-19 36l36 4q27 3 43.5 11.5t25.5 37.5l178 580q9 29 -2.5 37.5t-36.5 11.5l-34 4l11 36h338l-11 -36l-36 -4q-28 -3 -44 -11.5t-25 -37.5l-91 -295l433 314q14 11 13 19.5t-23 10.5l-72 4l11 36h306l-11 -36l-52 -3q-33 -2 -55 -10.5t-45 -25.5l-354 -256l321 -427h-195
l-279 366l-85 -277q-9 -29 2 -37.5t37 -11.5l34 -4l-11 -36h-338zM704 972h181l-1 -3l-270 -126h-32z" />
    <glyph glyph-name="uni040E" unicode="&#x40e;" horiz-adv-x="784" 
d="M327 84q-43 -52 -78 -74t-73 -22q-29 0 -41 12.5t-12 34.5q0 27 14.5 48t40.5 35t61.5 21t77.5 7l36 43l-128 484q-7 25 -16 33.5t-34 11.5l-32 4l11 36h335l-11 -36l-44 -4q-27 -2 -40.5 -10.5t-7.5 -34.5l88 -335l276 335q22 25 13.5 34t-33.5 11l-42 4l11 36h242
l-11 -36l-34 -4q-18 -2 -29.5 -5t-20.5 -8t-16.5 -13t-17.5 -20zM597 827q-47 0 -77.5 13t-47 35.5t-19 51t7.5 60.5h113q-12 -40 -13.5 -65t4 -38.5t15.5 -18t20 -4.5q12 0 25.5 4.5t28 18t28.5 38.5t26 65h113q-23 -81 -81 -120.5t-143 -39.5z" />
    <glyph glyph-name="uni040F" unicode="&#x40f;" horiz-adv-x="900" 
d="M295 -12q-1 8 -6 10t-16 2h-303l11 36l46 4q27 2 38.5 11t20.5 38l177 580q9 29 3 38t-32 11l-44 4l11 36h338l-11 -36l-46 -4q-27 -2 -38.5 -11t-20.5 -38l-190 -623h311l190 623q9 29 3 38t-32 11l-44 4l11 36h338l-11 -36l-46 -4q-27 -2 -38.5 -11t-20.5 -38
l-177 -580q-9 -29 -3 -38t32 -11l44 -4l-11 -36h-302q-11 0 -17.5 -2t-12.5 -10l-116 -167h-22z" />
    <glyph glyph-name="uni0490" unicode="&#x490;" horiz-adv-x="660" 
d="M437 712l-191 -623q-9 -29 -2.5 -37t32.5 -10l79 -4l-12 -38h-373l11 36l46 4q27 2 38.5 11t20.5 38l178 580q8 29 2.5 38t-31.5 11l-44 4l11 36h446q11 0 17 2.5t12 9.5l161 167h22l-76 -225h-347z" />
    <glyph glyph-name="uni0462" unicode="&#x462;" horiz-adv-x="825" 
d="M517 363q150 0 226.5 -37t76.5 -116q0 -45 -30 -83t-85 -66.5t-131 -44.5t-168 -16h-336l11 36l46 4q27 2 38.5 11t20.5 38l153 498h-67q-16 0 -22.5 -3t-20.5 -15l-177 -162h-22l89 221h232l13 41q9 29 3 38t-32 11l-44 4l11 36h338l-11 -36l-46 -4q-27 -2 -38.5 -11
t-20.5 -38l-13 -41h232l-45 -221h-22l-79 162q-6 12 -10.5 15t-20.5 3h-67l-69 -224h87zM388 46q121 0 187 44t66 116q0 61 -40 86t-118 25h-67l-83 -271h55z" />
    <glyph glyph-name="uni0472" unicode="&#x472;" horiz-adv-x="882" 
d="M370 -13q-64 0 -119.5 18t-97 53.5t-65.5 87.5t-24 120q0 56 17.5 115.5t50.5 116.5t80 108t106.5 89.5t129 61t148.5 22.5q64 0 119.5 -18t96.5 -53.5t65 -87.5t24 -120q0 -56 -17.5 -115.5t-50.5 -116.5t-80 -108t-106 -89.5t-129 -61t-148 -22.5zM262 397
q74 28 128 37t94 7t70 -12t55 -20t48 -16.5t51 -2.5q4 25 6 51t2 53q0 52 -7.5 96.5t-24.5 77t-46 51t-72 18.5q-51 0 -99 -25t-89 -70t-71 -107.5t-45 -137.5zM400 29q49 0 95.5 23.5t86.5 66t70.5 101.5t47.5 131q-66 -23 -113 -27.5t-82 1t-62.5 16.5t-54.5 19.5
t-58.5 10.5t-73.5 -11q-6 -42 -6 -88q0 -52 7.5 -96.5t24.5 -77t46 -51t72 -18.5z" />
    <glyph glyph-name="uni0474" unicode="&#x474;" horiz-adv-x="895" 
d="M102 -30l145 699q6 29 -3.5 37.5t-35.5 11.5l-34 4l11 36h338l-11 -36l-36 -4q-27 -3 -44.5 -11.5t-24.5 -37.5l-103 -466l515 470q56 51 93 78.5t75 27.5q29 0 44 -13t15 -32q0 -22 -11.5 -43t-36.5 -37t-64.5 -25.5t-94.5 -7.5l-717 -651h-20z" />
    <glyph glyph-name="uni0492" unicode="&#x492;" horiz-adv-x="723" 
d="M-19 36l36 4q27 3 43.5 11.5t25.5 37.5l178 580q9 29 -2.5 37.5t-36.5 11.5l-34 4l11 36h618l-46 -271h-22l-70 207q-4 12 -9.5 15t-21.5 3h-214l-191 -623q-9 -29 2.5 -37.5t37.5 -9.5l69 -4l-12 -38h-373zM91 414h393l-18 -59h-393z" />
    <glyph glyph-name="uni0496" unicode="&#x496;" horiz-adv-x="1232" 
d="M-50 0l508 458l-138 225q-11 19 -28.5 26.5t-55.5 9.5l-50 3l11 36h288l-11 -36l-64 -4q-23 -2 -30 -10.5t-1 -19.5l191 -313l90 294q8 29 2.5 38t-31.5 11l-44 4l11 36h338l-11 -36l-46 -4q-27 -2 -39 -11t-20 -38l-90 -294l381 313q14 11 12.5 19.5t-23.5 10.5l-62 4
l11 36h288l-11 -36l-52 -3q-34 -2 -54 -10.5t-42 -25.5l-297 -244l196 -393h106l-61 -225h-22l-59 167q-2 6 -5 8.5t-11 3.5h-116l-182 366l-85 -277q-9 -29 -3 -38t32 -11l44 -4l-11 -36h-338l11 36l46 4q27 2 38.5 11t20.5 38l85 278l-406 -367h-211z" />
    <glyph glyph-name="uni049A" unicode="&#x49a;" horiz-adv-x="911" 
d="M-19 36l36 4q27 3 43.5 11.5t25.5 37.5l178 580q9 29 -2.5 37.5t-36.5 11.5l-34 4l11 36h338l-11 -36l-36 -4q-28 -3 -44 -11.5t-25 -37.5l-91 -295l433 314q14 11 13 19.5t-23 10.5l-72 4l11 36h306l-11 -36l-52 -3q-33 -2 -55 -10.5t-45 -25.5l-354 -256l286 -381h91
l-61 -225h-22l-59 167q-2 7 -6.5 9.5t-15.5 2.5h-87l-279 366l-85 -277q-9 -29 2 -37.5t37 -11.5l34 -4l-11 -36h-338z" />
    <glyph glyph-name="uni04A2" unicode="&#x4a2;" horiz-adv-x="928" 
d="M818 46l-61 -225h-22l-59 167q-2 7 -6.5 9.5t-15.5 2.5h-203l11 36l46 4q27 2 38.5 11t20.5 38l85 279h-321l-85 -279q-9 -29 -3 -38t32 -11l44 -4l-11 -36h-338l11 36l46 4q27 2 38.5 11t20.5 38l177 580q9 29 3 38t-32 11l-44 4l11 36h338l-11 -36l-46 -4
q-27 -2 -38.5 -11t-20.5 -38l-74 -242h321l74 242q9 29 3 38t-32 11l-44 4l11 36h338l-11 -36l-46 -4q-27 -2 -38.5 -11t-20.5 -38l-190 -623h104z" />
    <glyph glyph-name="uni04AE" unicode="&#x4ae;" horiz-adv-x="784" 
d="M134 38l61 4q26 2 42.5 10t25.5 37l78 253l-119 331q-9 25 -17 33.5t-33 11.5l-32 4l11 36h339l-11 -36l-44 -4q-27 -2 -41.5 -11.5t-6.5 -33.5l94 -272l265 272q24 25 21.5 34t-28.5 11l-62 4l11 36h270l-11 -36l-34 -4q-28 -3 -47.5 -11.5t-43.5 -33.5l-322 -332
l-77 -252q-9 -29 2.5 -37.5t37.5 -9.5l59 -4l-12 -38h-388z" />
    <glyph glyph-name="uni04B0" unicode="&#x4b0;" horiz-adv-x="784" 
d="M134 38l61 4q26 2 42.5 10t25.5 37l78 253l-119 331q-9 25 -17 33.5t-33 11.5l-32 4l11 36h339l-11 -36l-44 -4q-27 -2 -41.5 -11.5t-6.5 -33.5l94 -272l265 272q24 25 21.5 34t-28.5 11l-62 4l11 36h270l-11 -36l-34 -4q-28 -3 -47.5 -11.5t-43.5 -33.5l-322 -332
l-77 -252q-9 -29 2.5 -37.5t37.5 -9.5l59 -4l-12 -38h-388zM195 343h455l-18 -59h-455z" />
    <glyph glyph-name="uni04B2" unicode="&#x4b2;" horiz-adv-x="843" 
d="M-93 36l34 4q28 3 53.5 13t53.5 32l354 283l-79 305q-5 23 -17 32.5t-36 12.5l-32 4l16 36h337l-16 -36l-44 -4q-28 -2 -39.5 -12t-5.5 -33l51 -197l248 197q29 23 31.5 33t-22.5 12l-42 4l16 36h257l-16 -36l-34 -4q-29 -3 -54 -13t-53 -32l-316 -252l97 -375h110
l-61 -225h-22l-59 167q-2 7 -6.5 9.5t-15.5 2.5h-224l16 36l44 4q28 2 39 12t6 33l-59 228l-286 -228q-29 -23 -31.5 -33t22.5 -12l42 -4l-16 -36h-257z" />
    <glyph glyph-name="uni04B6" unicode="&#x4b6;" horiz-adv-x="909" 
d="M442 36l46 4q27 2 38.5 11t20.5 38l73 238q-58 -12 -104 -15.5t-73 -3.5q-76 0 -129 15.5t-82 48t-33 83t17 121.5l28 93q8 29 2.5 38t-31.5 11l-44 4l11 36h338l-11 -36l-46 -4q-27 -2 -39 -11t-20 -38l-33 -107q-18 -57 -17.5 -94.5t17 -59.5t49 -31t79.5 -9
q35 0 68.5 4t70.5 14l87 283q8 29 2.5 38t-31.5 11l-44 4l11 36h338l-11 -36l-46 -4q-27 -2 -38.5 -11t-20.5 -38l-191 -623h104l-61 -225h-22l-59 167q-2 7 -6.5 9.5t-15.5 2.5h-203z" />
    <glyph glyph-name="uni04BA" unicode="&#x4ba;" horiz-adv-x="890" 
d="M726.956 88.9941q-8 -28.998 -2.5 -37.9971q5.49902 -9 31.498 -10.999l43.9971 -4l-10.999 -35.998h-337.979l10.999 35.998l45.9971 4q26.999 1.99902 38.998 10.999q11.999 8.99902 19.999 37.9971l32.9971 106.994q17.999 56.9961 17.499 94.4941t-16.999 59.4961
q-16.498 21.999 -48.9961 30.998q-32.498 9 -79.4961 9q-34.9971 0 -68.4951 -4t-70.4961 -13.999l-86.9941 -282.983q-8 -28.998 -2.5 -37.9971q5.49902 -9 31.498 -10.999l43.9971 -4l-10.999 -35.998h-337.979l10.999 35.998l45.9971 4q26.999 1.99902 38.998 10.999
q11.999 8.99902 19.999 37.9971l177.989 579.965q8.99902 28.998 2.99902 37.998q-5.99902 8.99902 -31.998 10.999l-43.9971 4l10.999 35.998h337.979l-10.999 -35.998l-45.9971 -4q-26.998 -2 -38.498 -10.999q-11.499 -9 -20.498 -37.998l-72.9961 -237.985
q57.9961 11.999 103.994 15.499q45.9971 3.5 72.9951 3.5q75.9951 0 128.992 -15.499t81.9951 -47.9971t32.998 -82.9951t-16.999 -121.492z" />
    <glyph glyph-name="uni04C0" unicode="&#x4c0;" horiz-adv-x="430" 
d="M-19 36l36 4q27 3 43.5 11.5t25.5 37.5l178 580q9 29 -2.5 37.5t-36.5 11.5l-34 4l11 36h338l-11 -36l-36 -4q-28 -3 -44 -11.5t-25 -37.5l-178 -580q-9 -29 2 -37.5t37 -11.5l34 -4l-11 -36h-338z" />
    <glyph glyph-name="uni04D8" unicode="&#x4d8;" horiz-adv-x="808" 
d="M367 -12q-81 0 -139.5 24.5t-93.5 67t-47.5 100.5t-1.5 126h570q5 26 8 52t3 55q0 68 -18.5 117.5t-52 82t-79.5 48.5t-100 16q-103 0 -174.5 -61t-112.5 -167h-34q22 88 64 150.5t96 102.5t115.5 59t123.5 19q73 0 133.5 -21.5t104.5 -61t68.5 -96.5t24.5 -129
q0 -59 -15.5 -118t-44.5 -112.5t-70 -100t-91.5 -80.5t-110.5 -53.5t-126 -19.5zM385 30q39 0 76.5 15t70.5 43t60 67.5t45 87.5h-394q-16 -106 17.5 -159.5t124.5 -53.5z" />
    <glyph glyph-name="uni04E2" unicode="&#x4e2;" horiz-adv-x="921" 
d="M-19 36l46 4q27 2 38.5 11t20.5 38l178 580q8 29 2.5 38t-31.5 11l-44 4l11 36h338l-11 -36l-46 -4q-27 -2 -38.5 -11t-20.5 -38l-140 -457l464 435l7 22q8 29 2.5 38t-31.5 11l-44 4l11 36h338l-11 -36l-46 -4q-27 -2 -39 -11t-20 -38l-178 -580q-9 -29 -3 -38t32 -11
l44 -4l-11 -36h-338l11 36l46 4q27 2 38.5 11t20.5 38l142 464l-464 -435l-9 -29q-9 -29 -3 -38t32 -11l44 -4l-11 -36h-338zM509 940h285l-23 -68h-285z" />
    <glyph glyph-name="uni04E8" unicode="&#x4e8;" horiz-adv-x="882" 
d="M370 -13q-64 0 -119.5 18t-97 53.5t-65.5 87.5t-24 120q0 56 17.5 115.5t50.5 116.5t80 108t106.5 89.5t129 61t148.5 22.5q64 0 119.5 -18t96.5 -53.5t65 -87.5t24 -120q0 -56 -17.5 -115.5t-50.5 -116.5t-80 -108t-106 -89.5t-129 -61t-148 -22.5zM400 29q49 0 96.5 24
t88 67.5t71 104.5t46.5 134h-446q-6 -42 -6 -87q0 -52 7.5 -96.5t24.5 -77t46 -51t72 -18.5zM566 737q-49 0 -95.5 -23.5t-86.5 -65.5t-71 -100.5t-47 -129.5h445q2 18 3.5 37t1.5 39q0 52 -7.5 96.5t-24.5 77t-46 51t-72 18.5z" />
    <glyph glyph-name="uni04EE" unicode="&#x4ee;" horiz-adv-x="784" 
d="M327 84q-43 -52 -78 -74t-73 -22q-29 0 -41 12.5t-12 34.5q0 27 14.5 48t40.5 35t61.5 21t77.5 7l36 43l-128 484q-7 25 -16 33.5t-34 11.5l-32 4l11 36h335l-11 -36l-44 -4q-27 -2 -40.5 -10.5t-7.5 -34.5l88 -335l276 335q22 25 13.5 34t-33.5 11l-42 4l11 36h242
l-11 -36l-34 -4q-18 -2 -29.5 -5t-20.5 -8t-16.5 -13t-17.5 -20zM469 940h285l-23 -68h-285z" />
    <glyph glyph-name="uni0430" unicode="&#x430;" horiz-adv-x="586" 
d="M91 -13q-44 0 -67 30.5t-23 75.5t16 94t43 96.5t63 90.5t75 75.5t79 52t76 19.5q26 0 41.5 -15t18.5 -32h1l17 46h140l-149 -405q-15 -40 -16 -56t15 -16q9 0 24.5 8t34 25t38.5 45t40 67l29 -12q-21 -43 -46 -78t-55.5 -59.5t-68 -38t-82.5 -13.5q-32 0 -47.5 9.5
t-19.5 26t1.5 39.5t16.5 50l25 65h-2q-30 -50 -55 -86t-49.5 -59t-52 -34t-61.5 -11zM181 65q14 0 38 25.5t49.5 64.5t49.5 84.5t39 84.5q34 91 30.5 128.5t-33.5 37.5q-24 0 -47.5 -19.5t-45 -51t-40 -72t-32 -82.5t-21 -82t-7.5 -71q0 -47 20 -47z" />
    <glyph glyph-name="uni0431" unicode="&#x431;" horiz-adv-x="533" 
d="M521 377q0 -71 -28.5 -140.5t-76.5 -125t-110.5 -90t-130.5 -34.5q-71 0 -110.5 39.5t-39.5 108.5q0 97 35 198t103 189t166.5 154.5t226.5 94.5q39 8 67.5 18.5t47.5 39.5h32q-17 -41 -34.5 -75.5t-41.5 -59t-57.5 -38.5t-82.5 -14q-32 0 -53.5 2.5t-37 4t-27 1
t-23.5 -6.5q-18 -9 -34 -29.5t-30.5 -49.5t-27.5 -65t-23 -76q12 17 28.5 34t36.5 30.5t43.5 22t49.5 8.5q32 0 57 -11.5t41.5 -30.5t25 -45t8.5 -54zM224 29q27 0 51 31t42.5 80.5t29 112t10.5 126.5q0 39 -9.5 56.5t-25.5 17.5q-40 0 -101 -73q-15 -68 -23.5 -136.5
t-8.5 -126.5q0 -88 35 -88z" />
    <glyph glyph-name="uni0432" unicode="&#x432;" horiz-adv-x="524" 
d="M463 173q0 -34 -21.5 -67t-56.5 -59.5t-81.5 -43t-95.5 -16.5q-91 0 -141.5 37.5t-50.5 106.5q0 76 36 147t92.5 125.5t125 87t133.5 32.5q66 0 97 -21t31 -56q0 -54 -59.5 -98.5t-174.5 -69.5q87 3 126.5 -25.5t39.5 -79.5zM343 481q-29 0 -52 -18t-41.5 -47t-32.5 -67
t-23 -78q16 4 29.5 8t26.5 9q65 25 95 64t30 83q0 21 -8 33.5t-24 12.5zM175 113q0 -43 11.5 -67.5t37.5 -24.5q18 0 33.5 11t27 30t17.5 44t6 54q0 41 -12.5 65t-52.5 24q-14 0 -28 -3.5t-28 -8.5q-12 -69 -12 -124z" />
    <glyph glyph-name="uni0433" unicode="&#x433;" horiz-adv-x="504" 
d="M203 -13q-90 0 -136.5 34t-46.5 97t47.5 107t147.5 71l33 9q66 18 100 44t34 72q0 35 -18 49.5t-41 14.5q-19 0 -34 -8q-14 -7 -33 -23l-130 -113h-22l77 160q41 11 73 15.5t71 4.5q37 0 68 -8.5t53.5 -26t35 -42.5t12.5 -58q0 -38 -14 -65.5t-40 -48.5t-64.5 -36.5
t-86.5 -29.5l-42 -12q-48 -14 -77 -41t-29 -69q0 -32 21.5 -45.5t44.5 -13.5q14 0 25 2.5t21 7.5t19 12.5t20 17.5l134 124h22l-91 -178q-35 -10 -75 -17t-79 -7z" />
    <glyph glyph-name="uni0434" unicode="&#x434;" horiz-adv-x="527" 
d="M156 -13q-63 0 -101.5 35.5t-38.5 111.5q0 67 28.5 135.5t75 124.5t106.5 91.5t123 35.5q16 0 30 -3q0 54 -7 99t-20.5 77t-34.5 50t-51 18q-40 0 -76 -32l-15 20q31 31 63.5 44.5t80.5 13.5q50 0 90 -21.5t68 -59t43 -89.5t15 -113q0 -128 -33 -228t-86.5 -169
t-121.5 -105t-138 -36zM175 111q0 -33 7 -58t27 -25q26 0 55 28t53.5 83t41 137.5t19.5 191.5q-6 8 -16.5 13.5t-24.5 5.5q-35 0 -64.5 -36t-51.5 -91.5t-34 -122t-12 -126.5z" />
    <glyph glyph-name="uni0435" unicode="&#x435;" horiz-adv-x="481" 
d="M172 -13q-72 0 -114.5 39t-42.5 112t34.5 142t87 122.5t114.5 86t118 32.5q60 0 89.5 -29t29.5 -70q0 -28 -13.5 -57t-37.5 -53l-236 -2q-11 -32 -17.5 -66.5t-6.5 -71.5q0 -63 18.5 -89.5t53.5 -26.5q78 0 151 143l30 -10q-48 -102 -109 -152t-149 -50zM374 490
q-22 0 -44.5 -11.5t-44.5 -32t-41 -49.5t-34 -63h25q40 0 72.5 12.5t55.5 31t35.5 39.5t12.5 39q0 34 -37 34z" />
    <glyph glyph-name="uni0451" unicode="&#x451;" horiz-adv-x="481" 
d="M170 -13q-72 0 -114.5 39t-42.5 112t34.5 142t87 122.5t114.5 86t118 32.5q60 0 89.5 -29t29.5 -70q0 -28 -13.5 -57t-37.5 -53l-236 -2q-11 -32 -17.5 -66.5t-6.5 -71.5q0 -63 18.5 -89.5t53.5 -26.5q78 0 151 143l30 -10q-48 -102 -109 -152t-149 -50zM372 490
q-22 0 -44.5 -11.5t-44.5 -32t-41 -49.5t-34 -63h25q40 0 72.5 12.5t55.5 31t35.5 39.5t12.5 39q0 34 -37 34zM323 636q-29 0 -48.5 20t-19.5 49q0 30 19.5 49.5t48.5 19.5t48.5 -19.5t19.5 -49.5q0 -29 -19.5 -49t-48.5 -20zM549 636q-29 0 -48.5 20t-19.5 49
q0 30 19.5 49.5t48.5 19.5t48.5 -19.5t19.5 -49.5q0 -29 -19.5 -49t-48.5 -20z" />
    <glyph glyph-name="uni0436" unicode="&#x436;" horiz-adv-x="1053" 
d="M357 -13l92 240l-95 -15q-27 -48 -62 -89t-72.5 -71t-75.5 -47.5t-70 -17.5q-35 0 -61.5 20.5t-26.5 66.5q0 24 11 41.5t30.5 28.5t45 14t54.5 -1q-15 -48 -11 -74t26 -26q19 0 38 23.5t34 61t25.5 84t14.5 93.5q7 67 -3.5 92.5t-30.5 25.5q-21 0 -48.5 -27.5
t-55.5 -93.5l-29 11q16 42 39 78t51.5 62.5t62.5 41t73 14.5q55 0 78.5 -37.5t17.5 -106.5q-3 -32 -11.5 -62.5t-21.5 -60.5l90 14l87 229l160 24l-87 -226l100 16q27 45 61 83t70.5 66.5t72.5 44.5t67 16q35 0 61.5 -20.5t26.5 -66.5q0 -24 -11 -41.5t-30.5 -28.5
t-45 -14.5t-54.5 1.5q15 48 11 74t-26 26q-20 0 -38.5 -23.5t-33.5 -61t-25.5 -84.5t-14.5 -93q-3 -34 -2 -56.5t5.5 -36t12.5 -19.5t18 -6q21 0 48.5 27.5t55.5 93.5l29 -11q-17 -42 -39.5 -78t-51 -62.5t-62.5 -41t-73 -14.5q-55 0 -78.5 37.5t-17.5 106.5q3 35 13.5 69.5
t26.5 68.5l-92 -15l-93 -243z" />
    <glyph glyph-name="uni0437" unicode="&#x437;" horiz-adv-x="488" 
d="M158 -13q-78 0 -118 23t-40 65q0 40 36 61t102 13q-20 -71 -14 -100.5t38 -29.5q25 0 45 13t33 34t20 49t7 58q0 31 -11.5 50t-48.5 19q-17 0 -33.5 -5t-31.5 -11l10 37q23 6 41 13q42 15 70 34t45 40t24 43t7 42q0 42 -38 42q-37 0 -84.5 -34t-95.5 -103l-25 17
q58 85 124 124.5t153 39.5q58 0 90 -25.5t32 -68.5q0 -50 -56 -90t-177 -66q87 4 126 -21.5t39 -76.5q0 -34 -21.5 -67t-58.5 -59.5t-85.5 -43t-103.5 -16.5z" />
    <glyph glyph-name="uni0438" unicode="&#x438;" horiz-adv-x="631" 
d="M207 177q-16 -36 -25 -58.5t-12 -35.5t-0.5 -18t9.5 -5q19 0 50 38t69 97q23 34 46 72.5t44.5 77.5t40.5 76.5t34 71.5l156 26l-156 -404q-15 -40 -16.5 -56t14.5 -16q9 0 24.5 8t34 25t38.5 45t40 67l29 -12q-21 -43 -46 -78t-55.5 -59.5t-68 -38t-82.5 -13.5
q-32 0 -50 9t-24.5 24.5t-3 37.5t14.5 49l77 189h-1q-24 -44 -47.5 -83t-43.5 -69q-27 -43 -51.5 -73t-47.5 -48.5t-47 -27t-51 -8.5q-59 0 -71 50t27 138l119 269h-93l11 32l272 53z" />
    <glyph glyph-name="uni0439" unicode="&#x439;" horiz-adv-x="631" 
d="M207 177q-16 -36 -25 -58.5t-12 -35.5t-0.5 -18t9.5 -5q19 0 50 38t69 97q23 34 46 72.5t44.5 77.5t40.5 76.5t34 71.5l156 26l-156 -404q-15 -40 -16.5 -56t14.5 -16q9 0 24.5 8t34 25t38.5 45t40 67l29 -12q-21 -43 -46 -78t-55.5 -59.5t-68 -38t-82.5 -13.5
q-32 0 -50 9t-24.5 24.5t-3 37.5t14.5 49l77 189h-1q-24 -44 -47.5 -83t-43.5 -69q-27 -43 -51.5 -73t-47.5 -48.5t-47 -27t-51 -8.5q-59 0 -71 50t27 138l119 269h-93l11 32l272 53zM430 628q-48 0 -79.5 13t-48 35.5t-19 51t7.5 60.5h113q-12 -40 -13.5 -65t4 -38.5
t16 -18t21.5 -4.5t24.5 4.5t27.5 18t28 38.5t26 65h113q-22 -71 -78 -115.5t-143 -44.5z" />
    <glyph glyph-name="uni043A" unicode="&#x43a;" horiz-adv-x="616" 
d="M-2 -10l175 454h-93l11 32l261 53l-197 -516zM430 -28q-34 0 -58 9.5t-40.5 26t-27 39.5t-19.5 50l-42 132l123 144q38 45 68 73.5t54.5 45t44 23t37.5 6.5q31 0 47.5 -20.5t16.5 -47.5q0 -40 -28.5 -71t-75.5 -34q-14 55 -21.5 77.5t-19.5 22.5q-13 0 -36 -25.5
t-56 -64.5l-24 -28l69 -245q6 -23 12.5 -36t12.5 -19.5t11.5 -8t10.5 -1.5q6 0 15 3.5t19.5 15.5t21.5 33.5t23 57.5l29 -9q-15 -45 -31.5 -74t-36.5 -45.5t-44.5 -23t-54.5 -6.5z" />
    <glyph glyph-name="uni043B" unicode="&#x43b;" horiz-adv-x="600" 
d="M87 11q-17 -13 -35 -18.5t-37 -5.5q-25 0 -40 14.5t-15 37.5q-2 21 14 49l150 25q22 33 42.5 72.5t39 81.5t36 85.5t33.5 84.5h-97l26 65h377l-149 -387q-15 -40 -16.5 -56t14.5 -16q9 0 24.5 8t34 25t38.5 45t40 67l29 -12q-21 -43 -46 -78t-55.5 -59.5t-68 -38
t-82.5 -13.5q-59 0 -70.5 35.5t12.5 96.5l124 318h-93q-38 -95 -69.5 -167t-59 -123.5t-52.5 -84.5t-49 -51z" />
    <glyph glyph-name="uni043C" unicode="&#x43c;" horiz-adv-x="805" 
d="M18 -13q-29 0 -46 15t-17 39q0 23 14 47l146 24q26 47 56.5 128.5t72.5 203.5h-86l11 32l221 53l20 -314l226 277l157 27l-156 -404q-15 -40 -16.5 -56t14.5 -16q9 0 24.5 8t34 25t38.5 45t40 67l29 -12q-21 -43 -46 -78t-55.5 -59.5t-68 -38t-82.5 -13.5
q-59 0 -70.5 35.5t12.5 96.5l107 274l-306 -372h-6l-26 353q-31 -89 -55.5 -157t-49.5 -116q-29 -57 -61 -85.5t-76 -28.5z" />
    <glyph glyph-name="uni043D" unicode="&#x43d;" horiz-adv-x="631" 
d="M-2 -10l175 454h-93l11 32l261 53l-98 -258l131 23l78 199l156 26l-156 -404q-15 -40 -16.5 -56t14.5 -16q9 0 24.5 8t34 25t38.5 45t40 67l29 -12q-21 -43 -46 -78t-55.5 -59.5t-68 -38t-82.5 -13.5q-59 0 -70.5 35.5t12.5 96.5l54 137l-132 -22l-84 -221z" />
    <glyph glyph-name="uni043E" unicode="&#x43e;" horiz-adv-x="524" 
d="M162 -13q-36 0 -63 11.5t-45.5 31.5t-28 46t-9.5 56q0 68 29 137.5t77.5 125.5t111.5 91t131 35q36 0 63 -11.5t45.5 -31.5t28 -46t9.5 -56q0 -69 -29 -138.5t-77.5 -125t-111.5 -90.5t-131 -35zM219 29q19 0 42 25t42 72t31.5 114.5t12.5 152.5q0 86 -37 86
q-21 0 -43.5 -25t-42 -72t-32 -114.5t-12.5 -152.5q0 -42 9 -64t30 -22z" />
    <glyph glyph-name="uni043F" unicode="&#x43f;" horiz-adv-x="635" 
d="M369 -13q-32 0 -51 9t-26.5 25t-4 38t15.5 48l108 224q17 35 26 57.5t12 36t0 18.5t-10 5q-19 0 -50 -38t-69 -97q-23 -35 -47 -73.5t-46 -78t-41 -77.5t-31 -71l-157 -23l175 454h-93l11 32l261 53l-136 -336h1q29 54 54.5 96.5t47.5 76.5q28 43 52.5 72.5t48.5 48
t48 26.5t50 8q29 0 47.5 -13.5t24.5 -38t-0.5 -59t-27.5 -77.5l-105 -218q-18 -38 -18 -55t16 -17q9 0 24.5 8t34 25t38.5 45t40 67l29 -12q-21 -43 -46 -78t-55.5 -59.5t-68 -38t-82.5 -13.5z" />
    <glyph glyph-name="uni0440" unicode="&#x440;" horiz-adv-x="588" 
d="M165 444h-93l11 32l259 53l-29 -84q28 32 67.5 54t80.5 22q57 0 90 -34.5t33 -90.5q0 -73 -35 -146.5t-94.5 -132t-136.5 -94.5t-161 -33l-82 -238h-148zM358 437q-29 0 -55 -21l-136 -397q34 0 65.5 16t59.5 43t51.5 61.5t40 71.5t26 73.5t9.5 66.5q0 48 -18 67t-43 19z
" />
    <glyph glyph-name="uni0441" unicode="&#x441;" horiz-adv-x="465" 
d="M164 -13q-72 0 -110 39t-38 112q0 45 14 91t38.5 88.5t57.5 79.5t71.5 64.5t80 43.5t83.5 16q49 0 82.5 -21.5t33.5 -66.5q0 -40 -37.5 -64.5t-103.5 -16.5q20 77 20 107t-22 30q-23 0 -50.5 -27.5t-51 -72t-39 -101.5t-15.5 -116q0 -63 17 -89.5t52 -26.5
q33 0 69.5 30.5t70.5 107.5l29 -11q-44 -108 -108.5 -152t-143.5 -44z" />
    </font>
</defs>
</svg>
