<?xml version="1.0" standalone="no"?>
<!DOCTYPE svg PUBLIC "-//W3C//DTD SVG 1.1//EN" "http://www.w3.org/Graphics/SVG/1.1/DTD/svg11.dtd" >
<svg xmlns="http://www.w3.org/2000/svg" xmlns:xlink="http://www.w3.org/1999/xlink" version="1.1">
<metadata>
Created by Christoph Koeberlin (http://christoph.koe.berlin)
Copyright (c) 2017 Swiss Typefaces Sarl. All rights reserved.
</metadata>
<defs>
<font id="Font" horiz-adv-x="0" >
  <font-face 
    font-family="Font"
    font-weight="450"
    font-style="italic"
    font-stretch="normal"
    units-per-em="1000"
    panose-1="2 4 5 4 6 0 0 0 0 4"
    ascent="800"
    descent="-200"
    x-height="516"
    cap-height="758"
    bbox="-474 -403 1348 1083"
    underline-thickness="63"
    underline-position="-130"
    slope="-17"
    unicode-range="U+0020-FEFF"
  />
<missing-glyph horiz-adv-x="640" 
d="M70 758h500v-758h-500v758zM320 396l217 343h-434zM89 30l221 349l-221 349v-698zM551 30v698l-220 -349zM537 19l-217 343l-217 -343h434z" />
    <glyph glyph-name="f_f.liga" unicode="ff" horiz-adv-x="668" 
d="M488 447h-230l-86 -378q-21 -95 -51 -158.5t-64.5 -102t-73 -55t-77.5 -16.5q-16 0 -32 4.5t-29 13t-21 20t-8 26.5q0 17 12 31.5t33 14.5q16 0 27.5 -10t22.5 -22.5t23.5 -22.5t29.5 -10q14 0 26 10t23.5 35.5t24 69.5t27.5 111l97 439h-98l6 25l104 31q13 37 27 66.5
t30.5 54.5t36 46.5t42.5 41.5q38 33 82.5 53t76.5 20q22 0 35 -11t13 -34q0 -20 -12.5 -38.5t-36.5 -18.5q-10 0 -21.5 3.5t-24 8t-27 8.5t-30.5 4q-15 0 -26 -6t-20 -20.5t-17 -39t-16 -61.5l-17 -78h231q28 81 62 139.5t81 99.5q38 32 82 52.5t76 20.5q22 0 35 -11t13 -34
q0 -20 -12.5 -38.5t-36.5 -18.5q-10 0 -21 3.5t-24 8t-27.5 8.5t-30.5 4q-14 0 -25.5 -6t-20.5 -20.5t-17 -39t-16 -61.5l-23 -107h146l-14 -55h-143l-75 -328q-21 -94 -51 -157.5t-64.5 -102t-73 -55t-77.5 -16.5q-16 0 -32 4.5t-29 13t-21 20t-8 26.5q0 17 12.5 31
t33.5 14q16 0 27.5 -10t22.5 -22t23 -22t30 -10q13 0 25 10t23.5 35.5t24 69.5t27.5 111z" />
    <glyph glyph-name="f_i.liga" unicode="fi" horiz-adv-x="639" 
d="M172 69q-21 -95 -51 -158.5t-64.5 -102t-73 -55t-77.5 -16.5q-16 0 -32 4.5t-29 13t-21 20t-8 26.5q0 17 12 31.5t33 14.5q16 0 27.5 -10t22.5 -22.5t23.5 -22.5t29.5 -10q14 0 26 10t23.5 35.5t24 69.5t27.5 111l97 439h-98l6 25l104 31q28 81 61.5 139.5t81.5 98.5
q37 32 80.5 52.5t75.5 20.5q22 0 35 -11t13 -34q0 -20 -12.5 -38.5t-36.5 -18.5q-10 0 -21 3.5t-23 8t-26.5 8.5t-30.5 4q-14 0 -25.5 -6t-20.5 -20.5t-17 -39t-16 -61.5l-23 -107h343l-154 -387q-12 -29 -14 -45t10 -16q10 0 27 11.5t36.5 31t40 45t38.5 53.5l28 -17
q-60 -94 -119.5 -142.5t-109.5 -48.5q-46 0 -55.5 28t13.5 86l139 346h-234zM628 651q-29 0 -50 20.5t-21 51.5q0 29 21 49.5t50 20.5q30 0 51 -20.5t21 -49.5q0 -31 -21 -51.5t-51 -20.5z" />
    <glyph glyph-name="f_f_i.liga" unicode="ffi" horiz-adv-x="965" 
d="M-94 -263q-16 0 -32 4.5t-29 13t-21 20t-8 26.5q0 17 12 31.5t33 14.5q16 0 27.5 -10t22.5 -22.5t23.5 -22.5t29.5 -10q14 0 26 10t23.5 35.5t24 69.5t27.5 111l97 439h-98l6 25l104 31q13 37 27 66.5t30.5 54.5t36 46.5t42.5 41.5q38 33 82.5 53t76.5 20q22 0 35 -11
t13 -34q0 -20 -12.5 -38.5t-36.5 -18.5q-10 0 -21.5 3.5t-24 8t-27 8.5t-30.5 4q-15 0 -26 -6t-20 -20.5t-17 -39t-16 -61.5l-17 -78h231q28 81 61.5 140t81.5 99q37 32 80.5 52.5t75.5 20.5q22 0 35 -11t13 -34q0 -20 -12.5 -38.5t-36.5 -18.5q-10 0 -21 3.5t-23 8
t-26.5 8.5t-30.5 4q-14 0 -25.5 -6t-20.5 -20.5t-17 -39t-16 -61.5l-23 -107h343l-154 -387q-12 -29 -14 -45t10 -16q10 0 27 11.5t36.5 31t40 45t38.5 53.5l28 -17q-60 -94 -119.5 -142.5t-109.5 -48.5q-46 0 -55.5 28t13.5 86l139 346h-234l-75 -328q-21 -94 -51 -157.5
t-64.5 -102t-73 -55t-77.5 -16.5q-16 0 -32 4.5t-29 13t-21 20t-8 26.5q0 17 12.5 31t33.5 14q16 0 27.5 -10t22.5 -22t23 -22t30 -10q13 0 25 10t23.5 35.5t24 69.5t27.5 111l86 388h-230l-86 -378q-21 -95 -51 -158.5t-64.5 -102t-73 -55t-77.5 -16.5zM954 651
q-29 0 -49.5 20.5t-20.5 51.5q0 29 20.5 49.5t49.5 20.5q31 0 51.5 -20.5t20.5 -49.5q0 -31 -20.5 -51.5t-51.5 -20.5z" />
    <glyph glyph-name="f_l.liga" unicode="fl" horiz-adv-x="639" 
d="M64 447l6 25l104 31q28 81 62 139t81 99q38 32 82 52.5t76 20.5q22 0 35 -11t13 -34q0 -20 -12.5 -38.5t-36.5 -18.5q-10 0 -21 3.5t-24 8t-27.5 8.5t-30.5 4q-14 0 -25.5 -6t-20.5 -20.5t-17 -39t-16 -61.5l-23 -107h146l-14 -55h-143l-86 -378q-21 -95 -51 -158.5
t-64.5 -102t-73 -55t-77.5 -16.5q-16 0 -32 4.5t-29 13t-21 20t-8 26.5q0 17 12 31.5t33 14.5q16 0 27.5 -10t22.5 -22.5t23.5 -22.5t29.5 -10q14 0 26 10t23.5 35.5t24 69.5t27.5 111l97 439h-98zM572 700q6 17 0.5 25.5t-29.5 11.5l-49 6l10 28l197 23l-237 -679
q-11 -30 -13.5 -45.5t9.5 -15.5q10 0 27 11.5t36.5 31t40 45t38.5 53.5l28 -17q-61 -94 -120 -142.5t-109 -48.5q-46 0 -52 28t15 88z" />
    <glyph glyph-name="f_f_l.liga" unicode="ffl" horiz-adv-x="965" 
d="M898 700q6 17 0.5 25.5t-29.5 11.5l-27 3q-5 -12 -16 -20t-26 -8q-10 0 -21 3.5t-24 8t-27.5 8.5t-30.5 4q-14 0 -25.5 -6t-20.5 -20.5t-17 -39t-16 -61.5l-23 -107h146l-14 -55h-143l-75 -328q-21 -94 -51 -157.5t-64.5 -102t-73 -55t-77.5 -16.5q-16 0 -32 4.5t-29 13
t-21 20t-8 26.5q0 17 12.5 31t33.5 14q16 0 27.5 -10t22.5 -22t23 -22t30 -10q13 0 25 10t23.5 35.5t24 69.5t27.5 111l86 388h-230l-86 -378q-21 -95 -51 -158.5t-64.5 -102t-73 -55t-77.5 -16.5q-16 0 -32 4.5t-29 13t-21 20t-8 26.5q0 17 12 31.5t33 14.5q16 0 27.5 -10
t22.5 -22.5t23.5 -22.5t29.5 -10q14 0 26 10t23.5 35.5t24 69.5t27.5 111l97 439h-98l6 25l104 31q13 37 27 66.5t30.5 54.5t36 46.5t42.5 41.5q38 33 82.5 53t76.5 20q22 0 35 -11t13 -34q0 -20 -12.5 -38.5t-36.5 -18.5q-10 0 -21.5 3.5t-24 8t-27 8.5t-30.5 4
q-15 0 -26 -6t-20 -20.5t-17 -39t-16 -61.5l-17 -78h231q28 81 62 139.5t81 99.5q38 32 82 52.5t76 20.5q20 0 33 -10t15 -31l178 21l-237 -679q-11 -30 -13.5 -45.5t9.5 -15.5q10 0 27 11.5t36.5 31t40 45t38.5 53.5l28 -17q-61 -94 -120 -142.5t-109 -48.5q-46 0 -52 28
t15 88z" />
    <glyph glyph-name=".notdef" horiz-adv-x="640" 
d="M70 758h500v-758h-500v758zM320 396l217 343h-434zM89 30l221 349l-221 349v-698zM551 30v698l-220 -349zM537 19l-217 343l-217 -343h434z" />
    <glyph glyph-name="glyph1" 
 />
    <glyph glyph-name="glyph2" horiz-adv-x="268" 
 />
    <glyph glyph-name="space" unicode=" " horiz-adv-x="268" 
 />
    <glyph glyph-name="exclam" unicode="!" horiz-adv-x="310" 
d="M131 233q18 69 30 118t20.5 87t15.5 70t14.5 67t17.5 78.5t26 104.5q3 13 25.5 20t46.5 6.5t41.5 -8t12.5 -21.5q-22 -61 -39 -103.5t-31.5 -77.5t-29 -66.5t-31.5 -69.5t-38 -87t-48 -118h-33zM98 -13q-32 0 -55 23t-23 58q0 16 6 30t16.5 24.5t25 16.5t30.5 6
q34 0 57 -22.5t23 -54.5q0 -35 -23 -58t-57 -23z" />
    <glyph glyph-name="quotedbl" unicode="&#x22;" horiz-adv-x="380" 
d="M367 731q5 30 23.5 39t38.5 9q10 0 21.5 -2.5t18.5 -9t7.5 -19t-9.5 -32.5l-115 -215h-26zM201 731q5 30 23.5 39t38.5 9q10 0 21.5 -2.5t18.5 -9t7.5 -19t-9.5 -32.5l-115 -215h-26z" />
    <glyph glyph-name="numbersign" unicode="#" horiz-adv-x="794" 
d="M53 267h173l90 221h-174l26 63h174l91 225h68l-91 -225h199l91 225h68l-91 -225h168l-25 -63h-169l-90 -221h169l-26 -63h-168l-83 -204h-68l83 204h-199l-83 -204h-68l83 204h-174zM493 267l90 221h-199l-90 -221h199z" />
    <glyph glyph-name="dollar" unicode="$" horiz-adv-x="570" 
d="M485 886l-31 -108q38 -3 69 -12.5t53 -23.5t34 -32.5t12 -37.5q0 -22 -14 -36.5t-38 -14.5q-13 0 -22.5 5.5t-17 14t-13.5 19t-12 21.5q-11 20 -25 34.5t-38 19.5l-83 -287l31 -27q25 -22 46.5 -42.5t37.5 -43.5t25 -50.5t9 -63.5q0 -54 -24.5 -97t-64.5 -73t-90.5 -46.5
t-102.5 -17.5l-31 -107h-43l32 109q-40 4 -72.5 17.5t-55 32t-34.5 40t-11 43.5q1 29 17.5 41t36.5 12q16 0 26 -8t16 -21t10.5 -29t11.5 -32q8 -20 23 -34t44 -20l97 336l-38 33q-50 43 -72 83.5t-22 90.5q0 43 20 79.5t54.5 63.5t80 43t96.5 19l31 107h42zM325 478l75 261
q-66 -2 -107 -37t-41 -97q0 -38 18 -66t47 -54zM413 186q0 48 -23.5 83t-62.5 69l-90 -311q33 0 64.5 10.5t56 30.5t40 49.5t15.5 68.5z" />
    <glyph glyph-name="percent" unicode="%" horiz-adv-x="949" 
d="M876 758h82l-804 -758h-81zM674 -7q-32 0 -54.5 11.5t-37 31t-21.5 45.5t-7 55q0 51 20 103t52.5 94t74.5 68.5t86 26.5q31 0 54 -11.5t37 -31t21 -45t7 -54.5q0 -51 -20 -103t-52.5 -94.5t-74.5 -69t-85 -26.5zM679 20q33 0 61 34.5t47.5 83.5t30.5 102t11 91
q0 32 -11.5 51t-36.5 19q-22 0 -42 -16t-36.5 -42.5t-30 -59.5t-22.5 -67.5t-14 -67.5t-5 -58q0 -32 11.5 -51t36.5 -19zM242 334q-32 0 -54.5 11.5t-37 31t-21.5 45.5t-7 55q0 51 20 103t52.5 94t74.5 68.5t86 26.5q31 0 54 -11.5t37 -31t21 -45t7 -54.5q0 -51 -20 -103
t-52.5 -94.5t-74.5 -69t-85 -26.5zM247 361q33 0 61 34.5t47.5 83.5t30.5 102t11 91q0 32 -11.5 51t-36.5 19q-22 0 -42 -16t-36.5 -42.5t-30 -59.5t-22.5 -67.5t-14 -67.5t-5 -58q0 -32 11.5 -51t36.5 -19z" />
    <glyph glyph-name="ampersand" unicode="&#x26;" horiz-adv-x="990" 
d="M339 -13q-75 0 -128.5 26.5t-87.5 68.5t-49.5 93.5t-15.5 102.5q0 72 24.5 129.5t60 98t76.5 62.5t74 22q41 0 66 -23t28 -64q42 34 73 65.5t51.5 63.5t31 66t10.5 73q0 43 14 57.5t43 14.5q17 0 31 -6.5t20 -20.5t1.5 -35.5t-23.5 -50.5q-48 -72 -98 -128.5t-109.5 -106
t-132.5 -96.5t-168 -102q10 -44 32 -82t55 -66.5t75.5 -44.5t92.5 -16q113 0 195 72.5t133 203.5l-25 22q-13 12 -27.5 24t-29 21.5t-27.5 16t-24 6.5q-12 0 -23 -5.5t-19 -15t-11.5 -22t-1.5 -27.5q3 -16 10 -28.5t15 -23t14 -20.5t6 -22q0 -19 -14.5 -33t-37.5 -14
q-26 0 -42.5 22t-16.5 64q0 22 8 43.5t21 41t29.5 36.5t32.5 31q32 27 53 36t39 9q12 0 24 -3.5t28 -12t35.5 -23.5t46.5 -38l33 -29q27 -24 53.5 -42t51.5 -18q26 0 44.5 17t18.5 45q0 16 -6 29t-13.5 26t-13.5 26.5t-6 30.5q0 19 13.5 31.5t36.5 12.5q28 0 42.5 -21.5
t14.5 -58.5q0 -31 -12 -59.5t-31 -53.5t-42 -45t-44 -33q-22 -14 -36.5 -19t-27.5 -5q-21 0 -46 12t-65 45q-24 -58 -60 -120.5t-85.5 -114t-113.5 -85t-144 -33.5zM124 360v-15t1 -14q51 29 95.5 56t85.5 55q2 35 -14 60.5t-45 25.5q-25 0 -47 -14t-39 -37t-27 -53.5
t-10 -63.5z" />
    <glyph glyph-name="quotesingle" unicode="'" horiz-adv-x="214" 
d="M201 731q5 30 23.5 39t38.5 9q10 0 21.5 -2.5t18.5 -9t7.5 -19t-9.5 -32.5l-115 -215h-26z" />
    <glyph glyph-name="parenleft" unicode="(" horiz-adv-x="330" 
d="M126 -239q-22 33 -40 72.5t-31.5 83t-21 88.5t-7.5 88q0 96 28.5 195t85 195t141 184t196.5 162l22 -30q-100 -80 -173 -173t-120.5 -191.5t-70.5 -197.5t-23 -191q0 -73 11 -142.5t34 -126.5z" />
    <glyph glyph-name="parenright" unicode=")" horiz-adv-x="330" 
d="M232 829q22 -33 40 -72.5t31.5 -83t21 -88.5t7.5 -88q0 -96 -28.5 -195t-85 -195t-141 -184t-196.5 -162l-22 30q100 80 173 173t120.5 191.5t70.5 197.5t23 191q0 73 -11 142.5t-34 126.5z" />
    <glyph glyph-name="asterisk" unicode="*" horiz-adv-x="494" 
d="M187 469l-14 21l122 106l-115 114l17 20l137 -85l71 145l26 -9l-38 -157l160 -24l-1 -26l-162 -13l26 -159l-24 -8l-62 150z" />
    <glyph glyph-name="plus" unicode="+" horiz-adv-x="653" 
d="M295 229h-233v67h233v220h71v-220h233v-67h-233v-229h-71v229z" />
    <glyph glyph-name="comma" unicode="," horiz-adv-x="294" 
d="M185 54q0 -34 -17 -67.5t-46 -63.5t-67 -55t-81 -43l-12 29q65 35 95.5 73t30.5 73q0 28 -19 45t-56 29q5 36 29 53t56 17q38 0 62.5 -24t24.5 -66z" />
    <glyph glyph-name="hyphen" unicode="-" horiz-adv-x="435" 
d="M86 296h294l-23 -67h-294z" />
    <glyph glyph-name="period" unicode="." horiz-adv-x="272" 
d="M88 -13q-32 0 -55 23t-23 58q0 16 6 30t16.5 24.5t25 16.5t30.5 6q34 0 57 -22.5t23 -54.5q0 -35 -23 -58t-57 -23z" />
    <glyph glyph-name="slash" unicode="/" horiz-adv-x="539" 
d="M584 806h78l-631 -858h-75z" />
    <glyph glyph-name="zero" unicode="0" horiz-adv-x="677" 
d="M265 -13q-48 0 -85 19t-62 52.5t-37.5 79t-12.5 98.5q0 55 16.5 116.5t46 121.5t70 115.5t87.5 97.5t99.5 67t106.5 25q48 0 85 -19t62 -52.5t37.5 -79t12.5 -98.5q0 -55 -16.5 -116.5t-46 -121.5t-70 -115.5t-87.5 -97.5t-99.5 -67t-106.5 -25zM270 27q41 0 80 27.5
t73.5 73.5t63 106t49 125t32 130.5t11.5 122.5q0 60 -20.5 93.5t-69.5 33.5q-41 0 -80 -27.5t-73.5 -73.5t-63 -106t-49 -125t-32 -130.5t-11.5 -122.5q0 -60 20.5 -93.5t69.5 -33.5z" />
    <glyph glyph-name="one" unicode="1" horiz-adv-x="377" 
d="M286 646h-129l12 32q51 4 87 12.5t62 21.5t47 30t42 38h22l-244 -709q-6 -17 -0.5 -23.5t29.5 -12.5l29 -7l-10 -28h-254l10 28l46 7q28 5 37.5 12t15.5 24z" />
    <glyph glyph-name="two" unicode="2" horiz-adv-x="588" 
d="M432 779q45 0 80.5 -12t60.5 -33t38.5 -49t13.5 -61q0 -41 -16 -81.5t-46 -80t-72.5 -79t-94.5 -78.5q-28 -21 -62.5 -47t-73 -54t-78 -57.5t-78.5 -57.5l203 1q37 0 61.5 3.5t44 14t37 28.5t40.5 48l29 -13l-105 -171h-466l6 18q139 103 244 187t176 154t107 129t36 112
q0 50 -33.5 80t-90.5 30q-72 0 -119 -42.5t-65 -111.5h-37q10 49 31.5 90.5t54 70.5t76 45.5t98.5 16.5z" />
    <glyph glyph-name="three" unicode="3" horiz-adv-x="582" 
d="M192 -13q-42 0 -78 11.5t-62.5 30t-42 41.5t-15.5 47q0 25 15.5 40.5t41.5 15.5q16 0 26 -7t16 -18.5t10.5 -26t9.5 -28.5q10 -26 33 -45t75 -19q36 0 72.5 15t65.5 43t47 68.5t18 91.5q0 37 -11 65.5t-30 48t-43.5 30t-51.5 10.5q-25 0 -49 -8l-7 34l46 11
q51 12 93.5 28.5t74 38.5t49 51t17.5 66q0 38 -28.5 63.5t-85.5 25.5q-68 0 -112.5 -34t-62.5 -100h-36q9 50 32.5 88t58 63.5t77 38t88.5 12.5q36 0 67.5 -8t55 -24.5t36.5 -41t13 -57.5q0 -38 -18.5 -68t-46.5 -53.5t-61 -39.5t-63 -25l-1 -2q49 -28 77 -75.5t28 -105.5
q0 -61 -29.5 -114.5t-77.5 -93t-108.5 -62t-122.5 -22.5z" />
    <glyph glyph-name="four" unicode="4" horiz-adv-x="625" 
d="M352 226h-345l10 30l535 502h81l-161 -465h137l-23 -67h-137l-78 -226h-97zM375 293l122 353l-374 -353h252z" />
    <glyph glyph-name="five" unicode="5" horiz-adv-x="561" 
d="M199 -13q-45 0 -83 11.5t-65.5 30t-42.5 41.5t-15 47q0 25 15 40.5t41 15.5q16 0 25.5 -6.5t15.5 -17.5t10.5 -25t10.5 -28q6 -13 14.5 -25t22 -21t33.5 -14.5t49 -5.5q34 0 68.5 11.5t62 33t44.5 54t17 74.5q0 45 -23 82.5t-61 68.5t-86 55.5t-98 42.5l162 306h320
l-55 -97h-268l-66 -125q58 -24 106.5 -53t83.5 -63.5t54.5 -74.5t19.5 -87q0 -63 -27.5 -113.5t-72 -85.5t-100 -53.5t-112.5 -18.5z" />
    <glyph glyph-name="six" unicode="6" horiz-adv-x="625" 
d="M281 -13q-48 0 -89 19t-70 53t-45.5 82t-16.5 105q0 65 25 127t69.5 118t106.5 105.5t136.5 89.5t158.5 68.5t173 44.5l6 -40q-86 -15 -165.5 -49.5t-148 -83t-122 -110t-86.5 -130.5q26 22 68 42.5t94 20.5q32 0 65 -11.5t60 -34.5t44.5 -58.5t17.5 -84.5
q0 -60 -24.5 -110t-64.5 -86t-90.5 -56.5t-101.5 -20.5zM167 188q0 -82 33.5 -121.5t87.5 -39.5q32 0 61.5 15.5t52 44t36 68t13.5 86.5q0 69 -40.5 107t-106.5 38q-29 0 -55.5 -9t-49.5 -24q-32 -81 -32 -165z" />
    <glyph glyph-name="seven" unicode="7" horiz-adv-x="586" 
d="M-11 -27q-12 -3 -20.5 -1.5t-10.5 7t4 16t22 26.5q142 143 301.5 308.5t324.5 336.5l-243 -2q-44 0 -70.5 -4t-45 -14.5t-34 -29.5t-37.5 -50l-30 10l97 182h478l5 -17l-462 -503q-26 -29 -47 -54.5t-38.5 -49t-33 -45.5t-30.5 -43q-12 -17 -22 -28t-21 -18t-23.5 -11
t-28.5 -8z" />
    <glyph glyph-name="eight" unicode="8" horiz-adv-x="598" 
d="M249 -13q-45 0 -85.5 12.5t-70.5 35.5t-47.5 54t-17.5 69q0 49 19 87t53.5 67t81.5 49.5t103 33.5q-38 45 -61 88.5t-23 93.5q0 43 20 80t54 64t79.5 42.5t95.5 15.5q45 0 80.5 -11t60 -30.5t37.5 -46t13 -57.5q0 -42 -19 -76t-51 -61t-73 -46.5t-86 -32.5l25 -29
q16 -19 31.5 -39.5t27.5 -42.5t19.5 -45.5t7.5 -48.5q0 -48 -22.5 -89t-60.5 -71.5t-87.5 -48t-103.5 -17.5zM395 437q37 16 68 35.5t53.5 43.5t35 52.5t12.5 62.5q0 48 -31 77.5t-94 29.5q-32 0 -58.5 -9.5t-45 -26t-29 -39t-10.5 -49.5q0 -40 18.5 -73t55.5 -75zM114 160
q0 -61 38 -96.5t109 -35.5q32 0 60.5 10t50 28.5t34 46t12.5 62.5q0 36 -15.5 67.5t-44.5 66.5l-57 67q-33 -9 -66.5 -27t-60.5 -45t-43.5 -63t-16.5 -81z" />
    <glyph glyph-name="nine" unicode="9" horiz-adv-x="611" 
d="M7 7q86 15 161.5 49.5t137 83.5t108 110.5t73.5 131.5q-12 -11 -30 -22t-39.5 -21t-47 -16t-53.5 -6q-32 0 -65.5 11.5t-60.5 35.5t-44.5 61t-17.5 87q0 60 24.5 109t64.5 84t90 54.5t101 19.5q49 0 89.5 -18t70 -51t46 -79.5t16.5 -103.5q0 -65 -21.5 -127t-61.5 -119
t-96 -107t-125 -90.5t-148.5 -70.5t-166.5 -46zM241 527q0 -70 40 -108.5t106 -38.5q31 0 59.5 9t51.5 25q26 80 26 162q0 83 -33.5 123t-87.5 40q-32 0 -61 -15.5t-51.5 -43.5t-36 -67t-13.5 -86z" />
    <glyph glyph-name="colon" unicode=":" horiz-adv-x="322" 
d="M87 -13q-32 0 -55 23t-23 58q0 16 6 30t16.5 24.5t25 16.5t30.5 6q34 0 57 -22.5t23 -54.5q0 -35 -23 -58t-57 -23zM236 361q-32 0 -55 23t-23 58q0 16 6 30t16.5 24.5t25 16.5t30.5 6q34 0 57 -22.5t23 -54.5q0 -35 -23 -58t-57 -23z" />
    <glyph glyph-name="semicolon" unicode=";" horiz-adv-x="332" 
d="M177 54q0 -34 -17 -67.5t-46 -63.5t-67 -55t-81 -43l-12 29q65 35 95.5 73t30.5 73q0 28 -19 45t-56 29q5 36 29 53t56 17q38 0 62.5 -24t24.5 -66zM243 361q-32 0 -55 23t-23 58q0 16 6 30t16.5 24.5t25 16.5t30.5 6q34 0 57 -22.5t23 -54.5q0 -35 -23 -58t-57 -23z" />
    <glyph glyph-name="less" unicode="&#x3c;" horiz-adv-x="653" 
d="M39 293l527 225v-73l-432 -183l432 -183v-73l-527 226v61z" />
    <glyph glyph-name="equal" unicode="=" horiz-adv-x="653" 
d="M65 400h525v-66h-525v66zM65 179h525v-66h-525v66z" />
    <glyph glyph-name="greater" unicode="&#x3e;" horiz-adv-x="653" 
d="M622 232l-527 -226v73l432 183l-432 183v73l527 -225v-61z" />
    <glyph glyph-name="question" unicode="?" horiz-adv-x="583" 
d="M235 384q6 25 13 41t19 26.5t32 17t52 12.5l81 14q74 13 104 35t30 60q0 24 -13.5 49.5t-37.5 46.5t-57 34.5t-72 13.5q-33 0 -53.5 -10t-37.5 -31q-15 -20 -31 -35t-39 -15q-21 0 -38 12.5t-17 37.5q0 40 48.5 63t130.5 23q65 0 116.5 -19t87 -50t54.5 -71.5t19 -82.5
q0 -36 -8.5 -60.5t-26.5 -41t-45 -27t-64 -16.5l-142 -25q-18 -3 -29 -6.5t-19 -9.5t-14 -16t-13 -27l-38 -94h-32zM174 -13q-32 0 -55 23t-23 58q0 16 6 30t16.5 24.5t25 16.5t30.5 6q34 0 57 -22.5t23 -54.5q0 -35 -23 -58t-57 -23z" />
    <glyph glyph-name="at" unicode="@" horiz-adv-x="876" 
d="M665 37q-36 -19 -90 -34.5t-129 -15.5q-69 0 -132.5 22t-112 63.5t-78 102t-29.5 138.5q0 93 37.5 177t102.5 148.5t152 102.5t186 38q57 0 113.5 -18.5t102 -54.5t73.5 -90t28 -126q0 -81 -26.5 -140t-71 -98t-102.5 -57.5t-121 -18.5q-61 0 -61 27q0 11 5.5 26t13.5 35
l17 44h-5q-46 -61 -91 -95.5t-94 -34.5q-38 0 -61 24.5t-23 66.5q0 35 15.5 74.5t41.5 79t60 75.5t70 63.5t72 44t67 16.5q34 0 68 -13.5t64 -25.5l-121 -317q-6 -17 -9.5 -27t-3.5 -15q0 -7 10 -7q35 0 76 14t75.5 46t57.5 84t23 129q0 53 -19.5 97.5t-54.5 77t-83.5 51
t-106.5 18.5q-84 0 -156 -33t-124.5 -88.5t-82 -128.5t-29.5 -152q0 -60 18 -114.5t56 -95.5t96 -65.5t138 -24.5q47 0 91 12t72 26zM404 237q14 0 37 12.5t49.5 39.5t53.5 69t50 101l41 109q-8 21 -42 21t-73.5 -29t-73.5 -74t-56.5 -98t-22.5 -101q0 -50 37 -50z" />
    <glyph glyph-name="A" unicode="A" horiz-adv-x="768" 
d="M-92 31l45 7q14 2 25.5 8t23.5 17.5t27 31t37 48.5l489 646h36l31 -680q1 -19 2.5 -31.5t6.5 -20.5t14 -12t25 -7l41 -7l-9 -31h-285l9 31l46 7q14 2 22.5 5.5t13 9.5t5.5 15t0 24l-9 188h-274l-109 -145q-23 -30 -32.5 -48t-10 -28.5t7 -14.5t19.5 -6l42 -7l-9 -31h-239
zM502 332l-14 290l-219 -290h233z" />
    <glyph glyph-name="B" unicode="B" horiz-adv-x="756" 
d="M508 758q129 0 190 -37.5t61 -101.5q0 -39 -16.5 -72.5t-47 -60t-73.5 -46t-96 -29.5v-1q31 -4 63.5 -16t59 -32t43 -49t16.5 -67q0 -45 -25.5 -89t-73 -79t-115.5 -56.5t-154 -21.5h-357l9 31l46 7q14 2 23.5 5t15.5 9t10.5 15.5t9.5 24.5l176 574q10 31 4.5 40
t-30.5 14l-41 7l9 31h293zM444 717q-32 0 -40 -4t-12 -18l-82 -269h109q60 0 102.5 16.5t68.5 43.5t38 61t12 69q0 45 -33 73t-109 28h-54zM297 383l-83 -272q-13 -42 0.5 -56.5t58.5 -14.5h59q55 0 100.5 14t78 41t50.5 67t18 92q0 29 -9.5 52.5t-30.5 40.5t-55.5 26.5
t-85.5 9.5h-101z" />
    <glyph glyph-name="C" unicode="C" horiz-adv-x="792" 
d="M408 -13q-69 0 -129.5 20t-104.5 59.5t-69.5 97.5t-25.5 133q0 66 21 128t58.5 115.5t89 97.5t111.5 75.5t126.5 48.5t134.5 17q58 0 116 -8t96 -23l-11 -187h-28l-31 99q-8 24 -21 38t-32 21.5t-42.5 10t-50.5 2.5q-76 0 -149.5 -31.5t-131 -90t-93 -142.5t-35.5 -188
q0 -64 17 -110.5t47.5 -77t73 -45t92.5 -14.5q33 0 58 5t46.5 16t42 28t46.5 41l97 89h28l-99 -179q-49 -17 -109.5 -31.5t-138.5 -14.5z" />
    <glyph glyph-name="D" unicode="D" horiz-adv-x="869" 
d="M-8 31l46 7q14 2 23.5 5t15.5 9t10.5 15.5t9.5 24.5l176 574q10 31 4.5 40t-30.5 14l-41 7l9 31h279q88 0 158.5 -20.5t119.5 -58.5t75 -91t26 -118q0 -88 -41 -172.5t-117.5 -150.5t-184.5 -106.5t-242 -40.5h-305zM306 42q115 0 198.5 39t136.5 103t78.5 145.5
t25.5 165.5q0 115 -67.5 168t-200.5 53q-28 0 -44 -0.5t-24 -3t-11.5 -6.5t-5.5 -11l-178 -582q-7 -22 -7.5 -35.5t6.5 -21.5t22.5 -11t41.5 -3h29z" />
    <glyph glyph-name="E" unicode="E" horiz-adv-x="734" 
d="M506 758l291 2l-47 -184h-28v46q0 33 -6.5 52t-26.5 28.5t-58.5 11.5t-102.5 2h-109q-21 0 -27 -20l-87 -286h145q21 0 37 1.5t29 8t25 21t26 40.5l21 40h27l-83 -271h-27l3 40q2 26 -1.5 40.5t-12.5 21t-23.5 8t-35.5 1.5h-145l-75 -245q-8 -26 -7 -41t10 -22.5t26.5 -9
t43.5 -1.5h45q67 0 109.5 3.5t71 13t49 26.5t44.5 44l63 72h27l-113 -201h-601l9 31l46 7q14 2 23.5 5t15.5 9t10.5 15.5t9.5 24.5l176 574q10 31 4.5 40t-30.5 14l-41 7l9 31h291z" />
    <glyph glyph-name="F" unicode="F" horiz-adv-x="707" 
d="M-8 31l46 7q14 2 23.5 5t15.5 9t10.5 15.5t9.5 24.5l176 574q10 31 4.5 40t-30.5 14l-41 7l9 31h315l291 2l-47 -184h-28l-1 46q-1 33 -7 52t-26.5 28.5t-58 11.5t-101.5 2h-133q-21 0 -27 -20l-87 -286h168q21 0 37 1.5t29 8t25 21t26 40.5l21 40h27l-83 -271h-27l3 40
q2 26 -1.5 40.5t-12 21t-23 8t-35.5 1.5h-169l-82 -270q-9 -30 -4.5 -39.5t30.5 -11.5l72 -7l-10 -33h-313z" />
    <glyph glyph-name="G" unicode="G" horiz-adv-x="855" 
d="M407 -13q-69 0 -129 20t-104 59.5t-69 97.5t-25 133q0 100 45.5 187.5t120.5 153t172 103.5t199 38q58 0 116 -8t96 -23l-11 -187h-28l-31 99q-8 24 -21.5 38t-32 21.5t-42 10t-50.5 2.5q-76 0 -149 -31.5t-130 -90t-91.5 -142.5t-34.5 -188q0 -64 16.5 -110.5t45.5 -77
t69 -45t87 -14.5q18 0 39 2.5t41 6.5t38.5 9.5t31.5 12.5l74 210q11 31 7 41.5t-30 12.5l-79 7l10 31h320l-12 -39l-88 -3l-74 -209l-16 -73q-29 -3 -60.5 -12t-66 -18.5t-73 -17t-81.5 -7.5z" />
    <glyph glyph-name="H" unicode="H" horiz-adv-x="909" 
d="M266 0h-283l9 31l46 7q14 2 23.5 5t15.5 9t10.5 15.5t9.5 24.5l176 574q10 31 4.5 40t-30.5 14l-41 7l9 31h283l-10 -31l-46 -7q-14 -2 -23 -5t-15.5 -8.5t-11 -15t-8.5 -24.5l-79 -257h396l79 256q10 31 4.5 40t-30.5 14l-41 7l9 31h283l-10 -31l-46 -7q-14 -2 -23 -5
t-15.5 -8.5t-11 -15t-8.5 -24.5l-176 -576q-9 -30 -4.5 -39.5t29.5 -13.5l42 -7l-9 -31h-283l9 31l46 7q14 2 23.5 5t15.5 9t10.5 15.5t9.5 24.5l82 268h-397l-81 -269q-9 -30 -4.5 -39.5t29.5 -13.5l42 -7z" />
    <glyph glyph-name="I" unicode="I" horiz-adv-x="402" 
d="M273 666q10 31 4.5 40t-30.5 14l-41 7l9 31h283l-10 -31l-46 -7q-14 -2 -23 -5t-15.5 -8.5t-11 -15t-8.5 -24.5l-176 -576q-9 -30 -4.5 -39.5t29.5 -13.5l42 -7l-9 -31h-283l9 31l46 7q14 2 23.5 5t15.5 9t10.5 15.5t9.5 24.5z" />
    <glyph glyph-name="J" unicode="J" horiz-adv-x="388" 
d="M247 211q-11 -37 -22.5 -66t-26 -52t-33 -42t-43.5 -37q-17 -12 -38.5 -26t-45.5 -29t-48.5 -30.5t-48.5 -28.5l-18 28q45 32 76.5 56.5t55 52t41.5 63.5t35 92l145 474q9 31 4 40t-30 14l-41 7l9 31h283l-10 -31l-46 -7q-14 -2 -23 -5t-15.5 -8.5t-11 -15t-8.5 -24.5z
" />
    <glyph glyph-name="K" unicode="K" horiz-adv-x="829" 
d="M291 363l-83 -272q-9 -30 -4.5 -39.5t29.5 -13.5l42 -7l-9 -31h-283l9 31l46 7q14 2 23.5 5t15.5 9t10.5 15.5t9.5 24.5l176 574q10 31 4.5 40t-30.5 14l-41 7l9 31h283l-10 -31l-46 -7q-14 -2 -23 -5t-15.5 -8.5t-11 -15t-8.5 -24.5l-85 -278l349 236q63 42 91.5 66.5
t2.5 28.5l-49 7l9 31h258l-10 -31l-49 -7q-15 -2 -31.5 -9t-38.5 -19t-50.5 -31l-67.5 -45l-310 -209l261 -323q15 -18 27 -29.5t38 -16.5l33 -7l-9 -31h-172z" />
    <glyph glyph-name="L" unicode="L" horiz-adv-x="673" 
d="M215 117q-8 -27 -7.5 -42t10.5 -22.5t28 -9t45 -1.5h32q57 0 92 3.5t59 13.5t42.5 26.5t41.5 43.5l63 72h28l-114 -201h-552l9 31l46 7q14 2 23.5 5t15.5 9t10.5 15.5t9.5 24.5l176 574q10 31 4.5 40t-30.5 14l-41 7l9 31h283l-10 -31l-46 -7q-14 -2 -23 -5t-15.5 -8.5
t-11 -15t-8.5 -24.5z" />
    <glyph glyph-name="M" unicode="M" horiz-adv-x="1051" 
d="M323 638l-137 -410q-22 -66 -33.5 -103.5t-14 -56t3.5 -23.5t20 -7l41 -7l-9 -31h-228l10 31l45 7q15 2 25 7t21 23.5t25.5 56t37.5 103.5l154 439q11 30 4.5 39t-32.5 14l-41 7l10 31h190l83 -590l430 590h203l-9 -31l-46 -7q-14 -2 -24 -5t-17 -8.5t-11.5 -15
t-8.5 -24.5l-146 -576q-8 -30 -3.5 -39.5t30.5 -13.5l42 -7l-10 -31h-282l9 31l46 7q14 2 23 5t15.5 9t10.5 15.5t8 24.5l139 546l-469 -647h-14z" />
    <glyph glyph-name="N" unicode="N" horiz-adv-x="921" 
d="M316 607l-130 -424q-15 -50 -22 -78t-6.5 -42.5t7.5 -18.5t19 -6l43 -7l-10 -31h-227l9 31l46 7q14 2 23.5 6.5t19 18.5t20 42t25.5 78l128 419q19 62 -2 92t-64 33l9 31h147l357 -593l126 410q15 50 22 78t6.5 42t-7.5 18.5t-20 6.5l-42 7l9 31h228l-9 -31l-47 -7
q-14 -2 -23.5 -6.5t-18.5 -18.5t-19.5 -42t-25.5 -78l-177 -579h-30z" />
    <glyph glyph-name="O" unicode="O" horiz-adv-x="891" 
d="M407 -13q-71 0 -130.5 23t-103 64.5t-67.5 99t-24 127.5q0 60 18 119t50.5 112t77.5 98.5t98.5 78.5t114.5 51.5t126 18.5q70 0 130 -23t103 -64.5t67.5 -99t24.5 -127.5q0 -60 -18 -119t-50.5 -112t-77.5 -98.5t-98.5 -78.5t-115 -51.5t-125.5 -18.5zM412 34
q59 0 108 21.5t88 57t68.5 82t49 97.5t29 102.5t9.5 97.5q0 63 -15.5 108.5t-42.5 74.5t-64 43t-81 14q-59 0 -107.5 -21.5t-87.5 -57t-68.5 -82t-49 -97.5t-29 -103t-9.5 -97q0 -63 15 -108.5t42 -74.5t64 -43t81 -14z" />
    <glyph glyph-name="P" unicode="P" horiz-adv-x="722" 
d="M-8 31l46 7q14 2 23.5 5t15.5 9t10.5 15.5t9.5 24.5l176 574q10 31 4.5 40t-30.5 14l-41 7l9 31h322q52 0 97.5 -9t80 -29.5t54.5 -52.5t20 -77q0 -48 -22 -92.5t-67 -79.5t-113 -56t-160 -21h-143l-76 -250q-9 -30 -4.5 -39.5t30.5 -11.5l72 -7l-10 -33h-313zM296 378
h133q63 0 107 19t71.5 49.5t40.5 68t13 74.5q0 129 -151 129h-60q-32 0 -43 -4t-15 -20z" />
    <glyph glyph-name="Q" unicode="Q" horiz-adv-x="891" 
d="M407 -13h-9.5t-9.5 1l-187 -70q23 5 40 6t37 1q52 0 95 -5.5t81 -12.5t73 -12.5t73 -5.5q24 0 42 4t32 12.5t25 22.5t21 35l27 -9q-29 -78 -68.5 -119.5t-98.5 -41.5q-42 0 -88.5 16.5t-93 36.5t-91.5 36.5t-84 16.5q-28 0 -49 -10q-2 -38 -14 -55.5t-31 -17.5
q-15 0 -26 11.5t-11 29.5q0 8 2.5 17.5t10.5 20t23 21t41 19.5l161 60q-56 11 -101.5 37.5t-78 66.5t-50.5 91t-18 111t18 119t50.5 112t77.5 98.5t98.5 78.5t114.5 51.5t126 18.5q70 0 130 -23t103 -64.5t67.5 -99t24.5 -127.5q0 -60 -18 -119t-50.5 -112t-77.5 -98.5
t-98.5 -78.5t-115 -51.5t-125.5 -18.5zM412 34q59 0 108 21.5t88 57t68.5 82t49 97.5t29 102.5t9.5 97.5q0 63 -15.5 108.5t-42.5 74.5t-64 43t-81 14q-59 0 -107.5 -21.5t-87.5 -57t-68.5 -82t-49 -97.5t-29 -103t-9.5 -97q0 -63 15 -108.5t42 -74.5t64 -43t81 -14z" />
    <glyph glyph-name="R" unicode="R" horiz-adv-x="797" 
d="M652 -12q-36 0 -63.5 10t-44.5 34.5t-22.5 64.5t3.5 100q8 53 0.5 86.5t-25 52t-43 25t-52.5 6.5h-113l-84 -276q-9 -30 -4.5 -39.5t29.5 -13.5l42 -7l-9 -31h-283l9 31l46 7q14 2 23.5 5t15.5 9t10.5 15.5t9.5 24.5l176 574q10 31 4.5 40t-30.5 14l-41 7l9 31h312
q123 0 192 -35.5t69 -115.5q0 -38 -17 -74t-52 -65.5t-88 -49.5t-125 -26l-1 -2q32 -2 60.5 -12t49.5 -30t31.5 -51t5.5 -75l-6 -54q-5 -45 -2 -72.5t15 -42.5t32 -19.5t50 -4.5l-8 -28q-22 -6 -41.5 -9.5t-39.5 -3.5zM304 407q12 -1 43 -1.5t64 -0.5q70 0 118 19.5t78 48.5
t43.5 63.5t13.5 63.5q0 28 -8 50t-26.5 37t-49.5 23t-77 8h-53q-17 0 -27.5 -1t-16.5 -3.5t-9 -7t-5 -11.5z" />
    <glyph glyph-name="S" unicode="S" horiz-adv-x="628" 
d="M211 -13q-29 0 -57.5 5t-55.5 12.5t-50 17t-40 18.5l41 218h28l22 -153q2 -14 7 -26.5t16 -20.5q17 -14 46.5 -19.5t66.5 -5.5q39 0 75.5 11t64 32t44.5 51t17 68t-17 68.5t-61 70.5l-73 66q-42 38 -61 75.5t-19 79.5q0 45 21.5 85.5t62 71t98 49t129.5 18.5
q58 0 103.5 -8.5t78.5 -19.5l-42 -183h-28l-16 103q-4 23 -12.5 33.5t-26.5 17.5q-14 5 -36 8t-44 3q-41 0 -74.5 -10.5t-57 -28.5t-36.5 -43t-13 -55q0 -28 13 -55t42 -53l73 -65q24 -22 44 -42.5t34.5 -43t22 -48t7.5 -58.5q0 -49 -24.5 -93.5t-69 -78t-106.5 -53
t-137 -19.5z" />
    <glyph glyph-name="T" unicode="T" horiz-adv-x="743" 
d="M134 33l76 7q27 2 38 11.5t20 39.5l191 625h-28q-64 0 -105 -2t-69 -11.5t-47 -28t-39 -51.5l-29 -47h-28l65 184l284 -2h129l284 2l-47 -184h-27l-1 47q-1 33 -8.5 51.5t-29.5 28t-61 11.5t-103 2h-29l-191 -625q-9 -30 -4.5 -39.5t30.5 -11.5l72 -7l-10 -33h-343z" />
    <glyph glyph-name="U" unicode="U" horiz-adv-x="866" 
d="M380 -13q-73 0 -130 16t-90 54t-38.5 101t23.5 157l108 351q10 31 4.5 40t-30.5 14l-41 7l9 31h283l-9 -31l-47 -7q-14 -2 -23 -5t-15.5 -8.5t-11 -15t-8.5 -24.5l-108 -353q-24 -80 -23 -132.5t22 -83.5t58 -44t84 -13q51 0 97 12.5t85.5 43.5t72.5 84t58 133l80 261
q15 50 22 78t6.5 42t-8 18.5t-20.5 6.5l-41 7l9 31h228l-9 -31l-47 -7q-14 -2 -23.5 -6.5t-18.5 -18.5t-19.5 -42t-25.5 -78l-80 -261q-28 -92 -65.5 -154.5t-84.5 -100.5t-105 -55t-128 -17z" />
    <glyph glyph-name="V" unicode="V" horiz-adv-x="769" 
d="M940 727l-45 -7q-14 -2 -25.5 -8t-23.5 -18t-27 -31t-37 -48l-489 -645h-36l-31 679q-1 19 -2.5 31.5t-6.5 20.5t-14.5 12t-25.5 7l-40 7l9 31h286l-10 -31l-45 -7q-14 -2 -22.5 -5.5t-13 -9.5t-5.5 -15t0 -24l25 -528l365 485q22 30 32.5 48t11 28.5t-7 14.5t-19.5 6
l-42 7l9 31h239z" />
    <glyph glyph-name="W" unicode="W" horiz-adv-x="1168" 
d="M1339 727l-45 -7q-14 -2 -25.5 -8t-23.5 -17.5t-27 -31t-37 -48.5l-489 -645h-36l-21 451l-342 -451h-36l-31 679q-1 19 -2.5 31.5t-6.5 20.5t-14.5 12t-25.5 7l-40 7l9 31h286l-10 -31l-45 -7q-14 -2 -22.5 -5.5t-13 -9.5t-5.5 -15t0 -24l25 -528l270 359l-12 261h241
l-10 -31l-74 -7q-14 -2 -22.5 -5t-13 -9t-5.5 -15.5t0 -24.5l25 -528l366 485q22 30 32 48t10.5 28.5t-7 14.5t-19.5 6l-42 7l9 31h239z" />
    <glyph glyph-name="X" unicode="X" horiz-adv-x="824" 
d="M-78 31l44 7q15 2 28.5 7.5t31.5 17t42.5 32t62.5 52.5l282 243l-110 259q-8 18 -14 30.5t-12 21t-14.5 13t-20.5 6.5l-40 7l11 31h289l-11 -31l-47 -7q-27 -4 -32.5 -16t5.5 -38l84 -199l179 154q31 27 50 45t27 29.5t4.5 17.5t-17.5 8l-39 6l11 31h247l-11 -31l-45 -7
q-15 -2 -28.5 -7t-31 -17t-42.5 -32t-63 -53l-221 -191l132 -311q8 -18 13.5 -30.5t12 -21t14.5 -13t21 -6.5l41 -7l-11 -31h-290l12 31l45 7q29 5 34.5 16.5t-5.5 37.5l-107 252l-240 -207q-62 -53 -77 -74.5t13 -25.5l40 -6l-11 -31h-248z" />
    <glyph glyph-name="Y" unicode="Y" horiz-adv-x="778" 
d="M149 33l75 7q28 2 39 11.5t20 39.5l74 243l-122 315q-11 29 -20 47.5t-35 23.5l-40 7l10 31h287l-10 -31l-46 -7q-28 -5 -37.5 -16t1.5 -38l109 -281l246 238q27 26 40.5 43.5t16.5 28.5t-3.5 17t-19.5 8l-41 7l10 31h242l-9 -31l-46 -7q-14 -2 -26 -9t-26 -19.5
t-32.5 -31.5t-45.5 -45l-293 -282l-74 -242q-9 -30 -4 -39.5t31 -11.5l71 -7l-10 -33h-343z" />
    <glyph glyph-name="Z" unicode="Z" horiz-adv-x="761" 
d="M704 716h-179q-71 0 -114 -3t-71 -12.5t-47 -26.5t-43 -45l-61 -72h-30l115 203l284 -2h328l-765 -716h219q71 0 114.5 3t71.5 12.5t47 26.5t42 44l61 73h30l-113 -201h-653z" />
    <glyph glyph-name="bracketleft" unicode="[" horiz-adv-x="320" 
d="M48 -129q-8 -24 -9.5 -37.5t4.5 -20.5t20 -9.5t38 -3.5l36 -2l-12 -36h-187l366 1064h187l-12 -36l-38 -2q-24 -1 -40 -3.5t-26.5 -9.5t-18.5 -20.5t-16 -37.5z" />
    <glyph glyph-name="backslash" unicode="\" horiz-adv-x="624" 
d="M446 -52l-259 858h70l257 -858h-68z" />
    <glyph glyph-name="bracketright" unicode="]" horiz-adv-x="320" 
d="M300 717q8 24 9.5 37.5t-4.5 20.5t-20 9.5t-38 3.5l-36 2l12 36h187l-366 -1064h-187l12 36l38 2q24 1 40 3.5t26.5 9.5t18.5 20.5t16 37.5z" />
    <glyph glyph-name="asciicircum" unicode="^" horiz-adv-x="653" 
d="M594 361h-64l-48 333l-278 -333h-72l349 415h50z" />
    <glyph glyph-name="underscore" unicode="_" horiz-adv-x="536" 
d="M-98 -79h534l-21 -63h-534z" />
    <glyph glyph-name="grave" unicode="`" 
d="M68 609l-149 175l1 4h118l44 -179h-14z" />
    <glyph glyph-name="a" unicode="a" horiz-adv-x="567" 
d="M82 -13q-44 0 -64 28.5t-20 66.5q0 43 19.5 92.5t51 98t72.5 93t83.5 78.5t84 54.5t74.5 20.5q18 0 33.5 -8.5t20.5 -27.5l16 44h95l-156 -412q-11 -29 -13.5 -45t9.5 -16q10 0 27 11.5t36.5 31t40 45t38.5 53.5l28 -17q-60 -94 -119.5 -142.5t-109.5 -48.5
q-46 0 -49.5 28t17.5 88l23 64h-1q-27 -35 -55.5 -67.5t-58.5 -57.5t-61 -40t-62 -15zM145 50q16 0 46 22t63.5 59.5t66 87.5t54.5 107l27 69q10 25 10.5 41.5t-5 26.5t-15 14t-19.5 4q-40 0 -85 -36.5t-83.5 -92t-63.5 -121t-25 -124.5q0 -23 6 -40t23 -17z" />
    <glyph glyph-name="b" unicode="b" horiz-adv-x="542" 
d="M243 441q-4 -12 -12 -32.5t-16.5 -40.5t-14.5 -35t-7 -17h1q78 103 143 153t119 50q45 0 67.5 -27.5t22.5 -69.5q0 -40 -18 -88t-48.5 -96t-71 -93.5t-84.5 -80.5t-89.5 -56t-86.5 -21q-32 0 -57.5 7.5t-41.5 22.5t-20.5 36.5t4.5 50.5l200 596q5 17 0 25t-29 12l-49 6
l10 28l197 23zM175 28q26 0 55.5 16.5t57.5 44.5t53.5 64.5t45 78t31 84.5t11.5 83q0 26 -7 41t-23 15q-20 0 -54.5 -24t-72 -64.5t-72 -93t-53.5 -110.5l-24 -71q-7 -20 -4.5 -32.5t11 -19.5t20.5 -9.5t25 -2.5z" />
    <glyph glyph-name="c" unicode="c" horiz-adv-x="436" 
d="M144 -13q-27 0 -50 9t-40.5 26t-27.5 42t-10 57q0 39 14 84t38.5 89.5t58 85t72 71.5t80 49.5t83.5 18.5q38 0 65 -15t27 -49q0 -23 -16.5 -38.5t-33.5 -15.5t-26.5 9t-19 20t-23.5 20t-39 9q-35 0 -65.5 -26t-53 -68.5t-36 -97t-13.5 -112.5q0 -48 16 -75.5t52 -27.5
q40 0 77.5 35t75.5 95l27 -18q-22 -36 -46.5 -68t-52.5 -56.5t-61 -38.5t-72 -14z" />
    <glyph glyph-name="d" unicode="d" horiz-adv-x="588" 
d="M89 -13q-45 0 -68 27t-23 68q0 40 18.5 88.5t49 97t70 94t82 80.5t85 56t79.5 21q22 0 37.5 -9.5t23.5 -25.5l71 216q5 17 0 26t-29 11l-62 6l10 28l211 23l-228 -679q-10 -30 -13 -45.5t9 -15.5q10 0 27 11.5t36.5 31t40 45t38.5 53.5l28 -17q-61 -94 -120 -142.5
t-109 -48.5q-23 0 -35 7t-15 21.5t1.5 36t15.5 51.5l31 87h-2q-78 -104 -142.5 -153.5t-117.5 -49.5zM145 50q20 0 54.5 24t72 64.5t71.5 93.5t53 111l16 48q9 27 7.5 44.5t-9 27.5t-19 14t-21.5 4q-40 0 -85 -36t-82.5 -91t-62 -120t-24.5 -123q0 -29 6.5 -45t22.5 -16z
" />
    <glyph glyph-name="e" unicode="e" horiz-adv-x="445" 
d="M145 -13q-54 0 -91.5 34.5t-37.5 99.5q0 42 15 88t40 90.5t59 84t72 70t78 48t78 17.5q47 0 71.5 -21t24.5 -56q0 -44 -21.5 -73.5t-48.5 -48.5q-22 -6 -52 -14t-63 -15.5l-66 -15t-60 -13.5q-15 -51 -15 -107q0 -48 16 -75.5t53 -27.5q40 0 77.5 35t75.5 95l27 -18
q-22 -36 -46.5 -68t-52.5 -56.5t-61 -38.5t-72 -14zM330 482q-23 0 -48 -14t-49 -39.5t-45 -60t-36 -75.5q23 5 43.5 10.5t37.5 11.5q40 13 66 28.5t41 32.5t21 34t6 34t-9.5 27.5t-27.5 10.5z" />
    <glyph glyph-name="f" unicode="f" horiz-adv-x="342" 
d="M64 447l6 25l104 31q28 81 62 139t81 99q38 32 82 52.5t76 20.5q22 0 35 -11t13 -34q0 -20 -12.5 -38.5t-36.5 -18.5q-10 0 -21 3.5t-24 8t-27.5 8.5t-30.5 4q-14 0 -25.5 -6t-20.5 -20.5t-17 -39t-16 -61.5l-23 -107h146l-14 -55h-143l-86 -378q-21 -95 -51 -158.5
t-64.5 -102t-73 -55t-77.5 -16.5q-16 0 -32 4.5t-29 13t-21 20t-8 26.5q0 17 12 31.5t33 14.5q16 0 27.5 -10t22.5 -22.5t23.5 -22.5t29.5 -10q14 0 26 10t23.5 35.5t24 69.5t27.5 111l97 439h-98z" />
    <glyph glyph-name="g" unicode="g" horiz-adv-x="488" 
d="M200 158q-15 0 -28 2t-25 6l-25 -33q-11 -13 -10.5 -18.5t11.5 -11.5l160 -95q55 -32 81 -60t26 -59q0 -37 -19 -66t-53.5 -49t-82 -30.5t-104.5 -10.5q-53 0 -96.5 9t-75.5 25.5t-49.5 40t-17.5 52.5q0 25 15 46t40 39.5t58.5 34.5t71.5 31q-25 15 -41 31t-16 34
q0 17 11.5 29t38.5 29l62 37q-33 15 -50 44t-17 67q0 40 21.5 82t57.5 76.5t82 56.5t95 22q64 0 100 -36l163 64l-28 -72q-5 -12 -12 -17t-23 -3l-87 13q21 -30 21 -73q0 -40 -21.5 -82t-57 -76.5t-81.5 -56.5t-95 -22zM231 190q27 0 48.5 18t37.5 47.5t24.5 66t8.5 73.5
q0 38 -14 64t-47 26q-27 0 -48.5 -18t-37.5 -47.5t-24.5 -66t-8.5 -73.5q0 -38 14 -64t47 -26zM-26 -124q0 -44 46.5 -75.5t144.5 -31.5q25 0 51.5 4.5t47.5 13.5t34.5 22.5t13.5 30.5q0 23 -20.5 41t-68.5 46l-121 70q-37 -14 -61.5 -29t-39.5 -30t-21 -30.5t-6 -31.5z" />
    <glyph glyph-name="h" unicode="h" horiz-adv-x="594" 
d="M244 700q6 17 0.5 25.5t-29.5 11.5l-49 6l10 28l197 23l-125 -362l-37 -105h1q42 49 77.5 85.5t67 60t60.5 35t58 11.5q56 0 62.5 -45.5t-25.5 -124.5l-96 -234q-12 -29 -14 -45t10 -16q10 0 27 11.5t36.5 31t40 45t38.5 53.5l28 -17q-60 -94 -119.5 -142.5t-109.5 -48.5
q-46 0 -56 27.5t14 86.5l95 234q24 60 25.5 88.5t-23.5 28.5q-21 0 -56 -24t-73 -65.5t-74 -97.5t-58 -121l-42 -136l-109 -19z" />
    <glyph glyph-name="i" unicode="i" horiz-adv-x="333" 
d="M89 -13q-47 0 -56 28t14 86l128 320q7 16 1.5 24t-29.5 12l-48 7l10 27l202 23l-159 -399q-11 -29 -13.5 -45t9.5 -16q10 0 27 11.5t36 31t39.5 45t38.5 53.5l29 -17q-61 -94 -120.5 -142.5t-108.5 -48.5zM322 651q-29 0 -50 20.5t-21 51.5q0 29 21 49.5t50 20.5
q30 0 51 -20.5t21 -49.5q0 -31 -21 -51.5t-51 -20.5z" />
    <glyph glyph-name="j" unicode="j" horiz-adv-x="292" 
d="M129 45q-14 -36 -25.5 -65t-25 -52t-31.5 -42.5t-44 -37.5q-17 -11 -39.5 -25.5t-47.5 -30t-51 -31t-50 -28.5l-13 26q43 31 75.5 55.5t58 53t47 66t42.5 93.5l147 394q6 16 1 24t-29 12l-49 7l11 27l197 23zM308 651q-29 0 -50 20.5t-21 51.5q0 29 21 49.5t50 20.5
q30 0 51 -20.5t21 -49.5q0 -31 -21 -51.5t-51 -20.5z" />
    <glyph glyph-name="k" unicode="k" horiz-adv-x="590" 
d="M244 700q6 17 0.5 25.5t-29.5 11.5l-49 6l10 28l197 23l-235 -674l-33 -112l-108 -19zM380 -27q-24 0 -40 12t-32 42l-119 229l166 105q26 16 40 32t21 30.5t8 28t1 25.5q0 25 16.5 33.5t33.5 8.5q21 0 35.5 -11t14.5 -31q0 -13 -6 -26.5t-22 -29.5t-43.5 -36.5
t-70.5 -46.5l-100 -61l121 -214q6 -11 12 -17t14 -6q17 0 48.5 36t65.5 91l28 -18q-30 -47 -54.5 -80.5t-47 -54.5t-44.5 -31t-46 -10z" />
    <glyph glyph-name="l" unicode="l" horiz-adv-x="314" 
d="M247 700q6 17 0.5 25.5t-29.5 11.5l-49 6l10 28l197 23l-237 -679q-11 -30 -13.5 -45.5t9.5 -15.5q10 0 27 11.5t36.5 31t40 45t38.5 53.5l28 -17q-61 -94 -120 -142.5t-109 -48.5q-46 0 -52 28t15 88z" />
    <glyph glyph-name="m" unicode="m" horiz-adv-x="895" 
d="M233 333h1q78 94 139 140t119 46q57 0 62.5 -47.5t-38.5 -138.5h2q78 94 139 140t119 46q56 0 62.5 -45.5t-25.5 -124.5l-96 -234q-12 -29 -14 -45t10 -16q10 0 27 11.5t36.5 31t40 45t38.5 53.5l28 -17q-61 -94 -120 -142.5t-109 -48.5q-46 0 -56.5 27.5t13.5 86.5
l96 234q25 60 26 88.5t-24 28.5q-21 0 -56 -24t-73 -65.5t-73.5 -97.5t-58.5 -121l-47 -135l-112 -20l134 346q23 60 25 88.5t-23 28.5q-21 0 -56 -24t-73 -65.5t-73.5 -97.5t-58.5 -121l-46 -135l-113 -20l168 432q6 16 1 24t-29 12l-48 7l10 27l200 23z" />
    <glyph glyph-name="n" unicode="n" horiz-adv-x="612" 
d="M173 421q6 16 1 24t-29 12l-48 7l10 27l200 23l-74 -181h1q78 94 139 140t119 46q57 0 63 -45.5t-26 -124.5l-95 -234q-12 -29 -14.5 -45t9.5 -16q11 0 27.5 11.5t36 31t40 45t38.5 53.5l28 -17q-60 -94 -119.5 -142.5t-109.5 -48.5q-46 0 -56 27.5t14 86.5l95 234
q24 60 25.5 88.5t-23.5 28.5q-21 0 -56 -24t-73 -65.5t-73.5 -97.5t-58.5 -121l-46 -135l-113 -20z" />
    <glyph glyph-name="o" unicode="o" horiz-adv-x="534" 
d="M174 -13q-42 0 -71 13.5t-47 35.5t-26 48.5t-8 53.5q0 46 15 92t41 88t60 79t72 64t77 42.5t76 15.5q42 0 71 -14t47 -35.5t26 -48.5t8 -54q0 -46 -15 -92t-40.5 -88t-59.5 -78.5t-72 -63.5t-77.5 -42.5t-76.5 -15.5zM199 28q31 0 58 18t50 47.5t41 67t30.5 76.5t19 75.5
t6.5 64.5q0 52 -16.5 76t-49.5 24q-31 0 -58 -18t-50 -47.5t-41 -67t-30.5 -76.5t-19 -75.5t-6.5 -64.5q0 -52 16.5 -76t49.5 -24z" />
    <glyph glyph-name="p" unicode="p" horiz-adv-x="569" 
d="M255 403h1q21 24 45 45t49.5 37t51 25t49.5 9q61 0 87 -34.5t24 -89.5q-2 -44 -18.5 -91.5t-44 -93t-63 -86t-74.5 -71t-79.5 -48.5t-77.5 -18q-22 0 -43 7.5t-35 23.5l-91 -266h-96l227 669q5 16 0.5 24t-28.5 12l-49 7l11 27l197 23zM214 25q31 0 60 16t54.5 43
t46.5 62.5t37 73.5t25 76.5t11 72.5q2 42 -11.5 66t-42.5 24q-32 0 -71.5 -27.5t-80.5 -76.5l-84 -247q-14 -41 5.5 -62t50.5 -21z" />
    <glyph glyph-name="q" unicode="q" horiz-adv-x="546" 
d="M460 527h94l-264 -775h-96l104 309q3 9 11 29.5t17 41.5t16.5 38t8.5 20h-2q-78 -104 -142.5 -153.5t-117.5 -49.5q-45 0 -68 27t-23 68q0 40 18.5 88.5t49 97t70 94t82 80.5t85 56t79.5 21q22 0 38.5 -9.5t24.5 -25.5zM145 50q20 0 54.5 24t72 64.5t71.5 93.5t53 111
l16 48q9 27 7.5 44.5t-9 27.5t-19 14t-21.5 4q-40 0 -85 -36t-82.5 -91t-62 -120t-24.5 -123q0 -29 6.5 -45t22.5 -16z" />
    <glyph glyph-name="r" unicode="r" horiz-adv-x="445" 
d="M173 421q6 16 1 24t-29 12l-48 7l10 27l199 23q-28 -67 -52 -122q-10 -24 -20 -47.5t-19 -44t-15 -35.5t-9 -21h2q32 60 64 106.5t60 81.5q35 45 66.5 65t61.5 20q27 0 44.5 -14.5t17.5 -37.5q0 -26 -15 -42.5t-35 -16.5q-13 0 -22 4t-17 8.5t-16.5 8.5t-20.5 4
q-16 0 -31.5 -12.5t-32.5 -34.5q-35 -42 -80.5 -113t-86.5 -169l-30 -93l-115 -20z" />
    <glyph glyph-name="s" unicode="s" horiz-adv-x="402" 
d="M104 -13q-25 0 -47 6t-38.5 16.5t-26 25t-9.5 31.5q0 18 13.5 33.5t39.5 15.5q21 0 32.5 -13.5t22.5 -29.5t25 -29.5t40 -13.5q32 0 53 17.5t21 46.5q0 18 -9 41.5t-28 49.5l-46 64q-19 26 -30 55.5t-11 58.5q0 36 17.5 65t45 49.5t62 31.5t68.5 11q22 0 42.5 -5.5
t36.5 -15t26 -22.5t10 -29q0 -23 -14.5 -37t-36.5 -14q-20 0 -29.5 12.5t-19.5 27.5t-24 27.5t-43 12.5t-47 -15t-18 -40q0 -20 9.5 -41.5t29.5 -50.5l44 -64q25 -36 36.5 -62.5t11.5 -57.5q0 -35 -18.5 -64t-48 -50t-67 -32.5t-75.5 -11.5z" />
    <glyph glyph-name="t" unicode="t" horiz-adv-x="384" 
d="M153 115q-11 -30 -10 -45.5t19 -15.5q12 0 30.5 11.5t39.5 31t42.5 45t39.5 53.5l28 -17q-60 -94 -123.5 -142.5t-115.5 -48.5q-47 0 -61 27t9 87l132 346h-105l20 55h106l40 101h95l-38 -101h138l-21 -55h-138z" />
    <glyph glyph-name="u" unicode="u" horiz-adv-x="611" 
d="M171 170q-24 -60 -25.5 -88.5t23.5 -28.5q22 0 57.5 24t74 68t75.5 105.5t63 136.5l36 105l114 24l-155 -401q-11 -29 -13.5 -45t9.5 -16q10 0 27 11.5t36 31t39.5 45t38.5 53.5l29 -17q-61 -94 -120.5 -142.5t-108.5 -48.5q-47 0 -52 27.5t17 86.5l27 72h-2
q-76 -93 -138.5 -139.5t-120.5 -46.5q-56 0 -62.5 45t25.5 124l108 265q7 16 1.5 24t-29.5 12l-48 7l10 27l204 23z" />
    <glyph glyph-name="v" unicode="v" horiz-adv-x="505" 
d="M92 0q6 117 19 226.5t38 194.5q5 17 0.5 24.5t-28.5 11.5l-48 7l10 27l187 22q-13 -42 -25 -93t-22.5 -105t-17.5 -108t-10 -100q36 36 72 70.5t68 67.5t58.5 65t43.5 62q6 12 7 24.5t-1 24.5t-4.5 23.5t-2.5 20.5q0 29 19 41.5t39 12.5q24 0 39 -15t15 -38
q0 -29 -21 -62.5t-58 -75.5q-41 -47 -79.5 -85.5t-77.5 -76t-79 -77.5t-84 -89h-57z" />
    <glyph glyph-name="w" unicode="w" horiz-adv-x="759" 
d="M75 0q9 117 27 227t43 194q5 17 0.5 24.5t-28.5 11.5l-48 7l10 27l187 22q-13 -42 -26.5 -93.5t-25.5 -106t-21 -108t-12 -99.5q64 51 116 112.5t94 118.5q4 38 8 71.5t9 61.5l98 45q-15 -93 -24.5 -193t-14.5 -213q33 36 65.5 69.5t61.5 65t52.5 63.5t38.5 65
q5 11 5.5 23.5t-1 25t-4 24t-2.5 20.5q0 29 19 41.5t39 12.5q24 0 39 -15t15 -38q0 -29 -20.5 -62t-54.5 -76q-39 -51 -75 -89.5t-71 -75t-72 -75t-78 -88.5h-55q2 54 6 124.5t10 142.5q-26 -33 -58.5 -68.5t-67 -70.5t-69 -68t-64.5 -60h-51z" />
    <glyph glyph-name="x" unicode="x" horiz-adv-x="594" 
d="M-35 52q0 23 15 36t33 13q14 0 25 -7t20.5 -15.5t19 -15.5t20.5 -7t20 8q6 5 17 15.5t27.5 29.5t39.5 49t53 75l-17 144q-5 46 -12.5 62t-21.5 16q-18 0 -47.5 -28.5t-61.5 -69.5l-27 20q54 70 102.5 106t91.5 36q16 0 27 -5t18 -18t12 -34.5t9 -54.5l9 -78
q37 58 67.5 95t56 58t47.5 29t43 8q34 0 57 -18.5t23 -47.5q0 -23 -15 -36t-34 -13q-14 0 -25 7t-20.5 16t-18.5 16t-20 7t-21 -9q-6 -5 -16.5 -14.5t-26.5 -28.5t-38 -48.5t-52 -73.5l18 -147q6 -47 12.5 -62.5t20.5 -15.5q18 0 47 28.5t62 69.5l26 -20
q-53 -70 -101.5 -106t-91.5 -36q-17 0 -27.5 5t-18 18t-12 34t-8.5 54l-10 84q-38 -60 -68.5 -98t-56.5 -59.5t-48 -29.5t-44 -8q-33 0 -56 18t-23 47z" />
    <glyph glyph-name="y" unicode="y" horiz-adv-x="536" 
d="M-93 -267q-26 0 -38 13.5t-12 30.5q0 28 16 36t39 9t48.5 1.5t43.5 13.5q37 26 72.5 67t73.5 98l-3 419q0 18 -4.5 25.5t-23.5 10.5l-48 7l10 27l165 22l-2 -381l147 205q37 52 63.5 87t47.5 56t38.5 30t35.5 9q20 0 33 -11t13 -31q0 -17 -10 -32.5t-38 -24.5
q-23 -8 -42.5 -16.5t-38.5 -22.5t-39 -35.5t-44 -54.5l-198 -279q-17 -24 -38.5 -52.5t-45 -57t-48 -55.5t-48.5 -48q-22 -19 -38.5 -31.5t-31 -20t-27.5 -11t-28 -3.5z" />
    <glyph glyph-name="z" unicode="z" horiz-adv-x="520" 
d="M327 -38q-24 0 -53 13.5t-62 32t-69 37.5t-73 31q-3 -30 -10.5 -47.5t-16 -26.5t-17 -12t-15.5 -3q-15 0 -24 9t-9 23q0 16 12.5 33.5t45.5 46.5l341 289q-36 9 -66 20.5t-54.5 21.5t-43.5 16.5t-33 6.5q-16 0 -26 -7.5t-10 -22.5q0 -14 7.5 -20.5t16.5 -12.5t16.5 -14
t7.5 -25q0 -20 -14 -32t-35 -12q-26 0 -41.5 18t-15.5 42t9.5 43.5t24.5 36t33.5 29.5t36.5 24q20 13 34.5 17t26.5 2q18 -3 43 -11t51 -17t50.5 -16t43.5 -7q31 0 55 18t44 34l23 -26l-417 -354q30 -9 58.5 -24.5t55.5 -30t51.5 -25t46.5 -10.5q35 0 53.5 20t35.5 60
l30 -11q-32 -77 -65 -117t-83 -40z" />
    <glyph glyph-name="braceleft" unicode="{" horiz-adv-x="363" 
d="M106 313q23 -3 49.5 -18.5t42.5 -45t14.5 -74t-34.5 -107.5l-49 -92q-35 -65 -21 -115.5t80 -64.5l-12 -34q-43 5 -78 27t-54.5 56.5t-20 79.5t25.5 97l52 103q24 47 26.5 79t-10.5 52t-37 30.5t-54 15.5l11 33q34 5 65 12.5t56 24t42.5 45t24.5 75.5l12 84q10 70 31 117
t55 76t81 41.5t109 12.5l-4 -37q-48 -3 -78 -12.5t-48.5 -29t-28.5 -51t-16 -78.5l-9 -66q-9 -68 -32 -111t-53.5 -69t-66 -37.5t-71.5 -15.5v-3z" />
    <glyph glyph-name="bar" unicode="|" horiz-adv-x="337" 
d="M150 826h64v-1064h-64v1064z" />
    <glyph glyph-name="braceright" unicode="}" horiz-adv-x="363" 
d="M284 272q-23 3 -49.5 18.5t-42.5 45t-14.5 74t34.5 107.5l49 92q35 65 21 115.5t-80 64.5l12 34q43 -5 78 -27t54.5 -56.5t20 -79.5t-25.5 -97l-52 -103q-24 -47 -26.5 -79t10.5 -52t37 -30.5t54 -15.5l-11 -33q-34 -5 -65 -12.5t-56 -24t-42.5 -45t-24.5 -75.5l-12 -84
q-10 -70 -31 -117t-55 -76t-81 -41.5t-109 -12.5l4 37q48 3 78 12.5t48.5 29t28.5 51t16 78.5l9 66q9 68 32 111t53.5 69t66 37.5t71.5 15.5v3z" />
    <glyph glyph-name="asciitilde" unicode="~" horiz-adv-x="653" 
d="M208 332q41 0 74 -13.5t62 -29.5t55 -29.5t53 -13.5q35 0 60.5 17.5t27.5 63.5h64q-5 -66 -47 -103.5t-106 -37.5q-35 0 -66.5 13.5t-60.5 29.5t-58 29.5t-59 13.5q-35 0 -60 -17.5t-27 -63.5h-65q5 66 47 103.5t106 37.5z" />
    <glyph glyph-name="uni00A0" unicode="&#xa0;" horiz-adv-x="268" 
 />
    <glyph glyph-name="exclamdown" unicode="&#xa1;" horiz-adv-x="285" 
d="M173 273q-19 -69 -31 -117.5t-20 -85t-14.5 -67t-14 -64.5t-17.5 -76.5t-26 -103.5q-2 -9 -13.5 -15t-26.5 -9t-32 -2.5t-30.5 4t-21 9.5t-3.5 16q22 60 39.5 102.5t33 76t29.5 63.5t30.5 66.5t36.5 84.5t47 118h34zM198 519q32 0 55 -23t23 -58q0 -16 -6 -30
t-16.5 -24.5t-25 -16.5t-30.5 -6q-34 0 -57 22.5t-23 54.5q0 35 23 58t57 23z" />
    <glyph glyph-name="cent" unicode="&#xa2;" horiz-adv-x="453" 
d="M149 -13q-27 0 -50 9t-40.5 26t-27.5 42t-10 57q0 36 12 77t33 82t50 79.5t63 70t71.5 54t76.5 30.5l34 105h38l-33 -100h1q38 0 65 -15t27 -49q0 -23 -16.5 -38.5t-33.5 -15.5t-26.5 9t-19 20t-23.5 20t-39 9q-35 0 -65.5 -26t-53 -68.5t-36 -97t-13.5 -112.5
q0 -48 16 -75.5t52 -27.5q40 0 77.5 35t75.5 95l27 -18q-19 -30 -39 -58t-43 -50.5t-48.5 -39t-55.5 -23.5l-38 -116h-38l36 110h-6z" />
    <glyph glyph-name="sterling" unicode="&#xa3;" horiz-adv-x="648" 
d="M544 347h-175q-11 -34 -32 -63t-47 -53.5t-55 -44t-55 -33.5q17 -12 48.5 -26t67.5 -26t70.5 -20t56.5 -8q37 0 67 15t50 62l29 -13l-20 -43q-15 -33 -35.5 -55t-43.5 -35t-48.5 -18.5t-50.5 -5.5q-27 0 -61.5 9t-69.5 25t-67.5 37t-57.5 44q-27 -60 -53.5 -83t-51.5 -23
q-18 0 -27.5 9.5t-9.5 22.5q0 11 5.5 21.5t19 22t35.5 24.5t56 30q66 32 112.5 92.5t58.5 135.5h-160l17 54h146q-1 19 -4.5 36t-7 33t-6.5 32.5t-3 33.5q0 49 28 93t73.5 77.5t105 53t122.5 19.5q28 0 54 -5t45 -15.5t30.5 -26t11.5 -36.5q0 -26 -16.5 -43.5t-39.5 -17.5
q-29 0 -40.5 15t-24.5 37q-15 24 -36 33t-54 9q-30 0 -59.5 -11t-52 -30t-36.5 -45.5t-14 -57.5q0 -21 6 -43t13 -44.5t13 -46t6 -49.5v-1h184z" />
    <glyph glyph-name="yen" unicode="&#xa5;" horiz-adv-x="805" 
d="M151 38l44 2q25 1 39.5 3t23.5 8.5t15 20.5t14 38l25 75h-200l16 47h199l31 94h-200l16 47h174l-97 319q-2 7 -4.5 12t-6.5 8t-11.5 4.5t-20.5 2.5l-32 3l11 36h277l-12 -36l-50 -3q-29 -2 -41 -8.5t-5 -28.5l88 -298l214 218q61 62 71 89t-34 29l-37 2l11 36h258
l-12 -36l-33 -2q-17 -1 -31 -6.5t-30.5 -19t-39.5 -36t-58 -58.5l-224 -227h183l-15 -47h-212l-31 -94h212l-16 -47h-211l-25 -75q-8 -24 -11 -38t1.5 -20.5t18 -8.5t37.5 -3l44 -2l-13 -38h-322z" />
    <glyph glyph-name="brokenbar" unicode="&#xa6;" horiz-adv-x="337" 
d="M150 826h64v-421h-64v421zM150 183h64v-421h-64v421z" />
    <glyph glyph-name="section" unicode="&#xa7;" horiz-adv-x="618" 
d="M116 -197q-36 0 -68.5 6.5t-57 20t-39 33.5t-14.5 47q0 23 17 39.5t46 16.5q17 0 27.5 -6.5t17.5 -17.5t12.5 -24.5t13.5 -26.5q11 -19 29 -32t50 -13q37 0 65.5 17.5t48 48t29.5 71t10 86.5q0 38 -9 69.5t-26 61.5l-51 87q-23 40 -38.5 79t-15.5 85q0 67 34.5 126.5
t89.5 104.5t123.5 71t136.5 26q72 0 116 -26t44 -67q0 -27 -17 -41.5t-43 -14.5q-30 0 -44.5 21t-27.5 47q-10 18 -25.5 28t-42.5 10q-37 0 -67 -15.5t-51 -41t-32 -58.5t-11 -67q0 -35 8.5 -64.5t26.5 -61.5l49 -87q29 -51 47 -94.5t18 -90.5q0 -62 -29 -124.5t-80 -113.5
t-120 -83t-150 -32zM368 99q0 -46 -16.5 -98.5t-48.5 -92.5q63 44 93.5 105.5t30.5 121.5q0 48 -18 89.5t-40 79.5l-50 87q-16 27 -25.5 59t-9.5 67q0 42 11 78t41 73q-60 -44 -84.5 -96.5t-24.5 -98.5q0 -35 10.5 -67t26.5 -58l51 -87q23 -41 38 -80.5t15 -81.5z" />
    <glyph glyph-name="dieresis" unicode="&#xa8;" 
d="M117 659q-24 0 -41.5 16.5t-17.5 42.5t17.5 43t41.5 17q25 0 42 -17t17 -43t-17 -42.5t-42 -16.5zM-117 659q-24 0 -41.5 16.5t-17.5 42.5t17.5 43t41.5 17q25 0 42 -17t17 -43t-17 -42.5t-42 -16.5z" />
    <glyph glyph-name="copyright" unicode="&#xa9;" horiz-adv-x="927" 
d="M106 383q0 88 31.5 160.5t85.5 125t126.5 81.5t155.5 29t155.5 -29t126.5 -81.5t85.5 -125t31.5 -160.5t-31.5 -160.5t-85.5 -125t-126.5 -81.5t-155.5 -29t-155.5 29t-126.5 81.5t-85.5 125t-31.5 160.5zM163 383q0 -79 26 -143t72 -109.5t108.5 -70t135.5 -24.5
q72 0 134.5 24.5t108.5 70t72 109.5t26 143t-26 143t-72 109.5t-108.5 70t-134.5 24.5q-73 0 -135.5 -24.5t-108.5 -70t-72 -109.5t-26 -143zM530 196q38 0 69 12t49 46l19 36h23l-28 -110q-26 -9 -61 -14.5t-77 -5.5q-57 0 -103.5 17.5t-79.5 48t-51 71.5t-18 87t19 87
t53 71.5t81 48.5t104 18q41 0 75.5 -5.5t59.5 -14.5l18 -108h-22l-17 35q-17 35 -49 46.5t-73 11.5q-29 0 -56.5 -8t-49 -27.5t-35 -52t-13.5 -81.5q0 -46 10.5 -84.5t31.5 -66t51.5 -43t69.5 -15.5z" />
    <glyph glyph-name="ordfeminine" unicode="&#xaa;" horiz-adv-x="519" 
d="M186 368q-38 0 -55 23t-17 55q0 35 15.5 74.5t41 78.5t58.5 75t67.5 63t67.5 43.5t60 16.5q17 0 29 -7t17 -21l13 37h85l-125 -333q-9 -24 -11 -36t9 -12q8 0 20.5 8.5t27.5 23.5t30.5 35.5t30.5 43.5l25 -14q-49 -77 -97.5 -115.5t-91.5 -38.5q-37 0 -42 23t14 74l18 49
h-1q-45 -65 -92.5 -105.5t-96.5 -40.5zM240 422q14 0 37.5 18t50 49t51.5 71.5t42 84.5l19 50q8 21 8.5 34.5t-3 21.5t-11 11t-16.5 3q-32 0 -67.5 -30t-65 -74.5t-48.5 -97t-19 -97.5q0 -19 4.5 -31.5t17.5 -12.5z" />
    <glyph glyph-name="guillemotleft" unicode="&#xab;" horiz-adv-x="557" 
d="M337 484l21 -22l-196 -216l47 -217l-32 -11l-128 233zM547 484l21 -22l-196 -216l47 -217l-32 -11l-128 233z" />
    <glyph glyph-name="uni00AD" unicode="&#xad;" horiz-adv-x="435" 
d="M86 296h294l-23 -67h-294z" />
    <glyph glyph-name="registered" unicode="&#xae;" horiz-adv-x="927" 
d="M106 383q0 88 31.5 160.5t85.5 125t126.5 81.5t155.5 29t155.5 -29t126.5 -81.5t85.5 -125t31.5 -160.5t-31.5 -160.5t-85.5 -125t-126.5 -81.5t-155.5 -29t-155.5 29t-126.5 81.5t-85.5 125t-31.5 160.5zM163 383q0 -79 26 -143t72 -109.5t108.5 -70t135.5 -24.5
q72 0 134.5 24.5t108.5 70t72 109.5t26 143t-26 143t-72 109.5t-108.5 70t-134.5 24.5q-73 0 -135.5 -24.5t-108.5 -70t-72 -109.5t-26 -143zM687 173q-23 0 -41.5 5t-33 18.5t-25 36.5t-16.5 59q-5 30 -14 47.5t-20.5 27.5t-25 13t-28.5 3h-45v-148q0 -16 5.5 -22.5
t22.5 -8.5l21 -2v-22h-185v22l20 2q17 2 23 8.5t6 22.5v320q0 16 -6 22.5t-23 8.5l-20 2v22h193q41 0 75 -5.5t59 -17.5t38.5 -31.5t13.5 -47.5q0 -86 -125 -104v-1q37 -3 67 -27.5t41 -69.5l8 -31q11 -42 26 -58.5t46 -12.5l3 -20q-16 -6 -29 -8.5t-31 -2.5zM438 413
q12 -1 27 -1h29q27 0 44.5 7t28 18.5t15 27t4.5 32.5q0 38 -21.5 61t-71.5 23h-22q-22 0 -27.5 -2.5t-5.5 -10.5v-155z" />
    <glyph glyph-name="macron" unicode="&#xaf;" 
d="M-138 735h296l-22 -65h-296z" />
    <glyph glyph-name="degree" unicode="&#xb0;" horiz-adv-x="437" 
d="M323 441q-36 0 -67 13t-54 36t-36 54t-13 66t13 66t36 54t54 36t67 13t67 -13t54 -36t36 -54t13 -66t-13 -66t-36 -54t-54 -36t-67 -13zM323 496q22 0 41.5 8t34.5 23t23.5 36t8.5 47q0 25 -8.5 46t-23.5 36t-34.5 23.5t-41.5 8.5t-41.5 -8.5t-34.5 -23.5t-23.5 -36
t-8.5 -46q0 -26 8.5 -47t23.5 -36t34.5 -23t41.5 -8z" />
    <glyph glyph-name="plusminus" unicode="&#xb1;" horiz-adv-x="653" 
d="M275 287h-214v67h214v162h70v-162h213v-67h-213v-167h-70v167zM61 66h497v-66h-497v66z" />
    <glyph glyph-name="uni00B2" unicode="&#xb2;" horiz-adv-x="351" 
d="M66 401l4 13q82 60 139.5 107t94 84t53 66t16.5 53q0 26 -16.5 40t-46.5 14q-24 0 -47 -12.5t-46 -44.5l-22 14q32 48 68.5 71t87.5 23q48 0 74 -23.5t26 -59.5q0 -28 -13.5 -54t-37 -51.5t-56 -50.5t-69.5 -52q-23 -17 -49.5 -35t-52.5 -36h103q21 0 35 2t25 8
t21.5 16.5t22.5 27.5l18 -10l-66 -110h-266z" />
    <glyph glyph-name="uni00B3" unicode="&#xb3;" horiz-adv-x="341" 
d="M204 394q-49 0 -79.5 22t-30.5 53q0 19 12 30t29 11q21 0 28.5 -14t13 -30.5t15.5 -30t36 -13.5q15 0 31 6.5t28.5 19t20.5 32.5t8 47q0 44 -22 66.5t-51 21.5h-8t-10 -1l-3 24l30 7q21 5 41 12t35.5 17t25.5 24t10 32q0 24 -16 36.5t-39 12.5q-21 0 -41 -8t-41 -34
l-19 17q31 41 64.5 58t68.5 17q45 0 71 -21t26 -51q0 -34 -26 -59t-71 -37v-1q26 -17 39.5 -42t13.5 -56q0 -32 -16.5 -62t-43 -53.5t-60.5 -38t-70 -14.5z" />
    <glyph glyph-name="acute" unicode="&#xb4;" 
d="M3 788h142l-1 -4l-271 -175h-20z" />
    <glyph glyph-name="paragraph" unicode="&#xb6;" horiz-adv-x="597" 
d="M94 -189q-40 0 -65 16.5t-25 48.5q0 23 16 37.5t37 14.5q25 0 36.5 -13t24.5 -25q12 -11 26.5 -18t31.5 -7q14 0 29 7t30 23.5t29 42.5t27 65l98 300q-27 -8 -52.5 -12.5t-51.5 -4.5q-43 0 -75 13t-53.5 36.5t-32.5 54.5t-11 67q0 59 28 113.5t80.5 96t128 66.5t170.5 25
h192l-11 -36l-39 -3q-20 -2 -32.5 -4.5t-20.5 -10t-14 -21t-13 -35.5l-179 -550q-12 -36 -24 -68.5t-28.5 -61t-39 -54t-54.5 -47.5q-41 -29 -84.5 -42.5t-78.5 -13.5z" />
    <glyph glyph-name="periodcentered" unicode="&#xb7;" horiz-adv-x="295" 
d="M150 183q-32 0 -55 23t-23 58q0 16 6 30t16.5 24.5t25 16.5t30.5 6q34 0 57 -22.5t23 -54.5q0 -35 -23 -58t-57 -23z" />
    <glyph glyph-name="cedilla" unicode="&#xb8;" 
d="M-78 -261q-45 0 -68 19t-23 41q0 19 16 29.5t39 3.5q2 -32 18 -47.5t42 -15.5q18 0 30 7.5t12 22.5q0 16 -24 37.5t-65 48.5l147 115h43l-102 -81q29 -19 45.5 -40t16.5 -45q0 -16 -9 -33t-26 -30.5t-40.5 -22.5t-51.5 -9z" />
    <glyph glyph-name="uni00B9" unicode="&#xb9;" horiz-adv-x="245" 
d="M254 752h-69l8 23q55 5 86 17.5t54 35.5h23l-132 -387q-2 -7 -1 -9.5t10 -3.5l26 -2l-9 -25h-172l9 26l41 2q10 1 13 3t5 9z" />
    <glyph glyph-name="ordmasculine" unicode="&#xba;" horiz-adv-x="460" 
d="M253 368q-33 0 -57 10.5t-39 27.5t-22.5 39t-7.5 45q0 56 26.5 111t68 98.5t91 70.5t95.5 27q33 0 57 -10.5t39.5 -28t22.5 -39.5t7 -44q0 -56 -26.5 -111t-67.5 -98.5t-91 -70.5t-96 -27zM275 403q35 0 64.5 29.5t50.5 73t33 92t12 86.5q0 78 -49 78q-35 0 -64 -29.5
t-50.5 -73t-33.5 -92.5t-12 -87q0 -77 49 -77z" />
    <glyph glyph-name="guillemotright" unicode="&#xbb;" horiz-adv-x="555" 
d="M10 18l-21 22l196 216l-47 217l32 11l128 -233zM220 18l-21 22l196 216l-47 217l32 11l128 -233z" />
    <glyph glyph-name="onequarter" unicode="&#xbc;" horiz-adv-x="833" 
d="M236 692h-69l8 23q55 5 86 17.5t54 35.5h23l-132 -387q-2 -7 -1 -9.5t10 -3.5l26 -2l-9 -25h-172l9 26l41 2q10 1 13 3t5 9zM770 758h81l-803 -758h-81zM616 111h-189l7 21l297 285h67l-89 -258h75l-16 -48h-76l-38 -111h-77zM632 159l62 178l-185 -178h123z" />
    <glyph glyph-name="onehalf" unicode="&#xbd;" horiz-adv-x="819" 
d="M236 692h-69l8 23q55 5 86 17.5t54 35.5h23l-132 -387q-2 -7 -1 -9.5t10 -3.5l26 -2l-9 -25h-172l9 26l41 2q10 1 13 3t5 9zM770 758h81l-803 -758h-81zM411 0l4 13q82 60 139.5 107t94 84t53 66t16.5 53q0 26 -16.5 40t-46.5 14q-24 0 -47 -12.5t-46 -44.5l-22 14
q32 48 68.5 71t87.5 23q48 0 74 -23.5t26 -59.5q0 -28 -13.5 -54t-37 -51.5t-56 -50.5t-69.5 -52q-23 -17 -49.5 -35t-52.5 -36h103q21 0 35 2t25 8t21.5 16.5t22.5 27.5l18 -10l-66 -110h-266z" />
    <glyph glyph-name="threequarters" unicode="&#xbe;" horiz-adv-x="907" 
d="M186 334q-49 0 -79.5 22t-30.5 53q0 19 12 30t29 11q21 0 28.5 -14t13 -30.5t15.5 -30t36 -13.5q15 0 31 6.5t28.5 19t20.5 32.5t8 47q0 44 -22 66.5t-51 21.5h-8t-10 -1l-3 24l30 7q21 5 41 12t35.5 17t25.5 24t10 32q0 24 -16 36.5t-39 12.5q-21 0 -41 -8t-41 -34
l-19 17q31 41 64.5 58t68.5 17q45 0 71 -21t26 -51q0 -34 -26 -59t-71 -37v-1q26 -17 39.5 -42t13.5 -56q0 -32 -16.5 -62t-43 -53.5t-60.5 -38t-70 -14.5zM844 758h81l-803 -758h-81zM690 111h-189l7 21l297 285h67l-89 -258h75l-16 -48h-76l-38 -111h-77zM706 159l62 178
l-185 -178h123z" />
    <glyph glyph-name="questiondown" unicode="&#xbf;" horiz-adv-x="574" 
d="M348 128q-6 -25 -13 -41t-19 -26.5t-32 -17t-53 -12.5l-80 -14q-74 -13 -104 -35.5t-30 -59.5q0 -24 13 -48.5t36 -45t56 -33t72 -12.5q33 0 56 9t38 35q14 23 33.5 38t45.5 11q24 -4 36 -20.5t9 -36.5t-18 -36t-38.5 -27t-55 -17t-67.5 -6q-62 0 -113 19t-87.5 50
t-56.5 71.5t-20 82.5q0 34 7.5 58.5t24.5 41.5t44.5 27.5t67.5 17.5l142 25q18 3 29.5 6.5t19.5 9.5t14 16t13 27l38 94h31zM408 519q32 0 55 -23t23 -58q0 -16 -6 -30t-16.5 -24.5t-25 -16.5t-30.5 -6q-34 0 -57 22.5t-23 54.5q0 35 23 58t57 23z" />
    <glyph glyph-name="Agrave" unicode="&#xc0;" horiz-adv-x="768" 
d="M-92 31l45 7q14 2 25.5 8t23.5 17.5t27 31t37 48.5l489 646h36l31 -680q1 -19 2.5 -31.5t6.5 -20.5t14 -12t25 -7l41 -7l-9 -31h-285l9 31l46 7q14 2 22.5 5.5t13 9.5t5.5 15t0 24l-9 188h-274l-109 -145q-23 -30 -32.5 -48t-10 -28.5t7 -14.5t19.5 -6l42 -7l-9 -31h-239
zM502 332l-14 290l-219 -290h233zM558 972l58 -129h-19l-194 126l1 3h154z" />
    <glyph glyph-name="Aacute" unicode="&#xc1;" horiz-adv-x="768" 
d="M-92 31l45 7q14 2 25.5 8t23.5 17.5t27 31t37 48.5l489 646h36l31 -680q1 -19 2.5 -31.5t6.5 -20.5t14 -12t25 -7l41 -7l-9 -31h-285l9 31l46 7q14 2 22.5 5.5t13 9.5t5.5 15t0 24l-9 188h-274l-109 -145q-23 -30 -32.5 -48t-10 -28.5t7 -14.5t19.5 -6l42 -7l-9 -31h-239
zM502 332l-14 290l-219 -290h233zM830 969l-284 -126h-23l137 129h171z" />
    <glyph glyph-name="Acircumflex" unicode="&#xc2;" horiz-adv-x="768" 
d="M-92 31l45 7q14 2 25.5 8t23.5 17.5t27 31t37 48.5l489 646h36l31 -680q1 -19 2.5 -31.5t6.5 -20.5t14 -12t25 -7l41 -7l-9 -31h-285l9 31l46 7q14 2 22.5 5.5t13 9.5t5.5 15t0 24l-9 188h-274l-109 -145q-23 -30 -32.5 -48t-10 -28.5t7 -14.5t19.5 -6l42 -7l-9 -31h-239
zM502 332l-14 290l-219 -290h233zM633 983l97 -150h-20l-103 66l-194 -66h-29l233 150h16z" />
    <glyph glyph-name="Atilde" unicode="&#xc3;" horiz-adv-x="768" 
d="M-92 31l45 7q14 2 25.5 8t23.5 17.5t27 31t37 48.5l489 646h36l31 -680q1 -19 2.5 -31.5t6.5 -20.5t14 -12t25 -7l41 -7l-9 -31h-285l9 31l46 7q14 2 22.5 5.5t13 9.5t5.5 15t0 24l-9 188h-274l-109 -145q-23 -30 -32.5 -48t-10 -28.5t7 -14.5t19.5 -6l42 -7l-9 -31h-239
zM502 332l-14 290l-219 -290h233zM388 833q13 67 42.5 104.5t78.5 37.5q24 0 45 -11t40.5 -24t38.5 -24t40 -11q23 0 41 12.5t28 54.5h23q-12 -77 -40 -107t-71 -30q-26 0 -46 11t-38.5 23.5t-37 23.5t-40.5 11q-27 0 -49.5 -14.5t-33.5 -56.5h-21z" />
    <glyph glyph-name="Adieresis" unicode="&#xc4;" horiz-adv-x="768" 
d="M-92 31l45 7q14 2 25.5 8t23.5 17.5t27 31t37 48.5l489 646h36l31 -680q1 -19 2.5 -31.5t6.5 -20.5t14 -12t25 -7l41 -7l-9 -31h-285l9 31l46 7q14 2 22.5 5.5t13 9.5t5.5 15t0 24l-9 188h-274l-109 -145q-23 -30 -32.5 -48t-10 -28.5t7 -14.5t19.5 -6l42 -7l-9 -31h-239
zM502 332l-14 290l-219 -290h233zM458 845q-26 0 -43.5 17.5t-17.5 43.5q0 28 17.5 45.5t43.5 17.5t43.5 -17.5t17.5 -45.5q0 -26 -17.5 -43.5t-43.5 -17.5zM710 845q-26 0 -43.5 17.5t-17.5 43.5q0 28 17.5 45.5t43.5 17.5t43.5 -17.5t17.5 -45.5q0 -26 -17.5 -43.5
t-43.5 -17.5z" />
    <glyph glyph-name="Aring" unicode="&#xc5;" horiz-adv-x="768" 
d="M-92 31l45 7q14 2 25.5 8t23.5 17.5t27 31t37 48.5l489 646h36l31 -680q1 -19 2.5 -31.5t6.5 -20.5t14 -12t25 -7l41 -7l-9 -31h-285l9 31l46 7q14 2 22.5 5.5t13 9.5t5.5 15t0 24l-9 188h-274l-109 -145q-23 -30 -32.5 -48t-10 -28.5t7 -14.5t19.5 -6l42 -7l-9 -31h-239
zM502 332l-14 290l-219 -290h233zM479 963q0 25 9.5 46.5t26.5 38t39 26t48 9.5t49 -9.5t40 -26t26.5 -38t9.5 -46.5t-9.5 -46.5t-26.5 -37.5t-40 -25t-49 -9t-48 9t-39 25t-26.5 37.5t-9.5 46.5zM672 963q0 32 -18.5 51t-51.5 19q-32 0 -50 -19t-18 -51t18 -50.5t50 -18.5
q33 0 51.5 18.5t18.5 50.5z" />
    <glyph glyph-name="AE" unicode="&#xc6;" horiz-adv-x="1158" 
d="M-88 31l45 7q28 5 65 29t89 76l613 615h200l297 2l-48 -184h-28v47q0 33 -6.5 52t-28 28t-61.5 11t-107 2h-100q-20 0 -26 -20l-87 -286h145q21 0 36.5 1t28.5 8t25 21.5t26 40.5l21 40h27l-83 -271h-27l4 40q3 25 -0.5 39.5t-12.5 21.5t-24 8.5t-35 1.5h-146l-75 -245
q-8 -26 -7 -41t10 -22.5t26.5 -9t43.5 -1.5h41q67 0 110 3.5t72 12.5t50 26t45 44l63 73h28l-113 -201h-602l10 31l37 5q20 3 31.5 6t18 10.5t11.5 21t12 36.5l52 170h-265l-144 -145q-53 -53 -68 -73t11 -24l42 -7l-10 -31h-241zM594 332l102 334l-332 -334h230z" />
    <glyph glyph-name="Ccedilla" unicode="&#xc7;" horiz-adv-x="792" 
d="M408 -13q-69 0 -129.5 20t-104.5 59.5t-69.5 97.5t-25.5 133q0 66 21 128t58.5 115.5t89 97.5t111.5 75.5t126.5 48.5t134.5 17q58 0 116 -8t96 -23l-11 -187h-28l-31 99q-8 24 -21 38t-32 21.5t-42.5 10t-50.5 2.5q-76 0 -149.5 -31.5t-131 -90t-93 -142.5t-35.5 -188
q0 -64 17 -110.5t47.5 -77t73 -45t92.5 -14.5q33 0 58 5t46.5 16t42 28t46.5 41l97 89h28l-99 -179q-49 -17 -109.5 -31.5t-138.5 -14.5zM264 -261q-45 0 -68 19t-23 41q0 19 16 29.5t39 3.5q2 -32 18 -47.5t42 -15.5q18 0 30 7.5t12 22.5q0 16 -24 37.5t-65 48.5l147 115
h44l-103 -81q29 -19 45.5 -40t16.5 -45q0 -16 -9 -33t-26 -30.5t-40.5 -22.5t-51.5 -9z" />
    <glyph glyph-name="Egrave" unicode="&#xc8;" horiz-adv-x="734" 
d="M506 758l291 2l-47 -184h-28v46q0 33 -6.5 52t-26.5 28.5t-58.5 11.5t-102.5 2h-109q-21 0 -27 -20l-87 -286h145q21 0 37 1.5t29 8t25 21t26 40.5l21 40h27l-83 -271h-27l3 40q2 26 -1.5 40.5t-12.5 21t-23.5 8t-35.5 1.5h-145l-75 -245q-8 -26 -7 -41t10 -22.5t26.5 -9
t43.5 -1.5h45q67 0 109.5 3.5t71 13t49 26.5t44.5 44l63 72h27l-113 -201h-601l9 31l46 7q14 2 23.5 5t15.5 9t10.5 15.5t9.5 24.5l176 574q10 31 4.5 40t-30.5 14l-41 7l9 31h291zM558 972l58 -129h-19l-194 126l1 3h154z" />
    <glyph glyph-name="Eacute" unicode="&#xc9;" horiz-adv-x="734" 
d="M506 758l291 2l-47 -184h-28v46q0 33 -6.5 52t-26.5 28.5t-58.5 11.5t-102.5 2h-109q-21 0 -27 -20l-87 -286h145q21 0 37 1.5t29 8t25 21t26 40.5l21 40h27l-83 -271h-27l3 40q2 26 -1.5 40.5t-12.5 21t-23.5 8t-35.5 1.5h-145l-75 -245q-8 -26 -7 -41t10 -22.5t26.5 -9
t43.5 -1.5h45q67 0 109.5 3.5t71 13t49 26.5t44.5 44l63 72h27l-113 -201h-601l9 31l46 7q14 2 23.5 5t15.5 9t10.5 15.5t9.5 24.5l176 574q10 31 4.5 40t-30.5 14l-41 7l9 31h291zM830 969l-284 -126h-23l137 129h171z" />
    <glyph glyph-name="Ecircumflex" unicode="&#xca;" horiz-adv-x="734" 
d="M506 758l291 2l-47 -184h-28v46q0 33 -6.5 52t-26.5 28.5t-58.5 11.5t-102.5 2h-109q-21 0 -27 -20l-87 -286h145q21 0 37 1.5t29 8t25 21t26 40.5l21 40h27l-83 -271h-27l3 40q2 26 -1.5 40.5t-12.5 21t-23.5 8t-35.5 1.5h-145l-75 -245q-8 -26 -7 -41t10 -22.5t26.5 -9
t43.5 -1.5h45q67 0 109.5 3.5t71 13t49 26.5t44.5 44l63 72h27l-113 -201h-601l9 31l46 7q14 2 23.5 5t15.5 9t10.5 15.5t9.5 24.5l176 574q10 31 4.5 40t-30.5 14l-41 7l9 31h291zM633 983l97 -150h-20l-103 66l-194 -66h-29l233 150h16z" />
    <glyph glyph-name="Edieresis" unicode="&#xcb;" horiz-adv-x="734" 
d="M506 758l291 2l-47 -184h-28v46q0 33 -6.5 52t-26.5 28.5t-58.5 11.5t-102.5 2h-109q-21 0 -27 -20l-87 -286h145q21 0 37 1.5t29 8t25 21t26 40.5l21 40h27l-83 -271h-27l3 40q2 26 -1.5 40.5t-12.5 21t-23.5 8t-35.5 1.5h-145l-75 -245q-8 -26 -7 -41t10 -22.5t26.5 -9
t43.5 -1.5h45q67 0 109.5 3.5t71 13t49 26.5t44.5 44l63 72h27l-113 -201h-601l9 31l46 7q14 2 23.5 5t15.5 9t10.5 15.5t9.5 24.5l176 574q10 31 4.5 40t-30.5 14l-41 7l9 31h291zM458 845q-26 0 -43.5 17.5t-17.5 43.5q0 28 17.5 45.5t43.5 17.5t43.5 -17.5t17.5 -45.5
q0 -26 -17.5 -43.5t-43.5 -17.5zM710 845q-26 0 -43.5 17.5t-17.5 43.5q0 28 17.5 45.5t43.5 17.5t43.5 -17.5t17.5 -45.5q0 -26 -17.5 -43.5t-43.5 -17.5z" />
    <glyph glyph-name="Igrave" unicode="&#xcc;" horiz-adv-x="402" 
d="M273 666q10 31 4.5 40t-30.5 14l-41 7l9 31h283l-10 -31l-46 -7q-14 -2 -23 -5t-15.5 -8.5t-11 -15t-8.5 -24.5l-176 -576q-9 -30 -4.5 -39.5t29.5 -13.5l42 -7l-9 -31h-283l9 31l46 7q14 2 23.5 5t15.5 9t10.5 15.5t9.5 24.5zM374 972l58 -129h-19l-194 126l1 3h154z
" />
    <glyph glyph-name="Iacute" unicode="&#xcd;" horiz-adv-x="402" 
d="M273 666q10 31 4.5 40t-30.5 14l-41 7l9 31h283l-10 -31l-46 -7q-14 -2 -23 -5t-15.5 -8.5t-11 -15t-8.5 -24.5l-176 -576q-9 -30 -4.5 -39.5t29.5 -13.5l42 -7l-9 -31h-283l9 31l46 7q14 2 23.5 5t15.5 9t10.5 15.5t9.5 24.5zM646 969l-284 -126h-23l137 129h171z" />
    <glyph glyph-name="Icircumflex" unicode="&#xce;" horiz-adv-x="402" 
d="M273 666q10 31 4.5 40t-30.5 14l-41 7l9 31h283l-10 -31l-46 -7q-14 -2 -23 -5t-15.5 -8.5t-11 -15t-8.5 -24.5l-176 -576q-9 -30 -4.5 -39.5t29.5 -13.5l42 -7l-9 -31h-283l9 31l46 7q14 2 23.5 5t15.5 9t10.5 15.5t9.5 24.5zM449 983l97 -150h-20l-103 66l-194 -66h-29
l233 150h16z" />
    <glyph glyph-name="Idieresis" unicode="&#xcf;" horiz-adv-x="402" 
d="M273 666q10 31 4.5 40t-30.5 14l-41 7l9 31h283l-10 -31l-46 -7q-14 -2 -23 -5t-15.5 -8.5t-11 -15t-8.5 -24.5l-176 -576q-9 -30 -4.5 -39.5t29.5 -13.5l42 -7l-9 -31h-283l9 31l46 7q14 2 23.5 5t15.5 9t10.5 15.5t9.5 24.5zM274 845q-26 0 -43.5 17.5t-17.5 43.5
q0 28 17.5 45.5t43.5 17.5t43.5 -17.5t17.5 -45.5q0 -26 -17.5 -43.5t-43.5 -17.5zM526 845q-26 0 -43.5 17.5t-17.5 43.5q0 28 17.5 45.5t43.5 17.5t43.5 -17.5t17.5 -45.5q0 -26 -17.5 -43.5t-43.5 -17.5z" />
    <glyph glyph-name="Eth" unicode="&#xd0;" horiz-adv-x="869" 
d="M-8 31l46 7q14 2 23.5 5t15.5 9t10.5 15.5t9.5 24.5l176 574q10 31 4.5 40t-30.5 14l-41 7l9 31h279q88 0 158.5 -20.5t119.5 -58.5t75 -91t26 -118q0 -88 -41 -172.5t-117.5 -150.5t-184.5 -106.5t-242 -40.5h-305zM306 42q115 0 198.5 39t136.5 103t78.5 145.5
t25.5 165.5q0 115 -67.5 168t-200.5 53q-28 0 -44 -0.5t-24 -3t-11.5 -6.5t-5.5 -11l-178 -582q-7 -22 -7.5 -35.5t6.5 -21.5t22.5 -11t41.5 -3h29zM100 411h378l-15 -50h-378z" />
    <glyph glyph-name="Ntilde" unicode="&#xd1;" horiz-adv-x="921" 
d="M316 607l-130 -424q-15 -50 -22 -78t-6.5 -42.5t7.5 -18.5t19 -6l43 -7l-10 -31h-227l9 31l46 7q14 2 23.5 6.5t19 18.5t20 42t25.5 78l128 419q19 62 -2 92t-64 33l9 31h147l357 -593l126 410q15 50 22 78t6.5 42t-7.5 18.5t-20 6.5l-42 7l9 31h228l-9 -31l-47 -7
q-14 -2 -23.5 -6.5t-18.5 -18.5t-19.5 -42t-25.5 -78l-177 -579h-30zM453 833q13 67 42.5 104.5t78.5 37.5q24 0 45 -11t40.5 -24t38.5 -24t40 -11q23 0 41 12.5t28 54.5h23q-12 -77 -40 -107t-71 -30q-26 0 -46 11t-38.5 23.5t-37 23.5t-40.5 11q-27 0 -49.5 -14.5
t-33.5 -56.5h-21z" />
    <glyph glyph-name="Ograve" unicode="&#xd2;" horiz-adv-x="891" 
d="M407 -13q-71 0 -130.5 23t-103 64.5t-67.5 99t-24 127.5q0 60 18 119t50.5 112t77.5 98.5t98.5 78.5t114.5 51.5t126 18.5q70 0 130 -23t103 -64.5t67.5 -99t24.5 -127.5q0 -60 -18 -119t-50.5 -112t-77.5 -98.5t-98.5 -78.5t-115 -51.5t-125.5 -18.5zM412 34
q59 0 108 21.5t88 57t68.5 82t49 97.5t29 102.5t9.5 97.5q0 63 -15.5 108.5t-42.5 74.5t-64 43t-81 14q-59 0 -107.5 -21.5t-87.5 -57t-68.5 -82t-49 -97.5t-29 -103t-9.5 -97q0 -63 15 -108.5t42 -74.5t64 -43t81 -14zM578 972l58 -129h-19l-194 126l1 3h154z" />
    <glyph glyph-name="Oacute" unicode="&#xd3;" horiz-adv-x="891" 
d="M407 -13q-71 0 -130.5 23t-103 64.5t-67.5 99t-24 127.5q0 60 18 119t50.5 112t77.5 98.5t98.5 78.5t114.5 51.5t126 18.5q70 0 130 -23t103 -64.5t67.5 -99t24.5 -127.5q0 -60 -18 -119t-50.5 -112t-77.5 -98.5t-98.5 -78.5t-115 -51.5t-125.5 -18.5zM412 34
q59 0 108 21.5t88 57t68.5 82t49 97.5t29 102.5t9.5 97.5q0 63 -15.5 108.5t-42.5 74.5t-64 43t-81 14q-59 0 -107.5 -21.5t-87.5 -57t-68.5 -82t-49 -97.5t-29 -103t-9.5 -97q0 -63 15 -108.5t42 -74.5t64 -43t81 -14zM851 969l-284 -126h-23l137 129h171z" />
    <glyph glyph-name="Ocircumflex" unicode="&#xd4;" horiz-adv-x="891" 
d="M407 -13q-71 0 -130.5 23t-103 64.5t-67.5 99t-24 127.5q0 60 18 119t50.5 112t77.5 98.5t98.5 78.5t114.5 51.5t126 18.5q70 0 130 -23t103 -64.5t67.5 -99t24.5 -127.5q0 -60 -18 -119t-50.5 -112t-77.5 -98.5t-98.5 -78.5t-115 -51.5t-125.5 -18.5zM412 34
q59 0 108 21.5t88 57t68.5 82t49 97.5t29 102.5t9.5 97.5q0 63 -15.5 108.5t-42.5 74.5t-64 43t-81 14q-59 0 -107.5 -21.5t-87.5 -57t-68.5 -82t-49 -97.5t-29 -103t-9.5 -97q0 -63 15 -108.5t42 -74.5t64 -43t81 -14zM653 983l97 -150h-20l-103 66l-194 -66h-29l233 150
h16z" />
    <glyph glyph-name="Otilde" unicode="&#xd5;" horiz-adv-x="891" 
d="M407 -13q-71 0 -130.5 23t-103 64.5t-67.5 99t-24 127.5q0 60 18 119t50.5 112t77.5 98.5t98.5 78.5t114.5 51.5t126 18.5q70 0 130 -23t103 -64.5t67.5 -99t24.5 -127.5q0 -60 -18 -119t-50.5 -112t-77.5 -98.5t-98.5 -78.5t-115 -51.5t-125.5 -18.5zM412 34
q59 0 108 21.5t88 57t68.5 82t49 97.5t29 102.5t9.5 97.5q0 63 -15.5 108.5t-42.5 74.5t-64 43t-81 14q-59 0 -107.5 -21.5t-87.5 -57t-68.5 -82t-49 -97.5t-29 -103t-9.5 -97q0 -63 15 -108.5t42 -74.5t64 -43t81 -14zM408 833q13 67 42.5 104.5t78.5 37.5q24 0 45 -11
t40.5 -24t38.5 -24t40 -11q23 0 41 12.5t28 54.5h23q-12 -77 -40 -107t-71 -30q-26 0 -46 11t-38.5 23.5t-37 23.5t-40.5 11q-27 0 -49.5 -14.5t-33.5 -56.5h-21z" />
    <glyph glyph-name="Odieresis" unicode="&#xd6;" horiz-adv-x="891" 
d="M407 -13q-71 0 -130.5 23t-103 64.5t-67.5 99t-24 127.5q0 60 18 119t50.5 112t77.5 98.5t98.5 78.5t114.5 51.5t126 18.5q70 0 130 -23t103 -64.5t67.5 -99t24.5 -127.5q0 -60 -18 -119t-50.5 -112t-77.5 -98.5t-98.5 -78.5t-115 -51.5t-125.5 -18.5zM412 34
q59 0 108 21.5t88 57t68.5 82t49 97.5t29 102.5t9.5 97.5q0 63 -15.5 108.5t-42.5 74.5t-64 43t-81 14q-59 0 -107.5 -21.5t-87.5 -57t-68.5 -82t-49 -97.5t-29 -103t-9.5 -97q0 -63 15 -108.5t42 -74.5t64 -43t81 -14zM478 845q-26 0 -43.5 17.5t-17.5 43.5q0 28 17.5 45.5
t43.5 17.5t43.5 -17.5t17.5 -45.5q0 -26 -17.5 -43.5t-43.5 -17.5zM730 845q-26 0 -43.5 17.5t-17.5 43.5q0 28 17.5 45.5t43.5 17.5t43.5 -17.5t17.5 -45.5q0 -26 -17.5 -43.5t-43.5 -17.5z" />
    <glyph glyph-name="multiply" unicode="&#xd7;" horiz-adv-x="653" 
d="M95 73l189 189l-189 189l46 46l189 -189l189 189l46 -46l-189 -189l189 -189l-46 -45l-189 189l-189 -189z" />
    <glyph glyph-name="Oslash" unicode="&#xd8;" horiz-adv-x="891" 
d="M407 -13q-71 0 -130.5 23t-103 64.5t-67.5 99t-24 127.5q0 60 18 119t50.5 112t77.5 98.5t98.5 78.5t114.5 51.5t126 18.5q70 0 130 -23t103 -64.5t67.5 -99t24.5 -127.5q0 -60 -18 -119t-50.5 -112t-77.5 -98.5t-98.5 -78.5t-115 -51.5t-125.5 -18.5zM412 34
q59 0 108 21.5t88 57t68.5 82t49 97.5t29 102.5t9.5 97.5q0 63 -15.5 108.5t-42.5 74.5t-64 43t-81 14q-59 0 -107.5 -21.5t-87.5 -57t-68.5 -82t-49 -97.5t-29 -103t-9.5 -97q0 -63 15 -108.5t42 -74.5t64 -43t81 -14zM901 825l35 -36l-908 -848l-35 36z" />
    <glyph glyph-name="Ugrave" unicode="&#xd9;" horiz-adv-x="866" 
d="M380 -13q-73 0 -130 16t-90 54t-38.5 101t23.5 157l108 351q10 31 4.5 40t-30.5 14l-41 7l9 31h283l-9 -31l-47 -7q-14 -2 -23 -5t-15.5 -8.5t-11 -15t-8.5 -24.5l-108 -353q-24 -80 -23 -132.5t22 -83.5t58 -44t84 -13q51 0 97 12.5t85.5 43.5t72.5 84t58 133l80 261
q15 50 22 78t6.5 42t-8 18.5t-20.5 6.5l-41 7l9 31h228l-9 -31l-47 -7q-14 -2 -23.5 -6.5t-18.5 -18.5t-19.5 -42t-25.5 -78l-80 -261q-28 -92 -65.5 -154.5t-84.5 -100.5t-105 -55t-128 -17zM627 972l58 -129h-19l-194 126l1 3h154z" />
    <glyph glyph-name="Uacute" unicode="&#xda;" horiz-adv-x="866" 
d="M380 -13q-73 0 -130 16t-90 54t-38.5 101t23.5 157l108 351q10 31 4.5 40t-30.5 14l-41 7l9 31h283l-9 -31l-47 -7q-14 -2 -23 -5t-15.5 -8.5t-11 -15t-8.5 -24.5l-108 -353q-24 -80 -23 -132.5t22 -83.5t58 -44t84 -13q51 0 97 12.5t85.5 43.5t72.5 84t58 133l80 261
q15 50 22 78t6.5 42t-8 18.5t-20.5 6.5l-41 7l9 31h228l-9 -31l-47 -7q-14 -2 -23.5 -6.5t-18.5 -18.5t-19.5 -42t-25.5 -78l-80 -261q-28 -92 -65.5 -154.5t-84.5 -100.5t-105 -55t-128 -17zM899 969l-284 -126h-23l137 129h171z" />
    <glyph glyph-name="Ucircumflex" unicode="&#xdb;" horiz-adv-x="866" 
d="M380 -13q-73 0 -130 16t-90 54t-38.5 101t23.5 157l108 351q10 31 4.5 40t-30.5 14l-41 7l9 31h283l-9 -31l-47 -7q-14 -2 -23 -5t-15.5 -8.5t-11 -15t-8.5 -24.5l-108 -353q-24 -80 -23 -132.5t22 -83.5t58 -44t84 -13q51 0 97 12.5t85.5 43.5t72.5 84t58 133l80 261
q15 50 22 78t6.5 42t-8 18.5t-20.5 6.5l-41 7l9 31h228l-9 -31l-47 -7q-14 -2 -23.5 -6.5t-18.5 -18.5t-19.5 -42t-25.5 -78l-80 -261q-28 -92 -65.5 -154.5t-84.5 -100.5t-105 -55t-128 -17zM701 983l97 -150h-20l-103 66l-194 -66h-29l233 150h16z" />
    <glyph glyph-name="Udieresis" unicode="&#xdc;" horiz-adv-x="866" 
d="M380 -13q-73 0 -130 16t-90 54t-38.5 101t23.5 157l108 351q10 31 4.5 40t-30.5 14l-41 7l9 31h283l-9 -31l-47 -7q-14 -2 -23 -5t-15.5 -8.5t-11 -15t-8.5 -24.5l-108 -353q-24 -80 -23 -132.5t22 -83.5t58 -44t84 -13q51 0 97 12.5t85.5 43.5t72.5 84t58 133l80 261
q15 50 22 78t6.5 42t-8 18.5t-20.5 6.5l-41 7l9 31h228l-9 -31l-47 -7q-14 -2 -23.5 -6.5t-18.5 -18.5t-19.5 -42t-25.5 -78l-80 -261q-28 -92 -65.5 -154.5t-84.5 -100.5t-105 -55t-128 -17zM527 845q-26 0 -43.5 17.5t-17.5 43.5q0 28 17.5 45.5t43.5 17.5t43.5 -17.5
t17.5 -45.5q0 -26 -17.5 -43.5t-43.5 -17.5zM779 845q-26 0 -43.5 17.5t-17.5 43.5q0 28 17.5 45.5t43.5 17.5t43.5 -17.5t17.5 -45.5q0 -26 -17.5 -43.5t-43.5 -17.5z" />
    <glyph glyph-name="Yacute" unicode="&#xdd;" horiz-adv-x="778" 
d="M149 33l75 7q28 2 39 11.5t20 39.5l74 243l-122 315q-11 29 -20 47.5t-35 23.5l-40 7l10 31h287l-10 -31l-46 -7q-28 -5 -37.5 -16t1.5 -38l109 -281l246 238q27 26 40.5 43.5t16.5 28.5t-3.5 17t-19.5 8l-41 7l10 31h242l-9 -31l-46 -7q-14 -2 -26 -9t-26 -19.5
t-32.5 -31.5t-45.5 -45l-293 -282l-74 -242q-9 -30 -4 -39.5t31 -11.5l71 -7l-10 -33h-343zM848 969l-284 -126h-23l137 129h171z" />
    <glyph glyph-name="Thorn" unicode="&#xde;" horiz-adv-x="729" 
d="M-8 31l46 7q14 2 23.5 5t15.5 9t10.5 15.5t9.5 24.5l176 574q10 31 4.5 40t-30.5 14l-41 7l9 31h283l-10 -31l-46 -7q-23 -4 -35 -10.5t-18 -26.5l-26 -86h125q52 0 97.5 -9t80 -29t54.5 -52t20 -77q0 -48 -22 -93t-67 -80t-113 -56t-160 -21h-143l-27 -89
q-9 -30 -4.5 -39.5t30.5 -11.5l72 -7l-10 -33h-313zM247 217h133q63 0 107 19t71.5 49.5t40.5 68t13 74.5q0 130 -151 130h-60q-32 0 -43 -4t-15 -20z" />
    <glyph glyph-name="germandbls" unicode="&#xdf;" horiz-adv-x="647" 
d="M-157 -263q-16 0 -32 4.5t-29 13t-21 20t-8 26.5q0 17 12.5 31.5t33.5 14.5q16 0 27.5 -9.5t22.5 -21.5t23 -21.5t29 -9.5q15 0 28.5 12t29.5 43t36.5 85t49.5 139l128 372h-97l9 25l110 36l4 11q22 61 58.5 115t83 94t100.5 63.5t110 23.5q37 0 62.5 -7.5t42 -20.5
t24 -30t7.5 -36q0 -36 -21.5 -71.5t-54.5 -55.5l-91 -54q-29 -17 -46 -33t-17 -43q0 -15 10.5 -35.5t35.5 -52.5l17 -22q31 -40 48 -74t17 -72q0 -36 -19.5 -73.5t-53.5 -68t-80.5 -49.5t-100.5 -19q-29 0 -54.5 6t-44.5 17.5t-29.5 27t-10.5 33.5q0 20 13.5 35t38.5 15
q24 0 35 -14.5t19 -32t20 -32t39 -14.5q26 0 50 9.5t42 26t28.5 40t10.5 52.5q0 30 -11 56t-31 52l-18 23q-27 35 -47 66t-20 62q0 19 7.5 35.5t23.5 32.5t41 33.5t61 39.5q56 35 76.5 71t20.5 72q0 30 -19.5 47t-55.5 17q-27 0 -54.5 -11t-54 -36.5t-50.5 -66t-44 -99.5
l-166 -482q-30 -88 -66.5 -150.5t-76.5 -102.5t-81 -59t-80 -19z" />
    <glyph glyph-name="agrave" unicode="&#xe0;" horiz-adv-x="567" 
d="M82 -13q-44 0 -64 28.5t-20 66.5q0 43 19.5 92.5t51 98t72.5 93t83.5 78.5t84 54.5t74.5 20.5q18 0 33.5 -8.5t20.5 -27.5l16 44h95l-156 -412q-11 -29 -13.5 -45t9.5 -16q10 0 27 11.5t36.5 31t40 45t38.5 53.5l28 -17q-60 -94 -119.5 -142.5t-109.5 -48.5
q-46 0 -49.5 28t17.5 88l23 64h-1q-27 -35 -55.5 -67.5t-58.5 -57.5t-61 -40t-62 -15zM145 50q16 0 46 22t63.5 59.5t66 87.5t54.5 107l27 69q10 25 10.5 41.5t-5 26.5t-15 14t-19.5 4q-40 0 -85 -36.5t-83.5 -92t-63.5 -121t-25 -124.5q0 -23 6 -40t23 -17zM418 609
l-149 175l1 4h118l44 -179h-14z" />
    <glyph glyph-name="aacute" unicode="&#xe1;" horiz-adv-x="567" 
d="M82 -13q-44 0 -64 28.5t-20 66.5q0 43 19.5 92.5t51 98t72.5 93t83.5 78.5t84 54.5t74.5 20.5q18 0 33.5 -8.5t20.5 -27.5l16 44h95l-156 -412q-11 -29 -13.5 -45t9.5 -16q10 0 27 11.5t36.5 31t40 45t38.5 53.5l28 -17q-60 -94 -119.5 -142.5t-109.5 -48.5
q-46 0 -49.5 28t17.5 88l23 64h-1q-27 -35 -55.5 -67.5t-58.5 -57.5t-61 -40t-62 -15zM145 50q16 0 46 22t63.5 59.5t66 87.5t54.5 107l27 69q10 25 10.5 41.5t-5 26.5t-15 14t-19.5 4q-40 0 -85 -36.5t-83.5 -92t-63.5 -121t-25 -124.5q0 -23 6 -40t23 -17zM545 788h142
l-1 -4l-271 -175h-20z" />
    <glyph glyph-name="acircumflex" unicode="&#xe2;" horiz-adv-x="567" 
d="M82 -13q-44 0 -64 28.5t-20 66.5q0 43 19.5 92.5t51 98t72.5 93t83.5 78.5t84 54.5t74.5 20.5q18 0 33.5 -8.5t20.5 -27.5l16 44h95l-156 -412q-11 -29 -13.5 -45t9.5 -16q10 0 27 11.5t36.5 31t40 45t38.5 53.5l28 -17q-60 -94 -119.5 -142.5t-109.5 -48.5
q-46 0 -49.5 28t17.5 88l23 64h-1q-27 -35 -55.5 -67.5t-58.5 -57.5t-61 -40t-62 -15zM145 50q16 0 46 22t63.5 59.5t66 87.5t54.5 107l27 69q10 25 10.5 41.5t-5 26.5t-15 14t-19.5 4q-40 0 -85 -36.5t-83.5 -92t-63.5 -121t-25 -124.5q0 -23 6 -40t23 -17zM579 609h-17
l-89 94l-201 -94h-23l244 197h12z" />
    <glyph glyph-name="atilde" unicode="&#xe3;" horiz-adv-x="567" 
d="M82 -13q-44 0 -64 28.5t-20 66.5q0 43 19.5 92.5t51 98t72.5 93t83.5 78.5t84 54.5t74.5 20.5q18 0 33.5 -8.5t20.5 -27.5l16 44h95l-156 -412q-11 -29 -13.5 -45t9.5 -16q10 0 27 11.5t36.5 31t40 45t38.5 53.5l28 -17q-60 -94 -119.5 -142.5t-109.5 -48.5
q-46 0 -49.5 28t17.5 88l23 64h-1q-27 -35 -55.5 -67.5t-58.5 -57.5t-61 -40t-62 -15zM145 50q16 0 46 22t63.5 59.5t66 87.5t54.5 107l27 69q10 25 10.5 41.5t-5 26.5t-15 14t-19.5 4q-40 0 -85 -36.5t-83.5 -92t-63.5 -121t-25 -124.5q0 -23 6 -40t23 -17zM266 647
q13 67 42.5 104.5t78.5 37.5q24 0 45 -11t40.5 -24t38.5 -24t40 -11q23 0 41 12.5t28 54.5h23q-12 -77 -40 -107t-71 -30q-26 0 -46 11t-38.5 23.5t-37 23.5t-40.5 11q-27 0 -49.5 -14.5t-33.5 -56.5h-21z" />
    <glyph glyph-name="adieresis" unicode="&#xe4;" horiz-adv-x="567" 
d="M82 -13q-44 0 -64 28.5t-20 66.5q0 43 19.5 92.5t51 98t72.5 93t83.5 78.5t84 54.5t74.5 20.5q18 0 33.5 -8.5t20.5 -27.5l16 44h95l-156 -412q-11 -29 -13.5 -45t9.5 -16q10 0 27 11.5t36.5 31t40 45t38.5 53.5l28 -17q-60 -94 -119.5 -142.5t-109.5 -48.5
q-46 0 -49.5 28t17.5 88l23 64h-1q-27 -35 -55.5 -67.5t-58.5 -57.5t-61 -40t-62 -15zM145 50q16 0 46 22t63.5 59.5t66 87.5t54.5 107l27 69q10 25 10.5 41.5t-5 26.5t-15 14t-19.5 4q-40 0 -85 -36.5t-83.5 -92t-63.5 -121t-25 -124.5q0 -23 6 -40t23 -17zM579 659
q-24 0 -41.5 16.5t-17.5 42.5t17.5 43t41.5 17q25 0 42 -17t17 -43t-17 -42.5t-42 -16.5zM345 659q-24 0 -41.5 16.5t-17.5 42.5t17.5 43t41.5 17q25 0 42 -17t17 -43t-17 -42.5t-42 -16.5z" />
    <glyph glyph-name="aring" unicode="&#xe5;" horiz-adv-x="567" 
d="M82 -13q-44 0 -64 28.5t-20 66.5q0 43 19.5 92.5t51 98t72.5 93t83.5 78.5t84 54.5t74.5 20.5q18 0 33.5 -8.5t20.5 -27.5l16 44h95l-156 -412q-11 -29 -13.5 -45t9.5 -16q10 0 27 11.5t36.5 31t40 45t38.5 53.5l28 -17q-60 -94 -119.5 -142.5t-109.5 -48.5
q-46 0 -49.5 28t17.5 88l23 64h-1q-27 -35 -55.5 -67.5t-58.5 -57.5t-61 -40t-62 -15zM145 50q16 0 46 22t63.5 59.5t66 87.5t54.5 107l27 69q10 25 10.5 41.5t-5 26.5t-15 14t-19.5 4q-40 0 -85 -36.5t-83.5 -92t-63.5 -121t-25 -124.5q0 -23 6 -40t23 -17zM334 706
q0 25 9.5 46.5t26.5 38t39 26t48 9.5t49 -9.5t40 -26t26.5 -38t9.5 -46.5t-9.5 -46.5t-26.5 -37.5t-40 -25t-49 -9t-48 9t-39 25t-26.5 37.5t-9.5 46.5zM527 706q0 32 -18.5 50.5t-51.5 18.5q-32 0 -50 -18.5t-18 -50.5t18 -51t50 -19q33 0 51.5 19t18.5 51z" />
    <glyph glyph-name="ae" unicode="&#xe6;" horiz-adv-x="721" 
d="M96 -13q-45 0 -71.5 25.5t-26.5 77.5q0 45 20.5 94t59 96.5t94 91t126 76t155 52t181.5 19.5q46 0 71 -21t25 -56q0 -44 -21.5 -73.5t-48.5 -48.5q-22 -6 -52 -14t-63 -15.5l-66 -15t-61 -13.5q-14 -53 -14 -107q0 -48 16 -75.5t52 -27.5q41 0 78 35t76 95l27 -18
q-23 -36 -47.5 -68t-52.5 -56.5t-61 -38.5t-72 -14q-54 0 -91 34t-37 94q-51 -66 -100 -97t-96 -31zM605 482q-23 0 -48 -14t-49 -39.5t-44.5 -60t-35.5 -75.5q23 5 43.5 10.5t37.5 11.5q40 13 65.5 28.5t40.5 32.5t21 34t6 34t-9.5 27.5t-27.5 10.5zM115 107q0 -29 8.5 -43
t28.5 -14q10 0 24.5 5t33 18t40.5 35.5t46 58.5q8 43 28 87t48.5 85.5t63.5 76.5t73 60q-95 -14 -168.5 -50t-123.5 -86t-76 -110t-26 -123z" />
    <glyph glyph-name="ccedilla" unicode="&#xe7;" horiz-adv-x="436" 
d="M144 -13q-27 0 -50 9t-40.5 26t-27.5 42t-10 57q0 39 14 84t38.5 89.5t58 85t72 71.5t80 49.5t83.5 18.5q38 0 65 -15t27 -49q0 -23 -16.5 -38.5t-33.5 -15.5t-26.5 9t-19 20t-23.5 20t-39 9q-35 0 -65.5 -26t-53 -68.5t-36 -97t-13.5 -112.5q0 -48 16 -75.5t52 -27.5
q40 0 77.5 35t75.5 95l27 -18q-22 -36 -46.5 -68t-52.5 -56.5t-61 -38.5t-72 -14zM29 -261q-45 0 -68 19t-23 41q0 19 16 29.5t39 3.5q2 -32 18 -47.5t42 -15.5q18 0 30 7.5t12 22.5q0 16 -24 37.5t-65 48.5l147 115h43l-102 -81q29 -19 45.5 -40t16.5 -45q0 -16 -9 -33
t-26 -30.5t-40.5 -22.5t-51.5 -9z" />
    <glyph glyph-name="egrave" unicode="&#xe8;" horiz-adv-x="445" 
d="M145 -13q-54 0 -91.5 34.5t-37.5 99.5q0 42 15 88t40 90.5t59 84t72 70t78 48t78 17.5q47 0 71.5 -21t24.5 -56q0 -44 -21.5 -73.5t-48.5 -48.5q-22 -6 -52 -14t-63 -15.5l-66 -15t-60 -13.5q-15 -51 -15 -107q0 -48 16 -75.5t53 -27.5q40 0 77.5 35t75.5 95l27 -18
q-22 -36 -46.5 -68t-52.5 -56.5t-61 -38.5t-72 -14zM330 482q-23 0 -48 -14t-49 -39.5t-45 -60t-36 -75.5q23 5 43.5 10.5t37.5 11.5q40 13 66 28.5t41 32.5t21 34t6 34t-9.5 27.5t-27.5 10.5zM370 609l-149 175l1 4h118l44 -179h-14z" />
    <glyph glyph-name="eacute" unicode="&#xe9;" horiz-adv-x="445" 
d="M145 -13q-54 0 -91.5 34.5t-37.5 99.5q0 42 15 88t40 90.5t59 84t72 70t78 48t78 17.5q47 0 71.5 -21t24.5 -56q0 -44 -21.5 -73.5t-48.5 -48.5q-22 -6 -52 -14t-63 -15.5l-66 -15t-60 -13.5q-15 -51 -15 -107q0 -48 16 -75.5t53 -27.5q40 0 77.5 35t75.5 95l27 -18
q-22 -36 -46.5 -68t-52.5 -56.5t-61 -38.5t-72 -14zM330 482q-23 0 -48 -14t-49 -39.5t-45 -60t-36 -75.5q23 5 43.5 10.5t37.5 11.5q40 13 66 28.5t41 32.5t21 34t6 34t-9.5 27.5t-27.5 10.5zM497 788h142l-1 -4l-271 -175h-20z" />
    <glyph glyph-name="ecircumflex" unicode="&#xea;" horiz-adv-x="445" 
d="M145 -13q-54 0 -91.5 34.5t-37.5 99.5q0 42 15 88t40 90.5t59 84t72 70t78 48t78 17.5q47 0 71.5 -21t24.5 -56q0 -44 -21.5 -73.5t-48.5 -48.5q-22 -6 -52 -14t-63 -15.5l-66 -15t-60 -13.5q-15 -51 -15 -107q0 -48 16 -75.5t53 -27.5q40 0 77.5 35t75.5 95l27 -18
q-22 -36 -46.5 -68t-52.5 -56.5t-61 -38.5t-72 -14zM330 482q-23 0 -48 -14t-49 -39.5t-45 -60t-36 -75.5q23 5 43.5 10.5t37.5 11.5q40 13 66 28.5t41 32.5t21 34t6 34t-9.5 27.5t-27.5 10.5zM532 609h-17l-89 94l-201 -94h-23l244 197h12z" />
    <glyph glyph-name="edieresis" unicode="&#xeb;" horiz-adv-x="445" 
d="M145 -13q-54 0 -91.5 34.5t-37.5 99.5q0 42 15 88t40 90.5t59 84t72 70t78 48t78 17.5q47 0 71.5 -21t24.5 -56q0 -44 -21.5 -73.5t-48.5 -48.5q-22 -6 -52 -14t-63 -15.5l-66 -15t-60 -13.5q-15 -51 -15 -107q0 -48 16 -75.5t53 -27.5q40 0 77.5 35t75.5 95l27 -18
q-22 -36 -46.5 -68t-52.5 -56.5t-61 -38.5t-72 -14zM330 482q-23 0 -48 -14t-49 -39.5t-45 -60t-36 -75.5q23 5 43.5 10.5t37.5 11.5q40 13 66 28.5t41 32.5t21 34t6 34t-9.5 27.5t-27.5 10.5zM532 659q-24 0 -41.5 16.5t-17.5 42.5t17.5 43t41.5 17q25 0 42 -17t17 -43
t-17 -42.5t-42 -16.5zM298 659q-24 0 -41.5 16.5t-17.5 42.5t17.5 43t41.5 17q25 0 42 -17t17 -43t-17 -42.5t-42 -16.5z" />
    <glyph glyph-name="igrave" unicode="&#xec;" horiz-adv-x="333" 
d="M89 -13q-47 0 -56 28t14 86l128 320q7 16 1.5 24t-29.5 12l-48 7l10 27l202 23l-159 -399q-11 -29 -13.5 -45t9.5 -16q10 0 27 11.5t36 31t39.5 45t38.5 53.5l29 -17q-61 -94 -120.5 -142.5t-108.5 -48.5zM285 609l-149 175l1 4h118l44 -179h-14z" />
    <glyph glyph-name="iacute" unicode="&#xed;" horiz-adv-x="333" 
d="M89 -13q-47 0 -56 28t14 86l128 320q7 16 1.5 24t-29.5 12l-48 7l10 27l202 23l-159 -399q-11 -29 -13.5 -45t9.5 -16q10 0 27 11.5t36 31t39.5 45t38.5 53.5l29 -17q-61 -94 -120.5 -142.5t-108.5 -48.5zM412 788h142l-1 -4l-271 -175h-20z" />
    <glyph glyph-name="icircumflex" unicode="&#xee;" horiz-adv-x="333" 
d="M89 -13q-47 0 -56 28t14 86l128 320q7 16 1.5 24t-29.5 12l-48 7l10 27l202 23l-159 -399q-11 -29 -13.5 -45t9.5 -16q10 0 27 11.5t36 31t39.5 45t38.5 53.5l29 -17q-61 -94 -120.5 -142.5t-108.5 -48.5zM446 609h-17l-89 94l-201 -94h-23l244 197h12z" />
    <glyph glyph-name="idieresis" unicode="&#xef;" horiz-adv-x="333" 
d="M89 -13q-47 0 -56 28t14 86l128 320q7 16 1.5 24t-29.5 12l-48 7l10 27l202 23l-159 -399q-11 -29 -13.5 -45t9.5 -16q10 0 27 11.5t36 31t39.5 45t38.5 53.5l29 -17q-61 -94 -120.5 -142.5t-108.5 -48.5zM424 646q-24 0 -41 16.5t-17 42.5t17 42.5t41 16.5
q26 0 42.5 -16.5t16.5 -42.5t-16.5 -42.5t-42.5 -16.5zM224 646q-24 0 -41 16.5t-17 42.5t17 42.5t41 16.5q26 0 42.5 -16.5t16.5 -42.5t-16.5 -42.5t-42.5 -16.5z" />
    <glyph glyph-name="eth" unicode="&#xf0;" horiz-adv-x="531" 
d="M157 -13q-69 0 -107 34t-38 95q0 40 16 85.5t42.5 90.5t61.5 86t73.5 72.5t78.5 50t76 18.5q7 0 12 -0.5t10 -1.5q-24 78 -77 141l-140 -60l-17 41l124 53q-47 44 -109 74l16 31q81 -27 153 -79l145 62l17 -41l-123 -53q63 -57 102 -129.5t39 -157.5q0 -59 -16 -112
t-42.5 -99t-62 -83t-75 -63.5t-80.5 -40.5t-79 -14zM122 112q0 -44 13 -64.5t44 -20.5q46 0 86.5 36.5t70.5 91.5t47.5 119t17.5 119q0 14 -1 28.5t-3 28.5q-11 30 -49 30q-44 0 -85 -38.5t-72.5 -95t-50 -120t-18.5 -114.5z" />
    <glyph glyph-name="ntilde" unicode="&#xf1;" horiz-adv-x="612" 
d="M173 421q6 16 1 24t-29 12l-48 7l10 27l200 23l-74 -181h1q78 94 139 140t119 46q57 0 63 -45.5t-26 -124.5l-95 -234q-12 -29 -14.5 -45t9.5 -16q11 0 27.5 11.5t36 31t40 45t38.5 53.5l28 -17q-60 -94 -119.5 -142.5t-109.5 -48.5q-46 0 -56 27.5t14 86.5l95 234
q24 60 25.5 88.5t-23.5 28.5q-21 0 -56 -24t-73 -65.5t-73.5 -97.5t-58.5 -121l-46 -135l-113 -20zM266 647q13 67 42.5 104.5t78.5 37.5q24 0 45 -11t40.5 -24t38.5 -24t40 -11q23 0 41 12.5t28 54.5h23q-12 -77 -40 -107t-71 -30q-26 0 -46 11t-38.5 23.5t-37 23.5
t-40.5 11q-27 0 -49.5 -14.5t-33.5 -56.5h-21z" />
    <glyph glyph-name="ograve" unicode="&#xf2;" horiz-adv-x="534" 
d="M174 -13q-42 0 -71 13.5t-47 35.5t-26 48.5t-8 53.5q0 46 15 92t41 88t60 79t72 64t77 42.5t76 15.5q42 0 71 -14t47 -35.5t26 -48.5t8 -54q0 -46 -15 -92t-40.5 -88t-59.5 -78.5t-72 -63.5t-77.5 -42.5t-76.5 -15.5zM199 28q31 0 58 18t50 47.5t41 67t30.5 76.5t19 75.5
t6.5 64.5q0 52 -16.5 76t-49.5 24q-31 0 -58 -18t-50 -47.5t-41 -67t-30.5 -76.5t-19 -75.5t-6.5 -64.5q0 -52 16.5 -76t49.5 -24zM389 609l-149 175l1 4h118l44 -179h-14z" />
    <glyph glyph-name="oacute" unicode="&#xf3;" horiz-adv-x="534" 
d="M174 -13q-42 0 -71 13.5t-47 35.5t-26 48.5t-8 53.5q0 46 15 92t41 88t60 79t72 64t77 42.5t76 15.5q42 0 71 -14t47 -35.5t26 -48.5t8 -54q0 -46 -15 -92t-40.5 -88t-59.5 -78.5t-72 -63.5t-77.5 -42.5t-76.5 -15.5zM199 28q31 0 58 18t50 47.5t41 67t30.5 76.5t19 75.5
t6.5 64.5q0 52 -16.5 76t-49.5 24q-31 0 -58 -18t-50 -47.5t-41 -67t-30.5 -76.5t-19 -75.5t-6.5 -64.5q0 -52 16.5 -76t49.5 -24zM516 788h142l-1 -4l-271 -175h-20z" />
    <glyph glyph-name="ocircumflex" unicode="&#xf4;" horiz-adv-x="534" 
d="M174 -13q-42 0 -71 13.5t-47 35.5t-26 48.5t-8 53.5q0 46 15 92t41 88t60 79t72 64t77 42.5t76 15.5q42 0 71 -14t47 -35.5t26 -48.5t8 -54q0 -46 -15 -92t-40.5 -88t-59.5 -78.5t-72 -63.5t-77.5 -42.5t-76.5 -15.5zM199 28q31 0 58 18t50 47.5t41 67t30.5 76.5t19 75.5
t6.5 64.5q0 52 -16.5 76t-49.5 24q-31 0 -58 -18t-50 -47.5t-41 -67t-30.5 -76.5t-19 -75.5t-6.5 -64.5q0 -52 16.5 -76t49.5 -24zM551 609h-17l-89 94l-201 -94h-23l244 197h12z" />
    <glyph glyph-name="otilde" unicode="&#xf5;" horiz-adv-x="534" 
d="M174 -13q-42 0 -71 13.5t-47 35.5t-26 48.5t-8 53.5q0 46 15 92t41 88t60 79t72 64t77 42.5t76 15.5q42 0 71 -14t47 -35.5t26 -48.5t8 -54q0 -46 -15 -92t-40.5 -88t-59.5 -78.5t-72 -63.5t-77.5 -42.5t-76.5 -15.5zM199 28q31 0 58 18t50 47.5t41 67t30.5 76.5t19 75.5
t6.5 64.5q0 52 -16.5 76t-49.5 24q-31 0 -58 -18t-50 -47.5t-41 -67t-30.5 -76.5t-19 -75.5t-6.5 -64.5q0 -52 16.5 -76t49.5 -24zM238 647q13 67 42.5 104.5t78.5 37.5q24 0 45 -11t40.5 -24t38.5 -24t40 -11q23 0 41 12.5t28 54.5h23q-12 -77 -40 -107t-71 -30
q-26 0 -46 11t-38.5 23.5t-37 23.5t-40.5 11q-27 0 -49.5 -14.5t-33.5 -56.5h-21z" />
    <glyph glyph-name="odieresis" unicode="&#xf6;" horiz-adv-x="534" 
d="M174 -13q-42 0 -71 13.5t-47 35.5t-26 48.5t-8 53.5q0 46 15 92t41 88t60 79t72 64t77 42.5t76 15.5q42 0 71 -14t47 -35.5t26 -48.5t8 -54q0 -46 -15 -92t-40.5 -88t-59.5 -78.5t-72 -63.5t-77.5 -42.5t-76.5 -15.5zM199 28q31 0 58 18t50 47.5t41 67t30.5 76.5t19 75.5
t6.5 64.5q0 52 -16.5 76t-49.5 24q-31 0 -58 -18t-50 -47.5t-41 -67t-30.5 -76.5t-19 -75.5t-6.5 -64.5q0 -52 16.5 -76t49.5 -24zM551 659q-24 0 -41.5 16.5t-17.5 42.5t17.5 43t41.5 17q25 0 42 -17t17 -43t-17 -42.5t-42 -16.5zM317 659q-24 0 -41.5 16.5t-17.5 42.5
t17.5 43t41.5 17q25 0 42 -17t17 -43t-17 -42.5t-42 -16.5z" />
    <glyph glyph-name="divide" unicode="&#xf7;" horiz-adv-x="653" 
d="M331 372q-33 0 -56 23t-23 56q0 32 23 55.5t56 23.5q32 0 55.5 -23.5t23.5 -55.5q0 -33 -23.5 -56t-55.5 -23zM67 296h527v-67h-527v67zM331 -5q-33 0 -56 23.5t-23 56.5q0 32 23 55t56 23q32 0 55.5 -23t23.5 -55q0 -33 -23.5 -56.5t-55.5 -23.5z" />
    <glyph glyph-name="oslash" unicode="&#xf8;" horiz-adv-x="585" 
d="M195 -13q-42 0 -71 13.5t-47 35.5t-26 48.5t-8 53.5q0 46 15 92t41 88t60 79t72 64t77 42.5t76 15.5q42 0 71 -14t47 -35.5t26 -48.5t8 -54q0 -46 -15 -92t-40.5 -88t-59.5 -78.5t-72 -63.5t-77.5 -42.5t-76.5 -15.5zM220 28q31 0 58 18t50 47.5t41 67t30.5 76.5t19 75.5
t6.5 64.5q0 52 -16.5 76t-49.5 24q-31 0 -58 -18t-50 -47.5t-41 -67t-30.5 -76.5t-19 -75.5t-6.5 -64.5q0 -52 16.5 -76t49.5 -24zM-66 -13l680 565l28 -33l-681 -565z" />
    <glyph glyph-name="ugrave" unicode="&#xf9;" horiz-adv-x="611" 
d="M171 170q-24 -60 -25.5 -88.5t23.5 -28.5q22 0 57.5 24t74 68t75.5 105.5t63 136.5l36 105l114 24l-155 -401q-11 -29 -13.5 -45t9.5 -16q10 0 27 11.5t36 31t39.5 45t38.5 53.5l29 -17q-61 -94 -120.5 -142.5t-108.5 -48.5q-47 0 -52 27.5t17 86.5l27 72h-2
q-76 -93 -138.5 -139.5t-120.5 -46.5q-56 0 -62.5 45t25.5 124l108 265q7 16 1.5 24t-29.5 12l-48 7l10 27l204 23zM424 609l-149 175l1 4h118l44 -179h-14z" />
    <glyph glyph-name="uacute" unicode="&#xfa;" horiz-adv-x="611" 
d="M171 170q-24 -60 -25.5 -88.5t23.5 -28.5q22 0 57.5 24t74 68t75.5 105.5t63 136.5l36 105l114 24l-155 -401q-11 -29 -13.5 -45t9.5 -16q10 0 27 11.5t36 31t39.5 45t38.5 53.5l29 -17q-61 -94 -120.5 -142.5t-108.5 -48.5q-47 0 -52 27.5t17 86.5l27 72h-2
q-76 -93 -138.5 -139.5t-120.5 -46.5q-56 0 -62.5 45t25.5 124l108 265q7 16 1.5 24t-29.5 12l-48 7l10 27l204 23zM551 788h142l-1 -4l-271 -175h-20z" />
    <glyph glyph-name="ucircumflex" unicode="&#xfb;" horiz-adv-x="611" 
d="M171 170q-24 -60 -25.5 -88.5t23.5 -28.5q22 0 57.5 24t74 68t75.5 105.5t63 136.5l36 105l114 24l-155 -401q-11 -29 -13.5 -45t9.5 -16q10 0 27 11.5t36 31t39.5 45t38.5 53.5l29 -17q-61 -94 -120.5 -142.5t-108.5 -48.5q-47 0 -52 27.5t17 86.5l27 72h-2
q-76 -93 -138.5 -139.5t-120.5 -46.5q-56 0 -62.5 45t25.5 124l108 265q7 16 1.5 24t-29.5 12l-48 7l10 27l204 23zM585 609h-17l-89 94l-201 -94h-23l244 197h12z" />
    <glyph glyph-name="udieresis" unicode="&#xfc;" horiz-adv-x="611" 
d="M171 170q-24 -60 -25.5 -88.5t23.5 -28.5q22 0 57.5 24t74 68t75.5 105.5t63 136.5l36 105l114 24l-155 -401q-11 -29 -13.5 -45t9.5 -16q10 0 27 11.5t36 31t39.5 45t38.5 53.5l29 -17q-61 -94 -120.5 -142.5t-108.5 -48.5q-47 0 -52 27.5t17 86.5l27 72h-2
q-76 -93 -138.5 -139.5t-120.5 -46.5q-56 0 -62.5 45t25.5 124l108 265q7 16 1.5 24t-29.5 12l-48 7l10 27l204 23zM586 659q-24 0 -41.5 16.5t-17.5 42.5t17.5 43t41.5 17q25 0 42 -17t17 -43t-17 -42.5t-42 -16.5zM352 659q-24 0 -41.5 16.5t-17.5 42.5t17.5 43t41.5 17
q25 0 42 -17t17 -43t-17 -42.5t-42 -16.5z" />
    <glyph glyph-name="yacute" unicode="&#xfd;" horiz-adv-x="536" 
d="M-93 -267q-26 0 -38 13.5t-12 30.5q0 28 16 36t39 9t48.5 1.5t43.5 13.5q37 26 72.5 67t73.5 98l-3 419q0 18 -4.5 25.5t-23.5 10.5l-48 7l10 27l165 22l-2 -381l147 205q37 52 63.5 87t47.5 56t38.5 30t35.5 9q20 0 33 -11t13 -31q0 -17 -10 -32.5t-38 -24.5
q-23 -8 -42.5 -16.5t-38.5 -22.5t-39 -35.5t-44 -54.5l-198 -279q-17 -24 -38.5 -52.5t-45 -57t-48 -55.5t-48.5 -48q-22 -19 -38.5 -31.5t-31 -20t-27.5 -11t-28 -3.5zM527 788h142l-1 -4l-271 -175h-20z" />
    <glyph glyph-name="thorn" unicode="&#xfe;" horiz-adv-x="545" 
d="M12 -248h-96l327 948q6 17 0.5 25.5t-29.5 11.5l-49 6l10 28l196 23l-135 -389h1q20 22 43.5 43t48 36.5t49.5 25t49 9.5q61 0 87 -34.5t24 -89.5q-2 -44 -19 -91.5t-44 -93t-62.5 -86t-74.5 -71t-79 -48.5t-76 -18q-25 0 -47.5 5.5t-36.5 14.5zM190 25q31 0 60 16
t54.5 43t46.5 62.5t37 73.5t25 76.5t11 72.5q2 42 -11.5 66t-42.5 24q-32 0 -71.5 -27.5t-79.5 -75.5l-85 -248q-14 -41 5.5 -62t50.5 -21z" />
    <glyph glyph-name="ydieresis" unicode="&#xff;" horiz-adv-x="536" 
d="M-93 -267q-26 0 -38 13.5t-12 30.5q0 28 16 36t39 9t48.5 1.5t43.5 13.5q37 26 72.5 67t73.5 98l-3 419q0 18 -4.5 25.5t-23.5 10.5l-48 7l10 27l165 22l-2 -381l147 205q37 52 63.5 87t47.5 56t38.5 30t35.5 9q20 0 33 -11t13 -31q0 -17 -10 -32.5t-38 -24.5
q-23 -8 -42.5 -16.5t-38.5 -22.5t-39 -35.5t-44 -54.5l-198 -279q-17 -24 -38.5 -52.5t-45 -57t-48 -55.5t-48.5 -48q-22 -19 -38.5 -31.5t-31 -20t-27.5 -11t-28 -3.5zM561 659q-24 0 -41.5 16.5t-17.5 42.5t17.5 43t41.5 17q25 0 42 -17t17 -43t-17 -42.5t-42 -16.5z
M327 659q-24 0 -41.5 16.5t-17.5 42.5t17.5 43t41.5 17q25 0 42 -17t17 -43t-17 -42.5t-42 -16.5z" />
    <glyph glyph-name="Abreve" unicode="&#x102;" horiz-adv-x="768" 
d="M-92 31l45 7q14 2 25.5 8t23.5 17.5t27 31t37 48.5l489 646h36l31 -680q1 -19 2.5 -31.5t6.5 -20.5t14 -12t25 -7l41 -7l-9 -31h-285l9 31l46 7q14 2 22.5 5.5t13 9.5t5.5 15t0 24l-9 188h-274l-109 -145q-23 -30 -32.5 -48t-10 -28.5t7 -14.5t19.5 -6l42 -7l-9 -31h-239
zM502 332l-14 290l-219 -290h233zM581 830q-33 0 -61 10t-47 30t-26 50t2 70h55q-13 -54 10 -83t71 -29q22 0 42.5 5t38 17.5t31 34t22.5 55.5h56q-12 -49 -33.5 -80t-48 -49t-56 -24.5t-56.5 -6.5z" />
    <glyph glyph-name="Amacron" unicode="&#x100;" horiz-adv-x="768" 
d="M-92 31l45 7q14 2 25.5 8t23.5 17.5t27 31t37 48.5l489 646h36l31 -680q1 -19 2.5 -31.5t6.5 -20.5t14 -12t25 -7l41 -7l-9 -31h-285l9 31l46 7q14 2 22.5 5.5t13 9.5t5.5 15t0 24l-9 188h-274l-109 -145q-23 -30 -32.5 -48t-10 -28.5t7 -14.5t19.5 -6l42 -7l-9 -31h-239
zM502 332l-14 290l-219 -290h233zM446 939h296l-20 -65h-296z" />
    <glyph glyph-name="Aogonek" unicode="&#x104;" horiz-adv-x="768" 
d="M-92 31l45 7q14 2 25.5 8t23.5 17.5t27 31t37 48.5l489 646h36l31 -680q1 -19 2.5 -31.5t6.5 -20.5t14 -12t25 -7l41 -7l-9 -31h-285l9 31l46 7q14 2 22.5 5.5t13 9.5t5.5 15t0 24l-9 188h-274l-109 -145q-23 -30 -32.5 -48t-10 -28.5t7 -14.5t19.5 -6l42 -7l-9 -31h-239
zM502 332l-14 290l-219 -290h233zM608 -208q-19 -9 -45.5 -17.5t-57.5 -8.5q-42 0 -67 20.5t-25 52.5q0 24 16 46.5t41 43t54.5 38.5t55.5 33h41q-20 -14 -41.5 -30t-38.5 -33.5t-28 -36.5t-11 -38q0 -31 26.5 -42.5t87.5 0.5z" />
    <glyph glyph-name="Cacute" unicode="&#x106;" horiz-adv-x="792" 
d="M408 -13q-69 0 -129.5 20t-104.5 59.5t-69.5 97.5t-25.5 133q0 66 21 128t58.5 115.5t89 97.5t111.5 75.5t126.5 48.5t134.5 17q58 0 116 -8t96 -23l-11 -187h-28l-31 99q-8 24 -21 38t-32 21.5t-42.5 10t-50.5 2.5q-76 0 -149.5 -31.5t-131 -90t-93 -142.5t-35.5 -188
q0 -64 17 -110.5t47.5 -77t73 -45t92.5 -14.5q33 0 58 5t46.5 16t42 28t46.5 41l97 89h28l-99 -179q-49 -17 -109.5 -31.5t-138.5 -14.5zM890 969l-284 -126h-23l137 129h171z" />
    <glyph glyph-name="Ccaron" unicode="&#x10c;" horiz-adv-x="792" 
d="M408 -13q-69 0 -129.5 20t-104.5 59.5t-69.5 97.5t-25.5 133q0 66 21 128t58.5 115.5t89 97.5t111.5 75.5t126.5 48.5t134.5 17q58 0 116 -8t96 -23l-11 -187h-28l-31 99q-8 24 -21 38t-32 21.5t-42.5 10t-50.5 2.5q-76 0 -149.5 -31.5t-131 -90t-93 -142.5t-35.5 -188
q0 -64 17 -110.5t47.5 -77t73 -45t92.5 -14.5q33 0 58 5t46.5 16t42 28t46.5 41l97 89h28l-99 -179q-49 -17 -109.5 -31.5t-138.5 -14.5zM615 833l-97 150h20l103 -66l195 66h28l-233 -150h-16z" />
    <glyph glyph-name="Ccircumflex" unicode="&#x108;" horiz-adv-x="792" 
d="M408 -13q-69 0 -129.5 20t-104.5 59.5t-69.5 97.5t-25.5 133q0 66 21 128t58.5 115.5t89 97.5t111.5 75.5t126.5 48.5t134.5 17q58 0 116 -8t96 -23l-11 -187h-28l-31 99q-8 24 -21 38t-32 21.5t-42.5 10t-50.5 2.5q-76 0 -149.5 -31.5t-131 -90t-93 -142.5t-35.5 -188
q0 -64 17 -110.5t47.5 -77t73 -45t92.5 -14.5q33 0 58 5t46.5 16t42 28t46.5 41l97 89h28l-99 -179q-49 -17 -109.5 -31.5t-138.5 -14.5zM692 983l97 -150h-20l-103 66l-194 -66h-29l233 150h16z" />
    <glyph glyph-name="Cdotaccent" unicode="&#x10a;" horiz-adv-x="792" 
d="M408 -13q-69 0 -129.5 20t-104.5 59.5t-69.5 97.5t-25.5 133q0 66 21 128t58.5 115.5t89 97.5t111.5 75.5t126.5 48.5t134.5 17q58 0 116 -8t96 -23l-11 -187h-28l-31 99q-8 24 -21 38t-32 21.5t-42.5 10t-50.5 2.5q-76 0 -149.5 -31.5t-131 -90t-93 -142.5t-35.5 -188
q0 -64 17 -110.5t47.5 -77t73 -45t92.5 -14.5q33 0 58 5t46.5 16t42 28t46.5 41l97 89h28l-99 -179q-49 -17 -109.5 -31.5t-138.5 -14.5zM643 845q-26 0 -43.5 17.5t-17.5 43.5q0 28 17.5 45.5t43.5 17.5t43.5 -17.5t17.5 -45.5q0 -26 -17.5 -43.5t-43.5 -17.5z" />
    <glyph glyph-name="Dcaron" unicode="&#x10e;" horiz-adv-x="869" 
d="M-8 31l46 7q14 2 23.5 5t15.5 9t10.5 15.5t9.5 24.5l176 574q10 31 4.5 40t-30.5 14l-41 7l9 31h279q88 0 158.5 -20.5t119.5 -58.5t75 -91t26 -118q0 -88 -41 -172.5t-117.5 -150.5t-184.5 -106.5t-242 -40.5h-305zM306 42q115 0 198.5 39t136.5 103t78.5 145.5
t25.5 165.5q0 115 -67.5 168t-200.5 53q-28 0 -44 -0.5t-24 -3t-11.5 -6.5t-5.5 -11l-178 -582q-7 -22 -7.5 -35.5t6.5 -21.5t22.5 -11t41.5 -3h29zM586 833l-97 150h20l103 -66l195 66h28l-233 -150h-16z" />
    <glyph glyph-name="Dcroat" unicode="&#x110;" horiz-adv-x="869" 
d="M-8 31l46 7q14 2 23.5 5t15.5 9t10.5 15.5t9.5 24.5l176 574q10 31 4.5 40t-30.5 14l-41 7l9 31h279q88 0 158.5 -20.5t119.5 -58.5t75 -91t26 -118q0 -88 -41 -172.5t-117.5 -150.5t-184.5 -106.5t-242 -40.5h-305zM306 42q115 0 198.5 39t136.5 103t78.5 145.5
t25.5 165.5q0 115 -67.5 168t-200.5 53q-28 0 -44 -0.5t-24 -3t-11.5 -6.5t-5.5 -11l-178 -582q-7 -22 -7.5 -35.5t6.5 -21.5t22.5 -11t41.5 -3h29zM100 411h378l-15 -50h-378z" />
    <glyph glyph-name="Ebreve" unicode="&#x114;" horiz-adv-x="734" 
d="M506 758l291 2l-47 -184h-28v46q0 33 -6.5 52t-26.5 28.5t-58.5 11.5t-102.5 2h-109q-21 0 -27 -20l-87 -286h145q21 0 37 1.5t29 8t25 21t26 40.5l21 40h27l-83 -271h-27l3 40q2 26 -1.5 40.5t-12.5 21t-23.5 8t-35.5 1.5h-145l-75 -245q-8 -26 -7 -41t10 -22.5t26.5 -9
t43.5 -1.5h45q67 0 109.5 3.5t71 13t49 26.5t44.5 44l63 72h27l-113 -201h-601l9 31l46 7q14 2 23.5 5t15.5 9t10.5 15.5t9.5 24.5l176 574q10 31 4.5 40t-30.5 14l-41 7l9 31h291zM581 830q-33 0 -61 10t-47 30t-26 50t2 70h55q-13 -54 10 -83t71 -29q22 0 42.5 5t38 17.5
t31 34t22.5 55.5h56q-12 -49 -33.5 -80t-48 -49t-56 -24.5t-56.5 -6.5z" />
    <glyph glyph-name="Ecaron" unicode="&#x11a;" horiz-adv-x="734" 
d="M506 758l291 2l-47 -184h-28v46q0 33 -6.5 52t-26.5 28.5t-58.5 11.5t-102.5 2h-109q-21 0 -27 -20l-87 -286h145q21 0 37 1.5t29 8t25 21t26 40.5l21 40h27l-83 -271h-27l3 40q2 26 -1.5 40.5t-12.5 21t-23.5 8t-35.5 1.5h-145l-75 -245q-8 -26 -7 -41t10 -22.5t26.5 -9
t43.5 -1.5h45q67 0 109.5 3.5t71 13t49 26.5t44.5 44l63 72h27l-113 -201h-601l9 31l46 7q14 2 23.5 5t15.5 9t10.5 15.5t9.5 24.5l176 574q10 31 4.5 40t-30.5 14l-41 7l9 31h291zM555 833l-97 150h20l103 -66l195 66h28l-233 -150h-16z" />
    <glyph glyph-name="Emacron" unicode="&#x112;" horiz-adv-x="734" 
d="M506 758l291 2l-47 -184h-28v46q0 33 -6.5 52t-26.5 28.5t-58.5 11.5t-102.5 2h-109q-21 0 -27 -20l-87 -286h145q21 0 37 1.5t29 8t25 21t26 40.5l21 40h27l-83 -271h-27l3 40q2 26 -1.5 40.5t-12.5 21t-23.5 8t-35.5 1.5h-145l-75 -245q-8 -26 -7 -41t10 -22.5t26.5 -9
t43.5 -1.5h45q67 0 109.5 3.5t71 13t49 26.5t44.5 44l63 72h27l-113 -201h-601l9 31l46 7q14 2 23.5 5t15.5 9t10.5 15.5t9.5 24.5l176 574q10 31 4.5 40t-30.5 14l-41 7l9 31h291zM446 939h296l-20 -65h-296z" />
    <glyph glyph-name="Eogonek" unicode="&#x118;" horiz-adv-x="734" 
d="M506 758l291 2l-47 -184h-28v46q0 33 -6.5 52t-26.5 28.5t-58.5 11.5t-102.5 2h-109q-21 0 -27 -20l-87 -286h145q21 0 37 1.5t29 8t25 21t26 40.5l21 40h27l-83 -271h-27l3 40q2 26 -1.5 40.5t-12.5 21t-23.5 8t-35.5 1.5h-145l-75 -245q-8 -26 -7 -41t10 -22.5t26.5 -9
t43.5 -1.5h45q67 0 109.5 3.5t71 13t49 26.5t44.5 44l63 72h27l-113 -201h-601l9 31l46 7q14 2 23.5 5t15.5 9t10.5 15.5t9.5 24.5l176 574q10 31 4.5 40t-30.5 14l-41 7l9 31h291zM571 -208q-19 -9 -45.5 -17.5t-57.5 -8.5q-42 0 -67 20.5t-25 52.5q0 24 16 46.5t41 43
t54.5 38.5t55.5 33h41q-20 -14 -41.5 -30t-38.5 -33.5t-28 -36.5t-11 -38q0 -31 26.5 -42.5t87.5 0.5z" />
    <glyph glyph-name="Edotaccent" unicode="&#x116;" horiz-adv-x="734" 
d="M506 758l291 2l-47 -184h-28v46q0 33 -6.5 52t-26.5 28.5t-58.5 11.5t-102.5 2h-109q-21 0 -27 -20l-87 -286h145q21 0 37 1.5t29 8t25 21t26 40.5l21 40h27l-83 -271h-27l3 40q2 26 -1.5 40.5t-12.5 21t-23.5 8t-35.5 1.5h-145l-75 -245q-8 -26 -7 -41t10 -22.5t26.5 -9
t43.5 -1.5h45q67 0 109.5 3.5t71 13t49 26.5t44.5 44l63 72h27l-113 -201h-601l9 31l46 7q14 2 23.5 5t15.5 9t10.5 15.5t9.5 24.5l176 574q10 31 4.5 40t-30.5 14l-41 7l9 31h291zM584 845q-26 0 -43.5 17.5t-17.5 43.5q0 28 17.5 45.5t43.5 17.5t43.5 -17.5t17.5 -45.5
q0 -26 -17.5 -43.5t-43.5 -17.5z" />
    <glyph glyph-name="Gbreve" unicode="&#x11e;" horiz-adv-x="855" 
d="M407 -13q-69 0 -129 20t-104 59.5t-69 97.5t-25 133q0 100 45.5 187.5t120.5 153t172 103.5t199 38q58 0 116 -8t96 -23l-11 -187h-28l-31 99q-8 24 -21.5 38t-32 21.5t-42 10t-50.5 2.5q-76 0 -149 -31.5t-130 -90t-91.5 -142.5t-34.5 -188q0 -64 16.5 -110.5t45.5 -77
t69 -45t87 -14.5q18 0 39 2.5t41 6.5t38.5 9.5t31.5 12.5l74 210q11 31 7 41.5t-30 12.5l-79 7l10 31h320l-12 -39l-88 -3l-74 -209l-16 -73q-29 -3 -60.5 -12t-66 -18.5t-73 -17t-81.5 -7.5zM636 830q-33 0 -61 10t-47 30t-26 50t2 70h55q-13 -54 10 -83t71 -29
q22 0 42.5 5t38 17.5t31 34t22.5 55.5h56q-12 -49 -33.5 -80t-48 -49t-56 -24.5t-56.5 -6.5z" />
    <glyph glyph-name="Gcircumflex" unicode="&#x11c;" horiz-adv-x="855" 
d="M407 -13q-69 0 -129 20t-104 59.5t-69 97.5t-25 133q0 100 45.5 187.5t120.5 153t172 103.5t199 38q58 0 116 -8t96 -23l-11 -187h-28l-31 99q-8 24 -21.5 38t-32 21.5t-42 10t-50.5 2.5q-76 0 -149 -31.5t-130 -90t-91.5 -142.5t-34.5 -188q0 -64 16.5 -110.5t45.5 -77
t69 -45t87 -14.5q18 0 39 2.5t41 6.5t38.5 9.5t31.5 12.5l74 210q11 31 7 41.5t-30 12.5l-79 7l10 31h320l-12 -39l-88 -3l-74 -209l-16 -73q-29 -3 -60.5 -12t-66 -18.5t-73 -17t-81.5 -7.5zM688 983l97 -150h-20l-103 66l-194 -66h-29l233 150h16z" />
    <glyph glyph-name="uni0122" unicode="&#x122;" horiz-adv-x="855" 
d="M407 -13q-69 0 -129 20t-104 59.5t-69 97.5t-25 133q0 100 45.5 187.5t120.5 153t172 103.5t199 38q58 0 116 -8t96 -23l-11 -187h-28l-31 99q-8 24 -21.5 38t-32 21.5t-42 10t-50.5 2.5q-76 0 -149 -31.5t-130 -90t-91.5 -142.5t-34.5 -188q0 -64 16.5 -110.5t45.5 -77
t69 -45t87 -14.5q18 0 39 2.5t41 6.5t38.5 9.5t31.5 12.5l74 210q11 31 7 41.5t-30 12.5l-79 7l10 31h320l-12 -39l-88 -3l-74 -209l-16 -73q-29 -3 -60.5 -12t-66 -18.5t-73 -17t-81.5 -7.5zM321 -90q42 0 67.5 -28t25.5 -68q0 -51 -48.5 -99t-151.5 -88l-11 23
q64 29 99 63t35 69q0 30 -20.5 45.5t-54.5 24.5q0 28 16.5 43t42.5 15z" />
    <glyph glyph-name="Gdotaccent" unicode="&#x120;" horiz-adv-x="855" 
d="M407 -13q-69 0 -129 20t-104 59.5t-69 97.5t-25 133q0 100 45.5 187.5t120.5 153t172 103.5t199 38q58 0 116 -8t96 -23l-11 -187h-28l-31 99q-8 24 -21.5 38t-32 21.5t-42 10t-50.5 2.5q-76 0 -149 -31.5t-130 -90t-91.5 -142.5t-34.5 -188q0 -64 16.5 -110.5t45.5 -77
t69 -45t87 -14.5q18 0 39 2.5t41 6.5t38.5 9.5t31.5 12.5l74 210q11 31 7 41.5t-30 12.5l-79 7l10 31h320l-12 -39l-88 -3l-74 -209l-16 -73q-29 -3 -60.5 -12t-66 -18.5t-73 -17t-81.5 -7.5zM639 845q-26 0 -43.5 17.5t-17.5 43.5q0 28 17.5 45.5t43.5 17.5t43.5 -17.5
t17.5 -45.5q0 -26 -17.5 -43.5t-43.5 -17.5z" />
    <glyph glyph-name="Hbar" unicode="&#x126;" horiz-adv-x="909" 
d="M266 0h-283l9 31l46 7q14 2 23.5 5t15.5 9t10.5 15.5t9.5 24.5l176 574q10 31 4.5 40t-30.5 14l-41 7l9 31h283l-10 -31l-46 -7q-14 -2 -23 -5t-15.5 -8.5t-11 -15t-8.5 -24.5l-79 -257h396l79 256q10 31 4.5 40t-30.5 14l-41 7l9 31h283l-10 -31l-46 -7q-14 -2 -23 -5
t-15.5 -8.5t-11 -15t-8.5 -24.5l-176 -576q-9 -30 -4.5 -39.5t29.5 -13.5l42 -7l-9 -31h-283l9 31l46 7q14 2 23.5 5t15.5 9t10.5 15.5t9.5 24.5l82 268h-397l-81 -269q-9 -30 -4.5 -39.5t29.5 -13.5l42 -7zM164 591h790l-15 -50h-790z" />
    <glyph glyph-name="Hcircumflex" unicode="&#x124;" horiz-adv-x="909" 
d="M266 0h-283l9 31l46 7q14 2 23.5 5t15.5 9t10.5 15.5t9.5 24.5l176 574q10 31 4.5 40t-30.5 14l-41 7l9 31h283l-10 -31l-46 -7q-14 -2 -23 -5t-15.5 -8.5t-11 -15t-8.5 -24.5l-79 -257h396l79 256q10 31 4.5 40t-30.5 14l-41 7l9 31h283l-10 -31l-46 -7q-14 -2 -23 -5
t-15.5 -8.5t-11 -15t-8.5 -24.5l-176 -576q-9 -30 -4.5 -39.5t29.5 -13.5l42 -7l-9 -31h-283l9 31l46 7q14 2 23.5 5t15.5 9t10.5 15.5t9.5 24.5l82 268h-397l-81 -269q-9 -30 -4.5 -39.5t29.5 -13.5l42 -7zM711 983l97 -150h-20l-103 66l-194 -66h-29l233 150h16z" />
    <glyph glyph-name="Ibreve" unicode="&#x12c;" horiz-adv-x="402" 
d="M273 666q10 31 4.5 40t-30.5 14l-41 7l9 31h283l-10 -31l-46 -7q-14 -2 -23 -5t-15.5 -8.5t-11 -15t-8.5 -24.5l-176 -576q-9 -30 -4.5 -39.5t29.5 -13.5l42 -7l-9 -31h-283l9 31l46 7q14 2 23.5 5t15.5 9t10.5 15.5t9.5 24.5zM396 830q-33 0 -61 10t-47 30t-26 50t2 70
h55q-13 -54 10 -83t71 -29q22 0 42.5 5t38 17.5t31 34t22.5 55.5h56q-12 -49 -33.5 -80t-48 -49t-56 -24.5t-56.5 -6.5z" />
    <glyph glyph-name="Idotaccent" unicode="&#x130;" horiz-adv-x="402" 
d="M273 666q10 31 4.5 40t-30.5 14l-41 7l9 31h283l-10 -31l-46 -7q-14 -2 -23 -5t-15.5 -8.5t-11 -15t-8.5 -24.5l-176 -576q-9 -30 -4.5 -39.5t29.5 -13.5l42 -7l-9 -31h-283l9 31l46 7q14 2 23.5 5t15.5 9t10.5 15.5t9.5 24.5zM400 845q-26 0 -43.5 17.5t-17.5 43.5
q0 28 17.5 45.5t43.5 17.5t43.5 -17.5t17.5 -45.5q0 -26 -17.5 -43.5t-43.5 -17.5z" />
    <glyph glyph-name="Imacron" unicode="&#x12a;" horiz-adv-x="402" 
d="M273 666q10 31 4.5 40t-30.5 14l-41 7l9 31h283l-10 -31l-46 -7q-14 -2 -23 -5t-15.5 -8.5t-11 -15t-8.5 -24.5l-176 -576q-9 -30 -4.5 -39.5t29.5 -13.5l42 -7l-9 -31h-283l9 31l46 7q14 2 23.5 5t15.5 9t10.5 15.5t9.5 24.5zM262 939h296l-20 -65h-296z" />
    <glyph glyph-name="Iogonek" unicode="&#x12e;" horiz-adv-x="402" 
d="M273 666q10 31 4.5 40t-30.5 14l-41 7l9 31h283l-10 -31l-46 -7q-14 -2 -23 -5t-15.5 -8.5t-11 -15t-8.5 -24.5l-176 -576q-9 -30 -4.5 -39.5t29.5 -13.5l42 -7l-9 -31h-283l9 31l46 7q14 2 23.5 5t15.5 9t10.5 15.5t9.5 24.5zM170 -208q-19 -9 -45.5 -17.5t-57.5 -8.5
q-42 0 -67 20.5t-25 52.5q0 24 16 46.5t41 43t54.5 38.5t55.5 33h41q-20 -14 -41.5 -30t-38.5 -33.5t-28 -36.5t-11 -38q0 -31 26.5 -42.5t87.5 0.5z" />
    <glyph glyph-name="Itilde" unicode="&#x128;" horiz-adv-x="402" 
d="M273 666q10 31 4.5 40t-30.5 14l-41 7l9 31h283l-10 -31l-46 -7q-14 -2 -23 -5t-15.5 -8.5t-11 -15t-8.5 -24.5l-176 -576q-9 -30 -4.5 -39.5t29.5 -13.5l42 -7l-9 -31h-283l9 31l46 7q14 2 23.5 5t15.5 9t10.5 15.5t9.5 24.5zM204 833q13 67 42.5 104.5t78.5 37.5
q24 0 45 -11t40.5 -24t38.5 -24t40 -11q23 0 41 12.5t28 54.5h23q-12 -77 -40 -107t-71 -30q-26 0 -46 11t-38.5 23.5t-37 23.5t-40.5 11q-27 0 -49.5 -14.5t-33.5 -56.5h-21z" />
    <glyph glyph-name="uni1ECA" unicode="&#x1eca;" horiz-adv-x="402" 
d="M273 666q10 31 4.5 40t-30.5 14l-41 7l9 31h283l-10 -31l-46 -7q-14 -2 -23 -5t-15.5 -8.5t-11 -15t-8.5 -24.5l-176 -576q-9 -30 -4.5 -39.5t29.5 -13.5l42 -7l-9 -31h-283l9 31l46 7q14 2 23.5 5t15.5 9t10.5 15.5t9.5 24.5zM72 -244q-26 0 -43.5 18t-17.5 44
q0 27 17.5 45t43.5 18t43.5 -18t17.5 -45q0 -26 -17.5 -44t-43.5 -18z" />
    <glyph glyph-name="Jcircumflex" unicode="&#x134;" horiz-adv-x="388" 
d="M247 211q-11 -37 -22.5 -66t-26 -52t-33 -42t-43.5 -37q-17 -12 -38.5 -26t-45.5 -29t-48.5 -30.5t-48.5 -28.5l-18 28q45 32 76.5 56.5t55 52t41.5 63.5t35 92l145 474q9 31 4 40t-30 14l-41 7l9 31h283l-10 -31l-46 -7q-14 -2 -23 -5t-15.5 -8.5t-11 -15t-8.5 -24.5z
M450 983l97 -150h-20l-103 66l-194 -66h-29l233 150h16z" />
    <glyph glyph-name="uni0136" unicode="&#x136;" horiz-adv-x="829" 
d="M291 363l-83 -272q-9 -30 -4.5 -39.5t29.5 -13.5l42 -7l-9 -31h-283l9 31l46 7q14 2 23.5 5t15.5 9t10.5 15.5t9.5 24.5l176 574q10 31 4.5 40t-30.5 14l-41 7l9 31h283l-10 -31l-46 -7q-14 -2 -23 -5t-15.5 -8.5t-11 -15t-8.5 -24.5l-85 -278l349 236q63 42 91.5 66.5
t2.5 28.5l-49 7l9 31h258l-10 -31l-49 -7q-15 -2 -31.5 -9t-38.5 -19t-50.5 -31l-67.5 -45l-310 -209l261 -323q15 -18 27 -29.5t38 -16.5l33 -7l-9 -31h-172zM391 -90q42 0 67.5 -28t25.5 -68q0 -51 -48.5 -99t-151.5 -88l-11 23q64 29 99 63t35 69q0 30 -20.5 45.5
t-54.5 24.5q0 28 16.5 43t42.5 15z" />
    <glyph glyph-name="Lacute" unicode="&#x139;" horiz-adv-x="673" 
d="M215 117q-8 -27 -7.5 -42t10.5 -22.5t28 -9t45 -1.5h32q57 0 92 3.5t59 13.5t42.5 26.5t41.5 43.5l63 72h28l-114 -201h-552l9 31l46 7q14 2 23.5 5t15.5 9t10.5 15.5t9.5 24.5l176 574q10 31 4.5 40t-30.5 14l-41 7l9 31h283l-10 -31l-46 -7q-14 -2 -23 -5t-15.5 -8.5
t-11 -15t-8.5 -24.5zM655 969l-284 -126h-23l137 129h171z" />
    <glyph glyph-name="Lcaron" unicode="&#x13d;" horiz-adv-x="673" 
d="M215 117q-8 -27 -7.5 -42t10.5 -22.5t28 -9t45 -1.5h32q57 0 92 3.5t59 13.5t42.5 26.5t41.5 43.5l63 72h28l-114 -201h-552l9 31l46 7q14 2 23.5 5t15.5 9t10.5 15.5t9.5 24.5l176 574q10 31 4.5 40t-30.5 14l-41 7l9 31h283l-10 -31l-46 -7q-14 -2 -23 -5t-15.5 -8.5
t-11 -15t-8.5 -24.5zM621 767q42 0 67.5 -28t25.5 -67q0 -51 -48.5 -99.5t-150.5 -88.5l-12 23q64 29 99 63t35 69q0 30 -20.5 45.5t-54.5 25.5q0 27 16.5 42t42.5 15z" />
    <glyph glyph-name="uni013B" unicode="&#x13b;" horiz-adv-x="673" 
d="M215 117q-8 -27 -7.5 -42t10.5 -22.5t28 -9t45 -1.5h32q57 0 92 3.5t59 13.5t42.5 26.5t41.5 43.5l63 72h28l-114 -201h-552l9 31l46 7q14 2 23.5 5t15.5 9t10.5 15.5t9.5 24.5l176 574q10 31 4.5 40t-30.5 14l-41 7l9 31h283l-10 -31l-46 -7q-14 -2 -23 -5t-15.5 -8.5
t-11 -15t-8.5 -24.5zM263 -90q42 0 67.5 -28t25.5 -68q0 -51 -48.5 -99t-151.5 -88l-11 23q64 29 99 63t35 69q0 30 -20.5 45.5t-54.5 24.5q0 28 16.5 43t42.5 15z" />
    <glyph glyph-name="Ldot" unicode="&#x13f;" horiz-adv-x="673" 
d="M215 117q-8 -27 -7.5 -42t10.5 -22.5t28 -9t45 -1.5h32q57 0 92 3.5t59 13.5t42.5 26.5t41.5 43.5l63 72h28l-114 -201h-552l9 31l46 7q14 2 23.5 5t15.5 9t10.5 15.5t9.5 24.5l176 574q10 31 4.5 40t-30.5 14l-41 7l9 31h283l-10 -31l-46 -7q-14 -2 -23 -5t-15.5 -8.5
t-11 -15t-8.5 -24.5zM585 350q-26 0 -43.5 17.5t-17.5 43.5q0 28 17.5 45.5t43.5 17.5t43.5 -17.5t17.5 -45.5q0 -26 -17.5 -43.5t-43.5 -17.5z" />
    <glyph glyph-name="glyph223" horiz-adv-x="673" 
d="M215 117q-8 -27 -7.5 -42t10.5 -22.5t28 -9t45 -1.5h32q57 0 92 3.5t59 13.5t42.5 26.5t41.5 43.5l63 72h28l-114 -201h-552l9 31l46 7q14 2 23.5 5t15.5 9t10.5 15.5t9.5 24.5l176 574q10 31 4.5 40t-30.5 14l-41 7l9 31h283l-10 -31l-46 -7q-14 -2 -23 -5t-15.5 -8.5
t-11 -15t-8.5 -24.5zM585 350q-26 0 -43.5 17.5t-17.5 43.5q0 28 17.5 45.5t43.5 17.5t43.5 -17.5t17.5 -45.5q0 -26 -17.5 -43.5t-43.5 -17.5z" />
    <glyph glyph-name="Lslash" unicode="&#x141;" horiz-adv-x="673" 
d="M215 117q-8 -27 -7.5 -42t10.5 -22.5t28 -9t45 -1.5h32q57 0 92 3.5t59 13.5t42.5 26.5t41.5 43.5l63 72h28l-114 -201h-552l9 31l46 7q14 2 23.5 5t15.5 9t10.5 15.5t9.5 24.5l176 574q10 31 4.5 40t-30.5 14l-41 7l9 31h283l-10 -31l-46 -7q-14 -2 -23 -5t-15.5 -8.5
t-11 -15t-8.5 -24.5zM24 291l439 193l-18 -62l-440 -193z" />
    <glyph glyph-name="Eng" unicode="&#x14a;" horiz-adv-x="921" 
d="M599 -152q-17 -11 -39.5 -25.5t-47.5 -30t-51 -31t-50 -28.5l-13 26q43 31 77 55.5t60.5 52.5t47 65.5t37.5 94.5l14 47l-318 533l-130 -424q-15 -50 -22 -78t-6.5 -42.5t7.5 -18.5t19 -6l43 -7l-10 -31h-227l9 31l46 7q14 2 23.5 6.5t19 18.5t20 42t25.5 78l128 419
q19 62 -2 92t-64 33l9 31h147l357 -593l126 410q15 50 22 78t6.5 42t-7.5 18.5t-20 6.5l-42 7l9 31h228l-9 -31l-47 -7q-14 -2 -23.5 -6.5t-18.5 -18.5t-19.5 -42t-25.5 -78l-162 -530q-11 -37 -22.5 -65.5t-26 -52t-33 -42.5t-44.5 -37z" />
    <glyph glyph-name="Nacute" unicode="&#x143;" horiz-adv-x="921" 
d="M316 607l-130 -424q-15 -50 -22 -78t-6.5 -42.5t7.5 -18.5t19 -6l43 -7l-10 -31h-227l9 31l46 7q14 2 23.5 6.5t19 18.5t20 42t25.5 78l128 419q19 62 -2 92t-64 33l9 31h147l357 -593l126 410q15 50 22 78t6.5 42t-7.5 18.5t-20 6.5l-42 7l9 31h228l-9 -31l-47 -7
q-14 -2 -23.5 -6.5t-18.5 -18.5t-19.5 -42t-25.5 -78l-177 -579h-30zM895 969l-284 -126h-23l137 129h171z" />
    <glyph glyph-name="Ncaron" unicode="&#x147;" horiz-adv-x="921" 
d="M316 607l-130 -424q-15 -50 -22 -78t-6.5 -42.5t7.5 -18.5t19 -6l43 -7l-10 -31h-227l9 31l46 7q14 2 23.5 6.5t19 18.5t20 42t25.5 78l128 419q19 62 -2 92t-64 33l9 31h147l357 -593l126 410q15 50 22 78t6.5 42t-7.5 18.5t-20 6.5l-42 7l9 31h228l-9 -31l-47 -7
q-14 -2 -23.5 -6.5t-18.5 -18.5t-19.5 -42t-25.5 -78l-177 -579h-30zM620 833l-97 150h20l103 -66l195 66h28l-233 -150h-16z" />
    <glyph glyph-name="uni0145" unicode="&#x145;" horiz-adv-x="921" 
d="M316 607l-130 -424q-15 -50 -22 -78t-6.5 -42.5t7.5 -18.5t19 -6l43 -7l-10 -31h-227l9 31l46 7q14 2 23.5 6.5t19 18.5t20 42t25.5 78l128 419q19 62 -2 92t-64 33l9 31h147l357 -593l126 410q15 50 22 78t6.5 42t-7.5 18.5t-20 6.5l-42 7l9 31h228l-9 -31l-47 -7
q-14 -2 -23.5 -6.5t-18.5 -18.5t-19.5 -42t-25.5 -78l-177 -579h-30zM370 -90q42 0 67.5 -28t25.5 -68q0 -51 -48.5 -99t-151.5 -88l-11 23q64 29 99 63t35 69q0 30 -20.5 45.5t-54.5 24.5q0 28 16.5 43t42.5 15z" />
    <glyph glyph-name="OE" unicode="&#x152;" horiz-adv-x="1263" 
d="M399 -13q-71 0 -129.5 23t-100 64.5t-64.5 99t-23 127.5q0 60 17.5 119t49 112t75.5 98.5t97 78.5t113 51.5t125 18.5q97 0 161 -46t94 -121l45 146h154l294 2l-48 -184h-31v46q0 34 -6.5 53t-27.5 28t-61 11t-107 2h-52q-20 0 -26 -20l-88 -286h127q21 0 36 1.5t28 8
t25.5 21t26.5 40.5l22 40h31l-83 -271h-31l3 40q2 26 -1.5 40.5t-12.5 21t-23.5 8t-35.5 1.5h-126l-75 -245q-8 -26 -7 -41t10 -22.5t26.5 -9t43.5 -1.5h23q68 0 110 3.5t70 13.5t48 26.5t44 43.5l64 72h31l-113 -201h-494l26 85q-54 -45 -118 -71.5t-136 -26.5zM554 732
q-59 0 -107.5 -21.5t-87 -57t-66.5 -82t-47 -97.5t-28 -103t-9 -97q0 -63 14 -108.5t40 -74.5t61.5 -43t79.5 -14q59 0 107.5 21.5t87 57t66.5 82t47 97.5t28 102.5t9 97.5q0 63 -14 108.5t-40 74.5t-62 43t-79 14z" />
    <glyph glyph-name="Obreve" unicode="&#x14e;" horiz-adv-x="891" 
d="M407 -13q-71 0 -130.5 23t-103 64.5t-67.5 99t-24 127.5q0 60 18 119t50.5 112t77.5 98.5t98.5 78.5t114.5 51.5t126 18.5q70 0 130 -23t103 -64.5t67.5 -99t24.5 -127.5q0 -60 -18 -119t-50.5 -112t-77.5 -98.5t-98.5 -78.5t-115 -51.5t-125.5 -18.5zM412 34
q59 0 108 21.5t88 57t68.5 82t49 97.5t29 102.5t9.5 97.5q0 63 -15.5 108.5t-42.5 74.5t-64 43t-81 14q-59 0 -107.5 -21.5t-87.5 -57t-68.5 -82t-49 -97.5t-29 -103t-9.5 -97q0 -63 15 -108.5t42 -74.5t64 -43t81 -14zM601 830q-33 0 -61 10t-47 30t-26 50t2 70h55
q-13 -54 10 -83t71 -29q22 0 42.5 5t38 17.5t31 34t22.5 55.5h56q-12 -49 -33.5 -80t-48 -49t-56 -24.5t-56.5 -6.5z" />
    <glyph glyph-name="Ohungarumlaut" unicode="&#x150;" horiz-adv-x="891" 
d="M407 -13q-71 0 -130.5 23t-103 64.5t-67.5 99t-24 127.5q0 60 18 119t50.5 112t77.5 98.5t98.5 78.5t114.5 51.5t126 18.5q70 0 130 -23t103 -64.5t67.5 -99t24.5 -127.5q0 -60 -18 -119t-50.5 -112t-77.5 -98.5t-98.5 -78.5t-115 -51.5t-125.5 -18.5zM412 34
q59 0 108 21.5t88 57t68.5 82t49 97.5t29 102.5t9.5 97.5q0 63 -15.5 108.5t-42.5 74.5t-64 43t-81 14q-59 0 -107.5 -21.5t-87.5 -57t-68.5 -82t-49 -97.5t-29 -103t-9.5 -97q0 -63 15 -108.5t42 -74.5t64 -43t81 -14zM959 969l-285 -126h-23l138 129h171zM748 969
l-284 -126h-23l137 129h171z" />
    <glyph glyph-name="Omacron" unicode="&#x14c;" horiz-adv-x="891" 
d="M407 -13q-71 0 -130.5 23t-103 64.5t-67.5 99t-24 127.5q0 60 18 119t50.5 112t77.5 98.5t98.5 78.5t114.5 51.5t126 18.5q70 0 130 -23t103 -64.5t67.5 -99t24.5 -127.5q0 -60 -18 -119t-50.5 -112t-77.5 -98.5t-98.5 -78.5t-115 -51.5t-125.5 -18.5zM412 34
q59 0 108 21.5t88 57t68.5 82t49 97.5t29 102.5t9.5 97.5q0 63 -15.5 108.5t-42.5 74.5t-64 43t-81 14q-59 0 -107.5 -21.5t-87.5 -57t-68.5 -82t-49 -97.5t-29 -103t-9.5 -97q0 -63 15 -108.5t42 -74.5t64 -43t81 -14zM466 939h296l-20 -65h-296z" />
    <glyph glyph-name="uni1ECC" unicode="&#x1ecc;" horiz-adv-x="891" 
d="M407 -13q-71 0 -130.5 23t-103 64.5t-67.5 99t-24 127.5q0 60 18 119t50.5 112t77.5 98.5t98.5 78.5t114.5 51.5t126 18.5q70 0 130 -23t103 -64.5t67.5 -99t24.5 -127.5q0 -60 -18 -119t-50.5 -112t-77.5 -98.5t-98.5 -78.5t-115 -51.5t-125.5 -18.5zM412 34
q59 0 108 21.5t88 57t68.5 82t49 97.5t29 102.5t9.5 97.5q0 63 -15.5 108.5t-42.5 74.5t-64 43t-81 14q-59 0 -107.5 -21.5t-87.5 -57t-68.5 -82t-49 -97.5t-29 -103t-9.5 -97q0 -63 15 -108.5t42 -74.5t64 -43t81 -14zM323 -244q-26 0 -43.5 18t-17.5 44q0 27 17.5 45
t43.5 18t43.5 -18t17.5 -45q0 -26 -17.5 -44t-43.5 -18z" />
    <glyph glyph-name="Racute" unicode="&#x154;" horiz-adv-x="797" 
d="M652 -12q-36 0 -63.5 10t-44.5 34.5t-22.5 64.5t3.5 100q8 53 0.5 86.5t-25 52t-43 25t-52.5 6.5h-113l-84 -276q-9 -30 -4.5 -39.5t29.5 -13.5l42 -7l-9 -31h-283l9 31l46 7q14 2 23.5 5t15.5 9t10.5 15.5t9.5 24.5l176 574q10 31 4.5 40t-30.5 14l-41 7l9 31h312
q123 0 192 -35.5t69 -115.5q0 -38 -17 -74t-52 -65.5t-88 -49.5t-125 -26l-1 -2q32 -2 60.5 -12t49.5 -30t31.5 -51t5.5 -75l-6 -54q-5 -45 -2 -72.5t15 -42.5t32 -19.5t50 -4.5l-8 -28q-22 -6 -41.5 -9.5t-39.5 -3.5zM304 407q12 -1 43 -1.5t64 -0.5q70 0 118 19.5t78 48.5
t43.5 63.5t13.5 63.5q0 28 -8 50t-26.5 37t-49.5 23t-77 8h-53q-17 0 -27.5 -1t-16.5 -3.5t-9 -7t-5 -11.5zM834 969l-284 -126h-23l137 129h171z" />
    <glyph glyph-name="Rcaron" unicode="&#x158;" horiz-adv-x="797" 
d="M652 -12q-36 0 -63.5 10t-44.5 34.5t-22.5 64.5t3.5 100q8 53 0.5 86.5t-25 52t-43 25t-52.5 6.5h-113l-84 -276q-9 -30 -4.5 -39.5t29.5 -13.5l42 -7l-9 -31h-283l9 31l46 7q14 2 23.5 5t15.5 9t10.5 15.5t9.5 24.5l176 574q10 31 4.5 40t-30.5 14l-41 7l9 31h312
q123 0 192 -35.5t69 -115.5q0 -38 -17 -74t-52 -65.5t-88 -49.5t-125 -26l-1 -2q32 -2 60.5 -12t49.5 -30t31.5 -51t5.5 -75l-6 -54q-5 -45 -2 -72.5t15 -42.5t32 -19.5t50 -4.5l-8 -28q-22 -6 -41.5 -9.5t-39.5 -3.5zM304 407q12 -1 43 -1.5t64 -0.5q70 0 118 19.5t78 48.5
t43.5 63.5t13.5 63.5q0 28 -8 50t-26.5 37t-49.5 23t-77 8h-53q-17 0 -27.5 -1t-16.5 -3.5t-9 -7t-5 -11.5zM559 833l-97 150h20l103 -66l195 66h28l-233 -150h-16z" />
    <glyph glyph-name="uni0156" unicode="&#x156;" horiz-adv-x="797" 
d="M652 -12q-36 0 -63.5 10t-44.5 34.5t-22.5 64.5t3.5 100q8 53 0.5 86.5t-25 52t-43 25t-52.5 6.5h-113l-84 -276q-9 -30 -4.5 -39.5t29.5 -13.5l42 -7l-9 -31h-283l9 31l46 7q14 2 23.5 5t15.5 9t10.5 15.5t9.5 24.5l176 574q10 31 4.5 40t-30.5 14l-41 7l9 31h312
q123 0 192 -35.5t69 -115.5q0 -38 -17 -74t-52 -65.5t-88 -49.5t-125 -26l-1 -2q32 -2 60.5 -12t49.5 -30t31.5 -51t5.5 -75l-6 -54q-5 -45 -2 -72.5t15 -42.5t32 -19.5t50 -4.5l-8 -28q-22 -6 -41.5 -9.5t-39.5 -3.5zM304 407q12 -1 43 -1.5t64 -0.5q70 0 118 19.5t78 48.5
t43.5 63.5t13.5 63.5q0 28 -8 50t-26.5 37t-49.5 23t-77 8h-53q-17 0 -27.5 -1t-16.5 -3.5t-9 -7t-5 -11.5zM354 -90q42 0 67.5 -28t25.5 -68q0 -51 -48.5 -99t-151.5 -88l-11 23q64 29 99 63t35 69q0 30 -20.5 45.5t-54.5 24.5q0 28 16.5 43t42.5 15z" />
    <glyph glyph-name="Sacute" unicode="&#x15a;" horiz-adv-x="628" 
d="M211 -13q-29 0 -57.5 5t-55.5 12.5t-50 17t-40 18.5l41 218h28l22 -153q2 -14 7 -26.5t16 -20.5q17 -14 46.5 -19.5t66.5 -5.5q39 0 75.5 11t64 32t44.5 51t17 68t-17 68.5t-61 70.5l-73 66q-42 38 -61 75.5t-19 79.5q0 45 21.5 85.5t62 71t98 49t129.5 18.5
q58 0 103.5 -8.5t78.5 -19.5l-42 -183h-28l-16 103q-4 23 -12.5 33.5t-26.5 17.5q-14 5 -36 8t-44 3q-41 0 -74.5 -10.5t-57 -28.5t-36.5 -43t-13 -55q0 -28 13 -55t42 -53l73 -65q24 -22 44 -42.5t34.5 -43t22 -48t7.5 -58.5q0 -49 -24.5 -93.5t-69 -78t-106.5 -53
t-137 -19.5zM787 969l-284 -126h-23l137 129h171z" />
    <glyph glyph-name="Scaron" unicode="&#x160;" horiz-adv-x="628" 
d="M211 -13q-29 0 -57.5 5t-55.5 12.5t-50 17t-40 18.5l41 218h28l22 -153q2 -14 7 -26.5t16 -20.5q17 -14 46.5 -19.5t66.5 -5.5q39 0 75.5 11t64 32t44.5 51t17 68t-17 68.5t-61 70.5l-73 66q-42 38 -61 75.5t-19 79.5q0 45 21.5 85.5t62 71t98 49t129.5 18.5
q58 0 103.5 -8.5t78.5 -19.5l-42 -183h-28l-16 103q-4 23 -12.5 33.5t-26.5 17.5q-14 5 -36 8t-44 3q-41 0 -74.5 -10.5t-57 -28.5t-36.5 -43t-13 -55q0 -28 13 -55t42 -53l73 -65q24 -22 44 -42.5t34.5 -43t22 -48t7.5 -58.5q0 -49 -24.5 -93.5t-69 -78t-106.5 -53
t-137 -19.5zM512 833l-97 150h20l103 -66l195 66h28l-233 -150h-16z" />
    <glyph glyph-name="Scedilla" unicode="&#x15e;" horiz-adv-x="628" 
d="M211 -13q-29 0 -57.5 5t-55.5 12.5t-50 17t-40 18.5l41 218h28l22 -153q2 -14 7 -26.5t16 -20.5q17 -14 46.5 -19.5t66.5 -5.5q39 0 75.5 11t64 32t44.5 51t17 68t-17 68.5t-61 70.5l-73 66q-42 38 -61 75.5t-19 79.5q0 45 21.5 85.5t62 71t98 49t129.5 18.5
q58 0 103.5 -8.5t78.5 -19.5l-42 -183h-28l-16 103q-4 23 -12.5 33.5t-26.5 17.5q-14 5 -36 8t-44 3q-41 0 -74.5 -10.5t-57 -28.5t-36.5 -43t-13 -55q0 -28 13 -55t42 -53l73 -65q24 -22 44 -42.5t34.5 -43t22 -48t7.5 -58.5q0 -49 -24.5 -93.5t-69 -78t-106.5 -53
t-137 -19.5zM129 -261q-45 0 -68 19t-23 41q0 19 16 29.5t39 3.5q2 -32 18 -47.5t42 -15.5q18 0 30 7.5t12 22.5q0 16 -24 37.5t-65 48.5l147 115h44l-103 -81q29 -19 45.5 -40t16.5 -45q0 -16 -9 -33t-26 -30.5t-40.5 -22.5t-51.5 -9z" />
    <glyph glyph-name="Scircumflex" unicode="&#x15c;" horiz-adv-x="628" 
d="M211 -13q-29 0 -57.5 5t-55.5 12.5t-50 17t-40 18.5l41 218h28l22 -153q2 -14 7 -26.5t16 -20.5q17 -14 46.5 -19.5t66.5 -5.5q39 0 75.5 11t64 32t44.5 51t17 68t-17 68.5t-61 70.5l-73 66q-42 38 -61 75.5t-19 79.5q0 45 21.5 85.5t62 71t98 49t129.5 18.5
q58 0 103.5 -8.5t78.5 -19.5l-42 -183h-28l-16 103q-4 23 -12.5 33.5t-26.5 17.5q-14 5 -36 8t-44 3q-41 0 -74.5 -10.5t-57 -28.5t-36.5 -43t-13 -55q0 -28 13 -55t42 -53l73 -65q24 -22 44 -42.5t34.5 -43t22 -48t7.5 -58.5q0 -49 -24.5 -93.5t-69 -78t-106.5 -53
t-137 -19.5zM589 983l97 -150h-20l-103 66l-194 -66h-29l233 150h16z" />
    <glyph glyph-name="uni0218" unicode="&#x218;" horiz-adv-x="628" 
d="M211 -13q-29 0 -57.5 5t-55.5 12.5t-50 17t-40 18.5l41 218h28l22 -153q2 -14 7 -26.5t16 -20.5q17 -14 46.5 -19.5t66.5 -5.5q39 0 75.5 11t64 32t44.5 51t17 68t-17 68.5t-61 70.5l-73 66q-42 38 -61 75.5t-19 79.5q0 45 21.5 85.5t62 71t98 49t129.5 18.5
q58 0 103.5 -8.5t78.5 -19.5l-42 -183h-28l-16 103q-4 23 -12.5 33.5t-26.5 17.5q-14 5 -36 8t-44 3q-41 0 -74.5 -10.5t-57 -28.5t-36.5 -43t-13 -55q0 -28 13 -55t42 -53l73 -65q24 -22 44 -42.5t34.5 -43t22 -48t7.5 -58.5q0 -49 -24.5 -93.5t-69 -78t-106.5 -53
t-137 -19.5zM197 -90q42 0 67.5 -28t25.5 -68q0 -51 -48.5 -99t-151.5 -88l-11 23q64 29 99 63t35 69q0 30 -20.5 45.5t-54.5 24.5q0 28 16.5 43t42.5 15z" />
    <glyph glyph-name="Tbar" unicode="&#x166;" horiz-adv-x="743" 
d="M134 33l76 7q27 2 38 11.5t20 39.5l191 625h-28q-64 0 -105 -2t-69 -11.5t-47 -28t-39 -51.5l-29 -47h-28l65 184l284 -2h129l284 2l-47 -184h-27l-1 47q-1 33 -8.5 51.5t-29.5 28t-61 11.5t-103 2h-29l-191 -625q-9 -30 -4.5 -39.5t30.5 -11.5l72 -7l-10 -33h-343z
M169 411h504l-15 -50h-505z" />
    <glyph glyph-name="Tcaron" unicode="&#x164;" horiz-adv-x="743" 
d="M134 33l76 7q27 2 38 11.5t20 39.5l191 625h-28q-64 0 -105 -2t-69 -11.5t-47 -28t-39 -51.5l-29 -47h-28l65 184l284 -2h129l284 2l-47 -184h-27l-1 47q-1 33 -8.5 51.5t-29.5 28t-61 11.5t-103 2h-29l-191 -625q-9 -30 -4.5 -39.5t30.5 -11.5l72 -7l-10 -33h-343z
M551 833l-97 150h20l103 -66l195 66h28l-233 -150h-16z" />
    <glyph glyph-name="uni0162" unicode="&#x162;" horiz-adv-x="743" 
d="M134 33l76 7q27 2 38 11.5t20 39.5l191 625h-28q-64 0 -105 -2t-69 -11.5t-47 -28t-39 -51.5l-29 -47h-28l65 184l284 -2h129l284 2l-47 -184h-27l-1 47q-1 33 -8.5 51.5t-29.5 28t-61 11.5t-103 2h-29l-191 -625q-9 -30 -4.5 -39.5t30.5 -11.5l72 -7l-10 -33h-343z
M218 -90q42 0 67.5 -28t25.5 -68q0 -51 -48.5 -99t-151.5 -88l-11 23q64 29 99 63t35 69q0 30 -20.5 45.5t-54.5 24.5q0 28 16.5 43t42.5 15z" />
    <glyph glyph-name="uni021A" unicode="&#x21a;" horiz-adv-x="743" 
d="M134 33l76 7q27 2 38 11.5t20 39.5l191 625h-28q-64 0 -105 -2t-69 -11.5t-47 -28t-39 -51.5l-29 -47h-28l65 184l284 -2h129l284 2l-47 -184h-27l-1 47q-1 33 -8.5 51.5t-29.5 28t-61 11.5t-103 2h-29l-191 -625q-9 -30 -4.5 -39.5t30.5 -11.5l72 -7l-10 -33h-343z
M218 -90q42 0 67.5 -28t25.5 -68q0 -51 -48.5 -99t-151.5 -88l-11 23q64 29 99 63t35 69q0 30 -20.5 45.5t-54.5 24.5q0 28 16.5 43t42.5 15z" />
    <glyph glyph-name="Ubreve" unicode="&#x16c;" horiz-adv-x="866" 
d="M380 -13q-73 0 -130 16t-90 54t-38.5 101t23.5 157l108 351q10 31 4.5 40t-30.5 14l-41 7l9 31h283l-9 -31l-47 -7q-14 -2 -23 -5t-15.5 -8.5t-11 -15t-8.5 -24.5l-108 -353q-24 -80 -23 -132.5t22 -83.5t58 -44t84 -13q51 0 97 12.5t85.5 43.5t72.5 84t58 133l80 261
q15 50 22 78t6.5 42t-8 18.5t-20.5 6.5l-41 7l9 31h228l-9 -31l-47 -7q-14 -2 -23.5 -6.5t-18.5 -18.5t-19.5 -42t-25.5 -78l-80 -261q-28 -92 -65.5 -154.5t-84.5 -100.5t-105 -55t-128 -17zM649 830q-33 0 -61 10t-47 30t-26 50t2 70h55q-13 -54 10 -83t71 -29
q22 0 42.5 5t38 17.5t31 34t22.5 55.5h56q-12 -49 -33.5 -80t-48 -49t-56 -24.5t-56.5 -6.5z" />
    <glyph glyph-name="Uhungarumlaut" unicode="&#x170;" horiz-adv-x="866" 
d="M380 -13q-73 0 -130 16t-90 54t-38.5 101t23.5 157l108 351q10 31 4.5 40t-30.5 14l-41 7l9 31h283l-9 -31l-47 -7q-14 -2 -23 -5t-15.5 -8.5t-11 -15t-8.5 -24.5l-108 -353q-24 -80 -23 -132.5t22 -83.5t58 -44t84 -13q51 0 97 12.5t85.5 43.5t72.5 84t58 133l80 261
q15 50 22 78t6.5 42t-8 18.5t-20.5 6.5l-41 7l9 31h228l-9 -31l-47 -7q-14 -2 -23.5 -6.5t-18.5 -18.5t-19.5 -42t-25.5 -78l-80 -261q-28 -92 -65.5 -154.5t-84.5 -100.5t-105 -55t-128 -17zM1007 969l-285 -126h-23l138 129h171zM796 969l-284 -126h-23l137 129h171z" />
    <glyph glyph-name="Umacron" unicode="&#x16a;" horiz-adv-x="866" 
d="M380 -13q-73 0 -130 16t-90 54t-38.5 101t23.5 157l108 351q10 31 4.5 40t-30.5 14l-41 7l9 31h283l-9 -31l-47 -7q-14 -2 -23 -5t-15.5 -8.5t-11 -15t-8.5 -24.5l-108 -353q-24 -80 -23 -132.5t22 -83.5t58 -44t84 -13q51 0 97 12.5t85.5 43.5t72.5 84t58 133l80 261
q15 50 22 78t6.5 42t-8 18.5t-20.5 6.5l-41 7l9 31h228l-9 -31l-47 -7q-14 -2 -23.5 -6.5t-18.5 -18.5t-19.5 -42t-25.5 -78l-80 -261q-28 -92 -65.5 -154.5t-84.5 -100.5t-105 -55t-128 -17zM514 939h296l-20 -65h-296z" />
    <glyph glyph-name="Uogonek" unicode="&#x172;" horiz-adv-x="866" 
d="M380 -13q-73 0 -130 16t-90 54t-38.5 101t23.5 157l108 351q10 31 4.5 40t-30.5 14l-41 7l9 31h283l-9 -31l-47 -7q-14 -2 -23 -5t-15.5 -8.5t-11 -15t-8.5 -24.5l-108 -353q-24 -80 -23 -132.5t22 -83.5t58 -44t84 -13q51 0 97 12.5t85.5 43.5t72.5 84t58 133l80 261
q15 50 22 78t6.5 42t-8 18.5t-20.5 6.5l-41 7l9 31h228l-9 -31l-47 -7q-14 -2 -23.5 -6.5t-18.5 -18.5t-19.5 -42t-25.5 -78l-80 -261q-26 -83 -59 -142.5t-74 -98t-91 -59t-109 -25.5q-19 -13 -37 -28t-32.5 -31.5t-23 -33.5t-8.5 -34q0 -31 27 -42.5t87 0.5l-8 -28
q-18 -9 -44.5 -17.5t-57.5 -8.5q-43 0 -67.5 20.5t-24.5 52.5q0 22 13 42t33.5 39t46 35.5t50.5 31.5h-4z" />
    <glyph glyph-name="Uring" unicode="&#x16e;" horiz-adv-x="866" 
d="M380 -13q-73 0 -130 16t-90 54t-38.5 101t23.5 157l108 351q10 31 4.5 40t-30.5 14l-41 7l9 31h283l-9 -31l-47 -7q-14 -2 -23 -5t-15.5 -8.5t-11 -15t-8.5 -24.5l-108 -353q-24 -80 -23 -132.5t22 -83.5t58 -44t84 -13q51 0 97 12.5t85.5 43.5t72.5 84t58 133l80 261
q15 50 22 78t6.5 42t-8 18.5t-20.5 6.5l-41 7l9 31h228l-9 -31l-47 -7q-14 -2 -23.5 -6.5t-18.5 -18.5t-19.5 -42t-25.5 -78l-80 -261q-28 -92 -65.5 -154.5t-84.5 -100.5t-105 -55t-128 -17zM548 963q0 25 9.5 46.5t26.5 38t39 26t48 9.5t49 -9.5t40 -26t26.5 -38
t9.5 -46.5t-9.5 -46.5t-26.5 -37.5t-40 -25t-49 -9t-48 9t-39 25t-26.5 37.5t-9.5 46.5zM741 963q0 32 -18.5 51t-51.5 19q-32 0 -50 -19t-18 -51t18 -50.5t50 -18.5q33 0 51.5 18.5t18.5 50.5z" />
    <glyph glyph-name="Utilde" unicode="&#x168;" horiz-adv-x="866" 
d="M380 -13q-73 0 -130 16t-90 54t-38.5 101t23.5 157l108 351q10 31 4.5 40t-30.5 14l-41 7l9 31h283l-9 -31l-47 -7q-14 -2 -23 -5t-15.5 -8.5t-11 -15t-8.5 -24.5l-108 -353q-24 -80 -23 -132.5t22 -83.5t58 -44t84 -13q51 0 97 12.5t85.5 43.5t72.5 84t58 133l80 261
q15 50 22 78t6.5 42t-8 18.5t-20.5 6.5l-41 7l9 31h228l-9 -31l-47 -7q-14 -2 -23.5 -6.5t-18.5 -18.5t-19.5 -42t-25.5 -78l-80 -261q-28 -92 -65.5 -154.5t-84.5 -100.5t-105 -55t-128 -17zM456 833q13 67 42.5 104.5t78.5 37.5q24 0 45 -11t40.5 -24t38.5 -24t40 -11
q23 0 41 12.5t28 54.5h23q-12 -77 -40 -107t-71 -30q-26 0 -46 11t-38.5 23.5t-37 23.5t-40.5 11q-27 0 -49.5 -14.5t-33.5 -56.5h-21z" />
    <glyph glyph-name="uni1EE4" unicode="&#x1ee4;" horiz-adv-x="866" 
d="M380 -13q-73 0 -130 16t-90 54t-38.5 101t23.5 157l108 351q10 31 4.5 40t-30.5 14l-41 7l9 31h283l-9 -31l-47 -7q-14 -2 -23 -5t-15.5 -8.5t-11 -15t-8.5 -24.5l-108 -353q-24 -80 -23 -132.5t22 -83.5t58 -44t84 -13q51 0 97 12.5t85.5 43.5t72.5 84t58 133l80 261
q15 50 22 78t6.5 42t-8 18.5t-20.5 6.5l-41 7l9 31h228l-9 -31l-47 -7q-14 -2 -23.5 -6.5t-18.5 -18.5t-19.5 -42t-25.5 -78l-80 -261q-28 -92 -65.5 -154.5t-84.5 -100.5t-105 -55t-128 -17zM318 -244q-26 0 -43.5 18t-17.5 44q0 27 17.5 45t43.5 18t43.5 -18t17.5 -45
q0 -26 -17.5 -44t-43.5 -18z" />
    <glyph glyph-name="Wacute" unicode="&#x1e82;" horiz-adv-x="1168" 
d="M1339 727l-45 -7q-14 -2 -25.5 -8t-23.5 -17.5t-27 -31t-37 -48.5l-489 -645h-36l-21 451l-342 -451h-36l-31 679q-1 19 -2.5 31.5t-6.5 20.5t-14.5 12t-25.5 7l-40 7l9 31h286l-10 -31l-45 -7q-14 -2 -22.5 -5.5t-13 -9.5t-5.5 -15t0 -24l25 -528l270 359l-12 261h241
l-10 -31l-74 -7q-14 -2 -22.5 -5t-13 -9t-5.5 -15.5t0 -24.5l25 -528l366 485q22 30 32 48t10.5 28.5t-7 14.5t-19.5 6l-42 7l9 31h239zM1022 969l-284 -126h-23l137 129h171z" />
    <glyph glyph-name="Wcircumflex" unicode="&#x174;" horiz-adv-x="1168" 
d="M1339 727l-45 -7q-14 -2 -25.5 -8t-23.5 -17.5t-27 -31t-37 -48.5l-489 -645h-36l-21 451l-342 -451h-36l-31 679q-1 19 -2.5 31.5t-6.5 20.5t-14.5 12t-25.5 7l-40 7l9 31h286l-10 -31l-45 -7q-14 -2 -22.5 -5.5t-13 -9.5t-5.5 -15t0 -24l25 -528l270 359l-12 261h241
l-10 -31l-74 -7q-14 -2 -22.5 -5t-13 -9t-5.5 -15.5t0 -24.5l25 -528l366 485q22 30 32 48t10.5 28.5t-7 14.5t-19.5 6l-42 7l9 31h239zM824 983l97 -150h-20l-103 66l-194 -66h-29l233 150h16z" />
    <glyph glyph-name="Wdieresis" unicode="&#x1e84;" horiz-adv-x="1168" 
d="M1339 727l-45 -7q-14 -2 -25.5 -8t-23.5 -17.5t-27 -31t-37 -48.5l-489 -645h-36l-21 451l-342 -451h-36l-31 679q-1 19 -2.5 31.5t-6.5 20.5t-14.5 12t-25.5 7l-40 7l9 31h286l-10 -31l-45 -7q-14 -2 -22.5 -5.5t-13 -9.5t-5.5 -15t0 -24l25 -528l270 359l-12 261h241
l-10 -31l-74 -7q-14 -2 -22.5 -5t-13 -9t-5.5 -15.5t0 -24.5l25 -528l366 485q22 30 32 48t10.5 28.5t-7 14.5t-19.5 6l-42 7l9 31h239zM649 845q-26 0 -43.5 17.5t-17.5 43.5q0 28 17.5 45.5t43.5 17.5t43.5 -17.5t17.5 -45.5q0 -26 -17.5 -43.5t-43.5 -17.5zM901 845
q-26 0 -43.5 17.5t-17.5 43.5q0 28 17.5 45.5t43.5 17.5t43.5 -17.5t17.5 -45.5q0 -26 -17.5 -43.5t-43.5 -17.5z" />
    <glyph glyph-name="Wgrave" unicode="&#x1e80;" horiz-adv-x="1168" 
d="M1339 727l-45 -7q-14 -2 -25.5 -8t-23.5 -17.5t-27 -31t-37 -48.5l-489 -645h-36l-21 451l-342 -451h-36l-31 679q-1 19 -2.5 31.5t-6.5 20.5t-14.5 12t-25.5 7l-40 7l9 31h286l-10 -31l-45 -7q-14 -2 -22.5 -5.5t-13 -9.5t-5.5 -15t0 -24l25 -528l270 359l-12 261h241
l-10 -31l-74 -7q-14 -2 -22.5 -5t-13 -9t-5.5 -15.5t0 -24.5l25 -528l366 485q22 30 32 48t10.5 28.5t-7 14.5t-19.5 6l-42 7l9 31h239zM749 972l58 -129h-19l-194 126l1 3h154z" />
    <glyph glyph-name="Ycircumflex" unicode="&#x176;" horiz-adv-x="778" 
d="M149 33l75 7q28 2 39 11.5t20 39.5l74 243l-122 315q-11 29 -20 47.5t-35 23.5l-40 7l10 31h287l-10 -31l-46 -7q-28 -5 -37.5 -16t1.5 -38l109 -281l246 238q27 26 40.5 43.5t16.5 28.5t-3.5 17t-19.5 8l-41 7l10 31h242l-9 -31l-46 -7q-14 -2 -26 -9t-26 -19.5
t-32.5 -31.5t-45.5 -45l-293 -282l-74 -242q-9 -30 -4 -39.5t31 -11.5l71 -7l-10 -33h-343zM650 983l97 -150h-20l-103 66l-194 -66h-29l233 150h16z" />
    <glyph glyph-name="Ydieresis" unicode="&#x178;" horiz-adv-x="778" 
d="M149 33l75 7q28 2 39 11.5t20 39.5l74 243l-122 315q-11 29 -20 47.5t-35 23.5l-40 7l10 31h287l-10 -31l-46 -7q-28 -5 -37.5 -16t1.5 -38l109 -281l246 238q27 26 40.5 43.5t16.5 28.5t-3.5 17t-19.5 8l-41 7l10 31h242l-9 -31l-46 -7q-14 -2 -26 -9t-26 -19.5
t-32.5 -31.5t-45.5 -45l-293 -282l-74 -242q-9 -30 -4 -39.5t31 -11.5l71 -7l-10 -33h-343zM475 845q-26 0 -43.5 17.5t-17.5 43.5q0 28 17.5 45.5t43.5 17.5t43.5 -17.5t17.5 -45.5q0 -26 -17.5 -43.5t-43.5 -17.5zM727 845q-26 0 -43.5 17.5t-17.5 43.5q0 28 17.5 45.5
t43.5 17.5t43.5 -17.5t17.5 -45.5q0 -26 -17.5 -43.5t-43.5 -17.5z" />
    <glyph glyph-name="Ygrave" unicode="&#x1ef2;" horiz-adv-x="778" 
d="M149 33l75 7q28 2 39 11.5t20 39.5l74 243l-122 315q-11 29 -20 47.5t-35 23.5l-40 7l10 31h287l-10 -31l-46 -7q-28 -5 -37.5 -16t1.5 -38l109 -281l246 238q27 26 40.5 43.5t16.5 28.5t-3.5 17t-19.5 8l-41 7l10 31h242l-9 -31l-46 -7q-14 -2 -26 -9t-26 -19.5
t-32.5 -31.5t-45.5 -45l-293 -282l-74 -242q-9 -30 -4 -39.5t31 -11.5l71 -7l-10 -33h-343zM575 972l58 -129h-19l-194 126l1 3h154z" />
    <glyph glyph-name="uni0232" unicode="&#x232;" horiz-adv-x="778" 
d="M149 33l75 7q28 2 39 11.5t20 39.5l74 243l-122 315q-11 29 -20 47.5t-35 23.5l-40 7l10 31h287l-10 -31l-46 -7q-28 -5 -37.5 -16t1.5 -38l109 -281l246 238q27 26 40.5 43.5t16.5 28.5t-3.5 17t-19.5 8l-41 7l10 31h242l-9 -31l-46 -7q-14 -2 -26 -9t-26 -19.5
t-32.5 -31.5t-45.5 -45l-293 -282l-74 -242q-9 -30 -4 -39.5t31 -11.5l71 -7l-10 -33h-343zM463 939h296l-20 -65h-296z" />
    <glyph glyph-name="Zacute" unicode="&#x179;" horiz-adv-x="761" 
d="M704 716h-179q-71 0 -114 -3t-71 -12.5t-47 -26.5t-43 -45l-61 -72h-30l115 203l284 -2h328l-765 -716h219q71 0 114.5 3t71.5 12.5t47 26.5t42 44l61 73h30l-113 -201h-653zM848 969l-284 -126h-23l137 129h171z" />
    <glyph glyph-name="Zcaron" unicode="&#x17d;" horiz-adv-x="761" 
d="M704 716h-179q-71 0 -114 -3t-71 -12.5t-47 -26.5t-43 -45l-61 -72h-30l115 203l284 -2h328l-765 -716h219q71 0 114.5 3t71.5 12.5t47 26.5t42 44l61 73h30l-113 -201h-653zM574 833l-97 150h20l103 -66l195 66h28l-233 -150h-16z" />
    <glyph glyph-name="Zdotaccent" unicode="&#x17b;" horiz-adv-x="761" 
d="M704 716h-179q-71 0 -114 -3t-71 -12.5t-47 -26.5t-43 -45l-61 -72h-30l115 203l284 -2h328l-765 -716h219q71 0 114.5 3t71.5 12.5t47 26.5t42 44l61 73h30l-113 -201h-653zM602 845q-26 0 -43.5 17.5t-17.5 43.5q0 28 17.5 45.5t43.5 17.5t43.5 -17.5t17.5 -45.5
q0 -26 -17.5 -43.5t-43.5 -17.5z" />
    <glyph glyph-name="uni018F" unicode="&#x18f;" horiz-adv-x="804" 
d="M358 -11q-69 0 -124 23.5t-92.5 65.5t-55.5 101.5t-13 131.5h594q7 28 10 55.5t3 54.5q0 71 -19 124t-51.5 88.5t-76 53.5t-93.5 18q-82 0 -157.5 -42t-129.5 -125l-33 19q22 44 57 84.5t81.5 71.5t104.5 49.5t127 18.5q67 0 124 -22.5t98 -64t64.5 -100.5t23.5 -132
q0 -97 -36.5 -183t-97.5 -150.5t-141 -102t-167 -37.5zM365 35q57 0 103.5 18.5t82.5 50.5t62 74.5t42 89.5h-463q-10 -111 36.5 -172t136.5 -61z" />
    <glyph glyph-name="abreve" unicode="&#x103;" horiz-adv-x="567" 
d="M82 -13q-44 0 -64 28.5t-20 66.5q0 43 19.5 92.5t51 98t72.5 93t83.5 78.5t84 54.5t74.5 20.5q18 0 33.5 -8.5t20.5 -27.5l16 44h95l-156 -412q-11 -29 -13.5 -45t9.5 -16q10 0 27 11.5t36.5 31t40 45t38.5 53.5l28 -17q-60 -94 -119.5 -142.5t-109.5 -48.5
q-46 0 -49.5 28t17.5 88l23 64h-1q-27 -35 -55.5 -67.5t-58.5 -57.5t-61 -40t-62 -15zM145 50q16 0 46 22t63.5 59.5t66 87.5t54.5 107l27 69q10 25 10.5 41.5t-5 26.5t-15 14t-19.5 4q-40 0 -85 -36.5t-83.5 -92t-63.5 -121t-25 -124.5q0 -23 6 -40t23 -17zM439 628
q-33 0 -61 10t-47 30t-26 50t2 70h55q-13 -53 10 -82t71 -29q22 0 42.5 4.5t38 17t31 34t22.5 55.5h56q-12 -49 -33.5 -80t-48 -49t-56 -24.5t-56.5 -6.5z" />
    <glyph glyph-name="amacron" unicode="&#x101;" horiz-adv-x="567" 
d="M82 -13q-44 0 -64 28.5t-20 66.5q0 43 19.5 92.5t51 98t72.5 93t83.5 78.5t84 54.5t74.5 20.5q18 0 33.5 -8.5t20.5 -27.5l16 44h95l-156 -412q-11 -29 -13.5 -45t9.5 -16q10 0 27 11.5t36.5 31t40 45t38.5 53.5l28 -17q-60 -94 -119.5 -142.5t-109.5 -48.5
q-46 0 -49.5 28t17.5 88l23 64h-1q-27 -35 -55.5 -67.5t-58.5 -57.5t-61 -40t-62 -15zM145 50q16 0 46 22t63.5 59.5t66 87.5t54.5 107l27 69q10 25 10.5 41.5t-5 26.5t-15 14t-19.5 4q-40 0 -85 -36.5t-83.5 -92t-63.5 -121t-25 -124.5q0 -23 6 -40t23 -17zM318 735h296
l-22 -65h-296z" />
    <glyph glyph-name="aogonek" unicode="&#x105;" horiz-adv-x="567" 
d="M82 -13q-44 0 -64 28.5t-20 66.5q0 43 19.5 92.5t51 98t72.5 93t83.5 78.5t84 54.5t74.5 20.5q18 0 33.5 -8.5t20.5 -27.5l16 44h95l-156 -412q-11 -29 -13.5 -45t9.5 -16q10 0 27 11.5t36.5 31t40 45t38.5 53.5l28 -17q-53 -82 -104.5 -129t-97.5 -58q-19 -14 -37 -29
t-32.5 -31.5t-23.5 -33.5t-9 -35q0 -31 27 -42.5t87 0.5l-8 -28q-19 -9 -45 -17.5t-58 -8.5q-42 0 -67 20.5t-25 52.5q0 22 13.5 42.5t34.5 39t47 35.5t51 32q-32 5 -32.5 33t18.5 82l23 64h-1q-27 -35 -55.5 -67.5t-58.5 -57.5t-61 -40t-62 -15zM145 50q16 0 46 22
t63.5 59.5t66 87.5t54.5 107l27 69q10 25 10.5 41.5t-5 26.5t-15 14t-19.5 4q-40 0 -85 -36.5t-83.5 -92t-63.5 -121t-25 -124.5q0 -23 6 -40t23 -17z" />
    <glyph glyph-name="cacute" unicode="&#x107;" horiz-adv-x="436" 
d="M144 -13q-27 0 -50 9t-40.5 26t-27.5 42t-10 57q0 39 14 84t38.5 89.5t58 85t72 71.5t80 49.5t83.5 18.5q38 0 65 -15t27 -49q0 -23 -16.5 -38.5t-33.5 -15.5t-26.5 9t-19 20t-23.5 20t-39 9q-35 0 -65.5 -26t-53 -68.5t-36 -97t-13.5 -112.5q0 -48 16 -75.5t52 -27.5
q40 0 77.5 35t75.5 95l27 -18q-22 -36 -46.5 -68t-52.5 -56.5t-61 -38.5t-72 -14zM500 788h142l-1 -4l-271 -175h-20z" />
    <glyph glyph-name="ccaron" unicode="&#x10d;" horiz-adv-x="436" 
d="M144 -13q-27 0 -50 9t-40.5 26t-27.5 42t-10 57q0 39 14 84t38.5 89.5t58 85t72 71.5t80 49.5t83.5 18.5q38 0 65 -15t27 -49q0 -23 -16.5 -38.5t-33.5 -15.5t-26.5 9t-19 20t-23.5 20t-39 9q-35 0 -65.5 -26t-53 -68.5t-36 -97t-13.5 -112.5q0 -48 16 -75.5t52 -27.5
q40 0 77.5 35t75.5 95l27 -18q-22 -36 -46.5 -68t-52.5 -56.5t-61 -38.5t-72 -14zM294 805h17l89 -94l201 94h23l-244 -196h-12z" />
    <glyph glyph-name="ccircumflex" unicode="&#x109;" horiz-adv-x="436" 
d="M144 -13q-27 0 -50 9t-40.5 26t-27.5 42t-10 57q0 39 14 84t38.5 89.5t58 85t72 71.5t80 49.5t83.5 18.5q38 0 65 -15t27 -49q0 -23 -16.5 -38.5t-33.5 -15.5t-26.5 9t-19 20t-23.5 20t-39 9q-35 0 -65.5 -26t-53 -68.5t-36 -97t-13.5 -112.5q0 -48 16 -75.5t52 -27.5
q40 0 77.5 35t75.5 95l27 -18q-22 -36 -46.5 -68t-52.5 -56.5t-61 -38.5t-72 -14zM535 609h-17l-89 94l-201 -94h-23l244 197h12z" />
    <glyph glyph-name="cdotaccent" unicode="&#x10b;" horiz-adv-x="436" 
d="M144 -13q-27 0 -50 9t-40.5 26t-27.5 42t-10 57q0 39 14 84t38.5 89.5t58 85t72 71.5t80 49.5t83.5 18.5q38 0 65 -15t27 -49q0 -23 -16.5 -38.5t-33.5 -15.5t-26.5 9t-19 20t-23.5 20t-39 9q-35 0 -65.5 -26t-53 -68.5t-36 -97t-13.5 -112.5q0 -48 16 -75.5t52 -27.5
q40 0 77.5 35t75.5 95l27 -18q-22 -36 -46.5 -68t-52.5 -56.5t-61 -38.5t-72 -14zM412 641q-24 0 -41 17t-17 43q0 25 17 42t41 17q26 0 42.5 -17t16.5 -42q0 -26 -16.5 -43t-42.5 -17z" />
    <glyph glyph-name="dcaron" unicode="&#x10f;" horiz-adv-x="638" 
d="M89 -13q-45 0 -68 27t-23 68q0 40 18.5 88.5t49 97t70 94t82 80.5t85 56t79.5 21q22 0 37.5 -9.5t23.5 -25.5l71 216q5 17 0 26t-29 11l-62 6l10 28l211 23l-228 -679q-10 -30 -13 -45.5t9 -15.5q10 0 27 11.5t36.5 31t40 45t38.5 53.5l28 -17q-61 -94 -120 -142.5
t-109 -48.5q-23 0 -35 7t-15 21.5t1.5 36t15.5 51.5l31 87h-2q-78 -104 -142.5 -153.5t-117.5 -49.5zM145 50q20 0 54.5 24t72 64.5t71.5 93.5t53 111l16 48q9 27 7.5 44.5t-9 27.5t-19 14t-21.5 4q-40 0 -85 -36t-82.5 -91t-62 -120t-24.5 -123q0 -29 6.5 -45t22.5 -16z
M759 809q42 0 67.5 -28t25.5 -67q0 -51 -48.5 -99.5t-150.5 -88.5l-12 23q64 29 99 63t35 69q0 30 -20.5 45.5t-54.5 25.5q0 27 16.5 42t42.5 15z" />
    <glyph glyph-name="dcroat" unicode="&#x111;" horiz-adv-x="588" 
d="M89 -13q-45 0 -68 27t-23 68q0 40 18.5 88.5t49 97t70 94t82 80.5t85 56t79.5 21q22 0 37.5 -9.5t23.5 -25.5l71 216q5 17 0 26t-29 11l-62 6l10 28l211 23l-228 -679q-10 -30 -13 -45.5t9 -15.5q10 0 27 11.5t36.5 31t40 45t38.5 53.5l28 -17q-61 -94 -120 -142.5
t-109 -48.5q-23 0 -35 7t-15 21.5t1.5 36t15.5 51.5l31 87h-2q-78 -104 -142.5 -153.5t-117.5 -49.5zM145 50q20 0 54.5 24t72 64.5t71.5 93.5t53 111l16 48q9 27 7.5 44.5t-9 27.5t-19 14t-21.5 4q-40 0 -85 -36t-82.5 -91t-62 -120t-24.5 -123q0 -29 6.5 -45t22.5 -16z
M369 634h300l-15 -44h-301z" />
    <glyph glyph-name="ebreve" unicode="&#x115;" horiz-adv-x="445" 
d="M145 -13q-54 0 -91.5 34.5t-37.5 99.5q0 42 15 88t40 90.5t59 84t72 70t78 48t78 17.5q47 0 71.5 -21t24.5 -56q0 -44 -21.5 -73.5t-48.5 -48.5q-22 -6 -52 -14t-63 -15.5l-66 -15t-60 -13.5q-15 -51 -15 -107q0 -48 16 -75.5t53 -27.5q40 0 77.5 35t75.5 95l27 -18
q-22 -36 -46.5 -68t-52.5 -56.5t-61 -38.5t-72 -14zM330 482q-23 0 -48 -14t-49 -39.5t-45 -60t-36 -75.5q23 5 43.5 10.5t37.5 11.5q40 13 66 28.5t41 32.5t21 34t6 34t-9.5 27.5t-27.5 10.5zM392 628q-33 0 -61 10t-47 30t-26 50t2 70h55q-13 -53 10 -82t71 -29
q22 0 42.5 4.5t38 17t31 34t22.5 55.5h56q-12 -49 -33.5 -80t-48 -49t-56 -24.5t-56.5 -6.5z" />
    <glyph glyph-name="ecaron" unicode="&#x11b;" horiz-adv-x="445" 
d="M145 -13q-54 0 -91.5 34.5t-37.5 99.5q0 42 15 88t40 90.5t59 84t72 70t78 48t78 17.5q47 0 71.5 -21t24.5 -56q0 -44 -21.5 -73.5t-48.5 -48.5q-22 -6 -52 -14t-63 -15.5l-66 -15t-60 -13.5q-15 -51 -15 -107q0 -48 16 -75.5t53 -27.5q40 0 77.5 35t75.5 95l27 -18
q-22 -36 -46.5 -68t-52.5 -56.5t-61 -38.5t-72 -14zM330 482q-23 0 -48 -14t-49 -39.5t-45 -60t-36 -75.5q23 5 43.5 10.5t37.5 11.5q40 13 66 28.5t41 32.5t21 34t6 34t-9.5 27.5t-27.5 10.5zM291 805h17l89 -94l201 94h23l-244 -196h-12z" />
    <glyph glyph-name="emacron" unicode="&#x113;" horiz-adv-x="445" 
d="M145 -13q-54 0 -91.5 34.5t-37.5 99.5q0 42 15 88t40 90.5t59 84t72 70t78 48t78 17.5q47 0 71.5 -21t24.5 -56q0 -44 -21.5 -73.5t-48.5 -48.5q-22 -6 -52 -14t-63 -15.5l-66 -15t-60 -13.5q-15 -51 -15 -107q0 -48 16 -75.5t53 -27.5q40 0 77.5 35t75.5 95l27 -18
q-22 -36 -46.5 -68t-52.5 -56.5t-61 -38.5t-72 -14zM330 482q-23 0 -48 -14t-49 -39.5t-45 -60t-36 -75.5q23 5 43.5 10.5t37.5 11.5q40 13 66 28.5t41 32.5t21 34t6 34t-9.5 27.5t-27.5 10.5zM270 735h296l-22 -65h-296z" />
    <glyph glyph-name="eogonek" unicode="&#x119;" horiz-adv-x="445" 
d="M197 -208q-19 -9 -45 -17.5t-57 -8.5q-43 0 -67.5 20.5t-24.5 52.5q0 21 14 41.5t36 39.5t48.5 36t52.5 31h-9q-54 0 -91.5 34.5t-37.5 99.5q0 42 15 88t40 90.5t59 84t72 70t78 48t78 17.5q47 0 71.5 -21t24.5 -56q0 -44 -21.5 -73.5t-48.5 -48.5q-22 -6 -52 -14
t-63 -15.5l-66 -15t-60 -13.5q-15 -51 -15 -107q0 -48 16 -75.5t53 -27.5q40 0 77.5 35t75.5 95l27 -18q-18 -30 -34.5 -53t-35 -42.5t-40.5 -36.5t-50 -34q-26 -16 -48.5 -32t-40 -33t-27.5 -35t-10 -36q0 -31 27 -42.5t87 0.5zM330 482q-23 0 -48 -14t-49 -39.5t-45 -60
t-36 -75.5q23 5 43.5 10.5t37.5 11.5q40 13 66 28.5t41 32.5t21 34t6 34t-9.5 27.5t-27.5 10.5z" />
    <glyph glyph-name="edotaccent" unicode="&#x117;" horiz-adv-x="445" 
d="M145 -13q-54 0 -91.5 34.5t-37.5 99.5q0 42 15 88t40 90.5t59 84t72 70t78 48t78 17.5q47 0 71.5 -21t24.5 -56q0 -44 -21.5 -73.5t-48.5 -48.5q-22 -6 -52 -14t-63 -15.5l-66 -15t-60 -13.5q-15 -51 -15 -107q0 -48 16 -75.5t53 -27.5q40 0 77.5 35t75.5 95l27 -18
q-22 -36 -46.5 -68t-52.5 -56.5t-61 -38.5t-72 -14zM330 482q-23 0 -48 -14t-49 -39.5t-45 -60t-36 -75.5q23 5 43.5 10.5t37.5 11.5q40 13 66 28.5t41 32.5t21 34t6 34t-9.5 27.5t-27.5 10.5zM409 641q-24 0 -41 17t-17 43q0 25 17 42t41 17q26 0 42.5 -17t16.5 -42
q0 -26 -16.5 -43t-42.5 -17z" />
    <glyph glyph-name="gbreve" unicode="&#x11f;" horiz-adv-x="488" 
d="M200 158q-15 0 -28 2t-25 6l-25 -33q-11 -13 -10.5 -18.5t11.5 -11.5l160 -95q55 -32 81 -60t26 -59q0 -37 -19 -66t-53.5 -49t-82 -30.5t-104.5 -10.5q-53 0 -96.5 9t-75.5 25.5t-49.5 40t-17.5 52.5q0 25 15 46t40 39.5t58.5 34.5t71.5 31q-25 15 -41 31t-16 34
q0 17 11.5 29t38.5 29l62 37q-33 15 -50 44t-17 67q0 40 21.5 82t57.5 76.5t82 56.5t95 22q64 0 100 -36l163 64l-28 -72q-5 -12 -12 -17t-23 -3l-87 13q21 -30 21 -73q0 -40 -21.5 -82t-57 -76.5t-81.5 -56.5t-95 -22zM231 190q27 0 48.5 18t37.5 47.5t24.5 66t8.5 73.5
q0 38 -14 64t-47 26q-27 0 -48.5 -18t-37.5 -47.5t-24.5 -66t-8.5 -73.5q0 -38 14 -64t47 -26zM-26 -124q0 -44 46.5 -75.5t144.5 -31.5q25 0 51.5 4.5t47.5 13.5t34.5 22.5t13.5 30.5q0 23 -20.5 41t-68.5 46l-121 70q-37 -14 -61.5 -29t-39.5 -30t-21 -30.5t-6 -31.5z
M358 628q-33 0 -61 10t-47 30t-26 50t2 70h55q-13 -53 10 -82t71 -29q22 0 42.5 4.5t38 17t31 34t22.5 55.5h56q-12 -49 -33.5 -80t-48 -49t-56 -24.5t-56.5 -6.5z" />
    <glyph glyph-name="gcircumflex" unicode="&#x11d;" horiz-adv-x="488" 
d="M200 158q-15 0 -28 2t-25 6l-25 -33q-11 -13 -10.5 -18.5t11.5 -11.5l160 -95q55 -32 81 -60t26 -59q0 -37 -19 -66t-53.5 -49t-82 -30.5t-104.5 -10.5q-53 0 -96.5 9t-75.5 25.5t-49.5 40t-17.5 52.5q0 25 15 46t40 39.5t58.5 34.5t71.5 31q-25 15 -41 31t-16 34
q0 17 11.5 29t38.5 29l62 37q-33 15 -50 44t-17 67q0 40 21.5 82t57.5 76.5t82 56.5t95 22q64 0 100 -36l163 64l-28 -72q-5 -12 -12 -17t-23 -3l-87 13q21 -30 21 -73q0 -40 -21.5 -82t-57 -76.5t-81.5 -56.5t-95 -22zM231 190q27 0 48.5 18t37.5 47.5t24.5 66t8.5 73.5
q0 38 -14 64t-47 26q-27 0 -48.5 -18t-37.5 -47.5t-24.5 -66t-8.5 -73.5q0 -38 14 -64t47 -26zM-26 -124q0 -44 46.5 -75.5t144.5 -31.5q25 0 51.5 4.5t47.5 13.5t34.5 22.5t13.5 30.5q0 23 -20.5 41t-68.5 46l-121 70q-37 -14 -61.5 -29t-39.5 -30t-21 -30.5t-6 -31.5z
M498 609h-17l-89 94l-201 -94h-23l244 197h12z" />
    <glyph glyph-name="uni0123" unicode="&#x123;" horiz-adv-x="488" 
d="M200 158q-15 0 -28 2t-25 6l-25 -33q-11 -13 -10.5 -18.5t11.5 -11.5l160 -95q55 -32 81 -60t26 -59q0 -37 -19 -66t-53.5 -49t-82 -30.5t-104.5 -10.5q-53 0 -96.5 9t-75.5 25.5t-49.5 40t-17.5 52.5q0 25 15 46t40 39.5t58.5 34.5t71.5 31q-25 15 -41 31t-16 34
q0 17 11.5 29t38.5 29l62 37q-33 15 -50 44t-17 67q0 40 21.5 82t57.5 76.5t82 56.5t95 22q64 0 100 -36l163 64l-28 -72q-5 -12 -12 -17t-23 -3l-87 13q21 -30 21 -73q0 -40 -21.5 -82t-57 -76.5t-81.5 -56.5t-95 -22zM231 190q27 0 48.5 18t37.5 47.5t24.5 66t8.5 73.5
q0 38 -14 64t-47 26q-27 0 -48.5 -18t-37.5 -47.5t-24.5 -66t-8.5 -73.5q0 -38 14 -64t47 -26zM-26 -124q0 -44 46.5 -75.5t144.5 -31.5q25 0 51.5 4.5t47.5 13.5t34.5 22.5t13.5 30.5q0 23 -20.5 41t-68.5 46l-121 70q-37 -14 -61.5 -29t-39.5 -30t-21 -30.5t-6 -31.5z
M373 597q-42 0 -68 28t-26 68q0 51 48.5 99t151.5 88l11 -23q-64 -29 -99 -63t-35 -69q0 -30 20.5 -45.5t54.5 -24.5q0 -28 -16.5 -43t-41.5 -15z" />
    <glyph glyph-name="gdotaccent" unicode="&#x121;" horiz-adv-x="488" 
d="M200 158q-15 0 -28 2t-25 6l-25 -33q-11 -13 -10.5 -18.5t11.5 -11.5l160 -95q55 -32 81 -60t26 -59q0 -37 -19 -66t-53.5 -49t-82 -30.5t-104.5 -10.5q-53 0 -96.5 9t-75.5 25.5t-49.5 40t-17.5 52.5q0 25 15 46t40 39.5t58.5 34.5t71.5 31q-25 15 -41 31t-16 34
q0 17 11.5 29t38.5 29l62 37q-33 15 -50 44t-17 67q0 40 21.5 82t57.5 76.5t82 56.5t95 22q64 0 100 -36l163 64l-28 -72q-5 -12 -12 -17t-23 -3l-87 13q21 -30 21 -73q0 -40 -21.5 -82t-57 -76.5t-81.5 -56.5t-95 -22zM231 190q27 0 48.5 18t37.5 47.5t24.5 66t8.5 73.5
q0 38 -14 64t-47 26q-27 0 -48.5 -18t-37.5 -47.5t-24.5 -66t-8.5 -73.5q0 -38 14 -64t47 -26zM-26 -124q0 -44 46.5 -75.5t144.5 -31.5q25 0 51.5 4.5t47.5 13.5t34.5 22.5t13.5 30.5q0 23 -20.5 41t-68.5 46l-121 70q-37 -14 -61.5 -29t-39.5 -30t-21 -30.5t-6 -31.5z
M376 641q-24 0 -41 17t-17 43q0 25 17 42t41 17q26 0 42.5 -17t16.5 -42q0 -26 -16.5 -43t-42.5 -17z" />
    <glyph glyph-name="hbar" unicode="&#x127;" horiz-adv-x="594" 
d="M244 700q6 17 0.5 25.5t-29.5 11.5l-49 6l10 28l197 23l-125 -362l-37 -105h1q42 49 77.5 85.5t67 60t60.5 35t58 11.5q56 0 62.5 -45.5t-25.5 -124.5l-96 -234q-12 -29 -14 -45t10 -16q10 0 27 11.5t36.5 31t40 45t38.5 53.5l28 -17q-60 -94 -119.5 -142.5t-109.5 -48.5
q-46 0 -56 27.5t14 86.5l95 234q24 60 25.5 88.5t-23.5 28.5q-21 0 -56 -24t-73 -65.5t-74 -97.5t-58 -121l-42 -136l-109 -19zM127 634h301l-15 -44h-301z" />
    <glyph glyph-name="hcircumflex" unicode="&#x125;" horiz-adv-x="594" 
d="M244 700q6 17 0.5 25.5t-29.5 11.5l-49 6l10 28l197 23l-125 -362l-37 -105h1q42 49 77.5 85.5t67 60t60.5 35t58 11.5q56 0 62.5 -45.5t-25.5 -124.5l-96 -234q-12 -29 -14 -45t10 -16q10 0 27 11.5t36.5 31t40 45t38.5 53.5l28 -17q-60 -94 -119.5 -142.5t-109.5 -48.5
q-46 0 -56 27.5t14 86.5l95 234q24 60 25.5 88.5t-23.5 28.5q-21 0 -56 -24t-73 -65.5t-74 -97.5t-58 -121l-42 -136l-109 -19zM392 988l97 -150h-20l-103 66l-194 -66h-29l233 150h16z" />
    <glyph glyph-name="dotlessi" unicode="&#x131;" horiz-adv-x="333" 
d="M89 -13q-47 0 -56 28t14 86l128 320q7 16 1.5 24t-29.5 12l-48 7l10 27l202 23l-159 -399q-11 -29 -13.5 -45t9.5 -16q10 0 27 11.5t36 31t39.5 45t38.5 53.5l29 -17q-61 -94 -120.5 -142.5t-108.5 -48.5z" />
    <glyph glyph-name="ibreve" unicode="&#x12d;" horiz-adv-x="333" 
d="M89 -13q-47 0 -56 28t14 86l128 320q7 16 1.5 24t-29.5 12l-48 7l10 27l202 23l-159 -399q-11 -29 -13.5 -45t9.5 -16q10 0 27 11.5t36 31t39.5 45t38.5 53.5l29 -17q-61 -94 -120.5 -142.5t-108.5 -48.5zM306 628q-33 0 -61 10t-47 30t-26 50t2 70h55q-13 -53 10 -82
t71 -29q22 0 42.5 4.5t38 17t31 34t22.5 55.5h56q-12 -49 -33.5 -80t-48 -49t-56 -24.5t-56.5 -6.5z" />
    <glyph glyph-name="imacron" unicode="&#x12b;" horiz-adv-x="333" 
d="M89 -13q-47 0 -56 28t14 86l128 320q7 16 1.5 24t-29.5 12l-48 7l10 27l202 23l-159 -399q-11 -29 -13.5 -45t9.5 -16q10 0 27 11.5t36 31t39.5 45t38.5 53.5l29 -17q-61 -94 -120.5 -142.5t-108.5 -48.5zM185 735h296l-22 -65h-296z" />
    <glyph glyph-name="iogonek" unicode="&#x12f;" horiz-adv-x="333" 
d="M89 -13q-47 0 -56 28t14 86l128 320q7 16 1.5 24t-29.5 12l-48 7l10 27l202 23l-159 -399q-11 -29 -13.5 -45t9.5 -16q10 0 27 11.5t36 31t39.5 45t38.5 53.5l29 -17q-61 -94 -120.5 -142.5t-108.5 -48.5zM322 651q-29 0 -50 20.5t-21 51.5q0 29 21 49.5t50 20.5
q30 0 51 -20.5t21 -49.5q0 -31 -21 -51.5t-51 -20.5zM125 -208q-18 -9 -44.5 -17.5t-57.5 -8.5q-42 0 -67 20.5t-25 52.5q0 24 16 46.5t40.5 43t54 38.5t55.5 33h42q-20 -14 -41.5 -30t-38.5 -33.5t-28 -36.5t-11 -38q0 -31 26.5 -42.5t87.5 0.5z" />
    <glyph glyph-name="itilde" unicode="&#x129;" horiz-adv-x="333" 
d="M89 -13q-47 0 -56 28t14 86l128 320q7 16 1.5 24t-29.5 12l-48 7l10 27l202 23l-159 -399q-11 -29 -13.5 -45t9.5 -16q10 0 27 11.5t36 31t39.5 45t38.5 53.5l29 -17q-61 -94 -120.5 -142.5t-108.5 -48.5zM133 647q13 67 42.5 104.5t78.5 37.5q24 0 45 -11t40.5 -24
t38.5 -24t40 -11q23 0 41 12.5t28 54.5h23q-12 -77 -40 -107t-71 -30q-26 0 -46 11t-38.5 23.5t-37 23.5t-40.5 11q-27 0 -49.5 -14.5t-33.5 -56.5h-21z" />
    <glyph glyph-name="uni1ECB" unicode="&#x1ecb;" horiz-adv-x="333" 
d="M89 -13q-47 0 -56 28t14 86l128 320q7 16 1.5 24t-29.5 12l-48 7l10 27l202 23l-159 -399q-11 -29 -13.5 -45t9.5 -16q10 0 27 11.5t36 31t39.5 45t38.5 53.5l29 -17q-61 -94 -120.5 -142.5t-108.5 -48.5zM322 651q-29 0 -50 20.5t-21 51.5q0 29 21 49.5t50 20.5
q30 0 51 -20.5t21 -49.5q0 -31 -21 -51.5t-51 -20.5zM9 -232q-24 0 -41 17t-17 43q0 25 17 42t41 17q26 0 42.5 -17t16.5 -42q0 -26 -16.5 -43t-42.5 -17z" />
    <glyph glyph-name="uni0237" unicode="&#x237;" horiz-adv-x="292" 
d="M129 45q-14 -36 -25.5 -65t-25 -52t-31.5 -42.5t-44 -37.5q-17 -11 -39.5 -25.5t-47.5 -30t-51 -31t-50 -28.5l-13 26q43 31 75.5 55.5t58 53t47 66t42.5 93.5l147 394q6 16 1 24t-29 12l-49 7l11 27l197 23z" />
    <glyph glyph-name="jcircumflex" unicode="&#x135;" horiz-adv-x="292" 
d="M129 45q-14 -36 -25.5 -65t-25 -52t-31.5 -42.5t-44 -37.5q-17 -11 -39.5 -25.5t-47.5 -30t-51 -31t-50 -28.5l-13 26q43 31 75.5 55.5t58 53t47 66t42.5 93.5l147 394q6 16 1 24t-29 12l-49 7l11 27l197 23zM428 609h-17l-89 94l-201 -94h-23l244 197h12z" />
    <glyph glyph-name="uni0137" unicode="&#x137;" horiz-adv-x="590" 
d="M244 700q6 17 0.5 25.5t-29.5 11.5l-49 6l10 28l197 23l-235 -674l-33 -112l-108 -19zM380 -27q-24 0 -40 12t-32 42l-119 229l166 105q26 16 40 32t21 30.5t8 28t1 25.5q0 25 16.5 33.5t33.5 8.5q21 0 35.5 -11t14.5 -31q0 -13 -6 -26.5t-22 -29.5t-43.5 -36.5
t-70.5 -46.5l-100 -61l121 -214q6 -11 12 -17t14 -6q17 0 48.5 36t65.5 91l28 -18q-30 -47 -54.5 -80.5t-47 -54.5t-44.5 -31t-46 -10zM174 -90q42 0 67.5 -28t25.5 -68q0 -51 -48.5 -99t-151.5 -88l-11 23q64 29 99 63t35 69q0 30 -20.5 45.5t-54.5 24.5q0 28 16.5 43
t42.5 15z" />
    <glyph glyph-name="lacute" unicode="&#x13a;" horiz-adv-x="314" 
d="M247 700q6 17 0.5 25.5t-29.5 11.5l-49 6l10 28l197 23l-237 -679q-11 -30 -13.5 -45.5t9.5 -15.5q10 0 27 11.5t36.5 31t40 45t38.5 53.5l28 -17q-61 -94 -120 -142.5t-109 -48.5q-46 0 -52 28t15 88zM472 1044h142l-1 -4l-271 -175h-20z" />
    <glyph glyph-name="lcaron" unicode="&#x13e;" horiz-adv-x="369" 
d="M247 700q6 17 0.5 25.5t-29.5 11.5l-49 6l10 28l197 23l-237 -679q-11 -30 -13.5 -45.5t9.5 -15.5q10 0 27 11.5t36.5 31t40 45t38.5 53.5l28 -17q-61 -94 -120 -142.5t-109 -48.5q-46 0 -52 28t15 88zM491 809q42 0 67.5 -28t25.5 -67q0 -51 -48.5 -99.5t-150.5 -88.5
l-12 23q64 29 99 63t35 69q0 30 -20.5 45.5t-54.5 25.5q0 27 16.5 42t42.5 15z" />
    <glyph glyph-name="uni013C" unicode="&#x13c;" horiz-adv-x="314" 
d="M247 700q6 17 0.5 25.5t-29.5 11.5l-49 6l10 28l197 23l-237 -679q-11 -30 -13.5 -45.5t9.5 -15.5q10 0 27 11.5t36.5 31t40 45t38.5 53.5l28 -17q-61 -94 -120 -142.5t-109 -48.5q-46 0 -52 28t15 88zM11 -90q42 0 67.5 -28t25.5 -68q0 -51 -48.5 -99t-151.5 -88l-11 23
q64 29 99 63t35 69q0 30 -20.5 45.5t-54.5 24.5q0 28 16.5 43t42.5 15z" />
    <glyph glyph-name="ldot" unicode="&#x140;" horiz-adv-x="401" 
d="M247 700q6 17 0.5 25.5t-29.5 11.5l-49 6l10 28l197 23l-237 -679q-11 -30 -13.5 -45.5t9.5 -15.5q10 0 27 11.5t36.5 31t40 45t38.5 53.5l28 -17q-61 -94 -120 -142.5t-109 -48.5q-46 0 -52 28t15 88zM397 368q-24 0 -41 16.5t-17 42.5t17 42.5t41 16.5q26 0 42.5 -16.5
t16.5 -42.5t-16.5 -42.5t-42.5 -16.5z" />
    <glyph glyph-name="glyph298" horiz-adv-x="401" 
d="M247 700q6 17 0.5 25.5t-29.5 11.5l-49 6l10 28l197 23l-237 -679q-11 -30 -13.5 -45.5t9.5 -15.5q10 0 27 11.5t36.5 31t40 45t38.5 53.5l28 -17q-61 -94 -120 -142.5t-109 -48.5q-46 0 -52 28t15 88zM397 368q-24 0 -41 16.5t-17 42.5t17 42.5t41 16.5q26 0 42.5 -16.5
t16.5 -42.5t-16.5 -42.5t-42.5 -16.5z" />
    <glyph glyph-name="lslash" unicode="&#x142;" horiz-adv-x="359" 
d="M269 700q6 17 0.5 25.5t-29.5 11.5l-49 6l10 28l197 23l-237 -679q-11 -30 -13.5 -45.5t9.5 -15.5q10 0 27 11.5t36.5 31t40 45t38.5 53.5l28 -17q-61 -94 -120 -142.5t-109 -48.5q-46 0 -52 28t15 88zM60 368l334 147l-17 -53l-335 -147z" />
    <glyph glyph-name="eng" unicode="&#x14b;" horiz-adv-x="569" 
d="M280 -152q-17 -11 -39.5 -25.5t-48 -30t-52 -31t-50.5 -28.5l-13 26q43 31 74.5 56t56.5 53.5t46 65.5t44 93l125 308q24 60 25.5 88.5t-23.5 28.5q-21 0 -56 -24t-73 -65.5t-73.5 -97.5t-58.5 -121l-46 -135l-113 -20l168 432q6 16 1 24t-29 12l-48 7l10 27l200 23
l-74 -181h1q78 94 139 140t119 46q57 0 63 -45.5t-26 -124.5l-122 -304q-15 -36 -27 -64.5t-25.5 -52t-31 -43t-43.5 -37.5z" />
    <glyph glyph-name="nacute" unicode="&#x144;" horiz-adv-x="612" 
d="M173 421q6 16 1 24t-29 12l-48 7l10 27l200 23l-74 -181h1q78 94 139 140t119 46q57 0 63 -45.5t-26 -124.5l-95 -234q-12 -29 -14.5 -45t9.5 -16q11 0 27.5 11.5t36 31t40 45t38.5 53.5l28 -17q-60 -94 -119.5 -142.5t-109.5 -48.5q-46 0 -56 27.5t14 86.5l95 234
q24 60 25.5 88.5t-23.5 28.5q-21 0 -56 -24t-73 -65.5t-73.5 -97.5t-58.5 -121l-46 -135l-113 -20zM545 788h142l-1 -4l-271 -175h-20z" />
    <glyph glyph-name="ncaron" unicode="&#x148;" horiz-adv-x="612" 
d="M173 421q6 16 1 24t-29 12l-48 7l10 27l200 23l-74 -181h1q78 94 139 140t119 46q57 0 63 -45.5t-26 -124.5l-95 -234q-12 -29 -14.5 -45t9.5 -16q11 0 27.5 11.5t36 31t40 45t38.5 53.5l28 -17q-60 -94 -119.5 -142.5t-109.5 -48.5q-46 0 -56 27.5t14 86.5l95 234
q24 60 25.5 88.5t-23.5 28.5q-21 0 -56 -24t-73 -65.5t-73.5 -97.5t-58.5 -121l-46 -135l-113 -20zM339 805h17l89 -94l201 94h23l-244 -196h-12z" />
    <glyph glyph-name="uni0146" unicode="&#x146;" horiz-adv-x="612" 
d="M173 421q6 16 1 24t-29 12l-48 7l10 27l200 23l-74 -181h1q78 94 139 140t119 46q57 0 63 -45.5t-26 -124.5l-95 -234q-12 -29 -14.5 -45t9.5 -16q11 0 27.5 11.5t36 31t40 45t38.5 53.5l28 -17q-60 -94 -119.5 -142.5t-109.5 -48.5q-46 0 -56 27.5t14 86.5l95 234
q24 60 25.5 88.5t-23.5 28.5q-21 0 -56 -24t-73 -65.5t-73.5 -97.5t-58.5 -121l-46 -135l-113 -20zM194 -90q42 0 67.5 -28t25.5 -68q0 -51 -48.5 -99t-151.5 -88l-11 23q64 29 99 63t35 69q0 30 -20.5 45.5t-54.5 24.5q0 28 16.5 43t42.5 15z" />
    <glyph glyph-name="oe" unicode="&#x153;" horiz-adv-x="784" 
d="M716 164q-22 -36 -46.5 -68t-53 -56.5t-61.5 -38.5t-72 -14q-45 0 -78.5 23.5t-44.5 68.5q-42 -42 -90 -67t-96 -25q-42 0 -71 13.5t-47 35.5t-26 48.5t-8 53.5q0 46 15 92t41 88t60 79t72 64t77 42.5t76 15.5q32 0 54.5 -9.5t37.5 -25t23.5 -35.5t11.5 -42q48 50 102 81
t105 31q46 0 71 -21t25 -56q0 -44 -21.5 -73.5t-48.5 -48.5q-22 -6 -52 -14t-63 -15.5l-66 -15t-61 -13.5q-14 -53 -14 -107q0 -48 16 -75.5t52 -27.5q41 0 78.5 35t75.5 95zM705 444q0 17 -9.5 27.5t-27.5 10.5q-23 0 -48 -14t-49 -39.5t-44.5 -60t-35.5 -75.5
q23 5 43.5 10.5t37.5 11.5q40 13 65.5 28.5t40.5 32.5t21 34t6 34zM404 377q0 52 -16.5 76t-49.5 24q-31 0 -58 -18t-50 -47.5t-41 -67t-30.5 -76.5t-19 -75.5t-6.5 -64.5q0 -52 16.5 -76t49.5 -24q31 0 58 18t50 47.5t41 67t30.5 76.5t19 75.5t6.5 64.5z" />
    <glyph glyph-name="obreve" unicode="&#x14f;" horiz-adv-x="534" 
d="M174 -13q-42 0 -71 13.5t-47 35.5t-26 48.5t-8 53.5q0 46 15 92t41 88t60 79t72 64t77 42.5t76 15.5q42 0 71 -14t47 -35.5t26 -48.5t8 -54q0 -46 -15 -92t-40.5 -88t-59.5 -78.5t-72 -63.5t-77.5 -42.5t-76.5 -15.5zM199 28q31 0 58 18t50 47.5t41 67t30.5 76.5t19 75.5
t6.5 64.5q0 52 -16.5 76t-49.5 24q-31 0 -58 -18t-50 -47.5t-41 -67t-30.5 -76.5t-19 -75.5t-6.5 -64.5q0 -52 16.5 -76t49.5 -24zM411 628q-33 0 -61 10t-47 30t-26 50t2 70h55q-13 -53 10 -82t71 -29q22 0 42.5 4.5t38 17t31 34t22.5 55.5h56q-12 -49 -33.5 -80t-48 -49
t-56 -24.5t-56.5 -6.5z" />
    <glyph glyph-name="ohungarumlaut" unicode="&#x151;" horiz-adv-x="534" 
d="M174 -13q-42 0 -71 13.5t-47 35.5t-26 48.5t-8 53.5q0 46 15 92t41 88t60 79t72 64t77 42.5t76 15.5q42 0 71 -14t47 -35.5t26 -48.5t8 -54q0 -46 -15 -92t-40.5 -88t-59.5 -78.5t-72 -63.5t-77.5 -42.5t-76.5 -15.5zM199 28q31 0 58 18t50 47.5t41 67t30.5 76.5t19 75.5
t6.5 64.5q0 52 -16.5 76t-49.5 24q-31 0 -58 -18t-50 -47.5t-41 -67t-30.5 -76.5t-19 -75.5t-6.5 -64.5q0 -52 16.5 -76t49.5 -24zM631 788h142l-2 -4l-274 -175h-20zM433 788h142l-1 -4l-275 -175h-19z" />
    <glyph glyph-name="omacron" unicode="&#x14d;" horiz-adv-x="534" 
d="M174 -13q-42 0 -71 13.5t-47 35.5t-26 48.5t-8 53.5q0 46 15 92t41 88t60 79t72 64t77 42.5t76 15.5q42 0 71 -14t47 -35.5t26 -48.5t8 -54q0 -46 -15 -92t-40.5 -88t-59.5 -78.5t-72 -63.5t-77.5 -42.5t-76.5 -15.5zM199 28q31 0 58 18t50 47.5t41 67t30.5 76.5t19 75.5
t6.5 64.5q0 52 -16.5 76t-49.5 24q-31 0 -58 -18t-50 -47.5t-41 -67t-30.5 -76.5t-19 -75.5t-6.5 -64.5q0 -52 16.5 -76t49.5 -24zM289 735h296l-22 -65h-296z" />
    <glyph glyph-name="uni1ECD" unicode="&#x1ecd;" horiz-adv-x="534" 
d="M174 -13q-42 0 -71 13.5t-47 35.5t-26 48.5t-8 53.5q0 46 15 92t41 88t60 79t72 64t77 42.5t76 15.5q42 0 71 -14t47 -35.5t26 -48.5t8 -54q0 -46 -15 -92t-40.5 -88t-59.5 -78.5t-72 -63.5t-77.5 -42.5t-76.5 -15.5zM199 28q31 0 58 18t50 47.5t41 67t30.5 76.5t19 75.5
t6.5 64.5q0 52 -16.5 76t-49.5 24q-31 0 -58 -18t-50 -47.5t-41 -67t-30.5 -76.5t-19 -75.5t-6.5 -64.5q0 -52 16.5 -76t49.5 -24zM123 -232q-24 0 -41 17t-17 43q0 25 17 42t41 17q26 0 42.5 -17t16.5 -42q0 -26 -16.5 -43t-42.5 -17z" />
    <glyph glyph-name="racute" unicode="&#x155;" horiz-adv-x="445" 
d="M173 421q6 16 1 24t-29 12l-48 7l10 27l199 23q-28 -67 -52 -122q-10 -24 -20 -47.5t-19 -44t-15 -35.5t-9 -21h2q32 60 64 106.5t60 81.5q35 45 66.5 65t61.5 20q27 0 44.5 -14.5t17.5 -37.5q0 -26 -15 -42.5t-35 -16.5q-13 0 -22 4t-17 8.5t-16.5 8.5t-20.5 4
q-16 0 -31.5 -12.5t-32.5 -34.5q-35 -42 -80.5 -113t-86.5 -169l-30 -93l-115 -20zM509 788h142l-1 -4l-271 -175h-20z" />
    <glyph glyph-name="rcaron" unicode="&#x159;" horiz-adv-x="445" 
d="M173 421q6 16 1 24t-29 12l-48 7l10 27l199 23q-28 -67 -52 -122q-10 -24 -20 -47.5t-19 -44t-15 -35.5t-9 -21h2q32 60 64 106.5t60 81.5q35 45 66.5 65t61.5 20q27 0 44.5 -14.5t17.5 -37.5q0 -26 -15 -42.5t-35 -16.5q-13 0 -22 4t-17 8.5t-16.5 8.5t-20.5 4
q-16 0 -31.5 -12.5t-32.5 -34.5q-35 -42 -80.5 -113t-86.5 -169l-30 -93l-115 -20zM303 805h17l89 -94l201 94h23l-244 -196h-12z" />
    <glyph glyph-name="uni0157" unicode="&#x157;" horiz-adv-x="445" 
d="M173 421q6 16 1 24t-29 12l-48 7l10 27l199 23q-28 -67 -52 -122q-10 -24 -20 -47.5t-19 -44t-15 -35.5t-9 -21h2q32 60 64 106.5t60 81.5q35 45 66.5 65t61.5 20q27 0 44.5 -14.5t17.5 -37.5q0 -26 -15 -42.5t-35 -16.5q-13 0 -22 4t-17 8.5t-16.5 8.5t-20.5 4
q-16 0 -31.5 -12.5t-32.5 -34.5q-35 -42 -80.5 -113t-86.5 -169l-30 -93l-115 -20zM16 -90q42 0 67.5 -28t25.5 -68q0 -51 -48.5 -99t-151.5 -88l-11 23q64 29 99 63t35 69q0 30 -20.5 45.5t-54.5 24.5q0 28 16.5 43t42.5 15z" />
    <glyph glyph-name="sacute" unicode="&#x15b;" horiz-adv-x="402" 
d="M104 -13q-25 0 -47 6t-38.5 16.5t-26 25t-9.5 31.5q0 18 13.5 33.5t39.5 15.5q21 0 32.5 -13.5t22.5 -29.5t25 -29.5t40 -13.5q32 0 53 17.5t21 46.5q0 18 -9 41.5t-28 49.5l-46 64q-19 26 -30 55.5t-11 58.5q0 36 17.5 65t45 49.5t62 31.5t68.5 11q22 0 42.5 -5.5
t36.5 -15t26 -22.5t10 -29q0 -23 -14.5 -37t-36.5 -14q-20 0 -29.5 12.5t-19.5 27.5t-24 27.5t-43 12.5t-47 -15t-18 -40q0 -20 9.5 -41.5t29.5 -50.5l44 -64q25 -36 36.5 -62.5t11.5 -57.5q0 -35 -18.5 -64t-48 -50t-67 -32.5t-75.5 -11.5zM448 788h142l-1 -4l-271 -175
h-20z" />
    <glyph glyph-name="scaron" unicode="&#x161;" horiz-adv-x="402" 
d="M104 -13q-25 0 -47 6t-38.5 16.5t-26 25t-9.5 31.5q0 18 13.5 33.5t39.5 15.5q21 0 32.5 -13.5t22.5 -29.5t25 -29.5t40 -13.5q32 0 53 17.5t21 46.5q0 18 -9 41.5t-28 49.5l-46 64q-19 26 -30 55.5t-11 58.5q0 36 17.5 65t45 49.5t62 31.5t68.5 11q22 0 42.5 -5.5
t36.5 -15t26 -22.5t10 -29q0 -23 -14.5 -37t-36.5 -14q-20 0 -29.5 12.5t-19.5 27.5t-24 27.5t-43 12.5t-47 -15t-18 -40q0 -20 9.5 -41.5t29.5 -50.5l44 -64q25 -36 36.5 -62.5t11.5 -57.5q0 -35 -18.5 -64t-48 -50t-67 -32.5t-75.5 -11.5zM242 805h17l89 -94l201 94h23
l-244 -196h-12z" />
    <glyph glyph-name="scedilla" unicode="&#x15f;" horiz-adv-x="402" 
d="M104 -13q-25 0 -47 6t-38.5 16.5t-26 25t-9.5 31.5q0 18 13.5 33.5t39.5 15.5q21 0 32.5 -13.5t22.5 -29.5t25 -29.5t40 -13.5q32 0 53 17.5t21 46.5q0 18 -9 41.5t-28 49.5l-46 64q-19 26 -30 55.5t-11 58.5q0 36 17.5 65t45 49.5t62 31.5t68.5 11q22 0 42.5 -5.5
t36.5 -15t26 -22.5t10 -29q0 -23 -14.5 -37t-36.5 -14q-20 0 -29.5 12.5t-19.5 27.5t-24 27.5t-43 12.5t-47 -15t-18 -40q0 -20 9.5 -41.5t29.5 -50.5l44 -64q25 -36 36.5 -62.5t11.5 -57.5q0 -35 -18.5 -64t-48 -50t-67 -32.5t-75.5 -11.5zM11 -261q-45 0 -68 19t-23 41
q0 19 16 29.5t39 3.5q2 -32 18 -47.5t42 -15.5q18 0 30 7.5t12 22.5q0 16 -24 37.5t-65 48.5l147 115h43l-102 -81q29 -19 45.5 -40t16.5 -45q0 -16 -9 -33t-26 -30.5t-40.5 -22.5t-51.5 -9z" />
    <glyph glyph-name="scircumflex" unicode="&#x15d;" horiz-adv-x="402" 
d="M104 -13q-25 0 -47 6t-38.5 16.5t-26 25t-9.5 31.5q0 18 13.5 33.5t39.5 15.5q21 0 32.5 -13.5t22.5 -29.5t25 -29.5t40 -13.5q32 0 53 17.5t21 46.5q0 18 -9 41.5t-28 49.5l-46 64q-19 26 -30 55.5t-11 58.5q0 36 17.5 65t45 49.5t62 31.5t68.5 11q22 0 42.5 -5.5
t36.5 -15t26 -22.5t10 -29q0 -23 -14.5 -37t-36.5 -14q-20 0 -29.5 12.5t-19.5 27.5t-24 27.5t-43 12.5t-47 -15t-18 -40q0 -20 9.5 -41.5t29.5 -50.5l44 -64q25 -36 36.5 -62.5t11.5 -57.5q0 -35 -18.5 -64t-48 -50t-67 -32.5t-75.5 -11.5zM482 609h-17l-89 94l-201 -94
h-23l244 197h12z" />
    <glyph glyph-name="uni0219" unicode="&#x219;" horiz-adv-x="402" 
d="M104 -13q-25 0 -47 6t-38.5 16.5t-26 25t-9.5 31.5q0 18 13.5 33.5t39.5 15.5q21 0 32.5 -13.5t22.5 -29.5t25 -29.5t40 -13.5q32 0 53 17.5t21 46.5q0 18 -9 41.5t-28 49.5l-46 64q-19 26 -30 55.5t-11 58.5q0 36 17.5 65t45 49.5t62 31.5t68.5 11q22 0 42.5 -5.5
t36.5 -15t26 -22.5t10 -29q0 -23 -14.5 -37t-36.5 -14q-20 0 -29.5 12.5t-19.5 27.5t-24 27.5t-43 12.5t-47 -15t-18 -40q0 -20 9.5 -41.5t29.5 -50.5l44 -64q25 -36 36.5 -62.5t11.5 -57.5q0 -35 -18.5 -64t-48 -50t-67 -32.5t-75.5 -11.5zM73 -90q42 0 67.5 -28t25.5 -68
q0 -51 -48.5 -99t-151.5 -88l-11 23q64 29 99 63t35 69q0 30 -20.5 45.5t-54.5 24.5q0 28 16.5 43t42.5 15z" />
    <glyph glyph-name="tbar" unicode="&#x167;" horiz-adv-x="424" 
d="M173 115q-11 -30 -10 -45.5t19 -15.5q12 0 30.5 11.5t39.5 31t42.5 45t39.5 53.5l28 -17q-60 -94 -123.5 -142.5t-115.5 -48.5q-47 0 -61 27t9 87l132 346h-105l20 55h106l40 101h95l-38 -101h138l-21 -55h-138zM67 367h340l-16 -44h-341z" />
    <glyph glyph-name="tcaron" unicode="&#x165;" horiz-adv-x="384" 
d="M153 115q-11 -30 -10 -45.5t19 -15.5q12 0 30.5 11.5t39.5 31t42.5 45t39.5 53.5l28 -17q-60 -94 -123.5 -142.5t-115.5 -48.5q-47 0 -61 27t9 87l132 346h-105l20 55h106l40 101h95l-38 -101h138l-21 -55h-138zM533 826q42 0 67.5 -28t25.5 -67q0 -51 -48.5 -99.5
t-150.5 -88.5l-12 23q64 29 99 63t35 69q0 30 -20.5 45.5t-54.5 25.5q0 27 16.5 42t42.5 15z" />
    <glyph glyph-name="uni0163" unicode="&#x163;" horiz-adv-x="384" 
d="M153 115q-11 -30 -10 -45.5t19 -15.5q12 0 30.5 11.5t39.5 31t42.5 45t39.5 53.5l28 -17q-60 -94 -123.5 -142.5t-115.5 -48.5q-47 0 -61 27t9 87l132 346h-105l20 55h106l40 101h95l-38 -101h138l-21 -55h-138zM34 -90q42 0 67.5 -28t25.5 -68q0 -51 -48.5 -99
t-151.5 -88l-11 23q64 29 99 63t35 69q0 30 -20.5 45.5t-54.5 24.5q0 28 16.5 43t42.5 15z" />
    <glyph glyph-name="uni021B" unicode="&#x21b;" horiz-adv-x="384" 
d="M153 115q-11 -30 -10 -45.5t19 -15.5q12 0 30.5 11.5t39.5 31t42.5 45t39.5 53.5l28 -17q-60 -94 -123.5 -142.5t-115.5 -48.5q-47 0 -61 27t9 87l132 346h-105l20 55h106l40 101h95l-38 -101h138l-21 -55h-138zM34 -90q42 0 67.5 -28t25.5 -68q0 -51 -48.5 -99
t-151.5 -88l-11 23q64 29 99 63t35 69q0 30 -20.5 45.5t-54.5 24.5q0 28 16.5 43t42.5 15z" />
    <glyph glyph-name="ubreve" unicode="&#x16d;" horiz-adv-x="611" 
d="M171 170q-24 -60 -25.5 -88.5t23.5 -28.5q22 0 57.5 24t74 68t75.5 105.5t63 136.5l36 105l114 24l-155 -401q-11 -29 -13.5 -45t9.5 -16q10 0 27 11.5t36 31t39.5 45t38.5 53.5l29 -17q-61 -94 -120.5 -142.5t-108.5 -48.5q-47 0 -52 27.5t17 86.5l27 72h-2
q-76 -93 -138.5 -139.5t-120.5 -46.5q-56 0 -62.5 45t25.5 124l108 265q7 16 1.5 24t-29.5 12l-48 7l10 27l204 23zM445 628q-33 0 -61 10t-47 30t-26 50t2 70h55q-13 -53 10 -82t71 -29q22 0 42.5 4.5t38 17t31 34t22.5 55.5h56q-12 -49 -33.5 -80t-48 -49t-56 -24.5
t-56.5 -6.5z" />
    <glyph glyph-name="uhungarumlaut" unicode="&#x171;" horiz-adv-x="611" 
d="M171 170q-24 -60 -25.5 -88.5t23.5 -28.5q22 0 57.5 24t74 68t75.5 105.5t63 136.5l36 105l114 24l-155 -401q-11 -29 -13.5 -45t9.5 -16q10 0 27 11.5t36 31t39.5 45t38.5 53.5l29 -17q-61 -94 -120.5 -142.5t-108.5 -48.5q-47 0 -52 27.5t17 86.5l27 72h-2
q-76 -93 -138.5 -139.5t-120.5 -46.5q-56 0 -62.5 45t25.5 124l108 265q7 16 1.5 24t-29.5 12l-48 7l10 27l204 23zM666 788h142l-2 -4l-274 -175h-20zM468 788h142l-1 -4l-275 -175h-19z" />
    <glyph glyph-name="umacron" unicode="&#x16b;" horiz-adv-x="611" 
d="M171 170q-24 -60 -25.5 -88.5t23.5 -28.5q22 0 57.5 24t74 68t75.5 105.5t63 136.5l36 105l114 24l-155 -401q-11 -29 -13.5 -45t9.5 -16q10 0 27 11.5t36 31t39.5 45t38.5 53.5l29 -17q-61 -94 -120.5 -142.5t-108.5 -48.5q-47 0 -52 27.5t17 86.5l27 72h-2
q-76 -93 -138.5 -139.5t-120.5 -46.5q-56 0 -62.5 45t25.5 124l108 265q7 16 1.5 24t-29.5 12l-48 7l10 27l204 23zM324 735h296l-22 -65h-296z" />
    <glyph glyph-name="uogonek" unicode="&#x173;" horiz-adv-x="611" 
d="M171 170q-24 -60 -25.5 -88.5t23.5 -28.5q22 0 57.5 24t74 68t75.5 105.5t63 136.5l36 105l114 24l-155 -401q-11 -29 -13.5 -45t9.5 -16q10 0 27 11.5t36 31t39.5 45t38.5 53.5l29 -17q-50 -77 -98.5 -123t-92.5 -61q-19 -14 -38 -29t-34.5 -32t-25 -35t-9.5 -36
q0 -31 27 -42.5t87 0.5l-8 -28q-19 -9 -45.5 -17.5t-57.5 -8.5q-42 0 -67 20.5t-25 52.5q0 22 13 42.5t34 39t47 35.5t51 32q-37 4 -39.5 31.5t17.5 81.5l27 72h-2q-76 -93 -138.5 -139.5t-120.5 -46.5q-56 0 -62.5 45t25.5 124l108 265q7 16 1.5 24t-29.5 12l-48 7l10 27
l204 23z" />
    <glyph glyph-name="uring" unicode="&#x16f;" horiz-adv-x="611" 
d="M171 170q-24 -60 -25.5 -88.5t23.5 -28.5q22 0 57.5 24t74 68t75.5 105.5t63 136.5l36 105l114 24l-155 -401q-11 -29 -13.5 -45t9.5 -16q10 0 27 11.5t36 31t39.5 45t38.5 53.5l29 -17q-61 -94 -120.5 -142.5t-108.5 -48.5q-47 0 -52 27.5t17 86.5l27 72h-2
q-76 -93 -138.5 -139.5t-120.5 -46.5q-56 0 -62.5 45t25.5 124l108 265q7 16 1.5 24t-29.5 12l-48 7l10 27l204 23zM340 706q0 25 9.5 46.5t26.5 38t39 26t48 9.5t49 -9.5t40 -26t26.5 -38t9.5 -46.5t-9.5 -46.5t-26.5 -37.5t-40 -25t-49 -9t-48 9t-39 25t-26.5 37.5
t-9.5 46.5zM533 706q0 32 -18.5 50.5t-51.5 18.5q-32 0 -50 -18.5t-18 -50.5t18 -51t50 -19q33 0 51.5 19t18.5 51z" />
    <glyph glyph-name="utilde" unicode="&#x169;" horiz-adv-x="611" 
d="M171 170q-24 -60 -25.5 -88.5t23.5 -28.5q22 0 57.5 24t74 68t75.5 105.5t63 136.5l36 105l114 24l-155 -401q-11 -29 -13.5 -45t9.5 -16q10 0 27 11.5t36 31t39.5 45t38.5 53.5l29 -17q-61 -94 -120.5 -142.5t-108.5 -48.5q-47 0 -52 27.5t17 86.5l27 72h-2
q-76 -93 -138.5 -139.5t-120.5 -46.5q-56 0 -62.5 45t25.5 124l108 265q7 16 1.5 24t-29.5 12l-48 7l10 27l204 23zM272 647q13 67 42.5 104.5t78.5 37.5q24 0 45 -11t40.5 -24t38.5 -24t40 -11q23 0 41 12.5t28 54.5h23q-12 -77 -40 -107t-71 -30q-26 0 -46 11t-38.5 23.5
t-37 23.5t-40.5 11q-27 0 -49.5 -14.5t-33.5 -56.5h-21z" />
    <glyph glyph-name="uni1EE5" unicode="&#x1ee5;" horiz-adv-x="611" 
d="M171 170q-24 -60 -25.5 -88.5t23.5 -28.5q22 0 57.5 24t74 68t75.5 105.5t63 136.5l36 105l114 24l-155 -401q-11 -29 -13.5 -45t9.5 -16q10 0 27 11.5t36 31t39.5 45t38.5 53.5l29 -17q-61 -94 -120.5 -142.5t-108.5 -48.5q-47 0 -52 27.5t17 86.5l27 72h-2
q-76 -93 -138.5 -139.5t-120.5 -46.5q-56 0 -62.5 45t25.5 124l108 265q7 16 1.5 24t-29.5 12l-48 7l10 27l204 23zM180 -232q-24 0 -41 17t-17 43q0 25 17 42t41 17q26 0 42.5 -17t16.5 -42q0 -26 -16.5 -43t-42.5 -17z" />
    <glyph glyph-name="wacute" unicode="&#x1e83;" horiz-adv-x="759" 
d="M75 0q9 117 27 227t43 194q5 17 0.5 24.5t-28.5 11.5l-48 7l10 27l187 22q-13 -42 -26.5 -93.5t-25.5 -106t-21 -108t-12 -99.5q64 51 116 112.5t94 118.5q4 38 8 71.5t9 61.5l98 45q-15 -93 -24.5 -193t-14.5 -213q33 36 65.5 69.5t61.5 65t52.5 63.5t38.5 65
q5 11 5.5 23.5t-1 25t-4 24t-2.5 20.5q0 29 19 41.5t39 12.5q24 0 39 -15t15 -38q0 -29 -20.5 -62t-54.5 -76q-39 -51 -75 -89.5t-71 -75t-72 -75t-78 -88.5h-55q2 54 6 124.5t10 142.5q-26 -33 -58.5 -68.5t-67 -70.5t-69 -68t-64.5 -60h-51zM615 788h142l-1 -4l-271 -175
h-20z" />
    <glyph glyph-name="wcircumflex" unicode="&#x175;" horiz-adv-x="759" 
d="M75 0q9 117 27 227t43 194q5 17 0.5 24.5t-28.5 11.5l-48 7l10 27l187 22q-13 -42 -26.5 -93.5t-25.5 -106t-21 -108t-12 -99.5q64 51 116 112.5t94 118.5q4 38 8 71.5t9 61.5l98 45q-15 -93 -24.5 -193t-14.5 -213q33 36 65.5 69.5t61.5 65t52.5 63.5t38.5 65
q5 11 5.5 23.5t-1 25t-4 24t-2.5 20.5q0 29 19 41.5t39 12.5q24 0 39 -15t15 -38q0 -29 -20.5 -62t-54.5 -76q-39 -51 -75 -89.5t-71 -75t-72 -75t-78 -88.5h-55q2 54 6 124.5t10 142.5q-26 -33 -58.5 -68.5t-67 -70.5t-69 -68t-64.5 -60h-51zM649 609h-17l-89 94l-201 -94
h-23l244 197h12z" />
    <glyph glyph-name="wdieresis" unicode="&#x1e85;" horiz-adv-x="759" 
d="M75 0q9 117 27 227t43 194q5 17 0.5 24.5t-28.5 11.5l-48 7l10 27l187 22q-13 -42 -26.5 -93.5t-25.5 -106t-21 -108t-12 -99.5q64 51 116 112.5t94 118.5q4 38 8 71.5t9 61.5l98 45q-15 -93 -24.5 -193t-14.5 -213q33 36 65.5 69.5t61.5 65t52.5 63.5t38.5 65
q5 11 5.5 23.5t-1 25t-4 24t-2.5 20.5q0 29 19 41.5t39 12.5q24 0 39 -15t15 -38q0 -29 -20.5 -62t-54.5 -76q-39 -51 -75 -89.5t-71 -75t-72 -75t-78 -88.5h-55q2 54 6 124.5t10 142.5q-26 -33 -58.5 -68.5t-67 -70.5t-69 -68t-64.5 -60h-51zM649 659q-24 0 -41.5 16.5
t-17.5 42.5t17.5 43t41.5 17q25 0 42 -17t17 -43t-17 -42.5t-42 -16.5zM415 659q-24 0 -41.5 16.5t-17.5 42.5t17.5 43t41.5 17q25 0 42 -17t17 -43t-17 -42.5t-42 -16.5z" />
    <glyph glyph-name="wgrave" unicode="&#x1e81;" horiz-adv-x="759" 
d="M75 0q9 117 27 227t43 194q5 17 0.5 24.5t-28.5 11.5l-48 7l10 27l187 22q-13 -42 -26.5 -93.5t-25.5 -106t-21 -108t-12 -99.5q64 51 116 112.5t94 118.5q4 38 8 71.5t9 61.5l98 45q-15 -93 -24.5 -193t-14.5 -213q33 36 65.5 69.5t61.5 65t52.5 63.5t38.5 65
q5 11 5.5 23.5t-1 25t-4 24t-2.5 20.5q0 29 19 41.5t39 12.5q24 0 39 -15t15 -38q0 -29 -20.5 -62t-54.5 -76q-39 -51 -75 -89.5t-71 -75t-72 -75t-78 -88.5h-55q2 54 6 124.5t10 142.5q-26 -33 -58.5 -68.5t-67 -70.5t-69 -68t-64.5 -60h-51zM488 609l-149 175l1 4h118
l44 -179h-14z" />
    <glyph glyph-name="ycircumflex" unicode="&#x177;" horiz-adv-x="536" 
d="M-93 -267q-26 0 -38 13.5t-12 30.5q0 28 16 36t39 9t48.5 1.5t43.5 13.5q37 26 72.5 67t73.5 98l-3 419q0 18 -4.5 25.5t-23.5 10.5l-48 7l10 27l165 22l-2 -381l147 205q37 52 63.5 87t47.5 56t38.5 30t35.5 9q20 0 33 -11t13 -31q0 -17 -10 -32.5t-38 -24.5
q-23 -8 -42.5 -16.5t-38.5 -22.5t-39 -35.5t-44 -54.5l-198 -279q-17 -24 -38.5 -52.5t-45 -57t-48 -55.5t-48.5 -48q-22 -19 -38.5 -31.5t-31 -20t-27.5 -11t-28 -3.5zM561 609h-17l-89 94l-201 -94h-23l244 197h12z" />
    <glyph glyph-name="ygrave" unicode="&#x1ef3;" horiz-adv-x="536" 
d="M-93 -267q-26 0 -38 13.5t-12 30.5q0 28 16 36t39 9t48.5 1.5t43.5 13.5q37 26 72.5 67t73.5 98l-3 419q0 18 -4.5 25.5t-23.5 10.5l-48 7l10 27l165 22l-2 -381l147 205q37 52 63.5 87t47.5 56t38.5 30t35.5 9q20 0 33 -11t13 -31q0 -17 -10 -32.5t-38 -24.5
q-23 -8 -42.5 -16.5t-38.5 -22.5t-39 -35.5t-44 -54.5l-198 -279q-17 -24 -38.5 -52.5t-45 -57t-48 -55.5t-48.5 -48q-22 -19 -38.5 -31.5t-31 -20t-27.5 -11t-28 -3.5zM400 609l-149 175l1 4h118l44 -179h-14z" />
    <glyph glyph-name="uni0233" unicode="&#x233;" horiz-adv-x="536" 
d="M-93 -267q-26 0 -38 13.5t-12 30.5q0 28 16 36t39 9t48.5 1.5t43.5 13.5q37 26 72.5 67t73.5 98l-3 419q0 18 -4.5 25.5t-23.5 10.5l-48 7l10 27l165 22l-2 -381l147 205q37 52 63.5 87t47.5 56t38.5 30t35.5 9q20 0 33 -11t13 -31q0 -17 -10 -32.5t-38 -24.5
q-23 -8 -42.5 -16.5t-38.5 -22.5t-39 -35.5t-44 -54.5l-198 -279q-17 -24 -38.5 -52.5t-45 -57t-48 -55.5t-48.5 -48q-22 -19 -38.5 -31.5t-31 -20t-27.5 -11t-28 -3.5zM300 735h296l-22 -65h-296z" />
    <glyph glyph-name="zacute" unicode="&#x17a;" horiz-adv-x="520" 
d="M327 -38q-24 0 -53 13.5t-62 32t-69 37.5t-73 31q-3 -30 -10.5 -47.5t-16 -26.5t-17 -12t-15.5 -3q-15 0 -24 9t-9 23q0 16 12.5 33.5t45.5 46.5l341 289q-36 9 -66 20.5t-54.5 21.5t-43.5 16.5t-33 6.5q-16 0 -26 -7.5t-10 -22.5q0 -14 7.5 -20.5t16.5 -12.5t16.5 -14
t7.5 -25q0 -20 -14 -32t-35 -12q-26 0 -41.5 18t-15.5 42t9.5 43.5t24.5 36t33.5 29.5t36.5 24q20 13 34.5 17t26.5 2q18 -3 43 -11t51 -17t50.5 -16t43.5 -7q31 0 55 18t44 34l23 -26l-417 -354q30 -9 58.5 -24.5t55.5 -30t51.5 -25t46.5 -10.5q35 0 53.5 20t35.5 60
l30 -11q-32 -77 -65 -117t-83 -40zM500 788h142l-1 -4l-271 -175h-20z" />
    <glyph glyph-name="zcaron" unicode="&#x17e;" horiz-adv-x="520" 
d="M327 -38q-24 0 -53 13.5t-62 32t-69 37.5t-73 31q-3 -30 -10.5 -47.5t-16 -26.5t-17 -12t-15.5 -3q-15 0 -24 9t-9 23q0 16 12.5 33.5t45.5 46.5l341 289q-36 9 -66 20.5t-54.5 21.5t-43.5 16.5t-33 6.5q-16 0 -26 -7.5t-10 -22.5q0 -14 7.5 -20.5t16.5 -12.5t16.5 -14
t7.5 -25q0 -20 -14 -32t-35 -12q-26 0 -41.5 18t-15.5 42t9.5 43.5t24.5 36t33.5 29.5t36.5 24q20 13 34.5 17t26.5 2q18 -3 43 -11t51 -17t50.5 -16t43.5 -7q31 0 55 18t44 34l23 -26l-417 -354q30 -9 58.5 -24.5t55.5 -30t51.5 -25t46.5 -10.5q35 0 53.5 20t35.5 60
l30 -11q-32 -77 -65 -117t-83 -40zM294 805h17l89 -94l201 94h23l-244 -196h-12z" />
    <glyph glyph-name="zdotaccent" unicode="&#x17c;" horiz-adv-x="520" 
d="M327 -38q-24 0 -53 13.5t-62 32t-69 37.5t-73 31q-3 -30 -10.5 -47.5t-16 -26.5t-17 -12t-15.5 -3q-15 0 -24 9t-9 23q0 16 12.5 33.5t45.5 46.5l341 289q-36 9 -66 20.5t-54.5 21.5t-43.5 16.5t-33 6.5q-16 0 -26 -7.5t-10 -22.5q0 -14 7.5 -20.5t16.5 -12.5t16.5 -14
t7.5 -25q0 -20 -14 -32t-35 -12q-26 0 -41.5 18t-15.5 42t9.5 43.5t24.5 36t33.5 29.5t36.5 24q20 13 34.5 17t26.5 2q18 -3 43 -11t51 -17t50.5 -16t43.5 -7q31 0 55 18t44 34l23 -26l-417 -354q30 -9 58.5 -24.5t55.5 -30t51.5 -25t46.5 -10.5q35 0 53.5 20t35.5 60
l30 -11q-32 -77 -65 -117t-83 -40zM413 641q-24 0 -41 17t-17 43q0 25 17 42t41 17q26 0 42.5 -17t16.5 -42q0 -26 -16.5 -43t-42.5 -17z" />
    <glyph glyph-name="uni0259" unicode="&#x259;" horiz-adv-x="446" 
d="M304.981 519.969q53.9971 0 91.4941 -34.498q37.498 -34.498 37.498 -99.4941q0 -41.998 -14.999 -87.9951t-39.998 -90.4941q-24.998 -44.4971 -58.9961 -83.9951q-33.998 -39.4971 -71.9961 -69.9951q-37.9971 -30.498 -77.9951 -47.9971
q-39.9971 -17.499 -77.9951 -17.499q-46.9971 0 -71.4951 20.998q-24.499 20.999 -24.499 55.9971q0 43.9971 21.499 73.4951q21.499 29.499 48.4971 48.4971q21.998 6 51.9971 13.999q29.998 8 62.9961 15.499l65.9961 15q32.9971 7.49902 59.9961 13.499
q14.999 50.9971 14.999 106.993q0 47.9971 -15.999 75.4951q-15.999 27.499 -52.9971 27.499q-39.9971 0 -77.4951 -34.998t-75.4951 -94.9941l-26.999 17.999q21.999 35.9971 46.498 67.9951q24.498 31.998 52.4961 56.4971q27.999 24.498 60.9961 38.4971
q32.998 14 71.9961 14zM119.992 24.998q22.999 0 47.998 14q24.998 13.999 48.9961 39.4971q23.999 25.499 44.998 59.9961q20.998 34.498 35.9971 75.4961q-22.998 -5 -43.4971 -10.5q-20.499 -5.49902 -37.498 -11.499q-39.9971 -12.999 -65.9951 -28.498
q-25.999 -15.499 -40.998 -32.498t-20.999 -33.998q-5.99902 -16.999 -5.99902 -33.998t9.49902 -27.498q9.5 -10.5 27.498 -10.5z" />
    <glyph glyph-name="uni0410" unicode="&#x410;" horiz-adv-x="761" 
d="M-92 31l45 7q14 2 25.5 8t23.5 17.5t27 31t37 48.5l489 646h36l31 -680q1 -19 2.5 -31.5t6.5 -20.5t14 -12t25 -7l41 -7l-9 -31h-285l9 31l46 7q14 2 22.5 5.5t13 9.5t5.5 15t0 24l-9 188h-274l-109 -145q-23 -30 -32.5 -48t-10 -28.5t7 -14.5t19.5 -6l42 -7l-9 -31h-239
zM502 332l-14 290l-219 -290h233z" />
    <glyph glyph-name="uni0411" unicode="&#x411;" horiz-adv-x="760" 
d="M801 760l-48 -184h-28v46q0 33 -7.5 52t-29.5 28.5t-62 11.5t-104 2h-104q-23 0 -29 -20l-82 -266h152q119 0 186 -42.5t67 -125.5q0 -53 -28 -100.5t-78.5 -83.5t-121.5 -57t-158 -21h-348l9 31l46 7q14 2 23.5 5t16 8.5t10.5 15.5t9 25l177 574q10 31 5 40.5t-31 13.5
l-41 7l9 31h298zM210 114q-13 -43 0 -57.5t59 -14.5h61q60 0 106.5 17.5t79 46.5t49 65.5t16.5 75.5q0 67 -41 100.5t-141 33.5h-107z" />
    <glyph glyph-name="uni0412" unicode="&#x412;" horiz-adv-x="749" 
d="M508 758q129 0 190 -37.5t61 -101.5q0 -39 -16.5 -72.5t-47 -60t-73.5 -46t-96 -29.5v-1q31 -4 63.5 -16t59 -32t43 -49t16.5 -67q0 -45 -25.5 -89t-73 -79t-115.5 -56.5t-154 -21.5h-357l9 31l46 7q14 2 23.5 5t15.5 9t10.5 15.5t9.5 24.5l176 574q10 31 4.5 40
t-30.5 14l-41 7l9 31h293zM444 717q-32 0 -40 -4t-12 -18l-82 -269h109q60 0 102.5 16.5t68.5 43.5t38 61t12 69q0 45 -33 73t-109 28h-54zM297 383l-83 -272q-13 -42 0.5 -56.5t58.5 -14.5h59q55 0 100.5 14t78 41t50.5 67t18 92q0 29 -9.5 52.5t-30.5 40.5t-55.5 26.5
t-85.5 9.5h-101z" />
    <glyph glyph-name="uni0413" unicode="&#x413;" horiz-adv-x="644" 
d="M274 666q9 31 4.5 40.5t-30.5 13.5l-41 7l9 31h250l292 2l-49 -184h-28v46q0 33 -7.5 52t-29.5 28.5t-61.5 11.5t-103.5 2h-59q-20 0 -26 -20l-186 -605q-10 -30 -5 -39.5t31 -11.5l72 -7l-10 -33h-313l9 31l46 7q14 2 23.5 5t15.5 8.5t10.5 15.5t9.5 25z" />
    <glyph glyph-name="uni0414" unicode="&#x414;" horiz-adv-x="786" 
d="M677 42l-52 -202h-28l5 66q3 34 -4.5 53t-30 28t-63 11t-105.5 2h-186q-63 0 -104.5 -2t-69 -11t-46.5 -28t-38 -53l-36 -66h-28l72 202h65q52 69 96 146t81 157t67 161t54 160q10 31 5 40.5t-31 13.5l-41 7l9 31h614l-9 -31l-46 -7q-14 -2 -23 -5t-15.5 -8.5t-11 -15
t-8.5 -24.5l-171 -554q-8 -25 -7 -39t10 -21t26 -9t41 -2h9zM389 696q-26 -84 -57 -171t-68 -171t-80 -163.5t-92 -148.5h278q25 0 44 1.5t32.5 9t23.5 22.5t18 41l179 580q6 20 -14 20h-238q-20 0 -26 -20z" />
    <glyph glyph-name="uni0415" unicode="&#x415;" horiz-adv-x="734" 
d="M506 758l291 2l-47 -184h-28v46q0 33 -6.5 52t-26.5 28.5t-58.5 11.5t-102.5 2h-109q-21 0 -27 -20l-87 -286h145q21 0 37 1.5t29 8t25 21t26 40.5l21 40h27l-83 -271h-27l3 40q2 26 -1.5 40.5t-12.5 21t-23.5 8t-35.5 1.5h-145l-75 -245q-8 -26 -7 -41t10 -22.5t26.5 -9
t43.5 -1.5h45q67 0 109.5 3.5t71 13t49 26.5t44.5 44l63 72h27l-113 -201h-601l9 31l46 7q14 2 23.5 5t15.5 9t10.5 15.5t9.5 24.5l176 574q10 31 4.5 40t-30.5 14l-41 7l9 31h291z" />
    <glyph glyph-name="uni0401" unicode="&#x401;" horiz-adv-x="734" 
d="M506 758l291 2l-47 -184h-28v46q0 33 -6.5 52t-26.5 28.5t-58.5 11.5t-102.5 2h-109q-21 0 -27 -20l-87 -286h145q21 0 37 1.5t29 8t25 21t26 40.5l21 40h27l-83 -271h-27l3 40q2 26 -1.5 40.5t-12.5 21t-23.5 8t-35.5 1.5h-145l-75 -245q-8 -26 -7 -41t10 -22.5t26.5 -9
t43.5 -1.5h45q67 0 109.5 3.5t71 13t49 26.5t44.5 44l63 72h27l-113 -201h-601l9 31l46 7q14 2 23.5 5t15.5 9t10.5 15.5t9.5 24.5l176 574q10 31 4.5 40t-30.5 14l-41 7l9 31h291zM458 845q-26 0 -43.5 17.5t-17.5 43.5q0 28 17.5 45.5t43.5 17.5t43.5 -17.5t17.5 -45.5
q0 -26 -17.5 -43.5t-43.5 -17.5zM710 845q-26 0 -43.5 17.5t-17.5 43.5q0 28 17.5 45.5t43.5 17.5t43.5 -17.5t17.5 -45.5q0 -26 -17.5 -43.5t-43.5 -17.5z" />
    <glyph glyph-name="uni0416" unicode="&#x416;" horiz-adv-x="1204" 
d="M-78 0l10 31l37 7q30 5 49.5 15.5t45.5 30.5l437 336l-146 196q-21 29 -38.5 48t-33 30.5t-29.5 17.5t-29 8l-43 7l10 31h244l-10 -31l-45 -6q-14 -2 -17 -9t3 -19t18.5 -29t29.5 -39l178 -240l87 281q9 31 4 40.5t-31 13.5l-41 7l10 31h283l-11 -31l-45 -7
q-14 -2 -23 -5t-15.5 -8.5t-11.5 -15t-9 -24.5l-86 -281l326 239q30 22 53 39t36 29t14 19t-12 9l-41 6l11 31h244l-11 -31l-47 -7q-14 -2 -30 -8.5t-37 -18.5t-48.5 -31t-64.5 -46l-284 -208l222 -324q13 -20 24.5 -30.5t38.5 -15.5l32 -7l-10 -31h-176l-248 362l-83 -271
q-9 -30 -4.5 -39.5t30.5 -13.5l42 -7l-10 -31h-283l10 31l46 7q27 4 38 13.5t20 40.5l84 270l-471 -362h-193z" />
    <glyph glyph-name="uni0417" unicode="&#x417;" horiz-adv-x="687" 
d="M418 732q-27 0 -50.5 -8t-46 -23t-47 -37t-53.5 -50l-63 -60h-28l99 179l45 15t50 15t53.5 11.5t54.5 4.5q114 0 178 -38t64 -111q0 -41 -20.5 -77t-54.5 -65t-78 -49.5t-91 -29.5l-1 -1q37 -4 68.5 -16t54 -31.5t35 -46t12.5 -58.5q0 -56 -29.5 -105t-80.5 -85t-119 -57
t-146 -21q-73 0 -131.5 15.5t-99.5 35.5l27 199h28l18 -90q7 -33 19 -55t31.5 -35t47.5 -18.5t66 -5.5q55 0 99.5 19t75.5 50t47.5 69t16.5 77q0 26 -9.5 50t-29.5 42t-50 28.5t-72 10.5h-108l15 50h107q52 0 94.5 18t72 46.5t45.5 63t16 66.5q0 22 -7.5 41.5t-24 34.5
t-41.5 23.5t-59 8.5z" />
    <glyph glyph-name="uni0418" unicode="&#x418;" horiz-adv-x="922" 
d="M266 0h-283l10 31l46 7q14 2 23 5t15.5 8.5t10.5 15.5t9 25l178 574q8 31 3.5 40.5t-30.5 13.5l-41 7l10 31h283l-11 -31l-45 -7q-14 -2 -23 -5t-15.5 -8.5t-11.5 -15t-9 -24.5l-141 -457l544 437l5 19q9 31 4.5 40.5t-30.5 13.5l-42 7l11 31h282l-10 -31l-45 -7
q-14 -2 -23 -5t-15.5 -8.5t-11.5 -15t-9 -24.5l-177 -576q-9 -30 -4.5 -39.5t30.5 -13.5l42 -7l-10 -31h-283l10 31l46 7q27 4 38 13.5t20 40.5l146 475l-542 -436l-12 -40q-9 -30 -4.5 -39.5t30.5 -13.5l42 -7z" />
    <glyph glyph-name="uni0419" unicode="&#x419;" horiz-adv-x="922" 
d="M266 0h-283l10 31l46 7q14 2 23 5t15.5 8.5t10.5 15.5t9 25l178 574q8 31 3.5 40.5t-30.5 13.5l-41 7l10 31h283l-11 -31l-45 -7q-14 -2 -23 -5t-15.5 -8.5t-11.5 -15t-9 -24.5l-141 -457l544 437l5 19q9 31 4.5 40.5t-30.5 13.5l-42 7l11 31h282l-10 -31l-45 -7
q-14 -2 -23 -5t-15.5 -8.5t-11.5 -15t-9 -24.5l-177 -576q-9 -30 -4.5 -39.5t30.5 -13.5l42 -7l-10 -31h-283l10 31l46 7q27 4 38 13.5t20 40.5l146 475l-542 -436l-12 -40q-9 -30 -4.5 -39.5t30.5 -13.5l42 -7zM641 830q-42 0 -71 12t-45 33.5t-19 51t7 63.5h89
q-8 -25 -11 -47.5t2 -39t18.5 -26t39.5 -9.5q27 0 46 9.5t33 26t23.5 38.5t16.5 48h88q-23 -75 -78.5 -117.5t-138.5 -42.5z" />
    <glyph glyph-name="uni041A" unicode="&#x41a;" horiz-adv-x="829" 
d="M291 363l-83 -272q-9 -30 -4.5 -39.5t29.5 -13.5l42 -7l-9 -31h-283l9 31l46 7q14 2 23.5 5t15.5 9t10.5 15.5t9.5 24.5l176 574q10 31 4.5 40t-30.5 14l-41 7l9 31h283l-10 -31l-46 -7q-14 -2 -23 -5t-15.5 -8.5t-11 -15t-8.5 -24.5l-85 -278l349 236q63 42 91.5 66.5
t2.5 28.5l-49 7l9 31h258l-10 -31l-49 -7q-15 -2 -31.5 -9t-38.5 -19t-50.5 -31l-67.5 -45l-310 -209l261 -323q15 -18 27 -29.5t38 -16.5l33 -7l-9 -31h-172z" />
    <glyph glyph-name="uni041B" unicode="&#x41b;" horiz-adv-x="773" 
d="M869 758l-10 -31l-45 -7q-14 -2 -23 -5t-15.5 -8.5t-11.5 -15t-9 -24.5l-177 -576q-9 -30 -4.5 -39.5t30.5 -13.5l41 -7l-9 -31h-283l9 31l47 7q27 4 38 13.5t20 40.5l186 604q6 20 -14 20h-235q-20 0 -26 -20q-20 -65 -47.5 -145t-61 -163t-72.5 -161.5t-82 -138.5
q-42 -60 -78 -80t-66 -20q-23 0 -36 13t-13 33q0 22 16 39.5t53 31.5q19 7 34 13t28 14t25 18.5t24 25.5q23 27 51.5 83t57 124.5t55 143t46.5 139.5q10 31 5.5 40.5t-30.5 13.5l-42 7l9 31h615z" />
    <glyph glyph-name="uni041C" unicode="&#x41c;" horiz-adv-x="1051" 
d="M323 638l-137 -410q-22 -66 -33.5 -103.5t-14 -56t3.5 -23.5t20 -7l41 -7l-9 -31h-228l10 31l45 7q15 2 25 7t21 23.5t25.5 56t37.5 103.5l154 439q11 30 4.5 39t-32.5 14l-41 7l10 31h190l83 -590l430 590h203l-9 -31l-46 -7q-14 -2 -24 -5t-17 -8.5t-11.5 -15
t-8.5 -24.5l-146 -576q-8 -30 -3.5 -39.5t30.5 -13.5l42 -7l-10 -31h-282l9 31l46 7q14 2 23 5t15.5 9t10.5 15.5t8 24.5l139 546l-469 -647h-14z" />
    <glyph glyph-name="uni041D" unicode="&#x41d;" horiz-adv-x="909" 
d="M266 0h-283l9 31l46 7q14 2 23.5 5t15.5 9t10.5 15.5t9.5 24.5l176 574q10 31 4.5 40t-30.5 14l-41 7l9 31h283l-10 -31l-46 -7q-14 -2 -23 -5t-15.5 -8.5t-11 -15t-8.5 -24.5l-79 -257h396l79 256q10 31 4.5 40t-30.5 14l-41 7l9 31h283l-10 -31l-46 -7q-14 -2 -23 -5
t-15.5 -8.5t-11 -15t-8.5 -24.5l-176 -576q-9 -30 -4.5 -39.5t29.5 -13.5l42 -7l-9 -31h-283l9 31l46 7q14 2 23.5 5t15.5 9t10.5 15.5t9.5 24.5l82 268h-397l-81 -269q-9 -30 -4.5 -39.5t29.5 -13.5l42 -7z" />
    <glyph glyph-name="uni041E" unicode="&#x41e;" horiz-adv-x="891" 
d="M407 -13q-71 0 -130.5 23t-103 64.5t-67.5 99t-24 127.5q0 60 18 119t50.5 112t77.5 98.5t98.5 78.5t114.5 51.5t126 18.5q70 0 130 -23t103 -64.5t67.5 -99t24.5 -127.5q0 -60 -18 -119t-50.5 -112t-77.5 -98.5t-98.5 -78.5t-115 -51.5t-125.5 -18.5zM412 34
q59 0 108 21.5t88 57t68.5 82t49 97.5t29 102.5t9.5 97.5q0 63 -15.5 108.5t-42.5 74.5t-64 43t-81 14q-59 0 -107.5 -21.5t-87.5 -57t-68.5 -82t-49 -97.5t-29 -103t-9.5 -97q0 -63 15 -108.5t42 -74.5t64 -43t81 -14z" />
    <glyph glyph-name="uni041F" unicode="&#x41f;" horiz-adv-x="887" 
d="M768 696q3 11 0.5 15.5t-14.5 4.5h-336q-20 0 -26 -20l-186 -604q-9 -30 -4.5 -40t30.5 -13l43 -7l-10 -32h-284l10 32l47 7q28 3 38.5 13t19.5 41l177 572q9 31 4.5 41t-30.5 13l-43 7l10 32h771l-11 -32l-47 -7q-27 -3 -38 -13t-20 -40l-177 -574q-9 -30 -4.5 -40
t30.5 -13l44 -7l-11 -32h-284l10 32l48 7q27 3 38 13t20 41z" />
    <glyph glyph-name="uni0420" unicode="&#x420;" horiz-adv-x="722" 
d="M-8 31l46 7q14 2 23.5 5t15.5 9t10.5 15.5t9.5 24.5l176 574q10 31 4.5 40t-30.5 14l-41 7l9 31h322q52 0 97.5 -9t80 -29.5t54.5 -52.5t20 -77q0 -48 -22 -92.5t-67 -79.5t-113 -56t-160 -21h-143l-76 -250q-9 -30 -4.5 -39.5t30.5 -11.5l72 -7l-10 -33h-313zM296 378
h133q63 0 107 19t71.5 49.5t40.5 68t13 74.5q0 129 -151 129h-60q-32 0 -43 -4t-15 -20z" />
    <glyph glyph-name="uni0421" unicode="&#x421;" horiz-adv-x="792" 
d="M408 -13q-69 0 -129.5 20t-104.5 59.5t-69.5 97.5t-25.5 133q0 66 21 128t58.5 115.5t89 97.5t111.5 75.5t126.5 48.5t134.5 17q58 0 116 -8t96 -23l-11 -187h-28l-31 99q-8 24 -21 38t-32 21.5t-42.5 10t-50.5 2.5q-76 0 -149.5 -31.5t-131 -90t-93 -142.5t-35.5 -188
q0 -64 17 -110.5t47.5 -77t73 -45t92.5 -14.5q33 0 58 5t46.5 16t42 28t46.5 41l97 89h28l-99 -179q-49 -17 -109.5 -31.5t-138.5 -14.5z" />
    <glyph glyph-name="uni0422" unicode="&#x422;" horiz-adv-x="749" 
d="M138 33l76 7q27 2 38 11.5t20 39.5l191 625h-28q-64 0 -105 -2t-69 -11.5t-47 -28t-39 -51.5l-29 -47h-28l65 184l284 -2h129l284 2l-47 -184h-27l-1 47q-1 33 -8.5 51.5t-29.5 28t-61 11.5t-103 2h-29l-191 -625q-9 -30 -4.5 -39.5t30.5 -11.5l72 -7l-10 -33h-343z" />
    <glyph glyph-name="uni0423" unicode="&#x423;" horiz-adv-x="770" 
d="M340 116q-56 -66 -96.5 -97t-82.5 -31q-26 0 -39 14.5t-13 33.5q0 53 71 71q30 8 53 15.5t41.5 17t34.5 22.5t31 31l-99 456q-8 33 -20.5 49.5t-38.5 21.5l-41 7l9 31h310l-10 -31l-45 -7q-28 -4 -42 -14.5t-8 -39.5l80 -360l267 317q24 29 36.5 47t15.5 28.5t-3.5 15
t-19.5 6.5l-42 7l10 31h237l-10 -31l-30 -5q-20 -3 -35 -9.5t-29.5 -18.5t-31.5 -31.5t-41 -47.5z" />
    <glyph glyph-name="uni0424" unicode="&#x424;" horiz-adv-x="979" 
d="M559 687q9 31 4.5 40.5t-30.5 13.5l-41 7l9 31h283l-9 -31l-47 -7q-27 -4 -38 -13.5t-20 -39.5l-4 -13q60 -3 118 -17t104 -43t74 -73.5t28 -107.5q0 -78 -40.5 -139.5t-109.5 -105.5t-160 -69t-192 -28l-7 -21q-10 -30 -5.5 -39.5t30.5 -13.5l42 -7l-10 -31h-283l10 31
l45 7q14 2 23.5 5t16 8.5t11 15.5t9.5 25l6 20q-60 3 -118.5 17t-104 43t-74 73.5t-28.5 107.5q0 78 41 140t110 105.5t160.5 68.5t192.5 28zM184 333q0 -93 52.5 -140t154.5 -54l150 490q-68 -2 -132.5 -20t-114.5 -54.5t-80 -91.5t-30 -130zM857 434q0 92 -52.5 139.5
t-152.5 54.5l-150 -490q68 2 132 20.5t113.5 54.5t79.5 91t30 130z" />
    <glyph glyph-name="uni0425" unicode="&#x425;" horiz-adv-x="824" 
d="M-78 31l44 7q15 2 28.5 7.5t31.5 17t42.5 32t62.5 52.5l282 243l-110 259q-8 18 -14 30.5t-12 21t-14.5 13t-20.5 6.5l-40 7l11 31h289l-11 -31l-47 -7q-27 -4 -32.5 -16t5.5 -38l84 -199l179 154q31 27 50 45t27 29.5t4.5 17.5t-17.5 8l-39 6l11 31h247l-11 -31l-45 -7
q-15 -2 -28.5 -7t-31 -17t-42.5 -32t-63 -53l-221 -191l132 -311q8 -18 13.5 -30.5t12 -21t14.5 -13t21 -6.5l41 -7l-11 -31h-290l12 31l45 7q29 5 34.5 16.5t-5.5 37.5l-107 252l-240 -207q-62 -53 -77 -74.5t13 -25.5l40 -6l-11 -31h-248z" />
    <glyph glyph-name="uni0426" unicode="&#x426;" horiz-adv-x="911" 
d="M-17 0l9 31l46 7q14 2 23.5 5t15.5 8.5t10.5 15.5t9.5 25l177 574q10 31 5 40.5t-31 13.5l-41 7l9 31h283l-10 -31l-45 -7q-14 -2 -23.5 -5t-16 -8.5t-11 -15t-8.5 -24.5l-170 -551q-8 -26 -7 -41t10 -22.5t26.5 -9t43.5 -1.5h185q25 0 44 1.5t32.5 9t23.5 22.5t18 41
l170 550q10 31 5 40.5t-31 13.5l-41 7l9 31h283l-10 -31l-45 -7q-14 -2 -23.5 -5t-16 -8.5t-11 -15t-8.5 -24.5l-171 -554q-8 -25 -7 -39t10 -21t26 -9t41 -2h10l-52 -202h-28l5 66q3 34 -4.5 53t-30 28t-63.5 11t-106 2h-519z" />
    <glyph glyph-name="uni0427" unicode="&#x427;" horiz-adv-x="841" 
d="M248 666q9 31 4.5 40.5t-30.5 13.5l-42 7l10 31h283l-10 -31l-46 -7q-27 -4 -38 -13.5t-20 -39.5l-31 -101q-16 -53 -19 -91.5t11 -64t47.5 -37.5t90.5 -12q54 0 92.5 6t73.5 14l88 285q9 31 4.5 40.5t-30.5 13.5l-42 7l10 31h283l-10 -31l-46 -7q-27 -4 -38 -13.5
t-20 -39.5l-178 -576q-9 -30 -4 -39.5t31 -13.5l41 -7l-10 -31h-300l10 31l63 7q28 3 39 13t20 41l74 241q-38 -9 -78 -16t-91 -7q-75 0 -127 14.5t-80.5 45.5t-32.5 80t17 117z" />
    <glyph glyph-name="uni0428" unicode="&#x428;" horiz-adv-x="1216" 
d="M-7 31l46 7q14 2 23 5t15.5 8.5t10.5 15.5t9 25l178 574q9 31 4 40.5t-31 13.5l-41 7l10 31h282l-10 -31l-45 -7q-14 -2 -23 -5t-15.5 -8.5t-11.5 -15t-9 -24.5l-169 -551q-8 -26 -7 -41t10 -22.5t26.5 -9t43.5 -1.5h200l192 624q9 31 4.5 40.5t-30.5 13.5l-41 7l10 31
h281l-10 -31l-45 -7q-14 -2 -23 -5t-15.5 -8.5t-11 -15t-8.5 -24.5l-193 -625h200q25 0 44 1.5t33 9t24 22.5t18 41l169 550q9 31 4.5 40.5t-30.5 13.5l-41 7l10 31h282l-10 -31l-46 -7q-27 -4 -38 -13.5t-20 -39.5l-178 -575q-10 -31 -4.5 -40.5t31.5 -13.5l41 -7l-10 -31
h-1095z" />
    <glyph glyph-name="uni0429" unicode="&#x429;" horiz-adv-x="1236" 
d="M1026 113q-8 -25 -6.5 -39t10.5 -21t25.5 -9t40.5 -2h10l-52 -202h-28l5 66q3 34 -4.5 53t-30 28t-63.5 11t-106 2h-844l9 31l46 7q14 2 23.5 5t15.5 8.5t10.5 15.5t9.5 25l177 574q10 31 5 40.5t-31 13.5l-41 7l9 31h282l-9 -31l-45 -7q-14 -2 -23.5 -5t-16 -8.5
t-11 -15t-8.5 -24.5l-170 -551q-8 -26 -7 -41t10 -22.5t26.5 -9t43.5 -1.5h200l192 624q10 31 5 40.5t-30 13.5l-42 7l10 31h281l-9 -31l-45 -7q-14 -2 -23.5 -5t-15.5 -8.5t-10.5 -15t-8.5 -24.5l-193 -625h199q26 0 44.5 1.5t32.5 9t24 22.5t18 41l169 550q10 31 5 40.5
t-30 13.5l-41 7l9 31h282l-9 -31l-46 -7q-14 -2 -23 -5t-15.5 -8.5t-11 -15t-8.5 -24.5z" />
    <glyph glyph-name="uni042A" unicode="&#x42a;" horiz-adv-x="893" 
d="M124 31l45 7q14 2 23 5t15.5 8.5t11 15.5t9.5 25l192 624h-5q-48 0 -80.5 -3.5t-55.5 -13.5t-40.5 -28t-35.5 -48l-29 -47h-28l66 184l288 -2h141l-10 -31l-57 -7q-27 -3 -38 -13t-20 -40l-70 -227h118q136 0 206.5 -48t70.5 -142q0 -58 -30 -104t-82 -78.5t-123 -50
t-153 -17.5h-339zM346 114q-14 -43 0 -57.5t59 -14.5h52q118 0 185 52.5t67 152.5q0 70 -42 106t-145 36h-92z" />
    <glyph glyph-name="uni042B" unicode="&#x42b;" horiz-adv-x="1082" 
d="M501 727l-57 -7q-28 -3 -39 -13t-20 -40l-70 -227h118q137 0 207 -48t70 -142q0 -58 -29.5 -104t-82 -78.5t-123.5 -50t-153 -17.5h-339l10 31l46 7q14 2 23 5t15.5 8.5t10.5 15.5t9 25l178 574q9 31 4 40.5t-31 13.5l-41 7l10 31h294zM215 114q-13 -43 0.5 -57.5
t59.5 -14.5h52q118 0 184.5 52.5t66.5 152.5q0 35 -10 61.5t-32 44.5t-57.5 27t-86.5 9h-92zM953 666q10 31 4.5 40t-30.5 14l-41 7l9 31h283l-10 -31l-46 -7q-14 -2 -23 -5t-15.5 -8.5t-11 -15t-8.5 -24.5l-176 -576q-9 -30 -4.5 -39.5t29.5 -13.5l42 -7l-9 -31h-283l9 31
l46 7q14 2 23.5 5t15.5 9t10.5 15.5t9.5 24.5z" />
    <glyph glyph-name="uni042C" unicode="&#x42c;" horiz-adv-x="762" 
d="M501 727l-57 -7q-28 -3 -39 -13t-20 -40l-70 -227h118q137 0 207 -48t70 -142q0 -58 -29.5 -104t-82 -78.5t-123.5 -50t-153 -17.5h-339l10 31l46 7q14 2 23 5t15.5 8.5t10.5 15.5t9 25l178 574q9 31 4 40.5t-31 13.5l-41 7l10 31h294zM215 114q-13 -43 0.5 -57.5
t59.5 -14.5h52q118 0 184.5 52.5t66.5 152.5q0 35 -10 61.5t-32 44.5t-57.5 27t-86.5 9h-92z" />
    <glyph glyph-name="uni042D" unicode="&#x42d;" horiz-adv-x="787" 
d="M458 779q70 0 130 -20t104.5 -59.5t70 -97.5t25.5 -133q0 -66 -20.5 -128t-56.5 -115.5t-86 -97.5t-108 -75.5t-122.5 -48.5t-130.5 -17q-58 0 -116 8t-96 23l11 187h28l31 -99q7 -24 21 -38t32.5 -21.5t42 -10t50.5 -2.5q61 0 120 22t110 63.5t89 101.5t57 135h-207
q-21 0 -36.5 -1.5t-28.5 -8.5t-25.5 -21.5t-26.5 -40.5l-21 -39h-27l83 270h27l-3 -39q-2 -26 1.5 -40.5t12.5 -21.5t23.5 -8.5t35.5 -1.5h202q6 39 6 82q0 64 -17 110.5t-47 77t-71.5 45t-89.5 14.5q-33 0 -56.5 -6t-43.5 -17.5t-39 -28.5t-42 -38l-97 -88h-28l98 178
q25 8 49.5 16.5t52 15t59 10.5t70.5 4z" />
    <glyph glyph-name="uni042E" unicode="&#x42e;" horiz-adv-x="1210" 
d="M266 0h-283l9 31l46 7q14 2 23.5 5t15.5 8.5t10.5 15.5t9.5 25l176 574q9 31 4.5 40.5t-30.5 13.5l-41 7l9 31h283l-10 -31l-46 -7q-14 -2 -23 -5t-15.5 -8.5t-11 -15t-8.5 -24.5l-79 -257h131q20 75 64 142t105.5 117.5t136 80t154.5 29.5q69 0 126.5 -23t99.5 -64.5
t65.5 -99t23.5 -127.5q0 -60 -17.5 -119t-49.5 -112t-76 -98.5t-96.5 -78.5t-112.5 -51.5t-123 -18.5q-69 0 -126.5 23t-99.5 64.5t-65.5 99t-23.5 127.5q0 15 1 29.5t3 29.5h-136l-81 -269q-10 -30 -5 -39.5t30 -13.5l42 -7zM741 34q57 0 105 21.5t86 57t66.5 82t47 97.5
t28 102.5t9.5 97.5q0 63 -14.5 108.5t-40 74.5t-60.5 43t-77 14q-57 0 -104.5 -21.5t-85.5 -57t-66.5 -82t-47.5 -97.5t-28.5 -103t-9.5 -97q0 -63 14.5 -108.5t40 -74.5t61 -43t76.5 -14z" />
    <glyph glyph-name="uni042F" unicode="&#x42f;" horiz-adv-x="814" 
d="M-59 0l10 31l38 7q29 6 47 15.5t40 29.5l302 266q-75 11 -120.5 53t-45.5 106q0 54 29.5 100t81 79t120.5 52t148 19h319l-10 -31l-46 -7q-14 -2 -23 -5t-15.5 -8.5t-11.5 -15.5t-9 -25l-177 -574q-10 -32 -4 -41.5t30 -12.5l42 -7l-10 -31h-283l10 31l46 7q14 2 23 5
t15.5 8.5t10.5 15t9 24.5l76 245h-79l-380 -336h-183zM693 695q5 13 -2 18t-40 5h-53q-65 0 -114 -17t-82 -45.5t-50 -67t-17 -80.5q0 -31 8.5 -56t28 -42t52 -26.5t79.5 -9.5h15.5t27.5 0.5t29 1t20 1.5z" />
    <glyph glyph-name="uni0402" unicode="&#x402;" horiz-adv-x="909" 
d="M116 33l75 7q28 2 39 11.5t20 39.5l191 625h-11q-64 0 -104.5 -2t-68.5 -11.5t-47 -28t-39 -51.5l-29 -47h-28l65 184l283 -2h129l285 2l-47 -184h-27l-1 47q0 33 -8 51.5t-30 28t-62 11.5t-104 2h-46l-103 -336q51 34 117 57t134 23q51 0 88 -15t57.5 -45t23 -74.5
t-15.5 -102.5l-8 -27q-10 -32 -20 -57.5t-23.5 -47t-32 -40.5t-44.5 -37q-17 -11 -39.5 -25.5t-48 -30t-51.5 -31t-50 -28.5l-11 29q45 32 77 56.5t55 52.5t41 64t35 90l11 36q26 81 0.5 122t-110.5 41q-62 0 -114.5 -17.5t-84.5 -40.5l-74 -241q-9 -30 -4 -39.5t31 -11.5
l71 -7l-10 -33h-343z" />
    <glyph glyph-name="uni0403" unicode="&#x403;" horiz-adv-x="644" 
d="M274 666q9 31 4.5 40.5t-30.5 13.5l-41 7l9 31h250l292 2l-49 -184h-28v46q0 33 -7.5 52t-29.5 28.5t-61.5 11.5t-103.5 2h-59q-20 0 -26 -20l-186 -605q-10 -30 -5 -39.5t31 -11.5l72 -7l-10 -33h-313l9 31l46 7q14 2 23.5 5t15.5 8.5t10.5 15.5t9.5 25zM802 969
l-284 -126h-23l137 129h171z" />
    <glyph glyph-name="uni0404" unicode="&#x404;" horiz-adv-x="792" 
d="M408 -13q-69 0 -129.5 20t-104.5 59.5t-69.5 97.5t-25.5 133q0 66 21 128t58.5 115.5t89 97.5t111.5 75.5t126.5 48.5t134.5 17q58 0 116 -8t96 -23l-11 -187h-28l-31 99q-8 24 -21 38t-32 21.5t-42.5 10t-50.5 2.5q-63 0 -125 -22t-115 -63.5t-93 -101.5t-60 -135h203
q21 0 36.5 1.5t28.5 8t25 21t26 40.5l21 40h27l-83 -271h-27l4 40q2 26 -1.5 40.5t-12.5 21t-23.5 8t-35.5 1.5h-198q-6 -39 -6 -81q0 -64 17 -110.5t47.5 -77t73 -45t92.5 -14.5q33 0 58 5t46.5 16t42 28t46.5 41l97 89h28l-99 -179q-49 -17 -109.5 -31.5t-138.5 -14.5z
" />
    <glyph glyph-name="uni0405" unicode="&#x405;" horiz-adv-x="628" 
d="M211 -13q-29 0 -57.5 5t-55.5 12.5t-50 17t-40 18.5l41 218h28l22 -153q2 -14 7 -26.5t16 -20.5q17 -14 46.5 -19.5t66.5 -5.5q39 0 75.5 11t64 32t44.5 51t17 68t-17 68.5t-61 70.5l-73 66q-42 38 -61 75.5t-19 79.5q0 45 21.5 85.5t62 71t98 49t129.5 18.5
q58 0 103.5 -8.5t78.5 -19.5l-42 -183h-28l-16 103q-4 23 -12.5 33.5t-26.5 17.5q-14 5 -36 8t-44 3q-41 0 -74.5 -10.5t-57 -28.5t-36.5 -43t-13 -55q0 -28 13 -55t42 -53l73 -65q24 -22 44 -42.5t34.5 -43t22 -48t7.5 -58.5q0 -49 -24.5 -93.5t-69 -78t-106.5 -53
t-137 -19.5z" />
    <glyph glyph-name="uni0406" unicode="&#x406;" horiz-adv-x="402" 
d="M273 666q10 31 4.5 40t-30.5 14l-41 7l9 31h283l-10 -31l-46 -7q-14 -2 -23 -5t-15.5 -8.5t-11 -15t-8.5 -24.5l-176 -576q-9 -30 -4.5 -39.5t29.5 -13.5l42 -7l-9 -31h-283l9 31l46 7q14 2 23.5 5t15.5 9t10.5 15.5t9.5 24.5z" />
    <glyph glyph-name="uni0407" unicode="&#x407;" horiz-adv-x="402" 
d="M273 666q10 31 4.5 40t-30.5 14l-41 7l9 31h283l-10 -31l-46 -7q-14 -2 -23 -5t-15.5 -8.5t-11 -15t-8.5 -24.5l-176 -576q-9 -30 -4.5 -39.5t29.5 -13.5l42 -7l-9 -31h-283l9 31l46 7q14 2 23.5 5t15.5 9t10.5 15.5t9.5 24.5zM274 845q-26 0 -43.5 17.5t-17.5 43.5
q0 28 17.5 45.5t43.5 17.5t43.5 -17.5t17.5 -45.5q0 -26 -17.5 -43.5t-43.5 -17.5zM526 845q-26 0 -43.5 17.5t-17.5 43.5q0 28 17.5 45.5t43.5 17.5t43.5 -17.5t17.5 -45.5q0 -26 -17.5 -43.5t-43.5 -17.5z" />
    <glyph glyph-name="uni0408" unicode="&#x408;" horiz-adv-x="388" 
d="M247 211q-11 -37 -22.5 -66t-26 -52t-33 -42t-43.5 -37q-17 -12 -38.5 -26t-45.5 -29t-48.5 -30.5t-48.5 -28.5l-18 28q45 32 76.5 56.5t55 52t41.5 63.5t35 92l145 474q9 31 4 40t-30 14l-41 7l9 31h283l-10 -31l-46 -7q-14 -2 -23 -5t-15.5 -8.5t-11 -15t-8.5 -24.5z
" />
    <glyph glyph-name="uni0409" unicode="&#x409;" horiz-adv-x="1112" 
d="M633 696q6 20 -14 20h-215q-20 0 -26 -20q-20 -65 -47.5 -145t-61 -163t-72.5 -161.5t-82 -138.5q-42 -60 -78 -80t-66 -20q-23 0 -36 13t-13 33q0 22 16 39.5t53 31.5q19 7 34 13t28 14t25 18.5t24 25.5q23 27 51.5 83t57 124.5t55 143t46.5 139.5q10 31 5.5 40.5
t-30.5 13.5l-42 7l9 31h595l-10 -31l-45 -7q-14 -2 -23 -5t-15.5 -8.5t-11.5 -15t-9 -24.5l-70 -227h118q137 0 207 -48t70 -142q0 -58 -29.5 -104t-82 -78.5t-123.5 -50t-153 -17.5h-339l10 31l46 7q13 2 22 5t15.5 8.5t11 15.5t9.5 25zM565 114q-14 -43 0 -57.5t59 -14.5
h53q118 0 184.5 52.5t66.5 152.5q0 70 -42 106t-145 36h-92z" />
    <glyph glyph-name="uni040A" unicode="&#x40a;" horiz-adv-x="1236" 
d="M266 0h-283l10 31l46 7q14 2 23 5t15.5 8.5t10.5 15.5t9 25l178 574q8 31 3.5 40.5t-30.5 13.5l-41 7l10 31h283l-11 -31l-45 -7q-14 -2 -23 -5t-15.5 -8.5t-11.5 -15t-9 -24.5l-73 -238h356l73 237q9 31 4.5 40.5t-30.5 13.5l-42 7l11 31h294l-11 -31l-57 -7
q-27 -3 -38 -13t-20 -40l-74 -239h135q131 0 201 -43.5t70 -138.5q0 -60 -34.5 -105.5t-90 -77t-124.5 -47.5t-137 -16h-348l10 31l45 7q14 2 23 5t15.5 8.5t11 15.5t9.5 25l88 286h-355l-89 -287q-9 -30 -4.5 -39.5t30.5 -13.5l42 -7zM682 114q-14 -43 0 -57.5t59 -14.5h61
q54 0 100 16t79.5 43t52.5 62.5t19 73.5q0 69 -41 105t-142 36h-107z" />
    <glyph glyph-name="uni040B" unicode="&#x40b;" horiz-adv-x="970" 
d="M116 33l75 7q28 2 39 11.5t20 39.5l191 625h-11q-64 0 -104.5 -2t-68.5 -11.5t-47 -28t-39 -51.5l-29 -47h-28l65 184l283 -2h129l285 2l-47 -184h-27l-1 47q0 33 -8 51.5t-30 28t-62 11.5t-104 2h-46l-101 -331q50 32 114 53.5t130 21.5q43 0 80 -10.5t61 -35.5
t30.5 -66.5t-12.5 -103.5l-46 -153q-10 -29 -5.5 -39t30.5 -14l46 -7l-10 -31h-200l70 227q25 81 -1 122t-117 41q-27 0 -53 -4.5t-50 -12t-45 -17.5t-37 -20l-75 -245q-9 -30 -4 -39.5t31 -11.5l71 -7l-10 -33h-343z" />
    <glyph glyph-name="uni040C" unicode="&#x40c;" horiz-adv-x="829" 
d="M291 363l-83 -272q-9 -30 -4.5 -39.5t29.5 -13.5l42 -7l-9 -31h-283l9 31l46 7q14 2 23.5 5t15.5 9t10.5 15.5t9.5 24.5l176 574q10 31 4.5 40t-30.5 14l-41 7l9 31h283l-10 -31l-46 -7q-14 -2 -23 -5t-15.5 -8.5t-11 -15t-8.5 -24.5l-85 -278l349 236q63 42 91.5 66.5
t2.5 28.5l-49 7l9 31h258l-10 -31l-49 -7q-15 -2 -31.5 -9t-38.5 -19t-50.5 -31l-67.5 -45l-310 -209l261 -323q15 -18 27 -29.5t38 -16.5l33 -7l-9 -31h-172zM884 969l-284 -126h-23l137 129h171z" />
    <glyph glyph-name="uni040E" unicode="&#x40e;" horiz-adv-x="770" 
d="M340 116q-56 -66 -96.5 -97t-82.5 -31q-26 0 -39 14.5t-13 33.5q0 53 71 71q30 8 53 15.5t41.5 17t34.5 22.5t31 31l-99 456q-8 33 -20.5 49.5t-38.5 21.5l-41 7l9 31h310l-10 -31l-45 -7q-28 -4 -42 -14.5t-8 -39.5l80 -360l267 317q24 29 36.5 47t15.5 28.5t-3.5 15
t-19.5 6.5l-42 7l10 31h237l-10 -31l-30 -5q-20 -3 -35 -9.5t-29.5 -18.5t-31.5 -31.5t-41 -47.5zM579 830q-42 0 -71 12t-45 33.5t-19 51t7 63.5h89q-8 -25 -11 -47.5t2 -39t18.5 -26t39.5 -9.5q27 0 46 9.5t33 26t23.5 38.5t16.5 48h88q-23 -75 -78.5 -117.5t-138.5 -42.5
z" />
    <glyph glyph-name="uni040F" unicode="&#x40f;" horiz-adv-x="890" 
d="M583 0q-55 0 -90 -2t-58 -11t-38.5 -28t-32.5 -53l-31 -66h-28l8 66q4 34 0.5 53t-21 28t-51 11t-88.5 2h-170l9 31l46 7q14 2 23.5 5t15.5 8.5t10.5 15.5t9.5 25l177 574q10 31 5 40.5t-31 13.5l-41 7l9 31h283l-10 -31l-45 -7q-14 -2 -23.5 -5t-16 -8.5t-11 -15
t-8.5 -24.5l-170 -551q-8 -26 -7 -41t10 -22.5t26.5 -9t43.5 -1.5h185q25 0 44 1.5t32.5 9t23.5 22.5t18 41l170 550q10 31 5 40.5t-31 13.5l-41 7l9 31h283l-10 -31l-45 -7q-14 -2 -23.5 -5t-16 -8.5t-11 -15t-8.5 -24.5l-177 -575q-10 -31 -5 -40.5t30 -13.5l42 -7l-9 -31
h-170z" />
    <glyph glyph-name="uni0490" unicode="&#x490;" horiz-adv-x="670" 
d="M420 716q-20 0 -26 -20l-187 -605q-9 -30 -4 -39.5t31 -11.5l72 -7l-10 -33h-313l9 31l46 7q14 2 23.5 5t15.5 8.5t10.5 15.5t9.5 25l177 574q10 31 5 40.5t-31 13.5l-41 7l9 31h289q65 0 107 1.5t70.5 10.5t47.5 28t37 54l35 66h28l-72 -202h-338z" />
    <glyph glyph-name="uni0462" unicode="&#x462;" horiz-adv-x="808" 
d="M442 586l-71 -221h125q59 0 107 -8.5t82 -26.5t52.5 -47t18.5 -71q0 -47 -29.5 -85.5t-81 -67t-120.5 -44t-147 -15.5h-322l11 31l45 7q14 2 23.5 5t16 8.5t11.5 15.5t10 25l158 494h-10q-53 0 -86.5 -2.5t-56.5 -11.5t-40.5 -27.5t-38.5 -51.5l-30 -46h-28l68 183
l226 -2h10l12 38q11 31 6 40.5t-31 13.5l-41 7l10 31h274l-10 -31l-37 -7q-14 -2 -23.5 -5t-16 -8.5t-11 -15t-9.5 -24.5l-13 -39h9l228 2l-50 -183h-28v46q0 33 -5 51.5t-22 27.5t-49 11.5t-85 2.5h-11zM290 114q-14 -43 -0.5 -57.5t58.5 -14.5h35q51 0 95 12.5t76 34.5
t50.5 52t18.5 65q0 52 -44.5 80.5t-143.5 28.5h-80z" />
    <glyph glyph-name="uni0472" unicode="&#x472;" horiz-adv-x="891" 
d="M407 -13q-71 0 -130.5 23t-103 64.5t-67.5 99t-24 127.5q0 60 18 119t50.5 112t77.5 98.5t98.5 78.5t114.5 51.5t126 18.5q70 0 130 -23t103 -64.5t67.5 -99t24.5 -127.5q0 -60 -18 -119t-50.5 -112t-77.5 -98.5t-98.5 -78.5t-115 -51.5t-125.5 -18.5zM224 394
q86 33 146.5 42t104.5 4t76.5 -18t63 -23.5t63 -13t77.5 13.5q9 48 9 93q0 63 -15.5 108.5t-42.5 74.5t-64 43t-81 14q-70 0 -126 -30t-98 -78t-70.5 -108.5t-42.5 -121.5zM412 34q69 0 124.5 29t97.5 75.5t70 106t43 119.5q-63 -25 -109.5 -35.5t-82 -11.5t-62 6t-50 16.5
t-45.5 19t-48 14.5t-58 2.5t-75 -17.5q-4 -22 -5.5 -43t-1.5 -41q0 -63 15 -108.5t42 -74.5t64 -43t81 -14z" />
    <glyph glyph-name="uni0474" unicode="&#x474;" horiz-adv-x="804" 
d="M293 -30h-36l-31 679q-1 19 -3 31.5t-6.5 20.5t-14 12.5t-25.5 6.5l-40 7l9 31h286l-10 -31l-45 -7q-14 -2 -22.5 -5.5t-13 -9.5t-5.5 -15t0 -24l25 -528l372 494q22 30 45.5 56.5t47.5 46.5t47.5 32t47.5 12q31 0 45 -14.5t14 -37.5q0 -28 -21 -44t-52 -25
q-20 -6 -38.5 -9t-38 -10t-39.5 -22t-42 -45z" />
    <glyph glyph-name="uni0492" unicode="&#x492;" horiz-adv-x="643" 
d="M274 666q9 31 4.5 40.5t-30.5 13.5l-41 7l9 31h250l292 2l-49 -184h-28v46q0 33 -7.5 52t-29.5 28.5t-61.5 11.5t-103.5 2h-59q-20 0 -26 -20l-186 -605q-10 -30 -5 -39.5t31 -11.5l72 -7l-10 -33h-313l9 31l46 7q14 2 23.5 5t15.5 8.5t10.5 15.5t9.5 25zM99 411h378
l-15 -50h-378z" />
    <glyph glyph-name="uni0496" unicode="&#x496;" horiz-adv-x="1224" 
d="M-78 0l10 31l37 7q30 5 49.5 15.5t45.5 30.5l437 336l-146 196q-21 29 -38.5 48t-33 30.5t-29.5 17.5t-29 8l-43 7l10 31h244l-10 -31l-45 -6q-14 -2 -17 -9t3 -19t18.5 -29t29.5 -39l178 -240l87 281q9 31 4 40.5t-31 13.5l-41 7l10 31h283l-11 -31l-45 -7
q-14 -2 -23 -5t-15.5 -8.5t-11.5 -15t-9 -24.5l-86 -281l326 239q30 22 53 39t36 29t14 19t-12 9l-41 6l11 31h244l-11 -31l-47 -7q-14 -2 -30 -8.5t-37 -18.5t-48.5 -31t-64.5 -46l-284 -208l222 -324q13 -20 27.5 -31t47.5 -11h53l-52 -202h-27l5 66q2 31 -3 49.5
t-21 28.5t-45.5 13t-75.5 3l-248 362l-83 -271q-9 -30 -4.5 -39.5t30.5 -13.5l42 -7l-10 -31h-283l10 31l46 7q27 4 38 13.5t20 40.5l84 270l-471 -362h-193z" />
    <glyph glyph-name="uni049A" unicode="&#x49a;" horiz-adv-x="849" 
d="M291 363l-83 -272q-10 -30 -5 -39.5t30 -13.5l42 -7l-9 -31h-283l9 31l46 7q14 2 23.5 5t15.5 8.5t10.5 15.5t9.5 25l176 574q9 31 4.5 40.5t-30.5 13.5l-41 7l9 31h283l-10 -31l-46 -7q-14 -2 -23 -5t-15.5 -8.5t-11 -15t-8.5 -24.5l-85 -278l349 236q63 42 91.5 67
t2.5 28l-49 7l9 31h258l-10 -31l-49 -7q-15 -2 -31.5 -8.5t-38 -19.5t-50.5 -31.5t-68 -44.5l-310 -209l261 -323q7 -9 13 -16.5t14.5 -13t21.5 -9t33 -3.5h54l-52 -202h-28l5 66q2 31 -3 49.5t-21 28.5t-45 13t-75 3z" />
    <glyph glyph-name="uni04A2" unicode="&#x4a2;" horiz-adv-x="931" 
d="M490 0l9 31l46 7q14 2 23.5 5t15.5 8.5t10.5 15.5t9.5 25l83 268h-397l-82 -269q-10 -30 -5 -39.5t30 -13.5l42 -7l-9 -31h-283l9 31l46 7q14 2 23.5 5t15.5 8.5t10.5 15.5t9.5 25l177 574q9 31 4.5 40.5t-30.5 13.5l-41 7l9 31h283l-10 -31l-45 -7q-14 -2 -23.5 -5
t-16 -8.5t-11 -15t-8.5 -24.5l-79 -257h396l79 256q9 31 4.5 40.5t-30.5 13.5l-41 7l9 31h283l-10 -31l-45 -7q-14 -2 -23.5 -5t-16 -8.5t-11 -15t-8.5 -24.5l-171 -555q-8 -24 -7 -38t10 -21t26 -9t41 -2h10l-52 -202h-28l5 66q3 34 -4.5 53t-30 28t-63.5 11t-106 2h-32z
" />
    <glyph glyph-name="uni04AE" unicode="&#x4ae;" horiz-adv-x="778" 
d="M149 33l75 7q28 2 39 11.5t20 39.5l74 243l-122 315q-11 29 -20 47.5t-35 23.5l-40 7l10 31h287l-10 -31l-46 -7q-28 -5 -37.5 -16t1.5 -38l109 -281l246 238q27 26 40.5 43.5t16.5 28.5t-3.5 17t-19.5 8l-41 7l10 31h242l-9 -31l-46 -7q-14 -2 -26 -9t-26 -19.5
t-32.5 -31.5t-45.5 -45l-293 -282l-74 -242q-9 -30 -4 -39.5t31 -11.5l71 -7l-10 -33h-343z" />
    <glyph glyph-name="uni04B0" unicode="&#x4b0;" horiz-adv-x="778" 
d="M149 33l75 7q28 2 39 11.5t20 39.5l74 243l-122 315q-11 29 -20 47.5t-35 23.5l-40 7l10 31h287l-10 -31l-46 -7q-28 -5 -37.5 -16t1.5 -38l109 -281l246 238q27 26 40.5 43.5t16.5 28.5t-3.5 17t-19.5 8l-41 7l10 31h242l-9 -31l-46 -7q-14 -2 -26 -9t-26 -19.5
t-32.5 -31.5t-45.5 -45l-293 -282l-74 -242q-9 -30 -4 -39.5t31 -11.5l71 -7l-10 -33h-343zM161 335h504l-15 -50h-505z" />
    <glyph glyph-name="uni04B2" unicode="&#x4b2;" horiz-adv-x="826" 
d="M-78 31l44 7q15 2 28.5 7.5t31.5 17t42.5 32t62.5 52.5l282 243l-110 259q-8 18 -14 30.5t-12 21t-14.5 13t-20.5 6.5l-40 7l11 31h289l-11 -31l-47 -7q-27 -4 -32.5 -16t5.5 -38l84 -199l179 154q31 27 50 45t27 29.5t4.5 17.5t-17.5 8l-39 6l11 31h247l-11 -31l-45 -7
q-15 -2 -28.5 -7t-31 -17t-42.5 -32t-63 -53l-221 -191l132 -311q7 -18 13 -30.5t13.5 -21t17.5 -12t26 -3.5h50l-52 -202h-28l5 66q3 31 -2.5 49.5t-22.5 28.5t-48 13t-80 3h-91l12 31l45 7q29 5 34.5 16.5t-5.5 37.5l-107 252l-240 -207q-62 -53 -77 -74.5t13 -25.5l40 -6
l-11 -31h-248z" />
    <glyph glyph-name="uni04B6" unicode="&#x4b6;" horiz-adv-x="862" 
d="M403 0l10 31l63 7q28 3 39 13t20 41l74 241q-38 -9 -78 -16t-91 -7q-75 0 -127 14.5t-80.5 45.5t-32.5 80t17 117l31 99q9 31 4.5 40.5t-30.5 13.5l-42 7l10 31h283l-10 -31l-46 -7q-27 -4 -38 -13.5t-20 -39.5l-31 -101q-16 -53 -19 -91.5t11 -64t47.5 -37.5t90.5 -12
q54 0 92.5 6t73.5 14l88 285q9 31 4.5 40.5t-30.5 13.5l-42 7l10 31h283l-10 -31l-46 -7q-27 -4 -38 -13.5t-20 -39.5l-171 -554q-8 -25 -6.5 -39t10.5 -21t25.5 -9t40.5 -2h10l-52 -202h-28l5 66q3 34 -4.5 53t-30 28t-63.5 11t-106 2h-50z" />
    </font>
</defs>
</svg>
