<?xml version="1.0" standalone="no"?>
<!DOCTYPE svg PUBLIC "-//W3C//DTD SVG 1.1//EN" "http://www.w3.org/Graphics/SVG/1.1/DTD/svg11.dtd" >
<svg xmlns="http://www.w3.org/2000/svg" xmlns:xlink="http://www.w3.org/1999/xlink" version="1.1">
<metadata>
Created by Christoph Koeberlin (http://christoph.koe.berlin)
Copyright (c) 2017 Swiss Typefaces Sarl. All rights reserved.
</metadata>
<defs>
<font id="Font" horiz-adv-x="0" >
  <font-face 
    font-family="Font"
    font-weight="400"
    font-stretch="normal"
    units-per-em="1000"
    panose-1="2 4 5 4 8 0 0 0 0 4"
    ascent="800"
    descent="-200"
    x-height="502"
    cap-height="758"
    bbox="-399 -403 1307 1059"
    underline-thickness="47"
    underline-position="-130"
    unicode-range="U+000D-FEFF"
  />
<missing-glyph horiz-adv-x="640" 
d="M70 758h500v-758h-500v758zM320 396l217 343h-434zM89 30l221 349l-221 349v-698zM551 30v698l-220 -349zM537 19l-217 343l-217 -343h434z" />
    <glyph glyph-name="f_f.liga" unicode="ff" horiz-adv-x="734" 
d="M34 23l35 2q25 1 31.5 7t6.5 26v393h-73v23q44 3 66.5 19t30.5 60q19 109 74.5 163.5t165.5 54.5h14v-93h-98q-58 0 -89 -22t-31 -67q0 -44 33 -87h160v-51h-159v-393q0 -20 6.5 -25.5t32.5 -6.5l54 -3v-23h-260v23zM397 23l35 2q25 1 31.5 7t6.5 26v393h-73v23
q44 3 66.5 19t30.5 60q19 109 74.5 163.5t165.5 54.5h14v-93h-98q-58 0 -89 -22t-31 -67q0 -44 33 -87h195l-31 -51h-163v-393q0 -20 6.5 -25.5t32.5 -6.5l54 -3v-23h-260v23z" />
    <glyph glyph-name="f_i.liga" unicode="fi" horiz-adv-x="673" 
d="M34 23l35 2q25 1 31.5 7t6.5 26v393h-73v23q44 3 66.5 19t30.5 60q19 109 74.5 163.5t165.5 54.5h14v-93h-98q-58 0 -89 -22t-31 -67q0 -44 33 -87h183l-31 -51h-151v-393q0 -20 6.5 -25.5t32.5 -6.5l54 -3v-23h-260v23zM403 23l35 2q23 2 30.5 7.5t7.5 25.5v349l-73 41
v6l167 64v-460q0 -20 7.5 -25.5t31.5 -7.5l34 -2v-23h-240v23zM459 722q0 25 19 44t45 19t45 -19t19 -44q0 -26 -19 -45.5t-45 -19.5t-45 19.5t-19 45.5z" />
    <glyph glyph-name="f_f_i.liga" unicode="ffi" horiz-adv-x="1036" 
d="M34 23l35 2q25 1 31.5 7t6.5 26v393h-73v23q44 3 66.5 19t30.5 60q19 109 74.5 163.5t165.5 54.5h14v-93h-98q-58 0 -89 -22t-31 -67q0 -44 33 -87h160v-51h-159v-393q0 -20 6.5 -25.5t32.5 -6.5l54 -3v-23h-260v23zM397 23l35 2q25 1 31.5 7t6.5 26v393h-73v23
q44 3 66.5 19t30.5 60q19 109 74.5 163.5t165.5 54.5h14v-93h-98q-58 0 -89 -22t-31 -67q0 -44 33 -87h183l-31 -51h-151v-393q0 -20 6.5 -25.5t32.5 -6.5l54 -3v-23h-260v23zM766 23l35 2q23 2 30.5 7.5t7.5 25.5v349l-73 41v6l167 64v-460q0 -20 7.5 -25.5t31.5 -7.5
l34 -2v-23h-240v23zM822 722q0 25 19 44t45 19t45 -19t19 -44q0 -26 -19 -45.5t-45 -19.5t-45 19.5t-19 45.5z" />
    <glyph glyph-name="f_l.liga" unicode="fl" horiz-adv-x="675" 
d="M34 23l35 2q25 1 31.5 7t6.5 26v393h-73v23q44 3 66.5 19t30.5 60q19 109 74.5 163.5t165.5 54.5h14v-93h-98q-58 0 -89 -22t-31 -67q0 -44 33 -87h178l-31 -51h-146v-393q0 -20 6.5 -25.5t32.5 -6.5l54 -3v-23h-260v23zM405 23l35 2q25 1 31.5 7t6.5 26v622l-73 41v6
l167 64v-733q0 -20 6.5 -26t32.5 -7l34 -2v-23h-240v23z" />
    <glyph glyph-name="f_f_l.liga" unicode="ffl" horiz-adv-x="1034" 
d="M34 23l35 2q25 1 31.5 7t6.5 26v393h-73v23q44 3 66.5 19t30.5 60q19 109 74.5 163.5t165.5 54.5h14v-93h-98q-58 0 -89 -22t-31 -67q0 -44 33 -87h160v-51h-159v-393q0 -20 6.5 -25.5t32.5 -6.5l54 -3v-23h-260v23zM397 23l35 2q25 1 31.5 7t6.5 26v393h-73v23
q44 3 66.5 19t30.5 60q19 109 74.5 163.5t165.5 54.5h14v-93h-98q-58 0 -89 -22t-31 -67q0 -44 33 -87h178l-31 -51h-146v-393q0 -20 6.5 -25.5t32.5 -6.5l54 -3v-23h-260v23zM768 23l35 2q25 1 31.5 7t6.5 26v622l-73 41v6l167 64v-733q0 -20 6.5 -26t32.5 -7l34 -2v-23
h-240v23z" />
    <glyph glyph-name=".notdef" horiz-adv-x="640" 
d="M70 758h500v-758h-500v758zM320 396l217 343h-434zM89 30l221 349l-221 349v-698zM551 30v698l-220 -349zM537 19l-217 343l-217 -343h434z" />
    <glyph glyph-name="glyph1" 
 />
    <glyph glyph-name="uni000D" unicode="&#xd;" horiz-adv-x="240" 
 />
    <glyph glyph-name="space" unicode=" " horiz-adv-x="240" 
 />
    <glyph glyph-name="exclam" unicode="!" horiz-adv-x="290" 
d="M134 218q-2 70 -6 124t-9 98t-10.5 80.5t-9.5 72.5t-7 74.5t-3 85.5q0 11 18 16.5t39 5.5t39 -5.5t18 -16.5q0 -47 -3 -86t-7 -74.5t-9.5 -72.5t-10.5 -80.5t-9 -97.5t-6 -124h-24zM142 -12q-27 0 -46 19.5t-19 47.5q0 27 19 46.5t46 19.5q29 0 48 -19.5t19 -46.5
q0 -28 -19 -47.5t-48 -19.5z" />
    <glyph glyph-name="quotedbl" unicode="&#x22;" horiz-adv-x="416" 
d="M57 739q-2 20 8 28t39 8t38 -8t7 -28l-32 -260h-28zM267 739q-2 20 8 28t39 8t38 -8t7 -28l-32 -260h-28z" />
    <glyph glyph-name="numbersign" unicode="#" horiz-adv-x="900" 
d="M213 205h-182l20 48h182l103 254h-182l19 48h182l90 221h52l-90 -221h229l90 221h51l-90 -221h182l-19 -48h-182l-103 -254h181l-19 -48h-182l-83 -205h-51l83 205h-229l-83 -205h-52zM514 253l103 254h-229l-103 -254h229z" />
    <glyph glyph-name="dollar" unicode="$" horiz-adv-x="612" 
d="M282 -12q-54 0 -98 12t-76 31.5t-49.5 44.5t-17.5 50q0 32 27.5 49t65.5 8q13 -82 50 -122t107 -43v333l-49 18q-83 31 -131.5 80.5t-48.5 130.5q0 40 18.5 74t50 59.5t73 41.5t87.5 19v115h32v-114q51 -1 93 -12.5t71 -30t45 -41t16 -46.5q0 -26 -23 -40.5t-65 -4.5
q-11 63 -42.5 100t-94.5 44v-293l22 -8q50 -19 91 -39.5t69.5 -47.5t44 -62t15.5 -81q0 -44 -17 -82.5t-48.5 -68t-76 -48.5t-100.5 -24v-120h-32v118h-9zM483 169q0 65 -41 102.5t-119 67.5v-320q74 6 117 47t43 103zM291 463v282q-31 -1 -58 -10.5t-47.5 -27t-32 -40.5
t-11.5 -51q0 -57 34 -90t96 -56z" />
    <glyph glyph-name="percent" unicode="%" horiz-adv-x="924" 
d="M714 758h61l-566 -758h-61zM40 551q0 43 11 82.5t31.5 70t50.5 48.5t68 18q39 0 69 -18t51 -48.5t32 -70t11 -82.5t-11 -82.5t-32 -70t-51 -48.5t-69 -18q-38 0 -68 18t-50.5 48.5t-31.5 70t-11 82.5zM115 551q0 -42 4.5 -78.5t15 -63t26.5 -42t40 -15.5t40.5 15.5t27 42
t15 63t4.5 78.5t-4.5 78.5t-15 63t-27 42t-40.5 15.5t-40 -15.5t-26.5 -42t-15 -63t-4.5 -78.5zM561 210q0 43 11 82.5t31.5 70t50.5 48.5t68 18q39 0 69 -18t51 -48.5t32 -70t11 -82.5t-11 -82.5t-32 -70t-51 -48.5t-69 -18q-38 0 -68 18t-50.5 48.5t-31.5 70t-11 82.5z
M636 210q0 -42 4.5 -78.5t15 -63t26.5 -42t40 -15.5t40.5 15.5t27 42t15 63t4.5 78.5t-4.5 78.5t-15 63t-27 42t-40.5 15.5t-40 -15.5t-26.5 -42t-15 -63t-4.5 -78.5z" />
    <glyph glyph-name="ampersand" unicode="&#x26;" horiz-adv-x="891" 
d="M306 -12q-60 0 -106.5 19t-78 50t-47.5 70t-16 79q0 44 17.5 79.5t47 63.5t69 49.5t83.5 37.5q-51 45 -77.5 88t-26.5 88q0 34 16 64t44 52t66 34.5t82 12.5q40 0 74.5 -9t59.5 -26t39 -42t14 -57q0 -34 -16 -60.5t-42.5 -48t-61 -38t-71.5 -29.5q54 -45 112.5 -101.5
t118.5 -118.5l104 181q29 50 -24 52l-51 1v23h225v-23l-44 -1q-23 -1 -36.5 -11.5t-25.5 -30.5l-127 -214q31 -33 60.5 -66.5t56.5 -66.5q23 -29 41.5 -45.5t38.5 -18.5l40 -3v-22h-174q-25 31 -54.5 66t-62.5 73q-53 -70 -118 -110.5t-149 -40.5zM258 645q0 -48 28 -87.5
t75 -80.5q132 49 132 158q0 57 -32 86t-83 29q-56 0 -88 -28.5t-32 -76.5zM158 244q0 -42 14 -79.5t39 -65t60 -43.5t76 -16q66 0 116 32t91 89q-62 69 -130 138t-135 126q-69 -30 -100 -77t-31 -104z" />
    <glyph glyph-name="quotesingle" unicode="'" horiz-adv-x="206" 
d="M57 739q-2 20 8 28t39 8t38 -8t7 -28l-32 -260h-28z" />
    <glyph glyph-name="parenleft" unicode="(" horiz-adv-x="314" 
d="M278 -239q-122 105 -177.5 241.5t-55.5 288.5t55.5 288.5t177.5 241.5l16 -15q-51 -53 -83 -114.5t-50.5 -128t-25.5 -135.5t-7 -137t7 -137t25.5 -135.5t50.5 -128t83 -114.5z" />
    <glyph glyph-name="parenright" unicode=")" horiz-adv-x="314" 
d="M36 820q122 -105 177.5 -241.5t55.5 -288.5t-55.5 -288.5t-177.5 -241.5l-16 15q51 53 83 114.5t50.5 128t25.5 135.5t7 137t-7 137t-25.5 135.5t-50.5 128t-83 114.5z" />
    <glyph glyph-name="asterisk" unicode="*" horiz-adv-x="489" 
d="M119 448l80 141l-147 66l6 19l158 -33l18 160h19l19 -160l158 32l6 -19l-147 -67l80 -139l-17 -12l-109 119l-107 -118z" />
    <glyph glyph-name="plus" unicode="+" horiz-adv-x="653" 
d="M301 237h-239v49h239v230h52v-230h238v-49h-238v-237h-52v237z" />
    <glyph glyph-name="comma" unicode="," horiz-adv-x="264" 
d="M34 -171q48 37 70 73t22 68q0 55 -66 73q-1 30 18.5 52.5t52.5 22.5q30 0 50 -20t20 -60q0 -54 -37.5 -115.5t-116.5 -115.5z" />
    <glyph glyph-name="hyphen" unicode="-" horiz-adv-x="430" 
d="M68 288h294v-53h-294v53z" />
    <glyph glyph-name="period" unicode="." horiz-adv-x="252" 
d="M125 -12q-27 0 -46 19.5t-19 47.5q0 27 19 46.5t46 19.5q29 0 48 -19.5t19 -46.5q0 -28 -19 -47.5t-48 -19.5z" />
    <glyph glyph-name="slash" unicode="/" horiz-adv-x="500" 
d="M407 794h65l-379 -846h-65z" />
    <glyph glyph-name="zero" unicode="0" horiz-adv-x="674" 
d="M53 381q0 77 19 148t55.5 126t89 87.5t120.5 32.5q67 0 120 -32.5t89.5 -87.5t55.5 -126t19 -148t-19 -147.5t-55.5 -125.5t-89.5 -87.5t-120 -32.5q-68 0 -120.5 32.5t-89 87.5t-55.5 125.5t-19 147.5zM159 381q0 -80 11 -147t33.5 -115t56 -74.5t77.5 -26.5t77.5 26.5
t56 74.5t33.5 115t11 147q0 81 -11 148t-33.5 115t-56 74.5t-77.5 26.5t-77.5 -26.5t-56 -74.5t-33.5 -115t-11 -148z" />
    <glyph glyph-name="one" unicode="1" horiz-adv-x="397" 
d="M172 702l-149 -62v27l243 102v-711q0 -20 6.5 -26t32.5 -7l34 -2v-23h-258v23l53 2q25 1 31.5 7t6.5 26v644z" />
    <glyph glyph-name="two" unicode="2" horiz-adv-x="591" 
d="M25 4q99 97 171 178t119.5 149.5t70.5 127.5t23 114q0 69 -36.5 109t-104.5 40q-67 0 -113 -45t-54 -138h-24q0 57 17.5 101t48 74t72 45.5t90.5 15.5q52 0 91 -14.5t64 -39.5t37.5 -57.5t12.5 -69.5q0 -50 -21 -100t-61.5 -104.5t-99 -114t-133.5 -127.5l-71 -65h283
q41 0 59 6.5t29 33.5l31 75h24l-54 -198h-471v4z" />
    <glyph glyph-name="three" unicode="3" horiz-adv-x="586" 
d="M234 -12q-47 0 -84 12t-63 30.5t-40 41.5t-14 45q0 15 7.5 27t19.5 19.5t28 10.5t34 -1q5 -33 15 -60.5t28 -48t44 -32t64 -11.5q31 0 63 11t58 34.5t42.5 58.5t16.5 83q0 47 -17 83.5t-44 62t-60.5 39t-65.5 13.5q-23 0 -43 -6t-36 -13l-9 26l38 14q38 14 71 34t57 44
t38 51.5t14 56.5q0 53 -35 81t-91 28q-28 0 -55.5 -7.5t-50.5 -25t-39 -45.5t-22 -69h-25q10 97 71 148.5t158 51.5q40 0 73 -10t57 -27.5t37 -41.5t13 -53t-12.5 -53.5t-34 -44t-49 -35t-57.5 -27.5v-2q45 -8 82.5 -27t64.5 -47t42 -64.5t15 -79.5q0 -62 -26.5 -113
t-69 -87t-97 -55.5t-111.5 -19.5z" />
    <glyph glyph-name="four" unicode="4" horiz-adv-x="675" 
d="M411 202h-407l418 556h83v-487h144v-69h-144v-202h-94v202zM411 271v417l-317 -417h317z" />
    <glyph glyph-name="five" unicode="5" horiz-adv-x="576" 
d="M222 -12q-47 0 -84 12t-62.5 30.5t-39.5 41.5t-14 45q0 15 7 27t19 19.5t28 10.5t34 -1q6 -33 16.5 -61t28.5 -48t44 -31t64 -11q39 0 72 13.5t57 36.5t38 55t14 69q0 42 -18 79.5t-58.5 68.5t-104.5 54.5t-157 37.5l84 322h351l-24 -88h-320l-37 -138q93 -15 159.5 -42
t109.5 -64.5t63.5 -83.5t20.5 -99q0 -51 -21.5 -97.5t-60 -81.5t-92 -55.5t-117.5 -20.5z" />
    <glyph glyph-name="six" unicode="6" horiz-adv-x="623" 
d="M572 234q0 -54 -21 -99t-56.5 -78t-82 -51t-98.5 -18q-62 0 -111.5 21.5t-84.5 59t-53.5 88.5t-18.5 110q0 83 37.5 164t106.5 152.5t166 128.5t216 93l8 -20q-87 -33 -157 -77.5t-122.5 -97.5t-86.5 -112t-50 -122q37 38 84 60t103 22q44 0 84 -14t70.5 -41.5
t48.5 -69.5t18 -99zM151 271q0 -56 11.5 -102.5t33 -80.5t52.5 -53t69 -19q34 0 61.5 14t47 40t30.5 62t11 81q0 46 -12 83t-33 63t-51 40t-66 14q-41 0 -79.5 -15t-67.5 -48q-4 -20 -5.5 -39.5t-1.5 -39.5z" />
    <glyph glyph-name="seven" unicode="7" horiz-adv-x="588" 
d="M593 758l-275 -429q-33 -51 -55 -92t-38 -75.5t-27 -64.5t-21 -57q-11 -27 -20 -35t-26 -10l-42 -6q-17 -2 -23.5 8.5t7.5 33.5q51 78 99.5 152t100.5 150.5t109.5 159t125.5 177.5h-330q-23 0 -37.5 -1.5t-24.5 -6.5t-17 -15t-14 -26l-27 -65h-24l55 202h504z" />
    <glyph glyph-name="eight" unicode="8" horiz-adv-x="597" 
d="M294 -12q-52 0 -96.5 14t-77.5 39.5t-52 61.5t-19 80q0 69 47 117.5t135 82.5q-63 37 -103 86.5t-40 120.5q0 43 17.5 77.5t47.5 58.5t69 36.5t82 12.5q40 0 77 -10t65.5 -29.5t46 -48.5t17.5 -66q0 -33 -12.5 -61t-33.5 -51t-49.5 -41t-60.5 -31l8 -5q40 -21 73.5 -44.5
t58.5 -51.5t39 -61.5t14 -75.5q0 -47 -20 -86t-54 -67t-80.5 -43t-98.5 -15zM336 446q52 26 81 68t29 96q0 31 -11 56t-30.5 41.5t-46.5 25.5t-58 9t-57.5 -7.5t-46 -22t-31 -36t-11.5 -48.5q0 -53 38 -89t105 -72zM125 188q0 -38 12.5 -68.5t35.5 -52.5t54.5 -34t69.5 -12
q82 0 130 38.5t48 104.5q0 29 -12 52.5t-34 44t-51.5 39t-64.5 37.5l-66 36q-56 -26 -89 -71t-33 -114z" />
    <glyph glyph-name="nine" unicode="9" horiz-adv-x="622" 
d="M49.9971 528.968q0 53.9971 20.999 98.9941q20.998 44.9971 56.4961 77.9951t81.9951 50.9971t98.4941 17.999q61.9961 0 111.493 -21.499t84.4941 -58.9961q34.998 -37.498 53.4971 -88.4951t18.499 -109.993q0 -82.9951 -37.498 -163.99
q-37.4971 -80.9951 -106.493 -152.49q-68.9961 -71.4961 -165.99 -128.492q-96.9941 -56.9971 -215.986 -92.9941l-8 19.998q86.9951 32.998 156.991 77.4961q69.9951 44.4971 122.492 97.4932q52.4971 52.9971 86.4941 111.993q33.998 58.9971 49.9971 121.993
q-36.9971 -37.998 -83.9941 -59.9961q-46.9971 -21.999 -102.994 -21.999q-43.9971 0 -83.9951 13.999q-39.9971 13.999 -70.4951 41.4971q-30.498 27.499 -48.4971 69.4961t-17.999 98.9941zM470.972 491.97q0 55.9971 -11.5 102.494q-11.499 46.4971 -32.998 80.4951
q-21.498 33.998 -52.4961 52.9961q-30.998 18.999 -68.9961 18.999q-33.998 0 -61.4961 -13.999q-27.499 -13.999 -46.9971 -39.9971q-19.499 -25.999 -30.498 -61.9961q-11 -35.998 -11 -80.9951q0 -45.998 12 -82.9951q11.999 -36.998 32.998 -62.9961
q20.998 -25.999 50.9961 -39.998t65.9961 -13.999q40.998 0 79.4951 14.999q38.498 14.999 67.4961 47.9971q4 19.999 5.5 39.498q1.5 19.498 1.5 39.4971z" />
    <glyph glyph-name="colon" unicode=":" horiz-adv-x="268" 
d="M133 -12q-27 0 -46 19.5t-19 47.5q0 27 19 46.5t46 19.5q29 0 48 -19.5t19 -46.5q0 -28 -19 -47.5t-48 -19.5zM133 385q-27 0 -46 19.5t-19 47.5q0 27 19 46.5t46 19.5q29 0 48 -19.5t19 -46.5q0 -28 -19 -47.5t-48 -19.5z" />
    <glyph glyph-name="semicolon" unicode=";" horiz-adv-x="298" 
d="M55 -171q48 37 70 73t22 68q0 55 -66 73q-1 30 18.5 52.5t52.5 22.5q30 0 50 -20t20 -60q0 -54 -37.5 -115.5t-116.5 -115.5zM147 385q-27 0 -46 19.5t-19 47.5q0 27 19 46.5t46 19.5q29 0 48 -19.5t19 -46.5q0 -28 -19 -47.5t-48 -19.5z" />
    <glyph glyph-name="less" unicode="&#x3c;" horiz-adv-x="653" 
d="M59 284l514 226v-54l-445 -195l445 -196v-54l-514 227v46z" />
    <glyph glyph-name="equal" unicode="=" horiz-adv-x="653" 
d="M75 399h503v-49h-503v49zM75 165h503v-49h-503v49z" />
    <glyph glyph-name="greater" unicode="&#x3e;" horiz-adv-x="653" 
d="M594 238l-514 -227v54l445 196l-445 195v54l514 -226v-46z" />
    <glyph glyph-name="question" unicode="?" horiz-adv-x="566" 
d="M275 743q-64 0 -106 -31t-46 -100q-15 -1 -30.5 2.5t-28.5 11t-21 19t-8 26.5q0 17 15 35.5t42 33.5t65.5 25t85.5 10q66 0 118.5 -17.5t89 -49t56.5 -74.5t20 -94q0 -70 -40.5 -114t-130.5 -57l-103 -15q-12 -2 -19 -4t-11 -6t-6 -11.5t-2 -20.5l-3 -99h-23l-17 157
q-3 26 0.5 41t13 24t25 13t38.5 7l102 15q67 10 96 36.5t29 74.5q0 33 -16 62.5t-43 51.5t-63.5 35t-78.5 13zM203 -12q-27 0 -46 19.5t-19 47.5q0 27 19 46.5t46 19.5q29 0 48 -19.5t19 -46.5q0 -28 -19 -47.5t-48 -19.5z" />
    <glyph glyph-name="at" unicode="@" horiz-adv-x="953" 
d="M576 163q-25 0 -39 6.5t-14 21.5q0 9 5 24t13 35l32 81h-4q-24 -37 -51 -67.5t-56.5 -52.5t-60 -34.5t-61.5 -12.5q-45 0 -73.5 25.5t-28.5 75.5q0 42 17.5 84t46.5 81.5t67.5 73.5t79.5 59t83 39.5t79 14.5t69.5 -13.5t60.5 -24.5l-129 -325q-14 -35 -14 -44
q0 -5 3 -8.5t17 -3.5q35 0 80 17t85.5 52t68.5 90t28 130q0 66 -25.5 114.5t-68.5 80.5t-99 47.5t-117 15.5q-93 0 -176 -36t-145.5 -97.5t-98.5 -142t-36 -169.5q0 -70 23 -124.5t64 -92.5t98 -58t125 -20q81 0 134.5 15.5t86.5 31.5l9 -21q-37 -18 -95 -36t-142 -18
q-75 0 -142 21.5t-117 63t-79 101t-29 134.5q0 61 19.5 120t54.5 112t83.5 98.5t106.5 78t123 51t134 18.5q65 0 127 -17.5t110 -53t77.5 -89.5t29.5 -128t-28.5 -134t-75.5 -102t-108 -65t-127 -23zM380 212q22 0 52.5 13.5t62.5 41.5t62 69.5t52 97.5l54 138
q-16 19 -57 19q-45 0 -95 -29t-92 -74.5t-69.5 -100.5t-27.5 -107q0 -68 58 -68z" />
    <glyph glyph-name="A" unicode="A" horiz-adv-x="764" 
d="M684 61q8 -19 18.5 -25.5t33.5 -8.5l44 -3v-24h-289v24l50 3q24 2 32.5 8.5t0.5 25.5l-86 218h-283l-86 -218q-8 -19 0.5 -25.5t32.5 -8.5l50 -3v-24h-218v24l44 3q22 2 32.5 8.5t18.5 25.5l295 733h16zM473 319l-126 320l-126 -320h252z" />
    <glyph glyph-name="B" unicode="B" horiz-adv-x="744" 
d="M55 24l45 3q22 2 33.5 8.5t11.5 27.5v632q0 21 -11.5 27.5t-33.5 8.5l-45 3v24h299q64 0 117.5 -8.5t92 -28.5t59.5 -53t21 -82q0 -38 -15 -69t-42.5 -54.5t-66.5 -38.5t-87 -20v-2q59 0 108 -11t84.5 -33.5t55 -57t19.5 -81.5q0 -100 -80 -159.5t-238 -59.5h-327v24z
M364 416q84 0 128.5 41.5t44.5 116.5q0 82 -49 117.5t-143 35.5h-99v-311h118zM356 31q118 0 174.5 42t56.5 138q0 48 -15 81t-43.5 53.5t-69 30t-91.5 9.5h-122v-354h110z" />
    <glyph glyph-name="C" unicode="C" horiz-adv-x="819" 
d="M479 -12q-94 0 -173 27.5t-136.5 78.5t-89.5 123.5t-32 163.5t32.5 164t90 124t137.5 78.5t176 27.5q31 0 64 -2.5t64.5 -8t60 -14t51.5 -20.5l42 -217h-18l-113 182q-11 17 -20 24.5t-27 12.5q-23 7 -49 9t-59 2q-61 0 -118 -19t-101.5 -60t-71 -106t-26.5 -157
q0 -83 22 -153t63.5 -120.5t102 -79t137.5 -28.5q33 0 59 2t49 9q18 5 27 12.5t20 24.5l113 182h18l-42 -217q-23 -12 -53.5 -20.5t-64 -14t-69 -8t-66.5 -2.5z" />
    <glyph glyph-name="D" unicode="D" horiz-adv-x="847" 
d="M55 24l45 3q22 2 33.5 8.5t11.5 27.5v632q0 21 -11.5 27.5t-33.5 8.5l-45 3v24h278q96 0 181 -21.5t148 -67t99.5 -116.5t36.5 -169t-36.5 -170.5t-99 -120t-146.5 -70.5t-178 -23h-283v24zM333 31q76 0 140 18t110.5 57.5t72.5 103t26 153.5q0 97 -24 166t-70 113
t-111.5 64.5t-147.5 20.5h-83v-696h87z" />
    <glyph glyph-name="E" unicode="E" horiz-adv-x="750" 
d="M55 24l45 3q22 2 33.5 8.5t11.5 27.5v632q0 21 -11.5 27.5t-33.5 8.5l-45 3v24h557l33 -222h-18l-102 174q-6 11 -11 13.5t-18 2.5h-250v-313h150q13 0 16.5 2.5t5.5 10.5l40 118h18v-297h-18l-40 117q-3 8 -6 10.5t-16 2.5h-150v-345h299q12 0 16.5 2.5t11.5 11.5
l137 178h18l-68 -224h-605v24z" />
    <glyph glyph-name="F" unicode="F" horiz-adv-x="702" 
d="M55 24l45 3q22 2 33.5 8.5t11.5 27.5v632q0 21 -11.5 27.5t-33.5 8.5l-45 3v24h590l34 -222h-18l-103 174q-6 11 -11 13.5t-17 2.5h-284v-313h158q12 0 16 2.5t6 10.5l39 118h18v-297h-18l-39 117q-3 8 -6.5 10.5t-15.5 2.5h-158v-314q0 -21 11.5 -27.5t34.5 -7.5l86 -2
v-26h-323v24z" />
    <glyph glyph-name="G" unicode="G" horiz-adv-x="883" 
d="M479 -12q-94 0 -173 27.5t-136.5 78.5t-89.5 123.5t-32 163.5t32.5 164t91 124t138 78.5t174.5 27.5q31 0 64 -2.5t64.5 -8t60 -14t51.5 -20.5l42 -217h-18l-113 182q-11 17 -20 24.5t-27 12.5q-23 7 -49 9t-59 2q-60 0 -117 -19t-101.5 -60t-71.5 -106t-27 -157
q0 -83 22 -152.5t63.5 -120t102 -79t137.5 -28.5q42 0 91 8t87 28v222q0 21 -11.5 28.5t-33.5 8.5l-118 3v32h355v-36l-90 -1v-196l3 -69q-29 -12 -64.5 -23t-74 -19.5t-78 -13.5t-75.5 -5z" />
    <glyph glyph-name="H" unicode="H" horiz-adv-x="900" 
d="M55 24l45 3q22 2 33.5 8.5t11.5 27.5v632q0 21 -11.5 27.5t-33.5 8.5l-45 3v24h282v-24l-45 -3q-23 -2 -34.5 -8.5t-11.5 -27.5v-277h407v277q0 21 -11.5 27.5t-33.5 8.5l-45 3v24h282v-24l-45 -3q-22 -2 -33.5 -8.5t-11.5 -27.5v-632q0 -21 11.5 -27.5t33.5 -8.5l45 -3
v-24h-282v24l45 3q22 2 33.5 8.5t11.5 27.5v315h-407v-315q0 -21 11.5 -27.5t34.5 -8.5l45 -3v-24h-282v24z" />
    <glyph glyph-name="I" unicode="I" horiz-adv-x="391" 
d="M55 24l45 3q22 2 33.5 8.5t11.5 27.5v632q0 21 -11.5 27.5t-33.5 8.5l-45 3v24h282v-24l-45 -3q-23 -2 -34.5 -8.5t-11.5 -27.5v-632q0 -21 11.5 -27.5t34.5 -8.5l45 -3v-24h-282v24z" />
    <glyph glyph-name="J" unicode="J" horiz-adv-x="382" 
d="M-2 -95q45 37 74 63t45.5 51t23 54.5t6.5 74.5v549q0 20 -11 25.5t-33 6.5l-50 2v27h289v-27l-50 -2q-22 -1 -33 -6.5t-11 -25.5v-522q0 -41 -7 -68.5t-21 -50t-36 -42.5t-52 -45q-10 -8 -24 -19t-30.5 -22.5l-33 -23t-30.5 -21.5z" />
    <glyph glyph-name="K" unicode="K" horiz-adv-x="794" 
d="M55 24l45 3q22 2 33.5 8.5t11.5 27.5v632q0 21 -11.5 27.5t-33.5 8.5l-45 3v24h282v-24l-45 -3q-23 -2 -34.5 -8.5t-11.5 -27.5v-315l350 327q10 9 4.5 15.5t-30.5 8.5l-64 3v24h264v-24l-52 -3q-30 -2 -46 -8t-32 -21l-295 -276l458 -426h-142l-415 377v-314
q0 -21 11.5 -27.5t34.5 -8.5l45 -3v-24h-282v24z" />
    <glyph glyph-name="L" unicode="L" horiz-adv-x="703" 
d="M55 24l45 3q22 2 33.5 8.5t11.5 27.5v632q0 21 -11.5 27.5t-33.5 8.5l-45 3v24h282v-24l-45 -3q-23 -2 -34.5 -8.5t-11.5 -27.5v-663h260q12 0 16.5 2.5t11.5 11.5l137 178h18l-68 -224h-566v24z" />
    <glyph glyph-name="M" unicode="M" horiz-adv-x="1033" 
d="M35 24l44 3q22 2 33 8.5t13 27.5l40 632q2 21 -10.5 27.5t-34.5 8.5l-45 3v24h223l224 -474l224 474h213v-24l-45 -3q-23 -2 -35.5 -8.5t-10.5 -27.5l40 -632q2 -21 12.5 -27.5t33.5 -8.5l45 -3v-24h-282v24l44 3q23 2 35.5 8.5t10.5 27.5l-40 653l-278 -588h-6l-279 587
l-40 -652q-2 -21 10 -27.5t34 -8.5l46 -3v-24h-219v24z" />
    <glyph glyph-name="N" unicode="N" horiz-adv-x="883" 
d="M58 24l45 3q23 2 34 8.5t11 27.5v590l-91 103v2h132l520 -582v519q0 21 -11.5 27.5t-34.5 8.5l-45 3v24h220v-24l-45 -3q-23 -2 -34 -8.5t-11 -27.5v-714h-4l-557 628v-546q0 -21 11.5 -27.5t34.5 -8.5l44 -3v-24h-219v24z" />
    <glyph glyph-name="O" unicode="O" horiz-adv-x="894" 
d="M447 -12q-83 0 -155.5 28t-126.5 80t-85.5 124t-31.5 161t31.5 161.5t85.5 124.5t126.5 80t155.5 28q82 0 155 -28t127 -80t85.5 -124.5t31.5 -161.5t-31.5 -161t-85.5 -124t-127 -80t-155 -28zM447 21q61 0 112.5 24t89.5 70t59.5 113t21.5 153q0 87 -21.5 154
t-59.5 113t-89.5 70t-112.5 24t-113 -24t-90 -70t-59.5 -113t-21.5 -154q0 -86 21.5 -153t59.5 -113t90 -70t113 -24z" />
    <glyph glyph-name="P" unicode="P" horiz-adv-x="716" 
d="M55 24l45 3q22 2 33.5 8.5t11.5 27.5v632q0 21 -11.5 27.5t-33.5 8.5l-45 3v24h316q66 0 124 -8.5t101.5 -30.5t68.5 -61.5t25 -100.5t-25 -101t-68.5 -63.5t-101.5 -33t-124 -9.5h-100v32h91q51 0 90.5 8.5t67.5 28.5t42.5 53t14.5 82q0 48 -14.5 81.5t-42.5 53.5
t-67.5 29t-90.5 9h-116v-664q0 -21 11.5 -27.5t34.5 -7.5l86 -2v-26h-323v24z" />
    <glyph glyph-name="Q" unicode="Q" horiz-adv-x="894" 
d="M445 -12l-175 -70q28 8 56 10t40 2q58 0 103 -13.5t83 -29t72.5 -29t72.5 -13.5q46 0 82.5 24.5t62.5 86.5l25 -8q-15 -39 -34 -72.5t-41 -58.5t-48 -39.5t-55 -14.5q-49 0 -92 22.5t-85.5 50t-86.5 50t-95 22.5q-18 0 -34.5 -2.5t-28.5 -8.5q0 -28 -13 -38.5t-28 -10.5
q-11 0 -18.5 8t-7.5 20q0 21 25.5 39.5t90.5 44.5l76 32q-73 9 -135.5 40.5t-109 82t-73 118t-26.5 148.5q0 89 31.5 161.5t85.5 124.5t126.5 80t155.5 28q82 0 155 -28t127 -80t85.5 -124.5t31.5 -161.5t-31.5 -161t-85.5 -124t-127 -80t-155 -28h-2zM447 21q61 0 112.5 24
t89.5 70t59.5 113t21.5 153q0 87 -21.5 154t-59.5 113t-89.5 70t-112.5 24t-113 -24t-90 -70t-59.5 -113t-21.5 -154q0 -86 21.5 -153t59.5 -113t90 -70t113 -24z" />
    <glyph glyph-name="R" unicode="R" horiz-adv-x="763" 
d="M55 24l45 3q22 2 33.5 8.5t11.5 27.5v632q0 21 -11.5 27.5t-33.5 8.5l-45 3v24h287q68 0 125.5 -8.5t99.5 -29.5t65.5 -56.5t23.5 -90.5q0 -84 -59 -129.5t-162 -58.5l350 -385h-129l-337 373h-73v-310q0 -21 11.5 -27.5t34.5 -8.5l45 -3v-24h-282v24zM334 404
q48 0 86.5 8.5t66 28t42 50t14.5 75.5q0 44 -14.5 75t-42 50t-66 27.5t-86.5 8.5h-88v-323h88z" />
    <glyph glyph-name="S" unicode="S" horiz-adv-x="629" 
d="M291 -12q-58 0 -105 6t-89 20l-23 229h18l86 -177q13 -26 39 -36q14 -5 31 -7.5t44 -2.5q39 0 74 9.5t61 27.5t41.5 44.5t15.5 59.5q0 36 -13 63t-36 47.5t-55.5 36t-72.5 28.5l-53 17q-88 28 -136 82.5t-48 138.5q0 48 22 85.5t58.5 63t84 39t97.5 13.5q48 0 90.5 -6.5
t79.5 -20.5l36 -204h-18l-97 159q-11 19 -21 24.5t-25 9.5q-14 3 -28 4t-31 1q-30 0 -59 -9t-51.5 -26.5t-36 -42.5t-13.5 -57q0 -51 30 -88t95 -58l53 -17q52 -17 96 -37.5t76 -48.5t49.5 -65.5t17.5 -88.5q0 -49 -22.5 -89t-61 -68t-90.5 -43.5t-110 -15.5z" />
    <glyph glyph-name="T" unicode="T" horiz-adv-x="756" 
d="M222 25l60 3q22 1 33.5 7.5t11.5 27.5v666h-174q-13 0 -18.5 -2.5t-10.5 -13.5l-88 -189h-18l24 234h671l25 -234h-18l-89 189q-5 11 -10.5 13.5t-17.5 2.5h-174v-666q0 -21 11 -27t34 -8l60 -3v-25h-312v25z" />
    <glyph glyph-name="U" unicode="U" horiz-adv-x="861" 
d="M434 -12q-150 0 -230.5 75t-80.5 233v399q0 21 -11.5 27.5t-33.5 8.5l-45 3v24h282v-24l-45 -3q-22 -2 -33.5 -8.5t-11.5 -27.5v-401q0 -133 57 -195.5t178 -62.5q123 0 181.5 67.5t58.5 199.5v392q0 21 -11 27.5t-34 8.5l-45 3v24h219v-24l-44 -3q-23 -2 -34.5 -8.5
t-11.5 -27.5v-398q0 -152 -77.5 -230.5t-227.5 -78.5z" />
    <glyph glyph-name="V" unicode="V" horiz-adv-x="776" 
d="M78 697q-8 19 -18.5 25.5t-32.5 8.5l-44 3v24h287v-24l-50 -3q-24 -2 -32.5 -8.5t-0.5 -25.5l235 -572l236 572q8 19 -1 25.5t-32 8.5l-50 3v24h218v-24l-44 -3q-22 -2 -32.5 -8.5t-18.5 -25.5l-302 -722h-17z" />
    <glyph glyph-name="W" unicode="W" horiz-adv-x="1183" 
d="M78 697q-8 19 -18.5 25.5t-32.5 8.5l-44 3v24h287v-24l-50 -3q-24 -2 -32.5 -8.5t-0.5 -25.5l235 -572l161 386l-93 247h260v-24l-92 -3q-24 -1 -32.5 -8t-1.5 -26l204 -572l236 572q8 19 -0.5 25.5t-32.5 8.5l-49 3v24h218v-24l-44 -3q-23 -2 -33 -8.5t-18 -25.5
l-302 -722h-17l-185 490l-206 -490h-16z" />
    <glyph glyph-name="X" unicode="X" horiz-adv-x="802" 
d="M-4 24l43 3q40 3 65 34l256 315l-232 321q-12 17 -24.5 24.5t-33.5 9.5l-43 3v24h295v-24l-50 -4q-23 -2 -30.5 -9t4.5 -24l177 -244l198 244q24 30 -20 33l-50 4v24h222v-24l-43 -3q-41 -3 -66 -34l-221 -272l263 -364q12 -17 24.5 -24.5t34.5 -9.5l42 -3v-24h-295v24
l50 4q23 2 30.5 9t-4.5 24l-207 287l-233 -287q-13 -16 -8.5 -23.5t28.5 -9.5l50 -4v-24h-222v24z" />
    <glyph glyph-name="Y" unicode="Y" horiz-adv-x="770" 
d="M230 25l60 3q22 1 33.5 7.5t11.5 27.5v279l-248 355q-6 9 -11 15t-10 10t-12 6t-18 3l-44 3v24h290v-24l-50 -3q-23 -2 -34 -9.5t1 -24.5l221 -317l222 317q13 18 1.5 25t-34.5 9l-50 3v24h220v-24l-44 -3q-22 -2 -30.5 -9.5t-20.5 -24.5l-248 -355v-279q0 -21 11.5 -27
t34.5 -8l60 -3v-25h-312v25z" />
    <glyph glyph-name="Z" unicode="Z" horiz-adv-x="732" 
d="M22 10l534 717h-325q-14 0 -19 -2.5t-13 -13.5l-131 -177h-18l69 224h563v-11l-532 -716h374q13 0 18 2.5t13 13.5l131 177h19l-70 -224h-613v10z" />
    <glyph glyph-name="bracketleft" unicode="[" horiz-adv-x="305" 
d="M107 813h165v-24l-42 -2q-35 -2 -47.5 -13.5t-12.5 -43.5v-875q0 -32 12.5 -43.5t47.5 -13.5l42 -2v-23h-165v1040z" />
    <glyph glyph-name="backslash" unicode="\" horiz-adv-x="500" 
d="M407 -52l-379 846h65l379 -846h-65z" />
    <glyph glyph-name="bracketright" unicode="]" horiz-adv-x="305" 
d="M198 -227h-165v24l42 2q35 2 47.5 13.5t12.5 43.5v875q0 32 -12.5 43.5t-47.5 13.5l-42 2v23h165v-1040z" />
    <glyph glyph-name="asciicircum" unicode="^" horiz-adv-x="653" 
d="M302 776h49l210 -415h-54l-181 360l-181 -360h-53z" />
    <glyph glyph-name="underscore" unicode="_" horiz-adv-x="571" 
d="M13 -55h545v-47h-545v47z" />
    <glyph glyph-name="grave" unicode="`" 
d="M77 597l-194 172v7h105l109 -179h-20z" />
    <glyph glyph-name="a" unicode="a" horiz-adv-x="540" 
d="M205 -12q-35 0 -64.5 11t-50.5 29.5t-32.5 43t-11.5 51.5q0 35 18 58.5t45 39.5t58.5 27.5t59.5 22.5q47 18 72.5 33t37.5 28.5t14 27.5t2 30q0 42 -25 70.5t-77 28.5q-60 0 -90 -40.5t-15 -110.5q-19 -4 -38 -4q-33 0 -50.5 13t-17.5 33q0 13 7.5 25t20.5 23t29 21
t34 19q41 22 84 36t85 14q73 0 110 -34.5t36 -124.5l-3 -315h76v-22l-158 -29l-7 112q-20 -66 -58.5 -91.5t-90.5 -25.5zM245 29q19 0 38 8t34 25t24.5 45t9.5 67l2 143q-20 -15 -38 -26.5t-47 -26.5q-26 -14 -47 -27t-36 -28t-23 -34t-8 -44q0 -20 5.5 -38t17 -32.5
t28.5 -23t40 -8.5z" />
    <glyph glyph-name="b" unicode="b" horiz-adv-x="602" 
d="M332 517q48 0 89 -18.5t71.5 -53t48 -83.5t17.5 -110q0 -58 -18 -106.5t-50 -83.5t-76 -54.5t-95 -19.5t-88.5 19.5t-60.5 49.5l-77 -68l-7 3v688l-73 41v6l167 64v-347q24 33 64 53t88 20zM286 472q-26 0 -54.5 -9.5t-51.5 -35.5v-353q23 -26 50.5 -36.5t53.5 -10.5
q37 0 68 16.5t53 46t34 71t12 91.5q0 47 -12 87.5t-34 70t-52 46t-67 16.5z" />
    <glyph glyph-name="c" unicode="c" horiz-adv-x="554" 
d="M295 -12q-54 0 -100.5 19t-80.5 53.5t-53 83t-19 107.5q0 58 21.5 107t58.5 84.5t86 55t105 19.5q33 0 65 -7.5t57.5 -21.5t41.5 -34t16 -45q0 -26 -18.5 -40t-46.5 -14q-5 0 -10.5 0.5t-11.5 1.5q-6 72 -40 103t-83 31q-27 0 -52 -11t-44 -33.5t-30.5 -57.5t-12.5 -82
q-1 -52 12 -99t38 -82.5t61 -56.5t81 -21q23 0 47.5 6t47 21t41.5 41t30 67h23q-10 -52 -31.5 -89t-51.5 -60.5t-67.5 -34.5t-79.5 -11z" />
    <glyph glyph-name="d" unicode="d" horiz-adv-x="616" 
d="M269 -12q-48 0 -89 18.5t-71 53t-47.5 83.5t-17.5 110q0 58 18 106.5t50 83.5t75.5 54.5t94.5 19.5q44 0 80 -17.5t59 -46.5v227l-93 41v6l187 64v-747h77v-22l-171 -31v70q-25 -32 -64.5 -52.5t-87.5 -20.5zM150 254q0 -48 12 -88t34 -69.5t52.5 -46t67.5 -16.5
q26 0 54.5 9.5t50.5 35.5v355q-23 26 -50.5 35.5t-53.5 9.5q-37 0 -68 -16.5t-53 -46t-34 -71t-12 -91.5z" />
    <glyph glyph-name="e" unicode="e" horiz-adv-x="577" 
d="M296 -12q-54 0 -100.5 18t-80 51.5t-53 82.5t-19.5 111q0 60 20.5 109t55.5 84t80.5 54t95.5 19q35 0 71.5 -11t68.5 -35t56.5 -63t35.5 -95h-382v-19q0 -55 14.5 -100t40 -77.5t60.5 -50.5t77 -18q24 0 50 5t50 19.5t45 41t35 69.5h23q-23 -101 -87.5 -148t-156.5 -47z
M292 493q-54 0 -93.5 -37.5t-50.5 -113.5h263q-1 31 -8 58.5t-21.5 48t-36.5 32.5t-53 12z" />
    <glyph glyph-name="f" unicode="f" horiz-adv-x="384" 
d="M34 23l35 2q25 1 31.5 7t6.5 26v393h-73v23q44 3 66.5 19t30.5 60q19 109 74.5 163.5t165.5 54.5h14v-93h-98q-58 0 -89 -22t-31 -67q0 -44 33 -87h195l-31 -51h-163v-393q0 -20 6.5 -25.5t32.5 -6.5l54 -3v-23h-260v23z" />
    <glyph glyph-name="g" unicode="g" horiz-adv-x="589" 
d="M265 164q-38 0 -74 11l-77 -88l249 -24q100 -10 144.5 -36t44.5 -80q0 -42 -26.5 -79.5t-72.5 -66t-107.5 -45t-131.5 -16.5q-88 0 -140 32.5t-52 84.5q0 25 14 46.5t38.5 38.5t57 28t69.5 15q-20 5 -43.5 12.5t-45 16t-40 16.5t-29.5 14l124 140q-49 21 -78.5 62
t-29.5 94q0 38 16 70.5t43.5 56t65.5 37t83 13.5q38 0 72 -10t60 -28l30 56h170l-35 -64h-155q30 -23 47 -56.5t17 -72.5q0 -38 -16 -70.5t-43.5 -56.5t-65.5 -37.5t-83 -13.5zM283 189q42 0 70 31.5t28 93.5q0 36 -9 69t-26 57.5t-41 39t-53 14.5q-43 0 -71 -31.5
t-28 -93.5q0 -36 9 -69t26 -57.5t41 -39t54 -14.5zM247 -227q44 0 85 10t72.5 27t50.5 40t19 49q0 45 -53.5 63t-153.5 18q-45 0 -78 -9t-55 -24t-32.5 -34t-10.5 -39q0 -45 39.5 -73t116.5 -28z" />
    <glyph glyph-name="h" unicode="h" horiz-adv-x="610" 
d="M26 23l35 2q25 1 31.5 7t6.5 26v622l-73 41v6l167 64v-412q16 70 60 104t107 34q73 0 113.5 -45t40.5 -154v-260q0 -20 6.5 -26t32.5 -7l34 -2v-23h-240v23l35 2q25 1 31.5 7t6.5 26v242q0 45 -7 76t-20.5 49.5t-33.5 26.5t-46 8q-24 0 -46 -8.5t-38.5 -28t-26 -50
t-9.5 -73.5v-242q0 -20 6.5 -26t32.5 -7l34 -2v-23h-240v23z" />
    <glyph glyph-name="i" unicode="i" horiz-adv-x="309" 
d="M39 23l35 2q23 2 30.5 7.5t7.5 25.5v349l-73 41v6l167 64v-460q0 -20 7.5 -25.5t31.5 -7.5l34 -2v-23h-240v23zM95 722q0 25 19 44t45 19t45 -19t19 -44q0 -26 -19 -45.5t-45 -19.5t-45 19.5t-19 45.5z" />
    <glyph glyph-name="j" unicode="j" horiz-adv-x="279" 
d="M-31 -243q36 30 60.5 54.5t40 53t22.5 67.5t7 99v376l-73 41v6l167 64v-483q0 -45 -5.5 -77.5t-17 -57.5t-29.5 -44.5t-44 -38.5q-20 -15 -51.5 -36.5t-64.5 -41.5zM81 722q0 25 19 44t45 19t45 -19t19 -44q0 -26 -19 -45.5t-45 -19.5t-45 19.5t-19 45.5z" />
    <glyph glyph-name="k" unicode="k" horiz-adv-x="590" 
d="M26 23l35 2q25 1 31.5 7t6.5 26v622l-73 41v6l167 64v-522l212 173q16 14 13 24.5t-29 11.5l-36 1v23h209v-23l-33 -2q-13 -1 -22.5 -3t-18.5 -6t-18 -10t-19 -15l-170 -136l315 -307h-128l-275 260v-202q0 -20 6.5 -26t32.5 -7l34 -2v-23h-240v23z" />
    <glyph glyph-name="l" unicode="l" horiz-adv-x="300" 
d="M30 23l35 2q25 1 31.5 7t6.5 26v622l-73 41v6l167 64v-733q0 -20 6.5 -26t32.5 -7l34 -2v-23h-240v23z" />
    <glyph glyph-name="m" unicode="m" horiz-adv-x="940" 
d="M275 0h-240v23l35 2q25 1 31.5 7t6.5 26v349l-73 41v6l167 64v-139q16 70 60 104t107 34t101 -31t49 -106q18 70 64 103.5t106 33.5q74 0 114.5 -45t40.5 -154v-260q0 -20 6.5 -26t32.5 -7l34 -2v-23h-240v23l35 2q25 1 31.5 7t6.5 26v242q0 45 -7 76t-20.5 49.5
t-33.5 26.5t-46 8q-24 0 -46 -8.5t-38.5 -28t-26 -50t-9.5 -73.5v-242q0 -20 6.5 -26t32.5 -7l34 -2v-23h-240v23l35 2q25 1 31.5 7t6.5 26v242q0 45 -7 76t-20.5 49.5t-33.5 26.5t-46 8q-24 0 -46 -8.5t-38.5 -28t-26 -50t-9.5 -73.5v-242q0 -20 6.5 -26t32.5 -7l34 -2v-23
z" />
    <glyph glyph-name="n" unicode="n" horiz-adv-x="619" 
d="M35 23l35 2q25 1 31.5 7t6.5 26v349l-73 41v6l167 64v-139q16 70 60 104t107 34q73 0 113.5 -45t40.5 -154v-260q0 -20 6.5 -26t32.5 -7l34 -2v-23h-240v23l35 2q25 1 31.5 7t6.5 26v242q0 45 -7 76t-20.5 49.5t-33.5 26.5t-46 8q-24 0 -46 -8.5t-38.5 -28t-26 -50
t-9.5 -73.5v-242q0 -20 6.5 -26t32.5 -7l34 -2v-23h-240v23z" />
    <glyph glyph-name="o" unicode="o" horiz-adv-x="619" 
d="M308 -12q-54 0 -102 19.5t-84.5 54t-58 83t-21.5 105.5q0 61 23 110.5t60.5 84t86 53.5t99.5 19q54 0 102 -19.5t84.5 -54t58 -82.5t21.5 -105q0 -61 -22.5 -110.5t-60 -84.5t-86 -54t-100.5 -19zM310 17q31 0 59 13t50 41.5t35 73.5t13 108q0 64 -13 109t-35 73.5
t-50 41.5t-59 13q-32 0 -60.5 -13t-50.5 -41.5t-35 -73.5t-13 -109q0 -63 13 -108t35 -73.5t50.5 -41.5t60.5 -13z" />
    <glyph glyph-name="p" unicode="p" horiz-adv-x="614" 
d="M26 -225l35 2q25 1 31.5 7t6.5 26v597l-73 41v6l167 64v-74q24 33 64 53t88 20t89 -18.5t71 -53t47.5 -83.5t17.5 -110q0 -58 -18 -106.5t-50 -83.5t-75.5 -54.5t-94.5 -19.5q-44 0 -80 17.5t-59 47.5v-243q0 -20 6.5 -25.5t32.5 -6.5l60 -3v-23h-266v23zM299 472
q-27 0 -55 -9.5t-51 -35.5v-356q23 -26 50.5 -35t53.5 -9q37 0 68 16.5t53 46t34 71t12 91.5q0 47 -12 87.5t-34 70t-52 46t-67 16.5z" />
    <glyph glyph-name="q" unicode="q" horiz-adv-x="601" 
d="M269 -12q-48 0 -89 18.5t-71 53t-47.5 83.5t-17.5 110q0 58 18 106.5t50 83.5t75.5 54.5t94.5 19.5t89 -19.5t60 -48.5l77 67l7 -2v-704q0 -20 6.5 -26t31.5 -7l35 -2v-23h-266v23l60 3q25 1 32 6.5t7 25.5v251q-25 -32 -64.5 -52.5t-87.5 -20.5zM150 254q0 -48 12 -88
t34 -69.5t52.5 -46t67.5 -16.5q26 0 54.5 9.5t50.5 35.5v352q-22 26 -50 36.5t-54 10.5q-37 0 -68 -16t-53 -45.5t-34 -71t-12 -91.5z" />
    <glyph glyph-name="r" unicode="r" horiz-adv-x="416" 
d="M35 23l35 2q25 1 31.5 7t6.5 26v349l-73 41v6l167 64v-158q19 81 69 116t115 35h9v-95l-39 4q-44 3 -73.5 -4.5t-47.5 -23t-25.5 -38t-7.5 -49.5v-247q0 -20 6.5 -25.5t32.5 -6.5l54 -3v-23h-260v23z" />
    <glyph glyph-name="s" unicode="s" horiz-adv-x="472" 
d="M213 -12q-37 0 -70 4t-65 13l-21 177h20l75 -142q11 -20 28 -24t45 -4q19 0 40 6t38.5 17.5t29 29t11.5 40.5q0 22 -8 38t-21 27.5t-30.5 19t-35.5 12.5l-60 16q-56 15 -91.5 54.5t-35.5 98.5q0 36 16 63.5t43 45.5t62.5 27.5t74.5 9.5q62 0 119 -22l24 -157h-21l-80 131
q-9 15 -26.5 19t-38.5 4q-19 0 -37 -5.5t-32 -16t-22.5 -26t-8.5 -36.5q0 -41 22 -62t53 -29l61 -16q31 -8 59.5 -21t49.5 -31.5t33.5 -44.5t12.5 -60t-16 -62.5t-44.5 -49.5t-67.5 -32.5t-85 -11.5z" />
    <glyph glyph-name="t" unicode="t" horiz-adv-x="396" 
d="M205 119q0 -45 17.5 -61.5t50.5 -16.5q49 0 93 22l9 -18q-11 -9 -29 -18.5t-39 -17t-44.5 -12.5t-46.5 -5q-53 0 -79 21t-26 80v358h-108v6l196 153h6v-108h194l-32 -51h-162v-332z" />
    <glyph glyph-name="u" unicode="u" horiz-adv-x="611" 
d="M250 -12q-37 0 -65.5 10.5t-48 34.5t-30 62t-10.5 93v274l-72 18v22h166v-297q0 -90 26.5 -125t79.5 -35q25 0 46.5 8.5t38 28t26 50t9.5 74.5v256l-71 18v22h165v-458h77v-22l-171 -31v135q-16 -69 -60 -103.5t-106 -34.5z" />
    <glyph glyph-name="v" unicode="v" horiz-adv-x="567" 
d="M74 439q-9 20 -17.5 29t-31.5 10l-29 1v23h243v-23l-33 -1q-47 -2 -32 -36l142 -331l134 315q11 27 2.5 39t-31.5 13l-37 1v23h190v-23l-32 -1q-23 -1 -33.5 -10.5t-20.5 -31.5l-193 -447h-27z" />
    <glyph glyph-name="w" unicode="w" horiz-adv-x="872" 
d="M74 439q-9 20 -17.5 29t-31.5 10l-29 1v23h243v-23l-33 -1q-47 -2 -32 -36l143 -331l105 241l-63 150h201v-23l-41 -1q-46 -1 -32 -36l135 -330l132 314q12 27 3.5 39t-32.5 13l-36 1v23h190v-23l-32 -1q-23 -1 -33.5 -10.5t-20.5 -31.5l-193 -447h-27l-136 326
l-142 -326h-27z" />
    <glyph glyph-name="x" unicode="x" horiz-adv-x="615" 
d="M4 23l31 1q22 1 43.5 14t48.5 41l143 159l-157 202q-12 17 -24.5 27t-33.5 11l-29 1v23h251v-23l-32 -1q-24 -1 -29 -10.5t6 -24.5l107 -138l109 121q22 22 18 36.5t-27 15.5l-37 1v23h207v-23l-31 -1q-22 -1 -43 -14t-47 -39l-130 -144l170 -219q13 -17 25 -27t33 -11
l28 -1v-23h-250v23l32 1q24 1 29 10.5t-6 24.5l-121 155l-124 -138q-21 -22 -17 -36.5t27 -15.5l37 -1v-23h-207v23z" />
    <glyph glyph-name="y" unicode="y" horiz-adv-x="567" 
d="M141 -253q-22 0 -37 14t-15 36q0 12 5.5 25t19.5 25t37 21.5t58 15.5l53 116l-185 439q-9 20 -17.5 29t-31.5 10l-29 1v23h243v-23l-33 -1q-46 -1 -32 -36l137 -328l139 312q12 27 3.5 39t-32.5 13l-37 1v23h190v-23l-32 -1q-23 -1 -33.5 -10.5t-20.5 -31.5l-268 -593
q-11 -24 -19 -42t-17 -30t-20 -18t-26 -6z" />
    <glyph glyph-name="z" unicode="z" horiz-adv-x="528" 
d="M361 474h-158q-17 0 -27 -4t-18 -17l-98 -147h-18l47 196h396l-330 -474h164q17 0 26.5 4.5t20.5 18.5l115 149h19l-63 -200h-407z" />
    <glyph glyph-name="braceleft" unicode="{" horiz-adv-x="342" 
d="M313 -236q-44 6 -84 22.5t-69 45.5t-42.5 71.5t-2.5 100.5l19 102q8 43 2.5 73.5t-21 50.5t-40.5 31t-56 16v24q31 5 56 16t40.5 31.5t21 50.5t-2.5 73l-19 102q-11 58 2.5 100.5t42.5 71.5t69 46t84 23l4 -22q-75 -14 -106.5 -61.5t-14.5 -130.5l18 -88q11 -54 4 -93.5
t-27 -66.5t-50 -42t-65 -21v-2q35 -6 65 -21t50 -42t27 -66.5t-4 -93.5l-18 -88q-17 -83 14.5 -130t106.5 -61z" />
    <glyph glyph-name="bar" unicode="|" horiz-adv-x="274" 
d="M107 813h60v-1040h-60v1040z" />
    <glyph glyph-name="braceright" unicode="}" horiz-adv-x="342" 
d="M29 814q44 -6 84 -22.5t69 -45.5t42.5 -71.5t2.5 -100.5l-19 -102q-8 -43 -2.5 -73.5t21 -50.5t40.5 -31t56 -16v-24q-31 -5 -56 -16t-40.5 -31.5t-21 -50.5t2.5 -73l19 -102q11 -58 -2.5 -100.5t-42.5 -71.5t-69 -46t-84 -23l-4 22q75 14 106.5 61.5t14.5 130.5l-18 88
q-11 54 -4 93.5t27 66.5t50 42t65 21v2q-35 6 -65 21t-50 42t-27 66.5t4 93.5l18 88q17 83 -14.5 130t-106.5 61z" />
    <glyph glyph-name="asciitilde" unicode="~" horiz-adv-x="653" 
d="M206 327q39 0 70.5 -14.5t59 -31.5t54.5 -31.5t57 -14.5q16 0 32 3.5t29 13t22 26.5t12 44h44q-3 -33 -16 -57.5t-31.5 -40t-42 -23t-48.5 -7.5q-36 0 -65.5 14.5t-57 31.5t-56 31.5t-62.5 14.5q-17 0 -32.5 -3.5t-28.5 -13t-22 -26.5t-12 -44h-44q3 33 15.5 57.5
t31.5 40t42.5 23t48.5 7.5z" />
    <glyph glyph-name="uni00A0" unicode="&#xa0;" horiz-adv-x="240" 
 />
    <glyph glyph-name="exclamdown" unicode="&#xa1;" horiz-adv-x="273" 
d="M152 288q2 -70 6 -123.5t8.5 -96t9.5 -78t9 -70.5t6.5 -73t2.5 -85q0 -11 -18 -16.5t-39 -5.5t-39 5.5t-18 16.5q0 47 2.5 85t6.5 73t9 70.5t9.5 78t8.5 95.5t6 124h30zM133 518q29 0 48 -19.5t19 -47.5q0 -27 -19 -46.5t-48 -19.5q-27 0 -46 19.5t-19 46.5q0 28 19 47.5
t46 19.5z" />
    <glyph glyph-name="cent" unicode="&#xa2;" horiz-adv-x="570" 
d="M278 -11q-50 4 -92 24.5t-73 54.5t-48.5 81t-17.5 103q0 53 18 98.5t49 79.5t73 56t91 28v126h32v-123h8q33 0 65 -7.5t57.5 -21.5t41.5 -34t16 -45q0 -26 -18.5 -40t-46.5 -14q-5 0 -10.5 0.5t-11.5 1.5q-5 64 -32.5 95t-68.5 37v-438q15 -3 31 -3q25 0 50.5 6.5
t48 24.5t40.5 49t28 79h23q-8 -57 -27.5 -98t-48 -67t-65.5 -39.5t-80 -14.5v-118h-32v119zM149 307q-1 -42 7.5 -81t25 -71.5t41 -57t55.5 -37.5v431q-26 -2 -49 -14t-40.5 -35t-28 -56.5t-11.5 -78.5z" />
    <glyph glyph-name="sterling" unicode="&#xa3;" horiz-adv-x="622" 
d="M37 4l116 103q28 25 46.5 45.5t29.5 39t15.5 35.5t4.5 34q0 30 -16 65h-166v37h147l-16 25l-38 58q-26 40 -38 71.5t-12 61.5q0 75 96 140q45 30 88 43t90 13q76 0 118.5 -26.5t42.5 -64.5q0 -26 -22 -42t-57 -14q-14 54 -53 79t-84 25q-54 0 -89 -23
q-25 -16 -38.5 -34.5t-13.5 -41.5t13.5 -51.5t42.5 -73.5l36 -56q14 -22 26.5 -44t18.5 -45h190v-37h-186q0 -21 -4.5 -41.5t-17.5 -44.5t-37.5 -52t-64.5 -63l-52 -45h427l-20 -80h-523v4z" />
    <glyph glyph-name="yen" unicode="&#xa5;" horiz-adv-x="836" 
d="M159 225h212v76h-212v37h212v4l-248 358q-6 9 -10.5 15t-10 9.5t-12.5 5.5t-18 3l-44 3v22h286v-22l-50 -3q-23 -2 -34 -9t1 -24l219 -318l221 318q12 17 1 24t-34 9l-50 3v22h220v-22l-44 -3q-11 -1 -18.5 -3t-12.5 -5.5t-9.5 -9.5t-10.5 -15l-248 -358v-4h212v-37h-212
v-76h212v-37h-212v-128q0 -19 11 -27t33 -9l45 -1v-23h-272v23l45 1q22 1 33 9t11 27v128h-212v37z" />
    <glyph glyph-name="brokenbar" unicode="&#xa6;" horiz-adv-x="274" 
d="M107 813h60v-410h-60v410zM107 183h60v-410h-60v410z" />
    <glyph glyph-name="section" unicode="&#xa7;" horiz-adv-x="635" 
d="M196 251q-37 37 -64 69.5t-44 63.5t-25.5 63t-8.5 69q0 51 22.5 98t63.5 82.5t98 57t126 21.5q49 0 88 -11.5t66.5 -30t42 -41t14.5 -44.5q0 -32 -25.5 -49.5t-70.5 -7.5q-8 71 -44 111.5t-105 40.5q-61 0 -90.5 -30t-29.5 -69q0 -47 34.5 -99t107.5 -125l74 -74
q37 -37 68 -71.5t53 -68.5t34 -69.5t12 -74.5q0 -53 -24.5 -100t-65.5 -82t-96.5 -55.5t-116.5 -20.5q-54 0 -99 13.5t-78 34.5t-51 47t-18 52q0 15 8 27.5t21.5 20.5t32 10.5t38.5 -1.5q6 -38 18 -70t31 -55.5t46 -37t64 -13.5q63 0 93 30.5t30 75.5q0 28 -10.5 55.5
t-31 56t-49.5 60t-65 67.5zM413 -146q63 31 96.5 79t33.5 105q0 67 -40 130t-114 137l-78 78q-39 39 -66.5 72t-44 61t-24 53.5t-7.5 49.5t11 52t40 51q-61 -31 -91 -77t-30 -105q0 -31 8 -60.5t24.5 -59.5t42.5 -62.5t62 -68.5l77 -77q79 -79 117 -136.5t38 -112.5
q0 -29 -14.5 -59.5t-40.5 -49.5z" />
    <glyph glyph-name="dieresis" unicode="&#xa8;" 
d="M116 642q-26 0 -45 19.5t-19 45.5q0 25 19 44t45 19t45 -19t19 -44q0 -26 -19 -45.5t-45 -19.5zM-116 642q-26 0 -45 19.5t-19 45.5q0 25 19 44t45 19t45 -19t19 -44q0 -26 -19 -45.5t-45 -19.5z" />
    <glyph glyph-name="copyright" unicode="&#xa9;" horiz-adv-x="880" 
d="M440 -12q-84 0 -156 29.5t-124.5 82t-82 124.5t-29.5 157t29.5 157.5t82 125t124.5 82t156 29.5t155.5 -29.5t124 -82t82.5 -125t30 -157.5t-30 -157t-82.5 -124.5t-124 -82t-155.5 -29.5zM440 21q72 0 136 25t112 72t76 113.5t28 149.5t-28 150t-76 114t-112 72t-136 25
t-136 -25t-112 -72t-76 -114t-28 -150t28 -149.5t76 -113.5t112 -72t136 -25zM454 163q-53 0 -98 16t-78 45t-51.5 70.5t-18.5 92.5t18.5 92.5t52 70.5t79 45t99.5 16q36 0 72 -6.5t62 -18.5l25 -132h-6l-66 99q-8 12 -14.5 17t-12.5 8q-9 5 -26 8.5t-37 3.5
q-32 0 -62.5 -10.5t-54.5 -33t-39 -58.5t-15 -87q0 -45 11.5 -84.5t34 -69t55.5 -46t76 -16.5q20 0 37 3.5t27 8.5q6 3 12.5 7.5t14.5 17.5l67 99h6l-30 -133q-26 -12 -64.5 -18.5t-75.5 -6.5z" />
    <glyph glyph-name="ordfeminine" unicode="&#xaa;" horiz-adv-x="482" 
d="M181 354q-29 0 -52 9.5t-40 25t-26 36t-9 42.5q0 28 14 47.5t35.5 32.5t47 22t49.5 17q36 13 57 23t31 20.5t12.5 22.5t2.5 29q0 34 -17.5 56.5t-57.5 22.5q-50 0 -73.5 -35.5t-11.5 -93.5q-10 -3 -18.5 -4t-16.5 -1q-24 0 -36 10t-12 23q0 24 22 47t55 40q29 15 60 26
t65 11q61 0 91 -29t29 -103l-2 -249h58v-19l-128 -25l-6 88q-16 -51 -49 -71.5t-74 -20.5zM215 390q15 0 30.5 6t28 19.5t20.5 35t8 52.5l1 118q-15 -12 -30.5 -19t-37.5 -17q-42 -20 -67.5 -44t-25.5 -64q0 -16 5 -31.5t14 -28t22.5 -20t31.5 -7.5z" />
    <glyph glyph-name="guillemotleft" unicode="&#xab;" horiz-adv-x="543" 
d="M283 37l-10 -9l-229 226l229 225l10 -8l-152 -218zM489 37l-10 -9l-229 226l229 225l10 -8l-152 -218z" />
    <glyph glyph-name="uni00AD" unicode="&#xad;" horiz-adv-x="430" 
d="M68 288h294v-53h-294v53z" />
    <glyph glyph-name="registered" unicode="&#xae;" horiz-adv-x="880" 
d="M440 -12q-84 0 -156 29.5t-124.5 82t-82 124.5t-29.5 157t29.5 157.5t82 125t124.5 82t156 29.5t155.5 -29.5t124 -82t82.5 -125t30 -157.5t-30 -157t-82.5 -124.5t-124 -82t-155.5 -29.5zM440 21q72 0 136 25t112 72t76 113.5t28 149.5t-28 150t-76 114t-112 72t-136 25
t-136 -25t-112 -72t-76 -114t-28 -150t28 -149.5t76 -113.5t112 -72t136 -25zM245 196l23 2q14 2 21 5.5t7 17.5v346q0 14 -7 18t-21 6l-23 2v16h168q40 0 73 -5t57 -17t37.5 -32t13.5 -50q0 -42 -30 -69.5t-87 -37.5l191 -219h-83l-180 211h-42v-169q0 -14 7 -17.5t21 -5.5
l23 -2v-17h-169v17zM409 411q53 0 81.5 21.5t28.5 67.5t-28.5 67t-81.5 21h-46v-177h46z" />
    <glyph glyph-name="macron" unicode="&#xaf;" 
d="M-149 713h298v-45h-298v45z" />
    <glyph glyph-name="degree" unicode="&#xb0;" horiz-adv-x="432" 
d="M216 437q-36 0 -67 13t-54 36t-36 54t-13 66t13 66t36 54t54 36t67 13t67 -13t54 -36t36 -54t13 -66t-13 -66t-36 -54t-54 -36t-67 -13zM216 475q25 0 48 9t40.5 26.5t27.5 41.5t10 54t-10 54t-27.5 41t-40.5 26.5t-48 9.5q-26 0 -48.5 -9.5t-40 -26.5t-27.5 -41t-10 -54
t10 -54t27.5 -41.5t40 -26.5t48.5 -9z" />
    <glyph glyph-name="plusminus" unicode="&#xb1;" horiz-adv-x="653" 
d="M301 291h-227v50h227v183h52v-183h226v-50h-226v-187h-52v187zM74 50h505v-50h-505v50z" />
    <glyph glyph-name="uni00B2" unicode="&#xb2;" horiz-adv-x="343" 
d="M14 403q53 54 93 98.5t66.5 82.5t39.5 71.5t13 63.5q0 34 -18.5 54.5t-54.5 20.5q-35 0 -61 -23.5t-29 -74.5h-17q2 66 40 100t93 34q30 0 51.5 -8.5t36 -22t21.5 -31.5t7 -37q0 -27 -13 -54t-35.5 -55t-53.5 -58.5t-67 -63.5l-46 -42h144q29 0 40.5 3.5t18.5 20.5l14 33
h16l-30 -114h-269v2z" />
    <glyph glyph-name="uni00B3" unicode="&#xb3;" horiz-adv-x="345" 
d="M133 392q-24 0 -43.5 6t-33.5 16t-22 23t-8 26q0 16 13.5 28.5t37.5 7.5q8 -37 27.5 -60t55.5 -23q16 0 32 5.5t28.5 17t20.5 29.5t8 43q0 26 -8.5 46t-22.5 34t-31.5 21t-34.5 7q-25 0 -43 -10l-7 18l15 6q47 19 75.5 46t28.5 59q0 27 -18 41.5t-47 14.5q-14 0 -28.5 -4
t-26.5 -13t-20.5 -24.5t-11.5 -37.5h-16q5 56 38.5 85.5t92.5 29.5q42 0 71 -20t29 -52q0 -30 -23 -51t-65 -32v-2q50 -11 81.5 -45.5t31.5 -79.5q0 -35 -15.5 -64t-40.5 -49.5t-56.5 -31.5t-63.5 -11z" />
    <glyph glyph-name="acute" unicode="&#xb4;" 
d="M7 776h105v-7l-194 -172h-20z" />
    <glyph glyph-name="paragraph" unicode="&#xb6;" horiz-adv-x="583" 
d="M291 287q-5 -1 -10 -1h-10q-56 0 -100 16t-75 45.5t-47 70t-16 90.5q0 53 21.5 98.5t63.5 79.5t104 53t142 19h172v-26l-44 -2q-23 -1 -34.5 -8t-11.5 -28v-780l-65 -51v442q-29 -9 -57 -15v-471l-33 -26v494z" />
    <glyph glyph-name="periodcentered" unicode="&#xb7;" horiz-adv-x="270" 
d="M134 195q-27 0 -46 19.5t-19 47.5q0 27 19 46.5t46 19.5q29 0 48 -19.5t19 -46.5q0 -28 -19 -47.5t-48 -19.5z" />
    <glyph glyph-name="cedilla" unicode="&#xb8;" 
d="M-19 -257q-17 0 -33 4t-29 11.5t-20.5 17.5t-7.5 23q0 12 10.5 20.5t27.5 5.5q1 -29 19 -44.5t47 -15.5q21 0 38 9t17 28q0 24 -34 44.5t-82 41.5l111 115h30l-81 -84q46 -23 69.5 -43t23.5 -52t-28.5 -56.5t-77.5 -24.5z" />
    <glyph glyph-name="uni00B9" unicode="&#xb9;" horiz-adv-x="244" 
d="M101 775l-77 -31v23l142 59v-383q0 -22 23 -23l29 -2v-17h-170v18l30 2q14 1 18.5 5.5t4.5 16.5v332z" />
    <glyph glyph-name="ordmasculine" unicode="&#xba;" horiz-adv-x="512" 
d="M255 354q-44 0 -82.5 16t-67 44t-45 67t-16.5 85q0 49 17.5 89t47 68t68 43.5t80.5 15.5q44 0 82.5 -16t67 -44t45 -66.5t16.5 -84.5q0 -49 -17.5 -89t-47 -68.5t-68 -44t-80.5 -15.5zM256 380q24 0 45.5 10.5t38 33t26 58.5t9.5 87t-9.5 87t-26 58.5t-38 33t-45.5 10.5
q-25 0 -46.5 -10.5t-38 -33t-26 -58.5t-9.5 -87t9.5 -87t26 -58.5t38 -33t46.5 -10.5z" />
    <glyph glyph-name="guillemotright" unicode="&#xbb;" horiz-adv-x="543" 
d="M206 253l-152 218l10 8l229 -225l-229 -226l-10 9zM412 253l-152 218l10 8l229 -225l-229 -226l-10 9z" />
    <glyph glyph-name="onequarter" unicode="&#xbc;" horiz-adv-x="789" 
d="M101 715l-77 -31v23l142 59v-383q0 -22 23 -23l29 -2v-17h-170v18l30 2q14 1 18.5 5.5t4.5 16.5v332zM588 758h61l-566 -758h-61zM625 108h-216l223 309h58v-262h76v-47h-76v-108h-65v108zM625 155v213l-157 -213h157z" />
    <glyph glyph-name="onehalf" unicode="&#xbd;" horiz-adv-x="767" 
d="M101 715l-77 -31v23l142 59v-383q0 -22 23 -23l29 -2v-17h-170v18l30 2q14 1 18.5 5.5t4.5 16.5v332zM588 758h61l-566 -758h-61zM438 2q53 54 93 98.5t66.5 82.5t39.5 71.5t13 63.5q0 34 -18.5 54.5t-54.5 20.5q-35 0 -61 -23.5t-29 -74.5h-17q2 66 40 100t93 34
q30 0 51.5 -8.5t36 -22t21.5 -31.5t7 -37q0 -27 -13 -54t-35.5 -55t-53.5 -58.5t-67 -63.5l-46 -42h144q29 0 40.5 3.5t18.5 20.5l14 33h16l-30 -114h-269v2z" />
    <glyph glyph-name="threequarters" unicode="&#xbe;" horiz-adv-x="890" 
d="M133 332q-24 0 -43.5 6t-33.5 16t-22 23t-8 26q0 16 13.5 28.5t37.5 7.5q8 -37 27.5 -60t55.5 -23q16 0 32 5.5t28.5 17t20.5 29.5t8 43q0 26 -8.5 46t-22.5 34t-31.5 21t-34.5 7q-25 0 -43 -10l-7 18l15 6q47 19 75.5 46t28.5 59q0 27 -18 41.5t-47 14.5q-14 0 -28.5 -4
t-26.5 -13t-20.5 -24.5t-11.5 -37.5h-16q5 56 38.5 85.5t92.5 29.5q42 0 71 -20t29 -52q0 -30 -23 -51t-65 -32v-2q50 -11 81.5 -45.5t31.5 -79.5q0 -35 -15.5 -64t-40.5 -49.5t-56.5 -31.5t-63.5 -11zM689 758h61l-566 -758h-61zM726 108h-216l223 309h58v-262h76v-47h-76
v-108h-65v108zM726 155v213l-157 -213h157z" />
    <glyph glyph-name="questiondown" unicode="&#xbf;" horiz-adv-x="559" 
d="M287 -228q64 0 107 30t48 97q15 0 30.5 -2.5t28 -9t20.5 -17t8 -25.5q0 -18 -15 -36.5t-42.5 -33.5t-66.5 -25t-86 -10q-66 0 -118.5 18t-89 49.5t-56.5 75t-20 94.5q0 73 47 115t133 55l94 14q12 2 19 4t11.5 6t6.5 11t2 20l2 91h23l16 -148q3 -26 -0.5 -41t-12.5 -24
t-25 -13t-38 -7l-102 -15q-67 -10 -96 -36.5t-29 -75.5q0 -33 16 -62t43 -51t63.5 -35t78.5 -13zM359 518q27 0 46 -19.5t19 -47.5q0 -27 -19 -46.5t-46 -19.5q-29 0 -48 19.5t-19 46.5q0 28 19 47.5t48 19.5z" />
    <glyph glyph-name="Agrave" unicode="&#xc0;" horiz-adv-x="764" 
d="M684 61q8 -19 18.5 -25.5t33.5 -8.5l44 -3v-24h-289v24l50 3q24 2 32.5 8.5t0.5 25.5l-86 218h-283l-86 -218q-8 -19 0.5 -25.5t32.5 -8.5l50 -3v-24h-218v24l44 3q22 2 32.5 8.5t18.5 25.5l295 733h16zM473 319l-126 320l-126 -320h252zM408 839l-223 131v2h127
l116 -133h-20z" />
    <glyph glyph-name="Aacute" unicode="&#xc1;" horiz-adv-x="764" 
d="M684 61q8 -19 18.5 -25.5t33.5 -8.5l44 -3v-24h-289v24l50 3q24 2 32.5 8.5t0.5 25.5l-86 218h-283l-86 -218q-8 -19 0.5 -25.5t32.5 -8.5l50 -3v-24h-218v24l44 3q22 2 32.5 8.5t18.5 25.5l295 733h16zM473 319l-126 320l-126 -320h252zM470 972h127v-2l-223 -131h-20z
" />
    <glyph glyph-name="Acircumflex" unicode="&#xc2;" horiz-adv-x="764" 
d="M684 61q8 -19 18.5 -25.5t33.5 -8.5l44 -3v-24h-289v24l50 3q24 2 32.5 8.5t0.5 25.5l-86 218h-283l-86 -218q-8 -19 0.5 -25.5t32.5 -8.5l50 -3v-24h-218v24l44 3q22 2 32.5 8.5t18.5 25.5l295 733h16zM473 319l-126 320l-126 -320h252zM376 984h12l157 -151h-19
l-144 72l-144 -72h-19z" />
    <glyph glyph-name="Atilde" unicode="&#xc3;" horiz-adv-x="764" 
d="M684 61q8 -19 18.5 -25.5t33.5 -8.5l44 -3v-24h-289v24l50 3q24 2 32.5 8.5t0.5 25.5l-86 218h-283l-86 -218q-8 -19 0.5 -25.5t32.5 -8.5l50 -3v-24h-218v24l44 3q22 2 32.5 8.5t18.5 25.5l295 733h16zM473 319l-126 320l-126 -320h252zM460 832q-26 0 -47 10.5
t-39.5 23.5t-36.5 23.5t-39 10.5q-25 0 -39.5 -15.5t-16.5 -46.5h-17q0 25 5 49t15.5 42.5t26.5 29.5t37 11q23 0 43 -10.5t39 -23.5t37.5 -23.5t39.5 -10.5q23 0 37.5 14.5t16.5 43.5h17q-1 -66 -25 -97t-54 -31z" />
    <glyph glyph-name="Adieresis" unicode="&#xc4;" horiz-adv-x="764" 
d="M684 61q8 -19 18.5 -25.5t33.5 -8.5l44 -3v-24h-289v24l50 3q24 2 32.5 8.5t0.5 25.5l-86 218h-283l-86 -218q-8 -19 0.5 -25.5t32.5 -8.5l50 -3v-24h-218v24l44 3q22 2 32.5 8.5t18.5 25.5l295 733h16zM473 319l-126 320l-126 -320h252zM266 854q-26 0 -45 19t-19 45
q0 25 19 44.5t45 19.5t45 -19.5t19 -44.5q0 -26 -19 -45t-45 -19zM498 854q-26 0 -45 19t-19 45q0 25 19 44.5t45 19.5t45 -19.5t19 -44.5q0 -26 -19 -45t-45 -19z" />
    <glyph glyph-name="Aring" unicode="&#xc5;" horiz-adv-x="764" 
d="M684 61q8 -19 18.5 -25.5t33.5 -8.5l44 -3v-24h-289v24l50 3q24 2 32.5 8.5t0.5 25.5l-86 218h-283l-86 -218q-8 -19 0.5 -25.5t32.5 -8.5l50 -3v-24h-218v24l44 3q22 2 32.5 8.5t18.5 25.5l295 733h16zM473 319l-126 320l-126 -320h252zM382 835q-24 0 -44.5 8.5
t-36.5 23.5t-25 35.5t-9 44.5q0 23 9 43.5t25 35.5t36.5 24t44.5 9t45.5 -9t37.5 -24t25 -35.5t9 -43.5q0 -24 -9 -44.5t-25 -35.5t-37.5 -23.5t-45.5 -8.5zM382 871q34 0 55 21t21 55q0 33 -21 53.5t-55 20.5q-33 0 -54 -20.5t-21 -53.5q0 -34 21 -55t54 -21z" />
    <glyph glyph-name="AE" unicode="&#xc6;" horiz-adv-x="1180" 
d="M485 24l45 3q22 2 33.5 8.5t11.5 27.5v216h-292l-152 -218q-12 -17 -10.5 -24.5t24.5 -9.5l50 -3v-24h-220v24l43 3q50 3 71 34l486 697h467l34 -222h-10l-111 174q-7 11 -11.5 13.5t-16.5 2.5h-250v-313h150q12 0 15 3t6 10l48 118h10v-297h-10l-48 117q-3 8 -6 10.5
t-15 2.5h-150v-345h298q12 0 16.5 2.5t11.5 11.5l145 178h10l-68 -224h-605v24zM575 319v379l-264 -379h264z" />
    <glyph glyph-name="Ccedilla" unicode="&#xc7;" horiz-adv-x="819" 
d="M479 -12q-94 0 -173 27.5t-136.5 78.5t-89.5 123.5t-32 163.5t32.5 164t90 124t137.5 78.5t176 27.5q31 0 64 -2.5t64.5 -8t60 -14t51.5 -20.5l42 -217h-18l-113 182q-11 17 -20 24.5t-27 12.5q-23 7 -49 9t-59 2q-61 0 -118 -19t-101.5 -60t-71 -106t-26.5 -157
q0 -83 22 -153t63.5 -120.5t102 -79t137.5 -28.5q33 0 59 2t49 9q18 5 27 12.5t20 24.5l113 182h18l-42 -217q-23 -12 -53.5 -20.5t-64 -14t-69 -8t-66.5 -2.5zM411 -260q-17 0 -33.5 4t-29 11.5t-20 17.5t-7.5 23q0 12 10.5 19.5t27.5 4.5q1 -29 21 -43.5t45 -14.5
q23 0 38.5 11t15.5 29q0 22 -33.5 42t-81.5 41l111 115h33l-82 -84q45 -23 68 -43t23 -52t-28.5 -56.5t-77.5 -24.5z" />
    <glyph glyph-name="Egrave" unicode="&#xc8;" horiz-adv-x="750" 
d="M55 24l45 3q22 2 33.5 8.5t11.5 27.5v632q0 21 -11.5 27.5t-33.5 8.5l-45 3v24h557l33 -222h-18l-102 174q-6 11 -11 13.5t-18 2.5h-250v-313h150q13 0 16.5 2.5t5.5 10.5l40 118h18v-297h-18l-40 117q-3 8 -6 10.5t-16 2.5h-150v-345h299q12 0 16.5 2.5t11.5 11.5
l137 178h18l-68 -224h-605v24zM411 839l-223 131v2h127l116 -133h-20z" />
    <glyph glyph-name="Eacute" unicode="&#xc9;" horiz-adv-x="750" 
d="M55 24l45 3q22 2 33.5 8.5t11.5 27.5v632q0 21 -11.5 27.5t-33.5 8.5l-45 3v24h557l33 -222h-18l-102 174q-6 11 -11 13.5t-18 2.5h-250v-313h150q13 0 16.5 2.5t5.5 10.5l40 118h18v-297h-18l-40 117q-3 8 -6 10.5t-16 2.5h-150v-345h299q12 0 16.5 2.5t11.5 11.5
l137 178h18l-68 -224h-605v24zM473 972h127v-2l-223 -131h-20z" />
    <glyph glyph-name="Ecircumflex" unicode="&#xca;" horiz-adv-x="750" 
d="M55 24l45 3q22 2 33.5 8.5t11.5 27.5v632q0 21 -11.5 27.5t-33.5 8.5l-45 3v24h557l33 -222h-18l-102 174q-6 11 -11 13.5t-18 2.5h-250v-313h150q13 0 16.5 2.5t5.5 10.5l40 118h18v-297h-18l-40 117q-3 8 -6 10.5t-16 2.5h-150v-345h299q12 0 16.5 2.5t11.5 11.5
l137 178h18l-68 -224h-605v24zM379 984h12l157 -151h-19l-144 72l-144 -72h-19z" />
    <glyph glyph-name="Edieresis" unicode="&#xcb;" horiz-adv-x="750" 
d="M55 24l45 3q22 2 33.5 8.5t11.5 27.5v632q0 21 -11.5 27.5t-33.5 8.5l-45 3v24h557l33 -222h-18l-102 174q-6 11 -11 13.5t-18 2.5h-250v-313h150q13 0 16.5 2.5t5.5 10.5l40 118h18v-297h-18l-40 117q-3 8 -6 10.5t-16 2.5h-150v-345h299q12 0 16.5 2.5t11.5 11.5
l137 178h18l-68 -224h-605v24zM269 854q-26 0 -45 19t-19 45q0 25 19 44.5t45 19.5t45 -19.5t19 -44.5q0 -26 -19 -45t-45 -19zM501 854q-26 0 -45 19t-19 45q0 25 19 44.5t45 19.5t45 -19.5t19 -44.5q0 -26 -19 -45t-45 -19z" />
    <glyph glyph-name="Igrave" unicode="&#xcc;" horiz-adv-x="391" 
d="M55 24l45 3q22 2 33.5 8.5t11.5 27.5v632q0 21 -11.5 27.5t-33.5 8.5l-45 3v24h282v-24l-45 -3q-23 -2 -34.5 -8.5t-11.5 -27.5v-632q0 -21 11.5 -27.5t34.5 -8.5l45 -3v-24h-282v24zM222 839l-223 131v2h127l116 -133h-20z" />
    <glyph glyph-name="Iacute" unicode="&#xcd;" horiz-adv-x="391" 
d="M55 24l45 3q22 2 33.5 8.5t11.5 27.5v632q0 21 -11.5 27.5t-33.5 8.5l-45 3v24h282v-24l-45 -3q-23 -2 -34.5 -8.5t-11.5 -27.5v-632q0 -21 11.5 -27.5t34.5 -8.5l45 -3v-24h-282v24zM284 972h127v-2l-223 -131h-20z" />
    <glyph glyph-name="Icircumflex" unicode="&#xce;" horiz-adv-x="391" 
d="M55 24l45 3q22 2 33.5 8.5t11.5 27.5v632q0 21 -11.5 27.5t-33.5 8.5l-45 3v24h282v-24l-45 -3q-23 -2 -34.5 -8.5t-11.5 -27.5v-632q0 -21 11.5 -27.5t34.5 -8.5l45 -3v-24h-282v24zM190 984h12l157 -151h-19l-144 72l-144 -72h-19z" />
    <glyph glyph-name="Idieresis" unicode="&#xcf;" horiz-adv-x="391" 
d="M55 24l45 3q22 2 33.5 8.5t11.5 27.5v632q0 21 -11.5 27.5t-33.5 8.5l-45 3v24h282v-24l-45 -3q-23 -2 -34.5 -8.5t-11.5 -27.5v-632q0 -21 11.5 -27.5t34.5 -8.5l45 -3v-24h-282v24zM80 854q-26 0 -45 19t-19 45q0 25 19 44.5t45 19.5t45 -19.5t19 -44.5q0 -26 -19 -45
t-45 -19zM312 854q-26 0 -45 19t-19 45q0 25 19 44.5t45 19.5t45 -19.5t19 -44.5q0 -26 -19 -45t-45 -19z" />
    <glyph glyph-name="Eth" unicode="&#xd0;" horiz-adv-x="857" 
d="M65 24l45 3q22 2 33.5 8.5t11.5 27.5v632q0 21 -11.5 27.5t-33.5 8.5l-45 3v24h278q96 0 181 -21.5t148 -67t99.5 -116.5t36.5 -169t-36.5 -170.5t-99 -120t-146.5 -70.5t-178 -23h-283v24zM343 31q76 0 140 18t110.5 57.5t72.5 103t26 153.5q0 97 -24 166t-70 113
t-111.5 64.5t-147.5 20.5h-83v-696h87zM65 418h377v-40h-377v40z" />
    <glyph glyph-name="Ntilde" unicode="&#xd1;" horiz-adv-x="883" 
d="M58 24l45 3q23 2 34 8.5t11 27.5v590l-91 103v2h132l520 -582v519q0 21 -11.5 27.5t-34.5 8.5l-45 3v24h220v-24l-45 -3q-23 -2 -34 -8.5t-11 -27.5v-714h-4l-557 628v-546q0 -21 11.5 -27.5t34.5 -8.5l44 -3v-24h-219v24zM531 832q-26 0 -47 10.5t-39.5 23.5t-36.5 23.5
t-39 10.5q-25 0 -39.5 -15.5t-16.5 -46.5h-17q0 25 5 49t15.5 42.5t26.5 29.5t37 11q23 0 43 -10.5t39 -23.5t37.5 -23.5t39.5 -10.5q23 0 37.5 14.5t16.5 43.5h17q-1 -66 -25 -97t-54 -31z" />
    <glyph glyph-name="Ograve" unicode="&#xd2;" horiz-adv-x="894" 
d="M447 -12q-83 0 -155.5 28t-126.5 80t-85.5 124t-31.5 161t31.5 161.5t85.5 124.5t126.5 80t155.5 28q82 0 155 -28t127 -80t85.5 -124.5t31.5 -161.5t-31.5 -161t-85.5 -124t-127 -80t-155 -28zM447 21q61 0 112.5 24t89.5 70t59.5 113t21.5 153q0 87 -21.5 154
t-59.5 113t-89.5 70t-112.5 24t-113 -24t-90 -70t-59.5 -113t-21.5 -154q0 -86 21.5 -153t59.5 -113t90 -70t113 -24zM473 839l-223 131v2h127l116 -133h-20z" />
    <glyph glyph-name="Oacute" unicode="&#xd3;" horiz-adv-x="894" 
d="M447 -12q-83 0 -155.5 28t-126.5 80t-85.5 124t-31.5 161t31.5 161.5t85.5 124.5t126.5 80t155.5 28q82 0 155 -28t127 -80t85.5 -124.5t31.5 -161.5t-31.5 -161t-85.5 -124t-127 -80t-155 -28zM447 21q61 0 112.5 24t89.5 70t59.5 113t21.5 153q0 87 -21.5 154
t-59.5 113t-89.5 70t-112.5 24t-113 -24t-90 -70t-59.5 -113t-21.5 -154q0 -86 21.5 -153t59.5 -113t90 -70t113 -24zM535 972h127v-2l-223 -131h-20z" />
    <glyph glyph-name="Ocircumflex" unicode="&#xd4;" horiz-adv-x="894" 
d="M447 -12q-83 0 -155.5 28t-126.5 80t-85.5 124t-31.5 161t31.5 161.5t85.5 124.5t126.5 80t155.5 28q82 0 155 -28t127 -80t85.5 -124.5t31.5 -161.5t-31.5 -161t-85.5 -124t-127 -80t-155 -28zM447 21q61 0 112.5 24t89.5 70t59.5 113t21.5 153q0 87 -21.5 154
t-59.5 113t-89.5 70t-112.5 24t-113 -24t-90 -70t-59.5 -113t-21.5 -154q0 -86 21.5 -153t59.5 -113t90 -70t113 -24zM441 984h12l157 -151h-19l-144 72l-144 -72h-19z" />
    <glyph glyph-name="Otilde" unicode="&#xd5;" horiz-adv-x="894" 
d="M447 -12q-83 0 -155.5 28t-126.5 80t-85.5 124t-31.5 161t31.5 161.5t85.5 124.5t126.5 80t155.5 28q82 0 155 -28t127 -80t85.5 -124.5t31.5 -161.5t-31.5 -161t-85.5 -124t-127 -80t-155 -28zM447 21q61 0 112.5 24t89.5 70t59.5 113t21.5 153q0 87 -21.5 154
t-59.5 113t-89.5 70t-112.5 24t-113 -24t-90 -70t-59.5 -113t-21.5 -154q0 -86 21.5 -153t59.5 -113t90 -70t113 -24zM525 832q-26 0 -47 10.5t-39.5 23.5t-36.5 23.5t-39 10.5q-25 0 -39.5 -15.5t-16.5 -46.5h-17q0 25 5 49t15.5 42.5t26.5 29.5t37 11q23 0 43 -10.5
t39 -23.5t37.5 -23.5t39.5 -10.5q23 0 37.5 14.5t16.5 43.5h17q-1 -66 -25 -97t-54 -31z" />
    <glyph glyph-name="Odieresis" unicode="&#xd6;" horiz-adv-x="894" 
d="M447 -12q-83 0 -155.5 28t-126.5 80t-85.5 124t-31.5 161t31.5 161.5t85.5 124.5t126.5 80t155.5 28q82 0 155 -28t127 -80t85.5 -124.5t31.5 -161.5t-31.5 -161t-85.5 -124t-127 -80t-155 -28zM447 21q61 0 112.5 24t89.5 70t59.5 113t21.5 153q0 87 -21.5 154
t-59.5 113t-89.5 70t-112.5 24t-113 -24t-90 -70t-59.5 -113t-21.5 -154q0 -86 21.5 -153t59.5 -113t90 -70t113 -24zM331 854q-26 0 -45 19t-19 45q0 25 19 44.5t45 19.5t45 -19.5t19 -44.5q0 -26 -19 -45t-45 -19zM563 854q-26 0 -45 19t-19 45q0 25 19 44.5t45 19.5
t45 -19.5t19 -44.5q0 -26 -19 -45t-45 -19z" />
    <glyph glyph-name="multiply" unicode="&#xd7;" horiz-adv-x="653" 
d="M98 67l193 193l-193 194l36 35l193 -193l193 193l35 -35l-193 -193l193 -194l-35 -36l-193 194l-193 -193z" />
    <glyph glyph-name="Oslash" unicode="&#xd8;" horiz-adv-x="894" 
d="M447 -12q-83 0 -155.5 28t-126.5 80t-85.5 124t-31.5 161t31.5 161.5t85.5 124.5t126.5 80t155.5 28q82 0 155 -28t127 -80t85.5 -124.5t31.5 -161.5t-31.5 -161t-85.5 -124t-127 -80t-155 -28zM447 21q61 0 112.5 24t89.5 70t59.5 113t21.5 153q0 87 -21.5 154
t-59.5 113t-89.5 70t-112.5 24t-113 -24t-90 -70t-59.5 -113t-21.5 -154q0 -86 21.5 -153t59.5 -113t90 -70t113 -24zM48 -41l767 873l31 -27l-767 -873z" />
    <glyph glyph-name="Ugrave" unicode="&#xd9;" horiz-adv-x="861" 
d="M434 -12q-150 0 -230.5 75t-80.5 233v399q0 21 -11.5 27.5t-33.5 8.5l-45 3v24h282v-24l-45 -3q-22 -2 -33.5 -8.5t-11.5 -27.5v-401q0 -133 57 -195.5t178 -62.5q123 0 181.5 67.5t58.5 199.5v392q0 21 -11 27.5t-34 8.5l-45 3v24h219v-24l-44 -3q-23 -2 -34.5 -8.5
t-11.5 -27.5v-398q0 -152 -77.5 -230.5t-227.5 -78.5zM489 839l-223 131v2h127l116 -133h-20z" />
    <glyph glyph-name="Uacute" unicode="&#xda;" horiz-adv-x="861" 
d="M434 -12q-150 0 -230.5 75t-80.5 233v399q0 21 -11.5 27.5t-33.5 8.5l-45 3v24h282v-24l-45 -3q-22 -2 -33.5 -8.5t-11.5 -27.5v-401q0 -133 57 -195.5t178 -62.5q123 0 181.5 67.5t58.5 199.5v392q0 21 -11 27.5t-34 8.5l-45 3v24h219v-24l-44 -3q-23 -2 -34.5 -8.5
t-11.5 -27.5v-398q0 -152 -77.5 -230.5t-227.5 -78.5zM551 972h127v-2l-223 -131h-20z" />
    <glyph glyph-name="Ucircumflex" unicode="&#xdb;" horiz-adv-x="861" 
d="M434 -12q-150 0 -230.5 75t-80.5 233v399q0 21 -11.5 27.5t-33.5 8.5l-45 3v24h282v-24l-45 -3q-22 -2 -33.5 -8.5t-11.5 -27.5v-401q0 -133 57 -195.5t178 -62.5q123 0 181.5 67.5t58.5 199.5v392q0 21 -11 27.5t-34 8.5l-45 3v24h219v-24l-44 -3q-23 -2 -34.5 -8.5
t-11.5 -27.5v-398q0 -152 -77.5 -230.5t-227.5 -78.5zM457 984h12l157 -151h-19l-144 72l-144 -72h-19z" />
    <glyph glyph-name="Udieresis" unicode="&#xdc;" horiz-adv-x="861" 
d="M434 -12q-150 0 -230.5 75t-80.5 233v399q0 21 -11.5 27.5t-33.5 8.5l-45 3v24h282v-24l-45 -3q-22 -2 -33.5 -8.5t-11.5 -27.5v-401q0 -133 57 -195.5t178 -62.5q123 0 181.5 67.5t58.5 199.5v392q0 21 -11 27.5t-34 8.5l-45 3v24h219v-24l-44 -3q-23 -2 -34.5 -8.5
t-11.5 -27.5v-398q0 -152 -77.5 -230.5t-227.5 -78.5zM347 854q-26 0 -45 19t-19 45q0 25 19 44.5t45 19.5t45 -19.5t19 -44.5q0 -26 -19 -45t-45 -19zM579 854q-26 0 -45 19t-19 45q0 25 19 44.5t45 19.5t45 -19.5t19 -44.5q0 -26 -19 -45t-45 -19z" />
    <glyph glyph-name="Yacute" unicode="&#xdd;" horiz-adv-x="770" 
d="M230 25l60 3q22 1 33.5 7.5t11.5 27.5v279l-248 355q-6 9 -11 15t-10 10t-12 6t-18 3l-44 3v24h290v-24l-50 -3q-23 -2 -34 -9.5t1 -24.5l221 -317l222 317q13 18 1.5 25t-34.5 9l-50 3v24h220v-24l-44 -3q-22 -2 -30.5 -9.5t-20.5 -24.5l-248 -355v-279q0 -21 11.5 -27
t34.5 -8l60 -3v-25h-312v25zM502 972h127v-2l-223 -131h-20z" />
    <glyph glyph-name="Thorn" unicode="&#xde;" horiz-adv-x="733" 
d="M55 24l45 3q22 2 33.5 8.5t11.5 27.5v632q0 21 -11.5 27.5t-33.5 8.5l-45 3v24h282v-24l-45 -3q-23 -2 -34.5 -8.5t-11.5 -27.5v-113h129q66 0 124 -8.5t101.5 -30.5t68.5 -61t25 -100q0 -62 -25 -102t-68.5 -63t-101.5 -32.5t-124 -9.5h-129v-112q0 -21 11.5 -27.5
t34.5 -7.5l86 -3v-25h-323v24zM246 206h120q51 0 90.5 8.5t67.5 29t42.5 53.5t14.5 81t-14.5 81.5t-42.5 54t-67.5 29.5t-90.5 9h-120v-346z" />
    <glyph glyph-name="germandbls" unicode="&#xdf;" horiz-adv-x="682" 
d="M431 -12q-43 0 -76 9.5t-55 24t-33 32.5t-11 35q0 23 20 39.5t54 9.5q4 -26 12.5 -48.5t23 -39.5t36.5 -26.5t53 -9.5q24 0 45.5 6.5t38 19.5t26.5 32t10 45q0 41 -31 74.5t-95 78.5l-34 24q-60 42 -87.5 73t-27.5 66q0 29 19.5 51.5t54.5 46.5l25 17q32 22 52.5 47.5
t20.5 60.5q0 48 -33 73.5t-82 25.5q-33 0 -61.5 -11t-49.5 -34.5t-33 -59t-12 -83.5v-567h-167v23l35 2q25 1 31.5 7t6.5 26v393h-73v23q38 3 55.5 9.5t17.5 26.5v5q0 55 20 103.5t55 84.5t83 57t105 21q36 0 67.5 -7t55 -20.5t37.5 -34.5t14 -48q0 -36 -23.5 -62t-58.5 -49
l-47 -31q-21 -14 -32.5 -24t-11.5 -27q0 -23 29 -48t80 -62l41 -30q65 -47 94.5 -87t29.5 -92q0 -40 -17 -72t-46.5 -54t-68.5 -33.5t-82 -11.5z" />
    <glyph glyph-name="agrave" unicode="&#xe0;" horiz-adv-x="540" 
d="M205 -12q-35 0 -64.5 11t-50.5 29.5t-32.5 43t-11.5 51.5q0 35 18 58.5t45 39.5t58.5 27.5t59.5 22.5q47 18 72.5 33t37.5 28.5t14 27.5t2 30q0 42 -25 70.5t-77 28.5q-60 0 -90 -40.5t-15 -110.5q-19 -4 -38 -4q-33 0 -50.5 13t-17.5 33q0 13 7.5 25t20.5 23t29 21
t34 19q41 22 84 36t85 14q73 0 110 -34.5t36 -124.5l-3 -315h76v-22l-158 -29l-7 112q-20 -66 -58.5 -91.5t-90.5 -25.5zM245 29q19 0 38 8t34 25t24.5 45t9.5 67l2 143q-20 -15 -38 -26.5t-47 -26.5q-26 -14 -47 -27t-36 -28t-23 -34t-8 -44q0 -20 5.5 -38t17 -32.5
t28.5 -23t40 -8.5zM273 597l-194 172v7h105l109 -179h-20z" />
    <glyph glyph-name="aacute" unicode="&#xe1;" horiz-adv-x="540" 
d="M205 -12q-35 0 -64.5 11t-50.5 29.5t-32.5 43t-11.5 51.5q0 35 18 58.5t45 39.5t58.5 27.5t59.5 22.5q47 18 72.5 33t37.5 28.5t14 27.5t2 30q0 42 -25 70.5t-77 28.5q-60 0 -90 -40.5t-15 -110.5q-19 -4 -38 -4q-33 0 -50.5 13t-17.5 33q0 13 7.5 25t20.5 23t29 21
t34 19q41 22 84 36t85 14q73 0 110 -34.5t36 -124.5l-3 -315h76v-22l-158 -29l-7 112q-20 -66 -58.5 -91.5t-90.5 -25.5zM245 29q19 0 38 8t34 25t24.5 45t9.5 67l2 143q-20 -15 -38 -26.5t-47 -26.5q-26 -14 -47 -27t-36 -28t-23 -34t-8 -44q0 -20 5.5 -38t17 -32.5
t28.5 -23t40 -8.5zM329 776h105v-7l-194 -172h-20z" />
    <glyph glyph-name="acircumflex" unicode="&#xe2;" horiz-adv-x="540" 
d="M205 -12q-35 0 -64.5 11t-50.5 29.5t-32.5 43t-11.5 51.5q0 35 18 58.5t45 39.5t58.5 27.5t59.5 22.5q47 18 72.5 33t37.5 28.5t14 27.5t2 30q0 42 -25 70.5t-77 28.5q-60 0 -90 -40.5t-15 -110.5q-19 -4 -38 -4q-33 0 -50.5 13t-17.5 33q0 13 7.5 25t20.5 23t29 21
t34 19q41 22 84 36t85 14q73 0 110 -34.5t36 -124.5l-3 -315h76v-22l-158 -29l-7 112q-20 -66 -58.5 -91.5t-90.5 -25.5zM245 29q19 0 38 8t34 25t24.5 45t9.5 67l2 143q-20 -15 -38 -26.5t-47 -26.5q-26 -14 -47 -27t-36 -28t-23 -34t-8 -44q0 -20 5.5 -38t17 -32.5
t28.5 -23t40 -8.5zM251 793h8l161 -196h-20l-145 110l-145 -110h-20z" />
    <glyph glyph-name="atilde" unicode="&#xe3;" horiz-adv-x="540" 
d="M205 -12q-35 0 -64.5 11t-50.5 29.5t-32.5 43t-11.5 51.5q0 35 18 58.5t45 39.5t58.5 27.5t59.5 22.5q47 18 72.5 33t37.5 28.5t14 27.5t2 30q0 42 -25 70.5t-77 28.5q-60 0 -90 -40.5t-15 -110.5q-19 -4 -38 -4q-33 0 -50.5 13t-17.5 33q0 13 7.5 25t20.5 23t29 21
t34 19q41 22 84 36t85 14q73 0 110 -34.5t36 -124.5l-3 -315h76v-22l-158 -29l-7 112q-20 -66 -58.5 -91.5t-90.5 -25.5zM245 29q19 0 38 8t34 25t24.5 45t9.5 67l2 143q-20 -15 -38 -26.5t-47 -26.5q-26 -14 -47 -27t-36 -28t-23 -34t-8 -44q0 -20 5.5 -38t17 -32.5
t28.5 -23t40 -8.5zM333 629q-26 0 -47 10.5t-39.5 23.5t-36.5 23.5t-39 10.5q-25 0 -39.5 -15.5t-16.5 -45.5h-17q0 25 5 48.5t15.5 42t26.5 29.5t37 11q23 0 43 -10.5t39 -23.5t37.5 -23.5t39.5 -10.5q23 0 37.5 15t16.5 44h17q-1 -66 -25 -97.5t-54 -31.5z" />
    <glyph glyph-name="adieresis" unicode="&#xe4;" horiz-adv-x="540" 
d="M205 -12q-35 0 -64.5 11t-50.5 29.5t-32.5 43t-11.5 51.5q0 35 18 58.5t45 39.5t58.5 27.5t59.5 22.5q47 18 72.5 33t37.5 28.5t14 27.5t2 30q0 42 -25 70.5t-77 28.5q-60 0 -90 -40.5t-15 -110.5q-19 -4 -38 -4q-33 0 -50.5 13t-17.5 33q0 13 7.5 25t20.5 23t29 21
t34 19q41 22 84 36t85 14q73 0 110 -34.5t36 -124.5l-3 -315h76v-22l-158 -29l-7 112q-20 -66 -58.5 -91.5t-90.5 -25.5zM245 29q19 0 38 8t34 25t24.5 45t9.5 67l2 143q-20 -15 -38 -26.5t-47 -26.5q-26 -14 -47 -27t-36 -28t-23 -34t-8 -44q0 -20 5.5 -38t17 -32.5
t28.5 -23t40 -8.5zM371 642q-26 0 -45 19.5t-19 45.5q0 25 19 44t45 19t45 -19t19 -44q0 -26 -19 -45.5t-45 -19.5zM139 642q-26 0 -45 19.5t-19 45.5q0 25 19 44t45 19t45 -19t19 -44q0 -26 -19 -45.5t-45 -19.5z" />
    <glyph glyph-name="aring" unicode="&#xe5;" horiz-adv-x="540" 
d="M205 -12q-35 0 -64.5 11t-50.5 29.5t-32.5 43t-11.5 51.5q0 35 18 58.5t45 39.5t58.5 27.5t59.5 22.5q47 18 72.5 33t37.5 28.5t14 27.5t2 30q0 42 -25 70.5t-77 28.5q-60 0 -90 -40.5t-15 -110.5q-19 -4 -38 -4q-33 0 -50.5 13t-17.5 33q0 13 7.5 25t20.5 23t29 21
t34 19q41 22 84 36t85 14q73 0 110 -34.5t36 -124.5l-3 -315h76v-22l-158 -29l-7 112q-20 -66 -58.5 -91.5t-90.5 -25.5zM245 29q19 0 38 8t34 25t24.5 45t9.5 67l2 143q-20 -15 -38 -26.5t-47 -26.5q-26 -14 -47 -27t-36 -28t-23 -34t-8 -44q0 -20 5.5 -38t17 -32.5
t28.5 -23t40 -8.5zM255 585q-24 0 -44.5 8.5t-36.5 23.5t-25 35.5t-9 43.5t9 43.5t25 35.5t36.5 24t44.5 9t45.5 -9t37.5 -24t25 -35.5t9 -43.5t-9 -43.5t-25 -35.5t-37.5 -23.5t-45.5 -8.5zM255 621q34 0 55 21t21 54t-21 54t-55 21q-33 0 -54 -21t-21 -54t21 -54t54 -21z
" />
    <glyph glyph-name="ae" unicode="&#xe6;" horiz-adv-x="887" 
d="M850 183q-23 -101 -87.5 -148t-156.5 -47q-74 0 -132 32.5t-90 94.5q-20 -70 -68 -98.5t-111 -28.5q-35 0 -64.5 11t-50.5 29.5t-32.5 43t-11.5 51.5q0 35 18 58.5t45 39.5t58.5 27.5t59.5 22.5q47 18 72.5 33t37.5 28.5t14 27.5t2 30q0 42 -25 70.5t-77 28.5
q-60 0 -90 -40.5t-15 -110.5q-19 -4 -38 -4q-33 0 -50.5 13t-17.5 33q0 13 7.5 25t20.5 23t29 21t34 19q41 22 84 36t85 14q51 0 84 -16t49 -54q35 33 79 51t93 18q35 0 71.5 -11t68.5 -35t56.5 -63t35.5 -95h-382v-19q0 -55 14.5 -100t40 -77.5t60.5 -50.5t77 -18
q24 0 50 5t50 19.5t45 41t35 69.5h23zM602 493q-54 0 -93.5 -37.5t-50.5 -113.5h263q-1 31 -8 58.5t-21.5 48t-36.5 32.5t-53 12zM154 131q0 -20 5.5 -38t17 -32.5t28.5 -23t40 -8.5q21 0 42 6.5t37.5 22t28 40.5t13.5 62q-13 39 -13 91v66q-20 -15 -38 -26.5t-47 -26.5
q-26 -14 -47 -27t-36 -28t-23 -34t-8 -44z" />
    <glyph glyph-name="ccedilla" unicode="&#xe7;" horiz-adv-x="554" 
d="M295 -12q-54 0 -100.5 19t-80.5 53.5t-53 83t-19 107.5q0 58 21.5 107t58.5 84.5t86 55t105 19.5q33 0 65 -7.5t57.5 -21.5t41.5 -34t16 -45q0 -26 -18.5 -40t-46.5 -14q-5 0 -10.5 0.5t-11.5 1.5q-6 72 -40 103t-83 31q-27 0 -52 -11t-44 -33.5t-30.5 -57.5t-12.5 -82
q-1 -52 12 -99t38 -82.5t61 -56.5t81 -21q23 0 47.5 6t47 21t41.5 41t30 67h23q-10 -52 -31.5 -89t-51.5 -60.5t-67.5 -34.5t-79.5 -11zM264 -257q-17 0 -33 4t-29 11.5t-20.5 17.5t-7.5 23q0 12 10.5 20.5t27.5 5.5q1 -29 19 -44.5t47 -15.5q21 0 38 9t17 28q0 24 -34 44.5
t-82 41.5l111 115h30l-81 -84q46 -23 69.5 -43t23.5 -52t-28.5 -56.5t-77.5 -24.5z" />
    <glyph glyph-name="egrave" unicode="&#xe8;" horiz-adv-x="577" 
d="M296 -12q-54 0 -100.5 18t-80 51.5t-53 82.5t-19.5 111q0 60 20.5 109t55.5 84t80.5 54t95.5 19q35 0 71.5 -11t68.5 -35t56.5 -63t35.5 -95h-382v-19q0 -55 14.5 -100t40 -77.5t60.5 -50.5t77 -18q24 0 50 5t50 19.5t45 41t35 69.5h23q-23 -101 -87.5 -148t-156.5 -47z
M292 493q-54 0 -93.5 -37.5t-50.5 -113.5h263q-1 31 -8 58.5t-21.5 48t-36.5 32.5t-53 12zM313 597l-194 172v7h105l109 -179h-20z" />
    <glyph glyph-name="eacute" unicode="&#xe9;" horiz-adv-x="577" 
d="M296 -12q-54 0 -100.5 18t-80 51.5t-53 82.5t-19.5 111q0 60 20.5 109t55.5 84t80.5 54t95.5 19q35 0 71.5 -11t68.5 -35t56.5 -63t35.5 -95h-382v-19q0 -55 14.5 -100t40 -77.5t60.5 -50.5t77 -18q24 0 50 5t50 19.5t45 41t35 69.5h23q-23 -101 -87.5 -148t-156.5 -47z
M292 493q-54 0 -93.5 -37.5t-50.5 -113.5h263q-1 31 -8 58.5t-21.5 48t-36.5 32.5t-53 12zM369 776h105v-7l-194 -172h-20z" />
    <glyph glyph-name="ecircumflex" unicode="&#xea;" horiz-adv-x="577" 
d="M296 -12q-54 0 -100.5 18t-80 51.5t-53 82.5t-19.5 111q0 60 20.5 109t55.5 84t80.5 54t95.5 19q35 0 71.5 -11t68.5 -35t56.5 -63t35.5 -95h-382v-19q0 -55 14.5 -100t40 -77.5t60.5 -50.5t77 -18q24 0 50 5t50 19.5t45 41t35 69.5h23q-23 -101 -87.5 -148t-156.5 -47z
M292 493q-54 0 -93.5 -37.5t-50.5 -113.5h263q-1 31 -8 58.5t-21.5 48t-36.5 32.5t-53 12zM291 793h8l161 -196h-20l-145 110l-145 -110h-20z" />
    <glyph glyph-name="edieresis" unicode="&#xeb;" horiz-adv-x="577" 
d="M296 -12q-54 0 -100.5 18t-80 51.5t-53 82.5t-19.5 111q0 60 20.5 109t55.5 84t80.5 54t95.5 19q35 0 71.5 -11t68.5 -35t56.5 -63t35.5 -95h-382v-19q0 -55 14.5 -100t40 -77.5t60.5 -50.5t77 -18q24 0 50 5t50 19.5t45 41t35 69.5h23q-23 -101 -87.5 -148t-156.5 -47z
M292 493q-54 0 -93.5 -37.5t-50.5 -113.5h263q-1 31 -8 58.5t-21.5 48t-36.5 32.5t-53 12zM411 642q-26 0 -45 19.5t-19 45.5q0 25 19 44t45 19t45 -19t19 -44q0 -26 -19 -45.5t-45 -19.5zM179 642q-26 0 -45 19.5t-19 45.5q0 25 19 44t45 19t45 -19t19 -44q0 -26 -19 -45.5
t-45 -19.5z" />
    <glyph glyph-name="igrave" unicode="&#xec;" horiz-adv-x="309" 
d="M39 23l35 2q23 2 30.5 7.5t7.5 25.5v349l-73 41v6l167 64v-460q0 -20 7.5 -25.5t31.5 -7.5l34 -2v-23h-240v23zM167 597l-194 172v7h105l109 -179h-20z" />
    <glyph glyph-name="iacute" unicode="&#xed;" horiz-adv-x="309" 
d="M39 23l35 2q23 2 30.5 7.5t7.5 25.5v349l-73 41v6l167 64v-460q0 -20 7.5 -25.5t31.5 -7.5l34 -2v-23h-240v23zM223 776h105v-7l-194 -172h-20z" />
    <glyph glyph-name="icircumflex" unicode="&#xee;" horiz-adv-x="309" 
d="M39 23l35 2q23 2 30.5 7.5t7.5 25.5v349l-73 41v6l167 64v-460q0 -20 7.5 -25.5t31.5 -7.5l34 -2v-23h-240v23zM145 793h8l161 -196h-20l-145 110l-145 -110h-20z" />
    <glyph glyph-name="idieresis" unicode="&#xef;" horiz-adv-x="309" 
d="M39 23l35 2q23 2 30.5 7.5t7.5 25.5v349l-73 41v6l167 64v-460q0 -20 7.5 -25.5t31.5 -7.5l34 -2v-23h-240v23zM49 642q-26 0 -45 19.5t-19 45.5q0 25 19 44t45 19t45 -19t19 -44q0 -26 -19 -45.5t-45 -19.5zM249 642q-26 0 -45 19.5t-19 45.5q0 25 19 44t45 19t45 -19
t19 -44q0 -26 -19 -45.5t-45 -19.5z" />
    <glyph glyph-name="eth" unicode="&#xf0;" horiz-adv-x="629" 
d="M301 -12q-53 0 -99.5 18t-82 52t-56 83t-20.5 112q0 61 20.5 110t55 83t80 52.5t94.5 18.5q51 0 90 -18.5t66 -44.5q-42 134 -146 221l-135 -73l-14 29l121 65q-73 52 -170 80l6 19q60 -11 113 -30t98 -44l134 72l14 -28l-116 -63q109 -70 165.5 -173t56.5 -222
q0 -81 -24 -141t-63 -99.5t-88 -59t-100 -19.5zM148 248q0 -57 12.5 -100t34 -71.5t51 -43t62.5 -14.5q36 0 66 17t51.5 51.5t34 85.5t12.5 120q0 79 -19 145q-53 42 -128 42q-33 0 -64.5 -13.5t-56.5 -42t-40.5 -72t-15.5 -104.5z" />
    <glyph glyph-name="ntilde" unicode="&#xf1;" horiz-adv-x="619" 
d="M35 23l35 2q25 1 31.5 7t6.5 26v349l-73 41v6l167 64v-139q16 70 60 104t107 34q73 0 113.5 -45t40.5 -154v-260q0 -20 6.5 -26t32.5 -7l34 -2v-23h-240v23l35 2q25 1 31.5 7t6.5 26v242q0 45 -7 76t-20.5 49.5t-33.5 26.5t-46 8q-24 0 -46 -8.5t-38.5 -28t-26 -50
t-9.5 -73.5v-242q0 -20 6.5 -26t32.5 -7l34 -2v-23h-240v23zM393 629q-26 0 -47 10.5t-39.5 23.5t-36.5 23.5t-39 10.5q-25 0 -39.5 -15.5t-16.5 -45.5h-17q0 25 5 48.5t15.5 42t26.5 29.5t37 11q23 0 43 -10.5t39 -23.5t37.5 -23.5t39.5 -10.5q23 0 37.5 15t16.5 44h17
q-1 -66 -25 -97.5t-54 -31.5z" />
    <glyph glyph-name="ograve" unicode="&#xf2;" horiz-adv-x="619" 
d="M308 -12q-54 0 -102 19.5t-84.5 54t-58 83t-21.5 105.5q0 61 23 110.5t60.5 84t86 53.5t99.5 19q54 0 102 -19.5t84.5 -54t58 -82.5t21.5 -105q0 -61 -22.5 -110.5t-60 -84.5t-86 -54t-100.5 -19zM310 17q31 0 59 13t50 41.5t35 73.5t13 108q0 64 -13 109t-35 73.5
t-50 41.5t-59 13q-32 0 -60.5 -13t-50.5 -41.5t-35 -73.5t-13 -109q0 -63 13 -108t35 -73.5t50.5 -41.5t60.5 -13zM328 597l-194 172v7h105l109 -179h-20z" />
    <glyph glyph-name="oacute" unicode="&#xf3;" horiz-adv-x="619" 
d="M308 -12q-54 0 -102 19.5t-84.5 54t-58 83t-21.5 105.5q0 61 23 110.5t60.5 84t86 53.5t99.5 19q54 0 102 -19.5t84.5 -54t58 -82.5t21.5 -105q0 -61 -22.5 -110.5t-60 -84.5t-86 -54t-100.5 -19zM310 17q31 0 59 13t50 41.5t35 73.5t13 108q0 64 -13 109t-35 73.5
t-50 41.5t-59 13q-32 0 -60.5 -13t-50.5 -41.5t-35 -73.5t-13 -109q0 -63 13 -108t35 -73.5t50.5 -41.5t60.5 -13zM384 776h105v-7l-194 -172h-20z" />
    <glyph glyph-name="ocircumflex" unicode="&#xf4;" horiz-adv-x="619" 
d="M308 -12q-54 0 -102 19.5t-84.5 54t-58 83t-21.5 105.5q0 61 23 110.5t60.5 84t86 53.5t99.5 19q54 0 102 -19.5t84.5 -54t58 -82.5t21.5 -105q0 -61 -22.5 -110.5t-60 -84.5t-86 -54t-100.5 -19zM310 17q31 0 59 13t50 41.5t35 73.5t13 108q0 64 -13 109t-35 73.5
t-50 41.5t-59 13q-32 0 -60.5 -13t-50.5 -41.5t-35 -73.5t-13 -109q0 -63 13 -108t35 -73.5t50.5 -41.5t60.5 -13zM306 793h8l161 -196h-20l-145 110l-145 -110h-20z" />
    <glyph glyph-name="otilde" unicode="&#xf5;" horiz-adv-x="619" 
d="M308 -12q-54 0 -102 19.5t-84.5 54t-58 83t-21.5 105.5q0 61 23 110.5t60.5 84t86 53.5t99.5 19q54 0 102 -19.5t84.5 -54t58 -82.5t21.5 -105q0 -61 -22.5 -110.5t-60 -84.5t-86 -54t-100.5 -19zM310 17q31 0 59 13t50 41.5t35 73.5t13 108q0 64 -13 109t-35 73.5
t-50 41.5t-59 13q-32 0 -60.5 -13t-50.5 -41.5t-35 -73.5t-13 -109q0 -63 13 -108t35 -73.5t50.5 -41.5t60.5 -13zM388 629q-26 0 -47 10.5t-39.5 23.5t-36.5 23.5t-39 10.5q-25 0 -39.5 -15.5t-16.5 -45.5h-17q0 25 5 48.5t15.5 42t26.5 29.5t37 11q23 0 43 -10.5t39 -23.5
t37.5 -23.5t39.5 -10.5q23 0 37.5 15t16.5 44h17q-1 -66 -25 -97.5t-54 -31.5z" />
    <glyph glyph-name="odieresis" unicode="&#xf6;" horiz-adv-x="619" 
d="M308 -12q-54 0 -102 19.5t-84.5 54t-58 83t-21.5 105.5q0 61 23 110.5t60.5 84t86 53.5t99.5 19q54 0 102 -19.5t84.5 -54t58 -82.5t21.5 -105q0 -61 -22.5 -110.5t-60 -84.5t-86 -54t-100.5 -19zM310 17q31 0 59 13t50 41.5t35 73.5t13 108q0 64 -13 109t-35 73.5
t-50 41.5t-59 13q-32 0 -60.5 -13t-50.5 -41.5t-35 -73.5t-13 -109q0 -63 13 -108t35 -73.5t50.5 -41.5t60.5 -13zM426 642q-26 0 -45 19.5t-19 45.5q0 25 19 44t45 19t45 -19t19 -44q0 -26 -19 -45.5t-45 -19.5zM194 642q-26 0 -45 19.5t-19 45.5q0 25 19 44t45 19t45 -19
t19 -44q0 -26 -19 -45.5t-45 -19.5z" />
    <glyph glyph-name="divide" unicode="&#xf7;" horiz-adv-x="653" 
d="M327 386q-26 0 -45 19.5t-19 45.5q0 25 19 44t45 19t45 -19t19 -44q0 -26 -19 -45.5t-45 -19.5zM65 286h523v-49h-523v49zM327 10q-26 0 -45 19.5t-19 45.5q0 25 19 44t45 19t45 -19t19 -44q0 -26 -19 -45.5t-45 -19.5z" />
    <glyph glyph-name="oslash" unicode="&#xf8;" horiz-adv-x="639" 
d="M318 -12q-54 0 -102 19.5t-84.5 54t-58 83t-21.5 105.5q0 61 23 110.5t60.5 84t86 53.5t99.5 19q54 0 102 -19.5t84.5 -54t58 -82.5t21.5 -105q0 -61 -22.5 -110.5t-60 -84.5t-86 -54t-100.5 -19zM320 17q31 0 59 13t50 41.5t35 73.5t13 108q0 64 -13 109t-35 73.5
t-50 41.5t-59 13q-32 0 -60.5 -13t-50.5 -41.5t-35 -73.5t-13 -109q0 -63 13 -108t35 -73.5t50.5 -41.5t60.5 -13zM582 540l-497 -591l-26 22l497 592z" />
    <glyph glyph-name="ugrave" unicode="&#xf9;" horiz-adv-x="611" 
d="M250 -12q-37 0 -65.5 10.5t-48 34.5t-30 62t-10.5 93v274l-72 18v22h166v-297q0 -90 26.5 -125t79.5 -35q25 0 46.5 8.5t38 28t26 50t9.5 74.5v256l-71 18v22h165v-458h77v-22l-171 -31v135q-16 -69 -60 -103.5t-106 -34.5zM319 597l-194 172v7h105l109 -179h-20z" />
    <glyph glyph-name="uacute" unicode="&#xfa;" horiz-adv-x="611" 
d="M250 -12q-37 0 -65.5 10.5t-48 34.5t-30 62t-10.5 93v274l-72 18v22h166v-297q0 -90 26.5 -125t79.5 -35q25 0 46.5 8.5t38 28t26 50t9.5 74.5v256l-71 18v22h165v-458h77v-22l-171 -31v135q-16 -69 -60 -103.5t-106 -34.5zM375 776h105v-7l-194 -172h-20z" />
    <glyph glyph-name="ucircumflex" unicode="&#xfb;" horiz-adv-x="611" 
d="M250 -12q-37 0 -65.5 10.5t-48 34.5t-30 62t-10.5 93v274l-72 18v22h166v-297q0 -90 26.5 -125t79.5 -35q25 0 46.5 8.5t38 28t26 50t9.5 74.5v256l-71 18v22h165v-458h77v-22l-171 -31v135q-16 -69 -60 -103.5t-106 -34.5zM297 793h8l161 -196h-20l-145 110l-145 -110
h-20z" />
    <glyph glyph-name="udieresis" unicode="&#xfc;" horiz-adv-x="611" 
d="M250 -12q-37 0 -65.5 10.5t-48 34.5t-30 62t-10.5 93v274l-72 18v22h166v-297q0 -90 26.5 -125t79.5 -35q25 0 46.5 8.5t38 28t26 50t9.5 74.5v256l-71 18v22h165v-458h77v-22l-171 -31v135q-16 -69 -60 -103.5t-106 -34.5zM417 642q-26 0 -45 19.5t-19 45.5q0 25 19 44
t45 19t45 -19t19 -44q0 -26 -19 -45.5t-45 -19.5zM185 642q-26 0 -45 19.5t-19 45.5q0 25 19 44t45 19t45 -19t19 -44q0 -26 -19 -45.5t-45 -19.5z" />
    <glyph glyph-name="yacute" unicode="&#xfd;" horiz-adv-x="567" 
d="M141 -253q-22 0 -37 14t-15 36q0 12 5.5 25t19.5 25t37 21.5t58 15.5l53 116l-185 439q-9 20 -17.5 29t-31.5 10l-29 1v23h243v-23l-33 -1q-46 -1 -32 -36l137 -328l139 312q12 27 3.5 39t-32.5 13l-37 1v23h190v-23l-32 -1q-23 -1 -33.5 -10.5t-20.5 -31.5l-268 -593
q-11 -24 -19 -42t-17 -30t-20 -18t-26 -6zM382 776h105v-7l-194 -172h-20z" />
    <glyph glyph-name="thorn" unicode="&#xfe;" horiz-adv-x="598" 
d="M329 517q48 0 89 -18.5t71 -53t47.5 -83.5t17.5 -110q0 -58 -18 -106.5t-50 -83.5t-75.5 -54.5t-94.5 -19.5q-44 0 -80 17.5t-59 47.5v-243q0 -20 6.5 -25.5t32.5 -6.5l60 -3v-23h-266v23l35 2q25 1 31.5 7t6.5 26v870l-73 41v6l167 64v-347q24 33 64 53t88 20zM283 472
q-27 0 -55 -9.5t-51 -35.5v-356q23 -26 50.5 -35t53.5 -9q37 0 68 16.5t53 46t34 71t12 91.5q0 47 -12 87.5t-34 70t-52 46t-67 16.5z" />
    <glyph glyph-name="ydieresis" unicode="&#xff;" horiz-adv-x="567" 
d="M141 -253q-22 0 -37 14t-15 36q0 12 5.5 25t19.5 25t37 21.5t58 15.5l53 116l-185 439q-9 20 -17.5 29t-31.5 10l-29 1v23h243v-23l-33 -1q-46 -1 -32 -36l137 -328l139 312q12 27 3.5 39t-32.5 13l-37 1v23h190v-23l-32 -1q-23 -1 -33.5 -10.5t-20.5 -31.5l-268 -593
q-11 -24 -19 -42t-17 -30t-20 -18t-26 -6zM424 642q-26 0 -45 19.5t-19 45.5q0 25 19 44t45 19t45 -19t19 -44q0 -26 -19 -45.5t-45 -19.5zM192 642q-26 0 -45 19.5t-19 45.5q0 25 19 44t45 19t45 -19t19 -44q0 -26 -19 -45.5t-45 -19.5z" />
    <glyph glyph-name="Abreve" unicode="&#x102;" horiz-adv-x="764" 
d="M684 61q8 -19 18.5 -25.5t33.5 -8.5l44 -3v-24h-289v24l50 3q24 2 32.5 8.5t0.5 25.5l-86 218h-283l-86 -218q-8 -19 0.5 -25.5t32.5 -8.5l50 -3v-24h-218v24l44 3q22 2 32.5 8.5t18.5 25.5l295 733h16zM473 319l-126 320l-126 -320h252zM382 829q-23 0 -49 6.5t-49 24
t-40 48t-21 77.5h40q7 -60 39 -89.5t80 -29.5t80 29.5t39 89.5h40q-5 -47 -21.5 -77.5t-39.5 -48t-49 -24t-49 -6.5z" />
    <glyph glyph-name="Amacron" unicode="&#x100;" horiz-adv-x="764" 
d="M684 61q8 -19 18.5 -25.5t33.5 -8.5l44 -3v-24h-289v24l50 3q24 2 32.5 8.5t0.5 25.5l-86 218h-283l-86 -218q-8 -19 0.5 -25.5t32.5 -8.5l50 -3v-24h-218v24l44 3q22 2 32.5 8.5t18.5 25.5l295 733h16zM473 319l-126 320l-126 -320h252zM233 926h298v-44h-298v44z" />
    <glyph glyph-name="Aogonek" unicode="&#x104;" horiz-adv-x="764" 
d="M684 61q8 -19 18.5 -25.5t33.5 -8.5l44 -3v-24h-289v24l50 3q24 2 32.5 8.5t0.5 25.5l-86 218h-283l-86 -218q-8 -19 0.5 -25.5t32.5 -8.5l50 -3v-24h-218v24l44 3q22 2 32.5 8.5t18.5 25.5l295 733h16zM473 319l-126 320l-126 -320h252zM628 -233q-20 0 -39 5.5
t-33.5 15.5t-23 25t-8.5 34q0 21 13.5 42.5t33.5 41.5t43 38t43 31h22q-15 -13 -31.5 -29.5t-30.5 -34.5t-23 -37t-9 -37q0 -30 22 -45t54 -15q18 0 34.5 4.5t30.5 10.5l2 -21q-17 -11 -44.5 -20t-55.5 -9z" />
    <glyph glyph-name="Cacute" unicode="&#x106;" horiz-adv-x="819" 
d="M479 -12q-94 0 -173 27.5t-136.5 78.5t-89.5 123.5t-32 163.5t32.5 164t90 124t137.5 78.5t176 27.5q31 0 64 -2.5t64.5 -8t60 -14t51.5 -20.5l42 -217h-18l-113 182q-11 17 -20 24.5t-27 12.5q-23 7 -49 9t-59 2q-61 0 -118 -19t-101.5 -60t-71 -106t-26.5 -157
q0 -83 22 -153t63.5 -120.5t102 -79t137.5 -28.5q33 0 59 2t49 9q18 5 27 12.5t20 24.5l113 182h18l-42 -217q-23 -12 -53.5 -20.5t-64 -14t-69 -8t-66.5 -2.5zM568 972h127v-2l-223 -131h-20z" />
    <glyph glyph-name="Ccaron" unicode="&#x10c;" horiz-adv-x="819" 
d="M479 -12q-94 0 -173 27.5t-136.5 78.5t-89.5 123.5t-32 163.5t32.5 164t90 124t137.5 78.5t176 27.5q31 0 64 -2.5t64.5 -8t60 -14t51.5 -20.5l42 -217h-18l-113 182q-11 17 -20 24.5t-27 12.5q-23 7 -49 9t-59 2q-61 0 -118 -19t-101.5 -60t-71 -106t-26.5 -157
q0 -83 22 -153t63.5 -120.5t102 -79t137.5 -28.5q33 0 59 2t49 9q18 5 27 12.5t20 24.5l113 182h18l-42 -217q-23 -12 -53.5 -20.5t-64 -14t-69 -8t-66.5 -2.5zM336 984l144 -72l144 72h19l-157 -151h-12l-157 151h19z" />
    <glyph glyph-name="Ccircumflex" unicode="&#x108;" horiz-adv-x="819" 
d="M479 -12q-94 0 -173 27.5t-136.5 78.5t-89.5 123.5t-32 163.5t32.5 164t90 124t137.5 78.5t176 27.5q31 0 64 -2.5t64.5 -8t60 -14t51.5 -20.5l42 -217h-18l-113 182q-11 17 -20 24.5t-27 12.5q-23 7 -49 9t-59 2q-61 0 -118 -19t-101.5 -60t-71 -106t-26.5 -157
q0 -83 22 -153t63.5 -120.5t102 -79t137.5 -28.5q33 0 59 2t49 9q18 5 27 12.5t20 24.5l113 182h18l-42 -217q-23 -12 -53.5 -20.5t-64 -14t-69 -8t-66.5 -2.5zM474 984h12l157 -151h-19l-144 72l-144 -72h-19z" />
    <glyph glyph-name="Cdotaccent" unicode="&#x10a;" horiz-adv-x="819" 
d="M479 -12q-94 0 -173 27.5t-136.5 78.5t-89.5 123.5t-32 163.5t32.5 164t90 124t137.5 78.5t176 27.5q31 0 64 -2.5t64.5 -8t60 -14t51.5 -20.5l42 -217h-18l-113 182q-11 17 -20 24.5t-27 12.5q-23 7 -49 9t-59 2q-61 0 -118 -19t-101.5 -60t-71 -106t-26.5 -157
q0 -83 22 -153t63.5 -120.5t102 -79t137.5 -28.5q33 0 59 2t49 9q18 5 27 12.5t20 24.5l113 182h18l-42 -217q-23 -12 -53.5 -20.5t-64 -14t-69 -8t-66.5 -2.5zM480 854q-26 0 -45 19t-19 45q0 25 19 44.5t45 19.5t45 -19.5t19 -44.5q0 -26 -19 -45t-45 -19z" />
    <glyph glyph-name="Dcaron" unicode="&#x10e;" horiz-adv-x="847" 
d="M55 24l45 3q22 2 33.5 8.5t11.5 27.5v632q0 21 -11.5 27.5t-33.5 8.5l-45 3v24h278q96 0 181 -21.5t148 -67t99.5 -116.5t36.5 -169t-36.5 -170.5t-99 -120t-146.5 -70.5t-178 -23h-283v24zM333 31q76 0 140 18t110.5 57.5t72.5 103t26 153.5q0 97 -24 166t-70 113
t-111.5 64.5t-147.5 20.5h-83v-696h87zM272 984l144 -72l144 72h19l-157 -151h-12l-157 151h19z" />
    <glyph glyph-name="Dcroat" unicode="&#x110;" horiz-adv-x="857" 
d="M65 24l45 3q22 2 33.5 8.5t11.5 27.5v632q0 21 -11.5 27.5t-33.5 8.5l-45 3v24h278q96 0 181 -21.5t148 -67t99.5 -116.5t36.5 -169t-36.5 -170.5t-99 -120t-146.5 -70.5t-178 -23h-283v24zM343 31q76 0 140 18t110.5 57.5t72.5 103t26 153.5q0 97 -24 166t-70 113
t-111.5 64.5t-147.5 20.5h-83v-696h87zM65 418h377v-40h-377v40z" />
    <glyph glyph-name="Ebreve" unicode="&#x114;" horiz-adv-x="750" 
d="M55 24l45 3q22 2 33.5 8.5t11.5 27.5v632q0 21 -11.5 27.5t-33.5 8.5l-45 3v24h557l33 -222h-18l-102 174q-6 11 -11 13.5t-18 2.5h-250v-313h150q13 0 16.5 2.5t5.5 10.5l40 118h18v-297h-18l-40 117q-3 8 -6 10.5t-16 2.5h-150v-345h299q12 0 16.5 2.5t11.5 11.5
l137 178h18l-68 -224h-605v24zM385 829q-23 0 -49 6.5t-49 24t-40 48t-21 77.5h40q7 -60 39 -89.5t80 -29.5t80 29.5t39 89.5h40q-5 -47 -21.5 -77.5t-39.5 -48t-49 -24t-49 -6.5z" />
    <glyph glyph-name="Ecaron" unicode="&#x11a;" horiz-adv-x="750" 
d="M55 24l45 3q22 2 33.5 8.5t11.5 27.5v632q0 21 -11.5 27.5t-33.5 8.5l-45 3v24h557l33 -222h-18l-102 174q-6 11 -11 13.5t-18 2.5h-250v-313h150q13 0 16.5 2.5t5.5 10.5l40 118h18v-297h-18l-40 117q-3 8 -6 10.5t-16 2.5h-150v-345h299q12 0 16.5 2.5t11.5 11.5
l137 178h18l-68 -224h-605v24zM241 984l144 -72l144 72h19l-157 -151h-12l-157 151h19z" />
    <glyph glyph-name="Emacron" unicode="&#x112;" horiz-adv-x="750" 
d="M55 24l45 3q22 2 33.5 8.5t11.5 27.5v632q0 21 -11.5 27.5t-33.5 8.5l-45 3v24h557l33 -222h-18l-102 174q-6 11 -11 13.5t-18 2.5h-250v-313h150q13 0 16.5 2.5t5.5 10.5l40 118h18v-297h-18l-40 117q-3 8 -6 10.5t-16 2.5h-150v-345h299q12 0 16.5 2.5t11.5 11.5
l137 178h18l-68 -224h-605v24zM236 926h298v-44h-298v44z" />
    <glyph glyph-name="Eogonek" unicode="&#x118;" horiz-adv-x="750" 
d="M55 24l45 3q22 2 33.5 8.5t11.5 27.5v632q0 21 -11.5 27.5t-33.5 8.5l-45 3v24h557l33 -222h-18l-102 174q-6 11 -11 13.5t-18 2.5h-250v-313h150q13 0 16.5 2.5t5.5 10.5l40 118h18v-297h-18l-40 117q-3 8 -6 10.5t-16 2.5h-150v-345h299q12 0 16.5 2.5t11.5 11.5
l137 178h18l-68 -224h-605v24zM609 -233q-20 0 -39 5.5t-33.5 15.5t-23 25t-8.5 34q0 21 13.5 42.5t33.5 41.5t43 38t43 31h22q-15 -13 -31.5 -29.5t-30.5 -34.5t-23 -37t-9 -37q0 -30 22 -45t54 -15q18 0 34.5 4.5t30.5 10.5l2 -21q-17 -11 -44.5 -20t-55.5 -9z" />
    <glyph glyph-name="Edotaccent" unicode="&#x116;" horiz-adv-x="750" 
d="M55 24l45 3q22 2 33.5 8.5t11.5 27.5v632q0 21 -11.5 27.5t-33.5 8.5l-45 3v24h557l33 -222h-18l-102 174q-6 11 -11 13.5t-18 2.5h-250v-313h150q13 0 16.5 2.5t5.5 10.5l40 118h18v-297h-18l-40 117q-3 8 -6 10.5t-16 2.5h-150v-345h299q12 0 16.5 2.5t11.5 11.5
l137 178h18l-68 -224h-605v24zM385 854q-26 0 -45 19t-19 45q0 25 19 44.5t45 19.5t45 -19.5t19 -44.5q0 -26 -19 -45t-45 -19z" />
    <glyph glyph-name="Gbreve" unicode="&#x11e;" horiz-adv-x="883" 
d="M479 -12q-94 0 -173 27.5t-136.5 78.5t-89.5 123.5t-32 163.5t32.5 164t91 124t138 78.5t174.5 27.5q31 0 64 -2.5t64.5 -8t60 -14t51.5 -20.5l42 -217h-18l-113 182q-11 17 -20 24.5t-27 12.5q-23 7 -49 9t-59 2q-60 0 -117 -19t-101.5 -60t-71.5 -106t-27 -157
q0 -83 22 -152.5t63.5 -120t102 -79t137.5 -28.5q42 0 91 8t87 28v222q0 21 -11.5 28.5t-33.5 8.5l-118 3v32h355v-36l-90 -1v-196l3 -69q-29 -12 -64.5 -23t-74 -19.5t-78 -13.5t-75.5 -5zM482 829q-23 0 -49 6.5t-49 24t-40 48t-21 77.5h40q7 -60 39 -89.5t80 -29.5
t80 29.5t39 89.5h40q-5 -47 -21.5 -77.5t-39.5 -48t-49 -24t-49 -6.5z" />
    <glyph glyph-name="Gcircumflex" unicode="&#x11c;" horiz-adv-x="883" 
d="M479 -12q-94 0 -173 27.5t-136.5 78.5t-89.5 123.5t-32 163.5t32.5 164t91 124t138 78.5t174.5 27.5q31 0 64 -2.5t64.5 -8t60 -14t51.5 -20.5l42 -217h-18l-113 182q-11 17 -20 24.5t-27 12.5q-23 7 -49 9t-59 2q-60 0 -117 -19t-101.5 -60t-71.5 -106t-27 -157
q0 -83 22 -152.5t63.5 -120t102 -79t137.5 -28.5q42 0 91 8t87 28v222q0 21 -11.5 28.5t-33.5 8.5l-118 3v32h355v-36l-90 -1v-196l3 -69q-29 -12 -64.5 -23t-74 -19.5t-78 -13.5t-75.5 -5zM476 984h12l157 -151h-19l-144 72l-144 -72h-19z" />
    <glyph glyph-name="uni0122" unicode="&#x122;" horiz-adv-x="883" 
d="M479 -12q-94 0 -173 27.5t-136.5 78.5t-89.5 123.5t-32 163.5t32.5 164t91 124t138 78.5t174.5 27.5q31 0 64 -2.5t64.5 -8t60 -14t51.5 -20.5l42 -217h-18l-113 182q-11 17 -20 24.5t-27 12.5q-23 7 -49 9t-59 2q-60 0 -117 -19t-101.5 -60t-71.5 -106t-27 -157
q0 -83 22 -152.5t63.5 -120t102 -79t137.5 -28.5q42 0 91 8t87 28v222q0 21 -11.5 28.5t-33.5 8.5l-118 3v32h355v-36l-90 -1v-196l3 -69q-29 -12 -64.5 -23t-74 -19.5t-78 -13.5t-75.5 -5zM399 -323q44 32 67 62.5t23 61.5q0 29 -17 44.5t-46 22.5q-1 26 13 41t40 15
q32 0 52 -23t20 -56q0 -51 -39 -98.5t-102 -89.5z" />
    <glyph glyph-name="Gdotaccent" unicode="&#x120;" horiz-adv-x="883" 
d="M479 -12q-94 0 -173 27.5t-136.5 78.5t-89.5 123.5t-32 163.5t32.5 164t91 124t138 78.5t174.5 27.5q31 0 64 -2.5t64.5 -8t60 -14t51.5 -20.5l42 -217h-18l-113 182q-11 17 -20 24.5t-27 12.5q-23 7 -49 9t-59 2q-60 0 -117 -19t-101.5 -60t-71.5 -106t-27 -157
q0 -83 22 -152.5t63.5 -120t102 -79t137.5 -28.5q42 0 91 8t87 28v222q0 21 -11.5 28.5t-33.5 8.5l-118 3v32h355v-36l-90 -1v-196l3 -69q-29 -12 -64.5 -23t-74 -19.5t-78 -13.5t-75.5 -5zM482 854q-26 0 -45 19t-19 45q0 25 19 44.5t45 19.5t45 -19.5t19 -44.5
q0 -26 -19 -45t-45 -19z" />
    <glyph glyph-name="Hbar" unicode="&#x126;" horiz-adv-x="900" 
d="M55 24l45 3q22 2 33.5 8.5t11.5 27.5v632q0 21 -11.5 27.5t-33.5 8.5l-45 3v24h282v-24l-45 -3q-23 -2 -34.5 -8.5t-11.5 -27.5v-277h407v277q0 21 -11.5 27.5t-33.5 8.5l-45 3v24h282v-24l-45 -3q-22 -2 -33.5 -8.5t-11.5 -27.5v-632q0 -21 11.5 -27.5t33.5 -8.5l45 -3
v-24h-282v24l45 3q22 2 33.5 8.5t11.5 27.5v315h-407v-315q0 -21 11.5 -27.5t34.5 -8.5l45 -3v-24h-282v24zM54 592h791v-40h-791v40z" />
    <glyph glyph-name="Hcircumflex" unicode="&#x124;" horiz-adv-x="900" 
d="M55 24l45 3q22 2 33.5 8.5t11.5 27.5v632q0 21 -11.5 27.5t-33.5 8.5l-45 3v24h282v-24l-45 -3q-23 -2 -34.5 -8.5t-11.5 -27.5v-277h407v277q0 21 -11.5 27.5t-33.5 8.5l-45 3v24h282v-24l-45 -3q-22 -2 -33.5 -8.5t-11.5 -27.5v-632q0 -21 11.5 -27.5t33.5 -8.5l45 -3
v-24h-282v24l45 3q22 2 33.5 8.5t11.5 27.5v315h-407v-315q0 -21 11.5 -27.5t34.5 -8.5l45 -3v-24h-282v24zM443 984h12l157 -151h-19l-144 72l-144 -72h-19z" />
    <glyph glyph-name="Ibreve" unicode="&#x12c;" horiz-adv-x="391" 
d="M55 24l45 3q22 2 33.5 8.5t11.5 27.5v632q0 21 -11.5 27.5t-33.5 8.5l-45 3v24h282v-24l-45 -3q-23 -2 -34.5 -8.5t-11.5 -27.5v-632q0 -21 11.5 -27.5t34.5 -8.5l45 -3v-24h-282v24zM196 829q-23 0 -49 6.5t-49 24t-40 48t-21 77.5h40q7 -60 39 -89.5t80 -29.5t80 29.5
t39 89.5h40q-5 -47 -21.5 -77.5t-39.5 -48t-49 -24t-49 -6.5z" />
    <glyph glyph-name="Idotaccent" unicode="&#x130;" horiz-adv-x="391" 
d="M55 24l45 3q22 2 33.5 8.5t11.5 27.5v632q0 21 -11.5 27.5t-33.5 8.5l-45 3v24h282v-24l-45 -3q-23 -2 -34.5 -8.5t-11.5 -27.5v-632q0 -21 11.5 -27.5t34.5 -8.5l45 -3v-24h-282v24zM196 854q-26 0 -45 19t-19 45q0 25 19 44.5t45 19.5t45 -19.5t19 -44.5q0 -26 -19 -45
t-45 -19z" />
    <glyph glyph-name="Imacron" unicode="&#x12a;" horiz-adv-x="391" 
d="M55 24l45 3q22 2 33.5 8.5t11.5 27.5v632q0 21 -11.5 27.5t-33.5 8.5l-45 3v24h282v-24l-45 -3q-23 -2 -34.5 -8.5t-11.5 -27.5v-632q0 -21 11.5 -27.5t34.5 -8.5l45 -3v-24h-282v24zM47 926h298v-44h-298v44z" />
    <glyph glyph-name="Iogonek" unicode="&#x12e;" horiz-adv-x="391" 
d="M55 24l45 3q22 2 33.5 8.5t11.5 27.5v632q0 21 -11.5 27.5t-33.5 8.5l-45 3v24h282v-24l-45 -3q-23 -2 -34.5 -8.5t-11.5 -27.5v-632q0 -21 11.5 -27.5t34.5 -8.5l45 -3v-24h-282v24zM216 -233q-20 0 -39 5.5t-33.5 15.5t-23 25t-8.5 34q0 21 13.5 42.5t33.5 41.5t43 38
t43 31h22q-15 -13 -31.5 -29.5t-30.5 -34.5t-23 -37t-9 -37q0 -30 22 -45t54 -15q18 0 34.5 4.5t30.5 10.5l2 -21q-17 -11 -44.5 -20t-55.5 -9z" />
    <glyph glyph-name="Itilde" unicode="&#x128;" horiz-adv-x="391" 
d="M55 24l45 3q22 2 33.5 8.5t11.5 27.5v632q0 21 -11.5 27.5t-33.5 8.5l-45 3v24h282v-24l-45 -3q-23 -2 -34.5 -8.5t-11.5 -27.5v-632q0 -21 11.5 -27.5t34.5 -8.5l45 -3v-24h-282v24zM274 832q-26 0 -47 10.5t-39.5 23.5t-36.5 23.5t-39 10.5q-25 0 -39.5 -15.5
t-16.5 -46.5h-17q0 25 5 49t15.5 42.5t26.5 29.5t37 11q23 0 43 -10.5t39 -23.5t37.5 -23.5t39.5 -10.5q23 0 37.5 14.5t16.5 43.5h17q-1 -66 -25 -97t-54 -31z" />
    <glyph glyph-name="uni1ECA" unicode="&#x1eca;" horiz-adv-x="391" 
d="M55 24l45 3q22 2 33.5 8.5t11.5 27.5v632q0 21 -11.5 27.5t-33.5 8.5l-45 3v24h282v-24l-45 -3q-23 -2 -34.5 -8.5t-11.5 -27.5v-632q0 -21 11.5 -27.5t34.5 -8.5l45 -3v-24h-282v24zM196 -236q-26 0 -45 19t-19 45q0 25 19 44.5t45 19.5t45 -19.5t19 -44.5
q0 -26 -19 -45t-45 -19z" />
    <glyph glyph-name="Jcircumflex" unicode="&#x134;" horiz-adv-x="382" 
d="M-2 -95q45 37 74 63t45.5 51t23 54.5t6.5 74.5v549q0 20 -11 25.5t-33 6.5l-50 2v27h289v-27l-50 -2q-22 -1 -33 -6.5t-11 -25.5v-522q0 -41 -7 -68.5t-21 -50t-36 -42.5t-52 -45q-10 -8 -24 -19t-30.5 -22.5l-33 -23t-30.5 -21.5zM192 984h12l157 -151h-19l-144 72
l-144 -72h-19z" />
    <glyph glyph-name="uni0136" unicode="&#x136;" horiz-adv-x="794" 
d="M55 24l45 3q22 2 33.5 8.5t11.5 27.5v632q0 21 -11.5 27.5t-33.5 8.5l-45 3v24h282v-24l-45 -3q-23 -2 -34.5 -8.5t-11.5 -27.5v-315l350 327q10 9 4.5 15.5t-30.5 8.5l-64 3v24h264v-24l-52 -3q-30 -2 -46 -8t-32 -21l-295 -276l458 -426h-142l-415 377v-314
q0 -21 11.5 -27.5t34.5 -8.5l45 -3v-24h-282v24zM368 -323q44 32 67 62.5t23 61.5q0 29 -17 44.5t-46 22.5q-1 26 13 41t40 15q32 0 52 -23t20 -56q0 -51 -39 -98.5t-102 -89.5z" />
    <glyph glyph-name="Lacute" unicode="&#x139;" horiz-adv-x="703" 
d="M55 24l45 3q22 2 33.5 8.5t11.5 27.5v632q0 21 -11.5 27.5t-33.5 8.5l-45 3v24h282v-24l-45 -3q-23 -2 -34.5 -8.5t-11.5 -27.5v-663h260q12 0 16.5 2.5t11.5 11.5l137 178h18l-68 -224h-566v24zM283 972h127v-2l-223 -131h-20z" />
    <glyph glyph-name="Lcaron" unicode="&#x13d;" horiz-adv-x="703" 
d="M55 24l45 3q22 2 33.5 8.5t11.5 27.5v632q0 21 -11.5 27.5t-33.5 8.5l-45 3v24h282v-24l-45 -3q-23 -2 -34.5 -8.5t-11.5 -27.5v-663h260q12 0 16.5 2.5t11.5 11.5l137 178h18l-68 -224h-566v24zM398 546q44 32 67 62.5t23 61.5q0 29 -17 44.5t-46 22.5q-1 26 13 41.5
t40 15.5q32 0 52 -23t20 -57q0 -51 -39 -98t-102 -89z" />
    <glyph glyph-name="uni013B" unicode="&#x13b;" horiz-adv-x="703" 
d="M55 24l45 3q22 2 33.5 8.5t11.5 27.5v632q0 21 -11.5 27.5t-33.5 8.5l-45 3v24h282v-24l-45 -3q-23 -2 -34.5 -8.5t-11.5 -27.5v-663h260q12 0 16.5 2.5t11.5 11.5l137 178h18l-68 -224h-566v24zM291 -323q44 32 67 62.5t23 61.5q0 29 -17 44.5t-46 22.5q-1 26 13 41
t40 15q32 0 52 -23t20 -56q0 -51 -39 -98.5t-102 -89.5z" />
    <glyph glyph-name="Ldot" unicode="&#x13f;" horiz-adv-x="703" 
d="M55 24l45 3q22 2 33.5 8.5t11.5 27.5v632q0 21 -11.5 27.5t-33.5 8.5l-45 3v24h282v-24l-45 -3q-23 -2 -34.5 -8.5t-11.5 -27.5v-663h260q12 0 16.5 2.5t11.5 11.5l137 178h18l-68 -224h-566v24zM549 342q-26 0 -45 19t-19 45q0 25 19 44.5t45 19.5t45 -19.5t19 -44.5
q0 -26 -19 -45t-45 -19z" />
    <glyph glyph-name="glyph223" horiz-adv-x="703" 
d="M55 24l45 3q22 2 33.5 8.5t11.5 27.5v632q0 21 -11.5 27.5t-33.5 8.5l-45 3v24h282v-24l-45 -3q-23 -2 -34.5 -8.5t-11.5 -27.5v-663h260q12 0 16.5 2.5t11.5 11.5l137 178h18l-68 -224h-566v24zM549 342q-26 0 -45 19t-19 45q0 25 19 44.5t45 19.5t45 -19.5t19 -44.5
q0 -26 -19 -45t-45 -19z" />
    <glyph glyph-name="Lslash" unicode="&#x141;" horiz-adv-x="703" 
d="M55 24l45 3q22 2 33.5 8.5t11.5 27.5v632q0 21 -11.5 27.5t-33.5 8.5l-45 3v24h282v-24l-45 -3q-23 -2 -34.5 -8.5t-11.5 -27.5v-663h260q12 0 16.5 2.5t11.5 11.5l137 178h18l-68 -224h-566v24zM8 286l377 226v-46l-377 -227v47z" />
    <glyph glyph-name="Eng" unicode="&#x14a;" horiz-adv-x="883" 
d="M58 24l45 3q23 2 34 8.5t11 27.5v590l-91 103v2h132l520 -582v519q0 21 -11.5 27.5t-34.5 8.5l-45 3v24h220v-24l-45 -3q-23 -2 -34 -8.5t-11 -27.5v-660q0 -45 -5.5 -77.5t-17 -57.5t-29.5 -44.5t-44 -38.5q-20 -15 -52 -36.5t-64 -41.5l-13 18q35 30 60 53.5t40.5 51.5
t23 65t7.5 94v58l-467 530v-546q0 -21 11.5 -27.5t34.5 -8.5l44 -3v-24h-219v24z" />
    <glyph glyph-name="Nacute" unicode="&#x143;" horiz-adv-x="883" 
d="M58 24l45 3q23 2 34 8.5t11 27.5v590l-91 103v2h132l520 -582v519q0 21 -11.5 27.5t-34.5 8.5l-45 3v24h220v-24l-45 -3q-23 -2 -34 -8.5t-11 -27.5v-714h-4l-557 628v-546q0 -21 11.5 -27.5t34.5 -8.5l44 -3v-24h-219v24zM541 972h127v-2l-223 -131h-20z" />
    <glyph glyph-name="Ncaron" unicode="&#x147;" horiz-adv-x="883" 
d="M58 24l45 3q23 2 34 8.5t11 27.5v590l-91 103v2h132l520 -582v519q0 21 -11.5 27.5t-34.5 8.5l-45 3v24h220v-24l-45 -3q-23 -2 -34 -8.5t-11 -27.5v-714h-4l-557 628v-546q0 -21 11.5 -27.5t34.5 -8.5l44 -3v-24h-219v24zM309 984l144 -72l144 72h19l-157 -151h-12
l-157 151h19z" />
    <glyph glyph-name="uni0145" unicode="&#x145;" horiz-adv-x="883" 
d="M58 24l45 3q23 2 34 8.5t11 27.5v590l-91 103v2h132l520 -582v519q0 21 -11.5 27.5t-34.5 8.5l-45 3v24h220v-24l-45 -3q-23 -2 -34 -8.5t-11 -27.5v-714h-4l-557 628v-546q0 -21 11.5 -27.5t34.5 -8.5l44 -3v-24h-219v24zM368 -323q44 32 67 62.5t23 61.5q0 29 -17 44.5
t-46 22.5q-1 26 13 41t40 15q32 0 52 -23t20 -56q0 -51 -39 -98.5t-102 -89.5z" />
    <glyph glyph-name="OE" unicode="&#x152;" horiz-adv-x="1329" 
d="M447 -12q-83 0 -155.5 28t-126.5 80t-85.5 124t-31.5 161t31.5 161.5t85.5 124.5t126.5 80t155.5 28q98 0 172.5 -43.5t122.5 -115.5v142h449l34 -222h-10l-110 174q-7 11 -11.5 13.5t-17.5 2.5h-250v-313h150q12 0 15.5 2.5t6.5 10.5l47 118h10v-297h-10l-47 117
q-3 8 -6.5 10.5t-15.5 2.5h-150v-345h298q12 0 16.5 3t11.5 11l145 178h10l-68 -224h-497v147q-48 -72 -122.5 -115.5t-172.5 -43.5zM447 742q-61 0 -113 -24t-90.5 -70t-60.5 -113t-22 -154q0 -86 22 -153t60.5 -113t90.5 -70t113 -24t113 24t90 70t60 113t22 153
q0 87 -22 154t-60 113t-90 70t-113 24z" />
    <glyph glyph-name="Obreve" unicode="&#x14e;" horiz-adv-x="894" 
d="M447 -12q-83 0 -155.5 28t-126.5 80t-85.5 124t-31.5 161t31.5 161.5t85.5 124.5t126.5 80t155.5 28q82 0 155 -28t127 -80t85.5 -124.5t31.5 -161.5t-31.5 -161t-85.5 -124t-127 -80t-155 -28zM447 21q61 0 112.5 24t89.5 70t59.5 113t21.5 153q0 87 -21.5 154
t-59.5 113t-89.5 70t-112.5 24t-113 -24t-90 -70t-59.5 -113t-21.5 -154q0 -86 21.5 -153t59.5 -113t90 -70t113 -24zM447 829q-23 0 -49 6.5t-49 24t-40 48t-21 77.5h40q7 -60 39 -89.5t80 -29.5t80 29.5t39 89.5h40q-5 -47 -21.5 -77.5t-39.5 -48t-49 -24t-49 -6.5z" />
    <glyph glyph-name="Ohungarumlaut" unicode="&#x150;" horiz-adv-x="894" 
d="M447 -12q-83 0 -155.5 28t-126.5 80t-85.5 124t-31.5 161t31.5 161.5t85.5 124.5t126.5 80t155.5 28q82 0 155 -28t127 -80t85.5 -124.5t31.5 -161.5t-31.5 -161t-85.5 -124t-127 -80t-155 -28zM447 21q61 0 112.5 24t89.5 70t59.5 113t21.5 153q0 87 -21.5 154
t-59.5 113t-89.5 70t-112.5 24t-113 -24t-90 -70t-59.5 -113t-21.5 -154q0 -86 21.5 -153t59.5 -113t90 -70t113 -24zM454 972h127v-2l-223 -131h-20zM660 972h127v-2l-223 -131h-20z" />
    <glyph glyph-name="Omacron" unicode="&#x14c;" horiz-adv-x="894" 
d="M447 -12q-83 0 -155.5 28t-126.5 80t-85.5 124t-31.5 161t31.5 161.5t85.5 124.5t126.5 80t155.5 28q82 0 155 -28t127 -80t85.5 -124.5t31.5 -161.5t-31.5 -161t-85.5 -124t-127 -80t-155 -28zM447 21q61 0 112.5 24t89.5 70t59.5 113t21.5 153q0 87 -21.5 154
t-59.5 113t-89.5 70t-112.5 24t-113 -24t-90 -70t-59.5 -113t-21.5 -154q0 -86 21.5 -153t59.5 -113t90 -70t113 -24zM298 926h298v-44h-298v44z" />
    <glyph glyph-name="uni1ECC" unicode="&#x1ecc;" horiz-adv-x="894" 
d="M447 -12q-83 0 -155.5 28t-126.5 80t-85.5 124t-31.5 161t31.5 161.5t85.5 124.5t126.5 80t155.5 28q82 0 155 -28t127 -80t85.5 -124.5t31.5 -161.5t-31.5 -161t-85.5 -124t-127 -80t-155 -28zM447 21q61 0 112.5 24t89.5 70t59.5 113t21.5 153q0 87 -21.5 154
t-59.5 113t-89.5 70t-112.5 24t-113 -24t-90 -70t-59.5 -113t-21.5 -154q0 -86 21.5 -153t59.5 -113t90 -70t113 -24zM447 -236q-26 0 -45 19t-19 45q0 25 19 44.5t45 19.5t45 -19.5t19 -44.5q0 -26 -19 -45t-45 -19z" />
    <glyph glyph-name="Racute" unicode="&#x154;" horiz-adv-x="763" 
d="M55 24l45 3q22 2 33.5 8.5t11.5 27.5v632q0 21 -11.5 27.5t-33.5 8.5l-45 3v24h287q68 0 125.5 -8.5t99.5 -29.5t65.5 -56.5t23.5 -90.5q0 -84 -59 -129.5t-162 -58.5l350 -385h-129l-337 373h-73v-310q0 -21 11.5 -27.5t34.5 -8.5l45 -3v-24h-282v24zM334 404
q48 0 86.5 8.5t66 28t42 50t14.5 75.5q0 44 -14.5 75t-42 50t-66 27.5t-86.5 8.5h-88v-323h88zM457 972h127v-2l-223 -131h-20z" />
    <glyph glyph-name="Rcaron" unicode="&#x158;" horiz-adv-x="763" 
d="M55 24l45 3q22 2 33.5 8.5t11.5 27.5v632q0 21 -11.5 27.5t-33.5 8.5l-45 3v24h287q68 0 125.5 -8.5t99.5 -29.5t65.5 -56.5t23.5 -90.5q0 -84 -59 -129.5t-162 -58.5l350 -385h-129l-337 373h-73v-310q0 -21 11.5 -27.5t34.5 -8.5l45 -3v-24h-282v24zM334 404
q48 0 86.5 8.5t66 28t42 50t14.5 75.5q0 44 -14.5 75t-42 50t-66 27.5t-86.5 8.5h-88v-323h88zM225 984l144 -72l144 72h19l-157 -151h-12l-157 151h19z" />
    <glyph glyph-name="uni0156" unicode="&#x156;" horiz-adv-x="763" 
d="M55 24l45 3q22 2 33.5 8.5t11.5 27.5v632q0 21 -11.5 27.5t-33.5 8.5l-45 3v24h287q68 0 125.5 -8.5t99.5 -29.5t65.5 -56.5t23.5 -90.5q0 -84 -59 -129.5t-162 -58.5l350 -385h-129l-337 373h-73v-310q0 -21 11.5 -27.5t34.5 -8.5l45 -3v-24h-282v24zM334 404
q48 0 86.5 8.5t66 28t42 50t14.5 75.5q0 44 -14.5 75t-42 50t-66 27.5t-86.5 8.5h-88v-323h88zM377 -323q44 32 67 62.5t23 61.5q0 29 -17 44.5t-46 22.5q-1 26 13 41t40 15q32 0 52 -23t20 -56q0 -51 -39 -98.5t-102 -89.5z" />
    <glyph glyph-name="Sacute" unicode="&#x15a;" horiz-adv-x="629" 
d="M291 -12q-58 0 -105 6t-89 20l-23 229h18l86 -177q13 -26 39 -36q14 -5 31 -7.5t44 -2.5q39 0 74 9.5t61 27.5t41.5 44.5t15.5 59.5q0 36 -13 63t-36 47.5t-55.5 36t-72.5 28.5l-53 17q-88 28 -136 82.5t-48 138.5q0 48 22 85.5t58.5 63t84 39t97.5 13.5q48 0 90.5 -6.5
t79.5 -20.5l36 -204h-18l-97 159q-11 19 -21 24.5t-25 9.5q-14 3 -28 4t-31 1q-30 0 -59 -9t-51.5 -26.5t-36 -42.5t-13.5 -57q0 -51 30 -88t95 -58l53 -17q52 -17 96 -37.5t76 -48.5t49.5 -65.5t17.5 -88.5q0 -49 -22.5 -89t-61 -68t-90.5 -43.5t-110 -15.5zM403 972h127
v-2l-223 -131h-20z" />
    <glyph glyph-name="Scaron" unicode="&#x160;" horiz-adv-x="629" 
d="M291 -12q-58 0 -105 6t-89 20l-23 229h18l86 -177q13 -26 39 -36q14 -5 31 -7.5t44 -2.5q39 0 74 9.5t61 27.5t41.5 44.5t15.5 59.5q0 36 -13 63t-36 47.5t-55.5 36t-72.5 28.5l-53 17q-88 28 -136 82.5t-48 138.5q0 48 22 85.5t58.5 63t84 39t97.5 13.5q48 0 90.5 -6.5
t79.5 -20.5l36 -204h-18l-97 159q-11 19 -21 24.5t-25 9.5q-14 3 -28 4t-31 1q-30 0 -59 -9t-51.5 -26.5t-36 -42.5t-13.5 -57q0 -51 30 -88t95 -58l53 -17q52 -17 96 -37.5t76 -48.5t49.5 -65.5t17.5 -88.5q0 -49 -22.5 -89t-61 -68t-90.5 -43.5t-110 -15.5zM171 984
l144 -72l144 72h19l-157 -151h-12l-157 151h19z" />
    <glyph glyph-name="Scedilla" unicode="&#x15e;" horiz-adv-x="629" 
d="M291 -12q-58 0 -105 6t-89 20l-23 229h18l86 -177q13 -26 39 -36q14 -5 31 -7.5t44 -2.5q39 0 74 9.5t61 27.5t41.5 44.5t15.5 59.5q0 36 -13 63t-36 47.5t-55.5 36t-72.5 28.5l-53 17q-88 28 -136 82.5t-48 138.5q0 48 22 85.5t58.5 63t84 39t97.5 13.5q48 0 90.5 -6.5
t79.5 -20.5l36 -204h-18l-97 159q-11 19 -21 24.5t-25 9.5q-14 3 -28 4t-31 1q-30 0 -59 -9t-51.5 -26.5t-36 -42.5t-13.5 -57q0 -51 30 -88t95 -58l53 -17q52 -17 96 -37.5t76 -48.5t49.5 -65.5t17.5 -88.5q0 -49 -22.5 -89t-61 -68t-90.5 -43.5t-110 -15.5zM267 -260
q-17 0 -33.5 4t-29 11.5t-20 17.5t-7.5 23q0 12 10.5 19.5t27.5 4.5q1 -29 21 -43.5t45 -14.5q23 0 38.5 11t15.5 29q0 22 -33.5 42t-81.5 41l111 115h33l-82 -84q45 -23 68 -43t23 -52t-28.5 -56.5t-77.5 -24.5z" />
    <glyph glyph-name="Scircumflex" unicode="&#x15c;" horiz-adv-x="629" 
d="M291 -12q-58 0 -105 6t-89 20l-23 229h18l86 -177q13 -26 39 -36q14 -5 31 -7.5t44 -2.5q39 0 74 9.5t61 27.5t41.5 44.5t15.5 59.5q0 36 -13 63t-36 47.5t-55.5 36t-72.5 28.5l-53 17q-88 28 -136 82.5t-48 138.5q0 48 22 85.5t58.5 63t84 39t97.5 13.5q48 0 90.5 -6.5
t79.5 -20.5l36 -204h-18l-97 159q-11 19 -21 24.5t-25 9.5q-14 3 -28 4t-31 1q-30 0 -59 -9t-51.5 -26.5t-36 -42.5t-13.5 -57q0 -51 30 -88t95 -58l53 -17q52 -17 96 -37.5t76 -48.5t49.5 -65.5t17.5 -88.5q0 -49 -22.5 -89t-61 -68t-90.5 -43.5t-110 -15.5zM309 984h12
l157 -151h-19l-144 72l-144 -72h-19z" />
    <glyph glyph-name="uni0218" unicode="&#x218;" horiz-adv-x="629" 
d="M291 -12q-58 0 -105 6t-89 20l-23 229h18l86 -177q13 -26 39 -36q14 -5 31 -7.5t44 -2.5q39 0 74 9.5t61 27.5t41.5 44.5t15.5 59.5q0 36 -13 63t-36 47.5t-55.5 36t-72.5 28.5l-53 17q-88 28 -136 82.5t-48 138.5q0 48 22 85.5t58.5 63t84 39t97.5 13.5q48 0 90.5 -6.5
t79.5 -20.5l36 -204h-18l-97 159q-11 19 -21 24.5t-25 9.5q-14 3 -28 4t-31 1q-30 0 -59 -9t-51.5 -26.5t-36 -42.5t-13.5 -57q0 -51 30 -88t95 -58l53 -17q52 -17 96 -37.5t76 -48.5t49.5 -65.5t17.5 -88.5q0 -49 -22.5 -89t-61 -68t-90.5 -43.5t-110 -15.5zM247 -323
q44 32 67 62.5t23 61.5q0 29 -17 44.5t-46 22.5q-1 26 13 41t40 15q32 0 52 -23t20 -56q0 -51 -39 -98.5t-102 -89.5z" />
    <glyph glyph-name="Tbar" unicode="&#x166;" horiz-adv-x="756" 
d="M222 25l60 3q22 1 33.5 7.5t11.5 27.5v666h-174q-13 0 -18.5 -2.5t-10.5 -13.5l-88 -189h-18l24 234h671l25 -234h-18l-89 189q-5 11 -10.5 13.5t-17.5 2.5h-174v-666q0 -21 11 -27t34 -8l60 -3v-25h-312v25zM137 419h483v-40h-483v40z" />
    <glyph glyph-name="Tcaron" unicode="&#x164;" horiz-adv-x="756" 
d="M222 25l60 3q22 1 33.5 7.5t11.5 27.5v666h-174q-13 0 -18.5 -2.5t-10.5 -13.5l-88 -189h-18l24 234h671l25 -234h-18l-89 189q-5 11 -10.5 13.5t-17.5 2.5h-174v-666q0 -21 11 -27t34 -8l60 -3v-25h-312v25zM234 984l144 -72l144 72h19l-157 -151h-12l-157 151h19z" />
    <glyph glyph-name="uni0162" unicode="&#x162;" horiz-adv-x="756" 
d="M222 25l60 3q22 1 33.5 7.5t11.5 27.5v666h-174q-13 0 -18.5 -2.5t-10.5 -13.5l-88 -189h-18l24 234h671l25 -234h-18l-89 189q-5 11 -10.5 13.5t-17.5 2.5h-174v-666q0 -21 11 -27t34 -8l60 -3v-25h-312v25zM286 -323q44 32 67 62.5t23 61.5q0 29 -17 44.5t-46 22.5
q-1 26 13 41t40 15q32 0 52 -23t20 -56q0 -51 -39 -98.5t-102 -89.5z" />
    <glyph glyph-name="uni021A" unicode="&#x21a;" horiz-adv-x="756" 
d="M222 25l60 3q22 1 33.5 7.5t11.5 27.5v666h-174q-13 0 -18.5 -2.5t-10.5 -13.5l-88 -189h-18l24 234h671l25 -234h-18l-89 189q-5 11 -10.5 13.5t-17.5 2.5h-174v-666q0 -21 11 -27t34 -8l60 -3v-25h-312v25zM286 -323q44 32 67 62.5t23 61.5q0 29 -17 44.5t-46 22.5
q-1 26 13 41t40 15q32 0 52 -23t20 -56q0 -51 -39 -98.5t-102 -89.5z" />
    <glyph glyph-name="Ubreve" unicode="&#x16c;" horiz-adv-x="861" 
d="M434 -12q-150 0 -230.5 75t-80.5 233v399q0 21 -11.5 27.5t-33.5 8.5l-45 3v24h282v-24l-45 -3q-22 -2 -33.5 -8.5t-11.5 -27.5v-401q0 -133 57 -195.5t178 -62.5q123 0 181.5 67.5t58.5 199.5v392q0 21 -11 27.5t-34 8.5l-45 3v24h219v-24l-44 -3q-23 -2 -34.5 -8.5
t-11.5 -27.5v-398q0 -152 -77.5 -230.5t-227.5 -78.5zM463 829q-23 0 -49 6.5t-49 24t-40 48t-21 77.5h40q7 -60 39 -89.5t80 -29.5t80 29.5t39 89.5h40q-5 -47 -21.5 -77.5t-39.5 -48t-49 -24t-49 -6.5z" />
    <glyph glyph-name="Uhungarumlaut" unicode="&#x170;" horiz-adv-x="861" 
d="M434 -12q-150 0 -230.5 75t-80.5 233v399q0 21 -11.5 27.5t-33.5 8.5l-45 3v24h282v-24l-45 -3q-22 -2 -33.5 -8.5t-11.5 -27.5v-401q0 -133 57 -195.5t178 -62.5q123 0 181.5 67.5t58.5 199.5v392q0 21 -11 27.5t-34 8.5l-45 3v24h219v-24l-44 -3q-23 -2 -34.5 -8.5
t-11.5 -27.5v-398q0 -152 -77.5 -230.5t-227.5 -78.5zM470 972h127v-2l-223 -131h-20zM676 972h127v-2l-223 -131h-20z" />
    <glyph glyph-name="Umacron" unicode="&#x16a;" horiz-adv-x="861" 
d="M434 -12q-150 0 -230.5 75t-80.5 233v399q0 21 -11.5 27.5t-33.5 8.5l-45 3v24h282v-24l-45 -3q-22 -2 -33.5 -8.5t-11.5 -27.5v-401q0 -133 57 -195.5t178 -62.5q123 0 181.5 67.5t58.5 199.5v392q0 21 -11 27.5t-34 8.5l-45 3v24h219v-24l-44 -3q-23 -2 -34.5 -8.5
t-11.5 -27.5v-398q0 -152 -77.5 -230.5t-227.5 -78.5zM314 926h298v-44h-298v44z" />
    <glyph glyph-name="Uogonek" unicode="&#x172;" horiz-adv-x="861" 
d="M434 -12q-150 0 -230.5 75t-80.5 233v399q0 21 -11.5 27.5t-33.5 8.5l-45 3v24h282v-24l-45 -3q-22 -2 -33.5 -8.5t-11.5 -27.5v-401q0 -133 57 -195.5t178 -62.5q123 0 181.5 67.5t58.5 199.5v392q0 21 -11 27.5t-34 8.5l-45 3v24h219v-24l-44 -3q-23 -2 -34.5 -8.5
t-11.5 -27.5v-398q0 -128 -55.5 -204t-162.5 -97q-14 -13 -29.5 -29t-28 -33.5t-20.5 -35.5t-8 -36q0 -30 22 -45t54 -15q18 0 34.5 4.5t30.5 10.5l2 -21q-17 -11 -44.5 -20t-55.5 -9q-20 0 -39 5.5t-33.5 15.5t-23 25t-8.5 34t11.5 39t29.5 39t39 36t41 31q-15 -2 -30 -3
t-31 -1z" />
    <glyph glyph-name="Uring" unicode="&#x16e;" horiz-adv-x="861" 
d="M434 -12q-150 0 -230.5 75t-80.5 233v399q0 21 -11.5 27.5t-33.5 8.5l-45 3v24h282v-24l-45 -3q-22 -2 -33.5 -8.5t-11.5 -27.5v-401q0 -133 57 -195.5t178 -62.5q123 0 181.5 67.5t58.5 199.5v392q0 21 -11 27.5t-34 8.5l-45 3v24h219v-24l-44 -3q-23 -2 -34.5 -8.5
t-11.5 -27.5v-398q0 -152 -77.5 -230.5t-227.5 -78.5zM463 835q-24 0 -44.5 8.5t-36.5 23.5t-25 35.5t-9 44.5q0 23 9 43.5t25 35.5t36.5 24t44.5 9t45.5 -9t37.5 -24t25 -35.5t9 -43.5q0 -24 -9 -44.5t-25 -35.5t-37.5 -23.5t-45.5 -8.5zM463 871q34 0 55 21t21 55
q0 33 -21 53.5t-55 20.5q-33 0 -54 -20.5t-21 -53.5q0 -34 21 -55t54 -21z" />
    <glyph glyph-name="Utilde" unicode="&#x168;" horiz-adv-x="861" 
d="M434 -12q-150 0 -230.5 75t-80.5 233v399q0 21 -11.5 27.5t-33.5 8.5l-45 3v24h282v-24l-45 -3q-22 -2 -33.5 -8.5t-11.5 -27.5v-401q0 -133 57 -195.5t178 -62.5q123 0 181.5 67.5t58.5 199.5v392q0 21 -11 27.5t-34 8.5l-45 3v24h219v-24l-44 -3q-23 -2 -34.5 -8.5
t-11.5 -27.5v-398q0 -152 -77.5 -230.5t-227.5 -78.5zM541 832q-26 0 -47 10.5t-39.5 23.5t-36.5 23.5t-39 10.5q-25 0 -39.5 -15.5t-16.5 -46.5h-17q0 25 5 49t15.5 42.5t26.5 29.5t37 11q23 0 43 -10.5t39 -23.5t37.5 -23.5t39.5 -10.5q23 0 37.5 14.5t16.5 43.5h17
q-1 -66 -25 -97t-54 -31z" />
    <glyph glyph-name="uni1EE4" unicode="&#x1ee4;" horiz-adv-x="861" 
d="M434 -12q-150 0 -230.5 75t-80.5 233v399q0 21 -11.5 27.5t-33.5 8.5l-45 3v24h282v-24l-45 -3q-22 -2 -33.5 -8.5t-11.5 -27.5v-401q0 -133 57 -195.5t178 -62.5q123 0 181.5 67.5t58.5 199.5v392q0 21 -11 27.5t-34 8.5l-45 3v24h219v-24l-44 -3q-23 -2 -34.5 -8.5
t-11.5 -27.5v-398q0 -152 -77.5 -230.5t-227.5 -78.5zM449 -236q-26 0 -45 19t-19 45q0 25 19 44.5t45 19.5t45 -19.5t19 -44.5q0 -26 -19 -45t-45 -19z" />
    <glyph glyph-name="Wacute" unicode="&#x1e82;" horiz-adv-x="1183" 
d="M78 697q-8 19 -18.5 25.5t-32.5 8.5l-44 3v24h287v-24l-50 -3q-24 -2 -32.5 -8.5t-0.5 -25.5l235 -572l161 386l-93 247h260v-24l-92 -3q-24 -1 -32.5 -8t-1.5 -26l204 -572l236 572q8 19 -0.5 25.5t-32.5 8.5l-49 3v24h218v-24l-44 -3q-23 -2 -33 -8.5t-18 -25.5
l-302 -722h-17l-185 490l-206 -490h-16zM679 972h127v-2l-223 -131h-20z" />
    <glyph glyph-name="Wcircumflex" unicode="&#x174;" horiz-adv-x="1183" 
d="M78 697q-8 19 -18.5 25.5t-32.5 8.5l-44 3v24h287v-24l-50 -3q-24 -2 -32.5 -8.5t-0.5 -25.5l235 -572l161 386l-93 247h260v-24l-92 -3q-24 -1 -32.5 -8t-1.5 -26l204 -572l236 572q8 19 -0.5 25.5t-32.5 8.5l-49 3v24h218v-24l-44 -3q-23 -2 -33 -8.5t-18 -25.5
l-302 -722h-17l-185 490l-206 -490h-16zM585 984h12l157 -151h-19l-144 72l-144 -72h-19z" />
    <glyph glyph-name="Wdieresis" unicode="&#x1e84;" horiz-adv-x="1183" 
d="M78 697q-8 19 -18.5 25.5t-32.5 8.5l-44 3v24h287v-24l-50 -3q-24 -2 -32.5 -8.5t-0.5 -25.5l235 -572l161 386l-93 247h260v-24l-92 -3q-24 -1 -32.5 -8t-1.5 -26l204 -572l236 572q8 19 -0.5 25.5t-32.5 8.5l-49 3v24h218v-24l-44 -3q-23 -2 -33 -8.5t-18 -25.5
l-302 -722h-17l-185 490l-206 -490h-16zM475 854q-26 0 -45 19t-19 45q0 25 19 44.5t45 19.5t45 -19.5t19 -44.5q0 -26 -19 -45t-45 -19zM707 854q-26 0 -45 19t-19 45q0 25 19 44.5t45 19.5t45 -19.5t19 -44.5q0 -26 -19 -45t-45 -19z" />
    <glyph glyph-name="Wgrave" unicode="&#x1e80;" horiz-adv-x="1183" 
d="M78 697q-8 19 -18.5 25.5t-32.5 8.5l-44 3v24h287v-24l-50 -3q-24 -2 -32.5 -8.5t-0.5 -25.5l235 -572l161 386l-93 247h260v-24l-92 -3q-24 -1 -32.5 -8t-1.5 -26l204 -572l236 572q8 19 -0.5 25.5t-32.5 8.5l-49 3v24h218v-24l-44 -3q-23 -2 -33 -8.5t-18 -25.5
l-302 -722h-17l-185 490l-206 -490h-16zM617 839l-223 131v2h127l116 -133h-20z" />
    <glyph glyph-name="Ycircumflex" unicode="&#x176;" horiz-adv-x="770" 
d="M230 25l60 3q22 1 33.5 7.5t11.5 27.5v279l-248 355q-6 9 -11 15t-10 10t-12 6t-18 3l-44 3v24h290v-24l-50 -3q-23 -2 -34 -9.5t1 -24.5l221 -317l222 317q13 18 1.5 25t-34.5 9l-50 3v24h220v-24l-44 -3q-22 -2 -30.5 -9.5t-20.5 -24.5l-248 -355v-279q0 -21 11.5 -27
t34.5 -8l60 -3v-25h-312v25zM408 984h12l157 -151h-19l-144 72l-144 -72h-19z" />
    <glyph glyph-name="Ydieresis" unicode="&#x178;" horiz-adv-x="770" 
d="M230 25l60 3q22 1 33.5 7.5t11.5 27.5v279l-248 355q-6 9 -11 15t-10 10t-12 6t-18 3l-44 3v24h290v-24l-50 -3q-23 -2 -34 -9.5t1 -24.5l221 -317l222 317q13 18 1.5 25t-34.5 9l-50 3v24h220v-24l-44 -3q-22 -2 -30.5 -9.5t-20.5 -24.5l-248 -355v-279q0 -21 11.5 -27
t34.5 -8l60 -3v-25h-312v25zM298 854q-26 0 -45 19t-19 45q0 25 19 44.5t45 19.5t45 -19.5t19 -44.5q0 -26 -19 -45t-45 -19zM530 854q-26 0 -45 19t-19 45q0 25 19 44.5t45 19.5t45 -19.5t19 -44.5q0 -26 -19 -45t-45 -19z" />
    <glyph glyph-name="Ygrave" unicode="&#x1ef2;" horiz-adv-x="770" 
d="M230 25l60 3q22 1 33.5 7.5t11.5 27.5v279l-248 355q-6 9 -11 15t-10 10t-12 6t-18 3l-44 3v24h290v-24l-50 -3q-23 -2 -34 -9.5t1 -24.5l221 -317l222 317q13 18 1.5 25t-34.5 9l-50 3v24h220v-24l-44 -3q-22 -2 -30.5 -9.5t-20.5 -24.5l-248 -355v-279q0 -21 11.5 -27
t34.5 -8l60 -3v-25h-312v25zM440 839l-223 131v2h127l116 -133h-20z" />
    <glyph glyph-name="uni0232" unicode="&#x232;" horiz-adv-x="770" 
d="M230 25l60 3q22 1 33.5 7.5t11.5 27.5v279l-248 355q-6 9 -11 15t-10 10t-12 6t-18 3l-44 3v24h290v-24l-50 -3q-23 -2 -34 -9.5t1 -24.5l221 -317l222 317q13 18 1.5 25t-34.5 9l-50 3v24h220v-24l-44 -3q-22 -2 -30.5 -9.5t-20.5 -24.5l-248 -355v-279q0 -21 11.5 -27
t34.5 -8l60 -3v-25h-312v25zM265 926h298v-44h-298v44z" />
    <glyph glyph-name="Zacute" unicode="&#x179;" horiz-adv-x="732" 
d="M22 10l534 717h-325q-14 0 -19 -2.5t-13 -13.5l-131 -177h-18l69 224h563v-11l-532 -716h374q13 0 18 2.5t13 13.5l131 177h19l-70 -224h-613v10zM471 972h127v-2l-223 -131h-20z" />
    <glyph glyph-name="Zcaron" unicode="&#x17d;" horiz-adv-x="732" 
d="M22 10l534 717h-325q-14 0 -19 -2.5t-13 -13.5l-131 -177h-18l69 224h563v-11l-532 -716h374q13 0 18 2.5t13 13.5l131 177h19l-70 -224h-613v10zM239 984l144 -72l144 72h19l-157 -151h-12l-157 151h19z" />
    <glyph glyph-name="Zdotaccent" unicode="&#x17b;" horiz-adv-x="732" 
d="M22 10l534 717h-325q-14 0 -19 -2.5t-13 -13.5l-131 -177h-18l69 224h563v-11l-532 -716h374q13 0 18 2.5t13 13.5l131 177h19l-70 -224h-613v10zM383 854q-26 0 -45 19t-19 45q0 25 19 44.5t45 19.5t45 -19.5t19 -44.5q0 -26 -19 -45t-45 -19z" />
    <glyph glyph-name="uni018F" unicode="&#x18f;" horiz-adv-x="833" 
d="M408 -11q-69 0 -130 20.5t-109 59.5t-80 95t-42 126h633q2 11 2.5 23.5t0.5 20.5q0 93 -26 163.5t-70 117t-102.5 70t-123.5 23.5q-52 0 -101 -15t-88.5 -45.5t-67.5 -78t-37 -112.5h-24q6 74 35.5 133t77.5 100t111.5 63t138.5 22q79 0 147.5 -27t119.5 -77.5
t80.5 -123.5t29.5 -165q0 -89 -28 -161.5t-78 -124t-119 -79.5t-150 -28zM408 21q49 0 93 16.5t79 46t59.5 71.5t33.5 93h-512q20 -109 87 -168t160 -59z" />
    <glyph glyph-name="abreve" unicode="&#x103;" horiz-adv-x="540" 
d="M205 -12q-35 0 -64.5 11t-50.5 29.5t-32.5 43t-11.5 51.5q0 35 18 58.5t45 39.5t58.5 27.5t59.5 22.5q47 18 72.5 33t37.5 28.5t14 27.5t2 30q0 42 -25 70.5t-77 28.5q-60 0 -90 -40.5t-15 -110.5q-19 -4 -38 -4q-33 0 -50.5 13t-17.5 33q0 13 7.5 25t20.5 23t29 21
t34 19q41 22 84 36t85 14q73 0 110 -34.5t36 -124.5l-3 -315h76v-22l-158 -29l-7 112q-20 -66 -58.5 -91.5t-90.5 -25.5zM245 29q19 0 38 8t34 25t24.5 45t9.5 67l2 143q-20 -15 -38 -26.5t-47 -26.5q-26 -14 -47 -27t-36 -28t-23 -34t-8 -44q0 -20 5.5 -38t17 -32.5
t28.5 -23t40 -8.5zM255 614q-23 0 -49 6.5t-49 24t-40 48t-21 78.5h40q7 -60 39 -90t80 -30t80 30t39 90h40q-5 -48 -21.5 -78.5t-39.5 -48t-49 -24t-49 -6.5z" />
    <glyph glyph-name="amacron" unicode="&#x101;" horiz-adv-x="540" 
d="M205 -12q-35 0 -64.5 11t-50.5 29.5t-32.5 43t-11.5 51.5q0 35 18 58.5t45 39.5t58.5 27.5t59.5 22.5q47 18 72.5 33t37.5 28.5t14 27.5t2 30q0 42 -25 70.5t-77 28.5q-60 0 -90 -40.5t-15 -110.5q-19 -4 -38 -4q-33 0 -50.5 13t-17.5 33q0 13 7.5 25t20.5 23t29 21
t34 19q41 22 84 36t85 14q73 0 110 -34.5t36 -124.5l-3 -315h76v-22l-158 -29l-7 112q-20 -66 -58.5 -91.5t-90.5 -25.5zM245 29q19 0 38 8t34 25t24.5 45t9.5 67l2 143q-20 -15 -38 -26.5t-47 -26.5q-26 -14 -47 -27t-36 -28t-23 -34t-8 -44q0 -20 5.5 -38t17 -32.5
t28.5 -23t40 -8.5zM106 713h298v-45h-298v45z" />
    <glyph glyph-name="aogonek" unicode="&#x105;" horiz-adv-x="540" 
d="M205 -12q-35 0 -64.5 11t-50.5 29.5t-32.5 43t-11.5 51.5q0 35 18 58.5t45 39.5t58.5 27.5t59.5 22.5q47 18 72.5 33t37.5 28.5t14 27.5t2 30q0 42 -25 70.5t-77 28.5q-60 0 -90 -40.5t-15 -110.5q-19 -4 -38 -4q-33 0 -50.5 13t-17.5 33q0 13 7.5 25t20.5 23t29 21
t34 19q41 22 84 36t85 14q73 0 110 -34.5t36 -124.5l-3 -315h76v-22l-83 -15q-14 -13 -29.5 -29t-28.5 -33.5t-21 -36t-8 -36.5q0 -30 22 -45t54 -15q18 0 34.5 4.5t30.5 10.5l2 -21q-17 -11 -44.5 -20t-55.5 -9q-20 0 -39 5.5t-33.5 15.5t-23 25t-8.5 34t11.5 39t29.5 39
t39 36t41 31l-48 -9l-7 112q-20 -66 -58.5 -91.5t-90.5 -25.5zM245 29q19 0 38 8t34 25t24.5 45t9.5 67l2 143q-20 -15 -38 -26.5t-47 -26.5q-26 -14 -47 -27t-36 -28t-23 -34t-8 -44q0 -20 5.5 -38t17 -32.5t28.5 -23t40 -8.5z" />
    <glyph glyph-name="cacute" unicode="&#x107;" horiz-adv-x="554" 
d="M295 -12q-54 0 -100.5 19t-80.5 53.5t-53 83t-19 107.5q0 58 21.5 107t58.5 84.5t86 55t105 19.5q33 0 65 -7.5t57.5 -21.5t41.5 -34t16 -45q0 -26 -18.5 -40t-46.5 -14q-5 0 -10.5 0.5t-11.5 1.5q-6 72 -40 103t-83 31q-27 0 -52 -11t-44 -33.5t-30.5 -57.5t-12.5 -82
q-1 -52 12 -99t38 -82.5t61 -56.5t81 -21q23 0 47.5 6t47 21t41.5 41t30 67h23q-10 -52 -31.5 -89t-51.5 -60.5t-67.5 -34.5t-79.5 -11zM367 776h105v-7l-194 -172h-20z" />
    <glyph glyph-name="ccaron" unicode="&#x10d;" horiz-adv-x="554" 
d="M295 -12q-54 0 -100.5 19t-80.5 53.5t-53 83t-19 107.5q0 58 21.5 107t58.5 84.5t86 55t105 19.5q33 0 65 -7.5t57.5 -21.5t41.5 -34t16 -45q0 -26 -18.5 -40t-46.5 -14q-5 0 -10.5 0.5t-11.5 1.5q-6 72 -40 103t-83 31q-27 0 -52 -11t-44 -33.5t-30.5 -57.5t-12.5 -82
q-1 -52 12 -99t38 -82.5t61 -56.5t81 -21q23 0 47.5 6t47 21t41.5 41t30 67h23q-10 -52 -31.5 -89t-51.5 -60.5t-67.5 -34.5t-79.5 -11zM148 793l145 -109l145 109h20l-161 -196h-8l-161 196h20z" />
    <glyph glyph-name="ccircumflex" unicode="&#x109;" horiz-adv-x="554" 
d="M295 -12q-54 0 -100.5 19t-80.5 53.5t-53 83t-19 107.5q0 58 21.5 107t58.5 84.5t86 55t105 19.5q33 0 65 -7.5t57.5 -21.5t41.5 -34t16 -45q0 -26 -18.5 -40t-46.5 -14q-5 0 -10.5 0.5t-11.5 1.5q-6 72 -40 103t-83 31q-27 0 -52 -11t-44 -33.5t-30.5 -57.5t-12.5 -82
q-1 -52 12 -99t38 -82.5t61 -56.5t81 -21q23 0 47.5 6t47 21t41.5 41t30 67h23q-10 -52 -31.5 -89t-51.5 -60.5t-67.5 -34.5t-79.5 -11zM289 793h8l161 -196h-20l-145 110l-145 -110h-20z" />
    <glyph glyph-name="cdotaccent" unicode="&#x10b;" horiz-adv-x="554" 
d="M295 -12q-54 0 -100.5 19t-80.5 53.5t-53 83t-19 107.5q0 58 21.5 107t58.5 84.5t86 55t105 19.5q33 0 65 -7.5t57.5 -21.5t41.5 -34t16 -45q0 -26 -18.5 -40t-46.5 -14q-5 0 -10.5 0.5t-11.5 1.5q-6 72 -40 103t-83 31q-27 0 -52 -11t-44 -33.5t-30.5 -57.5t-12.5 -82
q-1 -52 12 -99t38 -82.5t61 -56.5t81 -21q23 0 47.5 6t47 21t41.5 41t30 67h23q-10 -52 -31.5 -89t-51.5 -60.5t-67.5 -34.5t-79.5 -11zM293 657q-26 0 -45 19t-19 45q0 25 19 44.5t45 19.5t45 -19.5t19 -44.5q0 -26 -19 -45t-45 -19z" />
    <glyph glyph-name="dcaron" unicode="&#x10f;" horiz-adv-x="656" 
d="M269 -12q-48 0 -89 18.5t-71 53t-47.5 83.5t-17.5 110q0 58 18 106.5t50 83.5t75.5 54.5t94.5 19.5q44 0 80 -17.5t59 -46.5v227l-93 41v6l187 64v-747h77v-22l-171 -31v70q-25 -32 -64.5 -52.5t-87.5 -20.5zM150 254q0 -48 12 -88t34 -69.5t52.5 -46t67.5 -16.5
q26 0 54.5 9.5t50.5 35.5v355q-23 26 -50.5 35.5t-53.5 9.5q-37 0 -68 -16.5t-53 -46t-34 -71t-12 -91.5zM584 546q44 32 67 62.5t23 61.5q0 29 -17 44.5t-46 22.5q-1 26 13 41.5t40 15.5q32 0 52 -23t20 -57q0 -51 -39 -98t-102 -89z" />
    <glyph glyph-name="dcroat" unicode="&#x111;" horiz-adv-x="616" 
d="M269 -12q-48 0 -89 18.5t-71 53t-47.5 83.5t-17.5 110q0 58 18 106.5t50 83.5t75.5 54.5t94.5 19.5q44 0 80 -17.5t59 -46.5v227l-93 41v6l187 64v-747h77v-22l-171 -31v70q-25 -32 -64.5 -52.5t-87.5 -20.5zM150 254q0 -48 12 -88t34 -69.5t52.5 -46t67.5 -16.5
q26 0 54.5 9.5t50.5 35.5v355q-23 26 -50.5 35.5t-53.5 9.5q-37 0 -68 -16.5t-53 -46t-34 -71t-12 -91.5zM297 624h295v-36h-295v36z" />
    <glyph glyph-name="ebreve" unicode="&#x115;" horiz-adv-x="577" 
d="M296 -12q-54 0 -100.5 18t-80 51.5t-53 82.5t-19.5 111q0 60 20.5 109t55.5 84t80.5 54t95.5 19q35 0 71.5 -11t68.5 -35t56.5 -63t35.5 -95h-382v-19q0 -55 14.5 -100t40 -77.5t60.5 -50.5t77 -18q24 0 50 5t50 19.5t45 41t35 69.5h23q-23 -101 -87.5 -148t-156.5 -47z
M292 493q-54 0 -93.5 -37.5t-50.5 -113.5h263q-1 31 -8 58.5t-21.5 48t-36.5 32.5t-53 12zM295 614q-23 0 -49 6.5t-49 24t-40 48t-21 78.5h40q7 -60 39 -90t80 -30t80 30t39 90h40q-5 -48 -21.5 -78.5t-39.5 -48t-49 -24t-49 -6.5z" />
    <glyph glyph-name="ecaron" unicode="&#x11b;" horiz-adv-x="577" 
d="M296 -12q-54 0 -100.5 18t-80 51.5t-53 82.5t-19.5 111q0 60 20.5 109t55.5 84t80.5 54t95.5 19q35 0 71.5 -11t68.5 -35t56.5 -63t35.5 -95h-382v-19q0 -55 14.5 -100t40 -77.5t60.5 -50.5t77 -18q24 0 50 5t50 19.5t45 41t35 69.5h23q-23 -101 -87.5 -148t-156.5 -47z
M292 493q-54 0 -93.5 -37.5t-50.5 -113.5h263q-1 31 -8 58.5t-21.5 48t-36.5 32.5t-53 12zM150 793l145 -109l145 109h20l-161 -196h-8l-161 196h20z" />
    <glyph glyph-name="emacron" unicode="&#x113;" horiz-adv-x="577" 
d="M296 -12q-54 0 -100.5 18t-80 51.5t-53 82.5t-19.5 111q0 60 20.5 109t55.5 84t80.5 54t95.5 19q35 0 71.5 -11t68.5 -35t56.5 -63t35.5 -95h-382v-19q0 -55 14.5 -100t40 -77.5t60.5 -50.5t77 -18q24 0 50 5t50 19.5t45 41t35 69.5h23q-23 -101 -87.5 -148t-156.5 -47z
M292 493q-54 0 -93.5 -37.5t-50.5 -113.5h263q-1 31 -8 58.5t-21.5 48t-36.5 32.5t-53 12zM146 713h298v-45h-298v45z" />
    <glyph glyph-name="eogonek" unicode="&#x119;" horiz-adv-x="577" 
d="M415 -204q-17 -11 -44.5 -20t-55.5 -9q-20 0 -39 5.5t-33.5 15.5t-23 25t-8.5 34q0 22 13 43t33.5 39.5t46 34.5t49.5 29q-9 -2 -27 -3.5t-30 -1.5q-54 0 -100.5 18t-80 51.5t-53 82.5t-19.5 111q0 60 20.5 109t55.5 84t80.5 54t95.5 19q35 0 71 -10.5t67.5 -34t56 -60.5
t36.5 -89h-380q-1 -7 -1 -14v-15q0 -55 14.5 -100t40 -77.5t60.5 -50.5t77 -18q26 0 53 6t51.5 23t45 48t33.5 82h23q-8 -47 -23 -80t-36 -57.5t-47 -42.5t-54 -34q-21 -12 -41 -27t-35.5 -31.5t-25 -34.5t-9.5 -38q0 -30 22 -45t54 -15q18 0 34.5 4.5t30.5 10.5zM292 493
q-53 0 -91.5 -35t-50.5 -106h261q-2 28 -9 53.5t-21.5 45t-36 31t-52.5 11.5z" />
    <glyph glyph-name="edotaccent" unicode="&#x117;" horiz-adv-x="577" 
d="M296 -12q-54 0 -100.5 18t-80 51.5t-53 82.5t-19.5 111q0 60 20.5 109t55.5 84t80.5 54t95.5 19q35 0 71.5 -11t68.5 -35t56.5 -63t35.5 -95h-382v-19q0 -55 14.5 -100t40 -77.5t60.5 -50.5t77 -18q24 0 50 5t50 19.5t45 41t35 69.5h23q-23 -101 -87.5 -148t-156.5 -47z
M292 493q-54 0 -93.5 -37.5t-50.5 -113.5h263q-1 31 -8 58.5t-21.5 48t-36.5 32.5t-53 12zM295 657q-26 0 -45 19t-19 45q0 25 19 44.5t45 19.5t45 -19.5t19 -44.5q0 -26 -19 -45t-45 -19z" />
    <glyph glyph-name="gbreve" unicode="&#x11f;" horiz-adv-x="589" 
d="M265 164q-38 0 -74 11l-77 -88l249 -24q100 -10 144.5 -36t44.5 -80q0 -42 -26.5 -79.5t-72.5 -66t-107.5 -45t-131.5 -16.5q-88 0 -140 32.5t-52 84.5q0 25 14 46.5t38.5 38.5t57 28t69.5 15q-20 5 -43.5 12.5t-45 16t-40 16.5t-29.5 14l124 140q-49 21 -78.5 62
t-29.5 94q0 38 16 70.5t43.5 56t65.5 37t83 13.5q38 0 72 -10t60 -28l30 56h170l-35 -64h-155q30 -23 47 -56.5t17 -72.5q0 -38 -16 -70.5t-43.5 -56.5t-65.5 -37.5t-83 -13.5zM283 189q42 0 70 31.5t28 93.5q0 36 -9 69t-26 57.5t-41 39t-53 14.5q-43 0 -71 -31.5
t-28 -93.5q0 -36 9 -69t26 -57.5t41 -39t54 -14.5zM247 -227q44 0 85 10t72.5 27t50.5 40t19 49q0 45 -53.5 63t-153.5 18q-45 0 -78 -9t-55 -24t-32.5 -34t-10.5 -39q0 -45 39.5 -73t116.5 -28zM281 614q-23 0 -49 6.5t-49 24t-40 48t-21 78.5h40q7 -60 39 -90t80 -30
t80 30t39 90h40q-5 -48 -21.5 -78.5t-39.5 -48t-49 -24t-49 -6.5z" />
    <glyph glyph-name="gcircumflex" unicode="&#x11d;" horiz-adv-x="589" 
d="M265 164q-38 0 -74 11l-77 -88l249 -24q100 -10 144.5 -36t44.5 -80q0 -42 -26.5 -79.5t-72.5 -66t-107.5 -45t-131.5 -16.5q-88 0 -140 32.5t-52 84.5q0 25 14 46.5t38.5 38.5t57 28t69.5 15q-20 5 -43.5 12.5t-45 16t-40 16.5t-29.5 14l124 140q-49 21 -78.5 62
t-29.5 94q0 38 16 70.5t43.5 56t65.5 37t83 13.5q38 0 72 -10t60 -28l30 56h170l-35 -64h-155q30 -23 47 -56.5t17 -72.5q0 -38 -16 -70.5t-43.5 -56.5t-65.5 -37.5t-83 -13.5zM283 189q42 0 70 31.5t28 93.5q0 36 -9 69t-26 57.5t-41 39t-53 14.5q-43 0 -71 -31.5
t-28 -93.5q0 -36 9 -69t26 -57.5t41 -39t54 -14.5zM247 -227q44 0 85 10t72.5 27t50.5 40t19 49q0 45 -53.5 63t-153.5 18q-45 0 -78 -9t-55 -24t-32.5 -34t-10.5 -39q0 -45 39.5 -73t116.5 -28zM277 793h8l161 -196h-20l-145 110l-145 -110h-20z" />
    <glyph glyph-name="uni0123" unicode="&#x123;" horiz-adv-x="589" 
d="M265 164q-38 0 -74 11l-77 -88l249 -24q100 -10 144.5 -36t44.5 -80q0 -42 -26.5 -79.5t-72.5 -66t-107.5 -45t-131.5 -16.5q-88 0 -140 32.5t-52 84.5q0 25 14 46.5t38.5 38.5t57 28t69.5 15q-20 5 -43.5 12.5t-45 16t-40 16.5t-29.5 14l124 140q-49 21 -78.5 62
t-29.5 94q0 38 16 70.5t43.5 56t65.5 37t83 13.5q38 0 72 -10t60 -28l30 56h170l-35 -64h-155q30 -23 47 -56.5t17 -72.5q0 -38 -16 -70.5t-43.5 -56.5t-65.5 -37.5t-83 -13.5zM283 189q42 0 70 31.5t28 93.5q0 36 -9 69t-26 57.5t-41 39t-53 14.5q-43 0 -71 -31.5
t-28 -93.5q0 -36 9 -69t26 -57.5t41 -39t54 -14.5zM247 -227q44 0 85 10t72.5 27t50.5 40t19 49q0 45 -53.5 63t-153.5 18q-45 0 -78 -9t-55 -24t-32.5 -34t-10.5 -39q0 -45 39.5 -73t116.5 -28zM360 830q-44 -32 -67 -62.5t-23 -61.5q0 -29 17 -44.5t46 -22.5
q1 -26 -13.5 -41t-39.5 -15q-32 0 -52 23t-20 56q0 51 39 98.5t102 89.5z" />
    <glyph glyph-name="gdotaccent" unicode="&#x121;" horiz-adv-x="589" 
d="M265 164q-38 0 -74 11l-77 -88l249 -24q100 -10 144.5 -36t44.5 -80q0 -42 -26.5 -79.5t-72.5 -66t-107.5 -45t-131.5 -16.5q-88 0 -140 32.5t-52 84.5q0 25 14 46.5t38.5 38.5t57 28t69.5 15q-20 5 -43.5 12.5t-45 16t-40 16.5t-29.5 14l124 140q-49 21 -78.5 62
t-29.5 94q0 38 16 70.5t43.5 56t65.5 37t83 13.5q38 0 72 -10t60 -28l30 56h170l-35 -64h-155q30 -23 47 -56.5t17 -72.5q0 -38 -16 -70.5t-43.5 -56.5t-65.5 -37.5t-83 -13.5zM283 189q42 0 70 31.5t28 93.5q0 36 -9 69t-26 57.5t-41 39t-53 14.5q-43 0 -71 -31.5
t-28 -93.5q0 -36 9 -69t26 -57.5t41 -39t54 -14.5zM247 -227q44 0 85 10t72.5 27t50.5 40t19 49q0 45 -53.5 63t-153.5 18q-45 0 -78 -9t-55 -24t-32.5 -34t-10.5 -39q0 -45 39.5 -73t116.5 -28zM281 657q-26 0 -45 19t-19 45q0 25 19 44.5t45 19.5t45 -19.5t19 -44.5
q0 -26 -19 -45t-45 -19z" />
    <glyph glyph-name="hbar" unicode="&#x127;" horiz-adv-x="610" 
d="M26 23l35 2q25 1 31.5 7t6.5 26v622l-73 41v6l167 64v-412q16 70 60 104t107 34q73 0 113.5 -45t40.5 -154v-260q0 -20 6.5 -26t32.5 -7l34 -2v-23h-240v23l35 2q25 1 31.5 7t6.5 26v242q0 45 -7 76t-20.5 49.5t-33.5 26.5t-46 8q-24 0 -46 -8.5t-38.5 -28t-26 -50
t-9.5 -73.5v-242q0 -20 6.5 -26t32.5 -7l34 -2v-23h-240v23zM21 624h295v-36h-295v36z" />
    <glyph glyph-name="hcircumflex" unicode="&#x125;" horiz-adv-x="610" 
d="M26 23l35 2q25 1 31.5 7t6.5 26v622l-73 41v6l167 64v-412q16 70 60 104t107 34q73 0 113.5 -45t40.5 -154v-260q0 -20 6.5 -26t32.5 -7l34 -2v-23h-240v23l35 2q25 1 31.5 7t6.5 26v242q0 45 -7 76t-20.5 49.5t-33.5 26.5t-46 8q-24 0 -46 -8.5t-38.5 -28t-26 -50
t-9.5 -73.5v-242q0 -20 6.5 -26t32.5 -7l34 -2v-23h-240v23zM132 1001h12l157 -151h-19l-144 72l-144 -72h-19z" />
    <glyph glyph-name="dotlessi" unicode="&#x131;" horiz-adv-x="309" 
d="M39 23l35 2q23 2 30.5 7.5t7.5 25.5v349l-73 41v6l167 64v-460q0 -20 7.5 -25.5t31.5 -7.5l34 -2v-23h-240v23z" />
    <glyph glyph-name="ibreve" unicode="&#x12d;" horiz-adv-x="309" 
d="M39 23l35 2q23 2 30.5 7.5t7.5 25.5v349l-73 41v6l167 64v-460q0 -20 7.5 -25.5t31.5 -7.5l34 -2v-23h-240v23zM149 614q-23 0 -49 6.5t-49 24t-40 48t-21 78.5h40q7 -60 39 -90t80 -30t80 30t39 90h40q-5 -48 -21.5 -78.5t-39.5 -48t-49 -24t-49 -6.5z" />
    <glyph glyph-name="imacron" unicode="&#x12b;" horiz-adv-x="309" 
d="M39 23l35 2q23 2 30.5 7.5t7.5 25.5v349l-73 41v6l167 64v-460q0 -20 7.5 -25.5t31.5 -7.5l34 -2v-23h-240v23zM0 713h298v-45h-298v45z" />
    <glyph glyph-name="iogonek" unicode="&#x12f;" horiz-adv-x="309" 
d="M39 23l35 2q23 2 30.5 7.5t7.5 25.5v349l-73 41v6l167 64v-460q0 -20 7.5 -25.5t31.5 -7.5l34 -2v-23h-240v23zM95 722q0 25 19 44t45 19t45 -19t19 -44q0 -26 -19 -45.5t-45 -19.5t-45 19.5t-19 45.5zM158 -233q-20 0 -39 5.5t-33.5 15.5t-23 25t-8.5 34q0 21 13.5 42.5
t33.5 41.5t43 38t43 31h22q-15 -13 -31.5 -29.5t-30.5 -34.5t-23 -37t-9 -37q0 -30 22 -45t54 -15q18 0 34.5 4.5t30.5 10.5l2 -21q-17 -11 -44.5 -20t-55.5 -9z" />
    <glyph glyph-name="itilde" unicode="&#x129;" horiz-adv-x="309" 
d="M39 23l35 2q23 2 30.5 7.5t7.5 25.5v349l-73 41v6l167 64v-460q0 -20 7.5 -25.5t31.5 -7.5l34 -2v-23h-240v23zM227 629q-26 0 -47 10.5t-39.5 23.5t-36.5 23.5t-39 10.5q-25 0 -39.5 -15.5t-16.5 -45.5h-17q0 25 5 48.5t15.5 42t26.5 29.5t37 11q23 0 43 -10.5t39 -23.5
t37.5 -23.5t39.5 -10.5q23 0 37.5 15t16.5 44h17q-1 -66 -25 -97.5t-54 -31.5z" />
    <glyph glyph-name="uni1ECB" unicode="&#x1ecb;" horiz-adv-x="309" 
d="M39 23l35 2q23 2 30.5 7.5t7.5 25.5v349l-73 41v6l167 64v-460q0 -20 7.5 -25.5t31.5 -7.5l34 -2v-23h-240v23zM95 722q0 25 19 44t45 19t45 -19t19 -44q0 -26 -19 -45.5t-45 -19.5t-45 19.5t-19 45.5zM159 -234q-26 0 -45 19t-19 45q0 25 19 44.5t45 19.5t45 -19.5
t19 -44.5q0 -26 -19 -45t-45 -19z" />
    <glyph glyph-name="uni0237" unicode="&#x237;" horiz-adv-x="279" 
d="M-31 -243q36 30 60.5 54.5t40 53t22.5 67.5t7 99v376l-73 41v6l167 64v-483q0 -45 -5.5 -77.5t-17 -57.5t-29.5 -44.5t-44 -38.5q-20 -15 -51.5 -36.5t-64.5 -41.5z" />
    <glyph glyph-name="jcircumflex" unicode="&#x135;" horiz-adv-x="279" 
d="M-31 -243q36 30 60.5 54.5t40 53t22.5 67.5t7 99v376l-73 41v6l167 64v-483q0 -45 -5.5 -77.5t-17 -57.5t-29.5 -44.5t-44 -38.5q-20 -15 -51.5 -36.5t-64.5 -41.5zM132 793h8l161 -196h-20l-145 110l-145 -110h-20z" />
    <glyph glyph-name="uni0137" unicode="&#x137;" horiz-adv-x="590" 
d="M26 23l35 2q25 1 31.5 7t6.5 26v622l-73 41v6l167 64v-522l212 173q16 14 13 24.5t-29 11.5l-36 1v23h209v-23l-33 -2q-13 -1 -22.5 -3t-18.5 -6t-18 -10t-19 -15l-170 -136l315 -307h-128l-275 260v-202q0 -20 6.5 -26t32.5 -7l34 -2v-23h-240v23zM251 -323
q44 32 67 62.5t23 61.5q0 29 -17 44.5t-46 22.5q-1 26 13 41t40 15q32 0 52 -23t20 -56q0 -51 -39 -98.5t-102 -89.5z" />
    <glyph glyph-name="lacute" unicode="&#x13a;" horiz-adv-x="300" 
d="M30 23l35 2q25 1 31.5 7t6.5 26v622l-73 41v6l167 64v-733q0 -20 6.5 -26t32.5 -7l34 -2v-23h-240v23zM218 1032h105v-7l-194 -172h-20z" />
    <glyph glyph-name="lcaron" unicode="&#x13e;" horiz-adv-x="340" 
d="M30 23l35 2q25 1 31.5 7t6.5 26v622l-73 41v6l167 64v-733q0 -20 6.5 -26t32.5 -7l34 -2v-23h-240v23zM278 546q44 32 67 62.5t23 61.5q0 29 -17 44.5t-46 22.5q-1 26 13 41.5t40 15.5q32 0 52 -23t20 -57q0 -51 -39 -98t-102 -89z" />
    <glyph glyph-name="uni013C" unicode="&#x13c;" horiz-adv-x="300" 
d="M30 23l35 2q25 1 31.5 7t6.5 26v622l-73 41v6l167 64v-733q0 -20 6.5 -26t32.5 -7l34 -2v-23h-240v23zM58 -323q44 32 67 62.5t23 61.5q0 29 -17 44.5t-46 22.5q-1 26 13 41t40 15q32 0 52 -23t20 -56q0 -51 -39 -98.5t-102 -89.5z" />
    <glyph glyph-name="ldot" unicode="&#x140;" horiz-adv-x="386" 
d="M30 23l35 2q25 1 31.5 7t6.5 26v622l-73 41v6l167 64v-733q0 -20 6.5 -26t32.5 -7l34 -2v-23h-240v23zM342 331q-26 0 -45 19t-19 45q0 25 19 44.5t45 19.5t45 -19.5t19 -44.5q0 -26 -19 -45t-45 -19z" />
    <glyph glyph-name="glyph298" horiz-adv-x="386" 
d="M30 23l35 2q25 1 31.5 7t6.5 26v622l-73 41v6l167 64v-733q0 -20 6.5 -26t32.5 -7l34 -2v-23h-240v23zM342 331q-26 0 -45 19t-19 45q0 25 19 44.5t45 19.5t45 -19.5t19 -44.5q0 -26 -19 -45t-45 -19z" />
    <glyph glyph-name="lslash" unicode="&#x142;" horiz-adv-x="360" 
d="M60 23l35 2q25 1 31.5 7t6.5 26v622l-73 41v6l167 64v-733q0 -20 6.5 -26t32.5 -7l34 -2v-23h-240v23zM23 321l314 183v-42l-314 -182v41z" />
    <glyph glyph-name="eng" unicode="&#x14b;" horiz-adv-x="602" 
d="M369 517q73 0 113.5 -45t40.5 -154v-283q0 -45 -5 -77.5t-16.5 -57.5t-29.5 -44.5t-44 -38.5q-20 -15 -52 -36.5t-64 -41.5l-13 18q36 30 60.5 54.5t40 53t22.5 67.5t7 99v269q0 45 -7 76t-20.5 49.5t-33.5 26.5t-46 8q-24 0 -46 -8.5t-38.5 -28t-26 -50t-9.5 -73.5v-242
q0 -20 6.5 -26t32.5 -7l34 -2v-23h-240v23l35 2q25 1 31.5 7t6.5 26v349l-73 41v6l167 64v-139q16 70 60 104t107 34z" />
    <glyph glyph-name="nacute" unicode="&#x144;" horiz-adv-x="619" 
d="M35 23l35 2q25 1 31.5 7t6.5 26v349l-73 41v6l167 64v-139q16 70 60 104t107 34q73 0 113.5 -45t40.5 -154v-260q0 -20 6.5 -26t32.5 -7l34 -2v-23h-240v23l35 2q25 1 31.5 7t6.5 26v242q0 45 -7 76t-20.5 49.5t-33.5 26.5t-46 8q-24 0 -46 -8.5t-38.5 -28t-26 -50
t-9.5 -73.5v-242q0 -20 6.5 -26t32.5 -7l34 -2v-23h-240v23zM389 776h105v-7l-194 -172h-20z" />
    <glyph glyph-name="ncaron" unicode="&#x148;" horiz-adv-x="619" 
d="M35 23l35 2q25 1 31.5 7t6.5 26v349l-73 41v6l167 64v-139q16 70 60 104t107 34q73 0 113.5 -45t40.5 -154v-260q0 -20 6.5 -26t32.5 -7l34 -2v-23h-240v23l35 2q25 1 31.5 7t6.5 26v242q0 45 -7 76t-20.5 49.5t-33.5 26.5t-46 8q-24 0 -46 -8.5t-38.5 -28t-26 -50
t-9.5 -73.5v-242q0 -20 6.5 -26t32.5 -7l34 -2v-23h-240v23zM170 793l145 -109l145 109h20l-161 -196h-8l-161 196h20z" />
    <glyph glyph-name="uni0146" unicode="&#x146;" horiz-adv-x="619" 
d="M35 23l35 2q25 1 31.5 7t6.5 26v349l-73 41v6l167 64v-139q16 70 60 104t107 34q73 0 113.5 -45t40.5 -154v-260q0 -20 6.5 -26t32.5 -7l34 -2v-23h-240v23l35 2q25 1 31.5 7t6.5 26v242q0 45 -7 76t-20.5 49.5t-33.5 26.5t-46 8q-24 0 -46 -8.5t-38.5 -28t-26 -50
t-9.5 -73.5v-242q0 -20 6.5 -26t32.5 -7l34 -2v-23h-240v23zM233 -323q44 32 67 62.5t23 61.5q0 29 -17 44.5t-46 22.5q-1 26 13 41t40 15q32 0 52 -23t20 -56q0 -51 -39 -98.5t-102 -89.5z" />
    <glyph glyph-name="oe" unicode="&#x153;" horiz-adv-x="991" 
d="M305 517q68 0 119 -32.5t80 -86.5q32 57 86 88t119 31q35 0 71.5 -11t68.5 -35t56.5 -63t35.5 -95h-382q-3 -50 8 -97.5t35.5 -85t62 -60t86.5 -22.5q24 0 50 5t50 19.5t45 41t35 69.5h23q-23 -101 -87.5 -148t-156.5 -47q-71 0 -125 30t-85 86q-31 -54 -82 -85t-116 -31
q-54 0 -101 19.5t-82.5 54t-56 83t-20.5 105.5q0 61 22 110.5t58.5 84t84 53.5t98.5 19zM706 493q-54 0 -93.5 -37.5t-50.5 -113.5h263q-1 31 -8 58.5t-21.5 48t-36.5 32.5t-53 12zM147 253q0 -63 12.5 -107.5t34.5 -72.5t50 -41t60 -13q31 0 59 13t49.5 41t34 72.5
t12.5 107.5q0 64 -12.5 108.5t-34 72.5t-49.5 41t-59 13q-32 0 -60 -13t-50 -41t-34.5 -72.5t-12.5 -108.5z" />
    <glyph glyph-name="obreve" unicode="&#x14f;" horiz-adv-x="619" 
d="M308 -12q-54 0 -102 19.5t-84.5 54t-58 83t-21.5 105.5q0 61 23 110.5t60.5 84t86 53.5t99.5 19q54 0 102 -19.5t84.5 -54t58 -82.5t21.5 -105q0 -61 -22.5 -110.5t-60 -84.5t-86 -54t-100.5 -19zM310 17q31 0 59 13t50 41.5t35 73.5t13 108q0 64 -13 109t-35 73.5
t-50 41.5t-59 13q-32 0 -60.5 -13t-50.5 -41.5t-35 -73.5t-13 -109q0 -63 13 -108t35 -73.5t50.5 -41.5t60.5 -13zM310 614q-23 0 -49 6.5t-49 24t-40 48t-21 78.5h40q7 -60 39 -90t80 -30t80 30t39 90h40q-5 -48 -21.5 -78.5t-39.5 -48t-49 -24t-49 -6.5z" />
    <glyph glyph-name="ohungarumlaut" unicode="&#x151;" horiz-adv-x="619" 
d="M308 -12q-54 0 -102 19.5t-84.5 54t-58 83t-21.5 105.5q0 61 23 110.5t60.5 84t86 53.5t99.5 19q54 0 102 -19.5t84.5 -54t58 -82.5t21.5 -105q0 -61 -22.5 -110.5t-60 -84.5t-86 -54t-100.5 -19zM310 17q31 0 59 13t50 41.5t35 73.5t13 108q0 64 -13 109t-35 73.5
t-50 41.5t-59 13q-32 0 -60.5 -13t-50.5 -41.5t-35 -73.5t-13 -109q0 -63 13 -108t35 -73.5t50.5 -41.5t60.5 -13zM326 776h105v-7l-194 -172h-19zM503 776h105v-7l-194 -172h-20z" />
    <glyph glyph-name="omacron" unicode="&#x14d;" horiz-adv-x="619" 
d="M308 -12q-54 0 -102 19.5t-84.5 54t-58 83t-21.5 105.5q0 61 23 110.5t60.5 84t86 53.5t99.5 19q54 0 102 -19.5t84.5 -54t58 -82.5t21.5 -105q0 -61 -22.5 -110.5t-60 -84.5t-86 -54t-100.5 -19zM310 17q31 0 59 13t50 41.5t35 73.5t13 108q0 64 -13 109t-35 73.5
t-50 41.5t-59 13q-32 0 -60.5 -13t-50.5 -41.5t-35 -73.5t-13 -109q0 -63 13 -108t35 -73.5t50.5 -41.5t60.5 -13zM161 713h298v-45h-298v45z" />
    <glyph glyph-name="uni1ECD" unicode="&#x1ecd;" horiz-adv-x="619" 
d="M308 -12q-54 0 -102 19.5t-84.5 54t-58 83t-21.5 105.5q0 61 23 110.5t60.5 84t86 53.5t99.5 19q54 0 102 -19.5t84.5 -54t58 -82.5t21.5 -105q0 -61 -22.5 -110.5t-60 -84.5t-86 -54t-100.5 -19zM310 17q31 0 59 13t50 41.5t35 73.5t13 108q0 64 -13 109t-35 73.5
t-50 41.5t-59 13q-32 0 -60.5 -13t-50.5 -41.5t-35 -73.5t-13 -109q0 -63 13 -108t35 -73.5t50.5 -41.5t60.5 -13zM309 -234q-26 0 -45 19t-19 45q0 25 19 44.5t45 19.5t45 -19.5t19 -44.5q0 -26 -19 -45t-45 -19z" />
    <glyph glyph-name="racute" unicode="&#x155;" horiz-adv-x="416" 
d="M35 23l35 2q25 1 31.5 7t6.5 26v349l-73 41v6l167 64v-158q19 81 69 116t115 35h9v-95l-39 4q-44 3 -73.5 -4.5t-47.5 -23t-25.5 -38t-7.5 -49.5v-247q0 -20 6.5 -25.5t32.5 -6.5l54 -3v-23h-260v23zM332 776h105v-7l-194 -172h-20z" />
    <glyph glyph-name="rcaron" unicode="&#x159;" horiz-adv-x="416" 
d="M35 23l35 2q25 1 31.5 7t6.5 26v349l-73 41v6l167 64v-158q19 81 69 116t115 35h9v-95l-39 4q-44 3 -73.5 -4.5t-47.5 -23t-25.5 -38t-7.5 -49.5v-247q0 -20 6.5 -25.5t32.5 -6.5l54 -3v-23h-260v23zM113 793l145 -109l145 109h20l-161 -196h-8l-161 196h20z" />
    <glyph glyph-name="uni0157" unicode="&#x157;" horiz-adv-x="416" 
d="M35 23l35 2q25 1 31.5 7t6.5 26v349l-73 41v6l167 64v-158q19 81 69 116t115 35h9v-95l-39 4q-44 3 -73.5 -4.5t-47.5 -23t-25.5 -38t-7.5 -49.5v-247q0 -20 6.5 -25.5t32.5 -6.5l54 -3v-23h-260v23zM72 -323q44 32 67 62.5t23 61.5q0 29 -17 44.5t-46 22.5q-1 26 13 41
t40 15q32 0 52 -23t20 -56q0 -51 -39 -98.5t-102 -89.5z" />
    <glyph glyph-name="sacute" unicode="&#x15b;" horiz-adv-x="472" 
d="M213 -12q-37 0 -70 4t-65 13l-21 177h20l75 -142q11 -20 28 -24t45 -4q19 0 40 6t38.5 17.5t29 29t11.5 40.5q0 22 -8 38t-21 27.5t-30.5 19t-35.5 12.5l-60 16q-56 15 -91.5 54.5t-35.5 98.5q0 36 16 63.5t43 45.5t62.5 27.5t74.5 9.5q62 0 119 -22l24 -157h-21l-80 131
q-9 15 -26.5 19t-38.5 4q-19 0 -37 -5.5t-32 -16t-22.5 -26t-8.5 -36.5q0 -41 22 -62t53 -29l61 -16q31 -8 59.5 -21t49.5 -31.5t33.5 -44.5t12.5 -60t-16 -62.5t-44.5 -49.5t-67.5 -32.5t-85 -11.5zM322 776h105v-7l-194 -172h-20z" />
    <glyph glyph-name="scaron" unicode="&#x161;" horiz-adv-x="472" 
d="M213 -12q-37 0 -70 4t-65 13l-21 177h20l75 -142q11 -20 28 -24t45 -4q19 0 40 6t38.5 17.5t29 29t11.5 40.5q0 22 -8 38t-21 27.5t-30.5 19t-35.5 12.5l-60 16q-56 15 -91.5 54.5t-35.5 98.5q0 36 16 63.5t43 45.5t62.5 27.5t74.5 9.5q62 0 119 -22l24 -157h-21l-80 131
q-9 15 -26.5 19t-38.5 4q-19 0 -37 -5.5t-32 -16t-22.5 -26t-8.5 -36.5q0 -41 22 -62t53 -29l61 -16q31 -8 59.5 -21t49.5 -31.5t33.5 -44.5t12.5 -60t-16 -62.5t-44.5 -49.5t-67.5 -32.5t-85 -11.5zM103 793l145 -109l145 109h20l-161 -196h-8l-161 196h20z" />
    <glyph glyph-name="scedilla" unicode="&#x15f;" horiz-adv-x="472" 
d="M213 -12q-37 0 -70 4t-65 13l-21 177h20l75 -142q11 -20 28 -24t45 -4q19 0 40 6t38.5 17.5t29 29t11.5 40.5q0 22 -8 38t-21 27.5t-30.5 19t-35.5 12.5l-60 16q-56 15 -91.5 54.5t-35.5 98.5q0 36 16 63.5t43 45.5t62.5 27.5t74.5 9.5q62 0 119 -22l24 -157h-21l-80 131
q-9 15 -26.5 19t-38.5 4q-19 0 -37 -5.5t-32 -16t-22.5 -26t-8.5 -36.5q0 -41 22 -62t53 -29l61 -16q31 -8 59.5 -21t49.5 -31.5t33.5 -44.5t12.5 -60t-16 -62.5t-44.5 -49.5t-67.5 -32.5t-85 -11.5zM188 -257q-17 0 -33 4t-29 11.5t-20.5 17.5t-7.5 23q0 12 10.5 20.5
t27.5 5.5q1 -29 19 -44.5t47 -15.5q21 0 38 9t17 28q0 24 -34 44.5t-82 41.5l111 115h30l-81 -84q46 -23 69.5 -43t23.5 -52t-28.5 -56.5t-77.5 -24.5z" />
    <glyph glyph-name="scircumflex" unicode="&#x15d;" horiz-adv-x="472" 
d="M213 -12q-37 0 -70 4t-65 13l-21 177h20l75 -142q11 -20 28 -24t45 -4q19 0 40 6t38.5 17.5t29 29t11.5 40.5q0 22 -8 38t-21 27.5t-30.5 19t-35.5 12.5l-60 16q-56 15 -91.5 54.5t-35.5 98.5q0 36 16 63.5t43 45.5t62.5 27.5t74.5 9.5q62 0 119 -22l24 -157h-21l-80 131
q-9 15 -26.5 19t-38.5 4q-19 0 -37 -5.5t-32 -16t-22.5 -26t-8.5 -36.5q0 -41 22 -62t53 -29l61 -16q31 -8 59.5 -21t49.5 -31.5t33.5 -44.5t12.5 -60t-16 -62.5t-44.5 -49.5t-67.5 -32.5t-85 -11.5zM244 793h8l161 -196h-20l-145 110l-145 -110h-20z" />
    <glyph glyph-name="uni0219" unicode="&#x219;" horiz-adv-x="472" 
d="M213 -12q-37 0 -70 4t-65 13l-21 177h20l75 -142q11 -20 28 -24t45 -4q19 0 40 6t38.5 17.5t29 29t11.5 40.5q0 22 -8 38t-21 27.5t-30.5 19t-35.5 12.5l-60 16q-56 15 -91.5 54.5t-35.5 98.5q0 36 16 63.5t43 45.5t62.5 27.5t74.5 9.5q62 0 119 -22l24 -157h-21l-80 131
q-9 15 -26.5 19t-38.5 4q-19 0 -37 -5.5t-32 -16t-22.5 -26t-8.5 -36.5q0 -41 22 -62t53 -29l61 -16q31 -8 59.5 -21t49.5 -31.5t33.5 -44.5t12.5 -60t-16 -62.5t-44.5 -49.5t-67.5 -32.5t-85 -11.5zM163 -323q44 32 67 62.5t23 61.5q0 29 -17 44.5t-46 22.5q-1 26 13 41
t40 15q32 0 52 -23t20 -56q0 -51 -39 -98.5t-102 -89.5z" />
    <glyph glyph-name="tbar" unicode="&#x167;" horiz-adv-x="435" 
d="M225 119q0 -45 17.5 -61.5t50.5 -16.5q49 0 93 22l9 -18q-11 -9 -29 -18.5t-39 -17t-44.5 -12.5t-46.5 -5q-53 0 -79 21t-26 80v358h-108v6l196 153h6v-108h194l-32 -51h-162v-332zM31 360h371v-35h-371v35z" />
    <glyph glyph-name="tcaron" unicode="&#x165;" horiz-adv-x="395" 
d="M205 119q0 -45 17.5 -61.5t50.5 -16.5q49 0 93 22l9 -18q-11 -9 -29 -18.5t-39 -17t-44.5 -12.5t-46.5 -5q-53 0 -79 21t-26 80v358h-108v6l196 153h6v-108h194l-32 -51h-162v-332zM277 594q44 32 67 62.5t23 61.5q0 29 -17 44.5t-46 22.5q-1 26 13 41.5t40 15.5
q32 0 52 -23t20 -57q0 -51 -39 -98t-102 -89z" />
    <glyph glyph-name="uni0163" unicode="&#x163;" horiz-adv-x="395" 
d="M205 119q0 -45 17.5 -61.5t50.5 -16.5q49 0 93 22l9 -18q-11 -9 -29 -18.5t-39 -17t-44.5 -12.5t-46.5 -5q-53 0 -79 21t-26 80v358h-108v6l196 153h6v-108h194l-32 -51h-162v-332zM92 -323q44 32 67 62.5t23 61.5q0 29 -17 44.5t-46 22.5q-1 26 13 41t40 15q32 0 52 -23
t20 -56q0 -51 -39 -98.5t-102 -89.5z" />
    <glyph glyph-name="uni021B" unicode="&#x21b;" horiz-adv-x="395" 
d="M205 119q0 -45 17.5 -61.5t50.5 -16.5q49 0 93 22l9 -18q-11 -9 -29 -18.5t-39 -17t-44.5 -12.5t-46.5 -5q-53 0 -79 21t-26 80v358h-108v6l196 153h6v-108h194l-32 -51h-162v-332zM92 -323q44 32 67 62.5t23 61.5q0 29 -17 44.5t-46 22.5q-1 26 13 41t40 15q32 0 52 -23
t20 -56q0 -51 -39 -98.5t-102 -89.5z" />
    <glyph glyph-name="ubreve" unicode="&#x16d;" horiz-adv-x="611" 
d="M250 -12q-37 0 -65.5 10.5t-48 34.5t-30 62t-10.5 93v274l-72 18v22h166v-297q0 -90 26.5 -125t79.5 -35q25 0 46.5 8.5t38 28t26 50t9.5 74.5v256l-71 18v22h165v-458h77v-22l-171 -31v135q-16 -69 -60 -103.5t-106 -34.5zM301 614q-23 0 -49 6.5t-49 24t-40 48
t-21 78.5h40q7 -60 39 -90t80 -30t80 30t39 90h40q-5 -48 -21.5 -78.5t-39.5 -48t-49 -24t-49 -6.5z" />
    <glyph glyph-name="uhungarumlaut" unicode="&#x171;" horiz-adv-x="611" 
d="M250 -12q-37 0 -65.5 10.5t-48 34.5t-30 62t-10.5 93v274l-72 18v22h166v-297q0 -90 26.5 -125t79.5 -35q25 0 46.5 8.5t38 28t26 50t9.5 74.5v256l-71 18v22h165v-458h77v-22l-171 -31v135q-16 -69 -60 -103.5t-106 -34.5zM317 776h105v-7l-194 -172h-19zM494 776h105
v-7l-194 -172h-20z" />
    <glyph glyph-name="umacron" unicode="&#x16b;" horiz-adv-x="611" 
d="M250 -12q-37 0 -65.5 10.5t-48 34.5t-30 62t-10.5 93v274l-72 18v22h166v-297q0 -90 26.5 -125t79.5 -35q25 0 46.5 8.5t38 28t26 50t9.5 74.5v256l-71 18v22h165v-458h77v-22l-171 -31v135q-16 -69 -60 -103.5t-106 -34.5zM152 713h298v-45h-298v45z" />
    <glyph glyph-name="uogonek" unicode="&#x173;" horiz-adv-x="611" 
d="M250 -12q-37 0 -65.5 10.5t-48 34.5t-30 62t-10.5 93v274l-72 18v22h166v-297q0 -90 26.5 -125t79.5 -35q25 0 46.5 8.5t38 28t26 50t9.5 74.5v256l-71 18v22h165v-458h77v-22l-153 -27q-14 -13 -28.5 -28.5t-26 -32t-19 -34t-7.5 -33.5q0 -30 22 -45t54 -15
q18 0 34.5 4.5t30.5 10.5l2 -21q-17 -11 -44.5 -20t-55.5 -9q-20 0 -39 5.5t-33.5 15.5t-23 25t-8.5 34t12 39.5t30.5 40t40 36.5t41.5 31v127q-16 -69 -60 -103.5t-106 -34.5z" />
    <glyph glyph-name="uring" unicode="&#x16f;" horiz-adv-x="611" 
d="M250 -12q-37 0 -65.5 10.5t-48 34.5t-30 62t-10.5 93v274l-72 18v22h166v-297q0 -90 26.5 -125t79.5 -35q25 0 46.5 8.5t38 28t26 50t9.5 74.5v256l-71 18v22h165v-458h77v-22l-171 -31v135q-16 -69 -60 -103.5t-106 -34.5zM301 585q-24 0 -44.5 8.5t-36.5 23.5t-25 35.5
t-9 43.5t9 43.5t25 35.5t36.5 24t44.5 9t45.5 -9t37.5 -24t25 -35.5t9 -43.5t-9 -43.5t-25 -35.5t-37.5 -23.5t-45.5 -8.5zM301 621q34 0 55 21t21 54t-21 54t-55 21q-33 0 -54 -21t-21 -54t21 -54t54 -21z" />
    <glyph glyph-name="utilde" unicode="&#x169;" horiz-adv-x="611" 
d="M250 -12q-37 0 -65.5 10.5t-48 34.5t-30 62t-10.5 93v274l-72 18v22h166v-297q0 -90 26.5 -125t79.5 -35q25 0 46.5 8.5t38 28t26 50t9.5 74.5v256l-71 18v22h165v-458h77v-22l-171 -31v135q-16 -69 -60 -103.5t-106 -34.5zM379 629q-26 0 -47 10.5t-39.5 23.5
t-36.5 23.5t-39 10.5q-25 0 -39.5 -15.5t-16.5 -45.5h-17q0 25 5 48.5t15.5 42t26.5 29.5t37 11q23 0 43 -10.5t39 -23.5t37.5 -23.5t39.5 -10.5q23 0 37.5 15t16.5 44h17q-1 -66 -25 -97.5t-54 -31.5z" />
    <glyph glyph-name="uni1EE5" unicode="&#x1ee5;" horiz-adv-x="611" 
d="M250 -12q-37 0 -65.5 10.5t-48 34.5t-30 62t-10.5 93v274l-72 18v22h166v-297q0 -90 26.5 -125t79.5 -35q25 0 46.5 8.5t38 28t26 50t9.5 74.5v256l-71 18v22h165v-458h77v-22l-171 -31v135q-16 -69 -60 -103.5t-106 -34.5zM311 -234q-26 0 -45 19t-19 45q0 25 19 44.5
t45 19.5t45 -19.5t19 -44.5q0 -26 -19 -45t-45 -19z" />
    <glyph glyph-name="wacute" unicode="&#x1e83;" horiz-adv-x="872" 
d="M74 439q-9 20 -17.5 29t-31.5 10l-29 1v23h243v-23l-33 -1q-47 -2 -32 -36l143 -331l105 241l-63 150h201v-23l-41 -1q-46 -1 -32 -36l135 -330l132 314q12 27 3.5 39t-32.5 13l-36 1v23h190v-23l-32 -1q-23 -1 -33.5 -10.5t-20.5 -31.5l-193 -447h-27l-136 326
l-142 -326h-27zM531 776h105v-7l-194 -172h-20z" />
    <glyph glyph-name="wcircumflex" unicode="&#x175;" horiz-adv-x="872" 
d="M74 439q-9 20 -17.5 29t-31.5 10l-29 1v23h243v-23l-33 -1q-47 -2 -32 -36l143 -331l105 241l-63 150h201v-23l-41 -1q-46 -1 -32 -36l135 -330l132 314q12 27 3.5 39t-32.5 13l-36 1v23h190v-23l-32 -1q-23 -1 -33.5 -10.5t-20.5 -31.5l-193 -447h-27l-136 326
l-142 -326h-27zM453 793h8l161 -196h-20l-145 110l-145 -110h-20z" />
    <glyph glyph-name="wdieresis" unicode="&#x1e85;" horiz-adv-x="872" 
d="M74 439q-9 20 -17.5 29t-31.5 10l-29 1v23h243v-23l-33 -1q-47 -2 -32 -36l143 -331l105 241l-63 150h201v-23l-41 -1q-46 -1 -32 -36l135 -330l132 314q12 27 3.5 39t-32.5 13l-36 1v23h190v-23l-32 -1q-23 -1 -33.5 -10.5t-20.5 -31.5l-193 -447h-27l-136 326
l-142 -326h-27zM573 642q-26 0 -45 19.5t-19 45.5q0 25 19 44t45 19t45 -19t19 -44q0 -26 -19 -45.5t-45 -19.5zM341 642q-26 0 -45 19.5t-19 45.5q0 25 19 44t45 19t45 -19t19 -44q0 -26 -19 -45.5t-45 -19.5z" />
    <glyph glyph-name="wgrave" unicode="&#x1e81;" horiz-adv-x="872" 
d="M74 439q-9 20 -17.5 29t-31.5 10l-29 1v23h243v-23l-33 -1q-47 -2 -32 -36l143 -331l105 241l-63 150h201v-23l-41 -1q-46 -1 -32 -36l135 -330l132 314q12 27 3.5 39t-32.5 13l-36 1v23h190v-23l-32 -1q-23 -1 -33.5 -10.5t-20.5 -31.5l-193 -447h-27l-136 326
l-142 -326h-27zM475 597l-194 172v7h105l109 -179h-20z" />
    <glyph glyph-name="ycircumflex" unicode="&#x177;" horiz-adv-x="567" 
d="M141 -253q-22 0 -37 14t-15 36q0 12 5.5 25t19.5 25t37 21.5t58 15.5l53 116l-185 439q-9 20 -17.5 29t-31.5 10l-29 1v23h243v-23l-33 -1q-46 -1 -32 -36l137 -328l139 312q12 27 3.5 39t-32.5 13l-37 1v23h190v-23l-32 -1q-23 -1 -33.5 -10.5t-20.5 -31.5l-268 -593
q-11 -24 -19 -42t-17 -30t-20 -18t-26 -6zM304 793h8l161 -196h-20l-145 110l-145 -110h-20z" />
    <glyph glyph-name="ygrave" unicode="&#x1ef3;" horiz-adv-x="567" 
d="M141 -253q-22 0 -37 14t-15 36q0 12 5.5 25t19.5 25t37 21.5t58 15.5l53 116l-185 439q-9 20 -17.5 29t-31.5 10l-29 1v23h243v-23l-33 -1q-46 -1 -32 -36l137 -328l139 312q12 27 3.5 39t-32.5 13l-37 1v23h190v-23l-32 -1q-23 -1 -33.5 -10.5t-20.5 -31.5l-268 -593
q-11 -24 -19 -42t-17 -30t-20 -18t-26 -6zM326 597l-194 172v7h105l109 -179h-20z" />
    <glyph glyph-name="uni0233" unicode="&#x233;" horiz-adv-x="567" 
d="M141 -253q-22 0 -37 14t-15 36q0 12 5.5 25t19.5 25t37 21.5t58 15.5l53 116l-185 439q-9 20 -17.5 29t-31.5 10l-29 1v23h243v-23l-33 -1q-46 -1 -32 -36l137 -328l139 312q12 27 3.5 39t-32.5 13l-37 1v23h190v-23l-32 -1q-23 -1 -33.5 -10.5t-20.5 -31.5l-268 -593
q-11 -24 -19 -42t-17 -30t-20 -18t-26 -6zM159 713h298v-45h-298v45z" />
    <glyph glyph-name="zacute" unicode="&#x17a;" horiz-adv-x="528" 
d="M361 474h-158q-17 0 -27 -4t-18 -17l-98 -147h-18l47 196h396l-330 -474h164q17 0 26.5 4.5t20.5 18.5l115 149h19l-63 -200h-407zM345 776h105v-7l-194 -172h-20z" />
    <glyph glyph-name="zcaron" unicode="&#x17e;" horiz-adv-x="528" 
d="M361 474h-158q-17 0 -27 -4t-18 -17l-98 -147h-18l47 196h396l-330 -474h164q17 0 26.5 4.5t20.5 18.5l115 149h19l-63 -200h-407zM126 793l145 -109l145 109h20l-161 -196h-8l-161 196h20z" />
    <glyph glyph-name="zdotaccent" unicode="&#x17c;" horiz-adv-x="528" 
d="M361 474h-158q-17 0 -27 -4t-18 -17l-98 -147h-18l47 196h396l-330 -474h164q17 0 26.5 4.5t20.5 18.5l115 149h19l-63 -200h-407zM271 657q-26 0 -45 19t-19 45q0 25 19 44.5t45 19.5t45 -19.5t19 -44.5q0 -26 -19 -45t-45 -19z" />
    <glyph glyph-name="uni0259" unicode="&#x259;" horiz-adv-x="577" 
d="M280.982 517.969q53.9971 0 100.494 -17.999t79.9951 -51.4971t52.9971 -82.4951t19.499 -110.993q0 -59.9961 -20.499 -108.993t-55.4971 -83.9951q-34.9971 -34.998 -80.4951 -53.9961q-45.4971 -18.999 -95.4941 -18.999q-34.9971 0 -71.4951 10.999t-68.4961 34.998
q-31.998 23.998 -56.4961 62.9961q-24.499 38.9971 -35.498 94.9941h381.977v18.999q0 54.9961 -14.499 99.9932q-14.499 44.998 -39.998 77.4961q-25.498 32.498 -60.4961 50.4961q-34.998 17.999 -76.9951 17.999q-23.999 0 -49.9971 -4.99902
q-25.998 -5 -49.9971 -19.499q-23.998 -14.499 -44.9971 -40.998q-20.999 -26.498 -34.998 -69.4951h-22.998q22.998 100.994 87.4941 147.991t156.49 46.9971zM284.982 12.999q53.9971 0 93.4941 37.498q39.498 37.4971 50.4971 113.493h-262.983
q1 -30.998 7.99902 -58.4971q7 -27.498 21.499 -47.9971q14.499 -20.498 36.498 -32.498q21.998 -11.999 52.9961 -11.999z" />
    <glyph glyph-name="uni0410" unicode="&#x410;" horiz-adv-x="818" 
d="M684 61q8 -19 18.5 -25.5t33.5 -8.5l44 -3v-24h-289v24l50 3q24 2 32.5 8.5t0.5 25.5l-86 218h-283l-86 -218q-8 -19 0.5 -25.5t32.5 -8.5l50 -3v-24h-218v24l44 3q22 2 32.5 8.5t18.5 25.5l295 733h16zM473 319l-126 320l-126 -320h252z" />
    <glyph glyph-name="uni0411" unicode="&#x411;" horiz-adv-x="763" 
d="M256 726v-295h116q167 0 252.5 -49.5t85.5 -156.5q0 -103 -85 -164t-253 -61h-307v24l45 3q22 2 33.5 8.5t11.5 27.5v632q0 21 -11.5 27.5t-33.5 8.5l-45 3v24h555l34 -222h-18l-103 174q-6 11 -11 13.5t-17 2.5h-249zM346 31q128 0 189.5 43.5t61.5 142.5
q0 100 -60.5 141.5t-178.5 41.5h-102v-369h90z" />
    <glyph glyph-name="uni0412" unicode="&#x412;" horiz-adv-x="763" 
d="M55 24l45 3q22 2 33.5 8.5t11.5 27.5v632q0 21 -11.5 27.5t-33.5 8.5l-45 3v24h299q64 0 117.5 -8.5t92 -28.5t59.5 -53t21 -82q0 -38 -15 -69t-42.5 -54.5t-66.5 -38.5t-87 -20v-2q59 0 108 -11t84.5 -33.5t55 -57t19.5 -81.5q0 -100 -80 -159.5t-238 -59.5h-327v24z
M364 416q84 0 128.5 41.5t44.5 116.5q0 82 -49 117.5t-143 35.5h-99v-311h118zM356 31q118 0 174.5 42t56.5 138q0 48 -15 81t-43.5 53.5t-69 30t-91.5 9.5h-122v-354h110z" />
    <glyph glyph-name="uni0413" unicode="&#x413;" horiz-adv-x="673" 
d="M256 63q0 -21 11.5 -27.5t34.5 -7.5l86 -2v-26h-323v24l45 3q22 2 33.5 8.5t11.5 27.5v632q0 21 -11.5 27.5t-33.5 8.5l-45 3v24h550l34 -222h-18l-103 174q-6 11 -11 13.5t-17 2.5h-244v-663z" />
    <glyph glyph-name="uni0414" unicode="&#x414;" horiz-adv-x="801" 
d="M47 -159h-17l8 190h82q17 41 33.5 100t29.5 139.5t21 185.5t8 239q0 21 -11.5 27.5t-33.5 8.5l-45 3v24h610v-24l-45 -3q-22 -2 -33.5 -8.5t-11.5 -27.5v-664h104l8 -190h-17l-75 147q-4 7 -9.5 9.5t-16.5 2.5h-488q-12 0 -17 -2.5t-9 -9.5zM541 727h-290q0 -144 -8 -255
t-21 -195t-29 -144t-33 -102h381v696z" />
    <glyph glyph-name="uni0415" unicode="&#x415;" horiz-adv-x="770" 
d="M55 24l45 3q22 2 33.5 8.5t11.5 27.5v632q0 21 -11.5 27.5t-33.5 8.5l-45 3v24h557l33 -222h-18l-102 174q-6 11 -11 13.5t-18 2.5h-250v-313h150q13 0 16.5 2.5t5.5 10.5l40 118h18v-297h-18l-40 117q-3 8 -6 10.5t-16 2.5h-150v-345h299q12 0 16.5 2.5t11.5 11.5
l137 178h18l-68 -224h-605v24z" />
    <glyph glyph-name="uni0401" unicode="&#x401;" horiz-adv-x="770" 
d="M55 24l45 3q22 2 33.5 8.5t11.5 27.5v632q0 21 -11.5 27.5t-33.5 8.5l-45 3v24h557l33 -222h-18l-102 174q-6 11 -11 13.5t-18 2.5h-250v-313h150q13 0 16.5 2.5t5.5 10.5l40 118h18v-297h-18l-40 117q-3 8 -6 10.5t-16 2.5h-150v-345h299q12 0 16.5 2.5t11.5 11.5
l137 178h18l-68 -224h-605v24zM269 854q-26 0 -45 19t-19 45q0 25 19 44.5t45 19.5t45 -19.5t19 -44.5q0 -26 -19 -45t-45 -19zM501 854q-26 0 -45 19t-19 45q0 25 19 44.5t45 19.5t45 -19.5t19 -44.5q0 -26 -19 -45t-45 -19z" />
    <glyph glyph-name="uni0416" unicode="&#x416;" horiz-adv-x="1182" 
d="M18 0l423 421l-287 281q-16 16 -29.5 21.5t-43.5 7.5l-52 3v24h264v-24l-64 -3q-47 -3 -26 -24l334 -327v315q0 21 -11.5 27.5t-33.5 8.5l-45 3v24h282v-24l-45 -3q-23 -2 -34.5 -8.5t-11.5 -27.5v-315l334 327q21 21 -26 24l-64 3v24h264v-24l-52 -3q-30 -2 -46 -7.5
t-32 -21.5l-281 -275l429 -427h-147l-379 377v-314q0 -21 11.5 -27.5t34.5 -8.5l45 -3v-24h-282v24l45 3q22 2 33.5 8.5t11.5 27.5v314l-379 -377h-140z" />
    <glyph glyph-name="uni0417" unicode="&#x417;" horiz-adv-x="689" 
d="M305 20q104 0 161 43t57 140q0 50 -14 84.5t-40.5 56.5t-64 31.5t-85.5 9.5h-87v31h83q79 0 121 44t42 124q0 42 -13 72t-37 49t-57.5 28t-74.5 9q-23 0 -48 -5q-15 -4 -25 -9.5t-21 -24.5l-97 -159h-18l36 204q38 15 83 21t106 6q54 0 103.5 -9t87 -30t60 -55t22.5 -85
q0 -39 -15 -72t-42.5 -58t-66.5 -41t-87 -21v-2q58 0 106 -11.5t82.5 -35t54 -59.5t19.5 -85q0 -51 -22 -92t-63.5 -70.5t-101 -45t-133.5 -15.5q-67 0 -115.5 6t-90.5 20l-41 237h18l104 -185q16 -27 39 -36q14 -5 31 -7.5t44 -2.5z" />
    <glyph glyph-name="uni0418" unicode="&#x418;" horiz-adv-x="920" 
d="M65 24l45 3q22 2 33.5 8.5t11.5 27.5v632q0 21 -11.5 27.5t-33.5 8.5l-45 3v24h282v-24l-45 -3q-23 -2 -34.5 -8.5t-11.5 -27.5v-526l407 497v29q0 21 -11.5 27.5t-33.5 8.5l-45 3v24h282v-24l-45 -3q-22 -2 -33.5 -8.5t-11.5 -27.5v-632q0 -21 11.5 -27.5t33.5 -8.5
l45 -3v-24h-282v24l45 3q22 2 33.5 8.5t11.5 27.5v544l-407 -497v-47q0 -21 11.5 -27.5t34.5 -8.5l45 -3v-24h-282v24z" />
    <glyph glyph-name="uni0419" unicode="&#x419;" horiz-adv-x="920" 
d="M65 24l45 3q22 2 33.5 8.5t11.5 27.5v632q0 21 -11.5 27.5t-33.5 8.5l-45 3v24h282v-24l-45 -3q-23 -2 -34.5 -8.5t-11.5 -27.5v-526l407 497v29q0 21 -11.5 27.5t-33.5 8.5l-45 3v24h282v-24l-45 -3q-22 -2 -33.5 -8.5t-11.5 -27.5v-632q0 -21 11.5 -27.5t33.5 -8.5
l45 -3v-24h-282v24l45 3q22 2 33.5 8.5t11.5 27.5v544l-407 -497v-47q0 -21 11.5 -27.5t34.5 -8.5l45 -3v-24h-282v24zM461 829q-42 0 -72 12.5t-49.5 33.5t-29 49.5t-9.5 60.5h73q0 -38 6.5 -62.5t18 -38.5t27.5 -20t35 -6q20 0 36 5.5t27.5 19.5t17.5 39t6 63h73
q0 -72 -44 -114t-116 -42z" />
    <glyph glyph-name="uni041A" unicode="&#x41a;" horiz-adv-x="831" 
d="M55 24l45 3q22 2 33.5 8.5t11.5 27.5v632q0 21 -11.5 27.5t-33.5 8.5l-45 3v24h282v-24l-45 -3q-23 -2 -34.5 -8.5t-11.5 -27.5v-315l350 327q10 9 4.5 15.5t-30.5 8.5l-64 3v24h264v-24l-52 -3q-30 -2 -46 -8t-32 -21l-295 -276l458 -426h-142l-415 377v-314
q0 -21 11.5 -27.5t34.5 -8.5l45 -3v-24h-282v24z" />
    <glyph glyph-name="uni041B" unicode="&#x41b;" horiz-adv-x="802" 
d="M167 63q-22 -42 -43.5 -58.5t-44.5 -16.5q-21 0 -34 12t-13 32q0 31 27.5 56.5t90.5 36.5q24 54 39 113.5t23.5 128.5t11 150t2.5 178q0 21 -11.5 27.5t-33.5 8.5l-45 3v24h601v-24l-45 -3q-22 -2 -33.5 -8.5t-11.5 -27.5v-632q0 -21 11.5 -27.5t33.5 -8.5l45 -3v-24
h-282v24l45 3q22 2 33.5 8.5t11.5 27.5v664h-280q0 -116 -4 -212t-14.5 -177t-30 -149t-49.5 -126z" />
    <glyph glyph-name="uni041C" unicode="&#x41c;" horiz-adv-x="1053" 
d="M35 24l44 3q22 2 33 8.5t13 27.5l40 632q2 21 -10.5 27.5t-34.5 8.5l-45 3v24h223l224 -474l224 474h213v-24l-45 -3q-23 -2 -35.5 -8.5t-10.5 -27.5l40 -632q2 -21 12.5 -27.5t33.5 -8.5l45 -3v-24h-282v24l44 3q23 2 35.5 8.5t10.5 27.5l-40 653l-278 -588h-6l-279 587
l-40 -652q-2 -21 10 -27.5t34 -8.5l46 -3v-24h-219v24z" />
    <glyph glyph-name="uni041D" unicode="&#x41d;" horiz-adv-x="920" 
d="M55 24l45 3q22 2 33.5 8.5t11.5 27.5v632q0 21 -11.5 27.5t-33.5 8.5l-45 3v24h282v-24l-45 -3q-23 -2 -34.5 -8.5t-11.5 -27.5v-277h407v277q0 21 -11.5 27.5t-33.5 8.5l-45 3v24h282v-24l-45 -3q-22 -2 -33.5 -8.5t-11.5 -27.5v-632q0 -21 11.5 -27.5t33.5 -8.5l45 -3
v-24h-282v24l45 3q22 2 33.5 8.5t11.5 27.5v315h-407v-315q0 -21 11.5 -27.5t34.5 -8.5l45 -3v-24h-282v24z" />
    <glyph glyph-name="uni041E" unicode="&#x41e;" horiz-adv-x="888" 
d="M447 -12q-83 0 -155.5 28t-126.5 80t-85.5 124t-31.5 161t31.5 161.5t85.5 124.5t126.5 80t155.5 28q82 0 155 -28t127 -80t85.5 -124.5t31.5 -161.5t-31.5 -161t-85.5 -124t-127 -80t-155 -28zM447 21q61 0 112.5 24t89.5 70t59.5 113t21.5 153q0 87 -21.5 154
t-59.5 113t-89.5 70t-112.5 24t-113 -24t-90 -70t-59.5 -113t-21.5 -154q0 -86 21.5 -153t59.5 -113t90 -70t113 -24z" />
    <glyph glyph-name="uni041F" unicode="&#x41f;" horiz-adv-x="902" 
d="M837 758v-24l-45 -3q-22 -2 -33.5 -8.5t-11.5 -27.5v-632q0 -21 11.5 -27.5t33.5 -8.5l45 -3v-24h-282v24l45 3q22 2 33.5 8.5t11.5 27.5v664h-389v-664q0 -21 11.5 -27.5t34.5 -8.5l45 -3v-24h-282v24l45 3q22 2 33.5 8.5t11.5 27.5v632q0 21 -11.5 27.5t-33.5 8.5
l-45 3v24h772z" />
    <glyph glyph-name="uni0420" unicode="&#x420;" horiz-adv-x="728" 
d="M55 24l45 3q22 2 33.5 8.5t11.5 27.5v632q0 21 -11.5 27.5t-33.5 8.5l-45 3v24h316q66 0 124 -8.5t101.5 -30.5t68.5 -61.5t25 -100.5t-25 -101t-68.5 -63.5t-101.5 -33t-124 -9.5h-100v32h91q51 0 90.5 8.5t67.5 28.5t42.5 53t14.5 82q0 48 -14.5 81.5t-42.5 53.5
t-67.5 29t-90.5 9h-116v-664q0 -21 11.5 -27.5t34.5 -7.5l86 -2v-26h-323v24z" />
    <glyph glyph-name="uni0421" unicode="&#x421;" horiz-adv-x="840" 
d="M479 -12q-94 0 -173 27.5t-136.5 78.5t-89.5 123.5t-32 163.5t32.5 164t90 124t137.5 78.5t176 27.5q31 0 64 -2.5t64.5 -8t60 -14t51.5 -20.5l42 -217h-18l-113 182q-11 17 -20 24.5t-27 12.5q-23 7 -49 9t-59 2q-61 0 -118 -19t-101.5 -60t-71 -106t-26.5 -157
q0 -83 22 -153t63.5 -120.5t102 -79t137.5 -28.5q33 0 59 2t49 9q18 5 27 12.5t20 24.5l113 182h18l-42 -217q-23 -12 -53.5 -20.5t-64 -14t-69 -8t-66.5 -2.5z" />
    <glyph glyph-name="uni0422" unicode="&#x422;" horiz-adv-x="786" 
d="M222 25l60 3q22 1 33.5 7.5t11.5 27.5v666h-174q-13 0 -18.5 -2.5t-10.5 -13.5l-88 -189h-18l24 234h671l25 -234h-18l-89 189q-5 11 -10.5 13.5t-17.5 2.5h-174v-666q0 -21 11 -27t34 -8l60 -3v-25h-312v25z" />
    <glyph glyph-name="uni0423" unicode="&#x423;" horiz-adv-x="780" 
d="M359 69q-23 -45 -44 -63t-44 -18q-21 0 -34 12t-13 32q0 32 29 56t96 39l35 67l-279 503q-11 19 -20 25.5t-31 8.5l-44 3v24h292v-24l-50 -3q-24 -2 -33.5 -9.5t0.5 -24.5l220 -397l206 397q9 18 -0.5 25t-32.5 9l-50 3v24h218v-24l-44 -3q-22 -2 -32 -9t-19 -25z" />
    <glyph glyph-name="uni0424" unicode="&#x424;" horiz-adv-x="948" 
d="M333 4l45 3q22 2 33.5 8.5t11.5 27.5v46q-88 5 -159.5 26.5t-122.5 58t-78.5 89t-27.5 118.5q0 67 27.5 119t78.5 89t122.5 58.5t159.5 26.5v41q0 21 -11.5 27.5t-33.5 8.5l-45 3v24h282v-24l-45 -3q-23 -2 -34.5 -8.5t-11.5 -27.5v-41q88 -5 160 -26t123 -58t78.5 -89.5
t27.5 -119.5t-27.5 -119t-78.5 -89t-123 -58t-160 -26v-46q0 -21 11.5 -27.5t34.5 -8.5l45 -3v-24h-282v24zM797 381q0 125 -71.5 188t-201.5 72v-519q130 9 201.5 71.5t71.5 187.5zM150 381q0 -125 71.5 -187.5t201.5 -71.5v519q-130 -9 -201.5 -72t-71.5 -188z" />
    <glyph glyph-name="uni0425" unicode="&#x425;" horiz-adv-x="889" 
d="M-4 24l43 3q40 3 65 34l256 315l-232 321q-12 17 -24.5 24.5t-33.5 9.5l-43 3v24h295v-24l-50 -4q-23 -2 -30.5 -9t4.5 -24l177 -244l198 244q24 30 -20 33l-50 4v24h222v-24l-43 -3q-41 -3 -66 -34l-221 -272l263 -364q12 -17 24.5 -24.5t34.5 -9.5l42 -3v-24h-295v24
l50 4q23 2 30.5 9t-4.5 24l-207 287l-233 -287q-13 -16 -8.5 -23.5t28.5 -9.5l50 -4v-24h-222v24z" />
    <glyph glyph-name="uni0426" unicode="&#x426;" horiz-adv-x="906" 
d="M65 0v24l45 3q22 2 33.5 8.5t11.5 27.5v632q0 21 -11.5 27.5t-33.5 8.5l-45 3v24h282v-24l-45 -3q-22 -2 -33.5 -8.5t-11.5 -27.5v-664h389v664q0 21 -11.5 27.5t-34.5 8.5l-45 3v24h282v-24l-45 -3q-22 -2 -33.5 -8.5t-11.5 -27.5v-664h104l8 -190h-17l-75 147
q-4 7 -9.5 9.5t-16.5 2.5h-676z" />
    <glyph glyph-name="uni0427" unicode="&#x427;" horiz-adv-x="860" 
d="M115 695q0 21 -11.5 27.5t-33.5 8.5l-45 3v24h282v-24l-45 -3q-23 -2 -34.5 -8.5t-11.5 -27.5v-135q0 -63 13 -103t40.5 -63t70 -32t100.5 -9q52 0 90.5 7t72.5 18v317q0 21 -11.5 27.5t-33.5 8.5l-45 3v24h282v-24l-45 -3q-22 -2 -33.5 -8.5t-11.5 -27.5v-632
q0 -21 11.5 -27.5t33.5 -8.5l45 -3v-24h-282v24l45 3q22 2 33.5 8.5t11.5 27.5v281q-35 -11 -84.5 -19.5t-101.5 -8.5q-63 0 -118 9t-96 34.5t-64.5 70t-23.5 116.5v149z" />
    <glyph glyph-name="uni0428" unicode="&#x428;" horiz-adv-x="1202" 
d="M65 0v24l45 3q22 2 33.5 8.5t11.5 27.5v632q0 21 -11.5 27.5t-33.5 8.5l-45 3v24h282v-24l-45 -3q-22 -2 -33.5 -8.5t-11.5 -27.5v-664h294v664q0 21 -11.5 27.5t-34.5 8.5l-45 3v24h282v-24l-45 -3q-22 -2 -33.5 -8.5t-11.5 -27.5v-664h294v664q0 21 -11.5 27.5
t-34.5 8.5l-45 3v24h282v-24l-45 -3q-22 -2 -33.5 -8.5t-11.5 -27.5v-632q0 -21 11.5 -27.5t33.5 -8.5l45 -3v-24h-1072z" />
    <glyph glyph-name="uni0429" unicode="&#x429;" horiz-adv-x="1206" 
d="M65 0v24l45 3q22 2 33.5 8.5t11.5 27.5v632q0 21 -11.5 27.5t-33.5 8.5l-45 3v24h282v-24l-45 -3q-22 -2 -33.5 -8.5t-11.5 -27.5v-664h294v664q0 21 -11.5 27.5t-34.5 8.5l-45 3v24h282v-24l-45 -3q-22 -2 -33.5 -8.5t-11.5 -27.5v-664h294v664q0 21 -11.5 27.5
t-34.5 8.5l-45 3v24h282v-24l-45 -3q-22 -2 -33.5 -8.5t-11.5 -27.5v-664h104l8 -190h-17l-75 147q-4 7 -9.5 9.5t-16.5 2.5h-976z" />
    <glyph glyph-name="uni042A" unicode="&#x42a;" horiz-adv-x="860" 
d="M492 442q167 0 252.5 -51t85.5 -161q0 -105 -85.5 -167.5t-252.5 -62.5h-307v24l45 3q22 2 33.5 8.5t11.5 27.5v666h-107q-13 0 -18.5 -2.5t-10.5 -13.5l-88 -189h-18l24 234h430v-24l-65 -3q-23 -2 -34.5 -8.5t-11.5 -27.5v-253h116zM466 31q128 0 189.5 45t61.5 146
q0 103 -60.5 146t-178.5 43h-102v-380h90z" />
    <glyph glyph-name="uni042B" unicode="&#x42b;" horiz-adv-x="1087" 
d="M372 442q167 0 252.5 -51t85.5 -161q0 -105 -85.5 -167.5t-252.5 -62.5h-307v24l45 3q22 2 33.5 8.5t11.5 27.5v632q0 21 -11.5 27.5t-33.5 8.5l-45 3v24h302v-24l-65 -3q-23 -1 -34.5 -8t-11.5 -28v-253h116zM346 31q128 0 189.5 45t61.5 146q0 103 -60.5 146t-178.5 43
h-102v-380h90zM730 24l45 3q22 2 33.5 8.5t11.5 27.5v632q0 21 -11.5 27.5t-33.5 8.5l-45 3v24h282v-24l-45 -3q-23 -2 -34.5 -8.5t-11.5 -27.5v-632q0 -21 11.5 -27.5t34.5 -8.5l45 -3v-24h-282v24z" />
    <glyph glyph-name="uni042C" unicode="&#x42c;" horiz-adv-x="740" 
d="M372 442q167 0 252.5 -51t85.5 -161q0 -105 -85.5 -167.5t-252.5 -62.5h-307v24l45 3q22 2 33.5 8.5t11.5 27.5v632q0 21 -11.5 27.5t-33.5 8.5l-45 3v24h302v-24l-65 -3q-23 -1 -34.5 -8t-11.5 -28v-253h116zM346 31q128 0 189.5 45t61.5 146q0 103 -60.5 146t-178.5 43
h-102v-380h90z" />
    <glyph glyph-name="uni042D" unicode="&#x42d;" horiz-adv-x="840" 
d="M364 -12q-32 0 -67 2.5t-68.5 8t-64.5 14t-53 20.5l-42 217h18l113 -182q11 -17 20 -24.5t27 -12.5q23 -7 49 -9t59 -2q75 0 134 24t100.5 69.5t64.5 110.5t26 147h-284q-13 0 -16 -2.5t-6 -10.5l-40 -117h-18v297h18l40 -118q2 -8 5.5 -10.5t16.5 -2.5h284
q-3 90 -30.5 153.5t-71 104t-99.5 59.5t-116 19q-33 0 -59 -2t-49 -9q-18 -5 -27 -12.5t-20 -24.5l-113 -182h-18l42 217q22 12 50.5 20.5t60 14t64.5 8t65 2.5q96 0 176 -27t137.5 -76.5t90 -121t32.5 -159.5q0 -99 -32 -174t-89.5 -126t-136.5 -77t-173 -26z" />
    <glyph glyph-name="uni042E" unicode="&#x42e;" horiz-adv-x="1218" 
d="M65 24l45 3q22 2 33.5 8.5t11.5 27.5v632q0 21 -11.5 27.5t-33.5 8.5l-45 3v24h282v-24l-45 -3q-23 -2 -34.5 -8.5t-11.5 -27.5v-277h140q7 81 40 147t85 112.5t119.5 72t143.5 25.5q80 0 151 -28t124 -80t83.5 -124.5t30.5 -161.5t-30.5 -161t-83.5 -124t-124 -80
t-151 -28t-151 28t-124 79.5t-83.5 123.5t-30.5 159h-139v-315q0 -21 11.5 -27.5t34.5 -8.5l45 -3v-24h-282v24zM784 21q58 0 108 24t87 70t57.5 113t20.5 153q0 87 -20.5 154t-57.5 113t-87 70t-108 24q-59 0 -109 -24t-86.5 -70t-57.5 -113t-21 -154q0 -86 21 -153
t57.5 -113t86.5 -70t109 -24z" />
    <glyph glyph-name="uni042F" unicode="&#x42f;" horiz-adv-x="778" 
d="M15 0l308 354q-103 14 -162 65t-59 132q0 58 23.5 97.5t65.5 64t99.5 35t125.5 10.5h297v-24l-45 -3q-22 -2 -33.5 -8.5t-11.5 -27.5v-632q0 -21 11.5 -27.5t33.5 -8.5l45 -3v-24h-282v24l45 3q23 2 34.5 8.5t11.5 27.5v279h-83l-297 -342h-127zM522 727h-84
q-107 0 -165 -43.5t-58 -132.5q0 -91 58 -134.5t166 -43.5h83v354z" />
    <glyph glyph-name="uni0402" unicode="&#x402;" horiz-adv-x="882" 
d="M207 25l60 3q22 1 33.5 7.5t11.5 27.5v666h-144q-13 0 -18.5 -2.5t-10.5 -13.5l-88 -169h-18l24 214h631l25 -214h-18l-89 169q-5 11 -10.5 13.5t-17.5 2.5h-164v-378q29 45 85 73t128 28q49 0 87.5 -12.5t64.5 -39.5t40 -70.5t14 -106.5v-48q0 -41 -7 -68.5t-21 -50
t-36 -42.5t-52 -45q-10 -8 -24 -19t-30.5 -22.5l-33 -23t-30.5 -21.5l-16 22q45 37 74 63t45.5 51t23 54.5t6.5 74.5v57q0 54 -9.5 90.5t-29 58.5t-48 31.5t-65.5 9.5q-63 0 -104.5 -22.5t-61.5 -56.5v-253q0 -21 11 -27t34 -8l60 -3v-25h-312v25z" />
    <glyph glyph-name="uni0403" unicode="&#x403;" horiz-adv-x="673" 
d="M256 63q0 -21 11.5 -27.5t34.5 -7.5l86 -2v-26h-323v24l45 3q22 2 33.5 8.5t11.5 27.5v632q0 21 -11.5 27.5t-33.5 8.5l-45 3v24h550l34 -222h-18l-103 174q-6 11 -11 13.5t-17 2.5h-244v-663zM453 972h127v-2l-223 -131h-20z" />
    <glyph glyph-name="uni0404" unicode="&#x404;" horiz-adv-x="840" 
d="M479 -12q-94 0 -173 27.5t-136.5 78.5t-89.5 123.5t-32 163.5t32.5 164t90 124t137.5 78.5t176 27.5q31 0 64 -2.5t64.5 -8t60 -14t51.5 -20.5l42 -217h-18l-113 182q-11 17 -20 24.5t-27 12.5q-23 7 -49 9t-59 2q-60 0 -116.5 -18.5t-100.5 -58t-71 -102.5t-29 -151h273
q13 0 16.5 2.5t5.5 10.5l40 118h18v-297h-18l-40 117q-3 8 -6 10.5t-16 2.5h-273q3 -78 26.5 -144t65 -113t100.5 -73.5t133 -26.5q33 0 59 2t49 9q18 5 27 12.5t20 24.5l113 182h18l-42 -217q-23 -12 -53.5 -20.5t-64 -14t-69 -8t-66.5 -2.5z" />
    <glyph glyph-name="uni0405" unicode="&#x405;" horiz-adv-x="642" 
d="M283 -12q-58 0 -105 6t-89 20l-23 229h18l86 -177q13 -26 39 -36q14 -5 31 -7.5t44 -2.5q39 0 74 9.5t61 27.5t41.5 44.5t15.5 59.5q0 36 -13 63t-36 47.5t-55.5 36t-72.5 28.5l-53 17q-88 28 -136 82.5t-48 138.5q0 48 22 85.5t58.5 63t84 39t97.5 13.5q48 0 90.5 -6.5
t79.5 -20.5l36 -204h-18l-97 159q-11 19 -21 24.5t-25 9.5q-14 3 -28 4t-31 1q-30 0 -59 -9t-51.5 -26.5t-36 -42.5t-13.5 -57q0 -51 30 -88t95 -58l53 -17q52 -17 96 -37.5t76 -48.5t49.5 -65.5t17.5 -88.5q0 -49 -22.5 -89t-61 -68t-90.5 -43.5t-110 -15.5z" />
    <glyph glyph-name="uni0406" unicode="&#x406;" horiz-adv-x="411" 
d="M55 24l45 3q22 2 33.5 8.5t11.5 27.5v632q0 21 -11.5 27.5t-33.5 8.5l-45 3v24h282v-24l-45 -3q-23 -2 -34.5 -8.5t-11.5 -27.5v-632q0 -21 11.5 -27.5t34.5 -8.5l45 -3v-24h-282v24z" />
    <glyph glyph-name="uni0407" unicode="&#x407;" horiz-adv-x="411" 
d="M55 24l45 3q22 2 33.5 8.5t11.5 27.5v632q0 21 -11.5 27.5t-33.5 8.5l-45 3v24h282v-24l-45 -3q-23 -2 -34.5 -8.5t-11.5 -27.5v-632q0 -21 11.5 -27.5t34.5 -8.5l45 -3v-24h-282v24zM80 854q-26 0 -45 19t-19 45q0 25 19 44.5t45 19.5t45 -19.5t19 -44.5q0 -26 -19 -45
t-45 -19zM312 854q-26 0 -45 19t-19 45q0 25 19 44.5t45 19.5t45 -19.5t19 -44.5q0 -26 -19 -45t-45 -19z" />
    <glyph glyph-name="uni0408" unicode="&#x408;" horiz-adv-x="394" 
d="M-2 -95q45 37 74 63t45.5 51t23 54.5t6.5 74.5v549q0 20 -11 25.5t-33 6.5l-50 2v27h289v-27l-50 -2q-22 -1 -33 -6.5t-11 -25.5v-522q0 -41 -7 -68.5t-21 -50t-36 -42.5t-52 -45q-10 -8 -24 -19t-30.5 -22.5l-33 -23t-30.5 -21.5z" />
    <glyph glyph-name="uni0409" unicode="&#x409;" horiz-adv-x="1110" 
d="M742 442q167 0 252.5 -51t85.5 -161q0 -105 -85.5 -167.5t-252.5 -62.5h-307v24l45 3q22 2 33.5 8.5t11.5 27.5v664h-260q0 -116 -4 -211.5t-15 -176.5t-30 -149t-49 -127q-21 -42 -43 -58.5t-45 -16.5q-21 0 -34 12t-13 32q0 31 27.5 56.5t90.5 36.5q24 54 39 113.5
t23.5 128.5t11 150t2.5 178q0 21 -11.5 27.5t-33.5 8.5l-45 3v24h601v-24l-65 -3q-23 -2 -34.5 -8.5t-11.5 -27.5v-253h116zM716 31q128 0 189.5 45t61.5 146q0 103 -60.5 146t-178.5 43h-102v-380h90z" />
    <glyph glyph-name="uni040A" unicode="&#x40a;" horiz-adv-x="1200" 
d="M65 24l45 3q22 2 33.5 8.5t11.5 27.5v632q0 21 -11.5 27.5t-33.5 8.5l-45 3v24h282v-24l-45 -3q-23 -2 -34.5 -8.5t-11.5 -27.5v-267h359v267q0 21 -11.5 27.5t-33.5 8.5l-45 3v24h302v-24l-65 -3q-23 -1 -34.5 -8t-11.5 -28v-267h116q167 0 252.5 -49t85.5 -156
q0 -102 -85.5 -162.5t-252.5 -60.5h-307v24l45 3q22 2 33.5 8.5t11.5 27.5v325h-359v-325q0 -21 11.5 -27.5t34.5 -8.5l45 -3v-24h-282v24zM806 31q128 0 189.5 43.5t61.5 140.5q0 100 -60 141t-179 41h-102v-366h90z" />
    <glyph glyph-name="uni040B" unicode="&#x40b;" horiz-adv-x="930" 
d="M207 25l60 3q22 1 33.5 7.5t11.5 27.5v666h-144q-13 0 -18.5 -2.5t-10.5 -13.5l-88 -169h-18l24 214h631l25 -214h-18l-89 169q-5 11 -10.5 13.5t-17.5 2.5h-164v-378q29 45 84.5 73t127.5 28q49 0 87 -10.5t64.5 -34.5t40.5 -62t14 -92v-190q0 -22 6.5 -27.5t32.5 -7.5
l34 -3v-25h-174v235q0 45 -9.5 76t-29 49.5t-48 26.5t-65.5 8q-63 0 -104 -22.5t-61 -56.5v-253q0 -21 11 -27t34 -8l60 -3v-25h-312v25z" />
    <glyph glyph-name="uni040C" unicode="&#x40c;" horiz-adv-x="831" 
d="M55 24l45 3q22 2 33.5 8.5t11.5 27.5v632q0 21 -11.5 27.5t-33.5 8.5l-45 3v24h282v-24l-45 -3q-23 -2 -34.5 -8.5t-11.5 -27.5v-315l350 327q10 9 4.5 15.5t-30.5 8.5l-64 3v24h264v-24l-52 -3q-30 -2 -46 -8t-32 -21l-295 -276l458 -426h-142l-415 377v-314
q0 -21 11.5 -27.5t34.5 -8.5l45 -3v-24h-282v24zM513 972h127v-2l-223 -131h-20z" />
    <glyph glyph-name="uni040E" unicode="&#x40e;" horiz-adv-x="780" 
d="M359 69q-23 -45 -44 -63t-44 -18q-21 0 -34 12t-13 32q0 32 29 56t96 39l35 67l-279 503q-11 19 -20 25.5t-31 8.5l-44 3v24h292v-24l-50 -3q-24 -2 -33.5 -9.5t0.5 -24.5l220 -397l206 397q9 18 -0.5 25t-32.5 9l-50 3v24h218v-24l-44 -3q-22 -2 -32 -9t-19 -25z
M435 829q-42 0 -72 12.5t-49.5 33.5t-29 49.5t-9.5 60.5h73q0 -38 6.5 -62.5t18 -38.5t27.5 -20t35 -6q20 0 36 5.5t27.5 19.5t17.5 39t6 63h73q0 -72 -44 -114t-116 -42z" />
    <glyph glyph-name="uni040F" unicode="&#x40f;" horiz-adv-x="902" 
d="M403 -12q-3 12 -26 12h-312v24l45 3q22 2 33.5 8.5t11.5 27.5v632q0 21 -11.5 27.5t-33.5 8.5l-45 3v24h282v-24l-45 -3q-22 -2 -33.5 -8.5t-11.5 -27.5v-664h389v664q0 21 -11.5 27.5t-34.5 8.5l-45 3v24h282v-24l-45 -3q-22 -2 -33.5 -8.5t-11.5 -27.5v-632
q0 -21 11.5 -27.5t33.5 -8.5l45 -3v-24h-312q-23 0 -26 -12l-39 -147h-17z" />
    <glyph glyph-name="uni0490" unicode="&#x490;" horiz-adv-x="637" 
d="M256 726v-663q0 -21 11.5 -27.5t34.5 -7.5l86 -2v-26h-323v24l45 3q22 2 33.5 8.5t11.5 27.5v632q0 21 -11.5 27.5t-33.5 8.5l-45 3v24h439q11 0 16.5 2t9.5 9l75 147h17l-8 -190h-358z" />
    <glyph glyph-name="uni0462" unicode="&#x462;" horiz-adv-x="854" 
d="M486 363q68 0 127.5 -6.5t104 -25.5t70.5 -52.5t26 -88.5q0 -53 -25.5 -89t-70 -58.5t-104 -32.5t-128.5 -10h-307v24l45 3q22 2 33.5 8.5t11.5 27.5v536h-124q-13 0 -18 -2.5t-11 -13.5l-88 -159h-18l24 204h235v67q0 21 -11.5 27.5t-33.5 8.5l-45 3v24h282v-24l-45 -3
q-23 -2 -34.5 -8.5t-11.5 -27.5v-67h235l25 -204h-18l-89 159q-6 11 -11 13.5t-17 2.5h-125v-236h116zM460 31q49 0 92.5 4.5t76.5 20.5t52.5 46t19.5 80q0 52 -19 82t-51 45t-73.5 19t-85.5 4h-102v-301h90z" />
    <glyph glyph-name="uni0472" unicode="&#x472;" horiz-adv-x="894" 
d="M447 -12q-83 0 -155.5 28t-126.5 80t-85.5 124t-31.5 161t31.5 161.5t85.5 124.5t126.5 80t155.5 28q82 0 155 -28t127 -80t85.5 -124.5t31.5 -161.5t-31.5 -161t-85.5 -124t-127 -80t-155 -28zM447 21q58 0 108 22t87.5 64t60 103.5t26.5 140.5q-63 -23 -113 -26t-93 5
t-83 21.5t-82 22.5t-89 9t-106 -19q2 -82 24.5 -146t60.5 -107.5t89 -66.5t110 -23zM163 397q83 32 146.5 40t113 2.5t89 -19.5t74.5 -26t69.5 -17.5t74.5 5.5q0 86 -22 153t-59.5 113t-89.5 70t-112 24q-59 0 -110 -23t-89 -67t-60.5 -108t-24.5 -147z" />
    <glyph glyph-name="uni0474" unicode="&#x474;" horiz-adv-x="802" 
d="M396 -25h-17l-301 722q-8 19 -18.5 25.5t-32.5 8.5l-44 3v24h287v-24l-50 -3q-24 -2 -32.5 -8.5t-0.5 -25.5l235 -572l196 476q24 59 45.5 93.5t39.5 52.5t33.5 23t28.5 5q21 0 34 -12t13 -32q0 -33 -31.5 -58t-106.5 -39q-10 -18 -18 -37z" />
    <glyph glyph-name="uni0492" unicode="&#x492;" horiz-adv-x="673" 
d="M256 63q0 -21 11.5 -27.5t34.5 -7.5l86 -2v-26h-323v24l45 3q22 2 33.5 8.5t11.5 27.5v632q0 21 -11.5 27.5t-33.5 8.5l-45 3v24h550l34 -222h-18l-103 174q-6 11 -11 13.5t-17 2.5h-244v-663zM65 394h377v-40h-377v40z" />
    <glyph glyph-name="uni0496" unicode="&#x496;" horiz-adv-x="1222" 
d="M18 0l423 421l-287 281q-16 16 -29.5 21.5t-43.5 7.5l-52 3v24h264v-24l-64 -3q-47 -3 -26 -24l334 -327v315q0 21 -11.5 27.5t-33.5 8.5l-45 3v24h282v-24l-45 -3q-23 -2 -34.5 -8.5t-11.5 -27.5v-315l334 327q21 21 -26 24l-64 3v24h264v-24l-52 -3q-30 -2 -46 -7.5
t-32 -21.5l-281 -275l398 -396h81l8 -190h-17l-75 147q-7 11 -21 12h-92l-379 377v-314q0 -21 11.5 -27.5t34.5 -8.5l45 -3v-24h-282v24l45 3q22 2 33.5 8.5t11.5 27.5v314l-379 -377h-140z" />
    <glyph glyph-name="uni049A" unicode="&#x49a;" horiz-adv-x="874" 
d="M55 24l45 3q22 2 33.5 8.5t11.5 27.5v632q0 21 -11.5 27.5t-33.5 8.5l-45 3v24h282v-24l-45 -3q-23 -2 -34.5 -8.5t-11.5 -27.5v-315l350 327q10 9 4.5 15.5t-30.5 8.5l-64 3v24h264v-24l-52 -3q-30 -2 -46 -8t-32 -21l-295 -276l424 -395h97l8 -190h-17l-75 147
q-7 11 -21 12h-100l-415 377v-314q0 -21 11.5 -27.5t34.5 -8.5l45 -3v-24h-282v24z" />
    <glyph glyph-name="uni04A2" unicode="&#x4a2;" horiz-adv-x="912" 
d="M857 31l8 -190h-17l-75 147q-4 7 -9.5 9.5t-16.5 2.5h-174v24l45 3q22 2 33.5 8.5t11.5 27.5v315h-407v-315q0 -21 11.5 -27.5t34.5 -8.5l45 -3v-24h-282v24l45 3q22 2 33.5 8.5t11.5 27.5v632q0 21 -11.5 27.5t-33.5 8.5l-45 3v24h282v-24l-45 -3q-23 -2 -34.5 -8.5
t-11.5 -27.5v-277h407v277q0 21 -11.5 27.5t-33.5 8.5l-45 3v24h282v-24l-45 -3q-22 -2 -33.5 -8.5t-11.5 -27.5v-664h92z" />
    <glyph glyph-name="uni04AE" unicode="&#x4ae;" horiz-adv-x="807" 
d="M230 25l60 3q22 1 33.5 7.5t11.5 27.5v279l-248 355q-6 9 -11 15t-10 10t-12 6t-18 3l-44 3v24h290v-24l-50 -3q-23 -2 -34 -9.5t1 -24.5l221 -317l222 317q13 18 1.5 25t-34.5 9l-50 3v24h220v-24l-44 -3q-22 -2 -30.5 -9.5t-20.5 -24.5l-248 -355v-279q0 -21 11.5 -27
t34.5 -8l60 -3v-25h-312v25z" />
    <glyph glyph-name="uni04B0" unicode="&#x4b0;" horiz-adv-x="807" 
d="M230 25l60 3q22 1 33.5 7.5t11.5 27.5v279l-248 355q-6 9 -11 15t-10 10t-12 6t-18 3l-44 3v24h290v-24l-50 -3q-23 -2 -34 -9.5t1 -24.5l221 -317l222 317q13 18 1.5 25t-34.5 9l-50 3v24h220v-24l-44 -3q-22 -2 -30.5 -9.5t-20.5 -24.5l-248 -355v-279q0 -21 11.5 -27
t34.5 -8l60 -3v-25h-312v25zM156 343h483v-40h-483v40z" />
    <glyph glyph-name="uni04B2" unicode="&#x4b2;" horiz-adv-x="889" 
d="M39 24l43 3q40 3 65 34l256 315l-232 321q-12 17 -24.5 24.5t-33.5 9.5l-43 3v24h295v-24l-50 -4q-23 -2 -30.5 -9t4.5 -24l177 -244l198 244q24 30 -20 33l-50 4v24h222v-24l-43 -3q-41 -3 -66 -34l-221 -272l285 -394h86l8 -190h-17l-75 147q-4 7 -9.5 9.5t-16.5 2.5
h-192v24l50 4q23 2 30.5 9t-4.5 24l-207 287l-233 -287q-13 -16 -8.5 -23.5t28.5 -9.5l50 -4v-24h-222v24z" />
    <glyph glyph-name="uni04B6" unicode="&#x4b6;" horiz-adv-x="852" 
d="M513 0v24l45 3q22 2 33.5 8.5t11.5 27.5v281q-35 -11 -84.5 -19.5t-101.5 -8.5q-63 0 -118 9t-96 34.5t-64.5 70t-23.5 116.5v149q0 21 -11.5 27.5t-33.5 8.5l-45 3v24h282v-24l-45 -3q-23 -2 -34.5 -8.5t-11.5 -27.5v-135q0 -63 13 -103t40.5 -63t70 -32t100.5 -9
q52 0 90.5 7t72.5 18v317q0 21 -11.5 27.5t-33.5 8.5l-45 3v24h282v-24l-45 -3q-22 -2 -33.5 -8.5t-11.5 -27.5v-664h92l8 -190h-17l-75 147q-4 7 -9.5 9.5t-16.5 2.5h-174z" />
    <glyph glyph-name="uni04BA" unicode="&#x4ba;" horiz-adv-x="810" 
d="M704.957 62.9961q0 -20.999 11.499 -27.498q11.499 -6.5 33.498 -8.5l44.9971 -3v-23.998h-281.982v23.998l44.9971 3q22.999 2 34.498 8.5q11.499 6.49902 11.499 27.498v134.992q0 62.9961 -12.999 102.993q-12.999 39.998 -40.4971 62.9961
q-27.499 22.999 -69.9961 31.998q-42.4971 9 -100.494 9q-51.9961 0 -90.4941 -7q-38.498 -6.99902 -72.4961 -17.999v-316.98q0 -20.999 11.5 -27.498q11.499 -6.5 33.498 -8.5l44.9971 -3v-23.998h-281.983v23.998l44.998 3q21.998 2 33.498 8.5
q11.499 6.49902 11.499 27.498v631.962q0 20.998 -11.499 27.498q-11.5 6.49902 -33.498 8.49902l-44.998 3v23.999h281.983v-23.999l-44.9971 -3q-21.999 -2 -33.498 -8.49902q-11.5 -6.5 -11.5 -27.498v-280.983q34.998 10.999 84.4951 19.499
q49.4971 8.49902 101.494 8.49902q62.9961 0 117.992 -8.99902q54.9971 -8.99902 95.9941 -34.498q40.998 -25.498 64.4961 -69.9961q23.499 -44.4971 23.499 -116.492v-148.991z" />
    <glyph glyph-name="uni04C0" unicode="&#x4c0;" horiz-adv-x="411" 
d="M55 24l45 3q22 2 33.5 8.5t11.5 27.5v632q0 21 -11.5 27.5t-33.5 8.5l-45 3v24h282v-24l-45 -3q-23 -2 -34.5 -8.5t-11.5 -27.5v-632q0 -21 11.5 -27.5t34.5 -8.5l45 -3v-24h-282v24z" />
    <glyph glyph-name="uni04D8" unicode="&#x4d8;" horiz-adv-x="830" 
d="M408 -11q-69 0 -130 20.5t-109 59.5t-80 95t-42 126h633q2 11 2.5 23.5t0.5 20.5q0 93 -26 163.5t-70 117t-102.5 70t-123.5 23.5q-52 0 -101 -15t-88.5 -45.5t-67.5 -78t-37 -112.5h-24q6 74 35.5 133t77.5 100t111.5 63t138.5 22q79 0 147.5 -27t119.5 -77.5
t80.5 -123.5t29.5 -165q0 -89 -28 -161.5t-78 -124t-119 -79.5t-150 -28zM408 21q49 0 93 16.5t79 46t59.5 71.5t33.5 93h-512q20 -109 87 -168t160 -59z" />
    <glyph glyph-name="uni04E2" unicode="&#x4e2;" horiz-adv-x="920" 
d="M65 24l45 3q22 2 33.5 8.5t11.5 27.5v632q0 21 -11.5 27.5t-33.5 8.5l-45 3v24h282v-24l-45 -3q-23 -2 -34.5 -8.5t-11.5 -27.5v-526l407 497v29q0 21 -11.5 27.5t-33.5 8.5l-45 3v24h282v-24l-45 -3q-22 -2 -33.5 -8.5t-11.5 -27.5v-632q0 -21 11.5 -27.5t33.5 -8.5
l45 -3v-24h-282v24l45 3q22 2 33.5 8.5t11.5 27.5v544l-407 -497v-47q0 -21 11.5 -27.5t34.5 -8.5l45 -3v-24h-282v24zM319 926h298v-44h-298v44z" />
    <glyph glyph-name="uni04E8" unicode="&#x4e8;" horiz-adv-x="888" 
d="M447 -12q-83 0 -155.5 28t-126.5 80t-85.5 124t-31.5 161t31.5 161.5t85.5 124.5t126.5 80t155.5 28q82 0 155 -28t127 -80t85.5 -124.5t31.5 -161.5t-31.5 -161t-85.5 -124t-127 -80t-155 -28zM447 21q60 0 112 23.5t89.5 69.5t59.5 112t22 152h-567q0 -86 22 -152
t60 -112t89.5 -69.5t112.5 -23.5zM447 742q-57 0 -107 -21.5t-87.5 -62.5t-61 -101.5t-27.5 -138.5h565q-5 78 -28 138.5t-60.5 101.5t-87 62.5t-106.5 21.5z" />
    <glyph glyph-name="uni04EE" unicode="&#x4ee;" horiz-adv-x="780" 
d="M359 69q-23 -45 -44 -63t-44 -18q-21 0 -34 12t-13 32q0 32 29 56t96 39l35 67l-279 503q-11 19 -20 25.5t-31 8.5l-44 3v24h292v-24l-50 -3q-24 -2 -33.5 -9.5t0.5 -24.5l220 -397l206 397q9 18 -0.5 25t-32.5 9l-50 3v24h218v-24l-44 -3q-22 -2 -32 -9t-19 -25z
M280 926h298v-44h-298v44z" />
    <glyph glyph-name="uni0430" unicode="&#x430;" horiz-adv-x="544" 
d="M206 -12q-35 0 -64.5 11t-50.5 29.5t-32.5 43t-11.5 51.5q0 35 18 58.5t45 39.5t58.5 27.5t59.5 22.5q47 18 72.5 33t37.5 28.5t14 27.5t2 30q0 42 -25 70.5t-77 28.5q-60 0 -90 -40.5t-15 -110.5q-19 -4 -38 -4q-33 0 -50.5 13t-17.5 33q0 13 7.5 25t20.5 23t29 21
t34 19q41 22 84 36t85 14q73 0 110 -34.5t36 -124.5l-3 -315h76v-22l-158 -29l-7 112q-20 -66 -58.5 -91.5t-90.5 -25.5zM246 29q19 0 38 8t34 25t24.5 45t9.5 67l2 143q-20 -15 -38 -26.5t-47 -26.5q-26 -14 -47 -27t-36 -28t-23 -34t-8 -44q0 -20 5.5 -38t17 -32.5
t28.5 -23t40 -8.5z" />
    <glyph glyph-name="uni0431" unicode="&#x431;" horiz-adv-x="623" 
d="M579 246q0 -56 -21 -103.5t-56.5 -82t-83.5 -53.5t-102 -19t-101.5 19.5t-83.5 59.5t-56.5 101.5t-20.5 145.5q0 74 16 144.5t56 129t109 101t176 60.5q56 9 80 16.5t24 27.5h20q0 -35 -8.5 -60.5t-28 -42.5t-51.5 -25t-80 -8q-72 0 -113.5 -6.5t-62.5 -22t-26 -42.5
t-5 -68v-76q34 38 80.5 53.5t88.5 15.5q54 0 99.5 -19.5t79 -54.5t52.5 -83.5t19 -107.5zM317 17q69 0 112 60.5t43 168.5q0 120 -46 175t-130 55q-13 0 -30 -2t-35.5 -8t-37 -16.5t-33.5 -27.5v-129q0 -146 40.5 -211t116.5 -65z" />
    <glyph glyph-name="uni0432" unicode="&#x432;" horiz-adv-x="559" 
d="M89 25q25 1 31.5 7t6.5 26v386q0 10 -1.5 16t-5.5 9.5t-11.5 5t-19.5 2.5l-35 2v23h215q45 0 84.5 -7.5t69.5 -22.5t47.5 -38t17.5 -54q0 -44 -32 -73.5t-103 -43.5v-1q87 -7 129.5 -40t42.5 -82q0 -65 -62 -102.5t-193 -37.5h-216v23zM221 475v-203h48q35 0 57 9
t34.5 23.5t17 33t4.5 37.5q0 29 -11 48t-28.5 30.5t-38.5 16.5t-41 5h-42zM221 27h42q77 0 116.5 27.5t39.5 85.5q0 20 -7 39.5t-24 34.5t-46.5 24.5t-74.5 9.5h-46v-221z" />
    <glyph glyph-name="uni0433" unicode="&#x433;" horiz-adv-x="499" 
d="M221 473v-415q0 -20 6.5 -26t32.5 -7l54 -2v-23h-260v23l35 2q25 1 31.5 7t6.5 26v386q0 10 -1.5 16t-5.5 9.5t-11.5 5t-19.5 2.5l-35 2v23h406l19 -167h-17l-72 124q-5 8 -9.5 11t-13.5 3h-146z" />
    <glyph glyph-name="uni0434" unicode="&#x434;" horiz-adv-x="567" 
d="M30 -137h-15l8 166h61q46 96 61 199t15 216q0 10 -1.5 16t-5.5 9.5t-11.5 5t-19.5 2.5l-35 2v23h439v-23l-34 -2q-13 -1 -20.5 -2.5t-11.5 -5t-5.5 -9.5t-1.5 -16v-415h81l8 -166h-15l-65 124q-4 8 -8 10.5t-13 2.5h-325q-9 0 -13 -2.5t-8 -10.5zM359 473h-170
q-1 -68 -4.5 -129t-12 -116t-22 -104.5t-34.5 -94.5h243v444z" />
    <glyph glyph-name="uni0435" unicode="&#x435;" horiz-adv-x="587" 
d="M296 -12q-54 0 -100.5 18t-80 51.5t-53 82.5t-19.5 111q0 60 20.5 109t55.5 84t80.5 54t95.5 19q35 0 71.5 -11t68.5 -35t56.5 -63t35.5 -95h-382v-19q0 -55 14.5 -100t40 -77.5t60.5 -50.5t77 -18q24 0 50 5t50 19.5t45 41t35 69.5h23q-23 -101 -87.5 -148t-156.5 -47z
M292 493q-54 0 -93.5 -37.5t-50.5 -113.5h263q-1 31 -8 58.5t-21.5 48t-36.5 32.5t-53 12z" />
    <glyph glyph-name="uni0451" unicode="&#x451;" horiz-adv-x="590" 
d="M296 -12q-54 0 -100.5 18t-80 51.5t-53 82.5t-19.5 111q0 60 20.5 109t55.5 84t80.5 54t95.5 19q35 0 71.5 -11t68.5 -35t56.5 -63t35.5 -95h-382v-19q0 -55 14.5 -100t40 -77.5t60.5 -50.5t77 -18q24 0 50 5t50 19.5t45 41t35 69.5h23q-23 -101 -87.5 -148t-156.5 -47z
M292 493q-54 0 -93.5 -37.5t-50.5 -113.5h263q-1 31 -8 58.5t-21.5 48t-36.5 32.5t-53 12zM411 642q-26 0 -45 19.5t-19 45.5q0 25 19 44t45 19t45 -19t19 -44q0 -26 -19 -45.5t-45 -19.5zM179 642q-26 0 -45 19.5t-19 45.5q0 25 19 44t45 19t45 -19t19 -44q0 -26 -19 -45.5
t-45 -19.5z" />
    <glyph glyph-name="uni0436" unicode="&#x436;" horiz-adv-x="844" 
d="M5 0l282 280l-168 163q-10 10 -18 16t-16 10t-17.5 5.5t-22.5 2.5l-33 2v23h209v-23l-36 -1q-26 -1 -28.5 -11.5t12.5 -24.5l202 -196v198q0 10 -1.5 16t-5.5 9.5t-11.5 5t-19.5 2.5l-35 2v23h240v-23l-34 -2q-13 -1 -20.5 -2.5t-11.5 -5t-5.5 -9.5t-1.5 -16v-198
l202 196q15 14 12.5 24.5t-28.5 11.5l-36 1v23h209v-23l-33 -2q-26 -2 -42 -8t-36 -26l-162 -157l288 -286h-126l-248 244v-186q0 -20 6.5 -26t32.5 -7l34 -2v-23h-240v23l35 2q25 1 31.5 7t6.5 26v186l-248 -244h-118z" />
    <glyph glyph-name="uni0437" unicode="&#x437;" horiz-adv-x="489" 
d="M215 -12q-39 0 -74 7.5t-61 21.5t-41 34t-15 45q0 26 18.5 40t46.5 14q5 0 10.5 -0.5t11.5 -1.5q6 -72 36 -103t81 -31q52 0 84 30t32 93q0 21 -6 41t-22 35.5t-42.5 25t-66.5 9.5h-42v24h44q33 0 54 10t32.5 26t16 36t4.5 41q0 31 -7 51.5t-20 33t-30 17.5t-38 5
q-22 0 -32 -2q-11 -2 -18 -8t-17 -23l-83 -138h-18l28 174q34 11 69.5 16.5t70.5 5.5q45 0 82 -7.5t63.5 -23.5t41 -39.5t14.5 -56.5q0 -48 -33 -80.5t-106 -46.5v-1q80 -7 123.5 -41.5t43.5 -90.5q0 -64 -57 -103t-178 -39z" />
    <glyph glyph-name="uni0438" unicode="&#x438;" horiz-adv-x="674" 
d="M127 444q0 10 -1.5 16t-5.5 9.5t-11.5 5t-19.5 2.5l-35 2v23h240v-23l-34 -2q-13 -1 -20.5 -2.5t-11.5 -5t-5.5 -9.5t-1.5 -16v-323l232 310v13q0 10 -1.5 16t-5.5 9.5t-11.5 5t-19.5 2.5l-35 2v23h240v-23l-34 -2q-13 -1 -20.5 -2.5t-11.5 -5t-5.5 -9.5t-1.5 -16v-386
q0 -20 6.5 -26t32.5 -7l34 -2v-23h-240v23l35 2q25 1 31.5 7t6.5 26v325l-232 -310v-15q0 -20 6.5 -26t32.5 -7l34 -2v-23h-240v23l35 2q25 1 31.5 7t6.5 26v386z" />
    <glyph glyph-name="uni0439" unicode="&#x439;" horiz-adv-x="674" 
d="M127 444q0 10 -1.5 16t-5.5 9.5t-11.5 5t-19.5 2.5l-35 2v23h240v-23l-34 -2q-13 -1 -20.5 -2.5t-11.5 -5t-5.5 -9.5t-1.5 -16v-323l232 310v13q0 10 -1.5 16t-5.5 9.5t-11.5 5t-19.5 2.5l-35 2v23h240v-23l-34 -2q-13 -1 -20.5 -2.5t-11.5 -5t-5.5 -9.5t-1.5 -16v-386
q0 -20 6.5 -26t32.5 -7l34 -2v-23h-240v23l35 2q25 1 31.5 7t6.5 26v325l-232 -310v-15q0 -20 6.5 -26t32.5 -7l34 -2v-23h-240v23l35 2q25 1 31.5 7t6.5 26v386zM337 614q-44 0 -76 12.5t-53 34t-31 50t-10 60.5h73q0 -41 9 -66t23.5 -39t31.5 -18.5t33 -4.5t33.5 4.5
t31.5 18.5t23 39t9 66h73q0 -36 -12.5 -65t-35 -49.5t-53.5 -31.5t-69 -11z" />
    <glyph glyph-name="uni043A" unicode="&#x43a;" horiz-adv-x="630" 
d="M117 444q0 10 -1.5 16t-5.5 9.5t-11.5 5t-19.5 2.5l-35 2v23h240v-23l-34 -2q-13 -1 -20.5 -2.5t-11.5 -5t-5.5 -9.5t-1.5 -16v-195l222 193q16 14 13 24.5t-29 11.5l-36 1v23h209v-23l-33 -2q-13 -1 -22.5 -3t-18.5 -6t-18 -10t-19 -15l-183 -159l324 -284h-134
l-275 241v-183q0 -20 6.5 -26t32.5 -7l34 -2v-23h-240v23l35 2q25 1 31.5 7t6.5 26v386z" />
    <glyph glyph-name="uni043B" unicode="&#x43b;" horiz-adv-x="593" 
d="M147 69q-22 -50 -42 -65.5t-42 -15.5q-20 0 -31.5 12t-11.5 32q0 24 25.5 45.5t85.5 34.5q21 55 31.5 142.5t10.5 189.5q0 10 -1.5 16t-5.5 9.5t-11.5 5t-19.5 2.5l-40 2v23h444v-23l-34 -2q-13 -1 -20.5 -2.5t-11.5 -5t-5.5 -9.5t-1.5 -16v-386q0 -20 6.5 -26t32.5 -7
l34 -2v-23h-240v23l35 2q25 1 31.5 7t6.5 26v415h-170q0 -141 -15.5 -245.5t-39.5 -158.5z" />
    <glyph glyph-name="uni043C" unicode="&#x43c;" horiz-adv-x="770" 
d="M54 23l35 2q25 1 30.5 7t7.5 26l24 386q2 20 -5.5 25.5t-32.5 7.5l-35 2v23h175l134 -290l131 290h173v-23l-34 -2q-13 -1 -21 -2.5t-12 -5t-5.5 -9.5t-0.5 -16l25 -386q1 -10 2.5 -16t5 -9.5t11 -5t20.5 -2.5l34 -2v-23h-240v23l35 2q25 2 32.5 7.5t5.5 25.5l-25 395
l-167 -371h-6l-171 372l-24 -396q-2 -20 5.5 -26t33.5 -7l34 -2v-23h-175v23z" />
    <glyph glyph-name="uni043D" unicode="&#x43d;" horiz-adv-x="659" 
d="M127 444q0 10 -1.5 16t-5.5 9.5t-11.5 5t-19.5 2.5l-35 2v23h240v-23l-34 -2q-13 -1 -20.5 -2.5t-11.5 -5t-5.5 -9.5t-1.5 -16v-167h217v167q0 10 -1.5 16t-5.5 9.5t-11.5 5t-19.5 2.5l-35 2v23h240v-23l-34 -2q-13 -1 -20.5 -2.5t-11.5 -5t-5.5 -9.5t-1.5 -16v-386
q0 -20 6.5 -26t32.5 -7l34 -2v-23h-240v23l35 2q25 1 31.5 7t6.5 26v185h-217v-185q0 -20 6.5 -26t32.5 -7l34 -2v-23h-240v23l35 2q25 1 31.5 7t6.5 26v386z" />
    <glyph glyph-name="uni043E" unicode="&#x43e;" horiz-adv-x="613" 
d="M308 -12q-54 0 -102 19.5t-84.5 54t-58 83t-21.5 105.5q0 61 23 110.5t60.5 84t86 53.5t99.5 19q54 0 102 -19.5t84.5 -54t58 -82.5t21.5 -105q0 -61 -22.5 -110.5t-60 -84.5t-86 -54t-100.5 -19zM310 17q31 0 59 13t50 41.5t35 73.5t13 108q0 64 -13 109t-35 73.5
t-50 41.5t-59 13q-32 0 -60.5 -13t-50.5 -41.5t-35 -73.5t-13 -109q0 -63 13 -108t35 -73.5t50.5 -41.5t60.5 -13z" />
    <glyph glyph-name="uni043F" unicode="&#x43f;" horiz-adv-x="654" 
d="M221 473v-415q0 -20 6.5 -25.5t32.5 -7.5l24 -2v-23h-230v23l35 2q25 1 31.5 7t6.5 26v386q0 10 -1.5 16t-5.5 9.5t-11.5 5t-19.5 2.5l-35 2v23h546v-23l-34 -2q-13 -1 -20.5 -2.5t-11.5 -5t-5.5 -9.5t-1.5 -16v-386q0 -20 6.5 -26t32.5 -7l34 -2v-23h-230v23l25 2
q25 2 31.5 7.5t6.5 25.5v415h-212z" />
    <glyph glyph-name="uni0440" unicode="&#x440;" horiz-adv-x="632" 
d="M26 -225l35 2q25 1 31.5 7t6.5 26v597l-73 41v6l167 64v-74q24 33 64 53t88 20t89 -18.5t71 -53t47.5 -83.5t17.5 -110q0 -58 -18 -106.5t-50 -83.5t-75.5 -54.5t-94.5 -19.5q-44 0 -80 17.5t-59 47.5v-243q0 -20 6.5 -25.5t32.5 -6.5l60 -3v-23h-266v23zM299 472
q-27 0 -55 -9.5t-51 -35.5v-356q23 -26 50.5 -35t53.5 -9q37 0 68 16.5t53 46t34 71t12 91.5q0 47 -12 87.5t-34 70t-52 46t-67 16.5z" />
    <glyph glyph-name="uni0441" unicode="&#x441;" horiz-adv-x="568" 
d="M295 -12q-54 0 -100.5 19t-80.5 53.5t-53 83t-19 107.5q0 58 21.5 107t58.5 84.5t86 55t105 19.5q33 0 65 -7.5t57.5 -21.5t41.5 -34t16 -45q0 -26 -18.5 -40t-46.5 -14q-5 0 -10.5 0.5t-11.5 1.5q-6 72 -40 103t-83 31q-27 0 -52 -11t-44 -33.5t-30.5 -57.5t-12.5 -82
q-1 -52 12 -99t38 -82.5t61 -56.5t81 -21q23 0 47.5 6t47 21t41.5 41t30 67h23q-10 -52 -31.5 -89t-51.5 -60.5t-67.5 -34.5t-79.5 -11z" />
    <glyph glyph-name="uni0442" unicode="&#x442;" horiz-adv-x="550" 
d="M142 473q-9 0 -13.5 -3t-9.5 -11l-77 -124h-17l24 167h452l24 -167h-17l-77 124q-5 8 -9.5 11t-13.5 3h-86v-415q0 -20 6.5 -26t32.5 -7l35 -2v-23h-241v23l35 2q25 1 31.5 7t6.5 26v415h-86z" />
    <glyph glyph-name="uni0443" unicode="&#x443;" horiz-adv-x="582" 
d="M141 -253q-22 0 -37 14t-15 36q0 12 5.5 25t19.5 25t37 21.5t58 15.5l53 116l-185 439q-9 20 -17.5 29t-31.5 10l-29 1v23h243v-23l-33 -1q-46 -1 -32 -36l137 -328l139 312q12 27 3.5 39t-32.5 13l-37 1v23h190v-23l-32 -1q-23 -1 -33.5 -10.5t-20.5 -31.5l-268 -593
q-11 -24 -19 -42t-17 -30t-20 -18t-26 -6z" />
    <glyph glyph-name="uni0444" unicode="&#x444;" horiz-adv-x="755" 
d="M257 -225l35 2q25 1 31.5 7t6.5 26v178q-56 2 -107.5 21.5t-91 54t-63.5 82t-24 104.5q0 61 25 109.5t65.5 82.5t92 53t103.5 22v163l-73 41v6l167 64v-274q55 -3 107 -22.5t92 -53.5t64 -81t24 -104q0 -61 -25 -110t-65.5 -83.5t-92 -53.5t-104.5 -21v-178
q0 -20 6.5 -26t32.5 -7l34 -2v-23h-240v23zM604 253q0 64 -16 108t-41.5 71.5t-58 41t-64.5 16.5v-473q33 2 65 15.5t57.5 41t41.5 72t16 107.5zM150 253q0 -63 16 -107.5t41.5 -72t57.5 -41t65 -15.5v473q-33 -3 -65.5 -16.5t-58 -41.5t-41 -72t-15.5 -107z" />
    <glyph glyph-name="uni0445" unicode="&#x445;" horiz-adv-x="656" 
d="M4 23l31 1q22 1 43.5 14t48.5 41l143 159l-157 202q-12 17 -24.5 27t-33.5 11l-29 1v23h251v-23l-32 -1q-24 -1 -29 -10.5t6 -24.5l107 -138l109 121q22 22 18 36.5t-27 15.5l-37 1v23h207v-23l-31 -1q-22 -1 -43 -14t-47 -39l-130 -144l170 -219q13 -17 25 -27t33 -11
l28 -1v-23h-250v23l32 1q24 1 29 10.5t-6 24.5l-121 155l-124 -138q-21 -22 -17 -36.5t27 -15.5l37 -1v-23h-207v23z" />
    <glyph glyph-name="uni0446" unicode="&#x446;" horiz-adv-x="641" 
d="M54 0v23l35 2q25 1 31.5 7t6.5 26v386q0 10 -1.5 16t-5.5 9.5t-11.5 5t-19.5 2.5l-35 2v23h230v-23l-24 -2q-26 -2 -32.5 -7.5t-6.5 -25.5v-415h212v415q0 20 -6.5 25.5t-31.5 7.5l-25 2v23h230v-23l-34 -2q-13 -1 -20.5 -2.5t-11.5 -5t-5.5 -9.5t-1.5 -16v-415h81
l8 -166h-15l-65 124q-4 8 -8 10.5t-13 2.5h-461z" />
    <glyph glyph-name="uni0447" unicode="&#x447;" horiz-adv-x="625" 
d="M103 444q0 10 -1.5 16t-5.5 9.5t-11.5 5t-19.5 2.5l-35 2v23h240v-23l-34 -2q-13 -1 -20.5 -2.5t-11.5 -5t-5.5 -9.5t-1.5 -16v-93q0 -60 23.5 -84.5t68.5 -24.5q38 0 64.5 3.5t50.5 10.5v188q0 10 -1.5 16t-5.5 9.5t-11.5 5t-19.5 2.5l-35 2v23h240v-23l-34 -2
q-13 -1 -20.5 -2.5t-11.5 -5t-5.5 -9.5t-1.5 -16v-386q0 -20 6.5 -26t32.5 -7l34 -2v-23h-250v23l45 2q25 1 31.5 7t6.5 26v165q-36 -8 -66 -11.5t-59 -3.5q-81 0 -128.5 31.5t-47.5 108.5v96z" />
    <glyph glyph-name="uni0448" unicode="&#x448;" horiz-adv-x="940" 
d="M423 29v415q0 20 -7 25t-32 8l-19 2v23h210v-23l-20 -2q-25 -2 -31.5 -7.5t-6.5 -25.5v-415h202v415q0 20 -7 25t-32 8l-19 2v23h225v-23l-35 -2q-12 -1 -19.5 -2.5t-11.5 -5t-5.5 -9.5t-1.5 -16v-386q0 -20 6.5 -26t31.5 -7l35 -2v-23h-832v23l34 2q25 1 32 7t7 26v386
q0 20 -7 25.5t-32 7.5l-34 2v23h225v-23l-20 -2q-25 -2 -31.5 -7.5t-6.5 -25.5v-415h202z" />
    <glyph glyph-name="uni0449" unicode="&#x449;" horiz-adv-x="927" 
d="M54 0v23l34 2q25 1 32 7t7 26v386q0 20 -7 25.5t-32 7.5l-34 2v23h225v-23l-20 -2q-25 -2 -31.5 -7.5t-6.5 -25.5v-415h202v415q0 20 -7 25t-32 8l-19 2v23h210v-23l-20 -2q-25 -2 -31.5 -7.5t-6.5 -25.5v-415h202v415q0 20 -7 25t-32 8l-19 2v23h225v-23l-35 -2
q-12 -1 -19.5 -2.5t-11.5 -5t-5.5 -9.5t-1.5 -16v-415h81l8 -166h-15l-65 124q-4 8 -8 10.5t-13 2.5h-747z" />
    <glyph glyph-name="uni044A" unicode="&#x44a;" horiz-adv-x="633" 
d="M137 473q-9 0 -13.5 -3t-9.5 -11l-77 -124h-17l24 167h353v-23l-54 -2q-26 -1 -32.5 -7t-6.5 -26v-146h44q131 0 193 -37t62 -111q0 -67 -62 -108.5t-193 -41.5h-211v23l35 2q25 1 31.5 7t6.5 26v415h-73zM304 29h37q77 0 116.5 30.5t39.5 90.5q0 25 -7 47t-24 38
t-46.5 25t-74.5 9h-41v-240z" />
    <glyph glyph-name="uni044B" unicode="&#x44b;" horiz-adv-x="829" 
d="M608 444q0 10 -1.5 16t-5.5 9.5t-11.5 5t-19.5 2.5l-35 2v23h240v-23l-34 -2q-13 -1 -20.5 -2.5t-11.5 -5t-5.5 -9.5t-1.5 -16v-386q0 -20 6.5 -26t32.5 -7l34 -2v-23h-240v23l35 2q25 1 31.5 7t6.5 26v386zM304 479l-44 -2q-13 -1 -20.5 -2.5t-11.5 -5t-5.5 -9.5
t-1.5 -16v-146h44q131 0 193 -36t62 -112q0 -69 -62 -109.5t-193 -40.5h-211v23l35 2q25 1 31.5 7t6.5 26v386q0 10 -1.5 16t-5.5 9.5t-11.5 5t-19.5 2.5l-35 2v23h250v-23zM221 29h37q77 0 116.5 29.5t39.5 91.5q0 27 -7 48.5t-24 37.5t-46.5 24.5t-74.5 8.5h-41v-240z" />
    <glyph glyph-name="uni044C" unicode="&#x44c;" horiz-adv-x="550" 
d="M304 479l-44 -2q-13 -1 -20.5 -2.5t-11.5 -5t-5.5 -9.5t-1.5 -16v-146h44q131 0 193 -36t62 -112q0 -69 -62 -109.5t-193 -40.5h-211v23l35 2q25 1 31.5 7t6.5 26v386q0 10 -1.5 16t-5.5 9.5t-11.5 5t-19.5 2.5l-35 2v23h250v-23zM221 29h37q77 0 116.5 29.5t39.5 91.5
q0 27 -7 48.5t-24 37.5t-46.5 24.5t-74.5 8.5h-41v-240z" />
    <glyph glyph-name="uni044D" unicode="&#x44d;" horiz-adv-x="540" 
d="M163 277h225q-2 57 -16 98t-36 67t-50.5 38t-58.5 12q-13 0 -25.5 -1t-20.5 -3q-10 -3 -20.5 -7t-20.5 -22l-78 -138h-18l23 174q38 13 83 17.5t85 4.5q54 0 101.5 -19.5t83 -54t56 -82.5t20.5 -105q0 -65 -22 -115t-58.5 -84t-84 -51.5t-99.5 -17.5q-42 0 -80 7.5
t-66.5 21.5t-45 34t-16.5 45q0 26 18.5 40t46.5 14q5 0 10.5 -0.5t11.5 -1.5q6 -72 39 -103t89 -31q28 0 55 11.5t47.5 38t33.5 70.5t14 109h-226v34z" />
    <glyph glyph-name="uni044E" unicode="&#x44e;" horiz-adv-x="863" 
d="M127 444q0 10 -1.5 16t-5.5 9.5t-11.5 5t-19.5 2.5l-35 2v23h240v-23l-34 -2q-13 -1 -20.5 -2.5t-11.5 -5t-5.5 -9.5t-1.5 -16v-167h94q5 55 27.5 99.5t57 75.5t78 48t90.5 17q52 0 97.5 -19.5t79.5 -54t54 -82.5t20 -105q0 -61 -21 -110.5t-56 -84.5t-81 -54t-96 -19
q-51 0 -96 19t-79 52.5t-54.5 80.5t-21.5 103h-93v-185q0 -20 6.5 -26t32.5 -7l34 -2v-23h-240v23l35 2q25 1 31.5 7t6.5 26v386zM567 17q29 0 55 13t46 41.5t32 73.5t12 108q0 64 -12 109t-32 73.5t-46 41.5t-55 13q-30 0 -56.5 -13t-46.5 -41.5t-32 -73.5t-12 -109
q0 -63 12 -108t32 -73.5t46.5 -41.5t56.5 -13z" />
    <glyph glyph-name="uni044F" unicode="&#x44f;" horiz-adv-x="594" 
d="M236 227q-29 4 -56.5 13.5t-48.5 26t-34 39t-13 52.5q0 41 18 69t49.5 44.5t74.5 23.5t93 7h231v-23l-34 -2q-13 -1 -20.5 -2.5t-11.5 -5t-5.5 -9.5t-1.5 -16v-386q0 -20 6.5 -26t32.5 -7l34 -2v-23h-240v23l35 2q25 1 31.5 7t6.5 26v163h-38l-212 -221h-113zM317 474
q-54 0 -91 -27t-37 -84q0 -25 9.5 -46t27 -36t41 -23.5t50.5 -8.5h66v225h-66z" />
    <glyph glyph-name="uni0452" unicode="&#x452;" horiz-adv-x="629" 
d="M441 300q0 45 -7 76t-20.5 49.5t-33.5 26.5t-46 8q-24 0 -46 -8.5t-38.5 -28t-26 -50t-9.5 -73.5v-242q0 -20 6.5 -26t32.5 -7l34 -2v-23h-240v23l35 2q25 1 31.5 7t6.5 26v530h-78v36h78v55l-73 41v6l167 64v-166h123v-36h-123v-209q16 70 60 104t107 34q73 0 113.5 -45
t40.5 -154v-283q0 -45 -5.5 -77.5t-17 -57.5t-29.5 -44.5t-44 -38.5q-20 -15 -51.5 -36.5t-64.5 -41.5l-12 18q36 30 60.5 54.5t40 53t22.5 67.5t7 99v269z" />
    <glyph glyph-name="uni0453" unicode="&#x453;" horiz-adv-x="499" 
d="M221 473v-415q0 -20 6.5 -26t32.5 -7l54 -2v-23h-260v23l35 2q25 1 31.5 7t6.5 26v386q0 10 -1.5 16t-5.5 9.5t-11.5 5t-19.5 2.5l-35 2v23h406l19 -167h-17l-72 124q-5 8 -9.5 11t-13.5 3h-146zM360 776h105v-7l-194 -172h-20z" />
    <glyph glyph-name="uni0454" unicode="&#x454;" horiz-adv-x="568" 
d="M294 -12q-54 0 -100.5 19t-80.5 53.5t-53 83t-19 107.5q0 58 21.5 107t58.5 84.5t86 55t105 19.5q33 0 65 -7.5t57.5 -21.5t41.5 -34t16 -45q0 -26 -18.5 -40t-46.5 -14q-5 0 -10.5 0.5t-11.5 1.5q-6 72 -40 103t-83 31q-27 0 -52 -11t-44 -33.5t-30.5 -57.5t-12.5 -82
v-30h206v-34h-202q7 -41 23 -77t40 -62t55.5 -41t69.5 -15q23 0 47.5 6t47 21t41.5 41t30 67h23q-10 -52 -31.5 -89t-51.5 -60.5t-67.5 -34.5t-79.5 -11z" />
    <glyph glyph-name="uni0455" unicode="&#x455;" horiz-adv-x="493" 
d="M213 -12q-37 0 -70 4t-65 13l-21 177h20l75 -142q11 -20 28 -24t45 -4q19 0 40 6t38.5 17.5t29 29t11.5 40.5q0 22 -8 38t-21 27.5t-30.5 19t-35.5 12.5l-60 16q-56 15 -91.5 54.5t-35.5 98.5q0 36 16 63.5t43 45.5t62.5 27.5t74.5 9.5q62 0 119 -22l24 -157h-21l-80 131
q-9 15 -26.5 19t-38.5 4q-19 0 -37 -5.5t-32 -16t-22.5 -26t-8.5 -36.5q0 -41 22 -62t53 -29l61 -16q31 -8 59.5 -21t49.5 -31.5t33.5 -44.5t12.5 -60t-16 -62.5t-44.5 -49.5t-67.5 -32.5t-85 -11.5z" />
    <glyph glyph-name="uni0456" unicode="&#x456;" horiz-adv-x="332" 
d="M39 23l35 2q23 2 30.5 7.5t7.5 25.5v349l-73 41v6l167 64v-460q0 -20 7.5 -25.5t31.5 -7.5l34 -2v-23h-240v23zM95 722q0 25 19 44t45 19t45 -19t19 -44q0 -26 -19 -45.5t-45 -19.5t-45 19.5t-19 45.5z" />
    <glyph glyph-name="uni0457" unicode="&#x457;" horiz-adv-x="332" 
d="M88 657q-26 0 -45 19.5t-19 45.5q0 25 19 44t45 19t45 -19t19 -44q0 -26 -19 -45.5t-45 -19.5zM249 657q-26 0 -45 19.5t-19 45.5q0 25 19 44t45 19t45 -19t19 -44q0 -26 -19 -45.5t-45 -19.5zM39 23l35 2q23 2 30.5 7.5t7.5 25.5v349l-73 41v6l167 64v-460
q0 -20 7.5 -25.5t31.5 -7.5l34 -2v-23h-240v23z" />
    <glyph glyph-name="uni0458" unicode="&#x458;" horiz-adv-x="312" 
d="M-31 -243q36 30 60.5 54.5t40 53t22.5 67.5t7 99v376l-73 41v6l167 64v-483q0 -45 -5.5 -77.5t-17 -57.5t-29.5 -44.5t-44 -38.5q-20 -15 -51.5 -36.5t-64.5 -41.5zM81 722q0 25 19 44t45 19t45 -19t19 -44q0 -26 -19 -45.5t-45 -19.5t-45 19.5t-19 45.5z" />
    <glyph glyph-name="uni0459" unicode="&#x459;" horiz-adv-x="780" 
d="M544 479l-54 -2q-26 -1 -32.5 -7t-6.5 -26v-146h59q131 0 193 -37t62 -111q0 -67 -62 -108.5t-193 -41.5h-226v23l35 2q25 2 31.5 7.5t6.5 26.5v414h-155q0 -141 -15.5 -245.5t-39.5 -158.5q-22 -50 -42 -65.5t-42 -15.5q-20 0 -31.5 12t-11.5 32q0 25 26 46t87 34
q10 28 18 66t12.5 81.5t7 90.5t2.5 94q0 10 -1.5 16t-5.5 9.5t-11.5 5t-19.5 2.5l-40 2v23h449v-23zM451 29h52q77 0 116.5 30.5t39.5 90.5q0 25 -7 47t-24 38t-46.5 25t-74.5 9h-56v-240z" />
    <glyph glyph-name="uni045A" unicode="&#x45a;" horiz-adv-x="852" 
d="M127 444q0 10 -1.5 16t-5.5 9.5t-11.5 5t-19.5 2.5l-35 2v23h240v-23l-34 -2q-13 -1 -20.5 -2.5t-11.5 -5t-5.5 -9.5t-1.5 -16v-166h218v166q0 10 -1.5 16t-5.5 9.5t-11.5 5t-19.5 2.5l-35 2v23h250v-23l-44 -2q-13 -1 -20.5 -2.5t-11.5 -5t-5.5 -9.5t-1.5 -16v-166h49
q131 0 193 -33t62 -105q0 -65 -62 -102.5t-193 -37.5h-216v23l35 2q25 1 31.5 7t6.5 26v186h-218v-186q0 -20 6.5 -26t32.5 -7l34 -2v-23h-240v23l35 2q25 1 31.5 7t6.5 26v386zM533 29h42q77 0 116.5 27t39.5 84q0 24 -7 44.5t-24 34.5t-46.5 22t-74.5 8h-46v-220z" />
    <glyph glyph-name="uni045B" unicode="&#x45b;" horiz-adv-x="636" 
d="M26 23l35 2q25 1 31.5 7t6.5 26v622l-73 41v6l167 64v-412q16 70 60 104t107 34q73 0 113.5 -45t40.5 -154v-260q0 -20 6.5 -26t32.5 -7l34 -2v-23h-240v23l35 2q25 1 31.5 7t6.5 26v242q0 45 -7 76t-20.5 49.5t-33.5 26.5t-46 8q-24 0 -46 -8.5t-38.5 -28t-26 -50
t-9.5 -73.5v-242q0 -20 6.5 -26t32.5 -7l34 -2v-23h-240v23zM21 624h295v-36h-295v36z" />
    <glyph glyph-name="uni045C" unicode="&#x45c;" horiz-adv-x="630" 
d="M427 776h105v-7l-194 -172h-20zM117 444q0 10 -1.5 16t-5.5 9.5t-11.5 5t-19.5 2.5l-35 2v23h240v-23l-34 -2q-13 -1 -20.5 -2.5t-11.5 -5t-5.5 -9.5t-1.5 -16v-195l222 193q16 14 13 24.5t-29 11.5l-36 1v23h209v-23l-33 -2q-13 -1 -22.5 -3t-18.5 -6t-18 -10t-19 -15
l-183 -159l324 -284h-134l-275 241v-183q0 -20 6.5 -26t32.5 -7l34 -2v-23h-240v23l35 2q25 1 31.5 7t6.5 26v386z" />
    <glyph glyph-name="uni045E" unicode="&#x45e;" horiz-adv-x="582" 
d="M141 -253q-22 0 -37 14t-15 36q0 12 5.5 25t19.5 25t37 21.5t58 15.5l53 116l-185 439q-9 20 -17.5 29t-31.5 10l-29 1v23h243v-23l-33 -1q-46 -1 -32 -36l137 -328l139 312q12 27 3.5 39t-32.5 13l-37 1v23h190v-23l-32 -1q-23 -1 -33.5 -10.5t-20.5 -31.5l-268 -593
q-11 -24 -19 -42t-17 -30t-20 -18t-26 -6zM311 614q-44 0 -76 12.5t-53 34t-31 50t-10 60.5h73q0 -41 9 -66t23.5 -39t31.5 -18.5t33 -4.5t33.5 4.5t31.5 18.5t23 39t9 66h73q0 -36 -12.5 -65t-35 -49.5t-53.5 -31.5t-69 -11z" />
    <glyph glyph-name="uni045F" unicode="&#x45f;" horiz-adv-x="649" 
d="M288 -13q-3 13 -21 13h-213v23l34 2q25 1 32 7t7 26v386q0 20 -7 25.5t-32 7.5l-34 2v23h230v-23l-25 -2q-25 -2 -31.5 -7.5t-6.5 -25.5v-415h207v415q0 20 -6.5 25.5t-32.5 7.5l-24 2v23h230v-23l-35 -2q-12 -1 -19.5 -2.5t-11.5 -5t-5.5 -9.5t-1.5 -16v-386
q0 -20 6.5 -26t31.5 -7l35 -2v-23h-213q-18 0 -21 -13l-29 -124h-15z" />
    <glyph glyph-name="uni0491" unicode="&#x491;" horiz-adv-x="474" 
d="M221 473v-415q0 -20 6.5 -26t32.5 -7l54 -2v-23h-260v23l35 2q25 1 31.5 7t6.5 26v386q0 10 -1.5 16t-5.5 9.5t-11.5 5t-19.5 2.5l-35 2v23h302q9 0 13 2.5t8 10.5l62 124h15l-5 -166h-228z" />
    <glyph glyph-name="uni0463" unicode="&#x463;" horiz-adv-x="636" 
d="M213 473h-86q-9 0 -13.5 -3t-9.5 -11l-77 -114h-17l24 157h179v178l-73 41v6l167 64v-289h179l24 -157h-17l-77 114q-5 8 -9.5 11t-13.5 3h-86v-175h44q131 0 193 -36t62 -112q0 -69 -62 -109.5t-193 -40.5h-211v23l35 2q25 1 31.5 7t6.5 26v415zM307 29h37
q77 0 116.5 29.5t39.5 91.5q0 27 -7 48.5t-24 37.5t-46.5 24.5t-74.5 8.5h-41v-240z" />
    <glyph glyph-name="uni0473" unicode="&#x473;" horiz-adv-x="619" 
d="M308 -12q-54 0 -102 19.5t-84.5 54t-58 83t-21.5 105.5q0 61 23 110.5t60.5 84t86 53.5t99.5 19q54 0 102 -19.5t84.5 -54t58 -82.5t21.5 -105q0 -61 -22.5 -110.5t-60 -84.5t-86 -54t-100.5 -19zM151 258q48 24 84.5 30.5t64.5 3t50 -12.5t41 -16.5t37 -9.5t39 9
q-1 61 -14.5 104.5t-35 71t-49.5 40t-58 12.5q-31 0 -59.5 -13t-50.5 -41t-35.5 -72t-13.5 -106zM310 17q30 0 57.5 12.5t49 39t35 68t15.5 100.5q-38 -25 -68.5 -31.5t-56.5 -2.5t-48.5 13.5t-45 17.5t-46 10t-51.5 -10q2 -58 16 -99t35.5 -67.5t49.5 -38.5t58 -12z" />
    <glyph glyph-name="uni0475" unicode="&#x475;" horiz-adv-x="577" 
d="M448 421q20 48 37.5 72t48.5 24q22 0 35 -12.5t13 -34.5q0 -12 -5.5 -25.5t-19 -26t-36.5 -22.5t-57 -16l-6 -13l-163 -378h-27l-194 450q-9 20 -17.5 29t-31.5 10l-29 1v23h243v-23l-33 -1q-47 -2 -32 -36l142 -331z" />
    <glyph glyph-name="uni0493" unicode="&#x493;" horiz-adv-x="499" 
d="M221 473v-196h134v-35h-134v-184q0 -20 6.5 -26t32.5 -7l54 -2v-23h-260v23l35 2q25 1 31.5 7t6.5 26v184h-73v35h73v167q0 10 -1.5 16t-5.5 9.5t-11.5 5t-19.5 2.5l-35 2v23h406l19 -167h-17l-72 124q-5 8 -9.5 11t-13.5 3h-146z" />
    <glyph glyph-name="uni0497" unicode="&#x497;" horiz-adv-x="893" 
d="M5 0l282 280l-168 163q-10 10 -18 16t-16 10t-17.5 5.5t-22.5 2.5l-33 2v23h209v-23l-36 -1q-26 -1 -28.5 -11.5t12.5 -24.5l202 -196v198q0 10 -1.5 16t-5.5 9.5t-11.5 5t-19.5 2.5l-35 2v23h240v-23l-34 -2q-13 -1 -20.5 -2.5t-11.5 -5t-5.5 -9.5t-1.5 -16v-198
l202 196q15 14 12.5 24.5t-28.5 11.5l-36 1v23h209v-23l-33 -2q-26 -2 -42 -8t-36 -26l-162 -157l259 -257h75l8 -166h-15l-65 124q-4 8 -8 10.5t-13 2.5h-79l-248 244v-186q0 -20 6.5 -26t32.5 -7l34 -2v-23h-240v23l35 2q25 1 31.5 7t6.5 26v186l-248 -244h-118z" />
    <glyph glyph-name="uni049B" unicode="&#x49b;" horiz-adv-x="667" 
d="M117 444q0 10 -1.5 16t-5.5 9.5t-11.5 5t-19.5 2.5l-35 2v23h240v-23l-34 -2q-13 -1 -20.5 -2.5t-11.5 -5t-5.5 -9.5t-1.5 -16v-195l222 193q16 14 13 24.5t-29 11.5l-36 1v23h209v-23l-33 -2q-13 -1 -22.5 -3t-18.5 -6t-18 -10t-19 -15l-183 -159l291 -255h72l8 -166
h-15l-65 124q-4 8 -8 10.5t-13 2.5h-80l-275 241v-183q0 -20 6.5 -26t32.5 -7l34 -2v-23h-240v23l35 2q25 1 31.5 7t6.5 26v386z" />
    <glyph glyph-name="uni04A3" unicode="&#x4a3;" horiz-adv-x="646" 
d="M127 444q0 10 -1.5 16t-5.5 9.5t-11.5 5t-19.5 2.5l-35 2v23h240v-23l-34 -2q-13 -1 -20.5 -2.5t-11.5 -5t-5.5 -9.5t-1.5 -16v-167h217v167q0 10 -1.5 16t-5.5 9.5t-11.5 5t-19.5 2.5l-35 2v23h240v-23l-34 -2q-13 -1 -20.5 -2.5t-11.5 -5t-5.5 -9.5t-1.5 -16v-415h81
l8 -166h-15l-65 124q-4 8 -8 10.5t-13 2.5h-155v23l35 2q25 1 31.5 7t6.5 26v185h-217v-185q0 -20 6.5 -26t32.5 -7l34 -2v-23h-240v23l35 2q25 1 31.5 7t6.5 26v386z" />
    <glyph glyph-name="uni04AF" unicode="&#x4af;" horiz-adv-x="582" 
d="M167 -225l35 2q25 1 31.5 7t6.5 26v191l-160 438q-8 20 -17 29t-32 10l-29 1v23h243v-23l-33 -1q-45 -1 -32 -36l141 -386l135 370q10 28 2 39.5t-31 12.5l-37 1v23h190v-23l-32 -1q-23 -1 -34.5 -10t-19.5 -32l-160 -438v-188q0 -20 6 -26t32 -7l35 -2v-23h-240v23z" />
    <glyph glyph-name="uni04B1" unicode="&#x4b1;" horiz-adv-x="582" 
d="M101 0h139v1l-160 438q-8 20 -17 29t-32 10l-29 1v23h243v-23l-33 -1q-45 -1 -32 -36l141 -386l135 370q10 28 2 39.5t-31 12.5l-37 1v23h190v-23l-32 -1q-23 -1 -34.5 -10t-19.5 -32l-160 -436h138v-35h-138v-155q0 -20 6 -26t32 -7l35 -2v-23h-240v23l35 2q25 1 31.5 7
t6.5 26v155h-139v35z" />
    <glyph glyph-name="uni04B3" unicode="&#x4b3;" horiz-adv-x="656" 
d="M28 23l31 1q22 1 43.5 14t48.5 41l143 159l-157 202q-12 17 -24.5 27t-33.5 11l-29 1v23h251v-23l-32 -1q-24 -1 -29 -10.5t6 -24.5l107 -138l109 121q22 22 18 36.5t-27 15.5l-37 1v23h207v-23l-31 -1q-22 -1 -43 -14t-47 -39l-130 -144l196 -252h72l8 -166h-15l-65 124
q-4 8 -8 10.5t-13 2.5h-169v23l32 1q24 1 29 10.5t-6 24.5l-121 155l-124 -138q-21 -22 -17 -36.5t27 -15.5l37 -1v-23h-207v23z" />
    <glyph glyph-name="uni04B7" unicode="&#x4b7;" horiz-adv-x="612" 
d="M103 444q0 10 -1.5 16t-5.5 9.5t-11.5 5t-19.5 2.5l-35 2v23h240v-23l-34 -2q-13 -1 -20.5 -2.5t-11.5 -5t-5.5 -9.5t-1.5 -16v-93q0 -60 23.5 -84.5t68.5 -24.5q38 0 64.5 3.5t50.5 10.5v188q0 10 -1.5 16t-5.5 9.5t-11.5 5t-19.5 2.5l-35 2v23h240v-23l-34 -2
q-13 -1 -20.5 -2.5t-11.5 -5t-5.5 -9.5t-1.5 -16v-415h81l8 -166h-15l-65 124q-4 8 -8 10.5t-13 2.5h-165v23l45 2q25 1 31.5 7t6.5 26v165q-36 -8 -66 -11.5t-59 -3.5q-81 0 -128.5 31.5t-47.5 108.5v96z" />
    <glyph glyph-name="uni04BB" unicode="&#x4bb;" horiz-adv-x="636" 
d="M26 23l35 2q25 1 31.5 7t6.5 26v622l-73 41v6l167 64v-412q16 70 60 104t107 34q73 0 113.5 -45t40.5 -154v-260q0 -20 6.5 -26t32.5 -7l34 -2v-23h-240v23l35 2q25 1 31.5 7t6.5 26v242q0 45 -7 76t-20.5 49.5t-33.5 26.5t-46 8q-24 0 -46 -8.5t-38.5 -28t-26 -50
t-9.5 -73.5v-242q0 -20 6.5 -26t32.5 -7l34 -2v-23h-240v23z" />
    <glyph glyph-name="uni04CF" unicode="&#x4cf;" horiz-adv-x="334" 
d="M120 700q0 10 -1.5 16t-5.5 9.5t-11.5 5t-19.5 2.5l-35 2v23h240v-23l-34 -2q-13 -1 -20.5 -2.5t-11.5 -5t-5.5 -9.5t-1.5 -16v-642q0 -20 6.5 -26t32.5 -7l34 -2v-23h-240v23l35 2q25 1 31.5 7t6.5 26v642z" />
    <glyph glyph-name="uni04D9" unicode="&#x4d9;" horiz-adv-x="584" 
d="M280.982 517.969q53.9971 0 100.494 -17.999t79.9951 -51.4971t52.9971 -82.4951t19.499 -110.993q0 -59.9961 -20.499 -108.993t-55.4971 -83.9951q-34.9971 -34.998 -80.4951 -53.9961q-45.4971 -18.999 -95.4941 -18.999q-34.9971 0 -71.4951 10.999t-68.4961 34.998
q-31.998 23.998 -56.4961 62.9961q-24.499 38.9971 -35.498 94.9941h381.977v18.999q0 54.9961 -14.499 99.9932q-14.499 44.998 -39.998 77.4961q-25.498 32.498 -60.4961 50.4961q-34.998 17.999 -76.9951 17.999q-23.999 0 -49.9971 -4.99902
q-25.998 -5 -49.9971 -19.499q-23.998 -14.499 -44.9971 -40.998q-20.999 -26.498 -34.998 -69.4951h-22.998q22.998 100.994 87.4941 147.991t156.49 46.9971zM284.982 12.999q53.9971 0 93.4941 37.498q39.498 37.4971 50.4971 113.493h-262.983
q1 -30.998 7.99902 -58.4971q7 -27.498 21.499 -47.9971q14.499 -20.498 36.498 -32.498q21.998 -11.999 52.9961 -11.999z" />
    <glyph glyph-name="uni04E3" unicode="&#x4e3;" horiz-adv-x="674" 
d="M127 444q0 10 -1.5 16t-5.5 9.5t-11.5 5t-19.5 2.5l-35 2v23h240v-23l-34 -2q-13 -1 -20.5 -2.5t-11.5 -5t-5.5 -9.5t-1.5 -16v-323l232 310v13q0 10 -1.5 16t-5.5 9.5t-11.5 5t-19.5 2.5l-35 2v23h240v-23l-34 -2q-13 -1 -20.5 -2.5t-11.5 -5t-5.5 -9.5t-1.5 -16v-386
q0 -20 6.5 -26t32.5 -7l34 -2v-23h-240v23l35 2q25 1 31.5 7t6.5 26v325l-232 -310v-15q0 -20 6.5 -26t32.5 -7l34 -2v-23h-240v23l35 2q25 1 31.5 7t6.5 26v386zM188 713h298v-45h-298v45z" />
    <glyph glyph-name="uni04E9" unicode="&#x4e9;" horiz-adv-x="613" 
d="M308 -12q-54 0 -102 19.5t-84.5 54t-58 83t-21.5 105.5q0 61 23 110.5t60.5 84t86 53.5t99.5 19q54 0 102 -19.5t84.5 -54t58 -82.5t21.5 -105q0 -61 -22.5 -110.5t-60 -84.5t-86 -54t-100.5 -19zM310 17q30 0 58 12.5t49.5 39.5t35 70t14.5 104h-316q1 -61 14.5 -104
t35 -70t50 -39.5t59.5 -12.5zM310 490q-30 0 -57.5 -12t-49.5 -37.5t-35.5 -66t-16.5 -97.5h315q-3 57 -16.5 97.5t-35 66t-48.5 37.5t-56 12z" />
    <glyph glyph-name="uni04EF" unicode="&#x4ef;" horiz-adv-x="582" 
d="M141 -253q-22 0 -37 14t-15 36q0 12 5.5 25t19.5 25t37 21.5t58 15.5l53 116l-185 439q-9 20 -17.5 29t-31.5 10l-29 1v23h243v-23l-33 -1q-46 -1 -32 -36l137 -328l139 312q12 27 3.5 39t-32.5 13l-37 1v23h190v-23l-32 -1q-23 -1 -33.5 -10.5t-20.5 -31.5l-268 -593
q-11 -24 -19 -42t-17 -30t-20 -18t-26 -6zM156 713h298v-45h-298v45z" />
    </font>
</defs>
</svg>
