<?xml version="1.0" standalone="no"?>
<!DOCTYPE svg PUBLIC "-//W3C//DTD SVG 1.1//EN" "http://www.w3.org/Graphics/SVG/1.1/DTD/svg11.dtd" >
<svg xmlns="http://www.w3.org/2000/svg" xmlns:xlink="http://www.w3.org/1999/xlink" version="1.1">
<metadata>
Created by Christoph Koeberlin (http://christoph.koe.berlin)
Copyright (c) 2017 Swiss Typefaces Sarl. All rights reserved.
</metadata>
<defs>
<font id="Font" horiz-adv-x="0" >
  <font-face 
    font-family="Font"
    font-weight="500"
    font-stretch="normal"
    units-per-em="1000"
    panose-1="2 4 6 4 6 0 0 0 0 4"
    ascent="800"
    descent="-200"
    x-height="502"
    cap-height="758"
    bbox="-419 -403 1339 1081"
    underline-thickness="67"
    underline-position="-130"
    unicode-range="U+0020-FEFF"
  />
<missing-glyph horiz-adv-x="640" 
d="M70 758h500v-758h-500v758zM320 396l217 343h-434zM89 30l221 349l-221 349v-698zM551 30v698l-220 -349zM537 19l-217 343l-217 -343h434z" />
    <glyph glyph-name="f_f.liga" unicode="ff" horiz-adv-x="761" 
d="M592 76q0 -15 7.5 -24t33.5 -12l48 -5v-35h-287v33l27 5q26 5 33.5 14t7.5 24v364h-82v32q23 5 39.5 10t28.5 15t21 25.5t18 41.5q22 65 51 109.5t61 72t65 39.5t65 12q31 0 55 -15t24 -47q0 -30 -16 -46.5t-44 -16.5q-14 0 -26.5 5t-25 11t-26 11t-29.5 5
q-14 0 -28 -5.5t-25.5 -18t-18.5 -33t-7 -49.5q0 -24 8 -50t22 -46h165v-62h-165v-364zM236 76q0 -15 7.5 -24t33.5 -12l48 -5v-35h-287v33l27 5q26 5 33.5 14t7.5 24v364h-82v32q23 5 39.5 10t28.5 15t21 25.5t18 41.5q22 65 51 109.5t61 72t65 39.5t65 12q31 0 55 -15
t24 -47q0 -30 -16 -46.5t-44 -16.5q-14 0 -26.5 5t-25 11t-26 11t-29.5 5q-14 0 -28 -5.5t-25.5 -18t-18.5 -33t-7 -49.5q0 -24 8 -50t22 -46h116v-62h-116v-364z" />
    <glyph glyph-name="f_i.liga" unicode="fi" horiz-adv-x="693" 
d="M236 76q0 -15 7.5 -24t33.5 -12l48 -5v-35h-287v33l27 5q26 5 33.5 14t7.5 24v364h-82v32q23 5 39.5 10t28.5 15t21 25.5t18 41.5q22 65 51 109.5t61 72t65 39.5t65 12q26 0 47.5 -10.5t28.5 -32.5q11 20 31 32.5t44 12.5q35 0 60 -25t25 -60t-25 -60t-60 -25
q-30 0 -53 19t-30 48q-16 -22 -49 -22q-14 0 -26.5 4.5t-25 10.5t-26 10.5t-29.5 4.5q-14 0 -28 -5.5t-25.5 -18t-18.5 -33t-7 -49.5q0 -24 8 -50t22 -46h132v-62h-132v-364zM597 76q0 -15 7.5 -24t33.5 -14l27 -5v-33h-266v33l27 5q26 5 33.5 14t7.5 24v342q0 14 -7.5 23.5
t-33.5 14.5l-27 5v33l198 21v-439z" />
    <glyph glyph-name="f_f_i.liga" unicode="ffi" horiz-adv-x="1049" 
d="M592 76q0 -15 7.5 -24t33.5 -12l48 -5v-35h-287v33l27 5q26 5 33.5 14t7.5 24v364h-82v32q23 5 39.5 10t28.5 15t21 25.5t18 41.5q22 65 51 109.5t61 72t65 39.5t65 12q26 0 47.5 -10.5t28.5 -32.5q11 20 31 32.5t44 12.5q35 0 60 -25t25 -60t-25 -60t-60 -25
q-30 0 -53 19t-30 48q-16 -22 -49 -22q-14 0 -26.5 4.5t-25 10.5t-26 10.5t-29.5 4.5q-14 0 -28 -5.5t-25.5 -18t-18.5 -33t-7 -49.5q0 -24 8 -50t22 -46h132v-62h-132v-364zM236 76q0 -15 7.5 -24t33.5 -12l48 -5v-35h-287v33l27 5q26 5 33.5 14t7.5 24v364h-82v32
q23 5 39.5 10t28.5 15t21 25.5t18 41.5q22 65 51 109.5t61 72t65 39.5t65 12q31 0 55 -15t24 -47q0 -30 -16 -46.5t-44 -16.5q-14 0 -26.5 5t-25 11t-26 11t-29.5 5q-14 0 -28 -5.5t-25.5 -18t-18.5 -33t-7 -49.5q0 -24 8 -50t22 -46h116v-62h-116v-364zM953 76
q0 -15 7.5 -24t33.5 -14l27 -5v-33h-266v33l27 5q26 5 33.5 14t7.5 24v342q0 14 -7.5 23.5t-33.5 14.5l-27 5v33l198 21v-439z" />
    <glyph glyph-name="f_l.liga" unicode="fl" horiz-adv-x="685" 
d="M236 76q0 -15 7.5 -24t33.5 -12l41 -5v-35h-280v33l27 5q26 5 33.5 14t7.5 24v364h-82v32q23 5 39.5 10t28.5 15t21 25.5t18 41.5q22 65 53 109.5t65 72t69.5 39.5t66.5 12q17 0 33.5 -4.5t27.5 -14.5l143 16v-718q0 -15 7.5 -24t33.5 -14l27 -5v-33h-266v33l27 5
q26 5 33.5 14t7.5 24v629q-14 -31 -54 -31q-14 0 -26.5 4.5t-25.5 10.5t-26.5 10.5t-29.5 4.5q-15 0 -31 -5.5t-29.5 -18t-22 -33t-8.5 -49.5q0 -24 8 -50t22 -46h141v-62h-141v-364z" />
    <glyph glyph-name="f_f_l.liga" unicode="ffl" horiz-adv-x="1041" 
d="M236 76q0 -15 7.5 -24t33.5 -12l48 -5v-35h-287v33l27 5q26 5 33.5 14t7.5 24v364h-82v32q23 5 39.5 10t28.5 15t21 25.5t18 41.5q22 65 51 109.5t61 72t65 39.5t65 12q31 0 55 -15t24 -47q0 -30 -16 -46.5t-44 -16.5q-14 0 -26.5 5t-25 11t-26 11t-29.5 5
q-14 0 -28 -5.5t-25.5 -18t-18.5 -33t-7 -49.5q0 -24 8 -50t22 -46h116v-62h-116v-364zM592 76q0 -15 7.5 -24t33.5 -12l48 -5v-35h-287v33l27 5q26 5 33.5 14t7.5 24v364h-82v32q23 5 39.5 10t28.5 15t21 25.5t18 41.5q22 65 51.5 109.5t62.5 72t67 39.5t66 12
q18 0 34 -4.5t27 -15.5l150 17v-718q0 -15 7.5 -24t33.5 -14l27 -5v-33h-266v33l27 5q26 5 33.5 14t7.5 24v639q0 7 -2 11q-3 -25 -18.5 -38.5t-41.5 -13.5q-14 0 -26.5 4.5t-25.5 10.5t-26.5 10.5t-29.5 4.5q-14 0 -28.5 -5.5t-26.5 -18t-20 -33t-8 -49.5q0 -24 8 -50
t22 -46h161v-62h-161v-364z" />
    <glyph glyph-name=".notdef" horiz-adv-x="640" 
d="M70 758h500v-758h-500v758zM320 396l217 343h-434zM89 30l221 349l-221 349v-698zM551 30v698l-220 -349zM537 19l-217 343l-217 -343h434z" />
    <glyph glyph-name="glyph1" 
 />
    <glyph glyph-name="glyph2" horiz-adv-x="260" 
 />
    <glyph glyph-name="space" unicode=" " horiz-adv-x="260" 
 />
    <glyph glyph-name="exclam" unicode="!" horiz-adv-x="301" 
d="M131 238q-4 67 -9.5 115t-11.5 85.5t-12.5 69t-12 66t-10 76.5t-5.5 100q0 10 12 17.5t30 10.5t39 3.5t39 -3t30 -11t12 -17.5q-1 -59 -5 -101t-9.5 -76.5t-12 -66t-13 -69t-12 -85t-9.5 -114.5h-40zM149 -13q-37 0 -63 26.5t-26 65.5q0 37 26 63t63 26q39 0 65.5 -26
t26.5 -63q0 -39 -26.5 -65.5t-65.5 -26.5z" />
    <glyph glyph-name="quotedbl" unicode="&#x22;" horiz-adv-x="405" 
d="M229 724q-7 32 10.5 43.5t55.5 11.5q36 0 54 -11.5t11 -43.5l-47 -234h-37zM46 724q-7 32 10.5 43.5t55.5 11.5q36 0 54 -11.5t11 -43.5l-47 -234h-37z" />
    <glyph glyph-name="numbersign" unicode="#" horiz-adv-x="894" 
d="M60 267h172l90 221h-173l28 69h173l89 219h74l-89 -219h193l89 219h74l-89 -219h171l-28 -69h-171l-90 -221h171l-28 -69h-171l-80 -198h-74l80 198h-193l-80 -198h-74l80 198h-173zM499 267l90 221h-193l-90 -221h193z" />
    <glyph glyph-name="dollar" unicode="$" horiz-adv-x="607" 
d="M275 -13q-51 1 -94 12t-74.5 29t-49 42.5t-17.5 51.5q0 29 18.5 48t49.5 19q29 0 43.5 -18.5t25.5 -43.5q7 -18 15 -33.5t19 -28.5t26 -21t38 -11v303l-26 11q-91 38 -138.5 90.5t-47.5 131.5q0 43 17.5 78.5t46.5 62t67.5 43.5t80.5 23v110h47v-107q47 0 87.5 -9.5
t70 -25.5t46.5 -38.5t17 -48.5q0 -29 -16 -45t-45 -16q-28 0 -46 17t-30 46q-6 13 -12 25.5t-15.5 22.5t-23 16.5t-33.5 9.5v-278l30 -12q51 -21 90.5 -40.5t66 -45t40.5 -59t14 -81.5q0 -49 -19 -89t-51.5 -69t-76.5 -47t-94 -23v-109h-47v107zM164 618q0 -54 29 -87
t82 -57v258q-49 -7 -80 -37.5t-31 -76.5zM456 164q0 28 -8.5 50.5t-25.5 40.5t-42 33t-58 29v-284q62 7 98 41.5t36 89.5z" />
    <glyph glyph-name="percent" unicode="%" horiz-adv-x="953" 
d="M717 758h85l-566 -758h-85zM567 212q0 39 11 77.5t33 69t54.5 50t75.5 19.5t76 -19.5t55 -50t33 -69t11 -77.5t-11 -78t-33 -70.5t-55 -51t-76 -19.5t-75.5 19.5t-54.5 51t-33 70.5t-11 78zM669 212q0 -32 2.5 -65t10 -60t22 -44.5t37.5 -17.5t37.5 17.5t22.5 44.5
t10.5 60t2.5 65q0 31 -2.5 63.5t-10.5 59.5t-22.5 44t-37.5 17t-37.5 -17t-22 -44t-10 -59.5t-2.5 -63.5zM37 553q0 39 11 77.5t33 69t54.5 50t75.5 19.5t76 -19.5t55 -50t33 -69t11 -77.5t-11 -78t-33 -70.5t-55 -51t-76 -19.5t-75.5 19.5t-54.5 51t-33 70.5t-11 78z
M139 553q0 -32 2.5 -65t10 -60t22 -44.5t37.5 -17.5t37.5 17.5t22.5 44.5t10.5 60t2.5 65q0 31 -2.5 63.5t-10.5 59.5t-22.5 44t-37.5 17t-37.5 -17t-22 -44t-10 -59.5t-2.5 -63.5z" />
    <glyph glyph-name="ampersand" unicode="&#x26;" horiz-adv-x="902" 
d="M308 -13q-63 0 -110.5 19t-79.5 50t-48.5 70.5t-16.5 80.5q0 81 51.5 144.5t140.5 98.5q-42 39 -59 78.5t-17 78.5q0 36 17.5 67.5t46.5 55t67 36.5t79 13q42 0 77 -9.5t59.5 -26.5t38 -41.5t13.5 -54.5q0 -51 -29 -85t-75 -56l-69 -31q55 -48 111.5 -104t106.5 -112
l18 32l51 94q12 23 16.5 37.5t1.5 23.5t-13.5 13t-27.5 6l-35 4v33h246v-33l-14 -2q-18 -3 -34 -8.5t-33 -20.5t-38 -42t-49 -71l-57 -88l-6 -9q19 -22 36 -42.5t31 -40.5q21 -28 39.5 -46.5t38.5 -31.5q19 -12 39 -20t48 -12l15 -2v-33h-239q-15 24 -37 55t-49 66
q-55 -66 -114.5 -100t-137.5 -34zM174 259q0 -38 13 -71t37 -57.5t57.5 -38.5t73.5 -14q54 0 97.5 20t80.5 56q-29 36 -61.5 73.5t-66 73t-67.5 67.5t-65 57q-50 -28 -74.5 -73t-24.5 -93zM283 647q0 -69 84 -148q108 44 108 135q0 44 -25 72.5t-70 28.5q-49 0 -73 -25
t-24 -63z" />
    <glyph glyph-name="quotesingle" unicode="'" horiz-adv-x="223" 
d="M46 724q-7 32 10.5 43.5t55.5 11.5q36 0 54 -11.5t11 -43.5l-47 -234h-37z" />
    <glyph glyph-name="parenleft" unicode="(" horiz-adv-x="329" 
d="M282 -245q-65 53 -111 116t-75 132t-43 143t-14 149t14 149t43 143t75 132t111 116l33 -28q-49 -54 -80 -116.5t-49 -128.5t-25 -133.5t-7 -133.5t7 -133.5t25 -133.5t49 -128.5t80 -116.5z" />
    <glyph glyph-name="parenright" unicode=")" horiz-adv-x="329" 
d="M47 835q65 -53 111 -116t75 -132t43 -143t14 -149t-14 -149t-43 -143t-75 -132t-111 -116l-33 28q49 54 80 116.5t49 128.5t25 133.5t7 133.5t-7 133.5t-25 133.5t-49 128.5t-80 116.5z" />
    <glyph glyph-name="asterisk" unicode="*" horiz-adv-x="498" 
d="M137 411l-26 17l80 146l-150 70l11 30l162 -32l19 163h31l20 -163l163 31l9 -29l-150 -70l79 -146l-25 -17l-112 121z" />
    <glyph glyph-name="plus" unicode="+" horiz-adv-x="653" 
d="M289 227h-231v71h231v218h75v-218h231v-71h-231v-227h-75v227z" />
    <glyph glyph-name="comma" unicode="," horiz-adv-x="303" 
d="M141 166q22 0 42.5 -9t36 -25.5t24.5 -40t9 -52.5q0 -56 -48.5 -114.5t-136.5 -99.5l-18 35q98 55 98 127q0 68 -97 89q-1 22 7 38.5t20.5 28t29 17.5t33.5 6z" />
    <glyph glyph-name="hyphen" unicode="-" horiz-adv-x="420" 
d="M63 301h294v-77h-294v77z" />
    <glyph glyph-name="period" unicode="." horiz-adv-x="283" 
d="M140 -13q-37 0 -63 26.5t-26 65.5q0 37 26 63t63 26q39 0 65.5 -26t26.5 -63q0 -39 -26.5 -65.5t-65.5 -26.5z" />
    <glyph glyph-name="slash" unicode="/" horiz-adv-x="488" 
d="M371 806h90l-344 -858h-89z" />
    <glyph glyph-name="zero" unicode="0" horiz-adv-x="675" 
d="M337 -13q-72 0 -126 35.5t-90 92t-54.5 127.5t-18.5 142q0 70 18.5 141t54.5 127t90 91.5t126 35.5t126.5 -35.5t91 -91.5t54.5 -127t18 -141q0 -71 -18 -142t-54.5 -127.5t-91 -92t-126.5 -35.5zM337 34q42 0 69.5 29t43.5 77t22 111.5t6 132.5t-6 132t-22 111
t-43.5 76.5t-69.5 28.5t-69.5 -28.5t-43 -76.5t-21.5 -111t-6 -132t6 -132.5t21.5 -111.5t43 -77t69.5 -29z" />
    <glyph glyph-name="one" unicode="1" horiz-adv-x="406" 
d="M153 634h-126v33q53 3 90.5 11.5t63.5 22.5t43.5 33t30.5 43h28v-701q0 -15 7.5 -24t33.5 -14l27 -5v-33h-288v33l49 7q26 4 33.5 12.5t7.5 23.5v558z" />
    <glyph glyph-name="two" unicode="2" horiz-adv-x="595" 
d="M14 25q99 90 170 167t117 143.5t68 123t22 105.5q0 62 -33 100.5t-96 38.5q-57 0 -100 -39t-51 -124h-43q2 57 20 101t50 75t75.5 47t96.5 16q55 0 96.5 -15t69 -40.5t41 -58.5t13.5 -70q0 -45 -20.5 -90t-52 -87.5t-71 -83t-76.5 -77.5l-151 -146l205 1q37 0 61 3.5
t40.5 14t28 28.5t23.5 48l36 -4l-52 -202h-487v25z" />
    <glyph glyph-name="three" unicode="3" horiz-adv-x="580" 
d="M217 -13q-42 0 -76.5 10t-59.5 26.5t-38.5 38t-13.5 44.5q0 31 19.5 48.5t48.5 17.5t44.5 -19t26.5 -42q7 -14 14.5 -27t19 -23.5t27 -17t37.5 -6.5t48 9.5t48.5 30t37 52.5t14.5 77t-15 79.5t-38.5 57.5t-53 35t-58.5 12q-38 0 -74 -17l-11 38l54 21q72 28 111.5 74
t39.5 96t-33 75.5t-80 25.5q-24 0 -46.5 -6.5t-42 -22t-34 -42t-21.5 -65.5h-42q12 106 77 159t168 53q37 0 70 -9t58 -25.5t39.5 -40.5t14.5 -53q0 -55 -40.5 -91.5t-106.5 -63.5v-3q88 -29 136.5 -86t48.5 -132q0 -62 -26.5 -114.5t-71 -91t-102 -60.5t-118.5 -22z" />
    <glyph glyph-name="four" unicode="4" horiz-adv-x="644" 
d="M353 209h-343v35l361 514h112v-469h134v-80h-134v-209h-130v209zM353 289v351l-235 -351h235z" />
    <glyph glyph-name="five" unicode="5" horiz-adv-x="574" 
d="M202 -13q-39 0 -72.5 9.5t-58.5 26t-39 38t-14 45.5q0 31 19 48.5t47 17.5q32 0 47 -19.5t27 -43.5q7 -14 15 -26t19.5 -21.5t27 -15t38.5 -5.5q28 0 55.5 10.5t49.5 30t35.5 48t13.5 65.5q0 77 -76 129.5t-235 84.5l91 349h348l-33 -123h-301l-26 -95
q171 -37 251.5 -108t80.5 -180q0 -53 -24 -100.5t-66 -84.5t-98.5 -58.5t-121.5 -21.5z" />
    <glyph glyph-name="six" unicode="6" horiz-adv-x="633" 
d="M579 237q0 -54 -22 -100t-59 -79t-85 -52t-99 -19q-59 0 -109 21t-86.5 59t-57 91t-20.5 116q0 79 39 159t110.5 152t173 131.5t226.5 96.5l14 -41q-88 -31 -156.5 -75.5t-119 -96t-82 -108.5t-46.5 -114q27 34 69 55.5t97 21.5q37 0 75 -11.5t68.5 -37.5t50 -67.5
t19.5 -101.5zM187 279q0 -56 9.5 -101t26.5 -76.5t42 -49t55 -17.5q55 0 83.5 44.5t28.5 127.5q0 88 -36 133t-97 45q-30 0 -57 -9t-49 -30q-6 -35 -6 -67z" />
    <glyph glyph-name="seven" unicode="7" horiz-adv-x="575" 
d="M314 297q-26 -44 -44.5 -79.5t-32 -65t-23.5 -53.5t-18 -45q-8 -19 -13.5 -30t-12 -18t-16 -10t-24.5 -5l-54 -8q-23 -3 -28 7t17 42q94 142 192.5 291t209.5 317l-236 -2q-44 0 -70 -3.5t-42 -14t-25.5 -29t-21.5 -49.5l-38 6l46 210h504z" />
    <glyph glyph-name="eight" unicode="8" horiz-adv-x="598" 
d="M293 -13q-55 0 -100.5 14.5t-78 40.5t-50.5 61.5t-18 77.5q0 65 44 110.5t119 78.5q-59 37 -95 87t-36 121q0 46 19 83t50.5 63t73 40.5t87.5 14.5q44 0 82.5 -11t67.5 -31.5t46 -49.5t17 -65q0 -30 -11.5 -56t-32 -48.5t-48 -41t-58.5 -33.5l9 -5q36 -20 67.5 -42.5
t54.5 -50t36 -61.5t13 -77q0 -51 -22 -92t-58 -69.5t-82.5 -43.5t-95.5 -15zM345 457q48 29 69 68.5t21 82.5q0 55 -35 89.5t-96 34.5q-59 0 -94 -28t-35 -75t32.5 -80t86.5 -63zM142 189q0 -33 10.5 -61.5t30.5 -49t48.5 -32.5t64.5 -12q67 0 107 33t40 91q0 48 -35 84
t-98 71l-77 43q-42 -26 -66.5 -67t-24.5 -100z" />
    <glyph glyph-name="nine" unicode="9" horiz-adv-x="634" 
d="M54.9971 528.968q0 53.9971 21.998 99.9941q21.999 45.9971 58.9971 78.9951q36.9971 32.998 84.9941 51.9961q47.9971 18.999 98.9941 18.999q58.9961 0 108.993 -20.998q49.9971 -20.999 86.4951 -58.9971q36.498 -37.9971 56.9961 -90.9941
q20.499 -52.9971 20.499 -115.993q0 -78.9951 -38.998 -158.99q-38.9971 -79.9951 -110.493 -151.99q-71.4951 -71.9961 -172.989 -131.492t-226.486 -96.4941l-13.999 40.9971q87.9951 30.998 156.49 75.4961q68.4961 44.4971 118.993 95.9941
q50.4971 51.4961 81.9951 108.493q31.498 56.9961 46.4971 113.993q-26.998 -33.998 -68.9961 -55.4971q-41.9971 -21.498 -96.9941 -21.498q-36.9971 0 -74.9951 11.499t-68.4961 37.498q-30.498 25.998 -49.9971 67.4951q-19.498 41.498 -19.498 101.494zM446.973 486.971
q0 55.9961 -9.49902 100.993q-9.5 44.9971 -26.499 76.4951t-41.9971 48.9971q-24.999 17.499 -54.9971 17.499q-54.9961 0 -83.4941 -44.4971q-28.499 -44.4971 -28.499 -127.492q0 -87.9941 35.998 -132.992q35.998 -44.9971 96.9941 -44.9971q29.998 0 56.9971 9
q26.998 8.99902 48.9961 29.998q6 34.998 6 66.9961z" />
    <glyph glyph-name="colon" unicode=":" horiz-adv-x="306" 
d="M151 -13q-37 0 -63 26.5t-26 65.5q0 37 26 63t63 26q39 0 65.5 -26t26.5 -63q0 -39 -26.5 -65.5t-65.5 -26.5zM151 337q-37 0 -63 26.5t-26 65.5q0 37 26 63t63 26q39 0 65.5 -26t26.5 -63q0 -39 -26.5 -65.5t-65.5 -26.5z" />
    <glyph glyph-name="semicolon" unicode=";" horiz-adv-x="322" 
d="M160 337q-37 0 -63 26.5t-26 65.5q0 37 26 63t63 26q39 0 65.5 -26t26.5 -63q0 -39 -26.5 -65.5t-65.5 -26.5zM149 166q22 0 42.5 -9t36 -25.5t24.5 -40t9 -52.5q0 -56 -48.5 -114.5t-136.5 -99.5l-18 35q98 55 98 127q0 68 -97 89q-1 22 7 38.5t20.5 28t29 17.5t33.5 6z
" />
    <glyph glyph-name="less" unicode="&#x3c;" horiz-adv-x="653" 
d="M53 295l527 225v-77l-426 -181l426 -181v-77l-527 226v65z" />
    <glyph glyph-name="equal" unicode="=" horiz-adv-x="653" 
d="M70 406h513v-72h-513v72zM70 179h513v-72h-513v72z" />
    <glyph glyph-name="greater" unicode="&#x3e;" horiz-adv-x="653" 
d="M600 230l-527 -226v77l426 181l-426 181v77l527 -225v-65z" />
    <glyph glyph-name="question" unicode="?" horiz-adv-x="541" 
d="M248 723q-32 0 -48.5 -11.5t-27.5 -27.5q-7 -10 -13 -20t-14 -18.5t-18.5 -13.5t-26.5 -5q-28 0 -45.5 17.5t-17.5 47.5q0 22 14 38.5t36.5 27.5t51.5 16t60 5q63 0 118.5 -21.5t97.5 -59t66.5 -87t24.5 -106.5q0 -60 -36 -94.5t-122 -50.5l-73 -14q-20 -4 -31.5 -7.5
t-17.5 -10t-8.5 -17.5t-3.5 -29l-3 -44h-36l-13 116q-3 25 -1.5 43t10.5 30.5t27.5 20.5t49.5 14l72 14q56 11 80 30t24 54q0 31 -16.5 60.5t-42.5 52t-57 36.5t-60 14zM196 -13q-37 0 -63 26.5t-26 65.5q0 37 26 63t63 26q39 0 65.5 -26t26.5 -63q0 -39 -26.5 -65.5
t-65.5 -26.5z" />
    <glyph glyph-name="at" unicode="@" horiz-adv-x="919" 
d="M644 37q-36 -19 -97 -34.5t-133 -15.5q-69 0 -134.5 22t-117 63.5t-83 102t-31.5 138.5q0 93 40.5 177t109 148.5t158.5 102.5t189 38q60 0 120 -18.5t108 -55t78 -91t30 -127.5q0 -78 -27 -136.5t-73 -97t-108 -58t-132 -19.5q-61 0 -61 27q0 11 5.5 26t13.5 35l17 44
h-5q-46 -61 -92 -95.5t-101 -34.5q-40 0 -66.5 25t-26.5 71q0 36 17 76t44.5 78.5t64 73.5t75 61.5t77 42.5t70.5 16q39 0 76.5 -14.5t66.5 -29.5l-119 -307q-6 -17 -9.5 -26t-3.5 -14q0 -3 1.5 -4.5t7.5 -1.5q40 0 81.5 15.5t75 47t54.5 80.5t21 115q0 55 -22 100.5
t-60.5 78t-90 50t-111.5 17.5q-84 0 -158 -31.5t-129 -85.5t-87 -126t-32 -154q0 -60 19.5 -113.5t57.5 -93.5t95.5 -63.5t133.5 -23.5q26 0 53 3.5t52 9.5t45.5 13t34.5 14zM377 246q14 0 37 11t49.5 36t53.5 66t50 100l39 101q-8 21 -42 21t-73.5 -27.5t-73 -69.5
t-55.5 -92t-22 -96q0 -50 37 -50z" />
    <glyph glyph-name="A" unicode="A" horiz-adv-x="769" 
d="M-14 36l37 5q15 2 24.5 7t18 17t17.5 32.5t22 53.5l250 640h52l282 -689q12 -29 23.5 -43t40.5 -18l37 -5v-36h-320v36l37 5q29 4 39 15.5t-1 39.5l-72 178h-255l-44 -113q-15 -38 -19.5 -60.5t-1.5 -35t12.5 -17.5t24.5 -7l37 -5v-36h-241v36zM448 336l-106 260
l-100 -260h206z" />
    <glyph glyph-name="B" unicode="B" horiz-adv-x="781" 
d="M55 36l37 5q29 4 39 15t10 40v566q0 29 -10 40t-39 15l-37 5v36h342q139 0 212.5 -40.5t73.5 -128.5q0 -37 -15 -65t-39.5 -49t-55 -34.5t-61.5 -21.5v-1q45 -5 86.5 -19.5t73.5 -38.5t51.5 -57.5t19.5 -77.5q0 -53 -22.5 -95t-64 -71t-100 -44t-129.5 -15h-372v36z
M380 430q85 0 119.5 36t34.5 105q0 66 -36 102.5t-124 36.5h-46q-28 0 -36.5 -4t-8.5 -19v-257h97zM283 118q0 -40 16 -55t57 -15h48q88 0 135 39t47 122q0 86 -49.5 129t-164.5 43h-89v-263z" />
    <glyph glyph-name="C" unicode="C" horiz-adv-x="809" 
d="M497 44q33 0 64 5t57 16.5t47.5 31t36.5 48.5l36 70h37l-46 -192q-45 -13 -107 -24.5t-138 -11.5q-99 0 -180 31.5t-139.5 85.5t-90.5 126t-32 153t33.5 153t93.5 126t142.5 85.5t180.5 31.5q74 0 135 -11.5t103 -23.5l32 -190h-36l-34 67q-30 59 -85 80.5t-127 21.5
q-50 0 -99 -16t-88 -52t-63.5 -94.5t-24.5 -143.5q0 -81 20 -149.5t58 -118t92 -77.5t122 -28z" />
    <glyph glyph-name="D" unicode="D" horiz-adv-x="874" 
d="M371 758q100 0 184 -25t145.5 -72.5t96 -117t34.5 -158.5t-35 -160t-96 -121t-144 -77t-179 -27h-322v36l37 5q29 4 39 15t10 40v566q0 29 -10 40t-39 15l-37 5v36h316zM371 49q65 0 120.5 15.5t96 51.5t63 94t22.5 144q0 184 -75.5 269.5t-236.5 85.5q-27 0 -43 -1
t-23.5 -3t-9.5 -6.5t-2 -11.5v-568q0 -22 3 -35.5t11 -21t22.5 -10.5t38.5 -3h13z" />
    <glyph glyph-name="E" unicode="E" horiz-adv-x="752" 
d="M356 758l305 2l19 -198h-36l-23 53q-13 30 -26.5 47.5t-36.5 27.5t-60 13t-97 3h-98q-20 0 -20 -20v-274h118q23 0 40 2t28.5 9t19.5 21t13 38l9 41h36v-281h-36l-9 41q-5 24 -13 38t-19.5 21t-28.5 9t-40 2h-118v-217q0 -29 3.5 -45.5t13.5 -25t27.5 -11t45.5 -2.5h45
q63 0 101 3.5t61.5 13t38.5 27.5t33 47l42 68h36l-55 -211h-620v36l37 5q29 4 39 15t10 40v566q0 29 -10 40t-39 15l-37 5v36h301z" />
    <glyph glyph-name="F" unicode="F" horiz-adv-x="718" 
d="M680 760l19 -198h-36l-23 53q-13 30 -26.5 47.5t-36.5 27.5t-60 13t-97 3h-117q-20 0 -20 -20v-274h127q23 0 39.5 2t28 9t19.5 21t13 38l9 41h36v-281h-36l-9 41q-5 24 -13 38t-19.5 21t-28 9t-39.5 2h-127v-257q0 -29 10 -40t39 -13l67 -5v-38h-344v36l37 5q29 4 39 15
t10 40v566q0 29 -10 40t-39 15l-37 5v36h320z" />
    <glyph glyph-name="G" unicode="G" horiz-adv-x="875" 
d="M476 -13q-96 0 -176 31.5t-137.5 85.5t-89 126t-31.5 153t33 153t92 126t142 85.5t183 31.5q70 0 134.5 -11t106.5 -24l33 -190h-36l-35 67q-31 58 -89 80t-131 22q-49 0 -98 -16t-88.5 -52t-64 -94.5t-24.5 -143.5q0 -88 22.5 -156.5t61.5 -116t92.5 -72.5t115.5 -25
q33 0 68 4.5t61 12.5v209q0 29 -10 41t-39 14l-70 5v36h348v-44l-86 -4v-214l5 -71q-26 -10 -61.5 -19t-75 -15.5t-80 -10.5t-76.5 -4z" />
    <glyph glyph-name="H" unicode="H" horiz-adv-x="936" 
d="M369 0h-314v36l37 5q29 4 39 15t10 40v566q0 29 -10 40t-39 15l-37 5v36h314v-36l-37 -5q-29 -4 -39 -15t-10 -40v-248h369v248q0 29 -9.5 40t-38.5 15l-38 5v36h315v-36l-38 -5q-29 -4 -38.5 -15t-9.5 -40v-566q0 -29 9.5 -40t38.5 -15l38 -5v-36h-315v36l38 5
q29 4 38.5 15t9.5 40v257h-369v-257q0 -29 10 -40t39 -15l37 -5v-36z" />
    <glyph glyph-name="I" unicode="I" horiz-adv-x="424" 
d="M141 662q0 29 -10 40t-39 15l-37 5v36h314v-36l-37 -5q-29 -4 -39 -15t-10 -40v-566q0 -29 10 -40t39 -15l37 -5v-36h-314v36l37 5q29 4 39 15t10 40v566z" />
    <glyph glyph-name="J" unicode="J" horiz-adv-x="416" 
d="M289 206q0 -39 -6.5 -67.5t-19.5 -50.5t-32 -40.5t-43 -38.5q-13 -11 -32 -25t-40.5 -29.5t-44 -31.5t-41.5 -29l-27 36q41 36 68.5 63.5t44 56t23.5 62.5t7 83v467q0 29 -9.5 40t-38.5 15l-38 5v36h315v-36l-38 -5q-29 -4 -38.5 -15t-9.5 -40v-456z" />
    <glyph glyph-name="K" unicode="K" horiz-adv-x="867" 
d="M283 362v-266q0 -29 10 -40t39 -15l37 -5v-36h-314v36l37 5q29 4 39 15t10 40v566q0 29 -10 40t-39 15l-37 5v36h314v-36l-37 -5q-29 -4 -39 -15t-10 -40v-266l270 225q27 22 45.5 39.5t25 30t-0.5 20t-31 9.5l-21 2v36h267v-36l-29 -5q-38 -7 -79.5 -31t-103.5 -75
l-213 -174l348 -348q23 -23 38 -34.5t37 -14.5l29 -4v-36h-218z" />
    <glyph glyph-name="L" unicode="L" horiz-adv-x="707" 
d="M283 139q0 -30 4 -47t15.5 -26t32.5 -11.5t55 -2.5h44q43 0 71 3t47.5 12.5t34.5 27t32 45.5l42 71h36l-55 -211h-587v36l37 5q29 4 39 15t10 40v566q0 29 -10 40t-39 15l-37 5v36h314v-36l-37 -5q-29 -4 -39 -15t-10 -40v-523z" />
    <glyph glyph-name="M" unicode="M" horiz-adv-x="1068" 
d="M211 610l-16 -398q-2 -58 -2.5 -91t3 -50t13.5 -22.5t28 -7.5l38 -5v-36h-236v36l37 5q18 3 28 8t15.5 22t7.5 50t5 91l21 450q2 29 -9 40t-40 15l-37 5v36h226l246 -541l234 541h229v-36l-38 -5q-29 -4 -40 -15t-9 -40l28 -566q2 -29 11.5 -40t38.5 -15l38 -5v-36h-315
v36l37 5q29 4 39 15t8 40l-25 514l-266 -618h-18z" />
    <glyph glyph-name="N" unicode="N" horiz-adv-x="913" 
d="M205 591v-393q0 -56 1.5 -86.5t6.5 -45.5t16 -19t29 -6l40 -5v-36h-245v36l40 5q18 2 28.5 6t15.5 19t6.5 45.5t1.5 86.5v372q0 72 -24 108t-75 44v36h189l486 -522v324q0 56 -1.5 86.5t-6.5 45.5t-15.5 19t-28.5 6l-41 5v36h246v-36l-40 -5q-18 -2 -29 -6t-16 -19
t-6.5 -45.5t-1.5 -86.5v-570h-31z" />
    <glyph glyph-name="O" unicode="O" horiz-adv-x="900" 
d="M450 779q81 0 154.5 -29t130 -81.5t89.5 -125.5t33 -161q0 -87 -33.5 -159.5t-89.5 -125t-129.5 -81.5t-154.5 -29t-155 29t-130 81.5t-89.5 125.5t-33.5 160t33.5 159.5t90 125t130 82t154.5 29.5zM440 723q-44 0 -87 -16.5t-77 -53.5t-55 -96t-21 -143q0 -88 19 -157
t53.5 -116.5t82.5 -72.5t105 -25q44 0 87 16.5t77 53t55 95.5t21 144q0 87 -19 156t-53.5 117t-82.5 73t-105 25z" />
    <glyph glyph-name="P" unicode="P" horiz-adv-x="770" 
d="M55 36l37 5q29 4 39 15t10 40v566q0 29 -10 40t-39 15l-37 5v36h365q65 0 124.5 -9t105 -33t72.5 -64.5t27 -103.5q0 -51 -22.5 -91.5t-64 -68t-100 -42.5t-130.5 -15h-149v-235q0 -29 10 -40t39 -13l67 -5v-38h-344v36zM283 386h138q79 0 125.5 39.5t46.5 120.5
t-46.5 121.5t-125.5 40.5h-85q-35 0 -44 -4.5t-9 -19.5v-298z" />
    <glyph glyph-name="Q" unicode="Q" horiz-adv-x="900" 
d="M450 779q81 0 154.5 -29t130 -81.5t89.5 -125.5t33 -161q0 -83 -30 -152.5t-81 -121t-119 -83t-143 -37.5l-200 -74q23 5 40 6t37 1q63 0 113 -8t92 -17.5t78.5 -17.5t72.5 -8q51 0 76 20.5t45 61.5l32 -11q-15 -39 -32 -72.5t-37.5 -58t-45 -39t-53.5 -14.5
q-28 0 -61 10t-68.5 25t-72 33t-71 33t-66 25t-57.5 10q-28 0 -49 -10q-2 -38 -16.5 -56t-33.5 -18q-15 0 -27 10.5t-12 31.5q0 8 2.5 18t10.5 20.5t23 21.5t41 20l159 59q-74 8 -139.5 40t-115 83.5t-78.5 120t-29 149.5q0 87 33.5 159.5t90 125t130 82t154.5 29.5z
M440 723q-44 0 -87 -16.5t-77 -53.5t-55 -96t-21 -143q0 -88 19 -157t53.5 -116.5t82.5 -72.5t105 -25q44 0 87 16.5t77 53t55 95.5t21 144q0 87 -19 156t-53.5 117t-82.5 73t-105 25z" />
    <glyph glyph-name="R" unicode="R" horiz-adv-x="818" 
d="M732 -13q-39 0 -72 9.5t-58.5 33t-44.5 64.5t-29 104q-9 52 -24.5 84.5t-36.5 49.5t-45.5 23t-50.5 6h-88v-265q0 -29 10 -40t39 -15l37 -5v-36h-314v36l37 5q29 4 39 15t10 40v566q0 29 -10 40t-39 15l-37 5v36h334q71 0 130 -9.5t101.5 -31t66 -56t23.5 -84.5
q0 -77 -56 -122.5t-164 -60.5v-2q75 -5 124.5 -47.5t69.5 -122.5l14 -54q10 -39 21 -65t25.5 -41t34 -20t47.5 -3l5 -33q-26 -9 -48.5 -14t-50.5 -5zM283 410q13 0 24.5 -0.5t22.5 -0.5h24h30q50 0 83 12t52.5 32t27.5 47.5t8 57.5q0 33 -9 61t-29.5 48t-54 31.5t-81.5 11.5
h-41q-38 0 -47.5 -4.5t-9.5 -18.5v-277z" />
    <glyph glyph-name="S" unicode="S" horiz-adv-x="670" 
d="M330 -13q-69 0 -134.5 12.5t-111.5 35.5l-31 226h36l34 -89q15 -40 34.5 -65.5t44 -40t54.5 -20t66 -5.5q37 0 68 8.5t54 24.5t36 39.5t13 53.5q0 52 -36 89.5t-123 62.5l-59 17q-97 28 -150.5 87t-53.5 144q0 51 22.5 90.5t61.5 66t91 40.5t112 14q18 0 42 -2.5t49.5 -7
t51 -11t46.5 -13.5l30 -202h-36l-32 77q-25 59 -63.5 83t-100.5 24q-64 0 -106 -31t-42 -87q0 -48 30 -83t96 -55l58 -18q56 -17 101 -36.5t76 -46t47.5 -63t16.5 -88.5q0 -57 -26 -100t-67.5 -72.5t-94 -44t-104.5 -14.5z" />
    <glyph glyph-name="T" unicode="T" horiz-adv-x="750" 
d="M187 38l68 5q29 2 38.5 13t9.5 40v610h-16q-60 0 -98 -2.5t-62 -11.5t-37.5 -27t-22.5 -48l-17 -55h-36l13 198l267 -2h162l266 2l14 -198h-36l-18 55q-10 30 -23 48t-37 27t-62 11.5t-97 2.5h-17v-610q0 -29 10 -40t39 -13l67 -5v-38h-375v38z" />
    <glyph glyph-name="U" unicode="U" horiz-adv-x="871" 
d="M437 -13q-74 0 -133.5 17t-100.5 54.5t-63 97t-22 143.5v363q0 29 -9.5 40t-38.5 15l-38 5v36h315v-36l-38 -5q-29 -4 -38.5 -15t-9.5 -40v-364q0 -130 51 -189.5t155 -59.5q106 0 164.5 59t58.5 194v258q0 56 -1.5 86.5t-6.5 45.5t-16 19t-29 6l-40 5v36h246v-36l-41 -5
q-18 -2 -28.5 -6t-15.5 -19t-6.5 -45.5t-1.5 -86.5v-260q0 -83 -22 -142t-63 -97t-98.5 -56t-129.5 -18z" />
    <glyph glyph-name="V" unicode="V" horiz-adv-x="775" 
d="M66 656q-12 28 -23.5 42.5t-39.5 18.5l-38 5v36h326v-36l-38 -5q-29 -4 -38.5 -15.5t1.5 -39.5l207 -497l178 432q15 37 20 59.5t2 35.5t-13 18t-25 7l-37 5v36h241v-36l-37 -5q-15 -2 -24.5 -7.5t-18 -17.5t-17.5 -32.5t-22 -52.5l-260 -635h-52z" />
    <glyph glyph-name="W" unicode="W" horiz-adv-x="1197" 
d="M80 656q-12 29 -23.5 43t-40.5 18l-37 5v36h326v-36l-38 -5q-29 -4 -39 -15.5t2 -39.5l207 -497l139 338l-97 255h296v-36l-67 -5q-29 -2 -38.5 -14.5t0.5 -40.5l177 -493l176 428q15 37 20 59.5t2 35.5t-13 18t-25 7l-37 5v36h241v-36l-37 -5q-15 -2 -24.5 -7.5
t-18 -17.5t-17.5 -32.5t-22 -52.5l-261 -635h-52l-171 448l-184 -448h-52z" />
    <glyph glyph-name="X" unicode="X" horiz-adv-x="830" 
d="M-2 36l37 5q19 3 34.5 9.5t32 21.5t37 39t50.5 62l165 203l-208 280q-21 28 -38 42.5t-46 18.5l-37 5v36h334v-36l-38 -5q-29 -4 -32 -17.5t15 -37.5l135 -181l85 105q33 40 50 64.5t20 39t-6.5 20t-29.5 8.5l-29 4v36h263v-36l-37 -5q-20 -3 -35 -9.5t-31.5 -21.5
t-37 -39.5t-50.5 -61.5l-125 -154l244 -329q20 -28 37 -42.5t46 -18.5l37 -5v-36h-333v36l37 5q29 4 32.5 17.5t-14.5 37.5l-171 231l-126 -155q-33 -40 -49.5 -64.5t-19.5 -39t6.5 -20t29.5 -8.5l29 -4v-36h-263v36z" />
    <glyph glyph-name="Y" unicode="Y" horiz-adv-x="790" 
d="M207 38l68 5q29 2 38.5 13t9.5 40v243l-223 317q-9 13 -15.5 23.5t-14 18t-17 12.5t-24.5 7l-37 5v36h332v-36l-37 -5q-29 -4 -38 -17t8 -38l182 -261l143 196q23 32 34.5 54t12.5 36t-6.5 21t-22.5 9l-37 5v36h241v-36l-35 -5q-15 -2 -25.5 -8t-21.5 -18.5t-26 -32.5
t-37 -51l-193 -267v-244q0 -29 10 -40t39 -13l67 -5v-38h-375v38z" />
    <glyph glyph-name="Z" unicode="Z" horiz-adv-x="760" 
d="M535 708h-153q-66 0 -106 -3t-65.5 -13t-41 -27.5t-33.5 -46.5l-42 -69h-36l63 211l267 -2h345l-533 -708h207q66 0 106.5 3t65.5 13t40.5 27.5t33.5 46.5l42 69h36l-55 -209h-674z" />
    <glyph glyph-name="bracketleft" unicode="[" horiz-adv-x="322" 
d="M188 -115q0 -24 3.5 -39t12 -23.5t24 -12t39.5 -4.5l37 -2v-42h-204v1064h204v-42l-37 -2q-24 -1 -39.5 -4.5t-24 -12t-12 -23.5t-3.5 -39v-818z" />
    <glyph glyph-name="backslash" unicode="\" horiz-adv-x="488" 
d="M371 -52l-344 858h90l343 -858h-89z" />
    <glyph glyph-name="bracketright" unicode="]" horiz-adv-x="322" 
d="M134 703q0 24 -3.5 39t-12 23.5t-24 12t-39.5 4.5l-37 2v42h204v-1064h-204v42l37 2q24 1 39.5 4.5t24 12t12 23.5t3.5 39v818z" />
    <glyph glyph-name="asciicircum" unicode="^" horiz-adv-x="653" 
d="M565 361h-76l-163 333l-163 -333h-75l206 415h65z" />
    <glyph glyph-name="underscore" unicode="_" horiz-adv-x="534" 
d="M0 -77h534v-67h-534v67z" />
    <glyph glyph-name="grave" unicode="`" 
d="M118 609h-17l-231 170v9h140z" />
    <glyph glyph-name="a" unicode="a" horiz-adv-x="571" 
d="M582 75q-21 -48 -56 -68t-76 -20q-20 0 -38.5 6t-32.5 19t-22.5 32t-8.5 46v11q-15 -56 -54.5 -85t-99.5 -29q-35 0 -64 10t-51 28.5t-34 44t-12 56.5q0 44 27 75t71 51t99.5 31.5t113.5 16.5v52q0 73 -24 100.5t-75 27.5q-12 0 -25 -1.5t-23 -4.5t-16.5 -7t-6.5 -10
q0 -12 5.5 -24.5t5.5 -33.5q0 -26 -15 -46t-50 -20q-29 0 -45 19t-16 45q0 27 18.5 49.5t48.5 39t68.5 25.5t78.5 9q47 0 84.5 -7.5t64 -28.5t40 -58t12.5 -95l-4 -202q-1 -41 7.5 -59.5t29.5 -18.5q16 0 29 9t26 29zM179 141q0 -38 19 -65t55 -27q15 0 30.5 6t29 20
t22 36.5t8.5 56.5l1 106q-89 -14 -127 -47.5t-38 -85.5z" />
    <glyph glyph-name="b" unicode="b" horiz-adv-x="602" 
d="M325 -13q-37 0 -70 14.5t-52 34.5l-113 -47h-12v708q0 14 -7.5 22.5t-33.5 14.5l-27 6v32l198 22v-340q10 12 24.5 23.5t32.5 20.5t38.5 15t43.5 6q43 0 82.5 -17.5t69.5 -51.5t47.5 -83t17.5 -113q0 -60 -18.5 -109t-50.5 -84t-75.5 -54.5t-94.5 -19.5zM280 452
q-44 0 -72 -24v-366q28 -21 69 -21q30 0 56.5 14t45.5 40.5t30 65t11 87.5q0 46 -11 84t-29.5 64.5t-44 41t-55.5 14.5z" />
    <glyph glyph-name="c" unicode="c" horiz-adv-x="564" 
d="M298 -13q-61 0 -109.5 20t-82 55.5t-51.5 84.5t-18 107q0 60 22 109t58.5 83.5t85 53.5t102.5 19q43 0 80 -10t64 -26.5t42 -38t15 -45.5q0 -28 -17.5 -45t-43.5 -17q-32 0 -48 17.5t-24 46.5q-5 16 -10.5 30t-15 24.5t-24 16.5t-35.5 6q-51 0 -83.5 -45t-32.5 -134
q0 -53 12.5 -95t35.5 -71t55.5 -45t72.5 -16q24 0 47 5.5t43.5 19.5t36.5 38t26 61h41q-18 -107 -81 -158t-163 -51z" />
    <glyph glyph-name="d" unicode="d" horiz-adv-x="616" 
d="M255 -13q-44 0 -83 17.5t-69 51t-47.5 83t-17.5 113.5q0 60 18.5 109t50.5 84t75.5 54.5t94.5 19.5q37 0 67.5 -14.5t50.5 -35.5v228q0 14 -7.5 24t-33.5 13l-49 6v32l220 22v-708q0 -14 7.5 -22.5t33.5 -14.5l27 -6v-33l-198 -19v61q-10 -12 -24.5 -23.5t-32.5 -20.5
t-39 -15t-44 -6zM323 54q43 0 72 24v366q-16 11 -33 16t-37 5q-61 0 -101.5 -54t-40.5 -153q0 -47 10.5 -84.5t29.5 -64t44.5 -41t55.5 -14.5z" />
    <glyph glyph-name="e" unicode="e" horiz-adv-x="582" 
d="M299 -13q-61 0 -109.5 20t-82.5 55.5t-52 84.5t-18 107q0 60 21.5 109t57.5 83.5t82 53.5t95 19q48 0 89.5 -13.5t74 -41t54.5 -68.5t31 -95h-370q2 -109 49.5 -169t126.5 -60q25 0 49 5.5t45.5 19.5t38 38t26.5 61h41q-17 -105 -83 -157t-166 -52zM290 479
q-45 0 -76 -32t-39 -98h222q0 36 -9 61t-24 40.5t-34 22t-40 6.5z" />
    <glyph glyph-name="f" unicode="f" horiz-adv-x="405" 
d="M236 76q0 -15 7.5 -24t33.5 -12l48 -5v-35h-287v33l27 5q26 5 33.5 14t7.5 24v364h-82v32q23 5 39.5 10t28.5 15t21 25.5t18 41.5q22 65 51 109.5t61 72t65 39.5t65 12q31 0 55 -15t24 -47q0 -30 -16 -46.5t-44 -16.5q-14 0 -26.5 5t-25 11t-26 11t-29.5 5
q-14 0 -28 -5.5t-25.5 -18t-18.5 -33t-7 -49.5q0 -24 8 -50t22 -46h165v-62h-165v-364z" />
    <glyph glyph-name="g" unicode="g" horiz-adv-x="602" 
d="M278 155q-39 0 -73 9q-38 -8 -57 -22.5t-19 -32.5q0 -21 17.5 -32.5t55.5 -9.5l145 5q124 5 184 -28t60 -111q0 -48 -27 -84.5t-70.5 -61.5t-99 -38t-112.5 -13q-52 0 -97.5 8t-79.5 24t-53.5 39.5t-19.5 53.5q0 34 31.5 59t82.5 36q-54 8 -85.5 37t-31.5 68
q0 40 41 70.5t105 42.5q-51 20 -83 61.5t-32 101.5q0 44 17.5 78t47.5 57t69.5 35t83.5 12q45 0 85 -12.5t70 -36.5l173 91v-86q0 -14 -8 -17.5t-29 -3.5l-120 2q23 -23 35.5 -52.5t12.5 -66.5q0 -44 -18 -78t-48 -57t-70 -35t-83 -12zM129 -121q0 -50 44 -75.5t119 -25.5
q33 0 66.5 7t60 20.5t43 34.5t16.5 49q0 22 -10 35.5t-28.5 20t-44 8.5t-55.5 2l-153 -2h-15q-26 -16 -34.5 -35t-8.5 -39zM278 193q45 0 66.5 38t21.5 106t-21.5 106t-66.5 38t-65.5 -38t-20.5 -106t20.5 -106t65.5 -38z" />
    <glyph glyph-name="h" unicode="h" horiz-adv-x="631" 
d="M24 33l27 5q26 5 33.5 14t7.5 24v621q0 14 -7.5 22.5t-33.5 14.5l-27 6v32l198 22v-405q20 63 60.5 96.5t103.5 33.5q33 0 61 -9.5t48.5 -32t32.5 -59t12 -90.5v-252q0 -15 7.5 -24t33.5 -14l27 -5v-33h-266v33l27 5q26 5 33.5 14t7.5 24v227q0 41 -7 67.5t-19 42
t-28 21.5t-35 6q-18 0 -35.5 -6.5t-32 -23t-23 -43.5t-8.5 -68v-223q0 -15 7.5 -24t33.5 -14l27 -5v-33h-266v33z" />
    <glyph glyph-name="i" unicode="i" horiz-adv-x="331" 
d="M162 629q-35 0 -60 25t-25 60t25 60t60 25t60 -25t25 -60t-25 -60t-60 -25zM235 76q0 -15 7.5 -24t33.5 -14l27 -5v-33h-266v33l27 5q26 5 33.5 14t7.5 24v342q0 14 -7.5 23.5t-33.5 14.5l-27 5v33l198 21v-439z" />
    <glyph glyph-name="j" unicode="j" horiz-adv-x="299" 
d="M221 44q0 -42 -6.5 -73t-19 -55.5t-32.5 -44.5t-47 -39q-24 -18 -63.5 -44t-80.5 -50l-22 31q35 30 61.5 54t44 52.5t26.5 66.5t9 96v380q0 14 -7.5 23.5t-33.5 14.5l-27 5v33l198 21v-471zM148 629q-35 0 -60 25t-25 60t25 60t60 25t60 -25t25 -60t-25 -60t-60 -25z" />
    <glyph glyph-name="k" unicode="k" horiz-adv-x="627" 
d="M222 252v-176q0 -15 7.5 -24t33.5 -14l27 -5v-33h-266v33l27 5q26 5 33.5 14t7.5 24v621q0 14 -7.5 22.5t-33.5 14.5l-27 6v32l198 22v-513l135 111q48 38 53 54t-26 19l-37 4v33h250v-33l-37 -5q-12 -2 -23 -5.5t-25.5 -11.5t-34.5 -22.5t-50 -37.5l-90 -70l220 -243
q15 -17 24.5 -24.5t26.5 -11.5l25 -5v-33h-185z" />
    <glyph glyph-name="l" unicode="l" horiz-adv-x="322" 
d="M28 33l27 5q26 5 33.5 14t7.5 24v621q0 14 -7.5 22.5t-33.5 14.5l-27 6v32l198 22v-718q0 -15 7.5 -24t33.5 -14l27 -5v-33h-266v33z" />
    <glyph glyph-name="m" unicode="m" horiz-adv-x="958" 
d="M299 0h-266v33l27 5q26 5 33.5 14t7.5 24v342q0 14 -7.5 23.5t-33.5 14.5l-27 5v33l198 21v-126q20 63 60.5 96.5t103.5 33.5q28 0 52.5 -7t44 -22.5t33.5 -41.5t20 -63q19 66 62 100t106 34q33 0 61 -9.5t48.5 -32t32.5 -59t12 -90.5v-252q0 -15 7.5 -24t33.5 -14l27 -5
v-33h-266v33l27 5q26 5 33.5 14t7.5 24v227q0 41 -7 67.5t-19 42t-28 21.5t-35 6q-18 0 -35.5 -6.5t-32 -23t-23 -43.5t-8.5 -68v-223q0 -15 7.5 -24t33.5 -14l27 -5v-33h-266v33l27 5q26 5 33.5 14t7.5 24v227q0 41 -6.5 67.5t-18.5 42t-28 21.5t-35 6q-18 0 -36 -6.5
t-32.5 -23t-23 -43.5t-8.5 -68v-223q0 -15 7.5 -24t33.5 -14l27 -5v-33z" />
    <glyph glyph-name="n" unicode="n" horiz-adv-x="640" 
d="M33 33l27 5q26 5 33.5 14t7.5 24v342q0 14 -7.5 23.5t-33.5 14.5l-27 5v33l198 21v-126q20 63 60.5 96.5t103.5 33.5q33 0 61 -9.5t48.5 -32t32.5 -59t12 -90.5v-252q0 -15 7.5 -24t33.5 -14l27 -5v-33h-266v33l27 5q26 5 33.5 14t7.5 24v227q0 41 -6.5 67.5t-18.5 42
t-28 21.5t-35 6q-18 0 -36 -6.5t-32.5 -23t-23 -43.5t-8.5 -68v-223q0 -15 7.5 -24t33.5 -14l27 -5v-33h-266v33z" />
    <glyph glyph-name="o" unicode="o" horiz-adv-x="611" 
d="M306 -13q-60 0 -109.5 20t-85 55t-55 84t-19.5 107t19.5 107t55 84t85 55t109.5 20t109.5 -20t85 -55t55 -84t19.5 -107t-19.5 -107t-55 -84t-85 -55t-109.5 -20zM313 35q24 0 45.5 9.5t38 31t26.5 56.5t10 86q0 45 -8 90.5t-24.5 81.5t-41.5 58.5t-60 22.5
q-24 0 -46 -9.5t-38.5 -31t-26.5 -56.5t-10 -86q0 -45 8 -90.5t24.5 -81.5t42 -58.5t60.5 -22.5z" />
    <glyph glyph-name="p" unicode="p" horiz-adv-x="616" 
d="M293 452q-44 0 -72 -24v-366q28 -21 70 -21q61 0 101.5 54t40.5 153q0 46 -10.5 84t-29.5 64.5t-44.5 41t-55.5 14.5zM23 -215l27 5q26 5 33.5 14t7.5 24v590q0 14 -7.5 23.5t-33.5 14.5l-27 5v33l198 21v-61q10 12 24.5 23.5t32.5 20.5t39 15t44 6q43 0 82.5 -17.5
t69.5 -51.5t47.5 -83t17.5 -113q0 -60 -18.5 -109t-50.5 -84t-76 -54.5t-95 -19.5q-37 0 -67 14.5t-50 35.5v-209q0 -15 7.5 -24t33.5 -12l48 -5v-35h-287v33z" />
    <glyph glyph-name="q" unicode="q" horiz-adv-x="602" 
d="M255 -13q-44 0 -83 17.5t-69 51t-47.5 83t-17.5 113.5q0 60 18.5 109t50.5 84t75.5 54.5t94.5 19.5q37 0 70.5 -14.5t52.5 -34.5l113 47h12v-689q0 -15 7.5 -24t33.5 -14l27 -5v-33h-287v35l48 5q26 3 33.5 12t7.5 24v224q-10 -12 -24.5 -23.5t-32.5 -20.5t-39 -15
t-44 -6zM323 54q43 0 72 24v366q-16 11 -33 16t-37 5q-61 0 -101.5 -54t-40.5 -153q0 -47 10.5 -84.5t29.5 -64t44.5 -41t55.5 -14.5z" />
    <glyph glyph-name="r" unicode="r" horiz-adv-x="459" 
d="M33 33l27 5q26 5 33.5 14t7.5 24v342q0 14 -7.5 23.5t-33.5 14.5l-27 5v33l198 21v-123q13 36 31 60t37.5 38t38.5 20t35 6q32 0 55.5 -17.5t23.5 -52.5t-20.5 -53.5t-44.5 -18.5q-17 0 -29 6.5t-22.5 14.5t-21.5 14.5t-26 6.5q-20 0 -38.5 -20.5t-18.5 -60.5v-259
q0 -15 7.5 -24t33.5 -12l48 -5v-35h-287v33z" />
    <glyph glyph-name="s" unicode="s" horiz-adv-x="474" 
d="M219 -13q-43 0 -85.5 7.5t-69.5 21.5l-18 165h40l20 -60q10 -31 24.5 -49.5t31 -28t33 -12t31.5 -2.5q40 0 65.5 20.5t25.5 55.5q0 28 -22 52.5t-67 38.5l-47 15q-56 18 -92.5 55.5t-36.5 99.5q0 37 17 65.5t45.5 48t65 29.5t76.5 10q38 0 70 -5.5t60 -14.5l24 -151h-42
l-18 49q-17 46 -45 63t-63 17q-33 0 -57 -17t-24 -51q0 -30 19 -50t51 -31l45 -14q83 -26 119.5 -64.5t36.5 -100.5q0 -38 -16.5 -68t-45 -51t-67.5 -32t-84 -11z" />
    <glyph glyph-name="t" unicode="t" horiz-adv-x="429" 
d="M243 -13q-69 0 -106.5 36t-37.5 105v312h-97v43q85 3 128.5 47.5t56.5 125.5h42v-154h166v-62h-166v-300q0 -47 19 -69t52 -22q60 0 95 75l31 -16q-26 -63 -72.5 -92t-110.5 -29z" />
    <glyph glyph-name="u" unicode="u" horiz-adv-x="629" 
d="M538 86q0 -14 7.5 -22.5t33.5 -14.5l27 -6v-33l-198 -19v126q-20 -63 -60.5 -96.5t-103.5 -33.5q-33 0 -61 9.5t-48.5 32t-32.5 59t-12 90.5v240q0 14 -7.5 23.5t-33.5 14.5l-27 5v33l198 21v-312q0 -41 7 -67.5t19 -42t28 -21.5t35 -6q18 0 35.5 6.5t32 23t23 43.5
t8.5 68v211q0 14 -7.5 23.5t-33.5 14.5l-27 5v33l198 21v-429z" />
    <glyph glyph-name="v" unicode="v" horiz-adv-x="581" 
d="M72 426q-6 14 -15.5 23.5t-35.5 14.5l-26 5v33h280v-33l-28 -5q-26 -5 -32 -14.5t0 -23.5l120 -271l120 271q6 14 0.5 23.5t-31.5 14.5l-28 5v33h190v-33l-26 -5q-26 -5 -35.5 -14.5t-15.5 -23.5l-199 -438h-39z" />
    <glyph glyph-name="w" unicode="w" horiz-adv-x="890" 
d="M72 426q-6 14 -15.5 23.5t-35.5 14.5l-26 5v33h280v-33l-28 -5q-26 -5 -32 -14.5t0 -23.5l120 -271l86 195l-67 152h251v-33l-41 -5q-26 -3 -32 -13.5t0 -24.5l111 -269l121 269q6 14 0 23.5t-32 14.5l-27 5v33h190v-33l-26 -5q-26 -5 -35.5 -14.5t-15.5 -23.5l-199 -438
h-39l-133 302l-137 -302h-39z" />
    <glyph glyph-name="x" unicode="x" horiz-adv-x="610" 
d="M0 33l27 3q26 3 46 16t40 35l138 150l-138 182q-16 20 -29.5 31.5t-39.5 15.5l-20 3v33h279v-33l-24 -3q-26 -3 -30 -14t10 -29l74 -97l71 78q51 55 1 61l-32 4v33h217v-33l-26 -3q-26 -3 -46 -16t-40 -35l-117 -127l156 -205q16 -20 29.5 -31.5t39.5 -15.5l20 -3v-33
h-278v33l23 3q26 4 30 14.5t-10 28.5l-91 120l-93 -101q-25 -27 -26.5 -42.5t24.5 -18.5l33 -4v-33h-218v33z" />
    <glyph glyph-name="y" unicode="y" horiz-adv-x="582" 
d="M137 -254q-29 0 -45 17.5t-16 39.5q0 55 88 83q26 8 43 19.5t32 43.5l26 57l-192 420q-6 14 -15 23.5t-35 14.5l-27 5v33h280v-33l-27 -5q-26 -5 -32.5 -14.5t-0.5 -23.5l119 -267l122 267q6 14 0 23.5t-32 14.5l-27 5v33h190v-33l-27 -5q-26 -5 -35 -14.5t-15 -23.5
l-267 -579q-26 -57 -52 -79t-55 -22z" />
    <glyph glyph-name="z" unicode="z" horiz-adv-x="540" 
d="M329 463h-99q-21 0 -35 -1t-23.5 -5t-16 -11.5t-13.5 -19.5l-68 -123h-36l38 199h424l-303 -463h102q21 0 34.5 1.5t23.5 6t17.5 12t16.5 20.5l93 128h34l-60 -207h-432z" />
    <glyph glyph-name="braceleft" unicode="{" horiz-adv-x="368" 
d="M92 291q28 -3 61 -17.5t58 -43.5t36.5 -75.5t-1.5 -113.5l-14 -71q-28 -140 115 -167l-9 -41q-44 5 -88 23t-77 49.5t-49.5 76.5t-5.5 105l16 93q8 46 0.5 76t-26 48t-46 26.5t-58.5 13.5v39q31 5 58.5 13.5t46 26.5t26 47.5t-0.5 76.5l-16 93q-11 60 5.5 105t49.5 76.5
t77 49.5t88 23l9 -41q-143 -27 -115 -167l14 -71q13 -67 1.5 -113.5t-36.5 -75.5t-58 -43.5t-61 -17.5v-3z" />
    <glyph glyph-name="bar" unicode="|" horiz-adv-x="281" 
d="M100 826h81v-1064h-81v1064z" />
    <glyph glyph-name="braceright" unicode="}" horiz-adv-x="368" 
d="M276 294q-28 3 -61 17.5t-58 43.5t-36.5 75.5t1.5 113.5l14 71q28 140 -115 167l9 41q44 -5 88 -23t77 -49.5t49.5 -76.5t5.5 -105l-16 -93q-8 -46 -0.5 -76t26 -48t46 -26.5t58.5 -13.5v-39q-31 -5 -58.5 -13.5t-46 -26.5t-26 -47.5t0.5 -76.5l16 -93q11 -60 -5.5 -105
t-49.5 -76.5t-77 -49.5t-88 -23l-9 41q143 27 115 167l-14 71q-13 67 -1.5 113.5t36.5 75.5t58 43.5t61 17.5v3z" />
    <glyph glyph-name="asciitilde" unicode="~" horiz-adv-x="653" 
d="M206 336q42 0 75 -13.5t62 -29.5t54.5 -29.5t52.5 -13.5q15 0 29.5 4t25.5 13.5t18 25t8 38.5h71q-5 -66 -47 -106.5t-106 -40.5q-36 0 -67.5 13.5t-60.5 29.5t-57.5 29.5t-58.5 13.5q-15 0 -29.5 -4t-25.5 -13.5t-18 -25t-8 -38.5h-71q5 66 47 106.5t106 40.5z" />
    <glyph glyph-name="uni00A0" unicode="&#xa0;" horiz-adv-x="260" 
 />
    <glyph glyph-name="exclamdown" unicode="&#xa1;" horiz-adv-x="280" 
d="M160 270q4 -67 9.5 -114.5t12 -84t13 -67.5t12 -64.5t9.5 -74t5 -97.5q0 -16 -25 -24t-55.5 -8t-55.5 8t-25 24q1 56 5 97t9.5 74t12 64t12.5 68t11.5 84.5t9.5 114.5h40zM138 521q39 0 65.5 -26.5t26.5 -65.5q0 -37 -26.5 -63t-65.5 -26q-37 0 -63 26t-26 63
q0 39 26 65.5t63 26.5z" />
    <glyph glyph-name="cent" unicode="&#xa2;" horiz-adv-x="588" 
d="M327 620v-102q41 -2 75.5 -12t59.5 -26.5t39 -37.5t14 -43q0 -28 -17.5 -45t-43.5 -17q-32 0 -48 17.5t-24 46.5q-8 25 -19 45t-36 28v-400q7 -1 14.5 -1.5t15.5 -0.5q24 0 47 5.5t43.5 19.5t36.5 38t26 61h41q-17 -102 -75 -152.5t-149 -55.5v-108h-47v109
q-55 4 -98.5 25.5t-73.5 56.5t-46 81.5t-16 101.5t18.5 101t50 80t74.5 55t91 27v103h47zM181 299q0 -78 26 -131t73 -78v386q-44 -7 -71.5 -51.5t-27.5 -125.5z" />
    <glyph glyph-name="sterling" unicode="&#xa3;" horiz-adv-x="675" 
d="M458 -24q-25 0 -61 10.5t-76 28t-80 40t-72 45.5q-14 -60 -35.5 -86t-47.5 -26q-21 0 -33 11t-12 32q0 11 4 20t13 18t24 20t38 26q25 17 45 34.5t33 41t20 54.5t7 76q0 8 -0.5 16t-1.5 16h-158v59h142q-9 22 -20 42.5t-21 40.5t-16.5 40.5t-6.5 43.5q0 41 26.5 77.5
t69 63.5t95 43t103.5 16q27 0 54.5 -6t49 -17.5t35 -29t13.5 -40.5q0 -26 -16.5 -43t-45.5 -17q-21 0 -33.5 9.5t-20.5 23.5q-6 10 -15.5 21.5t-23 21.5t-31.5 16t-41 6q-44 0 -73 -24.5t-29 -72.5q0 -30 10.5 -55.5t25 -50.5t29 -51.5t22.5 -57.5h189v-59h-182
q-1 -35 -13 -61t-30 -46t-40.5 -35.5t-44.5 -28.5q21 -12 59.5 -27.5t81 -29t82 -22.5t61.5 -9q37 0 56 18t37 59l37 -14l-18 -43q-29 -69 -66 -103.5t-98 -34.5z" />
    <glyph glyph-name="yen" unicode="&#xa5;" horiz-adv-x="851" 
d="M159 233h200v78h-200v56h180l-203 289q-9 13 -15.5 24.5t-14 20t-17 13.5t-24.5 7l-37 4v33h316v-33l-37 -4q-29 -3 -38 -18.5t8 -40.5l182 -261l143 196q23 32 34.5 54.5t12.5 37.5t-6.5 22.5t-22.5 9.5l-37 4v33h241v-33l-35 -4q-15 -2 -25.5 -8t-21.5 -19.5t-26 -34.5
t-37 -52l-173 -240h180v-56h-200v-78h200v-56h-200v-81q0 -29 10 -40.5t39 -13.5l67 -5v-37h-359v37l68 5q29 2 38.5 13.5t9.5 40.5v81h-200v56z" />
    <glyph glyph-name="brokenbar" unicode="&#xa6;" horiz-adv-x="281" 
d="M100 803h81v-402h-81v402zM100 183h81v-402h-81v402z" />
    <glyph glyph-name="section" unicode="&#xa7;" horiz-adv-x="614" 
d="M267 -154q48 0 75 35t27 92q0 52 -28.5 102t-80.5 106l-82 87q-58 61 -94 119.5t-36 129.5q0 57 28 105t75 83t108.5 54.5t127.5 19.5q34 0 65 -6.5t55 -19.5t38.5 -33t14.5 -46q0 -35 -19.5 -52t-45.5 -17q-19 0 -31.5 6.5t-21.5 17t-15 23.5t-11 26q-9 23 -27 39.5
t-56 16.5q-42 0 -71 -28t-29 -79t29.5 -97t78.5 -98l82 -87q36 -39 64 -71.5t47 -63t29 -62t10 -67.5q0 -60 -26.5 -111t-72.5 -88t-106.5 -57.5t-128.5 -20.5q-42 0 -77.5 9.5t-62 26t-41 39t-14.5 47.5q0 29 19 47t49 18q18 0 30 -6.5t20.5 -16.5t14.5 -23.5t12 -26.5
q11 -27 27 -49.5t51 -22.5zM444 14q0 -29 -9 -58.5t-31 -53.5q50 34 70.5 76.5t20.5 87.5q0 36 -14 68t-35.5 61.5t-47.5 57t-51 53.5l-82 87q-20 21 -38.5 44t-33 47t-23 49.5t-8.5 52.5t7 50t26 46q-41 -29 -58.5 -66.5t-17.5 -79.5q0 -55 30.5 -102t72.5 -91l82 -87
q29 -30 54.5 -58.5t44.5 -57.5t30 -60t11 -66z" />
    <glyph glyph-name="dieresis" unicode="&#xa8;" 
d="M114 645q-28 0 -46.5 19t-18.5 47q0 29 18.5 47.5t46.5 18.5q27 0 46 -18.5t19 -47.5q0 -28 -19 -47t-46 -19zM-115 645q-28 0 -46.5 19t-18.5 47q0 29 18.5 47.5t46.5 18.5q27 0 46 -18.5t19 -47.5q0 -28 -19 -47t-46 -19z" />
    <glyph glyph-name="copyright" unicode="&#xa9;" horiz-adv-x="886" 
d="M44 383q0 88 31.5 160.5t85.5 125t126.5 81.5t155.5 29t155.5 -29t126.5 -81.5t85.5 -125t31.5 -160.5t-31.5 -160.5t-85.5 -125t-126.5 -81.5t-155.5 -29t-155.5 29t-126.5 81.5t-85.5 125t-31.5 160.5zM105 383q0 -78 26 -142t71.5 -109t107 -69.5t133.5 -24.5
q71 0 133 24.5t107.5 69.5t71.5 109t26 142t-26 142t-71.5 109t-107.5 69.5t-133 24.5q-72 0 -133.5 -24.5t-107 -69.5t-71.5 -109t-26 -142zM471 203q36 0 69 13.5t51 48.5l16 32h27l-30 -116q-26 -10 -61 -15t-75 -5q-60 0 -108 18t-81 48.5t-50.5 71.5t-17.5 87t18.5 87
t52 71.5t82 48.5t108.5 18q82 0 137 -20l18 -112h-26l-13 28q-9 19 -22 31t-29.5 19t-35 9.5t-37.5 2.5q-24 0 -49 -6t-45.5 -23.5t-34 -49t-13.5 -82.5q0 -44 9.5 -81t28 -65t46.5 -43.5t65 -15.5z" />
    <glyph glyph-name="ordfeminine" unicode="&#xaa;" horiz-adv-x="519" 
d="M174 368q-27 0 -51 8t-41.5 23t-27.5 35.5t-10 45.5q0 34 21 59t55.5 42t79.5 26.5t92 13.5v43q0 56 -20.5 78.5t-50.5 22.5q-24 0 -38 -6.5t-16 -20.5q-1 -12 1.5 -19t2.5 -23q0 -19 -10 -36.5t-42 -17.5q-28 0 -40.5 15t-12.5 38q0 22 14 40.5t38 32t55.5 21.5t67.5 8
t66.5 -6t53 -23.5t35 -47.5t12.5 -78l-1 -160q0 -34 5.5 -47t20.5 -13q26 0 46 33l18 -10q-17 -42 -47 -59.5t-67 -17.5q-33 0 -59.5 20t-27.5 67v3q-11 -44 -42.5 -67t-79.5 -23zM228 421q10 0 21.5 4t21 14.5t15.5 27.5t6 43v89q-35 -6 -57.5 -16t-36 -23.5t-19 -30.5
t-5.5 -35q0 -28 13 -50.5t41 -22.5z" />
    <glyph glyph-name="guillemotleft" unicode="&#xab;" horiz-adv-x="546" 
d="M246 484l37 -24l-119 -209l119 -209l-37 -24l-203 233zM456 484l37 -24l-119 -209l119 -209l-37 -24l-203 233z" />
    <glyph glyph-name="uni00AD" unicode="&#xad;" horiz-adv-x="420" 
d="M63 301h294v-77h-294v77z" />
    <glyph glyph-name="registered" unicode="&#xae;" horiz-adv-x="886" 
d="M44 383q0 88 31.5 160.5t85.5 125t126.5 81.5t155.5 29t155.5 -29t126.5 -81.5t85.5 -125t31.5 -160.5t-31.5 -160.5t-85.5 -125t-126.5 -81.5t-155.5 -29t-155.5 29t-126.5 81.5t-85.5 125t-31.5 160.5zM105 383q0 -78 26 -142t71.5 -109t107 -69.5t133.5 -24.5
q71 0 133 24.5t107.5 69.5t71.5 109t26 142t-26 142t-71.5 109t-107.5 69.5t-133 24.5q-72 0 -133.5 -24.5t-107 -69.5t-71.5 -109t-26 -142zM617 172q-24 0 -43.5 5t-35 18.5t-26.5 37t-17 60.5q-5 29 -13.5 46.5t-19 26.5t-23 12t-26.5 3h-31v-143q0 -17 7 -23.5t24 -8.5
l17 -2v-24h-201v24l17 2q18 2 25 8.5t7 22.5v316q0 16 -7 22.5t-25 8.5l-17 2v24h203q41 0 76 -5.5t61 -17.5t40.5 -31.5t14.5 -46.5q0 -40 -29 -66t-96 -37v-2q38 -3 67.5 -29.5t40.5 -68.5l8 -31q9 -35 24 -53t44 -12l6 -23q-20 -8 -34.5 -11.5t-37.5 -3.5zM433 414
q24 0 39.5 6.5t24 17.5t12 26.5t3.5 32.5q0 40 -21.5 59.5t-59.5 19.5h-13q-25 0 -30.5 -2.5t-5.5 -10.5v-149h51z" />
    <glyph glyph-name="macron" unicode="&#xaf;" 
d="M-154 736h308v-67h-308v67z" />
    <glyph glyph-name="degree" unicode="&#xb0;" horiz-adv-x="421" 
d="M210 441q-36 0 -67 13t-54 36t-36 54t-13 66t13 66t36 54t54 36t67 13t67 -13t54 -36t36 -54t13 -66t-13 -66t-36 -54t-54 -36t-67 -13zM210 501q21 0 40 7.5t33 22t22.5 34.5t8.5 45t-8.5 45t-22.5 34t-33 22t-40 8t-39.5 -8t-32.5 -22t-22.5 -34t-8.5 -45t8.5 -45
t22.5 -34.5t32.5 -22t39.5 -7.5z" />
    <glyph glyph-name="plusminus" unicode="&#xb1;" horiz-adv-x="653" 
d="M289 285h-211v71h211v160h75v-160h211v-71h-211v-165h-75v165zM78 72h497v-72h-497v72z" />
    <glyph glyph-name="uni00B2" unicode="&#xb2;" horiz-adv-x="350" 
d="M18 401v16q54 52 90.5 93.5t59 75.5t32.5 61t10 50q0 29 -16 51t-52 22q-28 0 -47 -12t-41 -40l-22 15q27 42 60 69t88 27q31 0 54 -8.5t37.5 -23t21.5 -33t7 -38.5q0 -26 -11.5 -49.5t-29 -45.5t-39 -43t-40.5 -41l-66 -68h93q20 0 34 2.5t24.5 8.5t17.5 16.5t14 26.5
l24 -2l-29 -130h-274z" />
    <glyph glyph-name="uni00B3" unicode="&#xb3;" horiz-adv-x="347" 
d="M130 394q-47 0 -75.5 21.5t-28.5 50.5q0 18 11.5 31.5t33.5 13.5q18 0 28.5 -9.5t15.5 -22.5q7 -18 17.5 -36t34.5 -18q22 0 43.5 20t21.5 62q0 27 -8.5 46.5t-21.5 32.5t-29.5 19t-32.5 6q-19 0 -37 -8l-7 24l23 9q35 14 59 38t24 51q0 30 -17.5 43.5t-38.5 13.5
q-11 0 -22.5 -3t-21.5 -11.5t-18 -23.5t-11 -38h-29q4 54 39.5 88.5t105.5 34.5q19 0 37.5 -4t33 -12.5t23.5 -20.5t9 -27q0 -57 -86 -78v-2q59 -17 83.5 -51t24.5 -74q0 -30 -13 -59.5t-37 -53.5t-58 -38.5t-76 -14.5z" />
    <glyph glyph-name="acute" unicode="&#xb4;" 
d="M-16 788h140v-9l-231 -170h-17z" />
    <glyph glyph-name="paragraph" unicode="&#xb6;" horiz-adv-x="577" 
d="M212 -187q-45 0 -76.5 21t-31.5 57q0 27 17 43t41 16q25 0 37 -14.5t25 -31.5q11 -14 23.5 -23t33.5 -9q40 0 62.5 33.5t22.5 104.5v293q-25 -8 -47.5 -12.5t-48.5 -4.5q-54 0 -97 16t-73.5 45.5t-46.5 70t-16 90.5q0 53 21.5 98.5t61.5 79.5t98 53t131 19h179v-33
l-27 -5q-26 -5 -33.5 -14t-7.5 -24v-582q0 -28 -4 -57.5t-13.5 -58t-25.5 -55t-40 -48.5q-37 -35 -77.5 -51.5t-87.5 -16.5z" />
    <glyph glyph-name="periodcentered" unicode="&#xb7;" horiz-adv-x="299" 
d="M148 172q-37 0 -63 26.5t-26 65.5q0 37 26 63t63 26q39 0 65.5 -26t26.5 -63q0 -39 -26.5 -65.5t-65.5 -26.5z" />
    <glyph glyph-name="cedilla" unicode="&#xb8;" 
d="M-33 -265q-15 0 -30.5 3t-28 9t-20.5 15.5t-8 22.5q0 16 13.5 28t39.5 7q0 -26 17.5 -40t40.5 -14q18 0 29.5 8.5t11.5 21.5q0 20 -33.5 40t-83.5 42l119 127h42l-76 -81q44 -22 64 -42.5t20 -53.5q0 -17 -8 -33.5t-23 -30t-36.5 -21.5t-49.5 -8z" />
    <glyph glyph-name="uni00B9" unicode="&#xb9;" horiz-adv-x="259" 
d="M95 738h-69v24q111 9 136 64h25v-375q0 -11 3.5 -15t17.5 -6l21 -3v-26h-191v27l33 3q15 2 19.5 6t4.5 14v287z" />
    <glyph glyph-name="ordmasculine" unicode="&#xba;" horiz-adv-x="514" 
d="M257 368q-50 0 -90.5 16t-69 44.5t-44 68t-15.5 85.5t15.5 85.5t44 68.5t69 45t90.5 16t90.5 -16t69.5 -45t44.5 -68.5t15.5 -85.5t-15.5 -85.5t-44.5 -68t-69.5 -44.5t-90.5 -16zM271 407q43 4 63 47.5t12 134.5q-8 92 -34.5 132t-68.5 37q-43 -4 -62.5 -47.5
t-12.5 -134.5q8 -91 34.5 -131.5t68.5 -37.5z" />
    <glyph glyph-name="guillemotright" unicode="&#xbb;" horiz-adv-x="546" 
d="M293 251l-203 -233l-37 24l119 209l-119 209l37 24zM503 251l-203 -233l-37 24l119 209l-119 209l37 24z" />
    <glyph glyph-name="onequarter" unicode="&#xbc;" horiz-adv-x="823" 
d="M95 678h-69v24q111 9 136 64h25v-375q0 -11 3.5 -15t17.5 -6l21 -3v-26h-191v27l33 3q15 2 19.5 6t4.5 14v287zM608 758h85l-566 -758h-85zM634 103h-186v23l198 291h81v-261h75v-53h-75v-103h-93v103zM634 156v180l-116 -180h116z" />
    <glyph glyph-name="onehalf" unicode="&#xbd;" horiz-adv-x="809" 
d="M95 678h-69v24q111 9 136 64h25v-375q0 -11 3.5 -15t17.5 -6l21 -3v-26h-191v27l33 3q15 2 19.5 6t4.5 14v287zM608 758h85l-566 -758h-85zM477 0v16q54 52 90.5 93.5t59 75.5t32.5 61t10 50q0 29 -16 51t-52 22q-28 0 -47 -12t-41 -40l-22 15q27 42 60 69t88 27
q31 0 54 -8.5t37.5 -23t21.5 -33t7 -38.5q0 -26 -11.5 -49.5t-29 -45.5t-39 -43t-40.5 -41l-66 -68h93q20 0 34 2.5t24.5 8.5t17.5 16.5t14 26.5l24 -2l-29 -130h-274z" />
    <glyph glyph-name="threequarters" unicode="&#xbe;" horiz-adv-x="910" 
d="M130 334q-47 0 -75.5 21.5t-28.5 50.5q0 18 11.5 31.5t33.5 13.5q18 0 28.5 -9.5t15.5 -22.5q7 -18 17.5 -36t34.5 -18q22 0 43.5 20t21.5 62q0 27 -8.5 46.5t-21.5 32.5t-29.5 19t-32.5 6q-19 0 -37 -8l-7 24l23 9q35 14 59 38t24 51q0 30 -17.5 43.5t-38.5 13.5
q-11 0 -22.5 -3t-21.5 -11.5t-18 -23.5t-11 -38h-29q4 54 39.5 88.5t105.5 34.5q19 0 37.5 -4t33 -12.5t23.5 -20.5t9 -27q0 -57 -86 -78v-2q59 -17 83.5 -51t24.5 -74q0 -30 -13 -59.5t-37 -53.5t-58 -38.5t-76 -14.5zM689 758h85l-566 -758h-85zM722 103h-186v23l198 291
h81v-261h75v-53h-75v-103h-93v103zM722 156v180l-116 -180h116z" />
    <glyph glyph-name="questiondown" unicode="&#xbf;" horiz-adv-x="531" 
d="M287 -208q32 0 49 11t28 28l12 20t14 18t18.5 13.5t26.5 5.5q28 0 45.5 -17.5t17.5 -47.5q0 -23 -14 -39.5t-36.5 -27t-51.5 -15.5t-60 -5q-63 0 -118.5 21.5t-97 59t-66 87t-24.5 106.5q0 60 35.5 94t121.5 51l73 14q20 4 31.5 7.5t18 9.5t8.5 17t4 29l3 38h35l12 -109
q3 -26 1.5 -43.5t-10.5 -30t-27 -20.5t-49 -14l-72 -14q-56 -11 -79.5 -30t-23.5 -55q0 -31 16.5 -60t42 -51.5t56.5 -36.5t60 -14zM342 521q37 0 63 -26.5t26 -65.5q0 -37 -26 -63t-63 -26q-39 0 -65.5 26t-26.5 63q0 39 26.5 65.5t65.5 26.5z" />
    <glyph glyph-name="Agrave" unicode="&#xc0;" horiz-adv-x="769" 
d="M-14 36l37 5q15 2 24.5 7t18 17t17.5 32.5t22 53.5l250 640h52l282 -689q12 -29 23.5 -43t40.5 -18l37 -5v-36h-320v36l37 5q29 4 39 15.5t-1 39.5l-72 178h-255l-44 -113q-15 -38 -19.5 -60.5t-1.5 -35t12.5 -17.5t24.5 -7l37 -5v-36h-241v36zM448 336l-106 260
l-100 -260h206zM146 973h176l100 -129h-21l-255 126v3z" />
    <glyph glyph-name="Aacute" unicode="&#xc1;" horiz-adv-x="769" 
d="M-14 36l37 5q15 2 24.5 7t18 17t17.5 32.5t22 53.5l250 640h52l282 -689q12 -29 23.5 -43t40.5 -18l37 -5v-36h-320v36l37 5q29 4 39 15.5t-1 39.5l-72 178h-255l-44 -113q-15 -38 -19.5 -60.5t-1.5 -35t12.5 -17.5t24.5 -7l37 -5v-36h-241v36zM448 336l-106 260
l-100 -260h206zM634 970l-255 -126h-21l100 129h176v-3z" />
    <glyph glyph-name="Acircumflex" unicode="&#xc2;" horiz-adv-x="769" 
d="M-14 36l37 5q15 2 24.5 7t18 17t17.5 32.5t22 53.5l250 640h52l282 -689q12 -29 23.5 -43t40.5 -18l37 -5v-36h-320v36l37 5q29 4 39 15.5t-1 39.5l-72 178h-255l-44 -113q-15 -38 -19.5 -60.5t-1.5 -35t12.5 -17.5t24.5 -7l37 -5v-36h-241v36zM448 336l-106 260
l-100 -260h206zM390 989l165 -155h-23l-150 66l-150 -66h-23l165 155h16z" />
    <glyph glyph-name="Atilde" unicode="&#xc3;" horiz-adv-x="769" 
d="M-14 36l37 5q15 2 24.5 7t18 17t17.5 32.5t22 53.5l250 640h52l282 -689q12 -29 23.5 -43t40.5 -18l37 -5v-36h-320v36l37 5q29 4 39 15.5t-1 39.5l-72 178h-255l-44 -113q-15 -38 -19.5 -60.5t-1.5 -35t12.5 -17.5t24.5 -7l37 -5v-36h-241v36zM448 336l-106 260
l-100 -260h206zM218 834q0 23 5.5 48t17.5 46t30 34.5t43 13.5q21 0 42 -10t40.5 -21.5t38 -21.5t35.5 -10q27 0 40 14t15 46h21q0 -41 -8 -67t-20.5 -42t-28 -22t-31.5 -6q-25 0 -46 10t-40.5 21.5t-38 21.5t-38.5 10q-24 0 -39 -17t-17 -48h-21z" />
    <glyph glyph-name="Adieresis" unicode="&#xc4;" horiz-adv-x="769" 
d="M-14 36l37 5q15 2 24.5 7t18 17t17.5 32.5t22 53.5l250 640h52l282 -689q12 -29 23.5 -43t40.5 -18l37 -5v-36h-320v36l37 5q29 4 39 15.5t-1 39.5l-72 178h-255l-44 -113q-15 -38 -19.5 -60.5t-1.5 -35t12.5 -17.5t24.5 -7l37 -5v-36h-241v36zM448 336l-106 260
l-100 -260h206zM500 841q-29 0 -48 19t-19 48q0 30 19 49.5t48 19.5q28 0 47.5 -19.5t19.5 -49.5q0 -29 -19.5 -48t-47.5 -19zM264 841q-29 0 -48 19t-19 48q0 30 19 49.5t48 19.5q28 0 47.5 -19.5t19.5 -49.5q0 -29 -19.5 -48t-47.5 -19z" />
    <glyph glyph-name="Aring" unicode="&#xc5;" horiz-adv-x="769" 
d="M-14 36l37 5q15 2 24.5 7t18 17t17.5 32.5t22 53.5l250 640h52l282 -689q12 -29 23.5 -43t40.5 -18l37 -5v-36h-320v36l37 5q29 4 39 15.5t-1 39.5l-72 178h-255l-44 -113q-15 -38 -19.5 -60.5t-1.5 -35t12.5 -17.5t24.5 -7l37 -5v-36h-241v36zM448 336l-106 260
l-100 -260h206zM258 960q0 25 10 47t26.5 38.5t39 26t48.5 9.5q27 0 50 -9.5t40 -26t26.5 -38.5t9.5 -47t-9.5 -46.5t-26.5 -37.5t-40 -25.5t-50 -9.5q-26 0 -48.5 9.5t-39 25.5t-26.5 37.5t-10 46.5zM449 960q0 32 -17.5 50t-49.5 18q-31 0 -48.5 -18t-17.5 -50
q0 -31 17.5 -49.5t48.5 -18.5q32 0 49.5 18.5t17.5 49.5z" />
    <glyph glyph-name="AE" unicode="&#xc6;" horiz-adv-x="1200" 
d="M-28 36l37 5q29 4 63 28.5t76 81.5l440 607h215l306 2l10 -198h-36l-18 53q-10 30 -23 48t-36.5 27.5t-61 12.5t-96.5 3h-97q-20 0 -20 -20v-274h127q23 0 38.5 2t25.5 9t16.5 21t11.5 38l9 41h36v-281h-36l-9 41q-5 24 -11.5 38t-16.5 21t-25.5 9t-38.5 2h-127v-217
q0 -29 3.5 -45.5t13.5 -25t27.5 -11t44.5 -2.5h45q64 0 102 3.5t61.5 13t38.5 27.5t33 47l42 68h36l-55 -211h-621v36l38 5q29 4 38.5 15t9.5 40v173h-282l-79 -108q-24 -33 -38.5 -55t-20 -36t-1 -20.5t18.5 -8.5l38 -5v-36h-252v36zM588 331v327l-237 -327h237z" />
    <glyph glyph-name="Ccedilla" unicode="&#xc7;" horiz-adv-x="809" 
d="M497 44q33 0 64 5t57 16.5t47.5 31t36.5 48.5l36 70h37l-46 -192q-45 -13 -107 -24.5t-138 -11.5q-99 0 -180 31.5t-139.5 85.5t-90.5 126t-32 153t33.5 153t93.5 126t142.5 85.5t180.5 31.5q74 0 135 -11.5t103 -23.5l32 -190h-36l-34 67q-30 59 -85 80.5t-127 21.5
q-50 0 -99 -16t-88 -52t-63.5 -94.5t-24.5 -143.5q0 -81 20 -149.5t58 -118t92 -77.5t122 -28zM414 -267q-15 0 -30.5 3t-28 9t-20.5 15.5t-8 22.5q0 16 13.5 28t39.5 7q0 -26 17.5 -40t40.5 -14q18 0 29.5 8.5t11.5 21.5q0 20 -33.5 40t-83.5 42l119 127h42l-76 -81
q44 -22 64 -42.5t20 -53.5q0 -17 -8 -33.5t-23 -30t-36.5 -21.5t-49.5 -8z" />
    <glyph glyph-name="Egrave" unicode="&#xc8;" horiz-adv-x="752" 
d="M356 758l305 2l19 -198h-36l-23 53q-13 30 -26.5 47.5t-36.5 27.5t-60 13t-97 3h-98q-20 0 -20 -20v-274h118q23 0 40 2t28.5 9t19.5 21t13 38l9 41h36v-281h-36l-9 41q-5 24 -13 38t-19.5 21t-28.5 9t-40 2h-118v-217q0 -29 3.5 -45.5t13.5 -25t27.5 -11t45.5 -2.5h45
q63 0 101 3.5t61.5 13t38.5 27.5t33 47l42 68h36l-55 -211h-620v36l37 5q29 4 39 15t10 40v566q0 29 -10 40t-39 15l-37 5v36h301zM168 972h176l100 -129h-21l-255 126v3z" />
    <glyph glyph-name="Eacute" unicode="&#xc9;" horiz-adv-x="752" 
d="M356 758l305 2l19 -198h-36l-23 53q-13 30 -26.5 47.5t-36.5 27.5t-60 13t-97 3h-98q-20 0 -20 -20v-274h118q23 0 40 2t28.5 9t19.5 21t13 38l9 41h36v-281h-36l-9 41q-5 24 -13 38t-19.5 21t-28.5 9t-40 2h-118v-217q0 -29 3.5 -45.5t13.5 -25t27.5 -11t45.5 -2.5h45
q63 0 101 3.5t61.5 13t38.5 27.5t33 47l42 68h36l-55 -211h-620v36l37 5q29 4 39 15t10 40v566q0 29 -10 40t-39 15l-37 5v36h301zM656 969l-255 -126h-21l100 129h176v-3z" />
    <glyph glyph-name="Ecircumflex" unicode="&#xca;" horiz-adv-x="752" 
d="M356 758l305 2l19 -198h-36l-23 53q-13 30 -26.5 47.5t-36.5 27.5t-60 13t-97 3h-98q-20 0 -20 -20v-274h118q23 0 40 2t28.5 9t19.5 21t13 38l9 41h36v-281h-36l-9 41q-5 24 -13 38t-19.5 21t-28.5 9t-40 2h-118v-217q0 -29 3.5 -45.5t13.5 -25t27.5 -11t45.5 -2.5h45
q63 0 101 3.5t61.5 13t38.5 27.5t33 47l42 68h36l-55 -211h-620v36l37 5q29 4 39 15t10 40v566q0 29 -10 40t-39 15l-37 5v36h301zM412 988l165 -155h-23l-150 66l-150 -66h-23l165 155h16z" />
    <glyph glyph-name="Edieresis" unicode="&#xcb;" horiz-adv-x="752" 
d="M356 758l305 2l19 -198h-36l-23 53q-13 30 -26.5 47.5t-36.5 27.5t-60 13t-97 3h-98q-20 0 -20 -20v-274h118q23 0 40 2t28.5 9t19.5 21t13 38l9 41h36v-281h-36l-9 41q-5 24 -13 38t-19.5 21t-28.5 9t-40 2h-118v-217q0 -29 3.5 -45.5t13.5 -25t27.5 -11t45.5 -2.5h45
q63 0 101 3.5t61.5 13t38.5 27.5t33 47l42 68h36l-55 -211h-620v36l37 5q29 4 39 15t10 40v566q0 29 -10 40t-39 15l-37 5v36h301zM522 840q-29 0 -48 19t-19 48q0 30 19 49.5t48 19.5q28 0 47.5 -19.5t19.5 -49.5q0 -29 -19.5 -48t-47.5 -19zM286 840q-29 0 -48 19t-19 48
q0 30 19 49.5t48 19.5q28 0 47.5 -19.5t19.5 -49.5q0 -29 -19.5 -48t-47.5 -19z" />
    <glyph glyph-name="Igrave" unicode="&#xcc;" horiz-adv-x="424" 
d="M141 662q0 29 -10 40t-39 15l-37 5v36h314v-36l-37 -5q-29 -4 -39 -15t-10 -40v-566q0 -29 10 -40t39 -15l37 -5v-36h-314v36l37 5q29 4 39 15t10 40v566zM-23 972h176l100 -129h-21l-255 126v3z" />
    <glyph glyph-name="Iacute" unicode="&#xcd;" horiz-adv-x="424" 
d="M141 662q0 29 -10 40t-39 15l-37 5v36h314v-36l-37 -5q-29 -4 -39 -15t-10 -40v-566q0 -29 10 -40t39 -15l37 -5v-36h-314v36l37 5q29 4 39 15t10 40v566zM464 969l-255 -126h-21l100 129h176v-3z" />
    <glyph glyph-name="Icircumflex" unicode="&#xce;" horiz-adv-x="424" 
d="M141 662q0 29 -10 40t-39 15l-37 5v36h314v-36l-37 -5q-29 -4 -39 -15t-10 -40v-566q0 -29 10 -40t39 -15l37 -5v-36h-314v36l37 5q29 4 39 15t10 40v566zM220 988l165 -155h-23l-150 66l-150 -66h-23l165 155h16z" />
    <glyph glyph-name="Idieresis" unicode="&#xcf;" horiz-adv-x="424" 
d="M141 662q0 29 -10 40t-39 15l-37 5v36h314v-36l-37 -5q-29 -4 -39 -15t-10 -40v-566q0 -29 10 -40t39 -15l37 -5v-36h-314v36l37 5q29 4 39 15t10 40v566zM330 840q-29 0 -48 19t-19 48q0 30 19 49.5t48 19.5q28 0 47.5 -19.5t19.5 -49.5q0 -29 -19.5 -48t-47.5 -19z
M94 840q-29 0 -48 19t-19 48q0 30 19 49.5t48 19.5q28 0 47.5 -19.5t19.5 -49.5q0 -29 -19.5 -48t-47.5 -19z" />
    <glyph glyph-name="Eth" unicode="&#xd0;" horiz-adv-x="884" 
d="M381 758q100 0 184 -25t145.5 -72.5t96 -117t34.5 -158.5t-35 -160t-96 -121t-144 -77t-179 -27h-322v36l37 5q29 4 39 15t10 40v566q0 29 -10 40t-39 15l-37 5v36h316zM381 49q65 0 120.5 15.5t96 51.5t63 94t22.5 144q0 184 -75.5 269.5t-236.5 85.5q-27 0 -43 -1
t-23.5 -3t-9.5 -6.5t-2 -11.5v-568q0 -22 3 -35.5t11 -21t22.5 -10.5t38.5 -3h13zM65 415h391v-58h-391v58z" />
    <glyph glyph-name="Ntilde" unicode="&#xd1;" horiz-adv-x="913" 
d="M205 591v-393q0 -56 1.5 -86.5t6.5 -45.5t16 -19t29 -6l40 -5v-36h-245v36l40 5q18 2 28.5 6t15.5 19t6.5 45.5t1.5 86.5v372q0 72 -24 108t-75 44v36h189l486 -522v324q0 56 -1.5 86.5t-6.5 45.5t-15.5 19t-28.5 6l-41 5v36h246v-36l-40 -5q-18 -2 -29 -6t-16 -19
t-6.5 -45.5t-1.5 -86.5v-570h-31zM318 833q0 23 5.5 48t17.5 46t30 34.5t43 13.5q21 0 42 -10t40.5 -21.5t38 -21.5t35.5 -10q27 0 40 14t15 46h21q0 -41 -8 -67t-20.5 -42t-28 -22t-31.5 -6q-25 0 -46 10t-40.5 21.5t-38 21.5t-38.5 10q-24 0 -39 -17t-17 -48h-21z" />
    <glyph glyph-name="Ograve" unicode="&#xd2;" horiz-adv-x="900" 
d="M450 779q81 0 154.5 -29t130 -81.5t89.5 -125.5t33 -161q0 -87 -33.5 -159.5t-89.5 -125t-129.5 -81.5t-154.5 -29t-155 29t-130 81.5t-89.5 125.5t-33.5 160t33.5 159.5t90 125t130 82t154.5 29.5zM440 723q-44 0 -87 -16.5t-77 -53.5t-55 -96t-21 -143q0 -88 19 -157
t53.5 -116.5t82.5 -72.5t105 -25q44 0 87 16.5t77 53t55 95.5t21 144q0 87 -19 156t-53.5 117t-82.5 73t-105 25zM217 972h176l100 -129h-21l-255 126v3z" />
    <glyph glyph-name="Oacute" unicode="&#xd3;" horiz-adv-x="900" 
d="M450 779q81 0 154.5 -29t130 -81.5t89.5 -125.5t33 -161q0 -87 -33.5 -159.5t-89.5 -125t-129.5 -81.5t-154.5 -29t-155 29t-130 81.5t-89.5 125.5t-33.5 160t33.5 159.5t90 125t130 82t154.5 29.5zM440 723q-44 0 -87 -16.5t-77 -53.5t-55 -96t-21 -143q0 -88 19 -157
t53.5 -116.5t82.5 -72.5t105 -25q44 0 87 16.5t77 53t55 95.5t21 144q0 87 -19 156t-53.5 117t-82.5 73t-105 25zM704 969l-255 -126h-21l100 129h176v-3z" />
    <glyph glyph-name="Ocircumflex" unicode="&#xd4;" horiz-adv-x="900" 
d="M450 779q81 0 154.5 -29t130 -81.5t89.5 -125.5t33 -161q0 -87 -33.5 -159.5t-89.5 -125t-129.5 -81.5t-154.5 -29t-155 29t-130 81.5t-89.5 125.5t-33.5 160t33.5 159.5t90 125t130 82t154.5 29.5zM440 723q-44 0 -87 -16.5t-77 -53.5t-55 -96t-21 -143q0 -88 19 -157
t53.5 -116.5t82.5 -72.5t105 -25q44 0 87 16.5t77 53t55 95.5t21 144q0 87 -19 156t-53.5 117t-82.5 73t-105 25zM461 988l165 -155h-23l-150 66l-150 -66h-23l165 155h16z" />
    <glyph glyph-name="Otilde" unicode="&#xd5;" horiz-adv-x="900" 
d="M450 779q81 0 154.5 -29t130 -81.5t89.5 -125.5t33 -161q0 -87 -33.5 -159.5t-89.5 -125t-129.5 -81.5t-154.5 -29t-155 29t-130 81.5t-89.5 125.5t-33.5 160t33.5 159.5t90 125t130 82t154.5 29.5zM440 723q-44 0 -87 -16.5t-77 -53.5t-55 -96t-21 -143q0 -88 19 -157
t53.5 -116.5t82.5 -72.5t105 -25q44 0 87 16.5t77 53t55 95.5t21 144q0 87 -19 156t-53.5 117t-82.5 73t-105 25zM289 833q0 23 5.5 48t17.5 46t30 34.5t43 13.5q21 0 42 -10t40.5 -21.5t38 -21.5t35.5 -10q27 0 40 14t15 46h21q0 -41 -8 -67t-20.5 -42t-28 -22t-31.5 -6
q-25 0 -46 10t-40.5 21.5t-38 21.5t-38.5 10q-24 0 -39 -17t-17 -48h-21z" />
    <glyph glyph-name="Odieresis" unicode="&#xd6;" horiz-adv-x="900" 
d="M450 779q81 0 154.5 -29t130 -81.5t89.5 -125.5t33 -161q0 -87 -33.5 -159.5t-89.5 -125t-129.5 -81.5t-154.5 -29t-155 29t-130 81.5t-89.5 125.5t-33.5 160t33.5 159.5t90 125t130 82t154.5 29.5zM440 723q-44 0 -87 -16.5t-77 -53.5t-55 -96t-21 -143q0 -88 19 -157
t53.5 -116.5t82.5 -72.5t105 -25q44 0 87 16.5t77 53t55 95.5t21 144q0 87 -19 156t-53.5 117t-82.5 73t-105 25zM571 840q-29 0 -48 19t-19 48q0 30 19 49.5t48 19.5q28 0 47.5 -19.5t19.5 -49.5q0 -29 -19.5 -48t-47.5 -19zM335 840q-29 0 -48 19t-19 48q0 30 19 49.5
t48 19.5q28 0 47.5 -19.5t19.5 -49.5q0 -29 -19.5 -48t-47.5 -19z" />
    <glyph glyph-name="multiply" unicode="&#xd7;" horiz-adv-x="653" 
d="M90 76l186 187l-186 186l50 51l187 -187l186 187l51 -51l-186 -186l186 -187l-51 -51l-186 187l-187 -187z" />
    <glyph glyph-name="Oslash" unicode="&#xd8;" horiz-adv-x="900" 
d="M450 779q81 0 154.5 -29t130 -81.5t89.5 -125.5t33 -161q0 -87 -33.5 -159.5t-89.5 -125t-129.5 -81.5t-154.5 -29t-155 29t-130 81.5t-89.5 125.5t-33.5 160t33.5 159.5t90 125t130 82t154.5 29.5zM440 723q-44 0 -87 -16.5t-77 -53.5t-55 -96t-21 -143q0 -88 19 -157
t53.5 -116.5t82.5 -72.5t105 -25q44 0 87 16.5t77 53t55 95.5t21 144q0 87 -19 156t-53.5 117t-82.5 73t-105 25zM53 -30l750 865l44 -38l-750 -865z" />
    <glyph glyph-name="Ugrave" unicode="&#xd9;" horiz-adv-x="871" 
d="M437 -13q-74 0 -133.5 17t-100.5 54.5t-63 97t-22 143.5v363q0 29 -9.5 40t-38.5 15l-38 5v36h315v-36l-38 -5q-29 -4 -38.5 -15t-9.5 -40v-364q0 -130 51 -189.5t155 -59.5q106 0 164.5 59t58.5 194v258q0 56 -1.5 86.5t-6.5 45.5t-16 19t-29 6l-40 5v36h246v-36l-41 -5
q-18 -2 -28.5 -6t-15.5 -19t-6.5 -45.5t-1.5 -86.5v-260q0 -83 -22 -142t-63 -97t-98.5 -56t-129.5 -18zM248 972h176l100 -129h-21l-255 126v3z" />
    <glyph glyph-name="Uacute" unicode="&#xda;" horiz-adv-x="871" 
d="M437 -13q-74 0 -133.5 17t-100.5 54.5t-63 97t-22 143.5v363q0 29 -9.5 40t-38.5 15l-38 5v36h315v-36l-38 -5q-29 -4 -38.5 -15t-9.5 -40v-364q0 -130 51 -189.5t155 -59.5q106 0 164.5 59t58.5 194v258q0 56 -1.5 86.5t-6.5 45.5t-16 19t-29 6l-40 5v36h246v-36l-41 -5
q-18 -2 -28.5 -6t-15.5 -19t-6.5 -45.5t-1.5 -86.5v-260q0 -83 -22 -142t-63 -97t-98.5 -56t-129.5 -18zM735 969l-255 -126h-21l100 129h176v-3z" />
    <glyph glyph-name="Ucircumflex" unicode="&#xdb;" horiz-adv-x="871" 
d="M437 -13q-74 0 -133.5 17t-100.5 54.5t-63 97t-22 143.5v363q0 29 -9.5 40t-38.5 15l-38 5v36h315v-36l-38 -5q-29 -4 -38.5 -15t-9.5 -40v-364q0 -130 51 -189.5t155 -59.5q106 0 164.5 59t58.5 194v258q0 56 -1.5 86.5t-6.5 45.5t-16 19t-29 6l-40 5v36h246v-36l-41 -5
q-18 -2 -28.5 -6t-15.5 -19t-6.5 -45.5t-1.5 -86.5v-260q0 -83 -22 -142t-63 -97t-98.5 -56t-129.5 -18zM491 988l165 -155h-23l-150 66l-150 -66h-23l165 155h16z" />
    <glyph glyph-name="Udieresis" unicode="&#xdc;" horiz-adv-x="871" 
d="M437 -13q-74 0 -133.5 17t-100.5 54.5t-63 97t-22 143.5v363q0 29 -9.5 40t-38.5 15l-38 5v36h315v-36l-38 -5q-29 -4 -38.5 -15t-9.5 -40v-364q0 -130 51 -189.5t155 -59.5q106 0 164.5 59t58.5 194v258q0 56 -1.5 86.5t-6.5 45.5t-16 19t-29 6l-40 5v36h246v-36l-41 -5
q-18 -2 -28.5 -6t-15.5 -19t-6.5 -45.5t-1.5 -86.5v-260q0 -83 -22 -142t-63 -97t-98.5 -56t-129.5 -18zM601 840q-29 0 -48 19t-19 48q0 30 19 49.5t48 19.5q28 0 47.5 -19.5t19.5 -49.5q0 -29 -19.5 -48t-47.5 -19zM365 840q-29 0 -48 19t-19 48q0 30 19 49.5t48 19.5
q28 0 47.5 -19.5t19.5 -49.5q0 -29 -19.5 -48t-47.5 -19z" />
    <glyph glyph-name="Yacute" unicode="&#xdd;" horiz-adv-x="790" 
d="M207 38l68 5q29 2 38.5 13t9.5 40v243l-223 317q-9 13 -15.5 23.5t-14 18t-17 12.5t-24.5 7l-37 5v36h332v-36l-37 -5q-29 -4 -38 -17t8 -38l182 -261l143 196q23 32 34.5 54t12.5 36t-6.5 21t-22.5 9l-37 5v36h241v-36l-35 -5q-15 -2 -25.5 -8t-21.5 -18.5t-26 -32.5
t-37 -51l-193 -267v-244q0 -29 10 -40t39 -13l67 -5v-38h-375v38zM690 969l-255 -126h-21l100 129h176v-3z" />
    <glyph glyph-name="Thorn" unicode="&#xde;" horiz-adv-x="766" 
d="M369 722l-37 -5q-29 -4 -39 -15t-10 -40v-65h120q65 0 124.5 -9t105 -33t72.5 -64.5t27 -103.5q0 -51 -22.5 -91t-64 -68t-100 -42.5t-130.5 -14.5h-132v-75q0 -29 10 -40t39 -13l67 -5v-38h-344v36l37 5q29 4 39 15t10 40v566q0 29 -10 40t-39 15l-37 5v36h314v-36z
M283 217h123q79 0 125 42t46 123t-46 123.5t-125 42.5h-70q-35 0 -44 -4t-9 -19v-308z" />
    <glyph glyph-name="germandbls" unicode="&#xdf;" horiz-adv-x="690" 
d="M443 -13q-72 0 -114.5 26t-42.5 69q0 28 17 42t40 14q15 0 26 -6t18.5 -15t13.5 -20.5t11 -22.5q8 -18 21.5 -29t39.5 -11q31 0 51.5 21t20.5 60q0 34 -18.5 63.5t-67.5 68.5l-24 19q-58 46 -85 81t-27 75q0 36 23.5 60t60.5 52l8 6q35 26 45.5 53.5t10.5 58.5
q0 45 -29 69.5t-73 24.5q-29 0 -54 -9.5t-43 -30.5t-28.5 -55t-10.5 -83v-568h-195v33l27 5q26 5 33.5 14t7.5 24v364h-82v32q13 1 27.5 4.5t26.5 9.5t20 14t8 20v3q0 55 17.5 104t52 86t85 59t116.5 22q102 0 152.5 -35.5t50.5 -87.5q0 -67 -65 -112l-47 -33
q-17 -12 -26.5 -24.5t-9.5 -29.5q0 -9 3.5 -18t12.5 -20.5t25.5 -27t43.5 -36.5l24 -19q64 -50 90.5 -91t26.5 -91q0 -44 -17.5 -77.5t-46.5 -57t-68.5 -35.5t-82.5 -12z" />
    <glyph glyph-name="agrave" unicode="&#xe0;" horiz-adv-x="571" 
d="M582 75q-21 -48 -56 -68t-76 -20q-20 0 -38.5 6t-32.5 19t-22.5 32t-8.5 46v11q-15 -56 -54.5 -85t-99.5 -29q-35 0 -64 10t-51 28.5t-34 44t-12 56.5q0 44 27 75t71 51t99.5 31.5t113.5 16.5v52q0 73 -24 100.5t-75 27.5q-12 0 -25 -1.5t-23 -4.5t-16.5 -7t-6.5 -10
q0 -12 5.5 -24.5t5.5 -33.5q0 -26 -15 -46t-50 -20q-29 0 -45 19t-16 45q0 27 18.5 49.5t48.5 39t68.5 25.5t78.5 9q47 0 84.5 -7.5t64 -28.5t40 -58t12.5 -95l-4 -202q-1 -41 7.5 -59.5t29.5 -18.5q16 0 29 9t26 29zM179 141q0 -38 19 -65t55 -27q15 0 30.5 6t29 20
t22 36.5t8.5 56.5l1 106q-89 -14 -127 -47.5t-38 -85.5zM300 609h-17l-231 170v9h140z" />
    <glyph glyph-name="aacute" unicode="&#xe1;" horiz-adv-x="571" 
d="M582 75q-21 -48 -56 -68t-76 -20q-20 0 -38.5 6t-32.5 19t-22.5 32t-8.5 46v11q-15 -56 -54.5 -85t-99.5 -29q-35 0 -64 10t-51 28.5t-34 44t-12 56.5q0 44 27 75t71 51t99.5 31.5t113.5 16.5v52q0 73 -24 100.5t-75 27.5q-12 0 -25 -1.5t-23 -4.5t-16.5 -7t-6.5 -10
q0 -12 5.5 -24.5t5.5 -33.5q0 -26 -15 -46t-50 -20q-29 0 -45 19t-16 45q0 27 18.5 49.5t48.5 39t68.5 25.5t78.5 9q47 0 84.5 -7.5t64 -28.5t40 -58t12.5 -95l-4 -202q-1 -41 7.5 -59.5t29.5 -18.5q16 0 29 9t26 29zM179 141q0 -38 19 -65t55 -27q15 0 30.5 6t29 20
t22 36.5t8.5 56.5l1 106q-89 -14 -127 -47.5t-38 -85.5zM337 788h140v-9l-231 -170h-17z" />
    <glyph glyph-name="acircumflex" unicode="&#xe2;" horiz-adv-x="571" 
d="M582 75q-21 -48 -56 -68t-76 -20q-20 0 -38.5 6t-32.5 19t-22.5 32t-8.5 46v11q-15 -56 -54.5 -85t-99.5 -29q-35 0 -64 10t-51 28.5t-34 44t-12 56.5q0 44 27 75t71 51t99.5 31.5t113.5 16.5v52q0 73 -24 100.5t-75 27.5q-12 0 -25 -1.5t-23 -4.5t-16.5 -7t-6.5 -10
q0 -12 5.5 -24.5t5.5 -33.5q0 -26 -15 -46t-50 -20q-29 0 -45 19t-16 45q0 27 18.5 49.5t48.5 39t68.5 25.5t78.5 9q47 0 84.5 -7.5t64 -28.5t40 -58t12.5 -95l-4 -202q-1 -41 7.5 -59.5t29.5 -18.5q16 0 29 9t26 29zM179 141q0 -38 19 -65t55 -27q15 0 30.5 6t29 20
t22 36.5t8.5 56.5l1 106q-89 -14 -127 -47.5t-38 -85.5zM433 609h-19l-149 87l-149 -87h-19l162 196h12z" />
    <glyph glyph-name="atilde" unicode="&#xe3;" horiz-adv-x="571" 
d="M582 75q-21 -48 -56 -68t-76 -20q-20 0 -38.5 6t-32.5 19t-22.5 32t-8.5 46v11q-15 -56 -54.5 -85t-99.5 -29q-35 0 -64 10t-51 28.5t-34 44t-12 56.5q0 44 27 75t71 51t99.5 31.5t113.5 16.5v52q0 73 -24 100.5t-75 27.5q-12 0 -25 -1.5t-23 -4.5t-16.5 -7t-6.5 -10
q0 -12 5.5 -24.5t5.5 -33.5q0 -26 -15 -46t-50 -20q-29 0 -45 19t-16 45q0 27 18.5 49.5t48.5 39t68.5 25.5t78.5 9q47 0 84.5 -7.5t64 -28.5t40 -58t12.5 -95l-4 -202q-1 -41 7.5 -59.5t29.5 -18.5q16 0 29 9t26 29zM179 141q0 -38 19 -65t55 -27q15 0 30.5 6t29 20
t22 36.5t8.5 56.5l1 106q-89 -14 -127 -47.5t-38 -85.5zM101 649q0 23 5.5 48t17.5 46t30 34.5t43 13.5q21 0 42 -10.5t40.5 -22.5t38 -22.5t35.5 -10.5q28 0 40.5 15t14.5 48h21q-1 -76 -26.5 -106.5t-61.5 -30.5q-25 0 -46 10t-40.5 22.5t-38 22.5t-38.5 10
q-25 0 -39.5 -17.5t-16.5 -49.5h-21z" />
    <glyph glyph-name="adieresis" unicode="&#xe4;" horiz-adv-x="571" 
d="M582 75q-21 -48 -56 -68t-76 -20q-20 0 -38.5 6t-32.5 19t-22.5 32t-8.5 46v11q-15 -56 -54.5 -85t-99.5 -29q-35 0 -64 10t-51 28.5t-34 44t-12 56.5q0 44 27 75t71 51t99.5 31.5t113.5 16.5v52q0 73 -24 100.5t-75 27.5q-12 0 -25 -1.5t-23 -4.5t-16.5 -7t-6.5 -10
q0 -12 5.5 -24.5t5.5 -33.5q0 -26 -15 -46t-50 -20q-29 0 -45 19t-16 45q0 27 18.5 49.5t48.5 39t68.5 25.5t78.5 9q47 0 84.5 -7.5t64 -28.5t40 -58t12.5 -95l-4 -202q-1 -41 7.5 -59.5t29.5 -18.5q16 0 29 9t26 29zM179 141q0 -38 19 -65t55 -27q15 0 30.5 6t29 20
t22 36.5t8.5 56.5l1 106q-89 -14 -127 -47.5t-38 -85.5zM379 645q-28 0 -46.5 19t-18.5 47q0 29 18.5 47.5t46.5 18.5q27 0 46 -18.5t19 -47.5q0 -28 -19 -47t-46 -19zM150 645q-28 0 -46.5 19t-18.5 47q0 29 18.5 47.5t46.5 18.5q27 0 46 -18.5t19 -47.5q0 -28 -19 -47
t-46 -19z" />
    <glyph glyph-name="aring" unicode="&#xe5;" horiz-adv-x="571" 
d="M582 75q-21 -48 -56 -68t-76 -20q-20 0 -38.5 6t-32.5 19t-22.5 32t-8.5 46v11q-15 -56 -54.5 -85t-99.5 -29q-35 0 -64 10t-51 28.5t-34 44t-12 56.5q0 44 27 75t71 51t99.5 31.5t113.5 16.5v52q0 73 -24 100.5t-75 27.5q-12 0 -25 -1.5t-23 -4.5t-16.5 -7t-6.5 -10
q0 -12 5.5 -24.5t5.5 -33.5q0 -26 -15 -46t-50 -20q-29 0 -45 19t-16 45q0 27 18.5 49.5t48.5 39t68.5 25.5t78.5 9q47 0 84.5 -7.5t64 -28.5t40 -58t12.5 -95l-4 -202q-1 -41 7.5 -59.5t29.5 -18.5q16 0 29 9t26 29zM179 141q0 -38 19 -65t55 -27q15 0 30.5 6t29 20
t22 36.5t8.5 56.5l1 106q-89 -14 -127 -47.5t-38 -85.5zM141 705q0 25 10 47t26.5 38.5t39 26t48.5 9.5q27 0 50 -9.5t40 -26t26.5 -38.5t9.5 -47t-9.5 -46.5t-26.5 -37.5t-40 -25.5t-50 -9.5q-26 0 -48.5 9.5t-39 25.5t-26.5 37.5t-10 46.5zM332 705q0 32 -17.5 50
t-49.5 18q-31 0 -48.5 -18t-17.5 -50q0 -31 17.5 -49.5t48.5 -18.5q32 0 49.5 18.5t17.5 49.5z" />
    <glyph glyph-name="ae" unicode="&#xe6;" horiz-adv-x="888" 
d="M605 -13q-75 0 -130 28.5t-88 79.5q-12 -29 -31.5 -49t-44.5 -33.5t-55 -19.5t-61 -6q-35 0 -64.5 10t-51 28.5t-34 44t-12.5 56.5q0 44 27 75.5t70.5 53t99.5 33.5t113 17v46q0 73 -22.5 100.5t-73.5 27.5q-13 0 -26 -1.5t-23.5 -4.5t-17 -7t-6.5 -10q0 -12 5.5 -24.5
t5.5 -33.5q0 -26 -15 -46t-50 -20q-29 0 -45 19t-16 45q0 27 18.5 49.5t48.5 39t68.5 25.5t78.5 9q57 0 99 -11.5t68 -45.5q34 28 75 42.5t84 14.5q48 0 89.5 -13.5t74 -41t54.5 -68.5t31 -95h-370q2 -109 49.5 -169t126.5 -60q25 0 49 5.5t45.5 19.5t38 38t26.5 61h41
q-17 -105 -83 -157t-166 -52zM179 141q0 -38 19 -65t55 -27t67.5 20.5t43.5 69.5q-21 51 -21 115v19q-89 -14 -126.5 -47t-37.5 -85zM596 479q-45 0 -76 -32t-39 -98h222q0 36 -9 61t-24 40.5t-34 22t-40 6.5z" />
    <glyph glyph-name="ccedilla" unicode="&#xe7;" horiz-adv-x="564" 
d="M298 -13q-61 0 -109.5 20t-82 55.5t-51.5 84.5t-18 107q0 60 22 109t58.5 83.5t85 53.5t102.5 19q43 0 80 -10t64 -26.5t42 -38t15 -45.5q0 -28 -17.5 -45t-43.5 -17q-32 0 -48 17.5t-24 46.5q-5 16 -10.5 30t-15 24.5t-24 16.5t-35.5 6q-51 0 -83.5 -45t-32.5 -134
q0 -53 12.5 -95t35.5 -71t55.5 -45t72.5 -16q24 0 47 5.5t43.5 19.5t36.5 38t26 61h41q-18 -107 -81 -158t-163 -51zM247 -265q-15 0 -30.5 3t-28 9t-20.5 15.5t-8 22.5q0 16 13.5 28t39.5 7q0 -26 17.5 -40t40.5 -14q18 0 29.5 8.5t11.5 21.5q0 20 -33.5 40t-83.5 42
l119 127h42l-76 -81q44 -22 64 -42.5t20 -53.5q0 -17 -8 -33.5t-23 -30t-36.5 -21.5t-49.5 -8z" />
    <glyph glyph-name="egrave" unicode="&#xe8;" horiz-adv-x="582" 
d="M299 -13q-61 0 -109.5 20t-82.5 55.5t-52 84.5t-18 107q0 60 21.5 109t57.5 83.5t82 53.5t95 19q48 0 89.5 -13.5t74 -41t54.5 -68.5t31 -95h-370q2 -109 49.5 -169t126.5 -60q25 0 49 5.5t45.5 19.5t38 38t26.5 61h41q-17 -105 -83 -157t-166 -52zM290 479
q-45 0 -76 -32t-39 -98h222q0 36 -9 61t-24 40.5t-34 22t-40 6.5zM336 609h-17l-231 170v9h140z" />
    <glyph glyph-name="eacute" unicode="&#xe9;" horiz-adv-x="582" 
d="M299 -13q-61 0 -109.5 20t-82.5 55.5t-52 84.5t-18 107q0 60 21.5 109t57.5 83.5t82 53.5t95 19q48 0 89.5 -13.5t74 -41t54.5 -68.5t31 -95h-370q2 -109 49.5 -169t126.5 -60q25 0 49 5.5t45.5 19.5t38 38t26.5 61h41q-17 -105 -83 -157t-166 -52zM290 479
q-45 0 -76 -32t-39 -98h222q0 36 -9 61t-24 40.5t-34 22t-40 6.5zM374 788h140v-9l-231 -170h-17z" />
    <glyph glyph-name="ecircumflex" unicode="&#xea;" horiz-adv-x="582" 
d="M299 -13q-61 0 -109.5 20t-82.5 55.5t-52 84.5t-18 107q0 60 21.5 109t57.5 83.5t82 53.5t95 19q48 0 89.5 -13.5t74 -41t54.5 -68.5t31 -95h-370q2 -109 49.5 -169t126.5 -60q25 0 49 5.5t45.5 19.5t38 38t26.5 61h41q-17 -105 -83 -157t-166 -52zM290 479
q-45 0 -76 -32t-39 -98h222q0 36 -9 61t-24 40.5t-34 22t-40 6.5zM469 609h-19l-149 87l-149 -87h-19l162 196h12z" />
    <glyph glyph-name="edieresis" unicode="&#xeb;" horiz-adv-x="582" 
d="M299 -13q-61 0 -109.5 20t-82.5 55.5t-52 84.5t-18 107q0 60 21.5 109t57.5 83.5t82 53.5t95 19q48 0 89.5 -13.5t74 -41t54.5 -68.5t31 -95h-370q2 -109 49.5 -169t126.5 -60q25 0 49 5.5t45.5 19.5t38 38t26.5 61h41q-17 -105 -83 -157t-166 -52zM290 479
q-45 0 -76 -32t-39 -98h222q0 36 -9 61t-24 40.5t-34 22t-40 6.5zM415 645q-28 0 -46.5 19t-18.5 47q0 29 18.5 47.5t46.5 18.5q27 0 46 -18.5t19 -47.5q0 -28 -19 -47t-46 -19zM186 645q-28 0 -46.5 19t-18.5 47q0 29 18.5 47.5t46.5 18.5q27 0 46 -18.5t19 -47.5
q0 -28 -19 -47t-46 -19z" />
    <glyph glyph-name="igrave" unicode="&#xec;" horiz-adv-x="331" 
d="M235 76q0 -15 7.5 -24t33.5 -14l27 -5v-33h-266v33l27 5q26 5 33.5 14t7.5 24v342q0 14 -7.5 23.5t-33.5 14.5l-27 5v33l198 21v-439zM201 609h-17l-231 170v9h140z" />
    <glyph glyph-name="iacute" unicode="&#xed;" horiz-adv-x="331" 
d="M235 76q0 -15 7.5 -24t33.5 -14l27 -5v-33h-266v33l27 5q26 5 33.5 14t7.5 24v342q0 14 -7.5 23.5t-33.5 14.5l-27 5v33l198 21v-439zM238 788h140v-9l-231 -170h-17z" />
    <glyph glyph-name="icircumflex" unicode="&#xee;" horiz-adv-x="331" 
d="M235 76q0 -15 7.5 -24t33.5 -14l27 -5v-33h-266v33l27 5q26 5 33.5 14t7.5 24v342q0 14 -7.5 23.5t-33.5 14.5l-27 5v33l198 21v-439zM334 609h-19l-149 87l-149 -87h-19l162 196h12z" />
    <glyph glyph-name="idieresis" unicode="&#xef;" horiz-adv-x="331" 
d="M235 76q0 -15 7.5 -24t33.5 -14l27 -5v-33h-266v33l27 5q26 5 33.5 14t7.5 24v342q0 14 -7.5 23.5t-33.5 14.5l-27 5v33l198 21v-439zM266 639q-28 0 -46.5 19t-18.5 47q0 29 18.5 47.5t46.5 18.5q27 0 46 -18.5t19 -47.5q0 -28 -19 -47t-46 -19zM66 639q-28 0 -46.5 19
t-18.5 47q0 29 18.5 47.5t46.5 18.5q27 0 46 -18.5t19 -47.5q0 -28 -19 -47t-46 -19z" />
    <glyph glyph-name="eth" unicode="&#xf0;" horiz-adv-x="619" 
d="M290 -13q-57 0 -103.5 19t-79.5 53.5t-51 84t-18 109.5t19.5 109.5t53 84.5t79 54.5t96.5 19.5q35 0 65.5 -13.5t52.5 -32.5q-20 54 -52 99.5t-74 83.5l-120 -63l-22 43l100 53q-60 43 -130 68l12 38q105 -24 189 -69l128 68l21 -44l-100 -53q105 -69 161 -168t56 -218
q0 -78 -22.5 -138.5t-61.5 -102t-90.5 -63.5t-108.5 -22zM178 246q0 -100 33.5 -155.5t88.5 -55.5q33 0 58.5 18.5t43 52.5t26.5 81.5t9 105.5q0 38 -5 73.5t-14 68.5q-22 17 -46 25t-50 8q-27 0 -53 -13t-46.5 -40t-32.5 -69t-12 -100z" />
    <glyph glyph-name="ntilde" unicode="&#xf1;" horiz-adv-x="640" 
d="M33 33l27 5q26 5 33.5 14t7.5 24v342q0 14 -7.5 23.5t-33.5 14.5l-27 5v33l198 21v-126q20 63 60.5 96.5t103.5 33.5q33 0 61 -9.5t48.5 -32t32.5 -59t12 -90.5v-252q0 -15 7.5 -24t33.5 -14l27 -5v-33h-266v33l27 5q26 5 33.5 14t7.5 24v227q0 41 -6.5 67.5t-18.5 42
t-28 21.5t-35 6q-18 0 -36 -6.5t-32.5 -23t-23 -43.5t-8.5 -68v-223q0 -15 7.5 -24t33.5 -14l27 -5v-33h-266v33zM160 649q0 23 5.5 48t17.5 46t30 34.5t43 13.5q21 0 42 -10.5t40.5 -22.5t38 -22.5t35.5 -10.5q28 0 40.5 15t14.5 48h21q-1 -76 -26.5 -106.5t-61.5 -30.5
q-25 0 -46 10t-40.5 22.5t-38 22.5t-38.5 10q-25 0 -39.5 -17.5t-16.5 -49.5h-21z" />
    <glyph glyph-name="ograve" unicode="&#xf2;" horiz-adv-x="611" 
d="M306 -13q-60 0 -109.5 20t-85 55t-55 84t-19.5 107t19.5 107t55 84t85 55t109.5 20t109.5 -20t85 -55t55 -84t19.5 -107t-19.5 -107t-55 -84t-85 -55t-109.5 -20zM313 35q24 0 45.5 9.5t38 31t26.5 56.5t10 86q0 45 -8 90.5t-24.5 81.5t-41.5 58.5t-60 22.5
q-24 0 -46 -9.5t-38.5 -31t-26.5 -56.5t-10 -86q0 -45 8 -90.5t24.5 -81.5t42 -58.5t60.5 -22.5zM344 609h-17l-231 170v9h140z" />
    <glyph glyph-name="oacute" unicode="&#xf3;" horiz-adv-x="611" 
d="M306 -13q-60 0 -109.5 20t-85 55t-55 84t-19.5 107t19.5 107t55 84t85 55t109.5 20t109.5 -20t85 -55t55 -84t19.5 -107t-19.5 -107t-55 -84t-85 -55t-109.5 -20zM313 35q24 0 45.5 9.5t38 31t26.5 56.5t10 86q0 45 -8 90.5t-24.5 81.5t-41.5 58.5t-60 22.5
q-24 0 -46 -9.5t-38.5 -31t-26.5 -56.5t-10 -86q0 -45 8 -90.5t24.5 -81.5t42 -58.5t60.5 -22.5zM381 788h140v-9l-231 -170h-17z" />
    <glyph glyph-name="ocircumflex" unicode="&#xf4;" horiz-adv-x="611" 
d="M306 -13q-60 0 -109.5 20t-85 55t-55 84t-19.5 107t19.5 107t55 84t85 55t109.5 20t109.5 -20t85 -55t55 -84t19.5 -107t-19.5 -107t-55 -84t-85 -55t-109.5 -20zM313 35q24 0 45.5 9.5t38 31t26.5 56.5t10 86q0 45 -8 90.5t-24.5 81.5t-41.5 58.5t-60 22.5
q-24 0 -46 -9.5t-38.5 -31t-26.5 -56.5t-10 -86q0 -45 8 -90.5t24.5 -81.5t42 -58.5t60.5 -22.5zM477 609h-19l-149 87l-149 -87h-19l162 196h12z" />
    <glyph glyph-name="otilde" unicode="&#xf5;" horiz-adv-x="611" 
d="M306 -13q-60 0 -109.5 20t-85 55t-55 84t-19.5 107t19.5 107t55 84t85 55t109.5 20t109.5 -20t85 -55t55 -84t19.5 -107t-19.5 -107t-55 -84t-85 -55t-109.5 -20zM313 35q24 0 45.5 9.5t38 31t26.5 56.5t10 86q0 45 -8 90.5t-24.5 81.5t-41.5 58.5t-60 22.5
q-24 0 -46 -9.5t-38.5 -31t-26.5 -56.5t-10 -86q0 -45 8 -90.5t24.5 -81.5t42 -58.5t60.5 -22.5zM145 649q0 23 5.5 48t17.5 46t30 34.5t43 13.5q21 0 42 -10.5t40.5 -22.5t38 -22.5t35.5 -10.5q28 0 40.5 15t14.5 48h21q-1 -76 -26.5 -106.5t-61.5 -30.5q-25 0 -46 10
t-40.5 22.5t-38 22.5t-38.5 10q-25 0 -39.5 -17.5t-16.5 -49.5h-21z" />
    <glyph glyph-name="odieresis" unicode="&#xf6;" horiz-adv-x="611" 
d="M306 -13q-60 0 -109.5 20t-85 55t-55 84t-19.5 107t19.5 107t55 84t85 55t109.5 20t109.5 -20t85 -55t55 -84t19.5 -107t-19.5 -107t-55 -84t-85 -55t-109.5 -20zM313 35q24 0 45.5 9.5t38 31t26.5 56.5t10 86q0 45 -8 90.5t-24.5 81.5t-41.5 58.5t-60 22.5
q-24 0 -46 -9.5t-38.5 -31t-26.5 -56.5t-10 -86q0 -45 8 -90.5t24.5 -81.5t42 -58.5t60.5 -22.5zM423 645q-28 0 -46.5 19t-18.5 47q0 29 18.5 47.5t46.5 18.5q27 0 46 -18.5t19 -47.5q0 -28 -19 -47t-46 -19zM194 645q-28 0 -46.5 19t-18.5 47q0 29 18.5 47.5t46.5 18.5
q27 0 46 -18.5t19 -47.5q0 -28 -19 -47t-46 -19z" />
    <glyph glyph-name="divide" unicode="&#xf7;" horiz-adv-x="653" 
d="M326 366q-18 0 -33.5 7t-27 18.5t-18 27t-6.5 33.5t6.5 33.5t18 27t27 18.5t33.5 7t33.5 -7t27.5 -18.5t18.5 -27t6.5 -33.5t-6.5 -33.5t-18.5 -27t-27.5 -18.5t-33.5 -7zM63 298h527v-71h-527v71zM326 -13q-18 0 -33.5 7t-27 18.5t-18 27.5t-6.5 34q0 17 6.5 32.5t18 27
t27 18.5t33.5 7t33.5 -7t27.5 -18.5t18.5 -27t6.5 -32.5q0 -36 -25 -61.5t-61 -25.5z" />
    <glyph glyph-name="oslash" unicode="&#xf8;" horiz-adv-x="611" 
d="M306 -13q-60 0 -109.5 20t-85 55t-55 84t-19.5 107t19.5 107t55 84t85 55t109.5 20t109.5 -20t85 -55t55 -84t19.5 -107t-19.5 -107t-55 -84t-85 -55t-109.5 -20zM313 35q24 0 45.5 9.5t38 31t26.5 56.5t10 86q0 45 -8 90.5t-24.5 81.5t-41.5 58.5t-60 22.5
q-24 0 -46 -9.5t-38.5 -31t-26.5 -56.5t-10 -86q0 -45 8 -90.5t24.5 -81.5t42 -58.5t60.5 -22.5zM42 -21l493 585l36 -31l-493 -586z" />
    <glyph glyph-name="ugrave" unicode="&#xf9;" horiz-adv-x="629" 
d="M538 86q0 -14 7.5 -22.5t33.5 -14.5l27 -6v-33l-198 -19v126q-20 -63 -60.5 -96.5t-103.5 -33.5q-33 0 -61 9.5t-48.5 32t-32.5 59t-12 90.5v240q0 14 -7.5 23.5t-33.5 14.5l-27 5v33l198 21v-312q0 -41 7 -67.5t19 -42t28 -21.5t35 -6q18 0 35.5 6.5t32 23t23 43.5
t8.5 68v211q0 14 -7.5 23.5t-33.5 14.5l-27 5v33l198 21v-429zM349 609h-17l-231 170v9h140z" />
    <glyph glyph-name="uacute" unicode="&#xfa;" horiz-adv-x="629" 
d="M538 86q0 -14 7.5 -22.5t33.5 -14.5l27 -6v-33l-198 -19v126q-20 -63 -60.5 -96.5t-103.5 -33.5q-33 0 -61 9.5t-48.5 32t-32.5 59t-12 90.5v240q0 14 -7.5 23.5t-33.5 14.5l-27 5v33l198 21v-312q0 -41 7 -67.5t19 -42t28 -21.5t35 -6q18 0 35.5 6.5t32 23t23 43.5
t8.5 68v211q0 14 -7.5 23.5t-33.5 14.5l-27 5v33l198 21v-429zM387 788h140v-9l-231 -170h-17z" />
    <glyph glyph-name="ucircumflex" unicode="&#xfb;" horiz-adv-x="629" 
d="M538 86q0 -14 7.5 -22.5t33.5 -14.5l27 -6v-33l-198 -19v126q-20 -63 -60.5 -96.5t-103.5 -33.5q-33 0 -61 9.5t-48.5 32t-32.5 59t-12 90.5v240q0 14 -7.5 23.5t-33.5 14.5l-27 5v33l198 21v-312q0 -41 7 -67.5t19 -42t28 -21.5t35 -6q18 0 35.5 6.5t32 23t23 43.5
t8.5 68v211q0 14 -7.5 23.5t-33.5 14.5l-27 5v33l198 21v-429zM482 609h-19l-149 87l-149 -87h-19l162 196h12z" />
    <glyph glyph-name="udieresis" unicode="&#xfc;" horiz-adv-x="629" 
d="M538 86q0 -14 7.5 -22.5t33.5 -14.5l27 -6v-33l-198 -19v126q-20 -63 -60.5 -96.5t-103.5 -33.5q-33 0 -61 9.5t-48.5 32t-32.5 59t-12 90.5v240q0 14 -7.5 23.5t-33.5 14.5l-27 5v33l198 21v-312q0 -41 7 -67.5t19 -42t28 -21.5t35 -6q18 0 35.5 6.5t32 23t23 43.5
t8.5 68v211q0 14 -7.5 23.5t-33.5 14.5l-27 5v33l198 21v-429zM428 645q-28 0 -46.5 19t-18.5 47q0 29 18.5 47.5t46.5 18.5q27 0 46 -18.5t19 -47.5q0 -28 -19 -47t-46 -19zM199 645q-28 0 -46.5 19t-18.5 47q0 29 18.5 47.5t46.5 18.5q27 0 46 -18.5t19 -47.5
q0 -28 -19 -47t-46 -19z" />
    <glyph glyph-name="yacute" unicode="&#xfd;" horiz-adv-x="582" 
d="M137 -254q-29 0 -45 17.5t-16 39.5q0 55 88 83q26 8 43 19.5t32 43.5l26 57l-192 420q-6 14 -15 23.5t-35 14.5l-27 5v33h280v-33l-27 -5q-26 -5 -32.5 -14.5t-0.5 -23.5l119 -267l122 267q6 14 0 23.5t-32 14.5l-27 5v33h190v-33l-27 -5q-26 -5 -35 -14.5t-15 -23.5
l-267 -579q-26 -57 -52 -79t-55 -22zM393 788h140v-9l-231 -170h-17z" />
    <glyph glyph-name="thorn" unicode="&#xfe;" horiz-adv-x="599" 
d="M276 452q-44 0 -72 -24v-366q28 -21 70 -21q61 0 101.5 54t40.5 153q0 46 -10.5 84t-29.5 64.5t-44.5 41t-55.5 14.5zM321 -13q-37 0 -67 14.5t-50 35.5v-209q0 -15 7.5 -24t33.5 -12l48 -5v-35h-287v33l27 5q26 5 33.5 14t7.5 24v869q0 14 -7.5 22.5t-33.5 14.5l-27 6
v32l198 22v-340q10 12 24.5 23.5t32.5 20.5t39 15t44 6q43 0 82.5 -17.5t69.5 -51.5t47.5 -83t17.5 -113q0 -60 -18.5 -109t-50.5 -84t-76 -54.5t-95 -19.5z" />
    <glyph glyph-name="ydieresis" unicode="&#xff;" horiz-adv-x="582" 
d="M137 -254q-29 0 -45 17.5t-16 39.5q0 55 88 83q26 8 43 19.5t32 43.5l26 57l-192 420q-6 14 -15 23.5t-35 14.5l-27 5v33h280v-33l-27 -5q-26 -5 -32.5 -14.5t-0.5 -23.5l119 -267l122 267q6 14 0 23.5t-32 14.5l-27 5v33h190v-33l-27 -5q-26 -5 -35 -14.5t-15 -23.5
l-267 -579q-26 -57 -52 -79t-55 -22zM435 645q-28 0 -46.5 19t-18.5 47q0 29 18.5 47.5t46.5 18.5q27 0 46 -18.5t19 -47.5q0 -28 -19 -47t-46 -19zM206 645q-28 0 -46.5 19t-18.5 47q0 29 18.5 47.5t46.5 18.5q27 0 46 -18.5t19 -47.5q0 -28 -19 -47t-46 -19z" />
    <glyph glyph-name="Abreve" unicode="&#x102;" horiz-adv-x="769" 
d="M-14 36l37 5q15 2 24.5 7t18 17t17.5 32.5t22 53.5l250 640h52l282 -689q12 -29 23.5 -43t40.5 -18l37 -5v-36h-320v36l37 5q29 4 39 15.5t-1 39.5l-72 178h-255l-44 -113q-15 -38 -19.5 -60.5t-1.5 -35t12.5 -17.5t24.5 -7l37 -5v-36h-241v36zM448 336l-106 260
l-100 -260h206zM382 829q-21 0 -47.5 6t-50.5 23.5t-42 49t-23 81.5h57q7 -54 36 -81t70 -27t70 27t36 81h57q-5 -50 -23 -81.5t-42 -49t-50.5 -23.5t-47.5 -6z" />
    <glyph glyph-name="Amacron" unicode="&#x100;" horiz-adv-x="769" 
d="M-14 36l37 5q15 2 24.5 7t18 17t17.5 32.5t22 53.5l250 640h52l282 -689q12 -29 23.5 -43t40.5 -18l37 -5v-36h-320v36l37 5q29 4 39 15.5t-1 39.5l-72 178h-255l-44 -113q-15 -38 -19.5 -60.5t-1.5 -35t12.5 -17.5t24.5 -7l37 -5v-36h-241v36zM448 336l-106 260
l-100 -260h206zM228 941h308v-67h-308v67z" />
    <glyph glyph-name="Aogonek" unicode="&#x104;" horiz-adv-x="769" 
d="M-14 36l37 5q15 2 24.5 7t18 17t17.5 32.5t22 53.5l250 640h52l282 -689q12 -29 23.5 -43t40.5 -18l37 -5v-36h-320v36l37 5q29 4 39 15.5t-1 39.5l-72 178h-255l-44 -113q-15 -38 -19.5 -60.5t-1.5 -35t12.5 -17.5t24.5 -7l37 -5v-36h-241v36zM448 336l-106 260
l-100 -260h206zM742 -207q-17 -8 -45 -17.5t-57 -9.5q-21 0 -40.5 5.5t-34 16.5t-23.5 26.5t-9 36.5q0 19 11 39t28 39t37.5 37t40.5 34h40q-13 -12 -25.5 -27t-22.5 -31.5t-16 -33.5t-6 -33q0 -21 10 -34t27 -19t39 -5.5t46 6.5v-30z" />
    <glyph glyph-name="Cacute" unicode="&#x106;" horiz-adv-x="809" 
d="M497 44q33 0 64 5t57 16.5t47.5 31t36.5 48.5l36 70h37l-46 -192q-45 -13 -107 -24.5t-138 -11.5q-99 0 -180 31.5t-139.5 85.5t-90.5 126t-32 153t33.5 153t93.5 126t142.5 85.5t180.5 31.5q74 0 135 -11.5t103 -23.5l32 -190h-36l-34 67q-30 59 -85 80.5t-127 21.5
q-50 0 -99 -16t-88 -52t-63.5 -94.5t-24.5 -143.5q0 -81 20 -149.5t58 -118t92 -77.5t122 -28zM739 969l-255 -126h-21l100 129h176v-3z" />
    <glyph glyph-name="Ccaron" unicode="&#x10c;" horiz-adv-x="809" 
d="M497 44q33 0 64 5t57 16.5t47.5 31t36.5 48.5l36 70h37l-46 -192q-45 -13 -107 -24.5t-138 -11.5q-99 0 -180 31.5t-139.5 85.5t-90.5 126t-32 153t33.5 153t93.5 126t142.5 85.5t180.5 31.5q74 0 135 -11.5t103 -23.5l32 -190h-36l-34 67q-30 59 -85 80.5t-127 21.5
q-50 0 -99 -16t-88 -52t-63.5 -94.5t-24.5 -143.5q0 -81 20 -149.5t58 -118t92 -77.5t122 -28zM314 988h23l150 -66l150 66h23l-165 -155h-16z" />
    <glyph glyph-name="Ccircumflex" unicode="&#x108;" horiz-adv-x="809" 
d="M497 44q33 0 64 5t57 16.5t47.5 31t36.5 48.5l36 70h37l-46 -192q-45 -13 -107 -24.5t-138 -11.5q-99 0 -180 31.5t-139.5 85.5t-90.5 126t-32 153t33.5 153t93.5 126t142.5 85.5t180.5 31.5q74 0 135 -11.5t103 -23.5l32 -190h-36l-34 67q-30 59 -85 80.5t-127 21.5
q-50 0 -99 -16t-88 -52t-63.5 -94.5t-24.5 -143.5q0 -81 20 -149.5t58 -118t92 -77.5t122 -28zM495 988l165 -155h-23l-150 66l-150 -66h-23l165 155h16z" />
    <glyph glyph-name="Cdotaccent" unicode="&#x10a;" horiz-adv-x="809" 
d="M497 44q33 0 64 5t57 16.5t47.5 31t36.5 48.5l36 70h37l-46 -192q-45 -13 -107 -24.5t-138 -11.5q-99 0 -180 31.5t-139.5 85.5t-90.5 126t-32 153t33.5 153t93.5 126t142.5 85.5t180.5 31.5q74 0 135 -11.5t103 -23.5l32 -190h-36l-34 67q-30 59 -85 80.5t-127 21.5
q-50 0 -99 -16t-88 -52t-63.5 -94.5t-24.5 -143.5q0 -81 20 -149.5t58 -118t92 -77.5t122 -28zM487 840q-29 0 -48 19t-19 48q0 30 19 49.5t48 19.5q28 0 47.5 -19.5t19.5 -49.5q0 -29 -19.5 -48t-47.5 -19z" />
    <glyph glyph-name="Dcaron" unicode="&#x10e;" horiz-adv-x="874" 
d="M371 758q100 0 184 -25t145.5 -72.5t96 -117t34.5 -158.5t-35 -160t-96 -121t-144 -77t-179 -27h-322v36l37 5q29 4 39 15t10 40v566q0 29 -10 40t-39 15l-37 5v36h316zM371 49q65 0 120.5 15.5t96 51.5t63 94t22.5 144q0 184 -75.5 269.5t-236.5 85.5q-27 0 -43 -1
t-23.5 -3t-9.5 -6.5t-2 -11.5v-568q0 -22 3 -35.5t11 -21t22.5 -10.5t38.5 -3h13zM231 988h23l150 -66l150 66h23l-165 -155h-16z" />
    <glyph glyph-name="Dcroat" unicode="&#x110;" horiz-adv-x="884" 
d="M381 758q100 0 184 -25t145.5 -72.5t96 -117t34.5 -158.5t-35 -160t-96 -121t-144 -77t-179 -27h-322v36l37 5q29 4 39 15t10 40v566q0 29 -10 40t-39 15l-37 5v36h316zM381 49q65 0 120.5 15.5t96 51.5t63 94t22.5 144q0 184 -75.5 269.5t-236.5 85.5q-27 0 -43 -1
t-23.5 -3t-9.5 -6.5t-2 -11.5v-568q0 -22 3 -35.5t11 -21t22.5 -10.5t38.5 -3h13zM65 415h391v-58h-391v58z" />
    <glyph glyph-name="Ebreve" unicode="&#x114;" horiz-adv-x="752" 
d="M356 758l305 2l19 -198h-36l-23 53q-13 30 -26.5 47.5t-36.5 27.5t-60 13t-97 3h-98q-20 0 -20 -20v-274h118q23 0 40 2t28.5 9t19.5 21t13 38l9 41h36v-281h-36l-9 41q-5 24 -13 38t-19.5 21t-28.5 9t-40 2h-118v-217q0 -29 3.5 -45.5t13.5 -25t27.5 -11t45.5 -2.5h45
q63 0 101 3.5t61.5 13t38.5 27.5t33 47l42 68h36l-55 -211h-620v36l37 5q29 4 39 15t10 40v566q0 29 -10 40t-39 15l-37 5v36h301zM404 828q-21 0 -47.5 6t-50.5 23.5t-42 49t-23 81.5h57q7 -54 36 -81t70 -27t70 27t36 81h57q-5 -50 -23 -81.5t-42 -49t-50.5 -23.5
t-47.5 -6z" />
    <glyph glyph-name="Ecaron" unicode="&#x11a;" horiz-adv-x="752" 
d="M356 758l305 2l19 -198h-36l-23 53q-13 30 -26.5 47.5t-36.5 27.5t-60 13t-97 3h-98q-20 0 -20 -20v-274h118q23 0 40 2t28.5 9t19.5 21t13 38l9 41h36v-281h-36l-9 41q-5 24 -13 38t-19.5 21t-28.5 9t-40 2h-118v-217q0 -29 3.5 -45.5t13.5 -25t27.5 -11t45.5 -2.5h45
q63 0 101 3.5t61.5 13t38.5 27.5t33 47l42 68h36l-55 -211h-620v36l37 5q29 4 39 15t10 40v566q0 29 -10 40t-39 15l-37 5v36h301zM231 988h23l150 -66l150 66h23l-165 -155h-16z" />
    <glyph glyph-name="Emacron" unicode="&#x112;" horiz-adv-x="752" 
d="M356 758l305 2l19 -198h-36l-23 53q-13 30 -26.5 47.5t-36.5 27.5t-60 13t-97 3h-98q-20 0 -20 -20v-274h118q23 0 40 2t28.5 9t19.5 21t13 38l9 41h36v-281h-36l-9 41q-5 24 -13 38t-19.5 21t-28.5 9t-40 2h-118v-217q0 -29 3.5 -45.5t13.5 -25t27.5 -11t45.5 -2.5h45
q63 0 101 3.5t61.5 13t38.5 27.5t33 47l42 68h36l-55 -211h-620v36l37 5q29 4 39 15t10 40v566q0 29 -10 40t-39 15l-37 5v36h301zM250 940h308v-67h-308v67z" />
    <glyph glyph-name="Eogonek" unicode="&#x118;" horiz-adv-x="752" 
d="M356 758l305 2l19 -198h-36l-23 53q-13 30 -26.5 47.5t-36.5 27.5t-60 13t-97 3h-98q-20 0 -20 -20v-274h118q23 0 40 2t28.5 9t19.5 21t13 38l9 41h36v-281h-36l-9 41q-5 24 -13 38t-19.5 21t-28.5 9t-40 2h-118v-217q0 -29 3.5 -45.5t13.5 -25t27.5 -11t45.5 -2.5h45
q63 0 101 3.5t61.5 13t38.5 27.5t33 47l42 68h36l-55 -211h-620v36l37 5q29 4 39 15t10 40v566q0 29 -10 40t-39 15l-37 5v36h301zM727 -207q-17 -8 -45 -17.5t-57 -9.5q-21 0 -40.5 5.5t-34 16.5t-23.5 26.5t-9 36.5q0 19 11 39t28 39t37.5 37t40.5 34h40
q-13 -12 -25.5 -27t-22.5 -31.5t-16 -33.5t-6 -33q0 -21 10 -34t27 -19t39 -5.5t46 6.5v-30z" />
    <glyph glyph-name="Edotaccent" unicode="&#x116;" horiz-adv-x="752" 
d="M356 758l305 2l19 -198h-36l-23 53q-13 30 -26.5 47.5t-36.5 27.5t-60 13t-97 3h-98q-20 0 -20 -20v-274h118q23 0 40 2t28.5 9t19.5 21t13 38l9 41h36v-281h-36l-9 41q-5 24 -13 38t-19.5 21t-28.5 9t-40 2h-118v-217q0 -29 3.5 -45.5t13.5 -25t27.5 -11t45.5 -2.5h45
q63 0 101 3.5t61.5 13t38.5 27.5t33 47l42 68h36l-55 -211h-620v36l37 5q29 4 39 15t10 40v566q0 29 -10 40t-39 15l-37 5v36h301zM404 840q-29 0 -48 19t-19 48q0 30 19 49.5t48 19.5q28 0 47.5 -19.5t19.5 -49.5q0 -29 -19.5 -48t-47.5 -19z" />
    <glyph glyph-name="Gbreve" unicode="&#x11e;" horiz-adv-x="875" 
d="M476 -13q-96 0 -176 31.5t-137.5 85.5t-89 126t-31.5 153t33 153t92 126t142 85.5t183 31.5q70 0 134.5 -11t106.5 -24l33 -190h-36l-35 67q-31 58 -89 80t-131 22q-49 0 -98 -16t-88.5 -52t-64 -94.5t-24.5 -143.5q0 -88 22.5 -156.5t61.5 -116t92.5 -72.5t115.5 -25
q33 0 68 4.5t61 12.5v209q0 29 -10 41t-39 14l-70 5v36h348v-44l-86 -4v-214l5 -71q-26 -10 -61.5 -19t-75 -15.5t-80 -10.5t-76.5 -4zM491 828q-21 0 -47.5 6t-50.5 23.5t-42 49t-23 81.5h57q7 -54 36 -81t70 -27t70 27t36 81h57q-5 -50 -23 -81.5t-42 -49t-50.5 -23.5
t-47.5 -6z" />
    <glyph glyph-name="Gcircumflex" unicode="&#x11c;" horiz-adv-x="875" 
d="M476 -13q-96 0 -176 31.5t-137.5 85.5t-89 126t-31.5 153t33 153t92 126t142 85.5t183 31.5q70 0 134.5 -11t106.5 -24l33 -190h-36l-35 67q-31 58 -89 80t-131 22q-49 0 -98 -16t-88.5 -52t-64 -94.5t-24.5 -143.5q0 -88 22.5 -156.5t61.5 -116t92.5 -72.5t115.5 -25
q33 0 68 4.5t61 12.5v209q0 29 -10 41t-39 14l-70 5v36h348v-44l-86 -4v-214l5 -71q-26 -10 -61.5 -19t-75 -15.5t-80 -10.5t-76.5 -4zM499 988l165 -155h-23l-150 66l-150 -66h-23l165 155h16z" />
    <glyph glyph-name="uni0122" unicode="&#x122;" horiz-adv-x="875" 
d="M476 -13q-96 0 -176 31.5t-137.5 85.5t-89 126t-31.5 153t33 153t92 126t142 85.5t183 31.5q70 0 134.5 -11t106.5 -24l33 -190h-36l-35 67q-31 58 -89 80t-131 22q-49 0 -98 -16t-88.5 -52t-64 -94.5t-24.5 -143.5q0 -88 22.5 -156.5t61.5 -116t92.5 -72.5t115.5 -25
q33 0 68 4.5t61 12.5v209q0 29 -10 41t-39 14l-70 5v36h348v-44l-86 -4v-214l5 -71q-26 -10 -61.5 -19t-75 -15.5t-80 -10.5t-76.5 -4zM462 -88q45 0 75.5 -31.5t30.5 -79.5q0 -29 -13 -55t-35 -48.5t-51 -41t-61 -32.5l-13 26q42 21 66 47t24 61q0 37 -24.5 56t-66.5 26
q-1 33 17.5 52.5t50.5 19.5z" />
    <glyph glyph-name="Gdotaccent" unicode="&#x120;" horiz-adv-x="875" 
d="M476 -13q-96 0 -176 31.5t-137.5 85.5t-89 126t-31.5 153t33 153t92 126t142 85.5t183 31.5q70 0 134.5 -11t106.5 -24l33 -190h-36l-35 67q-31 58 -89 80t-131 22q-49 0 -98 -16t-88.5 -52t-64 -94.5t-24.5 -143.5q0 -88 22.5 -156.5t61.5 -116t92.5 -72.5t115.5 -25
q33 0 68 4.5t61 12.5v209q0 29 -10 41t-39 14l-70 5v36h348v-44l-86 -4v-214l5 -71q-26 -10 -61.5 -19t-75 -15.5t-80 -10.5t-76.5 -4zM491 840q-29 0 -48 19t-19 48q0 30 19 49.5t48 19.5q28 0 47.5 -19.5t19.5 -49.5q0 -29 -19.5 -48t-47.5 -19z" />
    <glyph glyph-name="Hbar" unicode="&#x126;" horiz-adv-x="936" 
d="M369 0h-314v36l37 5q29 4 39 15t10 40v566q0 29 -10 40t-39 15l-37 5v36h314v-36l-37 -5q-29 -4 -39 -15t-10 -40v-248h369v248q0 29 -9.5 40t-38.5 15l-38 5v36h315v-36l-38 -5q-29 -4 -38.5 -15t-9.5 -40v-566q0 -29 9.5 -40t38.5 -15l38 -5v-36h-315v36l38 5
q29 4 38.5 15t9.5 40v257h-369v-257q0 -29 10 -40t39 -15l37 -5v-36zM49 594h839v-58h-839v58z" />
    <glyph glyph-name="Hcircumflex" unicode="&#x124;" horiz-adv-x="936" 
d="M369 0h-314v36l37 5q29 4 39 15t10 40v566q0 29 -10 40t-39 15l-37 5v36h314v-36l-37 -5q-29 -4 -39 -15t-10 -40v-248h369v248q0 29 -9.5 40t-38.5 15l-38 5v36h315v-36l-38 -5q-29 -4 -38.5 -15t-9.5 -40v-566q0 -29 9.5 -40t38.5 -15l38 -5v-36h-315v36l38 5
q29 4 38.5 15t9.5 40v257h-369v-257q0 -29 10 -40t39 -15l37 -5v-36zM476 988l165 -155h-23l-150 66l-150 -66h-23l165 155h16z" />
    <glyph glyph-name="Ibreve" unicode="&#x12c;" horiz-adv-x="424" 
d="M141 662q0 29 -10 40t-39 15l-37 5v36h314v-36l-37 -5q-29 -4 -39 -15t-10 -40v-566q0 -29 10 -40t39 -15l37 -5v-36h-314v36l37 5q29 4 39 15t10 40v566zM212 828q-21 0 -47.5 6t-50.5 23.5t-42 49t-23 81.5h57q7 -54 36 -81t70 -27t70 27t36 81h57q-5 -50 -23 -81.5
t-42 -49t-50.5 -23.5t-47.5 -6z" />
    <glyph glyph-name="Idotaccent" unicode="&#x130;" horiz-adv-x="424" 
d="M141 662q0 29 -10 40t-39 15l-37 5v36h314v-36l-37 -5q-29 -4 -39 -15t-10 -40v-566q0 -29 10 -40t39 -15l37 -5v-36h-314v36l37 5q29 4 39 15t10 40v566zM212 840q-29 0 -48 19t-19 48q0 30 19 49.5t48 19.5q28 0 47.5 -19.5t19.5 -49.5q0 -29 -19.5 -48t-47.5 -19z" />
    <glyph glyph-name="Imacron" unicode="&#x12a;" horiz-adv-x="424" 
d="M141 662q0 29 -10 40t-39 15l-37 5v36h314v-36l-37 -5q-29 -4 -39 -15t-10 -40v-566q0 -29 10 -40t39 -15l37 -5v-36h-314v36l37 5q29 4 39 15t10 40v566zM58 940h308v-67h-308v67z" />
    <glyph glyph-name="Iogonek" unicode="&#x12e;" horiz-adv-x="424" 
d="M141 662q0 29 -10 40t-39 15l-37 5v36h314v-36l-37 -5q-29 -4 -39 -15t-10 -40v-566q0 -29 10 -40t39 -15l37 -5v-36h-314v36l37 5q29 4 39 15t10 40v566zM340 -207q-17 -8 -45 -17.5t-57 -9.5q-21 0 -40.5 5.5t-34 16.5t-23.5 26.5t-9 36.5q0 19 11 39t28 39t37.5 37
t40.5 34h40q-13 -12 -25.5 -27t-22.5 -31.5t-16 -33.5t-6 -33q0 -21 10 -34t27 -19t39 -5.5t46 6.5v-30z" />
    <glyph glyph-name="Itilde" unicode="&#x128;" horiz-adv-x="424" 
d="M141 662q0 29 -10 40t-39 15l-37 5v36h314v-36l-37 -5q-29 -4 -39 -15t-10 -40v-566q0 -29 10 -40t39 -15l37 -5v-36h-314v36l37 5q29 4 39 15t10 40v566zM48 833q0 23 5.5 48t17.5 46t30 34.5t43 13.5q21 0 42 -10t40.5 -21.5t38 -21.5t35.5 -10q27 0 40 14t15 46h21
q0 -41 -8 -67t-20.5 -42t-28 -22t-31.5 -6q-25 0 -46 10t-40.5 21.5t-38 21.5t-38.5 10q-24 0 -39 -17t-17 -48h-21z" />
    <glyph glyph-name="uni1ECA" unicode="&#x1eca;" horiz-adv-x="424" 
d="M141 662q0 29 -10 40t-39 15l-37 5v36h314v-36l-37 -5q-29 -4 -39 -15t-10 -40v-566q0 -29 10 -40t39 -15l37 -5v-36h-314v36l37 5q29 4 39 15t10 40v566zM212 -242q-29 0 -48 19t-19 48q0 30 19 49.5t48 19.5q28 0 47.5 -19.5t19.5 -49.5q0 -29 -19.5 -48t-47.5 -19z
" />
    <glyph glyph-name="Jcircumflex" unicode="&#x134;" horiz-adv-x="416" 
d="M289 206q0 -39 -6.5 -67.5t-19.5 -50.5t-32 -40.5t-43 -38.5q-13 -11 -32 -25t-40.5 -29.5t-44 -31.5t-41.5 -29l-27 36q41 36 68.5 63.5t44 56t23.5 62.5t7 83v467q0 29 -9.5 40t-38.5 15l-38 5v36h315v-36l-38 -5q-29 -4 -38.5 -15t-9.5 -40v-456zM226 988l165 -155
h-23l-150 66l-150 -66h-23l165 155h16z" />
    <glyph glyph-name="uni0136" unicode="&#x136;" horiz-adv-x="867" 
d="M283 362v-266q0 -29 10 -40t39 -15l37 -5v-36h-314v36l37 5q29 4 39 15t10 40v566q0 29 -10 40t-39 15l-37 5v36h314v-36l-37 -5q-29 -4 -39 -15t-10 -40v-266l270 225q27 22 45.5 39.5t25 30t-0.5 20t-31 9.5l-21 2v36h267v-36l-29 -5q-38 -7 -79.5 -31t-103.5 -75
l-213 -174l348 -348q23 -23 38 -34.5t37 -14.5l29 -4v-36h-218zM467 -88q45 0 75.5 -31.5t30.5 -79.5q0 -29 -13 -55t-35 -48.5t-51 -41t-61 -32.5l-13 26q42 21 66 47t24 61q0 37 -24.5 56t-66.5 26q-1 33 17.5 52.5t50.5 19.5z" />
    <glyph glyph-name="Lacute" unicode="&#x139;" horiz-adv-x="707" 
d="M283 139q0 -30 4 -47t15.5 -26t32.5 -11.5t55 -2.5h44q43 0 71 3t47.5 12.5t34.5 27t32 45.5l42 71h36l-55 -211h-587v36l37 5q29 4 39 15t10 40v566q0 29 -10 40t-39 15l-37 5v36h314v-36l-37 -5q-29 -4 -39 -15t-10 -40v-523zM464 969l-255 -126h-21l100 129h176v-3z
" />
    <glyph glyph-name="Lcaron" unicode="&#x13d;" horiz-adv-x="707" 
d="M283 139q0 -30 4 -47t15.5 -26t32.5 -11.5t55 -2.5h44q43 0 71 3t47.5 12.5t34.5 27t32 45.5l42 71h36l-55 -211h-587v36l37 5q29 4 39 15t10 40v566q0 29 -10 40t-39 15l-37 5v36h314v-36l-37 -5q-29 -4 -39 -15t-10 -40v-523zM492 787q22 0 41.5 -8.5t33.5 -23.5
t22.5 -35.5t8.5 -43.5q0 -29 -13 -55t-35 -48.5t-51 -41t-61 -32.5l-13 25q42 21 66 47.5t24 60.5q0 38 -24.5 56.5t-66.5 25.5q-1 34 17.5 53.5t50.5 19.5z" />
    <glyph glyph-name="uni013B" unicode="&#x13b;" horiz-adv-x="707" 
d="M283 139q0 -30 4 -47t15.5 -26t32.5 -11.5t55 -2.5h44q43 0 71 3t47.5 12.5t34.5 27t32 45.5l42 71h36l-55 -211h-587v36l37 5q29 4 39 15t10 40v566q0 29 -10 40t-39 15l-37 5v36h314v-36l-37 -5q-29 -4 -39 -15t-10 -40v-523zM368 -88q45 0 75.5 -31.5t30.5 -79.5
q0 -29 -13 -55t-35 -48.5t-51 -41t-61 -32.5l-13 26q42 21 66 47t24 61q0 37 -24.5 56t-66.5 26q-1 33 17.5 52.5t50.5 19.5z" />
    <glyph glyph-name="Ldot" unicode="&#x13f;" horiz-adv-x="707" 
d="M283 139q0 -30 4 -47t15.5 -26t32.5 -11.5t55 -2.5h44q43 0 71 3t47.5 12.5t34.5 27t32 45.5l42 71h36l-55 -211h-587v36l37 5q29 4 39 15t10 40v566q0 29 -10 40t-39 15l-37 5v36h314v-36l-37 -5q-29 -4 -39 -15t-10 -40v-523zM566 344q-29 0 -48 19t-19 48
q0 30 19 49.5t48 19.5q28 0 47.5 -19.5t19.5 -49.5q0 -29 -19.5 -48t-47.5 -19z" />
    <glyph glyph-name="glyph223" horiz-adv-x="707" 
d="M283 139q0 -30 4 -47t15.5 -26t32.5 -11.5t55 -2.5h44q43 0 71 3t47.5 12.5t34.5 27t32 45.5l42 71h36l-55 -211h-587v36l37 5q29 4 39 15t10 40v566q0 29 -10 40t-39 15l-37 5v36h314v-36l-37 -5q-29 -4 -39 -15t-10 -40v-523zM566 344q-29 0 -48 19t-19 48
q0 30 19 49.5t48 19.5q28 0 47.5 -19.5t19.5 -49.5q0 -29 -19.5 -48t-47.5 -19z" />
    <glyph glyph-name="Lslash" unicode="&#x141;" horiz-adv-x="707" 
d="M283 139q0 -30 4 -47t15.5 -26t32.5 -11.5t55 -2.5h44q43 0 71 3t47.5 12.5t34.5 27t32 45.5l42 71h36l-55 -211h-587v36l37 5q29 4 39 15t10 40v566q0 29 -10 40t-39 15l-37 5v36h314v-36l-37 -5q-29 -4 -39 -15t-10 -40v-523zM7 298l411 213v-64l-411 -213v64z" />
    <glyph glyph-name="Eng" unicode="&#x14a;" horiz-adv-x="913" 
d="M834 717q-15 -2 -25 -6t-16 -19t-9 -45.5t-3 -86.5v-516q0 -42 -6.5 -73t-19.5 -55.5t-32.5 -44.5t-46.5 -39q-25 -18 -64 -44t-80 -50l-23 31q35 30 61.5 54t44.5 52.5t27 66.5t9 96v61l-446 492v-393q0 -56 3 -87t9 -46t16 -18.5t25 -5.5l40 -5v-36h-245v36l40 5
q14 2 24 5.5t16 18.5t9 46t3 87v372q0 72 -24 108t-75 44v36h189l486 -522v324q0 56 -3 86.5t-9 45.5t-16 19t-24 6l-41 5v36h246v-36z" />
    <glyph glyph-name="Nacute" unicode="&#x143;" horiz-adv-x="913" 
d="M205 591v-393q0 -56 1.5 -86.5t6.5 -45.5t16 -19t29 -6l40 -5v-36h-245v36l40 5q18 2 28.5 6t15.5 19t6.5 45.5t1.5 86.5v372q0 72 -24 108t-75 44v36h189l486 -522v324q0 56 -1.5 86.5t-6.5 45.5t-15.5 19t-28.5 6l-41 5v36h246v-36l-40 -5q-18 -2 -29 -6t-16 -19
t-6.5 -45.5t-1.5 -86.5v-570h-31zM734 969l-255 -126h-21l100 129h176v-3z" />
    <glyph glyph-name="Ncaron" unicode="&#x147;" horiz-adv-x="913" 
d="M205 591v-393q0 -56 1.5 -86.5t6.5 -45.5t16 -19t29 -6l40 -5v-36h-245v36l40 5q18 2 28.5 6t15.5 19t6.5 45.5t1.5 86.5v372q0 72 -24 108t-75 44v36h189l486 -522v324q0 56 -1.5 86.5t-6.5 45.5t-15.5 19t-28.5 6l-41 5v36h246v-36l-40 -5q-18 -2 -29 -6t-16 -19
t-6.5 -45.5t-1.5 -86.5v-570h-31zM309 988h23l150 -66l150 66h23l-165 -155h-16z" />
    <glyph glyph-name="uni0145" unicode="&#x145;" horiz-adv-x="913" 
d="M205 591v-393q0 -56 1.5 -86.5t6.5 -45.5t16 -19t29 -6l40 -5v-36h-245v36l40 5q18 2 28.5 6t15.5 19t6.5 45.5t1.5 86.5v372q0 72 -24 108t-75 44v36h189l486 -522v324q0 56 -1.5 86.5t-6.5 45.5t-15.5 19t-28.5 6l-41 5v36h246v-36l-40 -5q-18 -2 -29 -6t-16 -19
t-6.5 -45.5t-1.5 -86.5v-570h-31zM450 -88q45 0 75.5 -31.5t30.5 -79.5q0 -29 -13 -55t-35 -48.5t-51 -41t-61 -32.5l-13 26q42 21 66 47t24 61q0 37 -24.5 56t-66.5 26q-1 33 17.5 52.5t50.5 19.5z" />
    <glyph glyph-name="OE" unicode="&#x152;" horiz-adv-x="1298" 
d="M450 779q84 0 150 -33t113 -90v102h189l306 2l10 -198h-36l-18 53q-10 30 -23 48t-36.5 27.5t-61 12.5t-96.5 3h-97q-20 0 -20 -20v-274h127q23 0 38 2t25.5 9t17 21t11.5 38l9 41h36v-281h-36l-9 41q-5 24 -11.5 38t-17 21t-25.5 9t-38 2h-127v-217q0 -29 3.5 -45.5
t13 -25t27 -11t45.5 -2.5h45q64 0 102 3t61.5 13t38.5 28t33 47l41 68h37l-55 -211h-509v110q-47 -57 -113 -90t-150 -33q-81 0 -155 29t-130 81.5t-89.5 125.5t-33.5 160t33.5 159.5t90 125t130 82t154.5 29.5zM700 352q0 87 -19 156t-53.5 117t-82.5 73t-105 25
q-44 0 -87 -16.5t-77 -53.5t-55 -96t-21 -143q0 -88 19 -157t53.5 -116.5t82.5 -72.5t105 -25q44 0 87 16.5t77 53t55 95.5t21 144z" />
    <glyph glyph-name="Obreve" unicode="&#x14e;" horiz-adv-x="900" 
d="M450 779q81 0 154.5 -29t130 -81.5t89.5 -125.5t33 -161q0 -87 -33.5 -159.5t-89.5 -125t-129.5 -81.5t-154.5 -29t-155 29t-130 81.5t-89.5 125.5t-33.5 160t33.5 159.5t90 125t130 82t154.5 29.5zM440 723q-44 0 -87 -16.5t-77 -53.5t-55 -96t-21 -143q0 -88 19 -157
t53.5 -116.5t82.5 -72.5t105 -25q44 0 87 16.5t77 53t55 95.5t21 144q0 87 -19 156t-53.5 117t-82.5 73t-105 25zM453 828q-21 0 -47.5 6t-50.5 23.5t-42 49t-23 81.5h57q7 -54 36 -81t70 -27t70 27t36 81h57q-5 -50 -23 -81.5t-42 -49t-50.5 -23.5t-47.5 -6z" />
    <glyph glyph-name="Ohungarumlaut" unicode="&#x150;" horiz-adv-x="900" 
d="M450 779q81 0 154.5 -29t130 -81.5t89.5 -125.5t33 -161q0 -87 -33.5 -159.5t-89.5 -125t-129.5 -81.5t-154.5 -29t-155 29t-130 81.5t-89.5 125.5t-33.5 160t33.5 159.5t90 125t130 82t154.5 29.5zM440 723q-44 0 -87 -16.5t-77 -53.5t-55 -96t-21 -143q0 -88 19 -157
t53.5 -116.5t82.5 -72.5t105 -25q44 0 87 16.5t77 53t55 95.5t21 144q0 87 -19 156t-53.5 117t-82.5 73t-105 25zM810 969l-255 -126h-21l100 129h176v-3zM603 969l-255 -126h-21l100 129h176v-3z" />
    <glyph glyph-name="Omacron" unicode="&#x14c;" horiz-adv-x="900" 
d="M450 779q81 0 154.5 -29t130 -81.5t89.5 -125.5t33 -161q0 -87 -33.5 -159.5t-89.5 -125t-129.5 -81.5t-154.5 -29t-155 29t-130 81.5t-89.5 125.5t-33.5 160t33.5 159.5t90 125t130 82t154.5 29.5zM440 723q-44 0 -87 -16.5t-77 -53.5t-55 -96t-21 -143q0 -88 19 -157
t53.5 -116.5t82.5 -72.5t105 -25q44 0 87 16.5t77 53t55 95.5t21 144q0 87 -19 156t-53.5 117t-82.5 73t-105 25zM299 940h308v-67h-308v67z" />
    <glyph glyph-name="uni1ECC" unicode="&#x1ecc;" horiz-adv-x="900" 
d="M450 779q81 0 154.5 -29t130 -81.5t89.5 -125.5t33 -161q0 -87 -33.5 -159.5t-89.5 -125t-129.5 -81.5t-154.5 -29t-155 29t-130 81.5t-89.5 125.5t-33.5 160t33.5 159.5t90 125t130 82t154.5 29.5zM440 723q-44 0 -87 -16.5t-77 -53.5t-55 -96t-21 -143q0 -88 19 -157
t53.5 -116.5t82.5 -72.5t105 -25q44 0 87 16.5t77 53t55 95.5t21 144q0 87 -19 156t-53.5 117t-82.5 73t-105 25zM459 -242q-29 0 -48 19t-19 48q0 30 19 49.5t48 19.5q28 0 47.5 -19.5t19.5 -49.5q0 -29 -19.5 -48t-47.5 -19z" />
    <glyph glyph-name="Racute" unicode="&#x154;" horiz-adv-x="818" 
d="M732 -13q-39 0 -72 9.5t-58.5 33t-44.5 64.5t-29 104q-9 52 -24.5 84.5t-36.5 49.5t-45.5 23t-50.5 6h-88v-265q0 -29 10 -40t39 -15l37 -5v-36h-314v36l37 5q29 4 39 15t10 40v566q0 29 -10 40t-39 15l-37 5v36h334q71 0 130 -9.5t101.5 -31t66 -56t23.5 -84.5
q0 -77 -56 -122.5t-164 -60.5v-2q75 -5 124.5 -47.5t69.5 -122.5l14 -54q10 -39 21 -65t25.5 -41t34 -20t47.5 -3l5 -33q-26 -9 -48.5 -14t-50.5 -5zM283 410q13 0 24.5 -0.5t22.5 -0.5h24h30q50 0 83 12t52.5 32t27.5 47.5t8 57.5q0 33 -9 61t-29.5 48t-54 31.5t-81.5 11.5
h-41q-38 0 -47.5 -4.5t-9.5 -18.5v-277zM658 969l-255 -126h-21l100 129h176v-3z" />
    <glyph glyph-name="Rcaron" unicode="&#x158;" horiz-adv-x="818" 
d="M732 -13q-39 0 -72 9.5t-58.5 33t-44.5 64.5t-29 104q-9 52 -24.5 84.5t-36.5 49.5t-45.5 23t-50.5 6h-88v-265q0 -29 10 -40t39 -15l37 -5v-36h-314v36l37 5q29 4 39 15t10 40v566q0 29 -10 40t-39 15l-37 5v36h334q71 0 130 -9.5t101.5 -31t66 -56t23.5 -84.5
q0 -77 -56 -122.5t-164 -60.5v-2q75 -5 124.5 -47.5t69.5 -122.5l14 -54q10 -39 21 -65t25.5 -41t34 -20t47.5 -3l5 -33q-26 -9 -48.5 -14t-50.5 -5zM283 410q13 0 24.5 -0.5t22.5 -0.5h24h30q50 0 83 12t52.5 32t27.5 47.5t8 57.5q0 33 -9 61t-29.5 48t-54 31.5t-81.5 11.5
h-41q-38 0 -47.5 -4.5t-9.5 -18.5v-277zM233 988h23l150 -66l150 66h23l-165 -155h-16z" />
    <glyph glyph-name="uni0156" unicode="&#x156;" horiz-adv-x="818" 
d="M732 -13q-39 0 -72 9.5t-58.5 33t-44.5 64.5t-29 104q-9 52 -24.5 84.5t-36.5 49.5t-45.5 23t-50.5 6h-88v-265q0 -29 10 -40t39 -15l37 -5v-36h-314v36l37 5q29 4 39 15t10 40v566q0 29 -10 40t-39 15l-37 5v36h334q71 0 130 -9.5t101.5 -31t66 -56t23.5 -84.5
q0 -77 -56 -122.5t-164 -60.5v-2q75 -5 124.5 -47.5t69.5 -122.5l14 -54q10 -39 21 -65t25.5 -41t34 -20t47.5 -3l5 -33q-26 -9 -48.5 -14t-50.5 -5zM283 410q13 0 24.5 -0.5t22.5 -0.5h24h30q50 0 83 12t52.5 32t27.5 47.5t8 57.5q0 33 -9 61t-29.5 48t-54 31.5t-81.5 11.5
h-41q-38 0 -47.5 -4.5t-9.5 -18.5v-277zM455 -88q45 0 75.5 -31.5t30.5 -79.5q0 -29 -13 -55t-35 -48.5t-51 -41t-61 -32.5l-13 26q42 21 66 47t24 61q0 37 -24.5 56t-66.5 26q-1 33 17.5 52.5t50.5 19.5z" />
    <glyph glyph-name="Sacute" unicode="&#x15a;" horiz-adv-x="670" 
d="M330 -13q-69 0 -134.5 12.5t-111.5 35.5l-31 226h36l34 -89q15 -40 34.5 -65.5t44 -40t54.5 -20t66 -5.5q37 0 68 8.5t54 24.5t36 39.5t13 53.5q0 52 -36 89.5t-123 62.5l-59 17q-97 28 -150.5 87t-53.5 144q0 51 22.5 90.5t61.5 66t91 40.5t112 14q18 0 42 -2.5t49.5 -7
t51 -11t46.5 -13.5l30 -202h-36l-32 77q-25 59 -63.5 83t-100.5 24q-64 0 -106 -31t-42 -87q0 -48 30 -83t96 -55l58 -18q56 -17 101 -36.5t76 -46t47.5 -63t16.5 -88.5q0 -57 -26 -100t-67.5 -72.5t-94 -44t-104.5 -14.5zM594 969l-255 -126h-21l100 129h176v-3z" />
    <glyph glyph-name="Scaron" unicode="&#x160;" horiz-adv-x="670" 
d="M330 -13q-69 0 -134.5 12.5t-111.5 35.5l-31 226h36l34 -89q15 -40 34.5 -65.5t44 -40t54.5 -20t66 -5.5q37 0 68 8.5t54 24.5t36 39.5t13 53.5q0 52 -36 89.5t-123 62.5l-59 17q-97 28 -150.5 87t-53.5 144q0 51 22.5 90.5t61.5 66t91 40.5t112 14q18 0 42 -2.5t49.5 -7
t51 -11t46.5 -13.5l30 -202h-36l-32 77q-25 59 -63.5 83t-100.5 24q-64 0 -106 -31t-42 -87q0 -48 30 -83t96 -55l58 -18q56 -17 101 -36.5t76 -46t47.5 -63t16.5 -88.5q0 -57 -26 -100t-67.5 -72.5t-94 -44t-104.5 -14.5zM169 988h23l150 -66l150 66h23l-165 -155h-16z" />
    <glyph glyph-name="Scedilla" unicode="&#x15e;" horiz-adv-x="670" 
d="M330 -13q-69 0 -134.5 12.5t-111.5 35.5l-31 226h36l34 -89q15 -40 34.5 -65.5t44 -40t54.5 -20t66 -5.5q37 0 68 8.5t54 24.5t36 39.5t13 53.5q0 52 -36 89.5t-123 62.5l-59 17q-97 28 -150.5 87t-53.5 144q0 51 22.5 90.5t61.5 66t91 40.5t112 14q18 0 42 -2.5t49.5 -7
t51 -11t46.5 -13.5l30 -202h-36l-32 77q-25 59 -63.5 83t-100.5 24q-64 0 -106 -31t-42 -87q0 -48 30 -83t96 -55l58 -18q56 -17 101 -36.5t76 -46t47.5 -63t16.5 -88.5q0 -57 -26 -100t-67.5 -72.5t-94 -44t-104.5 -14.5zM274 -267q-15 0 -30.5 3t-28 9t-20.5 15.5t-8 22.5
q0 16 13.5 28t39.5 7q0 -26 17.5 -40t40.5 -14q18 0 29.5 8.5t11.5 21.5q0 20 -33.5 40t-83.5 42l119 127h42l-76 -81q44 -22 64 -42.5t20 -53.5q0 -17 -8 -33.5t-23 -30t-36.5 -21.5t-49.5 -8z" />
    <glyph glyph-name="Scircumflex" unicode="&#x15c;" horiz-adv-x="670" 
d="M330 -13q-69 0 -134.5 12.5t-111.5 35.5l-31 226h36l34 -89q15 -40 34.5 -65.5t44 -40t54.5 -20t66 -5.5q37 0 68 8.5t54 24.5t36 39.5t13 53.5q0 52 -36 89.5t-123 62.5l-59 17q-97 28 -150.5 87t-53.5 144q0 51 22.5 90.5t61.5 66t91 40.5t112 14q18 0 42 -2.5t49.5 -7
t51 -11t46.5 -13.5l30 -202h-36l-32 77q-25 59 -63.5 83t-100.5 24q-64 0 -106 -31t-42 -87q0 -48 30 -83t96 -55l58 -18q56 -17 101 -36.5t76 -46t47.5 -63t16.5 -88.5q0 -57 -26 -100t-67.5 -72.5t-94 -44t-104.5 -14.5zM350 988l165 -155h-23l-150 66l-150 -66h-23
l165 155h16z" />
    <glyph glyph-name="uni0218" unicode="&#x218;" horiz-adv-x="670" 
d="M330 -13q-69 0 -134.5 12.5t-111.5 35.5l-31 226h36l34 -89q15 -40 34.5 -65.5t44 -40t54.5 -20t66 -5.5q37 0 68 8.5t54 24.5t36 39.5t13 53.5q0 52 -36 89.5t-123 62.5l-59 17q-97 28 -150.5 87t-53.5 144q0 51 22.5 90.5t61.5 66t91 40.5t112 14q18 0 42 -2.5t49.5 -7
t51 -11t46.5 -13.5l30 -202h-36l-32 77q-25 59 -63.5 83t-100.5 24q-64 0 -106 -31t-42 -87q0 -48 30 -83t96 -55l58 -18q56 -17 101 -36.5t76 -46t47.5 -63t16.5 -88.5q0 -57 -26 -100t-67.5 -72.5t-94 -44t-104.5 -14.5zM342 -88q45 0 75.5 -31.5t30.5 -79.5
q0 -29 -13 -55t-35 -48.5t-51 -41t-61 -32.5l-13 26q42 21 66 47t24 61q0 37 -24.5 56t-66.5 26q-1 33 17.5 52.5t50.5 19.5z" />
    <glyph glyph-name="Tbar" unicode="&#x166;" horiz-adv-x="750" 
d="M187 38l68 5q29 2 38.5 13t9.5 40v610h-16q-60 0 -98 -2.5t-62 -11.5t-37.5 -27t-22.5 -48l-17 -55h-36l13 198l267 -2h162l266 2l14 -198h-36l-18 55q-10 30 -23 48t-37 27t-62 11.5t-97 2.5h-17v-610q0 -29 10 -40t39 -13l67 -5v-38h-375v38zM124 415h503v-59h-503v59z
" />
    <glyph glyph-name="Tcaron" unicode="&#x164;" horiz-adv-x="750" 
d="M187 38l68 5q29 2 38.5 13t9.5 40v610h-16q-60 0 -98 -2.5t-62 -11.5t-37.5 -27t-22.5 -48l-17 -55h-36l13 198l267 -2h162l266 2l14 -198h-36l-18 55q-10 30 -23 48t-37 27t-62 11.5t-97 2.5h-17v-610q0 -29 10 -40t39 -13l67 -5v-38h-375v38zM202 988h23l150 -66
l150 66h23l-165 -155h-16z" />
    <glyph glyph-name="uni0162" unicode="&#x162;" horiz-adv-x="750" 
d="M187 38l68 5q29 2 38.5 13t9.5 40v610h-16q-60 0 -98 -2.5t-62 -11.5t-37.5 -27t-22.5 -48l-17 -55h-36l13 198l267 -2h162l266 2l14 -198h-36l-18 55q-10 30 -23 48t-37 27t-62 11.5t-97 2.5h-17v-610q0 -29 10 -40t39 -13l67 -5v-38h-375v38zM357 -88q45 0 75.5 -31.5
t30.5 -79.5q0 -29 -13 -55t-35 -48.5t-51 -41t-61 -32.5l-13 26q42 21 66 47t24 61q0 37 -24.5 56t-66.5 26q-1 33 17.5 52.5t50.5 19.5z" />
    <glyph glyph-name="uni021A" unicode="&#x21a;" horiz-adv-x="750" 
d="M187 38l68 5q29 2 38.5 13t9.5 40v610h-16q-60 0 -98 -2.5t-62 -11.5t-37.5 -27t-22.5 -48l-17 -55h-36l13 198l267 -2h162l266 2l14 -198h-36l-18 55q-10 30 -23 48t-37 27t-62 11.5t-97 2.5h-17v-610q0 -29 10 -40t39 -13l67 -5v-38h-375v38zM357 -88q45 0 75.5 -31.5
t30.5 -79.5q0 -29 -13 -55t-35 -48.5t-51 -41t-61 -32.5l-13 26q42 21 66 47t24 61q0 37 -24.5 56t-66.5 26q-1 33 17.5 52.5t50.5 19.5z" />
    <glyph glyph-name="Ubreve" unicode="&#x16c;" horiz-adv-x="871" 
d="M437 -13q-74 0 -133.5 17t-100.5 54.5t-63 97t-22 143.5v363q0 29 -9.5 40t-38.5 15l-38 5v36h315v-36l-38 -5q-29 -4 -38.5 -15t-9.5 -40v-364q0 -130 51 -189.5t155 -59.5q106 0 164.5 59t58.5 194v258q0 56 -1.5 86.5t-6.5 45.5t-16 19t-29 6l-40 5v36h246v-36l-41 -5
q-18 -2 -28.5 -6t-15.5 -19t-6.5 -45.5t-1.5 -86.5v-260q0 -83 -22 -142t-63 -97t-98.5 -56t-129.5 -18zM483 828q-21 0 -47.5 6t-50.5 23.5t-42 49t-23 81.5h57q7 -54 36 -81t70 -27t70 27t36 81h57q-5 -50 -23 -81.5t-42 -49t-50.5 -23.5t-47.5 -6z" />
    <glyph glyph-name="Uhungarumlaut" unicode="&#x170;" horiz-adv-x="871" 
d="M437 -13q-74 0 -133.5 17t-100.5 54.5t-63 97t-22 143.5v363q0 29 -9.5 40t-38.5 15l-38 5v36h315v-36l-38 -5q-29 -4 -38.5 -15t-9.5 -40v-364q0 -130 51 -189.5t155 -59.5q106 0 164.5 59t58.5 194v258q0 56 -1.5 86.5t-6.5 45.5t-16 19t-29 6l-40 5v36h246v-36l-41 -5
q-18 -2 -28.5 -6t-15.5 -19t-6.5 -45.5t-1.5 -86.5v-260q0 -83 -22 -142t-63 -97t-98.5 -56t-129.5 -18zM840 969l-255 -126h-21l100 129h176v-3zM633 969l-255 -126h-21l100 129h176v-3z" />
    <glyph glyph-name="Umacron" unicode="&#x16a;" horiz-adv-x="871" 
d="M437 -13q-74 0 -133.5 17t-100.5 54.5t-63 97t-22 143.5v363q0 29 -9.5 40t-38.5 15l-38 5v36h315v-36l-38 -5q-29 -4 -38.5 -15t-9.5 -40v-364q0 -130 51 -189.5t155 -59.5q106 0 164.5 59t58.5 194v258q0 56 -1.5 86.5t-6.5 45.5t-16 19t-29 6l-40 5v36h246v-36l-41 -5
q-18 -2 -28.5 -6t-15.5 -19t-6.5 -45.5t-1.5 -86.5v-260q0 -83 -22 -142t-63 -97t-98.5 -56t-129.5 -18zM329 940h308v-67h-308v67z" />
    <glyph glyph-name="Uogonek" unicode="&#x172;" horiz-adv-x="871" 
d="M437 -13q-74 0 -133.5 17t-100.5 54.5t-63 97t-22 143.5v363q0 29 -9.5 40t-38.5 15l-38 5v36h315v-36l-38 -5q-29 -4 -38.5 -15t-9.5 -40v-364q0 -130 51 -189.5t155 -59.5q106 0 164.5 59t58.5 194v258q0 56 -1.5 86.5t-6.5 45.5t-16 19t-29 6l-40 5v36h246v-36l-41 -5
q-18 -2 -28.5 -6t-15.5 -19t-6.5 -45.5t-1.5 -86.5v-260q0 -83 -22 -142t-63 -97t-98.5 -56t-129.5 -18zM538 -207q-17 -8 -45 -17.5t-57 -9.5q-21 0 -40.5 5.5t-34 16.5t-23.5 26.5t-9 36.5q0 19 11 39t28 39t37.5 37t40.5 34h40q-13 -12 -25.5 -27t-22.5 -31.5t-16 -33.5
t-6 -33q0 -21 10 -34t27 -19t39 -5.5t46 6.5v-30z" />
    <glyph glyph-name="Uring" unicode="&#x16e;" horiz-adv-x="871" 
d="M437 -13q-74 0 -133.5 17t-100.5 54.5t-63 97t-22 143.5v363q0 29 -9.5 40t-38.5 15l-38 5v36h315v-36l-38 -5q-29 -4 -38.5 -15t-9.5 -40v-364q0 -130 51 -189.5t155 -59.5q106 0 164.5 59t58.5 194v258q0 56 -1.5 86.5t-6.5 45.5t-16 19t-29 6l-40 5v36h246v-36l-41 -5
q-18 -2 -28.5 -6t-15.5 -19t-6.5 -45.5t-1.5 -86.5v-260q0 -83 -22 -142t-63 -97t-98.5 -56t-129.5 -18zM359 959q0 25 10 47t26.5 38.5t39 26t48.5 9.5q27 0 50 -9.5t40 -26t26.5 -38.5t9.5 -47t-9.5 -46.5t-26.5 -37.5t-40 -25.5t-50 -9.5q-26 0 -48.5 9.5t-39 25.5
t-26.5 37.5t-10 46.5zM550 959q0 32 -17.5 50t-49.5 18q-31 0 -48.5 -18t-17.5 -50q0 -31 17.5 -49.5t48.5 -18.5q32 0 49.5 18.5t17.5 49.5z" />
    <glyph glyph-name="Utilde" unicode="&#x168;" horiz-adv-x="871" 
d="M437 -13q-74 0 -133.5 17t-100.5 54.5t-63 97t-22 143.5v363q0 29 -9.5 40t-38.5 15l-38 5v36h315v-36l-38 -5q-29 -4 -38.5 -15t-9.5 -40v-364q0 -130 51 -189.5t155 -59.5q106 0 164.5 59t58.5 194v258q0 56 -1.5 86.5t-6.5 45.5t-16 19t-29 6l-40 5v36h246v-36l-41 -5
q-18 -2 -28.5 -6t-15.5 -19t-6.5 -45.5t-1.5 -86.5v-260q0 -83 -22 -142t-63 -97t-98.5 -56t-129.5 -18zM319 833q0 23 5.5 48t17.5 46t30 34.5t43 13.5q21 0 42 -10t40.5 -21.5t38 -21.5t35.5 -10q27 0 40 14t15 46h21q0 -41 -8 -67t-20.5 -42t-28 -22t-31.5 -6
q-25 0 -46 10t-40.5 21.5t-38 21.5t-38.5 10q-24 0 -39 -17t-17 -48h-21z" />
    <glyph glyph-name="uni1EE4" unicode="&#x1ee4;" horiz-adv-x="871" 
d="M437 -13q-74 0 -133.5 17t-100.5 54.5t-63 97t-22 143.5v363q0 29 -9.5 40t-38.5 15l-38 5v36h315v-36l-38 -5q-29 -4 -38.5 -15t-9.5 -40v-364q0 -130 51 -189.5t155 -59.5q106 0 164.5 59t58.5 194v258q0 56 -1.5 86.5t-6.5 45.5t-16 19t-29 6l-40 5v36h246v-36l-41 -5
q-18 -2 -28.5 -6t-15.5 -19t-6.5 -45.5t-1.5 -86.5v-260q0 -83 -22 -142t-63 -97t-98.5 -56t-129.5 -18zM440 -242q-29 0 -48 19t-19 48q0 30 19 49.5t48 19.5q28 0 47.5 -19.5t19.5 -49.5q0 -29 -19.5 -48t-47.5 -19z" />
    <glyph glyph-name="Wacute" unicode="&#x1e82;" horiz-adv-x="1197" 
d="M80 656q-12 29 -23.5 43t-40.5 18l-37 5v36h326v-36l-38 -5q-29 -4 -39 -15.5t2 -39.5l207 -497l139 338l-97 255h296v-36l-67 -5q-29 -2 -38.5 -14.5t0.5 -40.5l177 -493l176 428q15 37 20 59.5t2 35.5t-13 18t-25 7l-37 5v36h241v-36l-37 -5q-15 -2 -24.5 -7.5
t-18 -17.5t-17.5 -32.5t-22 -52.5l-261 -635h-52l-171 448l-184 -448h-52zM846 969l-255 -126h-21l100 129h176v-3z" />
    <glyph glyph-name="Wcircumflex" unicode="&#x174;" horiz-adv-x="1197" 
d="M80 656q-12 29 -23.5 43t-40.5 18l-37 5v36h326v-36l-38 -5q-29 -4 -39 -15.5t2 -39.5l207 -497l139 338l-97 255h296v-36l-67 -5q-29 -2 -38.5 -14.5t0.5 -40.5l177 -493l176 428q15 37 20 59.5t2 35.5t-13 18t-25 7l-37 5v36h241v-36l-37 -5q-15 -2 -24.5 -7.5
t-18 -17.5t-17.5 -32.5t-22 -52.5l-261 -635h-52l-171 448l-184 -448h-52zM603 988l165 -155h-23l-150 66l-150 -66h-23l165 155h16z" />
    <glyph glyph-name="Wdieresis" unicode="&#x1e84;" horiz-adv-x="1197" 
d="M80 656q-12 29 -23.5 43t-40.5 18l-37 5v36h326v-36l-38 -5q-29 -4 -39 -15.5t2 -39.5l207 -497l139 338l-97 255h296v-36l-67 -5q-29 -2 -38.5 -14.5t0.5 -40.5l177 -493l176 428q15 37 20 59.5t2 35.5t-13 18t-25 7l-37 5v36h241v-36l-37 -5q-15 -2 -24.5 -7.5
t-18 -17.5t-17.5 -32.5t-22 -52.5l-261 -635h-52l-171 448l-184 -448h-52zM713 840q-29 0 -48 19t-19 48q0 30 19 49.5t48 19.5q28 0 47.5 -19.5t19.5 -49.5q0 -29 -19.5 -48t-47.5 -19zM477 840q-29 0 -48 19t-19 48q0 30 19 49.5t48 19.5q28 0 47.5 -19.5t19.5 -49.5
q0 -29 -19.5 -48t-47.5 -19z" />
    <glyph glyph-name="Wgrave" unicode="&#x1e80;" horiz-adv-x="1197" 
d="M80 656q-12 29 -23.5 43t-40.5 18l-37 5v36h326v-36l-38 -5q-29 -4 -39 -15.5t2 -39.5l207 -497l139 338l-97 255h296v-36l-67 -5q-29 -2 -38.5 -14.5t0.5 -40.5l177 -493l176 428q15 37 20 59.5t2 35.5t-13 18t-25 7l-37 5v36h241v-36l-37 -5q-15 -2 -24.5 -7.5
t-18 -17.5t-17.5 -32.5t-22 -52.5l-261 -635h-52l-171 448l-184 -448h-52zM359 972h176l100 -129h-21l-255 126v3z" />
    <glyph glyph-name="Ycircumflex" unicode="&#x176;" horiz-adv-x="790" 
d="M207 38l68 5q29 2 38.5 13t9.5 40v243l-223 317q-9 13 -15.5 23.5t-14 18t-17 12.5t-24.5 7l-37 5v36h332v-36l-37 -5q-29 -4 -38 -17t8 -38l182 -261l143 196q23 32 34.5 54t12.5 36t-6.5 21t-22.5 9l-37 5v36h241v-36l-35 -5q-15 -2 -25.5 -8t-21.5 -18.5t-26 -32.5
t-37 -51l-193 -267v-244q0 -29 10 -40t39 -13l67 -5v-38h-375v38zM447 988l165 -155h-23l-150 66l-150 -66h-23l165 155h16z" />
    <glyph glyph-name="Ydieresis" unicode="&#x178;" horiz-adv-x="790" 
d="M207 38l68 5q29 2 38.5 13t9.5 40v243l-223 317q-9 13 -15.5 23.5t-14 18t-17 12.5t-24.5 7l-37 5v36h332v-36l-37 -5q-29 -4 -38 -17t8 -38l182 -261l143 196q23 32 34.5 54t12.5 36t-6.5 21t-22.5 9l-37 5v36h241v-36l-35 -5q-15 -2 -25.5 -8t-21.5 -18.5t-26 -32.5
t-37 -51l-193 -267v-244q0 -29 10 -40t39 -13l67 -5v-38h-375v38zM557 840q-29 0 -48 19t-19 48q0 30 19 49.5t48 19.5q28 0 47.5 -19.5t19.5 -49.5q0 -29 -19.5 -48t-47.5 -19zM321 840q-29 0 -48 19t-19 48q0 30 19 49.5t48 19.5q28 0 47.5 -19.5t19.5 -49.5
q0 -29 -19.5 -48t-47.5 -19z" />
    <glyph glyph-name="Ygrave" unicode="&#x1ef2;" horiz-adv-x="790" 
d="M207 38l68 5q29 2 38.5 13t9.5 40v243l-223 317q-9 13 -15.5 23.5t-14 18t-17 12.5t-24.5 7l-37 5v36h332v-36l-37 -5q-29 -4 -38 -17t8 -38l182 -261l143 196q23 32 34.5 54t12.5 36t-6.5 21t-22.5 9l-37 5v36h241v-36l-35 -5q-15 -2 -25.5 -8t-21.5 -18.5t-26 -32.5
t-37 -51l-193 -267v-244q0 -29 10 -40t39 -13l67 -5v-38h-375v38zM203 972h176l100 -129h-21l-255 126v3z" />
    <glyph glyph-name="uni0232" unicode="&#x232;" horiz-adv-x="790" 
d="M207 38l68 5q29 2 38.5 13t9.5 40v243l-223 317q-9 13 -15.5 23.5t-14 18t-17 12.5t-24.5 7l-37 5v36h332v-36l-37 -5q-29 -4 -38 -17t8 -38l182 -261l143 196q23 32 34.5 54t12.5 36t-6.5 21t-22.5 9l-37 5v36h241v-36l-35 -5q-15 -2 -25.5 -8t-21.5 -18.5t-26 -32.5
t-37 -51l-193 -267v-244q0 -29 10 -40t39 -13l67 -5v-38h-375v38zM285 940h308v-67h-308v67z" />
    <glyph glyph-name="Zacute" unicode="&#x179;" horiz-adv-x="760" 
d="M535 708h-153q-66 0 -106 -3t-65.5 -13t-41 -27.5t-33.5 -46.5l-42 -69h-36l63 211l267 -2h345l-533 -708h207q66 0 106.5 3t65.5 13t40.5 27.5t33.5 46.5l42 69h36l-55 -209h-674zM662 969l-255 -126h-21l100 129h176v-3z" />
    <glyph glyph-name="Zcaron" unicode="&#x17d;" horiz-adv-x="760" 
d="M535 708h-153q-66 0 -106 -3t-65.5 -13t-41 -27.5t-33.5 -46.5l-42 -69h-36l63 211l267 -2h345l-533 -708h207q66 0 106.5 3t65.5 13t40.5 27.5t33.5 46.5l42 69h36l-55 -209h-674zM238 988h23l150 -66l150 66h23l-165 -155h-16z" />
    <glyph glyph-name="Zdotaccent" unicode="&#x17b;" horiz-adv-x="760" 
d="M535 708h-153q-66 0 -106 -3t-65.5 -13t-41 -27.5t-33.5 -46.5l-42 -69h-36l63 211l267 -2h345l-533 -708h207q66 0 106.5 3t65.5 13t40.5 27.5t33.5 46.5l42 69h36l-55 -209h-674zM411 840q-29 0 -48 19t-19 48q0 30 19 49.5t48 19.5q28 0 47.5 -19.5t19.5 -49.5
q0 -29 -19.5 -48t-47.5 -19z" />
    <glyph glyph-name="uni018F" unicode="&#x18f;" horiz-adv-x="832" 
d="M405 -12q-77 0 -140.5 23t-111 65.5t-76.5 102.5t-36 135h609q1 10 1 19.5v20.5q0 78 -20.5 139t-57 103.5t-87 64.5t-110.5 22q-48 0 -94 -14t-83.5 -43t-63.5 -75t-35 -110h-53q5 85 36.5 148.5t81.5 106.5t115 64.5t137 21.5q84 0 152.5 -28t116.5 -79.5t74.5 -125
t26.5 -164.5q0 -85 -31.5 -157.5t-84.5 -126t-122 -83.5t-144 -30zM412 41q41 0 79 13t69.5 40t53.5 67.5t30 94.5h-437q12 -103 66 -159t139 -56z" />
    <glyph glyph-name="abreve" unicode="&#x103;" horiz-adv-x="571" 
d="M582 75q-21 -48 -56 -68t-76 -20q-20 0 -38.5 6t-32.5 19t-22.5 32t-8.5 46v11q-15 -56 -54.5 -85t-99.5 -29q-35 0 -64 10t-51 28.5t-34 44t-12 56.5q0 44 27 75t71 51t99.5 31.5t113.5 16.5v52q0 73 -24 100.5t-75 27.5q-12 0 -25 -1.5t-23 -4.5t-16.5 -7t-6.5 -10
q0 -12 5.5 -24.5t5.5 -33.5q0 -26 -15 -46t-50 -20q-29 0 -45 19t-16 45q0 27 18.5 49.5t48.5 39t68.5 25.5t78.5 9q47 0 84.5 -7.5t64 -28.5t40 -58t12.5 -95l-4 -202q-1 -41 7.5 -59.5t29.5 -18.5q16 0 29 9t26 29zM179 141q0 -38 19 -65t55 -27q15 0 30.5 6t29 20
t22 36.5t8.5 56.5l1 106q-89 -14 -127 -47.5t-38 -85.5zM265 628q-21 0 -47.5 6t-50.5 23.5t-42 49t-23 81.5h57q7 -54 36 -81t70 -27t70 27t36 81h57q-5 -50 -23 -81.5t-42 -49t-50.5 -23.5t-47.5 -6z" />
    <glyph glyph-name="amacron" unicode="&#x101;" horiz-adv-x="571" 
d="M582 75q-21 -48 -56 -68t-76 -20q-20 0 -38.5 6t-32.5 19t-22.5 32t-8.5 46v11q-15 -56 -54.5 -85t-99.5 -29q-35 0 -64 10t-51 28.5t-34 44t-12 56.5q0 44 27 75t71 51t99.5 31.5t113.5 16.5v52q0 73 -24 100.5t-75 27.5q-12 0 -25 -1.5t-23 -4.5t-16.5 -7t-6.5 -10
q0 -12 5.5 -24.5t5.5 -33.5q0 -26 -15 -46t-50 -20q-29 0 -45 19t-16 45q0 27 18.5 49.5t48.5 39t68.5 25.5t78.5 9q47 0 84.5 -7.5t64 -28.5t40 -58t12.5 -95l-4 -202q-1 -41 7.5 -59.5t29.5 -18.5q16 0 29 9t26 29zM179 141q0 -38 19 -65t55 -27q15 0 30.5 6t29 20
t22 36.5t8.5 56.5l1 106q-89 -14 -127 -47.5t-38 -85.5zM111 736h308v-67h-308v67z" />
    <glyph glyph-name="aogonek" unicode="&#x105;" horiz-adv-x="571" 
d="M582 75q-15 -34 -37 -53.5t-48 -27.5q-24 -24 -42.5 -55.5t-18.5 -63.5q0 -21 10 -34t27 -19t39 -5.5t46 6.5v-30q-17 -8 -45 -17.5t-57 -9.5q-21 0 -40.5 5.5t-34.5 16.5t-24 26.5t-9 36.5q0 17 9 35t23.5 35.5t33 34t36.5 31.5q-20 0 -38.5 6t-32.5 19t-22.5 32
t-8.5 46v11q-15 -56 -54.5 -85t-99.5 -29q-35 0 -64 10t-51 28.5t-34 44t-12 56.5q0 44 27 75t71 51t99.5 31.5t113.5 16.5v52q0 73 -24 100.5t-75 27.5q-12 0 -25 -1.5t-23 -4.5t-16.5 -7t-6.5 -10q0 -12 5.5 -24.5t5.5 -33.5q0 -26 -15 -46t-50 -20q-29 0 -45 19t-16 45
q0 27 18.5 49.5t48.5 39t68.5 25.5t78.5 9q47 0 84.5 -7.5t64 -28.5t40 -58t12.5 -95l-4 -202q-1 -41 7.5 -59.5t29.5 -18.5q16 0 29 9t26 29zM179 141q0 -38 19 -65t55 -27q15 0 30.5 6t29 20t22 36.5t8.5 56.5l1 106q-89 -14 -127 -47.5t-38 -85.5z" />
    <glyph glyph-name="cacute" unicode="&#x107;" horiz-adv-x="564" 
d="M298 -13q-61 0 -109.5 20t-82 55.5t-51.5 84.5t-18 107q0 60 22 109t58.5 83.5t85 53.5t102.5 19q43 0 80 -10t64 -26.5t42 -38t15 -45.5q0 -28 -17.5 -45t-43.5 -17q-32 0 -48 17.5t-24 46.5q-5 16 -10.5 30t-15 24.5t-24 16.5t-35.5 6q-51 0 -83.5 -45t-32.5 -134
q0 -53 12.5 -95t35.5 -71t55.5 -45t72.5 -16q24 0 47 5.5t43.5 19.5t36.5 38t26 61h41q-18 -107 -81 -158t-163 -51zM372 788h140v-9l-231 -170h-17z" />
    <glyph glyph-name="ccaron" unicode="&#x10d;" horiz-adv-x="564" 
d="M298 -13q-61 0 -109.5 20t-82 55.5t-51.5 84.5t-18 107q0 60 22 109t58.5 83.5t85 53.5t102.5 19q43 0 80 -10t64 -26.5t42 -38t15 -45.5q0 -28 -17.5 -45t-43.5 -17q-32 0 -48 17.5t-24 46.5q-5 16 -10.5 30t-15 24.5t-24 16.5t-35.5 6q-51 0 -83.5 -45t-32.5 -134
q0 -53 12.5 -95t35.5 -71t55.5 -45t72.5 -16q24 0 47 5.5t43.5 19.5t36.5 38t26 61h41q-18 -107 -81 -158t-163 -51zM294 609l-162 195h19l149 -87l149 87h19l-162 -195h-12z" />
    <glyph glyph-name="ccircumflex" unicode="&#x109;" horiz-adv-x="564" 
d="M298 -13q-61 0 -109.5 20t-82 55.5t-51.5 84.5t-18 107q0 60 22 109t58.5 83.5t85 53.5t102.5 19q43 0 80 -10t64 -26.5t42 -38t15 -45.5q0 -28 -17.5 -45t-43.5 -17q-32 0 -48 17.5t-24 46.5q-5 16 -10.5 30t-15 24.5t-24 16.5t-35.5 6q-51 0 -83.5 -45t-32.5 -134
q0 -53 12.5 -95t35.5 -71t55.5 -45t72.5 -16q24 0 47 5.5t43.5 19.5t36.5 38t26 61h41q-18 -107 -81 -158t-163 -51zM468 609h-19l-149 87l-149 -87h-19l162 196h12z" />
    <glyph glyph-name="cdotaccent" unicode="&#x10b;" horiz-adv-x="564" 
d="M298 -13q-61 0 -109.5 20t-82 55.5t-51.5 84.5t-18 107q0 60 22 109t58.5 83.5t85 53.5t102.5 19q43 0 80 -10t64 -26.5t42 -38t15 -45.5q0 -28 -17.5 -45t-43.5 -17q-32 0 -48 17.5t-24 46.5q-5 16 -10.5 30t-15 24.5t-24 16.5t-35.5 6q-51 0 -83.5 -45t-32.5 -134
q0 -53 12.5 -95t35.5 -71t55.5 -45t72.5 -16q24 0 47 5.5t43.5 19.5t36.5 38t26 61h41q-18 -107 -81 -158t-163 -51zM300 639q-28 0 -46.5 19t-18.5 47q0 29 18.5 47.5t46.5 18.5q27 0 46 -18.5t19 -47.5q0 -28 -19 -47t-46 -19z" />
    <glyph glyph-name="dcaron" unicode="&#x10f;" horiz-adv-x="654" 
d="M255 -13q-44 0 -83 17.5t-69 51t-47.5 83t-17.5 113.5q0 60 18.5 109t50.5 84t75.5 54.5t94.5 19.5q37 0 67.5 -14.5t50.5 -35.5v228q0 14 -7.5 24t-33.5 13l-49 6v32l220 22v-708q0 -14 7.5 -22.5t33.5 -14.5l27 -6v-33l-198 -19v61q-10 -12 -24.5 -23.5t-32.5 -20.5
t-39 -15t-44 -6zM323 54q43 0 72 24v366q-16 11 -33 16t-37 5q-61 0 -101.5 -54t-40.5 -153q0 -47 10.5 -84.5t29.5 -64t44.5 -41t55.5 -14.5zM648 809q22 0 41.5 -8.5t33.5 -23.5t22.5 -35.5t8.5 -43.5q0 -29 -13 -55t-35 -48.5t-51 -41t-61 -32.5l-13 25q42 21 66 47.5
t24 60.5q0 38 -24.5 56.5t-66.5 25.5q-1 34 17.5 53.5t50.5 19.5z" />
    <glyph glyph-name="dcroat" unicode="&#x111;" horiz-adv-x="616" 
d="M255 -13q-44 0 -83 17.5t-69 51t-47.5 83t-17.5 113.5q0 60 18.5 109t50.5 84t75.5 54.5t94.5 19.5q37 0 67.5 -14.5t50.5 -35.5v228q0 14 -7.5 24t-33.5 13l-49 6v32l220 22v-708q0 -14 7.5 -22.5t33.5 -14.5l27 -6v-33l-198 -19v61q-10 -12 -24.5 -23.5t-32.5 -20.5
t-39 -15t-44 -6zM323 54q43 0 72 24v366q-16 11 -33 16t-37 5q-61 0 -101.5 -54t-40.5 -153q0 -47 10.5 -84.5t29.5 -64t44.5 -41t55.5 -14.5zM283 630h309v-49h-309v49z" />
    <glyph glyph-name="ebreve" unicode="&#x115;" horiz-adv-x="582" 
d="M299 -13q-61 0 -109.5 20t-82.5 55.5t-52 84.5t-18 107q0 60 21.5 109t57.5 83.5t82 53.5t95 19q48 0 89.5 -13.5t74 -41t54.5 -68.5t31 -95h-370q2 -109 49.5 -169t126.5 -60q25 0 49 5.5t45.5 19.5t38 38t26.5 61h41q-17 -105 -83 -157t-166 -52zM290 479
q-45 0 -76 -32t-39 -98h222q0 36 -9 61t-24 40.5t-34 22t-40 6.5zM301 628q-21 0 -47.5 6t-50.5 23.5t-42 49t-23 81.5h57q7 -54 36 -81t70 -27t70 27t36 81h57q-5 -50 -23 -81.5t-42 -49t-50.5 -23.5t-47.5 -6z" />
    <glyph glyph-name="ecaron" unicode="&#x11b;" horiz-adv-x="582" 
d="M299 -13q-61 0 -109.5 20t-82.5 55.5t-52 84.5t-18 107q0 60 21.5 109t57.5 83.5t82 53.5t95 19q48 0 89.5 -13.5t74 -41t54.5 -68.5t31 -95h-370q2 -109 49.5 -169t126.5 -60q25 0 49 5.5t45.5 19.5t38 38t26.5 61h41q-17 -105 -83 -157t-166 -52zM290 479
q-45 0 -76 -32t-39 -98h222q0 36 -9 61t-24 40.5t-34 22t-40 6.5zM295 609l-162 195h19l149 -87l149 87h19l-162 -195h-12z" />
    <glyph glyph-name="emacron" unicode="&#x113;" horiz-adv-x="582" 
d="M299 -13q-61 0 -109.5 20t-82.5 55.5t-52 84.5t-18 107q0 60 21.5 109t57.5 83.5t82 53.5t95 19q48 0 89.5 -13.5t74 -41t54.5 -68.5t31 -95h-370q2 -109 49.5 -169t126.5 -60q25 0 49 5.5t45.5 19.5t38 38t26.5 61h41q-17 -105 -83 -157t-166 -52zM290 479
q-45 0 -76 -32t-39 -98h222q0 36 -9 61t-24 40.5t-34 22t-40 6.5zM147 736h308v-67h-308v67z" />
    <glyph glyph-name="eogonek" unicode="&#x119;" horiz-adv-x="582" 
d="M418 -207q-17 -8 -45 -17.5t-57 -9.5q-21 0 -40.5 5.5t-34 16.5t-23.5 26.5t-9 36.5q0 37 35 72t88 66q-4 -1 -17 -1.5t-16 -0.5q-61 0 -109.5 20t-82.5 55.5t-52 84.5t-18 107q0 60 21.5 109t57.5 83.5t82 53.5t95 19q48 0 89.5 -13.5t74 -41t54.5 -68.5t31 -95h-370
q2 -109 49.5 -169t126.5 -60q25 0 49 5.5t45.5 19.5t38 38t26.5 61h41q-7 -44 -22.5 -76t-35.5 -54.5t-42.5 -38t-44.5 -27.5q-49 -27 -78 -58t-29 -67q0 -21 10 -34t27 -19t39 -5.5t46 6.5v-30zM290 479q-45 0 -76 -32t-39 -98h222q0 36 -9 61t-24 40.5t-34 22t-40 6.5z
" />
    <glyph glyph-name="edotaccent" unicode="&#x117;" horiz-adv-x="582" 
d="M299 -13q-61 0 -109.5 20t-82.5 55.5t-52 84.5t-18 107q0 60 21.5 109t57.5 83.5t82 53.5t95 19q48 0 89.5 -13.5t74 -41t54.5 -68.5t31 -95h-370q2 -109 49.5 -169t126.5 -60q25 0 49 5.5t45.5 19.5t38 38t26.5 61h41q-17 -105 -83 -157t-166 -52zM290 479
q-45 0 -76 -32t-39 -98h222q0 36 -9 61t-24 40.5t-34 22t-40 6.5zM301 639q-28 0 -46.5 19t-18.5 47q0 29 18.5 47.5t46.5 18.5q27 0 46 -18.5t19 -47.5q0 -28 -19 -47t-46 -19z" />
    <glyph glyph-name="gbreve" unicode="&#x11f;" horiz-adv-x="602" 
d="M278 155q-39 0 -73 9q-38 -8 -57 -22.5t-19 -32.5q0 -21 17.5 -32.5t55.5 -9.5l145 5q124 5 184 -28t60 -111q0 -48 -27 -84.5t-70.5 -61.5t-99 -38t-112.5 -13q-52 0 -97.5 8t-79.5 24t-53.5 39.5t-19.5 53.5q0 34 31.5 59t82.5 36q-54 8 -85.5 37t-31.5 68
q0 40 41 70.5t105 42.5q-51 20 -83 61.5t-32 101.5q0 44 17.5 78t47.5 57t69.5 35t83.5 12q45 0 85 -12.5t70 -36.5l173 91v-86q0 -14 -8 -17.5t-29 -3.5l-120 2q23 -23 35.5 -52.5t12.5 -66.5q0 -44 -18 -78t-48 -57t-70 -35t-83 -12zM129 -121q0 -50 44 -75.5t119 -25.5
q33 0 66.5 7t60 20.5t43 34.5t16.5 49q0 22 -10 35.5t-28.5 20t-44 8.5t-55.5 2l-153 -2h-15q-26 -16 -34.5 -35t-8.5 -39zM278 193q45 0 66.5 38t21.5 106t-21.5 106t-66.5 38t-65.5 -38t-20.5 -106t20.5 -106t65.5 -38zM303 628q-21 0 -47.5 6t-50.5 23.5t-42 49t-23 81.5
h57q7 -54 36 -81t70 -27t70 27t36 81h57q-5 -50 -23 -81.5t-42 -49t-50.5 -23.5t-47.5 -6z" />
    <glyph glyph-name="gcircumflex" unicode="&#x11d;" horiz-adv-x="602" 
d="M278 155q-39 0 -73 9q-38 -8 -57 -22.5t-19 -32.5q0 -21 17.5 -32.5t55.5 -9.5l145 5q124 5 184 -28t60 -111q0 -48 -27 -84.5t-70.5 -61.5t-99 -38t-112.5 -13q-52 0 -97.5 8t-79.5 24t-53.5 39.5t-19.5 53.5q0 34 31.5 59t82.5 36q-54 8 -85.5 37t-31.5 68
q0 40 41 70.5t105 42.5q-51 20 -83 61.5t-32 101.5q0 44 17.5 78t47.5 57t69.5 35t83.5 12q45 0 85 -12.5t70 -36.5l173 91v-86q0 -14 -8 -17.5t-29 -3.5l-120 2q23 -23 35.5 -52.5t12.5 -66.5q0 -44 -18 -78t-48 -57t-70 -35t-83 -12zM129 -121q0 -50 44 -75.5t119 -25.5
q33 0 66.5 7t60 20.5t43 34.5t16.5 49q0 22 -10 35.5t-28.5 20t-44 8.5t-55.5 2l-153 -2h-15q-26 -16 -34.5 -35t-8.5 -39zM278 193q45 0 66.5 38t21.5 106t-21.5 106t-66.5 38t-65.5 -38t-20.5 -106t20.5 -106t65.5 -38zM471 609h-19l-149 87l-149 -87h-19l162 196h12z" />
    <glyph glyph-name="uni0123" unicode="&#x123;" horiz-adv-x="602" 
d="M278 155q-39 0 -73 9q-38 -8 -57 -22.5t-19 -32.5q0 -21 17.5 -32.5t55.5 -9.5l145 5q124 5 184 -28t60 -111q0 -48 -27 -84.5t-70.5 -61.5t-99 -38t-112.5 -13q-52 0 -97.5 8t-79.5 24t-53.5 39.5t-19.5 53.5q0 34 31.5 59t82.5 36q-54 8 -85.5 37t-31.5 68
q0 40 41 70.5t105 42.5q-51 20 -83 61.5t-32 101.5q0 44 17.5 78t47.5 57t69.5 35t83.5 12q45 0 85 -12.5t70 -36.5l173 91v-86q0 -14 -8 -17.5t-29 -3.5l-120 2q23 -23 35.5 -52.5t12.5 -66.5q0 -44 -18 -78t-48 -57t-70 -35t-83 -12zM129 -121q0 -50 44 -75.5t119 -25.5
q33 0 66.5 7t60 20.5t43 34.5t16.5 49q0 22 -10 35.5t-28.5 20t-44 8.5t-55.5 2l-153 -2h-15q-26 -16 -34.5 -35t-8.5 -39zM278 193q45 0 66.5 38t21.5 106t-21.5 106t-66.5 38t-65.5 -38t-20.5 -106t20.5 -106t65.5 -38zM319.98 594.964q-44.9971 0 -75.4951 31.498
t-30.498 79.4951q0 28.998 12.999 54.9961q12.999 25.999 34.998 48.4971q21.998 22.499 50.9961 40.998q28.999 18.499 60.9971 32.498l12.999 -25.999q-41.998 -20.998 -65.9961 -46.9971q-23.999 -25.998 -23.999 -60.9961q0 -36.9971 24.499 -55.9961
q24.498 -18.999 66.4961 -25.999q1 -32.998 -17.499 -52.4961q-18.499 -19.499 -50.4971 -19.499z" />
    <glyph glyph-name="gdotaccent" unicode="&#x121;" horiz-adv-x="602" 
d="M278 155q-39 0 -73 9q-38 -8 -57 -22.5t-19 -32.5q0 -21 17.5 -32.5t55.5 -9.5l145 5q124 5 184 -28t60 -111q0 -48 -27 -84.5t-70.5 -61.5t-99 -38t-112.5 -13q-52 0 -97.5 8t-79.5 24t-53.5 39.5t-19.5 53.5q0 34 31.5 59t82.5 36q-54 8 -85.5 37t-31.5 68
q0 40 41 70.5t105 42.5q-51 20 -83 61.5t-32 101.5q0 44 17.5 78t47.5 57t69.5 35t83.5 12q45 0 85 -12.5t70 -36.5l173 91v-86q0 -14 -8 -17.5t-29 -3.5l-120 2q23 -23 35.5 -52.5t12.5 -66.5q0 -44 -18 -78t-48 -57t-70 -35t-83 -12zM129 -121q0 -50 44 -75.5t119 -25.5
q33 0 66.5 7t60 20.5t43 34.5t16.5 49q0 22 -10 35.5t-28.5 20t-44 8.5t-55.5 2l-153 -2h-15q-26 -16 -34.5 -35t-8.5 -39zM278 193q45 0 66.5 38t21.5 106t-21.5 106t-66.5 38t-65.5 -38t-20.5 -106t20.5 -106t65.5 -38zM303 639q-28 0 -46.5 19t-18.5 47q0 29 18.5 47.5
t46.5 18.5q27 0 46 -18.5t19 -47.5q0 -28 -19 -47t-46 -19z" />
    <glyph glyph-name="hbar" unicode="&#x127;" horiz-adv-x="631" 
d="M24 33l27 5q26 5 33.5 14t7.5 24v621q0 14 -7.5 22.5t-33.5 14.5l-27 6v32l198 22v-405q20 63 60.5 96.5t103.5 33.5q33 0 61 -9.5t48.5 -32t32.5 -59t12 -90.5v-252q0 -15 7.5 -24t33.5 -14l27 -5v-33h-266v33l27 5q26 5 33.5 14t7.5 24v227q0 41 -7 67.5t-19 42
t-28 21.5t-35 6q-18 0 -35.5 -6.5t-32 -23t-23 -43.5t-8.5 -68v-223q0 -15 7.5 -24t33.5 -14l27 -5v-33h-266v33zM24 630h309v-49h-309v49z" />
    <glyph glyph-name="hcircumflex" unicode="&#x125;" horiz-adv-x="631" 
d="M24 33l27 5q26 5 33.5 14t7.5 24v621q0 14 -7.5 22.5t-33.5 14.5l-27 6v32l198 22v-405q20 63 60.5 96.5t103.5 33.5q33 0 61 -9.5t48.5 -32t32.5 -59t12 -90.5v-252q0 -15 7.5 -24t33.5 -14l27 -5v-33h-266v33l27 5q26 5 33.5 14t7.5 24v227q0 41 -7 67.5t-19 42
t-28 21.5t-35 6q-18 0 -35.5 -6.5t-32 -23t-23 -43.5t-8.5 -68v-223q0 -15 7.5 -24t33.5 -14l27 -5v-33h-266v33zM160 1030l165 -155h-23l-150 66l-150 -66h-23l165 155h16z" />
    <glyph glyph-name="dotlessi" unicode="&#x131;" horiz-adv-x="331" 
d="M235 76q0 -15 7.5 -24t33.5 -14l27 -5v-33h-266v33l27 5q26 5 33.5 14t7.5 24v342q0 14 -7.5 23.5t-33.5 14.5l-27 5v33l198 21v-439z" />
    <glyph glyph-name="ibreve" unicode="&#x12d;" horiz-adv-x="331" 
d="M235 76q0 -15 7.5 -24t33.5 -14l27 -5v-33h-266v33l27 5q26 5 33.5 14t7.5 24v342q0 14 -7.5 23.5t-33.5 14.5l-27 5v33l198 21v-439zM166 628q-21 0 -47.5 6t-50.5 23.5t-42 49t-23 81.5h57q7 -54 36 -81t70 -27t70 27t36 81h57q-5 -50 -23 -81.5t-42 -49t-50.5 -23.5
t-47.5 -6z" />
    <glyph glyph-name="imacron" unicode="&#x12b;" horiz-adv-x="331" 
d="M235 76q0 -15 7.5 -24t33.5 -14l27 -5v-33h-266v33l27 5q26 5 33.5 14t7.5 24v342q0 14 -7.5 23.5t-33.5 14.5l-27 5v33l198 21v-439zM12 736h308v-67h-308v67z" />
    <glyph glyph-name="iogonek" unicode="&#x12f;" horiz-adv-x="331" 
d="M162 629q-35 0 -60 25t-25 60t25 60t60 25t60 -25t25 -60t-25 -60t-60 -25zM235 76q0 -15 7.5 -24t33.5 -14l27 -5v-33h-266v33l27 5q26 5 33.5 14t7.5 24v342q0 14 -7.5 23.5t-33.5 14.5l-27 5v33l198 21v-439zM277 -207q-17 -8 -45 -17.5t-57 -9.5q-21 0 -40.5 5.5
t-34 16.5t-23.5 26.5t-9 36.5q0 19 11 39t28 39t37.5 37t40.5 34h40q-13 -12 -25.5 -27t-22.5 -31.5t-16 -33.5t-6 -33q0 -21 10 -34t27 -19t39 -5.5t46 6.5v-30z" />
    <glyph glyph-name="itilde" unicode="&#x129;" horiz-adv-x="331" 
d="M235 76q0 -15 7.5 -24t33.5 -14l27 -5v-33h-266v33l27 5q26 5 33.5 14t7.5 24v342q0 14 -7.5 23.5t-33.5 14.5l-27 5v33l198 21v-439zM2 649q0 23 5.5 48t17.5 46t30 34.5t43 13.5q21 0 42 -10.5t40.5 -22.5t38 -22.5t35.5 -10.5q28 0 40.5 15t14.5 48h21
q-1 -76 -26.5 -106.5t-61.5 -30.5q-25 0 -46 10t-40.5 22.5t-38 22.5t-38.5 10q-25 0 -39.5 -17.5t-16.5 -49.5h-21z" />
    <glyph glyph-name="uni1ECB" unicode="&#x1ecb;" horiz-adv-x="331" 
d="M162 629q-35 0 -60 25t-25 60t25 60t60 25t60 -25t25 -60t-25 -60t-60 -25zM235 76q0 -15 7.5 -24t33.5 -14l27 -5v-33h-266v33l27 5q26 5 33.5 14t7.5 24v342q0 14 -7.5 23.5t-33.5 14.5l-27 5v33l198 21v-439zM170 -234q-28 0 -46.5 19t-18.5 47q0 29 18.5 47.5
t46.5 18.5q27 0 46 -18.5t19 -47.5q0 -28 -19 -47t-46 -19z" />
    <glyph glyph-name="uni0237" unicode="&#x237;" horiz-adv-x="299" 
d="M221 44q0 -42 -6.5 -73t-19 -55.5t-32.5 -44.5t-47 -39q-24 -18 -63.5 -44t-80.5 -50l-22 31q35 30 61.5 54t44 52.5t26.5 66.5t9 96v380q0 14 -7.5 23.5t-33.5 14.5l-27 5v33l198 21v-471z" />
    <glyph glyph-name="jcircumflex" unicode="&#x135;" horiz-adv-x="299" 
d="M221 44q0 -42 -6.5 -73t-19 -55.5t-32.5 -44.5t-47 -39q-24 -18 -63.5 -44t-80.5 -50l-22 31q35 30 61.5 54t44 52.5t26.5 66.5t9 96v380q0 14 -7.5 23.5t-33.5 14.5l-27 5v33l198 21v-471zM317 609h-19l-149 87l-149 -87h-19l162 196h12z" />
    <glyph glyph-name="uni0137" unicode="&#x137;" horiz-adv-x="627" 
d="M222 252v-176q0 -15 7.5 -24t33.5 -14l27 -5v-33h-266v33l27 5q26 5 33.5 14t7.5 24v621q0 14 -7.5 22.5t-33.5 14.5l-27 6v32l198 22v-513l135 111q48 38 53 54t-26 19l-37 4v33h250v-33l-37 -5q-12 -2 -23 -5.5t-25.5 -11.5t-34.5 -22.5t-50 -37.5l-90 -70l220 -243
q15 -17 24.5 -24.5t26.5 -11.5l25 -5v-33h-185zM332 -88q45 0 75.5 -31.5t30.5 -79.5q0 -29 -13 -55t-35 -48.5t-51 -41t-61 -32.5l-13 26q42 21 66 47t24 61q0 37 -24.5 56t-66.5 26q-1 33 17.5 52.5t50.5 19.5z" />
    <glyph glyph-name="lacute" unicode="&#x13a;" horiz-adv-x="322" 
d="M28 33l27 5q26 5 33.5 14t7.5 24v621q0 14 -7.5 22.5t-33.5 14.5l-27 6v32l198 22v-718q0 -15 7.5 -24t33.5 -14l27 -5v-33h-266v33zM226 1044h140v-9l-231 -170h-17z" />
    <glyph glyph-name="lcaron" unicode="&#x13e;" horiz-adv-x="355" 
d="M28 33l27 5q26 5 33.5 14t7.5 24v621q0 14 -7.5 22.5t-33.5 14.5l-27 6v32l198 22v-718q0 -15 7.5 -24t33.5 -14l27 -5v-33h-266v33zM350 809q22 0 41.5 -8.5t33.5 -23.5t22.5 -35.5t8.5 -43.5q0 -29 -13 -55t-35 -48.5t-51 -41t-61 -32.5l-13 25q42 21 66 47.5t24 60.5
q0 38 -24.5 56.5t-66.5 25.5q-1 34 17.5 53.5t50.5 19.5z" />
    <glyph glyph-name="uni013C" unicode="&#x13c;" horiz-adv-x="322" 
d="M28 33l27 5q26 5 33.5 14t7.5 24v621q0 14 -7.5 22.5t-33.5 14.5l-27 6v32l198 22v-718q0 -15 7.5 -24t33.5 -14l27 -5v-33h-266v33zM143 -88q45 0 75.5 -31.5t30.5 -79.5q0 -29 -13 -55t-35 -48.5t-51 -41t-61 -32.5l-13 26q42 21 66 47t24 61q0 37 -24.5 56t-66.5 26
q-1 33 17.5 52.5t50.5 19.5z" />
    <glyph glyph-name="ldot" unicode="&#x140;" horiz-adv-x="437" 
d="M28 33l27 5q26 5 33.5 14t7.5 24v621q0 14 -7.5 22.5t-33.5 14.5l-27 6v32l198 22v-718q0 -15 7.5 -24t33.5 -14l27 -5v-33h-266v33zM379 362q-28 0 -46.5 19t-18.5 47q0 29 18.5 47.5t46.5 18.5q27 0 46 -18.5t19 -47.5q0 -28 -19 -47t-46 -19z" />
    <glyph glyph-name="glyph298" horiz-adv-x="437" 
d="M28 33l27 5q26 5 33.5 14t7.5 24v621q0 14 -7.5 22.5t-33.5 14.5l-27 6v32l198 22v-718q0 -15 7.5 -24t33.5 -14l27 -5v-33h-266v33zM379 362q-28 0 -46.5 19t-18.5 47q0 29 18.5 47.5t46.5 18.5q27 0 46 -18.5t19 -47.5q0 -28 -19 -47t-46 -19z" />
    <glyph glyph-name="lslash" unicode="&#x142;" horiz-adv-x="369" 
d="M52 33l27 5q26 5 33.5 14t7.5 24v621q0 14 -7.5 22.5t-33.5 14.5l-27 6v32l198 22v-718q0 -15 7.5 -24t33.5 -14l27 -5v-33h-266v33zM11 350l348 182v-57l-348 -182v57z" />
    <glyph glyph-name="eng" unicode="&#x14b;" horiz-adv-x="620" 
d="M395 519q33 0 61 -9.5t48.5 -32t32.5 -59t12 -90.5v-284q0 -42 -6.5 -73t-19.5 -55.5t-32.5 -44.5t-46.5 -39q-25 -18 -64 -44t-80 -50l-23 31q35 30 61.5 54t44.5 52.5t27 66.5t9 96v265q0 41 -6.5 67.5t-18.5 42t-28 21.5t-35 6q-18 0 -36 -6.5t-32.5 -23t-23 -43.5
t-8.5 -68v-223q0 -15 7.5 -24t33.5 -14l27 -5v-33h-266v33l27 5q26 5 33.5 14t7.5 24v342q0 14 -7.5 23.5t-33.5 14.5l-27 5v33l198 21v-126q20 63 60.5 96.5t103.5 33.5z" />
    <glyph glyph-name="nacute" unicode="&#x144;" horiz-adv-x="640" 
d="M33 33l27 5q26 5 33.5 14t7.5 24v342q0 14 -7.5 23.5t-33.5 14.5l-27 5v33l198 21v-126q20 63 60.5 96.5t103.5 33.5q33 0 61 -9.5t48.5 -32t32.5 -59t12 -90.5v-252q0 -15 7.5 -24t33.5 -14l27 -5v-33h-266v33l27 5q26 5 33.5 14t7.5 24v227q0 41 -6.5 67.5t-18.5 42
t-28 21.5t-35 6q-18 0 -36 -6.5t-32.5 -23t-23 -43.5t-8.5 -68v-223q0 -15 7.5 -24t33.5 -14l27 -5v-33h-266v33zM397 788h140v-9l-231 -170h-17z" />
    <glyph glyph-name="ncaron" unicode="&#x148;" horiz-adv-x="640" 
d="M33 33l27 5q26 5 33.5 14t7.5 24v342q0 14 -7.5 23.5t-33.5 14.5l-27 5v33l198 21v-126q20 63 60.5 96.5t103.5 33.5q33 0 61 -9.5t48.5 -32t32.5 -59t12 -90.5v-252q0 -15 7.5 -24t33.5 -14l27 -5v-33h-266v33l27 5q26 5 33.5 14t7.5 24v227q0 41 -6.5 67.5t-18.5 42
t-28 21.5t-35 6q-18 0 -36 -6.5t-32.5 -23t-23 -43.5t-8.5 -68v-223q0 -15 7.5 -24t33.5 -14l27 -5v-33h-266v33zM318 609l-162 195h19l149 -87l149 87h19l-162 -195h-12z" />
    <glyph glyph-name="uni0146" unicode="&#x146;" horiz-adv-x="640" 
d="M33 33l27 5q26 5 33.5 14t7.5 24v342q0 14 -7.5 23.5t-33.5 14.5l-27 5v33l198 21v-126q20 63 60.5 96.5t103.5 33.5q33 0 61 -9.5t48.5 -32t32.5 -59t12 -90.5v-252q0 -15 7.5 -24t33.5 -14l27 -5v-33h-266v33l27 5q26 5 33.5 14t7.5 24v227q0 41 -6.5 67.5t-18.5 42
t-28 21.5t-35 6q-18 0 -36 -6.5t-32.5 -23t-23 -43.5t-8.5 -68v-223q0 -15 7.5 -24t33.5 -14l27 -5v-33h-266v33zM312 -88q45 0 75.5 -31.5t30.5 -79.5q0 -29 -13 -55t-35 -48.5t-51 -41t-61 -32.5l-13 26q42 21 66 47t24 61q0 37 -24.5 56t-66.5 26q-1 33 17.5 52.5
t50.5 19.5z" />
    <glyph glyph-name="oe" unicode="&#x153;" horiz-adv-x="975" 
d="M306 519q63 0 112 -21.5t83 -59.5q36 39 84.5 60t100.5 21q48 0 89.5 -13.5t74 -41t54.5 -68.5t31 -95h-370q2 -109 49.5 -169t126.5 -60q25 0 49 5.5t45.5 19.5t38 38t26.5 61h41q-17 -105 -83 -157t-166 -52q-63 0 -111.5 20.5t-82.5 57.5q-34 -37 -82.5 -57.5
t-109.5 -20.5q-60 0 -109.5 20t-85 55t-55 84t-19.5 107t19.5 107t55 84t85 55t109.5 20zM683 479q-45 0 -76 -32t-39 -98h222q0 36 -9 61t-24 40.5t-34 22t-40 6.5zM181 288q0 -45 7.5 -90.5t23.5 -81.5t41 -58.5t60 -22.5q24 0 45 9.5t37 31t25.5 56.5t9.5 86
q0 45 -7.5 90.5t-23 81.5t-40.5 58.5t-60 22.5q-24 0 -45.5 -9.5t-37.5 -31t-25.5 -56.5t-9.5 -86z" />
    <glyph glyph-name="obreve" unicode="&#x14f;" horiz-adv-x="611" 
d="M306 -13q-60 0 -109.5 20t-85 55t-55 84t-19.5 107t19.5 107t55 84t85 55t109.5 20t109.5 -20t85 -55t55 -84t19.5 -107t-19.5 -107t-55 -84t-85 -55t-109.5 -20zM313 35q24 0 45.5 9.5t38 31t26.5 56.5t10 86q0 45 -8 90.5t-24.5 81.5t-41.5 58.5t-60 22.5
q-24 0 -46 -9.5t-38.5 -31t-26.5 -56.5t-10 -86q0 -45 8 -90.5t24.5 -81.5t42 -58.5t60.5 -22.5zM309 628q-21 0 -47.5 6t-50.5 23.5t-42 49t-23 81.5h57q7 -54 36 -81t70 -27t70 27t36 81h57q-5 -50 -23 -81.5t-42 -49t-50.5 -23.5t-47.5 -6z" />
    <glyph glyph-name="ohungarumlaut" unicode="&#x151;" horiz-adv-x="611" 
d="M306 -13q-60 0 -109.5 20t-85 55t-55 84t-19.5 107t19.5 107t55 84t85 55t109.5 20t109.5 -20t85 -55t55 -84t19.5 -107t-19.5 -107t-55 -84t-85 -55t-109.5 -20zM313 35q24 0 45.5 9.5t38 31t26.5 56.5t10 86q0 45 -8 90.5t-24.5 81.5t-41.5 58.5t-60 22.5
q-24 0 -46 -9.5t-38.5 -31t-26.5 -56.5t-10 -86q0 -45 8 -90.5t24.5 -81.5t42 -58.5t60.5 -22.5zM499 788h140v-9l-231 -170h-17zM320 788h140v-9l-231 -170h-17z" />
    <glyph glyph-name="omacron" unicode="&#x14d;" horiz-adv-x="611" 
d="M306 -13q-60 0 -109.5 20t-85 55t-55 84t-19.5 107t19.5 107t55 84t85 55t109.5 20t109.5 -20t85 -55t55 -84t19.5 -107t-19.5 -107t-55 -84t-85 -55t-109.5 -20zM313 35q24 0 45.5 9.5t38 31t26.5 56.5t10 86q0 45 -8 90.5t-24.5 81.5t-41.5 58.5t-60 22.5
q-24 0 -46 -9.5t-38.5 -31t-26.5 -56.5t-10 -86q0 -45 8 -90.5t24.5 -81.5t42 -58.5t60.5 -22.5zM155 736h308v-67h-308v67z" />
    <glyph glyph-name="uni1ECD" unicode="&#x1ecd;" horiz-adv-x="611" 
d="M306 -13q-60 0 -109.5 20t-85 55t-55 84t-19.5 107t19.5 107t55 84t85 55t109.5 20t109.5 -20t85 -55t55 -84t19.5 -107t-19.5 -107t-55 -84t-85 -55t-109.5 -20zM313 35q24 0 45.5 9.5t38 31t26.5 56.5t10 86q0 45 -8 90.5t-24.5 81.5t-41.5 58.5t-60 22.5
q-24 0 -46 -9.5t-38.5 -31t-26.5 -56.5t-10 -86q0 -45 8 -90.5t24.5 -81.5t42 -58.5t60.5 -22.5zM316 -234q-28 0 -46.5 19t-18.5 47q0 29 18.5 47.5t46.5 18.5q27 0 46 -18.5t19 -47.5q0 -28 -19 -47t-46 -19z" />
    <glyph glyph-name="racute" unicode="&#x155;" horiz-adv-x="459" 
d="M33 33l27 5q26 5 33.5 14t7.5 24v342q0 14 -7.5 23.5t-33.5 14.5l-27 5v33l198 21v-123q13 36 31 60t37.5 38t38.5 20t35 6q32 0 55.5 -17.5t23.5 -52.5t-20.5 -53.5t-44.5 -18.5q-17 0 -29 6.5t-22.5 14.5t-21.5 14.5t-26 6.5q-20 0 -38.5 -20.5t-18.5 -60.5v-259
q0 -15 7.5 -24t33.5 -12l48 -5v-35h-287v33zM357 788h140v-9l-231 -170h-17z" />
    <glyph glyph-name="rcaron" unicode="&#x159;" horiz-adv-x="459" 
d="M33 33l27 5q26 5 33.5 14t7.5 24v342q0 14 -7.5 23.5t-33.5 14.5l-27 5v33l198 21v-123q13 36 31 60t37.5 38t38.5 20t35 6q32 0 55.5 -17.5t23.5 -52.5t-20.5 -53.5t-44.5 -18.5q-17 0 -29 6.5t-22.5 14.5t-21.5 14.5t-26 6.5q-20 0 -38.5 -20.5t-18.5 -60.5v-259
q0 -15 7.5 -24t33.5 -12l48 -5v-35h-287v33zM278 609l-162 195h19l149 -87l149 87h19l-162 -195h-12z" />
    <glyph glyph-name="uni0157" unicode="&#x157;" horiz-adv-x="459" 
d="M33 33l27 5q26 5 33.5 14t7.5 24v342q0 14 -7.5 23.5t-33.5 14.5l-27 5v33l198 21v-123q13 36 31 60t37.5 38t38.5 20t35 6q32 0 55.5 -17.5t23.5 -52.5t-20.5 -53.5t-44.5 -18.5q-17 0 -29 6.5t-22.5 14.5t-21.5 14.5t-26 6.5q-20 0 -38.5 -20.5t-18.5 -60.5v-259
q0 -15 7.5 -24t33.5 -12l48 -5v-35h-287v33zM159 -88q45 0 75.5 -31.5t30.5 -79.5q0 -29 -13 -55t-35 -48.5t-51 -41t-61 -32.5l-13 26q42 21 66 47t24 61q0 37 -24.5 56t-66.5 26q-1 33 17.5 52.5t50.5 19.5z" />
    <glyph glyph-name="sacute" unicode="&#x15b;" horiz-adv-x="474" 
d="M219 -13q-43 0 -85.5 7.5t-69.5 21.5l-18 165h40l20 -60q10 -31 24.5 -49.5t31 -28t33 -12t31.5 -2.5q40 0 65.5 20.5t25.5 55.5q0 28 -22 52.5t-67 38.5l-47 15q-56 18 -92.5 55.5t-36.5 99.5q0 37 17 65.5t45.5 48t65 29.5t76.5 10q38 0 70 -5.5t60 -14.5l24 -151h-42
l-18 49q-17 46 -45 63t-63 17q-33 0 -57 -17t-24 -51q0 -30 19 -50t51 -31l45 -14q83 -26 119.5 -64.5t36.5 -100.5q0 -38 -16.5 -68t-45 -51t-67.5 -32t-84 -11zM316 788h140v-9l-231 -170h-17z" />
    <glyph glyph-name="scaron" unicode="&#x161;" horiz-adv-x="474" 
d="M219 -13q-43 0 -85.5 7.5t-69.5 21.5l-18 165h40l20 -60q10 -31 24.5 -49.5t31 -28t33 -12t31.5 -2.5q40 0 65.5 20.5t25.5 55.5q0 28 -22 52.5t-67 38.5l-47 15q-56 18 -92.5 55.5t-36.5 99.5q0 37 17 65.5t45.5 48t65 29.5t76.5 10q38 0 70 -5.5t60 -14.5l24 -151h-42
l-18 49q-17 46 -45 63t-63 17q-33 0 -57 -17t-24 -51q0 -30 19 -50t51 -31l45 -14q83 -26 119.5 -64.5t36.5 -100.5q0 -38 -16.5 -68t-45 -51t-67.5 -32t-84 -11zM238 609l-162 195h19l149 -87l149 87h19l-162 -195h-12z" />
    <glyph glyph-name="scedilla" unicode="&#x15f;" horiz-adv-x="474" 
d="M219 -13q-43 0 -85.5 7.5t-69.5 21.5l-18 165h40l20 -60q10 -31 24.5 -49.5t31 -28t33 -12t31.5 -2.5q40 0 65.5 20.5t25.5 55.5q0 28 -22 52.5t-67 38.5l-47 15q-56 18 -92.5 55.5t-36.5 99.5q0 37 17 65.5t45.5 48t65 29.5t76.5 10q38 0 70 -5.5t60 -14.5l24 -151h-42
l-18 49q-17 46 -45 63t-63 17q-33 0 -57 -17t-24 -51q0 -30 19 -50t51 -31l45 -14q83 -26 119.5 -64.5t36.5 -100.5q0 -38 -16.5 -68t-45 -51t-67.5 -32t-84 -11zM182 -265q-15 0 -30.5 3t-28 9t-20.5 15.5t-8 22.5q0 16 13.5 28t39.5 7q0 -26 17.5 -40t40.5 -14
q18 0 29.5 8.5t11.5 21.5q0 20 -33.5 40t-83.5 42l119 127h42l-76 -81q44 -22 64 -42.5t20 -53.5q0 -17 -8 -33.5t-23 -30t-36.5 -21.5t-49.5 -8z" />
    <glyph glyph-name="scircumflex" unicode="&#x15d;" horiz-adv-x="474" 
d="M219 -13q-43 0 -85.5 7.5t-69.5 21.5l-18 165h40l20 -60q10 -31 24.5 -49.5t31 -28t33 -12t31.5 -2.5q40 0 65.5 20.5t25.5 55.5q0 28 -22 52.5t-67 38.5l-47 15q-56 18 -92.5 55.5t-36.5 99.5q0 37 17 65.5t45.5 48t65 29.5t76.5 10q38 0 70 -5.5t60 -14.5l24 -151h-42
l-18 49q-17 46 -45 63t-63 17q-33 0 -57 -17t-24 -51q0 -30 19 -50t51 -31l45 -14q83 -26 119.5 -64.5t36.5 -100.5q0 -38 -16.5 -68t-45 -51t-67.5 -32t-84 -11zM412 609h-19l-149 87l-149 -87h-19l162 196h12z" />
    <glyph glyph-name="uni0219" unicode="&#x219;" horiz-adv-x="474" 
d="M219 -13q-43 0 -85.5 7.5t-69.5 21.5l-18 165h40l20 -60q10 -31 24.5 -49.5t31 -28t33 -12t31.5 -2.5q40 0 65.5 20.5t25.5 55.5q0 28 -22 52.5t-67 38.5l-47 15q-56 18 -92.5 55.5t-36.5 99.5q0 37 17 65.5t45.5 48t65 29.5t76.5 10q38 0 70 -5.5t60 -14.5l24 -151h-42
l-18 49q-17 46 -45 63t-63 17q-33 0 -57 -17t-24 -51q0 -30 19 -50t51 -31l45 -14q83 -26 119.5 -64.5t36.5 -100.5q0 -38 -16.5 -68t-45 -51t-67.5 -32t-84 -11zM238 -88q45 0 75.5 -31.5t30.5 -79.5q0 -29 -13 -55t-35 -48.5t-51 -41t-61 -32.5l-13 26q42 21 66 47t24 61
q0 37 -24.5 56t-66.5 26q-1 33 17.5 52.5t50.5 19.5z" />
    <glyph glyph-name="tbar" unicode="&#x167;" horiz-adv-x="469" 
d="M263 -13q-69 0 -106.5 36t-37.5 105v312h-97v43q85 3 128.5 47.5t56.5 125.5h42v-154h166v-62h-166v-300q0 -47 19 -69t52 -22q60 0 95 75l31 -16q-26 -63 -72.5 -92t-110.5 -29zM31 348h384v-48h-384v48z" />
    <glyph glyph-name="tcaron" unicode="&#x165;" horiz-adv-x="429" 
d="M243 -13q-69 0 -106.5 36t-37.5 105v312h-97v43q85 3 128.5 47.5t56.5 125.5h42v-154h166v-62h-166v-300q0 -47 19 -69t52 -22q60 0 95 75l31 -16q-26 -63 -72.5 -92t-110.5 -29zM358 835q22 0 41.5 -8.5t33.5 -23.5t22.5 -35.5t8.5 -43.5q0 -29 -13 -55t-35 -48.5
t-51 -41t-61 -32.5l-13 25q42 21 66 47.5t24 60.5q0 38 -24.5 56.5t-66.5 25.5q-1 34 17.5 53.5t50.5 19.5z" />
    <glyph glyph-name="uni0163" unicode="&#x163;" horiz-adv-x="429" 
d="M243 -13q-69 0 -106.5 36t-37.5 105v312h-97v43q85 3 128.5 47.5t56.5 125.5h42v-154h166v-62h-166v-300q0 -47 19 -69t52 -22q60 0 95 75l31 -16q-26 -63 -72.5 -92t-110.5 -29zM199 -88q45 0 75.5 -31.5t30.5 -79.5q0 -29 -13 -55t-35 -48.5t-51 -41t-61 -32.5l-13 26
q42 21 66 47t24 61q0 37 -24.5 56t-66.5 26q-1 33 17.5 52.5t50.5 19.5z" />
    <glyph glyph-name="uni021B" unicode="&#x21b;" horiz-adv-x="429" 
d="M243 -13q-69 0 -106.5 36t-37.5 105v312h-97v43q85 3 128.5 47.5t56.5 125.5h42v-154h166v-62h-166v-300q0 -47 19 -69t52 -22q60 0 95 75l31 -16q-26 -63 -72.5 -92t-110.5 -29zM199 -88q45 0 75.5 -31.5t30.5 -79.5q0 -29 -13 -55t-35 -48.5t-51 -41t-61 -32.5l-13 26
q42 21 66 47t24 61q0 37 -24.5 56t-66.5 26q-1 33 17.5 52.5t50.5 19.5z" />
    <glyph glyph-name="ubreve" unicode="&#x16d;" horiz-adv-x="629" 
d="M538 86q0 -14 7.5 -22.5t33.5 -14.5l27 -6v-33l-198 -19v126q-20 -63 -60.5 -96.5t-103.5 -33.5q-33 0 -61 9.5t-48.5 32t-32.5 59t-12 90.5v240q0 14 -7.5 23.5t-33.5 14.5l-27 5v33l198 21v-312q0 -41 7 -67.5t19 -42t28 -21.5t35 -6q18 0 35.5 6.5t32 23t23 43.5
t8.5 68v211q0 14 -7.5 23.5t-33.5 14.5l-27 5v33l198 21v-429zM314 628q-21 0 -47.5 6t-50.5 23.5t-42 49t-23 81.5h57q7 -54 36 -81t70 -27t70 27t36 81h57q-5 -50 -23 -81.5t-42 -49t-50.5 -23.5t-47.5 -6z" />
    <glyph glyph-name="uhungarumlaut" unicode="&#x171;" horiz-adv-x="629" 
d="M538 86q0 -14 7.5 -22.5t33.5 -14.5l27 -6v-33l-198 -19v126q-20 -63 -60.5 -96.5t-103.5 -33.5q-33 0 -61 9.5t-48.5 32t-32.5 59t-12 90.5v240q0 14 -7.5 23.5t-33.5 14.5l-27 5v33l198 21v-312q0 -41 7 -67.5t19 -42t28 -21.5t35 -6q18 0 35.5 6.5t32 23t23 43.5
t8.5 68v211q0 14 -7.5 23.5t-33.5 14.5l-27 5v33l198 21v-429zM504 788h140v-9l-231 -170h-17zM325 788h140v-9l-231 -170h-17z" />
    <glyph glyph-name="umacron" unicode="&#x16b;" horiz-adv-x="629" 
d="M538 86q0 -14 7.5 -22.5t33.5 -14.5l27 -6v-33l-198 -19v126q-20 -63 -60.5 -96.5t-103.5 -33.5q-33 0 -61 9.5t-48.5 32t-32.5 59t-12 90.5v240q0 14 -7.5 23.5t-33.5 14.5l-27 5v33l198 21v-312q0 -41 7 -67.5t19 -42t28 -21.5t35 -6q18 0 35.5 6.5t32 23t23 43.5
t8.5 68v211q0 14 -7.5 23.5t-33.5 14.5l-27 5v33l198 21v-429zM160 736h308v-67h-308v67z" />
    <glyph glyph-name="uogonek" unicode="&#x173;" horiz-adv-x="629" 
d="M538 86q0 -14 7.5 -22.5t33.5 -14.5l27 -6v-33l-156 -15q-23 -24 -41.5 -55t-18.5 -62q0 -21 10 -34t27 -19t38.5 -5.5t45.5 6.5v-30q-17 -8 -45 -17.5t-57 -9.5q-21 0 -40.5 5.5t-34 16.5t-23.5 26.5t-9 36.5q0 18 9.5 36.5t24.5 36.5t34 35.5t38 32.5v122
q-20 -63 -60.5 -96.5t-103.5 -33.5q-33 0 -61 9.5t-48.5 32t-32.5 59t-12 90.5v240q0 14 -7.5 23.5t-33.5 14.5l-27 5v33l198 21v-312q0 -41 7 -67.5t19 -42t28 -21.5t35 -6q18 0 35.5 6.5t32 23t23 43.5t8.5 68v211q0 14 -7.5 23.5t-33.5 14.5l-27 5v33l198 21v-429z" />
    <glyph glyph-name="uring" unicode="&#x16f;" horiz-adv-x="629" 
d="M538 86q0 -14 7.5 -22.5t33.5 -14.5l27 -6v-33l-198 -19v126q-20 -63 -60.5 -96.5t-103.5 -33.5q-33 0 -61 9.5t-48.5 32t-32.5 59t-12 90.5v240q0 14 -7.5 23.5t-33.5 14.5l-27 5v33l198 21v-312q0 -41 7 -67.5t19 -42t28 -21.5t35 -6q18 0 35.5 6.5t32 23t23 43.5
t8.5 68v211q0 14 -7.5 23.5t-33.5 14.5l-27 5v33l198 21v-429zM190 705q0 25 10 47t26.5 38.5t39 26t48.5 9.5q27 0 50 -9.5t40 -26t26.5 -38.5t9.5 -47t-9.5 -46.5t-26.5 -37.5t-40 -25.5t-50 -9.5q-26 0 -48.5 9.5t-39 25.5t-26.5 37.5t-10 46.5zM381 705q0 32 -17.5 50
t-49.5 18q-31 0 -48.5 -18t-17.5 -50q0 -31 17.5 -49.5t48.5 -18.5q32 0 49.5 18.5t17.5 49.5z" />
    <glyph glyph-name="utilde" unicode="&#x169;" horiz-adv-x="629" 
d="M538 86q0 -14 7.5 -22.5t33.5 -14.5l27 -6v-33l-198 -19v126q-20 -63 -60.5 -96.5t-103.5 -33.5q-33 0 -61 9.5t-48.5 32t-32.5 59t-12 90.5v240q0 14 -7.5 23.5t-33.5 14.5l-27 5v33l198 21v-312q0 -41 7 -67.5t19 -42t28 -21.5t35 -6q18 0 35.5 6.5t32 23t23 43.5
t8.5 68v211q0 14 -7.5 23.5t-33.5 14.5l-27 5v33l198 21v-429zM150 649q0 23 5.5 48t17.5 46t30 34.5t43 13.5q21 0 42 -10.5t40.5 -22.5t38 -22.5t35.5 -10.5q28 0 40.5 15t14.5 48h21q-1 -76 -26.5 -106.5t-61.5 -30.5q-25 0 -46 10t-40.5 22.5t-38 22.5t-38.5 10
q-25 0 -39.5 -17.5t-16.5 -49.5h-21z" />
    <glyph glyph-name="uni1EE5" unicode="&#x1ee5;" horiz-adv-x="629" 
d="M538 86q0 -14 7.5 -22.5t33.5 -14.5l27 -6v-33l-198 -19v126q-20 -63 -60.5 -96.5t-103.5 -33.5q-33 0 -61 9.5t-48.5 32t-32.5 59t-12 90.5v240q0 14 -7.5 23.5t-33.5 14.5l-27 5v33l198 21v-312q0 -41 7 -67.5t19 -42t28 -21.5t35 -6q18 0 35.5 6.5t32 23t23 43.5
t8.5 68v211q0 14 -7.5 23.5t-33.5 14.5l-27 5v33l198 21v-429zM308 -234q-28 0 -46.5 19t-18.5 47q0 29 18.5 47.5t46.5 18.5q27 0 46 -18.5t19 -47.5q0 -28 -19 -47t-46 -19z" />
    <glyph glyph-name="wacute" unicode="&#x1e83;" horiz-adv-x="890" 
d="M72 426q-6 14 -15.5 23.5t-35.5 14.5l-26 5v33h280v-33l-28 -5q-26 -5 -32 -14.5t0 -23.5l120 -271l86 195l-67 152h251v-33l-41 -5q-26 -3 -32 -13.5t0 -24.5l111 -269l121 269q6 14 0 23.5t-32 14.5l-27 5v33h190v-33l-26 -5q-26 -5 -35.5 -14.5t-15.5 -23.5l-199 -438
h-39l-133 302l-137 -302h-39zM519 788h140v-9l-231 -170h-17z" />
    <glyph glyph-name="wcircumflex" unicode="&#x175;" horiz-adv-x="890" 
d="M72 426q-6 14 -15.5 23.5t-35.5 14.5l-26 5v33h280v-33l-28 -5q-26 -5 -32 -14.5t0 -23.5l120 -271l86 195l-67 152h251v-33l-41 -5q-26 -3 -32 -13.5t0 -24.5l111 -269l121 269q6 14 0 23.5t-32 14.5l-27 5v33h190v-33l-26 -5q-26 -5 -35.5 -14.5t-15.5 -23.5l-199 -438
h-39l-133 302l-137 -302h-39zM615 609h-19l-149 87l-149 -87h-19l162 196h12z" />
    <glyph glyph-name="wdieresis" unicode="&#x1e85;" horiz-adv-x="890" 
d="M72 426q-6 14 -15.5 23.5t-35.5 14.5l-26 5v33h280v-33l-28 -5q-26 -5 -32 -14.5t0 -23.5l120 -271l86 195l-67 152h251v-33l-41 -5q-26 -3 -32 -13.5t0 -24.5l111 -269l121 269q6 14 0 23.5t-32 14.5l-27 5v33h190v-33l-26 -5q-26 -5 -35.5 -14.5t-15.5 -23.5l-199 -438
h-39l-133 302l-137 -302h-39zM561 645q-28 0 -46.5 19t-18.5 47q0 29 18.5 47.5t46.5 18.5q27 0 46 -18.5t19 -47.5q0 -28 -19 -47t-46 -19zM332 645q-28 0 -46.5 19t-18.5 47q0 29 18.5 47.5t46.5 18.5q27 0 46 -18.5t19 -47.5q0 -28 -19 -47t-46 -19z" />
    <glyph glyph-name="wgrave" unicode="&#x1e81;" horiz-adv-x="890" 
d="M72 426q-6 14 -15.5 23.5t-35.5 14.5l-26 5v33h280v-33l-28 -5q-26 -5 -32 -14.5t0 -23.5l120 -271l86 195l-67 152h251v-33l-41 -5q-26 -3 -32 -13.5t0 -24.5l111 -269l121 269q6 14 0 23.5t-32 14.5l-27 5v33h190v-33l-26 -5q-26 -5 -35.5 -14.5t-15.5 -23.5l-199 -438
h-39l-133 302l-137 -302h-39zM481 609h-17l-231 170v9h140z" />
    <glyph glyph-name="ycircumflex" unicode="&#x177;" horiz-adv-x="582" 
d="M137 -254q-29 0 -45 17.5t-16 39.5q0 55 88 83q26 8 43 19.5t32 43.5l26 57l-192 420q-6 14 -15 23.5t-35 14.5l-27 5v33h280v-33l-27 -5q-26 -5 -32.5 -14.5t-0.5 -23.5l119 -267l122 267q6 14 0 23.5t-32 14.5l-27 5v33h190v-33l-27 -5q-26 -5 -35 -14.5t-15 -23.5
l-267 -579q-26 -57 -52 -79t-55 -22zM489 609h-19l-149 87l-149 -87h-19l162 196h12z" />
    <glyph glyph-name="ygrave" unicode="&#x1ef3;" horiz-adv-x="582" 
d="M137 -254q-29 0 -45 17.5t-16 39.5q0 55 88 83q26 8 43 19.5t32 43.5l26 57l-192 420q-6 14 -15 23.5t-35 14.5l-27 5v33h280v-33l-27 -5q-26 -5 -32.5 -14.5t-0.5 -23.5l119 -267l122 267q6 14 0 23.5t-32 14.5l-27 5v33h190v-33l-27 -5q-26 -5 -35 -14.5t-15 -23.5
l-267 -579q-26 -57 -52 -79t-55 -22zM356 609h-17l-231 170v9h140z" />
    <glyph glyph-name="uni0233" unicode="&#x233;" horiz-adv-x="582" 
d="M137 -254q-29 0 -45 17.5t-16 39.5q0 55 88 83q26 8 43 19.5t32 43.5l26 57l-192 420q-6 14 -15 23.5t-35 14.5l-27 5v33h280v-33l-27 -5q-26 -5 -32.5 -14.5t-0.5 -23.5l119 -267l122 267q6 14 0 23.5t-32 14.5l-27 5v33h190v-33l-27 -5q-26 -5 -35 -14.5t-15 -23.5
l-267 -579q-26 -57 -52 -79t-55 -22zM167 736h308v-67h-308v67z" />
    <glyph glyph-name="zacute" unicode="&#x17a;" horiz-adv-x="540" 
d="M329 463h-99q-21 0 -35 -1t-23.5 -5t-16 -11.5t-13.5 -19.5l-68 -123h-36l38 199h424l-303 -463h102q21 0 34.5 1.5t23.5 6t17.5 12t16.5 20.5l93 128h34l-60 -207h-432zM360 788h140v-9l-231 -170h-17z" />
    <glyph glyph-name="zcaron" unicode="&#x17e;" horiz-adv-x="540" 
d="M329 463h-99q-21 0 -35 -1t-23.5 -5t-16 -11.5t-13.5 -19.5l-68 -123h-36l38 199h424l-303 -463h102q21 0 34.5 1.5t23.5 6t17.5 12t16.5 20.5l93 128h34l-60 -207h-432zM282 609l-162 195h19l149 -87l149 87h19l-162 -195h-12z" />
    <glyph glyph-name="zdotaccent" unicode="&#x17c;" horiz-adv-x="540" 
d="M329 463h-99q-21 0 -35 -1t-23.5 -5t-16 -11.5t-13.5 -19.5l-68 -123h-36l38 199h424l-303 -463h102q21 0 34.5 1.5t23.5 6t17.5 12t16.5 20.5l93 128h34l-60 -207h-432zM288 639q-28 0 -46.5 19t-18.5 47q0 29 18.5 47.5t46.5 18.5q27 0 46 -18.5t19 -47.5
q0 -28 -19 -47t-46 -19z" />
    <glyph glyph-name="uni0259" unicode="&#x259;" horiz-adv-x="581" 
d="M282.982 519.969q60.9961 0 109.493 -19.999t82.4951 -55.4971t51.9971 -84.4941q17.999 -48.9971 17.999 -106.994q0 -59.9961 -21.499 -108.993q-21.498 -48.9971 -57.4961 -83.4951t-81.9951 -53.4961q-45.9971 -18.999 -94.9941 -18.999q-47.9971 0 -89.4941 13.499
q-41.498 13.499 -73.9961 40.9971q-32.498 27.499 -54.4961 68.4961q-21.999 40.9971 -30.998 94.9941h369.977q-2 108.993 -49.4971 168.99q-47.4971 59.9961 -126.492 59.9961q-24.998 0 -48.9971 -5.5q-23.998 -5.49902 -45.4971 -19.499
q-21.498 -13.999 -37.9971 -37.9971q-16.499 -23.999 -26.499 -60.9961h-40.9971q16.999 104.993 82.9951 156.99t165.989 51.9971zM291.982 27.998q44.9971 0 75.9951 31.998t38.998 97.9941h-221.987q0 -35.998 9 -60.9961q8.99902 -24.998 23.998 -40.498
q14.999 -15.499 33.998 -21.998q18.999 -6.5 39.998 -6.5z" />
    <glyph glyph-name="uni0410" unicode="&#x410;" horiz-adv-x="769" 
d="M-14 36l37 5q15 2 24.5 7t18 17t17.5 32.5t22 53.5l250 640h52l282 -689q12 -29 23.5 -43t40.5 -18l37 -5v-36h-320v36l37 5q29 4 39 15.5t-1 39.5l-72 178h-255l-44 -113q-15 -38 -19.5 -60.5t-1.5 -35t12.5 -17.5t24.5 -7l37 -5v-36h-241v36zM448 336l-106 260
l-100 -260h206z" />
    <glyph glyph-name="uni0411" unicode="&#x411;" horiz-adv-x="781" 
d="M674 760l10 -198h-37l-17 53q-10 30 -23 48t-36 27.5t-61 12.5t-98 3h-91q-22 0 -30 -4t-8 -18v-249h144q71 0 129.5 -14t100 -40.5t64 -65.5t22.5 -90q0 -53 -23 -95t-64.5 -71t-99.5 -44t-129 -15h-372v36l37 5q29 4 39 15t10 40v566q0 29 -10 40t-39 15l-37 5v36h313z
M283 121q0 -40 16 -54.5t57 -14.5h48q88 0 135 37.5t47 119.5q0 86 -49.5 128.5t-164.5 42.5h-89v-259z" />
    <glyph glyph-name="uni0412" unicode="&#x412;" horiz-adv-x="781" 
d="M55 36l37 5q29 4 39 15t10 40v566q0 29 -10 40t-39 15l-37 5v36h342q139 0 212.5 -40.5t73.5 -128.5q0 -37 -15 -65t-39.5 -49t-55 -34.5t-61.5 -21.5v-1q45 -5 86.5 -19.5t73.5 -38.5t51.5 -57.5t19.5 -77.5q0 -53 -22.5 -95t-64 -71t-100 -44t-129.5 -15h-372v36z
M380 430q85 0 119.5 36t34.5 105q0 66 -36 102.5t-124 36.5h-46q-28 0 -36.5 -4t-8.5 -19v-257h97zM283 118q0 -40 16 -55t57 -15h48q88 0 135 39t47 122q0 86 -49.5 129t-164.5 43h-89v-263z" />
    <glyph glyph-name="uni0413" unicode="&#x413;" horiz-adv-x="682" 
d="M283 96q0 -29 10 -40t39 -13l67 -5v-38h-344v36l37 5q29 4 39 15t10 40v566q0 29 -10 40t-39 15l-37 5v36h291l305 2l10 -198h-36l-18 53q-10 30 -22.5 48t-36 27.5t-61 12.5t-97.5 3h-87q-20 0 -20 -20v-590z" />
    <glyph glyph-name="uni0414" unicode="&#x414;" horiz-adv-x="794" 
d="M743 52l19 -212h-36l-19 66q-10 34 -22.5 53t-36.5 28t-64 11t-105 2h-211q-59 0 -96 -2.5t-60 -11.5t-35.5 -28t-22.5 -52l-20 -66h-35l19 212h63q33 69 54 149t33 161.5t16.5 159t4.5 140.5q0 29 -10 40t-39 15l-37 5v36h634v-36l-37 -5q-29 -4 -39 -15t-10 -40v-546
q0 -38 15 -51t51 -13h26zM252 686q0 -33 -2 -79.5t-6 -101t-11.5 -114t-19 -118.5t-27 -116t-36.5 -105h269q28 0 45.5 2.5t27.5 11t13.5 25t3.5 45.5v550q0 20 -20 20h-217q-20 0 -20 -20z" />
    <glyph glyph-name="uni0415" unicode="&#x415;" horiz-adv-x="752" 
d="M356 758l305 2l19 -198h-36l-23 53q-13 30 -26.5 47.5t-36.5 27.5t-60 13t-97 3h-98q-20 0 -20 -20v-274h118q23 0 40 2t28.5 9t19.5 21t13 38l9 41h36v-281h-36l-9 41q-5 24 -13 38t-19.5 21t-28.5 9t-40 2h-118v-217q0 -29 3.5 -45.5t13.5 -25t27.5 -11t45.5 -2.5h45
q63 0 101 3.5t61.5 13t38.5 27.5t33 47l42 68h36l-55 -211h-620v36l37 5q29 4 39 15t10 40v566q0 29 -10 40t-39 15l-37 5v36h301z" />
    <glyph glyph-name="uni0401" unicode="&#x401;" horiz-adv-x="752" 
d="M356 758l305 2l19 -198h-36l-23 53q-13 30 -26.5 47.5t-36.5 27.5t-60 13t-97 3h-98q-20 0 -20 -20v-274h118q23 0 40 2t28.5 9t19.5 21t13 38l9 41h36v-281h-36l-9 41q-5 24 -13 38t-19.5 21t-28.5 9t-40 2h-118v-217q0 -29 3.5 -45.5t13.5 -25t27.5 -11t45.5 -2.5h45
q63 0 101 3.5t61.5 13t38.5 27.5t33 47l42 68h36l-55 -211h-620v36l37 5q29 4 39 15t10 40v566q0 29 -10 40t-39 15l-37 5v36h301zM522 840q-29 0 -48 19t-19 48q0 30 19 49.5t48 19.5q28 0 47.5 -19.5t19.5 -49.5q0 -29 -19.5 -48t-47.5 -19zM286 840q-29 0 -48 19t-19 48
q0 30 19 49.5t48 19.5q28 0 47.5 -19.5t19.5 -49.5q0 -29 -19.5 -48t-47.5 -19z" />
    <glyph glyph-name="uni0416" unicode="&#x416;" horiz-adv-x="1242" 
d="M1 0v36l35 5q22 4 35.5 14.5t35.5 33.5l315 341l-195 181q-30 28 -52.5 47t-42 31t-37 18.5t-36.5 9.5l-38 5v36h267v-36l-31 -4q-35 -3 -15 -29t79 -81l225 -208v262q0 29 -9.5 40t-38.5 15l-38 5v36h315v-36l-38 -5q-29 -4 -38.5 -15t-9.5 -40v-262l225 208
q59 55 79 81t-14 29l-32 4v36h267v-36l-38 -5q-20 -3 -38.5 -9.5t-39 -18.5t-44.5 -31t-54 -47l-185 -172l322 -350q21 -23 34 -33.5t35 -14.5l35 -5v-36h-219l-333 361v-265q0 -29 9.5 -40t38.5 -15l38 -5v-36h-315v36l38 5q29 4 38.5 15t9.5 40v265l-333 -361h-212z" />
    <glyph glyph-name="uni0417" unicode="&#x417;" horiz-adv-x="700" 
d="M313 726q-35 0 -61 -6t-46.5 -19t-36.5 -34.5t-31 -52.5l-29 -62h-37l32 192q39 16 94 25.5t119 9.5q66 0 121 -10.5t94.5 -32.5t61.5 -55.5t22 -79.5q0 -41 -16 -72.5t-42 -54.5t-58.5 -38.5t-65.5 -23.5v-1q44 -5 84.5 -18.5t71 -36.5t48.5 -56.5t18 -77.5
q0 -55 -25 -98.5t-71 -74t-111 -46.5t-145 -16q-28 0 -58.5 4t-60 10.5t-57.5 16t-50 21.5l-31 214h36l43 -100q14 -32 33.5 -53.5t43 -34.5t50 -18.5t55.5 -5.5q87 0 139 41.5t52 124.5q0 89 -47 129.5t-148 40.5h-95v58h103q75 0 115 35.5t40 105.5q0 69 -36.5 109.5
t-117.5 40.5z" />
    <glyph glyph-name="uni0418" unicode="&#x418;" horiz-adv-x="928" 
d="M369 0h-314v36l37 5q29 4 39 15t10 40v566q0 29 -10 40t-39 15l-37 5v36h314v-36l-37 -5q-29 -4 -39 -15t-10 -40v-444l380 415v29q0 29 -10 40t-39 15l-37 5v36h315v-36l-38 -5q-29 -4 -38.5 -15t-9.5 -40v-566q0 -29 9.5 -40t38.5 -15l38 -5v-36h-315v36l37 5
q29 4 39 15t10 40v456l-380 -415v-41q0 -29 10 -40t39 -15l37 -5v-36z" />
    <glyph glyph-name="uni0419" unicode="&#x419;" horiz-adv-x="946" 
d="M369 0h-314v36l37 5q29 4 39 15t10 40v566q0 29 -10 40t-39 15l-37 5v36h314v-36l-37 -5q-29 -4 -39 -15t-10 -40v-444l380 415v29q0 29 -10 40t-39 15l-37 5v36h315v-36l-38 -5q-29 -4 -38.5 -15t-9.5 -40v-566q0 -29 9.5 -40t38.5 -15l38 -5v-36h-315v36l37 5
q29 4 39 15t10 40v456l-380 -415v-41q0 -29 10 -40t39 -15l37 -5v-36zM392 990q0 -26 3.5 -48.5t13 -39t25.5 -26.5t41 -10t41 10t25 26.5t12 39t3 48.5h100q0 -34 -11.5 -63t-34.5 -50.5t-56.5 -34t-78.5 -12.5q-47 0 -81.5 13t-57 34.5t-33.5 50.5t-11 62h100z" />
    <glyph glyph-name="uni041A" unicode="&#x41a;" horiz-adv-x="867" 
d="M283 362v-266q0 -29 10 -40t39 -15l37 -5v-36h-314v36l37 5q29 4 39 15t10 40v566q0 29 -10 40t-39 15l-37 5v36h314v-36l-37 -5q-29 -4 -39 -15t-10 -40v-266l270 225q27 22 45.5 39.5t25 30t-0.5 20t-31 9.5l-21 2v36h267v-36l-29 -5q-38 -7 -79.5 -31t-103.5 -75
l-213 -174l348 -348q23 -23 38 -34.5t37 -14.5l29 -4v-36h-218z" />
    <glyph glyph-name="uni041B" unicode="&#x41b;" horiz-adv-x="816" 
d="M198 88q-22 -56 -54 -78.5t-66 -22.5q-26 0 -47.5 14.5t-21.5 44.5q0 25 17 41t46 29q28 11 48.5 25.5t35.5 43.5q13 26 23.5 79.5t18 120t11 139.5t3.5 138q0 29 -9.5 40t-38.5 15l-38 5v36h635v-36l-37 -5q-29 -4 -39 -15t-10 -40v-566q0 -29 10 -40t39 -15l37 -5v-36
h-315v36l38 5q29 4 38.5 15t9.5 40v590q0 20 -20 20h-218q-20 0 -20 -20q0 -65 -3 -143.5t-11.5 -159.5t-23 -157.5t-38.5 -137.5z" />
    <glyph glyph-name="uni041C" unicode="&#x41c;" horiz-adv-x="1068" 
d="M211 610l-16 -398q-2 -58 -2.5 -91t3 -50t13.5 -22.5t28 -7.5l38 -5v-36h-236v36l37 5q18 3 28 8t15.5 22t7.5 50t5 91l21 450q2 29 -9 40t-40 15l-37 5v36h226l246 -541l234 541h229v-36l-38 -5q-29 -4 -40 -15t-9 -40l28 -566q2 -29 11.5 -40t38.5 -15l38 -5v-36h-315
v36l37 5q29 4 39 15t8 40l-25 514l-266 -618h-18z" />
    <glyph glyph-name="uni041D" unicode="&#x41d;" horiz-adv-x="936" 
d="M369 0h-314v36l37 5q29 4 39 15t10 40v566q0 29 -10 40t-39 15l-37 5v36h314v-36l-37 -5q-29 -4 -39 -15t-10 -40v-248h369v248q0 29 -9.5 40t-38.5 15l-38 5v36h315v-36l-38 -5q-29 -4 -38.5 -15t-9.5 -40v-566q0 -29 9.5 -40t38.5 -15l38 -5v-36h-315v36l38 5
q29 4 38.5 15t9.5 40v257h-369v-257q0 -29 10 -40t39 -15l37 -5v-36z" />
    <glyph glyph-name="uni041E" unicode="&#x41e;" horiz-adv-x="900" 
d="M450 779q81 0 154.5 -29t130 -81.5t89.5 -125.5t33 -161q0 -87 -33.5 -159.5t-89.5 -125t-129.5 -81.5t-154.5 -29t-155 29t-130 81.5t-89.5 125.5t-33.5 160t33.5 159.5t90 125t130 82t154.5 29.5zM440 723q-44 0 -87 -16.5t-77 -53.5t-55 -96t-21 -143q0 -88 19 -157
t53.5 -116.5t82.5 -72.5t105 -25q44 0 87 16.5t77 53t55 95.5t21 144q0 87 -19 156t-53.5 117t-82.5 73t-105 25z" />
    <glyph glyph-name="uni041F" unicode="&#x41f;" horiz-adv-x="916" 
d="M632 686q0 20 -20 20h-309q-20 0 -20 -20v-590q0 -29 10 -40t39 -15l37 -5v-36h-314v36l37 5q29 4 39 15t10 40v566q0 29 -10 40t-39 15l-37 5v36h806v-36l-38 -5q-29 -4 -38.5 -15t-9.5 -40v-566q0 -29 9.5 -40t38.5 -15l38 -5v-36h-315v36l38 5q29 4 38.5 15t9.5 40
v590z" />
    <glyph glyph-name="uni0420" unicode="&#x420;" horiz-adv-x="750" 
d="M55 36l37 5q29 4 39 15t10 40v566q0 29 -10 40t-39 15l-37 5v36h365q65 0 124.5 -9t105 -33t72.5 -64.5t27 -103.5q0 -51 -22.5 -91.5t-64 -68t-100 -42.5t-130.5 -15h-149v-235q0 -29 10 -40t39 -13l67 -5v-38h-344v36zM283 386h138q79 0 125.5 39.5t46.5 120.5
t-46.5 121.5t-125.5 40.5h-85q-35 0 -44 -4.5t-9 -19.5v-298z" />
    <glyph glyph-name="uni0421" unicode="&#x421;" horiz-adv-x="809" 
d="M497 44q33 0 64 5t57 16.5t47.5 31t36.5 48.5l36 70h37l-46 -192q-45 -13 -107 -24.5t-138 -11.5q-99 0 -180 31.5t-139.5 85.5t-90.5 126t-32 153t33.5 153t93.5 126t142.5 85.5t180.5 31.5q74 0 135 -11.5t103 -23.5l32 -190h-36l-34 67q-30 59 -85 80.5t-127 21.5
q-50 0 -99 -16t-88 -52t-63.5 -94.5t-24.5 -143.5q0 -81 20 -149.5t58 -118t92 -77.5t122 -28z" />
    <glyph glyph-name="uni0422" unicode="&#x422;" horiz-adv-x="750" 
d="M187 38l68 5q29 2 38.5 13t9.5 40v610h-16q-60 0 -98 -2.5t-62 -11.5t-37.5 -27t-22.5 -48l-17 -55h-36l13 198l267 -2h162l266 2l14 -198h-36l-18 55q-10 30 -23 48t-37 27t-62 11.5t-97 2.5h-17v-610q0 -29 10 -40t39 -13l67 -5v-38h-375v38z" />
    <glyph glyph-name="uni0423" unicode="&#x423;" horiz-adv-x="769" 
d="M393 116q-34 -66 -67 -97.5t-74 -31.5q-35 0 -52 17.5t-17 42.5q0 31 18.5 46.5t39.5 23.5q15 6 31.5 10t32.5 10.5t31 17.5t27 30l-263 471q-8 14 -14.5 24.5t-14 18t-17.5 12t-24 6.5l-37 5v36h332v-36l-37 -5q-29 -4 -40.5 -16t3.5 -39l187 -337l143 272
q19 35 26 57.5t5.5 36t-10.5 19t-24 7.5l-37 5v36h242v-36l-34 -5q-16 -2 -27 -7.5t-21.5 -18t-22 -33t-27.5 -51.5z" />
    <glyph glyph-name="uni0424" unicode="&#x424;" horiz-adv-x="1011" 
d="M434 683q0 29 -9.5 40t-38.5 15l-38 5v36h315v-36l-38 -5q-29 -4 -38.5 -15t-9.5 -40v-8q84 -1 158.5 -19.5t131 -54t89 -88t32.5 -121.5q0 -68 -33 -123t-89 -94t-130.5 -60.5t-158.5 -22.5v-16q0 -29 9.5 -40t38.5 -15l38 -5v-36h-315v36l38 5q29 4 38.5 15t9.5 40v16
q-84 1 -159 20t-131 55t-88.5 87.5t-32.5 118.5q0 70 33 126t89 94.5t130.5 59.5t158.5 22v8zM434 619q-38 0 -82 -7.5t-82 -31t-63.5 -65.5t-25.5 -111q0 -65 21 -112t56.5 -78.5t81 -47.5t94.5 -19v472zM830 362q0 67 -21.5 114.5t-56.5 78t-81 46t-94 18.5v-472
q37 0 81.5 8.5t82.5 32t63.5 65.5t25.5 109z" />
    <glyph glyph-name="uni0425" unicode="&#x425;" horiz-adv-x="830" 
d="M-2 36l37 5q19 3 34.5 9.5t32 21.5t37 39t50.5 62l165 203l-208 280q-21 28 -38 42.5t-46 18.5l-37 5v36h334v-36l-38 -5q-29 -4 -32 -17.5t15 -37.5l135 -181l85 105q33 40 50 64.5t20 39t-6.5 20t-29.5 8.5l-29 4v36h263v-36l-37 -5q-20 -3 -35 -9.5t-31.5 -21.5
t-37 -39.5t-50.5 -61.5l-125 -154l244 -329q20 -28 37 -42.5t46 -18.5l37 -5v-36h-333v36l37 5q29 4 32.5 17.5t-14.5 37.5l-171 231l-126 -155q-33 -40 -49.5 -64.5t-19.5 -39t6.5 -20t29.5 -8.5l29 -4v-36h-263v36z" />
    <glyph glyph-name="uni0426" unicode="&#x426;" horiz-adv-x="917" 
d="M55 0v36l37 5q29 4 39 15t10 40v566q0 29 -10 40t-39 15l-37 5v36h314v-36l-37 -5q-29 -4 -39 -15t-10 -40v-526q0 -29 3.5 -45.5t13.5 -25t27.5 -11t45.5 -2.5h170q28 0 45 2.5t27 11t13.5 25t3.5 45.5v526q0 29 -9.5 40t-38.5 15l-38 5v36h315v-36l-38 -5
q-29 -4 -38.5 -15t-9.5 -40v-546q0 -38 15 -51t51 -13h26l19 -212h-36l-20 66q-10 34 -22.5 53t-36.5 28t-64 11t-105 2h-547z" />
    <glyph glyph-name="uni0427" unicode="&#x427;" horiz-adv-x="860" 
d="M112 662q0 29 -9.5 40t-38.5 15l-38 5v36h315v-36l-38 -5q-29 -4 -38.5 -15t-9.5 -40v-109q0 -54 11.5 -89.5t33.5 -56t54.5 -29t74.5 -8.5q45 0 80 5t67 13v274q0 29 -9.5 40t-38.5 15l-38 5v36h315v-36l-38 -5q-29 -4 -38.5 -15t-9.5 -40v-566q0 -29 9.5 -40t38.5 -15
l38 -5v-36h-321v36l44 5q29 4 38.5 15t9.5 40v238q-35 -11 -79 -19.5t-114 -8.5q-67 0 -117.5 12t-84.5 40t-51.5 72.5t-17.5 109.5v122z" />
    <glyph glyph-name="uni0428" unicode="&#x428;" horiz-adv-x="1238" 
d="M55 36l37 5q29 4 39 15t10 40v566q0 29 -10 40t-39 15l-37 5v36h311v-36l-34 -5q-14 -2 -23.5 -5.5t-15 -9.5t-8 -15.5t-2.5 -24.5v-526q0 -29 3.5 -45.5t13.5 -25t27.5 -11t45.5 -2.5h174v610q0 29 -10 39.5t-38 15.5l-34 5v36h308v-36l-34 -5q-29 -5 -39 -15.5
t-10 -39.5v-610h175q28 0 45 2.5t27 11t13.5 25t3.5 45.5v526q0 29 -10 39.5t-38 15.5l-34 5v36h311v-36l-38 -5q-29 -4 -38.5 -15t-9.5 -40v-566q0 -29 9.5 -40t38.5 -15l38 -5v-36h-1128v36z" />
    <glyph glyph-name="uni0429" unicode="&#x429;" horiz-adv-x="1236" 
d="M1097 116q0 -38 14.5 -51t51.5 -13h26l19 -212h-37l-19 66q-10 34 -22.5 53t-36.5 28t-64 11t-105 2h-869v36l37 5q29 4 39 15t10 40v566q0 29 -10 40t-39 15l-37 5v36h311v-36l-34 -5q-14 -2 -23.5 -5.5t-15 -9.5t-8 -15.5t-2.5 -24.5v-526q0 -29 3.5 -45.5t13.5 -25
t27.5 -11t45.5 -2.5h174v610q0 29 -10 39.5t-38 15.5l-34 5v36h308v-36l-34 -5q-29 -5 -39 -15.5t-10 -39.5v-610h175q28 0 45 2.5t27 11t13.5 25t3.5 45.5v526q0 29 -10 39.5t-38 15.5l-34 5v36h311v-36l-38 -5q-29 -4 -38.5 -15t-9.5 -40v-546z" />
    <glyph glyph-name="uni042A" unicode="&#x42a;" horiz-adv-x="871" 
d="M241 706q-47 0 -77 -3t-49 -12.5t-30.5 -27t-20.5 -46.5l-17 -55h-36l13 198l239 -2h233v-36l-55 -5q-29 -2 -38.5 -14t-9.5 -41v-214h143q71 0 129.5 -14t100 -41.5t64 -67.5t22.5 -92q0 -53 -23 -96t-64 -73.5t-99.5 -47t-128.5 -16.5h-373v36l38 5q29 4 38.5 15
t9.5 40v610h-9zM393 121q0 -40 16 -54.5t56 -14.5h48q88 0 135 41t47 124q0 86 -50 128t-164 42h-88v-266z" />
    <glyph glyph-name="uni042B" unicode="&#x42b;" horiz-adv-x="1127" 
d="M386 722l-54 -5q-29 -2 -39 -14t-10 -41v-214h144q71 0 129.5 -14t100 -41.5t64 -67.5t22.5 -92q0 -53 -23 -96t-64.5 -73.5t-99.5 -47t-129 -16.5h-372v36l37 5q29 4 39 15t10 40v566q0 29 -10 40t-39 15l-37 5v36h331v-36zM283 121q0 -40 16 -54.5t57 -14.5h48
q88 0 135 41t47 124q0 86 -50 128t-164 42h-89v-266zM844 662q0 29 -10 40t-39 15l-37 5v36h314v-36l-37 -5q-29 -4 -39 -15t-10 -40v-566q0 -29 10 -40t39 -15l37 -5v-36h-314v36l37 5q29 4 39 15t10 40v566z" />
    <glyph glyph-name="uni042C" unicode="&#x42c;" horiz-adv-x="762" 
d="M386 722l-54 -5q-29 -2 -39 -14t-10 -41v-214h144q71 0 129.5 -14t100 -41.5t64 -67.5t22.5 -92q0 -53 -23 -96t-64.5 -73.5t-99.5 -47t-129 -16.5h-372v36l37 5q29 4 39 15t10 40v566q0 29 -10 40t-39 15l-37 5v36h331v-36zM283 121q0 -40 16 -54.5t57 -14.5h48
q88 0 135 41t47 124q0 86 -50 128t-164 42h-89v-266z" />
    <glyph glyph-name="uni042D" unicode="&#x42d;" horiz-adv-x="800" 
d="M345 779q85 0 159.5 -29t130 -81.5t88 -125.5t32.5 -161q0 -89 -33.5 -162t-90 -125t-130.5 -80t-156 -28q-78 0 -144.5 10t-113.5 26l-45 192h37l36 -69q18 -34 42 -54.5t52.5 -31t58.5 -13.5t60 -3q55 0 104 15.5t86 51.5t58 95t21 146v1h-187q-23 0 -38 -2t-25.5 -9
t-17 -21t-11.5 -38l-9 -41h-36v281h36l9 -41q5 -24 11.5 -38t17 -21t25.5 -9t38 -2h185q-12 148 -80.5 229t-186.5 81q-29 0 -58.5 -4t-56.5 -16t-50.5 -32.5t-39.5 -53.5l-31 -62h-36l32 190q45 16 110.5 25.5t146.5 9.5z" />
    <glyph glyph-name="uni042E" unicode="&#x42e;" horiz-adv-x="1233" 
d="M369 0h-314v36l37 5q29 4 39 15t10 40v566q0 29 -10 40t-39 15l-37 5v36h314v-36l-37 -5q-29 -4 -39 -15t-10 -40v-248h111q6 81 40.5 148t89 115.5t123.5 75t144 26.5q79 0 151 -29t126.5 -81.5t87 -125.5t32.5 -161q0 -87 -32.5 -159.5t-87.5 -125t-127 -81.5t-150 -29
q-76 0 -145.5 26.5t-123.5 75t-88 116t-40 148.5h-111v-257q0 -29 10 -40t39 -15l37 -5v-36zM781 723q-42 0 -83 -16.5t-74 -53.5t-53 -96t-20 -143q0 -88 18.5 -157t51.5 -116.5t78.5 -72.5t100.5 -25q42 0 83 16.5t74 53t53 95.5t20 144q0 87 -18.5 156t-51.5 117
t-78.5 73t-100.5 25z" />
    <glyph glyph-name="uni042F" unicode="&#x42f;" horiz-adv-x="814" 
d="M-2 0v36l35 7q29 6 43 16.5t24 23.5l207 268q-97 17 -150.5 69t-53.5 124q0 55 21.5 95t61 66.5t96 39.5t126.5 13h351v-36l-38 -5q-29 -4 -38.5 -15t-9.5 -40v-566q0 -29 9.5 -40t38.5 -15l38 -5v-36h-315v36l38 5q29 4 38.5 15t9.5 40v236h-70l-252 -332h-210zM530 687
q0 14 -8 18.5t-41 4.5h-30q-57 0 -94 -14.5t-59 -37.5t-31 -52.5t-9 -59.5q0 -32 9.5 -62t32 -53.5t59.5 -38t92 -14.5q4 0 15.5 0.5t24 1t23.5 1t16 0.5v306z" />
    <glyph glyph-name="uni0402" unicode="&#x402;" horiz-adv-x="899" 
d="M425 96q0 -29 10 -40t39 -13l60 -5v-38h-367v38l67 5q29 2 39 13t10 40v610h-10q-56 0 -91.5 -2.5t-57.5 -12t-34.5 -27t-22.5 -47.5l-17 -55h-36l13 198l253 -2h146l289 2l14 -198h-36l-18 55q-10 31 -23.5 48.5t-38 26.5t-64 11.5t-100.5 2.5h-24v-317q42 30 99.5 49.5
t120.5 19.5q46 0 87 -11.5t72 -38t48.5 -68.5t17.5 -102v-32q0 -39 -7 -67.5t-19.5 -50.5t-31.5 -40.5t-43 -38.5q-13 -11 -32 -25t-40.5 -29.5t-44 -31.5t-41.5 -29l-27 36q41 36 68.5 63.5t44 56t23.5 62.5t7 83v26q0 75 -37 114.5t-124 39.5q-42 0 -78.5 -10.5
t-62.5 -25.5v-243z" />
    <glyph glyph-name="uni0403" unicode="&#x403;" horiz-adv-x="682" 
d="M283 96q0 -29 10 -40t39 -13l67 -5v-38h-344v36l37 5q29 4 39 15t10 40v566q0 29 -10 40t-39 15l-37 5v36h291l305 2l10 -198h-36l-18 53q-10 30 -22.5 48t-36 27.5t-61 12.5t-97.5 3h-87q-20 0 -20 -20v-590zM606 969l-255 -126h-21l100 129h176v-3z" />
    <glyph glyph-name="uni0404" unicode="&#x404;" horiz-adv-x="809" 
d="M497 44q33 0 64 5t57 16.5t47.5 31t36.5 48.5l36 70h37l-46 -192q-45 -13 -107 -24.5t-138 -11.5q-99 0 -180 31.5t-139.5 85.5t-90.5 126t-32 153t33.5 153t93.5 126t142.5 85.5t180.5 31.5q74 0 135 -11.5t103 -23.5l32 -190h-36l-34 67q-30 59 -85 80.5t-127 21.5
q-50 0 -99 -16t-88 -52t-63.5 -94.5t-24.5 -143.5v-5h198q23 0 38 2t25.5 9t17 21t11.5 38l9 41h36v-281h-36l-9 41q-5 24 -11.5 38t-17 21t-25.5 9t-38 2h-195q7 -69 30.5 -125.5t60.5 -97.5t87 -63.5t111 -22.5z" />
    <glyph glyph-name="uni0405" unicode="&#x405;" horiz-adv-x="670" 
d="M330 -13q-69 0 -134.5 12.5t-111.5 35.5l-31 226h36l34 -89q15 -40 34.5 -65.5t44 -40t54.5 -20t66 -5.5q37 0 68 8.5t54 24.5t36 39.5t13 53.5q0 52 -36 89.5t-123 62.5l-59 17q-97 28 -150.5 87t-53.5 144q0 51 22.5 90.5t61.5 66t91 40.5t112 14q18 0 42 -2.5t49.5 -7
t51 -11t46.5 -13.5l30 -202h-36l-32 77q-25 59 -63.5 83t-100.5 24q-64 0 -106 -31t-42 -87q0 -48 30 -83t96 -55l58 -18q56 -17 101 -36.5t76 -46t47.5 -63t16.5 -88.5q0 -57 -26 -100t-67.5 -72.5t-94 -44t-104.5 -14.5z" />
    <glyph glyph-name="uni0406" unicode="&#x406;" horiz-adv-x="424" 
d="M141 662q0 29 -10 40t-39 15l-37 5v36h314v-36l-37 -5q-29 -4 -39 -15t-10 -40v-566q0 -29 10 -40t39 -15l37 -5v-36h-314v36l37 5q29 4 39 15t10 40v566z" />
    <glyph glyph-name="uni0407" unicode="&#x407;" horiz-adv-x="424" 
d="M141 662q0 29 -10 40t-39 15l-37 5v36h314v-36l-37 -5q-29 -4 -39 -15t-10 -40v-566q0 -29 10 -40t39 -15l37 -5v-36h-314v36l37 5q29 4 39 15t10 40v566zM330 840q-29 0 -48 19t-19 48q0 30 19 49.5t48 19.5q28 0 47.5 -19.5t19.5 -49.5q0 -29 -19.5 -48t-47.5 -19z
M94 840q-29 0 -48 19t-19 48q0 30 19 49.5t48 19.5q28 0 47.5 -19.5t19.5 -49.5q0 -29 -19.5 -48t-47.5 -19z" />
    <glyph glyph-name="uni0408" unicode="&#x408;" horiz-adv-x="416" 
d="M289 206q0 -39 -6.5 -67.5t-19.5 -50.5t-32 -40.5t-43 -38.5q-13 -11 -32 -25t-40.5 -29.5t-44 -31.5t-41.5 -29l-27 36q41 36 68.5 63.5t44 56t23.5 62.5t7 83v467q0 29 -9.5 40t-38.5 15l-38 5v36h315v-36l-38 -5q-29 -4 -38.5 -15t-9.5 -40v-456z" />
    <glyph glyph-name="uni0409" unicode="&#x409;" horiz-adv-x="1121" 
d="M755 758v-36l-55 -5q-29 -2 -38.5 -14t-9.5 -41v-214h140q71 0 129.5 -14t100 -41.5t64 -67.5t22.5 -92q0 -53 -23 -96t-64 -73.5t-99.5 -47t-128.5 -16.5h-370v36l38 5q29 4 38.5 15t9.5 40v590q0 20 -20 20h-195q-20 0 -20 -20q0 -65 -3 -143.5t-11.5 -159.5
t-23 -157.5t-38.5 -137.5q-22 -56 -54 -78.5t-66 -22.5q-26 0 -47.5 14.5t-21.5 44.5q0 25 17 41t46 29q28 11 48.5 25.5t35.5 43.5q13 26 23.5 79.5t18 120t11 139.5t3.5 138q0 29 -9.5 40t-38.5 15l-38 5v36h629zM652 121q0 -40 16 -54.5t56 -14.5h45q88 0 135 41t47 124
q0 86 -50 128t-164 42h-85v-266z" />
    <glyph glyph-name="uni040A" unicode="&#x40a;" horiz-adv-x="1227" 
d="M369 0h-314v36l37 5q29 4 39 15t10 40v566q0 29 -10 40t-39 15l-37 5v36h314v-36l-37 -5q-29 -4 -39 -15t-10 -40v-228h329v228q0 29 -9.5 40t-38.5 15l-38 5v36h332v-36l-55 -5q-29 -2 -38.5 -14t-9.5 -41v-228h143q71 0 129.5 -14t100 -40.5t64 -65.5t22.5 -90
t-23 -92.5t-64 -71t-99.5 -45t-128.5 -15.5h-373v36l38 5q29 4 38.5 15t9.5 40v277h-329v-277q0 -29 10 -40t39 -15l37 -5v-36zM755 121q0 -40 16 -54.5t57 -14.5h47q88 0 135 39t47 117q0 84 -50 124.5t-164 40.5h-88v-252z" />
    <glyph glyph-name="uni040B" unicode="&#x40b;" horiz-adv-x="989" 
d="M167 0v38l67 5q29 2 39 13t10 40v610h-10q-56 0 -91.5 -2.5t-57.5 -12t-34.5 -27t-22.5 -47.5l-17 -55h-36l13 198l253 -2h147l288 2l14 -198h-36l-18 55q-10 31 -23.5 48.5t-38 26.5t-64 11.5t-100.5 2.5h-24v-317q42 30 99.5 49.5t120.5 19.5q46 0 87 -12t72 -38
t48.5 -68t17.5 -102v-142q0 -29 9.5 -40t38.5 -13l58 -5v-38h-249v221q0 75 -37 114.5t-124 39.5q-42 0 -78.5 -10.5t-62.5 -25.5v-243q0 -29 10 -40t39 -13l51 -5v-38h-358z" />
    <glyph glyph-name="uni040C" unicode="&#x40c;" horiz-adv-x="867" 
d="M283 362v-266q0 -29 10 -40t39 -15l37 -5v-36h-314v36l37 5q29 4 39 15t10 40v566q0 29 -10 40t-39 15l-37 5v36h314v-36l-37 -5q-29 -4 -39 -15t-10 -40v-266l270 225q27 22 45.5 39.5t25 30t-0.5 20t-31 9.5l-21 2v36h267v-36l-29 -5q-38 -7 -79.5 -31t-103.5 -75
l-213 -174l348 -348q23 -23 38 -34.5t37 -14.5l29 -4v-36h-218zM697 969l-255 -126h-21l100 129h176v-3z" />
    <glyph glyph-name="uni040E" unicode="&#x40e;" horiz-adv-x="769" 
d="M393 116q-34 -66 -67 -97.5t-74 -31.5q-35 0 -52 17.5t-17 42.5q0 31 18.5 46.5t39.5 23.5q15 6 31.5 10t32.5 10.5t31 17.5t27 30l-263 471q-8 14 -14.5 24.5t-14 18t-17.5 12t-24 6.5l-37 5v36h332v-36l-37 -5q-29 -4 -40.5 -16t3.5 -39l187 -337l143 272
q19 35 26 57.5t5.5 36t-10.5 19t-24 7.5l-37 5v36h242v-36l-34 -5q-16 -2 -27 -7.5t-21.5 -18t-22 -33t-27.5 -51.5zM340 990q0 -26 3.5 -48.5t13 -39t25.5 -26.5t41 -10t41 10t25 26.5t12 39t3 48.5h100q0 -34 -11.5 -63t-34.5 -50.5t-56.5 -34t-78.5 -12.5q-47 0 -81.5 13
t-57 34.5t-33.5 50.5t-11 62h100z" />
    <glyph glyph-name="uni040F" unicode="&#x40f;" horiz-adv-x="916" 
d="M691 0q-62 0 -99.5 -2t-59.5 -11t-31.5 -28t-14.5 -53l-10 -66h-36l-11 66q-6 34 -15.5 53t-31 28t-59.5 11t-99 2h-169v36l37 5q29 4 39 15t10 40v566q0 29 -10 40t-39 15l-37 5v36h314v-36l-37 -5q-29 -4 -39 -15t-10 -40v-526q0 -29 3.5 -45.5t13.5 -25t27.5 -11
t45.5 -2.5h170q28 0 45 2.5t27 11t13.5 25t3.5 45.5v526q0 29 -9.5 40t-38.5 15l-38 5v36h315v-36l-38 -5q-29 -4 -38.5 -15t-9.5 -40v-566q0 -29 9.5 -40t38.5 -15l38 -5v-36h-170z" />
    <glyph glyph-name="uni0490" unicode="&#x490;" horiz-adv-x="652" 
d="M303 706q-20 0 -20 -20v-590q0 -29 10 -40t39 -13l67 -5v-38h-344v36l37 5q29 4 39 15t10 40v566q0 29 -10 40t-39 15l-37 5v36h307q65 0 105 2t64 11t36.5 28t22.5 53l19 66h37l-20 -212h-323z" />
    <glyph glyph-name="uni0462" unicode="&#x462;" horiz-adv-x="866" 
d="M396 576v-200h134q63 0 120.5 -9.5t101 -31t69 -55.5t25.5 -83q0 -51 -25.5 -88t-69 -61t-100.5 -36t-120 -12h-363v36l37 5q29 4 39 15t10 40v480h-11q-48 0 -78.5 -3t-49 -12t-30 -26.5t-21.5 -47.5l-18 -48h-36l14 191l220 -2h10v34q0 29 -10 40t-39 15l-37 5v36h311
v-36l-34 -5q-29 -5 -39 -15.5t-10 -39.5v-34h10l220 2l14 -191h-36l-18 48q-11 30 -22.5 47.5t-30 26.5t-48.5 12t-78 3h-11zM396 121q0 -40 16 -54.5t57 -14.5h38q36 0 69 5.5t58 20t40 39.5t15 64q0 41 -15 67t-42.5 41t-67.5 20.5t-89 5.5h-79v-194z" />
    <glyph glyph-name="uni0472" unicode="&#x472;" horiz-adv-x="900" 
d="M450 779q81 0 154.5 -29t130 -81.5t89.5 -125.5t33 -161q0 -87 -33.5 -159.5t-89.5 -125t-129.5 -81.5t-154.5 -29t-155 29t-130 81.5t-89.5 125.5t-33.5 160t33.5 159.5t90 125t130 82t154.5 29.5zM440 723q-44 0 -87 -16.5t-77 -53.5t-55 -95.5t-21 -142.5
q69 24 122.5 29.5t97 0.5t79 -16t68 -21t64 -15t67.5 3q-5 77 -25.5 138t-54.5 103t-79 64t-99 22zM700 345q-68 -25 -118.5 -31t-90.5 -0.5t-73 18t-66 23t-68.5 14.5t-81.5 -6q5 -76 26 -135.5t55 -100.5t79 -62.5t98 -21.5q43 0 86 16t76.5 52t55 93.5t22.5 140.5z" />
    <glyph glyph-name="uni0474" unicode="&#x474;" horiz-adv-x="791" 
d="M410 -28h-52l-292 684q-12 28 -23.5 42.5t-39.5 18.5l-38 5v36h326v-36l-38 -5q-29 -4 -38.5 -15.5t1.5 -39.5l207 -495l189 471q29 72 64 106.5t79 34.5q34 0 52.5 -16.5t18.5 -42.5q0 -29 -18 -46.5t-51 -28.5q-14 -5 -29.5 -10.5t-31.5 -16.5t-31 -28.5t-26 -45.5z
" />
    <glyph glyph-name="uni0492" unicode="&#x492;" horiz-adv-x="692" 
d="M293 96q0 -29 10 -40t39 -13l67 -5v-38h-344v36l37 5q29 4 39 15t10 40v566q0 29 -10 40t-39 15l-37 5v36h291l305 2l10 -198h-36l-18 53q-10 30 -22.5 48t-36 27.5t-61 12.5t-97.5 3h-87q-20 0 -20 -20v-590zM65 415h391v-58h-391v58z" />
    <glyph glyph-name="uni0496" unicode="&#x496;" horiz-adv-x="1271" 
d="M1 0v36l35 5q22 4 35.5 14.5t34.5 33.5l319 345l-191 177q-30 28 -52.5 47t-42 31t-37 18.5t-36.5 9.5l-38 5v36h267v-36l-32 -4q-35 -3 -14.5 -29t79.5 -81l225 -208v262q0 29 -9.5 40t-38.5 15l-38 5v36h315v-36l-38 -5q-29 -4 -38.5 -15t-9.5 -40v-262l225 208
q60 56 79.5 81.5t-14.5 28.5l-32 4v36h267v-36l-38 -5q-20 -3 -38.5 -9.5t-39 -18.5t-44.5 -31t-54 -47l-186 -172l323 -350q22 -24 43 -30.5t46 -6.5h44l20 -212h-37l-19 66q-10 33 -21.5 51.5t-34 28t-59.5 12t-97 2.5l-333 361v-265q0 -29 9.5 -40t38.5 -15l38 -5v-36
h-315v36l38 5q29 4 38.5 15t9.5 40v265l-333 -361h-219z" />
    <glyph glyph-name="uni049A" unicode="&#x49a;" horiz-adv-x="889" 
d="M141 662q0 29 -10 40t-39 15l-37 5v36h314v-36l-37 -5q-29 -4 -39 -15t-10 -40v-266l270 225q27 22 45.5 39.5t25 30t-0.5 20t-31 9.5l-21 2v36h267v-36l-29 -5q-38 -7 -79.5 -31t-103.5 -75l-213 -174l348 -348q26 -25 47.5 -31t46.5 -6h40l19 -212h-36l-20 66
q-10 33 -21.5 51.5t-34 28t-59 12t-96.5 2.5l-364 362v-266q0 -29 10 -40t39 -15l37 -5v-36h-314v36l37 5q29 4 39 15t10 40v566z" />
    <glyph glyph-name="uni04A2" unicode="&#x4a2;" horiz-adv-x="937" 
d="M566 0v36l38 5q29 4 38.5 15t9.5 40v257h-369v-257q0 -29 10 -40t39 -15l37 -5v-36h-314v36l37 5q29 4 39 15t10 40v566q0 29 -10 40t-39 15l-37 5v36h314v-36l-37 -5q-29 -4 -39 -15t-10 -40v-248h369v248q0 29 -9.5 40t-38.5 15l-38 5v36h315v-36l-38 -5
q-29 -4 -38.5 -15t-9.5 -40v-546q0 -38 15 -51t51 -13h26l19 -212h-36l-20 66q-10 34 -22.5 53t-36.5 28t-64 11t-105 2h-56z" />
    <glyph glyph-name="uni04AE" unicode="&#x4ae;" horiz-adv-x="790" 
d="M207 38l68 5q29 2 38.5 13t9.5 40v243l-223 317q-9 13 -15.5 23.5t-14 18t-17 12.5t-24.5 7l-37 5v36h332v-36l-37 -5q-29 -4 -38 -17t8 -38l182 -261l143 196q23 32 34.5 54t12.5 36t-6.5 21t-22.5 9l-37 5v36h241v-36l-35 -5q-15 -2 -25.5 -8t-21.5 -18.5t-26 -32.5
t-37 -51l-193 -267v-244q0 -29 10 -40t39 -13l67 -5v-38h-375v38z" />
    <glyph glyph-name="uni04B0" unicode="&#x4b0;" horiz-adv-x="790" 
d="M207 38l68 5q29 2 38.5 13t9.5 40v243l-223 317q-9 13 -15.5 23.5t-14 18t-17 12.5t-24.5 7l-37 5v36h332v-36l-37 -5q-29 -4 -38 -17t8 -38l182 -261l143 196q23 32 34.5 54t12.5 36t-6.5 21t-22.5 9l-37 5v36h241v-36l-35 -5q-15 -2 -25.5 -8t-21.5 -18.5t-26 -32.5
t-37 -51l-193 -267v-244q0 -29 10 -40t39 -13l67 -5v-38h-375v38zM143 342h503v-59h-503v59z" />
    <glyph glyph-name="uni04B2" unicode="&#x4b2;" horiz-adv-x="836" 
d="M-2 36l37 5q19 3 34.5 9.5t32 21.5t37 39t50.5 62l165 203l-208 280q-21 28 -38 42.5t-46 18.5l-37 5v36h334v-36l-38 -5q-29 -4 -32 -17.5t15 -37.5l135 -181l85 105q33 40 50 65t20 39t-6.5 20t-29.5 8l-29 4v36h263v-36l-37 -5q-20 -3 -35 -9.5t-31.5 -21.5t-37 -39.5
t-50.5 -61.5l-125 -154l244 -329q10 -14 19 -23.5t19.5 -15.5t24 -8.5t32.5 -2.5h31l19 -212h-37l-19 66q-10 33 -21.5 51.5t-34 28t-59.5 12t-97 2.5h-90v36l37 5q29 4 32.5 17.5t-14.5 37.5l-171 231l-126 -155q-33 -40 -49.5 -65t-19.5 -39.5t6.5 -20t29.5 -7.5l29 -4
v-36h-263v36z" />
    <glyph glyph-name="uni04B6" unicode="&#x4b6;" horiz-adv-x="861" 
d="M484 0v36l44 5q29 4 38.5 15t9.5 40v238q-35 -11 -79 -19.5t-114 -8.5q-67 0 -117.5 12t-84.5 39.5t-51.5 72.5t-17.5 110v122q0 29 -9.5 40t-38.5 15l-38 5v36h315v-36l-38 -5q-29 -4 -38.5 -15t-9.5 -40v-109q0 -54 11.5 -89.5t33.5 -56t54.5 -29t74.5 -8.5q45 0 80 5
t67 13v274q0 29 -9.5 40t-38.5 15l-38 5v36h315v-36l-38 -5q-29 -4 -38.5 -15t-9.5 -40v-546q0 -38 14.5 -51t51.5 -13h26l19 -212h-37l-19 66q-10 34 -22.5 53t-36.5 28t-64 11t-105 2h-62z" />
    <glyph glyph-name="uni04BA" unicode="&#x4ba;" horiz-adv-x="856" 
d="M747.954 95.9941q0 -28.998 9.5 -39.998q9.49902 -10.999 38.4971 -14.999l37.998 -4.99902v-35.998h-314.98v35.998l37.9971 4.99902q28.998 4 38.498 14.999q9.49902 11 9.49902 39.998v108.993q0 53.9971 -11.499 89.4951q-11.499 35.4971 -33.498 55.9961
t-54.4971 28.998q-32.498 8.5 -74.4951 8.5q-44.9971 0 -79.9951 -5t-66.9961 -12.999v-273.983q0 -28.998 9.5 -39.998q9.49902 -10.999 38.4971 -14.999l37.998 -4.99902v-35.998h-314.98v35.998l37.9971 4.99902q28.998 4 38.498 14.999q9.49902 11 9.49902 39.998
v565.966q0 28.998 -9.49902 39.9971q-9.5 10.999 -38.498 14.999l-37.9971 5v35.998h320.979v-35.998l-43.9971 -5q-28.998 -4 -38.4971 -14.999q-9.5 -10.999 -9.5 -39.9971v-237.985q34.998 10.999 78.9951 19.498q43.998 8.5 113.993 8.5q66.9961 0 117.493 -12
q50.4971 -11.999 84.4951 -39.9971q33.9971 -27.998 51.4961 -72.4951q17.499 -44.498 17.499 -109.494v-121.992z" />
    <glyph glyph-name="uni04C0" unicode="&#x4c0;" horiz-adv-x="424" 
d="M141 662q0 29 -10 40t-39 15l-37 5v36h314v-36l-37 -5q-29 -4 -39 -15t-10 -40v-566q0 -29 10 -40t39 -15l37 -5v-36h-314v36l37 5q29 4 39 15t10 40v566z" />
    <glyph glyph-name="uni04D8" unicode="&#x4d8;" horiz-adv-x="832" 
d="M405 -12q-77 0 -140.5 23t-111 65.5t-76.5 102.5t-36 135h609q1 10 1 19.5v20.5q0 78 -20.5 139t-57 103.5t-87 64.5t-110.5 22q-48 0 -94 -14t-83.5 -43t-63.5 -75t-35 -110h-53q5 85 36.5 148.5t81.5 106.5t115 64.5t137 21.5q84 0 152.5 -28t116.5 -79.5t74.5 -125
t26.5 -164.5q0 -85 -31.5 -157.5t-84.5 -126t-122 -83.5t-144 -30zM412 41q41 0 79 13t69.5 40t53.5 67.5t30 94.5h-437q12 -103 66 -159t139 -56z" />
    <glyph glyph-name="uni04E2" unicode="&#x4e2;" horiz-adv-x="946" 
d="M369 0h-314v36l37 5q29 4 39 15t10 40v566q0 29 -10 40t-39 15l-37 5v36h314v-36l-37 -5q-29 -4 -39 -15t-10 -40v-444l380 415v29q0 29 -10 40t-39 15l-37 5v36h315v-36l-38 -5q-29 -4 -38.5 -15t-9.5 -40v-566q0 -29 9.5 -40t38.5 -15l38 -5v-36h-315v36l37 5
q29 4 39 15t10 40v456l-380 -415v-41q0 -29 10 -40t39 -15l37 -5v-36zM328 940h308v-67h-308v67z" />
    <glyph glyph-name="uni04E8" unicode="&#x4e8;" horiz-adv-x="900" 
d="M450 779q81 0 154.5 -29t130 -81.5t89.5 -125.5t33 -161q0 -87 -33.5 -159.5t-89.5 -125t-129.5 -81.5t-154.5 -29t-155 29t-130 81.5t-89.5 125.5t-33.5 160t33.5 159.5t90 125t130 82t154.5 29.5zM460 43q44 0 87 16.5t77 53t55 95.5t21 144v1h-498q6 -74 27.5 -131.5
t55.5 -97.5t78.5 -60.5t96.5 -20.5zM440 723q-44 0 -87 -16.5t-77 -53.5t-55 -96t-21 -143h497q-6 73 -27.5 130.5t-55 97t-78 60.5t-96.5 21z" />
    <glyph glyph-name="uni04EE" unicode="&#x4ee;" horiz-adv-x="769" 
d="M393 116q-34 -66 -67 -97.5t-74 -31.5q-35 0 -52 17.5t-17 42.5q0 31 18.5 46.5t39.5 23.5q15 6 31.5 10t32.5 10.5t31 17.5t27 30l-263 471q-8 14 -14.5 24.5t-14 18t-17.5 12t-24 6.5l-37 5v36h332v-36l-37 -5q-29 -4 -40.5 -16t3.5 -39l187 -337l143 272
q19 35 26 57.5t5.5 36t-10.5 19t-24 7.5l-37 5v36h242v-36l-34 -5q-16 -2 -27 -7.5t-21.5 -18t-22 -33t-27.5 -51.5zM269 940h308v-67h-308v67z" />
    <glyph glyph-name="uni0430" unicode="&#x430;" horiz-adv-x="571" 
d="M582 75q-21 -48 -56 -68t-76 -20q-20 0 -38.5 6t-32.5 19t-22.5 32t-8.5 46v11q-15 -56 -54.5 -85t-99.5 -29q-35 0 -64 10t-51 28.5t-34 44t-12 56.5q0 44 27 75t71 51t99.5 31.5t113.5 16.5v52q0 73 -24 100.5t-75 27.5q-12 0 -25 -1.5t-23 -4.5t-16.5 -7t-6.5 -10
q0 -12 5.5 -24.5t5.5 -33.5q0 -26 -15 -46t-50 -20q-29 0 -45 19t-16 45q0 27 18.5 49.5t48.5 39t68.5 25.5t78.5 9q47 0 84.5 -7.5t64 -28.5t40 -58t12.5 -95l-4 -202q-1 -41 7.5 -59.5t29.5 -18.5q16 0 29 9t26 29zM179 141q0 -38 19 -65t55 -27q15 0 30.5 6t29 20
t22 36.5t8.5 56.5l1 106q-89 -14 -127 -47.5t-38 -85.5z" />
    <glyph glyph-name="uni0431" unicode="&#x431;" horiz-adv-x="611" 
d="M575 245q0 -60 -21 -108t-57.5 -81t-85.5 -51t-105 -18t-105 18.5t-85.5 57t-57.5 97.5t-21 140q0 86 20.5 162.5t61.5 136.5t102.5 101t144.5 57q31 6 57 11.5t45 13t29.5 18.5t10.5 29h30q0 -42 -6 -76.5t-25 -59t-54 -38.5t-92 -16q-46 -2 -74.5 -3.5t-45.5 -4
t-25.5 -6t-14.5 -9.5t-9.5 -16t-6 -28.5t-4 -46.5t-1.5 -68q25 22 60 36.5t83 14.5q53 0 99 -18t80 -52t53.5 -83t19.5 -110zM180 280q0 -68 11 -115t29.5 -76t42.5 -41.5t50 -12.5q23 0 44.5 9t38 29.5t26 54t9.5 83.5q0 68 -13.5 114t-35.5 74.5t-50.5 40.5t-58.5 12
q-19 0 -44.5 -5t-48.5 -18v-149z" />
    <glyph glyph-name="uni0432" unicode="&#x432;" horiz-adv-x="588" 
d="M33 33l27 5q26 5 33.5 14t7.5 24v350q0 15 -7.5 24t-33.5 14l-27 5v33h272q106 0 163 -29t57 -89q0 -46 -39 -75t-111 -37v-2q38 -3 71.5 -11.5t58 -23.5t39 -37.5t14.5 -53.5q0 -68 -62 -106t-183 -38h-280v33zM251 460q-12 0 -16 -5.5t-4 -16.5v-151h53q56 0 79.5 24.5
t23.5 69.5q0 43 -26.5 61t-79.5 18h-30zM231 98q0 -32 19.5 -44.5t55.5 -12.5q54 0 84 23.5t30 79.5q0 21 -6 39.5t-21.5 32.5t-41.5 22.5t-66 8.5h-54v-149z" />
    <glyph glyph-name="uni0433" unicode="&#x433;" horiz-adv-x="483" 
d="M231 76q0 -15 7.5 -25t33.5 -13l45 -5v-33h-284v33l27 5q26 5 33.5 14t7.5 24v350q0 15 -7.5 24t-33.5 14l-27 5v33h237l190 2l7 -171h-35l-18 48q-8 22 -15 36.5t-21 23t-39 11.5t-69 3h-19q-12 0 -16 -5t-4 -15v-359z" />
    <glyph glyph-name="uni0434" unicode="&#x434;" horiz-adv-x="570" 
d="M531 502v-33l-27 -5q-26 -5 -33.5 -14t-7.5 -24v-345q0 -16 5.5 -25t30.5 -9h39l6 -186h-35l-28 78q-8 23 -19 35.5t-30 18t-47 6.5t-71 1h-116q-29 0 -49.5 -1t-35 -7t-24.5 -18.5t-18 -34.5l-28 -78h-35l6 186h56q18 33 31 76.5t22 93.5t13.5 103t4.5 106q0 15 -7.5 24
t-33.5 14l-28 5v33h459zM293 47q24 0 32 9t8 25v354q0 11 -4 15.5t-16 4.5h-102q-12 0 -16 -4.5t-4 -15.5q0 -59 -4.5 -115t-12.5 -106.5t-20.5 -93t-27.5 -73.5h167z" />
    <glyph glyph-name="uni0435" unicode="&#x435;" horiz-adv-x="588" 
d="M299 -13q-61 0 -109.5 20t-82.5 55.5t-52 84.5t-18 107q0 60 21.5 109t57.5 83.5t82 53.5t95 19q48 0 89.5 -13.5t74 -41t54.5 -68.5t31 -95h-370q2 -109 49.5 -169t126.5 -60q25 0 49 5.5t45.5 19.5t38 38t26.5 61h41q-17 -105 -83 -157t-166 -52zM290 479
q-45 0 -76 -32t-39 -98h222q0 36 -9 61t-24 40.5t-34 22t-40 6.5z" />
    <glyph glyph-name="uni0451" unicode="&#x451;" horiz-adv-x="588" 
d="M299 -13q-61 0 -109.5 20t-82.5 55.5t-52 84.5t-18 107q0 60 21.5 109t57.5 83.5t82 53.5t95 19q48 0 89.5 -13.5t74 -41t54.5 -68.5t31 -95h-370q2 -109 49.5 -169t126.5 -60q25 0 49 5.5t45.5 19.5t38 38t26.5 61h41q-17 -105 -83 -157t-166 -52zM290 479
q-45 0 -76 -32t-39 -98h222q0 36 -9 61t-24 40.5t-34 22t-40 6.5zM415 645q-28 0 -46.5 19t-18.5 47q0 29 18.5 47.5t46.5 18.5q27 0 46 -18.5t19 -47.5q0 -28 -19 -47t-46 -19zM186 645q-28 0 -46.5 19t-18.5 47q0 29 18.5 47.5t46.5 18.5q27 0 46 -18.5t19 -47.5
q0 -28 -19 -47t-46 -19z" />
    <glyph glyph-name="uni0436" unicode="&#x436;" horiz-adv-x="903" 
d="M-6 0v33l25 5q18 4 31 11t27 25l186 229l-83 76q-29 27 -50 43t-37 25t-29 12.5t-27 5.5l-29 4v33h241v-33l-28 -4q-31 -5 -20 -22t55 -58l131 -120v161q0 15 -7.5 23t-33.5 15l-23 5v33h257v-33l-22 -5q-26 -7 -33.5 -15t-7.5 -23v-161l131 120q43 41 54 58t-20 22
l-28 4v33h241v-33l-29 -4q-14 -2 -28.5 -5.5t-32 -12t-40 -25t-51.5 -43.5l-74 -69l192 -236q14 -18 24.5 -25t27.5 -11l25 -5v-33h-185l-207 254v-178q0 -15 7.5 -23t33.5 -15l23 -5v-33h-259v33l24 5q26 7 33.5 15t7.5 23v179l-208 -255h-185z" />
    <glyph glyph-name="uni0437" unicode="&#x437;" horiz-adv-x="523" 
d="M251 28q43 0 70.5 24t27.5 81q0 23 -6 43t-20 34.5t-39 22.5t-62 8h-51v50h51q59 0 80.5 23t21.5 66q0 52 -25 74.5t-65 22.5q-41 0 -68.5 -17.5t-47.5 -66.5l-16 -39h-42l24 145q32 13 72.5 16.5t87.5 3.5q104 0 161 -30.5t57 -87.5q0 -54 -39 -85.5t-107 -44.5v-2
q36 -3 67.5 -11.5t54.5 -24t36 -39t13 -54.5q0 -72 -61 -112.5t-178 -40.5q-50 0 -89.5 10t-68 26.5t-43.5 38t-15 45.5q0 30 17.5 46t42.5 16q32 0 48.5 -18t24.5 -47q5 -16 10.5 -29.5t15 -24t23.5 -16.5t37 -6z" />
    <glyph glyph-name="uni0438" unicode="&#x438;" horiz-adv-x="657" 
d="M101 426q0 15 -7.5 24t-33.5 14l-27 5v33h264v-33l-25 -5q-26 -6 -33.5 -14.5t-7.5 -23.5v-257l195 242v15q0 15 -7.5 23.5t-33.5 14.5l-25 5v33h264v-33l-27 -5q-26 -5 -33.5 -14t-7.5 -24v-350q0 -15 7.5 -24t33.5 -14l27 -5v-33h-264v33l25 5q26 6 33.5 14.5t7.5 23.5
v256l-195 -241v-15q0 -15 7.5 -23.5t33.5 -14.5l25 -5v-33h-264v33l27 5q26 5 33.5 14t7.5 24v350z" />
    <glyph glyph-name="uni0439" unicode="&#x439;" horiz-adv-x="657" 
d="M101 426q0 15 -7.5 24t-33.5 14l-27 5v33h264v-33l-25 -5q-26 -6 -33.5 -14.5t-7.5 -23.5v-257l195 242v15q0 15 -7.5 23.5t-33.5 14.5l-25 5v33h264v-33l-27 -5q-26 -5 -33.5 -14t-7.5 -24v-350q0 -15 7.5 -24t33.5 -14l27 -5v-33h-264v33l25 5q26 6 33.5 14.5t7.5 23.5
v256l-195 -241v-15q0 -15 7.5 -23.5t33.5 -14.5l25 -5v-33h-264v33l27 5q26 5 33.5 14t7.5 24v350zM242 788q0 -26 3.5 -48.5t13 -39t25.5 -26.5t41 -10t41 10t25 26.5t12 39t3 48.5h100q0 -34 -11.5 -63t-34.5 -50.5t-56.5 -34t-78.5 -12.5q-47 0 -81.5 13t-57 34.5
t-33.5 50.5t-11 62h100z" />
    <glyph glyph-name="uni043A" unicode="&#x43a;" horiz-adv-x="633" 
d="M95 426q0 15 -7.5 24t-33.5 14l-27 5v33h266v-33l-27 -5q-26 -5 -33.5 -14t-7.5 -24v-153l141 112q47 38 56 56.5t-21 23.5l-32 4v33h245v-33l-29 -4q-14 -2 -27.5 -6t-30.5 -13.5t-39 -25t-53 -40.5l-91 -73l216 -233q16 -17 25 -24.5t26 -11.5l25 -5v-33h-185l-226 245
v-169q0 -15 7.5 -24t33.5 -14l27 -5v-33h-266v33l27 5q26 5 33.5 14t7.5 24v350z" />
    <glyph glyph-name="uni043B" unicode="&#x43b;" horiz-adv-x="581" 
d="M143 188q10 32 14.5 94t4.5 144q0 15 -7.5 24t-33.5 14l-27 5v33h454v-33l-27 -5q-26 -5 -33.5 -14t-7.5 -24v-350q0 -15 7.5 -24t33.5 -14l27 -5v-33h-264v33l25 5q26 6 33.5 14.5t7.5 23.5v359q0 11 -4 15.5t-16 4.5h-97q-12 0 -16 -4.5t-4 -15.5q0 -60 -2.5 -108.5
t-7 -89t-11.5 -73.5t-16 -62q-18 -57 -44 -86t-62 -29q-26 0 -43.5 15t-17.5 39q0 28 20.5 45t46.5 29q14 7 24.5 12t18 12.5t13.5 18.5t11 30z" />
    <glyph glyph-name="uni043C" unicode="&#x43c;" horiz-adv-x="796" 
d="M551 426l-170 -434h-38l-174 415l-13 -331q-1 -15 7 -23.5t34 -14.5l25 -5v-33h-191v33l27 5q26 5 34 14.5t9 23.5l16 350q1 15 -7 24t-34 14l-28 5v33h215l138 -328l131 328h216v-33l-27 -5q-26 -5 -34 -14t-7 -24l17 -350q1 -15 8 -24t33 -14l27 -5v-33h-264v33l25 5
q26 6 34 14.5t7 23.5z" />
    <glyph glyph-name="uni043D" unicode="&#x43d;" horiz-adv-x="647" 
d="M101 426q0 15 -7.5 24t-33.5 14l-27 5v33h264v-33l-25 -5q-26 -6 -33.5 -14.5t-7.5 -23.5v-140h185v140q0 15 -7.5 23.5t-33.5 14.5l-25 5v33h264v-33l-27 -5q-26 -5 -33.5 -14t-7.5 -24v-350q0 -15 7.5 -24t33.5 -14l27 -5v-33h-264v33l25 5q26 6 33.5 14.5t7.5 23.5
v157h-185v-157q0 -15 7.5 -23.5t33.5 -14.5l25 -5v-33h-264v33l27 5q26 5 33.5 14t7.5 24v350z" />
    <glyph glyph-name="uni043E" unicode="&#x43e;" horiz-adv-x="611" 
d="M306 -13q-60 0 -109.5 20t-85 55t-55 84t-19.5 107t19.5 107t55 84t85 55t109.5 20t109.5 -20t85 -55t55 -84t19.5 -107t-19.5 -107t-55 -84t-85 -55t-109.5 -20zM313 35q24 0 45.5 9.5t38 31t26.5 56.5t10 86q0 45 -8 90.5t-24.5 81.5t-41.5 58.5t-60 22.5
q-24 0 -46 -9.5t-38.5 -31t-26.5 -56.5t-10 -86q0 -45 8 -90.5t24.5 -81.5t42 -58.5t60.5 -22.5z" />
    <glyph glyph-name="uni043F" unicode="&#x43f;" horiz-adv-x="637" 
d="M231 76q0 -15 7.5 -23.5t33.5 -14.5l22 -5v-33h-261v33l27 5q26 5 33.5 14t7.5 24v350q0 15 -7.5 24t-33.5 14l-27 5v33h571v-33l-27 -5q-26 -5 -33.5 -14t-7.5 -24v-350q0 -15 7.5 -24t33.5 -14l27 -5v-33h-261v33l22 5q26 6 33.5 14.5t7.5 23.5v359q0 11 -4 15.5
t-16 4.5h-135q-12 0 -16 -4.5t-4 -15.5v-359z" />
    <glyph glyph-name="uni0440" unicode="&#x440;" horiz-adv-x="616" 
d="M293 452q-44 0 -72 -24v-366q28 -21 70 -21q61 0 101.5 54t40.5 153q0 46 -10.5 84t-29.5 64.5t-44.5 41t-55.5 14.5zM23 -215l27 5q26 5 33.5 14t7.5 24v590q0 14 -7.5 23.5t-33.5 14.5l-27 5v33l198 21v-61q10 12 24.5 23.5t32.5 20.5t39 15t44 6q43 0 82.5 -17.5
t69.5 -51.5t47.5 -83t17.5 -113q0 -60 -18.5 -109t-50.5 -84t-76 -54.5t-95 -19.5q-37 0 -67 14.5t-50 35.5v-209q0 -15 7.5 -24t33.5 -12l48 -5v-35h-287v33z" />
    <glyph glyph-name="uni0441" unicode="&#x441;" horiz-adv-x="563" 
d="M298 -13q-61 0 -109.5 20t-82 55.5t-51.5 84.5t-18 107q0 60 22 109t58.5 83.5t85 53.5t102.5 19q43 0 80 -10t64 -26.5t42 -38t15 -45.5q0 -28 -17.5 -45t-43.5 -17q-32 0 -48 17.5t-24 46.5q-5 16 -10.5 30t-15 24.5t-24 16.5t-35.5 6q-51 0 -83.5 -45t-32.5 -134
q0 -53 12.5 -95t35.5 -71t55.5 -45t72.5 -16q24 0 47 5.5t43.5 19.5t36.5 38t26 61h41q-18 -107 -81 -158t-163 -51z" />
    <glyph glyph-name="uni0442" unicode="&#x442;" horiz-adv-x="536" 
d="M203 455h-26q-22 0 -39 -2.5t-30 -10t-23 -22t-19 -39.5l-17 -48h-36l7 171l207 -2h82l207 2l7 -171h-36l-17 48q-9 25 -19 39.5t-23 22t-30 10t-39 2.5h-26v-379q0 -15 7.5 -24.5t33.5 -13.5l42 -5v-33h-298v33l44 5q26 4 33.5 13.5t7.5 24.5v379z" />
    <glyph glyph-name="uni0443" unicode="&#x443;" horiz-adv-x="582" 
d="M137 -254q-29 0 -45 17.5t-16 39.5q0 55 88 83q26 8 43 19.5t32 43.5l26 57l-192 420q-6 14 -15 23.5t-35 14.5l-27 5v33h280v-33l-27 -5q-26 -5 -32.5 -14.5t-0.5 -23.5l119 -267l122 267q6 14 0 23.5t-32 14.5l-27 5v33h190v-33l-27 -5q-26 -5 -35 -14.5t-15 -23.5
l-267 -579q-26 -57 -52 -79t-55 -22z" />
    <glyph glyph-name="uni0444" unicode="&#x444;" horiz-adv-x="787" 
d="M260 -215l27 5q26 5 33.5 14t7.5 24v160q-63 4 -116.5 24t-92 53.5t-60.5 79.5t-22 101t22 103t60.5 84t92 58.5t116.5 26.5v179q0 14 -7.5 23t-33.5 14l-27 6v32l198 22v-276q63 -4 116.5 -24t92.5 -53.5t61 -79.5t22 -101t-22 -103t-61 -84t-92.5 -58.5t-116.5 -26.5
v-160q0 -15 7.5 -24t33.5 -14l28 -5v-33h-267v33zM180 274q0 -45 9.5 -85t28.5 -71t46.5 -52t63.5 -28v432q-29 -4 -55.5 -17.5t-47 -37.5t-33 -59t-12.5 -82zM606 232q0 45 -9.5 85t-28.5 71.5t-46.5 52t-63.5 27.5v-432q28 3 55 16.5t47.5 37.5t33 59t12.5 83z" />
    <glyph glyph-name="uni0445" unicode="&#x445;" horiz-adv-x="610" 
d="M0 33l27 3q26 3 46 16t40 35l138 150l-138 182q-16 20 -29.5 31.5t-39.5 15.5l-20 3v33h279v-33l-24 -3q-26 -3 -30 -14t10 -29l74 -97l71 78q51 55 1 61l-32 4v33h217v-33l-26 -3q-26 -3 -46 -16t-40 -35l-117 -127l156 -205q16 -20 29.5 -31.5t39.5 -15.5l20 -3v-33
h-278v33l23 3q26 4 30 14.5t-10 28.5l-91 120l-93 -101q-25 -27 -26.5 -42.5t24.5 -18.5l33 -4v-33h-218v33z" />
    <glyph glyph-name="uni0446" unicode="&#x446;" horiz-adv-x="643" 
d="M366 47q24 0 32 9t8 25v345q0 15 -7.5 23.5t-33.5 14.5l-22 5v33h261v-33l-27 -5q-26 -5 -33.5 -14t-7.5 -24v-345q0 -16 5.5 -25t30.5 -9h39l6 -186h-35l-28 78q-8 23 -19 35.5t-29.5 18t-47 6.5t-71.5 1h-354v33l27 5q26 5 33.5 14t7.5 24v350q0 15 -7.5 24t-33.5 14
l-27 5v33h261v-33l-22 -5q-26 -6 -33.5 -14.5t-7.5 -23.5v-345q0 -16 8 -25t32 -9h95z" />
    <glyph glyph-name="uni0447" unicode="&#x447;" horiz-adv-x="621" 
d="M215 360q0 -53 20.5 -77.5t73.5 -24.5q23 0 41.5 3.5t38.5 9.5v155q0 15 -7.5 22.5t-33.5 15.5l-21 5v33h261v-33l-28 -5q-26 -5 -33.5 -14t-7.5 -24v-350q0 -15 7.5 -24t33.5 -14l28 -5v-33h-272v33l32 5q26 5 33.5 14t7.5 24v148q-29 -12 -59 -17.5t-70 -5.5
q-94 0 -134.5 37t-40.5 121v67q0 15 -7.5 24t-33.5 14l-27 5v33h261v-33l-22 -5q-26 -6 -33.5 -14.5t-7.5 -23.5v-66z" />
    <glyph glyph-name="uni0448" unicode="&#x448;" horiz-adv-x="916" 
d="M33 0v33l27 5q26 5 33.5 14t7.5 24v350q0 15 -7.5 24t-33.5 14l-27 5v33h259v-33l-20 -5q-26 -8 -33.5 -15.5t-7.5 -22.5v-345q0 -16 8 -25t32 -9h122v379q0 15 -7.5 22.5t-33.5 15.5l-20 5v33h252v-33l-20 -5q-26 -8 -33.5 -15.5t-7.5 -22.5v-379h122q24 0 32 9t8 25
v345q0 15 -7.5 22.5t-33.5 15.5l-20 5v33h259v-33l-27 -5q-26 -5 -33.5 -14t-7.5 -24v-350q0 -15 7.5 -24t33.5 -14l27 -5v-33h-850z" />
    <glyph glyph-name="uni0449" unicode="&#x449;" horiz-adv-x="922" 
d="M33 0v33l27 5q26 5 33.5 14t7.5 24v350q0 15 -7.5 24t-33.5 14l-27 5v33h259v-33l-20 -5q-26 -8 -33.5 -15.5t-7.5 -22.5v-345q0 -16 8 -25t32 -9h122v379q0 15 -7.5 22.5t-33.5 15.5l-20 5v33h252v-33l-20 -5q-26 -8 -33.5 -15.5t-7.5 -22.5v-379h122q24 0 32 9t8 25
v345q0 15 -7.5 22.5t-33.5 15.5l-20 5v33h259v-33l-27 -5q-26 -5 -33.5 -14t-7.5 -24v-345q0 -16 5.5 -25t30.5 -9h39l6 -186h-35l-28 78q-8 23 -19 35.5t-29.5 18t-47 6.5t-71.5 1h-633z" />
    <glyph glyph-name="uni044A" unicode="&#x44a;" horiz-adv-x="657" 
d="M178 455q-23 0 -40 -2.5t-30 -10t-23 -22t-19 -39.5l-17 -48h-36l7 171l206 -2h186v-33l-44 -5q-26 -4 -33.5 -13.5t-7.5 -24.5v-121h70q125 0 184.5 -38t59.5 -107q0 -35 -15.5 -64t-45.5 -50.5t-75 -33.5t-104 -12h-272v33l27 5q26 5 33.5 14t7.5 24v379h-19zM327 98
q0 -33 18 -45t53 -12q45 0 75 25.5t30 80.5q0 22 -6 42t-22 35.5t-45.5 24.5t-75.5 9h-27v-160z" />
    <glyph glyph-name="uni044B" unicode="&#x44b;" horiz-adv-x="845" 
d="M613 426q0 15 -7.5 23.5t-33.5 14.5l-25 5v33h265v-33l-28 -5q-26 -5 -33.5 -14t-7.5 -24v-350q0 -15 7.5 -24t33.5 -14l28 -5v-33h-265v33l25 5q26 6 33.5 14.5t7.5 23.5v350zM231 305h70q125 0 184.5 -38t59.5 -107q0 -35 -15.5 -64t-45.5 -50.5t-75 -33.5t-104 -12
h-272v33l27 5q26 5 33.5 14t7.5 24v350q0 15 -7.5 24t-33.5 14l-27 5v33h283v-33l-44 -5q-26 -4 -33.5 -13.5t-7.5 -24.5v-121zM231 98q0 -33 18 -45t53 -12q45 0 75 25.5t30 80.5q0 22 -6 42t-22 35.5t-45.5 24.5t-75.5 9h-27v-160z" />
    <glyph glyph-name="uni044C" unicode="&#x44c;" horiz-adv-x="561" 
d="M231 305h70q125 0 184.5 -38t59.5 -107q0 -35 -15.5 -64t-45.5 -50.5t-75 -33.5t-104 -12h-272v33l27 5q26 5 33.5 14t7.5 24v350q0 15 -7.5 24t-33.5 14l-27 5v33h283v-33l-44 -5q-26 -4 -33.5 -13.5t-7.5 -24.5v-121zM231 98q0 -33 18 -45t53 -12q45 0 75 25.5t30 80.5
q0 22 -6 42t-22 35.5t-45.5 24.5t-75.5 9h-27v-160z" />
    <glyph glyph-name="uni044D" unicode="&#x44d;" horiz-adv-x="554" 
d="M255 -13q-50 0 -90.5 10t-69.5 26.5t-44.5 38t-15.5 45.5q0 28 17.5 45t43.5 17q33 0 48 -17t23 -46q5 -16 11 -30t16 -24.5t25.5 -17t38.5 -6.5q53 0 84.5 43.5t31.5 142.5v19h-199v53h196q-8 90 -38.5 140.5t-92.5 50.5q-45 0 -74 -18t-49 -66l-16 -39h-42l24 145
q34 11 75 15.5t91 4.5q61 0 110.5 -20t84.5 -55.5t54 -84t19 -104.5q0 -58 -17.5 -107t-51 -85t-82 -56t-111.5 -20z" />
    <glyph glyph-name="uni044E" unicode="&#x44e;" horiz-adv-x="872" 
d="M101 426q0 15 -7.5 24t-33.5 14l-27 5v33h264v-33l-25 -5q-26 -6 -33.5 -14.5t-7.5 -23.5v-140h88q5 52 26 94.5t54.5 73.5t78.5 48t98 17q58 0 105.5 -20t81.5 -55t53 -84t19 -107t-19 -107t-53 -84t-81.5 -55t-105.5 -20q-55 0 -101 18t-80 50.5t-54 78t-23 99.5h-87
v-157q0 -15 7.5 -23.5t33.5 -14.5l25 -5v-33h-264v33l27 5q26 5 33.5 14t7.5 24v350zM583 35q22 0 41.5 9.5t34.5 31t24 56.5t9 86q0 45 -7 90.5t-22 81.5t-38 58.5t-56 22.5q-22 0 -41.5 -9.5t-34.5 -31t-23.5 -56.5t-8.5 -86q0 -45 7 -90.5t22 -81.5t38 -58.5t55 -22.5z
" />
    <glyph glyph-name="uni044F" unicode="&#x44f;" horiz-adv-x="606" 
d="M197 225q-57 14 -85.5 47t-28.5 82q0 37 17.5 65t47.5 46.5t69 27.5t83 9h270v-33l-27 -5q-26 -5 -33.5 -14t-7.5 -24v-350q0 -15 7.5 -24t33.5 -14l27 -5v-33h-264v33l25 5q26 6 33.5 14.5t7.5 23.5v132h-45l-146 -208h-175v33l20 4q20 5 33 13t30 30zM327 458
q-52 0 -79 -26.5t-27 -68.5q0 -20 5.5 -40.5t18 -37t32.5 -26.5t50 -10q14 0 25.5 0.5t19.5 1.5v187q0 11 -4 15.5t-16 4.5h-25z" />
    <glyph glyph-name="uni0452" unicode="&#x452;" horiz-adv-x="611" 
d="M410 303q0 41 -7 67.5t-19 42t-28 21.5t-35 6q-18 0 -35.5 -6.5t-32 -23t-23 -43.5t-8.5 -68v-223q0 -15 7.5 -24t33.5 -14l27 -5v-33h-266v33l27 5q26 5 33.5 14t7.5 24v505h-68v49h68v67q0 14 -7.5 23t-33.5 14l-27 6v32l198 22v-164h111v-49h-111v-192
q20 63 60.5 96.5t103.5 33.5q33 0 61 -9.5t48.5 -32t32.5 -59t12 -90.5v-284q0 -42 -6.5 -73.5t-19.5 -55.5t-33 -44t-47 -39q-24 -18 -63.5 -44t-79.5 -50l-23 31q35 30 61.5 54t44.5 52.5t27 66.5t9 96v265z" />
    <glyph glyph-name="uni0453" unicode="&#x453;" horiz-adv-x="483" 
d="M231 76q0 -15 7.5 -25t33.5 -13l45 -5v-33h-284v33l27 5q26 5 33.5 14t7.5 24v350q0 15 -7.5 24t-33.5 14l-27 5v33h237l190 2l7 -171h-35l-18 48q-8 22 -15 36.5t-21 23t-39 11.5t-69 3h-19q-12 0 -16 -5t-4 -15v-359zM334 788h140v-9l-231 -170h-17z" />
    <glyph glyph-name="uni0454" unicode="&#x454;" horiz-adv-x="564" 
d="M298 -13q-61 0 -109.5 20t-82 55.5t-51.5 84.5t-18 107q0 60 22 109t58.5 83.5t85 53.5t102.5 19q43 0 80 -10t64 -26.5t42 -38t15 -45.5q0 -28 -17.5 -45t-43.5 -17q-32 0 -48 17.5t-24 46.5q-5 16 -10.5 30t-15 24.5t-24 16.5t-35.5 6q-51 0 -83.5 -45t-32.5 -134v-13
h177v-53h-172q14 -76 59.5 -118.5t111.5 -42.5q24 0 47 5.5t43.5 19.5t36.5 38t26 61h41q-18 -107 -81 -158t-163 -51z" />
    </font>
</defs>
</svg>
